<svg width="400" height="444" fill="none" xmlns="http://www.w3.org/2000/svg">
  <path
    d="M224.604 396.04c-7.48-2-25.52-1.2-28.2-10.68-4.2-20.6.72-48.44-.6-69.64-12.8 3.92-23.96 3.16-36.76-.2 0 10.08-.88 45.68-.48 56.32 3 .64 6 2.32 9.2 2.8 5.84 1.12 9.72 6.76 8.6 12.6-2.4 14.32-21.76 6.32-30.6 5.2-9.56-1.76-9.88-12.08-9.8-19.8-1.2-5.8-1.24-13.84-.16-19.56 1.68-3.92 1.12-38.4 1.2-43.28-37.24-20.6-55.08-63.76-52-104.84-8.56-15.08-9.64-41.16-1.2-59.6 5-12.68 15.52-15.52 19.8-24.2-1.36-8.8-.68-18.56 2.24-26.92-25.68 4.56-33.12-18.84-11.84-31.28 14.96-9.96 40.64-19.64 58.68-19.96 20.2.88 24.04 15.88 9.64 28.84 6.92 3.72 12.04 7.32 19.8 7.6 4.16-.44 5.72.96 8.08-.48 2.32-1.4 5.2-1.52 7.76-.52 1.76.72 3.52 1.24 4.56.72 7 .76 17.08 3.44 20.28 8.12 16.64 6.04 31.36 18 40.32 33.12 5.68 9.04 13.96 23.36 4.56 32.6 6.84 16.88 15.12 33.64 13.6 52.72.08 5.44-.72 13.44-.96 19.48 23.68-2.68 19.68 14.68 19.76 31.6-.2 5.36.64 11.24-1.24 16.4-2.08 9.24-15.56 13.84-23.64 13.48-3.76-.44-8.8-2.28-13.4-7.88h-3.52c-6.24 9.48-14.68 16.88-27.44 24.08-19.08 7.84-11.6 2.76-12.44 21.52-1.56 13.84-.72 33.2-.96 47.28 3.08.56 5.96 2.24 9.2 2.88 12.6 2.08 10.72 21.8-2.04 21.48Z"
    fill="#fff"
  />
  <path
    d="M284.361 237.307v7.093c0 1.501.584 2.939.806 4.436.597 4.026-.521 8.413.582 12.383.25.902.422 1.762.747 2.657.155.427.213.668.213 1.138 0 .812-1.187-2.306-1.304-2.585-2.869-6.853-6.035-13.395-9.881-19.749-.723-1.195-1.231-2.478-2.265-3.452-.337-.316.557 1.913.64 2.171.812 2.527 1.149 5.227 1.329 7.864.319 4.67.642 9.46 1.66 14.043.138.621.96 2.289.51 1.839-.324-.324-.554-.682-.889-.985-.254-.228-.429-.543-.593-.842-1.385-2.517-2.097-5.568-3.084-8.255-1.314-3.578-3.499-6.64-5.326-9.951-.458-.83-.664-2.733-1.399-3.322-.793-.633-.746-2.176-1.495-2.775-.352-.282.122.973.202 1.115 1.495 2.658 3.685 4.877 5.883 6.95 2.287 2.158 4.658 4.079 6.488 6.666 1.672 2.366 2.241 5.454 2.526 8.279.121 1.193.341 2.517.7 3.665.095.303.094.347-.166.048a83.342 83.342 0 0 1-2.598-3.12c-3.038-3.858-6.235-7.617-9.05-11.647-2.09-2.993-3.732-6.272-5.491-9.465-.287-.52-.772-1.894-1.483-2.052-.585-.13-1.479.201-2.111.201-.76 0-.129 1.344.012 1.685 1.333 3.229 2.929 6.362 4.317 9.572 1.331 3.078 2.827 6.057 4.175 9.121.447 1.015 1.057 1.882 1.507 2.882.586 1.304-.113.56-1.056-.083-3.003-2.049-6.138-4.616-8.54-7.354-4.055-4.622-5.49-10.08-7.805-15.562-.548-1.299-2.004-2.3-3.155-3.036-.426-.273 1.193 3.306 1.353 3.677 1.682 3.913 2.929 8.009 4.744 11.861 1.49 3.162 3.138 6.248 4.614 9.418.499 1.072.786 2.619 1.506 3.546.121.155.473.715.451.913-.019.17-.418-.087-.427-.094-1.271-1.023-2.315-2.503-3.345-3.749-4.85-5.865-9.581-11.936-13.047-18.74-.754-1.48-2.01-3.688-3.321-4.697-.25-.192-.678-.83-1.008-.83-1.096 0 .946 7.704 1.091 8.208 1.926 6.719 4.732 12.655 8.291 18.633.126.213 1.365 2.375.925 2.076-1.638-1.111-3.064-3.176-4.353-4.65-3.262-3.728-6.03-7.906-8.101-12.406-.989-2.15-1.865-4.404-3.072-6.441-.499-.841-.915-1.59-1.72-2.194-.711-.534-1.598-.766-2.301-1.329-.849-.679-1.516-1.557-2.372-2.229-.269-.212-.689-.95-.664-.095.136 4.847 2.323 9.865 3.819 14.411.984 2.993 1.764 6.217 3.06 9.097.207.461 3.577 6.583 3.962 6.263.344-.287-3.807-8.195-4.081-8.848-1.235-2.948-2.277-6.049-2.277-9.276 0-.719.412-1.222.427-1.898.044-2.016-.848-3.797-1.921-5.467-1.259-1.959-2.67-3.836-5.113-4.081-.337-.033-1.199-.163-1.506.036-.967.626.177 4.763.332 5.515 1.205 5.851 2.219 11.764 4.697 17.234.727 1.604 1.476 3.165 2.325 4.709.122.223.585.752.119.415-.359-.259-.571-.852-.783-1.209-1.267-2.13-2.613-4.203-3.82-6.37-2.846-5.111-5.723-10.071-9.014-14.909a248.562 248.562 0 0 1-3.546-5.385c-.71-1.104.939 2.452 1.411 3.677 2.262 5.875 4.049 11.933 6.037 17.898.526 1.579.634 3.178 1.068 4.816.094.357.247.702.308 1.067.038.227-.855-1.298-.889-1.364-2.42-4.686-4.495-9.282-7.615-13.593-1.7-2.348-3.6-4.608-5.788-6.523-.385-.337-1.645-1.732-2.207-1.732-.111 0 .185.545.19.558.376.922.764 1.824 1.21 2.716a243.42 243.42 0 0 1 5.409 11.505c.878 2.013 1.65 4.086 2.55 6.085.025.057.359.532.059.19-.917-1.048-1.684-2.258-2.348-3.476-3.055-5.6-4.964-11.777-7.817-17.483-.822-1.645-1.715-3.292-3.024-4.602-.856-.855-1.616-1.474-2.349-2.515-.623-.885.395 1.899.439 2.041 1.394 4.531 2.335 9.214 3.286 13.853.744 3.634 1.626 7.157 2.573 10.734.133.501.279.999.427 1.495.104.344.799.984.439.984-.684 0-2.321-2.949-2.585-3.392-2.037-3.409-3.453-7.163-5.385-10.627-.878-1.574-2.014-2.899-3.025-4.365-.951-1.379-1.778-2.89-2.621-4.318a10.887 10.887 0 0 0-1.661-2.182c-.092-.092-.809-.827-.842-.712-.162.569.014 1.466.083 2.017.271 2.15.825 4.268 1.293 6.381 1.025 4.631 1.595 9.64 4.816 13.344.86.989 2.033 2.668 3.404 2.668"
    stroke="#C8C8C8"
    stroke-width="4.8"
    stroke-linecap="round"
  />
  <path
    d="M262.361 237.307v7.093c0 1.501.584 2.939.806 4.436.597 4.026-.521 8.413.582 12.383.25.902.422 1.762.747 2.657.155.427.213.668.213 1.138 0 .812-1.187-2.306-1.304-2.585-2.869-6.853-6.035-13.395-9.881-19.749-.723-1.195-1.231-2.478-2.265-3.452-.337-.316.557 1.913.64 2.171.812 2.527 1.149 5.227 1.329 7.864.319 4.67.642 9.46 1.66 14.043.138.621.96 2.289.51 1.839-.324-.324-.554-.682-.889-.985-.254-.228-.429-.543-.593-.842-1.385-2.517-2.097-5.568-3.084-8.255-1.314-3.578-3.499-6.64-5.326-9.951-.458-.83-.664-2.733-1.399-3.322-.793-.633-.746-2.176-1.495-2.775-.352-.282.122.973.202 1.115 1.495 2.658 3.685 4.877 5.883 6.95 2.287 2.158 4.658 4.079 6.488 6.666 1.672 2.366 2.241 5.454 2.526 8.279.121 1.193.341 2.517.7 3.665.095.303.094.347-.166.048a83.342 83.342 0 0 1-2.598-3.12c-3.038-3.858-6.235-7.617-9.05-11.647-2.09-2.993-3.732-6.272-5.491-9.465-.287-.52-.772-1.894-1.483-2.052-.585-.13-1.479.201-2.111.201-.76 0-.129 1.344.012 1.685 1.333 3.229 2.929 6.362 4.317 9.572 1.331 3.078 2.827 6.057 4.175 9.121.447 1.015 1.057 1.882 1.507 2.882.586 1.304-.113.56-1.056-.083-3.003-2.049-6.138-4.616-8.54-7.354-4.055-4.622-5.49-10.08-7.805-15.562-.548-1.299-2.004-2.3-3.155-3.036-.426-.273 1.193 3.306 1.353 3.677 1.682 3.913 2.929 8.009 4.744 11.861 1.49 3.162 3.138 6.248 4.614 9.418.499 1.072.786 2.619 1.506 3.546.121.155.473.715.451.913-.019.17-.418-.087-.427-.094-1.271-1.023-2.315-2.503-3.345-3.749-4.85-5.865-9.581-11.936-13.047-18.74-.754-1.48-2.01-3.688-3.321-4.697-.25-.192-.678-.83-1.008-.83-1.096 0 .946 7.704 1.091 8.208 1.926 6.719 4.732 12.655 8.291 18.633.126.213 1.365 2.375.925 2.076-1.638-1.111-3.064-3.176-4.353-4.65-3.262-3.728-6.03-7.906-8.101-12.406-.989-2.15-1.865-4.404-3.072-6.441-.499-.841-.915-1.59-1.72-2.194-.711-.534-1.598-.766-2.301-1.329-.849-.679-1.516-1.557-2.372-2.229-.269-.212-.689-.95-.664-.095.136 4.847 2.323 9.865 3.819 14.411.984 2.993 1.764 6.217 3.06 9.097.207.461 3.577 6.583 3.962 6.263.344-.287-3.807-8.195-4.081-8.848-1.235-2.948-2.277-6.049-2.277-9.276 0-.719.412-1.222.427-1.898.044-2.016-.848-3.797-1.921-5.467-1.259-1.959-2.67-3.836-5.113-4.081-.337-.033-1.199-.163-1.506.036-.967.626.177 4.763.332 5.515 1.205 5.851 2.219 11.764 4.697 17.234.727 1.604 1.476 3.165 2.325 4.709.122.223.585.752.119.415-.359-.259-.571-.852-.783-1.209-1.267-2.13-2.613-4.203-3.82-6.37-2.846-5.111-5.723-10.071-9.014-14.909a248.562 248.562 0 0 1-3.546-5.385c-.71-1.104.939 2.452 1.411 3.677 2.262 5.875 4.049 11.933 6.037 17.898.526 1.579.634 3.178 1.068 4.816.094.357.247.702.308 1.067.038.227-.855-1.298-.889-1.364-2.42-4.686-4.495-9.282-7.615-13.593-1.7-2.348-3.6-4.608-5.788-6.523-.385-.337-1.645-1.732-2.207-1.732-.111 0 .185.545.19.558.376.922.764 1.824 1.21 2.716a243.42 243.42 0 0 1 5.409 11.505c.878 2.013 1.65 4.086 2.55 6.085.025.057.359.532.059.19-.917-1.048-1.684-2.258-2.348-3.476-3.055-5.6-4.964-11.777-7.817-17.483-.822-1.645-1.715-3.292-3.024-4.602-.856-.855-1.616-1.474-2.349-2.515-.623-.885.395 1.899.439 2.041 1.394 4.531 2.335 9.214 3.286 13.853.744 3.634 1.626 7.157 2.573 10.734.133.501.279.999.427 1.495.104.344.799.984.439.984-.684 0-2.321-2.949-2.585-3.392-2.037-3.409-3.453-7.163-5.385-10.627-.878-1.574-2.014-2.899-3.025-4.365-.951-1.379-1.778-2.89-2.621-4.318a10.887 10.887 0 0 0-1.661-2.182c-.092-.092-.809-.827-.842-.712-.162.569.014 1.466.083 2.017.271 2.15.825 4.268 1.293 6.381 1.025 4.631 1.595 9.64 4.816 13.344.86.989 2.033 2.668 3.404 2.668"
    stroke="#C8C8C8"
    stroke-width="4.8"
    stroke-linecap="round"
  />
  <path
    d="M201.737 265.489c-2.448-2.448-4.672-5.078-6.998-7.639-1.773-1.953-3.737-3.454-5.693-5.183-1.699-1.501-3.53-3.49-4.555-5.539-.646-1.291-1.194-3.045-2.064-4.163-.603-.776-.534-2.646-.854-3.606-.073-.22 1.385.667 1.518.735 1.942.996 3.854 2.063 5.409 3.618 2.744 2.743 2.837 6.118 3.523 9.702.551 2.88.862 5.875 1.933 8.611.208.532.582 1.259-.284 1.08-1.011-.209-1.905-.934-2.681-1.566-2.218-1.805-4.184-3.947-6.073-6.085-3.828-4.332-7.167-9.142-10.177-14.067-.518-.848-1.763-1.242-2.467-1.945-.611-.611.161.189.356.451 2.135 2.858 4.018 5.93 5.942 8.931 1.724 2.688 3.235 5.538 5.113 8.125 1.28 1.764 2.898 3.293 4.269 4.993 1.066 1.321.858 1.111-.296-.083-3.367-3.481-6.541-7.25-10.26-10.366-2.967-2.486-6.284-4.508-9.251-6.998-.404-.339-2.595-2.723-1.495-1.139 3.964 5.708 5.768 12.617 8.991 18.741.165.313 3.155 6.317 3.534 6.191.128-.043-6.591-12.865-7.069-13.664-2.65-4.432-5.508-8.971-8.872-12.905-.29-.338-2.06-2.68-2.598-2.68-.401 0-.415 2.953-.427 3.143-.249 4.041.355 7.467 2.195 11.09 1.06 2.088 2.289 4.074 3.368 6.144 1.04 1.994-.693-.292-1.138-.854-5.781-7.302-9.112-16.223-14.21-23.971-.078-.119-.783-1.466-.783-.783 0 3.012 1.076 5.973 1.874 8.836 2.234 8.013 4.335 16.191 7.603 23.865.486 1.141 1.076 2.259-.249.688-3.035-3.6-5.784-7.828-8.113-11.909-2.281-3.996-4.561-8.499-7.852-11.79-.653-.653.339 2.891.356 2.942 2.147 6.545 5.274 13.005 8.291 19.191 1.425 2.921.507 1.11 2.273 3.847.255.395.462.607.154-.107-1.159-2.688-.236-.443-1.514-3.076a210.118 210.118 0 0 1-7.425-17.151c-1.203-3.172-2.327-6.242-3.914-9.239-.351-.663-.473-.781-1.091-1.056-.69-.307.685 4.467.783 4.792 2.356 7.794 3.542 15.565 4.886 23.556.028.165.465 2.435 0 1.945-.704-.743-1.171-1.799-1.66-2.681-1.062-1.915-2.104-3.823-2.918-5.859-.847-2.118-1.626-4.294-2.775-6.274-.881-1.518-.286-.521.284.462 2.568 4.423 4.755 9.104 7.378 13.474"
    stroke="#C8C8C8"
    stroke-width="4.8"
    stroke-linecap="round"
  />
  <path
    d="M114.319 116.584V97.033c0-1.305.986 2.218 1.123 2.53 3.243 7.343 4.929 14.887 6.273 22.755.468 2.741.15-.368.15-1.497V99.159c0-2.265-.114-4.564 0-6.827.042-.85 1.633 1.51 1.676 1.587 1.383 2.49 1.976 5.754 1.976 8.593 0 2.022-.851 3.836-1.377 5.749-.563 2.049-.928 3.99-.928 6.123v1.482c0-2.684-.305-5.414-.404-8.099-.226-6.09.146-12.154.673-18.22.223-2.565.603-5.07 1.018-7.605.072-.438.073-1.375.449-.479 3.234 7.7 4.37 16.123 5.659 24.327.35 2.227.695 4.469.958 6.707.221 1.877.27.788.27-.494 0-9.058-.016-18.011.748-27.037.071-.835.147-1.656.27-2.485.004-.026.11-.762.12-.748 1.207 1.609.739 5.53.748 7.365.031 5.985-.436 12.58 1.198 18.414.335 1.196.419.696.419-.344 0-5.266.602-10.443 1.497-15.63.824-4.775 1.932-9.484 2.934-14.222.286-1.349.332-2.556 1.228-.763 2.214 4.428 2.964 9.535 2.964 14.431 0 3.183.27 6.382.27 9.537 0 3.984.178-7.969.404-11.947.152-2.686.38-5.279.793-7.934.015-.094.237-2.653.689-2.2 1.658 1.657 2.392 4.636 2.964 6.796.962 3.635 1.424 7.222 1.677 10.958.1 1.487.209 2.94.209 4.432 0 1.742.051.174.15-.749.431-4 1.133-7.974 2.006-11.902.174-.784.386-3.533 1.198-3.997 1.723-.985 3.631 11.784 3.653 13.354.002.199-.107 1.955.059.958.401-2.403.542-4.815.689-7.246.031-.517-.332-3.563.659-3.563 2.063 0 3.078 3.7 3.563 5.135.909 2.69 1.227 5.422 1.227 8.249 0 .98.12 1.292-1.033 1.123-3.246-.475-6.017-3.133-8.383-5.195-2.69-2.344-5.441-4.465-8.638-6.078-1.794-.905-3.562-1.606-5.12-2.904-.493-.411-1.347-1.872-1.347-.629 0 6.075 1.616 12.131 1.616 18.204 0 5.272-.808-10.522-.808-15.794 0-2.42.014-4.782.254-7.186.12-1.198.015 1.019.015 1.303"
    stroke="#FFD424"
    stroke-width="4.8"
    stroke-linecap="round"
  />
  <path
    d="M251.284 144.68c17.76 30.04 21.4 67.8 16.76 91.56m-172.12-33.8c-3.44 70.16 36.28 99.68 72.92 103.68 31.12 3.36 64.04-13.08 83.84-38.32"
    stroke="#171717"
    stroke-width="2.4"
  />
  <path
    d="M194.284 178.84c-.08-2.92-1.92-8.8-8.8-8.8-6.88 0-8.6 5.32-8.6 8M243.884 177.64c-.08-2.92-1.92-8.8-8.8-8.8-6.88 0-8.6 5.32-8.6 8"
    stroke="#171717"
    stroke-width="2.4"
    stroke-linecap="round"
    stroke-linejoin="round"
  />
  <path
    d="M184.524 198.44c13.475 0 24.4-10.924 24.4-24.4 0-13.476-10.925-24.4-24.4-24.4-13.476 0-24.4 10.924-24.4 24.4 0 13.476 10.924 24.4 24.4 24.4Z"
    stroke="#171717"
    stroke-width="2.4"
    stroke-linecap="round"
    stroke-linejoin="round"
  />
  <path
    d="M233.324 198.44c13.476 0 24.4-10.924 24.4-24.4 0-13.476-10.924-24.4-24.4-24.4-13.476 0-24.4 10.924-24.4 24.4 0 13.476 10.924 24.4 24.4 24.4ZM159.924 174.04h-37M264.524 174.04h-6.8M203.724 191.24c6.4.4 16.24 3.68 4.4 13.6M147.764 301.84v80l18 3.4M206.604 301.84v80l18 3.4"
    stroke="#171717"
    stroke-width="2.4"
    stroke-linecap="round"
    stroke-linejoin="round"
  />
  <path
    d="M260.724 144.76h-114.2l-49.8 58c-20.4-44.4 4.4-67.88 16-70.6 1.76-30.24 43.4-40.6 64-42 61.6 0 81.68 36.4 84 54.6Z"
    stroke="#171717"
    stroke-width="2.4"
    stroke-linejoin="round"
  />
  <path
    d="M114.604 121.16c-2.2-10.64-1.44-32.24 16.64-40.16 17.28-7.56 34.2 3.72 39.68 9.68"
    stroke="#171717"
    stroke-width="2.4"
    stroke-linecap="round"
    stroke-linejoin="round"
  />
  <path
    d="M129.159 77.086c18.634-6.936 32.365-16.252 30.669-20.807-1.696-4.555-18.176-2.624-36.81 4.313C104.385 67.529 90.654 76.845 92.35 81.4c1.695 4.554 18.175 2.623 36.809-4.314Z"
    stroke="#171717"
    stroke-width="2.4"
  />
  <path
    d="m125.924 68.6 5.36 12.36"
    stroke="#171717"
    stroke-width="2.4"
    stroke-linecap="round"
    stroke-linejoin="round"
  />
  <path
    d="M259.244 143.12c-.16-1.84-1.32-3.72-1.76-5.52-.4-1.6-1.08-3.4-1.8-4.88-1.32-2.76-3.36-5.44-5.32-7.76-1.12-1.32-2.32-2.56-3.52-3.84-1.52-1.64-2.72-3.56-4.2-5.24-1.76-2-3.76-3.72-5.52-5.68-1.2-1.32-2.36-2.68-3.88-3.72-1.16-.76-2.36-1.04-3.52-1.64-.36-.16-.8-.32-1.08-.6-.24-.24.52.36.72.6 2.24 2.24 4.2 4.76 6.2 7.2 3.84 4.72 7.56 9.52 11.4 14.24 2 2.48 3.92 4.6 5.2 7.6.88 2.08 1.64 4.24 2.12 6.44.12.48.96 2.24-.28 1.68-1.68-.76-3-2.6-4.4-3.8-5.72-4.88-10.16-11.4-14.68-17.36-5.04-6.68-9.76-13.76-15.84-19.6-1.96-1.88-4.08-3.6-6.04-5.48-.8-.76-2.16-2.16-3.32-2.2-.76-.04.32 2.48.48 2.92a13.32 13.32 0 0 0 1.92 3.56c3.48 4.8 7.08 9.56 10.52 14.44 2.52 3.6 5.36 7.04 7.68 10.8 1.64 2.64 3.04 5.4 4.88 7.92.96 1.32 1.76 2.64 2.24 4.2.28.88.32 2.48.92 3.2.28.32.28.76.6 1.08 1.12 1.12-1.48-.32-1.72-.44-6.76-4.04-12.16-9.8-16.88-16.08-5.6-7.4-10.68-15.16-16.36-22.48-2.12-2.68-4.44-5-6.24-7.92-.48-.8-1.04-1.56-1.52-2.36-.16-.28-.4-.96-.76-1.12-.16-.08.12 1.12.16 1.24.28.96.76 1.92 1.32 2.76 2.56 3.92 5.36 7.68 7.92 11.56 4.08 6.16 8.08 12.6 10.72 19.52 1.28 3.32 2.16 6.88 4.28 9.8 1.08 1.52 2.36 2.76 3.48 4.2.92 1.12-1.04-.48-1.32-.68-1.48-.92-3-1.84-4.28-3-6.36-5.6-11.48-12.88-16.52-19.68-2.96-4-5.84-8.04-7.96-12.56-1.04-2.24-2-4.56-4-6.16-1.64-1.32-3.4-2.56-5.04-3.88-.4-.32-.76-.64-1.16-.88-.2-.12-.92-.96-1.04-.96-.16 0 .28 1.08.28 1.08.68 2 1.16 4.04 1.8 6.08 1.56 5.08 3.8 9.64 6.52 14.2 1.56 2.56 3.08 5.28 4.88 7.72 1.48 2 2.56 4.32 3.88 6.44 2.36 3.8 5.2 7.08 7.2 11.12.48.96.76 2.04 1.28 2.92.16.24.32.48.44.76.44.84-1.04-1.6-1.56-2.4-4.2-6.68-8.92-13.24-14.08-19.2-3.04-3.52-6.56-6.6-9.72-10-2.92-3.2-4.84-7.08-7.48-10.52-.8-1-1.56-2.24-2.48-3.16-.4-.4-.76-.56-1.04-1.04-.2-.32-1.68-2.28-1.44-2.52M163.724 95.76c.44.72 1.12 1.28 1.72 1.88 1.72 1.72 3.4 3.52 5.12 5.28 3.56 3.68 6.76 7.72 10.32 11.44 2.44 2.56 4.76 5.16 7.04 7.84 1.44 1.68 3.04 3.2 4.36 4.96 1.84 2.44 2.64 4.84 3.48 7.72.48 1.6.48 3.76 1.56 5.12.28.32.96.4 1.36.56 1 .4-.84-.92-.96-1-2.88-2.44-5.4-5.36-8.04-8.08-3.84-3.92-8.2-7.44-12.36-11-1.84-1.6-3.68-3.16-5.44-4.8-1.24-1.16-2.8-1.68-4.08-2.76-1.24-1.08-2.04-2.2-2.96-3.52-1.32-1.84-2.96-3.52-4.52-5.16-.92-.96-1.92-1.8-2.76-2.88-.6-.8-.92-1.76-1.52-2.52-.84-1.04-1.92-2.04-2.64-3.16-.64-1-.44-.52.04.24 1.28 2.08 2.36 4.28 3.6 6.4 2.16 3.64 5.04 6.84 7.96 9.84 3.6 3.72 6.76 7.76 9.72 12 2.36 3.36 4.6 6.8 6.8 10.28.76 1.2 1.72 2.4 2.68 3.48.32.36 2.52 4.68 2.44 4.72-.2.08-.76-.08-.92-.12-2.4-.72-4.52-2.64-6.28-4.36-5.44-5.24-9.92-11.36-14.2-17.56-1.76-2.6-3.72-4.96-6.16-6.92-1.88-1.48-3.88-2.8-5.6-4.44-2.28-2.16-4.4-4.44-7.12-6.04-.88-.52-3.4-2.36-2.52-1.84 1.88 1.08 3.36 3.72 4.72 5.32 4.96 6 10.24 11.68 15.24 17.64 3.24 3.88 6.52 7.72 9.8 11.56 1.28 1.52 2.4 2.96 3.04 4.88.08.24.6 2.04.36 1.96-2.24-.96-4.32-3.08-6.04-4.72-4.04-3.88-7.92-8.04-11.64-12.24-2.72-3.12-5.52-5.88-8.88-8.32-3.12-2.24-6.2-4.36-8.96-7.08-2.12-2.12-4.04-4.36-6.56-5.96-.16-.12-.84-.4-.4-.04 3.8 3 6.4 7.68 9.08 11.64 3.68 5.48 7.04 11.24 10.2 17.04 1.96 3.56 2.2 4.72 3.68 8.52.36.92-1.44-.44-.8.36.2.28 1.84 1.56 1.08.88-9.8-8.92-14.28-14.6-22.6-24.84-1.6-1.96-3.04-4.04-4.84-5.84-.64-.64-1.28-1.24-1.8-1.96-.16-.2-.96-1.28-.84-1.24.92.6 1.64 1.64 2.36 2.44 1.72 2 3.32 4.08 4.8 6.24 3.24 4.68 5.96 9.56 7.92 14.92.8 2.2 1.56 4.4 2.4 6.6.28.76.52 1.16 1.2 1.6M145.244 144.88c0-1.16-.8-2.24-1.36-3.24-1.52-2.6-3.16-5.12-4.96-7.52-1.8-2.4-3.24-5.08-5.08-7.4-2.64-3.32-5.76-6.64-7.68-10.48-.6-1.24-1.08-2.32-2.08-3.32-1.32-1.32-1.24-.28-.64 1.44 1.48 4.2 3.88 8.16 5.88 12.12 1.8 3.52 3.56 7.08 5.64 10.44 2.04 3.32 4.6 6.36 6 10.04.16.4.64 1.16.64 1.6-.04.36-1.88-.72-2-.8-5.28-3.04-8.64-8.4-12.32-13.04-2.12-2.68-4.24-5.36-6.24-8.16-.64-.92-1.44-1.76-2-2.76-.48-.84-1.76-2.28-.72-.24 3.04 5.92 5.88 11.96 9.16 17.76 1.68 2.96 3.72 5.68 4.96 8.92.2.56 1.52 5.16 1.08 5-4.32-1.56-6.88-5.92-9.52-9.4-2.56-3.4-4.92-6.72-8.2-9.4-.8-.68-1.4-1.44-2.08-2.24-.36-.4-.04-.16.24.04.92.64 1.48 1.68 2.08 2.6 4.52 6.52 5.4 14.88 8.44 22.12.44 1.08.92 2.16 1.48 3.2.16.32.92.84.56.84-2.4 0-4.6-3.76-5.76-5.24-3-3.76-4.92-8.16-7.76-11.96-.8-1.04-1.84-2.08-2.88-2.84-.96-.68-1.56-1.48-2.16-2.44-.08-.12-1-1.36-1.2-1.16-.64.8 1.76 4.88 2.04 5.6 2.64 6.6 3.8 13.64 6.36 20.2.6 1.56 1.04 3.32 2.08 4.6 1.12 1.4 1.24 2.08-.28.2-2.56-3.16-4.8-6.6-7-10-1.28-2-2.28-4.12-3.8-6-1.84-2.28-3.16-4.96-5.2-7.08-.04-.08-.52-.84-.44-.44.24 1.6 1.52 3.48 2.04 5 2.28 6.32 4 12.8 6.48 19.04.6 1.48 1.44 2.92 1.96 4.4.4 1.16.64 2.56 1.48 3.52.08.12.36.48.32.48-1.68-.68-3-3.8-3.8-5.2-2.16-3.68-4.16-7.48-6.16-11.24-.64-1.2-1.28-2.4-2.36-3.24-1.6-1.32-2.16-3.88-4.16-4.52-.36-.12-.52-.4-.2.2 1.12 2.28 2.32 4.48 3.28 6.84 2.04 5 3.52 10.24 5.44 15.28.52 1.4 1.12 2.8 1.6 4.2.12.32.4.72.4 1.04 0 .8.24 1.52.48 2.28.08.24.64 1.36.2.92-3.24-3.24-5.28-7.48-7.28-11.56-1.04-2.16-1.68-4.48-3.2-6.36-.92-1.16-2.08-2-3.32-2.68-.6-.32-.16.48-.08.72 1.04 2.08 2.12 4.12 3.12 6.2 2.04 4.28 4.08 8.64 6.24 12.88.88 1.76 4.28 6.44 2.76 5.24-4.36-3.48-7.64-8.24-11.68-12.08-.28-.28-1.64-1.72-.92-.76 2.68 3.6 4.76 7.68 6.76 11.68.24.44 1.64 4.88 2.36 4.88.32 0-.6-.32-.88-.52-.8-.48-1.56-1.08-2.28-1.68-1.04-.88-1.92-2.04-3.04-2.8-.64-.44-1.44-.84-2.04-1.32-.12-.08-.56-.2-.52-.12.72 1 1.48 2.04 2.04 3.16.72 1.36 1.28 2.8 1.96 4.16.32.64.96 1.56.96 2.32 0 .44-1.64.24-1.48.24"
    stroke="#171717"
    stroke-width="6.4"
    stroke-linecap="round"
  />
  <path
    d="M215.004 141.44c-2.96-5.16-6.68-9.84-10.76-13.96M245.364 141.44c-.32-.36-.48-.8-.72-1.24"
    stroke="#171717"
    stroke-width="6.4"
    stroke-linecap="round"
  />
  <path
    d="M246.084 141.44c-2.84-1.68-5.04-4.32-7.6-6.36M167.044 142.68c-2.44-2.56-4.72-5.32-7.84-7.08M176.563 91.28c2.08 1.24 3.64 3.76 5.12 5.64M202.524 92c2.04 2.04 4.48 3.76 6.84 5.4"
    stroke="#171717"
    stroke-width="6.4"
    stroke-linecap="round"
  />
  <path
    d="M138.084 236.04h149.6c.88 0 1.6.72 1.6 1.6v28.8c0 .88-.72 1.6-1.6 1.6h-149.6c-.88 0-1.6-.72-1.6-1.6v-28.8c0-.88.72-1.6 1.6-1.6Z"
    stroke="#171717"
    stroke-width="2.4"
  />
  <path
    d="M138.084 236.04h23.2c.88 0 1.6.72 1.6 1.6v28.8c0 .88-.72 1.6-1.6 1.6h-23.2c-.88 0-1.6-.72-1.6-1.6v-28.8c0-.88.72-1.6 1.6-1.6Z"
    stroke="#171717"
    stroke-width="2.4"
  />
  <path
    d="M257.364 238.04c0 3.76-.08 7.48-.08 11.24 0 1.76.2 3.68-.32 5.36-.16.56-1.08.8-1.64.8-.84 0-1.68.08-2.52.08-.92 0-1.8-.08-2.72-.08-.44 0-.88.04-1.32-.08-.32-.08-.68-.16-1.04-.16-.4 0-1.04-.08-1.4-.24-.28-.12-.28-.44-.28-.72 0-.96-.28-1.96-.28-2.96 0-1.2-.24-2.44-.28-3.68-.04-1.4-.16-2.84-.16-4.24 0-1.12.16-2.28.32-3.36.16-1.04.32-2.12.64-3.12"
    stroke="#171717"
    stroke-width="2.4"
    stroke-linecap="round"
  />
  <path
    d="M163.684 204.04c7.08 7.64 28 21.64 57.24 19.68 3.16-.2 7.36-2.2 6.04-5.08-.36-.84-1.24-1.48-2.92-1.76M109.244 218.44c4.12 29.36 23.12 80.48 66.08 50.36M288.884 269.04v-18.2m0 18.2-9.8-12.2m9.8 12.2c-9.64 10.76-16.56 8-21.36-1"
    stroke="#171717"
    stroke-width="2.4"
    stroke-linecap="round"
    stroke-linejoin="round"
  />
  <path
    d="M253.204 266.72c-6.28 12.76-15.44 20.32-27.52 27.16-3.12 1.76-6.2 2.08-9.24 3.64-2.76 1.4-7 4.36-9.8 4.68-6.4.76-14.6 4.56-20.88 4.96-4.84.28-9.48 2.84-14.48 0-4.76-2.68-14.88-3.52-20.16-3.84-10.64-.6-19.92-10.24-27.76-16.6-3.64-2.96-7.92-13.16-10.24-17.6-2.6-4.96-4.84-9.44-8.56-13.64-9.4-10.6-7.88-25.12-7.88-39.08 0-4.56-.4-9.36 0-13.96m170.4 34c.32-2.76-1.32-6.64 0-9.04 3.48-6.36 3.8-14.48 3.8-21.6v-9.96c0-3.52-2.16-7.04-2.16-10.52 0-5.08-3.6-10.04-6-14.4-2.48-4.52-4.28-10.88-7.32-14.72-2.6-3.28-4.08-7.48-5.6-11.72M194.444 178.44c0-1 .16-2.08-.24-3-.48-1.16-3.36-1.2-4.12-2.2-1.36-1.76-1.36-3.96-3.76-4.28-.64-.08-1.24-.12-1.92-.12-.72 0-1.2.52-1.84.72-1.2.4-2.68 1.32-3.44 2.2-.4.48-1.16 1.04-1.68 1.44-.52.44-.88 1.16-1.12 1.76-.32.84-.68 1.48-.68 2.4M243.124 176.92c0-.72-.12-1.16-.52-1.8-.36-.6-.56-1.24-1.04-1.8-.56-.64-1.36-1.08-1.84-1.84-.24-.32-.56-.88-.92-1.08-.6-.36-1.24-1.12-2-1.12-1.16 0-2.64-.12-3.68.52-.4.24-.92.32-1.36.56-.28.16-.52.44-.84.6-.8.44-1.56 1.36-2.2 2-.44.44-1 .84-1.32 1.4-.32.56-.24 1.16-.52 1.68"
    stroke="#171717"
    stroke-width="1.6"
    stroke-linecap="round"
  />
  <path
    d="M178.044 150.96c-1.72 0-3.48.92-5 1.8-1.56.88-2.72 2.04-3.88 3.4-.96 1.12-2.24 2.52-2.92 3.76-.52.92-1.2 1.68-1.68 2.6-.36.68-.36 1.48-.72 2.16-.64 1.24-.72 3.56-1 4.92-.32 1.6-.32 3.28-.32 4.92 0 1.76-.16 3.88.32 5.52.32 1.12.56 3.52 1.24 4.44 1.84 2.4 4.04 4.88 6.16 7.08.96 1.04 2.16 1.88 3.24 2.76.52.44 1.76.68 2.44 1 .72.32 1.56.92 2.36.92 1.8 0 3.08 1.04 4.72 1.52.64.2 4.72.4 5.12-.12.36-.44 1.56-.56 2.04-.84.96-.52 1.72-1.36 2.76-1.8 1.4-.52 3.4-1.08 4.52-2.24 1.8-1.92 3.44-3.92 5.28-5.88.96-1.04 1.28-2.64 1.88-3.96.68-1.44 2-3.48 2-5.08 0-3.4.76-7.08 0-10.48-.32-1.44-.48-3.04-1.2-4.32-.84-1.52-1.68-2.36-2.88-3.6-2.32-2.44-5.04-5.08-8-6.64-1.88-1-2.84-1.6-5-1.6-1.72 0-3.44-.92-5.12-.92-1.64 0-3.28-.32-5-.32-1.52 0-4.36.12-5.56 1.08-.8.64-1.88.88-2.8 1.32-.84.4-1.24 1.04-1.92 1.76-1.16 1.2-2.84 3.8-3.88 6.2M214.004 186.44c.48 1.72 1.8 3.28 3 4.6 1.24 1.36 2.6 2.24 4.2 3.08 1.28.68 2.96 1.64 4.32 2.04.96.28 1.88.8 2.88 1.08.76.2 1.48 0 2.24.2 1.32.36 3.48-.16 4.88-.2 1.56-.04 3.12-.52 4.68-.92 1.6-.44 3.64-.84 5.08-1.68.96-.6 3.12-1.44 3.8-2.36 1.76-2.48 3.44-5.32 4.92-8 .68-1.24 1.16-2.64 1.72-3.96.28-.64.16-1.96.28-2.72.12-.84.44-1.8.24-2.6-.48-1.84.12-3.4.12-5.16 0-.68-.92-4.88-1.52-5.16-.52-.24-.96-1.44-1.32-1.88-.76-.84-1.76-1.4-2.4-2.36-.88-1.28-1.92-3.16-3.28-4-2.28-1.36-4.6-2.52-6.88-3.88-1.2-.72-2.8-.64-4.16-.92-1.52-.32-3.8-1.16-5.28-.76-3.16.84-6.76 1-9.76 2.6-1.28.68-2.72 1.28-3.72 2.28-1.2 1.2-1.72 2.28-2.56 3.8-1.64 2.96-3.36 6.36-4 9.76-.4 2.16-.72 3.28-.16 5.44.48 1.72.08 3.72.52 5.44.44 1.64.6 3.4 1.08 5.12.4 1.56 1.28 4.4 2.52 5.36.84.64 1.32 1.68 1.96 2.52.6.76 1.32.96 2.16 1.48 1.44.88 4.32 1.96 6.8 2.4M160.804 172.68c-3.24 0-6.56-.36-9.6.76-3.28 1.2-6.4 1.88-9.92 1.88-3 0-5.72-.36-8.84-.36-1.68 0-2.92.48-4.52.04-1.24-.36-3.2-1.12-4.28-.4M263.844 175.36c-2.32 0-3.96-2-6.24-2M147.724 303.12v6.52c0 2.56 1 4.84 1 7.4v7.4c0 2.2-.68 4.2-.68 6.36 0 2.44-.32 5.12-.32 7.64 0 2.32.8 6.32-.08 8.48-1 2.56-1.28 5.72-1.64 8.48-.36 2.76-.68 5.32-.68 8.16 0 3 .92 5.84 1 8.84.04 1.28.08 2.36.32 3.6.12.76-.4 3.08.2 3.56.56.44.04 1.68.84 2.12 1.28.68 3 .88 4.4.96 2.2.12 4.44 1.36 6.6 1.36 1.8 0 3.12 1 4.76 1 1.88 0 .2.12-.44-.4-.92-.72-2.68-1.08-3.8-1.56-4.08-1.76-8.08-1.76-12.56-1.76M206.964 303.12v6.52c0 2.56 1 4.84 1 7.4v7.4c0 2.2-.68 4.2-.68 6.36 0 2.44-.32 5.12-.32 7.64 0 2.32.8 6.32-.08 8.48-1 2.56-1.28 5.72-1.64 8.48-.36 2.76-.64 5.32-.64 8.16 0 3 .92 5.84 1 8.84.04 1.28.08 2.36.32 3.6.12.76-.4 3.08.2 3.56.56.44.04 1.68.84 2.12 1.28.68 3 .88 4.4.96 2.24.12 4.44 1.36 6.6 1.36 1.8 0 3.12 1 4.76 1 1.88 0 .2.12-.44-.4-.92-.72-2.68-1.08-3.8-1.56-4.08-1.76-8.08-1.76-12.56-1.76"
    stroke="#171717"
    stroke-width="1.6"
    stroke-linecap="round"
  />
  <path
    d="M112.964 133.44c-7.6 0-17.32 8.56-18.2 16.44-.28 2.36-2.36 4.04-2.36 6.76 0 2.32-1.76 4.68-1.76 7.04 0 5.08-1.16 9.76-1.16 14.68v6.76c0 2.84 1.08 4.72 1.16 7.48.08 2.16 4.24 11 7.32 8.6 4-3.12 6.68-8.84 8.96-13.16.96-1.8 3.08-4.12 4.84-5.16 1.8-1.04 5.24-3.56 6.32-5.4 2.36-4 5.24-8.04 8.64-11.44 3.76-3.76 6.68-7.72 10.12-11.56 3.56-3.96 4.4-6.32 9.8-7.52 1.96-.44 3.92-1.72 5.88-1.72h8.2c18.72 0 37.52-1.76 56.32-1.76h6.76c2.44 0 4.68 1.04 7.04 1.16 5.72.32 11.56 0 17.32 0 1.68 0 1.4.68 2.44 1.04 1.6.6 2.8-.44 4.32-.44 1.92 0 3.52-.2 3.52-2.36 0-1.48-1.88-4.96-2.8-6-1.56-1.72-2.48-4.84-3.52-6.92-2.08-4.16-2.84-9.48-5.72-13.2-2.4-3.08-6.24-6.64-9.64-8.64-4.04-2.4-8.04-5.64-12.56-6.96-1.88-.52-4.08-2.2-5.88-3.2-1.84-1.04-4.48-3.32-6.44-3.8-1.08-.24-4.2-1.48-5.12-2.24-1.16-.92-6.04-.72-7.48-.72-5.56 0-10.64-1.16-16.08-1.16-6.4 0-12.16 2.12-18.4 2.36-4.68.16-11.2 2.24-14.8 5.28-1.84 1.56-4.04 2-6.16 2.92-3 1.32-4.12 2.36-7.64 2.36-3.48 0-10.4 3.96-12.6 6.76-2.12 2.64-15.96 20.76-11.16 23.16"
    stroke="#171717"
    stroke-width="1.6"
    stroke-linecap="round"
  />
  <path
    d="m88.884 172.52 5.64 6.6c1.92 2.24 4.12 4.16 6.04 6.4 1.28 1.48 2.6 3.52 5.88 6.56M90.444 181.96c1.36 1.6 2.72 3.16 4.04 4.76 1.4 1.64 3.08 2.92 4.44 4.52.92 1.08 1.8 2.6 4.32 4.68M89.324 165.24c3.32 3.88 6.64 7.8 9.96 11.68 3.4 4 7.04 7.6 10.44 11.56M91.644 160.16c3.32 3.88 6.64 7.8 9.96 11.68 3.4 4 7.04 7.6 10.44 11.56M92.644 153.52c3.56 4.16 7.08 8.32 10.64 12.44 3.64 4.28 7.48 8.12 11.12 12.32M96.124 150.84c2.44 2.88 4.92 5.76 7.36 8.6 2.52 2.96 5.28 5.52 7.76 8.44 1.64 1.96 3.44 4.56 7.64 8.6M97.524 143.84c3.32 3.88 7.72 8.88 11.04 12.76 3.4 4 7.04 7.6 10.44 11.56.92 1.08 1.92 2.32 3.12 3.8M100.924 139.84c3.32 3.88 6.64 7.8 9.96 11.68 3.4 4 7.04 7.6 10.44 11.56 2.24 2.64 2 2.36 4.6 5.56M104.324 136.24c3.32 3.88 5.56 7.12 8.88 11 3.4 4 7.04 7.6 10.44 11.56 2.24 2.64-.04.44 5.48 6.04M107.724 134.44c2.48 2.92 4.96 5.84 7.48 8.72 2.56 3 5.36 5.6 7.88 8.56 1.68 1.96 3.52 4.6 7.76 8.72M112.844 130.36c2.24 2.6 4.48 5.24 6.72 7.84 2.28 2.68 4.84 5 7.12 7.68 1.52 1.76 3.12 4.16 7 7.84M115.724 126.84c2.48 2.92 5 5.84 7.48 8.8 2.56 3 5.64 5.4 8.2 8.36 1.68 1.96 3.32 4.84 7.96 8.64M116.644 119.24c2.88 3.36 5.76 6.72 8.6 10.08 2.96 3.44 6.12 6.52 9.04 9.92 1.96 2.28 4.08 5.28 8.92 10.12M119.364 114.64c2.84 3.32 5.64 6.6 8.48 9.92 2.92 3.4 6.04 6.4 8.92 9.76 1.92 2.24 4.04 5.2 8.8 9.96M122.484 110.6c3.2 3.76 6.4 7.48 9.6 11.24 3.28 3.84 6.8 7.28 10.04 11.08 2.16 2.52 4.6 5.88 9.92 11.28M125.724 107.24c3.6 4.2 7.2 8.44 10.8 12.64 3.68 4.32 7.84 8.04 11.52 12.32 2.44 2.84 5 6.76 11.28 12.6M128.924 106.44c3.6 4.24 7.2 8.44 10.84 12.68 3.72 4.36 7.64 8.28 11.28 12.56 2.44 2.84 5.2 6.6 11.2 12.72M132.524 102.84c3.88 4.56 7.76 9.12 11.64 13.64 4 4.68 8.32 8.8 12.24 13.44 2.64 3.08 5.52 7.16 12.08 13.68M140.924 103.56c3.88 4.56 7.76 9.08 11.64 13.64 4 4.68 8.16 8.92 12.12 13.52 2.64 3.08 5.6 7.08 12 13.72M143.244 98.44c4.32 5.08 8.64 10.12 12.96 15.2 4.44 5.2 9.08 9.96 13.48 15.12 2.92 3.44 6.28 7.88 13.36 15.28M151.324 94.84c4.32 5.08 8.64 10.12 12.96 15.2 4.44 5.2 9.08 9.96 13.48 15.12 2.92 3.44 6.28 7.88 13.36 15.28M156.924 93.64c4.68 5.44 9.32 10.92 14 16.36 4.8 5.6 9.76 10.76 14.48 16.32 3.16 3.68 6.8 8.48 14.4 16.48M163.724 92.04c4.92 5.76 9.84 11.52 14.72 17.24 5.04 5.92 10.24 11.36 15.24 17.2 3.32 3.88 7.16 8.92 15.16 17.4M185.324 103.24c3.76 4.4 7.52 8.84 11.32 13.24 3.88 4.52 7.96 8.64 11.8 13.12 2.56 3 5.44 6.88 11.68 13.32M174.124 90.04c.92 1.08 1.8 2.12 2.72 3.2.92 1.08 2.16 1.88 3.08 2.96.6.72 1.12 1.84 2.96 3.08M184.124 89.64c1.36 1.6 2.76 3.24 4.12 4.84 1.4 1.64 3.12 3 4.52 4.64.92 1.08 1.84 2.64 4.36 4.76M199.404 106.28c3.72 4.32 7.4 8.68 11.12 13 3.8 4.44 7.8 8.48 11.56 12.88 2.52 2.92 5.36 6.76 11.44 13.08M204.924 99.24c4.32 5.08 8.64 10.12 12.96 15.2 4.44 5.2 9.08 9.96 13.48 15.12 2.92 3.44 6.28 7.88 13.36 15.28M208.244 93.76c4.84 5.68 9.68 11.32 14.52 17 4.96 5.84 10.12 11.16 15.04 16.92 3.28 3.84 7.08 8.8 14.92 17.12M216.844 96.52c3.44 4.04 6.92 8.08 10.36 12.12 3.56 4.16 7.32 7.88 10.8 12 2.32 2.72 4.96 6.32 10.68 12.16M230.924 103.24c3.04 3.56 6.12 7.16 9.16 10.72 3.12 3.68 6.48 6.96 9.6 10.56 2.08 2.4 4.36 5.6 9.48 10.76"
    stroke="#171717"
    stroke-width="1.6"
    stroke-linecap="round"
  />
  <path
    d="M169.404 90.4c-.72-.6-2.04-.64-2.64-1.36-.92-1.08-2.16-2.12-3.28-3-1.32-.96-2.72-1.92-3.96-2.84-2.76-2.04-6.68-1.52-9.8-2.72-.92-.36-1.88-.6-2.76-1.04-.68-.32-1.52-.92-2.28-.96-.84-.04-1.6-.16-2.48-.12-1.36.04-2.12.84-3.36 1.28-3.6 1.24-6.76 3.6-10.28 4.76-1.64.56-3.16 1.88-4.72 2.72-1.56.88-2.96 2.24-3.96 3.64-2.2 3.12-3.12 6.92-4.4 10.44-1.12 3.08-.36 6.96-.2 10.24.16 3.4-.2 6.6-.04 10M126.284 68.28c.04 1.16-.16 2.72.36 3.76.44.88.8 1.64 1.28 2.52 1.12 2.04 2.8 3.76 2.92 6.24"
    stroke="#171717"
    stroke-width="1.6"
    stroke-linecap="round"
  />
  <path
    d="M129.924 76.16c-4.24.2-8 1.4-12.04 2.36-2.6.6-4.68 1.8-7.48 1.92-1.24.04-2.56.48-3.8.56-1.44.12-2.8.04-4.16.36-2.12.48-4.84.24-7.04.32-.76.04-2.04-.32-2.08-1.12-.04-1.28 1.08-2.12 1.88-3.2 1.08-1.48 2.72-2.52 4.12-3.84 1.16-1.08 2.12-1.44 3.64-2.12 1.6-.72 3.4-1.08 5.04-1.68 1.8-.68 3.64-1.4 5.52-1.88.72-.2 1.64-.72 2.28-1.12.88-.52 1.88-.72 2.84-1.12 1.36-.6 2.96-1.16 4.4-1.6 1.84-.52 3.88-1.52 5.56-2.32 1.6-.76 3.16-1.04 4.84-1.56 2.44-.76 4.8-1.88 7.44-2.08 4.56-.36 9.28-.84 13.92-.8.56 0 1.8.6 2.28.92.88.56.88 1.28.92 2.16.04 1.16-.72 1.52-1.4 2.36-.72.88-1.56 1.96-2.56 2.6-3.64 2.36-7.72 3.6-11.88 5.12-5.6 2.08-10.36 5.4-16.12 7.32M223.564 218.92c.56 0 1.2.8 1.28 1.36.04.28.24.56.2.84-.08.44-1.44.84-1.84 1.04-1.92.84-3.68 1.28-5.84 1.28-.92 0-1.88.04-2.8-.08-.84-.12-1.68-.36-2.52-.4-2.28-.08-4.56.04-6.84 0-3.68-.08-7.24-.8-10.64-2.2-2.8-1.12-5.88-1.48-8.16-3.6-.6-.56-1.28-.88-2.04-1.24-.44-.2-.88-.48-1.32-.72-.88-.44-1.84-.72-2.84-.96-1.04-.24-2.28-.36-3.2-.96-.12-.08-.52-.48-.52-.48M176.524 212.8c-.64-.56-1.4-1.08-2.08-1.56-.64-.44-1.28-.88-1.88-1.36-.72-.56-1.4-1.16-2.24-1.52-1.24-.52-2.44-1.08-3.48-1.92-.8-.64-1.32-1.52-2.16-2.04-.64-.4-1.2-.96-1.72-1.52M137.764 238.08c4.16 0 8.28-.08 12.44-.32 3.4-.2 6.76-.4 10.2-.36 3.6.08 7.16 0 10.76 0 6.88 0 13.92-.16 20.72-.16M191.924 237.08h8.2c2.28 0 4.56.4 6.88.52 2.92.16 5.84.2 8.76.16 1.64 0 3.24-.36 4.84-.36h3.96c2.64 0 5.12 1.04 7.8 1.04h2.28c1.04 0 1.96-.4 3-.6 2.16-.4 4.52-.44 6.72-.44 3.76 0 7.48.16 11.24.16M255.924 237.08h13.44c2.52 0 4.76.2 7.24.6 1.48.24 3 .6 4.52.6 2.28 0 4.64.16 6.96.16"
    stroke="#171717"
    stroke-width="1.6"
    stroke-linecap="round"
  />
  <path
    d="M288.084 237.92c0 1.2-.041 2.4.239 3.56.24.84.6 1.88.6 2.72 0 1.92-.119 3.84.161 5.72.52 3.28.52 6.48.52 9.8 0 1.32.12 2.72 0 4.04-.12 1.08-.44 1.44-.92 2.28-.68 1.2-2.44 1.12-3.72 1.12-1.64 0-3.28.04-4.92.16-1.04.08-2.081.36-3.121.48-1.24.12-2.52.04-3.8.04-2.04 0-4.119-.36-6.119-.64-2.12-.32-4.481-.04-6.641-.04H247.923c-1.52 0-2.959.28-4.439.36-2.2.08-8.84.16-6.64.16"
    stroke="#171717"
    stroke-width="1.6"
    stroke-linecap="round"
  />
  <path
    d="M240.444 267.36h-6.68c-2.8 0-5.56-.84-8.36-.84h-33.68M191.244 266.84c-4.28 0-8.44-.36-12.68-.36h-20.32c-.92 0-1.76-.16-2.68-.16-.56 0-1.08.16-1.64.16-.16 0-1.32.16-.76.16M152.403 266.84c-4.96 0-9.88-.36-14.84-.36-.68 0-1 .16-1-.56v-2.68c0-1.4.16-2.88-.12-4.24-.24-1.2-.04-2.68-.04-3.88 0-1.12-.12-2.2-.16-3.32-.08-2.04-.16-4.16-.16-6.24 0-1.8.24-3.52.36-5.32.04-.68.36-1.32.36-2.04 0-.6 1.2-.36 1.68-.36 1.6 0 3.2-.52 4.8-.52"
    stroke="#171717"
    stroke-width="1.6"
    stroke-linecap="round"
  />
  <path
    d="M164.844 238.24c0 5.84-.16 11.64-.16 17.44 0 1.24.36 2.52.36 3.8v2.92c0 .92-.36 1.76-.36 2.72v3.08M109.244 218.32c.08 1 .04 2.24.4 3.2.48 1.36.88 2.8 1.32 4.16.8 2.56 1.48 5.12 2.92 7.4 1.2 1.92 2 4.12 2.48 6.36.24 1.16.56 2.36 1.08 3.44.72 1.52.88 3.24 1.64 4.76.56 1.12 1.12 2.32 1.8 3.36.6.96.92 2.12 1.6 3.04 1.2 1.52 1.8 3.48 2.92 5.08.84 1.2.96 2.76 1.68 4 .52.84 1.28 1.44 2 2 .64.52 1.32 1.04 1.84 1.72.64.8 1.52 3.72 1.44 2.68M132.404 269.52c.12.6 1.2 1.2 1.68 1.52.44.36.88.52 1.36.8.68.44 1.44.76 2.12 1.12.4.24.88.28 1.32.48.6.24 1.12.68 1.76.8 1.92.36 3.64 1.56 5.56 1.88 2.28.36 4.56 1.2 6.88 1.2 2.36 0 4.72-.28 7.08-.52.72-.08 1.64 0 2.28-.44.64-.4 1.4-.96 2.16-1.16 1.4-.4 2.44-1.2 3.76-1.84.6-.28 1.2-1 1.68-1.48 1.04-1 2.24-1.64 3-2.92M269.563 269.36c.36.64.88 1.08 1.24 1.68.4.68.76 1.12 1.36 1.68.64.6 1.76.6 2.44 1.28.56.56 1.6.72 2.36 1 .56.24 1.4-.04 1.92.28.28.16.84.12 1.12.04.96-.28 2.04-.64 2.92-1.2.76-.48 1.32-1.28 1.96-1.92 1.12-1.12 1.56-2.72 2.76-3.68.32-.24.64-.16 1-.56.32-.36.56-1.36.6-1.84.12-1.04 0-2.16 0-3.24 0-.52.12-.92.36-1.4.2-.44.12-1.04.12-1.52v-3c0-.6.44-5.32-.16-5.6"
    stroke="#171717"
    stroke-width="1.6"
    stroke-linecap="round"
  />
  <path
    d="M288.524 271.8c0-1.08-.72-2.4-1.4-3.24-.68-.88-1.8-1.52-2.4-2.4-.52-.76-1.04-1.4-1.68-2.04-.24-.24-.28-.64-.52-.8-.72-.48-1.48-1.32-2.04-1.96-.32-.4-.88-.76-1.04-1.24"
    stroke="#171717"
    stroke-width="1.6"
    stroke-linecap="round"
  />
</svg>
