<svg width="400" height="444" viewBox="0 0 400 444" fill="none" xmlns="http://www.w3.org/2000/svg">
<path d="M214.69 400.43C213.91 400.43 213.12 400.36 212.35 400.22L194.28 396.81C188.15 395.66 183.69 390.28 183.69 384.04V320.26C178.1 321.25 172.5 321.76 166.99 321.76C163.85 321.76 160.67 321.59 157.54 321.25C155.3 321.01 153.07 320.68 150.85 320.28V373.26L158.26 374.66C161.65 375.29 164.61 377.22 166.58 380.09C168.55 382.98 169.27 386.43 168.62 389.84C167.46 395.98 162.09 400.43 155.85 400.43C155.07 400.43 154.28 400.36 153.51 400.22L135.44 396.81C129.31 395.66 124.85 390.28 124.85 384.04V311.46C114.41 306.05 105 298.56 97.5005 289.68C79.8005 268.74 71.5505 240.48 72.9605 205.66C61.7105 178.13 66.1805 158.34 71.9505 146.55C77.8305 134.52 86.3905 128.13 91.0905 125.35C91.2305 124.78 91.3805 124.22 91.5505 123.66C90.9205 119.5 89.9705 109.63 92.9305 98.94C91.8005 99.02 90.7205 99.05 89.6905 99.05C76.3205 99.05 71.7805 92.21 70.2605 88.13C66.7905 78.8 70.6205 64.73 108.58 50.6C118.52 46.89 128.38 44.33 136.34 43.4C138.59 43.14 140.72 43 142.66 43C156.03 43 160.57 49.85 162.09 53.93C163.86 58.68 163.95 65.63 156.02 73.43C160.07 75.5 163.28 77.73 165.43 79.41C165.61 79.4 166.35 79.35 166.35 79.35H166.75C236.6 79.35 260.71 122.43 263.7 145.21L263.76 145.71C264.12 149.27 262.94 152.87 260.54 155.57C260.49 155.62 260.44 155.68 260.39 155.73C261.73 158.86 262.98 162.08 264.12 165.36H267.86C275.91 165.36 282.46 171.91 282.46 179.96V231.16C289.55 232.16 295.02 238.26 295.02 245.62V279.49L294.69 280.94C294.58 281.42 294.46 281.82 294.33 282.21L294.09 282.95L293.59 283.97C293.16 284.8 292.65 285.57 292.02 286.33L291.64 286.76C284.94 294.21 277.83 297.99 270.53 297.99C269.69 297.99 268.89 297.94 268.08 297.85C264 297.35 258.23 295.39 253.05 289.02H243.1C233.33 298.39 221.6 306.45 209.7 312.01V373.25L217.11 374.65C220.5 375.28 223.46 377.21 225.43 380.08C227.39 382.96 228.11 386.41 227.48 389.81C226.31 395.98 220.94 400.42 214.7 400.42L214.69 400.43Z" fill="white"/>
<path d="M242.36 146.84C248.568 157.347 253.055 168.794 256.064 180.255M86.9999 204.6C83.5599 274.76 123.24 304.28 159.92 308.28C187.49 311.283 216.492 298.684 236.5 278.216" stroke="#171717" stroke-width="2" stroke-linecap="round"/>
<path d="M240.88 146.6C242.36 150.84 243.88 155.04 246.48 158.32C249.52 162.16 251.32 168.52 253.8 173.04C255.007 175.271 256.55 177.659 257.769 180.139M87.7598 204.6C87.3598 209.2 87.7598 214 87.7598 218.56C87.7598 232.52 86.2398 247.04 95.6398 257.64C99.3598 261.84 101.6 266.32 104.2 271.28C106.52 275.72 110.8 285.92 114.44 288.88C122.28 295.24 131.56 304.88 142.2 305.48C147.48 305.8 157.6 306.64 162.36 309.32C167.36 312.16 172 309.6 176.84 309.32C183.12 308.92 191.32 305.12 197.72 304.36C200.52 304.04 204.76 301.08 207.52 299.68C210.56 298.12 213.64 297.8 216.76 296.04C225.546 291.065 232.788 285.709 238.5 278.248" stroke="#171717" stroke-width="2" stroke-linecap="round"/>
<path d="M109.182 107.112C109.182 103.743 108.881 100.032 110.512 96.9501C111.474 95.1341 113.136 93.807 114.651 92.479C114.986 92.1851 115.374 91.7254 115.75 91.4997C116.385 91.1189 114.549 92.368 113.986 92.8485C113.118 93.5891 112.258 94.3415 111.51 95.2041C111.435 95.2903 111.025 95.8299 111.099 95.4258C111.172 95.0252 111.581 94.575 111.824 94.285C113.234 92.6052 114.667 90.995 116.42 89.6614C119.12 87.6075 122.407 85.3609 125.94 85.2457C126.011 85.2434 127.039 85.0847 127.02 85.2457C127.003 85.3952 126.19 85.5816 126.124 85.606C125.043 86.0074 123.969 86.4482 122.919 86.927C121.285 87.6722 119.679 88.5325 118.097 89.3843C117.561 89.6728 117.02 89.9811 116.54 90.3542C116.462 90.4149 117.423 89.95 117.589 89.8739C119.881 88.8197 122.181 87.7582 124.457 86.6683C126.533 85.6744 128.663 84.3822 130.965 83.9986C132.687 83.7116 134.337 83.5688 136.083 83.5829C136.514 83.5863 136.97 83.6272 137.367 83.8138C137.771 84.0038 136.625 83.3165 136.244 83.084C135.506 82.6335 134.74 82.2766 133.917 82.0078C133.504 81.8731 132.791 81.8844 132.434 81.6291C132.204 81.4646 132.991 81.7298 133.265 81.8C134.187 82.0357 135.108 82.3081 136.018 82.5852C137.267 82.9652 138.635 83.238 139.759 83.9339C140.926 84.6563 137.225 82.875 135.926 82.4328C134.77 82.0394 133.311 82.1695 132.092 82.1695C131.616 82.1695 131.181 82.2794 130.716 82.3311C130.602 82.3438 130.45 82.3196 130.669 82.3542C131.346 82.461 132.026 82.5353 132.702 82.6452C135.578 83.1131 138.395 83.8324 141.178 84.696C142.685 85.1639 144.182 85.8724 145.727 86.2018C146.667 86.4021 147.568 86.733 148.503 86.9501C149.191 87.1098 149.875 87.2512 150.503 87.5736C151.312 87.9891 151.758 88.7311 152.314 89.4027C152.563 89.7038 152.788 89.9789 153.062 90.2526C153.155 90.3453 153.82 90.9174 153.82 91.024C153.82 91.0858 153.361 90.815 153.709 91.3612C154.02 91.8507 154.589 91.9344 155.057 92.2295C155.428 92.463 154.288 92.3115 154.124 92.3127C153.01 92.3205 151.966 92.5163 150.882 92.7469C149.347 93.0733 147.742 93.3425 146.189 93.5644C145.716 93.632 145.216 93.9071 144.762 94.0586C143.935 94.3342 143.123 94.6496 142.314 94.9732C141.78 95.1865 141.144 95.3509 140.651 95.6429C140.22 95.8983 139.806 96.1311 139.344 96.3219C138.426 96.7005 137.433 97.101 136.452 97.2827C135.622 97.4364 134.745 97.8938 133.963 98.2157C132.688 98.7404 131.391 99.1277 130.05 99.4628C128.952 99.7374 127.709 100.377 126.559 100.377" stroke="#FFD424" stroke-width="2" stroke-linecap="round"/>
<path d="M107.059 118.349C107.059 115.951 106.862 113.46 107.159 111.08C107.297 109.978 107.606 108.915 107.731 107.809C107.851 106.743 108.091 105.55 108.409 104.525C108.971 102.712 109.355 100.844 110.116 99.0976C110.477 98.2679 111.101 97.54 111.687 96.8554C112.468 95.9418 113.145 94.9119 113.993 94.0634C114.577 93.4793 115.197 92.8828 115.657 92.1925C115.716 92.1036 116.392 90.9394 116.307 91.6212C116.18 92.6371 115.549 93.6681 115.157 94.5918C114.258 96.7117 113.47 98.8726 112.586 100.997C111.312 104.06 110.19 107.305 109.566 110.566C109.28 112.06 109.116 116.628 109.116 115.107C109.116 113.683 109.592 112.559 110.201 111.265C111.846 107.772 113.565 104.249 114.871 100.611C116.059 97.3044 116.98 93.7511 118.556 90.6001C118.649 90.4132 118.977 89.8902 118.82 90.0789C118.658 90.2731 118.721 90.8278 118.685 91.0643C118.514 92.1633 118.362 93.2631 118.085 94.3419C117.546 96.4359 116.98 98.5303 116.214 100.554C115.794 101.663 115.21 102.679 114.771 103.775C114.175 105.265 113.766 106.823 113.422 108.388C113.167 109.544 112.491 110.812 112.458 111.994C112.435 112.807 112.701 111.807 112.872 111.48C113.461 110.351 114.253 109.324 114.957 108.266C116.41 106.081 117.706 103.826 118.942 101.511C121.411 96.8847 123.167 92.0297 124.897 87.1155C125.198 86.2615 125.311 85.2459 125.311 84.3449C125.311 84.139 125.428 83.4787 125.24 83.9093C125.025 84.401 124.781 84.9388 124.476 85.3803C123.87 86.2553 123.523 87.4269 123.076 88.3865C122.255 90.1511 121.499 91.9325 120.684 93.6992C119.951 95.2879 119.177 96.8906 118.627 98.5549C118.105 100.136 117.883 101.808 117.535 103.432C117.339 104.346 117.177 105.32 117.092 106.253C117.015 107.098 117.267 106.328 117.656 105.953C119.659 104.021 121.936 102.447 123.869 100.411C124.866 99.3607 125.786 98.3564 126.311 96.9839C126.886 95.4801 127.209 93.8995 127.496 92.321C127.914 90.0223 128.345 87.669 128.524 85.3374C128.579 84.6247 128.601 83.6681 128.881 83.0024C129.861 80.6761 127.152 87.7451 126.282 90.1146C125.659 91.8131 124.918 93.4958 124.211 95.163C123.297 97.3205 122.631 99.5722 121.741 101.74C121.176 103.115 120.535 104.479 120.041 105.881C120.008 105.975 119.675 107.322 119.913 107.109C120.959 106.173 122.355 105.581 123.54 104.824C125.94 103.293 128.405 101.745 130.431 99.7188C131.78 98.3698 132.867 96.7902 134.037 95.2916C134.349 94.8922 135.445 93.8347 135.108 94.2133C134.587 94.7995 133.997 95.3523 133.409 95.8843C131.7 97.4294 130.273 99.2173 128.41 100.597C127.146 101.534 122.69 103.194 124.183 102.696C128.032 101.413 131.409 99.1771 134.88 97.1482C137.944 95.3565 140.97 93.8232 144.462 93.0565C147.288 92.4363 150.093 92.0989 152.953 91.6784C153.794 91.5547 154.738 91.4856 155.588 91.4856C156.206 91.4856 157.299 91.7108 157.88 91.4784C158.019 91.4227 157.269 90.9947 157.187 90.9714C155.988 90.6287 154.83 89.6743 153.745 89.072C151.474 87.8099 149.051 86.7893 146.59 85.9515C144.037 85.0823 141.566 83.7071 138.807 83.6451C135.003 83.5596 131.208 83.1215 127.396 83.5451C127.301 83.5557 126.128 83.7557 126.468 83.7736C127.967 83.8525 129.2 84.109 130.545 84.859C131.442 85.3591 132.072 85.9193 131.788 86.9941C131.612 87.6568 131.182 88.2199 130.838 88.8007C130.174 89.9204 129.756 91.1568 129.267 92.3567C128.706 93.7327 128.023 95.1399 127.725 96.5983C127.544 97.4808 127.678 96.7241 127.825 96.2841C128.454 94.3958 129.402 92.6878 130.431 90.9929C130.54 90.8128 131.581 89.0146 131.602 89.1291C131.805 90.2466 130.96 91.7431 130.709 92.7995C130.171 95.075 129.729 97.4197 129.039 99.6545C128.805 100.411 129 99.6788 129.224 99.4546C129.732 98.9466 130.442 98.6218 131.024 98.2121C132.61 97.0946 134.063 95.733 135.515 94.449C136.846 93.2721 138.487 91.9483 139.507 90.4645C139.842 89.9769 139.716 89.6545 139.164 89.4005C137.381 88.5798 135.488 88.1711 133.566 87.7867C132.819 87.6374 132.043 87.5821 131.309 87.3725C130.608 87.1723 131.133 87.1155 131.552 87.1155C137.329 87.1155 143.23 86.7692 148.961 87.3725C149.04 87.3808 149.232 87.4656 149.161 87.5011C148.793 87.6853 147.599 87.25 147.29 87.1869C142.45 86.1968 137.624 84.8299 132.737 84.1021C132.425 84.0556 131.273 84.0195 132.216 84.1592C133.283 84.3173 134.293 84.6906 135.322 85.0018C138.103 85.8424 140.956 86.4579 143.777 87.144C146.29 87.7552 148.839 88.2702 151.318 89.0149C152.162 89.2685 152.953 89.6508 153.788 89.9146C154.039 89.9937 153.928 90.0661 153.717 90.0717C152.838 90.0949 151.954 90.0717 151.075 90.0717C146.886 90.0717 142.696 90.0717 138.507 90.0717C138.083 90.0717 137.344 89.9286 136.936 90.1003C136.881 90.1237 138.234 90.2045 138.364 90.2074C140.742 90.2602 143.255 90.1954 145.591 90.7144C145.743 90.7482 145.297 90.8429 145.141 90.8429C142.361 90.8429 139.564 90.92 136.793 91.1571C134.759 91.3312 132.745 91.6643 130.724 91.9426C130.402 91.9868 129.42 92.1282 130.367 92.1282C132.697 92.1282 135.022 91.7426 137.35 91.7426C139.772 91.7426 132.522 91.3631 130.11 91.1571C129.508 91.1057 128.945 90.9801 128.36 90.8501C127.99 90.7678 129.09 90.6283 129.467 90.5858C131.117 90.4002 132.773 90.3014 134.423 90.1003C135.17 90.0091 135.993 90.0443 136.722 89.8432C137.001 89.7662 136.163 89.7892 136.122 89.7861C135.013 89.7024 133.913 89.6861 132.802 89.6861C132.751 89.6861 131.858 89.6613 132.188 89.7575C133.499 90.14 134.947 90.1795 136.286 90.4645C137.696 90.7645 139.191 91.0127 140.556 91.4856C141.883 91.9449 140.148 92.2828 139.607 92.471C134.986 94.0767 130.423 95.8491 125.811 97.4695C125.783 97.4794 124.857 97.8411 125.24 97.6551C126.011 97.2801 126.803 96.9417 127.603 96.634C127.961 96.4966 129.245 95.6524 129.16 96.5055C129.108 97.0282 128.703 97.4706 128.382 97.8551C127.661 98.7158 126.915 99.5662 126.161 100.397C125.576 101.041 125.047 101.761 124.433 102.375C124.143 102.665 124.139 102.345 124.161 102.09C124.196 101.687 124.94 101.213 124.797 101.411C124.575 101.719 124.173 101.844 123.869 102.054C123.193 102.518 122.517 102.968 121.912 103.525C119.699 105.562 117.83 107.932 115.628 109.98C114.906 110.652 114.285 111.538 113.486 112.115C112.574 112.774 112.638 111.727 112.772 110.937C113.026 109.438 113.752 108.017 114.386 106.652C115.232 104.831 116.126 103.034 117.028 101.24C117.859 99.5863 118.739 98.0653 119.791 96.5483C120.716 95.2152 121.625 93.8505 122.469 92.4639C122.686 92.1082 122.74 91.8614 122.74 91.457C122.74 90.9 122.74 90.3431 122.74 89.7861C122.74 89.1727 122.3 89.2689 121.776 89.3077C120.542 89.3991 119.441 90.3933 118.499 91.1" stroke="#FFD424" stroke-width="2" stroke-linecap="round"/>
<path d="M116.96 70.7598L122.32 83.1198" stroke="#171717" stroke-width="2" stroke-linecap="round" stroke-linejoin="round"/>
<path d="M105.68 123.32C103.48 112.68 104.24 91.0798 122.32 83.1598C139.6 75.5998 156.52 86.8798 162 92.8398" stroke="#171717" stroke-width="2" stroke-linecap="round" stroke-linejoin="round"/>
<path d="M120.231 79.2429C138.865 72.306 152.596 62.99 150.9 58.4352C149.205 53.8803 132.724 55.8113 114.091 62.7482C95.4571 69.6851 81.7262 79.0011 83.4219 83.556C85.1176 88.1108 101.598 86.1798 120.231 79.2429Z" stroke="#171717" stroke-width="2"/>
<path d="M160.48 92.6008C159.76 92.0008 158.44 91.9608 157.84 91.2408C156.92 90.1608 155.68 89.1208 154.56 88.2408C153.24 87.2808 151.84 86.3208 150.6 85.4008C147.84 83.3608 143.92 83.8808 140.8 82.6808C139.88 82.3208 138.92 82.0808 138.04 81.6408C137.36 81.3208 136.52 80.7208 135.76 80.6808C134.92 80.6408 134.16 80.5208 133.28 80.5608C131.92 80.6008 131.16 81.4008 129.92 81.8408C126.32 83.0808 123.16 85.4408 119.64 86.6008C118 87.1608 116.48 88.4808 114.92 89.3208C113.36 90.2008 111.96 91.5608 110.96 92.9608C108.76 96.0808 107.84 99.8808 106.56 103.401C105.44 106.481 106.2 110.361 106.36 113.641C106.52 117.041 106.16 120.241 106.32 123.641" stroke="#171717" stroke-width="2" stroke-linecap="round"/>
<path d="M117.36 70.4404C117.4 71.6004 117.2 73.1604 117.72 74.2004C118.16 75.0804 118.52 75.8404 119 76.7204C120.12 78.7604 121.8 80.4804 121.92 82.9604" stroke="#171717" stroke-width="2" stroke-linecap="round"/>
<path d="M121.912 77.8998C117.52 78.1207 113.626 79.4461 109.441 80.5065C106.748 81.1692 104.593 82.4946 101.693 82.6271C100.409 82.6713 99.0413 83.1573 97.7569 83.2456C96.2653 83.3782 94.8566 83.2898 93.4478 83.6433C91.2519 84.1734 88.4344 83.9083 86.1556 83.9967C85.3684 84.0409 84.0425 83.6433 84.0011 82.7596C83.9596 81.3459 85.1198 80.4181 85.9484 79.2252C87.0671 77.5906 88.7659 76.4419 90.216 74.9839C91.4176 73.7911 92.412 73.3934 93.9865 72.6424C95.6438 71.8471 97.5083 71.4495 99.207 70.7868C101.072 70.0357 102.977 69.2405 104.925 68.7103C105.671 68.4894 106.624 67.9151 107.286 67.4733C108.198 66.899 109.234 66.6781 110.228 66.2363C111.637 65.5735 113.294 64.955 114.786 64.469C116.692 63.8947 118.805 62.7902 120.545 61.9066C122.202 61.0672 123.818 60.7579 125.559 60.1836C128.086 59.3441 130.53 58.1071 133.265 57.8862C137.988 57.4886 142.878 56.9584 147.684 57.0026C148.264 57.0026 149.548 57.6653 150.045 58.0187C150.957 58.6373 150.957 59.4325 150.998 60.4045C151.04 61.6857 150.253 62.0833 149.548 63.0111C148.802 63.9831 147.932 65.1759 146.897 65.8828C143.126 68.4894 138.9 69.859 134.591 71.5379C128.79 73.8352 123.86 77.5022 117.893 79.6229" stroke="#171717" stroke-width="2" stroke-linecap="round"/>
<path d="M88.5722 201.556C87.8481 199.927 87.2454 198.209 86.5053 196.564C86.0165 195.478 83.9834 192.594 84.8736 193.385C86.3697 194.715 87.7032 196.203 89.3336 197.41C89.6905 197.675 92.7123 200.193 91.3884 198.704C88.4819 195.434 87.2319 191.261 85.3087 187.414C84.1029 185.003 82.5238 182.976 81.5013 180.477C80.8511 178.887 81.3074 179.912 81.876 180.67C83.8083 183.246 86.3329 185.336 88.0887 188.067C89.3322 190.002 90.5816 192.564 92.2707 194.159C92.6421 194.51 92.7594 194.252 92.6575 193.845C92.2954 192.396 91.2111 191.559 90.4456 190.339C88.6193 187.431 87.4696 183.754 86.5174 180.465C86.008 178.705 85 177.204 84.3901 175.497C84.2665 175.151 83.7618 174.168 83.9066 174.506C84.2655 175.343 84.5943 176.039 85.1395 176.802C88.1935 181.078 91.425 185.41 94.8815 189.36C95.3848 189.936 96.0745 190.601 96.6704 191.065C96.8982 191.242 96.021 189.422 95.921 189.276C94.4191 187.085 93.3236 184.833 92.2707 182.398C90.6957 178.756 89.4403 175.058 87.4843 171.581C86.5268 169.878 85.9074 168.001 84.8736 166.359C84.7039 166.09 83.7233 164.204 84.3538 165.465C86.2138 169.185 90.1815 171.613 92.8872 174.675C94.4373 176.429 95.7054 178.368 97.1055 180.235C97.8571 181.237 98.7455 182.362 99.1844 183.547C99.4422 184.243 99.7657 184.976 100.224 185.565C101.186 186.802 98.6903 184.935 98.3625 184.538C96.6393 182.452 94.8534 180.233 93.5882 177.83C91.8884 174.6 91.2095 170.732 90.4335 167.205C90.1316 165.833 89.6347 164.527 89.3336 163.156C89.052 161.873 88.8169 160.559 88.1854 159.397C87.8146 158.715 87.7409 157.584 87.2184 157.004C85.7647 155.389 85.8271 158.067 86.179 159.034C86.4443 159.764 86.5239 160.567 86.7229 161.319C87.1173 162.809 87.7814 164.209 88.137 165.706C88.3411 166.566 88.5505 167.28 88.9589 168.051C89.0194 168.166 88.292 166.936 88.137 166.637C86.4882 163.457 86.968 158.541 87.9678 155.167C88.2827 154.104 88.3546 153.171 88.3546 152.072C88.3546 151.717 88.2987 151.437 88.4634 151.964C88.8287 153.133 89.1044 154.165 89.7083 155.263C91.2959 158.15 93.404 160.635 95.2078 163.374C96.7966 165.786 99.0203 167.685 100.538 170.13C101.696 171.995 103.057 173.732 104.188 175.618C104.8 176.637 105.135 177.894 105.856 178.821C106.248 179.324 106.115 180.11 106.364 180.67C106.447 180.856 106.492 181.455 106.388 181.637C105.916 182.463 103.379 179.641 103.149 179.365C98.8852 174.237 93.6952 169.842 91.0741 163.591C90.6989 162.697 90.3498 161.8 89.9984 160.896C89.6728 160.059 90.1518 161.944 90.2643 162.177C91.9719 165.719 93.792 169.26 95.921 172.572C97.4921 175.016 99.4342 177.011 101.191 179.256C101.597 179.775 102.796 181.105 103.584 181.105C104.265 181.105 105.87 178.771 106.412 178.289C107.158 177.626 108.258 176.913 109.132 176.427C109.534 176.204 109.693 176.368 109.325 175.859C108.353 174.513 107.036 173.435 106.195 171.992C103.027 166.555 101.491 160.404 99.2811 154.562C98.4582 152.388 97.4194 150.259 96.4044 148.156C95.8533 147.015 95.3211 145.881 94.5431 144.881C94.1223 144.34 93.6225 143.852 93.3102 144.554C92.8721 145.54 92.2564 146.092 91.5093 146.839C91.3246 147.024 89.9395 148.631 90.1434 148.857C90.2707 148.999 90.6328 149.047 90.7961 149.123C91.7545 149.57 92.36 150.556 92.9718 151.371C95.3447 154.535 97.6965 157.666 99.8371 160.993C100.808 162.501 101.933 163.963 102.665 165.61C102.808 165.932 103.632 167.1 102.907 166.939C101.469 166.62 100.364 164.551 99.6679 163.434C98.1338 160.975 96.8807 158.337 95.3166 155.904C94.3521 154.404 93.418 152.676 92.2224 151.347C92.0373 151.142 91.982 150.841 92.0653 150.55C92.2019 150.071 93.4919 151.007 93.6245 151.081C94.1844 151.397 98.145 153.583 98.145 152.906C98.145 151.938 97.4904 151.235 97.0571 150.417C96.4286 149.229 96.0211 147.935 95.8001 146.609C95.5586 145.16 95.5342 140.74 95.5342 142.21C95.5342 143.818 95.8047 145.184 95.4858 146.778C95.2288 148.064 95.5889 151.986 95.3045 150.707C94.8687 148.745 93.8927 146.933 93.4069 144.99C93.1483 143.955 94.2516 144.203 94.8815 143.853C95.7421 143.375 95.8472 141.905 96.0781 141.073C96.2542 140.44 96.1735 139.127 96.6704 140.469C96.9399 141.197 97.4883 141.878 98.0724 142.379C99.6714 143.749 101.437 144.946 103.052 146.307C106.573 149.272 109.872 152.819 112.492 156.617C114.243 159.155 115.987 161.684 116.807 164.691C116.985 165.345 117.476 166.549 116.275 165.513C114.101 163.639 112.316 161.379 110.546 159.131C108.508 156.543 106.148 154.243 104.14 151.637C102.723 149.798 101.513 147.922 99.8855 146.295C99.3896 145.799 97.9862 143.839 98.8218 145.57C100.525 149.097 101.772 152.814 103.536 156.303C105.124 159.445 107.144 162.172 108.926 165.175C109.674 166.434 110.179 167.875 111.078 169.03C111.333 169.359 111.588 169.913 110.933 169.526C109.626 168.754 108.683 167.573 107.5 166.649C106.41 165.797 103.555 162.822 104.333 163.966C105.507 165.692 106.996 167.301 108.322 168.922C109.252 170.058 110.326 171.741 110.764 173.164C110.806 173.303 111.392 174.284 111.392 173.877C111.392 172.509 110.273 171.123 109.627 170.009C107.806 166.866 106.994 163.292 105.24 160.134C104.579 158.944 107.385 161.814 108.479 162.624C109.964 163.724 111.414 164.785 112.722 166.093C112.91 166.281 114.434 167.889 114.148 167.302C113.133 165.215 111.687 163.247 110.498 161.258C108.483 157.89 106.689 154.502 105.131 150.9C103.953 148.176 103.174 145.322 101.952 142.608C101.522 141.653 101.082 140.694 100.707 139.72C100.612 139.473 100.165 139.008 100.2 138.729C100.205 138.687 101.268 139.526 101.336 139.575C106.896 143.578 112.371 147.509 116.203 153.257C117.897 155.798 119.264 158.548 120.989 161.041C121.982 162.476 120.882 161.795 119.986 161.065C117.495 159.035 114.669 156.44 112.951 153.692C111.407 151.221 110.247 148.552 108.806 146.029C108.012 144.64 106.953 143.092 106.412 141.605C106.119 140.8 105.683 140.059 105.373 139.285C104.767 137.769 105.575 138.846 106.509 139.55C110.713 142.718 115.3 145.419 119.66 148.362C121.573 149.653 122.93 151.478 124.579 153.039C124.897 153.34 126.75 155.607 125.558 154.345C124.248 152.958 123.585 151.081 122.464 149.558C120.896 147.431 119.463 145.029 117.726 143.044C117.052 142.274 116.293 141.322 115.816 140.421C115.544 139.908 114.377 139.683 113.918 139.224C113.19 138.496 112.027 136.127 110.5 134.501C108.153 132.001 107.249 127.296 105.663 128.001C105.268 128.177 105.072 134.983 105.663 135.743C106.319 136.586 107.395 137.259 108.153 138.028C109.628 139.524 110.856 141.251 112.262 142.814C115.693 146.626 118.645 150.821 120.663 155.529C121.422 157.3 122.035 159.02 124.035 159.131C124.482 159.156 124.616 159.276 124.373 158.599C123.908 157.3 122.788 155.994 121.968 154.889C121.227 153.89 120.744 152.733 120.216 151.613C119.816 150.768 120.672 151.611 120.868 151.843C121.704 152.831 122.434 153.51 123.6 154.127C124.126 154.406 125.833 155.982 125.123 154.562" stroke="#171717" stroke-width="4" stroke-linecap="round"/>
<path d="M129.384 153.201C129.384 151.592 128.857 150.292 128.258 148.809C127.33 146.51 126.45 144.242 125.242 142.068C123.394 138.741 120.995 135.677 119.251 132.324C117.537 129.028 115.603 125.696 113.247 122.817C108.857 117.451 119.408 135.245 122.754 141.317C123.671 142.982 124.698 144.67 125.478 146.404C126.027 147.623 125.319 146.915 124.728 146.279C122.41 143.789 120.806 140.719 118.862 137.953C117.085 135.424 114.941 133.131 113.247 130.559C112.459 129.362 111.746 128.099 110.926 126.931C110.526 126.362 110.224 125.377 109.619 124.986C109.34 124.805 108.352 123.679 108.619 123.679C109.759 123.679 110.628 124.503 111.871 124.43C112.452 124.395 111.871 121.918 111.871 121.427C111.871 120.992 111.462 118.977 111.871 118.925C112.421 118.857 113.421 117.159 113.678 116.674C114.902 114.361 114.67 116.793 115.179 117.98C116.384 120.793 118.556 123.257 120.127 125.875C121.833 128.718 123.802 131.372 125.631 134.131C126.549 135.517 127.241 137.038 128.133 138.44C128.553 139.099 129.168 139.935 129.384 140.691C129.672 141.7 130.939 143.787 131.761 144.444C131.99 144.628 134.453 147.701 134.499 147.641C134.938 147.055 130.521 141.62 130.134 141.025C127.68 137.252 125.813 133.026 123.894 128.961C122.208 125.39 120.937 121.542 119.126 118.05C118.269 116.396 117.789 114.348 117.389 112.546C117.263 111.981 117.812 113.32 118.028 113.574C120.273 116.21 122.632 118.788 124.783 121.497C127.708 125.18 130.43 129.031 133.387 132.686C134.649 134.246 135.653 135.892 136.528 137.689C137.224 139.121 137.754 140.53 138.641 141.887C139.209 142.756 139.861 143.546 140.336 144.444C140.611 144.962 140.58 145.051 139.975 144.583C138.344 143.323 137.271 142.138 136.083 140.441C132.814 135.772 129.793 131.128 128.133 125.625C127.076 122.123 126.454 118.347 125.937 114.728C125.595 112.336 123.88 107.778 123.88 107.778C123.88 107.778 124.313 109.012 124.644 109.571C126.035 111.918 127.865 113.927 129.537 116.076C131.714 118.875 133.904 121.585 135.875 124.541C137.203 126.533 138.23 128.671 139.516 130.684C142.079 134.695 144.046 139.219 146.396 143.332C146.811 144.058 147.508 144.624 147.897 145.306C148.399 146.184 147.154 144.347 147.008 144.166C144.726 141.333 142.45 138.159 140.795 134.923C138.944 131.304 137.449 127.495 135.75 123.804C134.558 121.215 133.228 118.691 132.15 116.048C130.875 112.927 130.396 109.238 128.758 106.291C128.522 105.866 128.199 105.677 128.633 106.166C129.302 106.918 129.68 108.054 130.246 108.89C132.841 112.73 136.034 116.177 138.835 119.871C140.924 122.625 142.625 125.61 144.395 128.571C146.542 132.164 148.87 135.817 150.594 139.635C151.225 141.032 152.173 143.24 153.207 144.389C153.391 144.593 153.846 145.278 153.652 145.084C152.546 143.978 151.657 141.852 150.788 140.525C146.707 134.287 143.335 127.544 140.447 120.677C138.835 116.842 137.749 112.777 135.944 109.029C135.202 107.488 134.337 106.038 133.581 104.526C133.234 103.831 134.041 105.041 134.165 105.193C135.861 107.266 137.998 109.026 139.892 110.92C144.906 115.934 148.532 121.7 151.775 127.946C153.581 131.424 154.925 135.113 156.529 138.676C157.116 139.981 158.334 141.433 158.641 142.818C158.821 143.624 158.262 142.826 157.905 142.429C156.261 140.603 154.896 138.292 153.401 136.327C150.08 131.96 147.063 127.499 144.645 122.553C143.975 121.183 143.266 119.768 142.518 118.439C142.239 117.942 141.684 116.962 142.407 118.092C146.101 123.864 149.765 129.641 153.012 135.688C154.393 138.26 155.88 140.82 157.154 143.444C157.54 144.237 158.814 146.517 157.154 144.945C155.487 143.365 152.973 142.822 151.205 141.331C147.138 137.899 143.798 134.104 140.892 129.683C139.137 127.013 136.883 124.936 134.943 122.428C133.527 120.597 132.14 118.74 130.635 116.98C129.351 115.478 128.133 113.929 126.826 112.476C126.238 111.823 125.969 111.25 125.575 110.419C125.277 109.789 125.153 107.929 124.63 107.667" stroke="#171717" stroke-width="4" stroke-linecap="round"/>
<path d="M168.608 143.555C167.239 139.876 165.803 136.228 164.299 132.603C162.552 128.393 161.073 123.57 158.656 119.676C156.481 116.172 153.732 112.738 152.151 108.918C151.066 106.296 149.671 103.687 147.648 101.663C147.34 101.356 146.103 99.2725 145.702 99.2725C145.156 99.2725 146.996 102.852 147.05 102.956C149.422 107.524 151.253 112.361 153.207 117.119C156.264 124.56 159.891 131.693 163.354 138.941C164.014 140.322 164.787 141.937 165.161 143.43C165.464 144.645 165.913 144.962 164.605 143.472C156.436 134.166 152.444 122.172 145.646 111.976C143.97 109.462 142.314 107.108 140.893 104.415C140.488 103.647 138.726 101.397 140.198 103.414C142.493 106.56 144.787 109.729 147.022 112.921C149.121 115.92 150.877 119.16 153.096 122.067C154.202 123.516 151.949 120.313 151.762 120.01C150.245 117.552 148.883 115.003 147.592 112.421C146.421 110.079 145.325 107.589 144.59 105.11C144.452 104.645 143.322 101.869 142.7 102.024C142.455 102.086 145.683 107.04 145.813 107.209C148.841 111.14 151.838 115.078 154.903 118.981C156.754 121.339 158.343 123.901 160.157 126.292C161.104 127.541 161.956 128.779 162.659 130.184" stroke="#171717" stroke-width="4" stroke-linecap="round"/>
<path d="M236.713 118.675C236.713 121.2 237.722 123.396 238.715 125.68C240.017 128.676 241.321 131.652 242.662 134.631C244.083 137.789 245.391 140.899 247.096 143.93C247.399 144.469 247.665 145.02 247.972 145.556C248.694 146.821 245.693 143.72 244.719 142.637C240.176 137.583 236.119 131.345 233.225 125.194C231.617 121.778 230.073 118.347 228.457 114.936C227.789 113.525 225.175 109.622 225.955 110.975C226.782 112.409 227.208 114.298 227.818 115.84C229.344 119.699 230.912 123.546 232.335 127.445C234.194 132.54 236.448 137.496 238.909 142.331C239.503 143.498 239.828 143.389 240.5 144.5C240.718 144.861 241.595 145.69 241.195 145.556C239.681 145.052 238.926 144.488 237.964 143.332C235 139.768 232.447 135.874 230.222 131.81C227.332 126.528 224.701 121.059 222.008 115.673C221.123 113.903 220.382 112.08 219.701 110.224C219.126 108.661 218.177 107.094 217.699 105.54C217.594 105.197 216.728 104.239 217.088 104.804C217.577 105.573 217.913 106.291 218.2 107.167C219.934 112.465 221.676 117.767 223.467 123.053C225.083 127.82 227.224 132.399 228.902 137.133C229.744 139.509 231.197 141.54 232.21 143.819C232.405 144.258 232.759 144.615 232.961 145.069C233.652 146.625 231.816 143.627 231.557 143.276C228.924 139.708 226.333 136.185 224.204 132.282C221.726 127.738 219.87 122.821 217.699 118.119C216.795 116.159 215.891 114.193 215.003 112.226C214.325 110.726 213.345 109.406 212.849 107.806C212.381 106.3 211.445 104.002 211.445 102.413C211.445 102.224 211.818 103.158 211.889 103.414C212.222 104.611 212.607 105.788 213.001 106.972C214.916 112.716 216.382 118.563 218.214 124.332C219.649 128.855 220.725 133.887 222.759 138.189C223.569 139.904 224.442 141.657 225.08 143.443C225.234 143.876 226.342 145.659 225.677 145.042C223.908 143.398 222.498 141.2 221.216 139.176C218.404 134.736 216.071 130 213.752 125.291C210.896 119.491 208.53 113.209 206.191 107.194C205.193 104.629 204.462 102.066 203.745 99.4109C203.554 98.7071 203.289 98.0727 202.994 97.4094C202.627 96.5844 203.367 97.8369 203.439 98.16C203.655 99.131 204.456 100.08 204.954 100.926C206.381 103.351 207.86 105.741 209.193 108.223C210.69 111.01 212.043 113.842 213.446 116.674C214.634 119.071 216.029 121.479 216.824 124.04C217.198 125.246 217.701 126.427 217.949 127.668C218.007 127.954 218.2 129.104 218.2 128.933" stroke="#171717" stroke-width="4" stroke-linecap="round"/>
<path d="M221.452 145.446C221.415 145.115 221.19 144.809 221.048 144.514C220.225 142.805 219.38 141.104 218.547 139.4C216.5 135.215 214.586 130.963 212.25 126.932C209.147 121.576 206.015 116.225 202.813 110.934C200.454 107.037 197.771 103.172 195.933 99.0365C195.838 98.8231 195.331 97.5299 195.488 97.9663C196.302 100.227 198.721 102.059 200.172 103.901C202.01 106.234 203.763 108.612 205.44 111.059C205.714 111.459 207.089 113.401 206.44 111.865C206.077 111.005 205.507 110.38 204.953 109.642C204.087 108.487 203.528 107.054 202.827 105.791C201.956 104.223 201.445 102.499 200.561 100.927C200.134 100.167 199.303 99.647 198.935 98.9114" stroke="#171717" stroke-width="4" stroke-linecap="round"/>
<path d="M187.927 96.6588C188.059 98.1183 188.851 99.4828 189.483 100.773C190.566 102.98 191.6 105.209 192.68 107.417C194.005 110.124 195.23 112.993 196.377 115.784C198.909 121.939 200.977 128.276 203.925 134.27C205.62 137.717 206.694 141.447 208.567 144.819C209.315 146.165 207.951 143.783 207.789 143.513C203.737 136.76 201.435 129.048 198.49 121.788C196.603 117.137 193.795 111.732 193.681 106.583C193.665 105.88 194.189 107.363 194.237 107.472C194.927 109.05 195.819 110.524 196.739 111.976C201.789 119.942 206.244 128.262 210.457 136.688C210.98 137.733 211.64 138.705 212.056 139.802C212.168 140.097 212.377 141.178 212.792 141.261C213.755 141.454 211.666 139.652 211.055 138.884C209.667 137.142 208.418 135.203 207.316 133.269C206.124 131.176 205.124 128.993 204.217 126.764C204.145 126.588 203.443 124.963 203.591 125.11C204.163 125.682 204.548 126.506 204.953 127.195C205.786 128.611 206.859 129.854 207.886 131.129C211.046 135.048 213.099 139.951 216.448 143.693C216.544 143.801 216.872 144.293 216.587 143.888C215.872 142.872 214.943 142.017 214.196 141.025C210.738 136.427 208.856 130.852 206.426 125.708C203.816 120.18 201.359 114.578 199.06 108.918C198.306 107.061 197.059 105.368 196.183 103.553C195.447 102.029 194.567 100.575 193.737 99.1051C193.579 98.8259 191.726 93.7212 191.485 93.9624C191.018 94.4292 192.068 97.1909 192.18 97.7151C192.948 101.33 193.192 104.665 194.571 108.181C198.009 116.955 204.213 124.224 208.678 132.449C210.87 136.486 212.93 141.013 214.196 145.445" stroke="#171717" stroke-width="4" stroke-linecap="round"/>
<path d="M205.19 145.195C204.968 142.539 203.02 139.817 201.562 137.69C198.904 133.81 196.798 129.444 194.432 125.375C190.561 118.718 186.49 112.21 182.812 105.444C181.315 102.689 180.195 99.7371 178.795 96.9375C178.321 95.9885 177.734 95.1023 177.364 94.1021C177.259 93.8181 176.919 93.007 176.919 93.3098C176.919 94.1739 177.992 95.1081 178.476 95.7144C181.83 99.9185 185.434 104.128 188.441 108.585C192.324 114.339 195.622 120.527 199.13 126.515C200.073 128.124 201.132 129.66 202.076 131.268C202.86 132.603 202.194 131.508 201.659 130.907C197.688 126.439 195.643 120.91 193.084 115.604C190.55 110.352 187.204 104.916 185.926 99.1613C185.737 98.315 184.394 95.7686 183.674 95.4086" stroke="#171717" stroke-width="4" stroke-linecap="round"/>
<path d="M172.654 145.533C172.605 145.014 172.398 144.541 172.22 144.054C171.555 142.234 170.946 140.397 170.356 138.551C169.595 136.167 168.947 133.716 168.078 131.371C166.751 127.79 165.381 124.211 163.699 120.779C161.377 116.043 158.749 111.459 156.756 106.568C156.202 105.208 155.352 104.038 154.813 102.662C154.358 101.499 154.184 100.221 153.876 99.0232C153.675 98.2384 153.607 97.1544 153.216 96.4491C153.038 96.1296 153.01 96.0149 153.206 96.4787C153.849 98.0023 155.062 99.5251 156.046 100.838C161.978 108.748 167.337 117.278 171.954 126.026C173.957 129.821 175.863 133.641 177.802 137.466C178.714 139.266 179.997 140.908 180.889 142.693C180.966 142.846 181.718 144.533 181.954 144.439C182.029 144.409 179.695 140.859 179.577 140.661C177.686 137.498 176.071 134.099 174.429 130.799C171.781 125.479 169.796 119.875 167.328 114.477C165.989 111.547 165.082 108.476 163.64 105.591C162.083 102.477 160.764 99.4237 159.606 96.1829C159.494 95.8684 159.501 95.522 159.518 96.0842C159.558 97.4876 161.097 98.9296 161.904 99.9502C165.651 104.686 169.151 109.549 172.555 114.536C174.775 117.789 176.735 121.255 178.69 124.675C180.864 128.481 182.767 132.483 185.041 136.223C186.327 138.338 187.469 140.552 188.542 142.782C188.825 143.37 189.065 144.167 189.518 144.646C190.159 145.322 189.673 144.28 189.479 143.995C187.797 141.528 186.797 138.677 185.613 135.957C183.837 131.88 182.153 127.783 180.642 123.6C178.477 117.604 176.592 111.51 173.995 105.69C173.269 104.063 172.39 102.508 171.766 100.838C171.293 99.5702 170.883 98.1933 170.307 96.9718C169.995 96.3111 169.452 95.3978 169.291 94.674C169.168 94.1188 169.199 94.52 169.36 94.8416C170.059 96.2387 170.991 97.4556 171.954 98.678C175.662 103.384 179.391 108.249 182.24 113.54C185.078 118.811 187.868 124.039 190.228 129.547C191.666 132.901 193.212 136.235 194.844 139.498C195.36 140.53 195.843 141.59 196.432 142.584C196.546 142.777 197.09 143.609 196.974 143.541C196.112 143.034 195.581 141.669 195.081 140.878C193.466 138.325 191.741 135.846 190.14 133.284C188.974 131.419 187.748 129.561 186.816 127.564C185.715 125.205 184.916 122.722 183.798 120.365C182.819 118.299 181.738 116.233 180.652 114.221C180.238 113.454 179.915 112.665 179.538 111.883C179.431 111.661 179.222 110.966 179.222 111.213C179.222 113.709 180.518 115.658 181.619 117.86C184.326 123.275 187.463 128.549 190.011 134.034C191.091 136.357 191.975 138.777 193.069 141.085C193.414 141.814 194.651 144.646 195.732 144.646C196.124 144.646 196.681 144.311 197.063 144.212C197.866 144.003 198.775 144.113 199.597 144.113C200.193 144.113 200.747 144.084 201.314 144.291C201.597 144.394 202.057 144.641 201.669 144.182C199.527 141.651 198.232 138.34 196.757 135.415C194.781 131.493 192.107 127.987 190.14 124.053C188.624 121.022 187.387 117.87 185.593 114.98C183.66 111.866 182.31 108.428 180.287 105.374C178.187 102.205 176.762 98.7243 174.607 95.6109C173.231 93.6233 170.679 94.6321 168.571 94.3978C167.83 94.3155 166.83 94.23 166.125 94.0132C165.611 93.8549 165.775 94.0231 165.997 94.4175C166.631 95.5443 167.151 96.5656 167.605 97.8003C169.238 102.245 170.903 106.661 172.565 111.094C174.466 116.164 175.744 121.358 177.269 126.539C179.052 132.592 180.643 138.832 183.66 144.389C184.41 145.77 183.167 144.862 182.556 144.251C179.555 141.25 176.444 138.547 174.686 134.606C173.036 130.909 171.127 127.264 169.143 123.738C168.801 123.13 168.307 122.501 168.048 121.854C167.888 121.453 168.325 122.674 168.482 123.077C169.719 126.238 170.878 129.49 171.845 132.742C172.646 135.431 173.207 138.267 174.252 140.878C174.834 142.333 175.163 143.806 175.849 145.178" stroke="#171717" stroke-width="4" stroke-linecap="round"/>
<path d="M251.8 146.92H137.6L87.7996 204.92C67.3996 160.52 92.1996 137.04 103.8 134.32C105.56 104.08 147.2 93.7203 167.8 92.3203C229.4 92.3203 249.44 128.72 251.8 146.92Z" stroke="#171717" stroke-width="2" stroke-linejoin="round"/>
<path d="M104.04 135.6C96.4396 135.6 86.7196 144.16 85.8396 152.04C85.5596 154.4 83.4796 156.08 83.4796 158.8C83.4796 161.12 81.7196 163.48 81.7196 165.84C81.7196 170.92 80.5596 175.6 80.5596 180.52C80.5596 182.76 80.5596 185 80.5596 187.28C80.5596 190.12 81.6396 192 81.7196 194.76C81.7996 196.92 85.9596 205.76 89.0396 203.36C93.0396 200.24 95.7196 194.52 97.9996 190.2C98.9596 188.4 101.08 186.08 102.84 185.04C104.64 184 108.08 181.48 109.16 179.64C111.52 175.64 114.4 171.6 117.8 168.2C121.56 164.44 124.48 160.48 127.92 156.64C131.48 152.68 132.32 150.32 137.72 149.12C139.68 148.68 141.64 147.4 143.6 147.4C146.32 147.4 149.08 147.4 151.8 147.4C170.52 147.4 189.32 145.64 208.12 145.64C210.36 145.64 212.6 145.64 214.88 145.64C217.32 145.64 219.56 146.68 221.92 146.8C227.64 147.12 227.74 146.8 233.5 146.8C235.18 146.8 240.46 146.44 241.5 146.8C243.32 146.8 245.2 146.8 246.72 146.8C248.64 146.8 249.52 147.2 249.52 145.04C249.52 143.56 247.64 140.08 246.72 139.04C245.16 137.32 244.24 134.2 243.2 132.12C241.12 127.96 240.36 122.64 237.48 118.92C235.08 115.84 231.24 112.28 227.84 110.28C223.8 107.88 219.8 104.64 215.28 103.32C213.4 102.8 211.2 101.12 209.4 100.12C207.56 99.0802 204.92 96.8002 202.96 96.3202C201.88 96.0802 198.76 94.8402 197.84 94.0802C196.68 93.1602 191.8 93.3602 190.36 93.3602C184.8 93.3602 179.72 92.2002 174.28 92.2002C167.88 92.2002 162.12 94.3202 155.88 94.5602C151.2 94.7202 144.68 96.8002 141.08 99.8402C139.24 101.4 137.04 101.84 134.92 102.76C131.92 104.08 130.8 105.12 127.28 105.12C123.8 105.12 116.88 109.08 114.68 111.88C112.56 114.52 98.7196 132.64 103.52 135.04" stroke="#171717" stroke-width="2" stroke-linecap="round"/>
<path d="M162.335 196.683C155.633 192.334 151.2 184.784 151.2 176.2C151.2 162.724 162.124 151.8 175.6 151.8C189.076 151.8 200 162.724 200 176.2C200 177.597 199.883 178.966 199.657 180.298" stroke="#171717" stroke-width="2" stroke-linecap="round" stroke-linejoin="round"/>
<path d="M200.378 180.5C200.13 179.104 200 177.667 200 176.2C200 162.724 210.924 151.8 224.4 151.8C237.876 151.8 248.8 162.724 248.8 176.2C248.8 177.505 248.697 178.787 248.5 180.037" stroke="#171717" stroke-width="2" stroke-linecap="round" stroke-linejoin="round"/>
<path d="M151 176.199H114" stroke="#171717" stroke-width="2" stroke-linecap="round" stroke-linejoin="round"/>
<path d="M255.6 176.199H248.8" stroke="#171717" stroke-width="2" stroke-linecap="round" stroke-linejoin="round"/>
<path d="M112.881 176.949C117.192 176.949 121.845 177.377 126.023 176.081C127.639 175.579 129.494 175.379 131.17 175.146C132.506 174.961 133.828 174.812 135.175 174.812C137.591 174.812 139.969 175.213 142.399 175.213C145.157 175.213 147.906 175.48 150.661 175.48" stroke="#171717" stroke-width="2" stroke-linecap="round"/>
<path d="M249.347 175.405C249.987 175.405 250.658 175.344 251.293 175.416C251.779 175.472 252.19 175.717 252.625 175.917C252.872 176.03 253.131 176.163 253.394 176.236C253.594 176.292 253.798 176.481 254.009 176.481" stroke="#171717" stroke-width="2" stroke-linecap="round"/>
<path d="M169.12 153.12C167.4 153.12 165.64 154.04 164.12 154.92C162.56 155.8 161.4 156.96 160.24 158.32C159.28 159.44 158 160.84 157.32 162.08C156.8 163 156.12 163.76 155.64 164.68C155.28 165.36 155.28 166.16 154.92 166.84C154.28 168.08 154.2 170.4 153.92 171.76C153.6 173.36 153.6 175.04 153.6 176.68C153.6 178.44 153.44 180.56 153.92 182.2C154.24 183.32 154.48 185.72 155.16 186.64C157 189.04 159.2 191.52 161.32 193.72C161.644 194.071 161.996 194.4 162.361 194.715M197.68 180C197.68 176.6 198.44 172.92 197.68 169.52C197.36 168.08 197.2 166.48 196.48 165.2C195.64 163.68 194.8 162.84 193.6 161.6C191.28 159.16 188.56 156.52 185.6 154.96C183.72 153.96 182.76 153.36 180.6 153.36C178.88 153.36 177.16 152.44 175.48 152.44C173.84 152.44 172.2 152.12 170.48 152.12C168.96 152.12 166.12 152.24 164.92 153.2C164.12 153.84 163.04 154.08 162.12 154.52C161.28 154.92 160.88 155.56 160.2 156.28C159.04 157.48 157.36 160.08 156.32 162.48" stroke="#171717" stroke-width="2" stroke-linecap="round"/>
<path d="M247.04 179.759C247.16 178.919 247.48 177.959 247.28 177.159C246.8 175.319 247.4 173.759 247.4 171.999C247.4 171.319 246.48 167.119 245.88 166.839C245.36 166.599 244.92 165.399 244.56 164.959C243.8 164.119 242.8 163.559 242.16 162.599C241.28 161.319 240.24 159.439 238.88 158.599C236.6 157.239 234.28 156.079 232 154.719C230.8 153.999 229.2 154.079 227.84 153.799C226.32 153.479 224.04 152.639 222.56 153.039C219.4 153.879 215.8 154.039 212.8 155.639C211.52 156.319 210.08 156.919 209.08 157.919C207.88 159.119 207.36 160.199 206.52 161.719C204.88 164.679 203.16 168.079 202.52 171.479C202.12 173.639 201.8 174.759 202.36 176.919C202.674 178.045 202.611 179.291 202.654 180.5" stroke="#171717" stroke-width="2" stroke-linecap="round"/>
<path d="M230.6 178.879C230.6 175.787 228.093 173.279 225 173.279C221.908 173.279 219.4 175.787 219.4 178.879" stroke="#171717" stroke-width="2"/>
<path d="M181.8 179.28C181.8 176.187 179.292 173.68 176.2 173.68C173.107 173.68 170.6 176.187 170.6 179.28" stroke="#171717" stroke-width="2"/>
<path d="M172.922 176.863C174.496 176.863 176.071 176.863 177.645 176.863C177.841 176.863 179.173 177.039 178.924 177.163" stroke="#171717" stroke-width="4" stroke-linecap="round"/>
<path d="M220.926 177.237C221.593 177.237 222.099 176.876 222.65 176.541C223.071 176.286 223.653 176.135 224.143 176.124C224.768 176.109 225.531 176.092 226.13 175.899C226.364 175.824 227.088 175.706 226.842 175.706" stroke="#171717" stroke-width="4" stroke-linecap="round"/>
<path d="M138.84 304V384L156.84 387.4" stroke="#171717" stroke-width="2" stroke-linecap="round" stroke-linejoin="round"/>
<path d="M197.68 304V384L215.68 387.4" stroke="#171717" stroke-width="2" stroke-linecap="round" stroke-linejoin="round"/>
<path d="M137.314 304.57C137.314 310.23 137.145 315.858 137.848 321.479C138.697 328.27 139.108 335.14 139.671 341.961C139.921 344.992 139.9 348.126 139.598 351.153C139.329 353.838 139.182 356.563 138.842 359.239C138.744 360.013 138.932 360.841 138.723 361.596C138.65 361.858 138.486 362.355 138.474 362.591C138.384 364.3 139.189 366.097 139.598 367.73C140.194 370.117 139.8 372.911 139.8 375.356C139.8 377.455 139.8 379.555 139.8 381.655C139.8 382.876 141.677 383.197 142.655 383.608C144.361 384.323 146.146 384.818 147.96 385.173C149.861 385.545 151.77 385.981 153.688 386.26C154.856 386.429 156.093 386.423 157.206 386.794" stroke="#171717" stroke-width="2" stroke-linecap="round"/>
<path d="M196.381 306.009C196.381 311.594 196 317.223 197.051 322.714C197.816 326.705 198.046 330.694 198.046 334.756C198.046 340.528 198.002 346.269 198.417 352.028C198.775 357.007 199.151 361.948 199.492 366.905C199.59 368.315 199.712 369.668 199.712 371.093C199.712 371.683 199.599 372.294 199.4 372.851C199.14 373.58 199.38 374.399 199.192 375.153C198.978 376.009 199.088 376.971 199.088 377.849C199.088 378.766 198.879 379.623 198.879 380.544C198.879 381.592 198.208 383.493 198.717 384.512C200.07 387.217 204.429 386.386 206.781 386.386C208.242 386.386 209.703 386.386 211.165 386.386C211.92 386.386 215.17 386.483 215.538 387.219" stroke="#171717" stroke-width="2" stroke-linecap="round"/>
<path d="M153.199 208.68C155.217 210.857 158.36 213.552 162.499 216.246" stroke="#171717" stroke-width="2" stroke-linecap="round" stroke-linejoin="round"/>
<path d="M152.691 209.034C152.835 210.181 156.038 212.204 156.881 212.829C158.637 214.129 160.16 215.835 162.086 216.905" stroke="#171717" stroke-width="2" stroke-linecap="round"/>
<path d="M281.17 250.442C281.104 249.845 278.862 248.232 278.211 247.888C277.364 247.439 277.321 247.333 277.756 248.444C278.608 250.62 279.955 253.096 280.247 255.436C280.319 256.009 280.542 257.226 279.779 256.675C277.602 255.103 276.012 253.094 274.355 251.023C273.42 249.854 272.528 248.657 271.599 247.496C271.357 247.194 269.253 244.761 269.387 245.258C270.033 247.657 271.418 249.826 272.522 252.035C273.335 253.662 274.066 255.319 275.025 256.865C276.236 258.816 276.518 261.24 277.756 263.186C278.314 264.062 279.394 266.992 279.109 265.993C278.553 264.048 275.931 262.442 274.697 260.91C273.215 259.071 271.514 257.056 270.373 254.981C269.181 252.814 268.095 250.212 266.378 248.394C265.96 247.952 265.113 246.471 265.113 247.079C265.113 247.554 265.924 248.504 266.15 248.899C267.107 250.575 268.026 252.278 268.83 254.033C271.132 259.051 272.656 264.416 275.822 268.989C276.261 269.623 276.752 270.765 277.428 271.151C277.692 271.302 278.414 272.032 278.414 272.378C278.414 272.49 277.189 271.612 277.149 271.581C275.564 270.378 274.086 269 272.648 267.624C270.403 265.474 268.541 262.759 267.111 260C266.167 258.181 264.983 256.704 263.874 254.993C262.886 253.469 262.204 251.768 260.916 250.442C260.063 249.565 259.14 248.792 258.286 247.939C257.296 246.949 257.644 247.034 258.299 248.293C259.744 251.072 260.769 254.018 262.167 256.814C263.755 259.99 265.749 263.186 267.794 266.094C268.874 267.631 269.69 269.3 270.701 270.873C271.086 271.471 271.8 272.617 272.421 272.972C272.938 273.267 273.433 273.652 273.976 273.87C275.091 274.316 271.574 273.882 270.373 273.882C268.945 273.882 267.512 273.543 266.264 272.871C264.703 272.03 263.982 270.228 263.191 268.648C261.116 264.498 259.294 260.289 256.819 256.359C255.913 254.919 255.137 253.417 254.139 252.035C253.413 251.03 253.13 249.713 252.369 248.735C251.804 248.009 251.827 247.211 252.963 247.85C254.607 248.775 255.782 251.012 256.604 252.616C258.712 256.727 262.251 260.019 263.647 264.501C263.922 265.387 264.55 266.152 264.734 267.055C264.926 267.997 265.157 268.872 265.467 269.786C265.651 270.327 266.645 272.604 266.099 273.149C265.653 273.596 263.136 273.199 262.509 273.199C261.257 273.199 260.005 273.199 258.754 273.199C255.713 273.199 254.204 272.741 253.279 269.546C252.361 266.374 250.67 263.116 249.082 260.228C247.721 257.754 246.483 255.097 244.985 252.718C244.297 251.624 243.451 250.333 242.988 249.127C242.777 248.58 242.219 248.081 242.254 247.483C242.286 246.946 242.928 247.699 243.038 247.812C243.981 248.782 244.931 249.718 245.896 250.669C248.702 253.437 251.428 256.077 253.848 259.204C256.47 262.59 259.197 265.768 260.574 269.9C260.811 270.611 261.978 272.862 261.017 271.113C258.961 267.376 257.028 263.575 254.999 259.823C253.904 257.798 252.931 255.656 251.762 253.679C251.112 252.579 250.224 250.95 249.309 250.101C248.322 249.184 248.12 246.556 246.806 246.118" stroke="#C6C6C8" stroke-width="4" stroke-linecap="round"/>
<path d="M246.351 274.793C242.938 271.039 240.202 266.653 237.298 262.504C236.144 260.855 234.869 259.414 233.619 257.852C232.716 256.723 231.429 255.695 230.762 254.413C229.354 251.705 226.587 249.641 225.136 247.029C224.465 245.822 225.605 246.956 226.134 247.408C228.913 249.778 231.707 252.184 234.289 254.767C237.545 258.022 241.343 261.296 243.62 265.362C244.592 267.097 245.026 269.335 246.174 270.925C246.906 271.938 247.649 272.831 248.399 273.769C248.753 274.212 249.535 274.566 250.106 274.566C251.971 274.566 248.447 268.658 248.121 268.143C245.715 264.347 243.185 260.551 240.611 256.865C239.031 254.604 237.792 252.14 236.224 249.874C235.694 249.109 235.298 248.163 234.858 247.37C234.689 247.065 234.479 246.54 235.023 246.903C236.422 247.836 237.456 249.481 238.613 250.67C241.447 253.585 243.878 256.747 246.123 260.115C246.868 261.232 247.231 262.452 247.716 263.693C248.113 264.707 248.203 265.96 248.854 266.828" stroke="#C6C6C8" stroke-width="4" stroke-linecap="round"/>
<path d="M205.013 275.354C205.013 273.133 204.943 271.062 204.569 268.87C204.338 267.519 203.769 266.296 203.384 264.987C202.898 263.332 202.411 261.684 201.681 260.116C200.646 257.893 199.316 255.781 198.168 253.616C197.291 251.964 196.369 250.341 195.469 248.704C195.192 248.201 195.035 247.627 194.679 247.182C194.595 247.076 194.591 246.727 194.794 246.919C195.314 247.407 195.812 247.883 196.292 248.416C198.573 250.951 200.158 254.259 201.755 257.253C202.986 259.562 204.091 261.908 204.939 264.386C205.829 266.987 206.792 269.801 208.749 271.832C209.394 272.503 210.411 274.91 211.53 274.91C212.083 274.91 211.777 272.666 211.744 272.45C211.279 269.462 209.826 266.853 208.749 264.065C207.088 259.77 205.445 255.282 203.203 251.246C202.738 250.409 202.051 249.15 202.051 248.177C202.051 247.732 201.903 247.369 201.903 246.919C201.903 246.273 202.84 247.621 203.006 247.84C204.647 250.013 206.273 252.089 207.383 254.587C208.36 256.785 209.063 259.073 209.975 261.293C211.48 264.958 211.788 269.432 214.558 272.466C215.346 273.329 216.206 274.71 217.232 275.28C217.761 275.574 218.39 275.245 218.639 274.762C219.589 272.914 218.971 270.743 218.351 268.912C216.633 263.844 214.672 258.837 212.863 253.797C212.217 251.999 210.924 250.068 210.633 248.177C210.557 247.685 210.161 247.313 210.057 246.845C209.926 246.256 209.901 248.109 209.901 248.317C209.901 251.327 210.424 254.376 210.863 257.351C211.194 259.596 211.492 261.694 212.27 263.835C212.992 265.819 213.727 267.677 214.788 269.504C215.142 270.114 215.447 270.761 215.825 271.355C215.882 271.446 216.257 272.363 216.269 272.063C216.42 268.284 215.198 264.417 214.582 260.725C213.937 256.856 213.603 253.115 213.603 249.206C213.603 248.74 213.572 246.326 214.418 246.326C215.119 246.326 215.534 247.503 215.825 247.955C217.349 250.326 218.671 252.843 219.815 255.418C221.544 259.309 221.763 263.663 223.23 267.645C223.842 269.307 224.104 270.787 225.229 272.162C225.839 272.907 226.58 274.021 227.673 274.021C228.127 274.021 228.398 274.078 228.635 273.651C228.806 273.344 228.709 272.856 228.709 272.524C228.709 271.133 228.784 269.748 228.413 268.393C227.625 265.51 226.249 262.789 225.303 259.951C224.652 257.999 223.915 255.879 222.933 254.06C222.298 252.883 221.885 251.564 221.378 250.325C221.109 249.666 220.74 248.788 220.712 248.07C220.703 247.837 220.574 246.671 220.712 247.223C220.891 247.937 221.485 248.51 221.905 249.091C223.114 250.762 224.17 252.548 225.27 254.291C227.347 257.578 228.779 261.24 230.75 264.576C231.394 265.666 231.898 266.942 232.412 268.097C232.891 269.176 233.47 270.203 233.893 271.322C234.134 271.961 234.269 272.624 234.485 273.272C234.593 273.595 234.606 274.155 234.93 274.317" stroke="#C6C6C8" stroke-width="4" stroke-linecap="round"/>
<path d="M234.929 274.317C236.262 274.317 237.595 274.317 238.928 274.317C239.4 274.317 239.831 274.338 240.294 274.432C240.346 274.443 241.083 274.645 240.968 274.498C240.252 273.577 239.614 272.575 238.928 271.618C236.169 267.772 233.684 263.774 231.111 259.803C230.221 258.429 229.395 257.043 228.528 255.656C227.864 254.594 226.732 253.429 226.339 252.25" stroke="#C6C6C8" stroke-width="4" stroke-linecap="round"/>
<path d="M223.23 274.761C223.23 274.457 223.22 274.152 223.238 273.848C223.312 272.592 223.067 271.787 222.645 270.606C221.718 268.009 220.72 265.507 219.601 262.979C218.501 260.494 217.582 257.942 216.45 255.475C215.982 254.456 214.936 252.958 214.936 251.806" stroke="#C6C6C8" stroke-width="4" stroke-linecap="round"/>
<path d="M230.634 245.586C230.899 247.175 232.463 248.747 233.226 250.119C234.162 251.805 235.029 253.527 235.966 255.213" stroke="#C6C6C8" stroke-width="4" stroke-linecap="round"/>
<path d="M191.226 245.845C191.226 247.636 192.56 249.527 193.366 251.058C194.657 253.512 195.7 256.003 196.692 258.591C197.491 260.676 198.221 262.765 199.118 264.811C199.537 265.764 199.971 266.841 200.251 267.849C200.806 269.845 201.258 272.159 201.258 274.222C201.258 274.397 201.041 273.948 200.925 273.818C200.398 273.224 199.889 272.665 199.307 272.119C197.395 270.326 196.055 268.252 194.633 266.078C192.801 263.277 191.494 260.172 189.734 257.332C187.761 254.148 185.608 250.985 184.35 247.463C184.308 247.346 183.859 246.466 183.954 246.896C184.094 247.523 184.615 248.447 184.925 249.009C186.109 251.155 186.724 253.622 187.676 255.876C188.846 258.647 190.053 261.432 191.388 264.128C192.687 266.75 193.837 269.44 195.145 272.056C195.474 272.714 195.723 273.503 196.08 274.123C196.292 274.491 194.811 274.321 194.534 274.321C193.623 274.321 192.712 274.321 191.802 274.321C191.275 274.321 191.274 274.331 191.217 273.818C191.016 272.002 190.194 270.033 189.527 268.353C188.853 266.653 188.496 264.634 187.631 263.031C185.487 259.061 183.937 254.712 182.408 250.465C182.096 249.598 181.788 248.236 181.105 247.553C180.61 247.058 179.906 246.872 179.343 246.411C178.864 246.019 178.93 246.372 178.93 246.824C178.93 248.067 179.492 249.425 179.82 250.609C180.984 254.817 182.957 258.697 184.305 262.833C185.088 265.236 186.09 267.387 186.498 269.917C186.601 270.556 186.834 271.29 186.858 271.93C186.88 272.533 186.044 272.774 185.572 273.099C185.335 273.262 185.047 273.638 184.826 273.512C184.345 273.237 183.844 273.078 183.298 273.018C182.845 272.967 182.29 272.868 182.166 272.371C181.84 271.07 181.454 269.782 181.195 268.46C180.368 264.238 178.807 260.088 177.276 256.074C176.567 254.216 175.8 252.377 175.047 250.537C174.679 249.638 174.278 248.636 173.68 247.867C173.498 247.632 173.267 246.779 173.267 247.076C173.267 247.559 173.24 248.051 173.276 248.532C173.517 251.792 173.882 255.014 174.759 258.177C175.698 261.566 177.028 264.877 178.247 268.173C178.686 269.361 179.17 270.534 179.577 271.732C179.756 272.259 179.875 272.949 180.143 273.431C180.294 273.703 178.291 273.779 177.959 273.827C177.209 273.934 177.104 273.66 176.907 272.937C176.208 270.371 175.511 267.886 174.471 265.422C172.873 261.634 171.629 257.72 170.031 253.935C169.461 252.584 168.784 251.198 168.053 249.926C167.642 249.209 167.381 248.335 166.957 247.66C166.626 247.136 166.406 246.13 165.95 245.719C165.741 245.531 164.759 245.683 164.53 245.683C163.643 245.683 162.756 245.683 161.869 245.683C161.484 245.683 161.289 245.884 161.554 246.267C162.631 247.822 163.444 249.729 164.278 251.427C166.142 255.218 167.745 259.119 169.096 263.121C170.333 266.785 172.296 270.461 172.296 274.402C172.296 274.581 169.34 274.159 168.817 274.159C168.377 274.159 168.239 272.904 168.152 272.604C167.639 270.828 166.846 269.091 166.184 267.364C163.752 261.026 160.27 255.125 157.33 249.018C156.931 248.19 156.466 246.845 155.712 246.258C155.408 246.022 152.088 246.67 152.557 247.139C154.822 249.405 156.799 251.862 158.345 254.708C160.056 257.857 161.273 261.221 162.822 264.442C164.016 266.927 165.226 269.414 166.229 271.975C166.39 272.388 167.172 273.661 166.939 274.069C166.707 274.476 164.011 274.159 163.568 274.159C163.361 274.159 161.347 274.387 161.303 274.231C161.238 274.005 161.426 273.72 161.447 273.494C161.504 272.866 161.473 272.18 161.357 271.562C161.067 270.017 160.362 268.665 159.909 267.184C159.346 265.338 158.606 263.496 157.896 261.701C156.743 258.786 155.081 256.004 154.175 253C153.666 251.314 153.199 249.467 152.476 247.876C152.233 247.341 152.116 247.498 151.487 247.382C150.604 247.218 149.58 246.977 148.682 246.977C148.218 246.977 147.573 247.091 147.145 246.896C146.876 246.774 146.9 246.914 147.082 247.085C147.799 247.757 148.207 248.683 148.673 249.53C150.784 253.36 152.517 257.366 154.336 261.341C155.535 263.961 155.959 266.611 156.673 269.368C157.069 270.892 156.925 272.498 156.925 274.06C156.925 274.169 156.788 273.868 156.682 273.845C156.31 273.762 155.847 273.836 155.469 273.836C154.994 273.836 153.558 274.147 153.527 273.512C153.442 271.721 152.341 269.949 151.748 268.299C150.685 265.343 149.628 262.393 148.386 259.508C147.263 256.901 146.229 254.306 145.204 251.669C144.802 250.637 144.274 249.578 143.972 248.523C143.856 248.118 143.388 246.842 143.011 246.654" stroke="#C6C6C8" stroke-width="4" stroke-linecap="round"/>
<path d="M149.806 275.129C149.806 273.294 149.797 271.47 149.464 269.655C149.026 267.27 148.05 264.995 147.379 262.671C146.44 259.423 145.413 256.197 143.972 253.134C143.319 251.747 142.811 250.243 142.075 248.918C141.755 248.341 141.541 247.686 141.401 247.057C141.277 246.498 138.869 246.815 138.318 246.815C137.768 246.815 138.423 247.126 138.561 247.309C139.243 248.218 139.501 249.57 139.936 250.608C141.072 253.321 142.053 255.976 142.884 258.788C143.659 261.41 143.798 263.973 144.233 266.644C144.546 268.571 144.952 270.668 144.952 272.622C144.952 273.15 145.114 273.628 145.114 274.159C145.114 274.668 145.277 274.644 144.664 274.644C143.581 274.644 143.334 274.63 143.334 273.511C143.334 272.526 142.899 271.519 142.687 270.563C142.296 268.808 142.061 267.024 141.716 265.26C140.65 259.812 139.169 254.553 137.473 249.278C137.342 248.87 137.185 248.756 136.772 248.756C135.906 248.756 135.384 248.41 134.606 248.118C133.884 247.847 132.905 247.387 132.17 247.3C132.053 247.286 131.571 247.138 131.927 247.138C132.238 247.138 133.058 246.778 132.853 247.013C132.508 247.407 132.641 248.04 132.664 248.55C132.765 250.82 133.348 253.007 133.707 255.237C134.269 258.738 135.134 262.178 135.531 265.709C135.66 266.849 135.911 268.01 136.143 269.134C136.303 269.91 136.354 270.828 136.619 271.57C136.724 271.864 136.845 272.396 136.862 272.702C136.892 273.253 137.118 273.059 137.509 273.224C137.738 273.32 139.579 274.006 139.603 273.898C139.707 273.433 139.319 272.617 139.253 272.145C138.954 270.025 138.304 267.982 137.958 265.871C137.15 260.931 136.092 256.014 135.567 251.03C135.538 250.748 135.362 249.08 134.92 249.08C134.677 249.08 134.577 249.869 134.507 250.051C133.092 253.687 132.655 257.651 132.655 261.538C132.655 263.945 132.985 266.671 132.574 269.053C132.356 270.316 132.783 272.032 132.206 273.188C131.391 274.816 131.4 271.613 131.361 271.165C131.105 268.284 130.39 265.459 130.39 262.545C130.39 259.637 130.784 256.97 131.28 254.105C131.667 251.867 131.522 249.566 131.522 247.3" stroke="#C6C6C8" stroke-width="4" stroke-linecap="round"/>
<path d="M241.24 244.74V262.54H249.84V244.74" stroke="#171717" stroke-width="2" stroke-linecap="round" stroke-linejoin="round"/>
<line x1="157" y1="244" x2="157" y2="276" stroke="#171717" stroke-width="2"/>
<path d="M131.602 244H281.398C282.279 244 283 244.72 283 245.6V274.4C283 275.28 282.279 276 281.398 276H131.602C130.721 276 130 275.28 130 274.4V245.6C130 244.72 130.721 244 131.602 244Z" stroke="#171717" stroke-width="2"/>
<path d="M156.049 274.828C156.049 273.494 156.06 272.255 155.799 270.951C155.696 270.434 155.37 269.958 155.305 269.433C155.239 268.906 155.298 268.336 155.298 267.805C155.298 265.237 155.824 262.79 156.272 260.266C156.824 257.162 157.302 253.993 157.302 250.834C157.302 248.878 157.177 246.956 157.177 245.008" stroke="#171717" stroke-width="2" stroke-linecap="round"/>
<path d="M239.3 245.497C239.3 248.18 239.295 250.788 239.675 253.448C240.013 255.811 240.763 258.051 240.815 260.441C240.832 261.243 240.966 262.067 241.054 262.863C241.144 263.664 241.633 263.445 242.33 263.445C244.039 263.445 245.749 263.445 247.458 263.445C248.018 263.445 249.07 263.484 249.53 263.07C249.879 262.756 249.764 262.582 249.964 262.222C250.737 260.829 250.393 258.835 250.262 257.327C250.057 254.973 250.139 252.591 250.139 250.224C250.139 249.303 250.464 248.396 250.488 247.478C250.505 246.858 250.488 246.234 250.488 245.614" stroke="#171717" stroke-width="2" stroke-linecap="round"/>
<path d="M131.183 275.575C131.183 274.058 130.882 272.595 130.84 271.109C130.788 269.307 130.623 267.467 130.238 265.698C129.536 262.466 129.981 258.777 129.981 255.476C129.981 252.442 129.981 249.407 129.981 246.372C129.981 245.042 131.045 245.065 132.138 244.568C133.921 243.757 136.361 244.139 138.265 244.139C139.672 244.139 140.959 244.308 142.349 244.482C143.883 244.674 145.466 244.638 146.988 244.864C149.234 245.197 151.502 245.341 153.773 245.341C154.887 245.341 156.443 245.586 157.466 245.131C158.235 244.789 159.464 244.654 160.311 244.654C161.995 244.654 163.756 244.139 165.455 244.139C167.153 244.139 168.814 243.967 170.484 243.967C172.068 243.967 173.653 243.967 175.237 243.967C175.762 243.967 179 244 179 244" stroke="#171717" stroke-width="2" stroke-linecap="round"/>
<path d="M179 244C180.489 244 182.776 244.311 184.265 244.311C186.246 244.311 187.991 243.939 189.933 243.662C192.01 243.365 194.047 243.108 196.156 243.108C198.108 243.108 199.935 243.288 201.863 243.442C205.058 243.698 208.373 243.452 211.578 243.452C213.712 243.452 215.798 243.938 217.935 243.967C220.291 243.999 222.732 244.612 225.073 244.912C229.149 245.434 233.264 244.863 237.27 244.311C240.427 243.875 243.646 243.16 246.833 243.108C249.783 243.06 253.184 242.392 256.071 243.194C258.38 243.836 261.065 243.624 263.458 243.624" stroke="#171717" stroke-width="2" stroke-linecap="round"/>
<path d="M263.458 243.451C267.468 243.451 271.477 243.107 275.483 243.107C276.342 243.107 277.201 243.107 278.06 243.107C278.648 243.107 279.14 243.53 279.701 243.632C281.772 244.009 282.139 245.829 282.183 247.784C282.234 250.072 282.183 252.366 282.183 254.655C282.183 257.44 282.698 260.175 282.698 262.949C282.698 264.258 282.507 265.733 282.736 267.024C282.911 268.007 283.042 269.074 283.042 270.068C283.042 271.639 283.355 272.916 282.87 274.372" stroke="#171717" stroke-width="2" stroke-linecap="round"/>
<path d="M131.87 274.889C131.943 275.469 142.59 275.039 143.933 275.06C147.23 275.113 150.076 276.958 153.21 277.599C156.116 278.193 159.361 277.294 162.276 277.294C167.169 277.294 172.062 277.294 176.954 277.294C179.563 277.294 182.172 277.294 184.78 277.294C186.942 277.294 189.079 276.95 191.222 276.95C192.779 276.95 194.339 276.68 195.87 276.435C197.431 276.185 199.137 275.576 200.699 275.576C201.587 275.576 202.912 275.638 203.743 275.318C204.36 275.081 205.8 275.709 206.435 275.843C208.381 276.255 209.581 276.925 211.512 276.502C212.998 276.175 217.015 276.001 218.5 276.001" stroke="#171717" stroke-width="2" stroke-linecap="round"/>
<path d="M217.5 276C229.461 276 241.103 276.725 253.065 276.725C256.698 276.725 260.299 276.367 263.947 276.367C267.707 276.367 271.467 276.367 275.227 276.367C277.731 276.367 280.051 276.188 282.568 276.188" stroke="#171717" stroke-width="2" stroke-linecap="round"/>
<path d="M166.108 242.113C166.108 239.86 166.21 237.626 165.721 235.429C165.604 234.899 165.314 234.53 165.167 234.017C164.778 232.657 165.127 233.586 165.774 234.247C167.045 235.547 168.157 236.905 169.309 238.305C170.232 239.428 170.938 240.704 171.851 241.82C172.667 242.818 172.425 242.244 171.914 241.402C170.502 239.072 169.639 236.292 168.556 233.787C167.157 230.55 165.922 227.131 164.895 223.756C164.639 222.914 164.226 221.904 164.226 221.025C164.226 220.936 164.074 220.3 164.226 220.565C164.677 221.356 165.358 221.943 165.962 222.615C170.227 227.36 173.981 232.587 177.227 238.065C178.279 239.839 181.479 245.132 180.501 243.316C179.236 240.965 178.556 238.344 177.782 235.805C176.416 231.328 174.827 226.97 173.284 222.553C171.533 217.539 169.573 212.601 168.033 207.511C167.327 205.179 166.322 202.873 165.732 200.513C165.441 199.349 165.528 200.283 165.836 200.9C167.812 204.852 170.264 208.516 172.426 212.365C174.174 215.477 175.936 218.669 177.405 221.925C178.576 224.52 179.55 227.141 180.606 229.78C181.93 233.089 182.839 236.863 184.748 239.895C185.065 240.399 185.552 240.878 185.836 241.36C186.715 242.854 185.961 241.181 185.574 240.491C182.984 235.874 180.793 231.209 178.922 226.235C176.942 220.973 174.345 216.067 172.175 210.9C170.675 207.328 169.285 203.753 168.179 200.043C167.529 197.859 167.367 195.719 167.008 193.495C166.933 193.027 166.673 192.114 166.673 192.114C166.673 192.114 166.923 192.907 167.092 193.286C168.841 197.222 171.276 200.914 173.263 204.739C176.842 211.628 181.204 218.048 184.225 225.209C185.035 227.129 185.955 228.965 186.819 230.858C188.019 233.485 189.787 235.802 191.129 238.337C191.729 239.471 192.355 240.591 192.928 241.736C192.974 241.828 193.235 242.318 193.022 241.998C192.135 240.667 191.326 239.361 190.585 237.929C187.511 231.99 185.278 225.628 182.677 219.477C180.262 213.767 177.991 207.982 175.732 202.208C174.327 198.619 173.163 194.826 171.391 191.392C170.689 190.033 170.128 188.559 169.686 187.093C169.203 185.493 168.485 183.715 167.615 182.282C166.815 180.965 167.31 181.948 167.824 182.836C168.862 184.63 170.111 186.273 171.108 188.097C173.941 193.281 176.74 198.544 179.246 203.892C181.612 208.941 183.424 214.234 185.689 219.331C187.51 223.426 189.352 227.454 191.338 231.475C192.89 234.619 194.975 237.57 196.421 240.753C196.546 241.026 196.703 241.448 196.986 241.59C197.335 241.764 196.284 240.305 196.191 240.146C193.177 234.992 191.461 229.073 188.901 223.682C186.534 218.7 184.697 213.422 182.782 208.254C181.232 204.073 180.092 200.028 179.288 195.649C178.522 191.478 176.996 187.54 175.627 183.558C175.187 182.277 174.583 181.019 174.215 179.729C174.143 179.476 174.293 180.259 174.414 180.493C175.396 182.388 176.473 184.187 177.593 186.005C180.571 190.836 182.934 196.083 185.648 201.068C188.341 206.015 190.977 211.137 193.21 216.308C195.096 220.675 196.508 225.183 198.105 229.655C199.063 232.335 200.127 234.791 201.317 237.364C202.146 239.156 203.149 240.833 203.764 242.678" stroke="#FFD424" stroke-width="4" stroke-linecap="round"/>
<path d="M206.588 242.678C206.588 237.159 205.061 232.033 203.199 226.862C199.968 217.886 196.508 208.871 194.727 199.467C193.659 193.833 191.833 188.365 190.815 182.763C190.667 181.953 190.682 179.476 190.773 180.294C190.882 181.279 191.588 182.377 191.923 183.307C192.769 185.652 193.74 187.986 194.685 190.294C196.469 194.655 197.926 199.147 199.716 203.505C201.183 207.078 202.683 210.786 203.942 214.436C206.142 220.817 208.198 227.229 210.071 233.713C210.468 235.085 210.748 236.771 211.484 238.013C211.779 238.512 212.356 239.452 212.425 240.042C212.469 240.412 213.039 240.999 213.22 241.36C213.343 241.607 213.552 242.116 213.356 241.527C212.828 239.945 212.253 238.437 211.86 236.799C209.903 228.644 209.439 220.165 206.777 212.176C205.397 208.038 203.652 204.053 202.478 199.844C201.574 196.606 200.899 193.269 199.904 190.064C199.127 187.559 198.377 184.496 198.304 181.863C198.291 181.397 198.304 180.928 198.304 180.462C198.304 180.055 198.352 180.58 198.534 180.775C200.759 183.166 201.961 185.985 203.053 189.018C204.554 193.187 205.393 197.585 206.4 201.894C207.353 205.969 208.606 209.966 209.789 213.975C212.024 221.549 214.085 229.171 216.285 236.747C216.675 238.091 217.177 239.357 217.655 240.648C217.757 240.924 218.616 242.476 218.303 241.506C216.987 237.424 217.283 233.1 216.525 228.933C215.699 224.39 214.555 219.983 213.555 215.482C211.777 207.481 209.608 199.599 208 191.56C207.495 189.031 207.16 186.48 206.693 183.945C206.587 183.37 206.616 180.944 206.118 180.545C206.058 180.497 207.266 182.774 207.53 183.223C209.479 186.543 210.548 189.795 211.484 193.537C212.619 198.079 213.567 202.654 214.914 207.135C215.706 209.769 216.667 212.348 217.404 215.001C218.14 217.649 218.624 220.359 219.349 223.013C220.419 226.926 221.403 230.944 222.121 234.937C222.492 236.998 222.925 239.183 223.617 241.161C223.673 241.32 223.82 242.406 224.056 242.406C224.156 242.406 224.06 242.047 224.056 242.029C223.909 241.348 223.921 240.685 223.9 239.989C223.74 234.721 223.439 229.435 222.404 224.258C220.556 215.021 218.503 205.806 216.525 196.591C215.478 191.712 214.408 186.849 212.467 182.24C212.297 181.837 212.048 181.269 212.048 180.849C212.048 180.796 212.167 181.229 212.174 181.246C212.475 181.985 212.88 182.712 213.262 183.411C214.298 185.312 215.473 187.148 216.368 189.123C218.445 193.704 219.727 198.722 220.898 203.599C222.086 208.551 223.357 213.463 224.287 218.473C225.217 223.485 225.946 228.741 227.529 233.598C228.267 235.861 229.036 238.119 229.789 240.377C229.821 240.475 230.123 240.925 230.123 240.858C230.123 239.679 230.123 238.501 230.123 237.322C230.123 234.154 230.224 230.967 230.019 227.804C229.782 224.153 229.008 220.546 228.282 216.967C227.079 211.033 225.716 205.063 224.757 199.091C224.199 195.614 223.358 192.166 222.969 188.662C222.686 186.115 221.49 184.014 220.427 181.769C220.079 181.035 219.786 180.251 219.433 181.529C219.195 182.392 219.391 183.539 219.391 184.426C219.391 186.201 219.306 188 219.433 189.771C219.705 193.548 221.148 197.547 222.362 201.11C223.635 204.846 225.41 208.391 226.546 212.176" stroke="#FFD424" stroke-width="4" stroke-linecap="round"/>
<path d="M180.794 180.921C180.967 182.825 182.301 185.111 183.095 186.8C184.918 190.674 186.511 194.629 188.252 198.536C191.432 205.674 195.111 212.577 198.304 219.707C199.322 221.98 200.423 224.161 201.316 226.485C201.693 227.464 202.344 228.721 202.436 229.78C202.578 231.417 202.289 229.767 202.028 228.996C200.266 223.788 198.179 218.767 196.034 213.703C193.809 208.45 191.717 203.144 189.455 197.909C188.824 196.448 188.602 194.907 188.325 193.348C187.975 191.374 187.495 189.407 187.101 187.438C186.611 184.985 185.523 182.872 184.748 180.545" stroke="#FFD424" stroke-width="4" stroke-linecap="round"/>
<path d="M269.285 241.924C269.285 240.874 268.829 239.816 268.532 238.828C267.047 233.876 265.408 228.973 263.867 224.038C262.612 220.015 261.403 215.944 260.436 211.841C259.812 209.192 259.501 206.51 258.731 203.892C258.147 201.903 257.488 200.015 257.141 197.961C256.808 195.986 256.49 193.733 255.687 191.884C254.757 189.741 253.982 187.529 253.428 185.252C253.239 184.474 253.138 183.44 252.811 182.721C252.752 182.592 252.704 181.944 252.717 182.281C252.786 184.144 254.173 186.089 254.893 187.742C256.386 191.174 257.807 194.634 259.202 198.107C260.3 200.842 261.514 203.498 262.319 206.339C263.206 209.469 263.614 212.785 264.202 215.984C264.994 220.295 266.411 224.521 268.062 228.556C268.21 228.918 269.363 231.767 268.909 230.356C266.848 223.945 265.721 217.302 264.432 210.712C263.576 206.336 263.291 201.789 262.131 197.48C261.403 194.776 261.231 191.967 260.342 189.3C259.762 187.56 259.714 185.687 259.118 183.976C258.931 183.436 258.854 182.869 258.648 182.334C258.497 181.941 258.676 181.48 258.512 181.11C256.628 176.872 262.542 189.524 263.731 194.007C264.546 197.078 265.703 200.044 266.273 203.181C266.759 205.851 267.312 208.515 267.737 211.193C267.85 211.9 267.94 212.61 268.114 213.306C268.126 213.355 268.424 214.298 268.522 213.954C268.914 212.583 268.532 210.557 268.532 209.153C268.532 203.587 268.619 198.014 268.532 192.449C268.499 190.304 267.697 188.077 267.12 186.026C266.813 184.934 266.644 183.552 265.802 182.71C265.201 182.109 264.575 181.582 263.867 181.11C263.114 180.608 262.835 180.085 262.277 179.457C262.145 179.308 262.846 179.573 262.926 179.604C263.742 179.919 264.599 179.987 265.426 180.263C265.762 180.375 267.853 180.85 267.957 181.215C268.279 182.342 268.126 183.709 268.302 184.876C268.466 185.963 268.369 187.201 268.156 188.265" stroke="#FFD424" stroke-width="4" stroke-linecap="round"/>
<path d="M251.022 180.168C249.366 180.168 247.71 180.168 246.054 180.168C245.387 180.168 245.826 180.404 246.137 180.754C247.476 182.26 248.083 184.409 248.951 186.193C250.947 190.299 252.77 194.805 254.024 199.195C255.51 204.397 257.375 209.584 258.511 214.875C259.332 218.693 259.749 222.671 261.011 226.381C262.159 229.75 263.134 233.176 264.202 236.569C264.498 237.511 264.586 238.55 265.049 239.383C265.706 240.565 263.701 239.962 262.884 240.083C261.774 240.248 260.701 240.606 259.589 240.606C259.11 240.606 259.034 239.78 258.919 239.435C258.19 237.246 257.676 234.952 257.193 232.699C255.519 224.885 255.257 216.776 253.24 209.017C252.219 205.092 251.885 200.96 250.646 197.103C249.656 194.025 248.655 190.953 247.633 187.888C246.838 185.504 246.009 182.973 244.244 181.11C243.747 180.585 243.443 179.792 242.633 179.792C241.899 179.792 239.408 179.063 238.826 179.645C238.723 179.748 239.024 179.866 239.066 179.917C239.349 180.262 239.529 180.796 239.725 181.194C240.801 183.374 241.769 185.631 242.644 187.898C244.432 192.535 245.908 197.177 247.215 201.967C249.765 211.32 251.437 220.952 253.616 230.397C254.249 233.14 255.031 236.113 255.342 238.912C255.424 239.652 255.934 240.606 254.934 240.606C254.09 240.606 248.386 241.139 248.386 240C248.386 236.526 248.074 233.121 247.549 229.686C246.785 224.683 246.271 219.651 245.374 214.666C244.669 210.751 243.635 206.974 242.633 203.128C242.009 200.733 241.268 198.378 240.667 195.974C240.157 193.937 239.971 191.826 239.537 189.771C239.032 187.381 238.325 185.038 237.842 182.627C237.694 181.884 237.664 181.196 237.319 180.545C237.023 179.985 234.202 180.733 233.627 180.733C233.368 180.733 231.525 180.831 232.006 181.152C232.866 181.725 233.416 183.477 233.889 184.352C234.997 186.405 236.005 188.509 236.995 190.618C238.802 194.467 239.609 199.066 240.332 203.222C242.148 213.664 243.475 224.179 245.374 234.623C245.716 236.504 245.906 238.715 246.598 240.512C247.219 242.127 245.459 241.257 244.579 241.129C243.866 241.026 241.232 241.054 241.232 240.136C241.232 236.647 240.769 233.164 240.52 229.686C240.384 227.779 240.404 225.855 240.248 223.954C240.016 221.115 239.168 218.425 238.606 215.649C238.023 212.769 237.474 209.887 236.891 207.009C236.175 203.474 235.783 199.888 235.018 196.361C234.218 192.672 233.686 188.954 232.947 185.262C232.769 184.374 232.557 183.613 232.152 182.804C231.868 182.236 231.654 181.318 231.159 180.922C230.662 180.525 229.978 180.922 229.37 180.922C228.24 180.922 228.373 181.594 228.711 182.532C230.132 186.479 230.61 190.527 231.399 194.624C232.433 199.99 232.947 205.673 232.947 211.13C232.947 214.755 233.438 218.295 234.265 221.82C235.003 224.967 236.06 228.048 236.807 231.203C237.317 233.356 237.605 235.901 237.654 238.117C237.673 238.97 238.031 239.707 238.031 240.512C238.031 241.69 238.591 242.434 237.236 241.548C236.431 241.022 236.073 240.807 235.677 239.937C234.6 237.568 234.872 234.294 234.684 231.757C234.005 222.596 232.21 213.759 230.269 204.791C229.777 202.518 228.942 200.342 228.47 198.055C228.074 196.135 227.805 194.095 227.686 192.135C227.54 189.731 227.675 187.284 227.675 184.875C227.675 184.014 227.649 183.297 227.477 182.522C227.311 181.776 225.069 181.308 224.475 181.11" stroke="#FFD424" stroke-width="4" stroke-linecap="round"/>
<path d="M164.04 178.34H268.84C269.72 178.34 270.44 179.06 270.44 179.94V241.54C270.44 242.42 269.72 243.14 268.84 243.14H164.04C163.16 243.14 162.44 242.42 162.44 241.54V179.94C162.44 179.06 163.16 178.34 164.04 178.34Z" stroke="#171717" stroke-width="2"/>
<path d="M174.04 178.34V194.34C174.04 195.22 174.76 195.94 175.64 195.94H182.84C183.72 195.94 184.44 195.22 184.44 194.34V178.34" stroke="#171717" stroke-width="2"/>
<line x1="234" y1="179" x2="234" y2="243" stroke="#171717" stroke-width="2"/>
<path d="M162.569 243.518C162.506 241.316 162.398 239.634 161.855 237.536C161.328 235.499 161.726 232.98 161.666 230.871C161.635 229.807 161.787 228.783 161.757 227.71C161.729 226.737 162.038 225.831 162.039 224.885C162.041 222.016 162.238 219.17 162.156 216.28C162.108 214.605 162.351 212.726 162.591 211.067C162.805 209.587 162.921 207.988 163.237 206.551C163.564 205.062 163.233 203.232 163.19 201.714C163.145 200.14 163.165 198.609 163.228 197.045C163.367 193.596 163.948 190.178 163.849 186.715C163.784 184.435 163.54 182.197 163.475 179.935" stroke="#171717" stroke-width="2" stroke-linecap="round"/>
<path d="M164.018 179.788C167.095 179.788 170.172 179.788 173.249 179.788C176.335 179.788 179.538 179.898 182.571 179.336C184.949 178.896 187.36 178.558 189.721 178.019C192.322 177.424 195.659 178.362 198.228 178.743C202.678 179.402 207.037 179.426 211.523 179.426C215.21 179.426 218.906 179.507 222.574 179.235C229.091 178.753 235.659 178.883 242.214 178.883" stroke="#171717" stroke-width="2" stroke-linecap="round"/>
<path d="M242.033 179.064C246.648 179.064 251.325 179.331 255.891 178.702C257.299 178.507 258.702 178.004 260.134 177.978C261.457 177.953 262.783 177.978 264.106 177.978C265.758 177.978 267.363 178.1 268.732 179.164C269.149 179.488 269.508 179.75 269.999 179.969C270.606 180.238 270.796 181.272 270.995 181.819C271.591 183.46 271.176 185.836 271.176 187.571C271.176 189.742 270.869 191.974 270.412 194.088C270.105 195.504 270.363 197.023 270.05 198.432C269.581 200.538 269.366 202.602 269.366 204.757C269.366 205.354 269.708 206.686 269.999 207.211C270.542 208.188 270.452 210.189 270.452 211.283C270.452 213.699 270.271 216.13 270.271 218.524C270.271 221.576 270.172 224.568 270.673 227.574C270.979 229.41 271.315 231.297 271.357 233.145C271.392 234.71 271.758 236.051 271.136 237.53C270.63 238.731 270.571 241.146 270.995 242.417" stroke="#171717" stroke-width="2" stroke-linecap="round"/>
<path d="M173.525 180.874C173.525 183.778 173.344 186.673 173.344 189.562C173.344 190.394 173.344 191.225 173.344 192.056C173.344 192.92 173.547 193.552 173.696 194.369C173.984 195.956 174.825 196.803 176.521 196.803C178.029 196.803 180.775 197.46 181.67 196.038C182.494 194.73 183.22 193.361 184.023 192.056C184.696 190.964 184.426 189.853 184.576 188.647C184.96 185.579 184.566 182.507 184.566 179.426" stroke="#171717" stroke-width="2" stroke-linecap="round"/>
<path d="M235.611 179.426C235.611 180.86 235.634 182.296 235.611 183.73C235.588 185.188 235.068 186.549 235.068 188.024C235.068 192.368 235.068 196.712 235.068 201.056C235.068 203.158 234.542 205.207 234.334 207.291C234.158 209.055 234.163 210.804 234.163 212.591C234.163 215.297 234.525 217.937 234.525 220.616C234.525 221.688 234.631 222.619 234.485 223.773C234.319 225.081 234.163 226.349 234.163 227.665C234.163 229.522 234.525 231.315 234.525 233.176C234.525 236.201 235.068 245.262 235.068 242.236" stroke="#171717" stroke-width="2" stroke-linecap="round"/>
<path d="M103 227.34C107.12 256.7 126.12 307.82 169.08 277.7" stroke="#171717" stroke-width="2" stroke-linecap="round" stroke-linejoin="round"/>
<path d="M283.001 278V259.8M283.001 278L273.201 265.8M283.001 278C273.361 288.76 266.441 286 261.641 277" stroke="#171717" stroke-width="2" stroke-linecap="round" stroke-linejoin="round"/>
<path d="M103.04 227.22C103.12 228.22 103.08 229.46 103.44 230.42C103.92 231.78 104.32 233.22 104.76 234.58C105.56 237.14 106.24 239.7 107.68 241.98C108.88 243.9 109.68 246.1 110.16 248.34C110.4 249.5 110.72 250.7 111.24 251.78C111.96 253.3 112.12 255.02 112.88 256.54C113.44 257.66 114 258.86 114.68 259.9C115.28 260.86 115.6 262.02 116.28 262.94C117.48 264.46 118.08 266.42 119.2 268.02C120.04 269.22 120.16 270.78 120.88 272.02C121.4 272.86 122.16 273.46 122.88 274.02C123.52 274.54 124.2 275.06 124.72 275.74C125.36 276.54 126.24 279.46 126.16 278.42" stroke="#171717" stroke-width="2" stroke-linecap="round"/>
<path d="M126.16 278.419C126.28 279.019 127.36 279.619 127.84 279.939C128.28 280.299 128.72 280.459 129.2 280.739C129.88 281.179 130.64 281.499 131.32 281.859C131.72 282.099 132.2 282.139 132.64 282.339C133.24 282.579 133.76 283.019 134.4 283.139C136.32 283.499 138.04 284.699 139.96 285.019C142.24 285.379 144.52 286.219 146.84 286.219C149.2 286.219 151.56 285.939 153.92 285.699C154.64 285.619 155.56 285.699 156.2 285.259C156.84 284.859 157.6 284.299 158.36 284.099C159.76 283.699 160.8 282.899 162.12 282.259C162.72 281.979 163.32 281.259 163.8 280.779C164.84 279.779 166.04 279.139 166.8 277.859" stroke="#171717" stroke-width="2" stroke-linecap="round"/>
<path d="M261.406 278.459C261.406 279.39 261.475 279.955 262.175 280.654C262.715 281.194 263.303 281.672 263.845 282.215C264.43 282.799 265.221 283.151 265.858 283.672C266.661 284.33 267.528 284.648 268.516 284.935C269.509 285.223 270.25 285.483 271.285 285.483C272.278 285.483 273.114 284.33 273.943 283.861C274.741 283.411 275.611 283.182 276.382 282.691C276.957 282.325 277.559 282.01 278.09 281.593C279.153 280.758 280.712 279.677 281.322 278.459C281.629 277.843 281.149 277.173 280.809 276.703C280.302 276 279.713 275.262 279.078 274.672C277.93 273.607 277.068 272.442 276.114 271.215C275.596 270.549 274.942 269.409 274.712 268.58C274.545 267.98 274.167 266.564 273.59 266.275" stroke="#171717" stroke-width="2" stroke-linecap="round"/>
<path d="M283.318 277.259C283.318 275.837 283.318 274.414 283.318 272.992C283.318 272.338 283.637 271.83 283.706 271.209C283.773 270.604 283.844 269.977 283.844 269.368C283.844 267.94 284.718 265.548 283.844 264.238" stroke="#171717" stroke-width="2" stroke-linecap="round"/>
</svg>
