<svg width="400" height="444" fill="none" xmlns="http://www.w3.org/2000/svg">
  <path
    d="M224.751 396.04c-7.48-2.2-25.52-1.08-28.2-10.68-4.16-20.44.72-48.56-.6-69.64-6.64 1.64-12.32 2.48-19.4 3.12-5.12 1-15.24-5.88-17.28-1.8-.56 9.2-.6 45.04-.56 54.76 3 .64 6 2.32 9.2 2.8 12.64 2.04 10.76 21.76-2 21.4-9.04-2.28-29.56-1.2-29.48-14.84-2.4-20.36 1.96-50.48.68-71.4-11.44-6.52-19.84-13.92-27.88-23.72-19.12-22.24-25.64-52.52-24.08-81.08-8.8-17.68-9.8-38.56-1.2-59.6 22.12-35.04 16.88-2.08 21-47.68 2.68-4.96-2.2-2.72-5.32-3-17-1-22.4-10.32-14.72-23.48 14.96-16.44 45.96-26.88 67.88-28.2 20.52 1.12 23.96 15.48 9.64 28.84 6.88 3.72 12.04 7.32 19.8 7.6 3-.2 5.12.44 7.2-.16 3.56-1.04 7.32-1.32 10.92-.48 8.36 1.88 18.4 2.44 22.56 8.52 23.8 8.88 44.04 29.44 49.2 54.64-.12 8-6.48 11.92-.88 19.68 5.96-.6 10.24 0 13.72 2.32 4.32 2.88 6.56 8.04 6 13.2-1.28 12.16.12 46.92-.4 48.4 13.72 3.24 8.88 21.04 9.6 31.52 1.56 18.6-4 27.12-22.68 29.76-10 .8-11.88-8.08-19.12-8-6.72 10.4-20.12 21.96-34.4 26.92-2.28 1.16-6.32 1.56-6.44 4.32 1.96 7.48.52 17.52.08 25.12.08 8.4-.16 27.84-.08 36.52 3.08.6 5.96 2.24 9.2 2.88 12.64 2.04 10.8 21.76-1.96 21.44Z"
    fill="#fff"
  />
  <path
    d="M114.426 116.584V97.033c0-1.305.986 2.218 1.123 2.53 3.243 7.343 4.929 14.887 6.273 22.755.468 2.741.149-.368.149-1.497V99.159c0-2.265-.113-4.564 0-6.827.043-.85 1.634 1.51 1.677 1.587 1.383 2.49 1.976 5.754 1.976 8.593 0 2.022-.851 3.836-1.377 5.749-.564 2.049-.928 3.99-.928 6.123v1.482c0-2.684-.305-5.414-.404-8.099-.226-6.09.146-12.154.673-18.22.223-2.565.603-5.07 1.018-7.605.072-.438.073-1.375.449-.479 3.234 7.7 4.37 16.123 5.659 24.327.35 2.227.695 4.469.958 6.707.221 1.877.27.788.27-.494 0-9.058-.016-18.011.748-27.037.071-.835.147-1.656.27-2.485.004-.026.11-.762.12-.748 1.206 1.609.739 5.53.748 7.365.031 5.985-.436 12.58 1.198 18.414.335 1.196.419.696.419-.344 0-5.266.602-10.443 1.497-15.63.824-4.775 1.932-9.484 2.934-14.222.286-1.349.331-2.556 1.228-.763 2.214 4.428 2.964 9.535 2.964 14.431 0 3.183.27 6.382.27 9.537 0 3.984.178-7.969.404-11.947.152-2.686.38-5.279.793-7.934.015-.094.237-2.653.689-2.2 1.658 1.657 2.392 4.636 2.964 6.796.962 3.635 1.424 7.222 1.677 10.958.1 1.487.209 2.94.209 4.432 0 1.742.051.174.15-.749.431-4 1.133-7.974 2.006-11.902.174-.784.386-3.533 1.198-3.997 1.723-.985 3.631 11.784 3.653 13.354.002.199-.107 1.955.059.958.401-2.403.542-4.815.689-7.246.031-.517-.332-3.563.659-3.563 2.063 0 3.078 3.7 3.563 5.135.909 2.69 1.227 5.422 1.227 8.249 0 .98.12 1.292-1.033 1.123-3.246-.475-6.017-3.133-8.383-5.195-2.69-2.344-5.441-4.465-8.638-6.078-1.794-.905-3.562-1.606-5.12-2.904-.493-.411-1.347-1.872-1.347-.629 0 6.075 1.616 12.131 1.616 18.204 0 5.272-.808-10.522-.808-15.794 0-2.42.014-4.782.254-7.186.12-1.198.015 1.019.015 1.303"
    stroke="#FFD424"
    stroke-width="4.8"
    stroke-linecap="round"
  />
  <path
    d="M284.349 237.307v7.093c0 1.501.584 2.939.806 4.436.597 4.026-.522 8.413.581 12.383.251.902.422 1.762.748 2.657.155.427.213.668.213 1.138 0 .812-1.188-2.306-1.305-2.585-2.868-6.853-6.034-13.395-9.88-19.749-.723-1.195-1.231-2.478-2.265-3.452-.337-.316.557 1.913.64 2.171.812 2.527 1.148 5.227 1.329 7.864.319 4.67.642 9.46 1.66 14.043.138.621.96 2.289.51 1.839-.324-.324-.554-.682-.889-.985-.254-.228-.429-.543-.594-.842-1.384-2.517-2.096-5.568-3.083-8.255-1.315-3.578-3.499-6.64-5.326-9.951-.458-.83-.664-2.733-1.4-3.322-.792-.633-.746-2.176-1.494-2.775-.352-.282.122.973.202 1.115 1.495 2.658 3.685 4.877 5.883 6.95 2.287 2.158 4.658 4.079 6.488 6.666 1.672 2.366 2.241 5.454 2.526 8.279.12 1.193.341 2.517.7 3.665.094.303.094.347-.166.048a82.383 82.383 0 0 1-2.598-3.12c-3.039-3.858-6.235-7.617-9.05-11.647-2.09-2.993-3.732-6.272-5.491-9.465-.287-.52-.772-1.894-1.483-2.052-.585-.13-1.479.201-2.111.201-.76 0-.129 1.344.012 1.685 1.333 3.229 2.929 6.362 4.317 9.572 1.331 3.078 2.827 6.057 4.175 9.121.447 1.015 1.057 1.882 1.506 2.882.587 1.304-.112.56-1.055-.083-3.004-2.049-6.138-4.616-8.54-7.354-4.055-4.622-5.49-10.08-7.805-15.562-.549-1.299-2.004-2.3-3.155-3.036-.426-.273 1.193 3.306 1.352 3.677 1.683 3.913 2.93 8.009 4.745 11.861 1.49 3.162 3.138 6.248 4.614 9.418.499 1.072.785 2.619 1.506 3.546.121.155.473.715.451.913-.019.17-.418-.087-.427-.094-1.271-1.023-2.315-2.503-3.345-3.749-4.85-5.865-9.581-11.936-13.047-18.74-.754-1.48-2.01-3.688-3.321-4.697-.25-.192-.678-.83-1.008-.83-1.096 0 .946 7.704 1.091 8.208 1.926 6.719 4.732 12.655 8.291 18.633.126.213 1.365 2.375.925 2.076-1.638-1.111-3.064-3.176-4.353-4.65-3.262-3.728-6.03-7.906-8.101-12.406-.99-2.15-1.865-4.404-3.072-6.441-.499-.841-.915-1.59-1.72-2.194-.711-.534-1.599-.766-2.301-1.329-.849-.679-1.516-1.557-2.372-2.229-.27-.212-.689-.95-.665-.095.137 4.847 2.324 9.865 3.82 14.411.984 2.993 1.764 6.217 3.06 9.097.207.461 3.577 6.583 3.961 6.263.345-.287-3.806-8.195-4.08-8.848-1.235-2.948-2.277-6.049-2.277-9.276 0-.719.412-1.222.427-1.898.044-2.016-.848-3.797-1.922-5.467-1.259-1.959-2.669-3.836-5.112-4.081-.338-.033-1.199-.163-1.506.036-.967.626.177 4.763.332 5.515 1.205 5.851 2.219 11.764 4.697 17.234.726 1.604 1.476 3.165 2.325 4.709.122.223.585.752.118.415-.359-.259-.57-.852-.783-1.209-1.266-2.13-2.612-4.203-3.819-6.37-2.847-5.111-5.723-10.071-9.014-14.909a252.385 252.385 0 0 1-3.547-5.385c-.71-1.104.94 2.452 1.412 3.677 2.262 5.875 4.049 11.933 6.037 17.898.526 1.579.634 3.178 1.068 4.816.094.357.247.702.308 1.067.038.227-.855-1.298-.89-1.364-2.419-4.686-4.495-9.282-7.614-13.593-1.7-2.348-3.6-4.608-5.789-6.523-.385-.337-1.644-1.732-2.206-1.732-.111 0 .185.545.19.558.376.922.764 1.824 1.21 2.716a242.412 242.412 0 0 1 5.408 11.505c.879 2.013 1.651 4.086 2.551 6.085.025.057.359.532.059.19-.917-1.048-1.684-2.258-2.349-3.476-3.054-5.6-4.963-11.777-7.816-17.483-.823-1.645-1.715-3.292-3.025-4.602-.855-.855-1.616-1.474-2.348-2.515-.623-.885.395 1.899.439 2.041 1.394 4.531 2.335 9.214 3.285 13.853.745 3.634 1.627 7.157 2.574 10.734.133.501.278.999.427 1.495.103.344.798.984.439.984-.684 0-2.321-2.949-2.586-3.392-2.036-3.409-3.452-7.163-5.385-10.627-.878-1.574-2.013-2.899-3.024-4.365-.951-1.379-1.778-2.89-2.621-4.318a10.887 10.887 0 0 0-1.661-2.182c-.092-.092-.809-.827-.842-.712-.163.569.014 1.466.083 2.017.27 2.15.825 4.268 1.293 6.381 1.025 4.631 1.595 9.64 4.815 13.344.861.989 2.033 2.668 3.404 2.668"
    stroke="#A1A1A1"
    stroke-width="4.8"
    stroke-linecap="round"
  />
  <path
    d="M262.27 237.254v7.073c0 1.496.627 2.93.866 4.423.64 4.014-.561 8.388.623 12.346.27.9.454 1.758.803 2.649.167.426.229.666.229 1.136 0 .809-1.275-2.3-1.401-2.578-3.08-6.833-6.478-13.356-10.607-19.691-.777-1.191-1.322-2.471-2.432-3.442-.362-.315.598 1.907.687 2.165.872 2.519 1.233 5.211 1.426 7.84.343 4.657.69 9.433 1.783 14.003.148.619 1.031 2.281.548 1.833-.348-.324-.595-.681-.955-.982-.272-.227-.461-.542-.637-.839-1.486-2.51-2.251-5.553-3.311-8.232-1.411-3.567-3.756-6.62-5.717-9.922-.492-.827-.713-2.724-1.503-3.311-.851-.632-.801-2.171-1.605-2.768-.378-.281.131.971.217 1.112 1.605 2.651 3.957 4.863 6.316 6.93 2.455 2.152 5.002 4.066 6.966 6.647 1.795 2.358 2.405 5.437 2.712 8.254.129 1.189.366 2.509.751 3.655.102.302.101.345-.178.047a85.25 85.25 0 0 1-2.789-3.11c-3.262-3.848-6.694-7.596-9.716-11.614-2.244-2.984-4.007-6.254-5.896-9.437-.307-.519-.828-1.888-1.592-2.046-.627-.13-1.587.201-2.266.201-.816 0-.138 1.34.013 1.679 1.431 3.22 3.145 6.344 4.635 9.544 1.429 3.069 3.035 6.04 4.482 9.095.48 1.012 1.134 1.877 1.617 2.873.63 1.301-.12.559-1.133-.082-3.224-2.043-6.59-4.603-9.168-7.333-4.354-4.608-5.895-10.05-8.379-15.516-.59-1.296-2.153-2.293-3.388-3.027-.458-.273 1.281 3.296 1.452 3.666 1.807 3.902 3.145 7.985 5.094 11.826 1.599 3.153 3.369 6.23 4.953 9.39.536 1.07.844 2.612 1.617 3.536.13.155.508.713.484.911-.02.169-.448-.087-.458-.095-1.365-1.02-2.486-2.495-3.591-3.737-5.207-5.848-10.286-11.901-14.008-18.685-.809-1.476-2.157-3.678-3.565-4.684-.268-.191-.728-.827-1.083-.827-1.176 0 1.017 7.681 1.172 8.183 2.068 6.7 5.08 12.618 8.901 18.58.136.212 1.466 2.367.993 2.069-1.758-1.108-3.289-3.166-4.673-4.636-3.502-3.717-6.474-7.883-8.697-12.37-1.062-2.143-2.002-4.391-3.298-6.422-.536-.839-.982-1.585-1.847-2.188-.763-.532-1.716-.764-2.47-1.324-.912-.677-1.628-1.553-2.547-2.224-.289-.21-.739-.946-.713-.094.146 4.833 2.495 9.836 4.1 14.369 1.057 2.984 1.894 6.199 3.286 9.071.222.459 3.84 6.563 4.253 6.244.37-.287-4.087-8.171-4.381-8.823-1.326-2.939-2.445-6.031-2.445-9.248 0-.717.443-1.218.459-1.892.047-2.011-.911-3.787-2.063-5.452-1.352-1.952-2.866-3.825-5.489-4.068-.362-.034-1.287-.163-1.617.035-1.038.624.19 4.75.357 5.5 1.293 5.833 2.382 11.729 5.042 17.183.78 1.599 1.585 3.156 2.496 4.695.132.222.628.75.128.414-.386-.258-.612-.849-.841-1.206-1.36-2.124-2.804-4.19-4.1-6.351-3.057-5.096-6.145-10.041-9.678-14.865a246.034 246.034 0 0 1-3.808-5.37c-.762-1.101 1.009 2.445 1.516 3.667 2.429 5.857 4.347 11.898 6.481 17.845.565 1.574.681 3.169 1.147 4.802.101.356.265.7.331 1.064.04.226-.919-1.294-.955-1.36-2.598-4.673-4.826-9.255-8.176-13.553-1.825-2.342-3.864-4.595-6.214-6.504-.413-.336-1.765-1.727-2.368-1.727-.12 0 .198.544.203.556.404.919.82 1.819 1.299 2.708 2.037 3.784 3.985 7.592 5.807 11.472.943 2.007 1.772 4.073 2.738 6.067.027.056.385.53.063.189-.984-1.045-1.808-2.251-2.521-3.465-3.279-5.584-5.329-11.743-8.392-17.432-.883-1.64-1.841-3.283-3.247-4.589-.918-.853-1.735-1.469-2.521-2.507-.669-.883.424 1.893.471 2.034 1.497 4.518 2.507 9.187 3.527 13.813.8 3.623 1.747 7.136 2.764 10.703.142.499.298.996.458 1.49.111.343.857.982.471.982-.734 0-2.492-2.941-2.776-3.383-2.186-3.399-3.706-7.142-5.781-10.596-.943-1.569-2.162-2.89-3.247-4.352-1.021-1.375-1.909-2.882-2.814-4.305a10.989 10.989 0 0 0-1.783-2.176c-.099-.092-.869-.824-.904-.709-.175.567.014 1.461.089 2.01.29 2.144.886 4.256 1.388 6.363 1.1 4.617 1.712 9.612 5.17 13.304.923.987 2.183 2.661 3.654 2.661"
    stroke="#A1A1A1"
    stroke-width="4.8"
    stroke-linecap="round"
  />
  <path
    d="M201.591 263.348c-2.439-2.055-4.655-4.262-6.972-6.411-1.767-1.638-3.724-2.899-5.673-4.349-1.692-1.26-3.517-2.929-4.538-4.649-.643-1.083-1.19-2.555-2.056-3.493-.601-.652-.532-2.221-.851-3.026-.073-.185 1.38.559 1.513.617 1.934.835 3.839 1.731 5.389 3.036 2.733 2.302 2.826 5.134 3.51 8.142.549 2.417.859 4.93 1.926 7.226.207.446.579 1.056-.284.906-1.006-.176-1.898-.784-2.671-1.314-2.209-1.515-4.168-3.312-6.05-5.106-3.814-3.636-7.141-7.672-10.14-11.805-.516-.712-1.757-1.042-2.458-1.633-.609-.512.16.159.355.379 2.127 2.399 4.003 4.976 5.92 7.495 1.717 2.255 3.223 4.647 5.094 6.818 1.276 1.481 2.888 2.764 4.254 4.19 1.061 1.109.855.932-.295-.069-3.355-2.921-6.518-6.085-10.223-8.7-2.956-2.086-6.261-3.783-9.218-5.872-.401-.284-2.584-2.285-1.489-.956 3.95 4.79 5.747 10.588 8.958 15.727.165.263 3.144 5.302 3.522 5.196.128-.036-6.567-10.796-7.043-11.467-2.641-3.719-5.488-7.528-8.84-10.83-.289-.284-2.053-2.249-2.588-2.249-.401 0-.414 2.478-.426 2.638-.248 3.391.353 6.266 2.187 9.306 1.056 1.753 2.281 3.419 3.356 5.156 1.035 1.674-.691-.245-1.135-.716-5.76-6.128-9.078-13.615-14.157-20.117-.078-.099-.78-1.23-.78-.657 0 2.528 1.072 5.013 1.867 7.416 2.225 6.724 4.319 13.587 7.575 20.027.485.957 1.072 1.896-.248.577-3.024-3.021-5.763-6.569-8.083-9.994-2.273-3.353-4.545-7.132-7.824-9.894-.65-.548.338 2.427.355 2.469 2.139 5.493 5.254 10.914 8.26 16.105 1.42 2.451.506.931 2.265 3.228.254.332.461.51.154-.09-1.155-2.255-.235-.372-1.509-2.581-2.701-4.687-5.203-9.52-7.397-14.393-1.199-2.662-2.319-5.238-3.9-7.753-.35-.556-.471-.656-1.088-.886-.687-.258.683 3.749.78 4.021 2.348 6.541 3.53 13.062 4.869 19.768.028.138.463 2.043 0 1.632-.702-.623-1.167-1.509-1.654-2.249-1.058-1.607-2.096-3.209-2.907-4.917-.845-1.778-1.62-3.604-2.766-5.266-.878-1.273-.285-.436.284.388 2.559 3.712 4.738 7.64 7.351 11.308"
    stroke="#A1A1A1"
    stroke-width="4.8"
    stroke-linecap="round"
  />
  <path
    d="M274.091 232.272c-3.817-8.082-8.452-15.743-12.28-23.829-1.608-3.398-2.899-7.023-4.723-10.306-1.448-2.607-3.279-4.907-5.114-7.24-2.056-2.614-4.225-5.238-5.798-8.195-1.766-3.322-.675.134.098 1.946 4.804 11.265 9.083 22.338 16.547 32.156 4.521 5.946 10.175 10.933 14.609 16.919.778 1.051 2.62 3.683.016 1.633-4.939-3.89-9.103-9.098-12.736-14.199-4.846-6.804-9.257-13.96-13.452-21.19-3.877-6.68-8.011-13.269-12.867-19.277a115.73 115.73 0 0 0-3.55-4.172c-1.027-1.156-.148.205.163.709 10.204 16.531 16.096 35.495 26.775 51.714.648.984 3.145 5.031.814 2.671-5.837-5.909-11.135-12.283-15.635-19.31-3.319-5.183-6.274-10.649-8.86-16.243-1.436-3.106-2.652-6.315-4.299-9.317-1.559-2.842-3.274-5.594-4.854-8.427-.566-1.015-.751-2.049-1.237-3.034-2.231-4.516 3.714 9.376 5.342 14.149 3.982 11.677 8.852 22.701 14.006 33.871.969 2.1 1.636 4.414 2.557 6.464.476 1.061.554 3.252 1.466 3.991.476.386 1.212 3.301-.538.742-5.883-8.604-11.221-17.664-16.433-26.698-3.322-5.757-5.104-12.05-7.508-18.205-.822-2.106-1.627-4.201-2.182-6.399-.228-.903-.39-1.614-1.043-2.275-.814-.824-1.538-1.927-2.052-2.969-.102-.206-1.348-2.829-1.107-1.583.433 2.242 1.225 4.42 1.694 6.663a620.419 620.419 0 0 0 5.13 22.575c2.226 8.974 5.039 18.088 8.648 26.615.764 1.805 1.319 3.662 2.036 5.475 2.586 6.548-4.442-13.386-7.215-19.854-3.885-9.06-8.401-17.196-15.342-24.159-2.78-2.789-6.222-5.492-8.208-8.97-1.609-2.819-1.663-6.148-3.372-8.839-1.684-2.654 1.673 2.339 1.971 2.737 1.857 2.484 3.59 5.187 5.668 7.487 1.687 1.867 3.501 3.595 4.821 5.771 7.161 11.814 5.272 26.912 11.433 39.215a21.13 21.13 0 0 0 1.693 2.836c.05.07.661.989.44.989-1.656 0-3.669-3.16-4.479-4.254-3.764-5.092-5.634-11.554-7.736-17.464-3.093-8.7-5.571-17.255-9.853-25.444-1.533-2.932-3.425-5.513-5.114-8.311-.63-1.044-2.085-4.225-2.085-3.002 0 1.933 1.229 4.215 1.776 6.019 1.362 4.495 2.539 9.046 3.794 13.572 2.905 10.469 6.265 20.819 8.893 31.365.34 1.364.621 2.498 1.172 3.694.556 1.204-1.374-2.271-1.954-3.463-4.641-9.548-8.231-19.592-12.589-29.271-3.099-6.883-6.354-13.796-9.951-20.431-1.135-2.094-2.512-4.03-3.567-6.168-.064-.13-.813-1.615-.831-1.55-.139.519.179 1.401.294 1.847.697 2.706 1.516 5.386 2.312 8.064 3.93 13.21 7.053 26.616 10.195 40.038.932 3.98 1.351 8.64 3.03 12.418 1.818 4.091-4.036-8.015-5.538-12.236-2.923-8.219-5.771-16.52-9.69-24.324-1.271-2.531-3.028-4.693-4.414-7.14-1.767-3.122-1.953-6.242-2.996-9.597-.121-.389-.293-1.596-.293-1.188 0 1.691.139 3.349.342 5.03 1.633 13.546 3.823 27.331 6.84 40.632.861 3.8 1.946 7.57 3.078 11.296.272.896 1.14 2.279 1.14 3.232 0 .335-.269-.612-.391-.923-.912-2.333-1.749-4.692-2.573-7.058-2.32-6.654-4.445-13.364-6.661-20.052-1.839-5.549-3.811-11.012-5.815-16.491-.331-.907-.358.457-.358.693 0 4.618.612 9.219 1.238 13.786.899 6.555 1.786 13.081 2.508 19.656.076.689.02 3.77.652 4.09"
    stroke="#FFD424"
    stroke-width="4.8"
    stroke-linecap="round"
  />
  <path
    d="M172.27 182.441c0 5.304 2.698 10.652 4.767 15.403 1.783 4.094 3.759 8.083 5.425 12.23 1.228 3.057 2.29 6.25 3.715 9.222.022.047.792 1.469.822 1.414.162-.302-.076-1.179-.115-1.414-.33-1.98-.723-3.945-1.003-5.934-1.529-10.872-1.149-22.576-4.718-33.058-.909-2.669-3.36-4.534-4.685-7.035-.92-1.739 1.294 3.716 1.841 5.605.515 1.777.757 3.588 1.2 5.359.688 2.753 1.577 5.139 2.746 7.742 1.845 4.11 2.958 8.506 5.983 12 .416.481 3.255 4.063 3.255 2.187 0-6.92-1.166-14.169-2.959-20.844a36.363 36.363 0 0 0-2.959-7.48c-.381-.719-.405-.317-.131.231 1.09 2.181 2.13 4.392 3.221 6.575 3.533 7.064 6.946 14.275 11.392 20.827.357.526 3.567 5.36 3.567 2.811 0-5.112-.63-9.314-2.597-14.104-1.253-3.052-2.939-5.831-3.846-9.008-.495-1.732-1.55-3.001-2.269-4.636-.192-.437-.907-1.669-.756-1.216.613 1.84 2.543 3.684 3.666 5.194 6.932 9.333 13.573 19.106 21.715 27.452 2.038 2.09 4.436 4.136 5.161 7.036.197.789.339 1.63.674 2.367.175.384.527 1.597.444 1.184-.618-3.09-2.449-6.146-3.731-8.976a459.607 459.607 0 0 1-6.444-14.926c-1.361-3.304-2.722-6.658-4.981-9.468-2.19-2.724-5.528-5.011-6.674-8.449-.668-2.005 4.068.195 4.405.476 3.044 2.536 5.048 6.138 7.102 9.452 3.442 5.556 6.957 11.077 9.813 16.965 1.578 3.25 2.621 6.854 4.291 10.027 2.622 4.982-2.468-11.096-4.964-16.142-1.673-3.381-3.443-6.937-5.984-9.765-1.738-1.934-3.556-3.768-5.244-5.753-1.949-2.293-3.581-5.346-3.846-8.4-.013-.142-.158-1.081.18-1.019 2.194.399 4.619 5.276 5.688 6.789 7.661 10.843 13.944 22.415 20.827 33.731 1.875 3.083 3.4 5.789 6 8.252.905.857-.124-2.1-.131-2.12-1.973-5.512-5.26-10.639-8.154-15.699-4.477-7.829-8.878-15.697-13.298-23.556-.359-.637-1.444-1.887-1.529-2.647-.095-.853 1.154 1.273 1.693 1.94a118.93 118.93 0 0 1 6.23 8.466c4.444 6.615 9.342 12.824 14.926 18.526 5.191 5.3 11.076 9.811 16.669 14.663.486.422 3.02 3.306 3.846 3.255.382-.024-2.228-4.591-2.235-4.603-3.532-6.045-6.975-12.048-9.847-18.444-1.93-4.299-3.363-8.768-5.079-13.151-1.346-3.436-3.212-6.672-4.997-9.895-.684-1.235-1.448-2.397-2.203-3.584-.007-.011 2.827 1.74 3.255 2.071 7.597 5.887 13.935 13.183 21.337 19.266 1.892 1.555 4.493 3.735 7.002 4.192 1.034.188-.013-2.203-.098-2.45-1.618-4.677-4.172-9.152-6.658-13.413-2.109-3.617-4.688-7.333-8.104-9.863a15.473 15.473 0 0 1-3.189-3.189c-.262-.358-.433-.467.132-.165 3.55 1.902 6.751 4.637 9.797 7.233 5.474 4.667 11.152 9.344 16.241 14.433 3.835 3.835-5.506-9.368-8.713-13.742-1.911-2.609-3.838-5.194-5.687-7.825-.453-.644-1.749-2.581-1.48-1.841.914 2.512 3.276 4.902 4.603 7.233 1.656 2.908 3.239 5.856 4.192 9.074.308 1.038.655 2.179.723 3.271.074 1.189-3.041.324-3.501.181-5.666-1.768-10.117-8.084-12-13.48-.616-1.763-1.227-4.521-2.811-5.753-.735-.572-.663 1.632-.674 1.874-.2 4.241.925 8.649 2.301 12.624.707 2.042 1.725 3.947 2.482 5.968.49 1.306-.839.769-1.758.542-5.494-1.356-10.356-4.072-15.436-6.46-3.211-1.51-6.517-2.821-9.715-4.356-.128-.062-1.864-.982-1.282-.493 3.615 3.036 7.106 6.244 10.553 9.468 2.554 2.389 4.999 4.932 7.693 7.167.842.698.736.638.099-.329-4.934-7.486-8.754-16.209-15.715-22.126-1.976-1.679-4.208-3.087-6.312-4.602-.837-.603-.911-.781-1.085.263"
    stroke="#FFD424"
    stroke-width="4.8"
    stroke-linecap="round"
  />
  <path
    d="M273.45 234.6c-.141-4.92-2.634-9.868-4.503-14.192-2.247-5.201-5.147-9.974-7.888-14.853-1.142-2.034-2.139-4.174-3.237-6.238-1.124-2.112-2.701-4.056-3.973-6.073-2.552-4.047-4.266-8.735-6.946-12.707-.817-1.211-1.84-2.283-2.59-3.499-.924-1.497.368-.707 1.059.132 4.502 5.463 8.109 11.824 12.244 17.625 4.882 6.849 10.26 13.484 15.716 19.771 1.084 1.248 2.426 2.595 3.297 4.059.498.838.954 1.895 1.265 2.839.467 1.414-.897-2.931-1.059-3.334-1.861-4.63-4.392-8.902-6.24-13.532-1.341-3.361-2.469-6.784-4.164-9.952-2.66-4.97-6.502-8.943-9.154-13.961-.921-1.744-1.926-3.446-2.884-5.165-.544-.977-2.216-2.993-.912-.578 4.125 7.643 9.013 13.942 15.481 19.242 2.486 2.038 4.772 3.9 6.96 6.354.316.354 1.777 2.439 1.34.858-1.201-4.338-2.369-8.803-4.091-12.922-1.441-3.442-3.791-6.141-5.666-9.258-.853-1.419-1.686-2.757-2.369-4.29-.908-2.037 1.852 1.926 2.001 2.145 2.593 3.802 5.194 7.638 8.388 10.842.356.357 2.773 3.014 1.972 1.123-1.333-3.148-2.775-6.241-4.165-9.358-.612-1.372-1.855-2.808-2.266-4.191M195.529 234.177c0-3.995-.868-8.262-1.927-12.098-.818-2.966-.865-6.219-1.832-9.121-.125-.376-.173-1.493-.418-1.764-.125-.14-.752-.16-.97-.297-.752-.474-1.99-1.119-2.425-1.94-.29-.548 1.02.949 1.078 1.011 2.693 2.842 5.119 5.893 7.504 8.999 5.103 6.643 10.247 13.34 14.618 20.492.725 1.186.226-1.295.202-1.442-.895-5.577-2.856-11.286-4.837-16.557-1.631-4.343-3.532-8.815-6.116-12.692-.888-1.332-2.025-2.457-2.91-3.785-5.915-8.872 9.273 19.218 13.311 29.087 1.126 2.754 1.691 1.919 4.311 1.616.68-.078 1.855.205 2.479-.107.907-.454-.875-4.757-1.024-5.255-2.047-6.815-3.645-14.368-7.437-20.478-.278-.449-.935-1.894-.714-1.414 1.37 2.967 3.263 5.787 4.823 8.662 3.583 6.603 7.211 12.983 11.721 18.997.099.131 1.216 2.014.943 1.104-1.44-4.8-3.464-9.406-4.89-14.213-1.637-5.517-2.896-11.107-4.769-16.558-.532-1.545-1.086-3.087-1.752-4.58-.131-.294-.415-1.26-.727-1.455-.574-.359.331 1.316.592 1.94.777 1.853 1.781 3.62 2.776 5.362a203.275 203.275 0 0 0 11.748 18.214 48.427 48.427 0 0 0 5.779 6.656c.611.583 1.394 1.623 2.196 1.967.237.101-.164-.493-.296-.714a55.275 55.275 0 0 1-2.358-4.433c-2.206-4.613-3.579-9.624-5.173-14.469-.379-1.152-1.693-4.487-.984-3.503 3.144 4.362 6.36 8.678 9.269 13.203 2.819 4.385 5.378 8.934 8.165 13.338 1.192 1.884 2.569 3.352 4.311 4.715 1.081.846 1.118.109.808-1.105-1.332-5.227-4.567-10.123-7.248-14.738-2.75-4.735-5.485-9.364-6.548-14.793-.048-.247-.219-.962.256-.701 1.093.601 2.079 1.666 2.964 2.506 2.199 2.087 4.216 4.328 6.171 6.642 3.828 4.533 7.509 9.21 11.478 13.621 1.5 1.666 2.996 3.606 4.743 5.025.25.204.303.343.107-.094-.56-1.25-1.239-2.422-1.94-3.598-2.215-3.718-4.209-7.573-6.466-11.263-.63-1.029-1.476-2.078-1.954-3.193-.066-.153.328.098.458.203a88.3 88.3 0 0 1 4.082 3.502c3.491 3.16 6.942 6.37 10.388 9.579 1.307 1.218 2.602 2.625 4.041 3.692 1.374 1.017-.513-2.934-.323-3.314.145-.292.393.521.62.754.301.31.616.605.916.916.109.114.568.568.296.539-1.953-.206-4.48-2.897-5.335-4.608M184.131 232.723c-.331-.166-.287-.838-.35-1.132-.221-1.039-.616-1.998-1.105-2.937-.043-.082-1.004-1.635-.7-1.725.576-.17 1.786 1.151 2.155 1.429"
    stroke="#FFD424"
    stroke-width="4.8"
    stroke-linecap="round"
  />
  <path
    d="M251.391 144.68c5.2 8.76 9.16 18.2 12.08 27.76m-167.4 30c-3.48 70.16 36.24 99.68 72.92 103.68 31.12 3.36 64.04-13.12 83.8-38.32"
    stroke="#171717"
    stroke-width="2.4"
  />
  <path
    d="M178.711 173.04c1.28-1.68 3.44-3 6.88-3 3.24 0 5.4 1.32 6.72 3M227.551 173.04c1.12-2.16 3.4-4.2 7.64-4.2 4 0 6.28 1.96 7.52 4.2"
    stroke="#171717"
    stroke-width="2.4"
    stroke-linecap="round"
    stroke-linejoin="round"
  />
  <path
    d="M209.071 174.04c0-13.48-10.92-24.4-24.4-24.4-13.48 0-24.4 10.92-24.4 24.4 0 8.84 4.72 16.6 11.76 20.88M209.071 174.04c0-13.48 10.92-24.4 24.4-24.4 12.88 0 23.4 9.96 24.32 22.6M160.071 174.04h-37M147.911 301.84v80l18 3.4M206.751 301.84v80l18 3.4"
    stroke="#171717"
    stroke-width="2.4"
    stroke-linecap="round"
    stroke-linejoin="round"
  />
  <path
    d="M260.831 144.76h-114.2l-49.8 58c-20.4-44.4 4.4-67.88 16-70.6 1.76-30.24 43.4-40.6 64-42 61.6 0 81.68 36.4 84 54.6Z"
    stroke="#171717"
    stroke-width="2.4"
    stroke-linejoin="round"
  />
  <path
    d="M114.711 121.16c-2.2-10.64-1.44-32.24 16.64-40.16 17.28-7.56 34.2 3.72 39.68 9.68"
    stroke="#171717"
    stroke-width="2.4"
    stroke-linecap="round"
    stroke-linejoin="round"
  />
  <path
    d="M129.305 77.079c18.633-6.937 32.364-16.253 30.669-20.808-1.696-4.555-18.176-2.624-36.81 4.313-18.634 6.937-32.365 16.253-30.669 20.808 1.696 4.555 18.176 2.624 36.81-4.313Z"
    stroke="#171717"
    stroke-width="2.4"
  />
  <path
    d="m126.031 68.6 5.36 12.36"
    stroke="#171717"
    stroke-width="2.4"
    stroke-linecap="round"
    stroke-linejoin="round"
  />
  <path
    d="M259.391 143.12c-.16-1.84-1.32-3.72-1.76-5.52-.4-1.6-1.08-3.4-1.8-4.88-1.32-2.76-3.36-5.44-5.32-7.76-1.12-1.32-2.32-2.56-3.52-3.84-1.52-1.64-2.72-3.56-4.2-5.24-1.76-2-3.76-3.72-5.52-5.68-1.2-1.32-2.36-2.68-3.88-3.72-1.16-.76-2.36-1.04-3.52-1.64-.36-.16-.8-.32-1.08-.6-.24-.24.52.36.72.6 2.24 2.24 4.2 4.76 6.2 7.2 3.84 4.72 7.56 9.52 11.4 14.24 2 2.48 3.92 4.6 5.2 7.6.88 2.08 1.64 4.24 2.12 6.44.12.48.96 2.24-.28 1.68-1.68-.76-3-2.6-4.4-3.8-5.72-4.88-10.16-11.4-14.68-17.36-5.04-6.68-9.76-13.76-15.84-19.6-1.96-1.88-4.08-3.6-6.04-5.48-.8-.76-2.16-2.16-3.32-2.2-.76-.04.32 2.48.48 2.92a13.32 13.32 0 0 0 1.92 3.56c3.48 4.8 7.08 9.56 10.52 14.44 2.52 3.6 5.36 7.04 7.68 10.8 1.64 2.64 3.04 5.4 4.88 7.92.96 1.32 1.76 2.64 2.24 4.2.28.88.32 2.48.92 3.2.28.32.28.76.6 1.08 1.12 1.12-1.48-.32-1.72-.44-6.76-4.04-12.16-9.8-16.88-16.08-5.6-7.4-10.68-15.16-16.36-22.48-2.12-2.68-4.44-5-6.24-7.92-.48-.8-1.04-1.56-1.52-2.36-.16-.28-.4-.96-.76-1.12-.16-.08.12 1.12.16 1.24.28.96.76 1.92 1.32 2.76 2.56 3.92 5.36 7.68 7.92 11.56 4.08 6.16 8.08 12.6 10.72 19.52 1.28 3.32 2.16 6.88 4.28 9.8 1.08 1.52 2.36 2.76 3.48 4.2.92 1.12-1.04-.48-1.32-.68-1.48-.92-3-1.84-4.28-3-6.36-5.6-11.48-12.88-16.52-19.68-2.96-4-5.84-8.04-7.96-12.56-1.04-2.24-2-4.56-4-6.16-1.64-1.32-3.4-2.56-5.04-3.88-.4-.32-.76-.64-1.16-.88-.2-.12-.92-.96-1.04-.96-.16 0 .28 1.08.28 1.08.68 2 1.16 4.04 1.8 6.08 1.56 5.08 3.8 9.64 6.52 14.2 1.56 2.56 3.08 5.28 4.88 7.72 1.48 2 2.56 4.32 3.88 6.44 2.36 3.8 5.2 7.08 7.2 11.12.48.96.76 2.04 1.28 2.92.16.24.32.48.44.76.44.84-1.04-1.6-1.56-2.4-4.2-6.68-8.92-13.24-14.08-19.2-3.04-3.52-6.56-6.6-9.72-10-2.92-3.2-4.84-7.08-7.48-10.52-.8-1-1.56-2.24-2.48-3.16-.4-.4-.76-.56-1.04-1.04-.2-.32-1.68-2.28-1.44-2.52M163.831 95.76c.44.72 1.12 1.28 1.72 1.88 1.72 1.72 3.4 3.52 5.12 5.28 3.56 3.68 6.76 7.72 10.32 11.44 2.44 2.56 4.76 5.16 7.04 7.84 1.44 1.68 3.04 3.2 4.36 4.96 1.84 2.44 2.64 4.84 3.48 7.72.48 1.6.48 3.76 1.56 5.12.28.32.96.4 1.36.56 1 .4-.84-.92-.96-1-2.88-2.44-5.4-5.36-8.04-8.08-3.84-3.92-8.2-7.44-12.36-11-1.84-1.6-3.68-3.16-5.44-4.8-1.24-1.16-2.8-1.68-4.08-2.76-1.24-1.08-2.04-2.2-2.96-3.52-1.32-1.84-2.96-3.52-4.52-5.16-.92-.96-1.92-1.8-2.76-2.88-.6-.8-.92-1.76-1.52-2.52-.84-1.04-1.92-2.04-2.64-3.16-.64-1-.44-.52.04.24 1.28 2.08 2.36 4.28 3.6 6.4 2.16 3.64 5.04 6.84 7.96 9.84 3.6 3.72 6.76 7.76 9.72 12 2.36 3.36 4.6 6.8 6.8 10.28.76 1.2 1.72 2.4 2.68 3.48.32.36 2.52 4.68 2.44 4.72-.2.08-.76-.08-.92-.12-2.4-.72-4.52-2.64-6.28-4.36-5.44-5.24-9.92-11.36-14.2-17.56-1.76-2.6-3.72-4.96-6.16-6.92-1.88-1.48-3.88-2.8-5.6-4.44-2.28-2.16-4.4-4.44-7.12-6.04-.88-.52-3.4-2.36-2.52-1.84 1.88 1.08 3.36 3.72 4.72 5.32 4.96 6 10.24 11.68 15.24 17.64 3.24 3.88 6.52 7.72 9.8 11.56 1.28 1.52 2.4 2.96 3.04 4.88.08.24.6 2.04.36 1.96-2.24-.96-4.32-3.08-6.04-4.72-4.04-3.88-7.92-8.04-11.64-12.24-2.72-3.12-5.52-5.88-8.88-8.32-3.12-2.24-6.2-4.36-8.96-7.08-2.12-2.12-4.04-4.36-6.56-5.96-.16-.12-.84-.4-.4-.04 3.8 3 6.4 7.68 9.08 11.64 3.68 5.48 7.04 11.24 10.2 17.04 1.96 3.56 2.2 4.72 3.68 8.52.36.92-1.44-.44-.8.36.2.28 1.84 1.56 1.08.88-9.8-8.92-14.28-14.6-22.6-24.84-1.6-1.96-3.04-4.04-4.84-5.84-.64-.64-1.28-1.24-1.8-1.96-.16-.2-.96-1.28-.84-1.24.92.6 1.64 1.64 2.36 2.44 1.72 2 3.32 4.08 4.8 6.24 3.24 4.68 5.96 9.56 7.92 14.92.8 2.2 1.56 4.4 2.4 6.6.28.76.52 1.16 1.2 1.6M145.351 144.88c0-1.16-.8-2.24-1.36-3.24-1.52-2.6-3.16-5.12-4.96-7.52-1.8-2.4-3.24-5.08-5.08-7.4-2.64-3.32-5.76-6.64-7.68-10.48-.6-1.24-1.08-2.32-2.08-3.32-1.32-1.32-1.24-.28-.64 1.44 1.48 4.2 3.88 8.16 5.88 12.12 1.8 3.52 3.56 7.08 5.64 10.44 2.04 3.32 4.6 6.36 6 10.04.16.4.64 1.16.64 1.6-.04.36-1.88-.72-2-.8-5.28-3.04-8.64-8.4-12.32-13.04-2.12-2.68-4.24-5.36-6.24-8.16-.64-.92-1.44-1.76-2-2.76-.48-.84-1.76-2.28-.72-.24 3.04 5.92 5.88 11.96 9.16 17.76 1.68 2.96 3.72 5.68 4.96 8.92.2.56 1.52 5.16 1.08 5-4.32-1.56-6.88-5.92-9.52-9.4-2.56-3.4-4.92-6.72-8.2-9.4-.8-.68-1.4-1.44-2.08-2.24-.36-.4-.04-.16.24.04.92.64 1.48 1.68 2.08 2.6 4.52 6.52 5.4 14.88 8.44 22.12.44 1.08.92 2.16 1.48 3.2.16.32.92.84.56.84-2.4 0-4.6-3.76-5.76-5.24-3-3.76-4.92-8.16-7.76-11.96-.8-1.04-1.84-2.08-2.88-2.84-.96-.68-1.56-1.48-2.16-2.44-.08-.12-1-1.36-1.2-1.16-.64.8 1.76 4.88 2.04 5.6 2.64 6.6 3.8 13.64 6.36 20.2.6 1.56 1.04 3.32 2.08 4.6 1.12 1.4 1.24 2.08-.28.2-2.56-3.16-4.8-6.6-7-10-1.28-2-2.28-4.12-3.8-6-1.84-2.28-3.16-4.96-5.2-7.08-.04-.08-.52-.84-.44-.44.24 1.6 1.52 3.48 2.04 5 2.28 6.32 4 12.8 6.48 19.04.6 1.48 1.44 2.92 1.96 4.4.4 1.16.64 2.56 1.48 3.52.08.12.36.48.32.48-1.68-.68-3-3.8-3.8-5.2-2.16-3.68-4.16-7.48-6.16-11.24-.64-1.2-1.28-2.4-2.36-3.24-1.6-1.32-2.16-3.88-4.16-4.52-.36-.12-.52-.4-.2.2 1.12 2.28 2.32 4.48 3.28 6.84 2.04 5 3.52 10.24 5.44 15.28.52 1.4 1.12 2.8 1.6 4.2.12.32.4.72.4 1.04 0 .8.24 1.52.48 2.28.08.24.64 1.36.2.92-3.24-3.24-5.28-7.48-7.28-11.56-1.04-2.16-1.68-4.48-3.2-6.36-.92-1.16-2.08-2-3.32-2.68-.6-.32-.16.48-.08.72 1.04 2.08 2.12 4.12 3.12 6.2 2.04 4.28 4.08 8.64 6.24 12.88.88 1.76 4.28 6.44 2.76 5.24-4.36-3.48-7.64-8.24-11.68-12.08-.28-.28-1.64-1.72-.92-.76 2.68 3.6 4.76 7.68 6.76 11.68.24.44 1.64 4.88 2.36 4.88.32 0-.6-.32-.88-.52-.8-.48-1.56-1.08-2.28-1.68-1.04-.88-1.92-2.04-3.04-2.8-.64-.44-1.44-.84-2.04-1.32-.12-.08-.56-.2-.52-.12.72 1 1.48 2.04 2.04 3.16.72 1.36 1.28 2.8 1.96 4.16.32.64.96 1.56.96 2.32 0 .44-1.64.24-1.48.24"
    stroke="#171717"
    stroke-width="6.4"
    stroke-linecap="round"
  />
  <path
    d="M215.111 141.44c-2.96-5.16-6.68-9.84-10.76-13.96M245.471 141.44c-.32-.36-.48-.8-.72-1.24"
    stroke="#171717"
    stroke-width="6.4"
    stroke-linecap="round"
  />
  <path
    d="M246.191 141.44c-2.84-1.68-5.04-4.32-7.6-6.36M167.151 142.68c-2.44-2.56-4.72-5.32-7.84-7.08M176.711 91.28c2.08 1.24 3.64 3.76 5.12 5.64M202.631 92c2.04 2.04 4.48 3.76 6.84 5.4"
    stroke="#171717"
    stroke-width="6.4"
    stroke-linecap="round"
  />
  <path
    d="M138.191 236.04h149.6c.88 0 1.6.72 1.6 1.6v28.8c0 .88-.72 1.6-1.6 1.6h-149.6c-.88 0-1.6-.72-1.6-1.6v-28.8c0-.88.72-1.6 1.6-1.6Z"
    stroke="#171717"
    stroke-width="2.4"
  />
  <path
    d="M138.231 236.04h23.2c.88 0 1.6.72 1.6 1.6v28.8c0 .88-.72 1.6-1.6 1.6h-23.2c-.88 0-1.6-.72-1.6-1.6v-28.8c0-.88.72-1.6 1.6-1.6Z"
    stroke="#171717"
    stroke-width="2.4"
  />
  <path
    d="M257.511 238.04c0 3.76-.08 7.48-.08 11.24 0 1.76.2 3.68-.32 5.36-.16.56-1.08.8-1.64.8-.84 0-1.68.08-2.52.08-.92 0-1.8-.08-2.72-.08-.44 0-.88.04-1.32-.08-.32-.08-.68-.16-1.04-.16-.4 0-1.04-.08-1.4-.24-.28-.12-.28-.44-.28-.72 0-.96-.28-1.96-.28-2.96 0-1.2-.24-2.44-.28-3.68-.04-1.4-.16-2.84-.16-4.24 0-1.12.16-2.28.32-3.36.16-1.04.32-2.12.64-3.12"
    stroke="#171717"
    stroke-width="1.6"
    stroke-linecap="round"
  />
  <path
    d="M163.791 204.04c1.88 2 4.72 4.48 8.4 6.96M109.351 218.44c4.12 29.36 23.12 80.48 66.08 50.36M288.991 269.04v-18.2m0 18.2-9.8-12.2m9.8 12.2c-9.64 10.76-16.56 8-21.36-1M247.591 236.84v17.8h8.6v-17.8"
    stroke="#171717"
    stroke-width="2.4"
    stroke-linecap="round"
    stroke-linejoin="round"
  />
  <path
    d="M253.351 266.72c-6.28 12.76-15.44 20.32-27.52 27.16-3.12 1.76-6.2 2.08-9.24 3.64-2.76 1.4-7 4.36-9.8 4.68-6.4.76-14.6 4.56-20.88 4.96-4.84.28-9.48 2.84-14.48 0-4.76-2.68-14.88-3.52-20.16-3.84-10.64-.6-19.92-10.24-27.76-16.6-3.64-2.96-7.92-13.16-10.24-17.6-2.6-4.96-4.84-9.44-8.56-13.64-9.44-10.72-7.92-25.2-7.92-39.2 0-4.56-.4-9.36 0-13.96m153.12-57.88c1.48 4.24 3 8.44 5.6 11.72 3.04 3.84 4.84 10.2 7.32 14.72.36.68.76 1.36 1.16 2.04M190.191 173.2c-1.36-1.76-1.36-3.96-3.76-4.28-.64-.08-1.24-.12-1.92-.12-.72 0-1.2.52-1.84.72-1.2.4-2.68 1.32-3.44 2.2-.4.48-1.16 1.04-1.68 1.44M239.471 172.68c-.24-.32-.56-.88-.92-1.08-.6-.36-1.24-1.12-2-1.12-1.16 0-2.64-.12-3.68.52-.4.24-.92.32-1.36.56-.28.16-.52.44-.84.6-.8.44-1.56 1.36-2.2 2M178.191 150.96c-1.72 0-3.48.92-5 1.8-1.56.88-2.72 2.04-3.88 3.4-.96 1.12-2.24 2.52-2.92 3.76-.52.92-1.2 1.68-1.68 2.6-.36.68-.36 1.48-.72 2.16-.64 1.24-.72 3.56-1 4.92-.32 1.6-.32 3.28-.32 4.92 0 1.76-.16 3.88.32 5.52.32 1.12.56 3.52 1.24 4.44 1.84 2.4 4.04 4.88 6.16 7.08.4.44.88.84 1.32 1.24m-6.36-32.4c1.04-2.4 2.72-5 3.88-6.2.68-.72 1.08-1.36 1.92-1.76.92-.44 2-.64 2.8-1.32 1.2-1 4.04-1.08 5.56-1.08 1.68 0 3.36.32 5 .32 1.68 0 3.44.92 5.12.92 2.16 0 3.12.64 5 1.6 2.96 1.56 5.68 4.2 8 6.64 1.2 1.24 2.04 2.08 2.88 3.6.68 1.28.88 2.88 1.2 4.32.32 1.48.36 3.04.28 4.56"
    stroke="#171717"
    stroke-width="1.6"
    stroke-linecap="round"
  />
  <path
    d="M211.111 174.04c-.32-1.72-.04-2.84.32-4.72.64-3.4 2.36-6.76 4-9.76.84-1.52 1.36-2.6 2.56-3.8 1-1.04 2.44-1.6 3.72-2.28 3-1.6 6.6-1.76 9.76-2.6 1.48-.4 3.76.4 5.28.76 1.4.32 2.96.2 4.16.92 2.28 1.4 4.6 2.52 6.88 3.88 1.36.84 2.4 2.72 3.28 4 .68.96 1.68 1.52 2.4 2.36.4.44.84 1.64 1.32 1.88.6.28 1.52 4.48 1.52 5.16 0 1.04-.24 2-.32 3M160.911 172.68c-3.24 0-6.56-.36-9.6.76-3.28 1.2-6.4 1.88-9.92 1.88-3 0-5.72-.36-8.84-.36-1.68 0-2.92.48-4.52.04-1.24-.36-3.2-1.12-4.28-.4M147.831 303.12v6.52c0 2.56 1 4.84 1 7.4v7.4c0 2.2-.68 4.2-.68 6.36 0 2.44-.32 5.12-.32 7.64 0 2.32.8 6.32-.08 8.48-1 2.56-1.28 5.72-1.64 8.48-.36 2.76-.68 5.32-.68 8.16 0 3 .92 5.84 1 8.84.04 1.28.08 2.36.32 3.6.12.76-.4 3.08.2 3.56.56.44.04 1.68.84 2.12 1.28.68 3 .88 4.4.96 2.2.12 4.44 1.36 6.6 1.36 1.8 0 3.12 1 4.76 1 1.88 0 .2.12-.44-.4-.92-.72-2.68-1.08-3.8-1.56-4.08-1.76-8.08-1.76-12.56-1.76M207.071 303.12v6.52c0 2.56 1 4.84 1 7.4v7.4c0 2.2-.68 4.2-.68 6.36 0 2.44-.32 5.12-.32 7.64 0 2.32.8 6.32-.08 8.48-1 2.56-1.28 5.72-1.64 8.48-.36 2.76-.64 5.32-.64 8.16 0 3 .92 5.84 1 8.84.04 1.28.08 2.36.32 3.6.12.76-.4 3.08.2 3.56.56.44.04 1.68.84 2.12 1.28.68 3 .88 4.4.96 2.24.12 4.44 1.36 6.6 1.36 1.8 0 3.12 1 4.76 1 1.88 0 .2.12-.44-.4-.92-.72-2.68-1.08-3.8-1.56-4.08-1.76-8.08-1.76-12.56-1.76"
    stroke="#171717"
    stroke-width="1.6"
    stroke-linecap="round"
  />
  <path
    d="M113.111 133.44c-7.6 0-17.32 8.56-18.2 16.44-.28 2.36-2.36 4.04-2.36 6.76 0 2.32-1.76 4.68-1.76 7.04 0 5.08-1.16 9.76-1.16 14.68v6.76c0 2.84 1.08 4.72 1.16 7.48.08 2.16 4.24 11 7.32 8.6 4-3.12 6.68-8.84 8.96-13.16.96-1.8 3.08-4.12 4.84-5.16 1.8-1.04 5.24-3.56 6.32-5.4 2.36-4 5.24-8.04 8.64-11.44 3.76-3.76 6.68-7.72 10.12-11.56 3.56-3.96 4.4-6.32 9.8-7.52 1.96-.44 3.92-1.72 5.88-1.72h8.2c18.72 0 37.52-1.76 56.32-1.76h6.76c2.44 0 4.68 1.04 7.04 1.16 5.72.32 11.56 0 17.32 0 1.68 0 1.4.68 2.44 1.04 1.6.6 2.8-.44 4.32-.44 1.92 0 3.52-.2 3.52-2.36 0-1.48-1.88-4.96-2.8-6-1.56-1.72-2.48-4.84-3.52-6.92-2.08-4.16-2.84-9.48-5.72-13.2-2.4-3.08-6.24-6.64-9.64-8.64-4.04-2.4-8.04-5.64-12.56-6.96-1.88-.52-4.08-2.2-5.88-3.2-1.84-1.04-4.48-3.32-6.44-3.8-1.08-.24-4.2-1.48-5.12-2.24-1.16-.92-6.04-.72-7.48-.72-5.56 0-10.64-1.16-16.08-1.16-6.4 0-12.16 2.12-18.4 2.36-4.68.16-11.2 2.24-14.8 5.28-1.84 1.56-4.04 2-6.16 2.92-3 1.32-4.12 2.36-7.64 2.36-3.48 0-10.4 3.96-12.6 6.76-2.12 2.64-15.96 20.76-11.16 23.16"
    stroke="#171717"
    stroke-width="1.6"
    stroke-linecap="round"
  />
  <path
    d="m88.991 172.52 5.64 6.6c1.92 2.24 4.12 4.16 6.04 6.4 1.28 1.48 2.6 3.52 5.88 6.56M90.551 181.96c1.36 1.6 2.72 3.16 4.04 4.76 1.4 1.64 3.08 2.92 4.44 4.52.92 1.08 1.8 2.6 4.32 4.68M89.471 165.24c3.32 3.88 6.64 7.8 9.96 11.68 3.4 4 7.04 7.6 10.44 11.56M91.791 160.16c3.32 3.88 6.64 7.8 9.96 11.68 3.4 4 7.04 7.6 10.44 11.56M92.751 153.52c3.56 4.16 7.08 8.32 10.64 12.44 3.64 4.28 7.48 8.12 11.12 12.32M96.271 150.84c2.44 2.88 4.92 5.76 7.36 8.6 2.52 2.96 5.28 5.52 7.76 8.44 1.64 1.96 3.44 4.56 7.64 8.6M97.67 143.84c3.321 3.88 7.721 8.88 11.041 12.76 3.4 4 7.04 7.6 10.44 11.56.92 1.08 1.92 2.32 3.12 3.8M101.031 139.84c3.32 3.88 6.64 7.8 9.96 11.68 3.4 4 7.04 7.6 10.44 11.56 2.24 2.64 2 2.36 4.6 5.56M104.471 136.24c3.32 3.88 5.56 7.12 8.88 11 3.4 4 7.04 7.6 10.44 11.56 2.24 2.64-.04.44 5.48 6.04M107.871 134.44c2.48 2.92 4.96 5.84 7.48 8.72 2.56 3 5.36 5.6 7.88 8.56 1.68 1.96 3.52 4.6 7.76 8.72M112.951 130.36c2.24 2.6 4.48 5.24 6.72 7.84 2.28 2.68 4.84 5 7.12 7.68 1.52 1.76 3.12 4.16 7 7.84M115.871 126.84c2.48 2.92 5 5.84 7.48 8.8 2.56 3 5.64 5.4 8.2 8.36 1.68 1.96 3.32 4.84 7.96 8.64M116.751 119.24c2.88 3.36 5.76 6.72 8.6 10.08 2.96 3.44 6.12 6.52 9.04 9.92 1.96 2.28 4.08 5.28 8.92 10.12M119.511 114.64c2.84 3.32 5.64 6.6 8.48 9.92 2.92 3.4 6.04 6.4 8.92 9.76 1.92 2.24 4.04 5.2 8.8 9.96M122.631 110.6c3.2 3.76 6.4 7.48 9.6 11.24 3.28 3.84 6.8 7.28 10.04 11.08 2.16 2.52 4.6 5.88 9.92 11.28M125.871 107.24c3.6 4.2 7.2 8.44 10.8 12.64 3.68 4.32 7.84 8.04 11.52 12.32 2.44 2.84 5 6.76 11.28 12.6M129.071 106.44c3.6 4.24 7.2 8.44 10.84 12.68 3.72 4.36 7.64 8.28 11.28 12.56 2.44 2.84 5.2 6.6 11.2 12.72M132.671 102.84c3.88 4.56 7.76 9.12 11.64 13.64 4 4.68 8.32 8.8 12.24 13.44 2.64 3.08 5.52 7.16 12.08 13.68M141.071 103.56c3.88 4.56 7.76 9.08 11.64 13.64 4 4.68 8.16 8.92 12.12 13.52 2.64 3.08 5.6 7.08 12 13.72M143.391 98.44c4.32 5.08 8.64 10.12 12.96 15.2 4.44 5.2 9.08 9.96 13.48 15.12 2.92 3.44 6.28 7.88 13.36 15.28M151.471 94.84c4.32 5.08 8.64 10.12 12.96 15.2 4.44 5.2 9.08 9.96 13.48 15.12 2.92 3.44 6.28 7.88 13.36 15.28M157.071 93.64c4.68 5.44 9.32 10.92 14 16.36 4.8 5.6 9.76 10.76 14.48 16.32 3.16 3.68 6.8 8.48 14.4 16.48M163.871 92.04c4.92 5.76 9.84 11.52 14.72 17.24 5.04 5.92 10.24 11.36 15.24 17.2 3.32 3.88 7.16 8.92 15.16 17.4M185.471 103.24c3.76 4.4 7.52 8.84 11.32 13.24 3.88 4.52 7.96 8.64 11.8 13.12 2.56 3 5.44 6.88 11.68 13.32M174.271 90.04c.92 1.08 1.8 2.12 2.72 3.2.92 1.08 2.16 1.88 3.08 2.96.6.72 1.12 1.84 2.96 3.08M184.271 89.64c1.36 1.6 2.76 3.24 4.12 4.84 1.4 1.64 3.12 3 4.52 4.64.92 1.08 1.84 2.64 4.36 4.76M199.511 106.28c3.72 4.32 7.4 8.68 11.12 13 3.8 4.44 7.8 8.48 11.56 12.88 2.52 2.92 5.36 6.76 11.44 13.08M205.071 99.24c4.32 5.08 8.64 10.12 12.96 15.2 4.44 5.2 9.08 9.96 13.48 15.12 2.92 3.44 6.28 7.88 13.36 15.28M208.351 93.76c4.84 5.68 9.68 11.32 14.52 17 4.96 5.84 10.12 11.16 15.04 16.92 3.28 3.84 7.08 8.8 14.92 17.12M216.991 96.52c3.44 4.04 6.92 8.08 10.36 12.12 3.56 4.16 7.32 7.88 10.8 12 2.32 2.72 4.96 6.32 10.68 12.16M231.071 103.24c3.04 3.56 6.12 7.16 9.16 10.72 3.12 3.68 6.48 6.96 9.6 10.56 2.08 2.4 4.36 5.6 9.48 10.76"
    stroke="#171717"
    stroke-width="1.6"
    stroke-linecap="round"
  />
  <path
    d="M169.551 90.4c-.72-.6-2.04-.64-2.64-1.36-.92-1.08-2.16-2.12-3.28-3-1.32-.96-2.72-1.92-3.96-2.84-2.76-2.04-6.68-1.52-9.8-2.72-.92-.36-1.88-.6-2.76-1.04-.68-.32-1.52-.92-2.28-.96-.84-.04-1.6-.16-2.48-.12-1.36.04-2.12.84-3.36 1.28-3.6 1.24-6.76 3.6-10.28 4.76-1.64.56-3.16 1.88-4.72 2.72-1.56.88-2.96 2.24-3.96 3.64-2.2 3.12-3.12 6.92-4.4 10.44-1.12 3.08-.36 6.96-.2 10.24.16 3.4-.2 6.6-.04 10M126.391 68.28c.04 1.16-.16 2.72.36 3.76.44.88.8 1.64 1.28 2.52 1.12 2.04 2.8 3.76 2.92 6.24"
    stroke="#171717"
    stroke-width="1.6"
    stroke-linecap="round"
  />
  <path
    d="M130.031 76.16c-4.24.2-8 1.4-12.04 2.36-2.6.6-4.68 1.8-7.48 1.92-1.24.04-2.56.48-3.8.56-1.44.12-2.8.04-4.16.36-2.12.48-4.84.24-7.04.32-.76.04-2.04-.32-2.08-1.12-.04-1.28 1.08-2.12 1.88-3.2 1.08-1.48 2.72-2.52 4.12-3.84 1.16-1.08 2.12-1.44 3.64-2.12 1.6-.72 3.4-1.08 5.04-1.68 1.8-.68 3.64-1.4 5.52-1.88.72-.2 1.64-.72 2.28-1.12.88-.52 1.88-.72 2.84-1.12 1.36-.6 2.96-1.16 4.4-1.6 1.84-.52 3.88-1.52 5.56-2.32 1.6-.76 3.16-1.04 4.84-1.56 2.44-.76 4.8-1.88 7.44-2.08 4.56-.36 9.28-.84 13.92-.8.56 0 1.8.6 2.28.92.88.56.88 1.28.92 2.16.04 1.16-.72 1.52-1.4 2.36-.72.88-1.56 1.96-2.56 2.6-3.64 2.36-7.72 3.6-11.88 5.12-5.6 2.08-10.36 5.4-16.12 7.32M172.671 209.88c-.72-.56-1.4-1.16-2.24-1.52-1.24-.52-2.44-1.08-3.48-1.92-.8-.64-1.32-1.52-2.16-2.04-.64-.4-1.2-.96-1.72-1.52M137.911 238.08c4.16 0 8.28-.08 12.44-.32 3.4-.2 6.76-.4 10.2-.36 3.6.08 7.16 0 10.76 0 6.88 0 13.92-.16 20.72-.16M192.031 237.08h8.2c2.28 0 4.56.4 6.88.52 2.92.16 5.84.2 8.76.16 1.64 0 3.24-.36 4.84-.36h3.96c2.64 0 5.12 1.04 7.8 1.04h2.28c1.04 0 1.96-.4 3-.6 2.16-.4 4.52-.44 6.72-.44 3.76 0 7.48.16 11.24.16M256.031 237.08h13.44c2.52 0 4.76.2 7.24.6 1.48.24 3 .6 4.52.6 2.28 0 4.64.16 6.96.16"
    stroke="#171717"
    stroke-width="1.6"
    stroke-linecap="round"
  />
  <path
    d="M288.231 237.92c0 1.2-.04 2.4.24 3.56.24.84.6 1.88.6 2.72 0 1.92-.12 3.84.16 5.72.52 3.28.52 6.48.52 9.8 0 1.32.12 2.72 0 4.04-.12 1.08-.44 1.44-.92 2.28-.68 1.2-2.44 1.12-3.72 1.12-1.64 0-3.28.04-4.92.16-1.04.08-2.08.36-3.12.48-1.24.12-2.52.04-3.8.04-2.04 0-4.12-.36-6.12-.64-2.12-.32-4.48-.04-6.64-.04H248.071c-1.52 0-2.96.28-4.44.36-2.2.08-8.84.16-6.64.16"
    stroke="#171717"
    stroke-width="1.6"
    stroke-linecap="round"
  />
  <path
    d="M240.551 267.36h-6.68c-2.8 0-5.56-.84-8.36-.84h-33.68M191.351 266.84c-4.28 0-8.44-.36-12.68-.36h-20.32c-.92 0-1.76-.16-2.68-.16-.56 0-1.08.16-1.64.16-.16 0-1.32.16-.76.16M152.551 266.84c-4.96 0-9.88-.36-14.84-.36-.68 0-1 .16-1-.56v-2.68c0-1.4.16-2.88-.12-4.24-.24-1.2-.04-2.68-.04-3.88 0-1.12-.12-2.2-.16-3.32-.08-2.04-.16-4.16-.16-6.24 0-1.8.24-3.52.36-5.32.04-.68.36-1.32.36-2.04 0-.6 1.2-.36 1.68-.36 1.6 0 3.2-.52 4.8-.52"
    stroke="#171717"
    stroke-width="1.6"
    stroke-linecap="round"
  />
  <path
    d="M164.991 238.24c0 5.84-.16 11.64-.16 17.44 0 1.24.36 2.52.36 3.8v2.92c0 .92-.36 1.76-.36 2.72v3.08M109.391 218.32c.08 1 .04 2.24.4 3.2.48 1.36.88 2.8 1.32 4.16.8 2.56 1.48 5.12 2.92 7.4 1.2 1.92 2 4.12 2.48 6.36.24 1.16.56 2.36 1.08 3.44.72 1.52.88 3.24 1.64 4.76.56 1.12 1.12 2.32 1.8 3.36.6.96.92 2.12 1.6 3.04 1.2 1.52 1.8 3.48 2.92 5.08.84 1.2.96 2.76 1.68 4 .52.84 1.28 1.44 2 2 .64.52 1.32 1.04 1.84 1.72.64.8 1.52 3.72 1.44 2.68M132.511 269.52c.12.6 1.2 1.2 1.68 1.52.44.36.88.52 1.36.8.68.44 1.44.76 2.12 1.12.4.24.88.28 1.32.48.6.24 1.12.68 1.76.8 1.92.36 3.64 1.56 5.56 1.88 2.28.36 4.56 1.2 6.88 1.2 2.36 0 4.72-.28 7.08-.52.72-.08 1.64 0 2.28-.44.64-.4 1.4-.96 2.16-1.16 1.4-.4 2.44-1.2 3.76-1.84.6-.28 1.2-1 1.68-1.48 1.04-1 2.24-1.64 3-2.92M269.671 269.36c.36.64.88 1.08 1.24 1.68.4.68.76 1.12 1.36 1.68.64.6 1.76.6 2.44 1.28.56.56 1.6.72 2.36 1 .56.24 1.4-.04 1.92.28.28.16.84.12 1.12.04.96-.28 2.04-.64 2.92-1.2.76-.48 1.32-1.28 1.96-1.92 1.12-1.12 1.56-2.72 2.76-3.68.32-.24.64-.16 1-.56.32-.36.56-1.36.6-1.84.12-1.04 0-2.16 0-3.24 0-.52.12-.92.36-1.4.2-.44.12-1.04.12-1.52v-3c0-.6.44-5.32-.16-5.6"
    stroke="#171717"
    stroke-width="1.6"
    stroke-linecap="round"
  />
  <path
    d="M288.671 271.8c0-1.08-.72-2.4-1.4-3.24-.68-.88-1.8-1.52-2.4-2.4-.52-.76-1.04-1.4-1.68-2.04-.24-.24-.28-.64-.52-.8-.72-.48-1.48-1.32-2.04-1.96-.32-.4-.88-.76-1.04-1.24"
    stroke="#171717"
    stroke-width="1.6"
    stroke-linecap="round"
  />
  <path
    d="M173.391 172.44h104.8c.88 0 1.6.72 1.6 1.6v61.6c0 .88-.72 1.6-1.6 1.6h-104.8c-.88 0-1.6-.72-1.6-1.6v-61.6c0-.88.72-1.6 1.6-1.6Z"
    stroke="#171717"
    stroke-width="2.4"
  />
  <path
    d="M243.791 172.44h34.4c.88 0 1.6.72 1.6 1.6v61.6c0 .88-.72 1.6-1.6 1.6h-34.4c-.88 0-1.6-.72-1.6-1.6v-61.6c0-.88.72-1.6 1.6-1.6ZM183.391 172.44v16c0 .88.72 1.6 1.6 1.6h7.2c.88 0 1.6-.72 1.6-1.6v-16"
    stroke="#171717"
    stroke-width="2.4"
  />
  <path
    d="M172.671 173.44h54.24c.88 0 1.52.12 2.36.28.84.2 1.84 0 2.68 0 .88 0 1.76.32 2.6.48.92.16 4.52.68 5-.32M239.551 173.92c4.28 0 8.56.04 12.84-.16 4.8-.24 9.76.24 14.52-.28 4.08-.44 16.48.32 12.36.32"
    stroke="#171717"
    stroke-width="1.6"
    stroke-linecap="round"
  />
  <path
    d="M279.271 173.76c0 1.88-.16 3.88 0 5.76.08.64.28 1.28.44 1.88.16.72.04 1.56.04 2.28 0 3.6-.24 7.2-.32 10.8-.04 1.44 0 2.84-.16 4.24-.16 1.56-.8 3-.96 4.52-.16 1.52-.32 2.96-.32 4.48 0 1.28.32 2.52.32 3.8M278.311 211.6c0 2.04.12 4.08-.16 6.08-.32 2.12 0 4.24 0 6.36 0 3.44.16 6.84.16 10.28 0 .24.16 1.48-.16 1.48-.8.04-1.52.32-2.36.32h-4.92c-2.92 0-5.72.48-8.68.48"
    stroke="#171717"
    stroke-width="1.6"
    stroke-linecap="round"
  />
  <path
    d="M262.231 236.6c-3.48 0-6.92.16-10.32-.6-2.64-.6-5.56-.36-8.28-.36h-7.76c-1.8 0-3.2.08-4.88.64M230.951 235.96h-21.48c-2.56 0-5.04.32-7.6.32M201.591 235.64h-8.84c-4.36 0-8.68.32-13.04.32h-5.8c-.6 0-1.24.24-1.24-.48v-1.88c0-2.16.08-4.28-.16-6.4-.2-1.96.4-4.16-.08-6.08-.36-1.52-.08-3.48-.08-5.04 0-1.16-.12-2.4.12-3.56.12-.48-.2-2.12.2-2.36"
    stroke="#171717"
    stroke-width="1.6"
    stroke-linecap="round"
  />
  <path
    d="M172.671 210.16c0-6-.16-11.96-.16-17.96 0-1.52.2-3.08.32-4.6.12-1.8.64-3.8.24-5.64-.36-1.56-.24-3.32-.24-4.92v-1.2c0-.32-.32-.6-.32-1M172.351 174.4c3.28 0 6.68.32 9.92-.16 3.12-.48 6.24-.48 9.4-.48h3.92c1.44 0 3.04-.2 4.44.12.96.2 1.96.12 2.88.32.76.16 1.64.16 2.44.16M205.351 174.4h23.76c.92 0 3.32.4 3.92-.48"
    stroke="#171717"
    stroke-width="1.6"
    stroke-linecap="round"
  />
  <path
    d="M192.511 174.4v10.32c0 .8.44 3.68-.48 3.76-1.16.08-2.36.32-3.6.32-1.04 0-2.08-.04-3.04-.32-.72-.2-.4-2.52-.4-2.96 0-.72-.68-1.64-.92-2.32-.48-1.28-.6-2.52-.84-3.84-.28-1.44-.24-3-.24-4.48M243.151 174.56c0 .6-.08 1.28.04 1.88.12.64.4 1.28.44 1.92.04.92 0 1.84 0 2.76v3.64c0 .92.28 1.76.32 2.64.04 1.72.16 3.44.16 5.16 0 1.6-.24 3.6-.64 5.12-.24.84-.12 1.8-.12 2.68M243.311 200.48c0 1.68-.24 3.56.04 5.2.2 1.2.6 2.52.6 3.72 0 3.44.32 6.84.32 10.32 0 3.44.08 6.92-.32 10.32-.08.88-.24 1.76-.44 2.64-.12.6-.04 1.4-.28 1.96-.36.76.56 2.08.56 2.88"
    stroke="#171717"
    stroke-width="1.6"
    stroke-linecap="round"
  />
</svg>
