<svg width="400" height="444" viewBox="0 0 400 444" fill="none" xmlns="http://www.w3.org/2000/svg">
<path d="M123 384.001C115.83 384.001 110 378.171 110 371.001C110 363.831 115.83 358.001 123 358.001H123.87C117.2 334.731 122.29 315.781 128.7 302.961C127.62 302.121 126.56 301.251 125.51 300.361L123.62 301.861L121.86 303.441C119.54 305.521 116.56 306.771 113.58 306.941C113.58 307.371 113.59 307.801 113.59 308.241C113.59 315.011 108.5 320.581 101.75 321.191L101.21 321.241H100.67C93.9601 321.241 88.4101 316.281 87.6701 309.701C87.5901 308.961 87.4801 308.001 87.4101 306.881C81.0501 306.201 76.0801 300.981 75.8401 294.441C75.5801 287.531 80.8201 281.641 87.6301 281.011C87.6001 280.051 87.5901 279.051 87.5901 277.991C87.5901 272.161 91.2901 267.281 96.5901 265.601L98.3601 264.181C94.9301 257.071 91.9601 249.331 89.4801 241.061C58.2401 229.861 41.0901 201.681 32.0801 179.201L20.3001 173.471C13.8601 170.341 11.1701 162.541 14.3001 156.101C16.4601 151.651 21.0501 148.781 25.9901 148.781C27.2301 148.781 28.4601 148.961 29.6301 149.301C31.1901 144.361 35.6301 140.661 41.0701 140.251L41.5201 140.221H41.9701C49.1501 140.221 54.8601 145.801 55.0301 152.921L55.3401 167.291C59.0901 177.091 63.5001 185.601 68.5401 192.741C68.0501 187.711 68.2001 182.731 69.0101 177.831C71.1701 164.611 77.5201 156.041 81.2101 152.021C80.9801 147.261 81.5201 142.541 82.8401 137.881C81.5401 138.271 80.3001 138.511 79.1101 138.601C78.4701 138.691 77.8601 138.731 77.2701 138.731C73.1501 138.731 69.2501 136.761 66.8101 133.451C65.7901 132.191 65.0001 130.791 64.4601 129.291C60.8801 122.001 58.7801 113.891 58.4101 106.211C53.9101 108.011 49.9301 108.921 46.5201 108.921C41.2001 108.921 36.5901 106.831 33.5601 103.031C29.7701 98.2907 27.2801 89.8507 36.9301 76.5807C42.8701 68.4107 51.8101 60.5707 58.2601 55.4207C66.5701 48.7807 75.1501 43.2707 82.4101 39.9207C88.1201 37.2707 92.9601 35.9707 97.1701 35.9707C102.51 35.9707 107.13 38.0707 110.16 41.8907C113.34 45.8707 115.63 52.4707 110.55 62.2607C116.25 63.1507 121.86 64.8807 126.41 67.1807C128.18 67.8807 129.82 68.9407 131.17 70.2707C136.01 75.0407 136.71 81.3307 133.29 89.0607C136.15 87.7707 138.39 86.8907 139.68 86.4007L140.13 86.2307L140.54 86.1107C153.95 82.0807 166.89 80.0307 179.01 80.0307C197.42 80.0307 214.41 84.8607 228.14 93.9907C238.93 101.171 247.73 111.141 252.29 121.351C253.82 124.761 253.79 128.671 252.22 132.081C252.22 132.081 252.13 132.291 252.09 132.361C258.4 139.951 264.23 148.561 269.21 157.641C272.26 153.151 275.2 147.211 276.89 139.681L265.13 133.291L278.21 130.481C278.99 118.711 276.74 103.941 268.68 85.7807L258.75 75.3307C256.37 72.8407 255.08 69.5307 255.17 66.0507C255.25 62.5907 256.69 59.3607 259.21 56.9607C261.66 54.6407 264.83 53.3807 268.17 53.3807C270.28 53.3807 272.35 53.9007 274.19 54.8607C276.45 50.7607 280.79 48.1407 285.57 48.1407C287.04 48.1407 288.48 48.3807 289.85 48.8707C293.13 50.0207 295.77 52.3707 297.27 55.4907C298.78 58.5707 298.99 62.1107 297.85 65.4007L293.54 77.8107C298.94 90.5407 302.34 102.881 303.69 114.661C305.85 111.891 309.12 110.021 312.92 109.721L313.2 109.701L313.82 109.681H314.02C320.76 109.681 326.43 114.961 326.93 121.701L326.99 122.481C327.06 123.421 327.15 124.481 327.2 125.641C327.75 125.701 328.29 125.791 328.82 125.891C335.43 127.211 339.89 133.241 339.23 139.931C338.59 146.391 333.37 151.311 326.95 151.631C326.95 152.061 326.96 152.491 326.96 152.931C326.96 159.661 321.91 165.231 315.2 165.871L314.62 165.931H313.95C307.32 165.931 301.77 160.961 301.03 154.371C300.95 153.641 300.84 152.691 300.77 151.581C300.72 151.581 300.67 151.571 300.62 151.561C295.91 166.961 287.67 177.501 280.78 184.101C281.74 186.961 282.6 189.801 283.35 192.601C286.88 189.011 291.79 186.821 297.19 186.821C307.89 186.821 316.59 195.521 316.59 206.221C316.59 216.921 307.89 225.621 297.19 225.621C293.53 225.621 290.02 224.571 287.02 222.711C286.95 223.961 286.84 225.171 286.69 226.351C286.53 227.631 286.35 228.921 286.15 230.191C291.33 228.661 296.21 227.881 300.68 227.881C306.76 227.881 312.21 229.291 316.87 232.081C324.54 236.661 329.32 244.251 331.1 254.681L333.01 253.981C334.39 253.491 335.91 253.231 337.39 253.231C342.81 253.231 347.71 256.641 349.59 261.731C352.07 268.461 348.61 275.941 341.9 278.421L322.78 285.471C321.37 285.971 319.9 286.231 318.4 286.231C315.49 286.231 312.64 285.241 310.36 283.441C306.79 280.641 304.97 276.261 305.49 271.751C306.9 259.321 304.57 255.011 303.56 254.401C303.04 254.091 301.97 253.901 300.69 253.901C295.83 253.901 286.03 256.731 274.16 264.671C258.29 293.681 230.48 315.021 201.35 320.461C195.61 321.521 189.83 322.061 184.14 322.061C172.97 322.061 161.72 319.951 151.36 315.921C146.84 325.801 142.95 343.121 154.65 364.881C156.81 368.871 156.7 373.801 154.36 377.721C152.04 381.611 147.77 384.031 143.21 384.031H123.01L123 384.001Z" fill="white"/>
<path d="M230.92 128.439C261.72 156.679 276.36 201.359 273.6 224.079C268.92 262.759 236.92 299.839 198.76 306.959C162.48 313.719 116.38 296.78 99.5 228.5" stroke="#171717" stroke-width="2"/>
<path d="M230.2 129.84C232.64 133.12 235.12 136.28 238.28 138.48C242.32 141.28 245.92 146.84 249.6 150.44C253.16 153.92 256.48 157.6 257.96 162.48C258.96 165.8 262.88 168.56 263.92 171.92C264.88 175.12 266.64 178.28 267.6 181.48C269.64 188.28 272.88 196.2 271.36 203.28C270.8 205.96 271.24 211.4 271.76 214.16C272.32 217.2 271.08 220.84 271.56 223.6C272.68 229.8 269.16 238.76 268.12 245C265.72 259.04 259.04 268.96 249.32 279C246.8 281.6 243.92 282.8 241.4 285.16C239.16 287.28 235.88 291.36 233.28 292.48C227.32 295.08 220.48 301.12 214.52 303.28C209.92 304.96 206.16 308.76 200.48 307.52C195.08 306.32 185.08 307.68 179.88 308.92C169.4 311.44 157.68 305.72 148.24 301.88C143.84 300.08 136.92 291.88 133.4 288.28C129.48 284.28 125.84 280.36 121.04 277.44C109.4 268.04 106.6 255.68 102.56 242.32C101.28 238.08 100.5 232.82 99.5 228.5" stroke="#171717" stroke-width="2" stroke-linecap="round"/>
<path d="M198.28 185.84C204.52 184.36 214.88 184.68 206.4 197.6" stroke="#171717" stroke-width="2" stroke-linecap="round" stroke-linejoin="round"/>
<path d="M199.24 187.119C199.64 187.119 200.16 187.199 200.52 187.119C200.8 187.039 200.96 186.759 201.28 186.719C202.04 186.639 202.68 186.319 203.48 186.319C204.64 186.319 206.72 185.679 207.72 186.599C208.36 187.199 208.68 188.079 209 188.879C209.24 189.559 209.64 190.279 209.64 190.999C209.64 192.439 209.4 193.479 208.8 194.799C208.52 195.439 208.16 196.839 207.6 197.119" stroke="#171717" stroke-width="2" stroke-linecap="round"/>
<path d="M240.2 126L130.84 158.92L99.8798 228.801C67.5598 192.161 84.5198 162.56 94.8398 156.6C87.7998 127.12 124.72 105.2 144.04 97.9205C203 80.1605 232.72 109.24 240.2 126Z" stroke="#171717" stroke-width="2" stroke-linejoin="round"/>
<path d="M95.4802 157.76C88.2002 159.96 81.3602 170.96 82.8002 178.72C83.2402 181.04 81.7202 183.24 82.4802 185.84C83.1602 188.04 82.1602 190.84 82.8402 193.08C84.3202 197.96 84.5202 202.76 85.9602 207.48C86.6002 209.64 87.2402 211.8 87.9202 213.92C88.7202 216.64 90.3202 218.16 91.2002 220.76C91.9202 222.8 98.4402 230.08 100.72 226.88C103.64 222.76 104.56 216.48 105.52 211.68C105.92 209.68 107.28 206.84 108.64 205.36C110.04 203.84 112.64 200.44 113.12 198.36C114.2 193.88 115.84 189.12 118.08 184.92C120.6 180.24 122.24 175.6 124.44 170.92C126.72 166.12 126.84 163.6 131.68 160.88C133.4 159.92 134.92 158.08 136.8 157.52C139.44 156.72 142.04 155.96 144.68 155.16C162.6 149.76 180.08 142.64 198.08 137.24C200.24 136.6 202.4 135.96 204.52 135.28C206.84 134.56 209.32 134.92 211.6 134.36C217.16 133 222.68 131.04 228.16 129.36C229.76 128.88 229.68 129.6 230.8 129.64C232.52 129.72 233.32 128.4 234.8 127.96C236.64 127.4 238.12 126.76 237.48 124.68C237.04 123.28 234.28 120.48 233.08 119.76C231.08 118.56 229.32 115.84 227.72 114.16C224.52 110.76 222.24 105.88 218.44 103.16C215.24 100.88 210.56 98.6001 206.72 97.6801C202.16 96.5601 197.4 94.6001 192.68 94.6401C190.72 94.6801 188.16 93.7201 186.12 93.2801C184.04 92.8401 180.88 91.3601 178.84 91.5201C177.72 91.6001 174.4 91.2801 173.28 90.8401C171.92 90.2801 167.32 91.8801 165.88 92.3201C160.56 93.9201 155.36 94.2801 150.12 95.8401C144 97.6801 139.12 101.36 133.2 103.4C128.76 104.92 123.12 108.8 120.56 112.72C119.24 114.72 117.28 115.8 115.52 117.32C113.04 119.48 112.24 120.76 108.88 121.76C105.52 122.76 100.08 128.56 98.7602 131.84C97.5202 134.96 89.4802 156.32 94.7602 157.24" stroke="#171717" stroke-width="2" stroke-linecap="round"/>
<path d="M237.92 125.36C237.88 124.88 237.4 124.4 237.12 124.04C236.76 123.56 236.6 122.92 236.24 122.48C235.64 121.64 234.64 121.12 234.04 120.28C233.48 119.48 233 118.56 232.4 117.8C231.28 116.4 229.88 115.4 228.64 114.16C225.84 111.36 222.4 109.92 218.88 108.2C216.84 107.2 214.92 105.88 212.84 104.92C210.6 103.88 208.36 103.08 206 102.4C202 101.2 198 99.9599 194.08 98.4399C192.4 97.7999 190.84 97.1599 189.28 96.2399C189.04 96.0799 188.24 95.8399 188.52 95.7199C189.4 95.4399 190.88 95.9599 191.68 96.2399C196.68 97.7999 201 100.24 204.72 103.96C208.24 107.48 211.4 111.48 215.6 114.2C220.92 117.64 227.24 119.44 231.88 123.92C232.16 124.16 232.44 124.48 232.76 124.68C233 124.84 231.48 123.64 231.32 123.52C226.4 119.32 222.44 113.52 216.56 110.6C213.24 108.96 209.72 107.68 206.6 105.64C204.48 104.28 202.52 102.6 200.28 101.36C198.12 100.2 195.64 99.3999 193.28 98.7599C188.24 97.3599 182.96 97.5999 177.96 96.0399C177.56 95.9199 177.2 95.5999 176.76 95.5599C176.56 95.5199 176.28 95.3999 176.12 95.2399C175.44 94.5999 177.72 95.6799 177.8 95.6799C190.68 101.32 203 108.2 213.52 117.64C215.84 119.72 218.24 121.48 220.76 123.2C222.08 124.12 223.36 125.2 224.68 126.12C224.84 126.24 225.96 126.92 225.96 127.24C225.92 127.52 224 126.76 223.96 126.76C219.64 125.04 215.44 123.04 211.2 121.12C203.68 117.68 196.48 114 189.8 109.08C185.2 105.68 181 101.76 176.44 98.3199C173.84 96.3599 172.52 97.3999 169.76 95.6399C168.64 94.9199 167.56 94.3599 166.36 93.7999C166.16 93.7199 166.48 94.0399 166.52 94.0799C166.96 94.6799 167.28 95.3599 167.72 95.9599C169.04 97.9599 168.52 97.4799 170.64 98.6799C172.4 99.6799 174.32 100.24 176.16 101.08C179.76 102.72 183.16 104.92 186.52 107C193.8 111.52 201.16 116.04 208.16 121C210.32 122.56 212.72 124.12 214.28 126.36C215.28 127.76 216.76 128.84 217.96 130.04C218.24 130.32 218.48 130.64 217.84 130.48C216.96 130.24 216.12 129.84 215.32 129.44C213.24 128.4 211.16 127.4 209.04 126.44C196.8 120.76 184.68 114.48 173.52 106.8C168.96 103.64 164.28 100.64 159.84 97.3199C158.24 96.1199 158.44 97.4799 156.88 96.2799C156.76 96.1999 156.24 95.8399 156.64 96.1599C158.44 97.6399 158.52 96.4399 160.32 97.9199C166.24 102.8 173.16 106.36 179.72 110.28C186.52 114.32 193.36 118.44 198.76 124.28C200.48 126.16 202.28 128 203.84 130C204.4 130.72 204.84 131.24 205.6 131.8C206.16 132.2 206.88 131.88 207.32 132.2C207.84 132.6 208.84 132.6 209.48 132.72C210 132.8 211.52 133.08 212 132.8C212.56 132.48 209.24 128.8 208.52 128.6C206.24 127.96 203.84 127.84 201.56 127.24C198.4 126.36 195.56 124.88 192.56 123.52C187.04 121 181.68 118.2 176.08 115.8C172.36 114.16 168.28 112.52 165.04 110.04C163.04 108.52 161.36 106.6 159.36 105.08C158 104.04 156.76 103.16 155.56 101.92C155 101.36 154.64 100.68 154.08 100.12C153.68 99.7199 152.88 99.5599 152.36 99.3999C151.88 99.2399 150.64 98.2399 151 98.6399C151.68 99.3999 152.72 99.5999 153.64 99.9199C157.44 101.24 161.24 102.56 164.76 104.48C170.2 107.48 175.68 110.96 180.4 115.08C185.28 119.36 190.32 123.48 195.44 127.44C198 129.44 200.6 131.52 203.28 133.32" stroke="#171717" stroke-width="4" stroke-linecap="round"/>
<path d="M202.401 135.32C201.641 135.24 200.521 134.12 200.001 133.72C196.921 131.48 194.081 129.04 190.961 126.88C189.161 125.64 187.281 124.48 185.361 123.4C184.001 122.64 182.881 121.6 181.561 120.72C179.241 119.16 176.681 117.36 174.121 116.28C172.321 115.52 170.601 114.84 168.961 113.8C167.041 112.56 165.161 111.24 163.201 110.04C162.041 109.28 160.801 108.68 159.641 107.88C158.641 107.2 157.681 106.48 156.561 106C154.601 105.12 152.481 104.72 150.401 104.08C148.841 103.6 147.241 103.24 145.681 102.72C144.881 102.48 144.041 102.16 143.201 101.96C142.961 101.92 141.361 101.4 141.201 101.56C141.081 101.68 142.521 102.6 142.521 102.6C145.321 104.24 148.361 105.52 151.201 107.08C164.241 114.28 179.881 118.72 190.001 130.32C190.761 131.16 191.401 132.08 192.201 132.92C193.081 133.84 194.161 134.44 195.121 135.28C195.441 135.56 196.521 136.08 196.121 136.08C195.241 136.12 194.401 136.04 193.561 135.8C182.881 132.8 173.321 126.64 164.641 119.96C161.081 117.24 157.641 114.24 153.841 111.84C151.481 110.32 148.881 109.2 146.241 108.24C143.201 107.12 140.121 106.84 137.001 106.24C136.161 106.08 135.481 106.08 134.721 105.72C134.681 105.68 135.721 106.8 135.881 107C137.721 108.88 139.761 110.64 141.881 112.24C145.401 114.96 149.161 117.16 153.241 118.84C157.521 120.6 161.961 121.88 166.161 123.88C171.481 126.4 175.721 129.88 179.841 134C181.321 135.44 182.841 136.64 184.761 137.44C185.081 137.56 186.921 138.76 186.881 138.76C186.281 138.92 184.681 137.88 184.201 137.68C179.681 135.64 175.481 133.04 171.161 130.6C163.841 126.48 156.161 122.84 148.441 119.56C145.201 118.2 141.841 117.12 138.561 115.88C136.881 115.24 135.361 114.36 133.961 113.24C133.041 112.52 132.001 112.32 131.041 111.72C130.761 111.56 130.401 111.28 130.081 111.16C129.721 111.04 128.721 110.68 129.681 110.68" stroke="#171717" stroke-width="4" stroke-linecap="round"/>
<path d="M122.831 110.693C122.976 110.113 130.499 113.89 131.229 114.252C134.585 115.917 137.665 118.08 140.95 119.872C143.726 121.386 146.382 123.145 149.283 124.408C152.895 125.979 156.515 127.853 159.927 129.822C165.847 133.237 172.155 136.056 178.101 139.359C178.6 139.636 178.93 140.153 179.468 140.422C180.419 140.898 179.019 140.536 178.687 140.379C174.678 138.486 170.596 136.75 166.589 134.824C163.51 133.343 160.327 132.196 157.323 130.527C154.765 129.106 152.109 127.795 149.392 126.708C144.215 124.637 139.137 122.322 133.963 120.252C129.969 118.654 125.849 117.226 121.757 115.966C121.46 115.875 120.471 115.702 120.292 115.478C120.067 115.197 120.057 115.458 120.509 115.684C122.249 116.554 123.856 117.658 125.522 118.657C128.774 120.608 132.132 122.456 135.287 124.559C138.017 126.38 140.694 128.279 143.652 129.735C149.547 132.636 155.634 135.102 161.5 138.035C163.26 138.915 164.921 139.91 166.578 140.965C167.623 141.63 168.886 142.654 170.05 143.07C170.883 143.367 171.654 143.847 172.48 144.133C172.722 144.216 174.322 144.895 173.696 144.382C169.689 141.105 164.517 139.377 160.133 136.711C155.602 133.956 150.712 131.64 146.072 129.062C141.38 126.456 136.04 125.4 130.936 123.876C127.851 122.955 124.723 122.041 121.768 120.74C120.928 120.371 119.801 119.929 119.12 119.286C118.314 118.525 117.415 117.885 116.625 117.095C116.104 116.574 116.286 116.934 116.581 117.377C117.951 119.431 120.616 120.58 122.538 122.031C125.369 124.171 128.299 126.108 131.044 128.379C134.094 130.901 136.957 133.647 140.006 136.169C142.413 138.159 144.79 140.183 147.146 142.234C149.049 143.892 151.266 145.72 153.45 146.975C155.174 147.967 154.385 148.347 155.999 149.5C156.434 149.81 159.121 149.771 157.999 149C156.056 147.664 155.517 146.95 153.775 145.37C152.752 144.441 151.685 143.568 150.672 142.625C149.7 141.72 148.942 140.628 147.938 139.749C145.835 137.909 143.82 135.986 141.732 134.129C139.879 132.482 138.247 130.42 136.307 128.899C134.043 127.125 137.693 129.346 138.346 129.681C142.628 131.873 146.786 134.214 150.748 136.95C152.734 138.321 154.573 139.893 156.618 141.171C158.302 142.224 159.701 143.776 161.5 144.675C162.369 145.11 163.265 145.528 164.082 146.042C164.311 146.186 164.74 146.416 165.016 146.433C165.153 146.442 164.124 145.774 163.931 145.641C160.924 143.568 157.766 141.115 155.175 138.523C154.026 137.374 158.056 140.031 159.45 140.867C161.678 142.204 163.928 143.467 166.144 144.827C166.88 145.279 167.595 145.777 168.336 146.194C169.158 146.657 166.448 146.238 165.504 146.238C163.95 146.238 162.085 146.726 160.719 147.409" stroke="#171717" stroke-width="4" stroke-linecap="round"/>
<path d="M110.654 121.001C116.066 126.412 122.006 131.249 127.17 136.918C129.533 139.51 131.966 142.033 134.281 144.669C136.447 147.136 138.466 149.743 140.793 152.07C141.262 152.539 141.721 152.998 142.188 153.465C142.521 153.798 142.758 154.008 142.281 153.558C139.795 151.21 137.638 148.285 135.542 145.6C133.57 143.073 131.333 140.622 129.589 137.931C127.877 135.288 125.824 132.981 123.863 130.53C122.65 129.014 121.151 127.602 120.06 126.014C119.305 124.916 118.411 124.028 117.651 122.965C117.134 122.24 119.094 124.009 119.812 124.536C122.686 126.648 125.375 129.017 127.842 131.595C131.209 135.112 134.582 138.673 137.723 142.396C139.401 144.384 141.562 145.956 143.397 147.791C144.433 148.826 145.465 149.587 146.736 150.302C147.241 150.586 147.715 150.921 148.234 151.181C149.601 151.864 147.408 149.716 147.139 149.393C144.346 146.028 142.01 142.356 139.025 139.15C138.049 138.102 137.172 136.96 136.183 135.925C135.861 135.589 135.414 135.174 135.212 134.768" stroke="#171717" stroke-width="4" stroke-linecap="round"/>
<path d="M100.607 131.233C101.791 131.341 103.046 132.322 103.956 132.99C106.244 134.67 108.57 136.316 110.798 138.075C114.344 140.875 117.715 143.879 121.258 146.674C123.139 148.158 124.746 149.853 126.467 151.511C127.354 152.366 128.382 153.055 129.257 153.93C130.094 154.766 130.955 155.697 131.821 156.39C133.654 157.856 128.332 153.248 126.57 151.697C123.095 148.638 119.695 145.484 116.421 142.209C113.999 139.788 111.436 137.148 109.641 134.21C108.384 132.153 107.119 130.138 105.817 128.112C105.701 127.932 104.862 126.402 105.444 126.954C107.926 129.305 110.902 131.156 113.547 133.321C118.901 137.701 123.64 142.509 127.759 148.07C129.239 150.068 130.81 151.856 132.699 153.454C133.322 153.982 134.1 154.254 134.746 154.757C135.472 155.322 136.455 155.81 135.562 154.571C131.702 149.209 126.837 144.446 122.281 139.688C119.874 137.173 117.667 134.454 115.305 131.895C114.451 130.97 113.625 130.058 112.803 129.104C112.206 128.411 111.436 127.86 110.881 127.14C110.58 126.75 109.353 125.312 110.468 126.396C112.732 128.599 115.287 130.496 117.537 132.721C119.725 134.885 121.72 137.216 123.862 139.419C125.637 141.243 127.081 143.382 128.875 145.176C130.552 146.853 131.96 149.152 133.919 150.499C135.35 151.482 136.965 152.708 138.187 153.93" stroke="#171717" stroke-width="4" stroke-linecap="round"/>
<path d="M129.527 158.593C128.054 158.445 126.55 157.031 125.339 156.285C123.752 155.307 122.347 154.166 120.941 152.951C118.897 151.185 116.566 149.876 114.616 147.956C112.813 146.181 111.302 144.129 109.526 142.353C108.101 140.928 106.586 139.584 105.157 138.155C104.196 137.193 103.136 136.423 102.09 135.61C101.838 135.414 101.319 135.128 101.15 134.917C101.026 134.762 100.648 134.82 100.466 134.831C99.9889 134.859 100.82 135.377 100.893 135.439C101.653 136.082 102.238 136.994 102.897 137.737C103.959 138.934 105.075 140.027 106.069 141.289C109.394 145.512 112.491 149.97 116.022 154.015C118.448 156.794 121.301 159.15 123.8 161.841C124.326 162.407 124.992 163.162 125.671 163.55C125.89 163.675 126.874 164.669 126.013 164.3C123.411 163.185 120.742 160.915 118.681 159.03C115.777 156.373 113.184 153.485 110.419 150.691C107.912 148.159 105.587 145.373 103.239 142.695C102.249 141.565 101.097 140.232 100.333 138.934C100.073 138.492 99.7688 138.392 99.2692 138.421C98.7129 138.454 100.358 140.739 100.475 140.909C104.162 146.256 108.733 151.167 113.239 155.82C116.928 159.627 119.558 164.193 122.86 168.299C123.054 168.54 124.888 170.587 123.98 169.704C121.003 166.809 117.962 163.981 115.034 161.024C112.989 158.958 111.24 156.596 109.013 154.699C107.223 153.174 105.355 151.72 103.628 150.121C102.912 149.458 102.338 148.689 101.662 147.994C101.315 147.636 100.819 147.385 100.551 146.968C100.285 146.554 99.7252 145.726 99.3547 145.43C98.8676 145.04 98.5675 144.388 97.9966 144.062C97.7365 143.914 97.1747 143.463 97.0469 143.207" stroke="#171717" stroke-width="4" stroke-linecap="round"/>
<path d="M95.2227 146.176C96.0601 146.636 96.7334 147.321 97.4575 147.932C98.6488 148.938 99.8338 149.961 100.993 151.004C102.776 152.609 104.346 154.489 105.956 156.266C107.85 158.357 109.59 160.586 111.509 162.657C112.428 163.648 113.321 164.706 114.319 165.616C115.054 166.287 115.85 166.983 116.472 167.761C117.207 168.681 118.207 169.352 118.931 170.258C119.294 170.711 119.907 170.977 120.246 171.401C120.604 171.848 121.05 172.027 121.457 172.41C121.722 172.66 122.467 173.394 122.339 173.053C122.274 172.88 121.7 172.676 121.562 172.582C120.806 172.072 120.057 171.551 119.305 171.035C117.558 169.838 115.79 168.687 114.133 167.365C112.116 165.757 109.92 164.427 107.906 162.821C105.24 160.695 102.363 158.822 99.7222 156.67C98.4253 155.613 97.1243 154.562 95.8355 153.508C95.7498 153.438 95.3923 153.019 95.4319 153.112C95.5396 153.363 95.7859 153.581 95.9626 153.785C96.6664 154.597 97.2548 155.574 97.9134 156.43C99.2753 158.201 100.727 159.875 102.248 161.513C104.756 164.213 107.516 166.682 110.022 169.376C111.555 171.025 113.348 172.724 115.104 174.13C115.979 174.83 116.829 175.565 117.69 176.282C118.064 176.593 118.495 176.847 118.767 177.254" stroke="#171717" stroke-width="4" stroke-linecap="round"/>
<path d="M119.305 178.735C116.705 178.498 114.188 176.315 112.16 174.863C110.49 173.668 108.771 172.557 107.227 171.201C105.615 169.785 103.927 168.457 102.324 167.03C100.935 165.794 99.7064 164.391 98.3176 163.158C97.3359 162.287 96.435 161.275 95.2232 160.737C95.1709 160.713 94.4598 160.459 94.4758 160.602C94.4923 160.751 95.193 161.215 95.3054 161.327C96.0331 162.055 96.709 162.835 97.4057 163.592C101.362 167.892 105.184 172.379 108.946 176.851C110.191 178.332 111.547 179.701 112.818 181.156C113.721 182.191 114.74 183.272 115.538 184.385C116.018 185.055 116.783 185.549 117.183 186.269C117.746 187.283 115.83 185.905 115.508 185.701C110.54 182.539 106.229 178.708 102.085 174.564C100.479 172.958 98.876 171.355 97.2712 169.751C96.4713 168.951 95.7711 167.803 94.8495 167.165C93.9042 166.51 93.1589 165.587 92.1289 165.042C91.8178 164.877 91.5862 164.646 91.217 164.504C91.1613 164.482 90.258 164.249 90.4098 164.444C91.0338 165.246 91.4917 166.213 92.1289 167.03C93.5485 168.85 94.8185 170.805 96.165 172.681C97.701 174.821 99.6067 176.695 101.307 178.705C102.983 180.686 104.714 182.618 106.36 184.624C108.226 186.9 110.234 189.033 112.01 191.381C112.401 191.897 112.911 192.437 113.221 192.996C113.35 193.228 113.253 193.114 113.034 192.981C112.304 192.536 111.605 191.983 110.934 191.456C108.36 189.432 105.898 186.819 103.834 184.281C101.91 181.916 99.9061 179.65 97.8541 177.397C96.5198 175.932 95.1242 174.506 93.8853 172.957C93.3257 172.258 92.674 171.676 91.9196 171.193C90.5499 170.317 89.3026 169.174 88.0255 168.181C86.9928 167.378 88.0067 170.244 88.1675 170.535C89.2534 172.5 90.2521 174.484 91.4562 176.38C93.0144 178.835 94.9965 180.993 96.9049 183.174C100.752 187.571 104.814 191.662 108.326 196.344C108.899 197.109 109.347 197.963 109.955 198.706C110.142 198.934 110.341 199.472 110.613 199.58C110.933 199.709 110.01 199.242 109.723 199.05C108.852 198.466 108.04 197.824 107.242 197.144C105.065 195.288 103.103 193.212 101.412 190.91C100.019 189.014 98.6498 187.156 97.174 185.32C95.7207 183.511 94.0393 181.979 92.5399 180.215C90.8927 178.277 89.6058 176.036 87.4201 174.631C87.278 174.54 85.8498 173.367 85.6786 173.966C85.4031 174.93 86.3883 175.738 86.8894 176.59C87.8358 178.198 89.0781 179.691 90.3051 181.089C91.8616 182.863 92.885 184.878 94.0871 186.882C97.0694 191.852 99.834 197.01 103.288 201.673C104.432 203.218 105.632 205.117 107.13 206.315C107.517 206.625 106.754 204.497 106.651 204.222C106.161 202.905 105.731 201.563 105.186 200.268C104.508 198.656 103.956 197.105 102.892 195.686" stroke="#171717" stroke-width="4" stroke-linecap="round"/>
<path d="M83.5176 179.272C84.1583 179.401 84.9588 180.704 85.3263 181.186C86.5808 182.83 88.0969 184.268 89.355 185.917C91.132 188.247 92.9733 190.519 94.6542 192.92C97.3136 196.72 99.7978 200.531 103.085 203.818C103.661 204.394 104.314 204.843 104.909 205.373C105.232 205.66 106.112 206.432 105.118 205.776C99.6959 202.195 94.6041 198.084 89.4447 194.146C87.7323 192.839 85.8835 191.387 84.5266 189.759C84.1166 189.267 84.1903 188.472 84.1903 187.883C84.1903 187.434 84.1903 186.986 84.1903 186.537C84.1903 186.406 84.1114 185.452 84.3248 185.76C86.0834 188.3 88.539 190.362 90.5658 192.704C92.5537 195.001 94.6287 197.035 96.179 199.662C97.6222 202.108 99.0542 204.77 100.095 207.421C100.476 208.388 101.749 209.461 102.457 210.186C102.604 210.336 103.225 210.895 103.16 210.859C102.856 210.69 102.586 210.423 102.33 210.193C101.476 209.429 100.553 208.766 99.662 208.048C97.6634 206.438 95.9386 204.472 94.0264 202.757C92.6583 201.529 91.3267 200.262 89.9454 199.049C88.9823 198.204 87.9459 197.413 86.9109 196.658C86.2732 196.192 85.5165 195.683 84.9452 195.155C81.8184 192.269 91.1723 200.961 94.1385 204.012C96.2363 206.17 98.3173 208.333 100.439 210.455C101.213 211.229 101.859 211.91 102.487 212.802C102.739 213.16 103.031 213.637 103.324 213.953C103.405 214.04 104.114 214.876 103.803 214.686C103.232 214.337 102.746 213.822 102.188 213.445C101.018 212.653 99.8538 211.856 98.6903 211.053C96.6 209.611 94.6179 208.044 92.5913 206.516C91.1386 205.421 89.7006 204.247 88.1068 203.362C87.5054 203.028 85.8623 201.835 86.298 202.368C88.8389 205.473 90.9488 208.912 93.4658 212.025C95.4811 214.517 97.6118 216.782 99.7965 219.095C100.264 219.59 100.549 220.331 100.94 220.897C101.174 221.235 101.232 221.43 100.738 221.083C99.8735 220.476 98.9893 219.887 98.0625 219.372C97.4663 219.041 96.9705 218.563 96.3808 218.236C96.2145 218.143 96.5123 219.933 96.5377 220.037C96.9782 221.833 97.3436 224.446 98.7202 225.822" stroke="#171717" stroke-width="4" stroke-linecap="round"/>
<path d="M185.649 101.398C186.084 101.094 186.85 101.679 187.202 101.902C188.627 102.803 189.972 103.763 191.462 104.567C195.111 106.535 198.6 108.72 202.048 111.019C204.161 112.428 206.404 113.888 208.395 115.468C210.317 116.992 212.517 118.141 214.543 119.528" stroke="#171717" stroke-width="4" stroke-linecap="round"/>
<path d="M164.121 114.618C165.592 114.773 167.647 116.485 168.842 117.304C171.136 118.876 173.282 120.625 175.452 122.361C180.871 126.696 186.556 130.764 191.882 135.203" stroke="#171717" stroke-width="4" stroke-linecap="round"/>
<path d="M126.266 108.55C128.144 108.644 130.208 110.149 131.713 111.13C133.401 112.231 135.065 113.239 136.587 114.57" stroke="#171717" stroke-width="4" stroke-linecap="round"/>
<path d="M130.279 106.113C131.611 106.471 132.771 107.09 134.006 107.69" stroke="#171717" stroke-width="4" stroke-linecap="round"/>
<path d="M162.811 97.2344C163.713 97.2845 164.631 97.7069 165.412 98.1253C168.12 99.576 170.87 100.948 173.525 102.497C181.046 106.884 187.961 112.45 194.67 117.975" stroke="#171717" stroke-width="4" stroke-linecap="round"/>
<path d="M175.679 200.4C189.155 200.4 200.079 189.475 200.079 176C200.079 162.524 189.155 151.6 175.679 151.6C162.204 151.6 151.279 162.524 151.279 176C151.279 189.475 162.204 200.4 175.679 200.4Z" stroke="#171717" stroke-width="2" stroke-linecap="round" stroke-linejoin="round"/>
<path d="M222.4 186.32C235.876 186.32 246.8 175.395 246.8 161.92C246.8 148.444 235.876 137.52 222.4 137.52C208.924 137.52 198 148.444 198 161.92C198 175.395 208.924 186.32 222.4 186.32Z" stroke="#171717" stroke-width="2" stroke-linecap="round" stroke-linejoin="round"/>
<path d="M152.12 183.08L115 194.5" stroke="#171717" stroke-width="2" stroke-linecap="round" stroke-linejoin="round"/>
<path d="M252 153L245.76 154.88" stroke="#171717" stroke-width="2" stroke-linecap="round" stroke-linejoin="round"/>
<path d="M162.84 155.799C161.2 156.279 159.76 157.719 158.56 158.959C157.32 160.239 156.52 161.679 155.8 163.319C155.2 164.679 154.36 166.359 154.04 167.759C153.8 168.759 153.36 169.719 153.16 170.759C153 171.519 153.24 172.279 153.08 173.039C152.8 174.399 153.4 176.639 153.52 178.039C153.64 179.639 154.16 181.239 154.64 182.839C155.16 184.519 155.64 186.599 156.52 188.039C157.12 188.999 158.08 191.239 158.96 191.919C161.44 193.679 164.24 195.399 166.96 196.919C168.2 197.599 169.6 198.079 170.88 198.639C171.52 198.919 172.8 198.799 173.52 198.879C174.32 198.999 175.28 199.319 176.04 199.079C177.8 198.559 179.32 199.159 181.04 199.159C181.72 199.159 185.72 198.159 185.92 197.559C186.12 197.039 187.24 196.559 187.64 196.159C188.44 195.399 188.88 194.359 189.8 193.639C191 192.719 192.76 191.639 193.48 190.199C194.68 187.839 195.68 185.439 196.88 183.079C197.52 181.799 197.36 180.199 197.56 178.759C197.8 177.199 198.48 174.839 198 173.319C197 170.039 196.68 166.359 195 163.279C194.28 161.999 193.64 160.519 192.6 159.479C191.36 158.279 190.32 157.719 188.8 156.879C185.84 155.199 182.48 153.479 179.2 152.839C177.12 152.439 176 152.119 173.92 152.759C172.28 153.239 170.32 152.879 168.72 153.359C167.16 153.839 165.44 154.039 163.84 154.519C162.36 154.959 159.68 155.879 158.76 157.199C158.16 158.039 157.2 158.599 156.44 159.239C155.76 159.839 155.56 160.599 155.12 161.479C154.36 162.959 153.48 165.919 153.16 168.519" stroke="#171717" stroke-width="2" stroke-linecap="round"/>
<path d="M207.68 179.24C208.64 180.76 210.36 181.88 211.88 182.8C213.44 183.76 215 184.2 216.76 184.56C218.2 184.84 220.04 185.28 221.44 185.28C222.44 185.28 223.44 185.52 224.48 185.48C225.24 185.48 225.88 185.08 226.64 185.04C228 185 229.92 183.92 231.2 183.48C232.68 183 234 182.12 235.36 181.28C236.76 180.4 238.56 179.44 239.68 178.24C240.4 177.4 242.24 175.96 242.6 174.92C243.56 172.08 244.32 168.88 244.96 165.88C245.24 164.48 245.28 163 245.44 161.6C245.52 160.92 245 159.68 244.92 158.92C244.8 158.12 244.8 157.08 244.36 156.36C243.36 154.76 243.48 153.08 243 151.4C242.8 150.76 240.72 147 240.08 146.92C239.52 146.84 238.76 145.84 238.28 145.52C237.32 144.92 236.2 144.68 235.32 143.96C234.12 142.96 232.56 141.48 231.04 141.08C228.48 140.4 225.96 139.96 223.36 139.32C222 138.96 220.52 139.52 219.12 139.6C217.56 139.72 215.2 139.56 213.88 140.36C211.12 142.08 207.76 143.24 205.36 145.6C204.36 146.6 203.16 147.56 202.52 148.84C201.76 150.36 201.56 151.52 201.2 153.2C200.52 156.52 199.84 160.24 200.24 163.64C200.48 165.8 200.52 167 201.68 168.88C202.64 170.4 202.84 172.44 203.76 173.92C204.64 175.36 205.32 177 206.28 178.52C207.12 179.88 208.76 182.36 210.24 182.96C211.2 183.36 212 184.2 212.84 184.8C213.6 185.36 214.36 185.36 215.32 185.6C216.92 186 219.96 186.24 222.48 185.96" stroke="#171717" stroke-width="2" stroke-linecap="round"/>
<path d="M152 183C148.52 184.04 145.36 183.52 142.4 185.56C139.2 187.76 136 189.44 132.2 190.6C128.96 191.56 125.88 192.12 122.56 193.12C120.76 193.68 116.88 194.92 115 195" stroke="#171717" stroke-width="2" stroke-linecap="round"/>
<path d="M252 153.999C249.76 154.679 247.66 154.359 245.5 154.999" stroke="#171717" stroke-width="2" stroke-linecap="round"/>
<path d="M180.587 164.124C179.687 162.963 178.981 161.905 177.682 161.175C176.074 160.272 174.155 160.068 172.353 160.153C170.109 160.258 165.367 162.63 165.615 165.423C165.875 168.366 166.923 170.967 168.745 173.317C169.582 174.396 171.682 175.257 172.981 175.588C173.909 175.826 174.765 175.91 175.724 175.935C176.883 175.966 177.906 176.095 179.054 176.241C182.242 176.644 185.988 179.074 186.239 182.582C186.3 183.425 185.789 184.086 185.515 184.839C185.173 185.776 184.745 186.641 184.225 187.489C183.265 189.055 181.099 189.45 179.412 189.571C178.613 189.628 177.577 189.511 176.833 189.2C176.175 188.924 175.373 188.916 174.775 188.539C174.026 188.067 173.105 187.981 172.499 187.199C172.116 186.706 172.476 187.169 172.649 187.393C172.998 187.843 173.502 187.998 174.004 188.209C174.488 188.413 175.09 188.863 175.591 188.926C176.137 188.995 176.674 189.106 177.199 189.272C178.436 189.662 179.646 189.196 180.828 188.84C181.837 188.536 182.948 188.273 183.796 187.616C184.156 187.336 184.669 187.064 184.932 186.688C185.235 186.258 185.175 185.888 185.35 185.425C185.75 184.372 185.771 182.861 185.496 181.772C185.212 180.644 184.114 179.441 183.343 178.596C182.549 177.725 180.771 176.471 179.561 176.363C178.959 176.309 178.364 175.943 177.768 175.794C177.059 175.617 176.276 175.584 175.548 175.442C174.272 175.194 172.81 174.951 171.574 174.572C170.462 174.23 169.16 173.755 168.261 173.017C167.139 172.095 165.695 170.786 165.416 169.289C164.89 166.47 165.549 164.443 167.891 162.627C169.068 161.715 170.02 160.681 171.608 160.788C173.019 160.882 174.508 161.065 175.918 161.042C176.679 161.03 178.209 161.935 178.831 162.392C179.577 162.939 180.087 163.745 180.658 164.481" stroke="#171717" stroke-width="2" stroke-linecap="round"/>
<path d="M228.523 150.9C227.623 149.74 226.917 148.681 225.619 147.952C224.01 147.048 222.091 146.844 220.289 146.929C218.045 147.035 213.304 149.406 213.551 152.2C213.811 155.142 214.86 157.743 216.682 160.093C217.518 161.172 219.619 162.033 220.917 162.365C221.846 162.602 222.702 162.687 223.661 162.712C224.82 162.742 225.843 162.872 226.99 163.017C230.178 163.42 233.924 165.85 234.176 169.359C234.236 170.201 233.726 170.862 233.451 171.616C233.11 172.553 232.681 173.417 232.161 174.266C231.201 175.831 229.036 176.226 227.349 176.347C226.55 176.405 225.513 176.287 224.77 175.976C224.112 175.7 223.31 175.693 222.711 175.315C221.963 174.843 221.042 174.757 220.436 173.976C220.053 173.482 220.412 173.945 220.585 174.169C220.934 174.619 221.439 174.774 221.94 174.986C222.425 175.19 223.027 175.639 223.527 175.702C224.073 175.772 224.61 175.882 225.135 176.048C226.373 176.438 227.582 175.972 228.764 175.617C229.773 175.313 230.885 175.049 231.732 174.392C232.093 174.112 232.605 173.84 232.869 173.465C233.172 173.034 233.111 172.664 233.287 172.201C233.687 171.148 233.708 169.637 233.433 168.549C233.148 167.421 232.05 166.218 231.28 165.373C230.485 164.501 228.707 163.247 227.497 163.139C226.896 163.086 226.301 162.72 225.705 162.57C224.996 162.393 224.212 162.36 223.484 162.218C222.209 161.97 220.746 161.728 219.51 161.348C218.399 161.006 217.096 160.532 216.197 159.793C215.075 158.871 213.632 157.563 213.352 156.065C212.826 153.246 213.486 151.219 215.828 149.404C217.004 148.491 217.956 147.457 219.544 147.564C220.955 147.659 222.444 147.841 223.855 147.819C224.615 147.807 226.145 148.711 226.768 149.168C227.514 149.715 228.023 150.521 228.594 151.257" stroke="#171717" stroke-width="2" stroke-linecap="round"/>
<path d="M169.761 157.166C169.999 159.785 171.064 162.439 171.717 164.978C172.502 168.034 173.852 170.765 175.139 173.624C176.225 176.038 177.083 178.545 178.153 180.965C179.087 183.077 179.358 185.485 180.353 187.547C181.249 189.403 183.225 195.277 182.544 193.331C181.531 190.438 180.728 187.507 179.946 184.55C179.303 182.124 178.303 179.811 177.71 177.371C177.085 174.801 175.273 173.099 174.324 170.727C173.802 169.422 173.199 168.118 172.894 166.744C172.654 165.667 172.045 164.734 171.753 163.684C171.186 161.644 170.101 159.815 169.436 157.818" stroke="#171717" stroke-width="2" stroke-linecap="round"/>
<path d="M217.697 143.941C217.935 146.56 218.999 149.215 219.652 151.754C220.438 154.809 221.788 157.54 223.074 160.399C224.16 162.813 225.018 165.321 226.089 167.741C227.023 169.852 227.294 172.261 228.289 174.322C229.185 176.179 231.16 182.053 230.479 180.107C229.467 177.213 228.664 174.283 227.881 171.326C227.239 168.899 226.239 166.587 225.645 164.147C225.02 161.577 223.209 159.875 222.259 157.502C221.737 156.197 221.135 154.894 220.829 153.519C220.59 152.442 219.98 151.509 219.689 150.459C219.122 148.42 218.037 146.59 217.371 144.593" stroke="#171717" stroke-width="2" stroke-linecap="round"/>
<path d="M279.399 77.7605C304.753 132.862 283.764 166.03 265.613 179M267.959 65.7205L279.359 77.7205M279.359 77.7605L285.359 60.4805" stroke="#171717" stroke-width="2" stroke-linecap="round" stroke-linejoin="round"/>
<path d="M129.479 229.801C109.239 236.121 65.1588 231.841 42.1988 169.121L41.8388 152.561M42.2388 169.121L25.7988 161.121" stroke="#171717" stroke-width="2" stroke-linecap="round" stroke-linejoin="round"/>
<path d="M285.76 60.1602C285.08 61.4002 284.92 63.4802 284.84 64.8802C284.68 66.9602 282.88 69.3202 282.12 71.2402C281.28 73.3602 280.88 75.6402 279.16 77.2402" stroke="#171717" stroke-width="2" stroke-linecap="round"/>
<path d="M265.77 176.898C268.161 175.835 268.973 173.222 270.429 171.35C271.736 169.669 274.103 168.637 275.647 167.149C277.857 165.021 279.041 162.314 280.809 159.866C281.837 158.443 282.207 156.526 282.988 154.963C283.919 153.101 284.771 151.252 285.396 149.286C286.619 145.442 288.253 141.956 289.009 137.96C289.968 132.893 289.954 127.624 290.615 122.505C290.974 119.724 290.672 116.743 290.672 113.932" stroke="#171717" stroke-width="2" stroke-linecap="round"/>
<path d="M290.415 113.931C290.415 112.464 290.415 110.997 290.415 109.53C290.415 106.778 290.177 104.594 289.526 101.931C288.576 98.0455 287.288 93.8602 285.254 90.3902C284.318 88.794 283.86 86.8455 283.06 85.1573C282.22 83.3827 280.951 81.6803 279.835 80.0678C278.736 78.4807 276.739 77.6014 275.591 76.1252C274.638 74.8997 273.712 73.733 272.867 72.4407C271.344 70.1119 269.484 67.9544 267.964 65.6738" stroke="#171717" stroke-width="2" stroke-linecap="round"/>
<path d="M129.159 228.6C125.999 230.28 123.439 231.68 119.799 231.84C118.119 231.92 116.519 231.4 114.879 231.28C113.079 231.12 111.279 230.96 109.519 230.68C107.079 230.24 104.159 230.8 101.879 229.8C99.1595 228.64 96.2395 227.84 93.5195 227C88.1995 225.36 83.2795 224 78.5195 220.92C77.3195 220.16 75.8395 219.52 74.5595 218.92C73.1195 218.28 72.7195 217.48 71.7195 216.32C69.9995 214.28 68.0395 212.08 66.6395 209.8C65.4395 207.8 62.5995 206.52 61.3195 204.44C60.6795 203.4 59.3595 201.8 58.3995 201.08C57.1995 200.2 56.4795 198.84 55.2395 198.04C52.1995 193.48 50.4395 188.8 47.9195 184.08C47.2795 182.88 46.6395 181.6 46.3995 180.28C46.1595 179 43.7195 177.92 43.2795 176.72C42.8795 175.72 43.3195 174.44 42.7195 173.32C42.1995 172.32 41.5595 170.36 41.5595 169.24C41.5995 166.36 40.1995 163.68 40.7195 160.68C41.1595 158.08 40.8395 155.96 40.7595 153.48" stroke="#171717" stroke-width="2" stroke-linecap="round"/>
<path d="M25.6797 161.561C27.0397 161.961 28.5997 163.321 29.6797 164.281C31.2397 165.641 34.1997 166.041 36.0797 166.921C38.1597 167.841 40.0397 169.161 42.3997 169.081" stroke="#171717" stroke-width="2" stroke-linecap="round"/>
<path d="M76.7094 118.645C76.5431 118.624 76.2344 117.027 76.1299 116.771C75.4726 115.157 74.7933 113.744 74.3372 112.044C73.5802 109.223 72.9609 106.238 72.9609 103.289C72.9609 100.296 73.3428 97.7132 74.5092 94.9317C75.1309 93.4491 75.928 91.8927 76.7094 90.4861C76.9813 89.9967 77.5233 88.5451 77.7235 89.6712C78.4949 94.0107 78.3392 98.6812 78.3392 103.081C78.3392 106 78.1762 108.931 78.1762 111.836C78.1762 112.276 78.2108 115.208 78.5836 113.493C79.4643 109.442 80.1412 105.379 80.4216 101.243C80.6833 97.3831 81.1097 93.4295 81.1097 89.5626C81.1097 89.3257 81.2382 87.4899 81.2727 88.458C81.3237 89.8861 81.685 91.3584 81.9246 92.7678C82.5235 96.2903 82.7408 99.8778 83.3099 103.407C83.4714 104.408 83.4606 105.429 83.6811 106.422C83.837 107.123 83.8954 107.416 84.0795 106.422C85.1889 100.431 86.8702 94.5461 87.1308 88.4217C87.2426 85.7952 87.2019 83.1694 87.3028 80.5446C87.3226 80.0309 87.4658 81.0114 87.4658 81.1693C87.4658 82.7395 87.9661 84.3093 88.1087 85.8775C88.4195 89.2968 89.0956 92.7136 89.0956 96.1541C89.0956 97.3432 89.0956 98.5323 89.0956 99.7214C89.0956 99.7888 89.0973 101.357 89.4215 100.79C90.0017 99.7745 91.3109 99.0808 92.0292 98.1098C93.4534 96.1844 93.8904 93.8636 94.4376 91.5907C94.8976 89.6797 94.7997 87.756 94.7997 85.8051C94.7997 83.7346 94.7572 81.6939 94.4738 79.6391C94.4066 79.152 94.3329 78.5063 94.1116 78.0637C94.0175 77.8754 93.3002 79.6595 93.2062 79.8927C92.576 81.4555 92.2755 83.317 92.2012 84.9902C92.1429 86.3016 92.0407 87.3649 93.007 88.3312C93.7892 89.1134 95.1657 91.1018 96.4295 91.1018C96.8857 91.1018 97.245 90.4826 97.5885 90.1964C98.8334 89.1589 100.061 88.2547 100.821 86.7829C102.251 84.0126 100.209 80.3928 99.6528 77.611C99.5369 77.0313 99.4296 76.5844 99.2001 77.3303C98.7718 78.7223 98.4933 80.1907 98.3852 81.6492C98.1473 84.8612 97.7333 88.0404 97.7333 91.2648C97.7333 92.1044 98.294 91.3087 98.4939 91.0022C99.7121 89.1342 101.799 87.9083 103.012 85.9771C104.481 83.637 104.895 80.4473 105.429 77.774C105.596 76.9398 105.625 76.8515 106.118 77.7468C106.586 78.5978 107.099 79.7751 107.177 80.7438C107.253 81.6988 107.186 82.6831 107.186 83.6411C107.186 84.4994 106.986 84.9237 107.385 83.8584C108.105 81.9378 108.829 80.0109 109.549 78.0909C109.687 77.7232 109.739 77.0177 110.12 77.4933C110.497 77.9646 111.845 78.2485 112.401 78.3534C113.199 78.504 114.029 78.8786 114.846 78.8786" stroke="#FFD424" stroke-width="4" stroke-linecap="round"/>
<path d="M81.1953 122.195C81.1953 121.035 81.2393 119.93 81.4081 118.782C81.4711 118.354 81.7255 115.117 82.2594 115.117C82.5571 115.117 83.5466 117.153 83.7491 117.434C84.3045 118.205 85.0882 118.812 85.8063 119.42C86.4403 119.957 86.6552 119.75 87.0202 119.065C87.728 117.738 88.3105 116.456 88.7858 115.03C89.5022 112.88 90.0855 110.761 90.6302 108.582C90.7961 107.919 90.9849 107.164 90.9849 108.291C90.9849 109.282 91.2221 110.521 91.4893 111.475C91.6586 112.079 91.8181 112.665 92.1199 113.193C92.6094 114.05 93.5648 112.382 93.7515 112.106C94.531 110.951 94.9922 109.588 95.6668 108.369C96.3066 107.214 96.9098 106.068 97.4482 104.862C98.3827 102.769 98.9841 100.386 99.5606 98.1621C99.6561 97.7936 99.7777 97.513 99.9153 97.169C100.021 96.9055 99.9101 97.7372 99.931 98.0203C100.077 99.989 100.349 101.987 100.349 103.963C100.349 104.657 100.478 105.331 100.491 106.021C100.498 106.4 100.426 106.806 100.601 107.156C100.728 107.41 101.244 105.632 101.342 105.39C102.588 102.31 103.8 99.1407 104.432 95.8685C104.769 94.1237 104.821 92.2819 105.204 90.5559C105.417 89.5984 105.678 91.4812 105.709 91.7225C105.994 93.9751 106.71 96.18 106.733 98.4695C106.736 98.6921 106.64 101.296 107.017 100.74C107.605 99.8726 108.001 98.8039 108.467 97.8705C109.423 95.9588 110.372 94.0508 111.1 92.0378C111.691 90.4027 111.838 88.8417 112.093 87.1509C112.106 87.0682 112.136 86.0789 112.267 86.0789C112.267 86.0789 112.266 86.4645 112.267 86.473C112.274 86.7981 112.337 87.1129 112.377 87.4346C112.594 89.1944 112.795 91.0241 112.834 92.7944C112.839 93.0229 112.87 93.4922 113.118 93.0467C113.624 92.1353 114.254 91.3293 114.71 90.3825C116.019 87.6613 116.974 85.0294 117.8 82.1378C117.866 81.906 117.896 81.617 118.052 81.4442C118.175 81.3071 118.409 81.1187 118.115 81.3339C116.539 82.4859 115.025 83.9171 113.543 85.1961C112.388 86.193 111.225 87.4587 109.855 88.144" stroke="#171717" stroke-width="4" stroke-linecap="round"/>
<path d="M77.0803 125.081C71.6803 115.641 65.6403 94.8805 80.3603 81.7205C94.4403 69.1205 114 74.5605 121.04 78.5205" stroke="#171717" stroke-width="2" stroke-linecap="round" stroke-linejoin="round"/>
<path d="M77.1342 78.6826C92.6722 66.278 102.81 53.1431 99.7779 49.345C96.7456 45.5468 81.6915 52.5236 66.1535 64.9282C50.6156 77.3327 40.4776 90.4676 43.5099 94.2658C46.5421 98.064 61.5962 91.0871 77.1342 78.6826Z" stroke="#171717" stroke-width="2"/>
<path d="M103.393 105.803C115.837 93.1624 124.101 81.1182 121.849 78.9021C119.598 76.6861 107.685 85.1372 95.2412 97.7783C82.797 110.419 74.5339 122.463 76.7851 124.68C79.0362 126.896 90.9491 118.445 103.393 105.803Z" stroke="#171717" stroke-width="2"/>
<path d="M71.4004 71.6396L80.3604 81.7197" stroke="#171717" stroke-width="2" stroke-linecap="round" stroke-linejoin="round"/>
<path d="M119.562 78.8002C118.682 78.4802 117.402 78.8402 116.642 78.3602C115.442 77.6002 113.922 77.0002 112.562 76.5602C111.002 76.0402 109.402 75.6002 107.922 75.1202C104.642 74.0402 101.082 75.7602 97.762 75.6002C96.802 75.5602 95.802 75.6002 94.802 75.4802C94.082 75.3602 93.082 75.0802 92.322 75.2802C91.522 75.4802 90.722 75.6402 89.922 75.9202C88.642 76.4002 88.162 77.4002 87.122 78.1602C84.082 80.4802 81.802 83.6802 78.842 85.8802C77.482 86.9202 76.402 88.6402 75.202 89.9602C74.002 91.2802 73.082 93.0002 72.562 94.6802C71.442 98.3602 71.762 102.24 71.642 105.96C71.522 109.24 73.482 112.68 74.642 115.76C75.842 118.96 76.522 122.08 77.722 125.28" stroke="#171717" stroke-width="2" stroke-linecap="round"/>
<path d="M71.6406 71.2002C72.0406 72.2802 72.3206 73.8402 73.1606 74.6402C73.8406 75.3202 74.4406 75.9602 75.1606 76.6402C76.8806 78.2402 79.0006 79.3202 79.8806 81.6402" stroke="#171717" stroke-width="2" stroke-linecap="round"/>
<path d="M78.669 75.781C74.6449 77.504 71.4258 80.0056 67.8328 82.3916C65.5322 83.9372 63.9007 85.8432 61.2575 86.9344C60.0785 87.4335 58.9519 88.3112 57.7742 88.8526C56.4345 89.4831 55.0886 89.9027 53.8772 90.6984C52.0203 91.9354 49.2426 92.6505 47.1701 93.5559C46.4386 93.873 45.0828 93.9551 44.7726 93.2041C44.283 91.9516 45.0708 90.746 45.4847 89.4247C46.0483 87.5923 47.2361 85.9949 48.171 84.1938C48.95 82.6929 49.7115 81.9948 50.9529 80.8182C52.274 79.5547 53.8904 78.5359 55.2551 77.3556C56.7806 76.0439 58.2637 74.6913 59.9175 73.5447C60.5631 73.1034 61.2374 72.239 61.7135 71.6338C62.389 70.8116 63.3187 70.2353 64.0802 69.5373C65.2007 68.4486 66.5255 67.3118 67.7743 66.3882C69.3446 65.2019 70.9823 63.5069 72.3408 62.1156C73.6183 60.769 75.0353 59.9672 76.4847 58.8689C78.5772 57.2449 80.4953 55.2882 82.9728 54.1597C87.2362 52.1764 91.6591 50.0194 96.1379 48.3676C96.6676 48.1831 98.1118 48.3096 98.6501 48.4205C99.6856 48.6435 99.9534 49.3535 100.266 50.1889C100.71 51.2738 100.111 51.9249 99.7311 52.9918C99.3109 54.1021 98.8982 55.4656 98.1454 56.4589C95.4532 60.0853 91.91 62.7654 88.4166 65.7396C83.7193 69.7628 80.2842 74.7201 75.3376 78.666" stroke="#171717" stroke-width="2" stroke-linecap="round"/>
<path d="M78.0918 124.072C78.0918 122.057 79.4585 120.262 80.4059 118.578C80.9653 117.583 81.845 116.749 82.5485 115.845C83.4222 114.721 84.2986 113.609 85.2911 112.588C87.1082 110.719 88.5163 108.542 90.2525 106.588C91.4174 105.278 92.2004 103.664 93.3094 102.303C94.5648 100.762 95.7742 99.1854 96.9566 97.5892C98.2625 95.8263 99.9417 94.2529 101.328 92.5325C103.093 90.3408 105.361 88.5433 107.365 86.5712C108.78 85.1783 110.503 84.4647 112.031 83.2763C112.828 82.657 113.807 82.4411 114.641 81.905C116.111 80.9597 119.287 79.5 121.001 79.5" stroke="#171717" stroke-width="2" stroke-linecap="round"/>
<path d="M122.331 80.043C122.331 82.515 122.095 84.8664 121.368 87.2387C120.926 88.6788 119.807 90.0705 118.954 91.298C118.152 92.4508 117.186 93.5623 116.493 94.7889C115.913 95.814 114.969 96.6733 114.145 97.4973C112.861 98.7817 111.552 100.198 110.053 101.229C107.72 102.833 105.859 105.345 103.312 106.619C102.581 106.984 101.889 107.424 101.158 107.789C100.542 108.097 100.011 108.842 99.4596 109.267C98.3495 110.124 97.2086 111.016 96.156 111.942C95.6279 112.407 95.1671 112.937 94.6178 113.387C94.1247 113.79 93.762 114.345 93.2536 114.711C91.7522 115.792 90.5065 117.225 88.987 118.295C88.0966 118.923 87.1407 119.458 86.2184 120.034C85.5112 120.476 84.8662 121.028 84.1118 121.392C82.144 122.339 80.1824 123.275 78.6348 124.822" stroke="#171717" stroke-width="2" stroke-linecap="round"/>
<path d="M234.36 183.48C239.76 181.48 244.36 183.48 244.36 189.08C244.36 193.08 239.12 195.6 234.36 197.72M234.36 197.72C224.24 202.16 205.92 205.36 183.36 201.28C150.16 195.28 140.16 230.48 183.36 247.88C226.56 265.28 252.96 224.92 234.36 197.72Z" stroke="#171717" stroke-width="2" stroke-linecap="round" stroke-linejoin="round"/>
<path d="M181.959 200.88L165.159 237.28M205.359 203.68L202.499 251.5M223.999 201.5L233.559 237.28" stroke="#171717" stroke-width="2" stroke-linecap="round" stroke-linejoin="round"/>
<path d="M183.399 255.32C187.199 258 198.159 262.72 211.599 260.32" stroke="#171717" stroke-width="2" stroke-linecap="round" stroke-linejoin="round"/>
<path d="M205.719 204.36C205.719 205.2 205.719 206 205.719 206.84C205.719 207.76 205.479 208.56 205.439 209.44C205.399 210.24 205.159 210.96 205.159 211.76C205.159 212.6 205.039 213.4 205.039 214.2C204.959 216.36 205.439 218.44 205.439 220.52" stroke="#171717" stroke-width="2" stroke-linecap="round"/>
<path d="M205.44 220.641C205.44 221.921 205.32 223.201 205.32 224.481C205.32 226.081 205.12 227.641 205.04 229.241C205 230.401 205.12 231.961 204.84 233.081C204.64 233.841 204.64 234.801 204.64 235.561C204.64 236.561 204.4 237.561 204.36 238.521C204.32 239.921 203.8 241.241 203.8 242.641C203.8 243.841 203.52 245.041 203.52 246.201C203.52 247.281 202.5 250.42 202.5 251.5" stroke="#171717" stroke-width="2" stroke-linecap="round"/>
<path d="M233.499 235.5C233.499 234.5 232.479 230.801 232.039 230.001C231.839 229.641 231.879 229.161 231.679 228.761C231.479 228.321 231.359 227.881 231.159 227.481C231.039 227.201 230.879 226.441 230.839 226.121C230.799 225.401 230.559 224.641 230.439 223.921C230.279 222.801 229.519 221.841 229.319 220.721C228.959 218.721 228.799 216.721 228.239 214.761C227.759 213.041 226.719 211.441 226.559 209.641C226.439 208.201 226.439 206.641 226.119 205.201C225.959 204.481 225.759 203.801 225.759 203.081C225.759 202.441 225.559 202.241 225.359 201.641" stroke="#171717" stroke-width="2" stroke-linecap="round"/>
<path d="M166.099 235.474C166.099 233.899 167.392 232.434 167.889 230.997C168.362 229.632 169.06 228.563 169.946 227.415C170.83 226.269 171.741 225.205 172.483 223.95C173.252 222.647 173.631 221.081 174.157 219.688C174.798 217.992 175.287 216.237 175.948 214.548C176.522 213.081 177.239 211.671 177.921 210.253C178.288 209.491 178.712 208.775 179.082 208.015C179.393 207.376 179.514 206.703 179.828 206.075C180.101 205.529 180.407 205.048 180.84 204.616C181.191 204.265 181.466 203.539 181.918 203.389" stroke="#171717" stroke-width="2" stroke-linecap="round"/>
<path d="M182.32 255.16C182.24 255.16 182.52 255.16 182.6 255.2C182.88 255.32 183.2 255.48 183.48 255.6C184.04 255.88 184.44 256.28 184.92 256.64C185.88 257.4 186.84 257.72 188.04 258.04C189.12 258.28 190.16 258.32 191.24 258.72C192 259 192.8 259.36 193.6 259.52C195.44 259.92 197.28 260.6 199.16 260.76C199.8 260.8 200.44 261.12 201.08 261.12C201.76 261.12 202.44 261.2 203.12 261.2C203.72 261.2 204.28 261.12 204.88 261.12C205.6 261.12 210.5 261.12 211.5 260.5" stroke="#171717" stroke-width="2" stroke-linecap="round"/>
<path d="M234.2 183.04C238.12 183.04 242.4 183.48 243.92 187.56C244.72 189.68 244.28 191.2 242.32 192.4C241.44 192.96 240.72 194.12 239.6 194.36C237.96 194.72 236.16 195.88 234.64 196.56C227.72 199.76 219.92 199.64 212.56 200.76C209.32 201.24 206.16 202.04 202.96 202.72C199.68 203.44 196.4 203.44 193 203.44C191.24 203.44 189.48 203.56 187.8 203.16C186.12 202.76 184.52 202.08 182.84 201.88C179.56 201.52 176.56 201 173.24 201C170.84 201 167.28 200.4 165.16 201.68C164.56 202.04 163.64 202.4 162.96 202.56C162.08 202.76 161.48 203.44 160.68 203.68C159.72 203.96 158.84 205.4 158.2 206.12C157.56 206.8 157.04 207.72 156.56 208.56C156.04 209.52 156.16 210.44 156.16 211.56C156.16 214.04 155.92 216.4 155.92 218.88C155.92 223.8 157.68 228.96 160.36 233.08C161.88 235.4 164.32 237.72 166.56 239.36C169.12 241.16 171.64 242.28 174.48 243.44C178.64 245.16 183.08 246.6 187.24 248.4C189.44 249.36 191.84 251.04 194.28 251.4C195.64 251.6 197.28 251.92 198.56 252.4C199.92 252.92 202.12 252.52 203.6 252.52C205.68 252.52 207.88 252.72 209.76 251.8C210.64 251.36 211.52 250.88 212.24 250.2C212.8 249.68 213.76 249.12 214.52 248.96C215.44 248.76 216.16 248.76 217 247.52C219.24 246.44 221.12 245.68 223.44 244.64C225.2 243.88 226.88 242 228.48 240.96C228.84 240.72 229.92 240.28 230.12 239.96C230.32 239.64 230.84 239.16 231.16 238.96C231.92 238.52 232 237.48 232.36 236.76C233.32 234.68 234.44 233.08 235.92 231.32C237.6 229.32 238.96 227 239.4 224.48C239.8 222.24 240.32 219.84 240.32 217.52C240.32 216.56 240.32 215.64 240.32 214.68C240.32 213.4 239.72 212.2 239.64 210.96C239.56 209.96 238.92 208.28 238.4 207.36C237.72 206.16 237.12 204.92 236.52 203.68C236.28 203.16 235.84 201.76 235.44 201.48C235.12 201.24 234.44 199.88 234.44 199.48" stroke="#171717" stroke-width="2" stroke-linecap="round"/>
<path d="M265 254.321C285 240.401 323.64 224.521 318.2 272.521L337.2 265.521" stroke="#171717" stroke-width="2" stroke-linecap="round" stroke-linejoin="round"/>
<path d="M154.401 289.721C141.681 300.001 121.561 330.481 143.001 370.321H122.801" stroke="#171717" stroke-width="2" stroke-linecap="round" stroke-linejoin="round"/>
<path d="M154 289.5C151.9 292.04 147.16 296.92 145.2 300.4C143.28 303.8 140 308.08 137.64 311.04C135.28 313.96 134.08 319.56 134.08 323.44C134.08 327.64 133.32 332.56 133.32 337.16C133.32 342 135.28 347 135.28 351.6C135.28 356.56 137.4 360.24 139.56 364.56C140.48 366.44 142.16 369.36 142.16 371.56C142.16 372.8 135.08 370.68 134.44 370.52C130.08 369.56 124.48 370.48 120 370.48" stroke="#171717" stroke-width="2" stroke-linecap="round"/>
<path d="M265 253C266.64 252.16 273.44 247.961 274.8 246.881C277.4 244.801 281.88 244.481 284.64 242.281C290.32 237.721 302 238.521 308.68 240.401C313.16 241.681 316.88 244.481 316.88 249.321C316.88 253.001 315.56 259.721 317.04 263.041C317.68 264.441 318.2 277.641 320.6 272.321C322.08 269.041 332.92 265.201 336.6 265.201" stroke="#171717" stroke-width="2" stroke-linecap="round"/>
<path d="M292.264 206.196C292.298 206.071 292.416 205.972 292.498 205.878C292.859 205.467 293.215 205.055 293.597 204.663C294.277 203.964 294.961 203.277 295.706 202.648C296.139 202.282 296.508 201.848 296.951 201.493C297.312 201.205 297.293 201.589 297.323 201.917C297.495 203.855 297.475 205.848 296.633 207.624C296.332 208.261 296.006 208.94 295.88 209.635C295.813 210.003 296.698 209.583 296.845 209.521C297.738 209.144 298.626 208.426 299.386 207.832C299.791 207.516 300.247 207.234 300.617 206.878C300.851 206.653 301.146 206.48 301.329 206.211C301.58 205.842 301.491 205.396 301.67 205.038" stroke="#FFD424" stroke-width="4" stroke-linecap="round"/>
<path d="M96.8457 293.692C97.2521 293.733 97.6591 294.231 97.9909 294.444C98.7583 294.936 99.5358 295.432 100.216 296.044C100.478 296.28 100.764 296.676 100.919 296.192C101.081 295.688 101.015 295.12 101.015 294.597C101.015 294.289 101.139 293.591 101.409 293.456" stroke="#C6C6C8" stroke-width="4" stroke-linecap="round"/>
<path d="M100.401 278.32C100.921 285.36 102.081 293.72 88.6406 294.28C93.7206 294.12 100.401 294.28 100.401 308.56C99.8406 303.6 99.0006 294.28 112.721 294.28C107.121 293.16 100.401 299.6 100.401 278.32Z" stroke="#171717" stroke-width="2" stroke-linecap="round" stroke-linejoin="round"/>
<path d="M313.76 122C314.28 129.04 315.44 137.4 302 137.96C307.08 137.8 313.76 137.96 313.76 152.24C313.2 147.28 312.36 137.96 326.08 137.96C320.48 136.84 313.76 143.28 313.76 122Z" stroke="#171717" stroke-width="2" stroke-linecap="round" stroke-linejoin="round"/>
<path d="M297.001 211.92C300.535 211.92 303.401 209.055 303.401 205.52C303.401 201.985 300.535 199.12 297.001 199.12C293.466 199.12 290.601 201.985 290.601 205.52C290.601 209.055 293.466 211.92 297.001 211.92Z" stroke="#171717" stroke-width="2"/>
<path d="M290.212 207.551C290.212 206.131 290.15 204.815 290.528 203.454C291.039 201.616 292.645 200.315 294.366 199.641C296.086 198.968 298.442 198.342 300.227 199.072C302.209 199.883 303.096 202.28 303.388 204.25C303.643 205.972 303.932 208.55 302.617 209.941C300.946 211.707 298.721 211.989 296.42 211.989C294.846 211.989 293.796 210.888 292.886 209.776C292.549 209.364 292.153 208.923 291.78 208.55C291.444 208.214 291.132 207.271 290.781 207.096" stroke="#171717" stroke-width="2" stroke-linecap="round"/>
</svg>
