<svg width="400" height="444" viewBox="0 0 400 444" fill="none" xmlns="http://www.w3.org/2000/svg">
<path d="M205.761 400.6C204.951 400.6 204.141 400.52 203.341 400.37L185.351 396.97C179.221 395.82 174.761 390.44 174.761 384.2V320.4C169.151 321.41 163.551 321.91 158.041 321.91C154.861 321.91 151.681 321.74 148.591 321.4C146.361 321.16 144.131 320.83 141.921 320.43V373.42L149.331 374.82C152.741 375.47 155.701 377.4 157.651 380.26C159.611 383.14 160.331 386.6 159.691 390.01C158.541 396.13 153.171 400.59 146.921 400.59C146.111 400.59 145.301 400.51 144.501 400.36L126.511 396.96C120.381 395.81 115.921 390.43 115.921 384.19V311.6C114.151 310.68 112.411 309.71 110.711 308.68L104.991 314.17C102.541 316.51 99.3505 317.79 95.9905 317.79C92.6305 317.79 89.0505 316.33 86.6105 313.8C84.2005 311.3 82.9205 308 82.9905 304.53C83.0005 303.98 83.0505 303.44 83.1305 302.9C80.2705 300.46 78.5405 296.85 78.5405 293C78.5405 292.9 78.5405 292.81 78.5405 292.72C72.1405 288.1 66.9005 282.77 62.9305 276.85C54.9805 264.99 52.2105 250.98 55.1405 237.39C56.6505 230.4 59.6805 223.66 63.9405 217.81C63.8405 213.89 63.8705 209.86 64.0305 205.81C52.8005 178.27 57.2605 158.49 63.0305 146.71C68.9205 134.67 77.4905 128.28 82.1805 125.5C82.3205 124.93 82.4805 124.36 82.6505 123.8C82.0005 119.61 81.0305 109.67 84.0205 98.9C82.8805 98.98 81.7905 99.02 80.7705 99.02C67.3905 99.02 62.8505 92.18 61.3405 88.11C57.4205 77.59 66.2305 68.96 71.8305 64.75C78.4005 59.81 88.0205 54.92 99.6605 50.58C112.381 45.83 125.131 43 133.731 43C147.101 43 151.641 49.83 153.161 53.91C154.921 58.65 155.021 65.59 147.111 73.39C151.281 75.52 154.551 77.83 156.741 79.56C156.781 79.56 157.271 79.52 157.271 79.52H157.811C227.741 79.52 251.811 122.64 254.771 145.44C255.251 149.15 254.111 152.88 251.651 155.69C251.581 155.77 251.511 155.85 251.431 155.93C257.691 170.58 261.791 186.87 263.341 203.24C263.441 204.31 263.531 205.4 263.611 206.51C264.081 207.35 264.441 208.23 264.711 209.15C269.651 226.27 278.241 237.6 283.381 238.3C283.561 238.32 283.751 238.34 283.931 238.34C287.571 238.34 294.551 233.34 303.231 219.29L303.471 218.89L313.231 205.23C315.651 201.83 319.611 199.79 323.811 199.79C326.531 199.79 329.141 200.63 331.361 202.21C335.16 204.93 337.101 209.39 336.761 213.81C341.761 215.62 345.351 220.42 345.351 226.04C345.351 233.21 339.521 239.04 332.351 239.04H321.361C309.631 255.83 297.041 264.34 283.931 264.34C282.571 264.34 281.201 264.25 279.861 264.06C272.381 263.04 265.211 259.06 258.841 252.46C258.401 253.66 257.941 254.82 257.461 255.92C247.001 279.79 225.921 300.66 200.761 312.18V373.43L208.171 374.83C211.581 375.48 214.531 377.41 216.491 380.27C218.461 383.16 219.181 386.62 218.531 390.03C217.381 396.14 212.011 400.6 205.761 400.6Z" fill="white"/>
<path d="M232.36 146.84C253.56 182.72 254.68 229.56 245.48 250.48C229.84 286.16 188.48 312.48 149.92 308.28C113.24 304.28 73.5599 274.76 76.9999 204.6" stroke="#171717" stroke-width="2" stroke-linecap="round"/>
<path d="M184.8 193.4C191.2 193.8 201.04 197.08 189.2 207" stroke="#171717" stroke-width="2" stroke-linecap="round" stroke-linejoin="round"/>
<path d="M230.88 146.6C232.36 150.84 233.88 155.04 236.48 158.32C239.52 162.16 241.32 168.52 243.8 173.04C246.16 177.4 249.8 182.36 249.8 187.44C249.8 190.92 251.96 194.44 251.96 197.96C251.96 201.28 251.96 204.6 251.96 207.92C251.96 215.04 251.6 223.2 248.16 229.52C246.84 231.92 247.72 237.28 247.44 240.04C247.12 243.12 244.88 246.12 244.56 248.92C243.84 255.2 237.08 263.2 234.28 268.88C228 281.64 218.84 289.2 206.76 296.04C203.64 297.8 200.56 298.12 197.52 299.68C194.76 301.08 190.52 304.04 187.72 304.36C181.32 305.12 173.12 308.92 166.84 309.32C162 309.6 157.36 312.16 152.36 309.32C147.6 306.64 137.48 305.8 132.2 305.48C121.56 304.88 112.28 295.24 104.44 288.88C100.8 285.92 96.5198 275.72 94.1998 271.28C91.5998 266.32 89.3598 261.84 85.6398 257.64C76.2398 247.04 77.7598 232.52 77.7598 218.56C77.7598 214 77.3598 209.2 77.7598 204.6" stroke="#171717" stroke-width="2" stroke-linecap="round"/>
<path d="M184 193C185.862 193 187.729 193.074 189.514 193.68C190.272 193.938 190.888 194.536 191.508 195.018C192.234 195.583 192.634 196.477 192.983 197.308C193.467 198.463 193.74 199.469 193.74 200.737C193.74 201.761 192.849 202.837 192.11 203.488C191.129 204.351 190.081 205.349 189.355 206.438" stroke="#171717" stroke-width="2" stroke-linecap="round"/>
<path d="M99.1816 106.924C99.1816 103.555 98.8802 99.8446 100.512 96.7626C101.473 94.9466 103.135 93.6195 104.65 92.2915C104.986 91.9976 105.374 91.5379 105.75 91.3122C106.385 90.9314 104.548 92.1805 103.985 92.661C103.117 93.4016 102.257 94.154 101.51 95.0166C101.435 95.1028 101.025 95.6424 101.098 95.2383C101.171 94.8377 101.58 94.3875 101.824 94.0975C103.233 92.4177 104.666 90.8075 106.419 89.4739C109.12 87.42 112.406 85.1734 115.939 85.0582C116.01 85.0559 117.039 84.8972 117.02 85.0582C117.002 85.2077 116.19 85.3941 116.124 85.4185C115.042 85.8199 113.968 86.2607 112.918 86.7395C111.284 87.4847 109.678 88.345 108.096 89.1968C107.56 89.4853 107.019 89.7936 106.54 90.1667C106.462 90.2274 107.422 89.7625 107.588 89.6864C109.881 88.6322 112.18 87.5707 114.456 86.4808C116.532 85.4869 118.663 84.1947 120.965 83.8111C122.686 83.5241 124.337 83.3813 126.082 83.3954C126.514 83.3988 126.97 83.4397 127.366 83.6263C127.77 83.8163 126.625 83.129 126.244 82.8965C125.506 82.446 124.739 82.0891 123.916 81.8203C123.503 81.6856 122.791 81.6969 122.433 81.4416C122.203 81.2771 122.991 81.5423 123.265 81.6125C124.186 81.8482 125.107 82.1206 126.018 82.3977C127.266 82.7777 128.635 83.0505 129.759 83.7464C130.926 84.4688 127.224 82.6875 125.925 82.2453C124.77 81.8519 123.311 81.982 122.092 81.982C121.616 81.982 121.18 82.0919 120.715 82.1436C120.602 82.1563 120.45 82.1321 120.669 82.1667C121.345 82.2735 122.025 82.3478 122.701 82.4577C125.578 82.9256 128.394 83.6449 131.177 84.5085C132.685 84.9764 134.181 85.6849 135.727 86.0143C136.666 86.2146 137.568 86.5455 138.503 86.7626C139.191 86.9223 139.875 87.0637 140.503 87.3861C141.312 87.8016 141.758 88.5436 142.313 89.2152C142.562 89.5163 142.788 89.7914 143.062 90.0651C143.154 90.1578 143.819 90.7299 143.819 90.8365C143.819 90.8983 143.361 90.6275 143.708 91.1737C144.02 91.6632 144.588 91.7469 145.057 92.042C145.428 92.2755 144.288 92.124 144.124 92.1252C143.009 92.133 141.966 92.3288 140.881 92.5594C139.346 92.8858 137.742 93.155 136.189 93.3769C135.715 93.4445 135.216 93.7196 134.761 93.8711C133.935 94.1467 133.122 94.4621 132.313 94.7857C131.78 94.999 131.143 95.1634 130.65 95.4554C130.22 95.7108 129.806 95.9436 129.343 96.1344C128.426 96.513 127.433 96.9135 126.452 97.0952C125.621 97.2489 124.744 97.7063 123.962 98.0282C122.688 98.5529 121.39 98.9402 120.05 99.2753C118.952 99.5499 117.708 100.19 116.558 100.19" stroke="#FFD424" stroke-width="2" stroke-linecap="round"/>
<path d="M97.0589 118.161C97.0589 115.763 96.8613 113.272 97.1589 110.892C97.2967 109.79 97.6059 108.727 97.7302 107.621C97.85 106.555 98.0902 105.362 98.4085 104.337C98.9709 102.524 99.3547 100.656 100.115 98.9096C100.476 98.0799 101.101 97.352 101.686 96.6674C102.467 95.7538 103.144 94.7239 103.993 93.8754C104.577 93.2913 105.196 92.6949 105.656 92.0045C105.716 91.9156 106.391 90.7515 106.306 91.4333C106.179 92.4492 105.548 93.4801 105.157 94.4038C104.257 96.5237 103.47 98.6846 102.586 100.809C101.311 103.872 100.19 107.117 99.5653 110.378C99.2792 111.872 99.1155 116.44 99.1155 114.919C99.1155 113.495 99.5916 112.371 100.201 111.077C101.846 107.584 103.564 104.061 104.871 100.423C106.058 97.1164 106.98 93.5632 108.555 90.4121C108.649 90.2252 108.977 89.7022 108.82 89.8909C108.658 90.0851 108.721 90.6398 108.684 90.8763C108.513 91.9753 108.362 93.0752 108.084 94.1539C107.545 96.2479 106.979 98.3423 106.213 100.366C105.794 101.475 105.209 102.491 104.771 103.587C104.175 105.077 103.766 106.635 103.421 108.2C103.167 109.356 102.49 110.624 102.457 111.806C102.435 112.619 102.701 111.619 102.871 111.292C103.461 110.163 104.253 109.136 104.957 108.078C106.41 105.893 107.705 103.638 108.941 101.323C111.411 96.6967 113.166 91.8417 114.896 86.9275C115.197 86.0735 115.311 85.0579 115.311 84.1569C115.311 83.951 115.428 83.2907 115.239 83.7213C115.024 84.213 114.781 84.7508 114.475 85.1923C113.869 86.0673 113.522 87.2389 113.076 88.1985C112.254 89.9631 111.499 91.7445 110.683 93.5112C109.95 95.0999 109.177 96.7026 108.627 98.3669C108.105 99.9484 107.882 101.62 107.534 103.244C107.339 104.158 107.176 105.132 107.092 106.065C107.015 106.91 107.267 106.14 107.656 105.765C109.659 103.833 111.936 102.259 113.868 100.223C114.866 99.1727 115.786 98.1684 116.31 96.7959C116.885 95.2921 117.209 93.7116 117.496 92.133C117.914 89.8343 118.345 87.481 118.524 85.1494C118.579 84.4367 118.601 83.4801 118.881 82.8144C119.86 80.4882 117.152 87.5571 116.282 89.9266C115.658 91.6251 114.917 93.3078 114.211 94.9751C113.297 97.1326 112.63 99.3842 111.74 101.552C111.175 102.927 110.534 104.291 110.041 105.693C110.008 105.787 109.674 107.135 109.912 106.921C110.958 105.985 112.354 105.393 113.54 104.636C115.94 103.105 118.405 101.557 120.43 99.5308C121.78 98.1818 122.867 96.6022 124.037 95.1036C124.348 94.7042 125.444 93.6467 125.108 94.0253C124.587 94.6115 123.997 95.1643 123.408 95.6963C121.699 97.2414 120.272 99.0293 118.41 100.409C117.145 101.346 112.69 103.006 114.182 102.508C118.032 101.225 121.409 98.9891 124.879 96.9602C127.944 95.1685 130.969 93.6352 134.462 92.8685C137.288 92.2483 140.093 91.9109 142.952 91.4904C143.793 91.3667 144.738 91.2976 145.587 91.2976C146.206 91.2976 147.298 91.5228 147.879 91.2904C148.019 91.2347 147.268 90.8067 147.187 90.7835C145.987 90.4407 144.829 89.4863 143.745 88.884C141.473 87.6219 139.051 86.6013 136.59 85.7635C134.037 84.8943 131.566 83.5191 128.807 83.4571C125.002 83.3716 121.208 82.9335 117.396 83.3571C117.301 83.3677 116.127 83.5677 116.467 83.5856C117.966 83.6645 119.2 83.921 120.545 84.671C121.441 85.1711 122.072 85.7313 121.787 86.8061C121.612 87.4688 121.182 88.0319 120.838 88.6127C120.174 89.7324 119.756 90.9688 119.267 92.1688C118.705 93.5447 118.022 94.952 117.724 96.4103C117.544 97.2928 117.677 96.5361 117.824 96.0961C118.454 94.2078 119.401 92.4999 120.43 90.8049C120.54 90.6248 121.581 88.8266 121.602 88.9412C121.805 90.0587 120.959 91.5552 120.709 92.6115C120.17 94.887 119.729 97.2317 119.038 99.4666C118.804 100.223 119 99.4908 119.224 99.2666C119.732 98.7586 120.441 98.4338 121.023 98.0241C122.61 96.9066 124.063 95.545 125.515 94.261C126.846 93.0841 128.486 91.7603 129.506 90.2765C129.842 89.7889 129.715 89.4665 129.164 89.2125C127.381 88.3919 125.487 87.9831 123.565 87.5987C122.819 87.4494 122.042 87.3942 121.309 87.1845C120.608 86.9843 121.133 86.9275 121.552 86.9275C127.329 86.9275 133.229 86.5812 138.961 87.1845C139.039 87.1928 139.231 87.2776 139.161 87.3131C138.792 87.4973 137.599 87.062 137.29 86.9989C132.449 86.0088 127.623 84.6419 122.737 83.9141C122.425 83.8676 121.273 83.8315 122.216 83.9712C123.282 84.1293 124.292 84.5026 125.322 84.8138C128.102 85.6544 130.955 86.27 133.776 86.956C136.29 87.5672 138.839 88.0822 141.317 88.8269C142.161 89.0805 142.952 89.4628 143.788 89.7266C144.038 89.8057 143.928 89.8782 143.716 89.8837C142.837 89.9069 141.954 89.8837 141.074 89.8837C136.885 89.8837 132.696 89.8837 128.507 89.8837C128.082 89.8837 127.343 89.7406 126.936 89.9123C126.88 89.9357 128.233 90.0165 128.364 90.0194C130.741 90.0722 133.255 90.0074 135.59 90.5264C135.742 90.5602 135.296 90.6549 135.14 90.6549C132.36 90.6549 129.563 90.7321 126.793 90.9691C124.758 91.1432 122.745 91.4763 120.723 91.7546C120.402 91.7988 119.42 91.9403 120.366 91.9403C122.697 91.9403 125.022 91.5547 127.35 91.5547C129.771 91.5547 122.522 91.1751 120.109 90.9691C119.507 90.9177 118.945 90.7921 118.36 90.6621C117.989 90.5798 119.09 90.4403 119.466 90.3979C121.116 90.2122 122.773 90.1134 124.422 89.9123C125.169 89.8212 125.993 89.8563 126.721 89.6552C127.001 89.5782 126.163 89.6012 126.122 89.5981C125.013 89.5144 123.913 89.4981 122.801 89.4981C122.75 89.4981 121.857 89.4733 122.187 89.5695C123.498 89.952 124.947 89.9915 126.286 90.2765C127.696 90.5765 129.19 90.8248 130.556 91.2976C131.883 91.7569 130.148 92.0948 129.606 92.283C124.985 93.8887 120.422 95.6611 115.81 97.2815C115.782 97.2914 114.857 97.6531 115.239 97.4672C116.01 97.0921 116.803 96.7537 117.603 96.446C117.96 96.3086 119.245 95.4644 119.159 96.3175C119.107 96.8402 118.703 97.2826 118.381 97.6671C117.661 98.5278 116.915 99.3782 116.16 100.209C115.576 100.853 115.046 101.573 114.432 102.187C114.143 102.477 114.139 102.157 114.161 101.902C114.196 101.499 114.939 101.025 114.796 101.223C114.575 101.531 114.173 101.656 113.868 101.866C113.193 102.33 112.517 102.78 111.912 103.337C109.699 105.374 107.83 107.744 105.628 109.792C104.906 110.464 104.285 111.35 103.486 111.927C102.574 112.586 102.638 111.539 102.772 110.749C103.026 109.25 103.752 107.829 104.385 106.464C105.231 104.643 106.126 102.846 107.027 101.052C107.859 99.3983 108.738 97.8773 109.791 96.3603C110.716 95.0272 111.625 93.6625 112.469 92.2759C112.685 91.9202 112.74 91.6734 112.74 91.269C112.74 90.712 112.74 90.1551 112.74 89.5981C112.74 88.9848 112.299 89.0809 111.776 89.1197C110.542 89.2111 109.441 90.2053 108.498 90.912" stroke="#FFD424" stroke-width="2" stroke-linecap="round"/>
<path d="M106.96 70.5727L112.32 82.9327" stroke="#171717" stroke-width="2" stroke-linecap="round" stroke-linejoin="round"/>
<path d="M95.6799 123.133C93.4799 112.493 94.2399 90.8928 112.32 82.9728C129.6 75.4128 146.52 86.6928 152 92.6528" stroke="#171717" stroke-width="2" stroke-linecap="round" stroke-linejoin="round"/>
<path d="M110.231 79.0551C128.865 72.1182 142.595 62.8023 140.9 58.2474C139.204 53.6925 122.724 55.6235 104.09 62.5604C85.4566 69.4973 71.7257 78.8133 73.4214 83.3682C75.1171 87.9231 91.5973 85.992 110.231 79.0551Z" stroke="#171717" stroke-width="2"/>
<path d="M150.48 92.4128C149.76 91.8128 148.44 91.7728 147.84 91.0528C146.92 89.9728 145.68 88.9328 144.56 88.0528C143.24 87.0928 141.84 86.1328 140.6 85.2128C137.84 83.1728 133.92 83.6928 130.8 82.4928C129.88 82.1328 128.92 81.8928 128.04 81.4528C127.36 81.1328 126.52 80.5328 125.76 80.4928C124.92 80.4528 124.16 80.3328 123.28 80.3728C121.92 80.4128 121.16 81.2128 119.92 81.6528C116.32 82.8928 113.16 85.2528 109.64 86.4128C108 86.9728 106.48 88.2928 104.92 89.1328C103.36 90.0128 101.96 91.3728 100.96 92.7728C98.7599 95.8928 97.8399 99.6928 96.5599 103.213C95.4399 106.293 96.1999 110.173 96.3599 113.453C96.5199 116.853 96.1599 120.053 96.3199 123.453" stroke="#171717" stroke-width="2" stroke-linecap="round"/>
<path d="M107.36 70.2527C107.4 71.4127 107.2 72.9727 107.72 74.0127C108.16 74.8927 108.52 75.6527 109 76.5327C110.12 78.5727 111.8 80.2927 111.92 82.7727" stroke="#171717" stroke-width="2" stroke-linecap="round"/>
<path d="M111.912 77.7126C107.52 77.9335 103.626 79.2589 99.441 80.3192C96.7479 80.9819 94.5933 82.3073 91.693 82.4399C90.4086 82.484 89.0413 82.97 87.7569 83.0584C86.2653 83.1909 84.8566 83.1026 83.4478 83.456C81.2519 83.9862 78.4344 83.7211 76.1556 83.8094C75.3684 83.8536 74.0425 83.456 74.0011 82.5724C73.9596 81.1586 75.1198 80.2308 75.9484 79.038C77.0671 77.4033 78.7659 76.2546 80.216 74.7967C81.4176 73.6038 82.412 73.2062 83.9865 72.4551C85.6438 71.6599 87.5083 71.2623 89.207 70.5996C91.0715 69.8485 92.9774 69.0532 94.9248 68.5231C95.6706 68.3022 96.6236 67.7278 97.2865 67.286C98.198 66.7117 99.2339 66.4908 100.228 66.049C101.637 65.3863 103.294 64.7678 104.786 64.2818C106.692 63.7074 108.805 62.6029 110.545 61.7193C112.202 60.8799 113.818 60.5707 115.559 59.9963C118.086 59.1569 120.53 57.9198 123.265 57.6989C127.988 57.3013 132.878 56.7712 137.684 56.8153C138.264 56.8153 139.548 57.478 140.045 57.8315C140.957 58.45 140.957 59.2452 140.998 60.2172C141.04 61.4984 140.253 61.8961 139.548 62.8238C138.802 63.7958 137.932 64.9887 136.897 65.6956C133.126 68.3022 128.9 69.6718 124.591 71.3506C118.79 73.648 113.86 77.3149 107.893 79.4356" stroke="#171717" stroke-width="2" stroke-linecap="round"/>
<path d="M78.5722 201.555C77.8481 199.926 77.2454 198.208 76.5053 196.563C76.0165 195.477 73.9834 192.593 74.8736 193.385C76.3697 194.715 77.7032 196.202 79.3336 197.41C79.6905 197.674 82.7123 200.192 81.3884 198.703C78.4819 195.433 77.2319 191.26 75.3087 187.414C74.1029 185.002 72.5238 182.975 71.5013 180.476C70.8511 178.886 71.3074 179.911 71.876 180.669C73.8083 183.246 76.3329 185.335 78.0887 188.066C79.3322 190.001 80.5816 192.563 82.2707 194.158C82.6421 194.509 82.7594 194.251 82.6575 193.844C82.2954 192.395 81.2111 191.558 80.4456 190.339C78.6193 187.43 77.4696 183.753 76.5174 180.464C76.008 178.704 75 177.204 74.3901 175.496C74.2665 175.15 73.7618 174.167 73.9066 174.505C74.2655 175.342 74.5943 176.038 75.1395 176.801C78.1935 181.077 81.425 185.409 84.8815 189.36C85.3848 189.935 86.0745 190.601 86.6704 191.064C86.8982 191.241 86.021 189.421 85.921 189.275C84.4191 187.084 83.3236 184.832 82.2707 182.398C80.6957 178.755 79.4403 175.057 77.4843 171.58C76.5268 169.878 75.9074 168 74.8736 166.358C74.7039 166.089 73.7233 164.203 74.3538 165.464C76.2138 169.184 80.1815 171.612 82.8872 174.674C84.4373 176.428 85.7054 178.367 87.1055 180.234C87.8571 181.236 88.7455 182.361 89.1844 183.546C89.4422 184.242 89.7657 184.975 90.2239 185.564C91.1856 186.801 88.6903 184.934 88.3625 184.537C86.6393 182.451 84.8534 180.233 83.5882 177.829C81.8884 174.599 81.2095 170.732 80.4335 167.204C80.1316 165.832 79.6347 164.527 79.3336 163.155C79.052 161.873 78.8169 160.558 78.1854 159.396C77.8146 158.714 77.7409 157.584 77.2184 157.003C75.7647 155.388 75.8271 158.066 76.179 159.034C76.4443 159.763 76.5239 160.567 76.7229 161.318C77.1173 162.808 77.7814 164.208 78.137 165.706C78.3411 166.565 78.5505 167.279 78.9589 168.051C79.0194 168.165 78.292 166.935 78.137 166.636C76.4882 163.457 76.968 158.54 77.9678 155.166C78.2827 154.103 78.3546 153.171 78.3546 152.072C78.3546 151.716 78.2987 151.436 78.4634 151.963C78.8287 153.132 79.1044 154.165 79.7083 155.263C81.2959 158.149 83.404 160.634 85.2078 163.373C86.7966 165.785 89.0203 167.684 90.5382 170.13C91.6956 171.994 93.0572 173.732 94.1884 175.617C94.7998 176.636 95.1353 177.893 95.8564 178.82C96.2476 179.323 96.115 180.109 96.364 180.669C96.4468 180.855 96.4924 181.454 96.3882 181.636C95.9161 182.462 93.3785 179.64 93.1489 179.364C88.8852 174.236 83.6952 169.841 81.0741 163.591C80.6989 162.696 80.3498 161.799 79.9984 160.895C79.6728 160.058 80.1518 161.943 80.2643 162.176C81.9719 165.718 83.792 169.259 85.921 172.571C87.4921 175.015 89.4342 177.01 91.1908 179.255C91.5968 179.774 92.7965 181.104 93.584 181.104C94.2653 181.104 95.87 178.77 96.4124 178.288C97.1582 177.625 98.2583 176.912 99.1319 176.427C99.5336 176.204 99.6929 176.368 99.3253 175.859C98.3531 174.512 97.0358 173.434 96.1948 171.991C93.0268 166.554 91.4914 160.403 89.2811 154.562C88.4582 152.387 87.4194 150.258 86.4044 148.156C85.8533 147.014 85.3211 145.88 84.5431 144.88C84.1223 144.339 83.6225 143.851 83.3102 144.554C82.8721 145.539 82.2564 146.091 81.5093 146.838C81.3246 147.023 79.9395 148.63 80.1434 148.857C80.2707 148.998 80.6328 149.046 80.7961 149.123C81.7545 149.57 82.36 150.555 82.9718 151.371C85.3447 154.535 87.6965 157.665 89.8371 160.992C90.8077 162.5 91.9335 163.962 92.6654 165.609C92.8085 165.931 93.6319 167.1 92.9072 166.939C91.4688 166.619 90.3645 164.55 89.6679 163.433C88.1338 160.975 86.8807 158.336 85.3166 155.903C84.3521 154.403 83.418 152.675 82.2224 151.347C82.0373 151.141 81.982 150.84 82.0653 150.549C82.2019 150.071 83.4919 151.006 83.6245 151.081C84.1844 151.397 88.145 153.583 88.145 152.906C88.145 151.938 87.4904 151.234 87.0571 150.416C86.4286 149.229 86.0211 147.935 85.8001 146.608C85.5586 145.159 85.5342 140.74 85.5342 142.209C85.5342 143.818 85.8047 145.184 85.4858 146.778C85.2288 148.063 85.5889 151.986 85.3045 150.706C84.8687 148.745 83.8927 146.932 83.4069 144.989C83.1483 143.954 84.2516 144.203 84.8815 143.853C85.7421 143.375 85.8472 141.904 86.0781 141.073C86.2542 140.439 86.1735 139.127 86.6704 140.468C86.9399 141.196 87.4883 141.877 88.0724 142.378C89.6714 143.749 91.4365 144.946 93.0522 146.306C96.5732 149.271 99.8725 152.818 102.492 156.616C104.243 159.155 105.987 161.684 106.807 164.69C106.985 165.344 107.476 166.548 106.275 165.512C104.101 163.638 102.316 161.378 100.546 159.13C98.5082 156.543 96.1477 154.242 94.14 151.637C92.723 149.797 91.5127 147.921 89.8855 146.294C89.3896 145.798 87.9862 143.838 88.8218 145.569C90.5247 149.096 91.7722 152.814 93.5357 156.302C95.1242 159.445 97.1435 162.171 98.9264 165.174C99.674 166.433 100.179 167.875 101.078 169.03C101.333 169.358 101.588 169.912 100.933 169.525C99.626 168.753 98.6827 167.572 97.5002 166.648C96.4099 165.797 93.5554 162.821 94.3334 163.965C95.5072 165.691 96.9963 167.3 98.3221 168.921C99.2522 170.058 100.326 171.741 100.764 173.163C100.806 173.303 101.392 174.283 101.392 173.876C101.392 172.508 100.273 171.122 99.6275 170.009C97.8062 166.866 96.9942 163.291 95.2399 160.134C94.5786 158.943 97.3849 161.813 98.4792 162.624C99.9639 163.723 101.414 164.784 102.722 166.092C102.91 166.28 104.434 167.889 104.148 167.301C103.133 165.214 101.687 163.247 100.498 161.258C98.4831 157.89 96.6888 154.501 95.1312 150.899C93.9533 148.175 93.1735 145.322 91.9523 142.608C91.5223 141.652 91.0822 140.694 90.7074 139.719C90.6125 139.472 90.1648 139.007 90.1997 138.728C90.2049 138.686 91.2682 139.525 91.3359 139.574C96.8958 143.577 102.371 147.508 106.203 153.256C107.897 155.798 109.264 158.548 110.989 161.04C111.982 162.475 110.882 161.794 109.986 161.064C107.495 159.034 104.669 156.44 102.951 153.691C101.407 151.22 100.247 148.551 98.8056 146.028C98.0117 144.639 96.953 143.091 96.4124 141.605C96.1195 140.799 95.6828 140.059 95.3729 139.284C94.7665 137.768 95.5747 138.846 96.5091 139.55C100.713 142.717 105.3 145.418 109.66 148.361C111.573 149.653 112.93 151.477 114.579 153.039C114.897 153.34 116.75 155.606 115.558 154.344C114.248 152.957 113.585 151.08 112.464 149.558C110.896 147.43 109.463 145.029 107.726 143.043C107.052 142.273 106.293 141.321 105.816 140.42C105.544 139.907 104.377 139.682 103.918 139.223C103.19 138.495 102.027 136.126 100.5 134.5C98.1529 132 97.2485 127.295 95.663 128C95.2675 128.176 95.0719 134.982 95.663 135.742C96.3187 136.585 97.3947 137.258 98.1529 138.027C99.6284 139.523 100.856 141.25 102.262 142.813C105.693 146.625 108.645 150.82 110.663 155.529C111.422 157.299 112.035 159.019 114.035 159.13C114.482 159.155 114.616 159.275 114.373 158.599C113.908 157.299 112.788 155.993 111.968 154.888C111.227 153.89 110.744 152.732 110.216 151.612C109.816 150.767 110.672 151.61 110.868 151.842C111.704 152.83 112.434 153.509 113.6 154.127C114.126 154.405 115.833 155.981 115.123 154.562" stroke="#171717" stroke-width="4" stroke-linecap="round"/>
<path d="M119.384 153.2C119.384 151.592 118.857 150.292 118.258 148.808C117.331 146.509 116.451 144.242 115.242 142.067C113.394 138.741 110.995 135.676 109.252 132.324C107.538 129.028 105.603 125.696 103.247 122.817C98.857 117.451 109.408 135.244 112.754 141.317C113.672 142.981 114.698 144.67 115.479 146.404C116.027 147.623 115.32 146.914 114.728 146.279C112.41 143.789 110.806 140.719 108.863 137.953C107.085 135.424 104.941 133.131 103.247 130.559C102.459 129.362 101.747 128.099 100.926 126.931C100.526 126.362 100.224 125.376 99.6197 124.985C99.3403 124.804 98.3522 123.679 98.619 123.679C99.7593 123.679 100.629 124.502 101.871 124.429C102.453 124.395 101.871 121.918 101.871 121.427C101.871 120.991 101.462 118.976 101.871 118.925C102.421 118.856 103.421 117.159 103.678 116.674C104.903 114.361 104.671 116.793 105.179 117.98C106.385 120.793 108.557 123.257 110.127 125.875C111.834 128.718 113.803 131.371 115.632 134.131C116.55 135.517 117.241 137.038 118.133 138.44C118.553 139.099 119.168 139.935 119.384 140.691C119.673 141.7 120.939 143.787 121.761 144.444C121.991 144.628 124.454 147.701 124.499 147.641C124.939 147.055 120.522 141.619 120.135 141.025C117.68 137.252 115.814 133.026 113.894 128.96C112.208 125.39 110.938 121.542 109.127 118.05C108.269 116.396 107.79 114.348 107.389 112.546C107.264 111.98 107.812 113.32 108.029 113.574C110.274 116.21 112.632 118.788 114.784 121.497C117.709 125.18 120.43 129.031 123.387 132.685C124.649 134.245 125.654 135.891 126.528 137.689C127.225 139.12 127.754 140.53 128.641 141.887C129.209 142.756 129.861 143.545 130.337 144.444C130.611 144.962 130.581 145.051 129.975 144.583C128.344 143.323 127.272 142.138 126.084 140.441C122.815 135.772 119.794 131.128 118.133 125.625C117.077 122.123 116.454 118.347 115.937 114.728C115.596 112.336 113.88 107.778 113.88 107.778C113.88 107.778 114.313 109.012 114.645 109.571C116.036 111.918 117.866 113.927 119.537 116.076C121.714 118.875 123.904 121.584 125.875 124.54C127.203 126.533 128.231 128.671 129.517 130.684C132.079 134.695 134.047 139.219 136.397 143.332C136.811 144.058 137.508 144.623 137.898 145.306C138.4 146.184 137.154 144.347 137.008 144.166C134.726 141.333 132.45 138.159 130.795 134.923C128.945 131.304 127.449 127.495 125.75 123.804C124.558 121.215 123.229 118.691 122.15 116.048C120.876 112.926 120.396 109.238 118.759 106.291C118.523 105.866 118.199 105.677 118.634 106.166C119.302 106.918 119.681 108.054 120.246 108.89C122.841 112.729 126.035 116.176 128.836 119.87C130.924 122.625 132.625 125.61 134.395 128.571C136.543 132.164 138.87 135.817 140.594 139.635C141.225 141.032 142.173 143.24 143.207 144.388C143.391 144.593 143.847 145.278 143.652 145.083C142.547 143.978 141.657 141.852 140.789 140.524C136.707 134.287 133.336 127.543 130.448 120.677C128.835 116.841 127.749 112.777 125.945 109.029C125.203 107.488 124.338 106.037 123.582 104.526C123.234 103.831 124.041 105.041 124.166 105.193C125.862 107.266 127.999 109.026 129.892 110.919C134.907 115.934 138.533 121.7 141.776 127.946C143.582 131.424 144.926 135.113 146.529 138.676C147.116 139.98 148.334 141.433 148.642 142.818C148.821 143.624 148.263 142.826 147.905 142.429C146.262 140.603 144.896 138.292 143.402 136.327C140.08 131.96 137.063 127.498 134.645 122.553C133.975 121.182 133.266 119.768 132.519 118.439C132.24 117.942 131.685 116.961 132.408 118.091C136.102 123.863 139.765 129.641 143.013 135.688C144.394 138.259 145.881 140.82 147.155 143.443C147.54 144.237 148.814 146.517 147.155 144.944C145.488 143.365 142.973 142.822 141.206 141.331C137.138 137.899 133.799 134.104 130.893 129.683C129.137 127.013 126.884 124.936 124.944 122.428C123.527 120.596 122.14 118.74 120.635 116.979C119.351 115.478 118.134 113.928 116.827 112.476C116.239 111.822 115.969 111.25 115.576 110.419C115.277 109.789 115.154 107.929 114.631 107.667" stroke="#171717" stroke-width="4" stroke-linecap="round"/>
<path d="M158.608 143.555C157.239 139.876 155.803 136.228 154.299 132.602C152.552 128.392 151.073 123.57 148.656 119.676C146.481 116.171 143.732 112.738 142.151 108.918C141.066 106.295 139.671 103.686 137.648 101.663C137.34 101.355 136.103 99.272 135.702 99.272C135.156 99.272 136.996 102.852 137.05 102.955C139.422 107.523 141.253 112.361 143.207 117.118C146.264 124.56 149.891 131.693 153.354 138.94C154.014 140.322 154.787 141.937 155.161 143.429C155.464 144.644 155.913 144.962 154.605 143.471C146.436 134.166 142.444 122.172 135.646 111.976C133.97 109.461 132.314 107.108 130.893 104.415C130.488 103.647 128.726 101.397 130.198 103.414C132.493 106.559 134.787 109.728 137.022 112.921C139.121 115.919 140.877 119.159 143.096 122.067C144.202 123.516 141.949 120.312 141.762 120.009C140.245 117.551 138.883 115.002 137.592 112.421C136.421 110.079 135.325 107.589 134.59 105.11C134.452 104.644 133.322 101.868 132.7 102.024C132.455 102.085 135.683 107.039 135.813 107.208C138.841 111.139 141.838 115.077 144.903 118.981C146.754 121.338 148.343 123.901 150.157 126.292C151.104 127.54 151.956 128.778 152.659 130.184" stroke="#171717" stroke-width="4" stroke-linecap="round"/>
<path d="M226.713 118.675C226.713 121.2 227.722 123.396 228.715 125.68C230.017 128.676 231.321 131.652 232.662 134.631C234.083 137.789 235.391 140.899 237.096 143.93C237.399 144.469 237.665 145.02 237.972 145.556C238.694 146.821 235.693 143.72 234.719 142.637C230.176 137.583 226.119 131.345 223.225 125.194C221.617 121.778 220.073 118.347 218.457 114.936C217.789 113.525 215.175 109.622 215.955 110.975C216.782 112.409 217.208 114.298 217.818 115.84C219.344 119.699 220.912 123.546 222.335 127.445C224.194 132.54 226.448 137.496 228.909 142.331C229.503 143.498 229.828 143.389 230.5 144.5C230.718 144.861 231.595 145.69 231.195 145.556C229.681 145.052 228.926 144.488 227.964 143.332C225 139.768 222.447 135.874 220.222 131.81C217.332 126.528 214.701 121.059 212.008 115.673C211.123 113.903 210.382 112.08 209.701 110.224C209.126 108.661 208.177 107.094 207.699 105.54C207.594 105.197 206.728 104.239 207.088 104.804C207.577 105.573 207.913 106.291 208.2 107.167C209.934 112.465 211.676 117.767 213.467 123.053C215.083 127.82 217.224 132.399 218.902 137.133C219.744 139.509 221.197 141.54 222.21 143.819C222.405 144.258 222.759 144.615 222.961 145.069C223.652 146.625 221.816 143.627 221.557 143.276C218.924 139.708 216.333 136.185 214.204 132.282C211.726 127.738 209.87 122.821 207.699 118.119C206.795 116.159 205.891 114.193 205.003 112.226C204.325 110.726 203.345 109.406 202.849 107.806C202.381 106.3 201.445 104.002 201.445 102.413C201.445 102.224 201.818 103.158 201.889 103.414C202.222 104.611 202.607 105.788 203.001 106.972C204.916 112.716 206.382 118.563 208.214 124.332C209.649 128.855 210.725 133.887 212.759 138.189C213.569 139.904 214.442 141.657 215.08 143.443C215.234 143.876 216.342 145.659 215.677 145.042C213.908 143.398 212.498 141.2 211.216 139.176C208.404 134.736 206.071 130 203.752 125.291C200.896 119.491 198.53 113.209 196.191 107.194C195.193 104.629 194.462 102.066 193.745 99.4109C193.554 98.7071 193.289 98.0727 192.994 97.4094C192.627 96.5844 193.367 97.8369 193.439 98.16C193.655 99.131 194.456 100.08 194.954 100.926C196.381 103.351 197.86 105.741 199.193 108.223C200.69 111.01 202.043 113.842 203.446 116.674C204.634 119.071 206.029 121.479 206.824 124.04C207.198 125.246 207.701 126.427 207.949 127.668C208.007 127.954 208.2 129.104 208.2 128.933" stroke="#171717" stroke-width="4" stroke-linecap="round"/>
<path d="M211.452 145.445C211.415 145.114 211.191 144.808 211.049 144.514C210.226 142.804 209.381 141.103 208.547 139.399C206.501 135.215 204.587 130.962 202.251 126.931C199.147 121.576 196.016 116.225 192.813 110.933C190.454 107.036 187.771 103.171 185.933 99.0358C185.838 98.8224 185.331 97.5291 185.488 97.9655C186.302 100.227 188.721 102.059 190.172 103.9C192.011 106.234 193.764 108.611 195.44 111.059C195.714 111.458 197.089 113.4 196.441 111.865C196.078 111.005 195.507 110.379 194.954 109.641C194.088 108.486 193.528 107.053 192.827 105.791C191.956 104.223 191.446 102.498 190.562 100.926C190.135 100.167 189.303 99.6462 188.935 98.9107" stroke="#171717" stroke-width="4" stroke-linecap="round"/>
<path d="M177.927 96.6588C178.06 98.1183 178.851 99.4828 179.484 100.773C180.566 102.98 181.6 105.209 182.681 107.417C184.006 110.124 185.23 112.993 186.378 115.784C188.909 121.939 190.977 128.276 193.925 134.27C195.621 137.717 196.694 141.447 198.567 144.819C199.315 146.165 197.951 143.783 197.789 143.513C193.738 136.76 191.435 129.048 188.491 121.788C186.604 117.137 183.796 111.732 183.681 106.583C183.666 105.88 184.19 107.363 184.237 107.472C184.928 109.05 185.819 110.524 186.739 111.976C191.79 119.942 196.245 128.262 200.458 136.688C200.98 137.733 201.64 138.705 202.056 139.802C202.168 140.097 202.378 141.178 202.793 141.261C203.755 141.454 201.667 139.652 201.055 138.884C199.668 137.142 198.418 135.203 197.317 133.269C196.124 131.176 195.125 128.993 194.217 126.764C194.145 126.588 193.444 124.963 193.592 125.11C194.164 125.682 194.548 126.506 194.954 127.195C195.786 128.611 196.859 129.854 197.886 131.129C201.046 135.048 203.1 139.951 206.448 143.693C206.545 143.801 206.872 144.293 206.587 143.888C205.872 142.872 204.943 142.017 204.197 141.025C200.739 136.427 198.856 130.852 196.427 125.708C193.816 120.18 191.36 114.578 189.06 108.918C188.306 107.061 187.06 105.368 186.183 103.553C185.448 102.029 184.568 100.575 183.737 99.1051C183.579 98.8259 181.727 93.7212 181.485 93.9624C181.019 94.4292 182.069 97.1909 182.18 97.7151C182.949 101.33 183.193 104.665 184.571 108.181C188.009 116.955 194.214 124.224 198.679 132.449C200.87 136.486 202.93 141.013 204.197 145.445" stroke="#171717" stroke-width="4" stroke-linecap="round"/>
<path d="M195.19 145.195C194.969 142.538 193.02 139.817 191.563 137.689C188.904 133.81 186.799 129.444 184.432 125.375C180.561 118.718 176.49 112.21 172.813 105.443C171.316 102.689 170.196 99.7366 168.796 96.937C168.321 95.988 167.735 95.1018 167.364 94.1016C167.259 93.8176 166.919 93.0065 166.919 93.3093C166.919 94.1735 167.992 95.1076 168.476 95.7139C171.831 99.918 175.435 104.127 178.442 108.584C182.324 114.339 185.623 120.527 189.13 126.514C190.073 128.124 191.132 129.66 192.077 131.268C192.861 132.603 192.194 131.508 191.66 130.906C187.689 126.439 185.644 120.91 183.084 115.604C180.551 110.352 177.205 104.916 175.926 99.1609C175.738 98.3145 174.394 95.7681 173.674 95.4081" stroke="#171717" stroke-width="4" stroke-linecap="round"/>
<path d="M162.654 145.533C162.605 145.014 162.398 144.541 162.22 144.054C161.555 142.234 160.946 140.397 160.356 138.551C159.595 136.167 158.947 133.716 158.078 131.371C156.751 127.79 155.381 124.211 153.699 120.779C151.377 116.043 148.749 111.459 146.756 106.568C146.202 105.208 145.352 104.038 144.813 102.662C144.358 101.499 144.184 100.221 143.876 99.0232C143.675 98.2384 143.607 97.1544 143.216 96.4491C143.038 96.1296 143.01 96.0149 143.206 96.4787C143.849 98.0023 145.062 99.5251 146.046 100.838C151.978 108.748 157.337 117.278 161.954 126.026C163.957 129.821 165.863 133.641 167.802 137.466C168.714 139.266 169.997 140.908 170.889 142.693C170.966 142.846 171.718 144.533 171.954 144.439C172.029 144.409 169.695 140.859 169.577 140.661C167.686 137.498 166.071 134.099 164.429 130.799C161.781 125.479 159.796 119.875 157.328 114.477C155.989 111.547 155.082 108.476 153.64 105.591C152.083 102.477 150.764 99.4237 149.606 96.1829C149.494 95.8684 149.501 95.522 149.518 96.0842C149.558 97.4876 151.097 98.9296 151.904 99.9502C155.651 104.686 159.151 109.549 162.555 114.536C164.775 117.789 166.735 121.255 168.69 124.675C170.864 128.481 172.767 132.483 175.041 136.223C176.327 138.338 177.469 140.552 178.542 142.782C178.825 143.37 179.065 144.167 179.518 144.646C180.159 145.322 179.673 144.28 179.479 143.995C177.797 141.528 176.797 138.677 175.613 135.957C173.837 131.88 172.153 127.783 170.642 123.6C168.477 117.604 166.592 111.51 163.995 105.69C163.269 104.063 162.39 102.508 161.766 100.838C161.293 99.5702 160.883 98.1933 160.307 96.9718C159.995 96.3111 159.452 95.3978 159.291 94.674C159.168 94.1188 159.199 94.52 159.36 94.8416C160.059 96.2387 160.991 97.4556 161.954 98.678C165.662 103.384 169.391 108.249 172.24 113.54C175.078 118.811 177.868 124.039 180.228 129.547C181.666 132.901 183.212 136.235 184.844 139.498C185.36 140.53 185.843 141.59 186.432 142.584C186.546 142.777 187.09 143.609 186.974 143.541C186.112 143.034 185.581 141.669 185.081 140.878C183.466 138.325 181.741 135.846 180.14 133.284C178.974 131.419 177.748 129.561 176.816 127.564C175.715 125.205 174.916 122.722 173.798 120.365C172.819 118.299 171.738 116.233 170.652 114.221C170.238 113.454 169.915 112.665 169.538 111.883C169.431 111.661 169.222 110.966 169.222 111.213C169.222 113.709 170.518 115.658 171.619 117.86C174.326 123.275 177.463 128.549 180.011 134.034C181.091 136.357 181.975 138.777 183.069 141.085C183.414 141.814 184.651 144.646 185.732 144.646C186.124 144.646 186.681 144.311 187.063 144.212C187.866 144.003 188.775 144.113 189.597 144.113C190.193 144.113 190.747 144.084 191.314 144.291C191.597 144.394 192.057 144.641 191.669 144.182C189.527 141.651 188.232 138.34 186.757 135.415C184.781 131.493 182.107 127.987 180.14 124.053C178.624 121.022 177.387 117.87 175.593 114.98C173.66 111.866 172.31 108.428 170.287 105.374C168.187 102.205 166.762 98.7243 164.607 95.6109C163.231 93.6233 160.679 94.6321 158.571 94.3978C157.83 94.3155 156.83 94.23 156.125 94.0132C155.611 93.8549 155.775 94.0231 155.997 94.4175C156.631 95.5443 157.151 96.5656 157.605 97.8003C159.238 102.245 160.903 106.661 162.565 111.094C164.466 116.164 165.744 121.358 167.269 126.539C169.052 132.592 170.643 138.832 173.66 144.389C174.41 145.77 173.167 144.862 172.556 144.251C169.555 141.25 166.444 138.547 164.686 134.606C163.036 130.909 161.127 127.264 159.143 123.738C158.801 123.13 158.307 122.501 158.048 121.854C157.888 121.453 158.325 122.674 158.482 123.077C159.719 126.238 160.878 129.49 161.845 132.742C162.646 135.431 163.207 138.267 164.252 140.878C164.834 142.333 165.163 143.806 165.849 145.178" stroke="#171717" stroke-width="4" stroke-linecap="round"/>
<path d="M241.8 146.92H127.6L77.8001 204.92C57.4001 160.52 82.2001 137.04 93.8001 134.32C95.5601 104.08 137.2 93.7201 157.8 92.3201C219.4 92.3201 239.44 128.72 241.8 146.92Z" stroke="#171717" stroke-width="2" stroke-linejoin="round"/>
<path d="M94.0401 135.6C86.4401 135.6 76.7201 144.16 75.8401 152.04C75.5601 154.4 73.4801 156.08 73.4801 158.8C73.4801 161.12 71.7201 163.48 71.7201 165.84C71.7201 170.92 70.5601 175.6 70.5601 180.52C70.5601 182.76 70.5601 185 70.5601 187.28C70.5601 190.12 71.6401 192 71.7201 194.76C71.8001 196.92 75.9601 205.76 79.0401 203.36C83.0401 200.24 85.7201 194.52 88.0001 190.2C88.9601 188.4 91.0801 186.08 92.8401 185.04C94.6401 184 98.0801 181.48 99.1601 179.64C101.52 175.64 104.4 171.6 107.8 168.2C111.56 164.44 114.48 160.48 117.92 156.64C121.48 152.68 122.32 150.32 127.72 149.12C129.68 148.68 131.64 147.4 133.6 147.4C136.32 147.4 139.08 147.4 141.8 147.4C160.52 147.4 179.32 145.64 198.12 145.64C200.36 145.64 202.6 145.64 204.88 145.64C207.32 145.64 209.56 146.68 211.92 146.8C217.64 147.12 217.74 146.8 223.5 146.8C225.18 146.8 230.46 146.44 231.5 146.8C233.32 146.8 235.2 146.8 236.72 146.8C238.64 146.8 239.52 147.2 239.52 145.04C239.52 143.56 237.64 140.08 236.72 139.04C235.16 137.32 234.24 134.2 233.2 132.12C231.12 127.96 230.36 122.64 227.48 118.92C225.08 115.84 221.24 112.28 217.84 110.28C213.8 107.88 209.8 104.64 205.28 103.32C203.4 102.8 201.2 101.12 199.4 100.12C197.56 99.08 194.92 96.8 192.96 96.32C191.88 96.08 188.76 94.84 187.84 94.08C186.68 93.16 181.8 93.36 180.36 93.36C174.8 93.36 169.72 92.2 164.28 92.2C157.88 92.2 152.12 94.32 145.88 94.56C141.2 94.72 134.68 96.8 131.08 99.84C129.24 101.4 127.04 101.84 124.92 102.76C121.92 104.08 120.8 105.12 117.28 105.12C113.8 105.12 106.88 109.08 104.68 111.88C102.56 114.52 88.7201 132.64 93.5201 135.04" stroke="#171717" stroke-width="2" stroke-linecap="round"/>
<path d="M165.6 200.6C179.076 200.6 190 189.676 190 176.2C190 162.724 179.076 151.8 165.6 151.8C152.124 151.8 141.2 162.724 141.2 176.2C141.2 189.676 152.124 200.6 165.6 200.6Z" stroke="#171717" stroke-width="2" stroke-linecap="round" stroke-linejoin="round"/>
<path d="M214.4 200.6C227.876 200.6 238.8 189.676 238.8 176.2C238.8 162.724 227.876 151.8 214.4 151.8C200.924 151.8 190 162.724 190 176.2C190 189.676 200.924 200.6 214.4 200.6Z" stroke="#171717" stroke-width="2" stroke-linecap="round" stroke-linejoin="round"/>
<path d="M141 176.2H104" stroke="#171717" stroke-width="2" stroke-linecap="round" stroke-linejoin="round"/>
<path d="M245.6 176.2H238.8" stroke="#171717" stroke-width="2" stroke-linecap="round" stroke-linejoin="round"/>
<path d="M102.881 176.949C107.192 176.949 111.845 177.378 116.023 176.081C117.639 175.579 119.494 175.379 121.17 175.146C122.506 174.961 123.828 174.813 125.175 174.813C127.591 174.813 129.969 175.213 132.399 175.213C135.157 175.213 137.906 175.48 140.661 175.48" stroke="#171717" stroke-width="2" stroke-linecap="round"/>
<path d="M239.347 175.405C239.987 175.405 240.658 175.344 241.293 175.417C241.779 175.472 242.19 175.717 242.625 175.918C242.871 176.031 243.131 176.163 243.394 176.236C243.594 176.292 243.797 176.481 244.008 176.481" stroke="#171717" stroke-width="2" stroke-linecap="round"/>
<path d="M159.12 153.12C157.4 153.12 155.64 154.04 154.12 154.92C152.56 155.8 151.4 156.96 150.24 158.32C149.28 159.44 148 160.84 147.32 162.08C146.8 163 146.12 163.76 145.64 164.68C145.28 165.36 145.28 166.16 144.92 166.84C144.28 168.08 144.2 170.4 143.92 171.76C143.6 173.36 143.6 175.04 143.6 176.68C143.6 178.44 143.44 180.56 143.92 182.2C144.24 183.32 144.48 185.72 145.16 186.64C147 189.04 149.2 191.52 151.32 193.72C152.28 194.76 153.48 195.6 154.56 196.48C155.08 196.92 156.32 197.16 157 197.48C157.72 197.8 158.56 198.4 159.36 198.4C161.16 198.4 162.44 199.44 164.08 199.92C164.72 200.12 168.8 200.32 169.2 199.8C169.56 199.36 170.76 199.24 171.24 198.96C172.2 198.44 172.96 197.6 174 197.16C175.4 196.64 177.4 196.08 178.52 194.92C180.32 193 181.96 191 183.8 189.04C184.76 188 185.08 186.4 185.68 185.08C186.36 183.64 187.68 181.6 187.68 180C187.68 176.6 188.44 172.92 187.68 169.52C187.36 168.08 187.2 166.48 186.48 165.2C185.64 163.68 184.8 162.84 183.6 161.6C181.28 159.16 178.56 156.52 175.6 154.96C173.72 153.96 172.76 153.36 170.6 153.36C168.88 153.36 167.16 152.44 165.48 152.44C163.84 152.44 162.2 152.12 160.48 152.12C158.96 152.12 156.12 152.24 154.92 153.2C154.12 153.84 153.04 154.08 152.12 154.52C151.28 154.92 150.88 155.56 150.2 156.28C149.04 157.48 147.36 160.08 146.32 162.48" stroke="#171717" stroke-width="2" stroke-linecap="round"/>
<path d="M195.04 188.6C195.52 190.32 196.84 191.88 198.04 193.2C199.28 194.56 200.64 195.44 202.24 196.28C203.52 196.96 205.2 197.92 206.56 198.32C207.52 198.6 208.44 199.12 209.44 199.4C210.2 199.6 210.92 199.4 211.68 199.6C213 199.96 215.16 199.44 216.56 199.4C218.12 199.36 219.68 198.88 221.24 198.48C222.84 198.04 224.88 197.64 226.32 196.8C227.28 196.2 229.44 195.36 230.12 194.44C231.88 191.96 233.56 189.12 235.04 186.44C235.72 185.2 236.2 183.8 236.76 182.48C237.04 181.84 236.92 180.52 237.04 179.76C237.16 178.92 237.48 177.96 237.28 177.16C236.8 175.32 237.4 173.76 237.4 172C237.4 171.32 236.48 167.12 235.88 166.84C235.36 166.6 234.92 165.4 234.56 164.96C233.8 164.12 232.8 163.56 232.16 162.6C231.28 161.32 230.24 159.44 228.88 158.6C226.6 157.24 224.28 156.08 222 154.72C220.8 154 219.2 154.08 217.84 153.8C216.32 153.48 214.04 152.64 212.56 153.04C209.4 153.88 205.8 154.04 202.8 155.64C201.52 156.32 200.08 156.92 199.08 157.92C197.88 159.12 197.36 160.2 196.52 161.72C194.88 164.68 193.16 168.08 192.52 171.48C192.12 173.64 191.8 174.76 192.36 176.92C192.84 178.64 192.44 180.64 192.88 182.36C193.32 184 193.48 185.76 193.96 187.48C194.36 189.04 195.24 191.88 196.48 192.84C197.32 193.48 197.8 194.52 198.44 195.36C199.04 196.12 199.76 196.32 200.6 196.84C202.04 197.72 204.92 198.8 207.4 199.24" stroke="#171717" stroke-width="2" stroke-linecap="round"/>
<path d="M140.786 175.449H169.912M237.398 175.449H186.961M169.912 175.449C170.701 177.185 173.653 180.658 179.147 180.658C184.64 180.658 186.645 177.185 186.961 175.449M169.912 175.449H186.961" stroke="#171717" stroke-width="2" stroke-linecap="round"/>
<path d="M221.532 176.633C221.769 178.211 223.616 181.274 229.11 180.895C234.603 180.516 236.45 177.895 236.687 176.633" stroke="#171717" stroke-width="2" stroke-linecap="round"/>
<path d="M140.992 175.267C142.277 175.267 143.481 175.058 144.751 174.957C146.426 174.823 148.028 174.91 149.688 174.549C152.183 174.007 155.416 174.075 157.906 174.629C161.17 175.354 164.347 175.586 167.71 175.586C169.742 175.586 171.76 176.065 173.791 176.065C175.892 176.065 177.993 176.065 180.094 176.065C187.262 176.065 194.403 175.411 201.467 174.345C204.951 173.819 208.477 173.831 211.998 173.831C212.713 173.831 213.467 173.94 214.17 174.07C215.036 174.231 215.919 174.057 216.785 174.185C217.896 174.35 219.013 174.31 220.136 174.31" stroke="#171717" stroke-width="2" stroke-linecap="round"/>
<path d="M220.136 174.469C223.124 174.469 226.484 174.088 229.39 174.753C232.173 175.389 235.191 175.427 238.042 175.427C239.097 175.427 240.152 175.427 241.207 175.427C241.773 175.427 242.95 175.424 243.432 175.746" stroke="#171717" stroke-width="2" stroke-linecap="round"/>
<path d="M224.257 175.54C224.257 176.14 224.257 176.741 224.257 177.342C224.257 177.661 224.141 178.242 224.27 178.532C224.348 178.707 226.128 177.086 226.321 176.911C226.467 176.779 227.087 175.916 227.292 175.916C227.377 175.916 226.939 176.886 226.928 176.911C226.709 177.427 226.51 177.958 226.333 178.489C225.972 179.573 226.738 178.243 227.013 177.943C227.557 177.348 228.13 176.751 228.736 176.219C228.865 176.106 229.391 175.57 229.586 175.588C229.755 175.603 228.411 178.549 228.311 178.793C228.168 179.144 228.043 179.524 227.82 179.836C227.603 180.14 228.367 179.328 228.639 179.072C229.586 178.182 230.51 177.303 231.516 176.48C231.773 176.27 231.122 178.213 231.036 178.422C230.946 178.644 230.173 180.308 230.751 179.751C231.709 178.829 232.748 177.986 233.822 177.202C234.31 176.846 234.046 177.805 234.004 178.052C233.992 178.127 233.836 178.631 233.895 178.683C234.006 178.782 234.904 177.886 234.963 177.834" stroke="#171717" stroke-width="2" stroke-linecap="round"/>
<path d="M172.695 176.85C172.695 177.279 172.695 177.708 172.695 178.137C172.695 178.884 173.105 178.365 173.527 178.046C174.331 177.439 175.134 176.803 175.973 176.243C176.64 175.798 176.293 176.464 176.136 176.85C176.019 177.141 175.894 177.703 175.699 177.937C175.657 177.988 176.446 177.418 176.604 177.263C177.011 176.862 177.392 176.346 177.878 176.037C178.174 175.849 177.854 177.365 177.83 177.506C177.747 177.986 177.502 178.55 177.502 179.035C177.502 179.235 178.691 178.109 178.813 178.003C179.317 177.569 179.992 176.757 180.646 176.547C180.897 176.466 180.742 177.85 180.718 177.991C180.694 178.141 180.403 179.053 180.573 179.181C180.598 179.199 182.041 178.033 182.175 177.943C182.543 177.695 183.059 177.227 183.559 177.409C183.815 177.502 183.87 178.149 183.947 178.38" stroke="#171717" stroke-width="2" stroke-linecap="round"/>
<path d="M128.84 304V384L146.84 387.4" stroke="#171717" stroke-width="2" stroke-linecap="round" stroke-linejoin="round"/>
<path d="M187.68 304V384L205.68 387.4" stroke="#171717" stroke-width="2" stroke-linecap="round" stroke-linejoin="round"/>
<path d="M127.314 304.57C127.314 310.229 127.145 315.858 127.848 321.479C128.697 328.27 129.108 335.139 129.671 341.961C129.921 344.991 129.9 348.126 129.598 351.152C129.329 353.838 129.182 356.563 128.842 359.238C128.744 360.012 128.932 360.841 128.723 361.596C128.65 361.858 128.486 362.354 128.474 362.591C128.384 364.299 129.189 366.096 129.598 367.73C130.194 370.116 129.8 372.911 129.8 375.355C129.8 377.455 129.8 379.555 129.8 381.655C129.8 382.876 131.677 383.197 132.655 383.607C134.361 384.322 136.146 384.818 137.96 385.173C139.861 385.545 141.77 385.981 143.688 386.259C144.856 386.429 146.093 386.423 147.206 386.794" stroke="#171717" stroke-width="2" stroke-linecap="round"/>
<path d="M186.381 306.009C186.381 311.594 186 317.223 187.051 322.714C187.816 326.705 188.046 330.695 188.046 334.757C188.046 340.528 188.002 346.269 188.417 352.028C188.775 357.007 189.151 361.948 189.492 366.905C189.59 368.316 189.712 369.668 189.712 371.093C189.712 371.683 189.599 372.295 189.4 372.851C189.14 373.58 189.38 374.4 189.192 375.154C188.978 376.009 189.088 376.971 189.088 377.849C189.088 378.766 188.879 379.623 188.879 380.544C188.879 381.592 188.208 383.493 188.717 384.512C190.07 387.217 194.429 386.386 196.781 386.386C198.242 386.386 199.703 386.386 201.165 386.386C201.92 386.386 205.17 386.483 205.538 387.219" stroke="#171717" stroke-width="2" stroke-linecap="round"/>
<path d="M142.864 200C149.955 207.66 171.291 221.847 201.054 219.032C202.686 218.878 204.314 218.048 204.754 216.469C205.217 214.806 204.839 213.016 201.851 212.5" stroke="#171717" stroke-width="2.4" stroke-linecap="round" stroke-linejoin="round"/>
<path d="M142.229 199.672C142.947 201.036 144.191 201.994 145.176 203.149C145.886 203.982 146.607 204.678 147.382 205.431C148.665 206.678 149.976 208.013 151.481 208.992C152.937 209.938 154.463 210.735 156.019 211.492C157.8 212.358 159.805 212.557 161.55 213.462C163.492 214.469 165.793 214.394 167.838 215.044C169.677 215.629 171.658 215.873 173.529 216.341C177.441 217.319 180.975 218.977 185.079 219.068C188.07 219.135 191.043 219.371 194.053 219.371C195.439 219.371 196.814 219.22 198.178 219.22C199.448 219.22 200.636 218.829 201.866 218.605C202.853 218.426 203.57 217.516 204.282 216.947C204.901 216.451 204.698 215.235 204.66 214.522C204.567 212.747 202.189 211.643 200.721 211.643" stroke="#171717" stroke-width="2" stroke-linecap="round"/>
<path d="M110.566 209.947C65.2773 204.703 41.7163 271.563 108.21 292.801M108.21 292.801L95.906 304.6M108.21 292.801H91.4556" stroke="#171717" stroke-width="2" stroke-linecap="round" stroke-linejoin="round"/>
<path d="M91.1172 293.481C96.6961 293.481 102.252 293.364 107.831 293.364" stroke="#171717" stroke-width="2" stroke-linecap="round"/>
<path d="M110.072 210.997C107.11 210.997 104.149 210.997 101.187 210.997C98.0354 210.997 94.8835 212.435 91.8902 213.273C88.7524 214.151 85.8997 215.613 83.0656 217.207C80.0788 218.887 78.006 221.498 75.8147 224.071C73.763 226.479 71.2285 228.623 69.7621 231.479C69.2386 232.498 68.6727 233.166 68.6727 234.36C68.6727 238.628 68.59 243.06 67.91 247.276C67.5868 249.28 67.8011 251.458 67.8011 253.486C67.8011 255.018 67.97 255.655 68.5516 256.984C69.5977 259.375 71.1735 261.635 72.3284 263.945C72.6499 264.588 72.4953 265.433 72.861 266.124C73.3025 266.957 73.8459 267.722 74.2894 268.52C74.7246 269.304 75.2458 270.048 75.8631 270.699C77.1471 272.055 78.1092 273.676 79.3372 275.057C81.4985 277.489 83.8293 280.054 86.5277 281.909C90.1409 284.393 93.7105 287.031 97.6523 289.002C98.9242 289.638 100.199 290.315 101.574 290.697C103.141 291.132 105.133 291.584 106.586 292.271C106.894 292.416 108.89 293.208 108.716 293.578C108.295 294.474 106.659 295.465 105.944 296.181C104.009 298.116 98.0862 303.293 96.0001 305" stroke="#171717" stroke-width="2" stroke-linecap="round"/>
<path d="M252.157 212.595C259.623 238.463 282.498 277.329 314.27 225.839M314.27 225.839H332.28M314.27 225.839L323.737 212.595" stroke="#171717" stroke-width="2" stroke-linecap="round" stroke-linejoin="round"/>
<path d="M252.338 210.978C252.338 216.703 251.912 220.993 254.668 225.953C257.286 230.666 260.368 234.305 263.801 238.118C269.67 244.64 274.579 253.923 285.247 250.875C289.267 249.726 293.153 248.669 296.413 245.735C299.879 242.616 305.132 240.849 307.58 236.565C310.129 232.104 313.372 228.23 315.419 223.624C316.344 221.542 318.348 220.125 319.56 218.004C320.729 215.959 323.882 214.979 324.885 212.975" stroke="#171717" stroke-width="2" stroke-linecap="round"/>
<path d="M314.983 225.567C320.708 225.567 326.391 225.208 332.11 225.208" stroke="#171717" stroke-width="2" stroke-linecap="round"/>
</svg>
