<svg width="400" height="444" viewBox="0 0 400 444" fill="none" xmlns="http://www.w3.org/2000/svg">
<path d="M215.681 400.41C214.881 400.41 214.071 400.33 213.281 400.19L195.271 396.79C189.141 395.64 184.681 390.26 184.681 384.02V320.22C179.071 321.23 173.461 321.73 167.971 321.73C164.791 321.73 161.611 321.56 158.521 321.22C156.291 320.98 154.061 320.65 151.851 320.25V373.24L159.261 374.64C162.671 375.28 165.621 377.22 167.581 380.08C169.551 382.97 170.271 386.43 169.621 389.84C168.481 395.95 163.111 400.41 156.851 400.41C156.051 400.41 155.241 400.33 154.451 400.19L136.441 396.79C130.311 395.64 125.851 390.26 125.851 384.02V311.43C124.091 310.52 122.361 309.55 120.671 308.54C120.671 308.56 120.671 308.57 120.671 308.59C120.031 315.05 114.811 319.97 108.401 320.29C108.401 320.72 108.411 321.15 108.411 321.59C108.411 328.49 103.021 334.19 96.1307 334.57H95.9407L95.3307 334.59C88.7607 334.59 83.2507 329.63 82.5007 323.06C82.4207 322.32 82.3107 321.36 82.2407 320.25C75.9007 319.61 70.9207 314.38 70.6707 307.81C70.4307 300.87 75.6707 295 82.4607 294.37C82.4307 293.41 82.4207 292.41 82.4207 291.35C82.4207 285.81 85.8907 281.05 90.8207 279.19C78.4407 259.62 72.7807 234.93 73.9607 205.64C62.7307 178.11 67.1907 158.33 72.9607 146.54C78.8507 134.49 87.4207 128.11 92.1107 125.33C92.2507 124.78 92.4007 124.24 92.5607 123.7C91.9207 119.53 90.9707 109.65 93.9407 98.94C92.8107 99.02 91.7307 99.05 90.6907 99.05C77.3307 99.05 72.7807 92.21 71.2607 88.13C69.0507 82.21 69.4507 73.1 83.8507 63.32C90.4807 58.82 99.6107 54.3 109.571 50.6C122.291 45.83 135.041 43 143.651 43C157.021 43 161.571 49.83 163.081 53.91C164.841 58.66 164.931 65.61 157.011 73.41C161.061 75.48 164.271 77.71 166.431 79.39C166.591 79.38 167.321 79.33 167.321 79.33H167.731C229.561 79.33 255.541 113.04 262.771 136.61C264.951 134.2 268.011 132.61 271.461 132.36L271.681 132.34L272.311 132.32H272.531C279.221 132.32 284.861 137.61 285.361 144.35L285.421 145.13C285.501 146.11 285.581 147.16 285.631 148.28C286.191 148.34 286.741 148.43 287.281 148.54C293.851 149.85 298.321 155.89 297.661 162.57C297.021 169.03 291.801 173.95 285.391 174.27C285.391 174.7 285.401 175.13 285.401 175.57C285.401 182.13 280.521 187.61 274.121 188.46L271.451 189.84C272.241 194.24 272.841 198.66 273.261 203.06C275.231 223.91 273.141 242.61 267.381 255.73C256.921 279.6 235.831 300.47 210.681 312V373.25L218.091 374.65C221.501 375.29 224.451 377.23 226.411 380.09C228.381 382.98 229.101 386.44 228.451 389.85C227.311 395.95 221.941 400.42 215.681 400.42V400.41Z" fill="white"/>
<path d="M242.36 146.84C263.56 182.72 264.68 229.56 255.48 250.48C239.84 286.16 198.48 312.48 159.92 308.28C123.24 304.28 83.5599 274.76 86.9999 204.6" stroke="#171717" stroke-width="2" stroke-linecap="round"/>
<path d="M194.801 193.399C201.201 193.799 211.041 197.079 199.201 206.999" stroke="#171717" stroke-width="2" stroke-linecap="round" stroke-linejoin="round"/>
<path d="M240.88 146.6C242.36 150.84 243.88 155.04 246.48 158.32C249.52 162.16 251.32 168.52 253.8 173.04C256.16 177.4 259.8 182.36 259.8 187.44C259.8 190.92 261.96 194.44 261.96 197.96C261.96 201.28 261.96 204.6 261.96 207.92C261.96 215.04 261.6 223.2 258.16 229.52C256.84 231.92 257.72 237.28 257.44 240.04C257.12 243.12 254.88 246.12 254.56 248.92C253.84 255.2 247.08 263.2 244.28 268.88C238 281.64 228.84 289.2 216.76 296.04C213.64 297.8 210.56 298.12 207.52 299.68C204.76 301.08 200.52 304.04 197.72 304.36C191.32 305.12 183.12 308.92 176.84 309.32C172 309.6 167.36 312.16 162.36 309.32C157.6 306.64 147.48 305.8 142.2 305.48C131.56 304.88 122.28 295.24 114.44 288.88C110.8 285.92 106.52 275.72 104.2 271.28C101.6 266.32 99.3598 261.84 95.6398 257.64C86.2398 247.04 87.7598 232.52 87.7598 218.56C87.7598 214 87.3598 209.2 87.7598 204.6" stroke="#171717" stroke-width="2" stroke-linecap="round"/>
<path d="M194 193C195.862 193 197.729 193.074 199.514 193.68C200.272 193.938 200.888 194.536 201.508 195.018C202.234 195.583 202.634 196.477 202.983 197.308C203.467 198.463 203.74 199.469 203.74 200.737C203.74 201.761 202.849 202.837 202.11 203.488C201.129 204.351 200.081 205.349 199.355 206.438" stroke="#171717" stroke-width="2" stroke-linecap="round"/>
<path d="M109.182 107.112C109.182 103.743 108.881 100.032 110.512 96.9501C111.474 95.1341 113.136 93.807 114.651 92.479C114.986 92.1851 115.374 91.7254 115.75 91.4997C116.385 91.1189 114.549 92.368 113.986 92.8485C113.118 93.5891 112.258 94.3415 111.51 95.2041C111.435 95.2903 111.025 95.8299 111.099 95.4258C111.172 95.0252 111.581 94.575 111.824 94.285C113.234 92.6052 114.667 90.995 116.42 89.6614C119.12 87.6075 122.407 85.3609 125.94 85.2457C126.011 85.2434 127.039 85.0847 127.02 85.2457C127.003 85.3952 126.19 85.5816 126.124 85.606C125.043 86.0074 123.969 86.4482 122.919 86.927C121.285 87.6722 119.679 88.5325 118.097 89.3843C117.561 89.6728 117.02 89.9811 116.54 90.3542C116.462 90.4149 117.423 89.95 117.589 89.8739C119.881 88.8197 122.181 87.7582 124.457 86.6683C126.533 85.6744 128.663 84.3822 130.965 83.9986C132.687 83.7116 134.337 83.5688 136.083 83.5829C136.514 83.5863 136.97 83.6272 137.367 83.8138C137.771 84.0038 136.625 83.3165 136.244 83.084C135.506 82.6335 134.74 82.2766 133.917 82.0078C133.504 81.8731 132.791 81.8844 132.434 81.6291C132.204 81.4646 132.991 81.7298 133.265 81.8C134.187 82.0357 135.108 82.3081 136.018 82.5852C137.267 82.9652 138.635 83.238 139.759 83.9339C140.926 84.6563 137.225 82.875 135.926 82.4328C134.77 82.0394 133.311 82.1695 132.092 82.1695C131.616 82.1695 131.181 82.2794 130.716 82.3311C130.602 82.3438 130.45 82.3196 130.669 82.3542C131.346 82.461 132.026 82.5353 132.702 82.6452C135.578 83.1131 138.395 83.8324 141.178 84.696C142.685 85.1639 144.182 85.8724 145.727 86.2018C146.667 86.4021 147.568 86.733 148.503 86.9501C149.191 87.1098 149.875 87.2512 150.503 87.5736C151.312 87.9891 151.758 88.7311 152.314 89.4027C152.563 89.7038 152.788 89.9789 153.062 90.2526C153.155 90.3453 153.82 90.9174 153.82 91.024C153.82 91.0858 153.361 90.815 153.709 91.3612C154.02 91.8507 154.589 91.9344 155.057 92.2295C155.428 92.463 154.288 92.3115 154.124 92.3127C153.01 92.3205 151.966 92.5163 150.882 92.7469C149.347 93.0733 147.742 93.3425 146.189 93.5644C145.716 93.632 145.216 93.9071 144.762 94.0586C143.935 94.3342 143.123 94.6496 142.314 94.9732C141.78 95.1865 141.144 95.3509 140.651 95.6429C140.22 95.8983 139.806 96.1311 139.344 96.3219C138.426 96.7005 137.433 97.101 136.452 97.2827C135.622 97.4364 134.745 97.8938 133.963 98.2157C132.688 98.7404 131.391 99.1277 130.05 99.4628C128.952 99.7374 127.709 100.377 126.559 100.377" stroke="#FFD424" stroke-width="2" stroke-linecap="round"/>
<path d="M116.961 70.7598L122.321 83.1198" stroke="#171717" stroke-width="2" stroke-linecap="round" stroke-linejoin="round"/>
<path d="M107.06 118.349C107.06 115.951 106.863 113.46 107.16 111.08C107.298 109.978 107.607 108.915 107.732 107.809C107.851 106.743 108.092 105.55 108.41 104.525C108.972 102.712 109.356 100.844 110.117 99.0976C110.478 98.2679 111.102 97.54 111.688 96.8554C112.469 95.9418 113.146 94.9119 113.994 94.0634C114.578 93.4793 115.198 92.8828 115.658 92.1925C115.717 92.1036 116.393 90.9394 116.308 91.6212C116.181 92.6371 115.55 93.6681 115.158 94.5918C114.259 96.7117 113.471 98.8726 112.587 100.997C111.313 104.06 110.191 107.305 109.567 110.566C109.281 112.06 109.117 116.628 109.117 115.107C109.117 113.683 109.593 112.559 110.202 111.265C111.847 107.772 113.566 104.249 114.872 100.611C116.06 97.3044 116.981 93.7511 118.557 90.6001C118.65 90.4132 118.978 89.8902 118.821 90.0789C118.659 90.2731 118.722 90.8278 118.685 91.0643C118.515 92.1633 118.363 93.2631 118.086 94.3419C117.547 96.4359 116.981 98.5303 116.215 100.554C115.795 101.663 115.211 102.679 114.772 103.775C114.176 105.265 113.767 106.823 113.423 108.388C113.168 109.544 112.492 110.812 112.459 111.994C112.436 112.807 112.702 111.807 112.873 111.48C113.462 110.351 114.254 109.324 114.958 108.266C116.411 106.081 117.707 103.826 118.943 101.511C121.412 96.8847 123.168 92.0297 124.898 87.1155C125.199 86.2615 125.312 85.2459 125.312 84.3449C125.312 84.139 125.429 83.4787 125.241 83.9093C125.026 84.401 124.782 84.9388 124.477 85.3803C123.871 86.2553 123.524 87.4269 123.077 88.3865C122.256 90.1511 121.5 91.9325 120.685 93.6992C119.952 95.2879 119.178 96.8906 118.628 98.5549C118.106 100.136 117.884 101.808 117.536 103.432C117.34 104.346 117.178 105.32 117.093 106.253C117.016 107.098 117.268 106.328 117.657 105.953C119.66 104.021 121.937 102.447 123.87 100.411C124.867 99.3607 125.787 98.3564 126.312 96.9839C126.887 95.4801 127.21 93.8995 127.497 92.321C127.915 90.0223 128.346 87.669 128.525 85.3374C128.58 84.6247 128.602 83.6681 128.882 83.0024C129.862 80.6761 127.153 87.7451 126.283 90.1146C125.66 91.8131 124.919 93.4958 124.212 95.163C123.298 97.3205 122.632 99.5722 121.742 101.74C121.177 103.115 120.536 104.479 120.042 105.881C120.009 105.975 119.676 107.322 119.914 107.109C120.96 106.173 122.356 105.581 123.541 104.824C125.941 103.293 128.406 101.745 130.432 99.7188C131.781 98.3698 132.868 96.7902 134.038 95.2916C134.35 94.8922 135.446 93.8347 135.109 94.2133C134.588 94.7995 133.998 95.3523 133.41 95.8843C131.701 97.4294 130.274 99.2173 128.411 100.597C127.147 101.534 122.691 103.194 124.184 102.696C128.033 101.413 131.41 99.1771 134.881 97.1482C137.945 95.3565 140.971 93.8232 144.463 93.0565C147.289 92.4363 150.094 92.0989 152.954 91.6784C153.795 91.5547 154.739 91.4856 155.589 91.4856C156.207 91.4856 157.3 91.7108 157.881 91.4784C158.02 91.4227 157.27 90.9947 157.188 90.9714C155.989 90.6287 154.831 89.6743 153.746 89.072C151.475 87.8099 149.052 86.7893 146.591 85.9515C144.038 85.0823 141.567 83.7071 138.808 83.6451C135.004 83.5596 131.209 83.1215 127.397 83.5451C127.302 83.5557 126.129 83.7557 126.469 83.7736C127.968 83.8525 129.201 84.109 130.546 84.859C131.443 85.3591 132.073 85.9193 131.789 86.9941C131.613 87.6568 131.183 88.2199 130.839 88.8007C130.175 89.9204 129.757 91.1568 129.268 92.3567C128.707 93.7327 128.024 95.1399 127.726 96.5983C127.545 97.4808 127.679 96.7241 127.826 96.2841C128.455 94.3958 129.403 92.6878 130.432 90.9929C130.541 90.8128 131.582 89.0146 131.603 89.1291C131.806 90.2466 130.961 91.7431 130.71 92.7995C130.171 95.075 129.73 97.4197 129.04 99.6545C128.806 100.411 129.001 99.6788 129.225 99.4546C129.733 98.9466 130.443 98.6218 131.025 98.2121C132.611 97.0946 134.064 95.733 135.516 94.449C136.847 93.2721 138.488 91.9483 139.508 90.4645C139.843 89.9769 139.717 89.6545 139.165 89.4005C137.382 88.5798 135.489 88.1711 133.567 87.7867C132.82 87.6374 132.044 87.5821 131.31 87.3725C130.609 87.1723 131.134 87.1155 131.553 87.1155C137.33 87.1155 143.231 86.7692 148.962 87.3725C149.041 87.3808 149.233 87.4656 149.162 87.5011C148.793 87.6853 147.6 87.25 147.291 87.1869C142.451 86.1968 137.625 84.8299 132.738 84.1021C132.426 84.0556 131.274 84.0195 132.217 84.1592C133.284 84.3173 134.294 84.6906 135.323 85.0018C138.104 85.8424 140.957 86.4579 143.778 87.144C146.291 87.7552 148.84 88.2702 151.319 89.0149C152.163 89.2685 152.954 89.6508 153.789 89.9146C154.039 89.9937 153.929 90.0661 153.718 90.0717C152.838 90.0949 151.955 90.0717 151.076 90.0717C146.887 90.0717 142.697 90.0717 138.508 90.0717C138.084 90.0717 137.345 89.9286 136.937 90.1003C136.882 90.1237 138.235 90.2045 138.365 90.2074C140.743 90.2602 143.256 90.1954 145.592 90.7144C145.744 90.7482 145.298 90.8429 145.142 90.8429C142.362 90.8429 139.565 90.92 136.794 91.1571C134.76 91.3312 132.746 91.6643 130.725 91.9426C130.403 91.9868 129.421 92.1282 130.368 92.1282C132.698 92.1282 135.023 91.7426 137.351 91.7426C139.773 91.7426 132.523 91.3631 130.111 91.1571C129.509 91.1057 128.946 90.9801 128.361 90.8501C127.991 90.7678 129.091 90.6283 129.468 90.5858C131.118 90.4002 132.774 90.3014 134.424 90.1003C135.171 90.0091 135.994 90.0443 136.723 89.8432C137.002 89.7662 136.164 89.7892 136.123 89.7861C135.014 89.7024 133.914 89.6861 132.803 89.6861C132.752 89.6861 131.859 89.6613 132.189 89.7575C133.5 90.14 134.948 90.1795 136.287 90.4645C137.697 90.7645 139.191 91.0127 140.557 91.4856C141.884 91.9449 140.149 92.2828 139.608 92.471C134.987 94.0767 130.424 95.8491 125.812 97.4695C125.784 97.4794 124.858 97.8411 125.241 97.6551C126.012 97.2801 126.804 96.9417 127.604 96.634C127.962 96.4966 129.246 95.6524 129.161 96.5055C129.109 97.0282 128.704 97.4706 128.383 97.8551C127.662 98.7158 126.916 99.5662 126.162 100.397C125.577 101.041 125.048 101.761 124.434 102.375C124.144 102.665 124.14 102.345 124.162 102.09C124.197 101.687 124.941 101.213 124.798 101.411C124.576 101.719 124.174 101.844 123.87 102.054C123.194 102.518 122.518 102.968 121.913 103.525C119.7 105.562 117.831 107.932 115.629 109.98C114.907 110.652 114.286 111.538 113.487 112.115C112.575 112.774 112.639 111.727 112.773 110.937C113.027 109.438 113.753 108.017 114.387 106.652C115.233 104.831 116.127 103.034 117.029 101.24C117.86 99.5863 118.74 98.0653 119.792 96.5483C120.717 95.2152 121.626 93.8505 122.47 92.4639C122.687 92.1082 122.741 91.8614 122.741 91.457C122.741 90.9 122.741 90.3431 122.741 89.7861C122.741 89.1727 122.301 89.2689 121.777 89.3077C120.543 89.3991 119.442 90.3933 118.5 91.1" stroke="#FFD424" stroke-width="2" stroke-linecap="round"/>
<path d="M105.681 123.32C103.481 112.68 104.241 91.0798 122.321 83.1598C139.601 75.5998 156.521 86.8798 162.001 92.8398" stroke="#171717" stroke-width="2" stroke-linecap="round" stroke-linejoin="round"/>
<path d="M120.231 79.2429C138.865 72.306 152.596 62.99 150.9 58.4352C149.205 53.8803 132.724 55.8113 114.091 62.7482C95.4571 69.6851 81.7262 79.0011 83.4219 83.556C85.1176 88.1108 101.598 86.1798 120.231 79.2429Z" stroke="#171717" stroke-width="2"/>
<path d="M160.479 92.6008C159.759 92.0008 158.439 91.9608 157.839 91.2408C156.919 90.1608 155.679 89.1208 154.559 88.2408C153.239 87.2808 151.839 86.3208 150.599 85.4008C147.839 83.3608 143.919 83.8808 140.799 82.6808C139.879 82.3208 138.919 82.0808 138.039 81.6408C137.359 81.3208 136.519 80.7208 135.759 80.6808C134.919 80.6408 134.159 80.5208 133.279 80.5608C131.919 80.6008 131.159 81.4008 129.919 81.8408C126.319 83.0808 123.159 85.4408 119.639 86.6008C117.999 87.1608 116.479 88.4808 114.919 89.3208C113.359 90.2008 111.959 91.5608 110.959 92.9608C108.759 96.0808 107.839 99.8808 106.559 103.401C105.439 106.481 106.199 110.361 106.359 113.641C106.519 117.041 106.159 120.241 106.319 123.641" stroke="#171717" stroke-width="2" stroke-linecap="round"/>
<path d="M117.361 70.4404C117.401 71.6004 117.201 73.1604 117.721 74.2004C118.161 75.0804 118.521 75.8404 119.001 76.7204C120.121 78.7604 121.801 80.4804 121.921 82.9604" stroke="#171717" stroke-width="2" stroke-linecap="round"/>
<path d="M121.912 77.8998C117.52 78.1207 113.626 79.4461 109.441 80.5065C106.748 81.1692 104.593 82.4946 101.693 82.6271C100.409 82.6713 99.0413 83.1573 97.7569 83.2456C96.2653 83.3782 94.8566 83.2898 93.4478 83.6433C91.2519 84.1734 88.4344 83.9083 86.1556 83.9967C85.3684 84.0409 84.0425 83.6433 84.0011 82.7596C83.9596 81.3459 85.1198 80.4181 85.9484 79.2252C87.0671 77.5906 88.7659 76.4419 90.216 74.9839C91.4176 73.7911 92.412 73.3934 93.9865 72.6424C95.6438 71.8471 97.5083 71.4495 99.207 70.7868C101.072 70.0357 102.977 69.2405 104.925 68.7103C105.671 68.4894 106.624 67.9151 107.286 67.4733C108.198 66.899 109.234 66.6781 110.228 66.2363C111.637 65.5735 113.294 64.955 114.786 64.469C116.692 63.8947 118.805 62.7902 120.545 61.9066C122.202 61.0672 123.818 60.7579 125.559 60.1836C128.086 59.3441 130.53 58.1071 133.265 57.8862C137.988 57.4886 142.878 56.9584 147.684 57.0026C148.264 57.0026 149.548 57.6653 150.045 58.0187C150.957 58.6373 150.957 59.4325 150.998 60.4045C151.04 61.6857 150.253 62.0833 149.548 63.0111C148.802 63.9831 147.932 65.1759 146.897 65.8828C143.126 68.4894 138.9 69.859 134.591 71.5379C128.79 73.8352 123.86 77.5022 117.893 79.6229" stroke="#171717" stroke-width="2" stroke-linecap="round"/>
<path d="M88.5712 201.556C87.8471 199.927 87.2444 198.209 86.5043 196.564C86.0156 195.478 83.9824 192.594 84.8726 193.385C86.3687 194.715 87.7023 196.203 89.3327 197.41C89.6895 197.675 92.7113 200.193 91.3874 198.704C88.4809 195.434 87.231 191.261 85.3077 187.414C84.102 185.003 82.5228 182.976 81.5004 180.477C80.8501 178.887 81.3064 179.912 81.8751 180.67C83.8074 183.246 86.3319 185.336 88.0877 188.067C89.3312 190.002 90.5807 192.564 92.2698 194.159C92.6411 194.51 92.7584 194.252 92.6565 193.845C92.2944 192.396 91.2101 191.559 90.4446 190.339C88.6183 187.431 87.4687 183.754 86.5164 180.465C86.007 178.705 84.999 177.204 84.3891 175.497C84.2655 175.151 83.7608 174.168 83.9056 174.506C84.2646 175.343 84.5933 176.039 85.1385 176.802C88.1925 181.078 91.424 185.41 94.8805 189.36C95.3838 189.936 96.0735 190.601 96.6694 191.065C96.8972 191.242 96.02 189.422 95.92 189.276C94.4182 187.085 93.3226 184.833 92.2698 182.398C90.6947 178.756 89.4393 175.058 87.4834 171.581C86.5258 169.878 85.9064 168.001 84.8726 166.359C84.7029 166.09 83.7224 164.204 84.3529 165.465C86.2129 169.185 90.1805 171.613 92.8862 174.675C94.4363 176.429 95.7045 178.368 97.1045 180.235C97.8561 181.237 98.7446 182.362 99.1834 183.547C99.4412 184.243 99.7647 184.976 100.223 185.565C101.185 186.802 98.6894 184.935 98.3615 184.538C96.6383 182.452 94.8524 180.233 93.5872 177.83C91.8874 174.6 91.2085 170.732 90.4326 167.205C90.1307 165.833 89.6337 164.527 89.3327 163.156C89.051 161.873 88.8159 160.559 88.1844 159.397C87.8136 158.715 87.7399 157.584 87.2174 157.004C85.7637 155.389 85.8261 158.067 86.178 159.034C86.4433 159.764 86.523 160.567 86.7219 161.319C87.1163 162.809 87.7804 164.209 88.1361 165.706C88.3402 166.566 88.5495 167.28 88.958 168.051C89.0184 168.166 88.2911 166.936 88.1361 166.637C86.4872 163.457 86.967 158.541 87.9668 155.167C88.2818 154.104 88.3536 153.171 88.3536 152.072C88.3536 151.717 88.2977 151.437 88.4624 151.964C88.8277 153.133 89.1035 154.165 89.7073 155.263C91.295 158.15 93.4031 160.635 95.2069 163.374C96.7956 165.786 99.0193 167.685 100.537 170.13C101.695 171.995 103.056 173.732 104.187 175.618C104.799 176.637 105.134 177.894 105.855 178.821C106.247 179.324 106.114 180.11 106.363 180.67C106.446 180.856 106.491 181.455 106.387 181.637C105.915 182.463 103.378 179.641 103.148 179.365C98.8843 174.237 93.6943 169.842 91.0732 163.591C90.698 162.697 90.3488 161.8 89.9974 160.896C89.6718 160.059 90.1508 161.944 90.2633 162.177C91.9709 165.719 93.791 169.26 95.92 172.572C97.4911 175.016 99.4332 177.011 101.19 179.256C101.596 179.775 102.795 181.105 103.583 181.105C104.264 181.105 105.869 178.771 106.411 178.289C107.157 177.626 108.257 176.913 109.131 176.427C109.533 176.204 109.692 176.368 109.324 175.859C108.352 174.513 107.035 173.435 106.194 171.992C103.026 166.555 101.49 160.404 99.2801 154.562C98.4572 152.388 97.4184 150.259 96.4035 148.156C95.8523 147.015 95.3201 145.881 94.5421 144.881C94.1213 144.34 93.6215 143.852 93.3092 144.554C92.8711 145.54 92.2555 146.092 91.5083 146.839C91.3236 147.024 89.9385 148.631 90.1425 148.857C90.2697 148.999 90.6318 149.047 90.7952 149.123C91.7535 149.57 92.359 150.556 92.9708 151.371C95.3438 154.535 97.6955 157.666 99.8361 160.993C100.807 162.501 101.932 163.963 102.664 165.61C102.807 165.932 103.631 167.1 102.906 166.939C101.468 166.62 100.364 164.551 99.6669 163.434C98.1328 160.975 96.8797 158.337 95.3157 155.904C94.3511 154.404 93.417 152.676 92.2214 151.347C92.0363 151.142 91.981 150.841 92.0643 150.55C92.2009 150.071 93.491 151.007 93.6235 151.081C94.1835 151.397 98.144 153.583 98.144 152.906C98.144 151.938 97.4894 151.235 97.0562 150.417C96.4276 149.229 96.0201 147.935 95.7991 146.609C95.5576 145.16 95.5332 140.74 95.5332 142.21C95.5332 143.818 95.8037 145.184 95.4849 146.778C95.2278 148.064 95.5879 151.986 95.3036 150.707C94.8677 148.745 93.8917 146.933 93.4059 144.99C93.1473 143.955 94.2506 144.203 94.8805 143.853C95.7412 143.375 95.8462 141.905 96.0771 141.073C96.2532 140.44 96.1725 139.127 96.6694 140.469C96.9389 141.197 97.4873 141.878 98.0715 142.379C99.6704 143.749 101.436 144.946 103.051 146.307C106.572 149.272 109.871 152.819 112.491 156.617C114.242 159.155 115.986 161.684 116.806 164.691C116.984 165.345 117.475 166.549 116.274 165.513C114.1 163.639 112.315 161.379 110.545 159.131C108.507 156.543 106.147 154.243 104.139 151.637C102.722 149.798 101.512 147.922 99.8845 146.295C99.3886 145.799 97.9852 143.839 98.8208 145.57C100.524 149.097 101.771 152.814 103.535 156.303C105.123 159.445 107.143 162.172 108.925 165.175C109.673 166.434 110.179 167.875 111.077 169.03C111.332 169.359 111.587 169.913 110.932 169.526C109.625 168.754 108.682 167.573 107.499 166.649C106.409 165.797 103.554 162.822 104.332 163.966C105.506 165.692 106.995 167.301 108.321 168.922C109.251 170.058 110.325 171.741 110.763 173.164C110.806 173.303 111.391 174.284 111.391 173.877C111.391 172.509 110.272 171.123 109.627 170.009C107.805 166.866 106.993 163.292 105.239 160.134C104.578 158.944 107.384 161.814 108.478 162.624C109.963 163.724 111.413 164.785 112.721 166.093C112.909 166.281 114.433 167.889 114.147 167.302C113.132 165.215 111.686 163.247 110.497 161.258C108.482 157.89 106.688 154.502 105.13 150.9C103.952 148.176 103.173 145.322 101.951 142.608C101.521 141.653 101.081 140.694 100.706 139.72C100.612 139.473 100.164 139.008 100.199 138.729C100.204 138.687 101.267 139.526 101.335 139.575C106.895 143.578 112.37 147.509 116.202 153.257C117.896 155.798 119.263 158.548 120.988 161.041C121.981 162.476 120.881 161.795 119.985 161.065C117.494 159.035 114.668 156.44 112.95 153.692C111.406 151.221 110.246 148.552 108.805 146.029C108.011 144.64 106.952 143.092 106.411 141.605C106.118 140.8 105.682 140.059 105.372 139.285C104.766 137.769 105.574 138.846 106.508 139.55C110.712 142.718 115.299 145.419 119.659 148.362C121.572 149.653 122.929 151.478 124.578 153.039C124.896 153.34 126.749 155.607 125.557 154.345C124.247 152.958 123.584 151.081 122.463 149.558C120.895 147.431 119.462 145.029 117.725 143.044C117.051 142.274 116.292 141.322 115.815 140.421C115.543 139.908 114.376 139.683 113.917 139.224C113.189 138.496 112.026 136.127 110.499 134.501C108.152 132.001 107.248 127.296 105.662 128.001C105.267 128.177 105.071 134.983 105.662 135.743C106.318 136.586 107.394 137.259 108.152 138.028C109.627 139.524 110.855 141.251 112.261 142.814C115.692 146.626 118.644 150.821 120.662 155.529C121.421 157.3 122.034 159.02 124.034 159.131C124.481 159.156 124.615 159.276 124.372 158.599C123.907 157.3 122.787 155.994 121.967 154.889C121.226 153.89 120.743 152.733 120.215 151.613C119.815 150.768 120.671 151.611 120.867 151.843C121.703 152.831 122.433 153.51 123.599 154.127C124.125 154.406 125.832 155.982 125.122 154.562" stroke="#171717" stroke-width="4" stroke-linecap="round"/>
<path d="M129.385 153.201C129.385 151.592 128.858 150.292 128.259 148.809C127.331 146.51 126.451 144.242 125.243 142.068C123.395 138.741 120.996 135.677 119.252 132.324C117.538 129.028 115.604 125.696 113.248 122.817C108.858 117.451 119.409 135.245 122.755 141.317C123.672 142.982 124.699 144.67 125.479 146.404C126.028 147.623 125.32 146.915 124.729 146.279C122.411 143.789 120.807 140.719 118.863 137.953C117.086 135.424 114.942 133.131 113.248 130.559C112.46 129.362 111.747 128.099 110.927 126.931C110.527 126.362 110.225 125.377 109.62 124.986C109.341 124.805 108.353 123.679 108.619 123.679C109.76 123.679 110.629 124.503 111.872 124.43C112.453 124.395 111.872 121.918 111.872 121.427C111.872 120.992 111.463 118.977 111.872 118.925C112.422 118.857 113.422 117.159 113.679 116.674C114.903 114.361 114.671 116.793 115.18 117.98C116.385 120.793 118.557 123.257 120.128 125.875C121.834 128.718 123.803 131.372 125.632 134.131C126.55 135.517 127.242 137.038 128.134 138.44C128.554 139.099 129.169 139.935 129.385 140.691C129.673 141.7 130.94 143.787 131.762 144.444C131.991 144.628 134.454 147.701 134.5 147.641C134.939 147.055 130.522 141.62 130.135 141.025C127.681 137.252 125.814 133.026 123.895 128.961C122.208 125.39 120.938 121.542 119.127 118.05C118.27 116.396 117.79 114.348 117.39 112.546C117.264 111.981 117.813 113.32 118.029 113.574C120.274 116.21 122.633 118.788 124.784 121.497C127.709 125.18 130.431 129.031 133.388 132.686C134.65 134.246 135.654 135.892 136.529 137.689C137.225 139.121 137.755 140.53 138.642 141.887C139.21 142.756 139.862 143.546 140.337 144.444C140.611 144.962 140.581 145.051 139.976 144.583C138.345 143.323 137.272 142.138 136.084 140.441C132.815 135.772 129.794 131.128 128.134 125.625C127.077 122.123 126.455 118.347 125.938 114.728C125.596 112.336 123.881 107.778 123.881 107.778C123.881 107.778 124.314 109.012 124.645 109.571C126.036 111.918 127.866 113.927 129.538 116.076C131.715 118.875 133.905 121.585 135.876 124.541C137.204 126.533 138.231 128.671 139.517 130.684C142.08 134.695 144.047 139.219 146.397 143.332C146.812 144.058 147.508 144.624 147.898 145.306C148.4 146.184 147.155 144.347 147.009 144.166C144.727 141.333 142.451 138.159 140.796 134.923C138.945 131.304 137.45 127.495 135.751 123.804C134.559 121.215 133.229 118.691 132.151 116.048C130.876 112.927 130.397 109.238 128.759 106.291C128.523 105.866 128.2 105.677 128.634 106.166C129.303 106.918 129.681 108.054 130.247 108.89C132.842 112.73 136.035 116.177 138.836 119.871C140.925 122.625 142.626 125.61 144.396 128.571C146.543 132.164 148.871 135.817 150.595 139.635C151.226 141.032 152.174 143.24 153.208 144.389C153.392 144.593 153.847 145.278 153.653 145.084C152.547 143.978 151.658 141.852 150.789 140.525C146.708 134.287 143.336 127.544 140.448 120.677C138.836 116.842 137.75 112.777 135.945 109.029C135.203 107.488 134.338 106.038 133.582 104.526C133.235 103.831 134.042 105.041 134.166 105.193C135.862 107.266 137.999 109.026 139.892 110.92C144.907 115.934 148.533 121.7 151.776 127.946C153.582 131.424 154.926 135.113 156.53 138.676C157.117 139.981 158.335 141.433 158.642 142.818C158.822 143.624 158.263 142.826 157.906 142.429C156.262 140.603 154.897 138.292 153.402 136.327C150.081 131.96 147.064 127.499 144.646 122.553C143.976 121.183 143.267 119.768 142.519 118.439C142.24 117.942 141.685 116.962 142.408 118.092C146.102 123.864 149.766 129.641 153.013 135.688C154.394 138.26 155.881 140.82 157.155 143.444C157.541 144.237 158.815 146.517 157.155 144.945C155.488 143.365 152.974 142.822 151.206 141.331C147.139 137.899 143.799 134.104 140.893 129.683C139.138 127.013 136.884 124.936 134.944 122.428C133.528 120.597 132.141 118.74 130.636 116.98C129.352 115.478 128.134 113.929 126.827 112.476C126.239 111.823 125.97 111.25 125.576 110.419C125.278 109.789 125.154 107.929 124.631 107.667" stroke="#171717" stroke-width="4" stroke-linecap="round"/>
<path d="M168.608 143.555C167.239 139.876 165.803 136.228 164.299 132.603C162.552 128.393 161.073 123.57 158.656 119.676C156.481 116.172 153.732 112.738 152.151 108.918C151.066 106.296 149.671 103.687 147.648 101.663C147.34 101.356 146.103 99.2725 145.702 99.2725C145.156 99.2725 146.996 102.852 147.05 102.956C149.422 107.524 151.253 112.361 153.207 117.119C156.264 124.56 159.891 131.693 163.354 138.941C164.014 140.322 164.787 141.937 165.161 143.43C165.464 144.645 165.913 144.962 164.605 143.472C156.436 134.166 152.444 122.172 145.646 111.976C143.97 109.462 142.314 107.108 140.893 104.415C140.488 103.647 138.726 101.397 140.198 103.414C142.493 106.56 144.787 109.729 147.022 112.921C149.121 115.92 150.877 119.16 153.096 122.067C154.202 123.516 151.949 120.313 151.762 120.01C150.245 117.552 148.883 115.003 147.592 112.421C146.421 110.079 145.325 107.589 144.59 105.11C144.452 104.645 143.322 101.869 142.7 102.024C142.455 102.086 145.683 107.04 145.813 107.209C148.841 111.14 151.838 115.078 154.903 118.981C156.754 121.339 158.343 123.901 160.157 126.292C161.104 127.541 161.956 128.779 162.659 130.184" stroke="#171717" stroke-width="4" stroke-linecap="round"/>
<path d="M236.713 118.675C236.713 121.2 237.722 123.396 238.715 125.68C240.017 128.676 241.321 131.652 242.662 134.631C244.083 137.789 245.391 140.899 247.096 143.93C247.399 144.469 247.665 145.02 247.972 145.556C248.694 146.821 245.693 143.72 244.719 142.637C240.176 137.583 236.119 131.345 233.225 125.194C231.617 121.778 230.073 118.347 228.457 114.936C227.789 113.525 225.175 109.622 225.955 110.975C226.782 112.409 227.208 114.298 227.818 115.84C229.344 119.699 230.912 123.546 232.335 127.445C234.194 132.54 236.448 137.496 238.909 142.331C239.503 143.498 239.828 143.389 240.5 144.5C240.718 144.861 241.595 145.69 241.195 145.556C239.681 145.052 238.926 144.488 237.964 143.332C235 139.768 232.447 135.874 230.222 131.81C227.332 126.528 224.701 121.059 222.008 115.673C221.123 113.903 220.382 112.08 219.701 110.224C219.126 108.661 218.177 107.094 217.699 105.54C217.594 105.197 216.728 104.239 217.088 104.804C217.577 105.573 217.913 106.291 218.2 107.167C219.934 112.465 221.676 117.767 223.467 123.053C225.083 127.82 227.224 132.399 228.902 137.133C229.744 139.509 231.197 141.54 232.21 143.819C232.405 144.258 232.759 144.615 232.961 145.069C233.652 146.625 231.816 143.627 231.557 143.276C228.924 139.708 226.333 136.185 224.204 132.282C221.726 127.738 219.87 122.821 217.699 118.119C216.795 116.159 215.891 114.193 215.003 112.226C214.325 110.726 213.345 109.406 212.849 107.806C212.381 106.3 211.445 104.002 211.445 102.413C211.445 102.224 211.818 103.158 211.889 103.414C212.222 104.611 212.607 105.788 213.001 106.972C214.916 112.716 216.382 118.563 218.214 124.332C219.649 128.855 220.725 133.887 222.759 138.189C223.569 139.904 224.442 141.657 225.08 143.443C225.234 143.876 226.342 145.659 225.677 145.042C223.908 143.398 222.498 141.2 221.216 139.176C218.404 134.736 216.071 130 213.752 125.291C210.896 119.491 208.53 113.209 206.191 107.194C205.193 104.629 204.462 102.066 203.745 99.4109C203.554 98.7071 203.289 98.0727 202.994 97.4094C202.627 96.5844 203.367 97.8369 203.439 98.16C203.655 99.131 204.456 100.08 204.954 100.926C206.381 103.351 207.86 105.741 209.193 108.223C210.69 111.01 212.043 113.842 213.446 116.674C214.634 119.071 216.029 121.479 216.824 124.04C217.198 125.246 217.701 126.427 217.949 127.668C218.007 127.954 218.2 129.104 218.2 128.933" stroke="#171717" stroke-width="4" stroke-linecap="round"/>
<path d="M221.451 145.446C221.414 145.115 221.189 144.809 221.047 144.514C220.224 142.805 219.379 141.104 218.546 139.4C216.499 135.215 214.585 130.963 212.249 126.932C209.146 121.576 206.014 116.225 202.812 110.934C200.453 107.037 197.77 103.172 195.932 99.0365C195.837 98.8231 195.33 97.5299 195.487 97.9663C196.301 100.227 198.72 102.059 200.171 103.901C202.009 106.234 203.762 108.612 205.439 111.059C205.713 111.459 207.088 113.401 206.44 111.865C206.076 111.005 205.506 110.38 204.952 109.642C204.086 108.487 203.527 107.054 202.826 105.791C201.955 104.223 201.444 102.499 200.56 100.927C200.133 100.167 199.302 99.647 198.934 98.9114" stroke="#171717" stroke-width="4" stroke-linecap="round"/>
<path d="M187.928 96.6588C188.06 98.1183 188.852 99.4828 189.484 100.773C190.567 102.98 191.601 105.209 192.681 107.417C194.006 110.124 195.231 112.993 196.378 115.784C198.91 121.939 200.978 128.276 203.926 134.27C205.621 137.717 206.695 141.447 208.568 144.819C209.316 146.165 207.952 143.783 207.79 143.513C203.738 136.76 201.436 129.048 198.491 121.788C196.604 117.137 193.796 111.732 193.682 106.583C193.666 105.88 194.19 107.363 194.238 107.472C194.928 109.05 195.82 110.524 196.74 111.976C201.79 119.942 206.245 128.262 210.458 136.688C210.981 137.733 211.64 138.705 212.057 139.802C212.169 140.097 212.378 141.178 212.793 141.261C213.756 141.454 211.667 139.652 211.056 138.884C209.668 137.142 208.419 135.203 207.317 133.269C206.125 131.176 205.125 128.993 204.217 126.764C204.146 126.588 203.444 124.963 203.592 125.11C204.164 125.682 204.549 126.506 204.954 127.195C205.787 128.611 206.859 129.854 207.887 131.129C211.047 135.048 213.1 139.951 216.449 143.693C216.545 143.801 216.873 144.293 216.588 143.888C215.873 142.872 214.944 142.017 214.197 141.025C210.739 136.427 208.857 130.852 206.427 125.708C203.817 120.18 201.36 114.578 199.061 108.918C198.307 107.061 197.06 105.368 196.184 103.553C195.448 102.029 194.568 100.575 193.738 99.1051C193.58 98.8259 191.727 93.7212 191.486 93.9624C191.019 94.4292 192.069 97.1909 192.181 97.7151C192.949 101.33 193.193 104.665 194.572 108.181C198.01 116.955 204.214 124.224 208.679 132.449C210.871 136.486 212.931 141.013 214.197 145.445" stroke="#171717" stroke-width="4" stroke-linecap="round"/>
<path d="M205.189 145.195C204.967 142.539 203.019 139.817 201.561 137.69C198.903 133.81 196.797 129.444 194.431 125.375C190.56 118.718 186.489 112.21 182.811 105.444C181.314 102.689 180.194 99.7371 178.794 96.9375C178.32 95.9885 177.733 95.1023 177.363 94.1021C177.258 93.8181 176.918 93.007 176.918 93.3098C176.918 94.1739 177.991 95.1081 178.475 95.7144C181.829 99.9185 185.433 104.128 188.44 108.585C192.323 114.339 195.621 120.527 199.129 126.515C200.072 128.124 201.131 129.66 202.075 131.268C202.859 132.603 202.193 131.508 201.658 130.907C197.687 126.439 195.642 120.91 193.083 115.604C190.55 110.352 187.203 104.916 185.925 99.1613C185.737 98.315 184.393 95.7686 183.673 95.4086" stroke="#171717" stroke-width="4" stroke-linecap="round"/>
<path d="M172.654 145.533C172.605 145.014 172.398 144.541 172.22 144.054C171.555 142.234 170.946 140.397 170.356 138.551C169.595 136.167 168.947 133.716 168.078 131.371C166.751 127.79 165.381 124.211 163.699 120.779C161.377 116.043 158.749 111.459 156.756 106.568C156.202 105.208 155.352 104.038 154.813 102.662C154.358 101.499 154.184 100.221 153.876 99.0232C153.675 98.2384 153.607 97.1544 153.216 96.4491C153.038 96.1296 153.01 96.0149 153.206 96.4787C153.849 98.0023 155.062 99.5251 156.046 100.838C161.978 108.748 167.337 117.278 171.954 126.026C173.957 129.821 175.863 133.641 177.802 137.466C178.714 139.266 179.997 140.908 180.889 142.693C180.966 142.846 181.718 144.533 181.954 144.439C182.029 144.409 179.695 140.859 179.577 140.661C177.686 137.498 176.071 134.099 174.429 130.799C171.781 125.479 169.796 119.875 167.328 114.477C165.989 111.547 165.082 108.476 163.64 105.591C162.083 102.477 160.764 99.4237 159.606 96.1829C159.494 95.8684 159.501 95.522 159.518 96.0842C159.558 97.4876 161.097 98.9296 161.904 99.9502C165.651 104.686 169.151 109.549 172.555 114.536C174.775 117.789 176.735 121.255 178.69 124.675C180.864 128.481 182.767 132.483 185.041 136.223C186.327 138.338 187.469 140.552 188.542 142.782C188.825 143.37 189.065 144.167 189.518 144.646C190.159 145.322 189.673 144.28 189.479 143.995C187.797 141.528 186.797 138.677 185.613 135.957C183.837 131.88 182.153 127.783 180.642 123.6C178.477 117.604 176.592 111.51 173.995 105.69C173.269 104.063 172.39 102.508 171.766 100.838C171.293 99.5702 170.883 98.1933 170.307 96.9718C169.995 96.3111 169.452 95.3978 169.291 94.674C169.168 94.1188 169.199 94.52 169.36 94.8416C170.059 96.2387 170.991 97.4556 171.954 98.678C175.662 103.384 179.391 108.249 182.24 113.54C185.078 118.811 187.868 124.039 190.228 129.547C191.666 132.901 193.212 136.235 194.844 139.498C195.36 140.53 195.843 141.59 196.432 142.584C196.546 142.777 197.09 143.609 196.974 143.541C196.112 143.034 195.581 141.669 195.081 140.878C193.466 138.325 191.741 135.846 190.14 133.284C188.974 131.419 187.748 129.561 186.816 127.564C185.715 125.205 184.916 122.722 183.798 120.365C182.819 118.299 181.738 116.233 180.652 114.221C180.238 113.454 179.915 112.665 179.538 111.883C179.431 111.661 179.222 110.966 179.222 111.213C179.222 113.709 180.518 115.658 181.619 117.86C184.326 123.275 187.463 128.549 190.011 134.034C191.091 136.357 191.975 138.777 193.069 141.085C193.414 141.814 194.651 144.646 195.732 144.646C196.124 144.646 196.681 144.311 197.063 144.212C197.866 144.003 198.775 144.113 199.597 144.113C200.193 144.113 200.747 144.084 201.314 144.291C201.597 144.394 202.057 144.641 201.669 144.182C199.527 141.651 198.232 138.34 196.757 135.415C194.781 131.493 192.107 127.987 190.14 124.053C188.624 121.022 187.387 117.87 185.593 114.98C183.66 111.866 182.31 108.428 180.287 105.374C178.187 102.205 176.762 98.7243 174.607 95.6109C173.231 93.6233 170.679 94.6321 168.571 94.3978C167.83 94.3155 166.83 94.23 166.125 94.0132C165.611 93.8549 165.775 94.0231 165.997 94.4175C166.631 95.5443 167.151 96.5656 167.605 97.8003C169.238 102.245 170.903 106.661 172.565 111.094C174.466 116.164 175.744 121.358 177.269 126.539C179.052 132.592 180.643 138.832 183.66 144.389C184.41 145.77 183.167 144.862 182.556 144.251C179.555 141.25 176.444 138.547 174.686 134.606C173.036 130.909 171.127 127.264 169.143 123.738C168.801 123.13 168.307 122.501 168.048 121.854C167.888 121.453 168.325 122.674 168.482 123.077C169.719 126.238 170.878 129.49 171.845 132.742C172.646 135.431 173.207 138.267 174.252 140.878C174.834 142.333 175.163 143.806 175.849 145.178" stroke="#171717" stroke-width="4" stroke-linecap="round"/>
<path d="M251.8 146.92H137.6L87.7996 204.92C67.3996 160.52 92.1996 137.04 103.8 134.32C105.56 104.08 147.2 93.7203 167.8 92.3203C229.4 92.3203 249.44 128.72 251.8 146.92Z" stroke="#171717" stroke-width="2" stroke-linejoin="round"/>
<path d="M104.039 135.6C96.4386 135.6 86.7186 144.16 85.8386 152.04C85.5586 154.4 83.4786 156.08 83.4786 158.8C83.4786 161.12 81.7186 163.48 81.7186 165.84C81.7186 170.92 80.5586 175.6 80.5586 180.52C80.5586 182.76 80.5586 185 80.5586 187.28C80.5586 190.12 81.6386 192 81.7186 194.76C81.7986 196.92 85.9586 205.76 89.0386 203.36C93.0386 200.24 95.7186 194.52 97.9986 190.2C98.9586 188.4 101.079 186.08 102.839 185.04C104.639 184 108.079 181.48 109.159 179.64C111.519 175.64 114.399 171.6 117.799 168.2C121.559 164.44 124.479 160.48 127.919 156.64C131.479 152.68 132.319 150.32 137.719 149.12C139.679 148.68 141.639 147.4 143.599 147.4C146.319 147.4 149.079 147.4 151.799 147.4C170.519 147.4 189.319 145.64 208.119 145.64C210.359 145.64 212.599 145.64 214.879 145.64C217.319 145.64 219.559 146.68 221.919 146.8C227.639 147.12 227.739 146.8 233.499 146.8C235.179 146.8 240.459 146.44 241.499 146.8C243.319 146.8 245.199 146.8 246.719 146.8C248.639 146.8 249.519 147.2 249.519 145.04C249.519 143.56 247.639 140.08 246.719 139.04C245.159 137.32 244.239 134.2 243.199 132.12C241.119 127.96 240.359 122.64 237.479 118.92C235.079 115.84 231.239 112.28 227.839 110.28C223.799 107.88 219.799 104.64 215.279 103.32C213.399 102.8 211.199 101.12 209.399 100.12C207.559 99.0802 204.919 96.8002 202.959 96.3202C201.879 96.0802 198.759 94.8402 197.839 94.0802C196.679 93.1602 191.799 93.3602 190.359 93.3602C184.799 93.3602 179.719 92.2002 174.279 92.2002C167.879 92.2002 162.119 94.3202 155.879 94.5602C151.199 94.7202 144.679 96.8002 141.079 99.8402C139.239 101.4 137.039 101.84 134.919 102.76C131.919 104.08 130.799 105.12 127.279 105.12C123.799 105.12 116.879 109.08 114.679 111.88C112.559 114.52 98.7186 132.64 103.519 135.04" stroke="#171717" stroke-width="2" stroke-linecap="round"/>
<path d="M185.361 173.999C185.281 171.079 183.441 165.199 176.561 165.199C169.681 165.199 167.961 170.519 167.961 173.199" stroke="#171717" stroke-width="2" stroke-linecap="round" stroke-linejoin="round"/>
<path d="M234.961 172.8C234.881 169.88 233.041 164 226.161 164C219.281 164 217.561 169.32 217.561 172" stroke="#171717" stroke-width="2" stroke-linecap="round" stroke-linejoin="round"/>
<path d="M175.599 200.6C189.075 200.6 199.999 189.676 199.999 176.2C199.999 162.724 189.075 151.8 175.599 151.8C162.123 151.8 151.199 162.724 151.199 176.2C151.199 189.676 162.123 200.6 175.599 200.6Z" stroke="#171717" stroke-width="2" stroke-linecap="round" stroke-linejoin="round"/>
<path d="M224.4 200.6C237.876 200.6 248.8 189.676 248.8 176.2C248.8 162.724 237.876 151.8 224.4 151.8C210.924 151.8 200 162.724 200 176.2C200 189.676 210.924 200.6 224.4 200.6Z" stroke="#171717" stroke-width="2" stroke-linecap="round" stroke-linejoin="round"/>
<path d="M151 176.199H114" stroke="#171717" stroke-width="2" stroke-linecap="round" stroke-linejoin="round"/>
<path d="M255.601 176.199H248.801" stroke="#171717" stroke-width="2" stroke-linecap="round" stroke-linejoin="round"/>
<path d="M112.881 176.949C117.192 176.949 121.845 177.377 126.023 176.081C127.639 175.579 129.494 175.379 131.17 175.146C132.506 174.961 133.828 174.812 135.175 174.812C137.591 174.812 139.969 175.213 142.399 175.213C145.157 175.213 147.906 175.48 150.661 175.48" stroke="#171717" stroke-width="2" stroke-linecap="round"/>
<path d="M249.348 175.405C249.988 175.405 250.659 175.344 251.294 175.416C251.78 175.472 252.191 175.717 252.626 175.917C252.872 176.03 253.132 176.163 253.395 176.236C253.595 176.292 253.798 176.481 254.009 176.481" stroke="#171717" stroke-width="2" stroke-linecap="round"/>
<path d="M168.477 173.769C168.477 173.016 168.743 172.247 168.945 171.523C169.118 170.901 169.372 170.242 169.63 169.65C169.84 169.168 170.174 168.808 170.445 168.366C170.961 167.525 171.623 167.115 172.362 166.511C172.91 166.062 173.417 165.405 174.114 165.184C174.845 164.952 175.619 165.028 176.377 165.028C178.986 165.028 180.78 166.779 182.448 168.54C183.386 169.53 184.357 170.648 185.162 171.757C185.57 172.32 185.882 172.728 185.882 173.457" stroke="#171717" stroke-width="2" stroke-linecap="round"/>
<path d="M216.665 172.117C216.665 171.039 216.614 169.224 217.399 168.351C217.707 168.009 218.059 167.766 218.274 167.335C218.564 166.756 218.836 165.999 219.478 165.679C219.933 165.451 220.536 165.669 220.954 165.437C221.385 165.197 221.863 164.853 222.322 164.694C223.378 164.329 224.318 164.101 225.447 164.101C226.736 164.101 228.025 164.101 229.314 164.101C230.857 164.101 231.681 165.117 232.76 165.999C233.192 166.352 233.495 167.112 233.823 167.585C234.271 168.232 234.514 168.967 234.885 169.656C235.186 170.215 235.651 170.933 235.651 171.586C235.651 171.818 235.655 173.093 235.792 172.82" stroke="#171717" stroke-width="2" stroke-linecap="round"/>
<path d="M169.12 153.12C167.4 153.12 165.64 154.04 164.12 154.92C162.56 155.8 161.4 156.96 160.24 158.32C159.28 159.44 158 160.84 157.32 162.08C156.8 163 156.12 163.76 155.64 164.68C155.28 165.36 155.28 166.16 154.92 166.84C154.28 168.08 154.2 170.4 153.92 171.76C153.6 173.36 153.6 175.04 153.6 176.68C153.6 178.44 153.44 180.56 153.92 182.2C154.24 183.32 154.48 185.72 155.16 186.64C157 189.04 159.2 191.52 161.32 193.72C162.28 194.76 163.48 195.6 164.56 196.48C165.08 196.92 166.32 197.16 167 197.48C167.72 197.8 168.56 198.4 169.36 198.4C171.16 198.4 172.44 199.44 174.08 199.92C174.72 200.12 178.8 200.32 179.2 199.8C179.56 199.36 180.76 199.24 181.24 198.96C182.2 198.44 182.96 197.6 184 197.16C185.4 196.64 187.4 196.08 188.52 194.92C190.32 193 191.96 191 193.8 189.04C194.76 188 195.08 186.4 195.68 185.08C196.36 183.64 197.68 181.6 197.68 180C197.68 176.6 198.44 172.92 197.68 169.52C197.36 168.08 197.2 166.48 196.48 165.2C195.64 163.68 194.8 162.84 193.6 161.6C191.28 159.16 188.56 156.52 185.6 154.96C183.72 153.96 182.76 153.36 180.6 153.36C178.88 153.36 177.16 152.44 175.48 152.44C173.84 152.44 172.2 152.12 170.48 152.12C168.96 152.12 166.12 152.24 164.92 153.2C164.12 153.84 163.04 154.08 162.12 154.52C161.28 154.92 160.88 155.56 160.2 156.28C159.04 157.48 157.36 160.08 156.32 162.48" stroke="#171717" stroke-width="2" stroke-linecap="round"/>
<path d="M205.04 188.599C205.52 190.319 206.84 191.879 208.04 193.199C209.28 194.559 210.64 195.439 212.24 196.279C213.52 196.959 215.2 197.919 216.56 198.319C217.52 198.599 218.44 199.119 219.44 199.399C220.2 199.599 220.92 199.399 221.68 199.599C223 199.959 225.16 199.439 226.56 199.399C228.12 199.359 229.68 198.879 231.24 198.479C232.84 198.039 234.88 197.639 236.32 196.799C237.28 196.199 239.44 195.359 240.12 194.439C241.88 191.959 243.56 189.119 245.04 186.439C245.72 185.199 246.2 183.799 246.76 182.479C247.04 181.839 246.92 180.519 247.04 179.759C247.16 178.919 247.48 177.959 247.28 177.159C246.8 175.319 247.4 173.759 247.4 171.999C247.4 171.319 246.48 167.119 245.88 166.839C245.36 166.599 244.92 165.399 244.56 164.959C243.8 164.119 242.8 163.559 242.16 162.599C241.28 161.319 240.24 159.439 238.88 158.599C236.6 157.239 234.28 156.079 232 154.719C230.8 153.999 229.2 154.079 227.84 153.799C226.32 153.479 224.04 152.639 222.56 153.039C219.4 153.879 215.8 154.039 212.8 155.639C211.52 156.319 210.08 156.919 209.08 157.919C207.88 159.119 207.36 160.199 206.52 161.719C204.88 164.679 203.16 168.079 202.52 171.479C202.12 173.639 201.8 174.759 202.36 176.919C202.84 178.639 202.44 180.639 202.88 182.359C203.32 183.999 203.48 185.759 203.96 187.479C204.36 189.039 205.24 191.879 206.48 192.839C207.32 193.479 207.8 194.519 208.44 195.359C209.04 196.119 209.76 196.319 210.6 196.839C212.04 197.719 214.92 198.799 217.4 199.239" stroke="#171717" stroke-width="2" stroke-linecap="round"/>
<path d="M138.842 304V384L156.842 387.4" stroke="#171717" stroke-width="2" stroke-linecap="round" stroke-linejoin="round"/>
<path d="M197.682 304V384L215.682 387.4" stroke="#171717" stroke-width="2" stroke-linecap="round" stroke-linejoin="round"/>
<path d="M137.315 304.57C137.315 310.23 137.146 315.858 137.849 321.479C138.698 328.27 139.109 335.14 139.672 341.961C139.922 344.992 139.901 348.126 139.599 351.153C139.33 353.838 139.183 356.563 138.843 359.239C138.745 360.013 138.933 360.841 138.724 361.596C138.651 361.858 138.487 362.355 138.475 362.591C138.385 364.3 139.19 366.097 139.599 367.73C140.195 370.117 139.801 372.911 139.801 375.356C139.801 377.455 139.801 379.555 139.801 381.655C139.801 382.876 141.678 383.197 142.656 383.608C144.362 384.323 146.147 384.818 147.961 385.173C149.862 385.545 151.771 385.981 153.689 386.26C154.857 386.429 156.094 386.423 157.207 386.794" stroke="#171717" stroke-width="2" stroke-linecap="round"/>
<path d="M196.381 306.009C196.381 311.594 196.001 317.223 197.052 322.714C197.817 326.705 198.047 330.694 198.047 334.756C198.047 340.528 198.003 346.269 198.418 352.028C198.776 357.007 199.152 361.948 199.493 366.905C199.591 368.315 199.713 369.668 199.713 371.093C199.713 371.683 199.6 372.294 199.401 372.851C199.141 373.58 199.381 374.399 199.193 375.153C198.979 376.009 199.089 376.971 199.089 377.849C199.089 378.766 198.88 379.623 198.88 380.544C198.88 381.592 198.209 383.493 198.718 384.512C200.071 387.217 204.43 386.386 206.782 386.386C208.243 386.386 209.704 386.386 211.166 386.386C211.921 386.386 215.171 386.483 215.539 387.219" stroke="#171717" stroke-width="2" stroke-linecap="round"/>
<path d="M177.266 211.498C179.532 216.192 188.848 224.697 209.089 223.385C211.785 223.21 214.612 221.483 214.33 218.797C214.143 217.021 212.897 215.583 209.326 215.876" stroke="#171717" stroke-width="2.4" stroke-linecap="round"/>
<path d="M160.285 203.58C160.539 205.609 169.77 197.283 163.81 204.733C163.483 205.141 162.181 206.538 162.352 207.136C162.43 207.411 166.788 205.019 167.046 204.846C168.801 203.666 170.627 202.386 172.268 201.049C172.522 200.842 173.807 199.538 173.262 200.696C172.99 201.274 172.755 201.827 172.541 202.427C172.186 203.419 174.633 203.019 175.168 202.971C176.79 202.827 178.337 202.237 179.83 201.626C179.891 201.6 181.57 200.932 181.272 201.561C180.81 202.536 178.367 204.982 180.951 204.253C183.246 203.606 185.411 202.318 187.68 201.561" stroke="#C6C6C8" stroke-width="2" stroke-linecap="round"/>
<path d="M213.633 205.868C217.028 204.251 220.418 202.709 223.886 201.254C224.157 201.14 228.621 199.683 228.451 199.989C227.404 201.875 226.371 203.691 225.039 205.404C224.903 205.578 223.944 206.551 224.062 206.845C224.205 207.203 228.022 204.663 228.275 204.49C229.884 203.394 231.489 202.29 233.177 201.318C233.705 201.015 234.625 200.136 235.26 200.101C236.031 200.058 234.528 203.209 234.411 203.561C234.358 203.721 233.938 204.726 234.315 204.522C235.508 203.88 236.668 203.177 237.871 202.552C239.239 201.842 240.688 201.238 241.989 200.405C242.486 200.087 242.74 199.812 243.334 199.812" stroke="#C6C6C8" stroke-width="2" stroke-linecap="round"/>
<path d="M177 211.5C178.026 212.819 179.342 215.735 180.738 216.701C183.02 218.281 185.259 219.913 187.766 221.132C190.61 222.515 193.675 223.217 196.78 223.729C198.691 224.045 200.57 224.035 202.501 224.035C204.678 224.035 206.576 223.488 208.697 223.084C210.127 222.813 212.113 222.775 213.4 222.015C214.105 221.598 214.422 220.64 214.656 219.91C215.702 216.647 211.459 215.326 209.003 215.326" stroke="#171717" stroke-width="2" stroke-linecap="round"/>
<path d="M117.384 218.055C116.516 232.118 120.197 260.87 141.865 263.37C163.532 265.87 169.297 236.632 169.47 221.701M169.47 221.701L161.657 209.721M169.47 221.701V209.721" stroke="#171717" stroke-width="2" stroke-linecap="round"/>
<path d="M247 264.5C225.332 267 223.33 237.632 223.157 222.701M223.157 222.701L230.97 210.721M223.157 222.701V210.721" stroke="#171717" stroke-width="2" stroke-linecap="round"/>
<path d="M117.381 218.184C117.381 219.436 117.503 220.648 117.547 221.885C117.598 223.308 118.216 224.615 118.371 226.013C118.668 228.682 118.713 231.298 118.713 234.009C118.713 235.617 119.213 237.222 119.213 238.839C119.213 240.112 119.68 241.23 120.046 242.421C120.465 243.781 121.382 244.917 122.045 246.169C122.683 247.374 123.051 248.754 123.785 249.908C126.108 253.558 129.647 257.072 133.696 258.893C137.103 260.426 140.997 260.926 144.7 260.994C146.438 261.026 148.182 261.161 149.938 261.161C150.717 261.161 151.62 261.231 152.325 260.828C152.754 260.583 153.042 260.494 153.528 260.494" stroke="#171717" stroke-width="2" stroke-linecap="round"/>
<path d="M153.527 260.495C155.384 260.495 156.708 258.468 157.858 257.154C160.004 254.702 162.4 251.999 163.605 248.918C164.036 247.817 164.831 246.718 164.855 245.503C164.876 244.384 165.086 243.274 165.197 242.162C165.454 239.592 166.348 237.071 167.279 234.675C167.684 233.634 168.02 232.549 168.02 231.418C168.02 229.709 168.529 228.136 168.89 226.476C169.038 225.794 169.238 225.112 169.426 224.44C169.617 223.758 169.431 223.043 169.602 222.358C169.962 220.92 170.071 219.44 170.518 218.018C171.025 216.407 171.185 214.821 171.185 213.15C171.185 211.833 170.851 210.629 170.851 209.355" stroke="#171717" stroke-width="2" stroke-linecap="round"/>
<path d="M169.007 223.042C169.007 222.443 169.086 221.957 168.767 221.456C168.387 220.86 167.706 219.903 167.512 219.224C167.311 218.518 166.721 217.879 166.267 217.323C165.844 216.806 165.502 216.1 165.022 215.654C163.221 213.981 162.958 211.645 161.701 209.76" stroke="#171717" stroke-width="2" stroke-linecap="round"/>
<path d="M247.5 264.5C244.898 264.5 242.613 265.044 240.19 264.075C238.884 263.552 237.151 263.352 236.009 262.418C234.935 261.54 234.246 260.316 233.405 259.235C229.609 254.355 228.629 247.304 227.166 241.452C226.272 237.876 225.14 233.866 225.14 230.165C225.14 227.74 223.614 224.16 224.626 221.756C225.63 219.371 227.635 217.15 229.61 215.534C230.776 214.58 232.954 212.273 232.954 210.759" stroke="#171717" stroke-width="2" stroke-linecap="round"/>
<path d="M223.563 219.441C223.563 216.48 224.212 212.707 223.273 209.891" stroke="#171717" stroke-width="2" stroke-linecap="round"/>
<path d="M272.401 145.32C272.921 152.36 274.081 160.72 260.641 161.28C265.721 161.12 272.401 161.28 272.401 175.56C271.841 170.6 271.001 161.28 284.721 161.28C279.121 160.16 272.401 166.6 272.401 145.32Z" stroke="#171717" stroke-width="2" stroke-linecap="round" stroke-linejoin="round"/>
<path d="M91.8457 306.692C92.2521 306.733 92.6591 307.231 92.9909 307.444C93.7583 307.936 94.5358 308.432 95.2156 309.044C95.4785 309.28 95.7637 309.676 95.9193 309.192C96.0814 308.688 96.0155 308.12 96.0155 307.597C96.0155 307.289 96.1386 306.591 96.4089 306.456" stroke="#FFD424" stroke-width="4" stroke-linecap="round"/>
<path d="M95.4006 291.32C95.9206 298.36 97.0806 306.72 83.6406 307.28C88.7206 307.12 95.4006 307.28 95.4006 321.56C94.8406 316.6 94.0006 307.28 107.721 307.28C102.121 306.16 95.4006 312.6 95.4006 291.32Z" stroke="#171717" stroke-width="2" stroke-linecap="round" stroke-linejoin="round"/>
</svg>
