<svg width="400" height="444" viewBox="0 0 400 444" fill="none" xmlns="http://www.w3.org/2000/svg">
<path d="M233.681 400.41C232.881 400.41 232.071 400.33 231.281 400.19L213.271 396.79C207.141 395.64 202.681 390.26 202.681 384.02V320.22C197.071 321.23 191.461 321.73 185.971 321.73C182.791 321.73 179.611 321.56 176.521 321.22C174.291 320.98 172.061 320.65 169.851 320.25V373.24L177.261 374.64C180.671 375.28 183.621 377.22 185.581 380.08C187.551 382.97 188.271 386.43 187.621 389.84C186.481 395.95 181.111 400.41 174.851 400.41C174.051 400.41 173.241 400.33 172.451 400.19L154.441 396.79C148.311 395.64 143.851 390.26 143.851 384.02V311.43C142.091 310.52 140.361 309.55 138.671 308.54C138.671 308.56 138.671 308.57 138.671 308.59C138.031 315.05 132.811 319.97 126.401 320.29C126.401 320.72 126.411 321.15 126.411 321.59C126.411 328.49 121.021 334.19 114.131 334.57H113.941L113.331 334.59C106.761 334.59 101.251 329.63 100.501 323.06C100.421 322.32 100.311 321.36 100.241 320.25C93.9007 319.61 88.9207 314.38 88.6707 307.81C88.4307 300.87 93.6707 295 100.461 294.37C100.431 293.41 100.421 292.41 100.421 291.35C100.421 285.81 103.891 281.05 108.821 279.19C96.4407 259.62 90.7807 234.93 91.9607 205.64C80.7307 178.11 85.1907 158.33 90.9607 146.54C96.8507 134.49 105.421 128.11 110.111 125.33C110.251 124.78 110.401 124.24 110.561 123.7C109.921 119.53 108.971 109.65 111.941 98.94C110.811 99.02 109.731 99.05 108.691 99.05C95.3307 99.05 90.7807 92.21 89.2607 88.13C87.0507 82.21 87.4507 73.1 101.851 63.32C108.481 58.82 117.611 54.3 127.571 50.6C140.291 45.83 153.041 43 161.651 43C175.021 43 179.571 49.83 181.081 53.91C182.841 58.66 182.931 65.61 175.011 73.41C179.061 75.48 182.271 77.71 184.431 79.39C184.591 79.38 185.321 79.33 185.321 79.33H185.731C247.561 79.33 273.541 113.04 280.771 136.61C282.951 134.2 286.011 132.61 289.461 132.36L289.681 132.34L290.311 132.32H290.531C297.221 132.32 302.861 137.61 303.361 144.35L303.421 145.13C303.501 146.11 303.581 147.16 303.631 148.28C304.191 148.34 304.741 148.43 305.281 148.54C311.851 149.85 316.321 155.89 315.661 162.57C315.021 169.03 309.801 173.95 303.391 174.27C303.391 174.7 303.401 175.13 303.401 175.57C303.401 182.13 298.521 187.61 292.121 188.46L289.451 189.84C290.241 194.24 290.841 198.66 291.261 203.06C293.231 223.91 291.141 242.61 285.381 255.73C274.921 279.6 253.831 300.47 228.681 312V373.25L236.091 374.65C239.501 375.29 242.451 377.23 244.411 380.09C246.381 382.98 247.101 386.44 246.451 389.85C245.311 395.95 239.941 400.42 233.681 400.42V400.41Z" fill="white"/>
<path d="M260.36 146.84C281.56 182.72 282.68 229.56 273.48 250.48C257.84 286.16 216.48 312.48 177.92 308.28C141.24 304.28 101.56 274.76 105 204.6" stroke="#171717" stroke-width="2" stroke-linecap="round"/>
<path d="M212.8 193.4C219.2 193.8 229.04 197.08 217.2 207" stroke="#171717" stroke-width="2" stroke-linecap="round" stroke-linejoin="round"/>
<path d="M258.88 146.6C260.36 150.84 261.88 155.04 264.48 158.32C267.52 162.16 269.32 168.52 271.8 173.04C274.16 177.4 277.8 182.36 277.8 187.44C277.8 190.92 279.96 194.44 279.96 197.96C279.96 201.28 279.96 204.6 279.96 207.92C279.96 215.04 279.6 223.2 276.16 229.52C274.84 231.92 275.72 237.28 275.44 240.04C275.12 243.12 272.88 246.12 272.56 248.92C271.84 255.2 265.08 263.2 262.28 268.88C256 281.64 246.84 289.2 234.76 296.04C231.64 297.8 228.56 298.12 225.52 299.68C222.76 301.08 218.52 304.04 215.72 304.36C209.32 305.12 201.12 308.92 194.84 309.32C190 309.6 185.36 312.16 180.36 309.32C175.6 306.64 165.48 305.8 160.2 305.48C149.56 304.88 140.28 295.24 132.44 288.88C128.8 285.92 124.52 275.72 122.2 271.28C119.6 266.32 117.36 261.84 113.64 257.64C104.24 247.04 105.76 232.52 105.76 218.56C105.76 214 105.36 209.2 105.76 204.6" stroke="#171717" stroke-width="2" stroke-linecap="round"/>
<path d="M212 193C213.862 193 215.729 193.074 217.514 193.68C218.272 193.938 218.888 194.536 219.508 195.018C220.234 195.583 220.634 196.477 220.983 197.308C221.467 198.463 221.74 199.469 221.74 200.737C221.74 201.761 220.849 202.837 220.11 203.488C219.129 204.351 218.081 205.349 217.355 206.438" stroke="#171717" stroke-width="2" stroke-linecap="round"/>
<path d="M127.182 107.112C127.182 103.742 126.88 100.032 128.512 96.9498C129.473 95.1339 131.135 93.8067 132.65 92.4787C132.986 92.1849 133.374 91.7251 133.75 91.4995C134.385 91.1186 132.548 92.3677 131.985 92.8482C131.117 93.5888 130.257 94.3413 129.51 95.2039C129.435 95.29 129.025 95.8297 129.098 95.4256C129.171 95.025 129.58 94.5747 129.824 94.2847C131.233 92.605 132.666 90.9947 134.419 89.6612C137.12 87.6073 140.406 85.3606 143.939 85.2454C144.01 85.2431 145.039 85.0844 145.02 85.2454C145.002 85.395 144.19 85.5813 144.124 85.6057C143.042 86.0072 141.968 86.448 140.918 86.9267C139.284 87.6719 137.678 88.5322 136.096 89.384C135.56 89.6725 135.019 89.9808 134.54 90.354C134.462 90.4146 135.422 89.9498 135.588 89.8736C137.881 88.8195 140.18 87.758 142.456 86.6681C144.532 85.6741 146.663 84.3819 148.965 83.9983C150.686 83.7114 152.337 83.5685 154.082 83.5826C154.514 83.5861 154.97 83.627 155.366 83.8136C155.77 84.0036 154.625 83.3162 154.244 83.0838C153.506 82.6333 152.739 82.2764 151.916 82.0076C151.503 81.8728 150.791 81.8842 150.433 81.6288C150.203 81.4644 150.991 81.7296 151.265 81.7997C152.186 82.0355 153.107 82.3079 154.018 82.5849C155.266 82.965 156.635 83.2378 157.759 83.9337C158.926 84.656 155.224 82.8748 153.925 82.4325C152.77 82.0391 151.311 82.1692 150.092 82.1692C149.616 82.1692 149.18 82.2792 148.715 82.3309C148.602 82.3435 148.45 82.3194 148.669 82.354C149.345 82.4607 150.025 82.5351 150.701 82.645C153.578 83.1129 156.394 83.8322 159.177 84.6958C160.685 85.1636 162.181 85.8722 163.727 86.2016C164.666 86.4018 165.568 86.7328 166.503 86.9498C167.191 87.1095 167.875 87.2509 168.503 87.5734C169.312 87.9889 169.758 88.7308 170.313 89.4025C170.562 89.7036 170.788 89.9786 171.062 90.2524C171.154 90.3451 171.819 90.9172 171.819 91.0237C171.819 91.0855 171.361 90.8148 171.708 91.3609C172.02 91.8505 172.588 91.9341 173.057 92.2293C173.428 92.4627 172.288 92.3113 172.124 92.3124C171.009 92.3203 169.966 92.5161 168.881 92.7466C167.346 93.073 165.742 93.3423 164.189 93.5642C163.715 93.6318 163.216 93.9069 162.761 94.0584C161.935 94.334 161.122 94.6493 160.313 94.9729C159.78 95.1863 159.143 95.3507 158.65 95.6427C158.22 95.898 157.806 96.1309 157.343 96.3217C156.426 96.7003 155.433 97.1007 154.452 97.2824C153.621 97.4362 152.744 97.8935 151.962 98.2154C150.688 98.7402 149.39 99.1274 148.05 99.4626C146.952 99.7371 145.708 100.377 144.558 100.377" stroke="#FFD424" stroke-width="2" stroke-linecap="round"/>
<path d="M134.96 70.76L140.32 83.12" stroke="#171717" stroke-width="2" stroke-linecap="round" stroke-linejoin="round"/>
<path d="M125.059 118.348C125.059 115.951 124.861 113.46 125.159 111.079C125.297 109.977 125.606 108.915 125.73 107.809C125.85 106.742 126.09 105.55 126.409 104.524C126.971 102.712 127.355 100.843 128.115 99.0968C128.476 98.2672 129.101 97.5393 129.686 96.8547C130.467 95.9411 131.144 94.9112 131.993 94.0626C132.577 93.4786 133.196 92.8821 133.656 92.1918C133.716 92.1028 134.391 90.9387 134.306 91.6205C134.179 92.6364 133.548 93.6673 133.157 94.5911C132.257 96.711 131.47 98.8718 130.586 100.996C129.311 104.06 128.19 107.304 127.565 110.565C127.279 112.059 127.115 116.628 127.115 115.106C127.115 113.683 127.592 112.559 128.201 111.265C129.846 107.771 131.564 104.249 132.871 100.611C134.058 97.3037 134.98 93.7504 136.555 90.5994C136.649 90.4124 136.977 89.8895 136.82 90.0781C136.658 90.2724 136.721 90.8271 136.684 91.0635C136.513 92.1625 136.362 93.2624 136.084 94.3411C135.545 96.4352 134.979 98.5296 134.213 100.554C133.794 101.662 133.209 102.679 132.771 103.774C132.175 105.264 131.766 106.823 131.421 108.387C131.167 109.543 130.49 110.812 130.457 111.993C130.435 112.806 130.701 111.806 130.871 111.479C131.461 110.35 132.253 109.324 132.957 108.266C134.41 106.08 135.705 103.825 136.941 101.51C139.411 96.8839 141.166 92.0289 142.896 87.1147C143.197 86.2608 143.311 85.2451 143.311 84.3441C143.311 84.1383 143.428 83.478 143.239 83.9086C143.024 84.4003 142.781 84.938 142.475 85.3795C141.869 86.2545 141.522 87.4262 141.076 88.3858C140.254 90.1504 139.499 91.9318 138.683 93.6985C137.95 95.2872 137.177 96.8899 136.627 98.5541C136.105 100.136 135.882 101.807 135.534 103.431C135.339 104.345 135.176 105.319 135.092 106.252C135.015 107.097 135.267 106.327 135.656 105.952C137.659 104.02 139.936 102.446 141.868 100.411C142.866 99.36 143.786 98.3557 144.31 96.9832C144.885 95.4793 145.209 93.8988 145.496 92.3203C145.914 90.0216 146.345 87.6683 146.524 85.3367C146.579 84.6239 146.601 83.6673 146.881 83.0017C147.86 80.6754 145.152 87.7444 144.282 90.1138C143.658 91.8124 142.917 93.4951 142.211 95.1623C141.297 97.3198 140.63 99.5715 139.74 101.739C139.175 103.114 138.534 104.478 138.041 105.881C138.008 105.974 137.674 107.322 137.912 107.109C138.958 106.173 140.354 105.58 141.54 104.824C143.94 103.292 146.405 101.744 148.43 99.7181C149.78 98.369 150.867 96.7895 152.037 95.2908C152.348 94.8915 153.444 93.8339 153.108 94.2126C152.587 94.7988 151.997 95.3516 151.408 95.8835C149.699 97.4286 148.272 99.2166 146.41 100.596C145.145 101.533 140.69 103.193 142.182 102.696C146.032 101.413 149.409 99.1764 152.879 97.1474C155.944 95.3557 158.969 93.8224 162.462 93.0558C165.288 92.4356 168.093 92.0981 170.952 91.6776C171.793 91.554 172.738 91.4848 173.587 91.4848C174.206 91.4848 175.298 91.7101 175.879 91.4777C176.019 91.422 175.268 90.994 175.187 90.9707C173.987 90.628 172.829 89.6736 171.745 89.0713C169.473 87.8092 167.051 86.7885 164.59 85.9508C162.037 85.0816 159.566 83.7063 156.807 83.6443C153.002 83.5589 149.208 83.1208 145.396 83.5444C145.301 83.5549 144.127 83.755 144.467 83.7729C145.966 83.8518 147.2 84.1083 148.545 84.8583C149.441 85.3584 150.072 85.9185 149.787 86.9933C149.612 87.6561 149.182 88.2192 148.838 88.7999C148.174 89.9196 147.756 91.1561 147.267 92.356C146.705 93.7319 146.022 95.1392 145.724 96.5976C145.544 97.48 145.677 96.7234 145.824 96.2834C146.454 94.3951 147.401 92.6871 148.43 90.9921C148.54 90.812 149.581 89.0138 149.602 89.1284C149.805 90.2459 148.959 91.7424 148.709 92.7987C148.17 95.0742 147.729 97.4189 147.038 99.6538C146.804 100.411 147 99.678 147.224 99.4539C147.732 98.9459 148.441 98.6211 149.023 98.2114C150.61 97.0939 152.063 95.7323 153.515 94.4482C154.846 93.2714 156.486 91.9476 157.506 90.4637C157.842 89.9762 157.715 89.6537 157.164 89.3998C155.381 88.5791 153.487 88.1704 151.565 87.786C150.819 87.6366 150.042 87.5814 149.309 87.3718C148.608 87.1715 149.133 87.1147 149.552 87.1147C155.329 87.1147 161.229 86.7685 166.961 87.3718C167.039 87.3801 167.231 87.4649 167.161 87.5003C166.792 87.6846 165.599 87.2493 165.29 87.1861C160.449 86.1961 155.623 84.8291 150.737 84.1014C150.425 84.0548 149.273 84.0188 150.216 84.1585C151.282 84.3165 152.292 84.6899 153.322 85.0011C156.102 85.8417 158.955 86.4572 161.776 87.1433C164.29 87.7545 166.839 88.2694 169.317 89.0142C170.161 89.2677 170.952 89.6501 171.788 89.9139C172.038 89.9929 171.928 90.0654 171.716 90.071C170.837 90.0941 169.954 90.071 169.074 90.071C164.885 90.071 160.696 90.071 156.507 90.071C156.082 90.071 155.343 89.9279 154.936 90.0995C154.88 90.1229 156.233 90.2038 156.364 90.2067C158.741 90.2595 161.255 90.1946 163.59 90.7136C163.742 90.7475 163.296 90.8422 163.14 90.8422C160.36 90.8422 157.563 90.9193 154.793 91.1564C152.758 91.3305 150.745 91.6635 148.723 91.9418C148.402 91.9861 147.42 92.1275 148.366 92.1275C150.697 92.1275 153.022 91.7419 155.35 91.7419C157.771 91.7419 150.522 91.3623 148.109 91.1564C147.507 91.105 146.945 90.9793 146.36 90.8493C145.989 90.767 147.09 90.6275 147.466 90.5851C149.116 90.3995 150.773 90.3007 152.422 90.0995C153.169 90.0084 153.993 90.0435 154.721 89.8425C155.001 89.7654 154.163 89.7885 154.122 89.7854C153.013 89.7017 151.913 89.6854 150.801 89.6854C150.75 89.6854 149.857 89.6605 150.187 89.7568C151.498 90.1393 152.947 90.1788 154.286 90.4637C155.696 90.7637 157.19 91.012 158.556 91.4848C159.883 91.9441 158.148 92.282 157.606 92.4703C152.985 94.0759 148.422 95.8483 143.81 97.4688C143.782 97.4787 142.857 97.8404 143.239 97.6544C144.01 97.2794 144.803 96.9409 145.603 96.6333C145.96 96.4958 147.245 95.6516 147.159 96.5048C147.107 97.0275 146.703 97.4699 146.381 97.8544C145.661 98.715 144.915 99.5654 144.16 100.396C143.576 101.04 143.046 101.76 142.432 102.374C142.143 102.664 142.139 102.344 142.161 102.089C142.196 101.686 142.939 101.212 142.796 101.41C142.575 101.718 142.173 101.844 141.868 102.053C141.193 102.517 140.517 102.967 139.912 103.524C137.699 105.561 135.83 107.931 133.628 109.979C132.906 110.651 132.285 111.537 131.486 112.114C130.574 112.773 130.638 111.726 130.772 110.936C131.026 109.437 131.752 108.016 132.385 106.652C133.231 104.831 134.126 103.033 135.027 101.239C135.859 99.5855 136.738 98.0646 137.791 96.5476C138.716 95.2145 139.625 93.8497 140.469 92.4631C140.685 92.1075 140.74 91.8607 140.74 91.4563C140.74 90.8993 140.74 90.3423 140.74 89.7854C140.74 89.172 140.299 89.2682 139.776 89.3069C138.542 89.3983 137.441 90.3926 136.498 91.0992" stroke="#FFD424" stroke-width="2" stroke-linecap="round"/>
<path d="M123.68 123.32C121.48 112.68 122.24 91.08 140.32 83.16C157.6 75.6 174.52 86.88 180 92.84" stroke="#171717" stroke-width="2" stroke-linecap="round" stroke-linejoin="round"/>
<path d="M138.231 79.2424C156.865 72.3055 170.595 62.9895 168.9 58.4346C167.204 53.8797 150.724 55.8107 132.09 62.7477C113.457 69.6846 99.7257 79.0005 101.421 83.5554C103.117 88.1103 119.597 86.1793 138.231 79.2424Z" stroke="#171717" stroke-width="2"/>
<path d="M178.48 92.6001C177.76 92.0001 176.44 91.9601 175.84 91.2401C174.92 90.1601 173.68 89.1201 172.56 88.2401C171.24 87.2801 169.84 86.3201 168.6 85.4001C165.84 83.3601 161.92 83.8801 158.8 82.6801C157.88 82.3201 156.92 82.0801 156.04 81.6401C155.36 81.3201 154.52 80.7201 153.76 80.6801C152.92 80.6401 152.16 80.5201 151.28 80.5601C149.92 80.6001 149.16 81.4001 147.92 81.8401C144.32 83.0801 141.16 85.4401 137.64 86.6001C136 87.1601 134.48 88.4801 132.92 89.3201C131.36 90.2001 129.96 91.5601 128.96 92.9601C126.76 96.0801 125.84 99.8801 124.56 103.4C123.44 106.48 124.2 110.36 124.36 113.64C124.52 117.04 124.16 120.24 124.32 123.64" stroke="#171717" stroke-width="2" stroke-linecap="round"/>
<path d="M135.36 70.4399C135.4 71.5999 135.2 73.1599 135.72 74.1999C136.16 75.0799 136.52 75.8399 137 76.7199C138.12 78.7599 139.8 80.4799 139.92 82.9599" stroke="#171717" stroke-width="2" stroke-linecap="round"/>
<path d="M139.912 77.8998C135.52 78.1207 131.626 79.4461 127.441 80.5065C124.748 81.1692 122.593 82.4946 119.693 82.6271C118.409 82.6713 117.041 83.1573 115.757 83.2456C114.265 83.3782 112.857 83.2898 111.448 83.6433C109.252 84.1734 106.434 83.9083 104.156 83.9967C103.368 84.0409 102.043 83.6433 102.001 82.7596C101.96 81.3459 103.12 80.4181 103.948 79.2252C105.067 77.5906 106.766 76.4419 108.216 74.9839C109.418 73.7911 110.412 73.3934 111.986 72.6424C113.644 71.8471 115.508 71.4495 117.207 70.7868C119.072 70.0357 120.977 69.2405 122.925 68.7103C123.671 68.4894 124.624 67.9151 125.286 67.4733C126.198 66.899 127.234 66.6781 128.228 66.2363C129.637 65.5735 131.294 64.955 132.786 64.469C134.692 63.8947 136.805 62.7902 138.545 61.9066C140.202 61.0672 141.818 60.7579 143.559 60.1836C146.086 59.3441 148.53 58.1071 151.265 57.8862C155.988 57.4886 160.878 56.9584 165.684 57.0026C166.264 57.0026 167.548 57.6653 168.045 58.0187C168.957 58.6373 168.957 59.4325 168.998 60.4045C169.04 61.6857 168.253 62.0833 167.548 63.0111C166.802 63.9831 165.932 65.1759 164.897 65.8828C161.126 68.4894 156.9 69.859 152.591 71.5379C146.79 73.8352 141.86 77.5022 135.893 79.6229" stroke="#171717" stroke-width="2" stroke-linecap="round"/>
<path d="M106.572 201.555C105.848 199.926 105.245 198.208 104.505 196.563C104.017 195.477 101.983 192.593 102.874 193.385C104.37 194.715 105.703 196.202 107.334 197.41C107.691 197.674 110.712 200.192 109.388 198.703C106.482 195.433 105.232 191.26 103.309 187.414C102.103 185.002 100.524 182.975 99.5013 180.476C98.8511 178.886 99.3074 179.911 99.876 180.669C101.808 183.246 104.333 185.335 106.089 188.066C107.332 190.001 108.582 192.563 110.271 194.158C110.642 194.509 110.759 194.251 110.658 193.844C110.295 192.395 109.211 191.558 108.446 190.339C106.619 187.43 105.47 183.753 104.517 180.464C104.008 178.704 103 177.204 102.39 175.496C102.266 175.15 101.762 174.167 101.907 174.505C102.266 175.342 102.594 176.038 103.139 176.801C106.193 181.077 109.425 185.409 112.882 189.36C113.385 189.935 114.074 190.601 114.67 191.064C114.898 191.241 114.021 189.421 113.921 189.275C112.419 187.084 111.324 184.832 110.271 182.398C108.696 178.755 107.44 175.057 105.484 171.58C104.527 169.878 103.907 168 102.874 166.358C102.704 166.089 101.723 164.203 102.354 165.464C104.214 169.184 108.181 171.612 110.887 174.674C112.437 176.428 113.705 178.367 115.105 180.234C115.857 181.236 116.746 182.361 117.184 183.546C117.442 184.242 117.766 184.975 118.224 185.564C119.186 186.801 116.69 184.934 116.363 184.537C114.639 182.451 112.853 180.233 111.588 177.829C109.888 174.599 109.209 170.732 108.434 167.204C108.132 165.832 107.635 164.527 107.334 163.155C107.052 161.873 106.817 160.558 106.185 159.396C105.815 158.714 105.741 157.584 105.218 157.003C103.765 155.388 103.827 158.066 104.179 159.034C104.444 159.763 104.524 160.567 104.723 161.318C105.117 162.808 105.781 164.208 106.137 165.706C106.341 166.565 106.55 167.279 106.959 168.051C107.019 168.165 106.292 166.935 106.137 166.636C104.488 163.457 104.968 158.54 105.968 155.166C106.283 154.103 106.355 153.171 106.355 152.072C106.355 151.716 106.299 151.436 106.463 151.963C106.829 153.132 107.104 154.165 107.708 155.263C109.296 158.149 111.404 160.634 113.208 163.373C114.797 165.785 117.02 167.684 118.538 170.13C119.696 171.994 121.057 173.732 122.188 175.617C122.8 176.636 123.135 177.893 123.856 178.82C124.248 179.323 124.115 180.109 124.364 180.669C124.447 180.855 124.492 181.454 124.388 181.636C123.916 182.462 121.379 179.64 121.149 179.364C116.885 174.236 111.695 169.841 109.074 163.591C108.699 162.696 108.35 161.799 107.998 160.895C107.673 160.058 108.152 161.943 108.264 162.176C109.972 165.718 111.792 169.259 113.921 172.571C115.492 175.015 117.434 177.01 119.191 179.255C119.597 179.774 120.796 181.104 121.584 181.104C122.265 181.104 123.87 178.77 124.412 178.288C125.158 177.625 126.258 176.912 127.132 176.427C127.534 176.204 127.693 176.368 127.325 175.859C126.353 174.512 125.036 173.434 124.195 171.991C121.027 166.554 119.491 160.403 117.281 154.562C116.458 152.387 115.419 150.258 114.404 148.156C113.853 147.014 113.321 145.88 112.543 144.88C112.122 144.339 111.623 143.851 111.31 144.554C110.872 145.539 110.256 146.091 109.509 146.838C109.325 147.023 107.939 148.63 108.143 148.857C108.271 148.998 108.633 149.046 108.796 149.123C109.754 149.57 110.36 150.555 110.972 151.371C113.345 154.535 115.697 157.665 117.837 160.992C118.808 162.5 119.933 163.962 120.665 165.609C120.808 165.931 121.632 167.1 120.907 166.939C119.469 166.619 118.364 164.55 117.668 163.433C116.134 160.975 114.881 158.336 113.317 155.903C112.352 154.403 111.418 152.675 110.222 151.347C110.037 151.141 109.982 150.84 110.065 150.549C110.202 150.071 111.492 151.006 111.624 151.081C112.184 151.397 116.145 153.583 116.145 152.906C116.145 151.938 115.49 151.234 115.057 150.416C114.429 149.229 114.021 147.935 113.8 146.608C113.559 145.159 113.534 140.74 113.534 142.209C113.534 143.818 113.805 145.184 113.486 146.778C113.229 148.063 113.589 151.986 113.305 150.706C112.869 148.745 111.893 146.932 111.407 144.989C111.148 143.954 112.252 144.203 112.882 143.853C113.742 143.375 113.847 141.904 114.078 141.073C114.254 140.439 114.173 139.127 114.67 140.468C114.94 141.196 115.488 141.877 116.072 142.378C117.671 143.749 119.437 144.946 121.052 146.306C124.573 149.271 127.872 152.818 130.492 156.616C132.243 159.155 133.987 161.684 134.807 164.69C134.985 165.344 135.476 166.548 134.275 165.512C132.101 163.638 130.316 161.378 128.546 159.13C126.508 156.543 124.148 154.242 122.14 151.637C120.723 149.797 119.513 147.921 117.885 146.294C117.39 145.798 115.986 143.838 116.822 145.569C118.525 149.096 119.772 152.814 121.536 156.302C123.124 159.445 125.144 162.171 126.926 165.174C127.674 166.433 128.179 167.875 129.078 169.03C129.333 169.358 129.588 169.912 128.933 169.525C127.626 168.753 126.683 167.572 125.5 166.648C124.41 165.797 121.555 162.821 122.333 163.965C123.507 165.691 124.996 167.3 126.322 168.921C127.252 170.058 128.326 171.741 128.764 173.163C128.806 173.303 129.392 174.283 129.392 173.876C129.392 172.508 128.273 171.122 127.627 170.009C125.806 166.866 124.994 163.291 123.24 160.134C122.579 158.943 125.385 161.813 126.479 162.624C127.964 163.723 129.414 164.784 130.722 166.092C130.91 166.28 132.434 167.889 132.148 167.301C131.133 165.214 129.687 163.247 128.498 161.258C126.483 157.89 124.689 154.501 123.131 150.899C121.953 148.175 121.174 145.322 119.952 142.608C119.522 141.652 119.082 140.694 118.707 139.719C118.612 139.472 118.165 139.007 118.2 138.728C118.205 138.686 119.268 139.525 119.336 139.574C124.896 143.577 130.371 147.508 134.203 153.256C135.897 155.798 137.264 158.548 138.989 161.04C139.982 162.475 138.882 161.794 137.986 161.064C135.495 159.034 132.669 156.44 130.951 153.691C129.407 151.22 128.247 148.551 126.806 146.028C126.012 144.639 124.953 143.091 124.412 141.605C124.119 140.799 123.683 140.059 123.373 139.284C122.767 137.768 123.575 138.846 124.509 139.55C128.713 142.717 133.3 145.418 137.66 148.361C139.573 149.653 140.93 151.477 142.579 153.039C142.897 153.34 144.75 155.606 143.558 154.344C142.248 152.957 141.585 151.08 140.464 149.558C138.896 147.43 137.463 145.029 135.726 143.043C135.052 142.273 134.293 141.321 133.816 140.42C133.544 139.907 132.377 139.682 131.918 139.223C131.19 138.495 130.027 136.126 128.5 134.5C126.153 132 125.249 127.295 123.663 128C123.268 128.176 123.072 134.982 123.663 135.742C124.319 136.585 125.395 137.258 126.153 138.027C127.628 139.523 128.856 141.25 130.262 142.813C133.693 146.625 136.645 150.82 138.663 155.529C139.422 157.299 140.035 159.019 142.035 159.13C142.482 159.155 142.616 159.275 142.373 158.599C141.908 157.299 140.788 155.993 139.968 154.888C139.227 153.89 138.744 152.732 138.216 151.612C137.816 150.767 138.672 151.61 138.868 151.842C139.704 152.83 140.434 153.509 141.6 154.127C142.126 154.405 143.833 155.981 143.123 154.562" stroke="#171717" stroke-width="4" stroke-linecap="round"/>
<path d="M147.384 153.2C147.384 151.592 146.857 150.292 146.258 148.808C145.331 146.509 144.451 144.242 143.242 142.067C141.394 138.741 138.995 135.676 137.252 132.324C135.538 129.028 133.603 125.696 131.247 122.817C126.857 117.451 137.408 135.244 140.754 141.317C141.672 142.981 142.698 144.67 143.479 146.404C144.027 147.623 143.32 146.914 142.728 146.279C140.41 143.789 138.806 140.719 136.863 137.953C135.085 135.424 132.941 133.131 131.247 130.559C130.459 129.362 129.747 128.099 128.926 126.931C128.526 126.362 128.224 125.376 127.62 124.985C127.34 124.804 126.352 123.679 126.619 123.679C127.759 123.679 128.629 124.502 129.871 124.429C130.453 124.395 129.871 121.918 129.871 121.427C129.871 120.991 129.462 118.976 129.871 118.925C130.421 118.856 131.421 117.159 131.678 116.674C132.903 114.361 132.671 116.793 133.179 117.98C134.385 120.793 136.557 123.257 138.127 125.875C139.834 128.718 141.803 131.371 143.632 134.131C144.55 135.517 145.241 137.038 146.133 138.44C146.553 139.099 147.168 139.935 147.384 140.691C147.673 141.7 148.939 143.787 149.761 144.444C149.991 144.628 152.454 147.701 152.499 147.641C152.939 147.055 148.522 141.619 148.135 141.025C145.68 137.252 143.814 133.026 141.894 128.96C140.208 125.39 138.938 121.542 137.127 118.05C136.269 116.396 135.79 114.348 135.389 112.546C135.264 111.98 135.812 113.32 136.029 113.574C138.274 116.21 140.632 118.788 142.784 121.497C145.709 125.18 148.43 129.031 151.387 132.685C152.649 134.245 153.654 135.891 154.528 137.689C155.225 139.12 155.754 140.53 156.641 141.887C157.209 142.756 157.861 143.545 158.337 144.444C158.611 144.962 158.581 145.051 157.975 144.583C156.344 143.323 155.272 142.138 154.084 140.441C150.815 135.772 147.794 131.128 146.133 125.625C145.077 122.123 144.454 118.347 143.937 114.728C143.596 112.336 141.88 107.778 141.88 107.778C141.88 107.778 142.313 109.012 142.645 109.571C144.036 111.918 145.866 113.927 147.537 116.076C149.714 118.875 151.904 121.584 153.875 124.54C155.203 126.533 156.231 128.671 157.517 130.684C160.079 134.695 162.047 139.219 164.397 143.332C164.811 144.058 165.508 144.623 165.898 145.306C166.4 146.184 165.154 144.347 165.008 144.166C162.726 141.333 160.45 138.159 158.795 134.923C156.945 131.304 155.449 127.495 153.75 123.804C152.558 121.215 151.229 118.691 150.15 116.048C148.876 112.926 148.396 109.238 146.759 106.291C146.523 105.866 146.199 105.677 146.634 106.166C147.302 106.918 147.681 108.054 148.246 108.89C150.841 112.729 154.035 116.176 156.836 119.87C158.924 122.625 160.625 125.61 162.395 128.571C164.543 132.164 166.87 135.817 168.594 139.635C169.225 141.032 170.173 143.24 171.207 144.388C171.391 144.593 171.847 145.278 171.652 145.083C170.547 143.978 169.657 141.852 168.789 140.524C164.707 134.287 161.336 127.543 158.448 120.677C156.835 116.841 155.749 112.777 153.945 109.029C153.203 107.488 152.338 106.037 151.582 104.526C151.234 103.831 152.041 105.041 152.166 105.193C153.862 107.266 155.999 109.026 157.892 110.919C162.907 115.934 166.533 121.7 169.776 127.946C171.582 131.424 172.926 135.113 174.529 138.676C175.116 139.98 176.334 141.433 176.642 142.818C176.821 143.624 176.263 142.826 175.905 142.429C174.262 140.603 172.896 138.292 171.402 136.327C168.08 131.96 165.063 127.498 162.645 122.553C161.975 121.182 161.266 119.768 160.519 118.439C160.24 117.942 159.685 116.961 160.408 118.091C164.102 123.863 167.765 129.641 171.013 135.688C172.394 138.259 173.881 140.82 175.155 143.443C175.54 144.237 176.814 146.517 175.155 144.944C173.488 143.365 170.973 142.822 169.206 141.331C165.138 137.899 161.799 134.104 158.893 129.683C157.137 127.013 154.884 124.936 152.944 122.428C151.527 120.596 150.14 118.74 148.635 116.979C147.351 115.478 146.134 113.928 144.827 112.476C144.239 111.822 143.969 111.25 143.576 110.419C143.277 109.789 143.154 107.929 142.631 107.667" stroke="#171717" stroke-width="4" stroke-linecap="round"/>
<path d="M186.608 143.555C185.239 139.876 183.803 136.228 182.299 132.602C180.552 128.392 179.073 123.57 176.656 119.676C174.481 116.171 171.732 112.738 170.151 108.918C169.066 106.295 167.671 103.686 165.648 101.663C165.34 101.355 164.103 99.272 163.702 99.272C163.156 99.272 164.996 102.852 165.05 102.955C167.422 107.523 169.253 112.361 171.207 117.118C174.264 124.56 177.891 131.693 181.354 138.94C182.014 140.322 182.787 141.937 183.161 143.429C183.464 144.644 183.913 144.962 182.605 143.471C174.436 134.166 170.444 122.172 163.646 111.976C161.97 109.461 160.314 107.108 158.893 104.415C158.488 103.647 156.726 101.397 158.198 103.414C160.493 106.559 162.787 109.728 165.022 112.921C167.121 115.919 168.877 119.159 171.096 122.067C172.202 123.516 169.949 120.312 169.762 120.009C168.245 117.551 166.883 115.002 165.592 112.421C164.421 110.079 163.325 107.589 162.59 105.11C162.452 104.644 161.322 101.868 160.7 102.024C160.455 102.085 163.683 107.039 163.813 107.208C166.841 111.139 169.838 115.077 172.903 118.981C174.754 121.338 176.343 123.901 178.157 126.292C179.104 127.54 179.956 128.778 180.659 130.184" stroke="#171717" stroke-width="4" stroke-linecap="round"/>
<path d="M254.713 118.675C254.713 121.2 255.722 123.396 256.715 125.68C258.017 128.676 259.321 131.652 260.662 134.631C262.083 137.789 263.391 140.899 265.096 143.93C265.399 144.469 265.665 145.02 265.972 145.556C266.694 146.821 263.693 143.72 262.719 142.637C258.176 137.583 254.119 131.345 251.225 125.194C249.617 121.778 248.073 118.347 246.457 114.936C245.789 113.525 243.175 109.622 243.955 110.975C244.782 112.409 245.208 114.298 245.818 115.84C247.344 119.699 248.912 123.546 250.335 127.445C252.194 132.54 254.448 137.496 256.909 142.331C257.503 143.498 257.828 143.389 258.5 144.5C258.718 144.861 259.595 145.69 259.195 145.556C257.681 145.052 256.926 144.488 255.964 143.332C253 139.768 250.447 135.874 248.222 131.81C245.332 126.528 242.701 121.059 240.008 115.673C239.123 113.903 238.382 112.08 237.701 110.224C237.126 108.661 236.177 107.094 235.699 105.54C235.594 105.197 234.728 104.239 235.088 104.804C235.577 105.573 235.913 106.291 236.2 107.167C237.934 112.465 239.676 117.767 241.467 123.053C243.083 127.82 245.224 132.399 246.902 137.133C247.744 139.509 249.197 141.54 250.21 143.819C250.405 144.258 250.759 144.615 250.961 145.069C251.652 146.625 249.816 143.627 249.557 143.276C246.924 139.708 244.333 136.185 242.204 132.282C239.726 127.738 237.87 122.821 235.699 118.119C234.795 116.159 233.891 114.193 233.003 112.226C232.325 110.726 231.345 109.406 230.849 107.806C230.381 106.3 229.445 104.002 229.445 102.413C229.445 102.224 229.818 103.158 229.889 103.414C230.222 104.611 230.607 105.788 231.001 106.972C232.916 112.716 234.382 118.563 236.214 124.332C237.649 128.855 238.725 133.887 240.759 138.189C241.569 139.904 242.442 141.657 243.08 143.443C243.234 143.876 244.342 145.659 243.677 145.042C241.908 143.398 240.498 141.2 239.216 139.176C236.404 134.736 234.071 130 231.752 125.291C228.896 119.491 226.53 113.209 224.191 107.194C223.193 104.629 222.462 102.066 221.745 99.4109C221.554 98.7071 221.289 98.0727 220.994 97.4094C220.627 96.5844 221.367 97.8369 221.439 98.16C221.655 99.131 222.456 100.08 222.954 100.926C224.381 103.351 225.86 105.741 227.193 108.223C228.69 111.01 230.043 113.842 231.446 116.674C232.634 119.071 234.029 121.479 234.824 124.04C235.198 125.246 235.701 126.427 235.949 127.668C236.007 127.954 236.2 129.104 236.2 128.933" stroke="#171717" stroke-width="4" stroke-linecap="round"/>
<path d="M239.452 145.445C239.415 145.114 239.191 144.808 239.049 144.514C238.226 142.804 237.381 141.103 236.547 139.399C234.501 135.215 232.587 130.962 230.251 126.931C227.147 121.576 224.016 116.225 220.813 110.933C218.454 107.036 215.771 103.171 213.933 99.0358C213.838 98.8224 213.331 97.5291 213.488 97.9655C214.302 100.227 216.721 102.059 218.172 103.9C220.011 106.234 221.764 108.611 223.44 111.059C223.714 111.458 225.089 113.4 224.441 111.865C224.078 111.005 223.507 110.379 222.954 109.641C222.088 108.486 221.528 107.053 220.827 105.791C219.956 104.223 219.446 102.498 218.562 100.926C218.135 100.167 217.303 99.6462 216.935 98.9107" stroke="#171717" stroke-width="4" stroke-linecap="round"/>
<path d="M205.927 96.6588C206.06 98.1183 206.851 99.4828 207.484 100.773C208.566 102.98 209.6 105.209 210.681 107.417C212.006 110.124 213.23 112.993 214.378 115.784C216.909 121.939 218.977 128.276 221.925 134.27C223.621 137.717 224.694 141.447 226.567 144.819C227.315 146.165 225.951 143.783 225.789 143.513C221.738 136.76 219.435 129.048 216.491 121.788C214.604 117.137 211.796 111.732 211.681 106.583C211.666 105.88 212.19 107.363 212.237 107.472C212.928 109.05 213.819 110.524 214.739 111.976C219.79 119.942 224.245 128.262 228.458 136.688C228.98 137.733 229.64 138.705 230.056 139.802C230.168 140.097 230.378 141.178 230.793 141.261C231.755 141.454 229.667 139.652 229.055 138.884C227.668 137.142 226.418 135.203 225.317 133.269C224.124 131.176 223.125 128.993 222.217 126.764C222.145 126.588 221.444 124.963 221.592 125.11C222.164 125.682 222.548 126.506 222.954 127.195C223.786 128.611 224.859 129.854 225.886 131.129C229.046 135.048 231.1 139.951 234.448 143.693C234.545 143.801 234.872 144.293 234.587 143.888C233.872 142.872 232.943 142.017 232.197 141.025C228.739 136.427 226.856 130.852 224.427 125.708C221.816 120.18 219.36 114.578 217.06 108.918C216.306 107.061 215.06 105.368 214.183 103.553C213.448 102.029 212.568 100.575 211.737 99.1051C211.579 98.8259 209.727 93.7212 209.485 93.9624C209.019 94.4292 210.069 97.1909 210.18 97.7151C210.949 101.33 211.193 104.665 212.571 108.181C216.009 116.955 222.214 124.224 226.679 132.449C228.87 136.486 230.93 141.013 232.197 145.445" stroke="#171717" stroke-width="4" stroke-linecap="round"/>
<path d="M223.19 145.195C222.969 142.538 221.02 139.817 219.563 137.689C216.904 133.81 214.799 129.444 212.432 125.375C208.561 118.718 204.49 112.21 200.813 105.443C199.316 102.689 198.196 99.7366 196.796 96.937C196.321 95.988 195.735 95.1018 195.364 94.1016C195.259 93.8176 194.919 93.0065 194.919 93.3093C194.919 94.1735 195.992 95.1076 196.476 95.7139C199.831 99.918 203.435 104.127 206.442 108.584C210.324 114.339 213.623 120.527 217.13 126.514C218.073 128.124 219.132 129.66 220.077 131.268C220.861 132.603 220.194 131.508 219.66 130.906C215.689 126.439 213.644 120.91 211.084 115.604C208.551 110.352 205.205 104.916 203.926 99.1609C203.738 98.3145 202.394 95.7681 201.674 95.4081" stroke="#171717" stroke-width="4" stroke-linecap="round"/>
<path d="M190.654 145.533C190.605 145.014 190.398 144.541 190.22 144.054C189.555 142.234 188.946 140.397 188.356 138.551C187.595 136.167 186.947 133.716 186.078 131.371C184.751 127.79 183.381 124.211 181.699 120.779C179.377 116.043 176.749 111.459 174.756 106.568C174.202 105.208 173.352 104.038 172.813 102.662C172.358 101.499 172.184 100.221 171.876 99.0232C171.675 98.2384 171.607 97.1544 171.216 96.4491C171.038 96.1296 171.01 96.0149 171.206 96.4787C171.849 98.0023 173.062 99.5251 174.046 100.838C179.978 108.748 185.337 117.278 189.954 126.026C191.957 129.821 193.863 133.641 195.802 137.466C196.714 139.266 197.997 140.908 198.889 142.693C198.966 142.846 199.718 144.533 199.954 144.439C200.029 144.409 197.695 140.859 197.577 140.661C195.686 137.498 194.071 134.099 192.429 130.799C189.781 125.479 187.796 119.875 185.328 114.477C183.989 111.547 183.082 108.476 181.64 105.591C180.083 102.477 178.764 99.4237 177.606 96.1829C177.494 95.8684 177.501 95.522 177.518 96.0842C177.558 97.4876 179.097 98.9296 179.904 99.9502C183.651 104.686 187.151 109.549 190.555 114.536C192.775 117.789 194.735 121.255 196.69 124.675C198.864 128.481 200.767 132.483 203.041 136.223C204.327 138.338 205.469 140.552 206.542 142.782C206.825 143.37 207.065 144.167 207.518 144.646C208.159 145.322 207.673 144.28 207.479 143.995C205.797 141.528 204.797 138.677 203.613 135.957C201.837 131.88 200.153 127.783 198.642 123.6C196.477 117.604 194.592 111.51 191.995 105.69C191.269 104.063 190.39 102.508 189.766 100.838C189.293 99.5702 188.883 98.1933 188.307 96.9718C187.995 96.3111 187.452 95.3978 187.291 94.674C187.168 94.1188 187.199 94.52 187.36 94.8416C188.059 96.2387 188.991 97.4556 189.954 98.678C193.662 103.384 197.391 108.249 200.24 113.54C203.078 118.811 205.868 124.039 208.228 129.547C209.666 132.901 211.212 136.235 212.844 139.498C213.36 140.53 213.843 141.59 214.432 142.584C214.546 142.777 215.09 143.609 214.974 143.541C214.112 143.034 213.581 141.669 213.081 140.878C211.466 138.325 209.741 135.846 208.14 133.284C206.974 131.419 205.748 129.561 204.816 127.564C203.715 125.205 202.916 122.722 201.798 120.365C200.819 118.299 199.738 116.233 198.652 114.221C198.238 113.454 197.915 112.665 197.538 111.883C197.431 111.661 197.222 110.966 197.222 111.213C197.222 113.709 198.518 115.658 199.619 117.86C202.326 123.275 205.463 128.549 208.011 134.034C209.091 136.357 209.975 138.777 211.069 141.085C211.414 141.814 212.651 144.646 213.732 144.646C214.124 144.646 214.681 144.311 215.063 144.212C215.866 144.003 216.775 144.113 217.597 144.113C218.193 144.113 218.747 144.084 219.314 144.291C219.597 144.394 220.057 144.641 219.669 144.182C217.527 141.651 216.232 138.34 214.757 135.415C212.781 131.493 210.107 127.987 208.14 124.053C206.624 121.022 205.387 117.87 203.593 114.98C201.66 111.866 200.31 108.428 198.287 105.374C196.187 102.205 194.762 98.7243 192.607 95.6109C191.231 93.6233 188.679 94.6321 186.571 94.3978C185.83 94.3155 184.83 94.23 184.125 94.0132C183.611 93.8549 183.775 94.0231 183.997 94.4175C184.631 95.5443 185.151 96.5656 185.605 97.8003C187.238 102.245 188.903 106.661 190.565 111.094C192.466 116.164 193.744 121.358 195.269 126.539C197.052 132.592 198.643 138.832 201.66 144.389C202.41 145.77 201.167 144.862 200.556 144.251C197.555 141.25 194.444 138.547 192.686 134.606C191.036 130.909 189.127 127.264 187.143 123.738C186.801 123.13 186.307 122.501 186.048 121.854C185.888 121.453 186.325 122.674 186.482 123.077C187.719 126.238 188.878 129.49 189.845 132.742C190.646 135.431 191.207 138.267 192.252 140.878C192.834 142.333 193.163 143.806 193.849 145.178" stroke="#171717" stroke-width="4" stroke-linecap="round"/>
<path d="M269.8 146.92H155.6L105.8 204.92C85.4001 160.52 110.2 137.04 121.8 134.32C123.56 104.08 165.2 93.7201 185.8 92.3201C247.4 92.3201 267.44 128.72 269.8 146.92Z" stroke="#171717" stroke-width="2" stroke-linejoin="round"/>
<path d="M122.04 135.6C114.44 135.6 104.72 144.16 103.84 152.04C103.56 154.4 101.48 156.08 101.48 158.8C101.48 161.12 99.7201 163.48 99.7201 165.84C99.7201 170.92 98.5601 175.6 98.5601 180.52C98.5601 182.76 98.5601 185 98.5601 187.28C98.5601 190.12 99.6401 192 99.7201 194.76C99.8001 196.92 103.96 205.76 107.04 203.36C111.04 200.24 113.72 194.52 116 190.2C116.96 188.4 119.08 186.08 120.84 185.04C122.64 184 126.08 181.48 127.16 179.64C129.52 175.64 132.4 171.6 135.8 168.2C139.56 164.44 142.48 160.48 145.92 156.64C149.48 152.68 150.32 150.32 155.72 149.12C157.68 148.68 159.64 147.4 161.6 147.4C164.32 147.4 167.08 147.4 169.8 147.4C188.52 147.4 207.32 145.64 226.12 145.64C228.36 145.64 230.6 145.64 232.88 145.64C235.32 145.64 237.56 146.68 239.92 146.8C245.64 147.12 245.74 146.8 251.5 146.8C253.18 146.8 258.46 146.44 259.5 146.8C261.32 146.8 263.2 146.8 264.72 146.8C266.64 146.8 267.52 147.2 267.52 145.04C267.52 143.56 265.64 140.08 264.72 139.04C263.16 137.32 262.24 134.2 261.2 132.12C259.12 127.96 258.36 122.64 255.48 118.92C253.08 115.84 249.24 112.28 245.84 110.28C241.8 107.88 237.8 104.64 233.28 103.32C231.4 102.8 229.2 101.12 227.4 100.12C225.56 99.08 222.92 96.8 220.96 96.32C219.88 96.08 216.76 94.84 215.84 94.08C214.68 93.16 209.8 93.36 208.36 93.36C202.8 93.36 197.72 92.2 192.28 92.2C185.88 92.2 180.12 94.32 173.88 94.56C169.2 94.72 162.68 96.8 159.08 99.84C157.24 101.4 155.04 101.84 152.92 102.76C149.92 104.08 148.8 105.12 145.28 105.12C141.8 105.12 134.88 109.08 132.68 111.88C130.56 114.52 116.72 132.64 121.52 135.04" stroke="#171717" stroke-width="2" stroke-linecap="round"/>
<path d="M203.36 174C203.28 171.08 201.44 165.2 194.56 165.2C187.68 165.2 185.96 170.52 185.96 173.2" stroke="#171717" stroke-width="2" stroke-linecap="round" stroke-linejoin="round"/>
<path d="M252.96 172.8C252.88 169.88 251.04 164 244.16 164C237.28 164 235.56 169.32 235.56 172" stroke="#171717" stroke-width="2" stroke-linecap="round" stroke-linejoin="round"/>
<path d="M193.6 200.6C207.076 200.6 218 189.676 218 176.2C218 162.724 207.076 151.8 193.6 151.8C180.124 151.8 169.2 162.724 169.2 176.2C169.2 189.676 180.124 200.6 193.6 200.6Z" stroke="#171717" stroke-width="2" stroke-linecap="round" stroke-linejoin="round"/>
<path d="M242.4 200.6C255.876 200.6 266.8 189.676 266.8 176.2C266.8 162.724 255.876 151.8 242.4 151.8C228.924 151.8 218 162.724 218 176.2C218 189.676 228.924 200.6 242.4 200.6Z" stroke="#171717" stroke-width="2" stroke-linecap="round" stroke-linejoin="round"/>
<path d="M169 176.2H132" stroke="#171717" stroke-width="2" stroke-linecap="round" stroke-linejoin="round"/>
<path d="M273.6 176.2H266.8" stroke="#171717" stroke-width="2" stroke-linecap="round" stroke-linejoin="round"/>
<path d="M130.881 176.949C135.192 176.949 139.845 177.378 144.023 176.081C145.639 175.579 147.494 175.379 149.17 175.146C150.506 174.961 151.828 174.813 153.175 174.813C155.591 174.813 157.969 175.213 160.399 175.213C163.157 175.213 165.906 175.48 168.661 175.48" stroke="#171717" stroke-width="2" stroke-linecap="round"/>
<path d="M267.347 175.405C267.987 175.405 268.658 175.344 269.293 175.417C269.779 175.472 270.19 175.717 270.625 175.918C270.871 176.031 271.131 176.163 271.394 176.236C271.594 176.292 271.797 176.481 272.008 176.481" stroke="#171717" stroke-width="2" stroke-linecap="round"/>
<path d="M186.478 173.769C186.478 173.016 186.744 172.247 186.946 171.523C187.119 170.901 187.373 170.242 187.631 169.65C187.841 169.168 188.175 168.808 188.446 168.366C188.962 167.525 189.624 167.115 190.363 166.511C190.911 166.062 191.418 165.405 192.115 165.184C192.846 164.952 193.62 165.028 194.378 165.028C196.987 165.028 198.781 166.779 200.449 168.54C201.387 169.53 202.358 170.648 203.163 171.757C203.571 172.32 203.883 172.728 203.883 173.457" stroke="#171717" stroke-width="2" stroke-linecap="round"/>
<path d="M234.665 172.117C234.665 171.039 234.614 169.224 235.399 168.351C235.707 168.009 236.059 167.766 236.274 167.335C236.564 166.756 236.836 165.999 237.478 165.679C237.933 165.451 238.536 165.669 238.954 165.437C239.385 165.197 239.863 164.853 240.322 164.694C241.378 164.329 242.318 164.101 243.447 164.101C244.736 164.101 246.025 164.101 247.314 164.101C248.857 164.101 249.681 165.117 250.76 165.999C251.192 166.352 251.495 167.112 251.823 167.585C252.271 168.232 252.514 168.967 252.885 169.656C253.186 170.215 253.651 170.933 253.651 171.586C253.651 171.818 253.655 173.093 253.792 172.82" stroke="#171717" stroke-width="2" stroke-linecap="round"/>
<path d="M187.12 153.12C185.4 153.12 183.64 154.04 182.12 154.92C180.56 155.8 179.4 156.96 178.24 158.32C177.28 159.44 176 160.84 175.32 162.08C174.8 163 174.12 163.76 173.64 164.68C173.28 165.36 173.28 166.16 172.92 166.84C172.28 168.08 172.2 170.4 171.92 171.76C171.6 173.36 171.6 175.04 171.6 176.68C171.6 178.44 171.44 180.56 171.92 182.2C172.24 183.32 172.48 185.72 173.16 186.64C175 189.04 177.2 191.52 179.32 193.72C180.28 194.76 181.48 195.6 182.56 196.48C183.08 196.92 184.32 197.16 185 197.48C185.72 197.8 186.56 198.4 187.36 198.4C189.16 198.4 190.44 199.44 192.08 199.92C192.72 200.12 196.8 200.32 197.2 199.8C197.56 199.36 198.76 199.24 199.24 198.96C200.2 198.44 200.96 197.6 202 197.16C203.4 196.64 205.4 196.08 206.52 194.92C208.32 193 209.96 191 211.8 189.04C212.76 188 213.08 186.4 213.68 185.08C214.36 183.64 215.68 181.6 215.68 180C215.68 176.6 216.44 172.92 215.68 169.52C215.36 168.08 215.2 166.48 214.48 165.2C213.64 163.68 212.8 162.84 211.6 161.6C209.28 159.16 206.56 156.52 203.6 154.96C201.72 153.96 200.76 153.36 198.6 153.36C196.88 153.36 195.16 152.44 193.48 152.44C191.84 152.44 190.2 152.12 188.48 152.12C186.96 152.12 184.12 152.24 182.92 153.2C182.12 153.84 181.04 154.08 180.12 154.52C179.28 154.92 178.88 155.56 178.2 156.28C177.04 157.48 175.36 160.08 174.32 162.48" stroke="#171717" stroke-width="2" stroke-linecap="round"/>
<path d="M223.04 188.6C223.52 190.32 224.84 191.88 226.04 193.2C227.28 194.56 228.64 195.44 230.24 196.28C231.52 196.96 233.2 197.92 234.56 198.32C235.52 198.6 236.44 199.12 237.44 199.4C238.2 199.6 238.92 199.4 239.68 199.6C241 199.96 243.16 199.44 244.56 199.4C246.12 199.36 247.68 198.88 249.24 198.48C250.84 198.04 252.88 197.64 254.32 196.8C255.28 196.2 257.44 195.36 258.12 194.44C259.88 191.96 261.56 189.12 263.04 186.44C263.72 185.2 264.2 183.8 264.76 182.48C265.04 181.84 264.92 180.52 265.04 179.76C265.16 178.92 265.48 177.96 265.28 177.16C264.8 175.32 265.4 173.76 265.4 172C265.4 171.32 264.48 167.12 263.88 166.84C263.36 166.6 262.92 165.4 262.56 164.96C261.8 164.12 260.8 163.56 260.16 162.6C259.28 161.32 258.24 159.44 256.88 158.6C254.6 157.24 252.28 156.08 250 154.72C248.8 154 247.2 154.08 245.84 153.8C244.32 153.48 242.04 152.64 240.56 153.04C237.4 153.88 233.8 154.04 230.8 155.64C229.52 156.32 228.08 156.92 227.08 157.92C225.88 159.12 225.36 160.2 224.52 161.72C222.88 164.68 221.16 168.08 220.52 171.48C220.12 173.64 219.8 174.76 220.36 176.92C220.84 178.64 220.44 180.64 220.88 182.36C221.32 184 221.48 185.76 221.96 187.48C222.36 189.04 223.24 191.88 224.48 192.84C225.32 193.48 225.8 194.52 226.44 195.36C227.04 196.12 227.76 196.32 228.6 196.84C230.04 197.72 232.92 198.8 235.4 199.24" stroke="#171717" stroke-width="2" stroke-linecap="round"/>
<path d="M156.84 304V384L174.84 387.4" stroke="#171717" stroke-width="2" stroke-linecap="round" stroke-linejoin="round"/>
<path d="M215.68 304V384L233.68 387.4" stroke="#171717" stroke-width="2" stroke-linecap="round" stroke-linejoin="round"/>
<path d="M155.314 304.57C155.314 310.229 155.145 315.858 155.848 321.479C156.697 328.27 157.108 335.139 157.671 341.961C157.921 344.991 157.9 348.126 157.598 351.152C157.329 353.838 157.182 356.563 156.842 359.238C156.744 360.012 156.932 360.841 156.723 361.596C156.65 361.858 156.486 362.354 156.474 362.591C156.384 364.299 157.189 366.096 157.598 367.73C158.194 370.116 157.8 372.911 157.8 375.355C157.8 377.455 157.8 379.555 157.8 381.655C157.8 382.876 159.677 383.197 160.655 383.607C162.361 384.322 164.146 384.818 165.96 385.173C167.861 385.545 169.77 385.981 171.688 386.259C172.856 386.429 174.093 386.423 175.206 386.794" stroke="#171717" stroke-width="2" stroke-linecap="round"/>
<path d="M214.381 306.009C214.381 311.594 214 317.223 215.051 322.714C215.816 326.705 216.046 330.695 216.046 334.757C216.046 340.528 216.002 346.269 216.417 352.028C216.775 357.007 217.151 361.948 217.492 366.905C217.59 368.316 217.712 369.668 217.712 371.093C217.712 371.683 217.599 372.295 217.4 372.851C217.14 373.58 217.38 374.4 217.192 375.154C216.978 376.009 217.088 376.971 217.088 377.849C217.088 378.766 216.879 379.623 216.879 380.544C216.879 381.592 216.208 383.493 216.717 384.512C218.07 387.217 222.429 386.386 224.781 386.386C226.242 386.386 227.703 386.386 229.165 386.386C229.92 386.386 233.17 386.483 233.538 387.219" stroke="#171717" stroke-width="2" stroke-linecap="round"/>
<path d="M195.266 211.498C197.532 216.192 206.848 224.696 227.089 223.384C229.785 223.21 232.612 221.483 232.33 218.796C232.143 217.021 230.897 215.583 227.326 215.875" stroke="#171717" stroke-width="2.4" stroke-linecap="round"/>
<path d="M178.286 203.58C178.539 205.608 187.771 197.282 181.81 204.733C181.484 205.141 180.181 206.538 180.352 207.136C180.431 207.41 184.789 205.018 185.046 204.845C186.802 203.665 188.627 202.386 190.269 201.048C190.522 200.842 191.807 199.538 191.262 200.696C190.99 201.273 190.755 201.826 190.541 202.426C190.187 203.419 192.633 203.018 193.168 202.971C194.79 202.827 196.337 202.237 197.83 201.625C197.892 201.6 199.57 200.931 199.272 201.561C198.81 202.536 196.368 204.981 198.952 204.252C201.246 203.605 203.411 202.317 205.68 201.561" stroke="#C6C6C8" stroke-width="2" stroke-linecap="round"/>
<path d="M231.633 205.868C235.028 204.251 238.418 202.708 241.886 201.254C242.157 201.14 246.621 199.683 246.451 199.988C245.404 201.874 244.371 203.691 243.039 205.403C242.903 205.578 241.944 206.551 242.062 206.845C242.205 207.202 246.022 204.663 246.275 204.49C247.884 203.394 249.489 202.289 251.177 201.318C251.705 201.015 252.625 200.136 253.26 200.101C254.031 200.058 252.528 203.209 252.411 203.561C252.358 203.721 251.938 204.725 252.315 204.522C253.508 203.88 254.668 203.177 255.871 202.552C257.239 201.842 258.688 201.237 259.989 200.405C260.486 200.087 260.74 199.812 261.334 199.812" stroke="#C6C6C8" stroke-width="2" stroke-linecap="round"/>
<path d="M195 211.5C196.026 212.819 197.342 215.735 198.738 216.701C201.02 218.281 203.259 219.913 205.766 221.132C208.61 222.515 211.675 223.217 214.78 223.729C216.691 224.045 218.57 224.035 220.501 224.035C222.678 224.035 224.576 223.488 226.697 223.084C228.127 222.813 230.113 222.775 231.4 222.015C232.105 221.598 232.422 220.64 232.656 219.91C233.702 216.647 229.459 215.326 227.003 215.326" stroke="#171717" stroke-width="2" stroke-linecap="round"/>
<path d="M135.384 218.055C134.515 232.118 138.196 260.87 159.864 263.37C181.532 265.87 187.296 236.632 187.47 221.701M187.47 221.701L179.657 209.721M187.47 221.701V209.721" stroke="#171717" stroke-width="2" stroke-linecap="round"/>
<path d="M265 264.5C243.332 267 241.33 237.632 241.157 222.701M241.157 222.701L248.97 210.721M241.157 222.701V210.721" stroke="#171717" stroke-width="2" stroke-linecap="round"/>
<path d="M135.38 218.185C135.38 219.437 135.503 220.649 135.547 221.886C135.598 223.309 136.215 224.616 136.37 226.014C136.667 228.683 136.713 231.299 136.713 234.01C136.713 235.618 137.212 237.223 137.212 238.84C137.212 240.113 137.679 241.231 138.045 242.422C138.464 243.782 139.382 244.918 140.044 246.17C140.682 247.375 141.05 248.755 141.784 249.908C144.107 253.559 147.647 257.073 151.696 258.894C155.102 260.427 158.996 260.927 162.699 260.995C164.437 261.027 166.181 261.162 167.937 261.162C168.716 261.162 169.619 261.232 170.325 260.829C170.753 260.584 171.041 260.495 171.528 260.495" stroke="#171717" stroke-width="2" stroke-linecap="round"/>
<path d="M171.528 260.495C173.384 260.495 174.709 258.469 175.859 257.155C178.004 254.703 180.4 252 181.606 248.918C182.036 247.818 182.832 246.719 182.855 245.503C182.876 244.385 183.086 243.274 183.197 242.163C183.454 239.593 184.348 237.071 185.28 234.676C185.685 233.635 186.02 232.549 186.02 231.418C186.02 229.709 186.529 228.137 186.89 226.477C187.038 225.795 187.238 225.113 187.427 224.441C187.617 223.759 187.431 223.044 187.602 222.358C187.962 220.921 188.071 219.44 188.519 218.018C189.025 216.408 189.185 214.821 189.185 213.15C189.185 211.834 188.852 210.629 188.852 209.356" stroke="#171717" stroke-width="2" stroke-linecap="round"/>
<path d="M187.006 223.043C187.006 222.444 187.085 221.957 186.766 221.456C186.387 220.86 185.706 219.904 185.512 219.224C185.31 218.519 184.721 217.879 184.267 217.324C183.843 216.807 183.502 216.1 183.021 215.654C181.22 213.982 180.957 211.645 179.701 209.76" stroke="#171717" stroke-width="2" stroke-linecap="round"/>
<path d="M265.5 264.5C262.899 264.5 260.613 265.044 258.19 264.075C256.884 263.553 255.151 263.352 254.01 262.419C252.936 261.54 252.246 260.317 251.405 259.235C247.609 254.355 246.629 247.304 245.166 241.453C244.272 237.876 243.141 233.866 243.141 230.166C243.141 227.74 241.614 224.16 242.626 221.757C243.631 219.371 245.636 217.15 247.61 215.534C248.776 214.581 250.955 212.273 250.955 210.759" stroke="#171717" stroke-width="2" stroke-linecap="round"/>
<path d="M241.562 219.441C241.562 216.48 242.211 212.707 241.272 209.891" stroke="#171717" stroke-width="2" stroke-linecap="round"/>
<path d="M290.4 145.32C290.92 152.36 292.08 160.72 278.64 161.28C283.72 161.12 290.4 161.28 290.4 175.56C289.84 170.6 289 161.28 302.72 161.28C297.12 160.16 290.4 166.6 290.4 145.32Z" stroke="#171717" stroke-width="2" stroke-linecap="round" stroke-linejoin="round"/>
<path d="M109.845 306.692C110.251 306.733 110.658 307.231 110.99 307.444C111.758 307.936 112.535 308.432 113.215 309.044C113.478 309.28 113.763 309.676 113.919 309.192C114.081 308.688 114.015 308.12 114.015 307.597C114.015 307.289 114.138 306.591 114.408 306.456" stroke="#FFD424" stroke-width="4" stroke-linecap="round"/>
<path d="M113.4 291.32C113.92 298.36 115.08 306.72 101.64 307.28C106.72 307.12 113.4 307.28 113.4 321.56C112.84 316.6 112 307.28 125.72 307.28C120.12 306.16 113.4 312.6 113.4 291.32Z" stroke="#171717" stroke-width="2" stroke-linecap="round" stroke-linejoin="round"/>
</svg>
