<svg width="400" height="444" viewBox="0 0 400 444" fill="none" xmlns="http://www.w3.org/2000/svg">
<path d="M141 396.001C133.83 396.001 128 390.171 128 383.001C128 375.831 133.83 370.001 141 370.001H141.87C135.2 346.731 140.29 327.781 146.7 314.961C145.62 314.121 144.56 313.251 143.51 312.361L141.62 313.861L139.86 315.441C137.54 317.521 134.56 318.771 131.58 318.941C131.58 319.371 131.59 319.801 131.59 320.241C131.59 327.011 126.5 332.581 119.75 333.191L119.21 333.241H118.67C111.96 333.241 106.41 328.281 105.67 321.701C105.59 320.961 105.48 320.001 105.41 318.881C99.0501 318.201 94.0801 312.981 93.8401 306.441C93.5801 299.531 98.8201 293.641 105.63 293.011C105.6 292.051 105.59 291.051 105.59 289.991C105.59 284.161 109.29 279.281 114.59 277.601L116.36 276.181C112.93 269.071 109.96 261.331 107.48 253.061C76.2401 241.861 59.0901 213.681 50.0801 191.201L38.3001 185.471C31.8601 182.341 29.1701 174.541 32.3001 168.101C34.4601 163.651 39.0501 160.781 43.9901 160.781C45.2301 160.781 46.4601 160.961 47.6301 161.301C49.1901 156.361 53.6301 152.661 59.0701 152.251L59.5201 152.221H59.9701C67.1501 152.221 72.8601 157.801 73.0301 164.921L73.3401 179.291C77.0901 189.091 81.5001 197.601 86.5401 204.741C86.0501 199.711 86.2001 194.731 87.0101 189.831C89.1701 176.611 95.5201 168.041 99.2101 164.021C98.9801 159.261 99.5201 154.541 100.84 149.881C99.5401 150.271 98.3001 150.511 97.1101 150.601C96.4701 150.691 95.8601 150.731 95.2701 150.731C91.1501 150.731 87.2501 148.761 84.8101 145.451C83.7901 144.191 83.0001 142.791 82.4601 141.291C78.8801 134.001 76.7801 125.891 76.4101 118.211C71.9101 120.011 67.9301 120.921 64.5201 120.921C59.2001 120.921 54.5901 118.831 51.5601 115.031C47.7701 110.291 45.2801 101.851 54.9301 88.5807C60.8701 80.4107 69.8101 72.5707 76.2601 67.4207C84.5701 60.7807 93.1501 55.2707 100.41 51.9207C106.12 49.2707 110.96 47.9707 115.17 47.9707C120.51 47.9707 125.13 50.0707 128.16 53.8907C131.34 57.8707 133.63 64.4707 128.55 74.2607C134.25 75.1507 139.86 76.8807 144.41 79.1807C146.18 79.8807 147.82 80.9407 149.17 82.2707C154.01 87.0407 154.71 93.3307 151.29 101.061C154.15 99.7707 156.39 98.8907 157.68 98.4007L158.13 98.2307L158.54 98.1107C171.95 94.0807 184.89 92.0307 197.01 92.0307C215.42 92.0307 232.41 96.8607 246.14 105.991C256.93 113.171 265.73 123.141 270.29 133.351C271.82 136.761 271.79 140.671 270.22 144.081C270.22 144.081 270.13 144.291 270.09 144.361C276.4 151.951 282.23 160.561 287.21 169.641C290.26 165.151 293.2 159.211 294.89 151.681L283.13 145.291L296.21 142.481C296.99 130.711 294.74 115.941 286.68 97.7807L276.75 87.3307C274.37 84.8407 273.08 81.5307 273.17 78.0507C273.25 74.5907 274.69 71.3607 277.21 68.9607C279.66 66.6407 282.83 65.3807 286.17 65.3807C288.28 65.3807 290.35 65.9007 292.19 66.8607C294.45 62.7607 298.79 60.1407 303.57 60.1407C305.04 60.1407 306.48 60.3807 307.85 60.8707C311.13 62.0207 313.77 64.3707 315.27 67.4907C316.78 70.5707 316.99 74.1107 315.85 77.4007L311.54 89.8107C316.94 102.541 320.34 114.881 321.69 126.661C323.85 123.891 327.12 122.021 330.92 121.721L331.2 121.701L331.82 121.681H332.02C338.76 121.681 344.43 126.961 344.93 133.701L344.99 134.481C345.06 135.421 345.15 136.481 345.2 137.641C345.75 137.701 346.29 137.791 346.82 137.891C353.43 139.211 357.89 145.241 357.23 151.931C356.59 158.391 351.37 163.311 344.95 163.631C344.95 164.061 344.96 164.491 344.96 164.931C344.96 171.661 339.91 177.231 333.2 177.871L332.62 177.931H331.95C325.32 177.931 319.77 172.961 319.03 166.371C318.95 165.641 318.84 164.691 318.77 163.581C318.72 163.581 318.67 163.571 318.62 163.561C313.91 178.961 305.67 189.501 298.78 196.101C299.74 198.961 300.6 201.801 301.35 204.601C304.88 201.011 309.79 198.821 315.19 198.821C325.89 198.821 334.59 207.521 334.59 218.221C334.59 228.921 325.89 237.621 315.19 237.621C311.53 237.621 308.02 236.571 305.02 234.711C304.95 235.961 304.84 237.171 304.69 238.351C304.53 239.631 304.35 240.921 304.15 242.191C309.33 240.661 314.21 239.881 318.68 239.881C324.76 239.881 330.21 241.291 334.87 244.081C342.54 248.661 347.32 256.251 349.1 266.681L351.01 265.981C352.39 265.491 353.91 265.231 355.39 265.231C360.81 265.231 365.71 268.641 367.59 273.731C370.07 280.461 366.61 287.941 359.9 290.421L340.78 297.471C339.37 297.971 337.9 298.231 336.4 298.231C333.49 298.231 330.64 297.241 328.36 295.441C324.79 292.641 322.97 288.261 323.49 283.751C324.9 271.321 322.57 267.011 321.56 266.401C321.04 266.091 319.97 265.901 318.69 265.901C313.83 265.901 304.03 268.731 292.16 276.671C276.29 305.681 248.48 327.021 219.35 332.461C213.61 333.521 207.83 334.061 202.14 334.061C190.97 334.061 179.72 331.951 169.36 327.921C164.84 337.801 160.95 355.121 172.65 376.881C174.81 380.871 174.7 385.801 172.36 389.721C170.04 393.611 165.77 396.031 161.21 396.031H141.01L141 396.001Z" fill="white"/>
<path d="M248.92 140.44C279.72 168.68 294.36 213.36 291.6 236.08C286.92 274.76 254.92 311.84 216.76 318.96C180.48 325.72 134.38 308.78 117.5 240.5" stroke="#171717" stroke-width="2"/>
<path d="M248.2 141.84C250.64 145.12 253.12 148.28 256.28 150.48C260.32 153.28 263.92 158.84 267.6 162.44C271.16 165.92 274.48 169.6 275.96 174.48C276.96 177.8 280.88 180.56 281.92 183.92C282.88 187.12 284.64 190.28 285.6 193.48C287.64 200.28 290.88 208.2 289.36 215.28C288.8 217.96 289.24 223.4 289.76 226.16C290.32 229.2 289.08 232.84 289.56 235.6C290.68 241.8 287.16 250.76 286.12 257C283.72 271.04 277.04 280.96 267.32 291C264.8 293.6 261.92 294.8 259.4 297.16C257.16 299.28 253.88 303.36 251.28 304.48C245.32 307.08 238.48 313.12 232.52 315.28C227.92 316.96 224.16 320.76 218.48 319.52C213.08 318.32 203.08 319.68 197.88 320.92C187.4 323.44 175.68 317.72 166.24 313.88C161.84 312.08 154.92 303.88 151.4 300.28C147.48 296.28 143.84 292.36 139.04 289.44C127.4 280.04 124.6 267.68 120.56 254.32C119.28 250.08 118.5 244.82 117.5 240.5" stroke="#171717" stroke-width="2" stroke-linecap="round"/>
<path d="M216.28 197.84C222.52 196.36 232.88 196.68 224.4 209.6" stroke="#171717" stroke-width="2" stroke-linecap="round" stroke-linejoin="round"/>
<path d="M217.24 199.12C217.64 199.12 218.16 199.2 218.52 199.12C218.8 199.04 218.96 198.76 219.28 198.72C220.04 198.64 220.68 198.32 221.48 198.32C222.64 198.32 224.72 197.68 225.72 198.6C226.36 199.2 226.68 200.08 227 200.88C227.24 201.56 227.64 202.28 227.64 203C227.64 204.44 227.4 205.48 226.8 206.8C226.52 207.44 226.16 208.84 225.6 209.12" stroke="#171717" stroke-width="2" stroke-linecap="round"/>
<path d="M258.2 138L148.84 170.92L117.88 240.8C85.56 204.16 102.52 174.56 112.84 168.6C105.8 139.12 142.72 117.2 162.04 109.92C221 92.16 250.72 121.24 258.2 138Z" stroke="#171717" stroke-width="2" stroke-linejoin="round"/>
<path d="M113.48 169.76C106.2 171.96 99.3602 182.96 100.8 190.72C101.24 193.04 99.7202 195.24 100.48 197.84C101.16 200.04 100.16 202.84 100.84 205.08C102.32 209.96 102.52 214.76 103.96 219.48C104.6 221.64 105.24 223.8 105.92 225.92C106.72 228.64 108.32 230.16 109.2 232.76C109.92 234.8 116.44 242.08 118.72 238.88C121.64 234.76 122.56 228.48 123.52 223.68C123.92 221.68 125.28 218.84 126.64 217.36C128.04 215.84 130.64 212.44 131.12 210.36C132.2 205.88 133.84 201.12 136.08 196.92C138.6 192.24 140.24 187.6 142.44 182.92C144.72 178.12 144.84 175.6 149.68 172.88C151.4 171.92 152.92 170.08 154.8 169.52C157.44 168.72 160.04 167.96 162.68 167.16C180.6 161.76 198.08 154.64 216.08 149.24C218.24 148.6 220.4 147.96 222.52 147.28C224.84 146.56 227.32 146.92 229.6 146.36C235.16 145 240.68 143.04 246.16 141.36C247.76 140.88 247.68 141.6 248.8 141.64C250.52 141.72 251.32 140.4 252.8 139.96C254.64 139.4 256.12 138.76 255.48 136.68C255.04 135.28 252.28 132.48 251.08 131.76C249.08 130.56 247.32 127.84 245.72 126.16C242.52 122.76 240.24 117.88 236.44 115.16C233.24 112.88 228.56 110.6 224.72 109.68C220.16 108.56 215.4 106.6 210.68 106.64C208.72 106.68 206.16 105.72 204.12 105.28C202.04 104.84 198.88 103.36 196.84 103.52C195.72 103.6 192.4 103.28 191.28 102.84C189.92 102.28 185.32 103.88 183.88 104.32C178.56 105.92 173.36 106.28 168.12 107.84C162 109.68 157.12 113.36 151.2 115.4C146.76 116.92 141.12 120.8 138.56 124.72C137.24 126.72 135.28 127.8 133.52 129.32C131.04 131.48 130.24 132.76 126.88 133.76C123.52 134.76 118.08 140.56 116.76 143.84C115.52 146.96 107.48 168.32 112.76 169.24" stroke="#171717" stroke-width="2" stroke-linecap="round"/>
<path d="M255.92 137.36C255.88 136.88 255.4 136.4 255.12 136.04C254.76 135.56 254.6 134.92 254.24 134.48C253.64 133.64 252.64 133.12 252.04 132.28C251.48 131.48 251 130.56 250.4 129.8C249.28 128.4 247.88 127.4 246.64 126.16C243.84 123.36 240.4 121.92 236.88 120.2C234.84 119.2 232.92 117.88 230.84 116.92C228.6 115.88 226.36 115.08 224 114.4C220 113.2 216 111.96 212.08 110.44C210.4 109.8 208.84 109.16 207.28 108.24C207.04 108.08 206.24 107.84 206.52 107.72C207.4 107.44 208.88 107.96 209.68 108.24C214.68 109.8 219 112.24 222.72 115.96C226.24 119.48 229.4 123.48 233.6 126.2C238.92 129.64 245.24 131.44 249.88 135.92C250.16 136.16 250.44 136.48 250.76 136.68C251 136.84 249.48 135.64 249.32 135.52C244.4 131.32 240.44 125.52 234.56 122.6C231.24 120.96 227.72 119.68 224.6 117.64C222.48 116.28 220.52 114.6 218.28 113.36C216.12 112.2 213.64 111.4 211.28 110.76C206.24 109.36 200.96 109.6 195.96 108.04C195.56 107.92 195.2 107.6 194.76 107.56C194.56 107.52 194.28 107.4 194.12 107.24C193.44 106.6 195.72 107.68 195.8 107.68C208.68 113.32 221 120.2 231.52 129.64C233.84 131.72 236.24 133.48 238.76 135.2C240.08 136.12 241.36 137.2 242.68 138.12C242.84 138.24 243.96 138.92 243.96 139.24C243.92 139.52 242 138.76 241.96 138.76C237.64 137.04 233.44 135.04 229.2 133.12C221.68 129.68 214.48 126 207.8 121.08C203.2 117.68 199 113.76 194.44 110.32C191.84 108.36 190.52 109.4 187.76 107.64C186.64 106.92 185.56 106.36 184.36 105.8C184.16 105.72 184.48 106.04 184.52 106.08C184.96 106.68 185.28 107.36 185.72 107.96C187.04 109.96 186.52 109.48 188.64 110.68C190.4 111.68 192.32 112.24 194.16 113.08C197.76 114.72 201.16 116.92 204.52 119C211.8 123.52 219.16 128.04 226.16 133C228.32 134.56 230.72 136.12 232.28 138.36C233.28 139.76 234.76 140.84 235.96 142.04C236.24 142.32 236.48 142.64 235.84 142.48C234.96 142.24 234.12 141.84 233.32 141.44C231.24 140.4 229.16 139.4 227.04 138.44C214.8 132.76 202.68 126.48 191.52 118.8C186.96 115.64 182.28 112.64 177.84 109.32C176.24 108.12 176.44 109.48 174.88 108.28C174.76 108.2 174.24 107.84 174.64 108.16C176.44 109.64 176.52 108.44 178.32 109.92C184.24 114.8 191.16 118.36 197.72 122.28C204.52 126.32 211.36 130.44 216.76 136.28C218.48 138.16 220.28 140 221.84 142C222.4 142.72 222.84 143.24 223.6 143.8C224.16 144.2 224.88 143.88 225.32 144.2C225.84 144.6 226.84 144.6 227.48 144.72C228 144.8 229.52 145.08 230 144.8C230.56 144.48 227.24 140.8 226.52 140.6C224.24 139.96 221.84 139.84 219.56 139.24C216.4 138.36 213.56 136.88 210.56 135.52C205.04 133 199.68 130.2 194.08 127.8C190.36 126.16 186.28 124.52 183.04 122.04C181.04 120.52 179.36 118.6 177.36 117.08C176 116.04 174.76 115.16 173.56 113.92C173 113.36 172.64 112.68 172.08 112.12C171.68 111.72 170.88 111.56 170.36 111.4C169.88 111.24 168.64 110.24 169 110.64C169.68 111.4 170.72 111.6 171.64 111.92C175.44 113.24 179.24 114.56 182.76 116.48C188.2 119.48 193.68 122.96 198.4 127.08C203.28 131.36 208.32 135.48 213.44 139.44C216 141.44 218.6 143.52 221.28 145.32" stroke="#171717" stroke-width="4" stroke-linecap="round"/>
<path d="M220.4 147.32C219.64 147.24 218.52 146.12 218 145.72C214.92 143.48 212.08 141.04 208.96 138.88C207.16 137.64 205.28 136.48 203.36 135.4C202 134.64 200.88 133.6 199.56 132.72C197.24 131.16 194.68 129.36 192.12 128.28C190.32 127.52 188.6 126.84 186.96 125.8C185.04 124.56 183.16 123.24 181.2 122.04C180.04 121.28 178.8 120.68 177.64 119.88C176.64 119.2 175.68 118.48 174.56 118C172.6 117.12 170.48 116.72 168.4 116.08C166.84 115.6 165.24 115.24 163.68 114.72C162.88 114.48 162.04 114.16 161.2 113.96C160.96 113.92 159.36 113.4 159.2 113.56C159.08 113.68 160.52 114.6 160.52 114.6C163.32 116.24 166.36 117.52 169.2 119.08C182.24 126.28 197.88 130.72 208 142.32C208.76 143.16 209.4 144.08 210.2 144.92C211.08 145.84 212.16 146.44 213.12 147.28C213.44 147.56 214.52 148.08 214.12 148.08C213.24 148.12 212.4 148.04 211.56 147.8C200.88 144.8 191.32 138.64 182.64 131.96C179.08 129.24 175.64 126.24 171.84 123.84C169.48 122.32 166.88 121.2 164.24 120.24C161.2 119.12 158.12 118.84 155 118.24C154.16 118.08 153.48 118.08 152.72 117.72C152.68 117.68 153.72 118.8 153.88 119C155.72 120.88 157.76 122.64 159.88 124.24C163.4 126.96 167.16 129.16 171.24 130.84C175.52 132.6 179.96 133.88 184.16 135.88C189.48 138.4 193.72 141.88 197.84 146C199.32 147.44 200.84 148.64 202.76 149.44C203.08 149.56 204.92 150.76 204.88 150.76C204.28 150.92 202.68 149.88 202.2 149.68C197.68 147.64 193.48 145.04 189.16 142.6C181.84 138.48 174.16 134.84 166.44 131.56C163.2 130.2 159.84 129.12 156.56 127.88C154.88 127.24 153.36 126.36 151.96 125.24C151.04 124.52 150 124.32 149.04 123.72C148.76 123.56 148.4 123.28 148.08 123.16C147.72 123.04 146.72 122.68 147.68 122.68" stroke="#171717" stroke-width="4" stroke-linecap="round"/>
<path d="M140.832 122.694C140.977 122.113 148.5 125.89 149.23 126.252C152.586 127.917 155.666 130.081 158.951 131.873C161.727 133.387 164.383 135.145 167.284 136.408C170.896 137.98 174.516 139.853 177.928 141.822C183.848 145.237 190.156 148.056 196.102 151.359C196.601 151.637 196.931 152.153 197.469 152.422C198.42 152.898 197.02 152.536 196.687 152.379C192.679 150.486 188.597 148.75 184.59 146.824C181.511 145.344 178.328 144.196 175.324 142.527C172.766 141.106 170.11 139.795 167.393 138.708C162.216 136.637 157.138 134.322 151.964 132.252C147.97 130.655 143.85 129.226 139.758 127.967C139.461 127.875 138.472 127.702 138.293 127.478C138.068 127.197 138.058 127.459 138.51 127.684C140.25 128.555 141.857 129.658 143.523 130.657C146.775 132.609 150.133 134.457 153.288 136.56C156.018 138.38 158.695 140.28 161.653 141.735C167.548 144.636 173.635 147.102 179.501 150.035C181.261 150.915 182.922 151.91 184.579 152.965C185.624 153.63 186.887 154.654 188.051 155.07C188.884 155.367 189.655 155.847 190.481 156.133C190.722 156.217 192.323 156.895 191.697 156.383C187.69 153.105 182.518 151.378 178.134 148.712C173.603 145.957 168.713 143.641 164.073 141.062C159.381 138.456 154.041 137.401 148.937 135.876C145.852 134.955 142.724 134.041 139.769 132.741C138.929 132.371 137.802 131.929 137.121 131.287C136.315 130.526 135.416 129.885 134.626 129.095C134.105 128.574 134.287 128.935 134.582 129.377C135.952 131.431 138.617 132.58 140.539 134.032C143.37 136.171 146.3 138.109 149.045 140.379C152.095 142.901 154.958 145.647 158.007 148.169C160.414 150.159 162.791 152.183 165.147 154.234C167.05 155.892 169.267 157.72 171.451 158.976C173.175 159.967 172.386 160.347 174 161.5C174.435 161.811 177.122 161.771 176 161C174.057 159.664 173.518 158.95 171.776 157.37C170.752 156.442 169.686 155.568 168.673 154.625C167.701 153.72 166.943 152.628 165.939 151.75C163.836 149.91 161.821 147.986 159.733 146.129C157.88 144.483 156.248 142.421 154.308 140.9C152.044 139.126 155.694 141.346 156.347 141.681C160.629 143.873 164.787 146.215 168.749 148.95C170.735 150.322 172.574 151.893 174.619 153.171C176.303 154.224 177.702 155.776 179.501 156.676C180.37 157.11 181.266 157.528 182.083 158.043C182.312 158.187 182.741 158.416 183.017 158.433C183.154 158.442 182.125 157.774 181.932 157.641C178.925 155.568 175.767 153.115 173.176 150.524C172.027 149.375 176.057 152.031 177.451 152.867C179.679 154.205 181.929 155.468 184.145 156.827C184.881 157.279 185.596 157.778 186.337 158.195C187.159 158.657 184.449 158.238 183.505 158.238C181.951 158.238 180.086 158.727 178.72 159.41" stroke="#171717" stroke-width="4" stroke-linecap="round"/>
<path d="M128.655 133C134.066 138.412 140.006 143.248 145.171 148.917C147.533 151.51 149.967 154.032 152.282 156.669C154.448 159.136 156.467 161.743 158.793 164.069C159.263 164.539 159.722 164.998 160.188 165.464C160.521 165.797 160.758 166.008 160.281 165.557C157.795 163.209 155.639 160.285 153.543 157.599C151.571 155.072 149.334 152.622 147.589 149.93C145.878 147.288 143.824 144.981 141.864 142.53C140.651 141.014 139.152 139.601 138.06 138.013C137.306 136.916 136.411 136.027 135.652 134.964C135.134 134.24 137.095 136.008 137.812 136.535C140.687 138.647 143.376 141.017 145.843 143.594C149.209 147.112 152.582 150.672 155.724 154.395C157.401 156.383 159.563 157.955 161.398 159.79C162.433 160.826 163.465 161.587 164.736 162.302C165.241 162.586 165.715 162.921 166.235 163.18C167.601 163.863 165.408 161.716 165.139 161.392C162.346 158.028 160.011 154.356 157.026 151.15C156.049 150.101 155.172 148.96 154.184 147.925C153.862 147.588 153.415 147.173 153.212 146.767" stroke="#171717" stroke-width="4" stroke-linecap="round"/>
<path d="M118.608 143.233C119.792 143.34 121.047 144.321 121.957 144.99C124.245 146.67 126.571 148.316 128.799 150.075C132.345 152.874 135.716 155.879 139.259 158.674C141.14 160.158 142.747 161.853 144.468 163.511C145.355 164.366 146.383 165.054 147.258 165.929C148.095 166.766 148.956 167.697 149.822 168.389C151.655 169.856 146.333 165.248 144.571 163.697C141.096 160.638 137.696 157.484 134.422 154.209C132 151.787 129.437 149.148 127.642 146.209C126.384 144.152 125.12 142.137 123.818 140.111C123.702 139.932 122.863 138.402 123.445 138.954C125.927 141.305 128.903 143.156 131.548 145.32C136.902 149.701 141.641 154.509 145.76 160.069C147.24 162.068 148.811 163.855 150.7 165.454C151.323 165.981 152.101 166.254 152.747 166.756C153.473 167.321 154.456 167.81 153.563 166.57C149.703 161.208 144.838 156.446 140.282 151.687C137.875 149.173 135.668 146.453 133.306 143.894C132.452 142.969 131.626 142.057 130.804 141.103C130.207 140.41 129.437 139.859 128.882 139.14C128.581 138.75 127.354 137.311 128.468 138.396C130.733 140.598 133.288 142.496 135.538 144.721C137.726 146.885 139.721 149.215 141.863 151.418C143.638 153.243 145.082 155.381 146.876 157.175C148.553 158.852 149.961 161.151 151.92 162.498C153.35 163.482 154.966 164.707 156.188 165.929" stroke="#171717" stroke-width="4" stroke-linecap="round"/>
<path d="M147.528 170.592C146.055 170.445 144.551 169.031 143.34 168.285C141.753 167.307 140.348 166.166 138.943 164.951C136.898 163.185 134.568 161.875 132.618 159.956C130.815 158.181 129.303 156.129 127.527 154.352C126.102 152.928 124.587 151.583 123.159 150.155C122.197 149.193 121.137 148.423 120.091 147.61C119.839 147.414 119.32 147.128 119.151 146.916C119.027 146.762 118.649 146.82 118.467 146.831C117.99 146.859 118.821 147.376 118.894 147.439C119.654 148.081 120.239 148.994 120.898 149.737C121.961 150.934 123.076 152.027 124.07 153.289C127.396 157.511 130.492 161.97 134.023 166.015C136.449 168.794 139.302 171.149 141.801 173.84C142.327 174.407 142.993 175.162 143.672 175.55C143.891 175.675 144.875 176.669 144.014 176.3C141.412 175.185 138.743 172.915 136.682 171.029C133.779 168.373 131.186 165.485 128.42 162.691C125.913 160.158 123.588 157.373 121.24 154.694C120.25 153.565 119.098 152.232 118.334 150.934C118.074 150.492 117.77 150.391 117.27 150.421C116.714 150.453 118.359 152.738 118.477 152.909C122.164 158.255 126.734 163.167 131.241 167.819C134.929 171.627 137.559 176.193 140.861 180.298C141.055 180.539 142.889 182.586 141.982 181.704C139.004 178.809 135.963 175.981 133.035 173.024C130.99 170.957 129.241 168.595 127.014 166.699C125.224 165.173 123.356 163.72 121.63 162.121C120.913 161.458 120.339 160.689 119.664 159.994C119.316 159.636 118.82 159.384 118.553 158.968C118.286 158.554 117.726 157.726 117.356 157.43C116.869 157.04 116.569 156.388 115.998 156.062C115.738 155.913 115.176 155.463 115.048 155.207" stroke="#171717" stroke-width="4" stroke-linecap="round"/>
<path d="M113.223 158.176C114.06 158.637 114.733 159.321 115.457 159.932C116.649 160.938 117.834 161.961 118.993 163.004C120.776 164.609 122.346 166.489 123.956 168.266C125.85 170.358 127.59 172.587 129.509 174.657C130.428 175.648 131.321 176.707 132.319 177.617C133.054 178.287 133.85 178.984 134.472 179.762C135.207 180.681 136.207 181.353 136.931 182.258C137.294 182.712 137.907 182.978 138.246 183.402C138.604 183.849 139.05 184.027 139.457 184.411C139.722 184.66 140.467 185.394 140.339 185.053C140.274 184.88 139.7 184.676 139.562 184.583C138.806 184.073 138.057 183.551 137.305 183.035C135.558 181.838 133.79 180.687 132.133 179.366C130.116 177.757 127.92 176.427 125.906 174.821C123.24 172.695 120.363 170.822 117.722 168.67C116.425 167.613 115.124 166.563 113.836 165.508C113.75 165.438 113.392 165.02 113.432 165.112C113.54 165.363 113.786 165.581 113.963 165.785C114.666 166.597 115.255 167.575 115.913 168.431C117.275 170.201 118.727 171.875 120.248 173.513C122.756 176.213 125.516 178.682 128.022 181.376C129.555 183.025 131.348 184.724 133.104 186.13C133.979 186.83 134.829 187.565 135.69 188.282C136.064 188.594 136.495 188.847 136.767 189.254" stroke="#171717" stroke-width="4" stroke-linecap="round"/>
<path d="M137.305 190.734C134.704 190.498 132.187 188.314 130.159 186.862C128.49 185.667 126.771 184.556 125.226 183.2C123.614 181.784 121.927 180.457 120.323 179.029C118.935 177.793 117.706 176.39 116.317 175.158C115.335 174.287 114.434 173.275 113.223 172.736C113.17 172.713 112.459 172.458 112.475 172.601C112.492 172.75 113.193 173.214 113.305 173.326C114.033 174.054 114.709 174.834 115.405 175.591C119.362 179.892 123.184 184.378 126.945 188.85C128.191 190.331 129.546 191.7 130.817 193.156C131.721 194.19 132.74 195.272 133.538 196.385C134.018 197.054 134.782 197.548 135.182 198.268C135.745 199.282 133.829 197.905 133.508 197.7C128.54 194.539 124.228 190.708 120.084 186.563C118.479 184.958 116.875 183.355 115.271 181.75C114.471 180.95 113.771 179.802 112.849 179.164C111.904 178.509 111.158 177.586 110.128 177.041C109.817 176.876 109.586 176.645 109.217 176.503C109.161 176.482 108.258 176.248 108.409 176.443C109.033 177.246 109.491 178.213 110.128 179.029C111.548 180.849 112.818 182.804 114.164 184.68C115.7 186.82 117.606 188.694 119.307 190.704C120.983 192.685 122.714 194.617 124.359 196.624C126.225 198.899 128.233 201.033 130.01 203.38C130.4 203.896 130.91 204.436 131.221 204.995C131.35 205.227 131.252 205.113 131.034 204.98C130.303 204.535 129.605 203.983 128.934 203.455C126.359 201.431 123.898 198.818 121.833 196.28C119.909 193.915 117.906 191.649 115.854 189.396C114.519 187.931 113.124 186.505 111.885 184.956C111.325 184.257 110.673 183.675 109.919 183.192C108.549 182.316 107.302 181.174 106.025 180.18C104.992 179.377 106.006 182.244 106.167 182.535C107.253 184.5 108.252 186.483 109.456 188.38C111.014 190.834 112.996 192.993 114.904 195.174C118.751 199.57 122.814 203.661 126.325 208.343C126.899 209.109 127.346 209.962 127.954 210.705C128.141 210.933 128.341 211.471 128.612 211.58C128.933 211.708 128.009 211.241 127.723 211.049C126.852 210.465 126.039 209.823 125.241 209.143C123.065 207.287 121.103 205.212 119.411 202.91C118.018 201.013 116.649 199.155 115.174 197.319C113.72 195.51 112.039 193.978 110.539 192.214C108.892 190.276 107.605 188.036 105.42 186.631C105.278 186.539 103.849 185.366 103.678 185.965C103.403 186.929 104.388 187.737 104.889 188.589C105.835 190.198 107.078 191.69 108.305 193.088C109.861 194.862 110.885 196.877 112.087 198.881C115.069 203.851 117.834 209.01 121.287 213.673C122.432 215.218 123.631 217.116 125.129 218.314C125.517 218.624 124.753 216.496 124.651 216.221C124.161 214.904 123.731 213.562 123.186 212.267C122.507 210.655 121.956 209.105 120.891 207.686" stroke="#171717" stroke-width="4" stroke-linecap="round"/>
<path d="M101.518 191.272C102.159 191.4 102.959 192.704 103.327 193.186C104.581 194.83 106.097 196.267 107.355 197.917C109.133 200.247 110.974 202.519 112.655 204.92C115.314 208.719 117.798 212.53 121.086 215.818C121.661 216.393 122.314 216.843 122.909 217.372C123.233 217.66 124.112 218.432 123.119 217.776C117.696 214.195 112.605 210.083 107.445 206.146C105.733 204.839 103.884 203.387 102.527 201.759C102.117 201.267 102.191 200.472 102.191 199.883C102.191 199.434 102.191 198.986 102.191 198.537C102.191 198.406 102.112 197.452 102.325 197.76C104.084 200.3 106.539 202.361 108.566 204.703C110.554 207.001 112.629 209.035 114.179 211.662C115.623 214.108 117.055 216.77 118.096 219.42C118.476 220.388 119.749 221.461 120.458 222.186C120.604 222.336 121.225 222.894 121.16 222.858C120.856 222.69 120.587 222.422 120.331 222.193C119.477 221.429 118.554 220.766 117.662 220.048C115.664 218.438 113.939 216.472 112.027 214.756C110.659 213.529 109.327 212.262 107.946 211.049C106.983 210.203 105.946 209.413 104.911 208.657C104.274 208.192 103.517 207.682 102.946 207.155C99.8189 204.269 109.173 212.961 112.139 216.012C114.237 218.17 116.318 220.333 118.44 222.455C119.213 223.228 119.86 223.91 120.488 224.802C120.74 225.16 121.031 225.637 121.325 225.953C121.405 226.039 122.115 226.876 121.803 226.685C121.233 226.337 120.746 225.822 120.189 225.445C119.018 224.652 117.854 223.856 116.691 223.053C114.601 221.61 112.618 220.044 110.592 218.516C109.139 217.421 107.701 216.247 106.107 215.362C105.506 215.028 103.863 213.835 104.298 214.368C106.839 217.473 108.949 220.911 111.466 224.024C113.482 226.517 115.612 228.782 117.797 231.095C118.264 231.59 118.549 232.331 118.941 232.896C119.175 233.235 119.232 233.43 118.739 233.083C117.874 232.476 116.99 231.887 116.063 231.372C115.467 231.04 114.971 230.563 114.381 230.236C114.215 230.143 114.513 231.933 114.538 232.037C114.979 233.832 115.344 236.445 116.721 237.822" stroke="#171717" stroke-width="4" stroke-linecap="round"/>
<path d="M203.65 113.399C204.085 113.094 204.851 113.679 205.203 113.902C206.628 114.804 207.972 115.763 209.462 116.567C213.111 118.536 216.6 120.721 220.048 123.019C222.161 124.428 224.404 125.888 226.396 127.468C228.318 128.992 230.518 130.142 232.544 131.528" stroke="#171717" stroke-width="4" stroke-linecap="round"/>
<path d="M182.121 126.618C183.592 126.773 185.647 128.485 186.842 129.304C189.136 130.876 191.282 132.625 193.452 134.361C198.871 138.696 204.556 142.764 209.882 147.203" stroke="#171717" stroke-width="4" stroke-linecap="round"/>
<path d="M144.266 120.549C146.144 120.643 148.208 122.148 149.713 123.13C151.401 124.231 153.065 125.239 154.587 126.57" stroke="#171717" stroke-width="4" stroke-linecap="round"/>
<path d="M148.279 118.113C149.611 118.47 150.771 119.09 152.006 119.689" stroke="#171717" stroke-width="4" stroke-linecap="round"/>
<path d="M180.811 109.234C181.713 109.284 182.631 109.706 183.412 110.125C186.12 111.576 188.87 112.947 191.525 114.496C199.046 118.883 205.961 124.449 212.67 129.974" stroke="#171717" stroke-width="4" stroke-linecap="round"/>
<path d="M193.68 212.4C207.156 212.4 218.08 201.476 218.08 188C218.08 174.524 207.156 163.6 193.68 163.6C180.204 163.6 169.28 174.524 169.28 188C169.28 201.476 180.204 212.4 193.68 212.4Z" stroke="#171717" stroke-width="2" stroke-linecap="round" stroke-linejoin="round"/>
<path d="M240.4 198.32C253.876 198.32 264.8 187.396 264.8 173.92C264.8 160.444 253.876 149.52 240.4 149.52C226.924 149.52 216 160.444 216 173.92C216 187.396 226.924 198.32 240.4 198.32Z" stroke="#171717" stroke-width="2" stroke-linecap="round" stroke-linejoin="round"/>
<path d="M170.12 195.08L133 206.5" stroke="#171717" stroke-width="2" stroke-linecap="round" stroke-linejoin="round"/>
<path d="M270 165L263.76 166.88" stroke="#171717" stroke-width="2" stroke-linecap="round" stroke-linejoin="round"/>
<path d="M180.84 167.8C179.2 168.28 177.76 169.72 176.56 170.96C175.32 172.24 174.52 173.68 173.8 175.32C173.2 176.68 172.36 178.36 172.04 179.76C171.8 180.76 171.36 181.72 171.16 182.76C171 183.52 171.24 184.28 171.08 185.04C170.8 186.4 171.4 188.64 171.52 190.04C171.64 191.64 172.16 193.24 172.64 194.84C173.16 196.52 173.64 198.6 174.52 200.04C175.12 201 176.08 203.24 176.96 203.92C179.44 205.68 182.24 207.4 184.96 208.92C186.2 209.6 187.6 210.08 188.88 210.64C189.52 210.92 190.8 210.8 191.52 210.88C192.32 211 193.28 211.32 194.04 211.08C195.8 210.56 197.32 211.16 199.04 211.16C199.72 211.16 203.72 210.16 203.92 209.56C204.12 209.04 205.24 208.56 205.64 208.16C206.44 207.4 206.88 206.36 207.8 205.64C209 204.72 210.76 203.64 211.48 202.2C212.68 199.84 213.68 197.44 214.88 195.08C215.52 193.8 215.36 192.2 215.56 190.76C215.8 189.2 216.48 186.84 216 185.32C215 182.04 214.68 178.36 213 175.28C212.28 174 211.64 172.52 210.6 171.48C209.36 170.28 208.32 169.72 206.8 168.88C203.84 167.2 200.48 165.48 197.2 164.84C195.12 164.44 194 164.12 191.92 164.76C190.28 165.24 188.32 164.88 186.72 165.36C185.16 165.84 183.44 166.04 181.84 166.52C180.36 166.96 177.68 167.88 176.76 169.2C176.16 170.04 175.2 170.6 174.44 171.24C173.76 171.84 173.56 172.6 173.12 173.48C172.36 174.96 171.48 177.92 171.16 180.52" stroke="#171717" stroke-width="2" stroke-linecap="round"/>
<path d="M225.68 191.24C226.64 192.76 228.36 193.88 229.88 194.8C231.44 195.76 233 196.2 234.76 196.56C236.2 196.84 238.04 197.28 239.44 197.28C240.44 197.28 241.44 197.52 242.48 197.48C243.24 197.48 243.88 197.08 244.64 197.04C246 197 247.92 195.92 249.2 195.48C250.68 195 252 194.12 253.36 193.28C254.76 192.4 256.56 191.44 257.68 190.24C258.4 189.4 260.24 187.96 260.6 186.92C261.56 184.08 262.32 180.88 262.96 177.88C263.24 176.48 263.28 175 263.44 173.6C263.52 172.92 263 171.68 262.92 170.92C262.8 170.12 262.8 169.08 262.36 168.36C261.36 166.76 261.48 165.08 261 163.4C260.8 162.76 258.72 159 258.08 158.92C257.52 158.84 256.76 157.84 256.28 157.52C255.32 156.92 254.2 156.68 253.32 155.96C252.12 154.96 250.56 153.48 249.04 153.08C246.48 152.4 243.96 151.96 241.36 151.32C240 150.96 238.52 151.52 237.12 151.6C235.56 151.72 233.2 151.56 231.88 152.36C229.12 154.08 225.76 155.24 223.36 157.6C222.36 158.6 221.16 159.56 220.52 160.84C219.76 162.36 219.56 163.52 219.2 165.2C218.52 168.52 217.84 172.24 218.24 175.64C218.48 177.8 218.52 179 219.68 180.88C220.64 182.4 220.84 184.44 221.76 185.92C222.64 187.36 223.32 189 224.28 190.52C225.12 191.88 226.76 194.36 228.24 194.96C229.2 195.36 230 196.2 230.84 196.8C231.6 197.36 232.36 197.36 233.32 197.6C234.92 198 237.96 198.24 240.48 197.96" stroke="#171717" stroke-width="2" stroke-linecap="round"/>
<path d="M170 195C166.52 196.04 163.36 195.52 160.4 197.56C157.2 199.76 154 201.44 150.2 202.6C146.96 203.56 143.88 204.12 140.56 205.12C138.76 205.68 134.88 206.92 133 207" stroke="#171717" stroke-width="2" stroke-linecap="round"/>
<path d="M270 166C267.76 166.68 265.66 166.36 263.5 167" stroke="#171717" stroke-width="2" stroke-linecap="round"/>
<path d="M198.586 176.125C197.687 174.964 196.981 173.906 195.682 173.176C194.073 172.273 192.155 172.069 190.353 172.154C188.108 172.259 183.367 174.631 183.614 177.424C183.875 180.367 184.923 182.968 186.745 185.318C187.582 186.397 189.682 187.257 190.981 187.589C191.909 187.827 192.765 187.911 193.724 187.936C194.883 187.967 195.906 188.096 197.053 188.241C200.241 188.645 203.987 191.075 204.239 194.583C204.299 195.426 203.789 196.087 203.515 196.84C203.173 197.777 202.745 198.642 202.224 199.49C201.264 201.056 199.099 201.451 197.412 201.572C196.613 201.629 195.576 201.512 194.833 201.2C194.175 200.925 193.373 200.917 192.775 200.54C192.026 200.068 191.105 199.982 190.499 199.2C190.116 198.707 190.475 199.17 190.649 199.394C190.998 199.844 191.502 199.999 192.003 200.21C192.488 200.414 193.09 200.864 193.59 200.927C194.137 200.996 194.673 201.107 195.198 201.272C196.436 201.663 197.646 201.197 198.827 200.841C199.837 200.537 200.948 200.274 201.795 199.617C202.156 199.337 202.668 199.065 202.932 198.689C203.235 198.259 203.175 197.889 203.35 197.426C203.75 196.373 203.771 194.861 203.496 193.773C203.212 192.645 202.114 191.442 201.343 190.597C200.548 189.726 198.77 188.471 197.561 188.364C196.959 188.31 196.364 187.944 195.768 187.795C195.059 187.618 194.276 187.585 193.548 187.443C192.272 187.195 190.81 186.952 189.574 186.573C188.462 186.231 187.159 185.756 186.26 185.018C185.139 184.096 183.695 182.787 183.416 181.29C182.889 178.471 183.549 176.444 185.891 174.628C187.067 173.716 188.02 172.682 189.608 172.789C191.018 172.883 192.507 173.066 193.918 173.043C194.679 173.031 196.208 173.936 196.831 174.393C197.577 174.94 198.086 175.746 198.657 176.482" stroke="#171717" stroke-width="2" stroke-linecap="round"/>
<path d="M246.523 162.9C245.623 161.74 244.917 160.681 243.618 159.952C242.01 159.049 240.091 158.845 238.289 158.929C236.045 159.035 231.303 161.406 231.551 164.2C231.811 167.143 232.859 169.743 234.681 172.093C235.518 173.172 237.618 174.033 238.917 174.365C239.846 174.602 240.701 174.687 241.66 174.712C242.819 174.742 243.842 174.872 244.99 175.017C248.178 175.42 251.924 177.851 252.175 181.359C252.236 182.202 251.725 182.863 251.451 183.616C251.11 184.553 250.681 185.417 250.161 186.266C249.201 187.832 247.035 188.227 245.349 188.348C244.549 188.405 243.513 188.288 242.769 187.976C242.112 187.7 241.31 187.693 240.711 187.316C239.962 186.844 239.041 186.758 238.435 185.976C238.052 185.482 238.412 185.946 238.585 186.169C238.934 186.619 239.438 186.775 239.94 186.986C240.424 187.19 241.026 187.639 241.527 187.703C242.073 187.772 242.61 187.882 243.135 188.048C244.372 188.439 245.582 187.973 246.764 187.617C247.773 187.313 248.884 187.049 249.732 186.392C250.093 186.112 250.605 185.84 250.869 185.465C251.171 185.035 251.111 184.664 251.286 184.202C251.686 183.148 251.707 181.637 251.432 180.549C251.148 179.421 250.05 178.218 249.279 177.373C248.485 176.502 246.707 175.247 245.497 175.139C244.895 175.086 244.3 174.72 243.704 174.571C242.996 174.393 242.212 174.361 241.484 174.219C240.208 173.97 238.746 173.728 237.51 173.348C236.398 173.007 235.096 172.532 234.197 171.793C233.075 170.872 231.631 169.563 231.352 168.065C230.826 165.246 231.485 163.219 233.827 161.404C235.004 160.491 235.956 159.457 237.544 159.564C238.955 159.659 240.444 159.842 241.854 159.819C242.615 159.807 244.145 160.712 244.767 161.168C245.513 161.716 246.023 162.521 246.594 163.258" stroke="#171717" stroke-width="2" stroke-linecap="round"/>
<path d="M187.761 169.166C187.999 171.785 189.063 174.44 189.716 176.979C190.502 180.034 191.852 182.765 193.138 185.624C194.224 188.038 195.082 190.546 196.153 192.966C197.087 195.077 197.357 197.486 198.352 199.547C199.249 201.404 201.224 207.277 200.543 205.331C199.531 202.438 198.728 199.507 197.945 196.55C197.303 194.124 196.303 191.812 195.709 189.372C195.084 186.802 193.273 185.1 192.323 182.727C191.801 181.422 191.199 180.119 190.893 178.744C190.654 177.667 190.044 176.734 189.753 175.684C189.186 173.645 188.101 171.815 187.435 169.818" stroke="#171717" stroke-width="2" stroke-linecap="round"/>
<path d="M235.697 155.942C235.935 158.56 237 161.215 237.653 163.754C238.438 166.81 239.788 169.54 241.074 172.4C242.161 174.813 243.019 177.321 244.089 179.741C245.023 181.853 245.294 184.261 246.289 186.322C247.185 188.179 249.161 194.053 248.48 192.107C247.467 189.214 246.664 186.283 245.881 183.326C245.239 180.9 244.239 178.587 243.645 176.147C243.02 173.577 241.209 171.875 240.26 169.503C239.738 168.197 239.135 166.894 238.829 165.52C238.59 164.442 237.98 163.51 237.689 162.46C237.122 160.42 236.037 158.591 235.371 156.594" stroke="#171717" stroke-width="2" stroke-linecap="round"/>
<path d="M297.4 89.76C322.754 144.862 301.765 178.029 283.614 191M285.96 77.72L297.36 89.72M297.36 89.76L303.36 72.48" stroke="#171717" stroke-width="2" stroke-linecap="round" stroke-linejoin="round"/>
<path d="M147.48 241.8C127.24 248.12 83.1603 243.84 60.2003 181.12L59.8403 164.56M60.2403 181.12L43.8003 173.12" stroke="#171717" stroke-width="2" stroke-linecap="round" stroke-linejoin="round"/>
<path d="M303.76 72.1599C303.08 73.3999 302.92 75.4799 302.84 76.8799C302.68 78.9599 300.88 81.3199 300.12 83.2399C299.28 85.3599 298.88 87.6399 297.16 89.2399" stroke="#171717" stroke-width="2" stroke-linecap="round"/>
<path d="M283.771 188.897C286.162 187.835 286.974 185.221 288.43 183.349C289.737 181.668 292.104 180.636 293.648 179.149C295.858 177.021 297.042 174.313 298.81 171.866C299.838 170.442 300.208 168.525 300.989 166.962C301.92 165.1 302.772 163.252 303.397 161.285C304.62 157.442 306.254 153.955 307.01 149.959C307.969 144.892 307.955 139.624 308.616 134.504C308.975 131.724 308.673 128.742 308.673 125.931" stroke="#171717" stroke-width="2" stroke-linecap="round"/>
<path d="M308.415 125.931C308.415 124.464 308.415 122.997 308.415 121.53C308.415 118.778 308.177 116.594 307.526 113.931C306.577 110.045 305.288 105.86 303.254 102.39C302.318 100.794 301.86 98.8455 301.061 97.1573C300.22 95.3827 298.951 93.6803 297.835 92.0678C296.736 90.4807 294.739 89.6014 293.591 88.1252C292.638 86.8997 291.712 85.733 290.867 84.4407C289.345 82.1119 287.485 79.9544 285.964 77.6738" stroke="#171717" stroke-width="2" stroke-linecap="round"/>
<path d="M147.16 240.6C144 242.28 141.44 243.68 137.8 243.84C136.12 243.92 134.52 243.4 132.88 243.28C131.08 243.12 129.28 242.96 127.52 242.68C125.08 242.24 122.16 242.8 119.88 241.8C117.16 240.64 114.24 239.84 111.52 239C106.2 237.36 101.28 236 96.5199 232.92C95.3199 232.16 93.8399 231.52 92.5599 230.92C91.1199 230.28 90.7199 229.48 89.7199 228.32C87.9999 226.28 86.04 224.08 84.64 221.8C83.44 219.8 80.5999 218.52 79.3199 216.44C78.6799 215.4 77.3599 213.8 76.3999 213.08C75.1999 212.2 74.4799 210.84 73.2399 210.04C70.1999 205.48 68.4399 200.8 65.9199 196.08C65.2799 194.88 64.6399 193.6 64.3999 192.28C64.1599 191 61.7199 189.92 61.2799 188.72C60.8799 187.72 61.3199 186.44 60.7199 185.32C60.1999 184.32 59.5599 182.36 59.5599 181.24C59.5999 178.36 58.1999 175.68 58.7199 172.68C59.1599 170.08 58.8399 167.96 58.7599 165.48" stroke="#171717" stroke-width="2" stroke-linecap="round"/>
<path d="M43.6802 173.56C45.0402 173.96 46.6002 175.32 47.6802 176.28C49.2402 177.64 52.2002 178.04 54.0802 178.92C56.1602 179.84 58.0402 181.16 60.4002 181.08" stroke="#171717" stroke-width="2" stroke-linecap="round"/>
<path d="M94.7089 130.645C94.5426 130.624 94.2339 129.027 94.1294 128.771C93.4721 127.157 92.7928 125.744 92.3367 124.044C91.5798 121.223 90.9604 118.238 90.9604 115.289C90.9604 112.296 91.3423 109.713 92.5087 106.932C93.1305 105.449 93.9275 103.893 94.7089 102.486C94.9808 101.997 95.5228 100.545 95.723 101.671C96.4944 106.011 96.3387 110.681 96.3387 115.081C96.3387 118 96.1757 120.931 96.1757 123.836C96.1757 124.276 96.2103 127.208 96.5831 125.493C97.4638 121.442 98.1407 117.379 98.4211 113.243C98.6828 109.383 99.1093 105.429 99.1093 101.563C99.1093 101.326 99.2377 99.4899 99.2722 100.458C99.3232 101.886 99.6845 103.358 99.9241 104.768C100.523 108.29 100.74 111.878 101.309 115.407C101.471 116.408 101.46 117.429 101.681 118.422C101.836 119.123 101.895 119.416 102.079 118.422C103.188 112.431 104.87 106.546 105.13 100.422C105.242 97.7952 105.201 95.1694 105.302 92.5446C105.322 92.0309 105.465 93.0114 105.465 93.1693C105.465 94.7395 105.966 96.3093 106.108 97.8775C106.419 101.297 107.095 104.714 107.095 108.154C107.095 109.343 107.095 110.532 107.095 111.721C107.095 111.789 107.097 113.357 107.421 112.79C108.001 111.775 109.31 111.081 110.029 110.11C111.453 108.184 111.89 105.864 112.437 103.591C112.897 101.68 112.799 99.756 112.799 97.8051C112.799 95.7346 112.757 93.6939 112.473 91.6391C112.406 91.152 112.332 90.5063 112.111 90.0637C112.017 89.8754 111.3 91.6595 111.206 91.8927C110.576 93.4555 110.275 95.317 110.201 96.9902C110.142 98.3016 110.04 99.3649 111.007 100.331C111.789 101.113 113.165 103.102 114.429 103.102C114.885 103.102 115.245 102.483 115.588 102.196C116.833 101.159 118.061 100.255 118.82 98.7829C120.25 96.0126 118.209 92.3928 117.652 89.611C117.536 89.0313 117.429 88.5844 117.2 89.3303C116.771 90.7223 116.493 92.1907 116.385 93.6492C116.147 96.8612 115.733 100.04 115.733 103.265C115.733 104.104 116.293 103.309 116.493 103.002C117.712 101.134 119.799 99.9083 121.011 97.9771C122.481 95.637 122.894 92.4473 123.429 89.774C123.596 88.9398 123.625 88.8515 124.117 89.7468C124.585 90.5978 125.099 91.7751 125.176 92.7438C125.253 93.6988 125.185 94.6831 125.185 95.6411C125.185 96.4994 124.985 96.9237 125.385 95.8584C126.105 93.9378 126.829 92.0109 127.549 90.0909C127.686 89.7232 127.739 89.0177 128.119 89.4933C128.496 89.9646 129.845 90.2485 130.401 90.3534C131.199 90.504 132.029 90.8786 132.845 90.8786" stroke="#FFD424" stroke-width="4" stroke-linecap="round"/>
<path d="M99.1938 134.195C99.1938 133.035 99.2378 131.93 99.4067 130.782C99.4696 130.354 99.724 127.117 100.258 127.117C100.556 127.117 101.545 129.153 101.748 129.434C102.303 130.206 103.087 130.813 103.805 131.421C104.439 131.957 104.654 131.75 105.019 131.066C105.727 129.739 106.309 128.456 106.784 127.03C107.501 124.881 108.084 122.761 108.629 120.583C108.795 119.919 108.983 119.164 108.983 120.291C108.983 121.282 109.221 122.521 109.488 123.475C109.657 124.08 109.817 124.666 110.118 125.194C110.608 126.05 111.563 124.383 111.75 124.106C112.53 122.951 112.991 121.588 113.665 120.37C114.305 119.215 114.908 118.068 115.447 116.862C116.381 114.769 116.983 112.386 117.559 110.163C117.655 109.794 117.776 109.513 117.914 109.169C118.019 108.906 117.909 109.738 117.93 110.021C118.075 111.99 118.347 113.987 118.347 115.964C118.347 116.658 118.476 117.332 118.489 118.021C118.496 118.401 118.425 118.807 118.6 119.156C118.727 119.41 119.242 117.633 119.34 117.391C120.586 114.311 121.798 111.141 122.43 107.869C122.767 106.124 122.819 104.282 123.203 102.556C123.415 101.599 123.677 103.482 123.707 103.723C123.992 105.976 124.708 108.18 124.732 110.47C124.734 110.693 124.638 113.296 125.016 112.74C125.604 111.873 125.999 110.804 126.466 109.871C127.422 107.959 128.371 106.051 129.099 104.038C129.69 102.403 129.836 100.842 130.092 99.1513C130.104 99.0687 130.135 98.0794 130.265 98.0794C130.265 98.0794 130.265 98.465 130.265 98.4735C130.272 98.7985 130.336 99.1134 130.375 99.4351C130.592 101.195 130.793 103.025 130.833 104.795C130.838 105.023 130.869 105.493 131.116 105.047C131.623 104.136 132.253 103.33 132.709 102.383C134.018 99.6618 134.972 97.0299 135.798 94.1383C135.865 93.9065 135.895 93.6175 136.051 93.4447C136.174 93.3075 136.408 93.1192 136.114 93.3344C134.537 94.4864 133.024 95.9176 131.542 97.1966C130.387 98.1935 129.224 99.4592 127.853 100.144" stroke="#171717" stroke-width="4" stroke-linecap="round"/>
<path d="M95.0803 137.08C89.6803 127.64 83.6403 106.88 98.3603 93.72C112.44 81.12 132 86.56 139.04 90.52" stroke="#171717" stroke-width="2" stroke-linecap="round" stroke-linejoin="round"/>
<path d="M95.1332 90.6826C110.671 78.278 120.809 65.1431 117.777 61.345C114.745 57.5468 99.6905 64.5236 84.1526 76.9282C68.6146 89.3327 58.4767 102.468 61.5089 106.266C64.5411 110.064 79.5952 103.087 95.1332 90.6826Z" stroke="#171717" stroke-width="2"/>
<path d="M121.392 117.803C133.837 105.162 142.1 93.1179 139.848 90.9018C137.597 88.6857 125.684 97.1369 113.24 109.778C100.796 122.419 92.5329 134.463 94.7841 136.679C97.0352 138.895 108.948 130.444 121.392 117.803Z" stroke="#171717" stroke-width="2"/>
<path d="M89.4001 83.6398L98.3601 93.7198" stroke="#171717" stroke-width="2" stroke-linecap="round" stroke-linejoin="round"/>
<path d="M137.56 90.7999C136.68 90.4799 135.4 90.8399 134.64 90.3599C133.44 89.5999 131.92 88.9999 130.56 88.5599C129 88.0399 127.4 87.5999 125.92 87.1199C122.64 86.0399 119.08 87.7599 115.76 87.5999C114.8 87.5599 113.8 87.5999 112.8 87.4799C112.08 87.3599 111.08 87.0799 110.32 87.2799C109.52 87.4799 108.72 87.6399 107.92 87.9199C106.64 88.3999 106.16 89.3999 105.12 90.1599C102.08 92.4799 99.8 95.6799 96.84 97.8799C95.48 98.9199 94.4 100.64 93.2 101.96C92 103.28 91.08 105 90.56 106.68C89.44 110.36 89.76 114.24 89.64 117.96C89.52 121.24 91.48 124.68 92.64 127.76C93.84 130.96 94.52 134.08 95.72 137.28" stroke="#171717" stroke-width="2" stroke-linecap="round"/>
<path d="M89.6401 83.2C90.0401 84.28 90.3201 85.84 91.1601 86.64C91.8401 87.32 92.4401 87.96 93.1601 88.64C94.8801 90.24 97.0001 91.32 97.8801 93.64" stroke="#171717" stroke-width="2" stroke-linecap="round"/>
<path d="M96.6683 87.7807C92.6442 89.5036 89.425 92.0053 85.8321 94.3912C83.5314 95.9368 81.9 97.8428 79.2567 98.934C78.0778 99.4332 76.9512 100.311 75.7735 100.852C74.4338 101.483 73.0879 101.902 71.8765 102.698C70.0196 103.935 67.2418 104.65 65.1694 105.556C64.4378 105.873 63.082 105.955 62.7718 105.204C62.2823 103.951 63.0701 102.746 63.484 101.424C64.0475 99.5919 65.2354 97.9945 66.1702 96.1934C66.9493 94.6925 67.7108 93.9945 68.9522 92.8178C70.2733 91.5543 71.8897 90.5356 73.2544 89.3553C74.7798 88.0436 76.263 86.6909 77.9168 85.5443C78.5623 85.1031 79.2366 84.2387 79.7127 83.6335C80.3883 82.8113 81.318 82.235 82.0795 81.5369C83.1999 80.4483 84.5248 79.3114 85.7735 78.3879C87.3439 77.2016 88.9815 75.5065 90.3401 74.1152C91.6176 72.7686 93.0345 71.9668 94.484 70.8685C96.5765 69.2446 98.4946 67.2879 100.972 66.1594C105.235 64.176 109.658 62.0191 114.137 60.3672C114.667 60.1828 116.111 60.3093 116.649 60.4201C117.685 60.6431 117.953 61.3531 118.265 62.1885C118.709 63.2735 118.111 63.9245 117.73 64.9914C117.31 66.1017 116.898 67.4652 116.145 68.4586C113.452 72.085 109.909 74.765 106.416 77.7393C101.719 81.7624 98.2834 86.7197 93.3369 90.6657" stroke="#171717" stroke-width="2" stroke-linecap="round"/>
<path d="M96.0911 136.072C96.0911 134.057 97.4578 132.262 98.4051 130.578C98.9645 129.583 99.8443 128.749 100.548 127.845C101.422 126.721 102.298 125.609 103.29 124.588C105.108 122.719 106.516 120.542 108.252 118.588C109.417 117.278 110.2 115.664 111.309 114.303C112.564 112.762 113.774 111.185 114.956 109.589C116.262 107.826 117.941 106.253 119.327 104.533C121.092 102.341 123.36 100.543 125.364 98.5712C126.78 97.1783 128.503 96.4647 130.031 95.2763C130.827 94.657 131.806 94.4411 132.64 93.905C134.11 92.9597 137.286 91.5 139 91.5" stroke="#171717" stroke-width="2" stroke-linecap="round"/>
<path d="M140.33 92.0435C140.33 94.5155 140.094 96.8669 139.367 99.2392C138.926 100.679 137.807 102.071 136.953 103.298C136.151 104.451 135.185 105.563 134.492 106.789C133.912 107.815 132.969 108.674 132.145 109.498C130.86 110.782 129.551 112.199 128.052 113.229C125.719 114.833 123.858 117.346 121.311 118.619C120.58 118.985 119.888 119.425 119.157 119.79C118.541 120.098 118.01 120.842 117.459 121.268C116.349 122.124 115.208 123.016 114.155 123.943C113.627 124.407 113.166 124.938 112.617 125.387C112.124 125.791 111.761 126.345 111.253 126.711C109.752 127.792 108.506 129.225 106.986 130.296C106.096 130.923 105.14 131.458 104.218 132.035C103.51 132.477 102.866 133.029 102.111 133.392C100.143 134.34 98.1817 135.275 96.634 136.823" stroke="#171717" stroke-width="2" stroke-linecap="round"/>
<path d="M252.36 195.48C257.76 193.48 262.36 195.48 262.36 201.08C262.36 205.08 257.12 207.6 252.36 209.72M252.36 209.72C242.24 214.16 223.92 217.36 201.36 213.28C168.16 207.28 158.16 242.48 201.36 259.88C244.56 277.28 270.96 236.92 252.36 209.72Z" stroke="#171717" stroke-width="2" stroke-linecap="round" stroke-linejoin="round"/>
<path d="M199.96 212.88L183.16 249.28M223.36 215.68L220.5 263.5M242 213.5L251.56 249.28" stroke="#171717" stroke-width="2" stroke-linecap="round" stroke-linejoin="round"/>
<path d="M201.4 267.32C205.2 270 216.16 274.72 229.6 272.32" stroke="#171717" stroke-width="2" stroke-linecap="round" stroke-linejoin="round"/>
<path d="M223.72 216.36C223.72 217.2 223.72 218 223.72 218.84C223.72 219.76 223.48 220.56 223.44 221.44C223.4 222.24 223.16 222.96 223.16 223.76C223.16 224.6 223.04 225.4 223.04 226.2C222.96 228.36 223.44 230.44 223.44 232.52" stroke="#171717" stroke-width="2" stroke-linecap="round"/>
<path d="M223.44 232.64C223.44 233.92 223.32 235.2 223.32 236.48C223.32 238.08 223.12 239.64 223.04 241.24C223 242.4 223.12 243.96 222.84 245.08C222.64 245.84 222.64 246.8 222.64 247.56C222.64 248.56 222.4 249.56 222.36 250.52C222.32 251.92 221.8 253.24 221.8 254.64C221.8 255.84 221.52 257.04 221.52 258.2C221.52 259.28 220.5 262.42 220.5 263.5" stroke="#171717" stroke-width="2" stroke-linecap="round"/>
<path d="M251.5 247.5C251.5 246.5 250.48 242.8 250.04 242C249.84 241.64 249.88 241.16 249.68 240.76C249.48 240.32 249.36 239.88 249.16 239.48C249.04 239.2 248.88 238.44 248.84 238.12C248.8 237.4 248.56 236.64 248.44 235.92C248.28 234.8 247.52 233.84 247.32 232.72C246.96 230.72 246.8 228.72 246.24 226.76C245.76 225.04 244.72 223.44 244.56 221.64C244.44 220.2 244.44 218.64 244.12 217.2C243.96 216.48 243.76 215.8 243.76 215.08C243.76 214.44 243.56 214.24 243.36 213.64" stroke="#171717" stroke-width="2" stroke-linecap="round"/>
<path d="M184.099 247.474C184.099 245.898 185.393 244.434 185.89 242.997C186.363 241.631 187.061 240.562 187.946 239.415C188.83 238.269 189.741 237.205 190.483 235.949C191.253 234.646 191.632 233.081 192.158 231.688C192.799 229.991 193.288 228.236 193.949 226.548C194.523 225.081 195.239 223.671 195.922 222.253C196.289 221.491 196.713 220.774 197.083 220.014C197.393 219.376 197.515 218.702 197.829 218.074C198.102 217.529 198.408 217.047 198.84 216.615C199.191 216.264 199.466 215.539 199.918 215.388" stroke="#171717" stroke-width="2" stroke-linecap="round"/>
<path d="M200.32 267.16C200.24 267.16 200.52 267.16 200.6 267.2C200.88 267.32 201.2 267.48 201.48 267.6C202.04 267.88 202.44 268.28 202.92 268.64C203.88 269.4 204.84 269.72 206.04 270.04C207.12 270.28 208.16 270.32 209.24 270.72C210 271 210.8 271.36 211.6 271.52C213.44 271.92 215.28 272.6 217.16 272.76C217.8 272.8 218.44 273.12 219.08 273.12C219.76 273.12 220.44 273.2 221.12 273.2C221.72 273.2 222.28 273.12 222.88 273.12C223.6 273.12 228.5 273.12 229.5 272.5" stroke="#171717" stroke-width="2" stroke-linecap="round"/>
<path d="M252.2 195.04C256.12 195.04 260.4 195.48 261.92 199.56C262.72 201.68 262.28 203.2 260.32 204.4C259.44 204.96 258.72 206.12 257.6 206.36C255.96 206.72 254.16 207.88 252.64 208.56C245.72 211.76 237.92 211.64 230.56 212.76C227.32 213.24 224.16 214.04 220.96 214.72C217.68 215.44 214.4 215.44 211 215.44C209.24 215.44 207.48 215.56 205.8 215.16C204.12 214.76 202.52 214.08 200.84 213.88C197.56 213.52 194.56 213 191.24 213C188.84 213 185.28 212.4 183.16 213.68C182.56 214.04 181.64 214.4 180.96 214.56C180.08 214.76 179.48 215.44 178.68 215.68C177.72 215.96 176.84 217.4 176.2 218.12C175.56 218.8 175.04 219.72 174.56 220.56C174.04 221.52 174.16 222.44 174.16 223.56C174.16 226.04 173.92 228.4 173.92 230.88C173.92 235.8 175.68 240.96 178.36 245.08C179.88 247.4 182.32 249.72 184.56 251.36C187.12 253.16 189.64 254.28 192.48 255.44C196.64 257.16 201.08 258.6 205.24 260.4C207.44 261.36 209.84 263.04 212.28 263.4C213.64 263.6 215.28 263.92 216.56 264.4C217.92 264.92 220.12 264.52 221.6 264.52C223.68 264.52 225.88 264.72 227.76 263.8C228.64 263.36 229.52 262.88 230.24 262.2C230.8 261.68 231.76 261.12 232.52 260.96C233.44 260.76 234.16 260.76 235 259.52C237.24 258.44 239.12 257.68 241.44 256.64C243.2 255.88 244.88 254 246.48 252.96C246.84 252.72 247.92 252.28 248.12 251.96C248.32 251.64 248.84 251.16 249.16 250.96C249.92 250.52 250 249.48 250.36 248.76C251.32 246.68 252.44 245.08 253.92 243.32C255.6 241.32 256.96 239 257.4 236.48C257.8 234.24 258.32 231.84 258.32 229.52C258.32 228.56 258.32 227.64 258.32 226.68C258.32 225.4 257.72 224.2 257.64 222.96C257.56 221.96 256.92 220.28 256.4 219.36C255.72 218.16 255.12 216.92 254.52 215.68C254.28 215.16 253.84 213.76 253.44 213.48C253.12 213.24 252.44 211.88 252.44 211.48" stroke="#171717" stroke-width="2" stroke-linecap="round"/>
<path d="M283 266.32C303 252.4 341.64 236.52 336.2 284.52L355.2 277.52" stroke="#171717" stroke-width="2" stroke-linecap="round" stroke-linejoin="round"/>
<path d="M172.4 301.72C159.68 312 139.56 342.48 161 382.32H140.8" stroke="#171717" stroke-width="2" stroke-linecap="round" stroke-linejoin="round"/>
<path d="M172 301.5C169.9 304.04 165.16 308.92 163.2 312.4C161.28 315.8 158 320.08 155.64 323.04C153.28 325.96 152.08 331.56 152.08 335.44C152.08 339.64 151.32 344.56 151.32 349.16C151.32 354 153.28 359 153.28 363.6C153.28 368.56 155.4 372.24 157.56 376.56C158.48 378.44 160.16 381.36 160.16 383.56C160.16 384.8 153.08 382.68 152.44 382.52C148.08 381.56 142.48 382.48 138 382.48" stroke="#171717" stroke-width="2" stroke-linecap="round"/>
<path d="M283 265C284.64 264.16 291.44 259.96 292.8 258.88C295.4 256.8 299.88 256.48 302.64 254.28C308.32 249.72 320 250.52 326.68 252.4C331.16 253.68 334.88 256.48 334.88 261.32C334.88 265 333.56 271.72 335.04 275.04C335.68 276.44 336.2 289.64 338.6 284.32C340.08 281.04 350.92 277.2 354.6 277.2" stroke="#171717" stroke-width="2" stroke-linecap="round"/>
<path d="M310.263 218.197C310.297 218.071 310.415 217.973 310.497 217.878C310.858 217.467 311.214 217.055 311.596 216.663C312.276 215.964 312.96 215.278 313.705 214.649C314.138 214.282 314.507 213.848 314.951 213.494C315.312 213.205 315.292 213.589 315.322 213.918C315.494 215.855 315.474 217.848 314.632 219.624C314.331 220.261 314.005 220.94 313.879 221.635C313.812 222.003 314.697 221.583 314.844 221.521C315.737 221.144 316.625 220.426 317.385 219.832C317.79 219.517 318.246 219.235 318.616 218.878C318.85 218.653 319.145 218.481 319.328 218.212C319.579 217.842 319.49 217.396 319.669 217.038" stroke="#FFD424" stroke-width="4" stroke-linecap="round"/>
<path d="M114.845 305.692C115.251 305.733 115.658 306.231 115.99 306.444C116.758 306.936 117.535 307.432 118.215 308.044C118.478 308.28 118.763 308.676 118.919 308.192C119.081 307.688 119.015 307.12 119.015 306.597C119.015 306.289 119.138 305.591 119.408 305.456" stroke="#C6C6C8" stroke-width="4" stroke-linecap="round"/>
<path d="M118.4 290.32C118.92 297.36 120.08 305.72 106.64 306.28C111.72 306.12 118.4 306.28 118.4 320.56C117.84 315.6 117 306.28 130.72 306.28C125.12 305.16 118.4 311.6 118.4 290.32Z" stroke="#171717" stroke-width="2" stroke-linecap="round" stroke-linejoin="round"/>
<path d="M331.76 134C332.28 141.04 333.44 149.4 320 149.96C325.08 149.8 331.76 149.96 331.76 164.24C331.2 159.28 330.36 149.96 344.08 149.96C338.48 148.84 331.76 155.28 331.76 134Z" stroke="#171717" stroke-width="2" stroke-linecap="round" stroke-linejoin="round"/>
<path d="M315 223.92C318.535 223.92 321.4 221.055 321.4 217.52C321.4 213.985 318.535 211.12 315 211.12C311.465 211.12 308.6 213.985 308.6 217.52C308.6 221.055 311.465 223.92 315 223.92Z" stroke="#171717" stroke-width="2"/>
<path d="M308.212 219.551C308.212 218.131 308.15 216.815 308.528 215.454C309.038 213.616 310.644 212.315 312.365 211.641C314.086 210.968 316.442 210.342 318.226 211.072C320.209 211.883 321.096 214.28 321.388 216.25C321.643 217.972 321.932 220.55 320.616 221.941C318.946 223.707 316.721 223.989 314.42 223.989C312.846 223.989 311.795 222.888 310.886 221.776C310.549 221.364 310.153 220.923 309.78 220.55C309.444 220.214 309.132 219.271 308.781 219.096" stroke="#171717" stroke-width="2" stroke-linecap="round"/>
</svg>
