<svg width="400" height="444" viewBox="0 0 400 444" fill="none" xmlns="http://www.w3.org/2000/svg">
<path d="M215.69 400.55C214.9 400.55 214.1 400.48 213.32 400.33L195.27 396.92C189.15 395.78 184.68 390.4 184.68 384.15V320.35C179.07 321.36 173.46 321.86 167.96 321.86C164.79 321.86 161.61 321.69 158.51 321.35C156.29 321.11 154.06 320.78 151.84 320.38V373.37L159.25 374.77C166.3 376.11 170.94 382.92 169.61 389.96C168.45 396.09 163.08 400.55 156.84 400.55C156.09 400.55 155.34 400.48 154.59 400.35L136.42 396.92C130.3 395.78 125.83 390.4 125.83 384.15V311.56C115.39 306.15 105.97 298.66 98.4803 289.79C80.7803 268.85 72.5203 240.58 73.9303 205.76C67.1803 189.23 65.3303 173.81 68.3803 159.81C63.7803 159.6 59.6403 156.98 57.4803 152.87C55.8703 149.83 55.5403 146.31 56.5603 142.99C57.6003 139.65 59.8503 136.94 62.9203 135.32C67.1603 133.08 71.5803 131.94 76.0403 131.94C76.5303 131.94 77.0303 131.95 77.5203 131.98L77.9203 130.83L82.7903 132.7H82.8203C85.7003 129.79 88.8503 127.31 92.0803 125.42C92.6903 122.98 93.5103 120.6 94.5303 118.3C93.5103 118.23 92.5303 118.09 91.6103 117.88C86.8203 117.14 82.9003 113.83 81.3503 109.21C80.8303 107.89 80.5203 106.48 80.4303 105.02C79.0903 96.96 79.4803 88.46 81.4603 80.84C80.0203 80.97 78.6603 81.03 77.3903 81.03C64.6003 81.03 60.0903 74.43 58.5403 70.49C54.8903 61.23 58.4604 47.08 96.1303 32.24C106.01 28.35 115.83 25.6 123.76 24.52C126.33 24.17 128.71 24 130.85 24C143.64 24 148.15 30.62 149.7 34.57C151.57 39.32 151.82 46.29 144.08 54.17C150.11 57.12 155.02 60.81 158.02 63.75C159.41 64.89 160.57 66.28 161.43 67.86C162.79 70.39 164.15 74.67 162.11 79.94C164.16 79.71 165.79 79.57 166.9 79.5L167.31 79.47H167.72C187.27 79.47 204.65 82.89 219.38 89.63C222.45 90.49 225.45 90.96 227.85 90.96C230.61 90.96 231.96 90.39 232.52 90.05C234.54 88.81 236.88 88.15 239.28 88.15C243.78 88.15 248.04 90.54 250.38 94.39C252.19 97.35 252.74 100.86 251.9 104.25C251.29 106.76 249.96 109 248.08 110.72C257.15 121.1 263.12 133.51 264.66 145.4C265.14 149.13 263.99 152.88 261.5 155.69C261.44 155.76 261.38 155.83 261.32 155.89C267.58 170.54 271.68 186.83 273.23 203.19C273.33 204.26 273.42 205.35 273.5 206.46C273.97 207.31 274.34 208.2 274.61 209.13C279.54 226.22 288.14 237.55 293.27 238.25C293.45 238.27 293.63 238.29 293.82 238.29C297.46 238.29 304.45 233.28 313.13 219.23L313.24 219.05L313.6 218.52L323.13 205.18C325.58 201.77 329.53 199.74 333.71 199.74C336.45 199.74 339.07 200.58 341.29 202.18C344.08 204.17 345.95 207.16 346.53 210.59C346.7 211.65 346.75 212.71 346.67 213.75C351.67 215.56 355.25 220.36 355.25 225.98C355.25 233.15 349.42 238.98 342.25 238.98H331.26C319.53 255.77 306.94 264.28 293.83 264.28C292.48 264.28 291.11 264.19 289.76 264C282.27 262.98 275.1 259 268.73 252.39C268.29 253.59 267.83 254.75 267.35 255.85C256.89 279.72 235.81 300.59 210.65 312.12V373.37L218.06 374.77C225.11 376.1 229.75 382.92 228.42 389.96C227.26 396.09 221.89 400.55 215.65 400.55H215.69Z" fill="white"/>
<path d="M242.36 146.84C263.56 182.72 264.68 229.56 255.48 250.48C239.84 286.16 198.48 312.48 159.92 308.28C123.24 304.28 83.5599 274.76 86.9999 204.6" stroke="#171717" stroke-width="2" stroke-linecap="round"/>
<path d="M194.8 193.399C201.2 193.799 211.04 197.079 199.2 206.999" stroke="#171717" stroke-width="2" stroke-linecap="round" stroke-linejoin="round"/>
<path d="M240.88 146.6C242.36 150.84 243.88 155.04 246.48 158.32C249.52 162.16 251.32 168.52 253.8 173.04C256.16 177.4 259.8 182.36 259.8 187.44C259.8 190.92 261.96 194.44 261.96 197.96C261.96 201.28 261.96 204.6 261.96 207.92C261.96 215.04 261.6 223.2 258.16 229.52C256.84 231.92 257.72 237.28 257.44 240.04C257.12 243.12 254.88 246.12 254.56 248.92C253.84 255.2 247.08 263.2 244.28 268.88C238 281.64 228.84 289.2 216.76 296.04C213.64 297.8 210.56 298.12 207.52 299.68C204.76 301.08 200.52 304.04 197.72 304.36C191.32 305.12 183.12 308.92 176.84 309.32C172 309.6 167.36 312.16 162.36 309.32C157.6 306.64 147.48 305.8 142.2 305.48C131.56 304.88 122.28 295.24 114.44 288.88C110.8 285.92 106.52 275.72 104.2 271.28C101.6 266.32 99.3599 261.84 95.6399 257.64C86.2399 247.04 87.7599 232.52 87.7599 218.56C87.7599 214 87.3599 209.2 87.7599 204.6" stroke="#171717" stroke-width="2" stroke-linecap="round"/>
<path d="M194 193C195.862 193 197.729 193.074 199.514 193.68C200.272 193.938 200.888 194.536 201.508 195.018C202.234 195.583 202.634 196.477 202.983 197.308C203.467 198.463 203.74 199.469 203.74 200.737C203.74 201.761 202.849 202.837 202.11 203.488C201.129 204.351 200.081 205.349 199.355 206.438" stroke="#171717" stroke-width="2" stroke-linecap="round"/>
<path d="M88.5722 201.556C87.8481 199.927 87.2454 198.209 86.5053 196.564C86.0165 195.478 83.9834 192.594 84.8736 193.385C86.3697 194.715 87.7032 196.203 89.3336 197.41C89.6905 197.675 92.7123 200.193 91.3884 198.704C88.4819 195.434 87.2319 191.261 85.3087 187.414C84.1029 185.003 82.5238 182.976 81.5013 180.477C80.8511 178.887 81.3074 179.912 81.876 180.67C83.8083 183.246 86.3329 185.336 88.0887 188.067C89.3322 190.002 90.5816 192.564 92.2707 194.159C92.6421 194.51 92.7594 194.252 92.6575 193.845C92.2954 192.396 91.2111 191.559 90.4456 190.339C88.6193 187.431 87.4696 183.754 86.5174 180.465C86.008 178.705 85 177.204 84.3901 175.497C84.2665 175.151 83.7618 174.168 83.9066 174.506C84.2655 175.343 84.5943 176.039 85.1395 176.802C88.1935 181.078 91.425 185.41 94.8815 189.36C95.3848 189.936 96.0745 190.601 96.6704 191.065C96.8982 191.242 96.021 189.422 95.921 189.276C94.4191 187.085 93.3236 184.833 92.2707 182.398C90.6957 178.756 89.4403 175.058 87.4843 171.581C86.5268 169.878 85.9074 168.001 84.8736 166.359C84.7039 166.09 83.7233 164.204 84.3538 165.465C86.2138 169.185 90.1815 171.613 92.8872 174.675C94.4373 176.429 95.7054 178.368 97.1055 180.235C97.8571 181.237 98.7455 182.362 99.1844 183.547C99.4422 184.243 99.7657 184.976 100.224 185.565C101.186 186.802 98.6903 184.935 98.3625 184.538C96.6393 182.452 94.8534 180.233 93.5882 177.83C91.8884 174.6 91.2095 170.732 90.4335 167.205C90.1316 165.833 89.6347 164.527 89.3336 163.156C89.052 161.873 88.8169 160.559 88.1854 159.397C87.8146 158.715 87.7409 157.584 87.2184 157.004C85.7647 155.389 85.8271 158.067 86.179 159.034C86.4443 159.764 86.5239 160.567 86.7229 161.319C87.1173 162.809 87.7814 164.209 88.137 165.706C88.3411 166.566 88.5505 167.28 88.9589 168.051C89.0194 168.166 88.292 166.936 88.137 166.637C86.4882 163.457 86.968 158.541 87.9678 155.167C88.2827 154.104 88.3546 153.171 88.3546 152.072C88.3546 151.717 88.2987 151.437 88.4634 151.964C88.8287 153.133 89.1044 154.165 89.7083 155.263C91.2959 158.15 93.404 160.635 95.2078 163.374C96.7966 165.786 99.0203 167.685 100.538 170.13C101.696 171.995 103.057 173.732 104.188 175.618C104.8 176.637 105.135 177.894 105.856 178.821C106.248 179.324 106.115 180.11 106.364 180.67C106.447 180.856 106.492 181.455 106.388 181.637C105.916 182.463 103.379 179.641 103.149 179.365C98.8852 174.237 93.6952 169.842 91.0741 163.591C90.6989 162.697 90.3498 161.8 89.9984 160.896C89.6728 160.059 90.1518 161.944 90.2643 162.177C91.9719 165.719 93.792 169.26 95.921 172.572C97.4921 175.016 99.4342 177.011 101.191 179.256C101.597 179.775 102.796 181.105 103.584 181.105C104.265 181.105 105.87 178.771 106.412 178.289C107.158 177.626 108.258 176.913 109.132 176.427C109.534 176.204 109.693 176.368 109.325 175.859C108.353 174.513 107.036 173.435 106.195 171.992C103.027 166.555 101.491 160.404 99.2811 154.562C98.4582 152.388 97.4194 150.259 96.4044 148.156C95.8533 147.015 95.3211 145.881 94.5431 144.881C94.1223 144.34 93.6225 143.852 93.3102 144.554C92.8721 145.54 92.2564 146.092 91.5093 146.839C91.3246 147.024 89.9395 148.631 90.1434 148.857C90.2707 148.999 90.6328 149.047 90.7961 149.123C91.7545 149.57 92.36 150.556 92.9718 151.371C95.3447 154.535 97.6965 157.666 99.8371 160.993C100.808 162.501 101.933 163.963 102.665 165.61C102.808 165.932 103.632 167.1 102.907 166.939C101.469 166.62 100.364 164.551 99.6679 163.434C98.1338 160.975 96.8807 158.337 95.3166 155.904C94.3521 154.404 93.418 152.676 92.2224 151.347C92.0373 151.142 91.982 150.841 92.0653 150.55C92.2019 150.071 93.4919 151.007 93.6245 151.081C94.1844 151.397 98.145 153.583 98.145 152.906C98.145 151.938 97.4904 151.235 97.0571 150.417C96.4286 149.229 96.0211 147.935 95.8001 146.609C95.5586 145.16 95.5342 140.74 95.5342 142.21C95.5342 143.818 95.8047 145.184 95.4858 146.778C95.2288 148.064 95.5889 151.986 95.3045 150.707C94.8687 148.745 93.8927 146.933 93.4069 144.99C93.1483 143.955 94.2516 144.203 94.8815 143.853C95.7421 143.375 95.8472 141.905 96.0781 141.073C96.2542 140.44 96.1735 139.127 96.6704 140.469C96.9399 141.197 97.4883 141.878 98.0724 142.379C99.6714 143.749 101.437 144.946 103.052 146.307C106.573 149.272 109.872 152.819 112.492 156.617C114.243 159.155 115.987 161.684 116.807 164.691C116.985 165.345 117.476 166.549 116.275 165.513C114.101 163.639 112.316 161.379 110.546 159.131C108.508 156.543 106.148 154.243 104.14 151.637C102.723 149.798 101.513 147.922 99.8855 146.295C99.3896 145.799 97.9862 143.839 98.8218 145.57C100.525 149.097 101.772 152.814 103.536 156.303C105.124 159.445 107.144 162.172 108.926 165.175C109.674 166.434 110.179 167.875 111.078 169.03C111.333 169.359 111.588 169.913 110.933 169.526C109.626 168.754 108.683 167.573 107.5 166.649C106.41 165.797 103.555 162.822 104.333 163.966C105.507 165.692 106.996 167.301 108.322 168.922C109.252 170.058 110.326 171.741 110.764 173.164C110.806 173.303 111.392 174.284 111.392 173.877C111.392 172.509 110.273 171.123 109.627 170.009C107.806 166.866 106.994 163.292 105.24 160.134C104.579 158.944 107.385 161.814 108.479 162.624C109.964 163.724 111.414 164.785 112.722 166.093C112.91 166.281 114.434 167.889 114.148 167.302C113.133 165.215 111.687 163.247 110.498 161.258C108.483 157.89 106.689 154.502 105.131 150.9C103.953 148.176 103.174 145.322 101.952 142.608C101.522 141.653 101.082 140.694 100.707 139.72C100.612 139.473 100.165 139.008 100.2 138.729C100.205 138.687 101.268 139.526 101.336 139.575C106.896 143.578 112.371 147.509 116.203 153.257C117.897 155.798 119.264 158.548 120.989 161.041C121.982 162.476 120.882 161.795 119.986 161.065C117.495 159.035 114.669 156.44 112.951 153.692C111.407 151.221 110.247 148.552 108.806 146.029C108.012 144.64 106.953 143.092 106.412 141.605C106.119 140.8 105.683 140.059 105.373 139.285C104.767 137.769 105.575 138.846 106.509 139.55C110.713 142.718 115.3 145.419 119.66 148.362C121.573 149.653 122.93 151.478 124.579 153.039C124.897 153.34 126.75 155.607 125.558 154.345C124.248 152.958 123.585 151.081 122.464 149.558C120.896 147.431 119.463 145.029 117.726 143.044C117.052 142.274 116.293 141.322 115.816 140.421C115.544 139.908 114.377 139.683 113.918 139.224C113.19 138.496 112.027 136.127 110.5 134.501C108.153 132.001 107.249 127.296 105.663 128.001C105.268 128.177 105.072 134.983 105.663 135.743C106.319 136.586 107.395 137.259 108.153 138.028C109.628 139.524 110.856 141.251 112.262 142.814C115.693 146.626 118.645 150.821 120.663 155.529C121.422 157.3 122.035 159.02 124.035 159.131C124.482 159.156 124.616 159.276 124.373 158.599C123.908 157.3 122.788 155.994 121.968 154.889C121.227 153.89 120.744 152.733 120.216 151.613C119.816 150.768 120.672 151.611 120.868 151.843C121.704 152.831 122.434 153.51 123.6 154.127C124.126 154.406 125.833 155.982 125.123 154.562" stroke="#171717" stroke-width="4" stroke-linecap="round"/>
<path d="M129.385 153.201C129.385 151.592 128.858 150.292 128.259 148.809C127.331 146.51 126.451 144.242 125.243 142.068C123.395 138.741 120.996 135.677 119.252 132.324C117.538 129.028 115.604 125.696 113.248 122.817C108.858 117.451 119.409 135.245 122.755 141.317C123.672 142.982 124.699 144.67 125.479 146.404C126.028 147.623 125.32 146.915 124.729 146.279C122.411 143.789 120.807 140.719 118.863 137.953C117.086 135.424 114.942 133.131 113.248 130.559C112.46 129.362 111.747 128.099 110.927 126.931C110.527 126.362 110.225 125.377 109.62 124.986C109.341 124.805 108.353 123.679 108.619 123.679C109.76 123.679 110.629 124.503 111.872 124.43C112.453 124.395 111.872 121.918 111.872 121.427C111.872 120.992 111.463 118.977 111.872 118.925C112.422 118.857 113.422 117.159 113.679 116.674C114.903 114.361 114.671 116.793 115.18 117.98C116.385 120.793 118.557 123.257 120.128 125.875C121.834 128.718 123.803 131.372 125.632 134.131C126.55 135.517 127.242 137.038 128.134 138.44C128.554 139.099 129.169 139.935 129.385 140.691C129.673 141.7 130.94 143.787 131.762 144.444C131.991 144.628 134.454 147.701 134.5 147.641C134.939 147.055 130.522 141.62 130.135 141.025C127.681 137.252 125.814 133.026 123.895 128.961C122.208 125.39 120.938 121.542 119.127 118.05C118.27 116.396 117.79 114.348 117.39 112.546C117.264 111.981 117.813 113.32 118.029 113.574C120.274 116.21 122.633 118.788 124.784 121.497C127.709 125.18 130.431 129.031 133.388 132.686C134.65 134.246 135.654 135.892 136.529 137.689C137.225 139.121 137.755 140.53 138.642 141.887C139.21 142.756 139.862 143.546 140.337 144.444C140.611 144.962 140.581 145.051 139.976 144.583C138.345 143.323 137.272 142.138 136.084 140.441C132.815 135.772 129.794 131.128 128.134 125.625C127.077 122.123 126.455 118.347 125.938 114.728C125.596 112.336 123.881 107.778 123.881 107.778C123.881 107.778 124.314 109.012 124.645 109.571C126.036 111.918 127.866 113.927 129.538 116.076C131.715 118.875 133.905 121.585 135.876 124.541C137.204 126.533 138.231 128.671 139.517 130.684C142.08 134.695 144.047 139.219 146.397 143.332C146.812 144.058 147.508 144.624 147.898 145.306C148.4 146.184 147.155 144.347 147.009 144.166C144.727 141.333 142.451 138.159 140.796 134.923C138.945 131.304 137.45 127.495 135.751 123.804C134.559 121.215 133.229 118.691 132.151 116.048C130.876 112.927 130.397 109.238 128.759 106.291C128.523 105.866 128.2 105.677 128.634 106.166C129.303 106.918 129.681 108.054 130.247 108.89C132.842 112.73 136.035 116.177 138.836 119.871C140.925 122.625 142.626 125.61 144.396 128.571C146.543 132.164 148.871 135.817 150.595 139.635C151.226 141.032 152.174 143.24 153.208 144.389C153.392 144.593 153.847 145.278 153.653 145.084C152.547 143.978 151.658 141.852 150.789 140.525C146.708 134.287 143.336 127.544 140.448 120.677C138.836 116.842 137.75 112.777 135.945 109.029C135.203 107.488 134.338 106.038 133.582 104.526C133.235 103.831 134.042 105.041 134.166 105.193C135.862 107.266 137.999 109.026 139.892 110.92C144.907 115.934 148.533 121.7 151.776 127.946C153.582 131.424 154.926 135.113 156.53 138.676C157.117 139.981 158.335 141.433 158.642 142.818C158.822 143.624 158.263 142.826 157.906 142.429C156.262 140.603 154.897 138.292 153.402 136.327C150.081 131.96 147.064 127.499 144.646 122.553C143.976 121.183 143.267 119.768 142.519 118.439C142.24 117.942 141.685 116.962 142.408 118.092C146.102 123.864 149.766 129.641 153.013 135.688C154.394 138.26 155.881 140.82 157.155 143.444C157.541 144.237 158.815 146.517 157.155 144.945C155.488 143.365 152.974 142.822 151.206 141.331C147.139 137.899 143.799 134.104 140.893 129.683C139.138 127.013 136.884 124.936 134.944 122.428C133.528 120.597 132.141 118.74 130.636 116.98C129.352 115.478 128.134 113.929 126.827 112.476C126.239 111.823 125.97 111.25 125.576 110.419C125.278 109.789 125.154 107.929 124.631 107.667" stroke="#171717" stroke-width="4" stroke-linecap="round"/>
<path d="M168.608 143.555C167.239 139.876 165.803 136.228 164.299 132.603C162.552 128.393 161.073 123.57 158.656 119.676C156.481 116.172 153.732 112.738 152.151 108.918C151.066 106.296 149.671 103.687 147.648 101.663C147.34 101.356 146.103 99.2725 145.702 99.2725C145.156 99.2725 146.996 102.852 147.05 102.956C149.422 107.524 151.253 112.361 153.207 117.119C156.264 124.56 159.891 131.693 163.354 138.941C164.014 140.322 164.787 141.937 165.161 143.43C165.464 144.645 165.913 144.962 164.605 143.472C156.436 134.166 152.444 122.172 145.646 111.976C143.97 109.462 142.314 107.108 140.893 104.415C140.488 103.647 138.726 101.397 140.198 103.414C142.493 106.56 144.787 109.729 147.022 112.921C149.121 115.92 150.877 119.16 153.096 122.067C154.202 123.516 151.949 120.313 151.762 120.01C150.245 117.552 148.883 115.003 147.592 112.421C146.421 110.079 145.325 107.589 144.59 105.11C144.452 104.645 143.322 101.869 142.7 102.024C142.455 102.086 145.683 107.04 145.813 107.209C148.841 111.14 151.838 115.078 154.903 118.981C156.754 121.339 158.343 123.901 160.157 126.292C161.104 127.541 161.956 128.779 162.659 130.184" stroke="#171717" stroke-width="4" stroke-linecap="round"/>
<path d="M236.713 118.675C236.713 121.2 237.722 123.396 238.715 125.68C240.017 128.676 241.321 131.652 242.662 134.631C244.083 137.789 245.391 140.899 247.096 143.93C247.399 144.469 247.665 145.02 247.972 145.556C248.694 146.821 245.693 143.72 244.719 142.637C240.176 137.583 236.119 131.345 233.225 125.194C231.617 121.778 230.073 118.347 228.457 114.936C227.789 113.525 225.175 109.622 225.955 110.975C226.782 112.409 227.208 114.298 227.818 115.84C229.344 119.699 230.912 123.546 232.335 127.445C234.194 132.54 236.448 137.496 238.909 142.331C239.503 143.498 239.828 143.389 240.5 144.5C240.718 144.861 241.595 145.69 241.195 145.556C239.681 145.052 238.926 144.488 237.964 143.332C235 139.768 232.447 135.874 230.222 131.81C227.332 126.528 224.701 121.059 222.008 115.673C221.123 113.903 220.382 112.08 219.701 110.224C219.126 108.661 218.177 107.094 217.699 105.54C217.594 105.197 216.728 104.239 217.088 104.804C217.577 105.573 217.913 106.291 218.2 107.167C219.934 112.465 221.676 117.767 223.467 123.053C225.083 127.82 227.224 132.399 228.902 137.133C229.744 139.509 231.197 141.54 232.21 143.819C232.405 144.258 232.759 144.615 232.961 145.069C233.652 146.625 231.816 143.627 231.557 143.276C228.924 139.708 226.333 136.185 224.204 132.282C221.726 127.738 219.87 122.821 217.699 118.119C216.795 116.159 215.891 114.193 215.003 112.226C214.325 110.726 213.345 109.406 212.849 107.806C212.381 106.3 211.445 104.002 211.445 102.413C211.445 102.224 211.818 103.158 211.889 103.414C212.222 104.611 212.607 105.788 213.001 106.972C214.916 112.716 216.382 118.563 218.214 124.332C219.649 128.855 220.725 133.887 222.759 138.189C223.569 139.904 224.442 141.657 225.08 143.443C225.234 143.876 226.342 145.659 225.677 145.042C223.908 143.398 222.498 141.2 221.216 139.176C218.404 134.736 216.071 130 213.752 125.291C210.896 119.491 208.53 113.209 206.191 107.194C205.193 104.629 204.462 102.066 203.745 99.4109C203.554 98.7071 203.289 98.0727 202.994 97.4094C202.627 96.5844 203.367 97.8369 203.439 98.16C203.655 99.131 204.456 100.08 204.954 100.926C206.381 103.351 207.86 105.741 209.193 108.223C210.69 111.01 212.043 113.842 213.446 116.674C214.634 119.071 216.029 121.479 216.824 124.04C217.198 125.246 217.701 126.427 217.949 127.668C218.007 127.954 218.2 129.104 218.2 128.933" stroke="#171717" stroke-width="4" stroke-linecap="round"/>
<path d="M221.452 145.446C221.416 145.115 221.191 144.809 221.049 144.514C220.226 142.805 219.381 141.104 218.548 139.4C216.501 135.215 214.587 130.963 212.251 126.932C209.148 121.576 206.016 116.225 202.814 110.934C200.455 107.037 197.772 103.172 195.934 99.0365C195.839 98.8231 195.332 97.5299 195.489 97.9663C196.303 100.227 198.722 102.059 200.173 103.901C202.011 106.234 203.764 108.612 205.441 111.059C205.715 111.459 207.09 113.401 206.441 111.865C206.078 111.005 205.508 110.38 204.954 109.642C204.088 108.487 203.529 107.054 202.828 105.791C201.957 104.223 201.446 102.499 200.562 100.927C200.135 100.167 199.304 99.647 198.936 98.9114" stroke="#171717" stroke-width="4" stroke-linecap="round"/>
<path d="M187.928 96.6588C188.06 98.1183 188.852 99.4828 189.484 100.773C190.567 102.98 191.601 105.209 192.681 107.417C194.006 110.124 195.231 112.993 196.378 115.784C198.91 121.939 200.978 128.276 203.926 134.27C205.621 137.717 206.695 141.447 208.568 144.819C209.316 146.165 207.952 143.783 207.79 143.513C203.738 136.76 201.436 129.048 198.491 121.788C196.604 117.137 193.796 111.732 193.682 106.583C193.666 105.88 194.19 107.363 194.238 107.472C194.928 109.05 195.82 110.524 196.74 111.976C201.79 119.942 206.245 128.262 210.458 136.688C210.981 137.733 211.64 138.705 212.057 139.802C212.169 140.097 212.378 141.178 212.793 141.261C213.756 141.454 211.667 139.652 211.056 138.884C209.668 137.142 208.419 135.203 207.317 133.269C206.125 131.176 205.125 128.993 204.217 126.764C204.146 126.588 203.444 124.963 203.592 125.11C204.164 125.682 204.549 126.506 204.954 127.195C205.787 128.611 206.859 129.854 207.887 131.129C211.047 135.048 213.1 139.951 216.449 143.693C216.545 143.801 216.873 144.293 216.588 143.888C215.873 142.872 214.944 142.017 214.197 141.025C210.739 136.427 208.857 130.852 206.427 125.708C203.817 120.18 201.36 114.578 199.061 108.918C198.307 107.061 197.06 105.368 196.184 103.553C195.448 102.029 194.568 100.575 193.738 99.1051C193.58 98.8259 191.727 93.7212 191.486 93.9624C191.019 94.4292 192.069 97.1909 192.181 97.7151C192.949 101.33 193.193 104.665 194.572 108.181C198.01 116.955 204.214 124.224 208.679 132.449C210.871 136.486 212.931 141.013 214.197 145.445" stroke="#171717" stroke-width="4" stroke-linecap="round"/>
<path d="M205.191 145.195C204.969 142.539 203.021 139.817 201.563 137.69C198.905 133.81 196.799 129.444 194.433 125.375C190.562 118.718 186.491 112.21 182.813 105.444C181.316 102.689 180.196 99.7371 178.796 96.9375C178.322 95.9885 177.735 95.1023 177.365 94.1021C177.26 93.8181 176.92 93.007 176.92 93.3098C176.92 94.1739 177.993 95.1081 178.477 95.7144C181.831 99.9185 185.435 104.128 188.442 108.585C192.325 114.339 195.623 120.527 199.131 126.515C200.074 128.124 201.133 129.66 202.077 131.268C202.861 132.603 202.195 131.508 201.66 130.907C197.689 126.439 195.644 120.91 193.085 115.604C190.551 110.352 187.205 104.916 185.927 99.1613C185.738 98.315 184.395 95.7686 183.675 95.4086" stroke="#171717" stroke-width="4" stroke-linecap="round"/>
<path d="M172.654 145.533C172.605 145.014 172.398 144.541 172.22 144.054C171.555 142.234 170.946 140.397 170.356 138.551C169.595 136.167 168.947 133.716 168.078 131.371C166.751 127.79 165.381 124.211 163.699 120.779C161.377 116.043 158.749 111.459 156.756 106.568C156.202 105.208 155.352 104.038 154.813 102.662C154.358 101.499 154.184 100.221 153.876 99.0232C153.675 98.2384 153.607 97.1544 153.216 96.4491C153.038 96.1296 153.01 96.0149 153.206 96.4787C153.849 98.0023 155.062 99.5251 156.046 100.838C161.978 108.748 167.337 117.278 171.954 126.026C173.957 129.821 175.863 133.641 177.802 137.466C178.714 139.266 179.997 140.908 180.889 142.693C180.966 142.846 181.718 144.533 181.954 144.439C182.029 144.409 179.695 140.859 179.577 140.661C177.686 137.498 176.071 134.099 174.429 130.799C171.781 125.479 169.796 119.875 167.328 114.477C165.989 111.547 165.082 108.476 163.64 105.591C162.083 102.477 160.764 99.4237 159.606 96.1829C159.494 95.8684 159.501 95.522 159.518 96.0842C159.558 97.4876 161.097 98.9296 161.904 99.9502C165.651 104.686 169.151 109.549 172.555 114.536C174.775 117.789 176.735 121.255 178.69 124.675C180.864 128.481 182.767 132.483 185.041 136.223C186.327 138.338 187.469 140.552 188.542 142.782C188.825 143.37 189.065 144.167 189.518 144.646C190.159 145.322 189.673 144.28 189.479 143.995C187.797 141.528 186.797 138.677 185.613 135.957C183.837 131.88 182.153 127.783 180.642 123.6C178.477 117.604 176.592 111.51 173.995 105.69C173.269 104.063 172.39 102.508 171.766 100.838C171.293 99.5702 170.883 98.1933 170.307 96.9718C169.995 96.3111 169.452 95.3978 169.291 94.674C169.168 94.1188 169.199 94.52 169.36 94.8416C170.059 96.2387 170.991 97.4556 171.954 98.678C175.662 103.384 179.391 108.249 182.24 113.54C185.078 118.811 187.868 124.039 190.228 129.547C191.666 132.901 193.212 136.235 194.844 139.498C195.36 140.53 195.843 141.59 196.432 142.584C196.546 142.777 197.09 143.609 196.974 143.541C196.112 143.034 195.581 141.669 195.081 140.878C193.466 138.325 191.741 135.846 190.14 133.284C188.974 131.419 187.748 129.561 186.816 127.564C185.715 125.205 184.916 122.722 183.798 120.365C182.819 118.299 181.738 116.233 180.652 114.221C180.238 113.454 179.915 112.665 179.538 111.883C179.431 111.661 179.222 110.966 179.222 111.213C179.222 113.709 180.518 115.658 181.619 117.86C184.326 123.275 187.463 128.549 190.011 134.034C191.091 136.357 191.975 138.777 193.069 141.085C193.414 141.814 194.651 144.646 195.732 144.646C196.124 144.646 196.681 144.311 197.063 144.212C197.866 144.003 198.775 144.113 199.597 144.113C200.193 144.113 200.747 144.084 201.314 144.291C201.597 144.394 202.057 144.641 201.669 144.182C199.527 141.651 198.232 138.34 196.757 135.415C194.781 131.493 192.107 127.987 190.14 124.053C188.624 121.022 187.387 117.87 185.593 114.98C183.66 111.866 182.31 108.428 180.287 105.374C178.187 102.205 176.762 98.7243 174.607 95.6109C173.231 93.6233 170.679 94.6321 168.571 94.3978C167.83 94.3155 166.83 94.23 166.125 94.0132C165.611 93.8549 165.775 94.0231 165.997 94.4175C166.631 95.5443 167.151 96.5656 167.605 97.8003C169.238 102.245 170.903 106.661 172.565 111.094C174.466 116.164 175.744 121.358 177.269 126.539C179.052 132.592 180.643 138.832 183.66 144.389C184.41 145.77 183.167 144.862 182.556 144.251C179.555 141.25 176.444 138.547 174.686 134.606C173.036 130.909 171.127 127.264 169.143 123.738C168.801 123.13 168.307 122.501 168.048 121.854C167.888 121.453 168.325 122.674 168.482 123.077C169.719 126.238 170.878 129.49 171.845 132.742C172.646 135.431 173.207 138.267 174.252 140.878C174.834 142.333 175.163 143.806 175.849 145.178" stroke="#171717" stroke-width="4" stroke-linecap="round"/>
<path d="M251.8 146.92H137.6L87.7996 204.92C67.3996 160.52 92.1996 137.04 103.8 134.32C105.56 104.08 147.2 93.7203 167.8 92.3203C229.4 92.3203 249.44 128.72 251.8 146.92Z" stroke="#171717" stroke-width="2" stroke-linejoin="round"/>
<path d="M104.041 135.6C96.4405 135.6 86.7205 144.16 85.8405 152.04C85.5605 154.4 83.4805 156.08 83.4805 158.8C83.4805 161.12 81.7205 163.48 81.7205 165.84C81.7205 170.92 80.5605 175.6 80.5605 180.52C80.5605 182.76 80.5605 185 80.5605 187.28C80.5605 190.12 81.6405 192 81.7205 194.76C81.8005 196.92 85.9605 205.76 89.0405 203.36C93.0405 200.24 95.7205 194.52 98.0005 190.2C98.9605 188.4 101.081 186.08 102.841 185.04C104.641 184 108.081 181.48 109.161 179.64C111.521 175.64 114.401 171.6 117.801 168.2C121.561 164.44 124.481 160.48 127.921 156.64C131.481 152.68 132.321 150.32 137.721 149.12C139.681 148.68 141.641 147.4 143.601 147.4C146.321 147.4 149.081 147.4 151.801 147.4C170.521 147.4 189.321 145.64 208.121 145.64C210.361 145.64 212.601 145.64 214.881 145.64C217.321 145.64 219.561 146.68 221.921 146.8C227.641 147.12 227.741 146.8 233.501 146.8C235.181 146.8 240.461 146.44 241.501 146.8C243.321 146.8 245.201 146.8 246.721 146.8C248.641 146.8 249.521 147.2 249.521 145.04C249.521 143.56 247.641 140.08 246.721 139.04C245.161 137.32 244.241 134.2 243.201 132.12C241.121 127.96 240.361 122.64 237.481 118.92C235.081 115.84 231.241 112.28 227.841 110.28C223.801 107.88 219.801 104.64 215.281 103.32C213.401 102.8 211.201 101.12 209.401 100.12C207.561 99.0802 204.921 96.8002 202.961 96.3202C201.881 96.0802 198.761 94.8402 197.841 94.0802C196.681 93.1602 191.801 93.3602 190.361 93.3602C184.801 93.3602 179.721 92.2002 174.281 92.2002C167.881 92.2002 162.121 94.3202 155.881 94.5602C151.201 94.7202 144.681 96.8002 141.081 99.8402C139.241 101.4 137.041 101.84 134.921 102.76C131.921 104.08 130.801 105.12 127.281 105.12C123.801 105.12 116.881 109.08 114.681 111.88C112.561 114.52 98.7205 132.64 103.521 135.04" stroke="#171717" stroke-width="2" stroke-linecap="round"/>
<path d="M86.2 149.679C84 146.799 77.48 142.199 69 146.679M205.4 97.2793C212.4 100.879 228.96 106.519 239.2 100.279" stroke="#171717" stroke-width="2" stroke-linecap="round" stroke-linejoin="round"/>
<path d="M85.6044 150.142C85.5199 149.382 83.8342 148.701 83.2892 148.213C82.7631 147.742 81.9831 147.34 81.3599 147.012C79.9445 146.267 78.9031 145.126 77.2119 145.126C74.1646 145.126 71.8705 147.441 68.8193 147.441" stroke="#171717" stroke-width="2" stroke-linecap="round"/>
<path d="M218.832 103.212C224.147 103.212 229.445 103.369 234.753 103.369C235.671 103.369 237.437 103.738 238.153 103.022C238.702 102.473 238.895 101.22 239.592 100.871" stroke="#171717" stroke-width="2" stroke-linecap="round"/>
<path d="M175.6 200.6C189.076 200.6 200 189.676 200 176.2C200 162.724 189.076 151.8 175.6 151.8C162.124 151.8 151.2 162.724 151.2 176.2C151.2 189.676 162.124 200.6 175.6 200.6Z" stroke="#171717" stroke-width="2" stroke-linecap="round" stroke-linejoin="round"/>
<path d="M224.4 200.6C237.876 200.6 248.8 189.676 248.8 176.2C248.8 162.724 237.876 151.8 224.4 151.8C210.924 151.8 200 162.724 200 176.2C200 189.676 210.924 200.6 224.4 200.6Z" stroke="#171717" stroke-width="2" stroke-linecap="round" stroke-linejoin="round"/>
<path d="M151 176.199H114" stroke="#171717" stroke-width="2" stroke-linecap="round" stroke-linejoin="round"/>
<path d="M255.6 176.199H248.8" stroke="#171717" stroke-width="2" stroke-linecap="round" stroke-linejoin="round"/>
<path d="M112.881 176.949C117.192 176.949 121.845 177.377 126.023 176.081C127.639 175.579 129.494 175.379 131.17 175.146C132.506 174.961 133.828 174.812 135.175 174.812C137.591 174.812 139.969 175.213 142.399 175.213C145.157 175.213 147.906 175.48 150.661 175.48" stroke="#171717" stroke-width="2" stroke-linecap="round"/>
<path d="M249.347 175.405C249.987 175.405 250.658 175.344 251.293 175.416C251.779 175.472 252.19 175.717 252.625 175.917C252.872 176.03 253.131 176.163 253.394 176.236C253.594 176.292 253.798 176.481 254.009 176.481" stroke="#171717" stroke-width="2" stroke-linecap="round"/>
<path d="M169.12 153.12C167.4 153.12 165.64 154.04 164.12 154.92C162.56 155.8 161.4 156.96 160.24 158.32C159.28 159.44 158 160.84 157.32 162.08C156.8 163 156.12 163.76 155.64 164.68C155.28 165.36 155.28 166.16 154.92 166.84C154.28 168.08 154.2 170.4 153.92 171.76C153.6 173.36 153.6 175.04 153.6 176.68C153.6 178.44 153.44 180.56 153.92 182.2C154.24 183.32 154.48 185.72 155.16 186.64C157 189.04 159.2 191.52 161.32 193.72C162.28 194.76 163.48 195.6 164.56 196.48C165.08 196.92 166.32 197.16 167 197.48C167.72 197.8 168.56 198.4 169.36 198.4C171.16 198.4 172.44 199.44 174.08 199.92C174.72 200.12 178.8 200.32 179.2 199.8C179.56 199.36 180.76 199.24 181.24 198.96C182.2 198.44 182.96 197.6 184 197.16C185.4 196.64 187.4 196.08 188.52 194.92C190.32 193 191.96 191 193.8 189.04C194.76 188 195.08 186.4 195.68 185.08C196.36 183.64 197.68 181.6 197.68 180C197.68 176.6 198.44 172.92 197.68 169.52C197.36 168.08 197.2 166.48 196.48 165.2C195.64 163.68 194.8 162.84 193.6 161.6C191.28 159.16 188.56 156.52 185.6 154.96C183.72 153.96 182.76 153.36 180.6 153.36C178.88 153.36 177.16 152.44 175.48 152.44C173.84 152.44 172.2 152.12 170.48 152.12C168.96 152.12 166.12 152.24 164.92 153.2C164.12 153.84 163.04 154.08 162.12 154.52C161.28 154.92 160.88 155.56 160.2 156.28C159.04 157.48 157.36 160.08 156.32 162.48" stroke="#171717" stroke-width="2" stroke-linecap="round"/>
<path d="M205.04 188.599C205.52 190.319 206.84 191.879 208.04 193.199C209.28 194.559 210.64 195.439 212.24 196.279C213.52 196.959 215.2 197.919 216.56 198.319C217.52 198.599 218.44 199.119 219.44 199.399C220.2 199.599 220.92 199.399 221.68 199.599C223 199.959 225.16 199.439 226.56 199.399C228.12 199.359 229.68 198.879 231.24 198.479C232.84 198.039 234.88 197.639 236.32 196.799C237.28 196.199 239.44 195.359 240.12 194.439C241.88 191.959 243.56 189.119 245.04 186.439C245.72 185.199 246.2 183.799 246.76 182.479C247.04 181.839 246.92 180.519 247.04 179.759C247.16 178.919 247.48 177.959 247.28 177.159C246.8 175.319 247.4 173.759 247.4 171.999C247.4 171.319 246.48 167.119 245.88 166.839C245.36 166.599 244.92 165.399 244.56 164.959C243.8 164.119 242.8 163.559 242.16 162.599C241.28 161.319 240.24 159.439 238.88 158.599C236.6 157.239 234.28 156.079 232 154.719C230.8 153.999 229.2 154.079 227.84 153.799C226.32 153.479 224.04 152.639 222.56 153.039C219.4 153.879 215.8 154.039 212.8 155.639C211.52 156.319 210.08 156.919 209.08 157.919C207.88 159.119 207.36 160.199 206.52 161.719C204.88 164.679 203.16 168.079 202.52 171.479C202.12 173.639 201.8 174.759 202.36 176.919C202.84 178.639 202.44 180.639 202.88 182.359C203.32 183.999 203.48 185.759 203.96 187.479C204.36 189.039 205.24 191.879 206.48 192.839C207.32 193.479 207.8 194.519 208.44 195.359C209.04 196.119 209.76 196.319 210.6 196.839C212.04 197.719 214.92 198.799 217.4 199.239" stroke="#171717" stroke-width="2" stroke-linecap="round"/>
<path d="M188.52 177.079C188.52 180.799 187.8 184.119 186.72 186.479C185.56 188.919 184.24 189.879 183.12 189.879C182 189.879 180.68 188.919 179.52 186.479C178.4 184.119 177.72 180.839 177.72 177.079C177.72 173.319 178.44 170.039 179.52 167.679C180.68 165.239 182 164.279 183.12 164.279C184.24 164.279 185.56 165.239 186.72 167.679C187.8 170.039 188.52 173.359 188.52 177.079Z" stroke="#171717" stroke-width="2"/>
<path d="M239.72 177.08C239.72 180.48 239.04 183.48 238.04 185.6C236.96 187.8 235.72 188.68 234.72 188.68C233.72 188.68 232.48 187.8 231.4 185.6C230.36 183.48 229.72 180.48 229.72 177.08C229.72 173.68 230.4 170.68 231.4 168.56C232.48 166.36 233.72 165.48 234.72 165.48C235.72 165.48 236.96 166.36 238.04 168.56C239.04 170.68 239.72 173.72 239.72 177.08Z" stroke="#171717" stroke-width="2"/>
<path d="M184.32 175.68V178.88" stroke="#171717" stroke-width="2" stroke-linecap="round" stroke-linejoin="round"/>
<path d="M184.5 179.5C184.5 178.5 184.66 176.88 184.5 176" stroke="#171717" stroke-width="2" stroke-linecap="round"/>
<path d="M234.92 175.68V178.88" stroke="#171717" stroke-width="2" stroke-linecap="round" stroke-linejoin="round"/>
<path d="M183.401 188.52C182.321 188.52 181.721 187 181.241 186.2C180.761 185.32 180.161 184.52 179.721 183.6C178.521 181.16 178.001 178.64 178.001 175.92C178.001 174.12 177.961 172.36 178.361 170.6C178.561 169.68 178.721 168.76 178.961 167.88C179.241 166.92 179.801 166.08 180.121 165.16C180.801 163.12 182.241 163 184.121 163C184.641 163 184.921 164 185.121 164.4C185.521 165.32 186.201 166.2 186.601 167.12C187.201 168.52 187.881 169.88 188.241 171.36C188.601 172.8 189.281 174.4 189.281 175.88C189.281 177.56 189.361 179.2 188.921 180.84C188.561 182.16 188.201 183.48 187.961 184.84C187.801 185.76 187.521 187.08 186.961 187.84C186.641 188.32 186.121 188.32 185.721 188.64C185.481 188.84 185.161 189.16 184.921 189.32" stroke="#171717" stroke-width="2" stroke-linecap="round"/>
<path d="M236.24 167.2C236.16 167.2 236.32 167.36 236.36 167.36C236.6 167.64 236.8 167.92 237 168.2C237.32 168.68 237.68 169.16 237.92 169.68C238.16 170.16 238.28 170.72 238.4 171.24C238.56 171.96 238.92 172.64 239.16 173.36C239.48 174.36 239.52 175.36 239.52 176.4C239.52 177.32 239.56 178.2 239.36 179.12C239.28 179.52 239.2 180.04 239.04 180.4C238.96 180.56 239 180.76 238.88 180.56" stroke="#171717" stroke-width="2" stroke-linecap="round"/>
<path d="M238.8 180.439C238.8 180.799 238.8 181.199 238.76 181.559C238.68 182.399 238.32 183.119 237.92 183.839C237.4 184.719 237 185.679 236.4 186.519C236.08 186.959 235.52 187.679 234.92 187.759C234.48 187.839 233.92 187.719 233.6 187.359C233.04 186.719 232.8 185.879 232.44 185.119C232.28 184.799 232.04 184.559 231.88 184.239C231.6 183.799 231.52 183.239 231.4 182.759C231.28 182.399 231.12 182.039 231 181.679C230.88 181.319 230.76 180.959 230.56 180.639C230.32 180.199 230.08 179.759 229.92 179.279" stroke="#171717" stroke-width="2" stroke-linecap="round"/>
<path d="M229.96 179.28C229.96 177.72 229.96 176.2 229.96 174.64C229.96 173.76 229.8 172.92 230.28 172.16C230.72 171.44 231 170.68 231.36 169.88C231.56 169.36 231.88 168.88 232.2 168.4C232.56 167.92 233.04 167.48 233.64 167.28C234 167.16 233.92 167.04 234.16 166.84C234.36 166.64 234.6 166.56 234.8 166.4" stroke="#171717" stroke-width="2" stroke-linecap="round"/>
<path d="M235.28 179.76C235.28 178.84 235.36 177.88 235.2 177C235.12 176.52 234.96 176.04 234.96 175.52" stroke="#171717" stroke-width="2" stroke-linecap="round"/>
<path d="M138.84 304V384L156.84 387.4" stroke="#171717" stroke-width="2" stroke-linecap="round" stroke-linejoin="round"/>
<path d="M197.68 304V384L215.68 387.4" stroke="#171717" stroke-width="2" stroke-linecap="round" stroke-linejoin="round"/>
<path d="M137.314 304.57C137.314 310.23 137.145 315.858 137.848 321.479C138.697 328.27 139.108 335.14 139.671 341.961C139.921 344.992 139.9 348.126 139.598 351.153C139.329 353.838 139.182 356.563 138.842 359.239C138.744 360.013 138.932 360.841 138.723 361.596C138.65 361.858 138.486 362.355 138.474 362.591C138.384 364.3 139.189 366.097 139.598 367.73C140.194 370.117 139.8 372.911 139.8 375.356C139.8 377.455 139.8 379.555 139.8 381.655C139.8 382.876 141.677 383.197 142.655 383.608C144.361 384.323 146.146 384.818 147.96 385.173C149.861 385.545 151.77 385.981 153.688 386.26C154.856 386.429 156.093 386.423 157.206 386.794" stroke="#171717" stroke-width="2" stroke-linecap="round"/>
<path d="M196.381 306.009C196.381 311.594 196 317.223 197.051 322.714C197.816 326.705 198.046 330.694 198.046 334.756C198.046 340.528 198.002 346.269 198.417 352.028C198.775 357.007 199.151 361.948 199.492 366.905C199.59 368.315 199.712 369.668 199.712 371.093C199.712 371.683 199.599 372.294 199.4 372.851C199.14 373.58 199.38 374.399 199.192 375.153C198.978 376.009 199.088 376.971 199.088 377.849C199.088 378.766 198.879 379.623 198.879 380.544C198.879 381.592 198.208 383.493 198.717 384.512C200.07 387.217 204.429 386.386 206.781 386.386C208.242 386.386 209.703 386.386 211.165 386.386C211.92 386.386 215.17 386.483 215.538 387.219" stroke="#171717" stroke-width="2" stroke-linecap="round"/>
<path d="M229.2 204.479C232.88 204.999 239.52 207.639 236.8 213.879C233.84 220.639 225.16 221.839 218.6 218.239M218.6 218.239C217.6 217.679 216.68 217.039 215.8 216.279C209.2 210.479 209.6 217.079 199.8 213.879C190 210.679 177.4 198.879 161 208.079C144.6 217.279 144 229.679 154.6 229.479C165.2 229.279 191.2 226.279 206.6 229.479C218.92 232.039 219.72 223.079 218.6 218.239Z" stroke="#171717" stroke-width="2" stroke-linecap="round" stroke-linejoin="round"/>
<path d="M198.2 213.279C201.88 214.959 210.88 221.159 212 229.279" stroke="#171717" stroke-width="2" stroke-linecap="round" stroke-linejoin="round"/>
<path d="M141 212.879C143.2 204.879 151.52 197.559 161.6 196.279" stroke="#171717" stroke-width="2" stroke-linecap="round" stroke-linejoin="round"/>
<path d="M229.92 204.879C230.76 204.879 231.52 205.039 232.24 205.119C232.88 205.199 233.48 206.039 234.04 206.319C235.32 206.959 235.56 208.999 236.16 210.159C236.88 211.519 236.96 214.039 236.32 215.439C235.88 216.399 235.32 217.039 234.56 217.719C233.6 218.599 233.04 218.559 231.96 219.039C230 219.879 227.16 219.559 225 219.479C224.24 219.439 223.04 218.719 222.36 218.399C221.36 217.959 220.24 217.879 219.24 217.399C218.28 216.919 217.56 216.239 216.64 215.759C215.92 215.359 215.2 214.279 214.32 214.199C213.36 214.079 212.52 213.679 211.52 213.679C210.56 213.679 209.6 213.679 208.68 213.679C204.32 213.679 200.12 215.479 195.92 213.439C193.52 212.279 190.8 211.879 188.4 210.719C186.6 209.839 184.76 208.999 182.96 208.079C181.12 207.119 179.6 206.279 177.56 205.679C175.52 205.079 173.4 205.119 171.28 205.119C168.6 205.119 166.08 204.999 163.52 205.679C162.2 205.999 161.32 206.719 160.16 207.319C159.24 207.799 158.04 208.439 157.32 209.119C154.88 211.479 151.16 213.679 149.6 216.679C149.24 217.399 148.8 218.039 148.44 218.679C148.08 219.319 148.32 220.679 147.92 221.159C147.24 221.959 147.64 224.919 147.72 225.999C147.84 227.679 150.36 228.999 151.8 229.479C152.84 229.839 154 230.159 154.96 230.599C155.92 230.999 157.24 230.799 158.28 230.799C162.84 230.799 167 228.519 171.56 228.519C173.44 228.519 175.32 227.839 177.2 227.759C180.24 227.639 183.28 227.519 186.32 227.519C188.68 227.519 191.32 227.999 193.52 228.719C195.6 229.399 197.72 229.239 199.8 229.719C201.68 230.159 204.08 229.759 206.04 229.759C207.92 229.759 209.84 229.439 211.56 228.959C212.56 228.679 213.84 228.079 214.88 227.999C215.72 227.959 215.88 226.359 216.12 225.679C216.88 223.519 217.2 221.799 217.2 219.439" stroke="#171717" stroke-width="2" stroke-linecap="round"/>
<path opacity="0.8" d="M141.76 212.64C141.76 211.88 141.68 210.64 142.4 210.24C143.36 209.68 144.52 208.56 145.04 207.6C146.2 205.44 148.08 202.76 150.32 201.64C152.12 200.72 153.8 199.52 155.6 198.64C156.96 197.96 158.8 196.56 160.36 196.56" stroke="#171717" stroke-width="2" stroke-linecap="round"/>
<path d="M206.482 214.75C206.544 215.09 206.872 215.427 207.047 215.712C207.479 216.415 207.787 217.118 208.081 217.885C208.471 218.904 208.881 219.91 209.309 220.916C209.987 222.51 210.695 224.095 211.326 225.707C211.438 225.995 211.81 226.409 211.843 226.694C211.856 226.801 211.937 226.91 211.937 226.736C211.937 226.137 211.934 225.538 211.937 224.939C211.953 221.687 212.181 218.518 211.373 215.336C211.297 215.037 211.185 214.124 211.185 214.432C211.185 215.112 211.394 215.755 211.566 216.412C212.274 219.11 213.44 221.829 213.719 224.62C213.787 225.299 213.724 226.011 213.724 226.694C213.724 226.744 213.724 226.938 213.724 226.914C213.724 226.46 213.948 226.034 214.1 225.618C214.72 223.926 215.29 222.098 215.49 220.299C215.623 219.103 215.511 215.485 215.511 216.689C215.511 217.983 215.897 219.238 215.986 220.529C216.006 220.81 216.209 221.374 215.793 220.957C215.19 220.354 214.798 219.381 214.476 218.606C214.12 217.75 213.886 216.85 213.536 215.994C213.414 215.695 213.165 215.327 213.275 215.9C213.404 216.575 214.619 222.368 214.241 222.368C213.713 222.368 212.944 221.614 212.595 221.276C211.602 220.313 210.908 218.887 210.391 217.624C210.058 216.812 209.58 215.823 209.492 214.938C209.455 214.574 209.486 215.103 209.492 215.221C209.51 215.556 209.709 215.929 209.795 216.255C209.972 216.922 210.196 217.516 210.526 218.136" stroke="#171717" stroke-width="2" stroke-linecap="round"/>
<path d="M262.158 212.595C269.624 238.463 292.499 277.329 324.271 225.839M324.271 225.839H342.281M324.271 225.839L333.737 212.595" stroke="#171717" stroke-width="2" stroke-linecap="round" stroke-linejoin="round"/>
<path d="M262.338 210.979C262.338 216.703 261.912 220.994 264.668 225.954C267.286 230.666 270.368 234.305 273.801 238.119C279.67 244.64 284.579 253.923 295.247 250.875C299.267 249.727 303.153 248.67 306.413 245.736C309.879 242.616 315.132 240.849 317.58 236.566C320.129 232.104 323.372 228.23 325.419 223.624C326.344 221.542 328.348 220.125 329.56 218.004C330.729 215.959 333.882 214.98 334.885 212.975" stroke="#171717" stroke-width="2" stroke-linecap="round"/>
<path d="M324.984 225.567C330.709 225.567 336.392 225.208 342.111 225.208" stroke="#171717" stroke-width="2" stroke-linecap="round"/>
<path d="M115 222C118.32 244.4 135.72 282.32 178.64 254.96M178.64 254.96L198.16 253.12M178.64 254.96L191.04 265.12" stroke="#171717" stroke-width="2" stroke-linecap="round" stroke-linejoin="round"/>
<path d="M179 256C179.474 256 180.032 256.624 180.372 256.907C180.925 257.368 181.358 257.927 181.886 258.402C182.982 259.389 184.206 260.192 185.382 261.078C186.424 261.863 187.426 262.701 188.538 263.381C189.328 263.863 190.171 264.202 190.94 264.715" stroke="#171717" stroke-width="2" stroke-linecap="round"/>
<path d="M114.909 222.397C114.909 226.253 114.617 230.409 116.05 234.07C116.963 236.402 118.313 238.36 119.648 240.438C121.572 243.431 123.423 246.464 125.792 249.156C127.753 251.384 130.244 253.003 132.325 255.084C133.99 256.749 136.399 258.422 138.605 259.18C139.941 259.639 141.315 260.248 142.555 260.916C143.6 261.479 144.901 261.572 145.977 262.067C147.297 262.673 148.986 262.851 150.405 263.256C151.196 263.482 152.094 263.49 152.901 263.637C154.836 263.988 157.177 263.646 159.142 263.646" stroke="#171717" stroke-width="2" stroke-linecap="round"/>
<path d="M159.317 263.647C160.014 263.647 160.779 263.739 161.463 263.608C162.736 263.364 163.965 262.716 165.207 262.33C166.641 261.885 168.244 261.323 169.498 260.487C170.522 259.804 171.406 258.924 172.404 258.205C173.904 257.125 175.852 256.454 177.221 255.221C178.058 254.468 178.896 254.26 179.893 253.954C181.19 253.555 182.896 253.817 184.242 253.817C186.145 253.817 188.033 254.168 189.947 254.168C191.731 254.168 193.516 254.168 195.3 254.168C195.898 254.168 198.555 254.505 198.811 253.993" stroke="#171717" stroke-width="2" stroke-linecap="round"/>
<path d="M95.2054 98.6378C95.0526 98.569 95.2269 96.9517 95.2024 96.676C95.0484 94.9406 94.8143 93.3904 94.878 91.6315C94.9838 88.7124 95.2692 85.6771 96.136 82.8583C97.0156 79.9977 98.1397 77.6412 100.072 75.3254C101.102 74.0911 102.322 72.8376 103.482 71.7229C103.886 71.335 104.83 70.1068 104.691 71.242C104.153 75.6165 102.631 80.035 101.338 84.24C100.48 87.0307 99.4625 89.7843 98.6087 92.5608C98.4792 92.9817 97.6507 95.794 98.5111 94.2643C100.544 90.6509 102.385 86.967 103.869 83.0953C105.253 79.4832 106.823 75.8296 107.959 72.1335C108.029 71.907 108.691 70.1901 108.44 71.1255C108.069 72.5056 107.981 74.019 107.796 75.4366C107.333 78.9795 106.486 82.4724 105.993 86.0126C105.853 87.017 105.543 87.9902 105.462 89.0036C105.405 89.7196 105.374 90.0169 105.843 89.1207C108.664 83.7209 112.001 78.5899 114.05 72.8127C114.929 70.335 115.661 67.8133 116.529 65.334C116.699 64.8489 116.548 65.8282 116.502 65.9791C116.04 67.4799 116.057 69.1275 115.732 70.6683C115.024 74.0279 114.666 77.4925 113.655 80.781C113.305 81.9176 112.956 83.0542 112.606 84.1908C112.587 84.2552 112.127 85.7549 112.604 85.3078C113.457 84.5079 114.912 84.2296 115.884 83.5126C117.811 82.0909 118.911 80.001 120.102 77.9893C121.104 76.298 121.576 74.4305 122.149 72.5657C122.758 70.5867 123.317 68.6236 123.65 66.5763C123.729 66.0909 123.848 65.4521 123.767 64.964C123.732 64.7564 122.522 66.2508 122.364 66.4461C121.302 67.7546 120.468 69.4456 119.905 71.023C119.464 72.2594 119.053 73.2456 119.693 74.4533C120.211 75.4309 120.942 77.736 122.15 78.1075C122.586 78.2416 123.111 77.7553 123.524 77.5827C125.019 76.957 126.458 76.4536 127.617 75.2701C129.798 73.0423 128.91 68.9824 129.196 66.16C129.256 65.5718 129.285 65.1131 128.846 65.7586C128.027 66.9633 127.33 68.2849 126.798 69.6472C125.626 72.6474 124.296 75.5645 123.348 78.6465C123.101 79.449 123.871 78.8533 124.152 78.619C125.866 77.1917 128.221 76.6334 129.948 75.1438C132.04 73.339 133.373 70.4117 134.67 68.0136C135.074 67.2653 135.128 67.1894 135.335 68.1899C135.533 69.1408 135.678 70.4172 135.467 71.3658C135.259 72.3011 134.906 73.2222 134.624 74.1379C134.372 74.9583 134.056 75.3049 134.751 74.4041C136.004 72.78 137.262 71.151 138.514 69.5273C138.754 69.2164 139.011 68.5574 139.235 69.1238C139.457 69.6851 140.662 70.3529 141.163 70.6166C141.882 70.9951 142.565 71.5971 143.345 71.8371" stroke="#FFD424" stroke-width="4" stroke-linecap="round"/>
<path d="M98.4479 103.35C98.7887 102.242 99.1556 101.199 99.6544 100.151C99.8404 99.7602 101.035 96.7407 101.545 96.8976C101.83 96.9851 102.177 99.2221 102.288 99.5505C102.592 100.451 103.163 101.262 103.671 102.054C104.119 102.753 104.385 102.618 104.935 102.071C106.002 101.011 106.936 99.9561 107.809 98.733C109.126 96.8891 110.306 95.0346 111.467 93.1123C111.821 92.5269 112.223 91.8609 111.892 92.9378C111.6 93.885 111.463 95.1391 111.438 96.1298C111.422 96.7572 111.402 97.3641 111.536 97.9576C111.752 98.9203 113.155 97.6069 113.415 97.3974C114.499 96.5227 115.341 95.3553 116.344 94.3893C117.295 93.4732 118.208 92.5548 119.077 91.5603C120.586 89.8342 121.861 87.7333 123.066 85.7773C123.265 85.4531 123.464 85.2206 123.697 84.9323C123.875 84.7114 123.525 85.4739 123.461 85.7506C123.022 87.6752 122.695 89.6645 122.114 91.5539C121.91 92.2173 121.835 92.8996 121.645 93.562C121.54 93.9268 121.352 94.2939 121.417 94.6793C121.463 94.9597 122.479 93.4123 122.644 93.2095C124.74 90.6321 126.83 87.9586 128.396 85.0166C129.231 83.448 129.822 81.7028 130.696 80.1658C131.18 79.3131 130.877 81.1895 130.835 81.4291C130.445 83.666 130.482 85.984 129.831 88.1793C129.768 88.3928 128.911 90.853 129.435 90.4325C130.252 89.7767 130.944 88.8714 131.665 88.1164C133.14 86.5701 134.608 85.0253 135.895 83.3151C136.941 81.926 137.54 80.4771 138.281 78.9359C138.317 78.8606 138.637 77.924 138.762 77.9623C138.762 77.9623 138.648 78.3308 138.646 78.339C138.557 78.6518 138.525 78.9714 138.469 79.2906C138.159 81.0364 137.813 82.8443 137.33 84.548C137.268 84.7678 137.16 85.2256 137.528 84.8725C138.279 84.1502 139.119 83.5651 139.832 82.794C141.884 80.5779 143.569 78.3427 145.209 75.8216C145.34 75.6195 145.455 75.3522 145.654 75.2328C145.812 75.138 146.091 75.0267 145.747 75.1458C143.901 75.7836 142.034 76.7069 140.242 77.4938C138.845 78.1072 137.361 78.9751 135.849 79.2273" stroke="#171717" stroke-width="4" stroke-linecap="round"/>
<path d="M93.6684 104.898C91.2815 94.2877 91.61 72.6694 109.548 64.4172C126.709 56.5121 143.806 67.4609 149.372 73.3152" stroke="#171717" stroke-width="2" stroke-linecap="round" stroke-linejoin="round"/>
<path d="M107.356 60.5657C125.854 53.276 139.404 43.701 137.622 39.1794C135.84 34.6577 119.401 36.9017 100.903 44.1914C82.4054 51.4811 68.8547 61.0561 70.6366 65.5778C72.4186 70.0994 88.8584 67.8554 107.356 60.5657Z" stroke="#171717" stroke-width="2"/>
<path d="M124.485 94.2062C140.095 85.7811 151.533 76.6976 150.033 73.9178C148.532 71.1379 134.661 75.7143 119.051 84.1395C103.442 92.5646 92.0034 101.648 93.5038 104.428C95.0041 107.208 108.875 102.631 124.485 94.2062Z" stroke="#171717" stroke-width="2"/>
<path d="M103.946 52.1484L109.548 64.4167" stroke="#171717" stroke-width="2" stroke-linecap="round" stroke-linejoin="round"/>
<path d="M147.874 73.1474C147.127 72.5829 145.798 72.5508 145.213 71.8686C144.289 70.7895 143.013 69.7692 141.842 68.9489C140.504 67.9934 139.104 67.1026 137.83 66.2088C135.012 64.2124 131.104 64.8101 127.978 63.6813C127.072 63.3609 126.104 63.1053 125.184 62.6966C124.531 62.3703 123.657 61.8088 122.872 61.7765C122.049 61.7326 121.237 61.6504 120.39 61.6829C119.025 61.7655 118.273 62.5802 117.055 63.001C113.468 64.325 110.348 66.7135 106.872 67.9463C105.266 68.5406 103.729 69.8672 102.194 70.7762C100.659 71.6852 99.2737 73.0588 98.2829 74.5118C96.1307 77.7001 95.2962 81.5027 94.0881 85.0232C93.0094 88.123 93.8717 91.9871 94.0752 95.2721C94.2816 98.6834 94.0146 101.865 94.221 105.277" stroke="#171717" stroke-width="2" stroke-linecap="round"/>
<path d="M104.305 51.7988C104.37 52.9487 104.179 54.5221 104.746 55.5336C105.197 56.3835 105.582 57.1716 106.07 58.0331C107.244 60.068 108.953 61.7234 109.112 64.1996" stroke="#171717" stroke-width="2" stroke-linecap="round"/>
<path d="M109.677 58.2428C105.324 58.7069 101.512 60.1519 97.376 61.3764C94.7227 62.1776 92.6031 63.5199 89.7559 63.7859C88.4823 63.9165 87.1475 64.4243 85.8627 64.5956C84.3968 64.8046 82.9871 64.8101 81.5953 65.2146C79.4568 65.8511 76.5916 65.7182 74.3446 65.9745C73.5521 66.0626 72.2321 65.7425 72.1564 64.9335C72.0566 63.5924 73.1639 62.6716 73.9479 61.5304C75.0251 59.9445 76.63 58.7668 78.053 57.32C79.2388 56.1144 80.1718 55.671 81.7042 54.9112C83.3383 54.0918 85.1827 53.5931 86.834 52.8661C88.6777 52.0607 90.4929 51.2037 92.4106 50.5939C93.1574 50.3618 94.0559 49.7338 94.6889 49.2953C95.5763 48.7079 96.6343 48.4304 97.5673 47.987C98.9583 47.2757 100.559 46.5785 102.024 46.0628C103.873 45.3904 105.937 44.2516 107.644 43.321C109.261 42.4094 110.851 42.0595 112.56 41.4357C115.037 40.4985 117.445 39.192 120.145 38.8415C124.803 38.1989 129.665 37.4372 134.431 37.1747C134.992 37.1541 136.335 37.6995 136.817 37.9637C137.741 38.4811 137.788 39.2385 137.842 40.1289C137.947 41.2963 137.184 41.7427 136.507 42.6507C135.779 43.5885 134.983 44.7705 133.972 45.4987C130.333 48.1736 126.158 49.6939 121.945 51.51C116.273 53.9748 111.532 57.7035 105.644 60.0213" stroke="#171717" stroke-width="2" stroke-linecap="round"/>
<path d="M94.9306 104.232C95.523 102.306 97.3569 100.992 98.7574 99.6606C99.5844 98.8744 100.67 98.3358 101.609 97.678C102.774 96.8611 103.939 96.0552 105.187 95.3712C107.474 94.1187 109.459 92.4517 111.693 91.095C113.192 90.1848 114.414 88.8724 115.874 87.8974C117.527 86.7937 119.147 85.642 120.746 84.4638C122.512 83.1626 124.58 82.1523 126.41 80.9153C128.742 79.3392 131.438 78.2878 133.933 76.9918C135.695 76.0764 137.552 75.9007 139.362 75.2139C140.305 74.856 141.304 74.9374 142.259 74.6701C143.942 74.1988 147.406 73.7369 149.045 74.2407" stroke="#171717" stroke-width="2" stroke-linecap="round"/>
<path d="M150.157 75.1507C149.43 77.5136 148.513 79.6918 147.121 81.7456C146.276 82.9924 144.797 83.9937 143.62 84.916C142.515 85.7822 141.265 86.5607 140.242 87.5293C139.387 88.3389 138.232 88.8828 137.202 89.4282C135.597 90.2784 133.93 91.2474 132.194 91.7921C129.492 92.6394 126.975 94.4941 124.166 94.9628C123.36 95.0973 122.57 95.3141 121.764 95.4485C121.085 95.5618 120.358 96.1173 119.706 96.3619C118.393 96.8541 117.04 97.3717 115.762 97.9477C115.121 98.2367 114.524 98.6082 113.867 98.8763C113.277 99.117 112.768 99.5405 112.174 99.741C110.421 100.333 108.81 101.336 107.042 101.913C106.007 102.251 104.936 102.481 103.885 102.761C103.079 102.976 102.3 103.314 101.473 103.44C99.3132 103.767 97.1633 104.085 95.2291 105.109" stroke="#171717" stroke-width="2" stroke-linecap="round"/>
</svg>
