<svg width="400" height="444" viewBox="0 0 400 444" fill="none" xmlns="http://www.w3.org/2000/svg">
<path d="M209.69 410.55C208.9 410.55 208.1 410.48 207.32 410.33L189.27 406.92C183.15 405.78 178.68 400.4 178.68 394.15V330.35C173.07 331.36 167.46 331.86 161.96 331.86C158.79 331.86 155.61 331.69 152.51 331.35C150.29 331.11 148.06 330.78 145.84 330.38V383.37L153.25 384.77C160.3 386.11 164.94 392.92 163.61 399.96C162.45 406.09 157.08 410.55 150.84 410.55C150.09 410.55 149.34 410.48 148.59 410.35L130.42 406.92C124.3 405.78 119.83 400.4 119.83 394.15V321.56C109.39 316.15 99.9703 308.66 92.4803 299.79C74.7803 278.85 66.5203 250.58 67.9303 215.76C61.1803 199.23 59.3303 183.81 62.3803 169.81C57.7803 169.6 53.6403 166.98 51.4803 162.87C49.8703 159.83 49.5403 156.31 50.5603 152.99C51.6003 149.65 53.8503 146.94 56.9203 145.32C61.1603 143.08 65.5803 141.94 70.0403 141.94C70.5303 141.94 71.0303 141.95 71.5203 141.98L71.9203 140.83L76.7903 142.7H76.8203C79.7003 139.79 82.8503 137.31 86.0803 135.42C86.6903 132.98 87.5103 130.6 88.5303 128.3C87.5103 128.23 86.5303 128.09 85.6103 127.88C80.8203 127.14 76.9003 123.83 75.3503 119.21C74.8303 117.89 74.5203 116.48 74.4303 115.02C73.0903 106.96 73.4803 98.46 75.4603 90.84C74.0203 90.97 72.6603 91.03 71.3903 91.03C58.6003 91.03 54.0903 84.43 52.5403 80.49C48.8903 71.23 52.4604 57.08 90.1303 42.24C100.01 38.35 109.83 35.6 117.76 34.52C120.33 34.17 122.71 34 124.85 34C137.64 34 142.15 40.62 143.7 44.57C145.57 49.32 145.82 56.29 138.08 64.17C144.11 67.12 149.02 70.81 152.02 73.75C153.41 74.89 154.57 76.28 155.43 77.86C156.79 80.39 158.15 84.67 156.11 89.94C158.16 89.71 159.79 89.57 160.9 89.5L161.31 89.47H161.72C181.27 89.47 198.65 92.89 213.38 99.63C216.45 100.49 219.45 100.96 221.85 100.96C224.61 100.96 225.96 100.39 226.52 100.05C228.54 98.81 230.88 98.15 233.28 98.15C237.78 98.15 242.04 100.54 244.38 104.39C246.19 107.35 246.74 110.86 245.9 114.25C245.29 116.76 243.96 119 242.08 120.72C251.15 131.1 257.12 143.51 258.66 155.4C259.14 159.13 257.99 162.88 255.5 165.69C255.44 165.76 255.38 165.83 255.32 165.89C261.58 180.54 265.68 196.83 267.23 213.19C267.33 214.26 267.42 215.35 267.5 216.46C267.97 217.31 268.34 218.2 268.61 219.13C273.54 236.22 282.14 247.55 287.27 248.25C287.45 248.27 287.63 248.29 287.82 248.29C291.46 248.29 298.45 243.28 307.13 229.23L307.24 229.05L307.6 228.52L317.13 215.18C319.58 211.77 323.53 209.74 327.71 209.74C330.45 209.74 333.07 210.58 335.29 212.18C338.08 214.17 339.95 217.16 340.53 220.59C340.7 221.65 340.75 222.71 340.67 223.75C345.67 225.56 349.25 230.36 349.25 235.98C349.25 243.15 343.42 248.98 336.25 248.98H325.26C313.53 265.77 300.94 274.28 287.83 274.28C286.48 274.28 285.11 274.19 283.76 274C276.27 272.98 269.1 269 262.73 262.39C262.29 263.59 261.83 264.75 261.35 265.85C250.89 289.72 229.81 310.59 204.65 322.12V383.37L212.06 384.77C219.11 386.1 223.75 392.92 222.42 399.96C221.26 406.09 215.89 410.55 209.65 410.55H209.69Z" fill="white"/>
<path d="M236.36 156.84C257.56 192.72 258.68 239.56 249.48 260.48C233.84 296.16 192.48 322.48 153.92 318.28C117.24 314.28 77.5599 284.76 80.9999 214.6" stroke="#171717" stroke-width="2" stroke-linecap="round"/>
<path d="M188.8 203.4C195.2 203.8 205.04 207.08 193.2 217" stroke="#171717" stroke-width="2" stroke-linecap="round" stroke-linejoin="round"/>
<path d="M234.88 156.6C236.36 160.84 237.88 165.04 240.48 168.32C243.52 172.16 245.32 178.52 247.8 183.04C250.16 187.4 253.8 192.36 253.8 197.44C253.8 200.92 255.96 204.44 255.96 207.96C255.96 211.28 255.96 214.6 255.96 217.92C255.96 225.04 255.6 233.2 252.16 239.52C250.84 241.92 251.72 247.28 251.44 250.04C251.12 253.12 248.88 256.12 248.56 258.92C247.84 265.2 241.08 273.2 238.28 278.88C232 291.64 222.84 299.2 210.76 306.04C207.64 307.8 204.56 308.12 201.52 309.68C198.76 311.08 194.52 314.04 191.72 314.36C185.32 315.12 177.12 318.92 170.84 319.32C166 319.6 161.36 322.16 156.36 319.32C151.6 316.64 141.48 315.8 136.2 315.48C125.56 314.88 116.28 305.24 108.44 298.88C104.8 295.92 100.52 285.72 98.1999 281.28C95.5999 276.32 93.3599 271.84 89.6399 267.64C80.2399 257.04 81.7599 242.52 81.7599 228.56C81.7599 224 81.3599 219.2 81.7599 214.6" stroke="#171717" stroke-width="2" stroke-linecap="round"/>
<path d="M188 203C189.862 203 191.729 203.074 193.514 203.68C194.272 203.938 194.888 204.536 195.508 205.018C196.234 205.583 196.634 206.477 196.983 207.308C197.467 208.463 197.74 209.469 197.74 210.737C197.74 211.761 196.849 212.837 196.11 213.488C195.129 214.351 194.081 215.349 193.355 216.438" stroke="#171717" stroke-width="2" stroke-linecap="round"/>
<path d="M82.5723 211.556C81.8482 209.926 81.2455 208.208 80.5054 206.564C80.0167 205.478 77.9835 202.594 78.8737 203.385C80.3698 204.715 81.7034 206.202 83.3337 207.41C83.6906 207.674 86.7124 210.193 85.3885 208.703C82.482 205.433 81.2321 201.26 79.3088 197.414C78.1031 195.002 76.5239 192.975 75.5015 190.476C74.8512 188.887 75.3075 189.911 75.8762 190.67C77.8085 193.246 80.333 195.335 82.0888 198.067C83.3323 200.001 84.5818 202.563 86.2709 204.158C86.6422 204.509 86.7595 204.252 86.6576 203.844C86.2955 202.396 85.2112 201.558 84.4457 200.339C82.6194 197.43 81.4698 193.754 80.5175 190.464C80.0081 188.704 79.0001 187.204 78.3902 185.496C78.2666 185.15 77.7619 184.167 77.9067 184.505C78.2657 185.343 78.5944 186.038 79.1396 186.802C82.1936 191.077 85.4251 195.41 88.8816 199.36C89.3849 199.935 90.0746 200.601 90.6705 201.064C90.8983 201.241 90.0211 199.421 89.9211 199.275C88.4193 197.084 87.3237 194.833 86.2709 192.398C84.6958 188.756 83.4404 185.057 81.4845 181.58C80.5269 179.878 79.9075 178.001 78.8737 176.359C78.704 176.089 77.7235 174.203 78.354 175.464C80.214 179.184 84.1816 181.613 86.8873 184.674C88.4374 186.428 89.7056 188.368 91.1056 190.234C91.8572 191.237 92.7457 192.361 93.1845 193.546C93.4423 194.242 93.7658 194.976 94.224 195.565C95.1857 196.801 92.6905 194.934 92.3626 194.537C90.6394 192.451 88.8535 190.233 87.5883 187.829C85.8885 184.599 85.2096 180.732 84.4337 177.205C84.1318 175.832 83.6348 174.527 83.3337 173.156C83.0521 171.873 82.817 170.559 82.1855 169.397C81.8147 168.714 81.741 167.584 81.2185 167.003C79.7648 165.388 79.8272 168.066 80.1791 169.034C80.4444 169.764 80.5241 170.567 80.723 171.318C81.1174 172.809 81.7815 174.208 82.1372 175.706C82.3413 176.565 82.5506 177.279 82.9591 178.051C83.0195 178.165 82.2922 176.936 82.1372 176.637C80.4883 173.457 80.9681 168.541 81.9679 165.166C82.2829 164.103 82.3547 163.171 82.3547 162.072C82.3547 161.716 82.2988 161.436 82.4635 161.963C82.8288 163.132 83.1046 164.165 83.7084 165.263C85.2961 168.15 87.4042 170.634 89.208 173.373C90.7967 175.786 93.0204 177.684 94.5383 180.13C95.6958 181.995 97.0574 183.732 98.1885 185.617C98.7999 186.636 99.1355 187.893 99.8565 188.82C100.248 189.323 100.115 190.109 100.364 190.67C100.447 190.856 100.493 191.454 100.388 191.636C99.9162 192.463 97.3786 189.64 97.149 189.364C92.8854 184.236 87.6954 179.841 85.0743 173.591C84.6991 172.696 84.3499 171.799 83.9985 170.895C83.6729 170.058 84.1519 171.943 84.2644 172.177C85.972 175.718 87.7921 179.26 89.9211 182.571C91.4922 185.015 93.4343 187.011 95.191 189.255C95.5969 189.774 96.7966 191.105 97.5842 191.105C98.2654 191.105 99.8701 188.771 100.412 188.288C101.158 187.625 102.258 186.912 103.132 186.427C103.534 186.204 103.693 186.368 103.325 185.859C102.353 184.513 101.036 183.434 100.195 181.991C97.0269 176.554 95.4915 170.403 93.2812 164.562C92.4583 162.387 91.4195 160.258 90.4046 158.156C89.8534 157.014 89.3212 155.881 88.5432 154.88C88.1224 154.339 87.6226 153.851 87.3103 154.554C86.8722 155.54 86.2566 156.091 85.5094 156.838C85.3247 157.023 83.9396 158.63 84.1436 158.857C84.2708 158.998 84.6329 159.047 84.7963 159.123C85.7546 159.57 86.3601 160.555 86.9719 161.371C89.3449 164.535 91.6966 167.665 93.8372 170.992C94.8078 172.501 95.9336 173.962 96.6656 175.609C96.8086 175.931 97.6321 177.1 96.9073 176.939C95.469 176.619 94.3646 174.55 93.668 173.434C92.1339 170.975 90.8808 168.336 89.3167 165.904C88.3522 164.403 87.4181 162.675 86.2225 161.347C86.0374 161.141 85.9821 160.841 86.0654 160.549C86.202 160.071 87.4921 161.006 87.6246 161.081C88.1846 161.397 92.1451 163.583 92.1451 162.906C92.1451 161.938 91.4905 161.234 91.0573 160.416C90.4287 159.229 90.0212 157.935 89.8002 156.609C89.5587 155.159 89.5343 150.74 89.5343 152.209C89.5343 153.818 89.8048 155.184 89.486 156.778C89.2289 158.063 89.589 161.986 89.3047 160.706C88.8688 158.745 87.8928 156.932 87.407 154.989C87.1484 153.955 88.2517 154.203 88.8816 153.853C89.7423 153.375 89.8473 151.904 90.0782 151.073C90.2543 150.439 90.1736 149.127 90.6705 150.469C90.94 151.196 91.4884 151.878 92.0726 152.378C93.6715 153.749 95.4367 154.946 97.0523 156.307C100.573 159.272 103.873 162.818 106.492 166.617C108.243 169.155 109.987 171.684 110.807 174.691C110.985 175.344 111.477 176.548 110.275 175.513C108.101 173.638 106.316 171.379 104.546 169.131C102.508 166.543 100.148 164.242 98.1402 161.637C96.7231 159.798 95.5128 157.922 93.8856 156.294C93.3897 155.799 91.9863 153.838 92.8219 155.569C94.5249 159.097 95.7724 162.814 97.5358 166.302C99.1243 169.445 101.144 172.171 102.927 175.174C103.674 176.433 104.18 177.875 105.078 179.03C105.334 179.358 105.588 179.912 104.933 179.525C103.626 178.753 102.683 177.573 101.5 176.649C100.41 175.797 97.5556 172.821 98.3336 173.965C99.5074 175.692 100.996 177.301 102.322 178.921C103.252 180.058 104.326 181.741 104.764 183.164C104.807 183.303 105.392 184.283 105.392 183.877C105.392 182.509 104.273 181.122 103.628 180.009C101.806 176.866 100.994 173.292 99.2401 170.134C98.5787 168.943 101.385 171.813 102.479 172.624C103.964 173.724 105.414 174.785 106.722 176.093C106.91 176.281 108.434 177.889 108.148 177.301C107.133 175.215 105.688 173.247 104.498 171.258C102.483 167.89 100.689 164.502 99.1313 160.9C97.9534 158.176 97.1737 155.322 95.9524 152.608C95.5225 151.652 95.0824 150.694 94.7075 149.719C94.6126 149.472 94.165 149.007 94.1998 148.728C94.205 148.687 95.2683 149.525 95.336 149.574C100.896 153.577 106.371 157.508 110.203 163.256C111.897 165.798 113.264 168.548 114.989 171.04C115.983 172.475 114.882 171.794 113.986 171.065C111.495 169.035 108.669 166.44 106.951 163.692C105.407 161.22 104.247 158.551 102.806 156.029C102.012 154.639 100.953 153.091 100.412 151.605C100.12 150.799 99.6829 150.059 99.373 149.284C98.7666 147.768 99.5748 148.846 100.509 149.55C104.713 152.717 109.3 155.419 113.66 158.361C115.573 159.653 116.931 161.477 118.579 163.039C118.897 163.34 120.75 165.607 119.558 164.344C118.248 162.957 117.586 161.08 116.464 159.558C114.896 157.43 113.463 155.029 111.726 153.043C111.052 152.273 110.293 151.322 109.816 150.42C109.544 149.907 108.377 149.682 107.918 149.224C107.19 148.496 106.027 146.126 104.5 144.5C102.153 142 101.249 137.296 99.6631 138C99.2677 138.176 99.0721 144.983 99.6631 145.743C100.319 146.586 101.395 147.258 102.153 148.027C103.629 149.523 104.856 151.251 106.263 152.813C109.694 156.626 112.645 160.821 114.663 165.529C115.422 167.299 116.035 169.02 118.035 169.131C118.482 169.156 118.616 169.275 118.374 168.599C117.908 167.299 116.788 165.993 115.968 164.888C115.228 163.89 114.744 162.732 114.216 161.613C113.816 160.767 114.672 161.611 114.868 161.842C115.705 162.831 116.435 163.51 117.6 164.127C118.126 164.405 119.833 165.982 119.123 164.562" stroke="#171717" stroke-width="4" stroke-linecap="round"/>
<path d="M123.384 163.201C123.384 161.592 122.857 160.292 122.259 158.809C121.331 156.51 120.451 154.242 119.242 152.068C117.394 148.741 114.995 145.677 113.252 142.324C111.538 139.028 109.603 135.696 107.248 132.817C102.857 127.451 113.409 145.245 116.755 151.317C117.672 152.982 118.698 154.67 119.479 156.404C120.027 157.623 119.32 156.915 118.728 156.279C116.41 153.789 114.806 150.719 112.863 147.953C111.085 145.424 108.941 143.131 107.248 140.559C106.459 139.362 105.747 138.099 104.926 136.931C104.526 136.362 104.224 135.377 103.62 134.986C103.34 134.805 102.352 133.679 102.619 133.679C103.759 133.679 104.629 134.503 105.872 134.43C106.453 134.395 105.872 131.918 105.872 131.427C105.872 130.992 105.463 128.977 105.872 128.925C106.422 128.857 107.422 127.159 107.678 126.674C108.903 124.361 108.671 126.793 109.18 127.98C110.385 130.793 112.557 133.257 114.128 135.875C115.834 138.718 117.803 141.372 119.632 144.131C120.55 145.517 121.241 147.038 122.133 148.44C122.553 149.099 123.168 149.935 123.384 150.691C123.673 151.7 124.94 153.787 125.761 154.444C125.991 154.628 128.454 157.701 128.499 157.641C128.939 157.055 124.522 151.62 124.135 151.025C121.68 147.252 119.814 143.026 117.894 138.961C116.208 135.39 114.938 131.542 113.127 128.05C112.269 126.396 111.79 124.348 111.389 122.546C111.264 121.981 111.813 123.32 112.029 123.574C114.274 126.21 116.633 128.788 118.784 131.497C121.709 135.18 124.43 139.031 127.387 142.686C128.65 144.246 129.654 145.892 130.529 147.689C131.225 149.121 131.754 150.53 132.641 151.887C133.209 152.756 133.861 153.546 134.337 154.444C134.611 154.962 134.581 155.051 133.976 154.583C132.345 153.323 131.272 152.138 130.084 150.441C126.815 145.772 123.794 141.128 122.133 135.625C121.077 132.123 120.454 128.347 119.937 124.728C119.596 122.336 117.88 117.778 117.88 117.778C117.88 117.778 118.314 119.012 118.645 119.571C120.036 121.918 121.866 123.927 123.537 126.076C125.714 128.875 127.904 131.585 129.875 134.541C131.204 136.533 132.231 138.671 133.517 140.684C136.08 144.695 138.047 149.219 140.397 153.332C140.812 154.058 141.508 154.624 141.898 155.306C142.4 156.184 141.154 154.347 141.008 154.166C138.726 151.333 136.45 148.159 134.796 144.923C132.945 141.304 131.449 137.495 129.75 133.804C128.558 131.215 127.229 128.691 126.15 126.048C124.876 122.927 124.396 119.238 122.759 116.291C122.523 115.866 122.199 115.677 122.634 116.166C123.302 116.918 123.681 118.054 124.246 118.89C126.841 122.73 130.035 126.177 132.836 129.871C134.924 132.625 136.625 135.61 138.395 138.571C140.543 142.164 142.87 145.817 144.594 149.635C145.225 151.032 146.173 153.24 147.207 154.389C147.391 154.593 147.847 155.278 147.652 155.084C146.547 153.978 145.658 151.852 144.789 150.525C140.707 144.287 137.336 137.544 134.448 130.677C132.835 126.842 131.749 122.777 129.945 119.029C129.203 117.488 128.338 116.038 127.582 114.526C127.235 113.831 128.041 115.041 128.166 115.193C129.862 117.266 131.999 119.026 133.892 120.92C138.907 125.934 142.533 131.7 145.776 137.946C147.582 141.424 148.926 145.113 150.529 148.676C151.116 149.981 152.334 151.433 152.642 152.818C152.821 153.624 152.263 152.826 151.905 152.429C150.262 150.603 148.896 148.292 147.402 146.327C144.081 141.96 141.063 137.499 138.646 132.553C137.976 131.183 137.267 129.768 136.519 128.439C136.24 127.942 135.685 126.962 136.408 128.092C140.102 133.864 143.765 139.641 147.013 145.688C148.394 148.26 149.881 150.82 151.155 153.444C151.54 154.237 152.815 156.517 151.155 154.945C149.488 153.365 146.973 152.822 145.206 151.331C141.138 147.899 137.799 144.104 134.893 139.683C133.137 137.013 130.884 134.936 128.944 132.428C127.527 130.597 126.14 128.74 124.635 126.98C123.352 125.478 122.134 123.929 120.827 122.476C120.239 121.823 119.97 121.25 119.576 120.419C119.278 119.789 119.154 117.929 118.631 117.667" stroke="#171717" stroke-width="4" stroke-linecap="round"/>
<path d="M162.608 153.555C161.239 149.876 159.803 146.228 158.299 142.603C156.552 138.393 155.073 133.57 152.656 129.676C150.481 126.172 147.732 122.738 146.151 118.918C145.066 116.296 143.671 113.687 141.648 111.663C141.34 111.356 140.103 109.272 139.702 109.272C139.156 109.272 140.996 112.852 141.05 112.956C143.422 117.524 145.253 122.361 147.207 127.119C150.264 134.56 153.891 141.693 157.354 148.941C158.014 150.322 158.787 151.937 159.161 153.43C159.464 154.645 159.913 154.962 158.605 153.472C150.436 144.166 146.444 132.172 139.646 121.976C137.97 119.462 136.314 117.108 134.893 114.415C134.488 113.647 132.726 111.397 134.198 113.414C136.493 116.56 138.787 119.729 141.022 122.921C143.121 125.92 144.877 129.16 147.096 132.067C148.202 133.516 145.949 130.313 145.762 130.01C144.245 127.552 142.883 125.003 141.592 122.421C140.421 120.079 139.325 117.589 138.59 115.11C138.452 114.645 137.322 111.869 136.7 112.024C136.455 112.086 139.683 117.04 139.813 117.209C142.841 121.14 145.838 125.078 148.903 128.981C150.754 131.339 152.343 133.901 154.157 136.292C155.104 137.541 155.956 138.779 156.659 140.184" stroke="#171717" stroke-width="4" stroke-linecap="round"/>
<path d="M230.713 128.675C230.713 131.2 231.722 133.396 232.715 135.68C234.017 138.676 235.321 141.652 236.662 144.631C238.083 147.789 239.391 150.899 241.096 153.93C241.399 154.469 241.665 155.02 241.972 155.556C242.694 156.821 239.693 153.72 238.719 152.637C234.176 147.583 230.119 141.345 227.225 135.194C225.617 131.778 224.073 128.347 222.457 124.936C221.789 123.525 219.175 119.622 219.955 120.975C220.782 122.409 221.208 124.298 221.818 125.84C223.344 129.699 224.912 133.546 226.335 137.445C228.194 142.54 230.448 147.496 232.909 152.331C233.503 153.498 233.828 153.389 234.5 154.5C234.718 154.861 235.595 155.69 235.195 155.556C233.681 155.052 232.926 154.488 231.964 153.332C229 149.768 226.447 145.874 224.222 141.81C221.332 136.528 218.701 131.059 216.008 125.673C215.123 123.903 214.382 122.08 213.701 120.224C213.126 118.661 212.177 117.094 211.699 115.54C211.594 115.197 210.728 114.239 211.088 114.804C211.577 115.573 211.913 116.291 212.2 117.167C213.934 122.465 215.676 127.767 217.467 133.053C219.083 137.82 221.224 142.399 222.902 147.133C223.744 149.509 225.197 151.54 226.21 153.819C226.405 154.258 226.759 154.615 226.961 155.069C227.652 156.625 225.816 153.627 225.557 153.276C222.924 149.708 220.333 146.185 218.204 142.282C215.726 137.738 213.87 132.821 211.699 128.119C210.795 126.159 209.891 124.193 209.003 122.226C208.325 120.726 207.345 119.406 206.849 117.806C206.381 116.3 205.445 114.002 205.445 112.413C205.445 112.224 205.818 113.158 205.889 113.414C206.222 114.611 206.607 115.788 207.001 116.972C208.916 122.716 210.382 128.563 212.214 134.332C213.649 138.855 214.725 143.887 216.759 148.189C217.569 149.904 218.442 151.657 219.08 153.443C219.234 153.876 220.342 155.659 219.677 155.042C217.908 153.398 216.498 151.2 215.216 149.176C212.404 144.736 210.071 140 207.752 135.291C204.896 129.491 202.53 123.209 200.191 117.194C199.193 114.629 198.462 112.066 197.745 109.411C197.554 108.707 197.289 108.073 196.994 107.409C196.627 106.584 197.367 107.837 197.439 108.16C197.655 109.131 198.456 110.08 198.954 110.926C200.381 113.351 201.86 115.741 203.193 118.223C204.69 121.01 206.043 123.842 207.446 126.674C208.634 129.071 210.029 131.479 210.824 134.04C211.198 135.246 211.701 136.427 211.949 137.668C212.007 137.954 212.2 139.104 212.2 138.933" stroke="#171717" stroke-width="4" stroke-linecap="round"/>
<path d="M215.452 155.445C215.415 155.115 215.191 154.808 215.049 154.514C214.226 152.805 213.381 151.104 212.547 149.399C210.501 145.215 208.587 140.963 206.251 136.932C203.147 131.576 200.016 126.225 196.813 120.934C194.454 117.036 191.771 113.172 189.933 109.036C189.838 108.823 189.331 107.529 189.488 107.966C190.302 110.227 192.721 112.059 194.172 113.901C196.011 116.234 197.764 118.612 199.44 121.059C199.714 121.458 201.089 123.4 200.441 121.865C200.078 121.005 199.507 120.379 198.954 119.641C198.088 118.486 197.528 117.053 196.827 115.791C195.956 114.223 195.446 112.498 194.562 110.926C194.135 110.167 193.303 109.646 192.935 108.911" stroke="#171717" stroke-width="4" stroke-linecap="round"/>
<path d="M181.927 106.659C182.06 108.118 182.851 109.483 183.484 110.773C184.566 112.98 185.6 115.209 186.681 117.417C188.006 120.124 189.23 122.993 190.378 125.784C192.909 131.939 194.977 138.276 197.925 144.27C199.621 147.717 200.694 151.447 202.567 154.819C203.315 156.165 201.951 153.783 201.789 153.513C197.738 146.76 195.435 139.048 192.491 131.788C190.604 127.137 187.796 121.732 187.681 116.583C187.666 115.88 188.19 117.363 188.237 117.472C188.928 119.05 189.819 120.524 190.739 121.976C195.79 129.942 200.245 138.262 204.458 146.688C204.98 147.733 205.64 148.705 206.056 149.802C206.168 150.097 206.378 151.178 206.793 151.261C207.755 151.454 205.667 149.652 205.055 148.884C203.668 147.142 202.418 145.203 201.317 143.269C200.124 141.176 199.125 138.993 198.217 136.764C198.145 136.588 197.444 134.963 197.592 135.11C198.164 135.682 198.548 136.506 198.954 137.195C199.786 138.611 200.859 139.854 201.886 141.129C205.046 145.048 207.1 149.951 210.448 153.693C210.545 153.801 210.872 154.293 210.587 153.888C209.872 152.872 208.943 152.017 208.197 151.025C204.739 146.427 202.856 140.852 200.427 135.708C197.816 130.18 195.36 124.578 193.06 118.918C192.306 117.061 191.06 115.368 190.183 113.553C189.448 112.029 188.568 110.575 187.737 109.105C187.579 108.826 185.727 103.721 185.485 103.962C185.019 104.429 186.069 107.191 186.18 107.715C186.949 111.33 187.193 114.665 188.571 118.181C192.009 126.955 198.214 134.224 202.679 142.449C204.87 146.486 206.93 151.013 208.197 155.445" stroke="#171717" stroke-width="4" stroke-linecap="round"/>
<path d="M199.19 155.195C198.969 152.539 197.02 149.817 195.563 147.69C192.904 143.81 190.799 139.444 188.432 135.375C184.561 128.718 180.49 122.21 176.813 115.444C175.316 112.689 174.196 109.737 172.796 106.937C172.321 105.988 171.735 105.102 171.364 104.102C171.259 103.818 170.919 103.007 170.919 103.31C170.919 104.174 171.992 105.108 172.476 105.714C175.831 109.918 179.435 114.128 182.442 118.585C186.324 124.339 189.623 130.527 193.13 136.515C194.073 138.124 195.132 139.66 196.077 141.268C196.861 142.603 196.194 141.508 195.66 140.907C191.689 136.439 189.644 130.91 187.084 125.604C184.551 120.352 181.205 114.916 179.926 109.161C179.738 108.315 178.394 105.769 177.674 105.409" stroke="#171717" stroke-width="4" stroke-linecap="round"/>
<path d="M166.654 155.533C166.605 155.014 166.398 154.541 166.22 154.054C165.555 152.234 164.946 150.397 164.356 148.551C163.595 146.167 162.947 143.716 162.078 141.371C160.751 137.79 159.381 134.211 157.699 130.779C155.377 126.043 152.749 121.459 150.756 116.568C150.202 115.208 149.352 114.038 148.813 112.662C148.358 111.499 148.184 110.221 147.876 109.023C147.675 108.238 147.607 107.154 147.216 106.449C147.038 106.13 147.01 106.015 147.206 106.479C147.849 108.002 149.062 109.525 150.046 110.838C155.978 118.748 161.337 127.278 165.954 136.026C167.957 139.821 169.863 143.641 171.802 147.466C172.714 149.266 173.997 150.908 174.889 152.693C174.966 152.846 175.718 154.533 175.954 154.439C176.029 154.409 173.695 150.859 173.577 150.661C171.686 147.498 170.071 144.099 168.429 140.799C165.781 135.479 163.796 129.875 161.328 124.477C159.989 121.547 159.082 118.476 157.64 115.591C156.083 112.477 154.764 109.424 153.606 106.183C153.494 105.868 153.501 105.522 153.518 106.084C153.558 107.488 155.097 108.93 155.904 109.95C159.651 114.686 163.151 119.549 166.555 124.536C168.775 127.789 170.735 131.255 172.69 134.675C174.864 138.481 176.767 142.483 179.041 146.223C180.327 148.338 181.469 150.552 182.542 152.782C182.825 153.37 183.065 154.167 183.518 154.646C184.159 155.322 183.673 154.28 183.479 153.995C181.797 151.528 180.797 148.677 179.613 145.957C177.837 141.88 176.153 137.783 174.642 133.6C172.477 127.604 170.592 121.51 167.995 115.69C167.269 114.063 166.39 112.508 165.766 110.838C165.293 109.57 164.883 108.193 164.307 106.972C163.995 106.311 163.452 105.398 163.291 104.674C163.168 104.119 163.199 104.52 163.36 104.842C164.059 106.239 164.991 107.456 165.954 108.678C169.662 113.384 173.391 118.249 176.24 123.54C179.078 128.811 181.868 134.039 184.228 139.547C185.666 142.901 187.212 146.235 188.844 149.498C189.36 150.53 189.843 151.59 190.432 152.584C190.546 152.777 191.09 153.609 190.974 153.541C190.112 153.034 189.581 151.669 189.081 150.878C187.466 148.325 185.741 145.846 184.14 143.284C182.974 141.419 181.748 139.561 180.816 137.564C179.715 135.205 178.916 132.722 177.798 130.365C176.819 128.299 175.738 126.233 174.652 124.221C174.238 123.454 173.915 122.665 173.538 121.883C173.431 121.661 173.222 120.966 173.222 121.213C173.222 123.709 174.518 125.658 175.619 127.86C178.326 133.275 181.463 138.549 184.011 144.034C185.091 146.357 185.975 148.777 187.069 151.085C187.414 151.814 188.651 154.646 189.732 154.646C190.124 154.646 190.681 154.311 191.063 154.212C191.866 154.003 192.775 154.113 193.597 154.113C194.193 154.113 194.747 154.084 195.314 154.291C195.597 154.394 196.057 154.641 195.669 154.182C193.527 151.651 192.232 148.34 190.757 145.415C188.781 141.493 186.107 137.987 184.14 134.053C182.624 131.022 181.387 127.87 179.593 124.98C177.66 121.866 176.31 118.428 174.287 115.374C172.187 112.205 170.762 108.724 168.607 105.611C167.231 103.623 164.679 104.632 162.571 104.398C161.83 104.315 160.83 104.23 160.125 104.013C159.611 103.855 159.775 104.023 159.997 104.418C160.631 105.544 161.151 106.566 161.605 107.8C163.238 112.245 164.903 116.661 166.565 121.094C168.466 126.164 169.744 131.358 171.269 136.539C173.052 142.592 174.643 148.832 177.66 154.389C178.41 155.77 177.167 154.862 176.556 154.251C173.555 151.25 170.444 148.547 168.686 144.606C167.036 140.909 165.127 137.264 163.143 133.738C162.801 133.13 162.307 132.501 162.048 131.854C161.888 131.453 162.325 132.674 162.482 133.077C163.719 136.238 164.878 139.49 165.845 142.742C166.646 145.431 167.207 148.267 168.252 150.878C168.834 152.333 169.163 153.806 169.849 155.178" stroke="#171717" stroke-width="4" stroke-linecap="round"/>
<path d="M245.8 156.92H131.6L81.8001 214.92C61.4001 170.52 86.2001 147.04 97.8001 144.32C99.5601 114.08 141.2 103.72 161.8 102.32C223.4 102.32 243.44 138.72 245.8 156.92Z" stroke="#171717" stroke-width="2" stroke-linejoin="round"/>
<path d="M98.0401 145.6C90.4401 145.6 80.7201 154.16 79.8401 162.04C79.5601 164.4 77.4801 166.08 77.4801 168.8C77.4801 171.12 75.7201 173.48 75.7201 175.84C75.7201 180.92 74.5601 185.6 74.5601 190.52C74.5601 192.76 74.5601 195 74.5601 197.28C74.5601 200.12 75.6401 202 75.7201 204.76C75.8001 206.92 79.9601 215.76 83.0401 213.36C87.0401 210.24 89.7201 204.52 92.0001 200.2C92.9601 198.4 95.0801 196.08 96.8401 195.04C98.6401 194 102.08 191.48 103.16 189.64C105.52 185.64 108.4 181.6 111.8 178.2C115.56 174.44 118.48 170.48 121.92 166.64C125.48 162.68 126.32 160.32 131.72 159.12C133.68 158.68 135.64 157.4 137.6 157.4C140.32 157.4 143.08 157.4 145.8 157.4C164.52 157.4 183.32 155.64 202.12 155.64C204.36 155.64 206.6 155.64 208.88 155.64C211.32 155.64 213.56 156.68 215.92 156.8C221.64 157.12 221.74 156.8 227.5 156.8C229.18 156.8 234.46 156.44 235.5 156.8C237.32 156.8 239.2 156.8 240.72 156.8C242.64 156.8 243.52 157.2 243.52 155.04C243.52 153.56 241.64 150.08 240.72 149.04C239.16 147.32 238.24 144.2 237.2 142.12C235.12 137.96 234.36 132.64 231.48 128.92C229.08 125.84 225.24 122.28 221.84 120.28C217.8 117.88 213.8 114.64 209.28 113.32C207.4 112.8 205.2 111.12 203.4 110.12C201.56 109.08 198.92 106.8 196.96 106.32C195.88 106.08 192.76 104.84 191.84 104.08C190.68 103.16 185.8 103.36 184.36 103.36C178.8 103.36 173.72 102.2 168.28 102.2C161.88 102.2 156.12 104.32 149.88 104.56C145.2 104.72 138.68 106.8 135.08 109.84C133.24 111.4 131.04 111.84 128.92 112.76C125.92 114.08 124.8 115.12 121.28 115.12C117.8 115.12 110.88 119.08 108.68 121.88C106.56 124.52 92.7201 142.64 97.5201 145.04" stroke="#171717" stroke-width="2" stroke-linecap="round"/>
<path d="M80.2 159.68C78 156.8 71.48 152.2 63 156.68M199.4 107.28C206.4 110.88 222.96 116.52 233.2 110.28" stroke="#171717" stroke-width="2" stroke-linecap="round" stroke-linejoin="round"/>
<path d="M79.6044 160.142C79.5199 159.382 77.8342 158.701 77.2892 158.213C76.7631 157.742 75.9831 157.34 75.3599 157.012C73.9445 156.267 72.9031 155.126 71.2119 155.126C68.1646 155.126 65.8705 157.441 62.8193 157.441" stroke="#171717" stroke-width="2" stroke-linecap="round"/>
<path d="M212.832 113.213C218.147 113.213 223.445 113.369 228.753 113.369C229.671 113.369 231.437 113.738 232.153 113.022C232.702 112.473 232.895 111.22 233.592 110.872" stroke="#171717" stroke-width="2" stroke-linecap="round"/>
<path d="M169.6 210.6C183.076 210.6 194 199.676 194 186.2C194 172.724 183.076 161.8 169.6 161.8C156.124 161.8 145.2 172.724 145.2 186.2C145.2 199.676 156.124 210.6 169.6 210.6Z" stroke="#171717" stroke-width="2" stroke-linecap="round" stroke-linejoin="round"/>
<path d="M218.4 210.6C231.876 210.6 242.8 199.676 242.8 186.2C242.8 172.724 231.876 161.8 218.4 161.8C204.924 161.8 194 172.724 194 186.2C194 199.676 204.924 210.6 218.4 210.6Z" stroke="#171717" stroke-width="2" stroke-linecap="round" stroke-linejoin="round"/>
<path d="M145 186.2H108" stroke="#171717" stroke-width="2" stroke-linecap="round" stroke-linejoin="round"/>
<path d="M249.6 186.2H242.8" stroke="#171717" stroke-width="2" stroke-linecap="round" stroke-linejoin="round"/>
<path d="M106.881 186.949C111.192 186.949 115.845 187.377 120.023 186.081C121.639 185.579 123.494 185.379 125.17 185.146C126.506 184.961 127.828 184.812 129.175 184.812C131.591 184.812 133.969 185.213 136.399 185.213C139.157 185.213 141.906 185.48 144.661 185.48" stroke="#171717" stroke-width="2" stroke-linecap="round"/>
<path d="M243.347 185.405C243.987 185.405 244.658 185.344 245.293 185.416C245.779 185.472 246.19 185.717 246.625 185.917C246.872 186.03 247.131 186.163 247.394 186.236C247.594 186.292 247.798 186.481 248.009 186.481" stroke="#171717" stroke-width="2" stroke-linecap="round"/>
<path d="M163.12 163.12C161.4 163.12 159.64 164.04 158.12 164.92C156.56 165.8 155.4 166.96 154.24 168.32C153.28 169.44 152 170.84 151.32 172.08C150.8 173 150.12 173.76 149.64 174.68C149.28 175.36 149.28 176.16 148.92 176.84C148.28 178.08 148.2 180.4 147.92 181.76C147.6 183.36 147.6 185.04 147.6 186.68C147.6 188.44 147.44 190.56 147.92 192.2C148.24 193.32 148.48 195.72 149.16 196.64C151 199.04 153.2 201.52 155.32 203.72C156.28 204.76 157.48 205.6 158.56 206.48C159.08 206.92 160.32 207.16 161 207.48C161.72 207.8 162.56 208.4 163.36 208.4C165.16 208.4 166.44 209.44 168.08 209.92C168.72 210.12 172.8 210.32 173.2 209.8C173.56 209.36 174.76 209.24 175.24 208.96C176.2 208.44 176.96 207.6 178 207.16C179.4 206.64 181.4 206.08 182.52 204.92C184.32 203 185.96 201 187.8 199.04C188.76 198 189.08 196.4 189.68 195.08C190.36 193.64 191.68 191.6 191.68 190C191.68 186.6 192.44 182.92 191.68 179.52C191.36 178.08 191.2 176.48 190.48 175.2C189.64 173.68 188.8 172.84 187.6 171.6C185.28 169.16 182.56 166.52 179.6 164.96C177.72 163.96 176.76 163.36 174.6 163.36C172.88 163.36 171.16 162.44 169.48 162.44C167.84 162.44 166.2 162.12 164.48 162.12C162.96 162.12 160.12 162.24 158.92 163.2C158.12 163.84 157.04 164.08 156.12 164.52C155.28 164.92 154.88 165.56 154.2 166.28C153.04 167.48 151.36 170.08 150.32 172.48" stroke="#171717" stroke-width="2" stroke-linecap="round"/>
<path d="M199.04 198.599C199.52 200.319 200.84 201.879 202.04 203.199C203.28 204.559 204.64 205.439 206.24 206.279C207.52 206.959 209.2 207.919 210.56 208.319C211.52 208.599 212.44 209.119 213.44 209.399C214.2 209.599 214.92 209.399 215.68 209.599C217 209.959 219.16 209.439 220.56 209.399C222.12 209.359 223.68 208.879 225.24 208.479C226.84 208.039 228.88 207.639 230.32 206.799C231.28 206.199 233.44 205.359 234.12 204.439C235.88 201.959 237.56 199.119 239.04 196.439C239.72 195.199 240.2 193.799 240.76 192.479C241.04 191.839 240.92 190.519 241.04 189.759C241.16 188.919 241.48 187.959 241.28 187.159C240.8 185.319 241.4 183.759 241.4 181.999C241.4 181.319 240.48 177.119 239.88 176.839C239.36 176.599 238.92 175.399 238.56 174.959C237.8 174.119 236.8 173.559 236.16 172.599C235.28 171.319 234.24 169.439 232.88 168.599C230.6 167.239 228.28 166.079 226 164.719C224.8 163.999 223.2 164.079 221.84 163.799C220.32 163.479 218.04 162.639 216.56 163.039C213.4 163.879 209.8 164.039 206.8 165.639C205.52 166.319 204.08 166.919 203.08 167.919C201.88 169.119 201.36 170.199 200.52 171.719C198.88 174.679 197.16 178.079 196.52 181.479C196.12 183.639 195.8 184.759 196.36 186.919C196.84 188.639 196.44 190.639 196.88 192.359C197.32 193.999 197.48 195.759 197.96 197.479C198.36 199.039 199.24 201.879 200.48 202.839C201.32 203.479 201.8 204.519 202.44 205.359C203.04 206.119 203.76 206.319 204.6 206.839C206.04 207.719 208.92 208.799 211.4 209.239" stroke="#171717" stroke-width="2" stroke-linecap="round"/>
<path d="M182.52 187.08C182.52 190.8 181.8 194.12 180.72 196.48C179.56 198.92 178.24 199.88 177.12 199.88C176 199.88 174.68 198.92 173.52 196.48C172.4 194.12 171.72 190.84 171.72 187.08C171.72 183.32 172.44 180.04 173.52 177.68C174.68 175.24 176 174.28 177.12 174.28C178.24 174.28 179.56 175.24 180.72 177.68C181.8 180.04 182.52 183.36 182.52 187.08Z" stroke="#171717" stroke-width="2"/>
<path d="M233.72 187.08C233.72 190.48 233.04 193.48 232.04 195.6C230.96 197.8 229.72 198.68 228.72 198.68C227.72 198.68 226.48 197.8 225.4 195.6C224.36 193.48 223.72 190.48 223.72 187.08C223.72 183.68 224.4 180.68 225.4 178.56C226.48 176.36 227.72 175.48 228.72 175.48C229.72 175.48 230.96 176.36 232.04 178.56C233.04 180.68 233.72 183.72 233.72 187.08Z" stroke="#171717" stroke-width="2"/>
<path d="M178.32 185.68V188.88" stroke="#171717" stroke-width="2" stroke-linecap="round" stroke-linejoin="round"/>
<path d="M178.5 189.5C178.5 188.5 178.66 186.88 178.5 186" stroke="#171717" stroke-width="2" stroke-linecap="round"/>
<path d="M228.92 185.68V188.88" stroke="#171717" stroke-width="2" stroke-linecap="round" stroke-linejoin="round"/>
<path d="M177.401 198.52C176.321 198.52 175.721 197 175.241 196.2C174.761 195.32 174.161 194.52 173.721 193.6C172.521 191.16 172.001 188.64 172.001 185.92C172.001 184.12 171.961 182.36 172.361 180.6C172.561 179.68 172.721 178.76 172.961 177.88C173.241 176.92 173.801 176.08 174.121 175.16C174.801 173.12 176.241 173 178.121 173C178.641 173 178.921 174 179.121 174.4C179.521 175.32 180.201 176.2 180.601 177.12C181.201 178.52 181.881 179.88 182.241 181.36C182.601 182.8 183.281 184.4 183.281 185.88C183.281 187.56 183.361 189.2 182.921 190.84C182.561 192.16 182.201 193.48 181.961 194.84C181.801 195.76 181.521 197.08 180.961 197.84C180.641 198.32 180.121 198.32 179.721 198.64C179.481 198.84 179.161 199.16 178.921 199.32" stroke="#171717" stroke-width="2" stroke-linecap="round"/>
<path d="M230.24 177.2C230.16 177.2 230.32 177.36 230.36 177.36C230.6 177.64 230.8 177.92 231 178.2C231.32 178.68 231.68 179.16 231.92 179.68C232.16 180.16 232.28 180.72 232.4 181.24C232.56 181.96 232.92 182.64 233.16 183.36C233.48 184.36 233.52 185.36 233.52 186.4C233.52 187.32 233.56 188.2 233.36 189.12C233.28 189.52 233.2 190.04 233.04 190.4C232.96 190.56 233 190.76 232.88 190.56" stroke="#171717" stroke-width="2" stroke-linecap="round"/>
<path d="M232.8 190.44C232.8 190.8 232.8 191.2 232.76 191.56C232.68 192.4 232.32 193.12 231.92 193.84C231.4 194.72 231 195.68 230.4 196.52C230.08 196.96 229.52 197.68 228.92 197.76C228.48 197.84 227.92 197.72 227.6 197.36C227.04 196.72 226.8 195.88 226.44 195.12C226.28 194.8 226.04 194.56 225.88 194.24C225.6 193.8 225.52 193.24 225.4 192.76C225.28 192.4 225.12 192.04 225 191.68C224.88 191.32 224.76 190.96 224.56 190.64C224.32 190.2 224.08 189.76 223.92 189.28" stroke="#171717" stroke-width="2" stroke-linecap="round"/>
<path d="M223.96 189.28C223.96 187.72 223.96 186.2 223.96 184.64C223.96 183.76 223.8 182.92 224.28 182.16C224.72 181.44 225 180.68 225.36 179.88C225.56 179.36 225.88 178.88 226.2 178.4C226.56 177.92 227.04 177.48 227.64 177.28C228 177.16 227.92 177.04 228.16 176.84C228.36 176.64 228.6 176.56 228.8 176.4" stroke="#171717" stroke-width="2" stroke-linecap="round"/>
<path d="M229.28 189.76C229.28 188.84 229.36 187.88 229.2 187C229.12 186.52 228.96 186.04 228.96 185.52" stroke="#171717" stroke-width="2" stroke-linecap="round"/>
<path d="M132.84 314V394L150.84 397.4" stroke="#171717" stroke-width="2" stroke-linecap="round" stroke-linejoin="round"/>
<path d="M191.68 314V394L209.68 397.4" stroke="#171717" stroke-width="2" stroke-linecap="round" stroke-linejoin="round"/>
<path d="M131.314 314.57C131.314 320.229 131.145 325.858 131.848 331.479C132.697 338.27 133.108 345.139 133.671 351.961C133.921 354.991 133.9 358.126 133.598 361.152C133.329 363.838 133.182 366.563 132.842 369.238C132.744 370.012 132.932 370.841 132.723 371.596C132.65 371.858 132.486 372.354 132.474 372.591C132.384 374.299 133.189 376.096 133.598 377.73C134.194 380.116 133.8 382.911 133.8 385.355C133.8 387.455 133.8 389.555 133.8 391.655C133.8 392.876 135.677 393.197 136.655 393.607C138.361 394.322 140.146 394.818 141.96 395.173C143.861 395.545 145.77 395.981 147.688 396.259C148.856 396.429 150.093 396.423 151.206 396.794" stroke="#171717" stroke-width="2" stroke-linecap="round"/>
<path d="M190.381 316.009C190.381 321.594 190 327.223 191.051 332.714C191.816 336.705 192.046 340.694 192.046 344.756C192.046 350.528 192.002 356.269 192.417 362.028C192.775 367.007 193.151 371.948 193.492 376.905C193.59 378.315 193.712 379.668 193.712 381.093C193.712 381.683 193.599 382.294 193.4 382.851C193.14 383.58 193.38 384.399 193.192 385.153C192.978 386.009 193.088 386.971 193.088 387.849C193.088 388.766 192.879 389.623 192.879 390.544C192.879 391.592 192.208 393.493 192.717 394.512C194.07 397.217 198.429 396.386 200.781 396.386C202.242 396.386 203.703 396.386 205.165 396.386C205.92 396.386 209.17 396.483 209.538 397.219" stroke="#171717" stroke-width="2" stroke-linecap="round"/>
<path d="M223.2 214.48C226.88 215 233.52 217.64 230.8 223.88C227.84 230.64 219.16 231.84 212.6 228.24M212.6 228.24C211.6 227.68 210.68 227.04 209.8 226.28C203.2 220.48 203.6 227.08 193.8 223.88C184 220.68 171.4 208.88 155 218.08C138.6 227.28 138 239.68 148.6 239.48C159.2 239.28 185.2 236.28 200.6 239.48C212.92 242.04 213.72 233.08 212.6 228.24Z" stroke="#171717" stroke-width="2" stroke-linecap="round" stroke-linejoin="round"/>
<path d="M192.2 223.28C195.88 224.96 204.88 231.16 206 239.28" stroke="#171717" stroke-width="2" stroke-linecap="round" stroke-linejoin="round"/>
<path d="M135 222.88C137.2 214.88 145.52 207.56 155.6 206.28" stroke="#171717" stroke-width="2" stroke-linecap="round" stroke-linejoin="round"/>
<path d="M223.92 214.88C224.76 214.88 225.52 215.04 226.24 215.12C226.88 215.2 227.48 216.04 228.04 216.32C229.32 216.96 229.56 219 230.16 220.16C230.88 221.52 230.96 224.04 230.32 225.44C229.88 226.4 229.32 227.04 228.56 227.72C227.6 228.6 227.04 228.56 225.96 229.04C224 229.88 221.16 229.56 219 229.48C218.24 229.44 217.04 228.72 216.36 228.4C215.36 227.96 214.24 227.88 213.24 227.4C212.28 226.92 211.56 226.24 210.64 225.76C209.92 225.36 209.2 224.28 208.32 224.2C207.36 224.08 206.52 223.68 205.52 223.68C204.56 223.68 203.6 223.68 202.68 223.68C198.32 223.68 194.12 225.48 189.92 223.44C187.52 222.28 184.8 221.88 182.4 220.72C180.6 219.84 178.76 219 176.96 218.08C175.12 217.12 173.6 216.28 171.56 215.68C169.52 215.08 167.4 215.12 165.28 215.12C162.6 215.12 160.08 215 157.52 215.68C156.2 216 155.32 216.72 154.16 217.32C153.24 217.8 152.04 218.44 151.32 219.12C148.88 221.48 145.16 223.68 143.6 226.68C143.24 227.4 142.8 228.04 142.44 228.68C142.08 229.32 142.32 230.68 141.92 231.16C141.24 231.96 141.64 234.92 141.72 236C141.84 237.68 144.36 239 145.8 239.48C146.84 239.84 148 240.16 148.96 240.6C149.92 241 151.24 240.8 152.28 240.8C156.84 240.8 161 238.52 165.56 238.52C167.44 238.52 169.32 237.84 171.2 237.76C174.24 237.64 177.28 237.52 180.32 237.52C182.68 237.52 185.32 238 187.52 238.72C189.6 239.4 191.72 239.24 193.8 239.72C195.68 240.16 198.08 239.76 200.04 239.76C201.92 239.76 203.84 239.44 205.56 238.96C206.56 238.68 207.84 238.08 208.88 238C209.72 237.96 209.88 236.36 210.12 235.68C210.88 233.52 211.2 231.8 211.2 229.44" stroke="#171717" stroke-width="2" stroke-linecap="round"/>
<path opacity="0.8" d="M135.76 222.64C135.76 221.88 135.68 220.64 136.4 220.24C137.36 219.68 138.52 218.56 139.04 217.6C140.2 215.44 142.08 212.76 144.32 211.64C146.12 210.72 147.8 209.52 149.6 208.64C150.96 207.96 152.8 206.56 154.36 206.56" stroke="#171717" stroke-width="2" stroke-linecap="round"/>
<path d="M200.482 224.75C200.544 225.09 200.871 225.427 201.046 225.712C201.478 226.415 201.787 227.118 202.081 227.885C202.471 228.904 202.881 229.91 203.309 230.916C203.987 232.51 204.694 234.095 205.325 235.707C205.438 235.995 205.809 236.409 205.843 236.694C205.855 236.801 205.937 236.91 205.937 236.736C205.937 236.137 205.934 235.538 205.937 234.939C205.953 231.687 206.181 228.518 205.372 225.336C205.297 225.037 205.184 224.124 205.184 224.432C205.184 225.112 205.393 225.755 205.566 226.412C206.273 229.11 207.439 231.829 207.718 234.62C207.786 235.299 207.724 236.011 207.724 236.694C207.724 236.744 207.724 236.938 207.724 236.914C207.724 236.46 207.947 236.034 208.1 235.618C208.719 233.926 209.29 232.098 209.489 230.299C209.622 229.103 209.51 225.485 209.51 226.689C209.51 227.983 209.897 229.238 209.986 230.529C210.005 230.81 210.209 231.374 209.793 230.957C209.189 230.354 208.798 229.381 208.476 228.606C208.12 227.75 207.886 226.85 207.535 225.994C207.413 225.695 207.164 225.327 207.274 225.9C207.404 226.575 208.618 232.368 208.241 232.368C207.712 232.368 206.943 231.614 206.595 231.276C205.601 230.313 204.908 228.887 204.39 227.624C204.057 226.812 203.58 225.823 203.491 224.938C203.455 224.574 203.485 225.103 203.491 225.221C203.509 225.556 203.708 225.929 203.794 226.255C203.971 226.922 204.195 227.516 204.526 228.136" stroke="#171717" stroke-width="2" stroke-linecap="round"/>
<path d="M256.157 222.595C263.623 248.463 286.498 287.329 318.27 235.839M318.27 235.839H336.28M318.27 235.839L327.737 222.595" stroke="#171717" stroke-width="2" stroke-linecap="round" stroke-linejoin="round"/>
<path d="M256.338 220.979C256.338 226.703 255.912 230.994 258.668 235.954C261.286 240.666 264.368 244.305 267.801 248.119C273.67 254.64 278.579 263.923 289.247 260.875C293.267 259.727 297.153 258.67 300.413 255.736C303.879 252.616 309.132 250.849 311.58 246.566C314.129 242.104 317.372 238.23 319.419 233.624C320.344 231.542 322.348 230.125 323.56 228.004C324.729 225.959 327.882 224.98 328.885 222.975" stroke="#171717" stroke-width="2" stroke-linecap="round"/>
<path d="M318.983 235.567C324.708 235.567 330.391 235.208 336.11 235.208" stroke="#171717" stroke-width="2" stroke-linecap="round"/>
<path d="M109 232C112.32 254.4 129.72 292.321 172.64 264.961M172.64 264.961L192.16 263.12M172.64 264.961L185.04 275.12" stroke="#171717" stroke-width="2" stroke-linecap="round" stroke-linejoin="round"/>
<path d="M173 266C173.474 266 174.032 266.624 174.372 266.907C174.925 267.368 175.358 267.927 175.886 268.402C176.982 269.389 178.206 270.192 179.382 271.078C180.424 271.863 181.426 272.701 182.538 273.381C183.328 273.863 184.171 274.202 184.94 274.715" stroke="#171717" stroke-width="2" stroke-linecap="round"/>
<path d="M108.909 232.397C108.909 236.253 108.617 240.409 110.05 244.07C110.962 246.402 112.312 248.36 113.648 250.438C115.572 253.431 117.423 256.464 119.791 259.156C121.753 261.384 124.244 263.003 126.325 265.084C127.989 266.749 130.398 268.422 132.605 269.18C133.941 269.639 135.314 270.248 136.554 270.916C137.6 271.479 138.9 271.572 139.977 272.067C141.296 272.673 142.985 272.851 144.404 273.256C145.195 273.482 146.093 273.49 146.901 273.637C148.835 273.988 151.176 273.646 153.141 273.646" stroke="#171717" stroke-width="2" stroke-linecap="round"/>
<path d="M153.317 273.646C154.014 273.646 154.779 273.738 155.462 273.607C156.735 273.363 157.964 272.715 159.207 272.33C160.64 271.885 162.244 271.323 163.497 270.487C164.522 269.804 165.405 268.924 166.403 268.205C167.904 267.125 169.851 266.453 171.221 265.221C172.057 264.468 172.896 264.26 173.893 263.953C175.19 263.554 176.895 263.817 178.242 263.817C180.144 263.817 182.033 264.168 183.946 264.168C185.731 264.168 187.515 264.168 189.3 264.168C189.897 264.168 192.554 264.504 192.81 263.992" stroke="#171717" stroke-width="2" stroke-linecap="round"/>
<path d="M89.2045 108.637C89.0516 108.569 89.2259 106.951 89.2015 106.676C89.0474 104.94 88.8134 103.39 88.8771 101.631C88.9828 98.7119 89.2682 95.6766 90.135 92.8578C91.0146 89.9972 92.1388 87.6407 94.0712 85.325C95.1012 84.0906 96.3205 82.8371 97.4808 81.7224C97.8845 81.3345 98.8293 80.1063 98.6896 81.2415C98.1516 85.616 96.6299 90.0345 95.3369 94.2395C94.4787 97.0302 93.4615 99.7838 92.6077 102.56C92.4783 102.981 91.6497 105.794 92.5101 104.264C94.5427 100.65 96.3836 96.9665 97.8676 93.0948C99.2521 89.4827 100.822 85.8291 101.958 82.133C102.028 81.9065 102.69 80.1896 102.439 81.1251C102.068 82.5051 101.98 84.0185 101.795 85.4361C101.332 88.979 100.485 92.472 99.9923 96.0121C99.8524 97.0165 99.5418 97.9897 99.4609 99.0031C99.4038 99.7191 99.3735 100.016 99.8417 99.1202C102.663 93.7204 106 88.5894 108.049 82.8122C108.928 80.3346 109.66 77.8128 110.528 75.3336C110.698 74.8484 110.547 75.8277 110.501 75.9786C110.039 77.4794 110.056 79.127 109.731 80.6678C109.023 84.0274 108.665 87.492 107.654 90.7805C107.305 91.9171 106.955 93.0537 106.606 94.1903C106.586 94.2547 106.126 95.7544 106.603 95.3073C107.456 94.5074 108.911 94.2291 109.883 93.5121C111.81 92.0904 112.91 90.0005 114.101 87.9889C115.103 86.2975 115.575 84.43 116.148 82.5652C116.757 80.5862 117.316 78.6232 117.649 76.5758C117.728 76.0904 117.847 75.4516 117.766 74.9635C117.731 74.7559 116.521 76.2504 116.363 76.4456C115.301 77.7542 114.467 79.4451 113.904 81.0225C113.463 82.2589 113.052 83.2451 113.692 84.4528C114.21 85.4304 114.941 87.7355 116.149 88.107C116.585 88.2411 117.11 87.7548 117.523 87.5822C119.018 86.9565 120.457 86.4531 121.616 85.2696C123.797 83.0418 122.909 78.9819 123.195 76.1595C123.255 75.5713 123.284 75.1126 122.845 75.7581C122.026 76.9628 121.329 78.2844 120.797 79.6467C119.625 82.6469 118.295 85.564 117.347 88.646C117.101 89.4485 117.87 88.8528 118.151 88.6186C119.865 87.1912 122.22 86.6329 123.947 85.1434C126.039 83.3385 127.372 80.4112 128.669 78.0131C129.073 77.2648 129.127 77.1889 129.334 78.1894C129.532 79.1403 129.677 80.4167 129.466 81.3653C129.258 82.3007 128.905 83.2217 128.623 84.1374C128.371 84.9578 128.055 85.3044 128.75 84.4036C130.003 82.7795 131.261 81.1505 132.513 79.5269C132.753 79.2159 133.01 78.5569 133.234 79.1233C133.456 79.6846 134.661 80.3524 135.162 80.6161C135.881 80.9946 136.564 81.5966 137.344 81.8366" stroke="#FFD424" stroke-width="4" stroke-linecap="round"/>
<path d="M92.4479 113.349C92.7887 112.241 93.1556 111.198 93.6544 110.15C93.8404 109.759 95.035 106.74 95.5454 106.897C95.8299 106.984 96.1773 109.221 96.2882 109.549C96.5923 110.45 97.1629 111.261 97.6707 112.053C98.119 112.752 98.3852 112.617 98.9352 112.07C100.002 111.01 100.936 109.955 101.809 108.732C103.126 106.888 104.306 105.034 105.467 103.111C105.821 102.526 106.223 101.86 105.892 102.937C105.6 103.884 105.463 105.138 105.438 106.129C105.422 106.756 105.402 107.363 105.536 107.957C105.752 108.919 107.155 107.606 107.415 107.396C108.499 106.522 109.341 105.354 110.344 104.388C111.295 103.472 112.208 102.554 113.077 101.559C114.586 99.8332 115.861 97.7323 117.066 95.7763C117.265 95.4522 117.464 95.2196 117.697 94.9313C117.875 94.7104 117.525 95.4729 117.461 95.7496C117.022 97.6742 116.695 99.6636 116.114 101.553C115.91 102.216 115.835 102.899 115.645 103.561C115.54 103.926 115.352 104.293 115.417 104.678C115.463 104.959 116.479 103.411 116.644 103.209C118.74 100.631 120.83 97.9576 122.396 95.0157C123.231 93.447 123.822 91.7018 124.696 90.1648C125.18 89.3121 124.877 91.1886 124.835 91.4281C124.445 93.6651 124.482 95.983 123.831 98.1783C123.768 98.3918 122.911 100.852 123.435 100.432C124.252 99.7757 124.944 98.8704 125.665 98.1154C127.14 96.5691 128.608 95.0243 129.895 93.3141C130.941 91.925 131.54 90.4761 132.281 88.935C132.317 88.8596 132.637 87.923 132.762 87.9613C132.762 87.9613 132.648 88.3299 132.646 88.338C132.557 88.6508 132.525 88.9704 132.469 89.2896C132.159 91.0354 131.813 92.8433 131.33 94.547C131.268 94.7669 131.16 95.2246 131.528 94.8715C132.279 94.1492 133.119 93.5641 133.832 92.793C135.884 90.5769 137.569 88.3417 139.209 85.8207C139.34 85.6185 139.455 85.3513 139.654 85.2318C139.812 85.137 140.091 85.0257 139.747 85.1449C137.901 85.7827 136.034 86.7059 134.242 87.4928C132.845 88.1062 131.361 88.9741 129.849 89.2263" stroke="#171717" stroke-width="4" stroke-linecap="round"/>
<path d="M87.6679 114.897C85.281 104.287 85.6096 82.6689 103.547 74.4167C120.709 66.5116 137.806 77.4604 143.371 83.3147" stroke="#171717" stroke-width="2" stroke-linecap="round" stroke-linejoin="round"/>
<path d="M101.355 70.5652C119.853 63.2755 133.404 53.7005 131.622 49.1789C129.84 44.6573 113.4 46.9012 94.9026 54.1909C76.4049 61.4807 62.8542 71.0556 64.6361 75.5773C66.4181 80.0989 82.8579 77.855 101.355 70.5652Z" stroke="#171717" stroke-width="2"/>
<path d="M118.484 104.206C134.094 95.7806 145.532 86.6971 144.032 83.9173C142.531 81.1374 128.66 85.7138 113.051 94.139C97.4405 102.564 86.0024 111.648 87.5028 114.427C89.0032 117.207 102.874 112.631 118.484 104.206Z" stroke="#171717" stroke-width="2"/>
<path d="M97.9458 62.1479L103.547 74.4162" stroke="#171717" stroke-width="2" stroke-linecap="round" stroke-linejoin="round"/>
<path d="M141.874 83.1474C141.127 82.5829 139.798 82.5508 139.212 81.8686C138.289 80.7895 137.012 79.7692 135.841 78.9489C134.503 77.9934 133.103 77.1026 131.83 76.2088C129.012 74.2124 125.104 74.8101 121.977 73.6813C121.071 73.3609 120.104 73.1053 119.183 72.6966C118.53 72.3703 117.657 71.8088 116.872 71.7765C116.048 71.7326 115.237 71.6504 114.39 71.6829C113.025 71.7655 112.272 72.5802 111.055 73.001C107.467 74.325 104.347 76.7135 100.872 77.9463C99.2659 78.5406 97.7281 79.8672 96.1931 80.7762C94.6581 81.6852 93.2732 83.0588 92.2824 84.5118C90.1302 87.7001 89.2957 91.5027 88.0876 95.0232C87.0089 98.123 87.8712 101.987 88.0747 105.272C88.2812 108.683 88.0141 111.865 88.2205 115.277" stroke="#171717" stroke-width="2" stroke-linecap="round"/>
<path d="M98.3042 61.7988C98.3691 62.9487 98.1782 64.5221 98.746 65.5336C99.1961 66.3835 99.5815 67.1716 100.07 68.0331C101.244 70.068 102.952 71.7234 103.112 74.1996" stroke="#171717" stroke-width="2" stroke-linecap="round"/>
<path d="M103.676 68.2424C99.3229 68.7064 95.5106 70.1514 91.375 71.3759C88.7218 72.1771 86.6021 73.5194 83.7549 73.7855C82.4814 73.9161 81.1465 74.4238 79.8617 74.5951C78.3959 74.8041 76.9861 74.8096 75.5944 75.2141C73.4559 75.8506 70.5906 75.7177 68.3436 75.974C67.5512 76.0621 66.2311 75.742 66.1554 74.933C66.0556 73.5919 67.1629 72.6712 67.9469 71.5299C69.0241 69.944 70.629 68.7663 72.052 67.3196C73.2378 66.1139 74.1708 65.6705 75.7032 64.9107C77.3373 64.0913 79.1817 63.5927 80.8331 62.8656C82.6767 62.0602 84.4919 61.2032 86.4096 60.5934C87.1564 60.3614 88.055 59.7333 88.6879 59.2948C89.5753 58.7075 90.6333 58.4299 91.5663 57.9865C92.9573 57.2752 94.5577 56.578 96.0228 56.0623C97.8724 55.3899 99.936 54.2511 101.643 53.3206C103.26 52.4089 104.85 52.059 106.559 51.4352C109.036 50.498 111.444 49.1915 114.144 48.841C118.802 48.1984 123.664 47.4367 128.43 47.1742C128.991 47.1536 130.334 47.699 130.816 47.9632C131.74 48.4807 131.787 49.238 131.841 50.1284C131.946 51.2958 131.183 51.7422 130.506 52.6503C129.778 53.588 128.982 54.77 127.971 55.4982C124.332 58.1731 120.157 59.6934 115.944 61.5095C110.272 63.9743 105.531 67.703 99.6434 70.0208" stroke="#171717" stroke-width="2" stroke-linecap="round"/>
<path d="M88.9301 114.231C89.5226 112.305 91.3564 110.991 92.7569 109.66C93.5839 108.873 94.67 108.335 95.6082 107.677C96.7736 106.86 97.9382 106.054 99.1869 105.37C101.473 104.118 103.459 102.451 105.693 101.094C107.191 100.184 108.414 98.8714 109.874 97.8965C111.527 96.7927 113.146 95.641 114.746 94.4629C116.512 93.1617 118.579 92.1514 120.41 90.9143C122.742 89.3383 125.438 88.2868 127.933 86.9908C129.695 86.0754 131.551 85.8998 133.361 85.2129C134.304 84.855 135.304 84.9364 136.258 84.6691C137.942 84.1978 141.406 83.7359 143.045 84.2397" stroke="#171717" stroke-width="2" stroke-linecap="round"/>
<path d="M144.156 85.1502C143.429 87.5131 142.513 89.6913 141.121 91.7451C140.276 92.9919 138.797 93.9932 137.62 94.9155C136.515 95.7817 135.265 96.5602 134.242 97.5288C133.387 98.3384 132.232 98.8823 131.202 99.4277C129.597 100.278 127.929 101.247 126.193 101.792C123.492 102.639 120.975 104.494 118.166 104.962C117.36 105.097 116.569 105.314 115.764 105.448C115.084 105.561 114.358 106.117 113.706 106.361C112.393 106.854 111.04 107.371 109.762 107.947C109.12 108.236 108.524 108.608 107.867 108.876C107.277 109.117 106.767 109.54 106.174 109.74C104.421 110.332 102.809 111.336 101.042 111.913C100.007 112.251 98.9356 112.481 97.8846 112.761C97.0787 112.975 96.3 113.314 95.4721 113.439C93.3127 113.766 91.1628 114.084 89.2286 115.109" stroke="#171717" stroke-width="2" stroke-linecap="round"/>
</svg>
