<svg width="400" height="444" viewBox="0 0 400 444" fill="none" xmlns="http://www.w3.org/2000/svg">
  <path
    d="M356.321 258.83c-3-7.72-11-8.12-18.32-5.72.92-23.88-25.96-32.84-45.56-25.08.84-4.56 1.32-8.64 1.24-13.44 10 10.92 30 3.04 29.48-12.04.44-18.2-24.88-22.48-32.24-8.96-4.32-16.32 17.28-19.24 22.56-42.96 7.76-21.8 5.24-45.88-3-66.88.32-2.24-.76-6.76-2.64-8.8 2.48-3.88 4.08-10.48 4.24-15.64 1.28-12.2-17.2-16.16-20.96-4.4-7-4.76-18.04-.48-18.04 8.52-.88 6.24 9 13.44 12.36 17.64 2.96 6.64 14.68 30.96 5.48 26.8-7.44-.12.28-16.4-14.84-16.16-8.36.16-11.56 8.68-10.28 15.84-3.96 0-8 1.6-10.08 4.96-24.52-38.32-79.76-42.4-118.36-22.4 13.04-17.72-4.24-29.12-21.52-29.76 5-5.8 5.28-17.76 1.4-20.76-16.72-21.4-90.36 37.84-73.16 58.44 6.6 7.52 15.64 5.68 25.12 1.36 1.36 17.52 6.12 41.08 26.04 31.16-3.48 7.96-1.8 16.48-6.88 23.36-8.6 5.92-7.44 18.52-9.04 27.96-4.6 4.16-1.32 11.4 1.64 15.32-29.96-31.76-10.04-56.68-30.08-58.4-5.48-.08-10.12 4.44-11.36 9.64-10.92-5.64-21.28 10.16-11.8 17.88 3.76 3.56 9.56 7.08 14.04 8.12 5.52 12.72 12.04 25.08 21.64 35.52 25.76 32.36 32.88 7.36 45.4 53.68-15.84-4.08-2.6-16.84-19.84-18.64-8.36.16-11.56 8.68-10.28 15.84-6.4-.2-12.16 4.64-11.88 11.28.2 6.12 5.4 10.8 11.48 10.4-2.8 15.84 21.84 19.84 21.84 3.48 0-9.92 7.68-3.72 11.04-8.6 1.72-2.48 5.24-2.84 7.32-.6 39.36 42.6 4.56 4.76 14.36 71.8 0 7.28 3.64 7.96-4.88 8.48-16.12.92-11.48 24.04 3.8 21.04 62.64 7.4 4.64-34.92 26.64-67.44 19.16 8.84 46.76 7.64 66 .72 15.88-6.88 28.6-16.68 41.32-28.16 14.76-14.04 14.04-28.56 34.6-33.44 16.08-5.12 13.92.32 15.72 13.28-1.64 11.52 8.36 24.24 20.2 14.68 7.96-3.04 25.04-6.6 20.08-18.92Zm-60.08-132.4c-.24 13.84-6.24 25.56-14.92 35.96-5.8-12.12-17.6-23.84-22.36-34.76 11.36 1.44 3.76 16.24 18.16 15.96 7.32-.28 11.32-7.44 10.12-14.16 3.2 0 6.76-.72 9-3Z"
    fill="#fff"
  />
  <path
    d="M308.363 196.183c.08.874 1.058 1.792 1.579 2.419 1.247 1.501 2.547 2.965 3.709 4.535.219.295 1.333 1.329 1.333 1.702 0 .313-2.852-.61-2.999-.659-3.586-1.21-6.982-3.087-10.264-4.933-.214-.121-.649-.669-.601-.428.036.181.443.471.55.58a28.87 28.87 0 0 1 1.999 2.267c.93 1.162 2.074 2.448 2.579 3.875.267.756.42 1.565.58 2.347.042.205.28.709-.131.594-1.536-.43-3.142-1.635-4.382-2.586-.956-.732-2.025-1.451-2.919-2.252-.435-.39-.147.166-.029.362"
    stroke="#A736FF"
    stroke-width="4.8"
    stroke-linecap="round"
  />
  <path
    d="M272.76 109.202c.724.073 1.36 1.235 1.735 1.742 1.173 1.59 2.208 3.319 3.498 4.816 1.059 1.228 2.084 2.49 3.151 3.71.281.321.699.618.892 1.006.033.064.245.562.192.573-1.415.315-3.302-.461-4.667-.757-1.448-.314-2.998-.465-4.412-.9-.805-.247-1.337-.714-2.046-1.069-.196-.098-.381-.14-.538-.297-.751-.751 1.455 1.555 2.068 2.421a43.559 43.559 0 0 1 2.478 3.973c.413.743.922 1.51 1.09 2.351.136.678 0 .016-.269-.375-1.651-2.405-3.119-5.03-4.957-7.294-1.124-1.385-3.117-2.681-3.696-4.419"
    stroke="#36ABFF"
    stroke-width="4.8"
    stroke-linecap="round"
  />
  <path
    d="M88.81 268.324c.154.435.38.801.66 1.171.74.975 1.53 1.912 2.276 2.883 1.344 1.752 2.549 3.603 3.879 5.363.061.082.634.722.29.408-1.166-1.059-2.314-2.128-3.361-3.307-.996-1.122-1.958-2.319-3.14-3.255a35.244 35.244 0 0 1-1.702-1.419c-.273-.247-.546-.469-.807-.731-.075-.074-.212-.235-.298-.289-.255-.16-.493-.401-.763-.563-.09-.054.087.192.135.286.186.361.406.707.608 1.06.926 1.626 1.98 3.19 2.793 4.878.045.093.387.842.384.84-.191-.106-.367-.313-.543-.444-.888-.667-1.668-1.452-2.467-2.219a139.275 139.275 0 0 1-3.956-3.924c-.363-.377-.668-.81-1.036-1.178"
    stroke="#FF7E36"
    stroke-width="4.8"
    stroke-linecap="round"
  />
  <path
    d="m90.763 120.214-8.158-12.623-2.454-3.797c-.708-1.096 2.032 1.329 2.316 1.515 6.71 4.408 12.22 9.828 17.62 15.707 1.881 2.048-.074-.391-.687-1.339l-11.759-18.193c-1.228-1.902-2.572-3.771-3.705-5.734-.425-.736 2.191.381 2.27.423 2.512 1.34 4.783 3.76 6.324 6.144 1.097 1.699 1.367 3.685 1.963 5.576.64 2.027 1.387 3.855 2.544 5.646l.805 1.245c-1.457-2.254-3.194-4.381-4.736-6.583-3.494-4.991-6.474-10.286-9.323-15.667-1.206-2.275-2.246-4.585-3.274-6.94-.177-.406-.685-1.194.117-.646 6.895 4.711 12.422 11.169 17.958 17.36 1.502 1.68 3.009 3.376 4.445 5.113 1.205 1.456.654.515-.042-.562-4.916-7.607-9.79-15.118-14.047-23.113-.394-.74-.775-1.47-1.122-2.233-.011-.024-.322-.7-.306-.694 1.887.696 3.623 4.243 4.627 5.78 3.274 5.01 6.462 10.801 11.001 14.815.93.822.73.357.165-.517-2.858-4.423-5.163-9.097-7.227-13.94-1.9-4.457-3.525-9.013-5.255-13.536-.493-1.289-1.11-2.327.617-1.308 4.263 2.517 7.665 6.399 10.323 10.512 1.727 2.672 3.69 5.213 5.402 7.862 2.163 3.347-4.175-6.789-6.145-10.252-1.33-2.34-2.546-4.64-3.64-7.095-.04-.087-1.242-2.356-.617-2.222 2.293.493 4.527 2.596 6.179 4.1 2.782 2.53 5.116 5.292 7.357 8.293.892 1.194 1.772 2.355 2.581 3.608.946 1.463.137.118-.28-.71-1.81-3.593-3.377-7.312-4.776-11.085-.279-.753-1.594-3.177-1.164-4.007.913-1.763 9.446 7.926 10.317 9.233.11.165.971 1.699.57.772-.968-2.236-2.159-4.338-3.355-6.46-.254-.451-2.213-2.812-1.38-3.35 1.733-1.12 4.592 1.436 5.779 2.38 2.224 1.765 3.974 3.887 5.509 6.26.532.824.801 1.02-.258 1.504-2.985 1.363-6.755.635-9.861.188-3.531-.509-6.993-.797-10.554-.416-1.998.214-3.864.585-5.877.34-.636-.077-2.147-.841-1.472.203 3.297 5.103 7.942 9.311 11.239 14.412 2.861 4.427-6.391-8.399-9.252-12.826-1.314-2.033-2.584-4.025-3.687-6.174-.55-1.071.566.848.72 1.086"
    stroke="#FFD424"
    stroke-width="4.8"
    stroke-linecap="round"
  />
  <path
    d="M239.921 125.469c30.8 28.24 45.44 72.92 42.68 95.64-4.68 38.68-36.68 75.761-74.84 82.881-36.28 6.76-82.84-10.081-99.72-78.361"
    stroke="#171717"
    stroke-width="2.4"
  />
  <path
    d="M184.681 197.43c13.476 0 24.4-10.925 24.4-24.4 0-13.476-10.924-24.4-24.4-24.4-13.476 0-24.4 10.924-24.4 24.4 0 13.475 10.924 24.4 24.4 24.4Z"
    stroke="#171717"
    stroke-width="2.4"
    stroke-linecap="round"
    stroke-linejoin="round"
  />
  <path
    d="M231.401 183.35c13.475 0 24.4-10.925 24.4-24.4 0-13.476-10.925-24.4-24.4-24.4-13.476 0-24.4 10.924-24.4 24.4 0 13.475 10.924 24.4 24.4 24.4ZM161.121 180.11l-35.44 10.68M261.281 149.949l-6.52 1.96M207.281 182.87c6.24-1.48 16.6-1.16 8.12 11.76"
    stroke="#171717"
    stroke-width="2.4"
    stroke-linecap="round"
    stroke-linejoin="round"
  />
  <path
    d="m249.201 123.03-109.36 32.92-30.96 69.88c-32.32-36.64-15.36-66.24-5.04-72.2-7.04-29.48 29.88-51.4 49.2-58.68 58.96-17.76 88.68 11.32 96.16 28.08Z"
    stroke="#171717"
    stroke-width="2.4"
    stroke-linejoin="round"
  />
  <path
    d="M276.241 180.35c18.8-9.8 47.08-43.88 19.16-104.56m-11.44-12.04 11.4 12m0 .04 6-17.28M138.481 226.83c-20.24 6.32-64.32 2.04-87.28-60.68l-.36-16.56m.4 16.56-16.44-8M86.08 122.11c-5.4-9.44-11.44-30.2 3.28-43.36 14.081-12.6 33.641-7.16 40.681-3.2"
    stroke="#171717"
    stroke-width="2.4"
    stroke-linecap="round"
    stroke-linejoin="round"
  />
  <path
    d="M86.134 75.712c15.538-12.404 25.676-25.54 22.643-29.337-3.032-3.799-18.086 3.178-33.624 15.583-15.538 12.404-25.676 25.54-22.644 29.337 3.033 3.799 18.087-3.178 33.625-15.583ZM112.393 102.833c12.444-12.641 20.707-24.686 18.456-26.902-2.251-2.216-14.164 6.236-26.608 18.877-12.444 12.641-20.707 24.685-18.456 26.901 2.251 2.216 14.164-6.235 26.608-18.876Z"
    stroke="#171717"
    stroke-width="2.4"
  />
  <path
    d="m80.4 68.67 8.96 10.08M184.001 158.59c3.24 6.28 7.6 13.48-4.52 19.28 4.6-2.12 10.8-4.64 16.4 8.52-2.44-4.32-6.88-12.56 5.72-17.96-5.6 1.16-9.24 9.72-17.6-9.84ZM231.201 141.39c3.24 6.28 7.6 13.48-4.52 19.28 4.6-2.12 10.8-4.64 16.4 8.52-2.44-4.32-6.88-12.56 5.72-17.96-5.6 1.16-9.24 9.72-17.6-9.84ZM243.361 180.51c5.4-2 10 0 10 5.6 0 4-5.24 6.52-10 8.64m0 0c-10.12 4.44-28.44 7.64-51 3.56-33.2-6-43.2 29.2 0 46.6 43.2 17.4 69.6-22.96 51-50.16ZM190.961 197.91l-16.8 36.4m40.2-33.6-3 48.6m21.4-51.4 9.8 36.4M274.001 251.35c20-13.92 58.64-29.8 53.2 18.2l19-7M163.401 286.75c-12.72 10.28-32.84 40.76-11.4 80.6h-20.2M192.401 252.35c3.8 2.68 14.76 7.4 28.2 5M89.36 255.75c.52 7.04 1.68 15.4-11.76 15.96 5.08-.16 11.76 0 11.76 14.28-.56-4.96-1.4-14.28 12.321-14.28-5.6-1.12-12.32 5.32-12.32-15.96ZM276.561 102.55c.52 7.04 1.68 15.4-11.76 15.96 5.08-.16 11.76 0 11.76 14.28-.56-4.96-1.4-14.28 12.32-14.28-5.6-1.12-12.32 5.32-12.32-15.96Z"
    stroke="#171717"
    stroke-width="2.4"
    stroke-linecap="round"
    stroke-linejoin="round"
  />
  <path
    d="M306.001 208.95a6.4 6.4 0 1 0-.002-12.802 6.4 6.4 0 0 0 .002 12.802Z"
    stroke="#171717"
    stroke-width="2.4"
  />
  <path
    d="M246.921 122.389c-.04-.48-.52-.96-.8-1.32-.36-.48-.52-1.12-.88-1.56-.6-.84-1.6-1.36-2.2-2.2-.56-.8-1.04-1.72-1.64-2.48-1.12-1.4-2.52-2.4-3.76-3.64-2.8-2.8-6.24-4.24-9.76-5.96-2.04-1-3.96-2.32-6.04-3.28-2.24-1.04-4.48-1.84-6.84-2.52-4-1.2-8-2.44-11.92-3.96-1.68-.64-3.24-1.28-4.8-2.2-.24-.16-1.04-.4-.76-.52.88-.28 2.36.24 3.16.52 5 1.56 9.32 4 13.04 7.72 3.52 3.52 6.68 7.52 10.88 10.24 5.32 3.44 11.64 5.24 16.28 9.72.28.24.56.56.88.76.24.16-1.28-1.04-1.44-1.16-4.92-4.2-8.88-10-14.76-12.92-3.32-1.64-6.84-2.92-9.96-4.96-2.12-1.36-4.08-3.04-6.32-4.28-2.16-1.16-4.64-1.96-7-2.6-5.04-1.4-10.32-1.16-15.32-2.72-.4-.12-.76-.44-1.2-.48-.2-.04-.48-.16-.64-.32-.68-.64 1.6.44 1.68.44 12.88 5.64 25.2 12.52 35.72 21.96 2.32 2.08 4.72 3.84 7.24 5.56 1.32.92 2.6 2 3.92 2.92.16.12 1.28.8 1.28 1.12-.04.28-1.96-.48-2-.48-4.32-1.72-8.52-3.72-12.76-5.64-7.52-3.44-14.72-7.12-21.4-12.04-4.6-3.4-8.8-7.32-13.36-10.76-2.6-1.96-3.92-.92-6.68-2.68-1.12-.72-2.2-1.28-3.4-1.84-.2-.08.12.24.16.28.44.6.76 1.28 1.2 1.88 1.32 2 .8 1.52 2.92 2.72 1.76 1 3.68 1.56 5.52 2.4 3.6 1.64 7 3.84 10.36 5.92 7.28 4.52 14.64 9.04 21.64 14 2.16 1.56 4.56 3.12 6.12 5.36 1 1.4 2.48 2.48 3.68 3.68.28.28.52.6-.12.44-.88-.24-1.72-.64-2.52-1.04-2.08-1.04-4.16-2.04-6.28-3-12.24-5.68-24.36-11.96-35.52-19.64-4.56-3.16-9.24-6.16-13.68-9.48-1.6-1.2-1.4.16-2.96-1.04-.12-.08-.64-.44-.24-.12 1.8 1.48 1.88.28 3.68 1.76 5.92 4.88 12.84 8.44 19.4 12.36 6.8 4.04 13.64 8.16 19.04 14 1.72 1.88 3.52 3.72 5.08 5.72.56.72 1 1.24 1.76 1.8.56.4 1.28.08 1.72.4.52.4 1.52.4 2.16.52.52.08 2.04.36 2.52.08.56-.32-2.76-4-3.48-4.2-2.28-.64-4.68-.76-6.96-1.36-3.16-.88-6-2.36-9-3.72-5.52-2.52-10.88-5.32-16.48-7.72-3.72-1.64-7.8-3.28-11.04-5.76-2-1.52-3.68-3.44-5.68-4.96-1.36-1.04-2.6-1.92-3.8-3.16-.56-.56-.92-1.24-1.48-1.8-.4-.4-1.2-.56-1.72-.72-.48-.16-1.72-1.16-1.36-.76.68.76 1.72.96 2.64 1.28 3.8 1.32 7.6 2.64 11.12 4.56 5.44 3 10.92 6.48 15.64 10.6 4.88 4.28 9.92 8.4 15.04 12.36 2.56 2 5.16 4.08 7.84 5.88M211.401 132.35c-.76-.08-1.88-1.2-2.4-1.6-3.08-2.24-5.92-4.68-9.04-6.84-1.8-1.24-3.68-2.4-5.6-3.48-1.36-.76-2.48-1.8-3.8-2.68-2.32-1.56-4.88-3.36-7.44-4.44-1.8-.76-3.52-1.44-5.16-2.48-1.92-1.24-3.8-2.56-5.76-3.76-1.16-.76-2.4-1.36-3.56-2.16-1-.68-1.96-1.4-3.08-1.88-1.96-.88-4.08-1.28-6.16-1.92-1.56-.48-3.16-.84-4.72-1.36-.8-.24-1.64-.56-2.48-.76-.24-.04-1.84-.56-2-.4-.12.12 1.32 1.04 1.32 1.04 2.8 1.64 5.84 2.92 8.68 4.48 13.04 7.2 28.68 11.64 38.8 23.24.76.84 1.4 1.76 2.2 2.6.88.92 1.96 1.52 2.92 2.36.32.28 1.4.8 1 .8-.88.04-1.72-.04-2.56-.28-10.68-3-20.24-9.16-28.92-15.84-3.56-2.72-7-5.72-10.8-8.12-2.36-1.52-4.96-2.64-7.6-3.6-3.04-1.12-6.12-1.4-9.24-2-.84-.16-1.52-.16-2.28-.52-.04-.04 1 1.08 1.16 1.28 1.84 1.88 3.88 3.64 6 5.24 3.52 2.72 7.28 4.92 11.36 6.6 4.28 1.76 8.72 3.04 12.92 5.04 5.32 2.52 9.56 6 13.68 10.12 1.48 1.44 3 2.64 4.92 3.44.32.12 2.16 1.32 2.12 1.32-.6.16-2.2-.88-2.68-1.08-4.52-2.04-8.72-4.64-13.04-7.08-7.32-4.12-15-7.76-22.72-11.04-3.24-1.36-6.6-2.44-9.88-3.68-1.68-.64-3.2-1.52-4.6-2.64-.92-.72-1.96-.92-2.92-1.52-.28-.16-.64-.44-.96-.56-.36-.12-1.36-.48-.4-.48M130.841 108.91c9.08 0 17.12 5.08 24.56 9.84 5.44 3.52 10.48 7.68 15.72 11.52 2.44 1.8 5.32 2.8 7.96 4.28 1.52.88 2.48 2.12 3.8 3.16.52.4 1.08.8 1.52 1.28.68.68-.96.44-1.28.44-5.32-.28-10.36-2.92-15.04-5.2-7.24-3.44-13.6-8.08-19.96-12.88-3.28-2.48-6.52-4.44-10.44-5.76-2.52-.84-4.84-2.08-7.32-2.92-1.36-.48-2.72-.72-4.08-1.2-.12-.04-.32-.16-.04-.16.92.08 1.96.56 2.8.92 4.76 2 9.2 5 13.36 8 6.16 4.44 12.64 8.16 19.36 11.68 3.96 2.04 7.64 4.12 10.12 7.84.84 1.28 2.04 3.04 3.4 3.76.28.12.48.44.72.52.32.16 1.04-.32 1.44-.32.04 0 .84 0 .8-.04-.16-.48-2.68-1.24-3.16-1.48-1.44-.72-2.84-1.56-4.36-2.16-3.76-1.4-7.6-2.56-11.32-4.08-7.76-3.2-14.52-7.96-20.84-13.4-3.88-3.32-8.36-6.76-13.36-8.24-.96-.28-2.08-.44-3.08-.56-.56-.08 1.24.8 1.44.92 3.56 2.2 7.24 4.12 10.8 6.24 4.96 2.96 9.72 6.36 14.44 9.72 2.92 2.04 5.96 3.96 8.84 6.04 1.92 1.4 3.76 2.92 5.6 4.44.8.68 1.52 1.52 2.24 2.24.6.6 1.24.92 1.44 1.68.08.32-2.08-.12-2.24-.16-5.4-1.24-10.36-4.68-14.92-7.64-4.28-2.76-8.32-5.88-12.48-8.84-2.48-1.76-4.88-3.4-7.84-4.32-3-.92-5.4-2.76-8.12-4.28-.96-.56-2.64-1.52-3.76-1.6-.16 0 .32.08.48.12.84.28 1.64.76 2.44 1.16 2.8 1.48 5.44 3.2 8.16 4.84 6.72 4.16 13.6 8.32 19.68 13.4 3.16 2.64 5.48 5.92 8.36 8.8.44.44 1.08.88 1.44 1.36.12.16.44.4 0 .44-2.44.2-5-.16-7.32-.84-4.76-1.4-9-3.88-12.92-6.88-2.84-2.16-5.44-4.64-8.36-6.72-1.32-.92-2.6-2-4.08-2.72-1.52-.72-3.08-1.36-4.6-2.08-1.92-.88-3.96-2.04-5.56-3.44-.44-.4-1.84-.36-2.44-.48-.44-.08-.12-.2.24.04 3.2 1.84 6.2 4 9.2 6.08 7 4.88 14 9.64 21.24 14.12 2.44 1.52 5 3.48 6.6 5.92.28.44 1.6 1.84.28 1.32-2.44-.96-4.76-2.44-7.12-3.6-3.68-1.8-7.4-3.4-10.92-5.52-3.24-1.96-6.44-3.96-9.76-5.88-2.32-1.32-4.72-2.48-7-3.88-1.84-1.12-3.64-1.92-5.64-2.68-.44-.16-.96-.24-1.4-.4-.24-.08.04.04.12.08 1.2.8 2.28 1.8 3.44 2.68 6.48 5.16 12.72 10.56 19.36 15.52 2.12 1.6 4.24 3.28 6.24 5.04.64.56 1.8 1.2 2.24 1.92.08.12.36.24.4.36.12.36-.76-.24-1.12-.4-1.36-.6-2.68-1.32-3.96-2.04-6.4-3.68-13.12-6.88-19.88-9.84-2.48-1.08-4.92-2.12-7.44-3.12-.88-.36-3.2-1.96-2.52-1.32 3.44 3.12 7.28 5.96 10.84 9 4.96 4.28 9.32 10 15.88 11.92 1.36.4 3 .88 4.44.92.76.04.84.04 0-.24-2.2-.84-4.04-2.16-6-3.4-3.92-2.52-7.6-5.44-11.72-7.6-2.24-1.16-4.6-2.08-6.84-3.2-1.84-.96-8.24-.76-6.16-.76M104.081 147.83c2.52 0 4.68 1.24 6.76 2.6 4.24 2.68 8.16 6.36 11.84 9.8 1.92 1.8 3.92 3.52 5.76 5.36.52.52 1.04 1 1.44 1.6.48.72 1.12 1.24 1.6 1.96.48.68-.6.32-.96.16-3.44-1.28-6.56-3.84-9.52-5.96-2.4-1.68-4.6-3.48-7.32-4.6-1.52-.64-2.96-1.24-4.32-2.16-.96-.6-1.48-1.68-2.44-2.24-.64-.36-1.36-.56-2.08-.76-.84-.24.84.72 1.12.96 3.56 3.24 6.96 6.6 10.8 9.52 3.16 2.44 6.92 4.84 8.32 8.68.24.64.64 1.24 1.04 1.8.36.52 1 1.04 1.52 1.48.08.08.4.32.08.04-1.24-1.04-2.32-2.24-3.52-3.28-3.2-2.8-6.48-5.28-10.2-7.36-1.6-.92-3.24-1.76-4.72-2.8-1.68-1.16-3.56-2.2-5.44-2.96-1.28-.52-2.96-.96-3.96-1.92-.88-.88 1.92 1.56 2.88 2.32 3.8 2.96 7.64 6.04 11.16 9.32 1.48 1.36 2.96 2.64 3.92 4.4.52.96.92 1.8 1.8 2.48 1.04.8 2.2 1.52 3.36 2.2.24.16.6.24.76.48.2.32.32.68.52 1 .08.12.6.64.44.68-1.56.36-3.52-.8-4.76-1.52-3.28-1.88-6.04-4.48-9.16-6.52-3-1.96-6.16-3.64-9.4-5.08-1.72-.76-3.56-1.16-5.24-2-.32-.16-2.24-.64-2.24-.8 0-.16.28.12.4.2.88.64 1.84 1.08 2.76 1.64 3 1.84 5.88 3.84 8.8 5.84 4.88 3.28 9.64 6.68 14.68 9.76 1.12.68 1.92 1.92 2.88 2.76.04.04.84.64.64.68-.32.12-.84 0-1.16-.04-1.76-.32-3.4-1.12-4.96-1.92-3.44-1.76-6.6-4-10.08-5.68-2.04-.96-4.16-1.6-6.32-2.24-2.16-.64-4.56-.92-6.48-2.08-.76-.44-1.52-.88-2.28-1.36-.72-.48 1.76.12 1.88.2 6.64 2.8 12.4 7.72 17.52 12.68 2 1.96 3.96 3.8 6.48 5.08 1.04.52 2.04.96 2.96 1.64M121.681 191.99c-1.84 0-3.72.04-5.56-.04-2.12-.08-4.76-.04-6.8-.88-1.72-.68-3.84-2-5.12-3.32-1.4-1.4-2.44-3.16-3.84-4.56-1.32-1.32-3-1.92-4.48-3-.68-.48-2.16-.76-2.52-1.56-.08-.2-.6-.64-.08-.64 2.16.04 4.48 1.88 6.12 3.08 5.92 4.36 11.76 8.92 17.84 13.12 1.4 1 2.72 2.08 4.12 3.12.6.44-.68.84-.28 1.48.12.16.76.8.12.6-1.84-.68-1.64-1.76-3.44-2.56-4.8-2.2-9.28-4.96-13.76-7.68-2.8-1.72-5.36-3.76-8.28-5.24-1.08-.56-2.08-1.2-3.12-1.8-.68-.36.2.84.24.96 1.4 2.32 3.16 4.24 5.16 6.04 3.24 3 6.6 6.04 10.32 8.44 2.52 1.6 5.04 3.16 7.56 4.68.52.32 1.32.72 1.68 1.2.08.12-.32.08-.48 0-1.72-.64-3.4-1.6-5.04-2.44-4.92-2.56-9.6-5.6-14.56-8.16-2.2-1.12-4.36-2.28-6.48-3.52-.08-.04-1.6-1-1.52-1.08.28-.4 4.24 2.76 4.48 3 4.4 3.48 8.68 7.48 12.48 11.64 1.08 1.16 1.84 2.64 2.84 3.76.36.44.6 1.16 1 1.64.56.72 1.2 1 1.96 1.48.28.2.56.48.84.64.96.56-1.16-.6-1.2-.6-3.48-2.04-7.04-3.6-10.76-5.12-.84-.36-1.56-.96-2.4-1.24-.16-.04-.8-.36-.36-.04 3.72 2.8 7.84 5.08 11.72 7.68.24.16 1.52.8 1.56 1.12.04.2-2.84-.4-2.88-.4-2.64-.72-5.8-1.4-8.24-2.76-.28-.16-1.12-.36-1.32-.56-.8-.8 2 .96 2.92 1.56 2.32 1.6 4.16 3.56 6 5.64.4.44.84.8 1.16 1.32.04.04-2.16-.64-2.52-.8-1.24-.6-1.72-.88-3.08-.88-.6 0-.28.32.08.56.96.68 1.84 1.4 2.76 2.16.68.56 2.24 1.6 2.52 2.48"
    stroke="#171717"
    stroke-width="4.8"
    stroke-linecap="round"
  />
  <path
    d="M189.161 140.069c-3.68 0-7.36-2.68-10.16-4.84M156.481 144.91h10.16M169.881 92.39c2.48 0 4.52 1.32 6.96 1.6M188.121 169.99c.12.88.96 1.56 1.12 2.44.08.52.2.96.4 1.4.28.68.64 1.36.96 2M235.561 152.91c.64.52 1.12 1.04 1.4 1.84.2.6.44 1.2.68 1.76.36.84.32 1.92 1 2.56M186.441 174.31h2.36M239.481 155.87h.92M127.921 81.39c0-.76-.96-1.2-1.52-1.52-.84-.48.16 2.16.24 2.4.16.52.48 1.08.44 1.64-.04.96-2.8-1.04-2.92-1.16-.2-.16-2.88-2.2-2.92-1.96-.16.52.4 1.16.56 1.6.28.76.6 1.56.8 2.32.28.96.36 1.92.36 2.92 0 .12.16.36.04.36-.84.08-1.64-.52-2.2-1.04-1.08-.92-2.12-2.36-3.68-2.36h-.76c-.48 0 .6 1.12.72 1.28 1.4 1.96 2.56 4.04 3.36 6.32.12.4.44 1 .44 1.4 0 .32-1.32-.32-1.4-.36-1.8-.84-3.2-2.24-5.12-2.84-.48-.16-.92-.28-1.4-.44-.56-.2-.32.28-.24.68.64 2.36 1.36 4.64 1.76 7.08.04.32.24.88-.24.68-1.2-.52-2.16-1.64-3.2-2.48-.32-.24-4.88-3.8-4.96-3.64-.24.56.48 1.76.72 2.2.68 1.36 1.24 2.72 1.88 4.08.76 1.559 1.44 3.399 1.76 5.119.08.4-.8.6-1.04.8-.44.36-4.4-3.28-4.96-3.76-.68-.56-1.96-1.64-2.92-1.48-.04 0 2.24 6.24 2.48 6.84.36.96.76 1.92.76 2.96 0 .6.08 1.2 0 1.8-.08.56-1.68-1.04-1.76-1.16-1.64-1.52-3.44-2.16-5.56-2.72-.8-.2-2.52-.68-3.28-.2-.56.32-.12 2.6-.04 2.96.52 2.84 1.68 5.48 2.28 8.28.12.48-1.6-.12-1.92-.24-1.08-.44-2.04-1.4-3.2-1.6"
    stroke="#171717"
    stroke-width="4.8"
    stroke-linecap="round"
  />
  <path
    d="M239.201 126.87c2.44 3.28 4.92 6.44 8.08 8.64 4.04 2.8 7.64 8.36 11.32 11.96 3.56 3.48 6.88 7.16 8.36 12.04 1 3.32 4.92 6.08 5.96 9.44.96 3.2 2.72 6.36 3.68 9.56 2.04 6.8 5.28 14.72 3.76 21.8-.56 2.68-.12 8.12.4 10.88.56 3.04-.68 6.68-.2 9.44 1.12 6.2-2.4 15.16-3.44 21.4-2.4 14.04-9.08 23.96-18.8 34-2.52 2.6-5.4 3.8-7.92 6.16-2.24 2.12-5.52 6.2-8.12 7.32-5.96 2.6-12.8 8.64-18.76 10.8-4.6 1.68-8.36 5.48-14.04 4.24-5.4-1.2-15.4.16-20.6 1.4-10.48 2.52-22.2-3.2-31.64-7.04-4.4-1.8-11.32-10-14.84-13.6-3.92-4-7.56-7.92-12.36-10.84-11.64-9.4-14.44-21.76-18.48-35.12-1.28-4.24-3.32-8.52-4.32-12.84"
    stroke="#171717"
    stroke-width="1.6"
    stroke-linecap="round"
  />
  <path
    d="M171.841 152.83c-1.64.48-3.08 1.92-4.28 3.16-1.24 1.28-2.04 2.72-2.76 4.36-.6 1.36-1.44 3.04-1.76 4.44-.24 1-.68 1.96-.88 3-.16.76.08 1.52-.08 2.28-.28 1.36.32 3.6.44 5 .12 1.6.64 3.2 1.12 4.8.52 1.68 1 3.76 1.88 5.2.6.96 1.56 3.2 2.44 3.88 2.48 1.76 5.28 3.48 8 5 1.24.68 2.64 1.16 3.92 1.72.64.28 1.92.16 2.64.24.8.12 1.76.44 2.52.2 1.76-.52 3.28.08 5 .08.68 0 4.68-1 4.88-1.6.2-.52 1.32-1 1.72-1.4.8-.76 1.24-1.8 2.16-2.52 1.2-.92 2.96-2 3.68-3.44 1.2-2.36 2.2-4.76 3.4-7.12.64-1.28.48-2.88.68-4.32.24-1.56.92-3.92.44-5.44-1-3.28-1.32-6.96-3-10.04-.72-1.28-1.36-2.76-2.4-3.8-1.24-1.2-2.28-1.76-3.8-2.6-2.96-1.68-6.32-3.4-9.6-4.04-2.08-.4-3.2-.72-5.28-.08-1.64.48-3.6.12-5.2.6-1.56.48-3.28.68-4.88 1.16-1.48.44-4.16 1.36-5.08 2.68-.6.84-1.56 1.4-2.32 2.04-.68.6-.88 1.36-1.32 2.24-.76 1.48-1.64 4.44-1.96 7.04M216.681 176.27c.96 1.52 2.68 2.64 4.2 3.56 1.56.96 3.12 1.4 4.88 1.76 1.44.28 3.28.72 4.68.72 1 0 2 .24 3.04.2.76 0 1.4-.4 2.16-.44 1.36-.04 3.28-1.12 4.56-1.56 1.48-.48 2.8-1.36 4.16-2.2 1.4-.88 3.2-1.84 4.32-3.04.72-.84 2.56-2.28 2.92-3.32.96-2.84 1.72-6.04 2.36-9.04.28-1.4.32-2.88.48-4.28.08-.68-.44-1.92-.52-2.68-.12-.8-.12-1.84-.56-2.56-1-1.6-.88-3.28-1.36-4.96-.2-.64-2.28-4.4-2.92-4.48-.56-.08-1.32-1.08-1.8-1.4-.96-.6-2.08-.84-2.96-1.56-1.2-1-2.76-2.48-4.28-2.88-2.56-.68-5.08-1.12-7.68-1.76-1.36-.36-2.84.2-4.24.28-1.56.12-3.92-.04-5.24.76-2.76 1.72-6.12 2.88-8.52 5.24-1 1-2.2 1.96-2.84 3.24-.76 1.52-.96 2.68-1.32 4.36-.68 3.32-1.36 7.04-.96 10.44.24 2.16.28 3.36 1.44 5.24.96 1.52 1.16 3.56 2.08 5.04.88 1.44 1.56 3.08 2.52 4.6.84 1.36 2.48 3.84 3.96 4.44.96.4 1.76 1.24 2.6 1.84.76.56 1.52.56 2.48.8 1.6.4 4.64.64 7.16.36M161.561 179.75c-3.48 1.04-7.2 1.8-10.16 3.84-3.2 2.2-6.4 3.88-10.2 5.04-3.24.96-6.32 1.52-9.64 2.52-1.8.56-3 1.4-4.88 1.48-1.44.08-3.76-.04-4.76 1M261.041 151.83c-2.24.68-4.36-.76-6.52-.12"
    stroke="#171717"
    stroke-width="1.6"
    stroke-linecap="round"
  />
  <path
    d="M104.481 154.789c-7.28 2.2-14.12 13.2-12.68 20.96.44 2.32-1.08 4.52-.32 7.12.68 2.2-.32 5 .36 7.24 1.48 4.88 1.68 9.68 3.12 14.4.64 2.16 1.28 4.32 1.96 6.44.8 2.72 2.4 4.24 3.28 6.84.72 2.04 7.24 9.32 9.52 6.12 2.92-4.12 3.84-10.4 4.8-15.2.4-2 1.76-4.84 3.12-6.32 1.4-1.52 4-4.92 4.48-7 1.08-4.48 2.72-9.24 4.96-13.44 2.52-4.68 4.16-9.32 6.36-14 2.28-4.8 2.4-7.32 7.24-10.04 1.72-.96 3.24-2.8 5.12-3.36 2.64-.8 5.24-1.56 7.88-2.36 17.92-5.4 35.4-12.52 53.4-17.92 2.16-.64 4.32-1.28 6.44-1.96 2.32-.72 4.8-.36 7.08-.92 5.56-1.36 11.08-3.32 16.56-5 1.6-.48 1.52.24 2.64.28 1.72.08 2.52-1.24 4-1.68 1.84-.56 3.32-1.2 2.68-3.28-.44-1.4-3.2-4.2-4.4-4.92-2-1.2-3.76-3.92-5.36-5.6-3.2-3.4-5.48-8.28-9.28-11-3.2-2.28-7.88-4.56-11.72-5.48-4.56-1.12-9.32-3.08-14.04-3.04-1.96.04-4.52-.92-6.56-1.36-2.08-.44-5.24-1.92-7.28-1.76-1.12.08-4.44-.24-5.56-.68-1.36-.56-5.96 1.04-7.4 1.48-5.32 1.6-10.52 1.96-15.76 3.52-6.12 1.84-11 5.52-16.92 7.56-4.44 1.52-10.08 5.4-12.64 9.32-1.32 2-3.28 3.08-5.04 4.6-2.48 2.16-3.28 3.44-6.64 4.44-3.36 1-8.8 6.8-10.12 10.08-1.24 3.12-9.28 24.48-4 25.4"
    stroke="#171717"
    stroke-width="1.6"
    stroke-linecap="round"
  />
  <path
    d="M92.64 199.15c2.44 1.56 4.84 3.12 7.28 4.68 2.481 1.6 5.161 2.8 7.601 4.4 1.64 1.04 3.48 2.64 7.52 4.56M96.84 207.709c1.76 1.12 3.521 2.24 5.241 3.4 1.8 1.16 3.76 1.92 5.56 3.08 1.2.76 2.48 2 5.48 3.24M91 192.07c4.32 2.76 8.6 5.56 12.921 8.32 4.44 2.84 8.96 5.24 13.32 8.04M91.76 186.51c4.32 2.76 8.601 5.56 12.921 8.32 4.44 2.84 8.96 5.24 13.32 8.04M90.76 179.87c4.6 2.96 9.2 5.92 13.761 8.88 4.72 3.04 9.52 5.6 14.2 8.6M93.36 176.31c3.16 2.04 6.36 4.08 9.521 6.12 3.28 2.08 6.64 3.76 9.88 5.84 2.16 1.4 4.64 3.36 9.8 6.04M92.68 169.189c4.32 2.76 9.961 6.28 14.281 9.04 4.44 2.84 8.96 5.24 13.32 8.04 1.2.76 2.48 1.68 4.08 2.72M94.76 164.39c4.32 2.76 8.601 5.56 12.921 8.32 4.44 2.84 8.96 5.24 13.32 8.04 2.92 1.88 2.6 1.68 6 4M97 159.949c4.321 2.76 7.361 5.2 11.681 7.96 4.44 2.84 8.96 5.24 13.32 8.04 2.92 1.88.08.44 7 4.2M99.72 157.27c3.241 2.08 6.441 4.16 9.681 6.2 3.32 2.12 6.76 3.84 10.04 5.92 2.16 1.4 4.68 3.4 9.96 6.12M103.441 151.87c2.88 1.88 5.8 3.72 8.68 5.6 2.96 1.92 6.08 3.4 9.04 5.28 1.96 1.24 4.2 3.08 8.96 5.48M105.201 147.67l9.72 6.24c3.32 2.12 6.96 3.56 10.28 5.64 2.2 1.4 4.56 3.68 10.12 6M103.881 140.11c3.72 2.4 7.44 4.8 11.16 7.16 3.8 2.44 7.76 4.48 11.52 6.92 2.52 1.6 5.44 3.88 11.48 7.08M105.161 134.91c3.68 2.36 7.32 4.72 10.96 7.08 3.76 2.4 7.64 4.4 11.36 6.8 2.48 1.6 5.36 3.84 11.28 7M107.001 130.189c4.16 2.68 8.28 5.32 12.44 8 4.24 2.72 8.6 5.04 12.8 7.72 2.8 1.8 6.08 4.32 12.76 7.92M109.121 126.03c4.68 3 9.32 6 14 9 4.8 3.08 9.84 5.44 14.56 8.48 3.16 2.04 6.72 5 14.44 8.8M111.961 124.35l14.04 9c4.8 3.08 9.68 5.72 14.44 8.76 3.16 2.04 6.88 4.84 14.36 8.96M114.361 119.87c5.04 3.24 10.08 6.48 15.08 9.72 5.16 3.32 10.48 6.04 15.6 9.36 3.4 2.2 7.36 5.28 15.52 9.6M122.601 118.11c5.04 3.24 10.08 6.48 15.08 9.72 5.16 3.32 10.4 6.16 15.52 9.48 3.4 2.2 7.44 5.16 15.48 9.68M123.361 112.55l16.8 10.8c5.76 3.68 11.56 6.92 17.24 10.56 3.8 2.44 8.28 5.72 17.2 10.8M130.081 106.79l16.8 10.8c5.76 3.68 11.56 6.92 17.24 10.56 3.8 2.44 8.28 5.72 17.2 10.8M135.081 104.03l18.12 11.64c6.2 4 12.44 7.48 18.56 11.44 4.08 2.64 8.96 6.16 18.52 11.64M141.121 100.51c6.36 4.08 12.72 8.2 19.08 12.28 6.52 4.2 13.08 7.92 19.56 12.08 4.28 2.76 9.44 6.48 19.52 12.28M165.041 105.03c4.88 3.16 9.76 6.28 14.64 9.44 5 3.24 10.12 6 15.08 9.16 3.28 2.12 7.2 5.04 15 9.4M150.521 95.59c1.16.76 2.36 1.52 3.52 2.28 1.2.76 2.6 1.16 3.8 1.92.8.52 1.6 1.44 3.72 2.12M159.961 92.35c1.8 1.16 3.56 2.28 5.36 3.44 1.84 1.16 3.84 1.96 5.64 3.12 1.2.76 2.52 2 5.56 3.32M179.361 103.87c4.8 3.08 9.6 6.16 14.36 9.24 4.92 3.16 9.92 5.88 14.8 9 3.24 2.08 7.08 4.92 14.72 9.2M182.641 95.55l16.8 10.8c5.76 3.68 11.56 6.92 17.24 10.56 3.8 2.44 8.28 5.72 17.2 10.8M184.241 89.31c6.28 4.04 12.52 8.08 18.8 12.08 6.44 4.16 12.92 7.8 19.28 11.88 4.24 2.72 9.28 6.36 19.24 12.08M193.281 89.51c4.48 2.88 8.92 5.76 13.4 8.64 4.6 2.96 9.28 5.44 13.8 8.36 3.04 1.96 6.56 4.64 13.76 8.56M208.721 91.87c3.96 2.56 7.92 5.08 11.84 7.64 4.08 2.6 8.24 4.76 12.24 7.36 2.68 1.72 5.8 4.12 12.16 7.56M275.601 179.229c3.44-1.04 6.24-1.84 8.92-4.28 1.24-1.12 2-2.6 3.08-3.88 1.16-1.36 2.32-2.76 3.36-4.2 1.44-2 3.88-3.68 4.8-6 1.08-2.72 2.6-5.4 3.96-7.88 2.64-4.92 5.16-9.36 6.4-14.88.32-1.4.88-2.88 1.4-4.2.56-1.44.28-2.32.16-3.84-.2-2.64-.36-5.6-1-8.2-.52-2.24.56-5.2 0-7.56-.28-1.16-.48-3.28-.28-4.44.24-1.44-.2-2.96.08-4.36-1.04-5.36-3.12-9.96-4.64-15.08-.4-1.28-.84-2.68-1.6-3.76-.72-1.08.2-3.56-.28-4.72-.44-1-1.6-1.6-1.96-2.8-.32-1.08-1.24-2.92-2.08-3.72-2.04-2-2.96-4.92-5.44-6.68-2.16-1.52-3.4-3.28-5.12-5.08"
    stroke="#171717"
    stroke-width="1.6"
    stroke-linecap="round"
  />
  <path
    d="M301.761 60.19c-.68 1.24-.84 3.32-.92 4.72-.16 2.08-1.96 4.44-2.72 6.36-.84 2.12-1.24 4.4-2.96 6M138.161 225.63c-3.16 1.68-5.72 3.08-9.36 3.24-1.68.08-3.28-.44-4.92-.56-1.8-.16-3.6-.32-5.36-.6-2.44-.44-5.36.12-7.64-.88-2.72-1.16-5.64-1.96-8.36-2.8-5.32-1.64-10.24-3-15-6.08-1.2-.76-2.68-1.4-3.96-2-1.44-.64-1.84-1.44-2.84-2.6-1.72-2.04-3.68-4.24-5.08-6.52-1.2-2-4.04-3.28-5.32-5.36-.64-1.04-1.96-2.64-2.92-3.36-1.2-.88-1.92-2.24-3.16-3.04-3.04-4.56-4.8-9.24-7.32-13.96-.64-1.2-1.28-2.48-1.52-3.8-.24-1.28-2.68-2.36-3.12-3.56-.4-1 .04-2.28-.56-3.4-.52-1-1.16-2.96-1.16-4.08.04-2.88-1.36-5.56-.84-8.56.44-2.6.12-4.72.04-7.2"
    stroke="#171717"
    stroke-width="1.6"
    stroke-linecap="round"
  />
  <path
    d="M35.68 159.59c1.36.4 2.92 1.76 4 2.72 1.56 1.36 4.52 1.76 6.4 2.64 2.08.92 3.96 2.24 6.32 2.16M128.561 75.83c-.88-.32-2.16.04-2.92-.44-1.2-.76-2.72-1.36-4.08-1.8-1.56-.52-3.16-.96-4.64-1.44-3.28-1.08-6.84.64-10.16.48-.96-.04-1.96 0-2.96-.12-.72-.12-1.72-.4-2.48-.2-.8.2-1.6.36-2.4.64-1.28.48-1.76 1.48-2.8 2.24-3.04 2.32-5.32 5.52-8.28 7.72-1.36 1.04-2.44 2.76-3.64 4.08-1.2 1.32-2.12 3.04-2.64 4.72-1.12 3.68-.8 7.56-.92 11.279-.12 3.28 1.84 6.72 3 9.8 1.2 3.2 1.88 6.32 3.08 9.52M80.64 68.23c.4 1.08.68 2.64 1.52 3.44.68.68 1.28 1.32 2 2 1.72 1.6 3.84 2.68 4.72 5"
    stroke="#171717"
    stroke-width="1.6"
    stroke-linecap="round"
  />
  <path
    d="M86.36 73.99c-3.96 1.52-7.16 3.8-10.72 5.96-2.28 1.4-3.92 3.16-6.52 4.12-1.16.44-2.28 1.24-3.44 1.72-1.32.56-2.64.92-3.84 1.64-1.84 1.12-4.56 1.72-6.6 2.52-.72.28-2.04.32-2.32-.4-.44-1.2.36-2.32.8-3.56.6-1.72 1.8-3.2 2.76-4.88.8-1.4 1.56-2.04 2.8-3.12 1.32-1.16 2.92-2.08 4.28-3.16 1.52-1.2 3-2.44 4.64-3.48.64-.4 1.32-1.2 1.8-1.76.68-.76 1.6-1.28 2.36-1.92 1.12-1 2.44-2.04 3.68-2.88 1.56-1.08 3.2-2.64 4.56-3.92 1.28-1.24 2.68-1.96 4.12-2.96 2.08-1.48 4-3.28 6.44-4.28 4.2-1.76 8.56-3.68 12.961-5.12.52-.16 1.92 0 2.44.12 1 .24 1.24.92 1.52 1.72.4 1.04-.2 1.64-.6 2.64-.44 1.04-.88 2.32-1.64 3.24-2.72 3.36-6.24 5.8-9.72 8.52-4.68 3.68-8.16 8.28-13.08 11.88M103.401 95.35c-1.16.36-2.12.92-2.72 2.04-.96 1.72-2.64 3.24-3.44 5-.48 1.08-1.28 2.04-1.84 3.12-.48.92-.72 1.56-1.52 2.32-1.08 1.08-3.04 2.68-3.36 4.28-.16.76-1.04 1.56-1.4 2.28-.36.72-.64 2.2-1.12 2.76-.52.6-.28 1.6-.08 2.28.28.8 2.16.8 2.84.64 3.96-1.04 7.52-2.12 10.52-5.08 1.32-1.32 4.2-2.2 4.92-3.96 1.08-2.6 3.2-4.88 4.64-7.24 1.52-2.48 3.8-4.48 5.6-6.72 1.08-1.32 2.52-2.24 3.6-3.56 1-1.24 1.96-2.44 2.92-3.72 1.4-1.88 3.2-3.44 4.24-5.56.92-1.8 1.68-3.44 1.88-5.4.04-.36.24-1.92-.2-1.84-1.24.24-2.52.44-3.72 1-4.04 1.8-7.84 5.12-10.6 8.48-2.32 2.84-5.12 5.12-8.16 7.16-1.64 1.08-3.08 2.56-4.8 3.52-1.16.64-2.56 1.52-3.16 2.72M243.201 180.07c3.92 0 8.2.44 9.72 4.52.8 2.12.36 3.64-1.6 4.84-.88.56-1.6 1.72-2.72 1.96-1.64.36-3.44 1.52-4.96 2.2-6.92 3.2-14.72 3.08-22.08 4.2-3.24.48-6.4 1.28-9.6 1.96-3.28.72-6.56.72-9.96.72-1.76 0-3.52.12-5.2-.28-1.68-.4-3.28-1.08-4.96-1.28-3.28-.36-6.28-.88-9.6-.88-2.4 0-5.96-.6-8.08.68-.6.36-1.52.72-2.2.88-.88.2-1.48.88-2.28 1.12-.96.28-1.84 1.72-2.48 2.44-.64.68-1.16 1.6-1.64 2.44-.52.96-.4 1.88-.4 3 0 2.48-.24 4.84-.24 7.32 0 4.92 1.76 10.08 4.44 14.2 1.52 2.32 3.96 4.64 6.2 6.28 2.56 1.8 5.08 2.92 7.92 4.08 4.16 1.72 8.6 3.16 12.76 4.96 2.2.96 4.6 2.64 7.04 3 1.36.2 3 .52 4.28 1 1.36.52 3.56.12 5.04.12 2.08 0 4.28.2 6.16-.72.88-.44 1.76-.92 2.48-1.6.56-.52 1.52-1.08 2.28-1.24.92-.2 1.64-.2 2.48-1.44 2.24-1.08 4.12-1.84 6.44-2.88 1.76-.76 3.44-2.64 5.04-3.68.36-.24 1.44-.68 1.64-1 .2-.32.72-.8 1.04-1 .76-.44.84-1.48 1.2-2.2.96-2.08 2.08-3.68 3.56-5.44 1.68-2 3.04-4.32 3.48-6.84.4-2.24.92-4.64.92-6.96v-2.84c0-1.28-.6-2.48-.68-3.72-.08-1-.72-2.68-1.24-3.6-.68-1.2-1.28-2.44-1.88-3.68-.24-.52-.68-1.92-1.08-2.2-.32-.24-1-1.6-1-2M160.601 285.99c0 4.32-5.44 7.959-7.4 11.439-1.92 3.4-5.2 7.68-7.56 10.64-2.36 2.92-3.56 8.52-3.56 12.4 0 4.2-.76 9.121-.76 13.721 0 4.84 1.96 9.84 1.96 14.44 0 4.96 2.12 8.64 4.28 12.96.92 1.88 2.6 4.8 2.6 7 0 1.24-7.08-.88-7.72-1.04-4.36-.96-9.96-.04-14.44-.04M272.521 249.67c2.44 0 3.88-2.12 5.92-3.12 1.64-.84 4-1.56 5.36-2.64 2.6-2.08 7.08-2.4 9.84-4.6 5.68-4.56 17.36-3.76 24.04-1.88 4.48 1.28 8.2 4.08 8.2 8.92 0 3.68-1.32 10.4.16 13.72.64 1.4 1.16 14.6 3.56 9.28 1.48-3.28 12.32-7.12 16-7.12M229.681 141.709c.92 0 1.72 1.92 2.04 2.64.64 1.44 1.32 3.36 1.36 4.96.08 1.92-.08 3.6-.6 5.48-.28.96-.6 3.08-1.6 3.56M227.201 161.35c.44 0 1.12-.56 1.56-.68.6-.16 1.32-.28 1.92-.28 1.36 0 3.2-.52 4.56-.12 1.64.48 2.88 1.44 4.08 2.64 1.72 1.72 2 4.32 3.36 6.36M182.481 158.469c0 .72.72 1.32 1.08 1.92.48.84.76 1.76 1.28 2.56.92 1.56 1.24 3.48 1.24 5.24 0 2.2-1.56 4.24-2.72 5.96-.44.64-1.32.96-1.92 1.52-.64.6-1.28 1.04-1.92 1.64"
    stroke="#171717"
    stroke-width="1.6"
    stroke-linecap="round"
  />
  <path
    d="M207.241 184.149c.4 0 .92.08 1.28 0 .28-.08.44-.36.76-.4.76-.08 1.4-.4 2.2-.4 1.16 0 3.24-.64 4.24.28.64.6.96 1.48 1.28 2.28.24.68.64 1.4.64 2.12 0 1.44-.24 2.48-.84 3.8-.28.64-.64 2.04-1.2 2.32M215.721 201.39v2.48c0 .92-.24 1.72-.28 2.6-.04.8-.28 1.52-.28 2.32 0 .84-.12 1.64-.12 2.44-.08 2.16.4 4.24.4 6.32M215.441 217.67c0 1.28-.12 2.56-.12 3.84 0 1.6-.2 3.16-.28 4.76-.04 1.16.08 2.72-.2 3.84-.2.76-.2 1.72-.2 2.48 0 1-.24 2-.28 2.96-.04 1.4-.56 2.72-.56 4.12 0 1.2-.28 2.4-.28 3.56 0 1.08-.4 2.12-.4 3.2 0 .52.4.2.4.76 0 .32.04.92-.28 1.08M242.921 229.95c0-1-.44-2.12-.88-2.92-.2-.36-.16-.84-.36-1.24-.2-.44-.32-.88-.52-1.28-.12-.28-.28-1.04-.32-1.36-.04-.72-.28-1.48-.4-2.2-.16-1.12-.92-2.08-1.12-3.2-.36-2-.52-4-1.08-5.96-.48-1.72-1.52-3.32-1.68-5.12-.12-1.44-.12-3-.44-4.44-.16-.72-.36-1.4-.36-2.12 0-.64-.2-.84-.4-1.44M191.641 200.03c-.32.04-.68.68-.88.88-.52.52-1.12 1.16-1.48 1.8-.84 1.32-.96 3.12-1.48 4.6l-.84 2.28c-.32.8-.88 1.4-1.24 2.16-.56 1.28-1.04 2.64-1.48 3.96-.44 1.28-1.52 2.24-1.76 3.64-.12.6-.4 1.24-.64 1.76-.4.84-.36 1.96-.84 2.76-.48.76-.6 1.44-1.24 2.08-.72.72-1.76 1.56-2.2 2.52-.76 1.64-1.76 3.64-1.76 5.52M191.321 253.19c-.08 0 .2 0 .28.04.28.12.6.28.88.4.56.28.96.68 1.44 1.04.96.76 1.92 1.08 3.12 1.4 1.08.24 2.12.28 3.2.68.76.28 1.56.64 2.36.8 1.84.4 3.68 1.08 5.56 1.24.64.04 1.28.36 1.92.36.68 0 1.36.08 2.04.08.6 0 1.16-.08 1.76-.08.72 0 1.28.32 1.92.48.84.2 1.88.32 2.68 0 .48-.2 1.08-.12 1.56-.32.28-.12.6-.12.88-.12"
    stroke="#171717"
    stroke-width="1.6"
    stroke-linecap="round"
  />
</svg>
