<svg width="400" height="444" viewBox="0 0 400 444" fill="none" xmlns="http://www.w3.org/2000/svg">
<path d="M244.68 400.41C243.87 400.41 243.05 400.33 242.25 400.18L224.26 396.78C218.13 395.62 213.67 390.25 213.67 384.01V320.21C208.06 321.22 202.45 321.72 196.95 321.72C193.78 321.72 190.6 321.55 187.5 321.21C185.27 320.97 183.04 320.64 180.83 320.24V373.23L188.24 374.63C195.28 375.96 199.93 382.77 198.6 389.82C197.44 395.95 192.07 400.41 185.83 400.41C185.02 400.41 184.2 400.33 183.4 400.18L165.41 396.78C159.28 395.63 154.82 390.25 154.82 384.01V311.43C153.36 310.68 151.92 309.88 150.5 309.05V325.8L150.48 326.12C150.42 332.91 144.89 338.41 138.08 338.41H117.04C109.97 338.41 103.99 332.82 103.71 325.95C103.51 321.26 105.92 316.88 109.76 314.43C109.44 310.96 110.48 307.6 112.68 304.93C115.11 301.95 118.78 300.21 122.7 300.21C123.3 300.21 123.9 300.25 124.5 300.33V285.94C108.85 265.41 101.59 238.4 102.92 205.61C91.6897 178.08 96.1497 158.3 101.92 146.51C107.81 134.46 116.38 128.08 121.08 125.3C121.22 124.75 121.37 124.21 121.53 123.67C120.9 119.51 119.95 109.62 122.91 98.91C121.78 98.99 120.69 99.02 119.66 99.02C106.29 99.02 101.74 92.17 100.23 88.09C98.0297 82.17 98.4197 73.06 112.83 63.29C119.46 58.79 128.59 54.28 138.55 50.57C151.3 45.83 164.04 43 172.65 43C186.02 43 190.56 49.83 192.08 53.91C193.85 58.66 193.94 65.61 186.01 73.41C190.06 75.48 193.27 77.71 195.43 79.39C195.59 79.38 196.32 79.33 196.32 79.33H196.73C266.67 79.33 290.74 122.45 293.69 145.26C294.17 149 293.02 152.73 290.54 155.53C290.48 155.6 290.41 155.68 290.35 155.75C296.6 170.4 300.71 186.69 302.26 203.06C302.36 204.09 302.57 205.88 302.78 207.74L302.8 207.91C303.22 211.52 303.43 213.42 303.49 214.39L303.51 214.76V325.91C303.43 332.8 297.76 338.41 290.88 338.41H270.06C262.99 338.41 257.01 332.82 256.73 325.95C256.53 321.26 258.94 316.88 262.78 314.43C262.46 310.96 263.5 307.6 265.7 304.93C268.13 301.95 271.8 300.21 275.72 300.21C276.32 300.21 276.92 300.25 277.52 300.33V284.42C267.01 295.91 253.92 305.46 239.68 311.99V373.24L247.09 374.64C254.13 375.97 258.78 382.78 257.45 389.82C256.29 395.96 250.92 400.41 244.68 400.41Z" fill="white"/>
<path d="M271.36 146.84C292.56 182.72 293.68 229.56 284.48 250.48C268.84 286.16 227.48 312.48 188.92 308.28C152.24 304.28 112.56 274.76 116 204.6" stroke="#171717" stroke-width="2" stroke-linecap="round"/>
<path d="M223.8 193.4C230.2 193.8 240.04 197.08 228.2 207" stroke="#171717" stroke-width="2" stroke-linecap="round" stroke-linejoin="round"/>
<path d="M269.88 146.6C271.36 150.84 272.88 155.04 275.48 158.32C278.52 162.16 280.32 168.52 282.8 173.04C285.16 177.4 288.8 182.36 288.8 187.44C288.8 190.92 290.96 194.44 290.96 197.96C290.96 201.28 290.96 204.6 290.96 207.92C290.96 215.04 290.6 223.2 287.16 229.52C285.84 231.92 286.72 237.28 286.44 240.04C286.12 243.12 283.88 246.12 283.56 248.92C282.84 255.2 276.08 263.2 273.28 268.88C267 281.64 257.84 289.2 245.76 296.04C242.64 297.8 239.56 298.12 236.52 299.68C233.76 301.08 229.52 304.04 226.72 304.36C220.32 305.12 212.12 308.92 205.84 309.32C201 309.6 196.36 312.16 191.36 309.32C186.6 306.64 176.48 305.8 171.2 305.48C160.56 304.88 151.28 295.24 143.44 288.88C139.8 285.92 135.52 275.72 133.2 271.28C130.6 266.32 128.36 261.84 124.64 257.64C115.24 247.04 116.76 232.52 116.76 218.56C116.76 214 116.36 209.2 116.76 204.6" stroke="#171717" stroke-width="2" stroke-linecap="round"/>
<path d="M223 193C224.862 193 226.729 193.074 228.514 193.68C229.272 193.938 229.888 194.536 230.508 195.018C231.234 195.583 231.634 196.477 231.983 197.308C232.467 198.463 232.74 199.469 232.74 200.737C232.74 201.761 231.849 202.837 231.11 203.488C230.129 204.351 229.081 205.349 228.355 206.438" stroke="#171717" stroke-width="2" stroke-linecap="round"/>
<path d="M138.182 107.112C138.182 103.742 137.88 100.032 139.512 96.9498C140.473 95.1339 142.135 93.8067 143.651 92.4787C143.986 92.1849 144.374 91.7251 144.75 91.4995C145.385 91.1186 143.549 92.3677 142.985 92.8482C142.117 93.5888 141.257 94.3413 140.51 95.2039C140.435 95.29 140.025 95.8297 140.099 95.4256C140.171 95.025 140.58 94.5747 140.824 94.2847C142.234 92.605 143.666 90.9947 145.42 89.6612C148.12 87.6073 151.407 85.3606 154.939 85.2454C155.011 85.2431 156.039 85.0844 156.02 85.2454C156.002 85.395 155.19 85.5813 155.124 85.6057C154.042 86.0072 152.968 86.448 151.918 86.9267C150.285 87.6719 148.678 88.5322 147.096 89.384C146.56 89.6725 146.019 89.9808 145.54 90.354C145.462 90.4146 146.423 89.9498 146.588 89.8736C148.881 88.8195 151.181 87.758 153.457 86.6681C155.532 85.6741 157.663 84.3819 159.965 83.9983C161.686 83.7114 163.337 83.5685 165.082 83.5826C165.514 83.5861 165.97 83.627 166.367 83.8136C166.77 84.0036 165.625 83.3162 165.244 83.0838C164.506 82.6333 163.739 82.2764 162.916 82.0076C162.504 81.8728 161.791 81.8842 161.433 81.6288C161.203 81.4644 161.991 81.7296 162.265 81.7997C163.187 82.0355 164.107 82.3079 165.018 82.5849C166.267 82.965 167.635 83.2378 168.759 83.9337C169.926 84.656 166.225 82.8748 164.925 82.4325C163.77 82.0391 162.311 82.1692 161.092 82.1692C160.616 82.1692 160.18 82.2792 159.715 82.3309C159.602 82.3435 159.45 82.3194 159.669 82.354C160.345 82.4607 161.026 82.5351 161.701 82.645C164.578 83.1129 167.394 83.8322 170.177 84.6958C171.685 85.1636 173.181 85.8722 174.727 86.2016C175.667 86.4018 176.568 86.7328 177.503 86.9498C178.191 87.1095 178.875 87.2509 179.503 87.5734C180.312 87.9889 180.758 88.7308 181.313 89.4025C181.562 89.7036 181.788 89.9786 182.062 90.2524C182.154 90.3451 182.819 90.9172 182.819 91.0237C182.819 91.0855 182.361 90.8148 182.708 91.3609C183.02 91.8505 183.588 91.9341 184.057 92.2293C184.428 92.4627 183.288 92.3113 183.124 92.3124C182.009 92.3203 180.966 92.5161 179.882 92.7466C178.346 93.073 176.742 93.3423 175.189 93.5642C174.715 93.6318 174.216 93.9069 173.761 94.0584C172.935 94.334 172.122 94.6493 171.313 94.9729C170.78 95.1863 170.143 95.3507 169.651 95.6427C169.22 95.898 168.806 96.1309 168.343 96.3217C167.426 96.7003 166.433 97.1007 165.452 97.2824C164.621 97.4362 163.744 97.8935 162.962 98.2154C161.688 98.7402 160.391 99.1274 159.05 99.4626C157.952 99.7371 156.708 100.377 155.558 100.377" stroke="#FFD424" stroke-width="2" stroke-linecap="round"/>
<path d="M136.059 118.348C136.059 115.951 135.861 113.46 136.159 111.079C136.297 109.977 136.606 108.915 136.73 107.809C136.85 106.742 137.09 105.55 137.409 104.524C137.971 102.712 138.355 100.843 139.115 99.0968C139.476 98.2672 140.101 97.5393 140.686 96.8547C141.467 95.9411 142.144 94.9112 142.993 94.0626C143.577 93.4786 144.196 92.8821 144.656 92.1918C144.716 92.1028 145.391 90.9387 145.306 91.6205C145.179 92.6364 144.548 93.6673 144.157 94.5911C143.257 96.711 142.47 98.8718 141.586 100.996C140.311 104.06 139.19 107.304 138.565 110.565C138.279 112.059 138.115 116.628 138.115 115.106C138.115 113.683 138.592 112.559 139.201 111.265C140.846 107.771 142.564 104.249 143.871 100.611C145.058 97.3037 145.98 93.7504 147.555 90.5994C147.649 90.4124 147.977 89.8895 147.82 90.0781C147.658 90.2724 147.721 90.8271 147.684 91.0635C147.513 92.1625 147.362 93.2624 147.084 94.3411C146.545 96.4352 145.979 98.5296 145.213 100.554C144.794 101.662 144.209 102.679 143.771 103.774C143.175 105.264 142.766 106.823 142.421 108.387C142.167 109.543 141.49 110.812 141.457 111.993C141.435 112.806 141.701 111.806 141.871 111.479C142.461 110.35 143.253 109.324 143.957 108.266C145.41 106.08 146.705 103.825 147.941 101.51C150.411 96.8839 152.166 92.0289 153.896 87.1147C154.197 86.2608 154.311 85.2451 154.311 84.3441C154.311 84.1383 154.428 83.478 154.239 83.9086C154.024 84.4003 153.781 84.938 153.475 85.3795C152.869 86.2545 152.522 87.4262 152.076 88.3858C151.254 90.1504 150.499 91.9318 149.683 93.6985C148.95 95.2872 148.177 96.8899 147.627 98.5541C147.105 100.136 146.882 101.807 146.534 103.431C146.339 104.345 146.176 105.319 146.092 106.252C146.015 107.097 146.267 106.327 146.656 105.952C148.659 104.02 150.936 102.446 152.868 100.411C153.866 99.36 154.786 98.3557 155.31 96.9832C155.885 95.4793 156.209 93.8988 156.496 92.3203C156.914 90.0216 157.345 87.6683 157.524 85.3367C157.579 84.6239 157.601 83.6673 157.881 83.0017C158.86 80.6754 156.152 87.7444 155.282 90.1138C154.658 91.8124 153.917 93.4951 153.211 95.1623C152.297 97.3198 151.63 99.5715 150.74 101.739C150.175 103.114 149.534 104.478 149.041 105.881C149.008 105.974 148.674 107.322 148.912 107.109C149.958 106.173 151.354 105.58 152.54 104.824C154.94 103.292 157.405 101.744 159.43 99.7181C160.78 98.369 161.867 96.7895 163.037 95.2908C163.348 94.8915 164.444 93.8339 164.108 94.2126C163.587 94.7988 162.997 95.3516 162.408 95.8835C160.699 97.4286 159.272 99.2166 157.41 100.596C156.145 101.533 151.69 103.193 153.182 102.696C157.032 101.413 160.409 99.1764 163.879 97.1474C166.944 95.3557 169.969 93.8224 173.462 93.0558C176.288 92.4356 179.093 92.0981 181.952 91.6776C182.793 91.554 183.738 91.4848 184.587 91.4848C185.206 91.4848 186.298 91.7101 186.879 91.4777C187.019 91.422 186.268 90.994 186.187 90.9707C184.987 90.628 183.829 89.6736 182.745 89.0713C180.473 87.8092 178.051 86.7885 175.59 85.9508C173.037 85.0816 170.566 83.7063 167.807 83.6443C164.002 83.5589 160.208 83.1208 156.396 83.5444C156.301 83.5549 155.127 83.755 155.467 83.7729C156.966 83.8518 158.2 84.1083 159.545 84.8583C160.441 85.3584 161.072 85.9185 160.787 86.9933C160.612 87.6561 160.182 88.2192 159.838 88.7999C159.174 89.9196 158.756 91.1561 158.267 92.356C157.705 93.7319 157.022 95.1392 156.724 96.5976C156.544 97.48 156.677 96.7234 156.824 96.2834C157.454 94.3951 158.401 92.6871 159.43 90.9921C159.54 90.812 160.581 89.0138 160.602 89.1284C160.805 90.2459 159.959 91.7424 159.709 92.7987C159.17 95.0742 158.729 97.4189 158.038 99.6538C157.804 100.411 158 99.678 158.224 99.4539C158.732 98.9459 159.441 98.6211 160.023 98.2114C161.61 97.0939 163.063 95.7323 164.515 94.4482C165.846 93.2714 167.486 91.9476 168.506 90.4637C168.842 89.9762 168.715 89.6537 168.164 89.3998C166.381 88.5791 164.487 88.1704 162.565 87.786C161.819 87.6366 161.042 87.5814 160.309 87.3718C159.608 87.1715 160.133 87.1147 160.552 87.1147C166.329 87.1147 172.229 86.7685 177.961 87.3718C178.039 87.3801 178.231 87.4649 178.161 87.5003C177.792 87.6846 176.599 87.2493 176.29 87.1861C171.449 86.1961 166.623 84.8291 161.737 84.1014C161.425 84.0548 160.273 84.0188 161.216 84.1585C162.282 84.3165 163.292 84.6899 164.322 85.0011C167.102 85.8417 169.955 86.4572 172.776 87.1433C175.29 87.7545 177.839 88.2694 180.317 89.0142C181.161 89.2677 181.952 89.6501 182.788 89.9139C183.038 89.9929 182.928 90.0654 182.716 90.071C181.837 90.0941 180.954 90.071 180.074 90.071C175.885 90.071 171.696 90.071 167.507 90.071C167.082 90.071 166.343 89.9279 165.936 90.0995C165.88 90.1229 167.233 90.2038 167.364 90.2067C169.741 90.2595 172.255 90.1946 174.59 90.7136C174.742 90.7475 174.296 90.8422 174.14 90.8422C171.36 90.8422 168.563 90.9193 165.793 91.1564C163.758 91.3305 161.745 91.6635 159.723 91.9418C159.402 91.9861 158.42 92.1275 159.366 92.1275C161.697 92.1275 164.022 91.7419 166.35 91.7419C168.771 91.7419 161.522 91.3623 159.109 91.1564C158.507 91.105 157.945 90.9793 157.36 90.8493C156.989 90.767 158.09 90.6275 158.466 90.5851C160.116 90.3995 161.773 90.3007 163.422 90.0995C164.169 90.0084 164.993 90.0435 165.721 89.8425C166.001 89.7654 165.163 89.7885 165.122 89.7854C164.013 89.7017 162.913 89.6854 161.801 89.6854C161.75 89.6854 160.857 89.6605 161.187 89.7568C162.498 90.1393 163.947 90.1788 165.286 90.4637C166.696 90.7637 168.19 91.012 169.556 91.4848C170.883 91.9441 169.148 92.282 168.606 92.4703C163.985 94.0759 159.422 95.8483 154.81 97.4688C154.782 97.4787 153.857 97.8404 154.239 97.6544C155.01 97.2794 155.803 96.9409 156.603 96.6333C156.96 96.4958 158.245 95.6516 158.159 96.5048C158.107 97.0275 157.703 97.4699 157.381 97.8544C156.661 98.715 155.915 99.5654 155.16 100.396C154.576 101.04 154.046 101.76 153.432 102.374C153.143 102.664 153.139 102.344 153.161 102.089C153.196 101.686 153.939 101.212 153.796 101.41C153.575 101.718 153.173 101.844 152.868 102.053C152.193 102.517 151.517 102.967 150.912 103.524C148.699 105.561 146.83 107.931 144.628 109.979C143.906 110.651 143.285 111.537 142.486 112.114C141.574 112.773 141.638 111.726 141.772 110.936C142.026 109.437 142.752 108.016 143.385 106.652C144.231 104.831 145.126 103.033 146.027 101.239C146.859 99.5855 147.738 98.0646 148.791 96.5476C149.716 95.2145 150.625 93.8497 151.469 92.4631C151.685 92.1075 151.74 91.8607 151.74 91.4563C151.74 90.8993 151.74 90.3423 151.74 89.7854C151.74 89.172 151.299 89.2682 150.776 89.3069C149.542 89.3983 148.441 90.3926 147.498 91.0992" stroke="#FFD424" stroke-width="2" stroke-linecap="round"/>
<path d="M145.96 70.76L151.32 83.12" stroke="#171717" stroke-width="2" stroke-linecap="round" stroke-linejoin="round"/>
<path d="M134.68 123.32C132.48 112.68 133.24 91.08 151.32 83.16C168.6 75.6 185.52 86.88 191 92.84" stroke="#171717" stroke-width="2" stroke-linecap="round" stroke-linejoin="round"/>
<path d="M149.231 79.2424C167.865 72.3055 181.595 62.9895 179.9 58.4346C178.204 53.8797 161.724 55.8107 143.09 62.7477C124.457 69.6846 110.726 79.0005 112.421 83.5554C114.117 88.1103 130.597 86.1793 149.231 79.2424Z" stroke="#171717" stroke-width="2"/>
<path d="M189.48 92.6001C188.76 92.0001 187.44 91.9601 186.84 91.2401C185.92 90.1601 184.68 89.1201 183.56 88.2401C182.24 87.2801 180.84 86.3201 179.6 85.4001C176.84 83.3601 172.92 83.8801 169.8 82.6801C168.88 82.3201 167.92 82.0801 167.04 81.6401C166.36 81.3201 165.52 80.7201 164.76 80.6801C163.92 80.6401 163.16 80.5201 162.28 80.5601C160.92 80.6001 160.16 81.4001 158.92 81.8401C155.32 83.0801 152.16 85.4401 148.64 86.6001C147 87.1601 145.48 88.4801 143.92 89.3201C142.36 90.2001 140.96 91.5601 139.96 92.9601C137.76 96.0801 136.84 99.8801 135.56 103.4C134.44 106.48 135.2 110.36 135.36 113.64C135.52 117.04 135.16 120.24 135.32 123.64" stroke="#171717" stroke-width="2" stroke-linecap="round"/>
<path d="M146.36 70.4399C146.4 71.5999 146.2 73.1599 146.72 74.1999C147.16 75.0799 147.52 75.8399 148 76.7199C149.12 78.7599 150.8 80.4799 150.92 82.9599" stroke="#171717" stroke-width="2" stroke-linecap="round"/>
<path d="M150.912 77.8998C146.52 78.1207 142.626 79.4461 138.441 80.5065C135.748 81.1692 133.593 82.4946 130.693 82.6271C129.408 82.6713 128.041 83.1573 126.757 83.2456C125.265 83.3782 123.856 83.2898 122.448 83.6433C120.252 84.1734 117.434 83.9083 115.155 83.9967C114.368 84.0409 113.042 83.6433 113.001 82.7596C112.96 81.3459 114.12 80.4181 114.948 79.2252C116.067 77.5906 117.766 76.4419 119.216 74.9839C120.417 73.7911 121.412 73.3934 122.986 72.6424C124.644 71.8471 126.508 71.4495 128.207 70.7868C130.071 70.0357 131.977 69.2405 133.925 68.7103C134.67 68.4894 135.623 67.9151 136.286 67.4733C137.198 66.899 138.234 66.6781 139.228 66.2363C140.637 65.5735 142.294 64.955 143.786 64.469C145.692 63.8947 147.805 62.7902 149.545 61.9066C151.202 61.0672 152.818 60.7579 154.558 60.1836C157.086 59.3441 159.53 58.1071 162.265 57.8862C166.988 57.4886 171.877 56.9584 176.684 57.0026C177.264 57.0026 178.548 57.6653 179.045 58.0187C179.957 58.6373 179.957 59.4325 179.998 60.4045C180.04 61.6857 179.253 62.0833 178.548 63.0111C177.802 63.9831 176.932 65.1759 175.896 65.8828C172.126 68.4894 167.9 69.859 163.591 71.5379C157.79 73.8352 152.86 77.5022 146.893 79.6229" stroke="#171717" stroke-width="2" stroke-linecap="round"/>
<path d="M117.572 201.555C116.848 199.926 116.246 198.208 115.505 196.563C115.017 195.477 112.983 192.593 113.874 193.385C115.37 194.715 116.703 196.202 118.334 197.41C118.691 197.674 121.712 200.192 120.389 198.703C117.482 195.433 116.232 191.26 114.309 187.414C113.103 185.002 111.524 182.975 110.501 180.476C109.851 178.886 110.308 179.911 110.876 180.669C112.808 183.246 115.333 185.335 117.089 188.066C118.332 190.001 119.582 192.563 121.271 194.158C121.642 194.509 121.759 194.251 121.658 193.844C121.295 192.395 120.211 191.558 119.446 190.339C117.619 187.43 116.47 183.753 115.518 180.464C115.008 178.704 114 177.204 113.39 175.496C113.267 175.15 112.762 174.167 112.907 174.505C113.266 175.342 113.594 176.038 114.14 176.801C117.194 181.077 120.425 185.409 123.882 189.36C124.385 189.935 125.075 190.601 125.67 191.064C125.898 191.241 125.021 189.421 124.921 189.275C123.419 187.084 122.324 184.832 121.271 182.398C119.696 178.755 118.44 175.057 116.484 171.58C115.527 169.878 114.907 168 113.874 166.358C113.704 166.089 112.723 164.203 113.354 165.464C115.214 169.184 119.182 171.612 121.887 174.674C123.437 176.428 124.706 178.367 126.106 180.234C126.857 181.236 127.746 182.361 128.185 183.546C128.442 184.242 128.766 184.975 129.224 185.564C130.186 186.801 127.69 184.934 127.363 184.537C125.639 182.451 123.853 180.233 122.588 177.829C120.889 174.599 120.21 170.732 119.434 167.204C119.132 165.832 118.635 164.527 118.334 163.155C118.052 161.873 117.817 160.558 117.185 159.396C116.815 158.714 116.741 157.584 116.219 157.003C114.765 155.388 114.827 158.066 115.179 159.034C115.444 159.763 115.524 160.567 115.723 161.318C116.117 162.808 116.781 164.208 117.137 165.706C117.341 166.565 117.551 167.279 117.959 168.051C118.02 168.165 117.292 166.935 117.137 166.636C115.488 163.457 115.968 158.54 116.968 155.166C117.283 154.103 117.355 153.171 117.355 152.072C117.355 151.716 117.299 151.436 117.463 151.963C117.829 153.132 118.105 154.165 118.708 155.263C120.296 158.149 122.404 160.634 124.208 163.373C125.797 165.785 128.02 167.684 129.538 170.13C130.696 171.994 132.057 173.732 133.189 175.617C133.8 176.636 134.135 177.893 134.856 178.82C135.248 179.323 135.115 180.109 135.364 180.669C135.447 180.855 135.493 181.454 135.388 181.636C134.916 182.462 132.379 179.64 132.149 179.364C127.885 174.236 122.695 169.841 120.074 163.591C119.699 162.696 119.35 161.799 118.999 160.895C118.673 160.058 119.152 161.943 119.264 162.176C120.972 165.718 122.792 169.259 124.921 172.571C126.492 175.015 128.434 177.01 130.191 179.255C130.597 179.774 131.797 181.104 132.584 181.104C133.265 181.104 134.87 178.77 135.412 178.288C136.158 177.625 137.258 176.912 138.132 176.427C138.534 176.204 138.693 176.368 138.325 175.859C137.353 174.512 136.036 173.434 135.195 171.991C132.027 166.554 130.491 160.403 128.281 154.562C127.458 152.387 126.42 150.258 125.405 148.156C124.853 147.014 124.321 145.88 123.543 144.88C123.122 144.339 122.623 143.851 122.31 144.554C121.872 145.539 121.257 146.091 120.509 146.838C120.325 147.023 118.94 148.63 119.144 148.857C119.271 148.998 119.633 149.046 119.796 149.123C120.755 149.57 121.36 150.555 121.972 151.371C124.345 154.535 126.697 157.665 128.837 160.992C129.808 162.5 130.934 163.962 131.666 165.609C131.809 165.931 132.632 167.1 131.907 166.939C130.469 166.619 129.365 164.55 128.668 163.433C127.134 160.975 125.881 158.336 124.317 155.903C123.352 154.403 122.418 152.675 121.223 151.347C121.037 151.141 120.982 150.84 121.065 150.549C121.202 150.071 122.492 151.006 122.625 151.081C123.185 151.397 127.145 153.583 127.145 152.906C127.145 151.938 126.491 151.234 126.057 150.416C125.429 149.229 125.021 147.935 124.8 146.608C124.559 145.159 124.534 140.74 124.534 142.209C124.534 143.818 124.805 145.184 124.486 146.778C124.229 148.063 124.589 151.986 124.305 150.706C123.869 148.745 122.893 146.932 122.407 144.989C122.148 143.954 123.252 144.203 123.882 143.853C124.742 143.375 124.847 141.904 125.078 141.073C125.254 140.439 125.174 139.127 125.67 140.468C125.94 141.196 126.488 141.877 127.073 142.378C128.671 143.749 130.437 144.946 132.052 146.306C135.573 149.271 138.873 152.818 141.492 156.616C143.243 159.155 144.987 161.684 145.807 164.69C145.985 165.344 146.477 166.548 145.275 165.512C143.101 163.638 141.316 161.378 139.546 159.13C137.508 156.543 135.148 154.242 133.14 151.637C131.723 149.797 130.513 147.921 128.886 146.294C128.39 145.798 126.986 143.838 127.822 145.569C129.525 149.096 130.772 152.814 132.536 156.302C134.124 159.445 136.144 162.171 137.927 165.174C138.674 166.433 139.18 167.875 140.078 169.03C140.334 169.358 140.588 169.912 139.933 169.525C138.626 168.753 137.683 167.572 136.5 166.648C135.41 165.797 132.556 162.821 133.334 163.965C134.507 165.691 135.996 167.3 137.322 168.921C138.252 170.058 139.326 171.741 139.764 173.163C139.807 173.303 140.392 174.283 140.392 173.876C140.392 172.508 139.273 171.122 138.628 170.009C136.806 166.866 135.994 163.291 134.24 160.134C133.579 158.943 136.385 161.813 137.479 162.624C138.964 163.723 140.414 164.784 141.722 166.092C141.91 166.28 143.434 167.889 143.148 167.301C142.133 165.214 140.688 163.247 139.498 161.258C137.483 157.89 135.689 154.501 134.131 150.899C132.953 148.175 132.174 145.322 130.952 142.608C130.522 141.652 130.082 140.694 129.707 139.719C129.613 139.472 129.165 139.007 129.2 138.728C129.205 138.686 130.268 139.525 130.336 139.574C135.896 143.577 141.371 147.508 145.203 153.256C146.897 155.798 148.264 158.548 149.989 161.04C150.983 162.475 149.882 161.794 148.986 161.064C146.495 159.034 143.669 156.44 141.951 153.691C140.407 151.22 139.247 148.551 137.806 146.028C137.012 144.639 135.953 143.091 135.412 141.605C135.12 140.799 134.683 140.059 134.373 139.284C133.767 137.768 134.575 138.846 135.509 139.55C139.713 142.717 144.3 145.418 148.66 148.361C150.573 149.653 151.931 151.477 153.579 153.039C153.897 153.34 155.75 155.606 154.558 154.344C153.248 152.957 152.586 151.08 151.464 149.558C149.896 147.43 148.463 145.029 146.726 143.043C146.052 142.273 145.293 141.321 144.816 140.42C144.544 139.907 143.377 139.682 142.918 139.223C142.19 138.495 141.027 136.126 139.5 134.5C137.153 132 136.249 127.295 134.663 128C134.268 128.176 134.072 134.982 134.663 135.742C135.319 136.585 136.395 137.258 137.153 138.027C138.629 139.523 139.856 141.25 141.263 142.813C144.694 146.625 147.645 150.82 149.663 155.529C150.422 157.299 151.035 159.019 153.035 159.13C153.482 159.155 153.616 159.275 153.374 158.599C152.908 157.299 151.788 155.993 150.968 154.888C150.228 153.89 149.744 152.732 149.216 151.612C148.816 150.767 149.672 151.61 149.868 151.842C150.705 152.83 151.435 153.509 152.6 154.127C153.126 154.405 154.833 155.981 154.123 154.562" stroke="#171717" stroke-width="4" stroke-linecap="round"/>
<path d="M158.384 153.2C158.384 151.592 157.857 150.292 157.259 148.808C156.331 146.509 155.451 144.242 154.242 142.067C152.394 138.741 149.995 135.676 148.252 132.324C146.538 129.028 144.603 125.696 142.248 122.817C137.857 117.451 148.409 135.244 151.755 141.317C152.672 142.981 153.698 144.67 154.479 146.404C155.027 147.623 154.32 146.914 153.728 146.279C151.41 143.789 149.806 140.719 147.863 137.953C146.085 135.424 143.941 133.131 142.248 130.559C141.459 129.362 140.747 128.099 139.926 126.931C139.526 126.362 139.224 125.376 138.62 124.985C138.34 124.804 137.352 123.679 137.619 123.679C138.759 123.679 139.629 124.502 140.872 124.429C141.453 124.395 140.872 121.918 140.872 121.427C140.872 120.991 140.463 118.976 140.872 118.925C141.422 118.856 142.422 117.159 142.678 116.674C143.903 114.361 143.671 116.793 144.18 117.98C145.385 120.793 147.557 123.257 149.128 125.875C150.834 128.718 152.803 131.371 154.632 134.131C155.55 135.517 156.241 137.038 157.133 138.44C157.553 139.099 158.168 139.935 158.384 140.691C158.673 141.7 159.94 143.787 160.761 144.444C160.991 144.628 163.454 147.701 163.499 147.641C163.939 147.055 159.522 141.619 159.135 141.025C156.68 137.252 154.814 133.026 152.894 128.96C151.208 125.39 149.938 121.542 148.127 118.05C147.269 116.396 146.79 114.348 146.389 112.546C146.264 111.98 146.813 113.32 147.029 113.574C149.274 116.21 151.633 118.788 153.784 121.497C156.709 125.18 159.43 129.031 162.387 132.685C163.65 134.245 164.654 135.891 165.529 137.689C166.225 139.12 166.754 140.53 167.641 141.887C168.209 142.756 168.861 143.545 169.337 144.444C169.611 144.962 169.581 145.051 168.976 144.583C167.345 143.323 166.272 142.138 165.084 140.441C161.815 135.772 158.794 131.128 157.133 125.625C156.077 122.123 155.454 118.347 154.937 114.728C154.596 112.336 152.88 107.778 152.88 107.778C152.88 107.778 153.314 109.012 153.645 109.571C155.036 111.918 156.866 113.927 158.537 116.076C160.714 118.875 162.904 121.584 164.875 124.54C166.204 126.533 167.231 128.671 168.517 130.684C171.08 134.695 173.047 139.219 175.397 143.332C175.812 144.058 176.508 144.623 176.898 145.306C177.4 146.184 176.154 144.347 176.008 144.166C173.726 141.333 171.45 138.159 169.796 134.923C167.945 131.304 166.449 127.495 164.75 123.804C163.558 121.215 162.229 118.691 161.15 116.048C159.876 112.926 159.396 109.238 157.759 106.291C157.523 105.866 157.199 105.677 157.634 106.166C158.302 106.918 158.681 108.054 159.246 108.89C161.841 112.729 165.035 116.176 167.836 119.87C169.924 122.625 171.625 125.61 173.395 128.571C175.543 132.164 177.87 135.817 179.594 139.635C180.225 141.032 181.173 143.24 182.207 144.388C182.391 144.593 182.847 145.278 182.652 145.083C181.547 143.978 180.658 141.852 179.789 140.524C175.707 134.287 172.336 127.543 169.448 120.677C167.835 116.841 166.749 112.777 164.945 109.029C164.203 107.488 163.338 106.037 162.582 104.526C162.235 103.831 163.041 105.041 163.166 105.193C164.862 107.266 166.999 109.026 168.892 110.919C173.907 115.934 177.533 121.7 180.776 127.946C182.582 131.424 183.926 135.113 185.529 138.676C186.116 139.98 187.334 141.433 187.642 142.818C187.821 143.624 187.263 142.826 186.905 142.429C185.262 140.603 183.896 138.292 182.402 136.327C179.081 131.96 176.063 127.498 173.646 122.553C172.976 121.182 172.267 119.768 171.519 118.439C171.24 117.942 170.685 116.961 171.408 118.091C175.102 123.863 178.765 129.641 182.013 135.688C183.394 138.259 184.881 140.82 186.155 143.443C186.54 144.237 187.815 146.517 186.155 144.944C184.488 143.365 181.973 142.822 180.206 141.331C176.138 137.899 172.799 134.104 169.893 129.683C168.137 127.013 165.884 124.936 163.944 122.428C162.527 120.596 161.14 118.74 159.635 116.979C158.352 115.478 157.134 113.928 155.827 112.476C155.239 111.822 154.97 111.25 154.576 110.419C154.278 109.789 154.154 107.929 153.631 107.667" stroke="#171717" stroke-width="4" stroke-linecap="round"/>
<path d="M197.608 143.555C196.239 139.876 194.803 136.228 193.299 132.602C191.552 128.392 190.073 123.57 187.656 119.676C185.481 116.171 182.732 112.738 181.151 108.918C180.066 106.295 178.671 103.686 176.648 101.663C176.34 101.355 175.103 99.272 174.702 99.272C174.156 99.272 175.996 102.852 176.05 102.955C178.422 107.523 180.253 112.361 182.207 117.118C185.264 124.56 188.891 131.693 192.354 138.94C193.014 140.322 193.787 141.937 194.161 143.429C194.464 144.644 194.913 144.962 193.605 143.471C185.436 134.166 181.444 122.172 174.646 111.976C172.97 109.461 171.314 107.108 169.893 104.415C169.488 103.647 167.726 101.397 169.198 103.414C171.493 106.559 173.787 109.728 176.022 112.921C178.121 115.919 179.877 119.159 182.096 122.067C183.202 123.516 180.949 120.312 180.762 120.009C179.245 117.551 177.883 115.002 176.592 112.421C175.421 110.079 174.325 107.589 173.59 105.11C173.452 104.644 172.322 101.868 171.7 102.024C171.455 102.085 174.683 107.039 174.813 107.208C177.841 111.139 180.838 115.077 183.903 118.981C185.754 121.338 187.343 123.901 189.157 126.292C190.104 127.54 190.956 128.778 191.659 130.184" stroke="#171717" stroke-width="4" stroke-linecap="round"/>
<path d="M265.713 118.675C265.713 121.2 266.722 123.396 267.715 125.68C269.017 128.676 270.321 131.652 271.662 134.631C273.083 137.789 274.391 140.899 276.096 143.93C276.399 144.469 276.665 145.02 276.972 145.556C277.694 146.821 274.693 143.72 273.719 142.637C269.176 137.583 265.119 131.345 262.225 125.194C260.617 121.778 259.073 118.347 257.457 114.936C256.789 113.525 254.175 109.622 254.955 110.975C255.782 112.409 256.208 114.298 256.818 115.84C258.344 119.699 259.912 123.546 261.335 127.445C263.194 132.54 265.448 137.496 267.909 142.331C268.503 143.498 268.828 143.389 269.5 144.5C269.718 144.861 270.595 145.69 270.195 145.556C268.681 145.052 267.926 144.488 266.964 143.332C264 139.768 261.447 135.874 259.222 131.81C256.332 126.528 253.701 121.059 251.008 115.673C250.123 113.903 249.382 112.08 248.701 110.224C248.126 108.661 247.177 107.094 246.699 105.54C246.594 105.197 245.728 104.239 246.088 104.804C246.577 105.573 246.913 106.291 247.2 107.167C248.934 112.465 250.676 117.767 252.467 123.053C254.083 127.82 256.224 132.399 257.902 137.133C258.744 139.509 260.197 141.54 261.21 143.819C261.405 144.258 261.759 144.615 261.961 145.069C262.652 146.625 260.816 143.627 260.557 143.276C257.924 139.708 255.333 136.185 253.204 132.282C250.726 127.738 248.87 122.821 246.699 118.119C245.795 116.159 244.891 114.193 244.003 112.226C243.325 110.726 242.345 109.406 241.849 107.806C241.381 106.3 240.445 104.002 240.445 102.413C240.445 102.224 240.818 103.158 240.889 103.414C241.222 104.611 241.607 105.788 242.001 106.972C243.916 112.716 245.382 118.563 247.214 124.332C248.649 128.855 249.725 133.887 251.759 138.189C252.569 139.904 253.442 141.657 254.08 143.443C254.234 143.876 255.342 145.659 254.677 145.042C252.908 143.398 251.498 141.2 250.216 139.176C247.404 134.736 245.071 130 242.752 125.291C239.896 119.491 237.53 113.209 235.191 107.194C234.193 104.629 233.462 102.066 232.745 99.4109C232.554 98.7071 232.289 98.0727 231.994 97.4094C231.627 96.5844 232.367 97.8369 232.439 98.16C232.655 99.131 233.456 100.08 233.954 100.926C235.381 103.351 236.86 105.741 238.193 108.223C239.69 111.01 241.043 113.842 242.446 116.674C243.634 119.071 245.029 121.479 245.824 124.04C246.198 125.246 246.701 126.427 246.949 127.668C247.007 127.954 247.2 129.104 247.2 128.933" stroke="#171717" stroke-width="4" stroke-linecap="round"/>
<path d="M250.452 145.445C250.415 145.114 250.191 144.808 250.049 144.514C249.226 142.804 248.381 141.103 247.547 139.399C245.501 135.215 243.587 130.962 241.251 126.931C238.147 121.576 235.016 116.225 231.813 110.933C229.454 107.036 226.771 103.171 224.933 99.0358C224.838 98.8224 224.331 97.5291 224.488 97.9655C225.302 100.227 227.721 102.059 229.172 103.9C231.011 106.234 232.764 108.611 234.44 111.059C234.714 111.458 236.089 113.4 235.441 111.865C235.078 111.005 234.507 110.379 233.954 109.641C233.088 108.486 232.528 107.053 231.827 105.791C230.956 104.223 230.446 102.498 229.562 100.926C229.135 100.167 228.303 99.6462 227.935 98.9107" stroke="#171717" stroke-width="4" stroke-linecap="round"/>
<path d="M216.927 96.6588C217.06 98.1183 217.851 99.4828 218.484 100.773C219.567 102.98 220.6 105.209 221.681 107.417C223.006 110.124 224.23 112.993 225.378 115.784C227.909 121.939 229.977 128.276 232.925 134.27C234.621 137.717 235.694 141.447 237.568 144.819C238.315 146.165 236.952 143.783 236.789 143.513C232.738 136.76 230.435 129.048 227.491 121.788C225.604 117.137 222.796 111.732 222.682 106.583C222.666 105.88 223.19 107.363 223.238 107.472C223.928 109.05 224.819 110.524 225.739 111.976C230.79 119.942 235.245 128.262 239.458 136.688C239.98 137.733 240.64 138.705 241.056 139.802C241.168 140.097 241.378 141.178 241.793 141.261C242.755 141.454 240.667 139.652 240.055 138.884C238.668 137.142 237.418 135.203 236.317 133.269C235.124 131.176 234.125 128.993 233.217 126.764C233.145 126.588 232.444 124.963 232.592 125.11C233.164 125.682 233.549 126.506 233.954 127.195C234.786 128.611 235.859 129.854 236.886 131.129C240.046 135.048 242.1 139.951 245.448 143.693C245.545 143.801 245.873 144.293 245.587 143.888C244.872 142.872 243.943 142.017 243.197 141.025C239.739 136.427 237.856 130.852 235.427 125.708C232.817 120.18 230.36 114.578 228.061 108.918C227.306 107.061 226.06 105.368 225.183 103.553C224.448 102.029 223.568 100.575 222.737 99.1051C222.579 98.8259 220.727 93.7212 220.486 93.9624C220.019 94.4292 221.069 97.1909 221.18 97.7151C221.949 101.33 222.193 104.665 223.571 108.181C227.01 116.955 233.214 124.224 237.679 132.449C239.87 136.486 241.931 141.013 243.197 145.445" stroke="#171717" stroke-width="4" stroke-linecap="round"/>
<path d="M234.19 145.195C233.969 142.538 232.02 139.817 230.562 137.689C227.904 133.81 225.799 129.444 223.432 125.375C219.561 118.718 215.49 112.21 211.813 105.443C210.316 102.689 209.195 99.7366 207.796 96.937C207.321 95.988 206.735 95.1018 206.364 94.1016C206.259 93.8176 205.919 93.0065 205.919 93.3093C205.919 94.1735 206.992 95.1076 207.476 95.7139C210.831 99.918 214.435 104.127 217.442 108.584C221.324 114.339 224.623 120.527 228.13 126.514C229.073 128.124 230.132 129.66 231.077 131.268C231.861 132.603 231.194 131.508 230.66 130.906C226.689 126.439 224.644 120.91 222.084 115.604C219.551 110.352 216.205 104.916 214.926 99.1609C214.738 98.3145 213.394 95.7681 212.674 95.4081" stroke="#171717" stroke-width="4" stroke-linecap="round"/>
<path d="M201.654 145.533C201.604 145.014 201.398 144.541 201.22 144.054C200.555 142.234 199.945 140.397 199.356 138.551C198.595 136.167 197.947 133.716 197.078 131.371C195.75 127.79 194.381 124.211 192.699 120.779C190.377 116.043 187.749 111.459 185.756 106.568C185.202 105.208 184.352 104.038 183.813 102.662C183.358 101.499 183.184 100.221 182.876 99.0232C182.674 98.2384 182.607 97.1544 182.215 96.4491C182.038 96.1296 182.01 96.0149 182.206 96.4787C182.849 98.0023 184.061 99.5251 185.046 100.838C190.978 108.748 196.337 117.278 200.954 126.026C202.957 129.821 204.863 133.641 206.802 137.466C207.714 139.266 208.996 140.908 209.889 142.693C209.966 142.846 210.718 144.533 210.954 144.439C211.029 144.409 208.695 140.859 208.577 140.661C206.686 137.498 205.071 134.099 203.429 130.799C200.781 125.479 198.796 119.875 196.328 114.477C194.989 111.547 194.082 108.476 192.64 105.591C191.083 102.477 189.764 99.4237 188.606 96.1829C188.494 95.8684 188.501 95.522 188.517 96.0842C188.558 97.4876 190.097 98.9296 190.904 99.9502C194.651 104.686 198.151 109.549 201.555 114.536C203.775 117.789 205.735 121.255 207.69 124.675C209.864 128.481 211.766 132.483 214.041 136.223C215.327 138.338 216.468 140.552 217.542 142.782C217.825 143.37 218.065 144.167 218.518 144.646C219.159 145.322 218.673 144.28 218.479 143.995C216.797 141.528 215.797 138.677 214.613 135.957C212.837 131.88 211.153 127.783 209.642 123.6C207.477 117.604 205.592 111.51 202.995 105.69C202.269 104.063 201.39 102.508 200.766 100.838C200.293 99.5702 199.883 98.1933 199.307 96.9718C198.995 96.3111 198.452 95.3978 198.291 94.674C198.167 94.1188 198.199 94.52 198.36 94.8416C199.058 96.2387 199.991 97.4556 200.954 98.678C204.662 103.384 208.391 108.249 211.24 113.54C214.078 118.811 216.868 124.039 219.228 129.547C220.666 132.901 222.212 136.235 223.844 139.498C224.36 140.53 224.843 141.59 225.432 142.584C225.546 142.777 226.09 143.609 225.974 143.541C225.112 143.034 224.581 141.669 224.08 140.878C222.466 138.325 220.741 135.846 219.14 133.284C217.974 131.419 216.748 129.561 215.816 127.564C214.715 125.205 213.915 122.722 212.798 120.365C211.819 118.299 210.738 116.233 209.652 114.221C209.238 113.454 208.914 112.665 208.538 111.883C208.43 111.661 208.222 110.966 208.222 111.213C208.222 113.709 209.518 115.658 210.619 117.86C213.326 123.275 216.463 128.549 219.011 134.034C220.091 136.357 220.975 138.777 222.069 141.085C222.414 141.814 223.651 144.646 224.731 144.646C225.124 144.646 225.681 144.311 226.063 144.212C226.866 144.003 227.775 144.113 228.597 144.113C229.193 144.113 229.747 144.084 230.313 144.291C230.597 144.394 231.057 144.641 230.668 144.182C228.527 141.651 227.231 138.34 225.757 135.415C223.781 131.493 221.106 127.987 219.14 124.053C217.624 121.022 216.387 117.87 214.593 114.98C212.66 111.866 211.31 108.428 209.287 105.374C207.187 102.205 205.762 98.7243 203.607 95.6109C202.231 93.6233 199.679 94.6321 197.571 94.3978C196.83 94.3155 195.83 94.23 195.125 94.0132C194.611 93.8549 194.775 94.0231 194.997 94.4175C195.631 95.5443 196.151 96.5656 196.604 97.8003C198.238 102.245 199.902 106.661 201.565 111.094C203.466 116.164 204.744 121.358 206.269 126.539C208.052 132.592 209.643 138.832 212.66 144.389C213.41 145.77 212.167 144.862 211.556 144.251C208.555 141.25 205.444 138.547 203.685 134.606C202.036 130.909 200.127 127.264 198.143 123.738C197.801 123.13 197.307 122.501 197.048 121.854C196.888 121.453 197.325 122.674 197.482 123.077C198.719 126.238 199.877 129.49 200.845 132.742C201.646 135.431 202.207 138.267 203.252 140.878C203.834 142.333 204.163 143.806 204.849 145.178" stroke="#171717" stroke-width="4" stroke-linecap="round"/>
<path d="M280.8 146.92H166.6L116.8 204.92C96.4001 160.52 121.2 137.04 132.8 134.32C134.56 104.08 176.2 93.7201 196.8 92.3201C258.4 92.3201 278.44 128.72 280.8 146.92Z" stroke="#171717" stroke-width="2" stroke-linejoin="round"/>
<path d="M133.04 135.6C125.44 135.6 115.72 144.16 114.84 152.04C114.56 154.4 112.48 156.08 112.48 158.8C112.48 161.12 110.72 163.48 110.72 165.84C110.72 170.92 109.56 175.6 109.56 180.52C109.56 182.76 109.56 185 109.56 187.28C109.56 190.12 110.64 192 110.72 194.76C110.8 196.92 114.96 205.76 118.04 203.36C122.04 200.24 124.72 194.52 127 190.2C127.96 188.4 130.08 186.08 131.84 185.04C133.64 184 137.08 181.48 138.16 179.64C140.52 175.64 143.4 171.6 146.8 168.2C150.56 164.44 153.48 160.48 156.92 156.64C160.48 152.68 161.32 150.32 166.72 149.12C168.68 148.68 170.64 147.4 172.6 147.4C175.32 147.4 178.08 147.4 180.8 147.4C199.52 147.4 218.32 145.64 237.12 145.64C239.36 145.64 241.6 145.64 243.88 145.64C246.32 145.64 248.56 146.68 250.92 146.8C256.64 147.12 256.74 146.8 262.5 146.8C264.18 146.8 269.46 146.44 270.5 146.8C272.32 146.8 274.2 146.8 275.72 146.8C277.64 146.8 278.52 147.2 278.52 145.04C278.52 143.56 276.64 140.08 275.72 139.04C274.16 137.32 273.24 134.2 272.2 132.12C270.12 127.96 269.36 122.64 266.48 118.92C264.08 115.84 260.24 112.28 256.84 110.28C252.8 107.88 248.8 104.64 244.28 103.32C242.4 102.8 240.2 101.12 238.4 100.12C236.56 99.08 233.92 96.8 231.96 96.32C230.88 96.08 227.76 94.84 226.84 94.08C225.68 93.16 220.8 93.36 219.36 93.36C213.8 93.36 208.72 92.2 203.28 92.2C196.88 92.2 191.12 94.32 184.88 94.56C180.2 94.72 173.68 96.8 170.08 99.84C168.24 101.4 166.04 101.84 163.92 102.76C160.92 104.08 159.8 105.12 156.28 105.12C152.8 105.12 145.88 109.08 143.68 111.88C141.56 114.52 127.72 132.64 132.52 135.04" stroke="#171717" stroke-width="2" stroke-linecap="round"/>
<path d="M204.6 200.6C218.076 200.6 229 189.676 229 176.2C229 162.724 218.076 151.8 204.6 151.8C191.124 151.8 180.2 162.724 180.2 176.2C180.2 189.676 191.124 200.6 204.6 200.6Z" stroke="#171717" stroke-width="2" stroke-linecap="round" stroke-linejoin="round"/>
<path d="M253.4 200.6C266.876 200.6 277.8 189.676 277.8 176.2C277.8 162.724 266.876 151.8 253.4 151.8C239.924 151.8 229 162.724 229 176.2C229 189.676 239.924 200.6 253.4 200.6Z" stroke="#171717" stroke-width="2" stroke-linecap="round" stroke-linejoin="round"/>
<path d="M180 176.2H143" stroke="#171717" stroke-width="2" stroke-linecap="round" stroke-linejoin="round"/>
<path d="M284.6 176.2H277.8" stroke="#171717" stroke-width="2" stroke-linecap="round" stroke-linejoin="round"/>
<path d="M141.881 176.949C146.192 176.949 150.845 177.378 155.023 176.081C156.639 175.579 158.494 175.379 160.17 175.146C161.506 174.961 162.828 174.813 164.175 174.813C166.591 174.813 168.969 175.213 171.399 175.213C174.157 175.213 176.906 175.48 179.661 175.48" stroke="#171717" stroke-width="2" stroke-linecap="round"/>
<path d="M278.347 175.405C278.987 175.405 279.658 175.344 280.293 175.417C280.779 175.472 281.19 175.717 281.625 175.918C281.872 176.031 282.131 176.163 282.394 176.236C282.594 176.292 282.798 176.481 283.009 176.481" stroke="#171717" stroke-width="2" stroke-linecap="round"/>
<path d="M198.12 153.12C196.4 153.12 194.64 154.04 193.12 154.92C191.56 155.8 190.4 156.96 189.24 158.32C188.28 159.44 187 160.84 186.32 162.08C185.8 163 185.12 163.76 184.64 164.68C184.28 165.36 184.28 166.16 183.92 166.84C183.28 168.08 183.2 170.4 182.92 171.76C182.6 173.36 182.6 175.04 182.6 176.68C182.6 178.44 182.44 180.56 182.92 182.2C183.24 183.32 183.48 185.72 184.16 186.64C186 189.04 188.2 191.52 190.32 193.72C191.28 194.76 192.48 195.6 193.56 196.48C194.08 196.92 195.32 197.16 196 197.48C196.72 197.8 197.56 198.4 198.36 198.4C200.16 198.4 201.44 199.44 203.08 199.92C203.72 200.12 207.8 200.32 208.2 199.8C208.56 199.36 209.76 199.24 210.24 198.96C211.2 198.44 211.96 197.6 213 197.16C214.4 196.64 216.4 196.08 217.52 194.92C219.32 193 220.96 191 222.8 189.04C223.76 188 224.08 186.4 224.68 185.08C225.36 183.64 226.68 181.6 226.68 180C226.68 176.6 227.44 172.92 226.68 169.52C226.36 168.08 226.2 166.48 225.48 165.2C224.64 163.68 223.8 162.84 222.6 161.6C220.28 159.16 217.56 156.52 214.6 154.96C212.72 153.96 211.76 153.36 209.6 153.36C207.88 153.36 206.16 152.44 204.48 152.44C202.84 152.44 201.2 152.12 199.48 152.12C197.96 152.12 195.12 152.24 193.92 153.2C193.12 153.84 192.04 154.08 191.12 154.52C190.28 154.92 189.88 155.56 189.2 156.28C188.04 157.48 186.36 160.08 185.32 162.48" stroke="#171717" stroke-width="2" stroke-linecap="round"/>
<path d="M234.04 188.6C234.52 190.32 235.84 191.88 237.04 193.2C238.28 194.56 239.64 195.44 241.24 196.28C242.52 196.96 244.2 197.92 245.56 198.32C246.52 198.6 247.44 199.12 248.44 199.4C249.2 199.6 249.92 199.4 250.68 199.6C252 199.96 254.16 199.44 255.56 199.4C257.12 199.36 258.68 198.88 260.24 198.48C261.84 198.04 263.88 197.64 265.32 196.8C266.28 196.2 268.44 195.36 269.12 194.44C270.88 191.96 272.56 189.12 274.04 186.44C274.72 185.2 275.2 183.8 275.76 182.48C276.04 181.84 275.92 180.52 276.04 179.76C276.16 178.92 276.48 177.96 276.28 177.16C275.8 175.32 276.4 173.76 276.4 172C276.4 171.32 275.48 167.12 274.88 166.84C274.36 166.6 273.92 165.4 273.56 164.96C272.8 164.12 271.8 163.56 271.16 162.6C270.28 161.32 269.24 159.44 267.88 158.6C265.6 157.24 263.28 156.08 261 154.72C259.8 154 258.2 154.08 256.84 153.8C255.32 153.48 253.04 152.64 251.56 153.04C248.4 153.88 244.8 154.04 241.8 155.64C240.52 156.32 239.08 156.92 238.08 157.92C236.88 159.12 236.36 160.2 235.52 161.72C233.88 164.68 232.16 168.08 231.52 171.48C231.12 173.64 230.8 174.76 231.36 176.92C231.84 178.64 231.44 180.64 231.88 182.36C232.32 184 232.48 185.76 232.96 187.48C233.36 189.04 234.24 191.88 235.48 192.84C236.32 193.48 236.8 194.52 237.44 195.36C238.04 196.12 238.76 196.32 239.6 196.84C241.04 197.72 243.92 198.8 246.4 199.24" stroke="#171717" stroke-width="2" stroke-linecap="round"/>
<path d="M264 181.48C267.093 181.48 269.6 178.973 269.6 175.88C269.6 172.787 267.093 170.28 264 170.28C260.907 170.28 258.4 172.787 258.4 175.88C258.4 178.973 260.907 181.48 264 181.48Z" stroke="#171717" stroke-width="2"/>
<path d="M215.2 181.88C218.293 181.88 220.8 179.373 220.8 176.28C220.8 173.188 218.293 170.68 215.2 170.68C212.107 170.68 209.6 173.188 209.6 176.28C209.6 179.373 212.107 181.88 215.2 181.88Z" stroke="#171717" stroke-width="2"/>
<path d="M210.561 176.811C210.588 176.263 210.935 175.724 211.213 175.266C211.511 174.775 211.87 174.214 212.273 173.802C212.346 173.727 213.369 172.754 213.369 173.11C213.369 173.838 213.596 174.569 213.641 175.298C213.71 176.404 213.834 177.493 213.929 178.595C213.973 179.106 214.089 179.64 214.089 180.151C214.089 180.449 214.492 180.201 214.629 180.119C216.473 179.027 216.987 176.745 217.89 174.938C218.065 174.588 218.369 174.438 218.482 174.946C218.697 175.911 218.626 176.902 218.626 177.891" stroke="#171717" stroke-width="4" stroke-linecap="round"/>
<path d="M259.715 177.419C260.284 176.85 260.89 176.332 261.453 175.753C261.92 175.274 262.417 174.835 262.902 174.377C263.315 173.986 263.976 173.48 264.495 173.235C264.738 173.12 264.438 173.816 264.418 173.878C264.154 174.704 263.908 175.529 263.694 176.369C263.436 177.385 263.109 178.398 262.978 179.442C262.94 179.749 263.365 179.432 263.481 179.374C264.066 179.081 264.592 178.771 265.106 178.364C265.7 177.895 266.126 177.154 266.736 176.735C266.979 176.568 267.231 176.488 267.464 176.333" stroke="#171717" stroke-width="4" stroke-linecap="round"/>
<path d="M167.84 304V384L185.84 387.4" stroke="#171717" stroke-width="2" stroke-linecap="round" stroke-linejoin="round"/>
<path d="M226.68 304V384L244.68 387.4" stroke="#171717" stroke-width="2" stroke-linecap="round" stroke-linejoin="round"/>
<path d="M166.314 304.57C166.314 310.229 166.145 315.858 166.848 321.479C167.697 328.27 168.108 335.139 168.671 341.961C168.921 344.991 168.9 348.126 168.598 351.152C168.329 353.838 168.182 356.563 167.842 359.238C167.744 360.012 167.932 360.841 167.723 361.596C167.65 361.858 167.486 362.354 167.474 362.591C167.384 364.299 168.189 366.096 168.598 367.73C169.194 370.116 168.8 372.911 168.8 375.355C168.8 377.455 168.8 379.555 168.8 381.655C168.8 382.876 170.677 383.197 171.655 383.607C173.361 384.322 175.146 384.818 176.96 385.173C178.861 385.545 180.77 385.981 182.688 386.259C183.856 386.429 185.093 386.423 186.206 386.794" stroke="#171717" stroke-width="2" stroke-linecap="round"/>
<path d="M225.381 306.009C225.381 311.594 225 317.223 226.051 322.714C226.816 326.705 227.046 330.695 227.046 334.757C227.046 340.528 227.002 346.269 227.417 352.028C227.775 357.007 228.151 361.948 228.492 366.905C228.59 368.316 228.712 369.668 228.712 371.093C228.712 371.683 228.599 372.295 228.4 372.851C228.14 373.58 228.38 374.4 228.192 375.154C227.978 376.009 228.088 376.971 228.088 377.849C228.088 378.766 227.879 379.623 227.879 380.544C227.879 381.592 227.208 383.493 227.717 384.512C229.07 387.217 233.429 386.386 235.781 386.386C237.242 386.386 238.703 386.386 240.165 386.386C240.92 386.386 244.17 386.483 244.538 387.219" stroke="#171717" stroke-width="2" stroke-linecap="round"/>
<path d="M182.2 208.68C189.28 216.32 210.2 230.32 239.44 228.36C242.6 228.16 246.8 226.16 245.48 223.28C245.12 222.44 244.24 221.8 242.56 221.52" stroke="#171717" stroke-width="2" stroke-linecap="round" stroke-linejoin="round"/>
<path d="M181.691 209.035C181.835 210.181 185.038 212.205 185.881 212.829C187.637 214.13 189.16 215.836 191.086 216.906C192.664 217.782 194.051 219.056 195.53 220.08C196.911 221.036 198.479 221.672 199.846 222.619C205.489 226.526 212.438 227.489 219.03 228.459C221.208 228.779 223.638 229.553 225.816 229.601C226.862 229.625 228.859 229.545 229.822 229.982C232.206 231.066 236.207 228.847 238.37 228.078C240.062 227.476 244.285 226.627 244.647 224.636C245.036 222.497 243.823 221.476 241.868 221.476" stroke="#171717" stroke-width="2" stroke-linecap="round"/>
<path d="M123 313.5C123.68 313.58 124.6 314.98 125 315.5C125.642 316.335 126.78 317.02 127.5 317.5C129.1 318.58 129.64 319.04 131.16 320.2C132.24 321.04 133.2 321.8 133.64 323.12C133.8 323.6 134.08 324.12 134.16 324.6C134.24 324.96 134.68 325.08 134.88 325.4" stroke="#171717" stroke-width="2" stroke-linecap="round"/>
<path d="M137.52 215V325.4M137.52 325.4H116.72M137.52 325.4L122.72 313.2" stroke="#171717" stroke-width="2" stroke-linecap="round" stroke-linejoin="round"/>
<path d="M116.5 324.72C120.58 324.72 123.52 324.72 127.6 324.72C129.76 324.72 132.16 324.8 134.2 324.12C135.28 323.76 136.12 323.8 136.12 322.52C136.12 321.56 136.12 320.56 136.12 319.6C136.12 315.4 138.8 310.8 138.8 306.56C138.8 301.56 135.56 297.92 136.12 292.96C136.4 290.28 134.84 286.28 135.52 283.68C136.36 280.56 137.12 276.52 137.12 273.28C137.12 270.04 137.44 266.84 137.44 263.64C137.44 261.04 136.72 257.08 137.6 254.56C138.4 252.32 137.84 249.52 138.36 247.16C138.76 245.4 138.12 243.52 138.6 241.8C138.92 240.72 138.76 239.48 138.76 238.36C138.76 235.24 138.36 232.12 138.36 229C138.36 227.84 137.6 216.5 137.6 215.5" stroke="#171717" stroke-width="2" stroke-linecap="round"/>
<path d="M276 313.5C276.68 313.58 277.6 314.98 278 315.5C278.642 316.335 279.78 317.02 280.5 317.5C282.1 318.58 282.64 319.04 284.16 320.2C285.24 321.04 286.2 321.8 286.64 323.12C286.8 323.6 287.08 324.12 287.16 324.6C287.24 324.96 287.68 325.08 287.88 325.4" stroke="#171717" stroke-width="2" stroke-linecap="round"/>
<path d="M290.52 215V325.4M290.52 325.4H269.72M290.52 325.4L275.72 313.2" stroke="#171717" stroke-width="2" stroke-linecap="round" stroke-linejoin="round"/>
<path d="M269.5 324.72C273.58 324.72 276.52 324.72 280.6 324.72C282.76 324.72 285.16 324.8 287.2 324.12C288.28 323.76 289.12 323.8 289.12 322.52C289.12 321.56 289.12 320.56 289.12 319.6C289.12 315.4 291.8 310.8 291.8 306.56C291.8 301.56 288.56 297.92 289.12 292.96C289.4 290.28 287.84 286.28 288.52 283.68C289.36 280.56 290.12 276.52 290.12 273.28C290.12 270.04 290.44 266.84 290.44 263.64C290.44 261.04 289.72 257.08 290.6 254.56C291.4 252.32 290.84 249.52 291.36 247.16C291.76 245.4 291.12 243.52 291.6 241.8C291.92 240.72 291.76 239.48 291.76 238.36C291.76 235.24 291.36 232.12 291.36 229C291.36 227.84 290.6 216.5 290.6 215.5" stroke="#171717" stroke-width="2" stroke-linecap="round"/>
</svg>
