<svg width="400" height="444" fill="none" xmlns="http://www.w3.org/2000/svg">
  <path
    d="M86.882 53.397c1.2.56 1.4 3.52 1.36 6.32-.04 2.4 1.72 4.48 4.08 4.84 2.4.36 4.88 1.08 7.04 1.16 6.4.04 8.92-5.32 11.4-10.04 8.64-2.92 7-12.2 5.12-18.96-2.88-10.08-12.68-9.56-21.44-8.28-4.84.72-8.88 4.12-10.36 8.76-1.92 6-3.4 12.16 2.8 16.2ZM216.522 53.196c6.72 18.56 32.08-1.44 25.76-16.2-.2-.44-.32-.88-.44-1.36-1.88-7.92-9.72-7.24-16.2-8.48-2.2-.44-4.4.08-6.36 1.16-.04.04-.12.04-.16.08-2.44 1.04-4.44 2.96-5.2 5.48-1.76 5.68-6.84 14.52-2.68 18.84.88.92 4.8-.76 5.28.48ZM276.962 103.396c-1.32-.32-2.76-.36-4.16-.64-1.84-.36-3.72 0-5.32 1-.08.04-.16.08-.2.12-2.44 1.08-4.4 3.04-5.08 5.6-.44 1.64-.92 3.24-1.28 4.28-.32.84-.48 1.76-.52 2.68-.16 7.6 5.52 17.32 13.28 18.32.68.08 1.36.08 2-.04 15.16-2.16 20.96-30.08 2.48-31.16-.44 0-.8-.08-1.2-.16ZM237.842 75.356c.2 11.52 6.56 22.76 18.84 18.88 4.88-1.24 12.52-.6 17.16-3.48 13.12-3.88 6.24-29.32-3.4-30.12-10.6.68-31.48.72-32.6 14.72ZM309.042 226.437c-2.96-10.44-13.44-9.48-22.44-8.12-4.6.72-8.36 4.08-9.56 8.56-4.24 15.88 2.24 11.24 3.96 19.12.96 4.4 4.24 7.96 8.64 9.04.96.24 1.92.4 2.88.36 5.12.04 7.76-3.4 9.88-7.16.92-1.64 2.32-2.96 3.88-3.96 5.96-3.68 4.44-11.76 2.76-17.84ZM289.082 261.996c-12.16-6.84-20-5.12-26.12 7.76-3.16 5.2-7.76 10.64-7.16 17.08.76 9.28 21.6 17.72 27.4 8.92 5.72-9.32 20.88-24.96 5.88-33.76Z"
    fill="#fff"
  />
  <path
    d="M340.042 95.996c-1.2-9.24-14.16-12.36-19.4-4.64-5.32-6.6-17.12-5.64-19.72 3-2.72 7.36 6.52 16.6 7.52 23.52 1.6 10.88 1.76 49.2-6.72 37.08-9.24-14.88-17.28-13.72-25.56-8.4-1.92 1.24-4.4-.28-4.2-2.56.76-8.08-4.64-17.28-8.76-23.8-3.32-7.4-13.32-12.12-9.52-20.32-.12-9.4-9.64-17.72-18.52-18.24-5.76-1.44-9 8.6-13.2 4.6-12.76-9.48 26.12-16.84-9.28-35.8-10.92-2.76-25.56 13.96-26.24 24.04 2.96 11.24-17.8.84-24.04-2.88 18-15.8 5.44-31.96-15.8-28.56-20.28 4.16-68.24 15.08-64.28 41.76.72 6.16 13.4 11.44 23.44 9.12-1.56 3.64-.32 11.4-5.04 10.52-1.8-.36-3.68-.24-5.48.16-4.8 1.04-11.12 2.88-14.68 3.2-4.04 2.16 1.36-4.44 1.2-5.28 5.08-9.2-6.28-19.72-15.08-14.2-7.12 5.52-17.6-10.48-23.44 7.64-2.04 9.04 9.52 15.44 8.4 22.48 1.12 9.64-.16 16.8.52 26.68 1.92 8.44 4.04 17.2 6.24 25.64 4.56 12.88 15.48 26.88 26.68 35.16-1.84 10.28 4.08 21.52-.96 29.84-10.24 12.08-2.96 25.52 11.8 29.08 3.2 7.08 7.4 13.52 12.12 19.48 2 2.52-.44 6.08-3.52 5.2-6.48-1.8-13.04-1.76-16.88 5.28-1.76 5.6-5.92 11.64-3.32 17.64 3.44 7.84 18.64 12.12 26.16 14.04 12 .68 18.52-15.08 14.84-25 3.52 2.84 7.4 5.72 11.72 7.92 1.68 15.76-2.52 44.92-1.4 60.08-1.24 22.96 8.96 22.92 28.2 25.96 13.76 2.72 17.76-18.8 4-21.24-3.2-.48-6.2-2.16-9.2-2.8.08-9.8-.04-45.68.56-54.76 2.04-4 12.24 2.68 17.28 1.8 7.08-.64 12.76-1.48 19.4-3.12.96 12.6-1.52 4.6-11.72 5.04-.04 0-.08 0-.12.04a19.027 19.027 0 0 0-11.12 7.4l-1.64 2.28c-4.6 8.52 4.12 23.44 13.52 24.08 6.76 1.6 11.24-10.6 11.08-6.64-2.48 12.32-1.36 25.24.6 37.48 2 9.12 19.56 8.36 26.24 10.48 5.76 1.12 11.56-2.8 12.6-8.6 2.16-10.84-10.04-13.32-17.8-15.52v-24.2c-.08-10.36.88-20.08.96-30.48-.76-7.28-2.52-9.04 5.48-11.28 36.04-16.32 55.64-48.92 56.8-88.16 6.2-7.36 23.04-10.44 33.72-27.88 15.92-20.56 16.96-46.36 17.16-70.92-1.08-7.16 10.44-13.32 8.4-22.44Zm-256.6 43.12c8.08-2.36-6.44 16.72-4.64 23.2-3.44-9.64-4.76-18.88-4.8-29.64 1.6 3.32 4.64 6.16 9.44 6.44Z"
    fill="#fff"
  />
  <path
    d="M266.471 72.205c0 1.52.65 2.867.999 4.314.156.65.257 1.315.518 1.933.052.125.093.688-.139.657-.667-.089-1.344-.923-1.805-1.33-.874-.769-1.758-1.568-2.739-2.2-.804-.516-1.644-.953-2.409-1.527-.366-.275-.508-.577-.32.182.277 1.12.806 2.19 1.185 3.279a77.129 77.129 0 0 1 1.154 3.567c.103.349.859 1.666.096 1.276-2.487-1.27-4.401-3.745-6.344-5.687-.723-.723-1.479-1.55-2.35-2.104-.241-.154.033.409.049.448.414 1.036.753 2.107 1.148 3.151.465 1.23 1.057 2.694 1.057 4.037 0 .77-.096 1.536-.096 2.302 0 .717-.812.36-1.266.069-.849-.546-1.535-1.346-2.28-2.019-.656-.591-1.343-1.143-2.029-1.698-.529-.428-1.409-1.053-1.634-1.73"
    stroke="#FF7E36"
    stroke-width="3.2"
    stroke-linecap="round"
  />
  <path
    d="M210.967 61.454c.655 1.371 1.822 2.307 2.76 3.463.421.519.799 1.075 1.301 1.521.101.09.38.58.158.653-.641.207-1.611-.255-2.202-.422-1.12-.318-2.262-.659-3.42-.805-.948-.12-1.894-.153-2.831-.34-.45-.09-.708-.302-.211.301.732.89 1.671 1.63 2.482 2.448.882.89 1.741 1.791 2.578 2.722.244.27 1.493 1.133.637 1.11-2.792-.074-5.585-1.482-8.175-2.398-.965-.341-2.003-.761-3.027-.886-.284-.035.205.355.236.384.82.756 1.588 1.576 2.394 2.348.95.91 2.115 1.975 2.694 3.188.332.695.575 1.427.905 2.118.309.647-.577.675-1.112.608-1.002-.127-1.965-.553-2.928-.84-.846-.25-1.704-.452-2.563-.657-.661-.158-1.725-.344-2.22-.857"
    stroke="#FFD424"
    stroke-width="3.2"
    stroke-linecap="round"
  />
  <path
    d="M236.343 91.317c.654 1.371 1.822 2.307 2.76 3.463.421.52.799 1.076 1.3 1.521.102.09.381.58.158.653-.64.207-1.61-.254-2.202-.422-1.12-.318-2.262-.658-3.42-.805-.947-.12-1.894-.152-2.831-.34-.449-.09-.708-.302-.211.302.733.89 1.671 1.63 2.483 2.447.882.89 1.74 1.791 2.578 2.722.243.271 1.493 1.133.636 1.11-2.791-.074-5.585-1.482-8.175-2.398-.964-.34-2.003-.761-3.027-.886-.284-.034.205.355.237.384.82.756 1.587 1.577 2.394 2.348.949.91 2.114 1.976 2.693 3.188.332.695.575 1.427.905 2.118.309.648-.576.676-1.112.608-1.002-.127-1.965-.553-2.927-.839-.847-.251-1.705-.453-2.563-.658-.662-.158-1.725-.344-2.22-.857"
    stroke="#36ABFF"
    stroke-width="3.2"
    stroke-linecap="round"
  />
  <path
    d="M295.566 168.202c-1.468.393-2.601 1.369-3.91 2.081-.587.319-1.203.589-1.733 1-.107.084-.64.269-.67.036-.087-.667.544-1.536.817-2.087.517-1.043 1.061-2.104 1.416-3.216.291-.909.496-1.834.852-2.721.171-.426.426-.641-.258-.263-1.01.558-1.908 1.346-2.86 1.994a76.751 76.751 0 0 1-3.147 2.037c-.311.19-1.387 1.261-1.208.423.583-2.731 2.477-5.22 3.851-7.599.511-.886 1.114-1.83 1.424-2.814.086-.273-.386.137-.421.162-.893.668-1.84 1.273-2.746 1.925-1.068.768-2.328 1.718-3.626 2.066-.744.199-1.508.305-2.247.503-.694.185-.559-.691-.395-1.205.308-.962.902-1.831 1.359-2.725.402-.786.757-1.593 1.116-2.399.276-.622.653-1.633 1.248-2.026"
    stroke="#FFD424"
    stroke-width="3.2"
    stroke-linecap="round"
  />
  <path
    d="M272.968 287.787c-.77-1.31-2.013-2.143-3.046-3.214-.464-.481-.888-1.004-1.426-1.405-.109-.081-.429-.546-.213-.637.62-.261 1.626.116 2.23.233 1.143.221 2.31.463 3.476.51.954.038 1.9-.01 2.85.097.455.051.731.24.184-.319-.806-.825-1.804-1.481-2.682-2.227a76.121 76.121 0 0 1-2.801-2.491c-.266-.249-1.585-1.002-.729-1.052 2.787-.165 5.691 1 8.35 1.691.99.257 2.06.587 3.091.624.286.01-.234-.336-.268-.362-.882-.683-1.717-1.435-2.586-2.135-1.024-.826-2.276-1.788-2.956-2.946-.39-.664-.695-1.373-1.083-2.033-.363-.619.517-.723 1.057-.701 1.009.041 2.004.383 2.988.586.865.178 1.737.305 2.61.436.672.101 1.748.196 2.285.665"
    stroke="#A736FF"
    stroke-width="3.2"
    stroke-linecap="round"
  />
  <path
    d="M146.073 279.601c-.393-1.467-1.37-2.6-2.081-3.909-.319-.587-.589-1.203-1.001-1.733-.083-.107-.268-.64-.035-.67.667-.087 1.536.544 2.087.817 1.043.517 2.104 1.061 3.216 1.416.909.291 1.834.496 2.721.852.425.171.641.426.263-.258-.558-1.01-1.346-1.908-1.994-2.861a75.41 75.41 0 0 1-2.037-3.147c-.19-.31-1.262-1.386-.424-1.207 2.732.583 5.221 2.477 7.6 3.851.886.511 1.83 1.114 2.814 1.424.273.086-.137-.386-.162-.421-.669-.893-1.273-1.84-1.925-2.746-.768-1.068-1.718-2.328-2.066-3.626-.199-.744-.305-1.508-.503-2.248-.186-.693.691-.559 1.205-.394.962.307 1.83.902 2.725 1.359.786.402 1.593.757 2.399 1.115.622.277 1.633.654 2.026 1.249"
    stroke="#36ABFF"
    stroke-width="3.2"
    stroke-linecap="round"
  />
  <path
    d="M93.673 251.201c-.393-1.468-1.37-2.601-2.081-3.909-.32-.587-.589-1.203-1-1.733-.084-.107-.269-.64-.037-.671.668-.086 1.537.545 2.088.818 1.043.517 2.104 1.06 3.215 1.416.91.291 1.835.495 2.722.852.425.17.64.425.263-.259-.558-1.009-1.346-1.908-1.994-2.86a76.972 76.972 0 0 1-2.038-3.147c-.19-.311-1.26-1.387-.423-1.208 2.731.583 5.22 2.478 7.6 3.852.886.511 1.83 1.114 2.814 1.424.273.086-.137-.387-.163-.421-.668-.893-1.272-1.84-1.924-2.746-.768-1.068-1.719-2.329-2.066-3.626-.199-.744-.305-1.508-.503-2.248-.186-.693.69-.559 1.205-.395.962.308 1.83.903 2.724 1.36.787.402 1.593.756 2.4 1.115.621.276 1.633.653 2.026 1.248"
    stroke="#FFD424"
    stroke-width="3.2"
    stroke-linecap="round"
  />
  <path
    d="M84.96 128.593c0-1.52-.65-2.867-.998-4.315-.156-.649-.257-1.314-.518-1.933-.053-.125-.093-.688.14-.657.666.089 1.342.924 1.804 1.33.874.769 1.757 1.569 2.74 2.2.803.516 1.643.954 2.408 1.527.366.275.508.577.32-.181-.277-1.12-.806-2.191-1.185-3.279a76.438 76.438 0 0 1-1.154-3.567c-.103-.35-.859-1.666-.096-1.276 2.487 1.27 4.401 3.744 6.344 5.687.723.723 1.48 1.55 2.35 2.104.24.153-.033-.409-.049-.449-.414-1.036-.753-2.107-1.148-3.151-.465-1.23-1.057-2.693-1.057-4.037 0-.77.096-1.535.096-2.301 0-.718.812-.361 1.266-.07.85.547 1.534 1.346 2.28 2.019.655.592 1.343 1.143 2.029 1.698.529.428 1.408 1.054 1.634 1.73"
    stroke="#A736FF"
    stroke-width="3.2"
    stroke-linecap="round"
  />
  <path
    d="M112.903 306.143c-1.075 1.074-1.568 2.487-2.345 3.757-.349.57-.748 1.112-1.001 1.733-.051.126-.42.553-.563.366-.408-.534-.297-1.602-.336-2.216-.073-1.162-.133-2.352-.381-3.493-.203-.933-.488-1.836-.623-2.783-.065-.453.049-.767-.355-.098-.595.988-.979 2.119-1.48 3.157a77.04 77.04 0 0 1-1.707 3.338c-.174.32-.57 1.785-.834.97-.861-2.657-.465-5.76-.465-8.507 0-1.023.05-2.142-.173-3.149-.062-.279-.267.312-.284.351-.439 1.025-.957 2.022-1.416 3.04-.54 1.199-1.157 2.652-2.106 3.602-.545.545-1.154 1.018-1.696 1.559-.507.508-.83-.318-.944-.845-.214-.987-.134-2.037-.185-3.04-.045-.882-.141-1.758-.234-2.636-.071-.676-.25-1.74.068-2.378"
    stroke="#FF7E36"
    stroke-width="3.2"
    stroke-linecap="round"
  />
  <path
    d="M115.318 112.581V93.029c0-1.304.985 2.219 1.122 2.53 3.243 7.344 4.93 14.887 6.273 22.755.468 2.741.15-.368.15-1.497V95.155c0-2.264-.113-4.564 0-6.827.042-.85 1.633 1.51 1.677 1.587 1.382 2.49 1.976 5.755 1.976 8.593 0 2.023-.852 3.837-1.378 5.749-.563 2.049-.928 3.99-.928 6.123v1.482c0-2.683-.305-5.413-.404-8.099-.226-6.09.146-12.153.674-18.22.223-2.564.603-5.07 1.018-7.604.071-.438.072-1.376.449-.48 3.233 7.7 4.369 16.123 5.659 24.328.349 2.226.694 4.469.958 6.707.221 1.877.269.787.269-.494 0-9.058-.016-18.012.749-27.037.071-.836.146-1.656.269-2.485.004-.026.11-.762.12-.749 1.207 1.61.739 5.53.749 7.366.03 5.985-.436 12.58 1.197 18.413.335 1.196.419.696.419-.344 0-5.266.602-10.443 1.497-15.63.825-4.774 1.932-9.483 2.935-14.221.285-1.35.331-2.557 1.227-.764 2.214 4.428 2.964 9.535 2.964 14.432 0 3.182.27 6.381.27 9.536 0 3.985.178-7.968.404-11.946.153-2.686.38-5.28.794-7.935.014-.094.236-2.653.688-2.2 1.658 1.658 2.393 4.637 2.964 6.796.963 3.636 1.424 7.222 1.677 10.959.101 1.487.21 2.94.21 4.43 0 1.744.05.175.149-.748.431-4 1.134-7.974 2.006-11.901.175-.784.386-3.534 1.198-3.997 1.724-.985 3.631 11.784 3.653 13.353.003.199-.106 1.955.06.959.4-2.404.541-4.816.688-7.246.032-.518-.332-3.563.659-3.563 2.064 0 3.078 3.699 3.563 5.135.909 2.69 1.228 5.422 1.228 8.248 0 .98.119 1.292-1.033 1.123-3.247-.475-6.018-3.133-8.384-5.195-2.69-2.344-5.441-4.464-8.638-6.078-1.794-.905-3.562-1.606-5.12-2.904-.493-.41-1.347-1.872-1.347-.629 0 6.076 1.617 12.131 1.617 18.205 0 5.271-.809-10.523-.809-15.794 0-2.42.014-4.783.255-7.186.12-1.199.015 1.018.015 1.302"
    stroke="#FFD424"
    stroke-width="4.8"
    stroke-linecap="round"
  />
  <path
    d="M251.362 144.316c21.2 35.88 22.32 82.72 13.12 103.64-15.64 35.68-57 62-95.56 57.8-27.142-2.93-55.926-19.877-67.667-56.92m-5.253-46.76c-.59 12.02.087 22.848 1.797 32.56"
    stroke="#171717"
    stroke-width="2.4"
  />
  <path
    d="M194.362 178.476c-.08-2.92-1.92-8.8-8.8-8.8-6.88 0-8.6 5.32-8.6 8M243.962 177.276c-.08-2.92-1.92-8.8-8.8-8.8-6.88 0-8.6 5.32-8.6 8"
    stroke="#171717"
    stroke-width="2.4"
    stroke-linecap="round"
    stroke-linejoin="round"
  />
  <path
    d="M184.642 198.076c13.476 0 24.4-10.924 24.4-24.4 0-13.475-10.924-24.4-24.4-24.4-13.476 0-24.4 10.925-24.4 24.4 0 13.476 10.924 24.4 24.4 24.4Z"
    stroke="#171717"
    stroke-width="2.4"
    stroke-linecap="round"
    stroke-linejoin="round"
  />
  <path
    d="M233.442 198.076c13.476 0 24.4-10.924 24.4-24.4 0-13.475-10.924-24.4-24.4-24.4-13.476 0-24.4 10.925-24.4 24.4 0 13.476 10.924 24.4 24.4 24.4ZM160.042 173.676h-37M264.642 173.676h-6.8M203.842 190.876c6.4.4 16.24 3.68 4.4 13.6M237.442 209.276c4.32.08 12.44 1.8 10.2 8.2-.88 2.52-4.8 4.12-11.4 4.44m0 0c-14.2.72-40.88-4.36-76.4-18.04 1.32 10.28 10.36 34.2 37.6 40.2 23.6 5.2 37.04-11.64 38.8-22.16Z"
    stroke="#171717"
    stroke-width="2.4"
    stroke-linecap="round"
    stroke-linejoin="round"
  />
  <path
    d="M202.042 217.476c4.72 2.48 13.96 11.2 13 26.4M183.042 249.077c3.6-.32 12-.08 16.8 3.6M147.882 301.477v80l18 3.4M206.722 301.477v80l18 3.4"
    stroke="#171717"
    stroke-width="2.4"
    stroke-linecap="round"
    stroke-linejoin="round"
  />
  <path
    d="M260.802 144.396h-114.2l-49.8 58c-20.4-44.4 4.4-67.88 16-70.6 1.76-30.24 43.4-40.6 64-42 61.6 0 81.68 36.4 84 54.6Z"
    stroke="#171717"
    stroke-width="2.4"
    stroke-linejoin="round"
  />
  <path
    d="M114.722 120.796c-2.2-10.64-1.44-32.24 16.64-40.16 17.28-7.56 34.2 3.72 39.68 9.68"
    stroke="#171717"
    stroke-width="2.4"
    stroke-linecap="round"
    stroke-linejoin="round"
  />
  <path
    d="M129.272 76.716c18.634-6.937 32.365-16.253 30.669-20.808-1.696-4.555-18.176-2.624-36.81 4.313-18.633 6.937-32.364 16.253-30.669 20.808 1.696 4.555 18.176 2.624 36.81-4.313Z"
    stroke="#171717"
    stroke-width="2.4"
  />
  <path
    d="M270.162 207.076c20.84-3.96 57.72-28.44 48.48-94.6m0 0-7.48-14.8m7.48 14.8 10.72-14.8M113.122 207.076c-20.84-3.96-57.72-28.44-48.48-94.6m0 0 7.48-14.8m-7.48 14.8-10.72-14.8M126.002 68.236l5.36 12.36"
    stroke="#171717"
    stroke-width="2.4"
    stroke-linecap="round"
    stroke-linejoin="round"
  />
  <path
    d="M259.362 142.756c-.16-1.84-1.32-3.72-1.76-5.52-.4-1.6-1.08-3.4-1.8-4.88-1.32-2.76-3.36-5.44-5.32-7.76-1.12-1.32-2.32-2.56-3.52-3.84-1.52-1.64-2.72-3.56-4.2-5.24-1.76-2-3.76-3.72-5.52-5.68-1.2-1.32-2.36-2.68-3.88-3.72-1.16-.76-2.36-1.04-3.52-1.64-.36-.16-.8-.32-1.08-.6-.24-.24.52.36.72.6 2.24 2.24 4.2 4.76 6.2 7.2 3.84 4.72 7.56 9.52 11.4 14.24 2 2.48 3.92 4.6 5.2 7.6.88 2.08 1.64 4.24 2.12 6.44.12.48.96 2.24-.28 1.68-1.68-.76-3-2.6-4.4-3.8-5.72-4.88-10.16-11.4-14.68-17.36-5.04-6.68-9.76-13.76-15.84-19.6-1.96-1.88-4.08-3.6-6.04-5.48-.8-.76-2.16-2.16-3.32-2.2-.76-.04.32 2.48.48 2.92a13.32 13.32 0 0 0 1.92 3.56c3.48 4.8 7.08 9.56 10.52 14.44 2.52 3.6 5.36 7.04 7.68 10.8 1.64 2.64 3.04 5.4 4.88 7.92.96 1.32 1.76 2.64 2.24 4.2.28.88.32 2.48.92 3.2.28.32.28.76.6 1.08 1.12 1.12-1.48-.32-1.72-.44-6.76-4.04-12.16-9.8-16.88-16.08-5.6-7.4-10.68-15.16-16.36-22.48-2.12-2.68-4.44-5-6.24-7.92-.48-.8-1.04-1.56-1.52-2.36-.16-.28-.4-.96-.76-1.12-.16-.08.12 1.12.16 1.24.28.96.76 1.92 1.32 2.76 2.56 3.92 5.36 7.68 7.92 11.56 4.08 6.16 8.08 12.6 10.72 19.52 1.28 3.32 2.16 6.88 4.28 9.8 1.08 1.52 2.36 2.76 3.48 4.2.92 1.12-1.04-.48-1.32-.68-1.48-.92-3-1.84-4.28-3-6.36-5.6-11.48-12.88-16.52-19.68-2.96-4-5.84-8.04-7.96-12.56-1.04-2.24-2-4.56-4-6.16-1.64-1.32-3.4-2.56-5.04-3.88-.4-.32-.76-.64-1.16-.88-.2-.12-.92-.96-1.04-.96-.16 0 .28 1.08.28 1.08.68 2 1.16 4.04 1.8 6.08 1.56 5.08 3.8 9.64 6.52 14.2 1.56 2.56 3.08 5.28 4.88 7.72 1.48 2 2.56 4.32 3.88 6.44 2.36 3.8 5.2 7.08 7.2 11.12.48.96.76 2.04 1.28 2.92.16.24.32.48.44.76.44.84-1.04-1.6-1.56-2.4-4.2-6.68-8.92-13.24-14.08-19.2-3.04-3.52-6.56-6.6-9.72-10-2.92-3.2-4.84-7.08-7.48-10.52-.8-1-1.56-2.24-2.48-3.16-.4-.4-.76-.56-1.04-1.04-.2-.32-1.68-2.28-1.44-2.52M163.802 95.436c.44.72 1.12 1.28 1.72 1.88 1.72 1.72 3.4 3.52 5.12 5.28 3.56 3.68 6.76 7.72 10.32 11.44 2.44 2.56 4.76 5.16 7.04 7.84 1.44 1.68 3.04 3.2 4.36 4.96 1.84 2.44 2.64 4.84 3.48 7.72.48 1.6.48 3.76 1.56 5.12.28.32.96.4 1.36.56 1 .4-.84-.92-.96-1-2.88-2.44-5.4-5.36-8.04-8.08-3.84-3.92-8.2-7.44-12.36-11-1.84-1.6-3.68-3.16-5.44-4.8-1.24-1.16-2.8-1.68-4.08-2.76-1.24-1.08-2.04-2.2-2.96-3.52-1.32-1.84-2.96-3.52-4.52-5.16-.92-.96-1.92-1.8-2.76-2.88-.6-.8-.92-1.76-1.52-2.52-.84-1.04-1.92-2.04-2.64-3.16-.64-1-.44-.52.04.24 1.28 2.08 2.36 4.28 3.6 6.4 2.16 3.64 5.04 6.84 7.96 9.84 3.6 3.72 6.76 7.76 9.72 12 2.36 3.36 4.6 6.8 6.8 10.28.76 1.2 1.72 2.4 2.68 3.48.32.36 2.52 4.68 2.44 4.72-.2.08-.76-.08-.92-.12-2.4-.72-4.52-2.64-6.28-4.36-5.44-5.24-9.92-11.36-14.2-17.56-1.76-2.6-3.72-4.96-6.16-6.92-1.88-1.48-3.88-2.8-5.6-4.44-2.28-2.16-4.4-4.44-7.12-6.04-.88-.52-3.4-2.36-2.52-1.84 1.88 1.08 3.36 3.72 4.72 5.32 4.96 6 10.24 11.68 15.24 17.64 3.24 3.88 6.52 7.72 9.8 11.56 1.28 1.52 2.4 2.96 3.04 4.88.08.24.6 2.04.36 1.96-2.24-.96-4.32-3.08-6.04-4.72-4.04-3.88-7.92-8.04-11.64-12.24-2.72-3.12-5.52-5.88-8.88-8.32-3.12-2.24-6.2-4.36-8.96-7.08-2.12-2.12-4.04-4.36-6.56-5.96-.2-.12-.84-.4-.4-.04 3.8 3 6.4 7.68 9.08 11.64 3.68 5.48 7.04 11.24 10.2 17.04 1.96 3.56 2.2 4.72 3.68 8.52.36.92-1.44-.44-.8.36.2.28 1.84 1.6 1.08.88-9.8-8.92-14.28-14.6-22.6-24.84-1.6-1.96-3.04-4.04-4.84-5.84-.64-.64-1.28-1.24-1.8-1.96-.16-.2-.96-1.28-.84-1.24.92.6 1.64 1.64 2.36 2.44 1.72 2 3.32 4.08 4.8 6.24 3.24 4.68 5.96 9.56 7.92 14.92.8 2.2 1.56 4.4 2.4 6.6.28.76.52 1.16 1.2 1.6M145.322 144.516c0-1.16-.8-2.24-1.36-3.24-1.52-2.6-3.16-5.12-4.96-7.52-1.8-2.4-3.24-5.08-5.08-7.4-2.64-3.32-5.76-6.64-7.68-10.48-.6-1.24-1.08-2.32-2.08-3.32-1.32-1.32-1.24-.28-.64 1.44 1.48 4.2 3.88 8.16 5.88 12.12 1.8 3.52 3.56 7.08 5.64 10.44 2.04 3.32 4.6 6.36 6 10.04.16.4.64 1.16.64 1.6-.04.36-1.88-.72-2-.8-5.28-3.04-8.64-8.4-12.32-13.04-2.12-2.68-4.24-5.36-6.24-8.16-.64-.92-1.44-1.76-2-2.76-.48-.84-1.76-2.28-.72-.24 3.04 5.92 5.88 11.96 9.16 17.76 1.68 2.96 3.72 5.68 4.96 8.92.2.56 1.52 5.16 1.08 5-4.32-1.56-6.88-5.92-9.52-9.4-2.56-3.4-4.92-6.72-8.2-9.4-.8-.68-1.4-1.44-2.08-2.24-.36-.4-.04-.16.24.04.92.64 1.48 1.68 2.08 2.6 4.52 6.52 5.4 14.88 8.44 22.12.44 1.08.92 2.16 1.48 3.2.16.32.92.84.56.84-2.4 0-4.6-3.76-5.76-5.24-3-3.76-4.92-8.16-7.76-11.96-.8-1.04-1.84-2.08-2.88-2.84-.96-.68-1.56-1.48-2.16-2.44-.08-.12-1-1.36-1.2-1.16-.64.8 1.76 4.88 2.04 5.6 2.64 6.6 3.8 13.64 6.36 20.2.6 1.56 1.04 3.32 2.08 4.6 1.12 1.4 1.24 2.08-.28.2-2.56-3.16-4.8-6.6-7-10-1.28-2-2.28-4.12-3.8-6-1.84-2.28-3.16-4.96-5.2-7.08-.04-.08-.52-.84-.44-.44.24 1.6 1.52 3.48 2.04 5 2.28 6.32 4 12.8 6.48 19.04.6 1.48 1.44 2.92 1.96 4.4.4 1.16.64 2.56 1.48 3.52.08.12.36.48.32.48-1.68-.68-3-3.8-3.8-5.2-2.16-3.68-4.16-7.48-6.16-11.24-.64-1.2-1.28-2.4-2.36-3.24-1.6-1.32-2.16-3.88-4.16-4.52-.36-.12-.52-.4-.2.2 1.12 2.28 2.32 4.48 3.28 6.84 2.04 5 3.52 10.24 5.44 15.28.52 1.4 1.12 2.8 1.6 4.2.12.32.4.72.4 1.04 0 .8.24 1.52.48 2.28.08.24.64 1.36.2.92-3.24-3.24-5.28-7.48-7.28-11.56-1.04-2.16-1.68-4.48-3.2-6.36-.92-1.16-2.08-2-3.32-2.68-.6-.32-.16.48-.08.72 1.04 2.08 2.12 4.12 3.12 6.2 2.04 4.28 4.08 8.64 6.24 12.88.88 1.76 4.28 6.44 2.76 5.24-4.36-3.48-7.64-8.24-11.68-12.08-.28-.28-1.64-1.72-.92-.76 2.68 3.6 4.76 7.68 6.76 11.68.24.44 1.64 4.88 2.36 4.88.32 0-.6-.32-.88-.52-.8-.48-1.56-1.08-2.28-1.68-1.04-.88-1.92-2.04-3.04-2.8-.64-.44-1.44-.84-2.04-1.32-.12-.08-.56-.2-.52-.12.72 1 1.48 2.04 2.04 3.16.72 1.36 1.28 2.8 1.96 4.16.32.64.96 1.56.96 2.32 0 .44-1.64.24-1.48.24"
    stroke="#171717"
    stroke-width="6.4"
    stroke-linecap="round"
  />
  <path
    d="M215.082 141.076c-2.96-5.16-6.68-9.84-10.76-13.96M245.442 141.076c-.32-.36-.48-.8-.72-1.24"
    stroke="#171717"
    stroke-width="6.4"
    stroke-linecap="round"
  />
  <path
    d="M246.202 141.076c-2.84-1.68-5.04-4.32-7.6-6.36M167.122 142.316c-2.44-2.56-4.72-5.32-7.84-7.08M176.682 90.916c2.08 1.24 3.64 3.76 5.16 5.64M202.602 91.636c2.04 2.04 4.48 3.76 6.84 5.4M228.362 222.836c.08 1.88.84 3.4 2.44 4.32M221.162 223.396c.12.56.56 1.08.84 1.56.88 1.56 1.48 3.28 2.2 4.92.76 1.72 1.76 3.28 2.92 4.76M212.762 221.916c0 3.2 2.16 5.84 3.64 8.52M216.282 231.796c1.16 1.28 1.92 2.96 2.72 4.48"
    stroke="#171717"
    stroke-width="6.4"
    stroke-linecap="round"
  />
  <path
    d="M250.722 74.836c1.12 0 2.28 0 3.4-.08.72-.04 1.48-.16 2.16-.44 1.28-.56 2.56-1.24 3.96-1.48.96-.16 2-.28 2.96-.56.68-.2 1.32-.56 2-.76 1.04-.32 1.8-.52 2.88-.32.6.12.8 1.72.88 2.16.12.6.28 1.16.4 1.76.16.68.4 1.4.56 2.08.2.92.4 1.96.4 2.92 0 .84-.64.44-1.16.8-.32.2-.48.44-.88.56-.52.16-.92.32-1.4.56-1.32.64-3.16.36-4.56.36-1.32 0-2.8.12-4.08.52-.4.12-.88.2-1.28.4s-.92.16-1.32.2c-.56.08-1.16.04-1.72.04-.52 0-1.16-.08-1.64.08-.32.08-.68.24-1 .32-.44.12-.52.24-.64-.28-.24-1.04-.44-2.08-.8-3.08-.28-.8-.68-1.52-.84-2.36-.12-.68-.08-1.32-.12-2 0-.28-.24-.52-.24-.8M278.242 158.876c.08-.6.92-1.16 1.32-1.56.36-.36.68-.68 1.08-.96.36-.28.72-.52 1.08-.76.32-.24.72-.44.96-.68.52-.52 1.44-.96 2.08-1.24.24-.12.56-.2.84-.2.68 0 .88.24 1.36.72l1.2 1.2c.32.32.52.68.88.92.64.48 1.36.96 1.8 1.6.8 1.16 1.48 2.4 2.36 3.56a31.33 31.33 0 0 1 3.16 5.04c.24.52.44.88.44 1.48 0 .4-.52.8-.76 1.12-.28.4-.48.88-.88 1.2-.44.4-.76.8-1.24 1.12-.4.32-.96.6-1.28 1.04-.8 1.04-2.08.72-3.2 1-.32.08-.4-.04-.6-.28-.4-.48-.8-1.08-1.08-1.6-.4-.8-.84-1.56-1.32-2.32-.4-.56-.8-1.4-1.4-1.8-.68-.48-1.24-1.16-1.76-1.8-1.08-1.24-2.12-2.52-3.24-3.68-.24-.28-.64-.6-.8-.92-.12-.2-.48-.24-.6-.48M203.882 80.156c.08-.84 1.68-1.52 2.32-1.88.56-.32 1.04-.88 1.52-1.36.92-.96 1.84-1.92 2.52-3.08.84-1.44 1.92-2.64 3.12-3.8.92-.92 1.96-1.72 2.88-2.64.44-.44 1.04-.76.4-1.28-.52-.44-1.2-.72-1.68-1.16-.36-.32-.84-.64-1.28-.92-.48-.32-.88-.72-1.32-1.04-.28-.2-.4-.48-.68-.68-.48-.28-.84-.64-1.24-1.04-.36-.32-.96-1-1.32-.44-.84 1.36-2.28 2.08-3.48 3.08-1.64 1.32-2.96 2.68-4.16 4.44-.64.92-1.28 1.88-1.88 2.84-.48.8-1 1.76-1.68 2.44-.96.96 1.28 1.64 1.92 2.12.8.6 1.4 1.36 2 2.12.28.32.64.84 1.08 1 .28.12.64.32.84.52M139.802 271.116c1.44-.16 2.52-1.52 3.68-2.2.68-.36 1.36-.92 2.04-1.2.96-.4 2-.48 3-.72 2.28-.48 4.44-1 6.12-2.68.6-.6 1.44-1 2.28-.76 1.16.36 1.8 1.76 2.28 2.8.68 1.48 1.8 2.92 1.72 4.64 0 .32-.56.68-.76.84-.64.52-1.36.88-2 1.4-.6.44-.96 1-1.68 1.28-1.04.48-2.12.72-3.2 1.04-1.2.32-2.6.88-3.68 1.48-.52.28-1.16.44-1.6.84-.48.36-.96.68-1.48.92-.68.36-1.32.72-2.04.88-.36.08-.68.12-1.08.12-.76-.04-.84-1.32-.96-1.88-.24-1.16-.68-2.28-1-3.44-.16-.56-.56-1.04-.8-1.56-.2-.44-.28-.92-.48-1.32M98.482 299.196c2.88 0 5.64 1.52 8.2 2.72 1.76.84 3.72 1.44 5.56 2.04 1.84.6 3.6 1.12 3.56 3.36 0 .64-.36 1.36-.56 1.96-.24.72-.44 1.44-.68 2.12-.4 1.24-.92 2.6-1.72 3.64-.56.72-1.84.76-2.64.36-.92-.52-1.64-1.28-2.6-1.68-1.32-.56-2.76-.8-4.08-1.4-1.2-.56-2.56-.84-3.64-1.6-.72-.48-1.56-.84-2.28-1.32-.52-.36-1.2-.32-1.6-.84-1.12-1.44.44-3 .48-4.68.04-1.6.24-2.92.88-4.28M275.202 289.036c0-.6.36-.92.68-1.44.6-.92 1.2-1.56 1.6-2.6.6-1.64 1.76-2.76 2.6-4.24.48-.84 1.16-1.52 1.56-2.4.36-.8 1.16-1.32 1.64-2.08.32-.52.76-1 1.04-1.56.16-.28.52-.52.56-.88.04-.52.16-1.04.24-1.52.08-.44-.08-.48-.56-.72-1.56-.8-3.4-.96-5-1.68-.32-.16-.68-.4-1-.52-.44-.16-.92-.08-1.4-.12-.64-.04-.56-.24-.84.4-.4 1-.72 2.08-1.4 3-.6.8-1.36 1.4-1.92 2.2-.52.72-.96 1.48-1.44 2.24-.52.84-.88 1.72-1.44 2.52-.44.64-.96 1.16-1.2 1.92-.4 1.16-.96 2.32-1.56 3.4-.12.2-.6.48-.24.68.44.24 1.12.32 1.6.32 1.28 0 2.4.04 3.32 1 .76.76 1.88.76 2.6 1.48M98.802 253.276c0-3 2.36-5.16 4.04-7.48.44-.64.96-1 1.08-1.84.2-1.2.8-2.24 1.4-3.28.56-1.04 1.4-1.92 2.04-2.92.12-.16.72-.96.56-1.04-.48-.28-.92-.64-1.4-.96-.64-.44-1.08-1.16-1.76-1.6-.52-.36-1-.68-1.52-1.04-.6-.36-1.52-.8-2.2-.8-.44 0-.56-.2-1.08 0-.56.2-1.16 1-1.52 1.44-.92 1.16-1.4 2.6-2.24 3.8-1.04 1.4-2.12 2.84-3.12 4.28-.72 1.04-.84 2.56-1.76 3.48-.64.64-1 1.4-1.36 2.2-.48 1.04 0 2 1.04 2.36 1.48.52 2.6 1.88 3.88 2.76.68.44 1.4 1.4 2.32 1.48.2 0 1 .12 1.04-.16 0-.32.04-1.04.28-1.16M82.202 118.516h3.64c.72 0 1.52.08 2.24 0 1.24-.16 2.24-.76 3.32-1.28 1.36-.68 2.88-1 4.4-1.16 1-.12 2.04-.48 3-.72.48-.12 1.08-.08 1.48.16.68.44.88 1.52 1.12 2.24.2.56.2 1.16.28 1.72.08.6.24 1.16.32 1.76.12.8.16 1.6.2 2.44.04.56.24.92-.32 1.32-.96.64-2.56.76-3.64.92-1 .16-2.04.16-3.04.36-.76.16-1.4.6-2.2.72-1.08.16-2.16.2-3.24.44-.52.12-1.04.32-1.6.4-.48.04-.96.08-1.44.2-.72.16-1.44.44-2.16.44h-.56c-.44-.04-.6-1.16-.64-1.44-.28-1.56-.32-3.12-.6-4.68-.2-1-.56-1.88-.56-2.96M225.802 38.796c0 2.16 0 4.32.12 6.48.04.48.28 1 .4 1.48.16.92.04 1.96.12 2.88.04.4.04.84.04 1.24s-.04-.84-.08-1.24a32.3 32.3 0 0 1-.2-3.4c0-.4.12-1.08-.08-1.44-.16-.32-.36-1.48-.72-1.48-.88-.04-1.76 0-2.64 0-.04 0-.92-.04-.64.12.96.6 2.44.68 3.56.76 1.72.16 3.92.44 5.64.08.2-.04 1.36-.08.6-.08-1.32 0-2.6.24-3.88.04-.92-.12-1.84-.36-2.72-.56-.36-.08-1.52.04-1.68-.28"
    stroke="#171717"
    stroke-width="2.4"
    stroke-linecap="round"
  />
  <path
    d="M228.282 47.476c-.08-.48-.4-1.04-.56-1.52-.2-.6-.36-1.32-.72-1.84-.56-.8-1.4-1.36-1.96-2.16-.2-.28-.32-.76-.64-.92-.24-.12-1.08-.56-1.04-.56"
    stroke="#171717"
    stroke-width="2.4"
    stroke-linecap="round"
  />
  <path
    d="M224.242 45.676c.28-.08.52-.4.72-.6.68-.72 1.32-1.44 2-2.12.84-.84 1.68-1.72 2.6-2.44.36-.28.72-.56 1.08-.88.12-.08.44-.2.32-.2M274.442 114.156c0 1.8 0 3.64.12 5.44.04.4.24.84.32 1.24.16.76.04 1.64.08 2.44m0 0c.04.36.04.68.04 1.04s-.04-.68-.04-1.04Zm0 0c-.08-.96-.16-1.92-.16-2.84 0-.32.12-.92-.04-1.2-.16-.28-.28-1.24-.6-1.24-.72-.04-1.48 0-2.24 0-.04 0-.76-.04-.52.12.8.52 2.08.56 3 .64 1.44.12 3.28.36 4.76.04.16-.04 1.16-.04.48-.04-1.08 0-2.16.2-3.28.04-.76-.08-1.56-.28-2.28-.48-.28-.08-1.28 0-1.4-.24"
    stroke="#171717"
    stroke-width="2.4"
    stroke-linecap="round"
  />
  <path
    d="M276.482 121.476c-.08-.4-.32-.88-.48-1.28-.16-.52-.28-1.12-.6-1.56-.48-.68-1.2-1.16-1.68-1.84-.16-.24-.28-.64-.56-.76-.2-.08-.88-.48-.88-.48"
    stroke="#171717"
    stroke-width="2.4"
    stroke-linecap="round"
  />
  <path
    d="M273.122 119.956c.24-.08.44-.32.6-.52.56-.6 1.12-1.2 1.68-1.76.72-.68 1.4-1.44 2.2-2.08.32-.24.6-.48.92-.72.12-.08.36-.16.28-.16M98.122 35.276c0 2.96 0 5.96.16 8.96.04.64.4 1.4.52 2.04.24 1.28.04 2.72.16 4 .04.56.04 1.12.04 1.72 0 .56-.04-1.12-.08-1.68-.16-1.56-.28-3.12-.28-4.68 0-.56.2-1.48-.08-2-.24-.44-.48-2.04-1-2.04-1.2-.08-2.44 0-3.64 0-.08 0-1.24-.04-.88.16 1.32.84 3.4.92 4.88 1.08 2.36.24 5.4.6 7.8.08.28-.08 1.88-.08.8-.08-1.8 0-3.56.32-5.36.08-1.28-.16-2.52-.48-3.76-.76-.48-.12-2.12.04-2.32-.4"
    stroke="#171717"
    stroke-width="2.4"
    stroke-linecap="round"
  />
  <path
    d="M101.522 47.276c-.12-.64-.56-1.44-.76-2.12-.28-.84-.48-1.8-1-2.56-.76-1.08-1.92-1.88-2.72-3-.28-.4-.48-1.04-.88-1.24-.32-.16-1.48-.76-1.44-.76"
    stroke="#171717"
    stroke-width="2.4"
    stroke-linecap="round"
  />
  <path
    d="M95.962 44.756c.4-.12.72-.56.96-.84.92-1 1.8-1.96 2.76-2.92 1.16-1.12 2.32-2.36 3.6-3.36.52-.4 1-.8 1.52-1.2.16-.12.6-.28.44-.28M216.122 267.036c0 1.64 0 3.32.08 4.96 0 .36.24.76.28 1.12.12.72.04 1.48.08 2.2.04.32.04.64.04.96 0 .32 0-.64-.04-.92-.08-.84-.16-1.72-.16-2.6 0-.32.12-.84-.04-1.12-.12-.24-.28-1.12-.56-1.12-.68-.04-1.36 0-2 0-.04 0-.68-.04-.48.08.72.44 1.88.52 2.72.6 1.32.12 3 .32 4.32.04.16-.04 1.04-.04.44-.04-1 0-1.96.16-2.96.04-.72-.08-1.4-.28-2.08-.4-.28-.04-1.16 0-1.28-.2"
    stroke="#171717"
    stroke-width="2.4"
    stroke-linecap="round"
  />
  <path
    d="M218.002 273.676c-.08-.36-.28-.8-.4-1.16-.16-.48-.28-1-.56-1.4-.44-.6-1.08-1.04-1.52-1.64-.16-.24-.24-.56-.48-.68l-.8-.4"
    stroke="#171717"
    stroke-width="2.4"
    stroke-linecap="round"
  />
  <path
    d="M214.962 272.277c.24-.08.4-.28.52-.48.52-.56 1-1.08 1.52-1.6.64-.64 1.28-1.28 2-1.88.28-.24.56-.44.84-.68.08-.08.32-.16.24-.16M184.202 331.196c0 2.16 0 4.32.12 6.48.04.48.28 1 .4 1.48.16.92.04 1.96.12 2.88.04.4.04.84.04 1.24s-.04-.84-.08-1.24a32.3 32.3 0 0 1-.2-3.4c0-.4.12-1.08-.08-1.44-.16-.32-.36-1.48-.72-1.48-.88-.04-1.76 0-2.64 0-.04 0-.92-.04-.64.12.96.6 2.44.68 3.56.76 1.72.16 3.92.44 5.64.08.2-.04 1.36-.08.6-.08-1.32 0-2.6.2-3.88.04-.92-.12-1.84-.36-2.72-.56-.36-.08-1.52.04-1.68-.28"
    stroke="#171717"
    stroke-width="2.4"
    stroke-linecap="round"
  />
  <path
    d="M186.682 339.876c-.08-.48-.4-1.04-.56-1.52-.2-.6-.36-1.32-.72-1.84-.56-.8-1.4-1.36-1.96-2.16-.2-.28-.32-.76-.64-.92-.24-.12-1.08-.56-1.04-.56"
    stroke="#171717"
    stroke-width="2.4"
    stroke-linecap="round"
  />
  <path
    d="M182.642 338.076c.28-.08.52-.4.72-.6.68-.72 1.32-1.44 2-2.12.84-.84 1.68-1.72 2.6-2.44.36-.28.72-.56 1.08-.88.12-.08.44-.2.32-.2M291.722 226.876c0 2.96 0 5.96.16 8.96.04.64.4 1.4.52 2.04.24 1.28.04 2.72.16 4 .04.56.04 1.12.04 1.72 0 .56-.04-1.12-.08-1.68-.16-1.56-.28-3.12-.28-4.68 0-.56.2-1.48-.08-2-.24-.44-.48-2.04-1-2.04-1.2-.08-2.44 0-3.64 0-.08 0-1.24-.04-.88.16 1.32.84 3.4.92 4.88 1.08 2.36.24 5.4.6 7.8.08.28-.08 1.88-.08.8-.08-1.8 0-3.56.32-5.36.08-1.28-.16-2.52-.48-3.76-.76-.48-.12-2.12.04-2.32-.4"
    stroke="#171717"
    stroke-width="2.4"
    stroke-linecap="round"
  />
  <path
    d="M295.122 238.876c-.12-.64-.56-1.44-.76-2.12-.28-.84-.48-1.8-1-2.56-.76-1.08-1.92-1.88-2.72-3-.28-.4-.48-1.04-.88-1.24-.32-.16-1.48-.76-1.44-.76"
    stroke="#171717"
    stroke-width="2.4"
    stroke-linecap="round"
  />
  <path
    d="M289.562 236.356c.4-.12.72-.56.96-.84.92-1 1.8-1.96 2.76-2.92 1.16-1.12 2.32-2.36 3.6-3.36.52-.4 1-.8 1.52-1.2.16-.12.6-.28.44-.28"
    stroke="#171717"
    stroke-width="2.4"
    stroke-linecap="round"
  />
  <path
    d="M249.922 144.076c1.48 4.24 3 8.44 5.6 11.72 3.04 3.84 4.84 10.2 7.32 14.72 2.36 4.36 6 9.32 6 14.4 0 3.48 2.16 7 2.16 10.52v9.96c0 7.12-.36 15.28-3.8 21.6-1.32 2.4-.44 7.76-.72 10.52-.32 3.08-2.56 6.08-2.88 8.88-.72 6.28-7.48 14.28-10.28 19.96-6.28 12.76-15.44 20.32-27.52 27.16-3.12 1.76-6.2 2.08-9.24 3.64-2.76 1.4-7 4.36-9.8 4.68-6.4.76-14.6 4.56-20.88 4.96-4.84.28-9.48 2.84-14.48 0-4.76-2.68-14.88-3.52-20.16-3.84-10.64-.6-19.92-10.24-27.76-16.6-3.64-2.96-7.92-13.16-10.24-17.6-2.6-4.96-4.84-9.44-8.56-13.64a27.268 27.268 0 0 1-2.365-3.08m-5.515-49.96c-.4 4.6 0 9.4 0 13.96 0 5.811-.263 11.719.107 17.4M194.562 178.076c0-1 .16-2.08-.24-3-.48-1.16-3.36-1.2-4.12-2.2-1.36-1.76-1.36-3.96-3.76-4.28-.64-.08-1.24-.12-1.92-.12-.72 0-1.2.52-1.84.72-1.2.4-2.68 1.32-3.44 2.2-.4.48-1.16 1.04-1.68 1.44-.52.44-.88 1.16-1.12 1.76-.32.84-.68 1.48-.68 2.4"
    stroke="#171717"
    stroke-width="1.6"
    stroke-linecap="round"
  />
  <path
    d="M243.242 176.556c0-.72-.12-1.16-.52-1.8-.36-.6-.56-1.24-1.04-1.8-.56-.64-1.36-1.08-1.84-1.84-.24-.32-.56-.88-.92-1.08-.6-.36-1.24-1.12-2-1.12-1.16 0-2.64-.12-3.68.52-.4.24-.92.32-1.36.56-.28.16-.52.44-.84.6-.8.44-1.56 1.36-2.2 2-.44.44-1 .84-1.32 1.4-.32.56-.24 1.16-.52 1.68M178.162 150.596c-1.72 0-3.48.92-5 1.8-1.56.88-2.72 2.04-3.88 3.4-.96 1.12-2.24 2.52-2.92 3.76-.52.92-1.2 1.68-1.68 2.6-.36.68-.36 1.48-.72 2.16-.64 1.24-.72 3.56-1 4.92-.32 1.6-.32 3.28-.32 4.92 0 1.76-.16 3.88.32 5.52.32 1.12.56 3.52 1.24 4.44 1.84 2.4 4.04 4.88 6.16 7.08.96 1.04 2.16 1.88 3.24 2.76.52.44 1.76.68 2.44 1 .72.32 1.56.92 2.36.92 1.8 0 3.08 1.04 4.72 1.52.64.2 4.72.4 5.12-.12.36-.44 1.56-.56 2.04-.84.96-.52 1.72-1.36 2.76-1.8 1.4-.52 3.4-1.08 4.52-2.24 1.8-1.92 3.44-3.92 5.28-5.88.96-1.04 1.28-2.64 1.88-3.96.68-1.44 2-3.48 2-5.08 0-3.4.76-7.08 0-10.48-.32-1.44-.48-3.04-1.2-4.32-.84-1.52-1.68-2.36-2.88-3.6-2.32-2.44-5.04-5.08-8-6.64-1.88-1-2.84-1.6-5-1.6-1.72 0-3.44-.92-5.12-.92-1.64 0-3.28-.32-5-.32-1.52 0-4.36.12-5.56 1.08-.8.64-1.88.88-2.8 1.32-.84.4-1.24 1.04-1.92 1.76-1.16 1.2-2.84 3.8-3.88 6.2"
    stroke="#171717"
    stroke-width="1.6"
    stroke-linecap="round"
  />
  <path
    d="M214.082 186.076c.48 1.72 1.8 3.28 3 4.6 1.24 1.36 2.6 2.24 4.2 3.08 1.28.68 2.96 1.64 4.32 2.04.96.28 1.88.8 2.88 1.08.76.2 1.48 0 2.24.2 1.32.36 3.48-.16 4.88-.2 1.56-.04 3.12-.52 4.68-.92 1.6-.44 3.64-.84 5.08-1.68.96-.6 3.12-1.44 3.8-2.36 1.76-2.48 3.44-5.32 4.92-8 .68-1.24 1.16-2.64 1.72-3.96.28-.64.16-1.96.28-2.72.12-.84.44-1.8.24-2.6-.48-1.84.12-3.4.12-5.16 0-.68-.92-4.88-1.52-5.16-.52-.24-.96-1.44-1.32-1.88-.76-.84-1.76-1.4-2.4-2.36-.88-1.28-1.92-3.16-3.28-4-2.28-1.36-4.6-2.52-6.88-3.88-1.2-.72-2.8-.64-4.16-.92-1.52-.32-3.8-1.16-5.28-.76-3.16.84-6.76 1-9.76 2.6-1.28.68-2.72 1.28-3.72 2.28-1.2 1.2-1.72 2.28-2.56 3.8-1.64 2.96-3.36 6.36-4 9.76-.4 2.16-.72 3.28-.16 5.44.48 1.72.08 3.72.52 5.44.44 1.64.6 3.4 1.08 5.12.4 1.56 1.28 4.4 2.52 5.36.84.64 1.32 1.68 1.96 2.52.6.76 1.32.96 2.16 1.48 1.44.88 4.32 1.96 6.8 2.4M160.882 172.316c-3.24 0-6.56-.36-9.6.76-3.28 1.2-6.4 1.88-9.92 1.88-3 0-5.72-.36-8.84-.36-1.68 0-2.92.48-4.52.04-1.24-.36-3.2-1.12-4.28-.4M263.962 175.036c-2.32 0-3.96-2-6.24-2M237.242 211.316c2.28 0 4.64-.32 6.72.56 1.52.64 2.84 1.92 3.2 3.52.16.72.2 1.32.2 2.08 0 1.12.08 1.48-.96 2.04-.72.4-1.4 1.12-2.24 1.28-1.08.24-2.04.72-3.08 1.08-2.72.96-5.44 1.56-8.36 1.56-2.88 0-5.76-.28-8.6-.56-1.92-.2-3.96-.76-5.8-1.28-.64-.2-1.36.04-2-.12-.64-.16-1.48-.2-2.16-.28-1.52-.16-3-.36-4.52-.64a49.78 49.78 0 0 1-4.24-.88c-1.36-.32-2.76-1.04-4.08-1.2-2.52-.28-5.96-.92-8.08-2.36-.8-.52-1.76-.56-2.52-.96-1.48-.76-3-.84-4.6-1.16-3-.68-6.36-.84-9.16-2.12-.88-.4-1.92-.36-2.72-.72-1.16-.52-2.4-.92-3.6-1.16-1.76-.36-3.24-.64-4.88-1.32-1-.44-1.56-1.12-2.72-1.12-.36 0-1.92-.2-2.2-.44-1-.76-.52.56-.44 1.16.2 1.48.88 3.04.96 4.56.16 2.52 1.72 5.44 3.32 7.36.52.64.68 1.52 1.24 2.12.6.64.92 1.48 1.32 2.24.6 1.12 1.52 2.16 2.24 3.2.72 1 1.6 2.24 2.52 3.12.88.84 1.92 1.4 2.84 2.16 1.48 1.28 3.12 2.56 4.88 3.44 1.72.88 3.44 1.52 5.36 1.88 1.76.32 3.52 1.32 5.28 1.68 3.32.72 6.28 3.44 9.64 3.44 1.8 0 3.6-.08 5.36.2 2.28.36 4.48.76 6.84.76 1.56 0 3.4-.6 4.76-1.28l5.08-2.48c.8-.4 1.2-1.2 1.96-1.6.68-.36 1.72-1.04 2.24-1.56 1.32-1.28 3.44-2.16 4.4-3.8.44-.72 1-1.4 1.44-2.08.52-.8.72-1.88 1.12-2.72.56-1.2.64-4.32 1.92-4.92"
    stroke="#171717"
    stroke-width="1.6"
    stroke-linecap="round"
  />
  <path
    d="M216.722 243.556c0-1.84-.2-2.76-1.16-4.28-.56-.88-1.32-2.4-1.56-3.44-.28-1.24-.8-2.64-1.4-3.76-.56-1.08-1.84-2.12-2.48-3.24-.64-1.16-1.04-2.88-1.72-3.96-.76-1.2-2-1.88-2.88-3-1.52-1.96-3.28-4.24-5.52-5.36M147.802 302.756v6.52c0 2.56 1 4.84 1 7.4v7.4c0 2.2-.68 4.2-.68 6.36 0 2.44-.32 5.12-.32 7.64 0 2.32.8 6.32-.08 8.48-1 2.56-1.28 5.72-1.64 8.48-.36 2.76-.64 5.32-.64 8.16 0 3 .92 5.84 1 8.84.04 1.28.08 2.36.32 3.6.12.76-.4 3.08.2 3.56.56.44.04 1.68.84 2.12 1.28.68 3 .88 4.4.96 2.2.12 4.44 1.36 6.6 1.36 1.8 0 3.12 1 4.76 1 1.88 0 .2.12-.44-.4-.92-.72-2.68-1.08-3.8-1.56-4.08-1.76-8.08-1.76-12.56-1.76M207.042 302.756v6.52c0 2.56 1 4.84 1 7.4v7.4c0 2.2-.68 4.2-.68 6.36 0 2.44-.32 5.12-.32 7.64 0 2.32.8 6.32-.08 8.48-1 2.56-1.28 5.72-1.64 8.48-.36 2.76-.64 5.32-.64 8.16 0 3 .92 5.84 1 8.84.04 1.28.08 2.36.32 3.6.12.76-.4 3.08.2 3.56.56.44.04 1.68.84 2.12 1.28.68 3 .88 4.4.96 2.24.12 4.44 1.36 6.6 1.36 1.8 0 3.12 1 4.76 1 1.88 0 .2.12-.44-.4-.92-.72-2.68-1.08-3.8-1.56-4.08-1.76-8.08-1.76-12.56-1.76M211.602 220.396c1.12 2.24 2.2 4.48 3.32 6.72 1.12 2.32 2.6 4.36 3.72 6.64.76 1.52 1.36 3.52 3.56 6.72M113.082 133.076c-7.6 0-17.32 8.56-18.2 16.44-.28 2.36-2.36 4.04-2.36 6.76 0 2.32-1.76 4.68-1.76 7.04 0 5.08-1.16 9.76-1.16 14.68v6.76c0 2.84 1.08 4.72 1.16 7.48.08 2.16 4.24 11 7.32 8.6 4-3.12 6.68-8.84 8.96-13.16.96-1.8 3.08-4.12 4.84-5.16 1.8-1.04 5.24-3.56 6.32-5.4 2.36-4 5.24-8.04 8.64-11.44 3.76-3.76 6.68-7.72 10.12-11.56 3.56-3.96 4.4-6.32 9.8-7.52 1.96-.44 3.92-1.72 5.88-1.72h8.2c18.72 0 37.52-1.76 56.32-1.76h6.76c2.44 0 4.68 1.04 7.04 1.16 5.72.32 11.56 0 17.32 0 1.68 0 1.4.68 2.44 1.04 1.6.6 2.8-.44 4.32-.44 1.92 0 3.52-.2 3.52-2.36 0-1.48-1.88-4.96-2.8-6-1.56-1.72-2.48-4.84-3.52-6.92-2.08-4.16-2.84-9.48-5.72-13.2-2.4-3.08-6.24-6.64-9.64-8.64-4.04-2.4-8.04-5.64-12.56-6.96-1.88-.52-4.08-2.2-5.88-3.2-1.84-1.04-4.48-3.32-6.44-3.8-1.08-.24-4.2-1.48-5.12-2.24-1.16-.92-6.04-.72-7.48-.72-5.56 0-10.64-1.16-16.08-1.16-6.4 0-12.16 2.12-18.4 2.36-4.68.16-11.2 2.24-14.8 5.28-1.84 1.56-4.04 2-6.16 2.92-3 1.32-4.12 2.36-7.64 2.36-3.48 0-10.4 3.96-12.6 6.76-2.12 2.64-15.96 20.76-11.16 23.16"
    stroke="#171717"
    stroke-width="1.6"
    stroke-linecap="round"
  />
  <path
    d="m88.962 172.196 5.64 6.6c1.92 2.24 4.12 4.16 6.04 6.4 1.28 1.48 2.6 3.52 5.88 6.56M90.522 181.596c1.36 1.6 2.72 3.16 4.04 4.76 1.4 1.64 3.08 2.92 4.44 4.52.92 1.08 1.8 2.6 4.32 4.68M89.442 164.916c3.32 3.88 6.64 7.8 9.96 11.68 3.4 4 7.04 7.6 10.44 11.56M91.762 159.836c3.32 3.88 6.64 7.8 9.96 11.68 3.4 4 7.04 7.6 10.44 11.56M92.722 153.156c3.56 4.16 7.08 8.32 10.64 12.44 3.64 4.28 7.48 8.12 11.12 12.32M96.242 150.516c2.44 2.88 4.92 5.76 7.36 8.6 2.52 2.96 5.28 5.52 7.76 8.44 1.64 1.96 3.44 4.56 7.64 8.6M97.642 143.476c3.32 3.88 7.72 8.88 11.04 12.76 3.4 4 7.04 7.6 10.44 11.56.92 1.08 1.92 2.32 3.12 3.8M101.042 139.476c3.32 3.88 6.64 7.8 9.96 11.68 3.4 4 7.04 7.6 10.44 11.56 2.24 2.64 2 2.36 4.6 5.56M104.442 135.876c3.32 3.88 5.56 7.12 8.88 11 3.4 4 7.04 7.6 10.44 11.56 2.24 2.64-.04.44 5.48 6.04M107.842 134.116c2.48 2.92 4.96 5.84 7.48 8.72 2.56 3 5.36 5.6 7.88 8.56 1.68 1.96 3.52 4.6 7.76 8.72M112.922 129.996c2.24 2.6 4.48 5.24 6.72 7.84 2.28 2.68 4.84 5 7.12 7.68 1.52 1.76 3.12 4.16 7 7.84M115.842 126.476c2.48 2.92 5 5.84 7.48 8.8 2.56 3 5.64 5.4 8.2 8.36 1.68 1.96 3.32 4.84 7.96 8.64M116.762 118.876c2.88 3.36 5.76 6.72 8.6 10.08 2.96 3.44 6.12 6.52 9.04 9.92 1.92 2.28 4.08 5.28 8.92 10.12M119.482 114.276c2.84 3.32 5.64 6.6 8.48 9.92 2.92 3.4 6.04 6.4 8.92 9.76 1.92 2.24 4 5.2 8.8 9.96M122.602 110.276c3.2 3.76 6.4 7.48 9.6 11.24 3.28 3.84 6.8 7.28 10.04 11.08 2.16 2.52 4.6 5.88 9.92 11.28M125.842 106.916c3.6 4.2 7.2 8.44 10.8 12.64 3.68 4.32 7.84 8.04 11.52 12.32 2.44 2.84 5 6.76 11.28 12.6M129.042 106.116c3.6 4.24 7.2 8.44 10.84 12.68 3.72 4.36 7.64 8.28 11.28 12.56 2.44 2.84 5.2 6.6 11.2 12.72M132.642 102.516c3.88 4.56 7.76 9.12 11.64 13.64 4 4.68 8.32 8.8 12.24 13.44 2.64 3.08 5.52 7.16 12.08 13.68M141.042 103.196c3.88 4.56 7.76 9.08 11.64 13.64 4 4.68 8.2 8.92 12.12 13.52 2.64 3.08 5.6 7.08 12 13.72M143.362 98.116c4.32 5.08 8.64 10.12 12.96 15.2 4.44 5.2 9.08 9.96 13.48 15.12 2.92 3.44 6.28 7.88 13.36 15.28M151.442 94.516c4.32 5.08 8.64 10.12 12.96 15.2 4.44 5.2 9.08 9.96 13.48 15.12 2.92 3.44 6.28 7.88 13.36 15.28M157.042 93.316c4.68 5.44 9.32 10.92 14 16.36 4.8 5.6 9.76 10.76 14.48 16.32 3.16 3.68 6.8 8.48 14.4 16.48M163.842 91.716c4.92 5.76 9.84 11.52 14.72 17.24 5.04 5.92 10.24 11.36 15.24 17.2 3.32 3.88 7.16 8.92 15.16 17.4M185.442 102.916c3.76 4.4 7.52 8.84 11.32 13.24 3.88 4.52 7.96 8.64 11.8 13.12 2.56 3 5.44 6.88 11.68 13.32M174.242 89.716c.92 1.08 1.8 2.12 2.72 3.2.92 1.08 2.16 1.88 3.08 2.96.6.72 1.12 1.84 2.96 3.08M184.242 89.316c1.36 1.6 2.76 3.24 4.12 4.84 1.4 1.64 3.12 3 4.52 4.64.92 1.08 1.84 2.64 4.36 4.76M199.482 105.916c3.72 4.32 7.4 8.68 11.12 13 3.8 4.44 7.8 8.48 11.56 12.88 2.52 2.92 5.36 6.76 11.44 13.08M205.042 98.916c4.32 5.08 8.64 10.12 12.96 15.2 4.44 5.2 9.08 9.96 13.48 15.12 2.92 3.44 6.28 7.88 13.36 15.28M208.362 93.436c4.84 5.68 9.68 11.32 14.52 17 4.96 5.84 10.12 11.16 15.04 16.92 3.28 3.84 7.08 8.8 14.92 17.12M216.962 96.196c3.44 4.04 6.92 8.08 10.36 12.12 3.56 4.16 7.32 7.88 10.8 12 2.32 2.72 4.96 6.32 10.68 12.16M231.042 102.916c3.04 3.56 6.12 7.16 9.16 10.72 3.12 3.68 6.48 6.96 9.6 10.56 2.08 2.4 4.36 5.6 9.48 10.76"
    stroke="#171717"
    stroke-width="1.6"
    stroke-linecap="round"
  />
  <path
    d="M169.522 90.076c-.72-.6-2.04-.64-2.64-1.36-.92-1.08-2.16-2.12-3.28-3-1.32-.96-2.72-1.92-3.96-2.84-2.76-2.04-6.68-1.52-9.8-2.72-.92-.36-1.88-.6-2.76-1.04-.68-.32-1.52-.92-2.28-.96-.84-.04-1.6-.16-2.48-.12-1.36.04-2.12.84-3.36 1.28-3.6 1.24-6.76 3.6-10.28 4.76-1.64.56-3.16 1.88-4.72 2.72-1.56.88-2.96 2.24-3.96 3.64-2.2 3.12-3.12 6.92-4.4 10.44-1.12 3.08-.36 6.96-.2 10.24.16 3.4-.2 6.6-.04 10M126.362 67.916c.04 1.16-.16 2.72.36 3.76.44.88.8 1.64 1.28 2.52 1.12 2.04 2.8 3.76 2.92 6.24"
    stroke="#171717"
    stroke-width="1.6"
    stroke-linecap="round"
  />
  <path
    d="M130.002 75.836c-4.24.2-8 1.4-12.04 2.36-2.6.6-4.68 1.8-7.48 1.92-1.24.04-2.56.48-3.8.56-1.44.12-2.8.04-4.16.36-2.12.48-4.88.24-7.04.32-.76.04-2.04-.32-2.08-1.12-.04-1.28 1.08-2.12 1.88-3.2 1.08-1.48 2.72-2.52 4.12-3.84 1.16-1.08 2.12-1.44 3.64-2.12 1.6-.72 3.4-1.08 5.04-1.68 1.8-.68 3.64-1.4 5.52-1.88.72-.2 1.64-.72 2.28-1.12.88-.52 1.88-.72 2.84-1.12 1.36-.6 2.96-1.16 4.4-1.6 1.84-.52 3.88-1.52 5.56-2.32 1.6-.76 3.16-1.04 4.84-1.56 2.44-.76 4.8-1.88 7.44-2.08 4.56-.36 9.28-.84 13.92-.8.56 0 1.8.6 2.28.92.88.56.88 1.28.92 2.16.04 1.16-.72 1.52-1.4 2.36-.72.88-1.56 1.96-2.56 2.6-3.64 2.36-7.72 3.6-11.88 5.12-5.6 2.08-10.36 5.4-16.12 7.32M215.842 220.396c1.12 2.24 2.2 4.48 3.32 6.72 1.12 2.32 2.6 4.36 3.72 6.64.76 1.52 1.48 3.04 2.24 4.56M220.242 220.876c1.12 2.24 2.04 4 3.12 6.24 1.12 2.32 2.6 4.36 3.72 6.64M224.442 221.276c.68 1.36 1.16 1.84 1.84 3.24.68 1.4 1.76 2.6 2.44 3.96.44.92.92 1.84 1.36 2.76.2.44 1.76 1.88 1.2 2.44M229.242 221.676c.48.96.2.64.68 1.64.48 1 1.36 1.76 1.84 2.76.32.64.64 1.32.96 1.96.16.32 1.44 1.24.84 1.72M214.482 233.756c.76 1.52 1.48 3.04 2.24 4.56.36.72 2.48 3.28 1.96 3.96M269.922 205.836c3.56 0 6.52 0 9.76-1.52 1.52-.72 2.68-1.92 4.08-2.8 1.52-1 3.04-1.96 4.44-3.04 1.96-1.52 4.76-2.4 6.32-4.36 1.84-2.32 4.08-4.4 6.08-6.4 3.96-3.96 7.64-7.44 10.4-12.4.68-1.24 1.68-2.48 2.56-3.64.96-1.24.92-2.16 1.28-3.64.56-2.6 1.28-5.48 1.44-8.16.12-2.32 2.04-4.8 2.16-7.24.08-1.2.48-3.24 1-4.36.64-1.32.64-2.92 1.36-4.16.56-5.44-.12-10.44-.12-15.76 0-1.36-.04-2.8-.44-4.08-.4-1.24 1.24-3.36 1.08-4.6-.12-1.08-1.08-2-1.08-3.24 0-1.12-.36-3.16-.92-4.16-1.4-2.52-1.4-5.56-3.28-7.96-1.6-2.08-2.32-4.12-3.4-6.32M113.362 205.836c-3.56 0-6.52 0-9.76-1.52-1.52-.72-2.68-1.92-4.08-2.8-1.52-1-3.04-1.96-4.44-3.04-1.96-1.52-4.76-2.4-6.32-4.36-1.84-2.32-4.08-4.4-6.08-6.4-3.96-3.96-7.64-7.44-10.4-12.4-.68-1.24-1.68-2.48-2.56-3.64-.96-1.24-.92-2.16-1.28-3.64-.56-2.6-1.28-5.48-1.44-8.16-.12-2.32-2.04-4.8-2.16-7.24-.08-1.2-.48-3.24-1-4.36-.64-1.32-.64-2.92-1.36-4.16-.56-5.44.12-10.44.12-15.76 0-1.36.04-2.8.44-4.08.4-1.24-1.24-3.36-1.08-4.6.12-1.08 1.08-2 1.08-3.24 0-1.12.36-3.16.92-4.16 1.4-2.52 1.4-5.56 3.28-7.96 1.6-2.08 2.32-4.12 3.4-6.32"
    stroke="#171717"
    stroke-width="1.6"
    stroke-linecap="round"
  />
  <path
    d="M329.282 99.396c-1 1-1.76 2.96-2.24 4.28-.76 1.96-3.16 3.68-4.44 5.32-1.4 1.8-2.44 3.84-4.56 4.88M54.002 99.396c1 1 1.76 2.96 2.24 4.28.76 1.96 3.16 3.68 4.44 5.32 1.4 1.8 2.44 3.84 4.56 4.88"
    stroke="#171717"
    stroke-width="1.6"
    stroke-linecap="round"
  />
  <path
    d="m236.682 92.356 5.28 4.92c.64.6.68 1.6.08 2.28l-11.16 12c-.6.64-1.6.68-2.28.08l-5.28-4.92c-.64-.6-.68-1.6-.08-2.28l11.16-12c.64-.64 1.64-.68 2.28-.08ZM157.362 263.556l3.28 6.4c.4.8.08 1.76-.72 2.16l-14.6 7.44c-.8.4-1.76.08-2.16-.72l-3.28-6.4c-.4-.8-.08-1.76.72-2.16l14.6-7.44c.8-.4 1.76-.08 2.16.72ZM114.882 308.516l-2.84 6.6c-.36.8-1.28 1.2-2.12.84l-15.08-6.48c-.8-.36-1.2-1.28-.84-2.12l2.84-6.6c.36-.8 1.28-1.2 2.12-.84l15.08 6.48c.84.36 1.2 1.32.84 2.12ZM278.322 268.476l6.12 3.8c.76.48.96 1.44.52 2.2l-8.68 13.92c-.48.76-1.44.96-2.2.52l-6.12-3.8c-.76-.48-.96-1.44-.52-2.2l8.68-13.92c.44-.76 1.44-1 2.2-.52ZM101.522 232.516l6.12 3.8c.76.48.96 1.44.52 2.2l-8.68 13.92c-.48.76-1.44.96-2.2.52l-6.12-3.8c-.76-.48-.96-1.44-.52-2.2l8.68-13.92c.44-.76 1.44-.96 2.2-.52ZM278.362 157.676l5.84-4.2c.72-.52 1.72-.36 2.24.36l9.56 13.32c.52.72.36 1.72-.36 2.24l-5.84 4.2c-.72.52-1.72.36-2.24-.36l-9.56-13.32c-.56-.72-.36-1.72.36-2.24ZM101.042 116.076l1.36 7.08c.16.88-.4 1.72-1.28 1.88l-16.12 3.12c-.88.16-1.72-.4-1.88-1.28l-1.32-7.08c-.16-.88.4-1.72 1.28-1.88l16.12-3.12c.84-.16 1.68.44 1.84 1.28ZM269.042 72.076l1.36 7.08c.16.88-.4 1.72-1.28 1.88l-16.12 3.12c-.88.16-1.72-.4-1.88-1.28l-1.32-7.08c-.16-.88.4-1.72 1.28-1.88l16.12-3.12c.84-.16 1.68.44 1.84 1.28ZM210.682 60.756l5.28 4.92c.64.6.68 1.6.08 2.28l-11.16 12c-.6.64-1.6.68-2.28.08l-5.28-4.92c-.64-.6-.68-1.6-.08-2.28l11.16-12c.64-.64 1.64-.68 2.28-.08Z"
    stroke="#171717"
    stroke-width="1.6"
  />
</svg>
