<svg width="400" height="444" viewBox="0 0 400 444" fill="none" xmlns="http://www.w3.org/2000/svg">
<path d="M234.52 400.43C233.72 400.43 232.92 400.36 232.13 400.21L214.1 396.8C207.98 395.66 203.51 390.29 203.51 384.03V320.23C197.9 321.24 192.29 321.74 186.8 321.74C183.63 321.74 180.45 321.57 177.35 321.23C175.12 320.99 172.89 320.66 170.68 320.26V373.26L178.09 374.66C181.47 375.29 184.44 377.22 186.4 380.09C188.37 382.99 189.09 386.43 188.45 389.84C187.29 395.99 181.92 400.44 175.67 400.44C174.87 400.44 174.07 400.37 173.28 400.22L155.25 396.81C149.12 395.66 144.66 390.29 144.66 384.04V311.45C134.22 306.04 124.8 298.55 117.31 289.68C100.64 269.96 92.34 243.69 92.62 211.58C85.52 206.69 79.28 200.53 74.05 193.24C60.17 173.87 54.81 148.72 58.13 118.47L50.45 107.87C48.43 105.03 47.62 101.59 48.17 98.17C48.72 94.73 50.58 91.71 53.4 89.68C55.59 88.08 58.24 87.22 61.01 87.22C64.42 87.22 67.68 88.57 70.08 90.91C72.46 88.57 75.69 87.22 79.17 87.22C81.19 87.22 83.21 87.7 85.02 88.61C88.14 90.19 90.44 92.87 91.52 96.17C92.6 99.45 92.34 102.98 90.77 106.09L84.29 118.92C82.24 135.2 83.13 149.39 86.92 161.31C87.89 156.13 89.51 151.19 91.79 146.53C97.68 134.48 106.25 128.1 110.95 125.32C111.09 124.77 111.24 124.23 111.4 123.69C110.76 119.52 109.82 109.62 112.79 98.91C111.65 98.99 110.56 99.03 109.53 99.03C96.16 99.03 91.62 92.2 90.1 88.12C87.98 82.43 88.25 73.64 101.56 64.04C109.75 58.14 120.69 53.47 128.42 50.59C138.38 46.88 148.25 44.33 156.2 43.4C158.46 43.14 160.58 43 162.52 43C175.89 43 180.43 49.85 181.95 53.93C183.71 58.67 183.81 65.62 175.88 73.43C179.93 75.5 183.14 77.73 185.3 79.41C185.32 79.41 185.35 79.41 185.37 79.41L185.78 79.35H186.6C256.53 79.35 280.6 122.47 283.56 145.28C284.04 148.99 282.9 152.73 280.43 155.53C280.36 155.61 280.29 155.69 280.22 155.76C284.97 166.91 288.52 179.13 290.62 191.54C295.13 188.78 300.36 184.52 304.99 178.07C315.36 163.6 319.04 143.7 315.92 118.92L309.43 106.09C307.87 103 307.6 99.47 308.69 96.17C309.78 92.87 312.08 90.18 315.18 88.62C316.94 87.72 318.99 87.23 321.03 87.23C324.5 87.23 327.73 88.58 330.12 90.92C332.52 88.59 335.78 87.23 339.19 87.23C341.96 87.23 344.6 88.09 346.84 89.72C349.61 91.71 351.47 94.72 352.03 98.16C352.58 101.61 351.76 105.06 349.71 107.87L342.04 118.46C345.36 148.71 340 173.86 326.12 193.23C315.4 208.18 302.54 215.67 292.81 219.4C292.62 233.69 290.32 246.51 286.26 255.74C275.8 279.61 254.71 300.48 229.56 312.01V373.26L236.97 374.66C244.01 375.99 248.66 382.8 247.33 389.84C246.17 395.98 240.8 400.43 234.56 400.43H234.52Z" fill="white"/>
<path d="M261.36 146.84C282.56 182.72 283.68 229.56 274.48 250.48C258.84 286.16 217.48 312.48 178.92 308.28C142.24 304.28 102.56 274.76 106 204.6" stroke="#171717" stroke-width="2" stroke-linecap="round"/>
<path d="M213.8 193.4C220.2 193.8 230.04 197.08 218.2 207" stroke="#171717" stroke-width="2" stroke-linecap="round" stroke-linejoin="round"/>
<path d="M259.88 146.6C261.36 150.84 262.88 155.04 265.48 158.32C268.52 162.16 270.32 168.52 272.8 173.04C275.16 177.4 278.8 182.36 278.8 187.44C278.8 190.92 280.96 194.44 280.96 197.96C280.96 201.28 280.96 204.6 280.96 207.92C280.96 215.04 280.6 223.2 277.16 229.52C275.84 231.92 276.72 237.28 276.44 240.04C276.12 243.12 273.88 246.12 273.56 248.92C272.84 255.2 266.08 263.2 263.28 268.88C257 281.64 247.84 289.2 235.76 296.04C232.64 297.8 229.56 298.12 226.52 299.68C223.76 301.08 219.52 304.04 216.72 304.36C210.32 305.12 202.12 308.92 195.84 309.32C191 309.6 186.36 312.16 181.36 309.32C176.6 306.64 166.48 305.8 161.2 305.48C150.56 304.88 141.28 295.24 133.44 288.88C129.8 285.92 125.52 275.72 123.2 271.28C120.6 266.32 118.36 261.84 114.64 257.64C105.24 247.04 106.76 232.52 106.76 218.56C106.76 214 106.36 209.2 106.76 204.6" stroke="#171717" stroke-width="2" stroke-linecap="round"/>
<path d="M213 193C214.862 193 216.729 193.074 218.514 193.68C219.272 193.938 219.888 194.536 220.508 195.018C221.234 195.583 221.634 196.477 221.983 197.308C222.467 198.463 222.74 199.469 222.74 200.737C222.74 201.761 221.849 202.837 221.11 203.488C220.129 204.351 219.081 205.349 218.355 206.438" stroke="#171717" stroke-width="2" stroke-linecap="round"/>
<path d="M128.182 107.112C128.182 103.743 127.88 100.032 129.512 96.9501C130.473 95.1341 132.135 93.807 133.651 92.479C133.986 92.1851 134.374 91.7254 134.75 91.4997C135.385 91.1189 133.549 92.368 132.985 92.8485C132.117 93.5891 131.257 94.3415 130.51 95.2041C130.435 95.2903 130.025 95.8299 130.099 95.4258C130.171 95.0252 130.58 94.575 130.824 94.285C132.234 92.6052 133.666 90.995 135.42 89.6614C138.12 87.6075 141.407 85.3609 144.939 85.2457C145.011 85.2434 146.039 85.0847 146.02 85.2457C146.002 85.3952 145.19 85.5816 145.124 85.606C144.042 86.0074 142.968 86.4482 141.918 86.927C140.285 87.6722 138.678 88.5325 137.096 89.3843C136.56 89.6728 136.019 89.9811 135.54 90.3542C135.462 90.4149 136.423 89.95 136.588 89.8739C138.881 88.8197 141.181 87.7582 143.457 86.6683C145.532 85.6744 147.663 84.3822 149.965 83.9986C151.686 83.7116 153.337 83.5688 155.082 83.5829C155.514 83.5863 155.97 83.6272 156.367 83.8138C156.77 84.0038 155.625 83.3165 155.244 83.084C154.506 82.6335 153.739 82.2766 152.916 82.0078C152.504 81.8731 151.791 81.8844 151.433 81.6291C151.203 81.4646 151.991 81.7298 152.265 81.8C153.187 82.0357 154.107 82.3081 155.018 82.5852C156.267 82.9652 157.635 83.238 158.759 83.9339C159.926 84.6563 156.225 82.875 154.925 82.4328C153.77 82.0394 152.311 82.1695 151.092 82.1695C150.616 82.1695 150.18 82.2794 149.715 82.3311C149.602 82.3438 149.45 82.3196 149.669 82.3542C150.345 82.461 151.026 82.5353 151.701 82.6452C154.578 83.1131 157.394 83.8324 160.177 84.696C161.685 85.1639 163.181 85.8724 164.727 86.2018C165.667 86.4021 166.568 86.733 167.503 86.9501C168.191 87.1098 168.875 87.2512 169.503 87.5736C170.312 87.9891 170.758 88.7311 171.313 89.4027C171.562 89.7038 171.788 89.9789 172.062 90.2526C172.154 90.3453 172.819 90.9174 172.819 91.024C172.819 91.0858 172.361 90.815 172.708 91.3612C173.02 91.8507 173.588 91.9344 174.057 92.2295C174.428 92.463 173.288 92.3115 173.124 92.3127C172.009 92.3205 170.966 92.5163 169.882 92.7469C168.346 93.0733 166.742 93.3425 165.189 93.5644C164.715 93.632 164.216 93.9071 163.761 94.0586C162.935 94.3342 162.122 94.6496 161.313 94.9732C160.78 95.1865 160.143 95.3509 159.651 95.6429C159.22 95.8983 158.806 96.1311 158.343 96.3219C157.426 96.7005 156.433 97.101 155.452 97.2827C154.621 97.4364 153.744 97.8938 152.962 98.2157C151.688 98.7404 150.391 99.1277 149.05 99.4628C147.952 99.7374 146.708 100.377 145.558 100.377" stroke="#FFD424" stroke-width="2" stroke-linecap="round"/>
<path d="M126.059 118.348C126.059 115.951 125.861 113.46 126.159 111.079C126.297 109.977 126.606 108.915 126.73 107.809C126.85 106.742 127.09 105.55 127.409 104.524C127.971 102.712 128.355 100.843 129.115 99.0971C129.476 98.2674 130.101 97.5395 130.686 96.8549C131.467 95.9413 132.144 94.9114 132.993 94.0629C133.577 93.4788 134.196 92.8824 134.656 92.192C134.716 92.1031 135.391 90.939 135.306 91.6208C135.179 92.6367 134.548 93.6676 134.157 94.5913C133.257 96.7112 132.47 98.8721 131.586 100.997C130.311 104.06 129.19 107.304 128.565 110.565C128.279 112.059 128.115 116.628 128.115 115.107C128.115 113.683 128.592 112.559 129.201 111.265C130.846 107.771 132.564 104.249 133.871 100.611C135.058 97.3039 135.98 93.7507 137.555 90.5996C137.649 90.4127 137.977 89.8897 137.82 90.0784C137.658 90.2726 137.721 90.8273 137.684 91.0638C137.513 92.1628 137.362 93.2627 137.084 94.3414C136.545 96.4354 135.979 98.5298 135.213 100.554C134.794 101.662 134.209 102.679 133.771 103.774C133.175 105.264 132.766 106.823 132.421 108.387C132.167 109.543 131.49 110.812 131.457 111.993C131.435 112.806 131.701 111.806 131.871 111.479C132.461 110.35 133.253 109.324 133.957 108.266C135.41 106.081 136.705 103.825 137.941 101.511C140.411 96.8842 142.166 92.0292 143.896 87.115C144.197 86.261 144.311 85.2454 144.311 84.3444C144.311 84.1385 144.428 83.4782 144.239 83.9088C144.024 84.4005 143.781 84.9383 143.475 85.3798C142.869 86.2548 142.522 87.4264 142.076 88.386C141.254 90.1506 140.499 91.932 139.683 93.6987C138.95 95.2874 138.177 96.8901 137.627 98.5544C137.105 100.136 136.882 101.808 136.534 103.431C136.339 104.345 136.176 105.319 136.092 106.252C136.015 107.098 136.267 106.327 136.656 105.952C138.659 104.021 140.936 102.446 142.868 100.411C143.866 99.3602 144.786 98.3559 145.31 96.9834C145.885 95.4796 146.209 93.8991 146.496 92.3205C146.914 90.0218 147.345 87.6685 147.524 85.3369C147.579 84.6242 147.601 83.6676 147.881 83.0019C148.86 80.6757 146.152 87.7446 145.282 90.1141C144.658 91.8126 143.917 93.4953 143.211 95.1626C142.297 97.3201 141.63 99.5717 140.74 101.739C140.175 103.115 139.534 104.478 139.041 105.881C139.008 105.975 138.674 107.322 138.912 107.109C139.958 106.173 141.354 105.581 142.54 104.824C144.94 103.292 147.405 101.744 149.43 99.7183C150.78 98.3693 151.867 96.7897 153.037 95.2911C153.348 94.8917 154.444 93.8342 154.108 94.2128C153.587 94.799 152.997 95.3518 152.408 95.8838C150.699 97.4289 149.272 99.2168 147.41 100.597C146.145 101.533 141.69 103.194 143.182 102.696C147.032 101.413 150.409 99.1766 153.879 97.1477C156.944 95.356 159.969 93.8227 163.462 93.056C166.288 92.4358 169.093 92.0984 171.952 91.6779C172.793 91.5542 173.738 91.4851 174.587 91.4851C175.206 91.4851 176.298 91.7103 176.879 91.4779C177.019 91.4222 176.268 90.9942 176.187 90.971C174.987 90.6282 173.829 89.6738 172.745 89.0715C170.473 87.8094 168.051 86.7888 165.59 85.951C163.037 85.0818 160.566 83.7066 157.807 83.6446C154.002 83.5591 150.208 83.121 146.396 83.5446C146.301 83.5552 145.127 83.7552 145.467 83.7731C146.966 83.852 148.2 84.1085 149.545 84.8585C150.441 85.3586 151.072 85.9188 150.787 86.9936C150.612 87.6563 150.182 88.2194 149.838 88.8002C149.174 89.9199 148.756 91.1563 148.267 92.3563C147.705 93.7322 147.022 95.1395 146.724 96.5978C146.544 97.4803 146.677 96.7236 146.824 96.2836C147.454 94.3953 148.401 92.6874 149.43 90.9924C149.54 90.8123 150.581 89.0141 150.602 89.1287C150.805 90.2462 149.959 91.7427 149.709 92.799C149.17 95.0745 148.729 97.4192 148.038 99.6541C147.804 100.411 148 99.6783 148.224 99.4541C148.732 98.9461 149.441 98.6213 150.023 98.2116C151.61 97.0941 153.063 95.7325 154.515 94.4485C155.846 93.2716 157.486 91.9478 158.506 90.464C158.842 89.9764 158.715 89.654 158.164 89.4C156.381 88.5794 154.487 88.1706 152.565 87.7862C151.819 87.6369 151.042 87.5817 150.309 87.372C149.608 87.1718 150.133 87.115 150.552 87.115C156.329 87.115 162.229 86.7687 167.961 87.372C168.039 87.3803 168.231 87.4651 168.161 87.5006C167.792 87.6848 166.599 87.2495 166.29 87.1864C161.449 86.1963 156.623 84.8294 151.737 84.1016C151.425 84.0551 150.273 84.019 151.216 84.1587C152.282 84.3168 153.292 84.6901 154.322 85.0013C157.102 85.8419 159.955 86.4575 162.776 87.1435C165.29 87.7547 167.839 88.2697 170.317 89.0144C171.161 89.268 171.952 89.6503 172.788 89.9141C173.038 89.9932 172.928 90.0657 172.716 90.0712C171.837 90.0944 170.954 90.0712 170.074 90.0712C165.885 90.0712 161.696 90.0712 157.507 90.0712C157.082 90.0712 156.343 89.9281 155.936 90.0998C155.88 90.1232 157.233 90.204 157.364 90.2069C159.741 90.2597 162.255 90.1949 164.59 90.7139C164.742 90.7477 164.296 90.8424 164.14 90.8424C161.36 90.8424 158.563 90.9196 155.793 91.1566C153.758 91.3307 151.745 91.6638 149.723 91.9421C149.402 91.9863 148.42 92.1278 149.366 92.1278C151.697 92.1278 154.022 91.7422 156.35 91.7422C158.771 91.7422 151.522 91.3626 149.109 91.1566C148.507 91.1052 147.945 90.9796 147.36 90.8496C146.989 90.7673 148.09 90.6278 148.466 90.5854C150.116 90.3997 151.773 90.3009 153.422 90.0998C154.169 90.0087 154.993 90.0438 155.721 89.8427C156.001 89.7657 155.163 89.7887 155.122 89.7856C154.013 89.7019 152.913 89.6856 151.801 89.6856C151.75 89.6856 150.857 89.6608 151.187 89.757C152.498 90.1395 153.947 90.179 155.286 90.464C156.696 90.764 158.19 91.0123 159.556 91.4851C160.883 91.9444 159.148 92.2823 158.606 92.4705C153.985 94.0762 149.422 95.8486 144.81 97.469C144.782 97.4789 143.857 97.8406 144.239 97.6547C145.01 97.2796 145.803 96.9412 146.603 96.6335C146.96 96.4961 148.245 95.6519 148.159 96.505C148.107 97.0277 147.703 97.4701 147.381 97.8546C146.661 98.7153 145.915 99.5657 145.16 100.397C144.576 101.041 144.046 101.761 143.432 102.375C143.143 102.664 143.139 102.344 143.161 102.089C143.196 101.687 143.939 101.213 143.796 101.411C143.575 101.718 143.173 101.844 142.868 102.053C142.193 102.518 141.517 102.967 140.912 103.524C138.699 105.562 136.83 107.931 134.628 109.98C133.906 110.651 133.285 111.537 132.486 112.115C131.574 112.773 131.638 111.726 131.772 110.936C132.026 109.438 132.752 108.016 133.385 106.652C134.231 104.831 135.126 103.033 136.027 101.239C136.859 99.5858 137.738 98.0648 138.791 96.5478C139.716 95.2147 140.625 93.85 141.469 92.4634C141.685 92.1077 141.74 91.8609 141.74 91.4565C141.74 90.8995 141.74 90.3426 141.74 89.7856C141.74 89.1723 141.299 89.2684 140.776 89.3072C139.542 89.3986 138.441 90.3928 137.498 91.0995" stroke="#FFD424" stroke-width="2" stroke-linecap="round"/>
<path d="M135.96 70.7602L141.32 83.1202" stroke="#171717" stroke-width="2" stroke-linecap="round" stroke-linejoin="round"/>
<path d="M124.68 123.32C122.48 112.68 123.24 91.0803 141.32 83.1603C158.6 75.6003 175.52 86.8803 181 92.8403" stroke="#171717" stroke-width="2" stroke-linecap="round" stroke-linejoin="round"/>
<path d="M139.231 79.2426C157.865 72.3057 171.595 62.9898 169.9 58.4349C168.204 53.88 151.724 55.811 133.09 62.7479C114.457 69.6848 100.726 79.0008 102.421 83.5557C104.117 88.1106 120.597 86.1795 139.231 79.2426Z" stroke="#171717" stroke-width="2"/>
<path d="M179.48 92.6003C178.76 92.0003 177.44 91.9603 176.84 91.2403C175.92 90.1603 174.68 89.1203 173.56 88.2403C172.24 87.2803 170.84 86.3203 169.6 85.4003C166.84 83.3603 162.92 83.8803 159.8 82.6803C158.88 82.3203 157.92 82.0803 157.04 81.6403C156.36 81.3203 155.52 80.7203 154.76 80.6803C153.92 80.6403 153.16 80.5203 152.28 80.5603C150.92 80.6003 150.16 81.4003 148.92 81.8403C145.32 83.0803 142.16 85.4403 138.64 86.6003C137 87.1603 135.48 88.4803 133.92 89.3203C132.36 90.2003 130.96 91.5603 129.96 92.9603C127.76 96.0803 126.84 99.8803 125.56 103.4C124.44 106.48 125.2 110.36 125.36 113.64C125.52 117.04 125.16 120.24 125.32 123.64" stroke="#171717" stroke-width="2" stroke-linecap="round"/>
<path d="M136.36 70.4404C136.4 71.6004 136.2 73.1604 136.72 74.2004C137.16 75.0804 137.52 75.8404 138 76.7204C139.12 78.7604 140.8 80.4804 140.92 82.9604" stroke="#171717" stroke-width="2" stroke-linecap="round"/>
<path d="M140.912 77.8998C136.52 78.1207 132.626 79.4461 128.441 80.5065C125.748 81.1692 123.593 82.4946 120.693 82.6271C119.408 82.6713 118.041 83.1573 116.757 83.2456C115.265 83.3782 113.856 83.2898 112.448 83.6433C110.252 84.1734 107.434 83.9083 105.155 83.9967C104.368 84.0409 103.042 83.6433 103.001 82.7596C102.96 81.3459 104.12 80.4181 104.948 79.2252C106.067 77.5906 107.766 76.4419 109.216 74.9839C110.417 73.7911 111.412 73.3934 112.986 72.6424C114.644 71.8471 116.508 71.4495 118.207 70.7868C120.071 70.0357 121.977 69.2405 123.925 68.7103C124.67 68.4894 125.623 67.9151 126.286 67.4733C127.198 66.899 128.234 66.6781 129.228 66.2363C130.637 65.5735 132.294 64.955 133.786 64.469C135.692 63.8947 137.805 62.7902 139.545 61.9066C141.202 61.0672 142.818 60.7579 144.558 60.1836C147.086 59.3441 149.53 58.1071 152.265 57.8862C156.988 57.4886 161.877 56.9584 166.684 57.0026C167.264 57.0026 168.548 57.6653 169.045 58.0187C169.957 58.6373 169.957 59.4325 169.998 60.4045C170.04 61.6857 169.253 62.0833 168.548 63.0111C167.802 63.9831 166.932 65.1759 165.896 65.8828C162.126 68.4894 157.9 69.859 153.591 71.5379C147.79 73.8352 142.86 77.5022 136.893 79.6229" stroke="#171717" stroke-width="2" stroke-linecap="round"/>
<path d="M107.572 201.556C106.848 199.926 106.246 198.208 105.505 196.564C105.017 195.478 102.983 192.594 103.874 193.385C105.37 194.715 106.703 196.202 108.334 197.41C108.691 197.674 111.712 200.193 110.389 198.703C107.482 195.433 106.232 191.26 104.309 187.414C103.103 185.002 101.524 182.975 100.501 180.476C99.8512 178.887 100.308 179.911 100.876 180.67C102.808 183.246 105.333 185.335 107.089 188.067C108.332 190.001 109.582 192.563 111.271 194.158C111.642 194.509 111.759 194.252 111.658 193.844C111.295 192.396 110.211 191.558 109.446 190.339C107.619 187.43 106.47 183.754 105.518 180.464C105.008 178.704 104 177.204 103.39 175.496C103.267 175.15 102.762 174.167 102.907 174.505C103.266 175.343 103.594 176.038 104.14 176.802C107.194 181.077 110.425 185.41 113.882 189.36C114.385 189.935 115.075 190.601 115.67 191.064C115.898 191.241 115.021 189.421 114.921 189.275C113.419 187.084 112.324 184.833 111.271 182.398C109.696 178.756 108.44 175.057 106.484 171.58C105.527 169.878 104.907 168.001 103.874 166.359C103.704 166.089 102.723 164.203 103.354 165.464C105.214 169.184 109.182 171.613 111.887 174.674C113.437 176.428 114.706 178.368 116.106 180.234C116.857 181.237 117.746 182.361 118.185 183.546C118.442 184.242 118.766 184.976 119.224 185.565C120.186 186.801 117.69 184.934 117.363 184.537C115.639 182.451 113.853 180.233 112.588 177.829C110.889 174.599 110.21 170.732 109.434 167.205C109.132 165.832 108.635 164.527 108.334 163.156C108.052 161.873 107.817 160.559 107.185 159.397C106.815 158.714 106.741 157.584 106.219 157.003C104.765 155.388 104.827 158.066 105.179 159.034C105.444 159.764 105.524 160.567 105.723 161.318C106.117 162.809 106.781 164.208 107.137 165.706C107.341 166.565 107.551 167.279 107.959 168.051C108.02 168.165 107.292 166.936 107.137 166.637C105.488 163.457 105.968 158.541 106.968 155.166C107.283 154.103 107.355 153.171 107.355 152.072C107.355 151.716 107.299 151.436 107.463 151.963C107.829 153.132 108.105 154.165 108.708 155.263C110.296 158.15 112.404 160.634 114.208 163.373C115.797 165.786 118.02 167.684 119.538 170.13C120.696 171.995 122.057 173.732 123.189 175.617C123.8 176.636 124.135 177.893 124.856 178.82C125.248 179.323 125.115 180.109 125.364 180.67C125.447 180.856 125.493 181.454 125.388 181.636C124.916 182.463 122.379 179.64 122.149 179.364C117.885 174.236 112.695 169.841 110.074 163.591C109.699 162.696 109.35 161.799 108.999 160.895C108.673 160.058 109.152 161.943 109.264 162.177C110.972 165.718 112.792 169.26 114.921 172.571C116.492 175.015 118.434 177.011 120.191 179.255C120.597 179.774 121.797 181.105 122.584 181.105C123.265 181.105 124.87 178.771 125.412 178.288C126.158 177.625 127.258 176.912 128.132 176.427C128.534 176.204 128.693 176.368 128.325 175.859C127.353 174.513 126.036 173.434 125.195 171.991C122.027 166.554 120.491 160.403 118.281 154.562C117.458 152.387 116.42 150.258 115.405 148.156C114.853 147.014 114.321 145.881 113.543 144.88C113.122 144.339 112.623 143.851 112.31 144.554C111.872 145.54 111.257 146.091 110.509 146.838C110.325 147.023 108.94 148.63 109.144 148.857C109.271 148.998 109.633 149.047 109.796 149.123C110.755 149.57 111.36 150.555 111.972 151.371C114.345 154.535 116.697 157.665 118.837 160.992C119.808 162.501 120.934 163.962 121.666 165.609C121.809 165.931 122.632 167.1 121.907 166.939C120.469 166.619 119.365 164.55 118.668 163.434C117.134 160.975 115.881 158.336 114.317 155.904C113.352 154.403 112.418 152.675 111.223 151.347C111.037 151.141 110.982 150.841 111.065 150.549C111.202 150.071 112.492 151.006 112.625 151.081C113.185 151.397 117.145 153.583 117.145 152.906C117.145 151.938 116.491 151.234 116.057 150.416C115.429 149.229 115.021 147.935 114.8 146.609C114.559 145.159 114.534 140.74 114.534 142.209C114.534 143.818 114.805 145.184 114.486 146.778C114.229 148.063 114.589 151.986 114.305 150.706C113.869 148.745 112.893 146.932 112.407 144.989C112.148 143.955 113.252 144.203 113.882 143.853C114.742 143.375 114.847 141.904 115.078 141.073C115.254 140.439 115.174 139.127 115.67 140.469C115.94 141.196 116.488 141.878 117.073 142.378C118.671 143.749 120.437 144.946 122.052 146.307C125.573 149.272 128.873 152.818 131.492 156.617C133.243 159.155 134.987 161.684 135.807 164.691C135.985 165.344 136.477 166.548 135.275 165.513C133.101 163.638 131.316 161.379 129.546 159.131C127.508 156.543 125.148 154.242 123.14 151.637C121.723 149.798 120.513 147.922 118.886 146.294C118.39 145.799 116.986 143.838 117.822 145.569C119.525 149.097 120.772 152.814 122.536 156.302C124.124 159.445 126.144 162.171 127.927 165.174C128.674 166.433 129.18 167.875 130.078 169.03C130.334 169.358 130.588 169.912 129.933 169.525C128.626 168.753 127.683 167.573 126.5 166.649C125.41 165.797 122.556 162.821 123.334 163.965C124.507 165.692 125.996 167.301 127.322 168.921C128.252 170.058 129.326 171.741 129.764 173.164C129.807 173.303 130.392 174.283 130.392 173.877C130.392 172.509 129.273 171.122 128.628 170.009C126.806 166.866 125.994 163.292 124.24 160.134C123.579 158.943 126.385 161.813 127.479 162.624C128.964 163.724 130.414 164.785 131.722 166.093C131.91 166.281 133.434 167.889 133.148 167.301C132.133 165.215 130.688 163.247 129.498 161.258C127.483 157.89 125.689 154.502 124.131 150.9C122.953 148.176 122.174 145.322 120.952 142.608C120.522 141.652 120.082 140.694 119.707 139.719C119.613 139.472 119.165 139.007 119.2 138.728C119.205 138.687 120.268 139.525 120.336 139.574C125.896 143.577 131.371 147.508 135.203 153.256C136.897 155.798 138.264 158.548 139.989 161.04C140.983 162.475 139.882 161.794 138.986 161.065C136.495 159.035 133.669 156.44 131.951 153.692C130.407 151.22 129.247 148.551 127.806 146.029C127.012 144.639 125.953 143.091 125.412 141.605C125.12 140.799 124.683 140.059 124.373 139.284C123.767 137.768 124.575 138.846 125.509 139.55C129.713 142.717 134.3 145.419 138.66 148.361C140.573 149.653 141.931 151.477 143.579 153.039C143.897 153.34 145.75 155.607 144.558 154.344C143.248 152.957 142.586 151.08 141.464 149.558C139.896 147.43 138.463 145.029 136.726 143.043C136.052 142.273 135.293 141.322 134.816 140.42C134.544 139.907 133.377 139.682 132.918 139.224C132.19 138.496 131.027 136.126 129.5 134.5C127.153 132 126.249 127.296 124.663 128C124.268 128.176 124.072 134.983 124.663 135.743C125.319 136.586 126.395 137.258 127.153 138.027C128.629 139.523 129.856 141.251 131.263 142.813C134.694 146.626 137.645 150.821 139.663 155.529C140.422 157.299 141.035 159.02 143.035 159.131C143.482 159.156 143.616 159.275 143.374 158.599C142.908 157.299 141.788 155.993 140.968 154.888C140.228 153.89 139.744 152.732 139.216 151.613C138.816 150.767 139.672 151.611 139.868 151.842C140.705 152.831 141.435 153.51 142.6 154.127C143.126 154.405 144.833 155.982 144.123 154.562" stroke="#171717" stroke-width="4" stroke-linecap="round"/>
<path d="M148.384 153.201C148.384 151.592 147.857 150.292 147.259 148.809C146.331 146.51 145.451 144.242 144.242 142.068C142.394 138.741 139.995 135.677 138.252 132.324C136.538 129.028 134.603 125.696 132.248 122.817C127.857 117.451 138.409 135.245 141.755 141.317C142.672 142.982 143.698 144.67 144.479 146.404C145.027 147.623 144.32 146.915 143.728 146.279C141.41 143.789 139.806 140.719 137.863 137.953C136.085 135.424 133.941 133.131 132.248 130.559C131.459 129.362 130.747 128.099 129.926 126.931C129.526 126.362 129.224 125.377 128.62 124.986C128.34 124.805 127.352 123.679 127.619 123.679C128.759 123.679 129.629 124.503 130.872 124.43C131.453 124.395 130.872 121.918 130.872 121.427C130.872 120.992 130.463 118.977 130.872 118.925C131.422 118.857 132.422 117.159 132.678 116.674C133.903 114.361 133.671 116.793 134.18 117.98C135.385 120.793 137.557 123.257 139.128 125.875C140.834 128.718 142.803 131.372 144.632 134.131C145.55 135.517 146.241 137.038 147.133 138.44C147.553 139.099 148.168 139.935 148.384 140.691C148.673 141.7 149.94 143.787 150.761 144.444C150.991 144.628 153.454 147.701 153.499 147.641C153.939 147.055 149.522 141.62 149.135 141.025C146.68 137.252 144.814 133.026 142.894 128.961C141.208 125.39 139.938 121.542 138.127 118.05C137.269 116.396 136.79 114.348 136.389 112.546C136.264 111.981 136.813 113.32 137.029 113.574C139.274 116.21 141.633 118.788 143.784 121.497C146.709 125.18 149.43 129.031 152.387 132.686C153.65 134.246 154.654 135.892 155.529 137.689C156.225 139.121 156.754 140.53 157.641 141.887C158.209 142.756 158.861 143.546 159.337 144.444C159.611 144.962 159.581 145.051 158.976 144.583C157.345 143.323 156.272 142.138 155.084 140.441C151.815 135.772 148.794 131.128 147.133 125.625C146.077 122.123 145.454 118.347 144.937 114.728C144.596 112.336 142.88 107.778 142.88 107.778C142.88 107.778 143.314 109.012 143.645 109.571C145.036 111.918 146.866 113.927 148.537 116.076C150.714 118.875 152.904 121.585 154.875 124.541C156.204 126.533 157.231 128.671 158.517 130.684C161.08 134.695 163.047 139.219 165.397 143.332C165.812 144.058 166.508 144.624 166.898 145.306C167.4 146.184 166.154 144.347 166.008 144.166C163.726 141.333 161.45 138.159 159.796 134.923C157.945 131.304 156.449 127.495 154.75 123.804C153.558 121.215 152.229 118.691 151.15 116.048C149.876 112.927 149.396 109.238 147.759 106.291C147.523 105.866 147.199 105.677 147.634 106.166C148.302 106.918 148.681 108.054 149.246 108.89C151.841 112.73 155.035 116.177 157.836 119.871C159.924 122.625 161.625 125.61 163.395 128.571C165.543 132.164 167.87 135.817 169.594 139.635C170.225 141.032 171.173 143.24 172.207 144.389C172.391 144.593 172.847 145.278 172.652 145.084C171.547 143.978 170.658 141.852 169.789 140.525C165.707 134.287 162.336 127.544 159.448 120.677C157.835 116.842 156.749 112.777 154.945 109.029C154.203 107.488 153.338 106.038 152.582 104.526C152.235 103.831 153.041 105.041 153.166 105.193C154.862 107.266 156.999 109.026 158.892 110.92C163.907 115.934 167.533 121.7 170.776 127.946C172.582 131.424 173.926 135.113 175.529 138.676C176.116 139.981 177.334 141.433 177.642 142.818C177.821 143.624 177.263 142.826 176.905 142.429C175.262 140.603 173.896 138.292 172.402 136.327C169.081 131.96 166.063 127.499 163.646 122.553C162.976 121.183 162.267 119.768 161.519 118.439C161.24 117.942 160.685 116.962 161.408 118.092C165.102 123.864 168.765 129.641 172.013 135.688C173.394 138.26 174.881 140.82 176.155 143.444C176.54 144.237 177.815 146.517 176.155 144.945C174.488 143.365 171.973 142.822 170.206 141.331C166.138 137.899 162.799 134.104 159.893 129.683C158.137 127.013 155.884 124.936 153.944 122.428C152.527 120.597 151.14 118.74 149.635 116.98C148.352 115.478 147.134 113.929 145.827 112.476C145.239 111.823 144.97 111.25 144.576 110.419C144.278 109.789 144.154 107.929 143.631 107.667" stroke="#171717" stroke-width="4" stroke-linecap="round"/>
<path d="M187.608 143.555C186.239 139.876 184.803 136.228 183.299 132.603C181.552 128.393 180.073 123.57 177.656 119.676C175.481 116.172 172.732 112.738 171.151 108.918C170.066 106.296 168.671 103.687 166.648 101.663C166.34 101.356 165.103 99.2725 164.702 99.2725C164.156 99.2725 165.996 102.852 166.05 102.956C168.422 107.524 170.253 112.361 172.207 117.119C175.264 124.56 178.891 131.693 182.354 138.941C183.014 140.322 183.787 141.937 184.161 143.43C184.464 144.645 184.913 144.962 183.605 143.472C175.436 134.166 171.444 122.172 164.646 111.976C162.97 109.462 161.314 107.108 159.893 104.415C159.488 103.647 157.726 101.397 159.198 103.414C161.493 106.56 163.787 109.729 166.022 112.921C168.121 115.92 169.877 119.16 172.096 122.067C173.202 123.516 170.949 120.313 170.762 120.01C169.245 117.552 167.883 115.003 166.592 112.421C165.421 110.079 164.325 107.589 163.59 105.11C163.452 104.645 162.322 101.869 161.7 102.024C161.455 102.086 164.683 107.04 164.813 107.209C167.841 111.14 170.838 115.078 173.903 118.981C175.754 121.339 177.343 123.901 179.157 126.292C180.104 127.541 180.956 128.779 181.659 130.184" stroke="#171717" stroke-width="4" stroke-linecap="round"/>
<path d="M255.713 118.675C255.713 121.2 256.722 123.396 257.715 125.68C259.017 128.676 260.321 131.652 261.662 134.631C263.083 137.789 264.391 140.899 266.096 143.93C266.399 144.469 266.665 145.02 266.972 145.556C267.694 146.821 264.693 143.72 263.719 142.637C259.176 137.583 255.119 131.345 252.225 125.194C250.617 121.778 249.073 118.347 247.457 114.936C246.789 113.525 244.175 109.622 244.955 110.975C245.782 112.409 246.208 114.298 246.818 115.84C248.344 119.699 249.912 123.546 251.335 127.445C253.194 132.54 255.448 137.496 257.909 142.331C258.503 143.498 258.828 143.389 259.5 144.5C259.718 144.861 260.595 145.69 260.195 145.556C258.681 145.052 257.926 144.488 256.964 143.332C254 139.768 251.447 135.874 249.222 131.81C246.332 126.528 243.701 121.059 241.008 115.673C240.123 113.903 239.382 112.08 238.701 110.224C238.126 108.661 237.177 107.094 236.699 105.54C236.594 105.197 235.728 104.239 236.088 104.804C236.577 105.573 236.913 106.291 237.2 107.167C238.934 112.465 240.676 117.767 242.467 123.053C244.083 127.82 246.224 132.399 247.902 137.133C248.744 139.509 250.197 141.54 251.21 143.819C251.405 144.258 251.759 144.615 251.961 145.069C252.652 146.625 250.816 143.627 250.557 143.276C247.924 139.708 245.333 136.185 243.204 132.282C240.726 127.738 238.87 122.821 236.699 118.119C235.795 116.159 234.891 114.193 234.003 112.226C233.325 110.726 232.345 109.406 231.849 107.806C231.381 106.3 230.445 104.002 230.445 102.413C230.445 102.224 230.818 103.158 230.889 103.414C231.222 104.611 231.607 105.788 232.001 106.972C233.916 112.716 235.382 118.563 237.214 124.332C238.649 128.855 239.725 133.887 241.759 138.189C242.569 139.904 243.442 141.657 244.08 143.443C244.234 143.876 245.342 145.659 244.677 145.042C242.908 143.398 241.498 141.2 240.216 139.176C237.404 134.736 235.071 130 232.752 125.291C229.896 119.491 227.53 113.209 225.191 107.194C224.193 104.629 223.462 102.066 222.745 99.4109C222.554 98.7071 222.289 98.0727 221.994 97.4094C221.627 96.5844 222.367 97.8369 222.439 98.16C222.655 99.131 223.456 100.08 223.954 100.926C225.381 103.351 226.86 105.741 228.193 108.223C229.69 111.01 231.043 113.842 232.446 116.674C233.634 119.071 235.029 121.479 235.824 124.04C236.198 125.246 236.701 126.427 236.949 127.668C237.007 127.954 237.2 129.104 237.2 128.933" stroke="#171717" stroke-width="4" stroke-linecap="round"/>
<path d="M240.452 145.445C240.415 145.115 240.191 144.808 240.049 144.514C239.226 142.805 238.381 141.104 237.547 139.399C235.501 135.215 233.587 130.963 231.251 126.932C228.147 121.576 225.016 116.225 221.813 110.934C219.454 107.036 216.771 103.172 214.933 99.036C214.838 98.8226 214.331 97.5294 214.488 97.9658C215.302 100.227 217.721 102.059 219.172 103.901C221.011 106.234 222.764 108.612 224.44 111.059C224.714 111.458 226.089 113.4 225.441 111.865C225.078 111.005 224.507 110.379 223.954 109.641C223.088 108.486 222.528 107.053 221.827 105.791C220.956 104.223 220.446 102.498 219.562 100.926C219.135 100.167 218.303 99.6465 217.935 98.9109" stroke="#171717" stroke-width="4" stroke-linecap="round"/>
<path d="M206.927 96.6588C207.06 98.1183 207.851 99.4828 208.484 100.773C209.566 102.98 210.6 105.209 211.681 107.417C213.006 110.124 214.23 112.993 215.378 115.784C217.909 121.939 219.977 128.276 222.925 134.27C224.621 137.717 225.694 141.447 227.567 144.819C228.315 146.165 226.951 143.783 226.789 143.513C222.738 136.76 220.435 129.048 217.491 121.788C215.604 117.137 212.796 111.732 212.681 106.583C212.666 105.88 213.19 107.363 213.237 107.472C213.928 109.05 214.819 110.524 215.739 111.976C220.79 119.942 225.245 128.262 229.458 136.688C229.98 137.733 230.64 138.705 231.056 139.802C231.168 140.097 231.378 141.178 231.793 141.261C232.755 141.454 230.667 139.652 230.055 138.884C228.668 137.142 227.418 135.203 226.317 133.269C225.124 131.176 224.125 128.993 223.217 126.764C223.145 126.588 222.444 124.963 222.592 125.11C223.164 125.682 223.548 126.506 223.954 127.195C224.786 128.611 225.859 129.854 226.886 131.129C230.046 135.048 232.1 139.951 235.448 143.693C235.545 143.801 235.872 144.293 235.587 143.888C234.872 142.872 233.943 142.017 233.197 141.025C229.739 136.427 227.856 130.852 225.427 125.708C222.816 120.18 220.36 114.578 218.06 108.918C217.306 107.061 216.06 105.368 215.183 103.553C214.448 102.029 213.568 100.575 212.737 99.1051C212.579 98.8259 210.727 93.7212 210.485 93.9624C210.019 94.4292 211.069 97.1909 211.18 97.7151C211.949 101.33 212.193 104.665 213.571 108.181C217.009 116.955 223.214 124.224 227.679 132.449C229.87 136.486 231.93 141.013 233.197 145.445" stroke="#171717" stroke-width="4" stroke-linecap="round"/>
<path d="M224.19 145.195C223.969 142.539 222.02 139.817 220.563 137.69C217.904 133.81 215.799 129.444 213.432 125.375C209.561 118.718 205.49 112.21 201.813 105.444C200.316 102.689 199.196 99.7371 197.796 96.9375C197.321 95.9885 196.735 95.1023 196.364 94.1021C196.259 93.8181 195.919 93.007 195.919 93.3098C195.919 94.1739 196.992 95.1081 197.476 95.7144C200.831 99.9185 204.435 104.128 207.442 108.585C211.324 114.339 214.623 120.527 218.13 126.515C219.073 128.124 220.132 129.66 221.077 131.268C221.861 132.603 221.194 131.508 220.66 130.907C216.689 126.439 214.644 120.91 212.084 115.604C209.551 110.352 206.205 104.916 204.926 99.1613C204.738 98.315 203.394 95.7686 202.674 95.4086" stroke="#171717" stroke-width="4" stroke-linecap="round"/>
<path d="M191.654 145.533C191.605 145.014 191.398 144.541 191.22 144.054C190.555 142.234 189.946 140.397 189.356 138.551C188.595 136.167 187.947 133.716 187.078 131.371C185.751 127.79 184.381 124.211 182.699 120.779C180.377 116.043 177.749 111.459 175.756 106.568C175.202 105.208 174.352 104.038 173.813 102.662C173.358 101.499 173.184 100.221 172.876 99.0232C172.675 98.2384 172.607 97.1544 172.216 96.4491C172.038 96.1296 172.01 96.0149 172.206 96.4787C172.849 98.0023 174.062 99.5251 175.046 100.838C180.978 108.748 186.337 117.278 190.954 126.026C192.957 129.821 194.863 133.641 196.802 137.466C197.714 139.266 198.997 140.908 199.889 142.693C199.966 142.846 200.718 144.533 200.954 144.439C201.029 144.409 198.695 140.859 198.577 140.661C196.686 137.498 195.071 134.099 193.429 130.799C190.781 125.479 188.796 119.875 186.328 114.477C184.989 111.547 184.082 108.476 182.64 105.591C181.083 102.477 179.764 99.4237 178.606 96.1829C178.494 95.8684 178.501 95.522 178.518 96.0842C178.558 97.4876 180.097 98.9296 180.904 99.9502C184.651 104.686 188.151 109.549 191.555 114.536C193.775 117.789 195.735 121.255 197.69 124.675C199.864 128.481 201.767 132.483 204.041 136.223C205.327 138.338 206.469 140.552 207.542 142.782C207.825 143.37 208.065 144.167 208.518 144.646C209.159 145.322 208.673 144.28 208.479 143.995C206.797 141.528 205.797 138.677 204.613 135.957C202.837 131.88 201.153 127.783 199.642 123.6C197.477 117.604 195.592 111.51 192.995 105.69C192.269 104.063 191.39 102.508 190.766 100.838C190.293 99.5702 189.883 98.1933 189.307 96.9718C188.995 96.3111 188.452 95.3978 188.291 94.674C188.168 94.1188 188.199 94.52 188.36 94.8416C189.059 96.2387 189.991 97.4556 190.954 98.678C194.662 103.384 198.391 108.249 201.24 113.54C204.078 118.811 206.868 124.039 209.228 129.547C210.666 132.901 212.212 136.235 213.844 139.498C214.36 140.53 214.843 141.59 215.432 142.584C215.546 142.777 216.09 143.609 215.974 143.541C215.112 143.034 214.581 141.669 214.081 140.878C212.466 138.325 210.741 135.846 209.14 133.284C207.974 131.419 206.748 129.561 205.816 127.564C204.715 125.205 203.916 122.722 202.798 120.365C201.819 118.299 200.738 116.233 199.652 114.221C199.238 113.454 198.915 112.665 198.538 111.883C198.431 111.661 198.222 110.966 198.222 111.213C198.222 113.709 199.518 115.658 200.619 117.86C203.326 123.275 206.463 128.549 209.011 134.034C210.091 136.357 210.975 138.777 212.069 141.085C212.414 141.814 213.651 144.646 214.732 144.646C215.124 144.646 215.681 144.311 216.063 144.212C216.866 144.003 217.775 144.113 218.597 144.113C219.193 144.113 219.747 144.084 220.314 144.291C220.597 144.394 221.057 144.641 220.669 144.182C218.527 141.651 217.232 138.34 215.757 135.415C213.781 131.493 211.107 127.987 209.14 124.053C207.624 121.022 206.387 117.87 204.593 114.98C202.66 111.866 201.31 108.428 199.287 105.374C197.187 102.205 195.762 98.7243 193.607 95.6109C192.231 93.6233 189.679 94.6321 187.571 94.3978C186.83 94.3155 185.83 94.23 185.125 94.0132C184.611 93.8549 184.775 94.0231 184.997 94.4175C185.631 95.5443 186.151 96.5656 186.605 97.8003C188.238 102.245 189.903 106.661 191.565 111.094C193.466 116.164 194.744 121.358 196.269 126.539C198.052 132.592 199.643 138.832 202.66 144.389C203.41 145.77 202.167 144.862 201.556 144.251C198.555 141.25 195.444 138.547 193.686 134.606C192.036 130.909 190.127 127.264 188.143 123.738C187.801 123.13 187.307 122.501 187.048 121.854C186.888 121.453 187.325 122.674 187.482 123.077C188.719 126.238 189.878 129.49 190.845 132.742C191.646 135.431 192.207 138.267 193.252 140.878C193.834 142.333 194.163 143.806 194.849 145.178" stroke="#171717" stroke-width="4" stroke-linecap="round"/>
<path d="M270.8 146.92H156.6L106.8 204.92C86.4001 160.52 111.2 137.04 122.8 134.32C124.56 104.08 166.2 93.7203 186.8 92.3203C248.4 92.3203 268.44 128.72 270.8 146.92Z" stroke="#171717" stroke-width="2" stroke-linejoin="round"/>
<path d="M123.04 135.6C115.44 135.6 105.72 144.16 104.84 152.04C104.56 154.4 102.48 156.08 102.48 158.8C102.48 161.12 100.72 163.48 100.72 165.84C100.72 170.92 99.5601 175.6 99.5601 180.52C99.5601 182.76 99.5601 185 99.5601 187.28C99.5601 190.12 100.64 192 100.72 194.76C100.8 196.92 104.96 205.76 108.04 203.36C112.04 200.24 114.72 194.52 117 190.2C117.96 188.4 120.08 186.08 121.84 185.04C123.64 184 127.08 181.48 128.16 179.64C130.52 175.64 133.4 171.6 136.8 168.2C140.56 164.44 143.48 160.48 146.92 156.64C150.48 152.68 151.32 150.32 156.72 149.12C158.68 148.68 160.64 147.4 162.6 147.4C165.32 147.4 168.08 147.4 170.8 147.4C189.52 147.4 208.32 145.64 227.12 145.64C229.36 145.64 231.6 145.64 233.88 145.64C236.32 145.64 238.56 146.68 240.92 146.8C246.64 147.12 246.74 146.8 252.5 146.8C254.18 146.8 259.46 146.44 260.5 146.8C262.32 146.8 264.2 146.8 265.72 146.8C267.64 146.8 268.52 147.2 268.52 145.04C268.52 143.56 266.64 140.08 265.72 139.04C264.16 137.32 263.24 134.2 262.2 132.12C260.12 127.96 259.36 122.64 256.48 118.92C254.08 115.84 250.24 112.28 246.84 110.28C242.8 107.88 238.8 104.64 234.28 103.32C232.4 102.8 230.2 101.12 228.4 100.12C226.56 99.0802 223.92 96.8002 221.96 96.3202C220.88 96.0802 217.76 94.8402 216.84 94.0802C215.68 93.1602 210.8 93.3602 209.36 93.3602C203.8 93.3602 198.72 92.2002 193.28 92.2002C186.88 92.2002 181.12 94.3202 174.88 94.5602C170.2 94.7202 163.68 96.8002 160.08 99.8402C158.24 101.4 156.04 101.84 153.92 102.76C150.92 104.08 149.8 105.12 146.28 105.12C142.8 105.12 135.88 109.08 133.68 111.88C131.56 114.52 117.72 132.64 122.52 135.04" stroke="#171717" stroke-width="2" stroke-linecap="round"/>
<path d="M204.36 181C204.28 178.08 202.44 172.2 195.56 172.2C188.68 172.2 186.96 177.52 186.96 180.2" stroke="#171717" stroke-width="2" stroke-linecap="round" stroke-linejoin="round"/>
<path d="M253.96 179.8C253.88 176.88 252.04 171 245.16 171C238.28 171 236.56 176.32 236.56 179" stroke="#171717" stroke-width="2" stroke-linecap="round" stroke-linejoin="round"/>
<path d="M194.6 200.6C208.076 200.6 219 189.676 219 176.2C219 162.724 208.076 151.8 194.6 151.8C181.124 151.8 170.2 162.724 170.2 176.2C170.2 189.676 181.124 200.6 194.6 200.6Z" stroke="#171717" stroke-width="2" stroke-linecap="round" stroke-linejoin="round"/>
<path d="M243.4 200.6C256.876 200.6 267.8 189.676 267.8 176.2C267.8 162.724 256.876 151.8 243.4 151.8C229.924 151.8 219 162.724 219 176.2C219 189.676 229.924 200.6 243.4 200.6Z" stroke="#171717" stroke-width="2" stroke-linecap="round" stroke-linejoin="round"/>
<path d="M170 176.2H133" stroke="#171717" stroke-width="2" stroke-linecap="round" stroke-linejoin="round"/>
<path d="M274.6 176.2H267.8" stroke="#171717" stroke-width="2" stroke-linecap="round" stroke-linejoin="round"/>
<path d="M131.881 176.949C136.192 176.949 140.845 177.377 145.023 176.081C146.639 175.579 148.494 175.379 150.17 175.146C151.506 174.961 152.828 174.812 154.175 174.812C156.591 174.812 158.969 175.213 161.399 175.213C164.157 175.213 166.906 175.48 169.661 175.48" stroke="#171717" stroke-width="2" stroke-linecap="round"/>
<path d="M268.347 175.405C268.987 175.405 269.658 175.344 270.293 175.416C270.779 175.472 271.19 175.717 271.625 175.917C271.872 176.03 272.131 176.163 272.394 176.236C272.594 176.292 272.798 176.481 273.009 176.481" stroke="#171717" stroke-width="2" stroke-linecap="round"/>
<path d="M187.478 180.769C187.478 180.016 187.744 179.247 187.946 178.523C188.119 177.901 188.373 177.242 188.631 176.65C188.841 176.168 189.175 175.808 189.446 175.366C189.962 174.525 190.624 174.115 191.363 173.511C191.911 173.062 192.418 172.405 193.115 172.184C193.846 171.952 194.62 172.028 195.378 172.028C197.987 172.028 199.781 173.779 201.449 175.54C202.387 176.53 203.358 177.648 204.163 178.757C204.571 179.32 204.883 179.728 204.883 180.457" stroke="#171717" stroke-width="2" stroke-linecap="round"/>
<path d="M235.665 179.117C235.665 178.039 235.614 176.224 236.399 175.351C236.707 175.009 237.059 174.766 237.274 174.335C237.564 173.756 237.836 172.999 238.478 172.679C238.933 172.451 239.536 172.669 239.954 172.437C240.385 172.197 240.863 171.853 241.322 171.694C242.378 171.329 243.318 171.101 244.447 171.101C245.736 171.101 247.025 171.101 248.314 171.101C249.857 171.101 250.681 172.117 251.76 172.999C252.192 173.352 252.495 174.112 252.823 174.585C253.271 175.232 253.514 175.967 253.885 176.656C254.186 177.215 254.651 177.933 254.651 178.586C254.651 178.818 254.655 180.093 254.792 179.82" stroke="#171717" stroke-width="2" stroke-linecap="round"/>
<path d="M188.12 153.12C186.4 153.12 184.64 154.04 183.12 154.92C181.56 155.8 180.4 156.96 179.24 158.32C178.28 159.44 177 160.84 176.32 162.08C175.8 163 175.12 163.76 174.64 164.68C174.28 165.36 174.28 166.16 173.92 166.84C173.28 168.08 173.2 170.4 172.92 171.76C172.6 173.36 172.6 175.04 172.6 176.68C172.6 178.44 172.44 180.56 172.92 182.2C173.24 183.32 173.48 185.72 174.16 186.64C176 189.04 178.2 191.52 180.32 193.72C181.28 194.76 182.48 195.6 183.56 196.48C184.08 196.92 185.32 197.16 186 197.48C186.72 197.8 187.56 198.4 188.36 198.4C190.16 198.4 191.44 199.44 193.08 199.92C193.72 200.12 197.8 200.32 198.2 199.8C198.56 199.36 199.76 199.24 200.24 198.96C201.2 198.44 201.96 197.6 203 197.16C204.4 196.64 206.4 196.08 207.52 194.92C209.32 193 210.96 191 212.8 189.04C213.76 188 214.08 186.4 214.68 185.08C215.36 183.64 216.68 181.6 216.68 180C216.68 176.6 217.44 172.92 216.68 169.52C216.36 168.08 216.2 166.48 215.48 165.2C214.64 163.68 213.8 162.84 212.6 161.6C210.28 159.16 207.56 156.52 204.6 154.96C202.72 153.96 201.76 153.36 199.6 153.36C197.88 153.36 196.16 152.44 194.48 152.44C192.84 152.44 191.2 152.12 189.48 152.12C187.96 152.12 185.12 152.24 183.92 153.2C183.12 153.84 182.04 154.08 181.12 154.52C180.28 154.92 179.88 155.56 179.2 156.28C178.04 157.48 176.36 160.08 175.32 162.48" stroke="#171717" stroke-width="2" stroke-linecap="round"/>
<path d="M224.04 188.599C224.52 190.319 225.84 191.879 227.04 193.199C228.28 194.559 229.64 195.439 231.24 196.279C232.52 196.959 234.2 197.919 235.56 198.319C236.52 198.599 237.44 199.119 238.44 199.399C239.2 199.599 239.92 199.399 240.68 199.599C242 199.959 244.16 199.439 245.56 199.399C247.12 199.359 248.68 198.879 250.24 198.479C251.84 198.039 253.88 197.639 255.32 196.799C256.28 196.199 258.44 195.359 259.12 194.439C260.88 191.959 262.56 189.119 264.04 186.439C264.72 185.199 265.2 183.799 265.76 182.479C266.04 181.839 265.92 180.519 266.04 179.759C266.16 178.919 266.48 177.959 266.28 177.159C265.8 175.319 266.4 173.759 266.4 171.999C266.4 171.319 265.48 167.119 264.88 166.839C264.36 166.599 263.92 165.399 263.56 164.959C262.8 164.119 261.8 163.559 261.16 162.599C260.28 161.319 259.24 159.439 257.88 158.599C255.6 157.239 253.28 156.079 251 154.719C249.8 153.999 248.2 154.079 246.84 153.799C245.32 153.479 243.04 152.639 241.56 153.039C238.4 153.879 234.8 154.039 231.8 155.639C230.52 156.319 229.08 156.919 228.08 157.919C226.88 159.119 226.36 160.199 225.52 161.719C223.88 164.679 222.16 168.079 221.52 171.479C221.12 173.639 220.8 174.759 221.36 176.919C221.84 178.639 221.44 180.639 221.88 182.359C222.32 183.999 222.48 185.759 222.96 187.479C223.36 189.039 224.24 191.879 225.48 192.839C226.32 193.479 226.8 194.519 227.44 195.359C228.04 196.119 228.76 196.319 229.6 196.839C231.04 197.719 233.92 198.799 236.4 199.239" stroke="#171717" stroke-width="2" stroke-linecap="round"/>
<path d="M157.84 304V384L175.84 387.4" stroke="#171717" stroke-width="2" stroke-linecap="round" stroke-linejoin="round"/>
<path d="M216.68 304V384L234.68 387.4" stroke="#171717" stroke-width="2" stroke-linecap="round" stroke-linejoin="round"/>
<path d="M156.314 304.57C156.314 310.229 156.145 315.858 156.848 321.479C157.697 328.27 158.108 335.139 158.671 341.961C158.921 344.991 158.9 348.126 158.598 351.152C158.329 353.838 158.182 356.563 157.842 359.238C157.744 360.012 157.932 360.841 157.723 361.596C157.65 361.858 157.486 362.354 157.474 362.591C157.384 364.299 158.189 366.096 158.598 367.73C159.194 370.116 158.8 372.911 158.8 375.355C158.8 377.455 158.8 379.555 158.8 381.655C158.8 382.876 160.677 383.197 161.655 383.607C163.361 384.322 165.146 384.818 166.96 385.173C168.861 385.545 170.77 385.981 172.688 386.259C173.856 386.429 175.093 386.423 176.206 386.794" stroke="#171717" stroke-width="2" stroke-linecap="round"/>
<path d="M215.381 306.009C215.381 311.594 215 317.223 216.051 322.714C216.816 326.705 217.046 330.694 217.046 334.756C217.046 340.528 217.002 346.269 217.417 352.028C217.775 357.007 218.151 361.948 218.492 366.905C218.59 368.315 218.712 369.668 218.712 371.093C218.712 371.683 218.599 372.294 218.4 372.851C218.14 373.58 218.38 374.399 218.192 375.153C217.978 376.009 218.088 376.971 218.088 377.849C218.088 378.766 217.879 379.623 217.879 380.544C217.879 381.592 217.208 383.493 217.717 384.512C219.07 387.217 223.429 386.386 225.781 386.386C227.242 386.386 228.703 386.386 230.165 386.386C230.92 386.386 234.17 386.483 234.538 387.219" stroke="#171717" stroke-width="2" stroke-linecap="round"/>
<path d="M193 251.6C196.6 251.28 205 251.52 209.8 255.2" stroke="#171717" stroke-width="2" stroke-linecap="round" stroke-linejoin="round"/>
<path d="M226.51 244.848C226.51 241.371 226.867 237.639 225.836 234.264C225.417 232.894 224.639 231.638 224.169 230.28C223.919 229.555 223.56 228.889 223.222 228.202C222.928 227.606 222.743 226.955 222.422 226.375C222.173 225.925 221.528 224.524 221.783 224.971C222.434 226.111 223.68 227.017 224.552 227.991C225.684 229.256 226.792 230.839 227.537 232.364C228.21 233.74 228.998 234.927 229.433 236.417C229.69 237.301 229.592 238.263 229.592 239.174C229.592 240.064 229.592 240.955 229.592 241.845C229.592 242.176 229.678 242.475 229.695 242.793C229.71 243.069 229.706 242.828 229.798 242.667C230.13 242.086 230.29 241.246 230.54 240.612C231.014 239.411 231.505 238.29 231.853 237.039C232.738 233.853 231.673 230.924 230.26 228.099C230.072 227.724 229.887 227.332 229.689 226.969C229.502 226.626 229.446 226.274 229.233 225.941C228.99 225.563 229.295 226.407 229.341 226.512C229.689 227.303 230.258 228.002 230.728 228.722C231.641 230.117 232.444 231.493 232.88 233.111C233.175 234.204 233.244 235.498 233.371 236.628C233.468 237.487 233.561 238.385 233.491 239.254C233.466 239.574 233.446 239.954 233.389 240.27C233.334 240.57 233.312 240.075 233.349 239.956C234.508 236.147 235.974 232.07 234.833 228.076C234.644 227.417 234.056 225.484 234.056 226.17C234.056 226.419 234.325 226.77 234.422 226.992C234.722 227.683 235.165 228.34 235.529 229.001C236.833 231.372 237.299 233.802 237.299 236.474C237.299 236.757 237.196 238.6 237.196 237.547C237.196 236.776 237.552 236.07 237.87 235.383C238.349 234.349 238.898 233.296 239.245 232.209C239.674 230.869 239.868 229.629 239.868 228.225C239.868 227.847 239.807 226.844 240.096 227.711C240.368 228.528 241.08 229.28 241.101 230.177C241.108 230.51 241.276 231.865 240.998 232.004" stroke="#171717" stroke-width="4" stroke-linecap="round"/>
<path d="M212 220C216.72 222.48 225.96 231.2 225 246.4" stroke="#171717" stroke-width="2" stroke-linecap="round" stroke-linejoin="round"/>
<path d="M247.4 211.8C251.72 211.88 259.84 213.6 257.6 220C256.72 222.52 252.8 224.12 246.2 224.44M246.2 224.44C232 225.16 205.32 220.08 169.8 206.4C171.12 216.68 180.16 240.6 207.4 246.6C231 251.8 244.48 234.96 246.2 224.44Z" stroke="#171717" stroke-width="2" stroke-linecap="round" stroke-linejoin="round"/>
<path d="M247.5 212C249.78 212.03 252.111 212.593 254.179 213.5C255.691 214.16 256.91 216.878 257.249 218.482C257.4 219.204 257.432 219.805 257.422 220.565C257.408 221.684 257.483 222.045 256.436 222.592C255.711 222.983 255.021 223.694 254.179 223.843C253.096 224.069 252.13 224.536 251.086 224.883C248.353 225.808 245.626 226.372 242.706 226.335C239.826 226.297 236.95 225.98 234.114 225.663C232.197 225.439 230.164 224.852 228.331 224.308C227.694 224.1 226.971 224.331 226.333 224.163C225.695 223.994 224.856 223.943 224.177 223.855C222.659 223.675 221.182 223.456 219.665 223.156C218.229 222.898 216.832 222.599 215.437 222.221C214.081 221.884 212.691 221.146 211.373 220.969C208.857 220.656 205.425 219.972 203.324 218.504C202.531 217.974 201.572 217.922 200.817 217.512C199.347 216.733 197.828 216.633 196.232 216.292C193.241 215.574 189.884 215.37 187.1 214.054C186.226 213.643 185.185 213.669 184.39 213.299C183.237 212.764 182.002 212.348 180.805 212.092C179.05 211.71 177.574 211.411 175.943 210.709C174.949 210.256 174.397 209.569 173.238 209.554C172.878 209.55 171.32 209.329 171.043 209.086C170.053 208.313 170.516 209.639 170.588 210.24C170.769 211.722 171.429 213.291 171.489 214.812C171.617 217.334 173.139 220.274 174.714 222.214C175.225 222.861 175.374 223.743 175.926 224.35C176.518 224.998 176.827 225.842 177.217 226.607C177.803 227.735 178.709 228.787 179.416 229.836C180.123 230.845 181.026 232.097 181.895 232.988C182.764 233.84 183.797 234.413 184.707 235.185C186.17 236.484 187.793 237.785 189.542 238.688C191.25 239.59 192.962 240.252 194.877 240.637C196.633 240.98 198.38 242.002 200.135 242.385C203.445 243.148 206.37 245.906 209.73 245.95C211.529 245.973 213.33 245.916 215.087 246.219C217.362 246.608 219.556 247.037 221.916 247.067C223.476 247.087 225.324 246.511 226.692 245.849C228.423 245.031 230.073 244.253 231.804 243.435C232.609 243.045 233.019 242.251 233.785 241.86C234.469 241.509 235.518 240.843 236.045 240.33C237.381 239.067 239.512 238.214 240.493 236.587C240.943 235.873 241.511 235.2 241.96 234.526C242.49 233.732 242.704 232.655 243.115 231.82C243.691 230.628 243.811 227.509 245.099 226.926" stroke="#171717" stroke-width="2" stroke-linecap="round"/>
<path d="M225 246C225.5 244 224.975 239.601 224.778 238.552C224.551 237.301 224.09 235.88 223.537 234.736C223.023 233.634 221.788 232.541 221.196 231.395C220.605 230.209 220.277 228.474 219.643 227.366C218.934 226.135 217.724 225.404 216.892 224.248C215.455 222.226 215.258 221.213 213.067 220" stroke="#171717" stroke-width="2" stroke-linecap="round"/>
<path d="M280.16 209.6C301 205.64 337.88 181.16 328.64 115L321.16 100.2M328.6 115L339.32 100.2" stroke="#171717" stroke-width="2" stroke-linecap="round" stroke-linejoin="round"/>
<path d="M280.5 209C284.06 209 285.52 208.84 288.76 207.32C290.28 206.6 291.44 205.4 292.84 204.52C294.36 203.52 295.88 202.56 297.28 201.48C299.24 199.96 302.04 199.08 303.6 197.12C305.44 194.8 307.68 192.72 309.68 190.72C313.64 186.76 317.32 183.28 320.08 178.32C320.76 177.08 321.76 175.84 322.64 174.68C323.6 173.44 323.56 172.52 323.92 171.04C324.48 168.44 325.2 165.56 325.36 162.88C325.48 160.56 327.4 158.08 327.52 155.64C327.6 154.44 328 152.4 328.52 151.28C329.16 149.96 329.16 148.36 329.88 147.12C330.44 141.68 329.76 136.68 329.76 131.36C329.76 130 329.72 128.56 329.32 127.28C328.92 126.04 330.56 123.92 330.4 122.68C330.28 121.6 329.32 120.68 329.32 119.44C329.32 118.32 328.96 116.28 328.4 115.28C327 112.76 327 109.72 325.12 107.32C323.52 105.24 322.8 103.2 321.72 101" stroke="#171717" stroke-width="2" stroke-linecap="round"/>
<path d="M339.24 100C338.24 101 337.48 102.96 337 104.28C336.24 106.24 333.84 107.96 332.56 109.6C331.16 111.4 330.12 113.44 328 114.48" stroke="#171717" stroke-width="2" stroke-linecap="round"/>
<path d="M120.319 209.6C99.4792 205.64 62.5992 181.16 71.8392 115L79.3192 100.2M71.8792 115L61.1592 100.2" stroke="#171717" stroke-width="2" stroke-linecap="round" stroke-linejoin="round"/>
<path d="M118.979 209C115.419 209 113.959 208.84 110.719 207.32C109.199 206.6 108.039 205.4 106.639 204.52C105.119 203.52 103.599 202.56 102.199 201.48C100.239 199.96 97.4394 199.08 95.8794 197.12C94.0394 194.8 91.7994 192.72 89.7994 190.72C85.8394 186.76 82.1594 183.28 79.3994 178.32C78.7194 177.08 77.7194 175.84 76.8394 174.68C75.8794 173.44 75.9194 172.52 75.5594 171.04C74.9994 168.44 74.2794 165.56 74.1194 162.88C73.9994 160.56 72.0794 158.08 71.9594 155.64C71.8794 154.44 71.4794 152.4 70.9594 151.28C70.3194 149.96 70.3194 148.36 69.5994 147.12C69.0394 141.68 69.7194 136.68 69.7194 131.36C69.7194 130 69.7594 128.56 70.1594 127.28C70.5594 126.04 68.9194 123.92 69.0794 122.68C69.1994 121.6 70.1594 120.68 70.1594 119.44C70.1594 118.32 70.5194 116.28 71.0794 115.28C72.4794 112.76 72.4794 109.72 74.3594 107.32C75.9594 105.24 76.6794 103.2 77.7594 101" stroke="#171717" stroke-width="2" stroke-linecap="round"/>
<path d="M61.2395 100C62.2395 101 62.9995 102.96 63.4795 104.28C64.2395 106.24 66.6395 107.96 67.9195 109.6C69.3195 111.4 70.3595 113.44 72.4795 114.48" stroke="#171717" stroke-width="2" stroke-linecap="round"/>
</svg>
