<svg width="400" height="444" viewBox="0 0 400 444" fill="none" xmlns="http://www.w3.org/2000/svg">
<path d="M215.681 400.4C214.861 400.4 214.041 400.32 213.241 400.17L195.271 396.78C189.141 395.63 184.681 390.26 184.681 384.01V320.21C179.071 321.22 173.461 321.72 167.961 321.72C164.781 321.72 161.601 321.55 158.511 321.21C156.281 320.97 154.051 320.64 151.841 320.24V373.23L158.941 374.57C162.261 375.2 165.161 376.92 167.101 379.42C169.391 382.37 170.311 386.16 169.621 389.82C168.461 395.96 163.091 400.41 156.851 400.41C156.021 400.41 155.181 400.33 154.361 400.17L136.431 396.78C130.301 395.63 125.841 390.26 125.841 384.01V311.43C124.381 310.68 122.941 309.88 121.521 309.05V325.41C121.521 332.58 115.691 338.41 108.521 338.41H88.061C81.001 338.41 75.021 332.83 74.731 325.97C74.531 321.27 76.941 316.88 80.781 314.43C80.451 311.01 81.481 307.62 83.701 304.94C86.191 301.93 89.841 300.21 93.731 300.21C94.331 300.21 94.931 300.25 95.531 300.33V285.95C79.881 265.42 72.621 238.41 73.951 205.62C62.721 178.09 67.181 158.31 72.951 146.52C78.841 134.48 87.411 128.09 92.101 125.31C92.241 124.74 92.401 124.17 92.571 123.6C91.921 119.41 90.951 109.49 93.931 98.72C92.801 98.8 91.711 98.83 90.681 98.83C77.311 98.83 72.771 91.99 71.251 87.9C69.041 81.98 69.441 72.87 83.841 63.09C90.471 58.59 99.601 54.07 109.561 50.37C119.521 46.66 129.391 44.11 137.341 43.17C139.601 42.91 141.721 42.77 143.661 42.77C157.031 42.77 161.571 49.62 163.091 53.7C164.851 58.44 164.951 65.38 157.041 73.18C161.211 75.31 164.481 77.62 166.681 79.35C166.691 79.35 167.131 79.31 167.131 79.31H167.751C184.721 79.31 200.021 81.87 213.341 86.91L210.581 46.27C210.351 42.8 211.481 39.45 213.761 36.84C216.051 34.22 219.211 32.66 222.671 32.42L376.031 22H376.611C383.371 22 389.031 27.32 389.491 34.11L394.691 110.61C394.921 114.07 393.801 117.41 391.531 120.03C389.221 122.67 386.061 124.23 382.591 124.47L317.281 128.91L320.791 165.56C321.001 165.73 321.211 165.91 321.411 166.1C322.701 167.29 323.701 168.66 324.431 170.21L324.521 170.4L324.751 170.94C325.141 171.92 325.421 172.96 325.561 174.02C327.381 187.1 327.151 198.53 324.851 207.98L327.311 233.66C327.991 240.8 322.741 247.16 315.611 247.84L315.211 247.88L314.461 247.9H314.281C307.841 247.9 302.481 243.2 301.521 236.88C299.821 237.55 298.301 237.99 297.101 238.28C294.291 238.96 291.351 239.3 288.361 239.3C283.061 239.3 277.721 238.25 272.651 236.24C271.551 243.66 269.751 250.32 267.381 255.72C256.921 279.59 235.841 300.46 210.681 311.98V373.23L217.781 374.57C221.091 375.19 223.981 376.91 225.921 379.39C228.231 382.35 229.151 386.15 228.461 389.81C227.311 395.94 221.941 400.4 215.691 400.4H215.681Z" fill="white"/>
<path d="M242.36 146.84C263.56 182.72 264.68 229.56 255.48 250.48C239.84 286.16 198.48 312.48 159.92 308.28C123.24 304.28 83.5599 274.76 86.9999 204.6" stroke="#171717" stroke-width="2" stroke-linecap="round"/>
<path d="M194.801 193.399C201.201 193.799 211.041 197.079 199.201 206.999" stroke="#171717" stroke-width="2" stroke-linecap="round" stroke-linejoin="round"/>
<path d="M240.88 146.6C242.36 150.84 243.88 155.04 246.48 158.32C249.52 162.16 251.32 168.52 253.8 173.04C256.16 177.4 259.8 182.36 259.8 187.44C259.8 190.92 261.96 194.44 261.96 197.96C261.96 201.28 261.96 204.6 261.96 207.92C261.96 215.04 261.6 223.2 258.16 229.52C256.84 231.92 257.72 237.28 257.44 240.04C257.12 243.12 254.88 246.12 254.56 248.92C253.84 255.2 247.08 263.2 244.28 268.88C238 281.64 228.84 289.2 216.76 296.04C213.64 297.8 210.56 298.12 207.52 299.68C204.76 301.08 200.52 304.04 197.72 304.36C191.32 305.12 183.12 308.92 176.84 309.32C172 309.6 167.36 312.16 162.36 309.32C157.6 306.64 147.48 305.8 142.2 305.48C131.56 304.88 122.28 295.24 114.44 288.88C110.8 285.92 106.52 275.72 104.2 271.28C101.6 266.32 99.3598 261.84 95.6398 257.64C86.2398 247.04 87.7598 232.52 87.7598 218.56C87.7598 214 87.3598 209.2 87.7598 204.6" stroke="#171717" stroke-width="2" stroke-linecap="round"/>
<path d="M194 193C195.862 193 197.729 193.074 199.514 193.68C200.272 193.938 200.888 194.536 201.508 195.018C202.234 195.583 202.634 196.477 202.983 197.308C203.467 198.463 203.74 199.469 203.74 200.737C203.74 201.761 202.849 202.837 202.11 203.488C201.129 204.351 200.081 205.349 199.355 206.438" stroke="#171717" stroke-width="2" stroke-linecap="round"/>
<path d="M109.182 106.924C109.182 103.555 108.881 99.8446 110.512 96.7626C111.474 94.9466 113.136 93.6195 114.651 92.2915C114.986 91.9976 115.374 91.5379 115.75 91.3122C116.385 90.9314 114.549 92.1805 113.986 92.661C113.118 93.4016 112.258 94.154 111.51 95.0166C111.435 95.1028 111.025 95.6424 111.099 95.2383C111.172 94.8377 111.581 94.3875 111.824 94.0975C113.234 92.4177 114.667 90.8075 116.42 89.4739C119.12 87.42 122.407 85.1734 125.94 85.0582C126.011 85.0559 127.039 84.8972 127.02 85.0582C127.003 85.2077 126.19 85.3941 126.124 85.4185C125.043 85.8199 123.969 86.2607 122.919 86.7395C121.285 87.4847 119.679 88.345 118.097 89.1968C117.561 89.4853 117.02 89.7936 116.54 90.1667C116.462 90.2274 117.423 89.7625 117.589 89.6864C119.881 88.6322 122.181 87.5707 124.457 86.4808C126.533 85.4869 128.663 84.1947 130.965 83.8111C132.687 83.5241 134.337 83.3813 136.083 83.3954C136.514 83.3988 136.97 83.4397 137.367 83.6263C137.771 83.8163 136.625 83.129 136.244 82.8965C135.506 82.446 134.74 82.0891 133.917 81.8203C133.504 81.6856 132.791 81.6969 132.434 81.4416C132.204 81.2771 132.991 81.5423 133.265 81.6125C134.187 81.8482 135.108 82.1206 136.018 82.3977C137.267 82.7777 138.635 83.0505 139.759 83.7464C140.926 84.4688 137.225 82.6875 135.926 82.2453C134.77 81.8519 133.311 81.982 132.092 81.982C131.616 81.982 131.181 82.0919 130.716 82.1436C130.602 82.1563 130.45 82.1321 130.669 82.1667C131.346 82.2735 132.026 82.3478 132.702 82.4577C135.578 82.9256 138.395 83.6449 141.178 84.5085C142.685 84.9764 144.182 85.6849 145.727 86.0143C146.667 86.2146 147.568 86.5455 148.503 86.7626C149.191 86.9223 149.875 87.0637 150.503 87.3861C151.312 87.8016 151.758 88.5436 152.314 89.2152C152.563 89.5163 152.788 89.7914 153.062 90.0651C153.155 90.1578 153.82 90.7299 153.82 90.8365C153.82 90.8983 153.361 90.6275 153.709 91.1737C154.02 91.6632 154.589 91.7469 155.057 92.042C155.428 92.2755 154.288 92.124 154.124 92.1252C153.01 92.133 151.966 92.3288 150.882 92.5594C149.347 92.8858 147.742 93.155 146.189 93.3769C145.716 93.4445 145.216 93.7196 144.762 93.8711C143.935 94.1467 143.123 94.4621 142.314 94.7857C141.78 94.999 141.144 95.1634 140.651 95.4554C140.22 95.7108 139.806 95.9436 139.344 96.1344C138.426 96.513 137.433 96.9135 136.452 97.0952C135.622 97.2489 134.745 97.7063 133.963 98.0282C132.688 98.5529 131.391 98.9402 130.05 99.2753C128.952 99.5499 127.709 100.19 126.559 100.19" stroke="#FFD424" stroke-width="2" stroke-linecap="round"/>
<path d="M107.06 118.161C107.06 115.764 106.863 113.273 107.16 110.892C107.298 109.79 107.607 108.728 107.732 107.622C107.851 106.555 108.092 105.363 108.41 104.337C108.972 102.525 109.356 100.656 110.117 98.9101C110.478 98.0804 111.102 97.3525 111.688 96.6679C112.469 95.7543 113.146 94.7244 113.994 93.8759C114.578 93.2918 115.198 92.6953 115.658 92.005C115.717 91.9161 116.393 90.7519 116.308 91.4337C116.181 92.4496 115.55 93.4806 115.158 94.4043C114.259 96.5242 113.471 98.6851 112.587 100.809C111.313 103.873 110.191 107.117 109.567 110.378C109.281 111.872 109.117 116.441 109.117 114.92C109.117 113.496 109.593 112.372 110.202 111.078C111.847 107.584 113.566 104.062 114.872 100.424C116.06 97.1169 116.981 93.5636 118.557 90.4126C118.65 90.2257 118.978 89.7027 118.821 89.8914C118.659 90.0856 118.722 90.6403 118.685 90.8768C118.515 91.9758 118.363 93.0756 118.086 94.1544C117.547 96.2484 116.981 98.3428 116.215 100.367C115.795 101.475 115.211 102.492 114.772 103.587C114.176 105.077 113.767 106.636 113.423 108.2C113.168 109.356 112.492 110.625 112.459 111.806C112.436 112.619 112.702 111.619 112.873 111.292C113.462 110.163 114.254 109.137 114.958 108.079C116.411 105.894 117.707 103.638 118.943 101.324C121.412 96.6972 123.168 91.8422 124.898 86.928C125.199 86.074 125.312 85.0584 125.312 84.1574C125.312 83.9515 125.429 83.2912 125.241 83.7218C125.026 84.2135 124.782 84.7513 124.477 85.1928C123.871 86.0678 123.524 87.2394 123.077 88.199C122.256 89.9636 121.5 91.745 120.685 93.5117C119.952 95.1004 119.178 96.7031 118.628 98.3674C118.106 99.9489 117.884 101.621 117.536 103.244C117.34 104.158 117.178 105.132 117.093 106.065C117.016 106.911 117.268 106.14 117.657 105.765C119.66 103.834 121.937 102.259 123.87 100.224C124.867 99.1732 125.787 98.1689 126.312 96.7964C126.887 95.2926 127.21 93.712 127.497 92.1335C127.915 89.8348 128.346 87.4815 128.525 85.1499C128.58 84.4372 128.602 83.4806 128.882 82.8149C129.862 80.4886 127.153 87.5576 126.283 89.9271C125.66 91.6256 124.919 93.3083 124.212 94.9755C123.298 97.133 122.632 99.3847 121.742 101.552C121.177 102.928 120.536 104.291 120.042 105.694C120.009 105.788 119.676 107.135 119.914 106.922C120.96 105.986 122.356 105.394 123.541 104.637C125.941 103.105 128.406 101.557 130.432 99.5313C131.781 98.1823 132.868 96.6027 134.038 95.1041C134.35 94.7047 135.446 93.6472 135.109 94.0258C134.588 94.612 133.998 95.1648 133.41 95.6968C131.701 97.2419 130.274 99.0298 128.411 100.41C127.147 101.346 122.691 103.007 124.184 102.509C128.033 101.226 131.41 98.9896 134.881 96.9607C137.945 95.169 140.971 93.6357 144.463 92.869C147.289 92.2488 150.094 91.9114 152.954 91.4909C153.795 91.3672 154.739 91.2981 155.589 91.2981C156.207 91.2981 157.3 91.5233 157.881 91.2909C158.02 91.2352 157.27 90.8072 157.188 90.7839C155.989 90.4412 154.831 89.4868 153.746 88.8845C151.475 87.6224 149.052 86.6018 146.591 85.764C144.038 84.8948 141.567 83.5196 138.808 83.4576C135.004 83.3721 131.209 82.934 127.397 83.3576C127.302 83.3682 126.129 83.5682 126.469 83.5861C127.968 83.665 129.201 83.9215 130.546 84.6715C131.443 85.1716 132.073 85.7318 131.789 86.8066C131.613 87.4693 131.183 88.0324 130.839 88.6132C130.175 89.7329 129.757 90.9693 129.268 92.1692C128.707 93.5452 128.024 94.9524 127.726 96.4108C127.545 97.2933 127.679 96.5366 127.826 96.0966C128.455 94.2083 129.403 92.5003 130.432 90.8054C130.541 90.6253 131.582 88.8271 131.603 88.9416C131.806 90.0591 130.961 91.5556 130.71 92.612C130.171 94.8875 129.73 97.2322 129.04 99.467C128.806 100.224 129.001 99.4913 129.225 99.2671C129.733 98.7591 130.443 98.4343 131.025 98.0246C132.611 96.9071 134.064 95.5455 135.516 94.2615C136.847 93.0846 138.488 91.7608 139.508 90.277C139.843 89.7894 139.717 89.467 139.165 89.213C137.382 88.3923 135.489 87.9836 133.567 87.5992C132.82 87.4499 132.044 87.3946 131.31 87.185C130.609 86.9848 131.134 86.928 131.553 86.928C137.33 86.928 143.231 86.5817 148.962 87.185C149.041 87.1933 149.233 87.2781 149.162 87.3136C148.793 87.4978 147.6 87.0625 147.291 86.9994C142.451 86.0093 137.625 84.6424 132.738 83.9146C132.426 83.8681 131.274 83.832 132.217 83.9717C133.284 84.1298 134.294 84.5031 135.323 84.8143C138.104 85.6549 140.957 86.2704 143.778 86.9565C146.291 87.5677 148.84 88.0827 151.319 88.8274C152.163 89.081 152.954 89.4633 153.789 89.7271C154.039 89.8062 153.929 89.8786 153.718 89.8842C152.838 89.9074 151.955 89.8842 151.076 89.8842C146.887 89.8842 142.697 89.8842 138.508 89.8842C138.084 89.8842 137.345 89.7411 136.937 89.9128C136.882 89.9362 138.235 90.017 138.365 90.0199C140.743 90.0727 143.256 90.0079 145.592 90.5269C145.744 90.5607 145.298 90.6554 145.142 90.6554C142.362 90.6554 139.565 90.7325 136.794 90.9696C134.76 91.1437 132.746 91.4768 130.725 91.7551C130.403 91.7993 129.421 91.9407 130.368 91.9407C132.698 91.9407 135.023 91.5551 137.351 91.5551C139.773 91.5551 132.523 91.1756 130.111 90.9696C129.509 90.9182 128.946 90.7926 128.361 90.6626C127.991 90.5803 129.091 90.4408 129.468 90.3983C131.118 90.2127 132.774 90.1139 134.424 89.9128C135.171 89.8216 135.994 89.8568 136.723 89.6557C137.002 89.5787 136.164 89.6017 136.123 89.5986C135.014 89.5149 133.914 89.4986 132.803 89.4986C132.752 89.4986 131.859 89.4738 132.189 89.57C133.5 89.9525 134.948 89.992 136.287 90.277C137.697 90.577 139.191 90.8252 140.557 91.2981C141.884 91.7574 140.149 92.0953 139.608 92.2835C134.987 93.8892 130.424 95.6616 125.812 97.282C125.784 97.2919 124.858 97.6536 125.241 97.4676C126.012 97.0926 126.804 96.7542 127.604 96.4465C127.962 96.3091 129.246 95.4649 129.161 96.318C129.109 96.8407 128.704 97.2831 128.383 97.6676C127.662 98.5283 126.916 99.3787 126.162 100.21C125.577 100.854 125.048 101.574 124.434 102.188C124.144 102.477 124.14 102.157 124.162 101.902C124.197 101.5 124.941 101.026 124.798 101.224C124.576 101.531 124.174 101.657 123.87 101.866C123.194 102.331 122.518 102.78 121.913 103.337C119.7 105.375 117.831 107.744 115.629 109.793C114.907 110.464 114.286 111.35 113.487 111.928C112.575 112.586 112.639 111.539 112.773 110.749C113.027 109.251 113.753 107.829 114.387 106.465C115.233 104.644 116.127 102.846 117.029 101.052C117.86 99.3988 118.74 97.8778 119.792 96.3608C120.717 95.0277 121.626 93.663 122.47 92.2764C122.687 91.9207 122.741 91.6739 122.741 91.2695C122.741 90.7125 122.741 90.1556 122.741 89.5986C122.741 88.9852 122.301 89.0814 121.777 89.1202C120.543 89.2116 119.442 90.2058 118.5 90.9125" stroke="#FFD424" stroke-width="2" stroke-linecap="round"/>
<path d="M116.961 70.5723L122.321 82.9323" stroke="#171717" stroke-width="2" stroke-linecap="round" stroke-linejoin="round"/>
<path d="M105.681 123.132C103.481 112.492 104.241 90.8923 122.321 82.9723C139.601 75.4123 156.521 86.6923 162.001 92.6523" stroke="#171717" stroke-width="2" stroke-linecap="round" stroke-linejoin="round"/>
<path d="M120.231 79.0554C138.865 72.1185 152.596 62.8025 150.9 58.2477C149.205 53.6928 132.724 55.6238 114.091 62.5607C95.4571 69.4976 81.7262 78.8136 83.4219 83.3685C85.1176 87.9233 101.598 85.9923 120.231 79.0554Z" stroke="#171717" stroke-width="2"/>
<path d="M160.479 92.4133C159.759 91.8133 158.439 91.7733 157.839 91.0533C156.919 89.9733 155.679 88.9333 154.559 88.0533C153.239 87.0933 151.839 86.1333 150.599 85.2133C147.839 83.1733 143.919 83.6933 140.799 82.4933C139.879 82.1333 138.919 81.8933 138.039 81.4533C137.359 81.1333 136.519 80.5333 135.759 80.4933C134.919 80.4533 134.159 80.3333 133.279 80.3733C131.919 80.4133 131.159 81.2133 129.919 81.6533C126.319 82.8933 123.159 85.2533 119.639 86.4133C117.999 86.9733 116.479 88.2933 114.919 89.1333C113.359 90.0133 111.959 91.3733 110.959 92.7733C108.759 95.8933 107.839 99.6933 106.559 103.213C105.439 106.293 106.199 110.173 106.359 113.453C106.519 116.853 106.159 120.053 106.319 123.453" stroke="#171717" stroke-width="2" stroke-linecap="round"/>
<path d="M117.361 70.2529C117.401 71.4129 117.201 72.9729 117.721 74.0129C118.161 74.8929 118.521 75.6529 119.001 76.5329C120.121 78.5729 121.801 80.2929 121.921 82.7729" stroke="#171717" stroke-width="2" stroke-linecap="round"/>
<path d="M121.912 77.7123C117.52 77.9332 113.626 79.2586 109.441 80.319C106.748 80.9817 104.593 82.3071 101.693 82.4396C100.409 82.4838 99.0413 82.9698 97.7569 83.0581C96.2653 83.1907 94.8566 83.1023 93.4478 83.4558C91.2519 83.9859 88.4344 83.7208 86.1556 83.8092C85.3684 83.8534 84.0425 83.4558 84.0011 82.5721C83.9596 81.1584 85.1198 80.2306 85.9484 79.0377C87.0671 77.4031 88.7659 76.2544 90.216 74.7964C91.4176 73.6036 92.412 73.2059 93.9865 72.4549C95.6438 71.6596 97.5083 71.262 99.207 70.5993C101.072 69.8482 102.977 69.053 104.925 68.5228C105.671 68.3019 106.624 67.7276 107.286 67.2858C108.198 66.7115 109.234 66.4906 110.228 66.0488C111.637 65.386 113.294 64.7675 114.786 64.2815C116.692 63.7072 118.805 62.6027 120.545 61.7191C122.202 60.8797 123.818 60.5704 125.559 59.9961C128.086 59.1566 130.53 57.9196 133.265 57.6987C137.988 57.3011 142.878 56.7709 147.684 56.8151C148.264 56.8151 149.548 57.4778 150.045 57.8312C150.957 58.4498 150.957 59.245 150.998 60.217C151.04 61.4982 150.253 61.8958 149.548 62.8236C148.802 63.7956 147.932 64.9884 146.897 65.6953C143.126 68.3019 138.9 69.6715 134.591 71.3504C128.79 73.6477 123.86 77.3147 117.893 79.4354" stroke="#171717" stroke-width="2" stroke-linecap="round"/>
<path d="M88.5712 201.556C87.8471 199.927 87.2444 198.209 86.5043 196.564C86.0156 195.478 83.9824 192.594 84.8726 193.385C86.3687 194.715 87.7023 196.203 89.3327 197.41C89.6895 197.675 92.7113 200.193 91.3874 198.704C88.4809 195.434 87.231 191.261 85.3077 187.414C84.102 185.003 82.5228 182.976 81.5004 180.477C80.8501 178.887 81.3064 179.912 81.8751 180.67C83.8074 183.246 86.3319 185.336 88.0877 188.067C89.3312 190.002 90.5807 192.564 92.2698 194.159C92.6411 194.51 92.7584 194.252 92.6565 193.845C92.2944 192.396 91.2101 191.559 90.4446 190.339C88.6183 187.431 87.4687 183.754 86.5164 180.465C86.007 178.705 84.999 177.204 84.3891 175.497C84.2655 175.151 83.7608 174.168 83.9056 174.506C84.2646 175.343 84.5933 176.039 85.1385 176.802C88.1925 181.078 91.424 185.41 94.8805 189.36C95.3838 189.936 96.0735 190.601 96.6694 191.065C96.8972 191.242 96.02 189.422 95.92 189.276C94.4182 187.085 93.3226 184.833 92.2698 182.398C90.6947 178.756 89.4393 175.058 87.4834 171.581C86.5258 169.878 85.9064 168.001 84.8726 166.359C84.7029 166.09 83.7224 164.204 84.3529 165.465C86.2129 169.185 90.1805 171.613 92.8862 174.675C94.4363 176.429 95.7045 178.368 97.1045 180.235C97.8561 181.237 98.7446 182.362 99.1834 183.547C99.4412 184.243 99.7647 184.976 100.223 185.565C101.185 186.802 98.6894 184.935 98.3615 184.538C96.6383 182.452 94.8524 180.233 93.5872 177.83C91.8874 174.6 91.2085 170.732 90.4326 167.205C90.1307 165.833 89.6337 164.527 89.3327 163.156C89.051 161.873 88.8159 160.559 88.1844 159.397C87.8136 158.715 87.7399 157.584 87.2174 157.004C85.7637 155.389 85.8261 158.067 86.178 159.034C86.4433 159.764 86.523 160.567 86.7219 161.319C87.1163 162.809 87.7804 164.209 88.1361 165.706C88.3402 166.566 88.5495 167.28 88.958 168.051C89.0184 168.166 88.2911 166.936 88.1361 166.637C86.4872 163.457 86.967 158.541 87.9668 155.167C88.2818 154.104 88.3536 153.171 88.3536 152.072C88.3536 151.717 88.2977 151.437 88.4624 151.964C88.8277 153.133 89.1035 154.165 89.7073 155.263C91.295 158.15 93.4031 160.635 95.2069 163.374C96.7956 165.786 99.0193 167.685 100.537 170.13C101.695 171.995 103.056 173.732 104.187 175.618C104.799 176.637 105.134 177.894 105.855 178.821C106.247 179.324 106.114 180.11 106.363 180.67C106.446 180.856 106.491 181.455 106.387 181.637C105.915 182.463 103.378 179.641 103.148 179.365C98.8843 174.237 93.6943 169.842 91.0732 163.591C90.698 162.697 90.3488 161.8 89.9974 160.896C89.6718 160.059 90.1508 161.944 90.2633 162.177C91.9709 165.719 93.791 169.26 95.92 172.572C97.4911 175.016 99.4332 177.011 101.19 179.256C101.596 179.775 102.795 181.105 103.583 181.105C104.264 181.105 105.869 178.771 106.411 178.289C107.157 177.626 108.257 176.913 109.131 176.427C109.533 176.204 109.692 176.368 109.324 175.859C108.352 174.513 107.035 173.435 106.194 171.992C103.026 166.555 101.49 160.404 99.2801 154.562C98.4572 152.388 97.4184 150.259 96.4035 148.156C95.8523 147.015 95.3201 145.881 94.5421 144.881C94.1213 144.34 93.6215 143.852 93.3092 144.554C92.8711 145.54 92.2555 146.092 91.5083 146.839C91.3236 147.024 89.9385 148.631 90.1425 148.857C90.2697 148.999 90.6318 149.047 90.7952 149.123C91.7535 149.57 92.359 150.556 92.9708 151.371C95.3438 154.535 97.6955 157.666 99.8361 160.993C100.807 162.501 101.932 163.963 102.664 165.61C102.807 165.932 103.631 167.1 102.906 166.939C101.468 166.62 100.364 164.551 99.6669 163.434C98.1328 160.975 96.8797 158.337 95.3157 155.904C94.3511 154.404 93.417 152.676 92.2214 151.347C92.0363 151.142 91.981 150.841 92.0643 150.55C92.2009 150.071 93.491 151.007 93.6235 151.081C94.1835 151.397 98.144 153.583 98.144 152.906C98.144 151.938 97.4894 151.235 97.0562 150.417C96.4276 149.229 96.0201 147.935 95.7991 146.609C95.5576 145.16 95.5332 140.74 95.5332 142.21C95.5332 143.818 95.8037 145.184 95.4849 146.778C95.2278 148.064 95.5879 151.986 95.3036 150.707C94.8677 148.745 93.8917 146.933 93.4059 144.99C93.1473 143.955 94.2506 144.203 94.8805 143.853C95.7412 143.375 95.8462 141.905 96.0771 141.073C96.2532 140.44 96.1725 139.127 96.6694 140.469C96.9389 141.197 97.4873 141.878 98.0715 142.379C99.6704 143.749 101.436 144.946 103.051 146.307C106.572 149.272 109.871 152.819 112.491 156.617C114.242 159.155 115.986 161.684 116.806 164.691C116.984 165.345 117.475 166.549 116.274 165.513C114.1 163.639 112.315 161.379 110.545 159.131C108.507 156.543 106.147 154.243 104.139 151.637C102.722 149.798 101.512 147.922 99.8845 146.295C99.3886 145.799 97.9852 143.839 98.8208 145.57C100.524 149.097 101.771 152.814 103.535 156.303C105.123 159.445 107.143 162.172 108.925 165.175C109.673 166.434 110.179 167.875 111.077 169.03C111.332 169.359 111.587 169.913 110.932 169.526C109.625 168.754 108.682 167.573 107.499 166.649C106.409 165.797 103.554 162.822 104.332 163.966C105.506 165.692 106.995 167.301 108.321 168.922C109.251 170.058 110.325 171.741 110.763 173.164C110.806 173.303 111.391 174.284 111.391 173.877C111.391 172.509 110.272 171.123 109.627 170.009C107.805 166.866 106.993 163.292 105.239 160.134C104.578 158.944 107.384 161.814 108.478 162.624C109.963 163.724 111.413 164.785 112.721 166.093C112.909 166.281 114.433 167.889 114.147 167.302C113.132 165.215 111.686 163.247 110.497 161.258C108.482 157.89 106.688 154.502 105.13 150.9C103.952 148.176 103.173 145.322 101.951 142.608C101.521 141.653 101.081 140.694 100.706 139.72C100.612 139.473 100.164 139.008 100.199 138.729C100.204 138.687 101.267 139.526 101.335 139.575C106.895 143.578 112.37 147.509 116.202 153.257C117.896 155.798 119.263 158.548 120.988 161.041C121.981 162.476 120.881 161.795 119.985 161.065C117.494 159.035 114.668 156.44 112.95 153.692C111.406 151.221 110.246 148.552 108.805 146.029C108.011 144.64 106.952 143.092 106.411 141.605C106.118 140.8 105.682 140.059 105.372 139.285C104.766 137.769 105.574 138.846 106.508 139.55C110.712 142.718 115.299 145.419 119.659 148.362C121.572 149.653 122.929 151.478 124.578 153.039C124.896 153.34 126.749 155.607 125.557 154.345C124.247 152.958 123.584 151.081 122.463 149.558C120.895 147.431 119.462 145.029 117.725 143.044C117.051 142.274 116.292 141.322 115.815 140.421C115.543 139.908 114.376 139.683 113.917 139.224C113.189 138.496 112.026 136.127 110.499 134.501C108.152 132.001 107.248 127.296 105.662 128.001C105.267 128.177 105.071 134.983 105.662 135.743C106.318 136.586 107.394 137.259 108.152 138.028C109.627 139.524 110.855 141.251 112.261 142.814C115.692 146.626 118.644 150.821 120.662 155.529C121.421 157.3 122.034 159.02 124.034 159.131C124.481 159.156 124.615 159.276 124.372 158.599C123.907 157.3 122.787 155.994 121.967 154.889C121.226 153.89 120.743 152.733 120.215 151.613C119.815 150.768 120.671 151.611 120.867 151.843C121.703 152.831 122.433 153.51 123.599 154.127C124.125 154.406 125.832 155.982 125.122 154.562" stroke="#171717" stroke-width="4" stroke-linecap="round"/>
<path d="M129.385 153.201C129.385 151.592 128.858 150.292 128.259 148.809C127.331 146.51 126.451 144.242 125.243 142.068C123.395 138.741 120.996 135.677 119.252 132.324C117.538 129.028 115.604 125.696 113.248 122.817C108.858 117.451 119.409 135.245 122.755 141.317C123.672 142.982 124.699 144.67 125.479 146.404C126.028 147.623 125.32 146.915 124.729 146.279C122.411 143.789 120.807 140.719 118.863 137.953C117.086 135.424 114.942 133.131 113.248 130.559C112.46 129.362 111.747 128.099 110.927 126.931C110.527 126.362 110.225 125.377 109.62 124.986C109.341 124.805 108.353 123.679 108.619 123.679C109.76 123.679 110.629 124.503 111.872 124.43C112.453 124.395 111.872 121.918 111.872 121.427C111.872 120.992 111.463 118.977 111.872 118.925C112.422 118.857 113.422 117.159 113.679 116.674C114.903 114.361 114.671 116.793 115.18 117.98C116.385 120.793 118.557 123.257 120.128 125.875C121.834 128.718 123.803 131.372 125.632 134.131C126.55 135.517 127.242 137.038 128.134 138.44C128.554 139.099 129.169 139.935 129.385 140.691C129.673 141.7 130.94 143.787 131.762 144.444C131.991 144.628 134.454 147.701 134.5 147.641C134.939 147.055 130.522 141.62 130.135 141.025C127.681 137.252 125.814 133.026 123.895 128.961C122.208 125.39 120.938 121.542 119.127 118.05C118.27 116.396 117.79 114.348 117.39 112.546C117.264 111.981 117.813 113.32 118.029 113.574C120.274 116.21 122.633 118.788 124.784 121.497C127.709 125.18 130.431 129.031 133.388 132.686C134.65 134.246 135.654 135.892 136.529 137.689C137.225 139.121 137.755 140.53 138.642 141.887C139.21 142.756 139.862 143.546 140.337 144.444C140.611 144.962 140.581 145.051 139.976 144.583C138.345 143.323 137.272 142.138 136.084 140.441C132.815 135.772 129.794 131.128 128.134 125.625C127.077 122.123 126.455 118.347 125.938 114.728C125.596 112.336 123.881 107.778 123.881 107.778C123.881 107.778 124.314 109.012 124.645 109.571C126.036 111.918 127.866 113.927 129.538 116.076C131.715 118.875 133.905 121.585 135.876 124.541C137.204 126.533 138.231 128.671 139.517 130.684C142.08 134.695 144.047 139.219 146.397 143.332C146.812 144.058 147.508 144.624 147.898 145.306C148.4 146.184 147.155 144.347 147.009 144.166C144.727 141.333 142.451 138.159 140.796 134.923C138.945 131.304 137.45 127.495 135.751 123.804C134.559 121.215 133.229 118.691 132.151 116.048C130.876 112.927 130.397 109.238 128.759 106.291C128.523 105.866 128.2 105.677 128.634 106.166C129.303 106.918 129.681 108.054 130.247 108.89C132.842 112.73 136.035 116.177 138.836 119.871C140.925 122.625 142.626 125.61 144.396 128.571C146.543 132.164 148.871 135.817 150.595 139.635C151.226 141.032 152.174 143.24 153.208 144.389C153.392 144.593 153.847 145.278 153.653 145.084C152.547 143.978 151.658 141.852 150.789 140.525C146.708 134.287 143.336 127.544 140.448 120.677C138.836 116.842 137.75 112.777 135.945 109.029C135.203 107.488 134.338 106.038 133.582 104.526C133.235 103.831 134.042 105.041 134.166 105.193C135.862 107.266 137.999 109.026 139.892 110.92C144.907 115.934 148.533 121.7 151.776 127.946C153.582 131.424 154.926 135.113 156.53 138.676C157.117 139.981 158.335 141.433 158.642 142.818C158.822 143.624 158.263 142.826 157.906 142.429C156.262 140.603 154.897 138.292 153.402 136.327C150.081 131.96 147.064 127.499 144.646 122.553C143.976 121.183 143.267 119.768 142.519 118.439C142.24 117.942 141.685 116.962 142.408 118.092C146.102 123.864 149.766 129.641 153.013 135.688C154.394 138.26 155.881 140.82 157.155 143.444C157.541 144.237 158.815 146.517 157.155 144.945C155.488 143.365 152.974 142.822 151.206 141.331C147.139 137.899 143.799 134.104 140.893 129.683C139.138 127.013 136.884 124.936 134.944 122.428C133.528 120.597 132.141 118.74 130.636 116.98C129.352 115.478 128.134 113.929 126.827 112.476C126.239 111.823 125.97 111.25 125.576 110.419C125.278 109.789 125.154 107.929 124.631 107.667" stroke="#171717" stroke-width="4" stroke-linecap="round"/>
<path d="M168.608 143.555C167.239 139.876 165.803 136.228 164.299 132.603C162.552 128.393 161.073 123.57 158.656 119.676C156.481 116.172 153.732 112.738 152.151 108.918C151.066 106.296 149.671 103.687 147.648 101.663C147.34 101.356 146.103 99.2725 145.702 99.2725C145.156 99.2725 146.996 102.852 147.05 102.956C149.422 107.524 151.253 112.361 153.207 117.119C156.264 124.56 159.891 131.693 163.354 138.941C164.014 140.322 164.787 141.937 165.161 143.43C165.464 144.645 165.913 144.962 164.605 143.472C156.436 134.166 152.444 122.172 145.646 111.976C143.97 109.462 142.314 107.108 140.893 104.415C140.488 103.647 138.726 101.397 140.198 103.414C142.493 106.56 144.787 109.729 147.022 112.921C149.121 115.92 150.877 119.16 153.096 122.067C154.202 123.516 151.949 120.313 151.762 120.01C150.245 117.552 148.883 115.003 147.592 112.421C146.421 110.079 145.325 107.589 144.59 105.11C144.452 104.645 143.322 101.869 142.7 102.024C142.455 102.086 145.683 107.04 145.813 107.209C148.841 111.14 151.838 115.078 154.903 118.981C156.754 121.339 158.343 123.901 160.157 126.292C161.104 127.541 161.956 128.779 162.659 130.184" stroke="#171717" stroke-width="4" stroke-linecap="round"/>
<path d="M236.713 118.675C236.713 121.2 237.722 123.396 238.715 125.68C240.017 128.676 241.321 131.652 242.662 134.631C244.083 137.789 245.391 140.899 247.096 143.93C247.399 144.469 247.665 145.02 247.972 145.556C248.694 146.821 245.693 143.72 244.719 142.637C240.176 137.583 236.119 131.345 233.225 125.194C231.617 121.778 230.073 118.347 228.457 114.936C227.789 113.525 225.175 109.622 225.955 110.975C226.782 112.409 227.208 114.298 227.818 115.84C229.344 119.699 230.912 123.546 232.335 127.445C234.194 132.54 236.448 137.496 238.909 142.331C239.503 143.498 239.828 143.389 240.5 144.5C240.718 144.861 241.595 145.69 241.195 145.556C239.681 145.052 238.926 144.488 237.964 143.332C235 139.768 232.447 135.874 230.222 131.81C227.332 126.528 224.701 121.059 222.008 115.673C221.123 113.903 220.382 112.08 219.701 110.224C219.126 108.661 218.177 107.094 217.699 105.54C217.594 105.197 216.728 104.239 217.088 104.804C217.577 105.573 217.913 106.291 218.2 107.167C219.934 112.465 221.676 117.767 223.467 123.053C225.083 127.82 227.224 132.399 228.902 137.133C229.744 139.509 231.197 141.54 232.21 143.819C232.405 144.258 232.759 144.615 232.961 145.069C233.652 146.625 231.816 143.627 231.557 143.276C228.924 139.708 226.333 136.185 224.204 132.282C221.726 127.738 219.87 122.821 217.699 118.119C216.795 116.159 215.891 114.193 215.003 112.226C214.325 110.726 213.345 109.406 212.849 107.806C212.381 106.3 211.445 104.002 211.445 102.413C211.445 102.224 211.818 103.158 211.889 103.414C212.222 104.611 212.607 105.788 213.001 106.972C214.916 112.716 216.382 118.563 218.214 124.332C219.649 128.855 220.725 133.887 222.759 138.189C223.569 139.904 224.442 141.657 225.08 143.443C225.234 143.876 226.342 145.659 225.677 145.042C223.908 143.398 222.498 141.2 221.216 139.176C218.404 134.736 216.071 130 213.752 125.291C210.896 119.491 208.53 113.209 206.191 107.194C205.193 104.629 204.462 102.066 203.745 99.4109C203.554 98.7071 203.289 98.0727 202.994 97.4094C202.627 96.5844 203.367 97.8369 203.439 98.16C203.655 99.131 204.456 100.08 204.954 100.926C206.381 103.351 207.86 105.741 209.193 108.223C210.69 111.01 212.043 113.842 213.446 116.674C214.634 119.071 216.029 121.479 216.824 124.04C217.198 125.246 217.701 126.427 217.949 127.668C218.007 127.954 218.2 129.104 218.2 128.933" stroke="#171717" stroke-width="4" stroke-linecap="round"/>
<path d="M221.451 145.446C221.414 145.115 221.189 144.809 221.047 144.514C220.224 142.805 219.379 141.104 218.546 139.4C216.499 135.215 214.585 130.963 212.249 126.932C209.146 121.576 206.014 116.225 202.812 110.934C200.453 107.037 197.77 103.172 195.932 99.0365C195.837 98.8231 195.33 97.5299 195.487 97.9663C196.301 100.227 198.72 102.059 200.171 103.901C202.009 106.234 203.762 108.612 205.439 111.059C205.713 111.459 207.088 113.401 206.44 111.865C206.076 111.005 205.506 110.38 204.952 109.642C204.086 108.487 203.527 107.054 202.826 105.791C201.955 104.223 201.444 102.499 200.56 100.927C200.133 100.167 199.302 99.647 198.934 98.9114" stroke="#171717" stroke-width="4" stroke-linecap="round"/>
<path d="M187.928 96.6588C188.06 98.1183 188.852 99.4828 189.484 100.773C190.567 102.98 191.601 105.209 192.681 107.417C194.006 110.124 195.231 112.993 196.378 115.784C198.91 121.939 200.978 128.276 203.926 134.27C205.621 137.717 206.695 141.447 208.568 144.819C209.316 146.165 207.952 143.783 207.79 143.513C203.738 136.76 201.436 129.048 198.491 121.788C196.604 117.137 193.796 111.732 193.682 106.583C193.666 105.88 194.19 107.363 194.238 107.472C194.928 109.05 195.82 110.524 196.74 111.976C201.79 119.942 206.245 128.262 210.458 136.688C210.981 137.733 211.64 138.705 212.057 139.802C212.169 140.097 212.378 141.178 212.793 141.261C213.756 141.454 211.667 139.652 211.056 138.884C209.668 137.142 208.419 135.203 207.317 133.269C206.125 131.176 205.125 128.993 204.217 126.764C204.146 126.588 203.444 124.963 203.592 125.11C204.164 125.682 204.549 126.506 204.954 127.195C205.787 128.611 206.859 129.854 207.887 131.129C211.047 135.048 213.1 139.951 216.449 143.693C216.545 143.801 216.873 144.293 216.588 143.888C215.873 142.872 214.944 142.017 214.197 141.025C210.739 136.427 208.857 130.852 206.427 125.708C203.817 120.18 201.36 114.578 199.061 108.918C198.307 107.061 197.06 105.368 196.184 103.553C195.448 102.029 194.568 100.575 193.738 99.1051C193.58 98.8259 191.727 93.7212 191.486 93.9624C191.019 94.4292 192.069 97.1909 192.181 97.7151C192.949 101.33 193.193 104.665 194.572 108.181C198.01 116.955 204.214 124.224 208.679 132.449C210.871 136.486 212.931 141.013 214.197 145.445" stroke="#171717" stroke-width="4" stroke-linecap="round"/>
<path d="M205.189 145.195C204.967 142.539 203.019 139.817 201.561 137.69C198.903 133.81 196.797 129.444 194.431 125.375C190.56 118.718 186.489 112.21 182.811 105.444C181.314 102.689 180.194 99.7371 178.794 96.9375C178.32 95.9885 177.733 95.1023 177.363 94.1021C177.258 93.8181 176.918 93.007 176.918 93.3098C176.918 94.1739 177.991 95.1081 178.475 95.7144C181.829 99.9185 185.433 104.128 188.44 108.585C192.323 114.339 195.621 120.527 199.129 126.515C200.072 128.124 201.131 129.66 202.075 131.268C202.859 132.603 202.193 131.508 201.658 130.907C197.687 126.439 195.642 120.91 193.083 115.604C190.55 110.352 187.203 104.916 185.925 99.1613C185.737 98.315 184.393 95.7686 183.673 95.4086" stroke="#171717" stroke-width="4" stroke-linecap="round"/>
<path d="M172.654 145.533C172.605 145.014 172.398 144.541 172.22 144.054C171.555 142.234 170.946 140.397 170.356 138.551C169.595 136.167 168.947 133.716 168.078 131.371C166.751 127.79 165.381 124.211 163.699 120.779C161.377 116.043 158.749 111.459 156.756 106.568C156.202 105.208 155.352 104.038 154.813 102.662C154.358 101.499 154.184 100.221 153.876 99.0232C153.675 98.2384 153.607 97.1544 153.216 96.4491C153.038 96.1296 153.01 96.0149 153.206 96.4787C153.849 98.0023 155.062 99.5251 156.046 100.838C161.978 108.748 167.337 117.278 171.954 126.026C173.957 129.821 175.863 133.641 177.802 137.466C178.714 139.266 179.997 140.908 180.889 142.693C180.966 142.846 181.718 144.533 181.954 144.439C182.029 144.409 179.695 140.859 179.577 140.661C177.686 137.498 176.071 134.099 174.429 130.799C171.781 125.479 169.796 119.875 167.328 114.477C165.989 111.547 165.082 108.476 163.64 105.591C162.083 102.477 160.764 99.4237 159.606 96.1829C159.494 95.8684 159.501 95.522 159.518 96.0842C159.558 97.4876 161.097 98.9296 161.904 99.9502C165.651 104.686 169.151 109.549 172.555 114.536C174.775 117.789 176.735 121.255 178.69 124.675C180.864 128.481 182.767 132.483 185.041 136.223C186.327 138.338 187.469 140.552 188.542 142.782C188.825 143.37 189.065 144.167 189.518 144.646C190.159 145.322 189.673 144.28 189.479 143.995C187.797 141.528 186.797 138.677 185.613 135.957C183.837 131.88 182.153 127.783 180.642 123.6C178.477 117.604 176.592 111.51 173.995 105.69C173.269 104.063 172.39 102.508 171.766 100.838C171.293 99.5702 170.883 98.1933 170.307 96.9718C169.995 96.3111 169.452 95.3978 169.291 94.674C169.168 94.1188 169.199 94.52 169.36 94.8416C170.059 96.2387 170.991 97.4556 171.954 98.678C175.662 103.384 179.391 108.249 182.24 113.54C185.078 118.811 187.868 124.039 190.228 129.547C191.666 132.901 193.212 136.235 194.844 139.498C195.36 140.53 195.843 141.59 196.432 142.584C196.546 142.777 197.09 143.609 196.974 143.541C196.112 143.034 195.581 141.669 195.081 140.878C193.466 138.325 191.741 135.846 190.14 133.284C188.974 131.419 187.748 129.561 186.816 127.564C185.715 125.205 184.916 122.722 183.798 120.365C182.819 118.299 181.738 116.233 180.652 114.221C180.238 113.454 179.915 112.665 179.538 111.883C179.431 111.661 179.222 110.966 179.222 111.213C179.222 113.709 180.518 115.658 181.619 117.86C184.326 123.275 187.463 128.549 190.011 134.034C191.091 136.357 191.975 138.777 193.069 141.085C193.414 141.814 194.651 144.646 195.732 144.646C196.124 144.646 196.681 144.311 197.063 144.212C197.866 144.003 198.775 144.113 199.597 144.113C200.193 144.113 200.747 144.084 201.314 144.291C201.597 144.394 202.057 144.641 201.669 144.182C199.527 141.651 198.232 138.34 196.757 135.415C194.781 131.493 192.107 127.987 190.14 124.053C188.624 121.022 187.387 117.87 185.593 114.98C183.66 111.866 182.31 108.428 180.287 105.374C178.187 102.205 176.762 98.7243 174.607 95.6109C173.231 93.6233 170.679 94.6321 168.571 94.3978C167.83 94.3155 166.83 94.23 166.125 94.0132C165.611 93.8549 165.775 94.0231 165.997 94.4175C166.631 95.5443 167.151 96.5656 167.605 97.8003C169.238 102.245 170.903 106.661 172.565 111.094C174.466 116.164 175.744 121.358 177.269 126.539C179.052 132.592 180.643 138.832 183.66 144.389C184.41 145.77 183.167 144.862 182.556 144.251C179.555 141.25 176.444 138.547 174.686 134.606C173.036 130.909 171.127 127.264 169.143 123.738C168.801 123.13 168.307 122.501 168.048 121.854C167.888 121.453 168.325 122.674 168.482 123.077C169.719 126.238 170.878 129.49 171.845 132.742C172.646 135.431 173.207 138.267 174.252 140.878C174.834 142.333 175.163 143.806 175.849 145.178" stroke="#171717" stroke-width="4" stroke-linecap="round"/>
<path d="M251.8 146.92H137.6L87.7996 204.92C67.3996 160.52 92.1996 137.04 103.8 134.32C105.56 104.08 147.2 93.7203 167.8 92.3203C229.4 92.3203 249.44 128.72 251.8 146.92Z" stroke="#171717" stroke-width="2" stroke-linejoin="round"/>
<path d="M104.039 135.6C96.4386 135.6 86.7186 144.16 85.8386 152.04C85.5586 154.4 83.4786 156.08 83.4786 158.8C83.4786 161.12 81.7186 163.48 81.7186 165.84C81.7186 170.92 80.5586 175.6 80.5586 180.52C80.5586 182.76 80.5586 185 80.5586 187.28C80.5586 190.12 81.6386 192 81.7186 194.76C81.7986 196.92 85.9586 205.76 89.0386 203.36C93.0386 200.24 95.7186 194.52 97.9986 190.2C98.9586 188.4 101.079 186.08 102.839 185.04C104.639 184 108.079 181.48 109.159 179.64C111.519 175.64 114.399 171.6 117.799 168.2C121.559 164.44 124.479 160.48 127.919 156.64C131.479 152.68 132.319 150.32 137.719 149.12C139.679 148.68 141.639 147.4 143.599 147.4C146.319 147.4 149.079 147.4 151.799 147.4C170.519 147.4 189.319 145.64 208.119 145.64C210.359 145.64 212.599 145.64 214.879 145.64C217.319 145.64 219.559 146.68 221.919 146.8C227.639 147.12 227.739 146.8 233.499 146.8C235.179 146.8 240.459 146.44 241.499 146.8C243.319 146.8 245.199 146.8 246.719 146.8C248.639 146.8 249.519 147.2 249.519 145.04C249.519 143.56 247.639 140.08 246.719 139.04C245.159 137.32 244.239 134.2 243.199 132.12C241.119 127.96 240.359 122.64 237.479 118.92C235.079 115.84 231.239 112.28 227.839 110.28C223.799 107.88 219.799 104.64 215.279 103.32C213.399 102.8 211.199 101.12 209.399 100.12C207.559 99.0802 204.919 96.8002 202.959 96.3202C201.879 96.0802 198.759 94.8402 197.839 94.0802C196.679 93.1602 191.799 93.3602 190.359 93.3602C184.799 93.3602 179.719 92.2002 174.279 92.2002C167.879 92.2002 162.119 94.3202 155.879 94.5602C151.199 94.7202 144.679 96.8002 141.079 99.8402C139.239 101.4 137.039 101.84 134.919 102.76C131.919 104.08 130.799 105.12 127.279 105.12C123.799 105.12 116.879 109.08 114.679 111.88C112.559 114.52 98.7186 132.64 103.519 135.04" stroke="#171717" stroke-width="2" stroke-linecap="round"/>
<path d="M185.361 180.999C185.281 178.079 183.441 172.199 176.561 172.199C169.681 172.199 167.961 177.519 167.961 180.199" stroke="#171717" stroke-width="2" stroke-linecap="round" stroke-linejoin="round"/>
<path d="M234.961 179.8C234.881 176.88 233.041 171 226.161 171C219.281 171 217.561 176.32 217.561 179" stroke="#171717" stroke-width="2" stroke-linecap="round" stroke-linejoin="round"/>
<path d="M175.599 200.6C189.075 200.6 199.999 189.676 199.999 176.2C199.999 162.724 189.075 151.8 175.599 151.8C162.123 151.8 151.199 162.724 151.199 176.2C151.199 189.676 162.123 200.6 175.599 200.6Z" stroke="#171717" stroke-width="2" stroke-linecap="round" stroke-linejoin="round"/>
<path d="M224.4 200.6C237.876 200.6 248.8 189.676 248.8 176.2C248.8 162.724 237.876 151.8 224.4 151.8C210.924 151.8 200 162.724 200 176.2C200 189.676 210.924 200.6 224.4 200.6Z" stroke="#171717" stroke-width="2" stroke-linecap="round" stroke-linejoin="round"/>
<path d="M151 176.199H114" stroke="#171717" stroke-width="2" stroke-linecap="round" stroke-linejoin="round"/>
<path d="M255.601 176.199H248.801" stroke="#171717" stroke-width="2" stroke-linecap="round" stroke-linejoin="round"/>
<path d="M112.881 176.949C117.192 176.949 121.845 177.377 126.023 176.081C127.639 175.579 129.494 175.379 131.17 175.146C132.506 174.961 133.828 174.812 135.175 174.812C137.591 174.812 139.969 175.213 142.399 175.213C145.157 175.213 147.906 175.48 150.661 175.48" stroke="#171717" stroke-width="2" stroke-linecap="round"/>
<path d="M249.348 175.405C249.988 175.405 250.659 175.344 251.294 175.416C251.78 175.472 252.191 175.717 252.626 175.917C252.872 176.03 253.132 176.163 253.395 176.236C253.595 176.292 253.798 176.481 254.009 176.481" stroke="#171717" stroke-width="2" stroke-linecap="round"/>
<path d="M168.477 180.769C168.477 180.016 168.743 179.247 168.945 178.523C169.118 177.901 169.372 177.242 169.63 176.65C169.84 176.168 170.174 175.808 170.445 175.366C170.961 174.525 171.623 174.115 172.362 173.511C172.91 173.062 173.417 172.405 174.114 172.184C174.845 171.952 175.619 172.028 176.377 172.028C178.986 172.028 180.78 173.779 182.448 175.54C183.386 176.53 184.357 177.648 185.162 178.757C185.57 179.32 185.882 179.728 185.882 180.457" stroke="#171717" stroke-width="2" stroke-linecap="round"/>
<path d="M216.665 179.117C216.665 178.039 216.614 176.224 217.399 175.351C217.707 175.009 218.059 174.766 218.274 174.335C218.564 173.756 218.836 172.999 219.478 172.679C219.933 172.451 220.536 172.669 220.954 172.437C221.385 172.197 221.863 171.853 222.322 171.694C223.378 171.329 224.318 171.101 225.447 171.101C226.736 171.101 228.025 171.101 229.314 171.101C230.857 171.101 231.681 172.117 232.76 172.999C233.192 173.352 233.495 174.112 233.823 174.585C234.271 175.232 234.514 175.967 234.885 176.656C235.186 177.215 235.651 177.933 235.651 178.586C235.651 178.818 235.655 180.093 235.792 179.82" stroke="#171717" stroke-width="2" stroke-linecap="round"/>
<path d="M169.12 153.12C167.4 153.12 165.64 154.04 164.12 154.92C162.56 155.8 161.4 156.96 160.24 158.32C159.28 159.44 158 160.84 157.32 162.08C156.8 163 156.12 163.76 155.64 164.68C155.28 165.36 155.28 166.16 154.92 166.84C154.28 168.08 154.2 170.4 153.92 171.76C153.6 173.36 153.6 175.04 153.6 176.68C153.6 178.44 153.44 180.56 153.92 182.2C154.24 183.32 154.48 185.72 155.16 186.64C157 189.04 159.2 191.52 161.32 193.72C162.28 194.76 163.48 195.6 164.56 196.48C165.08 196.92 166.32 197.16 167 197.48C167.72 197.8 168.56 198.4 169.36 198.4C171.16 198.4 172.44 199.44 174.08 199.92C174.72 200.12 178.8 200.32 179.2 199.8C179.56 199.36 180.76 199.24 181.24 198.96C182.2 198.44 182.96 197.6 184 197.16C185.4 196.64 187.4 196.08 188.52 194.92C190.32 193 191.96 191 193.8 189.04C194.76 188 195.08 186.4 195.68 185.08C196.36 183.64 197.68 181.6 197.68 180C197.68 176.6 198.44 172.92 197.68 169.52C197.36 168.08 197.2 166.48 196.48 165.2C195.64 163.68 194.8 162.84 193.6 161.6C191.28 159.16 188.56 156.52 185.6 154.96C183.72 153.96 182.76 153.36 180.6 153.36C178.88 153.36 177.16 152.44 175.48 152.44C173.84 152.44 172.2 152.12 170.48 152.12C168.96 152.12 166.12 152.24 164.92 153.2C164.12 153.84 163.04 154.08 162.12 154.52C161.28 154.92 160.88 155.56 160.2 156.28C159.04 157.48 157.36 160.08 156.32 162.48" stroke="#171717" stroke-width="2" stroke-linecap="round"/>
<path d="M205.04 188.599C205.52 190.319 206.84 191.879 208.04 193.199C209.28 194.559 210.64 195.439 212.24 196.279C213.52 196.959 215.2 197.919 216.56 198.319C217.52 198.599 218.44 199.119 219.44 199.399C220.2 199.599 220.92 199.399 221.68 199.599C223 199.959 225.16 199.439 226.56 199.399C228.12 199.359 229.68 198.879 231.24 198.479C232.84 198.039 234.88 197.639 236.32 196.799C237.28 196.199 239.44 195.359 240.12 194.439C241.88 191.959 243.56 189.119 245.04 186.439C245.72 185.199 246.2 183.799 246.76 182.479C247.04 181.839 246.92 180.519 247.04 179.759C247.16 178.919 247.48 177.959 247.28 177.159C246.8 175.319 247.4 173.759 247.4 171.999C247.4 171.319 246.48 167.119 245.88 166.839C245.36 166.599 244.92 165.399 244.56 164.959C243.8 164.119 242.8 163.559 242.16 162.599C241.28 161.319 240.24 159.439 238.88 158.599C236.6 157.239 234.28 156.079 232 154.719C230.8 153.999 229.2 154.079 227.84 153.799C226.32 153.479 224.04 152.639 222.56 153.039C219.4 153.879 215.8 154.039 212.8 155.639C211.52 156.319 210.08 156.919 209.08 157.919C207.88 159.119 207.36 160.199 206.52 161.719C204.88 164.679 203.16 168.079 202.52 171.479C202.12 173.639 201.8 174.759 202.36 176.919C202.84 178.639 202.44 180.639 202.88 182.359C203.32 183.999 203.48 185.759 203.96 187.479C204.36 189.039 205.24 191.879 206.48 192.839C207.32 193.479 207.8 194.519 208.44 195.359C209.04 196.119 209.76 196.319 210.6 196.839C212.04 197.719 214.92 198.799 217.4 199.239" stroke="#171717" stroke-width="2" stroke-linecap="round"/>
<path d="M138.842 304V384L156.842 387.4" stroke="#171717" stroke-width="2" stroke-linecap="round" stroke-linejoin="round"/>
<path d="M197.682 304V384L215.682 387.4" stroke="#171717" stroke-width="2" stroke-linecap="round" stroke-linejoin="round"/>
<path d="M137.315 304.57C137.315 310.23 137.146 315.858 137.849 321.479C138.698 328.27 139.109 335.14 139.672 341.961C139.922 344.992 139.901 348.126 139.599 351.153C139.33 353.838 139.183 356.563 138.843 359.239C138.745 360.013 138.933 360.841 138.724 361.596C138.651 361.858 138.487 362.355 138.475 362.591C138.385 364.3 139.19 366.097 139.599 367.73C140.195 370.117 139.801 372.911 139.801 375.356C139.801 377.455 139.801 379.555 139.801 381.655C139.801 382.876 141.678 383.197 142.656 383.608C144.362 384.323 146.147 384.818 147.961 385.173C149.862 385.545 151.771 385.981 153.689 386.26C154.857 386.429 156.094 386.423 157.207 386.794" stroke="#171717" stroke-width="2" stroke-linecap="round"/>
<path d="M196.381 306.009C196.381 311.594 196.001 317.223 197.052 322.714C197.817 326.705 198.047 330.694 198.047 334.756C198.047 340.528 198.003 346.269 198.418 352.028C198.776 357.007 199.152 361.948 199.493 366.905C199.591 368.315 199.713 369.668 199.713 371.093C199.713 371.683 199.6 372.294 199.401 372.851C199.141 373.58 199.381 374.399 199.193 375.153C198.979 376.009 199.089 376.971 199.089 377.849C199.089 378.766 198.88 379.623 198.88 380.544C198.88 381.592 198.209 383.493 198.718 384.512C200.071 387.217 204.43 386.386 206.782 386.386C208.243 386.386 209.704 386.386 211.166 386.386C211.921 386.386 215.171 386.483 215.539 387.219" stroke="#171717" stroke-width="2" stroke-linecap="round"/>
<path d="M174 251.6C177.6 251.28 186 251.52 190.8 255.2" stroke="#171717" stroke-width="2" stroke-linecap="round" stroke-linejoin="round"/>
<path d="M207.51 244.849C207.51 241.372 207.867 237.639 206.836 234.265C206.418 232.894 205.639 231.638 205.169 230.28C204.919 229.555 204.561 228.89 204.222 228.203C203.928 227.607 203.743 226.956 203.423 226.376C203.174 225.926 202.528 224.525 202.783 224.972C203.434 226.111 204.68 227.017 205.552 227.991C206.684 229.257 207.792 230.84 208.537 232.364C209.21 233.74 209.998 234.927 210.433 236.417C210.691 237.301 210.592 238.264 210.592 239.174C210.592 240.065 210.592 240.955 210.592 241.846C210.592 242.176 210.678 242.476 210.695 242.793C210.71 243.069 210.706 242.828 210.798 242.668C211.13 242.087 211.29 241.247 211.54 240.613C212.014 239.411 212.506 238.29 212.853 237.039C213.738 233.854 212.673 230.925 211.26 228.1C211.073 227.724 210.887 227.332 210.69 226.969C210.502 226.626 210.446 226.274 210.233 225.942C209.99 225.564 210.295 226.408 210.341 226.513C210.689 227.304 211.258 228.003 211.728 228.722C212.641 230.118 213.444 231.494 213.881 233.112C214.175 234.205 214.244 235.499 214.372 236.628C214.468 237.488 214.561 238.386 214.491 239.254C214.466 239.574 214.446 239.954 214.389 240.27C214.334 240.57 214.312 240.075 214.349 239.956C215.508 236.148 216.974 232.071 215.833 228.077C215.644 227.417 215.057 225.484 215.057 226.17C215.057 226.419 215.325 226.77 215.422 226.992C215.722 227.683 216.166 228.34 216.529 229.002C217.833 231.372 218.299 233.803 218.299 236.474C218.299 236.757 218.196 238.601 218.196 237.547C218.196 236.777 218.552 236.07 218.87 235.384C219.349 234.349 219.898 233.297 220.246 232.21C220.674 230.87 220.868 229.629 220.868 228.225C220.868 227.848 220.807 226.845 221.096 227.712C221.368 228.528 222.08 229.281 222.101 230.178C222.108 230.511 222.276 231.865 221.998 232.004" stroke="#171717" stroke-width="4" stroke-linecap="round"/>
<path d="M193 220C197.72 222.48 206.96 231.2 206 246.4" stroke="#171717" stroke-width="2" stroke-linecap="round" stroke-linejoin="round"/>
<path d="M228.401 211.8C232.721 211.88 240.841 213.6 238.601 220C237.721 222.52 233.801 224.12 227.201 224.44M227.201 224.44C213.001 225.16 186.321 220.08 150.801 206.4C152.121 216.68 161.161 240.6 188.401 246.6C212.001 251.8 225.481 234.96 227.201 224.44Z" stroke="#171717" stroke-width="2" stroke-linecap="round" stroke-linejoin="round"/>
<path d="M228.5 212C230.78 212.03 233.112 212.594 235.18 213.5C236.692 214.16 237.91 216.878 238.25 218.483C238.4 219.205 238.433 219.805 238.423 220.565C238.408 221.685 238.484 222.046 237.436 222.592C236.711 222.983 236.022 223.694 235.18 223.843C234.097 224.069 233.131 224.537 232.086 224.883C229.354 225.808 226.627 226.373 223.707 226.335C220.827 226.298 217.951 225.981 215.115 225.664C213.198 225.439 211.165 224.853 209.332 224.309C208.694 224.101 207.971 224.331 207.334 224.163C206.696 223.995 205.856 223.944 205.177 223.855C203.66 223.675 202.182 223.456 200.666 223.157C199.229 222.898 197.833 222.6 196.438 222.222C195.082 221.884 193.691 221.146 192.374 220.969C189.857 220.657 186.426 219.972 184.325 218.505C183.532 217.975 182.572 217.922 181.817 217.512C180.347 216.733 178.829 216.634 177.233 216.293C174.242 215.574 170.884 215.371 168.101 214.054C167.226 213.643 166.186 213.67 165.391 213.299C164.237 212.764 163.003 212.348 161.806 212.093C160.051 211.71 158.574 211.411 156.943 210.71C155.949 210.257 155.398 209.57 154.238 209.555C153.878 209.55 152.321 209.33 152.044 209.086C151.054 208.313 151.517 209.64 151.589 210.241C151.77 211.723 152.43 213.292 152.49 214.813C152.617 217.334 154.139 220.274 155.714 222.215C156.226 222.862 156.375 223.744 156.927 224.351C157.519 224.998 157.828 225.843 158.218 226.608C158.803 227.735 159.71 228.787 160.416 229.836C161.123 230.846 162.027 232.097 162.896 232.989C163.765 233.84 164.797 234.413 165.707 235.185C167.171 236.484 168.794 237.785 170.542 238.688C172.251 239.59 173.963 240.253 175.878 240.637C177.633 240.98 179.38 242.003 181.136 242.386C184.446 243.148 187.37 245.907 190.73 245.95C192.53 245.973 194.331 245.917 196.087 246.219C198.362 246.609 200.557 247.037 202.917 247.068C204.477 247.088 206.324 246.512 207.693 245.85C209.424 245.032 211.074 244.253 212.805 243.435C213.61 243.046 214.02 242.251 214.785 241.861C215.47 241.51 216.518 240.843 217.045 240.33C218.382 239.067 220.513 238.215 221.494 236.587C221.943 235.873 222.512 235.2 222.961 234.526C223.491 233.733 223.705 232.656 224.116 231.821C224.691 230.628 224.812 227.509 226.099 226.926" stroke="#171717" stroke-width="2" stroke-linecap="round"/>
<path d="M206.001 246C206.501 244 205.976 239.601 205.78 238.552C205.552 237.301 205.091 235.88 204.539 234.736C204.025 233.634 202.79 232.541 202.197 231.395C201.606 230.209 201.279 228.474 200.645 227.366C199.936 226.135 198.725 225.404 197.893 224.248C196.457 222.226 196.259 221.213 194.068 220" stroke="#171717" stroke-width="2" stroke-linecap="round"/>
<path d="M94 313.5C94.68 313.58 95.6 314.98 96 315.5C96.6424 316.335 97.78 317.02 98.5 317.5C100.1 318.58 100.64 319.04 102.16 320.2C103.24 321.04 104.2 321.8 104.64 323.12C104.8 323.6 105.08 324.12 105.16 324.6C105.24 324.96 105.68 325.08 105.88 325.4" stroke="#171717" stroke-width="2" stroke-linecap="round"/>
<path d="M261.16 208.022C269.367 231.629 321.732 241.979 312.492 175.819M312.492 175.819L306.15 181.844M312.492 175.819L303.931 175.819" stroke="#171717" stroke-width="2.4" stroke-linecap="round" stroke-linejoin="round"/>
<path d="M108.519 215V325.4M108.519 325.4H87.7188M108.519 325.4L93.7188 313.2" stroke="#171717" stroke-width="2" stroke-linecap="round" stroke-linejoin="round"/>
<path d="M87.5 324.72C91.58 324.72 94.5199 324.72 98.5999 324.72C100.76 324.72 103.16 324.8 105.2 324.12C106.28 323.76 107.12 323.8 107.12 322.52C107.12 321.56 107.12 320.56 107.12 319.6C107.12 315.4 109.8 310.8 109.8 306.56C109.8 301.56 106.56 297.92 107.12 292.96C107.4 290.28 105.84 286.28 106.52 283.68C107.36 280.56 108.12 276.52 108.12 273.28C108.12 270.04 108.44 266.84 108.44 263.64C108.44 261.04 107.72 257.08 108.6 254.56C109.4 252.32 108.84 249.52 109.36 247.16C109.76 245.4 109.12 243.52 109.6 241.8C109.92 240.72 109.76 239.48 109.76 238.36C109.76 235.24 109.36 232.12 109.36 229C109.36 227.84 108.6 216.5 108.6 215.5" stroke="#171717" stroke-width="2" stroke-linecap="round"/>
<path d="M262 209.075C262.79 210.48 263.548 212.119 264.568 213.365C265.546 214.561 266.338 215.883 267.594 216.87C268.996 217.971 270.162 219.395 271.547 220.528C272.757 221.517 274.125 222.342 275.439 223.187C277.15 224.287 279.068 224.613 280.982 225.204C283.194 225.888 285.321 226.305 287.625 226.305C290.213 226.305 292.295 225.559 294.778 224.838C299.657 223.421 303.544 219.684 306.465 215.668C308.117 213.396 309.464 211.064 310.418 208.413C310.953 206.926 311.607 205.127 311.804 203.553C312.102 201.164 312.815 198.798 313.22 196.41C313.564 194.385 313.628 192.417 313.628 190.358C313.628 188.511 313.628 186.663 313.628 184.815C313.628 183.567 313.444 182.347 313.444 181.096C313.444 180.692 312.937 175.979 312.597 175.809" stroke="#171717" stroke-width="2" stroke-linecap="round"/>
<path d="M312.895 181.088C312.895 179.866 312.895 178.643 312.895 177.42C312.895 177.072 312.842 176.625 312.671 176.32C312.439 175.908 311.725 177.128 311.57 177.237C310.225 178.183 308.969 179.22 307.617 180.171C306.878 180.691 306.317 181.626 305.559 182.005" stroke="#171717" stroke-width="2" stroke-linecap="round"/>
<path d="M303.174 175.219C305.316 175.219 307.459 175.036 309.583 175.036C310.29 175.036 312.078 174.79 312.344 175.586" stroke="#171717" stroke-width="2" stroke-linecap="round"/>
<rect x="223.531" y="45.4082" width="153.346" height="76.6733" transform="rotate(-3.89009 223.531 45.4082)" stroke="#171717" stroke-width="2" stroke-linecap="round" stroke-linejoin="round"/>
<path d="M230.662 44.9238L235.864 121.421" stroke="#171717" stroke-width="2" stroke-linecap="round" stroke-linejoin="round"/>
<path d="M303.137 117.509L314.379 234.897" stroke="#171717" stroke-width="2" stroke-linecap="round"/>
<path d="M314.321 234.402C314.321 226.453 312.105 218.757 312.105 210.86C312.105 207.816 311.275 204.824 311.275 201.721C311.275 198.438 310.998 195.252 310.998 191.966C310.998 188.566 309.486 185.609 309.074 182.319C308.572 178.304 308.228 174.216 308.228 170.148C308.228 165.728 307.12 161.288 307.12 156.854C307.12 154.692 307.37 152.346 307.059 150.207C306.76 148.156 306.843 146.094 306.843 144.022C306.843 143.49 307.071 142.428 306.566 142.176" stroke="#171717" stroke-width="2" stroke-linecap="round"/>
<path d="M306.565 142.176C306.565 139.525 305.763 137.032 305.473 134.421C305.202 131.98 304.389 129.775 303.857 127.436C303.072 123.982 302.965 120.774 302.965 117.25" stroke="#171717" stroke-width="2" stroke-linecap="round"/>
<path d="M228.979 120.883C236.559 120.883 244.14 120.883 251.721 120.883C254.877 120.883 258.523 120.965 261.596 120.218C265.965 119.155 270.178 119.087 274.63 119.087C282.489 119.087 290.247 118.321 298.037 117.225C306.377 116.052 314.878 116.578 323.273 116.111C332.89 115.577 342.499 114.935 352.083 114C354.404 113.774 355.89 113.402 357.802 113.402C359.994 113.402 361.968 112.847 363.937 111.972C370.001 111.007 373.734 111.007 380.001 111.007" stroke="#171717" stroke-width="2" stroke-linecap="round"/>
<path d="M228.583 122.14C228.583 113.757 228.603 105.583 226.959 97.3606C226.327 94.2018 225.459 91.1506 225.119 87.9178C224.703 83.9727 224.339 80.0602 224.024 76.1173C223.523 69.8508 223.603 63.5338 223.603 57.2317C223.603 54.5521 223.386 51.8683 223.386 49.1722C223.386 47.9561 223.551 46.635 223.17 45.4913" stroke="#171717" stroke-width="2" stroke-linecap="round"/>
<path d="M236.667 120.167C236.667 113.478 237.33 106.236 235.696 99.7009C234.99 96.875 234.845 93.9822 234.352 91.1194C234.083 89.5585 233.99 87.9488 233.796 86.3721C233.546 84.35 233.231 82.3269 233.231 80.2804C233.231 75.426 233.383 70.5163 233.049 65.6734C232.749 61.3239 232.634 57.006 232.634 52.6434C232.634 51.1926 232.792 49.6579 232.476 48.2364C232.384 47.82 231.771 47.863 232.186 47.863C232.727 47.863 232.518 46.2872 232.335 45.9209" stroke="#171717" stroke-width="2" stroke-linecap="round"/>
<path d="M223.5 45.5066C230.259 45.5066 235.746 43.0795 242.444 43.0795C248.099 43.0795 253.798 42.7803 259.484 42.7803C271.42 42.7803 283.327 40.6856 295.276 40.6856C298.744 40.6856 302.276 40.0273 305.733 39.7712C310.865 39.3911 316.05 38.6436 321.211 38.5909C328.899 38.5125 336.543 37.9924 344.252 37.9924C349.587 37.9924 354.775 36.6512 360.046 36.4962C363.143 36.4051 366.335 35.5985 369.472 35.5985C370.511 35.5985 372.964 36.0942 373.512 35" stroke="#171717" stroke-width="2" stroke-linecap="round"/>
<path d="M373.512 35.2988C373.717 39.0009 376.827 42.4125 377.103 46.138C377.176 47.1317 377.84 48.0551 377.984 49.064C378.128 50.0759 378.302 51.05 378.532 52.0564C380.487 60.6065 380.095 69.6495 380.095 78.373C380.095 85.1602 381.292 91.936 381.292 98.7381C381.292 103.026 381.591 107.383 381.591 111.605" stroke="#171717" stroke-width="2" stroke-linecap="round"/>
<path d="M230.495 102.231C231.15 100.681 232.137 99.3513 232.917 97.8786C233.231 97.285 233.665 96.6115 233.829 95.9554C233.919 95.5962 234.27 95.4354 233.729 95.4354C232.485 95.4354 231.216 95.5619 229.982 95.699C229.564 95.7455 229.185 95.8201 228.757 95.8201C228.097 95.8201 228.443 95.5647 228.7 95.1505C229.185 94.3702 229.471 93.3543 229.854 92.5151C230.381 91.3616 231.056 90.2664 231.649 89.146C232.107 88.2816 232.389 87.3409 232.675 86.4108C232.795 86.0188 232.749 86.1763 232.475 86.3324C230.917 87.223 229.749 88.4409 227.96 88.9964C227.578 89.1147 227.407 89.0315 227.418 88.6402C227.429 88.2496 227.652 87.921 227.831 87.5861C228.433 86.4643 228.897 85.258 229.398 84.0887C230.232 82.1445 231.202 80.1389 231.706 78.0771C231.772 77.8065 232.399 76.4542 231.906 76.6881C230.477 77.3646 228.443 77.1012 226.905 77.1012C226.329 77.1012 226.373 77.0152 226.663 76.5599C228.166 74.1978 228.778 71.1334 229.598 68.4968C229.842 67.7128 230.246 66.5235 230.851 65.9184C231.097 65.6726 230.408 66.4774 230.104 66.6449C228.989 67.2577 227.959 68.1264 226.649 68.1264" stroke="#171717" stroke-width="4" stroke-linecap="round"/>
<path d="M225.751 66.2031C225.138 66.1265 225.967 62.7239 226.164 62.257C226.835 60.6668 227.588 59.1031 228.187 57.4847C228.362 57.0132 230.64 51.658 229.775 51.4659C229.056 51.3062 228.283 52.3738 227.902 52.7979C226.964 53.8416 226.175 55.0093 225.181 56.0032C225.105 56.0793 224.394 57.0762 224.241 56.7867C224.033 56.3944 224.416 55.7463 224.469 55.3621C224.646 54.0809 225.271 52.8317 225.623 51.587C225.954 50.4136 226.121 49.1438 226.584 48.0114C226.735 47.6436 227.06 46.3812 227.418 46.2021" stroke="#171717" stroke-width="4" stroke-linecap="round"/>
<path d="M229.514 104.64C229.819 104.64 231.846 104.467 231.922 104.73C232.143 105.503 231.038 107.098 230.677 107.737C230.103 108.753 229.997 110.025 229.997 111.165C229.997 111.985 231.664 110.844 232.092 110.61C232.986 110.122 233.469 110.085 233.184 111.085C232.807 112.402 232.346 113.649 232.244 115.032C232.162 116.134 232.03 117.222 232.092 118.335C232.134 119.091 232.836 118.98 233.381 118.98" stroke="#171717" stroke-width="4" stroke-linecap="round"/>
</svg>
