<svg width="400" height="444" viewBox="0 0 400 444" fill="none" xmlns="http://www.w3.org/2000/svg">
<path d="M184.681 411.4C183.861 411.4 183.041 411.32 182.241 411.17L164.271 407.78C158.141 406.63 153.681 401.26 153.681 395.01V331.21C148.071 332.22 142.461 332.72 136.961 332.72C133.781 332.72 130.601 332.55 127.511 332.21C125.281 331.97 123.051 331.64 120.841 331.24V384.23L127.941 385.57C131.261 386.2 134.161 387.92 136.101 390.42C138.391 393.37 139.311 397.16 138.621 400.82C137.461 406.96 132.091 411.41 125.851 411.41C125.021 411.41 124.181 411.33 123.361 411.17L105.431 407.78C99.301 406.63 94.841 401.26 94.841 395.01V322.43C93.381 321.68 91.941 320.88 90.521 320.05V336.41C90.521 343.58 84.691 349.41 77.521 349.41H57.061C50.001 349.41 44.021 343.83 43.731 336.97C43.531 332.27 45.941 327.88 49.781 325.43C49.451 322.01 50.481 318.62 52.701 315.94C55.191 312.93 58.841 311.21 62.731 311.21C63.331 311.21 63.931 311.25 64.531 311.33V296.95C48.881 276.42 41.621 249.41 42.951 216.62C31.721 189.09 36.181 169.31 41.951 157.52C47.841 145.48 56.411 139.09 61.101 136.31C61.241 135.74 61.401 135.17 61.571 134.6C60.921 130.41 59.951 120.49 62.931 109.72C61.801 109.8 60.711 109.83 59.681 109.83C46.311 109.83 41.771 102.99 40.251 98.9C38.041 92.98 38.441 83.87 52.841 74.09C59.471 69.59 68.601 65.07 78.561 61.37C88.521 57.66 98.3909 55.11 106.341 54.17C108.601 53.91 110.721 53.77 112.661 53.77C126.031 53.77 130.571 60.62 132.091 64.7C133.851 69.44 133.951 76.38 126.041 84.18C130.211 86.31 133.481 88.62 135.681 90.35C135.691 90.35 136.131 90.31 136.131 90.31H136.751C153.721 90.31 169.021 92.87 182.341 97.91L179.581 57.27C179.351 53.8 180.481 50.45 182.761 47.84C185.051 45.22 188.211 43.66 191.671 43.42L345.031 33H345.611C352.371 33 358.031 38.32 358.491 45.11L363.691 121.61C363.921 125.07 362.801 128.41 360.531 131.03C358.221 133.67 355.061 135.23 351.591 135.47L286.281 139.91L289.791 176.56C290.001 176.73 290.211 176.91 290.411 177.1C291.701 178.29 292.701 179.66 293.431 181.21L293.521 181.4L293.751 181.94C294.141 182.92 294.421 183.96 294.561 185.02C296.381 198.1 296.151 209.53 293.851 218.98L296.311 244.66C296.991 251.8 291.741 258.16 284.611 258.84L284.211 258.88L283.461 258.9H283.281C276.841 258.9 271.481 254.2 270.521 247.88C268.821 248.55 267.301 248.99 266.101 249.28C263.291 249.96 260.351 250.3 257.361 250.3C252.061 250.3 246.721 249.25 241.651 247.24C240.551 254.66 238.751 261.32 236.381 266.72C225.921 290.59 204.841 311.46 179.681 322.98V384.23L186.781 385.57C190.091 386.19 192.981 387.91 194.921 390.39C197.231 393.35 198.151 397.15 197.461 400.81C196.311 406.94 190.941 411.4 184.691 411.4H184.681Z" fill="white"/>
<path d="M211.36 157.84C232.56 193.72 233.68 240.56 224.48 261.48C208.84 297.16 167.48 323.48 128.92 319.28C92.2399 315.28 52.5599 285.76 55.9999 215.6" stroke="#171717" stroke-width="2" stroke-linecap="round"/>
<path d="M163.8 204.4C170.2 204.8 180.04 208.08 168.2 218" stroke="#171717" stroke-width="2" stroke-linecap="round" stroke-linejoin="round"/>
<path d="M209.88 157.6C211.36 161.84 212.88 166.04 215.48 169.32C218.52 173.16 220.32 179.52 222.8 184.04C225.16 188.4 228.8 193.36 228.8 198.44C228.8 201.92 230.96 205.44 230.96 208.96C230.96 212.28 230.96 215.6 230.96 218.92C230.96 226.04 230.6 234.2 227.16 240.52C225.84 242.92 226.72 248.28 226.44 251.04C226.12 254.12 223.88 257.12 223.56 259.92C222.84 266.2 216.08 274.2 213.28 279.88C207 292.64 197.84 300.2 185.76 307.04C182.64 308.8 179.56 309.12 176.52 310.68C173.76 312.08 169.52 315.04 166.72 315.36C160.32 316.12 152.12 319.92 145.84 320.32C141 320.6 136.36 323.16 131.36 320.32C126.6 317.64 116.48 316.8 111.2 316.48C100.56 315.88 91.2798 306.24 83.4398 299.88C79.7998 296.92 75.5198 286.72 73.1998 282.28C70.5998 277.32 68.3598 272.84 64.6398 268.64C55.2398 258.04 56.7598 243.52 56.7598 229.56C56.7598 225 56.3598 220.2 56.7598 215.6" stroke="#171717" stroke-width="2" stroke-linecap="round"/>
<path d="M163 204C164.862 204 166.729 204.074 168.514 204.68C169.272 204.938 169.888 205.536 170.508 206.018C171.234 206.583 171.634 207.477 171.983 208.308C172.467 209.463 172.74 210.469 172.74 211.737C172.74 212.761 171.849 213.837 171.11 214.488C170.129 215.351 169.081 216.349 168.355 217.438" stroke="#171717" stroke-width="2" stroke-linecap="round"/>
<path d="M78.1816 117.924C78.1816 114.555 77.8802 110.845 79.5119 107.763C80.4733 105.947 82.1354 104.619 83.6504 103.291C83.9857 102.998 84.3737 102.538 84.7497 102.312C85.3845 101.931 83.5485 103.18 82.9853 103.661C82.1174 104.402 81.2571 105.154 80.5095 106.017C80.4349 106.103 80.025 106.642 80.0985 106.238C80.1713 105.838 80.5802 105.387 80.8236 105.097C82.2334 103.418 83.6661 101.807 85.4195 100.474C88.12 98.42 91.4065 96.1734 94.9391 96.0582C95.0105 96.0559 96.0389 95.8972 96.02 96.0582C96.0024 96.2077 95.1896 96.3941 95.1239 96.4185C94.0422 96.8199 92.9681 97.2607 91.9183 97.7395C90.2844 98.4847 88.6781 99.345 87.0962 100.197C86.5603 100.485 86.0193 100.794 85.5396 101.167C85.4616 101.227 86.4224 100.763 86.5881 100.686C88.8809 99.6322 91.1805 98.5707 93.4564 97.4808C95.5321 96.4869 97.6629 95.1947 99.9645 94.8111C101.686 94.5241 103.337 94.3813 105.082 94.3954C105.514 94.3988 105.97 94.4397 106.366 94.6263C106.77 94.8163 105.625 94.129 105.244 93.8965C104.506 93.446 103.739 93.0891 102.916 92.8203C102.503 92.6856 101.791 92.6969 101.433 92.4416C101.203 92.2771 101.991 92.5423 102.265 92.6125C103.186 92.8482 104.107 93.1206 105.018 93.3977C106.266 93.7777 107.635 94.0505 108.759 94.7464C109.926 95.4688 106.224 93.6875 104.925 93.2453C103.77 92.8519 102.311 92.982 101.092 92.982C100.616 92.982 100.18 93.0919 99.7151 93.1436C99.6015 93.1563 99.4498 93.1321 99.6689 93.1667C100.345 93.2735 101.025 93.3478 101.701 93.4577C104.578 93.9256 107.394 94.6449 110.177 95.5085C111.685 95.9764 113.181 96.6849 114.727 97.0143C115.666 97.2146 116.568 97.5455 117.503 97.7626C118.191 97.9223 118.875 98.0637 119.503 98.3861C120.312 98.8016 120.758 99.5436 121.313 100.215C121.562 100.516 121.788 100.791 122.062 101.065C122.154 101.158 122.819 101.73 122.819 101.836C122.819 101.898 122.361 101.627 122.708 102.174C123.02 102.663 123.588 102.747 124.057 103.042C124.428 103.275 123.288 103.124 123.124 103.125C122.009 103.133 120.966 103.329 119.881 103.559C118.346 103.886 116.742 104.155 115.189 104.377C114.715 104.445 114.216 104.72 113.761 104.871C112.935 105.147 112.122 105.462 111.313 105.786C110.78 105.999 110.143 106.163 109.65 106.455C109.22 106.711 108.806 106.944 108.343 107.134C107.426 107.513 106.433 107.913 105.452 108.095C104.621 108.249 103.744 108.706 102.962 109.028C101.688 109.553 100.39 109.94 99.05 110.275C97.9517 110.55 96.7081 111.19 95.5581 111.19" stroke="#FFD424" stroke-width="2" stroke-linecap="round"/>
<path d="M76.0589 129.161C76.0589 126.763 75.8613 124.272 76.1589 121.892C76.2967 120.79 76.6059 119.727 76.7302 118.621C76.85 117.555 77.0902 116.362 77.4085 115.337C77.9709 113.524 78.3547 111.656 79.1152 109.91C79.4765 109.08 80.1009 108.352 80.6861 107.667C81.4671 106.754 82.1441 105.724 82.9926 104.875C83.5766 104.291 84.1961 103.695 84.6564 103.005C84.7157 102.916 85.3914 101.751 85.3062 102.433C85.1792 103.449 84.5484 104.48 84.1565 105.404C83.2571 107.524 82.4696 109.685 81.5859 111.809C80.3115 114.872 79.1898 118.117 78.5653 121.378C78.2792 122.872 78.1155 127.44 78.1155 125.919C78.1155 124.495 78.5916 123.371 79.2009 122.077C80.8458 118.584 82.5644 115.061 83.8709 111.423C85.0585 108.116 85.98 104.563 87.5555 101.412C87.649 101.225 87.9769 100.702 87.8197 100.891C87.6578 101.085 87.7208 101.64 87.684 101.876C87.5131 102.975 87.3618 104.075 87.0842 105.154C86.5454 107.248 85.9792 109.342 85.2133 111.366C84.794 112.475 84.2091 113.491 83.7709 114.587C83.175 116.077 82.766 117.635 82.4213 119.2C82.1665 120.356 81.4901 121.624 81.4573 122.806C81.4347 123.619 81.7006 122.619 81.8715 122.292C82.4609 121.163 83.2529 120.136 83.9566 119.078C85.4099 116.893 86.7055 114.638 87.9411 112.323C90.4106 107.697 92.1661 102.842 93.8964 97.9275C94.1971 97.0735 94.3106 96.0579 94.3106 95.1569C94.3106 94.951 94.4276 94.2907 94.2392 94.7213C94.024 95.213 93.7808 95.7508 93.4751 96.1923C92.8694 97.0673 92.5223 98.2389 92.0756 99.1985C91.2541 100.963 90.4988 102.745 89.6834 104.511C88.9502 106.1 88.1765 107.703 87.6269 109.367C87.1046 110.948 86.8823 112.62 86.5344 114.244C86.3386 115.158 86.1764 116.132 86.0916 117.065C86.0148 117.91 86.2665 117.14 86.6558 116.765C88.6588 114.833 90.9359 113.259 92.8682 111.223C93.8658 110.173 94.7855 109.168 95.3103 107.796C95.8853 106.292 96.2087 104.712 96.4957 103.133C96.9136 100.834 97.3446 98.481 97.5239 96.1494C97.5787 95.4367 97.6007 94.4801 97.8809 93.8144C98.8604 91.4882 96.1515 98.5571 95.2817 100.927C94.6582 102.625 93.9174 104.308 93.2109 105.975C92.2967 108.133 91.6302 110.384 90.7402 112.552C90.1755 113.927 89.5343 115.291 89.0408 116.693C89.0077 116.787 88.6741 118.135 88.9122 117.921C89.9584 116.985 91.3541 116.393 92.5397 115.636C94.9399 114.105 97.4046 112.557 99.4305 110.531C100.78 109.182 101.867 107.602 103.037 106.104C103.348 105.704 104.444 104.647 104.108 105.025C103.587 105.612 102.997 106.164 102.408 106.696C100.699 108.241 99.2724 110.029 97.4097 111.409C96.1454 112.346 91.6898 114.006 93.1824 113.508C97.0315 112.225 100.409 109.989 103.879 107.96C106.944 106.168 109.969 104.635 113.462 103.869C116.288 103.248 119.093 102.911 121.952 102.49C122.793 102.367 123.738 102.298 124.587 102.298C125.206 102.298 126.298 102.523 126.879 102.29C127.019 102.235 126.268 101.807 126.187 101.783C124.987 101.441 123.829 100.486 122.745 99.884C120.473 98.6219 118.051 97.6013 115.59 96.7635C113.037 95.8943 110.566 94.5191 107.807 94.4571C104.002 94.3716 100.208 93.9335 96.3957 94.3571C96.3006 94.3677 95.1271 94.5677 95.4674 94.5856C96.9664 94.6645 98.2 94.921 99.5447 95.671C100.441 96.1711 101.072 96.7313 100.787 97.8061C100.612 98.4688 100.182 99.0319 99.8375 99.6127C99.174 100.732 98.756 101.969 98.2665 103.169C97.7053 104.545 97.0225 105.952 96.7242 107.41C96.5437 108.293 96.6775 107.536 96.8241 107.096C97.4536 105.208 98.4014 103.5 99.4305 101.805C99.5398 101.625 100.581 99.8266 100.602 99.9412C100.805 101.059 99.9592 102.555 99.709 103.611C99.17 105.887 98.7288 108.232 98.038 110.467C97.8041 111.223 97.9995 110.491 98.2237 110.267C98.7317 109.759 99.4414 109.434 100.023 109.024C101.61 107.907 103.063 106.545 104.515 105.261C105.846 104.084 107.486 102.76 108.506 101.276C108.842 100.789 108.715 100.466 108.164 100.213C106.381 99.3919 104.487 98.9831 102.565 98.5987C101.819 98.4494 101.042 98.3942 100.309 98.1845C99.6079 97.9843 100.133 97.9275 100.552 97.9275C106.329 97.9275 112.229 97.5812 117.961 98.1845C118.039 98.1928 118.231 98.2776 118.161 98.3131C117.792 98.4973 116.599 98.062 116.29 97.9989C111.449 97.0088 106.623 95.6419 101.737 94.9141C101.425 94.8676 100.273 94.8315 101.216 94.9712C102.282 95.1293 103.292 95.5026 104.322 95.8138C107.102 96.6544 109.955 97.27 112.776 97.956C115.29 98.5672 117.839 99.0822 120.317 99.8269C121.161 100.08 121.952 100.463 122.788 100.727C123.038 100.806 122.928 100.878 122.716 100.884C121.837 100.907 120.954 100.884 120.074 100.884C115.885 100.884 111.696 100.884 107.507 100.884C107.082 100.884 106.343 100.741 105.936 100.912C105.88 100.936 107.233 101.016 107.364 101.019C109.741 101.072 112.255 101.007 114.59 101.526C114.742 101.56 114.296 101.655 114.14 101.655C111.36 101.655 108.563 101.732 105.793 101.969C103.758 102.143 101.745 102.476 99.7233 102.755C99.4019 102.799 98.42 102.94 99.3662 102.94C101.697 102.94 104.022 102.555 106.35 102.555C108.771 102.555 101.522 102.175 99.1091 101.969C98.5074 101.918 97.9448 101.792 97.3597 101.662C96.9894 101.58 98.0896 101.44 98.4665 101.398C100.116 101.212 101.773 101.113 103.422 100.912C104.169 100.821 104.993 100.856 105.721 100.655C106.001 100.578 105.163 100.601 105.122 100.598C104.013 100.514 102.913 100.498 101.801 100.498C101.75 100.498 100.857 100.473 101.187 100.57C102.498 100.952 103.947 100.992 105.286 101.276C106.696 101.576 108.19 101.825 109.556 102.298C110.883 102.757 109.148 103.095 108.606 103.283C103.985 104.889 99.4224 106.661 94.8104 108.282C94.7822 108.291 93.8569 108.653 94.2392 108.467C95.0102 108.092 95.8029 107.754 96.6028 107.446C96.9602 107.309 98.2447 106.464 98.1594 107.318C98.1072 107.84 97.703 108.283 97.3811 108.667C96.6605 109.528 95.9146 110.378 95.1603 111.209C94.5758 111.853 94.0463 112.573 93.4323 113.187C93.1429 113.477 93.1388 113.157 93.1609 112.902C93.1959 112.499 93.9391 112.025 93.7965 112.223C93.575 112.531 93.1727 112.656 92.8682 112.866C92.1927 113.33 91.5167 113.78 90.9116 114.337C88.6987 116.374 86.8299 118.744 84.6278 120.792C83.9058 121.464 83.2848 122.35 82.4856 122.927C81.5735 123.586 81.6376 122.539 81.7715 121.749C82.0255 120.25 82.7518 118.829 83.3853 117.464C84.2311 115.643 85.1256 113.846 86.0274 112.052C86.8586 110.398 87.7382 108.877 88.7908 107.36C89.7158 106.027 90.6246 104.662 91.4686 103.276C91.6851 102.92 91.7399 102.673 91.7399 102.269C91.7399 101.712 91.7399 101.155 91.7399 100.598C91.7399 99.9848 91.2994 100.081 90.7759 100.12C89.542 100.211 88.4406 101.205 87.4984 101.912" stroke="#FFD424" stroke-width="2" stroke-linecap="round"/>
<path d="M85.96 81.5727L91.32 93.9327" stroke="#171717" stroke-width="2" stroke-linecap="round" stroke-linejoin="round"/>
<path d="M74.6799 134.133C72.4799 123.493 73.2399 101.893 91.3199 93.9728C108.6 86.4128 125.52 97.6928 131 103.653" stroke="#171717" stroke-width="2" stroke-linecap="round" stroke-linejoin="round"/>
<path d="M89.2309 90.0551C107.865 83.1182 121.595 73.8023 119.9 69.2474C118.204 64.6925 101.724 66.6235 83.0903 73.5604C64.4566 80.4973 50.7257 89.8133 52.4214 94.3682C54.1171 98.9231 70.5973 96.992 89.2309 90.0551Z" stroke="#171717" stroke-width="2"/>
<path d="M129.48 103.413C128.76 102.813 127.44 102.773 126.84 102.053C125.92 100.973 124.68 99.9328 123.56 99.0528C122.24 98.0928 120.84 97.1328 119.6 96.2128C116.84 94.1728 112.92 94.6928 109.8 93.4928C108.88 93.1328 107.92 92.8928 107.04 92.4528C106.36 92.1328 105.52 91.5328 104.76 91.4928C103.92 91.4528 103.16 91.3328 102.28 91.3728C100.92 91.4128 100.16 92.2128 98.9199 92.6528C95.3199 93.8928 92.1599 96.2528 88.6399 97.4128C86.9999 97.9728 85.4799 99.2928 83.9199 100.133C82.3599 101.013 80.9599 102.373 79.9599 103.773C77.7599 106.893 76.8399 110.693 75.5599 114.213C74.4399 117.293 75.1999 121.173 75.3599 124.453C75.5199 127.853 75.1599 131.053 75.3199 134.453" stroke="#171717" stroke-width="2" stroke-linecap="round"/>
<path d="M86.3598 81.2527C86.3998 82.4127 86.1998 83.9727 86.7198 85.0127C87.1598 85.8927 87.5198 86.6527 87.9998 87.5327C89.1198 89.5727 90.7998 91.2927 90.9198 93.7727" stroke="#171717" stroke-width="2" stroke-linecap="round"/>
<path d="M90.9124 88.7126C86.5205 88.9335 82.6258 90.2589 78.441 91.3192C75.7479 91.9819 73.5933 93.3073 70.693 93.4399C69.4086 93.484 68.0413 93.97 66.7569 94.0584C65.2653 94.1909 63.8566 94.1026 62.4478 94.456C60.2519 94.9862 57.4344 94.7211 55.1556 94.8094C54.3684 94.8536 53.0425 94.456 53.0011 93.5724C52.9596 92.1586 54.1198 91.2308 54.9484 90.038C56.0671 88.4033 57.7659 87.2546 59.216 85.7967C60.4176 84.6038 61.412 84.2062 62.9865 83.4551C64.6438 82.6599 66.5083 82.2623 68.207 81.5996C70.0715 80.8485 71.9774 80.0532 73.9248 79.5231C74.6706 79.3022 75.6236 78.7278 76.2865 78.286C77.198 77.7117 78.2339 77.4908 79.2282 77.049C80.637 76.3863 82.2943 75.7678 83.7859 75.2818C85.6918 74.7074 87.8049 73.6029 89.5451 72.7193C91.2024 71.8799 92.8183 71.5707 94.5585 70.9963C97.0859 70.1569 99.5305 68.9198 102.265 68.6989C106.988 68.3013 111.878 67.7712 116.684 67.8153C117.264 67.8153 118.548 68.478 119.045 68.8315C119.957 69.45 119.957 70.2452 119.998 71.2172C120.04 72.4984 119.253 72.8961 118.548 73.8238C117.802 74.7958 116.932 75.9887 115.897 76.6956C112.126 79.3022 107.9 80.6718 103.591 82.3506C97.7903 84.648 92.8597 88.3149 86.8934 90.4356" stroke="#171717" stroke-width="2" stroke-linecap="round"/>
<path d="M57.5722 212.555C56.8481 210.926 56.2454 209.208 55.5053 207.563C55.0165 206.477 52.9834 203.593 53.8736 204.385C55.3697 205.715 56.7032 207.202 58.3336 208.41C58.6905 208.674 61.7123 211.192 60.3884 209.703C57.4819 206.433 56.2319 202.26 54.3087 198.414C53.1029 196.002 51.5238 193.975 50.5013 191.476C49.8511 189.886 50.3074 190.911 50.876 191.669C52.8083 194.246 55.3329 196.335 57.0887 199.066C58.3322 201.001 59.5816 203.563 61.2707 205.158C61.6421 205.509 61.7594 205.251 61.6575 204.844C61.2954 203.395 60.2111 202.558 59.4456 201.339C57.6193 198.43 56.4696 194.753 55.5174 191.464C55.008 189.704 54 188.204 53.3901 186.496C53.2665 186.15 52.7618 185.167 52.9066 185.505C53.2655 186.342 53.5943 187.038 54.1395 187.801C57.1935 192.077 60.425 196.409 63.8815 200.36C64.3848 200.935 65.0745 201.601 65.6704 202.064C65.8982 202.241 65.021 200.421 64.921 200.275C63.4191 198.084 62.3236 195.832 61.2707 193.398C59.6957 189.755 58.4403 186.057 56.4843 182.58C55.5268 180.878 54.9074 179 53.8736 177.358C53.7039 177.089 52.7233 175.203 53.3538 176.464C55.2138 180.184 59.1815 182.612 61.8872 185.674C63.4373 187.428 64.7054 189.367 66.1055 191.234C66.8571 192.236 67.7455 193.361 68.1844 194.546C68.4422 195.242 68.7657 195.975 69.2239 196.564C70.1856 197.801 67.6903 195.934 67.3625 195.537C65.6393 193.451 63.8534 191.233 62.5882 188.829C60.8884 185.599 60.2095 181.732 59.4335 178.204C59.1316 176.832 58.6347 175.527 58.3336 174.155C58.052 172.873 57.8169 171.558 57.1854 170.396C56.8146 169.714 56.7409 168.584 56.2184 168.003C54.7647 166.388 54.8271 169.066 55.179 170.034C55.4443 170.763 55.5239 171.567 55.7229 172.318C56.1173 173.808 56.7814 175.208 57.137 176.706C57.3411 177.565 57.5505 178.279 57.9589 179.051C58.0194 179.165 57.292 177.935 57.137 177.636C55.4882 174.457 55.968 169.54 56.9678 166.166C57.2827 165.103 57.3546 164.171 57.3546 163.072C57.3546 162.716 57.2987 162.436 57.4634 162.963C57.8287 164.132 58.1044 165.165 58.7083 166.263C60.2959 169.149 62.404 171.634 64.2078 174.373C65.7966 176.785 68.0203 178.684 69.5382 181.13C70.6956 182.994 72.0572 184.732 73.1884 186.617C73.7998 187.636 74.1353 188.893 74.8564 189.82C75.2476 190.323 75.115 191.109 75.364 191.669C75.4468 191.855 75.4924 192.454 75.3882 192.636C74.9161 193.462 72.3785 190.64 72.1489 190.364C67.8852 185.236 62.6952 180.841 60.0741 174.591C59.6989 173.696 59.3498 172.799 58.9984 171.895C58.6728 171.058 59.1518 172.943 59.2643 173.176C60.9719 176.718 62.792 180.259 64.921 183.571C66.4921 186.015 68.4342 188.01 70.1908 190.255C70.5968 190.774 71.7965 192.104 72.584 192.104C73.2653 192.104 74.87 189.77 75.4124 189.288C76.1582 188.625 77.2583 187.912 78.1319 187.427C78.5336 187.204 78.6929 187.368 78.3253 186.859C77.3531 185.512 76.0358 184.434 75.1948 182.991C72.0268 177.554 70.4914 171.403 68.2811 165.562C67.4582 163.387 66.4194 161.258 65.4044 159.156C64.8533 158.014 64.3211 156.88 63.5431 155.88C63.1223 155.339 62.6225 154.851 62.3102 155.554C61.8721 156.539 61.2564 157.091 60.5093 157.838C60.3246 158.023 58.9395 159.63 59.1434 159.857C59.2707 159.998 59.6328 160.046 59.7961 160.123C60.7545 160.57 61.36 161.555 61.9718 162.371C64.3447 165.535 66.6965 168.665 68.8371 171.992C69.8077 173.5 70.9335 174.962 71.6654 176.609C71.8085 176.931 72.6319 178.1 71.9072 177.939C70.4688 177.619 69.3645 175.55 68.6679 174.433C67.1338 171.975 65.8807 169.336 64.3166 166.903C63.3521 165.403 62.418 163.675 61.2224 162.347C61.0373 162.141 60.982 161.84 61.0653 161.549C61.2019 161.071 62.4919 162.006 62.6245 162.081C63.1844 162.397 67.145 164.583 67.145 163.906C67.145 162.938 66.4904 162.234 66.0571 161.416C65.4286 160.229 65.0211 158.935 64.8001 157.608C64.5586 156.159 64.5342 151.74 64.5342 153.209C64.5342 154.818 64.8047 156.184 64.4858 157.778C64.2288 159.063 64.5889 162.986 64.3045 161.706C63.8687 159.745 62.8927 157.932 62.4069 155.989C62.1483 154.954 63.2516 155.203 63.8815 154.853C64.7421 154.375 64.8472 152.904 65.0781 152.073C65.2542 151.439 65.1735 150.127 65.6704 151.468C65.9399 152.196 66.4883 152.877 67.0724 153.378C68.6714 154.749 70.4365 155.946 72.0522 157.306C75.5732 160.271 78.8725 163.818 81.4921 167.616C83.2427 170.155 84.9871 172.684 85.8071 175.69C85.9853 176.344 86.4765 177.548 85.2753 176.512C83.1009 174.638 81.3163 172.378 79.5461 170.13C77.5082 167.543 75.1477 165.242 73.14 162.637C71.723 160.797 70.5127 158.921 68.8855 157.294C68.3896 156.798 66.9862 154.838 67.8218 156.569C69.5247 160.096 70.7722 163.814 72.5357 167.302C74.1242 170.445 76.1435 173.171 77.9264 176.174C78.674 177.433 79.1795 178.875 80.0779 180.03C80.3334 180.358 80.5877 180.912 79.9329 180.525C78.626 179.753 77.6827 178.572 76.5002 177.648C75.4099 176.797 72.5554 173.821 73.3334 174.965C74.5072 176.691 75.9963 178.3 77.3221 179.921C78.2522 181.058 79.3259 182.741 79.7636 184.163C79.8065 184.303 80.3922 185.283 80.3922 184.876C80.3922 183.508 79.2726 182.122 78.6275 181.009C76.8062 177.866 75.9942 174.291 74.2399 171.134C73.5786 169.943 76.3849 172.813 77.4792 173.624C78.9639 174.723 80.4137 175.784 81.7217 177.092C81.9097 177.28 83.4337 178.889 83.148 178.301C82.1328 176.214 80.6874 174.247 79.4977 172.258C77.4831 168.89 75.6888 165.501 74.1312 161.899C72.9533 159.175 72.1735 156.322 70.9523 153.608C70.5223 152.652 70.0822 151.694 69.7074 150.719C69.6125 150.472 69.1648 150.007 69.1997 149.728C69.2049 149.686 70.2682 150.525 70.3359 150.574C75.8958 154.577 81.3705 158.508 85.2027 164.256C86.897 166.798 88.2635 169.548 89.9891 172.04C90.9824 173.475 89.8816 172.794 88.9859 172.064C86.4945 170.034 83.6691 167.44 81.9514 164.691C80.4068 162.22 79.2471 159.551 77.8056 157.028C77.0117 155.639 75.953 154.091 75.4124 152.605C75.1195 151.799 74.6828 151.059 74.3729 150.284C73.7665 148.768 74.5747 149.846 75.5091 150.55C79.7128 153.717 84.3001 156.418 88.6596 159.361C90.5729 160.653 91.9304 162.477 93.5789 164.039C93.8966 164.34 95.7502 166.606 94.558 165.344C93.2478 163.957 92.5855 162.08 91.4637 160.558C89.896 158.43 88.4632 156.029 86.7257 154.043C86.052 153.273 85.2932 152.321 84.816 151.42C84.5444 150.907 83.3768 150.682 82.9183 150.223C82.1903 149.495 81.0266 147.126 79.5 145.5C77.1529 143 76.2485 138.295 74.663 139C74.2675 139.176 74.0719 145.982 74.663 146.742C75.3187 147.585 76.3947 148.258 77.1529 149.027C78.6284 150.523 79.8559 152.25 81.2624 153.813C84.6935 157.625 87.645 161.82 89.6628 166.529C90.4215 168.299 91.0352 170.019 93.035 170.13C93.4818 170.155 93.6159 170.275 93.3735 169.599C92.9075 168.299 91.7879 166.993 90.9682 165.888C90.2274 164.89 89.7442 163.732 89.2156 162.612C88.8163 161.767 89.6721 162.61 89.8683 162.842C90.7044 163.83 91.4344 164.509 92.5999 165.127C93.1258 165.405 94.8327 166.981 94.1228 165.562" stroke="#171717" stroke-width="4" stroke-linecap="round"/>
<path d="M98.3843 164.2C98.3843 162.592 97.8571 161.292 97.2584 159.808C96.3308 157.509 95.4505 155.242 94.2423 153.067C92.3941 149.741 89.995 146.676 88.2518 143.324C86.5378 140.028 84.6031 136.696 82.2474 133.817C77.857 128.451 88.4084 146.244 91.7544 152.317C92.6717 153.981 93.6982 155.67 94.4786 157.404C95.0271 158.623 94.3199 157.914 93.7281 157.279C91.4103 154.789 89.8063 151.719 87.8626 148.953C86.0852 146.424 83.9413 144.131 82.2474 141.559C81.4592 140.362 80.7466 139.099 79.9263 137.931C79.5262 137.362 79.224 136.376 78.6197 135.985C78.3403 135.804 77.3522 134.679 77.619 134.679C78.7593 134.679 79.629 135.502 80.8714 135.429C81.4529 135.395 80.8714 132.918 80.8714 132.427C80.8714 131.991 80.4624 129.976 80.8714 129.925C81.4214 129.856 82.4215 128.159 82.6783 127.674C83.9026 125.361 83.6706 127.793 84.1794 128.98C85.3847 131.793 87.5568 134.257 89.1275 136.875C90.8335 139.718 92.803 142.371 94.6315 145.131C95.55 146.517 96.2412 148.038 97.1333 149.44C97.5531 150.099 98.1681 150.935 98.3843 151.691C98.6725 152.7 99.9395 154.787 100.761 155.444C100.991 155.628 103.454 158.701 103.499 158.641C103.939 158.055 99.5216 152.619 99.1348 152.025C96.68 148.252 94.8138 144.026 92.8941 139.96C91.208 136.39 89.9377 132.542 88.1267 129.05C87.2692 127.396 86.7898 125.348 86.3893 123.546C86.2637 122.98 86.8124 124.32 87.0287 124.574C89.2739 127.21 91.6324 129.788 93.7837 132.497C96.7086 136.18 99.4303 140.031 102.387 143.685C103.649 145.245 104.654 146.891 105.528 148.689C106.225 150.12 106.754 151.53 107.641 152.887C108.209 153.756 108.861 154.545 109.337 155.444C109.611 155.962 109.581 156.051 108.975 155.583C107.344 154.323 106.272 153.138 105.084 151.441C101.815 146.772 98.7938 142.128 97.1333 136.625C96.0767 133.123 95.4544 129.347 94.9373 125.728C94.5956 123.336 92.8802 118.778 92.8802 118.778C92.8802 118.778 93.3134 120.012 93.6447 120.571C95.0355 122.918 96.8657 124.927 98.5372 127.076C100.714 129.875 102.904 132.584 104.875 135.54C106.203 137.533 107.231 139.671 108.517 141.684C111.079 145.695 113.047 150.219 115.397 154.332C115.811 155.058 116.508 155.623 116.898 156.306C117.4 157.184 116.154 155.347 116.008 155.166C113.726 152.333 111.45 149.159 109.795 145.923C107.945 142.304 106.449 138.495 104.75 134.804C103.558 132.215 102.229 129.691 101.15 127.048C99.876 123.926 99.3961 120.238 97.7588 117.291C97.5225 116.866 97.199 116.677 97.6337 117.166C98.3023 117.918 98.6807 119.054 99.246 119.89C101.841 123.729 105.035 127.176 107.836 130.87C109.924 133.625 111.625 136.61 113.395 139.571C115.543 143.164 117.87 146.817 119.594 150.635C120.225 152.032 121.173 154.24 122.207 155.388C122.391 155.593 122.847 156.278 122.652 156.083C121.547 154.978 120.657 152.852 119.789 151.524C115.707 145.287 112.336 138.543 109.448 131.677C107.835 127.841 106.749 123.777 104.945 120.029C104.203 118.488 103.338 117.037 102.582 115.526C102.234 114.831 103.041 116.041 103.166 116.193C104.862 118.266 106.999 120.026 108.892 121.919C113.907 126.934 117.533 132.7 120.776 138.946C122.582 142.424 123.926 146.113 125.529 149.676C126.116 150.98 127.334 152.433 127.642 153.818C127.821 154.624 127.263 153.826 126.905 153.429C125.262 151.603 123.896 149.292 122.402 147.327C119.08 142.96 116.063 138.498 113.645 133.553C112.975 132.182 112.266 130.768 111.519 129.439C111.24 128.942 110.685 127.961 111.408 129.091C115.102 134.863 118.765 140.641 122.013 146.688C123.394 149.259 124.881 151.82 126.155 154.443C126.54 155.237 127.814 157.517 126.155 155.944C124.488 154.365 121.973 153.822 120.206 152.331C116.138 148.899 112.799 145.104 109.893 140.683C108.137 138.013 105.884 135.936 103.944 133.428C102.527 131.596 101.14 129.74 99.6352 127.979C98.3514 126.478 97.1339 124.928 95.8268 123.476C95.2386 122.822 94.9694 122.25 94.5759 121.419C94.2774 120.789 94.154 118.929 93.6308 118.667" stroke="#171717" stroke-width="4" stroke-linecap="round"/>
<path d="M137.608 154.555C136.239 150.876 134.803 147.228 133.299 143.602C131.552 139.392 130.073 134.57 127.656 130.676C125.481 127.171 122.732 123.738 121.151 119.918C120.066 117.295 118.671 114.686 116.648 112.663C116.34 112.355 115.103 110.272 114.702 110.272C114.156 110.272 115.996 113.852 116.05 113.955C118.422 118.523 120.253 123.361 122.207 128.118C125.264 135.56 128.891 142.693 132.354 149.94C133.014 151.322 133.787 152.937 134.161 154.429C134.464 155.644 134.913 155.962 133.605 154.471C125.436 145.166 121.444 133.172 114.646 122.976C112.97 120.461 111.314 118.108 109.893 115.415C109.488 114.647 107.726 112.397 109.198 114.414C111.493 117.559 113.787 120.728 116.022 123.921C118.121 126.919 119.877 130.159 122.096 133.067C123.202 134.516 120.949 131.312 120.762 131.009C119.245 128.551 117.883 126.002 116.592 123.421C115.421 121.079 114.325 118.589 113.59 116.11C113.452 115.644 112.322 112.868 111.7 113.024C111.455 113.085 114.683 118.039 114.813 118.208C117.841 122.139 120.838 126.077 123.903 129.981C125.754 132.338 127.343 134.901 129.157 137.292C130.104 138.54 130.956 139.778 131.659 141.184" stroke="#171717" stroke-width="4" stroke-linecap="round"/>
<path d="M205.713 129.675C205.713 132.2 206.722 134.396 207.715 136.68C209.017 139.676 210.321 142.652 211.662 145.631C213.083 148.789 214.391 151.899 216.096 154.93C216.399 155.469 216.665 156.02 216.972 156.556C217.694 157.821 214.693 154.72 213.719 153.637C209.176 148.583 205.119 142.345 202.225 136.194C200.617 132.778 199.073 129.347 197.457 125.936C196.789 124.525 194.175 120.622 194.955 121.975C195.782 123.409 196.208 125.298 196.818 126.84C198.344 130.699 199.912 134.546 201.335 138.445C203.194 143.54 205.448 148.496 207.909 153.331C208.503 154.498 208.828 154.389 209.5 155.5C209.718 155.861 210.595 156.69 210.195 156.556C208.681 156.052 207.926 155.488 206.964 154.332C204 150.768 201.447 146.874 199.222 142.81C196.332 137.528 193.701 132.059 191.008 126.673C190.123 124.903 189.382 123.08 188.701 121.224C188.126 119.661 187.177 118.094 186.699 116.54C186.594 116.197 185.728 115.239 186.088 115.804C186.577 116.573 186.913 117.291 187.2 118.167C188.934 123.465 190.676 128.767 192.467 134.053C194.083 138.82 196.224 143.399 197.902 148.133C198.744 150.509 200.197 152.54 201.21 154.819C201.405 155.258 201.759 155.615 201.961 156.069C202.652 157.625 200.816 154.627 200.557 154.276C197.924 150.708 195.333 147.185 193.204 143.282C190.726 138.738 188.87 133.821 186.699 129.119C185.795 127.159 184.891 125.193 184.003 123.226C183.325 121.726 182.345 120.406 181.849 118.806C181.381 117.3 180.445 115.002 180.445 113.413C180.445 113.224 180.818 114.158 180.889 114.414C181.222 115.611 181.607 116.788 182.001 117.972C183.916 123.716 185.382 129.563 187.214 135.332C188.649 139.855 189.725 144.887 191.759 149.189C192.569 150.904 193.442 152.657 194.08 154.443C194.234 154.876 195.342 156.659 194.677 156.042C192.908 154.398 191.498 152.2 190.216 150.176C187.404 145.736 185.071 141 182.752 136.291C179.896 130.491 177.53 124.209 175.191 118.194C174.193 115.629 173.462 113.066 172.745 110.411C172.554 109.707 172.289 109.073 171.994 108.409C171.627 107.584 172.367 108.837 172.439 109.16C172.655 110.131 173.456 111.08 173.954 111.926C175.381 114.351 176.86 116.741 178.193 119.223C179.69 122.01 181.043 124.842 182.446 127.674C183.634 130.071 185.029 132.479 185.824 135.04C186.198 136.246 186.701 137.427 186.949 138.668C187.007 138.954 187.2 140.104 187.2 139.933" stroke="#171717" stroke-width="4" stroke-linecap="round"/>
<path d="M190.452 156.445C190.415 156.114 190.191 155.808 190.049 155.514C189.226 153.804 188.381 152.103 187.547 150.399C185.501 146.215 183.587 141.962 181.251 137.931C178.147 132.576 175.016 127.225 171.813 121.933C169.454 118.036 166.771 114.171 164.933 110.036C164.838 109.822 164.331 108.529 164.488 108.966C165.302 111.227 167.721 113.059 169.172 114.9C171.011 117.234 172.764 119.611 174.44 122.059C174.714 122.458 176.089 124.4 175.441 122.865C175.078 122.005 174.507 121.379 173.954 120.641C173.088 119.486 172.528 118.053 171.827 116.791C170.956 115.223 170.446 113.498 169.562 111.926C169.135 111.167 168.303 110.646 167.935 109.911" stroke="#171717" stroke-width="4" stroke-linecap="round"/>
<path d="M156.927 107.659C157.06 109.118 157.851 110.483 158.484 111.773C159.566 113.98 160.6 116.209 161.681 118.417C163.006 121.124 164.23 123.993 165.378 126.784C167.909 132.939 169.977 139.276 172.925 145.27C174.621 148.717 175.694 152.447 177.567 155.819C178.315 157.165 176.951 154.783 176.789 154.513C172.738 147.76 170.435 140.048 167.491 132.788C165.604 128.137 162.796 122.732 162.681 117.583C162.666 116.88 163.19 118.363 163.237 118.472C163.928 120.05 164.819 121.524 165.739 122.976C170.79 130.942 175.245 139.262 179.458 147.688C179.98 148.733 180.64 149.705 181.056 150.802C181.168 151.097 181.378 152.178 181.793 152.261C182.755 152.454 180.667 150.652 180.055 149.884C178.668 148.142 177.418 146.203 176.317 144.269C175.124 142.176 174.125 139.993 173.217 137.764C173.145 137.588 172.444 135.963 172.592 136.11C173.164 136.682 173.548 137.506 173.954 138.195C174.786 139.611 175.859 140.854 176.886 142.129C180.046 146.048 182.1 150.951 185.448 154.693C185.545 154.801 185.872 155.293 185.587 154.888C184.872 153.872 183.943 153.017 183.197 152.025C179.739 147.427 177.856 141.852 175.427 136.708C172.816 131.18 170.36 125.578 168.06 119.918C167.306 118.061 166.06 116.368 165.183 114.553C164.448 113.029 163.568 111.575 162.737 110.105C162.579 109.826 160.727 104.721 160.485 104.962C160.019 105.429 161.069 108.191 161.18 108.715C161.949 112.33 162.193 115.665 163.571 119.181C167.009 127.955 173.214 135.224 177.679 143.449C179.87 147.486 181.93 152.013 183.197 156.445" stroke="#171717" stroke-width="4" stroke-linecap="round"/>
<path d="M174.19 156.195C173.969 153.538 172.02 150.817 170.563 148.689C167.904 144.81 165.799 140.444 163.432 136.375C159.561 129.718 155.49 123.21 151.813 116.443C150.316 113.689 149.196 110.737 147.796 107.937C147.321 106.988 146.735 106.102 146.364 105.102C146.259 104.818 145.919 104.006 145.919 104.309C145.919 105.173 146.992 106.108 147.476 106.714C150.831 110.918 154.435 115.127 157.442 119.584C161.324 125.339 164.623 131.527 168.13 137.514C169.073 139.124 170.132 140.66 171.077 142.268C171.861 143.603 171.194 142.508 170.66 141.906C166.689 137.439 164.644 131.91 162.084 126.604C159.551 121.352 156.205 115.916 154.926 110.161C154.738 109.315 153.394 106.768 152.674 106.408" stroke="#171717" stroke-width="4" stroke-linecap="round"/>
<path d="M141.654 156.533C141.605 156.014 141.398 155.541 141.22 155.054C140.555 153.234 139.946 151.397 139.356 149.551C138.595 147.167 137.947 144.716 137.078 142.371C135.751 138.79 134.381 135.211 132.699 131.779C130.377 127.043 127.749 122.459 125.756 117.568C125.202 116.208 124.352 115.038 123.813 113.662C123.358 112.499 123.184 111.221 122.876 110.023C122.675 109.238 122.607 108.154 122.216 107.449C122.038 107.13 122.01 107.015 122.206 107.479C122.849 109.002 124.062 110.525 125.046 111.838C130.978 119.748 136.337 128.278 140.954 137.026C142.957 140.821 144.863 144.641 146.802 148.466C147.714 150.266 148.997 151.908 149.889 153.693C149.966 153.846 150.718 155.533 150.954 155.439C151.029 155.409 148.695 151.859 148.577 151.661C146.686 148.498 145.071 145.099 143.429 141.799C140.781 136.479 138.796 130.875 136.328 125.477C134.989 122.547 134.082 119.476 132.64 116.591C131.083 113.477 129.764 110.424 128.606 107.183C128.494 106.868 128.501 106.522 128.518 107.084C128.558 108.488 130.097 109.93 130.904 110.95C134.651 115.686 138.151 120.549 141.555 125.536C143.775 128.789 145.735 132.255 147.69 135.675C149.864 139.481 151.767 143.483 154.041 147.223C155.327 149.338 156.469 151.552 157.542 153.782C157.825 154.37 158.065 155.167 158.518 155.646C159.159 156.322 158.673 155.28 158.479 154.995C156.797 152.528 155.797 149.677 154.613 146.957C152.837 142.88 151.153 138.783 149.642 134.6C147.477 128.604 145.592 122.51 142.995 116.69C142.269 115.063 141.39 113.508 140.766 111.838C140.293 110.57 139.883 109.193 139.307 107.972C138.995 107.311 138.452 106.398 138.291 105.674C138.168 105.119 138.199 105.52 138.36 105.842C139.059 107.239 139.991 108.456 140.954 109.678C144.662 114.384 148.391 119.249 151.24 124.54C154.078 129.811 156.868 135.039 159.228 140.547C160.666 143.901 162.212 147.235 163.844 150.498C164.36 151.53 164.843 152.59 165.432 153.584C165.546 153.777 166.09 154.609 165.974 154.541C165.112 154.034 164.581 152.669 164.081 151.878C162.466 149.325 160.741 146.846 159.14 144.284C157.974 142.419 156.748 140.561 155.816 138.564C154.715 136.205 153.916 133.722 152.798 131.365C151.819 129.299 150.738 127.233 149.652 125.221C149.238 124.454 148.915 123.665 148.538 122.883C148.431 122.661 148.222 121.966 148.222 122.213C148.222 124.709 149.518 126.658 150.619 128.86C153.326 134.275 156.463 139.549 159.011 145.034C160.091 147.357 160.975 149.777 162.069 152.085C162.414 152.814 163.651 155.646 164.732 155.646C165.124 155.646 165.681 155.311 166.063 155.212C166.866 155.003 167.775 155.113 168.597 155.113C169.193 155.113 169.747 155.084 170.314 155.291C170.597 155.394 171.057 155.641 170.669 155.182C168.527 152.651 167.232 149.34 165.757 146.415C163.781 142.493 161.107 138.987 159.14 135.053C157.624 132.022 156.387 128.87 154.593 125.98C152.66 122.866 151.31 119.428 149.287 116.374C147.187 113.205 145.762 109.724 143.607 106.611C142.231 104.623 139.679 105.632 137.571 105.398C136.83 105.315 135.83 105.23 135.125 105.013C134.611 104.855 134.775 105.023 134.997 105.418C135.631 106.544 136.151 107.566 136.605 108.8C138.238 113.245 139.903 117.661 141.565 122.094C143.466 127.164 144.744 132.358 146.269 137.539C148.052 143.592 149.643 149.832 152.66 155.389C153.41 156.77 152.167 155.862 151.556 155.251C148.555 152.25 145.444 149.547 143.686 145.606C142.036 141.909 140.127 138.264 138.143 134.738C137.801 134.13 137.307 133.501 137.048 132.854C136.888 132.453 137.325 133.674 137.482 134.077C138.719 137.238 139.878 140.49 140.845 143.742C141.646 146.431 142.207 149.267 143.252 151.878C143.834 153.333 144.163 154.806 144.849 156.178" stroke="#171717" stroke-width="4" stroke-linecap="round"/>
<path d="M220.8 157.92H106.6L56.8001 215.92C36.4001 171.52 61.2001 148.04 72.8001 145.32C74.5601 115.08 116.2 104.72 136.8 103.32C198.4 103.32 218.44 139.72 220.8 157.92Z" stroke="#171717" stroke-width="2" stroke-linejoin="round"/>
<path d="M73.0401 146.6C65.4401 146.6 55.7201 155.16 54.8401 163.04C54.5601 165.4 52.4801 167.08 52.4801 169.8C52.4801 172.12 50.7201 174.48 50.7201 176.84C50.7201 181.92 49.5601 186.6 49.5601 191.52C49.5601 193.76 49.5601 196 49.5601 198.28C49.5601 201.12 50.6401 203 50.7201 205.76C50.8001 207.92 54.9601 216.76 58.0401 214.36C62.0401 211.24 64.7201 205.52 67.0001 201.2C67.9601 199.4 70.0801 197.08 71.8401 196.04C73.6401 195 77.0801 192.48 78.1601 190.64C80.5201 186.64 83.4001 182.6 86.8001 179.2C90.5601 175.44 93.4801 171.48 96.9201 167.64C100.48 163.68 101.32 161.32 106.72 160.12C108.68 159.68 110.64 158.4 112.6 158.4C115.32 158.4 118.08 158.4 120.8 158.4C139.52 158.4 158.32 156.64 177.12 156.64C179.36 156.64 181.6 156.64 183.88 156.64C186.32 156.64 188.56 157.68 190.92 157.8C196.64 158.12 196.74 157.8 202.5 157.8C204.18 157.8 209.46 157.44 210.5 157.8C212.32 157.8 214.2 157.8 215.72 157.8C217.64 157.8 218.52 158.2 218.52 156.04C218.52 154.56 216.64 151.08 215.72 150.04C214.16 148.32 213.24 145.2 212.2 143.12C210.12 138.96 209.36 133.64 206.48 129.92C204.08 126.84 200.24 123.28 196.84 121.28C192.8 118.88 188.8 115.64 184.28 114.32C182.4 113.8 180.2 112.12 178.4 111.12C176.56 110.08 173.92 107.8 171.96 107.32C170.88 107.08 167.76 105.84 166.84 105.08C165.68 104.16 160.8 104.36 159.36 104.36C153.8 104.36 148.72 103.2 143.28 103.2C136.88 103.2 131.12 105.32 124.88 105.56C120.2 105.72 113.68 107.8 110.08 110.84C108.24 112.4 106.04 112.84 103.92 113.76C100.92 115.08 99.8001 116.12 96.2801 116.12C92.8001 116.12 85.8801 120.08 83.6801 122.88C81.5601 125.52 67.7201 143.64 72.5201 146.04" stroke="#171717" stroke-width="2" stroke-linecap="round"/>
<path d="M154.36 192C154.28 189.08 152.44 183.2 145.56 183.2C138.68 183.2 136.96 188.52 136.96 191.2" stroke="#171717" stroke-width="2" stroke-linecap="round" stroke-linejoin="round"/>
<path d="M203.96 190.8C203.88 187.88 202.04 182 195.16 182C188.28 182 186.56 187.32 186.56 190" stroke="#171717" stroke-width="2" stroke-linecap="round" stroke-linejoin="round"/>
<path d="M144.6 211.6C158.076 211.6 169 200.676 169 187.2C169 173.724 158.076 162.8 144.6 162.8C131.124 162.8 120.2 173.724 120.2 187.2C120.2 200.676 131.124 211.6 144.6 211.6Z" stroke="#171717" stroke-width="2" stroke-linecap="round" stroke-linejoin="round"/>
<path d="M193.4 211.6C206.876 211.6 217.8 200.676 217.8 187.2C217.8 173.724 206.876 162.8 193.4 162.8C179.924 162.8 169 173.724 169 187.2C169 200.676 179.924 211.6 193.4 211.6Z" stroke="#171717" stroke-width="2" stroke-linecap="round" stroke-linejoin="round"/>
<path d="M120 187.2H83" stroke="#171717" stroke-width="2" stroke-linecap="round" stroke-linejoin="round"/>
<path d="M224.6 187.2H217.8" stroke="#171717" stroke-width="2" stroke-linecap="round" stroke-linejoin="round"/>
<path d="M81.8809 187.949C86.1917 187.949 90.8448 188.378 95.0232 187.081C96.6392 186.579 98.4941 186.379 100.17 186.146C101.506 185.961 102.828 185.813 104.175 185.813C106.591 185.813 108.969 186.213 111.399 186.213C114.157 186.213 116.906 186.48 119.661 186.48" stroke="#171717" stroke-width="2" stroke-linecap="round"/>
<path d="M218.347 186.405C218.987 186.405 219.658 186.344 220.293 186.417C220.779 186.472 221.19 186.717 221.625 186.918C221.871 187.031 222.131 187.163 222.394 187.236C222.594 187.292 222.797 187.481 223.008 187.481" stroke="#171717" stroke-width="2" stroke-linecap="round"/>
<path d="M137.478 191.769C137.478 191.016 137.744 190.247 137.946 189.523C138.119 188.901 138.373 188.242 138.631 187.65C138.841 187.168 139.175 186.808 139.446 186.366C139.962 185.525 140.624 185.115 141.363 184.511C141.911 184.062 142.418 183.405 143.115 183.184C143.846 182.952 144.62 183.028 145.378 183.028C147.987 183.028 149.781 184.779 151.449 186.54C152.387 187.53 153.358 188.648 154.163 189.757C154.571 190.32 154.883 190.728 154.883 191.457" stroke="#171717" stroke-width="2" stroke-linecap="round"/>
<path d="M185.665 190.117C185.665 189.039 185.614 187.224 186.399 186.351C186.707 186.009 187.059 185.766 187.274 185.335C187.564 184.756 187.836 183.999 188.478 183.679C188.933 183.451 189.536 183.669 189.954 183.437C190.385 183.197 190.863 182.853 191.322 182.694C192.378 182.329 193.318 182.101 194.447 182.101C195.736 182.101 197.025 182.101 198.314 182.101C199.857 182.101 200.681 183.117 201.76 183.999C202.192 184.352 202.495 185.112 202.823 185.585C203.271 186.232 203.514 186.967 203.885 187.656C204.186 188.215 204.651 188.933 204.651 189.586C204.651 189.818 204.655 191.093 204.792 190.82" stroke="#171717" stroke-width="2" stroke-linecap="round"/>
<path d="M138.12 164.12C136.4 164.12 134.64 165.04 133.12 165.92C131.56 166.8 130.4 167.96 129.24 169.32C128.28 170.44 127 171.84 126.32 173.08C125.8 174 125.12 174.76 124.64 175.68C124.28 176.36 124.28 177.16 123.92 177.84C123.28 179.08 123.2 181.4 122.92 182.76C122.6 184.36 122.6 186.04 122.6 187.68C122.6 189.44 122.44 191.56 122.92 193.2C123.24 194.32 123.48 196.72 124.16 197.64C126 200.04 128.2 202.52 130.32 204.72C131.28 205.76 132.48 206.6 133.56 207.48C134.08 207.92 135.32 208.16 136 208.48C136.72 208.8 137.56 209.4 138.36 209.4C140.16 209.4 141.44 210.44 143.08 210.92C143.72 211.12 147.8 211.32 148.2 210.8C148.56 210.36 149.76 210.24 150.24 209.96C151.2 209.44 151.96 208.6 153 208.16C154.4 207.64 156.4 207.08 157.52 205.92C159.32 204 160.96 202 162.8 200.04C163.76 199 164.08 197.4 164.68 196.08C165.36 194.64 166.68 192.6 166.68 191C166.68 187.6 167.44 183.92 166.68 180.52C166.36 179.08 166.2 177.48 165.48 176.2C164.64 174.68 163.8 173.84 162.6 172.6C160.28 170.16 157.56 167.52 154.6 165.96C152.72 164.96 151.76 164.36 149.6 164.36C147.88 164.36 146.16 163.44 144.48 163.44C142.84 163.44 141.2 163.12 139.48 163.12C137.96 163.12 135.12 163.24 133.92 164.2C133.12 164.84 132.04 165.08 131.12 165.52C130.28 165.92 129.88 166.56 129.2 167.28C128.04 168.48 126.36 171.08 125.32 173.48" stroke="#171717" stroke-width="2" stroke-linecap="round"/>
<path d="M174.04 199.6C174.52 201.32 175.84 202.88 177.04 204.2C178.28 205.56 179.64 206.44 181.24 207.28C182.52 207.96 184.2 208.92 185.56 209.32C186.52 209.6 187.44 210.12 188.44 210.4C189.2 210.6 189.92 210.4 190.68 210.6C192 210.96 194.16 210.44 195.56 210.4C197.12 210.36 198.68 209.88 200.24 209.48C201.84 209.04 203.88 208.64 205.32 207.8C206.28 207.2 208.44 206.36 209.12 205.44C210.88 202.96 212.56 200.12 214.04 197.44C214.72 196.2 215.2 194.8 215.76 193.48C216.04 192.84 215.92 191.52 216.04 190.76C216.16 189.92 216.48 188.96 216.28 188.16C215.8 186.32 216.4 184.76 216.4 183C216.4 182.32 215.48 178.12 214.88 177.84C214.36 177.6 213.92 176.4 213.56 175.96C212.8 175.12 211.8 174.56 211.16 173.6C210.28 172.32 209.24 170.44 207.88 169.6C205.6 168.24 203.28 167.08 201 165.72C199.8 165 198.2 165.08 196.84 164.8C195.32 164.48 193.04 163.64 191.56 164.04C188.4 164.88 184.8 165.04 181.8 166.64C180.52 167.32 179.08 167.92 178.08 168.92C176.88 170.12 176.36 171.2 175.52 172.72C173.88 175.68 172.16 179.08 171.52 182.48C171.12 184.64 170.8 185.76 171.36 187.92C171.84 189.64 171.44 191.64 171.88 193.36C172.32 195 172.48 196.76 172.96 198.48C173.36 200.04 174.24 202.88 175.48 203.84C176.32 204.48 176.8 205.52 177.44 206.36C178.04 207.12 178.76 207.32 179.6 207.84C181.04 208.72 183.92 209.8 186.4 210.24" stroke="#171717" stroke-width="2" stroke-linecap="round"/>
<path d="M107.84 315V395L125.84 398.4" stroke="#171717" stroke-width="2" stroke-linecap="round" stroke-linejoin="round"/>
<path d="M166.68 315V395L184.68 398.4" stroke="#171717" stroke-width="2" stroke-linecap="round" stroke-linejoin="round"/>
<path d="M106.314 315.57C106.314 321.229 106.145 326.858 106.848 332.479C107.697 339.27 108.108 346.139 108.671 352.961C108.921 355.991 108.9 359.126 108.598 362.152C108.329 364.838 108.182 367.563 107.842 370.238C107.744 371.012 107.932 371.841 107.723 372.596C107.65 372.858 107.486 373.354 107.474 373.591C107.384 375.299 108.189 377.096 108.598 378.73C109.194 381.116 108.8 383.911 108.8 386.355C108.8 388.455 108.8 390.555 108.8 392.655C108.8 393.876 110.677 394.197 111.655 394.607C113.361 395.322 115.146 395.818 116.96 396.173C118.861 396.545 120.77 396.981 122.688 397.259C123.856 397.429 125.093 397.423 126.206 397.794" stroke="#171717" stroke-width="2" stroke-linecap="round"/>
<path d="M165.381 317.009C165.381 322.594 165 328.223 166.051 333.714C166.816 337.705 167.046 341.695 167.046 345.757C167.046 351.528 167.002 357.269 167.417 363.028C167.775 368.007 168.151 372.948 168.492 377.905C168.59 379.316 168.712 380.668 168.712 382.093C168.712 382.683 168.599 383.295 168.4 383.851C168.14 384.58 168.38 385.4 168.192 386.154C167.978 387.009 168.088 387.971 168.088 388.849C168.088 389.766 167.879 390.623 167.879 391.544C167.879 392.592 167.208 394.493 167.717 395.512C169.07 398.217 173.429 397.386 175.781 397.386C177.242 397.386 178.703 397.386 180.165 397.386C180.92 397.386 184.17 397.483 184.538 398.219" stroke="#171717" stroke-width="2" stroke-linecap="round"/>
<path d="M143 262.6C146.6 262.28 155 262.52 159.8 266.2" stroke="#171717" stroke-width="2" stroke-linecap="round" stroke-linejoin="round"/>
<path d="M176.51 255.848C176.51 252.371 176.867 248.639 175.836 245.264C175.418 243.894 174.639 242.638 174.169 241.28C173.919 240.555 173.561 239.889 173.222 239.202C172.928 238.606 172.743 237.955 172.423 237.375C172.174 236.925 171.528 235.524 171.783 235.971C172.434 237.111 173.68 238.017 174.552 238.991C175.684 240.256 176.792 241.839 177.537 243.364C178.21 244.74 178.998 245.927 179.433 247.417C179.691 248.301 179.592 249.263 179.592 250.174C179.592 251.064 179.592 251.955 179.592 252.845C179.592 253.176 179.678 253.475 179.695 253.793C179.71 254.069 179.706 253.828 179.798 253.667C180.13 253.086 180.29 252.246 180.54 251.612C181.014 250.411 181.506 249.29 181.853 248.039C182.738 244.853 181.673 241.924 180.26 239.099C180.073 238.724 179.887 238.332 179.69 237.969C179.502 237.626 179.446 237.274 179.233 236.941C178.99 236.563 179.295 237.407 179.341 237.512C179.689 238.303 180.258 239.002 180.728 239.722C181.641 241.117 182.444 242.493 182.881 244.111C183.175 245.204 183.244 246.498 183.372 247.628C183.468 248.487 183.561 249.385 183.491 250.254C183.466 250.574 183.446 250.954 183.389 251.27C183.334 251.57 183.312 251.075 183.349 250.956C184.508 247.147 185.974 243.07 184.833 239.076C184.644 238.417 184.057 236.484 184.057 237.17C184.057 237.419 184.325 237.77 184.422 237.992C184.722 238.683 185.166 239.34 185.529 240.001C186.833 242.372 187.299 244.802 187.299 247.474C187.299 247.757 187.196 249.6 187.196 248.547C187.196 247.776 187.552 247.07 187.87 246.383C188.349 245.349 188.898 244.296 189.246 243.209C189.674 241.869 189.868 240.629 189.868 239.225C189.868 238.847 189.807 237.844 190.096 238.711C190.368 239.528 191.08 240.28 191.101 241.177C191.108 241.51 191.276 242.865 190.998 243.004" stroke="#171717" stroke-width="4" stroke-linecap="round"/>
<path d="M162 231C166.72 233.48 175.96 242.2 175 257.4" stroke="#171717" stroke-width="2" stroke-linecap="round" stroke-linejoin="round"/>
<path d="M197.4 222.8C201.72 222.88 209.84 224.6 207.6 231C206.72 233.52 202.8 235.12 196.2 235.44M196.2 235.44C182 236.16 155.32 231.08 119.8 217.4C121.12 227.68 130.16 251.6 157.4 257.6C181 262.8 194.48 245.96 196.2 235.44Z" stroke="#171717" stroke-width="2" stroke-linecap="round" stroke-linejoin="round"/>
<path d="M197.5 223C199.78 223.03 202.111 223.593 204.179 224.5C205.691 225.16 206.91 227.878 207.249 229.482C207.4 230.204 207.432 230.805 207.422 231.565C207.408 232.684 207.483 233.045 206.436 233.592C205.711 233.983 205.021 234.694 204.179 234.843C203.096 235.069 202.13 235.536 201.086 235.883C198.354 236.808 195.626 237.372 192.706 237.335C189.827 237.297 186.95 236.98 184.114 236.663C182.197 236.439 180.164 235.852 178.331 235.308C177.694 235.1 176.971 235.331 176.333 235.163C175.695 234.994 174.856 234.943 174.177 234.855C172.659 234.675 171.182 234.456 169.665 234.156C168.229 233.898 166.832 233.599 165.437 233.221C164.081 232.884 162.691 232.146 161.373 231.969C158.857 231.656 155.426 230.972 153.324 229.504C152.531 228.974 151.572 228.922 150.817 228.512C149.347 227.733 147.828 227.633 146.232 227.292C143.241 226.574 139.884 226.37 137.101 225.054C136.226 224.643 135.185 224.669 134.39 224.299C133.237 223.764 132.002 223.348 130.805 223.092C129.05 222.71 127.574 222.411 125.943 221.709C124.949 221.256 124.398 220.569 123.238 220.554C122.878 220.55 121.32 220.329 121.044 220.086C120.053 219.313 120.516 220.639 120.589 221.24C120.769 222.722 121.429 224.291 121.489 225.812C121.617 228.334 123.139 231.274 124.714 233.214C125.226 233.861 125.374 234.743 125.926 235.35C126.518 235.998 126.827 236.842 127.217 237.607C127.803 238.735 128.709 239.787 129.416 240.836C130.123 241.845 131.027 243.097 131.895 243.988C132.764 244.84 133.797 245.413 134.707 246.185C136.17 247.484 137.794 248.785 139.542 249.688C141.25 250.59 142.962 251.252 144.877 251.637C146.633 251.98 148.38 253.002 150.135 253.385C153.445 254.148 156.37 256.906 159.73 256.95C161.53 256.973 163.33 256.916 165.087 257.219C167.362 257.608 169.556 258.037 171.916 258.067C173.476 258.087 175.324 257.511 176.692 256.849C178.423 256.031 180.073 255.253 181.804 254.435C182.609 254.045 183.02 253.251 183.785 252.86C184.469 252.509 185.518 251.843 186.045 251.33C187.381 250.067 189.512 249.214 190.493 247.587C190.943 246.873 191.511 246.2 191.96 245.526C192.491 244.732 192.705 243.655 193.115 242.82C193.691 241.628 193.811 238.509 195.099 237.926" stroke="#171717" stroke-width="2" stroke-linecap="round"/>
<path d="M175 257C175.5 255 174.975 250.601 174.778 249.552C174.551 248.301 174.09 246.88 173.537 245.736C173.023 244.634 171.788 243.541 171.196 242.395C170.605 241.209 170.277 239.474 169.643 238.366C168.934 237.135 167.724 236.404 166.892 235.248C165.455 233.226 165.258 232.213 163.067 231" stroke="#171717" stroke-width="2" stroke-linecap="round"/>
<path d="M63 324.5C63.68 324.58 64.6 325.98 65 326.5C65.6424 327.335 66.78 328.02 67.5 328.5C69.1 329.58 69.6399 330.04 71.1599 331.2C72.2399 332.04 73.1999 332.8 73.6399 334.12C73.7999 334.6 74.0799 335.12 74.1599 335.6C74.2399 335.96 74.6799 336.08 74.8799 336.4" stroke="#171717" stroke-width="2" stroke-linecap="round"/>
<path d="M230.16 219.022C238.367 242.629 290.732 252.98 281.492 186.82M281.492 186.82L275.15 192.844M281.492 186.82L272.931 186.82" stroke="#171717" stroke-width="2.4" stroke-linecap="round" stroke-linejoin="round"/>
<path d="M77.5197 226V336.4M77.5197 336.4H56.7197M77.5197 336.4L62.7197 324.2" stroke="#171717" stroke-width="2" stroke-linecap="round" stroke-linejoin="round"/>
<path d="M56.5 335.72C60.58 335.72 63.5199 335.72 67.5999 335.72C69.7599 335.72 72.1599 335.8 74.1999 335.12C75.2799 334.76 76.1199 334.8 76.1199 333.52C76.1199 332.56 76.1199 331.56 76.1199 330.6C76.1199 326.4 78.7999 321.8 78.7999 317.56C78.7999 312.56 75.5599 308.92 76.1199 303.96C76.3999 301.28 74.8399 297.28 75.5199 294.68C76.3599 291.56 77.1199 287.52 77.1199 284.28C77.1199 281.04 77.4399 277.84 77.4399 274.64C77.4399 272.04 76.7199 268.08 77.5999 265.56C78.3999 263.32 77.8399 260.52 78.3599 258.16C78.7599 256.4 78.1199 254.52 78.5999 252.8C78.9199 251.72 78.7599 250.48 78.7599 249.36C78.7599 246.24 78.3599 243.12 78.3599 240C78.3599 238.84 77.5999 227.5 77.5999 226.5" stroke="#171717" stroke-width="2" stroke-linecap="round"/>
<path d="M231 220.076C231.79 221.481 232.548 223.119 233.568 224.365C234.546 225.562 235.338 226.884 236.594 227.87C237.996 228.972 239.162 230.395 240.547 231.528C241.757 232.518 243.125 233.342 244.439 234.188C246.15 235.287 248.068 235.613 249.982 236.205C252.194 236.889 254.321 237.305 256.625 237.305C259.213 237.305 261.295 236.559 263.778 235.838C268.657 234.422 272.544 230.684 275.465 226.668C277.117 224.397 278.464 222.065 279.418 219.414C279.953 217.926 280.607 216.128 280.804 214.553C281.102 212.165 281.815 209.799 282.22 207.411C282.564 205.385 282.628 203.417 282.628 201.359C282.628 199.511 282.628 197.663 282.628 195.816C282.628 194.567 282.444 193.348 282.444 192.097C282.444 191.693 281.937 186.979 281.597 186.809" stroke="#171717" stroke-width="2" stroke-linecap="round"/>
<path d="M281.894 192.088C281.894 190.865 281.894 189.643 281.894 188.42C281.894 188.072 281.841 187.625 281.67 187.32C281.438 186.908 280.724 188.127 280.569 188.237C279.224 189.183 277.968 190.22 276.616 191.171C275.877 191.691 275.316 192.626 274.558 193.005" stroke="#171717" stroke-width="2" stroke-linecap="round"/>
<path d="M272.174 186.219C274.316 186.219 276.459 186.036 278.583 186.036C279.29 186.036 281.078 185.79 281.344 186.586" stroke="#171717" stroke-width="2" stroke-linecap="round"/>
<rect x="192.531" y="56.4083" width="153.346" height="76.6733" transform="rotate(-3.89009 192.531 56.4083)" stroke="#171717" stroke-width="2" stroke-linecap="round" stroke-linejoin="round"/>
<path d="M199.662 55.9234L204.864 132.42" stroke="#171717" stroke-width="2" stroke-linecap="round" stroke-linejoin="round"/>
<path d="M272.137 128.509L283.38 245.897" stroke="#171717" stroke-width="2" stroke-linecap="round"/>
<path d="M283.321 245.402C283.321 237.453 281.105 229.757 281.105 221.861C281.105 218.816 280.274 215.825 280.274 212.721C280.274 209.438 279.997 206.252 279.997 202.966C279.997 199.566 278.485 196.61 278.074 193.319C277.572 189.304 277.228 185.216 277.228 181.148C277.228 176.729 276.12 172.288 276.12 167.855C276.12 165.692 276.369 163.346 276.058 161.208C275.76 159.156 275.843 157.094 275.843 155.022C275.843 154.49 276.071 153.428 275.566 153.176" stroke="#171717" stroke-width="2" stroke-linecap="round"/>
<path d="M275.566 153.176C275.566 150.525 274.763 148.032 274.473 145.421C274.202 142.98 273.389 140.775 272.858 138.436C272.073 134.982 271.965 131.774 271.965 128.25" stroke="#171717" stroke-width="2" stroke-linecap="round"/>
<path d="M197.978 131.882C205.559 131.882 213.14 131.882 220.72 131.882C223.877 131.882 227.522 131.965 230.595 131.217C234.965 130.155 239.177 130.087 243.629 130.087C251.488 130.087 259.246 129.321 267.036 128.225C275.377 127.052 283.878 127.578 292.272 127.111C301.89 126.577 311.498 125.935 321.083 125C323.403 124.773 324.889 124.401 326.802 124.401C328.994 124.401 330.968 123.846 332.936 122.972C339 122.007 342.734 122.007 349 122.007" stroke="#171717" stroke-width="2" stroke-linecap="round"/>
<path d="M197.583 133.14C197.583 124.757 197.603 116.583 195.959 108.361C195.327 105.202 194.459 102.151 194.119 98.9178C193.703 94.9727 193.339 91.0602 193.024 87.1173C192.523 80.8508 192.603 74.5338 192.603 68.2317C192.603 65.5521 192.386 62.8683 192.386 60.1722C192.386 58.9561 192.551 57.635 192.17 56.4913" stroke="#171717" stroke-width="2" stroke-linecap="round"/>
<path d="M205.668 131.168C205.668 124.478 206.33 117.236 204.697 110.701C203.99 107.875 203.846 104.983 203.352 102.12C203.083 100.559 202.991 98.9491 202.796 97.3725C202.547 95.3504 202.232 93.3272 202.232 91.2807C202.232 86.4264 202.383 81.5166 202.049 76.6738C201.749 72.3242 201.634 68.0064 201.634 63.6437C201.634 62.193 201.792 60.6583 201.477 59.2368C201.384 58.8204 200.771 58.8633 201.186 58.8633C201.728 58.8633 201.519 57.2876 201.335 56.9212" stroke="#171717" stroke-width="2" stroke-linecap="round"/>
<path d="M192.5 56.5066C199.259 56.5066 204.746 54.0795 211.444 54.0795C217.099 54.0795 222.798 53.7803 228.484 53.7803C240.42 53.7803 252.327 51.6856 264.276 51.6856C267.744 51.6856 271.276 51.0273 274.733 50.7712C279.865 50.3911 285.05 49.6436 290.211 49.5909C297.899 49.5125 305.543 48.9924 313.252 48.9924C318.587 48.9924 323.775 47.6512 329.046 47.4962C332.143 47.4051 335.335 46.5985 338.472 46.5985C339.511 46.5985 341.964 47.0942 342.512 46" stroke="#171717" stroke-width="2" stroke-linecap="round"/>
<path d="M342.512 46.2991C342.717 50.0011 345.827 53.4127 346.103 57.1383C346.176 58.1319 346.84 59.0553 346.984 60.0642C347.128 61.0762 347.302 62.0502 347.532 63.0566C349.487 71.6067 349.095 80.6497 349.095 89.3733C349.095 96.1604 350.292 102.936 350.292 109.738C350.292 114.026 350.591 118.383 350.591 122.606" stroke="#171717" stroke-width="2" stroke-linecap="round"/>
<path d="M199.496 113.231C200.15 111.681 201.138 110.352 201.918 108.879C202.232 108.285 202.665 107.612 202.829 106.956C202.919 106.596 203.271 106.436 202.73 106.436C201.486 106.436 200.216 106.562 198.983 106.699C198.564 106.746 198.185 106.82 197.758 106.82C197.097 106.82 197.444 106.565 197.701 106.151C198.185 105.37 198.471 104.355 198.855 103.515C199.382 102.362 200.057 101.267 200.65 100.146C201.107 99.2819 201.389 98.3412 201.675 97.411C201.796 97.019 201.749 97.1766 201.476 97.3327C199.918 98.2232 198.75 99.4412 196.96 99.9966C196.579 100.115 196.408 100.032 196.419 99.6405C196.43 99.2499 196.652 98.9213 196.832 98.5863C197.434 97.4646 197.898 96.2583 198.399 95.089C199.232 93.1447 200.203 91.1392 200.707 89.0773C200.773 88.8067 201.4 87.4544 200.906 87.6884C199.478 88.3649 197.443 88.1015 195.906 88.1015C195.329 88.1015 195.374 88.0155 195.664 87.5601C197.167 85.198 197.778 82.1336 198.598 79.4971C198.842 78.7131 199.247 77.5237 199.852 76.9186C200.098 76.6728 199.409 77.4776 199.104 77.6451C197.99 78.258 196.96 79.1267 195.649 79.1267" stroke="#171717" stroke-width="4" stroke-linecap="round"/>
<path d="M194.752 77.2033C194.139 77.1268 194.968 73.7242 195.165 73.2573C195.836 71.667 196.589 70.1033 197.188 68.485C197.363 68.0134 199.641 62.6582 198.776 62.4662C198.057 62.3064 197.284 63.3741 196.903 63.7981C195.965 64.8418 195.176 66.0096 194.182 67.0034C194.106 67.0796 193.395 68.0765 193.242 67.7869C193.034 67.3947 193.417 66.7466 193.47 66.3624C193.647 65.0811 194.272 63.8319 194.624 62.5873C194.955 61.4139 195.122 60.144 195.585 59.0116C195.736 58.6438 196.061 57.3814 196.419 57.2024" stroke="#171717" stroke-width="4" stroke-linecap="round"/>
<path d="M198.513 115.64C198.819 115.64 200.846 115.466 200.921 115.729C201.142 116.502 200.038 118.098 199.677 118.737C199.103 119.753 198.997 121.025 198.997 122.165C198.997 122.985 200.663 121.843 201.091 121.61C201.986 121.122 202.469 121.085 202.183 122.084C201.807 123.402 201.346 124.648 201.243 126.032C201.162 127.133 201.029 128.221 201.091 129.335C201.133 130.091 201.835 129.979 202.38 129.979" stroke="#171717" stroke-width="4" stroke-linecap="round"/>
</svg>
