<?xml version="1.0" encoding="UTF-8"?>
<svg width="220px" height="260px" viewBox="0 0 220 260" version="1.1" xmlns="http://www.w3.org/2000/svg" xmlns:xlink="http://www.w3.org/1999/xlink">
    <g id="About" stroke="none" stroke-width="1" fill="none" fill-rule="evenodd">
        <g transform="translate(-610.000000, -288.000000)" id="Header">
            <g>
                <path d="M720,548 C780.680303,548 830,499.977158 830,440.574106 C830,411.546232 818.147253,374.198045 799.405113,344.084635 C777.879949,309.499677 749.991051,288 720,288 C690.008949,288 662.120051,309.499677 640.594887,344.084635 C621.852747,374.198045 610,411.546232 610,440.574106 C610,499.977158 659.319697,548 720,548 Z M720,525.028112 C671.84618,525.028112 632.938389,487.143396 632.938389,440.574106 C632.938389,416.094539 643.48006,382.877572 660.061512,356.235786 C677.829901,327.686923 699.512269,310.971888 720,310.971888 C740.487731,310.971888 762.170099,327.686923 779.938488,356.235786 C796.51994,382.877572 807.061611,416.094539 807.061611,440.574106 C807.061611,487.143396 768.15382,525.028112 720,525.028112 Z" id="1.-Logo-/-Symbol-/-White" fill="#FFFFFF"></path>
            </g>
        </g>
    </g>
</svg>