<svg xmlns="http://www.w3.org/2000/svg" viewBox="0 0 483 483"><g fill="none" fill-rule="evenodd"><path fill-opacity=".01" fill="#EDF0F2" d="M0 0h483v483H0z"/><path d="M286.488 6.152c6.24-2.34 15.02-1.34 19.72 5.1.178.241.325.503.44.78a7.67 7.67 0 004.49 3.75c1.05.34 2.24.68 3.5 1.05 4.96 1.45 11.13 3.22 15.9 6.45v.12a3.81 3.81 0 11-4.27 6.31c-3.75-2.55-9.3-4.16-13.75-5.44-1.34-.39-2.6-.76-3.71-1.11a15.32 15.32 0 01-8.92-7.56c-2.5-3.1-7.33-3.46-10.7-2.2-1.93.72-5.1 2.57-4.73 6.85.73 8.4.55 23.27-7.88 33 2.51 3.94 5.89 11.56 2.41 20-4.82 11.7-21.11 20.02-48.56 24.86 1.63.27 3.24.61 4.84 1 28.14 6.87 42.24-.8 55.35-10 12.34-8.67 9.54-21.15 9.41-21.67a1.89 1.89 0 00-.05-.23l-6.13-34.33a3.81 3.81 0 017.5-1.34l6.06 34.23c.42 1.88 3.6 18.3-12.48 29.58-8.65 6.07-18.18 11.78-31.53 13.49v18.353c7.153.318 25.396 2.47 44.92 14.867 14.38 9.14 26.45 21.96 35.9 38.14 1.1 1.88 2.18 3.8 3.18 5.8.04.09.13.17.13.26 9.83 18.92 16.37 42.1 19.44 68.92v.08a130 130 0 01.25 15.75l-2.19 117.77a3.81 3.81 0 01-3.81 3.74h-27.08a3.82 3.82 0 010-7.63h16.6l-13.43-9.05a3.81 3.81 0 014.26-6.32l16 10.78 1.17-63.59a103.16 103.16 0 01-20.48 34.84c-11.33 12.42-25.64 21.06-42.76 25.86l2.28 87 21.36 5.29a3.81 3.81 0 01-.92 7.51c-.31 0-.62-.035-.92-.11l-24.17-6a3.81 3.81 0 01-2.89-3.6l-2.32-88.3a136.47 136.47 0 01-27.54 2.66c-15.887-.014-30.11-2.32-42.67-6.92l2.34 89.46 21.36 5.29a3.81 3.81 0 01-.91 7.51 3.62 3.62 0 01-.92-.11l-24.18-6a3.82 3.82 0 01-2.89-3.6l-2.51-95.78a86.51 86.51 0 01-25.24-17.85v37.69a3.84 3.84 0 01-.07.76c-.03.13-.07.26-.11.37-.04.11-.06.23-.11.34a4.58 4.58 0 01-.37.69 3.23 3.23 0 01-.41.49l-.1.1a3.31 3.31 0 01-.5.41l-.177.111a3.29 3.29 0 01-.373.189l-.13.06a4.31 4.31 0 01-.61.19h-.14a3.81 3.81 0 01-.67.07h-27.09a3.81 3.81 0 110-7.62h14.6l-11.44-7.68a3.81 3.81 0 014.26-6.32l15.88 10.63v-39.32c-27.88-36.77-23.59-87.5-23.38-89.77 3.42-29.82 11.07-55.06 22.76-75.06.61-1.07 1.22-2.07 1.85-3.07-2.44-1.55-16.07-9.68-29.22-4.55-11.94 4.65-20.57 18.7-25.68 41.78a3.81 3.81 0 01-4.54 2.91 3.82 3.82 0 01-2.9-4.54c5.7-25.76 15.93-41.66 30.42-47.26 16.72-6.48 32.94 3.22 36.14 5.32a106.84 106.84 0 0129.81-28.72c11.37-7.22 22.307-10.92 30.87-12.825v-20.755c-3.14-.46-6.44-1.1-9.93-1.95a69.67 69.67 0 00-18.28-1.94 80.5 80.5 0 00-21 3 3.82 3.82 0 01-1.65.13c-1.36-.23-5.86-1.17-6.61-5a5.26 5.26 0 01-.09-.95l-6.94-.36a4.78 4.78 0 01-1.3-9.29c10.21-3.5 36.35-12.98 57.21-25.29 15.51-9.16 22.25-11.33 26.71-12.76 3.22-1.04 4.56-1.47 7.62-4.15 6.09-5.32 8.92-15.94 7.77-29.13-.57-6.59 3.12-12.2 9.65-14.64zm-34.54 157.43c-1.28 2.18-2.67 4.39-4.21 6.61-12.18 17.65-35.47 39.4-77.27 42.79a219.39 219.39 0 00-9.08 43.07c-.04.4-3.5 41.7 15.8 75.17v-74.75a3.81 3.81 0 117.62 0v85.94c1.08 1.34 2.2 2.66 3.37 3.94 16.86 18.47 41.14 27.83 72.22 27.83s55.39-9.37 72.25-27.86c31.16-34.2 26.88-88.67 26.76-90.32-2.84-25-8.9-46.65-17.84-64.5-60.04-.59-88.34-26.7-89.62-27.92zm56.02 82.96a3.3 3.3 0 013.25 3.8c-1.87 12.949-12.966 22.56-26.05 22.56-13.083 0-24.18-9.611-26.05-22.56a3.3 3.3 0 013.25-3.8zm-22.87 12.27a17.47 17.47 0 00-10.87 4.29s3.43 4 10.87 4c7.43 0 10.29-4 10.29-4a15.12 15.12 0 00-10.29-4.29zm-27.89-39.32c6.145.005 11.125 4.985 11.13 11.13a2.86 2.86 0 11-5.72 0 5.41 5.41 0 10-10.82 0 2.86 2.86 0 11-5.72 0c.011-6.143 4.988-11.12 11.13-11.13zm55.92 0c6.145.005 11.125 4.985 11.13 11.13a2.86 2.86 0 11-5.72 0 5.41 5.41 0 10-10.82 0 2.86 2.86 0 11-5.72 0c.006-6.145 4.985-11.125 11.13-11.13zm-162.75-21.14a3.81 3.81 0 013.81 3.81v20.19a3.81 3.81 0 11-7.62 0v-20.19a3.81 3.81 0 013.81-3.81zm-16.94 3.24a3.81 3.81 0 014.34-3.19 3.79 3.79 0 013.19 4.31l-2.79 18.49a3.8 3.8 0 01-3.76 3.24 3.64 3.64 0 01-.57 0 3.82 3.82 0 01-3.2-4.34zm122.38-66.64a88.48 88.48 0 00-39.66 13.76c-18.82 12.09-33.29 31.21-42.91 56.34 29.52-3.19 52.45-16.37 68.2-39.19a102.27 102.27 0 0014.37-30.91zm7.89-.08a104.91 104.91 0 01-8.27 22.26 3.76 3.76 0 011.72.92c.37.34 26.23 24.03 80.23 25.75-8.74-14.87-19.74-26.67-32.74-35.09a87.89 87.89 0 00-40.94-13.84zm-12.77-25.64l.001 18.645a82.24 82.24 0 014.84-.508v-18.007h-.61c-1.37 0-2.78-.05-4.23-.13zm19.87-50.98a25.37 25.37 0 01-7 3.07c-4.17 1.33-10.39 3.34-25.17 12.07-14.99 8.85-32.52 16.24-45.3 21.12 26.49-1.58 71.31-6.8 78.59-24.15 1.98-4.76.39-9.29-1.12-12.11z" fill="#11100D" fill-rule="nonzero"/></g></svg>