<svg xmlns="http://www.w3.org/2000/svg" viewBox="0 0 483 483"><g fill="none" fill-rule="evenodd"><path fill-opacity=".01" fill="#EDF0F2" d="M0 0h483v483H0z"/><path d="M175.323 120.619c4.02-.547 6.622-.691 8.161-.588l.096.006.218-.003c1.393-.015 3.279.052 5.595.255l.47.043c4.065.38 8.49 1.1 13.18 2.24 12.97 3.155 25.859 8.963 37.889 18.068 9.955 7.535 18.806 16.91 26.383 28.255.746-.268 1.485-.564 2.227-.853.058 0 .24-.064.316-.09l.006-.003.788-.347 1.63-.79a41.82 41.82 0 006.41-4l-.174.13c.027-.025.544-.43.544-.43l.81-.68c.45-.39.89-.79 1.32-1.19.85-.82 1.66-1.68 2.43-2.57a21.19 21.19 0 002-2.66 33 33 0 001.77-3.12 3.78 3.78 0 015.13-1.34 3.83 3.83 0 011.35 5.13c-4.605 9.168-13.079 15.582-22.492 19.298 12.017 20.436 20.3 46.588 24.035 79.094.028.303.063.76.101 1.36l.073 1.293c.095 1.889.155 3.896.17 6.008l-.002-.017c.048.277.127.685.241 1.209.28 1.29.657 2.738 1.145 4.304 1.397 4.484 3.388 8.967 6.061 13.127 4.435 6.9 10.299 12.209 17.819 15.382 7.295 3.079 15.995 4.084 26.27 2.661a105.348 105.348 0 01-6.447-5.406 106.618 106.618 0 01-15.047-16.903 87.955 87.955 0 01-3.714-5.618l-.153-.255a50.583 50.583 0 01-.927-1.606l-.21-.392a4 4 0 011.896-5.492l14.85-6.73a4 4 0 015.266 1.931l6.712 14.171 17.315-1.602a4 4 0 013.247 1.206l.153.168 14.398 16.732 20.922 1.427a4 4 0 013.625 3.088l.04.2 3.49 19.55a4 4 0 01-3.737 4.697c-19.878.996-37.32-3.747-52.354-12.785-28.657 6.715-48.387-1.806-60.144-20.099a58.14 58.14 0 01-1.757-2.92c-1.388 12.828-4.15 25.43-8.594 37.297-7.01 18.723-17.757 34.395-32.838 45.923-7.683 5.873-16.369 10.57-26.091 14.011l2.565 85.576 17.927 4.45a4 4 0 012.963 4.645l-.045.2a4 4 0 01-4.644 2.964l-.201-.045-20.87-5.18a4 4 0 01-3.024-3.556l-.011-.206-2.59-86.383c-10.794 2.911-22.741 4.413-35.882 4.413-12.37 0-23.683-1.33-33.97-3.916l2.487 82.614 17.927 4.45a4 4 0 012.963 4.645l-.045.2a4 4 0 01-4.644 2.964l-.201-.045-20.87-5.18a4 4 0 01-3.024-3.556l-.011-.205-2.657-88.241c-10.44-3.488-19.713-8.393-27.858-14.619a90.967 90.967 0 01-6.047-5.052v37.399l-.003.123.003-.18a4.062 4.062 0 01-.017.375l-.007.065a3.81 3.81 0 01-.054.35l-.008.037a3.49 3.49 0 01-.11.411 4.215 4.215 0 01-.154.4l-.035.075a2.874 2.874 0 01-.048.098c-.013.024-.025.049-.039.073l-.06.111-.045.074a3.942 3.942 0 01-.575.74l-.032.032a2.641 2.641 0 01-.098.094l-.044.04c-.039.035-.078.07-.118.102l-.024.02a3.63 3.63 0 01-.274.205l-.055.037-.104.067-.073.043a2.902 2.902 0 01-.257.138 3.432 3.432 0 01-.114.055l-.059.026a1.051 1.051 0 01-.043.019l-.12.047a3.89 3.89 0 01-.17.062l-.027.008a2.849 2.849 0 01-.159.049l-.031.007a2.682 2.682 0 01-.148.038l-.05.01a3.69 3.69 0 01-.348.06l-.046.006a3.456 3.456 0 01-.254.02l-.077.004a4 4 0 01-.077.001H75.012a4 4 0 01-.2-7.995l.2-.005H90.33l-12.001-8.082a4 4 0 014.289-6.75l.18.114 16.635 11.202v-38.095c-7.797-9.129-13.9-19.804-18.465-31.74l-.326-.861c-4.625-12.353-7.43-25.503-8.76-38.875-.86-8.656-1.028-16.486-.77-23.026l.064-1.432c.043-.843.085-1.522.126-2.055l.058-.693c3.557-30.515 11.118-55.56 22.181-75.61a4 4 0 014.551-1.927l16.157 4.391 9.535-17.016a4 4 0 012.21-1.835l.218-.066 20.87-5.743 6.213-17.06a4 4 0 013.549-2.625l.21-.006h14.54v-8.713l.01-.221.27-3.66a4 4 0 013.45-3.67zm7.5 7.377l.113.015-.191-.007c-.312-.008-.787 0-1.444.036l-.296.017c-.404.026-.843.06-1.317.105l-.08.007-.016.218v12.495a4 4 0 01-3.8 3.995l-.2.005h-15.74l-5.961 16.37a4 4 0 01-2.48 2.42l-.218.067-21.249 5.846-10.242 18.282a4 4 0 01-4.334 1.955l-.205-.05-16.1-4.377-.245.468c-9.465 18.283-16.066 40.877-19.358 68.124l-.15 1.274-.093 1.322-.052.946c-.324 6.44-.206 14.392.677 23.264 1.266 12.725 3.928 25.21 8.291 36.862 3.022 8.07 6.77 15.5 11.299 22.202v-93.315a4 4 0 013.8-3.995l.2-.005a4 4 0 013.995 3.8l.005.2v103.491a83.242 83.242 0 0010.905 9.994c16.341 12.491 37.789 19.245 65.045 19.245s48.704-6.754 65.045-19.245c13.796-10.546 23.69-24.975 30.204-42.372 4.363-11.653 7.025-24.137 8.291-36.862.62-6.225.863-11.998.84-17.113a3.684 3.684 0 01-.003-.511c-.015-1.986-.07-3.87-.16-5.64a81.436 81.436 0 00-.106-1.759l-.033-.44-.188-1.618c-3.797-31.536-11.993-56.577-23.742-75.892-24.125 5.625-48.386-5.11-72.018-7.198a74.12 74.12 0 00-18.09.36 45.06 45.06 0 00-15.63 5.42 44.22 44.22 0 00-6 4.15 47.61 47.61 0 00-5.64 5.54 39.57 39.57 0 00-4.28 5.93c-.73 1.18-1.39 2.4-2 3.64-.27.56-.53 1.13-.79 1.71-.034.04-.115.244-.142.322l-.005.011-.018.04c-.07.162-.138.332-.206.506l-.099.261v.04a3.86 3.86 0 01-4.62 2.62 3.77 3.77 0 01-2.67-4.64 52.4 52.4 0 0124-27.38c24-12.84 51.13-3.17 76 1.11a98.8 98.8 0 0019.48 1.61c1.45-.04 2.97-.12 4.45-.27.61-.06 1.21-.13 1.82-.21-.65.11-.03 0 .09 0l1.08-.17c.291-.049.582-.1.873-.154-6.728-9.586-14.442-17.563-23.011-24.049-11.11-8.409-23-13.766-34.952-16.673-4.301-1.046-8.344-1.704-12.035-2.05a61.822 61.822 0 00-3.683-.239 38.83 38.83 0 00-1.405-.024l-.698.008a4 4 0 01-.507-.045zm154.438 138.313l-7.185 3.256.394.603c.45.682.932 1.39 1.446 2.12l.392.553a98.67 98.67 0 0013.916 15.632c15.5 14.076 34.431 22.494 57.06 22.623h.733l-2.124-11.896-19.473-1.327a4 4 0 01-2.606-1.213l-.154-.169-14.145-16.437-18.044 1.671a4 4 0 01-3.89-2.084l-.094-.186-6.226-13.146zm-77.32-26.815a4 4 0 01-2.86 4.708l-.2.05-57.11 12.4a4 4 0 01-1.898-7.77l.2-.049 57.11-12.4a4 4 0 014.758 3.06zm-84.399-27.602a7.79 7.79 0 110 15.58 7.79 7.79 0 010-15.58zm63.34 0a7.79 7.79 0 110 15.58 7.79 7.79 0 010-15.58z" fill="#11100D" fill-rule="nonzero"/></g></svg>