<svg xmlns="http://www.w3.org/2000/svg" viewBox="0 0 483 483"><g fill="none" fill-rule="evenodd"><path fill-opacity=".01" fill="#EDF0F2" d="M0 0h483v483H0z"/><g fill="#11100D" fill-rule="nonzero"><path d="M195.514 119.002l.366.006.096-.002c1.328-.026 3.152.026 5.412.212l.926.081c4.066.38 8.49 1.1 13.18 2.24 12.97 3.153 25.856 8.958 37.885 18.06 9.95 7.53 18.795 16.895 26.369 28.228a66.344 66.344 0 002.223-.857c.085 0 .379-.12.354-.105l-.008.003.774-.348c.373-.167.738-.338 1.1-.516l.54-.274a42.31 42.31 0 006.41-4l-.17.126c-.012.012.016-.009.098-.071l.029-.023-.118.087.019-.014c.109-.088.445-.35.496-.39.286-.235.556-.455.826-.695.45-.38.88-.78 1.31-1.19a32.92 32.92 0 002.44-2.57 22 22 0 002-2.65 34.26 34.26 0 001.77-3.12 3.79 3.79 0 015.13-1.35 3.83 3.83 0 011.34 5.13c-4.6 9.174-13.081 15.584-22.503 19.303 12.03 20.443 20.321 46.608 24.056 79.136l.048.576c.039.517.085 1.225.13 2.111.106 2.089.168 4.346.175 6.751a253.226 253.226 0 003.428-4.216c7.814-9.82 15.634-20.983 22.93-33.274 12.566-21.169 22.157-43.238 27.744-65.77.034-.228.09-.452.163-.669a192.03 192.03 0 003.59-18.522 4 4 0 017.92 1.129 197.722 197.722 0 01-2.22 12.608l14.475-4.865a4 4 0 012.742 7.513l-.194.07-19.16 6.438c-5.842 22.725-15.565 44.9-28.18 66.151a305.599 305.599 0 01-23.281 33.834l28.959-17.699.977-1.135a3.19 3.19 0 00.423-3.535l-.099-.179-.104-.185a4 4 0 011.493-5.297l42.77-25.5a4 4 0 013.877-.122l12.88 6.62a4 4 0 011.61 1.514l2.623 4.413 2.65 4.38a4 4 0 01.577 2.15l-.29 14.53a4 4 0 01-1.95 3.356l-19.459 11.607a265.655 265.655 0 016.165 3.513 196.463 196.463 0 017.728 4.776l.91.598.093-.12c3.848-5.013 9.76-8.851 17.48-10.643l.456-.103a4 4 0 111.716 7.814c-5.763 1.266-10.086 3.882-12.91 7.298l-.303.378.088.068c5.326 4.077 9.08 7.846 11.064 11.45l.187.35c2.71 5.207 1.634 10.308-3.417 13.608-10.08 6.583-19.22-1.818-19.544-14.053a25.785 25.785 0 011.259-8.749l.064-.193-.038-.027a176.29 176.29 0 00-8.09-5.084l-.8-.472a273.687 273.687 0 00-10.1-5.643l-15.319 9.137a4 4 0 01-5.444-1.32l-.103-.167a3.184 3.184 0 00-3.361-1.37l-1.93.42c-.419.092-.84.114-1.25.072l-56.451 34.493c-.02.193-.054.387-.103.58-6.945 27.435-20.615 49.825-42.622 64.26a11.276 11.276 0 01.467 7.795 11.31 11.31 0 01-8.228 7.76l-.31.069-8.43 1.75-.155.028-.41.06c-.216.035-.522.09-.91.166l-.2.04c-.768.157-1.597.352-2.477.589l2.335 77.588 17.927 4.45a4 4 0 012.963 4.645l-.045.2a4 4 0 01-4.644 2.964l-.201-.045-20.87-5.18a4 4 0 01-3.024-3.556l-.011-.206-2.348-77.966a45.21 45.21 0 00-5.845 3.278c-7.109 4.72-12.403 11.238-15.238 19.925l-.213.67c-7.466 21.98-22.813 37.073-44.762 42.927-.595.16-1.189.306-1.782.44l.223 7.454 17.927 4.45a4 4 0 012.963 4.645l-.045.2a4 4 0 01-4.644 2.964l-.201-.045-20.87-5.18a4 4 0 01-3.024-3.556l-.011-.206-.29-9.651c-15.548.662-30.222-7.088-43.57-20.425-4.375-4.372-8.28-9.044-11.672-13.717a105.574 105.574 0 01-2.82-4.075l-.302-.463c-.247-.382-.46-.716-.637-1l-.356-.578-.471-.635a77.96 77.96 0 01-1.763-2.537l-.647-.978a112.971 112.971 0 01-6.495-11.343c-7.664-15.37-11.335-31.066-8.702-45.957 1.366-7.732 4.433-14.962 9.366-21.578a54.136 54.136 0 018.1-8.56 123.802 123.802 0 01-2.994-7.29c-4.625-12.352-7.43-25.501-8.76-38.872-.925-9.296-1.05-17.64-.706-24.457l.064-1.143c.042-.683.083-1.21.12-1.596 1.66-14.497 4.229-27.732 7.635-39.761-8.508-16.494-15.203-33.471-19.649-50.767l-19.168-6.446a4 4 0 012.353-7.643l.197.06 14.483 4.872a197.596 197.596 0 01-2.218-12.606 4 4 0 117.92-1.128 192.302 192.302 0 003.583 18.51c.078.222.136.453.172.688 3.648 14.723 9.008 29.247 15.792 43.452 9.784-28.102 24.62-48.817 43.383-63.005 12.027-9.094 24.912-14.894 37.879-18.044 4.69-1.14 9.113-1.859 13.178-2.238 2.532-.237 4.58-.313 6.066-.297zm14.82 172.013c-9.2 2.849-18.077 9.092-23.733 16.395-.239.318-.483.627-.751.954l-.278.335c-8.038 9.786-20.455 13.379-35.672 12.135l-.586-.05c-10.994-.987-25.022.621-33.691 3.78A46.153 46.153 0 00105 330.02a3.998 3.998 0 01-3.04 2.291 45.911 45.911 0 00-7.483 7.77c-4.156 5.574-6.73 11.642-7.883 18.162-2.283 12.916 1.016 27.02 7.984 40.996a105.018 105.018 0 006.033 10.536 81.196 81.196 0 001.967 2.881l.542.743.154.204a4 4 0 01.283.418l.221.364.407.649a95.829 95.829 0 003.2 4.683c3.158 4.352 6.797 8.706 10.852 12.758 14.297 14.286 29.734 21.096 45.602 16.84 19.1-5.093 32.355-17.992 39.05-37.182l.204-.59.157-.498c3.416-10.529 9.878-18.499 18.443-24.187 4.571-3.036 9.446-5.226 14.321-6.718a52.135 52.135 0 014.2-1.102l.548-.116a34.351 34.351 0 011.525-.279l.255-.038 8.297-1.722a3.313 3.313 0 002.439-2.11l.064-.193a3.291 3.291 0 00-.69-3.148l-.009-.007a3.982 3.982 0 01-1.51-1.643l-1.087-1.186c-1.366-1.48-2.855-3.087-3.76-4.059l-.711-.758c-7.99-8.505-8.267-13.185.118-24.35l-16.665 10.184c-.419 13.313-11.343 23.977-24.758 23.977-13.68 0-24.77-11.09-24.77-24.77s11.09-24.77 24.77-24.77c3.793 0 7.387.853 10.6 2.377l33.888-20.708c-2.702-3.858-6.312-7.526-10.674-10.796-7.911-5.917-17.575-7.06-27.75-3.908zm-65.522 58.595c5.966-3.65 13.762-1.772 17.412 4.195l17.467 28.551c3.65 5.967 1.773 13.763-4.194 17.413-5.967 3.65-13.763 1.772-17.413-4.195l-17.467-28.551c-3.65-5.967-1.772-13.763 4.195-17.413zm10.612 8.355a4.693 4.693 0 00-8.007 4.898l17.467 28.551a4.693 4.693 0 008.007-4.898zm48.847-25.915c-9.262 0-16.77 7.508-16.77 16.77s7.508 16.77 16.77 16.77 16.77-7.508 16.77-16.77-7.508-16.77-16.77-16.77zm89.02-21.704l-32.313 19.744a4.074 4.074 0 01-.035.115c-1.109 3.379-2.876 6.568-5.277 9.499l-1.17 1.439c-4.737 5.873-6.552 8.736-6.897 10.676-.256 1.443.474 2.9 3.546 6.202l4.044 4.351.377.409c18.478-11.912 30.698-30.015 37.725-52.435zm55.218-56.206l-126.556 77.334a24.767 24.767 0 015.828 9.525l126.45-77.267-5.722-9.592zM195.283 127a38.89 38.89 0 00-1.407.025c-1.098.036-2.33.113-3.684.24-3.69.344-7.733 1-12.033 2.046-11.95 2.903-23.836 8.253-34.943 16.651-19.092 14.437-33.936 36.27-43.1 66.76 2.168 4.09 4.452 8.15 6.843 12.176 7.296 12.288 15.115 23.449 22.929 33.265a240.932 240.932 0 006.608 7.962l.92 1.052c.69.783 1.312 1.474 1.858 2.07l.933 1.004a4 4 0 01-5.772 5.538l-.544-.578-1.03-1.125a156.76 156.76 0 01-.84-.936l-.605-.681a242.66 242.66 0 01-7.787-9.323c-8.03-10.089-16.057-21.545-23.549-34.163a304.862 304.862 0 01-2.967-5.11c-2.135 8.905-3.833 18.47-5.063 28.72l-.19 1.636-.04.509a81.427 81.427 0 00-.106 1.759c-.324 6.44-.206 14.39.677 23.262 1.266 12.724 3.928 25.207 8.291 36.858.67 1.79 1.379 3.553 2.125 5.286a53.95 53.95 0 0110.094-4.861c9.608-3.501 24.41-5.245 36.41-4.287l.716.061c12.906 1.154 22.873-1.58 29.103-8.884l.285-.34c.323-.387.567-.69.824-1.031 6.688-8.637 16.94-15.847 27.729-19.188 12.488-3.867 24.807-2.411 34.912 5.146 5.172 3.877 9.48 8.292 12.716 13.022l44.231-27.029.013-.175c.433-6.488.463-12.299.243-17.15l-.031-.655a89.56 89.56 0 00-.072-1.248l-.073-1.018c-3.71-32.309-11.99-57.88-23.949-77.524-24.127 5.605-48.372-5.125-71.997-7.212a74.61 74.61 0 00-18.09.36 44.79 44.79 0 00-15.63 5.43 44.09 44.09 0 00-6 4.15 49.08 49.08 0 00-5.64 5.53 40.39 40.39 0 00-4.27 5.94c-.733 1.18-1.4 2.39-2 3.63-.28.57-.54 1.14-.79 1.71-.049.065-.196.46-.137.327l-.067.163c-.094.235-.183.47-.276.71l-.02-.02a3.85 3.85 0 01-4.61 2.61 3.75 3.75 0 01-2.62-4.61 52.38 52.38 0 0123.95-27.37c24-12.84 51.13-3.18 76 1.1a98.74 98.74 0 0019.48 1.62c1.45-.04 2.97-.13 4.45-.27.6-.06 1.21-.13 1.81-.21l-.23.036-.035.005.014-.001c.073-.01.24-.034.317-.039h.024l1.09-.18c.289-.05.577-.1.865-.153-6.725-9.574-14.433-17.54-22.995-24.02-11.108-8.405-22.995-13.76-34.946-16.665-4.301-1.046-8.344-1.704-12.035-2.049a61.844 61.844 0 00-3.684-.24l-.53-.014c-.25-.006-.476-.008-.68-.01l-.795.01-.598-.01zM413.09 279.267l-.01.061a18.28 18.28 0 00-.26 3.617c.09 3.38 1.194 6.257 2.726 7.665 1.193 1.098 2.49 1.18 4.447-.097 1.46-.954 1.58-1.52.695-3.22-1.105-2.124-3.624-4.806-7.347-7.825l-.25-.2zm-18.306-61.485l-38.065 22.695.046.288a11.19 11.19 0 01-2 8.175l.161-.232 7.653 12.53a11.156 11.156 0 017.432 1.995l.283.207.197.151 8.241-4.915-1.196-.594a314.332 314.332 0 00-3.169-1.54l-1.923-.91-.846-.393a4 4 0 013.326-7.276l1.229.572 1.06.501c1.8.857 3.803 1.833 5.96 2.913 1.232.617 2.463 1.243 3.692 1.876l21.7-12.943.223-11.153-2.065-3.414-2.054-3.453-9.885-5.08zm-115.118 15.806a3 3 0 11-.63 5.966c-9.325-.985-18.833 1.718-27.91 6.87a67.14 67.14 0 00-7.451 4.905c-.637.484-1.209.938-1.71 1.353l-.52.436-.419.366a3 3 0 01-4.05-4.426l.4-.356a53.148 53.148 0 012.669-2.15 73.104 73.104 0 018.12-5.347c10.073-5.717 20.754-8.753 31.501-7.617zm-3.077-18.799a11.68 11.68 0 11-23.346 0 3 3 0 015.997.028v.176a5.68 5.68 0 1011.356.248l-.003-.248a3 3 0 015.996-.204zm-61.678-2.898a3 3 0 013 3c0 6.45-5.23 11.68-11.68 11.68-6.45 0-11.68-5.23-11.68-11.68a3 3 0 116 0 5.68 5.68 0 0011.356.218l.004-.218a3 3 0 013-3z"/><path d="M224.981 347.39s5.17 17.48-7.39 35.07a17 17 0 01-28.41-1 10.41 10.41 0 013.46-14.33l.91-.56c7.425 4.06 13.974 4.246 19.645.56 5.672-3.686 9.6-10.266 11.785-19.74z" opacity=".1"/></g></g></svg>