<svg xmlns="http://www.w3.org/2000/svg" viewBox="0 0 483 483"><g fill="none" fill-rule="evenodd"><path fill-opacity=".01" fill="#EDF0F2" d="M0 0h483v483H0z"/><path d="M277.229 119.296c4.05.378 8.455 1.093 13.123 2.228 12.9 3.136 25.718 8.913 37.681 17.972 28.453 21.547 47.839 58.223 54.199 113.15l.061.756c.036.497.077 1.144.117 1.932.347 6.803.228 15.116-.686 24.37-1.312 13.294-4.087 26.366-8.669 38.647-6.948 18.624-17.608 34.216-32.576 45.693-5.853 4.487-12.292 8.286-19.334 11.361l2.696 89.575 17.831 4.423a3.98 3.98 0 012.95 4.621l-.045.2a3.98 3.98 0 01-4.621 2.95l-.2-.045-20.76-5.15a3.98 3.98 0 01-3.009-3.539l-.011-.204-2.703-89.782c-12.377 4.215-26.419 6.411-42.195 6.427-9.713.01-18.772-.807-27.194-2.416l2.477 82.514 17.841 4.424a3.98 3.98 0 012.95 4.62l-.045.2a3.98 3.98 0 01-4.62 2.95l-.2-.044-20.77-5.15a3.98 3.98 0 01-3.01-3.539l-.011-.204-2.63-87.591c-11.309-2.994-21.355-7.54-30.18-13.537l-.602-.412-.115-.083-3.15-2.347h-46.095a3.98 3.98 0 01-3.584-2.249l-.085-.19-50.74-120.77c-1.102-2.622.824-5.521 3.67-5.521h57.188c.01-.123.026-.248.049-.372 4.637-25.83 12.513-47.046 23.087-64.058a45.739 45.739 0 00-3.605-1.772c-8.362-3.669-16.926-4.698-24.744-1.628-11.78 4.624-21.142 18.264-26.745 43.598a3.975 3.975 0 11-7.762-1.716c6.123-27.689 17.014-43.556 31.602-49.283 10.105-3.966 20.724-2.691 30.843 1.75a53.22 53.22 0 014.827 2.411c7.03-9.897 15.08-18.183 24.017-24.958 11.948-9.057 24.75-14.835 37.63-17.976 4.654-1.135 9.043-1.852 13.075-2.23 2.33-.22 4.242-.302 5.675-.302l.671.009.102-.002.595-.007c1.457-.003 3.39.078 5.739.296zm-16.978 39.068l-.295.502a111.242 111.242 0 01-6.06 9.122c-17.255 23.377-42.613 38.603-77.325 41.749-2.518 7.973-4.639 16.565-6.337 25.798l28.03.001a3.98 3.98 0 013.67 2.438l29.344 69.845 20.22-23.687a3.98 3.98 0 015.28-.696l.176.128 11.09 8.55a3.98 3.98 0 01.77 5.52l-.134.17-7.002 8.459a4.002 4.002 0 01-1.33 1.607l-16.345 19.74.06.009c19.417 2.53 35.613.38 48.925-5.756l.576-.27c12.3-5.813 21.8-14.913 28.873-26.454 4.537-7.403 7.806-15.363 10.003-23.325a86.527 86.527 0 001.76-7.668l.133-.766c.082-.489.15-.935.207-1.335l.087-.664a3.98 3.98 0 017.914.85l-.075.618c-.08.599-.202 1.405-.377 2.4l-.054.304a94.451 94.451 0 01-1.922 8.378c-2.383 8.638-5.931 17.278-10.89 25.368-7.84 12.793-18.467 22.973-32.257 29.491-14.88 7.034-32.836 9.487-54.06 6.704l9.767 23.25c1.103 2.623-.824 5.522-3.669 5.522l-32.815.001c14.546 8.17 32.418 12.563 53.956 12.663l.925.001c27.063-.027 48.355-6.762 64.571-19.196 13.693-10.499 23.509-24.856 29.966-42.163 4.322-11.585 6.956-23.997 8.206-36.65.84-8.516.976-16.188.69-22.49l-.033-.694a89.47 89.47 0 00-.072-1.25l-.072-1.015c-3.052-26.346-9.15-48.187-17.809-65.964l-.078.003c-28.517.035-53.04-5.73-73.526-15.38-7.181-3.382-13.355-7.015-18.52-10.66a83.34 83.34 0 01-4.142-3.108zm-134.419 85.132h-14.859l23.246 55.329.149.25c.031.052.064.106.099.161l.11.173c.459.718 1.04 1.533 1.75 2.421 2.07 2.592 4.736 5.203 8.055 7.654 10.021 7.399 23.632 11.737 41.492 11.378a3.975 3.975 0 11.16 7.948c-18.251.368-32.79-3.836-43.932-11.222l16.267 38.718h84.645l-10.18-24.231a4.061 4.061 0 01-.067-.162l-37.148-88.417h-26.366l-2.657 10.874a3.975 3.975 0 01-3.66 3.026l-.202.005h-24.55a3.975 3.975 0 01-3.042-1.417l-.146-.184-9.164-12.304zm121.147 58.189l-12.249 14.35 2.869 6.83 14.531-17.553-5.151-3.627zm8.113-9.505l-2.923 3.424 5.053 3.558 2.698-3.26-4.828-3.722zm58.952-57.864a3.44 3.44 0 013.39 4c-1.976 13.5-13.556 23.508-27.2 23.508s-25.223-10.008-27.2-23.508a3.45 3.45 0 013.39-4zm-23.73 12.8a15.8 15.8 0 00-10.75 4.48s2.99 4.18 10.75 4.18 11.35-4.18 11.35-4.18a18.27 18.27 0 00-11.35-4.48zm-129.246-3.62h-25.324l4.435 5.955h19.434l1.455-5.955zm-2.784-48.905a3.975 3.975 0 013.97 3.777l.005.198v21.08a3.975 3.975 0 01-7.945.198l-.005-.198v-21.08a3.975 3.975 0 013.975-3.975zm-13.168.044a3.975 3.975 0 013.364 4.32l-.025.203-2.91 19.33a3.975 3.975 0 01-7.887-.98l.025-.204 2.91-19.33a3.975 3.975 0 014.523-3.339zm174.313 11.72c6.267 0 11.405 4.967 11.618 11.23a2.985 2.985 0 01-5.955.378l-.011-.175a5.655 5.655 0 00-11.292-.222l-.012.222a2.985 2.985 0 01-5.966-.203c.213-6.263 5.352-11.23 11.618-11.23zm-58.39 0c6.267 0 11.405 4.967 11.618 11.23a2.985 2.985 0 01-5.955.378l-.011-.175a5.655 5.655 0 00-11.292-.222l-.012.222a2.985 2.985 0 01-5.966-.203c.213-6.263 5.352-11.23 11.618-11.23zm3.614-79.086l.538-.053c-3.659.344-7.669 1-11.936 2.04-11.87 2.894-23.677 8.224-34.71 16.588-16.563 12.554-29.939 30.786-39.138 55.603 30.528-3.608 52.733-17.371 68.093-38.18 6.332-8.58 11.048-17.789 14.375-26.994a96.061 96.061 0 002.58-8.235l.16-.62.038-.149zm8.236-.292l-.046.22a75.99 75.99 0 01-.521 2.177 102.82 102.82 0 01-2.97 9.602 116.834 116.834 0 01-5.24 12.266l-.042-.036c.13.112.272.231.422.357l.234.193a72.721 72.721 0 004.25 3.22c4.797 3.386 10.573 6.784 17.325 9.964 18.463 8.696 40.456 14.088 66 14.584-8.002-14.011-17.791-25.15-29.067-33.69-11.049-8.366-22.872-13.695-34.76-16.585-4.28-1.04-8.306-1.694-11.982-2.037a61.846 61.846 0 00-3.603-.235z" fill="#11100D" fill-rule="nonzero"/></g></svg>