<svg xmlns="http://www.w3.org/2000/svg" viewBox="0 0 483 483"><g fill="none" fill-rule="evenodd"><path fill-opacity=".01" fill="#EDF0F2" d="M0 0h483v483H0z"/><path d="M196.42 122.14c48.474 0 83.106 35.86 103.895 107.58-6.995.34-7.75 26.89-11.848 34.322-4.099 7.433-10.146 17.492-50.937 21.932-40.791 4.44-86.354-10.39-96.632-43.774-5.824-18.916-14.782-23.446-26.378-23.446-7.73 0-14.72 3.237-20.97 9.712 20.106-70.884 54.396-106.326 102.87-106.326zm-81.8 106c10.77 0 19.5 11.417 19.5 25.5s-8.73 25.5-19.5 25.5-19.5-11.417-19.5-25.5 8.73-25.5 19.5-25.5zm115.92 14.06a18.39 18.39 0 00-11.41 4.5s3.61 4.2 11.41 4.2c7.526 0 10.593-3.91 10.799-4.185l.011-.015a15.91 15.91 0 00-10.81-4.5z" fill="#E2E2E1"/><path d="M189.99 119.299c2.69-.251 4.832-.322 6.335-.293l.1.002.193-.004c.163-.004.349-.004.556-.004l.688.008a62.51 62.51 0 013.41.16c3.48.253 7.332.774 11.475 1.633 11.641 2.412 23.465 7.01 34.808 14.348 12.566 8.129 23.593 18.94 32.765 32.68 8.396-3.043 15.782-8.467 20.05-16.629 2.24-4.28 8.71-.49 6.48 3.79-5.236 10.013-13.2 16.028-22.443 19.368 10.921 18.598 18.772 41.982 22.906 70.653.057.137.106.278.148.423l.26 1.02a95.259 95.259 0 001.263 4.361c1.24 3.936 2.729 7.87 4.456 11.514 4.014 8.468 8.64 13.885 13.274 14.989 2.656.632 5.64-.11 8.949-2.503-4.265-6.463-6.779-14.455-6.779-23.082a42.244 42.244 0 015.46-20.95l.074-.127a3.036 3.036 0 01.779-.83l.036-.026c.04-.028.08-.055.122-.081l.025-.016a2.541 2.541 0 01.325-.173c.028-.014.056-.026.084-.038l.036-.015.868-.343.716-.276a153.201 153.201 0 019.515-3.265c1.037-.318 2.067-.62 3.086-.906l-13.64-19.569-7.852 4.517a3.005 3.005 0 01-4.007-.95l-.096-.157a3.005 3.005 0 01.95-4.007l.157-.096 10.24-5.89a3.005 3.005 0 013.852.738l.111.149 16.524 23.705c.305-.066.609-.13.911-.193 5.242-1.078 9.798-1.51 13.531-1.134 4.577.46 8.66 1.291 12.249 2.39 2.028.62 3.78 1.291 5.256 1.969l.477.223c.674.323 1.162.59 1.466.775a2.954 2.954 0 01.582.464l.023.024c.121.126.23.262.325.405l.004.007.346.52a41.829 41.829 0 016.816 23.143c0 21.39-15.435 38.865-34.675 38.865-8.774 0-16.756-3.634-22.845-9.614-5.339 4.016-10.622 5.376-15.855 4.129-6.481-1.544-11.779-6.81-16.26-14.726-.139 3.235-.375 6.64-.727 10.185-1.328 13.37-4.13 26.517-8.752 38.868-7.006 18.723-17.747 34.395-32.822 45.923-7.69 5.88-16.383 10.582-26.117 14.024l2.566 85.564 17.926 4.45a4 4 0 012.963 4.645l-.045.2a4 4 0 01-4.645 2.964l-.2-.045-20.87-5.18a4 4 0 01-3.024-3.556l-.011-.206-2.59-86.373c-10.78 2.904-22.71 4.403-35.832 4.403-12.39 0-23.72-1.336-34.02-3.931l2.488 82.629 17.926 4.45a4 4 0 012.963 4.645l-.045.2a4 4 0 01-4.645 2.964l-.2-.045-20.87-5.18a4 4 0 01-3.024-3.556l-.011-.206-2.658-88.263c-10.41-3.486-19.658-8.383-27.783-14.597a90.932 90.932 0 01-6.12-5.121l-.001 37.411v.059l-.003.12.003-.179a4.062 4.062 0 01-.016.366l-.01.1a2.804 2.804 0 01-.015.114l-.009.054c-.008.05-.016.1-.026.149l-.01.046a3.491 3.491 0 01-.11.41 4.212 4.212 0 01-.154.4l-.034.073a3.341 3.341 0 01-.07.139l-.002.004a3.965 3.965 0 01-.688.947l-.044.043c-.03.031-.062.061-.094.09l-.044.04a3.922 3.922 0 01-1.023.67l-.052.022c-.104.046-.21.087-.319.124l-.051.016c-.05.017-.1.032-.152.046l-.03.008c-.055.016-.11.03-.167.042-.006 0-.011.002-.017.003l-.062.014a3.981 3.981 0 01-.096.018l-.054.009a2.476 2.476 0 01-.226.03 2.69 2.69 0 01-.225.018l-.078.003-.075.002H88a4 4 0 01-.2-7.995l.2-.005h15.319l-12.003-8.082a4 4 0 014.289-6.75l.18.114 16.635 11.202v-38.189c-7.755-9.108-13.828-19.752-18.375-31.646l-.326-.862c-4.622-12.35-7.424-25.498-8.752-38.868-.924-9.297-1.048-17.642-.704-24.46.042-.844.085-1.524.125-2.056l.058-.688c6.322-55.192 25.822-92.096 54.484-113.77 12.028-9.095 24.915-14.897 37.883-18.048 4.69-1.139 9.113-1.858 13.178-2.238zm7.295 7.7h-.197l-.678.011-.783-.01c-.204.002-.43.004-.68.01l-.53.015a61.874 61.874 0 00-3.682.24c-3.69.344-7.733 1.001-12.034 2.046-11.95 2.904-23.838 8.256-34.946 16.655-26.836 20.293-45.278 55.196-51.352 108.212l-.08 1.09c-.024.371-.048.783-.07 1.234l-.033.671c-.283 6.32-.144 14.029.708 22.595 1.264 12.723 3.924 25.205 8.283 36.855 3.002 8.02 6.72 15.41 11.21 22.078l-.001-93.191a4 4 0 013.8-3.995l.2-.005a4 4 0 013.995 3.8l.005.2v103.403a83.22 83.22 0 0010.98 10.082c16.334 12.491 37.774 19.245 65.02 19.245 27.246 0 48.686-6.754 65.02-19.245 13.79-10.545 23.678-24.974 30.189-42.372 4.36-11.65 7.019-24.132 8.283-36.855.882-8.872 1-16.824.676-23.266l-.018-.33a85.46 85.46 0 00-.053-.905l-.069-.97-.141-1.222c-2.19-18.385-5.904-34.648-11-48.912-2.394 12.9-13.59 22.725-27.179 22.973l-.433.004a28.12 28.12 0 01-27.692-23.033 7.999 7.999 0 00-6.736-.011c-2.31 13.005-13.56 22.942-27.23 23.18l-.434.004a28.12 28.12 0 01-28.117-26.902l-51.968-8.045a4 4 0 011.026-7.932l.198.026 26.636 4.124c4.98-10.171 12.997-17.262 23.672-21.841 14.01-6 28.9-5.74 43.69-3.36 16.94 2.74 33.65 8.41 51 7.41 2.096-.12 4.2-.362 6.286-.73-8.325-11.9-18.034-21.19-28.816-28.164-10.467-6.772-21.37-11.01-32.087-13.232-3.788-.785-7.292-1.259-10.431-1.487a51.036 51.036 0 00-3.604-.149zm190.091 106.466l-6.022 2.491c-.544.231-1 .428-1.418.616l-.77.351c-5.485 2.464-14.41 3.996-27.742 3.146a33.507 33.507 0 01-13.008-3.52l-.217-.113-.3.671a36.252 36.252 0 00-3.002 13.983l-.002.63c0 7.096 1.958 13.647 5.28 19.002 2.544-2.75 5.25-6.388 8.115-11.01a4 4 0 116.8 4.216c-3.313 5.342-6.602 9.684-9.87 13.036 4.983 4.757 11.386 7.611 18.34 7.611 15.743 0 28.665-14.63 28.665-32.874a35.834 35.834 0 00-4.58-17.763l-.269-.473zm-10.3 40.205c2.11-1.212 4.312-1.338 4.92-.281.607 1.057-.61 2.897-2.72 4.109-2.109 1.212-4.311 1.338-4.919.28-.607-1.056.61-2.896 2.72-4.108zM254.55 229.33a3.47 3.47 0 013.41 4c-1.982 13.573-13.623 23.637-27.34 23.637s-25.358-10.064-27.34-23.637a3.47 3.47 0 013.41-4zm-24.01 12.87a18.39 18.39 0 00-11.41 4.5s3.61 4.2 11.41 4.2c7.8 0 10.81-4.2 10.81-4.2a15.91 15.91 0 00-10.81-4.5zm118.144-10.86c-1.384.423-2.743.863-4.063 1.31a27.463 27.463 0 007.18 1.421c1.696.108 3.325.174 4.888.2l-3.028-4.346a122.59 122.59 0 00-4.977 1.415zm11.314-2.835l3.89 5.58c2.15-.155 4.14-.402 5.971-.727 3.241-.576 5.519-1.299 7.06-2.015l.547-.25c.186-.083.378-.168.58-.256l.986-.424 1.57-.65-.03-.008c-3.07-.895-6.564-1.58-10.483-1.975-2.666-.268-6.093-.005-10.09.725zM232.76 174.59c-16.06-3.34-33.01-7.83-49.41-4.1-11.731 2.67-22.386 8.884-28.232 19.26l16.545 2.56a4.002 4.002 0 013.787-2.71h48.25a4 4 0 014 4v2.026a16.03 16.03 0 015.833-.003l-.003-2.086a4 4 0 014-4.007h45.744a140.565 140.565 0 00-5.38-10.28 131.605 131.605 0 00-1.59-2.674c-14.152 2.781-30.1.81-43.544-1.986z" fill="#11100D" fill-rule="nonzero"/></g></svg>