<svg xmlns="http://www.w3.org/2000/svg" viewBox="0 0 483 483"><g fill="none" fill-rule="evenodd"><path fill-opacity=".01" fill="#EDF0F2" d="M0 0h483v483H0z"/><g fill-rule="nonzero"><path d="M202.21 357.027c1.492.298 2.943.771 4.345 1.428 2.143 1.003 3.904 2.105 5.382 3.336l.385.325c1.53 1.31 2.188 2.13 3.913 4.65l.436.639c2.108 3.1 3.92 4.106 10.642 4.444l.782.035c7.378.3 12.942 1.307 16.964 2.833 3.138 1.19 4.981 2.54 5.844 3.732l.095.137-4.99 3.33.106.149-.085-.078a3.859 3.859 0 00-.24-.195c-.612-.462-1.543-.967-2.859-1.466-3.265-1.238-8-2.115-14.45-2.42l-.63-.027c-9.041-.369-12.714-2.185-15.97-6.852l-1.023-1.493c-1.189-1.71-1.632-2.192-2.762-3.134-1.07-.892-2.395-1.72-4.084-2.511a12.983 12.983 0 00-2.976-.978c-4.569-.912-9.713.55-14.875 3.633a39.225 39.225 0 00-4.028 2.76c-.334.26-.635.505-.901.73l-.444.381-.087.08-4.074-4.406.217-.197c.365-.323.902-.774 1.594-1.315a45.183 45.183 0 014.647-3.185c6.319-3.772 12.825-5.623 19.126-4.365zm-11.547-12.095a35.55 35.55 0 0121.16 3.05 24.48 24.48 0 018.1 6.54c2.01 2.56 3.6 6.32 6.79 7.72 3.19 1.4 7.16.6 10.54.23a36.53 36.53 0 0110.07.23c6.44 1.06 12.94 4.53 15.78 10.67a3.08 3.08 0 01-1.08 4.11 3 3 0 01-4.1-1.08 12.09 12.09 0 00-6.29-6.18 12.8 12.8 0 00-1.92-.76 23.6 23.6 0 00-2.46-.68 21.86 21.86 0 00-4.67-.57c-7.04-.22-14.69 2.72-20.87-2.06-2.89-2.24-4.39-5.53-6.74-8.24a20.06 20.06 0 00-7.32-5.29c-5.72-2.51-12.46-2.68-18.72-1.3-7.234 1.597-13.907 4.867-20.484 8.224l-1.516.776-.04.01a3 3 0 11-3-5.18c8.47-4.35 17.22-8.84 26.77-10.22zm16.536 27.463l.233.28.27.34a3 3 0 01-4.576 3.877l-.122-.145-.252-.317a10.4 10.4 0 00-10.493-3.57 3 3 0 01-1.392-5.837 16.408 16.408 0 0116.332 5.372zm83.904-50.967l.125.03 12.09 3.39c.3.083.565.258.76.498l.09.125 12.73 19.49a1.5 1.5 0 01-2.426 1.758l-.085-.117-12.422-19.018-9.499-2.664.698 10.055 18.66 15.049a1.5 1.5 0 01.317 1.985l-.09.124a1.5 1.5 0 01-1.985.316l-.125-.09-19.17-15.46a1.5 1.5 0 01-.536-.91l-.018-.154-.89-12.83a1.5 1.5 0 011.776-1.577zm7.382 9.567l.091.086 12.92 13.92a1 1 0 01-1.375 1.447l-.09-.086-12.92-13.92a1 1 0 011.374-1.447zm-161.052-6.593c.09-.13 9.55-12.92 26.17-10.72a1 1 0 01.77.55l8.36 17.07v.18c.02.109.02.22 0 .33v.05c-.02.25-.45 3.84-5.81 6.08a1 1 0 01-1.24-.41l-2.78-4.68h-.23c-6.4 1.06-11.21 4.05-14.21 8.88a1 1 0 01-.84.46.91.91 0 01-.53-.15 1 1 0 01-.32-1.38c4.21-6.7 10.91-9.1 16.34-9.87a1 1 0 01.38 0 34 34 0 016.55-.2l-7.32-15c-15.13-1.68-23.68 9.88-23.76 10a1 1 0 01-1.4.22 1 1 0 01-.13-1.41zm32.97 8.18a31.55 31.55 0 00-5.34 0l1.88 3.12v.03a7.39 7.39 0 003.46-3.15zm-10.33-14.38l.06.05h.06a.94.94 0 01.09.12l.05.12a.6.6 0 01.06.19l.004.05-.004.05-.63 3.62a.57.57 0 01-1.12-.19l.33-1.89-3.39 3.32a2.69 2.69 0 01-.09 2.08l-3 6.36-3.73-2.27-4.84 4.59a.73.73 0 01-.25.15.65.65 0 01-.63-1.1l4.61-4.26-.71-.44a2.88 2.88 0 01-1.08-3.73 2.82 2.82 0 013.87-1.24l.47.26.61-.92a2.68 2.68 0 013.74-.76c.154.11.298.233.43.37l3.34-3.26-1.91.17a.54.54 0 01-.31-.06.56.56 0 01.21-1.06l3.49-.32h.27zm-13.956-29.841c.37.192.539.629.396 1.02a29.61 29.61 0 01-13 16.11l-4.83-9.15s10.5 0 16.37-7.72a.83.83 0 011.064-.26zm8.356-15.45a1.09 1.09 0 01-.8 2c-7.39-1.1-21.53-1.1-26.36 14.22l-1.66-13.22s10.26-15.94 28.82-3zm-6.032-54.498l.274.23 22.55 19.41a4.24 4.24 0 01-.428 6.75 4.22 4.22 0 01-3.863.424l-.223-.094-6.247-2.824.888 1.172a2.88 2.88 0 01.54 2.196l-.038.193a2.88 2.88 0 01-1.513 1.915 2.87 2.87 0 01-2.62-.024l-.172-.098-5.976-3.681 1.46 3.297a2.88 2.88 0 01.091 2.015l-.07.196a2.871 2.871 0 01-1.54 1.567 2.86 2.86 0 01-3.143-.57l-.135-.14-3.915-4.394.403 2.934a2.41 2.41 0 01-.456 1.764l-.118.148a2.387 2.387 0 01-1.78.822 2.4 2.4 0 01-1.572-.513l-.144-.123-5.006-4.635a3.002 3.002 0 00-3.405-.495l-.175.096a11.46 11.46 0 01-8.605 1.116l-.347-.097.574-1.917a9.456 9.456 0 007.084-.674l.294-.16a4.999 4.999 0 015.77.511l.174.158 4.999 4.628c.078.072.18.11.324.106a.41.41 0 00.41-.377l-.003-.088-.672-4.907a1.4 1.4 0 01.801-1.436 1.402 1.402 0 011.526.232l.103.1 5.227 5.867a.865.865 0 00.998.207.88.88 0 00.51-1.04l-.036-.104-2.249-5.08a1.4 1.4 0 01.369-1.591 1.402 1.402 0 011.522-.211l.126.066 7.631 4.7a.87.87 0 00.847.038.88.88 0 00.371-1.22l-.06-.092-2.34-3.088a1.4 1.4 0 01.05-1.682c.36-.449.953-.629 1.518-.456l.14.05 8.414 3.802a2.222 2.222 0 002.154-.175 2.24 2.24 0 00.357-3.449l-.128-.119-22.55-19.41a13.17 13.17 0 00-14.425-1.83l-.307.157-.932-1.77a15.17 15.17 0 0116.694 1.697zm68.484 14.127a1.5 1.5 0 012.627.056c.09.173.242.477.434.887l.237.518c.237.528.47 1.084.693 1.658.423 1.093.769 2.163 1.012 3.183.478 2.006.542 3.71.018 5.08-.715 1.87-2.427 2.817-4.827 2.646-3.669-.256-4.307-3.255-3.121-7.342l.15-.495c.287-.898.652-1.838 1.078-2.803a40.013 40.013 0 011.545-3.115zm1.193 4.202l.014.04-.162.359a25.27 25.27 0 00-.963 2.501c-.87 2.73-.682 3.863.323 3.933 1.153.082 1.6-.165 1.814-.725.26-.679.216-1.841-.134-3.312a22.029 22.029 0 00-.892-2.797v.001zm-78.605-1.4l1.79 5.54-1.25.4-1.44-4.38-.89.84-.53-.9 1.25-1.15 1.07-.35zm5.603-1.106c.55.327.931.876 1.047 1.506a3.46 3.46 0 01-.15 2.86 3.4 3.4 0 01-1.86 1.46 4.86 4.86 0 01-.59.19l-.35-1.02a3.89 3.89 0 00.57-.18 2.51 2.51 0 001-.7 1.78 1.78 0 00.367-1.074l-.007-.166a1.54 1.54 0 01-1 .76 1.74 1.74 0 01-2.29-1.17 2.12 2.12 0 011.44-2.67 2.22 2.22 0 011.823.204zm5.947.416c.56 1.71.25 3.11-1.17 3.57-1.42.46-2.48-.62-3-2.18s-.25-3.1 1.18-3.56c1.43-.46 2.46.66 2.99 2.17zm-2.68-1.14c-.52.17-.64.82-.22 2.1l.04.04c.4 1.28.91 1.78 1.41 1.62.5-.16.57-.88.16-2.14-.41-1.26-.87-1.79-1.39-1.62zm-4.8 1.5a.88.88 0 00-.52 1.19l.04.03a.83.83 0 001.07.63.86.86 0 00.6-.6.75.75 0 000-.34c-.19-.59-.6-1.1-1.19-.91zm10.64-4.52l.39.99a3.11 3.11 0 00-.5.18 1.85 1.85 0 00-1.374 1.755l.004.155a1.63 1.63 0 011-.82 1.77 1.77 0 012.3 1.25 2.08 2.08 0 01-1.4 2.67 2.29 2.29 0 01-3-1.71 3.24 3.24 0 012.06-4.29 3 3 0 01.52-.18zm-.55 3.3a.89.89 0 00-.61.74.79.79 0 000 .34c.22.58.67 1 1.26.83.59-.17.66-.65.48-1.21v-.01a.88.88 0 00-1.13-.69zm-8.14-31.32a6.25 6.25 0 017.44-2.35 6.33 6.33 0 013.17 2.89 3 3 0 003.75 1.44c3.37-.82 6.25-3.54 9.93-2.15 1.67.63 2.34 1.84 3.39 3.35 1.05 1.51 2.69 1.32 4.34 1.17 1.92-.18 1.91 2.83 0 3a8.55 8.55 0 01-4.77-.55c-1.36-.71-1.98-1.95-2.83-3.14-2.08-2.9-6.1.16-8.52 1-3.02 1.05-6.07.37-7.78-2.43a3.3 3.3 0 00-2.65-2 3.12 3.12 0 00-2.88 1.27v.01c-1.06 1.61-3.66.1-2.59-1.51zm3.47-9.18a7.73 7.73 0 018 .85c.98.77 1.65 1.87 2.65 2.62 1.24.93 2.61-.03 3.83-.55 2.74-1.19 5.79-1.91 8.63-.59a7.84 7.84 0 013 2.84 2.9 2.9 0 003.54 1.16c1.79-.64 2.61 2.25.79 2.89-2.86 1.01-5.34-.38-7-2.7-1.95-2.71-5.1-2.03-7.8-.84-1.38.61-2.75 1.35-4.31 1.19a5.45 5.45 0 01-3.25-1.73 10.71 10.71 0 00-2.79-2.5 4.68 4.68 0 00-3.74 0l-.03-.05c-1.75.78-3.28-1.81-1.52-2.59zm3.45-8.68a8.57 8.57 0 016.87 1.4c.98.73 1.67 1.91 2.74 2.49a6.29 6.29 0 003.46.4c2.72-.24 5.32-.94 7.94.25 1.81.85 4.49 3.93 6.67 3 1.75-.74 3.28 1.84 1.51 2.6-2.67 1.13-5.05.06-7.28-1.5a8.15 8.15 0 00-3.54-1.76 15.77 15.77 0 00-4.11.3c-2.45.32-5.11.34-7.11-1.33-1.01-.85-1.69-1.94-2.92-2.52a5.4 5.4 0 00-3.43-.4v-.03c-1.89.39-2.69-2.51-.8-2.9zm63.286-59.317c4.847 5.033 7.032 12.381 5.174 19.617a9.59 9.59 0 01-1.67 4.38c-.4.791-.85 1.556-1.35 2.29a21.16 21.16 0 01-3.46 3.856l-.44.374-6.69 10.35a1.07 1.07 0 01-.748.479l-.132.01-15.6.19a1.14 1.14 0 01-.63-.19 1 1 0 01-.32-.36 1.09 1.09 0 01-.058-.974l.058-.115 3.72-5.94c-8.243-3.03-13.444-10.749-13.627-19.07l-.005-.39 2.142-.87.002-.044.02-.359 31.12-12.66.292.267.037.037 2.165-.878zm-2.165.878l-31.471 12.76-.01.313c-.23 8.227 5.022 15.797 13.088 18.32l.352.106c.11.032.214.079.31.14.175.13.31.306.39.51.1.266.09.559-.024.815l-.066.125-3.41 5.43h2.41l2.15-3.1a1.075 1.075 0 011.836 1.11l-.066.11-1.29 1.76h3.6c.053-.045.066-.085.069-.123l.001-.037 3.24-4.69a1.08 1.08 0 011.49-.27 1.07 1.07 0 01.343 1.369l-.073.12-2.48 3.59 1.84-.01 6.48-10a1.34 1.34 0 01.23-.25c.45-.36.87-.75 1.28-1.15a4.76 4.76 0 01-3.63-.67c-2.58-1.78-2.71-6.08-.29-9.58s6.49-4.89 9.07-3.11c.169.123.33.257.48.4a18.637 18.637 0 00-5.602-13.752l-.247-.236zm-39.07 20.119l.117.003a1 1 0 01.908 1.084 12.35 12.35 0 007.604 12.508 1 1 0 11-.76 1.85 14.35 14.35 0 01-8.836-14.533 1 1 0 01.967-.912zm3.66-1.57l.117.003a1 1 0 01.908 1.084 12.35 12.35 0 007.595 12.498 1 1 0 01-.762 1.849 14.35 14.35 0 01-8.825-14.522 1 1 0 01.967-.912zm29.589 7.2c.34.198.54.564.531.95l-.011.13-.6 3.66a1.08 1.08 0 01-1.095.909l-.115-.01-3.6-.53a1.06 1.06 0 01-.55-1.83l.1-.08 4.15-3.14a1.06 1.06 0 011.19-.06zm73.01-19.73a1.52 1.52 0 012.11.27 1.5 1.5 0 01-.26 2.11l-8.53 6.61v6.11a1.51 1.51 0 01-.8 1.33l-4.92 2.57-5 2.61a1.5 1.5 0 11-1.39-2.66l2.69-1.4-4.29-2.76a1.5 1.5 0 011.62-2.52l5.73 3.68 3.35-1.76v-5.94a1.51 1.51 0 01.58-1.18zm-74.97 2.75c3.12 2.16 3.29 7.36.34 11.59-2.95 4.23-7.88 5.92-11 3.76s-3.34-7.36-.34-11.59c3-4.23 7.88-5.92 11-3.76zm5.54 8.92c-1.84 2.65-1.91 5.91-.17 7.11.119.086.246.16.38.22a8.44 8.44 0 016.72-9.71 2.22 2.22 0 00-.33-.28c-1.75-1.21-4.76.01-6.6 2.66zm-14.75-3.94c-2.2 3.21-2.31 7.15-.2 8.61a3 3 0 00.46.28 9.27 9.27 0 011.67-7.56 9.27 9.27 0 016.47-4.21 2.18 2.18 0 00-.4-.34c-2.12-1.46-5.8.01-8 3.22zm23.397-15.591c.821.678 2.002 2.007 3.168 4.017 2.666 4.595 3.813 10.459 2.601 17.61a1 1 0 01-1.972-.334c1.132-6.68.078-12.073-2.359-16.272a16.396 16.396 0 00-1.904-2.662l-.237-.261a6.852 6.852 0 00-.571-.557 1 1 0 111.274-1.541zm3.98-2.07c.821.677 2.002 2.005 3.17 4.015 2.67 4.597 3.816 10.464 2.599 17.623a1 1 0 01-1.972-.335c1.137-6.688.083-12.083-2.357-16.284a16.381 16.381 0 00-1.905-2.66l-.238-.261a6.848 6.848 0 00-.57-.556 1 1 0 011.273-1.543z" fill="#A7A6A5"/><path d="M233.06 117.001l.363.009.094-.002c1.415-.028 3.396.033 5.867.25l.469.043c4.066.38 8.49 1.1 13.18 2.24 12.97 3.155 25.86 8.963 37.89 18.068 10.321 7.813 19.455 17.602 27.214 29.515a56.63 56.63 0 006.476-1.652c1.29-.36 2.55-.87 3.8-1.36.058 0 .24-.065.316-.091l.003-.002.791-.347 1.64-.79a42.21 42.21 0 006.4-4l-.174.13c.027-.025.544-.43.544-.43l.81-.68c.447-.394.887-.794 1.32-1.2a34.78 34.78 0 002.34-2.5 19.4 19.4 0 002-2.65 32 32 0 001.77-3.12 3.79 3.79 0 015.13-1.35 3.84 3.84 0 011.35 5.13c-5.41 10.77-16.16 17.74-27.5 21-.951.274-1.903.52-2.855.742 10.342 18.134 17.81 40.654 21.86 67.986l.288.429a163.42 163.42 0 018.577 14.49c2.72 5.2 4.982 10.274 6.634 15.099 3.261 9.521 4.022 17.585 1.398 23.862-3.089 7.388-10.39 11.237-21.563 11.255a137.277 137.277 0 01-3.414 10.356c-7.019 18.722-17.77 34.394-32.852 45.921-7.061 5.397-14.968 9.8-23.746 13.15.071.25.119.511.14.78l.011.2 2.649 87.998 17.927 4.45a4 4 0 012.963 4.644l-.045.201a4 4 0 01-4.645 2.963l-.2-.044-20.87-5.18a4 4 0 01-3.024-3.557l-.011-.205-2.698-89.622c-11.431 3.37-24.196 5.112-38.344 5.112-11.372 0-21.85-1.126-31.46-3.317l2.537 84.555 17.927 4.45a4 4 0 012.963 4.644l-.045.201a4 4 0 01-4.645 2.963l-.2-.044-20.87-5.18a4 4 0 01-3.024-3.557l-.011-.206-2.698-89.977c-11.465-3.521-21.565-8.702-30.353-15.422-15.075-11.529-25.816-27.2-32.822-45.924-4.622-12.35-7.424-25.498-8.752-38.868-.892-8.975-1.039-17.065-.738-23.749l.066-1.313c.053-.954.105-1.658.151-2.142 6.046-52.8 24.203-88.92 50.996-110.991l.824-.673.939-.749c.317-.25.634-.497.953-.743l.959-.73c12.014-9.043 24.885-14.81 37.836-17.944 4.681-1.133 9.097-1.848 13.154-2.226 2.524-.235 4.563-.312 6.04-.299zm1.156 8.001l-.792.01-.248-.006a33.868 33.868 0 00-1.47.012l-.27.009a62.038 62.038 0 00-3.674.238c-3.684.343-7.72.997-12.015 2.036-11.937 2.889-23.812 8.21-34.906 16.56-.89.67-1.771 1.357-2.645 2.063-25.528 20.625-43.01 55.01-48.88 106.256l-.044.561-.054.814c-.018.294-.036.61-.053.948-.324 6.442-.206 14.395.676 23.266 1.264 12.723 3.924 25.205 8.283 36.856 6.51 17.397 16.4 31.826 30.19 42.372 16.333 12.49 37.773 19.245 65.019 19.245 27.247 0 48.691-6.754 65.034-19.246 13.798-10.546 23.698-24.975 30.22-42.374a128.26 128.26 0 002.684-7.95c-12.373-.972-21.236-3.29-30.674-7.304l-1.531-.664c-.825-.366-2.293-1.028-3.63-1.63-4.419 3.439-9.13 7.457-14.006 11.917l-1.02.937a71.176 71.176 0 01-44.824 19c-27.24 1.248-42.73-13.818-48.532-38.892-2.574-11.121-2.965-22.812-2.104-33.423l.059-.702c.127-1.463.252-2.548.343-3.194a4 4 0 017.945.911l-.11.898-.089.821a88.7 88.7 0 00-.175 1.913c-.8 9.86-.434 20.78 1.925 30.973 5.008 21.642 17.46 33.753 40.347 32.704a63.171 63.171 0 0039.263-16.403l1.629-1.498c3.741-3.423 7.367-6.588 10.86-9.454-5.892-1.996-11.307-2.686-19.048-2.325a4 4 0 01-.372-7.991c10.841-.506 18 .89 26.798 4.572 9.493-6.953 17.763-11.163 24.372-11.636a4 4 0 01.77 7.96l-.198.02c-4.079.292-9.73 2.982-16.382 7.46l-.293-.125c9.483 4.154 18.017 6.424 30.797 7.291 1.646-6.883 2.798-13.945 3.51-21.082.886-8.874 1.008-16.824.686-23.255l-.034-.639-.104-1.564a287 287 0 00-1.04-8.063 3.767 3.767 0 01-.058-.39c-4.074-28.065-11.8-50.708-22.526-68.522-21.316 1.885-42.668-6.698-63.522-8.541a74.7 74.7 0 00-18.1.35 45.27 45.27 0 00-15.63 5.43 43.34 43.34 0 00-6 4.15 48.31 48.31 0 00-5.64 5.53 40.21 40.21 0 00-4.28 5.94c-.73 1.18-1.39 2.39-2 3.64-.27.56-.53 1.13-.79 1.7a2.26 2.26 0 00-.15.347l-.001.005-.014.031c-.07.161-.139.331-.206.505l-.099.262-.01-.02a3.87 3.87 0 01-4.62 2.62 3.77 3.77 0 01-2.62-4.61 52.4 52.4 0 0123.95-27.38c24.05-12.84 51.18-3.17 76.05 1.1a98.64 98.64 0 0019.47 1.62l-.548.005c-6.719-9.559-14.419-17.516-22.97-23.989-11.11-8.408-23-13.766-34.952-16.673-4.301-1.046-8.344-1.704-12.035-2.049a61.822 61.822 0 00-3.683-.24l-.771-.02c-.156-.004-.302-.004-.438-.004zm110.646 153.519c-.691 6.922-1.777 13.784-3.306 20.508 6.833-.355 10.569-2.589 12.118-6.295 1.694-4.051 1.1-10.344-1.585-18.184-1.508-4.402-3.61-9.118-6.155-13.985l-.188-.354c.035 5.47-.219 11.644-.884 18.31zm-105.515-31.756a47.29 47.29 0 0011.279 7.64c10.23 4.959 21.132 6 30.72 4.797.478-.06.917-.122 1.315-.185l.796-.136.333-.065a4 4 0 111.726 7.811c-.625.138-1.703.328-3.174.513-10.991 1.379-23.381.195-35.206-5.537a55.284 55.284 0 01-13.177-8.925 4 4 0 015.388-5.913zm27.216-24.953a3 3 0 01.176 5.994l-.176.006h-7.318c-.363 5.637-5.046 10.062-10.737 10.062-5.69 0-10.374-4.425-10.737-10.063h-15.468a3 3 0 01-.176-5.994l.176-.005h44.26zm57.97 0a3 3 0 01.176 5.994l-.176.006h-7.318c-.363 5.637-5.046 10.062-10.737 10.062-5.69 0-10.374-4.425-10.737-10.063h-15.468a3 3 0 01-.176-5.994l.176-.005h44.26zm-62.037-21.272c.472.124 1.166.373 2.01.783a16.156 16.156 0 013.954 2.717c2.74 2.55 4.647 6.036 5.347 10.496a3 3 0 11-5.928.93c-.487-3.106-1.733-5.382-3.508-7.034a10.19 10.19 0 00-2.485-1.712 8.218 8.218 0 00-.59-.26l-.326-.117a3 3 0 111.526-5.803z" fill="#11100D"/></g></g></svg>