<svg xmlns="http://www.w3.org/2000/svg" viewBox="0 0 483 483"><g fill="none" fill-rule="evenodd"><path d="M242.884 120.002l.366.008.094-.002c1.415-.028 3.395.033 5.865.25l.469.043c4.064.38 8.486 1.099 13.175 2.238 12.965 3.151 25.85 8.953 37.875 18.049 9.508 7.192 18.023 16.086 25.387 26.802l.177-.069.626-.245c.106 0 .538-.187.268-.066l-.049.021.9-.395 1.629-.79a42.279 42.279 0 006.405-3.996l-.176.13c.024-.025.536-.43.536-.43a30.031 30.031 0 002.128-1.879 32.895 32.895 0 002.438-2.568 21.214 21.214 0 001.999-2.648 34.234 34.234 0 001.769-3.117 3.787 3.787 0 015.126-1.35 3.847 3.847 0 011.349 5.127c-4.36 8.678-12.188 14.886-20.997 18.674 9.694 16.012 17.066 35.65 21.682 59.238a3.997 3.997 0 01-7.845 1.535c-4.588-23.446-11.939-42.675-21.582-58.117-24.627 6.495-49.452-4.66-73.572-6.801a74.576 74.576 0 00-18.077.35 45.167 45.167 0 00-15.618 5.425 44.057 44.057 0 00-5.996 4.147 48.963 48.963 0 00-5.626 5.526 40.18 40.18 0 00-4.257 5.995 42.703 42.703 0 00-1.998 3.628c-.27.57-.53 1.139-.79 1.708-.048.065-.196.46-.137.333l.016-.037-.358.854a3.847 3.847 0 01-4.408 2.661l-.199-.043a3.767 3.767 0 01-2.618-4.607 52.32 52.32 0 0123.932-27.4c23.983-12.83 51.093-3.167 75.944 1.1a98.739 98.739 0 0019.466 1.619c1.449-.04 2.968-.12 4.446-.27.61-.06 1.21-.13 1.82-.21-.65.11-.03 0 .089 0l1.08-.17a56.49 56.49 0 002.395-.464c-6.525-9.063-13.94-16.634-22.127-22.826-11.106-8.4-22.991-13.752-34.94-16.656-4.3-1.045-8.341-1.702-12.031-2.047a61.847 61.847 0 00-3.682-.24l-.53-.014c-.249-.006-.476-.009-.68-.01l-.792.01-.597-.01a38.84 38.84 0 00-1.404.024 61.828 61.828 0 00-3.68.24c-3.688.344-7.727 1-12.025 2.045-11.942 2.902-23.82 8.25-34.92 16.642-26.816 20.278-45.245 55.154-51.314 108.13l-.044.56-.054.815c-.018.293-.036.61-.053.947-.324 6.437-.206 14.383.675 23.248 1.264 12.713 3.921 25.186 8.278 36.827 6.505 17.385 16.387 31.803 30.166 42.34 16.322 12.482 37.746 19.23 64.972 19.23 39.06 0 65.968-13.76 83.06-38.2l-10.084-4.24a3.997 3.997 0 01-1.53-1.135l-10.277-12.405c-32.104 8.914-57.08 7.959-76.527-1.598-15.933-7.831-27.15-20.522-37.349-39.264l-.637-1.18c-1.483-2.771-2.953-5.672-4.637-9.12l-5.255-10.876-.078-.16a3.997 3.997 0 117.177-3.52l4.98 10.313 1.048 2.139a242.144 242.144 0 004.117 8.015l.307.568c9.48 17.421 19.653 28.932 33.853 35.91 16.856 8.284 38.767 9.416 67.393 2.002l-7.211-8.705a3.991 3.991 0 01-1.291-1.558l-7.05-8.512a3.997 3.997 0 01.64-5.716l11.141-8.583a3.997 3.997 0 015.48.57l32.426 37.982c.545.638.875 1.432.943 2.268l1.16 14.14a3.95 3.95 0 01-.574 2.418 3.986 3.986 0 01-.543 3.266c-11.336 16.86-26.846 29.25-46.903 36.329l2.563 85.484 17.914 4.447a3.997 3.997 0 012.96 4.641l-.044.2a3.997 3.997 0 01-4.641 2.962l-.2-.045-20.855-5.176a3.997 3.997 0 01-3.021-3.554l-.012-.205-2.587-86.3c-10.756 2.892-22.692 4.392-35.856 4.392-12.362 0-23.666-1.33-33.945-3.915l2.485 82.553 17.913 4.447a3.997 3.997 0 012.961 4.641l-.044.2a3.997 3.997 0 01-4.641 2.962l-.201-.045-20.855-5.176a3.997 3.997 0 01-3.02-3.553l-.012-.206-2.655-88.178c-10.423-3.485-19.681-8.384-27.814-14.604-15.063-11.52-25.796-27.18-32.797-45.888-4.619-12.341-7.418-25.479-8.746-38.838-.891-8.97-1.038-17.052-.737-23.732l.065-1.312c.054-.953.106-1.656.152-2.14 6.317-55.15 25.803-92.025 54.443-113.683 12.02-9.088 24.897-14.885 37.855-18.034 4.686-1.138 9.107-1.857 13.168-2.237l.926-.08c2.106-.174 3.834-.23 5.133-.218zm62.163 181.402l-5.172 3.641 20.352 24.569 6.316 2.655-.516-6.29-20.98-24.575zm-8.14-9.533l-4.85 3.736 2.703 3.263 5.074-3.572-2.927-3.427zm8.857-50.512a3.467 3.467 0 013.407 3.997c-1.98 13.563-13.613 23.62-27.32 23.62s-25.339-10.057-27.32-23.62a3.457 3.457 0 013.408-3.997zm-23.993 12.85a18.357 18.357 0 00-11.401 4.507s3.607 4.197 11.401 4.197c7.795 0 10.792-4.197 10.792-4.197a15.848 15.848 0 00-10.792-4.507zm29.399-41.218c6.445 0 11.67 5.225 11.67 11.67a2.998 2.998 0 01-5.99.177l-.005-.176a5.676 5.676 0 00-11.351 0 2.998 2.998 0 01-5.996 0c0-6.446 5.226-11.671 11.672-11.671zm-52.692 1.336a11.671 11.671 0 015.715 10.437 2.998 2.998 0 01-5.993-.028v-.176a5.676 5.676 0 10-11.348-.248l.003.248a2.998 2.998 0 01-5.992.204 11.671 11.671 0 0117.615-10.437z" fill="#11100D" fill-rule="nonzero"/><path fill-opacity=".01" fill="#EDF0F2" d="M0 0h483v483H0z"/></g></svg>