<svg xmlns="http://www.w3.org/2000/svg" viewBox="0 0 483 483"><g fill="none" fill-rule="evenodd"><path fill-opacity=".01" fill="#EDF0F2" d="M0 0h483v483H0z"/><path d="M201.737 120.299c2.689-.251 4.831-.322 6.334-.293l.1.002.193-.004c.163-.004.348-.004.556-.004l.688.008a62.51 62.51 0 013.41.16c3.48.253 7.332.774 11.474 1.633 11.642 2.412 23.466 7.01 34.81 14.348 31.99 20.696 54.01 58.781 60.847 118.293.035.38.082.998.13 1.84l.078 1.528c.148 3.284.188 6.907.084 10.808l.145.575.149.559c.308 1.144.68 2.423 1.114 3.802 1.24 3.937 2.73 7.87 4.457 11.515 4.014 8.468 8.64 13.885 13.273 14.989 5.213 1.241 11.687-2.814 19.397-14.232v-5.156a15.78 15.78 0 0113.25-15.576V254.59a3.198 3.198 0 01.004-.173l.003-.038a3.004 3.004 0 011.928-2.642l-.169.073c.067-.032.135-.06.204-.088l.642-.254a68.05 68.05 0 0114.253-3.858l.344-.87a9.926 9.926 0 00-1.742-10.22 16.069 16.069 0 01-2.473-17.495l.16-.326 3.68-7.37a3.07 3.07 0 015.568 2.579l-.076.163-3.681 7.374a9.933 9.933 0 001.227 10.78l.208.243a16.072 16.072 0 013.514 14.427 67.94 67.94 0 0110.332.203l.552-1.393a6.471 6.471 0 00-.995-6.479l-.169-.199a12.63 12.63 0 01-1.955-13.69l.146-.302 2.71-5.41a3.07 3.07 0 015.566 2.586l-.076.164-2.71 5.409a6.489 6.489 0 00.752 6.977l.175.208a12.608 12.608 0 012.383 12.685l-.12.316-.01.022c4.331.826 8.6 2.077 12.745 3.752l-.047-.02c.067.026.132.054.197.085a2.994 2.994 0 011.692 2.08l.012.057a2.228 2.228 0 01.043.262 3.04 3.04 0 01.023.382l-.004-.154.004.122v53.873a5.406 5.406 0 01-3.958 5.22l-.81.221a87.2 87.2 0 01-46.118-.225l-.1-.03-.274-.089a5.398 5.398 0 01-3.58-5.088v-5.432a15.786 15.786 0 01-10.777-7.095c-8.033 9.864-15.933 13.783-23.723 11.927-7.67-1.827-13.683-8.87-18.649-19.345l-.22-.471c-1.52 11.135-4.115 22.049-7.99 32.403-7.006 18.723-17.747 34.395-32.822 45.923-7.69 5.88-16.384 10.582-26.117 14.024l2.565 85.564 17.926 4.45a4 4 0 012.964 4.645l-.045.2a4 4 0 01-4.645 2.964l-.2-.045-20.87-5.18a4 4 0 01-3.024-3.556l-.011-.206-2.59-86.373c-10.78 2.904-22.71 4.403-35.832 4.403-12.387 0-23.713-1.335-34.01-3.929l2.477 82.627 17.926 4.45a4 4 0 012.964 4.645l-.045.2a4 4 0 01-4.645 2.964l-.2-.045-20.87-5.18a4 4 0 01-3.024-3.556l-.011-.206-2.648-88.26c-10.415-3.486-19.665-8.384-27.793-14.6a90.932 90.932 0 01-6.122-5.122v37.335c.002.087.001.174-.003.26l.004-.183a4.062 4.062 0 01-.016.366l-.011.1a2.626 2.626 0 01-.013.103l-.015.093a2.728 2.728 0 01-.04.21 2.888 2.888 0 01-.074.28 4.038 4.038 0 01-.284.699l-.003.004a3.965 3.965 0 01-.688.947l-.03.029-.044.044-.075.071-.029.025a3.923 3.923 0 01-1.027.673l-.052.023c-.104.046-.21.087-.319.124l-.051.016c-.05.017-.101.032-.152.046l-.03.008c-.055.016-.11.03-.167.042-.006 0-.011.002-.017.003l-.062.014a3.981 3.981 0 01-.096.018l-.054.009a2.453 2.453 0 01-.23.03 2.434 2.434 0 01-.222.018l-.076.003-.077.002H99.746a4 4 0 01-.2-7.995l.2-.005h15.319l-12.003-8.082a4 4 0 014.289-6.75l.179.114 16.635 11.202v-38.19c-7.755-9.109-13.828-19.752-18.374-31.645l-.326-.862c-4.622-12.35-7.424-25.498-8.752-38.868-.924-9.297-1.048-17.642-.705-24.46.043-.844.086-1.524.126-2.056l.058-.688c3.912-34.154 12.87-61.304 25.924-82.177a1.653 1.653 0 01-.027-.016l-.533-.355-.448-.285c-.24-.148-.502-.307-.786-.474a45.047 45.047 0 00-4.678-2.378c-8.404-3.687-17.01-4.72-24.868-1.636-11.84 4.648-21.25 18.357-26.88 43.819a3.995 3.995 0 11-7.8-1.725c6.152-27.828 17.098-43.776 31.76-49.531 10.156-3.987 20.828-2.706 30.998 1.755 2.03.89 3.876 1.845 5.511 2.804l.479.285c.76.457 1.324.827 1.675 1.075l.035.025c7.059-9.877 15.14-18.164 24.122-24.956 12.028-9.095 24.915-14.897 37.882-18.048 4.69-1.139 9.114-1.858 13.179-2.238zm-3.064 37.266l-.344.586a111.819 111.819 0 01-6.093 9.17c-17.466 23.663-43.192 39.019-78.463 42.035-4.41 13.46-7.662 28.697-9.624 45.822l-.08 1.09c-.024.371-.048.783-.07 1.234l-.033.671c-.283 6.32-.144 14.029.707 22.595 1.265 12.723 3.925 25.205 8.284 36.855 3.001 8.02 6.72 15.409 11.208 22.077v-93.19a4 4 0 013.801-3.995l.2-.005a4 4 0 013.995 3.8l.005.2-.001 103.402c3.344 3.67 7 7.039 10.981 10.083 16.334 12.491 37.773 19.245 65.02 19.245 27.246 0 48.686-6.754 65.02-19.245 13.79-10.545 23.678-24.974 30.189-42.372 4.36-11.65 7.019-24.132 8.283-36.855.882-8.872 1-16.824.675-23.266l-.017-.33a85.434 85.434 0 00-.053-.905l-.07-.97-.14-1.222c-3.188-26.767-9.609-49.035-18.818-67.187-27.762-.2-51.287-5.586-70.67-14.477-6.958-3.191-12.887-6.621-17.805-10.066a73.894 73.894 0 01-4.103-3.077l-.382-.312a32.949 32.949 0 01-1.602-1.391zM378.365 258.8v9.16l-.001.036.002 32.108v.036l-.002.036v7.703l.248.068a81.048 81.048 0 0041.297.206l.78-.206.237-.065v-48.863l-.662.207c-.387.117-.784.233-1.193.347l-.62.17c-11.582 3.113-25.03 3.405-39.606-.802l-.48-.141zm-10.423 15.05a9.64 9.64 0 00-2.82 6.487l-.006.261a4 4 0 012.84 6.07 105.731 105.731 0 01-2.389 3.684 9.658 9.658 0 006.658 6.382v-25.366a9.64 9.64 0 00-4.283 2.483zm-97.786-28.71a3.47 3.47 0 013.41 4c-1.982 13.573-13.623 23.637-27.34 23.637-13.718 0-25.358-10.064-27.34-23.637a3.46 3.46 0 013.41-4zm-24.01 12.87a18.39 18.39 0 00-11.41 4.5s3.6 4.2 11.41 4.2v.02c7.85 0 10.8-4.22 10.8-4.22a15.88 15.88 0 00-10.8-4.5zm158.842-4.853a61.948 61.948 0 00-11.521.077l-.787 1.99c1.466.2 2.908.36 4.315.474l.906.068c1.063.073 2.096.118 3.032.134a61.193 61.193 0 0011.963-1.231l.706-.149-.144-.034a61.926 61.926 0 00-3.596-.711 3.069 3.069 0 01-4.873-.614zM214.896 203.94c9.422 0 17.06 7.638 17.06 17.06 0 9.422-7.638 17.06-17.06 17.06-9.422 0-17.06-7.638-17.06-17.06 0-9.422 7.638-17.06 17.06-17.06zm56.56 0c9.422 0 17.06 7.638 17.06 17.06 0 9.422-7.638 17.06-17.06 17.06-9.422 0-17.06-7.638-17.06-17.06 0-9.422 7.638-17.06 17.06-17.06zm-56.56 8a9.06 9.06 0 100 18.12 9.06 9.06 0 000-18.12zm56.56 0a9.06 9.06 0 100 18.12 9.06 9.06 0 000-18.12zm-179.35-17.885a3.995 3.995 0 013.99 3.796l.005.199v21.19a3.995 3.995 0 01-7.985.2l-.005-.2v-21.19a3.995 3.995 0 013.995-3.995zm-13.234.045a3.995 3.995 0 013.38 4.348l-.026.198-2.93 19.43a3.995 3.995 0 01-7.925-.994l.025-.198 2.93-19.43a3.995 3.995 0 014.546-3.354zm123.686-65.844l-.077.008c-3.69.345-7.733 1.002-12.034 2.047-11.95 2.904-23.838 8.256-34.946 16.655-16.33 12.35-29.553 30.108-38.77 54.066 31.012-3.514 53.532-17.396 69.077-38.456 6.366-8.626 11.107-17.883 14.45-27.137a98.49 98.49 0 002.3-7.183zm8.312-.204l-.022.094-.09.355a103.349 103.349 0 01-2.985 9.653 117.394 117.394 0 01-5.412 12.624c.59.143 1.155.423 1.645.84l.35.318c.184.166.463.408.836.718l.166.137a64.19 64.19 0 003.986 3.01c4.53 3.173 10.043 6.362 16.553 9.348 17.328 7.948 38.25 12.965 62.9 13.67-9.346-15.712-20.81-27.523-33.841-35.953-10.467-6.772-21.37-11.01-32.087-13.232-3.788-.785-7.292-1.259-10.432-1.487a63.215 63.215 0 00-1.567-.095z" fill="#11100D" fill-rule="nonzero"/></g></svg>