<svg xmlns="http://www.w3.org/2000/svg" viewBox="0 0 483 483"><g fill="none" fill-rule="evenodd"><path fill-opacity=".01" fill="#EDF0F2" d="M0 0h483v483H0z"/><path d="M246.368 120.057a79.52 79.52 0 018.014.794c8.383 1.238 17.248 3.7 26.214 7.717 18.073 8.093 34 21.235 46.65 40.267.77-.275 1.535-.58 2.296-.884.085 0 .379-.12.355-.105l-.009.003.774-.348c.367-.166.73-.338 1.09-.516l.54-.274a42.31 42.31 0 006.41-4l-.164.123c-.029.023-.01.01.093-.068l.055-.043-.145.107.019-.014c.109-.087.445-.35.496-.39.286-.235.556-.455.826-.695.45-.38.89-.78 1.31-1.19a32.92 32.92 0 002.44-2.57 22 22 0 002-2.65 34.26 34.26 0 001.77-3.12 3.79 3.79 0 015.1-1.33 3.85 3.85 0 011.35 5.13c-4.616 9.19-13.119 15.605-22.56 19.321 3.052 5.204 5.879 10.801 8.464 16.804a30.771 30.771 0 0144.093 27.303l.003.424-.009.656.492.183c15.638 5.905 26.253 20.83 26.493 37.77l.004.553c-.02 21.099-15.998 38.537-36.63 40.727l-.348.034-.046.141a41.013 41.013 0 01-24.296 25.305c2.68 8.627 6.416 16.797 11 21.952 3.067 3.447 6.114 5.036 9.216 4.791 3.91-.308 8.553-3.453 13.833-10.178.064-.082.131-.16.2-.236v-17.054-.07l.001-8.046a4 4 0 014-4h12.54v-18.79a4 4 0 013.8-3.995l.2-.005h12.06a4 4 0 014 4v18.79h.46a4 4 0 013.995 3.8l.005.2v49.15a4 4 0 01-4 4h-33.06a4 4 0 01-4-4v-12.199c-10.533 9.463-20.795 8.638-29.227-.841-5.214-5.863-9.197-14.227-12.133-23.22-7.464 16.047-18.035 29.4-32.122 39.286-6.936 4.868-14.637 8.83-23.126 11.835l2.565 85.547 17.927 4.45a4 4 0 012.963 4.645l-.044.2a4 4 0 01-4.645 2.964l-.201-.045-20.87-5.18a4 4 0 01-3.023-3.556l-.012-.206-2.59-86.354c-10.796 2.912-22.743 4.414-35.882 4.414-12.374 0-23.686-1.33-33.97-3.914l2.477 82.582 17.927 4.45a4 4 0 012.963 4.645l-.044.2a4 4 0 01-4.645 2.964l-.201-.045-20.87-5.18a4 4 0 01-3.023-3.556l-.012-.206-2.645-88.207c-7.881-2.632-15.094-6.07-21.656-10.273v34.462l-.003.09.002-.162a4.061 4.061 0 01-.042.584l-.009.057a3.816 3.816 0 01-.222.815l-.023.058a3.433 3.433 0 01-.054.126l-.03.066a3.057 3.057 0 01-.055.11l-.04.075a3.972 3.972 0 01-.824 1.061l-.021.018c-.136.124-.28.237-.43.339l-.04.026a2.756 2.756 0 01-.108.07l-.077.046a3.022 3.022 0 01-.268.144 2.984 2.984 0 01-.083.04l-.08.035c-.23.1-.47.179-.718.234-.007 0-.013.002-.02.004a2.907 2.907 0 01-.161.032l-.04.006c-.051.01-.102.017-.154.023l-.047.006a3.181 3.181 0 01-.224.019l-.03.001-.066.003-.088.002h-28.466a4 4 0 01-.2-7.995l.2-.005h15.326l-12.01-8.093a4 4 0 014.29-6.748l.18.114 16.634 11.209v-32.63a90.894 90.894 0 01-1.9-1.575c-14.596-12.427-24.711-28.952-31.027-48.37a39.929 39.929 0 01-16.357-2.03l-.478-.167-.471-.172c-15.238-5.668-25.482-19.967-26.033-36.106l-.014-.49-.009-.523-.658-.209c-23.172-7.542-38.384-30.024-36.545-54.53l.061-.743.077-.791c2.608-25.107 22.438-44.728 47.185-47.387l.752-.076.196-.017.107-.348c6.12-19.67 23.119-34.116 43.654-36.89l.623-.08.666-.078a53.138 53.138 0 0133.122 7.208 88.36 88.36 0 011.32-1.017c12.026-9.094 24.912-14.894 37.878-18.044 4.69-1.14 9.114-1.859 13.179-2.238 2.532-.236 4.579-.313 6.065-.297l.358.006.516-.009c.61-.003 1.435.012 2.46.057zM204.023 300.67l-.22.139a43.198 43.198 0 01-24.16 6.396v53.83c16.151 11.843 37.166 18.236 63.7 18.236 25.764 0 46.35-6.039 62.341-17.262 12.284-8.621 21.68-20.175 28.511-34.115a41.011 41.011 0 01-32.834-17.45l-.28-.405-.293.354c-10.981 13.021-29.474 17.626-45.544 10.604l-.554-.246a38.992 38.992 0 01-14.43-11.274 53.187 53.187 0 01-35.621-8.394l-.543-.363-.073-.05zm187.739 29.557v31.304h8.53v-28.146l-8.53-3.158zm25.06-9.846h-25.06v1.316l13.92 5.153a4 4 0 012.605 3.543l.005.208v30.93h8.53v-41.15zm-253.239-16.877l-.263.262a39.946 39.946 0 01-16.67 9.773c5.397 16.158 13.592 30.017 24.992 40.816v-47.554c0-.209.016-.414.047-.615a43.093 43.093 0 01-7.53-2.43l-.515-.224-.06-.028zm170.531-96.24a4 4 0 01-5.923.835 22.76 22.76 0 00-29.585.084 43.224 43.224 0 0113.943 30.713l.01.58.003.516c-.005 19.152-12.578 35.89-30.684 41.381l-.55.163-.488.136-.181.342a53.182 53.182 0 01-31.342 25.56 31.03 31.03 0 008.688 5.895c14.642 6.666 31.95 1.073 39.923-12.9 1.608-2.818 5.726-2.65 7.099.29a33 33 0 0061.897-5.877 4 4 0 013.773-3.02c17.87-.468 32.117-15.08 32.135-32.947-.012-14.853-9.945-27.866-24.268-31.796a4 4 0 01-2.908-4.378 22.77 22.77 0 00-41.542-15.577zm78.248 90.327h-4.06v14.79h4.06v-14.79zM152.35 142.343c-18.88 2.085-34.439 15.754-38.94 34.206a4 4 0 01-3.75 3.05c-22.552.766-41.083 18.05-43.414 40.494-2.332 22.444 12.25 43.168 34.162 48.554a4 4 0 013.035 4.173 31.15 31.15 0 00-.09 2.253 32 32 0 0056.285 20.933 4 4 0 014.919-.923 35.21 35.21 0 0037.204-2.524 4 4 0 014.766.06 45.18 45.18 0 0067.981-16.132 4 4 0 012.699-2.144c16.007-3.682 27.352-17.928 27.356-34.352a35.222 35.222 0 00-16.667-29.94 4 4 0 01-1.691-4.653c7.179-21.768-3.077-45.464-23.862-55.13-20.785-9.665-45.514-2.237-57.534 17.28-1.648 2.677-5.597 2.494-6.991-.323a45.114 45.114 0 00-14.13-16.66 3.977 3.977 0 01-2.27-1.528 45.145 45.145 0 00-29.068-6.694zm171.086 35.414l-.094.022c-9.483 2.177-18.988 1.837-28.466.497a52.967 52.967 0 01.828 22.04 30.764 30.764 0 0134.036-.97l.262.165.087-.098a30.672 30.672 0 012.87-2.83c-2.87-6.829-6.054-13.095-9.523-18.826zm-80.631-49.755a38.89 38.89 0 00-1.407.024c-1.097.036-2.33.113-3.684.24-3.69.344-7.733 1.001-12.033 2.046-11.703 2.843-23.346 8.034-34.254 16.136a53.085 53.085 0 019.926 10.982l.329.492.064.1.42-.52c14.864-18.145 40.202-24.571 62.15-15.114l.665.291.735.335c12.305 5.722 21.475 15.622 26.475 27.31a98.735 98.735 0 0018.622 1.467c1.45-.04 2.97-.13 4.45-.27.61-.06 1.21-.13 1.82-.21-.65.1-.03 0 .09 0l1.08-.18a55 55 0 00.785-.138c-11.531-16.529-25.725-27.965-41.71-35.124-8.264-3.701-16.426-5.969-24.114-7.104a72.731 72.731 0 00-6.668-.69l-.535-.026a45.806 45.806 0 00-1.617-.045l-.799.003-.192.004-.598-.009z" fill="#11100D" fill-rule="nonzero"/></g></svg>