<svg xmlns="http://www.w3.org/2000/svg" viewBox="0 0 483 483"><g fill="none" fill-rule="evenodd"><path fill-opacity=".01" fill="#EDF0F2" d="M0 0h483v483H0z"/><g fill="#100F0D" fill-rule="nonzero"><path d="M245.14 270.987a116.26 116.26 0 00-57.68 0 4 4 0 00-3 4.7c.34 1.66.65 3.21.93 4.65 2.21 11.37 3.68 18.87 14.89 18.87 6.45 0 10.85-4.84 12.9-7.74l6.9-.14a14.41 14.41 0 0013.33 7.88 12.27 12.27 0 009.14-3.89c6.21-6.57 5.66-19.25 5.58-20.67a4 4 0 00-2.99-3.66zm-8.4 18.81a4.22 4.22 0 01-3.32 1.38c-5.31 0-6.53-4-6.71-4.74a4 4 0 00-3.91-3.19h-.08l-11.85.23a4 4 0 00-3.47 2.14c0 .06-3.06 5.56-7.13 5.56s-4.7-.4-7-12.4l-.18-.93a108.51 108.51 0 0147.11.15c-.23 3.73-1 9.22-3.46 11.8zM216.02 315.657a4 4 0 00-5.63.52l-14.47 17.4a4.005 4.005 0 006.16 5.12l14.46-17.4a4 4 0 00-.52-5.64zM225.71 318.797l-12.29 12.46a4 4 0 105.69 5.61l12.29-12.46a4 4 0 10-5.69-5.61z"/><path d="M410.98 310.437l-15.9-8.44 16.23-7.14a4 4 0 10-3.22-7.32l-24 10.58a4 4 0 00-1.53 1.2c-14.18 7.49-27.17 8.89-38.61 4.13-22.26-9.27-33.19-39.05-35.63-46.55l.2-2.71a4.1 4.1 0 000-.5v-.4c-4.19-36.45-14.12-62.8-26-81.85 7.61-3.86 14.23-9.56 18.15-17.3 2.18-4.3-4.29-8.1-6.48-3.79a33.44 33.44 0 01-15.84 14.86 111.86 111.86 0 00-31.5-30.56c-25.07-15.85-48.1-15.69-50.4-15.64-2.3.05-25.33-.21-50.37 15.64-31.95 20.26-48 54.59-56 87a4.06 4.06 0 00-.33 1.34 255.09 255.09 0 00-5.28 30.29c-12.49 77.68-3.83 120.63 8.68 144.31l-11.35-7.64a4 4 0 10-4.46 6.63l12 8.09H74a4 4 0 100 8h28.42c.3-.001.599-.038.89-.11h.13c14.7 16.19 30.38 16.64 31 16.64l21.35.94 1 38.1a4 4 0 003 3.77l20.87 5.19a4.003 4.003 0 001.93-7.77l-17.92-4.45-.92-34.48 31.49 1.3a19.14 19.14 0 0018.24-11l.81-1.72 4.69 7.46a12.23 12.23 0 0010.43 5.76h4.19l1 35.92a4 4 0 003 3.76l20.87 5.19a4.09 4.09 0 001 .12 4 4 0 001-7.89l-17.92-4.45-.94-32.65h28.61a4 4 0 003.82-2.84l1.38-4.53 1.58 4.66a4 4 0 003.79 2.71h18.83a21.61 21.61 0 0018.23-9.5 21.39 21.39 0 001.92-20.43l-5.66-13.24a139.56 139.56 0 01-11.05-61.55l3.92-52.74c6.26 12.77 17.1 29 33.86 36 13.77 5.74 29.06 4.26 45.48-4.43l20.93 11.11a4 4 0 103.76-7.06l-.03-.02zm-307.52-105.77l49.92 8.82v1.91c-.211 15.53 12.2 28.295 27.73 28.52h.4c13.43-.024 24.974-9.532 27.57-22.71a7.68 7.68 0 016.77.1c2.227 13.399 13.719 23.287 27.3 23.49h.41c15.366-.026 27.875-12.366 28.11-27.73l.08-5.53a4 4 0 00-3.94-4l-48.25-.74a3.75 3.75 0 00-2.84 1.13 4 4 0 00-1.21 2.81v2a15.49 15.49 0 00-5.83-.06v-1.21a2.89 2.89 0 000-1.06c0-.12 0-.22-.07-.34a4.7 4.7 0 00-.13-.63c-2.14-10.48-10.72-12.93-11.09-13a3 3 0 00-3.65 2.1 3 3 0 002.06 3.69 10 10 0 015.21 4.3l-44.54-.63h-.06a4.75 4.75 0 00-.53.05l-50.53-8.9c10.09-24.55 24.78-43.32 43.63-55.4 23.78-15.24 46.09-14.64 46.32-14.64h.31c.21 0 22.18-.67 45.94 14.4a102.89 102.89 0 0128 26.62c-8.13 2.19-16.56 2.33-25 1.41-22.92-2.5-45.22-11.83-68.56-7.42a52.09 52.09 0 00-29.84 17.33 3.85 3.85 0 000 5.3 3.78 3.78 0 005.31 0 45.5 45.5 0 0125.83-15.26c10.84-2.2 22.21-.85 33 1.18 20.82 3.92 42.85 10.84 63.74 4 13 20.53 21.67 47.09 25.42 78.81-3.19 8.19-12.73 14.7-23.56 16-9.84 1.16-18.11-2.39-22.69-9.75-11.35-18.22-28.8-13.17-35.77-10.15a8.93 8.93 0 01-6.44.32c-19.73-6.67-26-.92-32.7 7.93-4.57 6-9.29 12.26-25.24 12.26-17.27 0-32-7.92-43.68-23.55a90 90 0 01-12.43-23.24 192.06 192.06 0 015.52-18.53zm57.89 10.85v-1.53l40.24.56v1.53c0 .52-.05 1-.1 1.53h-40.05a18.52 18.52 0 01-.09-2.09zm10.32 8.09a10.74 10.74 0 0021.47 0H200a20.1 20.1 0 01-37.06 0h8.73zm51.76-7.22v-1.53l40.24.57v2.18h-40.2c-.02-.4-.05-.81-.04-1.22zm10.15 7.22a10.74 10.74 0 0021.47 0h7.37a20.14 20.14 0 01-18.87 13.19h-.28a20.1 20.1 0 01-18.6-13.19h8.91zm73.14 168.69l5.67 13.24a13.46 13.46 0 01-12.7 18.75h-16l-4.67-13.72a4 4 0 00-7.62.13l-4.11 13.59h-37.88a4.29 4.29 0 01-3.66-2l-8.58-13.67a4 4 0 00-3.39-1.87h-.25a4 4 0 00-3.37 2.29l-3.92 8.37a11.14 11.14 0 01-10.65 6.45l-60.92-2.68c-.58 0-14.26-.59-27-16-.41-.5-.83-1-1.24-1.56v-128a4 4 0 10-8 0v114.7c-10.83-22.94-17.68-63.67-6.06-135.9a1.1 1.1 0 000-.18c.667-6.06 1.54-11.927 2.62-17.6a96.29 96.29 0 008.78 14.31c13.14 17.63 30.51 26.95 50.24 26.95 19.92 0 26.68-8.92 31.61-15.43s8-10.52 23.76-5.18a16.91 16.91 0 0012.19-.56c7.7-3.33 18.42-4.81 25.8 7 6.19 9.94 17.56 15 30.42 13.46a40.6 40.6 0 0021.66-9.39l-4.4 59.29a147.72 147.72 0 0011.67 65.21z"/></g></g></svg>