<svg xmlns="http://www.w3.org/2000/svg" viewBox="0 0 483 483"><g fill="none" fill-rule="evenodd"><path fill-opacity=".01" fill="#EDF0F2" d="M0 0h483v483H0z"/><path d="M224.855 116.01l.067.007h.063l.37.007.096-.002c1.52-.03 3.683.041 6.4.295 4.103.383 8.568 1.11 13.302 2.26 13.087 3.182 26.093 9.04 38.232 18.227 10.37 7.847 19.66 17.819 27.605 30.108 9.885-13.653 27.059-22.646 46.505-22.646 30.483 0 55.383 22.087 55.405 49.595 0 25.99-22.308 47.367-50.852 49.434a13.817 13.817 0 00-6.046 1.897 67.88 67.88 0 01-7.998 4.037 78.034 78.034 0 01-8.843 3.144l-.001 153.298v.069l-.003.09.003-.16a4.096 4.096 0 01-.016.37l-.009.081a2.82 2.82 0 01-.014.115l-.012.078a3.196 3.196 0 01-.023.13l-.014.067a3.198 3.198 0 01-.076.303 4.123 4.123 0 01-.062.19c-.11.317-.26.615-.441.89l-.022.031-.024.037a4.051 4.051 0 01-.263.34l-.033.038a3.859 3.859 0 01-.233.244l-.04.037a3.822 3.822 0 01-.36.3l-.05.035a1.698 1.698 0 01-.068.048l-.093.061a2.386 2.386 0 01-.172.105l-.053.03c-.045.025-.09.05-.136.072l-.025.013a3.698 3.698 0 01-.147.07l-.05.02a2.993 2.993 0 01-.127.054l-.06.022a2.653 2.653 0 01-.129.046l-.047.015c-.18.059-.365.104-.555.136l-.014.002.014-.002a4.028 4.028 0 01-.156.024l-.093.01a2.629 2.629 0 01-.21.018h-.02l-.031.002a4.054 4.054 0 01-.094.003h-28.187a4.035 4.035 0 01-.201-8.064l.201-.005 14.9-.001-11.665-7.858a4.035 4.035 0 014.329-6.808l.18.115 16.33 11.002v-85.662a135.852 135.852 0 01-2.035 5.859c-7.06 18.897-17.893 34.714-33.106 46.35-7.777 5.947-16.573 10.7-26.425 14.176l2.583 86.342 18.101 4.493a4.035 4.035 0 012.988 4.692l-.044.197a4.035 4.035 0 01-4.691 2.987l-.197-.043-21.07-5.23a4.035 4.035 0 01-3.05-3.588l-.011-.208-2.61-87.164c-10.866 2.922-22.892 4.429-36.117 4.429-12.552 0-24-1.35-34.384-3.958l2.505 83.393 18.092 4.494a4.035 4.035 0 012.987 4.691l-.044.197a4.035 4.035 0 01-4.692 2.987l-.197-.043-21.06-5.23a4.035 4.035 0 01-3.049-3.588l-.011-.207-2.677-89.068c-7.574-2.528-14.52-5.79-20.855-9.742V405.74l-.003.09.003-.16a4.096 4.096 0 01-.016.37l-.009.081a2.82 2.82 0 01-.014.115l-.012.078a3.196 3.196 0 01-.023.13l-.014.067a3.198 3.198 0 01-.076.303 4.123 4.123 0 01-.062.19c-.11.317-.26.615-.441.89l-.022.031-.024.037a4.051 4.051 0 01-.263.34l-.033.038a3.859 3.859 0 01-.233.244l-.04.037a3.822 3.822 0 01-.36.3l-.05.035a1.698 1.698 0 01-.068.048l-.093.061a2.386 2.386 0 01-.172.105l-.053.03c-.045.025-.09.05-.136.072l-.025.013a3.698 3.698 0 01-.147.07l-.05.02a2.993 2.993 0 01-.127.054l-.06.022a2.653 2.653 0 01-.129.046l-.047.015c-.18.059-.365.104-.555.136l-.014.002.014-.002a4.028 4.028 0 01-.156.024l-.093.01a2.629 2.629 0 01-.21.018h-.02l-.031.002a4.054 4.054 0 01-.094.003h-28.187a4.035 4.035 0 01-.201-8.064l.201-.005 14.9-.001-11.665-7.858a4.035 4.035 0 014.329-6.808l.18.115 16.33 11.002v-34.104c-7.763-6.1-14.449-13.403-20.098-21.807C99.188 341.432 71 320.12 71 293.301c0-21.121 17.476-38.816 41.836-45.744l-.189 1.51c4.203-34.124 13.472-61.192 26.843-81.939a45.738 45.738 0 00-3.89-1.926c-8.5-3.726-17.204-4.77-25.151-1.648-11.971 4.701-21.486 18.561-27.18 44.3a4.04 4.04 0 11-7.889-1.746c6.223-28.13 17.291-44.253 32.115-50.075 10.27-4.034 21.064-2.74 31.35 1.77 1.92.841 3.679 1.74 5.251 2.647 6.858-9.303 14.64-17.164 23.238-23.665 12.139-9.177 25.143-15.03 38.23-18.21 4.733-1.15 9.197-1.875 13.3-2.258 2.135-.2 3.928-.286 5.335-.3.214-.02.434-.023.656-.006zm-9.44 38.048l-.3.512a113.047 113.047 0 01-6.16 9.271c-17.588 23.825-43.46 39.321-78.897 42.462-3.84 11.75-6.81 24.839-8.825 39.346a85.547 85.547 0 0114.482-1.223c23.47 0 44.776 9.486 56.196 24.571l.155.209.473-.097c9.214-1.942 17.826-5.494 23.12-10.947l.332-.35c2.607-2.801 7.284-.74 6.976 3.074l-.01.126c-.025.268-.065.634-.123 1.089l-.102.749a61.007 61.007 0 01-.907 4.841c-1.137 4.992-2.862 9.988-5.314 14.686-3.96 7.592-9.423 13.646-16.608 17.516l-.055.029-.146.78c-3.36 16.913-18.007 30.708-37.681 37.3l-.002 21.944c16.106 11.486 37.008 17.7 63.386 17.7 27.513 0 49.157-6.817 65.64-19.424 13.916-10.643 23.89-25.205 30.449-42.764 4.387-11.743 7.061-24.324 8.33-37.149.885-8.951 1-16.98.67-23.495l-.022-.401c-1.69.308-3.388.57-5.09.786-5.145.654-9.599.822-12.987.718l-.685-.028c-3.595-.21-5.136-4.667-2.437-7.052l16.329-14.434-.403-.257c-14.102-9.078-22.88-23.668-23.076-39.737l-.003-.548c0-3.595.425-7.098 1.233-10.47-24.924-1.129-46.591-6.723-64.971-15.38-7.28-3.43-13.539-7.112-18.775-10.808a84.521 84.521 0 01-4.192-3.145zm-61.464 186.175a83.32 83.32 0 01-10.43 1.611 86.634 86.634 0 0010.43 11.546zm-18.236-87.737c-31.5 0-56.645 18.582-56.645 40.805 0 22.225 25.16 40.825 56.655 40.825 29.662 0 53.994-16.577 56.433-37.346a4.035 4.035 0 012.319-3.194c6.432-2.963 11.322-8.122 14.88-14.942a50.433 50.433 0 003.262-7.86l.125-.4-.477.268c-6.091 3.347-13.255 5.534-20.68 6.863l-.638.112a4.035 4.035 0 01-4.05-1.75c-9.312-14.083-29.045-23.381-51.184-23.381zm15.331 17.53a29.855 29.855 0 0112.283 32.173l-.066.25-.02.103c-.061.292-.148.644-.267 1.045l-.075.246a14.934 14.934 0 01-1.446 3.244c-1.904 3.166-4.882 5.264-8.874 5.396-4.467.15-7.83-1.113-9.964-3.507a8.674 8.674 0 01-1.427-2.18 13.725 13.725 0 01-6.815 1.8c-7.619 0-13.795-6.177-13.795-13.795 0-7.62 6.176-13.795 13.795-13.795 2.58 0 4.993.707 7.058 1.94a4.035 4.035 0 017.152 2.354l.005.2v18.043l.05.062c.425.476 1.39.852 3.392.82l.28-.007c.974-.032 1.628-.493 2.228-1.49.274-.456.496-.975.66-1.495l.068-.23a5.73 5.73 0 00.062-.238l.016-.075c.022-.13.05-.258.084-.384a21.785 21.785 0 10-21.05 16.09 4.035 4.035 0 11-.01 8.07 29.855 29.855 0 1116.676-54.64zm-16.671 19.05a5.725 5.725 0 100 11.45 5.725 5.725 0 000-11.45zm146.53-47.355a3.46 3.46 0 013.41 4c-1.982 13.573-13.623 23.637-27.34 23.637s-25.358-10.064-27.34-23.637a3.47 3.47 0 013.41-4zm-23.96 12.84a18.33 18.33 0 00-11.4 4.53s3.6 4.2 11.4 4.2c7.76 0 10.81-4.22 10.81-4.22a15.87 15.87 0 00-10.81-4.51zm100.55-102.225c-26.222 0-47.305 18.708-47.305 41.525 0 15.1 9.29 28.828 24.13 36.196 2.565 1.273 3.023 4.74.877 6.637l-12.044 10.645.602-.07.608-.076a84.528 84.528 0 009.085-1.653c.434-.2.91-.323 1.41-.356a70.734 70.734 0 009.982-3.379 59.819 59.819 0 007.047-3.555 21.887 21.887 0 019.577-3.004c24.513-1.775 43.366-19.841 43.366-41.382-.018-22.822-21.106-41.528-47.335-41.528zm-129.87 60.995c6.45 0 11.68 5.229 11.68 11.68a3 3 0 01-5.995.176l-.005-.176a5.68 5.68 0 00-11.36 0 3 3 0 11-6 0c0-6.451 5.23-11.68 11.68-11.68zm64.65 1.337a11.68 11.68 0 015.718 10.444 3 3 0 01-5.997-.027v-.176a5.68 5.68 0 10-11.356-.248l.003.248a3 3 0 11-5.996.203 11.68 11.68 0 0117.627-10.444zm-180.48-23.797a4.04 4.04 0 014.035 3.838l.005.202v21.42a4.04 4.04 0 01-8.075.201l-.005-.201v-21.42a4.04 4.04 0 014.04-4.04zm-13.378.045a4.04 4.04 0 013.418 4.397l-.025.2-2.96 19.64a4.04 4.04 0 01-8.015-1.004l.025-.2 2.96-19.64a4.04 4.04 0 014.597-3.393zm273.419-16.69a4.035 4.035 0 013.303 4.476l-.03.2-.883 5.003h2.359a4.035 4.035 0 01.201 8.066l-.201.005-3.782-.001-1.241 7.04h2.363a4.035 4.035 0 01.201 8.066l-.201.005-3.786-.001-1.21 6.866a4.035 4.035 0 01-7.978-1.202l.03-.2.964-5.464h-12.526l-1.21 6.866a4.035 4.035 0 01-7.978-1.202l.03-.2.964-5.464h-2.36a4.035 4.035 0 01-.201-8.064l.201-.005 3.783-.001 1.241-7.04h-2.364a4.035 4.035 0 01-.201-8.064l.201-.005 3.786-.001 1.13-6.405a4.035 4.035 0 017.978 1.202l-.03.2-.883 5.003h12.525l1.13-6.405a4.035 4.035 0 014.675-3.273zm-7.227 17.749h-12.526l-1.241 7.04h12.526l1.241-7.04zm-145.228-67.6l.233-.023c-3.725.348-7.805 1.01-12.145 2.065-12.061 2.93-24.058 8.33-35.268 16.805-16.49 12.468-29.845 30.41-39.154 54.651 31.13-3.635 53.763-17.638 69.406-38.83 6.438-8.721 11.231-18.081 14.612-27.437a99.614 99.614 0 002.316-7.231zm8.418-.25l-.033.135-.083.332a104.476 104.476 0 01-3.019 9.76 118.719 118.719 0 01-5.325 12.468l.233.197.15.125.236.196a73.707 73.707 0 004.308 3.264c4.862 3.431 10.716 6.876 17.559 10.099 18.01 8.483 39.42 13.885 64.247 14.711.097-.22.197-.44.3-.658l.017.027c-7.902-13.123-17.297-23.539-27.874-31.542-11.21-8.483-23.207-13.888-35.269-16.82-4.34-1.055-8.42-1.719-12.146-2.067a63.84 63.84 0 00-3.301-.226z" fill="#11100D" fill-rule="nonzero"/></g></svg>