<svg xmlns="http://www.w3.org/2000/svg" viewBox="0 0 483 483"><g fill="none" fill-rule="evenodd"><path fill-opacity=".01" fill="#EDF0F2" d="M0 0h483v483H0z"/><path d="M210.223 131.577c12.113-2.125 23.276-1.952 32.86-.376 1.589.262 3 .543 4.22.827.336.079.63.15.88.214l.581.153c.563.126 1.4.341 2.482.66l.939.284c2.699.837 5.69 1.945 8.903 3.36 9.137 4.026 18.262 9.713 26.777 17.351 9.953 8.928 18.36 19.898 24.786 33.086 2.25.502 4.518.93 6.8 1.281a59.92 59.92 0 008 .51c1.31-.01 2.66-.06 4-.16.62-.05 1.23-.1 1.84-.17l.91-.11a.61.61 0 01.182.014l.001.002.096-.016a54.19 54.19 0 006.55-1.42l.92-.27c1.27-.34 2.52-.84 3.74-1.34-.56.28.01 0 .1 0l1-.44c.53-.26 1.07-.52 1.59-.8a36.55 36.55 0 003.35-2c.45-.31.97-.66 1.45-1l.234-.19.014-.012-.039.03-.055.045-.054.041.8-.654a30.91 30.91 0 002.275-2.115l.535-.565c.4-.43.79-.88 1.17-1.34l.411-.502.01-.014.305-.418a3.812 3.812 0 015.054-1.306c1.62.95 2.52 3.47 1.34 5.11-7.29 10.06-18.74 15.21-30.83 16.75-6.12.78-12.086.52-17.948-.411.786 1.983 1.53 4.013 2.232 6.088 7.48 22.113 9.883 48.552 6.416 79.737l.013.078c.038.198.086.437.146.714l.047.215c.28 1.277.66 2.71 1.148 4.26 1.4 4.439 3.393 8.877 6.07 12.996 4.44 6.834 10.306 12.093 17.831 15.24 8.422 3.52 18.71 4.308 31.121 1.824a22.234 22.234 0 012.901-.633c.31-.071.622-.146.935-.223.62-.152 1.24-.15 1.823-.018.228-.005.458-.008.688-.007 12.402-.053 22.523 9.854 22.782 22.225l.005.375v131.49a3.98 3.98 0 01-7.955.2l-.005-.2v-131.47c-.039-8.133-6.66-14.694-14.825-14.66a14.862 14.862 0 00-2.037.132c-.781.182-1.555.35-2.323.508-5.916 1.804-10.256 7.232-10.42 13.695l-.005.315v12.23a3.98 3.98 0 01-7.955.2l-.005-.2V338.53a22.596 22.596 0 013.675-12.29c-19.516.336-33.662-7.92-42.907-22.15a58.632 58.632 0 01-3.588-6.37 165.254 165.254 0 01-2.09 7.513c-3.68 12.15-8.754 24.304-15.453 35.675-10.967 18.616-25.212 33.279-43.18 42.408-7.349 3.734-15.201 6.475-23.565 8.168 3.227 9.199 5.2 19.042 5.429 29.974.306 14.702-2.672 29.96-9.575 45.669l-.145.323 20.016 2.519a3.98 3.98 0 013.472 4.248l-.02.197a3.98 3.98 0 01-4.248 3.472l-.198-.02-25.44-3.2c-2.714-.341-4.283-3.256-3.072-5.71 8.114-16.443 11.566-32.234 11.251-47.332-.22-10.564-2.216-20.02-5.469-28.861-14.296 1.698-29.986.508-47.108-3.817a158.759 158.759 0 01-15.053-4.58 106.11 106.11 0 011.623 4.606c3.538 10.813 5.66 22.691 5.66 35.29 0 14.445-2.815 28.883-8.937 43.032l-.068.154 20.047 2.52a3.98 3.98 0 013.472 4.248l-.02.198a3.98 3.98 0 01-4.248 3.472l-.197-.02-25.45-3.2c-2.714-.34-4.283-3.255-3.074-5.709 7.232-14.667 10.515-29.667 10.515-44.695 0-11.703-1.975-22.76-5.265-32.814-1.149-3.51-2.376-6.638-3.599-9.338l-.354-.77c-.173-.37-.339-.717-.498-1.04l-.116-.228c-28.166-12.953-45.458-33.525-53.36-59.794l-9.132 15.19a3.98 3.98 0 01-6.926-3.917l.104-.184 7.666-12.75-18.37 1.182a3.98 3.98 0 01-.708-7.926l.198-.017 17.985-1.157c-13.255-16.393-18.114-30.919-15.427-43.649l.094-.432c2.609-11.58 11.15-20.57 23.567-27.383a81.329 81.329 0 012.914-1.523c.291-.973.565-1.84.814-2.596l.12-.363.252-.73.458-1.188c14.13-36.294 32.53-62.304 54.23-79.282 15.337-12 31.732-19.036 48.491-21.976zm31.568 7.479c-8.748-1.439-19.023-1.599-30.192.361-15.506 2.72-30.685 9.234-44.962 20.405-20.082 15.712-37.334 39.83-50.84 73.675a102.25 102.25 0 013.174-1.08 94.016 94.016 0 014.673-1.376l1.114-.287c.719-.18 1.256-.303 1.589-.373a3.98 3.98 0 011.626 7.793l-.416.093-.749.18a84.633 84.633 0 00-5.398 1.548 89.84 89.84 0 00-8.892 3.38 154.755 154.755 0 00-1.775 7.226c-4.535 20.526-5.504 41.974-.71 61.896 6.492 26.98 22.827 47.851 51.301 60.694.291.091.572.216.836.372 6.832 3.02 14.354 5.584 22.595 7.666 28.966 7.317 53.145 5.138 73.117-5.01 16.486-8.376 29.678-21.955 39.927-39.352 6.35-10.78 11.184-22.36 14.694-33.942a152.037 152.037 0 002.946-11.176l.094-.433c.155-.71.29-1.366.41-1.966l.164-.86.14-.774c.295-2.149.563-4.274.803-6.376.007-.13.022-.259.043-.386.878-7.79 1.377-15.262 1.511-22.424-4.542 11.894-16.787 19.523-29.924 17.784l-.39-.055a27.92 27.92 0 01-24.04-26.588 8.068 8.068 0 00-6.727-.985c-4.237 12.443-16.784 20.533-30.273 18.748l-.39-.055a27.91 27.91 0 01-23.767-31.623l.273-1.858-50.024-15.642a3.98 3.98 0 012.179-7.653l.197.056 52.063 16.278a4.01 4.01 0 01.62.042l47.74 6.91a3.98 3.98 0 013.366 4.52l-.293 1.993a16.06 16.06 0 015.798.85l.3-2.036a3.98 3.98 0 014.508-3.357l47.75 6.91c.253.036.496.095.728.175-.856-14.233-3.308-27.09-7.214-38.64a117.905 117.905 0 00-4.202-10.703c-14.89-4.014-29.27-11.165-44.022-15.094-11.78-3.19-24.06-4.32-35.67 0a43.52 43.52 0 00-6.64 3.19c-1.21.7-2.38 1.46-3.51 2.26-.53.36-1.03.73-1.53 1.12.41-.32-.14.07-.14.12-.29.24-.59.47-.88.72a47.94 47.94 0 00-5.66 5.6c-.24.29-.49.58-.72.87 0-.006-.321.402-.433.542l-.013.015-.285.377a30.76 30.76 0 00-.37.51l-.359.516c-.69 1.03-1.37 2.1-2 3.18l.09-.1a3.733 3.733 0 11-6.45-3.76 52.35 52.35 0 0128.43-22.95c25.56-8.6 50.81 5.34 74.56 13.21l.801.273c-5.418-9.427-12.003-17.462-19.541-24.224-7.855-7.047-16.27-12.29-24.672-15.992-2.926-1.29-5.635-2.293-8.051-3.042l-.351-.108c-.46-.14-.887-.262-1.278-.37l-.706-.186-.677-.162-.292-.08a22.34 22.34 0 00-.49-.127l-.939-.22a59.81 59.81 0 00-3.303-.633zM103.08 248.395l-.355.229c-8.339 5.404-13.833 11.976-15.582 19.743-2.267 10.06 1.682 22.248 13.325 36.797-2.923-18.513-1.59-37.762 2.503-56.28l.109-.49zm133.1 27.862c5.35-4.29 12.26-6 20.54-5 27.15 3.17 28.25 29.98 28.25 30.23a3 3 0 01-3 3.06 2 2 0 01-.35 0l-52.8-6.17a3 3 0 01-2.64-3.23c.06-.48 1.24-11.89 10-18.89zm11.59 9.83c-7.73-1.29-13.3 7.17-13.3 7.17l25.43 2.97c-1.62-4.38-4.4-8.85-12.13-10.14zm24.847-41.784l-.217 1.478a19.96 19.96 0 0017.004 22.595l.362.051c10.842 1.435 20.856-6.073 22.507-16.88l.216-1.474-39.872-5.77zm9.405 3.025a2.785 2.785 0 012.49 2.892l-.012.17a5.305 5.305 0 0010.531 1.278 2.785 2.785 0 015.518.76c-.81 5.882-6.189 10.028-12.084 9.312-5.895-.715-10.126-6.028-9.505-11.934a2.785 2.785 0 013.062-2.478zm-70.825-11.904l-.217 1.479a19.95 19.95 0 0016.994 22.593l.362.051c10.842 1.435 20.856-6.073 22.507-16.88l.216-1.474-39.862-5.769zm12.674 4.025a2.985 2.985 0 012.671 3.104l-.013.175a5.695 5.695 0 0011.27 1.596l.035-.218a2.985 2.985 0 115.913.823c-.877 6.304-6.647 10.742-12.965 9.972-6.319-.77-10.853-6.464-10.19-12.794a2.985 2.985 0 013.279-2.658z" fill="#11100D" fill-rule="nonzero"/></g></svg>