<svg xmlns="http://www.w3.org/2000/svg" viewBox="0 0 483 483"><g fill="none" fill-rule="evenodd"><path fill-opacity=".01" fill="#EDF0F2" d="M0 0h483v483H0z"/><path d="M262.212 102.002c1.39-.014 3.274.053 5.588.256l.468.043c4.061.38 8.48 1.1 13.165 2.24 12.954 3.155 25.828 8.962 37.843 18.065 28.61 21.678 48.08 58.578 54.418 113.842.035.381.082 1.003.13 1.848l.08 1.532c.196 4.364.202 9.325-.064 14.74.032.354.017.718-.05 1.084l-.01.048a182.963 182.963 0 01-.61 7.878c-1.324 13.362-4.118 26.502-8.73 38.847-6.992 18.72-17.716 34.39-32.77 45.918-12.888 9.869-28.606 16.417-47.313 19.265l2.537 96.959 22.414 5.557a4 4 0 012.965 4.644l-.045.201a4 4 0 01-4.644 2.965l-.2-.045-25.37-6.29a4 4 0 01-3.026-3.571l-.01-.207-2.598-99.24a157.09 157.09 0 01-14.504.65c-19.213 0-35.87-3.22-50.096-9.369l-2.408 4.032c-12.034 20.203 1.641 45.936 24.965 47.438l.71.038 36.48 1.56a4 4 0 013.824 3.797l.005.2v25.69a4 4 0 01-7.995.2l-.005-.2v-21.858l-32.652-1.396c-29.506-1.267-47.105-33.303-32.65-58.797l.448-.77 2.044-3.424a91.655 91.655 0 01-12.47-8.029c-15.058-11.527-25.786-27.197-32.785-45.917-4.617-12.35-7.415-25.497-8.743-38.866-.86-8.655-1.026-16.484-.768-23.024l.064-1.432c.042-.843.085-1.523.125-2.054l.058-.688c3.774-32.973 12.243-59.419 24.553-79.99a3.775 3.775 0 01-.541-.284l-.533-.355a32.27 32.27 0 00-1.234-.759 45.038 45.038 0 00-4.676-2.378c-8.393-3.683-16.987-4.717-24.833-1.644-11.84 4.64-21.246 18.348-26.866 43.825a3.995 3.995 0 01-7.802-1.72c6.142-27.847 17.086-43.798 31.753-49.544 10.143-3.974 20.8-2.69 30.958 1.766a52.989 52.989 0 015.51 2.804l.7.42c.649.395 1.137.716 1.454.94.126.09.246.184.359.285 7.399-10.843 15.984-19.848 25.602-27.134 12.012-9.098 24.882-14.902 37.833-18.054 4.683-1.14 9.101-1.86 13.16-2.24 2.687-.25 4.826-.322 6.328-.292l.094.002zm-11.58 39.497l-.343.584a111.804 111.804 0 01-6.093 9.17c-17.255 23.374-42.572 38.641-77.19 41.915-4.11 13.014-7.159 27.652-9.032 44.016l-.062.817c-.03.44-.06.942-.088 1.504l-.032.672c-.283 6.32-.144 14.028.707 22.593 1.263 12.724 3.92 25.207 8.276 36.858 6.504 17.397 16.383 31.826 30.158 42.37 16.315 12.49 37.729 19.244 64.943 19.244s48.626-6.753 64.936-19.243c13.771-10.545 23.645-24.973 30.144-42.37.776-2.077 1.498-4.181 2.167-6.308-7.253 10.243-16.557 17.209-27.529 21.187-12.689 4.602-26.077 4.746-38.566 2.257a70.542 70.542 0 01-4.125-.945l-.52-.14a35.834 35.834 0 01-1.794-.53 3.997 3.997 0 01-2.427-2.258 3.982 3.982 0 01-2.828 1.908c-25.962 3.995-47.091 1.622-63.778-6.263-14.008-6.619-24.375-16.858-31.557-29.677-4.609-8.226-7.632-17.005-9.39-25.78a86.963 86.963 0 01-1.208-7.8l-.073-.709c-.153-1.574-.218-2.724-.231-3.383a4 4 0 017.99-.362l.024.594.014.266c.034.602.087 1.308.166 2.109a78.04 78.04 0 001.162 7.713c1.604 8.005 4.359 16.006 8.525 23.442 6.405 11.43 15.57 20.482 27.996 26.354 14.035 6.632 31.82 9.002 53.805 6.326l1.043-.131-5.198-21.95a4 4 0 012.77-4.762l.2-.053a4 4 0 014.762 2.772l.052.199 5.837 24.645 3.911-27.33a4 4 0 017.943.935l-.023.198-3.76 26.272.092.022c.514.12 1.052.24 1.614.357l.569.116c11.179 2.227 23.162 2.098 34.276-1.932 18.387-6.668 31.467-23.075 36.967-52.313.294-5.632.278-10.746.056-15.155l-.018-.332a85.738 85.738 0 00-.053-.908l-.07-.975-.189-1.62c-3.107-25.862-9.17-47.356-17.72-64.907a3.91 3.91 0 01-.573.044c-28.687.08-52.915-5.354-72.789-14.485-6.947-3.192-12.868-6.622-17.78-10.067a73.82 73.82 0 01-4.096-3.077l-.78-.645a28.778 28.778 0 01-1.19-1.049zm61.154 85.798a3.46 3.46 0 013.41 4c-1.982 13.573-13.623 23.637-27.34 23.637-13.718 0-25.358-10.064-27.34-23.637a3.47 3.47 0 013.41-4zm-24.01 12.87a18.35 18.35 0 00-11.4 4.5s3.6 4.2 11.4 4.2c7.81 0 10.81-4.2 10.81-4.2a15.88 15.88 0 00-10.81-4.5zm-23.42-39.696a11.68 11.68 0 015.84 10.116 3 3 0 01-5.995.176l-.005-.176a5.68 5.68 0 00-11.355-.243l-.005.243a3 3 0 11-6 0 11.68 11.68 0 0117.52-10.116zm52.84-1.564c6.45 0 11.68 5.229 11.68 11.68a3 3 0 11-6 0 5.68 5.68 0 00-11.36 0 3 3 0 11-6 0c0-6.451 5.23-11.68 11.68-11.68zm-173.14-20.925a3.995 3.995 0 013.99 3.795l.005.2v21.19a3.995 3.995 0 01-7.985.199l-.005-.2v-21.19a3.995 3.995 0 013.995-3.994zm-13.224.044a3.995 3.995 0 013.38 4.348l-.026.198-2.93 19.43a3.995 3.995 0 01-7.925-.993l.025-.198 2.93-19.43a3.995 3.995 0 014.546-3.355zM255 110.375a85.163 85.163 0 00-10.847 1.928c-11.934 2.905-23.805 8.258-34.898 16.66-16.708 12.656-30.158 30.992-39.388 55.857 30.407-3.729 52.554-17.523 67.9-38.313 6.367-8.624 11.108-17.88 14.452-27.133a95.374 95.374 0 002.755-8.901zm8.845-.359a44.534 44.534 0 00-.549-.015 72.825 72.825 0 01-.577 2.437 103.327 103.327 0 01-2.986 9.651 117.372 117.372 0 01-5.41 12.62 3.953 3.953 0 011.635.838l.349.318c.211.19.545.478 1.001.855 1.09.9 2.415 1.911 3.98 3.009 4.524 3.174 10.027 6.362 16.526 9.348 18.006 8.272 39.894 13.369 65.818 13.734-8.031-14.068-17.858-25.257-29.181-33.836-11.096-8.407-22.97-13.764-34.908-16.67-4.296-1.046-8.333-1.704-12.02-2.049a61.677 61.677 0 00-3.678-.24z" fill="#11100D" fill-rule="nonzero"/></g></svg>