<svg xmlns="http://www.w3.org/2000/svg" viewBox="0 0 483 483"><g fill="none" fill-rule="evenodd"><path fill-opacity=".01" fill="#EDF0F2" d="M0 0h483v483H0z"/><path d="M241.737 120.002c1.392-.014 3.28.053 5.596.256l.47.043c4.067.38 8.493 1.1 13.185 2.24 12.976 3.154 25.87 8.961 37.905 18.065 9.948 7.525 18.793 16.884 26.368 28.21.76-.27 1.511-.571 2.259-.864.058 0 .24-.065.316-.091l.003-.002.791-.347 1.63-.79a41.82 41.82 0 006.41-4l-.174.13c-.007.007.02-.014.102-.076l.056-.043-.142.105.018-.015c.112-.09.452-.356.503-.396l.007-.005.81-.68c.45-.39.89-.79 1.32-1.19.85-.82 1.66-1.68 2.43-2.57a21.19 21.19 0 002-2.66 30.9 30.9 0 001.77-3.12 3.78 3.78 0 015.1-1.33 3.83 3.83 0 011.35 5.13c-4.605 9.166-13.078 15.58-22.49 19.297 12.038 20.443 20.335 46.611 24.073 79.143.039.42.092 1.13.146 2.11l.064 1.271c.222 4.933.202 10.63-.182 16.88l-2.302 124.013v.019c0 .037-.002.075-.004.113l.004-.132a4.063 4.063 0 01-.02.351l-.01.068a3.868 3.868 0 01-.317 1.141 5.565 5.565 0 01-.09.188l-.032.06a3.376 3.376 0 01-.085.151l-.02.033a2.979 2.979 0 01-.07.112l-.037.056a3.98 3.98 0 01-.384.484l-.008.01c-.023.025-.046.05-.07.073l-.042.041.042-.04c-.137.14-.282.267-.435.383l-.061.045a2.338 2.338 0 01-.098.07l-.074.049a2.536 2.536 0 01-.096.061l-.07.042a3.05 3.05 0 01-.249.134 3.72 3.72 0 01-.132.062l-.043.02a3.24 3.24 0 01-.14.057l-.04.015a3.87 3.87 0 01-.532.161l-.035.007c-.049.012-.099.021-.15.03l-.054.009a2.886 2.886 0 01-.131.02l-.067.007a3.163 3.163 0 01-.22.02h-.026l-.035.002c-.03.002-.06.003-.091.003H318.72a4 4 0 01-.2-7.994l.2-.005 15.307-.001-12.001-8.081a4 4 0 014.289-6.75l.18.114 16.772 11.293 1.337-72.059-.04.11-.428 1.16c-7.003 18.723-17.743 34.396-32.82 45.924-7.693 5.883-16.393 10.585-26.134 14.028l2.565 85.56 17.927 4.45a4 4 0 012.963 4.644l-.045.201a4 4 0 01-4.645 2.963l-.2-.044-20.87-5.18a4 4 0 01-3.024-3.557l-.011-.205-2.59-86.371c-10.78 2.903-22.71 4.4-35.832 4.4-12.39 0-23.719-1.335-34.02-3.928l2.487 82.627 17.927 4.45a4 4 0 012.963 4.644l-.045.201a4 4 0 01-4.645 2.963l-.2-.044-20.87-5.18a4 4 0 01-3.024-3.556l-.011-.206-2.658-88.258c-10.42-3.487-19.675-8.385-27.807-14.602a90.967 90.967 0 01-6.098-5.098v37.31c.002.067.002.133 0 .2l.001-.122a4.062 4.062 0 01-.016.365l-.01.101a2.804 2.804 0 01-.015.113l-.009.055c-.008.05-.016.099-.026.149l-.01.046a3.49 3.49 0 01-.11.41 4.212 4.212 0 01-.156.404l-.032.068a3.052 3.052 0 01-.054.111l-.032.06a3.974 3.974 0 01-.674.92l-.042.04c-.035.036-.071.07-.108.104l-.028.025c-.04.037-.08.072-.122.107l-.026.02c-.035.03-.071.059-.108.086l-.063.046a2.366 2.366 0 01-.097.07l-.06.039a2.836 2.836 0 01-.111.072l-.036.021a3.483 3.483 0 01-.145.083l-.029.016a3.979 3.979 0 01-1.005.372l-.013.002-.062.014a3.985 3.985 0 01-.1.02l-.048.007a2.99 2.99 0 01-.145.022l-.057.006a3.095 3.095 0 01-.231.02h-.02l-.028.002a4.016 4.016 0 01-.095.003H133a4 4 0 01-.2-7.994l.2-.005 15.317-.001-12.001-8.081a4 4 0 014.289-6.75l.18.114 16.635 11.201v-38.153c-7.773-9.116-13.86-19.771-18.415-31.68l-.326-.863c-4.626-12.353-7.43-25.503-8.76-38.874-.86-8.656-1.028-16.487-.77-23.027l.064-1.432c.042-.842.085-1.522.125-2.052l.058-.688c6.322-55.191 25.822-92.095 54.484-113.769 12.028-9.096 24.915-14.897 37.883-18.048 4.69-1.14 9.113-1.859 13.178-2.238 2.69-.252 4.831-.323 6.334-.293l.095.002zm-.964 8c-.25 0-.543 0-.876.01l-.53.014a61.874 61.874 0 00-3.682.24c-3.69.345-7.733 1.002-12.034 2.047-11.95 2.904-23.838 8.255-34.946 16.655-26.836 20.293-45.278 55.195-51.352 108.212l-.004.05-.094 1.322-.052.946c-.325 6.44-.206 14.393.677 23.265 1.266 12.724 3.928 25.209 8.291 36.861 3.01 8.04 6.743 15.447 11.249 22.128v-93.24a4 4 0 013.8-3.995l.2-.005a4 4 0 013.995 3.8l.005.2-.001 103.434a83.25 83.25 0 0010.956 10.05c16.341 12.492 37.789 19.246 65.045 19.246s48.701-6.754 65.037-19.245c13.79-10.546 23.679-24.974 30.187-42.372 4.355-11.645 7.012-24.121 8.274-36.838.217-2.189.388-4.322.517-6.39l.006-.32c.003-.174.017-.346.042-.515.346-5.983.34-11.405.106-16.046a89.335 89.335 0 00-.071-1.24l-.07-.975-.189-1.62c-3.8-31.563-12.01-56.62-23.78-75.942-24.126 5.626-48.387-5.11-72.009-7.197a74.19 74.19 0 00-18.1.36 45.06 45.06 0 00-15.59 5.47 44.22 44.22 0 00-6 4.15 47.61 47.61 0 00-5.64 5.54 39.57 39.57 0 00-4.28 5.93c-.73 1.18-1.39 2.4-2 3.64-.27.56-.53 1.13-.79 1.71-.034.039-.115.243-.142.321l-.005.012-.018.04c-.07.161-.139.331-.206.505l-.099.262h.01a3.86 3.86 0 01-4.62 2.62 3.77 3.77 0 01-2.62-4.61 52.44 52.44 0 0123.94-27.35c24.06-12.87 51.17-3.2 76.06 1.08a98.64 98.64 0 0019.46 1.57c1.45-.04 2.97-.12 4.45-.27.61-.06 1.21-.13 1.82-.21l-.234.04-.035.005.014-.002c.074-.011.243-.037.32-.042l.025-.001 1.09-.17c.262-.046.525-.093.786-.142-6.726-9.57-14.435-17.536-23-24.014-11.114-8.408-23.009-13.764-34.967-16.67-4.303-1.047-8.348-1.705-12.04-2.05a61.89 61.89 0 00-3.686-.24c-.559-.018-1.03-.024-1.406-.024l-.597.01zm-27.863 117.3a8.21 8.21 0 017.93 8 3.001 3.001 0 11-6 .17 2.24 2.24 0 00-2.11-2.19l-.142.007c-1.007.104-1.322 1.32-1.408 2.353-.19 2.27 2.01 4.74 4.68 6.81a5.1 5.1 0 004.25 1 10.21 10.21 0 006.24-4.38c7.49-11.5 21.03-11.6 28.81-10.5 4.376.6 8.08 3.53 9.67 7.65.05.13.14.26.14.4a3.31 3.31 0 01.14-.41 12.08 12.08 0 019.66-7.64c8.05-1.14 22.27-1.04 29.58 11.76a7.32 7.32 0 007.75 3.66l.157-.035a1.93 1.93 0 00.583-.265c3.4-2.23 6.63-5.26 6.4-8-.09-1.08-.43-2.36-1.54-2.36h-.05a2.24 2.24 0 00-2.1 2.19 3.001 3.001 0 01-6-.17 8.22 8.22 0 017.94-8c3.54-.09 7.27 2.29 7.73 7.86.72 8.62-10.64 14.78-14.22 16.42-8.67 5.53-22.31 9.87-39.79 1.3a12.8 12.8 0 01-6-6.08c-.1-.24-.21-.49-.3-.74-.1.25-.21.5-.31.74a12.74 12.74 0 01-6 6.07c-18.75 9.2-33.08 3.56-41.6-2.5-4.64-2.61-12.43-8.08-11.83-15.26.46-5.46 4.08-7.86 7.53-7.86z" fill="#11100D" fill-rule="nonzero"/></g></svg>