<svg xmlns="http://www.w3.org/2000/svg" viewBox="0 0 483 483"><g fill="none" fill-rule="evenodd"><path fill-opacity=".01" fill="#EDF0F2" d="M0 0h483v483H0z"/><g transform="translate(121 119)" fill="#11100D" fill-rule="nonzero"><path d="M128.41.002c1.392-.014 3.278.053 5.594.256l.469.043c4.065.38 8.49 1.1 13.18 2.24 12.97 3.154 25.858 8.96 37.888 18.064 28.644 21.677 48.14 58.575 54.485 113.839.025.265.055.648.087 1.141l.087 1.513c.14 2.77.202 5.792.165 9.028l.003.056.005.2v132.26a4 4 0 01-3.8 3.995l-.2.005h-28.42a4 4 0 01-.2-7.995l.2-.005 16.215-.001-13.63-9.182a4 4 0 014.291-6.748l.18.114 17.364 11.697v-74.715c-.386 1.16-.787 2.314-1.204 3.461l-.428 1.16c-7.007 18.724-17.748 34.396-32.823 45.924-7.685 5.878-16.375 10.577-26.103 14.02l2.565 85.568 17.927 4.45a4 4 0 012.963 4.644l-.045.201a4 4 0 01-4.644 2.963l-.201-.044-20.87-5.18a4 4 0 01-3.024-3.557l-.011-.205-2.59-86.377c-10.782 2.907-22.716 4.407-35.842 4.407-12.387 0-23.712-1.336-34.01-3.93l2.487 82.628 17.927 4.45a4 4 0 012.963 4.644l-.045.201a4 4 0 01-4.644 2.963l-.201-.044-20.87-5.18a4 4 0 01-3.024-3.556l-.011-.206-2.658-88.26c-10.413-3.487-19.662-8.385-27.789-14.6a90.935 90.935 0 01-6.115-5.117V278.7l-.003.123.003-.181a4.062 4.062 0 01-.017.374l-.007.067c-.012.114-.03.228-.052.342l-.01.046c-.02.094-.043.188-.07.281l-.024.08a3.962 3.962 0 01-.172.453l-.032.068a3.053 3.053 0 01-.054.111l-.032.06c-.02.039-.041.076-.063.113l-.044.075a3.945 3.945 0 01-.557.721l-.052.052c-.035.035-.071.07-.108.103l-.027.025c-.04.037-.081.072-.123.107l-.026.02c-.035.03-.071.059-.108.086l-.063.046a2.367 2.367 0 01-.097.07l-.059.039a2.835 2.835 0 01-.112.072l-.036.021a3.425 3.425 0 01-.287.156 3.96 3.96 0 01-.892.315l-.013.002-.062.014a3.975 3.975 0 01-.1.02l-.048.007a2.99 2.99 0 01-.145.022l-.057.006a3.098 3.098 0 01-.176.016l-.075.005-.028.001a4.014 4.014 0 01-.095.003H19.633a4 4 0 01-.2-7.994l.2-.005 15.317-.001-12.001-8.081a4 4 0 014.289-6.75l.18.114 16.635 11.201v-38.182c-7.758-9.11-13.833-19.755-18.381-31.652l-.326-.862c-4.623-12.352-7.425-25.502-8.755-38.872-.86-8.656-1.027-16.486-.77-23.027l.065-1.432c.042-.843.085-1.523.126-2.054l.057-.688c1.55-13.524 3.89-25.95 6.962-37.323-1.91-4.011-4.856-7.313-8.6-9.983-2.493-1.778-5.185-3.166-7.876-4.198-.78-.3-1.512-.55-2.177-.753l-.69-.2c-.27-.075-.454-.12-.54-.14-2.805-.614-4.069-3.895-2.4-6.231 4.871-6.825 12.938-13.695 23.35-20.544 5.96-3.92 12.327-7.594 18.692-10.922l1.46-.757c1.437-.739 2.798-1.42 4.069-2.041l1.377-.667.735-.346c6.064-7.585 12.793-14.122 20.122-19.664C82.581 11.491 95.468 5.69 108.436 2.539c4.69-1.14 9.113-1.859 13.178-2.238 2.69-.252 4.832-.323 6.335-.293l.094.002zm-.964 8c-.25 0-.543 0-.876.01l-.53.014a61.874 61.874 0 00-3.682.24c-3.69.345-7.733 1.002-12.033 2.047-11.951 2.904-23.839 8.255-34.947 16.655-6.97 5.27-13.373 11.526-19.14 18.829a3.564 3.564 0 01-.22.281c-16.322 20.797-27.516 50.03-31.992 89.102l-.08 1.087c-.024.372-.047.783-.07 1.233l-.032.672c-.283 6.318-.144 14.027.708 22.593 1.265 12.724 3.926 25.208 8.286 36.86 3.003 8.023 6.724 15.416 11.216 22.087v-93.2a4 4 0 013.8-3.995l.2-.005a4 4 0 013.994 3.8l.005.2V229.92a83.225 83.225 0 0010.975 10.076c16.333 12.491 37.771 19.245 65.015 19.245s48.682-6.754 65.015-19.245c13.79-10.546 23.679-24.974 30.19-42.372 4.36-11.652 7.021-24.136 8.286-36.86.882-8.872 1-16.824.676-23.265l-.017-.33a85.412 85.412 0 00-.053-.903l-.069-.968-.188-1.618c-6.28-52.199-24.617-86.603-51.17-106.697-11.109-8.407-22.998-13.763-34.95-16.67-4.301-1.045-8.344-1.703-12.035-2.048a61.833 61.833 0 00-3.683-.24 42.232 42.232 0 00-1.405-.024l-.597.01zM114.342 42.64a59.428 59.428 0 0136.025-8.422l.005.002a59.378 59.378 0 0127.26 9.388l9.933 6.389c16.47 10.58 26.938 29.131 28.013 49.543l2.618 50.066a21.514 21.514 0 01-12.418 20.329 138.74 138.74 0 01-39.026 11.49l.099.504.15.803c.44 2.375.879 5.042 1.288 7.942.315 2.238.596 4.483.838 6.728h6.586a3.87 3.87 0 01.2 7.736l-.2.005h-5.91c.367 5.557.467 11.061.237 16.397l5.98-1.605a3.87 3.87 0 012.197 7.419l-.19.056-8.63 2.318c-.624 5.306-1.642 10.194-3.1 14.6a3.87 3.87 0 01-7.348-2.43c1.003-3.034 1.78-6.377 2.342-9.994l-4.725 1.266a3.87 3.87 0 01-2.197-7.419l.19-.056 7.618-2.043c.026-.41.05-.823.073-1.238.296-5.566.201-11.38-.205-17.272h-8.552a3.87 3.87 0 01-.199-7.734l.2-.005h7.846a200.39 200.39 0 00-.716-5.648c-.353-2.508-.73-4.83-1.107-6.925l-.269-1.449c-.07-.363-.135-.703-.198-1.017l-.016-.078a138.816 138.816 0 01-62.436-9.185l-1.05-.418a21.93 21.93 0 01-13.745-20.35v-.047-50.243c0-24.3 12.137-46.793 31.908-59.018l.511-.313.072-.044zm47.486 121.527l-10.085 10.792c6.648-.216 13.28-.937 19.837-2.163l-9.752-8.63zm-34.654-2.55l-12.433 9.254a131.013 131.013 0 0020.731 3.605l-8.298-12.86zm22.997-115.357l-9.38 18.391a3.87 3.87 0 01-5.705 1.385l-.167-.126-16.117-12.947-5.529 26.772a3.87 3.87 0 01-3.868 3.087l-.2-.01-14.73-1.06a3.857 3.857 0 01-1.523-.433 64.417 64.417 0 00-3.409 20.724v44.707l10.785-3.996a3.87 3.87 0 015.12 2.772l.038.191 3.458 19.819 16.929-12.598a3.87 3.87 0 015.444.834l.118.172 11.988 18.58 15.323-16.394a3.87 3.87 0 015.227-.394l.165.138 14.345 12.696 9.284-20.194a3.87 3.87 0 014.892-2l.188.077 17.146 7.576c.38-1.408.542-2.892.455-4.404l-2.6-49.679a57.5 57.5 0 00-3.935-18.127l-16.347 1.713a3.87 3.87 0 01-4.085-2.657l-.057-.195-5.836-21.87-10.61 8.248a3.87 3.87 0 01-5.637-.974l-.11-.183-11.06-19.641zm43.035 108.813l-6.397 13.918a131.014 131.014 0 0015.71-6.076 13.748 13.748 0 003.38-2.233l-12.693-5.61zm-94.547-3.447l-8.88 3.292a14.184 14.184 0 008.648 10.58l1.023.408c.607.239 1.215.473 1.824.703l-2.615-14.983zm80.834-36.053a3.46 3.46 0 013.41 4c-1.982 13.573-13.622 23.637-27.34 23.637-13.717 0-25.358-10.064-27.34-23.637a3.47 3.47 0 013.41-4zm-24.01 12.87a18.35 18.35 0 00-11.4 4.5s3.6 4.2 11.4 4.2c7.81 0 10.81-4.2 10.81-4.2a15.88 15.88 0 00-10.81-4.5zm28.02-36.58a7.79 7.79 0 110 15.58 7.79 7.79 0 010-15.58zm-63.34 0a7.79 7.79 0 110 15.58 7.79 7.79 0 010-15.58zm-79.458-37.58l-1.273.717a195.772 195.772 0 00-10.937 6.669c-7.298 4.8-13.306 9.57-17.609 14.14l-.11.119.614.265a43.059 43.059 0 017.067 3.912l.62.433c2.62 1.87 4.959 4.007 6.954 6.429 3.995-12.218 8.916-23.091 14.674-32.684zm144.635 3.55l4.71 17.656 10.282-1.078c-3.786-6.545-8.871-12.224-14.992-16.578zm-74.857-2.856c-6.073 5.266-11.014 11.794-14.568 19.12l10.464.752zm46.832-11.809l8.457 15.024 9.159-7.119-2.02-1.298a51.654 51.654 0 00-15.596-6.607zm-13.536-1.413a51.663 51.663 0 00-20.51 4.867l12.788 10.273z"/><ellipse opacity=".1" cx="114.443" cy="117.682" rx="9.97" ry="4.26"/><ellipse opacity=".1" cx="189.793" cy="117.682" rx="9.97" ry="4.26"/></g></g></svg>