<svg xmlns="http://www.w3.org/2000/svg" viewBox="0 0 483 483"><g fill="none" fill-rule="evenodd"><path fill-opacity=".01" fill="#EDF0F2" d="M0 0h483v483H0z"/><path d="M180.967 120.029c2.69-.251 4.834-.322 6.338-.293l.1.002.193-.004c.163-.004.348-.004.556-.004l.688.008c1.006.017 2.146.068 3.409.16 3.48.252 7.332.773 11.475 1.631 11.642 2.412 23.466 7.008 34.81 14.346 11.72 7.582 22.101 17.498 30.888 29.946l.466-.231a42.31 42.31 0 006.41-4l-.161.119.018-.014c.11-.088.445-.35.496-.39l.007-.005.82-.69c.45-.39.89-.78 1.31-1.19a34.81 34.81 0 002.44-2.57 22.24 22.24 0 002-2.66 33 33 0 001.77-3.12 3.79 3.79 0 015.15-1.32 3.85 3.85 0 011.35 5.13c-3.843 7.644-10.382 13.375-17.912 17.226 12.944 20.802 21.87 47.903 25.795 82.063.04.422.093 1.137.148 2.123l.064 1.276c.196 4.329.206 9.242-.053 14.6l-.044-.145c.139.463.31 1.004.51 1.617.583 1.77 1.297 3.75 2.146 5.887 2.428 6.105 5.445 12.209 9.07 17.881 6.838 10.702 14.996 18.545 24.459 22.428 11.552 4.74 24.816 3.48 40.232-5.156a3.999 3.999 0 012.205-.502l23.29-10.24a4 4 0 013.406 7.236l-.186.088-17.09 7.513 15.036 7.982a4 4 0 01-3.561 7.16l-.19-.094-20.933-11.112-.439.232c-16.33 8.519-31.172 9.714-44.332 4.486l-.475-.192c-11.2-4.595-20.513-13.55-28.164-25.521a109.187 109.187 0 01-6.642-12.055c-1.541 10.472-4.05 20.73-7.698 30.49-6.997 18.721-17.73 34.393-32.804 45.92-7.375 5.642-15.676 10.197-24.934 13.598l1.076 86.012 17.874 4.437a4 4 0 012.963 4.645l-.045.2a4 4 0 01-4.645 2.964l-.2-.045-20.87-5.18a4 4 0 01-3.03-3.63l-.007-.202-1.084-86.628c-11.08 3.111-23.394 4.718-36.986 4.718-11.931 0-22.878-1.238-32.871-3.645l1.041 82.366 17.874 4.437a4 4 0 012.963 4.645l-.045.2a4 4 0 01-4.645 2.964l-.2-.045-20.87-5.18a4 4 0 01-3.03-3.63l-.007-.201-1.109-87.805c-10.909-3.508-20.562-8.54-29.004-14.994-15.081-11.527-25.827-27.198-32.838-45.92-4.625-12.351-7.43-25.5-8.76-38.871-.86-8.655-1.028-16.485-.77-23.025l.064-1.432c.042-.842.085-1.521.125-2.052l.058-.687c6.322-55.196 25.822-92.101 54.484-113.774 12.027-9.094 24.912-14.894 37.879-18.044 4.69-1.14 9.113-1.859 13.178-2.238zm7.298 7.7l-.197-.001-.678.012-.785-.01c-.204.002-.43.004-.68.01l-.53.015c-1.098.036-2.33.113-3.684.24-3.69.344-7.733 1-12.033 2.045-11.95 2.904-23.836 8.254-34.943 16.652-26.836 20.292-45.278 55.195-51.352 108.216l-.004.05-.094 1.323-.052.946c-.325 6.44-.206 14.39.677 23.262 1.266 12.724 3.928 25.207 8.291 36.858 6.514 17.397 16.408 31.824 30.204 42.37 7.993 6.109 17.208 10.846 27.727 14.091a3.984 3.984 0 012.841.83c10.272 2.847 21.74 4.322 34.477 4.322 27.256 0 48.698-6.753 65.028-19.243 13.787-10.544 23.67-24.971 30.17-42.367 4.349-11.637 7-24.104 8.258-36.813.263-2.657.457-5.233.592-7.71a3.93 3.93 0 01.047-.923c.266-5.427.243-10.365.026-14.642l-.018-.334a85.86 85.86 0 00-.054-.914l-.07-.983-.142-1.227c-3.587-30.126-11.27-54.554-22.414-73.828a130.022 130.022 0 00-2.862-4.719c-.668.222-1.338.43-2.011.623-25 7.21-50.28-4.3-74.82-6.42a74.62 74.62 0 00-18.09.36 44.55 44.55 0 00-21.66 9.57 49.1 49.1 0 00-5.63 5.54 40.09 40.09 0 00-4.28 5.93c-.73 1.19-1.39 2.4-2 3.64-.27.56-.53 1.13-.79 1.71a1.734 1.734 0 00-.148.347l.01-.021-.342.814v.03a3.84 3.84 0 01-4.61 2.62 3.77 3.77 0 01-2.64-4.64 52.38 52.38 0 0124-27.37c24-12.9 51.13-3.18 76 1.1a98.81 98.81 0 0019.41 1.58c1.45-.05 2.97-.13 4.45-.28.61-.06 1.21-.12 1.82-.21l-.235.036-.025.003.033-.004c.082-.011.22-.03.291-.034l.026-.001 1.08-.18a55 55 0 005.706-1.275c-7.996-10.931-17.205-19.56-27.366-26.133-10.467-6.771-21.37-11.01-32.087-13.23-3.787-.784-7.291-1.258-10.431-1.485a51.087 51.087 0 00-3.604-.149zm-86.026 129.74l.317 1.027.205.642c.18.56.386 1.178.617 1.852a159.609 159.609 0 003.407 9.012c3.844 9.34 8.594 18.677 14.28 27.369 10.8 16.505 23.649 28.652 38.565 34.707 18.268 7.416 39.069 5.447 62.874-7.897a3.998 3.998 0 011.794-.508l.002.002.064-.004h.125l29.721-.001a4 4 0 01.2 7.995l-.2.005h-12.973l10.088 5.1a4 4 0 01-3.424 7.228l-.186-.088-23.177-11.719-.442.24c-24.671 13.204-47.015 15.137-66.856 7.308l-.619-.248c-16.635-6.753-30.634-19.988-42.25-37.74-5.987-9.15-10.96-18.928-14.984-28.705a169.495 169.495 0 01-3.33-8.744l-.249-.722c-.295-.864-.554-1.647-.776-2.343l-.332-1.069-.082-.273a4 4 0 017.621-2.426zm96.871-20.029c12.023 0 20.662 5.13 26.237 13.583 1.928 2.924 3.345 6.04 4.336 9.154.6 1.885.93 3.38 1.065 4.295a3 3 0 01-2.792 3.433l-.176.005h-53.16a3 3 0 01-2.99-2.757l-.01-.173-.001-.234c0-.175.003-.375.01-.6l.01-.233.026-.514c.058-.952.168-1.986.34-3.083.48-3.05 1.366-6.091 2.767-8.958 4.228-8.65 12.197-13.918 24.338-13.918zm-19.35 25.662l-.03.058h25.61c-2.12-4.2-5.41-8.35-13.24-8.74-7.463-.372-11.937 7.905-12.34 8.682zm16.99-44.762a3 3 0 01.176 5.995l-.176.005h-7.316c-.349 5.652-5.038 10.092-10.739 10.092-5.7 0-10.39-4.44-10.74-10.091l-15.465-.001a3 3 0 01-.176-5.995l.176-.005h44.26zm57.97 0a3 3 0 01.176 5.995l-.176.005h-7.316c-.349 5.652-5.038 10.092-10.739 10.092-5.7 0-10.39-4.44-10.74-10.091l-15.465-.001a3 3 0 01-.176-5.995l.176-.005h44.26zm-62.037-17.441c.472.124 1.166.372 2.01.782a16.156 16.156 0 013.954 2.718c2.74 2.55 4.647 6.036 5.347 10.496a3 3 0 11-5.928.93c-.487-3.106-1.733-5.383-3.508-7.034a10.19 10.19 0 00-2.485-1.712 8.218 8.218 0 00-.59-.26l-.326-.118a3 3 0 011.526-5.802z" fill="#11100D" fill-rule="nonzero"/></g></svg>