<svg xmlns="http://www.w3.org/2000/svg" viewBox="0 0 483 483"><g fill="none" fill-rule="evenodd"><path fill-opacity=".01" fill="#EDF0F2" d="M0 0h483v483H0z"/><path d="M250.104 120.002l.367.008.094-.002c1.415-.028 3.396.033 5.866.25l.47.043c4.065.38 8.49 1.1 13.18 2.24 12.97 3.154 25.858 8.96 37.887 18.064 9.885 7.48 18.726 16.844 26.325 28.237.77-.276 1.536-.582 2.298-.88.058 0 .24-.065.316-.091l.002-.002.792-.347 1.64-.79a42.81 42.81 0 006.41-4l-.165.12-.013.01c-.048.029.467-.375.531-.425.287-.225.557-.455.827-.685l1.31-1.19a34.55 34.55 0 002.43-2.57 20.24 20.24 0 002-2.66 33 33 0 001.78-3.12 3.77 3.77 0 015.13-1.34 3.84 3.84 0 011.34 5.13c-4.61 9.194-13.119 15.619-22.565 19.33 5.01 8.525 9.39 18.065 13.07 28.669h25.655a4 4 0 014 4l-.002 21.798a93.748 93.748 0 013.452 1.967c4.22 2.52 8.438 5.442 12.392 8.746 6.942 5.8 12.33 12.153 15.536 19.078 3.958 8.553 4.341 17.53.491 26.592l-.323.738c-.145.319-.297.64-.582 1.236-10.212 20.631-38.7 21.696-51.416 3.63-1.65 10.36-4.31 20.65-8.181 30.522-9.145 23.315-24.121 41.572-45.939 52.778l7.892 29.109a4 4 0 01-.471 3.17l-18.02 28.752.898 29.823 17.926 4.45a4 4 0 012.963 4.644l-.044.201a4 4 0 01-4.645 2.963l-.201-.044-20.87-5.18a4 4 0 01-3.023-3.556l-.012-.206-.987-32.785-18.25-24.24a4 4 0 01-.795-2.678l.024-.24 3.035-23.5c-6.775.977-13.925 1.473-21.458 1.473-12.388 0-23.714-1.336-34.012-3.93l2.479 82.628 17.926 4.45a4 4 0 012.963 4.644l-.044.201a4 4 0 01-4.645 2.963l-.201-.044-20.87-5.18a4 4 0 01-3.023-3.557l-.012-.205-2.647-88.26c-10.412-3.487-19.662-8.385-27.79-14.6-15.074-11.528-25.815-27.2-32.822-45.923a139.61 139.61 0 01-4.43-14.121c-.792.206-1.597.393-2.414.562-18.575 3.85-42.043-2.15-70.99-19.55a4 4 0 014.122-6.857l1.636.974a202.107 202.107 0 0011.854 6.495v-13.51a4 4 0 017.995-.2l.005.2v17.27c17.454 7.598 31.96 9.79 43.755 7.345a41.7 41.7 0 002.248-.53 169.665 169.665 0 01-2.535-16.95c-.925-9.297-1.049-17.642-.706-24.46l.064-1.143c.042-.683.083-1.21.12-1.598 6.321-55.191 25.822-92.095 54.483-113.769 12.029-9.095 24.915-14.897 37.883-18.048 4.69-1.14 9.114-1.859 13.178-2.238 2.532-.237 4.578-.314 6.063-.3zm36.703 212.992l-9.77 75.684 14.532 19.303 14.653-23.382-19.415-71.605zm-36.933-204.991c-.377-.002-.847.005-1.406.023a61.873 61.873 0 00-3.683.24c-3.69.345-7.732 1.002-12.033 2.047-11.951 2.904-23.838 8.255-34.946 16.655-26.568 20.09-44.909 54.499-51.166 106.627l-.19 1.635-.04.51c-.03.414-.06.892-.09 1.43l-.017.33c-.324 6.441-.206 14.393.677 23.265.497 5.001 1.21 9.965 2.156 14.855 7.712-3.917 13.714-10.338 18.247-18.721 2.805-5.186 4.849-10.778 6.24-16.374a69.236 69.236 0 001.123-5.391l.101-.638c.031-.202.059-.392.084-.571l.09-.711a4 4 0 017.959.815l-.07.587c-.052.407-.126.926-.226 1.548l-.045.273a77.2 77.2 0 01-1.253 6.018c-1.543 6.208-3.813 12.42-6.966 18.25-5.622 10.396-13.37 18.364-23.498 22.94a131.72 131.72 0 004.344 13.98c6.51 17.398 16.4 31.826 30.19 42.372 16.332 12.491 37.77 19.245 65.015 19.245 7.988 0 15.491-.584 22.523-1.729l8.222-63.709-15.632-18.37c-2.17-2.55-.431-6.445 2.859-6.588l.188-.004h33.33c3.397 0 5.248 3.968 3.064 6.571l-15.207 18.119 14.546 53.643c19.14-10.311 32.377-26.732 40.636-47.788 5.071-12.929 7.953-26.719 9.145-40.413a3.92 3.92 0 01.082-.999c.21-2.56.359-5.117.452-7.664h-10.928a4 4 0 01-4-4v-44.934c-.421.27-.914.439-1.444.47l-.176.005h-7.328c-.363 5.637-5.046 10.062-10.737 10.062s-10.375-4.425-10.738-10.062h-15.457a3 3 0 01-.177-5.995l.177-.005h44.26c.597 0 1.153.174 1.62.475v-8.325c0-1.94 1.38-3.557 3.212-3.923-3.557-9.766-7.735-18.519-12.471-26.317-24.101 5.575-48.32-5.135-71.921-7.22a74.19 74.19 0 00-18.1.36 44.57 44.57 0 00-21.65 9.57 49.17 49.17 0 00-5.62 5.59 41 41 0 00-4.28 5.93c-.74 1.18-1.4 2.4-2 3.64-.28.56-.54 1.13-.79 1.71a1.96 1.96 0 00-.147.321l-.001.004-.022.048c-.07.161-.138.332-.207.505l-.103.262-.04-.04a3.85 3.85 0 01-4.61 2.62 3.76 3.76 0 01-2.62-4.61 52.35 52.35 0 0124-27.38c24-12.84 51.13-3.17 76 1.11a98.7 98.7 0 0019.47 1.61c1.46-.04 2.98-.12 4.46-.27.6-.06 1.21-.13 1.81-.21l-.231.04-.033.005.013-.002c.072-.011.24-.037.316-.042l.025-.001 1.09-.17c.26-.044.521-.09.782-.138-6.74-9.622-14.436-17.583-22.942-24.02-11.11-8.407-22.998-13.763-34.95-16.67-4.302-1.045-8.344-1.703-12.035-2.048a61.832 61.832 0 00-3.683-.24l-.771-.019a34.502 34.502 0 00-.439-.004l-.792.009-.597-.01zm43.508 168.838h-16.096l8.104 9.523 7.992-9.523zm87.699-57.814v27.285a4 4 0 01-4 4h-14.397c-.09 2.57-.234 5.151-.435 7.737l3.223 6.312c8.233 16.108 31.47 16.275 39.379.298l.372-.787c.074-.16.135-.293.199-.437 5.751-13.02.036-25.369-13.628-36.784-3.403-2.843-7.051-5.397-10.713-7.624zm-71.74 4.585a3.47 3.47 0 013.41 4c-1.983 13.573-13.623 23.637-27.34 23.637-13.718 0-25.358-10.064-27.34-23.637a3.47 3.47 0 013.41-4zm-24.01 12.87a18.35 18.35 0 00-11.4 4.5s3.6 4.21 11.4 4.21c7.81 0 10.81-4.21 10.81-4.21a15.88 15.88 0 00-10.81-4.5zm87.749-44.48h-25.33v50.309h25.33V212zm-92.92 3.85a3 3 0 01.177 5.995l-.176.005h-7.358c-.363 5.637-5.046 10.062-10.737 10.062s-10.375-4.425-10.738-10.062h-15.427a3 3 0 01-.177-5.995l.177-.005h44.26zm-4.057-21.272c.472.124 1.165.373 2.009.782a16.139 16.139 0 013.948 2.713c2.741 2.552 4.649 6.04 5.345 10.505a3 3 0 01-5.929.924c-.484-3.108-1.729-5.385-3.503-7.036a10.173 10.173 0 00-2.481-1.708 8.206 8.206 0 00-.59-.26l-.324-.117a3 3 0 111.525-5.803z" fill="#11100D" fill-rule="nonzero"/></g></svg>