<svg xmlns="http://www.w3.org/2000/svg" viewBox="0 0 483 483"><g fill="none" fill-rule="evenodd"><path fill-opacity=".01" fill="#EDF0F2" d="M0 0h483v483H0z"/><path d="M336.187 99.23a4 4 0 01-1.634 5.262l-.182.096-7.149 3.528 16.419 2.75a4 4 0 01-1.124 7.918l-.198-.028-12.967-2.173c.53 1.778.71 3.67.494 5.57l-.043.34-6.84 50a3.99 3.99 0 01-.465 1.401c9.287 15.49 16.41 34.361 20.985 56.91 14.962-3.444 30.362-4.46 45.635-2.148a4 4 0 11-1.196 7.91c-14.292-2.163-28.816-1.179-42.972 2.113a285.017 285.017 0 012.183 15.38l-.176-1.492c13.677.307 27.75 2.583 41.384 7.556a4 4 0 01-2.742 7.516c-12.502-4.56-25.489-6.7-38.148-7.05.085 3.743.034 7.852-.198 12.253.074.212.13.434.166.663l.105.842c.071.556.16 1.204.269 1.937.31 2.107.712 4.46 1.212 6.998 1.429 7.24 3.36 14.476 5.856 21.195 4.566 12.295 10.478 21.357 17.654 25.875 8.468 5.33 18.82 4.36 31.973-4.66a18.003 18.003 0 0121.922 1.205l.292.257 2.29 2.07a4 4 0 01-5.197 6.077l-.167-.143-2.28-2.06a10 10 0 00-12.336-.808c-15.618 10.71-29.373 11.999-40.758 4.832-8.972-5.647-15.771-16.07-20.893-29.86-1.17-3.149-2.219-6.39-3.156-9.682-1.521 7.684-3.603 15.21-6.313 22.461-6.996 18.722-17.73 34.394-32.804 45.922-7.703 5.892-16.417 10.6-26.176 14.044l2.565 85.552 17.927 4.45a4 4 0 012.963 4.644l-.045.201a4 4 0 01-4.645 2.964l-.2-.045-20.87-5.18a4 4 0 01-3.024-3.557l-.011-.205-2.59-86.368c-10.766 2.895-22.68 4.388-35.782 4.388-12.41 0-23.756-1.34-34.07-3.94l2.487 82.648 17.927 4.45a4 4 0 012.963 4.644l-.045.201a4 4 0 01-4.645 2.964l-.2-.045-20.87-5.18a4 4 0 01-3.024-3.556l-.011-.206-2.658-88.284c-10.399-3.485-19.638-8.378-27.757-14.584-10.545-8.06-18.97-18.145-25.481-29.883l.123-.126c-1.792 1.798-3.6 4.028-5.296 6.705-8.275 13.053-10.843 30.98-4.038 54.62 6.65 23.208-.635 43.601-17.614 52.834-17.007 9.247-39.527 5.042-58.675-12.286a4 4 0 115.368-5.932c34.836 31.525 75.254 9.549 63.232-32.408-7.437-25.833-4.53-46.126 4.97-61.112 2.02-3.186 4.195-5.868 6.385-8.067a36.154 36.154 0 011.773-1.67 123.749 123.749 0 01-3.585-8.594c-4.625-12.352-7.43-25.501-8.76-38.872-.86-8.655-1.028-16.485-.77-23.025l.064-1.432c.042-.842.085-1.521.125-2.052l.058-.687c3.912-34.157 12.87-61.31 25.924-82.182a.326.326 0 01-.037-.021l-.533-.355-.448-.285c-.239-.149-.501-.307-.785-.474a45.024 45.024 0 00-4.676-2.378c-8.406-3.688-17.015-4.72-24.874-1.63-11.836 4.652-21.244 18.363-26.876 43.823a3.995 3.995 0 01-7.802-1.726c6.155-27.824 17.099-43.773 31.755-49.534 10.159-3.993 20.834-2.713 31.007 1.75.887.39 1.74.791 2.555 1.2l-5.418-39.666a13.986 13.986 0 01.473-5.986l-13.4 2.244a4 4 0 01-1.518-7.852l.196-.038 16.418-2.75-7.148-3.528a4 4 0 013.355-7.26l.187.086 21.306 10.519.01.005 39.071 18.556a102.064 102.064 0 0113.62-4.336c4.69-1.14 9.114-1.859 13.18-2.238 2.69-.252 4.833-.323 6.337-.293l.1.002.193-.004c.163-.004.348-.004.556-.004l.688.008c1.006.017 2.146.068 3.409.16 3.48.252 7.332.773 11.475 1.631a100.937 100.937 0 0118.234 5.62l38.818-18.44a3.99 3.99 0 01.75-.54l.181-.096 21.37-10.55a4 4 0 015.358 1.816zM225.64 157.178l-.347.59a111.804 111.804 0 01-6.093 9.169c-17.462 23.655-43.18 39.007-78.439 42.028-4.412 13.464-7.666 28.703-9.628 45.834l-.004.05-.094 1.322-.052.946c-.325 6.44-.206 14.391.677 23.263 1.266 12.723 3.928 25.207 8.291 36.858 6.515 17.397 16.408 31.824 30.204 42.37 16.34 12.49 37.789 19.243 65.045 19.243s48.698-6.753 65.028-19.243c13.787-10.544 23.67-24.971 30.17-42.367 4.349-11.637 7-24.104 8.258-36.813.727-7.348.931-14.069.793-19.827-4.813.146-9.55.538-14.167 1.14-1.695.22-3.222.455-4.564.69l-.494.088c-.403.073-.763.142-1.078.204l-.627.13a4 4 0 01-1.758-7.804l.536-.114c.381-.079.883-.176 1.5-.288 1.585-.287 3.41-.573 5.451-.839a152.025 152.025 0 0114.657-1.198 271.39 271.39 0 00-1.722-11.885 147.72 147.72 0 00-6.743 2.157 134.914 134.914 0 00-12.726 5.12l-.946.445c-.61.29-1.18.57-1.706.834l-.759.386c-.566.292-.94.494-1.113.591a4 4 0 11-3.92-6.974l.611-.332c.213-.113.464-.245.754-.395l.83-.422c.863-.434 1.822-.898 2.874-1.387a142.878 142.878 0 0113.484-5.426 157.216 157.216 0 017.9-2.505c-3.579-17.718-8.804-33.108-15.507-46.319-27.76-.199-51.285-5.583-70.67-14.47-6.96-3.19-12.89-6.62-17.81-10.063a73.928 73.928 0 01-4.103-3.076l-.383-.312a32.714 32.714 0 01-1.61-1.399zm-36.676 122.828l.114.77c.076.497.17 1.08.284 1.738.329 1.896.748 4.014 1.267 6.298 1.479 6.518 3.447 13.032 5.955 19.078 4.701 11.332 10.718 19.59 17.981 23.556 8.697 4.75 19.335 3.4 32.683-5.754a18.003 18.003 0 0121.922 1.205l.292.257 2.29 2.07a4 4 0 01-5.197 6.077l-.167-.143-2.28-2.06a10 10 0 00-12.336-.808c-15.666 10.743-29.472 12.495-41.041 6.177-9.176-5.011-16.202-14.652-21.537-27.512-2.699-6.507-4.794-13.442-6.367-20.373a134.907 134.907 0 01-1.227-6.019l-.213-1.227a65.122 65.122 0 01-.322-2.078 4 4 0 017.899-1.252zm110.296-37.955a3.47 3.47 0 013.42 4c-1.998 13.563-13.635 23.612-27.345 23.612-13.71 0-25.347-10.049-27.345-23.612a3.47 3.47 0 013.41-4zm-76.618 11.757c1.814.237 3.457.489 4.914.744l1.266.23c.592.113 1.03.204 1.307.267a4 4 0 01-1.556 7.844l-.601-.124c-.293-.06-.63-.125-1.012-.196l-.294-.054a103.86 103.86 0 00-5.058-.778c-19.136-2.494-40.344-1.387-60.317 5.898a4 4 0 11-2.742-7.516c21.359-7.79 43.792-8.961 64.093-6.315zm52.618 1.083a18.34 18.34 0 00-11.41 4.53s3.6 4.2 11.41 4.2c7.526 0 10.584-3.93 10.789-4.205l.011-.015a15.86 15.86 0 00-10.8-4.51zm-56.213-19.569a142.878 142.878 0 0113.484 5.426l1.02.48c.825.394 1.585.768 2.277 1.12l.994.515c.348.184.608.326.778.42a4 4 0 01-3.92 6.975l-.472-.256a61.86 61.86 0 00-.641-.335l-.759-.386a99.19 99.19 0 00-2.652-1.28 134.914 134.914 0 00-12.726-5.119c-18.607-6.44-38.254-9.226-57.482-6.316a4 4 0 11-1.196-7.91c20.664-3.127 41.56-.165 61.295 6.666zm22.543-21.661c6.45 0 11.68 5.23 11.68 11.68a3 3 0 01-5.995.176l-.005-.176a5.68 5.68 0 00-11.36 0 3 3 0 01-6 0c0-6.45 5.23-11.68 11.68-11.68zm58.73 0c6.45 0 11.68 5.23 11.68 11.68a3 3 0 01-5.995.176l-.005-.176a5.68 5.68 0 10-11.36 0 3 3 0 01-6 0c0-6.45 5.23-11.68 11.68-11.68zm-181.24-19.985a3.995 3.995 0 013.99 3.796l.005.199v21.18a3.995 3.995 0 01-7.985.2l-.005-.2v-21.18a3.995 3.995 0 013.995-3.995zm-13.224.045a3.995 3.995 0 013.38 4.348l-.026.198-2.93 19.42a3.995 3.995 0 01-7.925-.994l.025-.198 2.93-19.42a3.995 3.995 0 014.546-3.354zm123.666-65.843l-.061.007c-3.69.344-7.733 1.002-12.033 2.046a94 94 0 00-13.518 4.387c-.33.2-.69.35-1.064.447-6.961 2.956-13.797 6.855-20.361 11.818-9.506 7.188-17.959 16.21-25.182 27.22-.118.23-.26.447-.42.648-5.01 7.74-9.418 16.453-13.165 26.19 31-3.519 53.513-17.398 69.054-38.45 6.367-8.624 11.107-17.88 14.451-27.133a98.47 98.47 0 002.299-7.18zm8.312-.206l-.022.095-.09.355a103.327 103.327 0 01-2.985 9.652 117.371 117.371 0 01-5.412 12.623 3.965 3.965 0 011.654.841l.35.318c.185.166.464.407.837.718l.166.137c1.09.9 2.419 1.91 3.986 3.008 4.533 3.173 10.046 6.36 16.557 9.346 17.33 7.945 38.253 12.96 62.903 13.665-9.346-15.71-20.81-27.519-33.838-35.947-10.467-6.771-21.37-11.01-32.087-13.23-3.787-.784-7.291-1.258-10.431-1.486a63.084 63.084 0 00-1.588-.095zm75.763-12.616l-.24.108-34.33 16.307a105.197 105.197 0 018.983 5.434l18.533-13.082a4 4 0 014.784 6.409l-.17.127-16.339 11.532c7.803 6.195 14.905 13.582 21.216 22.231l5.844-42.719a6 6 0 00-8.28-6.347zm-160.306.685a6.002 6.002 0 00-2.427 5.416l.03.253 5.458 39.964c6.368-8.23 13.498-15.266 21.308-21.172l.087-.065-16.034-9.616a4 4 0 013.93-6.965l.184.104 19.142 11.478a103.576 103.576 0 017.458-4.295l-33.015-15.68a6 6 0 00-6.121.578z" fill="#11100D" fill-rule="nonzero"/></g></svg>