<svg xmlns="http://www.w3.org/2000/svg" width="411" height="269" fill="none"><path fill="#fff" d="M134.269 268.062C60.495 268.062.479 208.045.479 134.27S60.495.479 134.269.479c49.487 0 94.462 27.194 117.701 70.242l118.242-36.372a31.593 31.593 0 0 1 9.278-1.403 31.454 31.454 0 0 1 15.212 3.955c7.538 4.175 12.929 11.07 15.16 19.403 2.231 8.332 1.014 16.986-3.431 24.372-4.445 7.386-11.527 12.524-19.927 14.45l-118.985 27.262c.355 3.972.541 7.944.541 11.899 0 73.775-60.016 133.792-133.791 133.792v-.017Z"/><path stroke="#C6C6C8" stroke-linecap="round" stroke-width="4" d="M36.196 106.155c.472 4.722 1.557 9.469 2.397 14.151.301 1.677.647 6.307 1.121 2.513.857-6.855 4.81-14.538 7.463-20.84 1.213-2.882-.628-6.66.541-9.666 1.38-3.55-1.302 4.555-1.547 5.142-4.061 9.748-5.61 20.516-9.627 30.159-1.612 3.869.563-8.438 1.779-12.45 2.238-7.389 5.759-14.912 10.246-21.227.552-.778.85-2.053.85-.541v8.428c0 3.024-.663 9.097.155 2.475.977-7.917 4.61-15.656 7.5-23.044 1.712-4.372 1.38.101 1.006 2.397-.747 4.59-2.223 18.185-3.054 13.61-1.184-6.51 2.722-14.647 5.528-20.26.722-1.444 4.558-8.425 3.055-2.745-1.085 4.097-3.75 8.532-3.75 12.798 0 1.862-.02-3.77.463-5.568 1.18-4.38 3.914-8.568 5.955-12.605 1.183-2.339 4.87-10.42 3.866-2.938-.72 5.363-3.133 10.406-5.103 15.388-.427 1.08-2.287 8.594-3.635 8.893-.32.071 1.295-4.592 1.353-4.717 2.192-4.712 5.123-9.177 7.578-13.764 2.194-4.1 4.965-7.853 7.54-11.716.05-.074 1.906-2.716 2.126-2.165.653 1.631-1.56 5.514-2.01 6.844-.726 2.144-1.039 4.506-2.436 6.302-1.097 1.41-2.474 6.543-2.474 4.756 0-7.427 7.002-14.58 11.986-19.565 1.016-1.016 2.32-5.071 2.32-3.634 0 2.818-2.844 7.576-3.867 10.285-.666 1.762-1.696 3.89-.657.773 1.647-4.941 6.871-10.421 11.019-13.416 2.206-1.594 2.455-2.268.773.734-2.201 3.931-7.202 16.517-5.529 12.334 2.642-6.603 7.083-10.562 11.947-15.427 4.839-4.839-.614 2.93-1.817 5.336-1.7 3.4.463-.149 1.663-1.315 2.921-2.84 6.197-6.09 9.589-8.351 2.827-1.886-.721 2.326-1.083 2.938-1.473 2.492-3.634 7.888-3.634 7.888s3.231-3.877 5.258-5.336c3.727-2.684 7.071-5.519 11.019-7.888.623-.374-.958 1.107-1.314 1.74-.754 1.34-1.241 2.69-2.398 3.75-1.865 1.71-1.096 1.845.774.349 3.565-2.852 8.119-6.82 12.256-8.7 3.947-1.794 1.027.868.155 2.475-.309.569-2.921 5.087-1.933 4.717 2.821-1.058 4.97-4.121 8.042-5.259 5.278-1.955-.602 3.423-1.276 6.457-.43 1.936 1.286-.569 2.474-1.392 2.367-1.638 4.851-3.243 7.656-3.866 1.785-.397-2.572 3.422-2.436 5.606.032.513 5.213-2.297 6.109-2.629 1.361-.504 2.896-1.387 4.33-1.546 2.146-.239.947.445-.348 1.74-.524.524-3.045 3.869-.657 2.783 2.08-.945 4.421-1.319 6.573-2.087 1.098-.392 3.874-1.701 3.441-.62-.163.408-5.007 6.468-.657 4.293 3.004-1.502 5.899-1.58 9.047-2.63"/><path fill="#fff" stroke="#171717" stroke-width="2.5" d="M373.297 48.363c9.038-2.78 18.577 2.498 21.025 11.63 2.447 9.134-3.176 18.474-12.392 20.586l-132.158 30.28-2.535-8.973-2.535-6.76-2.535-6.434 131.13-40.33Z"/><circle cx="8.655" cy="8.655" r="8.655" stroke="#171717" stroke-width="2.5" transform="rotate(75 155.346 275.894)"/><ellipse cx="133.002" cy="134.148" stroke="#171717" stroke-width="2.5" rx="119" ry="119.001"/><ellipse cx="133.001" cy="134.148" stroke="#171717" stroke-width="2.5" rx="97.364" ry="97.365"/><path stroke="#171717" stroke-linecap="round" stroke-width="1.5" d="M243.617 89.092c4.581 0 8.745-.48 13.186-1.49 1.279-.29 2.368-1.163 3.582-1.648 1.076-.431 2.045-.722 3.059-1.268 1.216-.656 2.683-.946 3.978-1.316 6.055-1.73 12.083-4.563 18.003-6.83 11.632-4.455 23.674-7.942 35.438-11.982 5.247-1.802 10.813-2.81 16.165-4.28 5.109-1.402 10.138-2.993 15.278-4.278 6.826-1.707 13.807-4.054 20.825-4.834 5.449-.606 11.895-1.193 16.656 1.981 4.354 2.903 3.598 9.022 3.598 13.598 0 3.667-.731 7.474-3.645 9.858-.728.595-2.519.425-3.423.57-1.359.22-2.918.753-4.216 1.22-1.877.677-3.615 1.76-5.595 2.156-3.547.71-7.11 2.306-10.571 3.344-4.153 1.246-8.53 2.126-12.504 3.915-2.613 1.176-6.015 1.957-8.828 2.488-3.185.601-6.307 1.617-9.54 2.155-3.688.615-7.44 1.298-11.142 1.776-3.472.448-6.754 1.514-10.19 2.06-3.402.54-6.85 2.047-10.191 2.932-3.239.857-6.208 1.991-9.572 2.425-4.245.547-8.411 1.557-12.695 1.933-4.71.414-9.297 1.255-13.978 1.775-3.867.43-8.022 1.768-11.76 2.853-1.591.462-3.722 1.712-5.357 1.712M38.078 113.456c0-2.306-.079-4.581.26-6.861.203-1.376 1.049-2.74 1.812-3.884.837-1.257 1.337-2.667 2.129-3.956 1.216-1.982 2.318-4.05 3.567-6.013 1.145-1.8 2.78-3.536 3.625-5.495.776-1.797 2.17-3.621 3.38-5.135 2.828-3.535 5.295-7.386 8.272-10.803a111.25 111.25 0 0 1 8.17-8.473c3.085-2.872 6.59-5.127 9.955-7.639 4.825-3.601 9.793-6.864 14.96-9.896 2.962-1.74 6.556-2.459 9.897-3.194 4.122-.907 8.166-1.875 12.371-2.388 7.447-.908 14.883-1.093 22.382-1.093"/><path stroke="#171717" stroke-linecap="round" stroke-width="1.5" d="M136.225 38.278c3.416 0 6.839-.063 10.255 0 2.845.053 5.67.796 8.454 1.278 1.365.236 2.709.75 4.034 1.155 2.059.63 4.013 1.493 6.052 2.14 3.598 1.143 6.716 3.614 10.178 5.097 1.875.804 3.597 1.986 5.305 3.088a123.88 123.88 0 0 0 4.95 3.041 60.632 60.632 0 0 1 8.285 5.79c1.174.975 2.546 1.73 3.618 2.803a185.138 185.138 0 0 1 4.066 4.188c2.484 2.648 6.148 4.025 8.107 7.16.303.486.61.96.693 1.54.018.13.146.685.146.277"/><path stroke="#171717" stroke-linecap="round" stroke-width="1.5" d="M209.672 75.281c.071.64 1.066 1.593 1.417 2.14.778 1.218 1.731 2.326 2.463 3.573 1.128 1.92 2.213 3.858 3.496 5.682 3.006 4.276 5.02 9.543 6.513 14.521.832 2.774 1.118 5.648 1.771 8.454.505 2.169.667 4.393 1.247 6.544.527 1.953.987 3.938 1.525 5.898.167.61.237 1.26.523 1.832.156.311.222.476.031 0"/><path stroke="#171717" stroke-linecap="round" stroke-width="1.5" d="M228.937 121.846c0 1.687-.08 3.399.208 5.066.322 1.868.253 3.83.7 5.682.486 2.012.598 4.139.863 6.19.258 2.005.169 4.046.169 6.067 0 2.354-.663 4.64-1.178 6.93-.562 2.498-1.149 5.048-1.94 7.483-.888 2.732-1.953 5.387-3.01 8.054-.827 2.085-1.777 4.066-2.403 6.228-.212.735-.379 1.501-.616 2.21M148.969 229.8c2.65 0 5.389.333 7.885-.575 1.619-.589 3.333-1.344 5.043-1.724 1.556-.345 3.553-1.477 5.044-2.154 1.213-.552 2.857-.511 4.006-1.15 1.857-1.031 3.974-1.745 5.89-2.729 2.249-1.155 4.43-2.353 6.544-3.735 1.214-.794 2.539-2.14 3.862-2.65 1.759-.676 4.046-2.105 5.395-3.383 1.25-1.185 2.821-1.987 4.166-3.033 1.63-1.268 2.839-2.823 4.294-4.278 1.652-1.652 3.629-3.641 4.9-5.618 1.208-1.879 3.034-3.355 4.293-5.187 2.231-3.245 4.365-6.617 7.055-9.465 2.161-2.289 3.735-4.789 3.735-8.045"/><path stroke="#171717" stroke-linecap="round" stroke-width="1.5" d="M73.695 212.848c1.47.147 3.332 2.373 4.47 3.304 1.166.954 2.557 1.691 3.862 2.378 1.585.834 3.455 1.1 5.028 1.947 1.635.881 3.345 1.843 5.091 2.49 1.502.556 2.933 1.421 4.406 2.091 1.464.666 3.225.917 4.724 1.516 1.875.75 4.334 1.295 6.305 1.788 1.881.47 3.761 1.152 5.618 1.724 3.804 1.17 7.651 1.724 11.62 1.724 3.777 0 7.65.287 11.364.287 3.588 0 7.223-.287 10.758-.287 3.018 0 5.853-2.012 8.922-2.012"/><path stroke="#171717" stroke-linecap="round" stroke-width="1.5" d="M74.556 213.137c-2.082-2.082-4.057-4.139-6.097-6.257-1.505-1.563-2.728-3.396-4.102-5.075-.536-.655-1.188-.776-1.644-1.596-.421-.758-1.46-1.277-2.011-2.012-3.182-4.242-6.67-8.051-8.491-13.152-.664-1.857-1.829-3.654-2.363-5.522-.38-1.331-.946-3.078-1.5-4.31-2.6-5.777-4.638-11.758-6.544-17.812-.997-3.168-1.843-6.306-2.299-9.609-.361-2.623-1.36-5.277-1.436-7.917-.105-3.66-.287-7.391-.287-10.981 0-2.84-.288-5.68-.288-8.539 0-1.275-.268-2.927.288-4.039M14.438 123.316c0-4.598.92-9.414 3.002-13.579 1.827-3.653 3.72-7.812 4.628-11.808.409-1.798 1.348-3.515 2.031-5.223.836-2.09 1.437-4.41 2.611-6.34 1.15-1.89 1.821-4.15 2.815-6.136 1.242-2.484 2.244-5.088 3.713-7.457 1.92-3.093 3.477-6.632 5.876-9.385 2.155-2.476 4.1-5.08 6.397-7.443 1.234-1.268 2.16-2.87 3.395-4.178.816-.864 1.578-1.837 2.364-2.741.503-.578 1.511-1.912 2.205-2.22.917-.407 1.49-1.618 2.075-2.35.855-1.068 1.673-2.312 2.64-3.279 1.814-1.814 3.68-3.49 6.064-4.555"/><path stroke="#171717" stroke-linecap="round" stroke-width="1.5" d="M61.174 38.71c1.981 0 3.792-1.03 5.382-2.09 2.404-1.603 4.958-3.055 7.413-4.555 3.588-2.192 7.248-4.306 11.112-6.006 4.46-1.962 8.826-5.18 13.68-6.15 4.852-.971 9.552-2.495 14.507-3.134 3.606-.466 7.153-1.18 10.779-1.51 2.464-.223 4.904-.451 7.369-.637 2.276-.172 4.582-.04 6.847-.261 6.997-.683 14.706-.632 21.296 2.088 3.412 1.409 6.904 2.578 10.3 4.033 3.55 1.522 7.042 3.343 10.445 5.165"/><path stroke="#171717" stroke-linecap="round" stroke-width="1.5" d="M172.156 20.952c1.481.165 2.532 1.693 3.917 2.09 1.617.461 3.2 1.839 4.7 2.61 4.785 2.46 10.062 4.118 14.681 6.848 10.584 6.254 20.466 14.024 28.463 23.443 2.211 2.605 4.494 5.146 6.455 7.964 2.065 2.968 3.353 6.234 5.237 9.27 2.959 4.767 4.565 10.589 6.325 15.871.417 1.25.889 2.654 1.233 3.859.257.896.959 2.084 1.059 2.988.15 1.35 1.251 2.692 1.553 4.048.161.725.467 1.559.798 2.219"/><path stroke="#171717" stroke-linecap="round" stroke-width="1.5" d="M245.01 97.725c0 4.927 2.631 9.65 4.584 14.115 2.4 5.485 2.803 11.843 3.569 17.684 1.042 7.952.75 16.613-.711 24.502-.346 1.869-.444 4.093-1.233 5.847-.797 1.771-1.668 3.48-2.539 5.222-1.558 3.117-2.566 6.029-3.409 9.401"/><path stroke="#171717" stroke-linecap="round" stroke-width="1.5" d="M118.867 252.753h16.385c4.491 0 8.389-.797 12.785-1.611 6.329-1.172 12.976-1.506 19.148-3.221 3.343-.928 6.477-2.154 9.644-3.579 3.283-1.477 6.712-2.513 9.763-4.474 5.475-3.52 11.585-6.548 16.384-11.095 1.742-1.65 3.958-3.022 5.886-4.454 3.951-2.936 7.964-6.372 11.075-10.201 1.82-2.239 3.637-4.464 5.23-6.9 1.791-2.74 4.241-5.079 5.925-7.834 4.168-6.82 8.393-13.119 11.612-20.361.942-2.119 1.51-4.569 2.148-6.801.583-2.042 2.505-4.035 2.505-6.084M17.939 108.871c0 4.383-1.833 8.104-2.486 12.348-.588 3.823-1.094 7.326-1.094 11.274 0 6.631 2.513 12.774 3.242 19.328.535 4.822 1.655 9.629 2.922 14.316.832 3.078 2.19 6.009 3.222 9.028 1.515 4.434 2.784 8.839 4.573 13.183 2.859 6.943 7.376 11.991 12.447 17.438 1.885 2.024 2.902 4.798 4.752 6.88.797.896 1.431 1.816 2.128 2.784.3.416 1.761.795.716.795"/><path stroke="#171717" stroke-linecap="round" stroke-width="1.5" d="M45.14 214.099c2.494 2.244 4.834 5.151 7.676 6.959 4.26 2.711 8.19 5.927 12.368 8.789 4.764 3.264 9.514 6.334 14.495 9.286 3.874 2.295 7.995 3.803 11.99 5.746 3.222 1.568 6.795 2.483 10.022 4.096 3.343 1.672 7.85 1.496 11.453 2.347 5.302 1.252 10.728 1.927 16.106 2.525 1.592.177 11.94.239 11.811-.02M372.41 56.242c-.402 0-.816-.03-1.216.01-.865.086-1.656.603-2.362 1.068-.586.386-1.141.883-1.638 1.38-.319.318-.717.616-.819 1.077-.509 2.29-.259 4.747-.259 7.09 0 1.103.214 2.086.561 3.127.332.998 1.243 1.605 2.15 2.074 1.471.76 2.837 1.598 4.484 1.978 1.655.382 3.086.164 4.531-.69 1.698-1.003 2.935-2.237 3.899-3.942.584-1.032.886-2.28 1.145-3.43.286-1.27.439-2.887-.043-4.128-.432-1.11-1.15-2.179-1.983-3.027-.857-.873-2.004-1.94-3.19-2.328-.631-.207-1.251-.45-1.897-.604-.667-.16-1.389-.086-2.07-.086-.516 0-1.13-.094-1.638.019-.276.061-.579.153-.862.153"/><g filter="url(#a)"><path fill="#fff" stroke="#fff" stroke-width="8" d="M135.505 171.699c23.385-4.123 38.674-26.983 34.469-50.831-2.082-11.807-9.024-24.37-18.177-33.524-9.087-9.09-21.14-15.551-33.523-13.367-12.384 2.183-21.5 12.378-26.93 24.026-5.47 11.733-7.697 25.912-5.615 37.72 4.205 23.848 26.391 40.1 49.776 35.976Z"/><path stroke="#FFD424" stroke-linecap="round" stroke-width="3" d="M91.576 141.207c2.81 1.783 5.883 3.188 8.775 4.835 4.259 2.425 8.406 5.078 12.327 8.019.652.488 1.324.942 1.983 1.419.051.037.54.579.61.567.476-.084-.647-.719-1.004-1.044-1.868-1.703-3.814-3.315-5.666-5.037-4.067-3.783-7.768-7.814-10.757-12.508-1.356-2.129-2.56-4.343-3.896-6.48-.683-1.091.75.671.993.874 8.434 7.031 18.253 12.109 27.547 17.863 3.957 2.449 7.693 5.155 11.322 8.059.044.036.958.84.402.367-1.69-1.437-3.364-2.892-5.042-4.344-8.453-7.318-17.066-14.451-25.215-22.112-3.096-2.911-6.321-5.834-8.862-9.26-.1-.135-.236-.246-.324-.389-.464-.749 1.304 1.185 2.007 1.715 11.483 8.657 24.326 15.289 37.195 21.596 4.23 2.073 8.431 4.227 12.709 6.201.122.056.447.249.379.134-.209-.354-1.49-.949-1.714-1.084-3.615-2.175-7.097-4.557-10.549-6.983-10.261-7.213-20.256-14.903-29.687-23.175-2.898-2.542-9.416-2.459-11.814-5.495-.047-.06-.227-.196-.187-.131.103.169.474.49.554.558 1.605 1.364 6.923-.061 8.655 1.129 8.091 5.561 16.704 10.36 25.319 15.047 7.484 4.072 15.031 8.033 22.662 11.822 1.514.752 3.03 1.502 4.518 2.304 1.895 1.021-.404-.142-.891-.399-10.141-5.374-19.856-11.38-28.537-18.929a132.092 132.092 0 0 1-12.084-11.964c-.176-.198-1.607-1.731-1.291-1.477 1.196.961 2.494 1.816 3.77 2.663 6.169 4.095 12.558 7.902 19.058 11.446 8.303 4.526 16.936 8.479 25.53 12.419.183.084 1.68.926 1.961.676.144-.129-.216-.33-.37-.445-1.262-.944-2.686-1.726-4.03-2.536-12.192-7.345-24.103-14.968-34.947-24.253-4.632-3.966-9.348-8.279-13.052-13.161-.165-.218-1.578-1.97-1.234-1.624 1.339 1.35 2.981 2.505 4.504 3.619 6.04 4.418 12.434 8.362 18.966 12.009a260.9 260.9 0 0 0 23.01 11.369c.679.295 2.538 1.349 2.086.762-.747-.968-1.966-1.88-2.875-2.602-7.233-5.743-14.903-10.971-22.535-16.166-6.77-4.609-13.536-9.18-19.672-14.62-.734-.65-1.509-1.26-2.118-2.033-.042-.053-.475-.51-.291-.46 1.421.386 2.917 1.2 4.249 1.759 6.652 2.792 13.275 5.654 19.932 8.438a735.137 735.137 0 0 0 22.065 8.8c.433.165 1.543.848 1.318.442-.597-1.075-2.573-2.11-3.5-2.783-7.013-5.095-14.367-9.714-21.015-15.304a57.221 57.221 0 0 1-5.117-4.878c-.821-.884-1.707-1.763-2.303-2.821-.021-.037-.302-.52-.208-.401.864 1.081 2.554 1.828 3.693 2.485 7.449 4.289 15.141 8.09 23.141 11.227 1.93.757 3.854 1.52 5.763 2.33.481.204 1.067.291 1.525.533 1.43.757-2.792-1.637-4.139-2.534-4.376-2.914-8.594-5.98-12.583-9.415-1.987-1.71-3.92-3.364-6.167-4.729-.394-.24-1.015-.7-1.491-.75-.763-.079-1.666-.002-2.449-.032-2.204-.084-4.382.052-6.572.265-1.136.11-2.364.446-3.461.227-.684-.136-1.262-.413-1.879-.726-.104-.053 2.391-.585 2.843-.629 2.437-.239 4.878.252 7.309-.176.545-.096-.528-.38-.817-.549-1.151-.67-2.47-1.268-3.776-1.559-.397-.088-4.833-.313-4.763.083.049.28.51.557.689.7a162.483 162.483 0 0 0 6.525 4.948c9.838 7.09 19.683 14.177 29.458 21.355 2.767 2.032 5.599 4.03 8.259 6.202 1.054.861-1.363-.809-1.447-.866-4.531-3.083-9.075-6.037-13.358-9.47a910.44 910.44 0 0 1-14.937-12.218c-2.326-1.947-4.717-3.743-7.485-5.016-.601-.277-1.53-.588-2.216-.467-.475.084 1.991 2.999 2.01 3.02 3.675 4.038 8.159 7.415 12.438 10.77 4.65 3.647 9.445 7.087 14.232 10.547 1.667 1.205 3.337 2.408 4.989 3.633.748.555 1.69 1.079 2.351 1.747.479.484-1.187-.672-1.754-1.049-3.458-2.302-6.843-4.715-10.227-7.123-6.633-4.72-13.236-9.495-19.968-14.075-3.035-2.065-6.241-4.05-9.55-5.656-.304-.148-1.622-.921-2.01-.748-.342.152.427.62.686.89 1.726 1.807 3.533 3.536 5.309 5.292 5.311 5.245 10.308 10.828 15.779 15.908 1.307 1.213 2.595 2.419 3.835 3.7.716.74.832.804-.199-.038-6.606-5.397-13.236-10.786-19.338-16.758-2.304-2.254-4.479-4.64-6.809-6.868-1.321-1.263-2.726-2.783-4.335-3.694-.404-.229-1.308-.644-1.812-.555-.127.022.03 1.033.027 1.134-.07 2.27.911 4.257 2.358 5.976 1.057 1.256 2.68 2.832 3.842 3.9 3.82 3.51 7.837 6.83 11.909 10.043 7.119 5.618 14.604 10.699 22.067 15.839 4.793 3.302 9.832 6.486 14.251 10.297.328.283 1.373 1.003.958.88-.697-.208-1.679-1.283-2.185-1.685-6.568-5.21-12.971-10.559-18.924-16.475-5.576-5.541-10.569-11.662-16.235-17.104-.926-.888-1.917-1.71-2.8-2.642-.37-.39-.72-.968-1.211-1.227-.24-.128.369.404.584.571 2.294 1.783 4.575 3.582 6.887 5.341 7.84 5.969 15.708 12.168 24.174 17.245 1.142.685 1.912 1.769 2.695 2.825.041.055.851 1.183.59 1.118-1.769-.434-3.788-1.945-5.338-2.76-7.37-3.877-14.69-7.844-21.929-11.961-7.821-4.447-15.408-9.221-23.083-13.9-.604-.367-2.797-2.043-3.685-1.611-.162.079.283.4.354.457.89.716 1.62 1.656 2.461 2.429 3.845 3.531 8.056 6.694 12.212 9.845 6.859 5.2 13.92 10.128 20.499 15.687 1.221 1.032 2.467 2.043 3.565 3.209.242.257.711.613.852.953.142.342-1.484-.922-1.587-.987-10.054-6.323-20.554-11.953-30.453-18.518-4.875-3.233-9.527-7.194-14.977-9.448-.333-.138.213.717.464.976 6.654 6.875 14.349 12.578 21.721 18.634 5.664 4.655 11.424 9.467 15.639 15.532 1.506 2.166 2.622 4.539 4.017 6.75.729 1.155-1.652-.918-1.814-1.03-9.657-6.701-19.706-12.818-29.384-19.49-4.382-3.021-8.668-6.27-12.461-10.02-.878-.867-1.694-1.953-2.713-2.667-.132-.092.231.224.342.341 1.533 1.605 3.016 3.255 4.573 4.837 8.28 8.413 17.139 16.16 26.177 23.739 4.078 3.42 8.441 6.747 12.157 10.575.398.409.718.869 1.095 1.293.404.456-.988-.715-1.476-1.08-8.395-6.269-16.601-12.671-24.682-19.344-4.036-3.333-11.522-4.227-15.687-7.402-.435-.331-1.683-1.235-1.402-.09.786 3.195 6.413 3.67 8.028 6.464 3.764 6.512 8.036 12.712 12.368 18.853 3.749 5.313 7.529 10.687 11.748 15.643.155.181 1.707 1.689.778 1.413-2.751-.819-5.272-2.572-7.676-4.081-5.227-3.279-10.279-6.849-15.334-10.388-1.587-1.111-3.156-2.429-4.943-3.213-1.018-.447 1.311 2.83 1.347 2.881 6.342 9.055 15.1 16.011 22.475 24.154 1.773 1.958-2.43-.074-2.919-.269-4.514-1.803-8.764-3.959-13.144-6.034-2.166-1.026-4.366-2.015-6.341-3.386-.76-.527-1.464-1.116-2.201-1.672-.255-.193-.965-.293-.781-.555.135-.194 3.951 1.67 4.118 1.744a154.486 154.486 0 0 1 15.302 7.823c1.155.675 4.43 3 3.323 2.25-4.356-2.952-8.512-6.191-12.776-9.271-2.628-1.899-5.284-3.801-8.067-5.471-.833-.5-1.658-1.197-2.584-1.522-.973-.342.458.106.732.171 6.064 1.452 12.084 3.165 17.898 5.433 6.07 2.368 12.071 4.954 18.115 7.391.955.384 1.891.908 2.888 1.177.071.019.309.128.27.08-.204-.245-.523-.383-.789-.544-1.621-.981-3.13-2.138-4.731-3.15-7.058-4.465-14.589-8.203-21.958-12.12-6.028-3.204-11.979-6.271-17.128-10.838-2.336-2.072-4.33-4.438-6.453-6.712-.507-.543-.078.15.238.368 4.2 2.894 9.123 4.996 13.704 7.193 5.534 2.653 11.039 5.303 16.5 8.104a230.166 230.166 0 0 0 10.862 5.242c2.984 1.339 6.427 2.188 9.657 2.701.757.12-.634-.8-.697-.853-7.098-5.934-14.454-11.623-22.14-16.774-6.373-4.269-12.963-8.258-19.476-12.311-1.898-1.181-3.779-2.378-5.561-3.724-.707-.533.624.291.738.362 1.6.999 3.31 1.82 4.924 2.797 4.65 2.816 9.084 5.974 13.645 8.927 12.288 7.953 25.251 14.884 38.033 22.004.623.347 1.227.809 1.9 1.051.368.132.746.091 1.127.293.48.254.996.438 1.471.689 2.14 1.132-3.646-3.193-5.579-4.651-9.071-6.843-18.949-12.456-28.666-18.313-3.45-2.079-6.89-4.175-10.346-6.244-1.401-.839-2.846-1.619-4.174-2.574-.455-.326-2-1.438-.38-.708 8.226 3.708 16.586 6.94 24.955 10.297 4.864 1.951 9.335 4.513 13.94 6.978 3.197 1.712 6.446 3.127 9.766 4.56 2.121.915-1.503-1.556-1.734-1.718-9.794-6.858-19.924-13.213-29.592-20.256-7.142-5.202-14.301-10.612-20.601-16.835a78.682 78.682 0 0 1-2.521-2.61c-.535-.579.249-.1.478.025 7.143 3.885 14.456 7.499 21.783 11.02 8.434 4.054 16.933 8.088 25.593 11.643a242.156 242.156 0 0 0 10.125 3.904c.504.181 1.613.901 2.166.803.137-.024.224-.03.063-.157-1.807-1.421-4.254-2.282-6.304-3.228-12.454-5.749-24.984-11.314-36.479-18.877-5.018-3.302-9.478-7.253-14.325-10.767-.594-.43-1.198-.837-1.74-1.334-.396-.365.947.514 1.415.78 10.179 5.797 20.666 10.954 31.389 15.663 8.044 3.532 16.11 6.989 23.917 11.027 2.041 1.056 4.231 2.132 6.052 3.555.237.186.969.711.709.559-1.542-.905-3.235-1.582-4.852-2.335-4.852-2.26-9.689-4.564-14.38-7.147-.227-.126-3.125-1.696-3.066-1.465.179.696.789 1.308 1.266 1.8 2.369 2.45 5.105 4.615 7.843 6.631 2.633 1.94 5.414 3.668 8.232 5.323 1.303.765 2.632 1.572 4.041 2.132.147.058 1.399.392 1.149.417-.386.039-.784-.089-1.158-.16-1.664-.315-3.322-.622-4.973-1.001-3.246-.747-6.513-1.45-9.748-2.238-.052-.013-1.102-.383-.805-.013.678.843 1.778 1.444 2.642 2.059 2.95 2.101 5.875 4.328 8.445 6.89.211.209 2.525 2.611 1.83 2.567-3.117-.194-6.201-1.743-8.977-3.03-2.322-1.076-4.373-2.587-6.637-3.717-7.51-3.749 8.618 5.554 15.928 9.681.165.093 3.125 1.833 2.068 2.006-2.318.38-4.953-.653-7.067-1.507-3.228-1.305-.154-.237-3.505-1.168-3.822-1.063-7.513-2.435-11.293-3.607-.165-.051-.71-.208-.442.187.797 1.175 2.259 2.179 3.295 3.121 3.522 3.206 7.274 6.12 10.918 9.18.111.093 2.685 2.184 2.54 2.305-.786.654-4.03-.815-4.673-1.008-3.023-.91-6-1.989-9.064-2.751-1.121-.279-1.396-.268-1.06.916.432 1.524 1.172 3.012 1.816 4.457.073.164.465.68.366.884-.189.391-2.103.267-2.333.266-3.823-.026-7.439-1.183-10.887-2.749-.576-.261-1.267-.53-1.791-.897-1.084-.759 2.268 1.369 3.413 2.034 3.885 2.253 7.867 4.338 11.756 6.588.131.076 2.313 1.379 2.314 1.178.007-1.393-.495-2.993-.758-4.352-1.157-5.975-7.366-9.038-12.096-11.926-6.277-3.832-12.764-7.524-18.501-12.164-2.077-1.68-3.56-3.575-5.111-5.718-.402-.555-6.323-7.349-6.796-6.897-.18.172.127 1.279.147 1.451.181 1.572.298 3.144.547 4.708.322 2.022.398 4.609 1.367 6.46.167.319.447.59-.134.48-2.814-.536-5.568-2.365-7.969-3.828-2.385-1.455-4.067-2.904-4.572-5.768-.08-.454-.138-.712.46-.6.974.181 1.918.739 2.85 1.065 1.386.486 2.797.905 4.195 1.357.994.322 2.225.999 3.248 1.151.087.013-.108-.137-.171-.198-.581-.56-1.184-1.094-1.761-1.659-1.648-1.614-3.229-3.303-4.792-4.999a84.597 84.597 0 0 1-3.665-4.286c-.287-.356 4.082-.064 4.467-.004 2.014.317 4.2.543 6.139 1.206.045.015.814.324.495.013-1.106-1.075-2.299-2.069-3.416-3.135-2.673-2.553-5.297-5.138-7.598-8.033-.522-.658-1.635-1.486-.228-.981.775.278 10.308 2.497 10.427 1.89.104-.534-.636-1.491-.867-1.862-1.146-1.842-2.431-3.592-3.567-5.443-.789-1.286-1.543-2.577-2.114-3.976-.05-.122-.573-1.102-.45-1.26.425-.551 6.609 3.168 7.069 3.43 3.852 2.197 7.714 4.376 11.659 6.405.504.259 2.051 1.278 1.474.187-2.242-4.238-5.292-8.049-8.004-11.991-.846-1.23-1.519-2.857-2.52-3.95-.254-.278 1.429 1.266 1.698 1.46 5.344 3.859 10.506 7.923 16.15 11.347.266.162.615.51.924.585.647.157-.871-1.006-1.329-1.489-3.092-3.252-6.426-6.406-8.767-10.27-.749-1.234-1.327-2.247-1.571-3.634"/><path stroke="#FFD424" stroke-linecap="round" stroke-width="3" d="M121.745 159.559c2.549 1.486 6.878 3.727 9.922 3.699.025-.001-1.771-.961-2.23-1.197-2.078-1.071-4.052-2.335-6.162-3.343-.474-.227-1.732-1.016-2.305-.915-.46.081 1.887 3.001 2.02 3.144 1.854 2.016 4.653 4.397 7.476 4.719 1.05.12 1.893-.074 2.946-.108 1.071-.035 2.846.774 1.065-.849-.763-.695-1.69-1.193-2.501-1.827-.256-.2-2.15-1.612-1.258-1.458 4.32.746 8.738 3.534 13.278 2.571 2.267-.481-2.085-7.937-2.616-8.862-.24-.417-1.778-2.087-1.748-2.514.009-.129 4.534 2.653 4.863 2.858 1.133.705 5.489 3.782 4.958.769-.469-2.658-1.479-5.68-1.479-8.385 0-.413 6.937 1.773 7.864 1.954 1.928.376-2.63-4.484-2.823-4.771-.221-.328 1.906.497 2.105.593.973.469 2.303 1.664 2.054-.202-.549-4.105-2.114-8.041-3.377-11.961-1.133-3.513-1.879-7.005-2.518-10.63"/><path stroke="#FFD424" stroke-linecap="round" stroke-width="3" d="M131.761 139.79c4.293 1.541 7.771 5.167 11.458 7.749.768.538 1.081.88-.022.379-3.541-1.604-6.874-3.831-10.023-6.091-2.392-1.718-4.754-3.65-6.698-5.875-.71-.812-1.32-1.652-2.159-2.316-3.582-2.836 7.869 4.653 11.664 7.196.315.21 1.882 1.376 2.354 1.192.539-.21-2.384-4.483-2.546-4.713-1.698-2.42-3.782-4.532-5.539-6.9-.171-.23-1.435-2.041-1.028-1.98 1.894.281 3.829 1.943 5.524 2.759 1.794.864 4.105 1.916 6.144 2.024 3.729.199-.572-8.423-1.112-9.949"/><path stroke="#FFD424" stroke-linecap="round" stroke-width="3" d="M107.184 139.352c1.491-.194 2.933.181 4.365.585 3.599 1.015 7.188 2.205 10.736 3.389 4.104 1.369 8.55 2.924 12.427 4.872 8.754 4.397-17.222-9.434-26.301-13.111-3.368-1.364-6.767-2.935-10.236-4.01-3.958-1.227 7.928 2.409 11.879 3.659 6.772 2.143 13.669 4.699 20.632 6.165.828.174 1.753.22 2.546.54.937.379-1.903-.69-2.828-1.099-5.178-2.291-20.47-9.636-15.169-7.646 4.452 1.672 8.829 3.383 13.407 4.729.999.294 2.124.676 3.181.688.361.004-2.377-1.863-2.488-1.936-7.598-5.05-15.352-9.902-22.081-16.108-2.691-2.483-4.771-5.81-7.578-8.102-2.222-1.814 5.181 2.466 7.73 3.782 5.745 2.966 11.734 5.714 17.704 8.204 1.328.554 2.691.925 4.059 1.354.772.242.724-.005.09-.442-5.549-3.823-11.648-6.902-17.278-10.623-2.923-1.931-5.729-4.178-8.775-5.911-1.611-.917 2.329.894 2.384.919 8.302 3.708 16.596 7.518 24.967 11.063 3.787 1.604 7.629 3.614 11.545 4.875.099.032 1.204.525.588.14-1.712-1.069-3.508-2.004-5.263-2.999-5.401-3.062-10.861-6.031-16.18-9.233-2.792-1.681-5.779-3.474-8.784-4.753-.588-.251-.484-.303.139-.162 2.63.595 5.208 1.735 7.751 2.606a422.09 422.09 0 0 0 22.167 6.93c.297.083 5.513 1.514 5.476 2.048-.049.69-10.244-2.769-10.883-3.013-3.2-1.221-6.407-2.437-9.577-3.73-6.239-2.546 23.714 12.771 17.599 9.942-5.373-2.485-10.512-5.952-15.431-9.213-3.135-2.079-7.164-4.556-9.318-7.78-1.48-2.215 6.825-.558 7.363-.461 6.267 1.135 12.565 2.142 18.961 2.045 4.303-.065-.108-3.87-1.552-5.175-3.877-3.507-8.146-6.572-11.767-10.362-.338-.355-3.774-3.96-2.099-3.36 4.361 1.566 8.317 4.663 12.874 5.677.371.082 1.076.294.473-.342-1.512-1.596-3.503-2.87-5.221-4.225-1.216-.96-2.571-1.81-3.752-2.809-.18-.151-1.225-.794-.897-.511 2.404 2.068 5.754 3.281 8.549 4.718 1.002.515 2.03.976 3.033 1.49.407.208.811.542.028.07-4.102-2.47-8.411-4.641-12.243-7.537-.682-.515-1.41-1.01-2.07-1.553-.812-.667 1.824 1.042 2.74 1.557 3.859 2.169 7.719 4.344 11.3 6.851 2.003 1.403-7.276-6.278-6.033-4.172.694 1.175 2.028 2.11 3.013 3.015a486.848 486.848 0 0 0 5.792 5.22c2.501 2.226 5.253 4.472 7.264 7.182.832 1.122 1.324 2.264 1.884 3.519.247.554.753 1.499-.042.799-1.274-1.12-2.644-2.267-4.065-3.195-.223-.146-1.505-1.011-.59-.414 2.489 1.627 4.731 4.723 6.278 7.205 1.453 2.33 2.668 4.855 3.766 7.373.817 1.871-.385.555-1.13-.197-1.397-1.407-2.753-2.936-4.389-4.082-2.59-1.814 4.055 4.873 5.786 7.52.378.577-1.232-.624-1.818-.989-1.631-1.015-3.301-1.962-4.949-2.948-.943-.563-1.909-1.373-2.967-1.714-.385-.125 1.864 1.575 2.107 1.759 2.834 2.144 5.695 4.211 8.421 6.492 1.353 1.133 1.152 1.673-.346.456-.937-.761-2.181-1.713-2.885-2.718-.895-1.279 2.34 2.07 3.451 3.167.536.529 1.767 2.033.236.993-.941-.639-1.957-1.405-3.171-1.237-2.345.325.18 4.879.913 5.867.669.902-.712.524-1.303.382a36.274 36.274 0 0 1-3.21-.941c-.423-.145-1.553-.819-1.245-.496 1.944 2.035 9.417 6.168 7.082 4.596-2.063-1.389-4.568-1.971-6.651-3.363-1.899-1.269-.083-.111 1.028.306.35.131 2.787 1.624 1.655.408-1.87-2.009-3.913-3.852-5.783-5.86-.134-.145-1.784-1.703-1.38-1.614 2.66.589 5.545 2.769 7.93 4.051.236.127 3.54 1.902 2.177 1.473-1.892-.594-4.087-1.494-5.752-2.578-.292-.19-1.95-1.27-2.313-.688-.423.677 1.123 3.128 1.42 3.738.386.793 1.535 2.152.361 2.737-1.948.971-4.645.419-6.631-.14-1.757-.494-.685.262.221.905 2.093 1.486 4.022 3.171 6.067 4.714 1.151.869-3.928-.805-4.371-.964-1.984-.714-4.609-1.289-6.329-2.568-1.694-1.26 4.162.753 6.199 1.312 1.771.486 7.044 2.09 5.293 1.533-4.28-1.362-8.5-2.949-12.726-4.408-.8-.277.52 1.787.628 2.096 1.147 3.284.37 6.141-2.301 8.443-3.783 3.261-9.384 4.258-14.191 4.984-2.486.375-5.225.371-7.616-.545-1.917-.735.865-.072 1.473.151 1.371.504 2.784 1.505 4.177 1.851 1.078.268-1.046-1.297-1.228-1.442-.356-.284-3.45-2.484-2.372-2.398 2.744.217 5.304 1.354 7.919 2.089 2.617.737-.751-.27-1.596-.677-1.238-.597-2.356-1.399-3.583-2.017-.088-.045-1.621-.843-1.188-.871 1.373-.088 3.175.728 4.459 1.116 1.955.593 3.858 1.347 5.778 2.041.482.174 4.65 1.574 2.232 1.174-11.817-1.953-23.513-5.876-35.021-9.123-4.998-1.409-4.686-1.738-9.717-3.014-.395-.1-.644-.069-.163.196 1.201.663-2.959.337-1.835 1.124 2.496 1.748 4.78 3.788 7.26 5.524.32.224 2.265 1.336 2.228 1.236-.264-.714-1.317-1.256-1.845-1.745-.795-.735-1.386-1.631-2.13-2.41-2.034-2.129 1.144-.065 2.193.436 2.834 1.354 5.715 2.493 8.633 3.638.477.187.702.242.391-.374-.988-1.95-2.459-3.741-3.754-5.487-3.115-4.2-6.277-8.062-8.627-12.757-.26-.519-1.357-2.596-.263-1.75 1.692 1.309 3.677 2.326 5.642 3.161 1.651.702.355-1.014-.157-1.754a38.423 38.423 0 0 0-2.615-3.344c-.455-.523-1.43-1.188-1.654-1.87-.165-.505 3.73 1.286 4.182 1.531.254.137 2.219.903 2.146.687-.506-1.492-2.497-3.19-3.565-4.334-1.12-1.2.341-.566 1.161-.235.779.315 2.828.965 3.295 1.596"/><path stroke="#FFD424" stroke-linecap="round" stroke-width="3" d="M114.861 152.329c2.893-.243 6.196.926 8.92 1.793.227.072 2.143.448 1.605.349-1.782-.328-3.525-1.076-5.211-1.712-2.965-1.119-5.873-2.341-8.781-3.589-.088-.038-.671-.288-.451.029.255.365.737.618 1.088.858 1.295.886 2.552 1.823 3.864 2.684 2.179 1.431 4.36 2.897 6.593 4.241.972.584 1.983 1.059 2.743 1.92 1.372 1.554-4.826-.269-5.129-.386-5.973-2.309-11.72-5.246-17.456-8.082-.343-.169-3.368-1.722-1.681-.564 3.059 2.101 5.934 4.55 9.091 6.495.494.304 1.058.59 1.529.92.524.367-1.1-.664-1.604-1.059-3.453-2.702-6.439-6.046-10.283-8.233-1.393-.792-3.506-2.143-5.206-2.182-.506-.011.71.723 1.086 1.061 1.088.981 2.173 1.929 3.343 2.814 1.898 1.438 7.615 5.72 5.664 4.354-1.507-1.055-3.165-1.87-4.686-2.894-.102-.069-.813-.506-.374-.111 1.764 1.583 3.947 2.967 5.964 4.187 3.658 2.21 7.611 3.694 11.412 5.592 1.493.745 1.308.432-.04-.297-1.004-.543-4.279-1.42-3.139-1.37 1.006.045 1.977.478 2.947.708 1.563.37 3.204.45 4.791.193.719-.117 1.473-.105 1.084-1.027-.593-1.409-1.741-2.443-2.899-3.385-.673-.548-1.394-1.069-1.995-1.698-.53-.555 1.349.451 1.385.464 3.144 1.129 6.336 2.177 9.612 2.847 1.934.396 4.711 1.229 6.651.409 1.895-.8-.71-3.925-1.312-4.716-4.231-5.558-8.943-10.721-13.005-16.42-5.443-7.636-8.861-15.71-10.076-24.996-.429-3.282-.666-7.966 1.32-10.886 2.36-3.472 6.255-4.553 10.19-5.213 2.948-.495 5.855-.343 8.825-.468 1.146-.049 4.246.177 4.507-1.491.285-1.825-1.159-3.656-2.389-4.792-2.475-2.287-5.5-4.045-8.351-5.815a277.233 277.233 0 0 1-4.53-2.87c-1.447-.939-.399.856-.029 1.409 2.093 3.133 5.092 5.621 7.65 8.368.533.573.73.763-.207.264-2.374-1.262-4.725-2.421-6.722-4.255-.947-.87-3.423-3.828-2.657-2.796 1.165 1.57 2.845 2.658 4.182 4.058.012.013-6.721-5.088-7.064-4.258-.298.72 5.011 4.754 5.613 5.286.212.186 2.653 2.916 2.515 2.922-1.441.065-3.618-1.242-4.892-1.77-1.972-.815-3.896-1.738-5.867-2.558-.174-.073-1.926-1.013-1.244-.312 1.526 1.57 3.424 2.844 5.193 4.12.27.196 6.02 4.664 6.108 4.579.174-.166-.346-.333-.539-.475a29.775 29.775 0 0 1-1.992-1.61c-1.839-1.618-3.616-3.294-5.265-5.106-.932-1.024-1.867-2.04-2.638-3.192-.251-.375-.564-.936-.913-1.23-1.808-1.528 3.471 3.222 5.279 4.75a91.62 91.62 0 0 0 2.539 2.057c.202.159-1.451-.227-1.593-.276-1.281-.44-3.778-1.262-4.692-2.36-.348-.42-2.467-.156-2.981-.184-.844-.046-2-.466-1.202.718 1.286 1.91 3.089 3.912 4.934 5.305.662.5-.059 0-.326-.272-1.143-1.16-2.38-2.197-3.612-3.26-1.046-.903-2.019-1.78-3.174-2.502-.456-.285-1.13-.367-1.527-.693-1.142-.938 1.846 2.315 2.873 3.378 1.439 1.488 2.832 3.04 4.395 4.4.599.522 1.474 1.669 2.186 1.993 1.745.796-3.404-1.767-5.137-2.586-.373-.176-5.255-1.94-5.101-1.441.266.862 1.394 1.727 1.985 2.358 1.028 1.095 2.102 2.15 3.063 3.306.657.79 1.682 1.717 1.868 2.77.226 1.286-.144 2.635-.334 3.918-.218 1.466-.219 1.95-1.655 1.165-2.584-1.412-4.927-3.4-7.659-4.545-.54-.227.455 1.098.83 1.549 2.275 2.741 4.866 5.258 7.36 7.799a150.022 150.022 0 0 0 4.526 4.428c.283.265.728.821 1.097.983 1.229.539-2.207-1.533-3.253-2.375"/><path stroke="#171717" stroke-width="2.5" d="M166.035 121.563c3.843 21.796-10.137 42.479-31.225 46.197-21.088 3.719-41.298-10.936-45.142-32.731-3.843-21.796 8.212-53.395 29.3-57.113 21.088-3.719 43.224 21.852 47.067 43.647Z"/><path stroke="#171717" stroke-linecap="round" stroke-width="1.5" d="M87.685 130.111c-.33-1.872-.52-3.536.307-5.336.355-.772.487-1.955.658-2.805.2-.992.54-1.961.828-2.931a76.923 76.923 0 0 0 1.693-6.732c.41-2.037.706-4.173 1.513-6.124 1.583-3.829 2.817-7.85 5.152-11.323 1.068-1.587 2.272-3.011 3.374-4.585.854-1.22 1.685-2.436 2.682-3.546 1.2-1.334 2.671-2.413 3.862-3.754 1.519-1.708 3.222-2.98 5.317-3.914 1.835-.818 4.312-.857 6.296-1.206 1.91-.337 3.728-.71 5.68-.522 2.168.21 3.633.993 5.538 2 3.106 1.643 6.242 3.306 9.143 5.26 1.447.974 3.051 1.82 4.517 2.746.693.437 1.291.992 2.048 1.325.531.232 1.734.636.43.5M147.281 87.664c.203 1.15 1.987 2.44 2.706 3.364.835 1.072 1.845 2.064 2.535 3.245 1.215 2.077 2.99 3.834 4.342 5.807 1.324 1.929 2.615 3.865 3.65 5.993.566 1.164 1.168 2.247 1.582 3.466.323.951.587 2.055 1.042 2.942a23.417 23.417 0 0 1 2.122 6.348c.374 2.123 1.135 4.259 1.513 6.402.172.976.592 2.176.548 3.168-.03.681-.489 1.527-.374 2.179"/><path stroke="#171717" stroke-linecap="round" stroke-width="1.5" d="M166.932 128.318c.708 4.011-.265 7.578-1.447 11.394-1.371 4.424-2.247 8.954-5.658 12.329-1.343 1.329-2.502 2.849-3.879 4.141-.548.514-1.29 1.324-1.718 1.935-.484.691-1.187 1.112-1.709 1.742-.531.641-1.622 1.092-2.318 1.561-.704.474-1.488.791-2.231 1.205-1.476.821-2.95 1.509-4.453 2.278"/><path stroke="#171717" stroke-linecap="round" stroke-width="1.5" d="m144.359 164.756-2.567.452c-.837.148-2.219.384-2.972.813-1.474.839-3.427.828-4.948 1.587-1.077.537-2.627.805-3.812 1.013-.962.17-1.867.377-2.837.309-1.04-.074-2.006-.354-2.988-.669-.879-.281-1.892-.571-2.745-.924-1.747-.723-3.804-1.068-5.679-1.346-.896-.133-2.188-.524-3.031-.853-1.171-.455-2.328-.779-3.449-1.408-1.914-1.074-3.989-2.778-5.323-4.535-1.012-1.332-2.463-2.196-3.577-3.402-.231-.25-1.776-1.416-1.693-1.43"/><path stroke="#171717" stroke-linecap="round" stroke-width="1.5" d="M99.909 155.556c-.703-.618-1.248-1.798-1.838-2.557-.912-1.174-2.066-2.262-3.043-3.4-.938-1.092-1.99-2.268-2.74-3.497-.773-1.268-1.3-2.944-1.822-4.342-.874-2.34-1.318-4.589-1.73-7.089-.371-2.257-.34-4.616-.63-6.899-.38-3.004-.19-6.217.293-9.174"/></g><defs><filter id="a" width="109.709" height="122.795" x="72.959" y="65.547" color-interpolation-filters="sRGB" filterUnits="userSpaceOnUse"><feFlood flood-opacity="0" result="BackgroundImageFix"/><feColorMatrix in="SourceAlpha" result="hardAlpha" values="0 0 0 0 0 0 0 0 0 0 0 0 0 0 0 0 0 0 127 0"/><feOffset dy="2"/><feGaussianBlur stdDeviation="1"/><feComposite in2="hardAlpha" operator="out"/><feColorMatrix values="0 0 0 0 0 0 0 0 0 0 0 0 0 0 0 0 0 0 0.02 0"/><feBlend in2="BackgroundImageFix" result="effect1_dropShadow_998_2659"/><feColorMatrix in="SourceAlpha" result="hardAlpha" values="0 0 0 0 0 0 0 0 0 0 0 0 0 0 0 0 0 0 127 0"/><feOffset dy="4"/><feGaussianBlur stdDeviation="4"/><feComposite in2="hardAlpha" operator="out"/><feColorMatrix values="0 0 0 0 0 0 0 0 0 0 0 0 0 0 0 0 0 0 0.06 0"/><feBlend in2="effect1_dropShadow_998_2659" result="effect2_dropShadow_998_2659"/><feBlend in="SourceGraphic" in2="effect2_dropShadow_998_2659" result="shape"/></filter></defs></svg>