<svg xmlns="http://www.w3.org/2000/svg" width="402" height="253" fill="none"><path stroke="#C6C6C8" stroke-linecap="round" stroke-width="2" d="M252.06 106.294c4.448 0 8.675-1.278 13.075-1.767 4.76-.529 9.624-.945 14.33-1.865 6.994-1.369 14.023-2.772 21.066-3.946 14.649-2.441 29.013-5.747 43.352-9.658 13.391-3.652 27.292-6.53 39.786-12.778 3.085-1.542 5.865-3.648 8.651-5.646 1.104-.79 3.476-2.926 3.566-4.457.083-1.41.412-.976-.446-.594-1.194.53-2.434 1.703-3.599 2.393-5.783 3.427-11.843 6.322-18.011 8.965-6.778 2.904-13.559 5.127-20.719 6.917-10.622 2.655-20.997 5.713-31.878 7.28-2.631.38-5.309.449-7.958.66-2.89.232-5.728.892-8.617 1.123-5.898.472-11.582 2.607-17.236 4.177-2.932.815-5.78 1.68-8.749 2.36-2.521.579-5.069.898-7.528 1.718-4.098 1.366-8.207 3.123-12.184 4.82-2.502 1.068-5.391 1.764-8.089 2.064-.783.087-2.641-.287-1.024-.875 4.073-1.481 8.332-2.788 12.547-3.797 1.979-.473 4.023-.861 5.976-1.403 1.276-.355-1.136-.149-1.453-.149-3.655 0-7.301-.131-10.813 1.04-1.111.371-2.051.446-3.219.446-.439 0 1.727-.333 2.179-.446 2.828-.707 11.599-1.04 8.684-1.04-3.267 0-6.491 1.189-9.724 1.189-.633 0 2.063-.416 2.377-.479 3.428-.685 6.9-1.386 10.285-2.262 7.75-2.005 15.385-4.426 23.179-6.24a91.759 91.759 0 0 1 6.042-1.189c.333-.054 2.199-.23.974-.23-4.718 0-8.8.52-13.306 2.08-1.823.63-3.685 1.228-5.481 1.93-.39.153-1.505.705-.413.744 4.425.158 8.902.048 13.306-.363 4.199-.393 8.207-2.195 12.316-3.055 4.079-.853 8.133-1.595 12.217-2.377 6.89-1.32 13.673-2.636 20.405-4.672 8.517-2.576 17.019-4.937 25.654-7.066 1.963-.484 4.038-1.135 6.076-1.188.926-.025.795.094-.017.297-3.21.802-6.562.496-9.823 1.04-6.148 1.025-12.389 1.477-18.523 2.592-5.863 1.066-11.516 2.832-17.334 4.094-3.977.862-7.903 1.74-11.82 2.823-1.007.278-10.5 2.174-10.5 3.269 0 .495 15.405-1.013 16.905-1.04.264-.005 2.384-.01 1.123.23-1.336.255-2.883.364-4.243.364-3.694 0-7.575 1.935-11.127 2.823-5.18 1.295-10.49 3.103-15.403 5.2-1.123.48-2.49 1.189-3.747 1.189-.655 0 1.309.01 1.964 0 9.567-.152 18.763-4.456 27.999-6.389 10.48-2.193 21.072-4 31.433-6.686 6.031-1.564 11.701-3.042 17.467-5.498 4.958-2.112 9.963-4.076 14.841-6.372.623-.293 1.793-.875 2.509-.875.759 0-1.502.264-2.261.264-2.145 0-8.548.509-6.406.594 3.142.126 6.096-.118 9.146-.891 1.78-.451 3.133-1.54 4.755-2.08"/><path stroke="#C6C6C8" stroke-linecap="round" stroke-width="2" d="M250.435 167.19c0-4.063-.487-8.475.303-12.471.838-4.241 1.534-8.51 2.269-12.773 1.547-8.974 3.973-18.58 2.806-27.766-.296-2.339-.867-4.633-1.512-6.891-.251-.88-.681-2.179-1.143-2.958-.339-.573-.936-.724-1.193-1.11-.361-.54-.072 1.304 0 1.95.18 1.628.473 3.266.655 4.908.271 2.44.772 4.91.84 7.361.031 1.108.303 3.197.303.858 0-2.104-.345-4.262-.756-6.32-.365-1.823-.258-4.003-1.362-5.58-.122-.175-2.069-2.964-2.117-2.135-.089 1.513.555 2.587 1.21 3.933 1.561 3.209 2.678 7.189 3.025 10.74.384 3.936 1.204 7.86 1.496 11.799.219 2.965.017 6.02.017 8.992 0 8.211-.453 15.955-2.723 23.9-.515 1.803-1.174 3.489-1.815 5.244-.315.861-.605 1.723-.605.37 0-5.428.023-10.744 1.21-16.085 1.117-5.029 1.815-10.322 1.815-15.479 0-8.418.548-17.023-.067-25.413-.086-1.165-.47-4.629-.538-3.463-.077 1.301 0 2.63 0 3.933 0 6.266 1.876 12.453 2.101 18.741.095 2.672.017 5.36.017 8.034 0 2.682-.516 5.019-.841 7.647-.881 7.134-4.369 13.114-7.614 19.413-2.958 5.743-5.535 11.911-9.227 17.227-.751 1.082-1.774 2.243-2.269 3.479-.321.803.756-1.557 1.194-2.302 1.686-2.873 3.998-5.325 5.748-8.169 1.816-2.952 3.143-6.033 4.235-9.311 1.096-3.287 2.159-6.581 3.093-9.916.366-1.31 1.445-3.054 1.445-4.421 0-3.08.191 6.22-.47 9.227-1.533 6.968-5.785 12.688-9.984 18.287-2.559 3.412-5.176 7.364-8.269 10.236-.599.556-2.154 5.02-2.454 4.42"/><path stroke="#C6C6C8" stroke-linecap="round" stroke-width="2" d="M242.078 179.862c.127-1.265 1.325-2.507 1.889-3.609 1.354-2.647 2.8-5.243 4.154-7.89 2.5-4.885 5.686-9.556 7.533-14.751 2.973-8.362 5.588-16.863 8.33-25.284 2.465-7.57 3.4-15.703 3.4-23.627v.608c0 2.318-.217 4.506-.567 6.799-1.365 8.948-4.189 17.578-6.421 26.334-.16.629-1.986 6.752-2.077 4.7-.355-7.996-.168-15.592 1.888-23.417.809-3.077 1.844-6.151 1.889-9.359 0-.026.004-2.498-.084-2.476-.689.172-.289 4.33-.294 4.826-.046 4.608-.829 9.22-1.511 13.765-.928 6.186-3.638 24.635-3.777 18.381-.162-7.323-.755-14.607-.755-21.948 0-4.211-.264-8.355-.378-12.548-.008-.304-.403-2.434-.377-1.259.07 3.157.716 6.36 1.133 9.485.465 3.487 1.562 13.891 1.867 10.386.353-4.061.434-8.169.965-12.212.246-1.867.189-3.744.189-5.623v-.714c0 5.098-.755 10.199-.755 15.339 0 .782.084 1.519-.021.21-.376-4.699-1.112-9.326-1.112-14.059 0-1.67-.521-4.313.189-5.875.33-.726.566-.576.566.189 0 3.761-.045 8.28 1.322 11.834.662 1.721 1.717-4.161 1.91-4.847.527-1.885 1.025-4.844 2.434-6.253.981-.981.755.964.755 1.511v6.421c0 .506-.373 2.915.084 3.315.195.171.294-3.253.294-3.525 0-.172-.094-5.666.084-5.666.279 0-.41 2.742-.462 2.938-.619 2.331-.784 4.703-1.049 7.092-.16 1.442.61 5.016-.378 6.127-.166.187-.499-2.36-.545-2.727-.235-1.874-.294-3.697-.294-5.582 0-1.577-.142-2.892.755-4.239"/><path stroke="#C6C6C8" stroke-linecap="round" stroke-width="2" d="M267.123 114.216c5.377 0 10.653.126 15.967-.886 11.024-2.1 22.376-5.229 33.084-8.594 14.399-4.526 28.34-10.727 42.636-15.609 5.615-1.917 11.919-4.638 16.877-7.9 2.155-1.418 4.61-2.725 6.487-4.5 1.024-.968 2.304-2.1 3.639-2.586 1.752-.637.126.079-.814.383-3.633 1.178-6.774 3.013-10.126 4.788-2.891 1.53-5.629 3.349-8.642 4.644-4.237 1.822-8.597 3.279-12.76 5.267-9.585 4.578-20.829 7.925-31.192 10.246-7.613 1.705-14.898 4.457-22.408 6.559-3.169.888-6.472 2.157-9.671 2.825-3.403.711-7.052.69-10.509 1.054-1.617.17-3.175.521-4.812.43-1.044-.058 3.187-1.203 3.519-1.292 4.213-1.135 8.87-1.114 13.214-1.269.379-.014 5.233.226 5.147.311-1.915 1.916-8.655.934-10.964.982-5.642.116-11.122 1.159-16.661 2.13-.193.034-4.417.606-3.472-.024 2.737-1.824 5.997-2.515 9.121-3.423 2.52-.732 5.399-1.293 8.044-1.293 1.071 0-4.719 1.203-5.458 1.293-2.058.252-7.203 1.872-9.193.766-.513-.285.763-.943 1.293-1.197 2.305-1.105 4.979-1.568 7.493-1.891 2.747-.353 10.846-1.272 8.307-.168-5.229 2.274-12.011 2.157-17.572 3.328-2.251.474-7.56 1.146-1.987.646 8.807-.79 17.649-1.069 26.453-1.915 1.766-.17 3.612-.218 5.362-.527 1.13-.199-2.276-.335-3.423-.335-4.99 0-9.995.431-14.962.431-4.611 0 9.005-1.992 13.502-3.016 6.834-1.556 14.057-4.155 21.066-4.716 11.964-.957-47.886 2.944-35.885 2.944 1.739 0 3.718-.601 5.411-.861a290.678 290.678 0 0 1 20.707-2.442c5.688-.462 22.799-.958 17.093-.958-7.724 0-15.574 1.902-23.269 2.586-2.013.178-4.315.163-6.272.766-2.289.704 4.753-.603 7.11-1.03 8.015-1.451 16.063-3.242 24.154-4.213 1.288-.155 2.581-.263 3.878-.263 1.294 0-2.528.546-3.782.861-3.46.872-14.053 2.155-10.485 2.155 6.079 0 12.571-2.73 18.433-4.118 3.668-.868 8.059-2.346 11.874-2.346 1.22 0-2.404.433-3.591.718-6.458 1.556-12.822 3.477-19.223 5.243-5.1 1.407-20.458 5.173-15.537 3.232 6.419-2.531 12.934-4.795 19.726-6.105.582-.112 8.015-.964 4.477.383-2.828 1.078-5.997 1.442-8.954 1.964-7.582 1.338-15.188 2.461-22.814 3.519-5.99.83-12.304 1.668-18.146 3.303-.825.231-2.43.169-.861-.718 2.928-1.655 6.754-1.197 9.982-1.197 2.464 0 3.346 1.39.551 2.25-4.48 1.379-9.195 1.952-13.741 3.089-1.858.464-1.961.532-3.543-.599M171.777 242.824c1.58 0 2.312-.303 3.648-1.193 1.721-1.148 3.882-1.538 5.731-2.437 3.261-1.587 5.968-3.992 9.311-5.446 5.889-2.56 12.454-5.697 17.026-10.269 6.182-6.182 12.675-11.985 18.303-18.791 6.656-8.049 12.751-15.968 17.85-25.11 2.107-3.778 4.367-7.481 6.185-11.413.696-1.505 1.815-2.895 1.815-4.605"/><path fill="#fff" stroke="#171717" stroke-width="2" d="M375.555 37.72c9.415-2.896 19.351 2.601 21.901 12.115 2.549 9.514-3.308 19.243-12.909 21.443l-162.689 37.275-5.834-21.77 159.531-49.064Z"/><circle cx="9.015" cy="9.015" r="9.015" stroke="#171717" stroke-width="2" transform="rotate(75 163.42 272.396)"/><ellipse cx="125.248" cy="127.079" fill="#fff" stroke="#171717" stroke-width="2" rx="123.959" ry="123.96"/><ellipse cx="125.249" cy="127.079" stroke="#171717" stroke-width="2" rx="101.421" ry="101.422"/><path stroke="#171717" stroke-linecap="round" stroke-width="2" d="M240.473 80.144c4.771 0 9.109-.5 13.735-1.552 1.332-.302 2.466-1.21 3.731-1.716 1.121-.449 2.13-.752 3.186-1.321 1.268-.683 2.796-.985 4.144-1.37 6.307-1.803 12.587-4.754 18.754-7.116 12.116-4.64 24.66-8.272 36.914-12.48 5.467-1.878 11.264-2.927 16.839-4.458 5.322-1.46 10.56-3.119 15.915-4.457 7.11-1.778 14.382-4.223 21.692-5.035 5.677-.631 12.392-1.243 17.351 2.063 4.536 3.024 3.748 9.398 3.748 14.165 0 3.82-.762 7.785-3.797 10.268-.758.62-2.624.443-3.566.595-1.415.228-3.039.784-4.392 1.27-1.955.705-3.766 1.834-5.827 2.246-3.696.74-7.407 2.402-11.012 3.483-4.326 1.298-8.885 2.215-13.025 4.078-2.722 1.225-6.266 2.04-9.196 2.592-3.317.626-6.57 1.684-9.938 2.245-3.842.64-7.749 1.352-11.606 1.85-3.617.466-7.036 1.577-10.615 2.145-3.543.563-7.135 2.133-10.615 3.055-3.375.893-6.467 2.073-9.972 2.525-4.421.571-8.761 1.622-13.223 2.015-4.906.43-9.684 1.307-14.561 1.849-4.028.447-8.356 1.84-12.25 2.971-1.657.481-3.877 1.783-5.58 1.783M26.372 105.525c0-2.403-.082-4.772.27-7.147.212-1.434 1.093-2.854 1.887-4.046.873-1.309 1.394-2.778 2.218-4.12 1.267-2.065 2.415-4.22 3.716-6.264 1.193-1.874 2.895-3.684 3.776-5.724.809-1.872 2.26-3.772 3.522-5.35 2.945-3.681 5.515-7.693 8.615-11.253a115.88 115.88 0 0 1 8.512-8.826c3.213-2.991 6.864-5.34 10.369-7.956 5.026-3.752 10.2-7.15 15.583-10.31 3.086-1.81 6.83-2.56 10.31-3.326 4.294-.945 8.506-1.953 12.886-2.487 7.758-.946 15.504-1.14 23.315-1.14"/><path stroke="#171717" stroke-linecap="round" stroke-width="2" d="M128.605 27.212c3.559 0 7.125-.066 10.683 0 2.964.055 5.906.83 8.806 1.332 1.422.246 2.823.78 4.203 1.203 2.144.655 4.18 1.555 6.304 2.23 3.748 1.189 6.996 3.763 10.602 5.308 1.953.838 3.747 2.069 5.526 3.216a129.084 129.084 0 0 0 5.157 3.168 63.148 63.148 0 0 1 8.629 6.032c1.223 1.015 2.652 1.801 3.77 2.919a189.653 189.653 0 0 1 4.234 4.363c2.588 2.758 6.405 4.193 8.446 7.458.315.506.635 1.001.721 1.604.02.136.153.714.153.29"/><path stroke="#171717" stroke-linecap="round" stroke-width="2" d="M205.117 65.757c.074.666 1.111 1.66 1.476 2.23.81 1.269 1.803 2.422 2.566 3.721 1.175 2 2.306 4.02 3.641 5.92 3.132 4.453 5.23 9.94 6.785 15.125.867 2.89 1.164 5.883 1.845 8.806.526 2.26.695 4.576 1.299 6.817.549 2.034 1.028 4.102 1.588 6.144.174.635.248 1.312.546 1.908.161.324.23.496.032 0"/><path stroke="#171717" stroke-linecap="round" stroke-width="2" d="M225.183 114.263c0 1.758-.083 3.541.216 5.277.336 1.946.264 3.99.73 5.919.506 2.096.622 4.311.898 6.448.27 2.089.177 4.214.177 6.32 0 2.452-.691 4.833-1.227 7.218-.586 2.603-1.197 5.259-2.022 7.795-.924 2.846-2.034 5.612-3.135 8.389-.862 2.172-1.851 4.236-2.503 6.489-.221.765-.395 1.563-.641 2.302M141.883 226.715c2.761 0 5.613.347 8.213-.598 1.687-.614 3.473-1.4 5.254-1.796 1.62-.36 3.701-1.539 5.254-2.244 1.263-.575 2.976-.533 4.173-1.198 1.934-1.074 4.139-1.818 6.135-2.843 2.343-1.203 4.615-2.45 6.817-3.89 1.265-.827 2.645-2.23 4.023-2.76 1.833-.705 4.214-2.193 5.62-3.525 1.302-1.234 2.938-2.069 4.34-3.159 1.697-1.32 2.957-2.941 4.472-4.456 1.721-1.721 3.78-3.793 5.104-5.852 1.258-1.957 3.161-3.495 4.473-5.404 2.324-3.38 4.546-6.892 7.349-9.859 2.251-2.384 3.89-4.989 3.89-8.38"/><path stroke="#171717" stroke-linecap="round" stroke-width="2" d="M63.473 209.057c1.53.153 3.47 2.472 4.655 3.442 1.215.994 2.664 1.762 4.023 2.477 1.652.869 3.6 1.146 5.238 2.029 1.703.917 3.484 1.92 5.304 2.593 1.564.58 3.054 1.481 4.588 2.178 1.526.694 3.36.955 4.922 1.58 1.952.781 4.514 1.349 6.567 1.862 1.96.49 3.918 1.2 5.853 1.796 3.962 1.219 7.97 1.795 12.103 1.795 3.935 0 7.97.3 11.838.3 3.738 0 7.524-.3 11.206-.3 3.145 0 6.098-2.095 9.294-2.095"/><path stroke="#171717" stroke-linecap="round" stroke-width="2" d="M64.369 209.358c-2.169-2.169-4.227-4.311-6.351-6.518-1.569-1.628-2.842-3.538-4.273-5.287-.559-.682-1.238-.808-1.713-1.662-.438-.79-1.52-1.33-2.095-2.095-3.314-4.42-6.947-8.387-8.845-13.7-.69-1.935-1.905-3.807-2.46-5.753-.396-1.386-.986-3.206-1.563-4.489-2.709-6.019-4.832-12.248-6.817-18.555-1.04-3.3-1.92-6.569-2.394-10.009-.377-2.732-1.418-5.497-1.497-8.247-.109-3.813-.299-7.699-.299-11.439 0-2.958-.3-5.916-.3-8.895 0-1.327-.279-3.049.3-4.206M1.746 115.794c0-4.789.96-9.806 3.128-14.144 1.903-3.805 3.875-8.138 4.82-12.3.426-1.874 1.405-3.662 2.116-5.44.87-2.177 1.497-4.594 2.72-6.605 1.199-1.969 1.897-4.322 2.932-6.392 1.294-2.587 2.337-5.3 3.869-7.767 2-3.223 3.622-6.909 6.12-9.777 2.245-2.578 4.27-5.292 6.664-7.752 1.285-1.321 2.249-2.99 3.536-4.352.85-.9 1.644-1.915 2.463-2.857.523-.601 1.574-1.99 2.297-2.312.954-.424 1.55-1.685 2.16-2.448.891-1.113 1.744-2.407 2.751-3.415 1.89-1.89 3.834-3.636 6.317-4.745"/><path stroke="#171717" stroke-linecap="round" stroke-width="2" d="M50.434 27.663c2.063 0 3.95-1.072 5.606-2.176 2.504-1.67 5.165-3.183 7.722-4.745 3.737-2.284 7.55-4.485 11.575-6.256 4.645-2.044 9.194-5.396 14.25-6.408 5.054-1.01 9.95-2.598 15.112-3.264 3.756-.484 7.45-1.228 11.227-1.571 2.567-.234 5.109-.471 7.677-.665 2.371-.18 4.773-.042 7.133-.272 7.288-.711 15.318-.657 22.183 2.176 3.554 1.467 7.192 2.685 10.729 4.2 3.698 1.586 7.336 3.483 10.881 5.38"/><path stroke="#171717" stroke-linecap="round" stroke-width="2" d="M166.035 9.165c1.543.172 2.637 1.764 4.08 2.176 1.685.482 3.333 1.917 4.896 2.72 4.984 2.563 10.482 4.29 15.293 7.133 11.025 6.515 21.318 14.609 29.649 24.42 2.303 2.713 4.682 5.36 6.724 8.296 2.151 3.092 3.492 6.494 5.455 9.657 3.082 4.965 4.755 11.03 6.589 16.532.434 1.302.926 2.764 1.285 4.02.266.933.998 2.17 1.103 3.112.156 1.407 1.303 2.804 1.617 4.216.167.756.487 1.624.831 2.312"/><path stroke="#171717" stroke-linecap="round" stroke-width="2" d="M241.926 89.136c0 5.133 2.74 10.053 4.775 14.704 2.5 5.713 2.919 12.336 3.717 18.421 1.087 8.283.782 17.305-.74 25.523-.361 1.947-.463 4.264-1.285 6.09-.83 1.845-1.737 3.625-2.644 5.44-1.623 3.246-2.673 6.28-3.551 9.792"/><path stroke="#171717" stroke-linecap="round" stroke-width="2" d="M110.527 250.624h17.067c4.679 0 8.74-.83 13.319-1.678 6.592-1.22 13.517-1.569 19.946-3.355 3.482-.967 6.747-2.244 10.045-3.728 3.42-1.539 6.992-2.617 10.17-4.661 5.704-3.666 12.068-6.821 17.067-11.557 1.815-1.719 4.123-3.148 6.131-4.64 4.117-3.058 8.296-6.637 11.537-10.625 1.895-2.333 3.789-4.651 5.448-7.188 1.866-2.854 4.418-5.29 6.172-8.161 4.341-7.103 8.743-13.665 12.096-21.209.981-2.207 1.573-4.759 2.237-7.084.608-2.127 2.61-4.203 2.61-6.338M5.392 100.749c0 4.566-1.909 8.442-2.589 12.862-.612 3.983-1.139 7.631-1.139 11.744 0 6.907 2.618 13.306 3.376 20.133.558 5.023 1.725 10.03 3.045 14.913.866 3.206 2.28 6.259 3.355 9.404 1.579 4.618 2.9 9.207 4.764 13.732 2.978 7.232 7.684 12.491 12.966 18.165 1.963 2.108 3.023 4.998 4.95 7.167.83.933 1.49 1.891 2.217 2.899.312.434 1.834.829.745.829"/><path stroke="#171717" stroke-linecap="round" stroke-width="2" d="M33.727 210.36c2.597 2.338 5.035 5.366 7.995 7.25 4.438 2.824 8.532 6.174 12.883 9.155 4.963 3.4 9.91 6.598 15.1 9.672 4.035 2.392 8.328 3.962 12.489 5.986 3.356 1.633 7.078 2.587 10.44 4.267 3.482 1.742 8.177 1.558 11.93 2.444 5.523 1.304 11.175 2.008 16.777 2.631 1.659.184 12.438.249 12.303-.021M374.64 45.927c-.419 0-.851-.032-1.267.01-.901.09-1.725.628-2.46 1.113-.611.402-1.189.919-1.707 1.437-.332.331-.746.642-.853 1.122-.53 2.386-.269 4.945-.269 7.385 0 1.15.222 2.173.583 3.258.347 1.04 1.296 1.671 2.241 2.16 1.532.793 2.954 1.665 4.67 2.061 1.724.398 3.215.171 4.72-.718 1.769-1.046 3.058-2.331 4.061-4.107.608-1.076.924-2.375 1.193-3.572.298-1.324.458-3.009-.045-4.301-.45-1.157-1.198-2.27-2.066-3.154-.892-.91-2.086-2.02-3.323-2.425-.656-.215-1.302-.467-1.975-.628-.694-.166-1.447-.09-2.156-.09-.538 0-1.178-.098-1.706.02-.288.064-.604.16-.898.16"/><path fill="#fff" stroke="#fff" stroke-width="8" d="M88.982 64.838c-4.876.677-8.587 1.993-11.223 4.49-2.661 2.52-3.64 5.706-4.278 8.6a104.488 104.488 0 0 0-.627 3.159c-.921 4.897-1.97 10.477-6.357 17.533-5.771 3.712-9.803 7.735-12.163 12.33-2.5 4.868-2.91 9.952-2.107 15.168.788 5.119 2.765 10.514 5.169 16.167 1.21 2.848 2.563 5.834 3.967 8.933l.048.106c1.395 3.081 2.849 6.288 4.31 9.672 17.175 39.786 73.203 26.317 72.486-12.357-.15-8.146.836-13.762 2.361-17.916 1.508-4.106 3.623-7.004 6.083-9.643 1.061-1.138 2.262-2.278 3.533-3.484 4.431-4.206 9.717-9.225 12.939-17.817 4.632-12.352-2.179-23.889-10.142-32.177-8.119-8.45-18.636-14.864-24.699-17.559-3.85-1.711-7.315-1.594-10.557-.244-2.711 1.13-5.22 3.133-7.473 4.932l-.403.322c-4.901 3.906-10.647 8.366-20.867 9.785Z"/><path stroke="#FFD424" stroke-linecap="round" stroke-width="2" d="M90.334 110.725c-.317.407 1.135 1.865 1.365 2.157.844 1.075 1.886 2.032 2.683 3.135 1.411 1.954-3.034-4.154-3.034-6.565 0-.334.537.325.544.332.697.66 1.404 1.304 2.066 2.001.6.632 1.206 1.259 1.807 1.89.128.135.724 1.006.304.387-1.12-1.651-2.209-3.388-3.052-5.2-.478-1.027-.459-.928.341-.221.634.56 1.581 1.624 2.416 1.881.195.06.018-.426-.074-.609-.492-.984-1.1-1.91-1.613-2.886-.223-.423-.565-.868-.729-1.318a83.35 83.35 0 0 1 1.07.774c1.402 1.07 3.018 2.618 4.665 3.292.46.188.116-.426.046-.553-.768-1.394-1.715-2.702-2.59-4.029-.525-.796-1.077-1.594-1.494-2.453-.432-.888 1.004.198 1.125.277a200.09 200.09 0 0 0 10.105 6.177c.437.249 1.373 1.221 1.328.719-.022-.243-.258-.414-.406-.608-.688-.902-1.408-1.782-2.121-2.665-1.062-1.317-2.167-2.598-3.236-3.909-.428-.526-1.004-1.157-1.254-1.807-.176-.459.862.472 1.282.728 1.68 1.025 3.37 2.033 5.071 3.024.901.525 1.798 1.06 2.729 1.531 1.031.521.219-.098-.212-.498-2.697-2.505-5.309-5.1-8.031-7.58-.142-.129-.547-.513-.369-.442 1.033.413 2.033.94 3.043 1.402 4.346 1.983 8.763 3.787 12.945 6.104.269.148 1.076.519.876.285-1.339-1.563-2.941-2.967-4.416-4.398-1.314-1.274-2.652-2.523-3.947-3.817-.696-.697-1.736-1.587-.009-.904 2.339.926 4.624 1.995 6.943 2.97.18.075 1.06.488.489-.084-1.64-1.64-3.579-3.037-5.394-4.471-1.234-.975-2.484-1.93-3.725-2.895-.188-.147-1.295-.893-.378-.628 1.818.527 3.572 1.333 5.338 2.01 1.768.678-1.444-.837-1.715-.968a58.278 58.278 0 0 0-5.827-2.443c-.969-.346 1.803.995 2.693 1.512.308.18.704.297.986.517.092.07-1.304-.32-1.392-.35-2.052-.739-4.115-1.495-6.307-1.679-1.136-.096-1.239.337-1.567 1.29-.86 2.501-3.367 3.874-4.638 6.086-.983 1.712-1.418 3.714-1.982 5.588-.45 1.492-.893 3.111-.922 4.684-.01.506-.175.795-.415.129-.364-1.009-.415-2.02-.415-3.08 0-1.784.793-2.909 1.77-4.389 1.626-2.463 3.392-5.153 5.744-6.989.166-.129 1.283-1.12.95-.332-.23.545-.602.987-.977 1.439-1.353 1.628-2.656 3.297-3.965 4.96a48.602 48.602 0 0 0-2.48 3.449c-.253.385-.726.896-.71 1.401.008.267.52-.173.719-.35a170.125 170.125 0 0 1 4.398-3.771c1.049-.87 2.103-1.736 3.2-2.545.111-.083 1.235-.705 1.235-.931 0-.292-.529.249-.775.405-1.166.743-2.354 1.496-3.42 2.38-.695.575-2.352 2.007-2.352 3.051 0 .318.454.085.563.028 1.488-.78 2.85-1.921 4.195-2.914 1.285-.949 2.57-1.902 3.836-2.877.533-.41 1.34-.905 1.715-1.493.126-.199-.467-.11-.701-.083-1.626.19-3.147.999-4.481 1.908-2.053 1.4-5.352 4.165-5.606 6.897-.15 1.61 4.188.659 4.979.553a21.572 21.572 0 0 0 4.426-1.051c.658-.236 1.863-.575 2.203-1.281.561-1.165-4.035-3.06-4.73-3.495a73.172 73.172 0 0 1-2.028-1.328c-.094-.063-.353-.24-.24-.24 2.077 0 4.375.656 6.418.996.997.167 1.982.39 2.978.563 1.031.178.471-.156-.12-.47-1.732-.92-3.558-1.611-5.237-2.637-.034-.021 2.364.562 2.84.682.997.252 2.013.425 3.005.7.284.08 1.289.593 1.595.47.478-.19-.908-.483-1.383-.681-1.734-.725-3.447-1.496-5.172-2.241-.874-.377-1.768-.732-2.619-1.162-.729-.368-.324-.368.249-.368 1.596 0 3.226-.096 4.795.248 1.666.366.051.08-.692-.083-1.001-.22-2.01-.438-3.024-.59-.492-.073-1.954-.093-1.475-.23 1.566-.448 3.904.543 5.403.913.588.145 1.216.203 1.789.405.108.039.395.188.331.093-.673-1.011-2.836-1.685-3.927-2.057-.367-.124-.842-.262-1.236-.175-.528.118.587 1.64.646 1.734 2.265 3.651 4.834 7.133 7.237 10.695.437.648 2.204 2.824.277 1.392-2.302-1.709-4.406-3.689-6.74-5.357-2.055-1.468 3.633 3.526 5.237 5.477.999 1.216 1.901 2.514 2.794 3.808.019.029 1.181 1.693.784 1.669-.928-.056-2.167-1.114-2.914-1.549-1.709-.995-3.428-1.973-5.126-2.987-.297-.177-1.032-.779-1.448-.683-.329.076.719 1.289.747 1.328 1.381 1.919 2.72 3.937 3.752 6.067.107.221.314.676-.165.443-1.662-.81-3.088-2.335-4.509-3.486-.15-.121-4.16-3.113-4.186-3.061-.189.378.552.64.848.941 1.545 1.57 3 3.163 4.343 4.914.877 1.144 1.769 2.288 2.572 3.485.045.067 1.127 1.72.701 1.522-1.445-.672-2.751-1.926-4.002-2.877-2.117-1.61-4.234-3.221-6.518-4.592-.097-.058-1.435-.838-1.3-.71.891.85 1.753 1.715 2.581 2.628a74.864 74.864 0 0 1 3.873 4.666c.729.949 1.695 1.973 2.194 3.079.197.437-.867-.43-1.235-.737-1.588-1.328-3.115-2.723-4.721-4.03-.562-.457-2.866-2.397-1.162-.654 1.465 1.498 2.898 3.03 4.039 4.794.085.133.76.951.516 1.162-.541.468-2.396-.455-2.877-.655-.883-.367-1.721-.834-2.609-1.189-.55-.22-.823-.247-.323.276.897.938 1.941 1.897 2.564 3.052.148.277-.568-.281-.812-.479-1.377-1.119-2.651-2.393-3.91-3.642-.157-.157-2.567-2.43-1.373-1.392.436.379 1.908 1.244 1.355 1.078-.752-.225-1.701-2.017-2.176-2.627-.4-.516-.25-.34-.027.055.448.796 1.14 1.373 1.78 2.019 2.216 2.245 4.562 4.202 7.062 6.104 1.053.802 1.83.83 3.116.83 1.69 0 3.876.365 5.486-.185 3.083-1.052 6.075-2.465 7.699-5.421.566-1.029 1.057-2.569 1.9-3.412.111-.11-.216 1.111-.277 1.254-1.789 4.175-6.175 7.363-10.05 9.479-.084.046-4.61 2.223-4.61 1.936 0-.089 1.11-.335 1.198-.369 1.613-.61 3.432-.652 5.118-.959 2.757-.501 5.659-.812 8.049-2.425 2.909-1.963 3.513-5.034 4.463-8.252.272-.922.541-1.834.885-2.729.012-.032.246-.278.221-.129-.078.469-1.095 1.114-1.392 1.392-2.364 2.214-4.894 4.261-7.358 6.362-.996.849-3.717 3.684-2.812 2.739 3.222-3.366 6.132-7.035 9.34-10.419.884-.932 1.785-1.851 2.637-2.812.151-.171.521-.601.009-.415-1.4.509-2.756 1.311-4.038 2.047a71.565 71.565 0 0 0-9.792 6.758c-1.602 1.314-6.276 5.353-4.5 4.287 1.695-1.016 3.161-2.735 4.583-4.093.289-.277 1.753-1.624.415-1.199-1.011.321-2.121 1.183-2.877 1.918-1.372 1.333 2.649-2.76 3.983-4.131.217-.222 4.62-4.721 4.5-4.794-.308-.188-1.233.19-1.476.276-2.325.827-4.525 2.169-6.592 3.495-1.899 1.218-4.321 2.68-5.689 4.545-.183.25.565-.264.811-.451 2.385-1.81 4.712-3.703 7.045-5.579a135.19 135.19 0 0 0 5.255-4.425c.669-.596 1.547-1.204 2.084-1.937.172-.234-.197-.258-.341-.258-.975 0-1.91.414-2.72.922-1.227.769-2.623 1.724-3.375 3.006-.169.288 1.98.205 2.167.212.901.033 2.678.351 2.867 1.484.085.507-.211.937-.516 1.31-1.082 1.322-2.323 2.555-3.494 3.798-.784.832-1.638 1.602-2.37 2.481-.604.724-.61.742.092.101 1.724-1.573 3.444-3.203 5.449-4.416 1.182-.716.607-.133.028.599-1.64 2.07-3.545 4.085-4.758 6.454-.001.004-.427.785-.212.646.776-.503 1.485-1.141 2.213-1.706 1.765-1.369 3.675-3.041 5.689-4.048 1.225-.613-1.733 2.124-2.545 3.227-.291.396-2.29 3.132-.719 2.232 1.376-.789 2.673-1.783 4.186-2.306.939-.324-.921 1.1-1.088 1.245-.125.109-1.651 1.539-.977 1.134 1.3-.78 2.577-1.696 3.78-2.618 2.776-2.126 4.235-4.665 5.237-7.967.297-.979.278-2.215.323-3.236.051-1.161.123-2.44-.194-3.568-.526-1.874-1.373-3.503-2.12-5.274-.622-1.471-1.849-3.123-3.154-4.02-1.885-1.296-4.264-1.87-6.399-2.665-1.915-.713-4.128-1.166-6.177-1.318-1.644-.122 3.298-.25 4.942-.13 3.407.25 7.721 1.086 10.133 3.8 3.774 4.246 3.301 11.051 1.079 15.812-.276.592-.47 1.252-1.005 1.669-.591.459-.726-1.092-.784-1.346-.952-4.198-1.893-8.386-3.033-12.54-.589-2.145-1.192-4.295-1.891-6.408-.303-.919-.624-2.105-1.272-2.867-.238-.28.372.632.572.94 1.374 2.123 2.55 4.36 3.568 6.676 1.577 3.588 2.885 7.348 3.753 11.175.296 1.306-3.501-1.388-3.808-1.623a19.318 19.318 0 0 1-2.849-2.656c-.298-.342-1.191-1.116-.738-1.143.566-.033 1.367 1.035 1.715 1.383.154.154.631.597.461.461-.938-.751-1.747-1.7-2.563-2.572-1.358-1.451-2.732-2.887-4.094-4.334-.514-.546-.688-.742-1.18-1.254-.237-.246-1.04-.784-.701-.747.459.051 1.384 1.233 1.66 1.494 1.611 1.525 3.213 3.054 4.72 4.684.689.744 1.355 1.51 2.029 2.268.171.193.703.978.221.277-1.632-2.378-3.232-4.736-4.702-7.22-.914-1.543.824-.473 1.641-.083 1.833.876 3.541 1.928 5.228 3.052 2.734 1.823-5.676-3.324-8.4-5.163a91.46 91.46 0 0 1-5.2-3.771c-.071-.056-1.846-1.494-.682-.849 4.046 2.244 14.796 11.109 11.193 8.207-.795-.64-1.834-1.474-2.379-2.342-.172-.274-.067-.307.166-.13.726.553 1.461 1.104 2.176 1.67.522.412.986.872 1.411 1.382.333.4.264.38-.009-.046-.641-.998-1.526-1.947-1.844-3.116-.347-1.272 1.466 2.2 2.047 3.384.593 1.21 1.135 2.447 1.539 3.734.167.532.765 1.955.231 2.471-.59.57-1.894.596-2.637.701-1.3.182-2.633.268-3.882.7-1.483.514-1.039 2.15-.728 3.357.092.357 1.193 3.153.654 3.347-.971.349-2.563-.11-3.494-.277-2.431-.437-4.833-1.017-7.266-1.448-.492-.087-1.637-.499-2.157-.295-.04.016 1.339 1.663 1.401 1.743.707.905 1.342 1.861 1.955 2.831.324.512.933 1.211 1.069 1.825.085.38-.772-.148-1.124-.313-1.399-.657-2.765-1.38-4.168-2.029-.871-.403-1.755-.824-2.655-1.162-.644-.241-.054.168.12.342 1.173 1.173 2.203 2.716 3.014 4.158.728 1.293-.172.728-1.005.258-.766-.433-1.536-.859-2.314-1.272-.276-.147-1.152-.424-.839-.424.529 0 1.562 1.573 1.872 1.936 1.19 1.392-.099.721-1.042.175-.898-.52-1.792-1.048-2.72-1.512-.314-.157-1.155-.608-1.014-.286.143.328.725.726.959 1.033.671.882 1.264 1.87 1.9 2.784.955 1.377 2.127 3.431 3.669 4.232 3.636 1.891 7.924.958 11.119-1.346 3.42-2.465 4.718-6.578 7.543-9.524.337-.353.652-.709.958-1.088.06-.075.287-.24.259-.24-.485 0-1.109.04-1.549-.203-.616-.339-.243-1.67-.166-2.157.11-.698.245-1.386.498-2.047.047-.125.612-1.088.239-.83-2.247 1.555-4.527 3.032-6.933 4.333-.467.253-.993.473-1.42.793-.575.431 1.144-.868 1.724-1.291.401-.292 2.267-1.56 2.231-1.558-2.835.21-5.762 2.901-7.773 4.675a37.794 37.794 0 0 0-1.936 1.862c-.173.177-.368.552-.608.646-.478.186-1.141.092-1.632.092-1.78 0-3.576-.008-5.32-.406-.998-.227-1.978-.592-2.822-1.18-.019-.013-.713-.669-.442-.359.686.784 1.28 1.774 1.751 2.701.457.897.019.616-.276-.304-1.272-3.971-2.4-8.923-1.31-13.084.62-2.361 2.543-3.318 4.675-4.029 1.887-.629-.625-1.533-1.576-1.586-.61-.034-2.002-.268-2.564.028-.224.118-.073 1.218-.073 1.457 0 .401-.08.973-.535 1.124-.802.268-1.179-.519-1.448-1.124-.718-1.618-.886-3.394-.839-5.145.024-.887.758-2.057 1.162-2.822.72-1.362 3.496-1.689 4.813-1.991 1.737-.4 3.909-.373 5.477.498"/><path stroke="#fff" stroke-linecap="round" stroke-width="2" d="M119.359 103.707c.224-.366.739 1.66.774 1.869.121.735.166 1.446-.136 2.146-.288.669-.264 1.476-.532 2.151-.312.785-.67 1.555-1.004 2.331-.832 1.931-2.229 3.476-3.716 4.956-.557.555-1.413.985-1.87 1.618-.231.319.016-.028.116-.092.764-.488 1.636-.846 2.415-1.329 2.113-1.307 3.751-3.405 5.146-5.426 1.138-1.647.769-3.206 1.014-5.101.14-1.077-2.152-3.715-1.879-2.663.758 2.916.962 5.25-.246 8.053-.277.643-.475 1.371-.996 1.852-.56.517-.009-.445.093-.673.32-.718.777-1.345 1.091-2.074.488-1.133.995-2.49.924-3.747-.039-.681.214-1.462-.013-2.133-.025-.074.651 1.832.762 2.456.202 1.131.172 2.35-.288 3.418-.68 1.576-2.883 6.231-2.204 4.654.548-1.27 1.358-2.429 2.055-3.622.744-1.274 1.257-2.688 1.841-4.043.293-.68.368-1.272.18-1.995-.232-.893-.674 1.282-.737 1.558-.424 1.835-1.002 3.422-1.674 5.157-.464 1.195.635-.639.778-.915.486-.944 1.007-1.853 1.427-2.829"/><path stroke="#171717" stroke-width="1.5" d="M89.532 68.8c-18.122 2.517-7.552 13.214-20.137 32.72-23.282 14.473-11.954 30.204-.002 57.891 15.56 36.045 65.444 23.281 64.815-10.698-.629-33.979 17.619-30.203 25.17-50.339 7.551-20.135-21.395-39.642-32.721-44.676-11.326-5.034-14.472 11.956-37.125 15.102Z"/><circle cx="109.25" cy="107.394" r="21.394" stroke="#171717" stroke-width="1.5"/><path stroke="#171717" stroke-linecap="round" stroke-width="1.5" d="M56.68 116.376c.222-6.458 6.175-9.267 10.896-12.302 1.953-1.256 4.042-2.547 5.273-4.608 2.145-3.595 3-8.136 3.514-12.225.444-3.523.824-7.193 1.934-10.584.504-1.54 1.334-3.594 2.987-4.218 1.186-.447 2.261-1.023 3.506-1.318a55.484 55.484 0 0 0 4.227-1.181c1.933-.623 3.834-1.704 5.712-2.5.963-.408 2.18-1.152 3.252-1.152"/><path stroke="#171717" stroke-linecap="round" stroke-width="1.5" d="M93.766 67.87c-2.392 0 4.874.329 7.167-.352 1.344-.399 2.53-1.369 3.729-2.07 1.897-1.11 3.73-2.317 5.546-3.554 3.395-2.311 6.607-4.857 9.881-7.342 2.389-1.814 5.558-2.997 8.583-2.392 3.017.603 5.951 2.816 8.416 4.56 2.985 2.11 5.782 4.688 8.348 7.283 2.669 2.698 5.112 5.614 6.766 9.051.333.69.567 1.412.879 2.1.17.373.494.61.615.976"/><path stroke="#171717" stroke-linecap="round" stroke-width="1.5" d="M150.354 70c1.499 2.5 3.185 6.902 5.26 9.4 1.731 2.084 3.209 4.183 4.45 6.6.974 1.897.993 4.228 1.097 6.31.176 3.524-1.332 6.499-3.294 9.323-1.891 2.72-4.257 5.038-6.409 7.54-2.466 2.867-5.947 4.783-8.146 7.912-1.399 1.99-2.692 4.04-4.004 6.089-1.409 2.199-3.071 4.407-4.116 6.81-.809 1.86-.908 3.766-1.269 5.714"/><path stroke="#171717" stroke-linecap="round" stroke-width="1.5" d="M56.458 117.408c0 6.614-.286 13.313 2.413 19.512.774 1.776 1.911 3.23 2.915 4.872 1.24 2.029 2.355 4.126 3.585 6.159 2.467 4.074 4.973 8.476 6.66 12.944 1.432 3.792 2.932 8.009 5.851 10.928 2.868 2.867 6.529 5.349 10.132 7.217 2.528 1.311 5.4 2.428 8.208 3.006 2.852.587 6.596.744 9.414-.091 2.507-.743 4.856-1.719 7.263-2.778 2.031-.893 4.452-2.084 6.102-3.62 1.731-1.612 4.228-2.804 5.589-4.77 1.678-2.423 4.028-4.657 5.021-7.479.502-1.428 1.034-2.7 1.332-4.189.258-1.291.358-2.612.614-3.894.232-1.157.103-2.419.103-3.597 0-1.787.205-3.542.205-5.328 0-4.365 1.504-9.827 3.49-13.8"/><path stroke="#171717" stroke-linecap="round" stroke-width="1.5" d="M107.106 87.943c-2.814 0-5.523-.15-8.243.683-2.214.679-5.138 2.343-6.434 4.336-3.858 5.935-3.638 13.135-3.528 19.962.05 3.043 2.136 6.448 4.046 8.697 2.03 2.391 4.786 4.525 7.661 5.79 2.461 1.083 5.4 2.571 8.141 2.63 2.99.063 5.052-.631 7.8-1.707 1.923-.752 3.879-2.766 5.322-4.21.913-.912 1.802-2.125 2.529-3.185.868-1.267 1.984-2.503 2.68-3.869 1.095-2.15 2.202-4.413 2.604-6.826.55-3.298.649-7.886-.518-11.024-2.231-5.996-8.784-7.809-14.5-9.052-2.075-.45-4.116-1.08-6.195-1.542-1.721-.382-3.56-.352-5.234-.91"/></svg>