<svg xmlns="http://www.w3.org/2000/svg" width="402" height="253" fill="none"><path stroke="#C6C6C8" stroke-linecap="round" stroke-width="2" d="M251.9 106.294c4.448 0 8.675-1.278 13.075-1.767 4.76-.529 9.624-.945 14.33-1.865 6.994-1.369 14.023-2.772 21.065-3.946 14.65-2.441 29.014-5.747 43.353-9.658 13.391-3.652 27.292-6.53 39.786-12.778 3.085-1.542 5.865-3.648 8.651-5.646 1.103-.79 3.476-2.926 3.566-4.457.083-1.41.412-.976-.446-.594-1.194.53-2.434 1.703-3.599 2.393-5.783 3.427-11.844 6.322-18.011 8.965-6.778 2.904-13.559 5.127-20.719 6.917-10.622 2.655-20.997 5.713-31.878 7.28-2.632.38-5.31.449-7.958.66-2.891.232-5.728.892-8.617 1.123-5.898.472-11.583 2.607-17.236 4.177-2.932.815-5.78 1.68-8.749 2.36-2.521.579-5.069.898-7.528 1.718-4.098 1.366-8.208 3.123-12.184 4.82-2.502 1.068-5.391 1.764-8.089 2.064-.783.087-2.641-.287-1.024-.875 4.072-1.481 8.331-2.788 12.547-3.797 1.978-.473 4.023-.861 5.976-1.403 1.276-.355-1.136-.149-1.453-.149-3.655 0-7.301-.131-10.813 1.04-1.112.371-2.051.446-3.219.446-.439 0 1.727-.333 2.179-.446 2.828-.707 11.599-1.04 8.684-1.04-3.267 0-6.491 1.189-9.724 1.189-.633 0 2.062-.416 2.377-.479 3.427-.685 6.9-1.386 10.285-2.262 7.75-2.005 15.385-4.426 23.179-6.24a91.63 91.63 0 0 1 6.042-1.189c.333-.054 2.199-.23.974-.23-4.718 0-8.8.52-13.306 2.08-1.823.63-3.685 1.228-5.481 1.93-.39.153-1.505.705-.413.744 4.425.158 8.901.048 13.306-.363 4.199-.393 8.207-2.195 12.316-3.055 4.078-.853 8.133-1.595 12.216-2.377 6.891-1.32 13.674-2.636 20.405-4.672 8.517-2.576 17.019-4.937 25.655-7.066 1.963-.484 4.037-1.135 6.076-1.188.926-.025.795.094-.017.297-3.21.802-6.562.496-9.823 1.04-6.148 1.025-12.389 1.477-18.523 2.592-5.863 1.066-11.516 2.832-17.334 4.094-3.977.862-7.903 1.74-11.82 2.823-1.007.278-10.5 2.174-10.5 3.269 0 .495 15.405-1.013 16.905-1.04.264-.005 2.384-.01 1.123.23-1.336.255-2.884.364-4.243.364-3.694 0-7.575 1.935-11.127 2.823-5.18 1.295-10.49 3.103-15.403 5.2-1.124.48-2.49 1.189-3.748 1.189-.654 0 1.31.01 1.965 0 9.567-.152 18.763-4.456 27.999-6.389 10.48-2.193 21.072-4 31.433-6.686 6.031-1.564 11.701-3.042 17.466-5.498 4.959-2.112 9.964-4.076 14.842-6.372.623-.293 1.793-.875 2.509-.875.759 0-1.502.264-2.261.264-2.145 0-8.548.509-6.406.594 3.141.126 6.096-.118 9.146-.891 1.78-.451 3.133-1.54 4.755-2.08"/><path stroke="#C6C6C8" stroke-linecap="round" stroke-width="2" d="M250.275 167.19c0-4.063-.487-8.475.302-12.471.838-4.241 1.534-8.51 2.269-12.773 1.548-8.974 3.974-18.58 2.807-27.766-.297-2.339-.867-4.633-1.512-6.891-.252-.88-.681-2.179-1.143-2.958-.339-.573-.936-.724-1.194-1.11-.36-.54-.071 1.304 0 1.95.181 1.628.473 3.266.656 4.908.271 2.44.772 4.91.84 7.361.031 1.108.303 3.197.303.858 0-2.104-.345-4.262-.757-6.32-.364-1.823-.257-4.003-1.361-5.58-.122-.175-2.069-2.964-2.118-2.135-.089 1.513.555 2.587 1.21 3.933 1.562 3.209 2.679 7.189 3.026 10.74.384 3.936 1.204 7.86 1.496 11.799.219 2.965.016 6.02.016 8.992 0 8.211-.452 15.955-2.722 23.9-.515 1.803-1.174 3.489-1.816 5.244-.314.861-.605 1.723-.605.37 0-5.428.024-10.744 1.211-16.085 1.117-5.029 1.815-10.322 1.815-15.479 0-8.418.548-17.023-.067-25.413-.086-1.165-.47-4.629-.538-3.463-.077 1.301 0 2.63 0 3.933 0 6.266 1.876 12.453 2.101 18.741.095 2.672.016 5.36.016 8.034 0 2.682-.515 5.019-.84 7.647-.881 7.134-4.369 13.114-7.614 19.413-2.958 5.743-5.535 11.911-9.227 17.227-.751 1.082-1.774 2.243-2.269 3.479-.321.803.756-1.557 1.193-2.302 1.687-2.873 3.999-5.325 5.749-8.169 1.816-2.952 3.142-6.033 4.235-9.311 1.096-3.287 2.159-6.581 3.093-9.916.366-1.31 1.445-3.054 1.445-4.421 0-3.08.191 6.22-.471 9.227-1.533 6.968-5.784 12.688-9.983 18.287-2.559 3.412-5.176 7.364-8.269 10.236-.599.556-2.154 5.02-2.454 4.42"/><path stroke="#C6C6C8" stroke-linecap="round" stroke-width="2" d="M241.918 179.862c.126-1.265 1.325-2.507 1.888-3.609 1.354-2.647 2.801-5.243 4.155-7.89 2.5-4.885 5.686-9.556 7.533-14.751 2.973-8.362 5.588-16.863 8.33-25.284 2.465-7.57 3.399-15.703 3.399-23.627v.608c0 2.318-.216 4.506-.566 6.799-1.365 8.948-4.189 17.578-6.421 26.334-.16.629-1.986 6.752-2.077 4.7-.356-7.996-.168-15.592 1.888-23.417.809-3.077 1.843-6.151 1.889-9.359 0-.026.003-2.498-.084-2.476-.689.172-.289 4.33-.294 4.826-.046 4.608-.829 9.22-1.511 13.765-.928 6.186-3.638 24.635-3.777 18.381-.162-7.323-.755-14.607-.755-21.948 0-4.211-.264-8.355-.378-12.548-.008-.304-.404-2.434-.377-1.259.07 3.157.716 6.36 1.133 9.485.464 3.487 1.562 13.891 1.867 10.386.353-4.061.433-8.169.965-12.212.246-1.867.189-3.744.189-5.623v-.714c0 5.098-.755 10.199-.755 15.339 0 .782.084 1.519-.021.21-.376-4.699-1.112-9.326-1.112-14.059 0-1.67-.522-4.313.189-5.875.33-.726.566-.576.566.189 0 3.761-.045 8.28 1.322 11.834.662 1.721 1.717-4.161 1.909-4.847.528-1.885 1.026-4.844 2.434-6.253.982-.981.756.964.756 1.511v6.421c0 .506-.373 2.915.084 3.315.195.171.294-3.253.294-3.525 0-.172-.094-5.666.083-5.666.28 0-.409 2.742-.461 2.938-.619 2.331-.784 4.703-1.049 7.092-.16 1.442.61 5.016-.378 6.127-.166.187-.5-2.36-.546-2.727-.234-1.874-.293-3.697-.293-5.582 0-1.577-.143-2.892.755-4.239"/><path stroke="#C6C6C8" stroke-linecap="round" stroke-width="2" d="M266.962 114.216c5.378 0 10.654.126 15.968-.886 11.024-2.1 22.376-5.229 33.084-8.594 14.399-4.526 28.34-10.727 42.636-15.609 5.615-1.917 11.919-4.638 16.877-7.9 2.155-1.418 4.61-2.725 6.487-4.5 1.024-.968 2.304-2.1 3.639-2.586 1.752-.637.125.079-.814.383-3.633 1.178-6.774 3.013-10.126 4.788-2.891 1.53-5.629 3.349-8.642 4.644-4.238 1.822-8.597 3.279-12.76 5.267-9.586 4.578-20.829 7.925-31.193 10.246-7.612 1.705-14.897 4.457-22.407 6.559-3.169.888-6.472 2.157-9.671 2.825-3.403.711-7.052.69-10.509 1.054-1.617.17-3.175.521-4.812.43-1.044-.058 3.187-1.203 3.519-1.292 4.213-1.135 8.87-1.114 13.214-1.269.379-.014 5.233.226 5.147.311-1.915 1.916-8.655.934-10.964.982-5.642.116-11.122 1.159-16.662 2.13-.192.034-4.416.606-3.471-.024 2.736-1.824 5.997-2.515 9.121-3.423 2.52-.732 5.399-1.293 8.044-1.293 1.071 0-4.72 1.203-5.459 1.293-2.057.252-7.202 1.872-9.192.766-.514-.285.763-.943 1.293-1.197 2.305-1.105 4.979-1.568 7.492-1.891 2.747-.353 10.847-1.272 8.307-.168-5.228 2.274-12.011 2.157-17.571 3.328-2.251.474-7.56 1.146-1.987.646 8.807-.79 17.649-1.069 26.453-1.915 1.766-.17 3.612-.218 5.362-.527 1.129-.199-2.276-.335-3.423-.335-4.99 0-9.996.431-14.962.431-4.612 0 9.005-1.992 13.502-3.016 6.834-1.556 14.057-4.155 21.066-4.716 11.964-.957-47.887 2.944-35.885 2.944 1.739 0 3.718-.601 5.411-.861a290.678 290.678 0 0 1 20.707-2.442c5.688-.462 22.799-.958 17.093-.958-7.725 0-15.574 1.902-23.269 2.586-2.013.178-4.315.163-6.272.766-2.289.704 4.753-.603 7.11-1.03 8.015-1.451 16.063-3.242 24.154-4.213 1.288-.155 2.581-.263 3.878-.263 1.293 0-2.528.546-3.782.861-3.46.872-14.054 2.155-10.485 2.155 6.079 0 12.571-2.73 18.433-4.118 3.668-.868 8.059-2.346 11.874-2.346 1.22 0-2.405.433-3.591.718-6.458 1.556-12.822 3.477-19.223 5.243-5.1 1.407-20.458 5.173-15.537 3.232 6.419-2.531 12.934-4.795 19.726-6.105.582-.112 8.015-.964 4.477.383-2.828 1.078-5.997 1.442-8.954 1.964-7.582 1.338-15.188 2.461-22.814 3.519-5.99.83-12.304 1.668-18.146 3.303-.825.231-2.43.169-.862-.718 2.929-1.655 6.755-1.197 9.983-1.197 2.464 0 3.346 1.39.551 2.25-4.481 1.379-9.195 1.952-13.741 3.089-1.858.464-1.961.532-3.543-.599M171.617 242.824c1.579 0 2.312-.303 3.647-1.193 1.722-1.148 3.883-1.538 5.732-2.437 3.261-1.587 5.967-3.992 9.311-5.446 5.889-2.56 12.454-5.697 17.026-10.269 6.181-6.182 12.675-11.985 18.303-18.791 6.656-8.049 12.751-15.968 17.85-25.11 2.106-3.778 4.367-7.481 6.185-11.413.696-1.505 1.815-2.895 1.815-4.605"/><path fill="#fff" stroke="#171717" stroke-width="2" d="M375.395 37.72c9.414-2.896 19.351 2.601 21.901 12.115 2.549 9.514-3.308 19.243-12.909 21.443l-162.69 37.275-5.833-21.77 159.531-49.064Z"/><circle cx="9.015" cy="9.015" r="9.015" stroke="#171717" stroke-width="2" transform="rotate(75 163.34 272.292)"/><ellipse cx="125.088" cy="127.079" fill="#fff" stroke="#171717" stroke-width="2" rx="123.959" ry="123.96"/><ellipse cx="125.089" cy="127.079" stroke="#171717" stroke-width="2" rx="101.421" ry="101.422"/><path stroke="#171717" stroke-linecap="round" stroke-width="2" d="M240.312 80.144c4.772 0 9.11-.5 13.736-1.552 1.332-.302 2.466-1.21 3.731-1.716 1.121-.449 2.13-.752 3.186-1.321 1.268-.683 2.796-.985 4.144-1.37 6.307-1.803 12.586-4.754 18.754-7.116 12.116-4.64 24.66-8.272 36.914-12.48 5.466-1.878 11.264-2.927 16.839-4.458 5.322-1.46 10.56-3.119 15.914-4.457 7.111-1.778 14.383-4.223 21.693-5.035 5.677-.631 12.392-1.243 17.351 2.063 4.535 3.024 3.748 9.398 3.748 14.165 0 3.82-.762 7.785-3.798 10.268-.757.62-2.623.443-3.565.595-1.416.228-3.039.784-4.392 1.27-1.955.705-3.766 1.834-5.827 2.246-3.696.74-7.407 2.402-11.012 3.483-4.326 1.298-8.885 2.215-13.025 4.078-2.722 1.225-6.266 2.04-9.196 2.592-3.318.626-6.57 1.684-9.938 2.245-3.842.64-7.75 1.352-11.606 1.85-3.617.466-7.036 1.577-10.615 2.145-3.544.563-7.135 2.133-10.615 3.055-3.375.893-6.467 2.073-9.972 2.525-4.421.571-8.761 1.622-13.223 2.015-4.906.43-9.685 1.307-14.561 1.849-4.028.447-8.356 1.84-12.25 2.971-1.657.481-3.877 1.783-5.58 1.783M26.211 105.525c0-2.403-.082-4.772.27-7.147.212-1.434 1.094-2.854 1.888-4.046.873-1.309 1.394-2.778 2.218-4.12 1.267-2.065 2.415-4.22 3.716-6.264 1.193-1.874 2.895-3.684 3.776-5.724.809-1.872 2.26-3.772 3.521-5.35 2.946-3.681 5.516-7.693 8.616-11.253a115.898 115.898 0 0 1 8.511-8.826c3.214-2.991 6.865-5.34 10.37-7.956 5.026-3.752 10.2-7.15 15.583-10.31 3.086-1.81 6.83-2.56 10.31-3.326 4.293-.945 8.506-1.953 12.886-2.487 7.758-.946 15.504-1.14 23.315-1.14"/><path stroke="#171717" stroke-linecap="round" stroke-width="2" d="M128.445 27.212c3.559 0 7.125-.066 10.683 0 2.964.055 5.906.83 8.806 1.332 1.422.246 2.823.78 4.203 1.203 2.144.655 4.18 1.555 6.303 2.23 3.749 1.189 6.997 3.763 10.603 5.308 1.953.838 3.747 2.069 5.526 3.216a129.084 129.084 0 0 0 5.157 3.168 63.21 63.21 0 0 1 8.629 6.032c1.223 1.015 2.652 1.801 3.77 2.919a189.653 189.653 0 0 1 4.234 4.363c2.588 2.758 6.404 4.193 8.445 7.458.316.506.636 1.001.722 1.604.02.136.153.714.153.29"/><path stroke="#171717" stroke-linecap="round" stroke-width="2" d="M204.957 65.757c.074.666 1.111 1.66 1.476 2.23.81 1.269 1.803 2.422 2.566 3.721 1.174 2 2.305 4.02 3.641 5.92 3.132 4.453 5.23 9.94 6.785 15.125.867 2.89 1.164 5.883 1.845 8.806.526 2.26.694 4.576 1.299 6.817.549 2.034 1.028 4.102 1.588 6.144.174.635.247 1.312.545 1.908.162.324.231.496.033 0"/><path stroke="#171717" stroke-linecap="round" stroke-width="2" d="M225.022 114.263c0 1.758-.082 3.541.217 5.277.335 1.946.264 3.99.73 5.919.506 2.096.622 4.311.898 6.448.27 2.089.176 4.214.176 6.32 0 2.452-.69 4.833-1.227 7.218-.585 2.603-1.196 5.259-2.021 7.795-.925 2.846-2.034 5.612-3.136 8.389-.861 2.172-1.85 4.236-2.502 6.489-.221.765-.395 1.563-.641 2.302M141.723 226.715c2.761 0 5.613.347 8.213-.598 1.687-.614 3.473-1.4 5.254-1.796 1.62-.36 3.701-1.539 5.254-2.244 1.263-.575 2.976-.533 4.173-1.198 1.934-1.074 4.139-1.818 6.135-2.843 2.343-1.203 4.615-2.45 6.817-3.89 1.265-.827 2.644-2.23 4.023-2.76 1.832-.705 4.214-2.193 5.62-3.525 1.302-1.234 2.938-2.069 4.339-3.159 1.698-1.32 2.958-2.941 4.473-4.456 1.721-1.721 3.78-3.793 5.104-5.852 1.258-1.957 3.16-3.495 4.473-5.404 2.323-3.38 4.546-6.892 7.348-9.859 2.252-2.384 3.891-4.989 3.891-8.38"/><path stroke="#171717" stroke-linecap="round" stroke-width="2" d="M63.313 209.057c1.53.153 3.47 2.472 4.655 3.442 1.215.994 2.664 1.762 4.023 2.477 1.652.869 3.6 1.146 5.238 2.029 1.703.917 3.484 1.92 5.303 2.593 1.565.58 3.055 1.481 4.59 2.178 1.525.694 3.359.955 4.92 1.58 1.953.781 4.515 1.349 6.568 1.862 1.96.49 3.918 1.2 5.852 1.796 3.963 1.219 7.971 1.795 12.104 1.795 3.935 0 7.97.3 11.838.3 3.737 0 7.524-.3 11.206-.3 3.145 0 6.098-2.095 9.294-2.095"/><path stroke="#171717" stroke-linecap="round" stroke-width="2" d="M64.209 209.358c-2.169-2.169-4.227-4.311-6.352-6.518-1.568-1.628-2.841-3.538-4.273-5.287-.558-.682-1.237-.808-1.712-1.662-.438-.79-1.52-1.33-2.095-2.095-3.315-4.42-6.947-8.387-8.845-13.7-.69-1.935-1.905-3.807-2.46-5.753-.397-1.386-.986-3.206-1.564-4.489-2.708-6.019-4.83-12.248-6.816-18.555-1.04-3.3-1.92-6.569-2.394-10.009-.377-2.732-1.418-5.497-1.497-8.247-.109-3.813-.3-7.699-.3-11.439 0-2.958-.298-5.916-.298-8.895 0-1.327-.28-3.049.299-4.206M1.586 115.794c0-4.789.959-9.806 3.128-14.144 1.903-3.805 3.874-8.138 4.82-12.3.426-1.874 1.405-3.662 2.116-5.44.87-2.177 1.496-4.594 2.72-6.605 1.199-1.969 1.897-4.322 2.932-6.392 1.294-2.587 2.337-5.3 3.868-7.767 2-3.223 3.622-6.909 6.12-9.777 2.246-2.578 4.271-5.292 6.665-7.752 1.285-1.321 2.248-2.99 3.536-4.352.85-.9 1.644-1.915 2.463-2.857.523-.601 1.574-1.99 2.297-2.312.954-.424 1.55-1.685 2.16-2.448.89-1.113 1.743-2.407 2.751-3.415 1.89-1.89 3.834-3.636 6.316-4.745"/><path stroke="#171717" stroke-linecap="round" stroke-width="2" d="M50.273 27.663c2.064 0 3.95-1.072 5.607-2.176 2.504-1.67 5.165-3.183 7.722-4.745 3.737-2.284 7.55-4.485 11.575-6.256 4.645-2.044 9.194-5.396 14.25-6.408 5.054-1.01 9.95-2.598 15.112-3.264 3.756-.484 7.45-1.228 11.227-1.571 2.567-.234 5.109-.471 7.677-.665 2.371-.18 4.773-.042 7.133-.272 7.288-.711 15.318-.657 22.183 2.176 3.554 1.467 7.192 2.685 10.729 4.2 3.698 1.586 7.336 3.483 10.88 5.38"/><path stroke="#171717" stroke-linecap="round" stroke-width="2" d="M165.875 9.165c1.543.172 2.637 1.764 4.08 2.176 1.685.482 3.333 1.917 4.896 2.72 4.984 2.563 10.481 4.29 15.293 7.133 11.025 6.515 21.318 14.609 29.649 24.42 2.303 2.713 4.681 5.36 6.724 8.296 2.151 3.092 3.492 6.494 5.455 9.657 3.082 4.965 4.755 11.03 6.589 16.532.434 1.302.926 2.764 1.284 4.02.267.933.999 2.17 1.104 3.112.156 1.407 1.303 2.804 1.616 4.216.168.756.488 1.624.832 2.312"/><path stroke="#171717" stroke-linecap="round" stroke-width="2" d="M241.766 89.136c0 5.133 2.74 10.053 4.775 14.704 2.5 5.713 2.919 12.336 3.717 18.421 1.087 8.283.782 17.305-.74 25.523-.361 1.947-.463 4.264-1.285 6.09-.83 1.845-1.737 3.625-2.644 5.44-1.623 3.246-2.673 6.28-3.551 9.792"/><path stroke="#171717" stroke-linecap="round" stroke-width="2" d="M110.367 250.624h17.067c4.679 0 8.739-.83 13.319-1.678 6.592-1.22 13.517-1.569 19.946-3.355 3.482-.967 6.746-2.244 10.045-3.728 3.42-1.539 6.992-2.617 10.17-4.661 5.703-3.666 12.068-6.821 17.067-11.557 1.815-1.719 4.123-3.148 6.131-4.64 4.116-3.058 8.296-6.637 11.537-10.625 1.895-2.333 3.789-4.651 5.448-7.188 1.866-2.854 4.418-5.29 6.172-8.161 4.341-7.103 8.743-13.665 12.096-21.209.981-2.207 1.573-4.759 2.237-7.084.608-2.127 2.61-4.203 2.61-6.338M5.232 100.749c0 4.566-1.909 8.442-2.589 12.862-.613 3.983-1.14 7.631-1.14 11.744 0 6.907 2.619 13.306 3.377 20.133.558 5.023 1.725 10.03 3.045 14.913.866 3.206 2.28 6.259 3.355 9.404 1.579 4.618 2.9 9.207 4.764 13.732 2.978 7.232 7.684 12.491 12.966 18.165 1.963 2.108 3.023 4.998 4.95 7.167.83.933 1.49 1.891 2.217 2.899.312.434 1.834.829.745.829"/><path stroke="#171717" stroke-linecap="round" stroke-width="2" d="M33.566 210.36c2.597 2.338 5.036 5.366 7.995 7.25 4.439 2.824 8.533 6.174 12.884 9.155 4.963 3.4 9.91 6.598 15.1 9.672 4.034 2.392 8.328 3.962 12.489 5.986 3.356 1.633 7.078 2.587 10.439 4.267 3.483 1.742 8.178 1.558 11.93 2.444 5.524 1.304 11.176 2.008 16.778 2.631 1.658.184 12.438.249 12.303-.021M374.48 45.927c-.419 0-.851-.032-1.268.01-.9.09-1.724.628-2.459 1.113-.611.402-1.189.919-1.707 1.437-.332.331-.746.642-.853 1.122-.53 2.386-.269 4.945-.269 7.385 0 1.15.222 2.173.583 3.258.347 1.04 1.295 1.671 2.241 2.16 1.532.793 2.954 1.665 4.67 2.061 1.724.398 3.214.171 4.72-.718 1.769-1.046 3.058-2.331 4.061-4.107.608-1.076.923-2.375 1.193-3.572.298-1.324.458-3.009-.045-4.301-.45-1.157-1.198-2.27-2.066-3.154-.892-.91-2.087-2.02-3.323-2.425-.656-.215-1.302-.467-1.976-.628-.694-.166-1.446-.09-2.155-.09-.538 0-1.178-.098-1.707.02-.287.064-.603.16-.898.16"/><path fill="#fff" stroke="#fff" stroke-width="8" d="M119.746 173.479c23.688 1.657 44.053-16.825 45.742-40.982.837-11.961-2.86-25.829-9.526-36.926-6.618-11.017-16.75-20.203-29.294-21.08-12.544-.877-23.856 6.809-31.943 16.798-8.146 10.061-13.736 23.28-14.573 35.241-1.69 24.156 15.906 45.293 39.594 46.949Z"/><path stroke="#FFD424" stroke-linecap="round" stroke-width="2" d="M84.888 136.565c.107-.547 1.107.855 1.195.949 3.023 3.264 5.71 7.019 7.933 10.868.596 1.032 1.114 2.105 1.71 3.137.162.281.691.895.666 1.258-.03.418-.578-.609-.824-.948-1.088-1.5-2.18-2.999-3.194-4.551-1.748-2.676-3.48-5.482-4.753-8.42-.216-.499-1.18-1.481-.637-1.504.368-.015 1.573 1.752 1.778 1.98a416.59 416.59 0 0 1 5.055 5.695c.28.321 1.137 1.235.77 1.019-.805-.476-1.606-2.001-2.11-2.708-2.088-2.926-4.008-5.989-5.588-9.22-.098-.2-.42-.783-.292-.601.757 1.07 1.668 2.007 2.576 2.95 2.249 2.335 4.44 4.728 6.704 7.047.285.292 1.049 1.241.828.899-.756-1.169-1.695-2.24-2.484-3.389-2.022-2.946-4.002-6.116-5.58-9.331-1.021-2.08 3.113 3.435 4.633 5.184 1.069 1.229 2.143 2.453 3.205 3.687.418.485 1.318 2.124 1.206 1.494-.124-.7-1.4-2.018-1.74-2.533-1.647-2.508-3.208-5.087-4.743-7.665-.251-.421-1.725-3.171-1.502-2.924 2.047 2.273 4.358 4.334 6.546 6.467.74.721 1.473 1.448 2.21 2.171.198.193.672.601.287-.03-1.719-2.82-3.821-5.37-5.457-8.259-.36-.634-.388-.691.209-.158 1.413 1.263 2.864 2.481 4.263 3.76 1.486 1.361 2.915 3.144 4.571 4.302 1.248.872-1.436-2.686-2.206-4-2.585-4.414-5.773-9.093-7.469-13.964-.146-.42.063-.203.225-.034 1.337 1.394 2.871 2.61 4.316 3.888 2.607 2.307 5.133 4.771 7.875 6.919.113.089.433.334.382.2-.156-.412-.512-.717-.778-1.069-2.647-3.494-5.08-7.145-7.428-10.844-1.272-2.003-2.488-4.04-3.783-6.028-.613-.939-.837-1.234.153-.248 2.849 2.836 5.924 5.437 8.73 8.314.08.082 1.043 1.273 1.252 1.2.157-.054-.151-.297-.242-.437-.314-.487-.632-.95-.963-1.428-.838-1.206-1.633-2.432-2.44-3.657-.32-.486-1.567-1.566-1-1.431.588.141 1.707 1.741 2.03 2.084a147.939 147.939 0 0 1 5.836 6.554c.774.926 1.563 1.832 2.435 2.668.094.09.332.371.304.244-.127-.579-1.036-1.721-1.263-2.092-2.618-4.273-5.446-8.653-7.406-13.279-.001-.001-.757-1.402-.149-.703 1.159 1.333 2.422 2.547 3.694 3.77 2.485 2.391 5.008 4.825 7.139 7.548 2.113 2.701-2.932-6.205-4.562-9.223-1.179-2.185-2.372-4.366-3.394-6.63-.255-.565-1.156-2.109-.657-1.74 2.483 1.835 4.583 4.739 6.683 6.996.475.512.99 1.325 1.586 1.719 1.337.884-1.598-2.779-2.443-4.141a200.138 200.138 0 0 1-5.171-8.82 233.22 233.22 0 0 1-1.589-2.918c-.307-.582-1.438-1.916-.788-1.81.826.133 2.78 3.021 3.264 3.542 2.059 2.216 4.131 4.421 6.162 6.663 1.203 1.328 2.376 2.68 3.552 4.032.465.536 1.229 1.551.363.112-2.494-4.141-5.114-8.215-7.157-12.606-.95-2.045 1.917 1.438 2.252 1.752 2.461 2.307 4.818 4.776 7.39 6.96.823.698.402-.214.176-.742-1.368-3.204-2.936-6.336-4.445-9.474-.601-1.252-1.267-2.484-1.763-3.784-.158-.413-.737-1.779.129-.782 2.788 3.207 5.456 6.524 8.353 9.636.373.4 1.174 1.737 1.129 1.191-.066-.786-1.117-2.081-1.469-2.699-2.037-3.582-4.624-7.132-6.209-10.945-.114-.277.47.374.676.591 1.197 1.259 2.491 2.421 3.741 3.625 1.245 1.2 2.468 2.423 3.69 3.647.048.048 1.502 1.587 1.358 1.084-.89-3.124-3.065-6.036-4.416-8.99-.245-.535-1.174-1.994-.729-1.609 1.04.9 1.923 2.11 2.901 3.084 1.35 1.344 2.699 2.69 4.086 3.996.636.6 1.86 2.23 2.785 2.433.737.161-.276-1.495-.564-2.192-.823-1.993-1.84-3.915-2.602-5.932-.196-.517-.947-1.872-.47-1.59.292.172.727.914.945 1.154 1.54 1.688 3.292 3.258 5.009 4.765.224.196.648.435.527-.112-.499-2.258-1.624-4.502-2.427-6.662a176.21 176.21 0 0 1-1.934-5.415c-.14-.416-.619-1.623-.369-1.263 2.28 3.299 10.147 12.419 7.517 9.392-1.041-1.197-1.858-2.632-3.069-3.69-.548-.477.026.78.057.957.165.935-1.363-.776-1.612-1.003-.17-.155-3.138-2.414-3.187-2.164-.04.205.661.872.763 1.117.139.335-1.546-1.699-1.791-1.98-.398-.458-1.948-2.07-1.404-.433.508 1.53.958 3.063 1.157 4.669.233 1.878-4.252-2.898-4.105-.361.08 1.374.409 2.735.504 4.116.039.567-.341.061-.485-.133-.915-1.232-1.632-2.607-2.5-3.872-.123-.18-1.956-2.938-2.08-2.26-.5 2.743-.348 5.663-.652 8.437-.031.288-.323 4.767-.944 4.658-.37-.065-.561-1.39-.607-1.576-.554-2.27-1.052-4.556-1.562-6.836-.062-.279-1.315-5.08-1.46-3.342-.317 3.79-.316 7.635-.12 11.43.107 2.063-.095 4.822.5 6.824.502 1.689-1.376-3.245-2.109-4.847-.214-.466-.635-1.846-1.19-2.086-.415-.18-1.026 3.26-1.051 3.364-.765 3.089-2.142 6.073-2.794 9.178-.277 1.319.222-.862.286-1.081.504-1.724.808-3.471 1.194-5.221.381-1.73.151-3.537 1.076-5.143.902-1.566.698-3.609.821-5.371.084-1.197-.516-.618-1.323-.18-1.27.69-2.606 1.58-3.517 2.722-2.249 2.818-4.333 6.034-6.047 9.198-1.934 3.571-2.964 7.279-4.288 11.102-1.395 4.027-1.678 8.087-1.973 12.302l-.264 3.778.018-.259c.706-10.099 3.22-19.896 9.75-27.858 1.735-2.115 3.611-4.07 5.494-6.047 1.36-1.428-.484.317-.95.676-1.922 1.477-3.559 2.779-5.09 4.689-1.993 2.49-3.906 5.179-5.537 7.923-1.517 2.553-2.72 5.3-3.851 8.041-1.02 2.471-2.077 5.082-2.36 7.761-.186 1.752-.26 3.521-.382 5.278-.008.108-.068 1.957.234 1.785.645-.368 1.352-2.079 1.651-2.58 2.403-4.014 4.817-8.022 7.223-12.034 5.59-9.321 11.681-18.375 17.128-27.776.597-1.03 2.311-3.337.569-1.073-4.57 5.938-8.007 12.887-11.168 19.648-1.2 2.568-3.875 10.497-3.677 7.669.313-4.471 2.34-9.126 3.729-13.354.216-.658 1.033-2.564.705-1.954-.85 1.583-1.416 3.366-2.143 5.007-1.97 4.446-4.296 8.759-6.061 13.29-.05.125-.35 1.114-.295.325.118-1.69.362-3.379.625-5.051.353-2.24.849-4.454 1.21-6.692.157-.974.897-3.728.293-2.947-.256.331-.268 1.208-.309 1.586-.193 1.796-.265 3.612-.39 5.414-.223 3.174-1.157 7.326-.187 10.448.12.39.274-.773.342-1.175.432-2.579.83-5.164 1.295-7.737.39-2.16 1.673-8.587 1.56-6.396-.18 3.488-.341 6.97.397 10.415.061.286 1.402 5.324 2.103 4.055 1.026-1.858.701-4.736.697-6.777-.001-.475-.235-1.503.013-1.953.207-.379 2.446 2.243 2.451 2.249 3.242 3.646 6.48 7.297 9.735 10.932.599.67 1.234 1.463 2.002 1.958.537.346-.32-2.166-.328-2.2-.756-2.9-1.638-6.258-1.378-9.296.119-1.394 3.178 1.65 3.442 1.873 1.094.92 4.235 3.727 3.472 2.518-2.543-4.031-5.016-8.031-7.281-12.232-.473-.878-1.89-3.173-.016-1.535 3.262 2.852 6.634 5.678 9.702 8.741.229.229.929.89.747.621-.975-1.441-2.028-2.815-2.964-4.288-1.252-1.969-2.497-3.964-3.611-6.015-.411-.756-1.171-1.862-1.304-2.75-.058-.387.654.434.954.685 1.565 1.309 3.106 2.647 4.656 3.974a109.367 109.367 0 0 1 4.259 3.822c.532.506 1.968 2.11 1.667 1.44-.678-1.514-1.802-2.912-2.666-4.317-1.582-2.574-3.219-5.183-4.529-7.909-.141-.293-.913-1.654-.683-2.088.087-.163 2.821 2.465 2.844 2.486 3.139 2.911 6.17 6.129 9.472 8.849 1.021.841.316-.242.028-.765-2.319-4.225-4.757-8.385-6.992-12.657-1.271-2.43-2.537-4.887-3.637-7.402-.031-.072-.901-1.782-.688-2.014.173-.187 5.849 5.71 6.272 6.164.747.802 1.465 1.65 2.281 2.385.571.514-.841-1.285-1.275-1.92a95.337 95.337 0 0 1-4.974-8.088c-.759-1.384-2.418-3.625-2.549-5.285-.089-1.124 1.812 1.35 2.62 2.137a173.263 173.263 0 0 1 9.332 9.79c1.293 1.471 2.637 2.928 3.842 4.474 1.267 1.623-.236.337-.83-.33-2.663-2.99-5.987-6.353-7.721-10.013-1.114-2.35 3.653 3.71 5.366 5.668a57.6 57.6 0 0 0 2.484 2.672c.027.026.703.794.756.684.174-.36.281-.29.699-.26 1.061.073-.338-1.58-.515-1.842-1.741-2.58-3.644-5.25-4.63-8.238-.452-1.373 2.047 2.046 3.143 2.99 1.126.97 4.602 3.758 3.41 2.872-2.669-1.983-9.688-9.07-7.024-7.082.868.647 1.721 1.286 2.531 2.007.943.84 2.108 1.473 3.018 2.288.646.58-.476-.112-.67-.319-.077-.082-1.755-2.1-1.13-2.057 1.423.1 2.809 1.007 4.054 1.619.928.456 1.023.536.059-.317-1.193-1.057-2.47-2.135-3.878-2.893-.62-.334-1.081-.373-.41-.326.86.06-1.602-.637-2.392-.983-.719-.315.79.383.966.5 2.743 1.832 5.104 4.233 7.485 6.496 2.614 2.485 5.121 5.291 6.838 8.492.071.132.704 1.878.465 1.665-.482-.433-1.512-2.099-1.087-1.61.662.762 1.109 1.733 1.547 2.631.921 1.886-2.59-1.808-2.732-1.947a390.984 390.984 0 0 1-3.655-3.62c-.35-.35-1.297-1.48-1.052-1.05.65 1.14 1.306 2.285 1.694 3.544.114.371.133.586-.257.13-1.063-1.242-1.952-2.63-2.992-3.894-.906-1.1-1.901-2.122-2.843-3.191-.607-.688-.641-.753-.286.19.798 2.12 1.771 4.113 2.303 6.332.1.416-.02.45-.332.15-.98-.944-1.793-2.051-2.771-3.001-1.72-1.672-.61.188-.154 1.151.19.404.892 2.817.655 2.482-1.691-2.383-3.11-5.067-5.031-7.276-1.294-1.488 1.538 3.633 2.187 5.495.42 1.203.776 2.417 1.131 3.64.006.021.299 1.156.267 1.132-.683-.515-1.168-1.775-1.609-2.462-.873-1.363-1.782-2.72-2.8-3.98-.168-.208-.614-.816-.305-.07.723 1.737 1.54 3.425 2.184 5.197.578 1.588 1.111 3.2 1.618 4.812.043.138.785 2.369-.032 1.507-1.551-1.64-2.652-3.841-3.801-5.757-1.335-2.223-2.694-4.435-3.985-6.684-.039-.069-.886-1.557-.828-1.418.645 1.552 1.375 3.074 2.039 4.62 1.337 3.113 3.127 6.533 3.785 9.885.09.456-.837-.46-1.13-.821-1.848-2.281-3.48-4.741-5.138-7.16-.475-.694-1.797-2.816-1.49-2.034.488 1.24 1.178 2.424 1.737 3.633a59.519 59.519 0 0 1 1.868 4.583c.013.034.744 2.109.525 2.04-1.321-.421-2.956-2.797-3.797-3.704-2.763-2.981-5.445-6.04-8.171-9.054-.064-.07-2.231-2.76-2.607-2.507-.207.139 1.896 4.768 1.965 4.96 2.24 6.2 4.009 12.615 5.42 19.051.218.995.462 1.991.556 3.007.102 1.092-.732-.647-.822-.799-.653-1.117-1.342-2.212-1.993-3.33-.135-.232-.432-1.056-.732-1.201-.202-.098.19.409.304.602a17.38 17.38 0 0 1 1.328 2.764c.181.483.45 1.026.51 1.544.071.61-.946-.791-1.346-1.256-3.887-4.522-6.906-9.594-10.566-14.255-.106-.136-.794-.963-.457-.18a41.227 41.227 0 0 1 1.766 4.983c.149.521 2.357 7.773 1.879 7.971-.36.15-5.401-6.829-6.001-7.554-.358-.433-1.389-1.681-1.244-1.138.505 1.881 1.106 3.704 1.512 5.62.592 2.802.82 5.662 1.412 8.459.23 1.09-1.418-1.237-1.626-1.511-.981-1.293 2.718 5.615 1.405 4.661-.741-.538-.899-2.537-1.272-3.378-.099-.223-4.456-.125-4.836-.165-1.126-.12-2.918-.12-3.814-.984-.917-.885-1.512-2.28-2.19-3.344-.438-.686-1.74-3.036-1.69-.934.086 3.737 1.41 7.288 2.609 10.78 1.128 3.282 1.968 6.714 2.906 10.083.571 2.054.726 4.389 1.66 6.324.179.371-.218-.995-.359-1.237-.56-.961-.625-.615-.687.274-.115 1.651.154 3.139.334 4.772.06.54.493 1.278.678 1.803.432 1.223.842 3.363 1.787 4.329.192.196.207-.53.18-.803-.132-1.31-.354-2.613-.517-3.919-.047-.373-.552-4.105.072-3.507 1.148 1.101 2.242 2.528 3.624 3.345.382.225.432-.107.377-.444-.321-1.972-1.118-3.947-1.718-5.845-.56-1.773-2.223-7.094-1.694-5.313.522 1.755 2.233 4.116 3.518 5.403 1.491 1.494.197-2.302.038-2.842-.221-.749-.925-1.796-.379-.422.062.157.981 2.171 1.121 1.661.574-2.097-.856-5.114-1.329-7.166-.044-.19-.254-.693-.299-.503-.057.237.085.962.011.73a24.286 24.286 0 0 0-2.459-5.34c-.606-.977.071 2.013.1 2.109.526 1.741 3.372 6.44 2.416 4.892-1.908-3.088-8.1-12.047-5.967-9.11 1.557 2.144 3.668 4.097 5.665 5.825 2.583 2.235 1.156-2.142.749-3.46-.328-1.059-.792-2.098-1.014-3.187-.107-.523-.193-.729.115-.239 1.621 2.577 4.343 4.807 6.815 6.536.137.095 1.12.932.998.218-.239-1.406-.961-2.817-1.517-4.113a169.664 169.664 0 0 0-1.688-3.803c-.056-.12-.431-.992-.42-.895.116 1.046.864 2.539 1.719 3.187.229.174.081-.585.011-.865-.338-1.345-.794-2.673-1.029-4.041-.278-1.622.102-.224.504.406.236.371 1.596 2.11 1.869 1.033.205-.81-.195-1.972.575-.973.338.438.773 1.154 1.224 1.421"/><path stroke="#FFD424" stroke-linecap="round" stroke-width="2" d="M149.407 98.128c.021.708.547 1.4.893 1.985.771 1.304 1.36 2.665 1.935 4.065 1.404 3.42 1.921 6.712 2.387 10.345.137 1.071 1.282 5.459-.404 2.544-3.802-6.569-7.23-13.574-11.549-19.82-.879-1.272 2.329 2.039 3.444 3.111 3.068 2.948 6.096 6.091 8.756 9.418.196.246 2.039 3.088 1.637 2.871-3.833-2.069-7.215-5.969-10.316-8.948-1.874-1.8-7.597-7.07-5.523-5.503 2.98 2.251 5.253 6.101 7.393 9.083 1.911 2.661 4.054 5.614 5.127 8.755.319.933-.479.219-.785-.083-2.138-2.111-3.991-4.585-5.878-6.914-2.43-2.996-5.081-6.217-6.872-9.668-1.073-2.068 2.574 3.884 3.802 5.863 1.28 2.063 3.292 4.579 3.749 7.033.141.761-.718-.123-.805-.211-2.224-2.238-4.04-4.939-5.925-7.454-2.161-2.885-8.406-11.699-6.521-8.627 2.125 3.463 4.312 6.84 6.166 10.468 1.73 3.384 3.413 6.864 4.872 10.377.41.986-.254.522-.794.043-2.327-2.064-4.181-4.73-5.938-7.271-1.37-1.982-2.617-4.028-3.812-6.119-.111-.192-1.596-3.344-2.005-3.278-.097.016-.022.199-.006.297.068.416.442 1.734.51 2 .464 1.803.733 3.627 1.046 5.459.091.53 1.663 7.137.812 7.393-1.24.374-4.221-9.665-4.567-10.695-.492-1.462-1.222-5.971-1.33-4.432-.226 3.236.1 6.519.393 9.738.404 4.432.643 8.915 1.274 13.32.5 3.492.356-1.521.312-2.438-.095-1.984.062-4.628-.675-6.521-.13-.333-.47 3.077-.492 3.401-.217 3.105-.21 6.212-.397 9.316-.164 2.708-.813-2.17-.871-2.507-.913-5.324-1.382-10.834-1.522-16.235-.024-.91.07-1.866-.047-2.774-.087-.681-.313 1.34-.395 2.022-.537 4.437-.751 8.912-1.062 13.369-.033.464-.256 5.706-.458 2.908-.309-4.279.181-17.152-.118-12.872l-.868 12.421c-.133 1.899-.257 3.799-.399 5.698-.077 1.031-.033 2.361-.487 3.33-.085.18-.347-.258-.393-.452-.528-2.227-.728-4.523-.853-6.802-.246-4.511-.37-9.079-.095-13.591.131-2.157-.053.753-.084 1.196-.301 4.306-.518 8.628-.918 12.926-.05.538-.469 4.842-.449 2.174.032-4.301-.013-8.609.21-12.906.056-1.089.138-2.176.214-3.264.021-.295.081-1.017.014-.197-.453 5.493-1.336 10.985-2.307 16.406-.734 4.104-1.474 8.463-3.206 12.3-.112.247-.292.655-.32.133-.109-1.991-.011-4.031.053-6.018.281-8.79 2.313-35.102 1.7-26.329-.694 9.921-1.343 19.847-2.082 29.765-.012.164-.603 4.678-.828 2.741-.685-5.906-.04-12.151.372-18.053.119-1.692.214-3.389.412-5.074.048-.415.052-1.854.41-2.233.142-.151.146.397.142.603-.036 1.822-.242 3.657-.369 5.473-.373 5.341-.721 10.684-1.12 16.022-.062.826-.425 5.065-.693 1.818-.464-5.631.618-22.583.224-16.947-.319 4.571-.728 9.124-1.617 13.626-.685 3.473-1.388 7.497-3.078 10.669-.202.379-.424.499-.579-.012-.752-2.48-.355-5.64-.278-8.161.175-5.653.595-11.308 1.03-16.947.082-1.069.358-2.413.418-.523.136 4.267-.436 8.662-.789 12.908-.268 3.209-.534 6.569-1.427 9.682-.526 1.835-.076-2.544-.056-2.831l.523-7.484c.043-.608.124 3.427.13 3.812.079 5.421-.114 21.685-.276 16.265a98.568 98.568 0 0 0-.608-8.482c-.195-1.673-.437-3.343-.61-5.018-.047-.452.107-1.662-.217-1.344-.741.724-.171 4.753-.199 5.668-.078 2.624.163 5.268-.042 7.885-.235 2.991-1.448-1.355-1.756-2.186-.614-1.662-1.344-3.476-1.541-5.254-.157-1.423.633 2.804 1.153 4.138.951 2.439 2.019 5.016 3.335 7.287 1.013 1.748-.673-.289-1.121-.743-2.021-2.048-4.152-3.893-6.31-5.784-.922-.809-.018.724.16.958a42.205 42.205 0 0 0 4.047 4.58c.1.099 1.581 1.514 1.026.892-2.402-2.696-5.025-5.248-7.507-7.876-.582-.617-1.195-1.187-1.813-1.766-.187-.176-.396-.781-.526-.56-.246.417 3.744 4.429 4.035 4.763 1.862 2.142 3.84 4.2 5.661 6.375 1.362 1.628-.804-.113-1.291-.542-2.464-2.173-4.702-4.601-7.129-6.817-1.376-1.257-.49-.533.24.412 1.24 1.604 2.7 2.97 4.026 4.494.509.585.641 1.109-.168.37-2.234-2.041-4.433-4.626-6.982-6.27-1.068-.688-1.57-1.888-2.36-2.85-.398-.487-.86-.641-1.255-1.05-.25-.258-.538-.466-.782-.747-.067-.077-.431-.734-.536-.617-.589.657 3.565 6.488 4.028 7.081 4.522 5.791 10.134 11.545 16.483 15.359 1.8 1.082 3.478 1.572 5.59 1.72 3.022.211 6 .568 9.005-.007.302-.058 1.563-.117 1.789-.313.053-.046-1.894-.579-2.021-.622-3.292-1.104-6.584-2.116-9.794-3.455-1.924-.802-3.869-1.577-5.767-2.439-.48-.218-1.817-.635-2.155-1.112-.183-.258.631-.012.946.01 1.258.087 2.482.235 3.708.542 1.876.469 3.766 1.067 5.523 1.884.902.42.652.526-.357.456-2.315-.162-4.543-.909-6.782-1.464-1.323-.328-1.342-.348-.025-.256 1.633.114 3.233.312 4.79.844.555.189 1.578.542.253.215-3.394-.838-6.885-2.554-10.034-4.066-.24-.115-2.256-1.062-1.864-1.035 2.771.194 5.526.558 8.271.975 2.954.447 5.902 1.289 8.886 1.497 1.828.128-3.199-2.296-3.272-2.335-4.056-2.188-8.181-4.259-12.325-6.276-1.349-.656-1.917-.902-.081-.458 5.275 1.277 20.102 8.097 15.301 5.566-3.255-1.717-6.459-3.567-9.644-5.41-.88-.51-4.714-2.391-1.513-2.014 4.173.491 8.401 1.248 12.459 2.341.268.072 4.468 1.373 2.913.599-2.877-1.43-5.825-2.719-8.7-4.156-1.132-.566-2.815-1.353-.509-1.209 3.371.211 6.704.479 10.009 1.195.708.153 2.434.783 3.166.419.47-.234-2.268-2.281-2.285-2.294-2.44-1.895-4.962-3.694-7.367-5.632-1.397-1.126.261-.433 1.144-.189 3.994 1.104 7.812 2.703 11.529 4.524 1.134.555 2.24 1.169 3.355 1.761.428.228.719.4-.046.251-5.56-1.078-10.921-3.573-16.125-5.721a254.17 254.17 0 0 1-5.916-2.52c-.689-.305-2.062-.674-2.626-1.258-.243-.252.672.201.994.338a42.066 42.066 0 0 1 5.322 2.733c.682.413 7.032 3.871 6.528 5.093-.526 1.273-9.968-2.313-10.969-2.633a90.779 90.779 0 0 1-4.459-1.528c-.484-.183-1.978-.562-1.462-.526 5.668.396 11.236 1.637 16.661 3.314 2.374.733-.456-.917-1.2-1.441-3.583-2.521-7.347-4.915-11.216-6.976-.069-.037-1.363-.551-1.446-.751-.087-.209.452.013.675.047.508.078 1.944.336 2.345.418 4.023.83 8.213 2.268 11.932 4.029 2.264 1.073.45.186-.661-.456-2.748-1.588-5.596-3.052-8.308-4.694-3.575-2.165 8.304 1.275 12.254 2.638.99.341 2.965 1.513.889.232-2.621-1.618-5.254-3.239-7.794-4.984-2.591-1.78.68-.626 1.856-.252 4.913 1.566 9.506 3.781 14.04 6.212.575.308 1.225.598 1.739 1.012.533.431-1.172-.715-1.732-1.11-3.582-2.526-7.322-4.812-10.941-7.282-.732-.5-2.448-1.505-.495-1.01 3.669.929 7.114 2.526 10.459 4.265 1.009.525 2.007 1.066 3.013 1.596 1.562.824-.666-.844-.729-.899-2.706-2.359-5.394-4.738-7.991-7.216-1.284-1.227-.409-.856.806-.411 2.22.814 4.165 2.111 6.32 3.015 1.119.469-1.947-2.274-2.145-2.482-1.116-1.176-3.658-3.013-4.201-4.605-.09-.266.552.127.802.254 1.37.689 2.677 1.507 3.996 2.286 2.535 1.497 4.996 3.059 7.464 4.65 2.88 1.857-4.939-4.886-6.602-7.883-.628-1.132 1.312.117 1.497.232 2.014 1.257 3.962 2.792 6.06 3.901.52.275.384-.19.234-.521-1.05-2.31-2.739-4.415-4.228-6.445-2.126-2.897-4.362-5.719-6.39-8.687-.985-1.442 2.385 2.552 3.592 3.813 2.072 2.163 3.846 4.51 5.609 6.923 1.49 2.039-1.527-1.294-1.691-1.49-2.575-3.069-5.327-6.012-7.5-9.387-1.198-1.861-.169-1.055 1.054-.11 3.604 2.785 7.101 5.731 10.329 8.949.452.451 2.57 2.797 1.344.787a82 82 0 0 1-4.682-8.851c-.046-.104-1.156-2.531-.493-1.632 1.715 2.326 3.889 4.313 5.734 6.536.906 1.091 3.522 4.446 2.591 3.375-2.053-2.362-3.823-5.04-5.573-7.627-.739-1.092-1.471-2.188-2.231-3.266-.193-.272-.815-1.018-.715-.7 1.277 4.049 2.492 8.071 3.3 12.246.078.405 1.326 5.166.139 4.887-1.194-.281-2.474-1.35-3.452-1.98-3.196-2.059-6.414-4.061-9.704-5.966-2.082-1.205-4.382-2.873-6.668-3.703-1.67-.606 3.011 1.912 4.366 3.062 1.896 1.608 3.525 3.484 5.35 5.166.021.019.516.612.214.17-1.269-1.853-2.581-3.672-3.884-5.501-2.619-3.676-5.419-7.358-7.605-11.318-.446-.807-.015-.18.276.09 1.042.967 2.104 1.887 3.075 2.929.174.188 3.265 3.686 3.041 3.803-.893.471-1.895-.702-2.803-1.143-4.082-1.979-8.12-4.05-12.169-6.095-4.284-2.163-8.605-4.046-13-5.941-.448-.194.971.18 1.416.382 1.821.824 3.552 1.867 5.253 2.911 3.684 2.262 7.39 4.597 10.863 7.177 2.524 1.876-1.609-1.167-2.02-1.441-4.362-2.915-8.834-5.633-13.294-8.394-.572-.354-2.3-1.035-1.642-1.174.58-.123 1.956.751 2.378.957 2.954 1.443 5.664 3.302 8.584 4.799.739.378 1.607.932 2.461.992 1.022.071 1.236-1.307 1.289-2.059.049-.705.406-1.653.793-2.248.305-.468.051-.027-.135.118-.789.612-1.772-.078-2.24-.723-1.737-2.392-1.258-6.606-.675-9.348.197-.923.585-2.033.228-2.444-.868-.998 2.832-1.979 1.769-2.053-3.271-.228-7.233 2.457-9.208 4.94a112.978 112.978 0 0 0-2.518 3.259c-.419.566.058-.189.194-.354.566-.685 1.11-1.216 1.844-1.709 6.521-4.377 16.405-13.622 23.769-5.151"/><path stroke="#FFD424" stroke-linecap="round" stroke-width="2" d="M152.397 149.989c.849-.15.441-5.817.447-6.386.04-3.8.223-7.596.542-11.384.072-.866.202-.078.291.275.377 1.484.895 2.901 1.48 4.316 1.054 2.551 2.086 5.206 3.307 7.681.852 1.725-1.532-3.538-2.097-5.377-.264-.858-.612-4.392-.788-1.879l-.279 3.995a93.47 93.47 0 0 0-.036.521c.197-2.83.869-5.644 1.101-8.475.277-3.374.691-13.523.455-10.146-.205 2.932-.226 5.842-.359 8.767-.072 1.596-.479 4.279.231 5.798.214.458.297.293.718.446.416.151.347 1.575.39 1.907.378 2.946.831-2.233.789-2.998-.177-3.241-.269-6.264-.04-9.53.197-2.817-.156-5.698-.738-8.448-.217-1.025-.462-.077-.48.39-.081 2.119.372 4.514.797 6.587.041.196.527 2.143.228 2.207-1.115.236-2.639-5.415-2.803-6.006-.827-2.982-1.221-6.079-2.053-9.049-.59-2.106.263 4.388.774 6.514.59 2.452 1.282 4.876 1.877 7.326.019.08.103.312.082.232-.432-1.679-1.299-3.287-1.845-4.935-.653-1.967-1.235-3.962-1.818-5.951-.176-.602-.513-2.443-.495-1.816.034 1.144.573 2.382.948 3.431.919 2.571 2.001 5.079 2.943 7.641.691 1.878 1.291 3.788 1.949 5.678.102.291.707 1.383.642 1.741-.113.621-.75-1.027-1.019-1.598-1.423-3.023-2.68-6.128-4.052-9.175-.862-1.915-1.698-3.863-2.74-5.69-.638-1.119-.84-1.021-.533.146 1.109 4.221 3.204 8.149 4.235 12.411.095.393.991 4.361-.253 2.809-3.126-3.9-4.358-9.481-5.752-14.17-.162-.545-.748-2.105-.741-1.536.022 1.581.744 3.379 1.187 4.861 1.466 4.903 3.842 9.738 4.892 14.746.097.465.161.796-.122.133-.847-1.981-1.714-3.948-2.467-5.968-1.724-4.626-2.446-9.556-4.141-14.157-.714-1.939.426 4.13.986 6.119 1.079 3.84 2.812 7.772 3.406 11.73.305 2.034-1.613-3.786-2.285-5.729a331.242 331.242 0 0 1-1.641-4.836c-.002-.006-.459-1.397-.533-1.069-.551 2.436.4 5.385.685 7.794.159 1.352.25 2.712.365 4.068.02.23-.009.908-.076.688-.834-2.768-1.152-5.658-1.639-8.497-.066-.384-.245-1.238-.363-.266-.2 1.638-.246 3.305-.361 4.951-.116 1.66.104 6.537-.46 4.971-.571-1.582-.63-3.525-.798-5.173-.359-3.532-.359-7.068-.53-10.61-.01-.207-.25-5.549-.656-3.354-.873 4.718-.808 9.729-1.142 14.508-.057.816-.325 6.992-.261 2.922.081-5.088-.126-10.186-.147-15.276-.014-3.334-.482 3.399-.499 3.697-.521 9.066-.138 18.148-.447 27.222-.04 1.163.09 2.684-.268 3.826-.233.745-.578-1.46-.721-2.227-1.434-7.699-1.541-15.559-.996-23.351l-.068.97c-.326 4.66-.613 9.325-.978 13.983-.125 1.593-.532 2.428-.897.304-.68-3.951-.878-7.947-1.031-11.946-.157-4.116.398 8.631-1.55 12.261-.343.639-.468-.387-.497-.572-.378-2.431-.442-4.913-.446-7.368-.001-.914.892-14.251.085-14.356-.435-.056-.954 10.592-.984 11.24-.122 2.697-.192 5.394-.368 8.088-.074 1.137.031 4.444-.406 3.393-.735-1.769-.695-4.279-.774-6.119-.201-4.671.046-9.351.33-14.013.168-2.773.373-5.544.567-8.315.062-.887.165-2.359.04-.577-.508 7.272-.432 14.531-.564 21.815a229.07 229.07 0 0 1-.458 10.993c-.064.969.215 3.649-.47 4.505-.454.566-.738-1.276-.893-1.985-.676-3.091-1.094-6.245-1.436-9.387a173.67 173.67 0 0 1-.75-9.283c-.064-1.158.018-4.62-.167-3.475-.715 4.416-.701 9.16-.896 13.62-.112 2.542-.082 5.082-.137 7.624-.005.228-.204 2.703-.277 2.539-.586-1.322-.562-3.246-.68-4.627-.339-3.97-.458-7.956-.522-11.939-.049-3.038.058-12.145-.154-9.114-.407 5.811-.262 11.549.171 17.356.174 2.334.382 4.668.514 7.005 0 .004.013 2.22-.054 2.187-.428-.207-.591-2.501-.629-2.729a162.709 162.709 0 0 1-1.218-8.454c-.226-1.965-.361-3.942-.662-5.898-.266-1.733-.297-.199-.353.597-.294 4.2-.191 8.396-.386 12.596-.014.298-.057 4.723-.507 3.004-.926-3.54-.981-7.499-1.2-11.138-.032-.526.083-1.833-.291-2.31-.064-.083-.068.2-.078.305-.078.898-.126 1.802-.188 2.701-.278 3.965-.304 7.78.055 11.736.061.665.264 1.477.217 2.15-.063.904-.24-1.796-.348-2.696-.172-1.435-.375-2.87-.662-4.287-.115-.568-.322-2.271-.39-1.695-.414 3.507.672 7.331 1.269 10.761.207 1.188.831 4.742.499 3.583-.687-2.397-1.803-4.889-2.983-7.079-.377-.699-1.534-2.659-1.478-.697.096 3.321.852 6.571 1.434 9.826.2 1.119.758 4.077.124 1.055-1.107-5.275-2.232-10.537-3.29-15.822-.695-3.472-.838.054-.713 1.505.206 2.394.907 5.003 1.609 7.308 1.222 4.009-2.027-8.35-4.479-11.749-.914-1.267-.243 2.775-.208 2.968.276 1.504.817 2.907 1.279 4.358.367 1.154.195.697.526 1.776.126.413.744 1.501.409 1.23-.877-.71-5.214-7.033-3.216-1.922a35.16 35.16 0 0 0 3.976 7.417c.084.119 1.504 1.864 1.495 1.871-.619.478-5.948-.902-1.814.072 1.819.428 3.648 1.012 5.245 2.006.178.111 1.861 1.374.854 1.332-1.041-.044-2.083-.146-3.123-.218-.105-.008 2.35-.058 2.929-.036 2.838.108 5.678.383 8.511.581 1.411.099 3.532.519 4.6-.696 1.562-1.774 2.695-3.917 4.274-5.723 2.504-2.865 4.979-6.121 7.96-8.518 1.429-1.149.667.289-.131.867-4.153 3.01-9.9 4.115-14.631 5.875-3.223 1.199-6.734 2.247-9.82 3.78-.113.056-.528.393-.127.189 1.202-.611 2.446-1.083 3.701-1.579 3.379-1.333 6.714-2.349 10.244-3.171 1.979-.46 2.112-.375-.09-.529-3.692-.258-7.395-.652-11.099-.578-.147.003-1.356.071-.394-.028 1.762-.181 3.491-.809 5.204-1.233 2.132-.528 4.485-.955 6.551-1.705.461-.167-.944-.294-1.432-.34-2.549-.24-5.117-.349-7.676-.41-2.276-.054-4.551-.023-6.827.003-.782.009-3.094.165-2.343-.05 5.172-1.482 10.542-2.521 15.804-3.645 2.37-.506 9.413-2.167 7.157-1.28-1.07.42-2.339.604-3.451.833-4.153.855-8.356 1.442-12.553 2.034-2.722.384-10.844 1.671-8.194.939 5.026-1.388 10.097-2.648 15.223-3.614 1.582-.298 5.984-1.8 7.604-.797.328.203-.567.553-.926.698-1.693.687-3.523 1.028-5.29 1.468-.703.175-3.486 1.015-3.434 1.004 4.081-.887 8.403-.759 12.557-.677.205.004 4.568.209 3.059.723-4.521 1.539-9.299 2.087-13.759 3.915-.214.087-4.332 1.605-2.679 1.721 2.65.185 5.338-.108 8.01.079.409.029 2.716.007 1.131.39-2.675.647-5.44.762-8.061 1.67-.766.265-1.789.618-.362.738 2.093.176 4.192.293 6.288.44 1.863.13-1.369.894-1.636.945-3.574.691-7.266 1.922-10.488 3.635-1.729.919 1.468.179 1.859.102 1.127-.223 4.575-.246 3.429-.326-1.113-.078-2.173-.155-3.28.011-1.494.224 3.023.143 4.532.077 1.127-.05 3.647-.599 4.702-.124.335.151-2.403.276-2.775.272-.172-.002-2.004.101-1.058.167 1.18.082 2.358-.09 3.548-.007 1.363.096 1.897.1.587.904-1.139.699 1.955-1.85 3.091-2.555 1.327-.824 2.669-1.63 3.988-2.449 1.681-1.044 3.901-1.436 5.408-2.746 1.314-1.142 2.723-2.195 3.693-3.685a14.742 14.742 0 0 1 2.626-2.997c.438-.381.502-.074.206.297-.814 1.016-1.324 2.216-2.108 3.259-1.258 1.672-2.381 2.903-4.108 4.165-1.665 1.217-3.136 2.805-4.906 3.856-.927.55-1.635 1.405-2.618 1.852-.643.294-1.186.689-1.847.945-.291.113.62-.344.8-.523 2.06-2.047 4.282-3.726 6.736-5.367 2.032-1.358 3.746-2.982 5.655-4.453 1.44-1.11 2.905-2.228 3.827-3.79.426-.72.756-1.484 1.172-2.208.111-.191.875-1.39.716-1.335-.333.116-.456.503-.788.553-1.129.169-1.292-4.714-1.347-5.197-.482-4.249-.831-8.542-.574-12.819.084-1.399.26-1.596.249-.124-.043 5.866-2.051 11.954-3.988 17.419-.142.398-.994 3.622-1.422 3.759-.504.162-.326-8.052-.296-8.516.192-2.911-.034-6.335 1.088-9.083.616-1.509.68-.655.392.465-.658 2.556-1.253 5.134-1.937 7.682-.452 1.683-1.478 6.789-1.357 5.05.233-3.33.723-6.619 1.454-9.878.454-2.019 2.79-7.793 2.036-5.865-2.373 6.068-5.273 12.229-8.665 17.784-.79 1.294.085-3.028.144-3.269 1.023-4.203 2.706-8.356 4.656-12.213.898-1.774-.506.844-.734 1.207-2.619 4.171-5.588 8.087-8.383 12.136-.376.545-1.198 2.343-1.959 2.549-.815.219.411-1.651.79-2.405 1.917-3.819 4.283-7.687 6.936-11.049.411-.522 1.336-1.74 1.207-.284-.202 2.279-1.342 4.622-1.865 6.853-.233.995-.452 1.988-.717 2.975-.075.282-.289 1.036-.047.873 1.551-1.041 2.387-3.422 3.684-4.775.076-.078 1.527-1.721 1.626-1.413.159.496-.265 1.329-.434 1.751-.809 2.023-1.613 4.031-2.347 6.084-.84 2.348-1.28 5.142-2.396 7.367-1.293 2.581 2.746-5.081 4.192-7.581 1.227-2.123 2.662-4.44 4.445-6.163.607-.586.373-.19.119.517-.981 2.739-2.729 5.242-3.93 7.896a138.924 138.924 0 0 0-1.826 4.282c-.065.157-.867 2.052-.479.787 1.063-3.468 2.671-6.833 4.212-10.109 1.104-2.345 2.598-4.587 3.584-6.973.902-2.186-.575 1.074-.711 1.675-.165.73.642-2.543.703-2.778.397-1.546.811-3.085 1.311-4.602.01-.031.714-2.084.613-2.091-.172-.012-.724 1.211-.768 1.275-1.359 2.016-3.08 3.824-4.585 5.729-6.17 7.811-12.304 15.573-18.845 23.081-.587.674-3.418 4.461-2.724 1.562 1.824-7.619 5.319-14.854 8.382-22.031.994-2.329 1.973-4.658 2.839-7.039.243-.668.867-1.742.88-2.483.011-.606-.871.846-1.278 1.296-2.361 2.617-4.662 5.292-7.16 7.783a80.628 80.628 0 0 1-7.054 6.278c-1.204.947-2.504 2.035-4.016 2.447-.755.205-1.133.121-1.137-.716-.019-3.328.789-6.792 1.714-9.958 2.388-8.178 5.888-16.035 8.612-24.107.576-1.706 1.231-3.425 1.69-5.169.144-.547.464-1.503-.17-.605-6.679 9.462-14.374 18.128-20.598 27.933-.155.246-.749 1.577-.719 1.392.137-.847.579-1.711.909-2.481 1.876-4.386 3.871-8.723 5.778-13.096 2.417-5.542 5.302-11.121 7.119-16.903.279-.887.166-.568-.168-.026-1.523 2.472-3.279 4.83-4.969 7.187-1.039 1.448-17.756 24.973-17.91 24.87-1.285-.858 1.731-7.837 2.045-8.635 1.882-4.788 4.058-9.461 5.972-14.241.581-1.453.101-.996-.756-.109-3.257 3.369-5.852 7.597-8.707 11.307-1.878 2.442-3.986 4.944-5.496 7.645-1.104 1.976-.108.127.277-.928 1.153-3.156 2.351-6.354 3.16-9.617.13-.526 1.328-5.354.37-2.858-1.02 2.66-2.77 5.251-2.974 8.16"/><path stroke="#171717" stroke-linecap="round" stroke-width="2" d="M112.183 165.975c.637-.082 1.37-.737 1.903-1.028 2.086-1.14 4.222-2.177 6.276-3.374 2.328-1.357 8.858-6.13 6.562-4.721-1.318.809-2.416 2.657-3.436 3.791-1.975 2.198-3.736 4.592-5.644 6.849-.126.148-1.438 1.917-.954 1.518 1.867-1.536 4.263-2.424 6.29-3.756 2.4-1.577 4.93-3.234 6.892-5.353.325-.35 1.419-1.544.514-.497-.853.985-1.729 2.025-2.406 3.139-.174.285-1.502 2.614-1.149 2.94.909.837 9.248-8.008 10.113-8.804.209-.193 2.047-2.363 1.463-1.374-1.063 1.8-2.292 3.431-3.176 5.354-.771 1.677-2.172 3.592-2.576 5.381-.148.655 1.405-.864 1.646-1.073 5.227-4.544 10.018-8.959 13.93-14.728.121-.178 1.074-1.906.474-1.101-.973 1.303-1.684 2.752-2.333 4.237-.605 1.385-.938 2.894-1.396 4.33-.45 1.412.832.094 1.3-.415 1.514-1.642 2.724-3.742 4.037-5.553 1.731-2.386 3.601-4.812 4.975-7.428.026-.05.688-1.514.809-1.405.213.191-.099 1.007-.179 1.19-.711 1.612-1.308 3.194-1.965 4.837a26.22 26.22 0 0 1-1.937 3.855c-.763 1.26.126.003.417-.49.769-1.301 1.18-2.794 2.018-4.041 1.455-2.165 3.007-4.439 4.204-6.758 1.316-2.549 1.423-5.504 1.619-8.304"/><path stroke="#171717" stroke-linecap="round" stroke-width="2" d="M112.869 167.358c2.225.155 4.505-.25 6.694-.597.842-.134 3.113-.014 3.824-.632.788-.685-2.086.244-3.077.57-.37.122-3.309.995-3.347 1.538-.018.256 4.422-.128 4.603-.149 2.98-.346 5.953-1.074 8.969-1.058 1.246.007-.948-.075-1.215-.094-.63-.044-2.452-.306-1.894-.01.748.397 2.087-.067 2.81-.24 2.573-.613 5.107-1.426 7.635-2.198.632-.193 2.386-.308 2.815-.921.071-.102-.868-.108-.901-.106a13.85 13.85 0 0 0-3.39.548c-.414.125-1.252.332-1.534.714-.228.308.778.165 1.148.062 3.604-1.002 7.008-3.493 10.103-5.544.527-.349 2.134-1.35 1.631-.968-.535.406-1.282.625-1.866.961-.85.489-3.168 1.614-3.252 2.819-.027.383 3.358-2.319 3.544-2.493a477.81 477.81 0 0 0 4.74-4.488c.793-.764 1.519-1.678 2.382-2.365 1.343-1.068-2.765 2.033-4.094 3.118a44.771 44.771 0 0 0-2.986 2.638c-.048.046-.985 1.188-.957 1.19.344.024 1.056-.805 1.257-.986 1.023-.926 1.952-1.939 2.911-2.931 1.741-1.8 3.456-3.578 4.865-5.657.651-.96.829-2.229 1.192-3.312.487-1.452 1.099-2.869 1.559-4.326.617-1.951 1.508-3.797 2.131-5.752.318-.998 1.097-2.203 1.17-3.253l.263-3.753.153-2.189c.035-.499.152.07.139.263-.149 2.12-.418 5.118.272 7.099"/><path stroke="#171717" stroke-linecap="round" stroke-width="2" d="m118.234 163.349-13.884-.971-.772-.054c1.576.11 2.898.673 4.395 1.157a64.852 64.852 0 0 0 7.147 1.85c2.794.561-2.018.134-2.657.089l-4.989-.348c1.691.118 3.335.214 4.914.893 3.731 1.606-7.72-2.543-11.51-4.005-.208-.081-3.225-1.45-3.09-1.567.577-.502 3.283.932 3.747 1.113 3.413 1.326 6.912 2.502 10.352 3.762.809.296 3.166 1.234 2.305 1.174"/><path stroke="#171717" stroke-width="1.5" d="M161.494 132.218c-1.544 22.078-20.112 38.765-41.473 37.271-21.361-1.494-37.426-20.602-35.883-42.68 1.544-22.078 20.886-49.822 42.247-48.328 21.361 1.494 36.653 31.659 35.109 53.737Z"/><path stroke="#171717" stroke-linecap="round" stroke-width="1.5" d="M83.405 121.557c.132-1.895.35-3.556 1.589-5.103.531-.663.945-1.778 1.317-2.562.433-.914.997-1.772 1.512-2.643a77.094 77.094 0 0 0 3.272-6.123c.89-1.878 1.694-3.879 2.95-5.577 2.462-3.331 4.63-6.934 7.737-9.74 1.42-1.281 2.934-2.372 4.383-3.632 1.125-.977 2.224-1.956 3.461-2.792 1.486-1.004 3.175-1.695 4.655-2.708 1.887-1.29 3.848-2.112 6.106-2.512 1.978-.35 4.391.213 6.401.353 1.935.135 3.789.213 5.637.868 2.053.728 3.285 1.842 4.89 3.281 2.616 2.345 5.256 4.717 7.599 7.315 1.168 1.295 2.52 2.503 3.719 3.757.566.592 1.012 1.275 1.666 1.78.459.355 1.529 1.038.296.59M151.5 94.79c-.081 1.165 1.337 2.848 1.812 3.918.55 1.243 1.29 2.449 1.675 3.762.676 2.309 1.973 4.444 2.808 6.685.817 2.192 1.601 4.383 2.091 6.698.268 1.266.59 2.462.697 3.746.083 1 .072 2.135.299 3.107.488 2.098.674 4.517.523 6.672-.15 2.15.071 4.407-.081 6.578-.069.989.048 2.255-.234 3.207-.194.653-.844 1.363-.89 2.023"/><path stroke="#171717" stroke-linecap="round" stroke-width="1.5" d="M160.733 138.99c-.284 4.063-2.09 7.288-4.161 10.705-2.4 3.961-4.345 8.144-8.472 10.594-1.625.965-3.117 2.159-4.766 3.08-.656.366-1.571.972-2.135 1.462-.636.553-1.42.791-2.08 1.277-.67.493-1.837.667-2.626.954-.798.289-1.636.407-2.456.628-1.631.44-3.228.752-4.872 1.134"/><path stroke="#171717" stroke-linecap="round" stroke-width="1.5" d="m130.013 168.884-2.6-.182c-.848-.059-2.246-.165-3.08.069-1.634.458-3.526-.025-5.186.343-1.174.261-2.743.146-3.943.062-.975-.068-1.903-.087-2.828-.388-.991-.322-1.86-.828-2.737-1.371-.785-.486-1.697-1.012-2.44-1.561-1.52-1.124-3.433-1.956-5.184-2.68-.838-.345-1.997-1.038-2.735-1.56-1.026-.726-2.07-1.32-3.006-2.201-1.598-1.505-3.2-3.661-4.069-5.688-.66-1.538-1.857-2.727-2.647-4.167-.163-.298-1.38-1.803-1.296-1.797"/><path stroke="#171717" stroke-linecap="round" stroke-width="1.5" d="M89.109 149.204c-.532-.769-.776-2.046-1.165-2.925-.601-1.36-1.457-2.696-2.13-4.036-.646-1.286-1.383-2.681-1.813-4.056-.443-1.417-.548-3.171-.717-4.653-.282-2.482-.17-4.772.036-7.297.186-2.281.786-4.562 1.058-6.846.359-3.008 1.319-6.079 2.503-8.831"/></svg>