<svg width="411" height="269" viewBox="0 0 411 269" fill="none" xmlns="http://www.w3.org/2000/svg">
<path d="M134.269 268.062C60.4951 268.062 0.478516 208.045 0.478516 134.27C0.478516 60.4954 60.4951 0.478516 134.269 0.478516C183.756 0.478516 228.731 27.6729 251.97 70.7208L370.212 34.3489C373.237 33.4194 376.364 32.9461 379.49 32.9461C384.781 32.9461 390.037 34.3151 394.702 36.901C402.24 41.0757 407.631 47.9715 409.862 56.3039C412.093 64.6363 410.876 73.2898 406.431 80.6757C401.986 88.0616 394.904 93.1996 386.504 95.1264L267.519 122.388C267.874 126.36 268.06 130.332 268.06 134.287C268.06 208.062 208.044 268.079 134.269 268.079V268.062Z" fill="white"/>
<path d="M36.1961 106.155C36.6682 110.877 37.7528 115.624 38.5932 120.306C38.8943 121.983 39.2403 126.613 39.7145 122.819C40.5714 115.964 44.5233 108.281 47.1767 101.979C48.39 99.0974 46.549 95.319 47.718 92.313C49.0987 88.7625 46.4162 96.8679 46.1714 97.4554C42.1099 107.203 40.5619 117.971 36.544 127.614C34.9317 131.483 37.1069 119.176 38.3226 115.164C40.5614 107.775 44.0816 100.252 48.5686 93.9369C49.1213 93.1589 49.4192 91.884 49.4192 93.3956C49.4192 96.2052 49.4192 99.0148 49.4192 101.824C49.4192 104.848 48.7563 110.921 49.5739 104.299C50.5512 96.3822 54.1839 88.6427 57.0747 81.255C58.7856 76.8826 58.4537 81.3564 58.08 83.6522C57.3329 88.2412 55.8572 101.837 55.0255 97.262C53.8418 90.7517 57.7477 82.6155 60.5545 77.0019C61.2763 75.5583 65.1125 68.5768 63.6089 74.2567C62.5244 78.3541 59.8585 82.7894 59.8585 87.0546C59.8585 88.917 59.8383 83.2853 60.3225 81.487C61.5017 77.1071 64.236 72.9186 66.2768 68.8824C67.4596 66.543 71.1469 58.4615 70.1432 65.9439C69.4237 71.3071 67.0099 76.3505 65.0395 81.3323C64.6126 82.4116 62.7532 89.9255 61.4051 90.2251C61.0841 90.2964 62.7002 85.6331 62.7583 85.5081C64.9498 80.7963 67.8814 76.3308 70.3365 71.7435C72.5302 67.6449 75.3008 63.8911 77.876 60.0282C77.9257 59.9537 79.7819 57.3115 80.0025 57.863C80.6551 59.4944 78.4422 63.3765 77.992 64.7066C77.2661 66.8513 76.9532 69.2128 75.5562 71.0089C74.4591 72.4195 73.0817 77.5516 73.0817 75.7646C73.0817 68.3376 80.0837 61.1843 85.0675 56.2005C86.0838 55.1842 87.3874 51.1288 87.3874 52.566C87.3874 55.3841 84.5443 60.142 83.521 62.8507C82.8552 64.613 81.8249 66.7405 82.8637 63.624C84.5107 58.6829 89.7354 53.203 93.883 50.2075C96.0888 48.6144 96.3375 47.9399 94.6562 50.9421C92.4549 54.8732 87.454 67.4593 89.1273 63.2761C91.7686 56.6727 96.2096 52.7139 101.074 47.849C105.913 43.0103 100.46 50.7793 99.2573 53.1847C97.5572 56.5849 99.7203 53.0363 100.92 51.8701C103.841 49.0298 107.117 45.7798 110.509 43.5186C113.336 41.6333 109.788 45.8451 109.426 46.4571C107.953 48.9493 105.792 54.3446 105.792 54.3446C105.792 54.3446 109.023 50.468 111.05 49.0089C114.777 46.3255 118.121 43.49 122.069 41.1214C122.692 40.7474 121.111 42.2277 120.755 42.8613C120.001 44.2011 119.514 45.5512 118.357 46.6117C116.492 48.3219 117.261 48.4556 119.131 46.9597C122.696 44.1076 127.25 40.1406 131.387 38.2602C135.334 36.4661 132.414 39.1284 131.542 40.7347C131.233 41.3039 128.621 45.8222 129.609 45.4518C132.43 44.3938 134.579 41.3309 137.651 40.1934C142.929 38.2384 137.049 43.6158 136.375 46.6504C135.945 48.5859 137.661 46.081 138.849 45.2585C141.216 43.6197 143.7 42.0154 146.505 41.392C148.29 40.9953 143.933 44.8145 144.069 46.9984C144.101 47.5105 149.282 44.7011 150.178 44.3692C151.539 43.865 153.074 42.982 154.508 42.8226C156.654 42.5841 155.455 43.2684 154.16 44.5625C153.636 45.0872 151.115 48.4317 153.503 47.3463C155.583 46.4009 157.924 46.027 160.076 45.2585C161.174 44.8665 163.95 43.5577 163.517 44.6398C163.354 45.0475 158.51 51.1067 162.86 48.9316C165.864 47.4297 168.759 47.3517 171.907 46.3024" stroke="#C6C6C8" stroke-width="4" stroke-linecap="round"/>
<path d="M373.297 48.3627C382.335 45.5831 391.874 50.8606 394.322 59.9939V59.9939C396.769 69.1272 391.146 78.4674 381.93 80.5791L249.772 110.859L247.237 101.886L244.702 95.1258L242.167 88.6923L373.297 48.3627Z" fill="white" stroke="#171717" stroke-width="2.5"/>
<ellipse cx="8.65464" cy="8.65457" rx="8.65464" ry="8.65457" transform="matrix(0.258817 0.965926 -0.965925 0.258821 381.632 54.4355)" stroke="#171717" stroke-width="2.5"/>
<ellipse cx="133.002" cy="134.148" rx="119" ry="119.001" stroke="#171717" stroke-width="2.5"/>
<ellipse cx="133.001" cy="134.148" rx="97.3639" ry="97.3647" stroke="#171717" stroke-width="2.5"/>
<path d="M243.617 89.0916C248.198 89.0916 252.362 88.6112 256.803 87.6018C258.082 87.3111 259.171 86.4392 260.385 85.9535C261.461 85.523 262.43 85.2316 263.444 84.6857C264.66 84.0305 266.127 83.74 267.422 83.3702C273.477 81.6402 279.505 78.807 285.425 76.5395C297.057 72.0848 309.099 68.598 320.863 64.5579C326.11 62.7556 331.676 61.7481 337.028 60.2788C342.137 58.8764 347.166 57.2848 352.306 55.9997C359.132 54.2932 366.113 51.9457 373.131 51.1659C378.58 50.5604 385.026 49.9729 389.787 53.147C394.141 56.0497 393.385 62.169 393.385 66.7451C393.385 70.4118 392.654 74.2187 389.74 76.6029C389.012 77.198 387.221 77.0275 386.317 77.1734C384.958 77.3925 383.399 77.9263 382.101 78.3938C380.224 79.0696 378.486 80.1533 376.506 80.5492C372.959 81.2588 369.396 82.855 365.935 83.8932C361.782 85.1392 357.405 86.0194 353.431 87.8078C350.818 88.9836 347.416 89.7654 344.603 90.2961C341.418 90.897 338.296 91.9126 335.063 92.4515C331.375 93.0661 327.623 93.7488 323.921 94.2265C320.449 94.6746 317.167 95.7414 313.731 96.2868C310.329 96.8268 306.881 98.3343 303.54 99.2188C300.301 100.076 297.332 101.21 293.968 101.644C289.723 102.191 285.557 103.201 281.273 103.577C276.563 103.991 271.976 104.832 267.295 105.352C263.428 105.782 259.273 107.12 255.535 108.205C253.944 108.667 251.813 109.917 250.178 109.917" stroke="#171717" stroke-width="1.5" stroke-linecap="round"/>
<path d="M38.0793 113.456C38.0793 111.15 38.0004 108.875 38.3382 106.595C38.5421 105.219 39.3879 103.855 40.1507 102.711C40.9885 101.454 41.4885 100.044 42.2796 98.7551C43.4959 96.773 44.5984 94.7043 45.8471 92.7422C46.9922 90.9427 48.6262 89.2059 49.4721 87.2471C50.2482 85.4496 51.6413 83.6257 52.8525 82.1117C55.6803 78.5769 58.1474 74.7259 61.1238 71.3086C63.7316 68.3144 66.3826 65.5468 69.2943 62.8358C72.379 59.9639 75.8846 57.7087 79.2486 55.1974C84.0736 51.5957 89.0418 48.3334 94.2089 45.3006C97.1713 43.5618 100.765 42.8421 104.106 42.1071C108.228 41.2002 112.272 40.232 116.477 39.7192C123.924 38.8109 131.36 38.626 138.859 38.626" stroke="#171717" stroke-width="1.5" stroke-linecap="round"/>
<path d="M136.225 38.2781C139.641 38.2781 143.064 38.2149 146.48 38.2781C149.325 38.3308 152.15 39.0744 154.934 39.5562C156.299 39.7924 157.643 40.3063 158.968 40.7111C161.027 41.3401 162.981 42.2043 165.02 42.8515C168.618 43.9938 171.736 46.4648 175.198 47.9484C177.073 48.7521 178.795 49.9341 180.503 51.0358C182.13 52.0856 183.777 53.1038 185.453 54.0771C188.379 55.7758 191.146 57.7152 193.738 59.8669C194.912 60.8417 196.284 61.5968 197.356 62.6695C198.724 64.0375 200.09 65.4389 201.422 66.8579C203.906 69.5062 207.57 70.8834 209.529 74.0182C209.832 74.5035 210.139 74.9787 210.222 75.5581C210.24 75.6884 210.368 76.2435 210.368 75.8352" stroke="#171717" stroke-width="1.5" stroke-linecap="round"/>
<path d="M209.673 75.2812C209.744 75.9207 210.739 76.8737 211.09 77.4217C211.868 78.6395 212.821 79.7466 213.553 80.9941C214.681 82.9137 215.766 84.8523 217.049 86.6762C220.055 90.9517 222.069 96.2187 223.562 101.197C224.394 103.971 224.68 106.845 225.333 109.651C225.838 111.82 226 114.044 226.58 116.195C227.107 118.148 227.567 120.133 228.105 122.093C228.272 122.703 228.342 123.353 228.628 123.925C228.784 124.236 228.85 124.401 228.659 123.925" stroke="#171717" stroke-width="1.5" stroke-linecap="round"/>
<path d="M228.938 121.846C228.938 123.533 228.858 125.245 229.146 126.912C229.468 128.78 229.399 130.742 229.846 132.594C230.332 134.606 230.444 136.733 230.709 138.784C230.967 140.789 230.878 142.83 230.878 144.851C230.878 147.205 230.215 149.491 229.7 151.781C229.138 154.279 228.551 156.829 227.76 159.264C226.872 161.996 225.807 164.651 224.75 167.318C223.923 169.403 222.973 171.384 222.347 173.546C222.135 174.281 221.968 175.047 221.731 175.756" stroke="#171717" stroke-width="1.5" stroke-linecap="round"/>
<path d="M148.97 229.8C151.62 229.8 154.359 230.133 156.855 229.225C158.474 228.636 160.188 227.881 161.898 227.501C163.454 227.156 165.451 226.024 166.942 225.347C168.155 224.795 169.799 224.836 170.948 224.197C172.805 223.166 174.922 222.452 176.838 221.468C179.087 220.313 181.268 219.115 183.382 217.733C184.596 216.939 185.921 215.593 187.244 215.083C189.003 214.407 191.29 212.978 192.639 211.7C193.889 210.515 195.46 209.713 196.805 208.667C198.435 207.399 199.644 205.844 201.099 204.389C202.751 202.737 204.728 200.748 205.999 198.771C207.207 196.892 209.032 195.416 210.292 193.584C212.523 190.339 214.657 186.967 217.347 184.119C219.508 181.83 221.082 179.33 221.082 176.074" stroke="#171717" stroke-width="1.5" stroke-linecap="round"/>
<path d="M73.6963 212.848C75.1656 212.995 77.0277 215.221 78.1654 216.152C79.3316 217.106 80.7228 217.843 82.028 218.53C83.6131 219.364 85.4829 219.63 87.0557 220.477C88.6911 221.358 90.4008 222.32 92.1473 222.967C93.6492 223.523 95.0797 224.388 96.5526 225.058C98.0168 225.724 99.7779 225.975 101.277 226.574C103.152 227.324 105.611 227.869 107.582 228.362C109.463 228.832 111.343 229.514 113.2 230.086C117.004 231.256 120.851 231.81 124.82 231.81C128.597 231.81 132.47 232.097 136.184 232.097C139.772 232.097 143.407 231.81 146.942 231.81C149.96 231.81 152.795 229.798 155.864 229.798" stroke="#171717" stroke-width="1.5" stroke-linecap="round"/>
<path d="M74.558 213.137C72.4761 211.055 70.5005 208.998 68.4609 206.88C66.9554 205.317 65.7329 203.484 64.3589 201.805C63.8229 201.15 63.1706 201.029 62.7149 200.209C62.2939 199.451 61.2549 198.932 60.7038 198.197C57.5218 193.955 54.0343 190.146 52.2125 185.045C51.5493 183.188 50.3839 181.391 49.8503 179.523C49.4701 178.192 48.9042 176.445 48.3499 175.213C45.7501 169.436 43.712 163.455 41.8059 157.401C40.8085 154.233 39.963 151.095 39.5075 147.792C39.1457 145.169 38.1464 142.515 38.071 139.875C37.9664 136.215 37.7837 132.484 37.7837 128.894C37.7837 126.054 37.4964 123.214 37.4964 120.355C37.4964 119.08 37.2281 117.428 37.7837 116.316" stroke="#171717" stroke-width="1.5" stroke-linecap="round"/>
<path d="M14.4395 123.316C14.4395 118.718 15.3601 113.902 17.4424 109.737C19.2688 106.084 21.1618 101.925 22.0701 97.9287C22.4787 96.1307 23.4181 94.4136 24.101 92.7062C24.9367 90.6169 25.5375 88.2966 26.7123 86.3666C27.8629 84.4763 28.5332 82.2169 29.5266 80.2301C30.7687 77.7459 31.7705 75.1417 33.2404 72.7735C35.1606 69.6798 36.7175 66.141 39.1156 63.3875C41.2713 60.9124 43.2154 58.3071 45.5132 55.9454C46.7469 54.6774 47.6721 53.0757 48.9078 51.7674C49.7238 50.9033 50.4862 49.9297 51.2724 49.0256C51.7747 48.4479 52.7833 47.1145 53.4775 46.806C54.3937 46.3987 54.9663 45.1879 55.5519 44.4559C56.4066 43.3876 57.225 42.1445 58.1922 41.1773C60.006 39.3634 61.8726 37.687 64.2561 36.6221" stroke="#171717" stroke-width="1.5" stroke-linecap="round"/>
<path d="M61.1758 38.7092C63.157 38.7092 64.9681 37.68 66.5578 36.6202C68.962 35.0174 71.5164 33.565 73.9708 32.065C77.5586 29.8725 81.2192 27.7593 85.0831 26.0591C89.5425 24.097 93.9089 20.879 98.7631 19.9082C103.615 18.9378 108.315 17.4141 113.27 16.7747C116.876 16.3093 120.423 15.5956 124.049 15.2659C126.513 15.0419 128.953 14.8137 131.418 14.6276C133.694 14.4558 136 14.5875 138.265 14.3665C145.262 13.6839 152.971 13.7355 159.561 16.4555C162.973 17.8636 166.465 19.033 169.861 20.4884C173.411 22.01 176.903 23.8311 180.306 25.6529" stroke="#171717" stroke-width="1.5" stroke-linecap="round"/>
<path d="M172.156 20.9521C173.637 21.1167 174.688 22.6453 176.073 23.0412C177.69 23.5032 179.273 24.8807 180.773 25.6524C185.558 28.1129 190.835 29.7703 195.454 32.4997C206.038 38.7538 215.92 46.5241 223.917 55.943C226.128 58.5478 228.411 61.0885 230.372 63.9074C232.437 66.8753 233.725 70.1411 235.609 73.1774C238.568 77.9438 240.174 83.7659 241.934 89.048C242.351 90.2982 242.823 91.7021 243.167 92.9069C243.424 93.8034 244.126 94.9908 244.226 95.8953C244.376 97.2459 245.477 98.5873 245.779 99.9428C245.94 100.668 246.246 101.502 246.577 102.162" stroke="#171717" stroke-width="1.5" stroke-linecap="round"/>
<path d="M245.011 97.7246C245.011 102.652 247.641 107.375 249.595 111.84C251.995 117.325 252.398 123.683 253.164 129.524C254.206 137.476 253.914 146.137 252.453 154.026C252.107 155.895 252.009 158.119 251.22 159.873C250.423 161.644 249.552 163.353 248.681 165.095C247.123 168.212 246.115 171.124 245.272 174.496" stroke="#171717" stroke-width="1.5" stroke-linecap="round"/>
<path d="M118.868 252.753C124.33 252.753 129.791 252.753 135.253 252.753C139.744 252.753 143.642 251.956 148.038 251.142C154.367 249.97 161.014 249.636 167.186 247.921C170.529 246.993 173.663 245.767 176.83 244.342C180.113 242.865 183.542 241.829 186.593 239.868C192.068 236.348 198.178 233.32 202.977 228.773C204.719 227.123 206.935 225.751 208.863 224.319C212.814 221.383 216.827 217.947 219.938 214.118C221.758 211.879 223.575 209.654 225.168 207.218C226.959 204.478 229.409 202.139 231.093 199.384C235.261 192.564 239.486 186.265 242.705 179.023C243.647 176.904 244.215 174.454 244.853 172.222C245.436 170.18 247.358 168.187 247.358 166.138" stroke="#171717" stroke-width="1.5" stroke-linecap="round"/>
<path d="M17.9395 108.871C17.9395 113.254 16.1068 116.975 15.454 121.219C14.8658 125.042 14.3604 128.545 14.3604 132.493C14.3604 139.124 16.8733 145.267 17.6014 151.821C18.1372 156.643 19.2574 161.45 20.5244 166.137C21.3562 169.215 22.7138 172.146 23.7456 175.165C25.261 179.599 26.53 184.004 28.3189 188.348C31.1777 195.291 35.6951 200.339 40.7662 205.786C42.6505 207.81 43.668 210.584 45.5185 212.666C46.3152 213.562 46.949 214.482 47.6461 215.45C47.9457 215.866 49.4071 216.245 48.3619 216.245" stroke="#171717" stroke-width="1.5" stroke-linecap="round"/>
<path d="M45.1426 214.099C47.6358 216.343 49.9764 219.25 52.8178 221.058C57.0784 223.769 61.0088 226.985 65.1856 229.847C69.95 233.111 74.7001 236.181 79.681 239.133C83.555 241.428 87.6765 242.936 91.671 244.879C94.8928 246.447 98.4662 247.362 101.693 248.975C105.036 250.647 109.543 250.471 113.146 251.322C118.448 252.574 123.874 253.249 129.252 253.847C130.844 254.024 141.192 254.086 141.063 253.827" stroke="#171717" stroke-width="1.5" stroke-linecap="round"/>
<path d="M372.411 56.242C372.009 56.242 371.595 56.2116 371.195 56.2516C370.33 56.338 369.539 56.8549 368.833 57.3197C368.247 57.7056 367.692 58.2025 367.195 58.6992C366.876 59.0179 366.478 59.3165 366.376 59.777C365.867 62.0675 366.117 64.5237 366.117 66.8661C366.117 67.97 366.331 68.9529 366.678 69.9939C367.01 70.992 367.921 71.5987 368.828 72.068C370.299 72.8289 371.665 73.6662 373.312 74.0462C374.967 74.4281 376.398 74.2105 377.843 73.3565C379.541 72.3531 380.778 71.1192 381.742 69.4143C382.326 68.3817 382.628 67.134 382.887 65.9847C383.173 64.7138 383.326 63.0969 382.844 61.8558C382.412 60.7456 381.694 59.6773 380.861 58.8286C380.004 57.9556 378.857 56.889 377.67 56.5006C377.04 56.2943 376.42 56.0519 375.774 55.8971C375.107 55.7376 374.385 55.8109 373.704 55.8109C373.188 55.8109 372.574 55.7172 372.066 55.83C371.79 55.8914 371.487 55.9833 371.204 55.9833" stroke="#171717" stroke-width="1.5" stroke-linecap="round"/>
<g filter="url(#filter0_dd_998_2544)">
<path d="M119.254 74.2711C115.216 72.6729 109.364 71.3764 103.539 72.3179C96.7838 73.4098 90.2874 77.5177 87.1068 86.6782C83.3564 97.4798 85.3949 104.895 87.7533 111.395C87.9834 112.028 88.212 112.646 88.4361 113.251C90.4608 118.719 92.1116 123.177 90.9922 129.588C89.3003 139.278 92.7969 150.063 99.9801 157.045C107.412 164.268 118.617 167.247 131.412 161.376C137.426 158.617 141.525 155.685 144.565 152.697C147.507 149.805 149.335 146.968 150.824 144.658C150.865 144.595 150.905 144.533 150.945 144.471C152.495 142.067 153.589 140.447 155.231 139.111C156.805 137.831 159.154 136.613 163.405 135.775C172.552 133.971 176.601 124.355 176.472 115.875C176.336 106.998 171.839 97.0529 161.487 92.3479C160.895 92.0788 160.217 91.3361 158.76 88.7893C158.635 88.5706 158.505 88.3416 158.37 88.1036C157.151 85.9471 155.515 83.0564 153.01 80.4889C147.13 74.4639 137.502 71.0507 119.254 74.2711Z" fill="white" stroke="white" stroke-width="8"/>
<path d="M123.485 92.5645C125.189 92.5645 127.07 93.4749 128.544 94.2031C133.71 96.7548 138.415 100.227 143.197 103.415C145.106 104.687 145.243 105.914 146.956 107.456C147.673 108.101 150.036 109.428 149.072 109.428C147.825 109.428 145.938 108.004 144.904 107.456C141.743 105.78 140.459 104.46 137.358 102.651C134.859 101.193 132.182 99.9905 129.722 98.5145C128.78 97.9498 124.401 94.4953 127.542 96.5895C130.587 98.6191 134.736 100.25 137.088 103.144C138.696 105.124 141.056 106.985 143.022 108.601C143.903 109.325 144.811 110.01 145.822 110.542C146.239 110.761 145.184 111.333 145.981 111.115C139.861 110.002 134.654 105.731 128.942 103.59C127.549 103.067 126.05 102.916 124.631 102.428C123.801 102.143 121.99 101.633 121.353 100.996C121.024 100.667 121.305 100.116 121.131 99.7236C120.635 98.6083 119.6 97.6993 118.903 96.7009C118.747 96.4761 116.797 94.663 117.949 94.919C121.157 95.6319 124.454 97.9901 127.208 99.66C132.213 102.695 137.147 105.718 141.956 109.031C143.643 110.193 143.625 111.446 144.808 113.167C145.127 113.63 145.734 114.096 146.256 114.328C146.363 114.376 147.062 115.012 146.908 115.124C145.63 116.053 143.192 113.321 142.099 112.833C138.649 111.291 135.522 109.217 132.363 107.169C129.903 105.575 127.058 104.532 124.344 103.446C122.507 102.712 120.631 102.127 118.903 101.155C118.679 101.029 116.4 99.3601 116.517 99.31C117.019 99.0949 118.25 99.678 118.681 99.8509C122.34 101.321 125.808 103.436 129.26 105.324C133.915 107.869 138.555 110.439 143.197 113.008C144.692 113.836 144.44 114.567 145.699 115.76C146.516 116.534 144.15 114.893 143.849 114.774C137.645 112.326 131.359 109.968 125.553 106.66C122.365 104.843 119.185 103.043 116.04 101.155C114.543 100.258 113.005 99.5525 111.76 98.3077C111.622 98.1699 110.711 97.4327 110.822 97.4327C114.343 97.4327 118.32 100.773 121.21 102.444C126.538 105.526 131.754 108.662 136.913 112.021C140.818 114.564 142.531 117.183 146.686 119.26C147.812 119.824 145.47 119.457 145.126 119.419C141.072 118.969 139.074 117.616 135.226 116.333C131.977 115.25 128.463 114.343 125.649 112.308C123.586 110.815 121.585 109.252 119.635 107.615C118.034 106.27 116.918 104.272 115.324 103.033C115.05 102.82 114.634 102.711 114.322 102.524C112.634 101.511 118.046 103.818 119.826 104.655C128.114 108.556 136.721 112.015 143.976 117.701C144.969 118.479 143.906 119.599 144.808 120.501C145.312 121.005 141.312 120.26 140.89 120.167C134.877 118.837 128.846 117.435 123.215 114.885C116.894 112.023 112.07 107.849 106.653 103.733C100.921 99.376 119.559 110.122 126.031 113.278C132.022 116.201 138.167 118.911 144.056 122.028C144.154 122.08 146.063 123.174 145.647 123.174C145.12 123.174 144.397 122.735 143.913 122.569C142.141 121.964 140.381 121.33 138.599 120.756C133.448 119.096 128.172 117.489 123.199 115.347C118.773 113.44 114.939 110.672 110.949 108.028C110.576 107.781 108.499 106.031 109.103 106.66C110.759 108.382 112.171 109.947 114.29 111.242C122.124 116.029 130.692 120.079 138.917 124.192C139.907 124.687 140.892 125.153 141.813 125.767C141.955 125.862 143.813 126.61 143.34 126.61C142.752 126.61 142.063 126.128 141.574 125.878C139.39 124.764 137.123 123.836 134.876 122.856C129.833 120.655 124.622 118.878 119.603 116.619C116.508 115.227 113.437 113.347 110.885 111.178C110.198 110.594 109.153 109.982 108.324 109.619C107.129 109.097 108.499 109.148 109.071 109.365C113.413 111.011 117.557 113.446 121.735 115.458C125.834 117.431 129.857 119.529 133.906 121.599C135.721 122.527 137.239 123.695 138.949 124.701C139.359 124.942 141.756 126.995 141.176 127.151C139.607 127.574 136.692 126.164 135.21 125.783C130.49 124.569 125.934 122.971 121.513 120.915C116.083 118.389 111.944 115.058 108.196 110.478C108.013 110.253 108.038 110.073 108.371 110.24C109.914 111.011 111.305 112.289 112.731 113.247C119.324 117.676 126.625 121.189 133.826 124.51C137.184 126.059 140.68 127.318 143.976 128.997C144.116 129.068 145.885 130.2 145.758 130.301C145.512 130.499 144.67 130.37 144.422 130.365C142.163 130.315 139.949 129.841 137.756 129.331C131.724 127.927 125.698 126.144 119.922 123.906C115.212 122.081 111.092 119.554 107.194 116.365C106.057 115.434 104.195 114.555 103.328 113.342C103.135 113.072 103.879 113.209 103.917 113.215C105.04 113.394 106.041 114.121 107.003 114.678C111.197 117.108 115.476 119.394 119.699 121.774C123.677 124.016 127.563 126.595 131.79 128.36C133.311 128.996 135.225 129.434 136.595 130.365C136.951 130.608 136.753 130.645 136.404 130.588C134.555 130.285 132.736 129.71 130.947 129.172C124.056 127.098 117.136 125.073 110.408 122.506C108.46 121.763 106.096 120.68 104.458 119.34C104.209 119.136 103.336 118.331 104.219 118.799C111.557 122.683 119.594 125.343 127.081 128.933C128.634 129.678 130.245 130.229 131.79 131.001C133.916 132.064 132.172 131.82 130.74 131.383C125.614 129.819 120.637 127.816 115.467 126.372C110.82 125.073 106.191 123.833 101.642 122.219C99.1154 121.323 104.402 122.407 104.824 122.538C111.245 124.519 117.44 127.118 123.676 129.601C127.492 131.12 131.408 132.522 135.163 134.024C139.719 135.846 125.312 133.174 120.622 131.733C118.069 130.949 115.412 130.006 113.033 128.79C112.12 128.323 108.979 127.409 108.642 126.228C108.601 126.084 113.896 126.857 114.29 126.944C116.634 127.465 118.749 128.267 120.876 129.331C123.506 130.646 126.151 132.234 128.926 133.229C130.749 133.882 133.33 134.947 135.226 134.947" stroke="#FFD424" stroke-width="4" stroke-linecap="round"/>
<path d="M104.77 153.624C104.909 154.252 106.383 155.137 106.814 155.596C107.524 156.354 108.322 157.521 109.259 158.032C109.834 158.345 108.914 157.023 108.823 156.859C108.313 155.944 107.658 154.857 107.423 153.824C107.199 152.839 109.507 155.124 109.759 155.36C110.985 156.509 112.36 157.61 113.503 158.84C114.21 159.602 113.285 157.319 113.203 157.15C112.918 156.567 112.106 155.24 112.303 154.551C112.373 154.306 112.735 154.824 112.93 154.987C113.918 155.815 114.878 156.675 115.856 157.514C116.063 157.69 118.928 159.762 118.928 159.531C118.928 158.16 117.705 156.816 117.11 155.66C116.594 154.656 116.779 154.639 117.837 155.242C119.848 156.386 121.711 157.997 123.881 158.831C125.157 159.322 126.004 159.486 125.353 157.859C124.824 156.538 123.65 155.708 123.026 154.46C122.645 153.696 124.92 155.213 125.126 155.342C125.929 155.846 126.717 156.27 127.634 156.532C128.446 156.764 127.018 154.457 126.925 154.315C126.828 154.166 125.715 152.497 125.989 152.497C126.664 152.497 127.457 153.04 127.997 153.37C129.11 154.048 130.182 154.773 131.323 155.405C131.697 155.612 133.929 157.014 134.304 156.169C134.731 155.208 132.831 153.445 132.287 152.806C131.907 152.36 131.092 151.58 132.323 152.061C133.898 152.677 135.41 153.509 137.158 153.461C139.921 153.384 135.927 149.383 136.185 148.481C136.301 148.077 138.583 148.58 138.857 148.635C139.396 148.743 140.91 149.417 141.065 148.444C141.204 147.577 140.828 146.755 140.629 145.936C140.392 144.96 141.405 146.178 141.574 146.39C141.751 146.613 142.228 147.613 142.228 147.045C142.228 146.512 142.228 145.978 142.228 145.445" stroke="#C6C6C8" stroke-width="2.5" stroke-linecap="round"/>
<path d="M90.8503 88.0205C96.1669 72.7081 111.675 75.2601 118.764 78.4502C155.451 71.5383 151.994 92.4727 159.797 96.0196C177.115 103.892 175.253 129.385 162.596 131.881C143.721 135.602 152.305 147.403 129.709 157.77C107.112 168.138 91.9731 147.054 94.8974 130.306C97.8216 113.558 84.2046 107.161 90.8503 88.0205Z" stroke="#171717" stroke-width="2.5"/>
<circle cx="125.761" cy="114.394" r="21.3942" stroke="#171717" stroke-width="2.5"/>
<circle cx="125.761" cy="114.394" r="21.3942" stroke="#171717" stroke-width="2.5"/>
<path d="M119.562 78.5267C116.805 78.5267 114.308 78.2764 111.749 77.1856C109.758 76.3369 106.85 75.5112 104.693 76.3498C103.649 76.7559 102.809 77.3795 101.719 77.6909C100.647 77.9973 99.7931 78.4631 98.9205 79.1487C97.8668 79.9766 97.0925 81.2571 96.1216 82.2003C95.3405 82.959 94.5784 83.7004 93.8475 84.4744C92.4796 85.9227 90.947 87.359 90.3878 89.3724C89.6528 92.0182 89.1244 94.9293 89.1244 97.672C89.1244 99.2098 88.8998 100.939 89.1632 102.453C89.4635 104.18 89.9167 105.813 90.4363 107.488C91.7493 111.718 93.3729 115.83 94.3723 120.16" stroke="#171717" stroke-width="1.5" stroke-linecap="round"/>
<path d="M94.373 120.51C94.373 122.347 94.373 124.183 94.373 126.02C94.373 128.116 94.1646 130.338 94.5091 132.405C94.7135 133.632 95.1806 134.756 95.5198 135.943C95.8751 137.186 95.9737 138.565 96.2098 139.84C96.4508 141.141 97.0233 142.307 97.3468 143.601C97.6788 144.929 97.6597 146.426 98.1438 147.702C99.088 150.191 100.959 152.124 102.634 154.097C103.701 155.354 105.229 157.135 106.696 157.935C107.903 158.594 109.04 159.075 110.428 159.383C111.134 159.54 111.835 160.044 112.566 160.044C113.615 160.044 114.665 160.044 115.715 160.044" stroke="#171717" stroke-width="1.5" stroke-linecap="round"/>
<path d="M116.064 160.045C117.652 160.045 119.239 160.045 120.826 160.045C122.647 160.045 124.238 159.303 125.948 158.733C128.781 157.789 131.752 157.796 134.52 156.546C136.618 155.598 139.2 154.541 140.866 152.911C142.536 151.278 143.822 149.143 145.278 147.314C145.842 146.605 146.521 145.96 147.027 145.214C147.515 144.496 147.735 143.65 148.252 142.911C149.37 141.314 150.8 139.951 151.925 138.343C153.34 136.322 154.548 134.593 156.823 133.455" stroke="#171717" stroke-width="1.5" stroke-linecap="round"/>
<path d="M156.998 133.28C159.252 133.28 161.517 133.105 163.781 133.105C164.917 133.105 165.504 131.554 166.094 130.734C167.641 128.586 168.603 125.929 169.554 123.484C170.255 121.681 170.706 119.808 171.265 117.973C172.722 113.186 171.881 108.787 168.718 104.902C168.117 104.163 167.006 103.274 166.619 102.405C166.32 101.732 165.857 101.136 165.57 100.451C164.891 98.8295 164.422 97.3965 163.296 96.0195" stroke="#171717" stroke-width="1.5" stroke-linecap="round"/>
<path d="M163.997 97.0694C163.458 97.0694 163.286 96.4651 162.869 96.2336C162.163 95.841 161.546 95.2219 160.848 94.8341C159.375 94.0162 157.564 93.5648 156.338 92.3851C154.525 90.6384 152.288 89.1764 151.227 86.7873C150.129 84.3184 147.771 82.1608 145.59 80.6258C144.773 80.0507 143.716 79.7585 142.791 79.4013C141.575 78.9315 140.216 78.4147 138.943 78.1379C138.202 77.9768 137.532 77.603 136.804 77.3993C136.261 77.2471 135.687 77.2891 135.133 77.1661C133.949 76.9029 132.497 77.1272 131.284 77.1272C129.819 77.1272 128.352 77.5479 126.911 77.788C125.472 78.0279 124.008 78.0329 122.577 78.3128C121.646 78.495 120.783 78.5244 119.914 78.9154C119.068 79.2961 118.274 79.3621 117.465 78.8765" stroke="#171717" stroke-width="1.5" stroke-linecap="round"/>
<path d="M123.033 94.9434C120.22 94.9434 117.511 94.7925 114.791 95.626C112.577 96.3046 109.652 97.9685 108.356 99.9622C104.498 105.897 104.719 113.097 104.829 119.924C104.878 122.967 106.965 126.372 108.875 128.621C110.904 131.012 113.661 133.146 116.536 134.411C118.997 135.494 121.936 136.982 124.677 137.041C127.667 137.104 129.728 136.41 132.477 135.334C134.4 134.582 136.355 132.568 137.799 131.124C138.711 130.212 139.601 128.999 140.328 127.939C141.195 126.672 142.312 125.436 143.008 124.07C144.103 121.92 145.21 119.657 145.612 117.244C146.161 113.946 146.261 109.358 145.094 106.22C142.863 100.224 136.31 98.411 130.593 97.1683C128.519 96.7174 126.478 96.088 124.399 95.626C122.678 95.2437 120.839 95.2738 119.165 94.7158" stroke="#171717" stroke-width="1.5" stroke-linecap="round"/>
</g>
<defs>
<filter id="filter0_dd_998_2544" x="73.0352" y="64" width="115.439" height="116.491" filterUnits="userSpaceOnUse" color-interpolation-filters="sRGB">
<feFlood flood-opacity="0" result="BackgroundImageFix"/>
<feColorMatrix in="SourceAlpha" type="matrix" values="0 0 0 0 0 0 0 0 0 0 0 0 0 0 0 0 0 0 127 0" result="hardAlpha"/>
<feOffset dy="2"/>
<feGaussianBlur stdDeviation="1"/>
<feComposite in2="hardAlpha" operator="out"/>
<feColorMatrix type="matrix" values="0 0 0 0 0 0 0 0 0 0 0 0 0 0 0 0 0 0 0.02 0"/>
<feBlend mode="normal" in2="BackgroundImageFix" result="effect1_dropShadow_998_2544"/>
<feColorMatrix in="SourceAlpha" type="matrix" values="0 0 0 0 0 0 0 0 0 0 0 0 0 0 0 0 0 0 127 0" result="hardAlpha"/>
<feOffset dy="4"/>
<feGaussianBlur stdDeviation="4"/>
<feComposite in2="hardAlpha" operator="out"/>
<feColorMatrix type="matrix" values="0 0 0 0 0 0 0 0 0 0 0 0 0 0 0 0 0 0 0.06 0"/>
<feBlend mode="normal" in2="effect1_dropShadow_998_2544" result="effect2_dropShadow_998_2544"/>
<feBlend mode="normal" in="SourceGraphic" in2="effect2_dropShadow_998_2544" result="shape"/>
</filter>
</defs>
</svg>
