<svg width="403" height="253" viewBox="0 0 403 253" fill="none" xmlns="http://www.w3.org/2000/svg">
<path d="M252.287 106.294C256.735 106.294 260.961 105.016 265.362 104.527C270.122 103.998 274.986 103.582 279.692 102.662C286.686 101.293 293.715 99.8897 300.757 98.716C315.406 96.2745 329.77 92.969 344.109 89.0583C357.501 85.4061 371.402 82.5275 383.896 76.2803C386.981 74.7377 389.761 72.6315 392.547 70.6343C393.65 69.8431 396.022 67.7084 396.112 66.1769C396.195 64.7673 396.524 65.2013 395.667 65.5826C394.473 66.1132 393.233 67.2859 392.068 67.9763C386.285 71.4034 380.224 74.2975 374.057 76.9407C367.279 79.8455 360.498 82.068 353.338 83.858C342.716 86.5135 332.341 89.5707 321.459 91.1384C318.828 91.5175 316.15 91.5869 313.502 91.7988C310.611 92.03 307.773 92.6902 304.884 92.9214C298.986 93.3932 293.302 95.5278 287.649 97.0981C284.717 97.9126 281.869 98.7774 278.899 99.4589C276.378 100.037 273.831 100.356 271.371 101.176C267.273 102.542 263.164 104.299 259.188 105.996C256.686 107.064 253.797 107.76 251.098 108.06C250.316 108.147 248.458 107.773 250.075 107.185C254.147 105.704 258.406 104.397 262.622 103.388C264.6 102.915 266.645 102.527 268.598 101.985C269.874 101.63 267.461 101.836 267.145 101.836C263.49 101.836 259.844 101.705 256.332 102.876C255.22 103.247 254.281 103.322 253.112 103.322C252.674 103.322 254.84 102.989 255.292 102.876C258.12 102.169 266.891 101.836 263.975 101.836C260.709 101.836 257.485 103.025 254.252 103.025C253.618 103.025 256.314 102.609 256.629 102.546C260.056 101.861 263.529 101.16 266.914 100.284C274.663 98.2786 282.299 95.858 290.092 94.044C292.114 93.5734 294.091 93.1898 296.135 92.8553C296.467 92.8009 298.334 92.6242 297.109 92.6242C292.391 92.6242 288.308 93.1446 283.802 94.7043C281.979 95.3354 280.118 95.933 278.321 96.6359C277.932 96.7884 276.817 97.3398 277.909 97.3788C282.333 97.5368 286.81 97.4272 291.215 97.0156C295.413 96.6232 299.421 94.8215 303.531 93.9614C307.609 93.1078 311.664 92.366 315.747 91.5841C322.638 90.2646 329.421 88.948 336.152 86.9121C344.669 84.3362 353.171 81.9748 361.807 79.8463C363.77 79.3624 365.844 78.7113 367.882 78.6576C368.809 78.6333 368.678 78.7518 367.866 78.9548C364.656 79.7572 361.304 79.4514 358.043 79.9949C351.895 81.0196 345.653 81.4716 339.52 82.5868C333.656 83.6529 328.004 85.4192 322.186 86.681C318.209 87.5434 314.283 88.4204 310.365 89.504C309.359 89.7823 299.866 91.6781 299.866 92.7728C299.866 93.2682 315.271 91.7605 316.771 91.7327C317.035 91.7278 319.155 91.7235 317.893 91.9638C316.558 92.2182 315.01 92.327 313.651 92.327C309.957 92.327 306.076 94.2621 302.524 95.1501C297.344 96.445 292.034 98.2532 287.121 100.35C285.997 100.83 284.63 101.539 283.373 101.539C282.718 101.539 284.683 101.549 285.338 101.539C294.905 101.387 304.101 97.0832 313.337 95.1501C323.817 92.9566 334.408 91.1503 344.77 88.4639C350.8 86.9005 356.47 85.4223 362.236 82.9665C367.195 80.8544 372.2 78.8895 377.078 76.594C377.7 76.301 378.871 75.719 379.587 75.719C380.346 75.719 378.084 75.9832 377.325 75.9832C375.181 75.9832 368.777 76.4918 370.92 76.5775C374.061 76.7032 377.015 76.4594 380.066 75.686C381.845 75.2349 383.198 74.1465 384.82 73.6059" stroke="#C6C6C8" stroke-width="2" stroke-linecap="round"/>
<path d="M250.662 167.19C250.662 163.127 250.175 158.715 250.964 154.719C251.802 150.478 252.498 146.209 253.233 141.946C254.78 132.972 257.207 123.366 256.04 114.18C255.743 111.841 255.173 109.547 254.527 107.289C254.276 106.409 253.846 105.11 253.384 104.331C253.045 103.758 252.448 103.607 252.191 103.221C251.831 102.681 252.119 104.525 252.191 105.171C252.372 106.799 252.664 108.437 252.847 110.079C253.118 112.519 253.619 114.989 253.687 117.44C253.718 118.548 253.99 120.637 253.99 118.298C253.99 116.194 253.645 114.036 253.233 111.978C252.869 110.155 252.976 107.975 251.872 106.398C251.749 106.223 249.803 103.434 249.754 104.263C249.665 105.776 250.309 106.85 250.964 108.196C252.525 111.405 253.643 115.385 253.99 118.936C254.374 122.872 255.194 126.796 255.485 130.735C255.705 133.7 255.502 136.755 255.502 139.727C255.502 147.938 255.049 155.682 252.779 163.627C252.264 165.43 251.606 167.116 250.964 168.871C250.65 169.732 250.359 170.594 250.359 169.241C250.359 163.813 250.382 158.497 251.569 153.156C252.687 148.127 253.384 142.834 253.384 137.677C253.384 129.259 253.933 120.654 253.317 112.264C253.232 111.099 252.848 107.635 252.779 108.801C252.703 110.102 252.779 111.431 252.779 112.734C252.779 119 254.656 125.187 254.88 131.475C254.976 134.147 254.897 136.835 254.897 139.509C254.897 142.191 254.381 144.528 254.057 147.156C253.176 154.29 249.687 160.27 246.443 166.569C243.484 172.312 240.907 178.48 237.216 183.796C236.464 184.878 235.441 186.039 234.947 187.275C234.626 188.078 235.702 185.718 236.14 184.973C237.827 182.1 240.138 179.648 241.888 176.804C243.705 173.852 245.031 170.771 246.124 167.493C247.219 164.206 248.282 160.912 249.216 157.577C249.583 156.267 250.662 154.523 250.662 153.156C250.662 150.076 250.853 159.376 250.191 162.383C248.658 169.351 244.407 175.071 240.207 180.67C237.649 184.082 235.031 188.034 231.938 190.906C231.34 191.462 229.785 195.926 229.484 195.326" stroke="#C6C6C8" stroke-width="2" stroke-linecap="round"/>
<path d="M242.305 179.862C242.431 178.597 243.629 177.355 244.193 176.253C245.547 173.606 246.994 171.01 248.348 168.363C250.847 163.478 254.034 158.807 255.881 153.612C258.854 145.25 261.469 136.749 264.211 128.328C266.675 120.758 267.61 112.625 267.61 104.701C267.61 103.444 267.61 104.896 267.61 105.309C267.61 107.627 267.393 109.815 267.044 112.108C265.679 121.056 262.855 129.686 260.623 138.442C260.462 139.071 258.637 145.194 258.545 143.142C258.19 135.146 258.378 127.55 260.434 119.725C261.242 116.648 262.277 113.574 262.322 110.366C262.323 110.34 262.326 107.868 262.238 107.89C261.55 108.062 261.95 112.22 261.945 112.716C261.899 117.324 261.116 121.936 260.434 126.481C259.506 132.667 256.796 151.116 256.657 144.862C256.494 137.539 255.902 130.255 255.902 122.914C255.902 118.703 255.637 114.559 255.524 110.366C255.516 110.062 255.12 107.932 255.146 109.107C255.216 112.264 255.863 115.467 256.279 118.592C256.744 122.079 257.842 132.483 258.147 128.978C258.5 124.917 258.58 120.809 259.112 116.766C259.358 114.899 259.301 113.022 259.301 111.143C259.301 110.686 259.301 109.02 259.301 110.429C259.301 115.527 258.545 120.628 258.545 125.768C258.545 126.55 258.629 127.287 258.524 125.978C258.149 121.279 257.412 116.652 257.412 111.919C257.412 110.249 256.891 107.606 257.601 106.044C257.931 105.318 258.168 105.468 258.168 106.233C258.168 109.994 258.123 114.513 259.49 118.067C260.152 119.788 261.207 113.906 261.399 113.22C261.927 111.335 262.424 108.376 263.833 106.967C264.814 105.986 264.589 107.931 264.589 108.478C264.589 110.618 264.589 112.758 264.589 114.899C264.589 115.405 264.215 117.814 264.672 118.214C264.868 118.385 264.966 114.961 264.966 114.689C264.966 114.517 264.872 109.023 265.05 109.023C265.33 109.023 264.641 111.765 264.589 111.961C263.969 114.292 263.805 116.664 263.539 119.053C263.379 120.495 264.149 124.069 263.162 125.18C262.996 125.367 262.662 122.82 262.616 122.453C262.382 120.579 262.322 118.756 262.322 116.871C262.322 115.294 262.18 113.979 263.078 112.632" stroke="#C6C6C8" stroke-width="2" stroke-linecap="round"/>
<path d="M267.349 114.216C272.727 114.216 278.003 114.342 283.317 113.33C294.34 111.23 305.693 108.101 316.401 104.736C330.8 100.21 344.741 94.0087 359.036 89.1272C364.652 87.2097 370.956 84.4889 375.913 81.2273C378.069 79.8093 380.524 78.5025 382.401 76.7267C383.424 75.7586 384.705 74.6266 386.04 74.1413C387.792 73.5041 386.165 74.2199 385.226 74.5243C381.592 75.7018 378.452 77.5375 375.1 79.3121C372.209 80.8424 369.47 82.661 366.457 83.9564C362.22 85.778 357.861 87.2347 353.698 89.223C344.112 93.8013 332.868 97.1476 322.505 99.469C314.892 101.174 307.607 103.926 300.098 106.028C296.928 106.916 293.626 108.185 290.427 108.853C287.023 109.564 283.375 109.543 279.917 109.907C278.301 110.077 276.743 110.428 275.106 110.337C274.061 110.279 278.293 109.134 278.625 109.045C282.838 107.91 287.495 107.931 291.839 107.776C292.217 107.762 297.071 108.002 296.986 108.087C295.07 110.003 288.33 109.021 286.022 109.069C280.38 109.185 274.9 110.228 269.36 111.199C269.168 111.233 264.944 111.805 265.889 111.175C268.625 109.351 271.886 108.66 275.01 107.752C277.529 107.02 280.409 106.459 283.053 106.459C284.124 106.459 278.334 107.662 277.595 107.752C275.538 108.004 270.393 109.624 268.403 108.518C267.889 108.233 269.166 107.575 269.695 107.321C272.001 106.216 274.675 105.753 277.188 105.43C279.935 105.077 288.035 104.158 285.495 105.262C280.267 107.536 273.484 107.419 267.924 108.59C265.673 109.064 260.364 109.736 265.937 109.236C274.743 108.446 283.586 108.167 292.39 107.321C294.156 107.151 296.002 107.103 297.752 106.794C298.881 106.595 295.475 106.459 294.329 106.459C289.339 106.459 284.333 106.89 279.367 106.89C274.755 106.89 288.372 104.898 292.868 103.874C299.702 102.318 306.926 99.7185 313.935 99.1578C325.898 98.2007 266.048 102.102 278.05 102.102C279.789 102.102 281.768 101.501 283.46 101.241C290.336 100.183 297.234 99.3615 304.168 98.7987C309.855 98.3371 326.967 97.8411 321.26 97.8411C313.536 97.8411 305.687 99.7425 297.991 100.427C295.979 100.605 293.677 100.59 291.719 101.193C289.431 101.897 296.473 100.59 298.829 100.163C306.845 98.7116 314.892 96.9209 322.984 95.9499C324.272 95.7954 325.565 95.6866 326.862 95.6866C328.155 95.6866 324.334 96.2325 323.08 96.5484C319.62 97.42 309.026 98.703 312.594 98.703C318.674 98.703 325.166 95.9724 331.027 94.5854C334.696 93.7174 339.086 92.2393 342.901 92.2393C344.122 92.2393 340.497 92.6717 339.31 92.9575C332.853 94.5128 326.489 96.4344 320.087 98.2002C314.988 99.6069 299.63 103.373 304.551 101.432C310.969 98.9007 317.485 96.6367 324.277 95.3275C324.858 95.2153 332.291 94.3627 328.753 95.7105C325.926 96.7877 322.756 97.1518 319.8 97.6736C312.218 99.0116 304.612 100.135 296.986 101.193C290.996 102.023 284.682 102.861 278.84 104.496C278.015 104.727 276.409 104.665 277.978 103.778C280.907 102.123 284.733 102.581 287.961 102.581C290.424 102.581 291.307 103.971 288.511 104.831C284.031 106.21 279.316 106.783 274.77 107.92C272.913 108.384 272.81 108.452 271.227 107.321" stroke="#C6C6C8" stroke-width="2" stroke-linecap="round"/>
<path d="M172.004 242.824C173.583 242.824 174.316 242.521 175.651 241.631C177.373 240.483 179.534 240.093 181.382 239.194C184.643 237.607 187.35 235.202 190.694 233.748C196.583 231.188 203.148 228.051 207.72 223.479C213.901 217.297 220.395 211.494 226.023 204.688C232.678 196.639 238.774 188.72 243.872 179.578C245.979 175.8 248.239 172.097 250.057 168.165C250.753 166.66 251.873 165.27 251.873 163.56" stroke="#C6C6C8" stroke-width="2" stroke-linecap="round"/>
<path d="M375.782 37.7191C385.196 34.8237 395.133 40.321 397.682 49.835C400.231 59.3489 394.375 69.0782 384.774 71.2779L222.084 108.553L216.251 86.7829L375.782 37.7191Z" fill="white" stroke="#171717" stroke-width="2"/>
<ellipse cx="9.01525" cy="9.01523" rx="9.01525" ry="9.01523" transform="matrix(0.258818 0.965926 -0.965926 0.25882 384.465 44.0444)" stroke="#171717" stroke-width="2"/>
<ellipse cx="125.475" cy="127.079" rx="123.959" ry="123.96" fill="white" stroke="#171717" stroke-width="2"/>
<ellipse cx="125.476" cy="127.079" rx="101.421" ry="101.422" stroke="#171717" stroke-width="2"/>
<path d="M240.699 80.1444C245.47 80.1444 249.808 79.6439 254.435 78.5925C255.767 78.2897 256.901 77.3815 258.166 76.8756C259.287 76.4271 260.296 76.1236 261.352 75.5549C262.619 74.8724 264.147 74.5699 265.496 74.1846C271.803 72.3825 278.082 69.4313 284.25 67.0693C296.366 62.429 308.91 58.7969 321.164 54.5885C326.63 52.7111 332.427 51.6616 338.003 50.1311C343.324 48.6702 348.563 47.0123 353.917 45.6737C361.028 43.8961 368.3 41.4507 375.61 40.6385C381.286 40.0077 388.001 39.3958 392.961 42.7021C397.496 45.7257 396.708 52.1 396.708 56.8668C396.708 60.6863 395.947 64.6518 392.911 67.1353C392.153 67.7553 390.287 67.5777 389.345 67.7296C387.93 67.9579 386.307 68.5139 384.954 69.0008C382.998 69.7048 381.188 70.8337 379.126 71.246C375.431 71.9852 371.72 73.6479 368.115 74.7294C363.789 76.0273 359.229 76.9442 355.089 78.8071C352.368 80.0319 348.824 80.8462 345.894 81.399C342.576 82.025 339.324 83.0829 335.956 83.6443C332.114 84.2845 328.206 84.9957 324.35 85.4933C320.733 85.96 317.314 87.0713 313.735 87.6394C310.191 88.2019 306.6 89.7723 303.119 90.6936C299.745 91.5868 296.653 92.7672 293.148 93.2195C288.726 93.79 284.387 94.8412 279.924 95.2335C275.018 95.6649 270.24 96.5407 265.364 97.0825C261.335 97.5301 257.007 98.9238 253.114 100.054C251.456 100.535 249.237 101.837 247.534 101.837" stroke="#171717" stroke-width="2" stroke-linecap="round"/>
<path d="M26.5982 105.525C26.5982 103.122 26.516 100.753 26.8679 98.3778C27.0803 96.9442 27.9613 95.5239 28.7559 94.3321C29.6286 93.023 30.1494 91.5544 30.9736 90.2114C32.2405 88.1468 33.389 85.9919 34.6897 83.9479C35.8825 82.0735 37.5846 80.2643 38.4657 78.2239C39.2742 76.3516 40.7253 74.4516 41.987 72.8745C44.9327 69.1925 47.5026 65.181 50.603 61.6213C53.3195 58.5023 56.081 55.6194 59.114 52.7955C62.3272 49.8039 65.9789 47.4547 69.4832 44.8388C74.5092 41.087 79.6845 37.6888 85.0668 34.5296C88.1527 32.7183 91.896 31.9687 95.376 31.2031C99.6701 30.2584 103.883 29.2498 108.262 28.7157C116.021 27.7696 123.766 27.5769 131.578 27.5769" stroke="#171717" stroke-width="2" stroke-linecap="round"/>
<path d="M128.832 27.2121C132.391 27.2121 135.957 27.1463 139.515 27.2121C142.479 27.267 145.421 28.0416 148.321 28.5435C149.743 28.7896 151.143 29.3248 152.523 29.7465C154.668 30.4017 156.703 31.3019 158.827 31.9761C162.575 33.166 165.824 35.74 169.43 37.2854C171.383 38.1225 173.177 39.3538 174.955 40.5014C176.65 41.595 178.366 42.6555 180.112 43.6694C183.16 45.4389 186.042 47.4592 188.742 49.7005C189.965 50.7158 191.394 51.5024 192.511 52.6198C193.936 54.0448 195.359 55.5046 196.746 56.9827C199.334 59.7414 203.15 61.176 205.191 64.4414C205.507 64.9469 205.827 65.442 205.913 66.0454C205.932 66.1812 206.065 66.7594 206.065 66.3342" stroke="#171717" stroke-width="2" stroke-linecap="round"/>
<path d="M205.344 65.7574C205.418 66.4235 206.455 67.4162 206.819 67.987C207.63 69.2556 208.623 70.4089 209.386 71.7084C210.56 73.7079 211.691 75.7273 213.027 77.6272C216.158 82.0808 218.256 87.5673 219.812 92.7531C220.679 95.6427 220.976 98.6358 221.657 101.559C222.183 103.819 222.351 106.135 222.956 108.376C223.505 110.41 223.984 112.478 224.544 114.52C224.718 115.155 224.791 115.832 225.089 116.428C225.251 116.752 225.32 116.924 225.121 116.428" stroke="#171717" stroke-width="2" stroke-linecap="round"/>
<path d="M225.409 114.263C225.409 116.021 225.326 117.804 225.626 119.54C225.961 121.486 225.89 123.53 226.355 125.459C226.861 127.555 226.978 129.77 227.254 131.907C227.523 133.996 227.43 136.121 227.43 138.227C227.43 140.679 226.74 143.06 226.203 145.445C225.617 148.048 225.006 150.704 224.182 153.24C223.257 156.086 222.148 158.852 221.046 161.629C220.185 163.801 219.196 165.865 218.544 168.118C218.322 168.883 218.149 169.681 217.902 170.42" stroke="#171717" stroke-width="2" stroke-linecap="round"/>
<path d="M142.109 226.715C144.87 226.715 147.723 227.062 150.323 226.117C152.009 225.503 153.795 224.717 155.577 224.321C157.197 223.961 159.278 222.782 160.831 222.077C162.094 221.502 163.807 221.544 165.004 220.879C166.938 219.805 169.143 219.061 171.139 218.036C173.481 216.833 175.754 215.586 177.956 214.146C179.221 213.319 180.6 211.916 181.979 211.386C183.811 210.681 186.193 209.193 187.599 207.861C188.901 206.627 190.537 205.792 191.938 204.702C193.636 203.382 194.896 201.761 196.411 200.246C198.132 198.525 200.191 196.453 201.515 194.394C202.773 192.437 204.675 190.899 205.987 188.99C208.311 185.61 210.534 182.098 213.336 179.131C215.587 176.747 217.227 174.142 217.227 170.751" stroke="#171717" stroke-width="2" stroke-linecap="round"/>
<path d="M63.6992 209.057C65.2298 209.21 67.1695 211.529 68.3546 212.499C69.5693 213.493 71.0185 214.261 72.3781 214.976C74.0293 215.845 75.977 216.122 77.6154 217.005C79.3189 217.922 81.0999 218.925 82.9191 219.598C84.4837 220.178 85.9737 221.079 87.508 221.776C89.0332 222.47 90.8677 222.731 92.4293 223.356C94.382 224.137 96.9439 224.705 98.9967 225.218C100.956 225.708 102.915 226.418 104.849 227.014C108.811 228.233 112.819 228.809 116.953 228.809C120.888 228.809 124.923 229.109 128.791 229.109C132.528 229.109 136.315 228.809 139.997 228.809C143.142 228.809 146.095 226.714 149.291 226.714" stroke="#171717" stroke-width="2" stroke-linecap="round"/>
<path d="M64.5954 209.358C62.4267 207.189 60.3688 205.047 58.2442 202.84C56.676 201.212 55.4025 199.302 53.9713 197.553C53.4129 196.871 52.7334 196.745 52.2588 195.891C51.8203 195.101 50.7379 194.561 50.1639 193.796C46.8492 189.376 43.2164 185.409 41.3187 180.096C40.6278 178.161 39.4139 176.289 38.858 174.343C38.462 172.957 37.8725 171.137 37.2952 169.854C34.5869 163.835 32.4639 157.606 30.4784 151.299C29.4395 147.999 28.5588 144.73 28.0842 141.29C27.7074 138.558 26.6664 135.793 26.5879 133.043C26.4789 129.23 26.2886 125.344 26.2886 121.604C26.2886 118.646 25.9893 115.688 25.9893 112.709C25.9893 111.382 25.7099 109.66 26.2886 108.503" stroke="#171717" stroke-width="2" stroke-linecap="round"/>
<path d="M1.97266 115.794C1.97266 111.005 2.93166 105.988 5.10072 101.65C7.00327 97.8448 8.97517 93.512 9.92126 89.3492C10.3469 87.4763 11.3254 85.6877 12.0369 83.9091C12.9074 81.7328 13.5332 79.3158 14.7569 77.3054C15.9554 75.3363 16.6538 72.9828 17.6885 70.9132C18.9824 68.3255 20.0259 65.6128 21.5571 63.1459C23.5573 59.9233 25.1791 56.237 27.6772 53.3688C29.9227 50.7906 31.9477 48.0767 34.3413 45.6166C35.6264 44.2958 36.5903 42.6274 37.8774 41.2645C38.7274 40.3645 39.5216 39.3503 40.3405 38.4085C40.8638 37.8067 41.9144 36.4178 42.6375 36.0964C43.5919 35.6722 44.1884 34.4109 44.7984 33.6483C45.6887 32.5355 46.5412 31.2406 47.5487 30.2332C49.4381 28.3437 51.3824 26.5975 53.8653 25.4882" stroke="#171717" stroke-width="2" stroke-linecap="round"/>
<path d="M50.6602 27.6629C52.724 27.6629 54.6106 26.5908 56.2665 25.4868C58.7709 23.8172 61.4316 22.3043 63.9884 20.7418C67.7257 18.4579 71.5388 16.2567 75.5638 14.4857C80.209 12.4418 84.7573 9.08972 89.8138 8.07841C94.8679 7.06759 99.7634 5.48038 104.925 4.81434C108.682 4.32961 112.376 3.58612 116.153 3.24274C118.72 3.0094 121.262 2.77166 123.83 2.57784C126.201 2.3989 128.602 2.53607 130.962 2.30583C138.25 1.5948 146.28 1.64851 153.146 4.48189C156.7 5.94867 160.337 7.16677 163.875 8.68287C167.573 10.2678 171.21 12.1648 174.755 14.0626" stroke="#171717" stroke-width="2" stroke-linecap="round"/>
<path d="M166.262 9.16528C167.804 9.33668 168.899 10.929 170.342 11.3413C172.026 11.8226 173.675 13.2576 175.238 14.0614C180.221 16.6244 185.719 18.3508 190.531 21.194C201.555 27.7087 211.849 35.8027 220.179 45.6141C222.483 48.3274 224.861 50.9739 226.904 53.9103C229.054 57.0018 230.396 60.4038 232.359 63.5666C235.441 68.5316 237.114 74.5963 238.948 80.0985C239.382 81.4007 239.874 82.8632 240.232 84.1181C240.499 85.052 241.231 86.2889 241.335 87.2311C241.492 88.6379 242.638 90.0353 242.952 91.4472C243.12 92.2028 243.439 93.0712 243.783 93.7593" stroke="#171717" stroke-width="2" stroke-linecap="round"/>
<path d="M242.152 89.1364C242.152 94.2693 244.893 99.1887 246.928 103.84C249.427 109.553 249.847 116.176 250.645 122.261C251.731 130.544 251.426 139.566 249.905 147.784C249.544 149.731 249.442 152.048 248.62 153.874C247.79 155.719 246.883 157.499 245.976 159.314C244.352 162.56 243.302 165.594 242.424 169.106" stroke="#171717" stroke-width="2" stroke-linecap="round"/>
<path d="M110.754 250.624C116.443 250.624 122.132 250.624 127.821 250.624C132.499 250.624 136.56 249.794 141.139 248.946C147.732 247.726 154.656 247.377 161.085 245.591C164.567 244.624 167.832 243.347 171.131 241.863C174.551 240.324 178.123 239.246 181.301 237.202C187.004 233.536 193.368 230.381 198.368 225.645C200.182 223.926 202.49 222.497 204.499 221.005C208.615 217.947 212.795 214.368 216.036 210.38C217.931 208.047 219.825 205.729 221.483 203.192C223.349 200.338 225.901 197.902 227.656 195.031C231.997 187.928 236.399 181.366 239.752 173.822C240.732 171.615 241.324 169.063 241.989 166.738C242.596 164.611 244.598 162.535 244.598 160.4" stroke="#171717" stroke-width="2" stroke-linecap="round"/>
<path d="M5.61889 100.749C5.61889 105.315 3.7099 109.191 3.02982 113.611C2.41717 117.594 1.89062 121.242 1.89062 125.355C1.89062 132.262 4.50826 138.661 5.26677 145.488C5.82491 150.511 6.99177 155.518 8.31152 160.401C9.17799 163.607 10.5921 166.66 11.667 169.805C13.2455 174.423 14.5675 179.012 16.4308 183.537C19.4088 190.769 24.1144 196.028 29.3969 201.702C31.3597 203.81 32.4196 206.7 34.3472 208.869C35.1771 209.802 35.8373 210.76 36.5634 211.768C36.8756 212.202 38.3979 212.597 37.3091 212.597" stroke="#171717" stroke-width="2" stroke-linecap="round"/>
<path d="M33.9531 210.36C36.5502 212.698 38.9884 215.726 41.9482 217.61C46.3864 220.434 50.4806 223.784 54.8314 226.765C59.7943 230.165 64.7424 233.363 69.9308 236.437C73.9663 238.829 78.2595 240.399 82.4205 242.423C85.7766 244.056 89.4988 245.01 92.8596 246.69C96.3426 248.432 101.037 248.248 104.79 249.134C110.314 250.438 115.965 251.142 121.567 251.765C123.226 251.949 134.005 252.014 133.871 251.744" stroke="#171717" stroke-width="2" stroke-linecap="round"/>
<path d="M374.866 45.9269C374.447 45.9269 374.016 45.8952 373.599 45.9369C372.699 46.0269 371.875 46.5653 371.139 47.0495C370.529 47.4515 369.95 47.969 369.433 48.4865C369.101 48.8185 368.686 49.1295 368.58 49.6091C368.049 51.9952 368.31 54.5537 368.31 56.9936C368.31 58.1436 368.533 59.1675 368.894 60.2518C369.241 61.2914 370.189 61.9234 371.134 62.4123C372.667 63.2049 374.089 64.0771 375.804 64.473C377.528 64.8708 379.019 64.644 380.525 63.7545C382.293 62.7093 383.582 61.424 384.586 59.6481C385.194 58.5724 385.509 57.2727 385.779 56.0756C386.076 54.7517 386.236 53.0674 385.734 51.7746C385.284 50.6181 384.536 49.5053 383.668 48.6212C382.776 47.7119 381.581 46.6009 380.345 46.1963C379.688 45.9814 379.042 45.7288 378.369 45.5676C377.675 45.4015 376.923 45.4778 376.214 45.4778C375.675 45.4778 375.036 45.3803 374.507 45.4978C374.22 45.5617 373.903 45.6574 373.609 45.6574" stroke="#171717" stroke-width="2" stroke-linecap="round"/>
<path d="M118.016 173.344C141.631 175.826 162.629 158.066 165.161 133.983C166.414 122.059 163.203 108.07 156.928 96.7468C150.699 85.5054 140.894 75.9716 128.388 74.6572C115.882 73.3428 104.309 80.6297 95.8788 90.3302C87.3868 100.101 81.338 113.117 80.0847 125.041C77.5535 149.124 94.3999 170.862 118.016 173.344Z" fill="white" stroke="white" stroke-width="8"/>
<path d="M84.4688 135.236C84.5953 134.693 85.5458 136.129 85.6299 136.226C88.5379 139.594 91.0916 143.44 93.179 147.365C93.7386 148.417 94.2186 149.508 94.7783 150.559C94.9306 150.846 95.4384 151.478 95.4002 151.84C95.3565 152.257 94.8435 151.211 94.6098 150.864C93.5752 149.326 92.5362 147.79 91.5769 146.204C89.9228 143.469 88.2897 140.604 87.1203 137.623C86.9215 137.117 85.9921 136.102 86.5364 136.098C86.9043 136.096 88.0469 137.903 88.2445 138.139C89.878 140.082 91.5016 142.036 93.0978 144.007C93.3656 144.338 94.1901 145.281 93.8315 145.052C93.0437 144.549 92.2958 142.997 91.8165 142.272C89.8329 139.275 88.0209 136.147 86.5539 132.863C86.463 132.659 86.161 132.065 86.2833 132.251C87.003 133.348 87.8806 134.316 88.7548 135.29C90.9208 137.702 93.0266 140.17 95.209 142.567C95.4831 142.868 96.2135 143.843 96.0046 143.494C95.2904 142.299 94.389 141.197 93.6408 140.021C91.7229 137.006 89.8545 133.768 88.3899 130.501C87.442 128.386 91.381 134.042 92.8395 135.843C93.8642 137.108 94.8954 138.369 95.9136 139.639C96.3139 140.139 97.1565 141.808 97.067 141.174C96.9676 140.47 95.7372 139.109 95.4169 138.582C93.858 136.019 92.3874 133.386 90.943 130.757C90.7071 130.327 89.3306 127.527 89.544 127.782C91.5104 130.125 93.7484 132.265 95.8611 134.474C96.5749 135.22 97.2825 135.972 97.9942 136.72C98.185 136.92 98.6438 137.344 98.2815 136.7C96.6623 133.822 94.6502 131.2 93.116 128.256C92.7789 127.609 92.7526 127.551 93.3303 128.105C94.6986 129.417 96.1063 130.684 97.4595 132.012C98.8975 133.423 100.263 135.255 101.878 136.471C103.095 137.386 100.536 133.736 99.813 132.396C97.3835 127.894 94.3605 123.107 92.8355 118.18C92.7041 117.755 92.9054 117.979 93.0614 118.154C94.3486 119.594 95.8399 120.862 97.239 122.19C99.7645 124.586 102.203 127.137 104.868 129.38C104.978 129.472 105.289 129.729 105.243 129.593C105.101 129.176 104.756 128.858 104.502 128.498C101.98 124.913 99.675 121.179 97.4572 117.4C96.2565 115.354 95.1123 113.276 93.8868 111.245C93.3073 110.284 93.0939 109.982 94.0489 111.001C96.797 113.935 99.7789 116.643 102.484 119.615C102.561 119.7 103.481 120.924 103.692 120.859C103.852 120.81 103.552 120.556 103.466 120.413C103.169 119.916 102.868 119.442 102.553 118.953C101.759 117.718 101.007 116.465 100.242 115.212C99.9393 114.716 98.7315 113.593 99.2923 113.748C99.8756 113.909 100.938 115.547 101.249 115.901C103.184 118.104 105.051 120.341 106.853 122.655C107.594 123.607 108.351 124.54 109.193 125.406C109.284 125.499 109.512 125.788 109.489 125.661C109.382 125.078 108.513 123.904 108.299 123.526C105.832 119.164 103.159 114.688 101.361 109.996C101.361 109.995 100.654 108.569 101.237 109.289C102.348 110.661 103.568 111.918 104.797 113.185C107.198 115.662 109.634 118.182 111.668 120.978C113.686 123.751 108.954 114.675 107.431 111.602C106.329 109.377 105.213 107.156 104.27 104.857C104.035 104.283 103.189 102.709 103.674 103.095C106.092 105.016 108.09 107.991 110.109 110.32C110.567 110.848 111.052 111.678 111.634 112.093C112.939 113.023 110.135 109.26 109.337 107.87C107.64 104.912 106.022 101.915 104.477 98.875C104.126 98.1836 103.364 96.6742 102.991 95.9032C102.704 95.3105 101.621 93.9378 102.266 94.0657C103.088 94.2282 104.94 97.1825 105.405 97.7198C107.385 100.007 109.379 102.282 111.331 104.594C112.487 105.963 113.612 107.356 114.74 108.748C115.186 109.3 115.914 110.341 115.099 108.872C112.751 104.646 110.274 100.484 108.387 96.0237C107.508 93.9472 110.251 97.528 110.576 97.8539C112.955 100.245 115.224 102.795 117.719 105.067C118.517 105.794 118.127 104.868 117.92 104.332C116.665 101.082 115.207 97.8977 113.809 94.7082C113.251 93.4363 112.629 92.1816 112.179 90.8654C112.036 90.4475 111.504 89.0621 112.335 90.0879C115.009 93.3904 117.56 96.7985 120.347 100.01C120.705 100.423 121.459 101.787 121.433 101.24C121.395 100.452 120.389 99.1206 120.06 98.491C118.149 94.8396 115.687 91.2017 114.236 87.3357C114.131 87.0555 114.693 87.7263 114.891 87.9503C116.043 89.25 117.296 90.4569 118.503 91.7038C119.706 92.9459 120.885 94.2113 122.063 95.4766C122.11 95.5265 123.509 97.1159 123.383 96.6076C122.603 93.4543 120.53 90.4686 119.283 87.4692C119.057 86.9256 118.18 85.4352 118.611 85.8358C119.619 86.7714 120.459 88.0119 121.402 89.0192C122.705 90.409 124.006 91.8013 125.346 93.1548C125.962 93.7763 127.127 95.4485 128.045 95.6836C128.776 95.8707 127.821 94.1808 127.558 93.4741C126.805 91.4531 125.856 89.4969 125.164 87.4548C124.987 86.931 124.284 85.5507 124.75 85.8484C125.036 86.031 125.445 86.7877 125.655 87.035C127.134 88.7756 128.831 90.4061 130.494 91.9718C130.711 92.1763 131.127 92.4297 131.025 91.8787C130.604 89.6047 129.559 87.3222 128.831 85.1362C128.226 83.317 127.634 81.4944 127.088 79.6565C126.963 79.2362 126.526 78.0129 126.763 78.382C128.927 81.7579 136.471 91.1469 133.947 88.0306C132.949 86.7979 132.182 85.3346 131.01 84.2364C130.479 83.7393 131.008 85.0163 131.033 85.1939C131.166 86.1339 129.698 84.3706 129.457 84.1353C129.293 83.9747 126.405 81.6129 126.347 81.861C126.3 82.0646 126.978 82.7559 127.071 83.0037C127.198 83.3438 125.585 81.2524 125.35 80.9624C124.969 80.4913 123.475 78.8265 123.962 80.4815C124.416 82.028 124.813 83.5754 124.956 85.1878C125.123 87.073 120.807 82.143 120.866 84.6835C120.898 86.0596 121.179 87.4315 121.226 88.8145C121.245 89.3825 120.883 88.8641 120.745 88.6648C119.874 87.4021 119.205 86.0026 118.383 84.7078C118.265 84.523 116.53 81.7036 116.383 82.3765C115.787 85.1006 115.837 88.0248 115.437 90.7861C115.395 91.0726 114.947 95.5392 114.331 95.4081C113.963 95.3299 113.818 93.9987 113.779 93.812C113.304 91.5238 112.886 89.2223 112.456 86.9254C112.404 86.6449 111.319 81.8023 111.113 83.5344C110.665 87.3104 110.531 91.1541 110.595 94.9535C110.63 97.0191 110.332 99.7697 110.857 101.791C111.299 103.496 109.595 98.4999 108.917 96.8734C108.72 96.4 108.348 95.0058 107.801 94.7466C107.393 94.5532 106.663 97.9683 106.633 98.0721C105.761 101.133 104.281 104.067 103.521 107.147C103.198 108.456 103.773 106.294 103.844 106.077C104.409 104.371 104.773 102.636 105.22 100.9C105.661 99.1844 105.495 97.3706 106.475 95.798C107.431 94.2647 107.298 92.216 107.483 90.4587C107.608 89.2661 106.988 89.8236 106.167 90.2336C104.874 90.8789 103.508 91.7221 102.557 92.8311C100.212 95.5689 98.0164 98.7099 96.193 101.812C94.1353 105.313 92.9764 108.983 91.52 112.757C89.9855 116.734 89.5603 120.781 89.1187 124.983C88.9867 126.239 88.8548 127.494 88.7228 128.75C88.6033 129.887 88.6672 129.278 88.7499 128.492C89.8082 118.423 92.6617 108.72 99.4672 100.99C101.274 98.938 103.217 97.0489 105.168 95.1396C106.577 93.76 104.674 95.4394 104.195 95.7816C102.223 97.1902 100.542 98.4345 98.9454 100.291C96.8656 102.709 94.8607 105.329 93.1347 108.015C91.5294 110.513 90.2314 113.217 89.0049 115.916C87.899 118.35 86.7521 120.923 86.3749 123.591C86.1284 125.335 85.9936 127.101 85.8095 128.853C85.7982 128.96 85.6737 130.806 85.9809 130.644C86.6388 130.299 87.4045 128.614 87.7219 128.123C90.2631 124.195 92.815 120.274 95.3598 116.349C101.272 107.229 107.675 98.393 113.446 89.1877C114.079 88.1783 115.873 85.9338 114.053 88.1351C109.279 93.9098 105.601 100.735 102.207 107.381C100.917 109.906 97.9675 117.737 98.2639 114.917C98.7324 110.46 100.92 105.879 102.456 101.702C102.695 101.052 103.578 99.1751 103.229 99.7734C102.325 101.326 101.697 103.088 100.913 104.702C98.7894 109.077 96.3134 113.306 94.3915 117.773C94.3381 117.897 94.0028 118.874 94.0855 118.088C94.2626 116.403 94.5655 114.724 94.8866 113.062C95.3169 110.835 95.8902 108.64 96.3294 106.416C96.5206 105.447 97.3552 102.721 96.7247 103.481C96.4579 103.802 96.4145 104.679 96.3608 105.055C96.1056 106.843 95.9699 108.656 95.7812 110.452C95.4486 113.616 94.3701 117.733 95.2301 120.887C95.3374 121.281 95.5312 120.124 95.6128 119.724C96.1353 117.162 96.6236 114.593 97.1774 112.037C97.6421 109.893 99.1494 103.514 98.9598 105.7C98.6579 109.18 98.3757 112.654 98.993 116.123C99.0442 116.41 100.209 121.493 100.953 120.248C102.044 118.427 101.819 115.539 101.886 113.5C101.902 113.025 101.704 111.99 101.967 111.548C102.188 111.177 104.334 113.876 104.339 113.881C107.452 117.639 110.56 121.4 113.686 125.147C114.262 125.837 114.869 126.652 115.619 127.173C116.143 127.538 115.375 124.998 115.367 124.964C114.713 122.039 113.949 118.652 114.314 115.625C114.482 114.236 117.434 117.385 117.69 117.617C118.751 118.575 121.792 121.489 121.072 120.254C118.67 116.137 116.339 112.053 114.222 107.776C113.779 106.882 112.444 104.539 114.259 106.241C117.419 109.206 120.691 112.147 123.65 115.316C123.871 115.553 124.548 116.237 124.376 115.963C123.451 114.488 122.446 113.078 121.562 111.574C120.38 109.562 119.206 107.525 118.164 105.436C117.78 104.666 117.059 103.534 116.956 102.643C116.912 102.254 117.594 103.099 117.886 103.36C119.404 104.723 120.897 106.114 122.4 107.494C123.808 108.786 125.185 110.099 126.523 111.462C127.037 111.987 128.416 113.64 128.139 112.96C127.514 111.423 126.44 109.987 125.626 108.552C124.135 105.925 122.59 103.26 121.375 100.49C121.245 100.193 120.52 98.8058 120.766 98.3792C120.858 98.2193 123.498 100.941 123.521 100.963C126.556 103.982 129.473 107.304 132.678 110.137C133.669 111.013 133.002 109.907 132.734 109.374C130.563 105.07 128.271 100.828 126.188 96.4806C125.002 94.007 123.822 91.508 122.811 88.9564C122.782 88.8837 121.972 87.1434 122.194 86.9193C122.373 86.7384 127.84 92.8302 128.246 93.2984C128.965 94.126 129.653 94.9993 130.443 95.762C130.996 96.2953 129.647 94.4478 129.235 93.7993C127.536 91.1232 125.972 88.3732 124.546 85.5417C123.836 84.1317 122.257 81.8347 122.184 80.1706C122.134 79.0445 123.948 81.5843 124.728 82.3978C127.851 85.6545 130.852 89.0182 133.712 92.5085C134.953 94.0231 136.245 95.5266 137.396 97.1129C138.605 98.7799 137.148 97.4413 136.578 96.7541C134.021 93.6728 130.816 90.1961 129.211 86.4785C128.18 84.09 132.732 90.3137 134.376 92.3302C135.147 93.2754 135.937 94.1926 136.766 95.0869C136.791 95.1143 137.44 95.9045 137.497 95.7964C137.684 95.4426 137.788 95.5168 138.204 95.5606C139.262 95.6718 137.922 93.9702 137.755 93.7024C136.104 91.064 134.296 88.3295 133.415 85.3078C133.01 83.9199 135.389 87.4244 136.451 88.4054C137.542 89.4138 140.92 92.3226 139.758 91.395C137.161 89.3199 130.393 81.9917 132.987 84.0721C133.831 84.7492 134.661 85.4173 135.446 86.1663C136.359 87.0383 137.501 87.7117 138.382 88.5587C139.008 89.1604 137.91 88.4303 137.723 88.2166C137.649 88.1318 136.043 86.0554 136.666 86.1209C138.085 86.27 139.438 87.2257 140.661 87.8804C141.573 88.3686 141.664 88.4515 140.732 87.5653C139.576 86.4676 138.337 85.3457 136.956 84.5389C136.349 84.1838 135.889 84.129 136.558 84.1994C137.415 84.2895 134.979 83.5063 134.202 83.1331C133.494 82.7933 134.978 83.5432 135.15 83.6669C137.827 85.5936 140.103 88.0755 142.404 90.4203C144.93 92.9947 147.337 95.8865 148.941 99.145C149.007 99.2795 149.579 101.047 149.348 100.825C148.881 100.376 147.91 98.6756 148.318 99.1787C148.953 99.963 149.365 100.949 149.772 101.862C150.627 103.779 147.246 99.9642 147.109 99.8207C145.924 98.5814 144.751 97.3309 143.583 96.0763C143.245 95.7137 142.338 94.551 142.568 94.9898C143.178 96.1521 143.794 97.3185 144.137 98.5905C144.239 98.9654 144.25 99.1806 143.876 98.7119C142.857 97.4333 142.017 96.0146 141.022 94.7156C140.154 93.5835 139.196 92.5282 138.291 91.4269C137.709 90.7183 137.678 90.6519 138 91.6071C138.723 93.7543 139.626 95.7794 140.08 98.0152C140.165 98.4351 140.044 98.4648 139.743 98.1534C138.796 97.1763 138.023 96.0412 137.079 95.0578C135.418 93.3273 136.463 95.2245 136.884 96.2033C137.06 96.6129 137.677 99.0492 137.452 98.7065C135.846 96.266 134.521 93.5342 132.678 91.2586C131.437 89.7264 134.088 94.9437 134.673 96.8267C135.05 98.0441 135.363 99.2696 135.675 100.504C135.681 100.526 135.934 101.67 135.903 101.645C135.238 101.106 134.797 99.8302 134.381 99.128C133.556 97.7351 132.695 96.3478 131.721 95.0528C131.56 94.8395 131.136 94.2161 131.419 94.9715C132.081 96.734 132.838 98.4489 133.42 100.243C133.942 101.849 134.419 103.48 134.869 105.108C134.907 105.247 135.571 107.503 134.785 106.613C133.292 104.92 132.268 102.681 131.186 100.727C129.931 98.4589 128.65 96.2003 127.438 93.908C127.401 93.8377 126.607 92.3207 126.66 92.4618C127.25 94.0356 127.927 95.5819 128.536 97.1492C129.764 100.308 131.434 103.788 131.974 107.161C132.048 107.62 131.154 106.672 130.874 106.301C129.105 103.957 127.561 101.442 125.988 98.9653C125.538 98.2559 124.29 96.089 124.57 96.8812C125.014 98.1376 125.663 99.3451 126.179 100.573C126.821 102.099 127.374 103.645 127.886 105.218C127.898 105.252 128.556 107.352 128.34 107.275C127.034 106.808 125.483 104.377 124.675 103.441C122.017 100.366 119.444 97.2155 116.824 94.1073C116.763 94.0346 114.691 91.2712 114.306 91.5107C114.094 91.6425 116.035 96.3424 116.097 96.5365C118.119 102.811 119.664 109.283 120.849 115.766C121.032 116.767 121.241 117.771 121.3 118.79C121.363 119.885 120.59 118.118 120.506 117.962C119.892 116.824 119.242 115.705 118.631 114.565C118.504 114.328 118.236 113.494 117.941 113.339C117.742 113.234 118.116 113.754 118.224 113.952C118.717 114.856 119.126 115.783 119.454 116.76C119.618 117.249 119.868 117.801 119.91 118.321C119.96 118.933 118.992 117.498 118.608 117.019C114.882 112.364 112.041 107.189 108.547 102.404C108.445 102.264 107.787 101.413 108.096 102.207C108.74 103.86 109.258 105.527 109.687 107.249C109.818 107.775 111.771 115.1 111.287 115.281C110.922 115.418 106.127 108.267 105.553 107.522C105.21 107.077 104.223 105.794 104.35 106.341C104.789 108.239 105.326 110.082 105.664 112.011C106.159 114.832 106.286 117.698 106.78 120.514C106.973 121.612 105.407 119.229 105.208 118.947C104.273 117.62 107.729 124.653 106.45 123.654C105.728 123.09 105.639 121.088 105.296 120.234C105.205 120.008 100.847 119.954 100.469 119.9C99.3484 119.741 97.5572 119.679 96.6916 118.783C95.8062 117.868 95.2604 116.452 94.6197 115.365C94.2061 114.664 92.9874 112.271 92.9627 114.373C92.9187 118.11 94.1174 121.706 95.1946 125.237C96.2073 128.557 96.9273 132.016 97.7467 135.416C98.2461 137.488 98.3197 139.827 99.185 141.794C99.3509 142.171 99.0021 140.792 98.8697 140.545C98.3441 139.566 98.2667 139.909 98.1737 140.795C98.0006 142.441 98.2178 143.938 98.341 145.575C98.3818 146.118 98.7884 146.87 98.9553 147.401C99.3446 148.639 99.6791 150.791 100.59 151.79C100.775 151.993 100.816 151.267 100.798 150.993C100.712 149.68 100.535 148.37 100.418 147.059C100.384 146.684 100.01 142.937 100.612 143.556C101.721 144.697 102.765 146.162 104.118 147.026C104.492 147.265 104.553 146.934 104.51 146.596C104.258 144.614 103.53 142.612 102.997 140.694C102.499 138.903 101.023 133.527 101.49 135.326C101.95 137.098 103.578 139.517 104.816 140.848C106.255 142.393 105.093 138.554 104.954 138.009C104.759 137.253 104.092 136.182 104.59 137.574C104.647 137.733 105.495 139.777 105.652 139.273C106.299 137.197 104.975 134.133 104.574 132.065C104.536 131.874 104.345 131.364 104.293 131.552C104.228 131.787 104.344 132.516 104.278 132.282C103.748 130.408 102.977 128.55 102.008 126.859C101.435 125.861 102.008 128.873 102.034 128.97C102.499 130.729 105.178 135.524 104.277 133.944C102.478 130.791 96.6029 121.621 98.6322 124.631C100.113 126.828 102.154 128.853 104.09 130.65C106.593 132.974 105.32 128.549 104.959 127.219C104.669 126.149 104.241 125.094 104.057 123.998C103.969 123.472 103.89 123.263 104.181 123.763C105.71 126.395 108.353 128.719 110.763 130.533C110.897 130.633 111.85 131.503 111.753 130.786C111.563 129.372 110.891 127.937 110.38 126.622C109.878 125.331 109.361 124.042 108.826 122.763C108.775 122.641 108.43 121.757 108.438 121.854C108.517 122.903 109.213 124.421 110.044 125.099C110.268 125.281 110.146 124.517 110.085 124.235C109.795 122.879 109.386 121.536 109.199 120.16C108.977 118.529 109.308 119.94 109.688 120.583C109.911 120.962 111.21 122.748 111.52 121.681C111.753 120.879 111.393 119.703 112.128 120.728C112.451 121.178 112.861 121.909 113.302 122.191" stroke="#FFD424" stroke-width="2" stroke-linecap="round"/>
<path d="M150.287 99.0744C150.284 99.7821 150.785 100.492 151.111 101.089C151.835 102.419 152.377 103.8 152.903 105.219C154.186 108.686 154.588 111.994 154.927 115.641C155.027 116.716 156.018 121.141 154.434 118.17C150.864 111.472 147.682 104.351 143.585 97.9588C142.75 96.6566 145.84 100.077 146.918 101.187C149.881 104.241 152.797 107.488 155.339 110.906C155.527 111.159 157.269 114.063 156.875 113.832C153.117 111.631 149.873 107.614 146.878 104.529C145.068 102.665 139.532 97.1985 141.55 98.8367C144.45 101.191 146.587 105.118 148.622 108.172C150.439 110.899 152.477 113.925 153.44 117.101C153.727 118.045 152.953 117.303 152.658 116.99C150.595 114.806 148.83 112.269 147.025 109.876C144.702 106.796 142.164 103.485 140.495 99.9735C139.494 97.8697 142.932 103.945 144.09 105.966C145.297 108.072 147.221 110.657 147.591 113.126C147.706 113.891 146.878 112.977 146.794 112.886C144.65 110.572 142.929 107.809 141.133 105.23C139.074 102.272 133.14 93.2452 134.917 96.3814C136.92 99.9156 138.988 103.368 140.714 107.058C142.325 110.5 143.885 114.037 145.221 117.598C145.596 118.598 144.948 118.111 144.425 117.614C142.172 115.47 140.413 112.741 138.745 110.14C137.445 108.111 136.27 106.023 135.148 103.892C135.045 103.695 133.671 100.494 133.26 100.546C133.162 100.558 133.23 100.744 133.243 100.842C133.297 101.26 133.624 102.591 133.683 102.859C134.084 104.676 134.289 106.509 134.538 108.351C134.61 108.884 135.951 115.541 135.091 115.768C133.839 116.098 131.21 105.962 130.9 104.92C130.46 103.442 129.887 98.9097 129.726 100.444C129.387 103.67 129.598 106.963 129.779 110.19C130.028 114.633 130.11 119.122 130.587 123.547C130.965 127.054 130.996 122.039 130.984 121.121C130.958 119.134 131.208 116.498 130.537 114.58C130.419 114.243 129.96 117.639 129.926 117.962C129.601 121.057 129.5 124.163 129.205 127.258C128.946 129.959 128.468 125.061 128.422 124.723C127.695 119.37 127.419 113.847 127.467 108.444C127.475 107.534 127.602 106.582 127.518 105.671C127.454 104.987 127.158 106.999 127.051 107.678C126.361 112.093 125.99 116.558 125.524 121.001C125.475 121.464 125.069 126.695 124.965 123.891C124.805 119.604 125.745 106.756 125.296 111.024C124.862 115.151 124.428 119.279 123.995 123.407C123.796 125.3 123.606 127.194 123.398 129.086C123.284 130.114 123.282 131.445 122.794 132.398C122.703 132.575 122.457 132.128 122.418 131.933C121.967 129.689 121.848 127.387 121.803 125.105C121.714 120.588 121.749 116.019 122.181 111.519C122.388 109.368 122.103 112.269 122.056 112.711C121.605 117.004 121.237 121.315 120.688 125.597C120.619 126.133 120.05 130.42 120.163 127.754C120.345 123.457 120.451 119.15 120.823 114.864C120.918 113.777 121.037 112.693 121.151 111.609C121.182 111.315 121.268 110.595 121.172 111.412C120.527 116.886 119.453 122.345 118.294 127.728C117.417 131.803 116.525 136.135 114.66 139.908C114.54 140.152 114.346 140.553 114.336 140.03C114.296 138.037 114.466 136.002 114.599 134.017C115.187 125.243 118.136 99.0176 117.216 107.764C116.177 117.655 115.182 127.552 114.098 137.439C114.08 137.602 113.332 142.093 113.175 140.149C112.696 134.222 113.558 128.004 114.176 122.12C114.354 120.433 114.508 118.74 114.765 117.063C114.828 116.65 114.882 115.213 115.253 114.846C115.4 114.7 115.385 115.247 115.373 115.454C115.273 117.273 115.004 119.1 114.814 120.91C114.254 126.235 113.72 131.562 113.135 136.884C113.044 137.707 112.534 141.93 112.379 138.676C112.111 133.033 113.785 116.128 113.195 121.747C112.716 126.304 112.148 130.84 111.103 135.309C110.297 138.756 109.454 142.752 107.654 145.864C107.439 146.235 107.213 146.348 107.076 145.832C106.411 143.326 106.918 140.183 107.084 137.666C107.455 132.022 108.072 126.385 108.704 120.765C108.824 119.7 109.146 118.366 109.14 120.257C109.127 124.526 108.402 128.898 107.901 133.129C107.521 136.327 107.138 139.676 106.137 142.756C105.547 144.572 106.15 140.21 106.18 139.924C106.441 137.437 106.702 134.95 106.964 132.464C107.028 131.857 106.968 135.892 106.96 136.277C106.85 141.699 106.09 157.945 106.117 152.523C106.132 149.685 106.035 146.854 105.805 144.025C105.669 142.346 105.485 140.669 105.371 138.988C105.34 138.536 105.536 137.332 105.201 137.638C104.435 138.336 104.864 142.382 104.804 143.296C104.635 145.915 104.784 148.566 104.487 151.174C104.148 154.155 103.087 149.769 102.809 148.928C102.253 147.246 101.586 145.408 101.452 143.624C101.345 142.197 101.987 146.448 102.46 147.799C103.325 150.271 104.302 152.883 105.539 155.198C106.49 156.981 104.875 154.886 104.444 154.417C102.496 152.299 100.43 150.381 98.3396 148.416C97.4463 147.576 98.2966 149.139 98.4652 149.379C99.6258 151.028 100.962 152.636 102.351 154.098C102.447 154.2 103.878 155.666 103.345 155.024C101.038 152.247 98.5063 149.604 96.1177 146.892C95.5569 146.255 94.9645 145.664 94.3674 145.063C94.1869 144.882 93.9989 144.269 93.861 144.485C93.6003 144.894 97.4485 149.042 97.7271 149.386C99.5136 151.592 101.419 153.717 103.162 155.955C104.466 157.63 102.363 155.814 101.891 155.368C99.5048 153.111 97.3529 150.606 95.0049 148.306C93.6737 147.002 94.5329 147.757 95.2301 148.727C96.4136 150.373 97.8254 151.789 99.0962 153.359C99.5844 153.961 99.6986 154.489 98.9162 153.722C96.7547 151.604 94.6469 148.944 92.1565 147.213C91.114 146.488 90.6537 145.271 89.8982 144.282C89.5166 143.782 89.0605 143.612 88.6802 143.189C88.4399 142.923 88.1589 142.704 87.925 142.415C87.8606 142.336 87.5192 141.667 87.4104 141.78C86.7993 142.415 90.747 148.388 91.1891 148.997C95.5065 154.942 100.914 160.889 107.125 164.922C108.888 166.066 110.547 166.614 112.653 166.835C115.665 167.152 118.629 167.613 121.652 167.143C121.956 167.096 123.219 167.081 123.451 166.893C123.505 166.848 121.579 166.248 121.453 166.201C118.202 164.983 114.947 163.856 111.785 162.406C109.891 161.537 107.974 160.695 106.108 159.767C105.635 159.532 104.313 159.069 103.992 158.58C103.819 158.317 104.624 158.59 104.938 158.623C106.191 158.755 107.41 158.945 108.624 159.294C110.483 159.829 112.351 160.492 114.078 161.37C114.965 161.822 114.711 161.919 113.705 161.813C111.397 161.571 109.197 160.746 106.979 160.114C105.668 159.74 105.65 159.719 106.963 159.857C108.591 160.028 110.183 160.281 111.72 160.867C112.268 161.076 113.278 161.465 111.966 161.092C108.603 160.136 105.174 158.299 102.079 156.678C101.844 156.555 99.8621 155.538 100.252 155.579C103.015 155.869 105.756 156.329 108.485 156.841C111.421 157.392 114.338 158.335 117.313 158.648C119.136 158.839 114.196 156.242 114.125 156.2C110.147 153.871 106.098 151.658 102.026 149.498C100.7 148.795 100.142 148.529 101.961 149.037C107.188 150.497 121.768 157.831 117.059 155.133C113.865 153.304 110.728 151.344 107.609 149.39C106.747 148.85 102.982 146.836 106.168 147.324C110.321 147.961 114.52 148.865 118.538 150.099C118.803 150.18 122.954 151.627 121.427 150.8C118.602 149.27 115.7 147.878 112.878 146.342C111.767 145.737 110.112 144.892 112.411 145.116C115.773 145.444 119.094 145.828 122.373 146.66C123.075 146.838 124.778 147.528 125.522 147.189C126 146.972 123.335 144.831 123.318 144.817C120.946 142.838 118.488 140.952 116.153 138.931C114.796 137.757 116.428 138.507 117.303 138.782C121.255 140.025 125.015 141.756 128.667 143.706C129.781 144.3 130.864 144.952 131.958 145.583C132.378 145.825 132.663 146.007 131.903 145.832C126.384 144.56 121.113 141.88 115.988 139.551C114.037 138.665 112.092 137.763 110.163 136.827C109.486 136.498 108.126 136.081 107.583 135.478C107.349 135.218 108.247 135.702 108.565 135.85C110.375 136.695 112.116 137.674 113.788 138.767C114.455 139.204 120.681 142.881 120.134 144.085C119.564 145.339 110.253 141.425 109.264 141.071C107.783 140.54 106.312 139.996 104.861 139.389C104.383 139.189 102.903 138.758 103.418 138.812C109.069 139.406 114.59 140.84 119.953 142.705C122.3 143.521 119.53 141.772 118.804 141.223C115.311 138.578 111.633 136.055 107.838 133.86C107.771 133.821 106.495 133.261 106.419 133.058C106.34 132.847 106.871 133.087 107.092 133.129C107.597 133.225 109.023 133.532 109.422 133.629C113.413 134.598 117.551 136.182 121.205 138.072C123.43 139.223 121.649 138.273 120.561 137.593C117.87 135.91 115.075 134.348 112.421 132.612C108.925 130.324 120.677 134.176 124.577 135.676C125.554 136.052 127.487 137.291 125.456 135.938C122.893 134.23 120.319 132.518 117.842 130.686C115.314 128.817 118.543 130.084 119.704 130.499C124.561 132.235 129.073 134.61 133.52 137.197C134.083 137.525 134.723 137.837 135.222 138.269C135.74 138.718 134.076 137.513 133.53 137.099C130.039 134.45 126.381 132.035 122.85 129.44C122.136 128.915 120.456 127.851 122.391 128.413C126.025 129.47 129.412 131.186 132.694 133.041C133.684 133.6 134.663 134.177 135.649 134.741C137.182 135.619 135.013 133.874 134.952 133.817C132.331 131.365 129.727 128.894 127.218 126.326C125.977 125.056 126.839 125.457 128.038 125.944C130.228 126.835 132.127 128.199 134.249 129.178C135.351 129.686 132.382 126.837 132.192 126.622C131.118 125.408 128.641 123.483 128.154 121.873C128.073 121.605 128.701 122.02 128.947 122.155C130.292 122.891 131.57 123.755 132.861 124.58C135.342 126.164 137.747 127.811 140.157 129.487C142.971 131.443 135.392 124.431 133.835 121.378C133.247 120.225 135.142 121.541 135.322 121.662C137.292 122.989 139.185 124.591 141.243 125.773C141.753 126.066 141.634 125.596 141.495 125.26C140.526 122.915 138.912 120.752 137.494 118.672C135.471 115.702 133.335 112.804 131.412 109.766C130.478 108.291 133.706 112.4 134.869 113.703C136.864 115.937 138.555 118.345 140.232 120.817C141.65 122.907 138.751 119.471 138.594 119.27C136.128 116.113 133.481 113.075 131.426 109.626C130.294 107.724 131.295 108.566 132.483 109.553C135.988 112.462 139.38 115.528 142.494 118.857C142.93 119.324 144.965 121.742 143.81 119.69C142.172 116.78 140.71 113.77 139.44 110.681C139.397 110.576 138.373 108.112 139.004 109.033C140.637 111.418 142.739 113.48 144.506 115.765C145.374 116.887 147.871 120.332 146.978 119.229C145.008 116.797 143.333 114.058 141.674 111.412C140.974 110.295 140.281 109.174 139.558 108.07C139.376 107.792 138.78 107.024 138.869 107.346C140.004 111.436 141.078 115.499 141.739 119.699C141.803 120.107 142.885 124.908 141.707 124.588C140.524 124.266 139.282 123.152 138.327 122.488C135.205 120.319 132.058 118.207 128.837 116.188C126.798 114.911 124.558 113.163 122.303 112.254C120.654 111.59 125.245 114.27 126.559 115.467C128.397 117.14 129.96 119.072 131.725 120.816C131.745 120.836 132.22 121.446 131.933 120.994C130.73 119.098 129.482 117.234 128.243 115.36C125.755 111.595 123.084 107.818 121.038 103.784C120.621 102.962 121.029 103.604 121.311 103.884C122.318 104.886 123.348 105.843 124.281 106.919C124.449 107.112 127.416 110.716 127.189 110.825C126.28 111.264 125.319 110.057 124.426 109.585C120.416 107.465 116.453 105.254 112.478 103.069C108.272 100.758 104.019 98.7256 99.694 96.6777C99.2524 96.4686 100.657 96.8916 101.095 97.1085C102.886 97.9959 104.58 99.099 106.243 100.202C109.846 102.59 113.469 105.053 116.849 107.754C119.306 109.716 115.282 106.531 114.881 106.242C110.622 103.177 106.248 100.305 101.888 97.3904C101.328 97.0163 99.6243 96.275 100.287 96.1587C100.871 96.0565 102.216 96.9782 102.631 97.1991C105.532 98.744 108.176 100.697 111.042 102.294C111.767 102.698 112.615 103.282 113.467 103.371C114.485 103.478 114.748 102.109 114.827 101.359C114.901 100.656 115.291 99.7209 115.698 99.1397C116.019 98.6824 115.75 99.115 115.559 99.2526C114.749 99.8372 113.791 99.1131 113.346 98.4529C111.693 96.0014 112.319 91.8067 112.998 89.0866C113.226 88.1708 113.652 87.075 113.31 86.6523C112.478 85.6241 116.21 84.7736 115.15 84.6621C111.889 84.3194 107.836 86.865 105.775 89.2774C104.872 90.3341 104.006 91.362 103.145 92.4464C102.706 92.9979 103.209 92.2599 103.351 92.0995C103.94 91.4347 104.503 90.9232 105.254 90.4562C111.923 86.3089 122.124 77.4151 129.188 86.1376" stroke="#FFD424" stroke-width="2" stroke-linecap="round"/>
<path d="M151.47 151.008C152.323 150.888 152.114 145.21 152.14 144.642C152.313 140.845 152.628 137.058 153.078 133.284C153.181 132.42 153.283 133.212 153.36 133.569C153.685 135.065 154.153 136.499 154.688 137.933C155.652 140.52 156.592 143.209 157.726 145.725C158.516 147.479 156.318 142.136 155.817 140.278C155.583 139.412 155.359 135.867 155.095 138.373C154.956 139.701 154.816 141.028 154.677 142.356C154.647 142.638 154.52 143.845 154.622 142.875C154.919 140.053 155.688 137.265 156.019 134.444C156.413 131.081 157.182 120.953 156.828 124.32C156.521 127.242 156.398 130.15 156.163 133.069C156.035 134.661 155.535 137.328 156.192 138.871C156.39 139.337 156.478 139.175 156.894 139.342C157.303 139.507 157.185 140.928 157.216 141.262C157.491 144.219 158.125 139.059 158.11 138.293C158.046 135.047 158.06 132.024 158.402 128.767C158.697 125.959 158.445 123.068 157.959 120.299C157.778 119.267 157.5 120.206 157.466 120.672C157.312 122.787 157.681 125.196 158.033 127.282C158.067 127.48 158.485 129.443 158.184 129.496C157.061 129.693 155.735 123.992 155.592 123.396C154.87 120.387 154.584 117.278 153.856 114.281C153.34 112.156 153.966 118.675 154.403 120.818C154.906 123.289 155.513 125.736 156.022 128.205C156.039 128.286 156.115 128.52 156.097 128.44C155.724 126.747 154.913 125.11 154.424 123.443C153.841 121.455 153.329 119.44 152.816 117.433C152.66 116.825 152.388 114.973 152.384 115.601C152.379 116.745 152.874 118.001 153.212 119.062C154.04 121.663 155.034 124.208 155.886 126.801C156.511 128.703 157.045 130.632 157.636 132.543C157.728 132.838 158.295 133.95 158.217 134.306C158.082 134.923 157.503 133.254 157.254 132.673C155.938 129.603 154.79 126.456 153.525 123.363C152.73 121.419 151.963 119.443 150.985 117.58C150.387 116.44 150.182 116.531 150.447 117.708C151.409 121.966 153.365 125.964 154.247 130.259C154.328 130.655 155.085 134.652 153.896 133.058C150.908 129.051 149.872 123.431 148.642 118.695C148.499 118.145 147.968 116.566 147.955 117.134C147.921 118.716 148.581 120.538 148.972 122.034C150.266 126.985 152.471 131.901 153.346 136.942C153.427 137.41 153.479 137.743 153.219 137.07C152.442 135.061 151.645 133.065 150.962 131.02C149.401 126.337 148.852 121.385 147.318 116.727C146.671 114.765 147.6 120.87 148.089 122.877C149.034 126.752 150.629 130.743 151.084 134.719C151.318 136.762 149.604 130.879 149 128.913C148.5 127.286 148.005 125.657 147.529 124.023C147.527 124.016 147.119 122.611 147.034 122.936C146.398 125.352 147.246 128.332 147.446 130.749C147.558 132.106 147.602 133.468 147.67 134.828C147.681 135.058 147.628 135.735 147.569 135.512C146.832 132.717 146.615 129.817 146.228 126.963C146.175 126.578 146.026 125.718 145.874 126.685C145.618 128.315 145.514 129.98 145.341 131.62C145.167 133.275 145.217 138.157 144.707 136.572C144.192 134.971 144.201 133.027 144.091 131.375C143.855 127.832 143.979 124.298 143.931 120.752C143.928 120.546 143.875 115.198 143.393 117.378C142.356 122.062 142.246 127.072 141.745 131.837C141.66 132.65 141.176 138.814 141.383 134.748C141.641 129.666 141.612 124.563 141.768 119.476C141.871 116.143 141.168 122.856 141.141 123.153C140.303 132.195 140.37 141.286 139.744 150.343C139.663 151.504 139.74 153.029 139.343 154.158C139.084 154.894 138.816 152.678 138.7 151.906C137.536 144.163 137.703 136.304 138.519 128.535C138.879 125.112 138.591 127.85 138.418 129.503C137.929 134.149 137.48 138.801 136.952 143.442C136.772 145.03 136.336 145.851 136.045 143.716C135.503 139.743 135.445 135.743 135.432 131.741C135.418 127.622 135.529 140.38 133.455 143.94C133.089 144.567 133 143.537 132.978 143.351C132.685 140.909 132.707 138.425 132.789 135.972C132.82 135.058 134.178 121.76 133.375 121.628C132.942 121.557 132.052 132.18 132 132.826C131.783 135.517 131.62 138.21 131.35 140.897C131.236 142.03 131.225 145.339 130.825 144.273C130.152 142.48 130.28 139.973 130.265 138.131C130.227 133.456 130.637 128.788 131.084 124.138C131.349 121.373 131.651 118.611 131.941 115.848C132.034 114.964 132.188 113.496 132.001 115.273C131.24 122.522 131.062 129.78 130.676 137.054C130.482 140.719 130.204 144.375 129.835 148.026C129.737 148.991 129.922 151.68 129.208 152.511C128.735 153.061 128.514 151.21 128.384 150.496C127.817 147.384 127.509 144.217 127.277 141.064C127.05 137.968 126.912 134.864 126.851 131.761C126.829 130.601 127.031 127.145 126.806 128.282C125.937 132.671 125.786 137.412 125.435 141.863C125.235 144.399 125.176 146.939 125.032 149.477C125.019 149.705 124.734 152.172 124.667 152.005C124.128 150.664 124.218 148.741 124.149 147.357C123.949 143.378 123.969 139.39 124.044 135.407C124.101 132.369 124.525 123.272 124.207 126.293C123.599 132.087 123.543 137.826 123.773 143.645C123.866 145.984 123.992 148.324 124.042 150.664C124.042 150.668 123.978 152.882 123.912 152.848C123.491 152.626 123.409 150.327 123.379 150.098C123.005 147.275 122.682 144.445 122.456 141.607C122.299 139.635 122.233 137.654 122.001 135.689C121.795 133.948 121.711 135.48 121.627 136.274C121.187 140.46 121.143 144.657 120.802 148.848C120.778 149.146 120.58 153.566 120.19 151.833C119.389 148.263 119.472 144.304 119.38 140.66C119.366 140.133 119.526 138.831 119.17 138.341C119.108 138.255 119.094 138.539 119.081 138.643C118.971 139.538 118.892 140.439 118.798 141.336C118.383 145.289 118.223 149.101 118.444 153.067C118.481 153.733 118.657 154.552 118.586 155.223C118.492 156.124 118.408 153.419 118.332 152.516C118.21 151.077 118.058 149.635 117.821 148.209C117.725 147.637 117.578 145.928 117.49 146.501C116.954 149.991 117.906 153.851 118.382 157.3C118.547 158.494 119.047 162.068 118.755 160.898C118.153 158.479 117.125 155.949 116.022 153.72C115.67 153.008 114.581 151.009 114.569 152.972C114.549 156.293 115.191 159.568 115.659 162.841C115.82 163.967 116.274 166.942 115.746 163.9C114.824 158.589 113.883 153.292 113.01 147.973C112.437 144.479 112.171 147.998 112.245 149.452C112.368 151.852 112.977 154.484 113.599 156.811C114.68 160.861 111.864 148.396 109.532 144.913C108.663 143.615 109.192 147.678 109.221 147.872C109.444 149.385 109.936 150.807 110.347 152.273C110.673 153.438 110.518 152.976 110.81 154.065C110.922 154.483 111.502 155.592 111.176 155.309C110.324 154.569 106.211 148.099 108.029 153.277C108.953 155.91 110.217 158.494 111.744 160.828C111.824 160.949 113.182 162.743 113.173 162.75C112.537 163.206 107.26 161.641 111.357 162.758C113.16 163.249 114.968 163.897 116.529 164.946C116.703 165.063 118.341 166.384 117.336 166.307C116.297 166.227 115.26 166.089 114.223 165.98C114.118 165.969 116.574 166.004 117.151 166.046C119.984 166.254 122.812 166.627 125.637 166.924C127.043 167.072 129.148 167.566 130.259 166.389C131.881 164.67 133.088 162.569 134.729 160.819C137.332 158.043 139.919 154.875 142.982 152.583C144.45 151.485 143.638 152.895 142.82 153.445C138.566 156.309 132.783 157.213 127.993 158.806C124.73 159.892 121.185 160.817 118.047 162.241C117.933 162.293 117.507 162.616 117.914 162.426C119.136 161.857 120.397 161.428 121.668 160.977C125.091 159.763 128.46 158.864 132.016 158.166C134.01 157.775 134.14 157.864 131.945 157.634C128.264 157.247 124.577 156.724 120.873 156.668C120.726 156.666 119.515 156.692 120.48 156.627C122.248 156.508 123.997 155.94 125.724 155.576C127.873 155.123 130.24 154.779 132.33 154.101C132.797 153.95 131.397 153.774 130.911 153.711C128.372 153.382 125.809 153.184 123.254 153.034C120.981 152.9 118.707 152.852 116.431 152.799C115.65 152.78 113.333 152.855 114.091 152.666C119.312 151.366 124.715 150.515 130.012 149.575C132.399 149.152 139.495 147.738 137.21 148.545C136.126 148.929 134.852 149.067 133.732 149.258C129.552 149.968 125.331 150.407 121.116 150.852C118.382 151.141 110.22 152.144 112.894 151.505C117.966 150.293 123.078 149.211 128.234 148.424C129.826 148.182 134.277 146.835 135.861 147.893C136.182 148.108 135.275 148.427 134.912 148.559C133.195 149.186 131.355 149.463 129.573 149.841C128.864 149.992 126.054 150.734 126.106 150.725C130.216 149.981 134.531 150.259 138.679 150.486C138.884 150.498 143.237 150.855 141.711 151.316C137.139 152.696 132.345 153.076 127.824 154.748C127.607 154.828 123.439 156.201 125.087 156.374C127.729 156.652 130.425 156.453 133.088 156.733C133.497 156.776 135.803 156.835 134.206 157.162C131.51 157.715 128.743 157.733 126.092 158.55C125.317 158.788 124.281 159.105 125.704 159.275C127.789 159.524 129.883 159.714 131.972 159.934C133.83 160.129 130.574 160.779 130.305 160.822C126.709 161.387 122.976 162.488 119.696 164.088C117.936 164.947 121.157 164.318 121.55 164.254C122.684 164.072 126.131 164.169 124.989 164.049C123.879 163.932 122.823 163.818 121.711 163.945C120.209 164.117 124.726 164.194 126.237 164.18C127.365 164.17 129.903 163.709 130.94 164.22C131.27 164.383 128.529 164.413 128.157 164.396C127.986 164.388 126.151 164.426 127.094 164.525C128.271 164.649 129.454 164.518 130.641 164.643C132 164.786 132.533 164.809 131.196 165.566C130.033 166.225 133.214 163.786 134.374 163.121C135.729 162.344 137.098 161.585 138.445 160.812C140.161 159.828 142.393 159.514 143.945 158.257C145.299 157.161 146.743 156.158 147.764 154.702C148.511 153.638 149.484 152.617 150.494 151.799C150.945 151.434 150.998 151.743 150.689 152.103C149.84 153.09 149.289 154.272 148.469 155.287C147.153 156.914 145.988 158.105 144.218 159.306C142.512 160.464 140.986 162 139.18 162.988C138.235 163.505 137.497 164.335 136.5 164.748C135.846 165.019 135.29 165.395 134.621 165.628C134.326 165.731 135.252 165.306 135.438 165.133C137.568 163.16 139.848 161.558 142.358 160.004C144.435 158.718 146.206 157.155 148.165 155.751C149.642 154.692 151.145 153.626 152.122 152.098C152.572 151.393 152.929 150.64 153.37 149.932C153.487 149.745 154.293 148.573 154.132 148.623C153.795 148.727 153.659 149.109 153.325 149.147C152.191 149.277 152.198 144.391 152.16 143.906C151.827 139.644 151.628 135.341 152.034 131.076C152.167 129.681 152.35 129.489 152.287 130.96C152.039 136.821 149.82 142.836 147.693 148.229C147.538 148.622 146.574 151.814 146.141 151.937C145.632 152.081 146.097 143.878 146.143 143.416C146.436 140.513 146.33 137.083 147.547 134.375C148.215 132.889 148.249 133.745 147.922 134.854C147.175 137.386 146.492 139.942 145.719 142.464C145.208 144.13 144.004 149.197 144.186 147.464C144.535 144.144 145.139 140.874 145.984 137.643C146.508 135.64 149.044 129.952 148.223 131.852C145.641 137.834 142.527 143.89 138.943 149.323C138.109 150.588 139.134 146.3 139.201 146.061C140.37 141.896 142.197 137.804 144.281 134.018C145.24 132.276 143.745 134.843 143.505 135.198C140.742 139.276 137.638 143.085 134.703 147.034C134.308 147.566 133.425 149.334 132.656 149.513C131.835 149.704 133.125 147.878 133.53 147.138C135.58 143.388 138.079 139.605 140.847 136.337C141.276 135.83 142.243 134.645 142.063 136.096C141.782 138.366 140.561 140.668 139.961 142.879C139.693 143.865 139.439 144.85 139.141 145.828C139.055 146.106 138.816 146.852 139.063 146.698C140.649 145.713 141.568 143.362 142.912 142.055C142.99 141.979 144.497 140.388 144.585 140.7C144.727 141.201 144.275 142.018 144.091 142.434C143.212 144.428 142.338 146.406 141.532 148.433C140.611 150.749 140.074 153.527 138.882 155.711C137.499 158.246 141.803 150.729 143.335 148.282C144.636 146.203 146.151 143.937 147.993 142.277C148.62 141.713 148.372 142.1 148.094 142.798C147.018 145.502 145.184 147.942 143.89 150.552C143.201 151.943 142.558 153.355 141.916 154.768C141.846 154.922 140.978 156.789 141.409 155.537C142.593 152.109 144.317 148.802 145.972 145.581C147.157 143.277 148.729 141.088 149.797 138.738C150.775 136.585 149.185 139.792 149.028 140.387C148.837 141.111 149.759 137.868 149.828 137.635C150.279 136.104 150.746 134.58 151.299 133.083C151.31 133.052 152.084 131.024 151.984 131.014C151.812 130.996 151.218 132.198 151.172 132.261C149.743 134.229 147.961 135.976 146.39 137.827C139.952 145.418 133.55 152.961 126.751 160.235C126.14 160.889 123.179 164.575 123.974 161.702C126.063 154.151 129.808 147.043 133.12 139.977C134.195 137.684 135.254 135.39 136.202 133.041C136.469 132.382 137.13 131.331 137.169 130.591C137.201 129.985 136.268 131.405 135.846 131.841C133.395 134.374 131.002 136.967 128.42 139.369C126.115 141.513 123.69 143.538 121.15 145.397C119.914 146.302 118.577 147.344 117.051 147.703C116.29 147.882 115.915 147.784 115.94 146.948C116.037 143.621 116.966 140.187 118 137.055C120.673 128.965 124.445 121.236 127.449 113.263C128.083 111.578 128.798 109.884 129.318 108.157C129.481 107.615 129.835 106.67 129.17 107.546C122.164 116.769 114.171 125.162 107.609 134.743C107.445 134.983 106.805 136.294 106.842 136.109C107.008 135.268 107.48 134.42 107.836 133.661C109.865 129.344 112.01 125.079 114.068 120.776C116.677 115.321 119.755 109.846 121.773 104.131C122.082 103.254 121.959 103.569 121.606 104.099C119.997 106.516 118.16 108.812 116.389 111.108C115.3 112.519 97.7718 135.447 97.6214 135.338C96.3677 134.436 99.6258 127.567 99.9672 126.78C102.015 122.06 104.353 117.466 106.432 112.756C107.064 111.324 106.568 111.764 105.681 112.62C102.308 115.874 99.5671 120.009 96.5848 123.617C94.622 125.992 92.4283 128.418 90.8252 131.065C89.6526 133.001 90.7125 131.188 91.1343 130.148C92.3967 127.034 93.7058 123.88 94.6284 120.647C94.7771 120.125 96.1415 115.342 95.0974 117.803C93.9846 120.426 92.1456 122.955 91.8407 125.855" stroke="#FFD424" stroke-width="2" stroke-linecap="round"/>
<path d="M110.722 165.581C111.361 165.521 112.116 164.892 112.66 164.619C114.783 163.554 116.955 162.592 119.05 161.467C121.424 160.192 128.116 155.65 125.772 156.978C124.426 157.741 123.265 159.549 122.206 160.647C120.155 162.774 118.312 165.105 116.326 167.294C116.196 167.438 114.822 169.16 115.32 168.778C117.239 167.309 119.665 166.504 121.737 165.245C124.191 163.752 126.777 162.184 128.812 160.135C129.149 159.796 130.284 158.642 129.342 159.656C128.456 160.611 127.544 161.62 126.828 162.709C126.645 162.988 125.236 165.269 125.578 165.607C126.457 166.476 135.1 157.927 135.992 157.161C136.208 156.976 138.12 154.871 137.502 155.84C136.377 157.602 135.091 159.188 134.141 161.079C133.312 162.728 131.845 164.594 131.378 166.368C131.208 167.017 132.813 165.553 133.062 165.352C138.444 160.993 143.386 156.748 147.497 151.119C147.624 150.945 148.637 149.252 148.009 150.035C146.991 151.304 146.23 152.727 145.53 154.189C144.877 155.551 144.491 157.049 143.983 158.467C143.484 159.863 144.811 158.59 145.297 158.098C146.867 156.51 148.15 154.453 149.525 152.69C151.338 150.365 153.292 148.006 154.756 145.44C154.784 145.39 155.497 143.951 155.614 144.063C155.82 144.262 155.48 145.066 155.393 145.246C154.626 146.833 153.975 148.393 153.261 150.012C152.679 151.332 151.98 152.591 151.191 153.797C150.384 155.029 151.316 153.805 151.625 153.321C152.438 152.048 152.901 150.571 153.783 149.354C155.312 147.241 156.942 145.023 158.219 142.747C159.624 140.245 159.834 137.295 160.127 134.504" stroke="#171717" stroke-width="2" stroke-linecap="round"/>
<path d="M111.36 166.987C113.578 167.22 115.87 166.895 118.07 166.624C118.916 166.52 121.181 166.72 121.914 166.126C122.725 165.469 119.82 166.297 118.818 166.589C118.444 166.698 115.477 167.467 115.42 168.009C115.393 168.264 119.844 168.035 120.025 168.02C123.016 167.779 126.012 167.155 129.026 167.276C130.27 167.327 128.081 167.168 127.814 167.14C127.187 167.074 125.375 166.749 125.922 167.064C126.656 167.487 128.011 167.069 128.739 166.922C131.332 166.399 133.893 165.675 136.446 164.992C137.085 164.821 138.841 164.768 139.291 164.17C139.366 164.07 138.428 164.032 138.395 164.032C137.268 164.037 136.078 164.174 134.987 164.462C134.569 164.572 133.724 164.75 133.429 165.121C133.191 165.421 134.202 165.314 134.574 165.224C138.211 164.347 141.7 161.977 144.866 160.036C145.404 159.705 147.045 158.761 146.529 159.125C145.98 159.512 145.225 159.705 144.631 160.02C143.764 160.479 141.408 161.523 141.282 162.724C141.242 163.106 144.719 160.523 144.911 160.356C146.549 158.925 148.185 157.49 149.804 156.037C150.624 155.301 151.382 154.412 152.268 153.756C153.647 152.736 149.433 155.692 148.068 156.73C147.006 157.537 145.977 158.363 144.991 159.261C144.941 159.306 143.965 160.414 143.994 160.417C144.336 160.453 145.077 159.65 145.284 159.476C146.339 158.586 147.303 157.606 148.295 156.649C150.098 154.91 151.874 153.193 153.355 151.165C154.039 150.227 154.261 148.966 154.662 147.896C155.199 146.462 155.86 145.067 156.371 143.627C157.056 141.699 158.01 139.885 158.701 137.953C159.054 136.966 159.874 135.79 159.984 134.743C160.116 133.496 160.247 132.248 160.378 131.001C160.454 130.274 160.531 129.546 160.607 128.819C160.659 128.321 160.757 128.894 160.737 129.086C160.514 131.2 160.141 134.186 160.761 136.191" stroke="#171717" stroke-width="2" stroke-linecap="round"/>
<path d="M116.86 163.167C112.246 162.683 107.632 162.198 103.018 161.713C102.689 161.678 101.165 161.518 102.249 161.632C103.819 161.797 105.121 162.406 106.601 162.942C108.905 163.776 111.296 164.475 113.679 165.04C116.451 165.698 111.657 165.104 111.02 165.037C109.363 164.862 104.389 164.34 106.047 164.514C107.732 164.691 109.372 164.844 110.926 165.579C114.599 167.314 103.3 162.768 99.5631 161.174C99.3574 161.086 96.3908 159.612 96.5286 159.501C97.1232 159.019 99.7776 160.546 100.235 160.743C103.6 162.188 107.056 163.485 110.449 164.864C111.248 165.188 113.57 166.208 112.713 166.118" stroke="#171717" stroke-width="2" stroke-linecap="round"/>
<path d="M161.179 133.565C158.865 155.576 139.726 171.604 118.43 169.366C97.1339 167.128 81.7455 147.47 84.0589 125.46C86.3723 103.449 106.67 76.397 127.966 78.6353C149.262 80.8736 163.492 111.555 161.179 133.565Z" stroke="#171717" stroke-width="1.5"/>
<path d="M143.391 87.106L122.8 108.969C122.283 109.517 122.431 110.408 123.098 110.759L135.353 117.221" stroke="#171717" stroke-width="1.5" stroke-linecap="round"/>
<path d="M83.5122 120.186C83.7109 118.296 83.9864 116.644 85.2785 115.141C85.8327 114.497 86.2852 113.397 86.6839 112.626C87.1492 111.728 87.7428 110.89 88.2873 110.037C89.5259 108.098 90.7124 106.077 91.771 104.033C92.7264 102.187 93.5999 100.215 94.9134 98.5623C97.4906 95.3188 99.7843 91.7939 102.987 89.0989C104.45 87.8671 106.001 86.8301 107.494 85.6211C108.652 84.6837 109.785 83.7439 111.05 82.952C112.57 82.0002 114.282 81.3683 115.797 80.408C117.727 79.1843 119.715 78.4315 121.987 78.1108C123.976 77.83 126.368 78.4762 128.371 78.6867C130.3 78.8895 132.151 79.0317 133.975 79.7512C136.001 80.5504 137.193 81.7066 138.747 83.2005C141.279 85.6353 143.836 88.0978 146.086 90.7761C147.208 92.1113 148.517 93.3659 149.672 94.6607C150.216 95.2716 150.638 95.9704 151.274 96.4986C151.721 96.8687 152.766 97.5881 151.55 97.098" stroke="#171717" stroke-width="1.5" stroke-linecap="round"/>
<path d="M152.5 95.8101C152.378 96.9717 153.737 98.7036 154.174 99.7896C154.68 101.05 155.378 102.282 155.716 103.607C156.312 105.939 157.533 108.117 158.29 110.386C159.03 112.606 159.737 114.823 160.146 117.153C160.37 118.428 160.65 119.635 160.711 120.921C160.759 121.924 160.71 123.058 160.902 124.037C161.317 126.151 161.418 128.575 161.192 130.724C160.967 132.867 161.109 135.13 160.882 137.294C160.778 138.28 160.851 139.549 160.535 140.491C160.319 141.137 159.645 141.824 159.576 142.482" stroke="#171717" stroke-width="1.5" stroke-linecap="round"/>
<path d="M160.183 140.306C159.757 144.356 157.839 147.517 155.65 150.86C153.113 154.734 151.023 158.847 146.814 161.152C145.156 162.059 143.624 163.2 141.944 164.063C141.275 164.406 140.339 164.98 139.759 165.45C139.104 165.98 138.311 166.191 137.635 166.653C136.949 167.122 135.776 167.256 134.977 167.515C134.17 167.776 133.329 167.865 132.501 168.057C130.856 168.44 129.249 168.695 127.592 169.021" stroke="#171717" stroke-width="1.5" stroke-linecap="round"/>
<path d="M128.442 169.11C127.578 169.019 126.714 168.929 125.85 168.838C125.004 168.749 123.611 168.595 122.769 168.799C121.12 169.2 119.246 168.651 117.575 168.961C116.392 169.181 114.828 169.011 113.631 168.885C112.66 168.783 111.733 168.732 110.819 168.399C109.84 168.042 108.989 167.506 108.131 166.933C107.364 166.42 106.47 165.862 105.747 165.288C104.267 164.112 102.385 163.213 100.66 162.429C99.8349 162.054 98.701 161.322 97.9809 160.774C96.981 160.013 95.9577 159.383 95.0535 158.469C93.5096 156.909 91.9845 154.699 91.1862 152.643C90.5808 151.083 89.4248 149.853 88.6859 148.386C88.5331 148.083 87.369 146.536 87.4531 146.545" stroke="#171717" stroke-width="1.5" stroke-linecap="round"/>
<path d="M88.251 148.015C87.7462 147.227 87.5469 145.943 87.1891 145.051C86.6359 143.671 85.8269 142.306 85.2014 140.943C84.601 139.635 83.9132 138.215 83.5315 136.827C83.1378 135.394 83.0938 133.638 82.977 132.151C82.7813 129.66 82.9744 127.377 83.2679 124.86C83.5329 122.587 84.2126 120.328 84.5642 118.055C85.0272 115.061 86.0938 112.025 87.3739 109.316" stroke="#171717" stroke-width="1.5" stroke-linecap="round"/>
<path d="M142.717 87.2971C140.805 88.8455 138.341 90.6644 136.976 92.7149C136.482 93.457 135.73 93.9846 135.182 94.697C134.246 95.9156 133.121 97.1122 131.937 98.0933C130.42 99.3506 128.286 100.534 127.142 102.148C126.658 102.829 126.186 103.572 125.615 104.186C125.031 104.816 123.707 105.404 123.557 106.348C123.497 106.728 123.415 107.469 123.146 107.749C122.876 108.03 122.596 108.782 122.351 108.939C121.738 109.332 122.741 109.465 122.882 109.543C123.741 110.016 124.508 110.569 125.298 111.155C126.327 111.919 127.27 112.795 128.237 113.635C129.095 114.381 130.222 114.814 131.093 115.558C132.125 116.44 133.101 117.464 134.206 118.17" stroke="#171717" stroke-width="1.5" stroke-linecap="round"/>
</svg>
