<svg width="403" height="253" viewBox="0 0 403 253" fill="none" xmlns="http://www.w3.org/2000/svg">
<path d="M252.592 106.294C257.039 106.294 261.266 105.016 265.667 104.527C270.427 103.998 275.291 103.582 279.996 102.662C286.991 101.293 294.02 99.8897 301.062 98.716C315.711 96.2745 330.075 92.969 344.414 89.0583C357.805 85.4061 371.706 82.5275 384.201 76.2803C387.286 74.7377 390.066 72.6315 392.851 70.6343C393.955 69.8431 396.327 67.7084 396.417 66.1769C396.5 64.7673 396.829 65.2013 395.971 65.5826C394.777 66.1132 393.538 67.2859 392.372 67.9763C386.589 71.4034 380.529 74.2975 374.361 76.9407C367.583 79.8455 360.803 82.068 353.643 83.858C343.02 86.5135 332.645 89.5707 321.764 91.1384C319.133 91.5175 316.455 91.5869 313.807 91.7988C310.916 92.03 308.078 92.6902 305.189 92.9214C299.291 93.3932 293.607 95.5278 287.954 97.0981C285.022 97.9126 282.173 98.7774 279.204 99.4589C276.683 100.037 274.136 100.356 271.676 101.176C267.578 102.542 263.469 104.299 259.492 105.996C256.991 107.064 254.101 107.76 251.403 108.06C250.62 108.147 248.762 107.773 250.379 107.185C254.452 105.704 258.711 104.397 262.926 103.388C264.905 102.915 266.949 102.527 268.902 101.985C270.179 101.63 267.766 101.836 267.45 101.836C263.795 101.836 260.149 101.705 256.636 102.876C255.525 103.247 254.586 103.322 253.417 103.322C252.979 103.322 255.145 102.989 255.596 102.876C258.424 102.169 267.195 101.836 264.28 101.836C261.014 101.836 257.789 103.025 254.556 103.025C253.923 103.025 256.619 102.609 256.933 102.546C260.361 101.861 263.834 101.16 267.219 100.284C274.968 98.2786 282.603 95.858 290.397 94.044C292.419 93.5734 294.395 93.1898 296.439 92.8553C296.772 92.8009 298.639 92.6242 297.413 92.6242C292.695 92.6242 288.613 93.1446 284.107 94.7043C282.284 95.3354 280.422 95.933 278.626 96.6359C278.236 96.7884 277.122 97.3398 278.213 97.3788C282.638 97.5368 287.115 97.4272 291.52 97.0156C295.718 96.6232 299.726 94.8215 303.835 93.9614C307.914 93.1078 311.969 92.366 316.052 91.5841C322.943 90.2646 329.725 88.948 336.457 86.9121C344.974 84.3362 353.476 81.9748 362.112 79.8463C364.075 79.3624 366.149 78.7113 368.187 78.6576C369.113 78.6333 368.983 78.7518 368.17 78.9548C364.961 79.7572 361.609 79.4514 358.348 79.9949C352.199 81.0196 345.958 81.4716 339.825 82.5868C333.961 83.6529 328.308 85.4192 322.49 86.681C318.514 87.5434 314.587 88.4204 310.67 89.504C309.664 89.7823 300.17 91.6781 300.17 92.7728C300.17 93.2682 315.575 91.7605 317.075 91.7327C317.34 91.7278 319.46 91.7235 318.198 91.9638C316.863 92.2182 315.315 92.327 313.955 92.327C310.261 92.327 306.38 94.2621 302.828 95.1501C297.648 96.445 292.339 98.2532 287.425 100.35C286.302 100.83 284.935 101.539 283.678 101.539C283.023 101.539 284.988 101.549 285.642 101.539C295.209 101.387 304.406 97.0832 313.642 95.1501C324.122 92.9566 334.713 91.1503 345.074 88.4639C351.105 86.9005 356.775 85.4223 362.541 82.9665C367.5 80.8544 372.505 78.8895 377.382 76.594C378.005 76.301 379.175 75.719 379.892 75.719C380.651 75.719 378.389 75.9832 377.63 75.9832C375.486 75.9832 369.082 76.4918 371.225 76.5775C374.366 76.7032 377.32 76.4594 380.37 75.686C382.15 75.2349 383.503 74.1465 385.125 73.6059" stroke="#C6C6C8" stroke-width="2" stroke-linecap="round"/>
<path d="M250.966 167.19C250.966 163.127 250.48 158.715 251.269 154.719C252.107 150.478 252.803 146.209 253.538 141.946C255.085 132.972 257.511 123.366 256.345 114.18C256.048 111.841 255.477 109.547 254.832 107.289C254.581 106.409 254.151 105.11 253.689 104.331C253.35 103.758 252.753 103.607 252.496 103.221C252.135 102.681 252.424 104.525 252.496 105.171C252.677 106.799 252.969 108.437 253.151 110.079C253.423 112.519 253.924 114.989 253.992 117.44C254.022 118.548 254.294 120.637 254.294 118.298C254.294 116.194 253.95 114.036 253.538 111.978C253.173 110.155 253.28 107.975 252.177 106.398C252.054 106.223 250.108 103.434 250.059 104.263C249.97 105.776 250.614 106.85 251.269 108.196C252.83 111.405 253.948 115.385 254.294 118.936C254.678 122.872 255.498 126.796 255.79 130.735C256.01 133.7 255.807 136.755 255.807 139.727C255.807 147.938 255.354 155.682 253.084 163.627C252.569 165.43 251.91 167.116 251.269 168.871C250.954 169.732 250.664 170.594 250.664 169.241C250.664 163.813 250.687 158.497 251.874 153.156C252.991 148.127 253.689 142.834 253.689 137.677C253.689 129.259 254.238 120.654 253.622 112.264C253.536 111.099 253.153 107.635 253.084 108.801C253.008 110.102 253.084 111.431 253.084 112.734C253.084 119 254.96 125.187 255.185 131.475C255.28 134.147 255.202 136.835 255.202 139.509C255.202 142.191 254.686 144.528 254.361 147.156C253.481 154.29 249.992 160.27 246.748 166.569C243.789 172.312 241.212 178.48 237.52 183.796C236.769 184.878 235.746 186.039 235.251 187.275C234.93 188.078 236.007 185.718 236.445 184.973C238.132 182.1 240.443 179.648 242.193 176.804C244.01 173.852 245.336 170.771 246.428 167.493C247.524 164.206 248.587 160.912 249.521 157.577C249.888 156.267 250.966 154.523 250.966 153.156C250.966 150.076 251.157 159.376 250.496 162.383C248.963 169.351 244.711 175.071 240.512 180.67C237.953 184.082 235.336 188.034 232.243 190.906C231.644 191.462 230.089 195.926 229.789 195.326" stroke="#C6C6C8" stroke-width="2" stroke-linecap="round"/>
<path d="M242.609 179.862C242.736 178.597 243.934 177.355 244.498 176.253C245.852 173.606 247.298 171.01 248.652 168.363C251.152 163.478 254.338 158.807 256.185 153.612C259.159 145.25 261.774 136.749 264.516 128.328C266.98 120.758 267.915 112.625 267.915 104.701C267.915 103.444 267.915 104.896 267.915 105.309C267.915 107.627 267.698 109.815 267.348 112.108C265.983 121.056 263.159 129.686 260.927 138.442C260.767 139.071 258.941 145.194 258.85 143.142C258.495 135.146 258.682 127.55 260.739 119.725C261.547 116.648 262.582 113.574 262.627 110.366C262.627 110.34 262.631 107.868 262.543 107.89C261.855 108.062 262.254 112.22 262.249 112.716C262.203 117.324 261.42 121.936 260.739 126.481C259.811 132.667 257.101 151.116 256.962 144.862C256.799 137.539 256.206 130.255 256.206 122.914C256.206 118.703 255.942 114.559 255.829 110.366C255.82 110.062 255.425 107.932 255.451 109.107C255.521 112.264 256.167 115.467 256.584 118.592C257.049 122.079 258.147 132.483 258.451 128.978C258.805 124.917 258.885 120.809 259.417 116.766C259.662 114.899 259.606 113.022 259.606 111.143C259.606 110.686 259.606 109.02 259.606 110.429C259.606 115.527 258.85 120.628 258.85 125.768C258.85 126.55 258.934 127.287 258.829 125.978C258.453 121.279 257.717 116.652 257.717 111.919C257.717 110.249 257.196 107.606 257.906 106.044C258.236 105.318 258.472 105.468 258.472 106.233C258.472 109.994 258.427 114.513 259.794 118.067C260.456 119.788 261.512 113.906 261.704 113.22C262.232 111.335 262.729 108.376 264.138 106.967C265.119 105.986 264.893 107.931 264.893 108.478C264.893 110.618 264.893 112.758 264.893 114.899C264.893 115.405 264.52 117.814 264.977 118.214C265.173 118.385 265.271 114.961 265.271 114.689C265.271 114.517 265.177 109.023 265.355 109.023C265.634 109.023 264.945 111.765 264.893 111.961C264.274 114.292 264.11 116.664 263.844 119.053C263.684 120.495 264.454 124.069 263.466 125.18C263.301 125.367 262.967 122.82 262.921 122.453C262.687 120.579 262.627 118.756 262.627 116.871C262.627 115.294 262.485 113.979 263.382 112.632" stroke="#C6C6C8" stroke-width="2" stroke-linecap="round"/>
<path d="M267.654 114.216C273.031 114.216 278.308 114.342 283.621 113.33C294.645 111.23 305.998 108.101 316.705 104.736C331.104 100.21 345.046 94.0087 359.341 89.1272C364.957 87.2097 371.261 84.4889 376.218 81.2273C378.373 79.8093 380.828 78.5025 382.706 76.7267C383.729 75.7586 385.01 74.6266 386.344 74.1413C388.097 73.5041 386.47 74.2199 385.531 74.5243C381.897 75.7018 378.756 77.5375 375.404 79.3121C372.514 80.8424 369.775 82.661 366.762 83.9564C362.525 85.778 358.166 87.2347 354.003 89.223C344.417 93.8013 333.173 97.1476 322.81 99.469C315.197 101.174 307.912 103.926 300.403 106.028C297.233 106.916 293.931 108.185 290.731 108.853C287.328 109.564 283.679 109.543 280.222 109.907C278.606 110.077 277.047 110.428 275.41 110.337C274.366 110.279 278.598 109.134 278.929 109.045C283.142 107.91 287.799 107.931 292.144 107.776C292.522 107.762 297.376 108.002 297.291 108.087C295.375 110.003 288.635 109.021 286.326 109.069C280.684 109.185 275.205 110.228 269.665 111.199C269.472 111.233 265.249 111.805 266.194 111.175C268.93 109.351 272.191 108.66 275.314 107.752C277.834 107.02 280.713 106.459 283.358 106.459C284.429 106.459 278.639 107.662 277.9 107.752C275.842 108.004 270.697 109.624 268.707 108.518C268.194 108.233 269.47 107.575 270 107.321C272.305 106.216 274.979 105.753 277.493 105.43C280.24 105.077 288.34 104.158 285.8 105.262C280.571 107.536 273.789 107.419 268.228 108.59C265.978 109.064 260.668 109.736 266.241 109.236C275.048 108.446 283.891 108.167 292.694 107.321C294.46 107.151 296.306 107.103 298.057 106.794C299.186 106.595 295.78 106.459 294.633 106.459C289.644 106.459 284.638 106.89 279.671 106.89C275.06 106.89 288.677 104.898 293.173 103.874C300.007 102.318 307.231 99.7185 314.24 99.1578C326.203 98.2007 266.353 102.102 278.355 102.102C280.094 102.102 282.073 101.501 283.765 101.241C290.64 100.183 297.538 99.3615 304.472 98.7987C310.16 98.3371 327.271 97.8411 321.565 97.8411C313.841 97.8411 305.991 99.7425 298.296 100.427C296.283 100.605 293.981 100.59 292.024 101.193C289.735 101.897 296.778 100.59 299.134 100.163C307.149 98.7116 315.197 96.9209 323.289 95.9499C324.576 95.7954 325.869 95.6866 327.167 95.6866C328.46 95.6866 324.638 96.2325 323.384 96.5484C319.924 97.42 309.331 98.703 312.899 98.703C318.978 98.703 325.47 95.9724 331.332 94.5854C335 93.7174 339.391 92.2393 343.206 92.2393C344.427 92.2393 340.802 92.6717 339.615 92.9575C333.157 94.5128 326.793 96.4344 320.392 98.2002C315.293 99.6069 299.935 103.373 304.855 101.432C311.274 98.9007 317.79 96.6367 324.581 95.3275C325.163 95.2153 332.596 94.3627 329.058 95.7105C326.23 96.7877 323.061 97.1518 320.105 97.6736C312.522 99.0116 304.916 100.135 297.291 101.193C291.3 102.023 284.986 102.861 279.145 104.496C278.32 104.727 276.714 104.665 278.283 103.778C281.211 102.123 285.038 102.581 288.266 102.581C290.729 102.581 291.611 103.971 288.816 104.831C284.336 106.21 279.621 106.783 275.075 107.92C273.217 108.384 273.115 108.452 271.532 107.321" stroke="#C6C6C8" stroke-width="2" stroke-linecap="round"/>
<path d="M172.309 242.824C173.888 242.824 174.621 242.521 175.956 241.631C177.677 240.483 179.838 240.093 181.687 239.194C184.948 237.607 187.655 235.202 190.998 233.748C196.887 231.188 203.452 228.051 208.024 223.479C214.206 217.297 220.699 211.494 226.328 204.688C232.983 196.639 239.078 188.72 244.177 179.578C246.284 175.8 248.544 172.097 250.362 168.165C251.058 166.66 252.177 165.27 252.177 163.56" stroke="#C6C6C8" stroke-width="2" stroke-linecap="round"/>
<path d="M376.086 37.7191C385.501 34.8237 395.438 40.321 397.987 49.835C400.536 59.3489 394.679 69.0782 385.078 71.2779L222.389 108.553L216.556 86.7829L376.086 37.7191Z" fill="white" stroke="#171717" stroke-width="2"/>
<ellipse cx="9.01525" cy="9.01523" rx="9.01525" ry="9.01523" transform="matrix(0.258818 0.965926 -0.965926 0.25882 384.77 44.0444)" stroke="#171717" stroke-width="2"/>
<ellipse cx="125.78" cy="127.079" rx="123.959" ry="123.96" fill="white" stroke="#171717" stroke-width="2"/>
<ellipse cx="125.781" cy="127.079" rx="101.421" ry="101.422" stroke="#171717" stroke-width="2"/>
<path d="M241.004 80.1444C245.775 80.1444 250.113 79.6439 254.739 78.5925C256.072 78.2897 257.206 77.3815 258.47 76.8756C259.592 76.4271 260.6 76.1236 261.657 75.5549C262.924 74.8724 264.452 74.5699 265.8 74.1846C272.108 72.3825 278.387 69.4313 284.554 67.0693C296.671 62.429 309.214 58.7969 321.468 54.5885C326.935 52.7111 332.732 51.6616 338.307 50.1311C343.629 48.6702 348.867 47.0123 354.222 45.6737C361.332 43.8961 368.604 41.4507 375.915 40.6385C381.591 40.0077 388.306 39.3958 393.265 42.7021C397.801 45.7257 397.013 52.1 397.013 56.8668C397.013 60.6863 396.251 64.6518 393.216 67.1353C392.458 67.7553 390.592 67.5777 389.65 67.7296C388.235 67.9579 386.611 68.5139 385.259 69.0008C383.303 69.7048 381.493 70.8337 379.431 71.246C375.735 71.9852 372.025 73.6479 368.42 74.7294C364.093 76.0273 359.534 76.9442 355.394 78.8071C352.672 80.0319 349.128 80.8462 346.199 81.399C342.881 82.025 339.628 83.0829 336.26 83.6443C332.419 84.2845 328.511 84.9957 324.654 85.4933C321.037 85.96 317.619 87.0713 314.039 87.6394C310.496 88.2019 306.905 89.7723 303.424 90.6936C300.05 91.5868 296.957 92.7672 293.453 93.2195C289.031 93.79 284.692 94.8412 280.229 95.2335C275.323 95.6649 270.545 96.5407 265.668 97.0825C261.64 97.5301 257.312 98.9238 253.419 100.054C251.761 100.535 249.541 101.837 247.839 101.837" stroke="#171717" stroke-width="2" stroke-linecap="round"/>
<path d="M26.9028 105.525C26.9028 103.122 26.8207 100.753 27.1726 98.3778C27.385 96.9442 28.266 95.5239 29.0606 94.3321C29.9333 93.023 30.4541 91.5544 31.2783 90.2114C32.5452 88.1468 33.6937 85.9919 34.9944 83.9479C36.1872 82.0735 37.8893 80.2643 38.7704 78.2239C39.5789 76.3516 41.03 74.4516 42.2917 72.8745C45.2373 69.1925 47.8072 65.181 50.9077 61.6213C53.6242 58.5023 56.3857 55.6194 59.4187 52.7955C62.6319 49.8039 66.2836 47.4547 69.7879 44.8388C74.8139 41.087 79.9892 37.6888 85.3715 34.5296C88.4574 32.7183 92.2007 31.9687 95.6807 31.2031C99.9748 30.2584 104.187 29.2498 108.567 28.7157C116.325 27.7696 124.071 27.5769 131.883 27.5769" stroke="#171717" stroke-width="2" stroke-linecap="round"/>
<path d="M129.137 27.2121C132.695 27.2121 136.261 27.1463 139.819 27.2121C142.783 27.267 145.726 28.0416 148.625 28.5435C150.047 28.7896 151.448 29.3248 152.828 29.7465C154.972 30.4017 157.008 31.3019 159.132 31.9761C162.88 33.166 166.128 35.74 169.734 37.2854C171.688 38.1225 173.481 39.3538 175.26 40.5014C176.955 41.595 178.671 42.6555 180.417 43.6694C183.465 45.4389 186.347 47.4592 189.047 49.7005C190.27 50.7158 191.699 51.5024 192.816 52.6198C194.241 54.0448 195.664 55.5046 197.051 56.9827C199.639 59.7414 203.455 61.176 205.496 64.4414C205.812 64.9469 206.131 65.442 206.218 66.0454C206.237 66.1812 206.37 66.7594 206.37 66.3342" stroke="#171717" stroke-width="2" stroke-linecap="round"/>
<path d="M205.648 65.7574C205.722 66.4235 206.759 67.4162 207.124 67.987C207.935 69.2556 208.927 70.4089 209.691 71.7084C210.865 73.7079 211.996 75.7273 213.332 77.6272C216.463 82.0808 218.561 87.5673 220.117 92.7531C220.984 95.6427 221.28 98.6358 221.961 101.559C222.487 103.819 222.656 106.135 223.261 108.376C223.809 110.41 224.289 112.478 224.848 114.52C225.023 115.155 225.096 115.832 225.394 116.428C225.556 116.752 225.624 116.924 225.426 116.428" stroke="#171717" stroke-width="2" stroke-linecap="round"/>
<path d="M225.714 114.263C225.714 116.021 225.631 117.804 225.93 119.54C226.266 121.486 226.195 123.53 226.66 125.459C227.166 127.555 227.283 129.77 227.558 131.907C227.828 133.996 227.735 136.121 227.735 138.227C227.735 140.679 227.044 143.06 226.508 145.445C225.922 148.048 225.311 150.704 224.487 153.24C223.562 156.086 222.453 158.852 221.351 161.629C220.49 163.801 219.501 165.865 218.849 168.118C218.627 168.883 218.453 169.681 218.207 170.42" stroke="#171717" stroke-width="2" stroke-linecap="round"/>
<path d="M142.414 226.715C145.175 226.715 148.028 227.062 150.627 226.117C152.314 225.503 154.1 224.717 155.881 224.321C157.501 223.961 159.582 222.782 161.135 222.077C162.399 221.502 164.112 221.544 165.308 220.879C167.242 219.805 169.447 219.061 171.443 218.036C173.786 216.833 176.058 215.586 178.26 214.146C179.525 213.319 180.905 211.916 182.284 211.386C184.116 210.681 186.498 209.193 187.903 207.861C189.206 206.627 190.841 205.792 192.243 204.702C193.941 203.382 195.2 201.761 196.715 200.246C198.436 198.525 200.496 196.453 201.82 194.394C203.078 192.437 204.98 190.899 206.292 188.99C208.616 185.61 210.838 182.098 213.641 179.131C215.892 176.747 217.531 174.142 217.531 170.751" stroke="#171717" stroke-width="2" stroke-linecap="round"/>
<path d="M64.0039 209.057C65.5345 209.21 67.4742 211.529 68.6592 212.499C69.874 213.493 71.3232 214.261 72.6828 214.976C74.334 215.845 76.2817 216.122 77.9201 217.005C79.6236 217.922 81.4046 218.925 83.2238 219.598C84.7883 220.178 86.2784 221.079 87.8127 221.776C89.3379 222.47 91.1724 222.731 92.734 223.356C94.6866 224.137 97.2486 224.705 99.3014 225.218C101.261 225.708 103.22 226.418 105.154 227.014C109.116 228.233 113.124 228.809 117.258 228.809C121.193 228.809 125.227 229.109 129.096 229.109C132.833 229.109 136.62 228.809 140.302 228.809C143.446 228.809 146.399 226.714 149.596 226.714" stroke="#171717" stroke-width="2" stroke-linecap="round"/>
<path d="M64.9001 209.358C62.7314 207.189 60.6734 205.047 58.5489 202.84C56.9807 201.212 55.7072 199.302 54.2759 197.553C53.7176 196.871 53.0381 196.745 52.5634 195.891C52.1249 195.101 51.0426 194.561 50.4685 193.796C47.1539 189.376 43.5211 185.409 41.6234 180.096C40.9325 178.161 39.7186 176.289 39.1627 174.343C38.7667 172.957 38.1772 171.137 37.5998 169.854C34.8916 163.835 32.7686 157.606 30.7831 151.299C29.7442 147.999 28.8635 144.73 28.3889 141.29C28.0121 138.558 26.9711 135.793 26.8926 133.043C26.7836 129.23 26.5933 125.344 26.5933 121.604C26.5933 118.646 26.294 115.688 26.294 112.709C26.294 111.382 26.0146 109.66 26.5933 108.503" stroke="#171717" stroke-width="2" stroke-linecap="round"/>
<path d="M2.27734 115.794C2.27734 111.005 3.23634 105.988 5.40541 101.65C7.30796 97.8448 9.27986 93.512 10.2259 89.3492C10.6516 87.4763 11.6301 85.6877 12.3415 83.9091C13.2121 81.7328 13.8379 79.3158 15.0616 77.3054C16.2601 75.3363 16.9584 72.9828 17.9932 70.9132C19.2871 68.3255 20.3306 65.6128 21.8617 63.1459C23.862 59.9233 25.4838 56.237 27.9819 53.3688C30.2274 50.7906 32.2524 48.0767 34.646 45.6166C35.9311 44.2958 36.8949 42.6274 38.1821 41.2645C39.0321 40.3645 39.8263 39.3503 40.6452 38.4085C41.1685 37.8067 42.2191 36.4178 42.9422 36.0964C43.8966 35.6722 44.4931 34.4109 45.1031 33.6483C45.9933 32.5355 46.8459 31.2406 47.8534 30.2332C49.7428 28.3437 51.6871 26.5975 54.1699 25.4882" stroke="#171717" stroke-width="2" stroke-linecap="round"/>
<path d="M50.9648 27.6629C53.0287 27.6629 54.9152 26.5908 56.5712 25.4868C59.0756 23.8172 61.7363 22.3043 64.2931 20.7418C68.0304 18.4579 71.8435 16.2567 75.8685 14.4857C80.5137 12.4418 85.062 9.08972 90.1185 8.07841C95.1726 7.06759 100.068 5.48038 105.23 4.81434C108.987 4.32961 112.681 3.58612 116.458 3.24274C119.025 3.0094 121.566 2.77166 124.134 2.57784C126.505 2.3989 128.907 2.53607 131.267 2.30583C138.555 1.5948 146.585 1.64851 153.45 4.48189C157.005 5.94867 160.642 7.16677 164.18 8.68287C167.878 10.2678 171.515 12.1648 175.06 14.0626" stroke="#171717" stroke-width="2" stroke-linecap="round"/>
<path d="M166.566 9.16528C168.109 9.33668 169.203 10.929 170.646 11.3413C172.331 11.8226 173.98 13.2576 175.543 14.0614C180.526 16.6244 186.024 18.3508 190.835 21.194C201.86 27.7087 212.154 35.8027 220.484 45.6141C222.788 48.3274 225.166 50.9739 227.209 53.9103C229.359 57.0018 230.701 60.4038 232.664 63.5666C235.745 68.5316 237.418 74.5963 239.252 80.0985C239.686 81.4007 240.178 82.8632 240.537 84.1181C240.804 85.052 241.535 86.2889 241.64 87.2311C241.796 88.6379 242.943 90.0353 243.257 91.4472C243.425 92.2028 243.744 93.0712 244.088 93.7593" stroke="#171717" stroke-width="2" stroke-linecap="round"/>
<path d="M242.457 89.1364C242.457 94.2693 245.197 99.1887 247.232 103.84C249.732 109.553 250.152 116.176 250.95 122.261C252.036 130.544 251.731 139.566 250.209 147.784C249.849 149.731 249.747 152.048 248.925 153.874C248.094 155.719 247.188 157.499 246.28 159.314C244.657 162.56 243.607 165.594 242.729 169.106" stroke="#171717" stroke-width="2" stroke-linecap="round"/>
<path d="M111.059 250.624C116.748 250.624 122.437 250.624 128.126 250.624C132.804 250.624 136.865 249.794 141.444 248.946C148.037 247.726 154.961 247.377 161.39 245.591C164.872 244.624 168.137 243.347 171.436 241.863C174.855 240.324 178.427 239.246 181.606 237.202C187.309 233.536 193.673 230.381 198.673 225.645C200.487 223.926 202.795 222.497 204.804 221.005C208.92 217.947 213.1 214.368 216.341 210.38C218.236 208.047 220.129 205.729 221.788 203.192C223.654 200.338 226.206 197.902 227.96 195.031C232.302 187.928 236.703 181.366 240.056 173.822C241.037 171.615 241.629 169.063 242.293 166.738C242.901 164.611 244.903 162.535 244.903 160.4" stroke="#171717" stroke-width="2" stroke-linecap="round"/>
<path d="M5.92357 100.749C5.92357 105.315 4.01458 109.191 3.3345 113.611C2.72186 117.594 2.19531 121.242 2.19531 125.355C2.19531 132.262 4.81295 138.661 5.57146 145.488C6.1296 150.511 7.29645 155.518 8.61621 160.401C9.48268 163.607 10.8968 166.66 11.9716 169.805C13.5502 174.423 14.8721 179.012 16.7355 183.537C19.7135 190.769 24.4191 196.028 29.7016 201.702C31.6644 203.81 32.7243 206.7 34.6519 208.869C35.4818 209.802 36.142 210.76 36.8681 211.768C37.1803 212.202 38.7026 212.597 37.6138 212.597" stroke="#171717" stroke-width="2" stroke-linecap="round"/>
<path d="M34.2578 210.36C36.8549 212.698 39.2931 215.726 42.2529 217.61C46.691 220.434 50.7853 223.784 55.1361 226.765C60.099 230.165 65.0471 233.363 70.2355 236.437C74.271 238.829 78.5642 240.399 82.7252 242.423C86.0813 244.056 89.8035 245.01 93.1643 246.69C96.6473 248.432 101.342 248.248 105.095 249.134C110.618 250.438 116.27 251.142 121.872 251.765C123.531 251.949 134.31 252.014 134.175 251.744" stroke="#171717" stroke-width="2" stroke-linecap="round"/>
<path d="M375.171 45.9269C374.752 45.9269 374.321 45.8952 373.904 45.9369C373.004 46.0269 372.179 46.5653 371.444 47.0495C370.834 47.4515 370.255 47.969 369.738 48.4865C369.406 48.8185 368.991 49.1295 368.884 49.6091C368.354 51.9952 368.615 54.5537 368.615 56.9936C368.615 58.1436 368.837 59.1675 369.199 60.2518C369.545 61.2914 370.494 61.9234 371.439 62.4123C372.971 63.2049 374.394 64.0771 376.109 64.473C377.833 64.8708 379.324 64.644 380.829 63.7545C382.598 62.7093 383.887 61.424 384.891 59.6481C385.499 58.5724 385.814 57.2727 386.083 56.0756C386.381 54.7517 386.541 53.0674 386.038 51.7746C385.589 50.6181 384.84 49.5053 383.973 48.6212C383.08 47.7119 381.886 46.6009 380.65 46.1963C379.993 45.9814 379.347 45.7288 378.674 45.5676C377.98 45.4015 377.227 45.4778 376.518 45.4778C375.98 45.4778 375.341 45.3803 374.812 45.4978C374.524 45.5617 374.208 45.6574 373.914 45.6574" stroke="#171717" stroke-width="2" stroke-linecap="round"/>
<path d="M126.68 173.416C150.368 171.76 167.963 150.623 166.274 126.466C165.437 114.506 159.846 101.287 151.701 91.2252C143.614 81.2363 132.302 73.55 119.758 74.4272C107.214 75.3044 97.0823 84.4901 90.4643 95.5073C83.7981 106.604 80.1013 120.473 80.9377 132.434C82.6269 156.59 102.992 175.072 126.68 173.416Z" fill="white" stroke="white" stroke-width="8"/>
<path d="M87.0225 141.711C87.0529 141.155 88.2383 142.404 88.338 142.485C91.7867 145.297 94.9693 148.64 97.7066 152.143C98.4403 153.082 99.1025 154.073 99.8362 155.011C100.036 155.267 100.646 155.801 100.671 156.165C100.7 156.583 100.014 155.642 99.7233 155.341C98.4374 154.006 97.1474 152.674 95.9272 151.278C93.8233 148.872 91.7176 146.334 90.0484 143.602C89.7646 143.137 88.673 142.299 89.2085 142.201C89.5704 142.135 91.0095 143.717 91.245 143.914C93.1912 145.545 95.1294 147.187 97.0435 148.851C97.3647 149.13 98.3404 149.915 97.9475 149.752C97.0843 149.393 96.0783 147.995 95.4805 147.365C93.0066 144.757 90.6789 141.992 88.664 139.012C88.5391 138.827 88.1384 138.295 88.2913 138.457C89.1903 139.411 90.2228 140.213 91.2528 141.02C93.8048 143.02 96.3071 145.084 98.8726 147.066C99.1948 147.315 100.084 148.148 99.8171 147.84C98.9062 146.788 97.8271 145.859 96.8861 144.83C94.4738 142.194 92.0716 139.331 90.0618 136.367C88.7611 134.449 93.6225 139.335 95.3715 140.855C96.6003 141.924 97.8347 142.986 99.0581 144.06C99.539 144.483 100.659 145.98 100.461 145.372C100.24 144.696 98.7923 143.569 98.3854 143.106C96.405 140.852 94.4997 138.515 92.6206 136.176C92.3137 135.794 90.4719 133.275 90.7262 133.489C93.0696 135.455 95.6452 137.174 98.1095 138.982C98.9419 139.593 99.7694 140.211 100.6 140.824C100.823 140.988 101.348 141.326 100.88 140.755C98.7853 138.202 96.3485 135.969 94.3263 133.336C93.8821 132.757 93.846 132.705 94.5112 133.15C96.0864 134.204 97.6929 135.208 99.256 136.28C100.917 137.421 102.58 138.987 104.382 139.904C105.739 140.594 102.585 137.444 101.641 136.25C98.4662 132.238 94.6578 128.049 92.3003 123.461C92.0973 123.066 92.3344 123.252 92.5184 123.396C94.036 124.591 95.725 125.581 97.3334 126.646C100.237 128.567 103.08 130.656 106.095 132.402C106.22 132.474 106.57 132.672 106.501 132.546C106.289 132.16 105.894 131.908 105.581 131.597C102.475 128.505 99.5569 125.228 96.7165 121.891C95.1787 120.085 93.6911 118.237 92.1315 116.449C91.394 115.604 91.1313 115.343 92.2488 116.181C95.4647 118.593 98.8714 120.742 102.051 123.2C102.142 123.27 103.261 124.315 103.458 124.214C103.606 124.138 103.267 123.941 103.158 123.815C102.778 123.377 102.399 122.962 102.005 122.535C101.008 121.457 100.05 120.354 99.0793 119.253C98.6947 118.816 97.3103 117.92 97.8895 117.976C98.492 118.033 99.8227 119.461 100.19 119.756C102.479 121.59 104.706 123.469 106.882 125.434C107.777 126.243 108.685 127.031 109.664 127.737C109.77 127.813 110.045 128.058 110 127.937C109.793 127.381 108.734 126.376 108.458 126.041C105.271 122.174 101.861 118.23 99.2754 113.922C99.2749 113.921 98.3311 112.638 99.0303 113.246C100.363 114.405 101.783 115.431 103.213 116.466C106.007 118.488 108.844 120.546 111.333 122.946C113.801 125.327 107.566 117.21 105.532 114.449C104.06 112.449 102.576 110.455 101.248 108.355C100.917 107.831 99.8098 106.428 100.355 106.723C103.069 108.195 105.553 110.779 107.947 112.722C108.489 113.162 109.111 113.895 109.757 114.203C111.203 114.892 107.788 111.673 106.761 110.443C104.576 107.825 102.462 105.154 100.413 102.428C99.9471 101.808 98.9349 100.454 98.4335 99.7595C98.0481 99.2257 96.7424 98.0621 97.4007 98.0758C98.2376 98.0933 100.575 100.681 101.126 101.129C103.473 103.038 105.832 104.933 108.156 106.87C109.531 108.018 110.882 109.194 112.234 110.369C112.77 110.835 113.667 111.734 112.609 110.429C109.563 106.675 106.401 103.006 103.768 98.9414C102.542 97.049 105.866 100.099 106.242 100.364C109 102.305 111.677 104.422 114.529 106.227C115.441 106.804 114.896 105.96 114.599 105.467C112.799 102.486 110.81 99.6025 108.879 96.7043C108.109 95.5485 107.278 94.4209 106.606 93.2029C106.393 92.8162 105.629 91.5442 106.625 92.4102C109.832 95.1981 112.936 98.1115 116.238 100.79C116.663 101.134 117.642 102.347 117.522 101.813C117.348 101.043 116.126 99.907 115.692 99.3441C113.176 96.08 110.12 92.9249 108.02 89.3696C107.868 89.1118 108.537 89.6749 108.772 89.8611C110.132 90.9411 111.575 91.9121 112.981 92.9303C114.381 93.9447 115.762 94.9862 117.142 96.0276C117.196 96.0687 118.85 97.3909 118.638 96.9122C117.322 93.9423 114.763 91.3619 113.013 88.6247C112.696 88.1286 111.574 86.8131 112.068 87.1327C113.223 87.8791 114.265 88.955 115.37 89.7831C116.893 90.9256 118.417 92.0708 119.972 93.171C120.686 93.6762 122.124 95.1206 123.069 95.1927C123.821 95.2501 122.587 93.7516 122.205 93.1014C121.112 91.2419 119.838 89.4801 118.802 87.5892C118.537 87.1042 117.605 85.8669 118.116 86.0791C118.429 86.2093 118.963 86.8836 119.213 87.0906C120.972 88.5478 122.926 89.859 124.836 91.112C125.085 91.2757 125.539 91.4531 125.343 90.9282C124.534 88.7618 123.108 86.6955 122.011 84.6691C121.099 82.9827 120.2 81.2905 119.343 79.5754C119.147 79.1832 118.504 78.0542 118.801 78.3767C121.519 81.3255 130.579 89.2619 127.552 86.6311C126.355 85.5904 125.346 84.2825 124 83.4047C123.391 83.0073 124.134 84.173 124.19 84.3436C124.484 85.2463 122.732 83.7646 122.454 83.5746C122.264 83.445 119.01 81.6206 118.996 81.8749C118.985 82.0837 119.773 82.6468 119.907 82.8747C120.092 83.1875 118.14 81.408 117.858 81.1631C117.401 80.7654 115.641 79.3853 116.408 80.9307C117.124 82.3747 117.783 83.8298 118.204 85.3928C118.696 87.2203 113.589 83.1147 114.088 85.6064C114.359 86.9561 114.874 88.2584 115.16 89.6122C115.277 90.1682 114.831 89.7206 114.661 89.5482C113.584 88.456 112.682 87.1938 111.647 86.0615C111.499 85.9 109.301 83.4248 109.273 84.113C109.159 86.8991 109.716 89.7702 109.801 92.5591C109.81 92.8484 110.144 97.325 109.515 97.3029C109.139 97.2897 108.765 96.004 108.694 95.8269C107.83 93.6558 107.018 91.4619 106.196 89.2745C106.095 89.0074 104.186 84.4268 104.284 86.1683C104.498 89.9648 105.034 93.7733 105.757 97.5038C106.15 99.532 106.334 102.293 107.202 104.192C107.934 105.794 105.388 101.17 104.438 99.6859C104.162 99.254 103.553 97.9456 102.97 97.7853C102.534 97.6657 102.408 101.156 102.397 101.263C102.069 104.429 101.121 107.576 100.908 110.741C100.817 112.085 101.008 109.856 101.04 109.631C101.3 107.853 101.357 106.08 101.496 104.294C101.633 102.527 101.154 100.77 101.846 99.051C102.522 97.3749 102.035 95.3805 101.912 93.6178C101.828 92.4215 101.314 93.0782 100.577 93.6246C99.4153 94.4847 98.2161 95.5523 97.4729 96.8094C95.638 99.913 94.0216 103.388 92.7647 106.759C91.3462 110.565 90.8422 114.38 90.0633 118.35C89.2426 122.532 89.5267 126.592 89.8214 130.807C89.9095 132.066 89.9975 133.325 90.0856 134.585C90.1654 135.725 90.1227 135.115 90.0675 134.326C89.3613 124.227 90.4865 114.175 95.8464 105.381C97.2697 103.046 98.8551 100.849 100.444 98.6297C101.593 97.0262 100.01 99.0107 99.5976 99.4308C97.9005 101.16 96.4606 102.678 95.211 104.783C93.5827 107.526 92.0633 110.454 90.83 113.399C89.6829 116.138 88.8741 119.026 88.135 121.897C87.4685 124.487 86.7857 127.219 86.8776 129.912C86.9377 131.673 87.1115 133.435 87.2344 135.192C87.242 135.3 87.4398 137.139 87.7144 136.927C88.3024 136.472 88.7638 134.68 88.9912 134.142C90.8117 129.832 92.6439 125.528 94.4684 121.22C98.7072 111.212 103.479 101.398 107.564 91.3306C108.012 90.2266 109.389 87.7047 107.978 90.1886C104.279 96.7047 101.843 104.064 99.6539 111.199C98.8222 113.91 97.2776 122.134 97.0798 119.306C96.7671 114.835 98.1263 109.943 98.9135 105.563C99.036 104.881 99.5796 102.88 99.3401 103.53C98.7188 105.216 98.4061 107.06 97.9146 108.786C96.5831 113.463 94.8791 118.058 93.762 122.79C93.731 122.921 93.5706 123.942 93.5154 123.154C93.3972 121.464 93.4039 119.757 93.4316 118.065C93.4687 115.797 93.6522 113.536 93.6984 111.269C93.7185 110.282 94.067 107.452 93.578 108.31C93.3711 108.673 93.4805 109.544 93.493 109.924C93.5522 111.729 93.7333 113.537 93.8593 115.339C94.0813 118.513 93.7342 122.755 95.1287 125.712C95.3028 126.081 95.2928 124.908 95.3037 124.5C95.3734 121.886 95.4081 119.271 95.5096 116.658C95.5949 114.465 95.9717 107.922 96.1645 110.108C96.4715 113.587 96.7968 117.057 98.0072 120.366C98.1074 120.64 100.137 125.443 100.654 124.089C101.412 122.106 100.689 119.301 100.401 117.281C100.334 116.811 99.9594 115.825 100.142 115.345C100.295 114.941 102.877 117.226 102.883 117.231C106.6 120.391 110.315 123.555 114.044 126.702C114.731 127.281 115.47 127.978 116.299 128.362C116.879 128.63 115.681 126.262 115.668 126.229C114.516 123.463 113.175 120.26 113.009 117.215C112.933 115.818 116.387 118.407 116.679 118.591C117.891 119.35 121.392 121.692 120.468 120.601C117.388 116.963 114.383 113.347 111.555 109.501C110.964 108.698 109.242 106.623 111.325 107.984C114.953 110.355 118.686 112.683 122.149 115.29C122.408 115.485 123.194 116.041 122.976 115.801C121.809 114.51 120.575 113.295 119.444 111.967C117.93 110.191 116.42 108.389 115.031 106.513C114.519 105.821 113.612 104.832 113.357 103.972C113.246 103.596 114.064 104.31 114.397 104.517C116.129 105.596 117.841 106.706 119.561 107.804C121.171 108.832 122.755 109.886 124.31 110.996C124.907 111.423 126.552 112.812 126.162 112.19C125.279 110.785 123.971 109.557 122.921 108.286C120.996 105.958 119.012 103.602 117.335 101.084C117.155 100.814 116.2 99.5742 116.368 99.1114C116.431 98.9379 119.504 101.16 119.53 101.178C123.043 103.624 126.493 106.389 130.141 108.622C131.269 109.313 130.42 108.339 130.063 107.861C127.178 104 124.185 100.22 121.378 96.3002C119.781 94.0701 118.185 91.8139 116.746 89.4766C116.705 89.4101 115.605 87.8368 115.784 87.5777C115.929 87.3685 122.371 92.4184 122.852 92.8088C123.704 93.4991 124.533 94.2397 125.444 94.8535C126.081 95.2827 124.432 93.6975 123.914 93.1303C121.776 90.7899 119.758 88.3534 117.862 85.8124C116.918 84.5471 114.964 82.5593 114.602 80.9332C114.358 79.8329 116.585 82.0192 117.495 82.6848C121.136 85.3496 124.676 88.1411 128.098 91.0818C129.584 92.3578 131.117 93.6141 132.526 94.9766C134.006 96.4082 132.339 95.343 131.658 94.7652C128.604 92.1749 124.845 89.3073 122.618 85.925C121.188 83.7519 126.752 89.0905 128.721 90.7909C129.644 91.5879 130.582 92.354 131.553 93.0908C131.583 93.1134 132.359 93.7788 132.397 93.6624C132.519 93.2816 132.634 93.3367 133.052 93.3075C134.113 93.2333 132.498 91.7903 132.287 91.5556C130.203 89.2439 127.947 86.865 126.555 84.0422C125.916 82.7455 128.867 85.7838 130.083 86.5655C131.333 87.369 135.164 89.6472 133.859 88.9353C130.941 87.3428 123.003 81.3011 125.919 82.8995C126.868 83.4198 127.802 83.9336 128.704 84.5349C129.755 85.2351 130.997 85.6999 132.011 86.3811C132.732 86.865 131.525 86.3365 131.303 86.1586C131.215 86.0879 129.273 84.322 129.898 84.2783C131.321 84.1788 132.82 84.8849 134.138 85.3173C135.121 85.6398 135.225 85.7055 134.153 84.9948C132.824 84.1144 131.409 83.2248 129.909 82.67C129.249 82.4257 128.787 82.4517 129.458 82.4047C130.318 82.3446 127.782 81.9964 126.952 81.7638C126.197 81.5521 127.789 82.0329 127.979 82.1248C130.95 83.5574 133.622 85.6063 136.295 87.516C139.23 89.6128 142.102 92.0426 144.248 94.973C144.337 95.0939 145.207 96.7356 144.94 96.5569C144.403 96.1961 143.151 94.6898 143.64 95.1145C144.402 95.7765 144.979 96.6759 145.538 97.5044C146.713 99.2444 142.721 96.0741 142.561 95.9566C141.179 94.9418 139.807 93.914 138.439 92.8814C138.043 92.5829 136.948 91.5954 137.251 91.9875C138.053 93.0263 138.862 94.0681 139.421 95.2611C139.586 95.6127 139.635 95.8226 139.185 95.426C137.959 94.3437 136.886 93.0924 135.68 91.986C134.629 91.0217 133.502 90.149 132.42 89.2214C131.724 88.6247 131.681 88.5648 132.164 89.4496C133.249 91.4385 134.49 93.2761 135.325 95.3991C135.482 95.7978 135.369 95.848 135.017 95.5938C133.915 94.7959 132.957 93.8124 131.856 93.0077C129.92 91.5919 131.279 93.2789 131.863 94.1697C132.108 94.5425 133.139 96.8346 132.857 96.5362C130.852 94.4117 129.072 91.9515 126.863 90.0305C125.375 88.7371 128.892 93.4147 129.794 95.1676C130.377 96.3009 130.899 97.4534 131.42 98.6153C131.429 98.6352 131.878 99.7184 131.842 99.6987C131.094 99.2837 130.438 98.1039 129.906 97.4845C128.852 96.2561 127.763 95.0394 126.579 93.9332C126.384 93.7511 125.858 93.2109 126.268 93.9055C127.225 95.5264 128.269 97.0837 129.154 98.749C129.947 100.241 130.7 101.764 131.425 103.289C131.487 103.42 132.533 105.526 131.604 104.785C129.839 103.378 128.443 101.351 127.038 99.6142C125.408 97.5984 123.754 95.5966 122.162 93.5496C122.113 93.4867 121.068 92.1307 121.145 92.2605C121.999 93.7078 122.935 95.1131 123.807 96.5508C125.564 99.4485 127.813 102.585 128.931 105.813C129.083 106.253 128.038 105.475 127.698 105.157C125.55 103.156 123.592 100.947 121.613 98.7817C121.046 98.1614 119.441 96.244 119.854 96.9756C120.51 98.1358 121.358 99.2124 122.08 100.332C122.977 101.723 123.79 103.15 124.568 104.61C124.585 104.642 125.598 106.595 125.372 106.557C124.005 106.324 122.055 104.199 121.096 103.418C117.945 100.85 114.864 98.195 111.744 95.5889C111.671 95.528 109.152 93.1663 108.814 93.469C108.628 93.6356 111.355 97.9271 111.451 98.1073C114.531 103.935 117.176 110.041 119.469 116.219C119.823 117.174 120.204 118.126 120.438 119.119C120.691 120.186 119.623 118.581 119.513 118.442C118.71 117.427 117.876 116.438 117.076 115.422C116.91 115.211 116.501 114.436 116.184 114.334C115.97 114.266 116.428 114.713 116.569 114.889C117.212 115.694 117.776 116.536 118.268 117.441C118.515 117.894 118.857 118.394 118.989 118.899C119.143 119.493 117.941 118.248 117.48 117.842C113.002 113.905 109.306 109.302 105.034 105.197C104.909 105.077 104.113 104.353 104.556 105.082C105.477 106.597 106.277 108.149 106.998 109.771C107.219 110.266 110.413 117.14 109.968 117.403C109.633 117.601 103.669 111.391 102.974 110.757C102.559 110.378 101.364 109.286 101.584 109.803C102.346 111.596 103.195 113.318 103.863 115.159C104.84 117.851 105.463 120.651 106.438 123.338C106.819 124.386 104.863 122.311 104.618 122.068C103.467 120.924 108.091 127.25 106.659 126.488C105.85 126.058 105.415 124.101 104.928 123.32C104.8 123.113 100.499 123.817 100.117 123.83C98.9854 123.868 97.2107 124.118 96.2027 123.386C95.1718 122.638 94.3884 121.339 93.5688 120.38C93.0396 119.761 91.4239 117.616 91.7646 119.69C92.3703 123.378 94.175 126.711 95.8492 130.002C97.423 133.095 98.7327 136.377 100.13 139.583C100.982 141.537 101.46 143.827 102.654 145.614C102.883 145.957 102.3 144.659 102.127 144.439C101.439 143.566 101.422 143.917 101.484 144.806C101.6 146.457 102.074 147.893 102.479 149.484C102.614 150.012 103.145 150.682 103.401 151.176C104 152.327 104.703 154.389 105.774 155.215C105.991 155.382 105.905 154.66 105.84 154.394C105.527 153.115 105.125 151.855 104.782 150.585C104.684 150.222 103.665 146.596 104.366 147.102C105.656 148.033 106.938 149.294 108.42 149.91C108.83 150.08 108.833 149.744 108.732 149.418C108.14 147.51 107.075 145.665 106.217 143.869C105.416 142.192 103.028 137.154 103.8 138.844C104.561 140.509 106.585 142.609 108.036 143.704C109.72 144.976 107.91 141.397 107.678 140.885C107.355 140.174 106.512 139.235 107.244 140.52C107.328 140.666 108.518 142.532 108.585 142.009C108.862 139.852 107.026 137.064 106.271 135.097C106.201 134.915 105.924 134.447 105.906 134.641C105.882 134.883 106.124 135.582 106.018 135.362C105.17 133.609 104.089 131.913 102.84 130.416C102.104 129.533 103.19 132.4 103.233 132.49C103.996 134.141 107.467 138.399 106.305 136.999C103.986 134.207 96.6082 126.196 99.1292 128.808C100.969 130.714 103.331 132.354 105.549 133.788C108.418 135.642 106.396 131.505 105.809 130.258C105.338 129.254 104.733 128.29 104.362 127.243C104.183 126.739 104.07 126.547 104.443 126.99C106.406 129.316 109.412 131.146 112.101 132.513C112.25 132.589 113.34 133.28 113.12 132.591C112.687 131.231 111.776 129.935 111.044 128.729C110.325 127.544 109.593 126.364 108.844 125.198C108.772 125.087 108.279 124.276 108.304 124.37C108.564 125.39 109.513 126.764 110.449 127.287C110.701 127.427 110.448 126.696 110.34 126.429C109.818 125.144 109.182 123.893 108.759 122.57C108.258 121.002 108.828 122.334 109.314 122.902C109.6 123.236 111.189 124.769 111.309 123.665C111.399 122.835 110.841 121.739 111.743 122.621C112.138 123.008 112.669 123.657 113.152 123.858" stroke="#FFD424" stroke-width="2" stroke-linecap="round"/>
<path d="M145.564 94.6697C145.683 95.3673 146.3 95.9791 146.724 96.511C147.669 97.6948 148.442 98.9601 149.206 100.267C151.072 103.458 152.042 106.647 153.009 110.179C153.294 111.221 155.039 115.406 152.963 112.755C148.285 106.779 143.914 100.319 138.769 94.7349C137.721 93.5974 141.358 96.4295 142.612 97.3357C146.06 99.8284 149.496 102.519 152.593 105.444C152.822 105.66 155.042 108.218 154.614 108.059C150.53 106.544 146.639 103.152 143.153 100.634C141.047 99.1116 134.646 94.6899 136.917 95.9528C140.182 97.7675 142.969 101.264 145.504 103.919C147.766 106.288 150.299 108.914 151.799 111.875C152.245 112.755 151.355 112.159 151.009 111.902C148.598 110.109 146.42 107.917 144.227 105.874C141.404 103.244 138.33 100.424 136.076 97.2556C134.725 95.3574 139.165 100.744 140.657 102.533C142.211 104.397 144.555 106.609 145.348 108.976C145.594 109.709 144.62 108.953 144.522 108.878C142.008 106.971 139.833 104.55 137.617 102.321C135.075 99.7656 127.664 91.9066 129.959 94.6865C132.545 97.8193 135.181 100.86 137.522 104.194C139.706 107.304 141.856 110.516 143.791 113.792C144.334 114.712 143.611 114.344 143.01 113.945C140.418 112.226 138.212 109.843 136.119 107.572C134.486 105.799 132.966 103.947 131.491 102.043C131.355 101.867 129.446 98.9528 129.05 99.0756C128.956 99.1049 129.056 99.2757 129.085 99.37C129.211 99.7725 129.764 101.026 129.869 101.28C130.579 103 131.1 104.769 131.664 106.54C131.828 107.053 134.304 113.376 133.497 113.748C132.321 114.291 127.972 104.765 127.486 103.793C126.796 102.414 125.445 98.0499 125.552 99.5888C125.779 102.825 126.559 106.031 127.297 109.178C128.314 113.51 129.174 117.916 130.412 122.191C131.394 125.579 130.553 120.635 130.382 119.734C130.011 117.781 129.8 115.142 128.806 113.37C128.631 113.058 128.769 116.482 128.792 116.806C129.009 119.911 129.449 122.986 129.695 126.086C129.91 128.791 128.588 124.051 128.484 123.725C126.839 118.58 125.608 113.189 124.717 107.86C124.567 106.962 124.527 106.002 124.285 105.12C124.104 104.457 124.161 106.49 124.175 107.177C124.261 111.645 124.672 116.107 124.983 120.563C125.016 121.028 125.524 126.25 124.935 123.507C124.033 119.312 122.728 106.497 123.027 110.777C123.316 114.917 123.606 119.058 123.895 123.198C124.028 125.097 124.171 126.995 124.294 128.895C124.361 129.927 124.59 131.238 124.275 132.261C124.216 132.451 123.896 132.054 123.823 131.868C122.99 129.737 122.472 127.491 122.032 125.251C121.16 120.818 120.402 116.312 120.046 111.805C119.875 109.652 120.098 112.558 120.129 113.001C120.43 117.308 120.817 121.617 121.019 125.929C121.044 126.469 121.229 130.789 120.877 128.144C120.31 123.881 119.666 119.621 119.289 115.336C119.193 114.249 119.123 113.161 119.047 112.073C119.026 111.778 118.986 111.055 119.033 111.876C119.348 117.378 119.239 122.941 119.032 128.443C118.876 132.609 118.75 137.029 117.569 141.07C117.492 141.33 117.371 141.759 117.27 141.246C116.885 139.29 116.699 137.256 116.485 135.279C115.54 126.535 113.891 100.197 114.504 108.97C115.198 118.891 115.937 128.811 116.585 138.735C116.596 138.899 116.639 143.452 116.147 141.565C114.646 135.811 114.416 129.538 114.003 123.635C113.885 121.944 113.743 120.249 113.704 118.553C113.695 118.136 113.498 116.711 113.8 116.285C113.919 116.116 113.999 116.658 114.024 116.863C114.242 118.672 114.294 120.518 114.421 122.334C114.794 127.674 115.194 133.014 115.541 138.356C115.595 139.182 115.826 143.43 115.108 140.252C113.864 134.741 112.577 117.803 112.971 123.439C113.291 128.01 113.52 132.576 113.266 137.158C113.071 140.692 112.935 144.775 111.703 148.152C111.556 148.555 111.352 148.705 111.128 148.22C110.038 145.868 109.991 142.684 109.717 140.177C109.103 134.554 108.732 128.896 108.378 123.251C108.311 122.182 108.397 120.812 108.72 122.676C109.448 126.882 109.494 131.314 109.734 135.567C109.916 138.782 110.12 142.147 109.669 145.354C109.404 147.245 109.24 142.845 109.22 142.558C109.045 140.064 108.871 137.569 108.696 135.075C108.654 134.467 109.296 138.45 109.355 138.831C110.188 144.189 112.261 160.321 111.346 154.976C110.867 152.179 110.28 149.408 109.563 146.662C109.137 145.032 108.665 143.412 108.26 141.777C108.151 141.337 108.135 140.117 107.858 140.476C107.225 141.297 108.35 145.207 108.451 146.117C108.738 148.727 109.345 151.311 109.506 153.931C109.69 156.925 107.883 152.791 107.463 152.01C106.624 150.45 105.648 148.756 105.206 147.023C104.852 145.636 106.223 149.711 106.923 150.96C108.204 153.243 109.621 155.646 111.24 157.711C112.487 159.302 110.533 157.519 110.027 157.132C107.741 155.385 105.373 153.854 102.973 152.282C101.947 151.61 103.056 153.002 103.264 153.209C104.693 154.632 106.288 155.983 107.91 157.181C108.023 157.265 109.686 158.461 109.05 157.921C106.296 155.586 103.344 153.424 100.52 151.167C99.8574 150.637 99.1714 150.158 98.479 149.67C98.2697 149.523 97.9782 148.953 97.88 149.189C97.6941 149.636 102.204 153.054 102.538 153.344C104.681 155.207 106.926 156.968 109.031 158.87C110.607 160.292 108.22 158.87 107.678 158.512C104.936 156.704 102.382 154.61 99.67 152.753C98.1325 151.7 99.1098 152.294 99.9648 153.128C101.416 154.544 103.052 155.694 104.576 157.018C105.162 157.527 105.366 158.027 104.462 157.408C101.966 155.698 99.4282 153.444 96.6749 152.171C95.5225 151.638 94.8578 150.52 93.942 149.676C93.4793 149.25 93.0006 149.162 92.5528 148.812C92.2699 148.591 91.9552 148.425 91.6746 148.181C91.5974 148.114 91.145 147.514 91.0576 147.645C90.5661 148.377 95.491 153.573 96.0321 154.096C101.316 159.201 107.674 164.118 114.492 167.012C116.426 167.832 118.155 168.084 120.267 167.936C123.289 167.725 126.288 167.664 129.183 166.677C129.475 166.577 130.715 166.343 130.911 166.118C130.957 166.065 128.956 165.808 128.824 165.783C125.41 165.148 122.01 164.603 118.644 163.724C116.627 163.198 114.593 162.701 112.594 162.112C112.088 161.963 110.706 161.737 110.305 161.311C110.088 161.081 110.928 161.211 111.243 161.189C112.501 161.101 113.734 161.076 114.991 161.209C116.914 161.413 118.868 161.742 120.722 162.307C121.674 162.597 121.44 162.737 120.431 162.808C118.117 162.97 115.807 162.54 113.512 162.302C112.156 162.162 112.135 162.144 113.452 162.052C115.085 161.938 116.697 161.911 118.313 162.221C118.888 162.332 119.951 162.539 118.594 162.399C115.116 162.042 111.42 160.828 108.091 159.769C107.837 159.689 105.709 159.031 106.101 159.004C108.872 158.81 111.65 158.787 114.428 158.817C117.414 158.85 120.451 159.273 123.435 159.064C125.263 158.936 119.947 157.236 119.87 157.207C115.548 155.604 111.176 154.128 106.791 152.708C105.364 152.245 104.768 152.081 106.647 152.265C112.048 152.795 127.68 157.486 122.574 155.647C119.112 154.4 115.682 153.014 112.271 151.632C111.329 151.25 107.271 149.92 110.493 149.848C114.693 149.753 118.986 149.915 123.157 150.432C123.432 150.467 127.771 151.17 126.124 150.621C123.076 149.604 119.977 148.738 116.931 147.716C115.731 147.313 113.955 146.768 116.258 146.589C119.626 146.329 122.963 146.13 126.336 146.379C127.058 146.433 128.855 146.817 129.529 146.354C129.962 146.057 126.966 144.411 126.947 144.4C124.268 142.863 121.519 141.433 118.868 139.848C117.329 138.927 119.066 139.383 119.975 139.502C124.084 140.039 128.087 141.091 132.022 142.377C133.222 142.769 134.402 143.223 135.588 143.654C136.044 143.82 136.356 143.95 135.578 143.91C129.922 143.615 124.266 141.891 118.814 140.488C116.738 139.953 114.667 139.403 112.605 138.816C111.88 138.609 110.469 138.435 109.829 137.936C109.553 137.72 110.523 138.041 110.861 138.132C112.79 138.65 114.675 139.311 116.511 140.097C117.244 140.412 124.014 142.952 123.684 144.232C123.341 145.566 113.492 143.329 112.456 143.152C110.905 142.886 109.362 142.605 107.827 142.26C107.322 142.146 105.79 141.978 106.307 141.942C111.975 141.546 117.661 141.999 123.266 142.905C125.72 143.301 122.688 142.06 121.878 141.645C117.979 139.647 113.918 137.8 109.8 136.298C109.726 136.271 108.373 135.941 108.263 135.755C108.148 135.561 108.713 135.705 108.938 135.708C109.452 135.715 110.91 135.77 111.319 135.796C115.418 136.057 119.768 136.898 123.695 138.125C126.086 138.872 124.167 138.246 122.978 137.765C120.035 136.575 117.011 135.522 114.096 134.273C110.256 132.627 122.498 134.38 126.599 135.18C127.627 135.38 129.746 136.265 127.511 135.286C124.69 134.048 121.858 132.809 119.1 131.435C116.287 130.033 119.686 130.72 120.902 130.927C125.986 131.794 130.842 133.349 135.67 135.125C136.283 135.35 136.966 135.546 137.533 135.885C138.122 136.237 136.274 135.34 135.664 135.026C131.765 133.024 127.744 131.281 123.816 129.338C123.021 128.945 121.182 128.189 123.185 128.407C126.948 128.817 130.582 129.918 134.136 131.175C135.208 131.554 136.272 131.952 137.341 132.336C139.003 132.935 136.564 131.593 136.495 131.547C133.487 129.588 130.494 127.607 127.577 125.513C126.134 124.478 127.053 124.723 128.318 124.995C130.63 125.492 132.736 126.505 134.996 127.101C136.169 127.41 132.751 125.119 132.527 124.941C131.258 123.932 128.485 122.466 127.726 120.965C127.599 120.715 128.29 121.015 128.555 121.105C130.007 121.597 131.416 122.226 132.831 122.813C135.549 123.943 138.204 125.147 140.869 126.379C143.98 127.817 135.298 122.228 133.234 119.492C132.455 118.458 134.55 119.425 134.748 119.513C136.918 120.478 139.061 121.727 141.292 122.533C141.846 122.733 141.647 122.291 141.452 121.984C140.09 119.843 138.125 117.993 136.368 116.191C133.859 113.618 131.252 111.135 128.831 108.477C127.655 107.186 131.548 110.672 132.919 111.753C135.272 113.607 137.355 115.685 139.437 117.828C141.196 119.64 137.744 116.759 137.555 116.589C134.578 113.908 131.443 111.376 128.821 108.336C127.376 106.66 128.508 107.316 129.85 108.081C133.806 110.337 137.679 112.767 141.324 115.505C141.835 115.889 144.258 117.917 142.765 116.097C140.646 113.515 138.684 110.805 136.897 107.984C136.836 107.888 135.399 105.639 136.18 106.436C138.203 108.501 140.632 110.167 142.769 112.111C143.818 113.065 146.875 116.024 145.804 115.093C143.442 113.039 141.317 110.633 139.224 108.316C138.34 107.337 137.463 106.353 136.56 105.392C136.331 105.149 135.611 104.497 135.755 104.798C137.583 108.63 139.346 112.444 140.727 116.466C140.861 116.856 142.759 121.396 141.544 121.285C140.323 121.174 138.907 120.293 137.85 119.805C134.4 118.211 130.934 116.677 127.411 115.248C125.181 114.344 122.672 113.012 120.293 112.509C118.554 112.141 123.54 113.983 125.042 114.933C127.143 116.262 129.017 117.893 131.059 119.305C131.082 119.321 131.655 119.839 131.294 119.444C129.78 117.785 128.227 116.166 126.682 114.536C123.578 111.26 120.292 108.004 117.576 104.387C117.023 103.65 117.536 104.211 117.862 104.438C119.028 105.25 120.209 106.013 121.315 106.91C121.514 107.072 125.061 110.106 124.856 110.253C124.037 110.843 122.881 109.821 121.921 109.511C117.603 108.12 113.317 106.63 109.022 105.169C104.479 103.623 99.938 102.36 95.3226 101.095C94.8514 100.966 96.3083 101.138 96.7771 101.276C98.6949 101.839 100.554 102.631 102.384 103.428C106.347 105.155 110.342 106.951 114.14 109.024C116.901 110.53 112.385 108.092 111.94 107.877C107.214 105.598 102.407 103.529 97.6068 101.416C96.9907 101.144 95.1841 100.71 95.8168 100.481C96.3735 100.279 97.8586 100.953 98.3055 101.098C101.431 102.116 104.374 103.58 107.474 104.655C108.258 104.927 109.194 105.355 110.049 105.295C111.07 105.224 111.091 103.829 111.039 103.077C110.989 102.372 111.211 101.383 111.511 100.74C111.748 100.234 111.557 100.707 111.394 100.876C110.697 101.592 109.628 101.045 109.075 100.472C107.022 98.3452 106.91 94.1055 107.106 91.3089C107.172 90.3674 107.401 89.2141 106.991 88.8573C105.993 87.9893 109.521 86.5035 108.457 86.5779C105.187 86.8066 101.637 90.0173 100.026 92.751C99.3203 93.9485 98.6464 95.1111 97.9861 96.3286C97.6503 96.9478 98.0172 96.1337 98.1293 95.9511C98.5939 95.1941 99.0591 94.5927 99.7176 94.0024C105.566 88.76 114.067 78.2298 122.538 85.5933" stroke="#FFD424" stroke-width="2" stroke-linecap="round"/>
<path d="M155.743 145.61C156.562 145.343 155.369 139.787 155.296 139.224C154.807 135.455 154.46 131.67 154.248 127.875C154.2 127.007 154.437 127.769 154.575 128.107C155.155 129.524 155.865 130.855 156.641 132.175C158.039 134.554 159.432 137.039 160.985 139.32C162.068 140.911 158.975 136.03 158.16 134.288C157.779 133.475 156.943 130.024 157.118 132.537C157.211 133.869 157.305 135.2 157.398 136.532C157.418 136.815 157.502 138.026 157.434 137.053C157.236 134.222 157.509 131.343 157.345 128.507C157.15 125.127 156.148 115.019 156.384 118.396C156.589 121.328 156.974 124.213 157.249 127.128C157.399 128.719 157.37 131.432 158.284 132.837C158.56 133.261 158.619 133.086 159.057 133.179C159.49 133.271 159.62 134.69 159.709 135.014C160.493 137.878 160.221 132.686 160.073 131.935C159.447 128.749 158.935 125.769 158.707 122.503C158.51 119.686 157.759 116.882 156.8 114.24C156.443 113.255 156.332 114.228 156.379 114.693C156.594 116.802 157.376 119.111 158.086 121.105C158.153 121.293 158.906 123.154 158.618 123.258C157.547 123.647 155.251 118.263 155.007 117.701C153.773 114.864 152.952 111.851 151.714 109.026C150.837 107.023 152.585 113.335 153.388 115.369C154.313 117.715 155.335 120.019 156.266 122.363C156.296 122.439 156.411 122.657 156.38 122.581C155.718 120.979 154.636 119.507 153.865 117.951C152.945 116.094 152.091 114.199 151.237 112.31C150.979 111.739 150.388 109.963 150.494 110.581C150.687 111.709 151.393 112.86 151.91 113.847C153.178 116.264 154.598 118.598 155.888 121.004C156.833 122.768 157.694 124.575 158.608 126.355C158.749 126.629 159.501 127.626 159.486 127.99C159.46 128.621 158.601 127.078 158.255 126.549C156.425 123.754 154.748 120.854 152.966 118.028C151.845 116.251 150.746 114.439 149.46 112.774C148.673 111.755 148.486 111.88 148.953 112.993C150.639 117.019 153.259 120.616 154.874 124.693C155.023 125.07 156.462 128.874 155.014 127.511C151.376 124.083 149.379 118.729 147.346 114.279C147.11 113.762 146.312 112.299 146.399 112.861C146.64 114.424 147.606 116.104 148.251 117.509C150.385 122.161 153.41 126.619 155.147 131.431C155.308 131.878 155.417 132.197 155.044 131.58C153.93 129.736 152.798 127.909 151.771 126.013C149.42 121.673 148.02 116.891 145.7 112.57C144.723 110.75 146.697 116.601 147.528 118.493C149.132 122.145 151.395 125.798 152.533 129.635C153.118 131.606 150.409 126.11 149.473 124.279C148.698 122.764 147.927 121.246 147.175 119.719C147.172 119.713 146.526 118.4 146.499 118.734C146.292 121.224 147.645 124.011 148.261 126.357C148.608 127.674 148.887 129.008 149.19 130.335C149.241 130.56 149.306 131.236 149.21 131.026C147.998 128.401 147.282 125.584 146.404 122.84C146.286 122.47 145.989 121.649 146.007 122.628C146.038 124.277 146.225 125.935 146.34 127.58C146.456 129.24 147.353 134.039 146.575 132.568C145.79 131.08 145.461 129.164 145.066 127.556C144.218 124.108 143.726 120.606 143.064 117.123C143.025 116.919 142.044 111.662 141.948 113.893C141.74 118.686 142.502 123.639 142.836 128.419C142.893 129.234 143.487 135.388 142.984 131.349C142.356 126.298 141.442 121.278 140.712 116.241C140.235 112.941 140.708 119.674 140.733 119.971C141.478 129.022 143.122 137.963 144.078 146.991C144.201 148.148 144.541 149.637 144.346 150.817C144.219 151.587 143.57 149.452 143.322 148.712C140.831 141.288 139.631 133.519 139.086 125.727C138.846 122.294 139.038 125.04 139.154 126.697C139.479 131.358 139.845 136.017 140.131 140.68C140.229 142.275 139.942 143.159 139.285 141.106C138.062 137.288 137.31 133.359 136.602 129.42C135.873 125.366 138.197 137.912 136.773 141.777C136.522 142.458 136.256 141.459 136.201 141.28C135.488 138.926 135.079 136.476 134.734 134.046C134.606 133.141 133.634 119.809 132.82 119.818C132.382 119.823 133.349 130.439 133.41 131.085C133.665 133.773 133.971 136.453 134.172 139.146C134.257 140.281 134.82 143.542 134.241 142.562C133.267 140.913 132.958 138.421 132.624 136.611C131.774 132.012 131.368 127.344 131 122.688C130.781 119.918 130.598 117.146 130.404 114.375C130.342 113.488 130.239 112.016 130.364 113.798C130.872 121.069 131.958 128.248 132.841 135.479C133.286 139.121 133.648 142.77 133.918 146.429C133.989 147.397 134.639 150.013 134.079 150.955C133.709 151.579 133.17 149.795 132.918 149.114C131.819 146.147 130.966 143.082 130.19 140.018C129.428 137.009 128.754 133.975 128.155 130.93C127.931 129.792 127.53 126.352 127.506 127.512C127.413 131.985 128.088 136.68 128.515 141.125C128.758 143.657 129.141 146.168 129.44 148.693C129.467 148.92 129.614 151.398 129.519 151.246C128.755 150.019 128.511 148.11 128.202 146.758C127.314 142.874 126.641 138.943 126.023 135.008C125.552 132.007 124.39 122.973 124.602 126.004C125.008 131.816 125.95 137.478 127.188 143.168C127.685 145.455 128.216 147.737 128.671 150.033C128.672 150.037 128.993 152.229 128.922 152.207C128.469 152.061 127.989 149.812 127.919 149.591C127.061 146.877 126.252 144.145 125.536 141.389C125.04 139.475 124.63 137.536 124.06 135.64C123.555 133.962 123.738 135.485 123.794 136.281C124.088 140.481 124.773 144.622 125.165 148.808C125.193 149.105 125.765 153.493 125.081 151.853C123.671 148.477 123.066 144.564 122.342 140.991C122.238 140.474 122.169 139.165 121.733 138.743C121.657 138.67 121.693 138.952 121.698 139.057C121.746 139.957 121.824 140.858 121.887 141.758C122.164 145.723 122.669 149.504 123.576 153.372C123.728 154.022 124.043 154.798 124.09 155.471C124.153 156.375 123.601 153.725 123.369 152.849C122.999 151.453 122.599 150.059 122.118 148.696C121.925 148.149 121.482 146.492 121.495 147.072C121.574 150.602 123.181 154.238 124.249 157.551C124.619 158.699 125.732 162.132 125.242 161.03C124.228 158.752 122.777 156.44 121.303 154.436C120.833 153.795 119.414 152.016 119.743 153.951C120.3 157.226 121.501 160.339 122.53 163.481C122.884 164.562 123.848 167.413 122.799 164.509C120.969 159.439 119.123 154.386 117.34 149.299C116.168 145.958 116.517 149.469 116.843 150.889C117.381 153.23 118.437 155.717 119.454 157.901C121.222 161.701 116.284 149.915 113.383 146.89C112.302 145.763 113.529 149.672 113.59 149.858C114.073 151.309 114.804 152.624 115.463 153.996C115.987 155.087 115.754 154.659 116.231 155.681C116.414 156.072 117.177 157.065 116.807 156.842C115.84 156.261 110.666 150.604 113.355 155.387C114.723 157.82 116.415 160.145 118.325 162.178C118.425 162.284 120.074 163.815 120.066 163.823C119.519 164.383 114.05 163.758 118.279 164.146C120.14 164.317 122.032 164.641 123.752 165.403C123.944 165.488 125.787 166.505 124.783 166.603C123.746 166.705 122.7 166.749 121.661 166.822C121.555 166.829 123.98 166.438 124.556 166.379C127.382 166.091 130.232 165.968 133.065 165.77C134.476 165.671 136.634 165.792 137.524 164.44C138.823 162.466 139.647 160.186 140.959 158.178C143.041 154.993 145.038 151.423 147.656 148.635C148.912 147.298 148.357 148.828 147.647 149.512C143.954 153.07 138.416 154.965 133.976 157.366C130.951 159.002 127.621 160.529 124.778 162.476C124.674 162.547 124.31 162.939 124.679 162.681C125.784 161.908 126.95 161.268 128.124 160.602C131.284 158.812 134.445 157.342 137.827 156.037C139.722 155.305 139.866 155.371 137.664 155.525C133.972 155.783 130.25 155.909 126.593 156.497C126.448 156.52 125.26 156.756 126.199 156.525C127.919 156.1 129.543 155.237 131.18 154.579C133.218 153.76 135.489 153.01 137.43 151.979C137.863 151.749 136.455 151.819 135.964 151.841C133.407 151.958 130.849 152.208 128.307 152.504C126.045 152.767 123.797 153.115 121.546 153.457C120.774 153.575 118.505 154.051 119.219 153.733C124.134 151.546 129.307 149.77 134.362 147.925C136.638 147.094 143.381 144.468 141.271 145.661C140.27 146.226 139.039 146.584 137.97 146.966C133.976 148.391 129.896 149.557 125.822 150.727C123.18 151.486 115.317 153.891 117.839 152.798C122.623 150.724 127.469 148.77 132.41 147.1C133.936 146.584 138.086 144.485 139.829 145.253C140.183 145.408 139.345 145.88 139.01 146.073C137.428 146.988 135.664 147.581 133.975 148.263C133.303 148.534 130.665 149.753 130.714 149.735C134.633 148.288 138.93 147.813 143.055 147.317C143.259 147.292 147.608 146.888 146.185 147.607C141.922 149.76 137.266 150.968 133.105 153.398C132.905 153.515 129.039 155.591 130.691 155.475C133.341 155.29 135.962 154.626 138.634 154.439C139.044 154.411 141.325 154.068 139.809 154.668C137.25 155.681 134.528 156.179 132.059 157.444C131.337 157.813 130.372 158.305 131.803 158.225C133.9 158.108 135.995 157.932 138.09 157.785C139.954 157.655 136.86 158.861 136.603 158.949C133.16 160.13 129.674 161.863 126.722 164.008C125.138 165.159 128.201 163.981 128.577 163.85C129.662 163.473 133.073 162.97 131.928 163.05C130.815 163.128 129.755 163.199 128.681 163.518C127.233 163.948 131.694 163.239 133.18 162.963C134.289 162.757 136.708 161.863 137.819 162.186C138.172 162.289 135.478 162.794 135.108 162.842C134.938 162.864 133.138 163.22 134.084 163.154C135.264 163.072 136.407 162.737 137.597 162.654C138.96 162.559 139.489 162.489 138.304 163.467C137.273 164.318 139.983 161.363 141.009 160.507C142.209 159.506 143.425 158.521 144.617 157.527C146.137 156.259 148.28 155.562 149.59 154.055C150.733 152.741 151.981 151.502 152.734 149.891C153.285 148.713 154.066 147.539 154.918 146.558C155.299 146.12 155.405 146.415 155.163 146.824C154.499 147.943 154.161 149.202 153.529 150.345C152.517 152.175 151.576 153.551 150.041 155.041C148.562 156.477 147.326 158.255 145.719 159.542C144.878 160.215 144.296 161.16 143.385 161.74C142.788 162.121 142.306 162.588 141.687 162.933C141.415 163.086 142.253 162.506 142.407 162.304C144.162 159.99 146.128 158.018 148.331 156.051C150.153 154.424 151.625 152.578 153.31 150.855C154.582 149.555 155.877 148.244 156.573 146.57C156.894 145.797 157.115 144.994 157.426 144.22C157.509 144.015 158.099 142.721 157.949 142.798C157.635 142.959 157.568 143.359 157.246 143.455C156.151 143.78 155.31 138.967 155.189 138.496C154.12 134.356 153.177 130.153 152.836 125.882C152.725 124.485 152.872 124.265 153.066 125.725C153.839 131.539 152.698 137.848 151.54 143.529C151.456 143.943 151.061 147.254 150.655 147.45C150.179 147.68 149.212 139.521 149.178 139.058C148.962 136.148 148.262 132.789 148.991 129.911C149.39 128.331 149.573 129.168 149.443 130.317C149.147 132.94 148.918 135.576 148.594 138.194C148.381 139.924 148.075 145.123 147.954 143.384C147.721 140.054 147.748 136.729 148.019 133.4C148.187 131.337 149.696 125.295 149.218 127.308C147.714 133.648 145.699 140.152 143.113 146.125C142.511 147.516 142.776 143.115 142.8 142.868C143.229 138.563 144.317 134.216 145.712 130.126C146.354 128.244 145.328 131.032 145.152 131.423C143.139 135.919 140.744 140.209 138.54 144.608C138.243 145.2 137.68 147.095 136.955 147.404C136.179 147.735 137.132 145.713 137.402 144.913C138.77 140.864 140.574 136.705 142.733 133.006C143.068 132.432 143.814 131.097 143.889 132.558C144.006 134.842 143.203 137.321 142.996 139.603C142.904 140.62 142.825 141.634 142.7 142.649C142.665 142.938 142.558 143.714 142.775 143.52C144.166 142.274 144.662 139.799 145.759 138.279C145.823 138.19 147.031 136.362 147.172 136.654C147.399 137.122 147.095 138.006 146.987 138.448C146.467 140.563 145.95 142.664 145.508 144.799C145.003 147.24 144.956 150.069 144.162 152.427C143.24 155.163 146.174 147.014 147.257 144.337C148.177 142.064 149.276 139.569 150.801 137.615C151.321 136.95 151.144 137.375 150.992 138.111C150.401 140.96 149.019 143.682 148.198 146.477C147.761 147.966 147.373 149.469 146.986 150.972C146.944 151.136 146.413 153.124 146.621 151.817C147.191 148.235 148.315 144.679 149.386 141.22C150.152 138.745 151.32 136.317 151.964 133.816C152.553 131.527 151.544 134.961 151.493 135.574C151.431 136.32 151.775 132.966 151.802 132.725C151.981 131.139 152.176 129.557 152.461 127.986C152.466 127.954 152.877 125.823 152.776 125.83C152.604 125.842 152.227 127.129 152.193 127.199C151.128 129.385 149.676 131.415 148.451 133.511C143.428 142.104 138.434 150.644 133.001 158.989C132.513 159.739 130.237 163.883 130.521 160.915C131.266 153.117 133.721 145.466 135.755 137.932C136.415 135.487 137.06 133.045 137.587 130.567C137.734 129.872 138.203 128.721 138.113 127.986C138.039 127.384 137.367 128.944 137.028 129.447C135.053 132.367 133.147 135.336 131.021 138.15C129.124 140.661 127.087 143.077 124.909 145.349C123.849 146.455 122.713 147.713 121.272 148.331C120.554 148.64 120.167 148.608 120.046 147.781C119.565 144.488 119.883 140.944 120.358 137.68C121.585 129.25 123.958 120.983 125.531 112.61C125.864 110.84 126.273 109.047 126.486 107.256C126.552 106.694 126.736 105.702 126.233 106.68C120.936 116.98 114.522 126.633 109.723 137.208C109.603 137.473 109.201 138.875 109.205 138.686C109.223 137.83 109.54 136.912 109.759 136.103C111.007 131.499 112.379 126.927 113.659 122.331C115.281 116.506 117.361 110.58 118.356 104.602C118.509 103.684 118.442 104.016 118.186 104.599C117.022 107.259 115.611 109.839 114.265 112.408C113.438 113.986 100.157 139.609 99.9906 139.529C98.5991 138.858 100.615 131.527 100.815 130.693C102.012 125.689 103.516 120.759 104.746 115.759C105.12 114.24 104.708 114.759 103.982 115.756C101.226 119.546 99.2447 124.094 96.9343 128.165C95.4137 130.845 93.6747 133.616 92.5556 136.501C91.737 138.611 92.4659 136.641 92.7007 135.543C93.4031 132.257 94.1446 128.924 94.4918 125.58C94.5477 125.041 95.0609 120.093 94.4599 122.698C93.8195 125.474 92.4475 128.284 92.6509 131.193" stroke="#FFD424" stroke-width="2" stroke-linecap="round"/>
<path d="M118.145 167.036C118.765 166.867 119.399 166.116 119.887 165.753C121.793 164.335 123.764 163.01 125.632 161.538C127.749 159.871 133.551 154.235 131.473 155.951C130.28 156.935 129.45 158.918 128.598 160.183C126.948 162.634 125.538 165.25 123.962 167.75C123.858 167.914 122.805 169.849 123.229 169.386C124.864 167.606 127.113 166.392 128.934 164.792C131.092 162.896 133.367 160.903 135.015 158.532C135.288 158.139 136.205 156.805 135.454 157.968C134.747 159.062 134.024 160.214 133.508 161.411C133.376 161.718 132.385 164.209 132.78 164.482C133.797 165.185 140.824 155.266 141.57 154.356C141.75 154.137 143.268 151.732 142.827 152.792C142.025 154.723 141.035 156.509 140.427 158.536C139.897 160.304 138.776 162.396 138.625 164.224C138.569 164.893 139.896 163.172 140.106 162.931C144.65 157.704 148.78 152.666 151.851 146.408C151.946 146.215 152.649 144.371 152.166 145.252C151.384 146.678 150.882 148.211 150.446 149.773C150.04 151.228 149.919 152.769 149.666 154.255C149.417 155.716 150.503 154.232 150.896 153.663C152.166 151.826 153.072 149.578 154.121 147.602C155.503 144.999 157.017 142.336 158.013 139.554C158.032 139.501 158.484 137.959 158.618 138.05C158.856 138.209 158.661 139.061 158.607 139.253C158.127 140.949 157.757 142.598 157.335 144.317C156.991 145.718 156.521 147.079 155.953 148.403C155.373 149.757 156.078 148.39 156.298 147.86C156.878 146.465 157.078 144.93 157.734 143.578C158.873 141.232 160.093 138.764 160.956 136.301C161.905 133.593 161.599 130.652 161.404 127.852" stroke="#171717" stroke-width="2" stroke-linecap="round"/>
<path d="M119.013 168.31C121.238 168.155 123.439 167.436 125.559 166.787C126.373 166.538 128.639 166.341 129.258 165.63C129.942 164.842 127.225 166.161 126.289 166.623C125.94 166.795 123.152 168.068 123.19 168.612C123.208 168.867 127.551 167.869 127.726 167.823C130.63 167.066 133.472 165.931 136.462 165.527C137.696 165.361 135.512 165.585 135.245 165.604C134.615 165.648 132.775 165.642 133.368 165.857C134.164 166.146 135.426 165.5 136.118 165.229C138.58 164.263 140.976 163.105 143.373 161.989C143.972 161.71 145.692 161.352 146.031 160.685C146.088 160.574 145.157 160.699 145.125 160.705C144.015 160.906 142.867 161.248 141.843 161.72C141.451 161.902 140.65 162.223 140.424 162.64C140.241 162.977 141.218 162.696 141.569 162.543C144.999 161.048 148.023 158.108 150.803 155.646C151.277 155.227 152.728 154.012 152.283 154.46C151.81 154.937 151.1 155.258 150.569 155.672C149.795 156.274 147.657 157.711 147.741 158.916C147.768 159.299 150.744 156.152 150.903 155.954C152.269 154.26 153.631 152.562 154.972 150.85C155.652 149.983 156.244 148.977 157.003 148.177C158.183 146.932 154.547 150.575 153.383 151.834C152.478 152.813 151.607 153.806 150.792 154.862C150.751 154.914 149.982 156.175 150.011 156.173C150.354 156.149 150.944 155.229 151.118 155.022C152.002 153.963 152.781 152.83 153.592 151.715C155.066 149.69 156.517 147.69 157.623 145.436C158.134 144.394 158.133 143.113 158.342 141.99C158.622 140.485 159.031 138.996 159.285 137.489C159.624 135.471 160.249 133.519 160.594 131.496C160.77 130.464 161.374 129.163 161.3 128.112C161.213 126.861 161.125 125.61 161.038 124.359C160.987 123.629 160.936 122.9 160.885 122.17C160.85 121.671 161.045 122.218 161.059 122.411C161.207 124.531 161.358 127.537 162.317 129.404" stroke="#171717" stroke-width="2" stroke-linecap="round"/>
<path d="M123.774 163.594C119.146 163.917 114.518 164.241 109.889 164.565C109.559 164.588 108.031 164.695 109.118 164.619C110.693 164.508 112.081 164.882 113.631 165.153C116.046 165.575 118.522 165.847 120.966 165.99C123.81 166.157 118.986 166.404 118.348 166.449C116.685 166.565 111.696 166.914 113.359 166.797C115.049 166.679 116.691 166.545 118.349 166.999C122.267 168.07 110.35 165.555 106.394 164.634C106.176 164.583 102.998 163.647 103.115 163.513C103.617 162.936 106.496 163.979 106.981 164.093C110.545 164.932 114.174 165.609 117.755 166.378C118.598 166.558 121.062 167.159 120.202 167.219" stroke="#171717" stroke-width="2" stroke-linecap="round"/>
<path d="M162.283 126.745C163.827 148.823 147.762 167.932 126.401 169.426C105.04 170.919 86.4718 154.233 84.9279 132.155C83.3841 110.077 98.676 79.9112 120.037 78.4175C141.398 76.9237 160.74 104.668 162.283 126.745Z" stroke="#171717" stroke-width="1.5"/>
<path d="M136.699 84.0807L119.395 110.44" stroke="#171717" stroke-width="1.5" stroke-linecap="round"/>
<path d="M83.4665 127.056C83.3339 125.161 83.3184 123.486 84.33 121.782C84.7639 121.051 85.0184 119.889 85.2774 119.061C85.5795 118.095 86.0186 117.167 86.4068 116.233C87.2898 114.108 88.1074 111.912 88.7949 109.715C89.4153 107.731 89.9331 105.638 90.9396 103.782C92.9145 100.14 94.5612 96.2703 97.247 93.0602C98.4746 91.593 99.8214 90.3025 101.082 88.8526C102.059 87.7284 103.012 86.606 104.12 85.6065C105.452 84.4052 107.028 83.4857 108.353 82.2769C110.042 80.7365 111.869 79.6499 114.05 78.9398C115.96 78.3178 118.428 78.5388 120.437 78.3983C122.372 78.263 124.22 78.0817 126.141 78.4735C128.276 78.9087 129.65 79.8403 131.44 81.0418C134.356 82.9998 137.301 84.981 139.983 87.2278C141.32 88.3479 142.826 89.3562 144.188 90.4308C144.831 90.9378 145.368 91.5527 146.086 91.9624C146.59 92.2495 147.744 92.7764 146.461 92.5049" stroke="#171717" stroke-width="1.5" stroke-linecap="round"/>
<path d="M147.176 91.0718C147.257 92.237 148.897 93.7065 149.515 94.7002C150.233 95.8539 151.134 96.9453 151.697 98.1921C152.688 100.385 154.27 102.318 155.409 104.421C156.523 106.479 157.605 108.539 158.412 110.763C158.853 111.98 159.339 113.12 159.623 114.375C159.844 115.355 159.992 116.48 160.351 117.411C161.127 119.421 161.648 121.79 161.798 123.945C161.949 126.096 162.482 128.299 162.634 130.47C162.703 131.459 162.995 132.696 162.848 133.679C162.747 134.352 162.202 135.146 162.248 135.806" stroke="#171717" stroke-width="1.5" stroke-linecap="round"/>
<path d="M162.468 133.557C162.752 137.62 161.412 141.066 159.837 144.738C158.011 148.994 156.667 153.407 152.921 156.408C151.446 157.589 150.136 158.979 148.631 160.12C148.032 160.574 147.21 161.302 146.72 161.866C146.167 162.502 145.423 162.846 144.838 163.419C144.243 164.001 143.111 164.336 142.37 164.729C141.621 165.127 140.807 165.361 140.025 165.694C138.472 166.356 136.934 166.887 135.359 167.495" stroke="#171717" stroke-width="1.5" stroke-linecap="round"/>
<path d="M136.21 167.436C135.343 167.496 134.477 167.557 133.61 167.618C132.762 167.677 131.363 167.767 130.57 168.115C129.015 168.795 127.075 168.581 125.482 169.176C124.355 169.598 122.786 169.702 121.586 169.786C120.611 169.854 119.689 169.965 118.732 169.796C117.706 169.614 116.774 169.234 115.83 168.819C114.985 168.447 114.009 168.053 113.197 167.612C111.535 166.711 109.525 166.153 107.69 165.68C106.813 165.454 105.569 164.93 104.764 164.515C103.648 163.94 102.53 163.497 101.481 162.754C99.69 161.486 97.8043 159.574 96.6611 157.688C95.794 156.257 94.4419 155.246 93.4596 153.93C93.2564 153.658 91.8414 152.337 91.9258 152.331" stroke="#171717" stroke-width="1.5" stroke-linecap="round"/>
<path d="M92.9613 153.64C92.3273 152.952 91.908 151.722 91.4007 150.905C90.6164 149.643 89.5826 148.439 88.7299 147.205C87.9115 146.021 86.9876 144.742 86.3706 143.441C85.7341 142.099 85.3859 140.378 85.0126 138.933C84.3874 136.514 84.181 134.232 84.033 131.702C83.8993 129.418 84.1764 127.075 84.1279 124.775C84.0641 121.747 84.5873 118.572 85.3775 115.682" stroke="#171717" stroke-width="1.5" stroke-linecap="round"/>
<path d="M136.563 84.09C134.039 84.2665 132.228 87.4542 131.553 89.6251C130.847 91.9013 129.504 93.7018 128.311 95.7265C127.687 96.7861 126.922 97.8118 126.264 98.8638C125.116 100.7 124.05 102.532 122.976 104.415C122.329 105.55 121.542 106.562 120.821 107.636C120.558 108.028 120.517 108.424 120.283 108.833" stroke="#171717" stroke-width="1.5" stroke-linecap="round"/>
</svg>
