<svg width="403" height="253" viewBox="0 0 403 253" fill="none" xmlns="http://www.w3.org/2000/svg">
<path d="M252.369 106.294C256.817 106.294 261.043 105.016 265.444 104.527C270.204 103.998 275.068 103.582 279.774 102.662C286.768 101.293 293.797 99.8897 300.839 98.716C315.488 96.2745 329.852 92.969 344.191 89.0583C357.583 85.4061 371.484 82.5275 383.978 76.2803C387.063 74.7377 389.843 72.6315 392.629 70.6343C393.732 69.8431 396.104 67.7084 396.194 66.1769C396.277 64.7673 396.606 65.2013 395.749 65.5826C394.555 66.1132 393.315 67.2859 392.15 67.9763C386.367 71.4034 380.306 74.2975 374.139 76.9407C367.361 79.8455 360.58 82.068 353.42 83.858C342.798 86.5135 332.423 89.5707 321.541 91.1384C318.91 91.5175 316.232 91.5869 313.584 91.7988C310.693 92.03 307.855 92.6902 304.966 92.9214C299.068 93.3932 293.384 95.5278 287.731 97.0981C284.799 97.9126 281.951 98.7774 278.981 99.4589C276.46 100.037 273.913 100.356 271.453 101.176C267.355 102.542 263.246 104.299 259.27 105.996C256.768 107.064 253.879 107.76 251.18 108.06C250.398 108.147 248.54 107.773 250.157 107.185C254.229 105.704 258.488 104.397 262.704 103.388C264.682 102.915 266.727 102.527 268.68 101.985C269.956 101.63 267.543 101.836 267.227 101.836C263.572 101.836 259.926 101.705 256.414 102.876C255.302 103.247 254.363 103.322 253.194 103.322C252.756 103.322 254.922 102.989 255.374 102.876C258.202 102.169 266.973 101.836 264.057 101.836C260.791 101.836 257.567 103.025 254.334 103.025C253.7 103.025 256.396 102.609 256.711 102.546C260.138 101.861 263.611 101.16 266.996 100.284C274.745 98.2786 282.381 95.858 290.174 94.044C292.196 93.5734 294.173 93.1898 296.217 92.8553C296.55 92.8009 298.416 92.6242 297.191 92.6242C292.473 92.6242 288.39 93.1446 283.884 94.7043C282.061 95.3354 280.2 95.933 278.404 96.6359C278.014 96.7884 276.899 97.3398 277.991 97.3788C282.415 97.5368 286.892 97.4272 291.297 97.0156C295.495 96.6232 299.503 94.8215 303.613 93.9614C307.691 93.1078 311.746 92.366 315.829 91.5841C322.72 90.2646 329.503 88.948 336.234 86.9121C344.751 84.3362 353.253 81.9748 361.889 79.8463C363.852 79.3624 365.926 78.7113 367.964 78.6576C368.891 78.6333 368.76 78.7518 367.948 78.9548C364.738 79.7572 361.386 79.4514 358.125 79.9949C351.977 81.0196 345.735 81.4716 339.602 82.5868C333.738 83.6529 328.086 85.4192 322.268 86.681C318.291 87.5434 314.365 88.4204 310.447 89.504C309.441 89.7823 299.948 91.6781 299.948 92.7728C299.948 93.2682 315.353 91.7605 316.853 91.7327C317.117 91.7278 319.237 91.7235 317.975 91.9638C316.64 92.2182 315.092 92.327 313.733 92.327C310.039 92.327 306.158 94.2621 302.606 95.1501C297.426 96.445 292.116 98.2532 287.203 100.35C286.079 100.83 284.712 101.539 283.455 101.539C282.8 101.539 284.765 101.549 285.42 101.539C294.987 101.387 304.183 97.0832 313.419 95.1501C323.899 92.9566 334.49 91.1503 344.852 88.4639C350.882 86.9005 356.552 85.4223 362.318 82.9665C367.277 80.8544 372.282 78.8895 377.16 76.594C377.782 76.301 378.953 75.719 379.669 75.719C380.428 75.719 378.166 75.9832 377.407 75.9832C375.263 75.9832 368.859 76.4918 371.002 76.5775C374.143 76.7032 377.097 76.4594 380.148 75.686C381.927 75.2349 383.28 74.1465 384.902 73.6059" stroke="#C6C6C8" stroke-width="2" stroke-linecap="round"/>
<path d="M250.744 167.19C250.744 163.127 250.257 158.715 251.046 154.719C251.884 150.478 252.58 146.209 253.315 141.946C254.862 132.972 257.289 123.366 256.122 114.18C255.825 111.841 255.255 109.547 254.609 107.289C254.358 106.409 253.928 105.11 253.467 104.331C253.127 103.758 252.53 103.607 252.273 103.221C251.913 102.681 252.201 104.525 252.273 105.171C252.454 106.799 252.746 108.437 252.929 110.079C253.2 112.519 253.701 114.989 253.769 117.44C253.8 118.548 254.072 120.637 254.072 118.298C254.072 116.194 253.727 114.036 253.315 111.978C252.951 110.155 253.058 107.975 251.954 106.398C251.831 106.223 249.885 103.434 249.836 104.263C249.747 105.776 250.391 106.85 251.046 108.196C252.607 111.405 253.725 115.385 254.072 118.936C254.456 122.872 255.276 126.796 255.567 130.735C255.787 133.7 255.584 136.755 255.584 139.727C255.584 147.938 255.131 155.682 252.861 163.627C252.346 165.43 251.688 167.116 251.046 168.871C250.732 169.732 250.441 170.594 250.441 169.241C250.441 163.813 250.464 158.497 251.651 153.156C252.769 148.127 253.467 142.834 253.467 137.677C253.467 129.259 254.015 120.654 253.399 112.264C253.314 111.099 252.93 107.635 252.861 108.801C252.785 110.102 252.861 111.431 252.861 112.734C252.861 119 254.738 125.187 254.962 131.475C255.058 134.147 254.979 136.835 254.979 139.509C254.979 142.191 254.463 144.528 254.139 147.156C253.258 154.29 249.77 160.27 246.525 166.569C243.567 172.312 240.989 178.48 237.298 183.796C236.546 184.878 235.523 186.039 235.029 187.275C234.708 188.078 235.784 185.718 236.222 184.973C237.909 182.1 240.22 179.648 241.97 176.804C243.787 173.852 245.113 170.771 246.206 167.493C247.301 164.206 248.364 160.912 249.298 157.577C249.665 156.267 250.744 154.523 250.744 153.156C250.744 150.076 250.935 159.376 250.273 162.383C248.74 169.351 244.489 175.071 240.29 180.67C237.731 184.082 235.113 188.034 232.02 190.906C231.422 191.462 229.867 195.926 229.566 195.326" stroke="#C6C6C8" stroke-width="2" stroke-linecap="round"/>
<path d="M242.387 179.862C242.513 178.597 243.711 177.355 244.275 176.253C245.629 173.606 247.076 171.01 248.43 168.363C250.929 163.478 254.116 158.807 255.963 153.612C258.936 145.25 261.551 136.749 264.293 128.328C266.757 120.758 267.692 112.625 267.692 104.701C267.692 103.444 267.692 104.896 267.692 105.309C267.692 107.627 267.475 109.815 267.126 112.108C265.761 121.056 262.937 129.686 260.705 138.442C260.544 139.071 258.719 145.194 258.627 143.142C258.272 135.146 258.46 127.55 260.516 119.725C261.324 116.648 262.359 113.574 262.404 110.366C262.405 110.34 262.408 107.868 262.32 107.89C261.632 108.062 262.032 112.22 262.027 112.716C261.981 117.324 261.198 121.936 260.516 126.481C259.588 132.667 256.878 151.116 256.739 144.862C256.576 137.539 255.984 130.255 255.984 122.914C255.984 118.703 255.719 114.559 255.606 110.366C255.598 110.062 255.202 107.932 255.228 109.107C255.298 112.264 255.945 115.467 256.361 118.592C256.826 122.079 257.924 132.483 258.229 128.978C258.582 124.917 258.662 120.809 259.194 116.766C259.44 114.899 259.383 113.022 259.383 111.143C259.383 110.686 259.383 109.02 259.383 110.429C259.383 115.527 258.627 120.628 258.627 125.768C258.627 126.55 258.711 127.287 258.607 125.978C258.231 121.279 257.494 116.652 257.494 111.919C257.494 110.249 256.973 107.606 257.683 106.044C258.013 105.318 258.25 105.468 258.25 106.233C258.25 109.994 258.205 114.513 259.572 118.067C260.234 119.788 261.289 113.906 261.481 113.22C262.009 111.335 262.506 108.376 263.915 106.967C264.896 105.986 264.671 107.931 264.671 108.478C264.671 110.618 264.671 112.758 264.671 114.899C264.671 115.405 264.297 117.814 264.755 118.214C264.95 118.385 265.048 114.961 265.048 114.689C265.048 114.517 264.954 109.023 265.132 109.023C265.412 109.023 264.723 111.765 264.671 111.961C264.051 114.292 263.887 116.664 263.621 119.053C263.461 120.495 264.231 124.069 263.244 125.18C263.078 125.367 262.744 122.82 262.698 122.453C262.464 120.579 262.404 118.756 262.404 116.871C262.404 115.294 262.262 113.979 263.16 112.632" stroke="#C6C6C8" stroke-width="2" stroke-linecap="round"/>
<path d="M267.431 114.216C272.809 114.216 278.085 114.342 283.399 113.33C294.422 111.23 305.775 108.101 316.483 104.736C330.882 100.21 344.823 94.0087 359.118 89.1272C364.734 87.2097 371.038 84.4889 375.996 81.2273C378.151 79.8093 380.606 78.5025 382.483 76.7267C383.506 75.7586 384.787 74.6266 386.122 74.1413C387.874 73.5041 386.247 74.2199 385.308 74.5243C381.674 75.7018 378.534 77.5375 375.182 79.3121C372.291 80.8424 369.553 82.661 366.54 83.9564C362.302 85.778 357.943 87.2347 353.78 89.223C344.194 93.8013 332.95 97.1476 322.587 99.469C314.974 101.174 307.689 103.926 300.18 106.028C297.01 106.916 293.708 108.185 290.509 108.853C287.105 109.564 283.457 109.543 279.999 109.907C278.383 110.077 276.825 110.428 275.188 110.337C274.143 110.279 278.375 109.134 278.707 109.045C282.92 107.91 287.577 107.931 291.921 107.776C292.299 107.762 297.153 108.002 297.068 108.087C295.152 110.003 288.412 109.021 286.104 109.069C280.462 109.185 274.982 110.228 269.442 111.199C269.25 111.233 265.026 111.805 265.971 111.175C268.707 109.351 271.968 108.66 275.092 107.752C277.611 107.02 280.491 106.459 283.135 106.459C284.206 106.459 278.416 107.662 277.677 107.752C275.62 108.004 270.475 109.624 268.485 108.518C267.971 108.233 269.248 107.575 269.777 107.321C272.083 106.216 274.757 105.753 277.27 105.43C280.017 105.077 288.117 104.158 285.577 105.262C280.349 107.536 273.566 107.419 268.006 108.59C265.755 109.064 260.446 109.736 266.019 109.236C274.825 108.446 283.668 108.167 292.472 107.321C294.238 107.151 296.084 107.103 297.834 106.794C298.963 106.595 295.557 106.459 294.411 106.459C289.421 106.459 284.415 106.89 279.449 106.89C274.837 106.89 288.454 104.898 292.95 103.874C299.785 102.318 307.008 99.7185 314.017 99.1578C325.981 98.2007 266.13 102.102 278.132 102.102C279.871 102.102 281.85 101.501 283.542 101.241C290.418 100.183 297.316 99.3615 304.25 98.7987C309.937 98.3371 327.049 97.8411 321.342 97.8411C313.618 97.8411 305.769 99.7425 298.073 100.427C296.061 100.605 293.759 100.59 291.801 101.193C289.513 101.897 296.555 100.59 298.911 100.163C306.927 98.7116 314.974 96.9209 323.066 95.9499C324.354 95.7954 325.647 95.6866 326.944 95.6866C328.237 95.6866 324.416 96.2325 323.162 96.5484C319.702 97.42 309.108 98.703 312.676 98.703C318.756 98.703 325.248 95.9724 331.11 94.5854C334.778 93.7174 339.168 92.2393 342.983 92.2393C344.204 92.2393 340.579 92.6717 339.392 92.9575C332.935 94.5128 326.571 96.4344 320.169 98.2002C315.07 99.6069 299.712 103.373 304.633 101.432C311.052 98.9007 317.567 96.6367 324.359 95.3275C324.941 95.2153 332.373 94.3627 328.835 95.7105C326.008 96.7877 322.838 97.1518 319.882 97.6736C312.3 99.0116 304.694 100.135 297.068 101.193C291.078 102.023 284.764 102.861 278.922 104.496C278.097 104.727 276.491 104.665 278.06 103.778C280.989 102.123 284.815 102.581 288.043 102.581C290.506 102.581 291.389 103.971 288.593 104.831C284.113 106.21 279.398 106.783 274.852 107.92C272.995 108.384 272.892 108.452 271.309 107.321" stroke="#C6C6C8" stroke-width="2" stroke-linecap="round"/>
<path d="M172.086 242.824C173.665 242.824 174.398 242.521 175.733 241.631C177.455 240.483 179.616 240.093 181.464 239.194C184.725 237.607 187.432 235.202 190.776 233.748C196.665 231.188 203.23 228.051 207.802 223.479C213.983 217.297 220.477 211.494 226.105 204.688C232.76 196.639 238.856 188.72 243.954 179.578C246.061 175.8 248.321 172.097 250.139 168.165C250.836 166.66 251.955 165.27 251.955 163.56" stroke="#C6C6C8" stroke-width="2" stroke-linecap="round"/>
<path d="M375.864 37.7191C385.278 34.8237 395.215 40.321 397.764 49.835C400.314 59.3489 394.457 69.0782 384.856 71.2779L222.166 108.553L216.333 86.7829L375.864 37.7191Z" fill="white" stroke="#171717" stroke-width="2"/>
<ellipse cx="9.01525" cy="9.01523" rx="9.01525" ry="9.01523" transform="matrix(0.258818 0.965926 -0.965926 0.25882 384.547 44.0444)" stroke="#171717" stroke-width="2"/>
<ellipse cx="125.557" cy="127.079" rx="123.959" ry="123.96" fill="white" stroke="#171717" stroke-width="2"/>
<ellipse cx="125.558" cy="127.079" rx="101.421" ry="101.422" stroke="#171717" stroke-width="2"/>
<path d="M240.781 80.1444C245.553 80.1444 249.89 79.6439 254.517 78.5925C255.849 78.2897 256.983 77.3815 258.248 76.8756C259.369 76.4271 260.378 76.1236 261.434 75.5549C262.701 74.8724 264.229 74.5699 265.578 74.1846C271.885 72.3825 278.164 69.4313 284.332 67.0693C296.448 62.429 308.992 58.7969 321.246 54.5885C326.712 52.7111 332.509 51.6616 338.085 50.1311C343.406 48.6702 348.645 47.0123 353.999 45.6737C361.11 43.8961 368.382 41.4507 375.692 40.6385C381.368 40.0077 388.083 39.3958 393.043 42.7021C397.578 45.7257 396.79 52.1 396.79 56.8668C396.79 60.6863 396.029 64.6518 392.993 67.1353C392.236 67.7553 390.369 67.5777 389.427 67.7296C388.012 67.9579 386.389 68.5139 385.036 69.0008C383.08 69.7048 381.27 70.8337 379.208 71.246C375.513 71.9852 371.802 73.6479 368.197 74.7294C363.871 76.0273 359.311 76.9442 355.171 78.8071C352.45 80.0319 348.906 80.8462 345.976 81.399C342.658 82.025 339.406 83.0829 336.038 83.6443C332.196 84.2845 328.288 84.9957 324.432 85.4933C320.815 85.96 317.396 87.0713 313.817 87.6394C310.273 88.2019 306.682 89.7723 303.201 90.6936C299.827 91.5868 296.735 92.7672 293.23 93.2195C288.808 93.79 284.469 94.8412 280.006 95.2335C275.1 95.6649 270.322 96.5407 265.446 97.0825C261.417 97.5301 257.089 98.9238 253.196 100.054C251.538 100.535 249.319 101.837 247.616 101.837" stroke="#171717" stroke-width="2" stroke-linecap="round"/>
<path d="M26.6802 105.525C26.6802 103.122 26.5981 100.753 26.9499 98.3778C27.1623 96.9442 28.0434 95.5239 28.8379 94.3321C29.7106 93.023 30.2315 91.5544 31.0556 90.2114C32.3225 88.1468 33.471 85.9919 34.7717 83.9479C35.9645 82.0735 37.6667 80.2643 38.5477 78.2239C39.3563 76.3516 40.8074 74.4516 42.069 72.8745C45.0147 69.1925 47.5846 65.181 50.685 61.6213C53.4015 58.5023 56.163 55.6194 59.1961 52.7955C62.4092 49.8039 66.0609 47.4547 69.5652 44.8388C74.5912 41.087 79.7665 37.6888 85.1488 34.5296C88.2347 32.7183 91.9781 31.9687 95.458 31.2031C99.7522 30.2584 103.965 29.2498 108.345 28.7157C116.103 27.7696 123.848 27.5769 131.66 27.5769" stroke="#171717" stroke-width="2" stroke-linecap="round"/>
<path d="M128.914 27.2121C132.473 27.2121 136.039 27.1463 139.597 27.2121C142.561 27.267 145.503 28.0416 148.403 28.5435C149.825 28.7896 151.225 29.3248 152.605 29.7465C154.75 30.4017 156.785 31.3019 158.909 31.9761C162.657 33.166 165.906 35.74 169.512 37.2854C171.465 38.1225 173.259 39.3538 175.037 40.5014C176.732 41.595 178.448 42.6555 180.194 43.6694C183.242 45.4389 186.124 47.4592 188.824 49.7005C190.047 50.7158 191.476 51.5024 192.593 52.6198C194.018 54.0448 195.441 55.5046 196.828 56.9827C199.416 59.7414 203.232 61.176 205.273 64.4414C205.589 64.9469 205.909 65.442 205.995 66.0454C206.014 66.1812 206.147 66.7594 206.147 66.3342" stroke="#171717" stroke-width="2" stroke-linecap="round"/>
<path d="M205.426 65.7574C205.5 66.4235 206.537 67.4162 206.901 67.987C207.712 69.2556 208.705 70.4089 209.468 71.7084C210.642 73.7079 211.773 75.7273 213.109 77.6272C216.24 82.0808 218.338 87.5673 219.894 92.7531C220.761 95.6427 221.058 98.6358 221.739 101.559C222.265 103.819 222.433 106.135 223.038 108.376C223.587 110.41 224.066 112.478 224.626 114.52C224.8 115.155 224.873 115.832 225.171 116.428C225.333 116.752 225.402 116.924 225.203 116.428" stroke="#171717" stroke-width="2" stroke-linecap="round"/>
<path d="M225.491 114.263C225.491 116.021 225.408 117.804 225.708 119.54C226.043 121.486 225.972 123.53 226.438 125.459C226.943 127.555 227.06 129.77 227.336 131.907C227.605 133.996 227.512 136.121 227.512 138.227C227.512 140.679 226.822 143.06 226.285 145.445C225.699 148.048 225.089 150.704 224.264 153.24C223.339 156.086 222.23 158.852 221.128 161.629C220.267 163.801 219.278 165.865 218.626 168.118C218.404 168.883 218.231 169.681 217.984 170.42" stroke="#171717" stroke-width="2" stroke-linecap="round"/>
<path d="M142.191 226.715C144.952 226.715 147.805 227.062 150.405 226.117C152.091 225.503 153.878 224.717 155.659 224.321C157.279 223.961 159.36 222.782 160.913 222.077C162.176 221.502 163.889 221.544 165.086 220.879C167.02 219.805 169.225 219.061 171.221 218.036C173.563 216.833 175.836 215.586 178.038 214.146C179.303 213.319 180.682 211.916 182.061 211.386C183.893 210.681 186.275 209.193 187.681 207.861C188.983 206.627 190.619 205.792 192.02 204.702C193.718 203.382 194.978 201.761 196.493 200.246C198.214 198.525 200.273 196.453 201.597 194.394C202.855 192.437 204.757 190.899 206.069 188.99C208.393 185.61 210.616 182.098 213.418 179.131C215.669 176.747 217.309 174.142 217.309 170.751" stroke="#171717" stroke-width="2" stroke-linecap="round"/>
<path d="M63.7812 209.057C65.3118 209.21 67.2515 211.529 68.4366 212.499C69.6513 213.493 71.1006 214.261 72.4601 214.976C74.1113 215.845 76.059 216.122 77.6974 217.005C79.4009 217.922 81.1819 218.925 83.0012 219.598C84.5657 220.178 86.0557 221.079 87.59 221.776C89.1152 222.47 90.9498 222.731 92.5114 223.356C94.464 224.137 97.0259 224.705 99.0787 225.218C101.038 225.708 102.997 226.418 104.931 227.014C108.893 228.233 112.901 228.809 117.035 228.809C120.97 228.809 125.005 229.109 128.873 229.109C132.61 229.109 136.397 228.809 140.079 228.809C143.224 228.809 146.177 226.714 149.373 226.714" stroke="#171717" stroke-width="2" stroke-linecap="round"/>
<path d="M64.6774 209.358C62.5088 207.189 60.4508 205.047 58.3262 202.84C56.758 201.212 55.4845 199.302 54.0533 197.553C53.4949 196.871 52.8154 196.745 52.3408 195.891C51.9023 195.101 50.8199 194.561 50.2459 193.796C46.9313 189.376 43.2984 185.409 41.4007 180.096C40.7099 178.161 39.496 176.289 38.9401 174.343C38.544 172.957 37.9545 171.137 37.3772 169.854C34.669 163.835 32.5459 157.606 30.5604 151.299C29.5215 147.999 28.6408 144.73 28.1663 141.29C27.7894 138.558 26.7485 135.793 26.6699 133.043C26.561 129.23 26.3706 125.344 26.3706 121.604C26.3706 118.646 26.0714 115.688 26.0714 112.709C26.0714 111.382 25.7919 109.66 26.3706 108.503" stroke="#171717" stroke-width="2" stroke-linecap="round"/>
<path d="M2.05469 115.794C2.05469 111.005 3.01369 105.988 5.18275 101.65C7.0853 97.8448 9.05721 93.512 10.0033 89.3492C10.4289 87.4763 11.4075 85.6877 12.1189 83.9091C12.9894 81.7328 13.6152 79.3158 14.8389 77.3054C16.0375 75.3363 16.7358 72.9828 17.7706 70.9132C19.0644 68.3255 20.1079 65.6128 21.6391 63.1459C23.6393 59.9233 25.2611 56.237 27.7592 53.3688C30.0047 50.7906 32.0298 48.0767 34.4233 45.6166C35.7085 44.2958 36.6723 42.6274 37.9594 41.2645C38.8094 40.3645 39.6036 39.3503 40.4226 38.4085C40.9458 37.8067 41.9964 36.4178 42.7195 36.0964C43.674 35.6722 44.2704 34.4109 44.8804 33.6483C45.7707 32.5355 46.6232 31.2406 47.6307 30.2332C49.5202 28.3437 51.4645 26.5975 53.9473 25.4882" stroke="#171717" stroke-width="2" stroke-linecap="round"/>
<path d="M50.7422 27.6629C52.806 27.6629 54.6926 26.5908 56.3485 25.4868C58.8529 23.8172 61.5137 22.3043 64.0705 20.7418C67.8077 18.4579 71.6208 16.2567 75.6458 14.4857C80.291 12.4418 84.8393 9.08972 89.8959 8.07841C94.9499 7.06759 99.8454 5.48038 105.007 4.81434C108.764 4.32961 112.458 3.58612 116.235 3.24274C118.802 3.0094 121.344 2.77166 123.912 2.57784C126.283 2.3989 128.684 2.53607 131.044 2.30583C138.332 1.5948 146.362 1.64851 153.228 4.48189C156.782 5.94867 160.419 7.16677 163.957 8.68287C167.655 10.2678 171.292 12.1648 174.837 14.0626" stroke="#171717" stroke-width="2" stroke-linecap="round"/>
<path d="M166.344 9.16528C167.886 9.33668 168.981 10.929 170.424 11.3413C172.108 11.8226 173.757 13.2576 175.32 14.0614C180.303 16.6244 185.801 18.3508 190.613 21.194C201.637 27.7087 211.931 35.8027 220.261 45.6141C222.565 48.3274 224.943 50.9739 226.986 53.9103C229.136 57.0018 230.478 60.4038 232.441 63.5666C235.523 68.5316 237.196 74.5963 239.03 80.0985C239.464 81.4007 239.956 82.8632 240.314 84.1181C240.581 85.052 241.313 86.2889 241.417 87.2311C241.574 88.6379 242.72 90.0353 243.034 91.4472C243.202 92.2028 243.521 93.0712 243.865 93.7593" stroke="#171717" stroke-width="2" stroke-linecap="round"/>
<path d="M242.234 89.1364C242.234 94.2693 244.975 99.1887 247.01 103.84C249.509 109.553 249.929 116.176 250.727 122.261C251.813 130.544 251.508 139.566 249.987 147.784C249.626 149.731 249.524 152.048 248.702 153.874C247.872 155.719 246.965 157.499 246.058 159.314C244.434 162.56 243.384 165.594 242.506 169.106" stroke="#171717" stroke-width="2" stroke-linecap="round"/>
<path d="M110.836 250.624C116.525 250.624 122.214 250.624 127.903 250.624C132.581 250.624 136.642 249.794 141.221 248.946C147.814 247.726 154.738 247.377 161.167 245.591C164.649 244.624 167.914 243.347 171.213 241.863C174.633 240.324 178.205 239.246 181.383 237.202C187.086 233.536 193.45 230.381 198.45 225.645C200.264 223.926 202.572 222.497 204.581 221.005C208.697 217.947 212.877 214.368 216.118 210.38C218.013 208.047 219.907 205.729 221.565 203.192C223.431 200.338 225.984 197.902 227.738 195.031C232.079 187.928 236.481 181.366 239.834 173.822C240.814 171.615 241.406 169.063 242.071 166.738C242.679 164.611 244.68 162.535 244.68 160.4" stroke="#171717" stroke-width="2" stroke-linecap="round"/>
<path d="M5.70092 100.749C5.70092 105.315 3.79193 109.191 3.11185 113.611C2.4992 117.594 1.97266 121.242 1.97266 125.355C1.97266 132.262 4.59029 138.661 5.3488 145.488C5.90694 150.511 7.0738 155.518 8.39355 160.401C9.26002 163.607 10.6742 166.66 11.749 169.805C13.3276 174.423 14.6495 179.012 16.5129 183.537C19.4908 190.769 24.1964 196.028 29.4789 201.702C31.4417 203.81 32.5016 206.7 34.4292 208.869C35.2591 209.802 35.9194 210.76 36.6455 211.768C36.9576 212.202 38.4799 212.597 37.3911 212.597" stroke="#171717" stroke-width="2" stroke-linecap="round"/>
<path d="M34.0352 210.36C36.6322 212.698 39.0704 215.726 42.0302 217.61C46.4684 220.434 50.5626 223.784 54.9134 226.765C59.8764 230.165 64.8244 233.363 70.0129 236.437C74.0483 238.829 78.3416 240.399 82.5025 242.423C85.8586 244.056 89.5809 245.01 92.9417 246.69C96.4246 248.432 101.119 248.248 104.872 249.134C110.396 250.438 116.048 251.142 121.649 251.765C123.308 251.949 134.087 252.014 133.953 251.744" stroke="#171717" stroke-width="2" stroke-linecap="round"/>
<path d="M374.948 45.9269C374.529 45.9269 374.098 45.8952 373.681 45.9369C372.781 46.0269 371.957 46.5653 371.221 47.0495C370.611 47.4515 370.032 47.969 369.515 48.4865C369.183 48.8185 368.768 49.1295 368.662 49.6091C368.131 51.9952 368.392 54.5537 368.392 56.9936C368.392 58.1436 368.615 59.1675 368.976 60.2518C369.323 61.2914 370.271 61.9234 371.216 62.4123C372.749 63.2049 374.171 64.0771 375.887 64.473C377.61 64.8708 379.101 64.644 380.607 63.7545C382.375 62.7093 383.664 61.424 384.668 59.6481C385.276 58.5724 385.591 57.2727 385.861 56.0756C386.158 54.7517 386.318 53.0674 385.816 51.7746C385.366 50.6181 384.618 49.5053 383.75 48.6212C382.858 47.7119 381.663 46.6009 380.427 46.1963C379.77 45.9814 379.124 45.7288 378.451 45.5676C377.757 45.4015 377.005 45.4778 376.296 45.4778C375.758 45.4778 375.118 45.3803 374.589 45.4978C374.302 45.5617 373.985 45.6574 373.691 45.6574" stroke="#171717" stroke-width="2" stroke-linecap="round"/>
<g filter="url(#filter0_dd_2997_21094)">
<path d="M123.418 57.2711C119.38 55.6729 113.528 54.3764 107.704 55.3179C100.948 56.4098 94.4514 60.5177 91.2708 69.6782C87.5204 80.4798 89.559 87.8946 91.9174 94.3946C92.1474 95.0285 92.3761 95.646 92.6002 96.2512C94.6249 101.719 96.2757 106.177 95.1562 112.588C93.4644 122.278 96.961 133.063 104.144 140.045C111.576 147.268 122.781 150.247 135.576 144.376C141.59 141.617 145.689 138.685 148.729 135.697C151.671 132.805 153.499 129.968 154.988 127.658C155.029 127.595 155.069 127.533 155.109 127.471C156.659 125.067 157.753 123.447 159.396 122.111C160.969 120.831 163.318 119.613 167.569 118.775C176.716 116.971 180.766 107.355 180.636 98.8748C180.501 89.9978 176.003 80.0529 165.651 75.3479C165.06 75.0788 164.381 74.3361 162.924 71.7893C162.799 71.5706 162.669 71.3416 162.534 71.1036C161.315 68.9471 159.679 66.0564 157.174 63.4889C151.294 57.4639 141.666 54.0507 123.418 57.2711Z" fill="white" stroke="white" stroke-width="8"/>
<path d="M110.639 100.725C110.322 101.132 111.774 102.59 112.003 102.882C112.847 103.957 113.89 104.914 114.686 106.017C116.098 107.971 111.653 101.863 111.653 99.4523C111.653 99.1184 112.19 99.7772 112.197 99.7842C112.894 100.444 113.601 101.088 114.262 101.785C114.862 102.417 115.468 103.044 116.069 103.675C116.198 103.81 116.794 104.681 116.374 104.062C115.253 102.411 114.165 100.674 113.322 98.8622C112.844 97.8347 112.863 97.9342 113.663 98.6409C114.297 99.2008 115.244 100.265 116.079 100.522C116.274 100.582 116.096 100.096 116.005 99.9133C115.513 98.9286 114.904 98.0026 114.391 97.0273C114.169 96.6043 113.827 96.1594 113.663 95.7088C113.661 95.7034 114.626 96.4021 114.733 96.4833C116.134 97.5532 117.751 99.1013 119.398 99.775C119.857 99.963 119.514 99.3487 119.444 99.2218C118.676 97.8277 117.728 96.5197 116.853 95.1925C116.329 94.3974 115.777 93.5991 115.359 92.7399C114.928 91.8517 116.364 92.9383 116.484 93.0165C119.799 95.1729 123.153 97.237 126.59 99.1941C127.027 99.4432 127.963 100.415 127.917 99.9133C127.895 99.6705 127.66 99.4986 127.512 99.3047C126.824 98.4026 126.103 97.523 125.391 96.6401C124.329 95.323 123.223 94.0422 122.155 92.7307C121.727 92.2054 121.151 91.5741 120.901 90.9235C120.724 90.4649 121.763 91.3961 122.182 91.6519C123.863 92.6767 125.553 93.6848 127.254 94.6762C128.155 95.2014 129.052 95.7359 129.983 96.2067C131.014 96.7281 130.202 96.109 129.771 95.7088C127.074 93.2043 124.461 90.6093 121.74 88.1298C121.598 88.0005 121.193 87.6159 121.371 87.6872C122.403 88.1001 123.403 88.6276 124.414 89.0887C128.76 91.0718 133.177 92.8764 137.359 95.1925C137.628 95.3413 138.435 95.7115 138.235 95.4783C136.895 93.9154 135.293 92.5112 133.818 91.0803C132.505 89.8059 131.166 88.5573 129.872 87.2631C129.175 86.5663 128.136 85.6758 129.863 86.3595C132.202 87.2853 134.486 88.3543 136.806 89.3284C136.985 89.4039 137.866 89.8165 137.294 89.2454C135.654 87.6054 133.716 86.2081 131.901 84.7736C130.667 83.7985 129.417 82.844 128.176 81.8785C127.987 81.7319 126.881 80.986 127.798 81.2515C129.615 81.7777 131.37 82.5841 133.136 83.2615C134.903 83.9394 131.692 82.4245 131.421 82.2934C129.525 81.3739 127.578 80.5586 125.594 79.85C124.625 79.5038 127.396 80.8448 128.286 81.3621C128.594 81.5412 128.991 81.6592 129.273 81.8785C129.365 81.9499 127.969 81.5597 127.881 81.5281C125.829 80.7901 123.766 80.0344 121.574 79.85C120.438 79.7544 120.335 80.1865 120.006 81.1408C119.147 83.6415 116.639 85.0142 115.369 87.2262C114.385 88.9382 113.951 90.9398 113.386 92.8137C112.937 94.3065 112.494 95.925 112.464 97.4976C112.455 98.0039 112.289 98.2935 112.049 97.6266C111.686 96.6177 111.635 95.6075 111.635 94.5471C111.635 92.7626 112.428 91.6382 113.405 90.1582C115.031 87.6947 116.796 85.0055 119.149 83.1693C119.315 83.04 120.432 82.0483 120.099 82.8374C119.869 83.3824 119.496 83.8242 119.121 84.2757C117.769 85.9042 116.466 87.5725 115.157 89.2362C114.277 90.3544 113.456 91.4951 112.676 92.6846C112.424 93.0697 111.951 93.5815 111.966 94.0861C111.975 94.3526 112.486 93.913 112.686 93.7357C114.129 92.4515 115.597 91.1985 117.084 89.9646C118.132 89.0942 119.186 88.2291 120.283 87.4198C120.395 87.3374 121.519 86.7153 121.519 86.4886C121.519 86.1971 120.99 86.7378 120.744 86.8943C119.578 87.6366 118.39 88.3897 117.323 89.2731C116.629 89.8485 114.972 91.2808 114.972 92.325C114.972 92.6435 115.425 92.4099 115.535 92.3527C117.022 91.5734 118.385 90.4322 119.73 89.4391C121.015 88.4902 122.3 87.5368 123.566 86.5623C124.098 86.1523 124.906 85.6574 125.28 85.0687C125.407 84.8702 124.813 84.9582 124.58 84.9857C122.954 85.1769 121.433 85.9849 120.099 86.8943C118.045 88.294 114.747 91.0594 114.493 93.791C114.343 95.4009 118.681 94.4497 119.472 94.3442C120.978 94.1434 122.466 93.8062 123.897 93.2931C124.555 93.0574 125.761 92.7177 126.101 92.0115C126.662 90.847 122.066 88.9512 121.371 88.517C120.685 88.0884 120.013 87.6406 119.343 87.1893C119.249 87.1262 118.99 86.9496 119.103 86.9496C121.18 86.9496 123.477 87.6049 125.52 87.9454C126.517 88.1116 127.503 88.3355 128.498 88.5078C129.53 88.6864 128.97 88.3518 128.378 88.0376C126.646 87.1174 124.82 86.4267 123.141 85.4006C123.108 85.3799 125.505 85.9625 125.981 86.0829C126.979 86.3352 127.995 86.508 128.987 86.7836C129.271 86.8625 130.276 87.3764 130.582 87.2539C131.059 87.0629 129.673 86.7697 129.199 86.5716C127.465 85.8474 125.752 85.0757 124.027 84.331C123.152 83.9537 122.258 83.5994 121.408 83.1693C120.679 82.8005 121.084 82.8005 121.657 82.8005C123.252 82.8005 124.882 82.705 126.451 83.0494C128.118 83.4153 126.503 83.1294 125.76 82.9664C124.759 82.7468 123.75 82.5281 122.736 82.3764C122.243 82.3027 120.782 82.2826 121.26 82.1458C122.827 81.6984 125.165 82.6893 126.664 83.0587C127.252 83.2037 127.879 83.2615 128.452 83.4643C128.56 83.5027 128.848 83.6521 128.784 83.5565C128.11 82.5458 125.948 81.8719 124.856 81.5004C124.49 81.3757 124.014 81.2378 123.621 81.3252C123.092 81.4427 124.208 82.9643 124.266 83.0587C126.531 86.7101 129.101 90.1917 131.504 93.7541C131.941 94.4018 133.707 96.5775 131.781 95.1464C129.479 93.4366 127.375 91.4566 125.041 89.7894C122.985 88.3213 128.674 93.315 130.278 95.2663C131.277 96.4819 132.178 97.7799 133.072 99.0742C133.091 99.1025 134.252 100.767 133.855 100.743C132.928 100.687 131.689 99.6291 130.942 99.1941C129.232 98.1987 127.514 97.221 125.815 96.2067C125.519 96.0299 124.784 95.4284 124.368 95.5244C124.038 95.6004 125.087 96.8132 125.115 96.8521C126.495 98.7709 127.834 100.789 128.867 102.919C128.974 103.14 129.18 103.595 128.701 103.362C127.039 102.552 125.614 101.027 124.192 99.8764C124.042 99.7548 120.032 96.7634 120.006 96.8153C119.818 97.1929 120.559 97.4547 120.855 97.7557C122.399 99.3264 123.855 100.919 125.197 102.67C126.074 103.814 126.966 104.958 127.77 106.155C127.815 106.222 128.897 107.875 128.471 107.677C127.026 107.005 125.72 105.751 124.469 104.8C122.352 103.19 120.234 101.579 117.95 100.208C117.853 100.15 116.516 99.3703 116.65 99.4984C117.542 100.348 118.404 101.213 119.232 102.126C120.591 103.625 121.872 105.188 123.104 106.792C123.834 107.741 124.8 108.765 125.299 109.871C125.496 110.308 124.431 109.441 124.063 109.134C122.476 107.806 120.948 106.411 119.343 105.104C118.781 104.647 116.477 102.707 118.181 104.45C119.646 105.948 121.079 107.48 122.219 109.244C122.305 109.377 122.979 110.195 122.736 110.406C122.195 110.874 120.339 109.951 119.859 109.751C118.976 109.384 118.137 108.917 117.25 108.562C116.699 108.342 116.426 108.315 116.927 108.838C117.824 109.776 118.868 110.735 119.49 111.89C119.639 112.167 118.923 111.609 118.679 111.411C117.302 110.292 116.027 109.018 114.769 107.769C114.612 107.612 112.202 105.339 113.396 106.377C113.831 106.756 115.304 107.621 114.751 107.455C113.999 107.23 113.049 105.438 112.575 104.828C112.174 104.312 112.325 104.488 112.547 104.883C112.995 105.679 113.688 106.256 114.327 106.902C116.543 109.147 118.89 111.104 121.39 113.006C122.443 113.808 123.219 113.836 124.506 113.836C126.195 113.836 128.382 114.201 129.992 113.651C133.074 112.599 136.066 111.186 137.691 108.23C138.257 107.201 138.748 105.661 139.59 104.818C139.701 104.708 139.375 105.929 139.314 106.072C137.525 110.247 133.139 113.435 129.264 115.551C129.18 115.597 124.654 117.774 124.654 117.487C124.654 117.398 125.764 117.152 125.852 117.118C127.464 116.508 129.283 116.466 130.969 116.159C133.727 115.658 136.629 115.347 139.019 113.734C141.928 111.771 142.532 108.7 143.481 105.482C143.753 104.56 144.022 103.648 144.366 102.753C144.379 102.721 144.612 102.475 144.588 102.624C144.509 103.093 143.493 103.738 143.195 104.016C140.832 106.23 138.302 108.277 135.838 110.378C134.842 111.227 132.121 114.062 133.025 113.117C136.248 109.751 139.158 106.082 142.366 102.698C143.249 101.766 144.151 100.847 145.003 99.8856C145.154 99.7147 145.524 99.2846 145.012 99.4707C143.612 99.9798 142.256 100.782 140.973 101.518C137.524 103.497 134.255 105.754 131.181 108.276C129.58 109.59 124.905 113.629 126.682 112.563C128.377 111.547 129.842 109.828 131.264 108.47C131.554 108.193 133.017 106.846 131.679 107.271C130.669 107.592 129.558 108.454 128.803 109.189C127.431 110.522 131.451 106.429 132.786 105.058C133.002 104.836 137.405 100.337 137.285 100.264C136.978 100.076 136.053 100.454 135.81 100.54C133.484 101.367 131.284 102.709 129.218 104.035C127.319 105.253 124.896 106.715 123.529 108.58C123.346 108.83 124.093 108.316 124.34 108.129C126.725 106.319 129.051 104.426 131.384 102.55C133.171 101.114 134.928 99.6499 136.64 98.1245C137.308 97.5288 138.186 96.9209 138.724 96.1883C138.896 95.9537 138.527 95.9301 138.382 95.9301C137.407 95.9301 136.473 96.3442 135.662 96.8521C134.435 97.6211 133.039 98.5758 132.288 99.8579C132.119 100.146 134.268 100.063 134.455 100.07C135.355 100.103 137.133 100.421 137.322 101.554C137.407 102.061 137.11 102.491 136.806 102.864C135.724 104.186 134.483 105.419 133.311 106.662C132.528 107.494 131.674 108.264 130.942 109.143C130.338 109.867 130.331 109.885 131.034 109.244C132.758 107.671 134.478 106.041 136.483 104.828C137.665 104.112 137.09 104.695 136.511 105.427C134.871 107.497 132.965 109.512 131.753 111.881C131.751 111.885 131.326 112.666 131.541 112.527C132.317 112.024 133.025 111.386 133.754 110.821C135.519 109.452 137.429 107.78 139.443 106.773C140.668 106.16 137.71 108.897 136.898 110C136.607 110.396 134.607 113.132 136.179 112.232C137.555 111.443 138.852 110.449 140.365 109.926C141.304 109.602 139.444 111.026 139.277 111.171C139.151 111.28 137.625 112.71 138.299 112.305C139.6 111.525 140.876 110.609 142.08 109.687C144.855 107.561 146.315 105.022 147.317 101.72C147.614 100.741 147.594 99.5048 147.64 98.4841C147.691 97.3233 147.763 96.0435 147.446 94.9159C146.92 93.0425 146.073 91.4127 145.325 89.6419C144.704 88.1706 143.477 86.5192 142.172 85.6219C140.287 84.3256 137.907 83.7514 135.773 82.9572C133.858 82.2444 131.644 81.7905 129.596 81.6387C127.952 81.517 132.894 81.3894 134.538 81.5096C137.945 81.759 142.259 82.5951 144.671 85.3084C148.445 89.5547 147.971 96.3596 145.749 101.121C145.473 101.713 145.28 102.373 144.744 102.79C144.154 103.249 144.018 101.698 143.961 101.444C143.008 97.2462 142.067 93.0585 140.927 88.9043C140.339 86.7593 139.735 84.6087 139.037 82.4962C138.733 81.5771 138.413 80.3911 137.765 79.6287C137.527 79.3492 138.137 80.2612 138.336 80.5692C139.711 82.692 140.887 84.9298 141.905 87.2446C143.482 90.8328 144.79 94.5931 145.657 98.4196C145.953 99.7255 142.156 97.0318 141.849 96.7968C140.815 96.0052 139.856 95.1242 139 94.1414C138.702 93.7993 137.81 93.0247 138.263 92.9981C138.828 92.9648 139.63 94.0335 139.978 94.3811C140.131 94.5348 140.608 94.9779 140.439 94.8421C139.5 94.0915 138.691 93.1416 137.875 92.2697C136.517 90.8188 135.144 89.3833 133.782 87.9362C133.267 87.3898 133.094 87.1941 132.601 86.6822C132.365 86.4361 131.561 85.8977 131.901 85.9354C132.36 85.9864 133.285 87.1682 133.56 87.4291C135.171 88.9539 136.774 90.4834 138.281 92.1129C138.97 92.8575 139.636 93.6232 140.309 94.3811C140.481 94.5743 141.013 95.3592 140.531 94.6577C138.898 92.2805 137.298 89.9216 135.828 87.4383C134.915 85.8951 136.653 86.9651 137.47 87.3553C139.303 88.2313 141.011 89.2828 142.698 90.4072C145.432 92.2303 137.022 87.0831 134.298 85.2439C132.524 84.0459 130.783 82.7928 129.098 81.4728C129.026 81.417 127.252 79.9793 128.415 80.6245C132.461 82.8679 143.212 91.7328 139.609 88.8305C138.814 88.1903 137.775 87.3568 137.23 86.4886C137.058 86.2147 137.162 86.1819 137.396 86.3595C138.122 86.9116 138.856 87.4634 139.572 88.0284C140.094 88.4406 140.557 88.901 140.983 89.4114C141.315 89.8106 141.247 89.7919 140.973 89.3653C140.333 88.3674 139.448 87.4177 139.129 86.2489C138.782 84.9771 140.596 88.449 141.176 89.6327C141.769 90.8427 142.312 92.0798 142.716 93.3669C142.883 93.8993 143.481 95.3223 142.946 95.8379C142.356 96.4077 141.052 96.4341 140.309 96.5387C139.01 96.7215 137.677 96.8069 136.428 97.2394C134.944 97.7528 135.389 99.3889 135.699 100.596C135.791 100.953 136.893 103.749 136.354 103.943C135.383 104.292 133.791 103.833 132.86 103.666C130.429 103.229 128.027 102.649 125.594 102.218C125.102 102.131 123.957 101.719 123.436 101.923C123.397 101.939 124.776 103.586 124.838 103.666C125.544 104.571 126.18 105.527 126.793 106.497C127.117 107.009 127.726 107.708 127.862 108.322C127.947 108.702 127.09 108.174 126.737 108.009C125.339 107.352 123.973 106.629 122.57 105.98C121.698 105.577 120.814 105.156 119.914 104.818C119.27 104.577 119.861 104.986 120.034 105.16C121.207 106.333 122.238 107.876 123.049 109.318C123.777 110.611 122.877 110.046 122.044 109.576C121.277 109.143 120.507 108.717 119.73 108.304C119.453 108.157 118.577 107.88 118.891 107.88C119.42 107.88 120.453 109.453 120.763 109.816C121.952 111.208 120.664 110.537 119.721 109.991C118.823 109.471 117.929 108.943 117.001 108.479C116.687 108.322 115.846 107.871 115.986 108.193C116.13 108.521 116.712 108.919 116.945 109.226C117.617 110.108 118.21 111.096 118.845 112.01C119.801 113.387 120.973 115.441 122.514 116.242C126.151 118.133 130.439 117.2 133.634 114.896C137.054 112.431 138.351 108.318 141.176 105.372C141.514 105.019 141.829 104.663 142.135 104.284C142.195 104.209 142.421 104.044 142.393 104.044C141.908 104.044 141.285 104.084 140.844 103.841C140.228 103.502 140.601 102.171 140.678 101.684C140.788 100.986 140.924 100.298 141.176 99.6367C141.224 99.5116 141.788 98.549 141.416 98.8068C139.169 100.362 136.888 101.839 134.482 103.14C134.015 103.393 133.49 103.613 133.062 103.933C132.488 104.364 134.206 103.065 134.787 102.642C135.188 102.35 137.054 101.082 137.018 101.084C134.183 101.294 131.256 103.985 129.245 105.759C128.574 106.351 127.936 106.983 127.309 107.621C127.136 107.798 126.941 108.173 126.7 108.267C126.223 108.453 125.56 108.359 125.068 108.359C123.289 108.359 121.493 108.351 119.748 107.953C118.751 107.726 117.77 107.361 116.927 106.773C116.908 106.76 116.213 106.104 116.484 106.414C117.17 107.198 117.764 108.188 118.236 109.115C118.693 110.012 118.255 109.731 117.96 108.811C116.687 104.84 115.56 99.8876 116.65 95.7273C117.269 93.366 119.193 92.4087 121.325 91.698C123.211 91.0693 120.7 90.165 119.748 90.1121C119.138 90.0782 117.747 89.8442 117.185 90.1398C116.96 90.2582 117.111 91.3576 117.111 91.5966C117.111 91.9981 117.031 92.5699 116.577 92.7215C115.774 92.9889 115.398 92.2016 115.129 91.5966C114.41 89.9792 114.243 88.2025 114.29 86.4517C114.314 85.5649 115.048 84.3948 115.452 83.6303C116.171 82.2678 118.948 81.9413 120.265 81.6387C122.002 81.2397 124.174 81.2657 125.741 82.1366" stroke="#FFD424" stroke-width="2" stroke-linecap="round"/>
<path d="M139.664 93.7074C139.887 93.3414 140.403 95.3669 140.437 95.5763C140.559 96.3109 140.604 97.0219 140.302 97.7223C140.014 98.3915 140.038 99.1983 139.77 99.8728C139.458 100.658 139.1 101.428 138.765 102.204C137.933 104.135 136.537 105.68 135.05 107.16C134.493 107.715 133.636 108.145 133.179 108.778C132.949 109.097 133.196 108.75 133.296 108.686C134.06 108.198 134.932 107.84 135.711 107.357C137.824 106.05 139.461 103.952 140.857 101.931C141.994 100.284 141.626 98.7254 141.871 96.8302C142.01 95.7527 139.719 93.1154 139.992 94.167C140.749 97.0831 140.953 99.4171 139.745 102.22C139.468 102.863 139.271 103.591 138.75 104.072C138.19 104.589 138.741 103.627 138.842 103.399C139.163 102.681 139.62 102.054 139.934 101.325C140.422 100.192 140.929 98.8352 140.858 97.578C140.819 96.8967 141.072 96.1163 140.845 95.4449C140.82 95.3713 141.495 97.2769 141.607 97.9008C141.809 99.0319 141.779 100.251 141.318 101.319C140.639 102.895 138.435 107.55 139.115 105.973C139.662 104.703 140.473 103.544 141.169 102.351C141.913 101.077 142.427 99.6626 143.01 98.3084C143.304 97.6276 143.378 97.0362 143.19 96.3132C142.959 95.4203 142.517 97.5955 142.453 97.8708C142.029 99.7063 141.452 101.293 140.779 103.028C140.316 104.223 141.415 102.389 141.557 102.113C142.043 101.169 142.564 100.26 142.985 99.2843" stroke="white" stroke-width="2" stroke-linecap="round"/>
<path d="M95.0144 71.0205C100.331 55.7081 115.839 58.2601 122.928 61.4502C159.615 54.5383 156.158 75.4727 163.961 79.0196C181.279 86.8916 179.417 112.385 166.76 114.881C147.885 118.602 156.469 130.403 133.873 140.77C111.276 151.138 96.1372 130.054 99.0615 113.306C101.986 96.5582 88.3687 90.1609 95.0144 71.0205Z" stroke="#171717" stroke-width="1.5"/>
<circle cx="129.925" cy="97.3942" r="21.3942" stroke="#171717" stroke-width="1.5"/>
<circle cx="129.925" cy="97.3942" r="21.3942" stroke="#171717" stroke-width="1.5"/>
<path d="M123.726 61.5267C120.969 61.5267 118.472 61.2764 115.913 60.1856C113.922 59.3369 111.014 58.5112 108.857 59.3498C107.813 59.7559 106.974 60.3795 105.883 60.6909C104.811 60.9973 103.957 61.4631 103.085 62.1487C102.031 62.9766 101.257 64.2571 100.286 65.2003C99.5046 65.959 98.7425 66.7004 98.0116 67.4744C96.6437 68.9227 95.1111 70.359 94.5518 72.3724C93.8169 75.0182 93.2884 77.9293 93.2884 80.672C93.2884 82.2098 93.0639 83.9388 93.3273 85.4534C93.6276 87.1801 94.0808 88.8133 94.6004 90.4876C95.9134 94.7182 97.537 98.8296 98.5364 103.16" stroke="#171717" stroke-width="1.5" stroke-linecap="round"/>
<path d="M98.539 103.51C98.539 105.347 98.539 107.183 98.539 109.02C98.539 111.116 98.3306 113.338 98.6751 115.405C98.8796 116.632 99.3466 117.756 99.6858 118.943C100.041 120.186 100.14 121.565 100.376 122.84C100.617 124.141 101.189 125.307 101.513 126.601C101.845 127.929 101.826 129.426 102.31 130.702C103.254 133.191 105.125 135.124 106.8 137.097C107.867 138.354 109.395 140.135 110.862 140.935C112.069 141.594 113.206 142.075 114.594 142.383C115.3 142.54 116.001 143.044 116.732 143.044C117.781 143.044 118.831 143.044 119.881 143.044" stroke="#171717" stroke-width="1.5" stroke-linecap="round"/>
<path d="M120.227 143.045C121.814 143.045 123.401 143.045 124.989 143.045C126.809 143.045 128.4 142.303 130.11 141.733C132.943 140.789 135.914 140.796 138.682 139.546C140.781 138.598 143.362 137.541 145.028 135.911C146.698 134.278 147.985 132.143 149.44 130.314C150.004 129.605 150.683 128.96 151.189 128.214C151.677 127.496 151.897 126.65 152.414 125.911C153.532 124.314 154.962 122.951 156.088 121.343C157.503 119.322 158.71 117.593 160.986 116.455" stroke="#171717" stroke-width="1.5" stroke-linecap="round"/>
<path d="M161.164 116.28C163.418 116.28 165.683 116.105 167.948 116.105C169.083 116.105 169.67 114.554 170.26 113.734C171.807 111.586 172.769 108.929 173.72 106.484C174.421 104.681 174.872 102.808 175.431 100.973C176.888 96.1858 176.047 91.787 172.884 87.9022C172.283 87.1629 171.172 86.2737 170.785 85.4045C170.486 84.7317 170.023 84.1365 169.736 83.4511C169.057 81.8295 168.588 80.3965 167.462 79.0195" stroke="#171717" stroke-width="1.5" stroke-linecap="round"/>
<path d="M168.161 80.0694C167.622 80.0694 167.45 79.4651 167.033 79.2336C166.327 78.841 165.71 78.2219 165.012 77.8341C163.54 77.0162 161.728 76.5648 160.503 75.3851C158.689 73.6384 156.453 72.1764 155.391 69.7873C154.293 67.3184 151.935 65.1608 149.754 63.6258C148.937 63.0507 147.88 62.7585 146.955 62.4013C145.739 61.9315 144.38 61.4147 143.107 61.1379C142.366 60.9768 141.696 60.603 140.969 60.3993C140.425 60.2471 139.851 60.2891 139.297 60.1661C138.113 59.9029 136.661 60.1272 135.448 60.1272C133.983 60.1272 132.516 60.5479 131.075 60.788C129.636 61.0279 128.172 61.0329 126.741 61.3128C125.81 61.495 124.947 61.5244 124.078 61.9154C123.232 62.2961 122.438 62.3621 121.629 61.8765" stroke="#171717" stroke-width="1.5" stroke-linecap="round"/>
<path d="M127.196 77.9434C124.382 77.9434 121.673 77.7925 118.953 78.626C116.739 79.3046 113.814 80.9685 112.518 82.9622C108.66 88.8974 108.881 96.0973 108.991 102.924C109.04 105.967 111.127 109.372 113.037 111.621C115.066 114.012 117.823 116.146 120.698 117.411C123.159 118.494 126.098 119.982 128.839 120.041C131.829 120.104 133.89 119.41 136.639 118.334C138.562 117.582 140.517 115.568 141.961 114.124C142.874 113.212 143.763 111.999 144.49 110.939C145.357 109.672 146.474 108.436 147.17 107.07C148.265 104.92 149.372 102.657 149.774 100.244C150.324 96.9463 150.423 92.3575 149.256 89.2199C147.025 83.2241 140.472 81.411 134.755 80.1683C132.681 79.7174 130.64 79.088 128.561 78.626C126.84 78.2437 125.001 78.2738 123.327 77.7158" stroke="#171717" stroke-width="1.5" stroke-linecap="round"/>
</g>
<defs>
<filter id="filter0_dd_2997_21094" x="77.1992" y="46.9995" width="115.441" height="116.492" filterUnits="userSpaceOnUse" color-interpolation-filters="sRGB">
<feFlood flood-opacity="0" result="BackgroundImageFix"/>
<feColorMatrix in="SourceAlpha" type="matrix" values="0 0 0 0 0 0 0 0 0 0 0 0 0 0 0 0 0 0 127 0" result="hardAlpha"/>
<feOffset dy="2"/>
<feGaussianBlur stdDeviation="1"/>
<feComposite in2="hardAlpha" operator="out"/>
<feColorMatrix type="matrix" values="0 0 0 0 0 0 0 0 0 0 0 0 0 0 0 0 0 0 0.02 0"/>
<feBlend mode="normal" in2="BackgroundImageFix" result="effect1_dropShadow_2997_21094"/>
<feColorMatrix in="SourceAlpha" type="matrix" values="0 0 0 0 0 0 0 0 0 0 0 0 0 0 0 0 0 0 127 0" result="hardAlpha"/>
<feOffset dy="4"/>
<feGaussianBlur stdDeviation="4"/>
<feComposite in2="hardAlpha" operator="out"/>
<feColorMatrix type="matrix" values="0 0 0 0 0 0 0 0 0 0 0 0 0 0 0 0 0 0 0.06 0"/>
<feBlend mode="normal" in2="effect1_dropShadow_2997_21094" result="effect2_dropShadow_2997_21094"/>
<feBlend mode="normal" in="SourceGraphic" in2="effect2_dropShadow_2997_21094" result="shape"/>
</filter>
</defs>
</svg>
