<svg xmlns="http://www.w3.org/2000/svg" width="411" height="269" fill="none"><path fill="#fff" d="M134.269 268.062C60.495 268.062.479 208.045.479 134.27S60.495.479 134.269.479c49.487 0 94.462 27.194 117.701 70.242l118.242-36.372a31.593 31.593 0 0 1 9.278-1.403 31.454 31.454 0 0 1 15.212 3.955c7.538 4.175 12.929 11.07 15.16 19.403 2.231 8.332 1.014 16.986-3.431 24.372-4.445 7.386-11.527 12.524-19.927 14.45l-118.985 27.262c.355 3.972.541 7.944.541 11.899 0 73.775-60.016 133.792-133.791 133.792v-.017Z"/><path stroke="#C6C6C8" stroke-linecap="round" stroke-width="4" d="M36.196 106.155c.472 4.722 1.557 9.469 2.397 14.151.301 1.677.647 6.307 1.121 2.513.857-6.855 4.81-14.538 7.463-20.84 1.213-2.882-.628-6.66.541-9.666 1.38-3.55-1.302 4.555-1.547 5.142-4.061 9.748-5.61 20.516-9.627 30.159-1.612 3.869.563-8.438 1.779-12.45 2.238-7.389 5.759-14.912 10.246-21.227.552-.778.85-2.053.85-.541v8.428c0 3.024-.663 9.097.155 2.475.977-7.917 4.61-15.656 7.5-23.044 1.712-4.372 1.38.101 1.006 2.397-.747 4.59-2.223 18.185-3.054 13.61-1.184-6.51 2.722-14.647 5.528-20.26.722-1.444 4.558-8.425 3.055-2.745-1.085 4.097-3.75 8.532-3.75 12.798 0 1.862-.02-3.77.463-5.568 1.18-4.38 3.914-8.568 5.955-12.605 1.183-2.339 4.87-10.42 3.866-2.938-.72 5.363-3.133 10.406-5.103 15.388-.427 1.08-2.287 8.594-3.635 8.893-.32.071 1.295-4.592 1.353-4.717 2.192-4.712 5.123-9.177 7.578-13.764 2.194-4.1 4.965-7.853 7.54-11.716.05-.074 1.906-2.716 2.126-2.165.653 1.631-1.56 5.514-2.01 6.844-.726 2.144-1.039 4.506-2.436 6.302-1.097 1.41-2.474 6.543-2.474 4.756 0-7.427 7.002-14.58 11.986-19.565 1.016-1.016 2.32-5.071 2.32-3.634 0 2.818-2.844 7.576-3.867 10.285-.666 1.762-1.696 3.89-.657.773 1.647-4.941 6.871-10.421 11.019-13.416 2.206-1.594 2.455-2.268.773.734-2.201 3.931-7.202 16.517-5.529 12.334 2.642-6.603 7.083-10.562 11.947-15.427 4.839-4.839-.614 2.93-1.817 5.336-1.7 3.4.463-.149 1.663-1.315 2.921-2.84 6.197-6.09 9.589-8.351 2.827-1.886-.721 2.326-1.083 2.938-1.473 2.492-3.634 7.888-3.634 7.888s3.231-3.877 5.258-5.336c3.727-2.684 7.071-5.519 11.019-7.888.623-.374-.958 1.107-1.314 1.74-.754 1.34-1.241 2.69-2.398 3.75-1.865 1.71-1.096 1.845.774.349 3.565-2.852 8.119-6.82 12.256-8.7 3.947-1.794 1.027.868.155 2.475-.309.569-2.921 5.087-1.933 4.717 2.821-1.058 4.97-4.121 8.042-5.259 5.278-1.955-.602 3.423-1.276 6.457-.43 1.936 1.286-.569 2.474-1.392 2.367-1.638 4.851-3.243 7.656-3.866 1.785-.397-2.572 3.422-2.436 5.606.032.513 5.213-2.297 6.109-2.629 1.361-.504 2.896-1.387 4.33-1.546 2.146-.239.947.445-.348 1.74-.524.524-3.045 3.869-.657 2.783 2.08-.945 4.421-1.319 6.573-2.087 1.098-.392 3.874-1.701 3.441-.62-.163.408-5.007 6.468-.657 4.293 3.004-1.502 5.899-1.58 9.047-2.63"/><path fill="#fff" stroke="#171717" stroke-width="2.5" d="M373.297 48.363c9.038-2.78 18.577 2.498 21.025 11.63 2.447 9.134-3.176 18.474-12.392 20.586l-132.158 30.28-2.535-8.973-2.535-6.76-2.535-6.434 131.13-40.33Z"/><circle cx="8.655" cy="8.655" r="8.655" stroke="#171717" stroke-width="2.5" transform="rotate(75 155.346 275.894)"/><ellipse cx="133.002" cy="134.148" stroke="#171717" stroke-width="2.5" rx="119" ry="119.001"/><ellipse cx="133.001" cy="134.148" stroke="#171717" stroke-width="2.5" rx="97.364" ry="97.365"/><path stroke="#171717" stroke-linecap="round" stroke-width="1.5" d="M243.617 89.092c4.581 0 8.745-.48 13.186-1.49 1.279-.29 2.368-1.163 3.582-1.648 1.076-.431 2.045-.722 3.059-1.268 1.216-.656 2.683-.946 3.978-1.316 6.055-1.73 12.083-4.563 18.003-6.83 11.632-4.455 23.674-7.942 35.438-11.982 5.247-1.802 10.813-2.81 16.165-4.28 5.109-1.402 10.138-2.993 15.278-4.278 6.826-1.707 13.807-4.054 20.825-4.834 5.449-.606 11.895-1.193 16.656 1.981 4.354 2.903 3.598 9.022 3.598 13.598 0 3.667-.731 7.474-3.645 9.858-.728.595-2.519.425-3.423.57-1.359.22-2.918.753-4.216 1.22-1.877.677-3.615 1.76-5.595 2.156-3.547.71-7.11 2.306-10.571 3.344-4.153 1.246-8.53 2.126-12.504 3.915-2.613 1.176-6.015 1.957-8.828 2.488-3.185.601-6.307 1.617-9.54 2.155-3.688.615-7.44 1.298-11.142 1.776-3.472.448-6.754 1.514-10.19 2.06-3.402.54-6.85 2.047-10.191 2.932-3.239.857-6.208 1.991-9.572 2.425-4.245.547-8.411 1.557-12.695 1.933-4.71.414-9.297 1.255-13.978 1.775-3.867.43-8.022 1.768-11.76 2.853-1.591.462-3.722 1.712-5.357 1.712M38.078 113.456c0-2.306-.079-4.581.26-6.861.203-1.376 1.049-2.74 1.812-3.884.837-1.257 1.337-2.667 2.129-3.956 1.216-1.982 2.318-4.05 3.567-6.013 1.145-1.8 2.78-3.536 3.625-5.495.776-1.797 2.17-3.621 3.38-5.135 2.828-3.535 5.295-7.386 8.272-10.803a111.25 111.25 0 0 1 8.17-8.473c3.085-2.872 6.59-5.127 9.955-7.639 4.825-3.601 9.793-6.864 14.96-9.896 2.962-1.74 6.556-2.459 9.897-3.194 4.122-.907 8.166-1.875 12.371-2.388 7.447-.908 14.883-1.093 22.382-1.093"/><path stroke="#171717" stroke-linecap="round" stroke-width="1.5" d="M136.225 38.278c3.416 0 6.839-.063 10.255 0 2.845.053 5.67.796 8.454 1.278 1.365.236 2.709.75 4.034 1.155 2.059.63 4.013 1.493 6.052 2.14 3.598 1.143 6.716 3.614 10.178 5.097 1.875.804 3.597 1.986 5.305 3.088a123.88 123.88 0 0 0 4.95 3.041 60.632 60.632 0 0 1 8.285 5.79c1.174.975 2.546 1.73 3.618 2.803a185.138 185.138 0 0 1 4.066 4.188c2.484 2.648 6.148 4.025 8.107 7.16.303.486.61.96.693 1.54.018.13.146.685.146.277"/><path stroke="#171717" stroke-linecap="round" stroke-width="1.5" d="M209.672 75.281c.071.64 1.066 1.593 1.417 2.14.778 1.218 1.731 2.326 2.463 3.573 1.128 1.92 2.213 3.858 3.496 5.682 3.006 4.276 5.02 9.543 6.513 14.521.832 2.774 1.118 5.648 1.771 8.454.505 2.169.667 4.393 1.247 6.544.527 1.953.987 3.938 1.525 5.898.167.61.237 1.26.523 1.832.156.311.222.476.031 0"/><path stroke="#171717" stroke-linecap="round" stroke-width="1.5" d="M228.937 121.846c0 1.687-.08 3.399.208 5.066.322 1.868.253 3.83.7 5.682.486 2.012.598 4.139.863 6.19.258 2.005.169 4.046.169 6.067 0 2.354-.663 4.64-1.178 6.93-.562 2.498-1.149 5.048-1.94 7.483-.888 2.732-1.953 5.387-3.01 8.054-.827 2.085-1.777 4.066-2.403 6.228-.212.735-.379 1.501-.616 2.21M148.969 229.8c2.65 0 5.389.333 7.885-.575 1.619-.589 3.333-1.344 5.043-1.724 1.556-.345 3.553-1.477 5.044-2.154 1.213-.552 2.857-.511 4.006-1.15 1.857-1.031 3.974-1.745 5.89-2.729 2.249-1.155 4.43-2.353 6.544-3.735 1.214-.794 2.539-2.14 3.862-2.65 1.759-.676 4.046-2.105 5.395-3.383 1.25-1.185 2.821-1.987 4.166-3.033 1.63-1.268 2.839-2.823 4.294-4.278 1.652-1.652 3.629-3.641 4.9-5.618 1.208-1.879 3.034-3.355 4.293-5.187 2.231-3.245 4.365-6.617 7.055-9.465 2.161-2.289 3.735-4.789 3.735-8.045"/><path stroke="#171717" stroke-linecap="round" stroke-width="1.5" d="M73.695 212.848c1.47.147 3.332 2.373 4.47 3.304 1.166.954 2.557 1.691 3.862 2.378 1.585.834 3.455 1.1 5.028 1.947 1.635.881 3.345 1.843 5.091 2.49 1.502.556 2.933 1.421 4.406 2.091 1.464.666 3.225.917 4.724 1.516 1.875.75 4.334 1.295 6.305 1.788 1.881.47 3.761 1.152 5.618 1.724 3.804 1.17 7.651 1.724 11.62 1.724 3.777 0 7.65.287 11.364.287 3.588 0 7.223-.287 10.758-.287 3.018 0 5.853-2.012 8.922-2.012"/><path stroke="#171717" stroke-linecap="round" stroke-width="1.5" d="M74.556 213.137c-2.082-2.082-4.057-4.139-6.097-6.257-1.505-1.563-2.728-3.396-4.102-5.075-.536-.655-1.188-.776-1.644-1.596-.421-.758-1.46-1.277-2.011-2.012-3.182-4.242-6.67-8.051-8.491-13.152-.664-1.857-1.829-3.654-2.363-5.522-.38-1.331-.946-3.078-1.5-4.31-2.6-5.777-4.638-11.758-6.544-17.812-.997-3.168-1.843-6.306-2.299-9.609-.361-2.623-1.36-5.277-1.436-7.917-.105-3.66-.287-7.391-.287-10.981 0-2.84-.288-5.68-.288-8.539 0-1.275-.268-2.927.288-4.039M14.438 123.316c0-4.598.92-9.414 3.002-13.579 1.827-3.653 3.72-7.812 4.628-11.808.409-1.798 1.348-3.515 2.031-5.223.836-2.09 1.437-4.41 2.611-6.34 1.15-1.89 1.821-4.15 2.815-6.136 1.242-2.484 2.244-5.088 3.713-7.457 1.92-3.093 3.477-6.632 5.876-9.385 2.155-2.476 4.1-5.08 6.397-7.443 1.234-1.268 2.16-2.87 3.395-4.178.816-.864 1.578-1.837 2.364-2.741.503-.578 1.511-1.912 2.205-2.22.917-.407 1.49-1.618 2.075-2.35.855-1.068 1.673-2.312 2.64-3.279 1.814-1.814 3.68-3.49 6.064-4.555"/><path stroke="#171717" stroke-linecap="round" stroke-width="1.5" d="M61.174 38.71c1.981 0 3.792-1.03 5.382-2.09 2.404-1.603 4.958-3.055 7.413-4.555 3.588-2.192 7.248-4.306 11.112-6.006 4.46-1.962 8.826-5.18 13.68-6.15 4.852-.971 9.552-2.495 14.507-3.134 3.606-.466 7.153-1.18 10.779-1.51 2.464-.223 4.904-.451 7.369-.637 2.276-.172 4.582-.04 6.847-.261 6.997-.683 14.706-.632 21.296 2.088 3.412 1.409 6.904 2.578 10.3 4.033 3.55 1.522 7.042 3.343 10.445 5.165"/><path stroke="#171717" stroke-linecap="round" stroke-width="1.5" d="M172.156 20.952c1.481.165 2.532 1.693 3.917 2.09 1.617.461 3.2 1.839 4.7 2.61 4.785 2.46 10.062 4.118 14.681 6.848 10.584 6.254 20.466 14.024 28.463 23.443 2.211 2.605 4.494 5.146 6.455 7.964 2.065 2.968 3.353 6.234 5.237 9.27 2.959 4.767 4.565 10.589 6.325 15.871.417 1.25.889 2.654 1.233 3.859.257.896.959 2.084 1.059 2.988.15 1.35 1.251 2.692 1.553 4.048.161.725.467 1.559.798 2.219"/><path stroke="#171717" stroke-linecap="round" stroke-width="1.5" d="M245.01 97.725c0 4.927 2.631 9.65 4.584 14.115 2.4 5.485 2.803 11.843 3.569 17.684 1.042 7.952.75 16.613-.711 24.502-.346 1.869-.444 4.093-1.233 5.847-.797 1.771-1.668 3.48-2.539 5.222-1.558 3.117-2.566 6.029-3.409 9.401"/><path stroke="#171717" stroke-linecap="round" stroke-width="1.5" d="M118.867 252.753h16.385c4.491 0 8.389-.797 12.785-1.611 6.329-1.172 12.976-1.506 19.148-3.221 3.343-.928 6.477-2.154 9.644-3.579 3.283-1.477 6.712-2.513 9.763-4.474 5.475-3.52 11.585-6.548 16.384-11.095 1.742-1.65 3.958-3.022 5.886-4.454 3.951-2.936 7.964-6.372 11.075-10.201 1.82-2.239 3.637-4.464 5.23-6.9 1.791-2.74 4.241-5.079 5.925-7.834 4.168-6.82 8.393-13.119 11.612-20.361.942-2.119 1.51-4.569 2.148-6.801.583-2.042 2.505-4.035 2.505-6.084M17.939 108.871c0 4.383-1.833 8.104-2.486 12.348-.588 3.823-1.094 7.326-1.094 11.274 0 6.631 2.513 12.774 3.242 19.328.535 4.822 1.655 9.629 2.922 14.316.832 3.078 2.19 6.009 3.222 9.028 1.515 4.434 2.784 8.839 4.573 13.183 2.859 6.943 7.376 11.991 12.447 17.438 1.885 2.024 2.902 4.798 4.752 6.88.797.896 1.431 1.816 2.128 2.784.3.416 1.761.795.716.795"/><path stroke="#171717" stroke-linecap="round" stroke-width="1.5" d="M45.14 214.099c2.494 2.244 4.834 5.151 7.676 6.959 4.26 2.711 8.19 5.927 12.368 8.789 4.764 3.264 9.514 6.334 14.495 9.286 3.874 2.295 7.995 3.803 11.99 5.746 3.222 1.568 6.795 2.483 10.022 4.096 3.343 1.672 7.85 1.496 11.453 2.347 5.302 1.252 10.728 1.927 16.106 2.525 1.592.177 11.94.239 11.811-.02M372.41 56.242c-.402 0-.816-.03-1.216.01-.865.086-1.656.603-2.362 1.068-.586.386-1.141.883-1.638 1.38-.319.318-.717.616-.819 1.077-.509 2.29-.259 4.747-.259 7.09 0 1.103.214 2.086.561 3.127.332.998 1.243 1.605 2.15 2.074 1.471.76 2.837 1.598 4.484 1.978 1.655.382 3.086.164 4.531-.69 1.698-1.003 2.935-2.237 3.899-3.942.584-1.032.886-2.28 1.145-3.43.286-1.27.439-2.887-.043-4.128-.432-1.11-1.15-2.179-1.983-3.027-.857-.873-2.004-1.94-3.19-2.328-.631-.207-1.251-.45-1.897-.604-.667-.16-1.389-.086-2.07-.086-.516 0-1.13-.094-1.638.019-.276.061-.579.153-.862.153"/><g filter="url(#a)"><path fill="#fff" stroke="#fff" stroke-width="8" d="M130.338 172.283c23.688-1.656 41.283-22.793 39.594-46.949-.836-11.961-6.427-25.18-14.573-35.242-8.087-9.989-19.399-17.675-31.943-16.798-12.544.877-22.675 10.063-29.293 21.08-6.667 11.098-10.364 24.966-9.527 36.927 1.69 24.156 22.054 42.639 45.742 40.982Z"/><path stroke="#FFD424" stroke-linecap="round" stroke-width="3" d="M89.837 137.365c2.609 2.068 5.518 3.786 8.222 5.726 3.982 2.857 7.828 5.93 11.421 9.264.597.554 1.218 1.075 1.824 1.618.046.043.477.633.547.628.482-.033-.569-.783-.89-1.144-1.679-1.888-3.446-3.695-5.108-5.601-3.649-4.187-6.908-8.583-9.39-13.564-1.126-2.259-2.093-4.587-3.198-6.851-.564-1.157.676.746.896.972 7.654 7.875 16.888 13.952 25.529 20.645 3.68 2.849 7.113 5.931 10.418 9.199.04.039.865.935.362.407-1.53-1.607-3.044-3.228-4.56-4.848-7.643-8.162-15.462-16.155-22.766-24.627-2.775-3.218-5.677-6.462-7.846-10.135-.086-.145-.208-.269-.282-.421-.383-.793 1.174 1.316 1.817 1.916 10.515 9.81 22.595 17.748 34.734 25.365 3.991 2.504 7.943 5.085 11.991 7.496.116.069.419.295.363.173-.17-.374-1.382-1.1-1.591-1.257-3.368-2.542-6.582-5.274-9.761-8.048-9.451-8.246-18.588-16.938-27.102-26.151-2.617-2.831-9.107-3.429-11.175-6.7-.04-.065-.205-.219-.172-.15.085.179.42.537.492.613 1.454 1.524 6.891.663 8.49 2.028 7.465 6.376 15.53 12.049 23.607 17.611 7.018 4.832 14.109 9.56 21.302 14.126 1.428.906 2.857 1.81 4.253 2.763 1.778 1.214-.387-.183-.844-.49-9.524-6.404-18.559-13.392-26.403-21.807a132.345 132.345 0 0 1-10.767-13.162c-.155-.216-1.417-1.89-1.129-1.604 1.088 1.081 2.29 2.066 3.471 3.042 5.707 4.717 11.663 9.172 17.757 13.375 7.784 5.369 15.957 10.204 24.092 15.021.173.102 1.574 1.096 1.879.876.157-.112-.18-.35-.321-.481-1.157-1.07-2.491-1.997-3.743-2.943-11.358-8.58-22.407-17.406-32.22-27.773-4.193-4.428-8.432-9.211-11.605-14.453-.141-.234-1.364-2.125-1.058-1.744 1.191 1.482 2.703 2.802 4.101 4.069 5.546 5.026 11.493 9.617 17.607 13.926a260.687 260.687 0 0 0 21.696 13.712c.644.365 2.383 1.607 1.995.977-.642-1.042-1.759-2.076-2.588-2.889-6.593-6.468-13.674-12.469-20.721-18.433-6.252-5.291-12.502-10.545-18.037-16.596-.661-.724-1.368-1.41-1.894-2.244-.035-.057-.418-.556-.241-.487 1.373.532 2.776 1.498 4.042 2.193 6.324 3.472 12.612 7.01 18.941 10.475a736.641 736.641 0 0 0 21.024 11.059c.414.209 1.446 1.004 1.265.577-.481-1.132-2.338-2.367-3.189-3.134-6.443-5.8-13.274-11.163-19.301-17.417a57.379 57.379 0 0 1-4.58-5.386c-.723-.965-1.512-1.931-1.995-3.047-.017-.038-.246-.547-.164-.42.746 1.166 2.348 2.086 3.413 2.858 6.96 5.044 14.212 9.627 21.84 13.584 1.841.955 3.674 1.915 5.488 2.92.457.253 1.031.401 1.461.69 1.343.901-2.606-1.921-3.852-2.953-4.047-3.356-7.921-6.847-11.529-10.679-1.798-1.91-3.548-3.755-5.639-5.348-.367-.279-.936-.802-1.404-.9-.751-.16-1.658-.178-2.433-.29-2.183-.314-4.363-.406-6.564-.423-1.142-.008-2.398.196-3.466-.135-.666-.207-1.211-.544-1.792-.92-.098-.063 2.439-.33 2.893-.328 2.449.018 4.825.761 7.287.59.552-.04-.485-.434-.755-.632-1.075-.787-2.324-1.52-3.593-1.945-.385-.13-4.773-.817-4.745-.415.02.283.449.606.612.767a163.09 163.09 0 0 0 5.972 5.604c9.044 8.079 18.094 16.157 27.064 24.317 2.54 2.31 5.147 4.592 7.566 7.031.958.966-1.271-.947-1.349-1.012-4.184-3.541-8.394-6.953-12.294-10.814a911.498 911.498 0 0 1-13.578-13.713c-2.111-2.18-4.301-4.216-6.92-5.771-.569-.338-1.46-.744-2.155-.696-.481.034 1.666 3.19 1.683 3.213 3.233 4.4 7.339 8.228 11.244 12.012 4.243 4.112 8.652 8.035 13.052 11.977 1.532 1.372 3.067 2.743 4.582 4.134.685.63 1.568 1.25 2.155 1.983.426.531-1.11-.792-1.634-1.227-3.199-2.65-6.313-5.404-9.427-8.152-6.103-5.388-12.171-10.827-18.388-16.086-2.801-2.37-5.783-4.68-8.905-6.622-.288-.18-1.518-1.086-1.921-.955-.357.116.36.661.589.958 1.527 1.977 3.143 3.885 4.727 5.817 4.733 5.772 9.119 11.846 14.029 17.47 1.173 1.343 2.328 2.677 3.427 4.08.635.812.744.887-.193-.058-6.006-6.058-12.037-12.11-17.481-18.687-2.056-2.483-3.969-5.083-6.054-7.542-1.182-1.395-2.42-3.053-3.925-4.127-.378-.27-1.233-.778-1.744-.742-.129.009-.078 1.031-.092 1.131-.306 2.25.462 4.329 1.72 6.19.921 1.36 2.37 3.096 3.414 4.279 3.432 3.892 7.08 7.613 10.794 11.234 6.493 6.331 13.405 12.166 20.29 18.059 4.423 3.785 9.101 7.478 13.097 11.73.297.315 1.261 1.141.86.975-.671-.279-1.534-1.452-1.996-1.904-5.987-5.868-11.796-11.858-17.098-18.363-4.966-6.094-9.292-12.703-14.359-18.707-.827-.98-1.727-1.902-2.508-2.92-.327-.427-.615-1.039-1.076-1.348-.226-.152.325.441.521.63 2.095 2.012 4.176 4.04 6.291 6.032 7.173 6.754 14.351 13.742 22.239 19.677 1.064.8 1.717 1.959 2.385 3.091.035.058.723 1.265.469 1.173-1.713-.617-3.563-2.33-5.019-3.303-6.925-4.626-13.789-9.336-20.559-14.187-7.313-5.24-14.359-10.782-21.504-16.237-.561-.428-2.568-2.324-3.496-1.987-.169.06.239.427.304.491.81.805 1.438 1.817 2.194 2.673 3.455 3.914 7.312 7.5 11.116 11.068 6.278 5.888 12.785 11.527 18.747 17.743 1.107 1.154 2.24 2.29 3.21 3.565.214.28.643.683.748 1.037.105.354-1.38-1.073-1.476-1.148-9.338-7.34-19.191-14.036-28.35-21.599-4.51-3.725-8.723-8.151-13.907-10.963-.317-.171.137.736.359 1.02 5.899 7.533 12.956 14.008 19.654 20.802 5.147 5.221 10.372 10.609 13.93 17.081 1.271 2.312 2.133 4.789 3.289 7.133.604 1.225-1.547-1.085-1.696-1.214-8.904-7.673-18.258-14.807-27.186-22.454-4.042-3.462-7.964-7.142-11.345-11.268-.783-.954-1.48-2.12-2.42-2.936-.121-.105.207.248.305.375 1.357 1.756 2.659 3.552 4.043 5.289 7.355 9.232 15.355 17.862 23.551 26.345 3.699 3.828 7.69 7.592 10.986 11.787.352.449.623.94.953 1.401.355.496-.907-.815-1.355-1.228-7.694-7.113-15.186-14.337-22.524-21.818-3.666-3.737-11.017-5.408-14.828-9.001-.398-.375-1.545-1.405-1.384-.236.447 3.259 5.994 4.319 7.308 7.267 3.062 6.87 6.663 13.482 10.33 20.043 3.172 5.675 6.37 11.415 10.048 16.785.135.196 1.521 1.858.626 1.486-2.65-1.101-4.974-3.109-7.207-4.86-4.856-3.808-9.508-7.886-14.165-11.934-1.462-1.272-2.884-2.746-4.579-3.712-.967-.551 1.008 2.951 1.038 3.005 5.361 9.669 13.344 17.502 19.827 26.372 1.559 2.132-2.409-.328-2.875-.573-4.3-2.265-8.302-4.853-12.442-7.375-2.046-1.247-4.131-2.461-5.952-4.03-.7-.603-1.339-1.263-2.013-1.893-.234-.218-.93-.393-.72-.634.155-.178 3.755 2.074 3.914 2.165a154.444 154.444 0 0 1 14.4 9.38c1.078.792 4.093 3.447 3.07 2.585-4.024-3.391-7.818-7.047-11.737-10.556-2.416-2.163-4.858-4.332-7.451-6.284-.776-.584-1.524-1.364-2.411-1.784-.932-.442.444.153.71.247 5.879 2.078 11.687 4.41 17.232 7.274 5.79 2.989 11.487 6.188 17.244 9.244.909.482 1.785 1.101 2.749 1.472.068.027.294.16.259.108-.177-.265-.479-.436-.727-.624-1.509-1.145-2.89-2.453-4.376-3.627-6.553-5.178-13.651-9.683-20.571-14.349-5.66-3.816-11.258-7.488-15.9-12.569-2.107-2.305-3.844-4.866-5.717-7.35-.447-.592-.093.142.198.392 3.875 3.316 8.55 5.922 12.877 8.586 5.226 3.217 10.424 6.427 15.563 9.784a229.531 229.531 0 0 0 10.254 6.349c2.828 1.643 6.163 2.847 9.322 3.695.74.199-.547-.861-.604-.921-6.439-6.644-13.159-13.07-20.266-18.996-5.891-4.912-12.028-9.568-18.081-14.28-1.765-1.373-3.51-2.76-5.142-4.284-.647-.604.59.354.696.437 1.487 1.161 3.102 2.155 4.605 3.296 4.33 3.286 8.409 6.891 12.637 10.304 11.389 9.194 23.557 17.442 35.525 25.859.583.41 1.135.933 1.779 1.244.353.17.733.169 1.091.41.45.302.945.539 1.39.838 2.011 1.35-3.292-3.556-5.062-5.208-8.306-7.754-17.543-14.369-26.595-21.209-3.214-2.428-6.416-4.872-9.636-7.292-1.306-.981-2.661-1.907-3.882-2.995-.418-.373-1.839-1.64-.304-.744 7.793 4.547 15.77 8.635 23.742 12.849 4.633 2.449 8.811 5.464 13.134 8.397 3.001 2.036 6.084 3.783 9.236 5.555 2.013 1.132-1.332-1.704-1.545-1.89-9.023-7.843-18.434-15.223-27.313-23.238-6.559-5.92-13.113-12.049-18.729-18.896a80.062 80.062 0 0 1-2.234-2.859c-.471-.632.258-.074.474.075 6.697 4.61 13.592 8.968 20.511 13.236 7.964 4.914 15.995 9.814 24.236 14.255a241.76 241.76 0 0 0 9.661 4.94c.483.233 1.51 1.065 2.07 1.026.139-.01.226-.007.079-.15-1.649-1.602-3.992-2.714-5.932-3.869-11.784-7.02-23.664-13.864-34.305-22.587-4.646-3.808-8.668-8.204-13.121-12.205-.546-.49-1.105-.958-1.591-1.51-.356-.403.887.611 1.325.925 9.517 6.829 19.408 13.054 29.58 18.858 7.631 4.354 15.291 8.634 22.633 13.466 1.92 1.264 3.985 2.563 5.647 4.169.217.209.889.808.647.63-1.438-1.062-3.051-1.912-4.581-2.83-4.589-2.755-9.159-5.552-13.554-8.611-.213-.148-2.931-2.013-2.896-1.778.105.712.648 1.384 1.07 1.924 2.101 2.683 4.595 5.122 7.107 7.414 2.416 2.204 5.001 4.213 7.631 6.154 1.216.897 2.453 1.838 3.796 2.543.14.073 1.35.536 1.099.535-.388-.002-.77-.171-1.135-.281-1.622-.487-3.238-.965-4.841-1.515-3.15-1.083-6.326-2.123-9.461-3.245-.05-.018-1.056-.495-.799-.097.586.909 1.618 1.622 2.413 2.324 2.714 2.398 5.39 4.919 7.678 7.735.187.231 2.238 2.861 1.551 2.745-3.079-.519-5.985-2.383-8.611-3.952-2.196-1.314-4.078-3.03-6.211-4.39-7.078-4.515 7.989 6.424 14.828 11.292.155.11 2.917 2.15 1.847 2.211-2.345.136-4.857-1.166-6.871-2.237-3.074-1.635-.128-.252-3.363-1.528-3.69-1.456-7.218-3.207-10.855-4.767-.158-.068-.684-.282-.458.14.67 1.251 2.019 2.402 2.95 3.448 3.168 3.556 6.595 6.846 9.899 10.27.1.104 2.442 2.454 2.285 2.559-.85.567-3.923-1.233-4.542-1.492-2.911-1.22-5.76-2.605-8.727-3.683-1.086-.395-1.36-.412-1.15.8.27 1.56.851 3.118 1.341 4.623.055.17.39.724.271.917-.229.369-2.119.046-2.348.02-3.799-.425-7.275-1.953-10.541-3.871-.545-.32-1.204-.66-1.686-1.079-.999-.869 2.112 1.598 3.181 2.379 3.629 2.647 7.37 5.137 11.003 7.781.123.089 2.156 1.613 2.178 1.414.153-1.385-.179-3.029-.299-4.408-.526-6.063-6.38-9.759-10.782-13.125-5.843-4.467-11.909-8.817-17.129-14.031-1.89-1.888-3.167-3.928-4.485-6.221-.342-.594-5.52-7.97-6.038-7.57-.198.153-.007 1.286-.006 1.458.017 1.583-.031 3.158.053 4.74.109 2.045-.087 4.626.684 6.568.133.334.383.633-.184.462-2.742-.826-5.29-2.933-7.525-4.64-2.22-1.696-3.742-3.313-3.944-6.213-.032-.46-.063-.723.52-.55.95.283 1.83.936 2.722 1.358 1.328.628 2.689 1.193 4.032 1.788.954.424 2.108 1.226 3.11 1.484.084.022-.094-.148-.15-.215-.519-.617-1.064-1.212-1.578-1.834-1.47-1.777-2.866-3.622-4.244-5.472a84.605 84.605 0 0 1-3.196-4.646c-.248-.384 4.066.363 4.443.463 1.97.526 4.12.979 5.979 1.841.043.02.776.408.491.065-.987-1.185-2.07-2.298-3.07-3.475-2.391-2.818-4.73-5.663-6.716-8.783-.451-.709-1.47-1.649-.124-1 .74.357 9.99 3.561 10.171 2.97.16-.521-.476-1.55-.666-1.942-.948-1.952-2.044-3.827-2.979-5.786-.65-1.362-1.265-2.725-1.687-4.176-.037-.127-.455-1.156-.316-1.3.48-.504 6.242 3.842 6.671 4.15 3.602 2.588 7.215 5.159 10.927 7.589.473.31 1.906 1.486 1.446.339-1.787-4.448-4.422-8.557-6.707-12.761-.713-1.311-1.212-3-2.093-4.192-.224-.303 1.289 1.408 1.536 1.63 4.911 4.396 9.62 8.978 14.876 12.973.247.188.557.571.857.678.627.224-.761-1.092-1.166-1.619-2.735-3.558-5.721-7.043-7.646-11.13-.615-1.306-1.084-2.374-1.182-3.78"/><path stroke="#FFD424" stroke-linecap="round" stroke-width="3" d="M117.922 158.771c2.38 1.745 6.451 4.426 9.481 4.716.025.002-1.66-1.141-2.092-1.423-1.954-1.282-3.786-2.746-5.779-3.969-.448-.275-1.616-1.192-2.196-1.152-.466.033 1.563 3.182 1.679 3.339 1.634 2.199 4.169 4.859 6.943 5.475 1.032.228 1.89.124 2.941.199 1.069.078 2.749 1.068 1.147-.732-.685-.772-1.555-1.363-2.296-2.079-.233-.225-1.969-1.827-1.098-1.581 4.218 1.194 8.32 4.428 12.936 3.945 2.305-.241-1.244-8.112-1.676-9.088-.194-.439-1.549-2.261-1.474-2.682.022-.127 4.231 3.112 4.536 3.35 1.054.82 5.064 4.336 4.851 1.283-.188-2.691-.877-5.803-.594-8.493.043-.411 6.713 2.488 7.617 2.765 1.878.575-2.147-4.734-2.31-5.04-.185-.349 1.844.694 2.032.81.918.568 2.117 1.895 2.064.014-.117-4.14-1.262-8.218-2.109-12.248-.759-3.613-1.135-7.164-1.392-10.835"/><path stroke="#FFD424" stroke-linecap="round" stroke-width="3" d="M129.95 140.157c4.109 1.981 7.188 5.951 10.586 8.905.707.615.983.987-.062.374-3.354-1.966-6.436-4.528-9.331-7.106-2.2-1.958-4.347-4.126-6.047-6.542-.621-.882-1.14-1.781-1.905-2.529-3.266-3.195 7.339 5.45 10.848 8.375.291.243 1.728 1.566 2.216 1.432.558-.153-1.903-4.707-2.039-4.953-1.436-2.584-3.288-4.903-4.788-7.442-.145-.246-1.214-2.179-.815-2.076 1.854.477 3.605 2.333 5.205 3.321 1.694 1.047 3.882 2.334 5.898 2.656 3.689.588.312-8.437-.065-10.011"/><path stroke="#FFD424" stroke-linecap="round" stroke-width="3" d="M105.555 137.152c1.503-.036 2.898.487 4.28 1.038 3.474 1.387 6.918 2.945 10.323 4.493 3.938 1.791 8.198 3.802 11.85 6.144 8.246 5.289-16.141-11.182-24.787-15.788-3.207-1.709-6.423-3.627-9.76-5.058-3.808-1.634 7.633 3.225 11.431 4.881 6.511 2.839 13.103 6.102 19.874 8.287.805.26 1.721.403 2.476.804.893.475-1.82-.886-2.697-1.389-4.911-2.819-19.351-11.723-14.287-9.19 4.253 2.128 8.427 4.288 12.839 6.105.963.397 2.042.894 3.092 1.016.359.042-2.17-2.1-2.272-2.185-7.028-5.817-14.233-11.452-20.276-18.328-2.417-2.75-4.138-6.276-6.69-8.849-2.02-2.037 4.895 2.994 7.292 4.569 5.404 3.55 11.073 6.909 16.749 10.009 1.263.69 2.58 1.202 3.896 1.771.743.322.721.071.135-.43-5.118-4.382-10.862-8.082-16.072-12.37-2.705-2.227-5.261-4.754-8.11-6.797-1.506-1.08 2.224 1.133 2.276 1.164 7.868 4.555 15.719 9.212 23.673 13.612 3.599 1.991 7.209 4.392 10.973 6.055.095.042 1.142.648.57.201-1.591-1.242-3.28-2.36-4.921-3.533-5.051-3.61-10.171-7.133-15.126-10.874-2.601-1.964-5.385-4.058-8.239-5.645-.559-.311-.45-.352.155-.147 2.553.867 4.998 2.271 7.436 3.403a422.95 422.95 0 0 0 21.321 9.208c.286.114 5.325 2.082 5.232 2.61-.121.681-9.898-3.825-10.508-4.134-3.055-1.549-6.117-3.093-9.135-4.711-5.939-3.184 22.249 15.179 16.463 11.727-5.083-3.033-9.832-7.018-14.383-10.776-2.901-2.395-6.648-5.279-8.453-8.711-1.241-2.358 6.845.159 7.37.312 6.115 1.783 12.272 3.443 18.644 4.016 4.285.384.297-3.86-1.003-5.31-3.489-3.892-7.414-7.387-10.619-11.535-.3-.388-3.34-4.333-1.737-3.56 4.173 2.012 7.784 5.506 12.21 6.99.361.121 1.039.406.506-.29-1.336-1.745-3.183-3.221-4.75-4.748-1.11-1.08-2.368-2.069-3.439-3.185-.162-.17-1.135-.918-.838-.603 2.175 2.309 5.38 3.865 8.009 5.586.943.617 1.917 1.183 2.861 1.799.383.25.75.624.02.073-3.821-2.885-7.879-5.496-11.388-8.776-.625-.583-1.297-1.152-1.896-1.76-.738-.748 1.705 1.226 2.562 1.834 3.612 2.56 7.223 5.127 10.523 7.995 1.845 1.604-6.58-7.004-5.564-4.78.567 1.241 1.796 2.31 2.681 3.314a488.186 488.186 0 0 0 5.214 5.796c2.255 2.475 4.757 4.997 6.473 7.903.71 1.202 1.08 2.389 1.506 3.696.188.577.593 1.57-.125.791-1.149-1.248-2.392-2.532-3.708-3.603-.207-.169-1.391-1.163-.544-.473 2.306 1.877 4.212 5.191 5.491 7.821 1.201 2.469 2.145 5.108 2.974 7.726.617 1.947-.44.512-1.103-.313-1.243-1.546-2.431-3.208-3.938-4.519-2.387-2.074 3.523 5.27 4.968 8.083.316.614-1.16-.749-1.705-1.173-1.516-1.179-3.078-2.297-4.614-3.449-.878-.659-1.754-1.565-2.771-2.015-.37-.164 1.689 1.762 1.911 1.97 2.595 2.428 5.225 4.783 7.696 7.336 1.228 1.269.972 1.785-.391.418-.852-.855-1.989-1.932-2.585-3.005-.757-1.365 2.111 2.303 3.101 3.51.478.582 1.545 2.207.131 1.013-.869-.734-1.799-1.602-3.024-1.562-2.366.078-.331 4.871.294 5.93.571.967-.763.447-1.335.244a36.355 36.355 0 0 1-3.095-1.271c-.405-.188-1.458-.977-1.185-.624 1.72 2.227 8.719 7.119 6.562 5.312-1.907-1.598-4.337-2.438-6.263-4.04-1.756-1.461-.071-.119.99.411.335.167 2.602 1.907 1.604.579-1.65-2.193-3.49-4.24-5.139-6.433-.119-.158-1.596-1.88-1.204-1.749 2.584.864 5.225 3.333 7.463 4.858.222.151 3.322 2.261 2.011 1.693-1.819-.789-3.908-1.913-5.45-3.165-.272-.221-1.807-1.467-2.229-.927-.491.63.79 3.228 1.022 3.866.301.829 1.301 2.301.072 2.76-2.038.762-4.663-.069-6.58-.832-1.695-.675-.708.189.125.923 1.926 1.696 3.669 3.574 5.542 5.323 1.053.984-3.823-1.212-4.247-1.416-1.898-.918-4.449-1.764-6.025-3.216-1.554-1.43 4.06 1.184 6.027 1.953 1.711.669 6.787 2.814 5.104 2.078-4.114-1.802-8.146-3.821-12.196-5.715-.767-.358.331 1.832.406 2.151.797 3.385-.274 6.145-3.171 8.156-4.103 2.848-9.777 3.254-14.635 3.473-2.511.113-5.234-.177-7.517-1.338-1.829-.931.869.019 1.449.305 1.311.644 2.612 1.787 3.961 2.277 1.044.379-.905-1.399-1.071-1.563-.323-.319-3.171-2.83-2.107-2.632 2.705.503 5.133 1.901 7.657 2.905 2.525 1.006-.72-.347-1.517-.84-1.169-.724-2.197-1.638-3.352-2.381-.084-.053-1.524-1.008-1.091-.99 1.375.056 3.082 1.055 4.318 1.576 1.883.794 3.696 1.743 5.533 2.634.461.223 4.46 2.051 2.097 1.401-11.548-3.178-22.77-8.302-33.875-12.734-4.823-1.924-4.48-2.219-9.35-4.013-.382-.141-.633-.136-.182.178 1.126.784-2.978.026-1.942.926 2.3 1.999 4.358 4.266 6.643 6.253.294.255 2.112 1.565 2.086 1.462-.188-.739-1.179-1.388-1.652-1.929-.714-.814-1.208-1.767-1.867-2.619-1.8-2.33 1.145.054 2.136.662 2.677 1.643 5.423 3.077 8.205 4.521.455.236.673.314.428-.331-.779-2.043-2.054-3.978-3.159-5.85-2.66-4.502-5.401-8.674-7.247-13.589-.204-.543-1.078-2.723-.079-1.768 1.546 1.479 3.414 2.698 5.28 3.734 1.57.87.46-.971.028-1.76a38.373 38.373 0 0 0-2.25-3.6c-.399-.567-1.3-1.331-1.45-2.032-.112-.519 3.575 1.669 3.999 1.959.238.163 2.112 1.131 2.062.908-.348-1.537-2.15-3.433-3.093-4.683-.988-1.311.399-.528 1.18-.112.741.394 2.711 1.255 3.11 1.931"/><path stroke="#FFD424" stroke-linecap="round" stroke-width="3" d="M111.832 150.86c2.903.061 6.066 1.569 8.684 2.716.219.096 2.084.67 1.56.515-1.739-.513-3.394-1.439-5.004-2.248-2.832-1.423-5.596-2.941-8.358-4.487-.083-.047-.637-.356-.451-.018.216.39.668.692.992.967 1.195 1.016 2.348 2.08 3.563 3.074 2.017 1.65 4.033 3.336 6.114 4.906.905.683 1.86 1.26 2.526 2.196 1.202 1.689-4.771-.772-5.06-.92-5.699-2.92-11.108-6.443-16.516-9.862-.323-.205-3.169-2.065-1.613-.737 2.823 2.409 5.426 5.146 8.363 7.41.459.354.99.697 1.424 1.074.483.42-1.024-.775-1.485-1.22-3.151-3.048-5.771-6.686-9.366-9.263-1.302-.933-3.263-2.498-4.949-2.714-.502-.064.63.793.969 1.169.98 1.089 1.96 2.145 3.03 3.148 1.739 1.628 6.976 6.484 5.179 4.922-1.389-1.207-2.952-2.19-4.358-3.368-.094-.079-.756-.588-.36-.15 1.589 1.759 3.614 3.364 5.493 4.787 3.407 2.581 7.183 4.47 10.765 6.755 1.407.897 1.256.567-.008-.3-.942-.645-4.108-1.859-2.979-1.69.995.149 1.916.682 2.856 1.012 1.516.531 3.14.782 4.745.692.728-.04 1.476.05 1.186-.907-.443-1.464-1.476-2.612-2.53-3.67-.612-.615-1.275-1.209-1.806-1.897-.469-.607 1.294.59 1.329.606 3.009 1.451 6.073 2.828 9.261 3.837 1.883.596 4.557 1.714 6.573 1.102 1.967-.598-.297-3.978-.813-4.828-3.626-5.97-7.773-11.597-11.217-17.689-4.615-8.164-7.17-16.551-7.408-25.913-.084-3.308.17-7.991 2.45-10.689 2.711-3.205 6.697-3.874 10.679-4.119 2.984-.184 5.86.272 8.826.457 1.145.072 4.205.62 4.638-1.011.475-1.785-.77-3.757-1.874-5.015-2.223-2.533-5.048-4.598-7.698-6.657a276.532 276.532 0 0 1-4.205-3.328c-1.341-1.084-.487.81-.177 1.399 1.755 3.335 4.478 6.123 6.734 9.122.47.625.646.834-.233.241-2.229-1.504-4.446-2.902-6.241-4.935-.851-.963-3.004-4.165-2.35-3.058.995 1.684 2.552 2.94 3.735 4.473.011.013-6.152-5.763-6.58-4.974-.372.685 4.486 5.253 5.03 5.844.191.208 2.333 3.178 2.195 3.17-1.439-.087-3.469-1.614-4.68-2.272-1.876-1.017-3.693-2.136-5.567-3.158-.166-.09-1.81-1.209-1.205-.44 1.354 1.721 3.108 3.186 4.734 4.64.248.223 5.499 5.268 5.596 5.192.19-.146-.309-.366-.486-.528a29.135 29.135 0 0 1-1.813-1.809c-1.66-1.802-3.252-3.654-4.703-5.63-.819-1.114-1.643-2.223-2.29-3.449-.21-.4-.463-.99-.779-1.32-1.639-1.708 3.115 3.568 4.753 5.276a92.22 92.22 0 0 0 2.31 2.312c.185.18-1.419-.378-1.555-.44-1.228-.572-3.626-1.65-4.42-2.84-.302-.452-2.437-.411-2.945-.493-.834-.134-1.94-.673-1.27.589 1.079 2.033 2.662 4.213 4.352 5.79.606.567-.059-.006-.296-.303-1.015-1.274-2.137-2.435-3.251-3.62-.947-1.007-1.822-1.982-2.895-2.82-.424-.332-1.086-.483-1.446-.849-1.038-1.052 1.593 2.496 2.504 3.66 1.275 1.63 2.499 3.319 3.911 4.835.541.582 1.291 1.814 1.965 2.211 1.652.973-3.2-2.114-4.839-3.109-.352-.214-5.022-2.48-4.921-1.967.174.886 1.205 1.864 1.727 2.553.908 1.196 1.866 2.358 2.701 3.608.571.855 1.493 1.883 1.568 2.95.091 1.303-.419 2.606-.742 3.862-.37 1.435-.421 1.916-1.767.986-2.423-1.675-4.545-3.897-7.143-5.322-.513-.281.339 1.14.664 1.628 1.977 2.964 4.29 5.738 6.504 8.526 1.31 1.649 2.66 3.283 4.038 4.876.254.294.639.894.989 1.093 1.166.665-2.035-1.756-2.987-2.702"/><path stroke="#171717" stroke-width="2.5" d="M165.942 125.613c1.544 22.078-14.522 41.186-35.883 42.68-21.361 1.494-39.929-15.193-41.473-37.271-1.544-22.078 13.748-52.244 35.109-53.737 21.362-1.494 40.703 26.25 42.247 48.328Z"/><path stroke="#171717" stroke-linecap="round" stroke-width="1.5" d="M87.127 125.923c-.133-1.895-.148-3.57.863-5.274.434-.731.689-1.893.948-2.721.302-.965.74-1.894 1.129-2.828a77.068 77.068 0 0 0 2.388-6.518c.62-1.984 1.138-4.077 2.145-5.933 1.975-3.642 3.621-7.511 6.307-10.722 1.228-1.467 2.575-2.757 3.835-4.207.977-1.124 1.93-2.247 3.038-3.246 1.332-1.202 2.908-2.121 4.233-3.33 1.689-1.54 3.516-2.627 5.697-3.337 1.91-.622 4.378-.401 6.388-.541 1.934-.136 3.782-.317 5.703.075 2.135.435 3.509 1.367 5.299 2.568 2.917 1.958 5.862 3.94 8.543 6.186 1.337 1.12 2.844 2.128 4.206 3.203.642.507 1.179 1.122 1.897 1.531.504.288 1.658.815.375.543M150.834 89.94c.081 1.165 1.721 2.634 2.339 3.628.718 1.154 1.619 2.245 2.183 3.492.991 2.192 2.572 4.126 3.711 6.229 1.114 2.057 2.196 4.118 3.003 6.342.442 1.217.927 2.356 1.211 3.612.222.979.369 2.105.728 3.035a23.37 23.37 0 0 1 1.447 6.535c.151 2.15.684 4.354.836 6.525.069.989.361 2.226.214 3.208-.101.674-.645 1.468-.599 2.128"/><path stroke="#171717" stroke-linecap="round" stroke-width="1.5" d="M166.128 132.424c.284 4.063-1.056 7.509-2.631 11.181-1.826 4.256-3.17 8.669-6.915 11.67-1.475 1.181-2.786 2.571-4.291 3.713-.599.454-1.421 1.181-1.911 1.745-.553.636-1.296.981-1.882 1.553-.594.582-1.727.917-2.468 1.311-.749.397-1.563.631-2.345.964-1.553.663-3.091 1.193-4.666 1.801"/><path stroke="#171717" stroke-linecap="round" stroke-width="1.5" d="m139.868 166.303-2.599.182c-.849.059-2.248.149-3.041.497-1.554.68-3.495.466-5.087 1.061-1.128.422-2.697.526-3.897.61-.975.068-1.897.179-2.854.01-1.026-.182-1.958-.562-2.902-.977-.845-.372-1.821-.766-2.633-1.206-1.662-.902-3.672-1.46-5.507-1.933-.877-.225-2.121-.75-2.925-1.164-1.117-.576-2.234-1.019-3.283-1.762-1.792-1.268-3.677-3.18-4.821-5.066-.867-1.431-2.219-2.442-3.201-3.758-.203-.272-1.618-1.593-1.534-1.599"/><path stroke="#171717" stroke-linecap="round" stroke-width="1.5" d="M96.623 152.507c-.634-.688-1.053-1.918-1.56-2.735-.785-1.262-1.818-2.466-2.671-3.7-.818-1.184-1.742-2.463-2.36-3.764-.636-1.342-.984-3.063-1.357-4.508-.626-2.419-.832-4.702-.98-7.231-.134-2.284.144-4.627.095-6.927-.064-3.028.46-6.203 1.25-9.093"/><g filter="url(#b)"><path fill="#fff" stroke="#fff" stroke-width="8" d="M130.338 172.284c23.688-1.656 41.283-22.793 39.594-46.949-.836-11.961-6.427-25.18-14.573-35.242-8.087-9.989-19.399-17.675-31.943-16.798-12.544.877-22.675 10.063-29.293 21.08-6.667 11.098-10.364 24.966-9.527 36.927 1.69 24.156 22.054 42.639 45.742 40.982Z"/><path stroke="#FFD424" stroke-linecap="round" stroke-width="3" d="M89.837 137.366c2.609 2.068 5.518 3.786 8.222 5.726 3.982 2.857 7.828 5.93 11.421 9.264.597.554 1.218 1.075 1.824 1.618.046.042.477.633.547.628.482-.033-.569-.783-.89-1.144-1.679-1.888-3.446-3.695-5.108-5.601-3.649-4.187-6.908-8.583-9.39-13.564-1.126-2.259-2.093-4.587-3.198-6.851-.564-1.157.676.746.896.972 7.654 7.875 16.888 13.952 25.529 20.645 3.68 2.849 7.113 5.931 10.418 9.199.04.039.865.935.362.407-1.53-1.607-3.044-3.228-4.56-4.848-7.643-8.162-15.462-16.155-22.766-24.627-2.775-3.218-5.677-6.462-7.846-10.135-.086-.145-.208-.269-.282-.421-.383-.793 1.174 1.316 1.817 1.916 10.515 9.81 22.595 17.748 34.734 25.365 3.991 2.504 7.943 5.085 11.991 7.496.116.069.419.295.363.173-.17-.374-1.382-1.1-1.591-1.257-3.368-2.542-6.582-5.274-9.761-8.048-9.451-8.246-18.588-16.938-27.102-26.151-2.617-2.831-13.157-2.032-11.245-7.698-.04-.064-.205-.219-.172-.15.085.18.42.538.493.614 1.453 1.523 6.96 1.66 8.559 3.025 7.465 6.376 15.53 12.049 23.607 17.611 7.018 4.832 14.109 9.56 21.302 14.126 1.428.906 2.857 1.81 4.253 2.763 1.778 1.214-.387-.183-.844-.49-9.524-6.404-18.559-13.392-26.403-21.807a132.345 132.345 0 0 1-10.767-13.162c-.155-.216-1.417-1.89-1.129-1.605 1.088 1.082 2.29 2.067 3.471 3.043 5.707 4.717 11.663 9.172 17.757 13.375 7.784 5.369 15.957 10.204 24.092 15.021.173.102 1.574 1.096 1.879.876.157-.112-.18-.35-.321-.481-1.157-1.07-2.491-1.997-3.743-2.943-11.358-8.58-22.407-17.406-32.22-27.773-4.193-4.428-8.432-9.211-11.605-14.453-.141-.234-1.364-2.125-1.058-1.744 1.191 1.482 2.703 2.802 4.101 4.069 5.546 5.026 11.493 9.617 17.607 13.926a260.687 260.687 0 0 0 21.696 13.712c.644.365 2.383 1.607 1.995.977-.642-1.042-1.759-2.076-2.588-2.889-6.593-6.468-13.674-12.469-20.721-18.433-6.252-5.292-12.502-10.545-18.037-16.596-.661-.724-1.368-1.41-1.894-2.244-.035-.057-.418-.556-.241-.487 1.373.532 2.776 1.498 4.042 2.192 6.324 3.473 12.612 7.012 18.941 10.476a736.641 736.641 0 0 0 21.024 11.059c.414.209 1.446 1.004 1.265.577-.481-1.132-2.338-2.367-3.189-3.134-6.443-5.8-13.274-11.163-19.301-17.417a57.367 57.367 0 0 1-4.58-5.386c-.723-.965-1.512-1.931-1.995-3.047-.017-.038-.246-.547-.164-.42.746 1.166 2.348 2.086 3.413 2.858 6.96 5.044 14.212 9.627 21.84 13.584 1.841.955 3.674 1.915 5.488 2.92.457.253 1.031.401 1.461.69 1.343.901-2.606-1.921-3.852-2.953-4.047-3.356-7.921-6.847-11.529-10.679-1.798-1.91-3.548-3.755-5.639-5.348-.367-.279-.936-.802-1.404-.9-.751-.16-1.658-.178-2.433-.29-2.183-.314-4.363-.406-6.564-.423-1.142-.008-2.398.196-3.466-.135-.666-.207-1.211-.544-1.792-.92-.098-.063 2.439-.33 2.893-.328 2.449.017 4.825.761 7.287.59.552-.04-.485-.434-.755-.632-1.075-.787-2.324-1.52-3.593-1.945-.385-.13-4.773-.817-4.745-.415.02.283.449.606.612.767a163.09 163.09 0 0 0 5.972 5.604c9.044 8.079 18.094 16.157 27.064 24.317 2.54 2.31 5.147 4.592 7.566 7.031.958.966-1.271-.947-1.349-1.012-4.184-3.541-8.394-6.953-12.294-10.814a911.498 911.498 0 0 1-13.578-13.713c-2.111-2.18-4.301-4.216-6.92-5.772-.569-.337-1.46-.743-2.155-.695-.481.034 1.666 3.19 1.683 3.213 3.233 4.4 7.339 8.228 11.244 12.012 4.243 4.112 8.652 8.035 13.052 11.977 1.532 1.372 3.067 2.743 4.582 4.134.685.63 1.568 1.25 2.155 1.983.426.531-1.11-.792-1.634-1.227-3.199-2.65-6.313-5.404-9.427-8.152-6.103-5.388-12.171-10.827-18.388-16.086-2.801-2.37-5.783-4.68-8.905-6.623-.288-.178-1.518-1.086-1.921-.954-.357.116.36.661.589.958 1.527 1.977 3.143 3.885 4.727 5.817 4.733 5.771 9.119 11.846 14.029 17.47 1.173 1.343 2.328 2.677 3.427 4.08.635.812.744.887-.193-.058-6.006-6.058-12.037-12.11-17.481-18.687-2.056-2.483-3.969-5.083-6.054-7.542-1.182-1.395-2.42-3.053-3.925-4.127-.378-.27-1.233-.778-1.744-.742-.129.009-.078 1.031-.092 1.131-.306 2.25.462 4.329 1.72 6.19.921 1.36 2.37 3.096 3.414 4.279 3.432 3.892 7.08 7.613 10.794 11.234 6.493 6.331 13.405 12.166 20.29 18.059 4.423 3.785 9.101 7.478 13.097 11.73.297.315 1.261 1.141.86.974-.671-.278-1.534-1.451-1.996-1.903-5.987-5.868-11.796-11.858-17.098-18.363-4.966-6.094-9.292-12.703-14.359-18.707-.827-.98-1.727-1.902-2.508-2.92-.327-.427-.615-1.039-1.076-1.348-.226-.152.325.441.521.63 2.095 2.012 4.176 4.04 6.291 6.031 7.173 6.755 14.351 13.743 22.239 19.678 1.064.8 1.717 1.959 2.385 3.091.035.058.723 1.265.469 1.173-1.713-.617-3.563-2.33-5.019-3.303-6.925-4.626-13.789-9.336-20.559-14.187-7.313-5.24-14.359-10.782-21.504-16.237-.561-.428-2.568-2.324-3.496-1.987-.169.06.239.427.304.491.81.805 1.438 1.817 2.194 2.673 3.455 3.914 7.312 7.5 11.116 11.068 6.278 5.888 12.785 11.527 18.747 17.743 1.107 1.154 2.24 2.29 3.21 3.565.214.28.643.683.748 1.037.105.354-1.38-1.073-1.476-1.148-9.338-7.34-19.191-14.036-28.35-21.6-4.51-3.724-8.723-8.15-13.907-10.962-.317-.172.137.736.359 1.02 5.899 7.533 12.956 14.008 19.654 20.802 5.147 5.221 10.372 10.609 13.93 17.081 1.271 2.312 2.133 4.788 3.289 7.133.604 1.225-1.547-1.085-1.696-1.214-8.904-7.673-18.258-14.807-27.186-22.454-4.042-3.462-7.964-7.142-11.345-11.268-.783-.954-1.48-2.12-2.42-2.936-.121-.105.207.248.305.375 1.357 1.756 2.659 3.552 4.043 5.289 7.355 9.232 15.355 17.862 23.551 26.345 3.699 3.828 7.69 7.592 10.986 11.787.352.449.623.94.953 1.401.355.496-.907-.815-1.355-1.228-7.694-7.113-15.186-14.337-22.524-21.818-3.666-3.737-7.167-7.682-10.977-11.275-.398-.375-1.545-1.405-1.385-.236.448 3.259 2.144 6.593 3.458 9.541 3.062 6.87 6.663 13.482 10.33 20.043 3.172 5.675 6.37 11.415 10.048 16.785.135.196 1.521 1.858.626 1.486-2.65-1.101-4.974-3.109-7.207-4.86-4.856-3.808-9.508-7.886-14.165-11.934-1.462-1.272-2.884-2.746-4.579-3.712-.967-.551 1.008 2.951 1.038 3.005 5.361 9.669 13.344 17.502 19.827 26.372 1.559 2.132-2.409-.328-2.875-.573-4.3-2.265-8.302-4.854-12.442-7.375-2.046-1.247-4.131-2.461-5.952-4.03-.7-.603-1.339-1.264-2.013-1.893-.234-.218-.93-.393-.72-.634.155-.178 3.755 2.074 3.914 2.165a154.444 154.444 0 0 1 14.4 9.38c1.078.792 4.093 3.447 3.07 2.585-4.024-3.391-7.818-7.047-11.737-10.556-2.416-2.163-4.858-4.332-7.451-6.284-.776-.584-1.524-1.364-2.411-1.784-.932-.442.444.153.71.247 5.879 2.078 11.687 4.41 17.232 7.274 5.79 2.989 11.487 6.188 17.244 9.244.909.482 1.785 1.101 2.749 1.472.068.027.294.16.259.108-.177-.265-.479-.436-.727-.624-1.509-1.145-2.89-2.453-4.376-3.627-6.553-5.178-13.651-9.683-20.571-14.349-5.66-3.816-11.258-7.488-15.9-12.569-2.107-2.305-3.844-4.866-5.717-7.35-.447-.592-.093.142.198.392 3.875 3.316 8.55 5.922 12.877 8.586 5.226 3.217 10.424 6.427 15.563 9.784a229.531 229.531 0 0 0 10.254 6.349c2.828 1.643 6.163 2.847 9.322 3.695.74.199-.547-.861-.604-.921-6.439-6.644-13.159-13.07-20.266-18.996-5.891-4.913-12.028-9.568-18.081-14.28-1.765-1.373-3.51-2.76-5.142-4.284-.647-.604.59.354.696.437 1.487 1.161 3.102 2.155 4.605 3.296 4.33 3.286 8.409 6.891 12.637 10.304 11.389 9.194 23.557 17.442 35.525 25.859.583.41 1.135.933 1.779 1.244.353.17.733.169 1.091.409.45.303.945.54 1.39.839 2.011 1.35-3.292-3.556-5.062-5.208-8.306-7.754-17.543-14.369-26.595-21.209-3.214-2.428-6.416-4.872-9.636-7.292-1.306-.981-2.661-1.907-3.882-2.995-.418-.373-1.839-1.64-.304-.744 7.793 4.547 15.77 8.635 23.742 12.849 4.633 2.449 8.811 5.464 13.134 8.397 3.001 2.036 6.084 3.783 9.236 5.555 2.013 1.132-1.332-1.704-1.545-1.89-9.023-7.844-18.434-15.223-27.313-23.238-6.559-5.92-13.113-12.049-18.729-18.896a80.062 80.062 0 0 1-2.234-2.859c-.471-.632.258-.074.474.075 6.697 4.61 13.592 8.968 20.511 13.236 7.964 4.914 15.995 9.814 24.236 14.255a241.76 241.76 0 0 0 9.661 4.94c.483.233 1.51 1.065 2.07 1.026.139-.01.226-.007.079-.15-1.649-1.602-3.992-2.714-5.932-3.869-11.784-7.02-23.664-13.864-34.305-22.587-4.646-3.808-8.668-8.204-13.121-12.205-.546-.491-1.105-.958-1.591-1.51-.356-.403.887.611 1.325.925 9.517 6.829 19.408 13.054 29.58 18.858 7.631 4.354 15.291 8.634 22.633 13.466 1.92 1.264 3.985 2.563 5.647 4.169.217.209.889.808.647.63-1.438-1.062-3.051-1.912-4.581-2.83-4.589-2.755-9.159-5.552-13.554-8.611-.213-.148-2.931-2.013-2.896-1.778.105.712.648 1.384 1.07 1.924 2.101 2.683 4.595 5.122 7.107 7.414 2.416 2.204 5.001 4.213 7.631 6.154 1.216.897 2.453 1.838 3.796 2.543.14.073 1.35.536 1.099.535-.388-.002-.77-.171-1.135-.281-1.622-.487-3.238-.965-4.841-1.515-3.15-1.083-6.326-2.123-9.461-3.245-.05-.018-1.056-.495-.799-.097.586.909 1.618 1.622 2.413 2.324 2.714 2.398 5.39 4.919 7.678 7.735.187.231 2.238 2.861 1.551 2.745-3.079-.519-5.985-2.383-8.611-3.952-2.196-1.314-4.078-3.03-6.211-4.39-7.078-4.515 7.989 6.424 14.828 11.292.155.11 2.917 2.15 1.847 2.211-2.345.136-4.857-1.166-6.871-2.237-3.074-1.635-.128-.252-3.363-1.528-3.69-1.456-7.218-3.207-10.855-4.767-.158-.068-.684-.282-.458.14.67 1.251 2.019 2.402 2.95 3.448 3.168 3.556 6.595 6.846 9.899 10.27.1.104 2.442 2.453 2.285 2.558-.85.568-3.923-1.232-4.542-1.491-2.911-1.22-5.76-2.605-8.727-3.683-1.086-.395-1.36-.413-1.15.8.27 1.56.851 3.118 1.341 4.623.055.17.39.724.271.917-.229.369-2.119.046-2.348.02-3.799-.425-7.275-1.953-10.541-3.871-.545-.32-1.204-.66-1.686-1.079-.999-.869 2.112 1.598 3.181 2.379 3.629 2.647 7.37 5.137 11.003 7.781.123.089 2.156 1.613 2.178 1.414.153-1.385-.179-3.029-.299-4.408-.526-6.063-6.38-9.759-10.782-13.125-5.843-4.467-11.909-8.817-17.129-14.031-1.89-1.888-3.167-3.928-4.485-6.221-.342-.594-5.52-7.97-6.038-7.57-.198.153-.007 1.285-.006 1.458.017 1.583-.031 3.158.053 4.74.109 2.044-.087 4.626.684 6.568.133.334.383.633-.184.462-2.742-.826-5.29-2.933-7.525-4.64-2.22-1.696-3.742-3.313-3.944-6.213-.032-.461-.063-.723.52-.55.95.283 1.83.936 2.722 1.358 1.328.628 2.689 1.193 4.032 1.788.954.424 2.108 1.226 3.11 1.484.084.022-.094-.148-.15-.215-.519-.617-1.064-1.212-1.578-1.834-1.47-1.777-2.866-3.622-4.244-5.472a84.605 84.605 0 0 1-3.196-4.646c-.248-.384 4.066.363 4.443.463 1.97.526 4.12.979 5.979 1.841.043.02.776.408.491.065-.987-1.185-2.07-2.298-3.07-3.475-2.391-2.818-4.73-5.663-6.716-8.783-.451-.709-1.47-1.649-.124-1 .74.357 9.99 3.561 10.171 2.97.16-.521-.476-1.55-.666-1.942-.948-1.952-2.044-3.827-2.979-5.786-.65-1.362-1.265-2.725-1.687-4.176-.037-.127-.455-1.156-.316-1.3.48-.504 6.242 3.841 6.671 4.15 3.602 2.588 7.215 5.159 10.927 7.589.473.31 1.906 1.486 1.446.339-1.787-4.448-4.422-8.557-6.707-12.761-.713-1.311-1.212-3-2.093-4.192-.224-.303 1.289 1.408 1.536 1.63 4.911 4.396 9.62 8.978 14.876 12.973.247.188.557.571.857.678.627.224-.761-1.092-1.166-1.619-2.735-3.559-5.721-7.043-7.646-11.13-.615-1.306-1.084-2.374-1.182-3.78"/><path stroke="#FFD424" stroke-linecap="round" stroke-width="3" d="M117.922 158.772c2.38 1.745 6.451 4.426 9.481 4.716.025.002-1.66-1.141-2.092-1.423-1.954-1.282-3.786-2.746-5.779-3.969-.448-.275-1.616-1.192-2.196-1.152-.466.033 1.563 3.182 1.679 3.339 1.634 2.199 4.169 4.859 6.943 5.475 1.032.228 1.89.124 2.941.199 1.069.078 2.749 1.068 1.147-.732-.685-.772-1.555-1.363-2.296-2.079-.233-.225-1.969-1.827-1.098-1.581 4.218 1.194 8.32 4.428 12.936 3.945 2.305-.241-1.244-8.112-1.676-9.088-.194-.439-1.549-2.261-1.474-2.682.022-.127 4.231 3.112 4.536 3.35 1.054.82 5.064 4.336 4.851 1.283-.188-2.691-.877-5.803-.594-8.493.043-.411 6.713 2.488 7.617 2.765 1.878.575-2.147-4.734-2.31-5.04-.185-.349 1.844.694 2.032.81.918.568 2.117 1.895 2.064.014-.117-4.14-1.262-8.218-2.109-12.248-.759-3.613-1.135-7.164-1.392-10.836"/><path stroke="#FFD424" stroke-linecap="round" stroke-width="3" d="M129.95 140.158c4.109 1.981 7.188 5.951 10.586 8.905.707.615.983.987-.062.374-3.354-1.966-6.436-4.528-9.331-7.106-2.2-1.958-4.347-4.126-6.047-6.542-.621-.882-1.14-1.781-1.905-2.529-3.266-3.195 7.339 5.45 10.848 8.375.291.243 1.728 1.566 2.216 1.432.558-.153-1.903-4.707-2.039-4.953-1.436-2.584-3.288-4.903-4.788-7.442-.145-.246-1.214-2.179-.815-2.076 1.854.477 3.605 2.333 5.205 3.321 1.694 1.047 3.882 2.334 5.898 2.656 3.689.588.312-8.437-.065-10.011"/><path stroke="#FFD424" stroke-linecap="round" stroke-width="3" d="M105.021 137.279c1.533-.039 2.954.482 4.363 1.031 3.539 1.381 7.048 2.933 10.516 4.475 4.013 1.784 8.352 3.788 12.073 6.124 8.398 5.273-16.44-11.152-25.247-15.743-3.267-1.703-6.543-3.615-9.944-5.041-3.88-1.627 7.777 3.212 11.647 4.861 6.634 2.828 13.349 6.08 20.25 8.255.82.258 1.753.399 2.522.799.91.473-1.854-.882-2.747-1.384-5.003-2.811-19.712-11.688-14.553-9.163 4.334 2.12 8.585 4.272 13.081 6.082.981.395 2.08.891 3.15 1.011.366.041-2.208-2.096-2.312-2.18-7.157-5.803-14.494-11.425-20.645-18.288-2.46-2.744-4.21-6.265-6.808-8.833-2.056-2.033 4.986 2.985 7.428 4.556 5.504 3.54 11.278 6.888 17.061 9.978 1.286.688 2.628 1.198 3.969 1.765.757.32.734.07.138-.43-5.212-4.372-11.062-8.061-16.368-12.34-2.754-2.221-5.356-4.743-8.257-6.78-1.534-1.077 2.265 1.129 2.318 1.159 8.015 4.542 16.012 9.184 24.115 13.57 3.666 1.985 7.343 4.378 11.177 6.036.097.041 1.164.645.581.199-1.62-1.239-3.34-2.354-5.011-3.523-5.145-3.601-10.36-7.114-15.406-10.846-2.648-1.958-5.483-4.048-8.391-5.629-.569-.31-.458-.351.158-.147 2.602.863 5.092 2.262 7.576 3.39a434.409 434.409 0 0 0 21.723 9.172c.292.114 5.426 2.073 5.33 2.6-.124.681-10.085-3.808-10.706-4.116-3.113-1.544-6.232-3.082-9.307-4.695-6.049-3.173 22.661 15.138 16.768 11.696-5.178-3.024-10.014-6.999-14.648-10.748-2.954-2.389-6.77-5.267-8.606-8.693-1.261-2.355 6.978.148 7.513.3 6.232 1.774 12.507 3.425 19.001 3.987 4.369.379.309-3.857-1.014-5.304-3.552-3.885-7.548-7.372-10.81-11.512-.305-.388-3.398-4.326-1.765-3.556 4.251 2.005 7.927 5.491 12.438 6.969.367.12 1.058.403.516-.292-1.36-1.74-3.241-3.213-4.836-4.737-1.13-1.079-2.411-2.064-3.501-3.178-.165-.17-1.156-.916-.854-.602 2.214 2.305 5.479 3.855 8.157 5.572.961.615 1.953 1.179 2.914 1.793.39.249.763.623.021.073-3.892-2.877-8.025-5.48-11.598-8.753-.636-.583-1.32-1.15-1.931-1.757-.751-.747 1.738 1.223 2.61 1.83 3.678 2.553 7.356 5.112 10.716 7.974 1.879 1.6-6.698-6.99-5.665-4.77.576 1.24 1.827 2.307 2.728 3.309a484.937 484.937 0 0 0 5.308 5.785c2.295 2.47 4.842 4.986 6.588 7.888.722 1.2 1.097 2.386 1.53 3.692.19.576.602 1.567-.129.79-1.17-1.245-2.435-2.527-3.775-3.595-.211-.169-1.417-1.16-.554-.472 2.348 1.873 4.286 5.182 5.586 7.808 1.221 2.466 2.181 5.101 3.022 7.717.626 1.944-.45.512-1.125-.312-1.264-1.543-2.473-3.202-4.008-4.51-2.43-2.07 3.584 5.262 5.054 8.071.32.612-1.182-.748-1.737-1.17-1.543-1.177-3.134-2.291-4.699-3.441-.894-.657-1.786-1.561-2.821-2.01-.377-.163 1.718 1.759 1.945 1.967 2.642 2.423 5.319 4.772 7.835 7.32 1.251 1.266.988 1.782-.399.418-.868-.853-2.026-1.928-2.631-2.999-.77-1.363 2.149 2.298 3.156 3.503.486.581 1.572 2.204.132 1.012-.884-.732-1.832-1.598-3.081-1.556-2.412.08-.344 4.868.292 5.925.581.966-.778.448-1.362.246a37.492 37.492 0 0 1-3.153-1.266c-.412-.188-1.485-.974-1.208-.622 1.751 2.224 8.88 7.102 6.683 5.299-1.941-1.594-4.418-2.43-6.379-4.028-1.788-1.458-.073-.119 1.009.409.341.167 2.65 1.902 1.634.577-1.679-2.19-3.552-4.232-5.229-6.421-.121-.158-1.625-1.877-1.226-1.747 2.633.86 5.322 3.324 7.601 4.844.226.151 3.384 2.255 2.049 1.689-1.854-.786-3.982-1.906-5.553-3.155-.276-.22-1.839-1.464-2.27-.923-.502.63.801 3.225 1.036 3.862.305.828 1.323 2.297.07 2.758-2.08.765-4.754-.062-6.707-.822-1.727-.673-.723.19.126.922 1.961 1.692 3.735 3.566 5.642 5.311 1.072.982-3.896-1.205-4.327-1.409-1.934-.914-4.533-1.756-6.138-3.205-1.582-1.427 4.137 1.178 6.141 1.943 1.744.666 6.915 2.803 5.201 2.069-4.192-1.794-8.299-3.806-12.425-5.693-.782-.357.334 1.83.41 2.149.808 3.382-.288 6.142-3.244 8.155-4.187 2.851-9.972 3.265-14.924 3.491-2.56.117-5.337-.169-7.661-1.326-1.865-.928.885.018 1.476.302 1.335.642 2.66 1.783 4.035 2.271 1.064.377-.921-1.398-1.09-1.561-.329-.318-3.228-2.824-2.144-2.628 2.757.499 5.23 1.893 7.801 2.893 2.574 1.002-.732-.346-1.545-.838-1.19-.721-2.237-1.634-3.414-2.374-.085-.053-1.552-1.005-1.111-.988 1.403.054 3.141 1.051 4.4 1.569 1.919.791 3.766 1.737 5.638 2.624.469.223 4.544 2.044 2.135 1.397-11.768-3.159-23.201-8.264-34.516-12.677-4.914-1.916-4.563-2.211-9.525-3.997-.39-.141-.646-.135-.187.178 1.147.782-3.035.03-1.981.928 2.341 1.994 4.437 4.257 6.764 6.239.299.255 2.15 1.561 2.124 1.458-.19-.738-1.2-1.384-1.682-1.924-.726-.813-1.229-1.765-1.899-2.615-1.832-2.327 1.167.052 2.176.658 2.727 1.638 5.525 3.067 8.359 4.506.463.235.686.313.436-.331-.791-2.041-2.088-3.972-3.212-5.841-2.704-4.496-5.493-8.661-7.368-13.57-.208-.543-1.096-2.72-.078-1.766 1.574 1.475 3.477 2.691 5.377 3.723 1.599.868.47-.971.03-1.759a38.083 38.083 0 0 0-2.288-3.594c-.405-.566-1.322-1.328-1.475-2.029-.113-.519 3.643 1.663 4.074 1.952.242.163 2.152 1.127 2.101.905-.352-1.535-2.187-3.428-3.146-4.676-1.006-1.308.407-.528 1.202-.114.756.393 2.763 1.251 3.169 1.926"/><path stroke="#FFD424" stroke-linecap="round" stroke-width="3" d="M113.203 154.05c2.904.08 6.075 1.719 8.699 2.966.219.104 2.088.731 1.563.562-1.741-.56-3.402-1.565-5.016-2.444-2.839-1.545-5.612-3.193-8.382-4.869-.084-.051-.64-.387-.451-.023.217.421.672.748.997 1.046 1.2 1.099 2.359 2.249 3.579 3.324 2.026 1.785 4.051 3.609 6.14 5.308.909.74 1.868 1.366 2.539 2.376 1.21 1.823-4.776-.856-5.066-1.016-5.715-3.171-11.142-6.988-16.569-10.694-.325-.221-3.18-2.237-1.617-.8 2.835 2.605 5.454 5.562 8.402 8.012.462.384.994.755 1.43 1.163.486.455-1.028-.839-1.491-1.32-3.167-3.294-5.807-7.22-9.416-10.011-1.307-1.01-3.276-2.703-4.963-2.945-.502-.072.634.856.975 1.262.986 1.176 1.97 2.318 3.047 3.402 1.747 1.76 7.01 7.01 5.205 5.32-1.395-1.305-2.964-2.371-4.376-3.645-.095-.085-.76-.636-.361-.162 1.598 1.9 3.632 3.636 5.519 5.177 3.421 2.793 7.207 4.845 10.801 7.32 1.412.972 1.259.617-.01-.322-.945-.699-4.117-2.021-2.987-1.833.995.166 1.919.744 2.861 1.103 1.519.58 3.145.858 4.749.77.727-.04 1.476.061 1.181-.97-.451-1.576-1.49-2.816-2.549-3.96-.616-.664-1.281-1.307-1.817-2.05-.472-.655 1.298.642 1.332.66 3.017 1.576 6.089 3.072 9.283 4.174 1.885.651 4.566 1.868 6.578 1.22 1.965-.633-.317-4.279-.837-5.195-3.659-6.44-7.835-12.513-11.312-19.083-4.659-8.803-7.258-17.836-7.545-27.905-.102-3.559.127-8.593 2.393-11.482 2.694-3.433 6.677-4.13 10.658-4.373 2.983-.182 5.861.323 8.829.538 1.145.083 4.208.69 4.633-1.063.465-1.917-.79-4.044-1.901-5.403-2.236-2.736-5.073-4.972-7.734-7.2a279.248 279.248 0 0 1-4.222-3.6c-1.347-1.174-.483.867-.17 1.503 1.772 3.595 4.51 6.608 6.782 9.845.474.675.651.9-.232.258-2.237-1.629-4.461-3.145-6.267-5.34-.856-1.04-3.026-4.495-2.366-3.3 1.003 1.815 2.567 3.175 3.759 4.829.011.014-6.183-6.23-6.607-5.383-.368.734 4.514 5.672 5.061 6.31.192.225 2.35 3.43 2.212 3.42-1.44-.1-3.477-1.753-4.692-2.466-1.881-1.105-3.705-2.318-5.584-3.426-.167-.098-1.816-1.31-1.208-.48 1.363 1.858 3.125 3.443 4.759 5.015.25.24 5.527 5.694 5.624 5.613.189-.156-.311-.396-.489-.57a30.738 30.738 0 0 1-1.822-1.956c-1.67-1.946-3.272-3.947-4.734-6.078-.825-1.204-1.655-2.4-2.308-3.722-.212-.43-.468-1.066-.786-1.423-1.648-1.846 3.134 3.853 4.781 5.699a98.845 98.845 0 0 0 2.323 2.498c.185.194-1.421-.414-1.557-.482-1.232-.621-3.635-1.794-4.436-3.076-.305-.488-2.439-.456-2.948-.547-.835-.148-1.943-.734-1.267.626 1.09 2.193 2.685 4.545 4.383 6.251.609.612-.059-.007-.298-.328-1.021-1.376-2.149-2.63-3.27-3.91-.952-1.088-1.832-2.141-2.91-3.049-.426-.358-1.088-.524-1.451-.92-1.043-1.137 1.607 2.692 2.524 3.95 1.284 1.759 2.516 3.582 3.936 5.22.545.628 1.301 1.957 1.978 2.388 1.657 1.055-3.212-2.29-4.856-3.37-.353-.231-5.036-2.692-4.932-2.14.179.953 1.215 2.01 1.741 2.754.914 1.291 1.878 2.546 2.72 3.894.575.922 1.503 2.034 1.583 3.182.098 1.4-.404 2.799-.721 4.148-.362 1.542-.411 2.059-1.762 1.051-2.432-1.814-4.565-4.215-7.171-5.76-.515-.306.344 1.227.672 1.753 1.993 3.198 4.321 6.194 6.55 9.203a163.006 163.006 0 0 0 4.064 5.266c.256.317.644.964.994 1.18 1.17.721-2.043-1.899-3.001-2.921"/><path stroke="#171717" stroke-width="2.5" d="M165.942 125.614c1.544 22.078-14.522 41.186-35.883 42.68-21.361 1.494-39.929-15.193-41.473-37.271-1.544-22.078 13.748-52.244 35.109-53.737 21.362-1.494 40.703 26.25 42.247 48.328Z"/><path stroke="#171717" stroke-linecap="round" stroke-width="2.5" d="m140.359 82.949-17.304 26.359"/><path stroke="#171717" stroke-linecap="round" stroke-width="1.5" d="M87.127 125.924c-.133-1.895-.148-3.57.863-5.274.434-.731.689-1.893.948-2.721.302-.965.74-1.894 1.129-2.828a77.068 77.068 0 0 0 2.388-6.518c.62-1.984 1.138-4.077 2.145-5.933 1.975-3.642 3.621-7.512 6.307-10.722 1.228-1.467 2.575-2.757 3.835-4.207.977-1.124 1.93-2.247 3.038-3.246 1.332-1.202 2.908-2.121 4.233-3.33 1.689-1.54 3.516-2.627 5.697-3.337 1.91-.622 4.378-.401 6.388-.542 1.934-.135 3.782-.316 5.703.076 2.135.435 3.509 1.367 5.299 2.568 2.917 1.958 5.862 3.94 8.543 6.186 1.337 1.12 2.844 2.128 4.206 3.203.642.507 1.179 1.122 1.897 1.531.504.288 1.658.814.375.543M150.834 89.94c.081 1.166 1.721 2.635 2.339 3.629.718 1.153 1.619 2.245 2.183 3.492.991 2.192 2.572 4.126 3.711 6.229 1.114 2.057 2.196 4.118 3.003 6.341.442 1.217.927 2.357 1.211 3.613.222.979.369 2.105.728 3.035a23.37 23.37 0 0 1 1.447 6.535c.151 2.15.684 4.354.836 6.525.069.989.361 2.226.214 3.208-.101.674-.645 1.468-.599 2.128"/><path stroke="#171717" stroke-linecap="round" stroke-width="1.5" d="M166.128 132.425c.284 4.063-1.056 7.509-2.631 11.181-1.826 4.256-3.17 8.669-6.915 11.67-1.475 1.181-2.786 2.571-4.291 3.713-.599.454-1.421 1.181-1.911 1.745-.553.636-1.296.981-1.882 1.553-.594.582-1.727.917-2.468 1.311-.749.397-1.563.631-2.345.964-1.553.662-3.091 1.193-4.666 1.801"/><path stroke="#171717" stroke-linecap="round" stroke-width="1.5" d="m139.868 166.304-2.599.182c-.849.059-2.248.149-3.041.497-1.554.68-3.495.466-5.087 1.061-1.128.422-2.697.526-3.897.61-.975.068-1.897.179-2.854.01-1.026-.182-1.958-.562-2.902-.977-.845-.372-1.821-.766-2.633-1.206-1.662-.902-3.672-1.46-5.507-1.933-.877-.225-2.121-.75-2.925-1.164-1.117-.576-2.234-1.019-3.283-1.762-1.792-1.268-3.677-3.18-4.821-5.066-.867-1.431-2.219-2.442-3.201-3.758-.203-.272-1.618-1.593-1.534-1.599"/><path stroke="#171717" stroke-linecap="round" stroke-width="1.5" d="M96.623 152.508c-.634-.688-1.053-1.918-1.56-2.735-.785-1.262-1.818-2.466-2.671-3.7-.818-1.184-1.742-2.463-2.36-3.764-.636-1.342-.984-3.064-1.357-4.508-.626-2.419-.832-4.702-.98-7.231-.134-2.284.144-4.627.095-6.927-.064-3.028.46-6.203 1.25-9.093M140.226 82.958c-2.525.176-4.336 3.364-5.01 5.535-.707 2.276-2.05 4.077-3.243 6.101-.624 1.06-1.389 2.086-2.047 3.138a158.387 158.387 0 0 0-3.288 5.551c-.647 1.135-1.434 2.147-2.155 3.22-.263.392-.304.788-.538 1.198"/></g></g><defs><filter id="a" width="109.564" height="123.162" x="72.478" y="65.226" color-interpolation-filters="sRGB" filterUnits="userSpaceOnUse"><feFlood flood-opacity="0" result="BackgroundImageFix"/><feColorMatrix in="SourceAlpha" result="hardAlpha" values="0 0 0 0 0 0 0 0 0 0 0 0 0 0 0 0 0 0 127 0"/><feOffset dy="2"/><feGaussianBlur stdDeviation="1"/><feComposite in2="hardAlpha" operator="out"/><feColorMatrix values="0 0 0 0 0 0 0 0 0 0 0 0 0 0 0 0 0 0 0.02 0"/><feBlend in2="BackgroundImageFix" result="effect1_dropShadow_998_3006"/><feColorMatrix in="SourceAlpha" result="hardAlpha" values="0 0 0 0 0 0 0 0 0 0 0 0 0 0 0 0 0 0 127 0"/><feOffset dy="4"/><feGaussianBlur stdDeviation="4"/><feComposite in2="hardAlpha" operator="out"/><feColorMatrix values="0 0 0 0 0 0 0 0 0 0 0 0 0 0 0 0 0 0 0.06 0"/><feBlend in2="effect1_dropShadow_998_3006" result="effect2_dropShadow_998_3006"/><feBlend in="SourceGraphic" in2="effect2_dropShadow_998_3006" result="shape"/></filter><filter id="b" width="109.564" height="123.161" x="72.478" y="65.227" color-interpolation-filters="sRGB" filterUnits="userSpaceOnUse"><feFlood flood-opacity="0" result="BackgroundImageFix"/><feColorMatrix in="SourceAlpha" result="hardAlpha" values="0 0 0 0 0 0 0 0 0 0 0 0 0 0 0 0 0 0 127 0"/><feOffset dy="2"/><feGaussianBlur stdDeviation="1"/><feComposite in2="hardAlpha" operator="out"/><feColorMatrix values="0 0 0 0 0 0 0 0 0 0 0 0 0 0 0 0 0 0 0.02 0"/><feBlend in2="BackgroundImageFix" result="effect1_dropShadow_998_3006"/><feColorMatrix in="SourceAlpha" result="hardAlpha" values="0 0 0 0 0 0 0 0 0 0 0 0 0 0 0 0 0 0 127 0"/><feOffset dy="4"/><feGaussianBlur stdDeviation="4"/><feComposite in2="hardAlpha" operator="out"/><feColorMatrix values="0 0 0 0 0 0 0 0 0 0 0 0 0 0 0 0 0 0 0.06 0"/><feBlend in2="effect1_dropShadow_998_3006" result="effect2_dropShadow_998_3006"/><feBlend in="SourceGraphic" in2="effect2_dropShadow_998_3006" result="shape"/></filter></defs></svg>