<svg xmlns="http://www.w3.org/2000/svg" width="411" height="269" fill="none"><path fill="#fff" d="M134.269 268.062C60.495 268.062.479 208.045.479 134.27S60.495.479 134.269.479c49.487 0 94.462 27.194 117.701 70.242l118.242-36.372a31.593 31.593 0 0 1 9.278-1.403 31.454 31.454 0 0 1 15.212 3.955c7.538 4.175 12.929 11.07 15.16 19.403 2.231 8.332 1.014 16.986-3.431 24.372-4.445 7.386-11.527 12.524-19.927 14.45l-118.985 27.262c.355 3.972.541 7.944.541 11.899 0 73.775-60.016 133.792-133.791 133.792v-.017Z"/><path stroke="#C6C6C8" stroke-linecap="round" stroke-width="4" d="M36.196 106.155c.472 4.722 1.557 9.469 2.397 14.151.301 1.677.647 6.307 1.121 2.513.857-6.855 4.81-14.538 7.463-20.84 1.213-2.882-.628-6.66.541-9.666 1.38-3.55-1.302 4.555-1.547 5.142-4.061 9.748-5.61 20.516-9.627 30.159-1.612 3.869.563-8.438 1.779-12.45 2.238-7.389 5.759-14.912 10.246-21.227.552-.778.85-2.053.85-.541v8.428c0 3.024-.663 9.097.155 2.475.977-7.917 4.61-15.656 7.5-23.044 1.712-4.372 1.38.101 1.006 2.397-.747 4.59-2.223 18.185-3.054 13.61-1.184-6.51 2.722-14.647 5.528-20.26.722-1.444 4.558-8.425 3.055-2.745-1.085 4.097-3.75 8.532-3.75 12.798 0 1.862-.02-3.77.463-5.568 1.18-4.38 3.914-8.568 5.955-12.605 1.183-2.339 4.87-10.42 3.866-2.938-.72 5.363-3.133 10.406-5.103 15.388-.427 1.08-2.287 8.594-3.635 8.893-.32.071 1.295-4.592 1.353-4.717 2.192-4.712 5.123-9.177 7.578-13.764 2.194-4.1 4.965-7.853 7.54-11.716.05-.074 1.906-2.716 2.126-2.165.653 1.631-1.56 5.514-2.01 6.844-.726 2.144-1.039 4.506-2.436 6.302-1.097 1.41-2.474 6.543-2.474 4.756 0-7.427 7.002-14.58 11.986-19.565 1.016-1.016 2.32-5.071 2.32-3.634 0 2.818-2.844 7.576-3.867 10.285-.666 1.762-1.696 3.89-.657.773 1.647-4.941 6.871-10.421 11.019-13.416 2.206-1.594 2.455-2.268.773.734-2.201 3.931-7.202 16.517-5.529 12.334 2.642-6.603 7.083-10.562 11.947-15.427 4.839-4.839-.614 2.93-1.817 5.336-1.7 3.4.463-.149 1.663-1.315 2.921-2.84 6.197-6.09 9.589-8.351 2.827-1.886-.721 2.326-1.083 2.938-1.473 2.492-3.634 7.888-3.634 7.888s3.231-3.877 5.258-5.336c3.727-2.684 7.071-5.519 11.019-7.888.623-.374-.958 1.107-1.314 1.74-.754 1.34-1.241 2.69-2.398 3.75-1.865 1.71-1.096 1.845.774.349 3.565-2.852 8.119-6.82 12.256-8.7 3.947-1.794 1.027.868.155 2.475-.309.569-2.921 5.087-1.933 4.717 2.821-1.058 4.97-4.121 8.042-5.259 5.278-1.955-.602 3.423-1.276 6.457-.43 1.936 1.286-.569 2.474-1.392 2.367-1.638 4.851-3.243 7.656-3.866 1.785-.397-2.572 3.422-2.436 5.606.032.513 5.213-2.297 6.109-2.629 1.361-.504 2.896-1.387 4.33-1.546 2.146-.239.947.445-.348 1.74-.524.524-3.045 3.869-.657 2.783 2.08-.945 4.421-1.319 6.573-2.087 1.098-.392 3.874-1.701 3.441-.62-.163.408-5.007 6.468-.657 4.293 3.004-1.502 5.899-1.58 9.047-2.63"/><path fill="#fff" stroke="#171717" stroke-width="2.5" d="M373.297 48.363c9.038-2.78 18.577 2.498 21.025 11.63 2.447 9.134-3.176 18.474-12.392 20.586l-132.158 30.28-2.535-8.973-2.535-6.76-2.535-6.434 131.13-40.33Z"/><circle cx="8.655" cy="8.655" r="8.655" stroke="#171717" stroke-width="2.5" transform="rotate(75 155.345 275.893)"/><ellipse cx="133.002" cy="134.148" stroke="#171717" stroke-width="2.5" rx="119" ry="119.001"/><ellipse cx="133.001" cy="134.148" stroke="#171717" stroke-width="2.5" rx="97.364" ry="97.365"/><path stroke="#171717" stroke-linecap="round" stroke-width="1.5" d="M243.616 89.092c4.581 0 8.745-.48 13.186-1.49 1.279-.29 2.368-1.163 3.582-1.648 1.076-.431 2.045-.722 3.059-1.268 1.216-.656 2.683-.946 3.978-1.316 6.055-1.73 12.083-4.563 18.003-6.83 11.632-4.455 23.674-7.942 35.438-11.982 5.247-1.802 10.813-2.81 16.165-4.28 5.109-1.402 10.138-2.993 15.278-4.278 6.826-1.707 13.807-4.054 20.825-4.834 5.449-.606 11.895-1.193 16.656 1.981 4.354 2.903 3.598 9.022 3.598 13.598 0 3.667-.731 7.474-3.645 9.858-.728.595-2.519.425-3.423.57-1.359.22-2.918.753-4.216 1.22-1.877.677-3.615 1.76-5.595 2.156-3.547.71-7.11 2.306-10.57 3.344-4.154 1.246-8.531 2.126-12.505 3.915-2.613 1.176-6.015 1.957-8.827 2.488-3.185.601-6.308 1.617-9.541 2.155-3.688.615-7.44 1.298-11.142 1.776-3.472.448-6.754 1.514-10.19 2.06-3.402.54-6.85 2.047-10.191 2.932-3.239.857-6.208 1.991-9.572 2.425-4.245.547-8.411 1.557-12.695 1.933-4.71.414-9.297 1.255-13.978 1.775-3.867.43-8.022 1.768-11.76 2.853-1.591.462-3.722 1.712-5.357 1.712M38.078 113.456c0-2.306-.079-4.581.26-6.861.203-1.376 1.049-2.74 1.812-3.884.837-1.257 1.337-2.667 2.129-3.956 1.216-1.982 2.318-4.05 3.567-6.013 1.145-1.8 2.78-3.536 3.625-5.495.776-1.797 2.17-3.621 3.38-5.135 2.828-3.535 5.295-7.386 8.272-10.803a111.25 111.25 0 0 1 8.17-8.473c3.085-2.872 6.59-5.127 9.955-7.639 4.825-3.601 9.793-6.864 14.96-9.896 2.962-1.74 6.556-2.459 9.897-3.194 4.122-.907 8.166-1.875 12.371-2.388 7.447-.908 14.883-1.093 22.382-1.093"/><path stroke="#171717" stroke-linecap="round" stroke-width="1.5" d="M136.225 38.278c3.416 0 6.839-.063 10.255 0 2.845.053 5.67.796 8.454 1.278 1.365.236 2.709.75 4.034 1.155 2.059.63 4.013 1.493 6.052 2.14 3.598 1.143 6.716 3.614 10.178 5.097 1.875.804 3.597 1.986 5.305 3.088a123.88 123.88 0 0 0 4.95 3.041 60.632 60.632 0 0 1 8.285 5.79c1.174.975 2.546 1.73 3.618 2.803a185.138 185.138 0 0 1 4.066 4.188c2.484 2.648 6.148 4.025 8.107 7.16.303.486.61.96.693 1.54.018.13.146.685.146.277"/><path stroke="#171717" stroke-linecap="round" stroke-width="1.5" d="M209.672 75.281c.071.64 1.066 1.593 1.417 2.14.778 1.218 1.731 2.326 2.463 3.573 1.128 1.92 2.213 3.858 3.496 5.682 3.006 4.276 5.02 9.543 6.513 14.521.832 2.774 1.118 5.648 1.771 8.454.505 2.169.667 4.393 1.247 6.544.527 1.953.987 3.938 1.525 5.898.167.61.237 1.26.523 1.832.156.311.222.476.031 0"/><path stroke="#171717" stroke-linecap="round" stroke-width="1.5" d="M228.937 121.846c0 1.687-.08 3.399.208 5.066.322 1.868.253 3.83.7 5.682.486 2.012.598 4.139.863 6.19.258 2.005.169 4.046.169 6.067 0 2.354-.663 4.64-1.178 6.93-.562 2.498-1.149 5.048-1.94 7.483-.888 2.732-1.953 5.387-3.01 8.054-.827 2.085-1.777 4.066-2.403 6.228-.212.735-.379 1.501-.616 2.21M148.969 229.8c2.65 0 5.389.333 7.885-.575 1.619-.589 3.333-1.344 5.043-1.724 1.556-.345 3.553-1.477 5.044-2.154 1.213-.552 2.857-.511 4.006-1.15 1.857-1.031 3.974-1.745 5.89-2.729 2.249-1.155 4.43-2.353 6.544-3.735 1.214-.794 2.539-2.14 3.862-2.65 1.759-.676 4.046-2.105 5.395-3.383 1.25-1.185 2.821-1.987 4.166-3.033 1.63-1.268 2.839-2.823 4.294-4.278 1.652-1.652 3.629-3.641 4.9-5.618 1.208-1.879 3.034-3.355 4.293-5.187 2.231-3.245 4.365-6.617 7.055-9.465 2.161-2.289 3.735-4.789 3.735-8.045"/><path stroke="#171717" stroke-linecap="round" stroke-width="1.5" d="M73.695 212.848c1.47.147 3.332 2.373 4.47 3.304 1.166.954 2.557 1.691 3.862 2.378 1.585.834 3.455 1.1 5.028 1.947 1.635.881 3.345 1.843 5.091 2.49 1.502.556 2.933 1.421 4.406 2.091 1.464.666 3.225.917 4.724 1.516 1.875.75 4.334 1.295 6.305 1.788 1.881.47 3.761 1.152 5.618 1.724 3.804 1.17 7.651 1.724 11.62 1.724 3.777 0 7.65.287 11.364.287 3.588 0 7.223-.287 10.758-.287 3.018 0 5.853-2.012 8.922-2.012"/><path stroke="#171717" stroke-linecap="round" stroke-width="1.5" d="M74.556 213.137c-2.082-2.082-4.057-4.139-6.097-6.257-1.505-1.563-2.728-3.396-4.102-5.075-.536-.655-1.188-.776-1.644-1.596-.421-.758-1.46-1.277-2.011-2.012-3.182-4.242-6.67-8.051-8.491-13.152-.664-1.857-1.829-3.654-2.363-5.522-.38-1.331-.946-3.078-1.5-4.31-2.6-5.777-4.638-11.758-6.544-17.812-.997-3.168-1.843-6.306-2.299-9.609-.361-2.623-1.36-5.277-1.436-7.917-.105-3.66-.287-7.391-.287-10.981 0-2.84-.288-5.68-.288-8.539 0-1.275-.268-2.927.288-4.039M14.438 123.316c0-4.598.92-9.414 3.002-13.579 1.827-3.653 3.72-7.812 4.628-11.808.409-1.798 1.348-3.515 2.031-5.223.836-2.09 1.437-4.41 2.611-6.34 1.15-1.89 1.821-4.15 2.815-6.136 1.242-2.484 2.244-5.088 3.713-7.457 1.92-3.093 3.477-6.632 5.876-9.385 2.155-2.476 4.1-5.08 6.397-7.443 1.234-1.268 2.16-2.87 3.395-4.178.816-.864 1.578-1.837 2.364-2.741.503-.578 1.511-1.912 2.205-2.22.917-.407 1.49-1.618 2.075-2.35.855-1.068 1.673-2.312 2.64-3.279 1.814-1.814 3.68-3.49 6.064-4.555"/><path stroke="#171717" stroke-linecap="round" stroke-width="1.5" d="M61.174 38.71c1.981 0 3.792-1.03 5.382-2.09 2.404-1.603 4.958-3.055 7.413-4.555 3.588-2.192 7.248-4.306 11.112-6.006 4.46-1.962 8.826-5.18 13.68-6.15 4.852-.971 9.552-2.495 14.507-3.134 3.606-.466 7.153-1.18 10.779-1.51 2.464-.223 4.904-.451 7.369-.637 2.276-.172 4.582-.04 6.847-.261 6.997-.683 14.706-.632 21.296 2.088 3.412 1.409 6.904 2.578 10.3 4.033 3.55 1.522 7.042 3.343 10.445 5.165"/><path stroke="#171717" stroke-linecap="round" stroke-width="1.5" d="M172.156 20.952c1.481.165 2.532 1.693 3.917 2.09 1.617.461 3.2 1.839 4.7 2.61 4.785 2.46 10.062 4.118 14.681 6.848 10.584 6.254 20.466 14.024 28.463 23.443 2.211 2.605 4.494 5.146 6.455 7.964 2.065 2.968 3.353 6.234 5.237 9.27 2.959 4.767 4.565 10.589 6.325 15.871.417 1.25.889 2.654 1.233 3.859.257.896.959 2.084 1.059 2.988.15 1.35 1.251 2.692 1.553 4.048.161.725.467 1.559.798 2.219"/><path stroke="#171717" stroke-linecap="round" stroke-width="1.5" d="M245.01 97.725c0 4.927 2.631 9.65 4.584 14.115 2.4 5.485 2.803 11.843 3.569 17.684 1.042 7.952.75 16.613-.711 24.502-.346 1.869-.444 4.093-1.233 5.847-.797 1.771-1.668 3.48-2.539 5.222-1.558 3.117-2.566 6.029-3.409 9.401"/><path stroke="#171717" stroke-linecap="round" stroke-width="1.5" d="M118.867 252.753h16.385c4.491 0 8.389-.797 12.785-1.611 6.329-1.172 12.976-1.506 19.148-3.221 3.343-.928 6.477-2.154 9.644-3.579 3.283-1.477 6.712-2.513 9.763-4.474 5.475-3.52 11.585-6.548 16.384-11.095 1.742-1.65 3.958-3.022 5.886-4.454 3.951-2.936 7.964-6.372 11.075-10.201 1.82-2.239 3.637-4.464 5.23-6.9 1.791-2.74 4.241-5.079 5.925-7.834 4.168-6.82 8.393-13.119 11.612-20.361.942-2.119 1.51-4.569 2.148-6.801.583-2.042 2.505-4.035 2.505-6.084M17.939 108.871c0 4.383-1.833 8.104-2.486 12.348-.588 3.823-1.094 7.326-1.094 11.274 0 6.631 2.513 12.774 3.242 19.328.535 4.822 1.655 9.629 2.922 14.316.832 3.078 2.19 6.009 3.222 9.028 1.515 4.434 2.784 8.839 4.573 13.183 2.859 6.943 7.376 11.991 12.447 17.438 1.885 2.024 2.902 4.798 4.752 6.88.797.896 1.431 1.816 2.128 2.784.3.416 1.761.795.716.795"/><path stroke="#171717" stroke-linecap="round" stroke-width="1.5" d="M45.14 214.099c2.494 2.244 4.834 5.151 7.676 6.959 4.26 2.711 8.19 5.927 12.368 8.789 4.764 3.264 9.514 6.334 14.495 9.286 3.874 2.295 7.995 3.803 11.99 5.746 3.222 1.568 6.795 2.483 10.022 4.096 3.343 1.672 7.85 1.496 11.453 2.347 5.302 1.252 10.728 1.927 16.106 2.525 1.592.177 11.94.239 11.811-.02M372.41 56.242c-.402 0-.816-.03-1.216.01-.865.086-1.656.603-2.362 1.068-.586.386-1.141.883-1.638 1.38-.319.318-.717.616-.819 1.077-.509 2.29-.259 4.747-.259 7.09 0 1.103.214 2.086.561 3.127.332.998 1.243 1.605 2.15 2.074 1.471.76 2.837 1.598 4.484 1.978 1.655.382 3.086.164 4.531-.69 1.698-1.003 2.935-2.237 3.899-3.942.584-1.032.886-2.28 1.145-3.43.286-1.27.439-2.887-.043-4.128-.432-1.11-1.15-2.179-1.983-3.027-.857-.873-2.004-1.94-3.19-2.328-.631-.207-1.251-.45-1.897-.604-.667-.16-1.389-.086-2.07-.086-.516 0-1.13-.094-1.638.019-.276.061-.579.153-.862.153"/><g filter="url(#a)"><path fill="#fff" stroke="#fff" stroke-width="8" d="M122.682 172.086c23.615 2.482 44.613-15.278 47.145-39.361 1.253-11.924-1.958-25.913-8.233-37.236-6.229-11.242-16.034-20.776-28.54-22.09-12.505-1.314-24.079 5.972-32.509 15.673-8.492 9.771-14.541 22.787-15.794 34.711-2.532 24.083 14.315 45.821 37.931 48.303Z"/><path stroke="#FFD424" stroke-linecap="round" stroke-width="3" d="M89.391 130.206c2.199 2.54 4.755 4.78 7.07 7.208 3.408 3.576 6.646 7.345 9.589 11.334.489.662 1.007 1.296 1.506 1.95.039.05.357.721.428.728.479.05-.421-.888-.673-1.308-1.318-2.197-2.736-4.327-4.032-6.538-2.849-4.858-5.277-9.857-6.84-15.311-.708-2.473-1.248-4.988-1.935-7.463-.351-1.264.532.87.71 1.137 6.132 9.274 14.134 17.013 21.445 25.269 3.113 3.515 5.943 7.222 8.615 11.092.032.047.685 1.094.284.474-1.221-1.887-2.423-3.786-3.627-5.683-6.071-9.561-12.347-18.984-18.031-28.798-2.159-3.729-4.44-7.505-5.924-11.586-.059-.161-.157-.308-.203-.473-.237-.866.922 1.531 1.448 2.248 8.603 11.725 19.072 21.837 29.657 31.637 3.479 3.221 6.908 6.514 10.46 9.651.101.09.36.37.326.238-.102-.407-1.164-1.35-1.341-1.545-2.862-3.15-5.538-6.466-8.173-9.817-7.833-9.963-15.28-20.321-22.023-31.093-2.072-3.311-4.159-6.667-5.615-10.325-.029-.072-.163-.256-.143-.181.052.196.318.615.376.704 1.16 1.79 2.47 3.491 3.8 5.147 6.211 7.73 13.135 14.858 20.091 21.876 6.044 6.097 12.177 12.102 18.44 17.962 1.243 1.162 2.487 2.323 3.691 3.528 1.533 1.534-.348-.252-.743-.642-8.228-8.119-15.873-16.742-22.099-26.594a135.205 135.205 0 0 1-8.261-15.146c-.114-.245-1.059-2.152-.827-1.814.879 1.28 1.886 2.483 2.874 3.673 4.777 5.752 9.843 11.282 15.09 16.585 6.702 6.772 13.879 13.073 21.023 19.35.152.134 1.354 1.381 1.692 1.213.174-.087-.115-.385-.231-.542-.948-1.28-2.096-2.448-3.159-3.62-9.647-10.633-18.948-21.459-26.764-33.623-3.339-5.196-6.663-10.757-8.857-16.594-.098-.26-.966-2.38-.733-1.943.91 1.702 2.162 3.297 3.313 4.818 4.563 6.034 9.597 11.702 14.845 17.113a260.689 260.689 0 0 0 18.9 17.614c.569.48 2.058 2.036 1.788 1.333-.448-1.162-1.363-2.399-2.034-3.363-5.338-7.672-11.239-14.958-17.112-22.2-5.21-6.426-10.426-12.813-14.798-19.88-.522-.844-1.096-1.66-1.465-2.591-.026-.064-.314-.634-.151-.534 1.254.777 2.463 1.995 3.584 2.917 5.601 4.605 11.155 9.272 16.762 13.87 6.16 5.05 12.392 9.98 18.707 14.822.37.283 1.244 1.265 1.141.803-.274-1.225-1.88-2.794-2.582-3.716-5.308-6.972-11.074-13.571-15.895-20.927a58.357 58.357 0 0 1-3.551-6.229c-.541-1.098-1.146-2.21-1.424-3.419-.01-.042-.145-.595-.087-.452.527 1.305 1.939 2.512 2.849 3.477 5.95 6.3 12.267 12.188 19.064 17.51a222.64 222.64 0 0 1 4.877 3.902c.405.335.943.584 1.314.951 1.161 1.143-2.222-2.391-3.264-3.65-3.386-4.089-6.577-8.285-9.447-12.777-1.43-2.239-2.824-4.405-4.599-6.376-.311-.345-.778-.972-1.22-1.154-.71-.29-1.597-.468-2.339-.716-2.089-.699-4.214-1.173-6.373-1.575-1.12-.209-2.39-.222-3.38-.743-.618-.325-1.095-.76-1.599-1.24-.086-.08 2.453.093 2.899.176 2.402.445 4.605 1.61 7.054 1.868.55.058-.4-.522-.631-.768-.917-.98-2.015-1.938-3.186-2.589-.356-.198-4.545-1.658-4.588-1.249-.031.29.334.69.466.88 1.571 2.276 3.199 4.501 4.88 6.692 7.463 9.724 14.932 19.447 22.308 29.239 2.088 2.772 4.248 5.528 6.195 8.409.771 1.14-1.082-1.177-1.147-1.257-3.487-4.299-7.022-8.474-10.175-13.048a923.3 923.3 0 0 1-10.925-16.193c-1.69-2.565-3.482-5-5.782-7.026-.5-.44-1.304-1.005-1.994-1.078-.479-.05 1.075 3.506 1.087 3.532 2.402 5 5.763 9.575 8.933 14.071 3.445 4.886 7.085 9.611 10.714 14.352 1.263 1.651 2.53 3.301 3.773 4.968.563.754 1.321 1.534 1.768 2.375.325.61-.95-.993-1.389-1.522-2.676-3.23-5.25-6.55-7.825-9.864-5.048-6.498-10.052-13.04-15.233-19.426-2.336-2.879-4.858-5.728-7.583-8.232-.251-.23-1.3-1.36-1.719-1.298-.371.054.237.73.41 1.068 1.152 2.26 2.404 4.465 3.62 6.689 3.634 6.644 6.874 13.532 10.708 20.058.916 1.558 1.816 3.105 2.648 4.712.481.928.575 1.023-.179-.093-4.834-7.156-9.693-14.309-13.884-21.889-1.583-2.862-3.005-5.816-4.62-8.659-.916-1.612-1.841-3.5-3.13-4.845-.324-.338-1.074-1-1.582-1.053-.129-.013-.259 1.026-.29 1.124-.697 2.213-.308 4.442.601 6.537.665 1.532 1.784 3.536 2.601 4.91 2.687 4.522 5.616 8.91 8.627 13.209 5.264 7.515 11.028 14.604 16.754 21.746 3.678 4.588 7.624 9.128 10.802 14.112.236.37 1.037 1.37.673 1.133-.61-.399-1.252-1.731-1.626-2.268-4.849-6.96-9.502-14.012-13.565-21.494-3.807-7.01-6.893-14.427-10.815-21.363-.64-1.133-1.362-2.219-1.95-3.382-.246-.486-.421-1.153-.819-1.545-.195-.193.241.5.401.725 1.704 2.395 3.391 4.802 5.118 7.178 5.858 8.062 11.679 16.359 18.384 23.72.905.992 1.342 2.274 1.799 3.532.024.064.488 1.401.255 1.264-1.575-.921-3.091-2.972-4.35-4.207-5.988-5.873-11.903-11.82-17.699-17.893-6.261-6.56-12.208-13.376-18.267-20.123-.476-.53-2.113-2.792-3.085-2.615-.176.032.161.473.213.549.654.953 1.093 2.082 1.685 3.077 2.705 4.549 5.863 8.837 8.972 13.097 5.131 7.032 10.531 13.853 15.294 21.159.884 1.357 1.797 2.7 2.526 4.154.161.32.511.801.552 1.176.041.375-1.166-1.323-1.247-1.415-7.882-9.03-16.383-17.501-24.049-26.725-3.775-4.543-7.135-9.74-11.732-13.48-.281-.228.005.765.173 1.09 4.47 8.623 10.262 16.383 15.647 24.401 4.137 6.161 8.322 12.505 10.679 19.649.842 2.552 1.253 5.198 1.976 7.762.378 1.341-1.329-1.364-1.452-1.519-7.397-9.291-15.331-18.116-22.755-27.383-3.361-4.196-6.567-8.59-9.163-13.34-.6-1.098-1.081-2.394-1.86-3.38-.101-.129.16.284.234.43 1.024 2.007 1.987 4.044 3.04 6.037 5.601 10.589 11.942 20.685 18.501 30.667 2.959 4.504 6.218 8.996 8.718 13.8.267.513.447 1.056.69 1.578.261.561-.748-.98-1.115-1.475-6.307-8.513-12.395-17.103-18.288-25.926-2.943-4.407-5.688-8.995-8.799-13.282-.325-.447-1.271-1.686-1.319-.48-.134 3.362.946 7.019 1.718 10.22 1.8 7.457 4.174 14.75 6.622 22.002 2.118 6.274 4.25 12.618 6.918 18.672.098.221 1.167 2.139.354 1.607-2.41-1.573-4.34-4.003-6.225-6.158-4.1-4.688-7.952-9.61-11.814-14.504-1.213-1.537-2.351-3.272-3.846-4.542-.853-.725.471 3.15.491 3.21 3.565 10.68 10.029 19.97 14.838 30.042 1.156 2.422-2.309-.752-2.724-1.08-3.826-3.035-7.301-6.343-10.924-9.608-1.79-1.615-3.625-3.203-5.138-5.103-.581-.73-1.093-1.507-1.645-2.26-.19-.261-.843-.558-.595-.764.184-.153 3.324 2.747 3.464 2.866a154.593 154.593 0 0 1 12.495 11.972c.919.986 3.414 4.189 2.561 3.141-3.357-4.121-6.44-8.468-9.673-12.69-1.992-2.602-4.01-5.215-6.213-7.636-.66-.724-1.258-1.641-2.055-2.22-.838-.608.41.233.655.374 5.408 3.122 10.704 6.489 15.647 10.344 5.161 4.026 10.194 8.247 15.312 12.332.808.645 1.56 1.422 2.441 1.966.062.038.261.211.236.154-.128-.299-.394-.524-.605-.757-1.281-1.417-2.407-2.977-3.66-4.42-5.526-6.365-11.707-12.146-17.683-18.058-4.888-4.836-9.74-9.516-13.408-15.447-1.664-2.692-2.92-5.576-4.322-8.407-.335-.675-.117.127.126.429 3.223 4.021 7.357 7.464 11.138 10.905 4.568 4.156 9.109 8.301 13.566 12.583a229.386 229.386 0 0 0 8.956 8.191c2.489 2.151 5.553 3.948 8.507 5.355.691.329-.386-.964-.432-1.034-5.156-7.821-10.627-15.473-16.565-22.687-4.923-5.981-10.132-11.745-15.25-17.553-1.491-1.692-2.962-3.395-4.297-5.217-.529-.722.518.46.607.563 1.256 1.429 2.668 2.714 3.944 4.127 3.675 4.069 7.048 8.415 10.601 12.594 9.57 11.256 20.071 21.697 30.346 32.272.501.516.951 1.139 1.529 1.565.317.233.69.299.999.604.39.383.834.708 1.219 1.088 1.737 1.712-2.609-4.159-4.057-6.134-6.795-9.266-14.705-17.549-22.393-26.024-2.729-3.01-5.445-6.033-8.183-9.034-1.11-1.217-2.278-2.388-3.286-3.698-.345-.448-1.518-1.973-.168-.803 6.855 5.946 13.972 11.461 21.061 17.102 4.121 3.278 7.695 7.048 11.425 10.76 2.589 2.576 5.31 4.876 8.095 7.214 1.779 1.492-1.009-1.951-1.185-2.175-7.484-9.483-15.43-18.566-22.742-28.195-5.401-7.113-10.762-14.435-15.073-22.318a82.156 82.156 0 0 1-1.691-3.272c-.352-.718.266-.028.451.159 5.768 5.817 11.774 11.415 17.819 16.927 6.96 6.344 13.987 12.687 21.3 18.604a240.945 240.945 0 0 0 8.621 6.669c.433.319 1.296 1.337 1.853 1.395.138.015.223.033.104-.137-1.338-1.903-3.444-3.433-5.146-4.937-10.341-9.135-20.807-18.11-29.725-28.762-3.893-4.65-7.071-9.783-10.742-14.594-.45-.59-.916-1.158-1.297-1.8-.279-.468.764.771 1.139 1.164 8.147 8.547 16.768 16.55 25.739 24.178 6.73 5.723 13.501 11.376 19.863 17.53 1.664 1.609 3.464 3.279 4.814 5.188.176.249.731.971.525.748-1.227-1.321-2.661-2.46-4.002-3.653-4.024-3.579-8.021-7.197-11.8-11.048-.183-.187-2.525-2.542-2.532-2.298-.022.735.393 1.508.713 2.125 1.591 3.071 3.613 5.966 5.677 8.715 1.985 2.643 4.172 5.12 6.413 7.536 1.037 1.117 2.086 2.281 3.282 3.226.124.099 1.231.777.986.732-.382-.07-.727-.307-1.067-.482-1.507-.774-3.01-1.539-4.487-2.374-2.905-1.642-5.841-3.246-8.724-4.925-.046-.027-.949-.684-.767-.238.416 1.019 1.304 1.918 1.961 2.765 2.244 2.891 4.43 5.899 6.182 9.137.143.265 1.695 3.274 1.041 3.037-2.934-1.062-5.46-3.448-7.764-5.489-1.926-1.708-3.473-3.766-5.329-5.51-6.158-5.788 6.718 7.871 12.58 13.973.132.138 2.486 2.676 1.425 2.551-2.327-.274-4.566-2.025-6.356-3.457-2.731-2.185-.081-.275-3.034-2.128-3.369-2.113-6.526-4.495-9.824-6.703-.144-.096-.623-.403-.475.061.437 1.379 1.56 2.774 2.291 3.99 2.486 4.138 5.274 8.054 7.917 12.082.081.122 1.968 2.899 1.795 2.977-.935.424-3.637-1.928-4.199-2.297-2.645-1.739-5.2-3.633-7.924-5.239-.998-.587-1.264-.653-1.271.606-.009 1.619.287 3.29.504 4.892.024.181.256.798.105.972-.29.331-2.09-.325-2.31-.391-3.657-1.093-6.802-3.241-9.673-5.745-.479-.418-1.067-.876-1.467-1.383-.828-1.05 1.794 1.98 2.707 2.954 3.098 3.303 6.336 6.466 9.439 9.766.105.111 1.834 2.002 1.891 1.806.394-1.369.356-3.084.481-4.494.55-6.202-4.55-10.95-8.283-15.112-4.953-5.523-10.146-10.968-14.356-17.135-1.525-2.234-2.421-4.512-3.312-7.053-.231-.659-4.02-8.997-4.599-8.685-.221.119-.234 1.294-.263 1.469-.262 1.597-.586 3.176-.782 4.785-.252 2.079-.898 4.645-.483 6.737.072.36.265.705-.261.434-2.549-1.313-4.681-3.882-6.576-5.992-1.883-2.098-3.093-3.993-2.782-6.951.05-.47.066-.739.607-.463.885.451 1.634 1.263 2.436 1.845 1.194.865 2.431 1.672 3.646 2.507.863.593 1.854 1.604 2.793 2.039.08.037-.066-.165-.109-.242-.401-.713-.831-1.408-1.227-2.124-1.131-2.049-2.178-4.152-3.206-6.257a87.232 87.232 0 0 1-2.323-5.241c-.176-.43 3.93 1.077 4.283 1.245 1.843.874 3.875 1.707 5.549 2.901.039.027.691.546.471.151-.761-1.367-1.629-2.678-2.404-4.039-1.854-3.258-3.651-6.534-5.052-10.025-.319-.793-1.155-1.92.053-1.03.665.49 9.187 5.337 9.469 4.773.249-.496-.195-1.645-.313-2.074-.588-2.132-1.334-4.213-1.909-6.351-.399-1.486-.763-2.967-.922-4.503-.014-.134-.244-1.244-.082-1.366.561-.422 5.456 4.964 5.823 5.35 3.083 3.238 6.18 6.461 9.398 9.559.411.395 1.611 1.831 1.361.595-.973-4.795-2.838-9.396-4.343-14.033-.47-1.445-.663-3.234-1.319-4.59-.167-.344 1.018 1.645 1.222 1.911 4.051 5.29 7.87 10.73 12.33 15.676.21.233.448.673.723.833.577.335-.555-1.233-.86-1.836-2.061-4.064-4.381-8.097-5.553-12.553-.374-1.423-.647-2.581-.497-4.014"/><path stroke="#FFD424" stroke-linecap="round" stroke-width="3" d="M112.8 156.623c2.041 2.131 5.584 5.478 8.518 6.29.024.006-1.437-1.412-1.813-1.765-1.702-1.602-3.252-3.362-5.002-4.912-.393-.349-1.384-1.455-1.963-1.515-.465-.049.987 3.405 1.074 3.579 1.227 2.449 3.261 5.51 5.886 6.597.977.405 1.84.45 2.862.708 1.039.261 2.522 1.529 1.257-.523-.541-.878-1.295-1.612-1.9-2.446-.191-.262-1.622-2.141-.807-1.747 3.946 1.908 7.425 5.805 12.055 6.131 2.311.163.183-8.204-.073-9.24-.115-.467-1.133-2.496-.986-2.899.044-.12 3.626 3.8 3.886 4.088.895.991 4.234 5.149 4.554 2.106.282-2.684.144-5.867.89-8.467.114-.397 6.179 3.615 7.021 4.045 1.75.893-1.292-5.035-1.399-5.365-.122-.375 1.695 1.004 1.86 1.151.805.719 1.755 2.234 2.03.373.604-4.098.185-8.313.05-12.429-.12-3.689.126-7.252.511-10.912"/><path stroke="#FFD424" stroke-linecap="round" stroke-width="3" d="M127.877 140.38c3.702 2.665 6.045 7.109 8.878 10.608.59.728.797 1.143-.126.358-2.961-2.519-5.551-5.578-7.955-8.619-1.826-2.31-3.564-4.818-4.819-7.492-.459-.977-.813-1.952-1.437-2.822-2.662-3.713 6.281 6.642 9.229 10.132.244.289 1.43 1.842 1.934 1.795.576-.054-1.057-4.966-1.148-5.232-.966-2.794-2.387-5.399-3.423-8.16-.101-.268-.818-2.357-.442-2.187 1.742.792 3.144 2.924 4.549 4.175 1.487 1.325 3.418 2.973 5.348 3.64 3.53 1.219 1.771-8.255 1.674-9.871"/><path stroke="#FFD424" stroke-linecap="round" stroke-width="3" d="M102.478 134.386c1.497.229 2.785 1.015 4.056 1.827 3.194 2.043 6.329 4.258 9.426 6.455 3.582 2.542 7.444 5.367 10.644 8.425 7.226 6.905-13.996-14.371-21.74-20.645-2.872-2.327-5.716-4.871-8.767-6.937-3.482-2.356 6.987 4.673 10.455 7.051 5.944 4.077 11.893 8.605 18.212 12.055.752.41 1.633.719 2.31 1.266.799.647-1.645-1.234-2.424-1.908-4.363-3.772-17.081-15.497-12.515-11.991 3.834 2.945 7.584 5.907 11.631 8.56.883.579 1.863 1.283 2.882 1.594.348.107-1.774-2.546-1.86-2.652-5.925-7.232-12.057-14.31-16.816-22.458-1.903-3.258-2.978-7.192-5.047-10.293-1.638-2.454 4.315 3.95 6.409 5.996 4.72 4.612 9.737 9.074 14.808 13.272 1.128.934 2.341 1.694 3.543 2.514.679.462.702.201.211-.419-4.288-5.418-9.319-10.244-13.715-15.582-2.282-2.771-4.364-5.825-6.821-8.432-1.299-1.379 2.001 1.56 2.047 1.6 6.983 6.085 13.929 12.269 21.025 18.208 3.21 2.688 6.359 5.799 9.79 8.178.087.06 1.017.87.529.308-1.354-1.561-2.827-3.011-4.244-4.509-4.36-4.611-8.804-9.144-13.045-13.873-2.226-2.482-4.61-5.132-7.155-7.271-.498-.419-.383-.442.179-.123 2.376 1.345 4.547 3.223 6.761 4.82a419.683 419.683 0 0 0 19.481 13.259c.264.168 4.905 3.087 4.718 3.614-.241.679-9.124-5.693-9.673-6.119-2.751-2.136-5.509-4.268-8.21-6.469-5.316-4.329 19.333 19.569 14.217 14.989-4.495-4.023-8.488-8.965-12.326-13.64-2.446-2.98-5.644-6.613-6.82-10.464-.808-2.647 6.755 1.377 7.248 1.628 5.74 2.92 11.545 5.721 17.757 7.44 4.178 1.157.984-3.919-.044-5.641-2.762-4.625-6.027-8.918-8.462-13.755-.227-.452-2.535-5.051-1.084-3.971 3.775 2.81 6.729 7.046 10.85 9.36.335.188.957.601.553-.21-1.013-2.032-2.579-3.879-3.859-5.728-.906-1.31-1.976-2.55-2.838-3.888-.13-.203-.961-1.146-.723-.769 1.743 2.762 4.641 4.932 6.938 7.17.824.802 1.688 1.557 2.514 2.358.334.325.631.775.006.08-3.27-3.647-6.825-7.054-9.716-11.052-.514-.712-1.078-1.417-1.564-2.149-.597-.9 1.471 1.565 2.212 2.343 3.12 3.276 6.24 6.557 8.997 10.094 1.542 1.978-5.268-8.375-4.659-5.906.34 1.378 1.367 2.696 2.065 3.885a505.607 505.607 0 0 0 4.13 6.891c1.792 2.947 3.821 5.985 5.002 9.28.489 1.363.643 2.651.831 4.071.083.627.308 1.721-.265.791-.916-1.487-1.918-3.029-3.03-4.365-.175-.21-1.171-1.443-.455-.583 1.95 2.341 3.246 6.089 4.043 9.022.749 2.754 1.213 5.637 1.567 8.479.263 2.112-.529.448-1.038-.519-.955-1.811-1.835-3.732-3.094-5.348-1.994-2.558 2.549 6.048 3.478 9.199.203.688-1.016-.977-1.48-1.509-1.291-1.483-2.639-2.91-3.955-4.368-.753-.834-1.459-1.922-2.386-2.566-.337-.234 1.358 2.113 1.542 2.367 2.137 2.959 4.322 5.849 6.315 8.915.99 1.523.643 2.008-.463.36-.692-1.031-1.626-2.341-2.024-3.551-.506-1.539 1.68 2.745 2.445 4.162.369.684 1.136 2.546-.051 1.066-.73-.91-1.497-1.968-2.718-2.144-2.358-.34-1.199 4.954-.768 6.155.393 1.097-.836.325-1.367.014a35.947 35.947 0 0 1-2.839-1.858c-.368-.265-1.271-1.264-1.064-.851 1.307 2.597 7.368 8.872 5.554 6.63-1.604-1.983-3.862-3.278-5.484-5.269-1.479-1.815-.05-.135.908.599.301.232 2.237 2.424 1.485.881-1.243-2.55-2.7-4.983-3.942-7.532-.089-.184-1.246-2.218-.881-2.013 2.407 1.347 4.582 4.356 6.527 6.323.193.195 2.888 2.916 1.691 2.098-1.662-1.134-3.531-2.662-4.836-4.224-.229-.275-1.528-1.83-2.043-1.348-.599.56.207 3.462.322 4.159.15.907.878 2.598-.421 2.853-2.157.423-4.609-.898-6.372-2.024-1.559-.995-.736.069-.041.972 1.605 2.087 2.997 4.329 4.539 6.461.868 1.199-3.571-1.925-3.954-2.211-1.717-1.281-4.093-2.604-5.396-4.378-1.284-1.747 3.811 1.939 5.623 3.079 1.576.992 6.222 4.1 4.687 3.044-3.755-2.584-7.389-5.377-11.064-8.044-.696-.505 0 1.943.018 2.285.184 3.625-1.371 6.275-4.601 7.83-4.574 2.203-10.27 1.614-15.122.978-2.509-.329-5.156-1.111-7.21-2.711-1.646-1.282.857.174 1.382.571 1.183.895 2.268 2.303 3.518 3.046.966.576-.647-1.601-.782-1.798-.264-.386-2.637-3.476-1.618-3.083 2.591.997 4.747 2.867 7.068 4.348 2.323 1.483-.651-.485-1.353-1.134-1.028-.951-1.884-2.075-2.896-3.044-.073-.07-1.33-1.308-.904-1.213 1.353.302 2.866 1.633 3.997 2.388 1.724 1.151 3.351 2.449 5.013 3.692.416.312 4.052 2.902 1.827 1.814-10.875-5.319-21.079-12.583-31.292-19.114-4.435-2.836-4.041-3.078-8.546-5.789-.354-.213-.604-.252-.213.151.975 1.007-2.955-.501-2.09.609 1.92 2.464 3.556 5.163 5.465 7.613.246.314 1.813 1.985 1.806 1.874-.055-.793-.92-1.636-1.293-2.277-.562-.965-.881-2.033-1.381-3.027-1.368-2.718 1.124.259 1.997 1.06 2.36 2.166 4.825 4.129 7.323 6.108.408.323.611.443.483-.264-.406-2.241-1.324-4.458-2.085-6.581-1.83-5.105-3.8-9.884-4.752-15.269-.105-.596-.58-2.994.239-1.833 1.267 1.795 2.9 3.382 4.564 4.778 1.4 1.175.63-.917.342-1.806a40.592 40.592 0 0 0-1.586-4.104c-.293-.654-1.05-1.6-1.073-2.348-.018-.554 3.244 2.352 3.612 2.726.207.21 1.891 1.538 1.881 1.3-.07-1.643-1.517-3.915-2.227-5.368-.745-1.524.489-.472 1.188.094.665.537 2.463 1.773 2.737 2.539"/><path stroke="#FFD424" stroke-linecap="round" stroke-width="3" d="M108.937 151.5c2.847.573 5.691 2.674 8.065 4.307.198.137 1.932 1.053 1.443.803-1.62-.831-3.084-2.071-4.525-3.182-2.534-1.954-4.985-3.994-7.429-6.062-.074-.062-.564-.477-.441-.098.143.437.535.825.805 1.164.996 1.25 1.941 2.541 2.96 3.771 1.692 2.044 3.377 4.123 5.146 6.096.77.858 1.608 1.617 2.097 2.692.883 1.939-4.559-1.631-4.817-1.834-5.091-3.991-9.788-8.547-14.504-12.997-.282-.266-2.752-2.671-1.456-1.038 2.35 2.962 4.426 6.219 6.914 9.052.39.444.851.888 1.211 1.35.401.515-.87-.973-1.244-1.509-2.561-3.673-4.493-7.855-7.574-11.125-1.115-1.184-2.767-3.13-4.388-3.648-.483-.154.479.922.745 1.366.772 1.286 1.548 2.539 2.424 3.754 1.422 1.971 5.714 7.861 4.222 5.946-1.152-1.479-2.516-2.76-3.69-4.212-.079-.098-.64-.735-.328-.217 1.251 2.08 2.96 4.078 4.556 5.865 2.895 3.239 6.276 5.837 9.396 8.805 1.225 1.166 1.135.801.045-.308-.813-.825-3.713-2.625-2.632-2.253.953.328 1.765 1.035 2.632 1.538a11.93 11.93 0 0 0 4.547 1.545c.723.086 1.443.311 1.328-.719-.176-1.576-.989-2.932-1.838-4.2-.494-.737-1.04-1.461-1.441-2.259-.354-.703 1.169.832 1.2.855 2.704 2.014 5.475 3.962 8.434 5.556 1.747.941 4.18 2.557 6.273 2.286 2.043-.265.415-4.121.058-5.081-2.509-6.745-5.59-13.231-7.898-20.069-3.093-9.162-4.118-18.19-2.689-27.808.505-3.398 1.586-8.143 4.31-10.5 3.237-2.8 7.279-2.781 11.242-2.33 2.97.338 5.719 1.31 8.605 2.023 1.114.275 4.028 1.376 4.745-.217.784-1.742-.091-3.978-.954-5.46-1.738-2.981-4.152-5.592-6.394-8.164a277.19 277.19 0 0 1-3.547-4.145c-1.128-1.346-.623.742-.423 1.4 1.134 3.72 3.319 7.05 5.007 10.516.352.722.488.967-.272.205-1.927-1.93-3.861-3.752-5.266-6.147-.666-1.135-2.216-4.789-1.77-3.542.68 1.898 1.989 3.457 2.882 5.233.008.016-5.032-6.978-5.593-6.246-.487.635 3.483 6.162 3.913 6.863.151.246 1.732 3.661 1.597 3.628-1.401-.342-3.127-2.261-4.203-3.147-1.665-1.372-3.255-2.837-4.918-4.212-.147-.121-1.566-1.555-1.108-.662 1.027 1.999 2.493 3.806 3.835 5.58.206.272 4.477 6.356 4.586 6.297.213-.117-.239-.43-.385-.626a30.471 30.471 0 0 1-1.463-2.17c-1.314-2.135-2.551-4.31-3.629-6.586-.608-1.285-1.222-2.565-1.64-3.932-.137-.446-.28-1.094-.533-1.487-1.309-2.036 2.432 4.198 3.741 6.234a96.777 96.777 0 0 0 1.863 2.771c.15.216-1.33-.636-1.452-.725-1.107-.8-3.276-2.326-3.846-3.682-.217-.516-2.326-.85-2.811-1.024-.798-.284-1.79-1.03-1.355.378.701 2.27 1.872 4.778 3.255 6.69.496.686-.057-.017-.237-.363-.773-1.482-1.671-2.867-2.557-4.275-.753-1.197-1.441-2.349-2.349-3.395-.358-.414-.982-.685-1.272-1.123-.835-1.259 1.125 2.833 1.815 4.185.965 1.891 1.869 3.834 2.99 5.634.429.69.948 2.082 1.542 2.608 1.453 1.287-2.775-2.726-4.211-4.033-.308-.28-4.502-3.421-4.494-2.879.014.937.855 2.119 1.246 2.915.681 1.384 1.418 2.74 2.017 4.166.411.975 1.136 2.19 1.02 3.295-.142 1.347-.875 2.591-1.416 3.818-.619 1.403-.755 1.886-1.915.697-2.087-2.141-3.78-4.787-6.084-6.702-.456-.378.13 1.226.364 1.782 1.419 3.379 3.203 6.625 4.887 9.866a156.76 156.76 0 0 0 3.109 5.699c.197.345.47 1.026.778 1.292 1.03.885-1.69-2.154-2.46-3.29"/><path stroke="#171717" stroke-width="2.5" d="M165.848 132.307c-2.313 22.01-21.452 38.039-42.748 35.801-21.296-2.239-36.685-21.896-34.371-43.907 2.313-22.01 22.611-49.062 43.907-46.824 21.296 2.238 35.526 32.919 33.212 54.93Z"/><path stroke="#171717" stroke-linecap="round" stroke-width="2.5" d="m148.065 85.847-20.591 21.863a1.14 1.14 0 0 0 .298 1.79l12.254 6.462"/><path stroke="#171717" stroke-linecap="round" stroke-width="1.5" d="M88.176 118.927c.199-1.89.474-3.542 1.767-5.045.554-.644 1.006-1.744 1.405-2.514.465-.899 1.059-1.737 1.603-2.589a77.135 77.135 0 0 0 3.484-6.005c.956-1.846 1.829-3.817 3.142-5.47 2.578-3.244 4.871-6.769 8.074-9.464 1.464-1.232 3.014-2.269 4.507-3.478 1.158-.937 2.291-1.877 3.556-2.669 1.52-.952 3.232-1.584 4.747-2.544 1.931-1.224 3.918-1.976 6.19-2.297 1.989-.28 4.381.365 6.384.576 1.929.203 3.78.345 5.604 1.064 2.026.8 3.218 1.956 4.772 3.45 2.532 2.434 5.089 4.897 7.339 7.575 1.122 1.336 2.431 2.59 3.586 3.885.544.61.966 1.31 1.603 1.838.446.37 1.491 1.09.275.6M157.164 94.552c-.122 1.161 1.237 2.893 1.674 3.98.507 1.26 1.204 2.491 1.542 3.817.596 2.332 1.817 4.51 2.574 6.779.74 2.22 1.447 4.436 1.856 6.767.224 1.275.504 2.482.565 3.768.049 1.003-.001 2.137.191 3.115.415 2.115.516 4.538.29 6.687-.225 2.144-.083 4.407-.31 6.571-.104.986-.031 2.255-.347 3.197-.216.645-.89 1.333-.959 1.991"/><path stroke="#171717" stroke-linecap="round" stroke-width="1.5" d="M164.849 139.047c-.426 4.05-2.344 7.211-4.533 10.554-2.537 3.875-4.627 7.987-8.836 10.292-1.658.907-3.19 2.048-4.87 2.911-.669.343-1.605.917-2.185 1.387-.655.53-1.448.741-2.124 1.203-.686.469-1.859.603-2.658.862-.807.262-1.648.35-2.476.543-1.645.382-3.252.638-4.909.963"/><path stroke="#171717" stroke-linecap="round" stroke-width="1.5" d="m133.106 167.852-2.592-.273c-.846-.088-2.239-.243-3.081-.038-1.649.4-3.523-.148-5.194.162-1.183.219-2.747.049-3.943-.076-.972-.103-1.899-.153-2.813-.486-.979-.357-1.83-.893-2.688-1.466-.767-.513-1.661-1.071-2.384-1.645-1.48-1.177-3.362-2.076-5.087-2.859-.825-.375-1.959-1.108-2.679-1.656-1-.76-2.023-1.391-2.927-2.304-1.544-1.56-3.07-3.77-3.868-5.827-.605-1.559-1.761-2.789-2.5-4.256-.153-.304-1.317-1.85-1.233-1.841"/><path stroke="#171717" stroke-linecap="round" stroke-width="1.5" d="M92.913 146.756c-.505-.787-.704-2.072-1.062-2.964-.553-1.38-1.362-2.745-1.987-4.108-.6-1.308-1.289-2.728-1.67-4.116-.394-1.433-.438-3.188-.555-4.676-.196-2.49-.002-4.774.291-7.291.265-2.273.945-4.532 1.296-6.805.463-2.993 1.53-6.029 2.81-8.738M147.381 86.038c-1.912 1.549-4.376 3.368-5.741 5.418-.494.742-1.246 1.27-1.794 1.982a21.484 21.484 0 0 1-3.245 3.397c-1.517 1.257-3.651 2.44-4.795 4.054-.484.681-.956 1.424-1.526 2.038-.585.63-1.909 1.218-2.059 2.162-.06.38-.142 1.122-.411 1.401-.27.281-.55 1.033-.795 1.191-.613.392.39.525.531.603.859.473 1.626 1.026 2.416 1.613 1.029.763 1.972 1.639 2.939 2.479.858.746 1.985 1.18 2.856 1.924 1.032.882 2.008 1.905 3.113 2.611"/></g><defs><filter id="a" width="109.594" height="123.074" x="72.5" y="65.244" color-interpolation-filters="sRGB" filterUnits="userSpaceOnUse"><feFlood flood-opacity="0" result="BackgroundImageFix"/><feColorMatrix in="SourceAlpha" result="hardAlpha" values="0 0 0 0 0 0 0 0 0 0 0 0 0 0 0 0 0 0 127 0"/><feOffset dy="2"/><feGaussianBlur stdDeviation="1"/><feComposite in2="hardAlpha" operator="out"/><feColorMatrix values="0 0 0 0 0 0 0 0 0 0 0 0 0 0 0 0 0 0 0.02 0"/><feBlend in2="BackgroundImageFix" result="effect1_dropShadow_998_3066"/><feColorMatrix in="SourceAlpha" result="hardAlpha" values="0 0 0 0 0 0 0 0 0 0 0 0 0 0 0 0 0 0 127 0"/><feOffset dy="4"/><feGaussianBlur stdDeviation="4"/><feComposite in2="hardAlpha" operator="out"/><feColorMatrix values="0 0 0 0 0 0 0 0 0 0 0 0 0 0 0 0 0 0 0.06 0"/><feBlend in2="effect1_dropShadow_998_3066" result="effect2_dropShadow_998_3066"/><feBlend in="SourceGraphic" in2="effect2_dropShadow_998_3066" result="shape"/></filter></defs></svg>