<svg xmlns="http://www.w3.org/2000/svg" width="411" height="269" fill="none"><path fill="#fff" d="M134.269 268.062C60.495 268.062.479 208.045.479 134.27S60.495.479 134.269.479c49.487 0 94.462 27.194 117.701 70.242l118.242-36.372a31.593 31.593 0 0 1 9.278-1.403 31.454 31.454 0 0 1 15.212 3.955c7.538 4.175 12.929 11.07 15.16 19.403 2.231 8.332 1.014 16.986-3.431 24.372-4.445 7.386-11.527 12.524-19.927 14.45l-118.985 27.262c.355 3.972.541 7.944.541 11.899 0 73.775-60.016 133.792-133.791 133.792v-.017Z"/><path stroke="#C6C6C8" stroke-linecap="round" stroke-width="4" d="M36.196 106.155c.472 4.722 1.557 9.469 2.397 14.151.301 1.677.647 6.307 1.121 2.513.857-6.855 4.81-14.538 7.463-20.84 1.213-2.882-.628-6.66.541-9.666 1.38-3.55-1.302 4.555-1.547 5.142-4.061 9.748-5.61 20.516-9.627 30.159-1.612 3.869.563-8.438 1.779-12.45 2.238-7.389 5.759-14.912 10.246-21.227.552-.778.85-2.053.85-.541v8.428c0 3.024-.663 9.097.155 2.475.977-7.917 4.61-15.656 7.5-23.044 1.712-4.372 1.38.101 1.006 2.397-.747 4.59-2.223 18.185-3.054 13.61-1.184-6.51 2.722-14.647 5.528-20.26.722-1.444 4.558-8.425 3.055-2.745-1.085 4.097-3.75 8.532-3.75 12.798 0 1.862-.02-3.77.463-5.568 1.18-4.38 3.914-8.568 5.955-12.605 1.183-2.339 4.87-10.42 3.866-2.938-.72 5.363-3.133 10.406-5.103 15.388-.427 1.08-2.287 8.594-3.635 8.893-.32.071 1.295-4.592 1.353-4.717 2.192-4.712 5.123-9.177 7.578-13.764 2.194-4.1 4.965-7.853 7.54-11.716.05-.074 1.906-2.716 2.126-2.165.653 1.631-1.56 5.514-2.01 6.844-.726 2.144-1.039 4.506-2.436 6.302-1.097 1.41-2.474 6.543-2.474 4.756 0-7.427 7.002-14.58 11.986-19.565 1.016-1.016 2.32-5.071 2.32-3.634 0 2.818-2.844 7.576-3.867 10.285-.666 1.762-1.696 3.89-.657.773 1.647-4.941 6.871-10.421 11.019-13.416 2.206-1.594 2.455-2.268.773.734-2.201 3.931-7.202 16.517-5.529 12.334 2.642-6.603 7.083-10.562 11.947-15.427 4.839-4.839-.614 2.93-1.817 5.336-1.7 3.4.463-.149 1.663-1.315 2.921-2.84 6.197-6.09 9.589-8.351 2.827-1.886-.721 2.326-1.083 2.938-1.473 2.492-3.634 7.888-3.634 7.888s3.231-3.877 5.258-5.336c3.727-2.684 7.071-5.519 11.019-7.888.623-.374-.958 1.107-1.314 1.74-.754 1.34-1.241 2.69-2.398 3.75-1.865 1.71-1.096 1.845.774.349 3.565-2.852 8.119-6.82 12.256-8.7 3.947-1.794 1.027.868.155 2.475-.309.569-2.921 5.087-1.933 4.717 2.821-1.058 4.97-4.121 8.042-5.259 5.278-1.955-.602 3.423-1.276 6.457-.43 1.936 1.286-.569 2.474-1.392 2.367-1.638 4.851-3.243 7.656-3.866 1.785-.397-2.572 3.422-2.436 5.606.032.513 5.213-2.297 6.109-2.629 1.361-.504 2.896-1.387 4.33-1.546 2.146-.239.947.445-.348 1.74-.524.524-3.045 3.869-.657 2.783 2.08-.945 4.421-1.319 6.573-2.087 1.098-.392 3.874-1.701 3.441-.62-.163.408-5.007 6.468-.657 4.293 3.004-1.502 5.899-1.58 9.047-2.63"/><path fill="#fff" stroke="#171717" stroke-width="2.5" d="M373.297 48.363c9.038-2.78 18.577 2.498 21.025 11.63 2.447 9.134-3.176 18.474-12.392 20.586l-132.158 30.28-2.535-8.973-2.535-6.76-2.535-6.434 131.13-40.33Z"/><circle cx="8.655" cy="8.655" r="8.655" stroke="#171717" stroke-width="2.5" transform="rotate(75 155.345 275.893)"/><ellipse cx="133.002" cy="134.148" stroke="#171717" stroke-width="2.5" rx="119" ry="119.001"/><ellipse cx="133.001" cy="134.148" stroke="#171717" stroke-width="2.5" rx="97.364" ry="97.365"/><path stroke="#171717" stroke-linecap="round" stroke-width="1.5" d="M243.617 89.092c4.581 0 8.745-.48 13.186-1.49 1.279-.29 2.368-1.163 3.582-1.648 1.076-.431 2.045-.722 3.059-1.268 1.216-.656 2.683-.946 3.978-1.316 6.055-1.73 12.083-4.563 18.003-6.83 11.632-4.455 23.674-7.942 35.438-11.982 5.247-1.802 10.813-2.81 16.165-4.28 5.109-1.402 10.138-2.993 15.278-4.278 6.826-1.707 13.807-4.054 20.825-4.834 5.449-.606 11.895-1.193 16.656 1.981 4.354 2.903 3.598 9.022 3.598 13.598 0 3.667-.731 7.474-3.645 9.858-.728.595-2.519.425-3.423.57-1.359.22-2.918.753-4.216 1.22-1.877.677-3.615 1.76-5.595 2.156-3.547.71-7.11 2.306-10.571 3.344-4.153 1.246-8.53 2.126-12.504 3.915-2.613 1.176-6.015 1.957-8.828 2.488-3.185.601-6.307 1.617-9.54 2.155-3.688.615-7.44 1.298-11.142 1.776-3.472.448-6.754 1.514-10.19 2.06-3.402.54-6.85 2.047-10.191 2.932-3.239.857-6.208 1.991-9.572 2.425-4.245.547-8.411 1.557-12.695 1.933-4.71.414-9.297 1.255-13.978 1.775-3.867.43-8.022 1.768-11.76 2.853-1.591.462-3.722 1.712-5.357 1.712M38.08 113.456c0-2.306-.08-4.581.258-6.861.204-1.376 1.05-2.74 1.813-3.884.837-1.257 1.337-2.667 2.129-3.956 1.216-1.982 2.318-4.05 3.567-6.013 1.145-1.8 2.78-3.536 3.625-5.495.776-1.797 2.17-3.621 3.38-5.135 2.828-3.535 5.295-7.386 8.272-10.803a111.268 111.268 0 0 1 8.17-8.473c3.085-2.872 6.59-5.127 9.955-7.639 4.825-3.601 9.793-6.864 14.96-9.896 2.962-1.74 6.556-2.459 9.897-3.194 4.122-.907 8.166-1.875 12.371-2.388 7.447-.908 14.883-1.093 22.382-1.093"/><path stroke="#171717" stroke-linecap="round" stroke-width="1.5" d="M136.225 38.278c3.416 0 6.839-.063 10.255 0 2.845.053 5.67.796 8.454 1.278 1.365.236 2.709.75 4.034 1.155 2.059.63 4.013 1.493 6.052 2.14 3.598 1.143 6.716 3.614 10.178 5.097 1.875.804 3.597 1.986 5.305 3.088a123.88 123.88 0 0 0 4.95 3.041 60.632 60.632 0 0 1 8.285 5.79c1.174.975 2.546 1.73 3.618 2.803a185.138 185.138 0 0 1 4.066 4.188c2.484 2.648 6.148 4.025 8.107 7.16.303.486.61.96.693 1.54.018.13.146.685.146.277"/><path stroke="#171717" stroke-linecap="round" stroke-width="1.5" d="M209.673 75.281c.071.64 1.066 1.593 1.417 2.14.778 1.218 1.731 2.326 2.463 3.573 1.128 1.92 2.213 3.858 3.496 5.682 3.006 4.276 5.02 9.543 6.513 14.521.832 2.774 1.118 5.648 1.771 8.454.505 2.169.667 4.393 1.247 6.544.527 1.953.987 3.938 1.525 5.898.167.61.237 1.26.523 1.832.156.311.222.476.031 0"/><path stroke="#171717" stroke-linecap="round" stroke-width="1.5" d="M228.938 121.846c0 1.687-.08 3.399.208 5.066.322 1.868.253 3.83.7 5.682.486 2.012.598 4.139.863 6.19.258 2.005.169 4.046.169 6.067 0 2.354-.663 4.64-1.178 6.93-.562 2.498-1.149 5.048-1.94 7.483-.888 2.732-1.953 5.387-3.01 8.054-.827 2.085-1.777 4.066-2.403 6.228-.212.735-.379 1.501-.616 2.21M148.97 229.8c2.65 0 5.389.333 7.885-.575 1.619-.589 3.333-1.344 5.043-1.724 1.556-.345 3.553-1.477 5.044-2.154 1.213-.552 2.857-.511 4.006-1.15 1.857-1.031 3.974-1.745 5.89-2.729 2.249-1.155 4.43-2.353 6.544-3.735 1.214-.794 2.539-2.14 3.862-2.65 1.759-.676 4.046-2.105 5.395-3.383 1.25-1.185 2.821-1.987 4.166-3.033 1.63-1.268 2.839-2.823 4.294-4.278 1.652-1.652 3.629-3.641 4.9-5.618 1.208-1.879 3.033-3.355 4.293-5.187 2.231-3.245 4.365-6.617 7.055-9.465 2.161-2.289 3.735-4.789 3.735-8.045"/><path stroke="#171717" stroke-linecap="round" stroke-width="1.5" d="M73.696 212.848c1.47.147 3.332 2.373 4.47 3.304 1.166.954 2.557 1.691 3.862 2.378 1.585.834 3.455 1.1 5.028 1.947 1.635.881 3.345 1.843 5.091 2.49 1.502.556 2.933 1.421 4.406 2.091 1.464.666 3.225.917 4.724 1.516 1.875.75 4.334 1.295 6.305 1.788 1.881.47 3.761 1.152 5.618 1.724 3.804 1.17 7.651 1.724 11.62 1.724 3.777 0 7.65.287 11.364.287 3.588 0 7.223-.287 10.758-.287 3.018 0 5.853-2.012 8.922-2.012"/><path stroke="#171717" stroke-linecap="round" stroke-width="1.5" d="M74.558 213.137c-2.082-2.082-4.058-4.139-6.097-6.257-1.506-1.563-2.728-3.396-4.102-5.075-.536-.655-1.188-.776-1.644-1.596-.421-.758-1.46-1.277-2.011-2.012-3.182-4.242-6.67-8.051-8.492-13.152-.663-1.857-1.828-3.654-2.362-5.522-.38-1.331-.946-3.078-1.5-4.31-2.6-5.777-4.638-11.758-6.544-17.812-.997-3.168-1.843-6.306-2.298-9.609-.362-2.623-1.362-5.277-1.437-7.917-.105-3.66-.287-7.391-.287-10.981 0-2.84-.288-5.68-.288-8.539 0-1.275-.268-2.927.288-4.039m-23.344 7c0-4.598.92-9.414 3.002-13.579 1.827-3.653 3.72-7.812 4.628-11.808.409-1.798 1.348-3.515 2.031-5.223.836-2.09 1.437-4.41 2.611-6.34 1.15-1.89 1.821-4.15 2.815-6.136 1.242-2.484 2.243-5.088 3.713-7.457 1.92-3.093 3.477-6.632 5.876-9.385 2.155-2.476 4.1-5.08 6.397-7.443 1.234-1.268 2.16-2.87 3.395-4.178.816-.864 1.578-1.837 2.364-2.741.503-.578 1.511-1.912 2.206-2.22.916-.407 1.488-1.618 2.074-2.35.855-1.068 1.673-2.312 2.64-3.279 1.814-1.814 3.68-3.49 6.064-4.555"/><path stroke="#171717" stroke-linecap="round" stroke-width="1.5" d="M61.176 38.71c1.981 0 3.792-1.03 5.382-2.09 2.404-1.603 4.958-3.055 7.413-4.555 3.588-2.192 7.248-4.306 11.112-6.006 4.46-1.962 8.826-5.18 13.68-6.15 4.852-.971 9.552-2.495 14.507-3.134 3.606-.466 7.153-1.18 10.779-1.51 2.464-.223 4.904-.451 7.369-.637 2.276-.172 4.582-.04 6.847-.261 6.997-.683 14.706-.632 21.296 2.088 3.412 1.409 6.904 2.578 10.3 4.033 3.55 1.522 7.042 3.343 10.445 5.165"/><path stroke="#171717" stroke-linecap="round" stroke-width="1.5" d="M172.156 20.952c1.481.165 2.532 1.693 3.917 2.09 1.617.461 3.2 1.839 4.7 2.61 4.785 2.46 10.062 4.118 14.681 6.848 10.584 6.254 20.466 14.024 28.463 23.443 2.211 2.605 4.494 5.146 6.455 7.964 2.065 2.968 3.353 6.234 5.237 9.27 2.959 4.767 4.565 10.589 6.325 15.871.417 1.25.889 2.654 1.233 3.859.257.896.959 2.084 1.059 2.988.15 1.35 1.251 2.692 1.553 4.048.161.725.467 1.559.798 2.219"/><path stroke="#171717" stroke-linecap="round" stroke-width="1.5" d="M245.011 97.725c0 4.927 2.63 9.65 4.584 14.115 2.4 5.485 2.803 11.843 3.569 17.684 1.042 7.952.75 16.613-.711 24.502-.346 1.869-.444 4.093-1.233 5.847-.797 1.771-1.668 3.48-2.539 5.222-1.558 3.117-2.566 6.029-3.409 9.401"/><path stroke="#171717" stroke-linecap="round" stroke-width="1.5" d="M118.868 252.753h16.385c4.491 0 8.389-.797 12.785-1.611 6.329-1.172 12.976-1.506 19.148-3.221 3.343-.928 6.477-2.154 9.644-3.579 3.283-1.477 6.712-2.513 9.763-4.474 5.475-3.52 11.585-6.548 16.384-11.095 1.742-1.65 3.958-3.022 5.886-4.454 3.951-2.936 7.964-6.372 11.075-10.201 1.82-2.239 3.637-4.464 5.23-6.9 1.791-2.74 4.241-5.079 5.925-7.834 4.168-6.82 8.393-13.119 11.612-20.361.942-2.119 1.51-4.569 2.148-6.801.583-2.042 2.505-4.035 2.505-6.084M17.94 108.871c0 4.383-1.833 8.104-2.486 12.348-.588 3.823-1.094 7.326-1.094 11.274 0 6.631 2.513 12.774 3.241 19.328.536 4.822 1.656 9.629 2.923 14.316.832 3.078 2.19 6.009 3.222 9.028 1.515 4.434 2.784 8.839 4.573 13.183 2.859 6.943 7.376 11.991 12.447 17.438 1.885 2.024 2.902 4.798 4.753 6.88.796.896 1.43 1.816 2.127 2.784.3.416 1.761.795.716.795"/><path stroke="#171717" stroke-linecap="round" stroke-width="1.5" d="M45.143 214.099c2.493 2.244 4.833 5.151 7.675 6.959 4.26 2.711 8.19 5.927 12.368 8.789 4.764 3.264 9.514 6.334 14.495 9.286 3.874 2.295 7.996 3.803 11.99 5.746 3.222 1.568 6.795 2.483 10.022 4.096 3.343 1.672 7.85 1.496 11.453 2.347 5.302 1.252 10.728 1.927 16.106 2.525 1.592.177 11.94.239 11.811-.02M372.411 56.242c-.402 0-.816-.03-1.216.01-.865.086-1.656.603-2.362 1.068-.586.386-1.141.883-1.638 1.38-.319.318-.717.616-.819 1.077-.509 2.29-.259 4.747-.259 7.09 0 1.103.214 2.086.561 3.127.332.998 1.243 1.605 2.15 2.074 1.471.76 2.837 1.598 4.484 1.978 1.655.382 3.086.164 4.531-.69 1.698-1.003 2.935-2.237 3.899-3.942.584-1.032.886-2.28 1.145-3.43.286-1.27.439-2.887-.043-4.128-.432-1.11-1.15-2.179-1.983-3.027-.857-.873-2.004-1.94-3.191-2.328-.63-.207-1.25-.45-1.896-.604-.667-.16-1.389-.086-2.07-.086-.516 0-1.13-.094-1.638.019-.276.061-.579.153-.862.153"/><g filter="url(#a)"><circle cx="113.065" cy="100.83" r="25.394" fill="#fff" stroke="#fff" stroke-width="8"/><path stroke="#FFD424" stroke-linecap="round" stroke-width="4" d="M110.789 79c1.704 0 3.585.91 5.06 1.639 5.165 2.551 9.87 6.023 14.652 9.211 1.909 1.273 2.046 2.5 3.759 4.041.717.645 3.08 1.973 2.116 1.973-1.247 0-3.134-1.425-4.168-1.973-3.161-1.675-4.444-2.996-7.546-4.805-2.499-1.457-5.176-2.66-7.636-4.136-.941-.565-5.321-4.02-2.18-1.925 3.045 2.03 7.195 3.66 9.546 6.555 1.608 1.98 3.968 3.84 5.934 5.457.881.724 1.789 1.408 2.8 1.94.417.22-.638.792.159.573-6.12-1.112-11.327-5.383-17.039-7.525-1.393-.523-2.892-.674-4.311-1.161-.83-.286-2.64-.795-3.277-1.432-.33-.33-.049-.88-.223-1.273-.496-1.115-1.53-2.024-2.227-3.023-.157-.224-2.107-2.037-.955-1.781 3.208.712 6.505 3.07 9.259 4.74 5.006 3.035 9.94 6.059 14.748 9.371 1.687 1.162 1.669 2.416 2.852 4.137.319.463.927.929 1.448 1.161.108.048.806.684.652.795-1.278.93-3.716-1.802-4.809-2.29-3.45-1.542-6.577-3.617-9.736-5.664-2.46-1.594-5.305-2.638-8.018-3.723-1.837-.735-3.714-1.32-5.441-2.291-.225-.126-2.504-1.795-2.387-1.845.502-.215 1.733.368 2.164.54 3.659 1.47 7.127 3.585 10.58 5.473a3133.2 3133.2 0 0 1 13.936 7.684c1.495.828 1.243 1.56 2.502 2.753.817.774-1.548-.868-1.85-.987-6.204-2.447-12.49-4.805-18.295-8.113-3.189-1.817-6.368-3.618-9.514-5.505-1.497-.898-3.035-1.603-4.28-2.848-.137-.138-1.048-.875-.938-.875 3.521 0 7.499 3.34 10.388 5.012 5.328 3.081 10.544 6.218 15.703 9.577 3.905 2.543 5.618 5.162 9.773 7.239 1.126.563-1.216.197-1.559.159-4.055-.451-6.053-1.804-9.901-3.087-3.249-1.083-6.763-1.989-9.577-4.025a105.6 105.6 0 0 1-6.014-4.693c-1.6-1.345-2.717-3.342-4.311-4.582-.274-.213-.69-.321-1.002-.509-1.688-1.012 3.724 1.294 5.504 2.132 8.288 3.9 16.895 7.36 24.151 13.046.992.777-.071 1.898.831 2.8.504.504-3.496-.241-3.918-.334-6.012-1.33-12.043-2.732-17.675-5.282-6.32-2.862-11.145-7.036-16.562-11.153-5.732-4.357 12.906 6.39 19.378 9.546 5.991 2.922 12.136 5.632 18.025 8.75.098.052 2.007 1.145 1.591 1.145-.527 0-1.249-.439-1.734-.604-1.772-.605-3.532-1.24-5.314-1.814-5.15-1.659-10.427-3.266-15.4-5.409-4.425-1.907-8.259-4.674-12.25-7.318-.373-.247-2.45-1.997-1.846-1.368 1.656 1.721 3.069 3.287 5.187 4.581 7.834 4.788 16.402 8.838 24.627 12.951.99.495 1.975.961 2.896 1.575.142.095 2 .843 1.527.843-.588 0-1.277-.482-1.766-.732-2.184-1.114-4.451-2.043-6.698-3.023-5.043-2.2-10.254-3.978-15.272-6.236-3.095-1.393-6.167-3.272-8.719-5.441-.687-.584-1.731-1.196-2.561-1.56-1.195-.522.175-.47.748-.254 4.341 1.647 8.485 4.082 12.663 6.093 4.099 1.974 8.122 4.072 12.171 6.141 1.815.928 3.333 2.097 5.043 3.103.41.241 2.808 2.294 2.228 2.45-1.57.422-4.485-.987-5.966-1.368-4.721-1.214-9.277-2.812-13.698-4.869-5.43-2.525-9.57-5.856-13.316-10.436-.184-.225-.159-.405.175-.239 1.542.772 2.933 2.05 4.359 3.007 6.594 4.43 13.894 7.943 21.095 11.264 3.358 1.548 6.854 2.808 10.151 4.486.14.072 1.908 1.203 1.781 1.305-.246.197-1.087.069-1.336.063-2.259-.049-4.472-.523-6.666-1.034-6.032-1.404-12.057-3.187-17.834-5.425-4.71-1.824-8.83-4.351-12.728-7.541-1.137-.93-.999-1.809-1.866-3.022-.193-.27-1.449-.134-1.411-.128 1.123.18 2.124.906 3.086 1.464 4.194 2.43 8.473 4.715 12.696 7.095 3.978 2.243 7.864 4.822 12.091 6.587 1.522.635 3.435 1.073 4.805 2.004.357.243.158.28-.191.223-1.849-.302-3.668-.878-5.457-1.416-6.891-2.073-13.811-4.098-20.539-6.666-1.948-.743-4.312-1.825-5.95-3.166-.249-.203-1.122-1.008-.239-.541 7.338 3.885 15.375 6.545 22.862 10.135 1.553.744 3.165 1.296 4.709 2.068 2.126 1.063.383.819-1.05.382-5.126-1.564-10.102-3.567-15.273-5.012-4.646-1.298-7.276-2.538-11.825-4.152-2.526-.897.76.188 1.182.318 6.421 1.982 12.616 4.581 18.852 7.064 3.816 1.519 7.732 2.921 11.487 4.423 4.556 1.822-9.851-.851-14.541-2.291-2.553-.784-5.21-1.727-7.589-2.944-.913-.466-4.053-1.38-4.39-2.561-.042-.144 5.254.629 5.647.716 2.344.521 4.459 1.323 6.586 2.386 2.63 1.315 5.275 2.903 8.05 3.898 1.823.654 4.404 1.718 6.3 1.718"/><circle cx="113.065" cy="100.83" r="21.394" stroke="#171717" stroke-width="2.5"/><path stroke="#171717" stroke-linecap="round" stroke-width="1.5" d="M110.337 81.379c-2.813 0-5.522-.151-8.242.683-2.215.678-5.14 2.342-6.435 4.336-3.858 5.935-3.637 13.135-3.527 19.961.049 3.044 2.136 6.449 4.045 8.698 2.03 2.39 4.787 4.525 7.661 5.79 2.462 1.083 5.4 2.571 8.142 2.629 2.99.064 5.051-.631 7.8-1.706 1.922-.753 3.878-2.766 5.322-4.21.912-.912 1.802-2.125 2.528-3.186.868-1.266 1.985-2.502 2.68-3.868 1.096-2.15 2.202-4.414 2.605-6.827.549-3.297.649-7.886-.519-11.023-2.231-5.996-8.784-7.81-14.5-9.052-2.074-.451-4.115-1.08-6.194-1.542-1.721-.383-3.56-.353-5.234-.91"/></g><defs><filter id="a" width="74.788" height="74.788" x="75.671" y="67.436" color-interpolation-filters="sRGB" filterUnits="userSpaceOnUse"><feFlood flood-opacity="0" result="BackgroundImageFix"/><feColorMatrix in="SourceAlpha" result="hardAlpha" values="0 0 0 0 0 0 0 0 0 0 0 0 0 0 0 0 0 0 127 0"/><feOffset dy="2"/><feGaussianBlur stdDeviation="1"/><feComposite in2="hardAlpha" operator="out"/><feColorMatrix values="0 0 0 0 0 0 0 0 0 0 0 0 0 0 0 0 0 0 0.02 0"/><feBlend in2="BackgroundImageFix" result="effect1_dropShadow_996_1030"/><feColorMatrix in="SourceAlpha" result="hardAlpha" values="0 0 0 0 0 0 0 0 0 0 0 0 0 0 0 0 0 0 127 0"/><feOffset dy="4"/><feGaussianBlur stdDeviation="4"/><feComposite in2="hardAlpha" operator="out"/><feColorMatrix values="0 0 0 0 0 0 0 0 0 0 0 0 0 0 0 0 0 0 0.06 0"/><feBlend in2="effect1_dropShadow_996_1030" result="effect2_dropShadow_996_1030"/><feBlend in="SourceGraphic" in2="effect2_dropShadow_996_1030" result="shape"/></filter></defs></svg>