<svg xmlns="http://www.w3.org/2000/svg" width="403" height="253" fill="none"><path stroke="#C6C6C8" stroke-linecap="round" stroke-width="2" d="M252.287 106.294c4.448 0 8.674-1.278 13.075-1.767 4.76-.529 9.624-.945 14.33-1.865 6.994-1.369 14.023-2.772 21.065-3.946 14.649-2.441 29.013-5.747 43.352-9.658 13.392-3.652 27.293-6.53 39.787-12.778 3.085-1.542 5.865-3.648 8.651-5.646 1.103-.79 3.475-2.926 3.565-4.457.083-1.41.412-.976-.445-.594-1.194.53-2.434 1.703-3.599 2.393-5.783 3.427-11.844 6.322-18.011 8.965-6.778 2.904-13.559 5.127-20.719 6.917-10.622 2.655-20.997 5.713-31.879 7.28-2.631.38-5.309.449-7.957.66-2.891.232-5.729.892-8.618 1.123-5.898.472-11.582 2.607-17.235 4.177-2.932.815-5.78 1.68-8.75 2.36-2.521.579-5.068.898-7.528 1.718-4.098 1.366-8.207 3.123-12.183 4.82-2.502 1.068-5.391 1.764-8.09 2.064-.782.087-2.64-.287-1.023-.875 4.072-1.481 8.331-2.788 12.547-3.797 1.978-.473 4.023-.861 5.976-1.403 1.276-.355-1.137-.149-1.453-.149-3.655 0-7.301-.131-10.813 1.04-1.112.371-2.051.446-3.22.446-.438 0 1.728-.333 2.18-.446 2.828-.707 11.599-1.04 8.683-1.04-3.266 0-6.49 1.189-9.723 1.189-.634 0 2.062-.416 2.377-.479 3.427-.685 6.9-1.386 10.285-2.262 7.749-2.005 15.385-4.426 23.178-6.24a91.788 91.788 0 0 1 6.043-1.189c.332-.054 2.199-.23.974-.23-4.718 0-8.801.52-13.307 2.08-1.823.63-3.684 1.228-5.481 1.93-.389.153-1.504.705-.412.744 4.424.158 8.901.048 13.306-.363 4.198-.393 8.206-2.195 12.316-3.055 4.078-.853 8.133-1.595 12.216-2.377 6.891-1.32 13.674-2.636 20.405-4.672 8.517-2.576 17.019-4.937 25.655-7.066 1.963-.484 4.037-1.135 6.075-1.188.927-.025.796.094-.016.297-3.21.802-6.562.496-9.823 1.04-6.148 1.025-12.39 1.477-18.523 2.592-5.864 1.066-11.516 2.832-17.334 4.094-3.977.862-7.903 1.74-11.821 2.823-1.006.278-10.499 2.174-10.499 3.269 0 .495 15.405-1.013 16.905-1.04.264-.005 2.384-.01 1.122.23-1.335.255-2.883.364-4.242.364-3.694 0-7.575 1.935-11.127 2.823-5.18 1.295-10.49 3.103-15.403 5.2-1.124.48-2.491 1.189-3.748 1.189-.655 0 1.31.01 1.965 0 9.567-.152 18.763-4.456 27.999-6.389 10.48-2.193 21.071-4 31.433-6.686 6.03-1.564 11.7-3.042 17.466-5.498 4.959-2.112 9.964-4.076 14.842-6.372.622-.293 1.793-.875 2.509-.875.759 0-1.503.264-2.262.264-2.144 0-8.548.509-6.405.594 3.141.126 6.095-.118 9.146-.891 1.779-.451 3.132-1.54 4.754-2.08"/><path stroke="#C6C6C8" stroke-linecap="round" stroke-width="2" d="M250.662 167.19c0-4.063-.487-8.475.302-12.471.838-4.241 1.534-8.51 2.269-12.773 1.547-8.974 3.974-18.58 2.807-27.766-.297-2.339-.867-4.633-1.513-6.891-.251-.88-.681-2.179-1.143-2.958-.339-.573-.936-.724-1.193-1.11-.36-.54-.072 1.304 0 1.95.181 1.628.473 3.266.656 4.908.271 2.44.772 4.91.84 7.361.031 1.108.303 3.197.303.858 0-2.104-.345-4.262-.757-6.32-.364-1.823-.257-4.003-1.361-5.58-.123-.175-2.069-2.964-2.118-2.135-.089 1.513.555 2.587 1.21 3.933 1.561 3.209 2.679 7.189 3.026 10.74.384 3.936 1.204 7.86 1.495 11.799.22 2.965.017 6.02.017 8.992 0 8.211-.453 15.955-2.723 23.9-.515 1.803-1.173 3.489-1.815 5.244-.314.861-.605 1.723-.605.37 0-5.428.023-10.744 1.21-16.085 1.118-5.029 1.815-10.322 1.815-15.479 0-8.418.549-17.023-.067-25.413-.085-1.165-.469-4.629-.538-3.463-.076 1.301 0 2.63 0 3.933 0 6.266 1.877 12.453 2.101 18.741.096 2.672.017 5.36.017 8.034 0 2.682-.516 5.019-.84 7.647-.881 7.134-4.37 13.114-7.614 19.413-2.959 5.743-5.536 11.911-9.227 17.227-.752 1.082-1.775 2.243-2.269 3.479-.321.803.755-1.557 1.193-2.302 1.687-2.873 3.998-5.325 5.748-8.169 1.817-2.952 3.143-6.033 4.236-9.311 1.095-3.287 2.158-6.581 3.092-9.916.367-1.31 1.446-3.054 1.446-4.421 0-3.08.191 6.22-.471 9.227-1.533 6.968-5.784 12.688-9.984 18.287-2.558 3.412-5.176 7.364-8.269 10.236-.598.556-2.153 5.02-2.454 4.42"/><path stroke="#C6C6C8" stroke-linecap="round" stroke-width="2" d="M242.305 179.862c.126-1.265 1.324-2.507 1.888-3.609 1.354-2.647 2.801-5.243 4.155-7.89 2.499-4.885 5.686-9.556 7.533-14.751 2.973-8.362 5.588-16.863 8.33-25.284 2.464-7.57 3.399-15.703 3.399-23.627v.608c0 2.318-.217 4.506-.566 6.799-1.365 8.948-4.189 17.578-6.421 26.334-.161.629-1.986 6.752-2.078 4.7-.355-7.996-.167-15.592 1.889-23.417.808-3.077 1.843-6.151 1.888-9.359.001-.026.004-2.498-.084-2.476-.688.172-.288 4.33-.293 4.826-.046 4.608-.829 9.22-1.511 13.765-.928 6.186-3.638 24.635-3.777 18.381-.163-7.323-.755-14.607-.755-21.948 0-4.211-.265-8.355-.378-12.548-.008-.304-.404-2.434-.378-1.259.07 3.157.717 6.36 1.133 9.485.465 3.487 1.563 13.891 1.868 10.386.353-4.061.433-8.169.965-12.212.246-1.867.189-3.744.189-5.623v-.714c0 5.098-.756 10.199-.756 15.339 0 .782.084 1.519-.021.21-.375-4.699-1.112-9.326-1.112-14.059 0-1.67-.521-4.313.189-5.875.33-.726.567-.576.567.189 0 3.761-.045 8.28 1.322 11.834.662 1.721 1.717-4.161 1.909-4.847.528-1.885 1.025-4.844 2.434-6.253.981-.981.756.964.756 1.511v6.421c0 .506-.374 2.915.083 3.315.196.171.294-3.253.294-3.525 0-.172-.094-5.666.084-5.666.28 0-.409 2.742-.461 2.938-.62 2.331-.784 4.703-1.05 7.092-.16 1.442.61 5.016-.377 6.127-.166.187-.5-2.36-.546-2.727-.234-1.874-.294-3.697-.294-5.582 0-1.577-.142-2.892.756-4.239"/><path stroke="#C6C6C8" stroke-linecap="round" stroke-width="2" d="M267.349 114.216c5.378 0 10.654.126 15.968-.886 11.023-2.1 22.376-5.229 33.084-8.594 14.399-4.526 28.34-10.727 42.635-15.609 5.616-1.917 11.92-4.638 16.877-7.9 2.156-1.418 4.611-2.725 6.488-4.5 1.023-.968 2.304-2.1 3.639-2.586 1.752-.637.125.079-.814.383-3.634 1.178-6.774 3.013-10.126 4.788-2.891 1.53-5.63 3.349-8.643 4.644-4.237 1.822-8.596 3.279-12.759 5.267-9.586 4.578-20.83 7.925-31.193 10.246-7.613 1.705-14.898 4.457-22.407 6.559-3.17.888-6.472 2.157-9.671 2.825-3.404.711-7.052.69-10.51 1.054-1.616.17-3.174.521-4.811.43-1.045-.058 3.187-1.203 3.519-1.292 4.213-1.135 8.87-1.114 13.214-1.269.378-.014 5.232.226 5.147.311-1.916 1.916-8.656.934-10.964.982-5.642.116-11.122 1.159-16.662 2.13-.192.034-4.416.606-3.471-.024 2.736-1.824 5.997-2.515 9.121-3.423 2.519-.732 5.399-1.293 8.043-1.293 1.071 0-4.719 1.203-5.458 1.293-2.057.252-7.202 1.872-9.192.766-.514-.285.763-.943 1.292-1.197 2.306-1.105 4.98-1.568 7.493-1.891 2.747-.353 10.847-1.272 8.307-.168-5.228 2.274-12.011 2.157-17.571 3.328-2.251.474-7.56 1.146-1.987.646 8.806-.79 17.649-1.069 26.453-1.915 1.766-.17 3.612-.218 5.362-.527 1.129-.199-2.277-.335-3.423-.335-4.99 0-9.996.431-14.962.431-4.612 0 9.005-1.992 13.501-3.016 6.834-1.556 14.058-4.155 21.067-4.716 11.963-.957-47.887 2.944-35.885 2.944 1.739 0 3.718-.601 5.41-.861a290.774 290.774 0 0 1 20.708-2.442c5.687-.462 22.799-.958 17.092-.958-7.724 0-15.573 1.902-23.269 2.586-2.012.178-4.314.163-6.272.766-2.288.704 4.754-.603 7.11-1.03 8.016-1.451 16.063-3.242 24.155-4.213 1.288-.155 2.581-.263 3.878-.263 1.293 0-2.528.546-3.782.861-3.46.872-14.054 2.155-10.486 2.155 6.08 0 12.572-2.73 18.433-4.118 3.669-.868 8.059-2.346 11.874-2.346 1.221 0-2.404.433-3.591.718-6.457 1.556-12.821 3.477-19.223 5.243-5.099 1.407-20.457 5.173-15.536 3.232 6.418-2.531 12.934-4.795 19.726-6.105.581-.112 8.014-.964 4.476.383-2.827 1.078-5.997 1.442-8.953 1.964-7.582 1.338-15.188 2.461-22.814 3.519-5.99.83-12.304 1.668-18.146 3.303-.825.231-2.431.169-.862-.718 2.929-1.655 6.755-1.197 9.983-1.197 2.463 0 3.346 1.39.55 2.25-4.48 1.379-9.195 1.952-13.741 3.089-1.857.464-1.96.532-3.543-.599M172.004 242.824c1.579 0 2.312-.303 3.647-1.193 1.722-1.148 3.883-1.538 5.731-2.437 3.261-1.587 5.968-3.992 9.312-5.446 5.889-2.56 12.454-5.697 17.026-10.269 6.181-6.182 12.675-11.985 18.303-18.791 6.655-8.049 12.751-15.968 17.849-25.11 2.107-3.778 4.367-7.481 6.185-11.413.696-1.505 1.816-2.895 1.816-4.605"/><path fill="#fff" stroke="#171717" stroke-width="2" d="M375.782 37.72c9.414-2.896 19.351 2.601 21.9 12.115 2.549 9.514-3.307 19.243-12.908 21.443l-162.69 37.275-5.833-21.77 159.531-49.064Z"/><circle cx="9.015" cy="9.015" r="9.015" stroke="#171717" stroke-width="2" transform="rotate(75 163.533 272.544)"/><ellipse cx="125.475" cy="127.079" fill="#fff" stroke="#171717" stroke-width="2" rx="123.959" ry="123.96"/><ellipse cx="125.476" cy="127.079" stroke="#171717" stroke-width="2" rx="101.421" ry="101.422"/><path stroke="#171717" stroke-linecap="round" stroke-width="2" d="M240.699 80.144c4.771 0 9.109-.5 13.736-1.552 1.332-.302 2.466-1.21 3.731-1.716 1.121-.449 2.13-.752 3.186-1.321 1.267-.683 2.795-.985 4.144-1.37 6.307-1.803 12.586-4.754 18.754-7.116 12.116-4.64 24.66-8.272 36.914-12.48 5.466-1.878 11.263-2.927 16.839-4.458 5.321-1.46 10.56-3.119 15.914-4.457 7.111-1.778 14.383-4.223 21.693-5.035 5.676-.631 12.391-1.243 17.351 2.063 4.535 3.024 3.747 9.398 3.747 14.165 0 3.82-.761 7.785-3.797 10.268-.758.62-2.624.443-3.566.595-1.415.228-3.038.784-4.391 1.27-1.956.705-3.766 1.834-5.828 2.246-3.695.74-7.406 2.402-11.011 3.483-4.326 1.298-8.886 2.215-13.026 4.078-2.721 1.225-6.265 2.04-9.195 2.592-3.318.626-6.57 1.684-9.938 2.245-3.842.64-7.75 1.352-11.606 1.85-3.617.466-7.036 1.577-10.615 2.145-3.544.563-7.135 2.133-10.616 3.055-3.374.893-6.466 2.073-9.971 2.525-4.422.571-8.761 1.622-13.224 2.015-4.906.43-9.684 1.307-14.56 1.849-4.029.447-8.357 1.84-12.25 2.971-1.658.481-3.877 1.783-5.58 1.783M26.598 105.525c0-2.403-.082-4.772.27-7.147.212-1.434 1.093-2.854 1.888-4.046.873-1.309 1.393-2.778 2.218-4.12 1.266-2.065 2.415-4.22 3.716-6.264 1.193-1.874 2.895-3.684 3.776-5.724.808-1.872 2.26-3.772 3.521-5.35 2.946-3.681 5.516-7.693 8.616-11.253a115.898 115.898 0 0 1 8.511-8.826c3.213-2.991 6.865-5.34 10.37-7.956 5.025-3.752 10.2-7.15 15.583-10.31 3.086-1.81 6.829-2.56 10.309-3.326 4.294-.945 8.507-1.953 12.886-2.487 7.759-.946 15.504-1.14 23.316-1.14"/><path stroke="#171717" stroke-linecap="round" stroke-width="2" d="M128.832 27.212c3.559 0 7.125-.066 10.683 0 2.964.055 5.906.83 8.806 1.332 1.422.246 2.822.78 4.202 1.203 2.145.655 4.18 1.555 6.304 2.23 3.748 1.189 6.997 3.763 10.603 5.308 1.953.838 3.747 2.069 5.525 3.216a129.084 129.084 0 0 0 5.157 3.168 63.158 63.158 0 0 1 8.63 6.032c1.223 1.015 2.652 1.801 3.769 2.919a191.81 191.81 0 0 1 4.235 4.363c2.588 2.758 6.404 4.193 8.445 7.458.316.506.636 1.001.722 1.604.019.136.152.714.152.29"/><path stroke="#171717" stroke-linecap="round" stroke-width="2" d="M205.344 65.757c.074.666 1.111 1.66 1.475 2.23.811 1.269 1.804 2.422 2.567 3.721 1.174 2 2.305 4.02 3.641 5.92 3.131 4.453 5.229 9.94 6.785 15.125.867 2.89 1.164 5.883 1.845 8.806.526 2.26.694 4.576 1.299 6.817.549 2.034 1.028 4.102 1.588 6.144.174.635.247 1.312.545 1.908.162.324.231.496.032 0"/><path stroke="#171717" stroke-linecap="round" stroke-width="2" d="M225.409 114.263c0 1.758-.083 3.541.217 5.277.335 1.946.264 3.99.729 5.919.506 2.096.623 4.311.899 6.448.269 2.089.176 4.214.176 6.32 0 2.452-.69 4.833-1.227 7.218-.586 2.603-1.197 5.259-2.021 7.795-.925 2.846-2.034 5.612-3.136 8.389-.861 2.172-1.85 4.236-2.502 6.489-.222.765-.395 1.563-.642 2.302M142.109 226.715c2.761 0 5.614.347 8.214-.598 1.686-.614 3.472-1.4 5.254-1.796 1.62-.36 3.701-1.539 5.254-2.244 1.263-.575 2.976-.533 4.173-1.198 1.934-1.074 4.139-1.818 6.135-2.843 2.342-1.203 4.615-2.45 6.817-3.89 1.265-.827 2.644-2.23 4.023-2.76 1.832-.705 4.214-2.193 5.62-3.525 1.302-1.234 2.938-2.069 4.339-3.159 1.698-1.32 2.958-2.941 4.473-4.456 1.721-1.721 3.78-3.793 5.104-5.852 1.258-1.957 3.16-3.495 4.472-5.404 2.324-3.38 4.547-6.892 7.349-9.859 2.251-2.384 3.891-4.989 3.891-8.38"/><path stroke="#171717" stroke-linecap="round" stroke-width="2" d="M63.7 209.057c1.53.153 3.47 2.472 4.655 3.442 1.214.994 2.663 1.762 4.023 2.477 1.651.869 3.599 1.146 5.237 2.029 1.704.917 3.485 1.92 5.304 2.593 1.565.58 3.055 1.481 4.589 2.178 1.525.694 3.36.955 4.921 1.58 1.953.781 4.515 1.349 6.568 1.862 1.959.49 3.918 1.2 5.852 1.796 3.962 1.219 7.97 1.795 12.104 1.795 3.935 0 7.97.3 11.838.3 3.737 0 7.524-.3 11.206-.3 3.145 0 6.098-2.095 9.294-2.095"/><path stroke="#171717" stroke-linecap="round" stroke-width="2" d="M64.595 209.358c-2.168-2.169-4.226-4.311-6.35-6.518-1.569-1.628-2.842-3.538-4.274-5.287-.558-.682-1.238-.808-1.712-1.662-.439-.79-1.521-1.33-2.095-2.095-3.315-4.42-6.948-8.387-8.845-13.7-.691-1.935-1.905-3.807-2.461-5.753-.396-1.386-.985-3.206-1.563-4.489-2.708-6.019-4.831-12.248-6.817-18.555-1.039-3.3-1.92-6.569-2.394-10.009-.377-2.732-1.418-5.497-1.496-8.247-.11-3.813-.3-7.699-.3-11.439 0-2.958-.299-5.916-.299-8.895 0-1.327-.28-3.049.3-4.206M1.973 115.794c0-4.789.959-9.806 3.128-14.144 1.902-3.805 3.874-8.138 4.82-12.3.426-1.874 1.404-3.662 2.116-5.44.87-2.177 1.496-4.594 2.72-6.605 1.198-1.969 1.897-4.322 2.932-6.392 1.293-2.587 2.337-5.3 3.868-7.767 2-3.223 3.622-6.909 6.12-9.777 2.246-2.578 4.27-5.292 6.664-7.752 1.285-1.321 2.25-2.99 3.536-4.352.85-.9 1.645-1.915 2.463-2.857.524-.601 1.574-1.99 2.297-2.312.955-.424 1.551-1.685 2.161-2.448.89-1.113 1.743-2.407 2.75-3.415 1.89-1.89 3.834-3.636 6.317-4.745"/><path stroke="#171717" stroke-linecap="round" stroke-width="2" d="M50.66 27.663c2.064 0 3.95-1.072 5.607-2.176 2.504-1.67 5.165-3.183 7.721-4.745 3.738-2.284 7.55-4.485 11.576-6.256 4.645-2.044 9.193-5.396 14.25-6.408 5.054-1.01 9.95-2.598 15.111-3.264 3.757-.484 7.451-1.228 11.228-1.571 2.567-.234 5.109-.471 7.677-.665 2.371-.18 4.772-.042 7.132-.272 7.288-.711 15.318-.657 22.184 2.176 3.554 1.467 7.191 2.685 10.729 4.2 3.698 1.586 7.335 3.483 10.88 5.38"/><path stroke="#171717" stroke-linecap="round" stroke-width="2" d="M166.262 9.165c1.542.172 2.637 1.764 4.08 2.176 1.684.482 3.333 1.917 4.896 2.72 4.983 2.563 10.481 4.29 15.293 7.133 11.024 6.515 21.318 14.609 29.648 24.42 2.304 2.713 4.682 5.36 6.725 8.296 2.15 3.092 3.492 6.494 5.455 9.657 3.082 4.965 4.755 11.03 6.589 16.532.434 1.302.926 2.764 1.284 4.02.267.933.999 2.17 1.103 3.112.157 1.407 1.303 2.804 1.617 4.216.168.756.487 1.624.831 2.312"/><path stroke="#171717" stroke-linecap="round" stroke-width="2" d="M242.152 89.136c0 5.133 2.741 10.053 4.776 14.704 2.499 5.713 2.919 12.336 3.717 18.421 1.086 8.283.781 17.305-.74 25.523-.361 1.947-.463 4.264-1.285 6.09-.83 1.845-1.737 3.625-2.644 5.44-1.624 3.246-2.674 6.28-3.552 9.792"/><path stroke="#171717" stroke-linecap="round" stroke-width="2" d="M110.754 250.624h17.067c4.678 0 8.739-.83 13.318-1.678 6.593-1.22 13.517-1.569 19.946-3.355 3.482-.967 6.747-2.244 10.046-3.728 3.42-1.539 6.992-2.617 10.17-4.661 5.703-3.666 12.067-6.821 17.067-11.557 1.814-1.719 4.122-3.148 6.131-4.64 4.116-3.058 8.296-6.637 11.537-10.625 1.895-2.333 3.789-4.651 5.447-7.188 1.866-2.854 4.418-5.29 6.173-8.161 4.341-7.103 8.743-13.665 12.096-21.209.98-2.207 1.572-4.759 2.237-7.084.607-2.127 2.609-4.203 2.609-6.338M5.619 100.749c0 4.566-1.91 8.442-2.59 12.862-.612 3.983-1.138 7.631-1.138 11.744 0 6.907 2.617 13.306 3.376 20.133.558 5.023 1.725 10.03 3.045 14.913.866 3.206 2.28 6.259 3.355 9.404 1.579 4.618 2.9 9.207 4.764 13.732 2.978 7.232 7.683 12.491 12.966 18.165 1.963 2.108 3.023 4.998 4.95 7.167.83.933 1.49 1.891 2.216 2.899.313.434 1.835.829.746.829"/><path stroke="#171717" stroke-linecap="round" stroke-width="2" d="M33.953 210.36c2.597 2.338 5.035 5.366 7.995 7.25 4.438 2.824 8.533 6.174 12.883 9.155 4.963 3.4 9.911 6.598 15.1 9.672 4.035 2.392 8.329 3.962 12.49 5.986 3.356 1.633 7.078 2.587 10.439 4.267 3.483 1.742 8.177 1.558 11.93 2.444 5.524 1.304 11.175 2.008 16.777 2.631 1.659.184 12.438.249 12.304-.021M374.866 45.927c-.419 0-.85-.032-1.267.01-.9.09-1.724.628-2.46 1.113-.61.402-1.189.919-1.706 1.437-.332.331-.747.642-.853 1.122-.531 2.386-.27 4.945-.27 7.385 0 1.15.223 2.173.584 3.258.347 1.04 1.295 1.671 2.24 2.16 1.533.793 2.955 1.665 4.67 2.061 1.724.398 3.215.171 4.721-.718 1.768-1.046 3.057-2.331 4.061-4.107.608-1.076.923-2.375 1.193-3.572.297-1.324.457-3.009-.045-4.301-.45-1.157-1.198-2.27-2.066-3.154-.892-.91-2.087-2.02-3.323-2.425-.657-.215-1.303-.467-1.976-.628-.694-.166-1.446-.09-2.155-.09-.539 0-1.178-.098-1.707.02-.287.064-.604.16-.898.16"/><path fill="#fff" stroke="#fff" stroke-width="8" d="M118.016 173.344c23.615 2.482 44.613-15.278 47.145-39.361 1.253-11.924-1.958-25.913-8.233-37.236-6.229-11.242-16.034-20.775-28.54-22.09-12.506-1.314-24.079 5.973-32.51 15.673-8.491 9.771-14.54 22.787-15.793 34.711-2.531 24.083 14.315 45.821 37.931 48.303Z"/><path stroke="#FFD424" stroke-linecap="round" stroke-width="2" d="M84.469 135.236c.126-.543 1.077.893 1.16.99 2.909 3.368 5.463 7.214 7.55 11.139.56 1.052 1.04 2.143 1.6 3.194.152.287.66.919.621 1.281-.044.417-.556-.629-.79-.976-1.035-1.538-2.074-3.074-3.033-4.66-1.654-2.735-3.287-5.6-4.457-8.581-.199-.506-1.128-1.521-.584-1.525.368-.002 1.51 1.805 1.709 2.041a414.905 414.905 0 0 1 4.853 5.868c.268.331 1.092 1.274.734 1.045-.788-.503-1.536-2.055-2.015-2.78-1.984-2.997-3.796-6.125-5.263-9.409-.091-.204-.393-.798-.27-.612.719 1.097 1.597 2.065 2.47 3.039 2.167 2.412 4.273 4.88 6.455 7.277.274.301 1.004 1.276.796.927-.715-1.195-1.616-2.297-2.364-3.473-1.918-3.015-3.787-6.253-5.251-9.52-.948-2.115 2.991 3.541 4.45 5.342 1.024 1.265 2.055 2.526 3.074 3.796.4.5 1.242 2.169 1.153 1.535-.1-.704-1.33-2.065-1.65-2.592-1.559-2.563-3.03-5.196-4.474-7.825-.236-.43-1.612-3.23-1.399-2.975 1.966 2.343 4.204 4.483 6.317 6.692.714.746 1.421 1.498 2.133 2.246.191.2.65.624.287-.02-1.619-2.878-3.63-5.5-5.165-8.444-.337-.647-.363-.705.214-.151 1.369 1.312 2.776 2.579 4.13 3.907 1.438 1.411 2.803 3.243 4.418 4.459 1.217.915-1.342-2.735-2.065-4.075-2.43-4.502-5.453-9.289-6.978-14.216-.13-.425.07-.201.226-.026 1.288 1.44 2.779 2.708 4.178 4.036 2.525 2.396 4.964 4.947 7.629 7.19.11.092.421.349.375.213-.142-.417-.487-.735-.741-1.095-2.522-3.585-4.827-7.319-7.045-11.098-1.2-2.046-2.345-4.124-3.57-6.155-.58-.961-.793-1.263.162-.244 2.748 2.934 5.73 5.642 8.435 8.614.077.085.997 1.309 1.208 1.244.16-.049-.14-.303-.226-.446a50.682 50.682 0 0 0-.913-1.46c-.794-1.235-1.546-2.488-2.311-3.741-.303-.496-1.51-1.619-.95-1.464.584.161 1.646 1.799 1.957 2.153a148.236 148.236 0 0 1 5.604 6.754c.741.952 1.498 1.885 2.34 2.751.091.093.319.382.296.255-.107-.583-.976-1.757-1.19-2.135-2.467-4.362-5.14-8.838-6.938-13.53 0-.001-.707-1.427-.124-.707 1.111 1.372 2.331 2.629 3.56 3.896 2.401 2.477 4.837 4.997 6.871 7.793 2.018 2.773-2.714-6.303-4.237-9.376-1.102-2.225-2.218-4.446-3.161-6.745-.235-.574-1.081-2.148-.596-1.762 2.418 1.921 4.416 4.896 6.435 7.225.458.528.943 1.358 1.525 1.773 1.305.93-1.499-2.833-2.297-4.223a201.779 201.779 0 0 1-4.86-8.995c-.351-.691-1.113-2.2-1.486-2.972-.287-.593-1.37-1.965-.725-1.837.822.162 2.674 3.117 3.139 3.654 1.98 2.287 3.974 4.562 5.926 6.874 1.156 1.369 2.281 2.762 3.409 4.154.446.552 1.174 1.593.359.124-2.348-4.226-4.825-8.388-6.712-12.848-.879-2.077 1.864 1.504 2.189 1.83 2.379 2.391 4.648 4.941 7.143 7.213.798.727.408-.199.201-.735-1.255-3.25-2.713-6.434-4.111-9.624-.558-1.272-1.18-2.526-1.63-3.843-.143-.417-.675-1.803.156-.777 2.674 3.302 5.225 6.71 8.012 9.922.358.413 1.112 1.777 1.086 1.23-.038-.788-1.044-2.12-1.373-2.749-1.911-3.651-4.373-7.29-5.824-11.155-.105-.28.457.39.655.614 1.152 1.3 2.405 2.507 3.612 3.754a262.993 262.993 0 0 1 3.56 3.773c.047.05 1.446 1.639 1.32 1.13-.78-3.153-2.853-6.138-4.1-9.138-.226-.543-1.103-2.034-.672-1.633 1.008.935 1.848 2.176 2.791 3.183 1.303 1.39 2.604 2.782 3.944 4.136.616.621 1.781 2.293 2.699 2.529.731.187-.224-1.503-.487-2.21-.753-2.02-1.702-3.977-2.394-6.02-.177-.523-.88-1.903-.414-1.606.286.183.695.94.905 1.187 1.479 1.74 3.176 3.371 4.839 4.937.217.204.633.458.531-.093-.421-2.274-1.466-4.557-2.194-6.743a178.09 178.09 0 0 1-1.743-5.48c-.125-.42-.562-1.643-.325-1.274 2.164 3.376 9.708 12.765 7.184 9.649-.998-1.233-1.765-2.696-2.937-3.795-.531-.497-.002.78.023.958.133.94-1.335-.823-1.576-1.059-.164-.16-3.052-2.522-3.11-2.274-.047.204.631.895.724 1.143.127.34-1.486-1.752-1.721-2.042-.381-.47-1.875-2.136-1.388-.48.454 1.546.851 3.093.994 4.706.167 1.885-4.149-3.045-4.09-.505.032 1.377.313 2.748.36 4.131.019.569-.343.05-.481-.15-.871-1.262-1.54-2.661-2.362-3.956-.118-.185-1.853-3.004-2-2.332-.596 2.725-.546 5.649-.946 8.41-.042.287-.49 4.753-1.106 4.622-.368-.078-.513-1.41-.552-1.596-.475-2.288-.893-4.59-1.323-6.887-.052-.28-1.137-5.123-1.343-3.39-.448 3.775-.582 7.62-.518 11.419.035 2.065-.263 4.816.262 6.837.442 1.705-1.262-3.291-1.94-4.918-.197-.473-.569-1.867-1.116-2.126-.408-.194-1.138 3.221-1.168 3.325-.872 3.061-2.352 5.995-3.112 9.075-.323 1.309.252-.853.323-1.07.565-1.706.929-3.441 1.376-5.177.441-1.716.275-3.53 1.255-5.102.956-1.533.823-3.582 1.008-5.34.125-1.192-.495-.634-1.316-.224-1.293.645-2.659 1.488-3.61 2.597-2.345 2.738-4.54 5.879-6.364 8.981-2.058 3.501-3.217 7.171-4.673 10.945-1.534 3.977-1.96 8.024-2.401 12.226l-.396 3.767a3242 3242 0 0 1 .027-.258c1.058-10.069 3.912-19.772 10.717-27.502 1.807-2.052 3.75-3.941 5.701-5.85 1.409-1.38-.494.3-.973.642-1.972 1.408-3.653 2.653-5.25 4.509-2.08 2.418-4.084 5.038-5.81 7.724-1.606 2.498-2.904 5.202-4.13 7.901-1.106 2.434-2.253 5.007-2.63 7.675-.247 1.744-.381 3.51-.566 5.262-.01.107-.135 1.953.172 1.791.658-.345 1.424-2.03 1.74-2.521 2.542-3.928 5.094-7.849 7.639-11.774 5.912-9.12 12.315-17.956 18.086-27.161.633-1.01 2.427-3.254.607-1.053-4.774 5.775-8.452 12.6-11.846 19.246-1.29 2.525-4.24 10.356-3.943 7.536.468-4.457 2.656-9.038 4.192-13.215.239-.65 1.122-2.527.773-1.929-.904 1.553-1.532 3.315-2.316 4.929-2.124 4.375-4.6 8.604-6.522 13.071-.053.124-.388 1.101-.306.315.178-1.685.48-3.364.802-5.026.43-2.227 1.003-4.422 1.442-6.646.192-.969 1.026-3.695.396-2.935-.267.321-.31 1.198-.364 1.574-.255 1.788-.391 3.601-.58 5.397-.332 3.164-1.41 7.281-.55 10.435.106.394.3-.763.382-1.163.522-2.562 1.01-5.131 1.564-7.687.465-2.144 1.972-8.523 1.783-6.337-.302 3.48-.584 6.954.033 10.423.051.287 1.216 5.37 1.96 4.125 1.091-1.821.866-4.709.933-6.748.016-.475-.182-1.51.081-1.952.221-.371 2.367 2.328 2.372 2.333 3.113 3.758 6.221 7.519 9.347 11.266.576.69 1.183 1.505 1.933 2.026.524.365-.244-2.175-.252-2.209-.654-2.925-1.418-6.312-1.053-9.339.168-1.389 3.12 1.76 3.376 1.992 1.061.958 4.102 3.872 3.382 2.637-2.402-4.117-4.733-8.201-6.85-12.478-.443-.894-1.778-3.237.037-1.535 3.16 2.965 6.432 5.906 9.391 9.075.221.237.898.921.726.647-.925-1.475-1.93-2.885-2.814-4.389-1.182-2.012-2.356-4.049-3.398-6.138-.384-.77-1.105-1.902-1.208-2.793-.044-.389.638.456.93.717 1.518 1.363 3.011 2.754 4.514 4.134a109.497 109.497 0 0 1 4.123 3.968c.514.525 1.893 2.178 1.616 1.498-.625-1.537-1.699-2.973-2.513-4.408-1.491-2.627-3.036-5.292-4.251-8.062-.13-.297-.855-1.684-.609-2.11.092-.16 2.732 2.561 2.755 2.583 3.035 3.019 5.952 6.341 9.157 9.174.991.876.324-.23.056-.763-2.171-4.304-4.463-8.546-6.546-12.893-1.186-2.474-2.366-4.973-3.377-7.525-.029-.072-.839-1.813-.617-2.037.179-.18 5.646 5.911 6.052 6.38.719.827 1.407 1.7 2.197 2.463.553.533-.796-1.314-1.208-1.963a95.746 95.746 0 0 1-4.689-8.257c-.71-1.41-2.289-3.707-2.362-5.371-.05-1.127 1.764 1.413 2.544 2.227a173.42 173.42 0 0 1 8.984 10.11c1.241 1.515 2.533 3.019 3.684 4.605 1.209 1.667-.248.328-.818-.359-2.557-3.081-5.762-6.558-7.367-10.276-1.031-2.388 3.521 3.836 5.165 5.852a57.516 57.516 0 0 0 2.39 2.757c.025.027.674.817.731.71.187-.354.291-.28.707-.236 1.058.11-.282-1.59-.449-1.859-1.651-2.638-3.459-5.373-4.34-8.394-.405-1.388 1.974 2.116 3.036 3.097 1.091 1.009 4.469 3.918 3.307 2.99-2.597-2.075-9.365-9.403-6.771-7.323.844.677 1.674 1.345 2.459 2.094.913.872 2.055 1.546 2.936 2.393.626.601-.472-.129-.659-.342-.074-.085-1.68-2.162-1.057-2.096 1.419.149 2.772 1.105 3.995 1.76.912.488 1.003.57.071-.316-1.156-1.097-2.395-2.22-3.776-3.026-.607-.355-1.067-.41-.398-.34.857.09-1.579-.693-2.356-1.066-.708-.34.776.41.948.534 2.677 1.927 4.953 4.409 7.254 6.753 2.526 2.575 4.933 5.466 6.537 8.725.066.135.638 1.902.407 1.68-.467-.449-1.438-2.15-1.03-1.646.635.784 1.047 1.77 1.454 2.683.855 1.917-2.526-1.898-2.663-2.041a385.642 385.642 0 0 1-3.526-3.745c-.338-.362-1.245-1.525-1.015-1.086.61 1.162 1.226 2.329 1.569 3.6.102.375.113.59-.261.122-1.019-1.279-1.859-2.697-2.854-3.996-.868-1.132-1.826-2.188-2.731-3.29-.582-.708-.613-.774-.291.181.723 2.147 1.626 4.172 2.08 6.408.085.42-.036.45-.337.138-.947-.977-1.72-2.112-2.664-3.095-1.661-1.73-.616.166-.195 1.145.176.41.793 2.846.568 2.504-1.606-2.441-2.931-5.173-4.774-7.448-1.241-1.533 1.41 3.685 1.995 5.568.377 1.217.69 2.443 1.002 3.677.006.022.259 1.166.228 1.141-.665-.539-1.106-1.815-1.522-2.517-.825-1.393-1.686-2.78-2.66-4.075-.161-.213-.585-.837-.302-.081.662 1.762 1.419 3.477 2.001 5.271.522 1.606.999 3.237 1.449 4.865.038.139.702 2.395-.084 1.505-1.493-1.693-2.517-3.932-3.599-5.886-1.255-2.268-2.536-4.527-3.748-6.819-.037-.07-.831-1.587-.778-1.446.59 1.574 1.267 3.12 1.876 4.687 1.228 3.159 2.898 6.639 3.438 10.012.074.459-.82-.489-1.1-.86-1.769-2.344-3.313-4.859-4.886-7.336-.45-.71-1.698-2.876-1.418-2.084.444 1.257 1.093 2.464 1.609 3.692a59.08 59.08 0 0 1 1.707 4.645c.012.034.67 2.134.454 2.057-1.306-.467-2.857-2.898-3.665-3.834-2.658-3.075-5.231-6.225-7.851-9.334-.061-.072-2.133-2.836-2.518-2.596-.212.132 1.729 4.831 1.791 5.026 2.022 6.274 3.567 12.746 4.752 19.229.183 1.001.392 2.005.451 3.024.063 1.095-.71-.672-.794-.828-.614-1.138-1.264-2.257-1.875-3.397-.127-.237-.395-1.071-.69-1.226-.199-.105.175.415.283.613.493.904.902 1.831 1.23 2.808.164.489.414 1.041.456 1.561.05.612-.918-.823-1.302-1.302-3.726-4.655-6.567-9.83-10.061-14.615-.102-.14-.76-.991-.451-.197a41.308 41.308 0 0 1 1.591 5.042c.131.526 2.084 7.851 1.6 8.032-.365.137-5.16-7.014-5.734-7.759-.343-.445-1.33-1.728-1.203-1.181.439 1.898.976 3.741 1.314 5.67.495 2.821.622 5.687 1.116 8.503.193 1.098-1.373-1.285-1.572-1.567-.935-1.327 2.521 5.706 1.242 4.707-.722-.564-.811-2.566-1.154-3.42-.091-.226-4.449-.28-4.827-.334-1.12-.159-2.912-.221-3.777-1.117-.886-.915-1.432-2.331-2.072-3.418-.414-.701-1.633-3.094-1.657-.992-.044 3.737 1.154 7.333 2.232 10.864 1.012 3.32 1.732 6.779 2.552 10.179.5 2.072.573 4.411 1.438 6.378.166.377-.183-1.002-.315-1.249-.526-.979-.603-.636-.696.25-.173 1.646.044 3.143.167 4.78.04.543.447 1.295.614 1.826.39 1.238.724 3.39 1.635 4.389.185.203.226-.523.208-.797-.086-1.313-.263-2.623-.38-3.934-.034-.375-.408-4.122.194-3.503 1.109 1.141 2.153 2.606 3.506 3.47.374.239.435-.092.392-.43-.252-1.982-.98-3.984-1.513-5.902-.498-1.791-1.974-7.167-1.507-5.368.46 1.772 2.088 4.191 3.326 5.522 1.439 1.545.277-2.294.138-2.839-.195-.756-.862-1.827-.364-.435.057.159.905 2.203 1.062 1.699.647-2.076-.677-5.14-1.078-7.208-.038-.191-.229-.701-.281-.513-.065.235.051.964-.015.73a24.312 24.312 0 0 0-2.27-5.423c-.573-.998 0 2.014.026 2.111.465 1.759 3.144 6.554 2.243 4.974-1.799-3.153-7.674-12.323-5.645-9.313 1.481 2.197 3.522 4.222 5.458 6.019 2.503 2.324 1.23-2.101.869-3.431-.29-1.07-.718-2.125-.902-3.221-.088-.526-.167-.735.124-.235 1.529 2.632 4.172 4.956 6.582 6.77.134.1 1.087.97.99.253-.19-1.414-.862-2.849-1.373-4.164a164.393 164.393 0 0 0-1.554-3.859c-.051-.122-.396-1.006-.388-.909.079 1.049.775 2.567 1.606 3.245.224.182.102-.582.041-.864-.29-1.356-.699-2.699-.886-4.075-.222-1.631.109-.22.489.423.223.379 1.522 2.165 1.832 1.098.233-.802-.127-1.978.608-.953.323.45.733 1.181 1.174 1.463"/><path stroke="#FFD424" stroke-linecap="round" stroke-width="2" d="M150.287 99.074c-.003.708.498 1.418.824 2.015.724 1.33 1.266 2.711 1.792 4.13 1.283 3.467 1.685 6.775 2.024 10.422.1 1.075 1.091 5.5-.493 2.529-3.57-6.698-6.752-13.819-10.849-20.211-.835-1.302 2.255 2.118 3.333 3.228 2.963 3.054 5.879 6.301 8.421 9.719.188.253 1.93 3.157 1.536 2.926-3.758-2.201-7.002-6.218-9.997-9.303-1.81-1.864-7.346-7.33-5.328-5.692 2.9 2.354 5.037 6.281 7.072 9.335 1.817 2.727 3.855 5.753 4.818 8.929.287.944-.487.202-.782-.111-2.063-2.184-3.828-4.721-5.633-7.114-2.323-3.08-4.861-6.391-6.53-9.903-1.001-2.103 2.437 3.972 3.595 5.993 1.207 2.106 3.131 4.691 3.501 7.16.115.765-.713-.149-.797-.24-2.144-2.314-3.865-5.077-5.661-7.656-2.059-2.958-7.993-11.985-6.216-8.849 2.003 3.535 4.071 6.987 5.797 10.677 1.611 3.442 3.171 6.979 4.507 10.54.375 1-.273.513-.796.016-2.253-2.144-4.012-4.873-5.68-7.474-1.3-2.029-2.475-4.117-3.597-6.248-.103-.197-1.477-3.398-1.888-3.346-.098.012-.03.198-.017.296.054.418.381 1.749.44 2.017.401 1.817.606 3.65.855 5.492.072.533 1.413 7.19.553 7.417-1.252.33-3.881-9.806-4.191-10.848-.44-1.478-1.013-6.01-1.174-4.476-.339 3.226-.128 6.519.053 9.746.249 4.443.331 8.932.808 13.357.378 3.507.409-1.508.397-2.426-.026-1.987.224-4.623-.447-6.541-.118-.337-.577 3.059-.611 3.382-.325 3.095-.426 6.201-.721 9.296-.259 2.701-.737-2.197-.783-2.535-.727-5.353-1.003-10.876-.955-16.279.008-.91.135-1.862.051-2.773-.064-.684-.36 1.328-.467 2.007-.69 4.415-1.061 8.88-1.527 13.323-.049.463-.455 5.694-.559 2.89-.16-4.287.78-17.135.331-12.867l-1.301 12.383c-.199 1.893-.389 3.787-.597 5.679-.114 1.028-.116 2.359-.604 3.312-.091.177-.337-.27-.376-.465-.451-2.244-.57-4.546-.615-6.828-.089-4.517-.054-9.086.378-13.586.207-2.151-.078.75-.125 1.192-.451 4.293-.819 8.604-1.368 12.886-.069.536-.638 4.823-.525 2.157.182-4.297.288-8.604.66-12.89.095-1.087.214-2.171.328-3.255.031-.294.117-1.014.021-.197-.645 5.474-1.719 10.933-2.878 16.316-.877 4.075-1.769 8.407-3.634 12.18-.12.244-.314.645-.324.122-.04-1.993.13-4.028.263-6.013.588-8.774 3.537-35 2.617-26.253-1.039 9.891-2.034 19.788-3.118 29.675-.018.163-.766 4.654-.923 2.71-.479-5.927.383-12.145 1.001-18.029.178-1.687.332-3.38.589-5.057.063-.413.117-1.85.488-2.217.147-.146.132.401.12.608-.1 1.819-.369 3.646-.559 5.456-.56 5.325-1.094 10.652-1.679 15.974-.091.823-.601 5.046-.756 1.792-.268-5.643 1.406-22.548.816-16.929-.479 4.557-1.047 9.093-2.092 13.562-.806 3.447-1.649 7.443-3.449 10.555-.215.371-.441.484-.578-.032-.665-2.506-.158-5.649.008-8.166.371-5.644.988-11.281 1.62-16.901.12-1.065.442-2.399.436-.508-.013 4.269-.738 8.641-1.239 12.872-.38 3.198-.763 6.547-1.764 9.627-.59 1.816.013-2.546.043-2.832l.784-7.46c.064-.607.004 3.428-.004 3.813-.11 5.422-.87 21.668-.843 16.246a98.365 98.365 0 0 0-.312-8.498c-.136-1.679-.32-3.356-.434-5.037-.031-.452.165-1.656-.17-1.35-.766.698-.337 4.744-.397 5.658-.169 2.619-.02 5.27-.317 7.878-.339 2.981-1.4-1.405-1.678-2.246-.556-1.682-1.223-3.52-1.357-5.304-.107-1.427.535 2.824 1.008 4.175.865 2.472 1.842 5.084 3.079 7.399.951 1.783-.664-.312-1.095-.781-1.948-2.118-4.014-4.036-6.104-6.001-.894-.84-.043.723.125.963a42.253 42.253 0 0 0 3.886 4.719c.096.102 1.527 1.568.994.926-2.307-2.777-4.839-5.42-7.227-8.132-.561-.637-1.153-1.228-1.75-1.829-.181-.181-.37-.794-.507-.578-.26.409 3.587 4.557 3.866 4.901 1.787 2.206 3.692 4.331 5.435 6.569 1.304 1.675-.799-.141-1.271-.587-2.386-2.257-4.538-4.762-6.886-7.062-1.331-1.304-.472-.549.225.421 1.184 1.646 2.595 3.062 3.866 4.632.488.602.603 1.13-.18.363-2.161-2.118-4.27-4.778-6.76-6.509-1.042-.725-1.502-1.942-2.258-2.931-.381-.5-.837-.67-1.218-1.093-.24-.266-.521-.485-.755-.774-.064-.079-.406-.748-.515-.635-.61.635 3.337 6.608 3.78 7.217 4.317 5.945 9.724 11.892 15.935 15.925 1.763 1.144 3.422 1.692 5.528 1.913 3.012.317 5.976.778 8.999.308.304-.047 1.567-.062 1.799-.25.054-.045-1.872-.645-1.998-.692-3.251-1.218-6.506-2.345-9.668-3.795-1.894-.869-3.811-1.711-5.677-2.639-.473-.235-1.795-.698-2.116-1.187-.173-.263.632.01.946.043 1.253.132 2.472.322 3.686.671 1.859.535 3.727 1.198 5.454 2.076.887.452.633.549-.373.443-2.308-.242-4.508-1.067-6.726-1.699-1.311-.374-1.329-.395-.016-.257 1.628.171 3.22.424 4.757 1.01.548.209 1.558.598.246.225-3.363-.956-6.792-2.793-9.887-4.414-.235-.123-2.217-1.14-1.827-1.099 2.763.29 5.504.75 8.233 1.262 2.936.551 5.853 1.494 8.828 1.807 1.823.191-3.117-2.406-3.188-2.448-3.978-2.329-8.027-4.542-12.099-6.702-1.326-.703-1.884-.969-.065-.461 5.227 1.46 19.807 8.794 15.098 6.096-3.194-1.829-6.331-3.789-9.45-5.743-.862-.54-4.627-2.554-1.441-2.066 4.153.637 8.352 1.541 12.37 2.775.265.081 4.416 1.528 2.889.701-2.825-1.53-5.727-2.922-8.549-4.458-1.111-.605-2.766-1.45-.467-1.226 3.362.328 6.683.712 9.962 1.544.702.178 2.405.868 3.149.529.478-.217-2.187-2.358-2.204-2.372-2.372-1.979-4.83-3.865-7.165-5.886-1.357-1.174.275-.424 1.15-.149 3.952 1.243 7.712 2.974 11.364 4.924 1.114.594 2.197 1.246 3.291 1.877.42.242.705.424-.055.249-5.519-1.272-10.79-3.952-15.915-6.281a252.403 252.403 0 0 1-5.825-2.724c-.677-.329-2.037-.746-2.58-1.349-.234-.26.664.224.982.372a42.087 42.087 0 0 1 5.223 2.917c.667.437 6.893 4.114 6.346 5.318-.57 1.254-9.881-2.66-10.87-3.014a90.652 90.652 0 0 1-4.403-1.682c-.478-.2-1.958-.631-1.443-.577 5.651.594 11.172 2.028 16.535 3.893 2.347.816-.423-.933-1.149-1.482-3.493-2.645-7.171-5.168-10.966-7.363-.067-.039-1.343-.599-1.419-.802-.079-.211.452.029.673.071.505.096 1.931.403 2.33.5 3.991.969 8.129 2.553 11.783 4.443 2.225 1.151.444.201-.644-.479-2.691-1.683-5.486-3.245-8.14-4.981-3.496-2.288 8.256 1.564 12.156 3.064.977.376 2.91 1.615.879.262-2.563-1.708-5.137-3.42-7.614-5.252-2.528-1.869.701-.602 1.862-.187 4.857 1.736 9.369 4.111 13.816 6.698.563.328 1.203.64 1.702 1.072.518.449-1.146-.756-1.692-1.17-3.491-2.649-7.149-5.064-10.68-7.659-.714-.525-2.394-1.589-.459-1.027 3.634 1.057 7.021 2.773 10.303 4.628.99.559 1.969 1.136 2.955 1.7 1.533.878-.636-.867-.697-.924-2.621-2.452-5.225-4.923-7.734-7.491-1.241-1.27-.379-.869.82-.382 2.19.891 4.089 2.255 6.211 3.234 1.102.508-1.867-2.341-2.057-2.556-1.074-1.214-3.551-3.139-4.038-4.749-.081-.268.547.147.793.282 1.345.736 2.623 1.6 3.914 2.425 2.481 1.584 4.886 3.231 7.296 4.907 2.814 1.956-4.765-5.056-6.322-8.109-.588-1.153 1.307.163 1.487.284 1.97 1.327 3.863 2.929 5.921 4.111.51.293.391-.177.252-.513-.969-2.345-2.583-4.508-4.001-6.588-2.023-2.97-4.159-5.868-6.082-8.906-.934-1.475 2.294 2.634 3.457 3.937 1.995 2.234 3.686 4.642 5.363 7.114 1.418 2.09-1.481-1.346-1.638-1.547-2.466-3.157-5.113-6.195-7.168-9.644-1.132-1.902-.131-1.06 1.057-.073 3.505 2.909 6.897 5.975 10.011 9.304.436.467 2.471 2.885 1.316.833a81.743 81.743 0 0 1-4.37-9.009c-.043-.105-1.067-2.569-.436-1.648 1.633 2.385 3.735 4.447 5.502 6.732.868 1.122 3.365 4.567 2.472 3.464-1.97-2.432-3.645-5.171-5.304-7.817-.7-1.117-1.393-2.238-2.116-3.342-.182-.278-.778-1.046-.689-.724 1.135 4.09 2.209 8.153 2.87 12.353.064.408 1.146 5.209-.032 4.889-1.183-.322-2.425-1.436-3.38-2.1-3.122-2.169-6.269-4.281-9.49-6.3-2.039-1.277-4.279-3.025-6.534-3.934-1.649-.664 2.942 2.016 4.256 3.213 1.838 1.673 3.401 3.605 5.166 5.349.02.02.495.63.208.178-1.203-1.896-2.451-3.76-3.69-5.634-2.488-3.765-5.159-7.542-7.205-11.576-.417-.822-.009-.18.273.1 1.007 1.002 2.037 1.959 2.97 3.035.168.193 3.135 3.797 2.908 3.906-.909.439-1.87-.768-2.763-1.24-4.01-2.12-7.973-4.331-11.948-6.516-4.206-2.311-8.459-4.343-12.784-6.391-.442-.21.963.214 1.401.43 1.791.888 3.485 1.991 5.148 3.094 3.603 2.388 7.226 4.851 10.606 7.552 2.457 1.962-1.567-1.223-1.968-1.512-4.259-3.065-8.633-5.937-12.993-8.852-.56-.374-2.264-1.115-1.601-1.231.584-.103 1.929.82 2.344 1.04 2.901 1.545 5.545 3.498 8.411 5.095.725.404 1.573.988 2.425 1.077 1.018.107 1.281-1.262 1.36-2.012.074-.703.464-1.638.871-2.22.321-.457.052-.024-.139.114-.81.584-1.768-.14-2.213-.8-1.653-2.452-1.027-6.646-.348-9.366.228-.916.654-2.012.312-2.435-.832-1.028 2.9-1.878 1.84-1.99-3.261-.343-7.314 2.203-9.375 4.615a113.05 113.05 0 0 0-2.63 3.17c-.439.55.064-.187.206-.347.589-.665 1.152-1.177 1.903-1.644 6.669-4.147 16.87-13.04 23.934-4.318"/><path stroke="#FFD424" stroke-linecap="round" stroke-width="2" d="M151.47 151.008c.853-.12.644-5.798.67-6.366.173-3.797.488-7.584.938-11.358.103-.864.205-.072.282.285.325 1.496.793 2.93 1.328 4.364.964 2.587 1.904 5.276 3.038 7.792.79 1.754-1.408-3.589-1.909-5.447-.234-.866-.458-4.411-.722-1.905l-.418 3.983-.055.519c.297-2.822 1.066-5.61 1.397-8.431.394-3.363 1.163-13.491.809-10.124-.307 2.922-.43 5.83-.665 8.749-.128 1.592-.628 4.259.029 5.802.198.466.286.304.702.471.409.165.291 1.586.322 1.92.275 2.957.909-2.203.894-2.969-.064-3.246-.05-6.269.292-9.526.295-2.808.043-5.699-.443-8.468-.181-1.032-.459-.093-.493.373-.154 2.115.215 4.524.567 6.61.034.198.452 2.161.151 2.214-1.123.197-2.449-5.504-2.592-6.1-.722-3.009-1.008-6.118-1.736-9.115-.516-2.125.11 4.394.547 6.537.503 2.471 1.11 4.918 1.619 7.387.017.081.093.315.075.235-.373-1.693-1.184-3.33-1.673-4.997-.583-1.988-1.095-4.003-1.608-6.01-.156-.608-.428-2.46-.432-1.832-.005 1.144.49 2.4.828 3.461.828 2.601 1.822 5.146 2.674 7.739.625 1.902 1.159 3.831 1.75 5.742.092.295.659 1.407.581 1.763-.135.617-.714-1.052-.963-1.633-1.316-3.07-2.464-6.217-3.729-9.31-.795-1.944-1.562-3.92-2.54-5.783-.598-1.14-.803-1.049-.538.128.962 4.258 2.918 8.256 3.8 12.551.081.396.838 4.393-.351 2.799-2.988-4.007-4.024-9.627-5.254-14.363-.143-.55-.674-2.129-.687-1.561-.034 1.582.626 3.404 1.017 4.9 1.294 4.951 3.499 9.867 4.374 14.908.081.468.133.801-.127.128-.777-2.009-1.574-4.005-2.257-6.05-1.561-4.683-2.11-9.635-3.644-14.293-.647-1.962.282 4.143.771 6.15.945 3.875 2.54 7.866 2.995 11.842.234 2.043-1.48-3.84-2.084-5.806-.5-1.627-.995-3.256-1.471-4.89-.002-.007-.41-1.412-.495-1.087-.636 2.416.212 5.396.412 7.813.112 1.357.156 2.719.224 4.079.011.23-.042.907-.101.684-.737-2.795-.954-5.695-1.341-8.549-.053-.385-.202-1.245-.354-.278-.256 1.63-.36 3.295-.533 4.935-.174 1.655-.124 6.537-.634 4.952-.515-1.601-.506-3.545-.616-5.197-.236-3.543-.112-7.077-.16-10.623-.003-.206-.056-5.554-.538-3.374-1.037 4.684-1.147 9.694-1.648 14.459-.085.813-.569 6.977-.362 2.911.258-5.082.229-10.185.385-15.272.103-3.333-.6 3.38-.627 3.677-.838 9.042-.771 18.133-1.397 27.19-.081 1.161-.004 2.686-.401 3.815-.259.736-.527-1.48-.643-2.252-1.164-7.743-.997-15.602-.181-23.371.36-3.423.072-.685-.101.968-.489 4.646-.938 9.298-1.466 13.939-.18 1.588-.616 2.409-.907.274-.542-3.973-.6-7.973-.613-11.975-.014-4.119.097 8.639-1.977 12.199-.366.627-.455-.403-.477-.589-.293-2.442-.271-4.926-.189-7.379.031-.914 1.389-14.212.586-14.344-.433-.071-1.323 10.552-1.375 11.198-.217 2.691-.38 5.384-.65 8.071-.114 1.133-.125 4.442-.525 3.376-.673-1.793-.545-4.3-.56-6.142-.038-4.675.372-9.343.819-13.993.265-2.765.567-5.527.857-8.29.093-.884.247-2.352.06-.575-.761 7.249-.939 14.507-1.325 21.781a229.951 229.951 0 0 1-.841 10.972c-.098.965.087 3.654-.627 4.485-.473.55-.694-1.301-.824-2.015-.567-3.112-.875-6.279-1.107-9.432-.227-3.096-.365-6.2-.426-9.303-.022-1.16.18-4.616-.045-3.479-.869 4.389-1.02 9.13-1.371 13.581-.2 2.536-.259 5.076-.403 7.614-.013.228-.298 2.695-.365 2.528-.539-1.341-.449-3.264-.518-4.648-.2-3.979-.18-7.967-.105-11.95.057-3.038.481-12.135.163-9.114-.608 5.794-.664 11.533-.434 17.352.093 2.339.219 4.679.269 7.019 0 .004-.064 2.218-.13 2.184-.421-.222-.503-2.521-.533-2.75a163.494 163.494 0 0 1-.923-8.491c-.157-1.972-.223-3.953-.455-5.918-.206-1.741-.29-.209-.374.585-.44 4.186-.484 8.383-.825 12.574-.024.298-.222 4.718-.612 2.985-.801-3.57-.718-7.529-.81-11.173-.014-.527.146-1.829-.21-2.319-.062-.086-.076.198-.089.302-.11.895-.189 1.796-.283 2.693-.415 3.953-.575 7.765-.354 11.731.037.666.213 1.485.142 2.156-.094.901-.178-1.804-.254-2.707-.122-1.439-.274-2.881-.511-4.307-.096-.572-.243-2.281-.331-1.708-.536 3.49.416 7.35.892 10.799.165 1.194.665 4.768.373 3.598-.602-2.419-1.63-4.949-2.733-7.178-.352-.712-1.441-2.711-1.453-.748-.02 3.321.622 6.596 1.09 9.869.161 1.126.615 4.101.087 1.059-.922-5.311-1.863-10.608-2.736-15.927-.573-3.494-.839.025-.765 1.479.123 2.4.732 5.032 1.354 7.359 1.081 4.05-1.735-8.415-4.067-11.898-.869-1.298-.34 2.765-.311 2.959.223 1.513.715 2.935 1.126 4.401.326 1.165.171.703.463 1.792.112.418.692 1.527.366 1.244-.852-.74-4.965-7.21-3.147-2.032a35.2 35.2 0 0 0 3.715 7.551c.08.121 1.438 1.915 1.429 1.922-.636.456-5.913-1.109-1.816.008 1.803.491 3.611 1.139 5.172 2.188.174.117 1.812 1.438.807 1.361-1.039-.08-2.076-.218-3.113-.327-.105-.011 2.351.024 2.928.066 2.833.208 5.661.581 8.486.878 1.406.148 3.511.642 4.622-.535 1.622-1.719 2.829-3.82 4.47-5.57 2.603-2.776 5.19-5.944 8.253-8.236 1.468-1.098.656.312-.162.862-4.254 2.864-10.037 3.768-14.827 5.361-3.263 1.086-6.808 2.011-9.946 3.435-.114.052-.54.375-.133.185 1.222-.569 2.483-.998 3.754-1.449 3.423-1.214 6.792-2.113 10.348-2.811 1.994-.391 2.124-.302-.071-.532-3.681-.387-7.368-.91-11.072-.966-.147-.002-1.358.024-.393-.041 1.768-.119 3.517-.687 5.244-1.051 2.149-.453 4.516-.797 6.606-1.475.467-.151-.933-.327-1.419-.39-2.539-.329-5.102-.527-7.657-.677-2.273-.134-4.547-.182-6.823-.235-.781-.019-3.098.056-2.34-.133 5.221-1.3 10.624-2.151 15.921-3.091 2.387-.423 9.483-1.837 7.198-1.03-1.084.384-2.358.522-3.478.713-4.18.71-8.401 1.149-12.616 1.594-2.734.289-10.896 1.292-8.222.653 5.072-1.212 10.184-2.294 15.34-3.081 1.592-.242 6.043-1.589 7.627-.531.321.215-.586.534-.949.666-1.717.627-3.557.904-5.339 1.282-.709.151-3.519.893-3.467.884 4.11-.744 8.425-.466 12.573-.239.205.012 4.558.369 3.032.83-4.572 1.38-9.366 1.76-13.887 3.432-.217.08-4.385 1.453-2.737 1.626 2.642.278 5.338.079 8.001.359.409.043 2.715.102 1.118.429-2.696.553-5.463.571-8.114 1.388-.775.238-1.811.555-.388.725 2.085.249 4.179.439 6.268.659 1.858.195-1.398.845-1.667.888-3.596.565-7.329 1.666-10.609 3.266-1.76.859 1.461.23 1.854.166 1.134-.182 4.581-.085 3.439-.205-1.11-.117-2.166-.231-3.278-.104-1.502.172 3.015.249 4.526.235 1.128-.01 3.666-.471 4.703.04.33.163-2.411.193-2.783.176-.171-.008-2.006.03-1.063.129 1.177.124 2.36-.007 3.547.118 1.359.143 1.892.166.555.923-1.163.659 2.018-1.78 3.178-2.445 1.355-.777 2.724-1.536 4.071-2.309 1.716-.984 3.948-1.298 5.5-2.555 1.354-1.096 2.798-2.099 3.819-3.555a14.767 14.767 0 0 1 2.73-2.903c.451-.365.504-.056.195.304-.849.987-1.4 2.169-2.22 3.184-1.316 1.627-2.481 2.818-4.251 4.019-1.706 1.158-3.232 2.694-5.038 3.682-.945.517-1.683 1.347-2.68 1.76-.654.271-1.21.647-1.879.88-.295.103.631-.322.817-.495 2.13-1.973 4.41-3.575 6.92-5.129 2.077-1.286 3.848-2.849 5.807-4.253 1.477-1.059 2.98-2.125 3.957-3.653.45-.705.807-1.458 1.248-2.166.117-.187.923-1.359.762-1.309-.337.104-.473.486-.807.524-1.134.13-1.127-4.756-1.165-5.241-.333-4.262-.532-8.565-.126-12.83.133-1.395.316-1.587.253-.116-.248 5.861-2.467 11.876-4.594 17.269-.155.393-1.119 3.585-1.552 3.708-.509.144-.044-8.059.002-8.521.293-2.903.187-6.333 1.404-9.041.668-1.486.702-.63.375.479-.747 2.532-1.43 5.088-2.203 7.61-.511 1.666-1.715 6.733-1.533 5 .349-3.32.953-6.59 1.798-9.821.524-2.003 3.06-7.691 2.239-5.791-2.582 5.982-5.696 12.038-9.28 17.471-.834 1.265.191-3.023.258-3.262 1.169-4.165 2.996-8.257 5.08-12.043.959-1.742-.536.825-.776 1.18-2.763 4.078-5.867 7.887-8.802 11.836-.395.532-1.278 2.3-2.047 2.479-.821.191.469-1.635.874-2.375 2.05-3.75 4.549-7.533 7.317-10.801.429-.507 1.396-1.692 1.216-.241-.281 2.27-1.502 4.572-2.102 6.783-.268.986-.522 1.971-.82 2.949-.086.278-.325 1.024-.078.87 1.586-.985 2.505-3.336 3.849-4.643.078-.076 1.585-1.667 1.673-1.355.142.501-.31 1.318-.494 1.734-.879 1.994-1.753 3.972-2.559 5.999-.921 2.316-1.458 5.094-2.65 7.278-1.383 2.535 2.921-4.982 4.453-7.429 1.301-2.079 2.816-4.345 4.658-6.005.627-.564.379-.177.101.521-1.076 2.704-2.91 5.144-4.204 7.754a139.212 139.212 0 0 0-1.974 4.216c-.07.154-.938 2.021-.507.769 1.184-3.428 2.908-6.735 4.563-9.956 1.185-2.304 2.757-4.493 3.825-6.843.978-2.153-.612 1.054-.769 1.649-.191.724.731-2.519.8-2.752.451-1.531.918-3.055 1.471-4.552.011-.031.785-2.059.685-2.069-.172-.018-.766 1.184-.812 1.247-1.429 1.968-3.211 3.715-4.782 5.566-6.438 7.591-12.84 15.134-19.639 22.408-.611.654-3.572 4.34-2.777 1.467 2.089-7.551 5.834-14.659 9.146-21.725 1.075-2.293 2.134-4.587 3.082-6.936.267-.659.928-1.71.967-2.45.032-.606-.901.814-1.323 1.25-2.451 2.533-4.844 5.126-7.426 7.528a80.553 80.553 0 0 1-7.27 6.028c-1.236.905-2.573 1.947-4.099 2.306-.761.179-1.136.081-1.111-.755.097-3.327 1.026-6.761 2.06-9.893 2.673-8.09 6.445-15.819 9.449-23.792.634-1.685 1.349-3.379 1.869-5.106.163-.542.517-1.487-.148-.611-7.006 9.223-14.999 17.616-21.561 27.197-.164.24-.804 1.551-.767 1.366.166-.841.638-1.689.994-2.448 2.029-4.317 4.174-8.582 6.232-12.885 2.609-5.455 5.687-10.93 7.705-16.645.309-.877.186-.562-.167-.032-1.609 2.417-3.446 4.713-5.217 7.009-1.089 1.411-18.617 24.339-18.768 24.23-1.253-.902 2.005-7.771 2.346-8.558 2.048-4.72 4.386-9.314 6.465-14.024.632-1.432.136-.992-.751-.136-3.373 3.254-6.114 7.389-9.096 10.997-1.963 2.375-4.157 4.801-5.76 7.448-1.172 1.936-.112.123.31-.917 1.262-3.114 2.57-6.268 3.493-9.501.15-.522 1.513-5.305.47-2.844-1.113 2.623-2.952 5.152-3.257 8.052"/><path stroke="#171717" stroke-linecap="round" stroke-width="2" d="M110.722 165.581c.639-.06 1.394-.689 1.938-.962 2.123-1.065 4.295-2.027 6.39-3.152 2.374-1.275 9.066-5.817 6.722-4.489-1.346.763-2.507 2.571-3.566 3.669-2.051 2.127-3.894 4.458-5.88 6.647-.13.144-1.504 1.866-1.006 1.484 1.919-1.469 4.345-2.274 6.417-3.533 2.454-1.493 5.04-3.061 7.075-5.11.337-.339 1.472-1.493.53-.479-.886.955-1.798 1.964-2.514 3.053-.183.279-1.592 2.56-1.25 2.898.879.869 9.522-7.68 10.414-8.446.216-.185 2.128-2.29 1.51-1.321-1.125 1.762-2.411 3.348-3.361 5.239-.829 1.649-2.296 3.515-2.763 5.289-.17.649 1.435-.815 1.684-1.016 5.382-4.359 10.324-8.604 14.435-14.233.127-.174 1.14-1.867.512-1.084-1.018 1.269-1.779 2.692-2.479 4.154-.653 1.362-1.039 2.86-1.547 4.278-.499 1.396.828.123 1.314-.369 1.57-1.588 2.853-3.645 4.228-5.408 1.813-2.325 3.767-4.684 5.231-7.25.028-.05.741-1.489.858-1.377.206.199-.134 1.003-.221 1.183-.767 1.587-1.418 3.147-2.132 4.766a26.296 26.296 0 0 1-2.07 3.785c-.807 1.232.125.008.434-.476.813-1.273 1.276-2.75 2.158-3.967 1.529-2.113 3.159-4.331 4.436-6.607 1.405-2.502 1.615-5.452 1.908-8.243"/><path stroke="#171717" stroke-linecap="round" stroke-width="2" d="M111.36 166.987c2.218.233 4.51-.092 6.71-.363.846-.104 3.111.096 3.844-.498.811-.657-2.094.171-3.096.463-.374.109-3.341.878-3.398 1.42-.027.255 4.424.026 4.605.011 2.991-.241 5.987-.865 9.001-.744 1.244.051-.945-.108-1.212-.136-.627-.066-2.439-.391-1.892-.076.734.423 2.089.005 2.817-.142 2.593-.523 5.154-1.247 7.707-1.93.639-.171 2.395-.224 2.845-.822.075-.1-.863-.138-.896-.138a13.84 13.84 0 0 0-3.408.43c-.418.11-1.263.288-1.558.659-.238.3.773.193 1.145.103 3.637-.877 7.126-3.247 10.292-5.188.538-.331 2.179-1.275 1.663-.911-.549.387-1.304.58-1.898.895-.867.459-3.223 1.503-3.349 2.704-.04.382 3.437-2.201 3.629-2.368a488.474 488.474 0 0 0 4.893-4.319c.82-.736 1.578-1.625 2.464-2.281 1.379-1.02-2.835 1.936-4.2 2.974a44.652 44.652 0 0 0-3.077 2.531c-.05.045-1.026 1.153-.997 1.156.342.036 1.083-.767 1.29-.941 1.055-.89 2.019-1.87 3.011-2.827 1.803-1.739 3.579-3.456 5.06-5.484.684-.938.906-2.199 1.307-3.269.537-1.434 1.198-2.829 1.709-4.269.685-1.928 1.639-3.742 2.33-5.674.353-.987 1.173-2.163 1.283-3.21l.394-3.742.229-2.182c.052-.498.15.075.13.267-.223 2.114-.596 5.1.024 7.105"/><path stroke="#171717" stroke-linecap="round" stroke-width="2" d="m116.86 163.167-13.842-1.454-.769-.081c1.57.165 2.872.774 4.352 1.31a64.85 64.85 0 0 0 7.078 2.098c2.772.658-2.022.064-2.659-.003l-4.973-.523c1.685.177 3.325.33 4.879 1.065 3.673 1.735-7.626-2.811-11.363-4.405-.206-.088-3.172-1.562-3.034-1.673.594-.482 3.249 1.045 3.706 1.242 3.365 1.445 6.821 2.742 10.214 4.121.799.324 3.121 1.344 2.264 1.254"/><path stroke="#171717" stroke-width="1.5" d="M161.179 133.565c-2.314 22.011-21.453 38.039-42.749 35.801-21.296-2.238-36.684-21.896-34.371-43.906 2.313-22.011 22.611-49.063 43.907-46.825 21.296 2.239 35.526 32.92 33.213 54.93Z"/><path stroke="#171717" stroke-linecap="round" stroke-width="1.5" d="M143.391 87.106 122.8 108.969a1.14 1.14 0 0 0 .298 1.79l12.255 6.462"/><path stroke="#171717" stroke-linecap="round" stroke-width="1.5" d="M83.512 120.186c.199-1.89.474-3.542 1.766-5.045.555-.644 1.007-1.744 1.406-2.515.465-.898 1.059-1.736 1.603-2.589a77.114 77.114 0 0 0 3.484-6.004c.955-1.846 1.829-3.818 3.142-5.47 2.578-3.244 4.871-6.77 8.074-9.464 1.463-1.232 3.014-2.269 4.507-3.478 1.158-.937 2.291-1.877 3.556-2.669 1.52-.952 3.232-1.584 4.747-2.544 1.93-1.224 3.918-1.977 6.19-2.297 1.989-.281 4.381.365 6.384.576 1.929.203 3.78.345 5.604 1.064 2.026.8 3.218 1.956 4.772 3.45 2.532 2.434 5.089 4.897 7.339 7.575 1.122 1.335 2.431 2.59 3.586 3.885.544.61.966 1.31 1.602 1.838.447.37 1.492 1.09.276.599M152.5 95.81c-.122 1.162 1.237 2.894 1.674 3.98.506 1.26 1.204 2.492 1.542 3.817.596 2.332 1.817 4.51 2.574 6.779.74 2.22 1.447 4.437 1.856 6.767.224 1.275.504 2.482.565 3.768.048 1.003-.001 2.137.191 3.116.415 2.114.516 4.538.29 6.687-.225 2.143-.083 4.406-.31 6.57-.104.986-.031 2.255-.347 3.197-.216.646-.89 1.333-.959 1.991"/><path stroke="#171717" stroke-linecap="round" stroke-width="1.5" d="M160.183 140.306c-.426 4.05-2.344 7.211-4.533 10.554-2.537 3.874-4.627 7.987-8.836 10.292-1.658.907-3.19 2.048-4.87 2.911-.669.343-1.605.917-2.185 1.387-.655.53-1.448.741-2.124 1.203-.686.469-1.859.603-2.658.862-.807.261-1.648.35-2.476.542-1.645.383-3.252.638-4.909.964"/><path stroke="#171717" stroke-linecap="round" stroke-width="1.5" d="m128.442 169.11-2.592-.272c-.846-.089-2.239-.243-3.081-.039-1.649.401-3.523-.148-5.194.162-1.183.22-2.747.05-3.944-.076-.971-.102-1.898-.153-2.812-.486-.979-.357-1.83-.893-2.688-1.466-.767-.513-1.661-1.071-2.384-1.645-1.48-1.176-3.362-2.075-5.087-2.859-.825-.375-1.959-1.107-2.68-1.655-.999-.761-2.022-1.391-2.927-2.305-1.543-1.56-3.069-3.77-3.867-5.826-.605-1.56-1.761-2.79-2.5-4.257-.153-.303-1.317-1.85-1.233-1.841"/><path stroke="#171717" stroke-linecap="round" stroke-width="1.5" d="M88.251 148.015c-.505-.788-.704-2.072-1.062-2.964-.553-1.38-1.362-2.745-1.988-4.108-.6-1.308-1.288-2.728-1.67-4.116-.393-1.433-.437-3.189-.554-4.676-.196-2.491-.003-4.774.29-7.291.266-2.273.946-4.532 1.297-6.805.463-2.994 1.53-6.03 2.81-8.739M142.717 87.297c-1.912 1.549-4.376 3.367-5.741 5.418-.494.742-1.246 1.27-1.794 1.982a21.484 21.484 0 0 1-3.245 3.396c-1.517 1.258-3.651 2.441-4.795 4.055-.484.681-.956 1.424-1.527 2.038-.584.63-1.908 1.218-2.058 2.162-.06.38-.142 1.121-.411 1.401-.27.281-.55 1.033-.795 1.19-.613.393.39.526.531.604.859.473 1.626 1.026 2.416 1.612 1.029.764 1.972 1.64 2.939 2.48.858.746 1.985 1.179 2.856 1.923 1.032.882 2.008 1.906 3.113 2.612"/></svg>