<svg xmlns="http://www.w3.org/2000/svg" width="411" height="269" fill="none"><path fill="#fff" d="M134.269 268.062C60.495 268.062.479 208.045.479 134.27S60.495.479 134.269.479c49.487 0 94.462 27.194 117.701 70.242l118.242-36.372a31.593 31.593 0 0 1 9.278-1.403 31.454 31.454 0 0 1 15.212 3.955c7.538 4.175 12.929 11.07 15.16 19.403 2.231 8.332 1.014 16.986-3.431 24.372-4.445 7.386-11.527 12.524-19.927 14.45l-118.985 27.262c.355 3.972.541 7.944.541 11.899 0 73.775-60.016 133.792-133.791 133.792v-.017Z"/><path stroke="#C6C6C8" stroke-linecap="round" stroke-width="4" d="M36.196 106.155c.472 4.722 1.557 9.469 2.397 14.151.301 1.677.647 6.307 1.121 2.513.857-6.855 4.81-14.538 7.463-20.84 1.213-2.882-.628-6.66.541-9.666 1.38-3.55-1.302 4.555-1.547 5.142-4.061 9.748-5.61 20.516-9.627 30.159-1.612 3.869.563-8.438 1.779-12.45 2.238-7.389 5.759-14.912 10.246-21.227.552-.778.85-2.053.85-.541v8.428c0 3.024-.663 9.097.155 2.475.977-7.917 4.61-15.656 7.5-23.044 1.712-4.372 1.38.101 1.006 2.397-.747 4.59-2.223 18.185-3.054 13.61-1.184-6.51 2.722-14.647 5.528-20.26.722-1.444 4.558-8.425 3.055-2.745-1.085 4.097-3.75 8.532-3.75 12.798 0 1.862-.02-3.77.463-5.568 1.18-4.38 3.914-8.568 5.955-12.605 1.183-2.339 4.87-10.42 3.866-2.938-.72 5.363-3.133 10.406-5.103 15.388-.427 1.08-2.287 8.594-3.635 8.893-.32.071 1.295-4.592 1.353-4.717 2.192-4.712 5.123-9.177 7.578-13.764 2.194-4.1 4.965-7.853 7.54-11.716.05-.074 1.906-2.716 2.126-2.165.653 1.631-1.56 5.514-2.01 6.844-.726 2.144-1.039 4.506-2.436 6.302-1.097 1.41-2.474 6.543-2.474 4.756 0-7.427 7.002-14.58 11.986-19.565 1.016-1.016 2.32-5.071 2.32-3.634 0 2.818-2.844 7.576-3.867 10.285-.666 1.762-1.696 3.89-.657.773 1.647-4.941 6.871-10.421 11.019-13.416 2.206-1.594 2.455-2.268.773.734-2.201 3.931-7.202 16.517-5.529 12.334 2.642-6.603 7.083-10.562 11.947-15.427 4.839-4.839-.614 2.93-1.817 5.336-1.7 3.4.463-.149 1.663-1.315 2.921-2.84 6.197-6.09 9.589-8.351 2.827-1.886-.721 2.326-1.083 2.938-1.473 2.492-3.634 7.888-3.634 7.888s3.231-3.877 5.258-5.336c3.727-2.684 7.071-5.519 11.019-7.888.623-.374-.958 1.107-1.314 1.74-.754 1.34-1.241 2.69-2.398 3.75-1.865 1.71-1.096 1.845.774.349 3.565-2.852 8.119-6.82 12.256-8.7 3.947-1.794 1.027.868.155 2.475-.309.569-2.921 5.087-1.933 4.717 2.821-1.058 4.97-4.121 8.042-5.259 5.278-1.955-.602 3.423-1.276 6.457-.43 1.936 1.286-.569 2.474-1.392 2.367-1.638 4.851-3.243 7.656-3.866 1.785-.397-2.572 3.422-2.436 5.606.032.513 5.213-2.297 6.109-2.629 1.361-.504 2.896-1.387 4.33-1.546 2.146-.239.947.445-.348 1.74-.524.524-3.045 3.869-.657 2.783 2.08-.945 4.421-1.319 6.573-2.087 1.098-.392 3.874-1.701 3.441-.62-.163.408-5.007 6.468-.657 4.293 3.004-1.502 5.899-1.58 9.047-2.63"/><path fill="#fff" stroke="#171717" stroke-width="2.5" d="M373.297 48.363c9.038-2.78 18.577 2.498 21.025 11.63 2.447 9.134-3.176 18.474-12.392 20.586l-132.158 30.28-2.535-8.973-2.535-6.76-2.535-6.434 131.13-40.33Z"/><circle cx="8.655" cy="8.655" r="8.655" stroke="#171717" stroke-width="2.5" transform="rotate(75 155.345 275.893)"/><ellipse cx="133.002" cy="134.148" stroke="#171717" stroke-width="2.5" rx="119" ry="119.001"/><ellipse cx="133.001" cy="134.148" stroke="#171717" stroke-width="2.5" rx="97.364" ry="97.365"/><path stroke="#171717" stroke-linecap="round" stroke-width="1.5" d="M243.617 89.092c4.581 0 8.745-.48 13.186-1.49 1.279-.29 2.368-1.163 3.582-1.648 1.076-.431 2.045-.722 3.059-1.268 1.216-.656 2.683-.946 3.978-1.316 6.055-1.73 12.083-4.563 18.003-6.83 11.632-4.455 23.674-7.942 35.438-11.982 5.247-1.802 10.813-2.81 16.165-4.28 5.109-1.402 10.138-2.993 15.278-4.278 6.826-1.707 13.807-4.054 20.825-4.834 5.449-.606 11.895-1.193 16.656 1.981 4.354 2.903 3.598 9.022 3.598 13.598 0 3.667-.731 7.474-3.645 9.858-.728.595-2.519.425-3.423.57-1.359.22-2.918.753-4.216 1.22-1.877.677-3.615 1.76-5.595 2.156-3.547.71-7.11 2.306-10.571 3.344-4.153 1.246-8.53 2.126-12.504 3.915-2.613 1.176-6.015 1.957-8.828 2.488-3.185.601-6.307 1.617-9.54 2.155-3.688.615-7.44 1.298-11.142 1.776-3.472.448-6.754 1.514-10.19 2.06-3.402.54-6.85 2.047-10.191 2.932-3.239.857-6.208 1.991-9.572 2.425-4.245.547-8.411 1.557-12.695 1.933-4.71.414-9.297 1.255-13.978 1.775-3.867.43-8.022 1.768-11.76 2.853-1.591.462-3.722 1.712-5.357 1.712M38.08 113.456c0-2.306-.08-4.581.258-6.861.204-1.376 1.05-2.74 1.813-3.884.837-1.257 1.337-2.667 2.129-3.956 1.216-1.982 2.318-4.05 3.567-6.013 1.145-1.8 2.78-3.536 3.625-5.495.776-1.797 2.17-3.621 3.38-5.135 2.828-3.535 5.295-7.386 8.272-10.803a111.268 111.268 0 0 1 8.17-8.473c3.085-2.872 6.59-5.127 9.955-7.639 4.825-3.601 9.793-6.864 14.96-9.896 2.962-1.74 6.556-2.459 9.897-3.194 4.122-.907 8.166-1.875 12.371-2.388 7.447-.908 14.883-1.093 22.382-1.093"/><path stroke="#171717" stroke-linecap="round" stroke-width="1.5" d="M136.225 38.278c3.416 0 6.839-.063 10.255 0 2.845.053 5.67.796 8.454 1.278 1.365.236 2.709.75 4.034 1.155 2.059.63 4.013 1.493 6.052 2.14 3.598 1.143 6.716 3.614 10.178 5.097 1.875.804 3.597 1.986 5.305 3.088a123.88 123.88 0 0 0 4.95 3.041 60.632 60.632 0 0 1 8.285 5.79c1.174.975 2.546 1.73 3.618 2.803a185.138 185.138 0 0 1 4.066 4.188c2.484 2.648 6.148 4.025 8.107 7.16.303.486.61.96.693 1.54.018.13.146.685.146.277"/><path stroke="#171717" stroke-linecap="round" stroke-width="1.5" d="M209.673 75.281c.071.64 1.066 1.593 1.417 2.14.778 1.218 1.731 2.326 2.463 3.573 1.128 1.92 2.213 3.858 3.496 5.682 3.006 4.276 5.02 9.543 6.513 14.521.832 2.774 1.118 5.648 1.771 8.454.505 2.169.667 4.393 1.247 6.544.527 1.953.987 3.938 1.525 5.898.167.61.237 1.26.523 1.832.156.311.222.476.031 0"/><path stroke="#171717" stroke-linecap="round" stroke-width="1.5" d="M228.938 121.846c0 1.687-.08 3.399.208 5.066.322 1.868.253 3.83.7 5.682.486 2.012.598 4.139.863 6.19.258 2.005.169 4.046.169 6.067 0 2.354-.663 4.64-1.178 6.93-.562 2.498-1.149 5.048-1.94 7.483-.888 2.732-1.953 5.387-3.01 8.054-.827 2.085-1.777 4.066-2.403 6.228-.212.735-.379 1.501-.616 2.21M148.97 229.8c2.65 0 5.389.333 7.885-.575 1.619-.589 3.333-1.344 5.043-1.724 1.556-.345 3.553-1.477 5.044-2.154 1.213-.552 2.857-.511 4.006-1.15 1.857-1.031 3.974-1.745 5.89-2.729 2.249-1.155 4.43-2.353 6.544-3.735 1.214-.794 2.539-2.14 3.862-2.65 1.759-.676 4.046-2.105 5.395-3.383 1.25-1.185 2.821-1.987 4.166-3.033 1.63-1.268 2.839-2.823 4.294-4.278 1.652-1.652 3.629-3.641 4.9-5.618 1.208-1.879 3.033-3.355 4.293-5.187 2.231-3.245 4.365-6.617 7.055-9.465 2.161-2.289 3.735-4.789 3.735-8.045"/><path stroke="#171717" stroke-linecap="round" stroke-width="1.5" d="M73.696 212.848c1.47.147 3.332 2.373 4.47 3.304 1.166.954 2.557 1.691 3.862 2.378 1.585.834 3.455 1.1 5.028 1.947 1.635.881 3.345 1.843 5.091 2.49 1.502.556 2.933 1.421 4.406 2.091 1.464.666 3.225.917 4.724 1.516 1.875.75 4.334 1.295 6.305 1.788 1.881.47 3.761 1.152 5.618 1.724 3.804 1.17 7.651 1.724 11.62 1.724 3.777 0 7.65.287 11.364.287 3.588 0 7.223-.287 10.758-.287 3.018 0 5.853-2.012 8.922-2.012"/><path stroke="#171717" stroke-linecap="round" stroke-width="1.5" d="M74.558 213.137c-2.082-2.082-4.058-4.139-6.097-6.257-1.506-1.563-2.728-3.396-4.102-5.075-.536-.655-1.188-.776-1.644-1.596-.421-.758-1.46-1.277-2.011-2.012-3.182-4.242-6.67-8.051-8.492-13.152-.663-1.857-1.828-3.654-2.362-5.522-.38-1.331-.946-3.078-1.5-4.31-2.6-5.777-4.638-11.758-6.544-17.812-.997-3.168-1.843-6.306-2.298-9.609-.362-2.623-1.362-5.277-1.437-7.917-.105-3.66-.287-7.391-.287-10.981 0-2.84-.288-5.68-.288-8.539 0-1.275-.268-2.927.288-4.039M14.44 123.316c0-4.598.92-9.414 3.002-13.579 1.827-3.653 3.72-7.812 4.628-11.808.409-1.798 1.348-3.515 2.031-5.223.836-2.09 1.437-4.41 2.611-6.34 1.15-1.89 1.821-4.15 2.815-6.136 1.242-2.484 2.243-5.088 3.713-7.457 1.92-3.093 3.477-6.632 5.876-9.385 2.155-2.476 4.1-5.08 6.397-7.443 1.234-1.268 2.16-2.87 3.395-4.178.816-.864 1.578-1.837 2.364-2.741.503-.578 1.511-1.912 2.206-2.22.916-.407 1.488-1.618 2.074-2.35.855-1.068 1.673-2.312 2.64-3.279 1.814-1.814 3.68-3.49 6.064-4.555"/><path stroke="#171717" stroke-linecap="round" stroke-width="1.5" d="M61.176 38.71c1.981 0 3.792-1.03 5.382-2.09 2.404-1.603 4.958-3.055 7.413-4.555 3.588-2.192 7.248-4.306 11.112-6.006 4.46-1.962 8.826-5.18 13.68-6.15 4.852-.971 9.552-2.495 14.507-3.134 3.606-.466 7.153-1.18 10.779-1.51 2.464-.223 4.904-.451 7.369-.637 2.276-.172 4.582-.04 6.847-.261 6.997-.683 14.706-.632 21.296 2.088 3.412 1.409 6.904 2.578 10.3 4.033 3.55 1.522 7.042 3.343 10.445 5.165"/><path stroke="#171717" stroke-linecap="round" stroke-width="1.5" d="M172.156 20.952c1.481.165 2.532 1.693 3.917 2.09 1.617.461 3.2 1.839 4.7 2.61 4.785 2.46 10.062 4.118 14.681 6.848 10.584 6.254 20.466 14.024 28.463 23.443 2.211 2.605 4.494 5.146 6.455 7.964 2.065 2.968 3.353 6.234 5.237 9.27 2.959 4.767 4.565 10.589 6.325 15.871.417 1.25.889 2.654 1.233 3.859.257.896.959 2.084 1.059 2.988.15 1.35 1.251 2.692 1.553 4.048.161.725.467 1.559.798 2.219"/><path stroke="#171717" stroke-linecap="round" stroke-width="1.5" d="M245.011 97.725c0 4.927 2.63 9.65 4.584 14.115 2.4 5.485 2.803 11.843 3.569 17.684 1.042 7.952.75 16.613-.711 24.502-.346 1.869-.444 4.093-1.233 5.847-.797 1.771-1.668 3.48-2.539 5.222-1.558 3.117-2.566 6.029-3.409 9.401"/><path stroke="#171717" stroke-linecap="round" stroke-width="1.5" d="M118.868 252.753h16.385c4.491 0 8.389-.797 12.785-1.611 6.329-1.172 12.976-1.506 19.148-3.221 3.343-.928 6.477-2.154 9.644-3.579 3.283-1.477 6.712-2.513 9.763-4.474 5.475-3.52 11.585-6.548 16.384-11.095 1.742-1.65 3.958-3.022 5.886-4.454 3.951-2.936 7.964-6.372 11.075-10.201 1.82-2.239 3.637-4.464 5.23-6.9 1.791-2.74 4.241-5.079 5.925-7.834 4.168-6.82 8.393-13.119 11.612-20.361.942-2.119 1.51-4.569 2.148-6.801.583-2.042 2.505-4.035 2.505-6.084M17.94 108.871c0 4.383-1.833 8.104-2.486 12.348-.588 3.823-1.094 7.326-1.094 11.274 0 6.631 2.513 12.774 3.241 19.328.536 4.822 1.656 9.629 2.923 14.316.832 3.078 2.19 6.009 3.222 9.028 1.515 4.434 2.784 8.839 4.573 13.183 2.859 6.943 7.376 11.991 12.447 17.438 1.885 2.024 2.902 4.798 4.753 6.88.796.896 1.43 1.816 2.127 2.784.3.416 1.761.795.716.795"/><path stroke="#171717" stroke-linecap="round" stroke-width="1.5" d="M45.143 214.099c2.493 2.244 4.833 5.151 7.675 6.959 4.26 2.711 8.19 5.927 12.368 8.789 4.764 3.264 9.514 6.334 14.495 9.286 3.874 2.295 7.996 3.803 11.99 5.746 3.222 1.568 6.795 2.483 10.022 4.096 3.343 1.672 7.85 1.496 11.453 2.347 5.302 1.252 10.728 1.927 16.106 2.525 1.592.177 11.94.239 11.811-.02M372.411 56.242c-.402 0-.816-.03-1.216.01-.865.086-1.656.603-2.362 1.068-.586.386-1.141.883-1.638 1.38-.319.318-.717.616-.819 1.077-.509 2.29-.259 4.747-.259 7.09 0 1.103.214 2.086.561 3.127.332.998 1.243 1.605 2.15 2.074 1.471.76 2.837 1.598 4.484 1.978 1.655.382 3.086.164 4.531-.69 1.698-1.003 2.935-2.237 3.899-3.942.584-1.032.886-2.28 1.145-3.43.286-1.27.439-2.887-.043-4.128-.432-1.11-1.15-2.179-1.983-3.027-.857-.873-2.004-1.94-3.191-2.328-.63-.207-1.25-.45-1.896-.604-.667-.16-1.389-.086-2.07-.086-.516 0-1.13-.094-1.638.019-.276.061-.579.153-.862.153"/><g filter="url(#a)"><path fill="#fff" stroke="#fff" stroke-width="8" d="M130.373 173.283c23.688-1.656 41.283-22.793 39.594-46.949-.836-11.961-6.427-25.18-14.573-35.242-8.087-9.989-19.399-17.675-31.943-16.798-12.543.877-22.675 10.063-29.293 21.08-6.667 11.098-10.363 24.966-9.527 36.927 1.69 24.156 22.054 42.639 45.742 40.982Z"/><path stroke="#FFD424" stroke-linecap="round" stroke-width="3" d="M89.872 138.364c2.609 2.068 5.518 3.786 8.222 5.726 3.982 2.857 7.829 5.93 11.421 9.264.597.554 1.218 1.075 1.824 1.619.047.042.477.632.548.627.482-.033-.569-.783-.89-1.144-1.68-1.888-3.447-3.695-5.108-5.601-3.65-4.187-6.909-8.583-9.391-13.564-1.126-2.259-2.093-4.587-3.198-6.851-.564-1.157.676.746.896.972 7.654 7.875 16.888 13.952 25.53 20.645 3.679 2.85 7.112 5.931 10.418 9.199.04.039.865.935.361.407-1.53-1.607-3.044-3.228-4.56-4.848-7.642-8.162-15.462-16.155-22.766-24.627-2.774-3.218-5.677-6.462-7.846-10.135-.086-.145-.208-.269-.281-.421-.384-.793 1.173 1.316 1.817 1.916 10.514 9.81 22.594 17.748 34.734 25.365 3.99 2.504 7.942 5.085 11.991 7.496.115.069.418.295.363.173-.171-.374-1.383-1.1-1.591-1.257-3.369-2.542-6.583-5.274-9.762-8.048-9.451-8.246-18.588-16.938-27.102-26.151-2.616-2.831-5.256-5.703-7.324-8.974-.04-.065-.205-.219-.173-.15.086.179.42.537.493.613 1.454 1.524 3.041 2.937 4.639 4.302 7.465 6.376 15.53 12.049 23.607 17.611 7.018 4.832 14.109 9.56 21.303 14.126 1.427.906 2.856 1.81 4.252 2.763 1.778 1.214-.387-.183-.844-.49-9.524-6.404-18.558-13.392-26.403-21.807a132.345 132.345 0 0 1-10.767-13.162c-.154-.216-1.417-1.89-1.129-1.604 1.088 1.081 2.29 2.066 3.471 3.042 5.707 4.717 11.663 9.172 17.757 13.375 7.784 5.369 15.957 10.204 24.092 15.021.173.102 1.574 1.096 1.88.876.156-.112-.18-.35-.322-.481-1.156-1.07-2.491-1.997-3.743-2.943-11.357-8.58-22.406-17.406-32.22-27.773-4.193-4.428-8.432-9.211-11.605-14.453-.141-.234-1.363-2.125-1.058-1.744 1.192 1.482 2.703 2.802 4.101 4.069 5.546 5.026 11.493 9.617 17.607 13.926a260.687 260.687 0 0 0 21.696 13.712c.644.365 2.383 1.607 1.995.977-.642-1.042-1.759-2.076-2.587-2.889-6.594-6.468-13.675-12.469-20.722-18.433-6.251-5.291-12.502-10.545-18.036-16.596-.662-.724-1.369-1.41-1.894-2.244-.036-.057-.419-.556-.241-.487 1.372.532 2.776 1.498 4.041 2.193 6.325 3.472 12.612 7.01 18.941 10.475a735.356 735.356 0 0 0 21.025 11.059c.413.209 1.445 1.004 1.264.577-.481-1.132-2.338-2.367-3.189-3.134-6.443-5.8-13.273-11.163-19.3-17.417a57.068 57.068 0 0 1-4.58-5.386c-.724-.965-1.513-1.931-1.996-3.047-.016-.038-.245-.547-.164-.42.746 1.166 2.348 2.086 3.413 2.858 6.96 5.044 14.212 9.627 21.84 13.584 1.841.955 3.675 1.915 5.488 2.92.457.253 1.031.401 1.461.69 1.343.901-2.606-1.921-3.851-2.953-4.048-3.356-7.922-6.847-11.53-10.679-1.798-1.91-3.548-3.755-5.639-5.348-.367-.279-.936-.802-1.404-.9-.751-.16-1.658-.178-2.433-.29-2.183-.314-4.363-.406-6.564-.423-1.141-.008-2.398.196-3.465-.135-.666-.207-1.212-.544-1.793-.92-.098-.063 2.439-.33 2.893-.327 2.449.017 4.825.76 7.287.588.552-.038-.485-.433-.755-.631-1.075-.787-2.324-1.52-3.592-1.945-.386-.13-4.774-.817-4.746-.415.02.283.449.606.612.767a163.263 163.263 0 0 0 5.972 5.604c9.044 8.079 18.094 16.157 27.064 24.317 2.54 2.31 5.148 4.592 7.567 7.031.957.966-1.272-.947-1.349-1.012-4.184-3.541-8.394-6.953-12.295-10.814a911.498 911.498 0 0 1-13.578-13.713c-2.11-2.18-4.3-4.216-6.92-5.771-.569-.338-1.46-.744-2.155-.696-.481.034 1.666 3.19 1.683 3.213 3.233 4.4 7.339 8.228 11.245 12.012 4.243 4.112 8.651 8.035 13.051 11.977 1.532 1.372 3.067 2.743 4.582 4.134.686.63 1.568 1.25 2.155 1.983.426.531-1.109-.792-1.634-1.227-3.198-2.65-6.313-5.404-9.426-8.152-6.104-5.388-12.172-10.827-18.388-16.086-2.802-2.37-5.784-4.68-8.906-6.623-.288-.178-1.518-1.085-1.921-.954-.356.116.36.661.589.958 1.527 1.977 3.143 3.885 4.727 5.816 4.733 5.772 9.119 11.847 14.03 17.471 1.172 1.343 2.327 2.677 3.426 4.08.635.812.744.887-.193-.058-6.006-6.058-12.037-12.11-17.481-18.687-2.056-2.483-3.969-5.083-6.054-7.542-1.182-1.395-2.42-3.053-3.924-4.127-.379-.27-1.234-.778-1.744-.742-.129.009-.079 1.031-.092 1.131-.307 2.25.461 4.329 1.72 6.19.92 1.36 2.37 3.096 3.413 4.28 3.432 3.89 7.081 7.612 10.794 11.233 6.493 6.331 13.406 12.166 20.29 18.059 4.423 3.785 9.101 7.478 13.097 11.73.297.315 1.261 1.141.861.975-.671-.279-1.535-1.452-1.997-1.904-5.987-5.868-11.796-11.858-17.098-18.363-4.966-6.094-9.292-12.703-14.359-18.707-.827-.98-1.727-1.902-2.508-2.92-.327-.427-.615-1.039-1.075-1.348-.227-.152.324.441.521.63 2.095 2.012 4.175 4.04 6.29 6.031 7.173 6.755 14.351 13.743 22.239 19.678 1.064.8 1.717 1.959 2.386 3.091.034.058.722 1.265.469 1.174-1.714-.618-3.564-2.331-5.02-3.304-6.925-4.626-13.789-9.336-20.559-14.187-7.313-5.24-14.359-10.782-21.504-16.237-.561-.428-2.567-2.324-3.496-1.987-.169.06.24.427.304.491.811.805 1.439 1.817 2.194 2.673 3.455 3.914 7.312 7.5 11.116 11.068 6.278 5.888 12.785 11.527 18.747 17.743 1.107 1.154 2.24 2.29 3.21 3.565.214.28.643.683.748 1.037.105.354-1.38-1.073-1.475-1.148-9.339-7.34-19.192-14.036-28.351-21.599-4.51-3.726-8.723-8.151-13.907-10.963-.317-.171.137.736.359 1.02 5.899 7.533 12.956 14.008 19.654 20.802 5.147 5.221 10.372 10.609 13.93 17.081 1.271 2.312 2.133 4.789 3.289 7.133.605 1.225-1.547-1.085-1.696-1.213-8.903-7.674-18.258-14.808-27.186-22.455-4.042-3.462-7.964-7.142-11.345-11.268-.783-.954-1.48-2.119-2.42-2.936-.121-.105.207.248.306.375 1.356 1.756 2.658 3.552 4.042 5.289 7.355 9.232 15.356 17.862 23.551 26.345 3.699 3.828 7.69 7.592 10.986 11.787.352.449.623.94.953 1.401.355.496-.907-.815-1.355-1.228-7.693-7.113-15.185-14.337-22.524-21.818-3.666-3.737-7.167-7.682-10.977-11.275-.398-.375-1.545-1.405-1.384-.236.447 3.259 2.143 6.593 3.457 9.541 3.062 6.87 6.663 13.482 10.33 20.043 3.172 5.675 6.37 11.415 10.048 16.785.135.196 1.521 1.858.626 1.486-2.65-1.101-4.974-3.109-7.207-4.86-4.856-3.808-9.507-7.886-14.164-11.934-1.463-1.272-2.885-2.746-4.58-3.712-.967-.551 1.008 2.951 1.038 3.005 5.361 9.669 13.344 17.502 19.827 26.372 1.559 2.132-2.409-.328-2.875-.573-4.3-2.265-8.302-4.853-12.441-7.375-2.047-1.247-4.132-2.461-5.953-4.03-.7-.603-1.339-1.263-2.013-1.893-.234-.218-.93-.393-.72-.634.155-.178 3.755 2.074 3.914 2.165a154.444 154.444 0 0 1 14.4 9.38c1.078.792 4.093 3.447 3.07 2.585-4.024-3.391-7.818-7.047-11.737-10.556-2.415-2.163-4.858-4.332-7.45-6.284-.777-.584-1.525-1.364-2.412-1.784-.932-.442.444.153.71.247 5.879 2.078 11.688 4.41 17.232 7.274 5.79 2.989 11.487 6.189 17.244 9.244.909.482 1.785 1.101 2.749 1.472.068.027.294.16.26.108-.178-.265-.48-.436-.728-.624-1.509-1.145-2.89-2.453-4.376-3.627-6.553-5.178-13.651-9.683-20.571-14.349-5.66-3.816-11.258-7.488-15.9-12.569-2.107-2.305-3.843-4.866-5.717-7.35-.447-.592-.093.142.198.392 3.875 3.316 8.551 5.922 12.878 8.586 5.225 3.217 10.424 6.427 15.562 9.784a229.531 229.531 0 0 0 10.254 6.349c2.828 1.643 6.164 2.847 9.322 3.695.74.199-.546-.861-.604-.921-6.439-6.643-13.159-13.07-20.266-18.996-5.891-4.912-12.028-9.568-18.081-14.28-1.764-1.373-3.51-2.76-5.142-4.284-.647-.604.59.354.696.437 1.487 1.161 3.102 2.155 4.605 3.296 4.33 3.286 8.409 6.891 12.637 10.304 11.39 9.194 23.557 17.442 35.525 25.859.583.41 1.135.933 1.779 1.244.353.17.733.169 1.091.41.451.302.945.539 1.391.838 2.01 1.35-3.293-3.556-5.063-5.208-8.306-7.754-17.543-14.369-26.595-21.209-3.213-2.428-6.416-4.872-9.636-7.292-1.306-.981-2.661-1.907-3.882-2.995-.418-.373-1.839-1.64-.304-.744 7.793 4.547 15.77 8.635 23.742 12.849 4.633 2.449 8.811 5.464 13.134 8.397 3.001 2.036 6.084 3.783 9.236 5.555 2.013 1.132-1.332-1.704-1.545-1.89-9.023-7.843-18.434-15.223-27.313-23.238-6.558-5.92-13.113-12.049-18.728-18.896a80.062 80.062 0 0 1-2.234-2.859c-.472-.632.258-.074.473.075 6.698 4.61 13.592 8.968 20.511 13.236 7.964 4.914 15.995 9.814 24.236 14.255a243.8 243.8 0 0 0 9.661 4.941c.483.232 1.51 1.064 2.07 1.025.139-.01.226-.007.08-.15-1.649-1.602-3.993-2.714-5.932-3.869-11.785-7.02-23.665-13.864-34.306-22.587-4.646-3.808-8.668-8.204-13.121-12.205-.546-.49-1.105-.958-1.591-1.51-.356-.403.887.611 1.325.925 9.517 6.829 19.408 13.054 29.58 18.858 7.631 4.354 15.291 8.634 22.634 13.466 1.919 1.264 3.984 2.563 5.646 4.169.217.209.89.808.647.63-1.438-1.062-3.051-1.912-4.581-2.83-4.589-2.755-9.159-5.552-13.554-8.611-.213-.148-2.931-2.013-2.896-1.778.105.712.648 1.384 1.07 1.924 2.101 2.683 4.595 5.122 7.107 7.414 2.416 2.204 5.001 4.213 7.631 6.154 1.216.898 2.453 1.838 3.796 2.543.14.073 1.35.536 1.1.535-.389-.002-.771-.171-1.136-.281-1.622-.487-3.238-.965-4.84-1.515-3.151-1.082-6.327-2.123-9.462-3.245-.05-.018-1.056-.495-.799-.097.587.909 1.618 1.622 2.413 2.324 2.714 2.398 5.39 4.919 7.678 7.735.188.231 2.238 2.861 1.551 2.745-3.079-.519-5.985-2.382-8.611-3.952-2.196-1.314-4.078-3.03-6.211-4.39-7.078-4.514 7.99 6.424 14.828 11.292.155.11 2.917 2.15 1.847 2.211-2.345.136-4.857-1.166-6.871-2.237-3.073-1.635-.127-.252-3.363-1.528-3.69-1.456-7.218-3.207-10.855-4.767-.158-.068-.683-.282-.458.14.67 1.252 2.019 2.402 2.95 3.448 3.168 3.556 6.595 6.846 9.899 10.27.101.104 2.442 2.454 2.285 2.559-.85.567-3.923-1.233-4.541-1.492-2.912-1.22-5.76-2.605-8.728-3.683-1.086-.395-1.36-.412-1.15.8.271 1.56.851 3.118 1.341 4.623.055.17.391.724.271.917-.229.369-2.119.046-2.348.02-3.799-.425-7.274-1.953-10.54-3.871-.546-.32-1.205-.66-1.687-1.079-.999-.869 2.112 1.598 3.182 2.379 3.628 2.647 7.37 5.137 11.002 7.781.123.089 2.156 1.613 2.178 1.414.153-1.385-.179-3.029-.299-4.408-.525-6.063-6.38-9.759-10.782-13.125-5.843-4.467-11.908-8.817-17.128-14.031-1.891-1.888-3.168-3.928-4.486-6.221-.341-.594-5.52-7.97-6.037-7.57-.198.153-.008 1.286-.007 1.458.017 1.583-.031 3.158.053 4.74.109 2.045-.087 4.626.684 6.568.133.334.383.633-.183.462-2.743-.826-5.291-2.933-7.525-4.64-2.221-1.696-3.742-3.313-3.945-6.213-.032-.46-.062-.723.52-.55.95.283 1.83.936 2.723 1.358 1.327.628 2.688 1.193 4.03 1.788.956.424 2.109 1.226 3.111 1.484.084.022-.094-.148-.15-.215-.519-.617-1.063-1.212-1.578-1.833-1.47-1.778-2.865-3.623-4.243-5.473a84.548 84.548 0 0 1-3.197-4.646c-.248-.384 4.066.363 4.443.463 1.97.526 4.12.979 5.979 1.841.043.02.776.408.491.065-.987-1.185-2.07-2.298-3.069-3.475-2.392-2.818-4.731-5.663-6.717-8.783-.45-.709-1.47-1.649-.124-1 .74.357 9.991 3.561 10.172 2.97.159-.521-.477-1.55-.667-1.942-.948-1.952-2.043-3.827-2.979-5.786-.65-1.362-1.265-2.725-1.687-4.176-.037-.127-.455-1.156-.316-1.3.48-.504 6.242 3.841 6.672 4.15 3.601 2.588 7.214 5.159 10.926 7.589.474.31 1.906 1.486 1.446.339-1.787-4.448-4.422-8.557-6.707-12.761-.713-1.311-1.212-3-2.093-4.192-.224-.303 1.289 1.408 1.536 1.63 4.911 4.396 9.62 8.978 14.876 12.973.247.188.557.571.857.678.627.224-.76-1.092-1.166-1.619-2.735-3.558-5.721-7.043-7.646-11.13-.615-1.306-1.084-2.374-1.182-3.78"/><path stroke="#FFD424" stroke-linecap="round" stroke-width="3" d="M117.957 159.771c2.38 1.744 6.451 4.425 9.482 4.715.025.002-1.661-1.141-2.092-1.423-1.955-1.282-3.786-2.746-5.779-3.969-.448-.275-1.616-1.192-2.197-1.152-.466.033 1.563 3.182 1.679 3.339 1.634 2.199 4.169 4.859 6.943 5.475 1.032.228 1.89.124 2.941.199 1.069.078 2.749 1.069 1.148-.732-.686-.772-1.556-1.363-2.297-2.079-.233-.225-1.969-1.827-1.098-1.581 4.218 1.194 8.32 4.428 12.936 3.945 2.305-.241-1.244-8.112-1.675-9.088-.195-.439-1.55-2.261-1.475-2.682.022-.127 4.231 3.112 4.537 3.35 1.053.82 5.064 4.336 4.85 1.283-.188-2.691-.877-5.803-.594-8.493.044-.411 6.713 2.488 7.617 2.765 1.878.575-2.147-4.734-2.31-5.04-.184-.349 1.844.694 2.032.81.918.568 2.117 1.895 2.064.014-.117-4.14-1.261-8.218-2.108-12.248-.76-3.613-1.136-7.164-1.393-10.835"/><path stroke="#FFD424" stroke-linecap="round" stroke-width="3" d="M129.986 141.156c4.108 1.981 7.188 5.951 10.585 8.905.707.615.983.987-.062.374-3.353-1.966-6.436-4.528-9.331-7.106-2.2-1.958-4.347-4.126-6.047-6.542-.621-.882-1.14-1.781-1.905-2.529-3.266-3.195 7.339 5.45 10.848 8.375.291.243 1.728 1.566 2.216 1.432.558-.153-1.902-4.707-2.039-4.953-1.436-2.584-3.288-4.902-4.788-7.442-.145-.246-1.214-2.179-.815-2.076 1.854.477 3.605 2.333 5.205 3.321 1.694 1.047 3.882 2.334 5.899 2.656 3.688.588.311-8.437-.066-10.011"/><path stroke="#FFD424" stroke-linecap="round" stroke-width="3" d="M106.586 138.081c1.504-.037 2.898.487 4.281 1.038 3.473 1.386 6.918 2.945 10.322 4.493 3.939 1.791 8.198 3.801 11.85 6.144 8.246 5.288-16.141-11.182-24.787-15.789-3.206-1.708-6.422-3.626-9.76-5.058-3.808-1.633 7.633 3.225 11.431 4.881 6.511 2.839 13.103 6.103 19.875 8.288.805.26 1.72.402 2.475.804.893.475-1.82-.886-2.697-1.389-4.911-2.82-19.351-11.724-14.287-9.19 4.254 2.128 8.427 4.288 12.839 6.105.963.396 2.042.894 3.092 1.016.359.042-2.169-2.101-2.272-2.185-7.028-5.817-14.233-11.452-20.276-18.328-2.417-2.75-4.138-6.276-6.69-8.85-2.02-2.036 4.895 2.995 7.293 4.57 5.403 3.55 11.072 6.909 16.749 10.009 1.263.69 2.579 1.201 3.895 1.771.743.322.721.071.136-.43-5.119-4.382-10.863-8.082-16.073-12.371-2.705-2.226-5.261-4.754-8.109-6.796-1.506-1.08 2.223 1.133 2.275 1.163 7.869 4.556 15.719 9.212 23.673 13.613 3.6 1.991 7.21 4.391 10.973 6.055.095.042 1.143.648.57.2-1.591-1.242-3.28-2.36-4.921-3.533-5.051-3.61-10.171-7.132-15.126-10.874-2.6-1.963-5.384-4.058-8.239-5.645-.559-.31-.45-.351.155-.146 2.553.867 4.998 2.27 7.436 3.402a422.965 422.965 0 0 0 21.321 9.209c.287.114 5.325 2.082 5.232 2.609-.12.681-9.898-3.825-10.508-4.134-3.055-1.549-6.117-3.093-9.135-4.711-5.938-3.183 22.249 15.18 16.463 11.728-5.083-3.034-9.831-7.018-14.383-10.776-2.901-2.395-6.648-5.28-8.453-8.711-1.241-2.358 6.845.158 7.37.311 6.115 1.784 12.273 3.444 18.644 4.016 4.286.385.297-3.86-1.002-5.309-3.49-3.893-7.415-7.387-10.62-11.535-.3-.388-3.34-4.334-1.736-3.56 4.173 2.012 7.783 5.505 12.21 6.99.36.12 1.039.405.505-.29-1.336-1.745-3.183-3.221-4.75-4.748-1.11-1.081-2.367-2.07-3.438-3.186-.163-.169-1.136-.917-.839-.602 2.175 2.309 5.38 3.865 8.01 5.586.943.617 1.917 1.183 2.86 1.798.383.25.75.625.021.074-3.821-2.885-7.88-5.496-11.389-8.776-.624-.584-1.296-1.153-1.896-1.76-.738-.749 1.706 1.226 2.563 1.834 3.611 2.56 7.222 5.127 10.522 7.995 1.845 1.604-6.58-7.004-5.564-4.78.567 1.241 1.796 2.31 2.681 3.313a496.276 496.276 0 0 0 5.214 5.797c2.255 2.475 4.757 4.997 6.474 7.902.71 1.203 1.08 2.39 1.505 3.697.188.577.593 1.569-.125.79-1.149-1.247-2.392-2.531-3.708-3.602-.207-.169-1.391-1.163-.544-.473 2.306 1.877 4.212 5.191 5.491 7.821 1.201 2.469 2.146 5.108 2.975 7.726.616 1.946-.441.512-1.104-.313-1.242-1.547-2.43-3.209-3.938-4.519-2.387-2.075 3.523 5.27 4.968 8.083.316.614-1.16-.749-1.705-1.173-1.515-1.18-3.077-2.297-4.614-3.449-.878-.659-1.754-1.565-2.77-2.016-.37-.164 1.688 1.762 1.911 1.971 2.595 2.428 5.224 4.783 7.696 7.336 1.228 1.268.971 1.785-.392.418-.852-.855-1.989-1.932-2.584-3.005-.758-1.365 2.11 2.303 3.1 3.51.478.582 1.545 2.207.131 1.012-.868-.733-1.799-1.601-3.024-1.561-2.366.077-.331 4.871.294 5.93.571.967-.763.447-1.335.244a36.364 36.364 0 0 1-3.095-1.272c-.405-.188-1.458-.976-1.185-.623 1.72 2.227 8.72 7.119 6.562 5.311-1.907-1.597-4.337-2.437-6.263-4.04-1.756-1.46-.071-.118.991.412.334.167 2.601 1.906 1.603.579-1.65-2.193-3.49-4.24-5.138-6.433-.119-.158-1.597-1.88-1.205-1.749 2.584.863 5.225 3.333 7.463 4.858.222.151 3.323 2.261 2.012 1.693-1.82-.789-3.908-1.913-5.451-3.166-.271-.22-1.807-1.466-2.229-.926-.491.629.79 3.228 1.022 3.866.301.829 1.301 2.3.073 2.76-2.039.762-4.663-.069-6.58-.832-1.696-.676-.709.189.124.923 1.927 1.696 3.67 3.574 5.542 5.322 1.053.984-3.823-1.211-4.247-1.416-1.898-.917-4.448-1.763-6.025-3.215-1.554-1.431 4.06 1.184 6.027 1.953 1.711.668 6.787 2.814 5.104 2.077-4.114-1.801-8.146-3.821-12.196-5.714-.767-.358.331 1.832.406 2.151.797 3.385-.274 6.145-3.171 8.156-4.103 2.847-9.777 3.253-14.634 3.473-2.512.113-5.235-.177-7.517-1.338-1.83-.931.868.019 1.449.304 1.31.645 2.611 1.788 3.961 2.278 1.043.379-.906-1.4-1.071-1.563-.324-.319-3.172-2.831-2.108-2.633 2.705.503 5.133 1.901 7.657 2.906 2.525 1.006-.719-.347-1.517-.841-1.168-.723-2.197-1.638-3.352-2.38-.083-.054-1.524-1.008-1.091-.991 1.375.057 3.082 1.056 4.318 1.577 1.883.794 3.696 1.743 5.534 2.633.461.224 4.46 2.052 2.096 1.402-11.548-3.178-22.769-8.303-33.875-12.734-4.823-1.925-4.48-2.219-9.349-4.013-.383-.141-.633-.136-.183.178 1.126.784-2.977.026-1.942.926 2.3 1.998 4.359 4.266 6.644 6.252.293.256 2.112 1.565 2.085 1.462-.188-.738-1.178-1.387-1.652-1.928-.713-.814-1.208-1.767-1.866-2.619-1.8-2.331 1.144.054 2.135.662 2.677 1.643 5.423 3.077 8.205 4.52.455.236.673.314.428-.33-.779-2.044-2.054-3.978-3.159-5.85-2.66-4.503-5.4-8.674-7.247-13.589-.204-.543-1.078-2.724-.078-1.768 1.545 1.479 3.414 2.698 5.28 3.733 1.569.871.459-.97.027-1.76a38.358 38.358 0 0 0-2.25-3.599c-.398-.568-1.3-1.331-1.45-2.033-.111-.519 3.576 1.67 3.999 1.96.238.163 2.113 1.13 2.062.907-.347-1.536-2.15-3.433-3.092-4.682-.989-1.311.398-.528 1.179-.113.742.395 2.711 1.256 3.111 1.932"/><path stroke="#FFD424" stroke-linecap="round" stroke-width="3" d="M113.169 154.051c2.904.08 6.074 1.719 8.699 2.966.219.104 2.088.731 1.563.562-1.742-.56-3.402-1.565-5.016-2.444-2.84-1.545-5.612-3.193-8.382-4.869-.084-.051-.64-.387-.452-.023.218.421.672.748.998 1.046 1.2 1.099 2.359 2.249 3.579 3.324 2.026 1.785 4.051 3.609 6.14 5.308.909.74 1.867 1.366 2.538 2.376 1.211 1.823-4.775-.856-5.065-1.017-5.715-3.17-11.143-6.987-16.569-10.693-.325-.221-3.18-2.237-1.617-.8 2.835 2.605 5.454 5.562 8.402 8.012.462.384.994.755 1.43 1.163.486.455-1.028-.839-1.491-1.32-3.168-3.294-5.807-7.22-9.416-10.011-1.307-1.01-3.276-2.703-4.963-2.945-.503-.072.634.856.975 1.262.985 1.176 1.97 2.318 3.047 3.402 1.747 1.76 7.01 7.01 5.204 5.32-1.394-1.305-2.963-2.371-4.375-3.645-.095-.085-.76-.636-.361-.162 1.598 1.9 3.632 3.636 5.519 5.177 3.421 2.793 7.207 4.845 10.801 7.32 1.412.972 1.259.617-.01-.322-.945-.699-4.118-2.021-2.988-1.833.996.165 1.92.744 2.862 1.103 1.519.58 3.145.858 4.749.77.727-.04 1.476.061 1.181-.97-.451-1.576-1.49-2.816-2.55-3.96-.615-.664-1.281-1.307-1.816-2.05-.472-.655 1.298.642 1.332.66 3.017 1.576 6.089 3.072 9.283 4.174 1.885.651 4.566 1.868 6.578 1.22 1.965-.633-.317-4.279-.838-5.195-3.658-6.44-7.834-12.513-11.311-19.083-4.659-8.803-7.258-17.836-7.546-27.905-.101-3.559.128-8.593 2.394-11.482 2.694-3.433 6.677-4.13 10.658-4.373 2.983-.182 5.861.323 8.828.538 1.146.083 4.209.69 4.634-1.063.465-1.917-.791-4.044-1.901-5.403-2.237-2.736-5.073-4.972-7.734-7.2a284.342 284.342 0 0 1-4.223-3.6c-1.347-1.174-.482.867-.169 1.503 1.772 3.595 4.51 6.608 6.782 9.845.473.675.651.9-.232.258-2.237-1.629-4.461-3.145-6.267-5.34-.856-1.04-3.026-4.495-2.366-3.3 1.003 1.815 2.567 3.175 3.759 4.829.011.014-6.184-6.23-6.607-5.383-.368.734 4.514 5.672 5.061 6.31.192.225 2.35 3.43 2.212 3.42-1.44-.1-3.477-1.753-4.693-2.467-1.881-1.104-3.704-2.317-5.584-3.425-.166-.098-1.816-1.31-1.207-.48 1.363 1.858 3.125 3.443 4.759 5.015.25.24 5.527 5.694 5.624 5.613.189-.156-.312-.396-.489-.57a31.045 31.045 0 0 1-1.823-1.956c-1.669-1.946-3.271-3.947-4.733-6.078-.825-1.204-1.655-2.4-2.308-3.722-.213-.43-.468-1.067-.786-1.423-1.648-1.846 3.134 3.853 4.781 5.699a98.84 98.84 0 0 0 2.323 2.498c.185.194-1.422-.414-1.557-.482-1.232-.621-3.636-1.794-4.436-3.076-.305-.488-2.44-.456-2.948-.547-.835-.148-1.944-.734-1.267.626 1.09 2.193 2.685 4.545 4.383 6.251.609.612-.059-.007-.298-.328-1.021-1.376-2.15-2.63-3.27-3.91-.952-1.088-1.833-2.142-2.911-3.049-.425-.358-1.087-.524-1.45-.92-1.043-1.137 1.607 2.693 2.524 3.95 1.283 1.759 2.516 3.582 3.936 5.22.545.628 1.301 1.957 1.978 2.388 1.657 1.055-3.212-2.29-4.856-3.37-.353-.231-5.036-2.692-4.932-2.14.179.953 1.215 2.01 1.741 2.754.914 1.291 1.878 2.545 2.72 3.894.575.922 1.503 2.034 1.583 3.182.098 1.4-.405 2.799-.721 4.148-.362 1.542-.411 2.059-1.762 1.051-2.432-1.814-4.565-4.215-7.171-5.76-.515-.306.344 1.227.672 1.753 1.993 3.198 4.321 6.194 6.55 9.203a163.006 163.006 0 0 0 4.064 5.266c.256.317.644.964.994 1.18 1.17.721-2.044-1.899-3.001-2.921"/><path stroke="#171717" stroke-width="2.5" d="M165.977 126.613c1.544 22.078-14.521 41.186-35.883 42.68-21.361 1.494-39.929-15.193-41.473-37.271-1.544-22.078 13.748-52.244 35.11-53.737 21.361-1.494 40.702 26.25 42.246 48.328Z"/><path stroke="#171717" stroke-linecap="round" stroke-width="2.5" d="m140.395 83.948-16.481 25.106a1.14 1.14 0 0 0 .604 1.712l12.025 3.861c.63.202.956.896.71 1.51l-7.088 17.682"/><path stroke="#171717" stroke-linecap="round" stroke-width="1.5" d="M87.162 126.923c-.133-1.895-.148-3.57.863-5.274.434-.731.689-1.893.948-2.721.302-.965.741-1.894 1.13-2.828a77.138 77.138 0 0 0 2.387-6.518c.62-1.984 1.138-4.077 2.145-5.933 1.975-3.642 3.621-7.511 6.307-10.722 1.228-1.467 2.575-2.757 3.835-4.207.977-1.124 1.93-2.247 3.038-3.246 1.332-1.202 2.908-2.121 4.234-3.33 1.688-1.54 3.515-2.627 5.696-3.337 1.91-.622 4.378-.401 6.388-.541 1.935-.136 3.782-.317 5.703.075 2.135.435 3.51 1.367 5.299 2.568 2.917 1.958 5.862 3.94 8.543 6.186 1.337 1.12 2.844 2.128 4.206 3.203.642.507 1.179 1.122 1.897 1.531.504.288 1.658.815.375.543M150.869 90.94c.082 1.165 1.721 2.634 2.339 3.628.718 1.154 1.619 2.245 2.183 3.492.991 2.193 2.572 4.126 3.711 6.229 1.115 2.057 2.196 4.118 3.003 6.342.442 1.217.927 2.356 1.211 3.612.222.979.37 2.105.729 3.035a23.44 23.44 0 0 1 1.447 6.535c.15 2.15.683 4.354.835 6.525.069.989.361 2.226.214 3.208-.101.674-.645 1.468-.599 2.128"/><path stroke="#171717" stroke-linecap="round" stroke-width="1.5" d="M166.163 133.424c.284 4.063-1.056 7.509-2.631 11.181-1.826 4.256-3.17 8.669-6.915 11.67-1.475 1.181-2.786 2.571-4.291 3.713-.599.454-1.421 1.181-1.911 1.745-.553.636-1.296.981-1.882 1.553-.594.582-1.726.917-2.468 1.311-.749.397-1.563.631-2.344.964-1.554.663-3.092 1.193-4.667 1.801"/><path stroke="#171717" stroke-linecap="round" stroke-width="1.5" d="m139.903 167.303-2.599.182c-.849.059-2.248.149-3.041.497-1.554.68-3.495.466-5.087 1.061-1.127.422-2.697.526-3.897.61-.975.068-1.896.179-2.854.01-1.026-.182-1.958-.562-2.901-.977-.846-.372-1.822-.766-2.634-1.206-1.662-.902-3.671-1.46-5.507-1.933-.877-.225-2.121-.75-2.925-1.164-1.117-.576-2.234-1.019-3.283-1.762-1.792-1.268-3.677-3.18-4.821-5.066-.867-1.431-2.219-2.442-3.201-3.758-.203-.272-1.618-1.593-1.534-1.599"/><path stroke="#171717" stroke-linecap="round" stroke-width="1.5" d="M96.659 153.507c-.634-.688-1.054-1.918-1.561-2.735-.784-1.262-1.818-2.466-2.67-3.7-.82-1.184-1.743-2.463-2.36-3.764-.637-1.342-.985-3.063-1.358-4.508-.625-2.419-.832-4.702-.98-7.231-.133-2.284.144-4.627.095-6.927-.064-3.028.46-6.203 1.25-9.093M138.748 85.157c-.416 1.358-1.233 2.924-1.982 4.138-1.206 1.951-2.361 3.986-3.871 5.723-1.17 1.346-2.173 2.702-3.255 4.135-1.168 1.547-1.82 3.519-3.245 4.862-.798.752-1.161 1.481-1.701 2.391-.293.493-1.025 1.792-1.017 2.343.013.95.487.812 1.274 1.183a33.028 33.028 0 0 0 5.747 2.052c1.331.342 2.759.435 4.001 1.043.704.344 1.141 1.106 1.671 1.65.61.626 1.624 1.023 2.062 1.764.48.814-1.251 2.409-1.672 2.954a80.85 80.85 0 0 0-5.131 7.478c-.65 1.068-1.49 1.991-1.919 3.173-.364 1.001-.215 2.125-.141 3.191"/></g><defs><filter id="a" width="109.565" height="123.161" x="72.514" y="66.226" color-interpolation-filters="sRGB" filterUnits="userSpaceOnUse"><feFlood flood-opacity="0" result="BackgroundImageFix"/><feColorMatrix in="SourceAlpha" result="hardAlpha" values="0 0 0 0 0 0 0 0 0 0 0 0 0 0 0 0 0 0 127 0"/><feOffset dy="2"/><feGaussianBlur stdDeviation="1"/><feComposite in2="hardAlpha" operator="out"/><feColorMatrix values="0 0 0 0 0 0 0 0 0 0 0 0 0 0 0 0 0 0 0.02 0"/><feBlend in2="BackgroundImageFix" result="effect1_dropShadow_998_3290"/><feColorMatrix in="SourceAlpha" result="hardAlpha" values="0 0 0 0 0 0 0 0 0 0 0 0 0 0 0 0 0 0 127 0"/><feOffset dy="4"/><feGaussianBlur stdDeviation="4"/><feComposite in2="hardAlpha" operator="out"/><feColorMatrix values="0 0 0 0 0 0 0 0 0 0 0 0 0 0 0 0 0 0 0.06 0"/><feBlend in2="effect1_dropShadow_998_3290" result="effect2_dropShadow_998_3290"/><feBlend in="SourceGraphic" in2="effect2_dropShadow_998_3290" result="shape"/></filter></defs></svg>