<svg width="403" height="253" viewBox="0 0 403 253" fill="none" xmlns="http://www.w3.org/2000/svg">
<path d="M251.978 106.294C256.426 106.294 260.653 105.016 265.053 104.527C269.813 103.998 274.677 103.582 279.383 102.662C286.377 101.293 293.406 99.8897 300.448 98.716C315.098 96.2745 329.462 92.969 343.801 89.0583C357.192 85.4061 371.093 82.5275 383.587 76.2803C386.672 74.7377 389.452 72.6315 392.238 70.6343C393.341 69.8431 395.714 67.7084 395.804 66.1769C395.887 64.7673 396.216 65.2013 395.358 65.5826C394.164 66.1132 392.924 67.2859 391.759 67.9763C385.976 71.4034 379.916 74.2975 373.748 76.9407C366.97 79.8455 360.189 82.068 353.029 83.858C342.407 86.5135 332.032 89.5707 321.151 91.1384C318.52 91.5175 315.842 91.5869 313.193 91.7988C310.303 92.03 307.465 92.6902 304.576 92.9214C298.678 93.3932 292.993 95.5278 287.34 97.0981C284.408 97.9126 281.56 98.7774 278.591 99.4589C276.07 100.037 273.522 100.356 271.063 101.176C266.965 102.542 262.856 104.299 258.879 105.996C256.377 107.064 253.488 107.76 250.79 108.06C250.007 108.147 248.149 107.773 249.766 107.185C253.839 105.704 258.098 104.397 262.313 103.388C264.291 102.915 266.336 102.527 268.289 101.985C269.565 101.63 267.153 101.836 266.836 101.836C263.181 101.836 259.535 101.705 256.023 102.876C254.912 103.247 253.972 103.322 252.804 103.322C252.365 103.322 254.531 102.989 254.983 102.876C257.811 102.169 266.582 101.836 263.667 101.836C260.4 101.836 257.176 103.025 253.943 103.025C253.31 103.025 256.006 102.609 256.32 102.546C259.748 101.861 263.22 101.16 266.605 100.284C274.355 98.2786 281.99 95.858 289.784 94.044C291.806 93.5734 293.782 93.1898 295.826 92.8553C296.159 92.8009 298.025 92.6242 296.8 92.6242C292.082 92.6242 288 93.1446 283.494 94.7043C281.671 95.3354 279.809 95.933 278.013 96.6359C277.623 96.7884 276.508 97.3398 277.6 97.3788C282.025 97.5368 286.502 97.4272 290.906 97.0156C295.105 96.6232 299.113 94.8215 303.222 93.9614C307.301 93.1078 311.355 92.366 315.439 91.5841C322.329 90.2646 329.112 88.948 335.844 86.9121C344.361 84.3362 352.862 81.9748 361.498 79.8463C363.461 79.3624 365.535 78.7113 367.574 78.6576C368.5 78.6333 368.369 78.7518 367.557 78.9548C364.347 79.7572 360.995 79.4514 357.734 79.9949C351.586 81.0196 345.345 81.4716 339.211 82.5868C333.348 83.6529 327.695 85.4192 321.877 86.681C317.9 87.5434 313.974 88.4204 310.057 89.504C309.05 89.7823 299.557 91.6781 299.557 92.7728C299.557 93.2682 314.962 91.7605 316.462 91.7327C316.726 91.7278 318.846 91.7235 317.585 91.9638C316.249 92.2182 314.702 92.327 313.342 92.327C309.648 92.327 305.767 94.2621 302.215 95.1501C297.035 96.445 291.725 98.2532 286.812 100.35C285.689 100.83 284.322 101.539 283.065 101.539C282.41 101.539 284.374 101.549 285.029 101.539C294.596 101.387 303.792 97.0832 313.028 95.1501C323.508 92.9566 334.1 91.1503 344.461 88.4639C350.492 86.9005 356.162 85.4223 361.928 82.9665C366.886 80.8544 371.891 78.8895 376.769 76.594C377.392 76.301 378.562 75.719 379.278 75.719C380.037 75.719 377.776 75.9832 377.017 75.9832C374.872 75.9832 368.469 76.4918 370.611 76.5775C373.753 76.7032 376.707 76.4594 379.757 75.686C381.537 75.2349 382.89 74.1465 384.512 73.6059" stroke="#C6C6C8" stroke-width="2" stroke-linecap="round"/>
<path d="M250.353 167.19C250.353 163.127 249.866 158.715 250.656 154.719C251.493 150.478 252.19 146.209 252.925 141.946C254.472 132.972 256.898 123.366 255.731 114.18C255.434 111.841 254.864 109.547 254.219 107.289C253.968 106.409 253.538 105.11 253.076 104.331C252.737 103.758 252.14 103.607 251.883 103.221C251.522 102.681 251.811 104.525 251.883 105.171C252.063 106.799 252.356 108.437 252.538 110.079C252.809 112.519 253.31 114.989 253.378 117.44C253.409 118.548 253.681 120.637 253.681 118.298C253.681 116.194 253.336 114.036 252.925 111.978C252.56 110.155 252.667 107.975 251.563 106.398C251.441 106.223 249.494 103.434 249.445 104.263C249.357 105.776 250.001 106.85 250.656 108.196C252.217 111.405 253.334 115.385 253.681 118.936C254.065 122.872 254.885 126.796 255.177 130.735C255.396 133.7 255.194 136.755 255.194 139.727C255.194 147.938 254.741 155.682 252.471 163.627C251.956 165.43 251.297 167.116 250.656 168.871C250.341 169.732 250.051 170.594 250.051 169.241C250.051 163.813 250.074 158.497 251.261 153.156C252.378 148.127 253.076 142.834 253.076 137.677C253.076 129.259 253.624 120.654 253.009 112.264C252.923 111.099 252.539 107.635 252.471 108.801C252.394 110.102 252.471 111.431 252.471 112.734C252.471 119 254.347 125.187 254.572 131.475C254.667 134.147 254.589 136.835 254.589 139.509C254.589 142.191 254.073 144.528 253.748 147.156C252.867 154.29 249.379 160.27 246.134 166.569C243.176 172.312 240.599 178.48 236.907 183.796C236.156 184.878 235.133 186.039 234.638 187.275C234.317 188.078 235.394 185.718 235.832 184.973C237.518 182.1 239.83 179.648 241.58 176.804C243.396 173.852 244.722 170.771 245.815 167.493C246.911 164.206 247.974 160.912 248.908 157.577C249.274 156.267 250.353 154.523 250.353 153.156C250.353 150.076 250.544 159.376 249.882 162.383C248.35 169.351 244.098 175.071 239.899 180.67C237.34 184.082 234.723 188.034 231.63 190.906C231.031 191.462 229.476 195.926 229.176 195.326" stroke="#C6C6C8" stroke-width="2" stroke-linecap="round"/>
<path d="M241.996 179.862C242.123 178.597 243.321 177.355 243.885 176.253C245.239 173.606 246.685 171.01 248.039 168.363C250.539 163.478 253.725 158.807 255.572 153.612C258.545 145.25 261.16 136.749 263.902 128.328C266.367 120.758 267.301 112.625 267.301 104.701C267.301 103.444 267.301 104.896 267.301 105.309C267.301 107.627 267.085 109.815 266.735 112.108C265.37 121.056 262.546 129.686 260.314 138.442C260.154 139.071 258.328 145.194 258.237 143.142C257.881 135.146 258.069 127.55 260.125 119.725C260.934 116.648 261.969 113.574 262.014 110.366C262.014 110.34 262.017 107.868 261.93 107.89C261.241 108.062 261.641 112.22 261.636 112.716C261.59 117.324 260.807 121.936 260.125 126.481C259.197 132.667 256.487 151.116 256.348 144.862C256.186 137.539 255.593 130.255 255.593 122.914C255.593 118.703 255.329 114.559 255.215 110.366C255.207 110.062 254.812 107.932 254.838 109.107C254.908 112.264 255.554 115.467 255.971 118.592C256.436 122.079 257.533 132.483 257.838 128.978C258.191 124.917 258.271 120.809 258.803 116.766C259.049 114.899 258.992 113.022 258.992 111.143C258.992 110.686 258.992 109.02 258.992 110.429C258.992 115.527 258.237 120.628 258.237 125.768C258.237 126.55 258.321 127.287 258.216 125.978C257.84 121.279 257.104 116.652 257.104 111.919C257.104 110.249 256.583 107.606 257.293 106.044C257.623 105.318 257.859 105.468 257.859 106.233C257.859 109.994 257.814 114.513 259.181 118.067C259.843 119.788 260.898 113.906 261.091 113.22C261.618 111.335 262.116 108.376 263.525 106.967C264.506 105.986 264.28 107.931 264.28 108.478C264.28 110.618 264.28 112.758 264.28 114.899C264.28 115.405 263.907 117.814 264.364 118.214C264.559 118.385 264.658 114.961 264.658 114.689C264.658 114.517 264.564 109.023 264.742 109.023C265.021 109.023 264.332 111.765 264.28 111.961C263.661 114.292 263.496 116.664 263.231 119.053C263.071 120.495 263.841 124.069 262.853 125.18C262.687 125.367 262.353 122.82 262.308 122.453C262.073 120.579 262.014 118.756 262.014 116.871C262.014 115.294 261.871 113.979 262.769 112.632" stroke="#C6C6C8" stroke-width="2" stroke-linecap="round"/>
<path d="M267.041 114.216C272.418 114.216 277.694 114.342 283.008 113.33C294.032 111.23 305.384 108.101 316.092 104.736C330.491 100.21 344.432 94.0087 358.728 89.1272C364.343 87.2097 370.647 84.4889 375.605 81.2273C377.76 79.8093 380.215 78.5025 382.092 76.7267C383.116 75.7586 384.396 74.6266 385.731 74.1413C387.483 73.5041 385.857 74.2199 384.917 74.5243C381.284 75.7018 378.143 77.5375 374.791 79.3121C371.9 80.8424 369.162 82.661 366.149 83.9564C361.912 85.778 357.552 87.2347 353.389 89.223C343.804 93.8013 332.56 97.1476 322.197 99.469C314.584 101.174 307.299 103.926 299.789 106.028C296.62 106.916 293.317 108.185 290.118 108.853C286.715 109.564 283.066 109.543 279.609 109.907C277.992 110.077 276.434 110.428 274.797 110.337C273.753 110.279 277.984 109.134 278.316 109.045C282.529 107.91 287.186 107.931 291.53 107.776C291.909 107.762 296.763 108.002 296.677 108.087C294.762 110.003 288.022 109.021 285.713 109.069C280.071 109.185 274.591 110.228 269.052 111.199C268.859 111.233 264.635 111.805 265.58 111.175C268.316 109.351 271.577 108.66 274.701 107.752C277.221 107.02 280.1 106.459 282.745 106.459C283.816 106.459 278.026 107.662 277.287 107.752C275.229 108.004 270.084 109.624 268.094 108.518C267.581 108.233 268.857 107.575 269.387 107.321C271.692 106.216 274.366 105.753 276.88 105.43C279.627 105.077 287.726 104.158 285.187 105.262C279.958 107.536 273.176 107.419 267.615 108.59C265.364 109.064 260.055 109.736 265.628 109.236C274.435 108.446 283.277 108.167 292.081 107.321C293.847 107.151 295.693 107.103 297.443 106.794C298.573 106.595 295.167 106.459 294.02 106.459C289.03 106.459 284.025 106.89 279.058 106.89C274.447 106.89 288.063 104.898 292.56 103.874C299.394 102.318 306.617 99.7185 313.626 99.1578C325.59 98.2007 265.74 102.102 277.741 102.102C279.48 102.102 281.459 101.501 283.152 101.241C290.027 100.183 296.925 99.3615 303.859 98.7987C309.547 98.3371 326.658 97.8411 320.952 97.8411C313.228 97.8411 305.378 99.7425 297.683 100.427C295.67 100.605 293.368 100.59 291.411 101.193C289.122 101.897 296.164 100.59 298.521 100.163C306.536 98.7116 314.584 96.9209 322.675 95.9499C323.963 95.7954 325.256 95.6866 326.553 95.6866C327.847 95.6866 324.025 96.2325 322.771 96.5484C319.311 97.42 308.718 98.703 312.286 98.703C318.365 98.703 324.857 95.9724 330.719 94.5854C334.387 93.7174 338.778 92.2393 342.593 92.2393C343.813 92.2393 340.189 92.6717 339.002 92.9575C332.544 94.5128 326.18 96.4344 319.779 98.2002C314.679 99.6069 299.321 103.373 304.242 101.432C310.661 98.9007 317.176 96.6367 323.968 95.3275C324.55 95.2153 331.983 94.3627 328.445 95.7105C325.617 96.7877 322.448 97.1518 319.491 97.6736C311.909 99.0116 304.303 100.135 296.677 101.193C290.687 102.023 284.373 102.861 278.531 104.496C277.706 104.727 276.101 104.665 277.67 103.778C280.598 102.123 284.424 102.581 287.652 102.581C290.116 102.581 290.998 103.971 288.203 104.831C283.723 106.21 279.008 106.783 274.462 107.92C272.604 108.384 272.501 108.452 270.919 107.321" stroke="#C6C6C8" stroke-width="2" stroke-linecap="round"/>
<path d="M171.695 242.824C173.275 242.824 174.007 242.521 175.343 241.631C177.064 240.483 179.225 240.093 181.074 239.194C184.335 237.607 187.042 235.202 190.385 233.748C196.274 231.188 202.839 228.051 207.411 223.479C213.593 217.297 220.086 211.494 225.714 204.688C232.37 196.639 238.465 188.72 243.564 179.578C245.671 175.8 247.931 172.097 249.749 168.165C250.445 166.66 251.564 165.27 251.564 163.56" stroke="#C6C6C8" stroke-width="2" stroke-linecap="round"/>
<path d="M375.473 37.7191C384.887 34.8237 394.824 40.321 397.374 49.835C399.923 59.3489 394.066 69.0782 384.465 71.2779L221.776 108.553L215.942 86.7829L375.473 37.7191Z" fill="white" stroke="#171717" stroke-width="2"/>
<ellipse cx="9.01525" cy="9.01523" rx="9.01525" ry="9.01523" transform="matrix(0.258818 0.965926 -0.965926 0.25882 384.156 44.0444)" stroke="#171717" stroke-width="2"/>
<ellipse cx="125.166" cy="127.079" rx="123.959" ry="123.96" fill="white" stroke="#171717" stroke-width="2"/>
<ellipse cx="125.167" cy="127.079" rx="101.421" ry="101.422" stroke="#171717" stroke-width="2"/>
<path d="M240.391 80.1444C245.162 80.1444 249.5 79.6439 254.126 78.5925C255.458 78.2897 256.592 77.3815 257.857 76.8756C258.978 76.4271 259.987 76.1236 261.043 75.5549C262.311 74.8724 263.839 74.5699 265.187 74.1846C271.494 72.3825 277.774 69.4313 283.941 67.0693C296.057 62.429 308.601 58.7969 320.855 54.5885C326.322 52.7111 332.119 51.6616 337.694 50.1311C343.016 48.6702 348.254 47.0123 353.609 45.6737C360.719 43.8961 367.991 41.4507 375.301 40.6385C380.978 40.0077 387.693 39.3958 392.652 42.7021C397.188 45.7257 396.4 52.1 396.4 56.8668C396.4 60.6863 395.638 64.6518 392.603 67.1353C391.845 67.7553 389.979 67.5777 389.037 67.7296C387.622 67.9579 385.998 68.5139 384.645 69.0008C382.69 69.7048 380.879 70.8337 378.818 71.246C375.122 71.9852 371.411 73.6479 367.806 74.7294C363.48 76.0273 358.921 76.9442 354.781 78.8071C352.059 80.0319 348.515 80.8462 345.585 81.399C342.268 82.025 339.015 83.0829 335.647 83.6443C331.805 84.2845 327.897 84.9957 324.041 85.4933C320.424 85.96 317.005 87.0713 313.426 87.6394C309.883 88.2019 306.291 89.7723 302.811 90.6936C299.436 91.5868 296.344 92.7672 292.839 93.2195C288.418 93.79 284.078 94.8412 279.616 95.2335C274.71 95.6649 269.931 96.5407 265.055 97.0825C261.027 97.5301 256.699 98.9238 252.805 100.054C251.148 100.535 248.928 101.837 247.225 101.837" stroke="#171717" stroke-width="2" stroke-linecap="round"/>
<path d="M26.2896 105.525C26.2896 103.122 26.2074 100.753 26.5593 98.3778C26.7717 96.9442 27.6528 95.5239 28.4473 94.3321C29.32 93.023 29.8408 91.5544 30.665 90.2114C31.9319 88.1468 33.0804 85.9919 34.3811 83.9479C35.5739 82.0735 37.276 80.2643 38.1571 78.2239C38.9656 76.3516 40.4167 74.4516 41.6784 72.8745C44.6241 69.1925 47.194 65.181 50.2944 61.6213C53.0109 58.5023 55.7724 55.6194 58.8055 52.7955C62.0186 49.8039 65.6703 47.4547 69.1746 44.8388C74.2006 41.087 79.3759 37.6888 84.7582 34.5296C87.8441 32.7183 91.5874 31.9687 95.0674 31.2031C99.3615 30.2584 103.574 29.2498 107.954 28.7157C115.712 27.7696 123.458 27.5769 131.269 27.5769" stroke="#171717" stroke-width="2" stroke-linecap="round"/>
<path d="M128.523 27.2121C132.082 27.2121 135.648 27.1463 139.206 27.2121C142.17 27.267 145.112 28.0416 148.012 28.5435C149.434 28.7896 150.835 29.3248 152.215 29.7465C154.359 30.4017 156.395 31.3019 158.518 31.9761C162.267 33.166 165.515 35.74 169.121 37.2854C171.074 38.1225 172.868 39.3538 174.647 40.5014C176.342 41.595 178.058 42.6555 179.804 43.6694C182.851 45.4389 185.734 47.4592 188.433 49.7005C189.656 50.7158 191.085 51.5024 192.203 52.6198C193.628 54.0448 195.051 55.5046 196.437 56.9827C199.025 59.7414 202.842 61.176 204.883 64.4414C205.198 64.9469 205.518 65.442 205.604 66.0454C205.624 66.1812 205.757 66.7594 205.757 66.3342" stroke="#171717" stroke-width="2" stroke-linecap="round"/>
<path d="M205.035 65.7574C205.109 66.4235 206.146 67.4162 206.511 67.987C207.321 69.2556 208.314 70.4089 209.077 71.7084C210.252 73.7079 211.383 75.7273 212.718 77.6272C215.85 82.0808 217.948 87.5673 219.503 92.7531C220.37 95.6427 220.667 98.6358 221.348 101.559C221.874 103.819 222.043 106.135 222.647 108.376C223.196 110.41 223.675 112.478 224.235 114.52C224.409 115.155 224.483 115.832 224.781 116.428C224.942 116.752 225.011 116.924 224.813 116.428" stroke="#171717" stroke-width="2" stroke-linecap="round"/>
<path d="M225.101 114.263C225.101 116.021 225.018 117.804 225.317 119.54C225.653 121.486 225.581 123.53 226.047 125.459C226.553 127.555 226.669 129.77 226.945 131.907C227.215 133.996 227.122 136.121 227.122 138.227C227.122 140.679 226.431 143.06 225.895 145.445C225.309 148.048 224.698 150.704 223.873 153.24C222.949 156.086 221.839 158.852 220.738 161.629C219.876 163.801 218.887 165.865 218.235 168.118C218.014 168.883 217.84 169.681 217.594 170.42" stroke="#171717" stroke-width="2" stroke-linecap="round"/>
<path d="M141.801 226.715C144.562 226.715 147.414 227.062 150.014 226.117C151.701 225.503 153.487 224.717 155.268 224.321C156.888 223.961 158.969 222.782 160.522 222.077C161.785 221.502 163.498 221.544 164.695 220.879C166.629 219.805 168.834 219.061 170.83 218.036C173.173 216.833 175.445 215.586 177.647 214.146C178.912 213.319 180.292 211.916 181.67 211.386C183.503 210.681 185.884 209.193 187.29 207.861C188.592 206.627 190.228 205.792 191.63 204.702C193.327 203.382 194.587 201.761 196.102 200.246C197.823 198.525 199.882 196.453 201.206 194.394C202.464 192.437 204.367 190.899 205.679 188.99C208.003 185.61 210.225 182.098 213.028 179.131C215.279 176.747 216.918 174.142 216.918 170.751" stroke="#171717" stroke-width="2" stroke-linecap="round"/>
<path d="M63.3906 209.057C64.9212 209.21 66.8609 211.529 68.046 212.499C69.2607 213.493 70.71 214.261 72.0695 214.976C73.7207 215.845 75.6684 216.122 77.3068 217.005C79.0103 217.922 80.7913 218.925 82.6105 219.598C84.1751 220.178 85.6651 221.079 87.1994 221.776C88.7246 222.47 90.5591 222.731 92.1207 223.356C94.0734 224.137 96.6353 224.705 98.6881 225.218C100.648 225.708 102.606 226.418 104.541 227.014C108.503 228.233 112.511 228.809 116.644 228.809C120.579 228.809 124.614 229.109 128.482 229.109C132.22 229.109 136.006 228.809 139.688 228.809C142.833 228.809 145.786 226.714 148.982 226.714" stroke="#171717" stroke-width="2" stroke-linecap="round"/>
<path d="M64.2868 209.358C62.1181 207.189 60.0602 205.047 57.9356 202.84C56.3674 201.212 55.0939 199.302 53.6627 197.553C53.1043 196.871 52.4248 196.745 51.9502 195.891C51.5117 195.101 50.4293 194.561 49.8553 193.796C46.5406 189.376 42.9078 185.409 41.0101 180.096C40.3192 178.161 39.1053 176.289 38.5494 174.343C38.1534 172.957 37.5639 171.137 36.9866 169.854C34.2783 163.835 32.1553 157.606 30.1698 151.299C29.1309 147.999 28.2502 144.73 27.7756 141.29C27.3988 138.558 26.3578 135.793 26.2793 133.043C26.1703 129.23 25.98 125.344 25.98 121.604C25.98 118.646 25.6807 115.688 25.6807 112.709C25.6807 111.382 25.4013 109.66 25.98 108.503" stroke="#171717" stroke-width="2" stroke-linecap="round"/>
<path d="M1.66406 115.794C1.66406 111.005 2.62306 105.988 4.79213 101.65C6.69467 97.8448 8.66658 93.512 9.61267 89.3492C10.0383 87.4763 11.0168 85.6877 11.7283 83.9091C12.5988 81.7328 13.2246 79.3158 14.4483 77.3054C15.6469 75.3363 16.3452 72.9828 17.3799 70.9132C18.6738 68.3255 19.7173 65.6128 21.2485 63.1459C23.2487 59.9233 24.8705 56.237 27.3686 53.3688C29.6141 50.7906 31.6391 48.0767 34.0327 45.6166C35.3179 44.2958 36.2817 42.6274 37.5688 41.2645C38.4188 40.3645 39.213 39.3503 40.0319 38.4085C40.5552 37.8067 41.6058 36.4178 42.3289 36.0964C43.2834 35.6722 43.8798 34.4109 44.4898 33.6483C45.3801 32.5355 46.2326 31.2406 47.2401 30.2332C49.1295 28.3437 51.0738 26.5975 53.5567 25.4882" stroke="#171717" stroke-width="2" stroke-linecap="round"/>
<path d="M50.3516 27.6629C52.4154 27.6629 54.302 26.5908 55.9579 25.4868C58.4623 23.8172 61.1231 22.3043 63.6798 20.7418C67.4171 18.4579 71.2302 16.2567 75.2552 14.4857C79.9004 12.4418 84.4487 9.08972 89.5052 8.07841C94.5593 7.06759 99.4548 5.48038 104.617 4.81434C108.373 4.32961 112.067 3.58612 115.844 3.24274C118.411 3.0094 120.953 2.77166 123.521 2.57784C125.892 2.3989 128.294 2.53607 130.654 2.30583C137.942 1.5948 145.972 1.64851 152.837 4.48189C156.391 5.94867 160.029 7.16677 163.566 8.68287C167.264 10.2678 170.902 12.1648 174.447 14.0626" stroke="#171717" stroke-width="2" stroke-linecap="round"/>
<path d="M165.953 9.16528C167.496 9.33668 168.59 10.929 170.033 11.3413C171.718 11.8226 173.366 13.2576 174.929 14.0614C179.913 16.6244 185.411 18.3508 190.222 21.194C201.247 27.7087 211.54 35.8027 219.871 45.6141C222.174 48.3274 224.553 50.9739 226.595 53.9103C228.746 57.0018 230.087 60.4038 232.05 63.5666C235.132 68.5316 236.805 74.5963 238.639 80.0985C239.073 81.4007 239.565 82.8632 239.924 84.1181C240.19 85.052 240.922 86.2889 241.027 87.2311C241.183 88.6379 242.33 90.0353 242.644 91.4472C242.811 92.2028 243.131 93.0712 243.475 93.7593" stroke="#171717" stroke-width="2" stroke-linecap="round"/>
<path d="M241.844 89.1364C241.844 94.2693 244.584 99.1887 246.619 103.84C249.119 109.553 249.538 116.176 250.336 122.261C251.423 130.544 251.118 139.566 249.596 147.784C249.235 149.731 249.133 152.048 248.311 153.874C247.481 155.719 246.574 157.499 245.667 159.314C244.044 162.56 242.994 165.594 242.116 169.106" stroke="#171717" stroke-width="2" stroke-linecap="round"/>
<path d="M110.445 250.624C116.134 250.624 121.823 250.624 127.512 250.624C132.191 250.624 136.252 249.794 140.831 248.946C147.423 247.726 154.348 247.377 160.777 245.591C164.259 244.624 167.524 243.347 170.822 241.863C174.242 240.324 177.814 239.246 180.992 237.202C186.696 233.536 193.06 230.381 198.059 225.645C199.874 223.926 202.182 222.497 204.19 221.005C208.306 217.947 212.486 214.368 215.727 210.38C217.622 208.047 219.516 205.729 221.175 203.192C223.041 200.338 225.593 197.902 227.347 195.031C231.688 187.928 236.09 181.366 239.443 173.822C240.424 171.615 241.016 169.063 241.68 166.738C242.288 164.611 244.29 162.535 244.29 160.4" stroke="#171717" stroke-width="2" stroke-linecap="round"/>
<path d="M5.31029 100.749C5.31029 105.315 3.4013 109.191 2.72122 113.611C2.10858 117.594 1.58203 121.242 1.58203 125.355C1.58203 132.262 4.19967 138.661 4.95818 145.488C5.51632 150.511 6.68317 155.518 8.00292 160.401C8.8694 163.607 10.2836 166.66 11.3584 169.805C12.9369 174.423 14.2589 179.012 16.1222 183.537C19.1002 190.769 23.8058 196.028 29.0883 201.702C31.0511 203.81 32.111 206.7 34.0386 208.869C34.8685 209.802 35.5288 210.76 36.2549 211.768C36.567 212.202 38.0893 212.597 37.0005 212.597" stroke="#171717" stroke-width="2" stroke-linecap="round"/>
<path d="M33.6445 210.36C36.2416 212.698 38.6798 215.726 41.6396 217.61C46.0778 220.434 50.172 223.784 54.5228 226.765C59.4857 230.165 64.4338 233.363 69.6222 236.437C73.6577 238.829 77.9509 240.399 82.1119 242.423C85.468 244.056 89.1902 245.01 92.551 246.69C96.034 248.432 100.729 248.248 104.481 249.134C110.005 250.438 115.657 251.142 121.259 251.765C122.918 251.949 133.697 252.014 133.562 251.744" stroke="#171717" stroke-width="2" stroke-linecap="round"/>
<path d="M374.558 45.9269C374.139 45.9269 373.707 45.8952 373.291 45.9369C372.39 46.0269 371.566 46.5653 370.831 47.0495C370.22 47.4515 369.642 47.969 369.124 48.4865C368.792 48.8185 368.378 49.1295 368.271 49.6091C367.741 51.9952 368.002 54.5537 368.002 56.9936C368.002 58.1436 368.224 59.1675 368.585 60.2518C368.932 61.2914 369.881 61.9234 370.826 62.4123C372.358 63.2049 373.78 64.0771 375.496 64.473C377.22 64.8708 378.711 64.644 380.216 63.7545C381.985 62.7093 383.274 61.424 384.277 59.6481C384.885 58.5724 385.201 57.2727 385.47 56.0756C385.768 54.7517 385.928 53.0674 385.425 51.7746C384.975 50.6181 384.227 49.5053 383.359 48.6212C382.467 47.7119 381.273 46.6009 380.036 46.1963C379.38 45.9814 378.734 45.7288 378.06 45.5676C377.366 45.4015 376.614 45.4778 375.905 45.4778C375.367 45.4778 374.727 45.3803 374.199 45.4978C373.911 45.5617 373.595 45.6574 373.3 45.6574" stroke="#171717" stroke-width="2" stroke-linecap="round"/>
<path d="M126.684 173.415C150.372 171.759 167.967 150.622 166.278 126.465C165.441 114.505 159.85 101.286 151.705 91.2242C143.618 81.2354 132.306 73.5491 119.762 74.4262C107.218 75.3034 97.0862 84.4892 90.4682 95.5063C83.802 106.603 80.1052 120.472 80.9416 132.433C82.6308 156.589 102.996 175.071 126.684 173.415Z" fill="white" stroke="white" stroke-width="8"/>
<path d="M87.0265 141.711C87.0568 141.154 88.2422 142.403 88.3419 142.484C91.7906 145.296 94.9732 148.64 97.7105 152.143C98.4442 153.081 99.1064 154.072 99.8402 155.011C100.04 155.266 100.65 155.801 100.675 156.164C100.704 156.582 100.018 155.642 99.7272 155.34C98.4413 154.006 97.1513 152.673 95.9312 151.278C93.8272 148.871 91.7215 146.334 90.0523 143.601C89.7685 143.137 88.6769 142.299 89.2124 142.201C89.5743 142.135 91.0134 143.716 91.2489 143.913C93.1951 145.544 95.1333 147.186 97.0475 148.85C97.3686 149.129 98.3443 149.915 97.9514 149.751C97.0882 149.393 96.0822 147.994 95.4844 147.364C93.0105 144.757 90.6828 141.991 88.6679 139.012C88.543 138.827 88.1423 138.294 88.2952 138.456C89.1942 139.411 90.2267 140.212 91.2567 141.019C93.8087 143.019 96.3111 145.084 98.8765 147.065C99.1987 147.314 100.087 148.148 99.821 147.84C98.9101 146.787 97.831 145.858 96.89 144.83C94.4777 142.194 92.0755 139.33 90.0657 136.366C88.765 134.448 93.6264 139.335 95.3754 140.855C96.6042 141.923 97.8386 142.985 99.062 144.06C99.5429 144.482 100.663 145.98 100.465 145.371C100.244 144.695 98.7962 143.568 98.3893 143.105C96.4089 140.851 94.5036 138.514 92.6245 136.175C92.3176 135.793 90.4758 133.275 90.7301 133.488C93.0735 135.454 95.6492 137.173 98.1134 138.982C98.9458 139.593 99.7733 140.21 100.604 140.823C100.827 140.988 101.352 141.326 100.884 140.754C98.7892 138.201 96.3524 135.968 94.3303 133.335C93.886 132.757 93.8499 132.704 94.5151 133.149C96.0903 134.203 97.6968 135.207 99.26 136.28C100.921 137.42 102.584 138.987 104.386 139.903C105.743 140.594 102.589 137.443 101.644 136.249C98.4701 132.238 94.6617 128.048 92.3042 123.461C92.1012 123.066 92.3383 123.251 92.5223 123.396C94.0399 124.59 95.7289 125.581 97.3373 126.645C100.241 128.567 103.084 130.655 106.099 132.401C106.223 132.473 106.574 132.672 106.505 132.546C106.293 132.16 105.898 131.907 105.585 131.596C102.479 128.504 99.5608 125.227 96.7204 121.89C95.1826 120.084 93.695 118.236 92.1354 116.449C91.3979 115.603 91.1352 115.343 92.2527 116.181C95.4686 118.593 98.8753 120.741 102.055 123.199C102.146 123.269 103.265 124.315 103.462 124.214C103.61 124.138 103.27 123.94 103.162 123.814C102.782 123.376 102.403 122.961 102.009 122.535C101.012 121.457 100.054 120.353 99.0833 119.252C98.6986 118.816 97.3142 117.92 97.8934 117.975C98.4959 118.033 99.8266 119.461 100.194 119.756C102.482 121.589 104.71 123.468 106.886 125.434C107.781 126.243 108.689 127.03 109.668 127.737C109.774 127.813 110.049 128.058 110.004 127.936C109.797 127.38 108.738 126.376 108.461 126.041C105.275 122.173 101.865 118.23 99.2793 113.921C99.2788 113.92 98.335 112.638 99.0342 113.246C100.367 114.404 101.787 115.431 103.216 116.465C106.011 118.487 108.848 120.546 111.337 122.946C113.805 125.327 107.57 117.21 105.536 114.448C104.064 112.448 102.58 110.455 101.252 108.354C100.921 107.83 99.8137 106.427 100.359 106.723C103.073 108.195 105.557 110.778 107.95 112.721C108.493 113.161 109.115 113.895 109.761 114.202C111.207 114.891 107.792 111.672 106.765 110.442C104.58 107.824 102.466 105.153 100.417 102.428C99.951 101.808 98.9388 100.454 98.4374 99.7591C98.052 99.2252 96.7463 98.0616 97.4046 98.0753C98.2415 98.0928 100.579 100.681 101.13 101.129C103.477 103.037 105.836 104.932 108.16 106.87C109.535 108.017 110.886 109.193 112.238 110.369C112.774 110.834 113.671 111.733 112.613 110.429C109.567 106.675 106.405 103.005 103.772 98.9409C102.546 97.0485 105.87 100.098 106.245 100.363C109.004 102.305 111.681 104.422 114.533 106.226C115.444 106.803 114.9 105.959 114.603 105.467C112.803 102.485 110.814 99.602 108.883 96.7038C108.113 95.548 107.282 94.4205 106.61 93.2024C106.397 92.8157 105.633 91.5437 106.629 92.4097C109.836 95.1976 112.94 98.111 116.242 100.789C116.667 101.134 117.646 102.346 117.526 101.813C117.351 101.043 116.13 99.9065 115.696 99.3436C113.18 96.0795 110.124 92.9244 108.024 89.3691C107.872 89.1113 108.541 89.6744 108.776 89.8606C110.136 90.9406 111.579 91.9116 112.984 92.9298C114.385 93.9442 115.766 94.9857 117.146 96.0271C117.2 96.0682 118.854 97.3904 118.642 96.9118C117.326 93.9419 114.766 91.3614 113.017 88.6242C112.7 88.1281 111.578 86.8127 112.072 87.1322C113.227 87.8786 114.269 88.9545 115.374 89.7826C116.897 90.9251 118.421 92.0703 119.976 93.1706C120.689 93.6757 122.128 95.1201 123.073 95.1922C123.825 95.2496 122.591 93.7511 122.209 93.1009C121.116 91.2414 119.842 89.4797 118.806 87.5887C118.541 87.1038 117.609 85.8664 118.12 86.0786C118.433 86.2088 118.967 86.8831 119.217 87.0901C120.976 88.5473 122.93 89.8585 124.84 91.1115C125.089 91.2752 125.542 91.4526 125.346 90.9277C124.537 88.7613 123.111 86.695 122.015 84.6686C121.103 82.9822 120.204 81.29 119.346 79.5749C119.15 79.1827 118.508 78.0538 118.805 78.3762C121.522 81.3251 130.583 89.2614 127.556 86.6306C126.359 85.5899 125.35 84.2821 124.004 83.4042C123.395 83.0068 124.138 84.1725 124.193 84.3431C124.487 85.2458 122.736 83.7641 122.458 83.5741C122.268 83.4445 119.014 81.6201 119 81.8745C118.989 82.0833 119.776 82.6463 119.911 82.8742C120.096 83.187 118.144 81.4075 117.862 81.1626C117.405 80.765 115.645 79.3848 116.412 80.9302C117.128 82.3742 117.787 83.8293 118.208 85.3924C118.7 87.2198 113.593 83.1142 114.092 85.6059C114.363 86.9556 114.877 88.2579 115.164 89.6118C115.281 90.1677 114.835 89.7201 114.665 89.5477C113.588 88.4555 112.686 87.1933 111.651 86.0611C111.503 85.8995 109.305 83.4243 109.276 84.1125C109.163 86.8987 109.72 89.7697 109.805 92.5586C109.814 92.8479 110.148 97.3245 109.519 97.3024C109.143 97.2892 108.769 96.0035 108.698 95.8264C107.834 93.6553 107.022 91.4614 106.2 89.2741C106.099 89.0069 104.19 84.4263 104.288 86.1678C104.502 89.9643 105.038 93.7728 105.761 97.5033C106.154 99.5315 106.338 102.292 107.206 104.191C107.938 105.794 105.392 101.17 104.442 99.6854C104.166 99.2535 103.557 97.9451 102.974 97.7848C102.538 97.6652 102.412 101.155 102.401 101.263C102.073 104.429 101.125 107.575 100.912 110.74C100.821 112.085 101.011 109.856 101.044 109.63C101.304 107.852 101.361 106.08 101.5 104.293C101.636 102.527 101.158 100.769 101.85 99.0505C102.526 97.3745 102.039 95.38 101.916 93.6173C101.832 92.421 101.318 93.0777 100.581 93.6241C99.4192 94.4842 98.22 95.5518 97.4768 96.8089C95.6419 99.9125 94.0255 103.387 92.7686 106.759C91.3501 110.564 90.8461 114.379 90.0672 118.349C89.2465 122.532 89.5306 126.591 89.8253 130.806C89.9134 132.066 90.0014 133.325 90.0895 134.584C90.1693 135.725 90.1266 135.114 90.0714 134.326C89.3652 124.226 90.4904 114.175 95.8503 105.381C97.2736 103.046 98.859 100.848 100.448 98.6292C101.597 97.0257 100.014 99.0102 99.6015 99.4303C97.9044 101.16 96.4645 102.677 95.2149 104.782C93.5866 107.525 92.0672 110.454 90.8339 113.399C89.6868 116.138 88.878 119.026 88.1389 121.897C87.4724 124.486 86.7896 127.218 86.8815 129.912C86.9416 131.672 87.1154 133.434 87.2383 135.192C87.2459 135.299 87.4438 137.138 87.7183 136.926C88.3063 136.472 88.7677 134.679 88.9951 134.141C90.8156 129.832 92.6478 125.527 94.4723 121.219C98.7111 111.211 103.483 101.398 107.568 91.3301C108.016 90.2261 109.393 87.7042 107.982 90.1881C104.283 96.7042 101.847 104.064 99.6578 111.199C98.8261 113.909 97.2815 122.134 97.0837 119.305C96.7711 114.834 98.1302 109.942 98.9174 105.562C99.0399 104.881 99.5835 102.879 99.344 103.529C98.7227 105.215 98.41 107.059 97.9185 108.785C96.587 113.462 94.883 118.057 93.7659 122.79C93.7349 122.921 93.5745 123.942 93.5193 123.153C93.4011 121.463 93.4078 119.757 93.4355 118.064C93.4726 115.797 93.6561 113.536 93.7023 111.269C93.7224 110.282 94.0709 107.452 93.5819 108.31C93.375 108.672 93.4844 109.543 93.4969 109.923C93.5561 111.729 93.7372 113.537 93.8632 115.338C94.0852 118.512 93.7381 122.754 95.1327 125.711C95.3067 126.08 95.2967 124.908 95.3076 124.5C95.3773 121.886 95.412 119.27 95.5136 116.658C95.5988 114.465 95.9756 107.921 96.1685 110.107C96.4754 113.586 96.8007 117.057 98.0111 120.366C98.1113 120.64 100.141 125.443 100.658 124.088C101.415 122.105 100.693 119.301 100.405 117.28C100.338 116.81 99.9633 115.825 100.146 115.344C100.299 114.941 102.881 117.225 102.887 117.23C106.604 120.39 110.318 123.554 114.048 126.701C114.735 127.281 115.474 127.978 116.303 128.361C116.883 128.629 115.685 126.261 115.672 126.229C114.519 123.462 113.179 120.26 113.013 117.215C112.937 115.818 116.391 118.407 116.683 118.59C117.894 119.35 121.395 121.692 120.472 120.601C117.392 116.963 114.387 113.346 111.559 109.501C110.968 108.697 109.246 106.623 111.329 107.984C114.956 110.354 118.689 112.683 122.153 115.289C122.412 115.484 123.198 116.041 122.98 115.8C121.813 114.509 120.579 113.294 119.448 111.967C117.934 110.191 116.424 108.388 115.035 106.513C114.523 105.821 113.616 104.831 113.361 103.971C113.249 103.596 114.068 104.31 114.401 104.517C116.133 105.595 117.845 106.706 119.564 107.803C121.175 108.831 122.759 109.885 124.314 110.996C124.911 111.423 126.556 112.811 126.165 112.189C125.283 110.785 123.975 109.557 122.925 108.286C121 105.957 119.016 103.601 117.339 101.084C117.159 100.814 116.204 99.5737 116.372 99.1109C116.435 98.9374 119.508 101.159 119.534 101.177C123.047 103.623 126.497 106.388 130.145 108.622C131.273 109.312 130.424 108.338 130.067 107.86C127.182 103.999 124.189 100.219 121.382 96.2997C119.785 94.0696 118.189 91.8134 116.75 89.4761C116.709 89.4096 115.609 87.8363 115.788 87.5772C115.933 87.368 122.375 92.4179 122.856 92.8084C123.708 93.4986 124.537 94.2392 125.448 94.853C126.085 95.2823 124.436 93.697 123.918 93.1299C121.78 90.7895 119.762 88.3529 117.866 85.812C116.922 84.5467 114.968 82.5588 114.606 80.9328C114.362 79.8324 116.589 82.0187 117.499 82.6843C121.14 85.3491 124.68 88.1406 128.102 91.0813C129.588 92.3573 131.121 93.6136 132.53 94.9761C134.01 96.4077 132.343 95.3425 131.662 94.7647C128.608 92.1744 124.849 89.3068 122.622 85.9245C121.192 83.7514 126.756 89.0901 128.725 90.7904C129.648 91.5874 130.586 92.3535 131.557 93.0903C131.587 93.1129 132.363 93.7783 132.401 93.662C132.523 93.2811 132.638 93.3362 133.056 93.307C134.117 93.2328 132.502 91.7898 132.29 91.5551C130.207 89.2434 127.951 86.8645 126.559 84.0417C125.92 82.745 128.87 85.7833 130.087 86.565C131.337 87.3685 135.168 89.6467 133.863 88.9348C130.945 87.3423 123.007 81.3006 125.923 82.899C126.872 83.4193 127.805 83.9331 128.708 84.5344C129.759 85.2346 131 85.6994 132.015 86.3806C132.736 86.8645 131.528 86.336 131.307 86.1581C131.219 86.0874 129.277 84.3215 129.902 84.2778C131.325 84.1783 132.824 84.8844 134.142 85.3169C135.125 85.6393 135.229 85.705 134.157 84.9943C132.828 84.1139 131.413 83.2243 129.913 82.6695C129.253 82.4252 128.791 82.4512 129.462 82.4042C130.322 82.3441 127.786 81.9959 126.956 81.7633C126.201 81.5516 127.792 82.0324 127.983 82.1243C130.954 83.5569 133.626 85.6058 136.299 87.5155C139.234 89.6123 142.106 92.0421 144.252 94.9725C144.341 95.0934 145.21 96.7351 144.944 96.5564C144.407 96.1956 143.155 94.6893 143.644 95.114C144.406 95.776 144.983 96.6754 145.542 97.5039C146.717 99.2439 142.725 96.0736 142.565 95.9561C141.183 94.9413 139.811 93.9135 138.443 92.8809C138.047 92.5824 136.952 91.5949 137.255 91.987C138.057 93.0258 138.866 94.0676 139.425 95.2606C139.59 95.6122 139.639 95.8221 139.189 95.4255C137.963 94.3433 136.89 93.0919 135.684 91.9855C134.633 91.0212 133.506 90.1485 132.424 89.221C131.728 88.6242 131.685 88.5643 132.168 89.4491C133.253 91.438 134.494 93.2756 135.329 95.3986C135.486 95.7973 135.372 95.8475 135.021 95.5933C133.919 94.7954 132.96 93.8119 131.86 93.0073C129.924 91.5914 131.282 93.2784 131.867 94.1692C132.112 94.542 133.143 96.8341 132.861 96.5357C130.856 94.4112 129.076 91.951 126.866 90.03C125.379 88.7366 128.896 93.4142 129.798 95.1671C130.381 96.3004 130.902 97.4529 131.424 98.6148C131.433 98.6347 131.881 99.7179 131.846 99.6982C131.098 99.2832 130.442 98.1034 129.91 97.4841C128.856 96.2556 127.767 95.0389 126.583 93.9328C126.388 93.7506 125.862 93.2104 126.272 93.905C127.229 95.5259 128.273 97.0833 129.158 98.7485C129.951 100.24 130.704 101.763 131.429 103.289C131.491 103.419 132.536 105.526 131.608 104.785C129.843 103.377 128.447 101.35 127.042 99.6137C125.411 97.5979 123.758 95.5961 122.166 93.5491C122.117 93.4863 121.072 92.1302 121.149 92.26C122.003 93.7074 122.938 95.1126 123.811 96.5503C125.568 99.448 127.817 102.585 128.935 105.813C129.087 106.253 128.042 105.474 127.702 105.157C125.553 103.155 123.596 100.947 121.617 98.7812C121.05 98.1609 119.445 96.2435 119.858 96.9751C120.514 98.1353 121.362 99.2119 122.084 100.331C122.981 101.722 123.794 103.149 124.572 104.609C124.589 104.641 125.602 106.595 125.376 106.556C124.008 106.323 122.059 104.198 121.1 103.417C117.949 100.85 114.868 98.1945 111.748 95.5884C111.675 95.5275 109.155 93.1658 108.818 93.4685C108.632 93.6351 111.359 97.9266 111.454 98.1069C114.535 103.935 117.18 110.041 119.473 116.219C119.827 117.173 120.208 118.126 120.442 119.119C120.694 120.186 119.627 118.58 119.517 118.442C118.714 117.427 117.88 116.438 117.08 115.422C116.914 115.211 116.505 114.436 116.188 114.334C115.973 114.265 116.432 114.712 116.573 114.888C117.215 115.694 117.78 116.535 118.272 117.44C118.519 117.893 118.861 118.393 118.992 118.899C119.147 119.493 117.945 118.247 117.484 117.842C113.006 113.905 109.31 109.302 105.038 105.196C104.913 105.076 104.117 104.353 104.56 105.081C105.481 106.596 106.281 108.148 107.002 109.77C107.222 110.265 110.417 117.139 109.972 117.402C109.637 117.6 103.673 111.391 102.978 110.756C102.563 110.378 101.368 109.285 101.588 109.802C102.35 111.595 103.199 113.317 103.867 115.158C104.844 117.85 105.467 120.651 106.442 123.338C106.823 124.386 104.867 122.311 104.622 122.068C103.471 120.924 108.095 127.25 106.663 126.488C105.854 126.058 105.419 124.101 104.932 123.32C104.804 123.113 100.502 123.816 100.121 123.829C98.9893 123.867 97.2146 124.117 96.2066 123.386C95.1757 122.637 94.3923 121.338 93.5727 120.379C93.0435 119.76 91.4278 117.615 91.7685 119.689C92.3742 123.378 94.1789 126.711 95.8531 130.001C97.4269 133.095 98.7366 136.376 100.134 139.582C100.986 141.536 101.464 143.827 102.658 145.614C102.887 145.956 102.304 144.659 102.131 144.439C101.443 143.565 101.426 143.917 101.488 144.805C101.604 146.457 102.078 147.893 102.483 149.484C102.618 150.011 103.149 150.682 103.405 151.175C104.004 152.327 104.707 154.388 105.778 155.214C105.995 155.382 105.909 154.66 105.844 154.393C105.531 153.115 105.129 151.855 104.786 150.584C104.688 150.222 103.669 146.596 104.369 147.102C105.66 148.032 106.942 149.294 108.424 149.909C108.834 150.08 108.837 149.744 108.736 149.418C108.144 147.51 107.079 145.665 106.221 143.868C105.42 142.191 103.032 137.153 103.804 138.843C104.565 140.508 106.589 142.608 108.04 143.704C109.724 144.976 107.914 141.397 107.682 140.885C107.359 140.173 106.516 139.234 107.248 140.519C107.331 140.666 108.522 142.532 108.589 142.008C108.865 139.851 107.03 137.063 106.275 135.097C106.205 134.915 105.928 134.446 105.909 134.64C105.886 134.883 106.128 135.581 106.022 135.362C105.174 133.608 104.093 131.912 102.844 130.415C102.108 129.532 103.194 132.399 103.236 132.49C104 134.141 107.471 138.398 106.309 136.999C103.99 134.206 96.6121 126.196 99.1331 128.807C100.973 130.714 103.335 132.354 105.553 133.787C108.422 135.641 106.4 131.505 105.813 130.257C105.342 129.254 104.737 128.29 104.366 127.242C104.187 126.739 104.074 126.547 104.447 126.989C106.41 129.315 109.416 131.145 112.104 132.513C112.254 132.589 113.344 133.28 113.124 132.59C112.691 131.231 111.78 129.934 111.048 128.729C110.329 127.544 109.597 126.364 108.848 125.197C108.776 125.086 108.283 124.275 108.307 124.37C108.567 125.389 109.516 126.763 110.453 127.286C110.705 127.427 110.452 126.695 110.343 126.428C109.822 125.144 109.186 123.892 108.763 122.569C108.261 121.002 108.832 122.334 109.318 122.902C109.604 123.236 111.193 124.768 111.313 123.665C111.403 122.834 110.845 121.738 111.747 122.62C112.142 123.008 112.673 123.656 113.156 123.857" stroke="#FFD424" stroke-width="2" stroke-linecap="round"/>
<path d="M145.571 94.6691C145.691 95.3666 146.308 95.9785 146.732 96.5103C147.677 97.6941 148.45 98.9595 149.214 100.266C151.08 103.457 152.05 106.646 153.017 110.178C153.302 111.22 155.046 115.405 152.971 112.754C148.293 106.778 143.922 100.318 138.777 94.7343C137.729 93.5968 141.366 96.4289 142.62 97.3351C146.068 99.8278 149.504 102.519 152.601 105.444C152.83 105.66 155.05 108.218 154.622 108.059C150.538 106.543 146.646 103.151 143.161 100.633C141.055 99.111 134.654 94.6893 136.925 95.9522C140.19 97.7669 142.977 101.263 145.511 103.918C147.774 106.287 150.306 108.914 151.807 111.874C152.253 112.754 151.362 112.158 151.017 111.901C148.606 110.108 146.428 107.916 144.235 105.873C141.412 103.244 138.337 100.423 136.083 97.255C134.733 95.3568 139.173 100.743 140.665 102.532C142.219 104.397 144.563 106.608 145.356 108.975C145.602 109.708 144.628 108.952 144.529 108.878C142.016 106.971 139.841 104.549 137.625 102.321C135.083 99.765 127.672 91.906 129.967 94.6859C132.553 97.8187 135.189 100.859 137.53 104.193C139.714 107.304 141.864 110.516 143.799 113.791C144.342 114.711 143.619 114.344 143.018 113.945C140.426 112.225 138.22 109.843 136.126 107.571C134.493 105.799 132.974 103.946 131.499 102.042C131.363 101.867 129.454 98.9522 129.058 99.075C128.964 99.1043 129.063 99.2751 129.093 99.3694C129.218 99.7718 129.772 101.026 129.877 101.279C130.587 103 131.107 104.768 131.672 106.54C131.836 107.052 134.312 113.375 133.505 113.748C132.329 114.291 127.98 104.764 127.494 103.793C126.804 102.413 125.452 98.0493 125.56 99.5882C125.786 102.824 126.566 106.03 127.305 109.177C128.322 113.509 129.182 117.916 130.42 122.19C131.402 125.579 130.561 120.635 130.39 119.733C130.019 117.781 129.807 115.141 128.814 113.369C128.639 113.057 128.777 116.481 128.8 116.805C129.017 119.91 129.457 122.986 129.703 126.085C129.918 128.791 128.596 124.05 128.492 123.725C126.847 118.579 125.616 113.188 124.725 107.859C124.575 106.961 124.535 106.001 124.293 105.119C124.112 104.457 124.169 106.49 124.182 107.176C124.269 111.644 124.68 116.106 124.991 120.563C125.024 121.027 125.532 126.249 124.943 123.506C124.041 119.311 122.735 106.496 123.035 110.776C123.324 114.917 123.614 119.057 123.903 123.197C124.036 125.096 124.178 126.995 124.302 128.894C124.369 129.926 124.598 131.238 124.283 132.26C124.224 132.451 123.904 132.053 123.831 131.868C122.998 129.736 122.48 127.49 122.04 125.25C121.168 120.818 120.409 116.311 120.053 111.805C119.883 109.651 120.106 112.558 120.137 113C120.438 117.307 120.825 121.616 121.027 125.929C121.052 126.469 121.237 130.789 120.885 128.144C120.318 123.88 119.674 119.621 119.297 115.335C119.201 114.249 119.13 113.16 119.054 112.072C119.034 111.778 118.993 111.054 119.041 111.876C119.356 117.378 119.247 122.94 119.04 128.442C118.883 132.609 118.758 137.029 117.576 141.069C117.5 141.33 117.379 141.758 117.278 141.245C116.893 139.29 116.707 137.256 116.493 135.278C115.548 126.535 113.898 100.196 114.512 108.969C115.206 118.891 115.945 128.81 116.593 138.735C116.604 138.898 116.647 143.451 116.155 141.564C114.654 135.811 114.423 129.537 114.011 123.635C113.892 121.943 113.751 120.249 113.712 118.553C113.702 118.135 113.506 116.71 113.808 116.284C113.927 116.116 114.007 116.657 114.032 116.862C114.25 118.672 114.302 120.517 114.429 122.333C114.802 127.674 115.201 133.013 115.549 138.355C115.603 139.182 115.834 143.43 115.116 140.252C113.872 134.741 112.585 117.802 112.979 123.438C113.299 128.01 113.527 132.575 113.274 137.157C113.079 140.692 112.943 144.774 111.711 148.151C111.564 148.554 111.36 148.704 111.136 148.22C110.046 145.868 109.999 142.684 109.725 140.176C109.111 134.554 108.74 128.895 108.386 123.251C108.319 122.181 108.405 120.812 108.728 122.675C109.456 126.881 109.502 131.313 109.742 135.567C109.924 138.782 110.128 142.147 109.677 145.353C109.412 147.244 109.247 142.844 109.227 142.557C109.053 140.063 108.878 137.568 108.704 135.074C108.662 134.466 109.303 138.45 109.362 138.83C110.195 144.188 112.268 160.32 111.354 154.975C110.875 152.178 110.288 149.407 109.571 146.661C109.145 145.031 108.672 143.412 108.268 141.776C108.159 141.336 108.143 140.116 107.866 140.476C107.233 141.296 108.358 145.207 108.458 146.117C108.746 148.726 109.353 151.31 109.514 153.931C109.697 156.925 107.891 152.79 107.471 152.01C106.632 150.45 105.656 148.755 105.214 147.022C104.86 145.635 106.231 149.71 106.931 150.959C108.212 153.243 109.629 155.645 111.248 157.711C112.495 159.301 110.541 157.519 110.034 157.131C107.749 155.384 105.381 153.854 102.981 152.281C101.955 151.609 103.064 153.001 103.272 153.208C104.701 154.631 106.296 155.982 107.917 157.18C108.031 157.264 109.694 158.46 109.058 157.921C106.304 155.586 103.351 153.423 100.528 151.167C99.8653 150.637 99.1792 150.157 98.4868 149.67C98.2775 149.522 97.9861 148.952 97.8878 149.188C97.7019 149.636 102.212 153.053 102.546 153.344C104.689 155.206 106.934 156.968 109.039 158.869C110.615 160.292 108.228 158.869 107.685 158.511C104.944 156.703 102.389 154.61 99.6778 152.753C98.1404 151.7 99.1176 152.294 99.9726 153.128C101.424 154.544 103.06 155.693 104.584 157.018C105.17 157.527 105.374 158.027 104.47 157.407C101.974 155.697 99.436 153.443 96.6827 152.17C95.5303 151.638 94.8656 150.519 93.9498 149.676C93.4872 149.25 93.0084 149.161 92.5606 148.812C92.2777 148.591 91.963 148.424 91.6825 148.18C91.6052 148.113 91.1529 147.514 91.0654 147.644C90.5739 148.376 95.4988 153.573 96.0399 154.095C101.324 159.201 107.682 164.118 114.499 167.011C116.433 167.832 118.163 168.083 120.275 167.936C123.297 167.724 126.296 167.663 129.191 166.676C129.483 166.577 130.723 166.343 130.919 166.117C130.965 166.064 128.964 165.807 128.832 165.783C125.418 165.148 122.017 164.603 118.652 163.724C116.635 163.197 114.601 162.701 112.602 162.111C112.096 161.962 110.713 161.736 110.312 161.31C110.096 161.081 110.936 161.21 111.251 161.188C112.509 161.1 113.742 161.075 114.998 161.209C116.921 161.412 118.876 161.741 120.729 162.306C121.681 162.597 121.448 162.737 120.439 162.807C118.125 162.969 115.814 162.539 113.52 162.302C112.164 162.161 112.143 162.143 113.46 162.051C115.093 161.937 116.705 161.91 118.32 162.22C118.896 162.331 119.959 162.538 118.601 162.399C115.124 162.041 111.428 160.828 108.098 159.769C107.845 159.688 105.717 159.031 106.108 159.003C108.879 158.809 111.658 158.786 114.435 158.817C117.422 158.849 120.459 159.272 123.443 159.063C125.271 158.935 119.955 157.235 119.878 157.206C115.556 155.603 111.184 154.127 106.799 152.707C105.372 152.245 104.776 152.08 106.655 152.265C112.056 152.795 127.688 157.485 122.582 155.646C119.119 154.399 115.689 153.014 112.279 151.631C111.336 151.249 107.278 149.92 110.5 149.847C114.701 149.753 118.993 149.914 123.164 150.432C123.439 150.466 127.779 151.169 126.132 150.62C123.084 149.604 119.985 148.738 116.938 147.715C115.739 147.312 113.963 146.767 116.266 146.589C119.633 146.328 122.971 146.129 126.344 146.379C127.066 146.432 128.863 146.816 129.537 146.353C129.97 146.056 126.974 144.41 126.955 144.399C124.275 142.863 121.527 141.432 118.876 139.847C117.336 138.927 119.074 139.382 119.983 139.501C124.091 140.038 128.095 141.09 132.03 142.377C133.23 142.769 134.41 143.223 135.596 143.654C136.052 143.819 136.364 143.949 135.586 143.909C129.93 143.614 124.274 141.89 118.822 140.487C116.746 139.953 114.674 139.402 112.613 138.815C111.888 138.609 110.477 138.434 109.837 137.935C109.561 137.719 110.53 138.041 110.869 138.131C112.798 138.649 114.683 139.311 116.519 140.097C117.252 140.411 124.022 142.952 123.692 144.232C123.349 145.565 113.5 143.328 112.463 143.151C110.913 142.886 109.37 142.605 107.835 142.259C107.33 142.145 105.798 141.977 106.315 141.941C111.983 141.545 117.669 141.999 123.274 142.904C125.727 143.3 122.696 142.059 121.885 141.644C117.986 139.646 113.926 137.8 109.807 136.297C109.734 136.271 108.381 135.941 108.271 135.754C108.156 135.56 108.721 135.704 108.946 135.707C109.46 135.714 110.918 135.769 111.327 135.795C115.426 136.056 119.775 136.897 123.703 138.124C126.094 138.871 124.175 138.246 122.985 137.765C120.043 136.575 117.019 135.521 114.104 134.272C110.264 132.626 122.506 134.379 126.607 135.179C127.634 135.379 129.753 136.265 127.519 135.285C124.698 134.048 121.865 132.809 119.108 131.434C116.294 130.032 119.694 130.72 120.91 130.927C125.994 131.793 130.85 133.348 135.678 135.124C136.291 135.349 136.974 135.546 137.541 135.885C138.129 136.236 136.281 135.339 135.671 135.026C131.773 133.023 127.751 131.28 123.824 129.338C123.029 128.945 121.19 128.188 123.193 128.407C126.955 128.816 130.59 129.918 134.144 131.175C135.215 131.554 136.28 131.951 137.349 132.336C139.011 132.934 136.572 131.592 136.502 131.547C133.495 129.587 130.502 127.606 127.585 125.513C126.142 124.477 127.06 124.722 128.326 124.994C130.638 125.491 132.744 126.505 135.004 127.1C136.177 127.409 132.759 125.119 132.535 124.94C131.266 123.932 128.493 122.466 127.733 120.965C127.607 120.714 128.297 121.015 128.563 121.105C130.015 121.596 131.424 122.225 132.838 122.813C135.557 123.942 138.211 125.146 140.876 126.378C143.987 127.817 135.306 122.227 133.242 119.491C132.462 118.457 134.558 119.424 134.756 119.512C136.926 120.477 139.069 121.726 141.3 122.532C141.854 122.732 141.655 122.291 141.46 121.984C140.098 119.842 138.133 117.993 136.376 116.19C133.867 113.617 131.26 111.134 128.839 108.476C127.663 107.185 131.556 110.672 132.927 111.753C135.28 113.607 137.363 115.684 139.444 117.828C141.204 119.64 137.752 116.759 137.563 116.588C134.586 113.907 131.451 111.376 128.829 108.336C127.384 106.659 128.516 107.315 129.857 108.08C133.814 110.336 137.687 112.767 141.332 115.505C141.843 115.888 144.266 117.916 142.773 116.096C140.654 113.515 138.692 110.804 136.904 107.983C136.843 107.887 135.407 105.638 136.188 106.436C138.211 108.501 140.64 110.166 142.776 112.11C143.826 113.064 146.883 116.023 145.812 115.092C143.45 113.039 141.324 110.633 139.232 108.315C138.348 107.336 137.471 106.353 136.568 105.391C136.339 105.149 135.619 104.497 135.763 104.798C137.59 108.629 139.354 112.443 140.734 116.465C140.868 116.855 142.767 121.396 141.552 121.285C140.331 121.173 138.914 120.292 137.858 119.804C134.407 118.21 130.942 116.676 127.418 115.248C125.189 114.344 122.68 113.012 120.3 112.508C118.561 112.14 123.548 113.983 125.05 114.933C127.151 116.262 129.025 117.893 131.066 119.304C131.09 119.32 131.663 119.838 131.302 119.443C129.788 117.784 128.235 116.165 126.69 114.535C123.586 111.26 120.3 108.003 117.584 104.387C117.03 103.649 117.544 104.21 117.87 104.437C119.036 105.249 120.217 106.012 121.323 106.91C121.521 107.071 125.069 110.105 124.864 110.253C124.045 110.842 122.889 109.821 121.928 109.511C117.611 108.119 113.324 106.63 109.03 105.168C104.487 103.623 99.9458 102.36 95.3304 101.094C94.8593 100.965 96.3161 101.138 96.7849 101.275C98.7027 101.838 100.562 102.63 102.392 103.428C106.355 105.154 110.35 106.951 114.148 109.023C116.909 110.529 112.392 108.091 111.948 107.876C107.222 105.597 102.415 103.528 97.6146 101.415C96.9985 101.144 95.1919 100.71 95.8246 100.48C96.3813 100.278 97.8664 100.952 98.3133 101.098C101.439 102.115 104.382 103.579 107.482 104.655C108.266 104.927 109.202 105.354 110.057 105.295C111.078 105.223 111.099 103.829 111.046 103.077C110.997 102.371 111.218 101.383 111.519 100.74C111.756 100.234 111.565 100.706 111.401 100.875C110.705 101.591 109.636 101.045 109.083 100.472C107.03 98.3445 106.918 94.1049 107.114 91.3083C107.18 90.3668 107.409 89.2135 106.999 88.8567C106 87.9887 109.528 86.5029 108.465 86.5773C105.194 86.806 101.645 90.0167 100.034 92.7504C99.3281 93.9479 98.6542 95.1105 97.9939 96.328C97.6581 96.9472 98.025 96.1331 98.1371 95.9505C98.6017 95.1935 99.0669 94.5921 99.7254 94.0018C105.573 88.7593 114.075 78.2292 122.546 85.5927" stroke="#FFD424" stroke-width="2" stroke-linecap="round"/>
<path d="M155.746 145.609C156.565 145.343 155.373 139.787 155.3 139.223C154.811 135.454 154.464 131.67 154.252 127.875C154.203 127.006 154.441 127.769 154.579 128.106C155.159 129.524 155.869 130.854 156.645 132.174C158.043 134.554 159.436 137.039 160.989 139.32C162.072 140.91 158.979 136.03 158.164 134.287C157.783 133.475 156.947 130.023 157.122 132.537C157.215 133.868 157.309 135.2 157.402 136.532C157.421 136.814 157.506 138.025 157.438 137.052C157.24 134.222 157.513 131.342 157.349 128.506C157.154 125.127 156.152 115.019 156.388 118.396C156.593 121.327 156.977 124.213 157.253 127.128C157.403 128.718 157.374 131.431 158.288 132.837C158.564 133.261 158.623 133.086 159.061 133.179C159.494 133.27 159.624 134.69 159.713 135.013C160.497 137.877 160.225 132.686 160.077 131.934C159.451 128.749 158.939 125.769 158.711 122.502C158.514 119.685 157.763 116.882 156.804 114.239C156.447 113.255 156.336 114.228 156.383 114.693C156.598 116.802 157.38 119.111 158.09 121.104C158.157 121.293 158.91 123.153 158.622 123.258C157.551 123.647 155.255 118.263 155.011 117.701C153.777 114.863 152.956 111.851 151.718 109.025C150.841 107.022 152.589 113.334 153.391 115.368C154.317 117.714 155.339 120.019 156.269 122.362C156.3 122.438 156.415 122.656 156.384 122.58C155.722 120.978 154.64 119.506 153.869 117.95C152.949 116.093 152.095 114.198 151.241 112.31C150.983 111.738 150.392 109.963 150.498 110.581C150.691 111.709 151.397 112.86 151.914 113.846C153.182 116.264 154.602 118.597 155.892 121.003C156.837 122.767 157.698 124.574 158.612 126.354C158.753 126.628 159.505 127.626 159.49 127.989C159.464 128.62 158.604 127.077 158.258 126.549C156.429 123.753 154.752 120.853 152.97 118.027C151.849 116.25 150.75 114.438 149.464 112.773C148.677 111.754 148.49 111.88 148.956 112.993C150.643 117.019 153.263 120.616 154.878 124.693C155.026 125.069 156.466 128.874 155.018 127.51C151.38 124.083 149.383 118.728 147.35 114.278C147.114 113.761 146.316 112.299 146.403 112.86C146.644 114.424 147.61 116.103 148.254 117.509C150.389 122.16 153.414 126.618 155.151 131.431C155.312 131.878 155.421 132.196 155.048 131.579C153.934 129.735 152.802 127.908 151.775 126.012C149.424 121.672 148.023 116.891 145.704 112.57C144.727 110.75 146.701 116.601 147.532 118.492C149.135 122.144 151.399 125.798 152.537 129.634C153.122 131.605 150.413 126.11 149.477 124.279C148.702 122.763 147.931 121.245 147.179 119.718C147.176 119.712 146.53 118.399 146.502 118.734C146.296 121.223 147.649 124.011 148.265 126.357C148.612 127.674 148.891 129.007 149.194 130.335C149.245 130.559 149.31 131.235 149.214 131.026C148.002 128.401 147.285 125.583 146.408 122.84C146.289 122.469 145.993 121.649 146.011 122.627C146.042 124.277 146.229 125.934 146.344 127.58C146.46 129.24 147.356 134.039 146.579 132.567C145.794 131.079 145.465 129.163 145.07 127.556C144.222 124.107 143.73 120.606 143.068 117.122C143.029 116.919 142.048 111.662 141.952 113.893C141.744 118.686 142.506 123.639 142.84 128.418C142.897 129.234 143.491 135.387 142.988 131.348C142.36 126.298 141.445 121.278 140.716 116.241C140.239 112.941 140.712 119.673 140.737 119.971C141.482 129.021 143.126 137.962 144.082 146.99C144.205 148.148 144.545 149.636 144.35 150.817C144.222 151.586 143.574 149.451 143.326 148.711C140.835 141.287 139.635 133.519 139.09 125.726C138.85 122.293 139.042 125.039 139.158 126.697C139.483 131.357 139.849 136.016 140.135 140.679C140.233 142.274 139.946 143.159 139.289 141.106C138.066 137.288 137.313 133.358 136.606 129.42C135.877 125.365 138.201 137.911 136.777 141.776C136.526 142.458 136.259 141.459 136.205 141.279C135.492 138.925 135.083 136.475 134.738 134.045C134.609 133.14 133.638 119.808 132.824 119.817C132.386 119.822 133.353 130.439 133.414 131.085C133.668 133.772 133.975 136.453 134.176 139.145C134.261 140.281 134.824 143.542 134.245 142.561C133.271 140.912 132.962 138.421 132.627 136.61C131.778 132.012 131.371 127.344 131.004 122.687C130.785 119.918 130.602 117.146 130.408 114.375C130.346 113.488 130.243 112.015 130.368 113.798C130.876 121.069 131.962 128.247 132.845 135.478C133.29 139.121 133.652 142.769 133.922 146.429C133.993 147.397 134.642 150.012 134.083 150.955C133.713 151.579 133.174 149.794 132.922 149.114C131.823 146.147 130.97 143.082 130.194 140.017C129.432 137.008 128.758 133.975 128.159 130.929C127.935 129.791 127.534 126.352 127.51 127.511C127.417 131.984 128.091 136.68 128.519 141.124C128.762 143.656 129.145 146.168 129.444 148.693C129.471 148.919 129.618 151.398 129.523 151.246C128.759 150.018 128.515 148.109 128.206 146.758C127.318 142.874 126.645 138.943 126.027 135.008C125.556 132.006 124.394 122.973 124.606 126.004C125.012 131.815 125.954 137.477 127.191 143.168C127.689 145.455 128.219 147.737 128.675 150.033C128.676 150.037 128.997 152.229 128.926 152.206C128.473 152.061 127.993 149.811 127.923 149.59C127.065 146.876 126.256 144.145 125.54 141.389C125.044 139.474 124.634 137.535 124.064 135.64C123.559 133.961 123.742 135.485 123.798 136.281C124.092 140.48 124.777 144.621 125.169 148.808C125.196 149.105 125.769 153.492 125.085 151.853C123.675 148.476 123.07 144.563 122.346 140.99C122.242 140.474 122.173 139.164 121.737 138.743C121.661 138.67 121.697 138.951 121.702 139.056C121.749 139.957 121.828 140.858 121.891 141.757C122.168 145.722 122.673 149.504 123.579 153.372C123.732 154.021 124.047 154.797 124.094 155.47C124.157 156.374 123.605 153.725 123.373 152.849C123.003 151.452 122.603 150.059 122.122 148.696C121.929 148.149 121.486 146.491 121.499 147.071C121.578 150.602 123.185 154.238 124.253 157.551C124.623 158.699 125.736 162.131 125.246 161.03C124.232 158.752 122.78 156.439 121.307 154.435C120.837 153.795 119.418 152.015 119.747 153.951C120.304 157.225 121.505 160.339 122.534 163.481C122.888 164.562 123.852 167.413 122.803 164.508C120.973 159.439 119.127 154.385 117.344 149.298C116.172 145.957 116.521 149.469 116.847 150.888C117.385 153.23 118.441 155.716 119.458 157.9C121.226 161.7 116.288 149.914 113.387 146.889C112.306 145.762 113.532 149.671 113.594 149.857C114.077 151.309 114.808 152.623 115.467 153.995C115.991 155.087 115.758 154.659 116.235 155.68C116.418 156.072 117.181 157.064 116.811 156.842C115.844 156.261 110.669 150.603 113.359 155.387C114.727 157.819 116.419 160.145 118.329 162.178C118.429 162.284 120.078 163.814 120.07 163.823C119.523 164.382 114.054 163.757 118.283 164.146C120.144 164.317 122.036 164.641 123.756 165.403C123.948 165.488 125.791 166.505 124.787 166.603C123.75 166.704 122.704 166.749 121.665 166.821C121.559 166.829 123.984 166.437 124.56 166.378C127.385 166.091 130.236 165.967 133.069 165.769C134.48 165.671 136.638 165.791 137.528 164.44C138.827 162.465 139.651 160.186 140.963 158.178C143.045 154.992 145.042 151.423 147.66 148.634C148.916 147.298 148.361 148.828 147.651 149.511C143.958 153.07 138.42 154.965 133.98 157.366C130.955 159.001 127.625 160.528 124.782 162.476C124.678 162.547 124.314 162.938 124.683 162.68C125.788 161.908 126.954 161.267 128.128 160.602C131.288 158.811 134.449 157.341 137.831 156.036C139.726 155.305 139.87 155.371 137.668 155.525C133.976 155.783 130.254 155.908 126.597 156.497C126.452 156.52 125.264 156.756 126.203 156.524C127.923 156.1 129.547 155.237 131.184 154.579C133.222 153.759 135.493 153.009 137.434 151.979C137.867 151.749 136.458 151.818 135.968 151.841C133.411 151.958 130.853 152.208 128.311 152.504C126.049 152.767 123.801 153.114 121.55 153.457C120.778 153.574 118.509 154.05 119.223 153.733C124.138 151.546 129.311 149.769 134.366 147.924C136.642 147.093 143.385 144.468 141.275 145.66C140.274 146.226 139.043 146.584 137.974 146.965C133.98 148.391 129.9 149.557 125.826 150.727C123.184 151.486 115.32 153.891 117.843 152.797C122.626 150.723 127.473 148.769 132.414 147.1C133.94 146.584 138.09 144.485 139.833 145.252C140.187 145.408 139.349 145.879 139.014 146.073C137.432 146.988 135.668 147.581 133.979 148.262C133.307 148.534 130.669 149.752 130.718 149.734C134.637 148.288 138.934 147.813 143.059 147.316C143.263 147.292 147.612 146.888 146.189 147.606C141.926 149.76 137.27 150.967 133.109 153.398C132.909 153.515 129.043 155.591 130.695 155.475C133.345 155.29 135.966 154.626 138.638 154.439C139.048 154.41 141.329 154.068 139.813 154.668C137.254 155.681 134.532 156.179 132.063 157.443C131.341 157.813 130.376 158.304 131.806 158.224C133.904 158.107 135.999 157.931 138.094 157.785C139.958 157.654 136.864 158.861 136.607 158.949C133.163 160.13 129.678 161.863 126.726 164.008C125.142 165.159 128.204 163.981 128.581 163.85C129.666 163.473 133.077 162.97 131.932 163.05C130.818 163.128 129.758 163.199 128.685 163.517C127.237 163.947 131.698 163.238 133.184 162.962C134.293 162.757 136.712 161.863 137.823 162.186C138.176 162.289 135.481 162.794 135.112 162.842C134.942 162.864 133.142 163.22 134.088 163.154C135.268 163.071 136.41 162.737 137.601 162.654C138.964 162.558 139.493 162.488 138.308 163.466C137.277 164.317 139.987 161.363 141.013 160.507C142.213 159.506 143.429 158.521 144.621 157.526C146.141 156.258 148.284 155.562 149.594 154.054C150.737 152.74 151.985 151.501 152.738 149.891C153.289 148.713 154.07 147.538 154.922 146.558C155.303 146.12 155.409 146.415 155.167 146.823C154.502 147.943 154.165 149.202 153.533 150.344C152.521 152.175 151.58 153.55 150.045 155.041C148.566 156.477 147.33 158.254 145.723 159.541C144.882 160.215 144.3 161.16 143.389 161.74C142.792 162.12 142.31 162.587 141.691 162.933C141.419 163.085 142.257 162.506 142.411 162.303C144.166 159.99 146.132 158.017 148.334 156.051C150.157 154.423 151.629 152.577 153.314 150.854C154.586 149.554 155.881 148.244 156.577 146.569C156.898 145.797 157.118 144.994 157.43 144.219C157.513 144.015 158.103 142.72 157.953 142.798C157.639 142.959 157.572 143.359 157.25 143.455C156.155 143.779 155.314 138.966 155.192 138.496C154.124 134.355 153.181 130.152 152.84 125.881C152.729 124.485 152.875 124.265 153.07 125.724C153.843 131.539 152.702 137.847 151.544 143.528C151.46 143.942 151.065 147.253 150.659 147.449C150.183 147.679 149.216 139.52 149.182 139.057C148.966 136.147 148.266 132.788 148.994 129.91C149.394 128.331 149.577 129.168 149.447 130.317C149.151 132.939 148.922 135.576 148.598 138.193C148.385 139.923 148.079 145.122 147.958 143.383C147.725 140.053 147.752 136.728 148.023 133.399C148.191 131.336 149.7 125.294 149.222 127.308C147.717 133.647 145.703 140.152 143.117 146.125C142.515 147.516 142.78 143.114 142.804 142.867C143.233 138.563 144.321 134.216 145.716 130.126C146.358 128.243 145.332 131.031 145.156 131.423C143.143 135.918 140.748 140.209 138.544 144.607C138.247 145.199 137.684 147.094 136.958 147.404C136.182 147.735 137.136 145.712 137.406 144.913C138.774 140.864 140.578 136.704 142.737 133.005C143.071 132.432 143.818 131.096 143.893 132.557C144.01 134.841 143.207 137.32 143 139.603C142.908 140.62 142.829 141.634 142.704 142.648C142.669 142.938 142.562 143.714 142.779 143.519C144.17 142.273 144.666 139.799 145.763 138.278C145.827 138.19 147.035 136.361 147.176 136.653C147.403 137.122 147.099 138.005 146.99 138.447C146.471 140.563 145.954 142.663 145.512 144.798C145.007 147.24 144.96 150.068 144.166 152.427C143.244 155.163 146.178 147.013 147.261 144.337C148.181 142.063 149.279 139.569 150.805 137.615C151.325 136.95 151.148 137.374 150.996 138.11C150.405 140.959 149.023 143.681 148.202 146.476C147.765 147.966 147.377 149.468 146.99 150.971C146.948 151.135 146.417 153.124 146.625 151.817C147.195 148.234 148.319 144.678 149.389 141.22C150.156 138.744 151.324 136.316 151.967 133.816C152.557 131.526 151.548 134.96 151.497 135.573C151.435 136.319 151.779 132.966 151.806 132.725C151.985 131.139 152.18 129.557 152.464 127.986C152.47 127.954 152.881 125.822 152.78 125.829C152.608 125.841 152.231 127.129 152.197 127.199C151.132 129.385 149.68 131.415 148.455 133.51C143.432 142.104 138.437 150.644 133.005 158.989C132.517 159.738 130.241 163.882 130.525 160.915C131.27 153.116 133.725 145.466 135.759 137.932C136.419 135.487 137.064 133.044 137.59 130.566C137.738 129.871 138.207 128.721 138.117 127.985C138.043 127.383 137.371 128.944 137.032 129.446C135.057 132.367 133.151 135.336 131.025 138.15C129.128 140.661 127.09 143.076 124.913 145.348C123.853 146.454 122.717 147.713 121.276 148.331C120.557 148.639 120.171 148.608 120.05 147.78C119.569 144.487 119.887 140.944 120.362 137.68C121.589 129.249 123.962 120.982 125.535 112.609C125.868 110.839 126.277 109.046 126.49 107.256C126.556 106.694 126.74 105.702 126.237 106.68C120.94 116.979 114.526 126.632 109.727 137.208C109.607 137.473 109.205 138.874 109.209 138.686C109.226 137.829 109.544 136.912 109.763 136.103C111.011 131.499 112.383 126.926 113.663 122.331C115.285 116.506 117.365 110.58 118.36 104.601C118.512 103.684 118.446 104.015 118.19 104.599C117.025 107.259 115.615 109.838 114.269 112.407C113.442 113.986 100.161 139.609 99.9945 139.528C98.6031 138.857 100.619 131.526 100.818 130.692C102.016 125.688 103.52 120.758 104.75 115.759C105.124 114.239 104.712 114.759 103.986 115.756C101.23 119.546 99.2486 124.093 96.9382 128.165C95.4176 130.845 93.6786 133.615 92.5595 136.5C91.7409 138.61 92.4698 136.641 92.7046 135.543C93.407 132.257 94.1485 128.924 94.4957 125.579C94.5516 125.04 95.0648 120.093 94.4638 122.698C93.8234 125.474 92.4514 128.283 92.6548 131.193" stroke="#FFD424" stroke-width="2" stroke-linecap="round"/>
<path d="M118.149 167.036C118.769 166.867 119.403 166.116 119.89 165.753C121.797 164.335 123.768 163.01 125.636 161.538C127.752 159.871 133.555 154.235 131.477 155.951C130.284 156.935 129.454 158.918 128.602 160.183C126.952 162.634 125.542 165.25 123.966 167.75C123.862 167.914 122.809 169.849 123.233 169.386C124.867 167.606 127.117 166.392 128.938 164.792C131.096 162.896 133.37 160.903 135.019 158.532C135.292 158.139 136.209 156.805 135.458 157.968C134.751 159.062 134.028 160.214 133.512 161.411C133.38 161.718 132.389 164.209 132.784 164.482C133.801 165.185 140.828 155.266 141.574 154.356C141.754 154.137 143.272 151.732 142.831 152.792C142.029 154.723 141.038 156.509 140.431 158.536C139.901 160.304 138.78 162.396 138.629 164.224C138.573 164.893 139.9 163.172 140.11 162.931C144.653 157.704 148.784 152.666 151.855 146.408C151.95 146.215 152.653 144.371 152.17 145.252C151.388 146.678 150.886 148.211 150.45 149.773C150.044 151.228 149.923 152.769 149.67 154.255C149.421 155.716 150.506 154.232 150.9 153.663C152.17 151.826 153.076 149.578 154.125 147.602C155.506 144.999 157.021 142.336 158.017 139.554C158.036 139.501 158.488 137.959 158.622 138.05C158.86 138.209 158.665 139.061 158.611 139.253C158.131 140.949 157.761 142.598 157.339 144.317C156.995 145.718 156.525 147.079 155.957 148.403C155.376 149.757 156.082 148.39 156.302 147.86C156.882 146.465 157.081 144.93 157.738 143.578C158.877 141.232 160.097 138.764 160.96 136.301C161.908 133.593 161.603 130.652 161.408 127.852" stroke="#171717" stroke-width="2" stroke-linecap="round"/>
<path d="M119.021 168.31C121.246 168.154 123.447 167.436 125.567 166.787C126.381 166.538 128.647 166.341 129.266 165.629C129.95 164.842 127.233 166.161 126.297 166.622C125.948 166.795 123.16 168.067 123.198 168.611C123.215 168.867 127.559 167.868 127.734 167.823C130.638 167.065 133.48 165.931 136.469 165.527C137.704 165.36 135.52 165.585 135.253 165.603C134.623 165.647 132.783 165.641 133.376 165.857C134.172 166.146 135.434 165.499 136.125 165.228C138.588 164.263 140.984 163.104 143.38 161.988C143.979 161.709 145.7 161.352 146.039 160.685C146.096 160.573 145.165 160.699 145.133 160.705C144.023 160.906 142.875 161.247 141.851 161.72C141.459 161.901 140.658 162.223 140.432 162.64C140.249 162.977 141.226 162.695 141.577 162.542C145.007 161.048 148.031 158.107 150.811 155.646C151.284 155.227 152.736 154.012 152.291 154.46C151.818 154.936 151.108 155.258 150.577 155.671C149.803 156.274 147.664 157.711 147.749 158.916C147.775 159.298 150.751 156.151 150.911 155.953C152.276 154.26 153.638 152.562 154.98 150.85C155.66 149.983 156.252 148.976 157.011 148.176C158.191 146.932 154.555 150.574 153.39 151.834C152.485 152.813 151.615 153.806 150.8 154.861C150.759 154.914 149.99 156.175 150.019 156.173C150.362 156.149 150.952 155.229 151.125 155.022C152.01 153.962 152.789 152.83 153.6 151.715C155.074 149.689 156.524 147.69 157.631 145.435C158.142 144.393 158.141 143.113 158.35 141.989C158.63 140.484 159.039 138.996 159.293 137.489C159.632 135.47 160.257 133.518 160.602 131.496C160.778 130.463 161.382 129.162 161.308 128.112C161.221 126.861 161.133 125.61 161.046 124.359C160.995 123.629 160.944 122.899 160.893 122.169C160.858 121.67 161.053 122.217 161.067 122.41C161.215 124.531 161.366 127.537 162.325 129.403" stroke="#171717" stroke-width="2" stroke-linecap="round"/>
<path d="M123.778 163.593C119.15 163.917 114.522 164.24 109.893 164.564C109.563 164.587 108.035 164.694 109.122 164.618C110.697 164.508 112.085 164.882 113.635 165.153C116.049 165.574 118.526 165.847 120.97 165.99C123.814 166.157 118.99 166.403 118.352 166.448C116.689 166.564 111.7 166.913 113.363 166.797C115.053 166.679 116.695 166.545 118.353 166.998C122.271 168.069 110.354 165.554 106.398 164.634C106.18 164.583 103.002 163.646 103.119 163.513C103.621 162.935 106.5 163.978 106.985 164.092C110.549 164.931 114.178 165.608 117.759 166.377C118.602 166.558 121.066 167.158 120.206 167.219" stroke="#171717" stroke-width="2" stroke-linecap="round"/>
<path d="M162.283 126.745C163.827 148.822 147.762 167.931 126.401 169.425C105.04 170.918 86.4718 154.232 84.9279 132.154C83.3841 110.076 98.676 79.9102 120.037 78.4165C141.398 76.9228 160.74 104.667 162.283 126.745Z" stroke="#171717" stroke-width="1.5"/>
<path d="M136.703 84.0797L120.221 109.186C119.808 109.816 120.108 110.667 120.826 110.897L132.851 114.758C133.481 114.961 133.807 115.655 133.561 116.269L126.473 133.95" stroke="#171717" stroke-width="1.5" stroke-linecap="round"/>
<path d="M83.4704 127.056C83.3378 125.16 83.3223 123.486 84.3339 121.781C84.7678 121.051 85.0223 119.889 85.2813 119.061C85.5834 118.095 86.0225 117.167 86.4107 116.233C87.2937 114.107 88.1113 111.912 88.7988 109.714C89.4192 107.731 89.937 105.637 90.9435 103.781C92.9184 100.14 94.5651 96.2698 97.2509 93.0597C98.4785 91.5925 99.8253 90.302 101.086 88.8521C102.063 87.7279 103.016 86.6056 104.124 85.606C105.456 84.4047 107.032 83.4852 108.357 82.2764C110.046 80.7361 111.873 79.6494 114.054 78.9393C115.964 78.3173 118.432 78.5383 120.441 78.3978C122.376 78.2625 124.224 78.0812 126.145 78.473C128.279 78.9082 129.654 79.8398 131.444 81.0413C134.36 82.9993 137.305 84.9806 139.987 87.2273C141.324 88.3474 142.83 89.3557 144.192 90.4303C144.835 90.9373 145.372 91.5522 146.09 91.9619C146.594 92.249 147.748 92.7759 146.465 92.5045" stroke="#171717" stroke-width="1.5" stroke-linecap="round"/>
<path d="M147.18 91.0713C147.261 92.2365 148.901 93.7061 149.519 94.6997C150.237 95.8534 151.138 96.9448 151.701 98.1916C152.692 100.384 154.273 102.318 155.413 104.421C156.527 106.478 157.609 108.538 158.416 110.762C158.857 111.979 159.343 113.119 159.627 114.375C159.848 115.354 159.996 116.48 160.355 117.41C161.131 119.421 161.651 121.789 161.802 123.945C161.953 126.095 162.486 128.299 162.638 130.47C162.707 131.459 162.999 132.696 162.851 133.678C162.75 134.352 162.206 135.146 162.252 135.806" stroke="#171717" stroke-width="1.5" stroke-linecap="round"/>
<path d="M162.472 133.556C162.756 137.619 161.416 141.065 159.841 144.737C158.015 148.993 156.671 153.407 152.925 156.407C151.45 157.589 150.14 158.978 148.635 160.12C148.036 160.574 147.214 161.301 146.724 161.865C146.171 162.501 145.427 162.846 144.842 163.419C144.247 164 143.115 164.335 142.374 164.729C141.624 165.127 140.811 165.36 140.029 165.693C138.476 166.356 136.938 166.886 135.363 167.494" stroke="#171717" stroke-width="1.5" stroke-linecap="round"/>
<path d="M136.21 167.436C135.343 167.496 134.477 167.557 133.61 167.617C132.762 167.677 131.363 167.767 130.57 168.114C129.015 168.795 127.075 168.58 125.482 169.176C124.355 169.597 122.786 169.701 121.586 169.785C120.611 169.853 119.689 169.965 118.732 169.795C117.706 169.614 116.774 169.234 115.83 168.818C114.985 168.446 114.009 168.052 113.197 167.612C111.535 166.711 109.525 166.152 107.69 165.68C106.813 165.454 105.569 164.93 104.764 164.515C103.648 163.94 102.53 163.496 101.481 162.754C99.69 161.486 97.8043 159.574 96.6611 157.687C95.794 156.257 94.4419 155.246 93.4596 153.93C93.2564 153.658 91.8414 152.336 91.9258 152.331" stroke="#171717" stroke-width="1.5" stroke-linecap="round"/>
<path d="M92.9652 153.64C92.3312 152.952 91.912 151.722 91.4046 150.905C90.6203 149.642 89.5865 148.439 88.7338 147.205C87.9154 146.021 86.9915 144.742 86.3745 143.441C85.738 142.099 85.3898 140.377 85.0165 138.933C84.3913 136.514 84.1849 134.231 84.0369 131.702C83.9032 129.417 84.1803 127.075 84.1318 124.775C84.068 121.747 84.5912 118.572 85.3814 115.681" stroke="#171717" stroke-width="1.5" stroke-linecap="round"/>
<path d="M135.054 85.2898C134.638 86.6477 133.821 88.2137 133.071 89.427C131.866 91.3786 130.711 93.4129 129.2 95.1502C128.03 96.4963 127.027 97.8527 125.945 99.2855C124.778 100.832 124.126 102.805 122.701 104.147C121.902 104.899 121.54 105.628 121 106.538C120.707 107.031 119.974 108.33 119.982 108.881C119.996 109.831 120.469 109.693 121.257 110.064C123.065 110.917 125.073 111.619 127.004 112.116C128.335 112.458 129.763 112.551 131.005 113.159C131.709 113.503 132.146 114.266 132.675 114.809C133.285 115.436 134.3 115.832 134.737 116.573C135.218 117.387 133.486 118.982 133.066 119.528C131.194 121.956 129.521 124.394 127.934 127.005C127.285 128.074 126.445 128.996 126.015 130.179C125.652 131.179 125.801 132.303 125.875 133.369" stroke="#171717" stroke-width="1.5" stroke-linecap="round"/>
</svg>
