<svg xmlns="http://www.w3.org/2000/svg" width="403" height="253" fill="none"><path stroke="#C6C6C8" stroke-linecap="round" stroke-width="2" d="M252.205 106.294c4.448 0 8.674-1.278 13.075-1.767 4.76-.529 9.624-.945 14.33-1.865 6.994-1.369 14.023-2.772 21.065-3.946 14.649-2.441 29.013-5.747 43.352-9.658 13.391-3.652 27.293-6.53 39.787-12.778 3.085-1.542 5.865-3.648 8.65-5.646 1.104-.79 3.476-2.926 3.566-4.457.083-1.41.412-.976-.445-.594-1.194.53-2.434 1.703-3.599 2.393-5.783 3.427-11.844 6.322-18.011 8.965-6.778 2.904-13.559 5.127-20.719 6.917-10.622 2.655-20.997 5.713-31.879 7.28-2.631.38-5.309.449-7.957.66-2.891.232-5.729.892-8.618 1.123-5.898.472-11.582 2.607-17.235 4.177-2.932.815-5.78 1.68-8.75 2.36-2.521.579-5.068.898-7.528 1.718-4.098 1.366-8.207 3.123-12.183 4.82-2.502 1.068-5.391 1.764-8.09 2.064-.782.087-2.64-.287-1.023-.875 4.072-1.481 8.331-2.788 12.547-3.797 1.978-.473 4.023-.861 5.976-1.403 1.276-.355-1.137-.149-1.453-.149-3.655 0-7.301-.131-10.813 1.04-1.112.371-2.051.446-3.22.446-.438 0 1.728-.333 2.18-.446 2.828-.707 11.598-1.04 8.683-1.04-3.266 0-6.49 1.189-9.724 1.189-.633 0 2.063-.416 2.378-.479 3.427-.685 6.9-1.386 10.285-2.262 7.749-2.005 15.385-4.426 23.178-6.24a91.788 91.788 0 0 1 6.043-1.189c.332-.054 2.199-.23.974-.23-4.718 0-8.801.52-13.307 2.08-1.823.63-3.684 1.228-5.481 1.93-.389.153-1.504.705-.412.744 4.424.158 8.901.048 13.306-.363 4.198-.393 8.206-2.195 12.316-3.055 4.078-.853 8.133-1.595 12.216-2.377 6.891-1.32 13.674-2.636 20.405-4.672 8.517-2.576 17.019-4.937 25.655-7.066 1.963-.484 4.037-1.135 6.075-1.188.927-.025.796.094-.016.297-3.21.802-6.562.496-9.823 1.04-6.148 1.025-12.39 1.477-18.523 2.592-5.864 1.066-11.516 2.832-17.334 4.094-3.977.862-7.903 1.74-11.821 2.823-1.006.278-10.499 2.174-10.499 3.269 0 .495 15.405-1.013 16.905-1.04.264-.005 2.384-.01 1.122.23-1.335.255-2.883.364-4.243.364-3.693 0-7.575 1.935-11.127 2.823-5.179 1.295-10.489 3.103-15.402 5.2-1.124.48-2.491 1.189-3.748 1.189-.655 0 1.31.01 1.965 0 9.567-.152 18.763-4.456 27.999-6.389 10.48-2.193 21.071-4 31.433-6.686 6.03-1.564 11.7-3.042 17.466-5.498 4.959-2.112 9.964-4.076 14.842-6.372.622-.293 1.793-.875 2.509-.875.759 0-1.503.264-2.262.264-2.144 0-8.548.509-6.405.594 3.141.126 6.095-.118 9.146-.891 1.779-.451 3.132-1.54 4.754-2.08"/><path stroke="#C6C6C8" stroke-linecap="round" stroke-width="2" d="M250.58 167.19c0-4.063-.487-8.475.302-12.471.838-4.241 1.534-8.51 2.269-12.773 1.547-8.974 3.974-18.58 2.807-27.766-.297-2.339-.867-4.633-1.513-6.891-.251-.88-.681-2.179-1.143-2.958-.339-.573-.936-.724-1.193-1.11-.36-.54-.072 1.304 0 1.95.181 1.628.473 3.266.656 4.908.271 2.44.772 4.91.84 7.361.031 1.108.303 3.197.303.858 0-2.104-.345-4.262-.757-6.32-.364-1.823-.257-4.003-1.361-5.58-.123-.175-2.069-2.964-2.118-2.135-.089 1.513.555 2.587 1.21 3.933 1.561 3.209 2.679 7.189 3.026 10.74.384 3.936 1.204 7.86 1.495 11.799.22 2.965.017 6.02.017 8.992 0 8.211-.453 15.955-2.723 23.9-.515 1.803-1.173 3.489-1.815 5.244-.314.861-.605 1.723-.605.37 0-5.428.023-10.744 1.21-16.085 1.118-5.029 1.815-10.322 1.815-15.479 0-8.418.549-17.023-.067-25.413-.085-1.165-.469-4.629-.538-3.463-.076 1.301 0 2.63 0 3.933 0 6.266 1.877 12.453 2.101 18.741.096 2.672.017 5.36.017 8.034 0 2.682-.516 5.019-.84 7.647-.881 7.134-4.37 13.114-7.614 19.413-2.959 5.743-5.536 11.911-9.227 17.227-.752 1.082-1.775 2.243-2.269 3.479-.321.803.755-1.557 1.193-2.302 1.687-2.873 3.998-5.325 5.748-8.169 1.817-2.952 3.143-6.033 4.236-9.311 1.095-3.287 2.158-6.581 3.092-9.916.367-1.31 1.446-3.054 1.446-4.421 0-3.08.191 6.22-.471 9.227-1.533 6.968-5.784 12.688-9.984 18.287-2.558 3.412-5.176 7.364-8.269 10.236-.598.556-2.154 5.02-2.454 4.42"/><path stroke="#C6C6C8" stroke-linecap="round" stroke-width="2" d="M242.223 179.862c.126-1.265 1.324-2.507 1.888-3.609 1.354-2.647 2.801-5.243 4.155-7.89 2.499-4.885 5.686-9.556 7.533-14.751 2.973-8.362 5.588-16.863 8.33-25.284 2.464-7.57 3.399-15.703 3.399-23.627v.608c0 2.318-.217 4.506-.566 6.799-1.365 8.948-4.189 17.578-6.421 26.334-.161.629-1.986 6.752-2.078 4.7-.355-7.996-.167-15.592 1.889-23.417.808-3.077 1.843-6.151 1.888-9.359.001-.026.004-2.498-.084-2.476-.688.172-.288 4.33-.293 4.826-.046 4.608-.829 9.22-1.511 13.765-.928 6.186-3.638 24.635-3.777 18.381-.163-7.323-.755-14.607-.755-21.948 0-4.211-.265-8.355-.378-12.548-.008-.304-.404-2.434-.378-1.259.07 3.157.717 6.36 1.133 9.485.465 3.487 1.563 13.891 1.868 10.386.353-4.061.433-8.169.965-12.212.246-1.867.189-3.744.189-5.623v-.714c0 5.098-.756 10.199-.756 15.339 0 .782.084 1.519-.021.21-.375-4.699-1.112-9.326-1.112-14.059 0-1.67-.521-4.313.189-5.875.33-.726.567-.576.567.189 0 3.761-.045 8.28 1.322 11.834.662 1.721 1.717-4.161 1.909-4.847.528-1.885 1.025-4.844 2.434-6.253.981-.981.756.964.756 1.511v6.421c0 .506-.374 2.915.083 3.315.196.171.294-3.253.294-3.525 0-.172-.094-5.666.084-5.666.28 0-.409 2.742-.461 2.938-.62 2.331-.784 4.703-1.05 7.092-.16 1.442.61 5.016-.377 6.127-.166.187-.5-2.36-.546-2.727-.234-1.874-.294-3.697-.294-5.582 0-1.577-.142-2.892.756-4.239"/><path stroke="#C6C6C8" stroke-linecap="round" stroke-width="2" d="M267.267 114.216c5.378 0 10.654.126 15.968-.886 11.023-2.1 22.376-5.229 33.084-8.594 14.399-4.526 28.34-10.727 42.635-15.609 5.616-1.917 11.92-4.638 16.877-7.9 2.156-1.418 4.611-2.725 6.488-4.5 1.023-.968 2.304-2.1 3.639-2.586 1.752-.637.125.079-.814.383-3.634 1.178-6.774 3.013-10.126 4.788-2.891 1.53-5.63 3.349-8.643 4.644-4.237 1.822-8.596 3.279-12.759 5.267-9.586 4.578-20.83 7.925-31.193 10.246-7.613 1.705-14.898 4.457-22.407 6.559-3.17.888-6.472 2.157-9.671 2.825-3.404.711-7.053.69-10.51 1.054-1.616.17-3.174.521-4.812.43-1.044-.058 3.188-1.203 3.52-1.292 4.212-1.135 8.87-1.114 13.214-1.269.378-.014 5.232.226 5.147.311-1.916 1.916-8.656.934-10.964.982-5.642.116-11.122 1.159-16.662 2.13-.192.034-4.416.606-3.471-.024 2.736-1.824 5.997-2.515 9.121-3.423 2.519-.732 5.398-1.293 8.043-1.293 1.071 0-4.719 1.203-5.458 1.293-2.058.252-7.202 1.872-9.193.766-.513-.285.764-.943 1.293-1.197 2.306-1.105 4.98-1.568 7.493-1.891 2.747-.353 10.847-1.272 8.307-.168-5.228 2.274-12.011 2.157-17.571 3.328-2.251.474-7.56 1.146-1.987.646 8.806-.79 17.649-1.069 26.453-1.915 1.766-.17 3.612-.218 5.362-.527 1.129-.199-2.277-.335-3.423-.335-4.99 0-9.996.431-14.962.431-4.612 0 9.005-1.992 13.501-3.016 6.834-1.556 14.058-4.155 21.067-4.716 11.963-.957-47.887 2.944-35.885 2.944 1.739 0 3.718-.601 5.41-.861a290.774 290.774 0 0 1 20.708-2.442c5.687-.462 22.799-.958 17.092-.958-7.724 0-15.573 1.902-23.269 2.586-2.012.178-4.314.163-6.272.766-2.289.704 4.754-.603 7.11-1.03 8.016-1.451 16.063-3.242 24.155-4.213 1.288-.155 2.581-.263 3.878-.263 1.293 0-2.528.546-3.782.861-3.46.872-14.054 2.155-10.486 2.155 6.08 0 12.571-2.73 18.433-4.118 3.669-.868 8.059-2.346 11.874-2.346 1.221 0-2.404.433-3.591.718-6.457 1.556-12.821 3.477-19.223 5.243-5.099 1.407-20.457 5.173-15.536 3.232 6.418-2.531 12.934-4.795 19.726-6.105.581-.112 8.014-.964 4.476.383-2.827 1.078-5.997 1.442-8.953 1.964-7.582 1.338-15.188 2.461-22.814 3.519-5.99.83-12.304 1.668-18.146 3.303-.825.231-2.431.169-.862-.718 2.929-1.655 6.755-1.197 9.983-1.197 2.463 0 3.346 1.39.55 2.25-4.48 1.379-9.195 1.952-13.741 3.089-1.857.464-1.96.532-3.543-.599M171.922 242.824c1.579 0 2.312-.303 3.647-1.193 1.722-1.148 3.883-1.538 5.731-2.437 3.261-1.587 5.968-3.992 9.312-5.446 5.889-2.56 12.454-5.697 17.026-10.269 6.181-6.182 12.675-11.985 18.303-18.791 6.655-8.049 12.751-15.968 17.849-25.11 2.107-3.778 4.367-7.481 6.185-11.413.696-1.505 1.816-2.895 1.816-4.605"/><path fill="#fff" stroke="#171717" stroke-width="2" d="M375.7 37.72c9.414-2.896 19.351 2.601 21.9 12.115 2.549 9.514-3.308 19.243-12.908 21.443l-162.69 37.275-5.833-21.77L375.7 37.719Z"/><circle cx="9.015" cy="9.015" r="9.015" stroke="#171717" stroke-width="2" transform="rotate(75 163.492 272.49)"/><ellipse cx="125.393" cy="127.079" fill="#fff" stroke="#171717" stroke-width="2" rx="123.959" ry="123.96"/><ellipse cx="125.394" cy="127.079" stroke="#171717" stroke-width="2" rx="101.421" ry="101.422"/><path stroke="#171717" stroke-linecap="round" stroke-width="2" d="M240.617 80.144c4.771 0 9.109-.5 13.736-1.552 1.332-.302 2.466-1.21 3.731-1.716 1.121-.449 2.13-.752 3.186-1.321 1.267-.683 2.795-.985 4.144-1.37 6.307-1.803 12.586-4.754 18.754-7.116 12.116-4.64 24.66-8.272 36.914-12.48 5.466-1.878 11.263-2.927 16.839-4.458 5.321-1.46 10.56-3.119 15.914-4.457 7.111-1.778 14.383-4.223 21.693-5.035 5.676-.631 12.391-1.243 17.351 2.063 4.535 3.024 3.747 9.398 3.747 14.165 0 3.82-.761 7.785-3.797 10.268-.758.62-2.624.443-3.566.595-1.415.228-3.039.784-4.391 1.27-1.956.705-3.766 1.834-5.828 2.246-3.695.74-7.406 2.402-11.011 3.483-4.326 1.298-8.886 2.215-13.026 4.078-2.721 1.225-6.265 2.04-9.195 2.592-3.318.626-6.57 1.684-9.939 2.245-3.841.64-7.749 1.352-11.605 1.85-3.617.466-7.036 1.577-10.615 2.145-3.544.563-7.135 2.133-10.616 3.055-3.374.893-6.466 2.073-9.971 2.525-4.422.571-8.761 1.622-13.224 2.015-4.906.43-9.684 1.307-14.561 1.849-4.028.447-8.356 1.84-12.249 2.971-1.658.481-3.877 1.783-5.58 1.783M26.516 105.525c0-2.403-.082-4.772.27-7.147.212-1.434 1.093-2.854 1.888-4.046.873-1.309 1.393-2.778 2.218-4.12 1.266-2.065 2.415-4.22 3.716-6.264 1.192-1.874 2.895-3.684 3.776-5.724.808-1.872 2.26-3.772 3.521-5.35 2.946-3.681 5.515-7.693 8.616-11.253a115.9 115.9 0 0 1 8.511-8.826c3.213-2.991 6.865-5.34 10.37-7.956 5.025-3.752 10.2-7.15 15.583-10.31 3.086-1.81 6.829-2.56 10.309-3.326 4.294-.945 8.507-1.953 12.886-2.487 7.759-.946 15.504-1.14 23.316-1.14"/><path stroke="#171717" stroke-linecap="round" stroke-width="2" d="M128.75 27.212c3.559 0 7.125-.066 10.683 0 2.964.055 5.906.83 8.806 1.332 1.422.246 2.822.78 4.202 1.203 2.145.655 4.18 1.555 6.304 2.23 3.748 1.189 6.997 3.763 10.603 5.308 1.953.838 3.747 2.069 5.525 3.216a129.084 129.084 0 0 0 5.157 3.168 63.158 63.158 0 0 1 8.63 6.032c1.223 1.015 2.652 1.801 3.769 2.919a191.81 191.81 0 0 1 4.235 4.363c2.588 2.758 6.404 4.193 8.445 7.458.316.506.636 1.001.722 1.604.019.136.152.714.152.29"/><path stroke="#171717" stroke-linecap="round" stroke-width="2" d="M205.262 65.757c.074.666 1.111 1.66 1.475 2.23.811 1.269 1.804 2.422 2.567 3.721 1.174 2 2.305 4.02 3.641 5.92 3.131 4.453 5.229 9.94 6.785 15.125.867 2.89 1.164 5.883 1.845 8.806.526 2.26.694 4.576 1.299 6.817.549 2.034 1.028 4.102 1.588 6.144.174.635.247 1.312.545 1.908.162.324.231.496.032 0"/><path stroke="#171717" stroke-linecap="round" stroke-width="2" d="M225.327 114.263c0 1.758-.083 3.541.217 5.277.335 1.946.264 3.99.729 5.919.506 2.096.623 4.311.899 6.448.269 2.089.176 4.214.176 6.32 0 2.452-.69 4.833-1.227 7.218-.586 2.603-1.197 5.259-2.021 7.795-.925 2.846-2.034 5.612-3.136 8.389-.861 2.172-1.85 4.236-2.502 6.489-.222.765-.395 1.563-.642 2.302M142.027 226.715c2.761 0 5.614.347 8.214-.598 1.686-.614 3.472-1.4 5.254-1.796 1.62-.36 3.701-1.539 5.253-2.244 1.264-.575 2.977-.533 4.174-1.198 1.934-1.074 4.139-1.818 6.135-2.843 2.342-1.203 4.615-2.45 6.816-3.89 1.266-.827 2.645-2.23 4.024-2.76 1.832-.705 4.214-2.193 5.62-3.525 1.302-1.234 2.938-2.069 4.339-3.159 1.698-1.32 2.958-2.941 4.473-4.456 1.72-1.721 3.78-3.793 5.104-5.852 1.258-1.957 3.16-3.495 4.472-5.404 2.324-3.38 4.547-6.892 7.349-9.859 2.251-2.384 3.891-4.989 3.891-8.38"/><path stroke="#171717" stroke-linecap="round" stroke-width="2" d="M63.617 209.057c1.53.153 3.47 2.472 4.655 3.442 1.215.994 2.664 1.762 4.024 2.477 1.651.869 3.599 1.146 5.237 2.029 1.704.917 3.485 1.92 5.304 2.593 1.565.58 3.055 1.481 4.589 2.178 1.525.694 3.36.955 4.921 1.58 1.953.781 4.515 1.349 6.568 1.862 1.959.49 3.918 1.2 5.852 1.796 3.962 1.219 7.97 1.795 12.104 1.795 3.935 0 7.97.3 11.838.3 3.737 0 7.524-.3 11.206-.3 3.145 0 6.098-2.095 9.294-2.095"/><path stroke="#171717" stroke-linecap="round" stroke-width="2" d="M64.513 209.358c-2.168-2.169-4.226-4.311-6.35-6.518-1.569-1.628-2.842-3.538-4.274-5.287-.558-.682-1.238-.808-1.712-1.662-.439-.79-1.521-1.33-2.095-2.095-3.315-4.42-6.948-8.387-8.845-13.7-.691-1.935-1.905-3.807-2.461-5.753-.396-1.386-.986-3.206-1.563-4.489-2.708-6.019-4.831-12.248-6.817-18.555-1.038-3.3-1.92-6.569-2.394-10.009-.377-2.732-1.418-5.497-1.496-8.247-.11-3.813-.3-7.699-.3-11.439 0-2.958-.299-5.916-.299-8.895 0-1.327-.28-3.049.3-4.206M1.89 115.794c0-4.789.96-9.806 3.129-14.144 1.902-3.805 3.874-8.138 4.82-12.3.426-1.874 1.404-3.662 2.116-5.44.87-2.177 1.496-4.594 2.72-6.605 1.198-1.969 1.897-4.322 2.931-6.392 1.294-2.587 2.338-5.3 3.869-7.767 2-3.223 3.622-6.909 6.12-9.777 2.246-2.578 4.27-5.292 6.664-7.752 1.285-1.321 2.25-2.99 3.536-4.352.85-.9 1.645-1.915 2.463-2.857.524-.601 1.574-1.99 2.297-2.312.955-.424 1.551-1.685 2.161-2.448.89-1.113 1.743-2.407 2.75-3.415 1.89-1.89 3.834-3.636 6.317-4.745"/><path stroke="#171717" stroke-linecap="round" stroke-width="2" d="M50.578 27.663c2.064 0 3.95-1.072 5.606-2.176 2.505-1.67 5.166-3.183 7.722-4.745 3.738-2.284 7.55-4.485 11.576-6.256 4.645-2.044 9.193-5.396 14.25-6.408 5.054-1.01 9.95-2.598 15.111-3.264 3.757-.484 7.451-1.228 11.228-1.571 2.567-.234 5.109-.471 7.677-.665 2.37-.18 4.772-.042 7.132-.272 7.288-.711 15.318-.657 22.184 2.176 3.554 1.467 7.191 2.685 10.729 4.2 3.698 1.586 7.335 3.483 10.88 5.38"/><path stroke="#171717" stroke-linecap="round" stroke-width="2" d="M166.18 9.165c1.542.172 2.637 1.764 4.08 2.176 1.684.482 3.333 1.917 4.896 2.72 4.983 2.563 10.481 4.29 15.293 7.133 11.024 6.515 21.318 14.609 29.648 24.42 2.304 2.713 4.682 5.36 6.725 8.296 2.15 3.092 3.492 6.494 5.455 9.657 3.082 4.965 4.755 11.03 6.589 16.532.434 1.302.926 2.764 1.284 4.02.267.933.999 2.17 1.103 3.112.157 1.407 1.303 2.804 1.617 4.216.168.756.487 1.624.831 2.312"/><path stroke="#171717" stroke-linecap="round" stroke-width="2" d="M242.07 89.136c0 5.133 2.741 10.053 4.776 14.704 2.499 5.713 2.919 12.336 3.717 18.421 1.086 8.283.781 17.305-.741 25.523-.36 1.947-.462 4.264-1.284 6.09-.83 1.845-1.737 3.625-2.644 5.44-1.624 3.246-2.674 6.28-3.552 9.792"/><path stroke="#171717" stroke-linecap="round" stroke-width="2" d="M110.672 250.624h17.067c4.678 0 8.739-.83 13.318-1.678 6.593-1.22 13.517-1.569 19.946-3.355 3.482-.967 6.747-2.244 10.046-3.728 3.42-1.539 6.992-2.617 10.17-4.661 5.703-3.666 12.067-6.821 17.067-11.557 1.814-1.719 4.122-3.148 6.131-4.64 4.116-3.058 8.296-6.637 11.537-10.625 1.895-2.333 3.789-4.651 5.447-7.188 1.866-2.854 4.418-5.29 6.173-8.161 4.341-7.103 8.743-13.665 12.096-21.209.98-2.207 1.572-4.759 2.237-7.084.607-2.127 2.609-4.203 2.609-6.338M5.537 100.749c0 4.566-1.91 8.442-2.59 12.862-.612 3.983-1.138 7.631-1.138 11.744 0 6.907 2.617 13.306 3.376 20.133.558 5.023 1.725 10.03 3.044 14.913.867 3.206 2.281 6.259 3.356 9.404 1.579 4.618 2.9 9.207 4.764 13.732 2.978 7.232 7.683 12.491 12.966 18.165 1.963 2.108 3.022 4.998 4.95 7.167.83.933 1.49 1.891 2.216 2.899.313.434 1.835.829.746.829"/><path stroke="#171717" stroke-linecap="round" stroke-width="2" d="M33.871 210.36c2.597 2.338 5.035 5.366 7.995 7.25 4.438 2.824 8.532 6.174 12.883 9.155 4.963 3.4 9.911 6.598 15.1 9.672 4.035 2.392 8.328 3.962 12.49 5.986 3.356 1.633 7.078 2.587 10.439 4.267 3.483 1.742 8.177 1.558 11.93 2.444 5.524 1.304 11.175 2.008 16.777 2.631 1.659.184 12.438.249 12.303-.021M374.784 45.927c-.419 0-.85-.032-1.267.01-.9.09-1.725.628-2.46 1.113-.61.402-1.189.919-1.706 1.437-.332.331-.747.642-.853 1.122-.531 2.386-.27 4.945-.27 7.385 0 1.15.223 2.173.584 3.258.347 1.04 1.295 1.671 2.24 2.16 1.533.793 2.955 1.665 4.67 2.061 1.724.398 3.215.171 4.721-.718 1.768-1.046 3.057-2.331 4.061-4.107.608-1.076.923-2.375 1.192-3.572.298-1.324.458-3.009-.044-4.301-.45-1.157-1.198-2.27-2.066-3.154-.893-.91-2.087-2.02-3.323-2.425-.657-.215-1.303-.467-1.976-.628-.694-.166-1.446-.09-2.155-.09-.539 0-1.178-.098-1.707.02-.287.064-.604.16-.898.16"/><path fill="#fff" stroke="#fff" stroke-width="8" d="M131.837 172.733c23.385-4.123 38.674-26.983 34.469-50.831-2.082-11.808-9.024-24.37-18.177-33.525-9.087-9.089-21.14-15.55-33.523-13.367-12.384 2.184-21.5 12.378-26.93 24.027-5.47 11.733-7.697 25.912-5.615 37.72 4.205 23.847 26.391 40.1 49.776 35.976Z"/><path stroke="#FFD424" stroke-linecap="round" stroke-width="2" d="M89.085 145.347c-.028-.556 1.282.562 1.39.632 3.723 2.436 7.238 5.429 10.326 8.626.828.857 1.59 1.774 2.418 2.63.225.233.888.701.951 1.06.073.412-.709-.451-1.029-.72-1.418-1.193-2.84-2.384-4.2-3.644-2.344-2.173-4.703-4.477-6.649-7.02-.33-.432-1.504-1.151-.981-1.305.352-.103 1.949 1.319 2.204 1.491a415.038 415.038 0 0 1 6.283 4.303c.348.244 1.401.923.993.802-.896-.266-2.043-1.552-2.703-2.116-2.733-2.335-5.337-4.842-7.652-7.595-.144-.17-.598-.658-.43-.513.995.855 2.105 1.544 3.214 2.24 2.747 1.722 5.451 3.513 8.21 5.216.347.214 1.318.95 1.02.672-1.016-.952-2.186-1.763-3.23-2.688-2.674-2.369-5.362-4.966-7.67-7.703-1.495-1.772 3.85 2.579 5.749 3.909 1.334.933 2.672 1.861 4.001 2.801.523.37 1.793 1.743 1.532 1.158-.289-.649-1.847-1.619-2.3-2.037-2.206-2.034-4.345-4.159-6.458-6.289-.345-.348-2.44-2.66-2.165-2.474 2.536 1.71 5.277 3.151 7.917 4.691.892.521 1.779 1.049 2.67 1.571.238.141.796.422.27-.097-2.349-2.321-5.006-4.286-7.292-6.694-.503-.528-.544-.577.164-.204 1.677.884 3.38 1.714 5.046 2.618 1.771.96 3.589 2.344 5.476 3.067 1.422.545-2.043-2.258-3.108-3.347-3.576-3.658-7.801-7.427-10.626-11.742-.243-.372.012-.212.21-.088 1.635 1.03 3.418 1.838 5.129 2.729 3.088 1.607 6.135 3.387 9.315 4.808.131.059.501.22.419.102-.251-.362-.671-.572-1.014-.849-3.413-2.75-6.657-5.704-9.83-8.726-1.719-1.635-3.392-3.317-5.13-4.932-.821-.764-1.11-.996.09-.279 3.45 2.063 7.062 3.843 10.482 5.955.097.061 1.319.983 1.504.862.14-.091-.218-.252-.34-.366a51.952 51.952 0 0 0-1.28-1.152c-1.104-.968-2.172-1.965-3.253-2.959-.428-.394-1.898-1.14-1.316-1.145.605-.006 2.078 1.275 2.474 1.53a148.81 148.81 0 0 1 7.248 4.947c.976.711 1.96 1.4 3.008 2 .113.065.413.28.355.163-.264-.531-1.422-1.419-1.732-1.724-3.574-3.512-7.377-7.078-10.399-11.093 0-.001-1.073-1.177-.314-.646 1.446 1.013 2.966 1.885 4.496 2.765 2.99 1.719 6.027 3.469 8.753 5.596 2.704 2.11-4.346-5.311-6.657-7.845-1.673-1.835-3.358-3.662-4.898-5.612-.384-.487-1.632-1.767-1.059-1.53 2.854 1.181 5.594 3.49 8.177 5.172.586.382 1.282 1.046 1.955 1.284 1.511.534-2.222-2.31-3.372-3.426a200.885 200.885 0 0 1-7.15-7.307 234.516 234.516 0 0 1-2.248-2.447c-.44-.491-1.86-1.512-1.204-1.567.835-.07 3.43 2.259 4.025 2.648 2.533 1.652 5.078 3.29 7.591 4.974 1.488.997 2.954 2.026 4.421 3.054.582.407 1.568 1.207.38.02-3.422-3.415-6.95-6.734-9.994-10.501-1.417-1.754 2.207.932 2.609 1.156 2.946 1.643 5.83 3.469 8.855 4.965.967.479.337-.304-.01-.762-2.102-2.778-4.381-5.437-6.604-8.118-.887-1.069-1.831-2.103-2.627-3.244-.252-.363-1.145-1.548-.064-.79 3.481 2.437 6.872 5.01 10.436 7.328.459.299 1.56 1.402 1.384.884-.254-.748-1.588-1.75-2.078-2.264-2.843-2.984-6.213-5.802-8.672-9.118-.179-.24.546.25.798.41 1.466.932 3.003 1.746 4.507 2.612 1.499.863 2.981 1.754 4.462 2.646.059.035 1.842 1.177 1.581.723-1.62-2.816-4.435-5.115-6.46-7.654-.368-.46-1.622-1.651-1.096-1.385 1.226.621 2.375 1.582 3.56 2.29 1.635.978 3.27 1.957 4.931 2.889.763.428 2.344 1.714 3.291 1.687.754-.022-.629-1.383-1.077-1.99-1.281-1.735-2.732-3.354-3.96-5.126-.315-.455-1.371-1.588-.841-1.43.325.097.926.711 1.197.891 1.902 1.266 3.982 2.365 6.012 3.412.266.136.735.266.485-.236-1.031-2.07-2.665-3.976-3.967-5.877a176.816 176.816 0 0 1-3.187-4.786c-.236-.37-.993-1.426-.663-1.136 3.01 2.649 12.85 9.594 9.566 7.294-1.3-.91-2.44-2.105-3.87-2.837-.648-.332.213.75.286.914.387.867-1.51-.424-1.806-.583-.203-.11-3.629-1.584-3.617-1.33.011.21.853.687 1.011.9.216.291-1.911-1.274-2.217-1.488-.496-.348-2.391-1.537-1.467-.08.863 1.361 1.671 2.74 2.253 4.25.68 1.766-4.828-1.783-4.071.643.41 1.314 1.058 2.555 1.485 3.872.175.54-.316.142-.503-.012-1.186-.974-2.214-2.135-3.362-3.153-.164-.145-2.609-2.376-2.565-1.69.178 2.784 1.032 5.58 1.408 8.345.039.287.84 4.704.211 4.748-.374.026-.881-1.213-.97-1.382-1.087-2.069-2.124-4.166-3.17-6.255-.128-.255-2.505-4.611-2.225-2.89.609 3.754 1.541 7.485 2.649 11.12.603 1.976 1.075 4.702 2.136 6.5.896 1.517-2.12-2.815-3.219-4.192-.32-.401-1.062-1.639-1.659-1.737-.446-.073-.207 3.411-.207 3.519.006 3.183-.609 6.411-.49 9.581.05 1.347.007-.89.016-1.118.072-1.795-.056-3.564-.105-5.355-.049-1.771-.708-3.469-.2-5.251.497-1.737-.195-3.67-.502-5.41-.209-1.181-.65-.474-1.327.146-1.065.977-2.147 2.164-2.754 3.492-1.5 3.279-2.745 6.903-3.642 10.388-1.014 3.932-1.116 7.779-1.476 11.809-.379 4.245.328 8.253 1.062 12.414l.658 3.73-.045-.256c-1.758-9.97-1.69-20.084 2.721-29.39 1.172-2.471 2.519-4.822 3.867-7.195.975-1.715-.392.424-.758.885-1.507 1.898-2.78 3.557-3.803 5.781-1.333 2.898-2.538 5.97-3.457 9.027-.854 2.844-1.357 5.801-1.792 8.734-.392 2.644-.785 5.433-.412 8.102.243 1.745.6 3.479.907 5.214.018.106.407 1.914.658 1.675.537-.513.809-2.344.979-2.903 1.36-4.477 2.732-8.949 4.096-13.424 3.17-10.397 6.889-20.655 9.9-31.094.33-1.145 1.436-3.797.293-1.18-2.998 6.868-4.652 14.442-6.083 21.766-.544 2.783-1.22 11.123-1.713 8.331-.778-4.413.063-9.421.387-13.859.051-.691.382-2.738.212-2.067-.441 1.742-.56 3.609-.868 5.377-.835 4.79-2.05 9.538-2.666 14.361-.017.134-.07 1.166-.207.388-.294-1.669-.466-3.367-.616-5.053-.2-2.259-.254-4.526-.444-6.785-.084-.984-.033-3.835-.43-2.931-.167.382.032 1.237.085 1.613.247 1.79.616 3.569.93 5.348.552 3.133.65 7.388 2.347 10.183.211.349.079-.816.047-1.223-.204-2.607-.443-5.212-.615-7.821-.144-2.189-.454-8.736-.033-6.583.669 3.428 1.355 6.845 2.905 10.01.128.262 2.648 4.827 3.021 3.426.546-2.052-.466-4.766-.964-6.745-.115-.46-.59-1.401-.46-1.898.11-.417 2.917 1.585 2.924 1.589 4.027 2.754 8.052 5.513 12.089 8.252.744.505 1.552 1.121 2.417 1.416.604.206-.834-2.024-.851-2.055-1.435-2.631-3.103-5.676-3.586-8.687-.222-1.381 3.484.833 3.794.984 1.284.629 5.01 2.592 3.978 1.604-3.444-3.296-6.81-6.579-10.025-10.107-.671-.738-2.6-2.621-.387-1.485 3.856 1.978 7.812 3.904 11.529 6.134.278.167 1.117.638.876.422-1.296-1.162-2.65-2.241-3.914-3.444-1.691-1.608-3.382-3.242-4.959-4.963-.582-.634-1.587-1.523-1.931-2.352-.149-.362.74.263 1.092.434 1.835.891 3.654 1.817 5.479 2.729 1.709.854 3.394 1.736 5.057 2.678.639.362 2.42 1.571 1.966.994-1.025-1.305-2.453-2.39-3.631-3.544-2.158-2.114-4.377-4.25-6.308-6.579-.207-.249-1.287-1.383-1.168-1.86.045-.18 3.333 1.709 3.361 1.724 3.75 2.065 7.469 4.455 11.331 6.294 1.194.569.248-.31-.157-.748-3.273-3.539-6.645-6.985-9.847-10.59-1.821-2.051-3.644-4.128-5.32-6.302-.047-.062-1.305-1.512-1.154-1.788.122-.223 7.056 4.126 7.576 4.464.919.597 1.821 1.247 2.791 1.762.679.36-1.127-1.044-1.702-1.554a95.636 95.636 0 0 1-6.783-6.645c-1.071-1.16-3.223-2.932-3.752-4.512-.358-1.068 2.086.873 3.06 1.44 3.9 2.27 7.712 4.676 11.423 7.243 1.61 1.113 3.267 2.203 4.81 3.41 1.622 1.27-.148.384-.885-.12-3.308-2.256-7.346-4.715-9.914-7.846-1.65-2.012 4.442 2.716 6.578 4.201a57.347 57.347 0 0 0 3.057 1.992c.032.019.873.6.898.48.082-.392.202-.349.615-.422 1.048-.184-.709-1.45-.944-1.662-2.314-2.081-4.806-4.211-6.486-6.873-.771-1.223 2.481 1.49 3.772 2.14 1.328.67 5.376 2.534 4.004 1.963-3.069-1.279-11.594-6.458-8.528-5.173.998.418 1.98.832 2.941 1.335 1.118.587 2.402.92 3.482 1.49.767.407-.489.007-.727-.147-.095-.06-2.211-1.614-1.594-1.723 1.404-.247 2.969.298 4.325.59 1.011.218 1.122.273-.019-.322-1.414-.737-2.914-1.473-4.463-1.868-.683-.174-1.14-.1-.477-.217.849-.15-1.709-.23-2.559-.376-.774-.131.86.18 1.059.252 3.104 1.114 5.976 2.873 8.834 4.493 3.138 1.778 6.249 3.894 8.689 6.584.101.111 1.137 1.653.854 1.503-.572-.302-1.974-1.67-1.444-1.298.827.579 1.495 1.413 2.138 2.178 1.35 1.608-2.952-1.128-3.123-1.228a400.037 400.037 0 0 1-4.421-2.627c-.425-.256-1.617-1.124-1.275-.765.907.949 1.819 1.9 2.5 3.028.201.333.271.537-.217.19-1.332-.949-2.531-2.081-3.845-3.056-1.146-.849-2.358-1.599-3.532-2.408-.754-.521-.803-.576-.23.253 1.287 1.865 2.713 3.563 3.765 5.587.198.38.09.442-.285.226-1.18-.679-2.236-1.557-3.414-2.242-2.074-1.206-.547.33.128 1.155.282.345 1.547 2.517 1.236 2.25-2.217-1.904-4.243-4.164-6.642-5.844-1.615-1.13 2.372 3.154 3.452 4.803.699 1.066 1.338 2.158 1.978 3.259.011.019.57 1.049.533 1.033-.788-.334-1.563-1.44-2.157-2-1.177-1.111-2.387-2.207-3.68-3.184-.213-.16-.793-.643-.312.005 1.121 1.512 2.322 2.952 3.376 4.516a116.19 116.19 0 0 1 2.734 4.277c.075.124 1.335 2.109.334 1.47-1.902-1.216-3.503-3.086-5.082-4.666-1.832-1.834-3.686-3.652-5.483-5.522-.055-.057-1.236-1.296-1.147-1.175 1.002 1.35 2.079 2.65 3.096 3.988 2.051 2.698 4.615 5.583 6.065 8.676.197.422-.923-.243-1.295-.523-2.346-1.766-4.524-3.758-6.718-5.705-.629-.557-2.425-2.297-1.938-1.612.773 1.085 1.73 2.067 2.564 3.105a59.34 59.34 0 0 1 2.922 3.994c.02.031 1.232 1.867 1.003 1.853-1.384-.089-3.545-1.998-4.58-2.675-3.403-2.224-6.745-4.543-10.119-6.808-.079-.053-2.832-2.139-3.137-1.802-.167.185 2.994 4.168 3.108 4.337 3.673 5.474 6.941 11.27 9.867 17.174.452.912.93 1.82 1.267 2.783.363 1.035-.867-.45-.991-.577-.904-.925-1.837-1.821-2.739-2.748-.187-.193-.675-.921-1.001-.989-.22-.046.283.351.441.511a17.484 17.484 0 0 1 1.957 2.361c.292.424.685.886.869 1.375.216.574-1.11-.539-1.611-.894-4.865-3.447-9.022-7.638-13.7-11.275-.136-.106-1.004-.743-.487-.064a41.162 41.162 0 0 1 2.919 4.408c.271.469 4.167 6.972 3.751 7.28-.313.232-6.893-5.321-7.65-5.879-.452-.333-1.755-1.295-1.482-.803.945 1.703 1.969 3.327 2.826 5.088 1.253 2.575 2.166 5.295 3.416 7.865.488 1.003-1.674-.856-1.943-1.073-1.264-1.017 3.996 4.791 2.492 4.183-.849-.343-1.487-2.244-2.052-2.97-.15-.192-4.354.957-4.733 1.01-1.12.156-2.86.59-3.938-.032-1.104-.636-2.019-1.847-2.934-2.714-.591-.561-2.422-2.525-1.867-.498.988 3.605 3.132 6.731 5.14 9.828 1.89 2.913 3.535 6.039 5.259 9.082 1.052 1.854 1.767 4.082 3.141 5.734.263.317-.452-.913-.647-1.114-.776-.796-.755-.445-.601.432.288 1.631.909 3.009 1.479 4.549.189.51.787 1.122 1.094 1.586.715 1.083 1.63 3.059 2.781 3.769.234.144.073-.565-.02-.824-.444-1.238-.976-2.449-1.45-3.677-.135-.351-1.528-3.85-.778-3.42 1.38.79 2.787 1.911 4.326 2.368.425.127.393-.207.258-.521-.788-1.836-2.04-3.559-3.081-5.256-.972-1.585-3.873-6.345-2.928-4.745.93 1.576 3.162 3.453 4.72 4.391 1.808 1.089-.367-2.281-.651-2.766-.396-.674-1.332-1.52-.47-.318.099.137 1.477 1.868 1.49 1.341.049-2.175-2.068-4.756-3.024-6.632-.088-.174-.413-.611-.411-.416.002.243.315.913.187.706a24.27 24.27 0 0 0-3.678-4.588c-.824-.801.556 1.937.608 2.023.931 1.562 4.829 5.433 3.527 4.163-2.598-2.535-10.773-9.731-7.993-7.397 2.029 1.704 4.549 3.088 6.905 4.282 3.047 1.544.603-2.359-.11-3.538-.574-.949-1.276-1.844-1.755-2.848-.23-.481-.363-.661.055-.26 2.195 2.109 5.376 3.614 8.192 4.694.157.059 1.313.633 1.022-.03-.572-1.307-1.614-2.501-2.467-3.624a165.7 165.7 0 0 0-2.558-3.281c-.083-.104-.658-.859-.624-.767.365.986 1.453 2.254 2.439 2.676.265.114-.063-.587-.199-.842-.653-1.223-1.416-2.401-1.975-3.672-.663-1.507.044-.242.586.272.32.303 2.06 1.661 2.064.551.003-.836-.667-1.867.322-1.084.435.343 1.03.933 1.532 1.082"/><path stroke="#FFD424" stroke-linecap="round" stroke-width="2" d="M142.391 92.444c.192.681.869 1.225 1.347 1.71 1.063 1.079 1.965 2.256 2.861 3.476 2.189 2.979 3.487 6.048 4.818 9.46.393 1.007 2.565 4.986.224 2.567-5.278-5.455-10.3-11.422-16-16.438-1.162-1.021 2.752 1.415 4.094 2.185 3.69 2.119 7.388 4.436 10.774 7.021.25.191 2.725 2.503 2.283 2.39-4.22-1.081-8.445-4.048-12.174-6.187-2.254-1.294-9.082-5.022-6.691-4.004 3.436 1.464 6.573 4.65 9.371 7.025 2.498 2.12 5.291 4.467 7.093 7.254.535.829-.412.329-.783.11-2.584-1.532-4.98-3.484-7.375-5.286-3.082-2.32-6.434-4.804-9.007-7.72-1.542-1.746 3.437 3.147 5.108 4.77 1.74 1.692 4.302 3.646 5.339 5.917.321.704-.727.054-.833-.01-2.698-1.634-5.115-3.815-7.552-5.799-2.795-2.276-10.987-9.318-8.414-6.793 2.899 2.845 5.839 5.594 8.515 8.665 2.498 2.865 4.972 5.834 7.238 8.89.637.858-.121.568-.76.234-2.758-1.439-5.201-3.578-7.52-5.618-1.81-1.592-3.515-3.275-5.18-5.015-.154-.16-2.357-2.86-2.738-2.696-.091.04.026.198.065.29.167.386.849 1.576.98 1.817.886 1.636 1.588 3.341 2.335 5.044.216.492 3.34 6.522 2.576 6.977-1.113.662-6.433-8.357-7.018-9.273-.831-1.299-2.631-5.498-2.363-3.979.563 3.195 1.674 6.302 2.738 9.354 1.463 4.202 2.78 8.495 4.458 12.616 1.33 3.268-.023-1.561-.287-2.44-.573-1.903-1.059-4.506-2.233-6.165-.206-.291.289 3.099.345 3.419.541 3.065 1.3 6.078 1.869 9.135.496 2.668-1.314-1.908-1.451-2.221-2.174-4.946-3.962-10.178-5.405-15.385-.243-.877-.384-1.828-.716-2.68-.25-.64.02 1.376.105 2.058.553 4.434 1.428 8.829 2.204 13.228.08.459 1.132 5.599.259 2.933-1.335-4.078-3.973-16.687-3.228-12.461l2.162 12.262c.331 1.875.671 3.748.992 5.624.174 1.019.539 2.3.333 3.35-.039.195-.399-.167-.491-.344-1.051-2.032-1.801-4.212-2.473-6.394-1.33-4.316-2.556-8.719-3.381-13.164-.394-2.124.131.744.208 1.181.75 4.251 1.585 8.497 2.237 12.764.081.535.717 4.811.09 2.218-1.009-4.181-2.095-8.35-2.918-12.573-.209-1.07-.393-2.145-.582-3.219-.052-.291-.167-1.006-.035-.194.89 5.439 1.362 10.982 1.732 16.476.279 4.16.616 8.569-.136 12.71-.049.268-.125.706-.279.207-.587-1.905-.985-3.908-1.404-5.852-1.854-8.597-6.247-34.619-4.72-25.958 1.727 9.794 3.499 19.582 5.181 29.384.028.162.547 4.686-.14 2.86-2.094-5.565-2.979-11.78-4.007-17.607-.294-1.67-.612-3.34-.828-5.023-.053-.414-.397-1.811-.142-2.266.101-.18.237.35.283.552.406 1.776.651 3.606.967 5.399.93 5.272 1.885 10.541 2.789 15.817.14.816.813 5.017-.232 1.931-1.814-5.35-4.864-22.061-3.883-16.497.796 4.513 1.5 9.029 1.727 13.613.176 3.535.467 7.61-.406 11.097-.104.416-.29.586-.564.128-1.329-2.225-1.709-5.387-2.244-7.852-1.198-5.528-2.159-11.116-3.101-16.693-.178-1.056-.236-2.428.28-.608 1.164 4.107 1.673 8.51 2.356 12.715.517 3.179 1.072 6.503.959 9.74-.067 1.908-.69-2.451-.74-2.734l-1.303-7.388c-.105-.6.949 3.295 1.048 3.667 1.388 5.242 5.136 21.069 3.668 15.849a99.17 99.17 0 0 0-2.642-8.083c-.594-1.576-1.234-3.137-1.807-4.721-.154-.427-.297-1.638-.535-1.252-.544.883.984 4.654 1.179 5.549.558 2.564 1.432 5.071 1.866 7.66.495 2.959-1.733-.964-2.232-1.697-.998-1.463-2.146-3.047-2.766-4.724-.497-1.343 1.292 2.567 2.119 3.736 1.512 2.137 3.172 4.378 4.999 6.263 1.406 1.452-.724-.117-1.268-.449-2.456-1.499-4.971-2.773-7.522-4.086-1.09-.561.158.707.387.891a42.09 42.09 0 0 0 5.035 3.465c.121.071 1.9 1.087 1.211.617-2.983-2.034-6.145-3.876-9.189-5.826-.714-.457-1.447-.862-2.186-1.275-.224-.125-.573-.661-.646-.416-.138.464 4.704 3.392 5.067 3.646 2.325 1.628 4.742 3.145 7.035 4.816 1.716 1.25-.807.085-1.384-.214-2.915-1.512-5.674-3.327-8.565-4.89-1.639-.887-.605-.398.332.342 1.591 1.256 3.339 2.228 4.993 3.387.635.445.891.92-.073.399-2.661-1.44-5.421-3.416-8.292-4.394-1.202-.41-1.98-1.453-2.979-2.195-.504-.376-.99-.414-1.472-.715-.304-.19-.634-.322-.939-.536-.084-.058-.596-.607-.67-.469-.412.78 5.03 5.433 5.622 5.896 5.789 4.525 12.626 8.751 19.708 10.916 2.01.614 3.756.683 5.841.316 2.983-.526 5.959-.9 8.736-2.185.279-.129 1.488-.492 1.66-.737.04-.057-1.977-.104-2.111-.114-3.462-.275-6.901-.461-10.34-.983-2.06-.313-4.135-.595-6.185-.972-.519-.095-1.917-.176-2.36-.557-.24-.206.609-.165.92-.22 1.242-.219 2.465-.372 3.729-.371 1.934.002 3.912.124 5.814.493.978.189.76.352-.236.528-2.285.403-4.627.217-6.934.22-1.363.003-1.386-.013-.086-.242 1.612-.284 3.213-.48 4.852-.34.584.05 1.662.145.298.148-3.496.008-7.299-.813-10.72-1.518-.261-.053-2.446-.485-2.06-.553 2.736-.482 5.497-.796 8.262-1.056 2.974-.28 6.038-.177 8.984-.696 1.805-.318-3.659-1.454-3.739-1.474-4.466-1.143-8.968-2.154-13.478-3.108-1.468-.311-2.078-.412-.189-.425 5.427-.037 21.463 2.993 16.193 1.698-3.574-.878-7.13-1.897-10.666-2.916-.978-.281-5.153-1.179-1.956-1.588 4.168-.533 8.454-.821 12.656-.742.277.005 4.667.251 2.971-.123-3.138-.693-6.31-1.23-9.447-1.929-1.235-.275-3.058-.631-.786-1.049 3.321-.612 6.62-1.158 10.001-1.263.723-.022 2.55.172 3.172-.359.4-.341-2.752-1.664-2.772-1.673-2.825-1.248-5.708-2.383-8.51-3.683-1.628-.754.148-.483 1.064-.459 4.143.104 8.234.732 12.281 1.6 1.235.265 2.456.593 3.681.897.471.117.795.214.016.255-5.655.298-11.461-.825-17.029-1.651a251.06 251.06 0 0 1-6.35-1.013c-.742-.13-2.164-.156-2.853-.586-.297-.185.701.033 1.047.088 1.972.313 3.916.774 5.825 1.364.762.236 7.76 2.055 7.566 3.362-.202 1.363-10.231.167-11.28.099a91 91 0 0 1-4.696-.403c-.515-.06-2.056-.067-1.546-.157 5.596-.987 11.298-1.13 16.967-.815 2.481.137-.664-.78-1.513-1.108-4.086-1.58-8.318-2.991-12.57-4.055-.076-.019-1.456-.206-1.585-.38-.134-.181.442-.096.667-.117a78.417 78.417 0 0 1 2.377-.161c4.103-.169 8.517.212 12.551 1.022 2.456.493.482.072-.751-.282-3.051-.876-6.168-1.608-9.198-2.545-3.991-1.236 8.367-.772 12.529-.405 1.043.091 3.243.75.919.01-2.935-.936-5.882-1.872-8.768-2.951-2.945-1.1.508-.772 1.739-.693 5.146.33 10.138 1.369 15.126 2.631.633.16 1.333.284 1.932.561.622.289-1.31-.41-1.949-.658-4.086-1.584-8.268-2.898-12.377-4.419-.831-.307-2.739-.868-.725-.86 3.785.014 7.514.73 11.18 1.608 1.106.265 2.206.549 3.309.82 1.716.421-.85-.658-.924-.696-3.196-1.635-6.38-3.292-9.499-5.069-1.543-.879-.605-.731.682-.593 2.351.253 4.552 1.04 6.862 1.396 1.199.185-2.44-1.736-2.682-1.89-1.367-.87-4.278-2.038-5.19-3.452-.152-.235.566-.009.839.053 1.496.337 2.963.815 4.431 1.252 2.822.839 5.587 1.759 8.367 2.706 3.244 1.105-5.974-3.546-8.313-6.052-.883-.947 1.302-.204 1.508-.137 2.259.732 4.52 1.751 6.824 2.319.571.141.328-.277.101-.562-1.578-1.988-3.725-3.621-5.661-5.23-2.764-2.297-5.616-4.494-8.302-6.884-1.305-1.161 2.931 1.899 4.408 2.831 2.534 1.598 4.823 3.446 7.117 5.36 1.939 1.618-1.795-.886-2.001-1.036-3.241-2.355-6.623-4.545-9.548-7.294-1.613-1.516-.419-.982.995-.362 4.171 1.83 8.277 3.843 12.188 6.185.548.328 3.17 2.092 1.495.438a81.888 81.888 0 0 1-6.685-7.456c-.07-.089-1.733-2.175-.873-1.464 2.227 1.843 4.816 3.245 7.145 4.955 1.143.839 4.493 3.462 3.331 2.648-2.564-1.795-4.93-3.966-7.253-6.052-.982-.881-1.956-1.768-2.955-2.629-.253-.218-1.037-.791-.863-.507 2.218 3.62 4.371 7.229 6.164 11.084.174.374 2.537 4.691 1.317 4.708-1.226.017-2.727-.711-3.828-1.086-3.599-1.225-7.206-2.388-10.859-3.44-2.312-.666-4.947-1.729-7.365-1.981-1.768-.184 3.383 1.127 4.976 1.915 2.229 1.102 4.263 2.528 6.441 3.718.025.014.649.469.249.114-1.679-1.491-3.393-2.939-5.1-4.399-3.43-2.933-7.038-5.828-10.117-9.141-.628-.675-.058-.171.29.02 1.244.686 2.498 1.322 3.692 2.099.215.139 4.06 2.786 3.871 2.954-.752.672-2.009-.223-2.997-.431-4.439-.933-8.858-1.966-13.281-2.97-4.68-1.063-9.328-1.844-14.05-2.62-.483-.08.984-.06 1.465.028 1.966.359 3.898.953 5.801 1.554 4.122 1.303 8.283 2.672 12.277 4.336 2.902 1.21-1.844-.743-2.309-.91-4.938-1.773-9.934-3.328-14.93-4.928-.64-.205-2.483-.448-1.877-.743.532-.259 2.08.256 2.54.354 3.214.686 6.294 1.834 9.489 2.58.808.188 1.784.516 2.628.367 1.008-.178.883-1.567.752-2.309-.122-.697-.006-1.703.226-2.374.183-.528.043-.038-.103.147-.617.785-1.737.353-2.347-.159-2.265-1.901-2.819-6.105-2.917-8.907-.033-.944.075-2.115-.37-2.426-1.084-.76 2.269-2.606 1.22-2.42-3.229.569-6.424 4.133-7.74 7.02a114.83 114.83 0 0 0-1.655 3.771c-.27.651.01-.197.103-.39.383-.802.783-1.448 1.376-2.104 5.268-5.825 12.622-17.186 21.816-10.749"/><path stroke="#FFD424" stroke-linecap="round" stroke-width="2" d="M157.837 142.041c.787-.351-.98-5.752-1.112-6.305a155.497 155.497 0 0 1-2.228-11.176c-.139-.859.177-.126.349.196.725 1.349 1.57 2.598 2.48 3.83 1.639 2.22 3.284 4.546 5.067 6.652 1.244 1.468-2.342-3.062-3.336-4.71-.463-.768-1.656-4.113-1.218-1.632l.695 3.944.091.514c-.493-2.794-.522-5.687-.982-8.49-.547-3.341-2.601-13.288-2.013-9.954.511 2.893 1.195 5.723 1.773 8.593.316 1.566.57 4.267 1.627 5.57.318.392.359.212.804.259.44.046.718 1.444.84 1.756 1.079 2.767.266-2.368.04-3.1-.956-3.102-1.776-6.013-2.345-9.237-.49-2.781-1.529-5.491-2.759-8.019-.459-.942-.467.038-.371.495.434 2.075 1.453 4.29 2.367 6.198.087.181 1.03 1.952.754 2.086-1.024.499-3.87-4.615-4.172-5.149-1.523-2.693-2.655-5.603-4.181-8.284-1.082-1.9 1.316 4.195 2.327 6.134 1.165 2.236 2.423 4.421 3.593 6.654.038.073.176.278.136.205-.825-1.524-2.055-2.875-2.985-4.342-1.109-1.75-2.156-3.545-3.203-5.334-.316-.542-1.089-2.246-.919-1.642.31 1.102 1.132 2.172 1.749 3.099 1.514 2.272 3.17 4.445 4.704 6.702 1.125 1.656 2.17 3.363 3.265 5.038.169.258 1.021 1.171 1.044 1.534.041.63-.976-.814-1.375-1.304-2.112-2.589-4.083-5.298-6.151-7.922-1.3-1.65-2.582-3.337-4.035-4.858-.89-.932-1.062-.787-.482.271 2.097 3.827 5.08 7.131 7.111 11.017.188.358 2.017 3.992.435 2.787-3.977-3.028-6.522-8.145-9.009-12.358-.289-.489-1.236-1.861-1.091-1.311.403 1.53 1.539 3.099 2.328 4.429 2.609 4.403 6.083 8.521 8.313 13.125.208.428.349.733-.086.159-1.301-1.718-2.618-3.417-3.837-5.195-2.792-4.07-4.685-8.679-7.443-12.734-1.162-1.708 1.413 3.905 2.437 5.699 1.976 3.465 4.609 6.861 6.142 10.558.788 1.899-2.481-3.283-3.603-5.006a352.096 352.096 0 0 1-2.762-4.296c-.003-.006-.783-1.244-.776-.908.055 2.497 1.692 5.128 2.55 7.397.482 1.273.9 2.57 1.339 3.859.075.218.211.883.093.685-1.48-2.484-2.487-5.211-3.647-7.848-.156-.356-.536-1.141-.416-.17.203 1.637.562 3.267.848 4.891.289 1.639 1.682 6.318.756 4.935-.937-1.397-1.464-3.268-2.025-4.826-1.204-3.341-2.059-6.771-3.082-10.167-.06-.198-1.585-5.324-1.448-3.095.295 4.788 1.57 9.635 2.402 14.353.142.805 1.376 6.863.454 2.898-1.153-4.956-2.587-9.853-3.839-14.787-.82-3.231.355 3.415.411 3.708 1.687 8.923 4.256 17.643 6.151 26.522.243 1.138.737 2.582.666 3.777-.046.779-.914-1.277-1.238-1.987-3.254-7.123-5.26-14.723-6.616-22.416l.169.958c.811 4.601 1.661 9.196 2.434 13.804.264 1.576.071 2.485-.797.513-1.616-3.67-2.775-7.499-3.89-11.342-1.149-3.956 2.474 8.278 1.462 12.271-.179.703-.548-.262-.621-.435-.955-2.267-1.618-4.66-2.215-7.041-.223-.886-2.583-14.044-3.391-13.95-.435.051 1.637 10.508 1.765 11.144.534 2.646 1.119 5.28 1.6 7.937.203 1.121 1.104 4.305.426 3.39-1.141-1.538-1.709-3.984-2.231-5.749-1.325-4.485-2.218-9.085-3.07-13.677-.507-2.732-.979-5.469-1.461-8.205-.155-.876-.411-2.329-.101-.57 1.266 7.179 3.096 14.204 4.73 21.303a231.255 231.255 0 0 1 2.216 10.778c.172.955 1.091 3.489.633 4.485-.303.659-1.025-1.06-1.347-1.71-1.403-2.836-2.572-5.795-3.664-8.761a173.865 173.865 0 0 1-2.974-8.826c-.341-1.108-1.1-4.487-1.002-3.331.374 4.458 1.536 9.057 2.425 13.432.507 2.493 1.15 4.951 1.712 7.431.05.222.456 2.672.346 2.53-.888-1.14-1.331-3.014-1.78-4.325-1.289-3.77-2.369-7.609-3.395-11.458-.782-2.936-2.882-11.798-2.354-8.806 1.011 5.737 2.539 11.27 4.365 16.799.734 2.223 1.5 4.437 2.193 6.673.001.004.55 2.15.477 2.135-.466-.097-1.178-2.284-1.271-2.496a163.305 163.305 0 0 1-3.227-7.908c-.694-1.852-1.304-3.738-2.069-5.563-.677-1.617-.336-.121-.198.665.731 4.146 1.846 8.192 2.673 12.315.059.293 1.087 4.596.235 3.037-1.755-3.21-2.766-7.039-3.859-10.517-.158-.502-.364-1.798-.841-2.171-.083-.065-.018.212-.002.315.141.891.314 1.779.47 2.667.69 3.914 1.588 7.622 2.894 11.374.219.63.613 1.369.73 2.033.158.893-.668-1.684-.99-2.531-.514-1.351-1.058-2.695-1.679-4-.249-.523-.862-2.126-.789-1.55.447 3.502 2.426 6.951 3.835 10.134.488 1.103 1.953 4.4 1.35 3.356-1.246-2.16-2.931-4.308-4.606-6.147-.535-.587-2.132-2.209-1.603-.319.896 3.199 2.416 6.17 3.768 9.187.465 1.038 1.722 3.773.376.994-2.351-4.851-4.715-9.684-7.02-14.556-1.514-3.2-.8.255-.328 1.633.78 2.272 2.09 4.635 3.33 6.701 2.156 3.594-3.987-7.611-7.189-10.316-1.193-1.008.436 2.751.517 2.93.631 1.393 1.496 2.623 2.295 3.919.635 1.031.358.63.94 1.596.222.37 1.085 1.277.694 1.095-1.023-.477-6.76-5.563-3.585-1.087a35.157 35.157 0 0 0 5.652 6.235c.11.095 1.911 1.445 1.903 1.454-.485.613-5.99.564-1.743.508 1.869-.025 3.785.1 5.575.678.199.064 2.139.883 1.151 1.086-1.021.209-2.057.362-3.083.543-.104.018 2.266-.624 2.833-.743 2.78-.582 5.602-1.002 8.399-1.495 1.393-.246 3.552-.351 4.295-1.788 1.086-2.1 1.667-4.453 2.762-6.587 1.738-3.386 3.35-7.144 5.663-10.191 1.109-1.461.717.119.083.873-3.301 3.925-8.61 6.388-12.776 9.24-2.837 1.943-5.989 3.809-8.613 6.044-.096.081-.417.508-.077.214 1.018-.884 2.111-1.644 3.209-2.428 2.956-2.111 5.946-3.903 9.172-5.555 1.809-.925 1.959-.875-.215-.491-3.645.642-7.333 1.156-10.909 2.123-.142.039-1.299.398-.389.069 1.666-.602 3.191-1.63 4.751-2.456 1.941-1.027 4.121-2.011 5.943-3.238.407-.275-.986-.058-1.472.016-2.531.383-5.049.899-7.546 1.459-2.222.498-4.421 1.079-6.624 1.655-.756.198-2.962.908-2.286.518 4.661-2.689 9.619-4.997 14.453-7.36 2.178-1.064 8.609-4.38 6.635-2.974-.936.667-2.123 1.152-3.147 1.643-3.823 1.835-7.759 3.421-11.688 5.011-2.548 1.031-10.117 4.245-7.723 2.894 4.541-2.563 9.157-5.013 13.896-7.19 1.463-.672 5.371-3.194 7.185-2.613.368.118-.416.674-.728.902-1.478 1.075-3.171 1.849-4.779 2.704-.64.34-3.136 1.828-3.089 1.804 3.746-1.848 7.97-2.769 12.02-3.694.201-.046 4.484-.902 3.144-.039-4.015 2.587-8.519 4.275-12.404 7.127-.186.137-3.814 2.606-2.183 2.318 2.616-.461 5.153-1.395 7.791-1.861.405-.071 2.638-.65 1.193.105-2.44 1.275-5.095 2.055-7.418 3.57-.679.443-1.587 1.033-.173.804 2.073-.335 4.139-.73 6.207-1.094 1.84-.325-1.111 1.198-1.358 1.313-3.301 1.534-6.586 3.622-9.297 6.064-1.455 1.31 1.467-.182 1.828-.351 1.039-.488 4.38-1.345 3.249-1.146-1.099.194-2.146.376-3.18.804-1.396.579 2.967-.592 4.416-1.022 1.081-.32 3.394-1.462 4.532-1.257.362.065-2.265.85-2.627.936-.167.039-1.92.582-.986.417 1.165-.205 2.266-.657 3.441-.864 1.346-.238 1.865-.363.788.734-.936.954 1.45-2.268 2.381-3.226 1.089-1.121 2.195-2.228 3.277-3.342 1.379-1.419 3.438-2.336 4.583-3.972.999-1.427 2.111-2.789 2.692-4.47a14.73 14.73 0 0 1 1.823-3.543c.333-.475.47-.193.271.239-.543 1.182-.747 2.47-1.256 3.672-.816 1.926-1.608 3.393-2.979 5.036-1.321 1.583-2.364 3.479-3.827 4.927-.766.758-1.247 1.759-2.092 2.431-.553.44-.984.955-1.563 1.364-.256.18.518-.484.649-.702 1.504-2.484 3.253-4.651 5.238-6.837 1.642-1.809 2.913-3.799 4.409-5.689 1.129-1.425 2.28-2.864 2.797-4.602.239-.802.374-1.624.603-2.426.061-.213.513-1.562.371-1.469-.295.193-.32.598-.63.727-1.055.437-2.395-4.261-2.565-4.717-1.495-4.006-2.872-8.087-3.657-12.299-.257-1.378-.134-1.612.211-.181 1.377 5.702.902 12.096.344 17.867-.041.42-.087 3.754-.47 3.992-.45.278-2.264-7.735-2.347-8.192-.518-2.871-1.565-6.139-1.142-9.077.232-1.613.501-.8.492.357-.02 2.639.028 5.284-.02 7.922-.032 1.743.208 6.945-.095 5.228-.58-3.287-.9-6.597-.979-9.936-.048-2.069.821-8.236.557-6.184-.835 6.463-2.158 13.142-4.105 19.353-.454 1.446-.65-2.959-.652-3.207-.024-4.326.604-8.763 1.564-12.977.442-1.939-.288.941-.421 1.349-1.532 4.681-3.466 9.199-5.198 13.803-.233.62-.595 2.564-1.285 2.947-.737.411 0-1.701.185-2.524.937-4.169 2.297-8.495 4.057-12.399.273-.605.876-2.012 1.103-.567.355 2.259-.184 4.809-.151 7.1.014 1.022.042 2.039.024 3.06-.005.292-.03 1.075.165.859 1.253-1.385 1.488-3.898 2.42-5.524.054-.095 1.064-2.04 1.235-1.764.275.442.065 1.352.003 1.803-.296 2.158-.59 4.301-.806 6.471-.247 2.481.002 5.299-.542 7.728-.631 2.817 1.435-5.595 2.233-8.37.677-2.357 1.509-4.952 2.822-7.055.447-.716.316-.275.241.473-.289 2.895-1.38 5.746-1.903 8.612-.28 1.526-.509 3.062-.736 4.597-.025.167-.345 2.201-.275.879.193-3.622.939-7.277 1.642-10.828.503-2.542 1.411-5.079 1.79-7.633.347-2.339-.298 1.182-.285 1.797.017.748.009-2.623.011-2.865.011-1.596.04-3.19.159-4.782.002-.033.188-2.195.088-2.178-.17.03-.41 1.35-.436 1.423-.831 2.285-2.064 4.456-3.063 6.668-4.097 9.072-8.171 18.087-12.702 26.954-.407.797-2.237 5.156-2.265 2.175-.074-7.834 1.568-15.699 2.803-23.404.401-2.501.788-4.997 1.052-7.517.074-.706.42-1.9.254-2.622-.137-.591-.642 1.031-.927 1.567-1.658 3.111-3.244 6.262-5.064 9.284a80.753 80.753 0 0 1-5.326 7.797c-.939 1.211-1.937 2.581-3.305 3.347-.683.382-1.07.391-1.277-.42-.823-3.224-.877-6.782-.746-10.077.339-8.513 1.835-16.983 2.525-25.475.145-1.794.365-3.62.389-5.423.008-.566.087-1.572-.311-.547-4.192 10.797-9.562 21.068-13.228 32.087-.092.276-.346 1.712-.362 1.524-.072-.854.148-1.799.282-2.627.76-4.709 1.646-9.4 2.438-14.104 1.005-5.963 2.454-12.074 2.819-18.124.055-.928.024-.591-.17.016-.88 2.767-2.013 5.48-3.083 8.175-.657 1.657-11.187 28.527-11.361 28.465-1.454-.522-.216-8.023-.104-8.874.667-5.101 1.648-10.162 2.349-15.262.212-1.551-.143-.991-.76.076-2.346 4.058-3.84 8.787-5.713 13.078-1.232 2.824-2.672 5.761-3.483 8.747-.594 2.185-.075.15.044-.967.355-3.341.744-6.734.74-10.096 0-.542-.008-5.516-.333-2.862-.347 2.828-1.418 5.765-.911 8.637"/><path stroke="#171717" stroke-linecap="round" stroke-width="2" d="M122.686 167.28c.598-.233 1.15-1.046 1.597-1.458 1.748-1.61 3.57-3.133 5.274-4.792 1.93-1.879 7.112-8.091 5.225-6.167-1.084 1.103-1.702 3.162-2.417 4.509-1.385 2.61-2.514 5.359-3.82 8.01-.086.175-.931 2.209-.558 1.704 1.44-1.941 3.55-3.383 5.194-5.165 1.948-2.111 4.002-4.331 5.393-6.862.231-.419 1.003-1.841.378-.606-.589 1.162-1.188 2.383-1.575 3.627-.1.319-.825 2.9-.404 3.131 1.085.592 7.037-10.007 7.683-10.989.157-.238 1.415-2.788 1.087-1.687-.596 2.004-1.394 3.883-1.786 5.963-.342 1.814-1.238 4.011-1.198 5.845.015.671 1.155-1.179 1.338-1.44 3.972-5.674 7.553-11.116 9.953-17.661.075-.202.581-2.109.193-1.183-.628 1.501-.967 3.078-1.238 4.676-.252 1.49-.21 3.036-.307 4.539-.095 1.48.829-.11 1.161-.717 1.071-1.959 1.738-4.29 2.574-6.364 1.102-2.734 2.33-5.54 3.029-8.411.014-.055.302-1.635.445-1.56.253.134.149 1.001.115 1.198-.3 1.737-.496 3.416-.736 5.169a26.247 26.247 0 0 1-.947 4.209c-.436 1.407.122-.027.286-.577.431-1.448.469-2.995.981-4.408.887-2.453 1.843-5.035 2.443-7.574.661-2.792.05-5.686-.438-8.45"/><path stroke="#171717" stroke-linecap="round" stroke-width="2" d="M123.685 168.456c2.196-.387 4.31-1.332 6.35-2.199.784-.333 3.017-.765 3.558-1.538.598-.854-1.966.742-2.848 1.298-.33.208-2.97 1.765-2.875 2.302.044.253 4.259-1.194 4.429-1.258 2.808-1.057 5.517-2.482 8.448-3.196 1.21-.295-.939.156-1.203.203-.621.109-2.452.296-1.84.448.822.204 2.01-.571 2.669-.913 2.348-1.217 4.61-2.62 6.877-3.98.566-.34 2.24-.876 2.508-1.574.044-.117-.868.105-.9.114a13.88 13.88 0 0 0-3.157 1.353c-.372.221-1.135.625-1.316 1.063-.146.354.796-.028 1.129-.217 3.255-1.845 5.955-5.085 8.463-7.823.427-.467 1.744-1.827 1.347-1.335-.42.524-1.093.917-1.577 1.384-.707.68-2.684 2.333-2.474 3.522.066.378 2.697-3.062 2.835-3.276a478.52 478.52 0 0 0 3.514-5.501c.585-.933 1.068-1.996 1.74-2.871 1.044-1.361-2.192 2.642-3.218 4.016a44.59 44.59 0 0 0-2.26 3.281c-.036.057-.668 1.391-.64 1.386.339-.059.83-1.036.98-1.26.769-1.146 1.426-2.354 2.116-3.548 1.254-2.168 2.487-4.308 3.352-6.666.4-1.09.265-2.363.355-3.502.121-1.527.372-3.049.467-4.575.126-2.042.544-4.049.676-6.097.067-1.045.531-2.402.348-3.439l-.653-3.705-.381-2.161c-.087-.493.164.031.198.221.369 2.093.833 5.067 1.982 6.823"/><path stroke="#171717" stroke-linecap="round" stroke-width="2" d="m127.922 163.269-13.707 2.416c-.326.058-1.835.324-.762.135 1.555-.274 2.974-.048 4.544.06 2.446.167 4.937.179 7.383.066 2.846-.132-1.926.618-2.556.729l-4.926.868c1.669-.294 3.288-.599 4.984-.321 4.009.656-8.106-.6-12.137-1.102-.222-.028-3.48-.627-3.378-.772.439-.627 3.412.11 3.906.172 3.632.462 7.312.756 10.954 1.146.857.092 3.371.432 2.521.581"/><path stroke="#171717" stroke-width="1.5" d="M162.367 122.597c3.843 21.796-10.137 42.479-31.225 46.197-21.088 3.719-41.298-10.936-45.141-32.731-3.844-21.796 8.211-53.395 29.299-57.113 21.088-3.719 43.224 21.852 47.067 43.647Z"/><path stroke="#171717" stroke-linecap="round" stroke-width="1.5" d="M84.015 131.145c-.33-1.872-.52-3.535.307-5.336.355-.772.487-1.954.658-2.805.2-.992.54-1.961.828-2.93a76.998 76.998 0 0 0 1.693-6.733c.41-2.037.706-4.173 1.513-6.124 1.584-3.829 2.817-7.85 5.152-11.323 1.068-1.587 2.272-3.011 3.374-4.585.855-1.22 1.685-2.436 2.683-3.546 1.199-1.334 2.67-2.413 3.862-3.754 1.518-1.708 3.222-2.98 5.316-3.914 1.835-.818 4.312-.856 6.296-1.206 1.91-.337 3.728-.71 5.68-.521 2.168.21 3.633.992 5.538 2 3.106 1.642 6.242 3.305 9.143 5.259 1.447.974 3.051 1.82 4.518 2.746.692.437 1.29.992 2.047 1.325.531.233 1.734.636.43.5M143.613 88.698c.203 1.15 1.987 2.44 2.706 3.364.835 1.073 1.845 2.064 2.535 3.245 1.215 2.077 2.99 3.834 4.342 5.807 1.324 1.93 2.615 3.866 3.65 5.993.566 1.164 1.168 2.247 1.582 3.466.323.951.587 2.055 1.042 2.943a23.4 23.4 0 0 1 2.122 6.347c.374 2.123 1.135 4.259 1.513 6.402.172.976.592 2.176.548 3.169-.03.68-.488 1.526-.374 2.178"/><path stroke="#171717" stroke-linecap="round" stroke-width="1.5" d="M163.264 129.352c.708 4.011-.265 7.578-1.447 11.394-1.371 4.424-2.247 8.954-5.658 12.329-1.343 1.33-2.502 2.849-3.879 4.141-.548.514-1.29 1.324-1.718 1.936-.484.69-1.187 1.111-1.709 1.742-.531.64-1.622 1.092-2.318 1.56-.704.474-1.488.792-2.231 1.205-1.476.821-2.95 1.509-4.453 2.279"/><path stroke="#171717" stroke-linecap="round" stroke-width="1.5" d="m140.687 165.79-2.566.453c-.838.147-2.22.383-2.973.812-1.474.839-3.427.828-4.948 1.587-1.077.537-2.627.805-3.812 1.014-.962.169-1.867.376-2.837.308-1.04-.074-2.006-.354-2.988-.668-.879-.282-1.891-.572-2.745-.925-1.747-.722-3.804-1.068-5.679-1.346-.896-.133-2.188-.524-3.031-.852-1.17-.456-2.328-.78-3.449-1.409-1.914-1.073-3.989-2.778-5.323-4.535-1.012-1.332-2.463-2.196-3.577-3.402-.23-.25-1.776-1.416-1.693-1.43"/><path stroke="#171717" stroke-linecap="round" stroke-width="1.5" d="M96.239 156.59c-.703-.618-1.248-1.797-1.838-2.557-.912-1.173-2.066-2.262-3.043-3.4-.938-1.092-1.99-2.267-2.74-3.497-.773-1.268-1.3-2.944-1.822-4.341-.874-2.341-1.318-4.589-1.73-7.089-.371-2.258-.34-4.617-.63-6.899-.38-3.005-.19-6.218.293-9.175"/></svg>