<svg xmlns="http://www.w3.org/2000/svg" width="411" height="269" fill="none"><path fill="#fff" d="M134.269 268.062C60.495 268.062.479 208.045.479 134.27S60.495.479 134.269.479c49.487 0 94.462 27.194 117.701 70.242l118.242-36.372a31.593 31.593 0 0 1 9.278-1.403 31.454 31.454 0 0 1 15.212 3.955c7.538 4.175 12.929 11.07 15.16 19.403 2.231 8.332 1.014 16.986-3.431 24.372-4.445 7.386-11.527 12.524-19.927 14.45l-118.985 27.262c.355 3.972.541 7.944.541 11.899 0 73.775-60.016 133.792-133.791 133.792v-.017Z"/><path stroke="#C6C6C8" stroke-linecap="round" stroke-width="4" d="M36.196 106.155c.472 4.722 1.557 9.469 2.397 14.151.301 1.677.647 6.307 1.121 2.513.857-6.855 4.81-14.538 7.463-20.84 1.213-2.882-.628-6.66.541-9.666 1.38-3.55-1.302 4.555-1.547 5.142-4.061 9.748-5.61 20.516-9.627 30.159-1.612 3.869.563-8.438 1.779-12.45 2.238-7.389 5.759-14.912 10.246-21.227.552-.778.85-2.053.85-.541v8.428c0 3.024-.663 9.097.155 2.475.977-7.917 4.61-15.656 7.5-23.044 1.712-4.372 1.38.101 1.006 2.397-.747 4.59-2.223 18.185-3.054 13.61-1.184-6.51 2.722-14.647 5.528-20.26.722-1.444 4.558-8.425 3.055-2.745-1.085 4.097-3.75 8.532-3.75 12.798 0 1.862-.02-3.77.463-5.568 1.18-4.38 3.914-8.568 5.955-12.605 1.183-2.339 4.87-10.42 3.866-2.938-.72 5.363-3.133 10.406-5.103 15.388-.427 1.08-2.287 8.594-3.635 8.893-.32.071 1.295-4.592 1.353-4.717 2.192-4.712 5.123-9.177 7.578-13.764 2.194-4.1 4.965-7.853 7.54-11.716.05-.074 1.906-2.716 2.126-2.165.653 1.631-1.56 5.514-2.01 6.844-.726 2.144-1.039 4.506-2.436 6.302-1.097 1.41-2.474 6.543-2.474 4.756 0-7.427 7.002-14.58 11.986-19.565 1.016-1.016 2.32-5.071 2.32-3.634 0 2.818-2.844 7.576-3.867 10.285-.666 1.762-1.696 3.89-.657.773 1.647-4.941 6.871-10.421 11.019-13.416 2.206-1.594 2.455-2.268.773.734-2.201 3.931-7.202 16.517-5.529 12.334 2.642-6.603 7.083-10.562 11.947-15.427 4.839-4.839-.614 2.93-1.817 5.336-1.7 3.4.463-.149 1.663-1.315 2.921-2.84 6.197-6.09 9.589-8.351 2.827-1.886-.721 2.326-1.083 2.938-1.473 2.492-3.634 7.888-3.634 7.888s3.231-3.877 5.258-5.336c3.727-2.684 7.071-5.519 11.019-7.888.623-.374-.958 1.107-1.314 1.74-.754 1.34-1.241 2.69-2.398 3.75-1.865 1.71-1.096 1.845.774.349 3.565-2.852 8.119-6.82 12.256-8.7 3.947-1.794 1.027.868.155 2.475-.309.569-2.921 5.087-1.933 4.717 2.821-1.058 4.97-4.121 8.042-5.259 5.278-1.955-.602 3.423-1.276 6.457-.43 1.936 1.286-.569 2.474-1.392 2.367-1.638 4.851-3.243 7.656-3.866 1.785-.397-2.572 3.422-2.436 5.606.032.513 5.213-2.297 6.109-2.629 1.361-.504 2.896-1.387 4.33-1.546 2.146-.239.947.445-.348 1.74-.524.524-3.045 3.869-.657 2.783 2.08-.945 4.421-1.319 6.573-2.087 1.098-.392 3.874-1.701 3.441-.62-.163.408-5.007 6.468-.657 4.293 3.004-1.502 5.899-1.58 9.047-2.63"/><path fill="#fff" stroke="#171717" stroke-width="2.5" d="M373.297 48.363c9.038-2.78 18.577 2.498 21.025 11.63 2.447 9.134-3.176 18.474-12.392 20.586l-132.158 30.28-2.535-8.973-2.535-6.76-2.535-6.434 131.13-40.33Z"/><circle cx="8.655" cy="8.655" r="8.655" stroke="#171717" stroke-width="2.5" transform="rotate(75 155.346 275.894)"/><ellipse cx="133.002" cy="134.148" stroke="#171717" stroke-width="2.5" rx="119" ry="119.001"/><ellipse cx="133.001" cy="134.148" stroke="#171717" stroke-width="2.5" rx="97.364" ry="97.365"/><path stroke="#171717" stroke-linecap="round" stroke-width="1.5" d="M243.617 89.092c4.581 0 8.745-.48 13.186-1.49 1.279-.29 2.368-1.163 3.582-1.648 1.076-.431 2.045-.722 3.059-1.268 1.216-.656 2.683-.946 3.978-1.316 6.055-1.73 12.083-4.563 18.003-6.83 11.632-4.455 23.674-7.942 35.438-11.982 5.247-1.802 10.813-2.81 16.165-4.28 5.109-1.402 10.138-2.993 15.278-4.278 6.826-1.707 13.807-4.054 20.825-4.834 5.449-.606 11.895-1.193 16.656 1.981 4.354 2.903 3.598 9.022 3.598 13.598 0 3.667-.731 7.474-3.645 9.858-.728.595-2.519.425-3.423.57-1.359.22-2.918.753-4.216 1.22-1.877.677-3.615 1.76-5.595 2.156-3.547.71-7.11 2.306-10.571 3.344-4.153 1.246-8.53 2.126-12.504 3.915-2.613 1.176-6.015 1.957-8.828 2.488-3.185.601-6.307 1.617-9.54 2.155-3.688.615-7.44 1.298-11.142 1.776-3.472.448-6.754 1.514-10.19 2.06-3.402.54-6.85 2.047-10.191 2.932-3.239.857-6.208 1.991-9.572 2.425-4.245.547-8.411 1.557-12.695 1.933-4.71.414-9.297 1.255-13.978 1.775-3.867.43-8.022 1.768-11.76 2.853-1.591.462-3.722 1.712-5.357 1.712M38.078 113.456c0-2.306-.079-4.581.26-6.861.203-1.376 1.049-2.74 1.812-3.884.837-1.257 1.337-2.667 2.129-3.956 1.216-1.982 2.318-4.05 3.567-6.013 1.145-1.8 2.78-3.536 3.625-5.495.776-1.797 2.17-3.621 3.38-5.135 2.828-3.535 5.295-7.386 8.272-10.803a111.25 111.25 0 0 1 8.17-8.473c3.085-2.872 6.59-5.127 9.955-7.639 4.825-3.601 9.793-6.864 14.96-9.896 2.962-1.74 6.556-2.459 9.897-3.194 4.122-.907 8.166-1.875 12.371-2.388 7.447-.908 14.883-1.093 22.382-1.093"/><path stroke="#171717" stroke-linecap="round" stroke-width="1.5" d="M136.225 38.278c3.416 0 6.839-.063 10.255 0 2.845.053 5.67.796 8.454 1.278 1.365.236 2.709.75 4.034 1.155 2.059.63 4.013 1.493 6.052 2.14 3.598 1.143 6.716 3.614 10.178 5.097 1.875.804 3.597 1.986 5.305 3.088a123.88 123.88 0 0 0 4.95 3.041 60.632 60.632 0 0 1 8.285 5.79c1.174.975 2.546 1.73 3.618 2.803a185.138 185.138 0 0 1 4.066 4.188c2.484 2.648 6.148 4.025 8.107 7.16.303.486.61.96.693 1.54.018.13.146.685.146.277"/><path stroke="#171717" stroke-linecap="round" stroke-width="1.5" d="M209.672 75.281c.071.64 1.066 1.593 1.417 2.14.778 1.218 1.731 2.326 2.463 3.573 1.128 1.92 2.213 3.858 3.496 5.682 3.006 4.276 5.02 9.543 6.513 14.521.832 2.774 1.118 5.648 1.771 8.454.505 2.169.667 4.393 1.247 6.544.527 1.953.987 3.938 1.525 5.898.167.61.237 1.26.523 1.832.156.311.222.476.031 0"/><path stroke="#171717" stroke-linecap="round" stroke-width="1.5" d="M228.937 121.846c0 1.687-.08 3.399.208 5.066.322 1.868.253 3.83.7 5.682.486 2.012.598 4.139.863 6.19.258 2.005.169 4.046.169 6.067 0 2.354-.663 4.64-1.178 6.93-.562 2.498-1.149 5.048-1.94 7.483-.888 2.732-1.953 5.387-3.01 8.054-.827 2.085-1.777 4.066-2.403 6.228-.212.735-.379 1.501-.616 2.21M148.969 229.8c2.65 0 5.389.333 7.885-.575 1.619-.589 3.333-1.344 5.043-1.724 1.556-.345 3.553-1.477 5.044-2.154 1.213-.552 2.857-.511 4.006-1.15 1.857-1.031 3.974-1.745 5.89-2.729 2.249-1.155 4.43-2.353 6.544-3.735 1.214-.794 2.539-2.14 3.862-2.65 1.759-.676 4.046-2.105 5.395-3.383 1.25-1.185 2.821-1.987 4.166-3.033 1.63-1.268 2.839-2.823 4.294-4.278 1.652-1.652 3.629-3.641 4.9-5.618 1.208-1.879 3.034-3.355 4.293-5.187 2.231-3.245 4.365-6.617 7.055-9.465 2.161-2.289 3.735-4.789 3.735-8.045"/><path stroke="#171717" stroke-linecap="round" stroke-width="1.5" d="M73.695 212.848c1.47.147 3.332 2.373 4.47 3.304 1.166.954 2.557 1.691 3.862 2.378 1.585.834 3.455 1.1 5.028 1.947 1.635.881 3.345 1.843 5.091 2.49 1.502.556 2.933 1.421 4.406 2.091 1.464.666 3.225.917 4.724 1.516 1.875.75 4.334 1.295 6.305 1.788 1.881.47 3.761 1.152 5.618 1.724 3.804 1.17 7.651 1.724 11.62 1.724 3.777 0 7.65.287 11.364.287 3.588 0 7.223-.287 10.758-.287 3.018 0 5.853-2.012 8.922-2.012"/><path stroke="#171717" stroke-linecap="round" stroke-width="1.5" d="M74.556 213.137c-2.082-2.082-4.057-4.139-6.097-6.257-1.505-1.563-2.728-3.396-4.102-5.075-.536-.655-1.188-.776-1.644-1.596-.421-.758-1.46-1.277-2.011-2.012-3.182-4.242-6.67-8.051-8.491-13.152-.664-1.857-1.829-3.654-2.363-5.522-.38-1.331-.946-3.078-1.5-4.31-2.6-5.777-4.638-11.758-6.544-17.812-.997-3.168-1.843-6.306-2.299-9.609-.361-2.623-1.36-5.277-1.436-7.917-.105-3.66-.287-7.391-.287-10.981 0-2.84-.288-5.68-.288-8.539 0-1.275-.268-2.927.288-4.039M14.438 123.316c0-4.598.92-9.414 3.002-13.579 1.827-3.653 3.72-7.812 4.628-11.808.409-1.798 1.348-3.515 2.031-5.223.836-2.09 1.437-4.41 2.611-6.34 1.15-1.89 1.821-4.15 2.815-6.136 1.242-2.484 2.244-5.088 3.713-7.457 1.92-3.093 3.477-6.632 5.876-9.385 2.155-2.476 4.1-5.08 6.397-7.443 1.234-1.268 2.16-2.87 3.395-4.178.816-.864 1.578-1.837 2.364-2.741.503-.578 1.511-1.912 2.205-2.22.917-.407 1.49-1.618 2.075-2.35.855-1.068 1.673-2.312 2.64-3.279 1.814-1.814 3.68-3.49 6.064-4.555"/><path stroke="#171717" stroke-linecap="round" stroke-width="1.5" d="M61.174 38.71c1.981 0 3.792-1.03 5.382-2.09 2.404-1.603 4.958-3.055 7.413-4.555 3.588-2.192 7.248-4.306 11.112-6.006 4.46-1.962 8.826-5.18 13.68-6.15 4.852-.971 9.552-2.495 14.507-3.134 3.606-.466 7.153-1.18 10.779-1.51 2.464-.223 4.904-.451 7.369-.637 2.276-.172 4.582-.04 6.847-.261 6.997-.683 14.706-.632 21.296 2.088 3.412 1.409 6.904 2.578 10.3 4.033 3.55 1.522 7.042 3.343 10.445 5.165"/><path stroke="#171717" stroke-linecap="round" stroke-width="1.5" d="M172.156 20.952c1.481.165 2.532 1.693 3.917 2.09 1.617.461 3.2 1.839 4.7 2.61 4.785 2.46 10.062 4.118 14.681 6.848 10.584 6.254 20.466 14.024 28.463 23.443 2.211 2.605 4.494 5.146 6.455 7.964 2.065 2.968 3.353 6.234 5.237 9.27 2.959 4.767 4.565 10.589 6.325 15.871.417 1.25.889 2.654 1.233 3.859.257.896.959 2.084 1.059 2.988.15 1.35 1.251 2.692 1.553 4.048.161.725.467 1.559.798 2.219"/><path stroke="#171717" stroke-linecap="round" stroke-width="1.5" d="M245.01 97.725c0 4.927 2.631 9.65 4.584 14.115 2.4 5.485 2.803 11.843 3.569 17.684 1.042 7.952.75 16.613-.711 24.502-.346 1.869-.444 4.093-1.233 5.847-.797 1.771-1.668 3.48-2.539 5.222-1.558 3.117-2.566 6.029-3.409 9.401"/><path stroke="#171717" stroke-linecap="round" stroke-width="1.5" d="M118.867 252.753h16.385c4.491 0 8.389-.797 12.785-1.611 6.329-1.172 12.976-1.506 19.148-3.221 3.343-.928 6.477-2.154 9.644-3.579 3.283-1.477 6.712-2.513 9.763-4.474 5.475-3.52 11.585-6.548 16.384-11.095 1.742-1.65 3.958-3.022 5.886-4.454 3.951-2.936 7.964-6.372 11.075-10.201 1.82-2.239 3.637-4.464 5.23-6.9 1.791-2.74 4.241-5.079 5.925-7.834 4.168-6.82 8.393-13.119 11.612-20.361.942-2.119 1.51-4.569 2.148-6.801.583-2.042 2.505-4.035 2.505-6.084M17.939 108.871c0 4.383-1.833 8.104-2.486 12.348-.588 3.823-1.094 7.326-1.094 11.274 0 6.631 2.513 12.774 3.242 19.328.535 4.822 1.655 9.629 2.922 14.316.832 3.078 2.19 6.009 3.222 9.028 1.515 4.434 2.784 8.839 4.573 13.183 2.859 6.943 7.376 11.991 12.447 17.438 1.885 2.024 2.902 4.798 4.752 6.88.797.896 1.431 1.816 2.128 2.784.3.416 1.761.795.716.795"/><path stroke="#171717" stroke-linecap="round" stroke-width="1.5" d="M45.14 214.099c2.494 2.244 4.834 5.151 7.676 6.959 4.26 2.711 8.19 5.927 12.368 8.789 4.764 3.264 9.514 6.334 14.495 9.286 3.874 2.295 7.995 3.803 11.99 5.746 3.222 1.568 6.795 2.483 10.022 4.096 3.343 1.672 7.85 1.496 11.453 2.347 5.302 1.252 10.728 1.927 16.106 2.525 1.592.177 11.94.239 11.811-.02M372.41 56.242c-.402 0-.816-.03-1.216.01-.865.086-1.656.603-2.362 1.068-.586.386-1.141.883-1.638 1.38-.319.318-.717.616-.819 1.077-.509 2.29-.259 4.747-.259 7.09 0 1.103.214 2.086.561 3.127.332.998 1.243 1.605 2.15 2.074 1.471.76 2.837 1.598 4.484 1.978 1.655.382 3.086.164 4.531-.69 1.698-1.003 2.935-2.237 3.899-3.942.584-1.032.886-2.28 1.145-3.43.286-1.27.439-2.887-.043-4.128-.432-1.11-1.15-2.179-1.983-3.027-.857-.873-2.004-1.94-3.19-2.328-.631-.207-1.251-.45-1.897-.604-.667-.16-1.389-.086-2.07-.086-.516 0-1.13-.094-1.638.019-.276.061-.579.153-.862.153"/><g filter="url(#a)"><path fill="#fff" stroke="#fff" stroke-width="8" d="M123.41 172.216c23.688 1.656 44.053-16.826 45.742-40.982.837-11.961-2.86-25.83-9.526-36.927-6.618-11.017-16.75-20.203-29.294-21.08-12.544-.877-23.856 6.81-31.943 16.798-8.145 10.062-13.736 23.28-14.573 35.241-1.689 24.157 15.906 45.293 39.594 46.95Z"/><path stroke="#FFD424" stroke-linecap="round" stroke-width="3" d="M88.16 132.001c2.297 2.41 4.938 4.516 7.346 6.814 3.546 3.384 6.927 6.961 10.021 10.763.514.632 1.056 1.235 1.58 1.857.041.048.385.693.455.698.482.033-.454-.855-.722-1.257-1.4-2.104-2.898-4.138-4.278-6.257-3.032-4.655-5.647-9.461-7.412-14.74-.8-2.393-1.434-4.833-2.213-7.229-.398-1.224.565.832.752 1.088 6.483 8.863 14.782 16.166 22.408 23.996 3.246 3.334 6.217 6.864 9.036 10.56.034.044.726 1.047.301.453-1.292-1.804-2.565-3.62-3.841-5.435-6.432-9.146-13.063-18.15-19.117-27.556-2.299-3.573-4.722-7.189-6.359-11.128-.065-.156-.169-.296-.22-.456-.27-.839.979 1.466 1.533 2.15 9.047 11.177 19.904 20.719 30.866 29.952 3.603 3.035 7.157 6.141 10.831 9.092.104.084.373.35.335.222-.117-.395-1.216-1.282-1.4-1.467-2.983-2.985-5.785-6.139-8.547-9.328-8.211-9.48-16.05-19.36-23.199-29.668-2.197-3.167-8.541-4.663-10.133-8.19-.032-.07-.173-.245-.15-.173.06.19.34.591.402.676 1.228 1.712 6.732 1.615 8.125 3.19 6.505 7.352 13.702 14.093 20.927 20.725 6.277 5.761 12.64 11.43 19.129 16.953 1.287 1.096 2.576 2.19 3.826 3.328 1.592 1.449-.358-.235-.768-.603-8.54-7.667-16.513-15.845-23.11-25.269a132.33 132.33 0 0 1-8.831-14.533c-.123-.235-1.14-2.068-.895-1.745.928 1.222 1.981 2.365 3.014 3.496 4.995 5.465 10.273 10.705 15.723 15.716 6.961 6.4 14.381 12.325 21.767 18.227.157.126 1.406 1.305 1.739 1.13.171-.09-.129-.372-.251-.522-.996-1.22-2.189-2.324-3.297-3.434-10.053-10.078-19.766-20.355-28.042-31.987-3.535-4.969-7.068-10.295-9.48-15.928-.107-.251-1.055-2.294-.805-1.875.974 1.634 2.287 3.152 3.495 4.601 4.792 5.748 10.042 11.123 15.497 16.241a260.941 260.941 0 0 0 19.577 16.598c.587.45 2.136 1.922 1.839 1.244-.491-1.12-1.452-2.299-2.16-3.22-5.629-7.323-11.806-14.251-17.954-21.138-5.454-6.11-10.913-12.182-15.551-18.944-.555-.81-1.159-1.588-1.564-2.486-.027-.061-.337-.609-.171-.516 1.285.718 2.541 1.87 3.697 2.734 5.78 4.319 11.514 8.698 17.299 13.009a734.597 734.597 0 0 0 19.281 13.877c.38.265 1.292 1.196 1.172.748-.319-1.188-1.986-2.669-2.722-3.547-5.573-6.641-11.591-12.902-16.689-19.933a57.412 57.412 0 0 1-3.786-5.972c-.582-1.056-1.229-2.123-1.551-3.294-.012-.041-.167-.577-.105-.44.577 1.259 2.035 2.392 2.983 3.305 6.19 5.964 12.734 11.512 19.737 16.492a230.822 230.822 0 0 1 5.028 3.655c.417.315.965.541 1.351.887 1.204 1.08-2.314-2.265-3.404-3.461-3.541-3.886-6.891-7.882-9.931-12.179-1.514-2.14-2.99-4.212-4.84-6.08-.324-.328-.815-.925-1.265-1.088-.721-.262-1.616-.407-2.368-.625-2.118-.615-4.265-1.01-6.442-1.332-1.129-.168-2.401-.14-3.413-.617-.63-.297-1.124-.707-1.647-1.16-.088-.076 2.461.012 2.911.078 2.422.358 4.671 1.425 7.134 1.597.552.039-.42-.496-.66-.73-.955-.928-2.09-1.828-3.287-2.426-.363-.182-4.613-1.473-4.641-1.072-.02.284.36.664.499.845a162.253 162.253 0 0 0 5.134 6.38c7.831 9.26 15.669 18.519 23.416 27.848 2.194 2.641 4.458 5.264 6.514 8.016.814 1.089-1.127-1.115-1.194-1.191-3.651-4.088-7.345-8.052-10.671-12.42a911.227 911.227 0 0 1-11.537-15.468c-1.786-2.452-3.672-4.774-6.049-6.679-.517-.413-1.343-.94-2.037-.988-.481-.034 1.206 3.39 1.219 3.415 2.589 4.808 6.123 9.17 9.463 13.461 3.63 4.662 7.45 9.161 11.258 13.676 1.326 1.573 2.655 3.143 3.962 4.732.591.719 1.379 1.456 1.858 2.263.348.586-.988-.939-1.447-1.442-2.799-3.069-5.5-6.23-8.2-9.385-5.295-6.185-10.547-12.415-15.971-18.488-2.445-2.737-5.075-5.44-7.897-7.798-.26-.217-1.352-1.286-1.769-1.212-.37.065.264.704.449 1.03 1.238 2.17 2.572 4.285 3.872 6.418 3.884 6.375 7.382 13 11.462 19.253.974 1.493 1.932 2.975 2.825 4.518.516.892.613.981-.183-.085-5.104-6.835-10.234-13.668-14.71-20.938-1.69-2.745-3.223-5.586-4.945-8.311-.977-1.546-1.972-3.36-3.313-4.633-.337-.32-1.113-.942-1.623-.978-.129-.009-.221 1.01-.249 1.108-.617 2.185-.146 4.35.842 6.368.722 1.475 1.916 3.397 2.785 4.713 2.857 4.332 5.952 8.524 9.125 12.627 5.549 7.173 11.582 13.913 17.58 20.707 3.852 4.364 7.971 8.672 11.337 13.438.25.354 1.089 1.306.716 1.086-.626-.37-1.318-1.651-1.712-2.163-5.112-6.644-10.032-13.384-14.376-20.564-4.07-6.726-7.434-13.873-11.616-20.523-.683-1.086-1.446-2.124-2.077-3.242-.264-.467-.465-1.113-.878-1.483-.203-.182.26.481.429.696 1.794 2.284 3.572 4.581 5.389 6.848 6.164 7.688 12.299 15.606 19.285 22.581.942.941 1.427 2.179 1.931 3.393.026.062.54 1.353.302 1.227-1.611-.849-3.205-2.804-4.511-3.969-6.214-5.545-12.356-11.165-18.385-16.911-6.512-6.207-12.719-12.675-19.035-19.071-.496-.503-2.219-2.66-3.185-2.455-.176.037.178.457.233.53.69.91 1.171 1.998 1.8 2.951 2.877 4.357 6.198 8.445 9.468 12.507 5.397 6.705 11.056 13.195 16.095 20.18.935 1.297 1.899 2.579 2.683 3.977.172.307.541.766.596 1.13.055.366-1.217-1.254-1.301-1.342-8.226-8.567-17.052-16.57-25.069-25.334-3.948-4.317-7.504-9.286-12.246-12.791-.29-.214.033.747.214 1.059 4.793 8.281 10.88 15.676 16.567 23.336 4.371 5.886 8.795 11.949 11.418 18.853.937 2.467 1.445 5.039 2.264 7.521.428 1.298-1.381-1.29-1.511-1.438-7.749-8.838-16.02-17.204-23.796-26.019-3.521-3.991-6.893-8.181-9.667-12.737-.642-1.054-1.171-2.305-1.987-3.244-.106-.122.17.273.25.413 1.099 1.928 2.138 3.888 3.267 5.8 5.998 10.166 12.72 19.826 19.656 29.367 3.129 4.305 6.558 8.588 9.238 13.201.286.493.486 1.018.749 1.52.282.54-.785-.933-1.171-1.405-6.629-8.114-13.043-16.31-19.268-24.74-3.11-4.211-10.158-6.889-13.431-10.977-.342-.427-1.335-1.607-1.338-.427-.011 3.29 5.334 5.112 6.225 8.214 2.076 7.229 4.722 14.278 7.44 21.285 2.352 6.062 4.72 12.191 7.615 18.021.106.213 1.247 2.052.413 1.559-2.472-1.46-4.494-3.772-6.461-5.816-4.279-4.448-8.317-9.133-12.366-13.79-1.271-1.462-2.474-3.12-4.018-4.313-.88-.681.587 3.063.61 3.121 3.963 10.32 10.778 19.188 15.964 28.874 1.246 2.328-2.341-.66-2.768-.968-3.943-2.841-7.546-5.961-11.294-9.034-1.853-1.519-3.748-3.012-5.333-4.819-.61-.695-1.15-1.438-1.73-2.156-.202-.248-.866-.518-.625-.727.178-.155 3.43 2.576 3.574 2.689a154.357 154.357 0 0 1 12.955 11.292c.957.935 3.573 3.983 2.68 2.987-3.513-3.918-6.761-8.066-10.154-12.087-2.09-2.478-4.208-4.965-6.504-7.259-.687-.687-1.32-1.563-2.139-2.103-.861-.567.419.214.67.344 5.531 2.876 10.959 5.994 16.051 9.601 5.317 3.766 10.514 7.727 15.789 11.554.833.604 1.615 1.339 2.518 1.841.064.036.269.199.242.143-.139-.287-.414-.498-.634-.719-1.335-1.344-2.52-2.831-3.828-4.201-5.769-6.04-12.171-11.489-18.374-17.072-5.074-4.567-10.106-8.983-13.997-14.66-1.765-2.576-3.128-5.353-4.638-8.074-.36-.649-.111.128.142.415 3.376 3.824 7.643 7.055 11.557 10.295 4.727 3.913 9.428 7.815 14.049 11.855a229.712 229.712 0 0 0 9.272 7.714c2.571 2.021 5.707 3.677 8.717 4.957.704.299-.422-.929-.471-.996-5.451-7.475-11.212-14.775-17.424-21.632-5.151-5.685-10.58-11.148-15.919-16.657-1.556-1.605-3.091-3.222-4.495-4.959-.557-.688.535.433.628.53 1.31 1.356 2.772 2.566 4.102 3.905 3.83 3.857 7.368 7.994 11.08 11.963 9.999 10.689 20.9 20.55 31.58 30.551.521.487.994 1.082 1.589 1.479.325.218.702.27 1.023.558.404.362.86.665 1.26 1.024 1.803 1.616-2.765-3.98-4.288-5.862-7.146-8.835-15.373-16.671-23.384-24.704-2.845-2.852-5.676-5.718-8.528-8.562-1.157-1.153-2.37-2.26-3.427-3.507-.363-.427-1.593-1.879-.198-.779 7.084 5.588 14.415 10.746 21.723 16.028 4.247 3.07 7.965 6.638 11.837 10.144 2.689 2.434 5.498 4.593 8.373 6.787 1.837 1.401-1.081-1.874-1.267-2.087-7.843-9.023-16.136-17.641-23.813-26.813-5.67-6.775-11.308-13.757-15.916-21.319a79.343 79.343 0 0 1-1.814-3.142c-.379-.691.265-.037.458.14 5.991 5.497 12.212 10.773 18.469 15.962 7.203 5.974 14.474 11.944 22.017 17.489a242.218 242.218 0 0 0 8.879 6.237c.446.298 1.347 1.264 1.907 1.303.139.01.225.025.1-.137-1.41-1.816-3.576-3.243-5.336-4.657-10.693-8.591-21.505-17.022-30.828-27.141-4.071-4.418-7.442-9.331-11.295-13.913-.473-.562-.961-1.102-1.365-1.716-.297-.45.793.728 1.183 1.1 8.474 8.087 17.402 15.628 26.668 22.791 6.951 5.374 13.94 10.679 20.539 16.486 1.725 1.518 3.589 3.092 5.011 4.913.186.238.769.925.554.714-1.277-1.251-2.756-2.318-4.143-3.44-4.162-3.366-8.298-6.772-12.224-10.413-.19-.177-2.622-2.402-2.621-2.164.005.72.45 1.461.793 2.054 1.706 2.95 3.837 5.712 6.006 8.331 2.085 2.519 4.366 4.869 6.7 7.156 1.079 1.058 2.173 2.162 3.405 3.047.128.092 1.262.719 1.014.683-.384-.056-.739-.277-1.085-.436-1.538-.708-3.073-1.407-4.583-2.175-2.969-1.51-5.969-2.982-8.918-4.53-.047-.024-.976-.637-.777-.207.454.982 1.376 1.831 2.066 2.638 2.353 2.752 4.653 5.621 6.527 8.728.153.254 1.818 3.144 1.154 2.933-2.977-.942-5.595-3.192-7.977-5.112-1.993-1.606-3.617-3.567-5.54-5.211-6.381-5.456 7.017 7.473 13.112 13.246.138.131 2.589 2.535 1.521 2.447-2.341-.193-4.647-1.832-6.493-3.172-2.816-2.047-.091-.267-3.117-1.981-3.452-1.956-6.701-4.181-10.086-6.232-.147-.089-.638-.374-.473.075.489 1.333 1.665 2.66 2.442 3.825 2.641 3.962 5.577 7.698 8.373 11.548.085.117 2.077 2.769 1.906 2.852-.92.443-3.713-1.767-4.289-2.11-2.714-1.613-5.342-3.381-8.13-4.861-1.021-.542-1.29-.598-1.25.632.05 1.583.408 3.206.684 4.764.031.177.286.772.14.946-.277.333-2.104-.249-2.327-.306-3.703-.95-6.932-2.947-9.899-5.301-.496-.393-1.101-.821-1.52-1.303-.869-1 1.869 1.876 2.819 2.798 3.225 3.127 6.584 6.113 9.813 9.237.109.105 1.911 1.897 1.96 1.703.344-1.35.244-3.024.317-4.406.324-6.078-4.96-10.552-8.851-14.498-5.164-5.237-10.565-10.389-15.009-16.279-1.609-2.133-2.589-4.33-3.575-6.784-.256-.636-4.358-8.661-4.926-8.337-.217.124-.186 1.272-.209 1.443-.204 1.57-.471 3.123-.607 4.701-.177 2.04-.73 4.569-.237 6.599.085.349.291.681-.246.433-2.601-1.2-4.831-3.641-6.806-5.642-1.963-1.989-3.245-3.802-3.042-6.702.032-.461.04-.724.591-.472.903.412 1.683 1.181 2.508 1.723 1.228.807 2.496 1.556 3.743 2.332.887.552 1.917 1.507 2.873 1.902.081.034-.072-.159-.118-.233-.428-.684-.884-1.348-1.307-2.036-1.208-1.965-2.334-3.986-3.441-6.01a84.355 84.355 0 0 1-2.518-5.045c-.193-.415 3.975.925 4.335 1.077 1.877.795 3.943 1.543 5.664 2.655.04.026.712.512.477.133-.812-1.311-1.73-2.565-2.556-3.869-1.976-3.123-3.896-6.266-5.428-9.632-.348-.765-1.227-1.838.016-1.007.684.456 9.398 4.916 9.659 4.356.231-.493-.256-1.601-.39-2.016-.667-2.065-1.491-4.074-2.145-6.144-.454-1.44-.873-2.874-1.089-4.37-.019-.13-.29-1.208-.132-1.332.546-.431 5.647 4.673 6.029 5.039 3.207 3.063 6.427 6.112 9.764 9.035.426.373 1.681 1.737 1.384.538-1.149-4.654-3.187-9.09-4.865-13.571-.523-1.398-.782-3.14-1.489-4.443-.18-.33 1.08 1.575 1.294 1.828 4.252 5.037 8.277 10.23 12.926 14.918.219.22.472.643.754.791.59.308-.601-1.188-.929-1.767-2.213-3.904-4.685-7.77-6.022-12.085-.428-1.38-.744-2.502-.645-3.907"/><path stroke="#FFD424" stroke-linecap="round" stroke-width="3" d="M112.994 157.108c2.114 2.058 5.772 5.28 8.732 5.989.025.005-1.485-1.361-1.873-1.701-1.758-1.541-3.367-3.246-5.171-4.734-.405-.335-1.434-1.406-2.014-1.446-.467-.033 1.104 3.368 1.198 3.54 1.312 2.404 3.451 5.392 6.113 6.387.99.37 1.854.386 2.884.607 1.048.226 2.574 1.441 1.239-.565-.572-.86-1.351-1.567-1.985-2.379-.2-.255-1.695-2.083-.867-1.718 4.01 1.769 7.623 5.543 12.261 5.707 2.316.082-.103-8.206-.395-9.232-.131-.463-1.219-2.455-1.087-2.862.04-.123 3.757 3.671 4.027 3.949.928.959 4.411 4.998 4.625 1.946.188-2.692-.061-5.869.593-8.493.1-.401 6.302 3.398 7.158 3.798 1.78.831-1.467-4.987-1.585-5.313-.135-.371 1.729.944 1.899 1.085.83.691 1.832 2.172 2.042.301.46-4.116-.106-8.313-.384-12.422-.249-3.683-.127-7.252.129-10.924"/><path stroke="#FFD424" stroke-linecap="round" stroke-width="3" d="M127.495 140.348c3.793 2.534 6.29 6.894 9.243 10.291.615.708.837 1.115-.113.363-3.047-2.414-5.743-5.381-8.251-8.336-1.906-2.245-3.731-4.691-5.078-7.32-.492-.96-.881-1.922-1.535-2.77-2.789-3.618 6.51 6.419 9.577 9.804.255.281 1.493 1.791 1.996 1.726.573-.073-1.229-4.926-1.33-5.189-1.062-2.758-2.574-5.312-3.706-8.035-.11-.264-.899-2.327-.518-2.17 1.769.731 3.245 2.812 4.692 4.014 1.532 1.272 3.52 2.852 5.472 3.45 3.57 1.096 1.482-8.311 1.328-9.922"/><path stroke="#FFD424" stroke-linecap="round" stroke-width="3" d="M103.756 133.977c1.494.173 2.802.885 4.094 1.623 3.247 1.857 6.441 3.879 9.597 5.886 3.651 2.322 7.589 4.905 10.88 7.733 7.429 6.385-14.429-13.319-22.349-19.084-2.938-2.138-5.856-4.485-8.962-6.367-3.543-2.148 7.111 4.256 10.641 6.424 6.053 3.718 12.126 7.867 18.528 10.973.761.37 1.648.638 2.34 1.141.818.594-1.679-1.131-2.478-1.751-4.471-3.475-17.531-14.303-12.869-11.089 3.916 2.7 7.748 5.419 11.865 7.833.898.526 1.897 1.169 2.92 1.436.349.091-1.856-2.382-1.946-2.48-6.15-6.738-12.5-13.322-17.528-20.972-2.01-3.059-3.224-6.791-5.393-9.694-1.717-2.298 4.431 3.646 6.585 5.54 4.857 4.267 10.004 8.383 15.193 12.243 1.155.858 2.388 1.548 3.612 2.296.691.422.704.17.194-.407-4.459-5.052-9.633-9.515-14.195-14.488-2.369-2.581-4.548-5.439-7.084-7.858-1.342-1.279 2.043 1.431 2.091 1.468 7.158 5.607 14.284 11.31 21.548 16.775 3.287 2.473 6.528 5.352 10.023 7.523.089.055 1.042.801.537.278-1.402-1.451-2.919-2.793-4.381-4.183-4.5-4.278-9.08-8.479-13.466-12.874-2.302-2.306-4.767-4.768-7.373-6.736-.51-.386-.397-.411.174-.124 2.408 1.214 4.633 2.944 6.89 4.404a422.827 422.827 0 0 0 19.832 12.087c.268.153 4.984 2.803 4.818 3.312-.214.657-9.27-5.165-9.83-5.556-2.81-1.959-5.628-3.915-8.391-5.937-5.437-3.979 19.92 18.129 14.671 13.905-4.612-3.712-8.759-8.318-12.744-12.673-2.539-2.775-5.848-6.153-7.158-9.802-.901-2.508 6.756 1.109 7.255 1.333 5.807 2.618 11.674 5.119 17.904 6.572 4.19.977.831-3.781-.254-5.398-2.914-4.339-6.315-8.346-8.911-12.9-.243-.426-2.704-4.756-1.224-3.767 3.852 2.573 6.942 6.535 11.118 8.621.34.17.973.547.541-.217-1.08-1.913-2.704-3.632-4.043-5.362-.948-1.225-2.056-2.379-2.961-3.633-.138-.19-.997-1.067-.747-.714 1.832 2.59 4.79 4.576 7.154 6.647.848.742 1.734 1.438 2.583 2.179.344.3.655.722.009.076-3.382-3.389-7.037-6.54-10.056-10.276-.537-.665-1.123-1.322-1.633-2.007-.626-.844 1.519 1.452 2.283 2.173 3.22 3.038 6.439 6.082 9.307 9.381 1.604 1.846-5.541-7.852-4.844-5.508.389 1.309 1.457 2.538 2.194 3.655a483.18 483.18 0 0 0 4.356 6.466c1.889 2.765 4.016 5.61 5.311 8.726.536 1.29.737 2.517.976 3.871.106.597.369 1.636-.233.765-.965-1.396-2.017-2.84-3.171-4.084-.182-.196-1.216-1.345-.473-.544 2.022 2.18 3.448 5.727 4.349 8.509.846 2.612 1.414 5.357 1.87 8.065.34 2.013-.507.446-1.049-.464-1.015-1.704-1.96-3.515-3.271-5.022-2.074-2.387 2.755 5.709 3.795 8.695.227.652-1.045-.903-1.525-1.399-1.337-1.379-2.728-2.702-4.089-4.057-.778-.775-1.519-1.794-2.463-2.382-.344-.214 1.426 1.98 1.618 2.217 2.232 2.766 4.508 5.464 6.6 8.336 1.04 1.427.713 1.903-.446.36-.725-.966-1.701-2.191-2.141-3.336-.56-1.457 1.77 2.574 2.582 3.907.392.643 1.223 2.401-.011 1.022-.758-.848-1.559-1.837-2.778-1.968-2.354-.252-1.006 4.778-.534 5.914.431 1.037-.817.336-1.356.055a35.908 35.908 0 0 1-2.887-1.69c-.375-.242-1.309-1.17-1.088-.782 1.394 2.445 7.645 8.263 5.76 6.173-1.666-1.847-3.956-3.017-5.64-4.872-1.536-1.691-.054-.128.923.545.309.212 2.311 2.25 1.508.797-1.329-2.402-2.866-4.685-4.194-7.086-.095-.173-1.319-2.084-.949-1.899 2.439 1.214 4.71 4.027 6.714 5.849.199.18 2.976 2.701 1.757 1.956-1.692-1.034-3.604-2.438-4.957-3.893-.238-.256-1.585-1.704-2.078-1.227-.574.554.333 3.306.473 3.97.183.863.969 2.459-.312 2.743-2.125.471-4.608-.717-6.4-1.74-1.585-.904-.728.089-.005.932 1.672 1.947 3.136 4.05 4.747 6.042.906 1.121-3.617-1.732-4.008-1.993-1.752-1.173-4.16-2.366-5.519-4.023-1.34-1.633 3.855 1.738 5.696 2.773 1.602.9 6.33 3.731 4.766 2.767-3.824-2.356-7.535-4.917-11.282-7.356-.71-.461.072 1.86.102 2.187.318 3.463-1.127 6.047-4.275 7.635-4.459 2.249-10.135 1.861-14.975 1.402-2.503-.237-5.16-.903-7.258-2.371-1.683-1.176.857.14 1.392.504 1.209.82 2.338 2.133 3.606 2.806.981.521-.702-1.512-.843-1.697-.276-.361-2.747-3.244-1.721-2.9 2.609.875 4.819 2.597 7.178 3.943 2.361 1.347-.664-.444-1.385-1.043-1.056-.879-1.947-1.928-2.988-2.824-.075-.065-1.369-1.211-.943-1.133 1.355.247 2.906 1.474 4.057 2.162 1.754 1.048 3.417 2.24 5.113 3.378.425.285 4.131 2.652 1.881 1.68-10.993-4.754-21.392-11.391-31.773-17.325-4.508-2.577-4.127-2.821-8.7-5.275-.359-.193-.608-.223-.205.151 1.005.933-2.953-.389-2.052.646 1.998 2.3 3.722 4.832 5.708 7.117.256.293 1.874 1.843 1.862 1.738-.083-.758-.974-1.538-1.368-2.14-.593-.905-.95-1.918-1.483-2.853-1.459-2.559 1.126.213 2.022.953 2.422 1.999 4.942 3.801 7.496 5.618.418.297.623.405.47-.268-.487-2.132-1.48-4.225-2.314-6.233-2.007-4.828-4.141-9.341-5.285-14.465-.127-.566-.689-2.847.168-1.761 1.325 1.679 3.005 3.147 4.71 4.432 1.432 1.08.589-.898.271-1.74A38.415 38.415 0 0 0 98 115.722c-.316-.617-1.101-1.499-1.153-2.215-.038-.529 3.309 2.151 3.687 2.497.214.195 1.935 1.414 1.916 1.186-.13-1.57-1.651-3.699-2.41-5.067-.797-1.436.468-.468 1.183.052.679.494 2.51 1.621 2.811 2.346"/><path stroke="#FFD424" stroke-linecap="round" stroke-width="3" d="M108.064 148.425c2.866.464 5.788 2.398 8.221 3.898.203.125 1.97.953 1.473.727-1.65-.749-3.16-1.897-4.642-2.922-2.606-1.803-5.132-3.692-7.652-5.607-.076-.058-.582-.441-.444-.081.159.417.565.779.847 1.096 1.043 1.173 2.036 2.387 3.1 3.54 1.768 1.914 3.53 3.865 5.372 5.709.802.802 1.667 1.507 2.197 2.527.955 1.84-4.618-1.429-4.884-1.616-5.237-3.685-10.102-7.926-14.982-12.065-.292-.247-2.851-2.486-1.495-.953 2.46 2.778 4.657 5.85 7.25 8.501.406.415.884.828 1.261 1.262.42.483-.906-.91-1.3-1.415-2.697-3.457-4.785-7.424-7.986-10.476-1.16-1.106-2.883-2.928-4.523-3.377-.488-.133.513.873.796 1.293.82 1.214 1.642 2.397 2.563 3.539 1.495 1.854 6.005 7.391 4.443 5.594-1.207-1.388-2.618-2.579-3.846-3.941-.083-.091-.668-.688-.336-.198 1.328 1.963 3.11 3.834 4.774 5.505 3.014 3.029 6.491 5.426 9.72 8.186 1.268 1.085 1.164.737.033-.297-.843-.77-3.809-2.413-2.715-2.089.965.287 1.803.943 2.688 1.4a12.328 12.328 0 0 0 4.603 1.346c.725.061 1.454.255 1.3-.733-.235-1.512-1.098-2.793-1.995-3.987-.52-.694-1.094-1.375-1.524-2.13-.38-.667 1.2.764 1.231.785 2.778 1.856 5.621 3.646 8.638 5.089 1.781.852 4.274 2.332 6.355 2.005 2.031-.318.26-3.98-.133-4.893-2.76-6.416-6.083-12.566-8.646-19.078-3.434-8.727-4.797-17.388-3.729-26.692.377-3.288 1.28-7.89 3.914-10.244 3.13-2.797 7.17-2.904 11.148-2.593 2.981.234 5.764 1.085 8.676 1.681 1.124.23 4.077 1.2 4.734-.356.718-1.701-.24-3.827-1.158-5.227-1.849-2.817-4.359-5.256-6.697-7.663a274.66 274.66 0 0 1-3.7-3.881c-1.178-1.26-.595.734-.37 1.36 1.273 3.547 3.581 6.687 5.398 9.971.379.684.524.916-.264.206-1.998-1.8-3.999-3.493-5.494-5.755-.708-1.072-2.394-4.543-1.901-3.355.751 1.805 2.118 3.267 3.077 4.949.008.015-5.291-6.563-5.825-5.841-.463.626 3.712 5.825 4.168 6.487.16.232 1.868 3.471 1.733 3.444-1.414-.286-3.211-2.08-4.319-2.9-1.716-1.27-3.359-2.63-5.073-3.903-.152-.112-1.624-1.449-1.132-.603 1.101 1.892 2.634 3.587 4.042 5.254.215.255 4.713 5.981 4.819 5.92.208-.118-.255-.406-.408-.59a29.406 29.406 0 0 1-1.543-2.045c-1.394-2.015-2.712-4.071-3.874-6.229-.656-1.218-1.318-2.43-1.787-3.734-.153-.425-.321-1.045-.589-1.416-1.384-1.92 2.588 3.967 3.973 5.887a94.02 94.02 0 0 0 1.966 2.61c.158.203-1.353-.571-1.478-.653-1.137-.737-3.362-2.138-3.982-3.426-.237-.49-2.357-.747-2.848-.898-.808-.25-1.828-.937-1.34.406.786 2.163 2.05 4.542 3.504 6.34.521.645-.058-.014-.251-.342-.828-1.403-1.777-2.708-2.716-4.037-.797-1.13-1.528-2.217-2.474-3.196-.374-.387-1.008-.629-1.314-1.041-.881-1.187 1.231 2.692 1.971 3.972 1.035 1.791 2.012 3.634 3.199 5.333.456.65 1.026 1.975 1.639 2.462 1.5 1.194-2.875-2.538-4.359-3.752-.319-.26-4.628-3.154-4.6-2.632.049.901.934 2.013 1.355 2.768.733 1.311 1.519 2.595 2.172 3.949.447.926 1.217 2.073 1.142 3.14-.091 1.302-.777 2.522-1.272 3.721-.565 1.369-.683 1.838-1.887.729-2.166-1.995-3.957-4.49-6.332-6.263-.469-.35.177 1.176.431 1.704 1.545 3.21 3.449 6.279 5.254 9.348a150.985 150.985 0 0 0 3.32 5.391c.211.326.509.974.827 1.22 1.062.82-1.77-2.022-2.582-3.091"/><path stroke="#171717" stroke-width="2.5" d="M165.162 130.955c-1.544 22.077-20.112 38.764-41.473 37.271-21.361-1.494-37.426-20.603-35.883-42.681 1.544-22.078 20.886-49.821 42.247-48.328 21.361 1.494 36.653 31.66 35.109 53.738Z"/><path stroke="#171717" stroke-linecap="round" stroke-width="1.5" d="M87.07 120.294c.133-1.896.35-3.557 1.59-5.103.531-.664.945-1.779 1.317-2.563.433-.914.997-1.772 1.512-2.643a77.094 77.094 0 0 0 3.272-6.123c.89-1.878 1.694-3.878 2.95-5.576 2.462-3.332 4.631-6.935 7.737-9.74 1.42-1.282 2.934-2.372 4.383-3.633 1.125-.977 2.224-1.956 3.461-2.791 1.486-1.005 3.175-1.696 4.655-2.708 1.887-1.29 3.848-2.112 6.106-2.512 1.978-.35 4.391.212 6.401.352 1.935.136 3.789.213 5.637.869 2.053.728 3.285 1.842 4.89 3.28 2.616 2.345 5.256 4.717 7.599 7.315 1.168 1.295 2.52 2.504 3.719 3.757.566.592 1.012 1.276 1.666 1.781.459.355 1.529 1.037.296.59M155.166 93.525c-.081 1.166 1.337 2.849 1.812 3.92.55 1.241 1.29 2.448 1.675 3.761.676 2.309 1.973 4.443 2.808 6.685.817 2.192 1.601 4.383 2.091 6.698.268 1.266.59 2.462.697 3.745.083 1.001.072 2.136.299 3.108.488 2.098.674 4.517.523 6.672-.15 2.15.071 4.407-.081 6.578-.069.989.048 2.254-.234 3.207-.194.652-.844 1.363-.89 2.023"/><path stroke="#171717" stroke-linecap="round" stroke-width="1.5" d="M164.399 137.725c-.284 4.063-2.09 7.289-4.161 10.706-2.4 3.961-4.345 8.144-8.472 10.594-1.625.965-3.117 2.159-4.766 3.08-.656.366-1.571.972-2.135 1.462-.636.553-1.42.791-2.08 1.277-.669.492-1.837.667-2.626.953-.798.29-1.636.408-2.456.629-1.631.44-3.228.751-4.872 1.134"/><path stroke="#171717" stroke-linecap="round" stroke-width="1.5" d="m133.679 167.62-2.6-.181c-.848-.06-2.246-.165-3.08.069-1.634.457-3.526-.025-5.186.343-1.174.26-2.743.145-3.943.061-.975-.068-1.903-.086-2.828-.387-.991-.323-1.86-.829-2.737-1.371-.785-.486-1.697-1.013-2.44-1.561-1.52-1.124-3.433-1.957-5.184-2.68-.838-.346-1.997-1.039-2.735-1.561-1.026-.725-2.071-1.32-3.006-2.201-1.598-1.505-3.199-3.661-4.069-5.688-.66-1.538-1.857-2.726-2.647-4.167-.163-.298-1.38-1.803-1.296-1.797"/><path stroke="#171717" stroke-linecap="round" stroke-width="1.5" d="M92.775 147.94c-.532-.769-.776-2.046-1.165-2.925-.601-1.36-1.457-2.695-2.13-4.036-.646-1.286-1.383-2.681-1.813-4.055-.443-1.418-.548-3.171-.717-4.654-.282-2.482-.17-4.771.036-7.297.186-2.28.786-4.562 1.058-6.846.359-3.008 1.319-6.079 2.503-8.831"/></g><defs><filter id="a" width="109.564" height="123.161" x="71.705" y="65.158" color-interpolation-filters="sRGB" filterUnits="userSpaceOnUse"><feFlood flood-opacity="0" result="BackgroundImageFix"/><feColorMatrix in="SourceAlpha" result="hardAlpha" values="0 0 0 0 0 0 0 0 0 0 0 0 0 0 0 0 0 0 127 0"/><feOffset dy="2"/><feGaussianBlur stdDeviation="1"/><feComposite in2="hardAlpha" operator="out"/><feColorMatrix values="0 0 0 0 0 0 0 0 0 0 0 0 0 0 0 0 0 0 0.02 0"/><feBlend in2="BackgroundImageFix" result="effect1_dropShadow_998_2869"/><feColorMatrix in="SourceAlpha" result="hardAlpha" values="0 0 0 0 0 0 0 0 0 0 0 0 0 0 0 0 0 0 127 0"/><feOffset dy="4"/><feGaussianBlur stdDeviation="4"/><feComposite in2="hardAlpha" operator="out"/><feColorMatrix values="0 0 0 0 0 0 0 0 0 0 0 0 0 0 0 0 0 0 0.06 0"/><feBlend in2="effect1_dropShadow_998_2869" result="effect2_dropShadow_998_2869"/><feBlend in="SourceGraphic" in2="effect2_dropShadow_998_2869" result="shape"/></filter></defs></svg>