<svg width="411" height="269" viewBox="0 0 411 269" fill="none" xmlns="http://www.w3.org/2000/svg">
<path d="M134.269 268.062C60.4951 268.062 0.478516 208.045 0.478516 134.27C0.478516 60.4954 60.4951 0.478516 134.269 0.478516C183.756 0.478516 228.731 27.6729 251.97 70.7208L370.212 34.3489C373.237 33.4194 376.364 32.9461 379.49 32.9461C384.781 32.9461 390.037 34.3151 394.702 36.901C402.24 41.0757 407.631 47.9715 409.862 56.3039C412.093 64.6363 410.876 73.2898 406.431 80.6757C401.986 88.0616 394.904 93.1996 386.504 95.1264L267.519 122.388C267.874 126.36 268.06 130.332 268.06 134.287C268.06 208.062 208.044 268.079 134.269 268.079V268.062Z" fill="white"/>
<path d="M36.1961 106.155C36.6682 110.877 37.7528 115.624 38.5932 120.306C38.8943 121.983 39.2403 126.613 39.7145 122.819C40.5714 115.964 44.5233 108.281 47.1767 101.979C48.39 99.0974 46.549 95.319 47.718 92.313C49.0987 88.7625 46.4162 96.8679 46.1714 97.4554C42.1099 107.203 40.5619 117.971 36.544 127.614C34.9317 131.483 37.1069 119.176 38.3226 115.164C40.5614 107.775 44.0816 100.252 48.5686 93.9369C49.1213 93.1589 49.4192 91.884 49.4192 93.3956C49.4192 96.2052 49.4192 99.0148 49.4192 101.824C49.4192 104.848 48.7563 110.921 49.5739 104.299C50.5512 96.3822 54.1839 88.6427 57.0747 81.255C58.7856 76.8826 58.4537 81.3564 58.08 83.6522C57.3329 88.2412 55.8572 101.837 55.0255 97.262C53.8418 90.7517 57.7477 82.6155 60.5545 77.0019C61.2763 75.5583 65.1125 68.5768 63.6089 74.2567C62.5244 78.3541 59.8585 82.7894 59.8585 87.0546C59.8585 88.917 59.8383 83.2853 60.3225 81.487C61.5017 77.1071 64.236 72.9186 66.2768 68.8824C67.4596 66.543 71.1469 58.4615 70.1432 65.9439C69.4237 71.3071 67.0099 76.3505 65.0395 81.3323C64.6126 82.4116 62.7532 89.9255 61.4051 90.2251C61.0841 90.2964 62.7002 85.6331 62.7583 85.5081C64.9498 80.7963 67.8814 76.3308 70.3365 71.7435C72.5302 67.6449 75.3008 63.8911 77.876 60.0282C77.9257 59.9537 79.7819 57.3115 80.0025 57.863C80.6551 59.4944 78.4422 63.3765 77.992 64.7066C77.2661 66.8513 76.9532 69.2128 75.5562 71.0089C74.4591 72.4195 73.0817 77.5516 73.0817 75.7646C73.0817 68.3376 80.0837 61.1843 85.0675 56.2005C86.0838 55.1842 87.3874 51.1288 87.3874 52.566C87.3874 55.3841 84.5443 60.142 83.521 62.8507C82.8552 64.613 81.8249 66.7405 82.8637 63.624C84.5107 58.6829 89.7354 53.203 93.883 50.2075C96.0888 48.6144 96.3375 47.9399 94.6562 50.9421C92.4549 54.8732 87.454 67.4593 89.1273 63.2761C91.7686 56.6727 96.2096 52.7139 101.074 47.849C105.913 43.0103 100.46 50.7793 99.2573 53.1847C97.5572 56.5849 99.7203 53.0363 100.92 51.8701C103.841 49.0298 107.117 45.7798 110.509 43.5186C113.336 41.6333 109.788 45.8451 109.426 46.4571C107.953 48.9493 105.792 54.3446 105.792 54.3446C105.792 54.3446 109.023 50.468 111.05 49.0089C114.777 46.3255 118.121 43.49 122.069 41.1214C122.692 40.7474 121.111 42.2277 120.755 42.8613C120.001 44.2011 119.514 45.5512 118.357 46.6117C116.492 48.3219 117.261 48.4556 119.131 46.9597C122.696 44.1076 127.25 40.1406 131.387 38.2602C135.334 36.4661 132.414 39.1284 131.542 40.7347C131.233 41.3039 128.621 45.8222 129.609 45.4518C132.43 44.3938 134.579 41.3309 137.651 40.1934C142.929 38.2384 137.049 43.6158 136.375 46.6504C135.945 48.5859 137.661 46.081 138.849 45.2585C141.216 43.6197 143.7 42.0154 146.505 41.392C148.29 40.9953 143.933 44.8145 144.069 46.9984C144.101 47.5105 149.282 44.7011 150.178 44.3692C151.539 43.865 153.074 42.982 154.508 42.8226C156.654 42.5841 155.455 43.2684 154.16 44.5625C153.636 45.0872 151.115 48.4317 153.503 47.3463C155.583 46.4009 157.924 46.027 160.076 45.2585C161.174 44.8665 163.95 43.5577 163.517 44.6398C163.354 45.0475 158.51 51.1067 162.86 48.9316C165.864 47.4297 168.759 47.3517 171.907 46.3024" stroke="#C6C6C8" stroke-width="4" stroke-linecap="round"/>
<path d="M373.297 48.3627C382.335 45.5831 391.874 50.8606 394.322 59.9939V59.9939C396.769 69.1272 391.146 78.4674 381.93 80.5791L249.772 110.859L247.237 101.886L244.702 95.1258L242.167 88.6923L373.297 48.3627Z" fill="white" stroke="#171717" stroke-width="2.5"/>
<ellipse cx="8.65464" cy="8.65457" rx="8.65464" ry="8.65457" transform="matrix(0.258817 0.965926 -0.965925 0.258821 381.632 54.4355)" stroke="#171717" stroke-width="2.5"/>
<ellipse cx="133.002" cy="134.148" rx="119" ry="119.001" stroke="#171717" stroke-width="2.5"/>
<ellipse cx="133.001" cy="134.148" rx="97.3639" ry="97.3647" stroke="#171717" stroke-width="2.5"/>
<path d="M243.617 89.0916C248.198 89.0916 252.362 88.6112 256.803 87.6018C258.082 87.3111 259.171 86.4392 260.385 85.9535C261.461 85.523 262.43 85.2316 263.444 84.6857C264.66 84.0305 266.127 83.74 267.422 83.3702C273.477 81.6402 279.505 78.807 285.425 76.5395C297.057 72.0848 309.099 68.598 320.863 64.5579C326.11 62.7556 331.676 61.7481 337.028 60.2788C342.137 58.8764 347.166 57.2848 352.306 55.9997C359.132 54.2932 366.113 51.9457 373.131 51.1659C378.58 50.5604 385.026 49.9729 389.787 53.147C394.141 56.0497 393.385 62.169 393.385 66.7451C393.385 70.4118 392.654 74.2187 389.74 76.6029C389.012 77.198 387.221 77.0275 386.317 77.1734C384.958 77.3925 383.399 77.9263 382.101 78.3938C380.224 79.0696 378.486 80.1533 376.506 80.5492C372.959 81.2588 369.396 82.855 365.935 83.8932C361.782 85.1392 357.405 86.0194 353.431 87.8078C350.818 88.9836 347.416 89.7654 344.603 90.2961C341.418 90.897 338.296 91.9126 335.063 92.4515C331.375 93.0661 327.623 93.7488 323.921 94.2265C320.449 94.6746 317.167 95.7414 313.731 96.2868C310.329 96.8268 306.881 98.3343 303.54 99.2188C300.301 100.076 297.332 101.21 293.968 101.644C289.723 102.191 285.557 103.201 281.273 103.577C276.563 103.991 271.976 104.832 267.295 105.352C263.428 105.782 259.273 107.12 255.535 108.205C253.944 108.667 251.813 109.917 250.178 109.917" stroke="#171717" stroke-width="1.5" stroke-linecap="round"/>
<path d="M38.0793 113.456C38.0793 111.15 38.0004 108.875 38.3382 106.595C38.5421 105.219 39.3879 103.855 40.1507 102.711C40.9885 101.454 41.4885 100.044 42.2796 98.7551C43.4959 96.773 44.5984 94.7043 45.8471 92.7422C46.9922 90.9427 48.6262 89.2059 49.4721 87.2471C50.2482 85.4496 51.6413 83.6257 52.8525 82.1117C55.6803 78.5769 58.1474 74.7259 61.1238 71.3086C63.7316 68.3144 66.3826 65.5468 69.2943 62.8358C72.379 59.9639 75.8846 57.7087 79.2486 55.1974C84.0736 51.5957 89.0418 48.3334 94.2089 45.3006C97.1713 43.5618 100.765 42.8421 104.106 42.1071C108.228 41.2002 112.272 40.232 116.477 39.7192C123.924 38.8109 131.36 38.626 138.859 38.626" stroke="#171717" stroke-width="1.5" stroke-linecap="round"/>
<path d="M136.225 38.2781C139.641 38.2781 143.064 38.2149 146.48 38.2781C149.325 38.3308 152.15 39.0744 154.934 39.5562C156.299 39.7924 157.643 40.3063 158.968 40.7111C161.027 41.3401 162.981 42.2043 165.02 42.8515C168.618 43.9938 171.736 46.4648 175.198 47.9484C177.073 48.7521 178.795 49.9341 180.503 51.0358C182.13 52.0856 183.777 53.1038 185.453 54.0771C188.379 55.7758 191.146 57.7152 193.738 59.8669C194.912 60.8417 196.284 61.5968 197.356 62.6695C198.724 64.0375 200.09 65.4389 201.422 66.8579C203.906 69.5062 207.57 70.8834 209.529 74.0182C209.832 74.5035 210.139 74.9787 210.222 75.5581C210.24 75.6884 210.368 76.2435 210.368 75.8352" stroke="#171717" stroke-width="1.5" stroke-linecap="round"/>
<path d="M209.673 75.2812C209.744 75.9207 210.739 76.8737 211.09 77.4217C211.868 78.6395 212.821 79.7466 213.553 80.9941C214.681 82.9137 215.766 84.8523 217.049 86.6762C220.055 90.9517 222.069 96.2187 223.562 101.197C224.394 103.971 224.68 106.845 225.333 109.651C225.838 111.82 226 114.044 226.58 116.195C227.107 118.148 227.567 120.133 228.105 122.093C228.272 122.703 228.342 123.353 228.628 123.925C228.784 124.236 228.85 124.401 228.659 123.925" stroke="#171717" stroke-width="1.5" stroke-linecap="round"/>
<path d="M228.938 121.846C228.938 123.533 228.858 125.245 229.146 126.912C229.468 128.78 229.399 130.742 229.846 132.594C230.332 134.606 230.444 136.733 230.709 138.784C230.967 140.789 230.878 142.83 230.878 144.851C230.878 147.205 230.215 149.491 229.7 151.781C229.138 154.279 228.551 156.829 227.76 159.264C226.872 161.996 225.807 164.651 224.75 167.318C223.923 169.403 222.973 171.384 222.347 173.546C222.135 174.281 221.968 175.047 221.731 175.756" stroke="#171717" stroke-width="1.5" stroke-linecap="round"/>
<path d="M148.97 229.8C151.62 229.8 154.359 230.133 156.855 229.225C158.474 228.636 160.188 227.881 161.898 227.501C163.454 227.156 165.451 226.024 166.942 225.347C168.155 224.795 169.799 224.836 170.948 224.197C172.805 223.166 174.922 222.452 176.838 221.468C179.087 220.313 181.268 219.115 183.382 217.733C184.596 216.939 185.921 215.593 187.244 215.083C189.003 214.407 191.29 212.978 192.639 211.7C193.889 210.515 195.46 209.713 196.805 208.667C198.435 207.399 199.644 205.844 201.099 204.389C202.751 202.737 204.728 200.748 205.999 198.771C207.207 196.892 209.032 195.416 210.292 193.584C212.523 190.339 214.657 186.967 217.347 184.119C219.508 181.83 221.082 179.33 221.082 176.074" stroke="#171717" stroke-width="1.5" stroke-linecap="round"/>
<path d="M73.6963 212.848C75.1656 212.995 77.0277 215.221 78.1654 216.152C79.3316 217.106 80.7228 217.843 82.028 218.53C83.6131 219.364 85.4829 219.63 87.0557 220.477C88.6911 221.358 90.4008 222.32 92.1473 222.967C93.6492 223.523 95.0797 224.388 96.5526 225.058C98.0168 225.724 99.7779 225.975 101.277 226.574C103.152 227.324 105.611 227.869 107.582 228.362C109.463 228.832 111.343 229.514 113.2 230.086C117.004 231.256 120.851 231.81 124.82 231.81C128.597 231.81 132.47 232.097 136.184 232.097C139.772 232.097 143.407 231.81 146.942 231.81C149.96 231.81 152.795 229.798 155.864 229.798" stroke="#171717" stroke-width="1.5" stroke-linecap="round"/>
<path d="M74.558 213.137C72.4761 211.055 70.5005 208.998 68.4609 206.88C66.9554 205.317 65.7329 203.484 64.3589 201.805C63.8229 201.15 63.1706 201.029 62.7149 200.209C62.2939 199.451 61.2549 198.932 60.7038 198.197C57.5218 193.955 54.0343 190.146 52.2125 185.045C51.5493 183.188 50.3839 181.391 49.8503 179.523C49.4701 178.192 48.9042 176.445 48.3499 175.213C45.7501 169.436 43.712 163.455 41.8059 157.401C40.8085 154.233 39.963 151.095 39.5075 147.792C39.1457 145.169 38.1464 142.515 38.071 139.875C37.9664 136.215 37.7837 132.484 37.7837 128.894C37.7837 126.054 37.4964 123.214 37.4964 120.355C37.4964 119.08 37.2281 117.428 37.7837 116.316" stroke="#171717" stroke-width="1.5" stroke-linecap="round"/>
<path d="M14.4395 123.316C14.4395 118.718 15.3601 113.902 17.4424 109.737C19.2688 106.084 21.1618 101.925 22.0701 97.9287C22.4787 96.1307 23.4181 94.4136 24.101 92.7062C24.9367 90.6169 25.5375 88.2966 26.7123 86.3666C27.8629 84.4763 28.5332 82.2169 29.5266 80.2301C30.7687 77.7459 31.7705 75.1417 33.2404 72.7735C35.1606 69.6798 36.7175 66.141 39.1156 63.3875C41.2713 60.9124 43.2154 58.3071 45.5132 55.9454C46.7469 54.6774 47.6721 53.0757 48.9078 51.7674C49.7238 50.9033 50.4862 49.9297 51.2724 49.0256C51.7747 48.4479 52.7833 47.1145 53.4775 46.806C54.3937 46.3987 54.9663 45.1879 55.5519 44.4559C56.4066 43.3876 57.225 42.1445 58.1922 41.1773C60.006 39.3634 61.8726 37.687 64.2561 36.6221" stroke="#171717" stroke-width="1.5" stroke-linecap="round"/>
<path d="M61.1758 38.7092C63.157 38.7092 64.9681 37.68 66.5578 36.6202C68.962 35.0174 71.5164 33.565 73.9708 32.065C77.5586 29.8725 81.2192 27.7593 85.0831 26.0591C89.5425 24.097 93.9089 20.879 98.7631 19.9082C103.615 18.9378 108.315 17.4141 113.27 16.7747C116.876 16.3093 120.423 15.5956 124.049 15.2659C126.513 15.0419 128.953 14.8137 131.418 14.6276C133.694 14.4558 136 14.5875 138.265 14.3665C145.262 13.6839 152.971 13.7355 159.561 16.4555C162.973 17.8636 166.465 19.033 169.861 20.4884C173.411 22.01 176.903 23.8311 180.306 25.6529" stroke="#171717" stroke-width="1.5" stroke-linecap="round"/>
<path d="M172.156 20.9521C173.637 21.1167 174.688 22.6453 176.073 23.0412C177.69 23.5032 179.273 24.8807 180.773 25.6524C185.558 28.1129 190.835 29.7703 195.454 32.4997C206.038 38.7538 215.92 46.5241 223.917 55.943C226.128 58.5478 228.411 61.0885 230.372 63.9074C232.437 66.8753 233.725 70.1411 235.609 73.1774C238.568 77.9438 240.174 83.7659 241.934 89.048C242.351 90.2982 242.823 91.7021 243.167 92.9069C243.424 93.8034 244.126 94.9908 244.226 95.8953C244.376 97.2459 245.477 98.5873 245.779 99.9428C245.94 100.668 246.246 101.502 246.577 102.162" stroke="#171717" stroke-width="1.5" stroke-linecap="round"/>
<path d="M245.011 97.7246C245.011 102.652 247.641 107.375 249.595 111.84C251.995 117.325 252.398 123.683 253.164 129.524C254.206 137.476 253.914 146.137 252.453 154.026C252.107 155.895 252.009 158.119 251.22 159.873C250.423 161.644 249.552 163.353 248.681 165.095C247.123 168.212 246.115 171.124 245.272 174.496" stroke="#171717" stroke-width="1.5" stroke-linecap="round"/>
<path d="M118.868 252.753C124.33 252.753 129.791 252.753 135.253 252.753C139.744 252.753 143.642 251.956 148.038 251.142C154.367 249.97 161.014 249.636 167.186 247.921C170.529 246.993 173.663 245.767 176.83 244.342C180.113 242.865 183.542 241.829 186.593 239.868C192.068 236.348 198.178 233.32 202.977 228.773C204.719 227.123 206.935 225.751 208.863 224.319C212.814 221.383 216.827 217.947 219.938 214.118C221.758 211.879 223.575 209.654 225.168 207.218C226.959 204.478 229.409 202.139 231.093 199.384C235.261 192.564 239.486 186.265 242.705 179.023C243.647 176.904 244.215 174.454 244.853 172.222C245.436 170.18 247.358 168.187 247.358 166.138" stroke="#171717" stroke-width="1.5" stroke-linecap="round"/>
<path d="M17.9395 108.871C17.9395 113.254 16.1068 116.975 15.454 121.219C14.8658 125.042 14.3604 128.545 14.3604 132.493C14.3604 139.124 16.8733 145.267 17.6014 151.821C18.1372 156.643 19.2574 161.45 20.5244 166.137C21.3562 169.215 22.7138 172.146 23.7456 175.165C25.261 179.599 26.53 184.004 28.3189 188.348C31.1777 195.291 35.6951 200.339 40.7662 205.786C42.6505 207.81 43.668 210.584 45.5185 212.666C46.3152 213.562 46.949 214.482 47.6461 215.45C47.9457 215.866 49.4071 216.245 48.3619 216.245" stroke="#171717" stroke-width="1.5" stroke-linecap="round"/>
<path d="M45.1426 214.099C47.6358 216.343 49.9764 219.25 52.8178 221.058C57.0784 223.769 61.0088 226.985 65.1856 229.847C69.95 233.111 74.7001 236.181 79.681 239.133C83.555 241.428 87.6765 242.936 91.671 244.879C94.8928 246.447 98.4662 247.362 101.693 248.975C105.036 250.647 109.543 250.471 113.146 251.322C118.448 252.574 123.874 253.249 129.252 253.847C130.844 254.024 141.192 254.086 141.063 253.827" stroke="#171717" stroke-width="1.5" stroke-linecap="round"/>
<path d="M372.411 56.242C372.009 56.242 371.595 56.2116 371.195 56.2516C370.33 56.338 369.539 56.8549 368.833 57.3197C368.247 57.7056 367.692 58.2025 367.195 58.6992C366.876 59.0179 366.478 59.3165 366.376 59.777C365.867 62.0675 366.117 64.5237 366.117 66.8661C366.117 67.97 366.331 68.9529 366.678 69.9939C367.01 70.992 367.921 71.5987 368.828 72.068C370.299 72.8289 371.665 73.6662 373.312 74.0462C374.967 74.4281 376.398 74.2105 377.843 73.3565C379.541 72.3531 380.778 71.1192 381.742 69.4143C382.326 68.3817 382.628 67.134 382.887 65.9847C383.173 64.7138 383.326 63.0969 382.844 61.8558C382.412 60.7456 381.694 59.6773 380.861 58.8286C380.004 57.9556 378.857 56.889 377.67 56.5006C377.04 56.2943 376.42 56.0519 375.774 55.8971C375.107 55.7376 374.385 55.8109 373.704 55.8109C373.188 55.8109 372.574 55.7172 372.066 55.83C371.79 55.8914 371.487 55.9833 371.204 55.9833" stroke="#171717" stroke-width="1.5" stroke-linecap="round"/>
<g filter="url(#filter0_dd_998_2605)">
<path d="M97.1262 81.838C92.2502 82.5152 88.5394 83.8306 85.9037 86.3273C83.2425 88.8482 82.2629 92.0344 81.6252 94.9284C81.3993 95.9536 81.2019 97.0034 80.9982 98.0866C80.077 102.984 79.0278 108.564 74.6418 115.62C68.8705 119.332 64.8389 123.355 62.4782 127.95C59.9776 132.818 59.5695 137.902 60.372 143.118C61.1594 148.237 63.1362 153.632 65.5402 159.285C66.7512 162.133 68.1031 165.119 69.5073 168.218L69.5553 168.324C70.9509 171.405 72.404 174.612 73.8648 177.996C91.0402 217.782 147.068 204.313 146.352 165.639C146.201 157.493 147.188 151.877 148.713 147.723C150.221 143.617 152.335 140.719 154.795 138.08C155.857 136.942 157.057 135.802 158.329 134.596C162.759 130.39 168.045 125.371 171.268 116.779C175.899 104.427 169.089 92.8904 161.125 84.6018C153.007 76.1522 142.49 69.738 136.426 67.043C132.576 65.3319 129.112 65.4485 125.87 66.7994C123.159 67.9291 120.65 69.9323 118.397 71.7315C118.261 71.8396 118.127 71.9469 117.994 72.0533C113.092 75.9592 107.346 80.4186 97.1262 81.838Z" fill="white" stroke="white" stroke-width="8"/>
<path d="M114.486 100.564C116.189 100.564 118.071 101.475 119.545 102.203C124.711 104.755 129.415 108.227 134.197 111.415C136.106 112.687 138.244 113.914 139.956 115.456C140.673 116.101 143.037 117.428 142.072 117.428C140.825 117.428 138.939 116.004 137.904 115.456C134.743 113.78 131.46 112.46 128.359 110.651C125.86 109.193 123.182 107.99 120.722 106.515C119.781 105.95 115.401 102.495 118.543 104.589C121.587 106.619 125.737 108.25 128.088 111.144C129.697 113.124 132.056 114.985 134.022 116.601C134.903 117.325 135.811 118.01 136.822 118.542C137.239 118.761 138.185 119.333 136.981 119.115C130.862 118.002 125.654 113.731 119.943 111.59C118.549 111.067 117.05 110.916 115.631 110.428C114.801 110.143 112.991 109.633 112.354 108.996C112.024 108.667 112.306 108.116 112.131 107.724C111.635 106.608 110.601 105.699 109.904 104.701C109.747 104.476 107.797 102.663 108.949 102.919C112.157 103.632 115.454 105.99 118.209 107.66C123.214 110.695 128.148 113.718 132.956 117.031C134.644 118.193 136.626 119.446 137.809 121.167C138.127 121.63 138.735 122.096 139.256 122.328C139.364 122.376 140.062 123.012 139.909 123.124C138.63 124.053 134.193 121.321 133.1 120.833C129.649 119.291 126.522 117.217 123.363 115.169C120.904 113.575 118.059 112.532 115.345 111.446C113.508 110.712 111.631 110.127 109.904 109.155C109.679 109.029 107.4 107.36 107.517 107.31C108.019 107.095 109.251 107.678 109.681 107.851C113.341 109.321 116.808 111.436 120.261 113.324C124.916 115.869 129.556 118.439 134.197 121.008C135.693 121.836 137.441 122.567 138.7 123.76C139.517 124.534 135.151 122.893 134.85 122.774C128.645 120.326 122.36 117.968 116.554 114.66C113.366 112.843 110.186 111.043 107.04 109.155C105.544 108.258 104.005 107.553 102.761 106.308C102.623 106.17 101.712 105.433 101.822 105.433C105.343 105.433 109.321 108.773 112.211 110.444C117.539 113.526 122.755 116.662 127.913 120.021C131.818 122.564 135.532 125.183 139.686 127.26C140.813 127.824 138.471 127.457 138.127 127.419C134.073 126.969 130.075 125.616 126.227 124.333C122.977 123.25 119.463 122.343 116.649 120.308C114.586 118.815 112.585 117.252 110.636 115.615C109.035 114.27 107.918 112.272 106.324 111.033C106.05 110.82 105.634 110.711 105.322 110.524C103.635 109.511 109.046 111.818 110.827 112.655C119.114 116.556 127.722 120.015 134.977 125.701C135.969 126.479 136.907 127.599 137.809 128.501C138.313 129.005 132.313 128.26 131.89 128.167C125.878 126.837 119.847 125.435 114.215 122.885C107.895 120.023 103.07 115.849 97.6537 111.733C91.9211 107.376 110.56 118.122 117.031 121.278C123.022 124.201 129.167 126.911 135.056 130.028C135.154 130.08 137.064 131.174 136.647 131.174C136.12 131.174 135.398 130.735 134.913 130.569C133.142 129.964 131.382 129.33 129.6 128.756C124.449 127.096 119.172 125.489 114.199 123.347C109.774 121.44 105.94 118.672 101.949 116.028C101.576 115.781 99.4993 114.031 100.104 114.66C101.759 116.382 103.172 117.947 105.29 119.242C113.124 124.029 121.692 128.079 129.918 132.192C130.908 132.687 131.892 133.153 132.813 133.767C132.956 133.862 134.814 134.61 134.34 134.61C133.753 134.61 133.064 134.128 132.575 133.878C130.39 132.764 128.123 131.836 125.877 130.856C120.833 128.655 115.623 126.878 110.604 124.619C107.509 123.227 104.437 121.347 101.886 119.178C101.199 118.594 100.154 117.982 99.3242 117.619C98.1298 117.097 99.4997 117.148 100.072 117.365C104.413 119.011 108.558 121.446 112.736 123.458C116.834 125.431 120.857 127.529 124.906 129.599C126.721 130.527 128.239 131.695 129.95 132.701C130.36 132.942 132.757 134.995 132.177 135.151C130.607 135.574 127.692 134.164 126.211 133.783C121.49 132.569 116.934 130.971 112.513 128.915C107.083 126.389 102.944 123.058 99.1969 118.478C99.013 118.253 99.0387 118.073 99.3719 118.24C100.915 119.011 102.306 120.289 103.731 121.247C110.325 125.676 117.626 129.189 124.827 132.51C128.184 134.059 131.68 135.318 134.977 136.997C135.117 137.068 136.886 138.2 136.759 138.301C136.512 138.499 135.671 138.37 135.422 138.365C133.163 138.315 130.95 137.841 128.756 137.331C122.724 135.927 116.699 134.144 110.922 131.906C106.213 130.081 102.093 127.554 98.1946 124.365C97.0574 123.434 95.1953 122.555 94.3287 121.342C94.1355 121.072 94.8798 121.209 94.9173 121.215C96.0407 121.394 97.0413 122.121 98.0037 122.678C102.198 125.108 106.476 127.394 110.699 129.774C114.677 132.016 118.563 134.595 122.79 136.36C124.312 136.996 126.226 137.434 127.595 138.365C127.952 138.608 127.753 138.645 127.404 138.588C125.555 138.285 123.736 137.71 121.947 137.172C115.056 135.098 108.137 133.073 101.408 130.506C99.4608 129.763 97.0966 128.68 95.4582 127.34C95.2094 127.136 94.336 126.331 95.2196 126.799C102.557 130.683 110.594 133.343 118.081 136.933C119.634 137.678 121.246 138.229 122.79 139.001C124.916 140.064 123.173 139.82 121.74 139.383C116.615 137.819 111.638 135.816 106.467 134.372C101.821 133.073 99.1912 131.833 94.6423 130.219C92.1159 129.323 95.4023 130.407 95.8242 130.538C102.246 132.519 108.44 135.118 114.677 137.601C118.492 139.12 122.409 140.522 126.163 142.024C130.719 143.846 116.313 141.174 111.622 139.733C109.07 138.949 106.413 138.006 104.033 136.79C103.121 136.323 99.9798 135.409 99.6424 134.228C99.6012 134.084 104.897 134.857 105.29 134.944C107.635 135.465 109.749 136.267 111.877 137.331C114.506 138.646 117.151 140.234 119.927 141.229C121.75 141.882 124.33 142.947 126.227 142.947" stroke="#FFD424" stroke-width="4" stroke-linecap="round"/>
<path d="M100.607 195.9C103.129 195.9 105.651 195.9 108.173 195.9C109.635 195.9 107.127 193.892 106.815 193.572C103.984 190.66 107.382 192.734 108.949 193.766C110.846 195.015 113.219 197.011 115.523 197.43C117.339 197.76 115.877 196.661 115.049 195.813C114.55 195.303 111.514 192.841 111.514 192.235C111.514 191.989 116.697 193.424 117.205 193.572C117.58 193.681 119.991 194.457 119.619 194.262C117.991 193.405 115.753 192.379 114.446 191.071C112.989 189.614 118.508 191.813 120.481 192.408C121.316 192.66 124.189 194.039 122.701 192.365C121.586 191.11 120.727 189.758 119.834 188.356C119.053 187.128 123.409 189.136 123.886 189.304C124.05 189.361 126.947 190.64 126.947 189.843C126.947 188.028 124.012 185.378 122.723 184.346C120.527 182.59 126.03 184.708 126.602 185.036C126.944 185.232 132.724 188.552 132.724 187.321C132.724 186.034 125.348 179.356 131.064 182.32C131.395 182.492 134.594 183.853 134.728 183.247C135.033 181.877 133.712 179.753 133.198 178.527C131.204 173.763 135.221 179.776 135.138 176.026C135.103 174.453 134.275 173.031 134.362 171.457C134.417 170.476 138.698 173.591 139.169 173.957C139.925 174.545 141.728 176.279 141.26 174.173C140.787 172.045 140.385 169.914 139.988 167.771C139.94 167.515 139.608 164.714 139.815 165.852C139.866 166.129 140.714 168.586 140.872 168.18C141.536 166.471 139.928 163.211 139.815 161.412C139.734 160.112 139.794 158.793 139.794 157.489" stroke="#C6C6C8" stroke-width="4" stroke-linecap="round"/>
<path d="M97.6764 85.8C79.5543 88.3169 90.1244 99.014 77.5396 118.52C54.257 132.993 65.5852 148.724 77.5373 176.411C93.0979 212.456 142.982 199.692 142.353 165.713C141.723 131.734 159.971 135.51 167.522 115.374C175.073 95.2386 146.128 75.7321 134.802 70.6982C123.475 65.6643 120.329 82.6538 97.6764 85.8Z" stroke="#171717" stroke-width="2.5"/>
<circle cx="117.394" cy="124.394" r="21.3942" stroke="#171717" stroke-width="2.5"/>
<path d="M64.8242 133.376C65.0469 126.918 70.9994 124.109 75.7206 121.074C77.6739 119.818 79.7628 118.527 80.9931 116.466C83.1382 112.871 83.9936 108.33 84.5081 104.241C84.9513 100.718 85.3316 97.0481 86.4413 93.6573C86.9456 92.1163 87.7753 90.0633 89.429 89.4393C90.6142 88.992 91.6899 88.4159 92.9342 88.1212C94.3594 87.7836 95.7681 87.3889 97.162 86.9398C99.0942 86.3171 100.995 85.2362 102.874 84.4402C103.836 84.0324 105.053 83.2881 106.125 83.2881" stroke="#171717" stroke-width="1.5" stroke-linecap="round"/>
<path d="M101.91 84.8695C99.5187 84.8695 106.784 85.1987 109.077 84.518C110.421 84.119 111.608 83.1494 112.807 82.4481C114.704 81.3386 116.536 80.1308 118.353 78.8941C121.747 76.5829 124.96 74.0367 128.234 71.5517C130.623 69.7382 133.792 68.5547 136.816 69.1595C139.833 69.763 142.767 71.9755 145.233 73.7192C148.218 75.8306 151.014 78.4082 153.581 81.003C156.249 83.7014 158.692 86.6173 160.347 90.0541C160.679 90.7447 160.913 91.4662 161.226 92.1533C161.395 92.5266 161.719 92.7649 161.841 93.1297" stroke="#171717" stroke-width="1.5" stroke-linecap="round"/>
<path d="M158.5 87C160 89.5003 161.685 93.9026 163.76 96.4004C165.491 98.4844 166.969 100.583 168.211 103.001C169.185 104.897 169.203 107.228 169.307 109.311C169.484 112.835 167.975 115.809 166.013 118.633C164.123 121.354 161.757 123.671 159.605 126.173C157.139 129.04 153.657 130.957 151.458 134.085C150.059 136.075 148.767 138.126 147.454 140.174C146.045 142.373 144.384 144.581 143.339 146.984C142.53 148.844 142.43 150.751 142.07 152.698" stroke="#171717" stroke-width="1.5" stroke-linecap="round"/>
<path d="M64.6025 134.408C64.6025 141.022 64.3164 147.721 67.0159 153.92C67.7892 155.696 68.9266 157.15 69.9301 158.792C71.1698 160.821 72.2854 162.918 73.5161 164.951C75.9821 169.025 78.4888 173.427 80.1756 177.895C81.6076 181.687 83.108 185.904 86.0269 188.823C88.8943 191.69 92.5552 194.172 96.1586 196.04C98.6864 197.351 101.559 198.468 104.366 199.046C107.219 199.633 110.963 199.79 113.781 198.955C116.288 198.212 118.637 197.236 121.044 196.177C123.074 195.284 125.496 194.093 127.145 192.557C128.876 190.945 131.374 189.753 132.735 187.787C134.412 185.364 136.762 183.13 137.755 180.308C138.257 178.88 138.789 177.608 139.087 176.119C139.345 174.828 139.445 173.507 139.702 172.225C139.933 171.068 139.804 169.806 139.804 168.628C139.804 166.841 140.009 165.086 140.009 163.3C140.009 158.935 141.514 153.473 143.5 149.5" stroke="#171717" stroke-width="1.5" stroke-linecap="round"/>
<path d="M115.25 104.943C112.437 104.943 109.728 104.792 107.008 105.626C104.794 106.305 101.869 107.968 100.573 109.962C96.7152 115.897 96.9359 123.097 97.046 129.924C97.0951 132.967 99.1816 136.372 101.091 138.621C103.121 141.012 105.878 143.146 108.752 144.411C111.214 145.494 114.152 146.982 116.894 147.041C119.884 147.104 121.945 146.41 124.694 145.334C126.616 144.582 128.572 142.568 130.016 141.124C130.928 140.212 131.818 138.999 132.544 137.939C133.412 136.672 134.529 135.436 135.224 134.07C136.32 131.92 137.426 129.657 137.829 127.244C138.378 123.946 138.478 119.358 137.31 116.22C135.079 110.224 128.527 108.411 122.81 107.168C120.736 106.717 118.695 106.088 116.616 105.626C114.895 105.244 113.056 105.274 111.382 104.716" stroke="#171717" stroke-width="1.5" stroke-linecap="round"/>
</g>
<defs>
<filter id="filter0_dd_998_2605" x="48.001" y="57.7725" width="136.784" height="160.229" filterUnits="userSpaceOnUse" color-interpolation-filters="sRGB">
<feFlood flood-opacity="0" result="BackgroundImageFix"/>
<feColorMatrix in="SourceAlpha" type="matrix" values="0 0 0 0 0 0 0 0 0 0 0 0 0 0 0 0 0 0 127 0" result="hardAlpha"/>
<feOffset dy="2"/>
<feGaussianBlur stdDeviation="1"/>
<feComposite in2="hardAlpha" operator="out"/>
<feColorMatrix type="matrix" values="0 0 0 0 0 0 0 0 0 0 0 0 0 0 0 0 0 0 0.02 0"/>
<feBlend mode="normal" in2="BackgroundImageFix" result="effect1_dropShadow_998_2605"/>
<feColorMatrix in="SourceAlpha" type="matrix" values="0 0 0 0 0 0 0 0 0 0 0 0 0 0 0 0 0 0 127 0" result="hardAlpha"/>
<feOffset dy="4"/>
<feGaussianBlur stdDeviation="4"/>
<feComposite in2="hardAlpha" operator="out"/>
<feColorMatrix type="matrix" values="0 0 0 0 0 0 0 0 0 0 0 0 0 0 0 0 0 0 0.06 0"/>
<feBlend mode="normal" in2="effect1_dropShadow_998_2605" result="effect2_dropShadow_998_2605"/>
<feBlend mode="normal" in="SourceGraphic" in2="effect2_dropShadow_998_2605" result="shape"/>
</filter>
</defs>
</svg>
