<svg xmlns="http://www.w3.org/2000/svg" width="403" height="253" fill="none"><path stroke="#C6C6C8" stroke-linecap="round" stroke-width="2" d="M252.592 106.294c4.447 0 8.674-1.278 13.075-1.767 4.76-.529 9.624-.945 14.329-1.865 6.995-1.369 14.024-2.772 21.066-3.946 14.649-2.441 29.013-5.747 43.352-9.658 13.391-3.652 27.292-6.53 39.787-12.778 3.085-1.542 5.865-3.648 8.65-5.646 1.104-.79 3.476-2.926 3.566-4.457.083-1.41.412-.976-.446-.594-1.194.53-2.433 1.703-3.599 2.393-5.783 3.427-11.843 6.322-18.011 8.965-6.778 2.904-13.558 5.127-20.718 6.917-10.623 2.655-20.998 5.713-31.879 7.28-2.631.38-5.309.449-7.957.66-2.891.232-5.729.892-8.618 1.123-5.898.472-11.582 2.607-17.235 4.177-2.932.815-5.781 1.68-8.75 2.36-2.521.579-5.068.898-7.528 1.718-4.098 1.366-8.207 3.123-12.184 4.82-2.501 1.068-5.391 1.764-8.089 2.064-.783.087-2.641-.287-1.024-.875 4.073-1.481 8.332-2.788 12.547-3.797 1.979-.473 4.023-.861 5.976-1.403 1.277-.355-1.136-.149-1.452-.149-3.655 0-7.301-.131-10.814 1.04-1.111.371-2.05.446-3.219.446-.438 0 1.728-.333 2.179-.446 2.828-.707 11.599-1.04 8.684-1.04-3.266 0-6.491 1.189-9.724 1.189-.633 0 2.063-.416 2.377-.479 3.428-.685 6.901-1.386 10.286-2.262 7.749-2.005 15.384-4.426 23.178-6.24a91.759 91.759 0 0 1 6.042-1.189c.333-.054 2.2-.23.974-.23-4.718 0-8.8.52-13.306 2.08-1.823.63-3.685 1.228-5.481 1.93-.39.153-1.504.705-.413.744 4.425.158 8.902.048 13.307-.363 4.198-.393 8.206-2.195 12.315-3.055 4.079-.853 8.134-1.595 12.217-2.377 6.891-1.32 13.673-2.636 20.405-4.672 8.517-2.576 17.019-4.937 25.655-7.066 1.963-.484 4.037-1.135 6.075-1.188.926-.025.796.094-.017.297-3.209.802-6.561.496-9.822 1.04-6.149 1.025-12.39 1.477-18.523 2.592-5.864 1.066-11.517 2.832-17.335 4.094-3.976.862-7.903 1.74-11.82 2.823-1.006.278-10.5 2.174-10.5 3.269 0 .495 15.405-1.013 16.905-1.04.265-.005 2.385-.01 1.123.23-1.335.255-2.883.364-4.243.364-3.694 0-7.575 1.935-11.127 2.823-5.18 1.295-10.489 3.103-15.403 5.2-1.123.48-2.49 1.189-3.747 1.189-.655 0 1.31.01 1.964 0 9.567-.152 18.764-4.456 28-6.389 10.48-2.193 21.071-4 31.432-6.686 6.031-1.564 11.701-3.042 17.467-5.498 4.959-2.112 9.964-4.076 14.841-6.372.623-.293 1.793-.875 2.51-.875.759 0-1.503.264-2.262.264-2.144 0-8.548.509-6.405.594 3.141.126 6.095-.118 9.145-.891 1.78-.451 3.133-1.54 4.755-2.08"/><path stroke="#C6C6C8" stroke-linecap="round" stroke-width="2" d="M250.966 167.19c0-4.063-.486-8.475.303-12.471.838-4.241 1.534-8.51 2.269-12.773 1.547-8.974 3.973-18.58 2.807-27.766-.297-2.339-.868-4.633-1.513-6.891-.251-.88-.681-2.179-1.143-2.958-.339-.573-.936-.724-1.193-1.11-.361-.54-.072 1.304 0 1.95.181 1.628.473 3.266.655 4.908.272 2.44.773 4.91.841 7.361.03 1.108.302 3.197.302.858 0-2.104-.344-4.262-.756-6.32-.365-1.823-.258-4.003-1.361-5.58-.123-.175-2.069-2.964-2.118-2.135-.089 1.513.555 2.587 1.21 3.933 1.561 3.209 2.679 7.189 3.025 10.74.384 3.936 1.204 7.86 1.496 11.799.22 2.965.017 6.02.017 8.992 0 8.211-.453 15.955-2.723 23.9-.515 1.803-1.174 3.489-1.815 5.244-.315.861-.605 1.723-.605.37 0-5.428.023-10.744 1.21-16.085 1.117-5.029 1.815-10.322 1.815-15.479 0-8.418.549-17.023-.067-25.413-.086-1.165-.469-4.629-.538-3.463-.076 1.301 0 2.63 0 3.933 0 6.266 1.876 12.453 2.101 18.741.095 2.672.017 5.36.017 8.034 0 2.682-.516 5.019-.841 7.647-.88 7.134-4.369 13.114-7.613 19.413-2.959 5.743-5.536 11.911-9.228 17.227-.751 1.082-1.774 2.243-2.269 3.479-.321.803.756-1.557 1.194-2.302 1.687-2.873 3.998-5.325 5.748-8.169 1.817-2.952 3.143-6.033 4.235-9.311 1.096-3.287 2.159-6.581 3.093-9.916.367-1.31 1.445-3.054 1.445-4.421 0-3.08.191 6.22-.47 9.227-1.533 6.968-5.785 12.688-9.984 18.287-2.559 3.412-5.176 7.364-8.269 10.236-.599.556-2.154 5.02-2.454 4.42"/><path stroke="#C6C6C8" stroke-linecap="round" stroke-width="2" d="M242.609 179.862c.127-1.265 1.325-2.507 1.889-3.609 1.354-2.647 2.8-5.243 4.154-7.89 2.5-4.885 5.686-9.556 7.533-14.751 2.974-8.362 5.589-16.863 8.331-25.284 2.464-7.57 3.399-15.703 3.399-23.627v.608c0 2.318-.217 4.506-.567 6.799-1.365 8.948-4.189 17.578-6.421 26.334-.16.629-1.986 6.752-2.077 4.7-.355-7.996-.168-15.592 1.889-23.417.808-3.077 1.843-6.151 1.888-9.359 0-.026.004-2.498-.084-2.476-.688.172-.289 4.33-.294 4.826-.046 4.608-.829 9.22-1.51 13.765-.928 6.186-3.638 24.635-3.777 18.381-.163-7.323-.756-14.607-.756-21.948 0-4.211-.264-8.355-.377-12.548-.009-.304-.404-2.434-.378-1.259.07 3.157.716 6.36 1.133 9.485.465 3.487 1.563 13.891 1.867 10.386.354-4.061.434-8.169.966-12.212.245-1.867.189-3.744.189-5.623v-.714c0 5.098-.756 10.199-.756 15.339 0 .782.084 1.519-.021.21-.376-4.699-1.112-9.326-1.112-14.059 0-1.67-.521-4.313.189-5.875.33-.726.566-.576.566.189 0 3.761-.045 8.28 1.322 11.834.662 1.721 1.718-4.161 1.91-4.847.528-1.885 1.025-4.844 2.434-6.253.981-.981.755.964.755 1.511v6.421c0 .506-.373 2.915.084 3.315.196.171.294-3.253.294-3.525 0-.172-.094-5.666.084-5.666.279 0-.41 2.742-.462 2.938-.619 2.331-.783 4.703-1.049 7.092-.16 1.442.61 5.016-.378 6.127-.165.187-.499-2.36-.545-2.727-.234-1.874-.294-3.697-.294-5.582 0-1.577-.142-2.892.755-4.239"/><path stroke="#C6C6C8" stroke-linecap="round" stroke-width="2" d="M267.654 114.216c5.377 0 10.654.126 15.967-.886 11.024-2.1 22.377-5.229 33.084-8.594 14.399-4.526 28.341-10.727 42.636-15.609 5.616-1.917 11.92-4.638 16.877-7.9 2.155-1.418 4.61-2.725 6.488-4.5 1.023-.968 2.304-2.1 3.638-2.586 1.753-.637.126.079-.813.383-3.634 1.178-6.775 3.013-10.127 4.788-2.89 1.53-5.629 3.349-8.642 4.644-4.237 1.822-8.596 3.279-12.759 5.267-9.586 4.578-20.83 7.925-31.193 10.246-7.613 1.705-14.898 4.457-22.407 6.559-3.17.888-6.472 2.157-9.672 2.825-3.403.711-7.052.69-10.509 1.054-1.616.17-3.175.521-4.812.43-1.044-.058 3.188-1.203 3.519-1.292 4.213-1.135 8.87-1.114 13.215-1.269.378-.014 5.232.226 5.147.311-1.916 1.916-8.656.934-10.965.982-5.642.116-11.121 1.159-16.661 2.13-.193.034-4.416.606-3.471-.024 2.736-1.824 5.997-2.515 9.12-3.423 2.52-.732 5.399-1.293 8.044-1.293 1.071 0-4.719 1.203-5.458 1.293-2.058.252-7.203 1.872-9.193.766-.513-.285.763-.943 1.293-1.197 2.305-1.105 4.979-1.568 7.493-1.891 2.747-.353 10.847-1.272 8.307-.168-5.229 2.274-12.011 2.157-17.572 3.328-2.25.474-7.56 1.146-1.987.646 8.807-.79 17.65-1.069 26.453-1.915 1.766-.17 3.612-.218 5.363-.527 1.129-.199-2.277-.335-3.424-.335-4.989 0-9.995.431-14.962.431-4.611 0 9.006-1.992 13.502-3.016 6.834-1.556 14.058-4.155 21.067-4.716 11.963-.957-47.887 2.944-35.885 2.944 1.739 0 3.718-.601 5.41-.861a290.678 290.678 0 0 1 20.707-2.442c5.688-.462 22.799-.958 17.093-.958-7.724 0-15.574 1.902-23.269 2.586-2.013.178-4.315.163-6.272.766-2.289.704 4.754-.603 7.11-1.03 8.015-1.451 16.063-3.242 24.155-4.213 1.287-.155 2.58-.263 3.878-.263 1.293 0-2.529.546-3.783.861-3.46.872-14.053 2.155-10.485 2.155 6.079 0 12.571-2.73 18.433-4.118 3.668-.868 8.059-2.346 11.874-2.346 1.221 0-2.404.433-3.591.718-6.458 1.556-12.822 3.477-19.223 5.243-5.099 1.407-20.457 5.173-15.537 3.232 6.419-2.531 12.935-4.795 19.726-6.105.582-.112 8.015-.964 4.477.383-2.828 1.078-5.997 1.442-8.953 1.964-7.583 1.338-15.189 2.461-22.814 3.519-5.991.83-12.305 1.668-18.146 3.303-.825.231-2.431.169-.862-.718 2.928-1.655 6.755-1.197 9.983-1.197 2.463 0 3.345 1.39.55 2.25-4.48 1.379-9.195 1.952-13.741 3.089-1.858.464-1.96.532-3.543-.599M172.309 242.824c1.579 0 2.312-.303 3.647-1.193 1.721-1.148 3.882-1.538 5.731-2.437 3.261-1.587 5.968-3.992 9.311-5.446 5.889-2.56 12.454-5.697 17.026-10.269 6.182-6.182 12.675-11.985 18.304-18.791 6.655-8.049 12.75-15.968 17.849-25.11 2.107-3.778 4.367-7.481 6.185-11.413.696-1.505 1.815-2.895 1.815-4.605"/><path fill="#fff" stroke="#171717" stroke-width="2" d="M376.086 37.72c9.415-2.896 19.352 2.601 21.901 12.115 2.549 9.514-3.308 19.243-12.909 21.443l-162.689 37.275-5.833-21.77 159.53-49.064Z"/><circle cx="9.015" cy="9.015" r="9.015" stroke="#171717" stroke-width="2" transform="rotate(75 163.685 272.743)"/><ellipse cx="125.78" cy="127.079" fill="#fff" stroke="#171717" stroke-width="2" rx="123.959" ry="123.96"/><ellipse cx="125.781" cy="127.079" stroke="#171717" stroke-width="2" rx="101.421" ry="101.422"/><path stroke="#171717" stroke-linecap="round" stroke-width="2" d="M241.004 80.144c4.771 0 9.109-.5 13.735-1.552 1.333-.302 2.467-1.21 3.731-1.716 1.122-.449 2.13-.752 3.187-1.321 1.267-.683 2.795-.985 4.143-1.37 6.308-1.803 12.587-4.754 18.754-7.116 12.117-4.64 24.66-8.272 36.914-12.48 5.467-1.878 11.264-2.927 16.839-4.458 5.322-1.46 10.56-3.119 15.915-4.457 7.11-1.778 14.382-4.223 21.693-5.035 5.676-.631 12.391-1.243 17.35 2.063 4.536 3.024 3.748 9.398 3.748 14.165 0 3.82-.762 7.785-3.797 10.268-.758.62-2.624.443-3.566.595-1.415.228-3.039.784-4.391 1.27-1.956.705-3.766 1.834-5.828 2.246-3.696.74-7.406 2.402-11.011 3.483-4.327 1.298-8.886 2.215-13.026 4.078-2.722 1.225-6.266 2.04-9.195 2.592-3.318.626-6.571 1.684-9.939 2.245-3.841.64-7.749 1.352-11.606 1.85-3.617.466-7.035 1.577-10.615 2.145-3.543.563-7.134 2.133-10.615 3.055-3.374.893-6.467 2.073-9.971 2.525-4.422.571-8.761 1.622-13.224 2.015-4.906.43-9.684 1.307-14.561 1.849-4.028.447-8.356 1.84-12.249 2.971-1.658.481-3.878 1.783-5.58 1.783M26.903 105.525c0-2.403-.082-4.772.27-7.147.212-1.434 1.093-2.854 1.888-4.046.872-1.309 1.393-2.778 2.217-4.12 1.267-2.065 2.416-4.22 3.716-6.264 1.193-1.874 2.895-3.684 3.776-5.724.809-1.872 2.26-3.772 3.522-5.35 2.945-3.681 5.515-7.693 8.616-11.253a115.898 115.898 0 0 1 8.51-8.826c3.214-2.991 6.866-5.34 10.37-7.956 5.026-3.752 10.201-7.15 15.584-10.31 3.085-1.81 6.829-2.56 10.309-3.326 4.294-.945 8.506-1.953 12.886-2.487 7.758-.946 15.504-1.14 23.316-1.14"/><path stroke="#171717" stroke-linecap="round" stroke-width="2" d="M129.137 27.212c3.558 0 7.124-.066 10.682 0 2.964.055 5.907.83 8.806 1.332 1.422.246 2.823.78 4.203 1.203 2.144.655 4.18 1.555 6.304 2.23 3.748 1.189 6.996 3.763 10.602 5.308 1.954.838 3.747 2.069 5.526 3.216a129.084 129.084 0 0 0 5.157 3.168 63.158 63.158 0 0 1 8.63 6.032c1.223 1.015 2.652 1.801 3.769 2.919a191.81 191.81 0 0 1 4.235 4.363c2.588 2.758 6.404 4.193 8.445 7.458.316.506.635 1.001.722 1.604.019.136.152.714.152.29"/><path stroke="#171717" stroke-linecap="round" stroke-width="2" d="M205.648 65.757c.074.666 1.111 1.66 1.476 2.23.811 1.269 1.803 2.422 2.567 3.721 1.174 2 2.305 4.02 3.641 5.92 3.131 4.453 5.229 9.94 6.785 15.125.867 2.89 1.163 5.883 1.844 8.806.526 2.26.695 4.576 1.3 6.817.548 2.034 1.028 4.102 1.587 6.144.175.635.248 1.312.546 1.908.162.324.23.496.032 0"/><path stroke="#171717" stroke-linecap="round" stroke-width="2" d="M225.714 114.263c0 1.758-.083 3.541.216 5.277.336 1.946.265 3.99.73 5.919.506 2.096.623 4.311.898 6.448.27 2.089.177 4.214.177 6.32 0 2.452-.691 4.833-1.227 7.218-.586 2.603-1.197 5.259-2.021 7.795-.925 2.846-2.034 5.612-3.136 8.389-.861 2.172-1.85 4.236-2.502 6.489-.222.765-.396 1.563-.642 2.302M142.414 226.715c2.761 0 5.614.347 8.213-.598 1.687-.614 3.473-1.4 5.254-1.796 1.62-.36 3.701-1.539 5.254-2.244 1.264-.575 2.977-.533 4.173-1.198 1.934-1.074 4.139-1.818 6.135-2.843 2.343-1.203 4.615-2.45 6.817-3.89 1.265-.827 2.645-2.23 4.024-2.76 1.832-.705 4.214-2.193 5.619-3.525 1.303-1.234 2.938-2.069 4.34-3.159 1.698-1.32 2.957-2.941 4.472-4.456 1.721-1.721 3.781-3.793 5.105-5.852 1.258-1.957 3.16-3.495 4.472-5.404 2.324-3.38 4.546-6.892 7.349-9.859 2.251-2.384 3.89-4.989 3.89-8.38"/><path stroke="#171717" stroke-linecap="round" stroke-width="2" d="M64.004 209.057c1.53.153 3.47 2.472 4.655 3.442 1.215.994 2.664 1.762 4.024 2.477 1.651.869 3.599 1.146 5.237 2.029 1.704.917 3.485 1.92 5.304 2.593 1.564.58 3.054 1.481 4.589 2.178 1.525.694 3.36.955 4.921 1.58 1.953.781 4.515 1.349 6.567 1.862 1.96.49 3.919 1.2 5.853 1.796 3.962 1.219 7.97 1.795 12.104 1.795 3.935 0 7.969.3 11.838.3 3.737 0 7.524-.3 11.206-.3 3.144 0 6.097-2.095 9.294-2.095"/><path stroke="#171717" stroke-linecap="round" stroke-width="2" d="M64.9 209.358c-2.169-2.169-4.227-4.311-6.351-6.518-1.568-1.628-2.842-3.538-4.273-5.287-.558-.682-1.238-.808-1.713-1.662-.438-.79-1.52-1.33-2.095-2.095-3.314-4.42-6.947-8.387-8.845-13.7-.69-1.935-1.904-3.807-2.46-5.753-.396-1.386-.986-3.206-1.563-4.489-2.708-6.019-4.831-12.248-6.817-18.555-1.039-3.3-1.92-6.569-2.394-10.009-.377-2.732-1.418-5.497-1.496-8.247-.11-3.813-.3-7.699-.3-11.439 0-2.958-.299-5.916-.299-8.895 0-1.327-.28-3.049.3-4.206M2.277 115.794c0-4.789.96-9.806 3.128-14.144 1.903-3.805 3.875-8.138 4.82-12.3.427-1.874 1.405-3.662 2.117-5.44.87-2.177 1.496-4.594 2.72-6.605 1.198-1.969 1.896-4.322 2.931-6.392 1.294-2.587 2.338-5.3 3.869-7.767 2-3.223 3.622-6.909 6.12-9.777 2.245-2.578 4.27-5.292 6.664-7.752 1.285-1.321 2.249-2.99 3.536-4.352.85-.9 1.644-1.915 2.463-2.857.523-.601 1.574-1.99 2.297-2.312.955-.424 1.551-1.685 2.161-2.448.89-1.113 1.743-2.407 2.75-3.415 1.89-1.89 3.834-3.636 6.317-4.745"/><path stroke="#171717" stroke-linecap="round" stroke-width="2" d="M50.965 27.663c2.064 0 3.95-1.072 5.606-2.176 2.505-1.67 5.165-3.183 7.722-4.745 3.737-2.284 7.55-4.485 11.575-6.256 4.646-2.044 9.194-5.396 14.25-6.408 5.055-1.01 9.95-2.598 15.112-3.264 3.757-.484 7.451-1.228 11.228-1.571 2.567-.234 5.108-.471 7.676-.665 2.371-.18 4.773-.042 7.133-.272 7.288-.711 15.318-.657 22.183 2.176 3.555 1.467 7.192 2.685 10.73 4.2 3.698 1.586 7.335 3.483 10.88 5.38"/><path stroke="#171717" stroke-linecap="round" stroke-width="2" d="M166.566 9.165c1.543.172 2.637 1.764 4.08 2.176 1.685.482 3.334 1.917 4.897 2.72 4.983 2.563 10.481 4.29 15.292 7.133 11.025 6.515 21.319 14.609 29.649 24.42 2.304 2.713 4.682 5.36 6.725 8.296 2.15 3.092 3.492 6.494 5.455 9.657 3.081 4.965 4.754 11.03 6.588 16.532.434 1.302.926 2.764 1.285 4.02.267.933.998 2.17 1.103 3.112.156 1.407 1.303 2.804 1.617 4.216.168.756.487 1.624.831 2.312"/><path stroke="#171717" stroke-linecap="round" stroke-width="2" d="M242.457 89.136c0 5.133 2.74 10.053 4.775 14.704 2.5 5.713 2.92 12.336 3.718 18.421 1.086 8.283.781 17.305-.741 25.523-.36 1.947-.462 4.264-1.284 6.09-.831 1.845-1.737 3.625-2.645 5.44-1.623 3.246-2.673 6.28-3.551 9.792"/><path stroke="#171717" stroke-linecap="round" stroke-width="2" d="M111.059 250.624h17.067c4.678 0 8.739-.83 13.318-1.678 6.593-1.22 13.517-1.569 19.946-3.355 3.482-.967 6.747-2.244 10.046-3.728 3.419-1.539 6.991-2.617 10.17-4.661 5.703-3.666 12.067-6.821 17.067-11.557 1.814-1.719 4.122-3.148 6.131-4.64 4.116-3.058 8.296-6.637 11.537-10.625 1.895-2.333 3.788-4.651 5.447-7.188 1.866-2.854 4.418-5.29 6.172-8.161 4.342-7.103 8.743-13.665 12.096-21.209.981-2.207 1.573-4.759 2.237-7.084.608-2.127 2.61-4.203 2.61-6.338M5.924 100.749c0 4.566-1.91 8.442-2.59 12.862-.612 3.983-1.139 7.631-1.139 11.744 0 6.907 2.618 13.306 3.376 20.133.559 5.023 1.725 10.03 3.045 14.913.867 3.206 2.28 6.259 3.356 9.404 1.578 4.618 2.9 9.207 4.763 13.732 2.979 7.232 7.684 12.491 12.967 18.165 1.962 2.108 3.022 4.998 4.95 7.167.83.933 1.49 1.891 2.216 2.899.312.434 1.835.829.746.829"/><path stroke="#171717" stroke-linecap="round" stroke-width="2" d="M34.258 210.36c2.597 2.338 5.035 5.366 7.995 7.25 4.438 2.824 8.532 6.174 12.883 9.155 4.963 3.4 9.911 6.598 15.1 9.672 4.035 2.392 8.328 3.962 12.49 5.986 3.355 1.633 7.078 2.587 10.438 4.267 3.483 1.742 8.178 1.558 11.931 2.444 5.523 1.304 11.175 2.008 16.777 2.631 1.659.184 12.438.249 12.303-.021M375.171 45.927c-.419 0-.85-.032-1.267.01-.9.09-1.725.628-2.46 1.113-.61.402-1.189.919-1.706 1.437-.332.331-.747.642-.854 1.122-.53 2.386-.269 4.945-.269 7.385 0 1.15.222 2.173.584 3.258.346 1.04 1.295 1.671 2.24 2.16 1.532.793 2.955 1.665 4.67 2.061 1.724.398 3.215.171 4.72-.718 1.769-1.046 3.058-2.331 4.062-4.107.608-1.076.923-2.375 1.192-3.572.298-1.324.458-3.009-.045-4.301-.449-1.157-1.198-2.27-2.065-3.154-.893-.91-2.087-2.02-3.323-2.425-.657-.215-1.303-.467-1.976-.628-.694-.166-1.447-.09-2.156-.09-.538 0-1.177-.098-1.706.02-.288.064-.604.16-.898.16"/><path fill="#fff" stroke="#fff" stroke-width="8" d="M126.68 173.416c23.688-1.656 41.283-22.793 39.594-46.95-.837-11.96-6.428-25.179-14.573-35.24-8.087-9.99-19.399-17.676-31.943-16.799-12.544.877-22.676 10.063-29.294 21.08-6.666 11.097-10.363 24.966-9.526 36.927 1.689 24.156 22.054 42.638 45.742 40.982Z"/><path stroke="#FFD424" stroke-linecap="round" stroke-width="2" d="M87.022 141.711c.03-.556 1.216.693 1.316.774 3.449 2.812 6.631 6.155 9.369 9.658.733.939 1.396 1.93 2.13 2.868.199.256.809.79.834 1.154.029.418-.657-.523-.948-.824-1.286-1.335-2.576-2.667-3.796-4.063-2.104-2.406-4.21-4.944-5.879-7.676-.283-.465-1.375-1.303-.84-1.401.362-.066 1.802 1.516 2.037 1.713a420.859 420.859 0 0 1 5.798 4.937c.322.279 1.297 1.064.904.901-.863-.359-1.869-1.757-2.466-2.387-2.474-2.608-4.802-5.373-6.817-8.353-.125-.185-.526-.717-.373-.555.9.954 1.932 1.756 2.962 2.563 2.552 2 5.054 4.064 7.62 6.046.322.249 1.211 1.082.944.774-.91-1.052-1.99-1.981-2.93-3.01-2.413-2.636-4.815-5.499-6.825-8.463-1.3-1.918 3.56 2.968 5.31 4.488 1.228 1.069 2.463 2.131 3.686 3.205.481.423 1.601 1.92 1.403 1.312-.221-.676-1.669-1.803-2.076-2.266-1.98-2.254-3.885-4.591-5.764-6.93-.307-.382-2.15-2.901-1.895-2.687 2.344 1.966 4.92 3.685 7.383 5.493.833.611 1.66 1.229 2.491 1.842.223.164.748.502.28-.069-2.095-2.553-4.531-4.786-6.554-7.419-.444-.579-.48-.631.185-.186 1.575 1.054 3.182 2.058 4.745 3.13 1.661 1.141 3.324 2.707 5.126 3.624 1.357.69-1.797-2.46-2.741-3.654-3.175-4.012-6.983-8.201-9.34-12.789-.204-.395.033-.209.217-.065 1.518 1.195 3.207 2.185 4.815 3.25 2.904 1.921 5.747 4.01 8.762 5.756.125.072.475.27.406.144-.212-.386-.607-.638-.92-.949-3.106-3.092-6.024-6.369-8.865-9.706-1.537-1.806-3.025-3.654-4.584-5.442-.738-.845-1-1.106.117-.268 3.216 2.412 6.622 4.561 9.802 7.019.091.07 1.21 1.115 1.407 1.014.148-.076-.191-.273-.3-.399-.38-.438-.759-.853-1.153-1.28-.997-1.078-1.955-2.181-2.926-3.282-.384-.437-1.769-1.333-1.19-1.277.603.057 1.934 1.485 2.301 1.78a148.44 148.44 0 0 1 6.692 5.678c.895.809 1.803 1.597 2.782 2.303.106.076.381.321.336.2-.207-.556-1.266-1.561-1.542-1.896-3.187-3.867-6.597-7.811-9.183-12.119 0-.001-.944-1.284-.245-.676 1.333 1.159 2.753 2.185 4.183 3.22 2.794 2.022 5.631 4.08 8.12 6.48 2.468 2.381-3.767-5.736-5.801-8.497-1.472-2-2.956-3.994-4.284-6.094-.331-.524-1.438-1.927-.893-1.632 2.714 1.472 5.198 4.056 7.592 5.999.542.44 1.164 1.173 1.81 1.481 1.446.689-1.969-2.53-2.996-3.76a200.68 200.68 0 0 1-6.348-8.015c-.466-.62-1.478-1.974-1.98-2.668-.385-.534-1.69-1.698-1.032-1.684.837.017 3.174 2.605 3.725 3.053 2.347 1.909 4.706 3.804 7.03 5.741 1.375 1.148 2.726 2.324 4.078 3.499.536.466 1.433 1.365.375.06-3.046-3.754-6.208-7.423-8.841-11.488-1.226-1.892 2.098 1.158 2.474 1.423 2.758 1.941 5.435 4.058 8.287 5.863.912.577.367-.267.07-.76-1.8-2.981-3.789-5.864-5.72-8.763-.77-1.155-1.601-2.283-2.273-3.501-.213-.387-.977-1.659.019-.793 3.207 2.788 6.311 5.702 9.613 8.38.425.344 1.404 1.557 1.284 1.023-.174-.77-1.396-1.906-1.83-2.469-2.516-3.264-5.572-6.42-7.672-9.974-.152-.258.517.305.752.491 1.36 1.08 2.803 2.051 4.209 3.07 1.4 1.014 2.781 2.055 4.161 3.097.054.04 1.708 1.363 1.496.884-1.316-2.97-3.875-5.55-5.625-8.287-.317-.496-1.439-1.812-.945-1.492 1.155.746 2.197 1.822 3.302 2.65 1.523 1.143 3.047 2.288 4.602 3.388.714.505 2.152 1.95 3.097 2.022.752.057-.482-1.441-.864-2.092-1.093-1.86-2.367-3.62-3.403-5.512-.265-.485-1.197-1.722-.686-1.51.313.13.847.805 1.097 1.012 1.759 1.457 3.713 2.768 5.623 4.021.249.164.703.341.507-.184-.809-2.166-2.235-4.233-3.332-6.259a177.667 177.667 0 0 1-2.668-5.094c-.196-.392-.839-1.52-.542-1.198 2.718 2.949 11.778 10.885 8.751 8.254-1.197-1.04-2.206-2.349-3.552-3.226-.609-.398.134.768.19.939.294.902-1.458-.58-1.736-.77-.19-.129-3.444-1.953-3.458-1.7-.011.21.777.773.911 1 .185.314-1.767-1.466-2.049-1.71-.457-.399-2.217-1.779-1.45-.233.716 1.444 1.375 2.899 1.796 4.462.492 1.827-4.615-2.278-4.116.213.271 1.35.786 2.652 1.072 4.006.117.556-.329.109-.499-.064-1.077-1.092-1.979-2.354-3.014-3.487-.148-.161-2.346-2.636-2.374-1.948-.114 2.786.443 5.657.528 8.446.009.29.343 4.766-.286 4.744-.376-.013-.75-1.299-.821-1.476-.864-2.171-1.676-4.365-2.498-6.552-.101-.268-2.01-4.848-1.912-3.107.214 3.797.75 7.605 1.473 11.336.393 2.028.577 4.789 1.445 6.688.732 1.602-1.814-3.022-2.764-4.506-.276-.432-.885-1.74-1.468-1.9-.436-.12-.562 3.37-.573 3.477-.328 3.166-1.276 6.313-1.489 9.478-.091 1.344.1-.885.132-1.11.26-1.778.317-3.551.456-5.337.137-1.767-.342-3.524.35-5.243.676-1.676.189-3.67.066-5.433-.084-1.197-.598-.54-1.335.007-1.162.86-2.36 1.927-3.104 3.184-1.835 3.104-3.451 6.579-4.708 9.95-1.419 3.806-1.923 7.621-2.702 11.591-.82 4.182-.536 8.242-.242 12.457l.265 3.778c.08 1.14.037.53-.019-.259-.706-10.099.42-20.151 5.78-28.945 1.423-2.335 3.008-4.532 4.597-6.751 1.149-1.604-.434.38-.846.8-1.698 1.73-3.137 3.248-4.387 5.353-1.628 2.743-3.148 5.671-4.381 8.616-1.147 2.739-1.956 5.627-2.695 8.498-.666 2.59-1.35 5.322-1.257 8.015.06 1.761.234 3.523.356 5.28.008.108.206 1.947.48 1.735.588-.455 1.05-2.247 1.277-2.785 1.82-4.31 3.653-8.614 5.477-12.922 4.24-10.008 9.011-19.822 13.096-29.89.448-1.103 1.825-3.625.414-1.141-3.699 6.516-6.135 13.875-8.324 21.01-.832 2.711-2.376 10.935-2.574 8.107-.313-4.471 1.046-9.363 1.834-13.743.122-.682.666-2.683.426-2.033-.621 1.686-.934 3.53-1.425 5.256-1.332 4.677-3.036 9.272-4.153 14.004-.031.131-.191 1.152-.247.364-.118-1.69-.111-3.397-.083-5.089.037-2.268.22-4.529.266-6.796.02-.987.369-3.817-.12-2.959-.207.363-.097 1.234-.085 1.614.06 1.805.24 3.613.366 5.415.222 3.174-.125 7.416 1.27 10.373.174.369.164-.804.175-1.212.07-2.614.104-5.229.206-7.842.085-2.193.462-8.736.654-6.55.308 3.479.633 6.949 1.843 10.258.1.274 2.13 5.077 2.647 3.723.758-1.983.035-4.788-.253-6.808-.067-.47-.442-1.456-.259-1.936.153-.404 2.735 1.881 2.741 1.886 3.717 3.16 7.432 6.324 11.161 9.471.687.579 1.426 1.276 2.255 1.66.58.268-.618-2.1-.631-2.133-1.152-2.766-2.493-5.969-2.659-9.014-.076-1.397 3.378 1.192 3.67 1.376 1.212.759 4.713 3.101 3.789 2.01-3.08-3.638-6.085-7.254-8.913-11.1-.591-.803-2.313-2.878-.23-1.517 3.628 2.371 7.361 4.699 10.824 7.306.259.195 1.045.751.827.511-1.167-1.291-2.401-2.506-3.532-3.834-1.514-1.776-3.024-3.578-4.413-5.454-.512-.692-1.419-1.681-1.674-2.541-.111-.376.707.338 1.04.545 1.732 1.079 3.444 2.189 5.164 3.287a110.554 110.554 0 0 1 4.749 3.192c.597.427 2.242 1.816 1.852 1.194-.883-1.405-2.191-2.633-3.241-3.904-1.925-2.328-3.909-4.684-5.586-7.202-.18-.27-1.135-1.51-.967-1.973.063-.173 3.136 2.049 3.162 2.067 3.513 2.446 6.963 5.211 10.611 7.444 1.128.691.279-.283-.078-.761-2.885-3.861-5.878-7.641-8.685-11.56-1.597-2.23-3.193-4.487-4.632-6.824-.041-.067-1.141-1.64-.962-1.9.145-.209 6.587 4.841 7.068 5.232.852.69 1.681 1.43 2.592 2.044.637.43-1.012-1.155-1.53-1.723a95.689 95.689 0 0 1-6.052-7.318c-.944-1.265-2.898-3.253-3.26-4.879-.244-1.1 1.983 1.086 2.893 1.752a173.174 173.174 0 0 1 10.603 8.397c1.486 1.276 3.019 2.532 4.428 3.895 1.48 1.431-.187.366-.868-.212-3.054-2.59-6.813-5.458-9.04-8.84-1.43-2.173 4.134 3.166 6.103 4.866a57.64 57.64 0 0 0 2.832 2.3c.03.022.806.688.844.571.122-.38.237-.325.655-.355 1.061-.074-.554-1.517-.765-1.751-2.084-2.312-4.34-4.691-5.732-7.514-.639-1.296 2.312 1.742 3.528 2.523 1.25.804 5.081 3.082 3.776 2.37-2.918-1.592-10.856-7.634-7.94-6.035.949.52 1.883 1.034 2.785 1.635 1.051.7 2.293 1.165 3.307 1.846.721.484-.486-.044-.708-.222-.088-.071-2.03-1.837-1.405-1.88 1.423-.1 2.922.606 4.24 1.038.983.323 1.087.389.015-.322-1.329-.88-2.744-1.77-4.244-2.325-.66-.244-1.122-.218-.451-.265.86-.06-1.676-.409-2.506-.641-.755-.212.837.269 1.027.36 2.971 1.433 5.643 3.482 8.316 5.392 2.935 2.097 5.807 4.527 7.953 7.457.089.12.959 1.763.692 1.584-.537-.36-1.789-1.867-1.3-1.442.762.662 1.339 1.56 1.898 2.39 1.175 1.74-2.817-1.43-2.977-1.548a389.424 389.424 0 0 1-4.122-3.076c-.396-.298-1.491-1.286-1.188-.894.802 1.04 1.611 2.081 2.17 3.274.165.352.214.562-.236.165-1.226-1.082-2.299-2.334-3.505-3.44-1.051-.964-2.178-1.837-3.26-2.765-.696-.596-.739-.656-.256.229 1.085 1.989 2.326 3.826 3.161 5.95.157.398.044.448-.308.194-1.102-.798-2.06-1.782-3.161-2.586-1.936-1.416-.577.27.007 1.162.245.373 1.276 2.665.994 2.366-2.005-2.124-3.785-4.585-5.994-6.505-1.488-1.294 2.029 3.384 2.931 5.137.583 1.133 1.105 2.285 1.626 3.447.009.02.458 1.103.422 1.084-.748-.415-1.404-1.595-1.936-2.215-1.054-1.228-2.143-2.445-3.327-3.55-.195-.183-.721-.723-.311-.028.957 1.62 2.001 3.178 2.886 4.843a113.666 113.666 0 0 1 2.271 4.54c.062.131 1.108 2.237.179 1.496-1.765-1.407-3.161-3.434-4.566-5.17-1.63-2.017-3.284-4.018-4.876-6.065-.049-.063-1.094-1.42-1.017-1.29.854 1.448 1.79 2.853 2.662 4.29 1.757 2.898 4.006 6.035 5.124 9.263.152.44-.893-.338-1.233-.656-2.148-2.001-4.106-4.21-6.085-6.375-.567-.62-2.172-2.538-1.759-1.806.656 1.16 1.504 2.236 2.226 3.356a59.374 59.374 0 0 1 2.488 4.278c.017.032 1.03 1.985.804 1.947-1.367-.233-3.317-2.358-4.276-3.139-3.151-2.568-6.232-5.223-9.352-7.83-.073-.06-2.592-2.422-2.93-2.119-.186.167 2.541 4.458 2.637 4.638 3.08 5.828 5.725 11.934 8.018 18.112.354.955.735 1.907.969 2.9.253 1.067-.815-.538-.925-.677-.803-1.015-1.637-2.004-2.437-3.02-.166-.211-.575-.986-.892-1.088-.214-.068.244.379.385.555a17.333 17.333 0 0 1 1.699 2.552c.247.453.589.953.721 1.458.154.594-1.048-.651-1.509-1.057-4.478-3.937-8.174-8.54-12.446-12.645-.125-.12-.921-.844-.478-.115a41.12 41.12 0 0 1 2.442 4.689c.221.495 3.415 7.369 2.97 7.632-.335.198-6.299-6.012-6.994-6.646-.415-.379-1.61-1.471-1.39-.954.762 1.793 1.611 3.515 2.279 5.356.977 2.692 1.6 5.492 2.575 8.179.381 1.048-1.575-1.027-1.82-1.27-1.151-1.144 3.473 5.182 2.041 4.42-.809-.43-1.244-2.387-1.731-3.168-.128-.207-4.429.497-4.811.51-1.132.038-2.906.288-3.914-.444-1.031-.748-1.815-2.047-2.634-3.006-.53-.619-2.145-2.764-1.804-.69.605 3.688 2.41 7.021 4.084 10.312 1.574 3.093 2.884 6.375 4.281 9.581.852 1.954 1.33 4.244 2.524 6.031.229.343-.354-.955-.527-1.175-.688-.873-.705-.522-.643.367.116 1.651.59 3.087.995 4.678.135.528.666 1.198.922 1.692.599 1.151 1.302 3.213 2.373 4.039.217.167.131-.555.066-.821-.313-1.279-.715-2.539-1.058-3.809-.098-.363-1.117-3.989-.416-3.483 1.29.931 2.572 2.192 4.054 2.808.41.17.413-.166.312-.492-.592-1.908-1.657-3.753-2.515-5.549-.801-1.677-3.189-6.715-2.417-5.025.761 1.665 2.785 3.765 4.236 4.86 1.684 1.272-.126-2.307-.358-2.819-.323-.711-1.166-1.65-.434-.365.084.146 1.274 2.012 1.341 1.489.277-2.157-1.559-4.945-2.314-6.912-.07-.182-.347-.65-.365-.456-.024.242.218.941.112.721a24.306 24.306 0 0 0-3.178-4.946c-.736-.883.35 1.984.393 2.074.763 1.651 4.234 5.909 3.072 4.509-2.319-2.792-9.697-10.803-7.176-8.191 1.84 1.906 4.202 3.546 6.42 4.98 2.869 1.854.847-2.283.26-3.53-.471-1.004-1.076-1.968-1.447-3.015-.179-.504-.292-.696.081-.253 1.963 2.326 4.969 4.156 7.658 5.523.149.076 1.239.767 1.019.078-.433-1.36-1.344-2.656-2.076-3.862a162.479 162.479 0 0 0-2.2-3.531c-.072-.111-.565-.922-.54-.828.26 1.02 1.209 2.394 2.145 2.917.252.14-.001-.591-.109-.858-.522-1.285-1.158-2.536-1.581-3.859-.501-1.568.069-.236.555.332.286.334 1.875 1.867 1.995.763.09-.83-.468-1.926.434-1.044.395.387.926 1.036 1.409 1.237"/><path stroke="#FFD424" stroke-linecap="round" stroke-width="2" d="M145.564 94.67c.119.697.736 1.31 1.16 1.841.945 1.184 1.718 2.45 2.482 3.756 1.866 3.191 2.836 6.38 3.803 9.912.285 1.042 2.03 5.227-.046 2.576-4.678-5.976-9.049-12.436-14.194-18.02-1.048-1.138 2.589 1.695 3.843 2.6 3.448 2.493 6.884 5.184 9.981 8.109.229.216 2.449 2.774 2.021 2.615-4.084-1.515-7.975-4.907-11.461-7.425-2.106-1.522-8.507-5.944-6.236-4.681 3.265 1.814 6.052 5.311 8.587 7.966 2.262 2.369 4.795 4.995 6.295 7.956.446.88-.444.284-.79.027-2.411-1.793-4.589-3.985-6.782-6.028-2.823-2.63-5.897-5.45-8.151-8.618-1.351-1.899 3.089 3.488 4.581 5.277 1.554 1.864 3.898 4.076 4.691 6.443.246.733-.728-.023-.826-.098-2.514-1.907-4.689-4.328-6.905-6.557-2.542-2.555-9.953-10.414-7.658-7.635 2.586 3.133 5.222 6.174 7.563 9.508 2.184 3.11 4.334 6.322 6.269 9.598.543.92-.18.552-.781.153-2.592-1.719-4.798-4.102-6.891-6.373-1.633-1.773-3.153-3.625-4.628-5.529-.136-.176-2.045-3.09-2.441-2.967-.094.029.006.2.035.294.126.402.679 1.656.784 1.91.71 1.72 1.231 3.489 1.795 5.26.164.513 2.64 6.836 1.833 7.208-1.176.543-5.525-8.983-6.011-9.955-.69-1.379-2.041-5.743-1.934-4.204.227 3.236 1.007 6.442 1.745 9.589 1.017 4.332 1.877 8.738 3.115 13.013.982 3.388.141-1.556-.03-2.457-.371-1.953-.582-4.592-1.576-6.364-.175-.312-.037 3.112-.014 3.436.217 3.105.657 6.18.903 9.28.215 2.705-1.107-2.035-1.211-2.361-1.645-5.145-2.876-10.536-3.767-15.865-.15-.898-.19-1.858-.432-2.74-.181-.663-.124 1.37-.11 2.057.086 4.468.497 8.93.808 13.386.033.465.541 5.687-.048 2.944-.902-4.195-2.207-17.01-1.908-12.73l.868 12.421c.133 1.899.276 3.797.399 5.697.067 1.032.296 2.343-.019 3.366-.059.19-.379-.207-.452-.393-.833-2.131-1.351-4.377-1.791-6.617-.872-4.433-1.63-8.939-1.986-13.446-.171-2.153.052.753.083 1.196.301 4.307.688 8.616.89 12.928.025.54.21 4.86-.142 2.215-.567-4.263-1.211-8.523-1.588-12.808-.096-1.087-.166-2.175-.242-3.263-.021-.295-.061-1.018-.014-.197.315 5.502.206 11.065-.001 16.567-.156 4.166-.282 8.586-1.463 12.627-.077.26-.198.689-.299.176-.385-1.956-.571-3.99-.785-5.967-.945-8.744-2.594-35.082-1.981-26.309.694 9.921 1.433 19.841 2.081 29.765.011.164.054 4.717-.438 2.83-1.501-5.754-1.731-12.027-2.144-17.93-.118-1.691-.26-3.386-.299-5.082-.009-.417-.206-1.842.096-2.268.119-.169.199.373.224.578.218 1.809.27 3.655.397 5.471.373 5.34.773 10.68 1.12 16.022.054.826.285 5.074-.433 1.896-1.244-5.511-2.531-22.449-2.137-16.813.32 4.571.549 9.137.295 13.719-.195 3.534-.331 7.617-1.563 10.994-.147.403-.351.553-.575.068-1.09-2.352-1.137-5.536-1.411-8.043-.614-5.623-.985-11.281-1.339-16.926-.067-1.069.019-2.439.342-.575.728 4.206.774 8.638 1.014 12.891.182 3.215.386 6.58-.065 9.787-.265 1.891-.429-2.509-.449-2.796l-.524-7.483c-.042-.608.6 3.375.659 3.756.833 5.358 2.906 21.49 1.991 16.145a99.06 99.06 0 0 0-1.783-8.314c-.426-1.63-.898-3.25-1.303-4.885-.109-.44-.125-1.66-.402-1.301-.633.821.492 4.731.593 5.641.287 2.61.894 5.194 1.055 7.814.184 2.994-1.623-1.14-2.043-1.921-.839-1.56-1.815-3.254-2.257-4.987-.354-1.387 1.017 2.688 1.717 3.937 1.281 2.283 2.698 4.686 4.317 6.751 1.247 1.591-.707-.192-1.213-.579-2.286-1.747-4.654-3.278-7.054-4.85-1.026-.672.083.72.291.927a42.068 42.068 0 0 0 4.646 3.972c.113.084 1.776 1.28 1.14.74-2.754-2.335-5.706-4.497-8.53-6.754-.663-.53-1.349-1.009-2.041-1.497-.21-.147-.5-.717-.599-.481-.186.447 4.324 3.865 4.658 4.155 2.143 1.863 4.388 3.624 6.493 5.526 1.576 1.422-.811 0-1.353-.358-2.742-1.808-5.296-3.902-8.008-5.759-1.538-1.053-.56-.459.295.375 1.451 1.416 3.087 2.566 4.611 3.89.586.509.79 1.009-.114.39-2.496-1.71-5.034-3.964-7.787-5.237-1.153-.533-1.817-1.651-2.733-2.495-.463-.426-.941-.514-1.39-.864-.282-.221-.597-.387-.877-.631-.078-.067-.53-.667-.617-.536-.492.732 4.433 5.928 4.974 6.451 5.284 5.105 11.642 10.022 18.46 12.916 1.934.82 3.663 1.072 5.775.924 3.022-.211 6.021-.272 8.916-1.259.292-.1 1.532-.334 1.728-.559.046-.053-1.955-.31-2.087-.335-3.414-.635-6.814-1.18-10.18-2.059-2.017-.526-4.051-1.023-6.05-1.612-.506-.149-1.888-.375-2.289-.801-.217-.23.623-.1.938-.122 1.258-.088 2.491-.113 3.748.02 1.923.204 3.877.533 5.731 1.098.952.29.718.43-.291.501-2.314.162-4.624-.268-6.919-.506-1.356-.14-1.377-.158-.06-.25 1.633-.114 3.245-.141 4.861.169.575.111 1.638.318.281.178-3.478-.357-7.174-1.571-10.503-2.63-.254-.08-2.382-.738-1.99-.765 2.771-.194 5.549-.217 8.327-.187 2.986.033 6.023.456 9.007.247 1.828-.128-3.488-1.828-3.565-1.857-4.322-1.603-8.694-3.079-13.079-4.499-1.427-.463-2.023-.627-.144-.443 5.401.53 21.033 5.221 15.927 3.382-3.462-1.247-6.892-2.633-10.303-4.015-.942-.382-5-1.712-1.778-1.784 4.2-.095 8.493.067 12.664.584.275.035 4.614.738 2.967.189-3.048-1.017-6.147-1.883-9.193-2.905-1.2-.403-2.976-.948-.673-1.127 3.368-.26 6.705-.459 10.078-.21.722.054 2.519.438 3.193-.025.433-.297-2.563-1.943-2.582-1.954-2.679-1.537-5.428-2.967-8.079-4.552-1.539-.921.198-.465 1.107-.346 4.109.537 8.112 1.589 12.047 2.875 1.2.392 2.38.846 3.566 1.277.456.166.768.296-.01.256-5.656-.295-11.312-2.019-16.764-3.422a255.943 255.943 0 0 1-6.209-1.672c-.725-.207-2.136-.381-2.776-.88-.276-.216.694.105 1.032.196a42.1 42.1 0 0 1 5.65 1.965c.733.315 7.503 2.855 7.173 4.135-.343 1.334-10.192-.903-11.228-1.08a91.922 91.922 0 0 1-4.629-.892c-.505-.114-2.037-.282-1.52-.318 5.668-.396 11.354.057 16.959.963 2.454.396-.578-.845-1.388-1.26-3.899-1.998-7.96-3.845-12.078-5.347-.074-.027-1.427-.357-1.537-.543-.115-.194.45-.05.675-.047.514.007 1.972.062 2.381.088 4.099.261 8.449 1.102 12.376 2.329 2.391.747.472.121-.717-.36-2.943-1.19-5.967-2.243-8.882-3.492-3.84-1.646 8.402.107 12.503.907 1.028.2 3.147 1.085.912.106-2.821-1.238-5.653-2.477-8.411-3.851-2.813-1.402.586-.715 1.802-.508 5.084.867 9.94 2.422 14.768 4.198.613.225 1.296.421 1.863.76.589.352-1.259-.545-1.869-.859-3.899-2.002-7.92-3.745-11.848-5.688-.795-.393-2.634-1.149-.631-.931 3.763.41 7.397 1.511 10.951 2.768 1.072.379 2.136.777 3.205 1.161 1.662.599-.777-.743-.846-.789-3.008-1.959-6.001-3.94-8.918-6.034-1.443-1.035-.524-.79.741-.518 2.312.497 4.418 1.51 6.678 2.106 1.173.309-2.245-1.982-2.469-2.16-1.269-1.009-4.042-2.475-4.801-3.976-.127-.25.564.05.829.14 1.452.492 2.861 1.121 4.276 1.708 2.718 1.13 5.373 2.334 8.038 3.566 3.111 1.438-5.571-4.151-7.635-6.887-.779-1.034 1.316-.067 1.514.021 2.17.965 4.313 2.214 6.544 3.02.554.2.355-.242.16-.549-1.362-2.141-3.327-3.991-5.084-5.793-2.509-2.573-5.116-5.056-7.537-7.714-1.176-1.291 2.717 2.195 4.088 3.276 2.353 1.854 4.436 3.932 6.518 6.075 1.759 1.812-1.693-1.069-1.882-1.239-2.977-2.681-6.112-5.213-8.734-8.253-1.445-1.676-.313-1.02 1.029-.255 3.956 2.256 7.829 4.686 11.474 7.424.511.384 2.934 2.412 1.441.592a81.768 81.768 0 0 1-5.868-8.113c-.061-.096-1.498-2.345-.717-1.548 2.023 2.065 4.452 3.731 6.589 5.675 1.049.954 4.106 3.913 3.035 2.982-2.362-2.054-4.487-4.46-6.58-6.777-.884-.979-1.761-1.963-2.664-2.924-.229-.243-.949-.895-.805-.594 1.828 3.832 3.591 7.646 4.972 11.668.134.39 2.032 4.93.817 4.819-1.221-.111-2.637-.992-3.694-1.48-3.45-1.594-6.916-3.128-10.439-4.557-2.23-.904-4.739-2.236-7.118-2.739-1.739-.368 3.247 1.474 4.749 2.424 2.101 1.329 3.975 2.96 6.017 4.372.023.016.596.534.235.139-1.514-1.659-3.067-3.278-4.612-4.908-3.104-3.276-6.39-6.532-9.106-10.149-.553-.737-.04-.176.286.051 1.166.812 2.347 1.575 3.453 2.472.199.162 3.746 3.196 3.541 3.343-.819.59-1.975-.432-2.935-.742-4.318-1.391-8.604-2.881-12.899-4.342-4.543-1.546-9.084-2.809-13.7-4.074-.47-.129.986.043 1.455.181 1.918.563 3.777 1.355 5.607 2.152 3.963 1.727 7.958 3.523 11.756 5.596 2.761 1.506-1.755-.932-2.2-1.147-4.726-2.279-9.533-4.348-14.333-6.461-.616-.272-2.423-.706-1.79-.935.557-.202 2.042.472 2.489.617 3.125 1.018 6.068 2.482 9.168 3.557.784.272 1.72.7 2.575.64 1.021-.071 1.042-1.466.99-2.218-.05-.705.172-1.694.472-2.337.237-.506.046-.033-.117.136-.697.716-1.766.169-2.319-.404-2.053-2.127-2.165-6.366-1.969-9.163.066-.942.295-2.095-.115-2.452-.998-.868 2.53-2.353 1.466-2.28-3.27.23-6.82 3.44-8.431 6.174-.706 1.197-1.38 2.36-2.04 3.578-.336.619.031-.195.143-.378.465-.757.93-1.358 1.589-1.949 5.848-5.242 14.349-15.772 22.82-8.409"/><path stroke="#FFD424" stroke-linecap="round" stroke-width="2" d="M155.743 145.61c.819-.267-.374-5.823-.447-6.386a155.684 155.684 0 0 1-1.048-11.349c-.048-.868.189-.106.327.232.58 1.417 1.29 2.748 2.066 4.068 1.398 2.379 2.791 4.864 4.344 7.145 1.083 1.591-2.01-3.29-2.825-5.032-.381-.813-1.217-4.264-1.042-1.751l.28 3.995.036.521c-.198-2.831.075-5.71-.089-8.546-.195-3.38-1.197-13.488-.961-10.111.205 2.932.59 5.817.865 8.732.15 1.591.121 4.304 1.035 5.709.276.424.335.249.773.342.433.092.563 1.511.652 1.835.784 2.864.512-2.328.364-3.079-.626-3.186-1.138-6.166-1.366-9.432-.197-2.817-.948-5.621-1.907-8.263-.357-.985-.468-.012-.421.453.215 2.109.997 4.418 1.707 6.412.067.188.82 2.049.532 2.153-1.071.389-3.367-4.995-3.611-5.557-1.234-2.837-2.055-5.85-3.293-8.675-.877-2.003.871 4.309 1.674 6.343.925 2.346 1.947 4.65 2.878 6.994.03.076.145.294.114.218-.662-1.602-1.744-3.074-2.515-4.63-.92-1.857-1.774-3.752-2.628-5.641-.258-.571-.849-2.347-.743-1.729.193 1.128.899 2.279 1.416 3.266 1.268 2.417 2.688 4.751 3.978 7.157.945 1.764 1.806 3.571 2.72 5.351.141.274.893 1.271.878 1.635-.026.631-.885-.912-1.231-1.441-1.83-2.795-3.507-5.695-5.289-8.521-1.121-1.777-2.22-3.589-3.506-5.254-.787-1.019-.974-.894-.507.219 1.686 4.026 4.306 7.623 5.921 11.7.149.377 1.588 4.181.14 2.818-3.638-3.428-5.635-8.782-7.668-13.232-.236-.517-1.034-1.98-.947-1.418.241 1.563 1.207 3.243 1.852 4.648 2.134 4.652 5.159 9.11 6.896 13.922.161.447.27.766-.103.149-1.114-1.844-2.246-3.671-3.273-5.567-2.351-4.34-3.751-9.122-6.071-13.443-.977-1.82.997 4.031 1.828 5.923 1.604 3.652 3.867 7.305 5.005 11.142.585 1.971-2.124-3.525-3.06-5.356a335.07 335.07 0 0 1-2.298-4.56c-.003-.006-.649-1.319-.676-.985-.207 2.49 1.146 5.277 1.762 7.623.347 1.317.626 2.651.929 3.978.051.225.116.901.02.691-1.212-2.625-1.928-5.442-2.806-8.186-.118-.37-.415-1.191-.397-.212.031 1.649.218 3.307.333 4.952.116 1.66 1.013 6.459.235 4.988-.785-1.488-1.114-3.404-1.509-5.012-.848-3.448-1.34-6.95-2.002-10.433-.039-.204-1.02-5.461-1.116-3.23-.208 4.793.554 9.746.888 14.526.057.815.651 6.969.148 2.93-.628-5.051-1.542-10.071-2.272-15.108-.477-3.3-.004 3.433.021 3.73.745 9.051 2.389 17.992 3.345 27.02.123 1.157.463 2.646.268 3.826-.127.77-.776-1.365-1.024-2.105-2.491-7.424-3.691-15.193-4.236-22.985l.068.97c.325 4.661.691 9.32.977 13.983.098 1.595-.189 2.479-.846.426-1.223-3.818-1.975-7.747-2.683-11.686-.729-4.054 1.595 8.492.171 12.357-.251.681-.517-.318-.572-.497-.713-2.354-1.122-4.804-1.467-7.234-.128-.905-1.1-14.237-1.914-14.228-.438.005.529 10.621.59 11.267.255 2.688.561 5.368.762 8.061.085 1.135.648 4.396.069 3.416-.974-1.649-1.283-4.141-1.617-5.951-.85-4.599-1.256-9.267-1.624-13.923-.219-2.77-.402-5.542-.596-8.313-.062-.887-.165-2.359-.04-.577.508 7.271 1.594 14.45 2.477 21.681.445 3.642.807 7.291 1.077 10.95.071.968.721 3.584.161 4.526-.37.624-.909-1.16-1.161-1.841-1.099-2.967-1.952-6.032-2.728-9.096a173.226 173.226 0 0 1-2.035-9.088c-.224-1.138-.625-4.578-.649-3.418-.093 4.473.582 9.168 1.009 13.613.243 2.532.626 5.043.925 7.568.027.227.174 2.705.079 2.553-.764-1.227-1.008-3.136-1.317-4.488-.888-3.884-1.561-7.815-2.179-11.75-.471-3.001-1.633-12.035-1.421-9.004.406 5.812 1.348 11.474 2.586 17.164.497 2.287 1.028 4.569 1.483 6.865.001.004.322 2.196.251 2.174-.453-.146-.933-2.395-1.003-2.616a164.245 164.245 0 0 1-2.383-8.202c-.496-1.914-.906-3.853-1.476-5.749-.505-1.678-.322-.155-.266.641.294 4.2.979 8.341 1.371 12.527.028.297.6 4.685-.084 3.045-1.41-3.376-2.015-7.289-2.739-10.862-.104-.517-.173-1.826-.609-2.248-.076-.073-.04.209-.035.314.048.9.126 1.801.189 2.701.277 3.965.782 7.746 1.689 11.614.152.65.467 1.426.514 2.099.063.904-.489-1.746-.721-2.622-.37-1.396-.77-2.79-1.251-4.153-.193-.547-.636-2.204-.623-1.624.079 3.53 1.686 7.166 2.754 10.479.37 1.148 1.483 4.581.993 3.479-1.014-2.278-2.465-4.59-3.939-6.594-.47-.641-1.889-2.42-1.56-.485.557 3.275 1.758 6.388 2.787 9.53.354 1.081 1.318 3.932.269 1.028-1.83-5.07-3.676-10.123-5.459-15.21-1.172-3.341-.823.17-.497 1.59.538 2.341 1.594 4.828 2.611 7.012 1.768 3.8-3.17-7.986-6.071-11.011-1.081-1.127.146 2.782.207 2.968.483 1.451 1.214 2.766 1.873 4.138.524 1.091.291.663.768 1.685.183.391.946 1.384.576 1.161-.967-.581-6.141-6.238-3.452-1.455a35.17 35.17 0 0 0 4.97 6.791c.1.106 1.749 1.637 1.741 1.645-.547.56-6.016-.065-1.787.323 1.861.171 3.753.495 5.473 1.257.192.085 2.035 1.102 1.031 1.2-1.037.102-2.083.146-3.122.219-.106.007 2.319-.384 2.895-.443 2.826-.288 5.676-.411 8.509-.609 1.411-.099 3.569.022 4.459-1.33 1.299-1.974 2.123-4.254 3.435-6.262 2.082-3.185 4.079-6.755 6.697-9.543 1.256-1.337.701.193-.009.877-3.693 3.558-9.231 5.453-13.671 7.854-3.025 1.636-6.355 3.163-9.198 5.11-.104.071-.468.463-.099.205 1.105-.773 2.271-1.413 3.445-2.079 3.16-1.79 6.321-3.26 9.703-4.565 1.895-.732 2.039-.666-.163-.512-3.692.258-7.414.384-11.071.972-.145.023-1.333.259-.394.028 1.72-.425 3.344-1.288 4.981-1.946 2.038-.819 4.309-1.569 6.25-2.6.433-.23-.975-.16-1.466-.138-2.557.117-5.115.367-7.657.663-2.262.263-4.51.611-6.761.953-.772.118-3.041.594-2.327.276 4.915-2.187 10.088-3.963 15.143-5.808 2.276-.831 9.019-3.457 6.909-2.264-1.001.565-2.232.923-3.301 1.305-3.994 1.425-8.074 2.591-12.148 3.761-2.642.759-10.505 3.164-7.983 2.071 4.784-2.074 9.63-4.028 14.571-5.698 1.526-.516 5.676-2.615 7.419-1.847.354.155-.484.627-.819.82-1.582.915-3.346 1.508-5.035 2.19-.672.271-3.31 1.49-3.261 1.472 3.919-1.447 8.216-1.922 12.341-2.418.204-.025 4.553-.429 3.13.29-4.263 2.153-8.919 3.361-13.08 5.791-.2.117-4.066 2.193-2.414 2.077 2.65-.185 5.271-.849 7.943-1.036.41-.028 2.691-.371 1.175.229-2.559 1.013-5.281 1.511-7.75 2.776-.722.369-1.687.861-.256.781 2.097-.117 4.192-.293 6.287-.44 1.864-.13-1.23 1.076-1.487 1.164-3.443 1.181-6.929 2.914-9.881 5.059-1.584 1.151 1.479-.027 1.855-.158 1.085-.377 4.496-.88 3.351-.8-1.113.078-2.173.149-3.247.468-1.448.43 3.013-.279 4.499-.555 1.109-.206 3.528-1.1 4.639-.777.353.103-2.341.608-2.711.656-.17.022-1.97.378-1.024.312 1.18-.082 2.323-.417 3.513-.5 1.363-.095 1.892-.165.707.813-1.031.851 1.679-2.104 2.705-2.96 1.2-1.001 2.416-1.986 3.608-2.98 1.52-1.268 3.663-1.965 4.973-3.472 1.143-1.314 2.391-2.553 3.144-4.164a14.78 14.78 0 0 1 2.184-3.333c.381-.438.487-.143.245.266-.664 1.119-1.002 2.378-1.634 3.521-1.012 1.83-1.953 3.206-3.488 4.696-1.479 1.436-2.715 3.214-4.322 4.501-.841.673-1.423 1.618-2.334 2.198-.597.381-1.079.848-1.698 1.193-.272.153.566-.427.72-.629 1.755-2.314 3.721-4.286 5.924-6.253 1.822-1.627 3.294-3.473 4.979-5.196 1.272-1.3 2.567-2.611 3.263-4.285.321-.773.542-1.576.853-2.35.083-.205.673-1.499.523-1.422-.314.161-.381.561-.703.657-1.095.325-1.936-4.488-2.057-4.959-1.069-4.14-2.012-8.343-2.353-12.614-.111-1.397.036-1.617.23-.157.773 5.814-.368 12.123-1.526 17.804-.084.414-.479 3.725-.885 3.921-.476.23-1.443-7.929-1.477-8.392-.216-2.91-.916-6.269-.187-9.147.399-1.58.582-.743.452.406-.296 2.623-.525 5.259-.849 7.877-.213 1.73-.519 6.929-.64 5.19a66.024 66.024 0 0 1 .065-9.984c.168-2.063 1.677-8.105 1.199-6.092-1.504 6.34-3.519 12.844-6.105 18.817-.602 1.391-.337-3.01-.313-3.257.429-4.305 1.517-8.652 2.912-12.742.642-1.882-.384.906-.56 1.297-2.013 4.496-4.408 8.786-6.612 13.185-.297.592-.86 2.487-1.585 2.796-.776.331.177-1.691.447-2.491 1.368-4.049 3.172-8.208 5.331-11.907.335-.574 1.081-1.909 1.156-.448.117 2.284-.686 4.763-.893 7.045-.092 1.017-.171 2.031-.296 3.046-.035.289-.142 1.065.075.871 1.391-1.246 1.887-3.721 2.984-5.241.064-.089 1.272-1.917 1.413-1.625.227.468-.077 1.352-.185 1.794-.52 2.115-1.037 4.216-1.479 6.351-.505 2.441-.552 5.27-1.346 7.628-.922 2.736 2.012-5.413 3.095-8.09.92-2.273 2.019-4.768 3.544-6.722.52-.665.343-.24.191.496-.591 2.849-1.973 5.571-2.794 8.366a139.158 139.158 0 0 0-1.212 4.495c-.042.164-.573 2.152-.365.845.57-3.582 1.694-7.138 2.765-10.597.766-2.475 1.934-4.903 2.578-7.404.589-2.289-.42 1.145-.471 1.758-.062.746.282-2.608.309-2.849.179-1.586.374-3.168.659-4.739.005-.032.416-2.163.315-2.156-.172.012-.549 1.299-.583 1.369-1.065 2.186-2.517 4.216-3.742 6.312-5.023 8.593-10.017 17.133-15.45 25.478-.488.75-2.764 4.894-2.48 1.926.745-7.798 3.2-15.449 5.234-22.983.66-2.445 1.305-4.887 1.832-7.365.147-.695.616-1.846.526-2.581-.074-.602-.746.958-1.085 1.461-1.975 2.92-3.881 5.889-6.007 8.703a80.655 80.655 0 0 1-6.112 7.199c-1.06 1.106-2.196 2.364-3.637 2.982-.718.309-1.105.277-1.226-.55-.481-3.293-.163-6.837.312-10.101 1.227-8.43 3.6-16.697 5.173-25.07.333-1.77.742-3.563.955-5.354.066-.562.25-1.554-.253-.576-5.297 10.3-11.711 19.953-16.51 30.528-.12.265-.522 1.667-.518 1.478.018-.856.335-1.774.554-2.583 1.248-4.604 2.62-9.176 3.9-13.772 1.622-5.825 3.702-11.751 4.697-17.729.153-.918.086-.586-.17-.003-1.164 2.66-2.575 5.24-3.921 7.809-.827 1.578-14.108 27.201-14.274 27.121-1.392-.671.624-8.002.824-8.836 1.197-5.004 2.701-9.934 3.931-14.934.374-1.519-.038-1-.764-.003-2.756 3.79-4.737 8.338-7.048 12.409-1.52 2.68-3.26 5.451-4.378 8.336-.819 2.11-.09.14.145-.958.702-3.286 1.444-6.619 1.79-9.963.057-.539.57-5.487-.031-2.882-.64 2.776-2.012 5.586-1.81 8.495"/><path stroke="#171717" stroke-linecap="round" stroke-width="2" d="M118.145 167.036c.62-.169 1.254-.92 1.742-1.283 1.906-1.418 3.877-2.743 5.745-4.215 2.117-1.667 7.919-7.303 5.841-5.587-1.193.984-2.023 2.967-2.875 4.232-1.65 2.451-3.06 5.067-4.636 7.567-.104.164-1.157 2.099-.733 1.636 1.635-1.78 3.884-2.994 5.705-4.594 2.158-1.896 4.433-3.889 6.081-6.26.273-.393 1.19-1.727.439-.564-.707 1.094-1.43 2.246-1.946 3.443-.132.307-1.123 2.798-.728 3.071 1.017.703 8.044-9.216 8.79-10.126.18-.219 1.698-2.624 1.257-1.564-.802 1.931-1.792 3.717-2.4 5.744-.53 1.768-1.651 3.86-1.802 5.688-.056.669 1.271-1.052 1.481-1.293 4.544-5.227 8.674-10.265 11.745-16.523.095-.193.798-2.037.315-1.156-.782 1.426-1.284 2.959-1.72 4.521-.406 1.455-.527 2.996-.78 4.482-.249 1.461.837-.023 1.23-.592 1.27-1.837 2.176-4.085 3.225-6.061 1.382-2.603 2.896-5.266 3.892-8.048.019-.053.471-1.595.605-1.504.238.159.043 1.011-.011 1.203-.48 1.696-.85 3.345-1.272 5.064a26.227 26.227 0 0 1-1.382 4.086c-.58 1.354.125-.013.345-.543.58-1.395.78-2.93 1.436-4.282 1.139-2.346 2.359-4.814 3.222-7.277.949-2.708.643-5.649.448-8.449"/><path stroke="#171717" stroke-linecap="round" stroke-width="2" d="M119.013 168.31c2.225-.155 4.426-.874 6.546-1.523.814-.249 3.08-.446 3.699-1.157.684-.788-2.033.531-2.969.993-.349.172-3.137 1.445-3.099 1.989.018.255 4.361-.743 4.536-.789 2.904-.757 5.746-1.892 8.736-2.296 1.234-.166-.95.058-1.217.077-.63.044-2.47.038-1.877.253.796.289 2.058-.357 2.75-.628 2.462-.966 4.858-2.124 7.255-3.24.599-.279 2.319-.637 2.658-1.304.057-.111-.874.014-.906.02a13.89 13.89 0 0 0-3.282 1.015c-.392.182-1.193.503-1.419.92-.183.337.794.056 1.145-.097 3.43-1.495 6.454-4.435 9.234-6.897.474-.419 1.925-1.634 1.48-1.186-.473.477-1.183.798-1.714 1.212-.774.602-2.912 2.039-2.828 3.244.027.383 3.003-2.764 3.162-2.962a461.594 461.594 0 0 0 4.069-5.104c.68-.867 1.272-1.873 2.031-2.673 1.18-1.245-2.456 2.398-3.62 3.657a44.719 44.719 0 0 0-2.591 3.028c-.041.052-.81 1.313-.781 1.311.343-.024.933-.944 1.107-1.151.884-1.059 1.663-2.192 2.474-3.307 1.474-2.025 2.925-4.025 4.031-6.279.511-1.042.51-2.323.719-3.446.28-1.505.689-2.994.943-4.501.339-2.018.964-3.97 1.309-5.993.176-1.032.78-2.333.706-3.384l-.262-3.753-.153-2.189c-.035-.499.16.048.174.241.148 2.12.299 5.126 1.258 6.993"/><path stroke="#171717" stroke-linecap="round" stroke-width="2" d="m123.774 163.594-13.885.971-.771.054c1.575-.111 2.963.263 4.513.534 2.415.422 4.891.694 7.335.837 2.844.167-1.98.414-2.618.459l-4.989.348c1.69-.118 3.332-.252 4.99.202 3.918 1.071-7.999-1.444-11.955-2.365-.218-.051-3.396-.987-3.279-1.121.502-.577 3.381.466 3.866.58 3.564.839 7.193 1.516 10.774 2.285.843.18 3.307.781 2.447.841"/><path stroke="#171717" stroke-width="1.5" d="M162.283 126.745c1.544 22.078-14.521 41.187-35.882 42.681-21.361 1.493-39.93-15.193-41.473-37.271-1.544-22.078 13.748-52.244 35.109-53.737 21.361-1.494 40.703 26.25 42.246 48.327Z"/><path stroke="#171717" stroke-linecap="round" stroke-width="1.5" d="m136.699 84.08-17.304 26.36M83.466 127.056c-.132-1.895-.148-3.57.864-5.274.434-.731.688-1.893.947-2.721.302-.966.742-1.894 1.13-2.828a77.138 77.138 0 0 0 2.388-6.518c.62-1.984 1.138-4.077 2.145-5.933 1.975-3.642 3.621-7.512 6.307-10.722 1.228-1.467 2.574-2.758 3.835-4.207.977-1.125 1.93-2.247 3.038-3.246 1.332-1.202 2.908-2.121 4.233-3.33 1.689-1.54 3.516-2.627 5.697-3.337 1.91-.622 4.378-.401 6.387-.542 1.935-.135 3.783-.316 5.704.076 2.135.435 3.509 1.366 5.299 2.568 2.916 1.958 5.861 3.939 8.543 6.186 1.337 1.12 2.843 2.128 4.205 3.203.643.507 1.18 1.122 1.898 1.531.504.287 1.658.814.375.543M147.176 91.072c.081 1.165 1.721 2.635 2.339 3.628.718 1.154 1.619 2.245 2.182 3.492.991 2.193 2.573 4.126 3.712 6.229 1.114 2.058 2.196 4.118 3.003 6.342.441 1.217.927 2.357 1.211 3.612.221.98.369 2.105.728 3.036a23.355 23.355 0 0 1 1.447 6.534c.151 2.151.684 4.354.836 6.525.069.989.361 2.226.214 3.209-.101.673-.646 1.467-.6 2.127"/><path stroke="#171717" stroke-linecap="round" stroke-width="1.5" d="M162.468 133.557c.284 4.063-1.056 7.509-2.631 11.181-1.826 4.256-3.17 8.669-6.916 11.67-1.475 1.181-2.785 2.571-4.29 3.712-.599.454-1.421 1.182-1.911 1.746-.553.636-1.297.98-1.882 1.553-.595.582-1.727.917-2.468 1.31-.749.398-1.563.632-2.345.965-1.553.662-3.091 1.193-4.666 1.801"/><path stroke="#171717" stroke-linecap="round" stroke-width="1.5" d="m136.21 167.436-2.6.182c-.848.059-2.247.149-3.04.497-1.555.68-3.495.466-5.088 1.061-1.127.422-2.696.526-3.896.61-.975.068-1.897.179-2.854.01-1.026-.182-1.958-.562-2.902-.977-.845-.372-1.821-.766-2.633-1.207-1.662-.901-3.672-1.459-5.507-1.932-.877-.226-2.121-.75-2.926-1.165-1.116-.575-2.234-1.018-3.283-1.761-1.791-1.268-3.677-3.18-4.82-5.066-.867-1.431-2.22-2.442-3.201-3.758-.204-.272-1.619-1.593-1.534-1.599"/><path stroke="#171717" stroke-linecap="round" stroke-width="1.5" d="M92.961 153.64c-.634-.688-1.053-1.918-1.56-2.735-.785-1.262-1.818-2.466-2.671-3.7-.819-1.184-1.742-2.463-2.36-3.764-.636-1.342-.984-3.063-1.357-4.508-.626-2.419-.832-4.701-.98-7.231-.134-2.284.143-4.627.095-6.927-.064-3.028.46-6.203 1.25-9.093M136.563 84.09c-2.524.176-4.335 3.364-5.01 5.535-.706 2.276-2.049 4.077-3.242 6.102-.624 1.06-1.389 2.085-2.047 3.137a158.559 158.559 0 0 0-3.288 5.551c-.647 1.135-1.434 2.147-2.155 3.221-.263.392-.304.788-.538 1.197"/></svg>