<svg width="402" height="253" viewBox="0 0 402 253" fill="none" xmlns="http://www.w3.org/2000/svg">
<path d="M251.9 106.294C256.348 106.294 260.575 105.016 264.975 104.527C269.735 103.998 274.599 103.582 279.305 102.662C286.299 101.293 293.328 99.8897 300.37 98.716C315.02 96.2745 329.384 92.969 343.723 89.0583C357.114 85.4061 371.015 82.5275 383.509 76.2803C386.594 74.7377 389.374 72.6315 392.16 70.6343C393.263 69.8431 395.636 67.7084 395.726 66.1769C395.809 64.7673 396.138 65.2013 395.28 65.5826C394.086 66.1132 392.846 67.2859 391.681 67.9763C385.898 71.4034 379.837 74.2975 373.67 76.9407C366.892 79.8455 360.111 82.068 352.951 83.858C342.329 86.5135 331.954 89.5707 321.073 91.1384C318.441 91.5175 315.763 91.5869 313.115 91.7988C310.224 92.03 307.387 92.6902 304.498 92.9214C298.6 93.3932 292.915 95.5278 287.262 97.0981C284.33 97.9126 281.482 98.7774 278.513 99.4589C275.992 100.037 273.444 100.356 270.985 101.176C266.887 102.542 262.777 104.299 258.801 105.996C256.299 107.064 253.41 107.76 250.712 108.06C249.929 108.147 248.071 107.773 249.688 107.185C253.76 105.704 258.019 104.397 262.235 103.388C264.213 102.915 266.258 102.527 268.211 101.985C269.487 101.63 267.075 101.836 266.758 101.836C263.103 101.836 259.457 101.705 255.945 102.876C254.833 103.247 253.894 103.322 252.726 103.322C252.287 103.322 254.453 102.989 254.905 102.876C257.733 102.169 266.504 101.836 263.589 101.836C260.322 101.836 257.098 103.025 253.865 103.025C253.232 103.025 255.927 102.609 256.242 102.546C259.669 101.861 263.142 101.16 266.527 100.284C274.277 98.2786 281.912 95.858 289.706 94.044C291.727 93.5734 293.704 93.1898 295.748 92.8553C296.081 92.8009 297.947 92.6242 296.722 92.6242C292.004 92.6242 287.922 93.1446 283.416 94.7043C281.593 95.3354 279.731 95.933 277.935 96.6359C277.545 96.7884 276.43 97.3398 277.522 97.3788C281.947 97.5368 286.423 97.4272 290.828 97.0156C295.027 96.6232 299.035 94.8215 303.144 93.9614C307.222 93.1078 311.277 92.366 315.36 91.5841C322.251 90.2646 329.034 88.948 335.765 86.9121C344.282 84.3362 352.784 81.9748 361.42 79.8463C363.383 79.3624 365.457 78.7113 367.496 78.6576C368.422 78.6333 368.291 78.7518 367.479 78.9548C364.269 79.7572 360.917 79.4514 357.656 79.9949C351.508 81.0196 345.267 81.4716 339.133 82.5868C333.27 83.6529 327.617 85.4192 321.799 86.681C317.822 87.5434 313.896 88.4204 309.979 89.504C308.972 89.7823 299.479 91.6781 299.479 92.7728C299.479 93.2682 314.884 91.7605 316.384 91.7327C316.648 91.7278 318.768 91.7235 317.507 91.9638C316.171 92.2182 314.623 92.327 313.264 92.327C309.57 92.327 305.689 94.2621 302.137 95.1501C296.957 96.445 291.647 98.2532 286.734 100.35C285.61 100.83 284.244 101.539 282.986 101.539C282.332 101.539 284.296 101.549 284.951 101.539C294.518 101.387 303.714 97.0832 312.95 95.1501C323.43 92.9566 334.022 91.1503 344.383 88.4639C350.414 86.9005 356.084 85.4223 361.849 82.9665C366.808 80.8544 371.813 78.8895 376.691 76.594C377.314 76.301 378.484 75.719 379.2 75.719C379.959 75.719 377.698 75.9832 376.939 75.9832C374.794 75.9832 368.391 76.4918 370.533 76.5775C373.674 76.7032 376.629 76.4594 379.679 75.686C381.459 75.2349 382.812 74.1465 384.434 73.6059" stroke="#C6C6C8" stroke-width="2" stroke-linecap="round"/>
<path d="M250.275 167.19C250.275 163.127 249.788 158.715 250.577 154.719C251.415 150.478 252.111 146.209 252.846 141.946C254.394 132.972 256.82 123.366 255.653 114.18C255.356 111.841 254.786 109.547 254.141 107.289C253.889 106.409 253.46 105.11 252.998 104.331C252.659 103.758 252.062 103.607 251.804 103.221C251.444 102.681 251.733 104.525 251.804 105.171C251.985 106.799 252.277 108.437 252.46 110.079C252.731 112.519 253.232 114.989 253.3 117.44C253.331 118.548 253.603 120.637 253.603 118.298C253.603 116.194 253.258 114.036 252.846 111.978C252.482 110.155 252.589 107.975 251.485 106.398C251.363 106.223 249.416 103.434 249.367 104.263C249.278 105.776 249.922 106.85 250.577 108.196C252.139 111.405 253.256 115.385 253.603 118.936C253.987 122.872 254.807 126.796 255.099 130.735C255.318 133.7 255.115 136.755 255.115 139.727C255.115 147.938 254.663 155.682 252.393 163.627C251.878 165.43 251.219 167.116 250.577 168.871C250.263 169.732 249.972 170.594 249.972 169.241C249.972 163.813 249.996 158.497 251.183 153.156C252.3 148.127 252.998 142.834 252.998 137.677C252.998 129.259 253.546 120.654 252.931 112.264C252.845 111.099 252.461 107.635 252.393 108.801C252.316 110.102 252.393 111.431 252.393 112.734C252.393 119 254.269 125.187 254.494 131.475C254.589 134.147 254.51 136.835 254.51 139.509C254.51 142.191 253.995 144.528 253.67 147.156C252.789 154.29 249.301 160.27 246.056 166.569C243.098 172.312 240.521 178.48 236.829 183.796C236.078 184.878 235.055 186.039 234.56 187.275C234.239 188.078 235.316 185.718 235.753 184.973C237.44 182.1 239.752 179.648 241.502 176.804C243.318 173.852 244.644 170.771 245.737 167.493C246.833 164.206 247.896 160.912 248.83 157.577C249.196 156.267 250.275 154.523 250.275 153.156C250.275 150.076 250.466 159.376 249.804 162.383C248.271 169.351 244.02 175.071 239.821 180.67C237.262 184.082 234.645 188.034 231.552 190.906C230.953 191.462 229.398 195.926 229.098 195.326" stroke="#C6C6C8" stroke-width="2" stroke-linecap="round"/>
<path d="M241.918 179.862C242.044 178.597 243.243 177.355 243.806 176.253C245.16 173.606 246.607 171.01 247.961 168.363C250.461 163.478 253.647 158.807 255.494 153.612C258.467 145.25 261.082 136.749 263.824 128.328C266.289 120.758 267.223 112.625 267.223 104.701C267.223 103.444 267.223 104.896 267.223 105.309C267.223 107.627 267.007 109.815 266.657 112.108C265.292 121.056 262.468 129.686 260.236 138.442C260.076 139.071 258.25 145.194 258.159 143.142C257.803 135.146 257.991 127.55 260.047 119.725C260.856 116.648 261.89 113.574 261.936 110.366C261.936 110.34 261.939 107.868 261.852 107.89C261.163 108.062 261.563 112.22 261.558 112.716C261.512 117.324 260.729 121.936 260.047 126.481C259.119 132.667 256.409 151.116 256.27 144.862C256.108 137.539 255.515 130.255 255.515 122.914C255.515 118.703 255.251 114.559 255.137 110.366C255.129 110.062 254.733 107.932 254.76 109.107C254.83 112.264 255.476 115.467 255.893 118.592C256.357 122.079 257.455 132.483 257.76 128.978C258.113 124.917 258.193 120.809 258.725 116.766C258.971 114.899 258.914 113.022 258.914 111.143C258.914 110.686 258.914 109.02 258.914 110.429C258.914 115.527 258.159 120.628 258.159 125.768C258.159 126.55 258.243 127.287 258.138 125.978C257.762 121.279 257.026 116.652 257.026 111.919C257.026 110.249 256.504 107.606 257.215 106.044C257.545 105.318 257.781 105.468 257.781 106.233C257.781 109.994 257.736 114.513 259.103 118.067C259.765 119.788 260.82 113.906 261.012 113.22C261.54 111.335 262.038 108.376 263.446 106.967C264.428 105.986 264.202 107.931 264.202 108.478C264.202 110.618 264.202 112.758 264.202 114.899C264.202 115.405 263.829 117.814 264.286 118.214C264.481 118.385 264.58 114.961 264.58 114.689C264.58 114.517 264.486 109.023 264.663 109.023C264.943 109.023 264.254 111.765 264.202 111.961C263.583 114.292 263.418 116.664 263.153 119.053C262.993 120.495 263.763 124.069 262.775 125.18C262.609 125.367 262.275 122.82 262.229 122.453C261.995 120.579 261.936 118.756 261.936 116.871C261.936 115.294 261.793 113.979 262.691 112.632" stroke="#C6C6C8" stroke-width="2" stroke-linecap="round"/>
<path d="M266.962 114.216C272.34 114.216 277.616 114.342 282.93 113.33C293.954 111.23 305.306 108.101 316.014 104.736C330.413 100.21 344.354 94.0087 358.65 89.1272C364.265 87.2097 370.569 84.4889 375.527 81.2273C377.682 79.8093 380.137 78.5025 382.014 76.7267C383.038 75.7586 384.318 74.6266 385.653 74.1413C387.405 73.5041 385.778 74.2199 384.839 74.5243C381.206 75.7018 378.065 77.5375 374.713 79.3121C371.822 80.8424 369.084 82.661 366.071 83.9564C361.833 85.778 357.474 87.2347 353.311 89.223C343.725 93.8013 332.482 97.1476 322.118 99.469C314.506 101.174 307.221 103.926 299.711 106.028C296.542 106.916 293.239 108.185 290.04 108.853C286.637 109.564 282.988 109.543 279.531 109.907C277.914 110.077 276.356 110.428 274.719 110.337C273.675 110.279 277.906 109.134 278.238 109.045C282.451 107.91 287.108 107.931 291.452 107.776C291.831 107.762 296.685 108.002 296.599 108.087C294.684 110.003 287.944 109.021 285.635 109.069C279.993 109.185 274.513 110.228 268.973 111.199C268.781 111.233 264.557 111.805 265.502 111.175C268.238 109.351 271.499 108.66 274.623 107.752C277.143 107.02 280.022 106.459 282.667 106.459C283.738 106.459 277.947 107.662 277.208 107.752C275.151 108.004 270.006 109.624 268.016 108.518C267.502 108.233 268.779 107.575 269.309 107.321C271.614 106.216 274.288 105.753 276.801 105.43C279.548 105.077 287.648 104.158 285.108 105.262C279.88 107.536 273.097 107.419 267.537 108.59C265.286 109.064 259.977 109.736 265.55 109.236C274.357 108.446 283.199 108.167 292.003 107.321C293.769 107.151 295.615 107.103 297.365 106.794C298.494 106.595 295.089 106.459 293.942 106.459C288.952 106.459 283.946 106.89 278.98 106.89C274.368 106.89 287.985 104.898 292.482 103.874C299.316 102.318 306.539 99.7185 313.548 99.1578C325.512 98.2007 265.661 102.102 277.663 102.102C279.402 102.102 281.381 101.501 283.074 101.241C289.949 100.183 296.847 99.3615 303.781 98.7987C309.469 98.3371 326.58 97.8411 320.874 97.8411C313.149 97.8411 305.3 99.7425 297.605 100.427C295.592 100.605 293.29 100.59 291.333 101.193C289.044 101.897 296.086 100.59 298.443 100.163C306.458 98.7116 314.506 96.9209 322.597 95.9499C323.885 95.7954 325.178 95.6866 326.475 95.6866C327.768 95.6866 323.947 96.2325 322.693 96.5484C319.233 97.42 308.639 98.703 312.208 98.703C318.287 98.703 324.779 95.9724 330.641 94.5854C334.309 93.7174 338.7 92.2393 342.515 92.2393C343.735 92.2393 340.11 92.6717 338.924 92.9575C332.466 94.5128 326.102 96.4344 319.701 98.2002C314.601 99.6069 299.243 103.373 304.164 101.432C310.583 98.9007 317.098 96.6367 323.89 95.3275C324.472 95.2153 331.905 94.3627 328.367 95.7105C325.539 96.7877 322.37 97.1518 319.413 97.6736C311.831 99.0116 304.225 100.135 296.599 101.193C290.609 102.023 284.295 102.861 278.453 104.496C277.628 104.727 276.023 104.665 277.591 103.778C280.52 102.123 284.346 102.581 287.574 102.581C290.038 102.581 290.92 103.971 288.125 104.831C283.644 106.21 278.93 106.783 274.384 107.92C272.526 108.384 272.423 108.452 270.841 107.321" stroke="#C6C6C8" stroke-width="2" stroke-linecap="round"/>
<path d="M171.617 242.824C173.196 242.824 173.929 242.521 175.264 241.631C176.986 240.483 179.147 240.093 180.996 239.194C184.257 237.607 186.963 235.202 190.307 233.748C196.196 231.188 202.761 228.051 207.333 223.479C213.514 217.297 220.008 211.494 225.636 204.688C232.292 196.639 238.387 188.72 243.486 179.578C245.592 175.8 247.853 172.097 249.671 168.165C250.367 166.66 251.486 165.27 251.486 163.56" stroke="#C6C6C8" stroke-width="2" stroke-linecap="round"/>
<path d="M375.395 37.7191C384.809 34.8237 394.746 40.321 397.296 49.835C399.845 59.3489 393.988 69.0782 384.387 71.2779L221.697 108.553L215.864 86.7829L375.395 37.7191Z" fill="white" stroke="#171717" stroke-width="2"/>
<ellipse cx="9.01525" cy="9.01523" rx="9.01525" ry="9.01523" transform="matrix(0.258818 0.965926 -0.965926 0.25882 384.078 44.0444)" stroke="#171717" stroke-width="2"/>
<ellipse cx="125.088" cy="127.079" rx="123.959" ry="123.96" fill="white" stroke="#171717" stroke-width="2"/>
<ellipse cx="125.089" cy="127.079" rx="101.421" ry="101.422" stroke="#171717" stroke-width="2"/>
<path d="M240.312 80.1444C245.084 80.1444 249.422 79.6439 254.048 78.5925C255.38 78.2897 256.514 77.3815 257.779 76.8756C258.9 76.4271 259.909 76.1236 260.965 75.5549C262.233 74.8724 263.761 74.5699 265.109 74.1846C271.416 72.3825 277.695 69.4313 283.863 67.0693C295.979 62.429 308.523 58.7969 320.777 54.5885C326.243 52.7111 332.041 51.6616 337.616 50.1311C342.938 48.6702 348.176 47.0123 353.53 45.6737C360.641 43.8961 367.913 41.4507 375.223 40.6385C380.9 40.0077 387.615 39.3958 392.574 42.7021C397.109 45.7257 396.322 52.1 396.322 56.8668C396.322 60.6863 395.56 64.6518 392.524 67.1353C391.767 67.7553 389.901 67.5777 388.959 67.7296C387.543 67.9579 385.92 68.5139 384.567 69.0008C382.612 69.7048 380.801 70.8337 378.74 71.246C375.044 71.9852 371.333 73.6479 367.728 74.7294C363.402 76.0273 358.843 76.9442 354.703 78.8071C351.981 80.0319 348.437 80.8462 345.507 81.399C342.189 82.025 338.937 83.0829 335.569 83.6443C331.727 84.2845 327.819 84.9957 323.963 85.4933C320.346 85.96 316.927 87.0713 313.348 87.6394C309.804 88.2019 306.213 89.7723 302.733 90.6936C299.358 91.5868 296.266 92.7672 292.761 93.2195C288.34 93.79 284 94.8412 279.538 95.2335C274.632 95.6649 269.853 96.5407 264.977 97.0825C260.949 97.5301 256.621 98.9238 252.727 100.054C251.07 100.535 248.85 101.837 247.147 101.837" stroke="#171717" stroke-width="2" stroke-linecap="round"/>
<path d="M26.2114 105.525C26.2114 103.122 26.1293 100.753 26.4812 98.3778C26.6935 96.9442 27.5746 95.5239 28.3692 94.3321C29.2419 93.023 29.7627 91.5544 30.5869 90.2114C31.8538 88.1468 33.0023 85.9919 34.303 83.9479C35.4958 82.0735 37.1979 80.2643 38.079 78.2239C38.8875 76.3516 40.3386 74.4516 41.6003 72.8745C44.5459 69.1925 47.1158 65.181 50.2163 61.6213C52.9328 58.5023 55.6943 55.6194 58.7273 52.7955C61.9405 49.8039 65.5922 47.4547 69.0964 44.8388C74.1225 41.087 79.2978 37.6888 84.6801 34.5296C87.766 32.7183 91.5093 31.9687 94.9893 31.2031C99.2834 30.2584 103.496 29.2498 107.876 28.7157C115.634 27.7696 123.38 27.5769 131.191 27.5769" stroke="#171717" stroke-width="2" stroke-linecap="round"/>
<path d="M128.445 27.2121C132.004 27.2121 135.57 27.1463 139.128 27.2121C142.092 27.267 145.034 28.0416 147.934 28.5435C149.356 28.7896 150.757 29.3248 152.137 29.7465C154.281 30.4017 156.317 31.3019 158.44 31.9761C162.189 33.166 165.437 35.74 169.043 37.2854C170.996 38.1225 172.79 39.3538 174.569 40.5014C176.264 41.595 177.98 42.6555 179.726 43.6694C182.773 45.4389 185.655 47.4592 188.355 49.7005C189.578 50.7158 191.007 51.5024 192.125 52.6198C193.55 54.0448 194.973 55.5046 196.359 56.9827C198.947 59.7414 202.763 61.176 204.804 64.4414C205.12 64.9469 205.44 65.442 205.526 66.0454C205.546 66.1812 205.679 66.7594 205.679 66.3342" stroke="#171717" stroke-width="2" stroke-linecap="round"/>
<path d="M204.957 65.7574C205.031 66.4235 206.068 67.4162 206.433 67.987C207.243 69.2556 208.236 70.4089 208.999 71.7084C210.173 73.7079 211.304 75.7273 212.64 77.6272C215.772 82.0808 217.87 87.5673 219.425 92.7531C220.292 95.6427 220.589 98.6358 221.27 101.559C221.796 103.819 221.964 106.135 222.569 108.376C223.118 110.41 223.597 112.478 224.157 114.52C224.331 115.155 224.404 115.832 224.702 116.428C224.864 116.752 224.933 116.924 224.735 116.428" stroke="#171717" stroke-width="2" stroke-linecap="round"/>
<path d="M225.022 114.263C225.022 116.021 224.94 117.804 225.239 119.54C225.574 121.486 225.503 123.53 225.969 125.459C226.475 127.555 226.591 129.77 226.867 131.907C227.137 133.996 227.043 136.121 227.043 138.227C227.043 140.679 226.353 143.06 225.816 145.445C225.231 148.048 224.62 150.704 223.795 153.24C222.87 156.086 221.761 158.852 220.659 161.629C219.798 163.801 218.809 165.865 218.157 168.118C217.936 168.883 217.762 169.681 217.516 170.42" stroke="#171717" stroke-width="2" stroke-linecap="round"/>
<path d="M141.723 226.715C144.484 226.715 147.336 227.062 149.936 226.117C151.623 225.503 153.409 224.717 155.19 224.321C156.81 223.961 158.891 222.782 160.444 222.077C161.707 221.502 163.42 221.544 164.617 220.879C166.551 219.805 168.756 219.061 170.752 218.036C173.095 216.833 175.367 215.586 177.569 214.146C178.834 213.319 180.213 211.916 181.592 211.386C183.424 210.681 185.806 209.193 187.212 207.861C188.514 206.627 190.15 205.792 191.551 204.702C193.249 203.382 194.509 201.761 196.024 200.246C197.745 198.525 199.804 196.453 201.128 194.394C202.386 192.437 204.288 190.899 205.601 188.99C207.924 185.61 210.147 182.098 212.949 179.131C215.201 176.747 216.84 174.142 216.84 170.751" stroke="#171717" stroke-width="2" stroke-linecap="round"/>
<path d="M63.3125 209.057C64.8431 209.21 66.7828 211.529 67.9678 212.499C69.1826 213.493 70.6318 214.261 71.9914 214.976C73.6426 215.845 75.5903 216.122 77.2286 217.005C78.9322 217.922 80.7132 218.925 82.5324 219.598C84.0969 220.178 85.587 221.079 87.1213 221.776C88.6465 222.47 90.481 222.731 92.0426 223.356C93.9952 224.137 96.5572 224.705 98.61 225.218C100.57 225.708 102.528 226.418 104.462 227.014C108.425 228.233 112.433 228.809 116.566 228.809C120.501 228.809 124.536 229.109 128.404 229.109C132.141 229.109 135.928 228.809 139.61 228.809C142.755 228.809 145.708 226.714 148.904 226.714" stroke="#171717" stroke-width="2" stroke-linecap="round"/>
<path d="M64.2087 209.358C62.04 207.189 59.982 205.047 57.8575 202.84C56.2893 201.212 55.0158 199.302 53.5845 197.553C53.0262 196.871 52.3467 196.745 51.872 195.891C51.4335 195.101 50.3511 194.561 49.7771 193.796C46.4625 189.376 42.8297 185.409 40.932 180.096C40.2411 178.161 39.0272 176.289 38.4713 174.343C38.0753 172.957 37.4858 171.137 36.9084 169.854C34.2002 163.835 32.0772 157.606 30.0917 151.299C29.0528 147.999 28.1721 144.73 27.6975 141.29C27.3207 138.558 26.2797 135.793 26.2011 133.043C26.0922 129.23 25.9019 125.344 25.9019 121.604C25.9019 118.646 25.6026 115.688 25.6026 112.709C25.6026 111.382 25.3232 109.66 25.9019 108.503" stroke="#171717" stroke-width="2" stroke-linecap="round"/>
<path d="M1.58594 115.794C1.58594 111.005 2.54494 105.988 4.714 101.65C6.61655 97.8448 8.58846 93.512 9.53454 89.3492C9.9602 87.4763 10.9387 85.6877 11.6501 83.9091C12.5206 81.7328 13.1465 79.3158 14.3702 77.3054C15.5687 75.3363 16.267 72.9828 17.3018 70.9132C18.5957 68.3255 19.6392 65.6128 21.1703 63.1459C23.1706 59.9233 24.7924 56.237 27.2905 53.3688C29.536 50.7906 31.561 48.0767 33.9546 45.6166C35.2397 44.2958 36.2035 42.6274 37.4907 41.2645C38.3407 40.3645 39.1349 39.3503 39.9538 38.4085C40.4771 37.8067 41.5277 36.4178 42.2508 36.0964C43.2052 35.6722 43.8017 34.4109 44.4117 33.6483C45.3019 32.5355 46.1545 31.2406 47.162 30.2332C49.0514 28.3437 50.9957 26.5975 53.4785 25.4882" stroke="#171717" stroke-width="2" stroke-linecap="round"/>
<path d="M50.2734 27.6629C52.3372 27.6629 54.2238 26.5908 55.8798 25.4868C58.3842 23.8172 61.0449 22.3043 63.6017 20.7418C67.339 18.4579 71.1521 16.2567 75.1771 14.4857C79.8223 12.4418 84.3706 9.08972 89.4271 8.07841C94.4812 7.06759 99.3767 5.48038 104.539 4.81434C108.295 4.32961 111.989 3.58612 115.766 3.24274C118.333 3.0094 120.875 2.77166 123.443 2.57784C125.814 2.3989 128.216 2.53607 130.576 2.30583C137.864 1.5948 145.894 1.64851 152.759 4.48189C156.313 5.94867 159.951 7.16677 163.488 8.68287C167.186 10.2678 170.824 12.1648 174.368 14.0626" stroke="#171717" stroke-width="2" stroke-linecap="round"/>
<path d="M165.875 9.16528C167.418 9.33668 168.512 10.929 169.955 11.3413C171.64 11.8226 173.288 13.2576 174.851 14.0614C179.835 16.6244 185.332 18.3508 190.144 21.194C201.169 27.7087 211.462 35.8027 219.793 45.6141C222.096 48.3274 224.474 50.9739 226.517 53.9103C228.668 57.0018 230.009 60.4038 231.972 63.5666C235.054 68.5316 236.727 74.5963 238.561 80.0985C238.995 81.4007 239.487 82.8632 239.845 84.1181C240.112 85.052 240.844 86.2889 240.949 87.2311C241.105 88.6379 242.252 90.0353 242.565 91.4472C242.733 92.2028 243.053 93.0712 243.397 93.7593" stroke="#171717" stroke-width="2" stroke-linecap="round"/>
<path d="M241.766 89.1364C241.766 94.2693 244.506 99.1887 246.541 103.84C249.041 109.553 249.46 116.176 250.258 122.261C251.345 130.544 251.04 139.566 249.518 147.784C249.157 149.731 249.055 152.048 248.233 153.874C247.403 155.719 246.496 157.499 245.589 159.314C243.966 162.56 242.916 165.594 242.038 169.106" stroke="#171717" stroke-width="2" stroke-linecap="round"/>
<path d="M110.367 250.624C116.056 250.624 121.745 250.624 127.434 250.624C132.113 250.624 136.173 249.794 140.753 248.946C147.345 247.726 154.27 247.377 160.699 245.591C164.181 244.624 167.445 243.347 170.744 241.863C174.164 240.324 177.736 239.246 180.914 237.202C186.617 233.536 192.982 230.381 197.981 225.645C199.796 223.926 202.104 222.497 204.112 221.005C208.228 217.947 212.408 214.368 215.649 210.38C217.544 208.047 219.438 205.729 221.097 203.192C222.963 200.338 225.515 197.902 227.269 195.031C231.61 187.928 236.012 181.366 239.365 173.822C240.346 171.615 240.938 169.063 241.602 166.738C242.21 164.611 244.212 162.535 244.212 160.4" stroke="#171717" stroke-width="2" stroke-linecap="round"/>
<path d="M5.23217 100.749C5.23217 105.315 3.32318 109.191 2.6431 113.611C2.03045 117.594 1.50391 121.242 1.50391 125.355C1.50391 132.262 4.12154 138.661 4.88005 145.488C5.43819 150.511 6.60505 155.518 7.9248 160.401C8.79127 163.607 10.2054 166.66 11.2802 169.805C12.8588 174.423 14.1807 179.012 16.0441 183.537C19.0221 190.769 23.7277 196.028 29.0102 201.702C30.973 203.81 32.0329 206.7 33.9605 208.869C34.7904 209.802 35.4506 210.76 36.1767 211.768C36.4889 212.202 38.0111 212.597 36.9224 212.597" stroke="#171717" stroke-width="2" stroke-linecap="round"/>
<path d="M33.5664 210.36C36.1635 212.698 38.6017 215.726 41.5615 217.61C45.9996 220.434 50.0939 223.784 54.4447 226.765C59.4076 230.165 64.3557 233.363 69.5441 236.437C73.5795 238.829 77.8728 240.399 82.0338 242.423C85.3899 244.056 89.1121 245.01 92.4729 246.69C95.9559 248.432 100.651 248.248 104.403 249.134C109.927 250.438 115.579 251.142 121.181 251.765C122.839 251.949 133.619 252.014 133.484 251.744" stroke="#171717" stroke-width="2" stroke-linecap="round"/>
<path d="M374.48 45.9269C374.061 45.9269 373.629 45.8952 373.212 45.9369C372.312 46.0269 371.488 46.5653 370.753 47.0495C370.142 47.4515 369.564 47.969 369.046 48.4865C368.714 48.8185 368.3 49.1295 368.193 49.6091C367.663 51.9952 367.924 54.5537 367.924 56.9936C367.924 58.1436 368.146 59.1675 368.507 60.2518C368.854 61.2914 369.802 61.9234 370.748 62.4123C372.28 63.2049 373.702 64.0771 375.418 64.473C377.142 64.8708 378.632 64.644 380.138 63.7545C381.907 62.7093 383.196 61.424 384.199 59.6481C384.807 58.5724 385.122 57.2727 385.392 56.0756C385.69 54.7517 385.85 53.0674 385.347 51.7746C384.897 50.6181 384.149 49.5053 383.281 48.6212C382.389 47.7119 381.194 46.6009 379.958 46.1963C379.302 45.9814 378.656 45.7288 377.982 45.5676C377.288 45.4015 376.536 45.4778 375.827 45.4778C375.289 45.4778 374.649 45.3803 374.12 45.4978C373.833 45.5617 373.517 45.6574 373.222 45.6574" stroke="#171717" stroke-width="2" stroke-linecap="round"/>
<path d="M119.746 173.479C143.434 175.136 163.799 156.654 165.488 132.497C166.325 120.536 162.628 106.668 155.962 95.5708C149.344 84.5537 139.212 75.3679 126.668 74.4907C114.124 73.6136 102.812 81.2999 94.7252 91.2887C86.5794 101.35 80.9885 114.569 80.1521 126.53C78.4629 150.687 96.0578 171.823 119.746 173.479Z" fill="white" stroke="white" stroke-width="8"/>
<path d="M84.8876 136.565C84.9951 136.018 85.9952 137.42 86.0826 137.514C89.1064 140.778 91.7927 144.533 94.0159 148.382C94.6118 149.414 95.1296 150.487 95.7256 151.519C95.8879 151.8 96.4174 152.414 96.3919 152.777C96.3627 153.195 95.8136 152.168 95.5679 151.829C94.4802 150.329 93.3883 148.83 92.3742 147.278C90.6256 144.602 88.8936 141.796 87.6209 138.858C87.4045 138.359 86.4402 137.377 86.9841 137.354C87.3517 137.339 88.5567 139.106 88.7624 139.334C90.4627 141.219 92.1535 143.115 93.8175 145.029C94.0966 145.35 94.9535 146.264 94.5872 146.048C93.7824 145.572 92.9807 144.047 92.4764 143.34C90.3895 140.414 88.4694 137.351 86.8887 134.12C86.7908 133.92 86.4681 133.337 86.5969 133.519C87.3544 134.589 88.2653 135.526 89.1729 136.469C91.4218 138.804 93.6124 141.197 95.8771 143.516C96.1616 143.808 96.9256 144.757 96.7046 144.415C95.9491 143.246 95.0098 142.175 94.2211 141.026C92.1991 138.08 90.2188 134.91 88.6411 131.695C87.62 129.615 91.754 135.13 93.2745 136.879C94.3426 138.108 95.4172 139.332 96.4791 140.566C96.8966 141.051 97.797 142.69 97.6854 142.06C97.5615 141.36 96.2843 140.042 95.9459 139.527C94.2984 137.019 92.7369 134.44 91.2016 131.862C90.9509 131.441 89.4774 128.691 89.6996 128.938C91.7466 131.211 94.0579 133.272 96.2464 135.405C96.9858 136.126 97.7192 136.853 98.4566 137.576C98.6543 137.769 99.1276 138.177 98.743 137.546C97.0244 134.726 94.922 132.176 93.286 129.287C92.9266 128.653 92.8982 128.596 93.4949 129.129C94.9081 130.392 96.3592 131.61 97.7579 132.889C99.2443 134.25 100.673 136.033 102.329 137.191C103.577 138.063 100.893 134.505 100.123 133.191C97.5383 128.777 94.3501 124.098 92.654 119.227C92.5079 118.807 92.7169 119.024 92.8789 119.193C94.2155 120.587 95.7502 121.803 97.1948 123.081C99.8024 125.388 102.328 127.852 105.07 130C105.183 130.089 105.503 130.334 105.452 130.2C105.296 129.788 104.94 129.483 104.674 129.131C102.027 125.637 99.594 121.986 97.2456 118.287C95.9743 116.284 94.7583 114.247 93.4627 112.259C92.85 111.32 92.6262 111.025 93.6161 112.011C96.465 114.847 99.5396 117.448 102.346 120.325C102.426 120.407 103.389 121.598 103.598 121.525C103.755 121.471 103.447 121.228 103.356 121.088C103.042 120.601 102.724 120.138 102.393 119.66C101.555 118.454 100.76 117.228 99.9527 116.003C99.6326 115.517 98.3863 114.437 98.9522 114.572C99.5408 114.713 100.66 116.313 100.983 116.656C102.994 118.79 104.938 120.961 106.819 123.21C107.593 124.136 108.382 125.042 109.254 125.878C109.348 125.968 109.586 126.249 109.558 126.122C109.431 125.543 108.522 124.401 108.295 124.03C105.677 119.757 102.849 115.377 100.889 110.751C100.888 110.75 100.132 109.349 100.74 110.048C101.899 111.381 103.162 112.595 104.434 113.818C106.919 116.209 109.442 118.643 111.573 121.366C113.686 124.067 108.641 115.161 107.011 112.143C105.832 109.958 104.639 107.777 103.617 105.513C103.362 104.948 102.461 103.404 102.96 103.773C105.443 105.608 107.543 108.512 109.643 110.769C110.118 111.281 110.633 112.094 111.229 112.488C112.566 113.372 109.631 109.709 108.786 108.347C106.986 105.451 105.265 102.512 103.615 99.5276C103.24 98.8489 102.426 97.367 102.026 96.6094C101.719 96.0271 100.588 94.6931 101.238 94.7983C102.064 94.9321 104.018 97.82 104.502 98.3407C106.561 100.557 108.633 102.762 110.664 105.004C111.867 106.332 113.04 107.684 114.216 109.036C114.681 109.572 115.445 110.587 114.579 109.148C112.085 105.007 109.465 100.933 107.422 96.5416C106.472 94.497 109.339 97.9799 109.674 98.2943C112.135 100.601 114.492 103.07 117.064 105.254C117.887 105.952 117.466 105.04 117.24 104.512C115.872 101.308 114.304 98.1764 112.795 95.0377C112.194 93.786 111.528 92.5538 111.032 91.2541C110.874 90.8414 110.295 89.4754 111.161 90.4717C113.949 93.6788 116.617 96.9958 119.514 100.108C119.887 100.508 120.688 101.845 120.643 101.299C120.577 100.513 119.526 99.2178 119.174 98.6C117.137 95.0175 114.55 91.4677 112.965 87.6548C112.851 87.3783 113.435 88.0291 113.641 88.2461C114.838 89.5048 116.132 90.6672 117.382 91.8712C118.627 93.0706 119.85 94.2941 121.072 95.5175C121.12 95.5658 122.574 97.1053 122.43 96.6018C121.54 93.4776 119.365 90.5661 118.014 87.6121C117.769 87.0767 116.84 85.6178 117.285 86.003C118.325 86.9029 119.208 88.1134 120.186 89.0871C121.536 90.4306 122.885 91.7767 124.272 93.0826C124.908 93.6822 126.132 95.3127 127.057 95.5156C127.794 95.6771 126.781 94.0215 126.493 93.3245C125.67 91.331 124.653 89.4091 123.891 87.3923C123.695 86.8751 122.944 85.5202 123.421 85.8014C123.713 85.9739 124.148 86.7159 124.366 86.9557C125.906 88.6436 127.658 90.2139 129.375 91.7206C129.599 91.9174 130.023 92.1561 129.902 91.6091C129.403 89.3511 128.278 87.1065 127.475 84.9472C126.806 83.1503 126.151 81.3494 125.541 79.5317C125.401 79.1161 124.922 77.9087 125.172 78.2693C127.452 81.5676 135.319 90.6877 132.689 87.6613C131.648 86.4641 130.831 85.0286 129.62 83.9719C129.072 83.4937 129.646 84.7514 129.677 84.9281C129.842 85.8629 128.314 84.1519 128.065 83.925C127.895 83.7703 124.927 81.5108 124.878 81.7607C124.838 81.9659 125.539 82.6331 125.641 82.8775C125.78 83.2129 124.095 81.1791 123.85 80.8974C123.452 80.4399 121.902 78.8283 122.446 80.4653C122.954 81.995 123.404 83.5276 123.603 85.134C123.836 87.0122 119.351 82.2358 119.498 84.7728C119.578 86.147 119.907 87.5082 120.002 88.8887C120.041 89.4557 119.661 88.9502 119.517 88.7559C118.602 87.5244 117.885 86.149 117.017 84.8837C116.894 84.7032 115.061 81.946 114.937 82.6237C114.437 85.3668 114.589 88.2875 114.285 91.0611C114.254 91.3489 113.962 95.8284 113.341 95.7189C112.971 95.6536 112.78 94.3283 112.734 94.1431C112.18 91.8728 111.682 89.5873 111.172 87.3068C111.11 87.0283 109.857 82.2265 109.712 83.9648C109.395 87.7541 109.396 91.6001 109.592 95.3949C109.699 97.458 109.497 100.217 110.092 102.219C110.594 103.908 108.716 98.9741 107.983 97.3722C107.769 96.906 107.348 95.5257 106.793 95.2857C106.378 95.1066 105.767 98.5451 105.742 98.6499C104.977 101.739 103.6 104.723 102.948 107.828C102.671 109.147 103.17 106.966 103.234 106.747C103.738 105.023 104.042 103.276 104.428 101.526C104.809 99.7955 104.579 97.9886 105.504 96.3827C106.406 94.817 106.202 92.7742 106.325 91.0115C106.409 89.8152 105.809 90.3941 105.002 90.8324C103.732 91.5225 102.396 92.4129 101.485 93.5543C99.2364 96.3723 97.1522 99.5881 95.4383 102.752C93.504 106.323 92.4739 110.031 91.15 113.854C89.7552 117.881 89.4716 121.941 89.1769 126.156C89.0888 127.415 89.0007 128.674 88.9127 129.934C88.8329 131.074 88.8756 130.464 88.9308 129.675C89.637 119.576 92.1501 109.779 98.6817 101.817C100.416 99.7023 102.292 97.7465 104.175 95.7704C105.535 94.3424 103.691 96.0873 103.225 96.4459C101.303 97.9225 99.6663 99.2247 98.1358 101.135C96.1417 103.625 94.2294 106.314 92.5983 109.058C91.0811 111.611 89.8783 114.358 88.7467 117.099C87.7265 119.57 86.67 122.181 86.3862 124.86C86.2007 126.612 86.1276 128.381 86.0047 130.138C85.9972 130.246 85.9372 132.095 86.2386 131.923C86.8841 131.555 87.5905 129.844 87.8905 129.343C90.2931 125.329 92.7066 121.321 95.1129 117.309C100.703 107.988 106.794 98.9342 112.241 89.5331C112.838 88.5023 114.552 86.1965 112.81 88.4601C108.24 94.3979 104.803 101.347 101.642 108.108C100.442 110.676 97.7674 118.605 97.9652 115.777C98.2779 111.306 100.305 106.651 101.694 102.423C101.91 101.765 102.727 99.8588 102.399 100.469C101.549 102.052 100.983 103.835 100.256 105.476C98.2865 109.922 95.9597 114.235 94.1948 118.766C94.1458 118.891 93.8449 119.88 93.9 119.091C94.0182 117.401 94.2623 115.712 94.5253 114.04C94.8776 111.8 95.3739 109.586 95.7352 107.348C95.8925 106.374 96.6315 103.62 96.0278 104.401C95.7725 104.732 95.7596 105.609 95.7191 105.987C95.5264 107.783 95.4541 109.599 95.3281 111.401C95.1062 114.575 94.1721 118.727 95.1416 121.849C95.2626 122.239 95.416 121.076 95.4835 120.674C95.9163 118.095 96.3146 115.51 96.7789 112.937C97.1684 110.777 98.4523 104.35 98.339 106.541C98.1588 110.029 97.9979 113.511 98.736 116.956C98.7971 117.242 100.138 122.28 100.839 121.011C101.865 119.153 101.54 116.275 101.536 114.234C101.535 113.759 101.301 112.731 101.549 112.281C101.756 111.902 103.995 114.524 104 114.53C107.242 118.176 110.48 121.827 113.735 125.462C114.334 126.132 114.969 126.925 115.737 127.42C116.274 127.766 115.417 125.254 115.409 125.22C114.653 122.32 113.771 118.962 114.031 115.924C114.15 114.53 117.209 117.574 117.473 117.797C118.567 118.717 121.708 121.524 120.945 120.315C118.402 116.284 115.929 112.284 113.664 108.083C113.191 107.205 111.774 104.91 113.648 106.548C116.91 109.4 120.282 112.226 123.35 115.289C123.579 115.518 124.279 116.179 124.097 115.91C123.122 114.469 122.069 113.095 121.133 111.622C119.881 109.653 118.636 107.658 117.522 105.607C117.111 104.851 116.351 103.745 116.218 102.857C116.16 102.47 116.872 103.291 117.172 103.542C118.737 104.851 120.278 106.189 121.828 107.516C123.28 108.758 124.702 110.022 126.087 111.338C126.619 111.844 128.055 113.448 127.754 112.778C127.076 111.264 125.952 109.866 125.088 108.461C123.506 105.887 121.869 103.278 120.559 100.552C120.418 100.259 119.646 98.8985 119.876 98.4636C119.963 98.3006 122.697 100.929 122.72 100.95C125.859 103.861 128.89 107.079 132.192 109.799C133.213 110.64 132.508 109.557 132.22 109.034C129.901 104.809 127.463 100.649 125.228 96.377C123.957 93.9463 122.691 91.4899 121.591 88.9751C121.56 88.9035 120.69 87.1926 120.903 86.9609C121.076 86.7738 126.752 92.6711 127.175 93.1248C127.922 93.9268 128.64 94.7756 129.456 95.5103C130.027 96.024 128.615 94.2246 128.181 93.5909C126.389 90.9757 124.73 88.282 123.207 85.502C122.448 84.1176 120.789 81.8772 120.658 80.2166C120.569 79.093 122.47 81.5679 123.278 82.3537C126.513 85.4993 129.63 88.7563 132.61 92.1447C133.903 93.615 135.247 95.0725 136.452 96.6177C137.719 98.2414 136.216 96.9546 135.622 96.2876C132.959 93.2975 129.635 89.9347 127.901 86.2754C126.787 83.9244 131.554 89.9854 133.267 91.9433C134.07 92.861 134.892 93.7501 135.751 94.6149C135.778 94.6414 136.454 95.4085 136.507 95.2985C136.681 94.9383 136.788 95.0089 137.206 95.0381C138.267 95.1123 136.868 93.4586 136.691 93.1967C134.95 90.6176 133.047 87.9479 132.061 84.9588C131.609 83.5858 134.108 87.0052 135.204 87.9485C136.33 88.9182 139.806 91.7074 138.614 90.8209C135.945 88.8377 128.926 81.7501 131.59 83.7387C132.458 84.3859 133.311 85.0247 134.121 85.7458C135.064 86.5854 136.229 87.2185 137.139 88.0343C137.785 88.6138 136.663 87.9224 136.469 87.7154C136.392 87.6332 134.714 85.6142 135.339 85.6579C136.762 85.7574 138.148 86.6653 139.393 87.2769C140.321 87.733 140.416 87.8126 139.452 86.9595C138.259 85.9028 136.982 84.8249 135.574 84.0667C134.954 83.733 134.493 83.6943 135.164 83.7413C136.024 83.8014 133.562 83.1037 132.772 82.7579C132.053 82.443 133.562 83.1407 133.738 83.2583C136.481 85.0904 138.842 87.4913 141.223 89.7544C143.837 92.2391 146.344 95.0451 148.061 98.2457C148.132 98.3777 148.765 100.124 148.526 99.9105C148.044 99.4784 147.014 97.8125 147.439 98.3011C148.101 99.0627 148.548 100.034 148.986 100.932C149.907 102.818 146.396 99.1235 146.254 98.9849C145.026 97.7877 143.811 96.5789 142.599 95.3658C142.249 95.0152 141.302 93.8849 141.547 94.3153C142.197 95.4557 142.853 96.5999 143.241 97.8591C143.355 98.2302 143.374 98.4449 142.984 97.9896C141.921 96.7473 141.032 95.3588 139.992 94.0953C139.086 92.9941 138.091 91.973 137.149 90.9039C136.542 90.2161 136.508 90.1508 136.863 91.0942C137.661 93.2148 138.634 95.2072 139.166 97.4258C139.266 97.8424 139.146 97.8764 138.834 97.5757C137.854 96.6322 137.041 95.5248 136.063 94.5749C134.343 92.9034 135.453 94.763 135.909 95.7265C136.099 96.1298 136.801 98.543 136.564 98.2084C134.873 95.8254 133.454 93.1415 131.533 90.9316C130.239 89.4437 133.071 94.5653 133.72 96.4267C134.14 97.6302 134.496 98.844 134.851 100.067C134.857 100.088 135.15 101.223 135.118 101.199C134.435 100.684 133.95 99.4241 133.509 98.7368C132.636 97.3735 131.727 96.0171 130.709 94.7569C130.541 94.5494 130.095 93.9412 130.404 94.6862C131.127 96.4245 131.944 98.112 132.588 99.8842C133.166 101.472 133.699 103.084 134.206 104.696C134.249 104.834 134.991 107.065 134.174 106.203C132.623 104.563 131.522 102.362 130.373 100.446C129.038 98.2234 127.679 96.0109 126.388 93.7623C126.349 93.6933 125.502 92.2049 125.56 92.3442C126.205 93.8964 126.935 95.4181 127.599 96.9632C128.936 100.077 130.726 103.497 131.384 106.849C131.474 107.305 130.547 106.389 130.254 106.028C128.406 103.747 126.774 101.287 125.116 98.8671C124.641 98.1739 123.319 96.0518 123.626 96.8338C124.114 98.0739 124.804 99.2581 125.363 100.467C126.057 101.969 126.664 103.496 127.231 105.05C127.244 105.084 127.975 107.159 127.756 107.09C126.435 106.669 124.8 104.293 123.959 103.386C121.196 100.405 118.514 97.3468 115.788 94.3319C115.724 94.2614 113.557 91.572 113.181 91.8248C112.974 91.9639 115.077 96.5931 115.146 96.7849C117.386 102.985 119.155 109.4 120.566 115.836C120.784 116.831 121.028 117.827 121.122 118.843C121.224 119.935 120.39 118.196 120.3 118.044C119.647 116.927 118.958 115.832 118.307 114.714C118.172 114.482 117.875 113.658 117.575 113.513C117.373 113.415 117.765 113.922 117.879 114.115C118.404 115.002 118.845 115.914 119.207 116.879C119.388 117.362 119.657 117.905 119.717 118.423C119.788 119.033 118.771 117.632 118.371 117.167C114.484 112.645 111.465 107.573 107.805 102.912C107.699 102.776 107.011 101.949 107.348 102.732C108.049 104.36 108.625 106.008 109.114 107.715C109.263 108.236 111.471 115.488 110.993 115.686C110.633 115.836 105.592 108.857 104.992 108.132C104.634 107.699 103.603 106.451 103.748 106.994C104.253 108.875 104.854 110.698 105.26 112.614C105.852 115.416 106.08 118.276 106.672 121.073C106.902 122.163 105.254 119.836 105.046 119.562C104.065 118.269 107.764 125.177 106.451 124.223C105.71 123.685 105.552 121.686 105.179 120.845C105.08 120.622 100.723 120.72 100.343 120.68C99.2174 120.56 97.4251 120.56 96.5288 119.696C95.612 118.811 95.0171 117.416 94.3389 116.352C93.901 115.666 92.5996 113.316 92.6483 115.418C92.7347 119.155 94.0581 122.706 95.258 126.198C96.3859 129.48 97.2262 132.912 98.1637 136.281C98.7351 138.335 98.8904 140.67 99.8237 142.605C100.003 142.976 99.606 141.61 99.465 141.368C98.9056 140.407 98.8403 140.753 98.7782 141.642C98.6627 143.293 98.9319 144.781 99.1122 146.414C99.172 146.954 99.6045 147.692 99.7899 148.217C100.222 149.44 100.632 151.58 101.577 152.546C101.769 152.742 101.784 152.016 101.757 151.743C101.625 150.433 101.403 149.13 101.24 147.824C101.193 147.451 100.688 143.719 101.312 144.317C102.46 145.418 103.554 146.845 104.936 147.662C105.318 147.887 105.368 147.555 105.313 147.218C104.992 145.246 104.195 143.271 103.595 141.373C103.035 139.6 101.372 134.279 101.901 136.06C102.423 137.815 104.134 140.176 105.419 141.463C106.91 142.957 105.616 139.161 105.457 138.621C105.236 137.872 104.532 136.825 105.078 138.199C105.14 138.356 106.059 140.37 106.199 139.86C106.773 137.763 105.343 134.746 104.87 132.694C104.826 132.504 104.616 132.001 104.571 132.191C104.514 132.428 104.656 133.153 104.582 132.921C103.986 131.067 103.152 129.237 102.123 127.581C101.517 126.604 102.194 129.594 102.223 129.69C102.749 131.431 105.595 136.13 104.639 134.582C102.731 131.494 96.5392 122.535 98.6723 125.472C100.229 127.616 102.34 129.569 104.337 131.297C106.92 133.532 105.493 129.155 105.086 127.837C104.758 126.778 104.294 125.739 104.072 124.65C103.965 124.127 103.879 123.921 104.187 124.411C105.808 126.988 108.53 129.218 111.002 130.947C111.139 131.042 112.122 131.879 112 131.165C111.761 129.759 111.039 128.348 110.483 127.052C109.935 125.779 109.374 124.508 108.795 123.249C108.739 123.129 108.364 122.257 108.375 122.354C108.491 123.4 109.239 124.893 110.094 125.541C110.323 125.715 110.175 124.956 110.105 124.676C109.767 123.331 109.311 122.003 109.076 120.635C108.798 119.013 109.178 120.411 109.58 121.041C109.816 121.412 111.176 123.151 111.449 122.074C111.654 121.264 111.254 120.102 112.024 121.101C112.362 121.539 112.797 122.255 113.248 122.522" stroke="#FFD424" stroke-width="2" stroke-linecap="round"/>
<path d="M149.407 98.1284C149.428 98.8358 149.954 99.5276 150.3 100.113C151.071 101.417 151.66 102.778 152.235 104.178C153.639 107.598 154.156 110.89 154.622 114.523C154.759 115.594 155.904 119.982 154.218 117.067C150.416 110.498 146.988 103.493 142.669 97.2473C141.79 95.9751 144.998 99.2859 146.113 100.358C149.181 103.306 152.209 106.449 154.869 109.776C155.065 110.022 156.908 112.864 156.506 112.647C152.673 110.578 149.291 106.678 146.19 103.699C144.316 101.899 138.593 96.629 140.667 98.1957C143.647 100.447 145.92 104.297 148.06 107.279C149.971 109.94 152.114 112.893 153.187 116.034C153.506 116.967 152.708 116.253 152.402 115.951C150.264 113.84 148.411 111.366 146.524 109.037C144.094 106.041 141.443 102.82 139.652 99.3687C138.579 97.3011 142.226 103.253 143.454 105.232C144.734 107.295 146.746 109.811 147.203 112.265C147.344 113.026 146.485 112.142 146.398 112.054C144.174 109.816 142.358 107.115 140.473 104.6C138.312 101.715 132.067 92.9012 133.952 95.9734C136.077 99.4356 138.264 102.813 140.118 106.441C141.848 109.825 143.531 113.305 144.99 116.818C145.4 117.804 144.736 117.34 144.196 116.861C141.869 114.797 140.015 112.131 138.258 109.59C136.888 107.608 135.641 105.562 134.446 103.471C134.335 103.279 132.85 100.127 132.441 100.193C132.344 100.209 132.419 100.392 132.435 100.49C132.503 100.906 132.877 102.224 132.945 102.49C133.409 104.293 133.678 106.117 133.991 107.949C134.082 108.479 135.654 115.086 134.803 115.342C133.563 115.716 130.582 105.677 130.236 104.647C129.744 103.185 129.014 98.6758 128.906 100.215C128.68 103.451 129.006 106.734 129.299 109.953C129.703 114.385 129.942 118.868 130.573 123.273C131.073 126.765 130.929 121.752 130.885 120.835C130.79 118.851 130.947 116.207 130.21 114.314C130.08 113.981 129.74 117.391 129.718 117.715C129.501 120.82 129.508 123.927 129.321 127.031C129.157 129.739 128.508 124.861 128.45 124.524C127.537 119.2 127.068 113.69 126.928 108.289C126.904 107.379 126.998 106.423 126.881 105.515C126.794 104.834 126.568 106.855 126.486 107.537C125.949 111.974 125.735 116.449 125.424 120.906C125.391 121.37 125.168 126.612 124.966 123.814C124.657 119.535 125.147 106.662 124.848 110.942C124.559 115.083 124.269 119.223 123.98 123.363C123.847 125.262 123.723 127.162 123.581 129.061C123.504 130.092 123.548 131.422 123.094 132.391C123.009 132.571 122.747 132.133 122.701 131.939C122.173 129.712 121.973 127.416 121.848 125.137C121.602 120.626 121.478 116.058 121.753 111.546C121.884 109.389 121.7 112.299 121.669 112.742C121.368 117.048 121.151 121.37 120.751 125.668C120.701 126.206 120.282 130.51 120.302 127.842C120.334 123.541 120.289 119.233 120.512 114.936C120.568 113.847 120.65 112.76 120.726 111.672C120.747 111.377 120.807 110.655 120.74 111.475C120.287 116.968 119.404 122.46 118.433 127.881C117.699 131.985 116.959 136.344 115.227 140.181C115.115 140.428 114.935 140.836 114.907 140.314C114.798 138.323 114.896 136.283 114.96 134.296C115.241 125.506 117.273 99.1937 116.66 107.967C115.966 117.888 115.317 127.814 114.578 137.732C114.566 137.896 113.975 142.41 113.75 140.473C113.065 134.567 113.71 128.322 114.122 122.42C114.241 120.728 114.336 119.031 114.534 117.346C114.582 116.931 114.586 115.492 114.944 115.113C115.086 114.962 115.09 115.51 115.086 115.716C115.05 117.538 114.844 119.373 114.717 121.189C114.344 126.53 113.996 131.873 113.597 137.211C113.535 138.037 113.172 142.276 112.904 139.029C112.44 133.398 113.522 116.446 113.128 122.082C112.809 126.653 112.4 131.206 111.511 135.708C110.826 139.181 110.123 143.205 108.433 146.377C108.231 146.756 108.009 146.876 107.854 146.365C107.102 143.885 107.499 140.725 107.576 138.204C107.751 132.551 108.171 126.896 108.606 121.257C108.688 120.188 108.964 118.844 109.024 120.734C109.16 125.001 108.588 129.396 108.235 133.642C107.967 136.851 107.701 140.211 106.808 143.324C106.282 145.159 106.732 140.78 106.752 140.493C106.926 137.998 107.101 135.504 107.275 133.009C107.318 132.401 107.399 136.436 107.405 136.821C107.484 142.242 107.291 158.506 107.129 153.086C107.045 150.249 106.849 147.423 106.521 144.604C106.326 142.931 106.084 141.261 105.911 139.586C105.864 139.134 106.018 137.924 105.694 138.242C104.953 138.966 105.523 142.995 105.495 143.91C105.417 146.534 105.658 149.178 105.453 151.795C105.218 154.786 104.005 150.44 103.697 149.609C103.083 147.947 102.353 146.133 102.156 144.355C101.999 142.932 102.789 147.159 103.309 148.493C104.26 150.932 105.328 153.509 106.644 155.78C107.657 157.528 105.971 155.491 105.523 155.037C103.502 152.989 101.371 151.144 99.213 149.253C98.2909 148.444 99.1952 149.977 99.3721 150.211C100.59 151.819 101.981 153.379 103.42 154.791C103.52 154.89 105.001 156.305 104.446 155.683C102.044 152.987 99.4211 150.435 96.9393 147.807C96.3566 147.19 95.7439 146.62 95.1262 146.041C94.9394 145.865 94.7302 145.26 94.5999 145.481C94.3536 145.898 98.3443 149.91 98.6348 150.244C100.497 152.386 102.475 154.444 104.296 156.619C105.658 158.247 103.492 156.506 103.005 156.077C100.541 153.904 98.3033 151.476 95.8765 149.26C94.5005 148.003 95.3856 148.727 96.1162 149.672C97.3564 151.276 98.8168 152.642 100.142 154.166C100.651 154.751 100.783 155.275 99.9744 154.536C97.7403 152.495 95.541 149.91 92.9916 148.266C91.9245 147.578 91.422 146.378 90.6324 145.416C90.2336 144.929 89.7718 144.775 89.377 144.366C89.1276 144.108 88.8391 143.9 88.5953 143.619C88.5281 143.542 88.1636 142.885 88.0589 143.002C87.4703 143.659 91.624 149.49 92.0871 150.083C96.6093 155.874 102.221 161.628 108.57 165.442C110.37 166.524 112.048 167.014 114.16 167.162C117.182 167.373 120.16 167.73 123.165 167.155C123.467 167.097 124.728 167.038 124.954 166.842C125.007 166.796 123.06 166.263 122.933 166.22C119.641 165.116 116.349 164.104 113.139 162.765C111.215 161.963 109.27 161.188 107.372 160.326C106.892 160.108 105.555 159.691 105.217 159.214C105.034 158.956 105.848 159.202 106.163 159.224C107.421 159.311 108.645 159.459 109.871 159.766C111.747 160.235 113.637 160.833 115.394 161.65C116.296 162.07 116.046 162.176 115.037 162.106C112.722 161.944 110.494 161.197 108.255 160.642C106.932 160.314 106.913 160.294 108.23 160.386C109.863 160.5 111.463 160.698 113.02 161.23C113.575 161.419 114.598 161.772 113.273 161.445C109.879 160.607 106.388 158.891 103.239 157.379C102.999 157.264 100.983 156.317 101.375 156.344C104.146 156.538 106.901 156.902 109.646 157.319C112.6 157.766 115.548 158.608 118.532 158.816C120.36 158.944 115.333 156.52 115.26 156.481C111.204 154.293 107.079 152.222 102.935 150.205C101.586 149.549 101.018 149.303 102.854 149.747C108.129 151.024 122.956 157.844 118.155 155.313C114.9 153.596 111.696 151.746 108.511 149.903C107.631 149.393 103.797 147.512 106.998 147.889C111.171 148.38 115.399 149.137 119.457 150.23C119.725 150.302 123.925 151.603 122.37 150.829C119.493 149.399 116.545 148.11 113.67 146.673C112.538 146.107 110.855 145.32 113.161 145.464C116.532 145.675 119.865 145.943 123.17 146.659C123.878 146.812 125.604 147.442 126.336 147.078C126.806 146.844 124.068 144.797 124.051 144.784C121.611 142.889 119.089 141.09 116.684 139.152C115.287 138.026 116.945 138.719 117.828 138.963C121.822 140.067 125.64 141.666 129.357 143.487C130.491 144.042 131.597 144.656 132.712 145.248C133.14 145.476 133.431 145.648 132.666 145.499C127.106 144.421 121.745 141.926 116.541 139.778C114.56 138.96 112.585 138.126 110.625 137.258C109.936 136.953 108.563 136.584 107.999 136C107.756 135.748 108.671 136.201 108.993 136.338C110.831 137.119 112.606 138.037 114.315 139.071C114.997 139.484 121.347 142.942 120.843 144.164C120.317 145.437 110.875 141.851 109.874 141.531C108.375 141.052 106.887 140.559 105.415 140.003C104.931 139.82 103.437 139.441 103.953 139.477C109.621 139.873 115.189 141.114 120.614 142.791C122.988 143.524 120.158 141.874 119.414 141.35C115.831 138.829 112.067 136.435 108.198 134.374C108.129 134.337 106.835 133.823 106.752 133.623C106.665 133.414 107.204 133.636 107.427 133.67C107.935 133.748 109.371 134.006 109.772 134.088C113.795 134.918 117.985 136.356 121.704 138.117C123.968 139.19 122.154 138.303 121.043 137.661C118.295 136.073 115.447 134.609 112.735 132.967C109.16 130.802 121.039 134.242 124.989 135.605C125.979 135.946 127.954 137.118 125.878 135.837C123.257 134.219 120.624 132.598 118.084 130.853C115.493 129.073 118.764 130.227 119.94 130.601C124.853 132.167 129.446 134.382 133.98 136.813C134.555 137.121 135.205 137.411 135.719 137.825C136.252 138.256 134.547 137.11 133.987 136.715C130.405 134.189 126.665 131.903 123.046 129.433C122.314 128.933 120.598 127.928 122.551 128.423C126.22 129.352 129.665 130.949 133.01 132.688C134.019 133.213 135.017 133.754 136.023 134.284C137.585 135.108 135.357 133.44 135.294 133.385C132.588 131.026 129.9 128.647 127.303 126.169C126.019 124.942 126.894 125.313 128.109 125.758C130.329 126.572 132.274 127.869 134.429 128.773C135.548 129.242 132.482 126.499 132.284 126.291C131.168 125.115 128.626 123.278 128.083 121.686C127.993 121.42 128.635 121.813 128.885 121.94C130.255 122.629 131.562 123.447 132.881 124.226C135.416 125.723 137.877 127.285 140.345 128.876C143.225 130.733 135.406 123.99 133.743 120.993C133.115 119.861 135.055 121.11 135.24 121.225C137.254 122.482 139.202 124.017 141.3 125.126C141.82 125.401 141.684 124.936 141.534 124.605C140.484 122.295 138.795 120.19 137.306 118.16C135.18 115.263 132.944 112.441 130.916 109.473C129.931 108.031 133.301 112.025 134.508 113.286C136.58 115.449 138.354 117.796 140.117 120.209C141.607 122.248 138.59 118.915 138.426 118.719C135.851 115.65 133.099 112.707 130.926 109.332C129.728 107.471 130.757 108.277 131.98 109.222C135.584 112.007 139.081 114.953 142.309 118.171C142.761 118.622 144.879 120.968 143.653 118.958C141.914 116.106 140.349 113.149 138.971 110.107C138.925 110.003 137.815 107.576 138.478 108.475C140.193 110.801 142.367 112.788 144.212 115.011C145.118 116.102 147.734 119.457 146.803 118.386C144.75 116.024 142.98 113.346 141.23 110.759C140.491 109.667 139.759 108.571 138.999 107.493C138.806 107.221 138.184 106.475 138.284 106.793C139.561 110.842 140.776 114.864 141.584 119.039C141.662 119.444 142.91 124.205 141.723 123.926C140.529 123.645 139.249 122.576 138.271 121.946C135.075 119.887 131.857 117.885 128.567 115.98C126.485 114.775 124.185 113.107 121.899 112.277C120.229 111.671 124.91 114.189 126.265 115.339C128.161 116.947 129.79 118.823 131.615 120.505C131.636 120.524 132.131 121.117 131.829 120.675C130.56 118.822 129.248 117.003 127.945 115.174C125.326 111.498 122.526 107.816 120.34 103.856C119.894 103.049 120.325 103.676 120.616 103.946C121.658 104.913 122.72 105.833 123.691 106.875C123.865 107.063 126.956 110.561 126.732 110.678C125.839 111.149 124.837 109.976 123.929 109.535C119.847 107.556 115.809 105.485 111.76 103.44C107.476 101.277 103.155 99.3945 98.7609 97.4988C98.3123 97.3053 99.731 97.679 100.176 97.8805C101.997 98.7048 103.728 99.7482 105.429 100.792C109.113 103.054 112.819 105.389 116.292 107.969C118.816 109.845 114.683 106.802 114.272 106.528C109.91 103.613 105.438 100.895 100.978 98.1345C100.406 97.7802 98.6772 97.0988 99.3358 96.9595C99.9152 96.8369 101.292 97.7111 101.714 97.9174C104.668 99.3601 107.378 101.219 110.298 102.716C111.037 103.094 111.905 103.648 112.759 103.708C113.781 103.779 113.995 102.401 114.048 101.649C114.097 100.944 114.454 99.9959 114.841 99.4007C115.146 98.9326 114.892 99.3743 114.706 99.5185C113.917 100.131 112.934 99.4408 112.466 98.7965C110.729 96.4042 111.208 92.1902 111.791 89.448C111.988 88.5249 112.376 87.4148 112.019 87.0044C111.151 86.0059 114.851 85.0255 113.788 84.9512C110.517 84.7225 106.555 87.4079 104.58 89.8908C103.714 90.9784 102.885 92.0359 102.062 93.1497C101.643 93.7162 102.12 92.961 102.256 92.7958C102.822 92.1108 103.366 91.58 104.1 91.0871C110.621 86.7096 120.505 77.4652 127.869 85.9358" stroke="#FFD424" stroke-width="2" stroke-linecap="round"/>
<path d="M152.397 149.989C153.246 149.839 152.838 144.172 152.844 143.603C152.884 139.803 153.067 136.007 153.386 132.219C153.458 131.353 153.588 132.141 153.677 132.494C154.054 133.978 154.572 135.395 155.157 136.81C156.211 139.361 157.243 142.016 158.464 144.491C159.316 146.216 156.932 140.953 156.367 139.114C156.103 138.256 155.755 134.722 155.579 137.235C155.486 138.567 155.393 139.899 155.3 141.23C155.28 141.513 155.195 142.724 155.264 141.751C155.461 138.921 156.133 136.107 156.365 133.276C156.642 129.902 157.056 119.753 156.82 123.13C156.615 126.062 156.594 128.972 156.461 131.897C156.389 133.493 155.982 136.176 156.692 137.695C156.906 138.153 156.989 137.988 157.41 138.141C157.826 138.292 157.757 139.716 157.8 140.048C158.178 142.994 158.631 137.815 158.589 137.05C158.412 133.809 158.32 130.786 158.549 127.52C158.746 124.703 158.393 121.822 157.811 119.072C157.594 118.047 157.349 118.995 157.331 119.462C157.25 121.581 157.703 123.976 158.128 126.049C158.169 126.245 158.655 128.192 158.356 128.256C157.241 128.492 155.717 122.841 155.553 122.25C154.726 119.268 154.332 116.171 153.5 113.201C152.91 111.095 153.763 117.589 154.274 119.715C154.864 122.167 155.556 124.591 156.151 127.041C156.17 127.121 156.254 127.353 156.233 127.273C155.801 125.594 154.934 123.986 154.388 122.338C153.735 120.371 153.153 118.376 152.57 116.387C152.394 115.785 152.057 113.944 152.075 114.571C152.109 115.715 152.648 116.953 153.023 118.002C153.942 120.573 155.024 123.081 155.966 125.643C156.657 127.521 157.257 129.431 157.915 131.321C158.017 131.612 158.622 132.704 158.557 133.062C158.444 133.683 157.807 132.035 157.538 131.464C156.115 128.441 154.858 125.336 153.486 122.289C152.624 120.374 151.788 118.426 150.746 116.599C150.108 115.48 149.906 115.578 150.213 116.745C151.322 120.966 153.417 124.894 154.448 129.156C154.543 129.549 155.439 133.517 154.195 131.965C151.069 128.065 149.837 122.484 148.443 117.795C148.281 117.25 147.695 115.69 147.702 116.259C147.724 117.84 148.446 119.638 148.889 121.12C150.355 126.023 152.731 130.858 153.781 135.866C153.878 136.331 153.942 136.662 153.659 135.999C152.812 134.018 151.945 132.051 151.192 130.031C149.468 125.405 148.746 120.475 147.051 115.874C146.337 113.935 147.477 120.004 148.037 121.993C149.116 125.833 150.849 129.765 151.443 133.723C151.748 135.757 149.83 129.937 149.158 127.994C148.601 126.385 148.049 124.775 147.517 123.158C147.515 123.152 147.058 121.761 146.984 122.089C146.433 124.525 147.384 127.474 147.669 129.883C147.828 131.235 147.919 132.595 148.034 133.951C148.054 134.181 148.025 134.859 147.958 134.639C147.124 131.871 146.806 128.981 146.319 126.142C146.253 125.758 146.074 124.904 145.956 125.876C145.756 127.514 145.71 129.181 145.595 130.827C145.479 132.487 145.699 137.364 145.135 135.798C144.564 134.216 144.505 132.273 144.337 130.625C143.978 127.093 143.978 123.557 143.807 120.015C143.797 119.808 143.557 114.466 143.151 116.661C142.278 121.379 142.343 126.39 142.009 131.169C141.952 131.985 141.684 138.161 141.748 134.091C141.829 129.003 141.622 123.905 141.601 118.815C141.587 115.481 141.119 122.214 141.102 122.512C140.581 131.578 140.964 140.66 140.655 149.734C140.615 150.897 140.745 152.418 140.387 153.56C140.154 154.305 139.809 152.1 139.666 151.333C138.232 143.634 138.125 135.774 138.67 127.982C138.91 124.548 138.718 127.295 138.602 128.952C138.276 133.612 137.989 138.277 137.624 142.935C137.499 144.528 137.092 145.363 136.727 143.239C136.047 139.288 135.849 135.292 135.696 131.293C135.539 127.177 136.094 139.924 134.146 143.554C133.803 144.193 133.678 143.167 133.649 142.982C133.271 140.551 133.207 138.069 133.203 135.614C133.202 134.7 134.095 121.363 133.288 121.258C132.853 121.202 132.334 131.85 132.304 132.498C132.182 135.195 132.112 137.892 131.936 140.586C131.862 141.723 131.967 145.03 131.53 143.979C130.795 142.21 130.835 139.7 130.756 137.86C130.555 133.189 130.802 128.509 131.086 123.847C131.254 121.074 131.459 118.303 131.653 115.532C131.715 114.645 131.818 113.173 131.693 114.955C131.185 122.227 131.261 129.486 131.129 136.77C131.063 140.439 130.913 144.102 130.671 147.763C130.607 148.732 130.886 151.412 130.201 152.268C129.747 152.834 129.463 150.992 129.308 150.283C128.632 147.192 128.214 144.038 127.872 140.896C127.537 137.81 127.291 134.712 127.122 131.613C127.058 130.455 127.14 126.993 126.955 128.138C126.24 132.554 126.254 137.298 126.059 141.758C125.947 144.3 125.977 146.84 125.922 149.382C125.917 149.61 125.718 152.085 125.645 151.921C125.059 150.599 125.083 148.675 124.965 147.294C124.626 143.324 124.507 139.338 124.443 135.355C124.394 132.317 124.501 123.21 124.289 126.241C123.882 132.052 124.027 137.79 124.46 143.597C124.634 145.931 124.842 148.265 124.974 150.602C124.974 150.606 124.987 152.822 124.92 152.789C124.492 152.582 124.329 150.288 124.291 150.06C123.819 147.252 123.397 144.435 123.073 141.606C122.847 139.641 122.712 137.664 122.411 135.708C122.145 133.975 122.114 135.509 122.058 136.305C121.764 140.505 121.867 144.701 121.672 148.901C121.658 149.199 121.615 153.624 121.165 151.905C120.239 148.365 120.184 144.406 119.965 140.767C119.933 140.241 120.048 138.934 119.674 138.457C119.61 138.374 119.606 138.657 119.596 138.762C119.518 139.66 119.47 140.564 119.408 141.463C119.13 145.428 119.104 149.243 119.463 153.199C119.524 153.864 119.727 154.676 119.68 155.349C119.617 156.253 119.44 153.553 119.332 152.653C119.16 151.218 118.957 149.783 118.67 148.366C118.555 147.798 118.348 146.095 118.28 146.671C117.866 150.178 118.952 154.002 119.549 157.432C119.756 158.62 120.38 162.174 120.048 161.015C119.361 158.618 118.245 156.126 117.065 153.936C116.688 153.237 115.531 151.277 115.587 153.239C115.683 156.56 116.439 159.81 117.021 163.065C117.221 164.184 117.779 167.142 117.145 164.12C116.038 158.845 114.913 153.583 113.855 148.298C113.16 144.826 113.017 148.352 113.142 149.803C113.348 152.197 114.049 154.806 114.751 157.111C115.973 161.12 112.724 148.761 110.272 145.362C109.358 144.095 110.029 148.137 110.064 148.33C110.34 149.834 110.881 151.237 111.343 152.688C111.71 153.842 111.538 153.385 111.869 154.464C111.995 154.877 112.613 155.965 112.278 155.694C111.401 154.984 107.064 148.661 109.062 153.772C110.077 156.371 111.43 158.91 113.038 161.189C113.122 161.308 114.542 163.053 114.533 163.06C113.914 163.538 108.585 162.158 112.719 163.132C114.538 163.56 116.367 164.144 117.964 165.138C118.142 165.249 119.825 166.512 118.818 166.47C117.777 166.426 116.735 166.324 115.695 166.252C115.59 166.244 118.045 166.194 118.624 166.216C121.462 166.324 124.302 166.599 127.135 166.797C128.546 166.896 130.667 167.316 131.735 166.101C133.297 164.327 134.43 162.184 136.009 160.378C138.513 157.513 140.988 154.257 143.969 151.86C145.398 150.711 144.636 152.149 143.838 152.727C139.685 155.737 133.938 156.842 129.207 158.602C125.984 159.801 122.473 160.849 119.387 162.382C119.274 162.438 118.859 162.775 119.26 162.571C120.462 161.96 121.706 161.488 122.961 160.992C126.34 159.659 129.675 158.643 133.205 157.821C135.184 157.361 135.317 157.446 133.115 157.292C129.423 157.034 125.72 156.64 122.016 156.714C121.869 156.717 120.66 156.785 121.622 156.686C123.384 156.505 125.113 155.877 126.826 155.453C128.958 154.925 131.311 154.498 133.377 153.748C133.838 153.581 132.433 153.454 131.945 153.408C129.396 153.168 126.828 153.059 124.269 152.998C121.993 152.944 119.718 152.975 117.442 153.001C116.66 153.01 114.348 153.166 115.099 152.951C120.271 151.469 125.641 150.43 130.903 149.306C133.273 148.8 140.316 147.139 138.06 148.026C136.99 148.446 135.721 148.63 134.609 148.859C130.456 149.714 126.253 150.301 122.056 150.893C119.334 151.277 111.212 152.564 113.862 151.832C118.888 150.444 123.959 149.184 129.085 148.218C130.667 147.92 135.069 146.418 136.689 147.421C137.017 147.624 136.122 147.974 135.763 148.119C134.07 148.806 132.24 149.147 130.473 149.587C129.77 149.762 126.987 150.602 127.039 150.591C131.12 149.704 135.442 149.832 139.596 149.914C139.801 149.918 144.164 150.123 142.655 150.637C138.134 152.176 133.356 152.724 128.896 154.552C128.682 154.639 124.564 156.157 126.217 156.273C128.867 156.458 131.555 156.165 134.227 156.352C134.636 156.381 136.943 156.359 135.358 156.742C132.683 157.389 129.918 157.504 127.297 158.412C126.531 158.677 125.508 159.03 126.935 159.15C129.028 159.326 131.127 159.443 133.223 159.59C135.086 159.72 131.854 160.484 131.587 160.535C128.013 161.226 124.321 162.457 121.099 164.17C119.37 165.089 122.567 164.349 122.958 164.272C124.085 164.049 127.533 164.026 126.387 163.946C125.274 163.868 124.214 163.791 123.107 163.957C121.613 164.181 126.13 164.1 127.639 164.034C128.766 163.984 131.286 163.435 132.341 163.91C132.676 164.061 129.938 164.186 129.566 164.182C129.394 164.18 127.562 164.283 128.508 164.349C129.688 164.431 130.866 164.259 132.056 164.342C133.419 164.438 133.953 164.442 132.643 165.246C131.504 165.945 134.598 163.396 135.734 162.691C137.061 161.867 138.403 161.061 139.722 160.242C141.403 159.198 143.623 158.806 145.13 157.496C146.444 156.354 147.853 155.301 148.823 153.811C149.532 152.721 150.469 151.666 151.449 150.814C151.887 150.433 151.951 150.74 151.655 151.111C150.841 152.127 150.331 153.327 149.547 154.37C148.289 156.042 147.166 157.273 145.439 158.535C143.774 159.752 142.303 161.34 140.533 162.391C139.606 162.941 138.898 163.796 137.915 164.243C137.272 164.537 136.729 164.932 136.068 165.188C135.777 165.301 136.688 164.844 136.868 164.665C138.928 162.618 141.15 160.939 143.604 159.298C145.636 157.94 147.35 156.316 149.259 154.845C150.699 153.735 152.164 152.617 153.086 151.055C153.512 150.335 153.842 149.571 154.258 148.847C154.369 148.656 155.133 147.457 154.974 147.512C154.641 147.628 154.518 148.015 154.186 148.065C153.057 148.234 152.894 143.351 152.839 142.868C152.357 138.619 152.008 134.326 152.265 130.049C152.349 128.65 152.525 128.453 152.514 129.925C152.471 135.791 150.463 141.879 148.526 147.344C148.384 147.742 147.532 150.966 147.104 151.103C146.6 151.265 146.778 143.051 146.808 142.587C147 139.676 146.774 136.252 147.896 133.504C148.512 131.995 148.576 132.849 148.288 133.969C147.63 136.525 147.035 139.103 146.351 141.651C145.899 143.334 144.873 148.44 144.994 146.701C145.227 143.371 145.717 140.082 146.448 136.823C146.902 134.804 149.238 129.03 148.484 130.958C146.111 137.026 143.211 143.187 139.819 148.742C139.029 150.036 139.904 145.714 139.963 145.473C140.986 141.27 142.669 137.117 144.619 133.26C145.517 131.486 144.113 134.104 143.885 134.467C141.266 138.638 138.297 142.554 135.502 146.603C135.126 147.148 134.304 148.946 133.543 149.152C132.728 149.371 133.954 147.501 134.333 146.747C136.25 142.928 138.616 139.06 141.269 135.698C141.68 135.176 142.605 133.958 142.476 135.414C142.274 137.693 141.134 140.036 140.611 142.267C140.378 143.262 140.159 144.255 139.894 145.242C139.819 145.524 139.605 146.278 139.847 146.115C141.398 145.074 142.234 142.693 143.531 141.34C143.607 141.262 145.058 139.619 145.157 139.927C145.316 140.423 144.892 141.256 144.723 141.678C143.914 143.701 143.11 145.709 142.376 147.762C141.536 150.11 141.096 152.904 139.98 155.129C138.687 157.71 142.726 150.048 144.172 147.548C145.399 145.425 146.834 143.108 148.617 141.385C149.224 140.799 148.99 141.195 148.736 141.902C147.755 144.641 146.007 147.144 144.806 149.798C144.166 151.212 143.572 152.646 142.98 154.08C142.915 154.237 142.113 156.132 142.501 154.867C143.564 151.399 145.172 148.034 146.713 144.758C147.817 142.413 149.311 140.171 150.297 137.785C151.199 135.599 149.722 138.859 149.586 139.46C149.421 140.19 150.228 136.917 150.289 136.682C150.686 135.136 151.1 133.597 151.6 132.08C151.61 132.049 152.314 129.996 152.213 129.989C152.041 129.977 151.489 131.2 151.445 131.264C150.086 133.28 148.365 135.088 146.86 136.993C140.69 144.804 134.556 152.566 128.015 160.074C127.428 160.748 124.597 164.535 125.291 161.636C127.115 154.017 130.61 146.782 133.673 139.605C134.667 137.276 135.646 134.947 136.512 132.566C136.755 131.898 137.379 130.824 137.392 130.083C137.403 129.477 136.521 130.929 136.114 131.379C133.753 133.996 131.452 136.671 128.954 139.162C126.727 141.384 124.373 143.493 121.9 145.44C120.696 146.387 119.396 147.475 117.884 147.887C117.129 148.092 116.751 148.008 116.747 147.171C116.728 143.843 117.536 140.379 118.461 137.213C120.849 129.035 124.349 121.178 127.073 113.106C127.649 111.4 128.304 109.681 128.763 107.937C128.907 107.39 129.227 106.434 128.593 107.332C121.914 116.794 114.219 125.46 107.995 135.265C107.84 135.511 107.246 136.842 107.276 136.657C107.413 135.81 107.855 134.946 108.185 134.176C110.061 129.79 112.056 125.453 113.963 121.08C116.38 115.538 119.265 109.959 121.082 104.177C121.361 103.29 121.248 103.609 120.914 104.151C119.391 106.623 117.635 108.981 115.945 111.338C114.906 112.786 98.1885 136.311 98.0344 136.208C96.7499 135.35 99.7664 128.371 100.08 127.573C101.962 122.785 104.138 118.112 106.052 113.332C106.633 111.879 106.153 112.336 105.296 113.223C102.039 116.592 99.4439 120.82 96.5893 124.53C94.7106 126.972 92.6029 129.474 91.0932 132.175C89.9889 134.151 90.9848 132.302 91.3701 131.247C92.523 128.091 93.7212 124.893 94.5305 121.63C94.6609 121.104 95.8575 116.276 94.8999 118.772C93.8793 121.432 92.1297 124.023 91.9263 126.932" stroke="#FFD424" stroke-width="2" stroke-linecap="round"/>
<path d="M112.183 165.975C112.82 165.893 113.553 165.238 114.086 164.947C116.172 163.807 118.308 162.77 120.362 161.573C122.69 160.216 129.22 155.443 126.924 156.852C125.606 157.661 124.508 159.509 123.488 160.643C121.513 162.841 119.752 165.235 117.844 167.492C117.718 167.64 116.406 169.409 116.89 169.01C118.757 167.474 121.153 166.586 123.18 165.254C125.58 163.677 128.11 162.02 130.072 159.901C130.397 159.551 131.491 158.357 130.586 159.404C129.733 160.389 128.857 161.429 128.18 162.543C128.006 162.828 126.678 165.157 127.031 165.483C127.94 166.32 136.279 157.475 137.144 156.679C137.353 156.486 139.191 154.316 138.607 155.305C137.544 157.105 136.315 158.736 135.431 160.659C134.66 162.336 133.259 164.251 132.855 166.04C132.707 166.695 134.26 165.176 134.501 164.967C139.728 160.423 144.519 156.008 148.431 150.239C148.552 150.061 149.505 148.333 148.905 149.138C147.932 150.441 147.221 151.89 146.572 153.375C145.967 154.76 145.634 156.269 145.176 157.705C144.726 159.117 146.008 157.799 146.476 157.29C147.99 155.648 149.2 153.548 150.513 151.737C152.244 149.351 154.114 146.925 155.488 144.309C155.514 144.259 156.176 142.795 156.297 142.904C156.51 143.095 156.198 143.911 156.118 144.094C155.407 145.706 154.81 147.288 154.153 148.931C153.618 150.27 152.963 151.553 152.216 152.786C151.453 154.046 152.342 152.789 152.633 152.296C153.402 150.995 153.813 149.502 154.651 148.255C156.106 146.09 157.658 143.816 158.855 141.497C160.171 138.948 160.278 135.993 160.474 133.193" stroke="#171717" stroke-width="2" stroke-linecap="round"/>
<path d="M112.869 167.358C115.094 167.513 117.374 167.108 119.563 166.761C120.405 166.627 122.676 166.747 123.387 166.129C124.175 165.444 121.301 166.373 120.31 166.699C119.94 166.821 117.001 167.694 116.963 168.237C116.945 168.493 121.385 168.109 121.566 168.088C124.546 167.742 127.519 167.014 130.535 167.03C131.781 167.037 129.587 166.955 129.32 166.936C128.69 166.892 126.868 166.63 127.426 166.926C128.174 167.323 129.513 166.859 130.236 166.686C132.809 166.073 135.343 165.26 137.871 164.488C138.503 164.295 140.257 164.18 140.686 163.567C140.757 163.465 139.818 163.459 139.785 163.461C138.659 163.505 137.474 163.684 136.395 164.009C135.981 164.134 135.143 164.341 134.861 164.723C134.633 165.031 135.639 164.888 136.009 164.785C139.613 163.783 143.017 161.292 146.112 159.241C146.639 158.892 148.246 157.891 147.743 158.273C147.208 158.679 146.461 158.898 145.877 159.234C145.027 159.723 142.709 160.848 142.625 162.053C142.598 162.436 145.983 159.734 146.169 159.56C147.757 158.073 149.341 156.581 150.909 155.072C151.702 154.308 152.428 153.394 153.291 152.707C154.634 151.639 150.526 154.74 149.197 155.825C148.165 156.669 147.164 157.531 146.211 158.463C146.163 158.509 145.226 159.651 145.254 159.653C145.598 159.677 146.31 158.848 146.511 158.667C147.534 157.741 148.463 156.728 149.422 155.736C151.163 153.936 152.878 152.158 154.287 150.079C154.938 149.119 155.116 147.85 155.479 146.767C155.966 145.315 156.578 143.898 157.038 142.441C157.655 140.49 158.546 138.644 159.169 136.689C159.487 135.691 160.266 134.486 160.339 133.436C160.427 132.185 160.514 130.934 160.602 129.683C160.653 128.953 160.704 128.223 160.755 127.494C160.79 126.995 160.907 127.564 160.894 127.757C160.745 129.877 160.476 132.875 161.166 134.856" stroke="#171717" stroke-width="2" stroke-linecap="round"/>
<path d="M118.234 163.349C113.606 163.025 108.978 162.701 104.35 162.378C104.02 162.355 102.491 162.248 103.578 162.324C105.154 162.434 106.476 162.997 107.973 163.481C110.305 164.235 112.72 164.849 115.12 165.331C117.914 165.892 113.102 165.465 112.463 165.42C110.8 165.304 105.811 164.955 107.474 165.072C109.165 165.19 110.809 165.286 112.388 165.965C116.119 167.571 104.668 163.422 100.878 161.96C100.67 161.879 97.6534 160.51 97.7872 160.393C98.3646 159.891 101.071 161.325 101.535 161.506C104.948 162.832 108.447 164.008 111.887 165.268C112.696 165.564 115.053 166.502 114.192 166.442" stroke="#171717" stroke-width="2" stroke-linecap="round"/>
<path d="M161.494 132.218C159.95 154.296 141.382 170.983 120.021 169.489C98.6597 167.995 82.5946 148.887 84.1385 126.809C85.6823 104.731 105.024 76.9873 126.385 78.481C147.746 79.9747 163.038 110.14 161.494 132.218Z" stroke="#171717" stroke-width="1.5"/>
<path d="M83.4046 121.557C83.5372 119.662 83.7549 118.001 84.9938 116.454C85.5252 115.791 85.9389 114.676 86.3106 113.892C86.7442 112.978 87.3083 112.12 87.8226 111.249C88.9928 109.267 90.108 107.207 91.0947 105.126C91.9851 103.248 92.7892 101.247 94.0442 99.5493C96.5067 96.2179 98.6759 92.615 101.782 89.8099C103.202 88.5278 104.716 87.4373 106.165 86.1769C107.29 85.1997 108.389 84.2209 109.626 83.3853C111.112 82.3811 112.801 81.6898 114.281 80.6773C116.168 79.3869 118.129 78.5651 120.387 78.1654C122.365 77.8153 124.778 78.3777 126.788 78.5182C128.723 78.6535 130.577 78.7311 132.425 79.3864C134.478 80.1144 135.71 81.2283 137.315 82.6671C139.931 85.0121 142.571 87.3839 144.914 89.982C146.082 91.2772 147.434 92.4853 148.633 93.7391C149.199 94.3306 149.645 95.0142 150.299 95.5198C150.758 95.8742 151.828 96.5567 150.595 96.1093" stroke="#171717" stroke-width="1.5" stroke-linecap="round"/>
<path d="M151.5 94.7894C151.419 95.9546 152.837 97.6381 153.312 98.7081C153.862 99.9505 154.602 101.157 154.987 102.47C155.663 104.779 156.96 106.914 157.795 109.155C158.612 111.347 159.396 113.538 159.886 115.853C160.154 117.119 160.476 118.315 160.583 119.599C160.666 120.599 160.655 121.734 160.882 122.706C161.37 124.804 161.556 127.223 161.405 129.378C161.255 131.528 161.476 133.785 161.324 135.956C161.255 136.945 161.372 138.211 161.09 139.163C160.896 139.816 160.246 140.526 160.2 141.186" stroke="#171717" stroke-width="1.5" stroke-linecap="round"/>
<path d="M160.733 138.99C160.449 143.053 158.643 146.278 156.572 149.695C154.172 153.656 152.227 157.839 148.1 160.289C146.475 161.254 144.983 162.448 143.334 163.369C142.678 163.735 141.763 164.341 141.199 164.831C140.563 165.384 139.779 165.622 139.119 166.108C138.449 166.601 137.282 166.775 136.493 167.062C135.695 167.351 134.857 167.469 134.037 167.69C132.406 168.13 130.809 168.442 129.165 168.824" stroke="#171717" stroke-width="1.5" stroke-linecap="round"/>
<path d="M130.013 168.884C129.146 168.823 128.28 168.763 127.413 168.702C126.565 168.643 125.167 168.537 124.333 168.771C122.699 169.229 120.807 168.746 119.147 169.114C117.973 169.375 116.404 169.26 115.204 169.176C114.229 169.108 113.301 169.089 112.376 168.788C111.385 168.466 110.516 167.96 109.639 167.417C108.854 166.931 107.942 166.405 107.199 165.856C105.679 164.732 103.766 163.9 102.015 163.176C101.177 162.831 100.018 162.138 99.2797 161.616C98.2539 160.89 97.2092 160.296 96.2737 159.415C94.6762 157.91 93.0749 155.754 92.2054 153.727C91.5459 152.189 90.3476 151 89.558 149.56C89.3947 149.262 88.1773 147.757 88.2617 147.763" stroke="#171717" stroke-width="1.5" stroke-linecap="round"/>
<path d="M89.1086 149.204C88.5765 148.435 88.3326 147.158 87.9438 146.279C87.3429 144.919 86.4867 143.583 85.814 142.243C85.1683 140.957 84.4314 139.562 84.0015 138.187C83.558 136.77 83.4527 135.016 83.2841 133.534C83.0016 131.052 83.1149 128.762 83.3203 126.237C83.5059 123.956 84.1063 121.675 84.3784 119.391C84.7366 116.383 85.6967 113.312 86.8814 110.56" stroke="#171717" stroke-width="1.5" stroke-linecap="round"/>
</svg>
