<svg xmlns="http://www.w3.org/2000/svg" width="403" height="253" fill="none"><path stroke="#C6C6C8" stroke-linecap="round" stroke-width="2" d="M252.369 106.294c4.448 0 8.674-1.278 13.075-1.767 4.76-.529 9.624-.945 14.33-1.865 6.994-1.369 14.023-2.772 21.065-3.946 14.649-2.441 29.013-5.747 43.352-9.658 13.392-3.652 27.293-6.53 39.787-12.778 3.085-1.542 5.865-3.648 8.651-5.646 1.103-.79 3.475-2.926 3.565-4.457.083-1.41.412-.976-.445-.594-1.194.53-2.434 1.703-3.599 2.393-5.783 3.427-11.844 6.322-18.011 8.965-6.778 2.904-13.559 5.127-20.719 6.917-10.622 2.655-20.997 5.713-31.879 7.28-2.631.38-5.309.449-7.957.66-2.891.232-5.729.892-8.618 1.123-5.898.472-11.582 2.607-17.235 4.177-2.932.815-5.78 1.68-8.75 2.36-2.521.579-5.068.898-7.528 1.718-4.098 1.366-8.207 3.123-12.183 4.82-2.502 1.068-5.391 1.764-8.09 2.064-.782.087-2.64-.287-1.023-.875 4.072-1.481 8.331-2.788 12.547-3.797 1.978-.473 4.023-.861 5.976-1.403 1.276-.355-1.137-.149-1.453-.149-3.655 0-7.301-.131-10.813 1.04-1.112.371-2.051.446-3.22.446-.438 0 1.728-.333 2.18-.446 2.828-.707 11.599-1.04 8.683-1.04-3.266 0-6.49 1.189-9.723 1.189-.634 0 2.062-.416 2.377-.479 3.427-.685 6.9-1.386 10.285-2.262 7.749-2.005 15.385-4.426 23.178-6.24a91.788 91.788 0 0 1 6.043-1.189c.333-.054 2.199-.23.974-.23-4.718 0-8.801.52-13.307 2.08-1.823.63-3.684 1.228-5.48 1.93-.39.153-1.505.705-.413.744 4.424.158 8.901.048 13.306-.363 4.198-.393 8.206-2.195 12.316-3.055 4.078-.853 8.133-1.595 12.216-2.377 6.891-1.32 13.674-2.636 20.405-4.672 8.517-2.576 17.019-4.937 25.655-7.066 1.963-.484 4.037-1.135 6.075-1.188.927-.025.796.094-.016.297-3.21.802-6.562.496-9.823 1.04-6.148 1.025-12.39 1.477-18.523 2.592-5.864 1.066-11.516 2.832-17.334 4.094-3.977.862-7.903 1.74-11.821 2.823-1.006.278-10.499 2.174-10.499 3.269 0 .495 15.405-1.013 16.905-1.04.264-.005 2.384-.01 1.122.23-1.335.255-2.883.364-4.242.364-3.694 0-7.575 1.935-11.127 2.823-5.18 1.295-10.49 3.103-15.403 5.2-1.124.48-2.491 1.189-3.748 1.189-.655 0 1.31.01 1.965 0 9.567-.152 18.763-4.456 27.999-6.389 10.48-2.193 21.071-4 31.433-6.686 6.03-1.564 11.7-3.042 17.466-5.498 4.959-2.112 9.964-4.076 14.842-6.372.622-.293 1.793-.875 2.509-.875.759 0-1.503.264-2.262.264-2.144 0-8.548.509-6.405.594 3.141.126 6.095-.118 9.146-.891 1.779-.451 3.132-1.54 4.754-2.08"/><path stroke="#C6C6C8" stroke-linecap="round" stroke-width="2" d="M250.744 167.19c0-4.063-.487-8.475.302-12.471.838-4.241 1.534-8.51 2.269-12.773 1.547-8.974 3.974-18.58 2.807-27.766-.297-2.339-.867-4.633-1.513-6.891-.251-.88-.681-2.179-1.142-2.958-.34-.573-.937-.724-1.194-1.11-.36-.54-.072 1.304 0 1.95.181 1.628.473 3.266.656 4.908.271 2.44.772 4.91.84 7.361.031 1.108.303 3.197.303.858 0-2.104-.345-4.262-.757-6.32-.364-1.823-.257-4.003-1.361-5.58-.123-.175-2.069-2.964-2.118-2.135-.089 1.513.555 2.587 1.21 3.933 1.561 3.209 2.679 7.189 3.026 10.74.384 3.936 1.204 7.86 1.495 11.799.22 2.965.017 6.02.017 8.992 0 8.211-.453 15.955-2.723 23.9-.515 1.803-1.173 3.489-1.815 5.244-.314.861-.605 1.723-.605.37 0-5.428.023-10.744 1.21-16.085 1.118-5.029 1.816-10.322 1.816-15.479 0-8.418.548-17.023-.068-25.413-.085-1.165-.469-4.629-.538-3.463-.076 1.301 0 2.63 0 3.933 0 6.266 1.877 12.453 2.101 18.741.096 2.672.017 5.36.017 8.034 0 2.682-.516 5.019-.84 7.647-.881 7.134-4.369 13.114-7.614 19.413-2.958 5.743-5.536 11.911-9.227 17.227-.752 1.082-1.775 2.243-2.269 3.479-.321.803.755-1.557 1.193-2.302 1.687-2.873 3.998-5.325 5.748-8.169 1.817-2.952 3.143-6.033 4.236-9.311 1.095-3.287 2.158-6.581 3.092-9.916.367-1.31 1.446-3.054 1.446-4.421 0-3.08.191 6.22-.471 9.227-1.533 6.968-5.784 12.688-9.983 18.287-2.559 3.412-5.177 7.364-8.27 10.236-.598.556-2.153 5.02-2.454 4.42"/><path stroke="#C6C6C8" stroke-linecap="round" stroke-width="2" d="M242.387 179.862c.126-1.265 1.324-2.507 1.888-3.609 1.354-2.647 2.801-5.243 4.155-7.89 2.499-4.885 5.686-9.556 7.533-14.751 2.973-8.362 5.588-16.863 8.33-25.284 2.464-7.57 3.399-15.703 3.399-23.627v.608c0 2.318-.217 4.506-.566 6.799-1.365 8.948-4.189 17.578-6.421 26.334-.161.629-1.986 6.752-2.078 4.7-.355-7.996-.167-15.592 1.889-23.417.808-3.077 1.843-6.151 1.888-9.359.001-.026.004-2.498-.084-2.476-.688.172-.288 4.33-.293 4.826-.046 4.608-.829 9.22-1.511 13.765-.928 6.186-3.638 24.635-3.777 18.381-.163-7.323-.755-14.607-.755-21.948 0-4.211-.265-8.355-.378-12.548-.008-.304-.404-2.434-.378-1.259.07 3.157.717 6.36 1.133 9.485.465 3.487 1.563 13.891 1.868 10.386.353-4.061.433-8.169.965-12.212.246-1.867.189-3.744.189-5.623v-.714c0 5.098-.756 10.199-.756 15.339 0 .782.084 1.519-.02.21-.376-4.699-1.113-9.326-1.113-14.059 0-1.67-.521-4.313.189-5.875.33-.726.567-.576.567.189 0 3.761-.045 8.28 1.322 11.834.662 1.721 1.717-4.161 1.909-4.847.528-1.885 1.025-4.844 2.434-6.253.981-.981.756.964.756 1.511v6.421c0 .506-.374 2.915.084 3.315.195.171.293-3.253.293-3.525 0-.172-.094-5.666.084-5.666.28 0-.409 2.742-.461 2.938-.62 2.331-.784 4.703-1.05 7.092-.16 1.442.61 5.016-.377 6.127-.166.187-.5-2.36-.546-2.727-.234-1.874-.294-3.697-.294-5.582 0-1.577-.142-2.892.756-4.239"/><path stroke="#C6C6C8" stroke-linecap="round" stroke-width="2" d="M267.431 114.216c5.378 0 10.654.126 15.968-.886 11.023-2.1 22.376-5.229 33.084-8.594 14.399-4.526 28.34-10.727 42.635-15.609 5.616-1.917 11.92-4.638 16.878-7.9 2.155-1.418 4.61-2.725 6.487-4.5 1.023-.968 2.304-2.1 3.639-2.586 1.752-.637.125.079-.814.383-3.634 1.178-6.774 3.013-10.126 4.788-2.891 1.53-5.629 3.349-8.642 4.644-4.238 1.822-8.597 3.279-12.76 5.267-9.586 4.578-20.83 7.925-31.193 10.246-7.613 1.705-14.898 4.457-22.407 6.559-3.17.888-6.472 2.157-9.671 2.825-3.404.711-7.052.69-10.51 1.054-1.616.17-3.174.521-4.811.43-1.045-.058 3.187-1.203 3.519-1.292 4.213-1.135 8.87-1.114 13.214-1.269.378-.014 5.232.226 5.147.311-1.916 1.916-8.656.934-10.964.982-5.642.116-11.122 1.159-16.662 2.13-.192.034-4.416.606-3.471-.024 2.736-1.824 5.997-2.515 9.121-3.423 2.519-.732 5.399-1.293 8.043-1.293 1.071 0-4.719 1.203-5.458 1.293-2.057.252-7.202 1.872-9.192.766-.514-.285.763-.943 1.292-1.197 2.306-1.105 4.98-1.568 7.493-1.891 2.747-.353 10.847-1.272 8.307-.168-5.228 2.274-12.011 2.157-17.571 3.328-2.251.474-7.56 1.146-1.987.646 8.806-.79 17.649-1.069 26.453-1.915 1.766-.17 3.612-.218 5.362-.527 1.129-.199-2.277-.335-3.423-.335-4.99 0-9.996.431-14.962.431-4.612 0 9.005-1.992 13.501-3.016 6.835-1.556 14.058-4.155 21.067-4.716 11.964-.957-47.887 2.944-35.885 2.944 1.739 0 3.718-.601 5.41-.861a290.774 290.774 0 0 1 20.708-2.442c5.687-.462 22.799-.958 17.092-.958-7.724 0-15.573 1.902-23.269 2.586-2.012.178-4.314.163-6.272.766-2.288.704 4.754-.603 7.11-1.03 8.016-1.451 16.063-3.242 24.155-4.213 1.288-.155 2.581-.263 3.878-.263 1.293 0-2.528.546-3.782.861-3.46.872-14.054 2.155-10.486 2.155 6.08 0 12.572-2.73 18.434-4.118 3.668-.868 8.058-2.346 11.873-2.346 1.221 0-2.404.433-3.591.718-6.457 1.556-12.821 3.477-19.223 5.243-5.099 1.407-20.457 5.173-15.536 3.232 6.419-2.531 12.934-4.795 19.726-6.105.582-.112 8.014-.964 4.476.383-2.827 1.078-5.997 1.442-8.953 1.964-7.582 1.338-15.188 2.461-22.814 3.519-5.99.83-12.304 1.668-18.146 3.303-.825.231-2.431.169-.862-.718 2.929-1.655 6.755-1.197 9.983-1.197 2.463 0 3.346 1.39.55 2.25-4.48 1.379-9.195 1.952-13.741 3.089-1.857.464-1.96.532-3.543-.599M172.086 242.824c1.579 0 2.312-.303 3.647-1.193 1.722-1.148 3.883-1.538 5.731-2.437 3.261-1.587 5.968-3.992 9.312-5.446 5.889-2.56 12.454-5.697 17.026-10.269 6.181-6.182 12.675-11.985 18.303-18.791 6.655-8.049 12.751-15.968 17.849-25.11 2.107-3.778 4.367-7.481 6.185-11.413.697-1.505 1.816-2.895 1.816-4.605"/><path fill="#fff" stroke="#171717" stroke-width="2" d="M375.864 37.72c9.414-2.896 19.351 2.601 21.9 12.115 2.55 9.514-3.307 19.243-12.908 21.443l-162.69 37.275-5.833-21.77 159.531-49.064Z"/><circle cx="9.015" cy="9.015" r="9.015" stroke="#171717" stroke-width="2" transform="rotate(75 163.574 272.598)"/><ellipse cx="125.557" cy="127.079" fill="#fff" stroke="#171717" stroke-width="2" rx="123.959" ry="123.96"/><ellipse cx="125.558" cy="127.079" stroke="#171717" stroke-width="2" rx="101.421" ry="101.422"/><path stroke="#171717" stroke-linecap="round" stroke-width="2" d="M240.781 80.144c4.772 0 9.109-.5 13.736-1.552 1.332-.302 2.466-1.21 3.731-1.716 1.121-.449 2.13-.752 3.186-1.321 1.267-.683 2.795-.985 4.144-1.37 6.307-1.803 12.586-4.754 18.754-7.116 12.116-4.64 24.66-8.272 36.914-12.48 5.466-1.878 11.263-2.927 16.839-4.458 5.321-1.46 10.56-3.119 15.914-4.457 7.111-1.778 14.383-4.223 21.693-5.035 5.676-.631 12.391-1.243 17.351 2.063 4.535 3.024 3.747 9.398 3.747 14.165 0 3.82-.761 7.785-3.797 10.268-.757.62-2.624.443-3.566.595-1.415.228-3.038.784-4.391 1.27-1.956.705-3.766 1.834-5.828 2.246-3.695.74-7.406 2.402-11.011 3.483-4.326 1.298-8.886 2.215-13.026 4.078-2.721 1.225-6.265 2.04-9.195 2.592-3.318.626-6.57 1.684-9.938 2.245-3.842.64-7.75 1.352-11.606 1.85-3.617.466-7.036 1.577-10.615 2.145-3.544.563-7.135 2.133-10.616 3.055-3.374.893-6.466 2.073-9.971 2.525-4.422.571-8.761 1.622-13.224 2.015-4.906.43-9.684 1.307-14.56 1.849-4.029.447-8.357 1.84-12.25 2.971-1.658.481-3.877 1.783-5.58 1.783M26.68 105.525c0-2.403-.082-4.772.27-7.147.212-1.434 1.093-2.854 1.888-4.046.873-1.309 1.393-2.778 2.218-4.12 1.266-2.065 2.415-4.22 3.716-6.264 1.193-1.874 2.895-3.684 3.776-5.724.808-1.872 2.26-3.772 3.521-5.35 2.946-3.681 5.516-7.693 8.616-11.253a115.88 115.88 0 0 1 8.511-8.826c3.213-2.991 6.865-5.34 10.37-7.956 5.025-3.752 10.2-7.15 15.583-10.31 3.086-1.81 6.83-2.56 10.309-3.326 4.294-.945 8.507-1.953 12.887-2.487 7.758-.946 15.503-1.14 23.315-1.14"/><path stroke="#171717" stroke-linecap="round" stroke-width="2" d="M128.914 27.212c3.559 0 7.125-.066 10.683 0 2.964.055 5.906.83 8.806 1.332 1.422.246 2.822.78 4.202 1.203 2.145.655 4.18 1.555 6.304 2.23 3.748 1.189 6.997 3.763 10.603 5.308 1.953.838 3.747 2.069 5.525 3.216a129.084 129.084 0 0 0 5.157 3.168 63.158 63.158 0 0 1 8.63 6.032c1.223 1.015 2.652 1.801 3.769 2.919a191.81 191.81 0 0 1 4.235 4.363c2.588 2.758 6.404 4.193 8.445 7.458.316.506.636 1.001.722 1.604.019.136.152.714.152.29"/><path stroke="#171717" stroke-linecap="round" stroke-width="2" d="M205.426 65.757c.074.666 1.111 1.66 1.475 2.23.811 1.269 1.804 2.422 2.567 3.721 1.174 2 2.305 4.02 3.641 5.92 3.131 4.453 5.229 9.94 6.785 15.125.867 2.89 1.164 5.883 1.845 8.806.526 2.26.694 4.576 1.299 6.817.549 2.034 1.028 4.102 1.588 6.144.174.635.247 1.312.545 1.908.162.324.231.496.032 0"/><path stroke="#171717" stroke-linecap="round" stroke-width="2" d="M225.491 114.263c0 1.758-.083 3.541.217 5.277.335 1.946.264 3.99.73 5.919.505 2.096.622 4.311.898 6.448.269 2.089.176 4.214.176 6.32 0 2.452-.69 4.833-1.227 7.218-.586 2.603-1.196 5.259-2.021 7.795-.925 2.846-2.034 5.612-3.136 8.389-.861 2.172-1.85 4.236-2.502 6.489-.222.765-.395 1.563-.642 2.302M142.191 226.715c2.761 0 5.614.347 8.214-.598 1.686-.614 3.473-1.4 5.254-1.796 1.62-.36 3.701-1.539 5.254-2.244 1.263-.575 2.976-.533 4.173-1.198 1.934-1.074 4.139-1.818 6.135-2.843 2.342-1.203 4.615-2.45 6.817-3.89 1.265-.827 2.644-2.23 4.023-2.76 1.832-.705 4.214-2.193 5.62-3.525 1.302-1.234 2.938-2.069 4.339-3.159 1.698-1.32 2.958-2.941 4.473-4.456 1.721-1.721 3.78-3.793 5.104-5.852 1.258-1.957 3.16-3.495 4.472-5.404 2.324-3.38 4.547-6.892 7.349-9.859 2.251-2.384 3.891-4.989 3.891-8.38"/><path stroke="#171717" stroke-linecap="round" stroke-width="2" d="M63.781 209.057c1.53.153 3.47 2.472 4.656 3.442 1.214.994 2.664 1.762 4.023 2.477 1.651.869 3.599 1.146 5.237 2.029 1.704.917 3.485 1.92 5.304 2.593 1.565.58 3.055 1.481 4.589 2.178 1.525.694 3.36.955 4.921 1.58 1.953.781 4.515 1.349 6.568 1.862 1.959.49 3.918 1.2 5.852 1.796 3.962 1.219 7.97 1.795 12.104 1.795 3.935 0 7.97.3 11.838.3 3.737 0 7.524-.3 11.206-.3 3.145 0 6.098-2.095 9.294-2.095"/><path stroke="#171717" stroke-linecap="round" stroke-width="2" d="M64.677 209.358c-2.168-2.169-4.226-4.311-6.35-6.518-1.569-1.628-2.843-3.538-4.274-5.287-.558-.682-1.238-.808-1.712-1.662-.439-.79-1.521-1.33-2.095-2.095-3.315-4.42-6.948-8.387-8.845-13.7-.691-1.935-1.905-3.807-2.46-5.753-.397-1.386-.986-3.206-1.564-4.489-2.708-6.019-4.831-12.248-6.817-18.555-1.038-3.3-1.92-6.569-2.394-10.009-.377-2.732-1.418-5.497-1.496-8.247-.109-3.813-.3-7.699-.3-11.439 0-2.958-.299-5.916-.299-8.895 0-1.327-.28-3.049.3-4.206M2.055 115.794c0-4.789.959-9.806 3.128-14.144 1.902-3.805 3.874-8.138 4.82-12.3.426-1.874 1.405-3.662 2.116-5.44.87-2.177 1.496-4.594 2.72-6.605 1.199-1.969 1.897-4.322 2.932-6.392 1.293-2.587 2.337-5.3 3.868-7.767 2-3.223 3.622-6.909 6.12-9.777 2.246-2.578 4.27-5.292 6.664-7.752 1.285-1.321 2.25-2.99 3.536-4.352.85-.9 1.645-1.915 2.464-2.857.523-.601 1.573-1.99 2.296-2.312.955-.424 1.551-1.685 2.161-2.448.89-1.113 1.743-2.407 2.75-3.415 1.89-1.89 3.834-3.636 6.317-4.745"/><path stroke="#171717" stroke-linecap="round" stroke-width="2" d="M50.742 27.663c2.064 0 3.95-1.072 5.607-2.176 2.504-1.67 5.165-3.183 7.721-4.745 3.738-2.284 7.55-4.485 11.576-6.256 4.645-2.044 9.193-5.396 14.25-6.408 5.054-1.01 9.95-2.598 15.111-3.264 3.757-.484 7.451-1.228 11.228-1.571 2.567-.234 5.109-.471 7.677-.665 2.371-.18 4.772-.042 7.132-.272 7.288-.711 15.318-.657 22.184 2.176 3.554 1.467 7.191 2.685 10.729 4.2 3.698 1.586 7.335 3.483 10.88 5.38"/><path stroke="#171717" stroke-linecap="round" stroke-width="2" d="M166.344 9.165c1.542.172 2.637 1.764 4.08 2.176 1.684.482 3.333 1.917 4.896 2.72 4.983 2.563 10.481 4.29 15.293 7.133 11.024 6.515 21.318 14.609 29.648 24.42 2.304 2.713 4.682 5.36 6.725 8.296 2.15 3.092 3.492 6.494 5.455 9.657 3.082 4.965 4.755 11.03 6.589 16.532.434 1.302.926 2.764 1.284 4.02.267.933.999 2.17 1.103 3.112.157 1.407 1.303 2.804 1.617 4.216.168.756.487 1.624.831 2.312"/><path stroke="#171717" stroke-linecap="round" stroke-width="2" d="M242.234 89.136c0 5.133 2.741 10.053 4.776 14.704 2.499 5.713 2.919 12.336 3.717 18.421 1.086 8.283.781 17.305-.74 25.523-.361 1.947-.463 4.264-1.285 6.09-.83 1.845-1.737 3.625-2.644 5.44-1.624 3.246-2.674 6.28-3.552 9.792"/><path stroke="#171717" stroke-linecap="round" stroke-width="2" d="M110.836 250.624h17.067c4.678 0 8.739-.83 13.318-1.678 6.593-1.22 13.517-1.569 19.946-3.355 3.482-.967 6.747-2.244 10.046-3.728 3.42-1.539 6.992-2.617 10.17-4.661 5.703-3.666 12.067-6.821 17.067-11.557 1.814-1.719 4.122-3.148 6.131-4.64 4.116-3.058 8.296-6.637 11.537-10.625 1.895-2.333 3.789-4.651 5.447-7.188 1.866-2.854 4.419-5.29 6.173-8.161 4.341-7.103 8.743-13.665 12.096-21.209.98-2.207 1.572-4.759 2.237-7.084.608-2.127 2.609-4.203 2.609-6.338M5.7 100.749c0 4.566-1.908 8.442-2.588 12.862-.613 3.983-1.14 7.631-1.14 11.744 0 6.907 2.618 13.306 3.377 20.133.558 5.023 1.725 10.03 3.045 14.913.866 3.206 2.28 6.259 3.355 9.404 1.579 4.618 2.9 9.207 4.764 13.732 2.978 7.232 7.683 12.491 12.966 18.165 1.963 2.108 3.023 4.998 4.95 7.167.83.933 1.49 1.891 2.216 2.899.313.434 1.835.829.746.829"/><path stroke="#171717" stroke-linecap="round" stroke-width="2" d="M34.035 210.36c2.597 2.338 5.035 5.366 7.995 7.25 4.438 2.824 8.533 6.174 12.883 9.155 4.963 3.4 9.911 6.598 15.1 9.672 4.035 2.392 8.329 3.962 12.49 5.986 3.356 1.633 7.078 2.587 10.439 4.267 3.483 1.742 8.177 1.558 11.93 2.444 5.524 1.304 11.176 2.008 16.777 2.631 1.659.184 12.438.249 12.304-.021M374.948 45.927c-.419 0-.85-.032-1.267.01-.9.09-1.724.628-2.46 1.113-.61.402-1.189.919-1.706 1.437-.332.331-.747.642-.853 1.122-.531 2.386-.27 4.945-.27 7.385 0 1.15.223 2.173.584 3.258.347 1.04 1.295 1.671 2.24 2.16 1.533.793 2.955 1.665 4.671 2.061 1.723.398 3.214.171 4.72-.718 1.768-1.046 3.057-2.331 4.061-4.107.608-1.076.923-2.375 1.193-3.572.297-1.324.457-3.009-.045-4.301-.45-1.157-1.198-2.27-2.066-3.154-.892-.91-2.087-2.02-3.323-2.425-.657-.215-1.303-.467-1.976-.628-.694-.166-1.446-.09-2.155-.09-.538 0-1.178-.098-1.707.02-.287.064-.604.16-.898.16"/><path fill="#fff" stroke="#fff" stroke-width="8" d="M123.418 57.271c-4.038-1.598-9.89-2.895-15.714-1.953-6.756 1.092-13.253 5.2-16.433 14.36-3.75 10.802-1.712 18.217.646 24.717.23.633.46 1.251.683 1.856 2.025 5.468 3.676 9.926 2.556 16.337-1.692 9.69 1.805 20.475 8.988 27.457 7.432 7.223 18.637 10.202 31.432 4.331 6.014-2.759 10.113-5.691 13.153-8.679 2.942-2.892 4.77-5.729 6.259-8.039l.121-.187c1.55-2.404 2.644-4.024 4.287-5.36 1.573-1.28 3.922-2.498 8.173-3.336 9.147-1.804 13.197-11.42 13.067-19.9-.135-8.877-4.633-18.822-14.985-23.527-.591-.27-1.27-1.012-2.727-3.559a244.12 244.12 0 0 1-.39-.685c-1.219-2.157-2.855-5.048-5.36-7.615-5.88-6.025-15.508-9.438-33.756-6.218Z"/><path stroke="#FFD424" stroke-linecap="round" stroke-width="2" d="M110.639 100.725c-.317.407 1.135 1.865 1.364 2.157.844 1.075 1.887 2.032 2.683 3.135 1.412 1.954-3.033-4.154-3.033-6.565 0-.334.537.325.544.332.697.66 1.404 1.304 2.065 2.001.6.632 1.206 1.259 1.807 1.89.129.135.725 1.006.305.387-1.121-1.651-2.209-3.388-3.052-5.2-.478-1.027-.459-.928.341-.221.634.56 1.581 1.624 2.416 1.881.195.06.017-.426-.074-.609-.492-.984-1.101-1.91-1.614-2.886-.222-.423-.564-.868-.728-1.318-.002-.006.963.693 1.07.774 1.401 1.07 3.018 2.618 4.665 3.292.459.188.116-.426.046-.553-.768-1.394-1.716-2.702-2.591-4.03-.524-.795-1.076-1.593-1.494-2.452-.431-.888 1.005.198 1.125.276a200.17 200.17 0 0 0 10.106 6.178c.437.25 1.373 1.221 1.327.72-.022-.243-.257-.415-.405-.61-.688-.901-1.409-1.781-2.121-2.664-1.062-1.317-2.168-2.598-3.236-3.91-.428-.525-1.004-1.156-1.254-1.806-.177-.46.862.472 1.281.728a298.59 298.59 0 0 0 5.072 3.024c.901.525 1.798 1.06 2.729 1.53 1.031.522.219-.097-.212-.497-2.697-2.505-5.31-5.1-8.031-7.58-.142-.129-.547-.513-.369-.442 1.032.413 2.032.94 3.043 1.402 4.346 1.983 8.763 3.787 12.945 6.103.269.15 1.076.52.876.286-1.34-1.563-2.942-2.967-4.417-4.398-1.313-1.274-2.652-2.523-3.946-3.817-.697-.697-1.736-1.587-.009-.904 2.339.926 4.623 1.995 6.943 2.97.179.075 1.06.488.488-.084-1.64-1.64-3.578-3.037-5.393-4.471-1.234-.975-2.484-1.93-3.725-2.895-.189-.147-1.295-.893-.378-.628 1.817.527 3.572 1.333 5.338 2.01 1.767.678-1.444-.837-1.715-.968a58.278 58.278 0 0 0-5.827-2.443c-.969-.346 1.802.995 2.692 1.512.308.18.705.297.987.517.092.07-1.304-.32-1.392-.35-2.052-.739-4.115-1.495-6.307-1.679-1.136-.096-1.239.337-1.568 1.29-.859 2.501-3.367 3.874-4.637 6.086-.984 1.712-1.418 3.714-1.983 5.588-.449 1.493-.892 3.111-.922 4.684-.009.506-.175.795-.415.129-.363-1.01-.414-2.02-.414-3.08 0-1.784.793-2.909 1.77-4.389 1.626-2.463 3.391-5.153 5.744-6.989.166-.129 1.283-1.12.95-.332-.23.545-.603.987-.978 1.439-1.352 1.628-2.655 3.297-3.964 4.96a49.004 49.004 0 0 0-2.481 3.449c-.252.385-.725.897-.71 1.401.009.267.52-.173.72-.35a167.432 167.432 0 0 1 4.398-3.771c1.048-.87 2.102-1.736 3.199-2.545.112-.083 1.236-.705 1.236-.931 0-.292-.529.249-.775.405-1.166.743-2.354 1.496-3.421 2.38-.694.575-2.351 2.007-2.351 3.051 0 .319.453.085.563.028 1.487-.78 2.85-1.92 4.195-2.914 1.285-.949 2.57-1.902 3.836-2.877.532-.41 1.34-.905 1.714-1.493.127-.199-.467-.11-.7-.083-1.626.19-3.147.999-4.481 1.908-2.054 1.4-5.352 4.165-5.606 6.897-.15 1.61 4.188.659 4.979.553 1.506-.2 2.994-.538 4.425-1.05.658-.237 1.864-.576 2.204-1.282.561-1.165-4.035-3.06-4.73-3.495a70.568 70.568 0 0 1-2.028-1.328c-.094-.063-.353-.24-.24-.24 2.077 0 4.374.656 6.417.996.997.167 1.983.39 2.978.563 1.032.178.472-.156-.12-.47-1.732-.92-3.558-1.611-5.237-2.637-.033-.021 2.364.562 2.84.682.998.252 2.014.425 3.006.7.284.08 1.289.593 1.595.47.477-.19-.909-.483-1.383-.681-1.734-.725-3.447-1.496-5.172-2.241-.875-.377-1.769-.732-2.619-1.162-.729-.368-.324-.368.249-.368 1.595 0 3.225-.096 4.794.248 1.667.366.052.08-.691-.083-1.001-.22-2.01-.438-3.024-.59-.493-.073-1.954-.093-1.476-.23 1.567-.448 3.905.543 5.404.913.588.145 1.215.203 1.788.405.108.039.396.188.332.093-.674-1.011-2.836-1.685-3.928-2.057-.366-.124-.842-.262-1.235-.175-.529.118.587 1.64.645 1.734 2.265 3.651 4.835 7.133 7.238 10.695.437.648 2.203 2.823.277 1.392-2.302-1.71-4.406-3.69-6.74-5.357-2.056-1.468 3.633 3.526 5.237 5.477.999 1.216 1.9 2.514 2.794 3.808.019.029 1.18 1.693.783 1.669-.927-.056-2.166-1.114-2.913-1.549-1.71-.995-3.428-1.973-5.127-2.987-.296-.177-1.031-.779-1.447-.683-.33.076.719 1.29.747 1.328 1.38 1.919 2.719 3.937 3.752 6.067.107.221.313.676-.166.443-1.662-.81-3.087-2.335-4.509-3.486-.15-.121-4.16-3.113-4.186-3.06-.188.377.553.639.849.94 1.544 1.57 3 3.163 4.342 4.914.877 1.144 1.769 2.288 2.573 3.485.045.067 1.127 1.72.701 1.522-1.445-.672-2.751-1.926-4.002-2.877-2.117-1.61-4.235-3.221-6.519-4.592-.097-.058-1.434-.838-1.3-.71.892.85 1.754 1.715 2.582 2.628a74.399 74.399 0 0 1 3.872 4.666c.73.949 1.696 1.973 2.195 3.079.197.437-.868-.43-1.236-.737-1.587-1.328-3.115-2.723-4.72-4.03-.562-.457-2.866-2.397-1.162-.654 1.465 1.498 2.898 3.03 4.038 4.794.086.133.76.951.517 1.162-.541.468-2.397-.455-2.877-.655-.883-.367-1.722-.834-2.609-1.189-.551-.22-.824-.247-.323.276.897.938 1.941 1.897 2.563 3.052.149.277-.567-.281-.811-.479-1.377-1.119-2.652-2.393-3.91-3.642-.157-.157-2.567-2.43-1.373-1.392.435.379 1.908 1.244 1.355 1.078-.752-.225-1.702-2.017-2.176-2.627-.401-.516-.25-.34-.028.055.448.796 1.141 1.373 1.78 2.019 2.216 2.245 4.563 4.202 7.063 6.104 1.053.802 1.829.83 3.116.83 1.689 0 3.876.365 5.486-.185 3.082-1.052 6.074-2.465 7.699-5.421.566-1.029 1.057-2.569 1.899-3.412.111-.11-.215 1.111-.276 1.254-1.789 4.175-6.175 7.363-10.05 9.479-.084.046-4.61 2.223-4.61 1.936 0-.089 1.11-.335 1.198-.369 1.612-.61 3.431-.652 5.117-.959 2.758-.501 5.66-.812 8.05-2.425 2.909-1.963 3.513-5.034 4.462-8.252.272-.922.541-1.834.885-2.729.013-.032.246-.278.222-.129-.079.469-1.095 1.114-1.393 1.392-2.363 2.214-4.893 4.261-7.357 6.362-.996.849-3.717 3.684-2.813 2.739 3.223-3.366 6.133-7.035 9.341-10.419.883-.932 1.785-1.851 2.637-2.812.151-.171.521-.601.009-.415-1.4.509-2.756 1.311-4.039 2.047a71.626 71.626 0 0 0-9.792 6.758c-1.601 1.314-6.276 5.353-4.499 4.287 1.695-1.016 3.16-2.735 4.582-4.093.29-.277 1.753-1.624.415-1.199-1.01.321-2.121 1.183-2.876 1.918-1.372 1.333 2.648-2.76 3.983-4.131.216-.222 4.619-4.721 4.499-4.794-.307-.188-1.232.19-1.475.276-2.326.827-4.526 2.169-6.592 3.495-1.899 1.218-4.322 2.68-5.689 4.545-.183.25.564-.264.811-.451 2.385-1.81 4.711-3.703 7.044-5.579 1.787-1.436 3.544-2.9 5.256-4.425.668-.596 1.546-1.204 2.084-1.937.172-.234-.197-.258-.342-.258-.975 0-1.909.414-2.72.922-1.227.77-2.623 1.724-3.374 3.006-.169.288 1.98.205 2.167.212.9.033 2.678.351 2.867 1.484.085.507-.212.937-.516 1.31-1.082 1.322-2.323 2.555-3.495 3.798-.783.832-1.637 1.602-2.369 2.481-.604.724-.611.742.092.101 1.724-1.573 3.444-3.203 5.449-4.416 1.182-.716.607-.133.028.599-1.64 2.07-3.546 4.085-4.758 6.454-.002.004-.427.785-.212.646.776-.503 1.484-1.141 2.213-1.706 1.765-1.369 3.675-3.041 5.689-4.048 1.225-.613-1.733 2.124-2.545 3.227-.291.396-2.291 3.132-.719 2.232 1.376-.789 2.673-1.783 4.186-2.306.939-.324-.921 1.1-1.088 1.245-.126.109-1.652 1.539-.978 1.134 1.301-.78 2.577-1.696 3.781-2.618 2.775-2.126 4.235-4.665 5.237-7.967.297-.979.277-2.215.323-3.236.051-1.16.123-2.44-.194-3.568-.526-1.873-1.373-3.503-2.121-5.274-.621-1.471-1.848-3.123-3.153-4.02-1.885-1.296-4.265-1.87-6.399-2.665-1.915-.713-4.129-1.166-6.177-1.318-1.644-.122 3.298-.25 4.942-.13 3.407.25 7.721 1.086 10.133 3.8 3.774 4.246 3.3 11.05 1.078 15.812-.276.592-.469 1.252-1.005 1.669-.59.459-.726-1.092-.783-1.346-.953-4.198-1.894-8.386-3.034-12.54-.588-2.145-1.192-4.295-1.89-6.408-.304-.919-.624-2.105-1.272-2.867-.238-.28.372.632.571.94 1.375 2.123 2.551 4.36 3.569 6.676 1.577 3.588 2.885 7.348 3.752 11.175.296 1.305-3.501-1.388-3.808-1.623A19.403 19.403 0 0 1 139 94.14c-.298-.342-1.19-1.116-.737-1.143.565-.033 1.367 1.035 1.715 1.383.153.154.63.597.461.461-.939-.75-1.748-1.7-2.564-2.572-1.358-1.451-2.731-2.887-4.093-4.334-.515-.546-.688-.742-1.181-1.254-.236-.246-1.04-.784-.7-.747.459.051 1.384 1.233 1.659 1.494 1.611 1.525 3.214 3.054 4.721 4.684.689.745 1.355 1.51 2.028 2.268.172.193.704.978.222.277-1.633-2.377-3.233-4.736-4.703-7.22-.913-1.543.825-.473 1.642-.083 1.833.876 3.541 1.928 5.228 3.052 2.734 1.823-5.676-3.324-8.4-5.163a91.105 91.105 0 0 1-5.2-3.771c-.072-.056-1.846-1.494-.683-.849 4.046 2.244 14.797 11.109 11.194 8.207-.795-.64-1.834-1.474-2.379-2.342-.172-.274-.068-.307.166-.13.726.553 1.46 1.104 2.176 1.67a9.5 9.5 0 0 1 1.411 1.382c.332.4.264.38-.01-.046-.64-.998-1.525-1.947-1.844-3.116-.347-1.272 1.467 2.2 2.047 3.384.593 1.21 1.136 2.447 1.54 3.734.167.532.765 1.955.23 2.47-.59.57-1.894.597-2.637.702-1.299.183-2.632.268-3.881.7-1.484.514-1.039 2.15-.729 3.357.092.357 1.194 3.153.655 3.347-.971.349-2.563-.11-3.494-.277-2.431-.437-4.833-1.017-7.266-1.448-.492-.087-1.637-.499-2.158-.295-.039.016 1.34 1.663 1.402 1.743.706.905 1.342 1.861 1.955 2.831.324.512.933 1.211 1.069 1.825.085.38-.772-.148-1.125-.313-1.398-.657-2.764-1.38-4.167-2.029-.872-.403-1.756-.824-2.656-1.162-.644-.241-.053.168.12.342 1.173 1.173 2.204 2.716 3.015 4.158.728 1.293-.172.728-1.005.258-.767-.433-1.537-.859-2.314-1.272-.277-.147-1.153-.424-.839-.424.529 0 1.562 1.573 1.872 1.936 1.189 1.392-.099.721-1.042.175-.898-.52-1.792-1.048-2.72-1.512-.314-.157-1.155-.608-1.015-.286.144.328.726.726.959 1.033.672.882 1.265 1.87 1.9 2.784.956 1.377 2.128 3.431 3.669 4.232 3.637 1.891 7.925.958 11.12-1.346 3.42-2.465 4.717-6.578 7.542-9.524.338-.353.653-.709.959-1.088.06-.075.286-.24.258-.24-.485 0-1.108.04-1.549-.203-.616-.339-.243-1.67-.166-2.157.11-.698.246-1.386.498-2.047.048-.125.612-1.088.24-.83-2.247 1.555-4.528 3.032-6.934 4.333-.467.253-.992.473-1.42.793-.574.431 1.144-.868 1.725-1.291.401-.292 2.267-1.56 2.231-1.558-2.835.21-5.762 2.901-7.773 4.675a37.794 37.794 0 0 0-1.936 1.862c-.173.177-.368.552-.609.646-.477.186-1.14.092-1.632.092-1.779 0-3.575-.008-5.32-.406-.997-.227-1.978-.592-2.821-1.18-.019-.013-.714-.669-.443-.359.686.784 1.28 1.774 1.752 2.701.457.897.019.616-.276-.304-1.273-3.971-2.4-8.923-1.31-13.084.619-2.361 2.543-3.318 4.675-4.029 1.886-.629-.625-1.533-1.577-1.586-.61-.034-2.001-.268-2.563.028-.225.118-.074 1.218-.074 1.457 0 .401-.08.973-.534 1.125-.803.267-1.179-.52-1.448-1.125-.719-1.618-.886-3.394-.839-5.145.024-.887.758-2.057 1.162-2.822.719-1.362 3.496-1.689 4.813-1.991 1.737-.4 3.909-.373 5.476.498"/><path stroke="#fff" stroke-linecap="round" stroke-width="2" d="M139.664 93.707c.223-.366.739 1.66.773 1.87.122.734.167 1.445-.135 2.145-.288.67-.264 1.476-.532 2.15-.312.786-.67 1.556-1.005 2.332-.832 1.931-2.228 3.476-3.715 4.956-.557.555-1.414.985-1.871 1.618-.23.319.017-.028.117-.092.764-.488 1.636-.846 2.415-1.329 2.113-1.307 3.75-3.405 5.146-5.426 1.137-1.647.769-3.206 1.014-5.1.139-1.078-2.152-3.716-1.879-2.664.757 2.916.961 5.25-.247 8.053-.277.643-.474 1.371-.995 1.852-.56.517-.009-.445.092-.673.321-.718.778-1.345 1.092-2.074.488-1.133.995-2.49.924-3.747-.039-.681.214-1.462-.013-2.133-.025-.074.65 1.832.762 2.456.202 1.13.172 2.35-.289 3.418-.679 1.576-2.883 6.231-2.203 4.654.547-1.27 1.358-2.429 2.054-3.622.744-1.274 1.258-2.688 1.841-4.043.294-.68.368-1.272.18-1.995-.231-.893-.673 1.282-.737 1.558-.424 1.835-1.001 3.422-1.674 5.157-.463 1.195.636-.639.778-.915.486-.944 1.007-1.853 1.428-2.829"/><path stroke="#171717" stroke-width="1.5" d="M95.014 71.02c5.317-15.312 20.825-12.76 27.914-9.57 36.687-6.912 33.23 14.023 41.033 17.57 17.318 7.872 15.456 33.365 2.799 35.861-18.875 3.721-10.291 15.522-32.887 25.889-22.597 10.368-37.736-10.716-34.811-27.464 2.924-16.748-10.693-23.145-4.048-42.285Z"/><circle cx="129.925" cy="97.394" r="21.394" stroke="#171717" stroke-width="1.5"/><circle cx="129.925" cy="97.394" r="21.394" stroke="#171717" stroke-width="1.5"/><path stroke="#171717" stroke-linecap="round" stroke-width="1.5" d="M123.726 61.527c-2.757 0-5.254-.25-7.813-1.341-1.991-.85-4.899-1.675-7.056-.836-1.044.406-1.883 1.03-2.974 1.34-1.072.307-1.926.773-2.798 1.459-1.054.828-1.828 2.108-2.799 3.051-.781.759-1.543 1.5-2.274 2.274-1.368 1.449-2.9 2.885-3.46 4.898-.735 2.646-1.264 5.557-1.264 8.3 0 1.538-.224 3.267.04 4.781.3 1.727.753 3.36 1.272 5.035 1.313 4.23 2.937 8.342 3.936 12.672M98.539 103.51v5.51c0 2.096-.208 4.318.136 6.385.205 1.227.672 2.351 1.01 3.538.356 1.243.455 2.622.691 3.897.241 1.301.813 2.467 1.137 3.761.332 1.328.313 2.825.797 4.101.944 2.489 2.815 4.422 4.49 6.395 1.067 1.257 2.595 3.038 4.062 3.838 1.207.659 2.344 1.14 3.732 1.448.706.157 1.407.661 2.138.661h3.149M120.227 143.045h4.762c1.82 0 3.411-.742 5.121-1.312 2.833-.944 5.804-.937 8.572-2.187 2.099-.948 4.68-2.005 6.346-3.635 1.67-1.633 2.957-3.768 4.412-5.597.564-.709 1.243-1.354 1.749-2.1.488-.718.708-1.564 1.225-2.303 1.118-1.597 2.548-2.96 3.674-4.568 1.415-2.021 2.622-3.75 4.898-4.888M161.164 116.28c2.254 0 4.519-.175 6.784-.175 1.135 0 1.722-1.551 2.312-2.371 1.547-2.148 2.509-4.805 3.46-7.25.701-1.803 1.152-3.676 1.711-5.511 1.457-4.787.616-9.186-2.547-13.07-.601-.74-1.712-1.63-2.099-2.499-.299-.672-.762-1.267-1.049-1.953-.679-1.621-1.148-3.054-2.274-4.431"/><path stroke="#171717" stroke-linecap="round" stroke-width="1.5" d="M168.161 80.07c-.539 0-.711-.605-1.128-.836-.706-.393-1.323-1.012-2.021-1.4-1.472-.818-3.284-1.27-4.509-2.449-1.814-1.747-4.05-3.209-5.112-5.598-1.098-2.469-3.456-4.626-5.637-6.161-.817-.575-1.874-.867-2.799-1.225-1.216-.47-2.575-.986-3.848-1.263-.741-.161-1.411-.535-2.138-.739-.544-.152-1.118-.11-1.672-.233-1.184-.263-2.636-.039-3.849-.039-1.465 0-2.932.42-4.373.661-1.439.24-2.903.245-4.334.525-.931.182-1.794.211-2.663.602-.846.381-1.64.447-2.449-.038M127.196 77.943c-2.814 0-5.523-.15-8.243.683-2.214.679-5.139 2.343-6.435 4.336-3.858 5.935-3.637 13.135-3.527 19.962.049 3.043 2.136 6.448 4.046 8.697 2.029 2.391 4.786 4.525 7.661 5.79 2.461 1.083 5.4 2.571 8.141 2.63 2.99.063 5.051-.631 7.8-1.707 1.923-.752 3.878-2.766 5.322-4.21.913-.912 1.802-2.125 2.529-3.185.867-1.267 1.984-2.503 2.68-3.869 1.095-2.15 2.202-4.413 2.604-6.826.55-3.298.649-7.886-.518-11.024-2.231-5.996-8.784-7.809-14.501-9.052-2.074-.45-4.115-1.08-6.194-1.542-1.721-.382-3.56-.352-5.234-.91"/></svg>