<svg xmlns="http://www.w3.org/2000/svg" width="403" height="253" fill="none"><path stroke="#C6C6C8" stroke-linecap="round" stroke-width="2" d="M252.674 106.294c4.447 0 8.674-1.278 13.075-1.767 4.76-.529 9.624-.945 14.329-1.865 6.995-1.369 14.024-2.772 21.066-3.946 14.649-2.441 29.013-5.747 43.352-9.658 13.391-3.652 27.292-6.53 39.787-12.778 3.085-1.542 5.865-3.648 8.65-5.646 1.104-.79 3.476-2.926 3.566-4.457.083-1.41.412-.976-.446-.594-1.194.53-2.433 1.703-3.599 2.393-5.783 3.427-11.843 6.322-18.011 8.965-6.778 2.904-13.558 5.127-20.718 6.917-10.622 2.655-20.998 5.713-31.879 7.28-2.631.38-5.309.449-7.957.66-2.891.232-5.729.892-8.618 1.123-5.898.472-11.582 2.607-17.235 4.177-2.932.815-5.781 1.68-8.75 2.36-2.521.579-5.068.898-7.528 1.718-4.098 1.366-8.207 3.123-12.184 4.82-2.501 1.068-5.391 1.764-8.089 2.064-.783.087-2.641-.287-1.024-.875 4.073-1.481 8.332-2.788 12.547-3.797 1.979-.473 4.023-.861 5.976-1.403 1.277-.355-1.136-.149-1.452-.149-3.655 0-7.301-.131-10.814 1.04-1.111.371-2.05.446-3.219.446-.438 0 1.728-.333 2.179-.446 2.829-.707 11.599-1.04 8.684-1.04-3.266 0-6.491 1.189-9.724 1.189-.633 0 2.063-.416 2.378-.479 3.427-.685 6.9-1.386 10.285-2.262 7.749-2.005 15.384-4.426 23.178-6.24a91.759 91.759 0 0 1 6.042-1.189c.333-.054 2.2-.23.974-.23-4.718 0-8.8.52-13.306 2.08-1.823.63-3.685 1.228-5.481 1.93-.39.153-1.504.705-.413.744 4.425.158 8.902.048 13.307-.363 4.198-.393 8.206-2.195 12.315-3.055 4.079-.853 8.134-1.595 12.217-2.377 6.891-1.32 13.673-2.636 20.405-4.672 8.517-2.576 17.019-4.937 25.655-7.066 1.963-.484 4.037-1.135 6.075-1.188.926-.025.796.094-.017.297-3.209.802-6.561.496-9.822 1.04-6.149 1.025-12.39 1.477-18.523 2.592-5.864 1.066-11.517 2.832-17.335 4.094-3.976.862-7.903 1.74-11.82 2.823-1.006.278-10.5 2.174-10.5 3.269 0 .495 15.405-1.013 16.905-1.04.265-.005 2.385-.01 1.123.23-1.335.255-2.883.364-4.243.364-3.693 0-7.575 1.935-11.127 2.823-5.18 1.295-10.489 3.103-15.403 5.2-1.123.48-2.49 1.189-3.747 1.189-.655 0 1.31.01 1.964 0 9.568-.152 18.764-4.456 28-6.389 10.48-2.193 21.071-4 31.433-6.686 6.03-1.564 11.7-3.042 17.466-5.498 4.959-2.112 9.964-4.076 14.841-6.372.623-.293 1.793-.875 2.51-.875.759 0-1.503.264-2.262.264-2.144 0-8.548.509-6.405.594 3.141.126 6.095-.118 9.146-.891 1.779-.451 3.132-1.54 4.754-2.08"/><path stroke="#C6C6C8" stroke-linecap="round" stroke-width="2" d="M251.048 167.19c0-4.063-.486-8.475.303-12.471.838-4.241 1.534-8.51 2.269-12.773 1.547-8.974 3.973-18.58 2.807-27.766-.297-2.339-.868-4.633-1.513-6.891-.251-.88-.681-2.179-1.143-2.958-.339-.573-.936-.724-1.193-1.11-.361-.54-.072 1.304 0 1.95.181 1.628.473 3.266.655 4.908.272 2.44.773 4.91.841 7.361.031 1.108.302 3.197.302.858 0-2.104-.344-4.262-.756-6.32-.365-1.823-.258-4.003-1.361-5.58-.123-.175-2.069-2.964-2.118-2.135-.089 1.513.555 2.587 1.21 3.933 1.561 3.209 2.679 7.189 3.025 10.74.384 3.936 1.204 7.86 1.496 11.799.22 2.965.017 6.02.017 8.992 0 8.211-.453 15.955-2.723 23.9-.515 1.803-1.174 3.489-1.815 5.244-.315.861-.605 1.723-.605.37 0-5.428.023-10.744 1.21-16.085 1.117-5.029 1.815-10.322 1.815-15.479 0-8.418.549-17.023-.067-25.413-.086-1.165-.469-4.629-.538-3.463-.076 1.301 0 2.63 0 3.933 0 6.266 1.877 12.453 2.101 18.741.095 2.672.017 5.36.017 8.034 0 2.682-.516 5.019-.841 7.647-.88 7.134-4.369 13.114-7.613 19.413-2.959 5.743-5.536 11.911-9.228 17.227-.751 1.082-1.774 2.243-2.269 3.479-.321.803.756-1.557 1.194-2.302 1.687-2.873 3.998-5.325 5.748-8.169 1.817-2.952 3.143-6.033 4.235-9.311 1.096-3.287 2.159-6.581 3.093-9.916.367-1.31 1.445-3.054 1.445-4.421 0-3.08.192 6.22-.47 9.227-1.533 6.968-5.785 12.688-9.984 18.287-2.559 3.412-5.176 7.364-8.269 10.236-.599.556-2.154 5.02-2.454 4.42"/><path stroke="#C6C6C8" stroke-linecap="round" stroke-width="2" d="M242.691 179.862c.127-1.265 1.325-2.507 1.889-3.609 1.354-2.647 2.8-5.243 4.154-7.89 2.5-4.885 5.686-9.556 7.533-14.751 2.974-8.362 5.589-16.863 8.331-25.284 2.464-7.57 3.399-15.703 3.399-23.627v.608c0 2.318-.217 4.506-.567 6.799-1.365 8.948-4.189 17.578-6.421 26.334-.16.629-1.986 6.752-2.077 4.7-.355-7.996-.168-15.592 1.889-23.417.808-3.077 1.843-6.151 1.888-9.359 0-.026.004-2.498-.084-2.476-.688.172-.289 4.33-.294 4.826-.046 4.608-.829 9.22-1.51 13.765-.928 6.186-3.638 24.635-3.777 18.381-.163-7.323-.756-14.607-.756-21.948 0-4.211-.264-8.355-.377-12.548-.009-.304-.404-2.434-.378-1.259.07 3.157.716 6.36 1.133 9.485.465 3.487 1.563 13.891 1.868 10.386.353-4.061.433-8.169.965-12.212.245-1.867.189-3.744.189-5.623v-.714c0 5.098-.756 10.199-.756 15.339 0 .782.084 1.519-.021.21-.376-4.699-1.112-9.326-1.112-14.059 0-1.67-.521-4.313.189-5.875.33-.726.566-.576.566.189 0 3.761-.045 8.28 1.322 11.834.662 1.721 1.718-4.161 1.91-4.847.528-1.885 1.025-4.844 2.434-6.253.981-.981.755.964.755 1.511v6.421c0 .506-.373 2.915.084 3.315.196.171.294-3.253.294-3.525 0-.172-.094-5.666.084-5.666.279 0-.41 2.742-.462 2.938-.619 2.331-.783 4.703-1.049 7.092-.16 1.442.61 5.016-.378 6.127-.165.187-.499-2.36-.545-2.727-.234-1.874-.294-3.697-.294-5.582 0-1.577-.142-2.892.755-4.239"/><path stroke="#C6C6C8" stroke-linecap="round" stroke-width="2" d="M267.736 114.216c5.377 0 10.654.126 15.967-.886 11.024-2.1 22.377-5.229 33.084-8.594 14.399-4.526 28.341-10.727 42.636-15.609 5.616-1.917 11.92-4.638 16.877-7.9 2.156-1.418 4.61-2.725 6.488-4.5 1.023-.968 2.304-2.1 3.638-2.586 1.753-.637.126.079-.813.383-3.634 1.178-6.775 3.013-10.127 4.788-2.89 1.53-5.629 3.349-8.642 4.644-4.237 1.822-8.596 3.279-12.759 5.267-9.586 4.578-20.83 7.925-31.193 10.246-7.613 1.705-14.898 4.457-22.407 6.559-3.17.888-6.472 2.157-9.672 2.825-3.403.711-7.052.69-10.509 1.054-1.616.17-3.175.521-4.812.43-1.044-.058 3.188-1.203 3.519-1.292 4.213-1.135 8.871-1.114 13.215-1.269.378-.014 5.232.226 5.147.311-1.916 1.916-8.656.934-10.965.982-5.642.116-11.121 1.159-16.661 2.13-.193.034-4.416.606-3.471-.024 2.736-1.824 5.997-2.515 9.12-3.423 2.52-.732 5.399-1.293 8.044-1.293 1.071 0-4.719 1.203-5.458 1.293-2.058.252-7.203 1.872-9.193.766-.513-.285.763-.943 1.293-1.197 2.305-1.105 4.979-1.568 7.493-1.891 2.747-.353 10.847-1.272 8.307-.168-5.229 2.274-12.011 2.157-17.572 3.328-2.25.474-7.56 1.146-1.986.646 8.806-.79 17.649-1.069 26.452-1.915 1.766-.17 3.612-.218 5.363-.527 1.129-.199-2.277-.335-3.424-.335-4.989 0-9.995.431-14.962.431-4.611 0 9.006-1.992 13.502-3.016 6.834-1.556 14.058-4.155 21.067-4.716 11.963-.957-47.887 2.944-35.885 2.944 1.739 0 3.718-.601 5.41-.861a290.746 290.746 0 0 1 20.707-2.442c5.688-.462 22.799-.958 17.093-.958-7.724 0-15.574 1.902-23.269 2.586-2.013.178-4.315.163-6.272.766-2.289.704 4.754-.603 7.11-1.03 8.016-1.451 16.063-3.242 24.155-4.213 1.287-.155 2.58-.263 3.878-.263 1.293 0-2.529.546-3.783.861-3.46.872-14.053 2.155-10.485 2.155 6.079 0 12.571-2.73 18.433-4.118 3.669-.868 8.059-2.346 11.874-2.346 1.221 0-2.404.433-3.591.718-6.458 1.556-12.822 3.477-19.223 5.243-5.099 1.407-20.457 5.173-15.537 3.232 6.419-2.531 12.935-4.795 19.726-6.105.582-.112 8.015-.964 4.477.383-2.828 1.078-5.997 1.442-8.953 1.964-7.583 1.338-15.189 2.461-22.814 3.519-5.991.83-12.305 1.668-18.146 3.303-.825.231-2.431.169-.862-.718 2.928-1.655 6.755-1.197 9.983-1.197 2.463 0 3.345 1.39.55 2.25-4.48 1.379-9.195 1.952-13.741 3.089-1.858.464-1.96.532-3.543-.599M172.391 242.824c1.579 0 2.312-.303 3.647-1.193 1.722-1.148 3.882-1.538 5.731-2.437 3.261-1.587 5.968-3.992 9.311-5.446 5.889-2.56 12.455-5.697 17.026-10.269 6.182-6.182 12.675-11.985 18.304-18.791 6.655-8.049 12.75-15.968 17.849-25.11 2.107-3.778 4.367-7.481 6.185-11.413.696-1.505 1.815-2.895 1.815-4.605"/><path fill="#fff" stroke="#171717" stroke-width="2" d="M376.168 37.72c9.415-2.896 19.352 2.601 21.901 12.115 2.549 9.514-3.308 19.243-12.909 21.443l-162.689 37.275-5.833-21.77 159.53-49.064Z"/><circle cx="9.015" cy="9.015" r="9.015" stroke="#171717" stroke-width="2" transform="rotate(75 163.726 272.796)"/><ellipse cx="125.862" cy="127.079" fill="#fff" stroke="#171717" stroke-width="2" rx="123.959" ry="123.96"/><ellipse cx="125.863" cy="127.079" stroke="#171717" stroke-width="2" rx="101.421" ry="101.422"/><path stroke="#171717" stroke-linecap="round" stroke-width="2" d="M241.086 80.144c4.771 0 9.109-.5 13.735-1.552 1.333-.302 2.467-1.21 3.731-1.716 1.122-.449 2.13-.752 3.187-1.321 1.267-.683 2.795-.985 4.143-1.37 6.308-1.803 12.587-4.754 18.754-7.116 12.117-4.64 24.66-8.272 36.914-12.48 5.467-1.878 11.264-2.927 16.839-4.458 5.322-1.46 10.56-3.119 15.915-4.457 7.11-1.778 14.382-4.223 21.693-5.035 5.676-.631 12.391-1.243 17.35 2.063 4.536 3.024 3.748 9.398 3.748 14.165 0 3.82-.762 7.785-3.797 10.268-.758.62-2.624.443-3.566.595-1.415.228-3.039.784-4.391 1.27-1.956.705-3.766 1.834-5.828 2.246-3.696.74-7.406 2.402-11.011 3.483-4.327 1.298-8.886 2.215-13.026 4.078-2.722 1.225-6.266 2.04-9.195 2.592-3.318.626-6.571 1.684-9.939 2.245-3.841.64-7.749 1.352-11.606 1.85-3.617.466-7.035 1.577-10.615 2.145-3.543.563-7.134 2.133-10.615 3.055-3.374.893-6.467 2.073-9.971 2.525-4.422.571-8.761 1.622-13.224 2.015-4.906.43-9.684 1.307-14.561 1.849-4.028.447-8.356 1.84-12.249 2.971-1.658.481-3.878 1.783-5.58 1.783M26.985 105.525c0-2.403-.082-4.772.27-7.147.212-1.434 1.093-2.854 1.888-4.046.872-1.309 1.393-2.778 2.217-4.12 1.267-2.065 2.416-4.22 3.716-6.264 1.193-1.874 2.895-3.684 3.776-5.724.809-1.872 2.26-3.772 3.522-5.35 2.945-3.681 5.515-7.693 8.616-11.253a115.88 115.88 0 0 1 8.51-8.826c3.214-2.991 6.866-5.34 10.37-7.956 5.026-3.752 10.201-7.15 15.584-10.31 3.085-1.81 6.829-2.56 10.309-3.326 4.294-.945 8.506-1.953 12.886-2.487 7.758-.946 15.504-1.14 23.316-1.14"/><path stroke="#171717" stroke-linecap="round" stroke-width="2" d="M129.219 27.212c3.558 0 7.124-.066 10.682 0 2.964.055 5.907.83 8.807 1.332 1.421.246 2.822.78 4.202 1.203 2.144.655 4.18 1.555 6.304 2.23 3.748 1.189 6.996 3.763 10.602 5.308 1.954.838 3.747 2.069 5.526 3.216a129.084 129.084 0 0 0 5.157 3.168 63.158 63.158 0 0 1 8.63 6.032c1.223 1.015 2.652 1.801 3.769 2.919a191.81 191.81 0 0 1 4.235 4.363c2.588 2.758 6.404 4.193 8.445 7.458.316.506.635 1.001.722 1.604.019.136.152.714.152.29"/><path stroke="#171717" stroke-linecap="round" stroke-width="2" d="M205.73 65.757c.074.666 1.111 1.66 1.476 2.23.811 1.269 1.803 2.422 2.567 3.721 1.174 2 2.305 4.02 3.641 5.92 3.131 4.453 5.229 9.94 6.785 15.125.867 2.89 1.164 5.883 1.844 8.806.527 2.26.695 4.576 1.3 6.817.548 2.034 1.028 4.102 1.588 6.144.174.635.247 1.312.545 1.908.162.324.23.496.032 0"/><path stroke="#171717" stroke-linecap="round" stroke-width="2" d="M225.796 114.263c0 1.758-.083 3.541.216 5.277.336 1.946.265 3.99.73 5.919.506 2.096.623 4.311.898 6.448.27 2.089.177 4.214.177 6.32 0 2.452-.691 4.833-1.227 7.218-.586 2.603-1.197 5.259-2.021 7.795-.925 2.846-2.034 5.612-3.136 8.389-.861 2.172-1.85 4.236-2.502 6.489-.222.765-.396 1.563-.642 2.302M142.496 226.715c2.761 0 5.614.347 8.213-.598 1.687-.614 3.473-1.4 5.254-1.796 1.62-.36 3.701-1.539 5.254-2.244 1.264-.575 2.977-.533 4.173-1.198 1.934-1.074 4.139-1.818 6.135-2.843 2.343-1.203 4.615-2.45 6.817-3.89 1.265-.827 2.645-2.23 4.024-2.76 1.832-.705 4.214-2.193 5.619-3.525 1.303-1.234 2.938-2.069 4.34-3.159 1.698-1.32 2.958-2.941 4.472-4.456 1.721-1.721 3.781-3.793 5.105-5.852 1.258-1.957 3.16-3.495 4.472-5.404 2.324-3.38 4.546-6.892 7.349-9.859 2.251-2.384 3.89-4.989 3.89-8.38"/><path stroke="#171717" stroke-linecap="round" stroke-width="2" d="M64.086 209.057c1.53.153 3.47 2.472 4.655 3.442 1.215.994 2.664 1.762 4.024 2.477 1.651.869 3.599 1.146 5.237 2.029 1.704.917 3.485 1.92 5.304 2.593 1.564.58 3.054 1.481 4.589 2.178 1.525.694 3.36.955 4.921 1.58 1.953.781 4.515 1.349 6.567 1.862 1.96.49 3.919 1.2 5.853 1.796 3.962 1.219 7.97 1.795 12.104 1.795 3.935 0 7.969.3 11.838.3 3.737 0 7.524-.3 11.206-.3 3.144 0 6.097-2.095 9.294-2.095"/><path stroke="#171717" stroke-linecap="round" stroke-width="2" d="M64.982 209.358c-2.169-2.169-4.227-4.311-6.351-6.518-1.568-1.628-2.842-3.538-4.273-5.287-.558-.682-1.238-.808-1.712-1.662-.439-.79-1.521-1.33-2.095-2.095-3.315-4.42-6.948-8.387-8.846-13.7-.69-1.935-1.904-3.807-2.46-5.753-.396-1.386-.986-3.206-1.563-4.489-2.708-6.019-4.831-12.248-6.817-18.555-1.039-3.3-1.92-6.569-2.394-10.009-.377-2.732-1.418-5.497-1.496-8.247-.11-3.813-.3-7.699-.3-11.439 0-2.958-.299-5.916-.299-8.895 0-1.327-.28-3.049.3-4.206M2.36 115.794c0-4.789.958-9.806 3.127-14.144 1.903-3.805 3.875-8.138 4.821-12.3.426-1.874 1.404-3.662 2.116-5.44.87-2.177 1.496-4.594 2.72-6.605 1.198-1.969 1.897-4.322 2.931-6.392 1.294-2.587 2.338-5.3 3.869-7.767 2-3.223 3.622-6.909 6.12-9.777 2.245-2.578 4.27-5.292 6.664-7.752 1.285-1.321 2.249-2.99 3.536-4.352.85-.9 1.644-1.915 2.463-2.857.524-.601 1.574-1.99 2.297-2.312.955-.424 1.551-1.685 2.161-2.448.89-1.113 1.743-2.407 2.75-3.415 1.89-1.89 3.834-3.636 6.317-4.745"/><path stroke="#171717" stroke-linecap="round" stroke-width="2" d="M51.047 27.663c2.064 0 3.95-1.072 5.606-2.176 2.505-1.67 5.165-3.183 7.722-4.745 3.737-2.284 7.55-4.485 11.576-6.256 4.645-2.044 9.193-5.396 14.25-6.408 5.054-1.01 9.949-2.598 15.111-3.264 3.757-.484 7.451-1.228 11.228-1.571 2.567-.234 5.108-.471 7.676-.665 2.371-.18 4.773-.042 7.133-.272 7.288-.711 15.318-.657 22.183 2.176 3.555 1.467 7.192 2.685 10.73 4.2 3.698 1.586 7.335 3.483 10.88 5.38"/><path stroke="#171717" stroke-linecap="round" stroke-width="2" d="M166.648 9.165c1.543.172 2.637 1.764 4.081 2.176 1.684.482 3.333 1.917 4.896 2.72 4.983 2.563 10.481 4.29 15.292 7.133 11.025 6.515 21.319 14.609 29.649 24.42 2.304 2.713 4.682 5.36 6.725 8.296 2.15 3.092 3.492 6.494 5.455 9.657 3.082 4.965 4.754 11.03 6.588 16.532.434 1.302.926 2.764 1.285 4.02.267.933.998 2.17 1.103 3.112.156 1.407 1.303 2.804 1.617 4.216.168.756.487 1.624.831 2.312"/><path stroke="#171717" stroke-linecap="round" stroke-width="2" d="M242.539 89.136c0 5.133 2.74 10.053 4.775 14.704 2.5 5.713 2.92 12.336 3.718 18.421 1.086 8.283.781 17.305-.741 25.523-.36 1.947-.462 4.264-1.284 6.09-.831 1.845-1.737 3.625-2.645 5.44-1.623 3.246-2.673 6.28-3.551 9.792"/><path stroke="#171717" stroke-linecap="round" stroke-width="2" d="M111.141 250.624h17.067c4.678 0 8.739-.83 13.318-1.678 6.593-1.22 13.517-1.569 19.946-3.355 3.482-.967 6.747-2.244 10.046-3.728 3.419-1.539 6.991-2.617 10.17-4.661 5.703-3.666 12.067-6.821 17.067-11.557 1.814-1.719 4.122-3.148 6.131-4.64 4.116-3.058 8.296-6.637 11.537-10.625 1.895-2.333 3.788-4.651 5.447-7.188 1.866-2.854 4.418-5.29 6.172-8.161 4.342-7.103 8.743-13.665 12.096-21.209.981-2.207 1.573-4.759 2.237-7.084.608-2.127 2.61-4.203 2.61-6.338M6.006 100.749c0 4.566-1.91 8.442-2.59 12.862-.612 3.983-1.139 7.631-1.139 11.744 0 6.907 2.618 13.306 3.376 20.133.559 5.023 1.725 10.03 3.045 14.913.867 3.206 2.28 6.259 3.356 9.404 1.578 4.618 2.9 9.207 4.764 13.732 2.977 7.232 7.683 12.491 12.966 18.165 1.962 2.108 3.022 4.998 4.95 7.167.83.933 1.49 1.891 2.216 2.899.312.434 1.835.829.746.829"/><path stroke="#171717" stroke-linecap="round" stroke-width="2" d="M34.34 210.36c2.597 2.338 5.035 5.366 7.995 7.25 4.438 2.824 8.532 6.174 12.883 9.155 4.963 3.4 9.911 6.598 15.1 9.672 4.035 2.392 8.328 3.962 12.49 5.986 3.355 1.633 7.078 2.587 10.438 4.267 3.483 1.742 8.178 1.558 11.931 2.444 5.523 1.304 11.175 2.008 16.777 2.631 1.659.184 12.438.249 12.303-.021M375.253 45.927c-.419 0-.85-.032-1.267.01-.9.09-1.725.628-2.46 1.113-.61.402-1.189.919-1.706 1.437-.332.331-.747.642-.854 1.122-.53 2.386-.269 4.945-.269 7.385 0 1.15.222 2.173.584 3.258.346 1.04 1.295 1.671 2.24 2.16 1.532.793 2.955 1.665 4.67 2.061 1.724.398 3.215.171 4.72-.718 1.769-1.046 3.058-2.331 4.062-4.107.608-1.076.923-2.375 1.192-3.572.298-1.324.458-3.009-.045-4.301-.449-1.157-1.198-2.27-2.065-3.154-.893-.91-2.087-2.02-3.323-2.425-.657-.215-1.303-.467-1.976-.628-.694-.166-1.446-.09-2.156-.09-.538 0-1.177-.098-1.706.02-.288.064-.604.16-.898.16"/><circle cx="109.394" cy="107.394" r="25.394" fill="#fff" stroke="#fff" stroke-width="8"/><path stroke="#FFD424" stroke-linecap="round" stroke-width="2" d="M90.108 110.725c-.317.407 1.134 1.865 1.364 2.157.844 1.075 1.887 2.032 2.683 3.135 1.412 1.954-3.033-4.154-3.033-6.565 0-.334.536.325.544.332.697.66 1.404 1.304 2.065 2.001.6.632 1.206 1.259 1.807 1.89.129.135.724 1.006.305.387-1.121-1.651-2.21-3.388-3.052-5.2-.478-1.027-.46-.928.34-.221.635.56 1.582 1.624 2.416 1.881.196.06.018-.426-.073-.609-.493-.984-1.102-1.91-1.614-2.886-.222-.423-.564-.868-.728-1.318-.002-.006.963.693 1.07.774 1.401 1.07 3.018 2.618 4.665 3.292.46.188.116-.426.046-.553-.768-1.394-1.716-2.702-2.591-4.029-.524-.796-1.076-1.594-1.494-2.453-.431-.888 1.005.198 1.125.277a200.152 200.152 0 0 0 10.106 6.177c.437.249 1.373 1.221 1.327.719-.022-.243-.258-.414-.405-.608-.689-.902-1.409-1.782-2.121-2.665-1.063-1.317-2.168-2.598-3.236-3.909-.428-.526-1.004-1.157-1.254-1.807-.177-.459.862.472 1.281.728a298.463 298.463 0 0 0 5.071 3.024c.901.525 1.798 1.06 2.73 1.531 1.031.521.218-.098-.213-.498-2.697-2.505-5.309-5.1-8.03-7.58-.142-.129-.547-.513-.369-.442 1.032.413 2.032.94 3.043 1.402 4.345 1.983 8.763 3.787 12.945 6.104.268.148 1.076.519.876.285-1.34-1.563-2.942-2.967-4.417-4.398-1.313-1.274-2.652-2.523-3.946-3.817-.697-.697-1.736-1.587-.009-.904 2.339.926 4.623 1.995 6.943 2.97.179.075 1.059.488.488-.084-1.64-1.64-3.578-3.037-5.394-4.471-1.234-.975-2.483-1.93-3.725-2.895-.188-.147-1.295-.893-.378-.628 1.818.527 3.573 1.333 5.339 2.01 1.767.678-1.445-.837-1.715-.968a58.278 58.278 0 0 0-5.827-2.443c-.97-.346 1.802.995 2.692 1.512.308.18.705.297.987.517.091.07-1.305-.32-1.393-.35-2.051-.739-4.115-1.495-6.306-1.679-1.137-.096-1.24.337-1.568 1.29-.86 2.501-3.367 3.874-4.637 6.086-.984 1.712-1.418 3.714-1.983 5.588-.45 1.492-.892 3.111-.922 4.684-.01.506-.175.795-.415.129-.363-1.009-.415-2.02-.415-3.08 0-1.784.794-2.909 1.77-4.389 1.627-2.463 3.392-5.153 5.745-6.989.165-.129 1.283-1.12.95-.332-.23.545-.603.987-.978 1.439-1.353 1.628-2.655 3.297-3.965 4.96a48.634 48.634 0 0 0-2.48 3.449c-.252.385-.726.896-.71 1.401.008.267.52-.173.72-.35a169.953 169.953 0 0 1 4.397-3.771c1.049-.87 2.103-1.736 3.2-2.545.112-.083 1.235-.705 1.235-.931 0-.292-.528.249-.774.405-1.167.743-2.355 1.496-3.42 2.38-.695.575-2.352 2.007-2.352 3.051 0 .318.453.085.562.028 1.488-.78 2.85-1.921 4.196-2.914 1.285-.949 2.569-1.902 3.835-2.877.533-.41 1.341-.905 1.715-1.493.127-.199-.467-.11-.701-.083-1.625.19-3.146.999-4.48 1.908-2.054 1.4-5.352 4.165-5.606 6.897-.15 1.61 4.188.659 4.978.553a21.545 21.545 0 0 0 4.426-1.051c.658-.236 1.864-.575 2.204-1.281.561-1.165-4.036-3.06-4.73-3.495a71.73 71.73 0 0 1-2.029-1.328c-.093-.063-.352-.24-.24-.24 2.078 0 4.375.656 6.418.996.997.167 1.982.39 2.978.563 1.032.178.472-.156-.12-.47-1.732-.92-3.558-1.611-5.237-2.637-.034-.021 2.364.562 2.84.682.998.252 2.013.425 3.006.7.284.08 1.288.593 1.595.47.477-.19-.909-.483-1.383-.681-1.734-.725-3.447-1.496-5.173-2.241-.874-.377-1.768-.732-2.618-1.162-.729-.368-.324-.368.249-.368 1.595 0 3.225-.096 4.794.248 1.667.366.052.08-.691-.083-1.002-.22-2.01-.438-3.025-.59-.492-.073-1.953-.093-1.475-.23 1.566-.448 3.905.543 5.403.913.589.145 1.216.203 1.789.405.108.039.396.188.332.093-.674-1.011-2.837-1.685-3.928-2.057-.366-.124-.842-.262-1.235-.175-.529.118.586 1.64.645 1.734 2.265 3.651 4.834 7.133 7.238 10.695.437.648 2.203 2.824.277 1.392-2.302-1.709-4.407-3.689-6.74-5.357-2.056-1.468 3.633 3.526 5.237 5.477.999 1.216 1.9 2.514 2.793 3.808.02.029 1.181 1.693.784 1.669-.927-.056-2.167-1.114-2.914-1.549-1.709-.995-3.428-1.973-5.126-2.987-.296-.177-1.031-.779-1.448-.683-.329.076.719 1.289.747 1.328 1.381 1.919 2.72 3.937 3.753 6.067.107.221.313.676-.166.443-1.662-.81-3.087-2.335-4.509-3.486-.15-.121-4.16-3.113-4.186-3.061-.189.378.553.64.849.941 1.544 1.57 3 3.163 4.342 4.914.877 1.144 1.769 2.288 2.573 3.485.045.067 1.126 1.72.7 1.522-1.444-.672-2.751-1.926-4.001-2.877-2.118-1.61-4.235-3.221-6.519-4.592-.097-.058-1.434-.838-1.3-.71a50.63 50.63 0 0 1 2.582 2.628 74.3 74.3 0 0 1 3.872 4.666c.73.949 1.696 1.973 2.195 3.079.197.437-.868-.43-1.236-.737-1.587-1.328-3.115-2.723-4.72-4.03-.562-.457-2.867-2.397-1.162-.654 1.464 1.498 2.898 3.03 4.038 4.794.086.133.76.951.516 1.162-.54.468-2.396-.455-2.876-.655-.883-.367-1.722-.834-2.61-1.189-.55-.22-.823-.247-.322.276.897.938 1.94 1.897 2.563 3.052.149.277-.568-.281-.812-.479-1.376-1.119-2.65-2.393-3.909-3.642-.157-.157-2.567-2.43-1.374-1.392.436.379 1.909 1.244 1.356 1.078-.752-.225-1.702-2.017-2.176-2.627-.401-.516-.25-.34-.028.055.448.796 1.141 1.373 1.78 2.019 2.216 2.245 4.563 4.202 7.062 6.104 1.054.802 1.83.83 3.117.83 1.689 0 3.876.365 5.486-.185 3.082-1.052 6.074-2.465 7.699-5.421.565-1.029 1.056-2.569 1.899-3.412.111-.11-.215 1.111-.277 1.254-1.789 4.175-6.174 7.363-10.05 9.479-.084.046-4.61 2.223-4.61 1.936 0-.089 1.11-.335 1.199-.369 1.612-.61 3.431-.652 5.117-.959 2.757-.501 5.66-.812 8.049-2.425 2.909-1.963 3.513-5.034 4.463-8.252.272-.922.541-1.834.885-2.729.013-.032.246-.278.221-.129-.078.469-1.094 1.114-1.392 1.392-2.363 2.214-4.894 4.261-7.358 6.362-.995.849-3.717 3.684-2.812 2.739 3.222-3.366 6.133-7.035 9.34-10.419.884-.932 1.785-1.851 2.637-2.812.152-.171.521-.601.01-.415-1.401.509-2.756 1.311-4.039 2.047a71.626 71.626 0 0 0-9.792 6.758c-1.601 1.314-6.276 5.353-4.499 4.287 1.694-1.016 3.16-2.735 4.582-4.093.289-.277 1.753-1.624.415-1.199-1.01.321-2.121 1.183-2.877 1.918-1.371 1.333 2.649-2.76 3.984-4.131.216-.222 4.619-4.721 4.499-4.794-.307-.188-1.232.19-1.475.276-2.326.827-4.526 2.169-6.593 3.495-1.898 1.218-4.321 2.68-5.689 4.545-.183.25.565-.264.812-.451 2.384-1.81 4.711-3.703 7.044-5.579a135.22 135.22 0 0 0 5.256-4.425c.668-.596 1.546-1.204 2.083-1.937.172-.234-.196-.258-.341-.258-.975 0-1.909.414-2.72.922-1.227.769-2.623 1.724-3.374 3.006-.169.288 1.98.205 2.166.212.901.033 2.679.351 2.868 1.484.084.507-.212.937-.516 1.31-1.082 1.322-2.324 2.555-3.495 3.798-.783.832-1.637 1.602-2.37 2.481-.603.724-.61.742.093.101 1.724-1.573 3.444-3.203 5.449-4.416 1.181-.716.607-.133.027.599-1.639 2.07-3.545 4.085-4.757 6.454-.002.004-.427.785-.212.646.776-.503 1.484-1.141 2.213-1.706 1.765-1.369 3.674-3.041 5.689-4.048 1.225-.613-1.734 2.124-2.545 3.227-.291.396-2.291 3.132-.719 2.232 1.376-.789 2.672-1.783 4.186-2.306.939-.324-.921 1.1-1.088 1.245-.126.109-1.652 1.539-.978 1.134 1.301-.78 2.577-1.696 3.781-2.618 2.775-2.126 4.235-4.665 5.237-7.967.297-.979.277-2.215.322-3.236.052-1.161.123-2.44-.193-3.568-.527-1.874-1.373-3.503-2.121-5.274-.621-1.471-1.848-3.123-3.153-4.02-1.886-1.296-4.265-1.87-6.399-2.665-1.916-.713-4.129-1.166-6.178-1.318-1.643-.122 3.299-.25 4.942-.13 3.408.25 7.722 1.086 10.133 3.8 3.775 4.246 3.301 11.051 1.079 15.812-.276.592-.469 1.252-1.005 1.669-.59.459-.726-1.092-.784-1.346-.952-4.198-1.893-8.386-3.033-12.54-.589-2.145-1.192-4.295-1.89-6.408-.304-.919-.625-2.105-1.273-2.867-.237-.28.373.632.572.94 1.375 2.123 2.551 4.36 3.568 6.676 1.578 3.588 2.886 7.348 3.753 11.175.296 1.306-3.501-1.388-3.808-1.623a19.368 19.368 0 0 1-2.849-2.656c-.298-.342-1.19-1.116-.738-1.143.566-.033 1.368 1.035 1.715 1.383.154.154.631.597.461.461-.938-.751-1.747-1.7-2.563-2.572-1.358-1.451-2.732-2.887-4.094-4.334-.514-.546-.688-.742-1.18-1.254-.237-.246-1.04-.784-.701-.747.46.051 1.384 1.233 1.66 1.494 1.611 1.525 3.214 3.054 4.721 4.684.688.744 1.355 1.51 2.028 2.268.172.193.703.978.222.277-1.633-2.378-3.233-4.736-4.703-7.22-.913-1.543.825-.473 1.641-.083 1.834.876 3.542 1.928 5.228 3.052 2.735 1.823-5.676-3.324-8.399-5.163a91.483 91.483 0 0 1-5.201-3.771c-.071-.056-1.845-1.494-.682-.849 4.046 2.244 14.796 11.109 11.193 8.207-.794-.64-1.833-1.474-2.378-2.342-.172-.274-.068-.307.166-.13.725.553 1.46 1.104 2.176 1.67.522.412.985.872 1.41 1.382.333.4.265.38-.009-.046-.64-.998-1.525-1.947-1.844-3.116-.347-1.272 1.467 2.2 2.047 3.384.593 1.21 1.136 2.447 1.54 3.734.167.532.764 1.955.23 2.471-.59.57-1.894.596-2.637.701-1.299.182-2.632.268-3.881.7-1.484.514-1.04 2.15-.729 3.357.092.357 1.194 3.153.655 3.347-.971.349-2.563-.11-3.495-.277-2.431-.437-4.832-1.017-7.265-1.448-.492-.087-1.637-.499-2.158-.295-.04.016 1.339 1.663 1.402 1.743.706.905 1.341 1.861 1.954 2.831.324.512.933 1.211 1.07 1.825.084.38-.773-.148-1.125-.313-1.398-.657-2.765-1.38-4.168-2.029-.871-.403-1.755-.824-2.655-1.162-.644-.241-.053.168.12.342 1.173 1.173 2.204 2.716 3.015 4.158.727 1.293-.173.728-1.005.258-.767-.433-1.537-.859-2.314-1.272-.277-.147-1.153-.424-.84-.424.53 0 1.562 1.573 1.872 1.936 1.19 1.392-.099.721-1.042.175-.897-.52-1.791-1.048-2.72-1.512-.314-.157-1.155-.608-1.014-.286.144.328.726.726.96 1.033.67.882 1.263 1.87 1.898 2.784.956 1.377 2.129 3.431 3.67 4.232 3.637 1.891 7.924.958 11.12-1.346 3.419-2.465 4.717-6.578 7.542-9.524.338-.353.653-.709.959-1.088.06-.075.286-.24.258-.24-.485 0-1.108.04-1.549-.203-.616-.339-.243-1.67-.166-2.157.11-.698.245-1.386.498-2.047.048-.125.612-1.088.24-.83-2.247 1.555-4.528 3.032-6.934 4.333-.467.253-.992.473-1.42.793-.574.431 1.144-.868 1.724-1.291.402-.292 2.268-1.56 2.232-1.558-2.836.21-5.763 2.901-7.773 4.675a37.794 37.794 0 0 0-1.936 1.862c-.174.177-.369.552-.609.646-.478.186-1.141.092-1.632.092-1.779 0-3.575-.008-5.32-.406-.998-.227-1.978-.592-2.821-1.18-.02-.013-.714-.669-.443-.359.686.784 1.28 1.774 1.752 2.701.457.897.018.616-.277-.304-1.272-3.971-2.4-8.923-1.309-13.084.62-2.361 2.543-3.318 4.675-4.029 1.886-.629-.625-1.533-1.577-1.586-.61-.034-2.002-.268-2.563.028-.225.118-.074 1.218-.074 1.457 0 .401-.08.973-.535 1.124-.802.268-1.178-.519-1.447-1.124-.72-1.618-.887-3.394-.84-5.145.025-.887.759-2.057 1.162-2.822.72-1.362 3.496-1.689 4.813-1.991 1.738-.4 3.91-.373 5.477.498"/><path stroke="#fff" stroke-linecap="round" stroke-width="2" d="M119.132 103.707c.224-.366.739 1.66.774 1.869.122.735.167 1.446-.135 2.146-.289.669-.264 1.476-.532 2.151-.312.785-.67 1.555-1.005 2.331-.832 1.931-2.228 3.476-3.715 4.956-.558.555-1.414.985-1.871 1.618-.231.319.016-.028.117-.092.764-.488 1.635-.846 2.415-1.329 2.112-1.307 3.75-3.405 5.146-5.426 1.137-1.647.769-3.206 1.014-5.101.139-1.077-2.153-3.715-1.879-2.663.757 2.916.961 5.25-.247 8.053-.277.643-.474 1.371-.995 1.852-.56.517-.009-.445.092-.673.32-.718.777-1.345 1.091-2.074.489-1.133.996-2.49.924-3.747-.038-.681.215-1.462-.012-2.133-.025-.074.65 1.832.762 2.456.202 1.131.171 2.35-.289 3.418-.679 1.576-2.883 6.231-2.203 4.654.547-1.27 1.358-2.429 2.054-3.622.744-1.274 1.258-2.688 1.841-4.043.294-.68.368-1.272.18-1.995-.232-.893-.673 1.282-.737 1.558-.424 1.835-1.001 3.422-1.674 5.157-.464 1.195.636-.639.778-.915.486-.944 1.007-1.853 1.427-2.829"/><circle cx="109.394" cy="107.394" r="21.394" stroke="#171717" stroke-width="1.5"/><path stroke="#171717" stroke-linecap="round" stroke-width="1.5" d="M106.664 87.943c-2.813 0-5.522-.15-8.242.683-2.214.679-5.139 2.343-6.435 4.336-3.858 5.935-3.637 13.135-3.527 19.962.05 3.043 2.136 6.448 4.046 8.697 2.029 2.391 4.786 4.525 7.66 5.79 2.462 1.083 5.4 2.571 8.142 2.63 2.99.063 5.051-.631 7.8-1.707 1.922-.752 3.878-2.766 5.322-4.21.912-.912 1.802-2.125 2.528-3.185.868-1.267 1.985-2.503 2.68-3.869 1.096-2.15 2.203-4.413 2.605-6.826.549-3.298.649-7.886-.519-11.024-2.231-5.996-8.783-7.809-14.5-9.052-2.074-.45-4.115-1.08-6.194-1.542-1.721-.382-3.56-.352-5.234-.91"/></svg>