<svg xmlns="http://www.w3.org/2000/svg" width="403" height="253" fill="none"><path stroke="#C6C6C8" stroke-linecap="round" stroke-width="2" d="M251.978 106.294c4.448 0 8.675-1.278 13.075-1.767 4.76-.529 9.624-.945 14.33-1.865 6.994-1.369 14.023-2.772 21.065-3.946 14.65-2.441 29.014-5.747 43.353-9.658 13.391-3.652 27.292-6.53 39.786-12.778 3.085-1.542 5.865-3.648 8.651-5.646 1.103-.79 3.476-2.926 3.566-4.457.083-1.41.412-.976-.446-.594-1.194.53-2.434 1.703-3.599 2.393-5.783 3.427-11.843 6.322-18.011 8.965-6.778 2.904-13.559 5.127-20.719 6.917-10.622 2.655-20.997 5.713-31.878 7.28-2.631.38-5.309.449-7.958.66-2.89.232-5.728.892-8.617 1.123-5.898.472-11.583 2.607-17.236 4.177-2.932.815-5.78 1.68-8.749 2.36-2.521.579-5.069.898-7.528 1.718-4.098 1.366-8.207 3.123-12.184 4.82-2.502 1.068-5.391 1.764-8.089 2.064-.783.087-2.641-.287-1.024-.875 4.073-1.481 8.332-2.788 12.547-3.797 1.978-.473 4.023-.861 5.976-1.403 1.276-.355-1.136-.149-1.453-.149-3.655 0-7.301-.131-10.813 1.04-1.111.371-2.051.446-3.219.446-.439 0 1.727-.333 2.179-.446 2.828-.707 11.599-1.04 8.684-1.04-3.267 0-6.491 1.189-9.724 1.189-.633 0 2.063-.416 2.377-.479 3.428-.685 6.9-1.386 10.285-2.262 7.75-2.005 15.385-4.426 23.179-6.24a91.759 91.759 0 0 1 6.042-1.189c.333-.054 2.199-.23.974-.23-4.718 0-8.8.52-13.306 2.08-1.823.63-3.685 1.228-5.481 1.93-.39.153-1.505.705-.413.744 4.425.158 8.902.048 13.306-.363 4.199-.393 8.207-2.195 12.316-3.055 4.079-.853 8.133-1.595 12.217-2.377 6.89-1.32 13.673-2.636 20.405-4.672 8.517-2.576 17.018-4.937 25.654-7.066 1.963-.484 4.037-1.135 6.076-1.188.926-.025.795.094-.017.297-3.21.802-6.562.496-9.823 1.04-6.148 1.025-12.389 1.477-18.523 2.592-5.863 1.066-11.516 2.832-17.334 4.094-3.977.862-7.903 1.74-11.82 2.823-1.007.278-10.5 2.174-10.5 3.269 0 .495 15.405-1.013 16.905-1.04.264-.005 2.384-.01 1.123.23-1.336.255-2.883.364-4.243.364-3.694 0-7.575 1.935-11.127 2.823-5.18 1.295-10.49 3.103-15.403 5.2-1.123.48-2.49 1.189-3.747 1.189-.655 0 1.309.01 1.964 0 9.567-.152 18.763-4.456 27.999-6.389 10.48-2.193 21.072-4 31.433-6.686 6.031-1.564 11.701-3.042 17.467-5.498 4.958-2.112 9.963-4.076 14.841-6.372.623-.293 1.793-.875 2.509-.875.759 0-1.502.264-2.261.264-2.145 0-8.548.509-6.406.594 3.142.126 6.096-.118 9.146-.891 1.78-.451 3.133-1.54 4.755-2.08"/><path stroke="#C6C6C8" stroke-linecap="round" stroke-width="2" d="M250.353 167.19c0-4.063-.487-8.475.303-12.471.837-4.241 1.534-8.51 2.269-12.773 1.547-8.974 3.973-18.58 2.806-27.766-.297-2.339-.867-4.633-1.512-6.891-.251-.88-.681-2.179-1.143-2.958-.339-.573-.936-.724-1.193-1.11-.361-.54-.072 1.304 0 1.95.18 1.628.473 3.266.655 4.908.271 2.44.772 4.91.84 7.361.031 1.108.303 3.197.303.858 0-2.104-.345-4.262-.756-6.32-.365-1.823-.258-4.003-1.362-5.58-.122-.175-2.069-2.964-2.118-2.135-.088 1.513.556 2.587 1.211 3.933 1.561 3.209 2.678 7.189 3.025 10.74.384 3.936 1.204 7.86 1.496 11.799.219 2.965.017 6.02.017 8.992 0 8.211-.453 15.955-2.723 23.9-.515 1.803-1.174 3.489-1.815 5.244-.315.861-.605 1.723-.605.37 0-5.428.023-10.744 1.21-16.085 1.117-5.029 1.815-10.322 1.815-15.479 0-8.418.548-17.023-.067-25.413-.086-1.165-.47-4.629-.538-3.463-.077 1.301 0 2.63 0 3.933 0 6.266 1.876 12.453 2.101 18.741.095 2.672.017 5.36.017 8.034 0 2.682-.516 5.019-.841 7.647-.881 7.134-4.369 13.114-7.614 19.413-2.958 5.743-5.535 11.911-9.227 17.227-.751 1.082-1.774 2.243-2.269 3.479-.321.803.756-1.557 1.194-2.302 1.686-2.873 3.998-5.325 5.748-8.169 1.816-2.952 3.142-6.033 4.235-9.311 1.096-3.287 2.159-6.581 3.093-9.916.366-1.31 1.445-3.054 1.445-4.421 0-3.08.191 6.22-.471 9.227-1.532 6.968-5.784 12.688-9.983 18.287-2.559 3.412-5.176 7.364-8.269 10.236-.599.556-2.154 5.02-2.454 4.42"/><path stroke="#C6C6C8" stroke-linecap="round" stroke-width="2" d="M241.996 179.862c.127-1.265 1.325-2.507 1.889-3.609 1.354-2.647 2.8-5.243 4.154-7.89 2.5-4.885 5.686-9.556 7.533-14.751 2.973-8.362 5.588-16.863 8.33-25.284 2.465-7.57 3.399-15.703 3.399-23.627v.608c0 2.318-.216 4.506-.566 6.799-1.365 8.948-4.189 17.578-6.421 26.334-.16.629-1.986 6.752-2.077 4.7-.356-7.996-.168-15.592 1.888-23.417.809-3.077 1.844-6.151 1.889-9.359 0-.026.003-2.498-.084-2.476-.689.172-.289 4.33-.294 4.826-.046 4.608-.829 9.22-1.511 13.765-.928 6.186-3.638 24.635-3.777 18.381-.162-7.323-.755-14.607-.755-21.948 0-4.211-.264-8.355-.378-12.548-.008-.304-.403-2.434-.377-1.259.07 3.157.716 6.36 1.133 9.485.465 3.487 1.562 13.891 1.867 10.386.353-4.061.433-8.169.965-12.212.246-1.867.189-3.744.189-5.623v-.714c0 5.098-.755 10.199-.755 15.339 0 .782.084 1.519-.021.21-.376-4.699-1.112-9.326-1.112-14.059 0-1.67-.521-4.313.189-5.875.33-.726.566-.576.566.189 0 3.761-.045 8.28 1.322 11.834.662 1.721 1.717-4.161 1.91-4.847.527-1.885 1.025-4.844 2.434-6.253.981-.981.755.964.755 1.511v6.421c0 .506-.373 2.915.084 3.315.195.171.294-3.253.294-3.525 0-.172-.094-5.666.084-5.666.279 0-.41 2.742-.462 2.938-.619 2.331-.784 4.703-1.049 7.092-.16 1.442.61 5.016-.378 6.127-.166.187-.5-2.36-.545-2.727-.235-1.874-.294-3.697-.294-5.582 0-1.577-.143-2.892.755-4.239"/><path stroke="#C6C6C8" stroke-linecap="round" stroke-width="2" d="M267.041 114.216c5.377 0 10.653.126 15.967-.886 11.024-2.1 22.376-5.229 33.084-8.594 14.399-4.526 28.34-10.727 42.636-15.609 5.615-1.917 11.919-4.638 16.877-7.9 2.155-1.418 4.61-2.725 6.487-4.5 1.024-.968 2.304-2.1 3.639-2.586 1.752-.637.126.079-.814.383-3.633 1.178-6.774 3.013-10.126 4.788-2.891 1.53-5.629 3.349-8.642 4.644-4.237 1.822-8.597 3.279-12.76 5.267-9.585 4.578-20.829 7.925-31.192 10.246-7.613 1.705-14.898 4.457-22.408 6.559-3.169.888-6.472 2.157-9.671 2.825-3.403.711-7.052.69-10.509 1.054-1.617.17-3.175.521-4.812.43-1.044-.058 3.187-1.203 3.519-1.292 4.213-1.135 8.87-1.114 13.214-1.269.379-.014 5.233.226 5.147.311-1.915 1.916-8.655.934-10.964.982-5.642.116-11.122 1.159-16.661 2.13-.193.034-4.417.606-3.472-.024 2.736-1.824 5.997-2.515 9.121-3.423 2.52-.732 5.399-1.293 8.044-1.293 1.071 0-4.719 1.203-5.458 1.293-2.058.252-7.203 1.872-9.193.766-.513-.285.763-.943 1.293-1.197 2.305-1.105 4.979-1.568 7.493-1.891 2.747-.353 10.846-1.272 8.307-.168-5.229 2.274-12.011 2.157-17.572 3.328-2.251.474-7.56 1.146-1.987.646 8.807-.79 17.649-1.069 26.453-1.915 1.766-.17 3.612-.218 5.362-.527 1.13-.199-2.276-.335-3.423-.335-4.99 0-9.995.431-14.962.431-4.611 0 9.005-1.992 13.502-3.016 6.834-1.556 14.057-4.155 21.066-4.716 11.964-.957-47.886 2.944-35.885 2.944 1.739 0 3.718-.601 5.411-.861a290.678 290.678 0 0 1 20.707-2.442c5.688-.462 22.799-.958 17.093-.958-7.724 0-15.574 1.902-23.269 2.586-2.013.178-4.315.163-6.272.766-2.289.704 4.753-.603 7.11-1.03 8.015-1.451 16.063-3.242 24.154-4.213 1.288-.155 2.581-.263 3.878-.263 1.294 0-2.528.546-3.782.861-3.46.872-14.053 2.155-10.485 2.155 6.079 0 12.571-2.73 18.433-4.118 3.668-.868 8.059-2.346 11.874-2.346 1.22 0-2.404.433-3.591.718-6.458 1.556-12.822 3.477-19.223 5.243-5.1 1.407-20.458 5.173-15.537 3.232 6.419-2.531 12.934-4.795 19.726-6.105.582-.112 8.015-.964 4.477.383-2.828 1.078-5.997 1.442-8.954 1.964-7.582 1.338-15.188 2.461-22.814 3.519-5.99.83-12.304 1.668-18.146 3.303-.825.231-2.43.169-.861-.718 2.928-1.655 6.754-1.197 9.982-1.197 2.464 0 3.346 1.39.551 2.25-4.48 1.379-9.195 1.952-13.741 3.089-1.858.464-1.961.532-3.543-.599M171.695 242.824c1.58 0 2.312-.303 3.648-1.193 1.721-1.148 3.882-1.538 5.731-2.437 3.261-1.587 5.968-3.992 9.311-5.446 5.889-2.56 12.454-5.697 17.026-10.269 6.182-6.182 12.675-11.985 18.303-18.791 6.656-8.049 12.751-15.968 17.85-25.11 2.107-3.778 4.367-7.481 6.185-11.413.696-1.505 1.815-2.895 1.815-4.605"/><path fill="#fff" stroke="#171717" stroke-width="2" d="M375.473 37.72c9.414-2.896 19.351 2.601 21.901 12.115 2.549 9.514-3.308 19.243-12.909 21.443l-162.689 37.275-5.834-21.77 159.531-49.064Z"/><circle cx="9.015" cy="9.015" r="9.015" stroke="#171717" stroke-width="2" transform="rotate(75 163.378 272.343)"/><ellipse cx="125.166" cy="127.079" fill="#fff" stroke="#171717" stroke-width="2" rx="123.959" ry="123.96"/><ellipse cx="125.167" cy="127.079" stroke="#171717" stroke-width="2" rx="101.421" ry="101.422"/><path stroke="#171717" stroke-linecap="round" stroke-width="2" d="M240.391 80.144c4.771 0 9.109-.5 13.735-1.552 1.332-.302 2.466-1.21 3.731-1.716 1.121-.449 2.13-.752 3.186-1.321 1.268-.683 2.796-.985 4.144-1.37 6.307-1.803 12.587-4.754 18.754-7.116 12.116-4.64 24.66-8.272 36.914-12.48 5.467-1.878 11.264-2.927 16.839-4.458 5.322-1.46 10.56-3.119 15.915-4.457 7.11-1.778 14.382-4.223 21.692-5.035 5.677-.631 12.392-1.243 17.351 2.063 4.536 3.024 3.748 9.398 3.748 14.165 0 3.82-.762 7.785-3.797 10.268-.758.62-2.624.443-3.566.595-1.415.228-3.039.784-4.392 1.27-1.955.705-3.766 1.834-5.827 2.246-3.696.74-7.407 2.402-11.012 3.483-4.326 1.298-8.885 2.215-13.025 4.078-2.722 1.225-6.266 2.04-9.196 2.592-3.317.626-6.57 1.684-9.938 2.245-3.842.64-7.75 1.352-11.606 1.85-3.617.466-7.036 1.577-10.615 2.145-3.543.563-7.135 2.133-10.615 3.055-3.375.893-6.467 2.073-9.972 2.525-4.421.571-8.761 1.622-13.223 2.015-4.906.43-9.685 1.307-14.561 1.849-4.028.447-8.356 1.84-12.25 2.971-1.657.481-3.877 1.783-5.58 1.783M26.29 105.525c0-2.403-.083-4.772.27-7.147.212-1.434 1.093-2.854 1.887-4.046.873-1.309 1.394-2.778 2.218-4.12 1.267-2.065 2.415-4.22 3.716-6.264 1.193-1.874 2.895-3.684 3.776-5.724.809-1.872 2.26-3.772 3.521-5.35 2.946-3.681 5.516-7.693 8.616-11.253a115.88 115.88 0 0 1 8.512-8.826c3.213-2.991 6.864-5.34 10.369-7.956 5.026-3.752 10.2-7.15 15.583-10.31 3.086-1.81 6.83-2.56 10.31-3.326 4.294-.945 8.506-1.953 12.886-2.487 7.758-.946 15.504-1.14 23.315-1.14"/><path stroke="#171717" stroke-linecap="round" stroke-width="2" d="M128.523 27.212c3.559 0 7.125-.066 10.683 0 2.964.055 5.906.83 8.806 1.332 1.422.246 2.823.78 4.203 1.203 2.144.655 4.18 1.555 6.303 2.23 3.749 1.189 6.997 3.763 10.603 5.308 1.953.838 3.747 2.069 5.526 3.216a129.084 129.084 0 0 0 5.157 3.168 63.148 63.148 0 0 1 8.629 6.032c1.223 1.015 2.652 1.801 3.77 2.919a189.653 189.653 0 0 1 4.234 4.363c2.588 2.758 6.405 4.193 8.446 7.458.315.506.635 1.001.721 1.604.02.136.153.714.153.29"/><path stroke="#171717" stroke-linecap="round" stroke-width="2" d="M205.035 65.757c.074.666 1.111 1.66 1.476 2.23.81 1.269 1.803 2.422 2.566 3.721 1.175 2 2.306 4.02 3.641 5.92 3.132 4.453 5.23 9.94 6.785 15.125.867 2.89 1.164 5.883 1.845 8.806.526 2.26.695 4.576 1.299 6.817.549 2.034 1.028 4.102 1.588 6.144.174.635.248 1.312.546 1.908.161.324.23.496.032 0"/><path stroke="#171717" stroke-linecap="round" stroke-width="2" d="M225.101 114.263c0 1.758-.083 3.541.216 5.277.336 1.946.264 3.99.73 5.919.506 2.096.622 4.311.898 6.448.27 2.089.177 4.214.177 6.32 0 2.452-.691 4.833-1.227 7.218-.586 2.603-1.197 5.259-2.022 7.795-.924 2.846-2.034 5.612-3.135 8.389-.862 2.172-1.851 4.236-2.503 6.489-.221.765-.395 1.563-.641 2.302M141.801 226.715c2.761 0 5.613.347 8.213-.598 1.687-.614 3.473-1.4 5.254-1.796 1.62-.36 3.701-1.539 5.254-2.244 1.263-.575 2.976-.533 4.173-1.198 1.934-1.074 4.139-1.818 6.135-2.843 2.343-1.203 4.615-2.45 6.817-3.89 1.265-.827 2.645-2.23 4.023-2.76 1.833-.705 4.214-2.193 5.62-3.525 1.302-1.234 2.938-2.069 4.34-3.159 1.697-1.32 2.957-2.941 4.472-4.456 1.721-1.721 3.78-3.793 5.104-5.852 1.258-1.957 3.161-3.495 4.473-5.404 2.324-3.38 4.546-6.892 7.349-9.859 2.251-2.384 3.89-4.989 3.89-8.38"/><path stroke="#171717" stroke-linecap="round" stroke-width="2" d="M63.39 209.057c1.531.153 3.47 2.472 4.656 3.442 1.215.994 2.664 1.762 4.023 2.477 1.652.869 3.6 1.146 5.238 2.029 1.703.917 3.484 1.92 5.303 2.593 1.565.58 3.055 1.481 4.59 2.178 1.525.694 3.36.955 4.92 1.58 1.953.781 4.515 1.349 6.568 1.862 1.96.49 3.918 1.2 5.853 1.796 3.962 1.219 7.97 1.795 12.103 1.795 3.935 0 7.97.3 11.838.3 3.738 0 7.524-.3 11.206-.3 3.145 0 6.098-2.095 9.294-2.095"/><path stroke="#171717" stroke-linecap="round" stroke-width="2" d="M64.287 209.358c-2.169-2.169-4.227-4.311-6.351-6.518-1.569-1.628-2.842-3.538-4.273-5.287-.559-.682-1.238-.808-1.713-1.662-.438-.79-1.52-1.33-2.095-2.095-3.314-4.42-6.947-8.387-8.845-13.7-.69-1.935-1.905-3.807-2.46-5.753-.397-1.386-.986-3.206-1.563-4.489-2.709-6.019-4.832-12.248-6.817-18.555-1.04-3.3-1.92-6.569-2.394-10.009-.377-2.732-1.418-5.497-1.497-8.247-.109-3.813-.299-7.699-.299-11.439 0-2.958-.3-5.916-.3-8.895 0-1.327-.279-3.049.3-4.206M1.664 115.794c0-4.789.96-9.806 3.128-14.144 1.903-3.805 3.875-8.138 4.82-12.3.426-1.874 1.405-3.662 2.116-5.44.87-2.177 1.497-4.594 2.72-6.605 1.199-1.969 1.897-4.322 2.932-6.392 1.294-2.587 2.337-5.3 3.869-7.767 2-3.223 3.622-6.909 6.12-9.777 2.245-2.578 4.27-5.292 6.664-7.752 1.285-1.321 2.249-2.99 3.536-4.352.85-.9 1.644-1.915 2.463-2.857.523-.601 1.574-1.99 2.297-2.312.954-.424 1.55-1.685 2.16-2.448.891-1.113 1.744-2.407 2.751-3.415 1.89-1.89 3.834-3.636 6.317-4.745"/><path stroke="#171717" stroke-linecap="round" stroke-width="2" d="M50.352 27.663c2.063 0 3.95-1.072 5.606-2.176 2.504-1.67 5.165-3.183 7.722-4.745 3.737-2.284 7.55-4.485 11.575-6.256 4.645-2.044 9.194-5.396 14.25-6.408 5.054-1.01 9.95-2.598 15.112-3.264 3.756-.484 7.45-1.228 11.227-1.571 2.567-.234 5.109-.471 7.677-.665 2.371-.18 4.773-.042 7.133-.272 7.288-.711 15.318-.657 22.183 2.176 3.554 1.467 7.192 2.685 10.729 4.2 3.698 1.586 7.336 3.483 10.881 5.38"/><path stroke="#171717" stroke-linecap="round" stroke-width="2" d="M165.953 9.165c1.543.172 2.637 1.764 4.08 2.176 1.685.482 3.333 1.917 4.896 2.72 4.984 2.563 10.482 4.29 15.293 7.133 11.025 6.515 21.318 14.609 29.649 24.42 2.303 2.713 4.682 5.36 6.724 8.296 2.151 3.092 3.492 6.494 5.455 9.657 3.082 4.965 4.755 11.03 6.589 16.532.434 1.302.926 2.764 1.285 4.02.266.933.998 2.17 1.103 3.112.156 1.407 1.303 2.804 1.617 4.216.167.756.487 1.624.831 2.312"/><path stroke="#171717" stroke-linecap="round" stroke-width="2" d="M241.844 89.136c0 5.133 2.74 10.053 4.775 14.704 2.5 5.713 2.919 12.336 3.717 18.421 1.087 8.283.782 17.305-.74 25.523-.361 1.947-.463 4.264-1.285 6.09-.83 1.845-1.737 3.625-2.644 5.44-1.623 3.246-2.673 6.28-3.551 9.792"/><path stroke="#171717" stroke-linecap="round" stroke-width="2" d="M110.445 250.624h17.067c4.679 0 8.74-.83 13.319-1.678 6.592-1.22 13.517-1.569 19.946-3.355 3.482-.967 6.747-2.244 10.045-3.728 3.42-1.539 6.992-2.617 10.17-4.661 5.704-3.666 12.068-6.821 17.067-11.557 1.815-1.719 4.123-3.148 6.131-4.64 4.116-3.058 8.296-6.637 11.537-10.625 1.895-2.333 3.789-4.651 5.448-7.188 1.866-2.854 4.418-5.29 6.172-8.161 4.341-7.103 8.743-13.665 12.096-21.209.981-2.207 1.573-4.759 2.237-7.084.608-2.127 2.61-4.203 2.61-6.338M5.31 100.749c0 4.566-1.909 8.442-2.589 12.862-.612 3.983-1.139 7.631-1.139 11.744 0 6.907 2.618 13.306 3.376 20.133.558 5.023 1.725 10.03 3.045 14.913.866 3.206 2.28 6.259 3.355 9.404 1.579 4.618 2.9 9.207 4.764 13.732 2.978 7.232 7.684 12.491 12.966 18.165 1.963 2.108 3.023 4.998 4.95 7.167.83.933 1.49 1.891 2.217 2.899.312.434 1.834.829.745.829"/><path stroke="#171717" stroke-linecap="round" stroke-width="2" d="M33.645 210.36c2.597 2.338 5.035 5.366 7.995 7.25 4.438 2.824 8.532 6.174 12.883 9.155 4.963 3.4 9.91 6.598 15.1 9.672 4.035 2.392 8.328 3.962 12.489 5.986 3.356 1.633 7.078 2.587 10.439 4.267 3.483 1.742 8.178 1.558 11.93 2.444 5.524 1.304 11.176 2.008 16.778 2.631 1.659.184 12.438.249 12.303-.021M374.558 45.927c-.419 0-.851-.032-1.267.01-.901.09-1.725.628-2.46 1.113-.611.402-1.189.919-1.707 1.437-.332.331-.746.642-.853 1.122-.53 2.386-.269 4.945-.269 7.385 0 1.15.222 2.173.583 3.258.347 1.04 1.296 1.671 2.241 2.16 1.532.793 2.954 1.665 4.67 2.061 1.724.398 3.215.171 4.72-.718 1.769-1.046 3.058-2.331 4.061-4.107.608-1.076.924-2.375 1.193-3.572.298-1.324.458-3.009-.045-4.301-.45-1.157-1.198-2.27-2.066-3.154-.892-.91-2.086-2.02-3.323-2.425-.656-.215-1.302-.467-1.976-.628-.694-.166-1.446-.09-2.155-.09-.538 0-1.178-.098-1.706.02-.288.064-.604.16-.899.16"/><path fill="#fff" stroke="#fff" stroke-width="8" d="M126.684 173.415c23.688-1.656 41.283-22.793 39.594-46.95-.837-11.96-6.428-25.179-14.573-35.24-8.087-9.99-19.399-17.676-31.943-16.799-12.544.877-22.676 10.063-29.294 21.08-6.666 11.097-10.363 24.966-9.526 36.927 1.689 24.156 22.054 42.638 45.742 40.982Z"/><path stroke="#FFD424" stroke-linecap="round" stroke-width="2" d="M87.026 141.711c.03-.557 1.216.692 1.316.773 3.449 2.812 6.631 6.156 9.368 9.659.734.938 1.396 1.929 2.13 2.868.2.255.81.79.835 1.153.029.418-.657-.522-.948-.824-1.286-1.334-2.576-2.667-3.796-4.062-2.104-2.407-4.21-4.944-5.879-7.677-.284-.464-1.375-1.302-.84-1.4.362-.066 1.801 1.515 2.037 1.712a421.462 421.462 0 0 1 5.799 4.937c.32.279 1.296 1.065.903.901-.863-.358-1.869-1.757-2.467-2.387-2.474-2.607-4.801-5.373-6.816-8.352-.125-.185-.526-.718-.373-.556.9.955 1.932 1.756 2.962 2.563 2.552 2 5.054 4.065 7.62 6.046.322.249 1.21 1.083.944.775-.91-1.053-1.99-1.982-2.931-3.01-2.412-2.636-4.814-5.5-6.824-8.464-1.301-1.918 3.56 2.969 5.31 4.489 1.228 1.068 2.463 2.13 3.686 3.205.48.422 1.601 1.92 1.403 1.311-.221-.676-1.669-1.803-2.076-2.266-1.98-2.254-3.885-4.591-5.764-6.93-.307-.382-2.15-2.9-1.895-2.687 2.343 1.966 4.92 3.685 7.383 5.494.833.611 1.66 1.228 2.491 1.841.223.165.748.503.28-.069-2.095-2.553-4.532-4.786-6.554-7.419-.444-.578-.48-.631.185-.186 1.575 1.054 3.182 2.058 4.745 3.131 1.661 1.14 3.324 2.707 5.126 3.623 1.357.691-1.797-2.46-2.742-3.654-3.174-4.011-6.982-8.201-9.34-12.788-.203-.395.034-.21.218-.065 1.518 1.194 3.207 2.185 4.815 3.249 2.904 1.922 5.747 4.01 8.762 5.756.124.072.475.271.406.145-.212-.386-.607-.639-.92-.95-3.106-3.092-6.024-6.369-8.865-9.706-1.537-1.806-3.025-3.654-4.585-5.441-.737-.846-1-1.106.118-.268 3.216 2.412 6.622 4.56 9.802 7.018.091.07 1.21 1.116 1.407 1.015.148-.076-.192-.274-.3-.4-.38-.438-.759-.853-1.153-1.279-.997-1.078-1.955-2.182-2.926-3.283-.384-.436-1.769-1.332-1.19-1.277.603.058 1.934 1.486 2.301 1.781a147.691 147.691 0 0 1 6.692 5.678c.895.809 1.803 1.596 2.782 2.303.106.076.381.321.336.199-.207-.556-1.266-1.56-1.543-1.895-3.186-3.868-6.596-7.811-9.182-12.12 0-.001-.944-1.283-.245-.675 1.333 1.158 2.753 2.185 4.182 3.219 2.795 2.022 5.632 4.081 8.121 6.481 2.468 2.381-3.767-5.736-5.801-8.498-1.472-2-2.956-3.993-4.284-6.094-.331-.524-1.438-1.927-.893-1.631 2.714 1.472 5.198 4.055 7.591 5.998.543.44 1.165 1.174 1.811 1.481 1.446.689-1.969-2.53-2.996-3.76a201.37 201.37 0 0 1-6.348-8.014c-.466-.62-1.478-1.974-1.98-2.669-.385-.534-1.69-1.697-1.032-1.684.837.018 3.174 2.606 3.725 3.054 2.347 1.908 4.706 3.803 7.03 5.741 1.375 1.147 2.726 2.323 4.078 3.499.536.465 1.433 1.364.375.06-3.046-3.754-6.208-7.424-8.841-11.488-1.226-1.892 2.098 1.157 2.473 1.422 2.759 1.942 5.436 4.059 8.288 5.863.911.577.367-.267.07-.759-1.8-2.982-3.789-5.865-5.72-8.763-.77-1.156-1.601-2.283-2.273-3.502-.213-.386-.977-1.658.019-.792 3.207 2.788 6.311 5.701 9.613 8.379.425.345 1.404 1.557 1.284 1.024-.175-.77-1.396-1.907-1.83-2.47-2.516-3.264-5.572-6.419-7.672-9.974-.152-.258.517.305.752.492 1.36 1.08 2.803 2.05 4.208 3.069a262.36 262.36 0 0 1 4.162 3.097c.054.041 1.708 1.363 1.496.885-1.316-2.97-3.876-5.55-5.625-8.288-.317-.496-1.439-1.811-.945-1.492 1.155.747 2.197 1.822 3.302 2.65 1.523 1.143 3.047 2.288 4.602 3.389.713.505 2.152 1.95 3.097 2.021.752.058-.482-1.44-.864-2.091-1.093-1.86-2.367-3.621-3.403-5.512-.265-.485-1.197-1.723-.686-1.51.313.13.847.804 1.097 1.011 1.759 1.457 3.713 2.769 5.623 4.022.249.163.702.34.506-.184-.809-2.167-2.235-4.233-3.331-6.26a180.27 180.27 0 0 1-2.669-5.093c-.196-.392-.838-1.521-.541-1.199 2.717 2.95 11.778 10.885 8.751 8.255-1.197-1.041-2.206-2.349-3.552-3.227-.609-.397.134.769.189.94.294.902-1.457-.58-1.735-.77-.19-.13-3.444-1.954-3.458-1.7-.011.21.776.772.911 1 .185.313-1.767-1.466-2.049-1.711-.457-.398-2.217-1.778-1.45-.233.716 1.444 1.375 2.9 1.796 4.462.492 1.828-4.615-2.278-4.116.214.271 1.35.785 2.652 1.072 4.006.117.556-.329.108-.499-.064-1.077-1.093-1.979-2.355-3.014-3.487-.148-.162-2.346-2.637-2.375-1.949-.113 2.787.444 5.658.529 8.447.009.289.343 4.766-.286 4.743-.376-.013-.75-1.299-.821-1.476-.864-2.17-1.676-4.365-2.498-6.552-.101-.267-2.01-4.848-1.912-3.106.214 3.796.75 7.605 1.473 11.335.393 2.028.577 4.789 1.445 6.688.732 1.603-1.814-3.021-2.764-4.506-.276-.431-.885-1.74-1.468-1.9-.436-.12-.562 3.37-.573 3.478-.328 3.166-1.276 6.312-1.489 9.477-.091 1.345.099-.884.132-1.11.26-1.778.317-3.55.456-5.337.136-1.766-.342-3.524.35-5.243.676-1.675.189-3.67.066-5.433-.084-1.196-.598-.54-1.335.007-1.162.86-2.361 1.928-3.104 3.185-1.835 3.103-3.452 6.578-4.708 9.95-1.419 3.805-1.923 7.62-2.702 11.59-.82 4.183-.536 8.242-.242 12.457l.264 3.778c.08 1.141.038.53-.018-.258-.706-10.1.42-20.151 5.78-28.945 1.423-2.335 3.008-4.533 4.597-6.752 1.149-1.603-.434.381-.846.801-1.698 1.73-3.138 3.247-4.387 5.352-1.628 2.743-3.148 5.672-4.381 8.617-1.147 2.739-1.956 5.627-2.695 8.498-.667 2.589-1.35 5.321-1.257 8.015.06 1.76.233 3.522.356 5.28.008.107.206 1.946.48 1.734.588-.454 1.05-2.247 1.277-2.785 1.82-4.309 3.653-8.614 5.477-12.922 4.24-10.008 9.011-19.821 13.096-29.889.448-1.104 1.825-3.626.414-1.142-3.699 6.516-6.135 13.876-8.324 21.011-.832 2.71-2.377 10.935-2.574 8.106-.313-4.471 1.046-9.363 1.833-13.743.123-.681.666-2.683.427-2.033-.621 1.686-.934 3.53-1.425 5.256-1.332 4.677-3.036 9.272-4.153 14.005-.031.131-.192 1.152-.247.363-.118-1.69-.111-3.396-.084-5.089.038-2.267.221-4.528.267-6.795.02-.987.369-3.817-.12-2.959-.207.362-.098 1.233-.085 1.613.06 1.806.24 3.614.366 5.415.222 3.174-.125 7.416 1.27 10.373.174.369.164-.803.175-1.211.07-2.614.104-5.23.206-7.842.085-2.193.462-8.737.654-6.551.307 3.479.633 6.95 1.843 10.259.1.274 2.13 5.077 2.647 3.722.757-1.983.035-4.787-.253-6.808-.067-.47-.442-1.455-.259-1.936.153-.403 2.735 1.881 2.741 1.886 3.717 3.16 7.431 6.324 11.161 9.471.687.58 1.426 1.277 2.255 1.66.58.268-.618-2.1-.631-2.132-1.153-2.767-2.493-5.969-2.659-9.014-.076-1.397 3.378 1.192 3.67 1.375 1.211.76 4.712 3.102 3.789 2.011-3.08-3.638-6.085-7.255-8.913-11.1-.591-.804-2.313-2.878-.23-1.517 3.627 2.37 7.36 4.699 10.824 7.305.259.195 1.045.752.827.511-1.167-1.291-2.401-2.506-3.532-3.833-1.514-1.776-3.024-3.579-4.413-5.454-.512-.692-1.419-1.682-1.674-2.542-.112-.375.707.339 1.04.546 1.732 1.078 3.444 2.189 5.163 3.286a109.075 109.075 0 0 1 4.75 3.193c.597.427 2.242 1.815 1.851 1.193-.882-1.404-2.19-2.632-3.24-3.903-1.925-2.329-3.909-4.685-5.586-7.202-.18-.27-1.135-1.51-.967-1.973.063-.174 3.136 2.048 3.162 2.066 3.513 2.446 6.963 5.211 10.611 7.445 1.128.69.279-.284-.078-.762-2.885-3.861-5.878-7.641-8.685-11.56-1.597-2.23-3.193-4.487-4.632-6.824-.041-.066-1.141-1.64-.962-1.899.145-.209 6.587 4.84 7.068 5.231.852.69 1.681 1.431 2.592 2.045.637.43-1.012-1.156-1.53-1.723a95.708 95.708 0 0 1-6.052-7.318c-.944-1.265-2.898-3.253-3.26-4.88-.244-1.1 1.983 1.087 2.893 1.752a173.174 173.174 0 0 1 10.603 8.397c1.486 1.276 3.019 2.533 4.428 3.895 1.48 1.432-.187.367-.868-.211-3.054-2.59-6.813-5.458-9.04-8.84-1.43-2.174 4.134 3.165 6.103 4.865a57.64 57.64 0 0 0 2.832 2.3c.03.023.806.688.844.572.122-.38.237-.326.655-.355 1.061-.074-.554-1.517-.766-1.752-2.083-2.312-4.339-4.69-5.731-7.513-.639-1.297 2.311 1.741 3.528 2.523 1.25.803 5.081 3.082 3.776 2.37-2.918-1.593-10.856-7.634-7.94-6.036.949.52 1.882 1.034 2.785 1.635 1.051.7 2.292 1.165 3.307 1.847.721.484-.487-.045-.708-.223-.088-.07-2.03-1.837-1.405-1.88 1.423-.1 2.922.606 4.24 1.039.983.322 1.087.388.015-.323-1.329-.88-2.744-1.77-4.244-2.325-.66-.244-1.122-.218-.451-.265.86-.06-1.676-.408-2.506-.64-.755-.212.836.268 1.027.36 2.971 1.433 5.643 3.482 8.316 5.392 2.935 2.096 5.807 4.526 7.953 7.456.089.121.958 1.763.692 1.584-.537-.36-1.789-1.867-1.3-1.442.762.662 1.339 1.561 1.898 2.39 1.175 1.74-2.817-1.43-2.977-1.548a389.424 389.424 0 0 1-4.122-3.075c-.396-.299-1.491-1.286-1.188-.894.802 1.039 1.611 2.08 2.17 3.274.165.351.214.561-.236.165-1.226-1.083-2.299-2.334-3.505-3.44-1.051-.965-2.178-1.838-3.26-2.765-.696-.597-.739-.657-.256.228 1.085 1.989 2.326 3.827 3.161 5.95.157.398.043.448-.308.194-1.102-.798-2.061-1.781-3.161-2.586-1.936-1.416-.578.271.007 1.162.245.373 1.276 2.665.994 2.367-2.005-2.125-3.785-4.585-5.995-6.506-1.487-1.293 2.03 3.384 2.932 5.137.583 1.133 1.104 2.286 1.626 3.448.009.02.457 1.103.422 1.083-.748-.415-1.404-1.595-1.936-2.214-1.054-1.228-2.143-2.445-3.327-3.551-.195-.182-.721-.723-.311-.028.957 1.62 2.001 3.178 2.886 4.844a112.686 112.686 0 0 1 2.271 4.54c.062.13 1.107 2.237.179 1.496-1.765-1.408-3.161-3.435-4.566-5.171-1.631-2.016-3.284-4.018-4.876-6.065-.049-.063-1.094-1.419-1.017-1.289.854 1.447 1.789 2.853 2.662 4.29 1.757 2.898 4.006 6.035 5.124 9.263.152.44-.893-.339-1.233-.656-2.149-2.002-4.106-4.21-6.085-6.376-.567-.62-2.172-2.538-1.759-1.806.656 1.16 1.504 2.237 2.226 3.356a59.374 59.374 0 0 1 2.488 4.278c.017.032 1.03 1.986.804 1.947-1.368-.233-3.317-2.358-4.276-3.139-3.151-2.567-6.232-5.222-9.352-7.829-.073-.06-2.593-2.422-2.93-2.12-.186.167 2.541 4.459 2.636 4.639 3.081 5.828 5.726 11.934 8.019 18.112.354.954.735 1.907.969 2.9.252 1.067-.815-.539-.925-.677-.803-1.015-1.637-2.004-2.437-3.02-.166-.211-.575-.986-.892-1.088-.215-.069.244.378.385.554a17.467 17.467 0 0 1 1.699 2.552c.247.453.589.953.72 1.459.155.594-1.047-.652-1.508-1.057-4.478-3.937-8.174-8.54-12.446-12.646-.125-.12-.921-.843-.478-.115a41.12 41.12 0 0 1 2.442 4.689c.22.495 3.415 7.369 2.97 7.632-.335.198-6.299-6.011-6.994-6.646-.415-.378-1.61-1.471-1.39-.954.762 1.793 1.611 3.515 2.279 5.356.977 2.692 1.6 5.493 2.575 8.18.381 1.048-1.575-1.027-1.82-1.27-1.151-1.144 3.473 5.182 2.041 4.42-.809-.43-1.244-2.387-1.731-3.168-.128-.207-4.43.496-4.811.509-1.132.038-2.906.288-3.914-.443-1.031-.749-1.815-2.048-2.634-3.007-.53-.619-2.145-2.764-1.804-.69.605 3.689 2.41 7.022 4.084 10.312 1.574 3.094 2.884 6.375 4.281 9.581.852 1.954 1.33 4.245 2.524 6.032.229.342-.354-.955-.527-1.175-.688-.874-.705-.522-.643.366.116 1.652.59 3.088.995 4.679.135.527.666 1.198.922 1.691.599 1.152 1.302 3.213 2.373 4.039.217.168.131-.554.066-.821-.313-1.278-.715-2.538-1.058-3.809-.098-.362-1.117-3.988-.417-3.482 1.291.93 2.573 2.192 4.055 2.807.41.171.413-.165.312-.491-.592-1.908-1.657-3.753-2.515-5.55-.801-1.677-3.189-6.715-2.417-5.025.761 1.665 2.785 3.765 4.236 4.861 1.684 1.272-.126-2.307-.358-2.819-.323-.712-1.166-1.651-.434-.366.083.147 1.274 2.013 1.341 1.489.276-2.157-1.559-4.945-2.314-6.911-.07-.182-.347-.651-.366-.457-.023.243.219.941.113.722a24.285 24.285 0 0 0-3.178-4.947c-.736-.883.35 1.984.392 2.075.764 1.651 4.235 5.908 3.073 4.509-2.319-2.793-9.697-10.803-7.176-8.192 1.84 1.907 4.202 3.547 6.42 4.98 2.869 1.854.847-2.282.26-3.53-.471-1.003-1.076-1.967-1.447-3.015-.179-.503-.292-.695.081-.253 1.963 2.326 4.969 4.156 7.657 5.524.15.076 1.24.767 1.02.077-.433-1.359-1.344-2.656-2.076-3.861a165.002 165.002 0 0 0-2.2-3.532c-.072-.111-.565-.922-.541-.827.26 1.019 1.209 2.393 2.146 2.916.252.141-.001-.591-.11-.858-.521-1.284-1.157-2.536-1.58-3.859-.502-1.567.069-.235.555.333.286.334 1.875 1.866 1.995.763.09-.831-.468-1.927.434-1.045.395.388.926 1.036 1.409 1.237"/><path stroke="#FFD424" stroke-linecap="round" stroke-width="2" d="M145.571 94.67c.12.697.737 1.308 1.161 1.84.945 1.184 1.718 2.45 2.482 3.756 1.866 3.191 2.836 6.38 3.803 9.912.285 1.042 2.029 5.227-.046 2.576-4.678-5.976-9.049-12.436-14.194-18.02-1.048-1.137 2.589 1.695 3.843 2.601 3.448 2.493 6.884 5.184 9.981 8.109.229.216 2.449 2.774 2.021 2.615-4.084-1.516-7.976-4.908-11.461-7.426-2.106-1.522-8.507-5.944-6.236-4.68 3.265 1.814 6.052 5.31 8.586 7.965 2.263 2.369 4.795 4.996 6.296 7.956.446.88-.445.284-.79.027-2.411-1.793-4.589-3.985-6.782-6.028-2.823-2.629-5.898-5.45-8.152-8.618-1.35-1.898 3.09 3.488 4.582 5.277 1.554 1.865 3.898 4.076 4.691 6.443.246.733-.728-.023-.827-.097-2.513-1.907-4.688-4.329-6.904-6.557-2.542-2.556-9.953-10.415-7.658-7.635 2.586 3.133 5.222 6.173 7.563 9.507 2.184 3.111 4.334 6.323 6.269 9.598.543.92-.18.553-.781.154-2.592-1.72-4.798-4.102-6.892-6.374-1.633-1.772-3.152-3.625-4.627-5.529-.136-.175-2.045-3.09-2.441-2.967-.094.03.005.2.035.294.125.403.679 1.657.784 1.91.71 1.721 1.23 3.489 1.795 5.261.164.512 2.64 6.835 1.833 7.208-1.176.543-5.525-8.984-6.011-9.955-.69-1.38-2.042-5.744-1.934-4.205.226 3.236 1.006 6.442 1.745 9.589 1.017 4.332 1.877 8.739 3.115 13.013.982 3.389.141-1.555-.03-2.457-.371-1.952-.583-4.592-1.576-6.364-.175-.312-.037 3.112-.014 3.436.217 3.105.657 6.181.903 9.28.215 2.706-1.107-2.035-1.211-2.36-1.645-5.146-2.876-10.537-3.767-15.866-.15-.898-.19-1.858-.432-2.74-.181-.662-.124 1.371-.111 2.057.087 4.468.498 8.93.809 13.387.033.464.541 5.686-.048 2.943-.902-4.195-2.208-17.01-1.908-12.73l.868 12.421c.133 1.899.275 3.798.399 5.697.067 1.032.296 2.344-.019 3.366-.059.191-.379-.207-.452-.392-.833-2.132-1.351-4.378-1.791-6.618-.872-4.432-1.631-8.939-1.987-13.445-.17-2.154.053.753.084 1.195.301 4.307.688 8.616.89 12.929.025.54.21 4.86-.142 2.215-.567-4.264-1.211-8.523-1.588-12.809-.096-1.086-.167-2.175-.243-3.263-.02-.294-.061-1.018-.013-.196.315 5.502.206 11.064-.001 16.566-.157 4.167-.282 8.587-1.464 12.627-.076.261-.197.689-.298.176-.385-1.955-.571-3.989-.785-5.967-.945-8.743-2.595-35.082-1.981-26.309.694 9.922 1.433 19.841 2.081 29.766.011.163.054 4.716-.438 2.829-1.501-5.753-1.732-12.027-2.144-17.929-.119-1.692-.26-3.386-.299-5.082-.01-.418-.206-1.843.096-2.269.119-.168.199.373.224.578.218 1.81.27 3.655.397 5.471.373 5.341.772 10.68 1.12 16.022.054.827.285 5.075-.433 1.897-1.244-5.511-2.531-22.45-2.137-16.814.32 4.572.548 9.137.295 13.719-.195 3.535-.331 7.617-1.563 10.994-.147.403-.351.553-.575.069-1.09-2.352-1.137-5.536-1.411-8.044-.614-5.622-.985-11.281-1.339-16.925-.067-1.07.019-2.439.342-.576.728 4.206.774 8.638 1.014 12.892.182 3.215.386 6.58-.065 9.786-.265 1.891-.43-2.509-.45-2.796l-.523-7.483c-.042-.608.599 3.376.658 3.756.833 5.358 2.906 21.49 1.992 16.145a99.06 99.06 0 0 0-1.783-8.314c-.426-1.63-.899-3.249-1.303-4.885-.109-.44-.125-1.66-.402-1.3-.633.82.492 4.731.592 5.641.288 2.609.895 5.193 1.056 7.814.183 2.994-1.623-1.141-2.043-1.921-.839-1.56-1.815-3.255-2.257-4.988-.354-1.387 1.017 2.688 1.717 3.937 1.281 2.284 2.698 4.686 4.317 6.752 1.247 1.59-.707-.192-1.214-.58-2.285-1.747-4.653-3.277-7.053-4.85-1.026-.672.083.72.291.927a42.15 42.15 0 0 0 4.645 3.972c.114.084 1.777 1.28 1.141.741-2.754-2.335-5.707-4.498-8.53-6.754-.663-.53-1.349-1.01-2.041-1.497-.21-.148-.5-.718-.6-.482-.185.448 4.325 3.865 4.659 4.156 2.143 1.862 4.388 3.624 6.493 5.525 1.576 1.423-.811 0-1.354-.358-2.741-1.808-5.296-3.901-8.007-5.758-1.538-1.053-.56-.459.295.375 1.451 1.416 3.087 2.565 4.611 3.89.586.509.79 1.009-.114.389-2.496-1.71-5.034-3.964-7.787-5.237-1.153-.532-1.817-1.651-2.733-2.494-.463-.426-.942-.515-1.39-.864-.282-.221-.597-.388-.877-.632-.078-.067-.53-.666-.618-.536-.491.732 4.434 5.929 4.975 6.451 5.284 5.106 11.642 10.023 18.459 12.916 1.934.821 3.664 1.072 5.776.925 3.022-.212 6.021-.273 8.916-1.26.292-.099 1.532-.333 1.728-.559.046-.053-1.955-.31-2.087-.334-3.414-.635-6.815-1.18-10.18-2.059-2.017-.527-4.051-1.023-6.05-1.613-.506-.149-1.889-.375-2.29-.801-.216-.229.624-.1.939-.122 1.258-.088 2.491-.113 3.747.021 1.923.203 3.878.532 5.731 1.097.952.291.719.431-.29.501-2.314.162-4.625-.268-6.919-.505-1.356-.141-1.377-.159-.06-.251 1.633-.114 3.245-.141 4.86.169.576.111 1.639.318.281.179-3.477-.358-7.173-1.571-10.503-2.63-.253-.081-2.381-.738-1.99-.766 2.771-.194 5.55-.217 8.327-.186 2.987.032 6.024.455 9.008.246 1.828-.128-3.488-1.828-3.565-1.857-4.322-1.603-8.694-3.079-13.079-4.499-1.427-.462-2.023-.627-.144-.442 5.401.53 21.033 5.22 15.927 3.381-3.463-1.247-6.893-2.632-10.303-4.015-.943-.382-5.001-1.711-1.779-1.784 4.201-.094 8.493.067 12.664.585.275.034 4.615.737 2.968.188-3.048-1.016-6.147-1.882-9.194-2.905-1.199-.403-2.975-.948-.672-1.126 3.367-.261 6.705-.46 10.078-.21.722.053 2.519.437 3.193-.026.433-.297-2.563-1.943-2.582-1.954-2.68-1.536-5.428-2.967-8.079-4.552-1.54-.92.198-.465 1.107-.346 4.108.537 8.112 1.589 12.047 2.876 1.2.392 2.38.846 3.566 1.277.456.165.768.295-.01.255-5.656-.295-11.312-2.019-16.764-3.422a250.248 250.248 0 0 1-6.209-1.672c-.725-.206-2.136-.381-2.776-.88-.276-.216.693.106 1.032.196a42.105 42.105 0 0 1 5.65 1.966c.733.314 7.503 2.855 7.173 4.135-.343 1.333-10.192-.904-11.229-1.081a89.905 89.905 0 0 1-4.628-.892c-.505-.114-2.037-.282-1.52-.318 5.668-.396 11.354.058 16.959.963 2.453.396-.578-.845-1.389-1.26-3.899-1.998-7.959-3.844-12.078-5.347-.073-.026-1.426-.356-1.536-.543-.115-.194.45-.05.675-.047.514.007 1.972.062 2.381.088 4.099.261 8.448 1.102 12.376 2.329 2.391.747.472.122-.718-.359-2.942-1.19-5.966-2.244-8.881-3.493-3.84-1.646 8.402.107 12.503.907 1.027.2 3.146 1.086.912.106-2.821-1.237-5.654-2.476-8.411-3.851-2.814-1.402.586-.714 1.802-.507 5.084.866 9.94 2.421 14.768 4.197.613.225 1.296.422 1.863.761.588.351-1.26-.546-1.87-.859-3.898-2.003-7.92-3.746-11.847-5.688-.795-.393-2.634-1.15-.631-.931 3.762.409 7.397 1.511 10.951 2.768 1.071.379 2.136.776 3.205 1.161 1.662.598-.777-.744-.847-.789-3.007-1.96-6-3.941-8.917-6.034-1.443-1.036-.525-.791.741-.519 2.312.497 4.418 1.511 6.678 2.106 1.173.309-2.245-1.981-2.469-2.16-1.269-1.008-4.042-2.474-4.802-3.975-.126-.251.564.05.83.14 1.452.491 2.861 1.12 4.275 1.708 2.719 1.129 5.373 2.333 8.038 3.565 3.111 1.439-5.57-4.151-7.634-6.887-.78-1.034 1.316-.067 1.514.021 2.17.965 4.313 2.214 6.544 3.02.554.2.355-.241.16-.548-1.362-2.142-3.327-3.991-5.084-5.794-2.509-2.573-5.116-5.056-7.537-7.714-1.176-1.291 2.717 2.196 4.088 3.277 2.353 1.854 4.436 3.931 6.517 6.075 1.76 1.812-1.692-1.069-1.881-1.24-2.977-2.681-6.112-5.212-8.734-8.252-1.445-1.677-.313-1.021 1.028-.256 3.957 2.256 7.83 4.687 11.475 7.425.511.383 2.934 2.411 1.441.591a81.822 81.822 0 0 1-5.869-8.113c-.061-.096-1.497-2.345-.716-1.547 2.023 2.065 4.452 3.73 6.588 5.674 1.05.954 4.107 3.913 3.036 2.982-2.362-2.053-4.488-4.459-6.58-6.777-.884-.979-1.761-1.962-2.664-2.924-.229-.242-.949-.894-.805-.593 1.827 3.831 3.591 7.645 4.971 11.667.134.39 2.033 4.931.818 4.82-1.221-.112-2.638-.993-3.694-1.481-3.451-1.594-6.916-3.128-10.44-4.556-2.229-.904-4.738-2.236-7.118-2.74-1.739-.368 3.248 1.475 4.75 2.425 2.101 1.329 3.975 2.96 6.016 4.371.024.016.597.534.236.139-1.514-1.659-3.067-3.278-4.612-4.908-3.104-3.275-6.39-6.532-9.106-10.148-.554-.738-.04-.177.286.05 1.166.812 2.347 1.575 3.453 2.473.198.161 3.746 3.195 3.541 3.343-.819.589-1.975-.432-2.936-.742-4.317-1.392-8.604-2.881-12.898-4.343-4.543-1.545-9.084-2.808-13.7-4.074-.47-.129.986.044 1.455.181 1.918.563 3.777 1.355 5.607 2.153 3.963 1.726 7.958 3.523 11.756 5.595 2.761 1.506-1.756-.932-2.2-1.147-4.726-2.279-9.533-4.348-14.333-6.461-.616-.271-2.423-.705-1.79-.935.556-.202 2.041.472 2.488.618 3.126 1.017 6.069 2.481 9.169 3.557.784.272 1.72.699 2.575.64 1.021-.072 1.042-1.466.989-2.218-.049-.706.172-1.694.473-2.337.237-.506.046-.034-.118.135-.696.716-1.765.17-2.318-.403-2.053-2.127-2.165-6.367-1.969-9.164.066-.941.295-2.095-.115-2.451-.999-.868 2.529-2.354 1.466-2.28-3.271.229-6.82 3.44-8.431 6.173-.706 1.198-1.38 2.36-2.04 3.578-.336.62.031-.195.143-.377.465-.757.93-1.359 1.588-1.95 5.848-5.242 14.35-15.772 22.821-8.408"/><path stroke="#FFD424" stroke-linecap="round" stroke-width="2" d="M155.746 145.609c.819-.266-.373-5.822-.446-6.386a155.656 155.656 0 0 1-1.048-11.348c-.049-.869.189-.106.327.231.58 1.418 1.29 2.748 2.066 4.068 1.398 2.38 2.791 4.865 4.344 7.146 1.083 1.59-2.01-3.29-2.825-5.033-.381-.812-1.217-4.264-1.042-1.75l.28 3.995.036.52c-.198-2.83.075-5.71-.089-8.546-.195-3.379-1.197-13.487-.961-10.11.205 2.931.589 5.817.865 8.732.15 1.59.121 4.303 1.035 5.709.276.424.335.249.773.342.433.091.563 1.511.652 1.834.784 2.864.512-2.327.364-3.079-.626-3.185-1.138-6.165-1.366-9.432-.197-2.817-.948-5.62-1.907-8.263-.357-.984-.468-.011-.421.454.215 2.109.997 4.418 1.707 6.411.067.189.82 2.049.532 2.154-1.071.389-3.367-4.995-3.611-5.557-1.234-2.838-2.055-5.85-3.293-8.676-.877-2.003.871 4.309 1.673 6.343.926 2.346 1.948 4.651 2.878 6.994.031.076.146.294.115.218-.662-1.602-1.744-3.074-2.515-4.63-.92-1.857-1.774-3.752-2.628-5.64-.258-.572-.849-2.347-.743-1.729.193 1.128.899 2.279 1.416 3.265 1.268 2.418 2.688 4.751 3.978 7.157.945 1.764 1.806 3.571 2.72 5.351.141.274.893 1.272.878 1.635-.026.631-.886-.912-1.232-1.44-1.829-2.796-3.506-5.696-5.288-8.522-1.121-1.777-2.22-3.589-3.506-5.254-.787-1.019-.974-.893-.508.22 1.687 4.026 4.307 7.623 5.922 11.7.148.376 1.588 4.181.14 2.817-3.638-3.427-5.635-8.782-7.668-13.232-.236-.517-1.034-1.979-.947-1.418.241 1.564 1.207 3.243 1.851 4.649 2.135 4.651 5.16 9.109 6.897 13.922.161.447.27.765-.103.148-1.114-1.844-2.246-3.671-3.273-5.567-2.351-4.34-3.752-9.121-6.071-13.442-.977-1.82.997 4.031 1.828 5.922 1.603 3.652 3.867 7.306 5.005 11.142.585 1.971-2.124-3.524-3.06-5.355a341.104 341.104 0 0 1-2.298-4.561c-.003-.006-.649-1.319-.677-.984-.206 2.489 1.147 5.277 1.763 7.623.347 1.317.626 2.65.929 3.978.051.224.116.9.02.691-1.212-2.625-1.929-5.443-2.806-8.186-.119-.371-.415-1.191-.397-.213.031 1.65.218 3.307.333 4.953.116 1.66 1.012 6.459.235 4.987-.785-1.488-1.114-3.404-1.509-5.011-.848-3.449-1.34-6.95-2.002-10.434-.039-.203-1.02-5.46-1.116-3.229-.208 4.793.554 9.746.888 14.525.057.816.651 6.969.148 2.93-.628-5.05-1.543-10.07-2.272-15.107-.477-3.3-.004 3.432.021 3.73.745 9.05 2.389 17.991 3.345 27.019.123 1.158.463 2.646.268 3.827-.128.769-.776-1.366-1.024-2.106-2.491-7.424-3.691-15.192-4.236-22.985l.068.971c.325 4.66.691 9.319.977 13.982.098 1.595-.189 2.48-.846.427-1.223-3.818-1.976-7.748-2.683-11.686-.729-4.055 1.595 8.491.171 12.356-.251.682-.518-.317-.572-.497-.713-2.354-1.122-4.804-1.467-7.234-.129-.905-1.1-14.237-1.914-14.228-.438.005.529 10.622.59 11.268.254 2.687.561 5.368.762 8.06.085 1.136.648 4.397.069 3.416-.974-1.649-1.283-4.14-1.618-5.951-.849-4.598-1.256-9.266-1.623-13.923-.219-2.769-.402-5.541-.596-8.312-.062-.887-.165-2.36-.04-.577.508 7.271 1.594 14.449 2.477 21.68a229.59 229.59 0 0 1 1.077 10.951c.071.968.72 3.583.161 4.526-.37.624-.909-1.161-1.161-1.841-1.099-2.967-1.952-6.032-2.728-9.097a173 173 0 0 1-2.035-9.088c-.224-1.138-.625-4.577-.649-3.418-.093 4.473.581 9.169 1.009 13.613.243 2.532.626 5.044.925 7.569.027.226.174 2.705.079 2.553-.764-1.228-1.008-3.137-1.317-4.488-.888-3.884-1.561-7.815-2.179-11.75-.471-3.002-1.633-12.035-1.421-9.004.406 5.811 1.348 11.473 2.585 17.164.498 2.287 1.028 4.569 1.484 6.865.001.004.322 2.196.251 2.173-.453-.145-.933-2.395-1.003-2.616a164.208 164.208 0 0 1-2.383-8.201c-.496-1.915-.906-3.854-1.476-5.749-.505-1.679-.322-.155-.266.641.294 4.199.979 8.34 1.371 12.527.027.297.6 4.684-.084 3.045-1.41-3.377-2.015-7.29-2.739-10.863-.104-.516-.173-1.826-.609-2.247-.076-.073-.04.208-.035.313.047.901.126 1.802.189 2.701.277 3.965.782 7.747 1.688 11.615.153.649.468 1.425.515 2.098.063.904-.489-1.745-.721-2.621-.37-1.397-.77-2.79-1.251-4.153-.193-.547-.636-2.205-.623-1.625.079 3.531 1.686 7.167 2.754 10.48.37 1.148 1.483 4.58.993 3.479-1.014-2.278-2.466-4.591-3.939-6.595-.47-.64-1.889-2.42-1.56-.484.557 3.274 1.758 6.388 2.787 9.53.354 1.081 1.318 3.932.269 1.027-1.83-5.069-3.676-10.123-5.459-15.21-1.172-3.341-.823.171-.497 1.59.538 2.342 1.594 4.828 2.611 7.012 1.768 3.8-3.17-7.986-6.071-11.011-1.081-1.127.145 2.782.207 2.968.483 1.452 1.214 2.766 1.873 4.138.524 1.092.291.664.768 1.685.183.392.946 1.384.576 1.162-.967-.581-6.142-6.239-3.452-1.455a35.201 35.201 0 0 0 4.97 6.791c.1.106 1.749 1.636 1.741 1.645-.547.559-6.016-.066-1.787.323 1.861.171 3.753.495 5.473 1.257.192.085 2.035 1.102 1.031 1.2-1.037.101-2.083.146-3.122.218-.106.008 2.319-.384 2.895-.443 2.825-.287 5.676-.411 8.509-.609 1.411-.098 3.569.022 4.459-1.329 1.299-1.975 2.123-4.254 3.435-6.262 2.082-3.186 4.079-6.755 6.697-9.544 1.256-1.336.701.194-.009.877-3.693 3.559-9.231 5.454-13.671 7.855-3.025 1.635-6.355 3.162-9.198 5.11-.104.071-.468.462-.099.204 1.105-.772 2.271-1.413 3.445-2.078 3.16-1.791 6.321-3.261 9.703-4.566 1.895-.731 2.039-.665-.163-.511-3.692.258-7.414.383-11.071.972-.145.023-1.333.259-.394.027 1.72-.424 3.344-1.287 4.981-1.945 2.038-.82 4.309-1.57 6.25-2.6.433-.23-.976-.161-1.466-.138-2.557.117-5.115.367-7.657.663-2.262.263-4.51.61-6.761.953-.772.117-3.041.593-2.327.276 4.915-2.187 10.088-3.964 15.143-5.809 2.276-.831 9.019-3.456 6.909-2.264-1.001.566-2.232.924-3.301 1.305-3.994 1.426-8.074 2.592-12.148 3.762-2.642.759-10.506 3.164-7.983 2.07 4.783-2.074 9.63-4.028 14.571-5.697 1.526-.516 5.676-2.615 7.419-1.848.354.156-.484.627-.819.821-1.582.915-3.346 1.508-5.035 2.189-.672.272-3.31 1.49-3.261 1.472 3.919-1.446 8.216-1.921 12.341-2.418.204-.024 4.553-.428 3.13.29-4.263 2.154-8.919 3.361-13.08 5.792-.2.117-4.066 2.193-2.414 2.077 2.65-.185 5.271-.849 7.943-1.036.41-.029 2.691-.371 1.175.229-2.559 1.013-5.281 1.511-7.75 2.775-.722.37-1.687.861-.257.781 2.098-.117 4.193-.293 6.288-.439 1.864-.131-1.23 1.076-1.487 1.164-3.444 1.181-6.929 2.914-9.881 5.059-1.584 1.151 1.478-.027 1.855-.158 1.085-.377 4.496-.88 3.351-.8-1.114.078-2.174.149-3.247.467-1.448.43 3.013-.279 4.499-.555 1.109-.205 3.528-1.099 4.639-.776.353.103-2.342.608-2.711.656-.17.022-1.97.378-1.024.312 1.18-.083 2.322-.417 3.513-.5 1.363-.096 1.892-.166.707.812-1.031.851 1.679-2.103 2.705-2.959 1.2-1.001 2.416-1.986 3.608-2.981 1.52-1.268 3.663-1.964 4.973-3.472 1.143-1.314 2.391-2.553 3.144-4.163a14.759 14.759 0 0 1 2.184-3.333c.381-.438.487-.143.245.265-.665 1.12-1.002 2.379-1.634 3.521-1.012 1.831-1.953 3.206-3.488 4.697-1.479 1.436-2.715 3.213-4.322 4.5-.841.674-1.423 1.619-2.334 2.199-.597.38-1.079.847-1.698 1.193-.272.152.566-.427.72-.63 1.755-2.313 3.721-4.286 5.923-6.252 1.823-1.628 3.295-3.474 4.98-5.197 1.272-1.3 2.567-2.61 3.263-4.285.321-.772.541-1.575.853-2.35.083-.204.673-1.499.523-1.421-.314.161-.381.561-.703.657-1.095.324-1.936-4.489-2.058-4.959-1.068-4.141-2.011-8.344-2.352-12.615-.111-1.396.035-1.616.23-.157.773 5.815-.368 12.123-1.526 17.804-.084.414-.479 3.725-.885 3.921-.476.23-1.443-7.929-1.477-8.392-.216-2.91-.916-6.269-.188-9.147.4-1.579.583-.742.453.407-.296 2.622-.525 5.259-.849 7.876-.213 1.73-.519 6.929-.64 5.19a66.024 66.024 0 0 1 .065-9.984c.168-2.063 1.677-8.105 1.199-6.091-1.505 6.339-3.519 12.844-6.105 18.817-.602 1.391-.337-3.011-.313-3.258.429-4.304 1.517-8.651 2.912-12.741.642-1.883-.384.905-.56 1.297-2.013 4.495-4.408 8.786-6.612 13.184-.297.592-.86 2.487-1.586 2.797-.776.331.178-1.692.448-2.491 1.368-4.049 3.172-8.209 5.331-11.908.334-.573 1.081-1.909 1.156-.448.117 2.284-.686 4.763-.893 7.046-.092 1.017-.171 2.031-.296 3.045-.035.29-.142 1.066.075.871 1.391-1.246 1.887-3.72 2.984-5.241.064-.088 1.272-1.917 1.413-1.625.227.469-.077 1.352-.186 1.794-.519 2.116-1.036 4.216-1.478 6.351-.505 2.442-.552 5.27-1.346 7.629-.922 2.736 2.012-5.414 3.095-8.09.92-2.274 2.018-4.768 3.544-6.722.52-.665.343-.241.191.495-.591 2.849-1.973 5.571-2.794 8.366a139.86 139.86 0 0 0-1.212 4.495c-.042.164-.573 2.153-.365.846.57-3.583 1.694-7.139 2.764-10.597.767-2.476 1.935-4.904 2.578-7.404.59-2.29-.419 1.144-.47 1.757-.062.746.282-2.607.309-2.848.179-1.586.374-3.168.658-4.739.006-.032.417-2.164.316-2.157-.172.012-.549 1.3-.583 1.37-1.065 2.186-2.517 4.216-3.742 6.311-5.023 8.594-10.018 17.134-15.45 25.479-.488.749-2.764 4.893-2.48 1.926.745-7.799 3.2-15.449 5.234-22.983.66-2.445 1.305-4.888 1.831-7.366.148-.695.617-1.845.527-2.581-.074-.602-.746.959-1.085 1.461-1.975 2.921-3.881 5.89-6.007 8.704a80.808 80.808 0 0 1-6.112 7.198c-1.06 1.106-2.196 2.365-3.637 2.983-.719.308-1.105.277-1.226-.551-.481-3.293-.163-6.836.312-10.1 1.227-8.431 3.6-16.698 5.173-25.071.333-1.77.742-3.563.955-5.353.066-.562.25-1.554-.253-.576-5.297 10.299-11.711 19.952-16.51 30.528-.12.265-.522 1.666-.518 1.478.017-.857.335-1.774.554-2.583 1.248-4.604 2.62-9.177 3.9-13.772 1.622-5.825 3.702-11.751 4.697-17.73.152-.917.086-.586-.17-.002-1.165 2.66-2.575 5.239-3.921 7.808-.827 1.579-14.108 27.202-14.275 27.121-1.39-.671.625-8.002.824-8.836 1.198-5.004 2.702-9.934 3.932-14.933.374-1.52-.038-1-.764-.003-2.756 3.79-4.737 8.337-7.048 12.409-1.52 2.68-3.26 5.45-4.379 8.335-.818 2.11-.09.141.146-.957.702-3.286 1.444-6.619 1.79-9.964.057-.539.57-5.486-.031-2.881-.64 2.776-2.013 5.585-1.81 8.495"/><path stroke="#171717" stroke-linecap="round" stroke-width="2" d="M118.149 167.036c.62-.169 1.254-.92 1.741-1.283 1.907-1.418 3.878-2.743 5.746-4.215 2.116-1.667 7.919-7.303 5.841-5.587-1.193.984-2.023 2.967-2.875 4.232-1.65 2.451-3.06 5.067-4.636 7.567-.104.164-1.157 2.099-.733 1.636 1.634-1.78 3.884-2.994 5.705-4.594 2.158-1.896 4.432-3.889 6.081-6.26.273-.393 1.19-1.727.439-.564-.707 1.094-1.43 2.246-1.946 3.443-.132.307-1.123 2.798-.728 3.071 1.017.703 8.044-9.216 8.79-10.126.18-.219 1.698-2.624 1.257-1.564-.802 1.931-1.793 3.717-2.4 5.744-.53 1.768-1.651 3.86-1.802 5.688-.056.669 1.271-1.052 1.481-1.293 4.543-5.227 8.674-10.265 11.745-16.523.095-.193.798-2.037.315-1.156-.782 1.426-1.284 2.959-1.72 4.521-.406 1.455-.527 2.996-.78 4.482-.249 1.461.836-.023 1.23-.592 1.27-1.837 2.176-4.085 3.225-6.061 1.381-2.603 2.896-5.266 3.892-8.048.019-.053.471-1.595.605-1.504.238.159.043 1.011-.011 1.203-.48 1.696-.85 3.345-1.272 5.064a26.227 26.227 0 0 1-1.382 4.086c-.581 1.354.125-.013.345-.543.58-1.395.779-2.93 1.436-4.282 1.139-2.346 2.359-4.814 3.222-7.277.948-2.708.643-5.649.448-8.449"/><path stroke="#171717" stroke-linecap="round" stroke-width="2" d="M119.021 168.31c2.225-.156 4.426-.874 6.546-1.523.814-.249 3.08-.446 3.699-1.158.684-.787-2.033.532-2.969.993-.349.173-3.137 1.445-3.099 1.989.017.256 4.361-.743 4.536-.788 2.904-.758 5.746-1.892 8.735-2.296 1.235-.167-.949.058-1.216.076-.63.044-2.47.038-1.877.254.796.289 2.058-.358 2.749-.629 2.463-.965 4.859-2.124 7.255-3.24.599-.279 2.32-.636 2.659-1.303.057-.112-.874.014-.906.02-1.11.201-2.258.542-3.282 1.015-.392.181-1.193.503-1.419.92-.183.337.794.055 1.145-.098 3.43-1.494 6.454-4.435 9.234-6.896.473-.419 1.925-1.634 1.48-1.186-.473.476-1.183.798-1.714 1.211-.774.603-2.913 2.04-2.828 3.245.026.382 3.002-2.765 3.162-2.963a476.033 476.033 0 0 0 4.069-5.103c.68-.867 1.272-1.874 2.031-2.674 1.18-1.244-2.456 2.398-3.621 3.658a44.933 44.933 0 0 0-2.59 3.027c-.041.053-.81 1.314-.781 1.312.343-.024.933-.944 1.106-1.151.885-1.06 1.664-2.192 2.475-3.307 1.474-2.026 2.924-4.025 4.031-6.28.511-1.042.51-2.322.719-3.446.28-1.505.689-2.993.943-4.5.339-2.019.964-3.971 1.309-5.993.176-1.033.78-2.334.706-3.384l-.262-3.753-.153-2.19c-.035-.499.16.048.174.241.148 2.121.299 5.127 1.258 6.993"/><path stroke="#171717" stroke-linecap="round" stroke-width="2" d="m123.778 163.593-13.885.971-.771.054c1.575-.11 2.963.264 4.513.535 2.414.421 4.891.694 7.335.837 2.844.167-1.98.413-2.618.458l-4.989.349c1.69-.118 3.332-.252 4.99.201 3.918 1.071-7.999-1.444-11.955-2.364-.218-.051-3.396-.988-3.279-1.121.502-.578 3.381.465 3.866.579 3.564.839 7.193 1.516 10.774 2.285.843.181 3.307.781 2.447.842"/><path stroke="#171717" stroke-width="1.5" d="M162.283 126.745c1.544 22.077-14.521 41.186-35.882 42.68-21.361 1.493-39.93-15.193-41.473-37.271-1.544-22.078 13.748-52.244 35.109-53.737 21.361-1.494 40.703 26.25 42.246 48.328Z"/><path stroke="#171717" stroke-linecap="round" stroke-width="1.5" d="m136.703 84.08-16.482 25.106a1.14 1.14 0 0 0 .605 1.711l12.025 3.861c.63.203.956.897.71 1.511l-7.088 17.681"/><path stroke="#171717" stroke-linecap="round" stroke-width="1.5" d="M83.47 127.056c-.132-1.896-.148-3.57.864-5.275.434-.73.688-1.892.947-2.72.302-.966.741-1.894 1.13-2.828a77.158 77.158 0 0 0 2.388-6.519c.62-1.983 1.138-4.077 2.144-5.933 1.975-3.641 3.622-7.511 6.308-10.721 1.227-1.468 2.574-2.758 3.835-4.208.977-1.124 1.93-2.246 3.038-3.246 1.332-1.201 2.908-2.12 4.233-3.33 1.689-1.54 3.516-2.627 5.697-3.337 1.91-.622 4.378-.4 6.387-.541 1.935-.135 3.783-.317 5.704.075 2.134.435 3.509 1.367 5.299 2.568 2.916 1.958 5.861 3.94 8.543 6.186 1.337 1.12 2.843 2.129 4.205 3.203.643.507 1.18 1.122 1.898 1.532.504.287 1.658.814.375.542M147.18 91.071c.081 1.166 1.721 2.635 2.339 3.629.718 1.153 1.619 2.245 2.182 3.492.991 2.192 2.572 4.126 3.712 6.229 1.114 2.057 2.196 4.117 3.003 6.341.441 1.217.927 2.357 1.211 3.613.221.979.369 2.105.728 3.035a23.397 23.397 0 0 1 1.447 6.535c.151 2.15.684 4.354.836 6.525.069.989.361 2.226.213 3.208-.101.674-.645 1.468-.599 2.128"/><path stroke="#171717" stroke-linecap="round" stroke-width="1.5" d="M162.472 133.556c.284 4.063-1.056 7.509-2.631 11.181-1.826 4.256-3.17 8.67-6.916 11.67-1.475 1.182-2.785 2.571-4.29 3.713-.599.454-1.421 1.181-1.911 1.745-.553.636-1.297.981-1.882 1.554-.595.581-1.727.916-2.468 1.31-.75.398-1.563.631-2.345.964-1.553.663-3.091 1.193-4.666 1.801"/><path stroke="#171717" stroke-linecap="round" stroke-width="1.5" d="m136.21 167.436-2.6.181c-.848.06-2.247.15-3.04.497-1.555.681-3.495.466-5.088 1.062-1.127.421-2.696.525-3.896.609-.975.068-1.897.18-2.854.01-1.026-.181-1.958-.561-2.902-.977-.845-.372-1.821-.766-2.633-1.206-1.662-.901-3.672-1.46-5.507-1.932-.877-.226-2.121-.75-2.926-1.165-1.116-.575-2.234-1.019-3.283-1.761-1.791-1.268-3.677-3.18-4.82-5.067-.867-1.43-2.22-2.441-3.201-3.757-.204-.272-1.619-1.594-1.534-1.599"/><path stroke="#171717" stroke-linecap="round" stroke-width="1.5" d="M92.965 153.64c-.634-.688-1.053-1.918-1.56-2.735-.785-1.263-1.819-2.466-2.671-3.7-.819-1.184-1.742-2.463-2.36-3.764-.636-1.342-.984-3.064-1.358-4.508-.625-2.419-.831-4.702-.98-7.231-.133-2.285.144-4.627.096-6.927-.064-3.028.46-6.203 1.25-9.094M135.054 85.29c-.416 1.358-1.233 2.924-1.983 4.137-1.205 1.952-2.36 3.986-3.871 5.723-1.17 1.346-2.173 2.703-3.255 4.135-1.167 1.547-1.819 3.52-3.244 4.862-.799.752-1.161 1.481-1.701 2.391-.293.493-1.026 1.792-1.018 2.343.014.95.487.812 1.275 1.183a33.028 33.028 0 0 0 5.747 2.052c1.331.342 2.759.435 4.001 1.043.704.344 1.141 1.107 1.67 1.65.61.627 1.625 1.023 2.062 1.764.481.814-1.251 2.409-1.671 2.955a81.043 81.043 0 0 0-5.132 7.477c-.649 1.069-1.489 1.991-1.919 3.174-.363 1-.214 2.124-.14 3.19"/></svg>