<svg width="58" height="67" viewBox="0 0 58 67" fill="none" xmlns="http://www.w3.org/2000/svg">
<g filter="url(#filter0_dd_2974_21229)">
<mask id="path-1-outside-1_2974_21229" maskUnits="userSpaceOnUse" x="8" y="4.74609" width="42" height="50" fill="black">
<rect fill="white" x="8" y="4.74609" width="42" height="50"/>
<path fill-rule="evenodd" clip-rule="evenodd" d="M38.9321 18.1138C38.525 17.5096 38.1022 16.9315 37.6673 16.3839C37.6307 16.3267 37.5876 16.2726 37.5381 16.2225C36.4655 14.8938 35.3225 13.7512 34.1639 12.8595C32.505 11.5827 30.7158 10.7461 29 10.7461C27.2842 10.7461 25.495 11.5827 23.8361 12.8595C22.1586 14.1506 20.5138 15.9677 19.0679 18.1138C16.1809 22.3994 14 28.1288 14 33.9023C14 37.8392 15.5804 41.6147 18.3934 44.3985C21.2064 47.1822 25.0218 48.7461 29 48.7461C32.9782 48.7461 36.7936 47.1822 39.6066 44.3985C42.4196 41.6147 44 37.8392 44 33.9023C44 28.1288 41.8191 22.3994 38.9321 18.1138Z"/>
</mask>
<path fill-rule="evenodd" clip-rule="evenodd" d="M38.9321 18.1138C38.525 17.5096 38.1022 16.9315 37.6673 16.3839C37.6307 16.3267 37.5876 16.2726 37.5381 16.2225C36.4655 14.8938 35.3225 13.7512 34.1639 12.8595C32.505 11.5827 30.7158 10.7461 29 10.7461C27.2842 10.7461 25.495 11.5827 23.8361 12.8595C22.1586 14.1506 20.5138 15.9677 19.0679 18.1138C16.1809 22.3994 14 28.1288 14 33.9023C14 37.8392 15.5804 41.6147 18.3934 44.3985C21.2064 47.1822 25.0218 48.7461 29 48.7461C32.9782 48.7461 36.7936 47.1822 39.6066 44.3985C42.4196 41.6147 44 37.8392 44 33.9023C44 28.1288 41.8191 22.3994 38.9321 18.1138Z" fill="white"/>
<path d="M37.6673 16.3839L32.616 19.6219C32.7252 19.7921 32.8428 19.9567 32.9686 20.1151L37.6673 16.3839ZM38.9321 18.1138L33.9559 21.4662L33.9559 21.4662L38.9321 18.1138ZM37.5381 16.2225L32.8696 19.9914C32.9955 20.1474 33.1293 20.2971 33.2702 20.4397L37.5381 16.2225ZM34.1639 12.8595L37.8235 8.10477L37.8235 8.10477L34.1639 12.8595ZM23.8361 12.8595L27.4957 17.6142V17.6142L23.8361 12.8595ZM19.0679 18.1138L24.0441 21.4662L19.0679 18.1138ZM18.3934 44.3985L22.6138 40.1337L22.6138 40.1337L18.3934 44.3985ZM39.6066 44.3985L35.3862 40.1337V40.1337L39.6066 44.3985ZM32.9686 20.1151C33.3028 20.536 33.6334 20.9874 33.9559 21.4662L43.9082 14.7615C43.4166 14.0319 42.9016 13.3271 42.3661 12.6527L32.9686 20.1151ZM33.2702 20.4397C33.0232 20.1897 32.8042 19.9153 32.616 19.6219L42.7186 13.1459C42.4572 12.7381 42.152 12.3554 41.806 12.0052L33.2702 20.4397ZM30.5043 17.6142C31.226 18.1697 32.0388 18.9624 32.8696 19.9914L42.2067 12.4536C40.8922 10.8253 39.419 9.33278 37.8235 8.10477L30.5043 17.6142ZM29 16.7461C28.8841 16.7461 28.9592 16.7199 29.2599 16.8474C29.5611 16.9752 29.9848 17.2143 30.5043 17.6142L37.8235 8.10477C35.6585 6.43839 32.5915 4.74609 29 4.74609V16.7461ZM27.4957 17.6142C28.0152 17.2143 28.4389 16.9752 28.7401 16.8474C29.0408 16.7199 29.1159 16.7461 29 16.7461V4.74609C25.4085 4.74609 22.3415 6.43839 20.1765 8.10477L27.4957 17.6142ZM24.0441 21.4662C25.2115 19.7333 26.4344 18.4311 27.4957 17.6142L20.1765 8.10477C17.8828 9.87016 15.816 12.2021 14.0918 14.7615L24.0441 21.4662ZM20 33.9023C20 29.5506 21.6849 24.9681 24.0441 21.4662L14.0918 14.7615C10.6768 19.8307 8 26.707 8 33.9023H20ZM22.6138 40.1337C20.9328 38.4702 20 36.2275 20 33.9023H8C8 39.4508 10.2279 44.7592 14.173 48.6633L22.6138 40.1337ZM29 42.7461C26.5929 42.7461 24.2969 41.7992 22.6138 40.1337L14.173 48.6632C18.116 52.5652 23.4506 54.7461 29 54.7461V42.7461ZM35.3862 40.1337C33.7031 41.7992 31.4071 42.7461 29 42.7461V54.7461C34.5494 54.7461 39.884 52.5652 43.827 48.6632L35.3862 40.1337ZM38 33.9023C38 36.2275 37.0672 38.4702 35.3862 40.1337L43.827 48.6633C47.7721 44.7592 50 39.4508 50 33.9023H38ZM33.9559 21.4662C36.3151 24.9681 38 29.5506 38 33.9023H50C50 26.707 47.3232 19.8307 43.9082 14.7615L33.9559 21.4662Z" fill="white" mask="url(#path-1-outside-1_2974_21229)"/>
<path fill-rule="evenodd" clip-rule="evenodd" d="M16 33.9023C16 28.5925 18.0191 23.2387 20.7321 19.2117C22.0862 17.2016 23.5914 15.5551 25.0639 14.4218C26.555 13.2741 27.9158 12.7253 29 12.7253C30.0842 12.7253 31.445 13.2741 32.9361 14.4218C33.792 15.0806 34.6591 15.9128 35.5011 16.889L28.5707 24.5306C28.3514 24.7723 28.266 25.1052 28.3422 25.4212C28.4184 25.7372 28.6465 25.9961 28.9525 26.1138L33.2141 27.7539L32.1132 33.3675C32.008 33.904 32.3622 34.4233 32.9044 34.5274C33.4466 34.6316 33.9714 34.281 34.0766 33.7445L35.3366 27.3197C35.4287 26.8499 35.168 26.3823 34.7174 26.2088L31.0248 24.7878L36.7518 18.4731C36.926 18.7134 37.0982 18.9597 37.2679 19.2117C39.9809 23.2387 42 28.5925 42 33.9023C42 37.3142 40.6304 40.5864 38.1924 42.999C35.7544 45.4116 32.4478 46.7669 29 46.7669C25.5522 46.7669 22.2456 45.4116 19.8076 42.999C17.3696 40.5864 16 37.3142 16 33.9023ZM37.6673 16.3839C38.1022 16.9315 38.525 17.5096 38.9321 18.1138C41.8191 22.3994 44 28.1288 44 33.9023C44 37.8392 42.4196 41.6147 39.6066 44.3985C36.7936 47.1822 32.9782 48.7461 29 48.7461C25.0218 48.7461 21.2064 47.1822 18.3934 44.3985C15.5804 41.6147 14 37.8392 14 33.9023C14 28.1288 16.1809 22.3994 19.0679 18.1138C20.5138 15.9677 22.1586 14.1506 23.8361 12.8595C25.495 11.5827 27.2842 10.7461 29 10.7461C30.7158 10.7461 32.505 11.5827 34.1639 12.8595C35.3225 13.7512 36.4655 14.8938 37.5381 16.2225C37.5876 16.2726 37.6307 16.3267 37.6673 16.3839Z" fill="#171717"/>
<path d="M16.5964 40.8647C16.5964 39.3813 16.0374 37.7518 15.5411 36.3622C14.9401 34.6794 15.0487 32.6409 15.0487 30.8747C15.0487 28.4499 15.7319 26.3602 16.6277 24.1208C17.2993 22.4417 18.4897 21.0136 19.1604 19.3369C19.649 18.1153 20.5025 17.1795 21.2397 16.1319C22.2878 14.6424 24.7729 13.9397 26.4458 13.5679C27.3049 13.377 28.028 12.8669 28.9081 12.7315C29.6933 12.6107 30.4324 12.583 31.2376 12.583C33.1394 12.583 34.641 15.0318 35.5916 16.3899C36.4002 17.545 37.1165 18.7848 37.9836 19.8997C38.619 20.7167 39.3206 21.7686 39.7424 22.706C40.1726 23.6619 40.6732 24.567 41.0791 25.5591C41.6514 26.9582 42.0745 28.4434 42.3767 29.921C42.8222 32.0991 42.7676 34.2535 42.7676 36.4716C42.7676 40.5907 39.4118 44.0471 36.1544 46.1412C32.4126 48.5466 27.4843 48.4731 23.6629 46.1803C22.1472 45.2708 20.5414 44.2946 19.2385 43.0848C18.3946 42.3011 17.11 41.28 16.7371 40.1612" stroke="#171717" stroke-width="2" stroke-linecap="round"/>
<path d="M34.8891 17.5068C34.0145 18.4786 33.7418 19.8905 33.1224 21.0166C32.6299 21.9121 31.808 22.6534 30.9493 23.2054C30.5113 23.487 30.1363 23.9559 29.683 24.1825C29.3252 24.3614 29.1091 24.3932 28.9091 24.7532C28.564 25.3743 30.0474 25.5708 30.3865 25.6677C31.1594 25.8886 32.4659 25.9774 33.0599 26.512C33.979 27.3392 34.2255 27.5242 33.6227 28.7632C33.0529 29.9345 32.6378 31.5096 32.6378 32.8124C32.6378 33.1512 32.6378 33.4899 32.6378 33.8286C32.6378 34.0808 32.8872 34.6248 32.6378 34.2507" stroke="#171717" stroke-width="2" stroke-linecap="round"/>
</g>
<defs>
<filter id="filter0_dd_2974_21229" x="-3" y="0.746094" width="64" height="66" filterUnits="userSpaceOnUse" color-interpolation-filters="sRGB">
<feFlood flood-opacity="0" result="BackgroundImageFix"/>
<feColorMatrix in="SourceAlpha" type="matrix" values="0 0 0 0 0 0 0 0 0 0 0 0 0 0 0 0 0 0 127 0" result="hardAlpha"/>
<feOffset dy="2"/>
<feGaussianBlur stdDeviation="1"/>
<feComposite in2="hardAlpha" operator="out"/>
<feColorMatrix type="matrix" values="0 0 0 0 0 0 0 0 0 0 0 0 0 0 0 0 0 0 0.02 0"/>
<feBlend mode="normal" in2="BackgroundImageFix" result="effect1_dropShadow_2974_21229"/>
<feColorMatrix in="SourceAlpha" type="matrix" values="0 0 0 0 0 0 0 0 0 0 0 0 0 0 0 0 0 0 127 0" result="hardAlpha"/>
<feOffset dy="4"/>
<feGaussianBlur stdDeviation="4"/>
<feComposite in2="hardAlpha" operator="out"/>
<feColorMatrix type="matrix" values="0 0 0 0 0 0 0 0 0 0 0 0 0 0 0 0 0 0 0.06 0"/>
<feBlend mode="normal" in2="effect1_dropShadow_2974_21229" result="effect2_dropShadow_2974_21229"/>
<feBlend mode="normal" in="SourceGraphic" in2="effect2_dropShadow_2974_21229" result="shape"/>
</filter>
</defs>
</svg>
