<svg width="48" height="48" viewBox="0 0 48 48" fill="none" xmlns="http://www.w3.org/2000/svg">
<path fill-rule="evenodd" clip-rule="evenodd" d="M11 28.1562C11 22.8465 13.0191 17.4926 15.7321 13.4656C17.0862 11.4555 18.5914 9.80903 20.0639 8.67566C21.555 7.52799 22.9158 6.97917 24 6.97917C25.0842 6.97917 26.445 7.52799 27.9361 8.67566C28.792 9.3345 29.6591 10.1667 30.5011 11.143L23.5707 18.7845C23.3514 19.0262 23.266 19.3591 23.3422 19.6751C23.4184 19.9911 23.6465 20.25 23.9525 20.3677L28.2141 22.0078L27.1132 27.6214C27.008 28.1579 27.3622 28.6772 27.9044 28.7814C28.4466 28.8855 28.9714 28.535 29.0766 27.9984L30.3366 21.5736C30.4287 21.1038 30.168 20.6362 29.7174 20.4627L26.0248 19.0417L31.7518 12.727C31.926 12.9673 32.0982 13.2136 32.2679 13.4656C34.9809 17.4926 37 22.8465 37 28.1562C37 31.5681 35.6304 34.8403 33.1924 37.2529C30.7544 39.6655 27.4478 41.0208 24 41.0208C20.5522 41.0208 17.2456 39.6655 14.8076 37.2529C12.3696 34.8403 11 31.5681 11 28.1562ZM32.6673 10.6378C33.1022 11.1854 33.525 11.7636 33.9321 12.3677C36.8191 16.6533 39 22.3827 39 28.1562C39 32.0931 37.4196 35.8686 34.6066 38.6524C31.7936 41.4361 27.9782 43 24 43C20.0218 43 16.2064 41.4361 13.3934 38.6524C10.5804 35.8686 9 32.0931 9 28.1562C9 22.3827 11.1809 16.6533 14.0679 12.3677C15.5138 10.2216 17.1586 8.40451 18.8361 7.1134C20.495 5.83659 22.2842 5 24 5C25.7158 5 27.505 5.83659 29.1639 7.1134C30.3225 8.00512 31.4655 9.14775 32.5381 10.4764C32.5876 10.5265 32.6307 10.5806 32.6673 10.6378Z" fill="currentColor"/>
<path fill-rule="evenodd" clip-rule="evenodd" d="M24.1628 5.16323C24.358 4.97 24.6746 4.97 24.8699 5.16323C25.3951 5.683 25.6588 6.21634 25.9198 6.74404C25.9723 6.85024 26.0247 6.95622 26.0791 7.0618C26.1038 7.10974 26.132 7.16558 26.1625 7.22608C26.224 7.34783 26.2951 7.48846 26.3662 7.62151C26.4525 7.60838 26.5273 7.61177 26.5746 7.61541C26.6783 7.62339 26.7806 7.6459 26.8451 7.66024L26.8578 7.66308C26.9315 7.67948 26.9578 7.68532 26.9742 7.68719C27.6285 7.76191 28.1639 8.06234 28.6097 8.41814C29.0038 8.73276 29.3547 9.11382 29.6619 9.44749C29.6964 9.48495 29.7303 9.5218 29.7637 9.5579C30.1373 9.96197 30.4259 10.4496 30.6787 10.9427C30.8058 11.1907 30.9272 11.447 31.0463 11.7001C31.0576 11.7241 31.069 11.7482 31.0803 11.7722C31.1887 12.0027 31.2958 12.2303 31.408 12.456C31.907 13.4591 32.4633 14.3245 33.3993 14.8251L33.4274 14.8401L33.4534 14.8586C34.3992 15.5313 34.6934 16.5088 34.9338 17.4112C35.1046 18.0524 35.3626 18.4146 35.7959 19.023C35.8169 19.0526 35.8384 19.0828 35.8603 19.1136C36.3053 19.7394 36.595 20.4153 36.8458 21.0636C36.9051 21.2167 36.9618 21.3672 37.0176 21.5153C37.2038 22.0094 37.3803 22.4775 37.6086 22.9336L37.6087 22.9338C37.6092 22.9348 37.6119 22.9399 37.6177 22.9509L37.6419 22.9959C37.6618 23.0327 37.6883 23.0812 37.7193 23.1371C37.7815 23.2493 37.8604 23.3893 37.939 23.5239C37.9576 23.5557 37.976 23.5868 37.9938 23.6167C38.083 23.623 38.1861 23.6538 38.2782 23.7291C38.3793 23.8119 38.4227 23.912 38.4411 23.9764C38.4724 24.0859 38.4562 24.1767 38.4527 24.1968L38.4525 24.198C38.4466 24.2315 38.4384 24.2577 38.4339 24.2713C38.4097 24.3438 38.3673 24.4127 38.3508 24.4392C38.3241 24.4823 38.2888 24.5339 38.2479 24.5844C38.2388 24.5958 38.2292 24.6066 38.2193 24.6169C37.9952 25.0068 37.8685 25.4764 37.7951 26.0017C37.7301 26.4665 37.7104 26.9416 37.6905 27.4206C37.686 27.5272 37.6816 27.6339 37.6766 27.7408C37.6693 27.9001 37.6628 28.059 37.6563 28.2174C37.6051 29.4648 37.5548 30.692 37.0902 31.9985C36.7522 32.9489 36.1807 33.7686 35.5788 34.5161C35.3305 34.8244 35.0713 35.127 34.819 35.4217C34.7656 35.4841 34.7126 35.546 34.66 35.6076C34.3558 35.9639 34.0649 36.3104 33.8004 36.6619C33.7228 36.765 33.6452 36.8713 33.5664 36.9792C33.0849 37.6388 32.5574 38.3614 31.6953 38.8216C31.2101 39.0807 30.7205 39.3331 30.2277 39.5781C28.5432 40.4158 26.9214 41.1816 24.8388 41.0973C21.8968 40.9781 18.9157 40.0238 16.2105 39.1578C16.1307 39.1322 16.0511 39.1067 15.9717 39.0813C14.82 38.7129 13.795 38.1441 12.8143 37.5422C11.8601 36.9565 11.2573 36.1107 10.8995 35.0409C10.5627 34.0336 10.5994 33.1259 10.8968 32.1799C11.0864 31.5769 11.1762 30.8691 11.2493 30.1112C11.2634 29.9651 11.2769 29.8167 11.2905 29.667C11.3456 29.0604 11.4025 28.4344 11.5081 27.8685C11.6035 27.3574 11.5829 26.6566 11.5421 25.8515C11.5378 25.7658 11.5333 25.679 11.5287 25.5914C11.4917 24.8863 11.4521 24.1303 11.5011 23.469C11.6113 21.9856 12.085 20.6718 12.6517 19.4216C12.8849 18.9074 13.1372 18.3968 13.3873 17.8906C13.4403 17.7834 13.4931 17.6764 13.5457 17.5697C13.8485 16.9546 14.144 16.3411 14.4075 15.7071C14.8217 14.7108 15.3944 13.8151 15.9686 12.9627C16.0705 12.8113 16.1723 12.6617 16.2734 12.513C16.749 11.8135 17.2088 11.1373 17.5987 10.4178C18.3269 9.07399 18.9013 8.12513 20.4263 7.39306C20.72 7.25203 21.0163 7.07841 21.3283 6.88857C21.3983 6.84596 21.4695 6.80228 21.5417 6.75804C21.7841 6.60936 22.0367 6.45437 22.2895 6.31233C22.8147 6.01716 23.3975 5.7433 24.0347 5.64646C23.9878 5.48005 24.0305 5.2941 24.1628 5.16323ZM24.7 6.56459C24.6431 6.58682 24.5812 6.59904 24.5163 6.59904C23.9565 6.59904 23.4 6.82628 22.7833 7.17283C22.5489 7.30457 22.3187 7.44576 22.0796 7.59238C22.0048 7.63828 21.9291 7.6847 21.8521 7.73154C21.5359 7.92398 21.204 8.11956 20.8627 8.28341C19.6363 8.87215 19.1875 9.57982 18.48 10.8855C18.0642 11.6528 17.5707 12.3781 17.0942 13.0787C16.9953 13.224 16.8972 13.3683 16.8006 13.5116C16.2308 14.3575 15.7062 15.1842 15.3324 16.0835C15.056 16.7483 14.7488 17.3853 14.4447 18.0031C14.3907 18.1128 14.3368 18.2218 14.2832 18.3302C14.0334 18.8359 13.7898 19.3288 13.5641 19.8267C13.0177 21.0319 12.5963 22.2243 12.4985 23.5415C12.4543 24.1364 12.4902 24.8258 12.5275 25.5424C12.532 25.6286 12.5365 25.7152 12.5409 25.802C12.5803 26.5818 12.612 27.4027 12.4915 28.0483C12.3952 28.5643 12.3436 29.1304 12.2887 29.7321C12.2746 29.8875 12.2602 30.0453 12.2448 30.2052C12.1715 30.9645 12.075 31.7635 11.8517 32.4739C11.6086 33.2469 11.5853 33.9417 11.8489 34.73C12.1458 35.6178 12.6184 36.2575 13.3414 36.7013C14.3023 37.291 15.2449 37.8089 16.2793 38.1397C16.3408 38.1594 16.4023 38.1791 16.4639 38.1988C19.2099 39.0775 22.0769 39.995 24.8797 40.1085C26.6768 40.1813 28.0888 39.5343 29.7787 38.6939C30.2628 38.4532 30.7437 38.2052 31.2205 37.9507C31.8662 37.606 32.2481 37.0872 32.7362 36.4242C32.8199 36.3106 32.9066 36.1928 32.9983 36.0709C33.2826 35.6931 33.5907 35.3267 33.8961 34.969C33.9506 34.9051 34.005 34.8417 34.0591 34.7784C34.3111 34.484 34.5587 34.1949 34.7968 33.8993C35.3749 33.1814 35.8644 32.4643 36.1469 31.67C36.5588 30.5118 36.6039 29.4364 36.6568 28.1762C36.6634 28.019 36.6701 27.859 36.6777 27.6955C36.6822 27.5988 36.6863 27.4991 36.6905 27.3969C36.7103 26.9164 36.7323 26.383 36.8045 25.8662C36.8773 25.3449 37.0047 24.8071 37.2509 24.3128C37.1937 24.2226 37.1321 24.1198 37.0734 24.0194C36.9094 23.7388 36.7419 23.4315 36.7125 23.3729C36.459 22.8665 36.2585 22.3342 36.0693 21.8316C36.0163 21.6908 35.9641 21.5523 35.9119 21.4174C35.6674 20.7853 35.4132 20.2043 35.0425 19.6831C35.0146 19.6438 34.9869 19.605 34.9595 19.5666C34.5376 18.9755 34.1845 18.4807 33.9668 17.6635C33.7276 16.7654 33.5023 16.1245 32.8935 15.6793C31.687 15.0217 31.0226 13.9218 30.5108 12.893C30.3935 12.6572 30.2819 12.4199 30.1742 12.1909C30.1627 12.1665 30.1512 12.1421 30.1398 12.1179C30.0205 11.8644 29.9055 11.6218 29.7868 11.3904C29.5481 10.9246 29.3081 10.5311 29.026 10.226C28.9925 10.1898 28.9593 10.1538 28.9263 10.1181C28.6108 9.77585 28.3126 9.4524 27.9818 9.18839C27.6238 8.90264 27.2622 8.71623 26.8595 8.67025C26.8061 8.66415 26.7471 8.65251 26.6984 8.64195C26.6661 8.68606 26.6229 8.73073 26.5649 8.76908C26.3732 8.89603 26.1755 8.85849 26.0711 8.81587C25.9778 8.77777 25.914 8.72163 25.884 8.69343C25.7733 8.58923 25.6722 8.42151 25.6056 8.30671C25.4859 8.10023 25.3501 7.83131 25.2568 7.64641C25.2299 7.59326 25.2066 7.54705 25.1882 7.51126C25.1205 7.37998 25.0597 7.2578 25.0024 7.14285C24.896 6.92916 24.802 6.74044 24.7 6.56459Z" fill="currentColor"/>
<path fill-rule="evenodd" clip-rule="evenodd" d="M31.195 13.3178C31.4684 13.3564 31.6584 13.6071 31.6193 13.8776C31.5407 14.422 31.1786 14.8905 30.9484 15.1882C30.9414 15.1973 30.9344 15.2063 30.9276 15.2151C30.7763 15.4111 30.5903 15.6167 30.4225 15.802C30.3313 15.9029 30.2454 15.9977 30.1735 16.0818C29.8613 16.4469 29.5337 16.8277 29.1559 17.1799C28.9201 17.3997 28.6724 17.6146 28.4328 17.8224C28.3356 17.9067 28.2397 17.9899 28.1465 18.0717C27.8167 18.3614 27.5067 18.6463 27.2281 18.9542C27.1199 19.0737 27.0498 19.1924 26.9556 19.3517C26.911 19.4272 26.861 19.5117 26.7991 19.6098C26.6527 19.8415 26.3442 19.912 26.1101 19.7672C25.8759 19.6223 25.8047 19.3171 25.9511 19.0853C25.9789 19.0413 26.0099 18.9888 26.0442 18.9309C26.1562 18.7412 26.3027 18.4933 26.4831 18.294C26.8008 17.943 27.1451 17.6282 27.4827 17.3316C27.5862 17.2408 27.6879 17.1525 27.7883 17.0655C28.022 16.8627 28.2481 16.6666 28.4702 16.4596C28.8012 16.1511 29.0948 15.8114 29.4101 15.4426C29.5244 15.3089 29.6276 15.1957 29.7247 15.0891C29.8683 14.9314 29.9988 14.7882 30.133 14.6144C30.3986 14.2702 30.5919 13.9969 30.6294 13.7376C30.6684 13.4671 30.9217 13.2791 31.195 13.3178Z" fill="currentColor"/>
<path fill-rule="evenodd" clip-rule="evenodd" d="M23.3941 20.205C23.5311 19.9677 23.8365 19.8853 24.0763 20.0208C24.1941 20.0875 24.3112 20.1603 24.421 20.2328C24.4296 20.2384 24.438 20.244 24.4463 20.2495C24.6331 20.3727 24.758 20.4552 24.9086 20.5164C24.9621 20.5382 25.0259 20.5623 25.0958 20.5886C25.2742 20.6558 25.4921 20.7379 25.6791 20.835C25.9296 20.9652 26.1638 21.1142 26.3799 21.2557C26.425 21.2852 26.4691 21.3142 26.5124 21.3427C26.6826 21.4547 26.841 21.559 27.0042 21.6558C27.4068 21.8947 27.7745 22.0475 28.1901 22.0562C28.4662 22.062 28.6853 22.2882 28.6794 22.5614C28.6735 22.8346 28.4449 23.0514 28.1689 23.0456C27.5011 23.0315 26.9561 22.7811 26.49 22.5046C26.3046 22.3946 26.1214 22.274 25.9494 22.1607C25.9084 22.1337 25.868 22.1071 25.8284 22.0811C25.6163 21.9424 25.4174 21.8168 25.2143 21.7112C25.0806 21.6418 24.9594 21.5965 24.8116 21.5412C24.7281 21.5099 24.636 21.4755 24.5285 21.4318C24.2819 21.3315 24.0783 21.1966 23.9093 21.0846C23.8947 21.0749 23.8804 21.0654 23.8663 21.0561C23.7713 20.9935 23.674 20.9331 23.5801 20.88C23.3404 20.7445 23.2571 20.4422 23.3941 20.205Z" fill="currentColor"/>
</svg>
