<svg width="48" height="48" viewBox="0 0 48 48" fill="none" xmlns="http://www.w3.org/2000/svg">
<path fill-rule="evenodd" clip-rule="evenodd" d="M21.2 7C20.7191 7 20.2601 7.18905 19.9233 7.52209C19.587 7.85476 19.4 8.30359 19.4 8.76923V10.5385H28.6V8.76923C28.6 8.30359 28.4131 7.85476 28.0767 7.52209C27.74 7.18905 27.281 7 26.8 7H21.2ZM17.4 8.76923V10.5913C15.2776 10.8161 13.2831 11.7516 11.7571 13.2608C9.99307 15.0054 9 17.3741 9 19.8462V40.6154C9 41.2515 9.25557 41.8592 9.70686 42.3055C10.1578 42.7515 10.767 43 11.4 43H36.6C37.233 43 37.8422 42.7515 38.2931 42.3055C38.7444 41.8592 39 41.2515 39 40.6154V19.8462C39 17.3741 38.0069 15.0054 36.2429 13.2608C34.717 11.7516 32.7224 10.8161 30.6 10.5913V8.76923C30.6 7.76598 30.197 6.80608 29.4831 6.10009C28.7696 5.39446 27.8043 5 26.8 5H21.2C20.1957 5 19.2304 5.39446 18.5169 6.10009C17.8031 6.80608 17.4 7.76598 17.4 8.76923ZM13.1635 14.6828C14.5504 13.3111 16.4339 12.5385 18.4 12.5385H29.6C31.5661 12.5385 33.4496 13.3111 34.8365 14.6828C36.2231 16.0541 37 17.9117 37 19.8462V40.6154C37 40.7139 36.9606 40.8105 36.8868 40.8835C36.8126 40.9569 36.7096 41 36.6 41H33.4V32.3077V29.5385C33.4 28.5352 32.9969 27.5753 32.2831 26.8693C31.5696 26.1637 30.6043 25.7692 29.6 25.7692H18.4C17.3957 25.7692 16.4304 26.1637 15.7169 26.8693C15.003 27.5753 14.6 28.5352 14.6 29.5385V32.3077V41H11.4C11.2904 41 11.1874 40.9569 11.1132 40.8835C11.0394 40.8105 11 40.7139 11 40.6154V19.8462C11 17.9117 11.7769 16.0541 13.1635 14.6828ZM31.4 29.5385V31.3077H26.8H16.6V29.5385C16.6 29.0728 16.7869 28.624 17.1233 28.2913C17.46 27.9583 17.919 27.7692 18.4 27.7692H29.6C30.0809 27.7692 30.5399 27.9583 30.8767 28.2913C31.213 28.624 31.4 29.0728 31.4 29.5385ZM25.8 33.3077V35.077C25.8 35.6293 26.2477 36.077 26.8 36.077C27.3523 36.077 27.8 35.6293 27.8 35.077V33.3077H31.4V41H16.6V33.3077H25.8ZM21.2 17.4615C20.6477 17.4615 20.2 17.9093 20.2 18.4615C20.2 19.0138 20.6477 19.4615 21.2 19.4615H26.8C27.3522 19.4615 27.8 19.0138 27.8 18.4615C27.8 17.9093 27.3522 17.4615 26.8 17.4615H21.2Z" fill="currentColor"/>
<path fill-rule="evenodd" clip-rule="evenodd" d="M22.4647 6.05774C23.5895 5.99291 24.7897 6.09842 25.881 6.3167C26.6818 6.47686 27.2481 6.82384 27.6579 7.33857C28.0507 7.83202 28.2711 8.44643 28.4558 9.07754C28.6185 9.63345 28.7068 10.1168 28.7068 10.7185C28.7068 10.9946 28.4829 11.2185 28.2068 11.2185C27.9307 11.2185 27.7068 10.9946 27.7068 10.7185C27.7068 10.2322 27.6385 9.84493 27.4961 9.35844C27.3161 8.74336 27.1387 8.292 26.8755 7.96136C26.6292 7.652 26.2814 7.41658 25.6849 7.29728C24.6649 7.09327 23.5506 6.99681 22.5223 7.05608C21.8019 7.0976 21.1293 7.24793 20.748 7.65303C20.5517 7.86154 20.4636 8.11088 20.4378 8.42053C20.4117 8.73293 20.4509 9.06762 20.4959 9.45247C20.498 9.47032 20.5001 9.48827 20.5022 9.50634C20.5321 9.76275 20.5397 10.0165 20.5446 10.2493C20.5453 10.282 20.546 10.3143 20.5466 10.3461C20.5506 10.5472 20.5543 10.7305 20.5682 10.9109C20.5894 11.1863 20.3834 11.4266 20.108 11.4478C19.8327 11.469 19.5923 11.263 19.5712 10.9876C19.5549 10.7765 19.5507 10.5618 19.5467 10.3627C19.5461 10.3316 19.5455 10.3009 19.5448 10.2706C19.5399 10.0395 19.5328 9.8273 19.5089 9.62216C19.5058 9.59582 19.5027 9.56904 19.4995 9.54186C19.4571 9.18302 19.4065 8.75399 19.4412 8.33746C19.48 7.87214 19.6266 7.38538 20.0198 6.96767C20.6893 6.25631 21.7237 6.10045 22.4647 6.05774Z" fill="currentColor"/>
<path fill-rule="evenodd" clip-rule="evenodd" d="M11.1183 27.8927C11.3862 27.8258 11.6576 27.9886 11.7246 28.2565C11.8874 28.9079 11.8701 29.5157 11.8087 30.0856C11.7836 30.3186 11.7501 30.5527 11.7178 30.7789C11.711 30.8265 11.7042 30.8737 11.6976 30.9205C11.6589 31.1944 11.6238 31.4604 11.6035 31.7305C11.5702 32.1726 11.5548 32.618 11.5403 33.0742C11.5393 33.1046 11.5384 33.1349 11.5374 33.1653C11.524 33.5895 11.5103 34.0233 11.482 34.4571C11.4276 35.2909 11.3815 36.0931 11.4121 36.8999C11.4336 37.4651 11.4874 38.018 11.5427 38.5872C11.5701 38.8692 11.5979 39.1552 11.6224 39.4487C11.6279 39.5145 11.6314 39.5969 11.6347 39.6732C11.636 39.702 11.6372 39.7299 11.6385 39.7558C11.6436 39.8614 11.6505 39.9625 11.6636 40.056C11.6769 40.1513 11.6944 40.2213 11.7131 40.2684C11.7193 40.2839 11.7244 40.2939 11.7278 40.2999C11.7418 40.3068 11.776 40.321 11.8415 40.334C11.9291 40.3514 12.0403 40.3603 12.1716 40.3621C12.3014 40.3638 12.4358 40.3584 12.5701 40.3522C12.5852 40.3515 12.6004 40.3508 12.6159 40.35C12.7292 40.3447 12.8508 40.3389 12.9508 40.34C13.3376 40.3443 13.7237 40.3439 14.1133 40.3435C14.2322 40.3433 14.3515 40.3432 14.4713 40.3432C14.7474 40.3432 14.9713 40.567 14.9713 40.8432C14.9713 41.1193 14.7474 41.3432 14.4713 41.3432C14.3541 41.3432 14.2365 41.3433 14.1186 41.3435C13.7277 41.3439 13.3332 41.3444 12.9396 41.34C12.8711 41.3392 12.782 41.3434 12.6613 41.349C12.6469 41.3497 12.6319 41.3504 12.6165 41.3511C12.4814 41.3574 12.3208 41.3641 12.1583 41.362C11.9971 41.3598 11.8185 41.3489 11.6471 41.3149C11.4806 41.2819 11.2822 41.22 11.1118 41.0894C10.7893 40.8424 10.7063 40.4314 10.6732 40.1943C10.6538 40.0555 10.6452 39.9186 10.6396 39.8045C10.6376 39.7621 10.636 39.7249 10.6345 39.6917C10.6317 39.6268 10.6296 39.5769 10.6258 39.5317C10.6038 39.2678 10.5776 38.997 10.5509 38.7223C10.4941 38.1361 10.4355 37.532 10.4129 36.9379C10.38 36.0735 10.4298 35.2244 10.4841 34.392C10.5112 33.9757 10.5245 33.5577 10.538 33.13C10.5389 33.1009 10.5399 33.0717 10.5408 33.0425C10.5553 32.5874 10.5711 32.1218 10.6063 31.6554C10.6292 31.3509 10.6682 31.0577 10.7074 30.7805C10.7145 30.7302 10.7216 30.6807 10.7286 30.6317C10.7609 30.4061 10.7914 30.1926 10.8144 29.9785C10.87 29.4632 10.8767 28.988 10.7545 28.4991C10.6875 28.2312 10.8504 27.9597 11.1183 27.8927Z" fill="currentColor"/>
<path fill-rule="evenodd" clip-rule="evenodd" d="M16.2803 13.9641C15.8782 14.0156 15.5367 14.1318 15.2397 14.3793C14.938 14.6307 14.5978 14.875 14.2671 15.1124C14.2391 15.1325 14.2113 15.1525 14.1836 15.1724C13.8202 15.4335 13.4672 15.6907 13.1468 15.9663C12.5023 16.5206 12.0557 17.0951 11.9516 17.8002C11.8696 18.3561 11.9233 18.949 12.0224 19.5895C12.0519 19.7798 12.0863 19.9789 12.1215 20.1822C12.1995 20.6337 12.2813 21.1065 12.3206 21.5531C12.3965 22.4162 12.2612 23.2367 12.1346 24.005C12.098 24.227 12.0622 24.4446 12.0323 24.6576C11.8603 25.8852 11.7422 27.1545 11.7422 28.3778C11.7422 28.654 11.5183 28.8778 11.2422 28.8778C10.966 28.8778 10.7422 28.654 10.7422 28.3778C10.7422 27.0934 10.8659 25.7752 11.042 24.5188C11.0791 24.2538 11.1201 24.0035 11.1596 23.7624C11.2811 23.0206 11.3882 22.3663 11.3244 21.6407C11.2888 21.2357 11.2192 20.8342 11.145 20.4064C11.108 20.1929 11.0698 19.9727 11.0342 19.7423C10.9314 19.078 10.8576 18.3635 10.9624 17.6541C11.1188 16.5946 11.7832 15.8201 12.4947 15.2081C12.8523 14.9005 13.2385 14.6202 13.6 14.3604C13.6258 14.3418 13.6516 14.3233 13.6771 14.3049C14.0155 14.0619 14.3269 13.8383 14.5995 13.6111C15.0863 13.2054 15.6277 13.0395 16.1532 12.9722C16.5555 12.9206 16.9798 12.925 17.3624 12.9289C17.4607 12.9299 17.5563 12.9309 17.648 12.9309C17.9242 12.9309 18.148 13.1548 18.148 13.4309C18.148 13.7071 17.9242 13.9309 17.648 13.9309C17.5326 13.9309 17.4214 13.9299 17.3134 13.9288C16.9407 13.9253 16.6074 13.9222 16.2803 13.9641Z" fill="currentColor"/>
<path fill-rule="evenodd" clip-rule="evenodd" d="M25.0218 12.5842C24.1145 12.5714 23.2395 12.8123 22.3271 13.1441L22.3051 13.1521C21.432 13.4696 20.5277 13.7985 19.5098 13.8873C18.9705 13.9343 18.4269 13.9328 17.9109 13.9313C17.8225 13.9311 17.735 13.9308 17.6484 13.9308C17.3723 13.9308 17.1484 13.707 17.1484 13.4308C17.1484 13.1547 17.3723 12.9308 17.6484 12.9308C17.7403 12.9308 17.8313 12.9311 17.9215 12.9313C18.4392 12.9326 18.9322 12.9339 19.4228 12.8911C20.2978 12.8147 21.0878 12.5307 21.9854 12.2043C22.9341 11.8593 23.9457 11.5689 25.036 11.5843C25.8741 11.5962 26.7213 11.7055 27.5295 11.8099C27.7601 11.8396 27.9876 11.869 28.2108 11.8956C28.485 11.9282 28.6808 12.177 28.6482 12.4512C28.6155 12.7254 28.3668 12.9212 28.0926 12.8886C27.8472 12.8593 27.6052 12.8282 27.3656 12.7973C26.5676 12.6945 25.7971 12.5952 25.0218 12.5842Z" fill="currentColor"/>
<path fill-rule="evenodd" clip-rule="evenodd" d="M28.5027 12.8323C28.2909 12.8333 28.0778 12.8343 27.8633 12.8343C27.5871 12.8343 27.3633 12.6104 27.3633 12.3343C27.3633 12.0581 27.5871 11.8343 27.8633 11.8343C28.0672 11.8343 28.273 11.8332 28.4805 11.8322C29.5248 11.827 30.6092 11.8215 31.679 11.9467C31.7382 11.9536 31.7993 11.9606 31.8619 11.9677C32.3859 12.0273 33.0154 12.0989 33.5934 12.2767C34.2507 12.4788 34.912 12.8378 35.3223 13.5368C36.1565 14.9581 36.7856 16.5674 36.9873 18.2377C37.0478 18.7387 37.0744 19.264 37.0999 19.7676C37.114 20.0462 37.1277 20.3182 37.1467 20.5757C37.1935 21.2101 37.3116 21.8102 37.4403 22.4642C37.4509 22.5177 37.4615 22.5716 37.4721 22.6259C37.5253 22.8969 37.3487 23.1596 37.0777 23.2128C36.8067 23.2659 36.544 23.0893 36.4908 22.8183C36.4797 22.7617 36.4685 22.7049 36.4573 22.6481C36.3305 22.0047 36.2008 21.3468 36.1494 20.6492C36.1266 20.3403 36.1121 20.0467 36.0978 19.76C36.0743 19.2858 36.0517 18.8308 35.9946 18.3576C35.8129 16.8533 35.2415 15.3746 34.4599 14.043C34.2243 13.6416 33.8274 13.3948 33.2995 13.2325C32.8162 13.0839 32.2826 13.0226 31.7459 12.9611C31.6849 12.954 31.6238 12.947 31.5627 12.9399C30.559 12.8225 29.5464 12.8273 28.5027 12.8323Z" fill="currentColor"/>
<path fill-rule="evenodd" clip-rule="evenodd" d="M36.98 22.3953C37.2561 22.3953 37.48 22.6191 37.48 22.8953V26.3771C37.48 27.0932 37.5091 27.8082 37.5388 28.535C37.5458 28.7064 37.5528 28.8785 37.5595 29.0515C37.5942 29.9514 37.619 30.8672 37.5756 31.787C37.5505 32.3181 37.5088 32.8471 37.4678 33.367C37.4656 33.3953 37.4633 33.4237 37.4611 33.4519C37.4178 34.0021 37.3763 34.5425 37.3545 35.0826C37.3323 35.6352 37.3368 36.1902 37.3445 36.7567C37.3454 36.8232 37.3464 36.8898 37.3473 36.9567C37.3544 37.4557 37.3617 37.9646 37.3516 38.474C37.3435 38.8855 37.3061 39.2922 37.2705 39.6781C37.2681 39.7045 37.2657 39.7307 37.2633 39.7569C37.2252 40.1728 37.1914 40.5663 37.1914 40.9585C37.1914 41.2347 36.9675 41.4585 36.6914 41.4585C36.4153 41.4585 36.1914 41.2347 36.1914 40.9585C36.1914 40.5147 36.2296 40.0789 36.2675 39.6656C36.2696 39.6421 36.2718 39.6186 36.2739 39.5953C36.3102 39.2013 36.3444 38.8284 36.3518 38.4543C36.3615 37.9631 36.3545 37.4722 36.3474 36.9713C36.3465 36.9045 36.3455 36.8375 36.3446 36.7703C36.3369 36.2032 36.3319 35.6245 36.3553 35.0424C36.3779 34.4806 36.421 33.9221 36.4642 33.3735C36.4663 33.3466 36.4684 33.3198 36.4705 33.293C36.5118 32.7692 36.5524 32.2546 36.5767 31.7398C36.618 30.8655 36.5948 29.9859 36.5602 29.09C36.5537 28.9221 36.5468 28.7535 36.5399 28.5842C36.5102 27.8559 36.48 27.1157 36.48 26.3771V22.8953C36.48 22.6191 36.7038 22.3953 36.98 22.3953Z" fill="currentColor"/>
<path fill-rule="evenodd" clip-rule="evenodd" d="M31.5129 40.1137C31.8118 40.1344 32.1074 40.1548 32.3983 40.1709C32.9604 40.2021 33.5217 40.2525 34.0724 40.3019C34.2405 40.317 34.4075 40.332 34.5734 40.3463C35.2887 40.4082 35.9898 40.4587 36.6925 40.4587C36.9687 40.4587 37.1925 40.6826 37.1925 40.9587C37.1925 41.2348 36.9687 41.4587 36.6925 41.4587C35.9449 41.4587 35.2086 41.405 34.4872 41.3426C34.314 41.3276 34.1422 41.3122 33.9713 41.2969C33.4242 41.2478 32.8864 41.1995 32.343 41.1694C32.0214 41.1516 31.707 41.1298 31.3972 41.1084C30.5333 41.0487 29.7051 40.9915 28.8562 41.0286C28.7134 41.0349 28.5701 41.0414 28.4263 41.048C27.7277 41.0799 27.0171 41.1124 26.3047 41.1124C26.0285 41.1124 25.8047 40.8886 25.8047 40.6124C25.8047 40.3363 26.0285 40.1124 26.3047 40.1124C26.9921 40.1124 27.6756 40.0812 28.3737 40.0493C28.5192 40.0427 28.6654 40.036 28.8125 40.0296C29.7228 39.9897 30.6326 40.0527 31.5129 40.1137Z" fill="currentColor"/>
<path fill-rule="evenodd" clip-rule="evenodd" d="M20.5001 40.0368C20.9284 40.0458 21.3511 40.0546 21.7653 40.0546H26.2474C26.5236 40.0546 26.7474 40.2785 26.7474 40.5546C26.7474 40.8308 26.5236 41.0546 26.2474 41.0546H21.7653C21.3039 41.0546 20.8512 41.0453 20.405 41.0361C19.0526 41.0083 17.7602 40.9817 16.4696 41.2195C16.198 41.2695 15.9373 41.0899 15.8873 40.8183C15.8372 40.5468 16.0168 40.2861 16.2884 40.236C17.6888 39.9781 19.1237 40.0081 20.5001 40.0368Z" fill="currentColor"/>
<path fill-rule="evenodd" clip-rule="evenodd" d="M19.2591 34.0527C18.8273 34.0399 18.3548 34.026 18.0019 34.0423C17.9716 34.0437 17.9426 34.0449 17.9147 34.0461C17.7931 34.0511 17.6916 34.0553 17.5902 34.072C17.4822 34.0899 17.4284 34.1151 17.4033 34.1329C17.3994 34.1414 17.3797 34.1814 17.3651 34.2863C17.3558 34.3527 17.3509 34.4263 17.3474 34.5087C17.3465 34.5298 17.3456 34.5538 17.3447 34.5792C17.3425 34.639 17.34 34.7061 17.3362 34.7606C17.311 35.1231 17.3408 35.4804 17.3854 35.8681C17.3938 35.9413 17.4028 36.0163 17.4121 36.0927C17.4503 36.4094 17.4916 36.7522 17.5039 37.1001C17.5152 37.4238 17.4762 37.722 17.4306 37.9919C17.4134 38.0934 17.3963 38.1864 17.3799 38.2754C17.3499 38.4378 17.3224 38.5872 17.3014 38.7521C17.2552 39.113 17.2632 39.4683 17.2721 39.8604C17.2758 40.0264 17.2797 40.199 17.2797 40.3815C17.2797 40.6576 17.0559 40.8815 16.7797 40.8815C16.5036 40.8815 16.2797 40.6576 16.2797 40.3815C16.2797 40.2491 16.2765 40.1064 16.2732 39.9572C16.2637 39.5375 16.2531 39.0658 16.3094 38.6253C16.3338 38.4346 16.3701 38.2367 16.403 38.0575C16.418 37.9753 16.4324 37.897 16.4446 37.8251C16.4861 37.5797 16.5123 37.359 16.5045 37.1352C16.4939 36.8339 16.459 36.5442 16.4215 36.2318C16.4117 36.1504 16.4017 36.0674 16.3919 35.9823C16.346 35.5823 16.3067 35.1496 16.3387 34.6911C16.34 34.6724 16.3412 34.6407 16.3427 34.6006C16.3471 34.4834 16.3542 34.2946 16.3747 34.1481C16.4032 33.9436 16.4758 33.6117 16.7416 33.3823C16.9621 33.1921 17.224 33.1191 17.4268 33.0855C17.5956 33.0575 17.7715 33.0507 17.8936 33.0459C17.9163 33.045 17.9371 33.0442 17.9557 33.0434C18.3498 33.0251 18.8892 33.0411 19.3318 33.0542C19.4872 33.0588 19.6306 33.0631 19.7517 33.0654C20.3476 33.0767 20.9152 33.0722 21.49 33.0677C21.968 33.0639 22.4511 33.0601 22.9598 33.0653C22.9773 33.0655 22.995 33.0657 23.0126 33.0658C23.6188 33.0718 24.3226 33.0788 24.9933 33.2705C25.1708 33.3212 25.4253 33.3998 25.6352 33.5557C25.8774 33.7355 26.0517 34.0113 26.0517 34.386C26.0517 34.9442 26.0588 35.474 26.1073 36.008C26.1323 36.283 25.9297 36.5262 25.6547 36.5512C25.3796 36.5762 25.1364 36.3735 25.1114 36.0985C25.0586 35.5168 25.0517 34.9491 25.0517 34.386C25.0517 34.3776 25.0512 34.3717 25.0507 34.3681C25.0483 34.3659 25.0447 34.3627 25.0391 34.3586C25.0196 34.3441 24.9851 34.3241 24.9273 34.3007C24.8698 34.2775 24.8016 34.2557 24.7186 34.232C24.1813 34.0785 23.5965 34.0718 22.9496 34.0653C22.4943 34.0606 22.0147 34.0641 21.5297 34.0675C20.9266 34.0718 20.3153 34.0762 19.7327 34.0652C19.5871 34.0624 19.4262 34.0577 19.2591 34.0527Z" fill="currentColor"/>
<path fill-rule="evenodd" clip-rule="evenodd" d="M30.9127 34.3026C30.8895 34.3026 30.865 34.3026 30.8391 34.3026H27.6875C27.4114 34.3026 27.1875 34.0788 27.1875 33.8026C27.1875 33.5265 27.4114 33.3026 27.6875 33.3026H30.8391C30.8614 33.3026 30.8857 33.3024 30.9116 33.3021C31.1039 33.3002 31.3885 33.2973 31.6545 33.386C31.9165 33.4733 32.058 33.7565 31.9707 34.0185C31.8834 34.2804 31.6002 34.422 31.3383 34.3347C31.2405 34.3021 31.1343 34.3022 30.9127 34.3026Z" fill="currentColor"/>
<path fill-rule="evenodd" clip-rule="evenodd" d="M30.9223 33.5911C31.1984 33.5911 31.4223 33.8149 31.4223 34.0911C31.4223 34.5783 31.3678 35.0422 31.3106 35.4794C31.3022 35.5436 31.2938 35.607 31.2854 35.6698C31.2358 36.0432 31.189 36.3958 31.1682 36.7583C31.1461 37.1426 31.1283 37.5403 31.1103 37.9417C31.0863 38.4786 31.0619 39.0221 31.0268 39.5491C30.9923 40.0671 30.9677 40.4902 31.0632 40.9039C31.1253 41.1729 30.9575 41.4414 30.6884 41.5035C30.4194 41.5656 30.1509 41.3978 30.0888 41.1287C29.9572 40.5583 29.9946 39.9977 30.0272 39.5095C30.0278 39.5005 30.0284 39.4915 30.029 39.4826C30.0643 38.9535 30.0871 38.4407 30.1102 37.9217C30.1279 37.5219 30.1459 37.1185 30.1698 36.7011C30.1929 36.2979 30.2454 35.9041 30.2949 35.5323C30.3031 35.4708 30.3112 35.4099 30.3191 35.3497C30.3757 34.917 30.4223 34.5084 30.4223 34.0911C30.4223 33.8149 30.6461 33.5911 30.9223 33.5911Z" fill="currentColor"/>
<path fill-rule="evenodd" clip-rule="evenodd" d="M19.7685 28.0919C18.8667 28.0602 18.1794 28.1679 17.859 28.7381C17.6845 29.0485 17.5907 29.4644 17.5468 29.947C17.5098 30.3554 17.511 30.7708 17.5123 31.1689C17.5125 31.2394 17.5127 31.3093 17.5127 31.3786C17.5127 31.6547 17.2888 31.8786 17.0127 31.8786C16.7366 31.8786 16.5127 31.6547 16.5127 31.3786C16.5127 31.3152 16.5125 31.2492 16.5122 31.181C16.5109 30.7848 16.5092 30.3159 16.5509 29.8566C16.5997 29.32 16.711 28.7395 16.9872 28.2481C17.6323 27.1002 18.9518 27.0626 19.8035 27.0925C21.2803 27.1443 22.7184 27.4083 24.1208 27.6657C24.1947 27.6793 24.2685 27.6928 24.3422 27.7063C25.0824 27.8419 25.8163 27.8321 26.6019 27.8217C26.7717 27.8194 26.9438 27.8171 27.119 27.8163C28.0806 27.8116 29.1062 27.8529 30.1305 28.2591C31.1182 28.6508 31.5635 29.4366 31.7758 30.2521C31.9266 30.8316 31.9723 31.49 32.0119 32.062C32.0252 32.2535 32.0378 32.4353 32.0534 32.6013C32.0794 32.8762 31.8775 33.1201 31.6026 33.146C31.3277 33.1719 31.0838 32.9701 31.0579 32.6952C31.037 32.4744 31.022 32.2577 31.0072 32.0454C30.9693 31.5014 30.9335 30.9859 30.808 30.504C30.6445 29.8757 30.3534 29.4233 29.7619 29.1887C28.9264 28.8574 28.0646 28.8116 27.1239 28.8163C26.9678 28.817 26.8085 28.8193 26.6466 28.8216C25.858 28.8327 25.0075 28.8448 24.162 28.6899C24.0952 28.6777 24.0284 28.6655 23.9618 28.6532C22.5415 28.3927 21.1697 28.141 19.7685 28.0919Z" fill="currentColor"/>
<path fill-rule="evenodd" clip-rule="evenodd" d="M21.9376 20.2558C21.5291 20.2673 21.115 20.279 20.707 20.279C20.4309 20.279 20.207 20.0551 20.207 19.779C20.207 19.5028 20.4309 19.279 20.707 19.279C21.0999 19.279 21.4992 19.2678 21.9095 19.2562C21.9623 19.2548 22.0153 19.2533 22.0685 19.2518C22.5316 19.239 23.007 19.2277 23.4825 19.2349C24.4322 19.2494 25.4089 19.338 26.3476 19.6509C26.6096 19.7382 26.7512 20.0214 26.6638 20.2833C26.5765 20.5453 26.2934 20.6869 26.0314 20.5996C25.2324 20.3332 24.3722 20.2486 23.4672 20.2348C23.0153 20.2279 22.559 20.2386 22.0961 20.2514C22.0434 20.2529 21.9905 20.2544 21.9376 20.2558Z" fill="currentColor"/>
</svg>
