<svg width="58" height="67" viewBox="0 0 58 67" fill="none" xmlns="http://www.w3.org/2000/svg">
<g filter="url(#filter0_dd_2974_21185)">
<mask id="path-1-outside-1_2974_21185" maskUnits="userSpaceOnUse" x="8" y="4.74609" width="42" height="50" fill="black">
<rect fill="white" x="8" y="4.74609" width="42" height="50"/>
<path fill-rule="evenodd" clip-rule="evenodd" d="M26 10.7461C23.7909 10.7461 22 12.537 22 14.7461V16.801C17.5001 17.2985 14 21.1135 14 25.7461V46.7461C14 47.8507 14.8954 48.7461 16 48.7461H42C43.1046 48.7461 44 47.8507 44 46.7461V25.7461C44 21.1135 40.5 17.2985 36 16.801V14.7461C36 12.537 34.2091 10.7461 32 10.7461H26Z"/>
</mask>
<path fill-rule="evenodd" clip-rule="evenodd" d="M26 10.7461C23.7909 10.7461 22 12.537 22 14.7461V16.801C17.5001 17.2985 14 21.1135 14 25.7461V46.7461C14 47.8507 14.8954 48.7461 16 48.7461H42C43.1046 48.7461 44 47.8507 44 46.7461V25.7461C44 21.1135 40.5 17.2985 36 16.801V14.7461C36 12.537 34.2091 10.7461 32 10.7461H26Z" fill="white"/>
<path d="M22 16.801L22.6593 22.7647L28 22.1743V16.801H22ZM36 16.801H30V22.1743L35.3407 22.7647L36 16.801ZM28 14.7461C28 15.8507 27.1046 16.7461 26 16.7461V4.74609C20.4772 4.74609 16 9.22325 16 14.7461H28ZM28 16.801V14.7461H16V16.801H28ZM21.3407 10.8374C13.8345 11.6671 8 18.0211 8 25.7461H20C20 24.2059 21.1656 22.9298 22.6593 22.7647L21.3407 10.8374ZM8 25.7461V46.7461H20V25.7461H8ZM8 46.7461C8 51.1644 11.5817 54.7461 16 54.7461V42.7461C18.2091 42.7461 20 44.537 20 46.7461H8ZM16 54.7461H42V42.7461H16V54.7461ZM42 54.7461C46.4183 54.7461 50 51.1644 50 46.7461H38C38 44.537 39.7909 42.7461 42 42.7461V54.7461ZM50 46.7461V25.7461H38V46.7461H50ZM50 25.7461C50 18.0211 44.1655 11.6671 36.6593 10.8374L35.3407 22.7647C36.8344 22.9298 38 24.2059 38 25.7461H50ZM30 14.7461V16.801H42V14.7461H30ZM32 16.7461C30.8954 16.7461 30 15.8507 30 14.7461H42C42 9.22325 37.5228 4.74609 32 4.74609V16.7461ZM26 16.7461H32V4.74609H26V16.7461Z" fill="white" mask="url(#path-1-outside-1_2974_21185)"/>
<path d="M15 25.7461C15 21.3278 18.5817 17.7461 23 17.7461H35C39.4183 17.7461 43 21.3278 43 25.7461V46.7461C43 47.2984 42.5523 47.7461 42 47.7461H16C15.4477 47.7461 15 47.2984 15 46.7461V25.7461Z" stroke="#171717" stroke-width="2"/>
<path d="M23 14.7461C23 13.0892 24.3431 11.7461 26 11.7461H32C33.6569 11.7461 35 13.0892 35 14.7461V17.7461H23V14.7461Z" stroke="#171717" stroke-width="2"/>
<path d="M21 35.7461C21 34.0892 22.3431 32.7461 24 32.7461H34C35.6569 32.7461 37 34.0892 37 35.7461V47.7461H21V35.7461Z" stroke="#171717" stroke-width="2"/>
<path d="M26 23.7461H32" stroke="#171717" stroke-width="2" stroke-linecap="round"/>
<path d="M21 38.7461L37 38.7461" stroke="#171717" stroke-width="2" stroke-linecap="round"/>
<line x1="32" y1="39.7461" x2="32" y2="41.7461" stroke="#171717" stroke-width="2" stroke-linecap="round"/>
<path d="M14.9963 47.8677C14.9963 45.4724 14.9963 43.0771 14.9963 40.6818C14.9963 40.1054 14.8691 39.5479 14.8691 38.9648C14.8691 38.2164 14.9507 37.4165 14.8409 36.6754C14.6302 35.2532 14.713 33.8062 14.4593 32.3794C14.2028 30.9365 14.3604 29.3656 14.3604 27.8996C14.3604 26.4064 15.0207 25.0833 15.2507 23.646C15.4808 22.2079 16.6799 20.0318 18.176 19.6043C19.1891 19.3149 20.1465 18.8316 21.1719 18.5444C22.5828 18.1494 24.0358 17.829 25.4821 17.5976C27.1005 17.3387 28.6101 17.2161 30.2586 17.2161C31.4561 17.2161 32.9639 17.1928 34.1024 17.5976C35.8359 18.214 38.2122 18.0614 39.5996 19.4489C40.9608 20.81 41.7462 22.3309 42.532 24.077C43.6249 26.5059 43.3587 29.1915 43.3587 31.8141C43.3587 34.8925 43.3587 37.9708 43.3587 41.0492C43.3587 42.1871 43.3837 43.4328 43.2032 44.5609C43.0676 45.4088 43.1697 46.0722 42.3412 46.4404C41.1596 46.9656 39.9391 47.2318 38.5963 47.2318C35.8744 47.2318 33.092 47.7406 30.3434 47.7406C28.0119 47.7406 25.7993 48.0477 23.5036 48.2564C21.9547 48.3972 20.4696 48.5037 18.9108 48.5037C17.563 48.5037 16.3152 47.7406 14.9963 47.7406" stroke="#171717" stroke-width="2" stroke-linecap="round"/>
<path d="M21.1028 48.1228C21.1028 45.4275 21.3113 42.6077 21.0957 39.9123C20.9547 38.1504 20.2636 36.443 20.8766 34.7401C21.3527 33.4176 23.9894 32.6062 25.2928 32.6062C26.3647 32.6062 27.4038 32.2246 28.4795 32.2246C29.9398 32.2246 31.4001 32.2246 32.8603 32.2246C34.2221 32.2246 35.6705 32.7013 36.7748 33.4965C37.8781 34.2908 37.5221 36.6357 37.6298 37.8208C37.7986 39.6782 37.764 41.5456 37.764 43.4169C37.764 43.7775 37.8209 46.7522 37.5097 46.5966" stroke="#171717" stroke-width="2" stroke-linecap="round"/>
<path d="M21.1016 38.8376C23.2849 38.8376 23.8167 39.2462 26 39.2462C27.323 39.2462 30.2455 39.2415 31.5 38.8382C34 38.6267 35.3251 37.8554 37.1269 38.456" stroke="#171717" stroke-width="2" stroke-linecap="round"/>
<path d="M31.8947 38.8379C31.8947 39.5559 31.4986 40.2461 31.895 41.7461" stroke="#171717" stroke-width="2" stroke-linecap="round"/>
<path d="M24.791 24.2119H32.4221" stroke="#171717" stroke-width="2" stroke-linecap="round"/>
<path d="M21.9922 17.3439C21.9922 16.7917 21.7495 15.4897 22.1194 15.0546C22.5891 14.502 22.9724 13.7855 23.3277 13.1539C24.3 11.4253 27.1725 11.8749 28.7967 11.8749C30.4916 11.8749 32.9911 11.6247 34.3292 12.8924C35.3268 13.8375 35.2195 15.0436 35.2195 16.3264" stroke="#171717" stroke-width="2" stroke-linecap="round"/>
</g>
<defs>
<filter id="filter0_dd_2974_21185" x="-3" y="0.746094" width="64" height="66" filterUnits="userSpaceOnUse" color-interpolation-filters="sRGB">
<feFlood flood-opacity="0" result="BackgroundImageFix"/>
<feColorMatrix in="SourceAlpha" type="matrix" values="0 0 0 0 0 0 0 0 0 0 0 0 0 0 0 0 0 0 127 0" result="hardAlpha"/>
<feOffset dy="2"/>
<feGaussianBlur stdDeviation="1"/>
<feComposite in2="hardAlpha" operator="out"/>
<feColorMatrix type="matrix" values="0 0 0 0 0 0 0 0 0 0 0 0 0 0 0 0 0 0 0.02 0"/>
<feBlend mode="normal" in2="BackgroundImageFix" result="effect1_dropShadow_2974_21185"/>
<feColorMatrix in="SourceAlpha" type="matrix" values="0 0 0 0 0 0 0 0 0 0 0 0 0 0 0 0 0 0 127 0" result="hardAlpha"/>
<feOffset dy="4"/>
<feGaussianBlur stdDeviation="4"/>
<feComposite in2="hardAlpha" operator="out"/>
<feColorMatrix type="matrix" values="0 0 0 0 0 0 0 0 0 0 0 0 0 0 0 0 0 0 0.06 0"/>
<feBlend mode="normal" in2="effect1_dropShadow_2974_21185" result="effect2_dropShadow_2974_21185"/>
<feBlend mode="normal" in="SourceGraphic" in2="effect2_dropShadow_2974_21185" result="shape"/>
</filter>
</defs>
</svg>
