<svg width="66" height="65" viewBox="0 0 66 65" fill="none" xmlns="http://www.w3.org/2000/svg">
<g filter="url(#filter0_dd_2974_21284)">
<mask id="path-1-outside-1_2974_21284" maskUnits="userSpaceOnUse" x="8.5" y="3.70215" width="50" height="49" fill="black">
<rect fill="white" x="8.5" y="3.70215" width="50" height="49"/>
<path fill-rule="evenodd" clip-rule="evenodd" d="M34.5 21.2594V37.7452V43.7452C34.5 45.1259 33.3807 46.2452 32 46.2452H26C25.4372 46.2452 24.9178 46.0592 24.5 45.7454C24.0822 46.0592 23.5628 46.2452 23 46.2452H17C15.6193 46.2452 14.5 45.1259 14.5 43.7452V19.7452L14.5 13.7452C14.5 12.3645 15.6193 11.2452 17 11.2452H23C23.5628 11.2452 24.0822 11.4312 24.5 11.745C24.9178 11.4311 25.4372 11.2452 26 11.2452H32C32.9687 11.2452 33.8087 11.7962 34.2238 12.6018C34.4111 12.4931 34.6157 12.407 34.835 12.3482L40.655 10.7882C41.992 10.4299 43.3664 11.2232 43.7248 12.5602L51.5248 41.6602C51.8831 42.9973 51.0898 44.3717 49.7528 44.73L43.9328 46.29C42.5957 46.6484 41.2213 45.8551 40.863 44.518L39.3998 39.0594C39.2763 38.9385 39.1825 38.7841 39.1343 38.6052C39.0858 38.4254 39.0896 38.2438 39.1364 38.0766L34.7311 21.6413C34.6288 21.536 34.5486 21.4068 34.5 21.2594Z"/>
</mask>
<path fill-rule="evenodd" clip-rule="evenodd" d="M34.5 21.2594V37.7452V43.7452C34.5 45.1259 33.3807 46.2452 32 46.2452H26C25.4372 46.2452 24.9178 46.0592 24.5 45.7454C24.0822 46.0592 23.5628 46.2452 23 46.2452H17C15.6193 46.2452 14.5 45.1259 14.5 43.7452V19.7452L14.5 13.7452C14.5 12.3645 15.6193 11.2452 17 11.2452H23C23.5628 11.2452 24.0822 11.4312 24.5 11.745C24.9178 11.4311 25.4372 11.2452 26 11.2452H32C32.9687 11.2452 33.8087 11.7962 34.2238 12.6018C34.4111 12.4931 34.6157 12.407 34.835 12.3482L40.655 10.7882C41.992 10.4299 43.3664 11.2232 43.7248 12.5602L51.5248 41.6602C51.8831 42.9973 51.0898 44.3717 49.7528 44.73L43.9328 46.29C42.5957 46.6484 41.2213 45.8551 40.863 44.518L39.3998 39.0594C39.2763 38.9385 39.1825 38.7841 39.1343 38.6052C39.0858 38.4254 39.0896 38.2438 39.1364 38.0766L34.7311 21.6413C34.6288 21.536 34.5486 21.4068 34.5 21.2594Z" fill="white"/>
<path d="M34.5 37.7452H28.5H34.5ZM34.5 21.2594L40.1983 19.3808C39.2758 16.5825 36.4579 14.8681 33.5487 15.3353C30.6395 15.8025 28.5 18.3129 28.5 21.2594H34.5ZM34.5 43.7452H40.5H34.5ZM32 46.2452V52.2452V46.2452ZM26 46.2452V40.2452V46.2452ZM24.5 45.7454L28.1035 40.948C25.9687 39.3445 23.0313 39.3445 20.8965 40.948L24.5 45.7454ZM23 46.2452V52.2452V46.2452ZM17 46.2452V40.2452V46.2452ZM14.5 19.7452H20.5H14.5ZM14.5 13.7452H8.5H14.5ZM17 11.2452V5.24518V11.2452ZM23 11.2452V17.2452V11.2452ZM24.5 11.745L20.8965 16.5424C23.0313 18.1459 25.9687 18.1459 28.1035 16.5424L24.5 11.745ZM26 11.2452V17.2452V11.2452ZM32 11.2452V5.24518V11.2452ZM34.2238 12.6018L28.89 15.3497C29.6428 16.8108 30.962 17.8992 32.5396 18.3606C34.1171 18.822 35.8149 18.616 37.2363 17.7907L34.2238 12.6018ZM34.835 12.3482L36.3884 18.1437L36.3884 18.1436L34.835 12.3482ZM40.655 10.7882L39.1016 4.99281V4.99281L40.655 10.7882ZM43.7248 12.5602L49.5202 11.0068L49.5202 11.0068L43.7248 12.5602ZM51.5248 41.6602L45.7293 43.2136L45.7293 43.2136L51.5248 41.6602ZM49.7528 44.73L48.1994 38.9346L48.1994 38.9346L49.7528 44.73ZM43.9328 46.29L45.4862 52.0855H45.4862L43.9328 46.29ZM40.863 44.518L46.6584 42.9646V42.9646L40.863 44.518ZM39.3998 39.0594L45.1952 37.5059C44.9168 36.4671 44.3642 35.5222 43.5954 34.7701L39.3998 39.0594ZM39.1343 38.6052L33.3408 40.1659L33.3408 40.1659L39.1343 38.6052ZM39.1364 38.0766L44.9147 39.6924C45.2044 38.6566 45.2103 37.562 44.9318 36.5232L39.1364 38.0766ZM34.7311 21.6413L40.5265 20.0879C40.2618 19.1003 39.749 18.1966 39.0369 17.4628L34.7311 21.6413ZM40.5 37.7452V21.2594H28.5V37.7452H40.5ZM40.5 43.7452V37.7452H28.5V43.7452H40.5ZM32 52.2452C36.6944 52.2452 40.5 48.4396 40.5 43.7452H28.5C28.5 41.8122 30.067 40.2452 32 40.2452V52.2452ZM26 52.2452H32V40.2452H26V52.2452ZM20.8965 50.5427C22.3177 51.6103 24.0934 52.2452 26 52.2452V40.2452C26.781 40.2452 27.5179 40.5082 28.1035 40.948L20.8965 50.5427ZM23 52.2452C24.9066 52.2452 26.6823 51.6103 28.1035 50.5427L20.8965 40.948C21.4821 40.5081 22.219 40.2452 23 40.2452V52.2452ZM17 52.2452H23V40.2452H17V52.2452ZM8.5 43.7452C8.5 48.4396 12.3056 52.2452 17 52.2452V40.2452C18.933 40.2452 20.5 41.8122 20.5 43.7452H8.5ZM8.5 19.7452V43.7452H20.5V19.7452H8.5ZM8.5 13.7452V19.7452H20.5V13.7452H8.5ZM17 5.24518C12.3056 5.24518 8.5 9.05076 8.5 13.7452H20.5C20.5 15.6782 18.933 17.2452 17 17.2452V5.24518ZM23 5.24518H17V17.2452H23V5.24518ZM28.1035 6.9476C26.6823 5.8801 24.9066 5.24518 23 5.24518V17.2452C22.219 17.2452 21.4821 16.9822 20.8965 16.5424L28.1035 6.9476ZM26 5.24518C24.0934 5.24518 22.3177 5.88011 20.8965 6.9476L28.1035 16.5424C27.518 16.9822 26.781 17.2452 26 17.2452V5.24518ZM32 5.24518H26V17.2452H32V5.24518ZM39.5576 9.85395C38.1541 7.12964 35.3022 5.24518 32 5.24518V17.2452C30.6352 17.2452 29.4634 16.4627 28.89 15.3497L39.5576 9.85395ZM33.2816 6.55281C32.5467 6.74978 31.8519 7.04098 31.2113 7.41293L37.2363 17.7907C36.9703 17.9452 36.6848 18.0642 36.3884 18.1437L33.2816 6.55281ZM39.1016 4.99281L33.2816 6.55281L36.3884 18.1436L42.2084 16.5837L39.1016 4.99281ZM49.5202 11.0068C48.3039 6.46906 43.6393 3.7765 39.1016 4.99281L42.2084 16.5837C40.3447 17.0832 38.4289 15.9773 37.9293 14.1136L49.5202 11.0068ZM57.3202 40.1068L49.5202 11.0068L37.9293 14.1136L45.7293 43.2136L57.3202 40.1068ZM51.3062 50.5255C55.8439 49.3092 58.5365 44.6445 57.3202 40.1068L45.7293 43.2136C45.2298 41.35 46.3356 39.4342 48.1994 38.9346L51.3062 50.5255ZM45.4862 52.0855L51.3062 50.5255L48.1994 38.9346L42.3794 40.4946L45.4862 52.0855ZM35.0675 46.0714C36.2838 50.6092 40.9484 53.3018 45.4862 52.0855L42.3794 40.4946C44.2431 39.9951 46.1588 41.1009 46.6584 42.9646L35.0675 46.0714ZM33.6044 40.6128L35.0675 46.0714L46.6584 42.9646L45.1952 37.5059L33.6044 40.6128ZM33.3408 40.1659C33.6757 41.4089 34.3348 42.4981 35.2043 43.3486L43.5954 34.7701C44.2178 35.379 44.6893 36.1593 44.9277 37.0444L33.3408 40.1659ZM33.3581 36.4608C33.029 37.6376 33.0043 38.9167 33.3408 40.1659L44.9277 37.0444C45.1674 37.934 45.1503 38.85 44.9147 39.6924L33.3581 36.4608ZM28.9356 23.1947L33.341 39.63L44.9318 36.5232L40.5265 20.0879L28.9356 23.1947ZM39.0369 17.4628C39.5515 17.9931 39.9559 18.6454 40.1983 19.3808L28.8017 23.138C29.1413 24.1682 29.7062 25.0788 30.4252 25.8198L39.0369 17.4628Z" fill="white" mask="url(#path-1-outside-1_2974_21284)"/>
<path d="M23 12.2463H17C16.1716 12.2463 15.5 12.9179 15.5 13.7463V43.7463C15.5 44.5748 16.1716 45.2463 17 45.2463H23C23.8284 45.2463 24.5 44.5748 24.5 43.7463V13.7463C24.5 12.9179 23.8284 12.2463 23 12.2463Z" stroke="#171717" stroke-width="2" stroke-linecap="round" stroke-linejoin="round"/>
<path d="M15.5 19.7463H24.5" stroke="#171717" stroke-width="2" stroke-linecap="round" stroke-linejoin="round"/>
<path d="M32 12.2463H26C25.1716 12.2463 24.5 12.9179 24.5 13.7463V43.7463C24.5 44.5748 25.1716 45.2463 26 45.2463H32C32.8284 45.2463 33.5 44.5748 33.5 43.7463V13.7463C33.5 12.9179 32.8284 12.2463 32 12.2463Z" stroke="#171717" stroke-width="2" stroke-linecap="round" stroke-linejoin="round"/>
<path d="M24.5 37.7463H33.5" stroke="#171717" stroke-width="2" stroke-linecap="round" stroke-linejoin="round"/>
<path d="M40.9137 11.7553L35.0937 13.3153C34.2901 13.5307 33.8133 14.3567 34.0287 15.1603L41.8287 44.2603C42.0441 45.0639 42.8701 45.5407 43.6737 45.3253L49.4937 43.7653C50.2972 43.5499 50.7741 42.7239 50.5587 41.9203L42.7587 12.8203C42.5433 12.0167 41.7172 11.5399 40.9137 11.7553Z" stroke="#171717" stroke-width="2" stroke-linecap="round" stroke-linejoin="round"/>
<path d="M40.0996 38.3459L48.7996 36.0022" stroke="#171717" stroke-width="2" stroke-linecap="round" stroke-linejoin="round"/>
<path d="M35.4492 20.9463L44.1492 18.6213" stroke="#171717" stroke-width="2" stroke-linecap="round" stroke-linejoin="round"/>
<path d="M16.09 45.0236C16.09 41.722 15.5463 38.489 15.0922 35.2195C14.9606 34.2721 14.9621 33.3118 14.9621 32.3564C14.9621 31.4142 14.8643 30.41 14.9813 29.474C15.2158 27.5987 15.5334 25.741 15.6513 23.8538C15.7578 22.1497 15.6562 20.4796 15.6562 18.7735C15.6562 17.7034 15.6562 16.6334 15.6562 15.5633C15.6562 15.3464 15.6138 15.0865 15.661 14.8741C15.6934 14.7282 15.8484 14.6866 15.8104 14.7246C15.7595 14.7755 15.7429 14.0764 15.7429 14.0064C15.7429 13.423 15.6438 12.7515 15.7477 12.1796C15.8922 11.3853 17.9406 11.6585 18.5193 11.7265C19.9018 11.8892 21.3333 12.0904 22.7031 12.3339C23.0584 12.397 24.2774 12.5781 24.4142 13.0569C24.4868 13.3108 24.2563 13.4115 24.2455 13.616C24.2054 14.3774 24.1976 15.193 24.2648 15.9489C24.6213 19.9592 24.3323 23.9957 24.3323 28.0135C24.3323 30.8967 23.9852 33.745 23.9852 36.627C23.9852 39.1472 24.8795 41.7566 24.3997 44.262C24.3421 44.5628 24.2681 44.8723 24.2455 45.1778C24.234 45.333 23.823 45.344 23.6816 45.3658C22.9108 45.4843 21.8828 45.4566 21.1173 45.361C20.1447 45.2394 19.1853 44.9163 18.2204 44.744C17.5527 44.6248 16.7657 44.3295 16.09 44.3295" stroke="#171717" stroke-width="2" stroke-linecap="round"/>
<path d="M24.5059 12.8349C25.4364 12.8349 26.2055 12.2779 27.1087 12.1216C28.0427 11.9599 28.9658 11.707 29.9236 11.707C30.7415 11.707 31.3995 11.701 32.0975 12.1842C32.5565 12.502 33.349 12.9665 33.5097 13.529C33.7614 14.4097 33.672 15.5815 33.5965 16.4789C33.4167 18.6164 33.3555 20.7071 33.3555 22.8558C33.3555 24.2456 33.2687 25.6384 33.2687 27.0204C33.2687 28.1425 33.7454 29.1027 33.9821 30.1679C34.4774 32.3967 34.1234 34.6472 33.9676 36.9063C33.878 38.2068 33.666 39.5801 33.4037 40.854C33.1339 42.1646 33.182 43.501 33.182 44.8305C33.182 45.0309 32.437 45.3105 32.2083 45.3896C31.3132 45.6995 30.4912 45.8909 29.5428 45.8909C28.6071 45.8909 27.6009 45.9884 26.6797 45.8042C26.2254 45.7133 25.7757 45.6592 25.3349 45.5005C25.0834 45.4099 24.6324 45.3633 24.5059 45.1101" stroke="#171717" stroke-width="2" stroke-linecap="round"/>
<path d="M33.5294 13.8755C33.5217 13.8755 34.0771 13.832 34.2427 13.7887C34.9119 13.6137 35.5738 13.4351 36.219 13.1814C37.5282 12.6665 38.8326 12.1078 40.1666 11.6631C40.846 11.4366 41.845 11.1583 42.5574 11.4076C43.427 11.712 43.7577 12.8333 43.8732 13.6538C44.0237 14.7222 44.1866 15.8622 44.442 16.9121C44.6356 17.7079 44.6135 18.5388 44.7649 19.3463C44.8846 19.9846 45.1463 20.5142 45.3626 21.1152C45.4414 21.3341 45.659 21.6564 45.6759 21.8768C45.7235 22.4945 45.9976 23.1494 46.1097 23.7663C46.2678 24.6355 46.4615 25.5772 46.7605 26.4077C47.0509 27.2144 47.4286 28.1431 47.5654 28.9912C47.8793 30.9373 48.5613 32.8658 49.1849 34.7367C49.7065 36.3015 49.9427 38.0105 50.2936 39.6243C50.5178 40.656 50.6213 41.5317 50.6213 42.5934C50.6213 43.0478 50.6886 43.2567 50.361 43.5478C50.0775 43.7999 49.0496 43.9332 48.6788 43.9768C47.7765 44.083 46.8935 44.1551 45.9651 44.1551C45.1457 44.1551 44.3263 44.1551 43.5069 44.1551C43.2944 44.1551 43.1121 44.2531 42.8996 44.2419C42.7089 44.2319 42.7148 43.9704 42.5959 43.8515C42.2844 43.5399 42.1911 43.0394 42.032 42.6416C41.7939 42.0463 41.5178 41.38 41.4054 40.7522C41.2594 39.9373 40.9494 39.1382 40.7498 38.3325C40.5474 37.5151 40.3837 36.6694 40.1232 35.8694C39.7197 34.63 39.2836 33.4037 38.87 32.1628C38.4508 30.9053 38.219 29.593 37.8 28.3357C37.5042 27.4484 37.2441 26.6031 36.8456 25.7618C36.749 25.5578 36.9608 25.0365 36.7829 24.8942C36.5538 24.7108 36.6287 24.2249 36.4407 23.9832C36.1776 23.6449 36.0597 23.1312 35.8044 22.7637C35.3625 22.1274 35.249 21.2041 35.0525 20.4742C34.8834 19.846 34.7754 19.1754 34.5705 18.5606" stroke="#171717" stroke-width="2" stroke-linecap="round"/>
<path d="M35.7852 20.7302C37.6013 20.7302 39.1509 19.6055 40.6438 18.6672C41.6313 18.0465 42.4567 17.7803 43.5937 17.7803" stroke="#171717" stroke-width="2" stroke-linecap="round"/>
<path d="M40.6445 37.4744C41.615 37.4744 42.5854 37.4744 43.5558 37.4744C44.2746 37.4744 44.8742 37.2475 45.5465 37.0406C45.927 36.9235 46.3571 36.8053 46.7226 36.6454C47.0124 36.5186 47.5352 36.2598 47.8457 36.2598" stroke="#171717" stroke-width="2" stroke-linecap="round"/>
<path d="M25.2871 37.2148C27.2831 37.2148 29.2004 37.6486 31.1869 37.6486C31.7406 37.6486 32.209 37.8222 32.7486 37.8222" stroke="#171717" stroke-width="2" stroke-linecap="round"/>
<path d="M16.1777 20.7304C17.4438 20.7304 18.7099 20.7304 19.9759 20.7304C20.4241 20.7304 21.1841 20.8784 21.6051 20.687C21.9539 20.5284 22.3612 20.4697 22.7282 20.3882C22.9999 20.3278 23.2548 20.123 23.5524 20.123" stroke="#171717" stroke-width="2" stroke-linecap="round"/>
</g>
<defs>
<filter id="filter0_dd_2974_21284" x="0" y="0.700684" width="65.6133" height="64.0454" filterUnits="userSpaceOnUse" color-interpolation-filters="sRGB">
<feFlood flood-opacity="0" result="BackgroundImageFix"/>
<feColorMatrix in="SourceAlpha" type="matrix" values="0 0 0 0 0 0 0 0 0 0 0 0 0 0 0 0 0 0 127 0" result="hardAlpha"/>
<feOffset dy="2"/>
<feGaussianBlur stdDeviation="1"/>
<feComposite in2="hardAlpha" operator="out"/>
<feColorMatrix type="matrix" values="0 0 0 0 0 0 0 0 0 0 0 0 0 0 0 0 0 0 0.02 0"/>
<feBlend mode="normal" in2="BackgroundImageFix" result="effect1_dropShadow_2974_21284"/>
<feColorMatrix in="SourceAlpha" type="matrix" values="0 0 0 0 0 0 0 0 0 0 0 0 0 0 0 0 0 0 127 0" result="hardAlpha"/>
<feOffset dy="4"/>
<feGaussianBlur stdDeviation="4"/>
<feComposite in2="hardAlpha" operator="out"/>
<feColorMatrix type="matrix" values="0 0 0 0 0 0 0 0 0 0 0 0 0 0 0 0 0 0 0.06 0"/>
<feBlend mode="normal" in2="effect1_dropShadow_2974_21284" result="effect2_dropShadow_2974_21284"/>
<feBlend mode="normal" in="SourceGraphic" in2="effect2_dropShadow_2974_21284" result="shape"/>
</filter>
</defs>
</svg>
