<svg width="48" height="48" viewBox="0 0 48 48" fill="none" xmlns="http://www.w3.org/2000/svg">
<path d="M15 7.5H9C8.17157 7.5 7.5 8.17157 7.5 9V39C7.5 39.8284 8.17157 40.5 9 40.5H15C15.8284 40.5 16.5 39.8284 16.5 39V9C16.5 8.17157 15.8284 7.5 15 7.5Z" stroke="currentColor" stroke-width="2" stroke-linecap="round" stroke-linejoin="round"/>
<path d="M7.5 15H16.5" stroke="currentColor" stroke-width="2" stroke-linecap="round" stroke-linejoin="round"/>
<path d="M24 7.5H18C17.1716 7.5 16.5 8.17157 16.5 9V39C16.5 39.8284 17.1716 40.5 18 40.5H24C24.8284 40.5 25.5 39.8284 25.5 39V9C25.5 8.17157 24.8284 7.5 24 7.5Z" stroke="currentColor" stroke-width="2" stroke-linecap="round" stroke-linejoin="round"/>
<path d="M16.5 33H25.5" stroke="currentColor" stroke-width="2" stroke-linecap="round" stroke-linejoin="round"/>
<path d="M32.9117 7.00898L27.0917 8.56898C26.2881 8.78438 25.8113 9.61041 26.0267 10.414L33.8267 39.514C34.0421 40.3176 34.8681 40.7944 35.6717 40.579L41.4917 39.019C42.2953 38.8036 42.7721 37.9776 42.5567 37.174L34.7567 8.07398C34.5413 7.27041 33.7153 6.79359 32.9117 7.00898Z" stroke="currentColor" stroke-width="2" stroke-linecap="round" stroke-linejoin="round"/>
<path d="M32.1016 33.5999L40.8016 31.2561" stroke="currentColor" stroke-width="2" stroke-linecap="round" stroke-linejoin="round"/>
<path d="M27.4492 16.2L36.1492 13.875" stroke="currentColor" stroke-width="2" stroke-linecap="round" stroke-linejoin="round"/>
<path d="M7.62109 7.82888C9.25978 7.82888 10.8985 7.82888 12.5372 7.82888C13.0553 7.82888 13.5734 7.82888 14.0915 7.82888C14.5106 7.82888 15.1387 7.71988 15.5012 7.90117" stroke="currentColor" stroke-linecap="round"/>
<path d="M15.5029 7.90112C15.5029 9.51571 15.5029 11.1303 15.5029 12.7449C15.5029 13.5642 15.5029 14.3836 15.5029 15.2029C15.5029 16.353 15.6313 17.5911 15.4868 18.7293C15.4058 19.3672 15.0858 20.0219 15.0691 20.6572C15.0562 21.1489 14.9968 21.6306 14.9968 22.1272C14.9968 23.1499 15.1575 24.1362 15.2137 25.1475C15.2403 25.626 15.3425 26.1483 15.4145 26.6255C15.4991 27.1858 15.4432 27.8092 15.4306 28.3767C15.4111 29.2542 14.9405 30.1341 14.7839 30.9954C14.7538 31.1613 14.7799 30.666 14.7799 30.5656C14.7799 30.3952 14.9143 30.9357 14.9285 31.0355C14.9638 31.2821 15.0421 31.514 15.0731 31.7625C15.1402 32.2989 15.1913 32.9373 15.3262 33.4574C15.4852 34.071 15.529 34.7365 15.5712 35.3692C15.6358 36.3396 15.6475 37.354 15.6475 38.3253C15.6475 38.4564 15.9527 40.0833 15.7519 40.1407C15.6553 40.1683 15.324 40.0724 15.1776 40.0724C14.8777 40.0724 14.5778 40.0724 14.2779 40.0724C13.8441 40.0724 13.4103 40.0724 12.9766 40.0724C12.6126 40.0724 12.2801 39.842 11.9243 39.7872C11.2659 39.686 10.4866 39.7832 9.82772 39.7832C9.3578 39.7832 8.88789 39.7832 8.41797 39.7832" stroke="currentColor" stroke-linecap="round"/>
<path d="M8.41616 39.7834C8.41616 38.3013 8.41616 36.8193 8.41616 35.3372C8.41616 34.5147 8.43836 33.7421 8.54469 32.9314C8.65234 32.1106 8.70534 31.2688 8.70534 30.4413C8.70534 28.8455 8.91227 27.0839 8.52461 25.5332C8.16699 24.1028 8.05469 22.6168 8.05469 21.1473C8.05469 19.1826 8.05824 17.1975 8.20329 15.2392C8.28256 14.1691 8.68469 13.1634 8.54469 12.0783C8.50297 11.755 8.50804 11.4683 8.38002 11.1867C8.28119 10.9693 8.33532 10.2802 8.16313 10.1424C7.97685 9.99341 8.12698 8.96802 8.12698 8.69653" stroke="currentColor" stroke-linecap="round"/>
<path d="M8.5625 13.9016C9.95782 13.9016 11.3747 13.9739 12.7556 13.9739C13.4614 13.9739 14.0673 14.1185 14.7799 14.1185" stroke="currentColor" stroke-linecap="round"/>
<path d="M16.5156 8.6964C16.6756 8.67862 16.9326 8.49499 17.094 8.42328C17.2327 8.36164 17.4828 8.365 17.6362 8.33091C17.9896 8.25237 18.4291 8.11804 18.7929 8.11804C19.1852 8.11804 19.5552 7.90115 19.9496 7.90115C20.4633 7.90115 20.9474 7.82886 21.4598 7.82886C22.1313 7.82886 22.8409 7.83275 23.4921 7.97746C23.9201 8.07258 24.3712 8.23621 24.6448 8.58795C24.9387 8.96579 24.9741 9.435 24.9741 9.88525C24.9741 10.3378 24.9741 10.7903 24.9741 11.2428C24.9741 11.7426 24.9993 12.4086 24.8657 12.8895C24.7154 13.4305 24.7884 14.0635 24.7573 14.6246C24.7254 15.1976 24.685 15.7852 24.685 16.3757C24.685 17.1026 24.8296 17.8009 24.8296 18.5285C24.8296 19.1102 24.7789 19.6857 24.7573 20.2475C24.741 20.6706 24.557 21.1174 24.5404 21.5488C24.5217 22.0353 24.4637 22.634 24.5966 23.0992C24.8612 24.0253 24.9741 24.9406 24.9741 25.9026" stroke="currentColor" stroke-linecap="round"/>
<path d="M24.9738 25.9026C24.9738 26.4863 24.9738 27.07 24.9738 27.6537C24.9738 28.0825 24.8293 28.4544 24.8293 28.8667C24.8293 29.5843 24.8293 30.3019 24.8293 31.0195C24.8293 31.5975 24.6865 32.3753 24.8453 32.9313C25.3355 34.6469 24.1786 36.1848 24.1786 37.8313C24.1786 38.253 24.1786 38.6747 24.1786 39.0964C24.1786 39.1992 24.2305 39.4161 24.0902 39.4218C23.8555 39.4311 23.6182 39.4218 23.3834 39.4218C22.5516 39.4218 21.7392 39.3495 20.9253 39.3495C20.2385 39.3495 19.5517 39.3495 18.8649 39.3495C18.5998 39.3495 18.3348 39.3495 18.0697 39.3495C17.7768 39.3495 17.5285 39.494 17.2383 39.494" stroke="currentColor" stroke-linecap="round"/>
<path d="M17.2383 39.4942C17.2383 37.7779 17.2383 36.0615 17.2383 34.3452C17.2383 31.4822 17.1302 28.6016 17.2423 25.7421C17.3411 23.2236 17.5231 20.6553 17.3789 18.131C17.2633 16.1085 17.3966 14.1349 16.9652 12.1506C16.8386 11.5682 16.7323 10.8841 16.7323 10.291C16.7323 10.1075 16.5437 9.36921 16.7323 9.2749" stroke="currentColor" stroke-linecap="round"/>
<path d="M17.1641 32.1924C18.0129 32.1924 18.8617 32.1924 19.7105 32.1924C20.1761 32.1924 20.6081 31.9914 21.0519 31.9756C21.2523 31.9684 21.509 31.8975 21.6624 31.7747C21.8362 31.6357 22.5741 31.7587 22.8031 31.7587C23.2127 31.7587 23.6224 31.7587 24.0321 31.7587" stroke="currentColor" stroke-linecap="round"/>
<path d="M26.707 9.78101C26.7786 10.2461 27.1136 10.6974 27.2533 11.1546C27.5002 11.9629 27.8113 12.7753 28.0967 13.5725C28.3986 14.4157 28.6407 15.3023 28.8397 16.1751C28.9763 16.7739 29.0795 17.4045 29.2735 17.9865C29.7538 19.4275 30.7454 20.6353 31.0769 22.1033C31.2188 22.7318 31.117 23.4692 31.117 24.1115C31.117 24.5922 31.2707 25.0638 31.3299 25.5373C31.3796 25.9351 31.4928 26.2964 31.607 26.682C31.8221 27.4078 31.9123 28.1123 31.9123 28.8709C31.9123 29.7882 32.0448 30.6771 32.2015 31.5779C32.262 31.9258 32.3875 32.2403 32.6192 32.4977C33.4124 33.3791 33.7389 34.6219 34.531 35.502C34.963 35.982 34.7421 36.951 35.0049 37.5423C35.1665 37.9059 35.0003 39.0863 35.3824 39.2774" stroke="currentColor" stroke-linecap="round"/>
<path d="M35.3828 39.2772C36.648 39.2772 37.9131 39.2772 39.1783 39.2772C39.4929 39.2772 39.8075 39.2772 40.1222 39.2772C40.4692 39.2772 40.723 39.0522 41.054 38.992C41.633 38.8868 42.1062 38.4238 42.1062 37.8313" stroke="currentColor" stroke-linecap="round"/>
<path d="M42.107 37.8314C42.107 36.2578 41.6203 34.6843 41.2073 33.1724C40.8155 31.7384 40.4893 30.2995 40.155 28.8507C39.9004 27.7477 39.5656 26.6129 39.4481 25.485C39.3822 24.852 39.385 24.1465 39.2152 23.533C39.0396 22.8991 38.6749 22.2166 38.3315 21.6614C37.9871 21.1045 37.7367 20.5104 37.3676 19.9665C36.8869 19.2581 36.4206 18.557 36.1185 17.7414C35.7233 16.6744 35.6335 15.5111 35.2751 14.4359C34.9349 13.4153 34.8052 12.3014 34.8052 11.2308C34.8052 10.0987 34.1303 9.15425 33.6484 8.19043" stroke="currentColor" stroke-linecap="round"/>
<path d="M33.6471 8.19043C32.8759 8.19043 32.1048 8.19043 31.3336 8.19043C30.7627 8.19043 30.2264 8.42908 29.6708 8.56797C29.438 8.62617 29.171 8.6192 28.984 8.76879C28.8387 8.88506 28.7423 9.05971 28.5864 9.14633C28.3488 9.27831 28.2551 9.34715 27.9759 9.34715C27.8207 9.34715 27.4987 9.28149 27.4297 9.41944" stroke="currentColor" stroke-linecap="round"/>
<path d="M28.6602 14.9138C29.2468 14.7965 29.8115 14.2802 30.3952 14.0905C31.0508 13.8774 31.7515 13.6848 32.4436 13.6848C32.8693 13.6848 33.2951 13.6848 33.7208 13.6848" stroke="currentColor" stroke-linecap="round"/>
<path d="M32.8516 32.3369C33.6278 32.3369 34.4132 31.9864 35.169 31.8389C35.9413 31.6882 36.6951 31.4434 37.4704 31.2927C37.7643 31.2355 38.6978 31.4165 38.852 31.1079" stroke="currentColor" stroke-linecap="round"/>
</svg>
