<svg width="48" height="48" viewBox="0 0 48 48" fill="none" xmlns="http://www.w3.org/2000/svg">
<path fill-rule="evenodd" clip-rule="evenodd" d="M11.132 8.25823C11.5533 8.08594 12.005 7.99813 12.461 8.00003L35.5349 8.00004L35.539 8.00003C35.995 7.99813 36.4467 8.08594 36.868 8.25823C37.2892 8.4305 37.6715 8.68375 37.993 9.00302C38.3144 9.32227 38.5686 9.70121 38.7413 10.1178C38.914 10.5343 39.0019 10.9805 39 11.4306L39 11.4348V11.913H9.00005L9.00005 11.4348L9.00003 11.4306C8.99813 10.9805 9.08598 10.5343 9.25867 10.1178C9.43138 9.70121 9.68561 9.32227 10.007 9.00302C10.3285 8.68375 10.7108 8.4305 11.132 8.25823ZM7.00004 12.904L7 12.913L7.00004 12.9219V21.7734L7 21.7823L7.00004 21.7913V35.0781L7 35.087V39.5218C7 40.1813 7.26383 40.8124 7.73124 41.2766C8.19842 41.7406 8.8306 42.0001 9.48837 42.0001H13.9535C14.6112 42.0001 15.2434 41.7406 15.7106 41.2766C16.178 40.8124 16.4418 40.1813 16.4418 39.5218V36.087H31.5579V39.5218C31.5579 40.1813 31.8218 40.8124 32.2892 41.2766C32.7563 41.7406 33.3885 42.0001 34.0463 42.0001H38.5114C39.1692 42.0001 39.8013 41.7406 40.2685 41.2766C40.7359 40.8124 40.9998 40.1813 40.9998 39.5218V35.1071L41 35.087V11.4362C41.0026 10.7211 40.8628 10.0127 40.5888 9.35185C40.3145 8.69011 39.9111 8.08933 39.4023 7.58399C38.8936 7.07867 38.2894 6.67877 37.625 6.40705C36.9613 6.1356 36.2503 5.99734 35.5329 6.00004H12.4671C11.7497 5.99734 11.0387 6.1356 10.375 6.40705C9.71056 6.67877 9.10644 7.07867 8.59766 7.58399C8.08886 8.08933 7.68549 8.69011 7.41115 9.35185C7.13709 10.0129 6.99731 10.7215 7.00004 11.4368V12.904ZM14.4418 36.087H9V39.5218C9 39.6465 9.04979 39.7674 9.14063 39.8576C9.2317 39.948 9.35665 40.0001 9.48837 40.0001H13.9535C14.0852 40.0001 14.2101 39.948 14.3012 39.8576C14.3921 39.7674 14.4418 39.6465 14.4418 39.5218V36.087ZM33.5579 39.5218V36.087H38.9998V39.5218C38.9998 39.6465 38.95 39.7674 38.8591 39.8576C38.7681 39.948 38.6431 40.0001 38.5114 40.0001H34.0463C33.9146 40.0001 33.7896 39.948 33.6985 39.8576C33.6077 39.7674 33.5579 39.6465 33.5579 39.5218ZM9.00004 22.7823L9.00004 34.087H39V22.7823H9.00004ZM39 20.7823V13.913H9.00005L9.00004 20.7823H39ZM15.814 30.6524C17.047 30.6524 18.0465 29.6597 18.0465 28.435C18.0465 27.2104 17.047 26.2177 15.814 26.2177C14.581 26.2177 13.5814 27.2104 13.5814 28.435C13.5814 29.6597 14.581 30.6524 15.814 30.6524ZM34.4183 28.435C34.4183 29.6597 33.4187 30.6524 32.1857 30.6524C30.9527 30.6524 29.9532 29.6597 29.9532 28.435C29.9532 27.2104 30.9527 26.2177 32.1857 26.2177C33.4187 26.2177 34.4183 27.2104 34.4183 28.435Z" fill="currentColor"/>
<path fill-rule="evenodd" clip-rule="evenodd" d="M24.114 8.24699C23.5888 8.23301 23.0842 8.21958 22.5552 8.24571C22.2885 8.25889 22.0251 8.29912 21.7324 8.34382C21.6915 8.35007 21.65 8.35641 21.6078 8.36277C21.2758 8.41288 20.9084 8.46341 20.5268 8.45694C20.2622 8.45246 19.9995 8.43188 19.7544 8.41268C19.7295 8.41072 19.7047 8.40878 19.6801 8.40687C19.408 8.38574 19.1557 8.36818 18.9067 8.37055C18.4572 8.37483 18.0217 8.41762 17.5623 8.46276C17.355 8.48313 17.1428 8.50398 16.9222 8.52198C16.5143 8.55528 16.1063 8.58184 15.7032 8.60809C15.6778 8.60974 15.6525 8.61139 15.6272 8.61304C15.1978 8.64103 14.7736 8.66915 14.351 8.70548C13.2099 8.8036 12.2204 8.98852 11.229 9.44485C10.6519 9.71053 10.2146 10.0426 9.81245 10.526C9.61939 10.758 9.48283 10.9282 9.40949 11.1109C9.32793 11.3141 9.32151 11.5276 9.31177 11.8511C9.3107 11.8867 9.30959 11.9237 9.30833 11.9621C9.2993 12.2381 9.06825 12.4545 8.79225 12.4455C8.51626 12.4364 8.29984 12.2054 8.30887 11.9294C8.31 11.8948 8.31088 11.8582 8.31179 11.82C8.31897 11.5211 8.32862 11.1192 8.48143 10.7385C8.61852 10.3969 8.85318 10.1152 9.02465 9.90928C9.03109 9.90155 9.03744 9.89393 9.04369 9.88642C9.54363 9.28545 10.1018 8.86286 10.8109 8.53647C11.9482 8.01294 13.065 7.81236 14.2654 7.70916C14.6996 7.67183 15.1334 7.6431 15.5622 7.61516C15.5869 7.61355 15.6115 7.61194 15.6361 7.61034C16.0412 7.58397 16.4415 7.5579 16.8408 7.5253C17.0258 7.5102 17.2181 7.49135 17.4149 7.47205C17.8947 7.42503 18.4018 7.37532 18.8972 7.3706C19.1946 7.36777 19.4861 7.3888 19.7575 7.40987C19.7815 7.41174 19.8054 7.4136 19.829 7.41545C20.0792 7.435 20.3114 7.45315 20.5438 7.45709C20.834 7.46201 21.1287 7.42377 21.4586 7.37397C21.4979 7.36804 21.5379 7.36191 21.5785 7.35568C21.8664 7.31155 22.1841 7.26283 22.5059 7.24693C23.0641 7.21935 23.6455 7.23422 24.2032 7.24849C24.5166 7.2565 24.8226 7.26433 25.1129 7.26433C25.389 7.26433 25.6129 7.48819 25.6129 7.76433C25.6129 8.04047 25.389 8.26433 25.1129 8.26433C24.7653 8.26433 24.4358 8.25556 24.114 8.24699Z" fill="currentColor"/>
<path fill-rule="evenodd" clip-rule="evenodd" d="M26.7894 8.38145C26.2342 8.38774 25.676 8.39407 25.1133 8.39407C24.8371 8.39407 24.6133 8.17021 24.6133 7.89407C24.6133 7.61793 24.8371 7.39407 25.1133 7.39407C25.6514 7.39407 26.1961 7.38792 26.7444 7.38173C27.9789 7.3678 29.232 7.35365 30.4695 7.40898C30.8688 7.42683 31.2901 7.47231 31.6914 7.51565C31.9321 7.54163 32.1656 7.56685 32.3829 7.58486C32.7826 7.618 33.1848 7.62475 33.6065 7.63183C33.6406 7.63241 33.6749 7.63298 33.7093 7.63357C34.162 7.64136 34.6359 7.65201 35.1123 7.70305C35.7767 7.77424 36.6364 7.91729 37.3138 8.31703C37.5795 8.47382 37.7797 8.69417 37.9341 8.8866C38.0044 8.9742 38.0716 9.06439 38.1318 9.14525C38.1384 9.15411 38.145 9.16285 38.1514 9.17147C38.2191 9.26223 38.278 9.34034 38.3364 9.41005C38.5341 9.64645 38.6602 9.92031 38.7549 10.1259C38.7825 10.1859 38.8074 10.24 38.8307 10.2857C38.8401 10.3042 38.8495 10.3227 38.859 10.3413C39.003 10.6238 39.1559 10.9238 39.2682 11.2748C39.3524 11.5378 39.2074 11.8193 38.9444 11.9034C38.6814 11.9876 38.4 11.8426 38.3158 11.5796C38.2289 11.3079 38.1101 11.0745 37.958 10.7758C37.9519 10.7637 37.9457 10.7514 37.9394 10.7391C37.879 10.6204 37.8354 10.5258 37.7985 10.4455C37.7235 10.2826 37.6756 10.1787 37.5693 10.0517C37.4909 9.95791 37.4167 9.85901 37.3498 9.76929C37.3434 9.76075 37.3371 9.75228 37.3308 9.7439C37.2689 9.66082 37.2126 9.58522 37.1542 9.51247C37.024 9.35029 36.9144 9.24251 36.8056 9.17826C36.326 8.89524 35.6528 8.76669 35.0057 8.69736C34.5791 8.65165 34.1463 8.64124 33.6921 8.63343C33.6563 8.63281 33.6203 8.63221 33.5842 8.63161C33.1689 8.62468 32.7345 8.61744 32.3003 8.58144C32.0256 8.55867 31.7717 8.53087 31.5254 8.5039C31.1563 8.46349 30.8043 8.42494 30.4249 8.40798C29.2159 8.35393 28.0097 8.36761 26.7894 8.38145Z" fill="currentColor"/>
<path fill-rule="evenodd" clip-rule="evenodd" d="M37.7656 11.3943C38.1403 11.4039 38.5073 11.4133 38.8576 11.4133C39.1338 11.4133 39.3576 11.6372 39.3576 11.9133C39.3576 12.1894 39.1338 12.4133 38.8576 12.4133C38.4499 12.4133 38.0592 12.4029 37.6761 12.3928C37.0473 12.3761 36.4392 12.3599 35.8102 12.3911C35.3544 12.4136 34.8984 12.4557 34.43 12.499L34.4162 12.5002C33.9465 12.5436 33.4642 12.5879 32.9782 12.6108C31.8664 12.6633 30.7484 12.6547 29.6455 12.6165C28.9881 12.5937 28.3376 12.5308 27.7021 12.4694C27.5801 12.4576 27.4587 12.4459 27.3379 12.4345C26.7548 12.3795 26.1683 12.3801 25.5542 12.3808C25.4889 12.3808 25.4232 12.3809 25.3572 12.3809H23.4609C23.1848 12.3809 22.9609 12.157 22.9609 11.8809C22.9609 11.6047 23.1848 11.3809 23.4609 11.3809H25.3572C25.4233 11.3809 25.4897 11.3808 25.5565 11.3807C26.1635 11.38 26.7983 11.3792 27.4318 11.4389C27.5574 11.4508 27.6821 11.4628 27.806 11.4748C28.4416 11.5361 29.0564 11.5955 29.6802 11.6171C30.7658 11.6547 31.855 11.6627 32.9311 11.6119C33.3911 11.5902 33.8514 11.5481 34.3243 11.5045L34.3475 11.5023C34.8094 11.4597 35.2835 11.4159 35.7608 11.3923C36.419 11.3597 37.1041 11.3773 37.7656 11.3943Z" fill="currentColor"/>
<path fill-rule="evenodd" clip-rule="evenodd" d="M18.7964 10.815C18.8814 10.8339 18.9619 10.8518 19.0367 10.867C20.5219 11.1697 22.0372 11.3669 23.5497 11.4465C23.8255 11.461 24.0373 11.6963 24.0228 11.9721C24.0082 12.2479 23.7729 12.4596 23.4972 12.4451C21.9335 12.3628 20.369 12.159 18.837 11.8469C18.7252 11.8241 18.6197 11.801 18.5191 11.7789C18.1649 11.7012 17.8706 11.6367 17.5674 11.646C17.2551 11.6556 16.9513 11.7233 16.6009 11.8015C16.5037 11.8231 16.4029 11.8456 16.2974 11.8678C15.1816 12.103 14.0356 12.3429 12.8324 12.3736C12.6016 12.3795 12.3698 12.3785 12.146 12.3775C12.1371 12.3775 12.1282 12.3774 12.1194 12.3774C11.8846 12.3764 11.6582 12.3757 11.4342 12.3823C10.986 12.3955 10.5714 12.4378 10.1829 12.5544C9.91837 12.6337 9.63963 12.4836 9.56028 12.2191C9.48093 11.9546 9.63102 11.6759 9.89552 11.5966C10.4044 11.4439 10.9181 11.3971 11.4047 11.3827C11.6481 11.3755 11.8908 11.3764 12.1237 11.3774L12.1449 11.3775C12.3729 11.3785 12.5914 11.3794 12.8068 11.3739C13.9047 11.3459 14.9636 11.1269 16.0912 10.8893C16.1686 10.873 16.2504 10.8546 16.3359 10.8354C16.6963 10.7544 17.1197 10.6593 17.5367 10.6465C17.9773 10.6329 18.4292 10.7334 18.7964 10.815Z" fill="currentColor"/>
<path fill-rule="evenodd" clip-rule="evenodd" d="M35.3375 21.2381C33.549 20.8322 31.7837 20.4554 30.0163 20.509C29.4501 20.5262 28.888 20.6117 28.304 20.7162C28.1656 20.741 28.0251 20.767 27.8828 20.7933C27.4354 20.8761 26.9711 20.9621 26.5063 21.0213C23.6097 21.3908 20.6394 21.3799 17.7469 21.3693C17.2663 21.3675 16.7879 21.3658 16.3123 21.3658C14.708 21.3658 13.0814 21.2997 11.4668 21.2342C10.312 21.1873 9.16327 21.1407 8.03322 21.1186C7.75713 21.1132 7.53768 20.885 7.54307 20.6089C7.54845 20.3329 7.77664 20.1134 8.05272 20.1188C9.23499 20.1419 10.396 20.1893 11.5508 20.2366C13.1368 20.3014 14.711 20.3658 16.3123 20.3658C16.7948 20.3658 17.2778 20.3675 17.7607 20.3692C20.6567 20.3795 23.5536 20.3899 26.3798 20.0294C26.8141 19.974 27.2394 19.8953 27.6802 19.8137C27.8274 19.7865 27.9763 19.7589 28.1279 19.7318C28.7228 19.6254 29.3438 19.5289 29.986 19.5094C31.8983 19.4514 33.7815 19.8596 35.5588 20.2629C36.0556 20.3756 36.5703 20.5141 37.0752 20.6498C37.4009 20.7374 37.7224 20.8239 38.0324 20.9016C38.847 21.106 39.6418 21.2675 40.4357 21.3053C40.7116 21.3184 40.9245 21.5527 40.9114 21.8285C40.8982 22.1044 40.664 22.3173 40.3882 22.3042C39.4958 22.2617 38.626 22.0815 37.7891 21.8716C37.4406 21.7842 37.1066 21.6942 36.7782 21.6057C36.2951 21.4754 35.8242 21.3485 35.3375 21.2381Z" fill="currentColor"/>
<path fill-rule="evenodd" clip-rule="evenodd" d="M16.0027 26.0383C16.0118 26.3143 15.7954 26.5454 15.5194 26.5544C14.8942 26.5749 14.3573 26.7051 14.0866 27.0428C13.875 27.3068 13.696 27.7121 13.573 28.1786C13.4515 28.6395 13.3958 29.1175 13.403 29.4963C13.4106 29.8996 13.5779 30.1484 13.8088 30.2984C14.0574 30.46 14.4275 30.5348 14.8534 30.467C15.5542 30.3555 15.9863 30.0017 16.2735 29.513C16.5745 29.0008 16.7229 28.3254 16.7838 27.5946C16.8067 27.3194 17.0484 27.1149 17.3236 27.1378C17.5988 27.1607 17.8033 27.4024 17.7803 27.6776C17.7145 28.4681 17.5479 29.3181 17.1356 30.0196C16.7096 30.7445 16.03 31.2924 15.0105 31.4546C14.3987 31.552 13.7649 31.4625 13.2639 31.1369C12.745 30.7997 12.4168 30.2384 12.4031 29.5152C12.3941 29.0366 12.4629 28.4664 12.6061 27.9236C12.7477 27.3865 12.9735 26.8327 13.3063 26.4174C13.8801 25.7015 14.8432 25.5761 15.4866 25.555C15.7626 25.5459 15.9937 25.7623 16.0027 26.0383Z" fill="currentColor"/>
<path fill-rule="evenodd" clip-rule="evenodd" d="M31.8687 25.7025C31.9732 25.7034 32.068 25.7043 32.1482 25.7028C32.4243 25.6979 32.6522 25.9176 32.6572 26.1937C32.6622 26.4698 32.4424 26.6977 32.1663 26.7027C32.0306 26.7051 31.8993 26.704 31.7718 26.703C31.4562 26.7004 31.1639 26.6979 30.8851 26.75C30.5306 26.8162 30.3683 26.9417 30.2994 27.1688C30.0583 27.9636 30.2513 28.8243 30.8475 29.3382C31.5618 29.9541 32.591 29.9964 33.1392 29.3667C33.3715 29.0998 33.5135 28.7213 33.5865 28.3023C33.6296 28.0554 33.5903 27.9251 33.4948 27.6077C33.483 27.5687 33.4704 27.5267 33.4569 27.4814C33.3785 27.2167 33.5295 26.9384 33.7943 26.86C34.0591 26.7815 34.3373 26.9326 34.4157 27.1973C34.4273 27.2364 34.4395 27.2758 34.4518 27.3158C34.5491 27.6307 34.6575 27.9818 34.5717 28.474C34.4821 28.9875 34.2918 29.5657 33.8934 30.0233C32.8648 31.2049 31.1736 30.9397 30.1945 30.0957C29.2474 29.2792 29.0076 27.9826 29.3424 26.8785C29.5649 26.1451 30.164 25.8674 30.7014 25.767C31.0844 25.6955 31.5283 25.6995 31.8687 25.7025Z" fill="currentColor"/>
<path fill-rule="evenodd" clip-rule="evenodd" d="M25.9025 33.8009C24.6243 33.9199 23.3289 34.0405 22.0352 34.0877C21.3381 34.1132 20.6653 34.1214 19.9996 34.1294C19.1077 34.1403 18.2286 34.1509 17.321 34.2028C17.0697 34.2172 16.8137 34.2348 16.5542 34.2526C15.7408 34.3085 14.8937 34.3666 14.0552 34.3357C13.6235 34.3198 13.2075 34.2965 12.7974 34.2736C12.1332 34.2364 11.4844 34.2001 10.8092 34.1974C10.408 34.1957 10.0079 34.1963 9.60627 34.1968C9.40468 34.1971 9.2027 34.1974 9 34.1974C8.72386 34.1974 8.5 33.9735 8.5 33.6974C8.5 33.4212 8.72386 33.1974 9 33.1974C9.19977 33.1974 9.40029 33.1971 9.6012 33.1968C10.0045 33.1963 10.4095 33.1957 10.8133 33.1974C11.5073 33.2002 12.2096 33.2392 12.8974 33.2774C13.3022 33.2998 13.702 33.322 14.0921 33.3364C14.8729 33.3652 15.6455 33.3122 16.446 33.2574C16.715 33.239 16.9872 33.2203 17.2638 33.2045C18.1726 33.1525 19.1107 33.1405 20.0355 33.1286C20.7022 33.1201 21.3619 33.1117 21.9987 33.0884C23.262 33.0422 24.5155 32.9256 25.7846 32.8074C26.2542 32.7637 26.7259 32.7198 27.2011 32.6792C28.9482 32.5298 30.7226 32.4274 32.5159 32.5641C34.1334 32.6874 35.7071 32.9422 37.2642 33.2421C37.8809 33.3609 38.4376 33.4644 39.0308 33.5009C39.3064 33.5179 39.516 33.7551 39.4991 34.0307C39.4821 34.3064 39.2449 34.516 38.9692 34.499C38.3035 34.458 37.688 34.3421 37.0751 34.2241C35.5359 33.9276 34.0037 33.6805 32.4399 33.5612C30.7294 33.4308 29.0202 33.5273 27.2863 33.6755C26.8279 33.7147 26.3663 33.7577 25.9025 33.8009Z" fill="currentColor"/>
<path fill-rule="evenodd" clip-rule="evenodd" d="M39.2159 35.5407C39.4901 35.5078 39.739 35.7034 39.7719 35.9776C39.7941 36.1625 39.8273 36.3598 39.8642 36.5787C39.8723 36.627 39.8806 36.6765 39.8891 36.7271C39.9343 36.999 39.9808 37.2959 40.0054 37.5951C40.0538 38.1827 40.0262 38.8597 39.6681 39.4404C39.3984 39.8779 38.9765 40.114 38.5884 40.2552C38.2486 40.3789 37.8821 40.4472 37.5958 40.5006C37.5595 40.5074 37.5245 40.5139 37.491 40.5203C36.9517 40.6228 36.3498 40.7055 35.7357 40.6296C35.1093 40.5522 34.6584 40.2959 34.3118 39.9211C33.9869 39.5698 33.7661 39.1245 33.5663 38.7174C33.1377 37.8439 33.0616 36.9083 33.0431 36.0479C33.0371 35.7718 33.2561 35.5432 33.5322 35.5373C33.8083 35.5313 34.0369 35.7503 34.0429 36.0264C34.0608 36.8599 34.1367 37.6097 34.4641 38.2768C34.6745 38.7056 34.8365 39.0157 35.046 39.2422C35.2337 39.4451 35.4686 39.589 35.8583 39.6372C36.3141 39.6935 36.7918 39.6353 37.3042 39.5379C37.3405 39.531 37.3765 39.5242 37.4124 39.5174C37.7081 39.4619 37.9896 39.409 38.2465 39.3155C38.5293 39.2126 38.7135 39.0833 38.817 38.9155C39.005 38.6105 39.0517 38.198 39.0088 37.6771C38.9878 37.4221 38.9474 37.16 38.9026 36.8912C38.8951 36.8457 38.8873 36.7997 38.8795 36.7534C38.8425 36.5337 38.8043 36.3075 38.7791 36.0967C38.7462 35.8226 38.9417 35.5736 39.2159 35.5407Z" fill="currentColor"/>
<path fill-rule="evenodd" clip-rule="evenodd" d="M9.54133 35.501C9.81013 35.5642 9.97677 35.8334 9.91352 36.1022C9.83372 36.4413 9.80539 36.7765 9.77178 37.1744L9.77129 37.1801C9.75697 37.3495 9.7324 37.5238 9.70971 37.6847C9.70868 37.692 9.70765 37.6993 9.70663 37.7065C9.68235 37.8789 9.66025 38.0389 9.64752 38.1954C9.62174 38.5123 9.64042 38.7587 9.72638 38.9572C9.89059 39.3363 10.301 39.4885 10.9501 39.5271C11.5369 39.562 12.1299 39.5565 12.6728 39.4575C13.0826 39.3827 13.4075 39.2271 13.5953 38.9767C13.6146 38.9509 13.6465 38.8805 13.6748 38.7232C13.6879 38.6505 13.6979 38.5742 13.709 38.4881L13.7106 38.4761C13.7207 38.398 13.7323 38.3074 13.7478 38.223C13.8689 37.5618 13.8688 36.8823 13.8686 36.1517C13.8686 36.13 13.8686 36.1083 13.8686 36.0865C13.8686 35.8104 14.0925 35.5865 14.3686 35.5865C14.6448 35.5865 14.8686 35.8104 14.8686 36.0865C14.8686 36.1186 14.8687 36.1508 14.8687 36.1832C14.869 36.8889 14.8693 37.6503 14.7314 38.4031C14.7209 38.4605 14.7123 38.5274 14.7008 38.6162C14.69 38.6995 14.6771 38.7996 14.6589 38.9004C14.6248 39.0901 14.5612 39.3555 14.3953 39.5767C13.9927 40.1135 13.3808 40.3448 12.8523 40.4412C12.1979 40.5606 11.5155 40.5625 10.8906 40.5253C10.223 40.4856 9.22569 40.3171 8.80877 39.3547C8.62589 38.9325 8.62019 38.4908 8.65081 38.1144C8.66628 37.9242 8.69258 37.7362 8.71641 37.567L8.71783 37.557C8.74184 37.3865 8.76293 37.2369 8.77484 37.0959C8.77585 37.0839 8.77686 37.0719 8.77788 37.0599C8.80959 36.6839 8.84325 36.2847 8.9401 35.8731C9.00335 35.6043 9.27253 35.4377 9.54133 35.501Z" fill="currentColor"/>
<path fill-rule="evenodd" clip-rule="evenodd" d="M38.5453 13.5504C37.9899 13.4873 37.5096 13.4925 36.9165 13.5172C35.8764 13.5606 34.8617 13.6199 33.8421 13.6795C32.9576 13.7312 32.0695 13.7831 31.1581 13.825C29.8141 13.8868 28.4719 13.9925 27.122 14.103C26.9856 14.1141 26.8492 14.1253 26.7127 14.1365C25.5 14.2361 24.2803 14.3362 23.0578 14.4072C21.6072 14.4913 20.1484 14.5272 18.6872 14.477C18.0027 14.4534 17.3092 14.3858 16.6342 14.32C16.3009 14.2875 15.9722 14.2554 15.6513 14.2293C13.4438 14.0498 11.2267 14 9 14C8.72386 14 8.5 13.7762 8.5 13.5C8.5 13.2239 8.72386 13 9 13C11.2402 13 13.4871 13.05 15.7324 13.2326C16.0882 13.2615 16.4342 13.2954 16.7752 13.3287C17.4301 13.3928 18.0669 13.4551 18.7216 13.4776C20.1442 13.5265 21.571 13.4917 22.9999 13.4088C24.2096 13.3387 25.4171 13.2395 26.6315 13.1398C26.7677 13.1286 26.904 13.1174 27.0404 13.1063C28.3903 12.9959 29.7485 12.8888 31.1122 12.8261C31.9795 12.7862 32.8693 12.7344 33.7626 12.6824C34.8051 12.6217 35.8525 12.5608 36.8748 12.5181C37.4853 12.4926 38.0261 12.485 38.6581 12.5568C39.0513 12.6014 39.2352 12.6394 39.4195 12.684C39.4408 12.6891 39.4618 12.6943 39.483 12.6995C39.6249 12.7343 39.7754 12.7712 40.0818 12.822C40.3542 12.8672 40.5384 13.1247 40.4933 13.3971C40.4481 13.6695 40.1906 13.8537 39.9182 13.8086C39.5741 13.7515 39.3941 13.7073 39.2458 13.6709C39.2249 13.6658 39.2047 13.6609 39.1847 13.656C39.0431 13.6218 38.9002 13.5907 38.5453 13.5504Z" fill="currentColor"/>
<path fill-rule="evenodd" clip-rule="evenodd" d="M33.5343 23.3361C33.2563 23.3479 32.9756 23.3597 32.6917 23.3695C30.0829 23.4597 27.4686 23.4524 24.8666 23.4451C24.158 23.4432 23.4504 23.4412 22.7441 23.4412H8.4375C8.16136 23.4412 7.9375 23.2173 7.9375 22.9412C7.9375 22.6651 8.16136 22.4412 8.4375 22.4412H22.7441C23.4568 22.4412 24.1686 22.4432 24.8797 22.4452C27.479 22.4524 30.0689 22.4596 32.6572 22.3701C32.9245 22.3609 33.1941 22.3493 33.4657 22.3377C34.93 22.275 36.4507 22.2099 37.9681 22.4907C38.7095 22.6279 39.4272 22.8452 40.1134 23.0563C40.3773 23.1375 40.5255 23.4173 40.4443 23.6813C40.363 23.9452 40.0833 24.0933 39.8193 24.0121C39.1289 23.7997 38.463 23.5993 37.7861 23.474C36.39 23.2157 34.9997 23.2743 33.5343 23.3361Z" fill="currentColor"/>
<path fill-rule="evenodd" clip-rule="evenodd" d="M38.6821 22.9355C38.9582 22.9355 39.1821 23.1594 39.1821 23.4355C39.1821 23.5511 39.1822 23.667 39.1823 23.7831C39.1836 24.9663 39.1848 26.1783 39.0586 27.3887C38.9511 28.4193 38.937 29.453 39.1289 30.4338C39.2122 30.8595 39.3634 31.2715 39.5306 31.7272C39.5734 31.8438 39.6173 31.9632 39.6613 32.0865C39.8686 32.6668 40.0716 33.315 40.0716 34.0111C40.0716 34.2872 39.8478 34.5111 39.5716 34.5111C39.2955 34.5111 39.0716 34.2872 39.0716 34.0111C39.0716 33.4992 38.922 32.9897 38.7196 32.4228C38.6829 32.3202 38.6441 32.2147 38.6043 32.1067C38.4342 31.6444 38.2476 31.1376 38.1475 30.6258C37.9294 29.5111 37.951 28.3686 38.064 27.285C38.1845 26.1297 38.1834 24.97 38.1823 23.778C38.1822 23.6642 38.1821 23.55 38.1821 23.4355C38.1821 23.1594 38.406 22.9355 38.6821 22.9355Z" fill="currentColor"/>
<path fill-rule="evenodd" clip-rule="evenodd" d="M8.92969 22.8367C9.20583 22.8367 9.42969 23.0605 9.42969 23.3367C9.42969 24.5703 9.5313 25.7752 9.6367 27.0249C9.64581 27.1329 9.65495 27.2413 9.66405 27.35C9.70086 27.7897 9.70044 28.2487 9.70003 28.6831C9.69988 28.8445 9.69974 29.0025 9.7015 29.1549C9.70827 29.7381 9.74157 30.2753 9.87871 30.7768C10.0766 31.5003 10.2698 32.2457 10.2698 33.0776C10.2698 33.107 10.2682 33.1341 10.2668 33.1533C10.266 33.1654 10.265 33.1783 10.264 33.1896C10.3341 33.3264 10.3404 33.4936 10.2664 33.6416C10.1429 33.8886 9.8426 33.9887 9.59561 33.8652C9.41968 33.7772 9.3356 33.6285 9.29869 33.5205C9.26435 33.4201 9.25974 33.3264 9.25925 33.2714C9.25873 33.2124 9.26333 33.1566 9.26599 33.1243C9.26815 33.0983 9.26908 33.0861 9.26949 33.0809C9.26978 33.0771 9.2698 33.0769 9.2698 33.0776C9.2698 32.3946 9.11264 31.7665 8.91412 31.0405C8.74207 30.4114 8.70857 29.7694 8.70157 29.1665C8.69948 28.9858 8.69964 28.811 8.69981 28.6403C8.70021 28.2218 8.70058 27.8281 8.66754 27.4334C8.65831 27.3232 8.649 27.2129 8.6397 27.1026C8.53485 25.8605 8.42969 24.6146 8.42969 23.3367C8.42969 23.0605 8.65355 22.8367 8.92969 22.8367Z" fill="currentColor"/>
</svg>
