<svg width="62" height="65" viewBox="0 0 62 65" fill="none" xmlns="http://www.w3.org/2000/svg">
<g filter="url(#filter0_dd_2974_21163)">
<mask id="path-1-outside-1_2974_21163" maskUnits="userSpaceOnUse" x="8" y="4.74609" width="46" height="48" fill="black">
<rect fill="white" x="8" y="4.74609" width="46" height="48"/>
<path fill-rule="evenodd" clip-rule="evenodd" d="M21 10.7461C17.4735 10.7461 14.5561 13.3538 14.0709 16.7461H14V17.7461V18.7461V24.7461V26.7461V38.7461V40.7461V43.7461C14 45.4029 15.3431 46.7461 17 46.7461H21C22.6569 46.7461 24 45.4029 24 43.7461V40.7461H38V43.7461C38 45.4029 39.3431 46.7461 41 46.7461H45C46.6569 46.7461 48 45.4029 48 43.7461V40.7461V38.7461V26.7461V24.7461V18.7461V17.7461V16.7461H47.9291C47.4439 13.3538 44.5265 10.7461 41 10.7461H21Z"/>
</mask>
<path fill-rule="evenodd" clip-rule="evenodd" d="M21 10.7461C17.4735 10.7461 14.5561 13.3538 14.0709 16.7461H14V17.7461V18.7461V24.7461V26.7461V38.7461V40.7461V43.7461C14 45.4029 15.3431 46.7461 17 46.7461H21C22.6569 46.7461 24 45.4029 24 43.7461V40.7461H38V43.7461C38 45.4029 39.3431 46.7461 41 46.7461H45C46.6569 46.7461 48 45.4029 48 43.7461V40.7461V38.7461V26.7461V24.7461V18.7461V17.7461V16.7461H47.9291C47.4439 13.3538 44.5265 10.7461 41 10.7461H21Z" fill="white"/>
<path d="M14.0709 16.7461V22.7461H19.2737L20.0104 17.5957L14.0709 16.7461ZM14 16.7461V10.7461H8V16.7461H14ZM24 40.7461V34.7461H18V40.7461H24ZM38 40.7461H44V34.7461H38V40.7461ZM48 16.7461H54V10.7461H48V16.7461ZM47.9291 16.7461L41.9896 17.5957L42.7263 22.7461H47.9291V16.7461ZM20.0104 17.5957C20.0789 17.1167 20.5014 16.7461 21 16.7461V4.74609C14.4457 4.74609 9.03329 9.59092 8.13134 15.8965L20.0104 17.5957ZM14 22.7461H14.0709V10.7461H14V22.7461ZM20 17.7461V16.7461H8V17.7461H20ZM20 18.7461V17.7461H8V18.7461H20ZM20 24.7461V18.7461H8V24.7461H20ZM20 26.7461V24.7461H8V26.7461H20ZM20 38.7461V26.7461H8V38.7461H20ZM20 40.7461V38.7461H8V40.7461H20ZM20 43.7461V40.7461H8V43.7461H20ZM17 40.7461C18.6569 40.7461 20 42.0892 20 43.7461H8C8 48.7167 12.0294 52.7461 17 52.7461V40.7461ZM21 40.7461H17V52.7461H21V40.7461ZM18 43.7461C18 42.0892 19.3431 40.7461 21 40.7461V52.7461C25.9706 52.7461 30 48.7167 30 43.7461H18ZM18 40.7461V43.7461H30V40.7461H18ZM38 34.7461H24V46.7461H38V34.7461ZM44 43.7461V40.7461H32V43.7461H44ZM41 40.7461C42.6569 40.7461 44 42.0892 44 43.7461H32C32 48.7167 36.0294 52.7461 41 52.7461V40.7461ZM45 40.7461H41V52.7461H45V40.7461ZM42 43.7461C42 42.0892 43.3431 40.7461 45 40.7461V52.7461C49.9706 52.7461 54 48.7167 54 43.7461H42ZM42 40.7461V43.7461H54V40.7461H42ZM42 38.7461V40.7461H54V38.7461H42ZM42 26.7461V38.7461H54V26.7461H42ZM42 24.7461V26.7461H54V24.7461H42ZM42 18.7461V24.7461H54V18.7461H42ZM42 17.7461V18.7461H54V17.7461H42ZM42 16.7461V17.7461H54V16.7461H42ZM47.9291 22.7461H48V10.7461H47.9291V22.7461ZM41 16.7461C41.4986 16.7461 41.9211 17.1167 41.9896 17.5957L53.8687 15.8965C52.9667 9.59092 47.5543 4.74609 41 4.74609V16.7461ZM21 16.7461H41V4.74609H21V16.7461Z" fill="white" mask="url(#path-1-outside-1_2974_21163)"/>
<path d="M15 17.7461C15 14.4324 17.6863 11.7461 21 11.7461H41C44.3137 11.7461 47 14.4324 47 17.7461V17.7461H15V17.7461Z" stroke="#171717" stroke-width="2"/>
<path d="M15 17.7461H47V25.7461H15V17.7461Z" stroke="#171717" stroke-width="2"/>
<path d="M15 25.7461H47V39.7461H15V25.7461Z" stroke="#171717" stroke-width="2"/>
<path d="M15 39.7461H23V43.7461C23 44.8507 22.1046 45.7461 21 45.7461H17C15.8954 45.7461 15 44.8507 15 43.7461V39.7461Z" stroke="#171717" stroke-width="2"/>
<path d="M39 39.7461H47V43.7461C47 44.8507 46.1046 45.7461 45 45.7461H41C39.8954 45.7461 39 44.8507 39 43.7461V39.7461Z" stroke="#171717" stroke-width="2"/>
<circle cx="23" cy="32.7461" r="2" fill="#171717"/>
<circle cx="39" cy="32.7461" r="2" fill="#171717"/>
<path d="M14.9719 28.8433C14.9719 34.1978 15.1901 39.5239 15.1901 44.8832C14.873 44.8832 15.7109 45.2586 16.0085 45.3682C16.4177 45.519 16.8968 45.5999 17.3239 45.7016C18.3036 45.9348 19.567 45.8233 20.5367 45.647C21.5121 45.4697 22.294 44.6979 23.1131 44.1679C24.0218 43.5799 23.3737 42.1821 23.3737 41.2339C23.3737 39.8977 24.946 39.5105 25.944 39.2092C27.2992 38.8001 29.023 39.1418 30.3935 39.2941C32.1012 39.4839 33.7493 39.8657 35.437 40.167C36.2056 40.3043 36.9545 40.4867 37.7284 40.6035C37.9944 40.6436 38.5661 40.5594 38.7347 40.846C39.2299 41.6879 39.3866 42.6345 39.5167 43.6102C39.6279 44.4445 40.3388 44.8493 41.0019 45.2712C41.7619 45.7548 43.1009 45.3197 43.948 45.3197C44.4855 45.3197 45.1592 45.4311 45.6877 45.3136C46.0552 45.232 46.0602 42.5667 46.0696 42.1311C46.119 39.8625 46.3611 37.4902 46.6395 35.2326C46.8784 33.2946 46.7243 31.2673 46.7243 29.3162V21.8963C46.7243 19.7219 46.6398 17.7169 46.0151 15.6344C45.674 14.4974 45.1939 13.7234 44.1056 13.1793C42.8313 12.5421 41.3472 12.6659 39.9592 12.5791C38.5455 12.4908 37.161 12.3204 35.7583 12.0942C33.9368 11.8004 32.1628 11.4941 30.3086 11.4941C28.4693 11.4941 26.513 11.3121 24.6831 11.5183C23.2434 11.6805 21.7052 12.0727 20.3185 12.4761C18.7797 12.9237 17.7477 13.5467 16.4995 14.525C15.1079 15.6158 15.4481 17.5089 15.1355 19.0715C14.8748 20.375 14.6445 21.6253 14.6445 22.9572C14.6445 24.9354 14.9719 26.8821 14.9719 28.8433Z" stroke="#171717" stroke-width="2" stroke-linecap="round"/>
<path d="M15.625 39.427C17.6619 39.427 19.8297 39.2078 21.8446 39.5119C22.2149 39.5678 22.813 39.518 23.1539 39.6695C23.3035 39.736 24.0239 39.7544 23.6995 39.7544" stroke="#171717" stroke-width="2" stroke-linecap="round"/>
<path d="M37.3398 40.0822C39.4292 40.0822 41.5185 40.0822 43.6079 40.0822C44.4948 40.0822 45.3218 39.7549 46.1782 39.7549" stroke="#171717" stroke-width="2" stroke-linecap="round"/>
<path d="M22.7177 31.6799C21.7209 31.6799 21.8447 32.1175 21.8447 32.9893C21.8447 33.9555 21.978 34.4464 23.0208 34.4078C23.4551 34.3917 23.8497 33.9304 24.1362 33.644C24.443 33.3371 24.3544 32.9651 24.3544 32.5528C24.3544 31.9622 23.5352 31.3525 22.9359 31.3525" stroke="#171717" stroke-width="2" stroke-linecap="round"/>
<path d="M39.6316 30.9159C39.2746 30.9159 38.8949 30.8766 38.5405 30.9159C38.2959 30.9431 37.616 31.9082 37.4554 32.1223C37.2553 32.3891 36.8163 34.0103 37.1765 34.2985C37.563 34.6077 38.6866 34.3042 39.0861 34.1045C39.3574 33.9689 40.3776 33.0348 39.8499 32.7709" stroke="#171717" stroke-width="2" stroke-linecap="round"/>
<path d="M15.7344 25.1327C20.1369 25.1327 24.5466 25.1645 28.9373 24.9206C30.4189 24.8382 31.927 24.9145 33.411 24.9145C34.6836 24.9145 36.1377 24.7191 37.3876 24.9691C38.4541 25.1823 39.5349 25.3322 40.6065 25.4661C41.3651 25.561 42.099 25.861 42.8797 25.8965C43.6149 25.9299 44.2747 26.2239 45.0257 26.2239C45.4214 26.2239 45.8434 26.333 46.2866 26.333" stroke="#171717" stroke-width="2" stroke-linecap="round"/>
<path d="M15.5176 18.477C17.318 18.477 19.1184 18.477 20.9188 18.477C21.6141 18.477 22.5468 18.5717 23.1496 18.1497C23.7901 17.7013 24.8006 17.5013 25.5562 17.3313C27.1386 16.9753 28.7866 16.513 30.4178 16.513C31.7272 16.513 33.0366 16.513 34.346 16.513C35.6788 16.513 36.997 16.4038 38.3226 16.4038C39.6651 16.4038 41.1051 16.248 42.3841 16.7312C42.9428 16.9423 43.5348 17.1014 44.1057 17.2525C44.6536 17.3976 46.3092 17.7132 45.7424 17.7132" stroke="#171717" stroke-width="2" stroke-linecap="round"/>
</g>
<defs>
<filter id="filter0_dd_2974_21163" x="-1" y="0.746094" width="64" height="64" filterUnits="userSpaceOnUse" color-interpolation-filters="sRGB">
<feFlood flood-opacity="0" result="BackgroundImageFix"/>
<feColorMatrix in="SourceAlpha" type="matrix" values="0 0 0 0 0 0 0 0 0 0 0 0 0 0 0 0 0 0 127 0" result="hardAlpha"/>
<feOffset dy="2"/>
<feGaussianBlur stdDeviation="1"/>
<feComposite in2="hardAlpha" operator="out"/>
<feColorMatrix type="matrix" values="0 0 0 0 0 0 0 0 0 0 0 0 0 0 0 0 0 0 0.02 0"/>
<feBlend mode="normal" in2="BackgroundImageFix" result="effect1_dropShadow_2974_21163"/>
<feColorMatrix in="SourceAlpha" type="matrix" values="0 0 0 0 0 0 0 0 0 0 0 0 0 0 0 0 0 0 127 0" result="hardAlpha"/>
<feOffset dy="4"/>
<feGaussianBlur stdDeviation="4"/>
<feComposite in2="hardAlpha" operator="out"/>
<feColorMatrix type="matrix" values="0 0 0 0 0 0 0 0 0 0 0 0 0 0 0 0 0 0 0.06 0"/>
<feBlend mode="normal" in2="effect1_dropShadow_2974_21163" result="effect2_dropShadow_2974_21163"/>
<feBlend mode="normal" in="SourceGraphic" in2="effect2_dropShadow_2974_21163" result="shape"/>
</filter>
</defs>
</svg>
