<svg xmlns="http://www.w3.org/2000/svg" width="60" height="62" fill="none"><g filter="url(#a)"><path fill="#fff" stroke="#fff" stroke-width="6" d="M40 7H20a9 9 0 0 0-9 9v26a5 5 0 0 0 5 5h4.127a5 5 0 0 0 5-5v-1h10v1a5 5 0 0 0 5 5H44a5 5 0 0 0 5-5V16a9 9 0 0 0-9-9Z"/><path stroke="#171717" stroke-width="2" d="M14 16a6 6 0 0 1 6-6h20a6 6 0 0 1 6 6H14ZM14 16h32m0 8H14M14 16v8M46 16v8M14 24h32v14H14V24ZM14 38h8v4a2 2 0 0 1-2 2h-4a2 2 0 0 1-2-2v-4ZM38 38h8v4a2 2 0 0 1-2 2h-4a2 2 0 0 1-2-2v-4Z"/><circle cx="22" cy="31" r="2" fill="#171717"/><circle cx="38" cy="31" r="2" fill="#171717"/><path stroke="#171717" stroke-linecap="round" stroke-width="2" d="M13.972 27.097c0 5.355.218 10.68.218 16.04-.317 0 .52.376.819.485.409.15.888.232 1.315.334.98.233 2.243.121 3.213-.055.975-.177 1.757-.95 2.576-1.48.909-.587.26-1.985.26-2.933 0-1.336 1.573-1.724 2.571-2.025 1.355-.409 3.079-.067 4.45.085 1.707.19 3.355.572 5.043.873.769.137 1.518.32 2.291.436.266.04.838-.044 1.007.243.495.842.652 1.788.782 2.764.11.834.822 1.24 1.485 1.661.76.484 2.099.049 2.946.049.538 0 1.211.111 1.74-.006.367-.082.372-2.747.382-3.183.049-2.269.291-4.64.57-6.898.238-1.939.084-3.966.084-5.917v-7.42c0-2.174-.084-4.18-.709-6.262-.341-1.137-.821-1.91-1.91-2.455-1.274-.637-2.758-.513-4.146-.6a43.142 43.142 0 0 1-4.2-.485c-1.822-.294-3.596-.6-5.45-.6-1.84 0-3.796-.182-5.626.024-1.44.162-2.978.555-4.364.958-1.54.448-2.571 1.07-3.82 2.049-1.391 1.09-1.05 2.984-1.364 4.546-.26 1.304-.49 2.554-.49 3.886 0 1.978.327 3.925.327 5.886Z"/><path stroke="#171717" stroke-linecap="round" stroke-width="2" d="M14.625 37.682c2.037 0 4.205-.22 6.22.085.37.056.968.006 1.309.157.15.067.87.085.546.085M36.34 38.335h6.268c.887 0 1.714-.327 2.57-.327M21.718 29.933c-.997 0-.873.437-.873 1.31 0 .965.133 1.456 1.176 1.418.434-.016.829-.478 1.115-.764.307-.307.218-.679.218-1.091 0-.59-.819-1.2-1.418-1.2M38.632 29.17c-.357 0-.737-.04-1.091 0-.245.027-.925.992-1.086 1.206-.2.267-.639 1.888-.279 2.176.387.31 1.51.006 1.91-.194.271-.135 1.292-1.07.764-1.333M14.734 23.387c4.403 0 8.813.031 13.203-.213 1.482-.082 2.99-.006 4.474-.006 1.273 0 2.727-.195 3.977.055 1.066.213 2.147.363 3.218.497.76.095 1.493.395 2.274.43.735.034 1.395.328 2.146.328.395 0 .817.109 1.26.109M14.518 16.73h5.4c.696 0 1.629.095 2.232-.327.64-.449 1.65-.649 2.406-.819 1.583-.356 3.23-.818 4.862-.818h3.928c1.333 0 2.651-.11 3.977-.11 1.342 0 2.782-.155 4.061.328.559.211 1.15.37 1.722.521.548.145 2.203.461 1.636.461"/></g><defs><filter id="a" width="64" height="64" x="-2" y="-1" color-interpolation-filters="sRGB" filterUnits="userSpaceOnUse"><feFlood flood-opacity="0" result="BackgroundImageFix"/><feColorMatrix in="SourceAlpha" result="hardAlpha" values="0 0 0 0 0 0 0 0 0 0 0 0 0 0 0 0 0 0 127 0"/><feOffset dy="2"/><feGaussianBlur stdDeviation="1"/><feComposite in2="hardAlpha" operator="out"/><feColorMatrix values="0 0 0 0 0 0 0 0 0 0 0 0 0 0 0 0 0 0 0.02 0"/><feBlend in2="BackgroundImageFix" result="effect1_dropShadow_4128_23736"/><feColorMatrix in="SourceAlpha" result="hardAlpha" values="0 0 0 0 0 0 0 0 0 0 0 0 0 0 0 0 0 0 127 0"/><feOffset dy="4"/><feGaussianBlur stdDeviation="4"/><feComposite in2="hardAlpha" operator="out"/><feColorMatrix values="0 0 0 0 0 0 0 0 0 0 0 0 0 0 0 0 0 0 0.06 0"/><feBlend in2="effect1_dropShadow_4128_23736" result="effect2_dropShadow_4128_23736"/><feBlend in="SourceGraphic" in2="effect2_dropShadow_4128_23736" result="shape"/></filter></defs></svg>