<svg width="48" height="48" viewBox="0 0 48 48" fill="none" xmlns="http://www.w3.org/2000/svg">
<path d="M39 7.5H9C8.17157 7.5 7.5 8.17157 7.5 9V39C7.5 39.8284 8.17157 40.5 9 40.5H39C39.8284 40.5 40.5 39.8284 40.5 39V9C40.5 8.17157 39.8284 7.5 39 7.5Z" stroke="currentColor" stroke-width="2" stroke-linecap="round" stroke-linejoin="round"/>
<path d="M33 4.5V10.5" stroke="currentColor" stroke-width="2" stroke-linecap="round" stroke-linejoin="round"/>
<path d="M15 4.5V10.5" stroke="currentColor" stroke-width="2" stroke-linecap="round" stroke-linejoin="round"/>
<path d="M7.5 16.5H40.5" stroke="currentColor" stroke-width="2" stroke-linecap="round" stroke-linejoin="round"/>
<path d="M8.00781 11.8056C8.00781 10.7119 8.04294 10.0404 8.58317 9.09503C9.08372 8.21907 10.6822 8.5574 11.4855 8.3279C12.2186 8.11845 13.0535 8.00078 13.8125 7.89958C15.0014 7.74106 16.272 7.87177 17.4436 7.60551C19.5456 7.12778 21.8529 7.31783 24.0026 7.31783C24.9304 7.31783 25.759 7.77811 26.694 7.77811C27.4846 7.77811 28.2752 7.77811 29.0658 7.77811C29.8861 7.77811 30.6782 7.87145 31.4822 7.89318C32.3802 7.91745 33.2611 8.36645 34.1289 8.46854C34.5248 8.51512 34.875 8.69868 35.3371 8.69868C35.9125 8.69868 36.4878 8.69868 37.0632 8.69868C37.564 8.69868 38.4097 8.6177 38.8212 8.95439C39.0957 9.17902 39.6962 9.13176 39.8824 9.50417" stroke="currentColor" stroke-linecap="round"/>
<path d="M39.8847 9.50414C39.8847 11.2835 39.8847 13.0628 39.8847 14.8421C39.8847 15.9952 39.7728 17.3465 40.0893 18.4541C40.2087 18.8722 40.1149 19.4289 40.1149 19.8605C40.1149 20.3932 40.2299 20.887 40.2299 21.414C40.2299 22.2301 40.2299 23.0463 40.2299 23.8624C40.2299 25.1367 40.2299 26.411 40.2299 27.6853C40.2299 28.367 40.1149 29.0021 40.1149 29.6991C40.1149 30.3437 39.8847 30.9264 39.8847 31.5402C39.8847 32.2625 39.7764 32.9566 39.5651 33.6434C39.3663 34.2896 39.4244 34.9942 39.4244 35.6763C39.4244 36.3659 39.346 37.0368 39.3094 37.6965C39.2905 38.0355 39.1948 38.5295 39.0536 38.8472C38.8484 39.309 38.9459 39.3075 38.3632 39.3075C37.5087 39.3075 36.6542 39.3075 35.7997 39.3075C35.0237 39.3075 34.3527 39.5376 33.5558 39.5376C32.7241 39.5376 31.827 39.7677 30.9667 39.7677C30.1283 39.7677 29.3394 40.1129 28.4927 40.1129C26.1362 40.1129 23.9686 39.7666 21.646 39.4225C19.1366 39.0508 16.8147 38.502 14.2879 38.502C13.3844 38.502 12.4808 38.502 11.5773 38.502C10.8347 38.502 10.1831 38.8472 9.44851 38.8472C9.12055 38.8472 7.69434 39.0315 7.66491 38.502C7.64829 38.2028 7.8801 37.885 7.89506 37.5558C7.94968 36.3541 8.16204 35.1174 8.32977 33.9247C8.6781 31.4476 8.93069 29.0394 8.93069 26.5346C8.93069 25.1559 8.93069 23.7772 8.93069 22.3985C8.93069 21.1135 9.16083 19.8707 9.16083 18.5819C9.16083 17.4227 9.2786 16.1581 9.02019 15.0275C8.87795 14.4052 8.81562 13.5059 8.81562 12.8987C8.81562 12.2078 8.92827 11.4013 8.72612 10.7443C8.60096 10.3376 8.83743 8.65201 8.47041 8.46851" stroke="currentColor" stroke-linecap="round"/>
<path d="M7.89453 15.4877C9.39045 15.4877 10.8864 15.4877 12.3823 15.4877C13.1858 15.4877 13.979 15.3726 14.7988 15.3726C15.6796 15.3726 16.4761 15.1662 17.3303 15.1425C18.7282 15.1037 20.0687 14.9124 21.4729 14.9124C22.9603 14.9124 24.4477 14.9124 25.9351 14.9124C27.4216 14.9124 28.8593 15.2576 30.3333 15.2576C31.8292 15.2576 33.3252 15.2576 34.8211 15.2576C35.8347 15.2576 36.8042 15.4287 37.8129 15.3726C38.2499 15.3484 38.6959 14.9124 39.1938 14.9124C39.5523 14.9124 40.4101 15.0437 40.5746 15.3726" stroke="currentColor" stroke-linecap="round"/>
<path d="M32.0601 11.4603C32.0601 10.1774 31.7148 9.01497 31.7148 7.72051C31.7148 6.47391 31.7148 5.22731 31.7148 3.98071" stroke="currentColor" stroke-linecap="round"/>
<path d="M15.4897 11.5754C15.4897 9.92863 15.4995 8.27592 15.3747 6.65291C15.3409 6.21375 15.1445 5.81885 15.1445 5.36156C15.1445 4.90128 15.1445 4.441 15.1445 3.98071" stroke="currentColor" stroke-linecap="round"/>
<path d="M15.8335 32.2529C15.8335 32.8081 16.2835 33.2582 16.8387 33.2582H22.4865C22.9425 33.2582 23.3121 32.8885 23.3121 32.4326C23.3121 31.9766 22.9425 31.6069 22.4865 31.6069H18.6136C18.5844 31.6069 18.5607 31.5832 18.5607 31.554C18.5607 31.5401 18.5662 31.5268 18.5759 31.5169L20.4411 29.6201C22.5611 27.5852 23.147 26.5945 23.147 25.364C23.147 23.537 21.6609 22.2 19.4663 22.2C17.6477 22.2 16.2736 23.1491 15.8824 24.6833C15.7541 25.1864 16.1905 25.6144 16.7097 25.6144C17.2289 25.6144 17.6157 25.1688 17.8451 24.703C18.1254 24.1339 18.6917 23.8033 19.4396 23.8033C20.4783 23.8033 21.2507 24.4372 21.2507 25.4652C21.2507 26.3761 20.6967 27.0259 19.6207 28.1179L16.135 31.535C15.9421 31.7241 15.8335 31.9828 15.8335 32.2529Z" fill="currentColor"/>
<path d="M28.9425 33.4073C31.2489 33.4073 32.8576 31.8413 32.8576 29.6733C32.8576 27.5746 31.3981 26.0618 29.4165 26.0618C28.5411 26.0618 27.7648 26.4064 27.3566 26.8786C27.3488 26.8876 27.3376 26.8928 27.3257 26.8928C27.3016 26.8928 27.2828 26.8719 27.2854 26.8479L27.4547 25.2904C27.5344 24.5564 28.1541 24.0004 28.8924 24.0004H31.462C31.918 24.0004 32.2876 23.6307 32.2876 23.1747C32.2876 22.7188 31.918 22.3491 31.462 22.3491H28.7308C27.157 22.3491 25.8388 23.5405 25.6801 25.1062L25.505 26.8344C25.4401 27.4749 25.8847 28.0554 26.5199 28.1597C26.9278 28.2266 27.3363 28.0632 27.7046 27.8758C28.055 27.6976 28.4794 27.5926 28.8892 27.5959C30.0877 27.6012 30.9506 28.4855 30.9453 29.7213C30.9506 30.9411 30.109 31.8093 28.9425 31.8093C28.3066 31.8093 27.7506 31.5498 27.4175 31.1253C27.1013 30.7223 26.6987 30.2912 26.1864 30.2912C25.6335 30.2912 25.1735 30.7611 25.3711 31.2775C25.8608 32.5574 27.223 33.4073 28.9425 33.4073Z" fill="currentColor"/>
<path fill-rule="evenodd" clip-rule="evenodd" d="M28.4428 25.031C28.8273 24.5927 29.4629 24.349 30.0859 24.3613C30.7407 24.3742 31.4735 24.6079 32.1391 24.8991C32.3921 25.0098 32.687 24.8944 32.7976 24.6415C32.9083 24.3885 32.793 24.0936 32.54 23.983C31.8304 23.6725 30.9551 23.3782 30.1057 23.3615C29.241 23.3444 28.3024 23.6745 27.691 24.3716C27.3384 24.7737 27.0972 25.2978 26.9082 25.7085C26.8844 25.7603 26.8614 25.8103 26.8391 25.858C26.8297 25.878 26.8165 25.9045 26.8007 25.9364L26.8007 25.9364L26.8007 25.9364C26.7285 26.0815 26.6019 26.3361 26.5393 26.5763C26.4987 26.732 26.4688 26.9323 26.512 27.1418C26.5589 27.3689 26.6864 27.5768 26.9041 27.7251C27.146 27.8898 27.4205 27.9581 27.6427 27.9949C27.7847 28.0184 27.9532 28.0346 28.086 28.0473L28.086 28.0473L28.0861 28.0473C28.1453 28.053 28.1975 28.058 28.237 28.0627C29.0345 28.1569 29.6808 28.3433 30.1016 28.8498C30.3203 29.113 30.531 29.4791 30.6581 29.8634C30.787 30.2531 30.8131 30.6093 30.7326 30.8797C30.5839 31.3785 30.048 31.6323 29.5384 31.443C29.2764 31.3457 29.0561 31.187 28.8154 30.9769C28.748 30.9181 28.6734 30.8496 28.5935 30.7763L28.5935 30.7763C28.4148 30.6122 28.21 30.4243 28.0032 30.2684C27.3642 29.7865 26.631 29.792 26.0649 29.7962H26.0648C26.0137 29.7966 25.964 29.7969 25.9158 29.7969C25.6397 29.7969 25.4158 30.0208 25.4158 30.2969C25.4158 30.5731 25.6397 30.7969 25.9158 30.7969L26.0012 30.7969C26.6424 30.7964 27.0421 30.7961 27.4011 31.0668C27.5712 31.195 27.7104 31.3233 27.8664 31.467L27.8664 31.467C27.9552 31.5488 28.0494 31.6356 28.1577 31.7302C28.434 31.9714 28.7617 32.2213 29.1902 32.3804C30.1928 32.7528 31.3626 32.2672 31.6909 31.1653C31.8511 30.6278 31.7726 30.0485 31.6075 29.5494C31.4407 29.0449 31.1683 28.5688 30.8708 28.2108C30.188 27.389 29.196 27.1691 28.3543 27.0696C28.2675 27.0593 28.1929 27.0524 28.1232 27.046C28.0153 27.036 27.9188 27.027 27.806 27.0083C27.6568 26.9836 27.5569 26.951 27.4914 26.9137L27.4914 26.9133C27.4929 26.8931 27.4974 26.8651 27.5069 26.8286C27.5265 26.7533 27.561 26.6661 27.6063 26.5679C27.6285 26.5198 27.6516 26.4727 27.6754 26.4246L27.684 26.4071L27.684 26.4071C27.7043 26.366 27.7262 26.3218 27.7451 26.2813C27.7689 26.2302 27.7923 26.1797 27.8155 26.1298C28.0151 25.6993 28.1927 25.3162 28.4428 25.031ZM20.151 24.8554C19.8946 24.683 19.4802 24.6357 19.083 24.7095C18.8449 24.7537 18.6131 24.859 18.3369 25.0041C18.0686 25.1451 17.8407 25.2662 17.6369 25.4169C17.4871 25.5276 17.3502 25.6437 17.1996 25.7715C17.1385 25.8233 17.0751 25.8771 17.0076 25.9333C16.7953 26.1099 16.4801 26.081 16.3035 25.8687C16.1268 25.6564 16.1558 25.3412 16.368 25.1645C16.4193 25.1219 16.4731 25.0763 16.5288 25.029L16.5288 25.029L16.5289 25.0289L16.5289 25.0289L16.5289 25.0289C16.6883 24.8937 16.8637 24.7449 17.0424 24.6128C17.3142 24.4119 17.6063 24.2584 17.8618 24.1242L17.8718 24.1189C18.1607 23.9671 18.505 23.7997 18.9005 23.7263C19.4383 23.6264 20.1535 23.652 20.709 24.0256C21.0064 24.2256 21.1346 24.5088 21.153 24.7937C21.1687 25.0375 21.1024 25.2759 21.0608 25.4246C20.9907 25.6753 20.9014 25.9455 20.817 26.2008L20.817 26.2009L20.817 26.2009C20.764 26.361 20.713 26.5153 20.6699 26.6553C20.4898 27.24 20.285 27.8206 20.0567 28.3892C19.9334 28.6962 19.8545 28.8853 19.6833 29.1875C19.5664 29.3938 19.4258 29.5921 19.3036 29.7646L19.3036 29.7646L19.3035 29.7647C19.2737 29.8068 19.2449 29.8474 19.2179 29.8862C19.1502 29.9832 19.0543 30.0488 18.949 30.0798C18.8875 30.141 18.8224 30.2011 18.7532 30.2599C18.5623 30.4222 18.364 30.5808 18.1702 30.7354L18.145 30.7555L18.145 30.7555L18.145 30.7555C17.9581 30.9046 17.7755 31.0502 17.5977 31.1995C17.2278 31.5101 16.8983 31.8203 16.6388 32.1613C16.7258 32.1631 16.8243 32.1607 16.9309 32.1542C17.145 32.1412 17.3598 32.1139 17.5209 32.0896C18.0998 32.0024 18.6637 31.8675 19.2495 31.7273L19.2496 31.7273L19.2497 31.7273C19.4744 31.6735 19.7023 31.619 19.9355 31.5661C20.5853 31.4187 21.2179 31.241 21.8729 31.0543C22.249 30.9471 22.641 30.8616 23.0766 30.8616C23.3528 30.8616 23.5766 31.0855 23.5766 31.3616C23.5766 31.6378 23.3528 31.8616 23.0766 31.8616C22.7737 31.8616 22.483 31.9202 22.147 32.016C21.4928 32.2025 20.8362 32.3872 20.1568 32.5413C19.9491 32.5884 19.7366 32.6393 19.5207 32.6909L19.5207 32.6909C18.9209 32.8345 18.2943 32.9844 17.6699 33.0785C17.4918 33.1053 17.2455 33.1369 16.9916 33.1524C16.7458 33.1673 16.4581 33.1697 16.2118 33.1224C16.0247 33.0866 15.8158 33.007 15.6664 32.8274C15.5054 32.6338 15.4838 32.4106 15.5086 32.2395C15.5318 32.08 15.597 31.9403 15.653 31.8399C15.7118 31.7346 15.7799 31.639 15.8363 31.5645C16.1633 31.1327 16.5608 30.7643 16.9547 30.4337C17.1424 30.2761 17.3339 30.1233 17.5184 29.9762L17.5184 29.9761L17.5465 29.9537C17.7415 29.7981 17.9282 29.6487 18.1056 29.498C18.3925 29.2541 18.5899 28.9717 18.7985 28.5954C18.8228 28.5516 18.8463 28.5097 18.8689 28.4694L18.8689 28.4693C19.0214 28.1969 19.1338 27.9962 19.1808 27.7783C19.202 27.6798 19.2509 27.5944 19.3175 27.5284C19.461 27.1433 19.5934 26.7532 19.7142 26.3608C19.7718 26.174 19.8279 26.0052 19.8821 25.8422C19.9583 25.6129 20.0306 25.3952 20.0978 25.1553C20.1191 25.0788 20.1349 25.018 20.1449 24.9636C20.1549 24.9097 20.1562 24.8767 20.155 24.8582L20.151 24.8554ZM16.3659 32.1316L16.3681 32.1325C16.3666 32.1319 16.3659 32.1316 16.3659 32.1316Z" fill="currentColor"/>
</svg>
