<svg width="62" height="67" viewBox="0 0 62 67" fill="none" xmlns="http://www.w3.org/2000/svg">
<g filter="url(#filter0_dd_2974_21240)">
<mask id="path-1-outside-1_2974_21240" maskUnits="userSpaceOnUse" x="8" y="4.74609" width="46" height="50" fill="black">
<rect fill="white" x="8" y="4.74609" width="46" height="50"/>
<path fill-rule="evenodd" clip-rule="evenodd" d="M39 10.7461C39.5523 10.7461 40 11.1938 40 11.7461V14.2461H45.5455C46.9011 14.2461 48 15.345 48 16.7006V45.7915C48 47.1472 46.9011 48.2461 45.5455 48.2461H16.4545C15.0989 48.2461 14 47.1472 14 45.7915V16.7006C14 15.345 15.0989 14.2461 16.4545 14.2461H22V11.7461C22 11.1938 22.4477 10.7461 23 10.7461C23.5523 10.7461 24 11.1938 24 11.7461V14.2461H38V11.7461C38 11.1938 38.4477 10.7461 39 10.7461Z"/>
</mask>
<path fill-rule="evenodd" clip-rule="evenodd" d="M39 10.7461C39.5523 10.7461 40 11.1938 40 11.7461V14.2461H45.5455C46.9011 14.2461 48 15.345 48 16.7006V45.7915C48 47.1472 46.9011 48.2461 45.5455 48.2461H16.4545C15.0989 48.2461 14 47.1472 14 45.7915V16.7006C14 15.345 15.0989 14.2461 16.4545 14.2461H22V11.7461C22 11.1938 22.4477 10.7461 23 10.7461C23.5523 10.7461 24 11.1938 24 11.7461V14.2461H38V11.7461C38 11.1938 38.4477 10.7461 39 10.7461Z" fill="white"/>
<path d="M40 14.2461H34C34 17.5598 36.6863 20.2461 40 20.2461V14.2461ZM22 14.2461V20.2461C25.3137 20.2461 28 17.5598 28 14.2461H22ZM24 14.2461H18C18 17.5598 20.6863 20.2461 24 20.2461V14.2461ZM38 14.2461V20.2461C41.3137 20.2461 44 17.5598 44 14.2461H38ZM46 11.7461C46 7.8801 42.866 4.74609 39 4.74609V16.7461C36.2386 16.7461 34 14.5075 34 11.7461H46ZM46 14.2461V11.7461H34V14.2461H46ZM45.5455 8.24609H40V20.2461H45.5455V8.24609ZM54 16.7006C54 12.0313 50.2148 8.24609 45.5455 8.24609V20.2461C43.5873 20.2461 42 18.6587 42 16.7006H54ZM54 45.7915V16.7006H42V45.7915H54ZM45.5455 54.2461C50.2148 54.2461 54 50.4609 54 45.7915H42C42 43.8334 43.5874 42.2461 45.5455 42.2461V54.2461ZM16.4545 54.2461H45.5455V42.2461H16.4545V54.2461ZM8 45.7915C8 50.4609 11.7852 54.2461 16.4545 54.2461V42.2461C18.4126 42.2461 20 43.8334 20 45.7915H8ZM8 16.7006V45.7915H20V16.7006H8ZM16.4545 8.24609C11.7852 8.24609 8 12.0313 8 16.7006H20C20 18.6587 18.4126 20.2461 16.4545 20.2461V8.24609ZM22 8.24609H16.4545V20.2461H22V8.24609ZM28 14.2461V11.7461H16V14.2461H28ZM28 11.7461C28 14.5075 25.7614 16.7461 23 16.7461V4.74609C19.134 4.74609 16 7.8801 16 11.7461H28ZM23 16.7461C20.2386 16.7461 18 14.5075 18 11.7461H30C30 7.8801 26.866 4.74609 23 4.74609V16.7461ZM18 11.7461V14.2461H30V11.7461H18ZM38 8.24609H24V20.2461H38V8.24609ZM32 11.7461V14.2461H44V11.7461H32ZM39 4.74609C35.134 4.74609 32 7.8801 32 11.7461H44C44 14.5075 41.7614 16.7461 39 16.7461V4.74609Z" fill="white" mask="url(#path-1-outside-1_2974_21240)"/>
<path d="M45.5455 15.2461H16.4545C15.6512 15.2461 15 15.8973 15 16.7006V45.7915C15 46.5949 15.6512 47.2461 16.4545 47.2461H45.5455C46.3488 47.2461 47 46.5949 47 45.7915V16.7006C47 15.8973 46.3488 15.2461 45.5455 15.2461Z" stroke="#171717" stroke-width="2" stroke-linecap="round" stroke-linejoin="round"/>
<path d="M39 11.7461V17.7461" stroke="#171717" stroke-width="2" stroke-linecap="round" stroke-linejoin="round"/>
<path d="M23 11.7461V17.7461" stroke="#171717" stroke-width="2" stroke-linecap="round" stroke-linejoin="round"/>
<path d="M15 24.2461H47" stroke="#171717" stroke-width="2" stroke-linecap="round" stroke-linejoin="round"/>
<path d="M22.5639 39.799C22.5639 40.3543 23.014 40.8043 23.5692 40.8043H29.217C29.673 40.8043 30.0426 40.4347 30.0426 39.9787C30.0426 39.5227 29.673 39.1531 29.217 39.1531H25.3441C25.3149 39.1531 25.2912 39.1294 25.2912 39.1001C25.2912 39.0863 25.2966 39.0729 25.3064 39.063L27.1715 37.1662C29.2915 35.1314 29.8775 34.1406 29.8775 32.9102C29.8775 31.0831 28.3913 29.7461 26.1967 29.7461C24.3782 29.7461 23.004 30.6953 22.6128 32.2294C22.4845 32.7325 22.9209 33.1605 23.4402 33.1605C23.9594 33.1605 24.3462 32.7149 24.5756 32.2491C24.8559 31.68 25.4222 31.3494 26.1701 31.3494C27.2088 31.3494 27.9812 31.9833 27.9812 33.0114C27.9812 33.9222 27.4272 34.5721 26.3512 35.6641L22.8655 39.0812C22.6726 39.2702 22.5639 39.529 22.5639 39.799Z" fill="#171717"/>
<path d="M35.6729 40.9535C37.9794 40.9535 39.5881 39.3874 39.5881 37.2195C39.5881 35.1207 38.1286 33.608 36.147 33.608C35.2716 33.608 34.4953 33.9526 34.0871 34.4247C34.0793 34.4337 34.0681 34.4389 34.0561 34.4389C34.032 34.4389 34.0133 34.418 34.0159 34.3941L34.1851 32.8365C34.2649 32.1026 34.8846 31.5465 35.6229 31.5465H38.1925C38.6485 31.5465 39.0181 31.1769 39.0181 30.7209C39.0181 30.2649 38.6485 29.8952 38.1925 29.8952H35.4613C33.8875 29.8952 32.5693 31.0867 32.4106 32.6524L32.2355 34.3806C32.1706 35.0211 32.6151 35.6015 33.2504 35.7058C33.6582 35.7728 34.0667 35.6093 34.4351 35.422C34.7855 35.2438 35.2099 35.1387 35.6197 35.142C36.8182 35.1474 37.6811 36.0316 37.6758 37.2674C37.6811 38.4872 36.8395 39.3555 35.6729 39.3555C35.0371 39.3555 34.481 39.096 34.148 38.6714C33.8318 38.2684 33.4291 37.8374 32.9169 37.8374C32.364 37.8374 31.904 38.3073 32.1016 38.8237C32.5913 40.1036 33.9535 40.9535 35.6729 40.9535Z" fill="#171717"/>
<path d="M15.6242 47.1027C15.6242 44.0395 15.0419 41.1425 14.6114 38.1286C14.3673 36.4203 14.2396 34.6621 14.2396 32.9364C14.2396 32.0988 14.1433 31.1971 14.3037 30.3724C14.5073 29.3251 14.7094 28.3191 14.8421 27.257C15.1307 24.9489 15.1626 22.6605 15.1626 20.3341C15.1626 19.4111 15.1626 18.488 15.1626 17.565C15.1626 17.2332 14.7891 15.5851 15.1626 15.3983C15.5179 15.2207 16.2784 15.3727 16.669 15.3727C17.2447 15.3727 17.7909 15.2573 18.3677 15.2573C19.312 15.2573 20.2208 15.1419 21.1625 15.1419C23.2953 15.1419 25.5315 14.748 27.6495 15.1163C28.4546 15.2563 29.4024 15.211 30.22 15.2509C30.9341 15.2857 31.6545 15.4686 32.3545 15.4881C32.9242 15.5039 33.4728 15.6704 34.0404 15.7124C35.0598 15.788 36.0923 15.6426 37.1108 15.7445C39.4212 15.9755 41.8003 15.8342 44.1235 15.8342C44.6332 15.8342 45.4212 15.6832 45.8286 16.0906C46.6713 16.9333 46.7773 18.4241 46.7773 19.5265C46.7773 21.4385 46.3573 23.3912 45.9696 25.2571C45.6144 26.9664 45.7388 28.752 45.7388 30.4877C45.7388 32.2312 45.4654 34.2805 45.7645 36.0004C46.0522 37.6549 45.9466 39.4201 46.2901 41.0516C46.394 41.5452 46.4311 42.212 46.4311 42.7182C46.4311 43.2498 46.6465 43.7602 46.6619 44.2823C46.6773 44.8075 46.8936 46.4104 46.2004 46.4104C45.3515 46.4104 44.5643 46.5249 43.7774 46.8976C42.9001 47.3131 41.4842 47.1027 40.521 47.1027C37.3709 47.1027 34.2451 46.295 31.0853 46.295C27.8041 46.295 24.5342 46.654 21.2907 47.0771C20.3972 47.1936 19.5304 47.2181 18.6305 47.2181C18.0502 47.2181 17.346 47.3306 16.778 47.1925C16.1199 47.0324 15.5088 46.3115 15.5088 45.6028" stroke="#171717" stroke-width="2" stroke-linecap="round"/>
<path d="M23.2405 32.91C23.2405 32.2985 23.1698 31.9928 23.8174 31.7562C24.6376 31.4565 25.4886 30.9359 26.3622 30.8267C27.3366 30.7049 28.3173 30.5714 28.3173 31.8715C28.3173 32.6349 28.6616 33.5548 28.2917 34.2946C27.806 35.266 26.7334 35.784 26.2148 36.7176C25.9813 37.1378 25.5405 37.4375 25.3174 37.8714C24.9919 38.5043 24.7014 39.1806 24.0546 39.5444C23.7143 39.7358 23.2568 40.1114 22.9841 40.3842C22.733 40.6353 23.7205 40.0895 23.8238 40.0636C25.3238 39.6887 27.3671 39.3578 28.7788 40.0636" stroke="#171717" stroke-width="2" stroke-linecap="round"/>
<path d="M38.1238 30.3716C37.3182 30.3716 35.963 30.0995 35.2393 30.4613C34.5591 30.8014 33.5085 32.038 33.5085 32.8523C33.5085 33.3481 33.374 34.41 33.9701 34.41C34.8601 34.41 35.6494 33.9484 36.5662 33.9484C37.7386 33.9484 38.3622 35.125 38.8674 36.0894C39.393 37.0929 39.7728 38.1678 38.5854 38.7945C37.3985 39.4209 36.3036 39.8329 34.9508 39.8329C34.2972 39.8329 33.2212 39.1428 32.9316 38.5637" stroke="#171717" stroke-width="2" stroke-linecap="round"/>
<path d="M15.625 24.8335C17.6246 24.8335 19.6254 24.8557 21.6249 24.8335C23.1951 24.816 24.7991 24.0743 26.3619 23.8463C28.4364 23.5438 30.9742 22.5924 33.0733 23.2438C35.4276 23.9744 37.8626 23.5816 40.259 23.9681C41.7009 24.2007 43.278 24.7181 44.7012 24.7181" stroke="#171717" stroke-width="2" stroke-linecap="round"/>
<path d="M22.3167 17.9105C22.3167 16.51 22.2013 15.0883 22.2013 13.7055C22.2013 13.2242 22.0859 12.7558 22.0859 12.2568" stroke="#171717" stroke-width="2" stroke-linecap="round"/>
<path d="M38.585 18.026C38.3977 18.0026 38.3659 16.0802 38.2389 15.744C38.0545 15.2559 38.0081 14.9051 38.0081 14.3915C38.0081 13.3919 37.7773 12.4264 37.7773 11.4492" stroke="#171717" stroke-width="2" stroke-linecap="round"/>
</g>
<defs>
<filter id="filter0_dd_2974_21240" x="-1" y="0.746094" width="64" height="66" filterUnits="userSpaceOnUse" color-interpolation-filters="sRGB">
<feFlood flood-opacity="0" result="BackgroundImageFix"/>
<feColorMatrix in="SourceAlpha" type="matrix" values="0 0 0 0 0 0 0 0 0 0 0 0 0 0 0 0 0 0 127 0" result="hardAlpha"/>
<feOffset dy="2"/>
<feGaussianBlur stdDeviation="1"/>
<feComposite in2="hardAlpha" operator="out"/>
<feColorMatrix type="matrix" values="0 0 0 0 0 0 0 0 0 0 0 0 0 0 0 0 0 0 0.02 0"/>
<feBlend mode="normal" in2="BackgroundImageFix" result="effect1_dropShadow_2974_21240"/>
<feColorMatrix in="SourceAlpha" type="matrix" values="0 0 0 0 0 0 0 0 0 0 0 0 0 0 0 0 0 0 127 0" result="hardAlpha"/>
<feOffset dy="4"/>
<feGaussianBlur stdDeviation="4"/>
<feComposite in2="hardAlpha" operator="out"/>
<feColorMatrix type="matrix" values="0 0 0 0 0 0 0 0 0 0 0 0 0 0 0 0 0 0 0.06 0"/>
<feBlend mode="normal" in2="effect1_dropShadow_2974_21240" result="effect2_dropShadow_2974_21240"/>
<feBlend mode="normal" in="SourceGraphic" in2="effect2_dropShadow_2974_21240" result="shape"/>
</filter>
</defs>
</svg>
