<svg xmlns="http://www.w3.org/2000/svg" width="66" height="70" fill="none"><g filter="url(#a)"><mask id="b" width="49" height="53" x="8.928" y="4.746" fill="#000" maskUnits="userSpaceOnUse"><path fill="#fff" d="M8.928 4.746h49v53h-49z"/><path fill-rule="evenodd" d="M23.706 11.039a1 1 0 0 1 0 1.414l-7.071 7.071a1 1 0 0 1-1.414-1.414l7.07-7.071a1 1 0 0 1 1.415 0Zm9.291 6.707c-8.837 0-16 7.164-16 16 0 8.837 7.163 16 16 16s16-7.163 16-16-7.163-16-16-16Zm-18 16c0-9.941 8.059-18 18-18s18 8.059 18 18-8.059 18-18 18-18-8.059-18-18ZM42.29 12.453a1 1 0 0 1 1.414-1.414l7.071 7.071a1 1 0 0 1-1.414 1.414l-7.071-7.07Z" clip-rule="evenodd"/></mask><path fill="#fff" fill-rule="evenodd" d="M23.706 11.039a1 1 0 0 1 0 1.414l-7.071 7.071a1 1 0 0 1-1.414-1.414l7.07-7.071a1 1 0 0 1 1.415 0Zm9.291 6.707c-8.837 0-16 7.164-16 16 0 8.837 7.163 16 16 16s16-7.163 16-16-7.163-16-16-16Zm-18 16c0-9.941 8.059-18 18-18s18 8.059 18 18-8.059 18-18 18-18-8.059-18-18ZM42.29 12.453a1 1 0 0 1 1.414-1.414l7.071 7.071a1 1 0 0 1-1.414 1.414l-7.071-7.07Z" clip-rule="evenodd"/><path fill="#fff" d="m23.706 12.453 4.242 4.243-4.242-4.243Zm0-1.414 4.243-4.243-4.243 4.243Zm-7.071 8.485 4.242 4.243-4.242-4.243Zm-1.414 0-4.243 4.243 4.243-4.243Zm0-1.414 4.242 4.243-4.242-4.243Zm7.07-7.071L18.05 6.796l4.243 4.243Zm19.999 0 4.243 4.243-4.243-4.243Zm0 1.414 4.243-4.242-4.243 4.242Zm1.414-1.414-4.242 4.243 4.242-4.243Zm7.071 7.071 4.243-4.243-4.243 4.243Zm0 1.414 4.243 4.243-4.243-4.243Zm-1.414 0-4.242 4.243 4.242-4.243ZM27.95 16.696a7 7 0 0 0 0-9.9l-8.486 8.486a5 5 0 0 1 0-7.071l8.486 8.485Zm-7.072 7.07 7.072-7.07-8.486-8.485-7.07 7.07 8.485 8.486Zm-9.899 0a7 7 0 0 0 9.9 0l-8.486-8.484a5 5 0 0 1 7.071 0l-8.485 8.485Zm0-9.899a7 7 0 0 0 0 9.9l8.485-8.485a5 5 0 0 1 0 7.07l-8.485-8.485Zm7.071-7.07-7.071 7.07 8.485 8.486 7.071-7.071-8.485-8.486Zm9.9 0a7 7 0 0 0-9.9 0l8.485 8.485a5 5 0 0 1-7.07 0l8.485-8.486Zm-4.952 26.95c0-5.524 4.477-10 10-10v-12c-12.15 0-22 9.849-22 22h12Zm10 10c-5.523 0-10-4.478-10-10h-12c0 12.15 9.85 22 22 22v-12Zm10-10c0 5.522-4.477 10-10 10v12c12.15 0 22-9.85 22-22h-12Zm-10-10c5.523 0 10 4.476 10 10h12c0-12.151-9.85-22-22-22v12Zm0-14c-13.255 0-24 10.744-24 24h12c0-6.628 5.373-12 12-12v-12Zm24 24c0-13.256-10.745-24-24-24v12c6.627 0 12 5.372 12 12h12Zm-24 24c13.255 0 24-10.746 24-24h-12c0 6.627-5.373 12-12 12v12Zm-24-24c0 13.254 10.745 24 24 24v-12c-6.627 0-12-5.373-12-12h-12Zm29.05-26.95a7 7 0 0 0 0 9.899l8.486-8.485a5 5 0 0 1 0 7.07l-8.486-8.485Zm9.9 0a7 7 0 0 0-9.9 0l8.486 8.485a5 5 0 0 1-7.071 0l8.485-8.486Zm7.071 7.07-7.071-7.07-8.485 8.485 7.07 7.07 8.486-8.485Zm0 9.9a7 7 0 0 0 0-9.9l-8.485 8.486a5 5 0 0 1 0-7.071l8.485 8.485Zm-9.9 0a7 7 0 0 0 9.9 0l-8.485-8.485a5 5 0 0 1 7.07 0l-8.485 8.485Zm-7.07-7.071 7.07 7.07 8.486-8.484-7.071-7.071-8.486 8.485Z" mask="url(#b)"/><circle cx="32.998" cy="33.746" r="17" fill="#fff" stroke="#171717" stroke-width="2"/><path stroke="#171717" stroke-linecap="round" stroke-width="2" d="m22.998 11.746-7.071 7.071M42.998 11.746l7.071 7.071"/><path stroke="#000" stroke-linecap="round" stroke-linejoin="round" stroke-width="2" d="M32.998 23.746v10h10"/><path stroke="#171717" stroke-linecap="round" stroke-width="2" d="M19.75 43.899c-.025-.228-.324-.427-.43-.63-.219-.423-.454-.837-.67-1.262-.36-.706-.636-1.452-.991-2.161-.712-1.424-1.151-2.987-1.151-4.594 0-1.704-.098-3.442.09-5.135.225-2.028 1.06-4.117 2.162-5.835 1.217-1.896 2.612-3.502 4.414-4.884 1.775-1.361 3.622-3.011 5.765-3.738 2.233-.758 4.39-.505 6.665-.045 1.306.264 2.506.742 3.723 1.261 1.393.595 2.791 1.183 4.079 1.992 2.863 1.8 3.888 5.02 4.944 8.042 1.027 2.938 1.306 5.853 1.306 8.952 0 1.152-.423 2.215-.79 3.293-.399 1.167-1.018 2.344-1.592 3.433-.666 1.264-1.924 2.349-2.932 3.343-.988.973-2.194 1.88-3.453 2.462-1.952.9-3.861 1.617-5.955 2.127-1.082.263-2.145.315-3.253.315-1.164 0-2.198.04-3.303-.36-1.152-.417-2.269-1.07-3.363-1.622a9.235 9.235 0 0 1-2.432-1.761c-.49-.491-1.025-1.112-1.391-1.707-.232-.377-.669-.609-.81-1.036M15.238 19.044c.868-.964 1.797-1.862 2.714-2.78l1.386-1.386c.24-.24.723-.446.864-.765.248-.556.557-1.009 1.023-1.39.194-.159.38-.343.632-.415.27-.077.56-.123.794-.28M42.111 11.3c.149.034.353.33.46.435.256.247.516.57.728.857.397.535.886.997 1.261 1.555.138.204.253.435.405.629.241.308.65.523.956.765.557.44 1.207.919 1.68 1.452.473.532 1.038.884 1.626 1.29.357.248.723.577 1.092.762"/><path stroke="#171717" stroke-linecap="round" stroke-width="2" d="M32.936 23.244c0 1.123-.013 2.247 0 3.37.014 1.116.388 2.27.228 3.385-.12.843-.374 1.652-.517 2.49-.032.193-.318.907.02.907h4.317c.537 0 1.064-.12 1.599-.12h2.78c.439 0 .828.06 1.262.12.218.03.428.181.644.181"/></g><defs><filter id="a" width="64.141" height="69" x=".928" y=".746" color-interpolation-filters="sRGB" filterUnits="userSpaceOnUse"><feFlood flood-opacity="0" result="BackgroundImageFix"/><feColorMatrix in="SourceAlpha" result="hardAlpha" values="0 0 0 0 0 0 0 0 0 0 0 0 0 0 0 0 0 0 127 0"/><feOffset dy="2"/><feGaussianBlur stdDeviation="1"/><feComposite in2="hardAlpha" operator="out"/><feColorMatrix values="0 0 0 0 0 0 0 0 0 0 0 0 0 0 0 0 0 0 0.02 0"/><feBlend in2="BackgroundImageFix" result="effect1_dropShadow_2974_21104"/><feColorMatrix in="SourceAlpha" result="hardAlpha" values="0 0 0 0 0 0 0 0 0 0 0 0 0 0 0 0 0 0 127 0"/><feOffset dy="4"/><feGaussianBlur stdDeviation="4"/><feComposite in2="hardAlpha" operator="out"/><feColorMatrix values="0 0 0 0 0 0 0 0 0 0 0 0 0 0 0 0 0 0 0.06 0"/><feBlend in2="effect1_dropShadow_2974_21104" result="effect2_dropShadow_2974_21104"/><feBlend in="SourceGraphic" in2="effect2_dropShadow_2974_21104" result="shape"/></filter></defs></svg>