<svg width="48" height="48" viewBox="0 0 48 48" fill="none" xmlns="http://www.w3.org/2000/svg">
<path fill-rule="evenodd" clip-rule="evenodd" d="M35.9715 5.28722C36.3651 4.89985 36.9983 4.90496 37.3856 5.29861L43.7128 11.7285C44.1001 12.1222 44.095 12.7553 43.7014 13.1427C43.3077 13.5301 42.6746 13.525 42.2872 13.1313L35.9601 6.70139C35.5727 6.30773 35.5778 5.67458 35.9715 5.28722ZM8.57562 25.3087C8.57562 16.6274 15.4965 9.61749 24 9.61749C32.5035 9.61749 39.4244 16.6274 39.4244 25.3087C39.4244 33.99 32.5035 41 24 41C15.4965 41 8.57562 33.99 8.57562 25.3087ZM24 7.61749C14.3617 7.61749 6.57562 15.5534 6.57562 25.3087C6.57562 35.0641 14.3617 43 24 43C33.6384 43 41.4244 35.0641 41.4244 25.3087C41.4244 15.5534 33.6384 7.61749 24 7.61749ZM25 14.687C25 14.1348 24.5523 13.687 24 13.687C23.4477 13.687 23 14.1348 23 14.687V25.3087C23 25.861 23.4477 26.3087 24 26.3087H34.4519C35.0042 26.3087 35.4519 25.861 35.4519 25.3087C35.4519 24.7565 35.0042 24.3087 34.4519 24.3087H25V14.687ZM12.0399 6.70139C12.4273 6.30773 12.4222 5.67458 12.0285 5.28722C11.6348 4.89985 11.0017 4.90496 10.6143 5.29861L4.28722 11.7285C3.89985 12.1222 3.90496 12.7553 4.29861 13.1427C4.69227 13.5301 5.32542 13.525 5.71278 13.1313L12.0399 6.70139Z" fill="currentColor"/>
<path fill-rule="evenodd" clip-rule="evenodd" d="M24.3962 9.18088C24.6138 9.18388 24.8272 9.18683 25.0342 9.18683C25.3103 9.18683 25.5342 9.41068 25.5342 9.68683C25.5342 9.69814 25.5338 9.70937 25.5331 9.7205C25.8787 9.75996 26.2216 9.79116 26.5589 9.80917C28.5179 9.91378 30.276 10.1058 32.0661 11.2873C34.8516 13.1257 37.0525 15.611 38.6398 18.5278C39.9381 20.9135 39.8963 23.2744 39.3993 25.7834C38.8169 28.724 37.9333 32.2218 35.9524 34.7107C35.3398 35.4805 34.6058 36.1122 33.896 36.7037C33.8204 36.7667 33.7452 36.8292 33.6704 36.8913C33.0312 37.4221 32.4225 37.9276 31.8887 38.5083C30.6774 39.8261 29.6248 40.8065 27.5992 41.0013C27.4725 41.0135 27.3458 41.0257 27.219 41.038C24.2164 41.3282 21.1718 41.6224 18.0828 41.1037C16.5486 40.8461 15.161 40.4177 14.1036 39.0222C13.5078 38.2361 13.0203 37.3492 12.5603 36.5126C12.4513 36.3143 12.3438 36.1188 12.2368 35.9281C10.5142 32.8586 8.85036 29.7699 9.21467 25.9446C9.47385 23.2232 10.1339 20.271 11.5135 17.8185C11.7566 17.3862 12.0138 16.9639 12.2658 16.55L12.2693 16.5443C12.5216 16.1299 12.7688 15.724 13.0016 15.3111C13.1171 15.1063 13.234 14.8825 13.3553 14.6504C13.6225 14.139 13.911 13.5869 14.2525 13.1065C15.2481 11.7061 16.9729 10.8105 18.4406 10.2675C19.6168 9.83243 20.9226 9.40105 22.229 9.24634C22.9503 9.16092 23.6955 9.17121 24.3962 9.18088ZM23.2086 10.1804C22.9191 10.1883 22.6326 10.2055 22.3466 10.2394C21.1644 10.3794 19.9515 10.7748 18.7875 11.2054C17.3731 11.7286 15.8845 12.5369 15.0675 13.686C14.7649 14.1116 14.5331 14.5565 14.2852 15.0323C14.1562 15.28 14.0228 15.5361 13.8727 15.8023C13.6316 16.2299 13.377 16.6479 13.1275 17.0577L13.1199 17.0701C12.8665 17.4862 12.6184 17.894 12.3851 18.3087C11.0996 20.594 10.4622 23.3933 10.2102 26.0394C9.87923 29.5142 11.3728 32.3452 13.1089 35.4387C13.2255 35.6465 13.3394 35.8536 13.4526 36.0592C13.9099 36.8903 14.3534 37.6961 14.9006 38.4183C15.7241 39.505 16.7946 39.8734 18.2484 40.1175C21.204 40.6138 24.1295 40.3315 27.1665 40.0384C27.2787 40.0276 27.391 40.0167 27.5034 40.0059C29.1451 39.8481 29.9807 39.1063 31.1525 37.8316C31.7349 37.198 32.3976 36.648 33.0299 36.1232C33.1057 36.0603 33.1811 35.9978 33.2558 35.9355C33.9654 35.3441 34.6275 34.7696 35.17 34.088C36.9843 31.8083 37.8354 28.5327 38.4184 25.5891C38.8934 23.1912 38.9015 21.1008 37.7614 19.0058C36.2466 16.222 34.154 13.8635 31.5152 12.1219C29.9619 11.0967 28.4364 10.9109 26.5056 10.8077C25.5287 10.7556 24.5178 10.6001 23.5849 10.4566L23.5824 10.4562C23.4139 10.4302 23.278 10.3229 23.2086 10.1804Z" fill="currentColor"/>
<path fill-rule="evenodd" clip-rule="evenodd" d="M25.3087 13.6809C25.5848 13.6809 25.8087 13.9048 25.8087 14.1809V19.9794C25.8087 20.0108 25.8087 20.0421 25.8087 20.0733C25.8085 20.7527 25.8083 21.3781 25.9002 22.0063C25.9156 22.1117 25.9268 22.2404 25.9373 22.3611C25.9395 22.3867 25.9417 22.412 25.9439 22.4366C25.9573 22.5876 25.9725 22.7363 25.9965 22.876C26.0208 23.0177 26.0512 23.1305 26.0871 23.2131C26.1044 23.253 26.1204 23.2796 26.1328 23.2964C26.1388 23.3045 26.1435 23.3097 26.1466 23.3128L26.1501 23.3159L26.1509 23.3165C26.226 23.3679 26.3787 23.4022 26.6756 23.3875C26.7885 23.3818 26.9012 23.3709 27.0234 23.3591C27.0521 23.3563 27.0813 23.3535 27.1111 23.3507C27.2581 23.3368 27.4263 23.3225 27.584 23.3266C28.3084 23.3454 29.0464 23.4924 29.7268 23.628C29.9585 23.6741 30.1835 23.719 30.3991 23.7569C31.4046 23.9341 32.3946 23.9998 33.4248 24.068C33.7541 24.0899 34.0876 24.112 34.427 24.1381C34.7023 24.1593 34.9083 24.3996 34.8871 24.675C34.866 24.9503 34.6256 25.1563 34.3503 25.1351C34.0348 25.1109 33.7165 25.0898 33.3962 25.0686C32.354 24.9997 31.2896 24.9293 30.2255 24.7418C29.9612 24.6952 29.7062 24.6444 29.4572 24.5949C28.8028 24.4647 28.1898 24.3427 27.558 24.3263C27.4676 24.3239 27.3544 24.3322 27.2051 24.3463C27.1806 24.3486 27.155 24.3511 27.1286 24.3536C27.0053 24.3656 26.864 24.3793 26.7252 24.3862C26.4062 24.4021 25.9558 24.3943 25.5872 24.1425C25.3769 23.9989 25.2497 23.7953 25.1697 23.6112C25.0892 23.4258 25.042 23.2259 25.011 23.0454C24.9796 22.8631 24.9616 22.6802 24.9478 22.5254C24.945 22.4934 24.9423 22.4631 24.9398 22.4345C24.9294 22.3155 24.9215 22.2246 24.9108 22.1511C24.8079 21.4484 24.8083 20.7557 24.8086 20.094C24.8087 20.0557 24.8087 20.0175 24.8087 19.9794V14.1809C24.8087 13.9048 25.0325 13.6809 25.3087 13.6809Z" fill="currentColor"/>
<path fill-rule="evenodd" clip-rule="evenodd" d="M35.2271 6.15696C35.3531 5.91124 35.6544 5.8142 35.9001 5.94021C36.674 6.33707 37.2654 6.92858 37.767 7.54939C38.0643 7.91732 38.3571 8.33326 38.6349 8.72803C38.8064 8.97163 38.9722 9.20716 39.1299 9.41839C39.2792 9.61838 39.4368 9.81966 39.5972 10.0245C40.2231 10.8239 40.8919 11.678 41.2773 12.7241C41.3727 12.9833 41.2401 13.2707 40.981 13.3662C40.7218 13.4616 40.4344 13.329 40.3389 13.0698C40.013 12.1851 39.4694 11.4887 38.8586 10.7062C38.6861 10.4852 38.5083 10.2574 38.3285 10.0166C38.1319 9.75318 37.9537 9.49908 37.7793 9.2505C37.5229 8.88506 37.2749 8.53153 36.9892 8.17785C36.5299 7.60945 36.0422 7.13687 35.4438 6.83002C35.1981 6.70402 35.1011 6.40267 35.2271 6.15696Z" fill="currentColor"/>
<path fill-rule="evenodd" clip-rule="evenodd" d="M12.6126 6.12822C12.8557 6.25914 12.9467 6.56237 12.8157 6.80551C12.4772 7.43424 12.0125 7.84579 11.5369 8.18017C11.33 8.32568 11.1141 8.4611 10.9083 8.59023C10.8816 8.60699 10.855 8.62365 10.8287 8.6402C10.5948 8.78726 10.3716 8.93016 10.1561 9.08984C9.85038 9.3164 9.6551 9.62481 9.43888 10.0256C9.41187 10.0757 9.38426 10.1279 9.35578 10.1817C9.16961 10.5335 8.94658 10.955 8.61403 11.3118C8.04262 11.9248 7.56665 12.5712 7.06487 13.2527C6.92306 13.4453 6.77918 13.6407 6.6305 13.8389C6.46481 14.0598 6.15141 14.1046 5.9305 13.9389C5.70958 13.7732 5.66481 13.4598 5.8305 13.2389C5.96722 13.0566 6.10332 12.8717 6.24042 12.6854C6.7473 11.9967 7.26769 11.2896 7.8825 10.6299C8.11805 10.3772 8.27438 10.0838 8.46538 9.72538C8.4955 9.66885 8.52649 9.6107 8.55878 9.55084C8.78324 9.13476 9.06497 8.65379 9.5607 8.28641C9.80965 8.10193 10.0613 7.94144 10.2965 7.7936C10.3235 7.77659 10.3503 7.75978 10.3769 7.74313C10.5854 7.61225 10.7778 7.4915 10.9618 7.36214C11.3686 7.0761 11.698 6.77198 11.9353 6.33141C12.0662 6.08827 12.3694 5.9973 12.6126 6.12822Z" fill="currentColor"/>
</svg>
