<svg width="48" height="48" viewBox="0 0 48 48" fill="none" xmlns="http://www.w3.org/2000/svg">
<path d="M7.5 31.5L40.5 42" stroke="currentColor" stroke-width="2" stroke-linecap="round" stroke-linejoin="round"/>
<path d="M40.5 31.5L7.5 42" stroke="currentColor" stroke-width="2" stroke-linecap="round" stroke-linejoin="round"/>
<path d="M28.5 25.5C28.5 26.6935 28.0259 27.8381 27.182 28.682C26.3381 29.5259 25.1935 30 24 30C22.8065 30 21.6619 29.5259 20.818 28.682C19.9741 27.8381 19.5 26.6935 19.5 25.5C19.5 21 24 18 24 18C24 18 28.5 21 28.5 25.5Z" stroke="currentColor" stroke-width="2" stroke-linecap="round" stroke-linejoin="round"/>
<path d="M33.75 20.25C33.75 22.8359 32.7228 25.3158 30.8943 27.1443C29.0658 28.9728 26.5859 30 24 30C21.4141 30 18.9342 28.9728 17.1057 27.1443C15.2772 25.3158 14.25 22.8359 14.25 20.25C14.25 12 24 6 24 6C24 6 33.75 12 33.75 20.25Z" stroke="currentColor" stroke-width="2" stroke-linecap="round" stroke-linejoin="round"/>
<path d="M25.4553 29.5697C26.026 29.5697 27.0566 29.7634 27.5649 29.4585C27.8441 29.291 28.0654 29.0448 28.29 28.8116C28.4986 28.595 28.8946 28.1723 29.0152 27.9011C29.1535 27.5898 29.6209 27.184 29.868 26.9369C30.1014 26.7036 30.3139 26.3774 30.4984 26.1005C30.6284 25.9056 30.8513 25.6608 30.9434 25.4537C31.2712 24.7161 31.4267 23.8715 31.6109 23.0887C31.6983 22.7173 31.8482 22.3593 31.924 21.9886C31.9823 21.7035 32.0249 21.3341 32.1671 21.078C32.2821 20.8711 32.2118 20.498 32.2619 20.2663C32.346 19.8775 32.3663 19.4326 32.4226 19.0385C32.4902 18.5647 32.5037 18.2303 32.3154 17.7407C32.1155 17.2209 32.0434 16.6548 31.7757 16.1462C31.5244 15.6688 31.2398 15.2144 31.0011 14.737C30.6791 14.0931 30.1914 13.5031 29.7733 12.9242C29.5342 12.5931 29.2511 12.2023 29.0522 11.8488C28.8296 11.4529 28.4332 11.1783 28.1829 10.7899C27.7069 10.0513 26.9537 9.43025 26.3453 8.80397C25.9905 8.43877 25.7099 8.12422 25.274 7.93049C24.9983 7.80796 24.4467 8.01195 24.211 7.82337C24.0086 7.66145 23.4227 7.76569 23.1562 7.76569" stroke="currentColor" stroke-linecap="round"/>
<path d="M23.1547 7.76562C23.1547 8.29584 22.3987 8.95196 21.9681 9.19121C21.7393 9.31832 21.5719 9.5378 21.3583 9.69387C21.1059 9.87827 20.6574 10.1545 20.5013 10.4355C20.151 11.066 19.5239 11.5333 19.1663 12.1413C19.0455 12.3467 18.735 12.455 18.6142 12.6604C18.4351 12.9649 18.2939 13.2443 18.1486 13.5833C17.8439 14.2943 17.5537 15.1576 17.0733 15.7753C16.7749 16.159 16.2869 17.1284 16.2575 17.6294C16.2313 18.0743 16.0599 18.4523 15.9773 18.8901C15.8716 19.4506 15.8125 20.0255 15.8125 20.5959C15.8125 21.4214 15.8867 22.2652 15.8867 23.0763C15.8867 23.3434 16.0514 23.6915 16.2245 23.8962C16.5391 24.268 16.7118 24.6699 16.962 25.0869C17.2692 25.5988 17.5836 25.9812 18.1486 26.2323C18.6252 26.4441 19.0588 26.5623 19.5578 26.6732C19.8593 26.7402 19.8079 27.5686 20.1881 27.8062C20.5861 28.055 21.0315 28.3365 21.3748 28.6797C21.5664 28.8713 21.7654 29.0282 21.9681 29.1989C22.2603 29.4449 22.7092 29.3311 23.0393 29.4255C23.5777 29.5793 24.0902 29.718 24.6791 29.718C25.0227 29.718 26.1769 29.9033 26.3437 29.5697" stroke="currentColor" stroke-linecap="round"/>
<path d="M22.6379 28.9023C22.2711 28.8615 21.6991 28.2931 21.4348 28.0288C21.1351 27.7292 20.9257 27.3266 20.7467 26.9328C20.3865 26.1403 20.513 24.876 20.5613 24.0075C20.5935 23.4283 21.1169 22.886 21.3194 22.3594C21.5118 21.8593 22.0428 21.4181 22.3783 21.008C22.6632 20.6598 22.9803 20.3788 23.3795 20.1675C23.7048 19.9953 24.0262 19.7148 24.3807 19.636C25.5642 19.373 25.9221 20.6532 26.1812 21.5601C26.3555 22.17 26.8094 22.6345 27.03 23.2082C27.2948 23.8967 27.4549 24.5313 27.5368 25.2683C27.5926 25.7703 27.871 26.5815 27.6439 27.0812C27.4077 27.6008 27.0275 28.1743 26.4944 28.4408C25.8227 28.7766 25.0801 29.1248 24.3065 29.1248C23.9483 29.1248 22.6679 29.3331 22.4895 28.9765" stroke="currentColor" stroke-linecap="round"/>
<path d="M7.58203 30.5337C9.5877 30.5337 11.6688 30.721 13.5893 31.3495C14.2491 31.5654 14.8299 31.8955 15.4763 32.1282C15.9541 32.3002 16.3965 32.4503 16.8525 32.6844C18.008 33.2778 19.051 33.7225 20.3546 33.8875C22.1836 34.119 23.8235 34.7592 25.4554 35.5603C27.9768 36.7981 30.4759 38.2288 33.3744 38.3209C34.1216 38.3446 34.9233 38.5196 35.6158 38.8029C36.1489 39.021 36.6833 39.3453 37.2474 39.4498C37.818 39.5555 38.4786 39.7053 38.9902 39.9895C39.1875 40.0991 39.324 40.317 39.324 40.1749" stroke="currentColor" stroke-linecap="round"/>
<path d="M6.76562 41.3616C8.64794 41.3616 10.2688 41.0643 11.8252 40.0266C12.373 39.6615 12.976 39.4119 13.531 39.0625C13.7971 38.895 14.1304 38.7958 14.4127 38.6546C14.5793 38.5713 15.2779 38.4713 15.3686 38.358C15.4475 38.2593 15.9073 38.2597 16.0361 38.2302C16.438 38.1384 16.8573 38.0714 17.2515 37.9501C18.0252 37.712 18.8367 37.4707 19.5959 37.1755C20.4022 36.8619 21.3118 36.8131 22.1175 36.4998C22.612 36.3074 23.1385 36.1925 23.6584 36.0795C24.1864 35.9647 24.6449 35.732 25.1582 35.5933C26.5709 35.2115 27.7618 34.3626 29.1053 33.7804C29.4553 33.6288 29.8099 33.3303 30.1971 33.2819C30.4592 33.2491 30.7485 33.2235 31.0006 33.1459C31.5639 32.9726 32.2408 32.7402 32.8341 32.6886C33.754 32.6086 34.7262 32.4493 35.6152 32.2024C36.1743 32.0471 36.7269 31.8482 37.2839 31.7245C37.7164 31.6283 38.139 31.6119 38.5447 31.3866C38.8988 31.1898 39.9714 31.24 40.1392 30.9045" stroke="currentColor" stroke-linecap="round"/>
</svg>
