<svg xmlns="http://www.w3.org/2000/svg" width="66" height="67" fill="none"><g filter="url(#a)"><path fill="#fff" stroke="#fff" stroke-width="6" d="M37 33.076h1.4c9.057 0 16.6-7.135 16.6-16.13 0-5.077-4.123-9.2-9.2-9.2h-.2c-6.336 0-11.91 3.485-14.698 8.657A16.804 16.804 0 0 0 20.4 12.746h-.2c-5.077 0-9.2 4.123-9.2 9.2 0 8.995 7.543 16.13 16.6 16.13H29v9.4c0 2.207 1.793 4 4 4s4-1.793 4-4v-14.4Z"/><path stroke="#171717" stroke-width="2" d="M50.998 16.944a5.198 5.198 0 0 0-5.198-5.198h-.202c-6.959 0-12.6 5.43-12.6 12.128v5.198h5.4c6.959 0 12.6-5.43 12.6-12.128Z"/><path stroke="#171717" stroke-width="2" d="M15 21.944a5.198 5.198 0 0 1 5.198-5.198h.202c6.959 0 12.6 5.43 12.6 12.128v5.198h-5.4c-6.959 0-12.6-5.43-12.6-12.128Z"/><path stroke="#171717" stroke-linecap="round" stroke-width="2" d="M32.998 28.927v18.545M22 22.746c2 7 11 10 11 10M33 28.746s9-4 10.5-10"/><path stroke="#171717" stroke-linecap="round" stroke-width="2" d="M32.17 33.993h-4.674c-1.204 0-2.404-.462-3.56-.761-.9-.234-1.572-.801-2.364-1.237-.823-.452-1.636-.813-2.26-1.562-.541-.65-.959-1.402-1.404-2.116-.666-1.072-1.55-2.002-2.116-3.136-.986-1.971-.406-4.618.87-6.319 1.38-1.84 3.856-1.424 5.894-1.424 2.2 0 4.254.756 6.137 1.864 1.163.684 2.361 1.385 3.165 2.497.878 1.217.934 2.715.934 4.154 0 2.351.09 4.724.09 7.061M33.147 22.956c0-1.044-.16-2.23.055-3.253.258-1.237.836-2.397 1.409-3.511.682-1.327 2.064-2.219 3.293-2.977 1.35-.833 2.77-1.522 4.163-2.274 1.796-.97 3.625-1.158 5.628-1.158 1.253 0 2.266.909 2.967 1.89 1.068 1.494 1.71 3.387 1.71 5.211 0 1.127-.535 1.97-1.028 2.957-.562 1.125-1.314 2.146-2.107 3.115-.692.847-1.269 1.799-2.071 2.542-1.029.952-2.15 1.77-3.338 2.512-3.023 1.89-7.084 2.943-10.325.999"/><path stroke="#171717" stroke-linecap="round" stroke-width="2" d="M34.305 28.208c1.581 0 3.234-.744 4.406-1.785.857-.762 1.124-1.9 1.824-2.774.695-.869 1.4-1.802 1.914-2.79.462-.888.433-1.77.667-2.709M31.457 32.48c-1.558 0-3.03-.957-4.272-1.82-1.156-.802-2.164-1.558-2.933-2.759-.566-.886-.92-1.983-1.142-3.006-.058-.267-.123-1.19-.376-1.316M32.702 47.522c0-2.58-.029-5.163 0-7.743.012-1.014.273-2.171.49-3.16.286-1.306.4-2.64.667-3.941.316-1.54.607-3.124.09-4.648-.604-1.778-1.247-3.702-1.247-5.608"/></g><defs><filter id="a" width="66" height="65.73" x="0" y=".746" color-interpolation-filters="sRGB" filterUnits="userSpaceOnUse"><feFlood flood-opacity="0" result="BackgroundImageFix"/><feColorMatrix in="SourceAlpha" result="hardAlpha" values="0 0 0 0 0 0 0 0 0 0 0 0 0 0 0 0 0 0 127 0"/><feOffset dy="2"/><feGaussianBlur stdDeviation="1"/><feComposite in2="hardAlpha" operator="out"/><feColorMatrix values="0 0 0 0 0 0 0 0 0 0 0 0 0 0 0 0 0 0 0.02 0"/><feBlend in2="BackgroundImageFix" result="effect1_dropShadow_2974_21273"/><feColorMatrix in="SourceAlpha" result="hardAlpha" values="0 0 0 0 0 0 0 0 0 0 0 0 0 0 0 0 0 0 127 0"/><feOffset dy="4"/><feGaussianBlur stdDeviation="4"/><feComposite in2="hardAlpha" operator="out"/><feColorMatrix values="0 0 0 0 0 0 0 0 0 0 0 0 0 0 0 0 0 0 0.06 0"/><feBlend in2="effect1_dropShadow_2974_21273" result="effect2_dropShadow_2974_21273"/><feBlend in="SourceGraphic" in2="effect2_dropShadow_2974_21273" result="shape"/></filter></defs></svg>