<svg width="66" height="60" viewBox="0 0 66 60" fill="none" xmlns="http://www.w3.org/2000/svg">
<g filter="url(#filter0_dd_2974_21174)">
<mask id="path-1-outside-1_2974_21174" maskUnits="userSpaceOnUse" x="8" y="7.74609" width="50" height="40" fill="black">
<rect fill="white" x="8" y="7.74609" width="50" height="40"/>
<path fill-rule="evenodd" clip-rule="evenodd" d="M21 16.7461C21 15.0892 22.3431 13.7461 24 13.7461H26C27.6569 13.7461 29 15.0892 29 16.7461V26.7461H37V16.7461C37 15.0892 38.3431 13.7461 40 13.7461H42C43.6569 13.7461 45 15.0892 45 16.7461V18.7461H46C47.6569 18.7461 49 20.0892 49 21.7461V26.7461H51C51.5523 26.7461 52 27.1938 52 27.7461C52 28.2984 51.5523 28.7461 51 28.7461H49V33.7461C49 35.4029 47.6569 36.7461 46 36.7461H45V38.7461C45 40.4029 43.6569 41.7461 42 41.7461H40C38.3431 41.7461 37 40.4029 37 38.7461V28.7461H29V38.7461C29 40.4029 27.6569 41.7461 26 41.7461H24C22.3431 41.7461 21 40.4029 21 38.7461V36.7461H20C18.3431 36.7461 17 35.4029 17 33.7461V28.7461H15C14.4477 28.7461 14 28.2984 14 27.7461C14 27.1938 14.4477 26.7461 15 26.7461H17V21.7461C17 20.0892 18.3431 18.7461 20 18.7461H21V16.7461Z"/>
</mask>
<path fill-rule="evenodd" clip-rule="evenodd" d="M21 16.7461C21 15.0892 22.3431 13.7461 24 13.7461H26C27.6569 13.7461 29 15.0892 29 16.7461V26.7461H37V16.7461C37 15.0892 38.3431 13.7461 40 13.7461H42C43.6569 13.7461 45 15.0892 45 16.7461V18.7461H46C47.6569 18.7461 49 20.0892 49 21.7461V26.7461H51C51.5523 26.7461 52 27.1938 52 27.7461C52 28.2984 51.5523 28.7461 51 28.7461H49V33.7461C49 35.4029 47.6569 36.7461 46 36.7461H45V38.7461C45 40.4029 43.6569 41.7461 42 41.7461H40C38.3431 41.7461 37 40.4029 37 38.7461V28.7461H29V38.7461C29 40.4029 27.6569 41.7461 26 41.7461H24C22.3431 41.7461 21 40.4029 21 38.7461V36.7461H20C18.3431 36.7461 17 35.4029 17 33.7461V28.7461H15C14.4477 28.7461 14 28.2984 14 27.7461C14 27.1938 14.4477 26.7461 15 26.7461H17V21.7461C17 20.0892 18.3431 18.7461 20 18.7461H21V16.7461Z" fill="white"/>
<path d="M29 26.7461H23V32.7461H29V26.7461ZM37 26.7461V32.7461H43V26.7461H37ZM45 18.7461H39V24.7461H45V18.7461ZM49 26.7461H43V32.7461H49V26.7461ZM49 28.7461V22.7461H43V28.7461H49ZM45 36.7461V30.7461H39V36.7461H45ZM37 28.7461H43V22.7461H37V28.7461ZM29 28.7461V22.7461H23V28.7461H29ZM21 36.7461H27V30.7461H21V36.7461ZM17 28.7461H23V22.7461H17V28.7461ZM17 26.7461V32.7461H23V26.7461H17ZM21 18.7461V24.7461H27V18.7461H21ZM24 7.74609C19.0294 7.74609 15 11.7755 15 16.7461H27C27 18.4029 25.6569 19.7461 24 19.7461V7.74609ZM26 7.74609H24V19.7461H26V7.74609ZM35 16.7461C35 11.7755 30.9706 7.74609 26 7.74609V19.7461C24.3431 19.7461 23 18.4029 23 16.7461H35ZM35 26.7461V16.7461H23V26.7461H35ZM29 32.7461H37V20.7461H29V32.7461ZM43 26.7461V16.7461H31V26.7461H43ZM43 16.7461C43 18.4029 41.6569 19.7461 40 19.7461V7.74609C35.0294 7.74609 31 11.7755 31 16.7461H43ZM40 19.7461H42V7.74609H40V19.7461ZM42 19.7461C40.3431 19.7461 39 18.4029 39 16.7461H51C51 11.7755 46.9706 7.74609 42 7.74609V19.7461ZM39 16.7461V18.7461H51V16.7461H39ZM45 24.7461H46V12.7461H45V24.7461ZM46 24.7461C44.3431 24.7461 43 23.403 43 21.7461H55C55 16.7755 50.9706 12.7461 46 12.7461V24.7461ZM43 21.7461V26.7461H55V21.7461H43ZM49 32.7461H51V20.7461H49V32.7461ZM51 32.7461C48.2386 32.7461 46 30.5075 46 27.7461H58C58 23.8801 54.866 20.7461 51 20.7461V32.7461ZM46 27.7461C46 24.9847 48.2386 22.7461 51 22.7461V34.7461C54.866 34.7461 58 31.6121 58 27.7461H46ZM51 22.7461H49V34.7461H51V22.7461ZM43 28.7461V33.7461H55V28.7461H43ZM43 33.7461C43 32.0892 44.3431 30.7461 46 30.7461V42.7461C50.9706 42.7461 55 38.7167 55 33.7461H43ZM46 30.7461H45V42.7461H46V30.7461ZM39 36.7461V38.7461H51V36.7461H39ZM39 38.7461C39 37.0892 40.3431 35.7461 42 35.7461V47.7461C46.9706 47.7461 51 43.7167 51 38.7461H39ZM42 35.7461H40V47.7461H42V35.7461ZM40 35.7461C41.6569 35.7461 43 37.0892 43 38.7461H31C31 43.7167 35.0294 47.7461 40 47.7461V35.7461ZM43 38.7461V28.7461H31V38.7461H43ZM37 22.7461H29V34.7461H37V22.7461ZM35 38.7461V28.7461H23V38.7461H35ZM26 47.7461C30.9706 47.7461 35 43.7167 35 38.7461H23C23 37.0892 24.3431 35.7461 26 35.7461V47.7461ZM24 47.7461H26V35.7461H24V47.7461ZM15 38.7461C15 43.7167 19.0294 47.7461 24 47.7461V35.7461C25.6569 35.7461 27 37.0892 27 38.7461H15ZM15 36.7461V38.7461H27V36.7461H15ZM20 42.7461H21V30.7461H20V42.7461ZM11 33.7461C11 38.7167 15.0294 42.7461 20 42.7461V30.7461C21.6569 30.7461 23 32.0892 23 33.7461H11ZM11 28.7461V33.7461H23V28.7461H11ZM17 22.7461H15V34.7461H17V22.7461ZM15 22.7461C17.7614 22.7461 20 24.9847 20 27.7461H8C8 31.6121 11.134 34.7461 15 34.7461V22.7461ZM20 27.7461C20 30.5075 17.7614 32.7461 15 32.7461V20.7461C11.134 20.7461 8 23.8801 8 27.7461H20ZM15 32.7461H17V20.7461H15V32.7461ZM11 21.7461V26.7461H23V21.7461H11ZM20 12.7461C15.0294 12.7461 11 16.7755 11 21.7461H23C23 23.4029 21.6569 24.7461 20 24.7461V12.7461ZM21 12.7461H20V24.7461H21V12.7461ZM15 16.7461V18.7461H27V16.7461H15Z" fill="white" mask="url(#path-1-outside-1_2974_21174)"/>
<path d="M18 21.7461C18 20.6415 18.8954 19.7461 20 19.7461H22V35.7461H20C18.8954 35.7461 18 34.8507 18 33.7461V21.7461Z" stroke="#171717" stroke-width="2"/>
<path d="M22 16.7461C22 15.6415 22.8954 14.7461 24 14.7461H26C27.1046 14.7461 28 15.6415 28 16.7461V38.7461C28 39.8507 27.1046 40.7461 26 40.7461H24C22.8954 40.7461 22 39.8507 22 38.7461V16.7461Z" stroke="#171717" stroke-width="2"/>
<path d="M44 19.7461H46C47.1046 19.7461 48 20.6415 48 21.7461V33.7461C48 34.8507 47.1046 35.7461 46 35.7461H44V19.7461Z" stroke="#171717" stroke-width="2"/>
<path d="M38 16.7461C38 15.6415 38.8954 14.7461 40 14.7461H42C43.1046 14.7461 44 15.6415 44 16.7461V38.7461C44 39.8507 43.1046 40.7461 42 40.7461H40C38.8954 40.7461 38 39.8507 38 38.7461V16.7461Z" stroke="#171717" stroke-width="2"/>
<path d="M15 27.7461H51" stroke="#171717" stroke-width="2" stroke-linecap="round"/>
<path d="M21.0515 35.8698C20.4856 35.8698 19.8447 35.9584 19.3019 35.7774C18.5943 35.5416 17.7271 34.5692 17.7271 33.809C17.7271 32.8049 17.6176 31.792 17.6397 30.7763C17.6515 30.233 17.805 29.6674 17.9021 29.1335C18.0034 28.5764 18.015 28.0137 18.0965 27.4519C18.3981 25.3742 18.2432 23.2795 18.602 21.2162C18.891 19.5543 20.3228 19.5978 21.6639 19.5978" stroke="#171717" stroke-width="2" stroke-linecap="round"/>
<path d="M26.1241 40.3315C24.5989 40.3315 22.4619 40.53 22.1679 38.5818C21.9604 37.2071 22.0781 35.7047 22.0998 34.3145C22.1226 32.8535 22.1873 31.3885 22.1873 29.9209C22.1873 26.7769 22.0123 23.6157 22.0123 20.4726C22.0123 19.4697 21.6951 18.2202 21.9686 17.2357C22.1678 16.5185 22.8559 15.8354 23.4996 15.486C24.3317 15.0342 24.9032 14.7861 25.8616 14.7861C26.574 14.7861 27.3535 15.5058 27.8057 15.9915C28.5203 16.759 28.5425 18.4245 28.5736 19.4033C28.6257 21.0425 28.9099 22.6799 29.0062 24.317C29.1249 26.3356 29.0255 28.3922 28.7923 30.3972C28.6833 31.3352 28.5512 32.3514 28.2237 33.2404C27.9495 33.9845 27.5441 34.865 27.4363 35.6462C27.3062 36.5895 27.1739 37.4448 27.1739 38.4068C27.1739 38.6403 27.072 39.5929 26.7365 39.3691" stroke="#171717" stroke-width="2" stroke-linecap="round"/>
<path d="M39.1596 40.1565C39.1596 39.9798 39.0925 39.839 39.0284 39.6753C38.8682 39.2658 38.8346 38.8808 38.7611 38.4506C38.6262 37.6603 38.4853 36.8674 38.4598 36.0642C38.4153 34.6641 37.9545 33.284 37.8425 31.8844C37.7228 30.3879 37.5849 28.8908 37.5849 27.3838C37.5849 26.5758 37.5009 25.7169 37.6044 24.9148C37.7107 24.0911 37.8474 23.2281 37.8474 22.3972C37.8474 21.0447 37.8344 19.425 38.2848 18.13C38.5387 17.4 38.4606 16.241 38.9458 15.6172C39.4786 14.9322 40.6957 14.9611 41.5023 14.9611C41.8879 14.9611 42.2734 14.9611 42.659 14.9611C43.1032 14.9611 43.2479 15.1851 43.4852 15.5735C44.0384 16.4786 44.1462 17.552 44.1462 18.5917C44.1462 20.4499 44.1462 22.3081 44.1462 24.1664C44.1462 26.1488 43.9713 28.1128 43.9713 30.0958C43.9713 31.8535 43.8107 33.6577 43.4901 35.3886C43.3559 36.1133 43.6663 37.0651 43.4026 37.7507C43.2241 38.2148 43.5072 38.9787 43.0089 39.3011C42.771 39.455 42.6462 39.8914 42.348 39.9767C41.888 40.1081 41.5048 40.4513 41.0017 40.5016C40.3428 40.5675 39.6669 40.728 39.0722 40.3315" stroke="#171717" stroke-width="2" stroke-linecap="round"/>
<path d="M44.2344 35.6071C45.5328 35.6071 47.1782 35.8863 48.0351 34.6399C49.4988 32.5108 48.6869 29.8999 48.3267 27.5585C48.184 26.6313 47.9962 25.6093 47.9962 24.6716C47.9962 23.6942 47.8808 22.4508 47.3401 21.6096C46.8004 20.7702 46.2378 19.7725 45.1092 19.7725" stroke="#171717" stroke-width="2" stroke-linecap="round"/>
<path d="M14.4902 28.3457C15.1318 28.3457 15.7733 28.3457 16.4149 28.3457C17.2233 28.3457 18.0098 28.5206 18.8207 28.5206C20.5985 28.5206 22.343 28.4489 24.1135 28.3505C25.7427 28.26 27.3263 27.879 28.9445 27.7139C30.1542 27.5904 31.339 27.2917 32.5557 27.2132C33.2706 27.1671 34.002 27.2084 34.7185 27.2084C36.5111 27.2084 38.2873 27.3834 40.0793 27.3834C41.5228 27.3834 42.9663 27.3834 44.4098 27.3834C45.8712 27.3834 47.3204 27.6915 48.784 27.7333C49.1678 27.7443 49.5739 27.9083 49.9212 27.9083C50.1359 27.9083 50.0962 28.1559 50.0962 28.0832" stroke="#171717" stroke-width="2" stroke-linecap="round"/>
</g>
<defs>
<filter id="filter0_dd_2974_21174" x="0" y="-0.253906" width="66" height="64" filterUnits="userSpaceOnUse" color-interpolation-filters="sRGB">
<feFlood flood-opacity="0" result="BackgroundImageFix"/>
<feColorMatrix in="SourceAlpha" type="matrix" values="0 0 0 0 0 0 0 0 0 0 0 0 0 0 0 0 0 0 127 0" result="hardAlpha"/>
<feOffset dy="2"/>
<feGaussianBlur stdDeviation="1"/>
<feComposite in2="hardAlpha" operator="out"/>
<feColorMatrix type="matrix" values="0 0 0 0 0 0 0 0 0 0 0 0 0 0 0 0 0 0 0.02 0"/>
<feBlend mode="normal" in2="BackgroundImageFix" result="effect1_dropShadow_2974_21174"/>
<feColorMatrix in="SourceAlpha" type="matrix" values="0 0 0 0 0 0 0 0 0 0 0 0 0 0 0 0 0 0 127 0" result="hardAlpha"/>
<feOffset dy="4"/>
<feGaussianBlur stdDeviation="4"/>
<feComposite in2="hardAlpha" operator="out"/>
<feColorMatrix type="matrix" values="0 0 0 0 0 0 0 0 0 0 0 0 0 0 0 0 0 0 0.06 0"/>
<feBlend mode="normal" in2="effect1_dropShadow_2974_21174" result="effect2_dropShadow_2974_21174"/>
<feBlend mode="normal" in="SourceGraphic" in2="effect2_dropShadow_2974_21174" result="shape"/>
</filter>
</defs>
</svg>
