<svg width="48" height="48" viewBox="0 0 48 48" fill="none" xmlns="http://www.w3.org/2000/svg">
<path fill-rule="evenodd" clip-rule="evenodd" d="M11.6655 9C11.3011 9 10.9964 9.3423 10.9964 9.77778V38.2222C10.9964 38.6577 11.3011 39 11.6655 39H16.2909C16.6553 39 16.96 38.6577 16.96 38.2222V24.0062L16.96 24L16.96 23.9938V9.77778C16.96 9.3423 16.6553 9 16.2909 9H11.6655ZM18.7055 23V9.77778C18.7055 8.24957 17.6296 7 16.2909 7H11.6655C10.3268 7 9.25094 8.24957 9.25094 9.77778V12.3333H5.49817C4.85602 12.3333 4.24129 12.6275 3.7889 13.1491C3.3367 13.6705 3.08363 14.3764 3.08363 15.1111V23H0.872727C0.390733 23 0 23.4477 0 24C0 24.5523 0.390733 25 0.872727 25H3.08363V32.8889C3.08363 33.6236 3.3367 34.3294 3.7889 34.8508C4.24129 35.3725 4.85603 35.6666 5.49817 35.6666H9.25094V38.2222C9.25094 39.7504 10.3268 41 11.6655 41H16.2909C17.6296 41 18.7055 39.7504 18.7055 38.2222V25H29.2945V38.2222C29.2945 39.7504 30.3704 41 31.7091 41H36.3345C37.6732 41 38.7491 39.7504 38.7491 38.2222V35.6666H42.5018C43.144 35.6666 43.7587 35.3725 44.2111 34.8508C44.6633 34.3294 44.9164 33.6236 44.9164 32.8889V25H47.1273C47.6093 25 48 24.5523 48 24C48 23.4477 47.6093 23 47.1273 23H44.9164V15.1111C44.9164 14.3764 44.6633 13.6705 44.2111 13.1491C43.7587 12.6275 43.144 12.3333 42.5018 12.3333H38.7491V9.77778C38.7491 8.24957 37.6732 7 36.3345 7H31.7091C30.3704 7 29.2945 8.24957 29.2945 9.77778V23H18.7055ZM4.82908 24.0042V32.8889C4.82908 33.0972 4.9009 33.2957 5.02699 33.4411C5.15289 33.5862 5.32249 33.6666 5.49817 33.6666H9.25094V14.3333H5.49817C5.32249 14.3333 5.15289 14.4137 5.02699 14.5589C4.9009 14.7043 4.82908 14.9028 4.82908 15.1111V23.9958C4.82909 23.9972 4.82909 23.9986 4.82909 24C4.82909 24.0014 4.82909 24.0028 4.82908 24.0042ZM43.1709 32.8889V24.0056L43.1709 24L43.1709 23.9944V15.1111C43.1709 14.9028 43.0991 14.7043 42.973 14.5589C42.8471 14.4137 42.6775 14.3333 42.5018 14.3333H38.7491V33.6666H42.5018C42.6775 33.6666 42.8471 33.5862 42.973 33.4411C43.0991 33.2957 43.1709 33.0972 43.1709 32.8889ZM31.04 24.0084L31.04 24L31.04 23.9916V9.77778C31.04 9.3423 31.3447 9 31.7091 9H36.3345C36.6989 9 37.0036 9.3423 37.0036 9.77778V38.2222C37.0036 38.6577 36.6989 39 36.3345 39H31.7091C31.3447 39 31.04 38.6577 31.04 38.2222V24.0084Z" fill="currentColor"/>
<path fill-rule="evenodd" clip-rule="evenodd" d="M35.4086 8.65337C35.4568 8.65578 35.5046 8.65817 35.552 8.6605C35.5809 8.66192 35.6104 8.66323 35.6405 8.66457C35.9235 8.67716 36.2565 8.69197 36.5365 8.81791C36.9082 8.98508 37.1549 9.31824 37.2916 9.83301C37.3618 10.0972 37.2317 10.3765 37.0012 10.4569C36.7706 10.5373 36.5268 10.3884 36.4567 10.1242C36.382 9.84318 36.2951 9.78363 36.2176 9.74875C36.0812 9.68742 35.8964 9.67834 35.5391 9.66079L35.5146 9.65958C35.4842 9.65808 35.4538 9.65658 35.4234 9.65508C34.2929 9.59918 33.1605 9.54318 32.157 9.8679C31.9892 9.92218 31.9362 9.97576 31.9131 10.0075C31.8868 10.0437 31.8488 10.1216 31.8216 10.332C31.7656 10.7656 31.7724 11.2191 31.7987 11.7049C31.8067 11.8532 31.8168 12.0082 31.8272 12.1667C31.8496 12.5073 31.873 12.8642 31.8784 13.2059C31.8866 13.7152 31.8835 14.2077 31.8805 14.6921C31.8749 15.5845 31.8694 16.4495 31.9347 17.3416C31.9691 17.8115 32.0129 18.2955 32.0572 18.7852C32.125 19.5337 32.1939 20.2955 32.2322 21.0406C32.2854 22.0779 32.24 23.5825 32.1761 25.1561C32.159 25.5793 32.1404 26.0081 32.1219 26.4362C32.071 27.6133 32.0204 28.7839 31.9993 29.8119C31.9686 31.3101 31.9975 32.7816 32.0267 34.2665C32.0473 35.3144 32.0681 36.3689 32.0681 37.4442C32.0681 37.6405 32.0648 37.8268 32.0615 38.0073C32.0571 38.2513 32.0529 38.4847 32.0575 38.7182C32.2557 38.7142 32.4466 38.7034 32.6446 38.6922C32.8139 38.6826 32.9884 38.6727 33.1772 38.6665C33.4721 38.6569 33.6648 38.5617 33.9788 38.4066C34.0558 38.3686 34.1401 38.327 34.2349 38.2822C34.5017 38.1561 34.7712 38.0789 35.0214 38.0169C35.1145 37.9938 35.2017 37.9735 35.2858 37.9539C35.44 37.918 35.5837 37.8845 35.7341 37.841C35.9588 37.7759 36.1783 37.7026 36.3933 37.6172C36.4541 37.593 36.4821 37.5716 36.4943 37.5603C36.5045 37.5509 36.5125 37.5408 36.5221 37.5206C36.5339 37.4958 36.5484 37.4553 36.5661 37.3818C36.5808 37.3208 36.5937 37.2557 36.6105 37.1709C36.6149 37.1486 36.6196 37.125 36.6246 37.0997C36.8753 35.8442 36.8934 34.5711 36.9125 33.231C36.9153 33.0404 36.918 32.8484 36.9214 32.6549C36.928 32.2854 36.9387 31.9257 36.9493 31.57C36.9657 31.0199 36.9818 30.4792 36.9818 29.9261C36.9818 29.65 37.1772 29.4261 37.4182 29.4261C37.6592 29.4261 37.8545 29.65 37.8545 29.9261C37.8545 30.4898 37.8375 31.0677 37.8207 31.6351C37.8103 31.9878 37.8 32.3365 37.794 32.6753C37.7907 32.8625 37.7881 33.0511 37.7854 33.2408C37.7671 34.5715 37.7479 35.9574 37.4754 37.3227C37.4712 37.3434 37.467 37.3651 37.4626 37.3877C37.4274 37.5687 37.3819 37.8028 37.2883 37.9993C37.1602 38.2686 36.9602 38.4504 36.6791 38.562C36.4366 38.6584 36.1927 38.7396 35.948 38.8105C35.7789 38.8595 35.5988 38.9015 35.4318 38.9405C35.3527 38.959 35.2766 38.9768 35.2058 38.9943C34.9719 39.0523 34.7623 39.1147 34.5677 39.2067C34.5039 39.2368 34.4391 39.2693 34.3729 39.3025C34.0446 39.4671 33.679 39.6505 33.2021 39.6661C33.0533 39.671 32.8926 39.6799 32.7269 39.689C32.4548 39.704 32.1693 39.7198 31.901 39.7198C31.8882 39.7198 31.8811 39.7203 31.8682 39.7212C31.858 39.7219 31.8443 39.7228 31.8212 39.7239L31.8209 39.7239C31.788 39.7256 31.7092 39.7295 31.6239 39.7074C31.523 39.6812 31.4001 39.6157 31.309 39.4726C31.2272 39.3439 31.2051 39.2048 31.1992 39.1063C31.1759 38.7194 31.183 38.3091 31.1896 37.929C31.1925 37.7598 31.1954 37.5966 31.1954 37.4442C31.1954 36.4224 31.1752 35.3823 31.1549 34.3358C31.1256 32.8214 31.0959 31.2936 31.1268 29.7884C31.1482 28.7463 31.1997 27.5557 31.2508 26.3741C31.2692 25.949 31.2875 25.525 31.3044 25.1096C31.3686 23.5261 31.4111 22.0749 31.361 21.0993C31.3233 20.3649 31.2587 19.6548 31.1929 18.9321C31.1481 18.4396 31.1027 17.9412 31.065 17.4251C30.9967 16.4918 31.0023 15.5428 31.0077 14.619C31.0104 14.1456 31.0131 13.6788 31.0059 13.2242C31.0008 12.9103 30.9806 12.6033 30.9593 12.2797C30.9484 12.1141 30.9372 11.9442 30.9276 11.7667C30.9003 11.2612 30.8887 10.7243 30.9583 10.1856C30.9956 9.89656 31.0679 9.60764 31.2427 9.36729C31.4207 9.12243 31.6597 8.98969 31.9198 8.90553C33.0617 8.53606 34.3201 8.59896 35.4086 8.65337ZM31.7711 38.7252C31.7711 38.7251 31.772 38.7251 31.7735 38.7252C31.7718 38.7252 31.7711 38.7252 31.7711 38.7252Z" fill="currentColor"/>
<path fill-rule="evenodd" clip-rule="evenodd" d="M37.3032 9.87699C37.5435 9.89816 37.7233 10.1385 37.7048 10.4139C37.7005 10.4772 37.6966 10.543 37.6925 10.6107C37.6707 10.9723 37.6456 11.3888 37.5548 11.7914C37.5017 12.0267 37.4353 12.2584 37.3741 12.4719C37.3621 12.5137 37.3504 12.5548 37.3389 12.5951C37.2667 12.8494 37.2047 13.0823 37.1651 13.3166C36.8517 15.1718 36.942 17.1427 37.0322 19.1097C37.0415 19.3142 37.0509 19.5187 37.0598 19.723C37.1467 21.7145 37.1164 23.7037 37.074 25.6759C37.0473 26.9168 37.2498 28.0831 37.4646 29.3208C37.5451 29.7845 37.6274 30.2582 37.6999 30.7496C37.7402 31.0219 37.5801 31.28 37.3425 31.326C37.1049 31.3721 36.8797 31.1887 36.8395 30.9165C36.7762 30.4882 36.7005 30.0525 36.6237 29.6104C36.4027 28.3384 36.1722 27.0123 36.2015 25.6512C36.2439 23.6799 36.2733 21.7236 36.1882 19.7729C36.1793 19.568 36.1697 19.3611 36.1601 19.1524C36.0701 17.206 35.9733 15.1097 36.3083 13.1265C36.3588 12.8273 36.4355 12.5445 36.509 12.2856C36.522 12.24 36.5348 12.1953 36.5474 12.1514C36.6084 11.9382 36.6644 11.7424 36.7098 11.5412C36.7787 11.2357 36.7978 10.9264 36.8201 10.565C36.8247 10.4913 36.8294 10.4155 36.8346 10.3372C36.8531 10.0618 37.0629 9.85581 37.3032 9.87699Z" fill="currentColor"/>
<path fill-rule="evenodd" clip-rule="evenodd" d="M38.0703 14.5688C38.0703 14.2927 38.2657 14.0688 38.5067 14.0688C39.3252 14.0688 40.1445 14.0944 40.973 14.1944C41.4759 14.255 41.963 14.4057 42.4235 14.6319C42.8201 14.8266 43.1381 15.0886 43.3382 15.4812C43.5354 15.8679 43.5828 16.3126 43.5641 16.7889C43.5435 17.311 43.4897 17.8303 43.4381 18.3279C43.4258 18.4466 43.4137 18.564 43.4021 18.68C43.341 19.2927 43.295 19.8785 43.3168 20.4664C43.3484 21.316 43.4797 22.1493 43.6172 23.0215C43.6317 23.1132 43.6462 23.2053 43.6607 23.2979C43.8107 24.2577 43.9549 25.2635 43.9353 26.3069C43.9195 27.1548 43.8467 27.679 43.7131 28.4663C43.6739 28.6974 43.6261 28.9243 43.5806 29.1393C43.5804 29.1414 43.5793 29.1505 43.5778 29.1716C43.5776 29.1752 43.5773 29.18 43.5769 29.1857C43.5751 29.2141 43.5718 29.2649 43.5664 29.3099C43.561 29.3551 43.5486 29.4475 43.5082 29.5485C43.5126 29.6522 43.5171 29.7562 43.5217 29.8603C43.5566 30.6621 43.592 31.4736 43.592 32.2937C43.592 32.4781 43.5922 32.6634 43.5925 32.8491C43.593 33.2222 43.5935 33.5972 43.592 33.9709C43.5918 34.0231 43.5927 34.0554 43.5937 34.0931C43.5947 34.1273 43.5958 34.166 43.5963 34.228C43.597 34.3237 43.5949 34.4493 43.5718 34.5783C43.5479 34.7122 43.4986 34.8662 43.3951 35.0054C43.2903 35.1464 43.1541 35.2394 43.0026 35.2949C42.5067 35.4764 42.0548 35.3545 41.6823 35.2153C41.5593 35.1693 41.4326 35.1238 41.3033 35.0775C40.8417 34.9119 40.3481 34.7348 39.882 34.4842C39.6921 34.3821 39.5041 34.2606 39.3332 34.1501C39.2866 34.1199 39.2412 34.0906 39.1974 34.0627C38.9829 33.9262 38.7902 33.8129 38.5945 33.7368C38.4441 33.6783 38.2064 33.5658 38.114 33.2527C38.0803 33.1385 38.0775 33.0279 38.0761 32.9736L38.0761 32.9734C38.0754 32.9477 38.0751 32.9264 38.0748 32.9065C38.0742 32.8688 38.0737 32.8365 38.0712 32.7908C38.0561 32.5152 38.2389 32.2778 38.4795 32.2606C38.72 32.2434 38.9272 32.4528 38.9422 32.7284C38.944 32.7611 38.9451 32.7913 38.9459 32.8186C39.1923 32.9225 39.4182 33.0593 39.6214 33.1887C39.6761 33.2235 39.7286 33.2574 39.7796 33.2903C39.9455 33.3975 40.0953 33.4943 40.2527 33.5789C40.6601 33.7979 41.078 33.9481 41.5293 34.1103C41.6672 34.1598 41.8081 34.2105 41.9528 34.2645C42.2716 34.3836 42.4995 34.4232 42.7206 34.3481C42.7227 34.3235 42.724 34.2884 42.7236 34.237C42.7233 34.2051 42.7226 34.1728 42.7217 34.1349L42.7212 34.1148C42.7201 34.0703 42.719 34.019 42.7193 33.9663C42.7207 33.5955 42.7203 33.2261 42.7198 32.8548C42.7195 32.6684 42.7193 32.4814 42.7193 32.2937C42.7193 31.501 42.6853 30.7215 42.6505 29.9226C42.6458 29.8127 42.641 29.7025 42.6362 29.5918C42.6246 29.5585 42.6182 29.531 42.615 29.5144C42.6003 29.4405 42.603 29.3784 42.6043 29.3555C42.6059 29.3255 42.6091 29.2996 42.6114 29.2837C42.6135 29.268 42.6172 29.2456 42.6197 29.2307L42.6187 29.1848L42.6185 29.1713L42.6186 29.157C42.6187 29.154 42.6188 29.1472 42.6192 29.1388C42.6194 29.1346 42.6198 29.1273 42.6206 29.1183C42.6212 29.1118 42.6229 29.0921 42.6272 29.0673C42.6293 29.0556 42.6341 29.03 42.6438 28.9987L42.6443 28.9973C42.6496 28.9797 42.6778 28.8878 42.7533 28.805C42.7914 28.6238 42.8269 28.4495 42.8564 28.2755C42.9851 27.517 43.0484 27.0543 43.0628 26.2855C43.0803 25.3521 42.9517 24.4342 42.8016 23.4743C42.7871 23.3814 42.7724 23.2881 42.7575 23.1943C42.6214 22.3322 42.4791 21.4309 42.4449 20.5089C42.42 19.8385 42.4731 19.1878 42.535 18.5665C42.5475 18.4408 42.5604 18.3168 42.5731 18.1941C42.6242 17.6997 42.6732 17.2258 42.6922 16.7438C42.7073 16.3599 42.6617 16.1367 42.5847 15.9857C42.5107 15.8406 42.3735 15.6953 42.0798 15.551C41.6951 15.3621 41.2928 15.2385 40.8816 15.1889C40.0961 15.0941 39.3108 15.0688 38.5067 15.0688C38.2657 15.0688 38.0703 14.845 38.0703 14.5688ZM42.7011 29.1789C42.701 29.1789 42.7012 29.1781 42.7014 29.1764L42.7011 29.1789ZM42.6236 29.2066C42.6237 29.2065 42.6235 29.208 42.623 29.2113C42.6233 29.2082 42.6236 29.2066 42.6236 29.2066Z" fill="currentColor"/>
<path fill-rule="evenodd" clip-rule="evenodd" d="M38.8016 14.1821C39.0426 14.1821 39.238 14.406 39.238 14.6821C39.238 15.8321 39.2596 16.9831 39.2813 18.1403C39.2831 18.2309 39.2848 18.3215 39.2864 18.4122C39.3097 19.6589 39.3312 20.9123 39.3231 22.1661C39.32 22.6565 39.2848 23.1829 39.2506 23.6937C39.2328 23.9599 39.2153 24.2219 39.2028 24.4723C39.1647 25.2327 39.167 25.942 39.298 26.5855C39.3456 26.819 39.355 27.0702 39.3569 27.2821C39.3579 27.3858 39.3573 27.474 39.3567 27.5546C39.356 27.6619 39.3553 27.7557 39.3586 27.8546C39.398 29.0567 39.4316 30.2626 39.4358 31.4731C39.4374 31.9235 39.4368 32.375 39.4363 32.825C39.4361 33.0492 39.4358 33.2731 39.4358 33.4963C39.4358 33.7724 39.2404 33.9963 38.9994 33.9963C38.7585 33.9963 38.5631 33.7724 38.5631 33.4963C38.5631 33.2703 38.5633 33.045 38.5636 32.8201C38.5641 32.3717 38.5646 31.9249 38.5631 31.477C38.559 30.284 38.5258 29.0917 38.4865 27.8922C38.4828 27.7799 38.4834 27.6386 38.4841 27.5073C38.4844 27.4295 38.4848 27.3553 38.4842 27.2926C38.4824 27.0942 38.4729 26.9343 38.4481 26.8127C38.2877 26.0251 38.2922 25.1988 38.3315 24.4149C38.3462 24.1209 38.3652 23.8387 38.3837 23.5642C38.4164 23.0791 38.4475 22.6181 38.4504 22.1588C38.4584 20.9211 38.4372 19.6809 38.4139 18.4336C38.4122 18.3423 38.4105 18.2511 38.4088 18.1598C38.3871 17.0048 38.3653 15.8434 38.3653 14.6821C38.3653 14.406 38.5606 14.1821 38.8016 14.1821Z" fill="currentColor"/>
<path d="M44.6875 22.6727C45.0892 22.6727 45.5191 22.7249 45.9157 22.6412C46.1269 22.5966 46.2997 22.5593 46.5174 22.5593" stroke="currentColor" stroke-linecap="round"/>
<path fill-rule="evenodd" clip-rule="evenodd" d="M17.9448 24.8206C17.9747 24.5466 18.1928 24.3522 18.4319 24.3865C18.5373 24.4016 18.6462 24.416 18.7575 24.4307C19.1386 24.4811 19.5478 24.5353 19.9406 24.6333C20.1304 24.6807 20.3186 24.7434 20.4894 24.8003C20.5298 24.8137 20.5692 24.8268 20.6074 24.8394C20.8161 24.9077 21.0033 24.9632 21.1905 24.9914C21.5424 25.0443 21.902 25.0278 22.297 24.9947C23.8994 24.8605 25.5226 24.8919 27.121 24.9229C27.8062 24.9361 28.4869 24.9493 29.1594 24.9493C29.4004 24.9493 29.5957 25.1732 29.5957 25.4493C29.5957 25.7255 29.4004 25.9493 29.1594 25.9493C28.4546 25.9493 27.7559 25.9357 27.0613 25.9222C25.4814 25.8915 23.9224 25.8613 22.3607 25.9921C21.9567 26.0259 21.5222 26.0499 21.0768 25.9828C20.8221 25.9445 20.583 25.8714 20.3675 25.8008C20.3213 25.7857 20.2766 25.7708 20.2329 25.7563C20.0648 25.7004 19.9126 25.6498 19.7549 25.6104C19.4086 25.524 19.0588 25.4776 18.6865 25.4282C18.568 25.4125 18.4473 25.3965 18.3237 25.3788C18.0846 25.3445 17.9149 25.0946 17.9448 24.8206Z" fill="currentColor"/>
<path fill-rule="evenodd" clip-rule="evenodd" d="M28.4252 23.4453C27.4111 23.2007 26.3413 23.1048 25.3394 23.2595C23.5568 23.5348 21.7329 23.5042 19.957 23.4744C19.4082 23.4652 18.864 23.456 18.327 23.456C18.086 23.456 17.8906 23.2322 17.8906 22.956C17.8906 22.6799 18.086 22.456 18.327 22.456C18.8929 22.456 19.4558 22.4654 20.0159 22.4747C21.7775 22.504 23.5109 22.5328 25.2229 22.2685C26.3479 22.0948 27.5209 22.2053 28.605 22.4668C28.8408 22.5237 28.9917 22.7888 28.9421 23.059C28.8924 23.3293 28.661 23.5022 28.4252 23.4453Z" fill="currentColor"/>
<path fill-rule="evenodd" clip-rule="evenodd" d="M11.8827 9.62115C11.6724 9.75615 11.5167 9.97918 11.493 10.4072C11.4777 10.6828 11.2703 10.892 11.0298 10.8745C10.7893 10.857 10.6067 10.6194 10.622 10.3438C10.6638 9.58877 10.9788 9.0552 11.4561 8.74878C11.9044 8.4609 12.4541 8.39888 12.9629 8.44121C13.5336 8.48869 14.1122 8.60907 14.6596 8.72294C14.8462 8.76178 15.0292 8.79985 15.2071 8.83402C15.65 8.91914 16.1624 9.02171 16.5789 9.29812C17.0353 9.60097 17.3522 10.0915 17.4463 10.8498C17.551 11.694 17.4741 12.5326 17.3947 13.3093C17.3896 13.3593 17.3845 13.4091 17.3794 13.4586C17.3034 14.1977 17.2332 14.8802 17.279 15.5568C17.3118 16.042 17.3381 16.211 17.3629 16.3698C17.3638 16.3756 17.3647 16.3815 17.3657 16.3874C17.3964 16.5846 17.4245 16.7796 17.4552 17.313C17.5014 18.1179 17.4327 18.8779 17.3178 19.638C17.2869 19.8428 17.2538 20.0414 17.2215 20.2351C17.0895 21.0275 16.9713 21.7368 17.0714 22.4483C17.1101 22.7238 17.1699 23.0003 17.2359 23.2988C17.2396 23.3155 17.2433 23.3323 17.2471 23.3491C17.3086 23.6268 17.3745 23.9247 17.4218 24.2282C17.4642 24.5 17.3062 24.7598 17.069 24.8083C16.8317 24.8569 16.6051 24.6758 16.5627 24.404C16.5211 24.137 16.4623 23.8712 16.3989 23.585L16.39 23.5445C16.3247 23.2494 16.2555 22.9325 16.2098 22.6074C16.0827 21.7038 16.2393 20.7774 16.375 19.9747C16.4047 19.7992 16.4334 19.6296 16.4579 19.4675C16.5661 18.751 16.6244 18.0761 16.5843 17.3786C16.5557 16.8803 16.5313 16.7221 16.5065 16.563L16.5053 16.5553C16.4758 16.3656 16.4449 16.1675 16.4088 15.634C16.3562 14.8556 16.4364 14.0798 16.5106 13.362C16.5164 13.3053 16.5222 13.249 16.5279 13.193C16.6081 12.4085 16.6691 11.6903 16.5822 10.9906C16.5245 10.5257 16.3585 10.3074 16.1415 10.1635C15.8847 9.99304 15.5333 9.91068 15.0627 9.82025C14.859 9.78111 14.66 9.73973 14.464 9.69898C13.9304 9.58804 13.4197 9.48185 12.8997 9.43859C12.4763 9.40336 12.1218 9.4676 11.8827 9.62115Z" fill="currentColor"/>
<path fill-rule="evenodd" clip-rule="evenodd" d="M16.9923 23.8159C17.2333 23.8159 17.4287 24.0398 17.4287 24.3159C17.4287 25.6993 17.3714 27.0723 17.3144 28.4371C17.2958 28.8826 17.2772 29.3273 17.2607 29.7712C17.1964 31.4985 17.2052 33.208 17.3497 34.9151C17.4608 36.2274 17.4563 37.4549 17.1684 38.7745C17.1099 39.0424 16.873 39.2052 16.6392 39.1383C16.4054 39.0713 16.2633 38.7998 16.3217 38.5319C16.5771 37.3616 16.5866 36.2579 16.4811 35.0117C16.3316 33.2452 16.3233 31.487 16.3888 29.7285C16.4057 29.2731 16.4246 28.8211 16.4434 28.3712C16.5001 27.0124 16.556 25.6732 16.556 24.3159C16.556 24.0398 16.7513 23.8159 16.9923 23.8159Z" fill="currentColor"/>
<path fill-rule="evenodd" clip-rule="evenodd" d="M11.2052 23.5327C11.4462 23.5327 11.6416 23.7566 11.6416 24.0327C11.6416 25.6366 11.5897 27.2388 11.5366 28.8309C11.5347 28.8857 11.5329 28.9405 11.5311 28.9954C11.4796 30.5349 11.4284 32.0647 11.4218 33.5934L11.4215 33.6583C11.4165 34.7867 11.4115 35.9055 11.5694 36.9634L11.5722 36.9824C11.5938 37.1271 11.6034 37.1914 11.6203 37.2471C11.6313 37.2832 11.6435 37.3085 11.676 37.3433C11.7148 37.3847 11.7923 37.4323 11.939 37.4785C12.0085 37.5004 12.0827 37.519 12.1649 37.5384C12.1789 37.5417 12.1934 37.5451 12.2083 37.5486C12.2753 37.5643 12.3495 37.5817 12.4178 37.6006C12.8014 37.7069 13.1578 37.7886 13.5312 37.828C13.7441 37.8505 13.9334 37.9123 14.089 37.966C14.1123 37.9741 14.1348 37.9819 14.1565 37.9895C14.2889 38.0356 14.3934 38.0721 14.5053 38.0951C15.0097 38.199 15.5237 38.1834 16.0785 38.1666C16.2937 38.16 16.515 38.1533 16.7443 38.1533C16.9853 38.1533 17.1807 38.3772 17.1807 38.6533C17.1807 38.9295 16.9853 39.1533 16.7443 39.1533C16.5675 39.1533 16.3788 39.1591 16.1826 39.1651C15.5998 39.183 14.9508 39.2029 14.3509 39.0793C14.1841 39.045 14.0254 38.9894 13.8957 38.9439C13.8754 38.9368 13.8558 38.9299 13.8371 38.9235C13.688 38.872 13.5704 38.8364 13.4512 38.8238C13.0183 38.7781 12.616 38.6844 12.2127 38.5726C12.1608 38.5583 12.1057 38.5453 12.0398 38.5299C12.0234 38.526 12.0063 38.522 11.9884 38.5177C11.9036 38.4977 11.8059 38.4737 11.7074 38.4427C11.518 38.3829 11.2753 38.2826 11.0806 38.0744C10.8015 37.776 10.7524 37.4335 10.7171 37.1866C10.7144 37.1678 10.7118 37.1496 10.7091 37.132C10.5382 35.9864 10.5436 34.791 10.5486 33.6892C10.5487 33.6555 10.5489 33.6219 10.549 33.5884C10.5558 32.0427 10.6075 30.498 10.6588 28.963C10.6607 28.9062 10.6626 28.8494 10.6645 28.7926C10.7177 27.1986 10.7688 25.6147 10.7688 24.0327C10.7688 23.7566 10.9642 23.5327 11.2052 23.5327Z" fill="currentColor"/>
<path fill-rule="evenodd" clip-rule="evenodd" d="M11.3782 10.4429C11.6188 10.4276 11.8247 10.6387 11.8381 10.9144C11.8423 11.0013 11.8473 11.0911 11.8524 11.1831C11.8797 11.6713 11.9105 12.2239 11.8457 12.7639C11.8164 13.0073 11.7721 13.2431 11.7303 13.4606C11.7267 13.4794 11.7231 13.498 11.7195 13.5165C11.6808 13.7177 11.6452 13.9026 11.6188 14.0886C11.5325 14.6985 11.5464 15.3068 11.5718 15.9798C11.6537 18.1452 11.6485 20.3139 11.6434 22.4694C11.6422 22.9913 11.6409 23.5125 11.6409 24.0327C11.6409 24.3088 11.4456 24.5327 11.2046 24.5327C10.9636 24.5327 10.7682 24.3088 10.7682 24.0327C10.7682 23.5064 10.7694 22.981 10.7707 22.4565C10.7758 20.303 10.7808 18.1632 10.6999 16.0231C10.6746 15.3524 10.6551 14.6508 10.7573 13.9285C10.7879 13.7129 10.8288 13.5006 10.8667 13.3041C10.8705 13.2844 10.8743 13.2648 10.878 13.2454C10.92 13.0272 10.9572 12.8268 10.9811 12.6276C11.0329 12.1962 11.0092 11.7612 10.9826 11.2728C10.9772 11.1742 10.9717 11.0733 10.9667 10.9699C10.9533 10.6942 11.1376 10.4582 11.3782 10.4429Z" fill="currentColor"/>
<path fill-rule="evenodd" clip-rule="evenodd" d="M6.07821 14.113C6.08015 14.1132 6.08096 14.1132 6.08081 14.1132C6.78317 14.1416 7.48255 14.136 8.19199 14.1302C8.4849 14.1279 8.77953 14.1255 9.0768 14.1255C9.31779 14.1255 9.51316 14.3494 9.51316 14.6255C9.51316 14.9016 9.31779 15.1255 9.0768 15.1255C8.793 15.1255 8.50616 15.1278 8.21746 15.1301C7.50042 15.1359 6.77191 15.1418 6.05007 15.1126C6.0082 15.1109 5.96649 15.1056 5.93442 15.1011C5.91296 15.098 5.88786 15.0941 5.86504 15.0906C5.85446 15.089 5.84436 15.0874 5.83535 15.0861C5.79921 15.0806 5.76726 15.0762 5.73864 15.0733C5.71248 15.2324 5.70159 15.4222 5.69825 15.6438C5.69701 15.7265 5.69694 15.8175 5.69687 15.9125C5.6967 16.1331 5.69652 16.3748 5.68151 16.5812C5.52278 18.7638 5.44781 20.8748 5.54507 23.0499C5.62207 24.772 5.77372 26.4496 6.04402 28.1358C6.08755 28.4074 5.93069 28.668 5.69366 28.7179C5.45663 28.7677 5.22918 28.588 5.18565 28.3164C4.90717 26.5791 4.75201 24.8573 4.67348 23.1011C4.57356 20.8664 4.65111 18.7076 4.8118 16.4981C4.82382 16.3328 4.82382 16.1629 4.82381 15.9673C4.8238 15.8622 4.8238 15.7498 4.82566 15.6265C4.83048 15.3065 4.84906 14.93 4.94776 14.5881C5.01525 14.3544 5.16425 14.2119 5.31612 14.1404C5.45113 14.0768 5.58785 14.068 5.68311 14.0692C5.78323 14.0704 5.88038 14.0842 5.94974 14.0947C5.96465 14.0969 5.97752 14.0989 5.98922 14.1007C6.0084 14.1037 6.02445 14.1062 6.04125 14.1086C6.05338 14.1103 6.06274 14.1115 6.07004 14.1123L6.07821 14.113Z" fill="currentColor"/>
<path fill-rule="evenodd" clip-rule="evenodd" d="M5.66604 27.6694C5.90704 27.6694 6.10241 27.8933 6.10241 28.1694C6.10241 28.7895 6.08986 29.4088 6.07746 30.0213C6.07694 30.0471 6.07642 30.0729 6.07589 30.0987C6.06296 30.7385 6.05075 31.3711 6.05295 32.002C6.05318 32.071 6.05078 32.1491 6.04865 32.2184C6.04807 32.2372 6.04751 32.2554 6.04703 32.2725C6.04456 32.3606 6.0434 32.4398 6.04635 32.5135C6.04932 32.5877 6.05608 32.6438 6.06532 32.6851C6.07408 32.7243 6.0823 32.7375 6.08229 32.7375C6.08229 32.7375 6.08227 32.7375 6.08223 32.7374C6.15934 32.8537 6.36806 32.9713 6.74936 33.0505C6.92321 33.0866 7.10596 33.1099 7.28562 33.1295C7.33174 33.1345 7.37897 33.1394 7.42618 33.1442C7.55361 33.1574 7.68091 33.1705 7.78608 33.1863C7.92829 33.2076 8.0671 33.2304 8.20329 33.2527C8.64536 33.3251 9.05991 33.393 9.4742 33.393C9.7152 33.393 9.91057 33.6169 9.91057 33.893C9.91057 34.1692 9.7152 34.393 9.4742 34.393C8.99138 34.393 8.49274 34.311 8.03981 34.2365C7.9135 34.2157 7.79075 34.1955 7.67289 34.1779C7.58624 34.1649 7.48631 34.1545 7.36717 34.1422C7.31619 34.137 7.2617 34.1313 7.20322 34.125C7.0171 34.1048 6.80479 34.0783 6.59368 34.0345C6.20507 33.9538 5.68426 33.7904 5.38723 33.3422C5.21615 33.0841 5.18301 32.7709 5.17454 32.5594C5.16996 32.445 5.17213 32.3337 5.17475 32.2404C5.17547 32.2147 5.17619 32.1911 5.17686 32.169C5.17884 32.1044 5.18039 32.0535 5.18022 32.006C5.17798 31.3596 5.19049 30.7141 5.2034 30.0756C5.2039 30.051 5.20439 30.0265 5.20489 30.002C5.21735 29.3865 5.22968 28.7776 5.22968 28.1694C5.22968 27.8933 5.42504 27.6694 5.66604 27.6694Z" fill="currentColor"/>
<path fill-rule="evenodd" clip-rule="evenodd" d="M8.8951 14.9204C9.13539 14.8993 9.34517 15.1053 9.36365 15.3806C9.37355 15.5281 9.3857 15.6811 9.39812 15.8377C9.42586 16.1872 9.45499 16.5544 9.46368 16.9164C9.47036 17.1942 9.5027 17.4723 9.54362 17.7709C9.55269 17.837 9.5623 17.9049 9.57211 17.9742C9.60524 18.2084 9.64057 18.4581 9.66455 18.7077C9.7576 19.6764 9.74288 20.6526 9.72876 21.5897C9.72633 21.7505 9.72393 21.9102 9.72208 22.0685C9.71202 22.9334 9.72441 23.799 9.73693 24.6732C9.73858 24.7887 9.74024 24.9043 9.74184 25.0201C9.75556 26.0091 9.76563 27.0083 9.7384 28.0088C9.68958 29.8023 9.66168 31.5901 9.66168 33.3831C9.66168 33.6592 9.46631 33.8831 9.22531 33.8831C8.98432 33.8831 8.78895 33.6592 8.78895 33.3831C8.78895 31.5783 8.81704 29.7799 8.86609 27.9776C8.89262 27.0029 8.88294 26.0247 8.86923 25.036C8.86763 24.9208 8.86598 24.8054 8.86432 24.6899C8.85181 23.8173 8.83918 22.936 8.84943 22.0552C8.85136 21.8894 8.8538 21.7248 8.85622 21.5614C8.87013 20.6218 8.88353 19.7172 8.79706 18.8171C8.77576 18.5954 8.74535 18.3802 8.71299 18.1514C8.7026 18.0779 8.69201 18.003 8.68146 17.926C8.63926 17.6181 8.59956 17.2883 8.59129 16.9439C8.58335 16.6135 8.5584 16.3002 8.53196 15.9682C8.51888 15.804 8.50543 15.6351 8.49349 15.4573C8.47501 15.182 8.65482 14.9416 8.8951 14.9204Z" fill="currentColor"/>
<path fill-rule="evenodd" clip-rule="evenodd" d="M0.685693 22.2504C0.725312 21.978 0.950139 21.794 1.18786 21.8394C1.27342 21.8557 1.36233 21.8717 1.45366 21.888C1.82554 21.9546 2.23755 22.0284 2.62718 22.1666C2.67098 22.1822 2.70927 22.1961 2.74336 22.2086C2.88687 22.2609 2.95561 22.286 3.04493 22.286C3.28592 22.286 3.48129 22.5098 3.48129 22.786C3.48129 23.0621 3.28592 23.286 3.04493 23.286C2.80588 23.286 2.5869 23.2035 2.43902 23.1478C2.41352 23.1382 2.39014 23.1294 2.36913 23.1219C2.04607 23.0073 1.71463 22.9476 1.35001 22.882C1.25076 22.8641 1.14905 22.8458 1.04438 22.8258C0.806664 22.7804 0.646073 22.5228 0.685693 22.2504Z" fill="currentColor"/>
</svg>
