<svg width="48" height="48" viewBox="0 0 48 48" fill="none" xmlns="http://www.w3.org/2000/svg">
<path d="M18 30H7.5C7.10218 30 6.72064 29.842 6.43934 29.5607C6.15804 29.2794 6 28.8978 6 28.5V19.5C6 19.1022 6.15804 18.7206 6.43934 18.4393C6.72064 18.158 7.10218 18 7.5 18H18V7.5C18 7.10218 18.158 6.72064 18.4393 6.43934C18.7206 6.15804 19.1022 6 19.5 6H28.5C28.8978 6 29.2794 6.15804 29.5607 6.43934C29.842 6.72064 30 7.10218 30 7.5V18H40.5C40.8978 18 41.2794 18.158 41.5607 18.4393C41.842 18.7206 42 19.1022 42 19.5V28.5C42 28.8978 41.842 29.2794 41.5607 29.5607C41.2794 29.842 40.8978 30 40.5 30H30V40.5C30 40.8978 29.842 41.2794 29.5607 41.5607C29.2794 41.842 28.8978 42 28.5 42H19.5C19.1022 42 18.7206 41.842 18.4393 41.5607C18.158 41.2794 18 40.8978 18 40.5V30Z" stroke="currentColor" stroke-width="2" stroke-linecap="round" stroke-linejoin="round"/>
<path d="M6.87279 28.8649C6.87279 26.3857 6.87279 23.9066 6.87279 21.4274C6.87279 21.0283 6.65813 19.6504 7.21407 19.6504C8.90084 19.6504 10.5876 19.6504 12.2744 19.6504C13.0263 19.6504 13.7778 19.5845 14.4986 19.5445C15.1126 19.5104 15.6931 19.2268 16.2991 19.2268C16.8766 19.2268 17.5331 19.0483 18.0996 19.0149C18.652 18.9824 18.4174 17.0468 18.4174 16.7084C18.4174 15.9626 18.3881 15.2973 18.6057 14.5901C18.853 13.7861 19.2647 12.6775 19.2647 11.8363C19.2647 11.0789 18.9202 7.47035 20.0061 7.47035C20.921 7.47035 21.7603 7.43027 22.6304 7.12908C23.3668 6.87416 23.9616 6.62305 24.7486 6.62305C25.9147 6.62305 26.7637 6.80212 27.8672 7.12908C28.6031 7.34711 29.2758 7.23321 29.9619 7.57627" stroke="currentColor" stroke-linecap="round"/>
<path d="M29.9609 7.57642C29.9609 10.2066 29.9609 12.8368 29.9609 15.467C29.9609 16.2004 30.0669 16.9165 30.0669 17.6382C30.0669 18.0985 30.1423 18.0619 30.5964 18.0619C31.4862 18.0619 32.359 17.9559 33.2501 17.9559C34.1515 17.9559 35.1596 17.8318 36.0451 18.0089C36.524 18.1047 36.9925 18.1678 37.4808 18.1678C38.1414 18.1678 39.1052 17.9888 39.7521 18.1736C39.9865 18.2406 40.2392 18.3277 40.4993 18.3855C40.8958 18.4736 40.9639 19.2304 40.9759 19.5682C41.0045 20.3674 41.0819 21.1252 41.0819 21.9218C41.0819 23.2229 41.2937 24.4682 41.2937 25.7935C41.2937 26.482 41.2937 27.1704 41.2937 27.8589C41.2937 28.1413 41.2937 28.4237 41.2937 28.7062C41.2937 28.9928 40.1178 29.0678 39.8933 29.1004C37.9746 29.3789 36.1385 29.3946 34.1975 29.3946C33.6252 29.3946 32.238 29.1534 31.7085 29.4476C31.2962 29.6766 30.55 29.8183 30.0669 29.8183" stroke="currentColor" stroke-linecap="round"/>
<path d="M29.009 29.924C29.009 31.1243 29.009 32.3247 29.009 33.525C29.009 34.4572 28.8989 35.4627 29.0149 36.3906C29.1257 37.2768 29.3268 38.1341 29.3268 39.0325C29.3268 39.6562 29.2575 40.2095 29.2209 40.8331C29.2112 40.9975 27.0401 41.0106 26.7848 41.039C25.8388 41.1441 24.9365 41.2567 23.9781 41.2567C23.1928 41.2567 22.4391 41.4685 21.648 41.4685C21.0133 41.4685 20.3443 41.3626 19.7416 41.3626C19.3085 41.3626 19.3957 40.6449 19.3768 40.2858C19.2684 38.2274 19.3709 36.1397 19.3709 34.0781C19.3709 32.4737 19.3709 30.8693 19.3709 29.265C19.3709 29.0973 19.4821 28.3876 19.3474 28.2529C19.2758 28.1813 19.2626 28.4192 19.2062 28.4353C19.0835 28.4703 18.9156 28.4412 18.7884 28.4412C17.9215 28.4412 17.0545 28.4412 16.1876 28.4412C15.0404 28.4412 13.8833 28.5918 12.7219 28.5471C12.1002 28.5232 11.6078 28.3274 11.0037 28.6295C10.1408 29.0609 7.17927 29.0767 8.14407 29.0767" stroke="currentColor" stroke-linecap="round"/>
</svg>
