<svg xmlns="http://www.w3.org/2000/svg" width="64" height="63" fill="none"><g filter="url(#a)"><path fill="#fff" stroke="#fff" stroke-width="6" d="M44.508 39.262c2.593-2.554 4.665-5.242 6.158-8.071l.003-.006C52.193 28.282 53 25.267 53 22.17c0-2.018-.321-3.938-1.01-5.724-.664-1.722-1.595-3.26-2.81-4.578a12.604 12.604 0 0 0-4.273-3.044 12.754 12.754 0 0 0-5.195-1.077c-2.3 0-4.443.604-6.3 1.898-.503.347-.975.726-1.415 1.136A12.915 12.915 0 0 0 30.6 9.653c-1.855-1.305-4.005-1.907-6.313-1.907-1.816 0-3.56.354-5.2 1.079a12.833 12.833 0 0 0-4.255 3.029l2.192 2.048-2.192-2.048c-1.232 1.318-2.174 2.862-2.84 4.591l-.005.01-.004.01c-.67 1.78-.984 3.693-.984 5.704 0 3.098.807 6.113 2.331 9.016l.003.006c1.493 2.83 3.565 5.517 6.158 8.071l.006.005c2.57 2.519 5.554 4.896 8.937 7.137l.006.004.006.004c.422.277.857.527 1.305.748.568.288 1.35.586 2.257.586.895 0 1.667-.29 2.238-.585.462-.223.906-.478 1.33-.765 3.39-2.24 6.373-4.615 8.93-7.134Z"/><path stroke="#171717" stroke-width="2" d="M32.009 44.746c.258 0 .557-.09.897-.269a7.56 7.56 0 0 0 1.002-.574c3.26-2.152 6.091-4.411 8.495-6.778 2.415-2.38 4.285-4.824 5.61-7.335C49.338 27.268 50 24.727 50 22.17c0-1.699-.27-3.247-.809-4.645-.54-1.4-1.278-2.607-2.216-3.623a9.603 9.603 0 0 0-3.271-2.331 9.755 9.755 0 0 0-3.992-.825c-1.759 0-3.289.454-4.59 1.363-1.302.897-2.34 2.08-3.113 3.55-.786-1.458-1.83-2.642-3.13-3.55-1.29-.909-2.82-1.363-4.59-1.363-1.42 0-2.75.275-3.993.825a9.834 9.834 0 0 0-3.271 2.331c-.95 1.016-1.694 2.224-2.234 3.623-.527 1.398-.791 2.947-.791 4.644 0 2.558.662 5.099 1.987 7.621 1.325 2.51 3.195 4.956 5.61 7.335 2.416 2.367 5.247 4.626 8.495 6.778.328.215.662.407 1.002.574.352.18.657.27.915.27Z"/><path stroke="#171717" stroke-linecap="round" stroke-width="2" d="M32.004 17.326c0-2.483.619-6.575 3.636-6.837 1.934-.168 3.874.104 5.808.135 2.918.046 6.161 2.847 6.67 5.775.239 1.37.794 2.674 1.03 4.064.19 1.113.396 2.153.396 3.28 0 1.749-.345 2.89-1.426 4.278-.758.976-1.688 1.804-2.511 2.718-.539.598-1.188 1.24-1.83 1.735-.65.5-1.122 1.19-1.759 1.68-.459.352-.94 1.01-1.315 1.457-.569.677-1.36.992-2.108 1.426-.29.169-.62.456-.958.531-.379.084-.447 1.01-.5 1.363-.183 1.242-.624 2.122-1.497 2.994-1.073 1.074-2.803 1.783-4.349 1.783"/><path stroke="#171717" stroke-linecap="round" stroke-width="2" d="M31.005 43.708c-2.57 0-5.155-2.307-7.043-3.843-1.338-1.088-2.46-2.347-3.652-3.573-1.66-1.706-2.835-3.603-3.787-5.767-.425-.965-1.15-1.786-1.49-2.789-.372-1.096-.428-2.204-.428-3.351 0-1.837 1.003-3.617 1.395-5.38.278-1.25.809-3.312 1.917-4.103.83-.594 1.78-1.151 2.741-1.498.984-.354 1.874-1.04 2.868-1.418 1.5-.569 4.19-1.257 5.625-.214.836.608 1.557 1.21 2.25 1.957.413.445.613 1.041 1.03 1.458"/></g><defs><filter id="a" width="64" height="64" x="0" y="-.254" color-interpolation-filters="sRGB" filterUnits="userSpaceOnUse"><feFlood flood-opacity="0" result="BackgroundImageFix"/><feColorMatrix in="SourceAlpha" result="hardAlpha" values="0 0 0 0 0 0 0 0 0 0 0 0 0 0 0 0 0 0 127 0"/><feOffset dy="2"/><feGaussianBlur stdDeviation="1"/><feComposite in2="hardAlpha" operator="out"/><feColorMatrix values="0 0 0 0 0 0 0 0 0 0 0 0 0 0 0 0 0 0 0.02 0"/><feBlend in2="BackgroundImageFix" result="effect1_dropShadow_2974_21251"/><feColorMatrix in="SourceAlpha" result="hardAlpha" values="0 0 0 0 0 0 0 0 0 0 0 0 0 0 0 0 0 0 127 0"/><feOffset dy="4"/><feGaussianBlur stdDeviation="4"/><feComposite in2="hardAlpha" operator="out"/><feColorMatrix values="0 0 0 0 0 0 0 0 0 0 0 0 0 0 0 0 0 0 0.06 0"/><feBlend in2="effect1_dropShadow_2974_21251" result="effect2_dropShadow_2974_21251"/><feBlend in="SourceGraphic" in2="effect2_dropShadow_2974_21251" result="shape"/></filter></defs></svg>