<svg width="52" height="52" viewBox="0 0 52 52" fill="none" xmlns="http://www.w3.org/2000/svg">
<path d="M2.68256 21.3521C2.68256 15.7344 -0.209649 2.5919 11.5558 2.5919C14.7805 2.5919 19.858 0.825379 22.4767 3.39591C23.4548 4.35598 24.106 5.63479 25.0553 6.46304C25.6372 6.97078 26.378 10.3049 27.2546 8.75595C31.1054 1.95195 37.1576 1.43314 45.0011 4.85503C56.1811 9.73254 45.3696 22.3277 43.5981 28.5881C42.2392 33.3902 34.8732 37.2465 29.6815 39.5762C27.5753 40.5213 25.7562 42.7376 23.9935 43.9833C21.6816 45.6173 19.4693 47.1808 17.1679 48.8074C9.61872 54.1429 6.09534 40.0791 6.09534 36.0922C6.09534 33.2613 4.04767 30.6144 4.04767 27.7841C4.04767 25.0287 3.44804 23.6263 2 21.3521" stroke="currentColor" stroke-width="2.5" stroke-linecap="round"/>
<path d="M12.3143 48.9295C12.3143 47.6512 10.9727 46.162 10.4978 44.9291C10.0767 43.8359 9.81663 42.831 9.81663 41.6917C9.81663 40.7493 9.67025 39.8724 9.58957 38.9492C9.54225 38.4077 9.13544 37.8562 9.13544 37.3305C9.13544 36.6335 8.50871 35.8623 8.2272 35.1963C7.70763 33.967 7.45038 32.7088 6.97837 31.4743C6.52927 30.2997 6.18366 28.7983 6.18366 27.577C6.18366 26.1989 6.02126 24.7901 5.71692 23.422C5.48297 22.3702 4.36717 21.2026 4.36717 20.1639C4.36717 19.0637 3.91305 17.9825 3.91305 16.8234C3.91305 15.6755 3.91305 14.5276 3.91305 13.3798C3.91305 11.0938 3.28921 8.32467 5.14927 6.49252C7.29955 4.37452 9.54488 4.51058 12.6423 4.11086C14.2127 3.90819 15.7346 3.63444 17.3349 3.64689C18.9517 3.65948 19.9973 4.39797 21.1192 5.27591C22.2585 6.16746 24.0019 6.228 25.0297 7.173C25.3901 7.5044 25.4671 7.98448 26.0515 8.09061C26.692 8.20696 27.6211 8.1256 28.2085 8.32775C29.2803 8.69657 30.4253 8.79987 31.3874 8.10092C33.3181 6.69821 35.9255 6.61625 38.4263 6.61625C39.4839 6.61625 42.5947 6.15442 43.409 6.70904C44.574 7.50253 45.7429 8.38995 46.4743 9.5856C47.3462 11.0109 48.1899 12.3256 48.1899 13.9468C48.1899 15.5292 47.6992 16.6927 46.9284 18.1328C46.1607 19.567 45.4049 21.0623 44.2289 22.2981C43.4557 23.1107 42.4894 24.4759 42.0592 25.4428C41.7778 26.0754 40.975 27.057 40.4193 27.5461C39.7835 28.1058 38.6682 28.983 38.4136 29.7112C38.1296 30.5239 37.0529 31.3191 36.6098 32.1341C35.5215 34.1354 32.6221 35.0808 31.3369 36.8665C30.7076 37.741 29.4202 38.2875 28.6627 39.1348C27.7406 40.1661 26.0076 41.3241 24.7522 42.0629C22.8372 43.1898 21.1123 44.5878 19.3027 45.9189C18.4337 46.5582 17.2444 47.0149 16.1743 47.4036C15.4904 47.652 13.0816 47.4 12.7684 46.8881" stroke="currentColor" stroke-width="2.5" stroke-linecap="round"/>
</svg>
