<svg width="70" height="62" viewBox="0 0 70 62" fill="none" xmlns="http://www.w3.org/2000/svg">
<g filter="url(#filter0_dd_2974_21152)">
<mask id="path-1-outside-1_2974_21152" maskUnits="userSpaceOnUse" x="8.50195" y="7.24609" width="53" height="43" fill="black">
<rect fill="white" x="8.50195" y="7.24609" width="53" height="43"/>
<path fill-rule="evenodd" clip-rule="evenodd" d="M17.502 35.7461V17.2461C17.502 16.1852 17.9234 15.1678 18.6735 14.4177C19.4237 13.6675 20.4411 13.2461 21.502 13.2461H48.502C49.5628 13.2461 50.5802 13.6675 51.3304 14.4177C52.0805 15.1678 52.502 16.1852 52.502 17.2461V35.7461H54.502C55.0542 35.7461 55.502 36.1938 55.502 36.7461V39.7461C55.502 40.807 55.0805 41.8244 54.3304 42.5745C53.5802 43.3247 52.5628 43.7461 51.502 43.7461H18.502C17.4411 43.7461 16.4237 43.3247 15.6735 42.5745C14.9234 41.8244 14.502 40.807 14.502 39.7461L14.502 36.7461C14.502 36.1938 14.9497 35.7461 15.502 35.7461H17.502Z"/>
</mask>
<path fill-rule="evenodd" clip-rule="evenodd" d="M17.502 35.7461V17.2461C17.502 16.1852 17.9234 15.1678 18.6735 14.4177C19.4237 13.6675 20.4411 13.2461 21.502 13.2461H48.502C49.5628 13.2461 50.5802 13.6675 51.3304 14.4177C52.0805 15.1678 52.502 16.1852 52.502 17.2461V35.7461H54.502C55.0542 35.7461 55.502 36.1938 55.502 36.7461V39.7461C55.502 40.807 55.0805 41.8244 54.3304 42.5745C53.5802 43.3247 52.5628 43.7461 51.502 43.7461H18.502C17.4411 43.7461 16.4237 43.3247 15.6735 42.5745C14.9234 41.8244 14.502 40.807 14.502 39.7461L14.502 36.7461C14.502 36.1938 14.9497 35.7461 15.502 35.7461H17.502Z" fill="white"/>
<path d="M17.502 17.2461H23.502H17.502ZM17.502 35.7461V41.7461C20.8157 41.7461 23.502 39.0598 23.502 35.7461H17.502ZM18.6735 14.4177L22.9162 18.6603L22.9162 18.6603L18.6735 14.4177ZM51.3304 14.4177L47.0877 18.6603V18.6603L51.3304 14.4177ZM52.502 35.7461H46.502C46.502 39.0598 49.1882 41.7461 52.502 41.7461V35.7461ZM15.6735 42.5745L19.9162 38.3319H19.9162L15.6735 42.5745ZM14.502 39.7461H20.502H14.502ZM14.502 36.7461H8.50195H14.502ZM11.502 17.2461V35.7461H23.502V17.2461H11.502ZM14.4309 10.175C12.5555 12.0504 11.502 14.5939 11.502 17.2461H23.502C23.502 17.7765 23.2912 18.2852 22.9162 18.6603L14.4309 10.175ZM21.502 7.24609C18.8498 7.24609 16.3062 8.29966 14.4309 10.175L22.9162 18.6603C22.5411 19.0354 22.0324 19.2461 21.502 19.2461V7.24609ZM48.502 7.24609H21.502V19.2461H48.502V7.24609ZM55.573 10.175C53.6977 8.29966 51.1541 7.24609 48.502 7.24609V19.2461C47.9715 19.2461 47.4628 19.0354 47.0877 18.6603L55.573 10.175ZM58.502 17.2461C58.502 14.5939 57.4484 12.0504 55.573 10.175L47.0877 18.6603C46.7127 18.2852 46.502 17.7765 46.502 17.2461H58.502ZM58.502 35.7461V17.2461H46.502V35.7461H58.502ZM52.502 41.7461H54.502V29.7461H52.502V41.7461ZM54.502 41.7461C51.7405 41.7461 49.502 39.5075 49.502 36.7461H61.502C61.502 32.8801 58.3679 29.7461 54.502 29.7461V41.7461ZM49.502 36.7461V39.7461H61.502V36.7461H49.502ZM49.502 39.7461C49.502 39.2157 49.7127 38.7069 50.0877 38.3319L58.573 46.8172C60.4484 44.9418 61.502 42.3983 61.502 39.7461H49.502ZM50.0877 38.3319C50.4628 37.9568 50.9715 37.7461 51.502 37.7461V49.7461C54.1541 49.7461 56.6977 48.6925 58.573 46.8172L50.0877 38.3319ZM51.502 37.7461H18.502V49.7461H51.502V37.7461ZM18.502 37.7461C19.0324 37.7461 19.5411 37.9568 19.9162 38.3319L11.4309 46.8172C13.3062 48.6925 15.8498 49.7461 18.502 49.7461V37.7461ZM19.9162 38.3319C20.2912 38.707 20.502 39.2157 20.502 39.7461H8.50195C8.50195 42.3983 9.55552 44.9418 11.4309 46.8172L19.9162 38.3319ZM20.502 39.7461V36.7461H8.50195V39.7461H20.502ZM20.502 36.7461C20.502 39.5075 18.2634 41.7461 15.502 41.7461V29.7461C11.636 29.7461 8.50195 32.8801 8.50195 36.7461H20.502ZM15.502 41.7461H17.502V29.7461H15.502V41.7461Z" fill="white" mask="url(#path-1-outside-1_2974_21152)"/>
<path d="M18.502 36.7461V17.2461C18.502 16.4504 18.818 15.6874 19.3806 15.1248C19.9432 14.5622 20.7063 14.2461 21.502 14.2461H48.502C49.2976 14.2461 50.0607 14.5622 50.6233 15.1248C51.1859 15.6874 51.502 16.4504 51.502 17.2461V36.7461" stroke="#171717" stroke-width="2" stroke-linecap="round" stroke-linejoin="round"/>
<path d="M15.502 36.7461H54.502V39.7461C54.502 40.5417 54.1859 41.3048 53.6233 41.8674C53.0607 42.43 52.2976 42.7461 51.502 42.7461H18.502C17.7063 42.7461 16.9432 42.43 16.3806 41.8674C15.818 41.3048 15.502 40.5417 15.502 39.7461V36.7461Z" stroke="#171717" stroke-width="2" stroke-linecap="round" stroke-linejoin="round"/>
<path d="M38.002 20.2461H32.002" stroke="#171717" stroke-width="2" stroke-linecap="round" stroke-linejoin="round"/>
<path d="M18.2621 35.2757C18.2621 33.76 18.4071 32.1708 18.2563 30.6634C18.0824 28.9239 18.3202 27.121 18.0004 25.3939C17.8578 24.6235 17.871 23.8276 17.7154 23.0499C17.6009 22.4771 17.5293 21.9377 17.5293 21.3515C17.5293 20.0801 17.8793 18.8519 18.1342 17.6059C18.345 16.5752 18.557 15.822 19.3091 15.07C20.157 14.222 22.0011 14.5465 23.078 14.5465C25.2465 14.5465 27.4003 14.2565 29.569 14.2324C31.9414 14.2061 34.3156 14.2324 36.6881 14.2324C39.2434 14.2324 41.8037 14.2118 44.2784 14.7617C45.0367 14.9302 45.8439 15.1747 46.634 15.1747C46.9861 15.1747 47.3144 15.2793 47.6809 15.2793C48.1237 15.2793 48.7537 15.1485 49.1699 15.3026C49.683 15.4927 50.0688 16.3068 50.3506 16.7451C50.6596 17.2258 51.0111 17.6602 51.1881 18.2108C51.5836 19.4413 52.078 20.6631 52.078 21.9797C52.078 23.3423 52.2341 24.8148 52.0198 26.1616C51.6775 28.3133 50.4641 30.4553 50.4029 32.6584C50.3718 33.778 50.2982 34.8842 50.2982 36.0086" stroke="#171717" stroke-width="2" stroke-linecap="round"/>
<path d="M31.1406 20.305C32.0352 20.305 33.0916 20.1378 33.9441 20.4329C34.6069 20.6624 35.3585 20.3945 36.0379 20.5958C36.8732 20.8433 37.8013 20.9331 38.6785 20.9331" stroke="#171717" stroke-width="2" stroke-linecap="round"/>
<path d="M15.2262 36.7414C15.2262 37.4757 15.2992 38.1889 15.3309 38.9167C15.3484 39.3207 15.4234 39.7555 15.4879 40.1556C15.5698 40.6633 15.4921 41.1855 15.7031 41.6678C15.9603 42.2556 16.221 42.6816 16.6919 43.1277C17.16 43.5711 17.941 43.4418 18.524 43.4418C19.0647 43.4418 19.6061 43.4495 20.1468 43.4418C20.7637 43.4329 21.3311 43.1919 21.9324 43.0811C23.0979 42.8664 24.2816 42.6574 25.4628 42.5228C27.679 42.2703 30.0238 41.9191 32.2679 42.2087C34.4447 42.4896 36.6741 42.4659 38.8345 42.8659C40.7355 43.218 42.8327 43.3371 44.7554 43.3371C46.0622 43.3371 47.3689 43.3371 48.6756 43.3371C49.6401 43.3371 50.6716 43.3017 51.5547 42.8601C52.6997 42.2876 53.188 41.8502 53.7532 40.7197C54.0695 40.0871 53.9787 39.6006 54.0731 38.94C54.1147 38.649 54.3772 37.6467 54.1487 37.3928C53.9908 37.2174 52.8187 37.3696 52.6249 37.3696C51.584 37.3696 50.5685 37.3423 49.5306 37.2707C46.7379 37.0781 43.8905 37.1256 41.1028 36.7937C39.7956 36.6381 38.4793 36.7033 37.171 36.5844C35.869 36.466 34.5164 36.4273 33.2101 36.4273C30.7094 36.4273 28.1969 36.3226 25.7071 36.3226C23.1557 36.3226 20.6043 36.3226 18.0529 36.3226C17.4715 36.3226 15.171 36.0695 14.9121 36.8461" stroke="#171717" stroke-width="2" stroke-linecap="round"/>
</g>
<defs>
<filter id="filter0_dd_2974_21152" x="0.501953" y="-0.253906" width="69" height="64" filterUnits="userSpaceOnUse" color-interpolation-filters="sRGB">
<feFlood flood-opacity="0" result="BackgroundImageFix"/>
<feColorMatrix in="SourceAlpha" type="matrix" values="0 0 0 0 0 0 0 0 0 0 0 0 0 0 0 0 0 0 127 0" result="hardAlpha"/>
<feOffset dy="2"/>
<feGaussianBlur stdDeviation="1"/>
<feComposite in2="hardAlpha" operator="out"/>
<feColorMatrix type="matrix" values="0 0 0 0 0 0 0 0 0 0 0 0 0 0 0 0 0 0 0.02 0"/>
<feBlend mode="normal" in2="BackgroundImageFix" result="effect1_dropShadow_2974_21152"/>
<feColorMatrix in="SourceAlpha" type="matrix" values="0 0 0 0 0 0 0 0 0 0 0 0 0 0 0 0 0 0 127 0" result="hardAlpha"/>
<feOffset dy="4"/>
<feGaussianBlur stdDeviation="4"/>
<feComposite in2="hardAlpha" operator="out"/>
<feColorMatrix type="matrix" values="0 0 0 0 0 0 0 0 0 0 0 0 0 0 0 0 0 0 0.06 0"/>
<feBlend mode="normal" in2="effect1_dropShadow_2974_21152" result="effect2_dropShadow_2974_21152"/>
<feBlend mode="normal" in="SourceGraphic" in2="effect2_dropShadow_2974_21152" result="shape"/>
</filter>
</defs>
</svg>
