<svg width="48" height="48" viewBox="0 0 48 48" fill="none" xmlns="http://www.w3.org/2000/svg">
<path d="M7.5 33V13.5C7.5 12.7044 7.81607 11.9413 8.37868 11.3787C8.94129 10.8161 9.70435 10.5 10.5 10.5H37.5C38.2956 10.5 39.0587 10.8161 39.6213 11.3787C40.1839 11.9413 40.5 12.7044 40.5 13.5V33" stroke="currentColor" stroke-width="2" stroke-linecap="round" stroke-linejoin="round"/>
<path d="M4.5 33H43.5V36C43.5 36.7956 43.1839 37.5587 42.6213 38.1213C42.0587 38.6839 41.2956 39 40.5 39H7.5C6.70435 39 5.94129 38.6839 5.37868 38.1213C4.81607 37.5587 4.5 36.7956 4.5 36V33Z" stroke="currentColor" stroke-width="2" stroke-linecap="round" stroke-linejoin="round"/>
<path d="M27 16.5H21" stroke="currentColor" stroke-width="2" stroke-linecap="round" stroke-linejoin="round"/>
<path d="M8.06641 32.5331C8.06641 26.4619 8.18203 20.2629 8.51592 14.2528C8.56486 13.372 9.89481 12.0983 10.6137 11.7388C11.4573 11.317 12.3823 11.4059 13.3108 11.4059C14.2652 11.4059 15.0928 11.0527 16.0079 10.9564C16.961 10.856 17.7976 10.5068 18.7799 10.5068C19.604 10.5068 20.4281 10.5068 21.2522 10.5068C22.8951 10.5068 24.3908 10.8065 26.047 10.8065C26.9738 10.8065 27.9006 10.8065 28.8274 10.8065C29.7133 10.8065 30.4856 11.256 31.3663 11.256C32.0246 11.256 32.6008 11.5557 33.2393 11.5557C33.9479 11.5557 34.5735 11.7055 35.2621 11.7055C35.9822 11.7055 36.6264 11.7458 37.285 12.0385C37.7703 12.2542 38.7349 12.1878 39.0081 12.6795C39.6156 13.773 39.982 14.9757 39.982 16.2756C39.982 17.8505 40.0599 19.4599 39.8405 20.9955C39.6697 22.1917 39.5325 23.616 39.5325 24.8164C39.5325 25.3861 39.2631 25.8757 39.2329 26.3897C39.1964 27.0092 39.2329 27.6421 39.2329 28.2627C39.2329 29.5363 39.2329 30.81 39.2329 32.0836" stroke="currentColor" stroke-linecap="round"/>
<path d="M4.76953 34.6309C4.83728 34.0889 15.9286 34.481 17.4143 34.481C20.017 34.481 22.6198 34.481 25.2225 34.481C26.8458 34.481 28.469 34.481 30.0923 34.481C31.2855 34.481 32.7528 34.6971 33.8382 34.2146C34.6488 33.8544 36.3154 34.1813 37.2096 34.1813C37.8941 34.1813 38.5744 34.3312 39.2324 34.3312C39.8125 34.3312 40.3893 34.6309 40.9556 34.6309C41.423 34.6309 42.0167 34.8353 42.4456 35.0804C42.8599 35.3171 42.6787 36.1661 42.6787 36.5788C42.6787 38.7197 40.8841 37.3252 39.7985 38.1937C39.526 38.4117 38.842 38.5267 38.4832 38.5267C37.7468 38.5267 37.0353 38.8263 36.3106 38.8263C35.3772 38.8263 34.3917 38.9762 33.422 38.9762C32.6078 38.9762 31.9241 38.7967 31.1411 38.6848C29.4756 38.4469 27.9355 38.227 26.2298 38.227C25.1721 38.227 24.1589 38.5267 23.1248 38.5267C22.8331 38.5267 22.418 38.6564 22.1175 38.7098C21.0566 38.8984 19.9628 38.8263 18.8877 38.8263C17.1534 38.8263 15.4192 38.8263 13.6849 38.8263C13.0032 38.8263 12.336 38.3768 11.6288 38.3768C10.7627 38.3768 9.91954 38.227 9.03993 38.227C8.04091 38.227 6.88225 38.4751 6.15138 37.7442C5.36262 36.9554 4.76953 36.0477 4.76953 34.9305" stroke="currentColor" stroke-linecap="round"/>
<path d="M19.7539 17.5493C21.1524 17.5493 22.5509 17.5493 23.9494 17.5493C24.6736 17.5493 25.3978 17.5493 26.1221 17.5493C26.4508 17.5493 27.8803 17.6196 27.995 17.849" stroke="currentColor" stroke-linecap="round"/>
</svg>
