<svg width="71" height="70" viewBox="0 0 71 70" fill="none" xmlns="http://www.w3.org/2000/svg">
<g filter="url(#filter0_dd_2974_21196)">
<mask id="path-1-outside-1_2974_21196" maskUnits="userSpaceOnUse" x="8.89844" y="4.74609" width="55" height="54" fill="black">
<rect fill="white" x="8.89844" y="4.74609" width="55" height="54"/>
<path fill-rule="evenodd" clip-rule="evenodd" d="M44.998 22.7461C44.4458 22.7461 43.998 22.2984 43.998 21.7461V17.7461H39.998C39.4458 17.7461 38.998 17.2984 38.998 16.7461C38.998 16.1938 39.4458 15.7461 39.998 15.7461H43.998V11.7461C43.998 11.1938 44.4458 10.7461 44.998 10.7461C45.5503 10.7461 45.998 11.1938 45.998 11.7461V15.7461H49.998C50.5503 15.7461 50.998 16.1938 50.998 16.7461C50.998 17.2984 50.5503 17.7461 49.998 17.7461H45.998V21.7461C45.998 22.2984 45.5503 22.7461 44.998 22.7461ZM35.8762 14.9557C35.2343 13.2088 32.7635 13.2088 32.1216 14.9557L27.8458 26.5929L16.2087 30.8687C14.4617 31.5106 14.4617 33.9814 16.2087 34.6233L27.8458 38.8991L32.1216 50.5363C32.7635 52.2832 35.2343 52.2832 35.8762 50.5363L40.152 38.8991L51.7892 34.6233C53.5362 33.9814 53.5362 31.5106 51.7892 30.8687L40.152 26.5929L35.8762 14.9557ZM49.998 23.7461C49.4458 23.7461 48.998 24.1938 48.998 24.7461C48.998 25.2984 49.4458 25.7461 49.998 25.7461H51.998V27.7461C51.998 28.2984 52.4458 28.7461 52.998 28.7461C53.5503 28.7461 53.998 28.2984 53.998 27.7461V25.7461H55.998C56.5503 25.7461 56.998 25.2984 56.998 24.7461C56.998 24.1938 56.5503 23.7461 55.998 23.7461H53.998V21.7461C53.998 21.1938 53.5503 20.7461 52.998 20.7461C52.4458 20.7461 51.998 21.1938 51.998 21.7461V23.7461H49.998Z"/>
</mask>
<path fill-rule="evenodd" clip-rule="evenodd" d="M44.998 22.7461C44.4458 22.7461 43.998 22.2984 43.998 21.7461V17.7461H39.998C39.4458 17.7461 38.998 17.2984 38.998 16.7461C38.998 16.1938 39.4458 15.7461 39.998 15.7461H43.998V11.7461C43.998 11.1938 44.4458 10.7461 44.998 10.7461C45.5503 10.7461 45.998 11.1938 45.998 11.7461V15.7461H49.998C50.5503 15.7461 50.998 16.1938 50.998 16.7461C50.998 17.2984 50.5503 17.7461 49.998 17.7461H45.998V21.7461C45.998 22.2984 45.5503 22.7461 44.998 22.7461ZM35.8762 14.9557C35.2343 13.2088 32.7635 13.2088 32.1216 14.9557L27.8458 26.5929L16.2087 30.8687C14.4617 31.5106 14.4617 33.9814 16.2087 34.6233L27.8458 38.8991L32.1216 50.5363C32.7635 52.2832 35.2343 52.2832 35.8762 50.5363L40.152 38.8991L51.7892 34.6233C53.5362 33.9814 53.5362 31.5106 51.7892 30.8687L40.152 26.5929L35.8762 14.9557ZM49.998 23.7461C49.4458 23.7461 48.998 24.1938 48.998 24.7461C48.998 25.2984 49.4458 25.7461 49.998 25.7461H51.998V27.7461C51.998 28.2984 52.4458 28.7461 52.998 28.7461C53.5503 28.7461 53.998 28.2984 53.998 27.7461V25.7461H55.998C56.5503 25.7461 56.998 25.2984 56.998 24.7461C56.998 24.1938 56.5503 23.7461 55.998 23.7461H53.998V21.7461C53.998 21.1938 53.5503 20.7461 52.998 20.7461C52.4458 20.7461 51.998 21.1938 51.998 21.7461V23.7461H49.998Z" fill="white"/>
<path d="M43.998 17.7461H49.998V11.7461H43.998V17.7461ZM43.998 15.7461V21.7461H49.998V15.7461H43.998ZM45.998 15.7461H39.998V21.7461H45.998V15.7461ZM45.998 17.7461V11.7461H39.998V17.7461H45.998ZM32.1216 14.9557L37.7535 17.025L37.7535 17.025L32.1216 14.9557ZM35.8762 14.9557L30.2443 17.025L30.2443 17.025L35.8762 14.9557ZM27.8458 26.5929L29.9151 32.2247L32.5204 31.2675L33.4777 28.6622L27.8458 26.5929ZM16.2087 30.8687L18.278 36.5006H18.278L16.2087 30.8687ZM16.2087 34.6233L18.278 28.9914L18.278 28.9914L16.2087 34.6233ZM27.8458 38.8991L33.4777 36.8298L32.5204 34.2245L29.9151 33.2672L27.8458 38.8991ZM32.1216 50.5363L26.4898 52.6056L32.1216 50.5363ZM35.8762 50.5363L30.2443 48.4669L30.2443 48.4669L35.8762 50.5363ZM40.152 38.8991L38.0827 33.2672L35.4774 34.2245L34.5202 36.8298L40.152 38.8991ZM51.7892 34.6233L49.7199 28.9914L51.7892 34.6233ZM51.7892 30.8687L49.7199 36.5006L49.7199 36.5006L51.7892 30.8687ZM40.152 26.5929L34.5202 28.6622L35.4774 31.2675L38.0827 32.2248L40.152 26.5929ZM51.998 25.7461H57.998V19.7461H51.998V25.7461ZM53.998 25.7461V19.7461H47.998V25.7461H53.998ZM53.998 23.7461H47.998V29.7461H53.998V23.7461ZM51.998 23.7461V29.7461H57.998V23.7461H51.998ZM37.998 21.7461C37.998 25.6121 41.1321 28.7461 44.998 28.7461V16.7461C47.7595 16.7461 49.998 18.9847 49.998 21.7461H37.998ZM37.998 17.7461V21.7461H49.998V17.7461H37.998ZM39.998 23.7461H43.998V11.7461H39.998V23.7461ZM32.998 16.7461C32.998 20.6121 36.1321 23.7461 39.998 23.7461V11.7461C42.7595 11.7461 44.998 13.9847 44.998 16.7461H32.998ZM39.998 9.74609C36.1321 9.74609 32.998 12.8801 32.998 16.7461H44.998C44.998 19.5075 42.7595 21.7461 39.998 21.7461V9.74609ZM43.998 9.74609H39.998V21.7461H43.998V9.74609ZM37.998 11.7461V15.7461H49.998V11.7461H37.998ZM44.998 4.74609C41.132 4.74609 37.998 7.8801 37.998 11.7461H49.998C49.998 14.5075 47.7595 16.7461 44.998 16.7461V4.74609ZM51.998 11.7461C51.998 7.8801 48.864 4.74609 44.998 4.74609V16.7461C42.2366 16.7461 39.998 14.5075 39.998 11.7461H51.998ZM51.998 15.7461V11.7461H39.998V15.7461H51.998ZM49.998 9.74609H45.998V21.7461H49.998V9.74609ZM56.998 16.7461C56.998 12.8801 53.864 9.74609 49.998 9.74609V21.7461C47.2366 21.7461 44.998 19.5075 44.998 16.7461H56.998ZM49.998 23.7461C53.864 23.7461 56.998 20.6121 56.998 16.7461H44.998C44.998 13.9847 47.2366 11.7461 49.998 11.7461V23.7461ZM45.998 23.7461H49.998V11.7461H45.998V23.7461ZM51.998 21.7461V17.7461H39.998V21.7461H51.998ZM44.998 28.7461C48.864 28.7461 51.998 25.6121 51.998 21.7461H39.998C39.998 18.9847 42.2366 16.7461 44.998 16.7461V28.7461ZM37.7535 17.025C36.4697 20.519 31.5281 20.519 30.2443 17.025L41.5081 12.8864C38.9405 5.89855 29.0573 5.89852 26.4898 12.8864L37.7535 17.025ZM33.4777 28.6622L37.7535 17.025L26.4898 12.8864L22.2139 24.5236L33.4777 28.6622ZM18.278 36.5006L29.9151 32.2247L25.7765 20.961L14.1394 25.2368L18.278 36.5006ZM18.278 28.9914C21.7719 30.2752 21.7719 35.2168 18.278 36.5006L14.1394 25.2368C7.15148 27.8044 7.15145 37.6876 14.1394 40.2552L18.278 28.9914ZM29.9151 33.2672L18.278 28.9914L14.1394 40.2551L25.7765 44.531L29.9151 33.2672ZM37.7535 48.4669L33.4777 36.8298L22.2139 40.9684L26.4898 52.6056L37.7535 48.4669ZM30.2443 48.4669C31.5281 44.973 36.4697 44.973 37.7535 48.4669L26.4898 52.6056C29.0573 59.5934 38.9405 59.5935 41.5081 52.6056L30.2443 48.4669ZM34.5202 36.8298L30.2443 48.4669L41.5081 52.6056L45.7839 40.9684L34.5202 36.8298ZM49.7199 28.9914L38.0827 33.2672L42.2213 44.531L53.8585 40.2551L49.7199 28.9914ZM49.7199 36.5006C46.2259 35.2168 46.2259 30.2752 49.7199 28.9914L53.8585 40.2551C60.8464 37.6876 60.8464 27.8044 53.8585 25.2368L49.7199 36.5006ZM38.0827 32.2248L49.7199 36.5006L53.8585 25.2368L42.2213 20.961L38.0827 32.2248ZM30.2443 17.025L34.5202 28.6622L45.7839 24.5236L41.5081 12.8864L30.2443 17.025ZM54.998 24.7461C54.998 27.5075 52.7595 29.7461 49.998 29.7461V17.7461C46.1321 17.7461 42.998 20.8801 42.998 24.7461H54.998ZM49.998 19.7461C52.7595 19.7461 54.998 21.9847 54.998 24.7461H42.998C42.998 28.6121 46.1321 31.7461 49.998 31.7461V19.7461ZM51.998 19.7461H49.998V31.7461H51.998V19.7461ZM57.998 27.7461V25.7461H45.998V27.7461H57.998ZM52.998 22.7461C55.7595 22.7461 57.998 24.9847 57.998 27.7461H45.998C45.998 31.6121 49.1321 34.7461 52.998 34.7461V22.7461ZM47.998 27.7461C47.998 24.9847 50.2366 22.7461 52.998 22.7461V34.7461C56.864 34.7461 59.998 31.6121 59.998 27.7461H47.998ZM47.998 25.7461V27.7461H59.998V25.7461H47.998ZM55.998 19.7461H53.998V31.7461H55.998V19.7461ZM50.998 24.7461C50.998 21.9847 53.2366 19.7461 55.998 19.7461V31.7461C59.864 31.7461 62.998 28.6121 62.998 24.7461H50.998ZM55.998 29.7461C53.2366 29.7461 50.998 27.5075 50.998 24.7461H62.998C62.998 20.8801 59.864 17.7461 55.998 17.7461V29.7461ZM53.998 29.7461H55.998V17.7461H53.998V29.7461ZM47.998 21.7461V23.7461H59.998V21.7461H47.998ZM52.998 26.7461C50.2366 26.7461 47.998 24.5075 47.998 21.7461H59.998C59.998 17.8801 56.864 14.7461 52.998 14.7461V26.7461ZM57.998 21.7461C57.998 24.5075 55.7595 26.7461 52.998 26.7461V14.7461C49.1321 14.7461 45.998 17.8801 45.998 21.7461H57.998ZM57.998 23.7461V21.7461H45.998V23.7461H57.998ZM49.998 29.7461H51.998V17.7461H49.998V29.7461Z" fill="white" mask="url(#path-1-outside-1_2974_21196)"/>
<path d="M33.0614 15.3007C33.3823 14.4272 34.6177 14.4272 34.9386 15.3007L39.2145 26.9379C39.3157 27.2133 39.5328 27.4304 39.8082 27.5316L51.4454 31.8074C52.3189 32.1284 52.3189 33.3638 51.4454 33.6847L39.8082 37.9606C39.5328 38.0618 39.3157 38.2789 39.2145 38.5543L34.9386 50.1915C34.6177 51.065 33.3823 51.065 33.0614 50.1915L28.7855 38.5543C28.6843 38.2789 28.4672 38.0618 28.1918 37.9606L16.5546 33.6847C15.6811 33.3638 15.6811 32.1284 16.5546 31.8074L28.1918 27.5316C28.4672 27.4304 28.6843 27.2133 28.7855 26.9379L33.0614 15.3007Z" stroke="#171717" stroke-width="2"/>
<path d="M40 16.7461H50" stroke="#171717" stroke-width="2" stroke-linecap="round"/>
<path d="M50 24.7461H56" stroke="#171717" stroke-width="2" stroke-linecap="round"/>
<path d="M45 21.7461L45 11.7461" stroke="#171717" stroke-width="2" stroke-linecap="round"/>
<path d="M53 27.7461L53 21.7461" stroke="#171717" stroke-width="2" stroke-linecap="round"/>
<path d="M15.7305 32.9362C15.9216 32.7663 16.2297 32.75 16.449 32.5745C16.8734 32.2349 17.4053 32.0662 17.8514 31.7568C18.88 31.0435 20.0174 30.5225 21.1221 29.948C22.7305 29.1116 24.477 28.6199 26.1866 28.0501C26.7762 27.8536 26.8542 27.5333 27.2173 27.0491C27.9337 26.0939 28.3008 24.9277 28.8428 23.8825C30.0503 21.5537 31.0086 19.0932 32.272 16.7961C32.5666 16.2605 32.8975 15.7972 33.4365 15.4978C34.0459 15.1592 34.511 15.8601 34.7993 16.2758C35.7799 17.6898 36.0471 19.5046 36.4941 21.1223C36.814 22.2803 37.1958 23.4003 37.5397 24.5465C37.7879 25.374 38.1679 26.2385 38.6943 26.9153C38.9034 27.184 39.3186 27.3095 39.6557 27.4257C40.1281 27.5886 40.5516 27.888 41.0135 28.0848C42.0506 28.5265 43.1464 29.0092 44.2296 29.3237C45.4122 29.667 46.8444 29.7085 47.753 30.617" stroke="#171717" stroke-width="2" stroke-linecap="round"/>
<path d="M47.7529 30.6167C48.3448 30.6167 49.0245 30.5202 49.6063 30.6365C50.0626 30.7278 50.4778 30.9778 50.9195 31.1122C51.6847 31.3451 52.4896 32.1143 52.2971 32.9805C52.249 33.1968 51.6736 33.2568 51.4943 33.2927C50.3301 33.5255 49.2033 33.9622 48.0899 34.363C47.116 34.7136 46.1752 35.1512 45.2107 35.5276C44.3291 35.8716 43.4391 36.174 42.5793 36.5732C41.4637 37.0912 40.3833 37.6316 39.4177 38.4216C39.0861 38.6929 38.9894 39.0885 38.833 39.4672C38.3608 40.6104 37.6662 41.6713 37.0539 42.7428C36.7648 43.2488 36.3354 43.8297 36.3354 44.4376C36.3354 44.8828 36.145 45.4134 36.048 45.8499C35.9021 46.5063 35.5854 47.1337 35.4038 47.7826C35.2805 48.2228 35.1913 48.764 34.9776 49.1701C34.8148 49.4794 34.383 50.5946 33.9716 50.5032C33.4956 50.3974 33.2229 48.7085 33.1044 48.3178C32.7932 47.2921 32.4233 46.2773 32.0092 45.29C31.6501 44.4336 31.1645 43.6196 30.8496 42.7478C30.6156 42.0998 30.2887 41.3896 29.913 40.8052C29.6177 40.3458 29.4146 39.8862 29.1549 39.4078C28.9979 39.1187 28.77 38.4237 28.3967 38.377C28.0879 38.3384 27.6926 37.9492 27.3758 37.8418C26.7615 37.6336 26.184 37.4837 25.6761 37.0886C25.3461 36.8319 24.6329 36.5911 24.2439 36.4345C23.5404 36.1511 22.9181 35.7334 22.232 35.4285C21.697 35.1907 21.0924 34.9099 20.5124 34.809C20.1213 34.741 19.6259 34.6298 19.2785 34.4324C18.6747 34.0894 17.7902 33.3819 17.0684 33.3819" stroke="#171717" stroke-width="2" stroke-linecap="round"/>
<path d="M39.6348 16.2564C40.9376 16.2564 42.2812 16.1386 43.5595 16.415C44.2733 16.5693 45.039 16.524 45.7697 16.524C46.6386 16.524 47.5074 16.524 48.3763 16.524C48.8115 16.524 49.4328 16.4552 49.8035 16.7024" stroke="#171717" stroke-width="2" stroke-linecap="round"/>
<path d="M44.7194 21.4291C44.7194 19.9193 44.7194 18.4095 44.7194 16.8997C44.7194 16.0165 44.855 15.0085 44.6996 14.1346C44.608 13.6191 44.4825 13.1196 44.4518 12.5984C44.439 12.3798 44.2734 12.1621 44.2734 11.8848" stroke="#171717" stroke-width="2" stroke-linecap="round"/>
<path d="M52.5696 21.7861C52.5696 23.0908 52.3736 24.6057 52.6588 25.8893C52.7403 26.2558 52.8372 26.5333 52.8372 26.9151C52.8372 27.1678 52.8372 27.926 52.8372 27.6733" stroke="#171717" stroke-width="2" stroke-linecap="round"/>
<path d="M49.9824 24.9977C51.6623 24.9977 53.3423 24.9977 55.0222 24.9977C55.1929 24.9977 55.8995 24.938 55.9588 24.8193" stroke="#171717" stroke-width="2" stroke-linecap="round"/>
</g>
<defs>
<filter id="filter0_dd_2974_21196" x="0.898438" y="0.746094" width="70.0996" height="69.1003" filterUnits="userSpaceOnUse" color-interpolation-filters="sRGB">
<feFlood flood-opacity="0" result="BackgroundImageFix"/>
<feColorMatrix in="SourceAlpha" type="matrix" values="0 0 0 0 0 0 0 0 0 0 0 0 0 0 0 0 0 0 127 0" result="hardAlpha"/>
<feOffset dy="2"/>
<feGaussianBlur stdDeviation="1"/>
<feComposite in2="hardAlpha" operator="out"/>
<feColorMatrix type="matrix" values="0 0 0 0 0 0 0 0 0 0 0 0 0 0 0 0 0 0 0.02 0"/>
<feBlend mode="normal" in2="BackgroundImageFix" result="effect1_dropShadow_2974_21196"/>
<feColorMatrix in="SourceAlpha" type="matrix" values="0 0 0 0 0 0 0 0 0 0 0 0 0 0 0 0 0 0 127 0" result="hardAlpha"/>
<feOffset dy="4"/>
<feGaussianBlur stdDeviation="4"/>
<feComposite in2="hardAlpha" operator="out"/>
<feColorMatrix type="matrix" values="0 0 0 0 0 0 0 0 0 0 0 0 0 0 0 0 0 0 0.06 0"/>
<feBlend mode="normal" in2="effect1_dropShadow_2974_21196" result="effect2_dropShadow_2974_21196"/>
<feBlend mode="normal" in="SourceGraphic" in2="effect2_dropShadow_2974_21196" result="shape"/>
</filter>
</defs>
</svg>
