<svg width="48" height="48" viewBox="0 0 48 48" fill="none" xmlns="http://www.w3.org/2000/svg">
<path fill-rule="evenodd" clip-rule="evenodd" d="M32.1927 3C32.745 3 33.1927 3.44772 33.1927 4V7.42767H36.6204C37.1727 7.42767 37.6204 7.87539 37.6204 8.42767C37.6204 8.97996 37.1727 9.42767 36.6204 9.42767H33.1927V12.8554C33.1927 13.4077 32.745 13.8554 32.1927 13.8554C31.6405 13.8554 31.1927 13.4077 31.1927 12.8554V9.42767H27.765C27.2127 9.42767 26.765 8.97996 26.765 8.42767C26.765 7.87539 27.2127 7.42767 27.765 7.42767H31.1927V4C31.1927 3.44772 31.6405 3 32.1927 3ZM20.3855 12.2289C20.2884 12.2289 20.1936 12.2586 20.1138 12.3141C20.0343 12.3694 19.9735 12.4476 19.9397 12.5384L16.398 22.1488C16.2732 22.4874 16.0765 22.7949 15.8213 23.0501C15.5661 23.3053 15.2585 23.5021 14.9199 23.6269L5.3103 27.1682C5.21957 27.2021 5.1405 27.2632 5.0852 27.3427C5.02973 27.4224 5 27.5173 5 27.6144C5 27.7116 5.02973 27.8064 5.0852 27.8861C5.1405 27.9656 5.21875 28.0264 5.30947 28.0603L14.9199 31.6019C15.2585 31.7267 15.5661 31.9235 15.8213 32.1787C16.0765 32.4339 16.2732 32.7414 16.398 33.08L19.9394 42.6896C19.9732 42.7804 20.0343 42.8594 20.1138 42.9147C20.1936 42.9702 20.2884 42.9999 20.3855 42.9999C20.4827 42.9999 20.5775 42.9702 20.6572 42.9147C20.7368 42.8594 20.7975 42.7811 20.8314 42.6904L24.373 33.08C24.4978 32.7414 24.6946 32.4339 24.9498 32.1787C25.205 31.9235 25.5125 31.7267 25.8512 31.6019L35.4607 28.0606C35.5515 28.0267 35.6305 27.9657 35.6858 27.8861C35.7413 27.8064 35.771 27.7116 35.771 27.6144C35.771 27.5173 35.7413 27.4224 35.6858 27.3427C35.6305 27.2631 35.5523 27.2024 35.4615 27.1685L25.8512 23.6269C25.5125 23.5021 25.205 23.3053 24.9498 23.0501C24.6946 22.795 24.4978 22.4874 24.373 22.1488L20.8317 12.5392C20.7978 12.4485 20.7368 12.3694 20.6572 12.3141C20.5775 12.2586 20.4827 12.2289 20.3855 12.2289ZM18.9719 10.6721C19.3868 10.3836 19.8801 10.2289 20.3855 10.2289C20.8909 10.2289 21.3843 10.3836 21.7992 10.6721C22.2141 10.9607 22.5308 11.3694 22.7067 11.8432L22.7075 11.8454L26.2497 21.4572C26.2744 21.5243 26.3134 21.5854 26.364 21.6359C26.4146 21.6865 26.4755 21.7255 26.5426 21.7502L36.1567 25.2932C36.6306 25.4691 37.0392 25.7858 37.3278 26.2007C37.6164 26.6157 37.771 27.109 37.771 27.6144C37.771 28.1198 37.6164 28.6131 37.3278 29.0281C37.0392 29.443 36.6306 29.7597 36.1567 29.9356L36.1545 29.9364L26.5427 33.4785C26.4756 33.5033 26.4146 33.5423 26.364 33.5929C26.3134 33.6435 26.2744 33.7044 26.2497 33.7715L22.7075 43.3834L22.7067 43.3856C22.5308 43.8594 22.2141 44.2681 21.7992 44.5567C21.3843 44.8452 20.8909 44.9999 20.3855 44.9999C19.8801 44.9999 19.3868 44.8452 18.9719 44.5567C18.5569 44.2681 18.2402 43.8594 18.0644 43.3856L18.0635 43.3834L14.5214 33.7716C14.4966 33.7045 14.4576 33.6435 14.4071 33.5929C14.3565 33.5423 14.2955 33.5033 14.2284 33.4786L4.61652 29.9364L4.61433 29.9356C4.1405 29.7597 3.73184 29.443 3.44326 29.0281C3.15468 28.6131 3 28.1198 3 27.6144C3 27.109 3.15468 26.6157 3.44326 26.2007C3.73184 25.7858 4.1405 25.4691 4.61433 25.2932L4.61652 25.2924L14.2284 21.7503C14.2955 21.7255 14.3565 21.6865 14.4071 21.6359C14.4576 21.5854 14.4966 21.5244 14.5214 21.4573L18.0635 11.8454L18.0644 11.8432C18.2402 11.3694 18.5569 10.9607 18.9719 10.6721ZM41.0482 13.3314C41.6004 13.3314 42.0482 13.7791 42.0482 14.3314V16.2831H44C44.5523 16.2831 45 16.7309 45 17.2831C45 17.8354 44.5523 18.2831 44 18.2831H42.0482V20.235C42.0482 20.7873 41.6004 21.235 41.0482 21.235C40.4959 21.235 40.0482 20.7873 40.0482 20.235V18.2831H38.0964C37.5441 18.2831 37.0964 17.8354 37.0964 17.2831C37.0964 16.7309 37.5441 16.2831 38.0964 16.2831H40.0482V14.3314C40.0482 13.7791 40.4959 13.3314 41.0482 13.3314Z" fill="currentColor"/>
<path fill-rule="evenodd" clip-rule="evenodd" d="M20.4693 11.8478C20.7169 11.9701 20.8184 12.27 20.696 12.5176C20.4895 12.9354 20.2969 13.3316 20.1454 13.7402C20.0221 14.0728 19.9481 14.3911 19.8663 14.7427C19.8236 14.9267 19.7787 15.1198 19.7235 15.3288C19.6409 15.6415 19.5434 15.9468 19.448 16.2401C19.4361 16.2769 19.4242 16.3134 19.4123 16.3498C19.3285 16.6072 19.2477 16.8551 19.1756 17.1055C19.0607 17.5043 18.9665 17.8958 18.8694 18.2994C18.8134 18.5325 18.7563 18.7696 18.6937 19.0145C18.6513 19.1805 18.6085 19.3672 18.5634 19.5636C18.4812 19.9215 18.3917 20.3117 18.284 20.6671C18.1104 21.2403 17.8619 21.8358 17.4299 22.3289C16.9862 22.8352 16.4257 23.2502 15.8209 23.5324C15.5707 23.6492 15.2732 23.541 15.1564 23.2908C15.0396 23.0405 15.1478 22.743 15.3981 22.6262C15.8808 22.401 16.3281 22.0688 16.6778 21.6698C16.9745 21.3312 17.1713 20.8911 17.327 20.3772C17.4271 20.0466 17.4997 19.7282 17.5747 19.3994C17.6214 19.1944 17.6691 18.9854 17.7249 18.767C17.7799 18.5514 17.834 18.3272 17.8889 18.0992C17.9902 17.6788 18.0946 17.2454 18.2147 16.8287C18.2919 16.5605 18.3784 16.295 18.4618 16.0391C18.4736 16.0029 18.4854 15.9668 18.497 15.931C18.5921 15.6383 18.6818 15.3566 18.7566 15.0734C18.7958 14.9249 18.8337 14.7631 18.8732 14.5941C18.9636 14.2078 19.0629 13.7835 19.2078 13.3926C19.3797 12.9289 19.5945 12.4893 19.7996 12.0745C19.9219 11.8269 20.2218 11.7254 20.4693 11.8478Z" fill="currentColor"/>
<path fill-rule="evenodd" clip-rule="evenodd" d="M16.3881 23.0805C16.4478 23.3501 16.2776 23.6171 16.008 23.6768C15.0565 23.8875 14.0907 24.19 13.2437 24.6179C13.1157 24.6826 12.99 24.745 12.8661 24.8066C12.5877 24.945 12.318 25.079 12.0494 25.2245C11.8848 25.3137 11.7143 25.4117 11.5383 25.5128C11.0033 25.8203 10.4168 26.1573 9.78629 26.3683C9.46552 26.4756 9.09467 26.5473 8.76746 26.6106C8.62129 26.6388 8.48384 26.6654 8.36345 26.6927C7.92915 26.7913 7.59099 26.9158 7.32939 27.1498C7.23121 27.2376 7.13788 27.3272 7.03734 27.4238C7.00764 27.4523 6.9773 27.4815 6.94604 27.5113C6.81324 27.6382 6.66826 27.7736 6.5094 27.9015C6.49926 27.9097 6.48863 27.9177 6.4784 27.925C6.48434 27.9284 6.4902 27.9317 6.49597 27.935C6.97649 28.2096 7.46902 28.428 7.98544 28.6571C8.25289 28.7757 8.52675 28.8972 8.80867 29.0308C8.84661 29.0488 8.88446 29.0667 8.92223 29.0846C9.86387 29.5311 10.7508 29.9516 11.7058 30.2216C12.1386 30.3439 12.5804 30.4434 13.0359 30.5436C13.0779 30.5528 13.1201 30.562 13.1623 30.5713C13.5742 30.6617 13.9978 30.7547 14.4177 30.8651L14.4194 30.8656C15.1201 31.0498 16.0383 31.2912 16.6744 31.991C16.9681 32.3141 17.118 32.6951 17.233 32.9982C17.2381 33.0117 17.2434 33.0266 17.2476 33.0389C17.3055 33.1205 17.3395 33.2202 17.3395 33.3278C17.3395 33.6039 17.1156 33.8278 16.8395 33.8278C16.6785 33.8278 16.5653 33.7543 16.5092 33.7076C16.4531 33.6608 16.4184 33.612 16.4011 33.5856C16.3661 33.5323 16.3448 33.4804 16.3354 33.457C16.324 33.4284 16.3144 33.4003 16.3087 33.3836L16.301 33.3612L16.2987 33.3548C16.2982 33.3532 16.2979 33.3527 16.298 33.3529C16.1815 33.0456 16.0866 32.831 15.9345 32.6637C15.5274 32.2159 14.9094 32.0284 14.1634 31.8322C13.7645 31.7273 13.3611 31.6388 12.9459 31.5476C12.9044 31.5385 12.8628 31.5294 12.8211 31.5202C12.366 31.4201 11.8982 31.3151 11.4338 31.1839C10.3958 30.8905 9.43991 30.437 8.51765 29.9995C8.47184 29.9778 8.42612 29.9561 8.38047 29.9345C8.14688 29.8238 7.898 29.7132 7.64237 29.5996C7.09797 29.3577 6.52295 29.1021 5.99983 28.8032C5.99513 28.8005 5.987 28.7961 5.97607 28.7901C5.91911 28.7588 5.78628 28.686 5.66918 28.6064C5.59736 28.5577 5.5113 28.4934 5.43502 28.4166C5.36949 28.3507 5.25373 28.2196 5.21464 28.0315C5.17616 27.8463 5.24345 27.7003 5.28019 27.6351C5.32092 27.5628 5.37061 27.5074 5.40566 27.4719C5.47731 27.3991 5.56256 27.335 5.62822 27.2885C5.69792 27.2392 5.76854 27.1939 5.81992 27.1611C5.87159 27.1282 5.88749 27.1176 5.88775 27.118C5.88786 27.1182 5.88553 27.12 5.882 27.1229C6.00648 27.0226 6.1264 26.9114 6.25531 26.7882C6.28188 26.7628 6.30913 26.7367 6.33695 26.7099C6.43956 26.6113 6.54992 26.5053 6.6627 26.4044C7.11677 25.9983 7.65787 25.8274 8.14218 25.7175C8.33403 25.674 8.5075 25.6409 8.6702 25.6098C8.95588 25.5553 9.20838 25.5071 9.46896 25.42C9.99694 25.2433 10.4576 24.9788 10.9669 24.6864C11.1599 24.5756 11.3598 24.4608 11.573 24.3453C11.8577 24.191 12.1533 24.0441 12.439 23.9021C12.5592 23.8424 12.6776 23.7835 12.7927 23.7253C13.7373 23.2481 14.7888 22.9225 15.7918 22.7004C16.0614 22.6407 16.3284 22.8109 16.3881 23.0805ZM6.11807 28.1736C6.11825 28.1734 6.11844 28.1733 6.11864 28.1731C6.11706 28.1748 6.11674 28.175 6.11807 28.1736Z" fill="currentColor"/>
<path fill-rule="evenodd" clip-rule="evenodd" d="M33.8884 28.2569C34.1592 28.2027 34.4226 28.3783 34.4768 28.6491L34.4827 28.6775C34.4848 28.6875 34.4893 28.7094 34.4928 28.7338L34.493 28.7354C34.498 28.7707 34.5195 28.9212 34.4326 29.0786C34.3396 29.247 34.1893 29.3074 34.1396 29.3257C34.0879 29.3448 34.0343 29.3563 34.0091 29.3616L34.0064 29.3622C33.7229 29.423 33.4386 29.4825 33.1556 29.5418C33.0461 29.5648 32.9369 29.5876 32.8279 29.6105C31.3187 29.9278 29.8908 30.4198 28.4867 31.075C27.4867 31.5417 26.5088 32.0445 25.5882 32.624C24.7629 33.1435 24.1172 33.6491 23.7322 34.4277C23.3565 35.1874 23.118 36.0345 22.8719 36.9084C22.8464 36.9989 22.8209 37.0897 22.795 37.1807C22.5728 37.9643 22.3824 38.7558 22.1893 39.5589C22.1602 39.6795 22.1312 39.8004 22.1019 39.9215C22.1019 39.9215 22.1018 39.9218 22.1017 39.9226L22.1009 39.9258L22.0985 39.9371L22.0909 39.974C22.0859 39.9989 22.0801 40.0288 22.0731 40.0644L22.0681 40.0896C22.0499 40.1823 22.026 40.3031 21.997 40.4405C21.9392 40.714 21.8597 41.06 21.7605 41.3934C21.6642 41.7166 21.5378 42.0689 21.3744 42.3309C21.2944 42.4591 21.1778 42.6118 21.0111 42.714C20.8175 42.8327 20.5689 42.8721 20.3227 42.7609C20.1246 42.6715 19.9958 42.5069 19.9324 42.4204C19.8946 42.3688 19.8614 42.3179 19.8361 42.2786C19.8299 42.2689 19.8243 42.2602 19.8193 42.2524C19.801 42.2239 19.7897 42.2063 19.7791 42.1912C19.3969 41.6434 19.115 41.0705 18.8765 40.4721C18.8577 40.4248 18.839 40.3779 18.8205 40.3312C18.614 39.8119 18.424 39.3338 18.1719 38.8747C18.1165 38.7737 18.0587 38.6708 17.9999 38.5659C17.7789 38.1722 17.5425 37.751 17.3568 37.3033C16.82 36.0098 16.511 34.6342 16.3436 33.2709C16.31 32.9968 16.5049 32.7474 16.7789 32.7137C17.053 32.68 17.3025 32.8749 17.3362 33.149C17.4957 34.4481 17.787 35.731 18.2804 36.9201C18.4413 37.3078 18.6396 37.6616 18.8559 38.0474C18.9188 38.1595 18.9831 38.2743 19.0485 38.3935C19.332 38.9098 19.5445 39.445 19.7469 39.9546C19.7665 40.0039 19.786 40.053 19.8054 40.1018C20.0248 40.6521 20.2732 41.1516 20.5992 41.619C20.6034 41.6249 20.6076 41.6311 20.6119 41.6374C20.675 41.4984 20.7396 41.3177 20.802 41.108C20.9379 40.6516 21.0265 40.2011 21.0819 39.9195C21.102 39.8168 21.1178 39.7366 21.1299 39.6868C21.1588 39.5671 21.1876 39.447 21.2166 39.3267C21.4093 38.5252 21.6048 37.7124 21.833 36.9078C21.8589 36.8165 21.8849 36.7239 21.9112 36.6304C22.1527 35.7711 22.4164 34.8326 22.8358 33.9844C23.3493 32.9459 24.1978 32.3175 25.0555 31.7777C26.0241 31.1681 27.0425 30.6455 28.0639 30.1688C29.531 29.4841 31.0316 28.9663 32.6222 28.6319C32.7326 28.6087 32.8428 28.5856 32.9527 28.5626C33.1702 28.517 33.3869 28.4716 33.6035 28.4256C33.674 28.3416 33.7725 28.2801 33.8884 28.2569ZM20.7774 41.8756C20.7773 41.8756 20.777 41.8753 20.7763 41.8747L20.7774 41.8756Z" fill="currentColor"/>
<path fill-rule="evenodd" clip-rule="evenodd" d="M23.4645 19.8747C23.7379 19.8357 23.9911 20.0256 24.0302 20.299C24.0656 20.5469 24.1096 20.7895 24.1555 21.0426C24.1729 21.1385 24.1906 21.2358 24.2081 21.3356C24.2329 21.4759 24.2525 21.6094 24.2715 21.7391C24.3087 21.9928 24.3437 22.2317 24.4108 22.4775C24.5071 22.8299 24.6399 23.0589 24.8299 23.1881C25.0109 23.3112 25.2525 23.3969 25.5537 23.4688C25.7021 23.5043 25.8544 23.5341 26.0144 23.5652L26.0274 23.5677C26.1796 23.5973 26.3409 23.6287 26.4944 23.6656C27.2593 23.8491 27.5156 23.9244 28.266 24.165C29.444 24.5427 30.5994 24.8936 31.7894 25.1769C32.009 25.2292 32.2441 25.2743 32.4972 25.3224L32.5282 25.3283C32.7684 25.3739 33.0235 25.4224 33.2768 25.4801C33.8017 25.5998 34.3622 25.7682 34.8499 26.0753C35.0877 26.225 35.3583 26.4335 35.5699 26.7006C35.7831 26.9697 35.9583 27.3281 35.9353 27.7563C35.9256 27.9364 35.8879 28.1777 35.7236 28.3784C35.543 28.599 35.2917 28.6751 35.0629 28.6895C34.7062 28.7119 34.3353 28.7071 33.9892 28.7026C33.8536 28.7009 33.7218 28.6992 33.5961 28.6992C33.32 28.6992 33.0961 28.4753 33.0961 28.1992C33.0961 27.923 33.32 27.6992 33.5961 27.6992C33.7503 27.6992 33.8985 27.7011 34.0429 27.703C34.3511 27.707 34.642 27.7108 34.9371 27.6951C34.9408 27.5867 34.8989 27.464 34.786 27.3215C34.6689 27.1738 34.4988 27.036 34.3171 26.9216C33.9733 26.7051 33.5441 26.5667 33.0545 26.4551C32.8195 26.4015 32.5804 26.3561 32.3355 26.3096L32.3105 26.3049C32.0607 26.2574 31.8033 26.2082 31.5577 26.1497C30.3303 25.8575 29.1464 25.4974 27.9606 25.1172C27.2297 24.8829 26.9976 24.8147 26.2611 24.638C26.1289 24.6062 25.9859 24.5784 25.8255 24.5472L25.8234 24.5468C25.6661 24.5162 25.4936 24.4826 25.3215 24.4415C24.9817 24.3604 24.5994 24.2407 24.2675 24.015C23.7883 23.6891 23.5676 23.1857 23.4461 22.741C23.363 22.4365 23.3118 22.0907 23.2701 21.8088C23.2535 21.6966 23.2384 21.5944 23.2233 21.5091C23.2077 21.4204 23.1912 21.3298 23.1746 21.2377C23.1275 20.9786 23.0785 20.7084 23.0402 20.4404C23.0012 20.167 23.1911 19.9138 23.4645 19.8747Z" fill="currentColor"/>
<path fill-rule="evenodd" clip-rule="evenodd" d="M20.205 11.9912C20.4003 11.7959 20.7169 11.7959 20.9121 11.9912C21.9342 13.0133 22.7696 14.1709 23.2871 15.5682C23.8557 17.1034 24.0085 18.7958 24.0337 20.3619C24.0382 20.638 23.818 20.8654 23.5419 20.8699C23.2658 20.8743 23.0383 20.6541 23.0339 20.378C23.0092 18.8516 22.8594 17.2926 22.3494 15.9155C21.8934 14.6844 21.1516 13.6448 20.205 12.6983C20.0098 12.503 20.0098 12.1864 20.205 11.9912Z" fill="currentColor"/>
<path fill-rule="evenodd" clip-rule="evenodd" d="M30.9897 2.92773C31.2658 2.92773 31.4897 3.15159 31.4897 3.42773C31.4897 3.68656 31.4936 3.95279 31.4976 4.22391C31.5104 5.0837 31.5238 5.99265 31.4145 6.87041C31.3671 7.25164 31.2669 7.62996 31.1773 7.96812C31.1553 8.05103 31.134 8.13152 31.1143 8.20905C31.0087 8.6234 30.9371 8.98676 30.9561 9.34909C30.9768 9.74393 31.0267 10.1346 31.0794 10.547C31.0854 10.5941 31.0914 10.6415 31.0975 10.6893C31.1555 11.1468 31.2124 11.6297 31.2194 12.1262C31.2258 12.5766 31.2571 13.0145 31.3164 13.4593C31.3529 13.733 31.1606 13.9845 30.8869 14.021C30.6132 14.0575 30.3617 13.8652 30.3252 13.5915C30.2605 13.1062 30.2264 12.6289 30.2195 12.1403C30.2134 11.7055 30.1633 11.2722 30.1054 10.815C30.0994 10.7677 30.0933 10.7201 30.0872 10.6722C30.0351 10.2648 29.9803 9.83601 29.9575 9.40144C29.9302 8.8798 30.0354 8.39342 30.1452 7.96222C30.1701 7.86448 30.1949 7.77052 30.219 7.6793C30.3062 7.34886 30.3839 7.0544 30.4222 6.74686C30.5221 5.94452 30.5103 5.13428 30.498 4.29134C30.4939 4.00749 30.4897 3.71994 30.4897 3.42773C30.4897 3.15159 30.7135 2.92773 30.9897 2.92773Z" fill="currentColor"/>
<path fill-rule="evenodd" clip-rule="evenodd" d="M29.9449 10.0303C29.0795 10.0352 28.2126 10.0402 27.3438 10.0402C27.0676 10.0402 26.8438 9.8163 26.8438 9.54016C26.8438 9.26402 27.0676 9.04016 27.3438 9.04016C28.2 9.04016 29.0595 9.03527 29.9208 9.03037C32.1236 9.01783 34.3388 9.00522 36.5452 9.07417C36.8212 9.0828 37.038 9.31354 37.0293 9.58955C37.0207 9.86555 36.79 10.0823 36.514 10.0737C34.3273 10.0054 32.1407 10.0178 29.9449 10.0303Z" fill="currentColor"/>
<path fill-rule="evenodd" clip-rule="evenodd" d="M39.6101 13.6351C39.8853 13.658 40.0897 13.8997 40.0668 14.1749C40.0544 14.3243 40.0411 14.446 40.0285 14.5613C40.0133 14.7011 39.9991 14.8313 39.9887 14.9899C39.9457 15.6415 40.0217 16.2775 40.1434 16.9614C40.3522 18.1356 40.3463 19.308 40.3406 20.4407C40.3396 20.6246 40.3387 20.8074 40.3387 20.9889C40.3387 21.2651 40.1149 21.4889 39.8387 21.4889C39.5626 21.4889 39.3387 21.2651 39.3387 20.9889C39.3387 20.7985 39.3396 20.6101 39.3404 20.4234C39.3456 19.286 39.3505 18.2141 39.1588 17.1365C39.0319 16.4229 38.94 15.6945 38.9908 14.9241C39.0011 14.7689 39.0207 14.5817 39.0388 14.4093C39.0512 14.2916 39.0629 14.1808 39.0703 14.0918C39.0932 13.8166 39.3349 13.6121 39.6101 13.6351Z" fill="currentColor"/>
<path fill-rule="evenodd" clip-rule="evenodd" d="M43.5101 16.3788C43.1326 16.3375 42.779 16.3972 42.3425 16.5029C41.2258 16.773 40.0447 16.7536 38.9572 16.7356C38.6931 16.7313 38.4344 16.727 38.1836 16.727C37.9075 16.727 37.6836 16.5032 37.6836 16.227C37.6836 15.9509 37.9075 15.727 38.1836 15.727C38.4715 15.727 38.7552 15.7314 39.035 15.7357C40.1098 15.7523 41.1271 15.7681 42.1073 15.5309C42.5714 15.4186 43.0634 15.3239 43.6189 15.3848C43.9929 15.4257 44.3637 15.5181 44.6922 15.5999C44.7474 15.6137 44.8014 15.6271 44.854 15.64C45.1222 15.7056 45.2865 15.9762 45.221 16.2444C45.1554 16.5127 44.8848 16.677 44.6165 16.6114C44.5563 16.5967 44.4974 16.5821 44.4395 16.5677C44.108 16.4854 43.8112 16.4118 43.5101 16.3788Z" fill="currentColor"/>
</svg>
