<svg width="48" height="48" viewBox="0 0 48 48" fill="none" xmlns="http://www.w3.org/2000/svg">
<path fill-rule="evenodd" clip-rule="evenodd" d="M24 4C24.5523 4 25 4.44772 25 5V8.39286C25 8.94515 24.5523 9.39286 24 9.39286C23.4477 9.39286 23 8.94515 23 8.39286V5C23 4.44772 23.4477 4 24 4ZM24 14.8214C18.9308 14.8214 14.8214 18.9308 14.8214 24C14.8214 29.0692 18.9308 33.1786 24 33.1786C29.0692 33.1786 33.1786 29.0692 33.1786 24C33.1786 18.9308 29.0692 14.8214 24 14.8214ZM12.8214 24C12.8214 17.8262 17.8262 12.8214 24 12.8214C30.1738 12.8214 35.1786 17.8262 35.1786 24C35.1786 30.1738 30.1738 35.1786 24 35.1786C17.8262 35.1786 12.8214 30.1738 12.8214 24ZM11.2714 9.85717C10.8809 9.46664 10.2477 9.46664 9.85717 9.85717C9.46664 10.2477 9.46664 10.8809 9.85717 11.2714L12.2491 13.6633C12.6397 14.0539 13.2728 14.0539 13.6633 13.6633C14.0539 13.2728 14.0539 12.6397 13.6633 12.2491L11.2714 9.85717ZM4 24C4 23.4477 4.44772 23 5 23H8.39286C8.94515 23 9.39286 23.4477 9.39286 24C9.39286 24.5523 8.94515 25 8.39286 25H5C4.44772 25 4 24.5523 4 24ZM13.6633 35.7509C14.0539 35.3604 14.0539 34.7272 13.6633 34.3367C13.2728 33.9462 12.6397 33.9462 12.2491 34.3367L9.85717 36.7286C9.46664 37.1192 9.46664 37.7523 9.85717 38.1429C10.2477 38.5334 10.8809 38.5334 11.2714 38.1429L13.6633 35.7509ZM24 38.6071C24.5523 38.6071 25 39.0549 25 39.6071V43C25 43.5523 24.5523 44 24 44C23.4477 44 23 43.5523 23 43V39.6071C23 39.0549 23.4477 38.6071 24 38.6071ZM35.7509 34.3367C35.3604 33.9462 34.7272 33.9462 34.3367 34.3367C33.9462 34.7272 33.9462 35.3604 34.3367 35.7509L36.7286 38.1429C37.1192 38.5334 37.7523 38.5334 38.1429 38.1429C38.5334 37.7523 38.5334 37.1192 38.1429 36.7286L35.7509 34.3367ZM38.6071 24C38.6071 23.4477 39.0549 23 39.6071 23H43C43.5523 23 44 23.4477 44 24C44 24.5523 43.5523 25 43 25H39.6071C39.0549 25 38.6071 24.5523 38.6071 24ZM38.1429 11.2714C38.5334 10.8809 38.5334 10.2477 38.1429 9.85717C37.7523 9.46664 37.1192 9.46664 36.7286 9.85717L34.3367 12.2491C33.9462 12.6397 33.9462 13.2728 34.3367 13.6633C34.7272 14.0539 35.3604 14.0539 35.7509 13.6633L38.1429 11.2714Z" fill="currentColor"/>
<path fill-rule="evenodd" clip-rule="evenodd" d="M23.4556 14.297C23.7917 14.3102 24.1105 14.3228 24.4173 14.3228C24.6935 14.3228 24.9173 14.5467 24.9173 14.8228C24.9173 15.099 24.6935 15.3228 24.4173 15.3228C24.0894 15.3228 23.7498 15.3094 23.4167 15.2962C23.3757 15.2946 23.3348 15.293 23.294 15.2914C22.9173 15.2767 22.5474 15.2643 22.1836 15.2708C21.4524 15.2839 20.7901 15.3736 20.2235 15.6445C18.7514 16.3482 17.7318 17.4703 17.0074 18.9682C16.1733 20.6929 15.7571 22.8724 15.8752 24.7826C15.9388 25.81 16.3752 26.702 16.9654 27.6074C17.1898 27.9518 17.4289 28.2872 17.6751 28.6325C17.7545 28.7439 17.8347 28.8565 17.9155 28.9707C18.2414 29.4319 18.5696 29.9128 18.8517 30.4205C18.9858 30.6619 18.8988 30.9663 18.6574 31.1004C18.416 31.2345 18.1116 31.1476 17.9775 30.9062C17.7229 30.448 17.4208 30.0035 17.0988 29.5478C17.0236 29.4413 16.9469 29.3338 16.8695 29.2253C16.6206 28.8761 16.3646 28.5171 16.1276 28.1535C15.5026 27.1946 14.9565 26.1277 14.8771 24.8443C14.7486 22.767 15.1965 20.4158 16.1071 18.5328C16.9134 16.8657 18.0828 15.5594 19.7923 14.7422C20.5489 14.3806 21.379 14.285 22.1657 14.271C22.5608 14.2639 22.9561 14.2775 23.3329 14.2921C23.3741 14.2937 23.415 14.2954 23.4556 14.297Z" fill="currentColor"/>
<path fill-rule="evenodd" clip-rule="evenodd" d="M31.8535 19.5803C32.1269 19.5412 32.3802 19.7312 32.4192 20.0045C32.4842 20.4592 32.5715 20.9119 32.6638 21.3755C32.6757 21.435 32.6876 21.4948 32.6996 21.5548C32.7802 21.958 32.8627 22.3707 32.9316 22.7864C33.1463 24.0802 33.1056 25.3205 32.9485 26.5843C32.7013 28.5723 31.6765 29.7564 30.3499 31.0085C30.3161 31.0404 30.282 31.0727 30.2475 31.1052C29.2957 32.0047 28.126 33.1101 26.7331 33.5909C25.8987 33.8788 25.0916 33.8318 24.3421 33.6784C23.8736 33.5825 23.3815 33.4321 22.9211 33.2914C22.6784 33.2172 22.4446 33.1457 22.2277 33.0864C21.7977 32.9687 21.3612 32.8684 20.9144 32.7675C20.8723 32.758 20.8301 32.7485 20.7879 32.7389C20.3843 32.6479 19.9719 32.5549 19.5621 32.449C19.1197 32.3347 18.7735 32.1357 18.5027 31.8372C18.2414 31.5491 18.0782 31.1982 17.9472 30.8316C17.8544 30.5715 17.9899 30.2854 18.2499 30.1925C18.51 30.0997 18.7961 30.2352 18.889 30.4952C19.003 30.8144 19.1124 31.0208 19.2434 31.1653C19.365 31.2993 19.5309 31.4081 19.8123 31.4808C20.2062 31.5826 20.6032 31.6722 21.0091 31.7637C21.0509 31.7731 21.0927 31.7826 21.1347 31.792C21.5813 31.8929 22.0375 31.9976 22.4917 32.1219C22.7723 32.1986 23.0341 32.2791 23.2879 32.3571C23.7118 32.4874 24.1134 32.6109 24.5426 32.6987C25.1945 32.8322 25.8038 32.8537 26.4068 32.6456C27.5923 32.2365 28.6247 31.2619 29.6286 30.3143L29.6635 30.2813C30.9443 29.0724 31.7532 28.0927 31.9561 26.461C32.1059 25.2562 32.1389 24.1185 31.9451 22.95C31.8791 22.5518 31.8001 22.1566 31.7193 21.7521C31.7072 21.6919 31.6952 21.6314 31.6831 21.5707C31.5906 21.1063 31.4984 20.6301 31.4293 20.146C31.3902 19.8726 31.5802 19.6193 31.8535 19.5803Z" fill="currentColor"/>
<path fill-rule="evenodd" clip-rule="evenodd" d="M24.2402 14.5726C24.6788 14.3949 25.2559 14.1612 25.9295 14.3285C26.9722 14.5874 28.0234 14.9678 29.0197 15.3284C29.2246 15.4025 29.4271 15.4758 29.6268 15.547C30.2328 15.7632 30.7496 16.0156 31.1722 16.4006C31.6011 16.7912 31.8989 17.2868 32.1223 17.9346C32.3732 18.6623 32.4229 19.373 32.4229 20.0754C32.4229 20.3515 32.199 20.5754 31.9229 20.5754C31.6467 20.5754 31.4229 20.3515 31.4229 20.0754C31.4229 19.4168 31.3749 18.8347 31.1769 18.2606C30.9935 17.7288 30.7745 17.3909 30.4988 17.1398C30.217 16.8832 29.8418 16.6855 29.2908 16.4889C29.0816 16.4143 28.8726 16.3387 28.6638 16.2632C27.6682 15.9031 26.6759 15.5442 25.6884 15.299C25.3374 15.2118 25.0438 15.3285 24.5218 15.5373C24.2654 15.6399 23.9744 15.5152 23.8718 15.2588C23.7693 15.0024 23.894 14.7114 24.1504 14.6089C24.1796 14.5972 24.2096 14.585 24.2402 14.5726Z" fill="currentColor"/>
<path fill-rule="evenodd" clip-rule="evenodd" d="M22.7926 5.60262C22.8885 5.38454 22.817 5.12259 22.6119 4.98588C22.3822 4.83271 22.0717 4.89479 21.9186 5.12456C21.9171 5.1267 21.9152 5.12957 21.9127 5.13311C21.8866 5.17092 21.8072 5.28591 21.7751 5.42281C21.7301 5.6152 21.7816 5.77805 21.8299 5.88887C21.8934 6.03452 21.9299 6.18624 21.9586 6.36549C21.9725 6.45261 21.9839 6.54123 21.9966 6.64038C21.9971 6.6449 21.9977 6.64944 21.9983 6.654C22.0114 6.75601 22.0259 6.86816 22.0451 6.98406C22.1026 7.33259 22.2232 7.68226 22.3271 7.98352C22.3463 8.03943 22.365 8.09368 22.3827 8.14594C22.5039 8.50564 22.5849 8.79795 22.5849 9.07025C22.5849 9.34639 22.8088 9.57025 23.0849 9.57025C23.3611 9.57025 23.5849 9.34639 23.5849 9.07025C23.5849 8.61865 23.4524 8.1888 23.3303 7.82648C23.3082 7.76111 23.2866 7.69805 23.2656 7.63688C23.162 7.3348 23.0743 7.07902 23.0317 6.82113C23.0159 6.72525 23.0034 6.62968 22.9902 6.52677C22.9894 6.5208 22.9887 6.51479 22.9879 6.50876C22.9757 6.41351 22.9625 6.31064 22.946 6.20769C22.9159 6.0191 22.8727 5.81509 22.7926 5.60262Z" fill="currentColor"/>
<path fill-rule="evenodd" clip-rule="evenodd" d="M11.5508 9.15434C11.7806 9.00116 12.091 9.06325 12.2442 9.29302C12.398 9.52373 12.4856 9.78053 12.5496 9.96851C12.5543 9.9822 12.5588 9.99552 12.5633 10.0084C12.6371 10.2236 12.6887 10.3544 12.7645 10.4548C13.241 11.0859 13.7654 11.7328 14.2874 12.3243C14.4701 12.5314 14.4503 12.8473 14.2433 13.03C14.0362 13.2127 13.7202 13.193 13.5375 12.9859C12.9972 12.3735 12.4567 11.7067 11.9664 11.0574C11.7823 10.8135 11.6872 10.5365 11.6188 10.3369L11.6174 10.333C11.5404 10.1084 11.491 9.96601 11.4122 9.84772C11.259 9.61795 11.3211 9.30752 11.5508 9.15434Z" fill="currentColor"/>
<path fill-rule="evenodd" clip-rule="evenodd" d="M5.496 24.8344C6.61403 24.6481 7.64838 24.4941 8.82968 24.4941C9.10583 24.4941 9.32968 24.718 9.32968 24.9941C9.32968 25.2703 9.10583 25.4941 8.82968 25.4941C7.73644 25.4941 6.77112 25.6357 5.6604 25.8208C5.38802 25.8662 5.1304 25.6822 5.08501 25.4098C5.03961 25.1374 5.22362 24.8798 5.496 24.8344Z" fill="currentColor"/>
<path fill-rule="evenodd" clip-rule="evenodd" d="M13.8129 35.1054C14.0762 35.1885 14.2223 35.4694 14.1391 35.7327C13.9536 36.3203 13.5972 36.7394 13.2906 37.0999C13.2356 37.1646 13.1822 37.2274 13.1317 37.2889C12.9177 37.5496 12.74 37.8322 12.5479 38.1376C12.4523 38.2896 12.3532 38.4473 12.2442 38.6108C12.091 38.8405 11.7806 38.9026 11.5508 38.7494C11.3211 38.5963 11.259 38.2858 11.4122 38.0561C11.4895 37.94 11.572 37.8091 11.659 37.671C11.8686 37.3386 12.1044 36.9644 12.3588 36.6544C12.4277 36.5705 12.4929 36.493 12.5542 36.4201C12.8556 36.0616 13.0654 35.8122 13.1856 35.4316C13.2687 35.1683 13.5496 35.0222 13.8129 35.1054Z" fill="currentColor"/>
<path fill-rule="evenodd" clip-rule="evenodd" d="M24.8359 38.6675C25.1121 38.6675 25.3359 38.8913 25.3359 39.1675C25.3359 40.3781 25.5453 41.5985 25.8984 42.7755C25.9778 43.04 25.8277 43.3188 25.5632 43.3981C25.2987 43.4775 25.02 43.3274 24.9406 43.0629C24.5647 41.8099 24.3359 40.4919 24.3359 39.1675C24.3359 38.8913 24.5598 38.6675 24.8359 38.6675Z" fill="currentColor"/>
<path fill-rule="evenodd" clip-rule="evenodd" d="M34.9396 33.9654C35.0038 33.6968 35.2736 33.5311 35.5422 33.5954C36.3526 33.7892 36.8034 34.2412 37.2598 34.6988C37.2804 34.7195 37.3011 34.7403 37.3218 34.761C37.5678 35.0069 37.8173 35.2163 38.0841 35.44C38.2462 35.5761 38.4148 35.7174 38.5927 35.8756C38.7991 36.0591 38.8177 36.3751 38.6342 36.5815C38.4508 36.7879 38.1347 36.8065 37.9283 36.623C37.7957 36.5052 37.6477 36.3805 37.4936 36.2508C37.2007 36.0043 36.8861 35.7395 36.6147 35.4681L36.6077 35.4611C36.1116 34.9649 35.8419 34.6952 35.3096 34.5679C35.041 34.5037 34.8754 34.2339 34.9396 33.9654Z" fill="currentColor"/>
<path fill-rule="evenodd" clip-rule="evenodd" d="M43.3392 22.6725C43.3783 22.9459 43.1883 23.1992 42.9149 23.2382C42.7074 23.2679 42.4982 23.299 42.2876 23.3303C41.199 23.4923 40.0715 23.6601 38.9258 23.6601C38.6496 23.6601 38.4258 23.4362 38.4258 23.1601C38.4258 22.8839 38.6496 22.6601 38.9258 22.6601C39.9908 22.6601 41.033 22.5054 42.1214 22.3438C42.3368 22.3119 42.554 22.2796 42.7735 22.2483C43.0469 22.2092 43.3002 22.3992 43.3392 22.6725Z" fill="currentColor"/>
<path fill-rule="evenodd" clip-rule="evenodd" d="M35.8334 9.5131C36.0954 9.60042 36.237 9.88358 36.1497 10.1456C36.0679 10.3909 35.8915 10.5896 35.7761 10.7134C35.7196 10.774 35.6731 10.8217 35.6335 10.8624C35.568 10.9297 35.5214 10.9775 35.4799 11.0319C35.3772 11.1664 35.269 11.2956 35.1697 11.4141C35.1575 11.4286 35.1456 11.4429 35.1337 11.457C35.0217 11.5909 34.9217 11.7125 34.8326 11.8357C34.6571 12.0785 34.5421 12.3043 34.5021 12.5646C34.4601 12.8375 34.2048 13.0248 33.9319 12.9828C33.6589 12.9408 33.4717 12.6855 33.5137 12.4126C33.5867 11.9378 33.7955 11.5634 34.0222 11.2499C34.1342 11.0949 34.2548 10.9492 34.3667 10.8154C34.3788 10.801 34.3908 10.7867 34.4026 10.7725C34.5038 10.6517 34.597 10.5405 34.685 10.4251C34.7456 10.3458 34.8145 10.2714 34.8737 10.2095C34.9013 10.1806 34.9253 10.1558 34.948 10.1325C34.9809 10.0986 35.0109 10.0677 35.0446 10.0316C35.0966 9.97574 35.1356 9.93006 35.164 9.89064C35.1778 9.87158 35.1871 9.85661 35.1932 9.84543C35.1992 9.83455 35.201 9.82931 35.201 9.82931L35.201 9.82933C35.2883 9.56735 35.5715 9.42577 35.8334 9.5131Z" fill="currentColor"/>
</svg>
