<svg width="70" height="71" viewBox="0 0 70 71" fill="none" xmlns="http://www.w3.org/2000/svg">
<g filter="url(#filter0_dd_2974_21218)">
<path d="M35 58.7461C31.14 58.7461 28 55.6061 28 51.7461V49.4061C27.82 49.3361 27.64 49.2561 27.46 49.1861L25.81 50.8361C24.49 52.1561 22.73 52.8861 20.86 52.8861C18.99 52.8861 17.23 52.1561 15.91 50.8361C13.18 48.1061 13.18 43.6661 15.91 40.9361L17.56 39.2861C17.48 39.1061 17.41 38.9261 17.34 38.7461H15C11.14 38.7461 8 35.6061 8 31.7461C8 27.8861 11.14 24.7461 15 24.7461H17.34C17.41 24.5661 17.49 24.3861 17.56 24.2061L15.91 22.5561C13.18 19.8261 13.18 15.3861 15.91 12.6561C17.23 11.3361 18.99 10.6061 20.86 10.6061C22.73 10.6061 24.49 11.3361 25.81 12.6561L27.46 14.3061C27.64 14.2261 27.82 14.1561 28 14.0861V11.7461C28 7.88609 31.14 4.74609 35 4.74609C38.86 4.74609 42 7.88609 42 11.7461V14.0861C42.18 14.1561 42.36 14.2361 42.54 14.3061L44.19 12.6561C45.51 11.3361 47.27 10.6061 49.14 10.6061C51.01 10.6061 52.77 11.3361 54.09 12.6561C56.82 15.3861 56.82 19.8261 54.09 22.5561L52.44 24.2061C52.52 24.3861 52.59 24.5661 52.66 24.7461H55C58.86 24.7461 62 27.8861 62 31.7461C62 35.6061 58.86 38.7461 55 38.7461H52.66C52.59 38.9261 52.51 39.1061 52.44 39.2861L54.09 40.9361C56.82 43.6661 56.82 48.1061 54.09 50.8361C52.77 52.1561 51.01 52.8861 49.14 52.8861C47.27 52.8861 45.51 52.1561 44.19 50.8361L42.54 49.1861C42.36 49.2661 42.18 49.3361 42 49.4061V51.7461C42 55.6061 38.86 58.7461 35 58.7461Z" fill="white"/>
<circle cx="35" cy="31.7461" r="12" stroke="#171717" stroke-width="2"/>
<path d="M35 15.7461L35 11.7461" stroke="#171717" stroke-width="2" stroke-linecap="round"/>
<path d="M35 51.7461L35 47.7461" stroke="#171717" stroke-width="2" stroke-linecap="round"/>
<path d="M51 31.7461H55" stroke="#171717" stroke-width="2" stroke-linecap="round"/>
<path d="M15 31.7461H19" stroke="#171717" stroke-width="2" stroke-linecap="round"/>
<path d="M46.3145 20.4326L49.1429 17.6042" stroke="#171717" stroke-width="2" stroke-linecap="round"/>
<path d="M20.8574 45.8887L23.6858 43.0602" stroke="#171717" stroke-width="2" stroke-linecap="round"/>
<path d="M46.3145 43.0596L49.1429 45.888" stroke="#171717" stroke-width="2" stroke-linecap="round"/>
<path d="M20.8574 17.6035L23.6858 20.4319" stroke="#171717" stroke-width="2" stroke-linecap="round"/>
<path d="M34.9614 16.1166C34.9614 15.0887 35.1408 13.9007 34.9567 12.8884C34.86 12.3566 34.6238 11.9223 34.459 11.4277" stroke="#171717" stroke-width="2" stroke-linecap="round"/>
<path d="M45.5938 20.3868C45.5938 19.8621 46.0137 19.4353 46.3287 19.0471C46.7149 18.5711 46.9896 18.0026 47.4172 17.5586C47.6593 17.3072 48.1521 16.8701 48.5243 16.8701" stroke="#171717" stroke-width="2" stroke-linecap="round"/>
<path d="M50.7854 32.3604C49.4454 32.3604 53.4644 32.4441 54.8044 32.4441" stroke="#171717" stroke-width="2" stroke-linecap="round"/>
<path d="M45.9297 42.9102C46.0215 43.9657 46.3052 44.8766 47.06 45.6314C47.3255 45.8968 47.7255 46.2594 48.1067 46.2594" stroke="#171717" stroke-width="2" stroke-linecap="round"/>
<path d="M34.7929 47.3486C34.7929 48.3211 34.677 49.3716 34.9231 50.3211C35.0176 50.6853 35.2115 51.0178 35.2115 51.4002C35.2115 51.5349 35.2778 51.7375 35.379 51.5351" stroke="#171717" stroke-width="2" stroke-linecap="round"/>
<path d="M23.3232 43.999C22.6572 43.999 22.3464 44.8177 21.9463 45.2178C21.665 45.4991 21.4278 45.7422 21.0625 45.9248" stroke="#171717" stroke-width="2" stroke-linecap="round"/>
<path d="M14.6152 32.0254H19.2204" stroke="#171717" stroke-width="2" stroke-linecap="round"/>
<path d="M23.9084 20.3871C23.858 19.4801 22.5591 18.8964 21.9826 18.3776C21.7062 18.1288 21.3965 17.6826 21.3965 17.2891" stroke="#171717" stroke-width="2" stroke-linecap="round"/>
<path d="M30.2714 20.9733C29.0439 20.9733 27.9353 21.628 27.0524 22.4804C26.1663 23.336 25.2408 24.291 24.7266 25.4296C24.1469 26.7133 23.5951 27.9797 23.2008 29.3417C22.9433 30.2314 22.7983 31.3205 22.7357 32.2443C22.6662 33.269 22.4758 34.4561 22.7822 35.4586C23.2603 37.0234 24.6215 38.2027 25.75 39.3102C26.7506 40.2924 27.9909 41.1848 29.141 41.9849C30.099 42.6513 31.4092 43.0486 32.5321 43.3293C33.4049 43.5475 34.3096 43.7276 35.1929 43.8968C35.8582 44.0242 36.6493 43.9237 37.3233 43.9154C38.7235 43.8981 40.5389 43.2753 41.6168 42.3571C43.1706 41.0335 44.1658 39.3849 45.2033 37.6635C45.5961 37.0118 45.7385 36.1975 46.0499 35.5005C46.501 34.4908 46.327 33.1981 46.3895 32.1234C46.4513 31.0596 46.5151 29.993 46.5151 28.9277C46.5151 28.3363 46.5312 27.976 46.222 27.495C45.7655 26.7849 45.2951 26.1366 44.7474 25.4854C44.3217 24.9794 43.8502 24.5545 43.3705 24.1039C43.056 23.8084 42.7736 23.4284 42.4123 23.1875C40.9634 22.2216 39.1879 21.2918 37.5234 20.7686C36.1524 20.3378 34.687 19.5699 33.2206 19.6336C32.1563 19.6799 30.9195 20.35 30.0202 20.8896" stroke="#171717" stroke-width="2" stroke-linecap="round"/>
</g>
<defs>
<filter id="filter0_dd_2974_21218" x="0" y="0.746094" width="70" height="70" filterUnits="userSpaceOnUse" color-interpolation-filters="sRGB">
<feFlood flood-opacity="0" result="BackgroundImageFix"/>
<feColorMatrix in="SourceAlpha" type="matrix" values="0 0 0 0 0 0 0 0 0 0 0 0 0 0 0 0 0 0 127 0" result="hardAlpha"/>
<feOffset dy="2"/>
<feGaussianBlur stdDeviation="1"/>
<feComposite in2="hardAlpha" operator="out"/>
<feColorMatrix type="matrix" values="0 0 0 0 0 0 0 0 0 0 0 0 0 0 0 0 0 0 0.02 0"/>
<feBlend mode="normal" in2="BackgroundImageFix" result="effect1_dropShadow_2974_21218"/>
<feColorMatrix in="SourceAlpha" type="matrix" values="0 0 0 0 0 0 0 0 0 0 0 0 0 0 0 0 0 0 127 0" result="hardAlpha"/>
<feOffset dy="4"/>
<feGaussianBlur stdDeviation="4"/>
<feComposite in2="hardAlpha" operator="out"/>
<feColorMatrix type="matrix" values="0 0 0 0 0 0 0 0 0 0 0 0 0 0 0 0 0 0 0.06 0"/>
<feBlend mode="normal" in2="effect1_dropShadow_2974_21218" result="effect2_dropShadow_2974_21218"/>
<feBlend mode="normal" in="SourceGraphic" in2="effect2_dropShadow_2974_21218" result="shape"/>
</filter>
</defs>
</svg>
