<svg width="48" height="48" viewBox="0 0 48 48" fill="none" xmlns="http://www.w3.org/2000/svg">
<path d="M18.8837 11.2362C18.4769 10.4488 18.3863 9.53283 18.6308 8.67948C18.8753 7.82613 19.436 7.10143 20.1957 6.65677C20.9554 6.21211 21.8554 6.08187 22.7077 6.29326C23.56 6.50465 24.2987 7.04133 24.7695 7.79118L29.8728 16.7309" stroke="currentColor" stroke-width="2" stroke-linecap="round" stroke-linejoin="round"/>
<path d="M14.3593 17.0582L11.6376 12.2869C11.2308 11.4996 11.1402 10.5836 11.3847 9.73026C11.6292 8.87691 12.1899 8.15221 12.9496 7.70755C13.7093 7.26289 14.6093 7.13265 15.4616 7.34404C16.314 7.55543 17.0526 8.09211 17.5234 8.84196L23.3072 18.9874" stroke="currentColor" stroke-width="2" stroke-linecap="round" stroke-linejoin="round"/>
<path d="M29.0896 29.1329C28.6413 28.3506 28.35 27.4864 28.2322 26.5899C28.1145 25.6934 28.1726 24.7822 28.4034 23.9084C28.6341 23.0347 29.0329 22.2157 29.5768 21.4984C30.1207 20.781 30.7992 20.1794 31.5732 19.7281L29.8721 16.731C29.4209 15.9384 29.2992 14.9967 29.5337 14.1133C29.7681 13.2298 30.3396 12.4768 31.1224 12.02C31.9052 11.5631 32.8351 11.4399 33.7076 11.6773C34.5801 11.9147 35.3238 12.4934 35.7749 13.286L39.1771 19.263C40.9818 22.4289 41.4705 26.1909 40.5358 29.7217C39.601 33.2524 37.3194 36.2625 34.1929 38.0898C31.0663 39.9171 27.351 40.412 23.8641 39.4655C20.3772 38.519 17.4044 36.2088 15.5998 33.0429L8.45514 20.5032C8.23175 20.1107 8.08688 19.6776 8.02882 19.2284C7.97075 18.7793 8.00062 18.323 8.11673 17.8855C8.35121 17.002 8.92269 16.249 9.70545 15.7922C10.4882 15.3354 11.4181 15.2121 12.2907 15.4495C13.1632 15.687 13.9068 16.2656 14.358 17.0582L18.1004 23.6209" stroke="currentColor" stroke-width="2" stroke-linecap="round" stroke-linejoin="round"/>
<path d="M16.6893 41.9998C14.3778 40.3855 12.4536 38.2664 11.0586 35.7988" stroke="currentColor" stroke-width="2" stroke-linecap="round" stroke-linejoin="round"/>
<path d="M32.832 6.00003C34.3849 5.99577 35.9111 6.40789 37.2557 7.19451C38.6002 7.98112 39.7151 9.11418 40.487 10.4785" stroke="currentColor" stroke-width="2" stroke-linecap="round" stroke-linejoin="round"/>
<path d="M30.1911 29.2832C30.1615 28.4251 29.6056 27.817 29.4803 27C29.358 26.2027 29.487 25.3935 29.5557 24.5983C29.6326 23.7088 29.9475 23.2624 30.6219 22.6704C31.6048 21.8078 32.0207 20.7178 31.8928 19.3749C31.7954 18.3521 31.6173 17.3191 31.3974 16.3162C31.2685 15.7284 30.8076 14.8408 30.9989 14.2268C31.4362 12.823 33.4502 13.1978 34.3483 13.8284C35.4192 14.5802 36.2604 15.6866 37.1808 16.607C38.4022 17.8283 38.9434 18.9316 39.2917 20.6134C39.9361 23.7252 40.0198 26.533 39.0548 29.574C38.653 30.8398 38.3218 32.109 37.757 33.3165C37.4792 33.9103 37.1831 34.4781 36.9762 35.0989" stroke="currentColor" stroke-linecap="round"/>
<path d="M36.9778 35.1955C36.3814 35.3511 35.8382 35.9577 35.3354 36.3048C34.4334 36.9276 33.4783 37.2209 32.3899 37.328C30.7586 37.4884 29.3255 38.0782 27.7265 38.3619C25.8837 38.6889 24.0276 38.4111 22.3577 37.5703C20.317 36.5428 19.1014 35.0153 18.0443 33.0416C17.5782 32.1713 17.1475 31.3122 16.5473 30.5214C15.5259 29.1757 14.3078 27.9697 13.2087 26.6873C12.27 25.5923 11.2824 24.5396 10.3439 23.4456C9.47385 22.4314 8.79195 21.5069 8.84685 20.1285C8.87535 19.4126 8.84772 18.4425 9.12686 17.7591C9.57319 16.6663 10.2906 16.4882 11.3562 16.4882C12.3416 16.4882 13.2191 16.3944 13.8602 17.2798C14.6096 18.3146 15.2685 19.5552 15.5134 20.8123C15.668 21.6061 16.023 22.2929 16.2565 23.0579C16.369 23.4262 16.5212 23.8212 16.8543 24.0433C16.9519 24.1084 17.1074 24.5945 17.1074 24.7272" stroke="currentColor" stroke-linecap="round"/>
<path d="M21.9518 19.8809C21.9309 19.0211 21.6985 18.2641 21.2518 17.5222C20.4972 16.269 19.6262 15.24 19.0386 13.8766C18.4128 12.4249 17.3695 11.0237 16.3838 9.78945C15.6752 8.90218 14.6198 9.02479 13.589 9.02479C13.0954 9.02479 13.0407 9.48606 12.8459 9.87561C12.6619 10.2436 12.3426 10.6115 12.2805 11.028C12.1285 12.0459 12.3886 12.6333 13.0344 13.3866" stroke="currentColor" stroke-linecap="round"/>
<path d="M29.6113 19.2022C29.58 18.2613 28.8793 17.5931 28.3243 16.8921C27.4134 15.7414 27.0077 14.4263 26.3857 13.1226C25.742 11.7733 24.8995 10.5265 24.0756 9.28315C23.3506 8.18903 22.1132 7.64003 20.7692 7.9046C19.9655 8.06282 19.9415 9.61918 19.8753 10.2524C19.7338 11.6072 20.2394 12.5254 20.9954 13.5965C21.6578 14.5348 22.1191 15.4595 22.5678 16.5098C22.8072 17.0701 23.1275 17.4764 23.6017 17.8452" stroke="currentColor" stroke-linecap="round"/>
<path d="M32.2266 7.18305C32.9906 7.18305 33.7454 7.14221 34.4775 7.39845C35.415 7.72659 36.5556 7.91563 37.2992 8.61545C38.1326 9.39985 38.0573 10.5633 38.7208 11.4479" stroke="currentColor" stroke-linecap="round"/>
<path d="M17.2028 41.2054C16.0176 40.2219 14.9962 38.911 14.0796 37.6782C13.6799 37.1408 13.5918 36.2339 13.5195 35.5835" stroke="currentColor" stroke-linecap="round"/>
</svg>
