<svg width="63" height="67" viewBox="0 0 63 67" fill="none" xmlns="http://www.w3.org/2000/svg">
<g filter="url(#filter0_dd_2974_21207)">
<path d="M23.69 54.7461C22.25 54.7461 20.86 54.3061 19.68 53.4761C16.54 51.2761 13.87 48.3461 11.97 44.9861C10.36 42.1361 10.97 38.6361 13.23 36.4761L9.38 29.7161C8.7 28.5261 8.27 27.2361 8.09 25.8761C7.91 24.5161 8 23.1561 8.36 21.8361C8.86 19.9361 9.87 18.2461 11.27 16.9261C11.22 15.7961 11.35 14.6561 11.66 13.5461C12.41 10.9461 14.09 8.76609 16.42 7.40609C18.02 6.47609 19.82 5.98609 21.65 5.98609C22.4 5.98609 23.15 6.06609 23.89 6.22609C25.43 5.37609 27.15 4.92609 28.9 4.92609C29.74 4.92609 30.59 5.02609 31.41 5.23609C32.66 5.54609 33.83 6.08609 34.87 6.80609C36.13 5.54609 37.88 4.74609 39.81 4.74609C42.64 4.74609 45.39 5.48609 47.79 6.89609C50.2 8.30609 52.2 10.3361 53.58 12.7761C54.5 14.3961 54.73 16.2861 54.23 18.0961C53.87 19.3961 53.16 20.5361 52.18 21.4161L52.25 21.5461C54.98 26.3361 55.71 31.9161 54.29 37.2561C52.87 42.6161 49.47 47.0961 44.71 49.8761C41.57 51.7161 38 52.6861 34.4 52.6861C32.66 52.6861 30.92 52.4661 29.22 52.0161C27.9 53.7261 25.85 54.7361 23.68 54.7361L23.69 54.7461Z" fill="white"/>
<path d="M26.8837 16.9825C26.4769 16.1952 26.3863 15.2792 26.6308 14.4258C26.8753 13.5725 27.436 12.8478 28.1957 12.4031C28.9554 11.9584 29.8554 11.8282 30.7077 12.0396C31.56 12.251 32.2987 12.7877 32.7695 13.5375L37.8728 22.4772" stroke="#171717" stroke-width="2" stroke-linecap="round" stroke-linejoin="round"/>
<path d="M22.3574 22.8046L19.6356 18.0333C19.2289 17.246 19.1383 16.3299 19.3828 15.4766C19.6273 14.6232 20.1879 13.8986 20.9476 13.4539C21.7074 13.0092 22.6074 12.879 23.4597 13.0904C24.312 13.3018 25.0507 13.8384 25.5214 14.5883L31.3052 24.7338" stroke="#171717" stroke-width="2" stroke-linecap="round" stroke-linejoin="round"/>
<path d="M37.0896 34.879C36.6413 34.0967 36.35 33.2325 36.2322 32.336C36.1145 31.4395 36.1726 30.5283 36.4034 29.6545C36.6341 28.7808 37.0329 27.9618 37.5768 27.2445C38.1207 26.5271 38.7992 25.9255 39.5732 25.4742L37.8721 22.477C37.4209 21.6844 37.2992 20.7428 37.5337 19.8593C37.7681 18.9759 38.3396 18.2229 39.1224 17.766C39.9052 17.3092 40.8351 17.186 41.7076 17.4234C42.5801 17.6608 43.3238 18.2395 43.7749 19.0321L47.1771 25.0091C48.9818 28.175 49.4705 31.937 48.5358 35.4678C47.601 38.9985 45.3194 42.0086 42.1929 43.8359C39.0663 45.6632 35.351 46.1581 31.8641 45.2116C28.3772 44.2651 25.4044 41.9549 23.5998 38.789L16.4551 26.2493C16.2317 25.8568 16.0869 25.4237 16.0288 24.9745C15.9708 24.5254 16.0006 24.069 16.1167 23.6316C16.3512 22.7481 16.9227 21.9951 17.7055 21.5383C18.4882 21.0815 19.4181 20.9582 20.2907 21.1956C21.1632 21.4331 21.9068 22.0117 22.358 22.8043L26.1004 29.367" stroke="#171717" stroke-width="2" stroke-linecap="round" stroke-linejoin="round"/>
<path d="M24.6893 47.7461C22.3778 46.1318 20.4536 44.0127 19.0586 41.5452" stroke="#171717" stroke-width="2" stroke-linecap="round" stroke-linejoin="round"/>
<path d="M40.832 11.7461C42.3849 11.7419 43.9111 12.154 45.2557 12.9406C46.6002 13.7272 47.7151 14.8603 48.487 16.2246" stroke="#171717" stroke-width="2" stroke-linecap="round" stroke-linejoin="round"/>
<path d="M20.3682 21.5376C19.1928 21.5376 17.6432 21.2489 16.5457 21.7291C15.3702 22.2433 15.1986 22.9225 15.1986 24.1224C15.1986 24.5872 15.0782 25.2519 15.2259 25.6952C15.4201 26.2776 15.9295 26.9539 16.279 27.4458C16.9192 28.3468 17.6233 29.2907 18.1253 30.2768C18.7055 31.4163 19.1223 32.6428 19.7528 33.7506C22.2265 38.0961 24.9175 42.125 29.3468 44.6164C30.9061 45.4936 32.7483 45.7857 34.5233 45.7857C35.6501 45.7857 36.6801 45.7349 37.7919 45.5327C38.8971 45.3318 39.8424 44.6422 40.9033 44.295C43.2893 43.5141 45.5254 42.2342 46.6815 39.8776C47.0723 39.081 47.4286 38.2818 47.8166 37.4842C48.7792 35.5056 49.0015 33.6079 49.198 31.4256C49.364 29.5806 49.2797 27.9017 48.4458 26.1875C47.8992 25.0641 47.3848 23.9139 46.8867 22.7753C46.0516 20.8666 44.7795 18.8972 42.9752 17.7424C41.9947 17.1149 40.4473 17.4757 39.4878 17.8997C36.9886 19.0039 37.0463 22.8774 37.9697 24.9293C38.2283 25.504 38.3389 26.1698 38.3389 26.803C38.3389 27.0841 37.9915 27.1777 37.8192 27.35C37.4613 27.708 37.2266 28.2002 36.9303 28.6083C36.2041 29.6084 35.7939 30.6176 35.7541 31.8495C35.7349 32.4453 35.7185 33.0748 35.8635 33.6548C35.9023 33.8101 36.3126 35.1341 36.4926 34.9541" stroke="#171717" stroke-width="2" stroke-linecap="round"/>
<path d="M25.4155 29.4149C25.7028 29.379 23.5053 24.6838 23.2615 24.0606C22.7868 22.8477 22.0191 21.9105 21.2921 20.8604C20.4263 19.6098 20.1228 18.1167 20.1228 16.6139C20.1228 15.2636 19.9222 13.9986 21.593 13.7897C24.7157 13.3994 27.1497 15.7455 28.2465 18.4875C28.6956 19.6104 29.2589 20.5957 29.8193 21.6605C30.0181 22.0382 30.4179 22.3303 30.5851 22.7067C30.6925 22.9483 31.3341 23.5513 31.5698 23.6298" stroke="#171717" stroke-width="2" stroke-linecap="round"/>
<path d="M26.537 15.134C26.537 14.8084 26.4031 14.064 26.6317 13.8085C26.9585 13.4433 27.4294 13.2389 27.7258 12.8618C28.6284 11.7129 30.6717 12.3751 31.6496 13.0038C33.9619 14.4902 34.8187 17.3786 36.2889 19.5839" stroke="#171717" stroke-width="2" stroke-linecap="round"/>
<path d="M39.9824 12.0096C40.8748 12.0096 41.7975 11.9375 42.686 12.0201C43.3211 12.0792 43.8017 12.4496 44.3324 12.7618C44.7116 12.9849 45.1239 13.1489 45.4685 13.4245C46.1678 13.984 46.9472 14.3617 47.462 15.134" stroke="#171717" stroke-width="2" stroke-linecap="round"/>
<path d="M18.5838 40.792C18.2665 40.8316 18.7359 41.6357 18.7941 41.7177C19.3079 42.4416 20.114 42.9422 20.7403 43.5587C21.461 44.2682 22.1208 44.9664 22.96 45.5259C23.6525 45.9876 24.5485 46.4727 24.9272 47.2301" stroke="#171717" stroke-width="2" stroke-linecap="round"/>
</g>
<defs>
<filter id="filter0_dd_2974_21207" x="0" y="0.746094" width="64" height="66" filterUnits="userSpaceOnUse" color-interpolation-filters="sRGB">
<feFlood flood-opacity="0" result="BackgroundImageFix"/>
<feColorMatrix in="SourceAlpha" type="matrix" values="0 0 0 0 0 0 0 0 0 0 0 0 0 0 0 0 0 0 127 0" result="hardAlpha"/>
<feOffset dy="2"/>
<feGaussianBlur stdDeviation="1"/>
<feComposite in2="hardAlpha" operator="out"/>
<feColorMatrix type="matrix" values="0 0 0 0 0 0 0 0 0 0 0 0 0 0 0 0 0 0 0.02 0"/>
<feBlend mode="normal" in2="BackgroundImageFix" result="effect1_dropShadow_2974_21207"/>
<feColorMatrix in="SourceAlpha" type="matrix" values="0 0 0 0 0 0 0 0 0 0 0 0 0 0 0 0 0 0 127 0" result="hardAlpha"/>
<feOffset dy="4"/>
<feGaussianBlur stdDeviation="4"/>
<feComposite in2="hardAlpha" operator="out"/>
<feColorMatrix type="matrix" values="0 0 0 0 0 0 0 0 0 0 0 0 0 0 0 0 0 0 0.06 0"/>
<feBlend mode="normal" in2="effect1_dropShadow_2974_21207" result="effect2_dropShadow_2974_21207"/>
<feBlend mode="normal" in="SourceGraphic" in2="effect2_dropShadow_2974_21207" result="shape"/>
</filter>
</defs>
</svg>
