<svg width="48" height="48" viewBox="0 0 48 48" fill="none" xmlns="http://www.w3.org/2000/svg">
<path d="M15.043 44.1017C15.043 38.9689 15.043 33.836 15.043 28.7031C15.043 25.5653 15.3942 22.3821 15.3942 19.1978C15.3942 17.947 15.3448 16.6838 15.3942 15.4337C15.4433 14.189 16.0966 12.9247 16.0966 11.5935" stroke="currentColor" stroke-width="1.5" stroke-linecap="round"/>
<path d="M2.39844 9.88232H45.5984" stroke="currentColor" stroke-width="1.5" stroke-linecap="round"/>
<path d="M15.7458 4.06524C16.634 4.06524 17.9133 3.86373 16.6238 2.88658C15.3441 1.91688 15.9146 3.31772 16.3701 2.96262C17.261 2.26827 16.0811 2.29822 15.5701 2.69647C15.1904 2.99244 15.8204 3.0833 16.0189 2.69647C16.2567 2.23313 15.5593 2.37531 15.3945 2.69647" stroke="currentColor" stroke-width="1.5" stroke-linecap="round"/>
<path d="M30.8477 26.6492V45.4697" stroke="currentColor" stroke-width="1.5" stroke-linecap="round"/>
<path d="M23.8242 26.6492C29.2613 26.6492 34.5882 26.9914 39.9803 26.9914" stroke="currentColor" stroke-width="1.5" stroke-linecap="round"/>
<path d="M30.1445 21.859C32.3122 21.5949 28.2906 18.2465 30.1445 21.859" stroke="currentColor" stroke-width="1.5" stroke-linecap="round"/>
<path d="M31.9712 45.5998C31.9712 44.9279 31.8528 44.2692 31.8528 43.599C31.8528 43.0539 31.8528 42.5088 31.8528 41.9637C31.8528 41.6702 31.808 41.425 31.7474 41.1429C31.5775 40.3516 31.5566 39.5656 31.5566 38.7605C31.5566 37.3155 31.5566 35.8705 31.5566 34.4255C31.5566 33.8419 31.5566 33.2584 31.5566 32.6748C31.5566 32.4293 31.3988 32.0328 31.675 31.979" stroke="currentColor" stroke-width="1.5" stroke-linecap="round"/>
<path d="M31.6761 31.9792C31.6787 31.1313 31.6238 30.2496 31.7288 29.4045C31.7807 28.9866 31.9392 28.7176 32.308 28.5067C32.4247 28.4399 32.538 28.3768 32.6535 28.3143C32.8797 28.1919 33.2237 28.1031 33.4796 28.0578C33.8394 27.9941 34.1454 28.1038 34.4932 27.9392C35.6641 27.385 37.1481 27.5929 38.4292 27.5929" stroke="currentColor" stroke-width="1.5" stroke-linecap="round"/>
<path d="M24.6914 27.8816H27.8903" stroke="currentColor" stroke-width="1.5" stroke-linecap="round"/>
<path d="M16.9263 11.2017C16.9263 12.3375 16.9162 13.4554 16.8078 14.5876C16.7422 15.2734 16.6301 15.9254 16.6301 16.6141C16.6301 17.8788 16.6893 19.1452 16.6893 20.4072C16.6893 21.6926 16.3339 22.8915 16.3339 24.1748C16.3339 25.3171 16.4524 26.4388 16.4524 27.5768C16.4524 29.0742 16.4524 30.5715 16.4524 32.0689C16.4524 32.3361 16.4524 32.6033 16.4524 32.8705C16.4524 33.0508 16.3881 33.3677 16.4656 33.5375C16.6949 34.0402 16.4278 34.8262 16.301 35.3202C16.2187 35.641 16.0421 35.9591 15.9818 36.2821C15.9474 36.4666 15.8008 36.65 15.8008 36.8272" stroke="currentColor" stroke-width="1.5" stroke-linecap="round"/>
<path d="M4.01172 10.6878C4.83402 10.6878 5.65631 10.6878 6.47861 10.6878C8.69538 10.6878 10.9781 10.5106 13.1819 10.7081C15.202 10.8891 17.2524 10.7334 19.2607 10.9819C20.717 11.1621 22.1173 11.3267 23.5907 11.3267C24.7918 11.3267 26.0175 11.342 27.1974 11.5549C28.2994 11.7537 29.5758 11.6152 30.6896 11.6005C31.6704 11.5876 32.6328 11.418 33.6144 11.418C34.35 11.418 35.0856 11.418 35.8211 11.418C36.2942 11.418 36.736 11.3427 37.1951 11.3267C37.6641 11.3104 38.0461 11.0529 38.5274 11.0529C38.8956 11.0529 40.0884 11.0333 40.2657 10.6878" stroke="currentColor" stroke-width="1.5" stroke-linecap="round"/>
<path d="M14.7847 4.10897C14.7523 3.82562 14.2713 3.38247 14.1289 3.10498" stroke="currentColor" stroke-width="1.5" stroke-linecap="round"/>
</svg>
