<svg xmlns="http://www.w3.org/2000/svg" width="252" height="267" fill="none"><mask id="a" width="82" height="62" x="26.445" y="125.732" fill="#000" maskUnits="userSpaceOnUse"><path fill="#fff" d="M26.445 125.732h82v62h-82z"/><path fill-rule="evenodd" d="M62.45 142.8c7.177.235 15.375 1.041 20.736 1.711a1.5 1.5 0 1 1-.372 2.977c-5.305-.663-13.407-1.458-20.463-1.689-3.534-.116-6.758-.089-9.221.155-1.236.123-2.226.296-2.947.51-.735.218-.958.413-.98.434l-.003.001c-.653.871-.87 1.492-.91 1.893-.037.354.05.63.27.911.538.694 1.837 1.349 3.804 1.841.249.062.449.113.594.153.07.019.149.042.222.067.035.012.092.031.156.059l.003.001c.032.014.221.093.407.255a1.504 1.504 0 0 1-.593 2.591c-.099.027-.18.038-.224.044-.141.017-.273.012-.313.011h-.005c-.116-.004-.275-.016-.423-.027l-.041-.003c-.651-.047-1.765-.129-2.95-.072-1.257.059-2.367.268-3.064.664-.322.183-.489.369-.576.54-.082.161-.159.436-.077.926.265 1.59 1.36 2.435 3.044 2.837 1.733.414 3.79.248 5.15-.055l.757 2.901c-1.6.48-3.586 1.351-4.666 2.343-.539.495-.636.821-.64.96-.003.078.012.449.812 1.089.34.272 1.069.59 2.315.844 1.201.246 2.719.4 4.478.469 3.516.137 7.848-.076 12.248-.509 4.394-.434 8.815-1.083 12.498-1.808 3.744-.736 6.557-1.518 7.853-2.166a1.5 1.5 0 1 1 1.342 2.683c-1.704.852-4.89 1.694-8.616 2.427-3.785.744-8.302 1.407-12.783 1.849-4.475.441-8.955.666-12.658.522-1.85-.072-3.543-.238-4.963-.527-1.375-.281-2.678-.714-3.588-1.441-1.2-.96-1.977-2.139-1.937-3.518.038-1.317.815-2.354 1.61-3.083l.072-.066c-2.36-.568-4.754-2.057-5.287-5.258-.169-1.01-.058-1.954.364-2.782.416-.817 1.07-1.389 1.764-1.784.583-.332 1.236-.563 1.901-.722a5.025 5.025 0 0 1-.359-.413 4.18 4.18 0 0 1-.886-3.057c.115-1.13.649-2.26 1.495-3.389.606-.808 1.619-1.241 2.529-1.511.979-.291 2.18-.487 3.504-.619 2.658-.264 6.034-.286 9.616-.169Z" clip-rule="evenodd"/></mask><path fill="#fff" fill-rule="evenodd" d="M62.45 142.8c7.177.235 15.375 1.041 20.736 1.711a1.5 1.5 0 1 1-.372 2.977c-5.305-.663-13.407-1.458-20.463-1.689-3.534-.116-6.758-.089-9.221.155-1.236.123-2.226.296-2.947.51-.735.218-.958.413-.98.434l-.003.001c-.653.871-.87 1.492-.91 1.893-.037.354.05.63.27.911.538.694 1.837 1.349 3.804 1.841.249.062.449.113.594.153.07.019.149.042.222.067.035.012.092.031.156.059l.003.001c.032.014.221.093.407.255a1.504 1.504 0 0 1-.593 2.591c-.099.027-.18.038-.224.044-.141.017-.273.012-.313.011h-.005c-.116-.004-.275-.016-.423-.027l-.041-.003c-.651-.047-1.765-.129-2.95-.072-1.257.059-2.367.268-3.064.664-.322.183-.489.369-.576.54-.082.161-.159.436-.077.926.265 1.59 1.36 2.435 3.044 2.837 1.733.414 3.79.248 5.15-.055l.757 2.901c-1.6.48-3.586 1.351-4.666 2.343-.539.495-.636.821-.64.96-.003.078.012.449.812 1.089.34.272 1.069.59 2.315.844 1.201.246 2.719.4 4.478.469 3.516.137 7.848-.076 12.248-.509 4.394-.434 8.815-1.083 12.498-1.808 3.744-.736 6.557-1.518 7.853-2.166a1.5 1.5 0 1 1 1.342 2.683c-1.704.852-4.89 1.694-8.616 2.427-3.785.744-8.302 1.407-12.783 1.849-4.475.441-8.955.666-12.658.522-1.85-.072-3.543-.238-4.963-.527-1.375-.281-2.678-.714-3.588-1.441-1.2-.96-1.977-2.139-1.937-3.518.038-1.317.815-2.354 1.61-3.083l.072-.066c-2.36-.568-4.754-2.057-5.287-5.258-.169-1.01-.058-1.954.364-2.782.416-.817 1.07-1.389 1.764-1.784.583-.332 1.236-.563 1.901-.722a5.025 5.025 0 0 1-.359-.413 4.18 4.18 0 0 1-.886-3.057c.115-1.13.649-2.26 1.495-3.389.606-.808 1.619-1.241 2.529-1.511.979-.291 2.18-.487 3.504-.619 2.658-.264 6.034-.286 9.616-.169Z" clip-rule="evenodd"/><path fill="#fff" d="m83.186 144.511-1.984 15.876 1.984-15.876ZM62.45 142.8l-.524 15.992.524-15.992Zm22.04 3.385 15.876 1.985-15.876-1.985Zm-1.675 1.303 1.985-15.877-1.985 15.877Zm-20.463-1.689.524-15.992-.524 15.992Zm-9.221.155-1.58-15.921 1.58 15.921Zm-2.947.51-4.557-15.338 4.557 15.338Zm-.98.434-10.55-12.031v.001l10.55 12.03Zm-.003.001 12.8 9.6-25.599-19.201 12.8 9.601Zm-.91 1.893-15.918-1.624 15.917 1.624Zm.27.911-12.63 9.823 12.63-9.823Zm4.398 1.994-4.256 15.424 4.256-15.424Zm.222.067-5.093 15.168 5.093-15.168Zm.156.059 6.324-14.697-.002-.001-6.322 14.698Zm.003.001-6.208 14.747.004.001 6.204-14.748Zm.407.255L43.267 164.17l10.48-12.091Zm.495.862-15.727 2.941 15.727-2.941Zm-.55 1.459 9.882 12.584-9.881-12.584Zm-.538.27-4.199-15.439 4.199 15.439Zm-.224.044-1.926-15.884 1.926 15.884Zm-.313.011.55-15.991h-.004l-.546 15.991Zm-.005 0 .547-15.991h-.012l-.535 15.991Zm-.423-.027-1.17 15.958h.002l1.168-15.958Zm-.041-.003-1.17 15.958 1.17-15.958Zm-2.95-.072.76 15.981-.76-15.981Zm-3.064.664-7.915-13.905 7.915 13.905Zm-.576.54 14.254 7.268-14.254-7.268Zm-.077.926-15.782 2.63 15.782-2.63Zm3.044 2.837 3.714-15.563-3.715 15.563Zm5.15-.055 15.483-4.037-3.892-14.929-15.061 3.347 3.47 15.619Zm.757 2.901 4.598 15.325 14.777-4.433-3.892-14.929-15.483 4.037Zm-4.666 2.343 10.825 11.782-10.825-11.782Zm-.64.96-15.994-.458 15.994.458Zm.812 1.089 9.995-12.494-9.995 12.494Zm2.315.844-3.201 15.677 3.2-15.677Zm4.478.469.623-15.988-.623 15.988Zm12.248-.509 1.57 15.922-1.57-15.922Zm12.498-1.808-3.087-15.699 3.087 15.699Zm7.853-2.166-7.155-14.311 7.155 14.311Zm2.013.67-14.311 7.156 14.31-7.156Zm-9.287 4.44 3.088 15.699-3.088-15.699Zm-12.783 1.849-1.57-15.923 1.57 15.923Zm-12.658.522-.623 15.988.623-15.988Zm-4.963-.527 3.201-15.677-3.2 15.677Zm-3.588-1.441-9.995 12.493 9.995-12.493Zm-1.937-3.518 15.993.458-15.993-.458Zm1.61-3.083 10.824 11.782-10.825-11.782Zm.072-.066 10.67 11.922 22.727-20.339-29.652-7.139-3.745 15.556Zm-5.287-5.258 15.782-2.631-15.782 2.631Zm.364-2.782-14.254-7.267 14.254 7.267Zm1.764-1.784-7.915-13.905 7.915 13.905Zm1.901-.722 3.742 15.556 27.248-6.555-19.496-20.132-11.494 11.131Zm-.359-.413-12.63 9.823 12.63-9.823Zm-.886-3.057-15.918-1.625 15.918 1.625Zm1.495-3.389-12.8-9.6 12.8 9.6Zm2.529-1.511-4.557-15.337 4.556 15.337Zm3.504-.619 1.58 15.922-1.58-15.922Zm32.338-14.335c-5.657-.707-14.373-1.569-22.197-1.825l-1.049 31.983c6.53.214 14.212.962 19.277 1.595l3.969-31.753Zm15.194 19.536c1.199-9.59-5.604-18.337-15.194-19.536l-3.97 31.753c-7.945-.993-13.582-8.24-12.589-16.186l31.753 3.969ZM80.83 163.364c9.59 1.199 18.336-5.604 19.535-15.194l-31.753-3.969c.994-7.946 8.24-13.583 16.187-12.59l-3.97 31.753Zm-19.003-1.574c6.409.21 13.993.948 19.003 1.574l3.969-31.753c-5.602-.7-14.22-1.551-21.924-1.804l-1.048 31.983Zm-7.117.086c1.428-.142 3.838-.194 7.117-.086l1.048-31.983c-3.79-.124-7.827-.122-11.326.226l3.161 31.843Zm.03-.075a6.328 6.328 0 0 1-.531.136l-.016.003c.014-.002.064-.011.155-.023.09-.011.21-.026.362-.041l-3.16-31.843c-1.71.169-3.825.47-5.924 1.093l9.114 30.675Zm5.01-2.873-.022.02a4.357 4.357 0 0 0-.054.047l-.151.129a15.614 15.614 0 0 1-1.173.897c-.537.37-1.047.67-1.51.912a11.85 11.85 0 0 1-2.1.868l-9.114-30.675c-2.452.729-4.863 1.892-6.972 3.741l21.097 24.061Zm-23.349-21.63c-.042.056-.609.793-1.175 1.809-.102.182-1.236 2.107-1.75 4.831a15.998 15.998 0 0 0 1.121 9.5c2.555 5.706 7.65 8.554 12.081 9.262a16.002 16.002 0 0 0 11.48-2.543c.555-.375.965-.705 1.056-.778.261-.21.466-.39.467-.39l.056-.048.01-.01.003-.002.001-.001-21.098-24.06c-.18.158.183-.166.534-.448a15.838 15.838 0 0 1 2.91-1.857 16.007 16.007 0 0 1 9.626-1.463c4.43.707 9.525 3.555 12.08 9.261a16 16 0 0 1 1.12 9.5c-.512 2.724-1.647 4.649-1.749 4.831-.566 1.016-1.133 1.753-1.175 1.809L36.4 137.298Zm27.806 13.118c-.355 3.477-1.826 5.575-2.207 6.083l-25.6-19.2c-1.688 2.251-3.591 5.589-4.028 9.869l31.835 3.248Zm-3.018-10.536a14.699 14.699 0 0 1 2.462 4.787c.645 2.144.72 4.136.556 5.749l-31.835-3.248c-.483 4.731.99 9.057 3.558 12.358l25.259-19.646Zm-4.944-3.858c-.238-.06.07-.01.712.305.336.164.901.468 1.581.964.66.482 1.657 1.312 2.65 2.589L35.93 159.526c2.383 3.064 5.271 4.717 6.965 5.546 1.919.938 3.86 1.562 5.588 1.994l7.762-31.044Zm.968.252a38.408 38.408 0 0 0-.968-.252l-7.761 31.044.233.059.025.007a.327.327 0 0 1-.004-.001l-.036-.01 8.511-30.847Zm1.06.322c-.493-.165-.905-.28-1.06-.323l-8.511 30.848c-.024-.007-.09-.025-.183-.053-.09-.026-.24-.072-.431-.136l10.184-30.336Zm1.385.529c-.632-.272-1.15-.45-1.386-.529l-10.184 30.336a14.31 14.31 0 0 1-1.075-.411l12.645-29.396Zm-.11-.047.014.006.033.014.065.028-12.648 29.394.066.028.035.015.018.008 12.416-29.493Zm4.677 2.909a17.59 17.59 0 0 0-4.681-2.911l-12.41 29.496a.13.13 0 0 1-.02-.009l-.051-.021-.144-.063a14.325 14.325 0 0 1-1.25-.623 14.385 14.385 0 0 1-2.401-1.686l20.957-24.183ZM69.97 150c-1.117-5.973-4.89-9.273-5.744-10.013L43.268 164.17a14.493 14.493 0 0 1-4.754-8.288L69.97 150Zm-6.396 16.984c3.294-2.586 7.97-8.564 6.396-16.984l-31.455 5.882c-1.31-7.004 2.6-11.95 5.296-14.066l19.763 25.168Zm-6.222 3.125c.803-.218 3.477-.97 6.222-3.125L43.81 141.816a14.473 14.473 0 0 1 5.144-2.585l8.397 30.878Zm-2.496.488a17.486 17.486 0 0 0 2.496-.488l-8.397-30.878a14.514 14.514 0 0 1 2.049-.401l3.852 31.767Zm-2.79.118c.154.006 1.337.059 2.79-.118l-3.852-31.767a14.16 14.16 0 0 1 2.095-.098l.069.002-1.102 31.981Zm0 0 .004.001 1.093-31.982h-.004l-1.093 31.981Zm-1.045-.059c.032.002.552.043 1.057.06l1.07-31.982c.107.003.187.007.228.01l.077.004-.015-.001-.082-.006-2.335 31.915Zm-.042-.003.04.003 2.339-31.915-.041-.003-2.338 31.915Zm-1.02-.049.082-.001.225.005c.198.008.39.021.712.045l2.339-31.915c-.645-.047-2.626-.205-4.88-.097l1.522 31.963Zm4.09-1.412c-.864.492-1.61.789-2.117.963-.518.178-.933.279-1.2.335a6.336 6.336 0 0 1-.773.114l-1.522-31.963c-1.834.087-6.111.403-10.218 2.741l15.83 27.81Zm5.763-6.097c-1.66 3.258-4.075 5.136-5.763 6.097l-15.83-27.81c-2.331 1.327-5.08 3.577-6.915 7.177l28.508 14.536Zm1.451-8.973c.172 1.033.277 2.436.064 4.087a14.984 14.984 0 0 1-1.515 4.886l-28.508-14.536c-1.885 3.697-2.153 7.536-1.605 10.824l31.564-5.261Zm-9.024-10.095c.718.172 2.76.761 4.868 2.638 2.397 2.133 3.73 4.901 4.156 7.457l-31.564 5.261c.69 4.147 2.704 8.133 6.135 11.187 3.144 2.797 6.574 4.01 8.976 4.583l7.43-31.126Zm-2.034-.111a2.64 2.64 0 0 1 .543-.077c.077-.003.224-.004.44.014.209.017.57.06 1.051.174l-7.43 31.126c4.846 1.157 9.5.632 12.338.001l-6.942-31.238Zm19.71 14.483-.757-2.901-30.964 8.074.756 2.901 30.965-8.074Zm-9.324 18.162a9.44 9.44 0 0 1-1.339 1.04c-.236.148-.376.215-.388.222-.022.01 0-.002.059-.024a1.308 1.308 0 0 1 .107-.038l-9.195-30.65c-2.302.69-7.108 2.407-10.894 5.886l21.65 23.564Zm4.528-10.364a15.262 15.262 0 0 1-1.996 7.158 13.41 13.41 0 0 1-2.532 3.206l-21.65-23.564c-1.967 1.807-5.627 5.92-5.809 12.284l31.987.916Zm-5.186-11.863c.66.528 2.03 1.754 3.217 3.848a15.151 15.151 0 0 1 1.534 3.882 15.59 15.59 0 0 1 .435 4.133l-31.987-.916c-.197 6.888 3.74 11.584 6.811 14.041l19.99-24.988Zm-4.48-2.338c.02.004.397.079 1.011.314.315.12.769.311 1.312.6a13.89 13.89 0 0 1 2.157 1.424l-19.99 24.988c3.385 2.707 7.19 3.635 9.109 4.027l6.401-31.353Zm1.901.157a22.322 22.322 0 0 1-1.416-.094c-.359-.038-.507-.068-.485-.063l-6.401 31.353c2.362.482 4.82.693 7.057.78l1.245-31.976Zm10.055-.444c-3.996.394-7.537.542-10.055.444l-1.245 31.976c4.513.176 9.637-.101 14.44-.575l-3.14-31.845Zm10.981-1.584c-3.14.617-7.052 1.196-10.98 1.584l3.139 31.845c4.859-.479 9.789-1.199 14.016-2.03l-6.175-31.399Zm3.785-.778c.507-.253.781-.338.638-.288a13.99 13.99 0 0 1-.755.228c-.845.233-2.075.525-3.668.838l6.175 31.399c3.635-.715 8.447-1.819 11.92-3.556l-14.31-28.621Zm23.479 7.826c-4.323-8.645-14.834-12.148-23.479-7.826l14.31 28.621c-7.162 3.582-15.872.679-19.453-6.484l28.622-14.311Zm-7.827 23.479c8.645-4.323 12.149-14.834 7.827-23.479l-28.622 14.311c-3.581-7.163-.678-15.873 6.485-19.454l14.31 28.622Zm-12.683 3.815c3.63-.714 8.808-1.877 12.683-3.815l-14.31-28.622c.356-.178.498-.215.296-.144-.17.06-.484.161-.962.294-.968.268-2.278.573-3.882.889l6.175 31.398Zm-14.3 2.073c4.945-.488 9.97-1.221 14.3-2.073l-6.175-31.398c-3.242.637-7.25 1.229-11.265 1.625l3.14 31.846Zm-14.852.587c4.7.183 9.972-.106 14.851-.587l-3.14-31.846c-4.07.402-7.76.562-10.465.457l-1.246 31.976Zm-7.54-.839c2.58.527 5.212.748 7.54.839l1.246-31.976c-1.372-.054-2.126-.163-2.385-.216l-6.401 31.353Zm-10.383-4.624c3.943 3.155 8.31 4.201 10.383 4.624l6.401-31.353c-.128-.026.102.009.553.182.424.162 1.454.6 2.653 1.56l-19.99 24.987Zm-7.936-16.468c-.239 8.351 4.646 13.836 7.936 16.468l19.99-24.987c.89.712 4.221 3.839 4.061 9.434l-31.987-.915Zm6.778-14.409c-2.134 1.962-6.56 6.79-6.778 14.409l31.987.915c-.142 4.984-3.013 7.739-3.559 8.241l-21.65-23.565Zm.228-.206-.228.207 21.65 23.564a4.52 4.52 0 0 1-.082.074l-21.34-23.845Zm-10.4 9.295c1.978 11.869 11.4 16.757 17.325 18.183l7.49-31.111c.588.142 1.984.574 3.485 1.893 1.738 1.526 2.91 3.64 3.265 5.774l-31.565 5.261Zm1.893-12.679c-2.237 4.387-2.522 8.902-1.893 12.679l31.565-5.261c.293 1.757.229 4.385-1.164 7.117L28.63 147.197Zm8.103-8.422c-2.676 1.523-5.927 4.153-8.103 8.422l28.508 14.535c-1.344 2.635-3.288 4.12-4.575 4.853l-15.83-27.81Zm6.074-2.374c-1.687.406-3.842 1.103-6.074 2.374l15.83 27.81c-1.066.607-1.915.843-2.272.929l-7.484-31.113Zm-9.246 24.967c.484.624.986 1.196 1.494 1.72l22.988-22.261c.253.261.515.559.777.895l-25.26 19.646Zm-4.174-14.505c-.57 5.583 1.185 10.663 4.174 14.505l25.259-19.646a11.823 11.823 0 0 1 2.401 8.39l-31.835-3.249ZM34 135.499c-1.876 2.502-4.1 6.351-4.613 11.364l31.835 3.249c-.28 2.755-1.44 4.344-1.622 4.587l-25.6-19.2Zm10.772-7.248c-1.561.463-6.909 2.098-10.772 7.248l25.6 19.2c-1.437 1.917-3.027 2.962-3.948 3.468a9.062 9.062 0 0 1-1.767.758l-9.113-30.674Zm6.48-1.204c-1.8.179-4.125.504-6.48 1.204l9.113 30.674a3.84 3.84 0 0 1-.247.067c-.027.006-.014.002.045-.008.126-.022.363-.057.73-.093l-3.16-31.844Zm11.722-.238c-3.839-.126-8.029-.128-11.721.238l3.16 31.844c1.623-.161 4.186-.209 7.512-.099l1.049-31.983Z" mask="url(#a)"/><mask id="b" width="71" height="76" x="158.5" y="50.397" fill="#000" maskUnits="userSpaceOnUse"><path fill="#fff" d="M158.5 50.397h71v76h-71z"/><path fill-rule="evenodd" d="M189.715 78.528c-4.451 5.235-8.79 11.79-11.424 16.236a1.5 1.5 0 0 1-2.581-1.53c2.688-4.536 7.124-11.244 11.72-16.65 2.293-2.696 4.675-5.127 6.941-6.798 2.177-1.605 4.635-2.801 6.936-2.256.227.054.45.156.65.313 1.198.938 1.873 2.721 1.403 4.98a9.921 9.921 0 0 1-.761 2.208c.698-.21 1.42-.346 2.133-.357 1.163-.016 2.373.309 3.329 1.264.921.922 1.206 2.104 1.169 3.222-.037 1.093-.377 2.222-.822 3.267-.405.952-.931 1.91-1.498 2.815.271-.032.542-.054.813-.063 1.536-.052 3.41.315 4.525 1.988.697 1.045.377 2.244.045 3.02-.368.86-.997 1.79-1.75 2.723-1.522 1.885-3.788 4.079-6.321 6.232-5.037 4.281-11.447 8.668-15.695 10.262a1.5 1.5 0 1 1-1.053-2.809c3.751-1.407 9.841-5.52 14.805-9.739 2.466-2.096 4.575-4.152 5.929-5.83.684-.848 1.117-1.528 1.327-2.02a2 2 0 0 0 .11-.311c-.3-.33-.849-.55-1.822-.518-1.077.036-2.316.386-3.334.797-.908.367-1.682-.122-2.022-.57-.341-.451-.609-1.347.019-2.125 1.131-1.401 2.421-3.287 3.162-5.027.371-.873.564-1.617.583-2.191.019-.55-.119-.829-.291-1.001-.245-.244-.593-.394-1.165-.386-.602.009-1.359.198-2.22.559-1.718.72-3.486 1.968-4.579 2.905l-2.036-2.2c3.071-3.07 4.187-5.306 4.483-6.726.206-.989.017-1.541-.151-1.81-.916-.05-2.28.442-4.12 1.799-1.997 1.472-4.206 3.704-6.437 6.327Zm19.947 10.064v.012-.012Z" clip-rule="evenodd"/></mask><path fill="#fff" fill-rule="evenodd" d="M189.715 78.528c-4.451 5.235-8.79 11.79-11.424 16.236a1.5 1.5 0 0 1-2.581-1.53c2.688-4.536 7.124-11.244 11.72-16.65 2.293-2.696 4.675-5.127 6.941-6.798 2.177-1.605 4.635-2.801 6.936-2.256.227.054.45.156.65.313 1.198.938 1.873 2.721 1.403 4.98a9.921 9.921 0 0 1-.761 2.208c.698-.21 1.42-.346 2.133-.357 1.163-.016 2.373.309 3.329 1.264.921.922 1.206 2.104 1.169 3.222-.037 1.093-.377 2.222-.822 3.267-.405.952-.931 1.91-1.498 2.815.271-.032.542-.054.813-.063 1.536-.052 3.41.315 4.525 1.988.697 1.045.377 2.244.045 3.02-.368.86-.997 1.79-1.75 2.723-1.522 1.885-3.788 4.079-6.321 6.232-5.037 4.281-11.447 8.668-15.695 10.262a1.5 1.5 0 1 1-1.053-2.809c3.751-1.407 9.841-5.52 14.805-9.739 2.466-2.096 4.575-4.152 5.929-5.83.684-.848 1.117-1.528 1.327-2.02a2 2 0 0 0 .11-.311c-.3-.33-.849-.55-1.822-.518-1.077.036-2.316.386-3.334.797-.908.367-1.682-.122-2.022-.57-.341-.451-.609-1.347.019-2.125 1.131-1.401 2.421-3.287 3.162-5.027.371-.873.564-1.617.583-2.191.019-.55-.119-.829-.291-1.001-.245-.244-.593-.394-1.165-.386-.602.009-1.359.198-2.22.559-1.718.72-3.486 1.968-4.579 2.905l-2.036-2.2c3.071-3.07 4.187-5.306 4.483-6.726.206-.989.017-1.541-.151-1.81-.916-.05-2.28.442-4.12 1.799-1.997 1.472-4.206 3.704-6.437 6.327Zm19.947 10.064v.012-.012Z" clip-rule="evenodd"/><path fill="#fff" d="m178.291 94.764 13.764 8.157-13.764-8.157Zm11.424-16.236-12.188-10.365 12.188 10.365ZM176.236 95.29l-8.157 13.764 8.157-13.764Zm-.526-2.055 13.764 8.156-13.764-8.156Zm11.72-16.65L175.241 66.22l12.189 10.365Zm6.941-6.799 9.497 12.877-9.497-12.877Zm6.936-2.256-3.69 15.569 3.69-15.569Zm.65.313-9.868 12.594 9.868-12.594Zm1.403 4.98-15.665-3.26 15.665 3.26Zm-.761 2.208-14.471-6.825-15.308 32.459 34.375-10.309-4.596-15.325Zm2.133-.357-.231-15.998.231 15.998Zm3.329 1.264-11.314 11.314 11.314-11.313Zm1.169 3.222-15.991-.532 15.991.532Zm-.822 3.267 14.721 6.268-14.721-6.268Zm-1.498 2.815-13.555-8.5-17.796 28.378 33.258-3.992-1.907-15.886Zm.813-.063-.534-15.991.534 15.99Zm4.525 1.988-13.313 8.875h.001l13.312-8.875Zm.045 3.02 14.711 6.292-14.711-6.292Zm-1.75 2.723-12.452-10.048 12.452 10.048Zm-6.321 6.232-10.363-12.19 10.363 12.19Zm-15.695 10.262 5.618 14.981-5.618-14.981Zm-1.053-2.809-5.618-14.982 5.618 14.982Zm14.805-9.739 10.362 12.191-10.362-12.19Zm5.929-5.83 12.451 10.048-12.451-10.048Zm1.327-2.02 14.711 6.293-14.711-6.292Zm.11-.311 15.53 3.852 2.059-8.302-5.76-6.325-11.829 10.775Zm-1.822-.518-.534-15.991.534 15.991Zm-3.334.797-5.995-14.835 5.995 14.835Zm-2.022-.57 12.751-9.666-12.751 9.665Zm.019-2.125-12.45-10.05 12.45 10.05Zm3.162-5.027-14.722-6.267 14.722 6.267Zm.583-2.191 15.992.532-15.992-.532Zm-.291-1.001 11.313-11.314L205.94 78.06Zm-1.165-.386.23 15.998-.23-15.998Zm-2.22.559 6.186 14.755-6.186-14.755Zm-4.579 2.905L186.237 92.01l10.462 11.298 11.69-10.02-10.413-12.149Zm-2.036-2.2-11.314-11.313-10.888 10.887L184.2 89.81l11.74-10.871Zm4.483-6.726 15.664 3.26-15.664-3.26Zm-.151-1.81 13.573-8.473-4.402-7.052-8.3-.452-.871 15.976Zm-4.12 1.799 9.497 12.876-9.497-12.876Zm13.51 16.391 7.739 14.004.035-.02.035-.019-7.809-13.965Zm0 .012-15.971.97 31.923.273-15.952-1.243Zm-17.607 14.317c2.347-3.961 6.172-9.703 9.849-14.028l-24.377-20.73c-5.225 6.144-10.079 13.514-13.001 18.444l27.529 16.314Zm-23.976 6.133c8.314 4.928 19.049 2.181 23.976-6.133l-27.529-16.314c4.083-6.89 12.977-9.165 19.866-5.082l-16.313 27.529Zm-6.134-23.976c-4.927 8.314-2.181 19.049 6.134 23.976l16.313-27.529c6.89 4.083 9.165 12.977 5.082 19.866l-27.529-16.313Zm13.296-18.858c-5.369 6.314-10.32 13.837-13.296 18.858l27.529 16.313c2.401-4.051 6.322-9.946 10.145-14.441l-24.378-20.73Zm9.633-9.31c-3.702 2.73-7.006 6.22-9.633 9.31l24.378 20.73c1.959-2.304 3.42-3.676 4.249-4.287L184.874 56.91Zm20.123-4.948c-9.756-2.313-17.466 2.988-20.123 4.948l18.994 25.753c.408-.301.204-.073-.557.207-.815.3-2.925.885-5.694.229l7.38-31.138Zm6.827 3.286a17.676 17.676 0 0 0-6.827-3.286l-7.38 31.137a14.32 14.32 0 0 1-5.528-2.662l19.735-25.19Zm7.2 20.834c1.431-6.874-.221-15.366-7.2-20.834l-19.735 25.19c-4.583-3.591-4.884-8.518-4.394-10.874l31.329 6.519Zm-1.953 5.774a25.946 25.946 0 0 0 1.953-5.773l-31.329-6.52c.144-.689.334-1.147.433-1.357l28.943 13.65Zm-12.57-23.18c-2.558.037-4.783.515-6.498 1.029l9.192 30.651c-.319.096-1.1.3-2.233.317l-.461-31.997Zm14.874 5.949c-4.765-4.764-10.58-6.01-14.874-5.949l.461 31.997c-1.967.028-5.362-.568-8.215-3.42l22.628-22.628Zm5.846 15.068c.137-4.126-.915-10.136-5.846-15.068l-22.628 22.627c-3.089-3.089-3.571-6.735-3.508-8.624l31.982 1.065Zm-2.092 9.002c.837-1.965 1.964-5.153 2.092-9.002l-31.982-1.065c.03-.904.173-1.561.264-1.905.093-.352.177-.547.184-.563l29.442 12.535Zm-2.664 5.048c.881-1.405 1.844-3.122 2.664-5.048L193.687 76.16c.012-.029-.005.015-.068.131a7.838 7.838 0 0 1-.264.45l27.11 17.002Zm-13.276-24.555c-.772.025-1.503.086-2.186.168l3.814 31.772a6.63 6.63 0 0 1-.561.042l-1.067-31.982Zm18.372 9.104c-5.656-8.485-14.598-9.23-18.372-9.104l1.067 31.982c-.592.02-1.934-.001-3.638-.628a11.787 11.787 0 0 1-5.683-4.5l26.626-17.75Zm1.443 18.187c.749-1.751 4.048-9.95-1.443-18.187l-26.625 17.75a13.47 13.47 0 0 1-2.246-8.303c.128-1.964.675-3.336.893-3.845l29.421 12.585Zm-4.01 6.479c1.125-1.394 2.8-3.649 4.01-6.479l-29.421-12.585c.144-.337.276-.593.369-.763.095-.172.168-.288.206-.346.068-.104.062-.082-.067.077l24.903 20.096Zm-8.41 8.375c2.89-2.456 5.997-5.385 8.41-8.375l-24.903-20.096c-.629.78-2.054 2.239-4.232 4.09l20.725 24.381Zm-20.439 13.052c6.899-2.587 15.015-8.441 20.439-13.052l-20.725-24.382c-4.648 3.951-9.352 6.872-10.95 7.471l11.236 29.963Zm-22.531-10.241c3.394 9.049 13.481 13.635 22.531 10.241l-11.236-29.963c7.498-2.811 15.856.988 18.668 8.486l-29.963 11.236Zm10.242-22.53c-9.05 3.393-13.635 13.48-10.242 22.53l29.963-11.236c2.812 7.498-.987 15.856-8.485 18.668l-11.236-29.962Zm10.06-6.949a68.926 68.926 0 0 1-6.335 4.779 39.149 39.149 0 0 1-2.643 1.622c-.771.426-1.118.56-1.082.547l11.236 29.963c6.403-2.401 14.2-7.982 19.549-12.529l-20.725-24.382Zm3.841-3.687c-.462.572-1.729 1.893-3.841 3.687l20.725 24.382c2.822-2.398 5.772-5.19 8.018-7.973l-24.902-20.096Zm-.933 1.737c.198-.463.382-.818.512-1.051.132-.24.242-.415.311-.521.133-.204.187-.26.11-.165l24.902 20.096c1.051-1.302 2.533-3.31 3.587-5.775l-29.422-12.584Zm-.708 2.127c.228-.916.499-1.637.708-2.127l29.422 12.584c.333-.779.668-1.702.929-2.752l-31.059-7.705Zm14.24 19.326c-1.18.04-6.302-.048-10.539-4.7l23.657-21.547c-4.838-5.312-11.058-5.84-14.185-5.735l1.067 31.982Zm2.128-.359a3.446 3.446 0 0 1-.458.145c-.185.047-.769.184-1.67.214l-1.067-31.982c-3.667.122-6.858 1.171-8.795 1.953l11.99 29.67Zm-20.768-5.74c3.099 4.088 10.98 9.695 20.768 5.74l-11.99-29.67c3.633-1.468 7.398-1.26 10.444-.105a14.16 14.16 0 0 1 6.28 4.704l-25.502 19.33Zm.32-21.84c-6.799 8.423-3.412 17.76-.32 21.84l25.502-19.33a14.157 14.157 0 0 1 2.841 7.411c.273 3.316-.612 7.068-3.123 10.179l-24.9-20.1Zm.89-1.244c.057-.133.079-.166.041-.095a5.56 5.56 0 0 1-.206.34c-.213.331-.476.691-.725.999l24.9 20.1c1.588-1.968 3.879-5.16 5.433-8.81l-29.443-12.534Zm-.686 3.543c.04-1.206.238-2.1.364-2.575.134-.508.266-.836.322-.968l29.443 12.535c.762-1.789 1.742-4.592 1.854-7.927l-31.983-1.065Zm4.386 10.846a15.104 15.104 0 0 1-3.638-5.865 14.244 14.244 0 0 1-.748-4.981l31.983 1.065c.122-3.686-.858-8.735-4.97-12.847l-22.627 22.628Zm10.379 4.298a14.015 14.015 0 0 1-4.865-.817 14.792 14.792 0 0 1-5.514-3.481l22.627-22.628c-4.001-4.001-8.915-5.125-12.709-5.07l.461 31.996Zm3.736-.684a7.599 7.599 0 0 1-1.082.351c-.516.13-1.434.316-2.654.333l-.46-31.996c-3.435.05-6.321 1.023-8.176 1.8l12.372 29.512Zm-.352.298c-.003.003.042-.036.13-.102a5.396 5.396 0 0 1 .448-.3c.024-.012-.052.031-.226.104l-12.372-29.511c-3.742 1.569-6.924 3.9-8.805 5.513l20.825 24.296ZM184.2 89.81l2.037 2.2 23.479-21.743-2.037-2.2L184.2 89.81Zm.558-20.858a9.532 9.532 0 0 1 .545-1.777c.169-.397.308-.63.35-.697.073-.117-.154.273-1.027 1.147l22.627 22.627c4.176-4.175 7.648-9.079 8.834-14.78l-31.329-6.52Zm1.941 9.922c-2.41-3.861-2.408-7.674-1.941-9.921l31.329 6.518c.879-4.225.504-9.143-2.242-13.542l-27.146 16.945Zm18.95 6.203c.2-.147-.117.123-.921.459-.719.3-2.622.989-5.326.841l1.741-31.952c-6.659-.363-11.857 2.958-14.488 4.899l18.994 25.753Zm-3.745 3.816c1.898-2.231 3.186-3.403 3.745-3.816l-18.994-25.753c-3.434 2.533-6.565 5.825-9.128 8.84l24.377 20.73Zm15.567 13.664c-3.523 1.97-8.233 2.803-12.995 1.171a15.996 15.996 0 0 1-7.424-5.288c-1.922-2.462-2.601-4.87-2.72-5.268-.433-1.449-.553-2.636-.576-2.852a15.874 15.874 0 0 1-.046-2.958l31.904 2.485a15.988 15.988 0 0 0-.045-2.982c-.024-.216-.143-1.404-.576-2.853-.119-.398-.798-2.806-2.72-5.268a16.007 16.007 0 0 0-7.425-5.288c-4.762-1.632-9.472-.799-12.995 1.171l15.618 27.93Zm8.162-14.922a15.973 15.973 0 0 1-.42 4.719 15.946 15.946 0 0 1-2.423 5.384 15.994 15.994 0 0 1-5.389 4.858l-15.478-28.008a16.004 16.004 0 0 0-8.232 14.986l31.942-1.939Z" mask="url(#b)"/><mask id="c" width="95.168" height="74.598" x="159.905" y="127.587" fill="#000" maskUnits="userSpaceOnUse"><path fill="#fff" d="M159.905 127.587h95.168v74.598h-95.168z"/><path fill-rule="evenodd" d="M224.587 146.274a1.5 1.5 0 0 1 1.506 1.495l.025 6.82c.008 2.024 2.672 2.757 3.715 1.022l3.272-5.447a1.5 1.5 0 1 1 2.572 1.545l-9.223 15.352a2.004 2.004 0 0 0-.286 1.037l.04 10.783a2 2 0 0 1-1.836 2.001l-43.675 3.578a1.5 1.5 0 0 1-.245-2.99l40.909-3.352a2 2 0 0 0 1.837-2l-.029-7.766a1.994 1.994 0 0 0-.438-1.241l-10.501-13.133a1.499 1.499 0 1 1 2.343-1.874l4.993 6.244c1.183 1.48 3.569.638 3.562-1.256l-.035-9.312a1.5 1.5 0 0 1 1.494-1.506Z" clip-rule="evenodd"/></mask><path fill="#fff" fill-rule="evenodd" d="M224.587 146.274a1.5 1.5 0 0 1 1.506 1.495l.025 6.82c.008 2.024 2.672 2.757 3.715 1.022l3.272-5.447a1.5 1.5 0 1 1 2.572 1.545l-9.223 15.352a2.004 2.004 0 0 0-.286 1.037l.04 10.783a2 2 0 0 1-1.836 2.001l-43.675 3.578a1.5 1.5 0 0 1-.245-2.99l40.909-3.352a2 2 0 0 0 1.837-2l-.029-7.766a1.994 1.994 0 0 0-.438-1.241l-10.501-13.133a1.499 1.499 0 1 1 2.343-1.874l4.993 6.244c1.183 1.48 3.569.638 3.562-1.256l-.035-9.312a1.5 1.5 0 0 1 1.494-1.506Z" clip-rule="evenodd"/><path fill="#fff" d="m226.093 147.769-16 .059 16-.059Zm-1.506-1.495-.059-16 .059 16Zm8.518 3.89-13.715-8.239 13.715 8.239Zm2.058-.513 8.24-13.716-8.24 13.716Zm.514 2.058 13.715 8.239-13.715-8.239Zm-54.98 32.751-1.306-15.947 1.306 15.947Zm-1.617-1.373-15.947 1.307 15.947-1.307Zm1.372-1.617-1.306-15.947 1.306 15.947Zm31.778-27.492 12.496-9.993-12.496 9.993Zm.234-2.108-9.992-12.496 9.992 12.496Zm2.109.234-12.496 9.993 12.496-9.993Zm8.52-4.324 16-.06-16 .06Zm-3.527 10.568-12.496 9.993 12.496-9.993Zm3.632 17.77-16 .059 16-.059Zm3.256-9.057 13.715 8.24-13.715-8.24Zm-.286 1.037 16-.059-16 .059Zm-2.999.254-16 .059 16-.059Zm-.438-1.241 12.496-9.993-12.496 9.993Zm1.641 13.771-1.307-15.947 1.307 15.947Zm1.746-26.293-16 .059 16-.059Zm3.715 1.022-13.716-8.239 13.716 8.239Zm12.26-7.902c-.036-9.665-7.9-17.471-17.565-17.435l.119 32c-8.008.03-14.524-6.438-14.554-14.446l32-.119Zm.025 6.82-.025-6.82-32 .119.025 6.82 32-.119Zm-22.728-12.604-3.273 5.447 27.431 16.479 3.272-5.447-27.43-16.479Zm24.013-5.99c-8.285-4.977-19.036-2.295-24.013 5.99l27.43 16.479c-4.124 6.864-13.032 9.086-19.896 4.962l16.479-27.431Zm5.989 24.013c4.977-8.284 2.296-19.035-5.989-24.013l-16.479 27.431c-6.865-4.124-9.087-13.032-4.963-19.897l27.431 16.479Zm-9.223 15.353 9.223-15.353-27.431-16.479-9.222 15.353 27.43 16.479Zm-77.036 9.093c.789 9.632 9.238 16.801 18.87 16.012l-2.612-31.893c7.981-.654 14.981 5.286 15.635 13.268l-31.893 2.613Zm16.013-18.871c-9.633.789-16.802 9.238-16.013 18.871l31.893-2.613c.654 7.981-5.286 14.982-13.267 15.635l-2.613-31.893Zm40.909-3.351-40.909 3.351 2.613 31.893 40.909-3.351-2.613-31.893Zm-12.886 6.239.029 7.766 32-.119-.029-7.765-32 .118Zm-7.435-4.44 10.501 13.132 24.992-19.985-10.501-13.133-24.992 19.986Zm2.738-24.597c-7.549 6.036-8.774 17.048-2.738 24.597l24.992-19.986c5.001 6.255 3.985 15.379-2.269 20.381l-19.985-24.992Zm24.597 2.738c-6.037-7.549-17.049-8.774-24.597-2.738l19.985 24.992c-6.254 5.001-15.379 3.985-20.38-2.269l24.992-19.985Zm4.992 6.244-4.992-6.244-24.992 19.985 4.993 6.244 24.991-19.985Zm-24.968-.517.035 9.312 31.999-.119-.034-9.312-32 .119Zm17.435-17.565c-9.665.036-17.471 7.9-17.435 17.565l32-.119c.03 8.008-6.438 14.524-14.446 14.554l-.119-32Zm17.68 48.548-.04-10.783-32 .119.04 10.782 32-.118Zm-60.205 21.584 43.675-3.577-2.613-31.894-43.674 3.578 2.612 31.893Zm25.067-32.065c10.648 13.316 32.121 5.742 32.057-11.309l-31.999.119c-.05-13.261 16.651-19.152 24.933-8.795l-24.991 19.985Zm15.598 25.724c9.365-.767 16.565-8.61 16.53-18.007l-32 .119c-.027-7.309 5.573-13.408 12.857-14.005l2.613 31.893Zm-9.929-35.243a17.993 17.993 0 0 0-2.571 9.336l32-.119a13.999 13.999 0 0 1-1.999 7.262l-27.43-16.479Zm26.43 9.471a17.997 17.997 0 0 0-3.942-11.175l-24.992 19.985a14.005 14.005 0 0 1-3.066-8.692l32-.118Zm-28.961 10.647c-.027-7.308 5.573-13.408 12.857-14.005l2.613 31.894c9.365-.768 16.565-8.61 16.53-18.007l-32 .118Zm-.09-24.292c.068 18.216 24.049 24.818 33.43 9.203l-27.431-16.479c7.296-12.145 25.949-7.01 26.001 7.157l-32 .119Z" mask="url(#c)"/><mask id="d" width="68.436" height="78.636" x="84.03" y="195.437" fill="#000" maskUnits="userSpaceOnUse"><path fill="#fff" d="M84.03 195.437h68.436v78.636H84.03z"/><path fill-rule="evenodd" d="M116.51 217.792a1.5 1.5 0 1 0-3 0l.004 20.568-8.8 9.185a1.5 1.5 0 0 0 2.166 2.076l6.634-6.925.001 5.69a1.5 1.5 0 1 0 3 0l-.001-5.708 7.703 6.828a1.5 1.5 0 1 0 1.99-2.245l-9.693-8.593-.004-20.876Z" clip-rule="evenodd"/></mask><path fill="#fff" fill-rule="evenodd" d="M116.51 217.792a1.5 1.5 0 1 0-3 0l.004 20.568-8.8 9.185a1.5 1.5 0 0 0 2.166 2.076l6.634-6.925.001 5.69a1.5 1.5 0 1 0 3 0l-.001-5.708 7.703 6.828a1.5 1.5 0 1 0 1.99-2.245l-9.693-8.593-.004-20.876Z" clip-rule="evenodd"/><path fill="#fff" d="m115.01 216.292.003 16-.003-16Zm1.5 1.5 16-.003-16 .003Zm-3 0 16.001-.002-16.001.002Zm.004 20.568 11.553 11.069 4.448-4.643-.001-6.429-16 .003Zm-8.8 9.185L93.16 236.477l11.554 11.068Zm.045 2.121 11.069-11.553-11.069 11.553Zm2.121-.045-11.553-11.069 11.553 11.069Zm6.634-6.925 16-.003-.006-39.82-27.547 28.754 11.553 11.069Zm.001 5.69 16-.002-16 .002Zm3 0 16-.003-16 .003Zm-.001-5.708 10.614-11.973-26.619-23.599.005 35.574 16-.002Zm7.703 6.828-10.614 11.973 10.614-11.973Zm2.118-.127-11.973-10.614 11.973 10.614Zm-.128-2.118 10.614-11.972-10.614 11.972Zm-9.693-8.593-16 .002.001 7.197 5.385 4.773 10.614-11.972Zm-1.501-6.376c-8.008.001-14.501-6.49-14.503-14.498l32-.005c-.001-9.665-7.837-17.499-17.502-17.497l.005 32Zm14.498-14.502c.001 8.008-6.49 14.501-14.498 14.502l-.005-32c-9.665.001-17.499 7.837-17.498 17.502l32.001-.004Zm.003 20.567-.004-20.567-32 .004.004 20.568 32-.005Zm-13.247 20.257 8.8-9.185-23.107-22.138-8.8 9.186 23.107 22.137Zm-.439-20.501c5.783 5.54 5.979 14.718.439 20.501L93.16 236.477c-6.686 6.979-6.449 18.056.53 24.743l22.138-23.107Zm-20.502.439c5.54-5.783 14.719-5.979 20.502-.439L93.69 261.22c6.979 6.686 18.057 6.448 24.744-.531l-23.108-22.137Zm6.635-6.925-6.635 6.925 23.108 22.137 6.634-6.924-23.107-22.138Zm27.554 16.757-.001-5.691-32 .005.001 5.691 32-.005Zm-14.502-14.498c8.008-.001 14.501 6.49 14.502 14.498l-32 .005c.002 9.665 7.838 17.498 17.503 17.497l-.005-32Zm-14.498 14.502c-.001-8.008 6.49-14.501 14.498-14.502l.005 32c9.665-.002 17.499-7.838 17.497-17.503l-32 .005Zm-.001-5.708.001 5.708 32-.005-.001-5.708-32 .005Zm34.317-5.146-7.703-6.829L105.9 254.65l7.703 6.829 21.228-23.945Zm-20.469 1.231c5.312-5.992 14.477-6.544 20.469-1.231l-21.228 23.945c7.233 6.411 18.293 5.746 24.704-1.486l-23.945-21.228Zm1.231 20.469c-5.992-5.312-6.543-14.477-1.231-20.469l23.945 21.228c6.412-7.232 5.747-18.293-1.486-24.704l-21.228 23.945Zm-9.693-8.594 9.693 8.594 21.228-23.945-9.693-8.594L105.9 250.64Zm-5.39-32.846.004 20.876 32-.005-.004-20.876-32 .005Z" mask="url(#d)"/><path fill="#fff" stroke="#fff" stroke-linejoin="round" stroke-width="16" d="m136.95 94.164 2.792.959-1.559 15.177a9.962 9.962 0 0 0-1.636 1.711 8.015 8.015 0 0 0-.554.844l-11.996 21.073-16.697-11.142c-4.385-2.925-10.332-1.909-13.496 2.307l6.399 4.802-6.399-4.802-5.221 6.957c.125-.251.242-.511.348-.778l7.635-19.191 20.27 6.958c4.835 1.659 10.462-.614 12.485-5.699l7.629-19.176Zm-50.48 40.703-6.1 8.127-17.075-7.901a9.92 9.92 0 0 0-3.583-.9l.357-2.065 16.78 4.971c3.373 1 7.063.127 9.62-2.232Zm-46.5 6.073c1.775 4.368 5.775 6.167 9.294 6.113l-.143 3.966a17.8 17.8 0 0 0-1.158 9.927l.01.057.003.019.01.056c8.449 45.492 46.737 78.651 94.963 70.409 48.18-8.235 73.592-52.254 65.771-98.017-.294-1.72-.97-3.694-1.774-5.381a18.713 18.713 0 0 0-1.663-2.853c-.197-.274-.437-.59-.723-.925l-12.373-32.923a8.002 8.002 0 0 0-3.234-3.96c-1.623-1.02-4.403-1.854-7.343-.625l-2.886-7.137 2.385 1.52.043.028.048.03.034.021.093.057 4.234 2.541c4.051 2.431 8.579 1.448 11.385-.786 3.142-2.502 5.083-7.402 2.525-12.195l-7.058 3.768 7.057-3.768c-10.827-20.282-30.564-39.078-52.597-50.66-21.89-11.507-47.979-16.827-70.702-6.746-22.832 10.13-35.826 32.604-41.191 56.13-5.39 23.629-3.597 50.194 4.99 71.334Zm152.611-46.11v.032-.032Z"/><path stroke="#FFD424" stroke-linecap="round" stroke-width="5" d="M60.65 173.047c5.634 3.849 7.846 7.581 13.64 11.144 8.535 5.249 16.847 10.974 24.712 17.299 1.306 1.051 2.654 2.028 3.975 3.055.102.08 1.086 1.239 1.226 1.215.95-.162-1.302-1.537-2.018-2.234-3.748-3.651-5.681-7.448-9.398-11.138-8.164-8.106-17.568-16.388-23.586-26.385-2.73-4.534-5.157-9.241-7.846-13.79-1.373-2.324 1.505 1.438 1.993 1.873 16.922 15.094 36.593 26.111 55.22 38.535 7.931 5.29 15.424 11.114 22.703 17.353.088.076 1.923 1.802.807.786-3.39-3.085-6.751-6.205-10.117-9.32-16.962-15.701-34.24-31.014-50.598-47.43-6.214-6.236-12.688-12.503-17.797-19.809-.202-.289-.473-.527-.651-.832-.934-1.593 2.618 2.542 4.027 3.682 23.029 18.617 48.758 33.005 74.537 46.707 8.474 4.504 16.889 9.177 25.457 13.475.244.122.897.539.759.294-.421-.754-2.986-2.049-3.434-2.339-7.247-4.702-14.228-9.834-21.148-15.059-20.575-15.533-40.622-32.065-59.546-49.808-5.816-5.453-22.64-2.445-20.076-14.716-.095-.127-.455-.42-.375-.282.209.361.952 1.049 1.113 1.196 3.22 2.926 10.248 2.839 13.722 5.405 16.22 11.98 33.48 22.371 50.74 32.525 14.996 8.821 30.115 17.411 45.402 25.64 3.033 1.633 6.069 3.261 9.051 4.999 3.797 2.212-.809-.311-1.784-.87-20.318-11.649-39.79-24.619-57.21-40.813a280.16 280.16 0 0 1-24.26-25.615c-.354-.424-3.227-3.702-2.593-3.157 2.398 2.066 5.001 3.909 7.559 5.735 12.367 8.829 25.171 17.059 38.195 24.735 16.636 9.804 33.926 18.412 51.139 26.989.366.182 3.367 2.005 3.925 1.485.287-.267-.434-.702-.744-.951-2.531-2.029-5.385-3.723-8.078-5.472-24.434-15.874-48.31-32.323-70.068-52.245-9.294-8.511-18.759-17.756-26.205-28.17-.332-.465-3.173-4.206-2.483-3.465 2.69 2.888 5.98 5.376 9.035 7.773 12.113 9.507 24.929 18.027 38.016 25.921 14.948 9.016 30.404 17.259 46.094 24.694 1.359.644 5.084 2.924 4.175 1.673-1.502-2.067-3.945-4.027-5.769-5.578-14.509-12.341-29.887-23.607-45.187-34.802-13.574-9.932-27.138-19.784-39.452-31.45-1.472-1.395-3.026-2.705-4.252-4.356-.083-.113-.953-1.089-.585-.978 2.843.858 5.842 2.62 8.508 3.84 13.322 6.096 26.584 12.338 39.914 18.416a1455.217 1455.217 0 0 0 44.181 19.246c.867.361 3.091 1.835 2.638.973-1.203-2.288-5.16-4.531-7.019-5.981C166.77 91.7 152.03 81.728 138.692 69.73a120.778 120.778 0 0 1-10.273-10.45c-1.648-1.89-3.427-3.77-4.628-6.023-.042-.079-.608-1.104-.418-.852 1.736 2.309 5.119 3.937 7.403 5.356 14.927 9.28 27.315 18.576 43.333 25.442 3.864 1.657.88 3.969 4.702 5.736.964.446 2.136.647 3.054 1.172 2.865 1.64-3.626-3.877-6.325-5.81-8.773-6.284-9.345-14.232-17.349-21.6-3.987-3.67-7.866-7.218-12.369-10.168-.789-.516-2.035-1.507-2.986-1.626-1.526-.191-3.331-.058-4.896-.145-4.405-.246-8.757-.025-13.133.358-2.27.199-4.721.867-6.915.373-1.368-.308-2.526-.912-3.761-1.59-.209-.114 4.772-1.16 5.676-1.24 4.868-.429 9.751.682 14.605-.147 1.089-.186-1.058-.819-1.638-1.183-2.306-1.449-4.948-2.752-7.561-3.405-.793-.199-9.661-.81-9.518.029.101.59 1.025 1.19 1.383 1.496a337.277 337.277 0 0 0 13.087 10.642c19.728 15.26 36.994 30.71 56.595 46.154 5.549 4.372 3.845 10.166 9.183 14.832 2.113 1.848-2.732-1.748-2.901-1.872-9.084-6.645-8.335-14.7-16.927-22.075a1903.58 1903.58 0 0 1-29.965-26.238c-4.668-4.18-9.463-8.044-15.006-10.814-1.205-.602-3.063-1.286-4.433-1.052-.948.162 4.006 6.387 4.044 6.431 7.382 8.634 16.375 15.898 24.959 23.11 9.326 7.834 18.94 15.241 28.54 22.688 3.344 2.594-3.165 6.867.148 9.504 1.499 1.193 3.387 2.328 4.714 3.757.961 1.036-2.377-1.454-3.514-2.268-6.933-4.962-3.863-11.841-10.649-17.026-13.3-10.164-26.542-20.44-40.038-30.311-6.083-4.45-12.51-8.738-19.137-12.226-.611-.322-3.252-1.994-4.025-1.642-.683.312.859 1.322 1.379 1.901 3.466 3.865 7.092 7.569 10.66 11.327 10.661 11.23 20.699 23.162 31.681 34.049 2.622 2.599 5.209 5.184 7.697 7.925 1.439 1.584 1.671 1.721-.396-.086-13.253-11.591-26.554-23.164-38.804-35.951-4.625-4.829-8.993-9.928-13.671-14.7-2.653-2.706-5.474-5.956-8.697-7.928-.81-.495-2.62-1.4-3.627-1.228-.254.044.07 2.183.064 2.396-.12 4.786 1.86 9.009 4.766 12.68 2.125 2.683 5.384 6.057 7.715 8.345 7.668 7.527 15.727 14.654 23.894 21.558 14.28 12.072 29.285 23.021 44.248 34.097 9.612 7.114 9.854 15.671 18.721 23.847.658.608 2.753 2.159 1.921 1.886-1.394-.459-3.365-2.759-4.381-3.622-13.174-11.194-16.164-24.362-28.115-37.026-11.195-11.863-21.23-24.932-32.606-36.587-1.857-1.903-3.846-3.668-5.62-5.661-.742-.833-1.448-2.064-2.43-2.627-.483-.276.741.865 1.172 1.225 4.601 3.83 9.176 7.697 13.812 11.48 15.724 12.833 31.508 26.154 48.474 37.128 2.288 1.48-6.02 5.476-4.444 7.728.08.116 1.711 2.521 1.187 2.377-3.538-.971 2.269-5.906-.835-7.673-14.767-8.406-29.432-17.001-43.939-25.91-15.67-9.623-30.878-19.93-46.262-30.036-1.209-.794-5.608-4.398-7.38-3.513-.322.161.57.853.713.976 1.785 1.538 3.253 3.544 4.941 5.2 7.717 7.569 16.162 14.372 24.497 21.147 13.757 11.182 27.913 21.797 41.113 33.727 2.451 2.215 4.949 4.387 7.156 6.882.485.549 1.425 1.313 1.711 2.037.286.724-2.975-1.993-3.181-2.133-20.153-13.65-41.189-25.85-61.034-40.005-9.773-6.971-17.136-15.81-28.048-20.733-.667-.3-1.539 1.857-1.036 2.41 13.362 14.712 28.794 26.98 43.582 39.985 11.364 9.994 22.92 20.325 31.4 33.251 3.029 4.617 5.281 9.657 8.089 14.364 1.468 2.461-3.31-1.986-3.634-2.228-19.362-14.435-39.503-27.65-58.906-42.024-8.786-6.508-17.381-13.495-24.998-21.524-1.762-1.858.54-4.847-1.504-6.384-.264-.2.465.48.689.73 3.078 3.432 2.113 7.633 5.24 11.02 16.626 18.003 34.402 34.621 52.534 50.891 8.183 7.341 16.933 14.495 24.396 22.685.798.875 1.443 1.856 2.199 2.762.813.974-1.98-1.539-2.96-2.324-16.836-13.485-33.295-27.244-49.505-41.572-8.098-7.157-15.914-14.783-24.267-21.61-.872-.712-3.376-2.659-2.802-.233 1.599 6.764 5.695 13.45 8.949 19.396 7.58 13.855 16.177 27.067 24.892 40.157 7.54 11.326 15.144 22.781 23.623 33.367.31.387 3.427 3.616 1.567 3.005-5.506-1.811-10.561-5.589-15.378-8.845-10.479-7.081-20.608-14.767-30.743-22.39-3.183-2.394-6.33-5.222-9.908-6.931-2.04-.974 2.646 6.011 2.718 6.119 12.758 19.301 29.315 28.332 44.129 45.74 3.562 4.186-4.858-.23-5.837-.657-9.037-3.943-14.57-3.045-23.344-7.557-4.337-2.231-8.743-4.387-12.704-7.339-1.522-1.135-2.936-2.401-4.413-3.596-.511-.414-1.931-.649-1.567-1.196.269-.404 7.912 3.646 8.248 3.808 10.508 5.071 18.751 11.053 28.682 17.313 2.314 1.459 7.872.551 5.651-1.066-8.734-6.361-14.086-7.746-22.637-14.377-5.27-4.087-10.596-8.18-16.172-11.789-1.67-1.081-5.298-2.241-7.15-2.956-1.95-.751.915.238 1.464.385 12.132 3.25 24.18 7.048 35.821 12.012 12.154 5.183 24.17 10.824 36.274 16.151 1.911.841 3.113-1.968 5.109-1.37.141.042.618.278.539.177-.41-.524-1.048-.825-1.582-1.173-3.247-2.119-5.602-.663-8.81-2.849-14.148-9.638-29.233-17.756-43.997-26.246-12.077-6.945-23.999-13.599-34.331-23.394-4.688-4.443-2.781-10.506-7.045-15.371-1.017-1.16-.154.316.48.785 8.421 6.234 12.364 11.833 21.54 16.608 11.084 5.768 22.112 11.527 33.052 17.606 7.184 3.993 14.396 7.802 21.757 11.394 5.977 2.916 12.866 4.813 19.326 5.995 1.513.276-1.274-1.707-1.401-1.821-14.24-12.739-28.994-24.968-44.404-36.071-12.776-9.205-25.982-17.822-39.037-26.574-3.804-2.551-7.574-5.134-11.15-8.028-1.416-1.147 1.25.633 1.48.787 3.206 2.156 6.631 3.94 9.867 6.052 9.319 6.084 18.209 12.884 27.353 19.254 24.632 17.156 50.603 32.179 76.215 47.594 1.249.751 1.449-4.169 2.795-3.639.738.291 1.493.217 2.257.654.961.55 1.995.955 2.946 1.499 4.287 2.454-6.307-.934-10.183-4.07-18.192-14.717-37.986-26.865-57.46-39.519-6.915-4.493-13.81-9.02-20.735-13.493-2.809-1.813-5.703-3.504-8.365-5.558-.912-.704-4.01-3.096-.767-1.505 16.474 8.075 33.214 15.15 49.971 22.491 9.738 4.267 18.697 9.81 27.924 15.152 6.406 3.709 12.912 6.795 19.561 9.921 4.247 1.995-3.018-3.33-3.482-3.679-19.637-14.77-39.942-28.491-59.329-43.647-14.321-11.195-28.68-22.83-41.328-36.154a168.762 168.762 0 0 1-5.062-5.584c-1.074-1.237.497-.203.957.068 14.311 8.416 28.959 16.265 43.635 23.921 16.895 8.812 33.919 17.584 51.259 25.351a478.546 478.546 0 0 0 20.271 8.548c1.01.397 3.233 1.95 4.336 1.761.274-.046.448-.057.125-.329-3.625-3.054-8.523-4.945-12.628-7.005-24.944-12.513-50.038-24.639-73.081-40.95-10.06-7.12-19.01-15.594-28.73-23.157-1.19-.927-2.402-1.802-3.488-2.869-.796-.78 1.896 1.115 2.833 1.691 20.397 12.544 41.405 23.747 62.88 34.011 16.11 7.7 32.261 15.24 47.902 24 4.089 2.29 8.475 4.628 12.128 7.688.475.398-7.914 3.215-8.435 2.885-3.089-1.958 3.378-5.123.139-6.761-9.719-4.917-19.407-9.927-28.806-15.521-.455-.271-6.262-3.675-6.142-3.186.364 1.476 1.59 2.786 2.547 3.839 4.758 5.24 10.245 9.893 15.736 14.232 5.28 4.172 10.854 7.904 16.502 11.483 2.611 1.654 5.274 3.397 8.096 4.622.294.128 2.798.87 2.301.916-.773.07-1.568-.213-2.318-.374-3.328-.715-6.643-1.414-9.947-2.266-6.495-1.676-13.032-3.259-19.505-5.021-.103-.028-2.205-.841-1.608-.052 1.363 1.799 3.568 3.101 5.3 4.426 5.915 4.524 11.782 9.313 16.941 14.796.423.449 5.071 5.587 3.68 5.474-6.23-.506-12.41-3.87-17.969-6.67-4.65-2.342-8.763-5.592-13.298-8.045-15.046-8.142 17.274 11.982 31.922 20.915.331.201-3.594 5.647-5.706 5.98-4.629.73-.047-3.214-4.281-5.082-6.463-2.851-.309-.504-7.014-2.572-7.65-2.359-15.04-5.368-22.606-7.956-.329-.112-1.42-.462-.88.381 1.604 2.504 4.535 4.666 6.613 6.686 7.069 6.871 14.595 13.136 21.906 19.703.222.2 4.376-1.222 4.086-.971-1.564 1.354-8.063-1.845-9.348-2.272-6.051-2.011-11.001 1.533-17.13-.168-2.245-.623-2.793-.608-2.111 1.901.877 3.227 2.369 6.391 3.671 9.46.147.347.934 1.448.738 1.876-.374.818-4.2.499-4.66.488-7.64-.172-14.878-2.722-21.785-6.133-1.153-.569-2.536-1.158-3.586-1.947-2.175-1.636 4.544 2.957 6.84 4.394 7.785 4.875 15.088 5.453 22.882 10.32.262.164 3.624-2.934 3.624-3.357.002-2.94-.006-.416.13.651-2.366-12.643-14.803-19.297-24.283-25.534-12.582-8.278-25.581-16.268-37.089-26.233-4.167-3.609-7.149-7.653-10.267-12.222-.808-1.184-12.704-15.701-13.645-14.762-.36.359.264 2.704.305 3.066.378 3.323.626 6.642 1.138 9.951.662 4.276.836 9.738 2.791 13.672.336.677.898 1.259-.264 1.008-5.63-1.216-11.15-5.16-15.962-8.322-4.781-3.143-8.156-6.251-9.191-12.309-.165-.961-.281-1.506.912-1.253 1.951.413 3.842 1.618 5.706 2.336 2.775 1.068 5.601 1.996 8.4 2.992 1.988.708 4.454 2.175 6.501 2.527.173.03-.218-.292-.344-.422-1.165-1.199-2.377-2.345-3.534-3.554-3.308-3.457-6.483-7.07-9.624-10.695-2.58-2.977-1.04-6.696-3.42-9.83-.577-.76 4.214.664 4.985.803 4.028.731 8.399 1.274 12.28 2.733.089.034 1.63.708.989.043-2.22-2.303-4.614-4.437-6.856-6.721-5.366-5.467-6.69-11.676-11.316-17.856-1.05-1.403-3.28-3.185-.464-2.077 1.55.61 16.682 6.259 16.913 4.983.203-1.124-1.285-3.167-1.749-3.955-2.308-3.923-4.893-7.654-7.18-11.594-1.587-2.738.837-6.16-.318-9.128-.101-.26-1.156-2.343-.912-2.674.846-1.148 9.297 7.562 10.217 8.129 7.72 4.754 15.459 9.471 23.362 13.872 1.009.561 4.111 2.761 2.947.439-4.519-9.01-10.65-17.143-16.107-25.545-1.7-2.62-1.09-6.41-3.1-8.75-.51-.592.896 3.053 1.435 3.47 10.717 8.307 21.07 17.042 32.383 24.44.533.348 1.232 1.094 1.852 1.262 1.293.35-1.75-2.15-2.671-3.182-6.209-6.958-12.901-13.714-17.616-21.938-1.507-2.628-2.671-4.783-3.173-7.717"/><path stroke="#FFD424" stroke-linecap="round" stroke-width="5" d="M48.972 164.5c.047-.371 8.488 2.362 9.73 1.652.15-.085-7.054-4.074-2.192-2.462 1.689.56 3.324 1.459 5.068 1.847.074.016-.128-.081-.194-.118-.816-.463-1.569-1.023-2.31-1.594-2.828-2.178-5.556-4.49-8.322-6.745-1.472-1.2-2.96-2.378-4.376-3.643-.017-.015-.884-.681-.363-.514 2.703.869 5.168 2.438 7.715 3.668 1.726.833-2.167-1.89-.843-1.366 2.901 1.148 5.658 2.636 8.532 3.845.286.12 1.492.73.793-.034-1.761-1.926-3.773-3.629-5.666-5.422-1.42-1.345-2.805-2.726-4.233-4.064-.037-.035-1.426-1.464-1.315-1.458 1.096.056 2.533 1.33 3.415 1.855a36.914 36.914 0 0 0 5.286 2.614c.15.059 1.46.718 1.602.354.181-.465-.423-1.341-.607-1.737-.32-.693-1.048-1.248-.033-1.248M73.726 89.204c1.497 1.283 2.643 2.569 3.932 4.023 1.53 1.729 3.226 3.295 4.686 5.086.787.966 1.237 1.976 1.847 3.045.054.095.7.626.32.411-.986-.558-1.85-1.425-2.744-2.112a98.583 98.583 0 0 0-4.881-3.502c-2.242-1.515-4.473-2.955-6.975-4.005-.56-.235-1.997-.383-2.292-.934M67.029 100.027c.179.491.712.912 1.03 1.311.62.775 1.25 1.547 1.82 2.359.793 1.13 1.636 1.848 2.743 2.632.994.703-.742.148-1.2.008-3.016-.926-5.93-2.606-8.437-4.49M117.871 205.958c4.644 2.888 12.528 7.254 18.064 7.274.046.001-3.225-1.869-4.06-2.329-3.785-2.086-7.382-4.539-11.225-6.507-.863-.442-3.154-1.975-4.196-1.797-.837.143 3.447 5.752 3.688 6.029 3.384 3.877 8.486 8.473 13.622 9.154 1.911.254 3.442-.094 5.357-.134 1.948-.04 5.18 1.543 1.932-1.587-1.39-1.341-3.079-2.31-4.558-3.536-.466-.386-3.917-3.116-2.294-2.801 7.86 1.524 15.909 6.932 24.162 5.213 4.12-.859-3.832-15.141-4.803-16.913-.437-.799-3.243-4.011-3.19-4.823.016-.243 8.258 5.155 8.857 5.553 2.065 1.369 10.003 7.326 9.022 1.583-.865-5.063-2.718-10.833-2.731-15.976-.002-.785 12.625 3.54 14.313 3.907 3.508.762-4.806-8.588-5.16-9.14-.402-.628 3.469.992 3.832 1.179 1.772.917 4.198 3.22 3.735-.332-1.019-7.819-3.884-15.34-6.202-22.823-2.077-6.707-3.451-13.365-4.631-20.272"/><path stroke="#FFD424" stroke-linecap="round" stroke-width="5" d="M168.252 188.988c2.149-.618 5.013-.145 6.996 1.005 1.145.664 2.508 1.317 3.501 2.194.397.351.892.437 1.186.88.259.389.908.962 1.295 1.193.263.157 1.252 1.048 1.149.442-.225-1.316-.613-2.642-.099-3.932.18-.452.627-.766.54-1.276M137.358 200.094c.398.803 2.668.959 3.419 1.071 1.896.281 3.795.486 5.657.956 2.853.721 5.493 1.841 8.059 3.274 1.86 1.039 4.087 1.225 6.072 1.922.165.058.728.121.828.191.15.107-.327.186-.509.217-1.332.228-2.664.484-4.011.611-2.771.262-5.939.463-8.651-.297-2.036-.57-3.782-1.579-5.611-2.583a33.78 33.78 0 0 0-3.093-1.487c-.469-.198-2.21-.269-2.487-.647-.29-.396.982.002 1.47.053 2.972.314 5.917.872 8.88 1.257 4.629.602 9.418.679 13.98 1.717.403.091 4.966 1.615 4.677 1.827M135.99 168.617c7.817 3.035 14.159 10.015 20.879 15.015 1.399 1.041 1.971 1.698-.039.72-6.448-3.138-12.521-7.453-18.259-11.828-4.36-3.323-8.665-7.054-12.212-11.332-1.295-1.562-2.408-3.173-3.938-4.457-6.528-5.478 14.335 9.04 21.251 13.966.573.409 3.429 2.663 4.286 2.325.979-.386-4.358-8.581-4.653-9.023-3.1-4.641-6.902-8.708-10.109-13.254-.311-.441-2.621-3.914-1.879-3.789 3.445.58 6.973 3.788 10.059 5.381 3.268 1.686 7.476 3.742 11.185 3.999 6.784.47-1.083-16.028-2.071-18.942"/><path stroke="#FFD424" stroke-linecap="round" stroke-width="5" d="M90.35 167.513c2.763-.341 5.435.397 8.089 1.192 6.668 1.996 13.317 4.324 19.89 6.639 7.604 2.678 15.842 5.715 23.024 9.489 16.217 8.519-31.903-18.248-48.724-25.405-6.24-2.655-12.536-5.703-18.964-7.81-7.333-2.404 14.69 4.725 22.01 7.173 12.547 4.198 25.324 9.184 38.226 12.098 1.534.346 3.249.451 4.718 1.074 1.737.738-3.525-1.348-5.238-2.142-9.594-4.449-37.924-18.693-28.103-14.812 8.25 3.26 16.358 6.593 24.84 9.236 1.851.576 3.935 1.324 5.894 1.365.67.014-4.402-3.584-4.607-3.726-14.074-9.738-28.437-19.102-40.899-31.024-4.984-4.767-8.834-11.129-14.033-15.538-4.115-3.49 9.598 4.783 14.32 7.331 10.643 5.743 21.738 11.076 32.797 15.918 2.461 1.078 4.986 1.809 7.521 2.649 1.431.475 1.342.005.167-.838-10.277-7.369-21.577-13.334-32.005-20.509-5.413-3.725-10.612-8.047-16.254-11.398-2.984-1.772 4.316 1.743 4.418 1.791 15.379 7.201 30.745 14.596 46.253 21.488 7.017 3.118 14.133 7.009 21.389 9.478.183.062 2.231 1.02 1.089.277-3.17-2.064-6.498-3.875-9.749-5.798-10.005-5.92-20.12-11.662-29.973-17.848-5.17-3.246-10.705-6.708-16.272-9.196-1.089-.486-.896-.584.258-.304 4.873 1.179 9.649 3.394 14.36 5.096a776.036 776.036 0 0 0 41.071 13.579c.55.165 10.216 2.979 10.145 3.994-.091 1.31-18.98-5.452-20.163-5.927-5.929-2.38-11.87-4.749-17.744-7.266-11.558-4.953 43.93 24.71 32.601 19.221-9.953-4.823-19.472-11.506-28.584-17.796-5.807-4.009-13.269-8.791-17.257-14.958-2.74-4.239 12.648-.936 13.645-.741 11.614 2.271 23.283 4.302 35.137 4.235 7.973-.045-.195-7.357-2.869-9.866-7.18-6.736-15.088-12.64-21.793-19.912-.627-.68-6.99-7.597-3.886-6.423 8.079 3.055 15.407 9.014 23.851 11.025.687.164 1.992.58.876-.642-2.799-3.06-6.487-5.52-9.669-8.126-2.253-1.846-4.762-3.488-6.951-5.408-.331-.29-2.269-1.531-1.661-.989 4.453 3.977 10.66 6.344 15.837 9.126 1.857.998 3.761 1.893 5.619 2.887.753.404 1.502 1.047.052.136-7.598-4.77-15.581-8.978-22.679-14.552-1.264-.992-2.612-1.948-3.835-2.99-1.503-1.282 3.381 2.014 5.077 3.009 7.149 4.194 14.299 8.399 20.932 13.23 3.71 2.703-13.475-12.066-11.174-8.041 1.284 2.247 3.754 4.048 5.579 5.787a921.983 921.983 0 0 0 10.726 10.028c4.632 4.277 9.729 8.597 13.452 13.786 1.54 2.147 2.45 4.327 3.486 6.724.457 1.057 1.395 2.862-.078 1.517-2.359-2.153-4.897-4.358-7.528-6.148-.414-.282-2.788-1.949-1.094-.797 4.611 3.137 8.762 9.064 11.625 13.809 2.689 4.456 4.938 9.279 6.97 14.084 1.51 3.572-.714 1.048-2.095-.394-2.587-2.702-5.097-5.632-8.127-7.84-4.799-3.495 7.507 9.337 10.712 14.399.699 1.105-2.283-1.209-3.368-1.912-3.021-1.959-6.115-3.791-9.168-5.694-1.746-1.089-3.535-2.645-5.495-3.314-.714-.244 3.451 3.029 3.901 3.383 5.251 4.128 10.55 8.109 15.597 12.494 2.507 2.179 2.133 3.202-.641.862-1.736-1.464-4.039-3.298-5.342-5.22-1.658-2.447 4.333 3.977 6.39 6.082.992 1.016 3.272 3.898.436 1.893-1.742-1.232-3.625-2.707-5.875-2.41-4.346.574.327 9.278 1.684 11.169 1.239 1.727-1.32.983-2.415.702a66.363 66.363 0 0 1-5.948-1.848c-.783-.282-2.876-1.585-2.305-.965 3.6 3.903 17.442 11.898 13.118 8.867-3.822-2.68-8.463-3.831-12.322-6.515-3.518-2.448-.154-.212 1.905.6.649.256 5.162 3.138 3.067.806-3.463-3.853-7.248-7.393-10.709-11.246-.249-.278-3.304-3.27-2.556-3.092 4.929 1.168 10.271 5.364 14.69 7.846.438.246 6.559 3.679 4.033 2.84-3.505-1.165-7.571-2.915-10.656-5.006-.542-.368-3.612-2.45-4.286-1.351-.784 1.279 2.078 5.966 2.627 7.131.714 1.515 2.841 4.119.665 5.21-3.611 1.81-8.608.71-12.288-.388-3.255-.972-1.27.486.407 1.724 3.877 2.862 7.451 6.101 11.238 9.073 2.131 1.671-7.278-1.603-8.099-1.914-3.675-1.394-8.539-2.535-11.725-4.997-3.139-2.427 7.712 1.508 11.485 2.608 3.283.956 13.052 4.101 9.808 3.01-7.93-2.667-15.749-5.761-23.579-8.612-1.482-.541.962 3.405 1.162 3.996 2.12 6.262.677 11.678-4.276 16.006-7.014 6.128-17.395 7.92-26.306 9.212-4.607.667-9.683.61-14.113-1.176-3.551-1.431 1.604-.12 2.73.315 2.539.983 5.158 2.911 7.739 3.595 1.997.529-1.938-2.485-2.275-2.764-.658-.545-6.39-4.784-4.391-4.602 5.083.464 9.827 2.672 14.672 4.118 4.848 1.447-1.392-.528-2.957-1.318-2.293-1.158-4.365-2.703-6.637-3.899-.164-.087-3.003-1.633-2.201-1.678 2.546-.142 5.884 1.442 8.261 2.204 3.624 1.162 7.148 2.631 10.707 3.985.892.34 8.615 3.078 4.134 2.274-21.896-3.93-43.566-11.603-64.888-17.985-9.26-2.772-8.683-3.391-18.004-5.908-.733-.198-1.194-.143-.303.37 2.226 1.281-5.483.586-3.402 2.103 4.623 3.367 8.855 7.287 13.449 10.633.59.43 4.194 2.58 4.125 2.39-.489-1.363-2.44-2.412-3.417-3.35-1.471-1.413-2.566-3.127-3.943-4.62-3.767-4.085 2.12-.104 4.062.867 5.251 2.627 10.59 4.844 15.994 7.074.884.365 1.302.473.725-.702-1.828-3.727-4.55-7.158-6.948-10.501-5.767-8.04-11.623-15.439-15.971-24.406-.481-.992-2.51-4.96-.485-3.331 3.133 2.518 6.811 4.489 10.45 6.111 3.06 1.365.66-1.919-.288-3.335a73.655 73.655 0 0 0-4.84-6.405c-.843-1.002-2.65-2.285-3.063-3.585-.305-.962 6.912 2.514 7.748 2.986.47.266 4.111 1.759 3.975 1.346-.936-2.845-4.623-6.108-6.6-8.303-2.075-2.302.632-1.071 2.151-.426 1.443.613 5.24 1.887 6.105 3.094"/><path stroke="#D4AA01" stroke-linecap="round" stroke-width="5" d="M132.908 88.244c.184 1.08.229 1.873-.086 2.942-.196.666-.385 1.383-.629 2.028-.245.649-.702 1.232-.825 1.922-.261 1.465-.414 2.884-.577 4.373-.193 1.764-.785 3.389-1.294 5.069-.376 1.241-1.254 2.254-1.627 3.484-.343 1.131-.806 1.888-1.391 2.917-.505.89-.836 1.816-1.428 2.652-.122.172-.489.333-.538.526-.102.4-.181.795-.212 1.206M137.724 89.511c-1.762 1.292-2.684 3.36-3.407 5.353-.285.785-.681 1.564-.921 2.356-.23.758-.268 1.55-.48 2.313-.309 1.11-1.052 1.962-1.31 3.12-.192.865-.141 1.783-.39 2.606M92.552 106.572c-.608 1.071-.813 2.451-1.34 3.582-.835 1.791-1.71 3.565-2.412 5.415-.543 1.432-1.536 2.75-2.512 3.922-.68.816-.59.841-.725 1.827-.403 2.914-.532 5.842-.98 8.763-.122.787-.153 1.421-.481 2.08-.287.577-.849 1.164-.947 1.804M94.368 109.048c.107 1.532-.908 3.337-1.652 4.603-.786 1.337-1.536 2.798-2.06 4.263-.589 1.65-.5 3.517-1.29 5.091-.468.934-1.11 1.754-1.708 2.6-.395.558-.63 1.208-1.03 1.771M170.778 80.656c-.006.57-.539 1.128-.689 1.682-.3 1.111-.526 2.1-1.144 3.092-.552.886-1.111 1.774-1.633 2.68-.468.812-.575 1.757-1.023 2.575-.689 1.257-1.433 2.37-2.254 3.53-.489.69-.483 1.74-.826 2.51M172.553 83.7c.133.777-.178 1.704-.419 2.44-.427 1.303-1.32 2.799-2.118 3.924-.311.44-.666.79-.893 1.3-.23.518-.615 2.105-.711 1.546"/><path stroke="#FFD424" stroke-linecap="round" stroke-width="5" d="M108.418 197.837c5.266-.354 11.319 2.197 16.308 4.099.417.16 3.918 1.022 2.935.793-3.258-.758-6.456-2.371-9.547-3.753-5.435-2.43-10.771-5.066-16.107-7.758-.161-.081-1.231-.62-.82.037.476.759 1.361 1.298 2.007 1.805 2.386 1.872 4.705 3.847 7.121 5.67 4.012 3.027 8.029 6.127 12.138 8.98 1.789 1.241 3.644 2.259 5.054 4.055 2.545 3.24-8.803-.787-9.359-1.041-10.952-5.006-21.51-11.287-32.046-17.357-.63-.363-6.188-3.682-3.08-1.234 5.635 4.439 10.947 9.58 16.756 13.705.91.646 1.945 1.257 2.813 1.953.966.776-2.023-1.409-2.954-2.24-6.37-5.685-11.909-12.658-18.98-17.312-2.56-1.685-6.45-4.547-9.55-4.71-.921-.049 1.315 1.51 2.01 2.22 2.012 2.054 4.016 4.043 6.174 5.908 3.502 3.027 14.043 12.05 10.449 9.166-2.777-2.229-5.822-3.972-8.623-6.138-.188-.145-1.498-1.073-.685-.245 3.26 3.319 7.278 6.251 10.99 8.839 6.73 4.692 13.978 7.917 20.96 11.977 2.742 1.595 2.397.948-.081-.607-1.846-1.159-7.84-3.11-5.76-2.951 1.833.14 3.616 1.074 5.39 1.59 2.859.832 5.853 1.076 8.737.63 1.307-.203 2.681-.141 1.947-2.042-1.123-2.907-3.244-5.073-5.383-7.054-1.243-1.15-2.572-2.25-3.685-3.564-.982-1.158 2.472.988 2.538 1.016 5.763 2.459 11.609 4.757 17.6 6.286 3.536.903 8.621 2.741 12.133 1.163 3.429-1.541-1.408-8.047-2.528-9.691-7.872-11.554-16.609-22.325-24.177-34.157-10.142-15.856-16.604-32.505-19.088-51.519-.878-6.719-1.446-16.292 2.089-22.156 4.201-6.97 11.267-8.984 18.419-10.138 5.359-.864 10.662-.41 16.07-.52 2.087-.042 7.744.572 8.171-2.82.467-3.712-2.219-7.52-4.492-9.899-4.577-4.79-10.142-8.528-15.389-12.282a529.525 529.525 0 0 1-8.338-6.082c-2.665-1.987-.704 1.728-.014 2.876 3.907 6.498 9.445 11.725 14.185 17.458.988 1.195 1.352 1.592-.369.53-4.363-2.695-8.681-5.177-12.374-9.018-1.751-1.821-6.349-7.984-4.923-5.838 2.169 3.263 5.262 5.565 7.74 8.489.022.026-12.397-10.717-12.998-9.04-.522 1.454 9.27 9.952 10.383 11.066.391.39 4.919 6.083 4.668 6.089-2.624.06-6.631-2.713-8.968-3.852-3.616-1.764-7.15-3.742-10.765-5.513-.32-.157-3.54-2.163-2.277-.698 2.827 3.28 6.322 5.974 9.583 8.666.499.412 11.106 9.816 11.266 9.647.311-.33-.641-.696-.996-.995a58.373 58.373 0 0 1-3.677-3.384c-3.399-3.394-6.686-6.903-9.745-10.684-1.727-2.135-3.461-4.256-4.9-6.644-.468-.778-1.054-1.938-1.699-2.558-3.34-3.207 6.418 6.75 9.758 9.957a183.495 183.495 0 0 0 4.687 4.325c.373.334-2.651-.536-2.91-.642-2.348-.961-6.923-2.762-8.621-5.05-.646-.872-4.5-.439-5.437-.521-1.54-.136-3.658-1.051-2.17 1.406 2.4 3.961 5.743 8.137 9.146 11.07 1.221 1.053-.109-.002-.603-.57-2.115-2.425-4.4-4.603-6.676-6.832-1.934-1.894-3.732-3.735-5.858-5.264-.84-.604-2.069-.804-2.802-1.489-2.108-1.971 3.431 4.817 5.334 7.037 2.665 3.107 5.25 6.343 8.137 9.197 1.107 1.095 2.734 3.479 4.042 4.177 3.202 1.71-6.255-3.776-9.438-5.532-.684-.378-9.632-4.222-9.337-3.194.51 1.774 2.59 3.595 3.685 4.91 1.906 2.287 3.893 4.493 5.678 6.9 1.221 1.646 3.115 3.588 3.484 5.747.451 2.635-.185 5.372-.495 7.981-.353 2.982-.342 3.969-2.981 2.296-4.751-3.01-9.077-7.184-14.09-9.656-.992-.489.862 2.264 1.557 3.203 4.227 5.707 9.02 10.973 13.64 16.283a310.024 310.024 0 0 0 8.376 9.26c.524.556 1.352 1.713 2.028 2.061 2.256 1.162-4.067-3.238-5.998-5.007"/><path stroke="#D4AA01" stroke-linecap="round" stroke-width="5" d="M75.537 191.077h2.747c.564 0-.783-.648-.816-.666-1.284-.687-2.54-1.41-3.811-2.113-.524-.29.413-.217.582-.217h3.953c1.049 0-.25-.71-.607-.932-1.743-1.079-3.508-2.028-5.093-3.345-.741-.615-.054-.385.674-.349 2.598.128 5.128.792 7.705 1.09.187.021 2.175.345 1.44-.192-2.223-1.624-4.855-2.906-7.39-3.961-.717-.298-2-.486-2.579-1.065-.227-.227.647-.019.965.025 1.847.256 3.669.657 5.5.999 2.51.469 5.24 1.01 7.814.832 1.378-.095-2.583-.991-3.919-1.34-2.506-.653-5.064-1.093-7.564-1.764-.7-.188-2.8-.542-2.08-.632 2.552-.319 5.48.324 8.013.524 2.962.234 5.924.447 8.895.508 1.204.024 2.706.205 3.887-.158.486-.15.412-.423.008-.675-1.657-1.029-3.826-1.493-5.675-1.997-4.693-1.278-9.514-2.319-14.363-2.779-.775-.073-1.608-.216-2.388-.216-2.01 0 4.018.16 6.025.291 2.347.153 4.696.182 7.048.158 1.259-.013-.878-.581-1.182-.682-.108-.036-1.954-.556-1.947-.591.047-.238 4.268-.122 4.676-.166.342-.037 2.347-.139 2.48-.575.27-.881-.916-1.648-1.431-2.147-.585-.566-.886-.72.15-.599.566.066 1.072.281 1.614.416"/><path stroke="#171717" stroke-linecap="round" stroke-width="2" d="M134.031 127.853c.598.234 1.054.534 1.544.942"/><path stroke="#171717" stroke-width="3" d="M58.1 144.369c-.837-39.787 20.165-87.86 54.314-93.697 38.336-6.552 78.722 42.604 85.821 84.136 7.098 41.531-18.225 80.511-56.56 87.063-34.821 5.951-68.402-16.898-79.586-52.262"/><ellipse cx="100.446" cy="104.04" fill="#171717" rx="3.13" ry="3.756" transform="rotate(7.11 100.446 104.04)"/><ellipse cx="143.016" cy="91.993" fill="#fff" stroke="#000" stroke-width="3" rx="11.359" ry="10.784" transform="rotate(-4.187 143.016 91.993)"/><ellipse cx="97.016" cy="109.991" fill="#fff" stroke="#000" stroke-width="3" rx="11.359" ry="10.784" transform="rotate(-4.187 97.016 109.991)"/><ellipse cx="143.017" cy="91.993" fill="#171717" rx="5.926" ry="5.626" transform="rotate(-4.187 143.017 91.993)"/><ellipse cx="96.211" cy="108.975" fill="#171717" rx="6.162" ry="5.763" transform="rotate(-17.843 96.211 108.975)"/><path stroke="#171717" stroke-linecap="round" stroke-width="2" d="M57.495 144c-.61-3.566-.493-2-1.183-5 .642-1.46.876-3.704 1.183-5.317.357-1.881.97-3.715 1.49-5.551 1.182-4.178 2.233-8.477 3.047-12.758.735-3.863 1.263-7.917 2.72-11.607 2.862-7.239 5.085-14.853 9.315-21.399 1.934-2.992 4.117-5.67 6.114-8.635 1.547-2.299 3.052-4.59 4.86-6.675 2.175-2.507 4.845-4.523 7.006-7.042 2.753-3.211 5.845-5.587 9.65-7.312 3.333-1.51 7.839-1.522 11.445-2.138 3.472-.594 6.777-1.26 10.328-.852 3.945.451 6.612 1.976 10.083 3.938 5.656 3.2 11.368 6.437 16.655 10.223 2.636 1.888 5.557 3.534 8.229 5.331 1.261.848 2.352 1.919 3.731 2.57.966.455 3.157 1.251.784.961M163.961 69.898c.375 2.192 3.626 4.689 4.938 6.462 1.523 2.06 3.365 3.969 4.627 6.231 2.22 3.979 5.456 7.364 7.926 11.147 2.417 3.701 4.775 7.413 6.668 11.483 1.036 2.227 2.136 4.301 2.895 6.629.591 1.815 1.078 3.921 1.909 5.619 1.795 3.671 3.198 8.066 3.891 12.121.691 4.044 2.086 8.124 2.784 12.208.318 1.86 1.087 4.151 1.012 6.037-.051 1.292-.88 2.89-.668 4.132"/><path stroke="#171717" stroke-linecap="round" stroke-width="2" d="M199.905 147.669c1.306 7.643-.445 14.401-2.577 21.627-2.471 8.377-4.04 16.967-10.228 23.301-2.437 2.494-4.536 5.354-7.035 7.777-.994.965-2.338 2.485-3.115 3.638-.876 1.301-2.153 2.083-3.1 3.269-.961 1.205-2.943 2.037-4.207 2.911-1.278.884-2.703 1.468-4.052 2.235-2.68 1.525-5.357 2.798-8.087 4.224"/><path stroke="#171717" stroke-linecap="round" stroke-width="2" d="m159.027 216.392-4.665.798c-1.523.26-4.035.675-5.402 1.471-2.678 1.56-6.229 1.492-8.992 2.897-1.956.994-4.774 1.465-6.927 1.833-1.75.299-3.395.67-5.159.516-1.891-.165-3.65-.721-5.438-1.343-1.601-.557-3.443-1.133-4.997-1.825-3.181-1.417-6.924-2.124-10.335-2.698-1.63-.275-3.982-1.051-5.517-1.695-2.132-.895-4.239-1.54-6.28-2.763-3.487-2.088-7.27-5.379-9.705-8.752-1.847-2.558-4.49-4.235-6.522-6.556-.42-.48-3.237-2.735-3.086-2.761"/><path stroke="#171717" stroke-linecap="round" stroke-width="2" d="M78.138 197.811c-1.28-1.192-2.278-3.448-3.355-4.906-1.665-2.254-3.769-4.353-5.552-6.54-1.71-2.099-3.63-4.359-5-6.715-1.413-2.43-2.378-5.629-3.335-8.298m-3.894-27.353c-.706-5.722-.847-11.124.018-16.734M65.132 116.04c-.832.049-1.847-1.045-2.43-1.514-1.417-1.138-2.928-2.025-4.524-2.88M69.134 99.54c-.806-2.322-2.729-4.823-4.25-6.718M76.701 82.12c-1.461-2.484-3.35-4.807-4.955-7.217"/><path stroke="#171717" stroke-linecap="round" stroke-width="2" d="M68.125 171.665c-2.666 1.241-3.385 7.218-3.93 9.666M76.993 189.068c.33 2.758-.602 5.826-1.02 8.549M160.453 74.939c2.526-.432 4.893-1.457 7.43-1.89M187.588 110.309c.473 1.157 3.567 1.559 4.631 1.689M192.814 122.752l8.739-1.494M194.266 133.049c3.193 2.505 5.845 5.708 8.88 8.407M196.152 164.049c.605 1.74 2.459 3.185 3.838 4.306M189.121 177.348c.645 3.771 2.958 8.066 5.573 10.832M177.342 197.349l1.442 8.437M159.404 210.338l1.339 7.835M146.27 218.786c.295 1.725.282 3.462.574 5.175M132.143 217.789c.08 1.147-.609 2.481-.94 3.573M130.197 220.914c.296 1.733-.357 3.353-.08 4.976M117.319 218.152c.117 1.683-.952 3.195-1.69 4.631M95.879 210.651c-.55.776-1.17 1.459-1.8 2.169M76.3 143.285c-.311.019-.65-.099-.955-.146M81.943 134.568l.155.904M94.768 173.314c-1.323.372-2.31 1.792-3.255 2.727M107.252 190.1l1.236 7.232M133.82 193.906l.774 4.528M147.73 188.221c1.444.5 2.772 1.312 4.223 1.834M164.125 175.947c1.947-.18 4.078 1.209 5.758 2.023M173.841 157.148c1.906-.968 3.757-2.145 5.886-2.509M175.659 128.2c.371-.524.772-.894 1.286-1.272M169.138 109.394c-.204-2.211-.3-4.359-.223-6.577M142.193 76.644l1.123-.191c.598-.103 1.223.245 1.78.414.813.247 1.526.76 2.367.89M91.022 85.103c-.008-.17.396-.614.485-.775.636-1.149 1.56-2.137 2.479-3.065.843-.85 1.81-1.48 2.992-1.682M112.684 163.289c-.501.086-1.394.658-1.537 1.127M67.859 152.451c-.478-.172-1.538-.114-1.892.224M120.834 169.505c.175 1.023-.268 1.796-1.123 2.305-.577.342-.888 1.369-1.269 1.907M130.867 170.555l.661 3.863M140.127 167.07c.919-.057 1.693.574 2.488.958 1.016.491 2.066.914 3.097 1.373M148.822 156.248l7.895-1.349M66.002 161.35l7.895-1.35M101.057 142.803l-.168.029M119.932 80.277l.804 4.704"/><path stroke="#FFD424" stroke-linecap="round" stroke-width="5" d="M69.32 110.604c2.443 3.329 5.927 5.681 8.323 9.061M148.953 159.828c2.449.172 4.732 1.254 6.982 2.164 3.393 1.371 6.802 2.711 10.182 4.113 3.235 1.343 6.723 2.775 8.701 5.782"/><path fill="#fff" stroke="#171717" stroke-linejoin="round" stroke-width="3" d="M53.024 126.485a.399.399 0 0 1 .517-.319l26.663 8.551a.4.4 0 0 0 .498-.242l10.627-28.727a.24.24 0 0 1 .31-.143l28.711 10.621a.4.4 0 0 0 .514-.236l10.621-28.712a.238.238 0 0 1 .126-.135.24.24 0 0 1 .184-.007l28.737 10.63a.4.4 0 0 0 .503-.21L173.567 69.9a.583.583 0 0 1 .171-.197c.02-.01.09-.03.108-.017l12.356 8.368 4.252 2.714c.342.217.752-.142.568-.502-20.004-38.978-73.633-74.417-111.38-57.056-37.925 17.443-46.073 80.427-30.113 121.031.148.377.69.306.752-.094l2.743-17.661Z"/><path stroke="#171717" stroke-linecap="round" stroke-width="3" d="M79.16 51.45c-.637.11-1.28.201-1.914.328-.855.17.27 1.597.53 1.88 1.935 2.088 4.185-.14 5.443-1.916.832-1.175-3.137-1.69-3.707-1.605-.94.14-1.104 1.108-.959 1.955M107.396 90.026c-.396.068-.794.127-1.188.203-.531.102.124.738.277.862 1.137.924 2.582-.174 3.404-1.036.543-.57-1.889-.705-2.241-.651-.584.09-.71.546-.643.937"/><path stroke="#FFD424" stroke-linecap="round" stroke-width="7.255" d="M65.755 81.675c.116.677.104-1.373.239-2.046.19-.948.511-2.118 1.224-2.823.167-.165.431-.214.638-.322.617-.323.737-2.916 1.295-3.336.306-.23.562-.501.855-.743.017-.014-.21.857-.275 1.077-.397 1.369-.373 5.01-.593 6.42-.152.978-.432 2.043-.397 3.038.015.41.12.824.188 1.228.076.445.138-.47.168-.582.402-1.522 1.089-3.036 2.043-4.289.444-.583 1.176-1.44 1.93-1.628.25-.062.509-.093.762-.136.196-.033-.193.67-.247.82-.55 1.546-.606 5.37-.86 6.993-.073.46-.11.864-.031 1.32"/><path stroke="#171717" stroke-linecap="round" stroke-width="2" d="M60.232 82.185c4.171-.713 6.18-4.557 7.018-8.465.253-1.178.137-4.785.34-3.598.287 1.681.516 3.385.864 5.055.722 3.475 3.926 4.182 6.838 4.71.88.16 2.526-.156 3.209.222.385.213.34.003-.334.118-.764.13-1.69.121-2.464.083-1.104-.055-2.976-.067-3.712.973-1.048 1.48-1.179 3.57-1.814 5.235-.657 1.722-1.18 3.989-1.004 5.836.057.592.17 2.613-.116.943-.463-2.707.084-5.422-.273-8.08-.16-1.193-.273-2.223-1.324-2.883-2.171-1.363-5.153-.504-7.497-.103"/><path stroke="#FFD424" stroke-linecap="round" stroke-width="2.954" d="M146.793 71.89c.101.59.092-1.195.211-1.782.166-.825.448-1.845 1.072-2.459.146-.143.377-.187.558-.281.54-.281.984-.568 1.472-.934.268-.2.492-.437.748-.648.016-.013-.184.746-.24.938-.349 1.192-.667 2.392-.86 3.62-.134.851-.38 1.779-.35 2.646.013.357.104.717.164 1.069.066.387.121-.41.147-.507.353-1.326.955-2.645 1.79-3.736.388-.508 1.03-1.256 1.689-1.42.218-.054.445-.08.667-.118.171-.03-.17.583-.217.714-.482 1.347-.871 2.705-1.094 4.118-.064.401-.096.753-.028 1.15"/><path stroke="#171717" stroke-linecap="round" stroke-width="3" d="M149.269 69.902c-.637.109-1.28.2-1.914.327-.855.171.27 1.598.531 1.88 1.934 2.088 4.185-.14 5.442-1.916.833-1.175-3.137-1.689-3.706-1.605-.941.14-1.104 1.108-.959 1.955"/><path stroke="#171717" stroke-linecap="round" stroke-width="2" d="M108.916 47.432c1.771-.302 2.611-2.002 2.954-3.733.104-.522.042-2.124.132-1.596.128.747.231 1.504.384 2.246.319 1.545 1.683 1.87 2.922 2.114.374.074 1.072-.061 1.364.109.164.096.144.002-.142.051-.324.056-.717.048-1.046.029-.47-.028-1.265-.04-1.574.42-.441.653-.489 1.58-.754 2.317-.273.762-.488 1.766-.407 2.587.026.263.081 1.16-.046.418-.205-1.203.018-2.406-.143-3.587-.072-.53-.123-.988-.572-1.284-.927-.613-2.191-.241-3.186-.071M149.399 217.036c1.77-.303 2.611-2.002 2.954-3.734.103-.522.042-2.124.132-1.596.127.747.231 1.504.384 2.247.318 1.545 1.682 1.869 2.921 2.114.375.073 1.073-.062 1.364.108.165.097.145.003-.141.052-.324.055-.718.048-1.047.028-.469-.028-1.265-.039-1.574.42-.44.653-.489 1.58-.753 2.318-.274.762-.488 1.766-.407 2.587.026.263.081 1.16-.046.418-.206-1.203.017-2.407-.143-3.588-.072-.53-.124-.987-.572-1.284-.928-.612-2.192-.241-3.186-.071M183.072 177.309c2.136-2.013 4.076-4.193 6.353-6.057.751-.615 1.699-1.164 2.359-1.886.318-.348.559-.626 1.039-.708M113.686 198.444c-.821.141-1.357.977-2.007 1.455-.286.21-.689.313-.819.683-.131.373-.276.727-.511 1.023-.533.676-1.008 1.663-1.344 2.452-.434 1.022-1.255 1.72-1.977 2.511-.262.286-.627.352-.861.682-.27.381-.588.69-.873 1.051-.521.66-1.243 1.03-1.736 1.726a10.728 10.728 0 0 1-2.366 2.435M49.431 140.43c-.258-1.513-.661-2.98-.919-4.488-.076-.446-.054-1.253-.386-1.567-.462-.437-.94-1.593-1.17-2.195-1.468-3.819-1.664-7.952-2.352-11.976-.33-1.924-.496-3.782-.68-5.714-.28-2.929-1.04-5.742-1.173-8.692-.088-1.951.072-4.03.195-5.99.074-1.194-.093-2.379-.077-3.565.01-.651.138-1.423.029-2.061M42.897 94.18c-.262-1.532-.427-2.684-.111-4.211.3-1.45-.034-2.948.396-4.366.207-.685.322-1.385.518-2.069.24-.838.694-1.509 1.01-2.305.488-1.222.794-2.443 1.129-3.695.372-1.393.177-2.894.481-4.313.303-1.415.975-2.663 1.2-4.122.288-1.88.832-3.67 1.195-5.527.191-.976.644-1.993 1.063-2.889.286-.61.793-1.441.894-2.099M50.673 58.584c-.31-1.813 1.423-3.99 2.253-5.53.837-1.55 2.106-2.54 3.223-3.867.35-.417.601-.944.829-1.436.43-.933 1.197-1.835 1.815-2.645.994-1.304 1.547-2.787 2.246-4.285.77-1.652 2.427-2.074 3.487-3.456.516-.672.994-1.398 1.588-2.048.685-.75.874-1.814 1.544-2.548.42-.46 1.206-1.357 1.807-1.46M69.76 31.259c1.456-.249 3.073-1.285 4.385-1.968.91-.473 1.81-.828 2.648-1.442 1.061-.78 2.035-1.66 3.158-2.36.411-.255.787-.525 1.174-.81.293-.214.689-.155 1.016-.291 1.92-.798 4.12-1.42 6.144-1.922 1.381-.343 2.862-.193 4.266-.433 1.303-.223 2.746-.658 4.074-.62 1.923.054 3.811-.87 5.738-.786 1.594.07 3.241-.5 4.848-.101 2.265.562 5.018.567 7.315.374.557-.047 2.526-.572 2.829.168.223.545 2.282.757 2.382 1.34M119.972 22.862c.502-.035 1.162.405 1.59.634.484.26.986.47 1.487.693 1.017.452 2.19.616 3.239.98 1.25.432 2.426.968 3.565 1.623.487.28.952.641 1.488.816.537.175 1.102.235 1.642.398.873.265 1.595.847 2.423 1.202.433.185.903.477 1.291.752.432.305 1.161.388 1.663.549.561.18 1.139.539 1.671.8.411.202.824.398 1.234.602.478.238.983.356 1.464.583.708.335 1.179.727 1.541 1.404M144.286 33.99c1.024-.072 1.915 1.032 2.43 1.755.321.45.625.95.893 1.432.168.301.323.691.691.762 1.236.237 2.574.794 3.599 1.52 1.249.884 2.534 1.686 3.692 2.693.839.73 1.875 1.035 2.783 1.654.718.49 1.446.9 2.138 1.43.407.313.69.72 1.049 1.082.25.251.318.523.614.733.51.361 1.044.675 1.56 1.025.814.554 2.099 1.449 2.276 2.482M166.026 50.648c1.314 1.706 3.266 2.774 4.586 4.495 1.065 1.386 2.555 2.454 3.503 3.939.431.674.783 1.335 1.288 1.961.652.81 1.478 1.465 2.132 2.27 1.138 1.403 3.538 2.796 4.527 4.264.476.704 1.149 1.247 1.505 2.027.393.861.452 1.073 1.317 1.478.709.331 2.349 6.749 3.144 6.613M185.97 76.475c-.141-.385-.692-.685-.993-.914a17.58 17.58 0 0 0-2.347-1.535c-1.166-.624-2.373-1.167-3.538-1.791-1.379-.739-2.418-2-3.648-2.95-.423-.325-.913-.57-1.35-.88-.199-.14-.433-.519-.668-.579-.205-.052-.811-.158-.603-.194M172.23 67.933c-.191 1.24-.75 2.474-1.208 3.636-.523 1.328-1.297 2.51-2.006 3.74-.446.773-.883 1.523-1.213 2.353-.313.787-.617 1.57-.946 2.35-.381.906-.669 1.864-1.11 2.743-.45.898-1.005 1.725-1.584 2.543-.289.407-.48.847-.74 1.27-.353.574-.728 1.148-1.015 1.758-.253.54-.477 1.079-.781 1.594-.41.697-.711 1.352-1.004 2.105-.16.41-.357.804-.522 1.212-.042.105-.088.335-.217.373-.045.013-.125.53-.152.62-.238.784-.744 1.394-1.064 2.112M158.441 97.197c-1.694.046-3.162-1.135-4.613-1.84-.545-.266-1.084-.525-1.666-.705-.491-.152-1.109-.1-1.541-.38-.384-.25-.679-.728-1.082-.925-.55-.27-1.175-.425-1.747-.648-.616-.24-1.265-.366-1.883-.597-.746-.278-1.443-.663-2.151-1.024-1.188-.606-2.431-1.14-3.539-1.888a5.355 5.355 0 0 0-1.19-.631c-.557-.2-1.137-.245-1.685-.504-.434-.205-.951-.134-1.415-.12-.729.023-1.456.052-2.183.095-.557.033-1.19.283-1.719.019-.139-.07-.408-.184-.559-.158M130.764 85.454c.008.128-.118.278-.169.387-.211.458-.359.95-.523 1.426-.494 1.435-1.16 2.71-1.917 4.02-.835 1.445-1.026 3.178-1.691 4.705-.509 1.167-1.155 2.265-1.575 3.47-.37 1.06-.64 2.146-1.211 3.12-.401.684-.466 1.591-1.025 2.182M123.34 104.982c-.159.048-.322.552-.383.69-.203.46-.343.926-.573 1.372-.299.584-.564 1.167-.9 1.734-.358.606-.712 1.202-.989 1.849-.272.634-.44 1.343-.89 1.884-.292.35-.628.664-.869 1.051-.257.413-.289.964-.424 1.408M117.256 113.697c-1.33.171-2.757-.495-3.97-.96-.827-.317-1.709-.52-2.521-.87-1.17-.505-2.392-.817-3.547-1.366-.577-.274-1.077-.678-1.626-1-.374-.219-.729-.383-1.079-.641-.441-.325-.828-.728-1.306-1.003-.19-.11-.371-.098-.546-.176"/><path stroke="#171717" stroke-linecap="round" stroke-width="2" d="M102.81 107.656c-.567.097-1.228-.351-1.721-.58-.522-.242-1.102-.305-1.621-.563-.53-.263-1.176-.281-1.757-.333-.368-.033-.735-.178-1.1-.25-.416-.083-.886-.136-1.268-.328-.545-.273-1.08-.582-1.64-.826-.277-.121-.57-.207-.853-.316-.212-.08-.442-.079-.65-.175-.16-.075-.364-.273-.542-.243l-.741.127M90.433 104.046c-.012.209-.143.438-.217.627-.309.786-.606 1.578-.951 2.349-.497 1.112-1.07 2.192-1.62 3.278-.54 1.063-1.11 2.178-1.294 3.367-.25 1.63-.497 3.213-.959 4.801-.289.992-.868 2.011-.947 3.056M84.443 121.525c.044.257-.297.593-.42.794-.478.781-.894 1.606-1.355 2.398-.45.771-.93 1.522-1.235 2.366-.218.602-.437 1.203-.658 1.803-.27.735-.623 1.303-1.114 1.913-.25.31-.52.599-.634.988-.17.586-.17 1.175-.536 1.691M78.37 132.156c-.445-.173-.918-.259-1.365-.437a17.524 17.524 0 0 0-1.938-.623c-.916-.248-1.854-.303-2.773-.532-.517-.129-.87-.278-1.267-.62-.55-.476-1.31-.717-2.008-.884-.594-.142-1.28-.365-1.795-.696-.364-.234-.725-.47-1.098-.692-.546-.324-.951-.446-1.585-.437-.363.005-.789-.009-1.122-.158M63.418 127.078c-.626.107-1.22-.196-1.797-.389a11.566 11.566 0 0 1-1.97-.887c-1.222-.685-2.435-1.358-3.69-1.977-.72-.356-1.611-.324-2.403-.478-.477-.093-1.936.073-1.457-.009M52.145 123.589c.05.417-.212.895-.319 1.287-.356 1.306-.55 2.589-.706 3.932-.17 1.453-.368 2.928-.775 4.336-.23.795-.572 1.525-.87 2.29-.105.269-.142.542-.233.813-.063.187-.277.464-.287.654-.013.272-.132.541-.198.805-.043.175-.066.572-.22.685"/><path stroke="#000" stroke-linecap="round" stroke-width="3" d="m114.95 210.086.005 40.594M125.152 250.678l-10.395-9.215-9.02 9.415"/><path stroke="#171717" stroke-linecap="round" stroke-width="2" d="M114.23 209.638c-.353 1.766-.831 13.55-1.062 15.338-.173 1.343.345 2.75.711 4.009.18.618.441 1.266.533 1.902.121.837-.017 1.672-.014 2.511.004 1.175-.04 2.386.043 3.556.068.955-.082 1.923-.01 2.871.094 1.257.14 2.546.05 3.805-.084 1.184-.265 2.364-.208 3.55.017.359.052 1.413.146 1.067.004-.016-.087.834-.138 1.09-.139.698-.352 1.364-.491 2.056"/><path stroke="#171717" stroke-linecap="round" stroke-width="2" d="M115.612 241.302c-.091.454-.211.759-.524 1.111-.48.539-.977 1.073-1.473 1.603-.818.875-1.63 1.779-2.499 2.609-.851.813-1.609 1.737-2.554 2.442-.197.147-.52.444-.661.644-.217.309-.7 1.07-1.067 1.17M116.023 242.616c.744.149 1.511.304 2.151.731.352.235.32.457.455.828.482 1.314 1.173 1.92 2.506 2.416 1.282.476 2.486 1.334 3.254 2.486.149.223.208.476.383.679.257.297.866.289 1.229.441"/><path stroke="#000" stroke-linecap="round" stroke-width="3" d="m180.575 182.964 44.135-3.616-.045-12.222m-.072-19.353.072 19.353m0 0-11.264-14.086m11.264 14.086 9.726-16.19"/><path stroke="#171717" stroke-linecap="round" stroke-width="2" d="M131.689 122.465c-.604.134-1.389 1.471-1.816 1.915-.482.499-.907 1.055-1.382 1.559-.591.625-1.355 2.455-1.421 3.316-.112 1.454-1.011 2.872-1.066 4.363-.049 1.303-.533 2.588-.533 3.947M125.472 137.741c.135.608 1.271 1.225 1.687 1.609 1.004.926 2.118 1.719 3.109 2.655 1.064 1.004 2.463 1.176 3.731 1.599M132.399 121.932c1.842.092 4.141.818 5.774 1.697 1.432.771 3.109.821 4.619 1.412 2.007.785 3.875 1.967 5.774 2.97 1.308.692 2.67 1.605 3.691 2.665.663.688 1.245 1.502 1.915 2.171.797.798 1.853 1.341 2.655 2.142.946.946 1.634.308 2.204 1.45"/><path stroke="#171717" stroke-linecap="round" stroke-width="2" d="M125.293 137.21c7.432 0 12.306-1.772 19.738-1.772h6c1 0 3.946.632 5 1.001.305.106 2.884.767 3 1M124.359 136.998c-.027.109-.35.201-.46.189-.067-.007-.027-.794-.027-.858 0-.644.189-1.39.365-2.006.171-.597.319-1.25.635-1.797.489-.845.663-1.857 1.189-2.675a56.203 56.203 0 0 1 1.642-2.459c.585-.814 1.377-1.659 1.824-2.553.442-.884 1.314-1.618 2.006-2.311.412-.412.956-1.207 1.459-1.459M132.992 121.07c3.409 0 6.7 1.634 9.856 2.797 1.682.62 3.286 1.309 4.857 2.182 1.458.81 3.014 1.368 4.377 2.344 2.153 1.541 3.876 3.824 5.526 5.87.72.892 1.337 1.815 2.007 2.736"/><path stroke="#D4AA01" stroke-linecap="round" stroke-width="2" d="M128.226 139.13c2.21 0 4.438.095 6.64-.126 1.848-.184 3.627-.941 5.462-1.258.902-.156 1.827-.221 2.717-.439.865-.212 1.692-.554 2.551-.791.67-.186 1.331-.463 2.028-.541.724-.082 1.481-.023 2.209-.023h2.688c.194 0 .995-.115 1.128.051.56.701-2.735 1.028-3.053 1.076-2.432.368-4.721 1.086-7.084 1.738-1.364.376-2.751.666-4.164.729-1.634.072-3.06.688-4.641.939-.767.122-1.537.109-2.301.262-.319.064-1.623.378-.638.536.826.132 1.767.261 2.512-.149.686-.377 1.686-.467 2.454-.467 1.142 0 2.475.202 3.588-.051a6.214 6.214 0 0 1 1.435-.154"/><path stroke="#171717" stroke-linecap="round" stroke-width="2" d="M134.573 144.172c.145.507 3.2-1.067 3.621-1.337.859-.552 1.912-.742 2.83-1.155 1.258-.566 2.736-.765 4.074-1.088 1.596-.385 3.296-.344 4.918-.527 2.06-.232 3.043-.868 5.016-1.627.905-.348 1.213-1.475 2-2"/><path stroke="#171717" stroke-linecap="round" stroke-width="2" d="M123.995 137.242c3.161 0 6.122-.937 9.241-1.364.76-.104 1.482-.313 2.25-.399.946-.105 1.907-.061 2.857-.061h6.323c1.567 0 2.962.097 4.499.338 1.275.201 2.599-.277 3.867 0 1.639.359 4.765.531 6.335 1.054M123.32 138.312c.879.097 1.702 1.15 2.4 1.597.915.585 1.838 1.157 2.741 1.759 1.484.99 3.366 1.502 4.638 2.773M124.724 138.458c2.099 0 3.657 2.573 5.532 3.337.728.297 1.434.58 2.128.946.726.382 1.355.954 2.067 1.31"/><path stroke="#171717" stroke-linecap="round" stroke-width="2" d="M134.176 143.427c1.607-.057 3.517-.764 4.974-1.411 1.479-.658 3.003-1.011 4.53-1.52 2.232-.744 3.986-1.058 6.351-1.058 2.646 0 4-1 7-3"/><path stroke="#FFD424" stroke-linecap="round" stroke-width="5" d="M194.098 100.986c-.608-.029-5.544-1.65-5.52-1.693.163-.292.669.02 1.001.06 1.433.167 2.857.4 4.291.559 1.782.197 3.612.412 5.409.412 1.309 0-1.143-.803-1.266-.854-2.655-1.111-5.281-2.305-7.904-3.488-.47-.212-.928-.451-1.398-.663-.047-.02-.534-.162-.435-.162 2.48 0 4.946.662 7.419.84.918.065 1.839.088 2.76.088.436 0 1.539.17 1.295-.192-.252-.372-1.364-.616-1.663-.713a107.44 107.44 0 0 0-6.705-1.914c-2.426-.616-4.871-1.125-7.308-1.685-1.807-.416 3.695-.377 5.549-.39 4.043-.029 8.086-.008 12.129-.008.392 0 1.096.11 1.494-.022.149-.05-.264-.177-.412-.228-.44-.15-1.898-.592-2.172-.677-4.029-1.26-8.023-2.623-12.084-3.783-.717-.205-1.473-.344-2.178-.588-.348-.12.735.075 1.089.176 4.26 1.212 8.446 2.736 12.813 3.54.099.018 4.03.609 4.04.464.02-.28-.959-1.158-.993-1.193-1.549-1.563-3.243-2.981-4.983-4.327-1.937-1.499-3.962-2.901-6.137-4.033-.086-.044-.325-.177-.229-.177.894 0 1.834.165 2.716.273 2.708.33 5.384.87 8.081 1.273.791.118 1.984.484.692-.317-3.021-1.87-6.32-3.323-9.634-4.584-.182-.07-2.613-.755-1.435-.766 1.668-.015 3.329.023 4.99.192.136.013 1.398.239 1.236.014-.524-.725-1.176-1.346-1.671-2.097-.937-1.424 1.341-1.42 2.289-1.42"/><path stroke="#171717" stroke-linecap="round" stroke-width="2" d="M182.972 95.889c1.256-1.831 2.554-3.545 4.03-5.202M191.624 97.305c1.522-1.616 3.068-3.11 4.781-4.52M180.365 90.617c0-1.417 1.411-2.91 2.058-4.115a48.753 48.753 0 0 1 2.372-3.988c.657-.985 1.698-1.698 2.533-2.533.939-.938 1.639-2.06 2.594-2.976 1.34-1.287 2.668-2.62 4.217-3.681a36.939 36.939 0 0 1 2.414-1.497c.597-.345 1.323-.454 1.905-.799.656-.389 1.965-.588 2.482.077.612.787-.871 2.848-1.216 3.511-1.13 2.175-2.975 4.036-3.749 6.36"/><path stroke="#171717" stroke-linecap="round" stroke-width="2" d="M180.518 91.228c0-.664.371-1.061.765-1.565.577-.737 1.056-1.534 1.649-2.261.581-.713.909-1.542 1.412-2.296.661-.993 1.475-1.962 2.219-2.9 1.356-1.708 2.558-3.612 4.055-5.202.755-.803 1.599-1.526 2.296-2.38.349-.43.911-1.302 1.53-1.302M201.637 76.078c.565-.056.967-.459 1.564-.459h2.338c1.211 0 1.829 1.188 2.058 2.22.341 1.534.366 3.528-.298 4.973a18.666 18.666 0 0 0-.68 1.675c-.224.639-.694 1.218-.85 1.845M205.617 87.86c.414 0 2.755-.33 2.755.383 0 1.038.04 1.782-.536 2.678-1.996 3.105-4.797 5.493-7.261 8.264-.367.414-.542.993-.926 1.378-.376.375-1.197.587-1.684.765-1.278.467-2.36 1.392-3.486 2.142-.971.648-1.899 1.61-2.975 2.024-.675.259-1.305.786-1.922 1.156-.242.145-.965.493-.952.493"/><path stroke="#171717" stroke-linecap="round" stroke-width="3" d="M83 145.999c-10.666-1.333-32.6-3.2-35 0-3 4 0 6 4 7s-9-2-8 4c.8 4.8 7 4.667 10 4-3.333 1-9 3.8-5 7 5 4 35 0 41-3"/><path stroke="#171717" stroke-linecap="round" stroke-width="2" d="M82.469 147.468c-3.492 0-7.059.231-10.537-.074-2.087-.183-4.186-.626-6.277-.664-2.147-.039-4.023-.863-6.113-1.106-1.933-.225-3.954-.074-5.899-.074-1.837 0-3.983-.589-5.687.263-.81.404-2.045 1.072-2.425 1.941-.435.996.438 2.151 1.098 2.811.495.495 1.627 1.475 2.36 1.475M52.528 153.811c-1.021 0-2.183.38-3.163.655-.923.258-1.617.396-2.368 1.032-.484.409-1.245.964-1.393 1.631-.165.742 1.435 1.703 1.983 1.917 1.435.562 3.304.812 4.826.812.857 0 3.197-.472 3.654.442M55.184 160.742c-1.258 0-2.863 1.497-3.835 2.204-.902.657-2.507 1.259-2.507 2.524 0 2.424 3.417 1.909 5.023 1.909 1.623 0 3.232-.147 4.859-.147 1.823 0 3.646.091 5.449-.222 1.114-.192 2.151-.663 3.285-.663 1.228 0 2.433.114 3.655.147.931.025 1.852.161 2.802.148 1.383-.019 2.765-.428 4.13-.623 2.73-.39 5.256-1.403 8.046-1.442 1.949-.027 4.336.003 6.113-.885"/><path stroke="#171717" stroke-linecap="round" stroke-width="3" d="M177 94c5.323-8.981 17.55-26.528 23.961-25.009a.176.176 0 0 1 .07.034C202.35 70.057 203.35 73.65 197 80c2.333-2 7.6-5.4 10-3 2.188 2.189-.999 7.314-3.347 10.222-.138.171.071.445.274.363 2.208-.893 5.689-1.661 7.073.416C213 91 196 105 188 108"/><path stroke="#171717" stroke-linecap="round" stroke-width="2" d="M86.016 116.044c1.25 1.137 2.417 2.359 3.658 3.507 1.083 1.004 2.497 1.597 3.801 2.231 2.316 1.126 5.147 1.059 7.571.144a12.862 12.862 0 0 0 4.543-2.933c1.921-1.921 2.908-4.015 4.096-6.391M130.916 92.662c0 2.555-.574 5.881 1.434 7.89.942.942 2.189.908 3.443 1.084 2.051.287 4.183.464 6.168 1.06 1.385.415 2.869.464 4.304.438 1.345-.024 2.551-1.679 3.507-2.502.801-.691 1.636-1.33 2.374-2.088.53-.545.897-1.525 1.578-1.865"/></svg>