<svg xmlns="http://www.w3.org/2000/svg" width="240" height="240" fill="none"><path fill="#fff" stroke="#fff" stroke-width="16" d="M121.744 218.742c47.491 0 85.544-39.715 85.544-88.146 0-23.98-9.31-51.134-24.158-72.344-14.741-21.058-36.237-37.97-61.386-37.97-25.15 0-46.645 16.912-61.386 37.97-14.848 21.21-24.159 48.364-24.159 72.344 0 48.431 38.053 88.146 85.545 88.146Z"/><path stroke="#171717" stroke-linecap="round" stroke-width="3" d="M109.158 53.452c-.637.109-1.28.2-1.914.327-.855.17.269 1.597.53 1.88 1.935 2.088 4.185-.14 5.443-1.916.832-1.175-3.137-1.69-3.707-1.605-.94.14-1.104 1.108-.959 1.955M121.394 96.027c-.396.067-.794.127-1.188.203-.531.102.124.738.277.862 1.137.924 2.582-.174 3.404-1.036.543-.57-1.888-.705-2.241-.651-.584.09-.71.546-.643.937"/><path stroke="#171717" stroke-linecap="round" stroke-width="2" d="M142.914 61.433c1.771-.302 2.611-2.002 2.954-3.733.104-.522.042-2.124.132-1.596.128.747.231 1.504.384 2.246.319 1.545 1.683 1.87 2.922 2.114.374.074 1.072-.061 1.364.109.164.096.144.002-.142.051-.324.056-.717.048-1.046.029-.47-.028-1.265-.04-1.574.42-.441.653-.489 1.58-.754 2.317-.273.762-.488 1.766-.407 2.587.026.263.081 1.16-.046.418-.205-1.203.018-2.406-.143-3.587-.072-.53-.123-.988-.572-1.284-.927-.613-2.191-.241-3.186-.071"/><path stroke="#FFD424" stroke-linecap="round" stroke-width="5" d="M126.499 118.812c-.645 0-.677.212-.024-.522 2.676-3.007 5.791-5.762 8.943-8.221.893-.696 3.494-2.774 2.857-1.825-1.888 2.809-4.765 5.034-7.027 7.513-.474.52-3.636 3.539-1.266 2.421 2.877-1.356 5.636-3.012 8.473-4.458.022-.011.966-.644 1.013-.347.176 1.129-1.639 3.206-2.158 4.023-.413.65-5.673 7.359-5.243 7.923.127.166.376-.184.531-.323.277-.248 1.406-1.36 1.567-1.515 2.069-1.998 4.218-3.901 6.351-5.824.288-.259 4.212-4.021 2.929-1.602-1.255 2.366-2.818 4.677-4.23 6.954-.166.267-.671.951-.374.869 1.205-.331 2.499-1.672 3.495-2.384a107.164 107.164 0 0 1 3.544-2.409c.015-.01 1.311-.949 1.169-.534-.84 2.451-3.224 4.356-4.616 6.47-1.569 2.381 2.625-.284 3.254-.634 1.371-.761 5.419-3.164 4.025-2.446"/><path stroke="#D4AA01" stroke-linecap="round" stroke-width="5" d="M129.08 118.56c1.553-1.071 2.941-2.359 4.4-3.553.771-.631 1.804-1.98 2.693-2.376.762-.338.648-1.515 1.635-1.905.549-.217 1.338-.629.918.188-1.044 2.029-2.483 3.918-3.894 5.705-.892 1.13-1.132 1.58-2.576 1.941"/><path stroke="#FFD424" stroke-linecap="round" stroke-width="2.954" d="M168 99.333c0 .598.293-1.163.508-1.721.303-.786.753-1.743 1.472-2.243.168-.117.403-.122.597-.184.58-.186 1.065-.394 1.608-.672.298-.153.559-.349.847-.513.017-.01-.308.705-.395.884-.545 1.116-1.061 2.245-1.458 3.424-.275.816-.674 1.689-.79 2.548-.048.354-.019.725-.019 1.082 0 .393.188-.383.23-.475.571-1.247 1.387-2.446 2.394-3.381.469-.435 1.227-1.064 1.904-1.115.225-.016.453-.004.678-.004.173 0-.266.546-.334.667-.702 1.246-1.315 2.52-1.773 3.875-.13.385-.221.726-.221 1.129"/><path stroke="#171717" stroke-linecap="round" stroke-width="3" d="M170.776 97.79c-.647 0-1.295-.017-1.942 0-.872.025-.004 1.62.206 1.942 1.556 2.385 4.149.568 5.688-.97 1.018-1.02-2.808-2.194-3.383-2.207-.951-.021-1.275.906-1.275 1.765"/><path stroke="#C6C6C8" stroke-linecap="round" stroke-width="5" d="M45.418 129.139v5.179c0 .774-.126 1.813.263 2.528.87 1.601 1.673 3.293 2.455 4.943 1.687 3.562 2.38 7.42 3.9 11.048.45 1.075 1.11 1.971 1.627 3.007a37.532 37.532 0 0 1 1.615 3.794c1.365 3.712 1.778 7.658 3.847 11.094 1.257 2.089 3.053 4.137 5.147 5.436.666.413 1.349.826 2.061 1.155.498.231 1.067.187 1.536.499M67.281 178.885c.131.654.994 1.488 1.418 1.982.394.459.83.884 1.24 1.326.955 1.028 2.131 1.559 3.395 2.127 1.447.651 3.137 1.337 4.168 2.606.787.968 1.913 2.542 3.132 2.948M161.836 178.639c-.958.766-2.291 1.119-3.285 1.932-.75.613-1.531 1.098-2.361 1.588-2.494 1.474-4.836 3.237-7.299 4.776-5.356 3.348-11.649 5.909-17.924 6.537-4.486.449-9.527 1.004-13.996.236-2.206-.379-4.457-.517-6.612-1.159-1.867-.556-3.684-1.228-5.527-1.825-2.873-.929-5.598-1.923-8.33-3.209-2.406-1.133-5.181-1.727-7.502-2.887M90.739 184.242c-.932 0-1.795.009-2.705-.193-1.428-.317-2.421-1.525-3.66-2.222-.579-.325-.798-1.059-1.363-1.341-.959-.48-1.858-1.171-2.715-1.857-2.067-1.653-4.34-4.256-5.4-6.709-1.01-2.341-2.192-5.068-4.443-6.418M138.457 198.152c2.731 0 5.804.479 8.308-.773 1.272-.637 2.52-1.389 3.745-2.115.403-.238 1.231-.503 1.482-.88.806-1.209 3.114-1.001 4.239-1.792.673-.473 2.898-1.432 2.898-2.362M142.515 208.778c-1.88 0-4.153-.354-5.989.043-1.488.322-3.068.344-4.594.344-4.44 0-8.74 1.159-13.18 1.159-4.624 0-9.14-.174-13.717-.59-2.392-.218-4.535-.727-6.762-1.632-1.272-.516-2.37-1.353-3.67-1.835-.65-.241-1.09-.749-1.74-.966"/><path stroke="#C6C6C8" stroke-linecap="round" stroke-width="5" d="M43.993 124c0 5.423-1.997 10-.888 19.932a89.193 89.193 0 0 0 3.889 11.793c1.066 2.61 2.005 5.374 3.38 7.863 1.183 2.138 3.166 4.091 4.154 6.207 2.108 4.515 5.696 7.283 8.79 10.966 1.59 1.891 3.939 3.772 5.748 5.494 2.065 1.966 4.186 4.676 6.52 6.3 4.275 2.973 7.696 6.214 12.51 8.506 2.075.987 4.664 1.596 6.955 1.839 3.105.328 5.704 1.762 8.694 2.575 12.421 3.378 25.417 2.391 38.253 2.391"/><path stroke="#C6C6C8" stroke-linecap="round" stroke-width="5" d="M140.227 207.603h5.332c.646 0 1.057-.055 1.645-.341 1.538-.747 2.947-1.398 4.557-2.042 1.091-.437 2.141-1.301 3.111-1.957 1.255-.849 2.665-1.553 3.867-2.468 1.411-1.074 3.102-1.78 4.462-2.893 1.443-1.181 3.255-1.764 4.68-2.978 1.379-1.174 2.215-2.61 3.357-3.999 1.549-1.886 2.966-3.938 4.651-5.702 1.79-1.873 3.85-3.416 5.522-5.398 1.144-1.356 2.112-2.846 3.233-4.217 1.436-1.755 2.272-3.855 3.413-5.796 1.168-1.985 2.455-3.787 3.395-5.909.353-.796.851-1.861.851-2.76M192.305 161.144c0-2.714.689-4.719 1.787-7.157.951-2.114 2.137-4.376 2.637-6.628.614-2.76.565-5.564.984-8.339.275-1.823.378-3.594.378-5.446"/><path stroke="#C6C6C8" stroke-linecap="round" stroke-width="5" d="M198.996 133c0 2.28-2.633 5.026-3.422 7.21-.829 2.297-1.732 4.547-2.344 6.911-.631 2.433-2.015 4.464-2.894 6.779-.987 2.604-2.165 4.995-3.819 7.242-1.418 1.927-2.195 3.913-3.026 6.127-.422 1.126-.896 2.183-1.399 3.271-1.168 2.527-2.806 4.532-4.5 6.741-1.352 1.763-2.668 3.244-4.435 4.614-1.179.915-2.335 1.769-3.394 2.827-1.473 1.474-2.878 3.03-4.349 4.501M165.416 189.395c-.648.38-1.08 1.25-1.617 1.786a57.227 57.227 0 0 1-2.893 2.723c-1.677 1.461-3.645 2.699-5.531 3.867-2.71 1.68-5.733 2.818-8.594 4.217-3.121 1.526-6.235 3.354-9.521 4.5-6.032 2.105-12.423 2.988-18.805 2.988-1.483 0-3.221-.202-4.642-.643-1.041-.323-2.18-.21-3.196-.548"/><path stroke="#C6C6C8" stroke-linecap="round" stroke-width="5" d="M141.76 202.327c-4.706 0-9.35.249-13.955 1.191-2.736.56-5.416 1.315-8.169 1.835-3.454.652-6.701.505-10.041-.511-3.871-1.178-7.084-3.4-10.646-5.2-2.81-1.42-5.61-2.821-8.414-4.255-2.834-1.449-4.31-3.871-6.505-6.032-.551-.542-5.456-5.19-5.238-5.408"/><path stroke="#C6C6C8" stroke-linecap="round" stroke-width="5" d="M83.388 189.904c-.95-.095-1.92-1.311-2.628-1.854-1.573-1.204-3.093-2.392-4.567-3.725-2.854-2.579-5.06-5.572-7.44-8.547-.984-1.228-1.841-2.609-2.723-3.914-1.298-1.919-2.76-3.686-4.217-5.483-1.07-1.32-2.06-2.798-2.76-4.35-.703-1.555-1.01-3.19-1.532-4.803a103.05 103.05 0 0 0-1.532-4.415c-.495-1.319-1.35-2.504-2.033-3.734-.697-1.254-1.227-2.862-1.541-4.274-.254-1.141-1.021-1.826-1.021-3.063 0-1.188.044-2.679-.851-3.574M50.37 138.169c0-3.637.442-7.209-1.229-10.552-.9-1.799-2.568-3.392-3.196-5.275M198.937 133.547c0 1.39-1.756 3.028-2.132 4.371-.482 1.721-1.957 3.153-2.712 4.766-2.127 4.545-4.076 9.189-6.412 13.628-3.923 7.452-9.408 13.903-14.365 20.645-1.706 2.32-3.658 4.376-5.53 6.544-1.403 1.625-3.382 2.772-4.924 4.266-4.141 4.011-9.298 8.075-14.799 9.953-2.99 1.021-5.885 1.961-8.954 2.607-1.863.393-7.592.527-5.687.527"/><path stroke="#C6C6C8" stroke-linecap="round" stroke-width="5" d="M133.894 199.669c-3.561 0-6.8-.218-10.309-.817-3.212-.548-6.351-.605-9.598-.605-3.307 0-6.563-.024-9.849-.251-3.539-.244-6.234-2.876-9.058-4.674-5.073-3.228-8.459-8.641-13.272-12.192-3.26-2.405-5.126-6.193-7.992-8.953-1.311-1.263-2.407-2.728-3.674-4.029-.42-.433-2.348-1.666-1.659-1.896M69.197 166.253c-.39-.049-.667-1.097-.83-1.422a50.437 50.437 0 0 0-1.764-3.2c-.988-1.668-1.744-3.542-2.91-5.095-2.97-3.96-5.632-7.763-7.188-12.574-.886-2.738-1.813-5.734-3.66-7.992-1.496-1.829-2.966-3.404-3.911-5.609-.632-1.474-1.636-2.991-2.489-4.345-.585-.93-.805-1.972-1.422-2.897"/><path stroke="#C6C6C8" stroke-linecap="round" stroke-width="5" d="M197.996 137c0 3.288-4.596 8.594-6.982 10.648-4.176 3.596-7.509 8.288-10.994 12.548-1.476 1.804-2.638 3.918-3.963 5.833-2.121 3.063-4.981 5.96-7.9 8.268-3.238 2.561-6.799 4.811-9.849 7.584-2.741 2.493-5.858 4.547-8.532 7.123-3.027 2.918-7.305 5.014-11.244 6.399-2.765.973-5.309 1.807-8.189 2.37-2.852.558-5.865.688-8.769.711-2.449.02-4.898 0-7.347 0-1.189 0-2.424.14-3.555-.237"/><path stroke="#C6C6C8" stroke-linecap="round" stroke-width="5" d="M128.208 195.403c-7.716 0-15.483.377-23.121-.896-5.766-.96-10.993-3.115-16.234-5.635-2.349-1.129-4.283-2.447-6.096-4.318-1.329-1.372-2.319-3.182-3.515-4.688-1.633-2.053-3.819-3.547-5.254-5.793-.466-.729-.835-1.502-1.237-2.265-.284-.537-.386-.478.236-.105"/><path stroke="#C6C6C8" stroke-linecap="round" stroke-width="5" d="M74.113 169.403c1.405 0 2.79 2.982 3.742 3.934 2.768 2.768 6.516 4.211 10.075 5.661 5.85 2.383 11.12 5.915 17.08 8.06 3.925 1.413 8.142 1.683 12.281 2.005 4.348.338 8.709.418 13.039.959 2.58.323 5.279.335 7.879.299 1.796-.025 3.394-.952 4.84-1.962 1.648-1.151 3.346-2.206 4.99-3.369 3.444-2.438 6.414-5.368 9.403-8.337 3.169-3.148 6.371-6.194 9.893-8.934 1.744-1.356 3.648-2.253 5.566-3.305 1.12-.614 2.168-1.26 3.305-1.813.613-.298 1.166-.646 1.833-.831.964-.268.791-.835.853-1.77"/><path stroke="#C6C6C8" stroke-linecap="round" stroke-width="5" d="M101.746 183.796c2.268 0 4.558-.095 6.823.01 2.497.117 4.995.639 7.463.992 3.9.557 7.968.917 11.909.917 2.698 0 5.12-.558 7.761-1.045 2.619-.482 5.182-.49 7.836-.49 2.151 0 4.697.397 6.76-.192 1.395-.399 2.805-1.68 3.987-2.495 1.857-1.281 3.658-3.032 5.032-4.798"/><path stroke="#171717" stroke-width="3" d="M199.288 130.596c0 44.263-34.718 80.146-77.544 80.146-42.827 0-77.545-35.883-77.545-80.146 0-44.264 34.718-102.315 77.545-102.315 42.826 0 77.544 58.051 77.544 102.315Z"/><path stroke="#FFD424" stroke-linecap="round" stroke-width="7.255" d="M81.805 75.324c0 .687.334-1.336.58-1.977.347-.902.861-2.002 1.683-2.576.192-.134.46-.139.682-.21.663-.214 1.218-2.75 1.839-3.07.34-.175.639-.4.967-.588.02-.012-.351.809-.451 1.015-.623 1.282-1.212 4.875-1.666 6.229-.315.937-.77 1.94-.904 2.927-.054.407-.021.832-.021 1.242 0 .451.215-.44.263-.546.653-1.432 1.585-2.809 2.736-3.883.536-.5 1.403-1.222 2.177-1.28.257-.019.517-.005.775-.005.198 0-.304.627-.382.767-.803 1.431-1.503 5.19-2.027 6.747-.148.442-.252.833-.252 1.296"/><path stroke="#171717" stroke-linecap="round" stroke-width="2" d="M76.273 74.895c4.232 0 6.86-3.45 8.344-7.16.448-1.12.941-4.695.941-3.49 0 1.706-.06 3.423 0 5.128.127 3.547 3.166 4.784 5.947 5.795.84.306 2.516.271 3.126.759.344.275.335.06-.35.06-.774 0-1.685-.165-2.442-.333-1.08-.24-2.922-.568-3.823.334-1.282 1.282-1.763 3.319-2.67 4.854-.938 1.587-1.836 3.733-1.973 5.584-.044.593-.273 2.604-.273.91 0-2.746.997-5.33 1.093-8.01.043-1.204.105-2.238-.82-3.065-1.91-1.71-4.995-1.366-7.373-1.366"/><path stroke="#171717" stroke-linecap="round" stroke-linejoin="round" stroke-width="3" d="m44.996 121 16-16 16 16 16-16 6-6 22 22L138 105l20 20 9-10 16 14 12-26"/><path stroke="#171717" stroke-linecap="round" stroke-width="2" d="M42 120.22c0-3.801.203-7.144 2.459-10.403.967-1.397 1.637-3.68 2.27-5.295.737-1.885 1.743-3.676 2.647-5.485 2.059-4.117 3.996-8.384 5.674-12.673 1.515-3.87 2.84-7.974 5.107-11.537 4.448-6.99 8.273-14.481 14.08-20.511 2.654-2.756 5.52-5.143 8.238-7.86 2.106-2.106 4.164-4.213 6.514-6.052 2.825-2.211 6.098-3.826 8.91-6.053 3.585-2.837 7.382-4.75 11.832-5.863 3.898-.974 8.791-.189 12.819-.189 3.879 0 7.59-.104 11.369.946 4.198 1.166 6.811 3.216 10.214 5.863 5.545 4.314 11.145 8.677 16.181 13.534 2.511 2.421 5.376 4.643 7.944 6.977 1.211 1.101 2.196 2.403 3.572 3.32.965.644 3.195 1.856.673 1.135M174.125 57.315c0 2.336 3.066 5.496 4.161 7.565 1.272 2.402 2.916 4.705 3.867 7.271 1.671 4.513 4.556 8.59 6.535 12.946 1.937 4.26 3.807 8.522 5.107 13.071.711 2.49 1.521 4.832 1.912 7.377.306 1.984.443 4.251 1.03 6.157 1.267 4.119 1.975 8.918 1.975 13.24 0 4.31.757 8.782.757 13.134 0 1.983.41 4.492-.021 6.431-.295 1.329-1.492 2.838-1.492 4.161"/><path stroke="#171717" stroke-linecap="round" stroke-width="2" d="M198.711 144.211c0 8.146-3.154 14.834-6.808 21.94-4.237 8.237-7.534 16.855-15.425 22.318-3.108 2.152-5.917 4.742-9.079 6.809-1.258.823-2.999 2.159-4.056 3.215-1.192 1.193-2.723 1.777-3.972 2.838-1.267 1.076-3.572 1.587-5.106 2.269-1.551.689-3.207 1.041-4.813 1.597-3.192 1.105-6.334 1.949-9.561 2.943"/><path stroke="#171717" stroke-linecap="round" stroke-width="2" d="M141.593 208.141h-5.212c-1.701 0-4.504-.016-6.136.567-3.196 1.141-7.038.442-10.298 1.408-2.307.684-5.453.673-7.859.673-1.954 0-3.809.093-5.695-.379-2.023-.505-3.828-1.393-5.653-2.353-1.634-.861-3.528-1.783-5.086-2.774-3.19-2.031-7.122-3.425-10.717-4.624-1.719-.573-4.128-1.793-5.674-2.732-2.148-1.304-4.316-2.344-6.305-3.972-3.397-2.779-6.892-6.857-8.91-10.781-1.53-2.975-4.087-5.18-5.863-7.943-.368-.572-3.007-3.405-2.837-3.405"/><path stroke="#171717" stroke-linecap="round" stroke-width="2" d="M57.239 174.583c-1.17-1.461-1.834-3.974-2.732-5.674-1.389-2.629-3.283-5.174-4.813-7.755-1.467-2.476-3.132-5.157-4.182-7.839-1.082-2.766-1.537-6.25-2.08-9.183-.91-4.914-1.003-9.497-.946-14.564.052-4.576.932-9.212 1.156-13.807.295-6.05 1.782-12.312 3.762-17.968"/><path stroke="#171717" stroke-linecap="round" stroke-width="2" d="M45.371 118.926c1.176-1.176 2.322-2.462 3.623-3.496.508-.403.943-.891 1.465-1.278.453-.335 1.042-.694 1.352-1.175.679-1.053 1.315-2.019 2.277-2.857.888-.774 1.313-1.673 1.971-2.61.853-1.214 2.181-2.122 3.225-3.166.273-.273.598-.551.998-.551.278 0 .658.436.841.619.467.467.954 1.05 1.328 1.593.787 1.146 2.002 2.007 3.097 2.832.537.405 1.03.902 1.612 1.239.58.335 1.196.62 1.79.929 1.677.873 2.893 2.49 4.474 3.496.386.245.822.38 1.15.708.23.229.508.466.797.619.265.141.442.357.727.462.2.074.493.228.644.379.519.518 1.398.71 1.992 1.106M78.734 117.156a30.563 30.563 0 0 1 3.89-3.318c.447-.319.817-.715 1.263-1.038.469-.34.993-.744 1.357-1.199.623-.78.992-1.739 1.588-2.542.872-1.176 1.663-2.371 2.704-3.412 1.01-1.01 1.827-2.442 3.004-3.269.94-.662 1.959-1.219 2.969-1.77 1.39-.758 2.887-1.162 4.199-2.036M99.793 98.219c.981.178 1.556 2.157 2.035 2.876.802 1.202 1.59 2.103 2.744 2.964.69.516 1.353 1.084 2.015 1.633.682.564 1.399 1.096 2.055 1.691 1.165 1.055 2.183 2.161 3.457 3.097 1.262.928 2.57 1.788 3.78 2.783.964.792 1.702 1.688 2.404 2.699.304.436.683.667 1.072 1.018.335.301.754.736 1.146.953a7.11 7.11 0 0 0 1.239.551"/><path stroke="#C6C6C8" stroke-linecap="round" stroke-width="5" d="M97.091 168.528c.907 0 2.409-.179 2.982.728.257.407.315.824.454 1.293.063.211.261 1.133.091 1.324-.015.017.19-.392.223-.525.101-.417.117-.772-.202-1.092-.518-.518-3.028 3.132-3.612 2.743-.875-.584-.047-4.016-1.027-4.016"/><path stroke="#171717" stroke-linecap="round" stroke-width="3" d="M97.469 169.142c-.401 0-.804-.017-1.205 0-.541.022-.002 1.496.128 1.794.965 2.203 2.574.525 3.529-.897.632-.941-1.742-2.027-2.1-2.039-.59-.019-.79.837-.79 1.631M108.721 140.571c-.201 0-.402-.008-.603 0-.27.011-.001.748.064.897.483 1.101 1.287.262 1.765-.449.316-.47-.871-1.013-1.05-1.019-.295-.01-.395.418-.395.816"/><path stroke="#171717" stroke-linecap="round" stroke-width="2" d="M133.448 188.842c1.796 0 2.911-1.533 3.541-3.182.189-.497.399-2.087.399-1.551 0 .758-.026 1.521 0 2.279.053 1.576 1.343 2.126 2.523 2.576.357.136 1.068.12 1.326.337.146.122.143.027-.148.027-.328 0-.715-.074-1.036-.149-.458-.106-1.24-.252-1.622.149-.544.57-.748 1.475-1.133 2.158-.398.705-.779 1.658-.837 2.481-.019.264-.116 1.157-.116.404 0-1.22.423-2.369.463-3.56.019-.535.045-.994-.347-1.362-.811-.76-2.12-.607-3.129-.607"/><path stroke="#171717" stroke-linecap="round" stroke-width="3" d="m124 118 16.884 8.939c.07.037.156.029.219-.021L151 119"/><path stroke="#171717" stroke-linecap="round" stroke-width="2" d="M122.74 119.709c.932-.843 2.128-1.414 3.14-2.163 1.098-.813 2.115-1.681 3.14-2.582 1.764-1.55 3.782-2.782 5.652-4.204 1.484-1.129 2.872-2.319 4.047-3.768.266-.328.439-.932.82-1.134.262-.139.965 1.163 1.099 1.361 1.018 1.498 2.27 2.813 3.262 4.326.838 1.277 1.678 2.535 2.582 3.768 1.292 1.762 3.18 3.115 4.832 4.518 1.087.923 2.289 1.703 3.332 2.669.288.266.902.339 1.064.663M157.281 124.576c1.123-2.042 3.219-3.564 4.789-5.251.956-1.027 1.914-2.079 2.904-3.07.55-.549 1.241-.945 1.788-1.491.818-.818 2.02.745 2.626 1.256 1.74 1.468 3.585 2.804 5.32 4.282 1.174 1 2.54 2.253 4.012 2.783 1.502.54 2.941 1.218 4.431 1.77.305.113.983.593 1.134.82"/><path stroke="#171717" stroke-linecap="round" stroke-width="2" d="M182.244 125.832c1.807-3.614 4.346-6.805 6.053-10.484 1.05-2.263 1.622-4.579 3.123-6.62 1.038-1.411 1.935-2.784 2.372-4.492.323-1.26.603-2.61 1.012-3.838M124.469 120.494c1.47 0 3.105 1.422 4.396 2.032 1.705.805 3.545 1.275 5.259 2.05 1.865.842 3.919 1.066 5.809 1.805.755.296.933.317 1.544-.288 1.404-1.387 2.755-2.841 3.838-4.5.819-1.256 1.938-2.513 3.14-3.419.537-.405.904-.929 1.448-1.291"/><path stroke="#171717" stroke-linecap="round" stroke-width="3" d="m66 145 10 11m0 0 11-11m-11 11v-16m0 16 10.917 17.864a.2.2 0 0 0 .234.086L96 171M148 173l7.93-9.913a.2.2 0 0 1 .181-.073l7.716.964a.2.2 0 0 0 .218-.147L168 149"/><path stroke="#171717" stroke-linecap="round" stroke-width="2" d="M148.609 174.296c0-2.226.449-4.29 1.267-6.363.658-1.665 2.07-2.824 2.842-4.369.777-1.553 2.843-1.677 4.294-1.677 1.614 0 3.584.328 5.18-.037.144-.033.957-.083.997-.224.23-.805.651-1.548 1.053-2.291 1.147-2.125 2.43-4.274 3.987-6.13.564-.673 1.046-1.419 1.668-2.041.217-.217.554-.428.68-.68M63.928 144.973c.15.55.878 1.009 1.271 1.355a78.864 78.864 0 0 1 3.565 3.293c1.743 1.73 3.389 3.631 5.368 5.097 1.201.89 2.589 1.809 3.491 3.012"/><path stroke="#171717" stroke-linecap="round" stroke-width="2" d="M77.06 139.344c0 3.916.444 8.118-.043 12.007-.226 1.811-1.083 3.39-1.083 5.253M76.871 156.791c3.432-.78 6.504-4.255 8.484-6.983.73-1.006 1.59-2.151 2.585-2.918.394-.304.723-.549.938-.98M76.309 156.605c.953 1.041 1.756 2.227 2.626 3.336 1.174 1.495 2.515 2.832 3.658 4.356 1.052 1.402 2.022 3.233 3.43 4.315 1.16.892 1.25 2.71 2.292 3.752M87.19 174.802c2.484 0 5.137-.974 7.316-2.064"/></svg>