<svg xmlns="http://www.w3.org/2000/svg" width="240" height="240" fill="none"><path fill="#fff" stroke="#fff" stroke-width="16" d="M121.076 218.742c47.491 0 85.544-39.715 85.544-88.146 0-23.98-9.31-51.134-24.158-72.344-14.741-21.058-36.237-37.97-61.386-37.97-25.15 0-46.645 16.912-61.386 37.97-14.848 21.21-24.159 48.364-24.159 72.344 0 48.431 38.053 88.146 85.545 88.146Z"/><path stroke="#FFD424" stroke-linecap="round" stroke-width="2.954" d="M167.332 99.333c0 .598.293-1.163.508-1.721.303-.786.753-1.743 1.472-2.243.168-.117.403-.122.597-.184.58-.186 1.065-.394 1.608-.672.298-.153.559-.349.847-.513.017-.01-.308.705-.395.884-.545 1.116-1.061 2.245-1.458 3.424-.275.816-.674 1.689-.79 2.548-.048.354-.019.725-.019 1.082 0 .393.188-.383.23-.475.571-1.247 1.387-2.446 2.394-3.381.469-.435 1.227-1.064 1.904-1.115.225-.016.453-.004.678-.004.173 0-.266.546-.334.667-.702 1.246-1.315 2.52-1.773 3.875-.13.385-.221.726-.221 1.129"/><path stroke="#171717" stroke-linecap="round" stroke-width="3" d="M170.108 97.79c-.646 0-1.295-.017-1.942 0-.872.025-.003 1.62.206 1.942 1.556 2.385 4.149.568 5.688-.97 1.018-1.02-2.808-2.194-3.383-2.207-.951-.021-1.275.906-1.275 1.765"/><path stroke="#C6C6C8" stroke-linecap="round" stroke-width="5" d="M44.75 129.139v5.179c0 .774-.126 1.813.263 2.528.87 1.601 1.673 3.293 2.455 4.943 1.687 3.562 2.38 7.42 3.9 11.048.45 1.075 1.11 1.971 1.627 3.007a37.509 37.509 0 0 1 1.615 3.794c1.365 3.712 1.778 7.658 3.847 11.094 1.257 2.089 3.053 4.137 5.147 5.436.666.413 1.349.826 2.061 1.155.497.231 1.067.187 1.536.499M66.613 178.885c.131.654.994 1.488 1.418 1.982.393.459.83.884 1.241 1.326.954 1.028 2.13 1.559 3.394 2.127 1.447.651 3.137 1.337 4.169 2.606.786.968 1.912 2.542 3.13 2.948M161.168 178.639c-.958.766-2.291 1.119-3.285 1.932-.75.613-1.531 1.098-2.361 1.588-2.494 1.474-4.836 3.237-7.299 4.776-5.356 3.348-11.649 5.909-17.924 6.537-4.485.449-9.527 1.004-13.996.236-2.206-.379-4.457-.517-6.612-1.159-1.867-.556-3.684-1.228-5.527-1.825-2.873-.929-5.598-1.923-8.33-3.209-2.406-1.133-5.181-1.727-7.502-2.887M90.07 184.242c-.93 0-1.794.009-2.704-.193-1.428-.317-2.421-1.525-3.66-2.222-.579-.325-.798-1.059-1.363-1.341-.959-.48-1.858-1.171-2.716-1.857-2.066-1.653-4.34-4.256-5.398-6.709-1.011-2.341-2.194-5.068-4.444-6.418M137.789 198.152c2.731 0 5.804.479 8.308-.773 1.272-.637 2.52-1.389 3.745-2.115.403-.238 1.231-.503 1.482-.88.806-1.209 3.114-1.001 4.239-1.792.673-.473 2.898-1.432 2.898-2.362M141.847 208.778c-1.88 0-4.153-.354-5.989.043-1.488.322-3.068.344-4.594.344-4.44 0-8.74 1.159-13.18 1.159-4.624 0-9.14-.174-13.717-.59-2.392-.218-4.535-.727-6.762-1.632-1.272-.516-2.37-1.353-3.67-1.835-.65-.241-1.09-.749-1.74-.966"/><path stroke="#C6C6C8" stroke-linecap="round" stroke-width="5" d="M43.325 124c0 5.423-1.997 10-.887 19.932a89.164 89.164 0 0 0 3.888 11.793c1.066 2.61 2.005 5.374 3.38 7.863 1.183 2.138 3.166 4.091 4.154 6.207 2.108 4.515 5.696 7.283 8.79 10.966 1.59 1.891 3.938 3.772 5.748 5.494 2.065 1.966 4.186 4.676 6.52 6.3 4.275 2.973 7.696 6.214 12.51 8.506 2.075.987 4.664 1.596 6.955 1.839 3.105.328 5.704 1.762 8.694 2.575 12.421 3.378 25.417 2.391 38.253 2.391"/><path stroke="#C6C6C8" stroke-linecap="round" stroke-width="5" d="M139.559 207.603h5.332c.646 0 1.057-.055 1.645-.341 1.538-.747 2.947-1.398 4.557-2.042 1.091-.437 2.141-1.301 3.111-1.957 1.255-.849 2.665-1.553 3.867-2.468 1.411-1.074 3.102-1.78 4.462-2.893 1.443-1.181 3.255-1.764 4.68-2.978 1.379-1.174 2.215-2.61 3.357-3.999 1.549-1.886 2.966-3.938 4.651-5.702 1.79-1.873 3.85-3.416 5.522-5.398 1.144-1.356 2.112-2.846 3.233-4.217 1.436-1.755 2.272-3.855 3.413-5.796 1.168-1.985 2.455-3.787 3.395-5.909.353-.796.851-1.861.851-2.76M191.637 161.144c0-2.714.689-4.719 1.787-7.157.951-2.114 2.137-4.376 2.637-6.628.614-2.76.565-5.564.984-8.339.275-1.823.378-3.594.378-5.446"/><path stroke="#C6C6C8" stroke-linecap="round" stroke-width="5" d="M198.328 133c0 2.28-2.633 5.026-3.422 7.21-.829 2.297-1.732 4.547-2.344 6.911-.631 2.433-2.015 4.464-2.894 6.779-.987 2.604-2.165 4.995-3.819 7.242-1.418 1.927-2.195 3.913-3.026 6.127-.422 1.126-.896 2.183-1.399 3.271-1.168 2.527-2.806 4.532-4.5 6.741-1.352 1.763-2.668 3.244-4.435 4.614-1.179.915-2.335 1.769-3.394 2.827-1.473 1.474-2.878 3.03-4.349 4.501M164.748 189.395c-.648.38-1.08 1.25-1.617 1.786a57.227 57.227 0 0 1-2.893 2.723c-1.677 1.461-3.645 2.699-5.531 3.867-2.71 1.68-5.733 2.818-8.594 4.217-3.121 1.526-6.235 3.354-9.521 4.5-6.032 2.105-12.423 2.988-18.805 2.988-1.483 0-3.221-.202-4.642-.643-1.041-.323-2.18-.21-3.196-.548"/><path stroke="#C6C6C8" stroke-linecap="round" stroke-width="5" d="M141.092 202.327c-4.706 0-9.35.249-13.955 1.191-2.736.56-5.416 1.315-8.169 1.835-3.454.652-6.701.505-10.041-.511-3.871-1.178-7.084-3.4-10.646-5.2-2.81-1.42-5.61-2.821-8.414-4.255-2.834-1.449-4.31-3.871-6.505-6.032-.551-.542-5.456-5.19-5.238-5.408"/><path stroke="#C6C6C8" stroke-linecap="round" stroke-width="5" d="M82.72 189.904c-.95-.095-1.92-1.311-2.628-1.854-1.573-1.204-3.093-2.392-4.567-3.725-2.854-2.579-5.06-5.572-7.44-8.547-.983-1.228-1.841-2.609-2.723-3.914-1.298-1.919-2.76-3.686-4.217-5.483-1.069-1.32-2.06-2.798-2.76-4.35-.703-1.555-1.01-3.19-1.532-4.803-.48-1.482-.985-2.956-1.532-4.415-.495-1.319-1.35-2.504-2.033-3.734-.696-1.254-1.227-2.862-1.541-4.274-.254-1.141-1.021-1.826-1.021-3.063 0-1.188.044-2.679-.851-3.574M49.702 138.169c0-3.637.442-7.209-1.229-10.552-.9-1.799-2.568-3.392-3.196-5.275M198.269 133.547c0 1.39-1.756 3.028-2.132 4.371-.482 1.721-1.957 3.153-2.712 4.766-2.127 4.545-4.076 9.189-6.412 13.628-3.923 7.452-9.408 13.903-14.365 20.645-1.706 2.32-3.658 4.376-5.53 6.544-1.403 1.625-3.382 2.772-4.924 4.266-4.141 4.011-9.298 8.075-14.799 9.953-2.99 1.021-5.885 1.961-8.954 2.607-1.863.393-7.592.527-5.687.527"/><path stroke="#C6C6C8" stroke-linecap="round" stroke-width="5" d="M133.227 199.669c-3.562 0-6.801-.218-10.31-.817-3.212-.548-6.351-.605-9.598-.605-3.307 0-6.563-.024-9.849-.251-3.54-.244-6.234-2.876-9.058-4.674-5.073-3.228-8.458-8.641-13.272-12.192-3.26-2.405-5.126-6.193-7.992-8.953-1.311-1.263-2.407-2.728-3.674-4.029-.42-.433-2.348-1.666-1.659-1.896M68.53 166.253c-.39-.049-.668-1.097-.83-1.422a50.487 50.487 0 0 0-1.765-3.2c-.988-1.668-1.744-3.542-2.91-5.095-2.97-3.96-5.632-7.763-7.188-12.574-.886-2.738-1.813-5.734-3.66-7.992-1.496-1.829-2.966-3.404-3.911-5.609-.632-1.474-1.636-2.991-2.488-4.345-.586-.93-.806-1.972-1.422-2.897"/><path stroke="#C6C6C8" stroke-linecap="round" stroke-width="5" d="M197.328 137c0 3.288-4.596 8.594-6.982 10.648-4.176 3.596-7.509 8.288-10.994 12.548-1.476 1.804-2.638 3.918-3.963 5.833-2.121 3.063-4.981 5.96-7.9 8.268-3.238 2.561-6.798 4.811-9.849 7.584-2.741 2.493-5.858 4.547-8.532 7.123-3.027 2.918-7.305 5.014-11.244 6.399-2.765.973-5.309 1.807-8.189 2.37-2.852.558-5.865.688-8.769.711-2.449.02-4.898 0-7.347 0-1.189 0-2.424.14-3.555-.237"/><path stroke="#C6C6C8" stroke-linecap="round" stroke-width="5" d="M127.54 195.403c-7.716 0-15.483.377-23.121-.896-5.766-.96-10.993-3.115-16.234-5.635-2.349-1.129-4.284-2.447-6.096-4.318-1.328-1.372-2.319-3.182-3.515-4.688-1.633-2.053-3.819-3.547-5.254-5.793-.466-.729-.835-1.502-1.237-2.265-.284-.537-.386-.478.237-.105"/><path stroke="#C6C6C8" stroke-linecap="round" stroke-width="5" d="M73.445 169.403c1.405 0 2.79 2.982 3.742 3.934 2.768 2.768 6.516 4.211 10.075 5.661 5.85 2.383 11.12 5.915 17.08 8.06 3.925 1.413 8.142 1.683 12.281 2.005 4.348.338 8.709.418 13.039.959 2.58.323 5.279.335 7.879.299 1.796-.025 3.394-.952 4.84-1.962 1.648-1.151 3.347-2.206 4.99-3.369 3.444-2.438 6.414-5.368 9.403-8.337 3.169-3.148 6.371-6.194 9.894-8.934 1.743-1.356 3.647-2.253 5.565-3.305 1.12-.614 2.168-1.26 3.305-1.813.613-.298 1.166-.646 1.833-.831.964-.268.791-.835.853-1.77"/><path stroke="#C6C6C8" stroke-linecap="round" stroke-width="5" d="M101.078 183.796c2.268 0 4.558-.095 6.823.01 2.497.117 4.995.639 7.463.992 3.9.557 7.968.917 11.909.917 2.698 0 5.12-.558 7.761-1.045 2.619-.482 5.182-.49 7.836-.49 2.151 0 4.697.397 6.76-.192 1.395-.399 2.805-1.68 3.987-2.495 1.857-1.281 3.658-3.032 5.032-4.798"/><path stroke="#171717" stroke-width="3" d="M198.62 130.596c0 44.263-34.718 80.146-77.544 80.146-42.827 0-77.545-35.883-77.545-80.146 0-44.264 34.718-102.315 77.545-102.315 42.826 0 77.544 58.051 77.544 102.315Z"/><path stroke="#171717" stroke-linecap="round" stroke-linejoin="round" stroke-width="3" d="m44.328 121 16-16 16 16 16-16 6-6 22 22"/><path stroke="#171717" stroke-linecap="round" stroke-width="2" d="M43.732 120.22c0-3.801-1.132-6.82.059-10.403.968-1.397 1.638-3.68 2.27-5.295.737-1.885 1.743-3.676 2.648-5.485 2.058-4.117 3.995-8.384 5.673-12.673 1.515-3.87 2.84-7.974 5.107-11.537 4.448-6.99 8.274-14.481 14.08-20.511 2.654-2.756 5.521-5.143 8.238-7.86 2.107-2.106 4.164-4.213 6.515-6.052 2.825-2.211 6.097-3.826 8.91-6.053 3.584-2.837 7.381-4.75 11.831-5.863 3.898-.974 8.791-.189 12.819-.189 3.88 0 7.591-.104 11.37.946 4.197 1.166 6.81 3.216 10.213 5.863 5.546 4.314 11.145 8.677 16.181 13.534 2.511 2.421 5.377 4.643 7.944 6.977 1.211 1.101 2.196 2.403 3.572 3.32.965.644 3.195 1.856.673 1.135M173.457 57.315c0 2.336 3.066 5.496 4.161 7.565 1.272 2.402 2.916 4.705 3.867 7.271 1.671 4.513 4.556 8.59 6.535 12.946 1.937 4.26 3.807 8.522 5.107 13.071.711 2.49 1.521 4.832 1.912 7.377.306 1.984.444 4.251 1.03 6.157 1.267 4.119 1.975 8.918 1.975 13.24 0 4.31.757 8.782.757 13.134 0 1.983.41 4.492-.021 6.431-.295 1.329-1.492 2.838-1.492 4.161"/><path stroke="#171717" stroke-linecap="round" stroke-width="2" d="M198.043 144.211c0 8.146-3.154 14.834-6.808 21.94-4.237 8.237-7.534 16.855-15.425 22.318-3.108 2.152-5.917 4.742-9.079 6.809-1.258.823-2.999 2.159-4.056 3.215-1.192 1.193-2.723 1.777-3.972 2.838-1.266 1.076-3.572 1.587-5.106 2.269-1.551.689-3.207 1.041-4.813 1.597-3.192 1.105-6.334 1.949-9.561 2.943"/><path stroke="#171717" stroke-linecap="round" stroke-width="2" d="M140.925 208.141h-5.212c-1.701 0-4.504-.016-6.136.567-3.196 1.141-7.038.442-10.297 1.408-2.308.684-5.454.673-7.86.673-1.954 0-3.809.093-5.695-.379-2.023-.505-3.828-1.393-5.653-2.353-1.635-.861-3.528-1.783-5.086-2.774-3.19-2.031-7.122-3.425-10.717-4.624-1.719-.573-4.128-1.793-5.674-2.732-2.148-1.304-4.315-2.344-6.305-3.972-3.397-2.779-6.892-6.857-8.91-10.781-1.53-2.975-4.087-5.18-5.863-7.943-.368-.572-3.007-3.405-2.837-3.405"/><path stroke="#171717" stroke-linecap="round" stroke-width="2" d="M56.57 174.583c-1.168-1.461-1.833-3.974-2.731-5.674-1.389-2.629-3.283-5.174-4.813-7.755-1.467-2.476-3.132-5.157-4.182-7.839-1.082-2.766-1.537-6.25-2.08-9.183-.91-4.914-1.003-9.497-.946-14.564.052-4.576 1.652-9.212 1.876-13.807.295-6.05 2.502-12.312 4.482-17.968"/><path stroke="#171717" stroke-linecap="round" stroke-width="2" d="M44.703 118.926c1.176-1.176 2.322-2.462 3.623-3.496.508-.403.943-.891 1.466-1.278.452-.335 1.041-.694 1.352-1.175.678-1.053 1.314-2.019 2.276-2.857.889-.774 1.313-1.673 1.971-2.61.853-1.214 2.181-2.122 3.225-3.166.273-.273.598-.551.998-.551.278 0 .658.436.841.619.467.467.954 1.05 1.328 1.593.787 1.146 2.002 2.007 3.097 2.832.537.405 1.03.902 1.612 1.239.58.335 1.196.62 1.79.929 1.678.873 2.893 2.49 4.474 3.496.386.245.822.38 1.15.708.23.229.508.466.797.619.265.141.442.357.727.462.2.074.493.228.644.379.519.518 1.398.71 1.992 1.106M78.066 117.156a30.563 30.563 0 0 1 3.89-3.318c.447-.319.817-.715 1.263-1.038.469-.34.993-.744 1.357-1.199.623-.78.992-1.739 1.588-2.542.872-1.176 1.663-2.371 2.704-3.412 1.01-1.01 1.827-2.442 3.004-3.269.94-.662 1.959-1.219 2.969-1.77 1.39-.758 2.887-1.162 4.199-2.036M99.125 98.219c.981.178 1.556 2.157 2.035 2.876.802 1.202 1.59 2.103 2.744 2.964.69.516 1.353 1.084 2.015 1.633.682.564 1.399 1.096 2.055 1.691 1.165 1.055 2.183 2.161 3.457 3.097 1.262.928 2.57 1.788 3.78 2.783.964.792 1.702 1.688 2.404 2.699.304.436.683.667 1.072 1.018.335.301.754.736 1.146.953a7.11 7.11 0 0 0 1.239.551"/><path stroke="#FFD424" stroke-linecap="round" stroke-width="7.255" d="M139.137 149.324c0 .687.334-1.336.58-1.977.347-.902.861-2.002 1.683-2.576.192-.134.46-.139.682-.211.663-.213 1.218-2.749 1.839-3.069.34-.175.639-.4.967-.589.02-.011-.351.81-.451 1.016-.623 1.282-1.212 4.876-1.666 6.229-.315.937-.771 1.94-.904 2.927-.054.407-.021.832-.021 1.242 0 .452.215-.44.263-.546.653-1.432 1.585-2.809 2.736-3.883.536-.5 1.403-1.222 2.178-1.28.256-.019.517-.005.774-.005.198 0-.304.627-.382.767-.803 1.431-1.503 5.191-2.027 6.747-.148.442-.252.833-.252 1.296"/><path stroke="#171717" stroke-linecap="round" stroke-width="2" d="M133.605 148.895c4.232 0 6.86-3.45 8.344-7.161.448-1.118.941-4.694.941-3.489 0 1.705-.061 3.423 0 5.128.127 3.547 3.166 4.784 5.947 5.795.841.306 2.516.271 3.126.759.344.275.335.061-.349.061-.775 0-1.686-.166-2.443-.334-1.079-.24-2.922-.568-3.823.334-1.282 1.282-1.763 3.319-2.67 4.854-.938 1.587-1.836 3.733-1.973 5.584-.044.593-.273 2.604-.273.91 0-2.746.997-5.331 1.093-8.011.043-1.203.105-2.237-.82-3.064-1.91-1.71-4.995-1.366-7.373-1.366M99.448 60.176c1.796 0 2.911-1.533 3.541-3.182.189-.498.399-2.087.399-1.551 0 .758-.026 1.521 0 2.279.053 1.576 1.343 2.126 2.523 2.576.357.136 1.068.12 1.326.337.146.122.143.027-.148.027-.328 0-.715-.074-1.036-.149-.458-.106-1.24-.252-1.622.149-.544.57-.748 1.475-1.133 2.157-.398.706-.779 1.66-.837 2.482-.019.264-.116 1.157-.116.404 0-1.22.423-2.369.463-3.56.019-.535.045-.994-.347-1.362-.811-.76-2.12-.607-3.129-.607"/><path fill="#fff" fill-rule="evenodd" stroke="#fff" stroke-linecap="round" stroke-width="16" d="M22.459 179.246a3.322 3.322 0 0 0-.459 1.689c0 .121.003.323.027.546a3.641 3.641 0 0 0 .112.581c.038.141.242.894.926 1.543a3.34 3.34 0 0 0 3.94.493c-.062.737-.043 1.524-.032 1.995.004.133.006.241.006.315v.014c0 .114-.004.646.178 1.212a3.36 3.36 0 0 0 2.13 2.165c2 .672 3.34-.705 3.483-.853.132-.135.24-.27.326-.39a3.335 3.335 0 0 0 6.596-.686c0-.305.056-.614.288-1.303.868-2.564 2.037-5.017 3.421-7.483l.094-.133.003-.006c.097-.137.255-.362.403-.593l.002-.003c.103-.163.391-.616.57-1.15a.143.143 0 0 1 .005-.012c.061-.183.36-1.067.048-2.126a3.398 3.398 0 0 0-3.277-2.438l-.21-.003a17.365 17.365 0 0 0-1.46.022c-.51.037-.995.141-1.448.282a62.468 62.468 0 0 0 .747-1.648c.034-.078.077-.179.114-.273v-.002c.013-.033.057-.145.098-.28v-.002a3.34 3.34 0 0 0-.258-2.581 3.337 3.337 0 0 0-4.582-1.3c-.337.192-.665.404-.907.559a4.99 4.99 0 0 1-.116.074c-.28.18-.46.289-.622.372-.99.508-1.834.868-2.837 1.192a.29.29 0 0 1-.029.006l-.003.001c-.03.006-.256.052-.37.078-.308.069-1.048.244-1.777.751-2.435 1.693-3.673 4.627-4.299 6.248-.298.773-.594 2.083-.776 2.884l-.055.243Zm15.838-4.506a.258.258 0 0 1 0 0Z" clip-rule="evenodd"/><path fill="#FFD424" fill-rule="evenodd" d="M22.459 179.246a3.322 3.322 0 0 0-.459 1.689c0 .121.003.323.027.546a3.641 3.641 0 0 0 .112.581c.038.141.242.894.926 1.543a3.34 3.34 0 0 0 3.94.493c-.062.737-.043 1.524-.032 1.995.004.133.006.241.006.315v.014c0 .114-.004.646.178 1.212a3.36 3.36 0 0 0 2.13 2.165c2 .672 3.34-.705 3.483-.853.132-.135.24-.27.326-.39a3.335 3.335 0 0 0 6.596-.686c0-.305.056-.614.288-1.303.868-2.564 2.037-5.017 3.421-7.483l.094-.133.003-.006c.097-.137.255-.362.403-.593l.002-.003c.103-.163.391-.616.57-1.15a.143.143 0 0 1 .005-.012c.061-.183.36-1.067.048-2.126a3.398 3.398 0 0 0-3.277-2.438l-.21-.003a17.365 17.365 0 0 0-1.46.022c-.51.037-.995.141-1.448.282a62.468 62.468 0 0 0 .747-1.648c.034-.078.077-.179.114-.273v-.002c.013-.033.057-.145.098-.28v-.002a3.34 3.34 0 0 0-.258-2.581 3.337 3.337 0 0 0-4.582-1.3c-.337.192-.665.404-.907.559a4.99 4.99 0 0 1-.116.074c-.28.18-.46.289-.622.372-.99.508-1.834.868-2.837 1.192a.29.29 0 0 1-.029.006l-.003.001c-.03.006-.256.052-.37.078-.308.069-1.048.244-1.777.751-2.435 1.693-3.673 4.627-4.299 6.248-.298.773-.594 2.083-.776 2.884l-.055.243Zm15.838-4.506Z" clip-rule="evenodd"/><path fill="#171717" d="M29.646 178.93a62.132 62.132 0 0 1 2.365-.007c.215-1.237.88-2.307 2.273-2.276 1.063.024 8.132 2.195 6.25 4.077-2.843 2.844-7.634 6.2-10.508 1.794-.387-.595-1.992-3.543-.38-3.588Z"/><path stroke="#171717" stroke-linecap="round" stroke-width="2" d="M33.233 178.93c-1.194 0-2.393-.033-3.587 0-1.612.045-.007 2.993.38 3.588 2.874 4.406 7.665 1.05 10.508-1.794 1.882-1.882-5.187-4.053-6.25-4.077-1.757-.039-2.355 1.673-2.355 3.262"/><mask id="a" width="53" height="57" x="163.332" y="7" fill="#000" maskUnits="userSpaceOnUse"><path fill="#fff" d="M163.332 7h53v57h-53z"/><path fill-rule="evenodd" d="M187.232 31.548a.058.058 0 0 1 .026-.013l.032-.006a.034.034 0 0 1 .038.047 46.808 46.808 0 0 0-1.185 3.1 42.42 42.42 0 0 1-.483 1.331c-.15.4-.311.833-.465 1.27-.331.947-.666 2.036-.822 3.18-.103.758-.082 1.64-.069 2.21.004.153.007.283.007.382v.013c0 .107-.002.524.14.96a2.524 2.524 0 0 0 1.606 1.627c1.49.498 2.493-.519 2.607-.636.249-.256.389-.509.435-.592.064-.118.112-.224.143-.296.061-.144.111-.288.147-.393.067-.198.134-.422.179-.573l.01-.034.029-.097a.481.481 0 0 1 .024-.064c.289-.614.609-1.22.956-1.808.137-.23.455-.069.368.185-.304.892-.598 1.91-.598 3.16a2.5 2.5 0 1 0 5 0c0-.432.088-.835.331-1.547.892-2.617 2.091-5.108 3.501-7.597l.118-.166.001-.002c.097-.137.246-.348.384-.561a4.586 4.586 0 0 0 .491-.978c.05-.147.282-.828.041-1.637a2.564 2.564 0 0 0-2.477-1.836l-.262-.003c-.355-.006-.888-.014-1.344.02-.461.033-.903.13-1.319.263-.6.193-1.284-.444-1.006-1.01a48.862 48.862 0 0 0 .896-1.974c.011-.029.046-.118.078-.223l.001-.001a2.54 2.54 0 0 0 .107-.92 2.501 2.501 0 0 0-3.729-2.003 19.846 19.846 0 0 0-.987.607c-.283.18-.492.306-.691.408a19.023 19.023 0 0 1-2.996 1.245 1.922 1.922 0 0 1-.081.018l-.044.01c-.076.015-.226.045-.318.066-.285.064-.891.209-1.481.616-2.206 1.523-3.373 4.21-4.002 5.828-.275.706-.556 1.935-.741 2.743l-.068.297a.5.5 0 0 1-.065.156c-.23.378-.363.822-.363 1.298 0 .11.003.277.022.455.01.084.031.248.085.441l.002.01c.03.109.186.677.703 1.165a2.514 2.514 0 0 0 3.884-.54l.004-.007c.155-.257.24-.502.264-.574l.002-.004c.118-.34.241-.872.332-1.266l.001-.006.057-.246c.219-.945.411-1.775.541-2.11.597-1.535 1.261-2.768 2.003-3.388Zm-2.9 6.08c0 .005 0 .005 0 0Zm4.979 5.421v-.025c.003.058 0 .072 0 .025Zm6.223-11.205-.007.012a.11.11 0 0 0 .007-.012Zm-5.89 11.065-.007.022.007-.022Z" clip-rule="evenodd"/></mask><path fill="#fff" fill-rule="evenodd" d="M187.232 31.548a.058.058 0 0 1 .026-.013l.032-.006a.034.034 0 0 1 .038.047 46.808 46.808 0 0 0-1.185 3.1 42.42 42.42 0 0 1-.483 1.331c-.15.4-.311.833-.465 1.27-.331.947-.666 2.036-.822 3.18-.103.758-.082 1.64-.069 2.21.004.153.007.283.007.382v.013c0 .107-.002.524.14.96a2.524 2.524 0 0 0 1.606 1.627c1.49.498 2.493-.519 2.607-.636.249-.256.389-.509.435-.592.064-.118.112-.224.143-.296.061-.144.111-.288.147-.393.067-.198.134-.422.179-.573l.01-.034.029-.097a.481.481 0 0 1 .024-.064c.289-.614.609-1.22.956-1.808.137-.23.455-.069.368.185-.304.892-.598 1.91-.598 3.16a2.5 2.5 0 1 0 5 0c0-.432.088-.835.331-1.547.892-2.617 2.091-5.108 3.501-7.597l.118-.166.001-.002c.097-.137.246-.348.384-.561a4.586 4.586 0 0 0 .491-.978c.05-.147.282-.828.041-1.637a2.564 2.564 0 0 0-2.477-1.836l-.262-.003c-.355-.006-.888-.014-1.344.02-.461.033-.903.13-1.319.263-.6.193-1.284-.444-1.006-1.01a48.862 48.862 0 0 0 .896-1.974c.011-.029.046-.118.078-.223l.001-.001a2.54 2.54 0 0 0 .107-.92 2.501 2.501 0 0 0-3.729-2.003 19.846 19.846 0 0 0-.987.607c-.283.18-.492.306-.691.408a19.023 19.023 0 0 1-2.996 1.245 1.922 1.922 0 0 1-.081.018l-.044.01c-.076.015-.226.045-.318.066-.285.064-.891.209-1.481.616-2.206 1.523-3.373 4.21-4.002 5.828-.275.706-.556 1.935-.741 2.743l-.068.297a.5.5 0 0 1-.065.156c-.23.378-.363.822-.363 1.298 0 .11.003.277.022.455.01.084.031.248.085.441l.002.01c.03.109.186.677.703 1.165a2.514 2.514 0 0 0 3.884-.54l.004-.007c.155-.257.24-.502.264-.574l.002-.004c.118-.34.241-.872.332-1.266l.001-.006.057-.246c.219-.945.411-1.775.541-2.11.597-1.535 1.261-2.768 2.003-3.388Zm-2.9 6.08c0 .005 0 .005 0 0Zm4.979 5.421v-.025c.003.058 0 .072 0 .025Zm6.223-11.205-.007.012a.11.11 0 0 0 .007-.012Zm-5.89 11.065-.007.022.007-.022Z" clip-rule="evenodd"/><path fill="#fff" d="M184.13 15.844c-8.663 1.745-14.27 10.182-12.525 18.845 1.745 8.662 10.182 14.27 18.845 12.525l-6.32-31.37Zm2.013 18.832-15.149-5.147 15.149 5.147Zm-.444 1.226-14.987-5.6 14.987 5.6Zm-.039.105 14.987 5.603-14.987-5.603Zm-.465 1.27-15.101-5.285 15.101 5.286Zm-.822 3.18-15.853-2.159 15.853 2.159Zm-.069 2.21-15.995.376 15.995-.376Zm.007.395 16 .066-16-.066Zm.14.96 15.216-4.946-15.216 4.947Zm.338.681 13.108-9.175-13.108 9.175Zm1.268.947-5.067 15.177 5.067-15.177Zm2.607-.637L177.211 33.84l11.453 11.173Zm.435-.592 14.037 7.678-14.037-7.678Zm.143-.296-14.724-6.262 14.724 6.262Zm.147-.393 15.161 5.114-15.161-5.114Zm.179-.573 15.332 4.573-15.332-4.573Zm.01-.034 15.331 4.578-15.331-4.578Zm-13.767-6.946c-2.851 8.364 1.618 17.456 9.982 20.306 8.364 2.851 17.456-1.618 20.307-9.983L175.811 36.18Zm19.877 6.775 15.144 5.161-15.144-5.161Zm3.501-7.597-12.89-9.478-.562.765-.468.826 13.92 7.887Zm.118-.166 13.05 9.257.004-.006-13.054-9.251Zm.001-.002-13.05-9.257-.005.006 13.055 9.251Zm.384-.561-13.467-8.64 13.467 8.64Zm.488-.969-15.157-5.123h-.001l15.158 5.123Zm.003-.009-15.148-5.15-.002.004 15.15 5.146Zm.041-1.637-15.335 4.565 15.335-4.565Zm-1.084-1.435 8.567-13.512-8.567 13.512Zm-1.655-.404-.25 15.998.25-15.998Zm-1.344.02 1.173 15.956-1.173-15.957Zm12.033 6.313c3.9-7.93.632-17.519-7.297-21.418-7.93-3.9-17.519-.633-21.419 7.297l28.716 14.121Zm-13.827-8.2-14.57-6.611 14.57 6.61Zm.262-.587-14.684-6.355 14.684 6.355Zm.103-.247 14.889 5.857-14.889-5.857Zm0 0-14.889-5.858h-.001l14.89 5.857Zm.078-.223 15.29 4.715.001-.002-15.291-4.713Zm.001-.001 15.237 4.882v-.001l-15.237-4.881Zm.1-.49-15.916-1.641 15.916 1.641Zm.007-.43-15.962 1.103 15.962-1.103Zm-.302-1.031-14.028 7.696 14.028-7.696Zm-1.916-1.282 1.768-15.902-1.768 15.901Zm-1.511.31-7.892-13.918 7.892 13.918Zm-.865.53 8.602 13.49-8.602-13.49Zm-.122.077 8.572 13.51-8.572-13.51Zm-.691.408 7.256 14.26-7.256-14.26Zm-2.996 1.245 3.859 15.528.505-.125.495-.158-4.859-15.245Zm-.081.018-3.284-15.659 3.284 15.66Zm-.044.01 3.174 15.681-3.174-15.682Zm-.318.066 3.493 15.614-3.493-15.614Zm-1.481.616 9.09 13.167-9.09-13.167Zm-4.002 5.828 14.912 5.798-14.912-5.798Zm-.741 2.743L164.231 32.3l15.597 3.567Zm15.52 3.907c1.994-8.609-3.369-17.204-11.977-19.198-8.609-1.994-17.204 3.369-19.198 11.977l31.175 7.22Zm-15.994-1.7-15.901 1.774 15.901-1.775Zm.085.44L164.023 42.8l15.416-4.285Zm.002.01-15.432 4.224 15.432-4.225Zm.703 1.165L169.17 51.33l10.974-11.642Zm1.556.678 1.064-15.964-1.064 15.964Zm1.504-.38-8.513-13.547 8.513 13.547Zm.824-.839-13.711-8.246h-.001l13.712 8.246Zm.004-.006 13.695 8.273.001-.002-13.696-8.271Zm.264-.574-15.123-5.223 15.123 5.223Zm.002-.004-15.122-5.23-.001.006 15.123 5.224Zm.332-1.266-15.587-3.61 15.587 3.61Zm.001-.006 15.588 3.61-15.588-3.61Zm.057-.246L169.1 33.442l15.588 3.604Zm.541-2.11-14.912-5.799 14.912 5.799Zm4.082 8.088 15.978-.848-31.978.862 16-.014Zm6.216-11.168-14.176-7.418 28.031 15.42-13.855-8.002Zm-5.883 11.053-15.915-1.645-.001.01-.001.009 15.917 1.626Zm-.007.022-15.231-4.903 30.319 10.228-15.088-5.325Zm10.692-5.633c-.183-8.835-7.492-15.85-16.327-15.667-8.835.182-15.849 7.492-15.667 16.327l31.994-.66Zm-20.634-.978 13.667 8.32-13.667-8.32Zm15.127-5.863-4.893-15.234 4.893 15.234Zm-1.006-1.01-14.358-7.06 14.358 7.06Zm-6.558 2.088 3.173 15.682h.001l-3.174-15.682Zm-.026.013 10.268 12.27-10.268-12.27Zm3.355 9.608 13.775 8.14-13.775-8.14Zm.368.185-15.144-5.162 15.144 5.162Zm-1.348 1.687 15.317 4.623-15.317-4.623Zm.024-.064 14.481 6.805-14.481-6.805Zm-2.303-11.388-14.745-6.212 14.745 6.212Zm3.104 15.641h.004l.013-.003-6.318-31.37-.046.009 6.347 31.364Zm-17.849-21.853a62.946 62.946 0 0 0-1.589 4.165l30.299 10.295c.216-.636.474-1.31.78-2.036l-29.49-12.424Zm-1.589 4.165c-.044.128-.112.318-.282.773l29.975 11.2c.159-.425.387-1.035.606-1.678l-30.299-10.295Zm-.282.773-.039.102 29.974 11.206.04-.108-29.975-11.2Zm-.039.102c-.141.378-.361.966-.579 1.588l30.203 10.572c.089-.253.192-.53.35-.954l-29.974-11.206Zm-.579 1.588c-.454 1.296-1.202 3.573-1.574 6.306l31.707 4.318a3.959 3.959 0 0 1-.049.292c-.012.057-.02.082-.017.072a8.79 8.79 0 0 1 .136-.416l-30.203-10.572Zm-1.574 6.306c-.305 2.236-.219 4.408-.211 4.745l31.991-.752-.006-.306-.001-.078v-.025l-.001.038c-.001.024-.002.063-.006.117a7.957 7.957 0 0 1-.059.579l-31.707-4.318Zm-.211 4.745.001.052.001.042.001.029v.015c0 .003 0 .003 0 0v-.02l-.001-.042v-.07h32c0-.331-.009-.68-.011-.758l-31.991.752Zm.002.006v-.053l32 .132v-.079h-32Zm0-.053c-.001.409-.05 2.978.924 5.973l30.432-9.893c.38 1.17.52 2.144.581 2.749a12.095 12.095 0 0 1 .063 1.158v.145l-32-.132Zm.924 5.973a18.55 18.55 0 0 0 2.447 4.91l26.215-18.351a13.427 13.427 0 0 1 1.77 3.548l-30.432 9.893Zm2.447 4.91c1.421 2.03 4.335 5.287 9.308 6.948l10.133-30.354a13.477 13.477 0 0 1 6.774 5.055l-26.215 18.35Zm9.308 6.948c11.165 3.727 18.597-4.099 19.126-4.64L177.211 33.84a13.319 13.319 0 0 1 4-2.824c2.471-1.132 6.076-1.823 9.912-.543L180.99 60.827Zm19.126-4.64a18.682 18.682 0 0 0 3.02-4.088l-28.074-15.356c.192-.351.879-1.6 2.149-2.903l22.905 22.346Zm3.02-4.088c.405-.74.681-1.364.829-1.711l-29.447-12.525c.087-.205.268-.615.544-1.12l28.074 15.356Zm.829-1.711c.296-.695.497-1.281.585-1.542l-30.322-10.227a11.51 11.51 0 0 1 .29-.756l29.447 12.525Zm.585-1.542c.172-.512.318-1.006.35-1.114l-30.665-9.146-.015.05-.011.038-.014.044c-.002.009-.001.005.003-.008l.01-.032.02-.06 30.322 10.228Zm.35-1.114.009-.03-30.662-9.155-.012.04 30.665 9.145Zm.009-.03.015-.05-30.635-9.247-.042.142 30.662 9.156Zm-.797 2.067c.077-.163.161-.322.25-.472l-27.549-16.281a37.56 37.56 0 0 0-1.663 3.144l28.962 13.609Zm-28.301-13.59c-.505 1.48-1.454 4.457-1.454 8.321h32c0 1.364-.361 2.308-.257 2.002L175.811 36.18Zm-1.454 8.321c0 10.217 8.283 18.5 18.5 18.5V31c7.456 0 13.5 6.044 13.5 13.5h-32Zm18.5 18.5c10.217 0 18.5-8.283 18.5-18.5h-32c0-7.456 6.044-13.5 13.5-13.5v32Zm18.5-18.5c0 .992-.114 1.91-.282 2.691-.137.639-.279 1.03-.243.924l-30.289-10.323c-.432 1.27-1.186 3.645-1.186 6.708h32Zm-.525 3.615c.48-1.407 1.2-2.968 2.278-4.87L185.269 27.47c-1.742 3.074-3.422 6.496-4.726 10.322l30.289 10.323Zm1.248-3.28a8.097 8.097 0 0 0 .159-.22l.052-.073a.66.66 0 0 0 .031-.044l.035-.05-26.101-18.514-.076.108-.056.08-.015.02c-.004.006-.002.003.002-.002a.3.3 0 0 1 .012-.017l.025-.036.05-.07.041-.057.06-.081 25.781 18.956Zm.281-.393.001-.001-26.109-18.503-.001.002 26.109 18.502Zm-.003.005c.078-.111.434-.609.8-1.18l-26.933-17.28a5.845 5.845 0 0 1 .094-.142l-.013.018-.048.07 26.1 18.514Zm.8-1.18c.136-.21 1.349-2.027 2.18-4.486l-30.316-10.244c.309-.913.645-1.573.829-1.912.201-.371.377-.642.374-.637l26.933 17.28Zm2.18-4.485a.082.082 0 0 0-.005.015l-.001.001h.001v-.002l-30.3-10.292v.002a.228.228 0 0 0-.01.03l30.315 10.246Zm-.006.018c.308-.906 1.941-5.593.227-11.352l-30.67 9.13a13.332 13.332 0 0 1 .04-7.753c.028-.09.053-.168.074-.23l.032-.095 30.297 10.3Zm.227-11.352a18.565 18.565 0 0 0-7.852-10.383l-17.135 27.026a13.44 13.44 0 0 1-5.683-7.513l30.67-9.13Zm-7.852-10.383a18.596 18.596 0 0 0-9.96-2.888v32c-1.598 0-4.351-.295-7.175-2.086l17.135-27.026Zm-9.96-2.888h.087-.062l-.036-.001-.501 31.996c.054 0 .29.005.512.005v-32Zm-.011-.001c-.216-.004-1.476-.035-2.768.06l2.346 31.914a8.575 8.575 0 0 1-.307.017l-.053.002h-.007a5.343 5.343 0 0 1 .173.001l.115.002.501-31.996Zm-2.768.06c-1.919.141-3.616.53-5.039.987l9.786 30.467c-.591.19-1.404.387-2.401.46l-2.346-31.914Zm13.206 22.271c.23-.468.55-1.164.743-1.59l-29.14-13.22a44.58 44.58 0 0 1-.319.688c-.025.053-.022.046 0 .001l28.716 14.121Zm.743-1.59c.11-.242.25-.552.375-.842l-29.367-12.71c-.015.035-.065.148-.148.331l29.14 13.222Zm.375-.842c.048-.11.175-.403.309-.745l-29.779-11.713c.042-.107.073-.182.085-.21l.018-.042 29.367 12.71Zm.309-.745.001-.001-29.78-11.713 29.779 11.714Zm0 0c.043-.109.261-.658.479-1.364l-30.579-9.43a12.844 12.844 0 0 1 .284-.823l.026-.07a.353.353 0 0 1 .012-.028l29.778 11.715Zm.48-1.367-.035.11-.013.04-.005.018-30.474-9.765a9.496 9.496 0 0 0-.054.172l30.581 9.425Zm-.053.167c.137-.427.585-1.85.778-3.729l-31.831-3.283a13.25 13.25 0 0 1 .525-2.578l.033-.108.014-.043.007-.021 30.474 9.762Zm.778-3.729c.064-.615.152-1.752.054-3.174l-31.924 2.205a13.592 13.592 0 0 1 .039-2.314l31.831 3.283Zm.054-3.174a18.5 18.5 0 0 0-2.237-7.625l-28.055 15.392a13.502 13.502 0 0 1-1.632-5.562l31.924-2.205Zm-2.237-7.625c-2.277-4.152-7.01-8.692-14.175-9.488l-3.537 31.803c-5.25-.584-8.693-3.917-10.343-6.923l28.055-15.392Zm-14.175-9.488a18.502 18.502 0 0 0-11.171 2.294l15.785 27.836a13.5 13.5 0 0 1-8.151 1.673l3.537-31.803Zm-11.171 2.294c-.73.414-1.373.828-1.576.957l17.205 26.981.144-.091.077-.049.009-.005-.074.043-15.785-27.836Zm-1.576.957-.091.058 17.144 27.02.152-.097-17.205-26.981Zm-.091.058c-.093.059-.063.039.023-.013.099-.059.311-.181.601-.329l14.513 28.52c.927-.472 1.683-.953 2.007-1.158l-17.144-27.02Zm.624-.342c-.236.12-.349.17-.395.188-.037.016-.09.037-.203.073l9.718 30.489a34.964 34.964 0 0 0 5.393-2.23l-14.513-28.52Zm.402-.022.087-.022a29.784 29.784 0 0 1 .407-.092l6.568 31.319c.12-.025.243-.052.369-.081l.186-.044.101-.025-7.718-31.055Zm.494-.114c.02-.004.036-.007.044-.01l.022-.004.015-.003h-.003c-.003.002-.007.002-.013.004l6.349 31.363.04-.008.035-.007.079-.016-6.568-31.319Zm.065-.013c-.015.003-.349.07-.636.134l6.986 31.228-.039.009-.027.005-.028.006-.005.001.009-.001.038-.008.051-.01-6.349-31.364Zm-.636.134c-.754.168-3.86.841-7.078 3.063l18.18 26.334c-2.038 1.407-3.932 1.79-4.116 1.83l-6.986-31.227Zm-7.078 3.063c-6.642 4.585-9.228 11.662-9.824 13.196l29.824 11.597c.205-.527.256-.579.175-.445a4.988 4.988 0 0 1-.505.674c-.294.335-.778.82-1.49 1.312l-18.18-26.334Zm-9.824 13.196c-.802 2.062-1.357 4.672-1.426 4.975l31.195 7.135a26.224 26.224 0 0 1 .235-.993c.031-.12.042-.155.033-.126a10.923 10.923 0 0 1-.213.606l-29.824-11.597Zm-1.426 4.975-.058.253 31.175 7.22.078-.338-31.195-7.135Zm1.797-4.3a18.488 18.488 0 0 0-2.696 9.618h32c0 2.541-.718 4.964-1.97 7.021L166.028 28Zm-2.696 9.618c0 .327.004 1.18.121 2.23l31.803-3.55a12.454 12.454 0 0 1 .076 1.32h-32Zm.121 2.23c.056.502.195 1.603.57 2.95l30.832-8.568c.267.961.364 1.735.401 2.069l-31.803 3.549Zm.57 2.952-.012-.044-.002-.008 30.864-8.45-.004-.017-.015-.052-30.831 8.57Zm-.014-.052c.264.964 1.386 5.026 5.161 8.583l21.949-23.285a13.432 13.432 0 0 1 3.658 5.919c.027.088.049.165.067.229l.029.104-30.864 8.45Zm5.161 8.583c2.406 2.269 6.287 4.656 11.466 5l2.128-31.928a13.487 13.487 0 0 1 8.355 3.643L169.17 51.33Zm11.466 5a18.514 18.514 0 0 0 11.081-2.796L174.691 26.44a13.488 13.488 0 0 1 8.073-2.037l-2.128 31.929Zm11.081-2.796c3.731-2.345 5.564-5.378 6.023-6.141l-27.424-16.491.045-.074.105-.17a13.35 13.35 0 0 1 1.154-1.568 13.455 13.455 0 0 1 3.071-2.651l17.026 27.095Zm6.022-6.14-.001.002a.242.242 0 0 0-.011.018l-27.391-16.546a.653.653 0 0 1-.019.033l27.422 16.492Zm-.011.018c1.058-1.752 1.582-3.304 1.692-3.622l-30.247-10.446.031-.09.073-.2a13.207 13.207 0 0 1 1.058-2.184l27.393 16.542Zm1.692-3.621.001-.004-30.246-10.448-.002.005 30.247 10.447Zm-.001.001c.458-1.323.783-2.82.798-2.885l-31.174-7.22-.055.235-.024.1c-.003.012.008-.034.032-.12a12.107 12.107 0 0 1 .18-.568l30.243 10.458Zm.798-2.885.002-.006-31.175-7.22-.001.006 31.174 7.22Zm.002-.006.058-.252-31.177-7.208-.056.24 31.175 7.22Zm.058-.252.078-.335.067-.29.056-.233a12.948 12.948 0 0 1 .032-.141l-.035.12-.061.197c-.026.078-.059.181-.102.303-.042.12-.099.278-.171.463l-29.824-11.597c-.671 1.726-1.191 4.19-1.217 4.305l31.177 7.208Zm-.136.084c.121-.31.101-.198-.108.164a9.064 9.064 0 0 1-.7 1.03 12.309 12.309 0 0 1-1.833 1.89l-20.536-24.54c-4.158 3.478-6.013 8.228-6.647 9.86l29.824 11.596Zm5.17 2.315v-.039l-32 .028v.011h32Zm-31.977.823a17.213 17.213 0 0 1-.021-.967c.001-.079.004-.506.046-1.05a15.6 15.6 0 0 1 .082-.803c.025-.196.138-1.116.453-2.252.118-.425.554-1.995 1.596-3.781.214-.368 4.79-8.677 15.038-7.895 4.84.369 8.121 2.763 9.775 4.326a15.986 15.986 0 0 1 4.389 7.216c.3 1.047.422 1.893.451 2.094a16.312 16.312 0 0 1 .145 1.443c.023.43.023.761.023.846h-32c0 .109 0 .456.024.894.007.118.021.366.052.68.015.153.043.428.093.77.03.201.151 1.048.452 2.096a15.999 15.999 0 0 0 4.389 7.216c1.654 1.563 4.935 3.957 9.775 4.326 10.248.781 14.824-7.527 15.038-7.895a16.002 16.002 0 0 0 1.596-3.782c.315-1.136.429-2.056.454-2.252.045-.36.07-.647.082-.806.041-.546.045-.977.046-1.062a19.256 19.256 0 0 0-.023-1.058l-31.955 1.696Zm30.687 1.535c-.531.333-5.381 3.548-12.027 2.04-9.248-2.098-11.726-10.138-12.199-12.727-.489-2.675-.154-4.804-.069-5.348a16.1 16.1 0 0 1 .409-1.873c.326-1.152.725-2.033.735-2.056a15.218 15.218 0 0 1 .609-1.245c.082-.15.151-.27.193-.344l27.71 16.004a13.951 13.951 0 0 0 .434-.8c.026-.053.194-.383.382-.813.01-.023.41-.904.735-2.056a16.1 16.1 0 0 0 .409-1.873c.085-.544.42-2.673-.069-5.349-.473-2.588-2.951-10.629-12.199-12.727-6.646-1.507-11.496 1.708-12.027 2.04l16.974 27.127Zm5.683-6.132c-.049.092-.116.218-.199.366-.035.063-.11.198-.211.368-.039.066-.156.262-.314.508-.066.1-.254.392-.515.75a16.278 16.278 0 0 1-1.757 2.029 15.987 15.987 0 0 1-2.687 2.111L187.047 18.28c-2.281 1.428-3.663 3.153-3.663 3.154-.384.448-.66.821-.781.987-.261.358-.449.65-.515.75-.158.247-.275.443-.315.51a15.721 15.721 0 0 0-.422.757l28.353 14.837Zm-35.977 2.008a15.98 15.98 0 0 1 .546-2.817c.048-.164.088-.291.103-.34a15.726 15.726 0 0 1 .173-.52l30.176 10.65.101-.295c.016-.05.048-.145.085-.264a13.584 13.584 0 0 0 .233-.82c.029-.11.081-.32.139-.586.029-.135.185-.84.278-1.755l-31.834-3.253Zm31.14 6.55-.076.232c-.013.036-.055.16-.113.319a15.527 15.527 0 0 1-.487 1.187c-.059.13-.338.745-.777 1.486-.16.27-.769 1.303-1.781 2.447-.466.529-1.638 1.8-3.49 2.961-1.641 1.03-6.287 3.495-12.393 1.963-6.526-1.637-9.554-6.479-10.629-8.803a15.988 15.988 0 0 1-1.39-5.053c-.176-1.68-.034-3-.002-3.309l31.83 3.292c.032-.308.174-1.629-.002-3.309a15.987 15.987 0 0 0-1.39-5.052c-1.075-2.324-4.103-7.166-10.629-8.804-6.106-1.532-10.752.934-12.393 1.963a15.989 15.989 0 0 0-3.49 2.961c-1.012 1.145-1.621 2.178-1.781 2.447a15.934 15.934 0 0 0-1.01 2.021c-.145.348-.246.631-.255.655-.058.16-.102.287-.115.327l-.088.264 30.461 9.806Zm-36.534-10.052.001.113.003.122.006.193a14.715 14.715 0 0 0 .074 1.064 15.959 15.959 0 0 0 .908 3.907c.298.747 1.301 2.706 2.074 3.87 1.779 2.052 8.309 5.899 13.175 6.58 4.843-.828 11.254-4.87 12.971-6.975.737-1.187 1.68-3.175 1.955-3.931.428-1.275.592-2.32.629-2.554.114-.708.153-1.27.161-1.378.026-.365.034-.652.036-.706.005-.185.006-.331.006-.36v-.193l-.001-.122-.002-.113-31.994.66-.001-.108-.002-.12v-.193c.001-.03.001-.175.007-.36.001-.055.009-.341.035-.706.008-.109.047-.67.161-1.378.037-.235.201-1.279.629-2.554.275-.756 1.219-2.744 1.956-3.932 1.716-2.104 8.127-6.146 12.97-6.974 4.866.681 11.396 4.528 13.176 6.58.772 1.164 1.775 3.123 2.073 3.87.467 1.262.662 2.3.707 2.534.135.703.19 1.264.202 1.372.037.364.053.65.057.704a23.832 23.832 0 0 1 .025.674l.001.107-31.998.307Zm-4.16-5.228A15.483 15.483 0 0 1 166.028 28l27.334 16.64a16.557 16.557 0 0 0 1.986-4.866l-31.175-7.22Zm25.756-17.33c6.454-2.073 12.108.513 15.231 3.558 3.231 3.15 6.769 10.09 3.014 17.726l-28.716-14.12c-4.033 8.202-.292 15.742 3.361 19.305 3.545 3.457 9.842 6.264 16.896 3.998l-9.786-30.466Zm-5.844.63a16.056 16.056 0 0 0-7.121 3.424L197.5 43.818a15.938 15.938 0 0 1-7.069 3.4l-6.346-31.365Zm20.277 33.444a15.806 15.806 0 0 1-20.718 6.053c-6.802-3.434-10.449-11.497-7.833-19.171L206.1 46.502c2.702-7.927-1.061-16.198-8.034-19.718a16.196 16.196 0 0 0-11.663-1.14 16.217 16.217 0 0 0-9.59 7.372l27.549 16.28Zm.562-1.646a15.43 15.43 0 0 1-.812 2.118l-28.962-13.61c-.338.72-.627 1.47-.861 2.246l30.635 9.246Zm-14.474-.437c-12.563 2.53-22.846-10.03-17.867-21.85l29.49 12.424c5.001-11.871-5.326-24.486-17.943-21.944l6.32 31.37Z" mask="url(#a)"/><path stroke="#fff" stroke-linecap="round" stroke-width="5" d="M201.422 44.411c0-2.237.041-4.508 1.063-6.552.082-.164.162-.445.333-.542a.493.493 0 0 0 .18-.196c.26-.466.921-.707 1.414-.538.723.247.677 1.513.64 2.1-.059.966-.589 1.628-1.081 2.409-.236.375-.37.851-.398 1.294-.036.573.603.288.872.065 1.033-.854 1.78-2.147 2.524-3.247.579-.856 1.25-1.79 1.573-2.784.006-.02.145-.554.072-.524-.065.026-.035.35-.036.376-.022.635-.113 1.27-.206 1.898-.28 1.882-.691 3.876-1.548 5.59"/><path fill="#FFD424" fill-rule="evenodd" d="m187.243 31.538.015-.003.032-.006.064-.013a46.62 46.62 0 0 0-1.211 3.16 42.42 42.42 0 0 1-.483 1.331c-.15.4-.311.833-.465 1.27-.331.947-.666 2.036-.822 3.18-.103.758-.082 1.64-.069 2.21.004.153.007.283.007.382v.013c0 .107-.002.524.14.96a2.524 2.524 0 0 0 1.606 1.627c1.49.498 2.493-.519 2.607-.636.249-.256.389-.509.435-.592.064-.118.112-.224.143-.296.061-.144.111-.288.147-.393.067-.198.134-.422.179-.573l.01-.034.039-.13a21.33 21.33 0 0 1 1.966-3.367 40.022 40.022 0 0 0-.628 1.713c-.304.892-.598 1.91-.598 3.16a2.5 2.5 0 1 0 5 0c0-.432.088-.835.331-1.547.892-2.617 2.091-5.108 3.501-7.597l.118-.166.001-.002c.097-.137.246-.348.384-.561a4.586 4.586 0 0 0 .491-.978c.05-.147.282-.828.041-1.637a2.564 2.564 0 0 0-2.477-1.836l-.262-.003c-.355-.006-.888-.014-1.344.02-1.294.094-2.441.68-3.262 1.204.302-.647.615-1.297.937-1.951a48.862 48.862 0 0 0 .896-1.974c.011-.029.046-.118.078-.223l.001-.001a2.54 2.54 0 0 0 .107-.92 2.501 2.501 0 0 0-3.729-2.003 19.846 19.846 0 0 0-.987.607c-.283.18-.492.306-.691.408a19.023 19.023 0 0 1-2.996 1.245 1.922 1.922 0 0 1-.081.018l-.044.01c-.076.015-.226.045-.318.066-.285.064-.891.209-1.481.616-2.206 1.523-3.373 4.21-4.002 5.828-.275.706-.556 1.935-.741 2.743l-.068.297-.019.083a2.485 2.485 0 0 0-.409 1.37c0 .111.003.278.022.456.01.084.031.248.085.441l.002.01c.03.109.186.677.703 1.165a2.514 2.514 0 0 0 3.884-.54l.004-.007c.155-.257.24-.502.264-.574l.002-.004c.118-.34.241-.872.332-1.266l.001-.006.057-.246c.219-.945.411-1.775.541-2.11.6-1.543 1.268-2.78 2.014-3.398Zm-2.911 6.097v-.007.007Zm4.979 5.414v-.025c.003.058 0 .072 0 .025Zm6.223-11.205-.007.012a.11.11 0 0 0 .007-.012Zm-5.89 11.065-.007.022.007-.022Z" clip-rule="evenodd"/><path stroke="#171717" stroke-linecap="round" stroke-width="2" d="M183.074 36.32c3.815 0 6.184-3.11 7.522-6.454.403-1.008.847-4.231.847-3.145 0 1.537-.054 3.085 0 4.622.115 3.197 2.854 4.312 5.361 5.224.758.275 2.268.244 2.817.683.311.249.302.055-.314.055-.699 0-1.52-.15-2.202-.3-.973-.217-2.634-.512-3.446.3-1.156 1.156-1.589 2.992-2.407 4.376-.845 1.43-1.654 3.364-1.778 5.033-.039.534-.246 2.347-.246.82 0-2.475.898-4.804.985-7.22.038-1.085.095-2.017-.739-2.763-1.722-1.54-4.502-1.23-6.646-1.23"/></svg>