
<svg width="825px" height="611px" viewBox="0 0 825 611" version="1.1" xmlns="http://www.w3.org/2000/svg" xmlns:xlink="http://www.w3.org/1999/xlink">
    <g id="✔--Services" stroke="none" stroke-width="1" fill="none" fill-rule="evenodd">
        <g id="Services-Copy" transform="translate(-344.000000, -324.000000)" fill="#1D1D1B">
            <g id="Turd-dobrandaoArtboard-9" transform="translate(344.000000, 323.000000)">
                <path d="M824.19527,494.120177 C823.970942,494.755048 823.719009,495.382128 823.44,496 C823.723705,495.359307 823.981575,494.709961 824.213146,494.053203 C824.237748,493.960439 824.261879,493.866993 824.285353,493.77326 C824.732603,491.987357 825.179852,490.218794 824.926411,491.363158 C824.764127,492.097417 824.583785,492.825978 824.385625,493.547947 C824.445762,493.365829 824.50389,493.183171 824.56,493 C824.498189,493.20727 824.433481,493.413818 824.365896,493.619595 C824.201965,494.212964 824.025989,494.801856 823.838104,495.385773 C823.629387,496.04465 823.525029,496.252716 823.525029,496.478121 C823.425731,496.913 823.30629,497.341317 823.16723,497.761197 C823.033055,498.159991 822.883972,498.697495 822.615622,499.391049 L821.512407,502.11325 C820.856441,503.344309 820.856441,503.240276 821.363323,502.130589 C822.181528,500.164831 822.898395,498.14417 823.510121,496.079328 C823.175628,497.165358 823.753189,495.766209 824.19527,494.120177 Z M667.804568,317.224615 C665.814789,316.472309 663.817158,315.749614 661.803386,315.069001 C665.46837,316.288037 658.966547,314.150307 654.75534,312.613262 C650.24459,311.164552 642.897002,308.85015 637.610967,307.083431 L628.483747,304.468687 C638.650554,307.348439 627.814183,304.115343 627.267959,303.815001 C625.312126,303.267318 623.338673,302.843306 621.36522,302.366292 C619.092226,301.712606 625.188786,303.249651 620.854237,302.118951 L611.110313,299.716213 C607.216268,298.868188 603.375082,298.03783 601.52497,297.702154 L605.260435,298.620847 L605.419016,298.620847 L605.824279,298.726851 L605.330915,298.60318 L603.692245,298.285171 C596.344656,296.624455 599.022914,297.278141 599.269596,297.384144 C595.111248,296.34178 591.816287,295.794097 588.803247,295.158078 L579.781748,293.391359 C588.521325,295.087409 560.399621,290.193598 565.808996,291.394967 C559.518615,290.334935 561.492068,290.794282 557.457061,290.069928 C561.89733,290.688279 566.35522,291.165293 570.566427,291.836647 L582.371905,293.603366 L575.323858,292.331328 C579.957949,292.773008 591.023381,295.246414 595.199349,295.988436 C592.38013,295.493755 586.089749,294.221717 585.878308,294.133381 L587.72842,294.663397 C597.701405,296.571453 605.595217,298.302838 612.643263,299.839883 C606.05334,298.126166 620.660416,301.765607 615.902985,300.440568 C614.140973,300.016555 612.378962,299.557208 610.61695,299.150863 C609.418782,298.850521 610.088347,298.974191 611.427475,299.256866 L616.237767,300.405234 C620.343254,301.500599 625.347367,302.684301 630.527681,304.256681 L638.439112,306.535748 C641.09975,307.224769 643.707527,308.196464 646.244824,308.991488 L653.557172,311.341224 L659.741832,313.637959 C663.530157,315.015999 666.455096,316.058364 667.864706,316.623714 C664.604984,315.38701 658.578905,313.302282 655.706826,312.312919 L663.195375,315.069001 L654.385317,311.835905 C651.301797,310.758207 647.795394,309.645174 643.249404,308.196464 C644.799974,308.797149 638.157191,306.818423 645.011416,309.16816 C653.715753,311.99491 657.257396,313.249281 661.257162,314.591987 C663.283475,315.228006 665.415509,315.934693 668.305208,316.994725 L679.969725,321.570527 C680.921211,321.888536 679.846384,321.55286 679.864004,321.570527 C679.881624,321.588194 680.181166,321.729532 681.167893,322.135877 L686.453927,324.450279 C689.83699,325.916656 693.043851,327.188693 695.845449,328.478398 L695.889425,328.499223 C696.2631,328.659955 696.63336,328.826908 697,329 L696.744936,328.904351 L703.157797,331.941167 L708.038569,334.096564 C708.599273,334.398611 709.189787,334.641368 709.800581,334.820919 C704.215004,332.04717 692.97337,326.800015 691.211359,325.987324 C694.065817,327.153359 697.924623,328.973079 701.113864,330.474791 C704.303105,331.976502 706.858021,333.230872 707.139943,333.230872 C712.884101,336.181293 696.532634,328.21339 704.074043,331.994169 C707.985709,333.760888 709.74772,334.608913 711.509732,335.527607 C708.990055,334.255569 714.910414,337.470998 716.038102,338.124684 C719.174482,339.750065 721.92322,341.287111 724.548617,342.73582 C727.174015,344.18453 729.58797,345.615572 732.019546,347.099616 C736.917938,350.014702 741.816331,353.177129 748.071472,357.434922 C748.741036,357.894269 750.044925,358.936633 749.657282,358.724627 C755.789082,362.876417 764.246738,369.183603 762.149944,367.416884 C765.515386,370.172966 767.295018,371.621675 768.898448,373.017383 L774.942148,377.999531 C766.220191,370.031628 776.704159,379.501242 777.655646,380.349267 C779.215979,381.679192 780.649398,383.151928 781.937334,384.748397 C782.81834,385.631757 784.967994,387.769487 785.144195,387.87549 C788.262955,391.320592 778.607132,381.638972 782.289736,385.702426 L785.514217,389.235864 C786.888586,390.790576 788.439156,392.645631 789.972107,394.41235 C792.985146,397.981123 795.575303,401.479226 795.962946,401.920906 C797.090633,403.298947 797.619237,403.705292 797.495896,403.192944 C796.886545,401.682385 796.028888,400.284968 794.958599,399.058821 C795.893411,400.108052 796.75865,401.217573 797.548756,402.380253 L801.072779,407.539072 C803.645316,411.620193 805.70687,414.623615 807.468881,417.644705 C808.349887,419.146416 809.354234,420.542124 810.111899,422.114504 C810.869564,423.686884 811.715329,425.329932 812.631575,427.096651 C811.680089,425.223929 810.763843,423.45721 809.777116,421.690491 L813.072078,428.209684 C814.516928,431.266108 815.908917,434.428535 816.278939,435.27656 C816.36704,435.559235 813.600681,429.782064 814.992671,433.174165 C817.537567,439.089215 819.628682,445.190322 821.247812,451.424372 C822.49884,456.388852 823.009823,459.568946 823.009823,459.091932 C822.461713,455.439514 821.672956,451.827503 820.648728,448.279612 C819.662573,444.720681 818.486199,441.217517 817.124705,437.785301 C818.139561,440.080312 818.99902,442.441286 819.697241,444.852177 C820.913029,448.579954 821.776415,452.3784 821.776415,451.919053 C823.328011,458.577131 824.067594,465.399478 823.97893,472.236321 C824.052184,469.769258 823.934362,467.300216 823.626527,464.851436 C823.820349,469.250566 823.820349,470.381266 823.820349,471.158623 C823.820349,471.935979 823.785108,472.342324 823.626527,475.257411 C823.833741,468.995026 823.283509,462.730534 821.987857,456.600858 C820.886933,451.347752 819.354634,446.194929 817.406626,441.195069 C818.589915,444.468731 819.607308,447.800308 820.454906,451.177031 L820.94827,453.738773 C822.24424,459.739006 822.958243,465.850876 823.080304,471.98898 C823.143649,475.673928 822.937528,479.358575 822.4636,483.013307 C822.040717,484.939031 821.794035,486.228735 821.512113,487.006092 C821.42166,487.397116 821.27317,487.772308 821.071611,488.119125 C821.083026,487.436217 821.189784,486.758277 821.388773,486.105065 C820.860169,487.96012 820.454906,489.603169 820.014404,491.034211 C819.573901,492.465253 819.062917,493.701957 818.675275,494.832657 L818.111431,496.440371 L817.477107,497.889081 L816.296559,500.592161 C814.104923,505.280763 811.340894,509.678229 808.067965,513.683548 C809.230893,512.128836 810.534781,510.662459 811.591988,509.001743 C810.829644,510.18073 810.006244,511.318877 809.125172,512.411511 C808.508468,513.118198 807.909384,513.895555 807.363161,514.602242 C806.816937,515.30893 806.182613,516.015617 805.601149,516.704638 C804.438221,518.100346 803.275294,519.26638 802.500009,520.079071 C801.724724,520.891762 801.337081,521.298107 801.601383,521.050766 C799.398868,523.223831 797.090633,524.919881 799.59269,522.552478 C796.347947,525.811784 792.911768,528.87367 789.302542,531.721749 C790.888353,530.502713 789.672565,531.068063 790.324509,530.502713 L785.320396,534.389495 C784.36891,535.166851 784.33367,535.308189 785.778519,534.301159 C783.576005,535.820537 781.972574,536.756898 780.792026,537.587256 C779.611479,538.417614 778.800953,538.912295 778.025668,539.353975 C776.492718,540.255002 775.20645,541.067692 771.330024,543.117086 C768.493186,544.707133 771.717667,543.205422 773.77922,542.074722 C767.559319,545.767165 763.700514,547.551551 760.634614,549.053262 C765.955889,546.367849 766.554973,545.873168 766.14971,545.873168 C765.744448,545.873168 764.229118,546.473852 765.198224,545.873168 C757.739042,549.936622 750.103658,553.735067 742.292074,557.268505 C743.127888,556.879737 743.934635,556.431003 744.70603,555.925799 C743.772163,556.438147 736.530296,559.529906 727.684998,562.745334 C718.8397,565.960763 708.390971,569.176191 701.483886,571.119582 L703.56306,570.518898 C706.329418,569.653205 694.43584,572.974637 689.555068,574.282009 C690.383213,574.017001 691.510901,573.734326 693.590074,573.186643 C684.286653,575.465711 681.626016,576.631745 672.075913,578.663472 C680.70977,576.66708 682.366061,576.154731 681.907938,576.154731 C674.895132,578.027453 658.420324,581.525557 661.944347,581.030876 C657.380737,581.984904 653.27525,582.850596 653.645272,582.63859 C647.848254,583.910628 642.015996,585.058995 636.201358,586.278031 C637.487626,585.995356 638.597694,585.677347 633.47024,586.666709 C643.302264,584.77632 652.746646,582.691591 657.92696,581.737563 C658.138402,581.50789 654.438177,582.214577 659.089888,581.06621 C649.680746,583.150938 642.368398,584.599648 635.937056,585.977689 C629.505714,587.35573 623.955377,588.6101 617.982158,589.687799 L601.225428,592.496882 L600.538244,592.691221 L597.595685,593.00923 C595.498891,593.362574 594.124522,593.627582 593.736879,593.662916 C593.349237,593.698251 593.87784,593.592248 594.688366,593.433243 L590.494778,594.122263 C592.269874,593.589111 594.08466,593.19919 595.921774,592.956229 C597.437104,592.779557 598.987674,592.549883 600.555864,592.302543 C603.815585,591.631189 606.159061,591.118841 601.577831,591.860863 L599.251975,592.302543 C601.295909,591.825529 602.564557,591.595855 601.013987,591.825529 C596.767539,592.638219 592.485851,593.238904 588.221783,593.945591 L594.424064,593.150568 C586.406911,594.493274 577.244451,596.047987 584.451078,595.093959 L574.654294,596.471999 C563.201219,598.309387 565.174672,597.903042 551.16668,599.899434 C550.391395,599.934769 554.126859,599.29875 551.589563,599.669761 C549.052266,600.040772 546.215428,600.447117 543.360969,600.765127 L534.991414,601.595484 C529.705379,602.090166 525.511792,602.461177 524.419345,602.69085 C516.13789,603.609544 521.001042,603.2562 515.715007,603.803883 C515.961689,603.803883 516.455052,603.680213 514.922102,603.803883 L508.666961,604.475236 C506.129665,604.687243 514.411119,603.945221 507.363073,604.475236 L491.980712,605.888612 C487.434722,606.259623 483.135414,606.453962 478.078441,606.754304 C463.682806,607.655331 484.263101,606.665968 472.087601,607.372656 C470.290349,607.337321 468.704539,607.354988 461.110269,607.708332 C457.092883,607.938006 457.639106,608.008674 450.820122,608.309017 L451.243005,608.114677 L443.190612,608.41502 C442.075792,608.485956 440.957609,608.485956 439.84279,608.41502 C434.680096,608.680028 431.120833,608.680028 428.407335,608.680028 C418.839612,608.856699 435.473001,608.945035 437.710756,608.945035 C428.283994,608.945035 421.782171,609.068706 416.408036,608.945035 L424.742351,608.803698 C415.844192,608.786031 411.632985,608.98037 408.602325,608.98037 C405.571665,608.98037 403.739173,608.98037 399.616066,608.733029 L408.161822,608.733029 C410.311476,608.609359 411.192482,608.609359 409.43047,608.609359 L400.620412,608.609359 C399.598446,608.609359 405.677386,608.715362 401.624759,608.609359 L391.669394,608.609359 L391.792735,608.609359 C386.418599,608.556357 381.132565,608.53869 375.84653,608.291349 C378.87719,608.468021 379.617235,608.432687 376.586575,608.291349 L366.137846,607.991007 C369.327087,608.061676 366.067366,607.885004 361.380415,607.672998 L349.645418,607.231318 C347.319563,607.178316 345.38135,607.107648 340.183416,606.683635 L343.478378,606.877974 L338.192343,606.453962 C337.910421,606.52463 335.778387,606.436294 332.747727,606.27729 L327.620274,605.95928 L321.823256,605.446932 C313.947064,604.722577 306.053252,604.015889 305.454168,604.13956 C297.842278,603.291535 304.943185,603.998222 314.757589,604.722577 L306.634716,603.874552 L316.237679,604.740244 C310.934024,604.174894 305.75371,603.69788 301.1901,603.326869 L289.825126,602.143167 C285.772499,601.613152 293.049607,602.24917 281.473191,600.924131 C265.139344,599.051409 284.539091,601.56015 274.724687,600.447117 C272.381211,600.076106 270.037736,599.634426 267.67664,599.228081 C261.439119,598.380056 256.064984,597.585032 250.77895,596.790009 C248.171172,596.418998 245.633876,595.994985 243.114199,595.500304 L235.414209,594.104596 L231.291102,593.433243 C220.119948,591.472185 207.909208,589.263786 199.574894,587.35573 C201.530727,587.673739 194.835083,586.225029 193.848356,585.90702 C188.826623,584.740985 183.82251,583.627952 178.836018,582.373582 C181.319543,583.115989 183.859417,583.653683 186.430287,583.981296 L176.369201,581.560891 C178.307414,582.002571 180.280867,582.461918 177.831671,581.790565 C172.563256,580.589196 167.435803,579.140486 162.149768,577.79778 L166.360976,578.981482 C162.44931,577.92145 154.044515,575.448044 148.547039,573.681325 C149.040402,573.822662 150.943375,574.352678 151.436738,574.441014 C156.053208,575.942725 158.731466,576.649413 161.163042,577.285431 C150.467632,574.105337 158.520024,576.455073 153.392571,574.847359 C145.851161,572.603626 142.767641,571.614263 144.705854,572.373953 C136.248198,569.635538 133.605181,568.593174 125.024185,565.607419 L126.698096,566.084433 L118.892384,563.134012 L125.270866,565.395413 C117.817557,562.462659 117.130373,562.250653 116.196507,561.985645 C115.262641,561.720637 114.170193,561.349626 105.97684,557.816188 L105.97684,557.674851 C99.6864584,554.989438 97.483944,554.141413 92.7265128,551.791677 C86.7180534,548.894257 102.92856,556.86216 88.8324672,550.024958 C86.3832712,548.75292 81.0972365,546.067507 77.203191,543.841441 C72.7276816,541.474038 80.4452922,545.837834 83.2997509,547.268876 C78.0841967,544.530462 74.7011345,542.675407 72.2695586,541.262031 C69.8379826,539.848656 68.3402728,538.876961 66.9835239,537.975934 C65.626775,537.074907 64.2171658,536.226882 62.1027519,534.937178 L52.7288504,528.912666 C58.7373098,532.923118 47.5132962,525.873909 61.8736904,535.113849 C58.3849075,532.993787 55.0194654,530.714719 51.6892636,528.488653 C48.3590617,526.262587 45.0817202,523.824515 41.5576971,521.421777 L46.0332065,524.584204 C43.5487702,522.799818 40.6766914,520.891762 39.3551827,519.867065 L39.9895068,520.185074 C33.0861333,515.067726 26.6045189,509.40184 20.6073797,503.242239 C22.3693913,504.726283 20.8716814,503.348242 18.8453681,501.104509 C16.7674527,498.827561 14.8146081,496.438962 12.9954898,493.949297 C16.2241054,498.125355 19.7016142,502.10184 23.4089781,505.856983 C25.2943305,507.694371 27.0211018,509.355087 28.3954708,510.538788 C29.2048458,511.300665 30.0579393,512.014459 30.9503876,512.676518 L26.6334592,508.789737 C25.2767103,507.464697 23.9023413,506.19266 22.5808327,504.779285 C24.5014252,506.75801 27.4087443,509.443423 28.2192696,510.079442 C27.0537016,508.983137 25.958482,507.932745 24.9259358,506.92122 L25,507 C24.9258946,506.925159 24.8530346,506.85166 24.7815674,506.779643 C17.3352911,499.46969 13.1667832,494.18679 9.34812585,488.242795 C11.8561991,492.28384 14.6970728,496.1074 17.8410216,499.673467 C15.4723266,497.129799 13.2877534,494.419832 11.3039587,491.564227 C7.75348393,486.463567 4.90287179,480.907552 2.82868308,475.045404 C3.37490667,476.494114 3.42776701,476.58245 3.9739906,478.048827 C2.74724102,475.009534 1.78052405,471.87113 1.08429164,468.667549 C0.855230138,467.34251 0.538068057,466.141141 0.432347364,465.028108 C0.32662667,463.915075 0.132805399,462.890378 0.132805399,461.936349 C0.0043228513,460.261238 -0.0309720846,458.58025 0.0270847052,456.9012 C0.0159539922,455.402176 0.0924389165,453.903786 0.256146208,452.413734 C0.32662667,451.707047 0.32662667,450.894356 0.467587595,449.940328 C0.608548519,448.986299 0.749509444,448.138274 0.908090484,447.21958 C1.21321124,445.479323 1.61320003,443.757135 2.10625834,442.060761 C2.77582274,439.039672 3.51586759,437.325954 2.77582274,439.269345 C3.14584516,438.085643 2.93440378,438.721662 2.44104054,440.205706 C2.17673881,440.947728 1.93005719,441.937091 1.70099569,443.014789 C1.47193418,444.092488 1.08429164,445.240855 0.943330715,446.40689 C0.0799450519,451.018026 -0.0257756416,455.258152 0.0799450519,450.770686 C0.802337147,445.83643 1.9821204,440.980481 3.60396817,436.265923 C6.23209198,429.123402 9.87601226,422.399248 14.4227191,416.301998 C13.8344079,417.07778 13.2987256,417.892303 12.8192886,418.740071 C12.8192886,418.793072 13.1716909,418.245389 13.5945737,417.715374 C14.4227191,416.637675 15.2861048,415.453973 13.1540708,418.563399 L16.2904514,414.128934 L18.2815244,411.496523 C19.3211113,410.083148 20.0259159,409.235122 21.3121843,407.645075 C21.9465085,406.956055 22.5455924,406.249367 23.2151568,405.613349 C27.1444426,401.055214 27.6730461,400.595867 28.6597725,399.482834 C29.1531358,398.935151 29.7874599,398.281465 31.1265887,396.938758 C32.4657175,395.596052 34.4744107,393.581992 37.8574729,390.543236 C33.2938629,394.589022 43.5311501,385.896765 40.007127,388.988523 C43.830692,385.702426 47.5485364,382.46933 50.2972745,380.031258 L49.8039112,380.472938 L52.2178671,378.388209 L54.4027614,376.62149 L57.9267845,373.936077 L62.8075565,370.2083 L67.459267,366.674862 C69.3269993,365.296822 71.7761954,363.653773 75.1944978,361.251035 L73.7848885,362.134395 C82.6654268,355.68587 93.1670157,349.043007 103.950526,342.700486 C109.430382,339.679396 114.839758,336.481635 120.284374,333.637217 L136.142478,325.580979 L128.971091,329.114417 C130.081158,328.602068 133.42898,326.64101 137.428746,324.874291 C141.428512,323.107572 145.956882,320.98751 149.198983,319.574134 L144.494412,321.747199 C144.705854,321.729532 147.260771,320.6695 152.212023,318.425767 L154.097375,317.454072 L156.158929,316.676715 C163.841299,313.514288 153.833074,317.471739 161.533064,314.309312 C166.026194,312.507259 194.799842,301.270926 201.847889,299.504207 C207.133923,297.47248 186.941271,304.521689 192.738289,302.330957 L201.372145,299.521874 L199.610134,299.981221 C223.485391,292.030986 232.788812,289.628248 254.391073,283.798075 L253.510067,284.045416 C261.245298,282.119692 265.403645,281.024326 268.821948,280.052631 C270.442999,279.716954 264.892662,281.147997 267.905702,280.441309 C274.689446,278.656923 281.543671,277.031542 287.710712,275.759504 C293.877752,274.487466 299.410469,273.3921 303.568816,272.385071 C302.511609,272.809083 320.536987,269.399316 313.083678,271.166035 L318.722115,270 C317.805869,270.300342 313.3656,271.113033 308.78437,272.067061 C304.20314,273.021089 299.463329,274.081121 297.859898,274.505133 L289.049841,276.271852 L280.239783,278.23291 C280.768386,278.10924 277.931548,278.886596 280.768386,278.23291 C276.416218,279.257607 272.610273,280.158634 278.33681,278.921931 C257.210292,283.674405 235.978052,289.257237 215.133456,295.882433 C194.288859,302.507629 173.849525,310.086854 154.203096,318.4081 C151.648179,319.627136 153.181129,318.991117 154.203096,318.567105 C147.031709,321.67653 147.401731,321.8002 143.507686,323.566919 C139.983663,325.086298 136.44202,326.499673 133.023717,328.266392 C128.88299,330.439456 132.177952,328.867076 131.89603,329.061415 C127.050498,331.552489 122.169726,333.884558 117.500395,336.410966 L103.791945,344.043192 C99.3516762,346.481264 95.1757089,349.290348 91.087842,351.781421 L85.0793826,355.526866 L79.5466663,359.39598 C74.8773357,362.523073 80.5333928,358.477286 74.4192127,362.66441 C78.6304203,359.908329 74.0844305,362.823415 69.4150999,366.339186 C64.7457692,369.854956 59.7945168,373.759405 62.3670536,371.869016 C60.904584,372.91138 58.8606506,374.36009 56.6405161,376.126809 L53.2398338,378.706219 C52.1121464,379.64258 51.0549394,380.543606 50.0329727,381.409299 C45.9451059,384.889735 42.8439656,387.504479 43.9540329,386.30311 C37.1879085,392.080281 38.4741769,391.214589 40.4300097,389.57154 C33.5715027,395.390126 27.2389008,401.804679 21.5060056,408.740441 C15.6876887,415.485074 10.7822153,422.969868 6.9165499,431.0011 C4.42474799,436.276064 2.64700916,441.861194 1.63051522,447.608259 C1.22466663,449.910133 0.959868731,452.23478 0.837610022,454.569131 C0.837610022,456.583191 0.837610022,458.22624 0.837610022,459.374607 C0.837610022,456.247514 0.837610022,456.371185 0.837610022,458.014233 C0.89219858,460.616784 1.1573709,463.210598 1.63051522,465.77013 C1.33097326,464.003411 1.29573303,462.236692 1.11953187,460.469973 C1.48691357,464.935197 2.35579964,469.344573 3.70968886,473.614362 C4.18543198,474.904067 4.4321136,475.734425 4.67879522,476.229106 C4.92547684,476.723787 4.92547684,476.900459 4.92547684,476.900459 C5.42815468,478.581681 6.09507759,480.20906 6.9165499,481.758936 C7.95613672,483.80833 8.81952238,485.345376 9.524327,486.564412 L11.2863386,489.444164 C12.3259254,491.034211 13.2069312,492.094242 14.704641,494.125969 C14.4227191,493.754958 14.1760375,493.348613 13.8941157,492.977602 C15.0922835,494.655985 16.4490324,496.246032 17.7353009,497.871413 C18.4929658,498.737106 18.1934239,498.401429 17.4709991,497.606406 L14.7398812,494.426311 C13.8764956,493.313278 13.2774116,492.447586 13.3831323,492.659592 C14.3901568,494.182398 15.4844423,495.645344 16.6604738,497.041056 L20.0787762,500.821834 C21.9465085,502.818227 24.1842632,505.097294 25.6114925,506.528336 C20.202117,501.122176 20.8893016,501.79353 22.7570338,503.895925 C25.2414701,506.475335 27.8668673,508.913407 30.5275048,511.298478 L28.0430685,508.77207 C33.7684447,514.034003 39.8501692,518.89231 46.2446479,523.312167 L51.0373193,526.739601 C52.65837,527.852634 54.3322809,528.912666 55.9885718,530.008032 L60.9750645,533.258795 C62.5608749,534.336493 64.3228865,535.308189 66.084898,536.350553 C79.9946006,544.700082 94.4865294,552.033305 109.448002,558.293202 C109.236561,558.257868 114.540216,560.660606 119.70291,562.568662 L126.433794,565.218741 C128.054845,565.85476 128.91823,566.190436 128.195805,566.013764 L127.015258,565.554417 C123.226933,564.141042 123.667436,564.423717 125.993291,565.307077 C128.319146,566.190436 132.248432,567.603811 135.367192,568.699177 C128.90061,566.314107 147.066949,572.550625 131.314566,566.932458 C135.437673,568.363501 139.52554,569.741541 143.648647,570.995912 C147.11981,571.896938 155.348404,574.441014 165.109948,577.285431 C174.871492,580.129849 186.236466,582.956599 195.804189,585.076662 C194.44744,584.77632 194.095038,584.687984 193.918837,584.687984 C202.411732,586.613708 211.926595,588.680769 219.890887,590.147146 C227.855179,591.613522 234.163181,592.779557 236.154254,593.097566 L237.651963,593.486244 L246.691083,594.970288 L253.580548,595.941984 L271.711647,598.680398 C271.464965,598.680398 269.438652,598.41539 272.22263,598.85707 C276.451458,599.42242 280.733146,599.687428 292.785305,601.189139 L292.291942,601.189139 L301.736324,602.284505 L311.198326,603.13253 C312.873068,603.4592 314.568891,603.66584 316.272919,603.750882 L328.060777,604.757911 C336.994175,605.287927 346.491417,605.853277 349.328256,606.259623 C353.0461,606.506963 366.930751,606.895641 373.115412,607.107648 C373.594898,607.16779 374.077151,607.203171 374.560262,607.213651 L403.703933,607.84967 C408.972347,607.84967 406.699352,607.761334 404.391117,607.655331 C409.606671,607.885004 416.795679,607.619996 423.17416,607.53166 L436.970711,607.231318 C444.600221,606.895641 439.82517,607.231318 441.921963,607.231318 C453.251698,606.771971 440.001371,606.913309 455.225151,606.52463 C453.445519,606.612966 450.185798,606.71897 451.454446,606.71897 C454.361765,606.595299 458.414392,606.701302 462.467018,606.595299 C466.519645,606.489296 470.572271,606.312624 473.46197,606.100618 L469.638405,606.259623 C474.92444,605.888612 481.197201,605.588269 486.342275,605.340929 C489.701309,605.257266 493.053695,604.997794 496.385741,604.563572 L495.381394,604.563572 C513.618214,603.167864 503.116625,603.962888 521.564886,602.372841 L521.335824,602.372841 C529.370597,601.524816 533.740386,601.224473 537.652051,600.606122 L534.885693,600.87113 C544.858679,599.811098 545.739684,599.669761 555.871251,598.362389 C557.051799,598.185717 561.950191,597.514364 563.3598,597.390693 L591.411024,593.203569 C583.429112,594.45794 587.217436,593.945591 589.508052,593.680583 C594.195002,592.814891 597.454724,592.355544 603.956546,591.295513 C604.837552,590.906835 606.1062,590.447488 618.933645,588.203755 C617.64445,588.376064 616.367389,588.629798 615.110079,588.963444 C616.413968,588.786772 619.391768,588.221422 620.396114,588.027083 C621.682383,587.850411 617.559276,588.592433 619.004125,588.415761 L646.421025,583.115604 C642.474119,583.945962 645.892421,583.32761 647.337271,583.115604 C648.288757,582.76226 664.464023,579.758838 659.671352,580.465526 C671.882092,577.939117 687.282073,574.264342 700.708601,570.518898 C714.135129,566.773453 725.482483,562.780669 730.081334,561.208289 C732.58339,560.395598 739.014732,557.798521 743.032119,556.120138 L742.521135,556.438147 C748.106712,554.03541 750.273986,553.081381 752.635082,551.933014 C754.996177,550.784647 757.674435,549.636279 764.000056,546.314848 C758.749262,549.053262 761.075117,548.046232 766.361152,545.431488 C769.23323,543.841441 772.034829,542.233727 774.818807,540.467008 L776.580819,539.618983 C780.016741,537.49892 783.752206,535.007846 787.39957,532.393102 C785.637558,533.66514 786.606664,532.923118 786.747625,532.923118 L789.884006,530.414377 C791.399336,529.195341 793.302308,527.605294 795.170041,525.962245 C797.037773,524.319196 798.852645,522.570145 800.315114,521.139102 L803.275294,517.976675 C805.122157,516.103086 806.835522,514.101771 808.402747,511.987498 C810.129519,509.832101 811.644849,507.500032 812.490614,506.298663 C813.33638,505.097294 814.094045,503.436578 815.098391,501.669859 C813.953084,503.436578 813.512581,504.072597 815.450794,500.662829 L815.838436,499.814804 L816.684202,498.33076 C818.19365,495.068165 819.419848,491.681199 820.349186,488.207461 C819.979163,489.355828 819.644381,490.733869 819.115778,492.076575 C819.714862,490.468861 820.084884,488.931815 820.560627,487.465439 C820.701588,486.935423 820.93065,486.423074 820.93065,486.069731 C820.87689,486.356335 820.806287,486.639504 820.719208,486.917756 C821.45287,484.185617 821.953905,481.395964 822.216918,478.578842 C823.072115,471.002468 822.709226,463.33758 821.142091,455.876503 C819.545684,448.060041 817.184927,440.420343 814.094045,433.068161 C814.992671,435.223559 816.190838,438.279982 816.525621,439.11034 C812.484695,428.441918 807.159224,418.308356 800.667517,408.93478 L800.878958,409.50013 C796.174446,402.790981 791.042157,396.393888 785.514217,390.348897 L785.126575,390.13689 C779.985017,384.633662 774.543838,379.419768 768.827968,374.519095 C762.572827,369.165936 756.458647,364.519465 753.762769,362.399402 C752.599841,361.675048 749.481081,359.39598 745.939438,356.940241 C742.397794,354.484501 738.362788,351.940426 735.66691,350.262043 C735.226407,349.944034 734.803525,349.626024 734.345402,349.325682 C727.297355,345.032555 722.874706,342.541481 718.487298,340.262414 C715.693983,338.729776 712.88108,337.234462 710.049343,335.776822 C707.985609,334.955593 705.644642,334.068627 703,333 C704.006667,333.340527 706.566634,334.315927 709.834507,335.666326 C704.035798,332.686337 698.158247,329.864262 692.208325,327.203122 L689,326 C689.5688,326.159328 690.131252,326.334988 690.686456,326.526663 C685.792904,324.365017 680.850972,322.311959 675.864238,320.369158 L675.758517,320.369158 C673.277551,319.357095 670.801636,318.365287 668.314548,317.418134 L669,317.77 L668.752294,317.77 C668.34279,317.540444 668.08996,317.390402 667.804568,317.224615 Z M599.44124,298.078986 C599.293931,298.052224 599.1468,298.025872 599,298 C599.222508,298.035666 599.437356,298.069726 599.639454,298.101602 C599.666294,298.104477 599.693142,298.107276 599.72,298.11 C599.699068,298.108194 599.678143,298.106329 599.657224,298.104405 C600.568226,298.248052 601.215132,298.34665 601.126301,298.34665 L608.99543,299.997361 C609.086298,300.030376 607.814152,299.749755 605.88776,299.370091 C604.089914,299.015762 601.769711,298.503279 599.488514,298.087588 C599.082411,298.043979 598.678961,297.978023 598.28,297.89 C598.664386,297.968774 599.051789,298.031819 599.44124,298.078986 Z M613.886022,302.490366 L610,301.48 L613.886022,302.490366 C615.482836,302.860003 617.241418,303.30623 619,303.71 C616.407666,303.11 614.818815,302.71 613.836237,302.49 L613,302.29 C613.288849,302.353525 613.584553,302.42058 613.886022,302.490366 Z M483.253349,287.062829 C480.497576,287.042952 477.744128,287.12184 475,287.12184 C475.347984,287.074263 475.696488,287.033648 476.045371,287 L475.324348,287 C475.260618,286.996473 475.174836,286.992463 475.07458,286.988453 L474.55458,286.988453 C474.6885,286.993071 474.805093,286.996889 474.905805,287 L474.282979,287 C474.055475,286.985855 473.827175,286.988784 473.6,287.008789 L474.4,287.008789 C474.361023,287.005357 474.322013,287.002427 474.282979,287 L474.905805,287 C475.502537,287.018432 475.541763,287.012031 475.324348,287 L476.045371,287 C477.584868,286.851522 479.131729,286.838686 480.673684,286.96184 L480.392481,286.96184 C480.662203,286.964726 480.931926,286.968028 481.201648,286.971867 C481.431721,286.96922 481.669218,286.96727 481.91537,286.966376 C481.109563,286.929061 480.454611,286.9 481.673533,286.9 L486.72756,286.982003 C483.853754,286.90227 485.317684,286.868018 485.825335,286.85 C489.786797,286.93 493.970237,287.01 498,287.15 C494.493973,287.019337 491.344913,287.010623 488.455649,287.010042 L494,287.1 L485.572563,287.1 C485.715042,287.106943 485.857521,287.114217 486,287.12184 C485.784499,287.113624 485.568999,287.106372 485.353501,287.1 L482.510616,287.1 C483.001703,287.089623 483.217865,287.076853 483.253349,287.062829 Z M436.888285,288.128044 C436.607025,288.142659 436.328469,288.157793 436.053766,288.173452 L435.056995,288.173452 C428.779086,288.533452 433.797916,288.133452 435.77397,287.973452 C435.913868,288.073452 433.063453,288.233452 435.913868,288.073452 L436.432431,288.037868 L436.319771,288.037868 C436.728582,288.012317 437.03312,287.99402 437.249216,287.981819 L441.160031,287.713452 C444.902295,287.653452 446.353733,287.673452 447.910095,287.793452 C448.760143,287.758731 443.430546,287.829497 438.337662,288.058073 C437.559554,288.118882 436.780779,288.183406 436,288.250159 C436.295812,288.206617 436.591918,288.165911 436.888285,288.128044 Z M509.207764,288.00975 L512,288.149361 C511.536256,288.163742 509.546733,288.054039 507.811479,287.954084 L505.953177,287.88 L506.076087,287.88 C506.26191,287.88 506.494394,287.884753 506.742926,287.892163 C506.671558,287.888022 506.601554,287.883963 506.533091,287.88 L506.076087,287.88 L505.795151,287.88 C505.110368,287.88 505.303512,287.88 505.900502,287.88 L506.234114,287.88 L499,287.48 L506.550167,287.78 C496.454013,287.26 514.521739,287.96 500.474916,287.36 C505.654682,287.54 503.05602,287.32 511.729933,287.7 C516.049331,288.06 508.973244,287.8 506.655518,287.8 C513.239967,288.04 516.944816,288.38 520,288.64 L512.976589,288.16 L509.207764,288.00975 Z M507.082379,287.90348 C508.457896,287.953645 509.902091,288.053238 506.708194,287.88 L506.612773,287.88 L507.082379,287.90348 Z M400.754715,290.68715 C401.168934,290.648548 401.584195,290.622813 402,290.61 L395,291.39 C395.957516,291.217269 396.92177,291.094585 397.889514,291.022309 C399.118302,290.850143 394.197198,291.362263 393,291.495273 C395.002366,291.195273 397.021994,290.975273 399.041622,290.715273 C401.786022,290.49812 403.170316,290.389232 400.754715,290.68715 Z M399.669044,290.818158 C399.372477,290.862137 399.076673,290.912758 398.781818,290.97 C398.518257,290.981223 398.25488,290.99618 397.991752,291.014862 C398.635822,290.940037 399.192685,290.874742 399.669044,290.818158 Z M662.033445,7.96098039 L662.06,7.93 L662.06,7.95 L662.046923,7.96307692 L662.22,7.99 L662.68,8.15 L662.008193,8.00180723 L661.94,8.07 L662,8 L661.716511,7.93746569 L661.731481,7.95626518 L661.901235,8.04508713 C661.901235,8.02732274 661.833333,8.02732274 661.901235,8.18720226 C661.969136,8.34708178 662.257716,8.1161447 662.257716,8.34708178 L662.257716,8.47143252 C662.546296,8.29378861 662.563272,8.88001352 662.851852,8.70236961 C662.800926,8.86224913 662.783951,8.70236961 662.563272,8.70236961 C662.563272,8.82079889 662.551955,8.97475694 662.529321,9.16424378 C662.49537,9.44847404 662.885802,9.37741648 662.868827,9.44847404 C662.851852,9.51953161 662.563272,9.41294526 662.766975,9.67941113 C662.970679,9.945877 662.953704,9.57282478 663.072531,9.67941113 L662.987654,9.89258383 C663.276235,9.98140578 663.191358,10.1768141 663.276235,10.3366936 C663.32716,10.5321019 663.751543,10.7275102 663.666667,10.7097458 C663.58179,10.6919814 663.58179,10.8696253 663.58179,10.8696253 L663.819444,11.0117405 C663.717593,10.9051541 663.496914,11.0117405 663.54784,11.0117405 C663.598765,11.0117405 663.819444,11.0117405 663.700617,11.0117405 C663.58179,11.0117405 663.58179,11.0117405 663.58179,11.0117405 L663.87037,11.1183268 C663.904321,11.17162 664.023148,11.260442 664.023148,11.3847927 L663.904321,11.3847927 C663.955247,11.3847927 663.649691,11.2249132 663.768519,11.3847927 C663.887346,11.5446722 663.768519,11.4380859 663.768519,11.5446722 C663.800577,11.589404 663.85089,11.6157298 663.904321,11.6157298 C663.957752,11.6157298 664.008065,11.589404 664.040123,11.5446722 C664.074074,11.6867873 664.091049,11.7933737 664.243827,11.7933737 L664.125,11.7933737 L664.226852,11.7933737 L664.023148,11.7933737 C664.091049,11.9710176 664.260802,11.6867873 664.345679,11.9710176 L664.243827,11.9710176 C664.345679,12.1131327 664.345679,12.0065464 664.464506,12.1131327 C664.583333,12.2197191 664.498457,11.9177244 664.66821,12.1131327 C664.643195,12.2000259 664.643195,12.2927055 664.66821,12.3795986 C664.66821,12.4151274 664.66821,12.2019547 664.66821,12.2019547 C664.92284,12.486185 664.447531,12.6460645 664.770062,12.8414728 C664.770062,12.6993577 665.007716,12.7881796 664.854938,12.5572425 C665.041667,12.6283001 664.854938,12.9125304 665.041667,12.9125304 L664.854938,12.9125304 L664.990741,12.9125304 L664.888889,12.9125304 C665.160494,12.9302947 664.973765,13.1612318 665.262346,13.1612318 C664.990741,13.2322894 665.466049,13.3744045 665.262346,13.3566401 C665.058642,13.3388757 664.888889,12.9480591 664.871914,13.125703 C664.854938,13.303347 664.95679,13.303347 664.95679,13.303347 C664.895552,13.2868002 664.8313,13.2868002 664.770062,13.303347 C664.804012,13.5875772 665.058642,13.5875772 665.177469,13.5875772 L665.007716,13.4276977 C665.262346,13.303347 665.279321,13.2678182 665.262346,13.4276977 C665.24537,13.5875772 665.415123,13.5698128 665.415123,13.6941636 C665.601852,13.9073363 665.381173,14.2448597 665.415123,14.2448597 C665.449074,14.2448597 665.669753,14.2093309 665.669753,14.2448597 C665.669753,14.2803885 665.364198,13.9783938 665.669753,13.9783938 C665.5,14.2626241 665.924383,14.1560377 665.924383,14.52909 C665.686728,14.4757968 665.584877,14.6534407 665.686728,14.6534407 C665.78858,14.6534407 665.822531,14.6534407 665.941358,14.6534407 C666.212963,14.760027 666.111111,14.5823831 666.365741,14.760027 C666.229938,14.7244983 666.314815,14.9199066 666.229938,14.9199066 C666.295565,15.0474495 666.447567,15.0951698 666.569444,15.0264928 C666.691322,14.9578158 666.736923,14.7987481 666.671296,14.6712051 C666.925926,14.9021422 666.705247,14.9554354 666.925926,15.1153149 C667.248457,15.3107232 667.41821,15.754833 667.67284,16.0035344 L667.67284,15.8791837 C667.67284,15.9324769 667.876543,16.0212988 667.876543,16.1811784 C667.831276,16.2443406 667.831276,16.3311888 667.876543,16.394351 L667.978395,16.394351 C668.063272,16.5187018 668.148148,16.2877647 668.148148,16.394351 C667.96142,16.6252881 668.436728,16.9095184 668.300926,17.1404555 C668.50463,17.1049267 668.182099,16.891754 668.385802,16.891754 C668.370645,16.9499063 668.370645,17.0112456 668.385802,17.0693979 L668.470679,16.9628116 C668.546675,17.2676654 668.673067,17.5562489 668.844136,17.8155024 C668.841177,17.8690003 668.864026,17.9204918 668.904992,17.9526443 C668.945957,17.9847968 668.999591,17.9933339 669.04784,17.9753819 C669.013889,17.9753819 668.929012,17.9753819 668.929012,17.9753819 C669.234568,17.9753819 668.979938,18.4727848 669.234568,18.4727848 C669.030864,18.5971356 668.996914,18.9879522 668.776235,18.9879522 C668.623457,19.0590097 668.623457,18.7925439 668.453704,18.7925439 L668.453704,18.4550204 C668.419753,18.5616068 668.419753,18.5616068 668.317901,18.5616068 C668.216049,18.5616068 668.216049,18.437256 668.216049,18.5616068 C668.182099,17.7444448 667.45216,17.3713926 667.248457,16.6785813 C667.16358,16.6785813 667.112654,16.7851677 667.16358,16.6785813 C667.214506,16.571995 666.976852,16.6785813 666.976852,16.6785813 L667.061728,16.3765867 C666.891975,16.2700003 666.891975,16.3765867 666.891975,16.3765867 C666.671296,16.1101208 666.654321,15.7015398 666.399691,15.5416603 C666.416667,15.4173095 666.518519,15.4528383 666.518519,15.3284876 C666.416667,15.6482466 666.229938,15.1508437 666.145062,15.3284876 C666.263889,15.0797861 665.958333,14.937671 666.263889,14.7777914 C666.212963,14.6179119 666.07716,14.7777914 666.07716,14.7777914 C666.021603,14.6357872 665.910252,14.5257339 665.771605,14.4757968 C665.78858,14.351446 665.279321,13.8895719 665.415123,13.6053416 C665.330247,13.7829855 665.330247,13.6053416 665.228395,13.6053416 L665.143519,13.7652211 L665.041667,13.5698128 C665.041667,13.534284 665.126543,13.534284 665.041667,13.4276977 C664.95679,13.3211114 664.888889,13.3211114 664.787037,13.3211114 C664.736111,13.214525 664.973765,13.4632265 664.973765,13.214525 C664.939815,13.2322894 664.685185,12.9658235 664.753086,13.1079387 C664.820988,13.2500538 664.905864,13.1079387 664.905864,13.1079387 L664.820988,12.9658235 L664.685185,13.125703 C664.430556,12.6993577 664.243827,12.1841903 663.955247,11.7578449 C664.074074,11.669023 663.734568,11.4380859 663.955247,11.3314995 C663.955247,11.4203215 663.955247,10.8696253 663.955247,11.1005624 C663.955247,11.3314995 663.649691,11.082798 663.768519,11.3314995 L663.564815,11.2249132 C663.123457,11.4025571 663.276235,10.7275102 662.987654,10.5498663 C662.648148,10.4077512 662.733025,9.945877 662.648148,9.945877 L662.733025,9.83929065 C662.444444,9.7504687 662.410494,9.7504687 662.325617,9.44847404 C662.191455,9.47678876 662.056741,9.40259037 662.003086,9.27083013 L661.816358,9.02212865 C662.138889,8.79119157 661.341049,8.720134 661.62963,8.40037496 C661.510802,8.41813935 661.358025,8.20496665 661.256173,8.20496665 C661.018519,8.22273104 661.188272,7.93850078 661.018519,7.77862126 C660.848765,7.61874174 660.848765,7.77862126 660.848765,7.77862126 C660.861988,7.55722874 660.566235,7.33583621 660.386684,7.19 L660.21,7.19 L659.43,6.81 C659.714139,6.92326907 660.003076,7.02397885 660.29597,7.11184934 C660.286383,7.10253191 660.27818,7.09383779 660.271605,7.08581 C660.169753,6.96145926 660.390432,6.96145926 660.475309,6.96145926 C660.271605,6.65946461 660.033951,6.99698804 660.033951,6.65946461 L660.152778,6.76605096 C660.101852,6.60617144 660.594136,6.53511387 660.407407,6.42852752 C660.186728,6.17982604 660.628086,6.19759044 660.186728,6.00218213 L660,6.00218213 L660.169753,6.00218213 C660.186728,6.00218213 660.203704,6.00218213 660.492284,6.00218213 C660.628086,5.87783139 660.882716,6.0732397 660.729938,5.87783139 L660.645062,5.87783139 C660.791654,5.85940366 660.939827,5.85940366 661.08642,5.87783139 C661.103395,5.87783139 661.341049,6.05547531 661.239198,5.87783139 C661.137346,5.70018748 661.986111,5.6468943 661.816358,5.70018748 C661.646605,5.75348065 661.765432,5.98441774 661.816358,5.87783139 C661.867284,5.77124504 661.969136,5.77124504 662.070988,5.77124504 C662.054012,5.55807235 662.223765,5.29160648 662.223765,5.29160648 C662.308642,5.29160648 662.308642,5.2383133 662.308642,5.29160648 C662.308642,5.34489965 662.308642,5.451486 662.308642,5.451486 C662.410494,5.27384209 662.817901,5.09619817 662.733025,5.27384209 C662.648148,5.451486 662.733025,5.451486 662.733025,5.451486 C662.699074,5.30937087 663.03858,5.61136552 662.902778,5.30937087 C663.32716,5.451486 663.989198,5.22054891 664.057099,5.30937087 C664.125,5.39819283 664.260802,5.20278452 664.260802,5.20278452 L664.260802,5.30937087 C664.396605,5.07843378 664.37963,5.22054891 664.566358,4.97184744 C664.498457,5.11396257 664.549383,5.2383133 664.66821,5.2383133 L664.753086,4.98961183 L664.753086,5.13172696 C664.804012,5.13172696 664.95679,5.13172696 664.95679,5.13172696 C664.939815,4.90078987 665.21142,4.86526109 665.21142,4.74091035 C665.330247,4.8474967 665.381173,4.54550204 665.483025,4.74091035 L665.483025,4.634324 C665.483025,4.49220887 665.483025,4.49220887 665.483025,4.49220887 L665.483025,4.61655961 C665.523208,4.57014616 665.576916,4.53892158 665.635802,4.52773765 L665.720679,4.52773765 C665.759342,4.56392642 665.817818,4.56392642 665.856481,4.52773765 C666.111111,4.66985278 666.263889,4.13692104 666.552469,4.33232935 C666.467593,4.33232935 666.280864,4.33232935 666.467593,4.33232935 C666.654321,4.33232935 666.891975,4.47444448 666.993827,4.33232935 L666.993827,4.225743 C667.095292,4.14046704 667.210179,4.07434227 667.333333,4.0303347 L667.333333,3.90598396 C667.520062,3.90598396 669.808642,2.65728248 669.978395,2.90598396 C669.99537,2.79939761 670.216049,2.79939761 670.300926,2.79939761 C670.401242,2.78705186 670.495783,2.74376717 670.572531,2.67504687 C670.681595,2.7194322 670.773357,2.70270978 670.856309,2.66284795 C670.814103,2.53558811 670.75418,2.47566491 670.885308,2.60679324 C670.893805,2.61529038 670.902213,2.6240995 670.910522,2.63318694 C671.035961,2.55694883 671.144153,2.44410978 671.268519,2.44410978 L671.455247,2.30199465 C671.421296,2.49740296 671.506173,2.30199465 671.557099,2.30199465 C671.608025,2.30199465 671.726852,2.30199465 671.828704,2.30199465 L671.964506,2.30199465 C671.845679,2.42634539 672.083333,2.42634539 672.083333,2.55069613 L672.083333,2.42634539 C672.083333,2.53293174 672.049383,2.6217537 672.083333,2.53293174 C672.117284,2.44410978 672.304012,2.39081661 672.304012,2.24870148 C672.388889,2.23093709 672.117284,1.98223561 672.304012,2.14211513 C672.490741,2.30199465 672.524691,2.12435074 672.694444,2.30199465 C672.473765,2.12435074 672.966049,2.17764391 672.813272,2 C672.939325,2.07195267 672.926134,2.03866449 672.940807,2.04768915 C672.93964,2.03510813 672.940353,2.02203503 672.942417,2.00888889 L672.940978,2.00888889 C672.941473,2.00888889 672.941956,2.00886437 672.942428,2.00881716 C672.954377,1.93287994 673.011358,1.85453125 673.011358,1.85453125 C672.97261,1.89327879 672.967567,1.93662236 672.977148,1.97777778 L673.009567,1.97777778 C673.044482,1.92689741 673.065298,1.88748507 672.986525,1.94 C672.986525,1.94 673.013665,1.94 673.034411,1.94838305 L673.08,1.88 L673.036048,1.94906783 C673.055142,1.95734239 673.067846,1.97316766 673.046601,2.00343379 C673.051149,2.00505908 673.055936,2.00687232 673.060978,2.00888889 L673.042523,2.00888889 C673.034157,2.0194591 673.021906,2.0316512 673.004774,2.04571403 C673.045699,2.11966768 673.101449,2.16831529 673.011358,2.13453125 C672.99381,2.12795073 672.980111,2.11944561 672.969628,2.10951722 C672.837795,2.13550885 672.773479,2.32831749 672.694444,2.44410978 L672.830247,2.44410978 C672.847222,2.65728248 672.524691,2.55069613 672.541667,2.55069613 C672.558642,2.55069613 672.694444,2.55069613 672.694444,2.55069613 L672.609568,2.408581 C672.439815,2.408581 672.185185,2.69281126 672.287037,2.69281126 C672.388889,2.69281126 672.185185,2.90598396 672.287037,2.90598396 C672.388889,2.94151274 672.575617,3.10139226 672.287037,3.08362787 C671.998457,3.06586348 671.37037,3.225743 671.438272,3.24350739 C671.506173,3.26127178 671.625,3.13692104 671.625,3.13692104 L671.251543,3.13692104 C671.33642,3.13692104 671.743827,3.225743 671.591049,3.13692104 C671.438272,3.04809909 671.760802,2.83492639 671.438272,2.78163322 C671.224421,2.74629777 671.234451,2.93744054 671.166531,3.07026795 C671.191331,3.1403507 671.205308,3.20255734 671.205308,3.24679324 C671.145945,3.20092764 671.062686,3.20246456 671.005055,3.2504898 C670.947425,3.29851503 670.930899,3.3801321 670.965308,3.44679324 C670.965308,3.42679324 671.005308,3.34679324 671.005308,3.34679324 L670.885308,3.46679324 C670.827425,3.39237123 670.800311,3.30085467 670.795486,3.21910135 C670.627363,3.38278443 670.554292,3.62897309 670.606481,3.86526109 C670.691358,3.72314596 670.996914,3.634324 670.912037,3.72314596 C670.82716,3.81196791 670.844136,4.22054891 670.708333,4.00737622 C670.572531,3.79420352 670.79321,3.77643913 670.708333,3.79420352 C670.623457,3.81196791 670.606481,4.06066939 670.623457,3.91855426 C670.640432,3.77643913 670.691358,3.66985278 670.487654,3.77643913 C670.283951,3.88302548 670.131173,3.88302548 669.893519,3.88302548 L669.893519,3.75867474 C669.791667,3.8474967 669.910494,4.2560777 669.791667,4.2560777 C669.67284,4.2560777 667.638889,5.2560777 667.537037,5.2560777 C667.757716,5.41595722 667.67284,5.36266404 667.537037,5.41595722 C667.401235,5.46925039 667.401235,5.32713526 667.401235,5.32713526 C667.388941,5.37363346 667.388941,5.42275219 667.401235,5.46925039 C667.401235,5.36266404 667.520062,5.07843378 667.401235,4.95408304 C667.27873,4.87795677 667.147555,4.81827286 667.010802,4.77643913 C667.042906,5.10496656 667.147507,5.42119616 667.316358,5.70018748 C667.333333,5.87783139 667.299383,5.82453822 667.112654,5.70018748 C666.925926,5.57583674 666.925926,5.87783139 666.790123,5.87783139 L666.790123,5.75348065 C666.756173,5.71795187 666.58642,5.96665335 666.58642,5.89559578 C666.58642,5.82453822 666.875,5.46925039 666.58642,5.50477917 C666.29784,5.54030796 666.29784,5.91336017 666.29784,6.09100409 L666.58642,5.80677383 C666.637346,5.94888896 666.450617,6.01994652 666.450617,6.19759044 L666.128086,6.19759044 C666.128086,6.17982604 666.314815,5.93112457 666.128086,6.03771091 C665.979488,6.12253251 666.013647,6.07235176 665.982462,6.04832132 C665.971643,6.06056473 665.95249,6.06949973 665.919129,6.07211394 C665.908061,6.09551775 665.893349,6.10876848 665.873457,6.10876848 C665.720679,6.10876848 665.941358,5.6646587 665.720679,5.71795187 C665.5,5.77124504 665.601852,6.23311922 665.364198,6.23311922 L665.466049,6.23311922 C665.415123,6.23311922 665.347222,6.30417678 665.228395,6.23311922 C665.109568,6.16206165 665.109568,5.91336017 665.109568,5.91336017 L664.973765,6.25088361 C664.980674,6.13849193 664.980674,6.02575186 664.973765,5.91336017 C664.973765,5.93112457 664.973765,6.268648 664.973765,6.268648 C664.770062,6.12653287 664.770062,6.03771091 664.651235,6.03771091 C664.532407,6.03771091 664.091049,6.4818207 664.091049,6.4818207 C664.022771,6.52307363 663.938649,6.52307363 663.87037,6.4818207 C663.926522,6.42305915 663.929932,6.33070225 663.911786,6.22768111 L663.91,6.25 C663.91,6.24050436 663.910334,6.2315653 663.910975,6.22315347 C663.878949,6.04685577 663.785494,5.84048995 663.785494,5.71795187 L663.564815,6.55287826 C663.575026,6.44655972 663.575026,6.33943776 663.564815,6.23311922 C663.58179,6.46405631 663.140432,6.60617144 662.902778,6.60617144 C662.936728,6.60617144 662.665123,6.60617144 662.665123,6.60617144 C662.478395,6.4818207 662.529321,6.99698804 662.342593,6.81934413 C662.478395,6.81934413 662.580247,6.53511387 662.478395,6.64170022 C662.376543,6.74828657 662.104938,6.71275778 662.20679,6.96145926 C662.121914,6.83710852 662.037037,6.96145926 662.037037,6.83710852 L661.799383,7.05028122 C661.969136,7.05028122 662.070988,6.78381535 662.17284,6.94369487 C662.17284,6.76605096 662.17284,6.69499339 662.17284,6.55287826 C661.915947,6.67049333 661.795729,6.96292078 661.654187,7.18966117 L662.035244,7.30013692 C660.684163,6.73517331 664.105733,7.40606759 663.965361,7.10593068 C665.474361,7.75916985 668.211617,7.88275564 670.685675,8.87144195 C671.247163,9.03033797 670.229465,8.62427038 670.545303,8.67723571 C671.445124,9.13876693 672.384811,9.51696817 673.352745,9.80716293 L673.212373,9.80716293 C675.195128,10.5486777 676.633942,11.0606759 678.142943,11.5726742 C679.939691,12.1402896 681.698022,12.8243855 683.406896,13.6206673 L683.038419,13.6206673 C683.985931,14.04439 684.196489,14.0973553 684.652699,14.2739065 C685.635303,14.9448007 682.020722,13.0557037 682.898047,13.7089429 C684.231582,14.04439 689.477989,16.7456223 690.443048,16.8868632 C691.881862,17.5577574 689.969292,16.8868632 691.390559,17.487137 L691.794129,17.6283779 L692.09242,17.9108597 C692.545149,18.2120004 693.051667,18.4218576 693.583873,18.5287886 L692.724094,18.0167904 C693.95235,18.5994091 696.040385,19.8882323 696.461501,20.1000937 L695.092873,19.3938892 L701.163967,22.8013259 C703.164269,24.0901492 705.147025,25.3789724 706.866583,26.561865 L706.568292,26.4559343 C709.165176,28.2214456 708.796699,27.7094473 711.621688,29.7750955 L711.533955,29.6868199 C712.060351,30.1458529 712.797304,30.7108165 713.586897,31.2757801 C712.902583,30.6931613 715.008165,32.1408806 714.113293,31.3993659 C715.208364,32.1571069 716.246422,32.9950535 717.219025,33.9063919 L717.692781,34.1359083 C718.316844,34.7716642 718.985319,35.3616746 719.693084,35.9014196 C718.6052,34.9480435 720.658142,36.4663832 719.464979,35.3894213 C722.447886,37.5080349 723.570863,38.9204439 725.079863,39.7855444 C726.220386,41.0567125 722.500526,37.9141025 723.202386,38.5496865 C722.535619,38.1259638 724.167444,39.5736831 725.079863,40.3151978 C726.482955,41.1810578 727.825478,42.1425676 729.098014,43.1929812 L728.659351,42.7869136 C729.519131,43.4578079 730.220991,44.2875982 731.291328,45.0997334 C731.765084,45.7353174 732.624863,46.2649708 732.64241,46.5651077 L730.659654,44.7995965 C731.91302,46.1415668 733.242955,47.4089934 734.642712,48.5954457 C734.519887,48.4365497 734.011038,47.8892412 733.642561,47.5184838 C734.239142,47.9598616 734.677805,48.489515 735.291933,48.9662031 C735.291933,48.6660662 732.852968,46.7416589 731.782631,45.4351805 C732.449398,45.8942134 734.011038,47.6244145 733.537282,46.9005549 C734.204049,47.9245514 735.765689,48.7719968 737.046584,50.3256468 L737.046584,50.1490956 C737.257142,50.3786121 737.695805,50.8729552 738.116922,51.2790228 L737.467701,50.4315774 C738.538038,51.6497802 739.801387,52.5148807 740.854177,53.644808 C738.520491,51.3849535 740.24005,53.2387404 739.187259,52.3559847 C741.942061,55.2690783 741.082282,53.7154284 744.240654,56.8933487 C743.837085,56.4519709 742.486003,55.3573539 743.20541,56.0635584 C743.924817,56.7697629 744.661771,57.405347 745.06534,57.8290697 C747.100736,60.0006486 744.661771,57.5995532 745.46891,58.5529293 C746.124048,59.1842259 746.7121,59.8824223 747.223561,60.6362326 L747.311294,60.5479571 C749.715166,62.9490524 747.749957,61.3777474 749.925724,63.514016 L749.171224,62.4723643 L750.224015,63.6552569 L750.118736,63.3198098 C751.241713,64.6262881 751.575096,65.085321 752.750713,66.2682136 C752.417329,66.0386971 752.750713,66.5860056 753.715771,67.7159328 C754.452724,68.4397925 753.435027,67.2039346 754.821201,68.8105498 C754.50054,68.2481482 754.0849,67.7462936 753.592945,67.3275204 C753.592945,67.2215897 753.329748,66.9214528 753.294655,66.8155221 C754.101794,67.5746919 755.154585,68.8811703 755.663434,69.4461339 L755.101945,68.8458601 L757.014515,71.2646105 C757.365446,71.6000576 757.137341,71.2646105 756.926783,70.9821287 C757.330353,71.4411616 757.540911,71.8295741 758.137492,72.5357786 C758.04976,72.288607 758.137492,72.2709519 757.382992,71.2293003 L759.137643,73.5774303 C759.295562,73.683361 760.190434,74.6543922 759.979876,74.3366001 C761.050213,75.5548029 762.418841,77.5145204 763.787469,79.174101 C763.921043,79.4099129 764.073625,79.6342974 764.243678,79.8449953 C765.507027,81.4339555 766.717737,82.775744 768.068818,84.7707718 L769.033876,85.7594581 C770.104213,87.313108 767.752981,84.4000144 769.542725,86.995316 C770.806074,88.7608273 770.156853,87.5602796 770.648155,88.1782085 C771.546326,89.5560815 772.512597,90.8877721 773.54333,92.168264 C773.1924,91.6386107 772.876562,91.2148879 772.525632,90.6852346 L773.49069,91.9210925 C772.595818,90.1555812 771.736039,89.2022051 772.701097,90.2968221 C772.543179,90.6675794 776.052481,95.3461843 775.877016,95.7169417 C776.087574,95.9994235 776.315679,96.2642502 776.50869,96.546732 C776.350772,96.2995604 776.350772,96.2465951 776.175307,95.9994235 C777.403563,97.6060388 776.754342,97.4118325 778.140516,99.5304461 C778.631818,100.289616 779.017842,100.783959 778.719551,100.254306 C779.052935,100.836924 779.386318,101.419543 779.667063,102.019817 C779.947807,102.620091 779.947807,102.355264 779.667063,101.860921 L781.158516,104.526843 C781.369074,104.968221 781.755098,105.850976 781.930563,106.292354 C782.106028,106.733732 781.790191,105.921597 781.930563,106.080493 L782.64997,107.616488 C783.05354,108.181451 782.474505,106.892628 781.913016,105.850976 C782.965807,107.086834 782.492051,107.1398 784.264249,110.052893 L783.562388,108.622829 C784.335584,109.751858 785.033141,110.93148 785.650423,112.153852 C785.387226,111.800749 783.7554,109.064207 784.492354,110.741443 C784.841146,111.384059 785.157388,112.044027 785.439865,112.718815 C785.874672,113.307146 786.223307,113.955222 786.475109,114.643223 L786.597935,114.501982 C786.85605,115.108507 787.067235,115.734181 787.229609,116.373424 C787.493144,117.022183 787.867239,117.619659 788.33504,118.138935 C789.335191,120.257548 787.475261,116.761836 788.598237,119.286517 C789.422924,121.052029 789.896679,122.340852 790.686272,124.583051 C791.230214,125.836564 790.686272,124.318224 790.914377,124.759602 L791.230214,125.92484 C791.335493,126.207321 791.335493,126.101391 791.35304,126.048425 C791.668877,127.019457 791.212668,126.189666 791.739063,127.690351 C791.739063,128.149384 793.142784,130.674065 793.493714,132.616127 C793.704273,133.057505 793.493714,132.351301 793.61654,132.474887 C794.388586,135.070188 794.248214,134.717086 794.757063,136.888665 L795.406284,138.654176 C794.879889,137.365353 795.283459,139.095554 795.546656,140.649204 C795.371191,140.172516 795.195726,139.766448 795.107993,139.519277 L795.669482,141.938027 C795.774761,142.220509 795.669482,141.938027 795.669482,141.549614 L795.757214,142.008647 C796.037959,142.838438 796.020412,142.379405 795.950226,141.743821 L795.616842,140.896375 C795.616842,140.278446 795.511563,139.695828 795.616842,139.801758 C795.660103,140.069759 795.718689,140.335026 795.792307,140.596238 C795.792307,140.437342 795.792307,140.331412 795.792307,140.384377 C795.850652,140.628309 795.891698,140.876105 795.915133,141.125892 L796.248517,141.620235 L796.248517,141.779131 C796.564354,142.820783 796.915284,143.844779 797.178482,144.904086 C797.529412,147.216906 797.73997,149.247244 798.319005,152.884197 C798.319005,151.948476 798.512017,152.637025 798.652389,152.566405 C798.283912,151.613029 798.231273,149.723932 797.757517,147.870145 C798.003168,148.841176 798.020715,148.61166 797.985622,148.364488 C798.19618,149.47676 798.336552,150.624342 798.512017,151.736615 C798.617296,151.648339 798.740122,152.442819 798.968226,153.30792 C798.617296,152.689991 799.213877,155.850256 799.336703,157.227355 C799.336703,157.227355 799.477075,156.962528 799.196331,155.285292 C799.670087,157.050803 799.196331,157.721698 799.670087,159.522519 C799.653744,159.252057 799.653744,158.980846 799.670087,158.710384 C799.702438,159.639529 799.831824,160.562673 800.05611,161.464582 L800.05611,161.058514 C800.484338,163.980081 800.648777,166.934663 800.547412,169.88607 C800.682174,169.732174 800.783744,169.551824 800.845703,169.356417 L800.196482,174.264538 C800.379358,173.846338 800.830021,175.31424 800.921621,173.532323 L800.8,173.328 L801.2,172 C801.101573,172.664342 801.101573,173.335658 801.2,174 L800.965751,173.606462 C801.020415,174.419535 801.009643,175.235947 800.933436,176.047705 C800.933436,175.606327 800.687784,174.935433 800.652691,175.553362 C800.828156,177.318873 800.740424,176.700944 800.880796,178.784247 C800.880796,178.113353 800.547412,178.784247 800.494773,179.896519 C800.494773,179.737623 800.793063,180.00245 800.845703,179.614038 L800.336854,182.226994 C800.442133,181.573755 800.600052,182.121064 800.635145,182.721337 C800.635145,182.438856 800.442133,184.981192 800.354401,185.687396 L800.354401,184.557469 C800.133145,186.510646 799.775481,188.445724 799.284063,190.348346 C799.406889,190.012899 799.810459,189.536211 799.599901,191.01924 C798.856758,192.77014 798.269569,194.583967 797.845249,196.43936 L797.845249,196.933703 L797.283761,198.858111 C797.529412,198.275492 798.020715,197.092599 798.406738,195.962672 C798.792761,194.832745 799.161238,193.437991 799.406889,192.519925 C799.388671,193.177763 799.318261,193.833086 799.196331,194.479643 C799.196331,195.079916 799.459529,193.614542 799.547261,193.120199 C799.336703,194.409022 799.178784,195.697845 798.933133,196.969013 C798.810308,196.757152 798.073354,199.829142 797.968075,199.634936 C798.319005,198.275492 798.810308,196.951358 799.055959,195.556604 C799.055959,195.450674 798.792761,196.050948 798.476924,196.969013 C798.068293,198.124638 797.728458,199.303735 797.459226,200.500036 C797.371494,201.206241 797.880342,200.076313 797.932982,200.129279 C797.641082,201.040149 797.395117,201.965279 797.196028,202.901131 L797.564505,201.788859 C797.231121,203.289544 796.827552,204.189955 796.406435,205.973121 C796.282551,206.630033 796.118471,207.278621 795.915133,207.915183 C796.037959,206.873532 795.494017,206.502774 795.143087,207.120703 C795.143087,207.332565 794.335947,210.333934 794.213121,211.057793 C794.055203,212.099445 795.037807,209.680695 794.897435,210.56345 C794.75097,210.810354 794.627614,211.070412 794.528959,211.340275 C794.37104,211.993514 794.757063,211.128414 794.300854,212.505513 C794.072749,212.682064 793.248063,215.25971 793.914831,213.088131 C793.353342,214.39461 793.405982,214.50054 792.791854,216.05419 C792.791854,215.524537 791.896982,217.290048 791.335493,218.596527 C791.335493,218.596527 791.335493,218.843698 791.335493,219.002594 C790.300249,221.703826 789.580842,223.09858 788.492958,225.552641 C788.492958,225.799813 787.93147,227.00036 788.229761,226.541327 C787.952594,226.985642 787.70069,227.445413 787.475261,227.918426 C786.931319,229.454421 788.299947,226.258846 787.93147,227.459393 C787.826191,227.459393 786.843586,229.224905 786.176819,230.319522 C786.176819,229.913454 787.475261,227.918426 787.93147,226.788499 C787.843737,226.788499 787.510354,227.159256 787.071691,227.900771 C786.633028,228.642286 785.913621,229.666282 785.194214,230.849175 C784.088784,232.791237 784.86083,231.784896 784.650272,232.102688 C782.702609,235.827917 782.632423,235.068747 780.930412,238.105426 C780.33383,239.341284 781.14097,238.299632 781.070784,238.617425 C782.070935,237.08143 782.474505,236.198674 783.106179,235.086402 C782.878074,235.545435 782.614877,235.969158 782.369226,236.410535 C782.862709,235.756942 783.286176,235.052713 783.632574,234.309577 C783.331257,235.219125 781.08221,238.714171 779.389674,241.454373 C779.590038,241.218999 779.583416,241.278954 778.943703,242.187188 C778.901006,242.265466 778.864639,242.32159 778.833025,242.362427 C778.667291,242.635392 778.511433,242.895037 778.368621,243.137133 C777.982597,243.578511 777.386016,244.372991 777.596574,243.949269 L778.210702,243.119478 C778.649365,242.289688 776.9649,244.620163 777.66676,243.525546 C776.824528,244.602508 775.912109,245.803055 774.789132,247.427326 L774.7014,247.815738 C774.991353,247.281982 775.325945,246.774034 775.701551,246.297399 C775.034205,247.394197 774.301772,248.449532 773.508237,249.457664 L774.192551,248.292426 C773.367865,249.387043 772.157155,250.605246 771.157004,252 C771.507934,251.27614 771.402655,251.699863 771.999237,250.622901 C771.771132,251.099589 772.4379,250.234489 773.069574,249.440009 C773.701248,248.645529 774.175004,247.833393 773.806528,248.610218 C774.332923,247.462636 774.964597,246.844707 775.736644,245.344022 C775.736644,245.344022 775.490993,245.873676 776.298132,244.673128 L776.50869,244.443612 C776.373394,244.650879 776.255989,244.869423 776.15776,245.096851 C776.649063,244.567198 777.912411,242.713411 778.438807,242.077827 C778.965202,241.442243 778.210702,242.360308 778.438807,241.936586 L779.123121,241.000865 C779.123121,240.841969 780.140818,238.970527 779.123121,240.630107 L780.070632,239.094113 C780.579481,238.158392 781.316435,236.904879 781.825284,236.163364 C782.334133,235.421849 783.05354,234.397853 782.59733,234.980471 L784.018598,232.526411 C785.572094,229.975476 786.927215,227.307485 788.071842,224.5463 C788.510505,223.716509 788.949168,222.780788 789.580842,221.40369 L789.580842,221.085898 C790.177424,220.026591 790.844191,217.678461 791.160028,217.254738 C791.35304,215.930605 793.300703,211.799308 793.792005,209.73366 L793.949924,209.73366 C794.37104,208.321251 794.827249,206.997118 795.423831,205.284572 L795.511563,205.425812 C796.125691,203.978093 796.406435,201.506377 797.03811,199.105282 C796.896603,199.493675 796.796609,199.896127 796.739819,200.30583 C796.932831,198.840455 797.38904,197.339771 797.73997,195.856741 C798.064503,194.441535 798.310534,193.009258 798.476924,191.566549 C798.59207,191.035924 798.67992,190.499672 798.740122,189.959934 L798.740122,190.11883 C798.733532,190.030679 798.733532,189.942154 798.740122,189.854003 C798.740122,189.553866 798.740122,189.236074 798.827854,188.918282 C798.827854,189.218419 798.827854,189.483246 798.827854,189.695107 C798.827854,189.200764 799.038412,188.441594 799.178784,187.664769 L799.073505,187.329322 L799.073505,187.152771 C799.073505,186.393601 799.196331,186.552497 799.24897,186.958565 C799.289692,186.626059 799.348266,186.296014 799.424436,185.969878 C799.266517,185.334294 799.65254,183.957195 799.512168,183.10975 C799.634994,182.597752 799.950831,179.27859 800.143843,178.872523 C800.143843,178.872523 800.143843,178.625351 800.143843,179.031419 C800.098747,178.208138 800.098747,177.382984 800.143843,176.559703 L799.985924,176.188946 L800.249122,174.317504 C800.126296,173.187577 800.05611,172.710889 799.950831,173.840816 C800.091203,171.121928 799.950831,171.633927 800.126296,169.303452 L800.021017,169.427038 C800.032105,168.542616 799.991092,167.65831 799.898191,166.778771 C799.687633,165.013259 799.038412,157.651077 797.985622,153.007783 C798.459377,153.855228 797.44168,150.853859 797.634691,150.624342 C797.511866,150.377171 797.336401,149.723932 797.424133,150.500757 C797.055656,148.099661 796.511714,146.969734 796.353796,145.292498 C796.23097,145.027672 796.353796,145.822152 796.266063,145.592635 C796.234618,145.25015 796.163963,144.912465 796.055505,144.586294 C796.055505,144.356777 796.055505,144.957051 796.143238,145.327809 C795.581749,142.926713 795.669482,142.626576 795.844947,142.39706 C795.49958,141.530911 795.269483,140.622638 795.160633,139.695828 C794.985168,139.28976 794.72197,138.601211 795.160633,140.101895 C794.950075,139.25445 793.511261,135.070188 793.669179,134.928947 C793.546354,134.681776 793.283156,133.781365 793.21297,133.551848 C792.581296,131.786337 792.51111,131.556821 791.879435,129.755999 L792.089993,130.250342 C791.858621,129.23079 791.511249,128.241462 791.054749,127.301938 C789.633482,124.071053 790.59854,125.836564 789.107086,122.693954 L789.282551,122.81754 C788.701006,121.2145 788.003113,119.656651 787.194516,118.15659 L787.562993,118.792174 C786.925474,117.543284 786.222628,116.329264 785.457412,115.155221 C785.334586,114.94336 785.597784,115.508323 785.703063,115.826115 C784.316888,113.283779 785.703063,115.420048 784.790644,113.46033 C784.527447,113.142538 784.790644,114.025294 784.141423,112.718815 C783.325547,110.818486 782.411891,108.962186 781.404167,107.157455 C781.667365,107.510557 781.930563,107.863659 781.509446,106.945593 C780.825132,105.568495 779.245946,103.414571 778.772191,102.125748 C778.649365,101.966852 778.596725,101.913886 778.579179,101.913886 C778.035237,100.872235 776.666609,98.6123802 776.403411,97.9414859 C775.508539,97.2352814 772.525632,91.7445413 772.227341,91.9740578 C771.560574,90.9677164 770.82362,90.0143403 770.139306,89.025654 L770.139306,89.1315846 C769.336183,88.085093 768.609044,86.981734 767.963539,85.8300785 C767.630155,85.4063558 767.823167,85.8300785 767.840713,85.8300785 C766.43986,84.1431994 765.139157,82.3746142 763.945388,80.5335447 L763.664643,80.3746487 C763.27862,79.7037544 760.453632,76.7023852 758.40069,74.0541183 C758.449614,74.1687798 758.514611,74.2757976 758.593701,74.3719104 C756.382841,71.3528861 752.452422,67.9101391 751.926027,66.5506954 L750.381934,64.6262881 C752.522608,66.9744181 750.206469,64.1319449 751.136434,65.0500108 C750.346841,64.0789796 748.802748,62.8078115 749.873085,63.9200836 L750.04855,64.0789796 C750.259108,64.6615983 747.258654,61.2894718 747.188468,61.4660229 C745.030247,59.1885134 742.889573,56.9639692 740.643619,54.9159761 C738.397666,52.867983 736.327177,50.7140592 734.09877,48.8073071 L734.730445,49.107444 L733.186352,47.7656554 C732.765235,47.4302083 732.554677,47.394898 733.642561,48.3659292 C732.99706,47.8417532 732.408861,47.2499136 731.88791,46.600418 C729.712142,44.8349067 732.572224,47.5184838 731.88791,46.9358651 L731.010584,46.141385 L731.221142,46.300281 C730.60749,45.5888776 729.938617,44.9276718 729.22084,44.3229084 C728.378607,43.6167039 728.729537,44.0404266 728.396154,43.7579448 C728.396154,43.7579448 728.273328,43.6696692 727.887305,43.316567 C727.238084,42.7516034 726.55377,42.2396051 725.887002,41.6922966 L726.781875,42.22195 C725.957189,41.445125 724.904398,40.7036103 725.939642,41.3215392 C724.395549,40.4564387 718.447281,35.2834907 717.44713,34.8421128 C716.236421,33.8004612 714.955525,32.8823953 713.358793,31.7524681 C713.779909,31.9996397 714.113293,32.0349499 712.727118,31.0639187 C713.007862,31.734813 710.182874,29.2984074 708.849339,28.8570296 C709.972316,29.3690279 704.848734,26.2440729 706.585839,27.0915183 C705.392676,26.3500036 706.445467,27.0915183 705.497955,26.6501405 C704.129327,25.6791093 702.567688,24.7080781 700.918315,23.6840816 C699.268943,22.660085 697.409013,21.9185703 695.654362,20.8062982 C695.654362,20.8062982 696.250943,21.0005044 695.51399,20.5061613 L693.373315,19.7823017 C692.801413,19.2894907 692.155994,18.8903101 691.460745,18.5994091 C691.671303,18.5994091 691.969594,18.7759602 691.460745,18.4934784 L680.266071,13.3381855 L674.405535,11.1312964 L671.475268,10.1072998 C670.983965,9.94840383 670.51021,9.77185271 670.018907,9.64826692 L668.509907,9.31281977 C669.597791,9.50702601 668.895931,9.31281977 668.071244,9.08330331 C668.274155,9.12940541 668.325679,9.12637094 668.317813,9.10261104 C668.004648,9.0257556 667.695061,8.93479713 667.39,8.83 L668.305943,9.0852629 C668.263751,9.03937305 668.134549,8.96144847 668.211617,8.94206241 L664.860233,8.21820278 C664.429859,7.96108711 662.597517,7.52764058 661.607202,7.22792513 L661.341049,7.22792513 L661.341049,7.14349135 C661.303225,7.13074968 661.267763,7.11837297 661.234897,7.1063937 C661.235912,7.12915934 661.237345,7.15190964 661.239198,7.17463196 C661.22568,7.14633984 661.205434,7.11593559 661.182881,7.08692321 C661.153157,7.07547063 661.126122,7.0644278 661.102007,7.05382653 C661.205965,7.20856637 660.813461,6.98134928 660.780864,7.03251683 C660.746914,7.08581 660.984568,7.21016074 660.984568,7.21016074 L660.899691,7.21016074 L661.052469,7.31674709 C660.967593,7.19239635 660.763889,7.08581 660.814815,7.19239635 C660.865741,7.2989827 660.933642,7.28121831 661.018519,7.40556904 C661.103395,7.52991978 661.527778,7.52991978 661.375,7.52991978 C661.222222,7.52991978 661.052469,7.52991978 661.052469,7.52991978 L661.341049,7.52991978 L661.137346,7.52991978 C661.222222,7.52991978 661.103395,7.51215539 661.222222,7.52991978 C661.341049,7.54768417 661.782407,7.31674709 661.646605,7.42333344 C661.510802,7.52991978 661.595679,7.52991978 661.408951,7.52991978 C661.290123,7.74309248 661.646605,7.45886222 661.408951,7.74309248 C661.375,7.74309248 661.205247,7.74309248 661.205247,7.74309248 L661.324074,7.74309248 L661.561728,7.74309248 L661.693074,7.90803373 L662.033445,7.96098039 Z M665.947767,5.92995801 C665.957071,5.93107411 665.961928,5.9329 665.957655,5.9329 C665.95361,5.9329 665.96347,5.9345357 665.980286,5.93681479 C666.091629,5.64068108 666.180783,5.33587 666.246914,5.02514061 L666.111111,5.16725574 C665.946054,5.27829602 665.969328,5.68924825 665.947767,5.92995801 Z M661.341049,7.09887668 L661.341049,7.05028122 C661.315176,6.94541445 661.315176,6.83538894 661.341049,6.73052217 L661.442901,6.73052217 C661.442901,6.62393583 661.527778,6.46405631 661.442901,6.46405631 C661.442901,6.30417678 661.442901,6.30417678 661.442901,6.30417678 L661.256173,6.42852752 L661.391975,6.55287826 C661.290123,6.69499339 661.256173,6.85487291 661.391975,6.96145926 L661.239198,6.87263731 C661.233907,6.93753429 661.232034,7.00265963 661.233577,7.06771836 L661.341049,7.09887668 Z M661.145448,7.04216817 L661.078969,7.02289467 C660.984323,6.89939214 661.064582,6.95187746 661.145448,7.04216814 Z M671.003875,2.06612495 L671.003875,2.07 C671.003638,2.06894113 671.003406,2.06788136 671.003179,2.06682072 L670.96,2.11 L670.978384,2.00888889 L670.94,2.00888889 C670.94,1.99305212 670.95881,1.98975551 670.981536,1.99155173 L671,1.89 L671.031627,2.00069314 C671.048018,2.00489492 671.06,2.00888889 671.06,2.00888889 L671.033968,2.00888889 L671.04,2.03 L671.003875,2.06612495 Z M672.112581,1.97861635 C672.094881,1.97675224 672.077334,1.97401962 672.06,1.97044234 C672.06,1.98280166 672.06,1.99324096 672.06,2.0020585 C672.063344,2.00279213 672.066678,2.00358783 672.07,2.00444558 L672.06,2.00444558 C672.06,2.00588491 672.06,2.00727876 672.06,2.00862857 C672.088752,2.04321626 672.12,2.07 672.12,2.07 C672.119529,2.05262469 672.118132,2.01391859 672.112581,1.97861635 C672.117635,1.97914854 672.122701,1.97960994 672.127778,1.98 C672.227778,2 672.127778,2.14 672.127778,2.14 L672.04789,2.06543813 C672.037651,2.06115569 672.027924,2.05597517 672.018796,2.05 L671.996667,2.05 L671.97,2.09 L671.981184,2.05644783 C671.970565,2.0609843 671.958566,2.06549215 671.945042,2.07 L671.959328,2.05 L671.9465,2.05 C671.929361,2.06064182 671.914757,2.0731036 671.903639,2.08390425 C671.897688,2.08282501 671.891751,2.08164497 671.88583,2.08036413 C671.886135,2.07912664 671.886447,2.07789157 671.886766,2.07665899 C671.925599,2.06226174 671.960428,2.03955557 671.989021,2.01049356 Z M672.026873,1.9625086 C672.019601,1.97414622 672.011513,1.98518597 672.002691,1.99555556 L671.973016,1.99555556 L671.989021,2.01049363 Z M671.989021,2.01049356 C671.993752,2.00568526 671.998312,2.00070298 672.002691,1.99555556 L671.973016,1.99555556 Z M675.037626,1.95525271 C675.04724,1.95181536 675.053594,1.95 675.053594,1.95 L675.053594,1.97809499 C675.10948,1.92320996 675.16283,1.86367934 675.21,1.8165097 L675.21,1.9965097 C675.05,1.9965097 674.95,2.2965097 674.79,2.1365097 C674.847967,2.1365097 674.909363,2.1022218 674.969929,2.05352179 L674.97125,2.05 L674.953594,2.05 C674.930888,2.01594174 674.966181,1.98832773 675.000944,1.97081597 L675.02,1.92 L675.037626,1.95525271 Z M800.931219,189.283723 L800.92,189.33 L800.931219,189.283723 C800.892819,189.392375 800.848334,189.582539 800.792081,189.944918 C800.632081,190.302803 800.972081,188.78537 800.792081,189.157571 C801.152081,188.227069 801.072081,187.711714 801.252081,188.169807 C801.10322,189.341859 801.042997,188.967449 800.931219,189.283723 Z M797.003654,139.975313 C796.978775,139.959739 796.953296,139.951767 796.937351,139.943794 C796.909108,139.929673 796.920748,139.825813 796.979312,139.906783 C796.909843,139.712222 796.836739,139.516111 796.76,139.32 C796.85601,139.539223 796.943941,139.761809 797.023634,139.987305 C797.039555,140.022163 797.057442,140.066912 797.077351,140.123794 C797.077351,140.055817 797.053775,140.016131 797.024938,139.990999 C797.105018,140.217877 797.176759,140.447697 797.24,140.68 C797.1667,140.44963 797.087918,140.213778 797.003654,139.975313 Z M778,244 L777.76,244.38 L778,244 L777.68,244.46 L777.68,244.32 L778.192,243.696 L778.24,243.62 L778.192,243.696 L778.32,243.54 L778,244 Z M770.239343,255.808584 L769.78,256.33 L769.48,256.51 L770.52,255.49 L770.33914,255.6953 C770.059357,256.210566 768.86871,258.068173 769.514142,257.256875 C769.966107,256.663578 770.369046,256.022988 770.717721,255.343432 C770.397782,256.010504 772.073652,253.58798 771.997476,254.061952 L771.098601,255.273214 C771.098601,255.273214 771.418539,254.904569 771.190012,255.25566 C770.548191,255.949383 769.985099,256.733859 769.514142,257.590411 C768.691442,258.538356 768.980911,257.678184 769.514142,256.660021 C769.514142,256.660021 769.581757,256.660021 770.239343,255.808584 Z M761.57035,265.434478 C761.644722,265.353791 761.720771,265.272981 761.798305,265.191856 L761.59,265.39 L761.73,265.21 L762.083837,264.897791 C762.234613,264.744537 762.38976,264.58939 762.548038,264.431111 C762.576723,264.402427 762.584837,264.394312 762.542881,264.451019 L762.89,264.1 L762.09,265.12 C761.11,266.08 761.27,265.8 761.11,265.9 L761.57035,265.434478 Z M763.70804,261.29196 C763.219431,261.842011 762.736502,262.410039 762.210366,262.870317 C762.090366,262.982536 761.770366,263.206974 762.450366,262.552363 C762.930366,262.103487 763.410366,261.579798 763.970366,261 C763.91742,261.05805 763.86464,261.116567 763.811967,261.175396 C764.022764,260.959055 764.236504,260.749527 764.46,260.54 L763.70804,261.29196 Z M758.8441,268.150332 L758.72,268.27 L758.906972,268.064331 C759.045352,267.879282 759.196715,267.704053 759.36,267.54 L759.210667,267.773333 L759.28,267.73 L759.171343,267.834776 L759.04,268.04 L758.64,268.46 C758.704166,268.354168 758.772254,268.250876 758.8441,268.150332 Z M756.391921,269.560935 C756.388021,269.563884 756.384047,269.566905 756.38,269.57 C756.387386,269.562614 756.394766,269.555253 756.402139,269.547916 C756.435353,269.505529 756.468253,269.462889 756.500837,269.42 C756.511704,269.42 756.517375,269.424723 756.5188,269.433298 C756.888804,269.074235 757.246494,268.767934 757.62,268.43 L756.54,269.57 C756.54,269.57 756.667083,269.386436 756.505989,269.482026 C756.487689,269.521923 756.452287,269.577249 756.412361,269.636448 L756.570658,269.500368 C756.504637,269.563638 756.44221,269.623219 756.383203,269.679293 C756.312952,269.781841 756.238301,269.887608 756.220837,269.94 L755.50082,270.562718 C755.734522,270.391048 755.745866,270.446454 755.206463,271.061563 C754.686463,271.421563 755.366463,270.681563 754.346463,271.521563 C754.700278,271.230186 755.22736,270.765542 755.491027,270.569947 C755.654176,270.408782 755.812099,270.242511 755.964568,270.071396 C755.521225,270.478472 755.41588,270.539482 755.430658,270.480368 L756.136712,269.873409 C756.223705,269.770867 756.308791,269.666691 756.391921,269.560935 Z M759.938571,267.065714 L759.57,267.46 L759.938571,267.065714 L759.42,267.49 L760,267 L760.43,266.54 L760,267 L760.58,266.51 L760.08,266.95 L759.938571,267.065714 Z M751.623094,275.450922 C751.596544,275.486115 751.565171,275.527278 751.529713,275.573973 C751.493789,275.63359 751.45191,275.689007 751.404902,275.739466 C751.377593,275.776007 751.348965,275.81457 751.319202,275.855047 L750.279202,276.695047 C750.334892,276.618473 750.48023,276.471635 750.630884,276.324528 C750.572376,276.371498 750.508637,276.4233 750.44,276.48 C750.512762,276.418727 750.585525,276.358186 750.658146,276.297958 C750.875128,276.086872 751.092598,275.883937 751.060268,275.896893 C751.040302,275.911331 751.020215,275.925701 751,275.94 C751.004416,275.936323 751.008829,275.932641 751.01324,275.928956 C751.003461,275.936308 750.992146,275.944979 750.979202,275.955047 C751.423679,275.554146 751.64029,275.354527 751.701852,275.313161 C752.14034,274.899755 752.566324,274.466953 753,274.06 L752.785714,274.4 C752.400197,274.737328 752.030935,275.101965 751.623094,275.450922 Z M749.36201,277.634604 C749.186085,277.890467 750.240125,276.93572 748.482831,278.433413 L748.622831,278.273413 L749.359675,277.636143 C748.958901,277.899914 749.467058,277.361959 750.774063,276.297491 C750.254063,276.837491 749.534063,277.497491 750.594063,276.657491 C749.963595,277.190464 749.557029,277.505872 749.36201,277.634604 Z M732.187131,290.952822 C731.707131,291.332822 731.807131,291.112822 731.727131,291.132822 C732.567131,290.532822 732.187131,290.992822 732.187131,290.952822 Z M739.54,286.35 L739.36,286.43 L740.64,285.57 L739.54,286.35 Z M745,280 C743.972,280.917732 742.881276,281.772317 741.734694,282.558376 L741.587755,282.725888 L741,283 C742.322449,281.994924 744.15102,280.86802 745,280 Z M752.26,274.77 L751.74,275.23 C751.887396,275.049631 752.062997,274.894292 752.26,274.77 Z M745.71,280.382112 L744.99,281.102112 L744.29,281.622112 C744.65,281.382112 745.71,280.302112 745.71,280.382112 Z M762.136484,263.927449 C761.670605,264.266538 762.583728,263.284966 762.136484,263.677595 L764,262 C763.38504,262.60679 762.825985,263.195733 762.136484,263.927449 Z M760.95,266.046406 L761.05,265.946406 C761.05,265.946406 760.95,266.086406 760.95,266.046406 Z M769.05,256.94 L768.99,257.06 L768.95,257.06 L769.05,256.94 Z M765.36,259.54 C765.091397,259.823165 764.850313,260.131216 764.64,260.46 L765.36,259.54 Z M760.981066,265.037868 C761.041066,264.917868 761.021066,264.957868 760.981066,265.037868 Z M767.382609,258.649635 L767,259 C767.4,258.576642 767.66087,258.270073 768.147826,257.70073 C768.40842,257.44786 768.693446,257.213487 769,257 C768.443478,257.613139 767.817391,258.167883 767.26087,258.766423 L767.382609,258.649635 Z M764.738255,260.913793 C765.020134,260.672414 765.731544,259.689655 765.38255,260.396552 C765.018283,260.921937 764.632975,261.422615 764.228188,261.896552 C765.57047,259.931034 763.812081,262.413793 764.738255,260.948276 L764,262 L764.657718,260.931034 C764.657718,261.017241 764.590604,261.051724 764.657718,260.931034 L764.738255,260.931034 C765.114094,260.344828 764.738255,260.827586 764.657718,260.931034 L766,259 C765.731544,259.482759 765.369128,260 764.738255,260.913793 Z M755.942222,271.057778 C755.942222,271.057778 756.202222,270.797778 755.942222,271.057778 Z M757.31473,269.983102 C757.054248,270.154987 756.807682,270.341958 756.576748,270.542714 C756.190186,270.89058 756.576748,270.542714 756.576748,270.618337 C756.278041,270.830082 755.557629,271.359444 756.383467,270.618337 L756.524035,270.512464 C757.074742,270.053023 757.569312,269.546222 758,269 C757.814475,269.348487 757.584649,269.678201 757.31473,269.983102 Z M770.87,253.3 L770.71,253.32 L771.29,252.68 L770.87,253.3 Z M780.18,101.33 L779.82,100.67 C780,100.97 780.1,101.17 780.18,101.33 Z M782.037868,103.993965 L782.037868,104.113965 C781.957868,103.893965 781.917868,103.793965 782.037868,103.993965 Z M799.891486,189 C799.876743,188.331447 799.91686,187.662821 800.011486,187 L800.111486,187.317757 C800.051486,188.009346 799.931486,188.551402 799.891486,189 Z M796.93,140.49 L797.07,140.77 C797.07,141.05 797.07,141.29 797.07,141.51 C797.07,141.21 797.01,140.85 796.93,140.49 Z M764.183123,78.38 L763.743123,77.62 C764.523123,78.68 764.183123,78.26 764.183123,78.38 Z M787.53,229 C787.950218,228.382765 788.267261,227.708206 788.47,227 C788.19,227.54717 787.95,228.226415 787.53,229 Z M789.57,224 L789.39,224.373984 L788.43,226 C788.746617,225.310642 789.127732,224.642018 789.57,224 Z M694.11,18 L693.89,18 L694.11,18 Z M776.9,247.1 C776.954579,247.022252 777.022252,246.954579 777.1,246.9 C777.1,246.9 776.98,247 776.9,247.1 Z M792.015,219.951178 C791.975,220.091178 791.975,220.071178 792.015,219.951178 Z M778.170605,244.75 L777.830605,245.25 C777.830605,245.25 777.790605,245.25 778.170605,244.75 Z M734.204561,47.1860098 L734.084561,47.1860098 C733.584561,46.5860098 733.804561,46.8060098 734.204561,47.1860098 Z M784.422167,110.706132 C784.228042,110.178733 783.974914,109.675267 783.667667,109.205448 C783.83642,109.743619 784.091264,110.250499 784.422167,110.706132 Z M796.704726,143.844779 L796.722273,143.844779 C796.546807,143.368091 796.423982,142.873748 796.301156,142.46768 C796.472037,142.915124 796.606993,143.375632 796.704726,143.844779 Z M780.7374,238.052461 L780.754946,238.052461 C781.105877,237.452187 781.281342,237.134395 780.7374,238.052461 Z M779.702156,239.817972 C779.57933,239.976868 779.561784,239.959213 779.596877,239.817972 C779.827403,239.517792 780.032815,239.198909 780.211005,238.864596 C780.091021,239.221153 779.913147,239.55524 779.684609,239.853282 L779.702156,239.817972 Z M728.168049,43.634359 L728.483886,43.8815306 C727.834665,43.2459465 727.992584,43.4401528 728.168049,43.634359 Z M795.9,212.46 C795.986393,212.157956 796.053199,211.850651 796.1,211.54 C796.1,211.54 796.1,211.76 795.9,212.46 Z M773.55,249.6 L774.45,248.4 C774.03,248.98 773.91,249.22 773.71,249.54 C773.71,249.48 773.83,249.22 773.55,249.6 Z M768.085176,258.946251 L767.625176,259.446251 C768.225176,258.626251 768.705176,258.186251 768.085176,258.946251 Z M773.63,250.15 C772.89,250.99 772.15,251.85 772.49,251.71 L772.37,251.85 C772.857605,251.336711 773.280734,250.765823 773.63,250.15 Z M772.314874,251.616869 L771.714874,252.376869 C771.574874,252.436869 771.954874,252.056869 772.314874,251.616869 Z M773.71,251.39 L773.81,251.01 L774.29,250.61 L773.71,251.39 Z M778.62,246.13 L777.68,247.53 C777.68,247.53 777.54,247.67 777.38,247.87 C777.76374,247.269469 778.177602,246.688728 778.62,246.13 Z M777.4,247.44 L776.6,248.56 L777.4,247.44 Z M774.53,249.71 L774.79,249.29 L775.47,248.29 L774.53,249.71 Z M786.518769,231.76695 L787.458769,230.16695 C787.578769,230.02695 787.458769,230.48695 787.018769,231.06695 C786.578769,231.64695 786.438769,232.04695 786.518769,231.76695 Z M783.75,235.39 C783.87277,235.13934 783.97316,234.878326 784.05,234.61 L784.25,234.61 L783.75,235.39 Z M786.769463,232.244228 C786.889463,232.104228 788.189463,229.944228 787.049463,232.004228 C786.909463,232.144228 786.049463,233.744228 786.769463,232.244228 Z M796.21,209.78 L796.05,210.22 L795.79,210.06 L796.21,209.78 Z M787.3,113.41 L787.3,113.53 C787.063844,113.19839 786.862766,112.843151 786.7,112.47 L787.3,113.41 Z M779.07,99.94 L779.23,100.22 L778.77,99.78 L779.07,99.94 Z M771.432702,88.1502676 L772.632702,89.8502676 C771.812702,88.6702676 771.152702,88.1302676 771.432702,88.1502676 Z M675.995556,1.07 C675.995556,1.07 675.995556,0.95 675.995556,0.93 C675.995556,0.91 676.015556,1.09 675.995556,1.07 Z M673,2.01777778 C673,1.93777778 673,2.01777778 673,2.01777778 Z M673.004444,1.98666667 C672.984444,2.04666667 673.004444,1.98666667 673.004444,1.98666667 Z M672.004444,2 C671.984444,2 672.004444,2 672.004444,2 Z M673,2.99555556 C673,2.99555556 673,3.01555556 673,2.99555556 Z M660.995556,8 C660.995556,8 661.015556,8 660.995556,8 Z M666.113485,3.98888889 C666.068536,3.96986743 666.017362,3.97240314 665.974514,3.9957751 C665.931665,4.01914707 665.901828,4.06079891 665.893485,4.10888889 L665.893485,3.98888889 C665.853485,3.76888889 665.993485,3.98888889 666.113485,3.98888889 Z M661.008889,7.00444444 C660.968889,6.98444444 661.008889,7.00444444 661.008889,7.00444444 Z M669.11,2.96831082 L668.89,2.96831082 C669.01,3.00831082 669.11,3.08831082 669.11,2.96831082 Z M667.92,3.02666667 L668.08,3.02666667 C668.08,3.02666667 667.98,2.90666667 667.92,3.02666667 Z M668,19.0088889 C668,19.0088889 668,18.9688889 668,19.0088889 Z M669.991111,3.00888889 C670.031111,2.96888889 669.991111,3.00888889 669.991111,3.00888889 Z M663.991111,13 C663.991111,13 664.031111,13 663.991111,13 Z M664.01,7 L663.99,7 L664.01,7 Z M661.008889,7.00888889 C660.968889,6.96888889 661.008889,7.00888889 661.008889,7.00888889 Z M668.05,5.99555556 L667.95,5.99555556 C667.95,5.99555556 667.99,6.01555556 668.05,5.99555556 Z M671.017778,3 C670.937778,3 671.017778,3 671.017778,3 Z M670.991111,3.00444444 C671.031111,2.98444444 670.991111,3.00444444 670.991111,3.00444444 Z M667.01,4.15 L666.95,3.85 L667.05,4.15 L667.01,4.15 Z M266.34739,311.721046 C266.218006,311.721046 268.990514,311.301046 264,312.361046 C264.499051,312.241046 263.353082,312.341046 266.34739,311.721046 Z M313.835025,302.52 L320,301.28 L313,302.72 L313.835025,302.52 Z M358,296 C354.574663,296.395062 349.764994,297.037037 344.564871,297.744856 C339.364749,298.452675 333.827417,299.259259 329,300 L332.549572,299.325103 L333.862913,299.176955 C341.813953,298.106996 353.740514,296.312757 358,296 Z M382.233372,293.715844 C379.69238,293.975844 378.203517,294.195844 377.131536,294.315844 L376,294.435844 C387.990308,292.955844 380.565846,293.835844 382.233372,293.715844 Z M405,289.815248 L402,290.175248 C402.527473,290.215248 403.318681,290.135248 405,289.815248 Z M392,292.437475 C379.934194,293.917475 378.133327,293.957475 390.199133,292.437475 C383.878091,293.337475 388.398267,292.817475 392,292.437475 Z M360.99125,295.34 C361.285442,295.36 354.077733,296.32 352,296.66 L356.155465,295.98 L360.99125,295.34 Z M437.95977,287.821474 C437.666908,287.781474 433.273984,288.161474 431,288.181474 L435.461833,287.821474 C435.926966,287.821474 438.338767,287.821474 437.95977,287.821474 Z M406.893281,289.43 L409,289.21 L396,290.79 L406.893281,289.43 Z M463.918575,286.97 L467,286.83 L460,287.17 L463.918575,286.97 Z M501,288.030455 C499.104348,288.030455 497.13913,287.910455 495,288.030455 C497.017391,287.930455 499,287.970455 501,288.030455 Z M453,287 C453.588235,287 454.72549,287 459,287 L456,287 L453,287 Z M457,287.07 L463,286.93 L457.089286,287.07 L457,287.07 Z M424,288.354488 C425.490912,288.280182 426.975335,288.093068 428.442624,287.794488 C436.889095,287.354488 428.186671,287.994488 424,288.354488 Z M450,287.77 L442,288.23 C444.036036,288.09 442.702703,288.09 442.558559,288.09 L450,287.77 Z M453,286.89 L452.272277,286.99 L450,287.11 L453,286.89 Z M537.43,289 L536.73,289 L536.57,289 L537.43,289 Z M549.187399,289.250747 C551.470426,289.536152 548.490291,289.250747 548.57743,289.277928 L556.820727,289.943873 C558.842338,290.283641 543.017997,288.951751 546.886944,289.386654 C542.373172,288.951751 544.081086,288.978932 534.687561,288.408122 C528.727292,288.095535 541.93748,288.992523 544.412212,289.277928 C541.985559,289.023627 539.540948,288.887456 537.092583,288.870206 C531.097457,288.312987 526.548831,287.728586 533.519906,288.136307 L543.767387,288.883797 C546.747522,289.114839 548.908556,289.250747 549.187399,289.250747 Z M523.051282,288.468335 L522.016026,288.428335 C527.010684,288.708335 532.005342,289.228335 537,289.708335 C536.654915,289.728335 535.583333,289.668335 530.534188,289.248335 C525.957265,288.688335 523.469017,288.568335 520,288.288335 L523.051282,288.468335 Z M538.608355,289.75 C540.399478,289.91 542.208877,290.03 544,290.25 C541.660574,290.01 539.321149,289.91 537,289.75 L538.608355,289.75 Z M553.563877,290.75 L557,291.25 L553,290.81 L553.563877,290.75 Z M369,610.06 L366,609.94 L369,610.06 Z M393.978774,611.004444 L394.658774,611.004444 C393.358774,610.984444 392.818774,611.004444 393.978774,611.004444 Z M822,494 C821.6,495.096712 821.130435,496.245648 820.66087,497.516441 C820.191304,498.787234 819.46087,500.12766 818.765217,501.694391 C818.504348,502.129594 818.295652,502.582205 818,503 C818.350786,502.121854 818.757416,501.267106 819.217391,500.441006 C819.617391,499.5706 820.191304,498.595745 820.626087,497.481625 L822,494 Z M599,595.48 C600.441176,595.14 601.794118,594.86 603,594.52 C602.161765,594.78 601.220588,595.02 600.220588,595.26 L599,595.48 Z M595,596.48 L588,597.52 L595,596.48 Z M234.840137,595.276897 C234.347376,595.256897 236.964107,595.796897 231,594.616897 L234.840137,595.276897 Z M380,609.965078 C377.847115,609.965078 376.93214,609.965078 377.003902,609.965078 C378.000855,610.058204 379.003048,610.058204 380,609.965078 Z M152.42,322.26 C152.794543,322.060799 153.182089,321.887072 153.58,321.74 L152.42,322.26 Z M290,279.24 L284,280.76 L290,279.24 Z M752.056602,360.042876 L752.316602,360.222876 C751.436602,359.662876 751.596602,359.662876 752.056602,360.042876 Z M609,300.370849 L606.144913,299.650849 C605.723971,299.570849 606.090008,299.690849 609,300.370849 Z M763.87,551.08 L763.75,551.12 L764.25,550.88 L763.87,551.08 Z M754,556 C756.20339,555.096774 758.355932,554.078853 760.525424,553.103943 C761.694915,552.74552 762.864407,552.387097 764,552 L754,556 Z M428.213513,608.680028 L428.266374,608.680028 C424.248987,608.680028 422.169814,608.627026 419.403456,608.821365 C421.165467,608.874367 425.852418,608.680028 428.213513,608.680028 Z M612.220381,590.429821 L604.802312,591.701858 C607.832972,591.224844 610.458369,590.765497 612.220381,590.429821 Z M644.412332,309.150492 L644.465192,309.150492 C647.936355,310.29886 649.698366,310.881877 644.659013,309.150492 L644.412332,309.150492 Z M634.051704,305.882062 C632.994497,305.599387 633.047357,305.634722 633.48786,305.776059 C634.245525,305.952731 636.589,306.624084 639.267258,307.419108 C638.544833,307.224769 637.188084,306.800756 634.051704,305.882062 Z M4.29115268,475.787426 C3.79778944,474.56839 3.37490667,473.331687 4.9959573,477.783819 L4.29115268,475.787426 Z M594.911055,595.880909 C594.534186,595.943461 594.153059,595.976894 593.771055,595.980909 C592.731055,596.160909 592.711055,596.200909 594.911055,595.880909 Z M235.42,595 L235,595 L234.58,595 L235.42,595 Z M786,387 L788.989644,389.995814 C789.095785,390.062387 788.405867,389.346721 786,387 Z M581,295.34 C583.184143,295.74 581.859335,295.44 581.69821,295.38 C583.41688,295.74 584.634271,295.92 588,296.66 C585.672634,296.14 583.327366,295.76 581,295.34 Z M520.533551,287.999725 C525.539416,288.359725 522.14328,288.199725 517.294463,287.799725 L517,287.799725 L520.533551,287.999725 Z M575,294.85 C569.728261,293.95 564.384058,293.35 565.887681,293.29 L565,293.15 L571.684783,294.15 C572.800499,294.317036 573.907195,294.550712 575,294.85 Z M563,293.350445 L559.077018,292.650445 C558.56734,292.630445 560.667834,292.950445 563,293.350445 Z M624.198405,304.721435 C637.555041,308.161435 618.512295,303.461435 621.279026,304.061435 C622.633771,304.461435 621.77513,304.041435 624.198405,304.721435 Z M572,293.58 L576,294.42 L573.574803,294.04 L572,293.58 Z M600,297.67 L593,296.33 L600,297.67 Z M581,295.2 L583.374429,295.66 C585.200913,295.98 587.136986,296.38 589,296.8 C586.351598,296.18 583.684932,295.68 581,295.2 Z M689.109789,325.088366 C681.673229,322.526229 689.800716,325.259175 690.637102,325.501154 C700.9101,328.988507 689.927992,325.330345 689.109789,325.088366 Z M793.82,397.93 L792.18,396.55 L792.2,396.07 L793.82,397.93 Z M312,273.68 L314.480769,273.14 L319,272.32 L312,273.68 Z M325,271.59 C326.247525,271.39 329.435644,270.73 331,270.41 L326.722772,271.45 L325,271.59 Z M450.470032,610.91 L451,610.91 C449.921136,610.91 448.274448,610.91 445,611.09 L450.470032,610.91 Z M362.397516,611.09 L361,610.85 L364,611.15 L362.397516,611.09 Z" id="Combined-Shape"></path>
            </g>
        </g>
    </g>
</svg>