<svg id="Layer_1" data-name="Layer 1" xmlns="http://www.w3.org/2000/svg" viewBox="0 0 172 40"><defs><style>.cls-2{fill:#0033a1;}</style></defs><title>boeing_logo</title><path class="cls-2" d="M27,24.16a13.54,13.54,0,0,0-4.79-17c2.17-2.23,4.52-4.44,7-6.55A61,61,0,0,0,21,6.46,13.54,13.54,0,0,0,4.47,27.29c-2.59,5.61-3,10.11-.76,11.63,2.45,1.63,7.77-1.33,11-6.14,0,0-4.94,4.45-7.65,3.43-1.67-.63-1.67-3.19-.3-6.85a13.54,13.54,0,0,0,17.52-1.28l.48.9c5.9-.48,23.51-.95,23.51-.95C48.23,27.2,36.57,28,27,24.16ZM2.82,18.45A11.92,11.92,0,0,1,19.67,7.61,64.92,64.92,0,0,0,5.26,25.68,11.86,11.86,0,0,1,2.82,18.45ZM14.73,30.36a11.86,11.86,0,0,1-7.37-2.55c2.36-5.32,7.16-12.46,13.71-19.44a11.91,11.91,0,0,1,4.43,15.15,21.76,21.76,0,0,1-5.66-3.69l3.59,6.74A11.87,11.87,0,0,1,14.73,30.36Z"/><polygon class="cls-2" points="107.76 17.21 109.96 14.28 102.28 14.28 104.17 11.77 111.86 11.77 114.07 8.84 98.73 8.84 88.18 22.84 103.52 22.84 105.72 19.91 98.04 19.91 100.07 17.21 107.76 17.21 107.76 17.21"/><polygon class="cls-2" points="118.41 8.84 107.86 22.84 115.52 22.84 126.06 8.84 118.41 8.84 118.41 8.84"/><polygon class="cls-2" points="143.91 8.84 138.56 15.94 136.92 8.84 130.94 8.84 120.39 22.84 125.45 22.84 130.75 15.81 132.38 22.84 138.42 22.84 148.97 8.84 143.91 8.84 143.91 8.84"/><path class="cls-2" d="M168.93,8.84h-12.3a6.43,6.43,0,0,0-5.15,2.57l-6.35,8.43a1.85,1.85,0,0,0-.38,1.13,1.88,1.88,0,0,0,1.87,1.88h12.3a6.44,6.44,0,0,0,5.16-2.57l1.53-2h1.78l2.22-3h-9.42l-3,3.95a1.67,1.67,0,0,1-1.34.67h-2.17a.49.49,0,0,1-.49-.49.46.46,0,0,1,.1-.29l5-6.7a1.66,1.66,0,0,1,1.34-.67h2.17a.49.49,0,0,1,.49.49.51.51,0,0,1-.1.29l-.82,1.09h7.64l1.35-1.8a1.87,1.87,0,0,0-1.5-3Z"/><path class="cls-2" d="M92.45,10.72a1.87,1.87,0,0,0-1.87-1.87H78.28a6.44,6.44,0,0,0-5.16,2.57l-6.35,8.43a1.88,1.88,0,0,0,1.5,3h12.3a6.44,6.44,0,0,0,5.16-2.57l6.35-8.43a1.86,1.86,0,0,0,.37-1.13ZM83.9,12.55l-5,6.69a1.66,1.66,0,0,1-1.34.67H75.35a.49.49,0,0,1-.39-.78l5-6.7a1.69,1.69,0,0,1,1.34-.67h2.17a.49.49,0,0,1,.49.49.51.51,0,0,1-.1.29Z"/><path class="cls-2" d="M63.52,16.18a6.43,6.43,0,0,0,3.72-2.41l1.46-1.93a1.87,1.87,0,0,0-1.5-3H51.68l-10.55,14H57.19a6.44,6.44,0,0,0,5.16-2.57l1.49-2a1.47,1.47,0,0,0,.3-.9,1.51,1.51,0,0,0-.61-1.21ZM56.42,18l-.95,1.26a1.67,1.67,0,0,1-1.34.67H51l2-2.7h3a.49.49,0,0,1,.49.49.47.47,0,0,1-.1.29Zm4.1-5.44-.81,1.07a1.68,1.68,0,0,1-1.34.66H55.24l1.89-2.51h3a.49.49,0,0,1,.49.49.51.51,0,0,1-.1.29Z"/></svg>