<svg version="1.2" xmlns="http://www.w3.org/2000/svg" viewBox="0 0 1543 200" width="1543" height="200">
	<title>logo-black (1)-svg</title>
	<style>
		.s0 { fill: #000000 } 
	</style>
	<path id="LOGO_x2F_GruppoDL_x5F_bianco" fill-rule="evenodd" class="s0" d="m126.6 76.5c0 49-29.6 76.5-80.7 76.5h-45.9v-150.9h45.9c47 0 80.7 30.6 80.7 74.4zm-77.6-51h-21.4v102h18.3c34.8 0 52.1-16.3 52.1-51 0-29.5-20.4-49.9-49-51zm312.5 103.1v24.4h-87.9v-150.9h27.6v126.5zm65.4 26.5c-31.7 0-57.2-26-57.2-58.2 0-32.1 25.5-58.1 57.2-58.1 31.6 0 57.1 26 57.1 58.1 0 32.2-25.5 58.2-57.1 58.2zm29.6-58.2c0-20.3-13.3-36.7-29.6-36.7-16.4 0-29.7 16.4-29.7 36.7 0 20.3 13.3 36.8 29.7 36.8 16.3 0 29.6-16.5 29.6-36.8zm140.9-10.2v68.4h-25.6v-58.2c0-27.5-7.1-33.6-19.4-34.6-24.5 0-28.5 24.4-28.5 39.7v52.1h-25.6v-112.2h25.6v10.2c7.1-8.2 19.4-13.3 31.6-13.3 28.6 0 42.9 16.3 41.9 47.9zm248.1 0v67.4h-25.5v-58.2c0-27.5-7.2-33.6-19.4-34.7-24.5 0-28.6 24.5-28.6 39.8v52h-25.6v-150.9h25.6v48.9c8.1-8.1 19.4-12.2 31.6-12.2 28.6 0 42.9 16.3 41.9 47.9zm24.5-84.6h25.5v19.4h-25.5zm0 38.7h25.5v112.2h-25.5zm367.6 114.3c-31.6 0-57.2-26-57.2-58.2 0-32.1 25.6-58.1 57.2-58.1 31.6 0 57.2 26 57.2 58.1 0 32.2-25.6 58.2-57.2 58.2zm29.6-58.2c0-20.3-13.3-36.7-29.6-36.7-16.4 0-29.6 16.4-29.6 36.7 0 20.3 13.2 36.7 29.6 36.7 16.3 0 29.6-16.4 29.6-36.7zm144-56.1v112.2h-25.6v-10.2c-7.1 8.2-19.4 13.3-31.6 13.3-27.6 0-42.9-17.4-42.9-49v-66.3h25.5v57.1c0 27.6 7.2 33.7 19.4 34.7 24.5 0 28.6-24.5 28.6-39.8v-52zm131.7 55.1c0 27.5-13.3 60.2-49 60.2-14.3 0-24.5-4.1-32.7-11.2v55h-25.5v-159.1h25.5v10.2c7.2-6.1 18.4-12.2 32.7-12.2 33.7 0 48 27.5 49 57.1zm-81.7 1c0 12.3 5.1 35.7 27.6 35.7 6.1 0 11.2-3 15.3-7.1 8.2-8.2 10.2-20.4 10.2-29.6 0-12.2-3-23.5-9.2-29.6-4-4.1-9.1-6.1-16.3-6.1-18.4 0-27.6 19.4-27.6 36.7zm-291-30.6l-4-2c-2.1-1-5.2-2.1-9.2-2.1-15.4 0-25.6 15.3-25.6 39.8v51h-25.5v-112.2h24.5v10.2c6.1-7.1 15.3-12.2 24.5-12.2 6.1 0 9.2 0 12.3 1l3 1zm-930.1 81.6c-6.2 2.1-19.4 7.2-33.7 8.2h-3.1c-36.8 0-58.2-21.4-58.2-60.2 0-33.7 22.5-57.1 53.1-57.1 33.7 0 50 20.4 50 63.2v3.1h-75.5c2 17.3 17.3 28.5 31.6 28.5 16.4 0 30.7-7.1 34.7-9.1h1.1zm-66.4-64.3h48c-2.1-12.2-9.2-23.5-23.5-23.5-18.4 0-23.5 15.3-24.5 23.5zm549.3-42.8c0 0 0 107.1 0 108.1-4.1 30.6-22.4 47.9-53.1 48.9-1 0-6.1 0-7.1 0-14.3 0-26.6-5.1-32.7-8.1v-22.5c4.1 2.1 18.4 9.2 34.7 9.2 16.4 0 29.6-11.2 31.7-27.5 0-1 0-8.2 0-8.2-8.2 8.2-20.5 12.3-32.7 12.3-32.7 0-48-27.6-48-55.1 0-29.6 17.4-59.2 51.1-59.2 14.3 0 25.5 3.1 32.6 11.2v-9.1zm-25.5 55c0-19.1-12.1-34.6-27.1-34.6-14.9 0-27 15.5-27 34.6 0 19.2 12.1 34.7 27 34.7 15 0 27.1-15.5 27.1-34.7zm381.9 53.1l-2.1 1c-12.2 4.1-27.5 6.1-44.9 6.1-48 0-79.6-30.6-79.6-78.5 0-45.9 32.6-77.5 79.6-77.5 21.5 0 31.7 3 42.9 7.1v30.6l-4.1-3.1c-10.2-6.1-20.4-9.1-37.8-9.1-30.6 0-52 21.4-52 53 0 30.6 21.4 53 51 53 12.3 0 16.3-1 20.4-2v-34.7h-34.7v-24.5h61.3zm-926.1-146.8h86.8v19.3h-86.8z"/>
</svg>