<svg width="111" height="20" xmlns="http://www.w3.org/2000/svg"><g fill="#FFF" fill-rule="evenodd"><path d="M16.026 13.015c0 1.356.32 2.446.957 3.27.64.798 1.463 1.197 2.473 1.197 1.01 0 1.835-.4 2.473-1.197.637-.824.956-1.914.956-3.27s-.32-2.446-.957-3.244c-.64-.823-1.463-1.222-2.474-1.222-1.01 0-1.834.4-2.473 1.223-.638.8-.957 1.89-.957 3.245l.002-.002zm3.108-6.911c.666 0 1.33.186 2.048.532.718.345 1.224.718 1.543 1.17V1.468h2.765v18.248h-2.765v-1.543c-.505.878-2.02 1.755-3.643 1.755-3.91 0-5.983-2.552-5.983-6.913 0-4.254 2.102-6.913 6.037-6.913l-.002.002zm22.718.211h2.766V8.6c1.09-1.674 2.42-2.498 4.04-2.498 1.81 0 3.298 1.09 3.697 2.765.93-1.78 2.446-2.765 4.175-2.765 2.42 0 3.828 1.595 3.828 4.015v9.6h-2.765v-8.99c0-1.408-.77-2.18-1.967-2.18-1.73 0-3.138 2.26-3.138 5.798v5.37h-2.765V10.73c0-1.41-.77-2.18-1.968-2.18-1.78 0-3.137 2.26-3.137 6.09v5.078h-2.766V6.315zm34.766 0h2.765V8.6c.957-1.594 2.553-2.498 4.334-2.498 2.367 0 3.935 1.462 3.935 4.015v9.6h-2.765v-8.723c0-1.622-.69-2.446-2.074-2.446-.93 0-1.728.532-2.42 1.57-.664 1.036-1.01 2.418-1.01 4.173v5.426h-2.765V6.315zM4.6 17.482c.93 0 1.756-.292 2.447-.877.718-.612 1.063-1.436 1.063-2.526v-.294H5.69c-1.7 0-2.764.798-2.764 2.074 0 .957.585 1.622 1.675 1.622l-.001.001zm.931-11.417c3.487 0 5.345 1.755 5.345 5.29v8.324h-2.34l-.266-1.755c-.93 1.303-2.314 1.967-4.15 1.967-2.365 0-4.12-1.41-4.12-4.068 0-2.738 2.313-4.387 5.796-4.387H8.11v-.585c-.007-1.556-1.238-2.32-2.754-2.31-1.01.006-1.986.492-2.35 1.788H.465c0-1.154 1.106-4.264 5.065-4.264h.001zm83.786 2.699V6.317h2.233V1.46l2.766.006v4.85h4.06l-1.41 2.448h-2.65v6.54c0 1.463.585 2.18 1.78 2.18.453 0 .878-.132 1.277-.372l.718 2.34c-.664.32-1.38.48-2.152.48-2.66 0-4.388-1.623-4.388-4.787v-6.38h-2.233l-.001-.001zm-56.759 8.763c.93 0 1.755-.292 2.446-.877.718-.612 1.063-1.436 1.063-2.526v-.293h-2.42c-1.7 0-2.765.8-2.765 2.075 0 .957.585 1.622 1.676 1.622v-.001zm.93-11.415c3.486 0 5.344 1.756 5.344 5.292v8.323h-2.34l-.266-1.755c-.93 1.303-2.313 1.967-4.148 1.967-2.366 0-4.12-1.41-4.12-4.068 0-2.74 2.312-4.388 5.795-4.388h2.314v-.585c-.007-1.556-1.238-2.32-2.754-2.31-1.01.006-1.986.492-2.35 1.788h-2.54c0-1.154 1.106-4.264 5.064-4.264h.001zm33.835 11.415c.93 0 1.755-.292 2.446-.877.717-.612 1.063-1.436 1.063-2.526v-.293h-2.42c-1.702 0-2.765.8-2.765 2.075 0 .957.585 1.622 1.675 1.622l.001-.001zm.929-11.415c3.486 0 5.344 1.756 5.344 5.292v8.323h-2.34l-.266-1.755c-.93 1.303-2.312 1.967-4.147 1.967-2.366 0-4.12-1.41-4.12-4.068 0-2.74 2.313-4.388 5.796-4.388h2.312v-.585c-.007-1.556-1.238-2.32-2.753-2.31-1.012.006-1.988.492-2.352 1.788h-2.54c0-1.154 1.106-4.264 5.065-4.264h.001zM107.31 2.575l-1.42-2.46-1.687 2.922-1.687 2.92-1.635 2.826h2.843zM108.725 5.037l-2.168 3.745h4.336z"/></g></svg>