<svg width="105" height="32" xmlns="http://www.w3.org/2000/svg"><g fill="#FFF" fill-rule="nonzero"><path d="M16 21.96c-3.696 0-6.508-2.83-6.508-6.48 0-3.702 2.812-6.55 6.612-6.55 2.16 0 3.647.634 4.985 1.942l.105.104c.04.04.043.103.006.146l-1.908 2.186a.105.105 0 0 1-.15.01l-.123-.11c-.98-.883-1.872-1.296-2.934-1.296-1.86 0-3.262 1.527-3.262 3.5 0 2.027 1.386 3.567 3.262 3.567 1.172 0 1.942-.375 3.02-1.348l.114-.103a.104.104 0 0 1 .146.003l1.92 1.926c.04.04.04.105.002.147l-.105.11c-1.45 1.54-2.95 2.243-5.184 2.243l.002.003zm13.464 0c-3.836 0-6.716-2.833-6.716-6.48 0-3.682 2.914-6.55 6.75-6.55s6.716 2.834 6.716 6.48c0 3.682-2.915 6.55-6.75 6.55zm.034-2.716c2.156 0 3.65-1.692 3.65-3.764v-.035c0-2.07-1.53-3.798-3.684-3.798-2.156 0-3.65 1.692-3.65 3.764v.035c0 2.072 1.53 3.8 3.684 3.8v-.002zm18.588-.332v2.735a.106.106 0 0 1-.106.106h-9.065a.107.107 0 0 1-.106-.106V9.244c0-.058.047-.106.105-.106h2.998c.06 0 .106.048.106.106v9.51c0 .028.023.052.052.052h5.908c.06 0 .106.048.106.106h.002zm6.01-4.957h5.577c.058 0 .106.047.106.106v2.684c0 .058-.05.106-.107.106h-5.578a.052.052 0 0 0-.053.053v1.902c0 .03.024.053.053.053h6.447c.058 0 .106.047.106.106v2.683a.107.107 0 0 1-.106.106h-9.587a.107.107 0 0 1-.106-.106V9.244c0-.058.047-.106.105-.106h9.5c.058 0 .106.048.106.106v2.683a.106.106 0 0 1-.105.106h-6.36a.053.053 0 0 0-.053.053v1.816c0 .03.024.053.053.053h.002zm9.024-1.942v-2.77c0-.057.048-.105.106-.105H73.63c.058 0 .106.048.106.106v2.77a.106.106 0 0 1-.106.105h-3.544a.052.052 0 0 0-.053.052v9.475a.106.106 0 0 1-.106.106H66.93a.106.106 0 0 1-.107-.106v-9.475a.053.053 0 0 0-.053-.053h-3.544a.107.107 0 0 1-.106-.107v.002zm16.746 9.74h-2.998a.105.105 0 0 1-.106-.106V9.244c0-.058.047-.106.106-.106h2.998c.06 0 .106.048.106.106v12.403a.106.106 0 0 1-.106.106zm9.305-4.733l2.92-7.813a.11.11 0 0 1 .1-.07h3.235a.108.108 0 0 1 .099.147l-5.048 12.49a.105.105 0 0 1-.098.065h-2.582a.106.106 0 0 1-.098-.067l-5.048-12.49a.104.104 0 0 1 .058-.137.106.106 0 0 1 .04-.008h3.304c.044 0 .083.028.1.07l2.92 7.812a.05.05 0 0 0 .068.03.045.045 0 0 0 .03-.03v.001z"/><path d="M3.2 3.231v25.475c0 .028.023.052.053.052h98.494c.03 0 .053-.024.053-.053V3.23a.052.052 0 0 0-.053-.053H3.253a.052.052 0 0 0-.053.053v.001zM.106.001h104.788c.058 0 .106.047.106.105v31.723c0 .06-.048.106-.106.106H.106A.107.107 0 0 1 0 31.828V.106C0 .048.048 0 .106 0v.001z"/></g></svg>