<?xml version="1.0" encoding="UTF-8"?>
<svg width="106px" height="124px" viewBox="0 0 106 124" version="1.1" xmlns="http://www.w3.org/2000/svg" xmlns:xlink="http://www.w3.org/1999/xlink">
    <!-- Generator: Sketch 52.5 (67469) - http://www.bohemiancoding.com/sketch -->
    <title>perky-game</title>
    <desc>Created with Sketch.</desc>
    <g id="✔--Careers" stroke="none" stroke-width="1" fill="none" fill-rule="evenodd">
        <g id="Careers__vertical" transform="translate(-414.000000, -4233.000000)">
            <g id="perks" transform="translate(80.000000, 3930.000000)">
                <g id="feature" transform="translate(332.000000, 303.000000)">
                    <g id="perky-game" transform="translate(2.000000, 0.000000)">
                        <path d="M62.7631027,50.6852612 C60.320774,51.2293553 58.9011164,50.1570847 58.9011164,50.1570847 C58.9011164,50.1570847 60.0920753,48.4046965 62.1589932,47.9430847 C64.225911,47.48292 65.8541301,48.6072847 65.8541301,48.6072847 C65.8541301,48.6072847 65.2054315,50.1411671 62.7631027,50.6852612 Z M53.8007055,45.5568847 C53.1361849,45.7044847 52.7694041,46.4106494 53.0096096,47.0502494 C54.5414589,51.1251671 58.855089,53.5562259 63.2075548,52.5866965 C67.5600205,51.61572 70.4482397,47.5798729 70.1260479,43.2343553 C70.0757055,42.5527906 69.4457055,42.0680259 68.7826233,42.2156259 L53.8007055,45.5568847 Z" id="Fill-1" fill="#11100D"></path>
                        <path d="M71.1136233,43.9354553 C58.1554726,1.32391412 28.5425959,8.01945529 28.5425959,8.01945529 C28.5425959,8.01945529 -1.49459589,12.4011494 1.52307534,56.8591376 C1.52307534,56.8591376 5.33328082,99.1769259 43.9531438,92.0053024 C82.5715685,84.8322318 71.1136233,43.9354553 71.1136233,43.9354553 Z" id="Stroke-3" stroke="#11100D" stroke-width="2.62588193" stroke-linecap="round" stroke-linejoin="round"></path>
                        <polyline id="Stroke-5" stroke="#11100D" stroke-width="2.62588193" stroke-linecap="round" stroke-linejoin="round" points="23.7613562 91.0094365 24.6560137 121.001178 31.4910822 122.708707"></polyline>
                        <polyline id="Stroke-7" stroke="#11100D" stroke-width="2.62588193" stroke-linecap="round" stroke-linejoin="round" points="49.2609658 91.0094365 50.1556233 121.001178 56.9906918 122.708707"></polyline>
                        <path d="M22.0932945,33.7396235 C23.7761712,9.14830588 60.3751438,24.9198 64.5061027,2.29792941 C64.7908973,0.743788235 62.423363,0.0766941176 62.1385685,1.64096471 C59.4905548,16.1361529 41.4348699,13.1306118 31.1563767,17.4717882 C24.138637,20.4353647 20.1601438,26.1121765 19.6365822,33.7396235 C19.5287055,35.3270471 21.9854178,35.3198118 22.0932945,33.7396235" id="Fill-9" fill="#11100D"></path>
                        <path d="M71.7886438,46.8810882 C71.7886438,46.8810882 78.8020685,72.3666882 98.0616575,61.5137471 L104.482479,61.9189235" id="Stroke-11" stroke="#11100D" stroke-width="2.62588193" stroke-linecap="round" stroke-linejoin="round"></path>
                        <path d="M98.062089,61.5141812 L98.062089,56.1412518" id="Stroke-13" stroke="#11100D" stroke-width="2.62588193" stroke-linecap="round" stroke-linejoin="round"></path>
                        <path d="M20.3094452,53.86908 C20.3094452,53.86908 18.8595822,96.1145153 50.3941027,81.5484212 L56.8149247,81.9521506" id="Stroke-15" stroke="#11100D" stroke-width="2.62588193" stroke-linecap="round" stroke-linejoin="round"></path>
                        <path d="M50.3945342,81.5484212 L50.3945342,76.1754918" id="Stroke-17" stroke="#11100D" stroke-width="2.62588193" stroke-linecap="round" stroke-linejoin="round"></path>
                        <g id="Group-22" transform="translate(33.082192, 19.838019)">
                            <path d="M28.7292945,0.0599082353 L6.23628082,9.03022588 C1.17902055,11.0474259 -1.29639041,16.8081671 0.708678082,21.8960259 L1.88237671,24.8784141 C3.88888356,29.9662729 9.61497945,32.4566612 14.6736781,30.4394612 L20.0430616,28.1791553" id="Fill-19" fill="#F7F7F7"></path>
                            <path d="M28.7292945,0.0599082353 L6.23628082,9.03022588 C1.17902055,11.0474259 -1.29639041,16.8081671 0.708678082,21.8960259 L1.88237671,24.8784141 C3.88888356,29.9662729 9.61497945,32.4566612 14.6736781,30.4394612 L20.0430616,28.1791553" id="Stroke-21" stroke="#11100D" stroke-width="2.32594594" stroke-linecap="round" stroke-linejoin="round"></path>
                        </g>
                        <path d="M77.0075753,38.61216 L54.5145616,47.5824776 C49.455863,49.5996776 43.7312055,47.1092894 41.7246986,42.0199835 L40.551,39.0390424 C38.5459315,33.9497365 41.0199041,28.1889953 46.0786027,26.1717953 L68.5716164,17.2014776 C73.6303151,15.1842776 79.356411,17.6746659 81.3614795,22.7639718 L82.5366164,25.7449129 C84.5416849,30.8342188 82.066274,36.59496 77.0075753,38.61216" id="Fill-23" fill="#F7F7F7"></path>
                        <path d="M77.0075753,38.61216 L54.5145616,47.5824776 C49.455863,49.5996776 43.7312055,47.1092894 41.7246986,42.0199835 L40.551,39.0390424 C38.5459315,33.9497365 41.0199041,28.1889953 46.0786027,26.1717953 L68.5716164,17.2014776 C73.6303151,15.1842776 79.356411,17.6746659 81.3614795,22.7639718 L82.5366164,25.7449129 C84.5416849,30.8342188 82.066274,36.59496 77.0075753,38.61216 Z" id="Stroke-25" stroke="#11100D" stroke-width="2.32594594" stroke-linecap="round" stroke-linejoin="round"></path>
                        <path d="M73.6774932,32.1675388 L52.6257123,40.7789859 C50.3847534,41.6718212 47.8474932,40.5691624 46.9600274,38.3160918 C46.0725616,36.0615741 47.168589,33.5104094 49.4081096,32.6175741 L70.4613288,24.00468 C72.7022877,23.1118447 75.2381096,24.2145035 76.1255753,26.4690212 C77.0144795,28.7220918 75.9184521,31.2732565 73.6774932,32.1675388" id="Fill-27" fill="#11100D" opacity="0.100000001"></path>
                        <g id="Group-32" transform="translate(0.000000, 42.990960)">
                            <path d="M34.3116986,0.757245882 C34.3116986,0.757245882 18.902589,8.05910471 1.31005479,7.02011647" id="Fill-29" fill="#F7F7F7"></path>
                            <path d="M34.3116986,0.757245882 C34.3116986,0.757245882 18.902589,8.05910471 1.31005479,7.02011647" id="Stroke-31" stroke="#11100D" stroke-width="2.32594594" stroke-linecap="round" stroke-linejoin="round"></path>
                        </g>
                        <path d="M70.3671164,1.31783647 L73.1877329,4.16854235" id="Stroke-33" stroke="#11100D" stroke-width="2.62588193" stroke-linecap="round" stroke-linejoin="round"></path>
                        <path d="M76.6213767,7.63598471 L79.4419932,10.4866906" id="Stroke-35" stroke="#11100D" stroke-width="2.62588193" stroke-linecap="round" stroke-linejoin="round"></path>
                        <path d="M79.4611233,1.33693765 L77.2359863,3.56685529" id="Stroke-37" stroke="#11100D" stroke-width="2.62588193" stroke-linecap="round" stroke-linejoin="round"></path>
                        <path d="M72.5443562,8.26704706 L70.3479863,10.4680235" id="Stroke-39" stroke="#11100D" stroke-width="2.62588193" stroke-linecap="round" stroke-linejoin="round"></path>
                    </g>
                </g>
            </g>
        </g>
    </g>
</svg>