<svg height="124" viewBox="0 0 106 124" width="106" xmlns="http://www.w3.org/2000/svg"><g fill="none" fill-rule="evenodd"><path d="m62.7631027 50.6852612c-2.4423287.5440941-3.8619863-.5281765-3.8619863-.5281765s1.1909589-1.7523882 3.2578768-2.214c2.0669178-.4601647 3.6951369.6642 3.6951369.6642s-.6486986 1.5338824-3.0910274 2.0779765zm-8.9623972-5.1283765c-.6645206.1476-1.0313014.8537647-.7910959 1.4933647 1.5318493 4.0749177 5.8454794 6.5059765 10.1979452 5.5364471 4.3524657-.9709765 7.2406849-5.0068236 6.9184931-9.3523412-.0503424-.6815647-.6803424-1.1663294-1.3434246-1.0187294z" fill="#11100d"/><path d="m71.1136233 43.9354553c-12.9581507-42.61154118-42.5710274-35.91600001-42.5710274-35.91600001s-30.03719179 4.38169411-27.01952056 48.83968231c0 0 3.81020548 42.3177883 42.43006846 35.1461648 38.6184247-7.1730706 27.1604795-48.0698471 27.1604795-48.0698471z" stroke="#11100d" stroke-linecap="round" stroke-linejoin="round" stroke-width="2.625882"/><path d="m23.7613562 91.0094365.8946575 29.9917415 6.8350685 1.707529" stroke="#11100d" stroke-linecap="round" stroke-linejoin="round" stroke-width="2.625882"/><path d="m49.2609658 91.0094365.8946575 29.9917415 6.8350685 1.707529" stroke="#11100d" stroke-linecap="round" stroke-linejoin="round" stroke-width="2.625882"/><path d="m22.0932945 33.7396235c1.6828767-24.59131762 38.2818493-8.8198235 42.4128082-31.44169409.2847946-1.55414117-2.0827397-2.22123529-2.3675342-.6569647-2.6480137 14.49518819-20.7036986 11.48964709-30.9821918 15.83082349-7.0177397 2.9635765-10.9962329 8.6403883-11.5197945 16.2678353-.1078767 1.5874236 2.3488356 1.5801883 2.4567123 0" fill="#11100d"/><g stroke="#11100d" stroke-linecap="round" stroke-linejoin="round" stroke-width="2.625882"><path d="m71.7886438 46.8810882s7.0134247 25.4856 26.2730137 14.6326589l6.4208215.4051764"/><path d="m98.062089 61.5141812v-5.3729294"/><path d="m20.3094452 53.86908s-1.449863 42.2454353 30.0846575 27.6793412l6.420822.4037294"/><path d="m50.3945342 81.5484212v-5.3729294"/></g><g transform="translate(33.082192 19.838019)"><path d="m28.7292945.05990824-22.49301368 8.97031764c-5.05726027 2.01720002-7.53267123 7.77794122-5.52760274 12.86580002l1.17369863 2.9823882c2.00650685 5.0878588 7.73260274 7.5782471 12.79130139 5.5610471l5.3693835-2.2603059" fill="#f7f7f7"/><path d="m28.7292945.05990824-22.49301368 8.97031764c-5.05726027 2.01720002-7.53267123 7.77794122-5.52760274 12.86580002l1.17369863 2.9823882c2.00650685 5.0878588 7.73260274 7.5782471 12.79130139 5.5610471l5.3693835-2.2603059" stroke="#11100d" stroke-linecap="round" stroke-linejoin="round" stroke-width="2.325946"/></g><path d="m77.0075753 38.61216-22.4930137 8.9703176c-5.0586986 2.0172-10.7833561-.4731882-12.789863-5.5624941l-1.1736986-2.9809411c-2.0050685-5.0893059.4689041-10.8500471 5.5276027-12.8672471l22.4930137-8.9703177c5.0586987-2.0172 10.7847946.4731883 12.7898631 5.5624942l1.1751369 2.9809411c2.0050685 5.0893059-.4703424 10.8500471-5.5290411 12.8672471" fill="#f7f7f7"/><path d="m77.0075753 38.61216-22.4930137 8.9703176c-5.0586986 2.0172-10.7833561-.4731882-12.789863-5.5624941l-1.1736986-2.9809411c-2.0050685-5.0893059.4689041-10.8500471 5.5276027-12.8672471l22.4930137-8.9703177c5.0586987-2.0172 10.7847946.4731883 12.7898631 5.5624942l1.1751369 2.9809411c2.0050685 5.0893059-.4703424 10.8500471-5.5290411 12.8672471z" stroke="#11100d" stroke-linecap="round" stroke-linejoin="round" stroke-width="2.325946"/><path d="m73.6774932 32.1675388-21.0517809 8.6114471c-2.2409589.8928353-4.7782191-.2098235-5.6656849-2.4628941-.8874658-2.2545177.2085616-4.8056824 2.4480822-5.6985177l21.0532192-8.6128941c2.2409589-.8928353 4.7767808.2098235 5.6642465 2.4643412.8889042 2.2530706-.2071232 4.8042353-2.4480821 5.6985176" fill="#11100d" opacity=".1"/><g transform="translate(0 42.99096)"><path d="m34.3116986.75724588s-15.4091096 7.30185883-33.00164381 6.26287059" fill="#f7f7f7"/><path d="m34.3116986.75724588s-15.4091096 7.30185883-33.00164381 6.26287059" stroke="#11100d" stroke-linecap="round" stroke-linejoin="round" stroke-width="2.325946"/></g><path d="m70.3671164 1.31783647 2.8206165 2.85070588" stroke="#11100d" stroke-linecap="round" stroke-linejoin="round" stroke-width="2.625882"/><path d="m76.6213767 7.63598471 2.8206165 2.85070589" stroke="#11100d" stroke-linecap="round" stroke-linejoin="round" stroke-width="2.625882"/><path d="m79.4611233 1.33693765-2.225137 2.22991764" stroke="#11100d" stroke-linecap="round" stroke-linejoin="round" stroke-width="2.625882"/><path d="m72.5443562 8.26704706-2.1963699 2.20097644" stroke="#11100d" stroke-linecap="round" stroke-linejoin="round" stroke-width="2.625882"/></g></svg>