<?xml version="1.0" encoding="UTF-8"?>
<svg width="122px" height="116px" viewBox="0 0 122 116" version="1.1" xmlns="http://www.w3.org/2000/svg" xmlns:xlink="http://www.w3.org/1999/xlink">
    <!-- Generator: Sketch 52.5 (67469) - http://www.bohemiancoding.com/sketch -->
    <title>perky-flexible</title>
    <desc>Created with Sketch.</desc>
    <g id="✔--Careers" stroke="none" stroke-width="1" fill="none" fill-rule="evenodd">
        <g id="Careers__vertical" transform="translate(-734.000000, -4549.000000)">
            <g id="perks" transform="translate(80.000000, 3930.000000)">
                <g id="equipment" transform="translate(655.000000, 620.000000)">
                    <g id="perky-flexible">
                        <path d="M82.0608059,42.5786111 C77.0571,-0.855895062 47.0419824,0.296944444 47.0419824,0.296944444 C47.0419824,0.296944444 17.0254412,-0.855895062 12.0231588,42.5786111 C12.0231588,42.5786111 8.17535882,84.0907716 47.0419824,84.0907716 C85.9086059,84.0907716 82.0608059,42.5786111 82.0608059,42.5786111 Z" id="Stroke-1" stroke="#11100D" stroke-width="2.56979535" stroke-linecap="round" stroke-linejoin="round"></path>
                        <polyline id="Stroke-3" stroke="#11100D" stroke-width="2.56979535" stroke-linecap="round" stroke-linejoin="round" points="34.6847506 82.4175926 35.5716094 111.844815 42.3347976 113.518704"></polyline>
                        <polyline id="Stroke-5" stroke="#11100D" stroke-width="2.56979535" stroke-linecap="round" stroke-linejoin="round" points="59.92108 82.4175926 60.8079388 111.844815 67.5711271 113.518704"></polyline>
                        <path d="M46.9383494,0.294388889 C46.9383494,0.294388889 42.7360906,24.518216 16.1246318,26.6620432" id="Stroke-7" stroke="#11100D" stroke-width="2.57261775" stroke-linecap="round" stroke-linejoin="round"></path>
                        <path d="M44.1468082,9.61705556 C44.1468082,9.61705556 54.5912435,19.4076728 75.3875847,19.3650802" id="Stroke-9" stroke="#11100D" stroke-width="2.57261775" stroke-linecap="round" stroke-linejoin="round"></path>
                        <path d="M21.1506871,14.7934753 C21.1506871,14.7934753 5.67265176,3.89829012 0.297404706,28.1391543" id="Stroke-11" stroke="#11100D" stroke-width="2.57261775" stroke-linecap="round" stroke-linejoin="round"></path>
                        <path d="M6.23565765,24.2735926 L5.28474,30.5645185" id="Stroke-13" stroke="#11100D" stroke-width="2.57261775" stroke-linecap="round" stroke-linejoin="round"></path>
                        <path d="M10.7244729,24.2735926 L10.7244729,31.1338395" id="Stroke-15" stroke="#11100D" stroke-width="2.57261775" stroke-linecap="round" stroke-linejoin="round"></path>
                        <path d="M62.3254212,42.2451111 C59.8499035,42.2451111 58.7068094,40.9148025 58.7068094,40.9148025 C58.7068094,40.9148025 60.2299859,39.4907901 62.3254212,39.4907901 C64.4208565,39.4907901 65.7547035,40.9148025 65.7547035,40.9148025 C65.7547035,40.9148025 64.8023624,42.2451111 62.3254212,42.2451111 Z M54.7565153,35.4175185 C54.0846094,35.4175185 53.5778329,36.0166543 53.6746329,36.6810988 C54.2881741,40.911963 57.9381035,44.1617778 62.3510447,44.1617778 C66.7625624,44.1617778 70.4124918,40.911963 71.0260329,36.6810988 C71.1228329,36.0166543 70.6160565,35.4175185 69.9441506,35.4175185 L54.7565153,35.4175185 Z" id="Fill-17" fill="#11100D"></path>
                        <g id="Group-22" transform="translate(33.164706, 60.861056)">
                            <polyline id="Fill-19" fill="#F7F7F7" points="22.8159024 5.96282099 0.07502 5.96282099 0.07502 1.2322037 25.2472906 1.2322037"></polyline>
                            <polyline id="Stroke-21" stroke="#11100D" stroke-width="2.27626573" stroke-linecap="round" stroke-linejoin="round" points="22.8159024 5.96282099 0.07502 5.96282099 0.07502 1.2322037 25.2472906 1.2322037"></polyline>
                        </g>
                        <polygon id="Fill-23" fill="#F7F7F7" points="69.9323353 30.6451605 119.148018 30.6451605 103.973194 66.8233086 55.9803235 66.8233086"></polygon>
                        <polygon id="Stroke-25" stroke="#11100D" stroke-width="2.27626573" stroke-linecap="round" stroke-linejoin="round" points="69.9323353 30.6451605 119.148018 30.6451605 103.973194 66.8233086 55.9803235 66.8233086"></polygon>
                        <path d="M92.2507141,50.3296111 C91.4506906,52.2363395 89.5275024,53.2528827 87.9573494,52.5969568 C86.3871965,51.9410309 85.7636906,49.8625123 86.5651376,47.955784 C87.3651612,46.0476358 89.2869259,45.0325123 90.8570788,45.6884383 C92.4286553,46.3429444 93.0507376,48.421463 92.2507141,50.3296111" id="Fill-27" fill="#11100D" opacity="0.100000001"></path>
                        <path d="M53.4679365,30.6451605 C53.4679365,32.0067037 52.3618541,33.1098519 50.9966894,33.1098519 C49.6329482,33.1098519 48.5254424,32.0067037 48.5254424,30.6451605 C48.5254424,29.285037 49.6329482,28.1804691 50.9966894,28.1804691 C52.3618541,28.1804691 53.4679365,29.285037 53.4679365,30.6451605" id="Fill-29" fill="#11100D"></path>
                        <path d="M71.6046976,30.6451605 C71.6046976,32.0067037 70.4986153,33.1098519 69.1334506,33.1098519 C67.7682859,33.1098519 66.6622035,32.0067037 66.6622035,30.6451605 C66.6622035,29.285037 67.7682859,28.1804691 69.1334506,28.1804691 C70.4986153,28.1804691 71.6046976,29.285037 71.6046976,30.6451605" id="Fill-31" fill="#11100D"></path>
                        <path d="M23.9866424,39.4902222 C23.9866424,39.4902222 12.28096,90.6240494 49.2315129,67.1342346" id="Stroke-33" stroke="#11100D" stroke-width="2.56979535" stroke-linecap="round" stroke-linejoin="round"></path>
                        <path d="M77.2245071,67.0595556 C77.2245071,67.0595556 80.4488012,79.816037 92.4762012,67.2327654" id="Stroke-35" stroke="#11100D" stroke-width="2.56979535" stroke-linecap="round" stroke-linejoin="round"></path>
                    </g>
                </g>
            </g>
        </g>
    </g>
</svg>