<svg height="121" viewBox="0 0 92 121" width="92" xmlns="http://www.w3.org/2000/svg"><g fill="none" fill-rule="evenodd" transform="translate(-1 1)"><path d="m47.1367576 50.5374193c-2.4254546 0-3.543394-1.3096704-3.543394-1.3096704s1.4915152-1.4019205 3.543394-1.4019205 3.358 1.4019205 3.358 1.4019205-.9325455 1.3096704-3.358 1.3096704zm-7.4115758-6.7202727c-.6579394 0-1.1541818.5884432-1.0593939 1.2425795.6007879 4.1652273 4.1748485 7.364625 8.4960606 7.364625 4.3184242 0 7.8938788-3.1993977 8.4946667-7.364625.0947878-.6541363-.4014546-1.2425795-1.059394-1.2425795z" fill="#11100d"/><path d="m71.3475333 48.1043955c-4.898303-42.7606705-34.2909091-41.62431823-34.2909091-41.62431823s-29.39121208-1.13635227-34.28951511 41.62431823c0 0-3.76921212 40.8681477 34.28951511 40.8681477 38.0587273 0 34.2909091-40.8681477 34.2909091-40.8681477z" stroke="#11100d" stroke-linecap="round" stroke-linejoin="round" stroke-width="2.5494"/><path d="m24.9565333 87.3260205.8670303 28.9692955 6.624 1.649318" stroke="#11100d" stroke-linecap="round" stroke-linejoin="round" stroke-width="2.5494"/><path d="m49.6687091 87.3260205.8670303 28.9692955 6.624 1.649318" stroke="#11100d" stroke-linecap="round" stroke-linejoin="round" stroke-width="2.5494"/><path d="m36.8243939 6.47630341s-4.1149091 23.84802269-30.17321208 25.95998859" stroke="#11100d" stroke-linecap="round" stroke-linejoin="round" stroke-width="2.5522"/><path d="m34.0910182 15.6543398s10.2273333 9.6387272 30.5913939 9.5967954" stroke="#11100d" stroke-linecap="round" stroke-linejoin="round" stroke-width="2.5522"/><path d="m40.1663636 40.1704761c-.6858181 0-1.2433939-.5576931-1.2433939-1.2467727 0-.5255454-.4265455-.9546477-.9520606-.9546477-.5255152 0-.9520606.4291023-.9520606.9546477 0 .6890796-.5561818 1.2467727-1.243394 1.2467727-.6858181 0-1.242-.5576931-1.242-1.2467727 0-1.8995114 1.541697-3.4467954 3.4374546-3.4467954s3.4388485 1.547284 3.4388485 3.4467954c0 .6890796-.5575758 1.2467727-1.243394 1.2467727" fill="#11100d"/><path d="m58.097303 40.1704761c-.6858182 0-1.2433939-.5576931-1.2433939-1.2467727 0-.5255454-.4265455-.9546477-.9520606-.9546477-.5241212 0-.9520606.4291023-.9520606.9546477 0 .6890796-.5561818 1.2467727-1.243394 1.2467727-.6858181 0-1.242-.5576931-1.242-1.2467727 0-1.8995114 1.541697-3.4467954 3.4374546-3.4467954s3.4388485 1.547284 3.4388485 3.4467954c0 .6890796-.5575758 1.2467727-1.243394 1.2467727" fill="#11100d"/><g stroke="#11100d"><path d="m36.6725939 7.18816591s-1.6769091-7.08507955-8.7595151-6.91176136" stroke-linecap="round" stroke-linejoin="round" stroke-width="2.5494"/><path d="m36.3200667 6.10506705s.6551515-2.7675 2.8756969-4.80119319" stroke-linecap="round" stroke-linejoin="round" stroke-width="2.5494"/><path d="m45.5454364 36.6270977c0 4.3119887-3.4862425 7.8091023-7.7879394 7.8091023-4.3003031 0-7.7879394-3.4971136-7.7879394-7.8091023 0-4.3119886 3.4876363-7.8091022 7.7879394-7.8091022 4.3016969 0 7.7879394 3.4971136 7.7879394 7.8091022z" stroke-linecap="round" stroke-linejoin="round" stroke-width="2.5494"/><path d="m64.9475394 36.6270977c0 4.3119887-3.4862424 7.8091023-7.7879394 7.8091023s-7.7879394-3.4971136-7.7879394-7.8091023c0-4.3119886 3.4862424-7.8091022 7.7879394-7.8091022s7.7879394 3.4971136 7.7879394 7.8091022z" stroke-linecap="round" stroke-linejoin="round" stroke-width="2.5494"/><path d="m45.5454364 36.6270977h3.2311515" stroke-linecap="round" stroke-linejoin="round" stroke-width="2.5494"/><path d="m11.375103 50.2125875v50.9038295h-8.27999997" stroke-linecap="round" stroke-linejoin="round" stroke-width="2.5494"/><path d="m5.10000606 96.7436273 6.27551514 4.3720907" stroke-linecap="round" stroke-linejoin="round" stroke-width="2.5494"/><path d="m29.969697 36.6270977h-25.07000003" stroke-linecap="round" stroke-linejoin="round" stroke-width="2.5494"/><path d="m69.216897 36.6270977h-4.2696364" stroke-linecap="round" stroke-linejoin="round" stroke-width="2.5494"/></g><path d="m23.6759212 45.4072011c0 .5367273-.4335151.9714205-.9687879.9714205-.5352727 0-.9687878-.4346932-.9687878-.9714205 0-.5367272.4335151-.9714204.9687878-.9714204.5352728 0 .9687879.4346932.9687879.9714204" fill="#11100d" opacity=".1"/><path d="m27.3952303 50.2125875c0 .7184318-.5812727 1.3012841-1.2963636 1.3012841-.7164849 0-1.2963637-.5828523-1.2963637-1.3012841s.5798788-1.2998864 1.2963637-1.2998864c.7150909 0 1.2963636.5814546 1.2963636 1.2998864" fill="#11100d" opacity=".1"/><path d="m68.379 67.9810557c0 .7184318-.5812727 1.2998863-1.2963636 1.2998863-.7164849 0-1.2977576-.5814545-1.2977576-1.2998863s.5812727-1.2998864 1.2977576-1.2998864c.7150909 0 1.2963636.5814546 1.2963636 1.2998864" fill="#11100d"/><path d="m17.4352545 62.3458386c0 .7184319-.5812727 1.2998864-1.2963636 1.2998864-.7164848 0-1.2977576-.5814545-1.2977576-1.2998864 0-.7184318.5812728-1.2998863 1.2977576-1.2998863.7150909 0 1.2963636.5814545 1.2963636 1.2998863" fill="#11100d" opacity=".1"/><path d="m40.0533152 52.7125625c0 .4989886-.4028485.9029318-.9004849.9029318s-.9004848-.4039432-.9004848-.9029318.4028484-.9029318.9004848-.9029318.9004849.4039432.9004849.9029318" fill="#11100d" opacity=".1"/><path d="m58.060503 48.1207489c0 .4989886-.4028485.9029318-.9004848.9029318-.4976364 0-.9004849-.4039432-.9004849-.9029318 0-.4989887.4028485-.9029319.9004849-.9029319.4976363 0 .9004848.4039432.9004848.9029319" fill="#11100d" opacity=".1"/><path d="m70.1176606 44.4353614c0 .8414318-.6802424 1.522125-1.518 1.522125s-1.518-.6806932-1.518-1.522125c0-.8400341.6802424-1.522125 1.518-1.522125s1.518.6820909 1.518 1.522125" fill="#11100d"/><path d="m35.1201636 22.8893955c0 .6681136-.5408484 1.2104318-1.2071515 1.2104318-.6676969 0-1.2071515-.5423182-1.2071515-1.2104318 0-.6695114.5394546-1.2104319 1.2071515-1.2104319.6663031 0 1.2071515.5409205 1.2071515 1.2104319" fill="#11100d" opacity=".1"/><path d="m71.3475333 48.1043955 20.2037576 8.2060568-19.0872121 31.0155682-13.1239394-5.4343637" stroke="#11100d" stroke-linecap="round" stroke-linejoin="round" stroke-width="2.5494"/><path d="m73.2502606 74.6626114s11.9195758 4.8179659 11.9195758-7.9810228" stroke="#11100d" stroke-linecap="round" stroke-linejoin="round" stroke-width="2.5494"/><path d="m71.4506848 44.4360602 18.4181213 7.0766932-1.6434546 3.4467955" stroke="#11100d" stroke-linecap="round" stroke-linejoin="round" stroke-width="2.5494"/><path d="m21.5482121 65.8804114h16.8429697v4.1610341l-16.8429697.0321477z" stroke="#11100d" stroke-linecap="round" stroke-linejoin="round" stroke-width="2.5494"/><path d="m25.2938667 65.3835193v-8.5457045" stroke="#11100d" stroke-linecap="round" stroke-linejoin="round" stroke-width="2.5494"/><path d="m29.3102242 65.8804114v-5.427375" stroke="#11100d" stroke-linecap="round" stroke-linejoin="round" stroke-width="2.5494"/></g></svg>