<svg height="116" viewBox="0 0 122 116" width="122" xmlns="http://www.w3.org/2000/svg"><g fill="none" fill-rule="evenodd" transform="translate(1 1)"><g stroke="#11100d" stroke-linecap="round" stroke-linejoin="round"><path d="m82.0608059 42.5786111c-5.0037059-43.43450616-35.0188235-42.28166666-35.0188235-42.28166666s-30.0165412-1.1528395-35.0188236 42.28166666c0 0-3.84779998 41.5121605 35.0188236 41.5121605 38.8666235 0 35.0188235-41.5121605 35.0188235-41.5121605z" stroke-width="2.569795"/><path d="m34.6847506 82.4175926.8868588 29.4272224 6.7631882 1.673889" stroke-width="2.569795"/><path d="m59.92108 82.4175926.8868588 29.4272224 6.7631883 1.673889" stroke-width="2.569795"/><path d="m46.9383494.29438889s-4.2022588 24.22382711-30.8137176 26.36765431" stroke-width="2.572618"/><path d="m44.1468082 9.61705556s10.4444353 9.79061724 31.2407765 9.74802464" stroke-width="2.572618"/><path d="m21.1506871 14.7934753s-15.47803534-10.89518518-20.85328239 13.345679" stroke-width="2.572618"/><path d="m6.23565765 24.2735926-.95091765 6.2909259" stroke-width="2.572618"/><path d="m10.7244729 24.2735926v6.8602469" stroke-width="2.572618"/></g><path d="m62.3254212 42.2451111c-2.4755177 0-3.6186118-1.3303086-3.6186118-1.3303086s1.5231765-1.4240124 3.6186118-1.4240124 3.4292823 1.4240124 3.4292823 1.4240124-.9523411 1.3303086-3.4292823 1.3303086zm-7.5689059-6.8275926c-.6719059 0-1.1786824.5991358-1.0818824 1.2635803.6135412 4.2308642 4.2634706 7.480679 8.6764118 7.480679 4.4115177 0 8.0614471-3.2498148 8.6749882-7.480679.0968-.6644445-.4099764-1.2635803-1.0818823-1.2635803z" fill="#11100d"/><g transform="translate(33.164706 60.861056)"><path d="m22.8159024 5.96282099h-22.7408824v-4.73061729h25.1722706" fill="#f7f7f7"/><path d="m22.8159024 5.96282099h-22.7408824v-4.73061729h25.1722706" stroke="#11100d" stroke-linecap="round" stroke-linejoin="round" stroke-width="2.276266"/></g><path d="m69.9323353 30.6451605h49.2156827l-15.174824 36.1781481h-47.9928705z" fill="#f7f7f7"/><path d="m69.9323353 30.6451605h49.2156827l-15.174824 36.1781481h-47.9928705z" stroke="#11100d" stroke-linecap="round" stroke-linejoin="round" stroke-width="2.276266"/><path d="m92.2507141 50.3296111c-.8000235 1.9067284-2.7232117 2.9232716-4.2933647 2.2673457-1.5701529-.6559259-2.1936588-2.7344445-1.3922118-4.6411728.8000236-1.9081482 2.7217883-2.9232717 4.2919412-2.2673457 1.5715765.6545061 2.1936588 2.7330247 1.3936353 4.6411728" fill="#11100d" opacity=".1"/><path d="m53.4679365 30.6451605c0 1.3615432-1.1060824 2.4646914-2.4712471 2.4646914-1.3637412 0-2.471247-1.1031482-2.471247-2.4646914 0-1.3601235 1.1075058-2.4646914 2.471247-2.4646914 1.3651647 0 2.4712471 1.1045679 2.4712471 2.4646914" fill="#11100d"/><path d="m71.6046976 30.6451605c0 1.3615432-1.1060823 2.4646914-2.471247 2.4646914s-2.4712471-1.1031482-2.4712471-2.4646914c0-1.3601235 1.1060824-2.4646914 2.4712471-2.4646914s2.471247 1.1045679 2.471247 2.4646914" fill="#11100d"/><path d="m23.9866424 39.4902222s-11.7056824 51.1338272 25.2448705 27.6440124" stroke="#11100d" stroke-linecap="round" stroke-linejoin="round" stroke-width="2.569795"/><path d="m77.2245071 67.0595556s3.2242941 12.7564814 15.2516941.1732098" stroke="#11100d" stroke-linecap="round" stroke-linejoin="round" stroke-width="2.569795"/></g></svg>