<svg height="123" viewBox="0 0 94 123" width="94" xmlns="http://www.w3.org/2000/svg"><g fill="none" fill-rule="evenodd" transform="translate(-1 1)"><g stroke="#11100d" stroke-linecap="round" stroke-linejoin="round"><path d="m85.4205061 42.7466299c-5.0047879-43.60381611-35.0363637-42.44505749-35.0363637-42.44505749s-30.0315757-1.15875862-35.0363636 42.44505749c0 0-3.8497273 41.673977 35.0363636 41.673977s35.0363637-41.673977 35.0363637-41.673977z" stroke-width="2.593545"/><path d="m38.0207212 82.7417609.887303 29.5405061" stroke-width="2.593545"/><path d="m63.2699758 82.7417609.8858787 29.5405061 6.768 1.681839" stroke-width="2.593545"/><path d="m49.3864606 1.32834943s-4.2043636 24.31825287-30.8291515 26.47186207" stroke-width="2.596394"/><path d="m46.5936636 10.6874989s10.4496667 9.8287816 31.2564243 9.7860229" stroke-width="2.596394"/><path d="m23.5860242 15.8840966s-15.48578784-10.93765522-20.86372723 13.3977011" stroke-width="2.596394"/><path d="m8.66309697 25.4010253-.95139394 6.3154483" stroke-width="2.596394"/><path d="m13.1541606 25.4010253v6.8869885" stroke-width="2.596394"/></g><path d="m64.000897 42.0911402c-2.4781818 0-3.6204243-1.3354942-3.6204243-1.3354942s1.5239394-1.4295632 3.6204243-1.4295632c2.0964848 0 3.431 1.4295632 3.431 1.4295632s-.9528182 1.3354942-3.431 1.3354942zm-7.572697-6.8542069c-.6722424 0-1.1792727.6014713-1.0824242 1.2685058.6138484 4.2473563 4.265606 7.5098391 8.6807575 7.5098391 4.4137273 0 8.0654849-3.2624828 8.6793334-7.5098391.0968485-.6670345-.4101819-1.2685058-1.0824243-1.2685058z" fill="#11100d"/><path d="m56.3525727 32.7731816c-.7007272 0-1.2704242-.5686896-1.2704242-1.2713563 0-.5373333-.4358182-.9734713-.9727576-.9734713s-.9727576.436138-.9727576.9734713c0 .7026667-.5682727 1.2713563-1.2704242 1.2713563-.7007273 0-1.269-.5686896-1.269-1.2713563 0-1.9383908 1.5752121-3.5147586 3.5121818-3.5147586s3.5136061 1.5763678 3.5136061 3.5147586c0 .7026667-.569697 1.2713563-1.2704243 1.2713563" fill="#11100d"/><path d="m74.6733152 32.7731816c-.7007273 0-1.2704243-.5686896-1.2704243-1.2713563 0-.5373333-.4358182-.9734713-.9727576-.9734713-.5355151 0-.9727575.436138-.9727575.9734713 0 .7026667-.5682728 1.2713563-1.2704243 1.2713563-.7007273 0-1.269-.5686896-1.269-1.2713563 0-1.9383908 1.5752121-3.5147586 3.5121818-3.5147586s3.5136061 1.5763678 3.5136061 3.5147586c0 .7026667-.569697 1.2713563-1.2704242 1.2713563" fill="#11100d"/><path d="m77.7166364 72.3958851h13.6470909c2.491-8.0058391 2.491-16.5803679 0-24.5862069h-5.8379697" stroke="#11100d" stroke-linecap="round" stroke-linejoin="round" stroke-width="2.297303"/><path d="m24.5372758 42.3596644v51.9061149h-8.46" stroke="#11100d" stroke-linecap="round" stroke-linejoin="round" stroke-width="2.593545"/><path d="m18.1254788 89.807623 6.4119394 4.4582988" stroke="#11100d" stroke-linecap="round" stroke-linejoin="round" stroke-width="2.593545"/><path d="m85.4744848 72.9359264v21.3308506h-8.46" stroke="#11100d" stroke-linecap="round" stroke-linejoin="round" stroke-width="2.593545"/><path d="m79.0629727 89.807623 6.4119394 4.4582988" stroke="#11100d" stroke-linecap="round" stroke-linejoin="round" stroke-width="2.593545"/><path d="m9.64781818 47.8089655c-3.19884848 7.8832644-3.19884848 16.7043678 0 24.5862069h30.30930302c2.4924243-8.0044138 2.4924243-16.5803678 0-24.5862069z" fill="#f7f7f7"/><path d="m9.64781818 47.8089655c-3.19884848 7.8832644-3.19884848 16.7043678 0 24.5862069h30.30930302c2.4924243-8.0044138 2.4924243-16.5803678 0-24.5862069z" stroke="#11100d" stroke-linecap="round" stroke-linejoin="round" stroke-width="2.297303"/><path d="m38.9073121 112.621913 12.1245758 7.445701 3.7799394-4.277288-15.9045152-4.845977z" fill="#f7f7f7"/><path d="m38.9073121 112.621913 12.1245758 7.445701 3.7799394-4.277288-15.9045152-4.845977z" stroke="#11100d" stroke-linecap="round" stroke-linejoin="round" stroke-width="2.297303"/><path d="m63.9685667 112.763871 12.5233636 7.633839 3.7799394-4.277287-16.3474545-4.844552z" fill="#f7f7f7"/><path d="m63.9685667 112.763871 12.5233636 7.633839 3.7799394-4.277287-16.3474545-4.844552z" stroke="#11100d" stroke-linecap="round" stroke-linejoin="round" stroke-width="2.297303"/><g transform="translate(47 32.754529)"><path d="m.76894849 2.52673103s12.61166671-4.90156321 31.29345451 0" fill="#f7f7f7"/><path d="m.76894849 2.52673103s12.61166671-4.90156321 31.29345451 0" opacity=".1" stroke="#11100d" stroke-linecap="round" stroke-linejoin="round" stroke-width="2.297303"/></g></g></svg>