<svg height="114" viewBox="0 0 86 114" width="86" xmlns="http://www.w3.org/2000/svg"><g fill="none" fill-rule="evenodd" transform="translate(1 1)"><path d="m42.24502 33.9003988c-.6888 0-1.2488-.5566297-1.2488-1.2443951 0-.5259383-.4284-.9528272-.9562-.9528272-.5264 0-.9562.4268889-.9562.9528272 0 .6877654-.5586 1.2443951-1.2488 1.2443951-.6888 0-1.2474-.5566297-1.2474-1.2443951 0-1.8958889 1.5484-3.4402222 3.4524-3.4402222s3.4538 1.5443333 3.4538 3.4402222c0 .6877654-.56 1.2443951-1.2488 1.2443951" fill="#11100d"/><path d="m59.58164 33.9003988c-.6888 0-1.2488-.5566297-1.2488-1.2443951 0-.5259383-.4284-.9528272-.9562-.9528272-.5264 0-.9562.4268889-.9562.9528272 0 .6877654-.5586 1.2443951-1.2488 1.2443951-.6888 0-1.2474-.5566297-1.2474-1.2443951 0-1.8958889 1.5484-3.4402222 3.4524-3.4402222s3.4538 1.5443333 3.4538 3.4402222c0 .6877654-.56 1.2443951-1.2488 1.2443951" fill="#11100d"/><path d="m21.0899 25.7187802c9.8154-21.5523086 37.9638 5.1770741 49.6104-13.7818148.805-1.311358-1.2614-2.50971602-2.0636-1.2025432-7.399 12.0421729-23.016 2.9672963-33.8618 3.3648889-7.1624.2622716-12.7862 3.9131482-15.7486 10.4169259-.6314 1.3852963 1.428 2.597605 2.0636 1.2025432" fill="#11100d"/><g stroke="#11100d" stroke-linecap="round" stroke-linejoin="round" stroke-width="2.540295"><path d="m22.66518 80.9660148.8708 28.9140492 6.6528 1.646173"/><path d="m47.48452 80.9660148.8722 28.9140492 6.6514 1.646173"/><path d="m10.52872 44.2135321v50.8067531h-8.316"/><path d="m4.22634 90.6552765 6.3028 4.3651482"/><path d="m66.69854 61.275137-.3108 33.7451482h-8.316"/><path d="m60.08592 90.6552765 6.3028 4.3651482"/><path d="m69.26348 34.4168506c-.3962 0-.7868.0265062-1.1746.0585926-7.2534-35.19601234-33.271-34.20272838-33.271-34.20272838s-29.519-1.13279013-34.44 41.54633328c0 0-3.7842 40.7902099 34.44 40.7902099 19.6994 0 28.2282-10.8326543 31.8808-21.334679.8316.159037 1.687.2497161 2.5648.2497161 7.5124 0 13.601-6.0685186 13.601-13.5544198 0-7.4845062-6.0886-13.5530247-13.601-13.5530247z"/><path d="m65.98874 46.3285852s-12.8352 6.5177284-31.017-3.1737654"/><path d="m70.07422 50.1391963c-2.2568 0-4.0852-1.8219506-4.0852-4.0707901s1.8284-4.0707902 4.0852-4.0707902"/><path d="m66.69854 61.275137s-2.6656-.566395-5.1478-1.9489012"/></g></g></svg>