<svg height="119" viewBox="0 0 104 119" width="104" xmlns="http://www.w3.org/2000/svg"><g fill="none" fill-rule="evenodd" transform="translate(-1 2)"><path d="m24.2357556 21.2795865c10.127-22.35113262 39.169 5.3689594 51.1853333-14.29262988.8305555-1.35996276-1.3014445-2.60273724-2.1291111-1.24711479-7.6338889 12.48995587-23.7481111 3.07872421-34.9367778 3.48960657-7.3912222.27199255-13.1921111 4.0581867-16.2485556 10.8030233-.6514444 1.4366415 1.4733334 2.6938837 2.1291112 1.2471148" fill="#11100d"/><path d="m44.2371222 28.093868c-.7106666 0-1.2884444-.5772608-1.2884444-1.2905178 0-.5454319-.442-.9881432-.9865556-.9881432-.5445555 0-.9865555.4427113-.9865555.9881432 0 .713257-.5763334 1.2905178-1.2884445 1.2905178-.7106666 0-1.287-.5772608-1.287-1.2905178 0-1.966159 1.5975556-3.5677321 3.562-3.5677321 1.9644445 0 3.5634445 1.6015731 3.5634445 3.5677321 0 .713257-.5777778 1.2905178-1.2884445 1.2905178" fill="#11100d"/><path d="m62.1241111 28.093868c-.7106667 0-1.2884444-.5772608-1.2884444-1.2905178 0-.5454319-.442-.9881432-.9865556-.9881432-.5431111 0-.9865555.4427113-.9865555.9881432 0 .713257-.5763334 1.2905178-1.2884445 1.2905178-.7106667 0-1.287-.5772608-1.287-1.2905178 0-1.966159 1.5975556-3.5677321 3.562-3.5677321 1.9644445 0 3.5634445 1.6015731 3.5634445 3.5677321 0 .713257-.5777778 1.2905178-1.2884445 1.2905178" fill="#11100d"/><path d="m72.6973 35.5466086c-7.5284444-36.34138783-34.2968889-35.30839484-34.2968889-35.30839484s-30.45755554-1.17477635-35.53333332 43.08622444c0 0-3.90577778 42.3020757 35.53333332 42.3020757 24.037 0 31.9727778-15.7162505 34.5048889-27.9891911" stroke="#11100d" stroke-linecap="round" stroke-linejoin="round" stroke-width="2.638126"/><path d="m25.8607556 83.9222201.8998888 29.9857319 6.8625556 1.707187" stroke="#11100d" stroke-linecap="round" stroke-linejoin="round" stroke-width="2.638126"/><path d="m51.4683 83.9222201.8984444 29.9857319 6.864 1.707187" stroke="#11100d" stroke-linecap="round" stroke-linejoin="round" stroke-width="2.638126"/><path d="m57.8003111 30.6730229c-9.529 0-17.2538889 7.7373201-17.2538889 17.2816544v4.2289055c0 6.1198324 4.953 11.080803 11.063 11.080803 5.759 0 10.5545556-4.4242193 11.0268889-10.1707853l1.2956667-15.7524198c.2946666-3.5908803-2.535-6.6681578-6.1316667-6.6681578" fill="#11100d"/><path d="m55.0853333 60.0809155c1.5628889-.6524928 1.9528889-2.6967772.7251111-3.8643197-1.0847777-1.0315462-2.6101111-1.7896531-4.9096666-1.9039479-2.0626667-.1012738-3.6717778 1.1024379-4.7421111 2.2801078-.9692223 1.0677155-.6138889 2.7763495.7034444 3.3608441 1.1772222.5208368 2.6996667 1.0127383 4.2596667 1.0127383 1.4328889 0 2.834-.4137759 3.9635555-.8854226" fill="#fff"/><path d="m68.7662444 52.8012085 1.3592223 4.8351016h31.5972223l1.586-4.8351016z" fill="#f7f7f7"/><g stroke="#11100d" stroke-linecap="round" stroke-linejoin="round"><path d="m68.7662444 52.8012085 1.3592223 4.8351016h31.5972223l1.586-4.8351016z" stroke-width="2.336792"/><path d="m70.4572556 48.7035316h31.2216664" stroke-width="2.336792"/><path d="m67.9234111 44.5087565h35.9276669l-1.383778-2.8486879c-3.0838889-6.3527622-9.5174444-10.3849071-16.5706667-10.3849071-7.0156666 0-13.4217777 3.9901886-16.5258889 10.2923139z" stroke-width="2.336792"/><path d="m13.3393 45.8075276v52.6898764h-8.58" stroke-width="2.638126"/><path d="m6.83684444 93.9706088 6.50288886 4.5269399" stroke-width="2.638126"/><path d="m71.7454111 62.1606458c3.9346667 1.5769781 9.0783333 1.7824193 15.301-4.1420993" stroke-width="2.638126"/></g><path d="m57.1355778 79.2436589c-1.7766667-.7335119-3.0058889-2.6287791-2.9538889-4.5529817.052-1.9242027 1.3823333-3.750025 3.1951111-4.3866033.7438889-.2618652 1.5498889-.3370972 2.2677778-.6611734 1.2248889-.551219 2.028-1.7346759 2.7198889-2.8877507.6904444-1.1516281 1.378-2.3770413 2.4988889-3.1163402 1.1208888-.7392989 2.8325555-.7870423 3.6457777.2835667.2686667.3515648.4116667.7841487.5156667 1.2152858.2368889.970782.3033333 1.9835202.195 2.9774504l-9.3701111 12.4885091" fill="#11100d" opacity=".1"/><path d="m39.4151333 57.5406787c-1.8806666.3978614-3.9635555-.4716467-5.0035555-2.0891343-1.0414445-1.6189344-.9721111-3.8787874.1675555-5.4282769.4665556-.6365783 1.0891111-1.1530748 1.4993334-1.8272691.7005555-1.1472877.6976666-2.5781422.6196666-3.9207437s-.2022222-2.7416271.3076667-3.9858483c.5098889-1.2442213 1.8951111-2.2497256 3.1691111-1.8272691.4203333.1403366.7828889.4166694 1.1122222.713257.7424445.6684073 1.3664445 1.4670237 1.8373334 2.348106l-.702 15.606296" fill="#11100d" opacity=".1"/><path d="m45.1170778 69.4729051c-2.4078889-.7986164-5.2982222.2647587-6.6184445 2.4349121-.2628889.4311371-.4723333.9534207-.3163333 1.4351947.0837778.2589717.2657778.4774338.4766667.6495993.8406666.688662 2.0511111.6814281 3.1142222.4600725 1.0631111-.2199089 2.1074444-.6192171 3.1922222-.5960688.2296667.0043403.4665556.0274886.6861111-.0361692.2296667-.0679982.4232222-.2242492.5792222-.4036486.5503334-.6336847.6731112-1.6044667.299-2.3538929-.3741111-.7508731-.5777777-1.6507634-1.4126666-1.5899991" fill="#11100d" opacity=".1"/></g></svg>