<svg height="121" viewBox="0 0 122 121" width="122" xmlns="http://www.w3.org/2000/svg"><g fill="none" fill-rule="evenodd" transform="translate(-1 1)"><g stroke="#11100d" stroke-linecap="round" stroke-linejoin="round" stroke-width="2.5494"><path d="m95.7715425 48.8569318c-4.9276781-42.76067044-34.4965517-41.62431816-34.4965517-41.62431816s-29.5674713-1.13635228-34.4951494 41.62431816c0 0-3.7918161 40.8681477 34.4951494 40.8681477s34.4965517-40.8681477 34.4965517-40.8681477z"/><path d="m49.1023356 88.0785568.8722299 28.9692952 6.6637242 1.649318"/><path d="m32.0642644 75.5686182-3.988138 5.1673977 10.614 10.0538523 3.3290575-4.4405796"/><path d="m96.1769471 44.2201114 5.4451269-3.6103296-6.7955407-12.9261818-3.8507126 1.9568182"/><path d="m73.9627103 88.0785568.8722299 28.9692952 6.6637242 1.649318"/></g><path d="m46.0858506 30.9436591c9.8315172-21.59348865 38.0261379 5.1869659 49.691862-13.8081477.8063219-1.3138637-1.2634712-2.5145114-2.0669885-1.2048409-7.4111494 12.0665795-23.0551954 2.9743636-33.9174023 3.3713181-7.1755632.2627728-12.8071954 3.920625-15.7744597 10.4368296-.6324368 1.3879432 1.4303448 2.6025682 2.0669885 1.2048409" fill="#11100d"/><path d="m26.0218989 31.106075 12.3696781 1.8869318s.6674943 18.9923182-10.1442299 18.3200114c-12.0317241-.7505796-12.5533793-2.9645796-12.5533793-2.9645796s9.1233563-5.3826477 10.3279311-17.2423636" fill="#f7f7f7"/><path d="m26.0218989 31.106075 12.3696781 1.8869318s.6674943 18.9923182-10.1442299 18.3200114c-12.0317241-.7505796-12.5533793-2.9645796-12.5533793-2.9645796s9.1233563-5.3826477 10.3279311-17.2423636z" stroke="#11100d" stroke-linecap="round" stroke-linejoin="round" stroke-width="2.5494"/><path d="m87.1862483 62.9386148 12.1242758 4.6418522-6.869862 15.5567046-12.3837012-4.627875z" fill="#f7f7f7"/><path d="m87.1862483 62.9386148 12.1242758 4.6418522-6.869862 15.5567046-12.3837012-4.627875z" stroke="#11100d" stroke-linecap="round" stroke-linejoin="round" stroke-width="2.5494"/><path d="m42.8738851 79.5768807 11.9083218.9812045s2.7330805 5.857875-.8245517 15.2785568l-13.1858161-1.1153863s3.7525517-9.2236023 2.102046-15.144375" fill="#f7f7f7"/><path d="m42.8738851 79.5768807 11.9083218.9812045s2.7330805 5.857875-.8245517 15.2785568l-13.1858161-1.1153863s3.7525517-9.2236023 2.102046-15.144375z" stroke="#11100d" stroke-linecap="round" stroke-linejoin="round" stroke-width="2.5494"/><path d="m68.6955356.27291023-11.9083218.98120454s-2.7330805 5.857875.8245517 15.27855683l13.1858161-1.1153864s-3.7525517-9.22360225-2.102046-15.14437497" fill="#f7f7f7"/><path d="m68.6955356.27291023-11.9083218.98120454s-2.7330805 5.857875.8245517 15.27855683l13.1858161-1.1153864s-3.7525517-9.22360225-2.102046-15.14437497z" stroke="#11100d" stroke-linecap="round" stroke-linejoin="round" stroke-width="2.5494"/><path d="m83.9940552 38.2987795c0 1.3390228-1.0895862 2.4264546-2.4343908 2.4264546s-2.4343908-1.0874318-2.4343908-2.4264546c0-1.3404204 1.0895862-2.4264545 2.4343908-2.4264545s2.4343908 1.0860341 2.4343908 2.4264545" fill="#11100d"/><path d="m66.4030575 40.6452841c-.6899311 0-1.2508506-.5576932-1.2508506-1.2467727 0-.5255455-.4291035-.9546478-.9577701-.9546478-.5286667 0-.9577701.4291023-.9577701.9546478 0 .6890795-.5595173 1.2467727-1.2508506 1.2467727-.689931 0-1.2494483-.5576932-1.2494483-1.2467727 0-1.8995114 1.5509425-3.4467955 3.458069-3.4467955 1.9071264 0 3.4594712 1.5472841 3.4594712 3.4467955 0 .6890795-.5609195 1.2467727-1.2508505 1.2467727" fill="#11100d"/><path d="m74.1572092 49.8683273c-2.44 0-3.5646437-1.3096705-3.5646437-1.3096705s1.5004598-1.4019204 3.5646437-1.4019204 3.3781379 1.4019204 3.3781379 1.4019204-.9381379 1.3096705-3.3781379 1.3096705zm-7.456023-6.7216705c-.6618851 0-1.1611034.5898409-1.0657471 1.2439773.6043908 4.1652273 4.199885 7.364625 8.5470115 7.364625 4.3443218 0 7.9412184-3.1993977 8.5456092-7.364625.0953563-.6541364-.4038621-1.2439773-1.0657472-1.2439773z" fill="#11100d"/><path d="m5.85978621 57.7331989s16.46018389 12.9024204 36.43593099 0" stroke="#11100d" stroke-linecap="round" stroke-linejoin="round" stroke-width="2.5494"/><path d="m9.04034023 59.7246807-6.36082759 4.2099545" stroke="#11100d" stroke-linecap="round" stroke-linejoin="round" stroke-width="2.5494"/><path d="m117.995455 56.624242s-9.259379 7.257-22.3147814 5.44275" stroke="#11100d" stroke-linecap="round" stroke-linejoin="round" stroke-width="2.5494"/><path d="m114.815182 58.615025 6.360827 4.2099545" stroke="#11100d" stroke-linecap="round" stroke-linejoin="round" stroke-width="2.5494"/></g></svg>