<?xml version="1.0" encoding="UTF-8"?>
<svg width="86px" height="114px" viewBox="0 0 86 114" version="1.1" xmlns="http://www.w3.org/2000/svg" xmlns:xlink="http://www.w3.org/1999/xlink">
    <!-- Generator: Sketch 52.5 (67469) - http://www.bohemiancoding.com/sketch -->
    <title>perky-fruit</title>
    <desc>Created with Sketch.</desc>
    <g id="✔--Careers" stroke="none" stroke-width="1" fill="none" fill-rule="evenodd">
        <g id="Careers__vertical" transform="translate(-746.000000, -4243.000000)">
            <g id="perks" transform="translate(80.000000, 3930.000000)">
                <g id="learning" transform="translate(665.000000, 314.000000)">
                    <g id="perky-fruit" transform="translate(2.000000, 0.000000)">
                        <path d="M42.24502,33.9003988 C41.55622,33.9003988 40.99622,33.3437691 40.99622,32.6560037 C40.99622,32.1300654 40.56782,31.7031765 40.04002,31.7031765 C39.51362,31.7031765 39.08382,32.1300654 39.08382,32.6560037 C39.08382,33.3437691 38.52522,33.9003988 37.83502,33.9003988 C37.14622,33.9003988 36.58762,33.3437691 36.58762,32.6560037 C36.58762,30.7601148 38.13602,29.2157815 40.04002,29.2157815 C41.94402,29.2157815 43.49382,30.7601148 43.49382,32.6560037 C43.49382,33.3437691 42.93382,33.9003988 42.24502,33.9003988" id="Fill-1" fill="#11100D"></path>
                        <path d="M59.58164,33.9003988 C58.89284,33.9003988 58.33284,33.3437691 58.33284,32.6560037 C58.33284,32.1300654 57.90444,31.7031765 57.37664,31.7031765 C56.85024,31.7031765 56.42044,32.1300654 56.42044,32.6560037 C56.42044,33.3437691 55.86184,33.9003988 55.17164,33.9003988 C54.48284,33.9003988 53.92424,33.3437691 53.92424,32.6560037 C53.92424,30.7601148 55.47264,29.2157815 57.37664,29.2157815 C59.28064,29.2157815 60.83044,30.7601148 60.83044,32.6560037 C60.83044,33.3437691 60.27044,33.9003988 59.58164,33.9003988" id="Fill-3" fill="#11100D"></path>
                        <path d="M21.0899,25.7187802 C30.9053,4.1664716 59.0537,30.8958543 70.7003,11.9369654 C71.5053,10.6256074 69.4389,9.42724938 68.6367,10.7344222 C61.2377,22.7765951 45.6207,13.7017185 34.7749,14.0993111 C27.6125,14.3615827 21.9887,18.0124593 19.0263,24.516237 C18.3949,25.9015333 20.4543,27.113842 21.0899,25.7187802" id="Fill-5" fill="#11100D"></path>
                        <polyline id="Stroke-7" stroke="#11100D" stroke-width="2.54029502" stroke-linecap="round" stroke-linejoin="round" points="22.66518 80.9660148 23.53598 109.880064 30.18878 111.526237"></polyline>
                        <polyline id="Stroke-9" stroke="#11100D" stroke-width="2.54029502" stroke-linecap="round" stroke-linejoin="round" points="47.48452 80.9660148 48.35672 109.880064 55.00812 111.526237"></polyline>
                        <polyline id="Stroke-11" stroke="#11100D" stroke-width="2.54029502" stroke-linecap="round" stroke-linejoin="round" points="10.52872 44.2135321 10.52872 95.0202852 2.21272 95.0202852"></polyline>
                        <path d="M4.22634,90.6552765 L10.52914,95.0204247" id="Stroke-13" stroke="#11100D" stroke-width="2.54029502" stroke-linecap="round" stroke-linejoin="round"></path>
                        <polyline id="Stroke-15" stroke="#11100D" stroke-width="2.54029502" stroke-linecap="round" stroke-linejoin="round" points="66.69854 61.275137 66.38774 95.0202852 58.07174 95.0202852"></polyline>
                        <path d="M60.08592,90.6552765 L66.38872,95.0204247" id="Stroke-17" stroke="#11100D" stroke-width="2.54029502" stroke-linecap="round" stroke-linejoin="round"></path>
                        <path d="M69.26348,34.4168506 C68.86728,34.4168506 68.47668,34.4433568 68.08888,34.4754432 C60.83548,-0.720569136 34.81788,0.272714815 34.81788,0.272714815 C34.81788,0.272714815 5.29888,-0.860075309 0.37788,41.8190481 C0.37788,41.8190481 -3.40632,82.609258 34.81788,82.609258 C54.51728,82.609258 63.04608,71.7766037 66.69868,61.274579 C67.53028,61.433616 68.38568,61.5242951 69.26348,61.5242951 C76.77588,61.5242951 82.86448,55.4557765 82.86448,47.9698753 C82.86448,40.4853691 76.77588,34.4168506 69.26348,34.4168506 Z" id="Stroke-19" stroke="#11100D" stroke-width="2.54029502" stroke-linecap="round" stroke-linejoin="round"></path>
                        <path d="M65.98874,46.3285852 C65.98874,46.3285852 53.15354,52.8463136 34.97174,43.1548198" id="Stroke-21" stroke="#11100D" stroke-width="2.54029502" stroke-linecap="round" stroke-linejoin="round"></path>
                        <path d="M70.07422,50.1391963 C67.81742,50.1391963 65.98902,48.3172457 65.98902,46.0684062 C65.98902,43.8195667 67.81742,41.997616 70.07422,41.997616" id="Stroke-23" stroke="#11100D" stroke-width="2.54029502" stroke-linecap="round" stroke-linejoin="round"></path>
                        <path d="M66.69854,61.275137 C66.69854,61.275137 64.03294,60.708742 61.55074,59.3262358" id="Stroke-25" stroke="#11100D" stroke-width="2.54029502" stroke-linecap="round" stroke-linejoin="round"></path>
                    </g>
                </g>
            </g>
        </g>
    </g>
</svg>