<svg height="116" viewBox="0 0 78 116" width="78" xmlns="http://www.w3.org/2000/svg" xmlns:xlink="http://www.w3.org/1999/xlink"><mask id="a" fill="#fff"><path d="m1.1568452.71977676h43.4688691v27.30298924h-43.4688691z" fill="#fff" fill-rule="evenodd"/></mask><g fill="none" fill-rule="evenodd" transform="translate(-1 -1)"><path d="m1.78042857 2.94284167c11.15428573 5.37766666 14.01571433 20.37875003 26.10428573 24.32841663 7.0385714 2.29925 13.7757143-.8145833 16.6328571-7.4658333.6071429-1.41525-1.4928571-2.6505833-2.1071428-1.21975-5.26 12.2470833-18.2442857 5.5731667-24.37-2.43525-4.5042857-5.8876667-8.09285717-11.95241667-15.02857146-15.29716667-1.40571428-.67716666-2.64428571 1.40816667-1.23142857 2.08958334" fill="#11100d" mask="url(#a)" transform="translate(34.285714 .808633)"/><path d="m57.4327143 32.538c0 1.3571667-1.11 2.4593333-2.48 2.4593333s-2.48-1.1021666-2.48-2.4593333c0-1.3585833 1.11-2.4593333 2.48-2.4593333s2.48 1.10075 2.48 2.4593333" fill="#11100d"/><path d="m39.7422857 32.538c0 1.3571667-1.11 2.4593333-2.48 2.4593333s-2.48-1.1021666-2.48-2.4593333c0-1.3585833 1.11-2.4593333 2.48-2.4593333s2.48 1.10075 2.48 2.4593333" fill="#11100d"/><path d="m25.5764286 84.6516417.89 29.3632503 6.7871428 1.67025" stroke="#11100d" stroke-linecap="round" stroke-linejoin="round" stroke-width="2.577047"/><path d="m50.9025714 84.6516417.8885715 29.3632503 6.7885714 1.67025" stroke="#11100d" stroke-linecap="round" stroke-linejoin="round" stroke-width="2.577047"/><path d="m73.1204286 44.8992667c-5.02-43.34008337-35.1428572-42.18975003-35.1428572-42.18975003s-1.8571428-.06941667-4.7228571.48733333v8.5014167h-7.6785714l-2.12 7.78175h-5.7371429l-4.3585714 6.647-4.6214286-2.8871667c-2.72 5.576-4.86 12.64375-5.90428571 21.6594167 0 0-3.86142858 41.4219166 35.14285711 41.4219166 39.0042857 0 35.1428572-41.4219166 35.1428572-41.4219166z" stroke="#11100d" stroke-linecap="round" stroke-linejoin="round" stroke-width="2.577047"/><path d="m29.4154286 41.719275h36.0571428" stroke="#11100d" stroke-linecap="round" stroke-linejoin="round" stroke-width="2.577047"/><path d="m8.03471429 50.7145417h13.82571431l.1071428 14.2091666 16.4242857.28475c3.5 0 6.2828572 2.9126667 6.0957143 6.3778334-.1728571 3.213-2.8514285 5.7304166-6.0957143 5.7304166h-20.96c-4.9528571 0-8.9928571-3.9355-9.08142853-8.8470833z" fill="#f7f7f7"/><path d="m8.03471429 50.7145417h13.82571431l.1071428 14.2091666 16.4242857.28475c3.5 0 6.2828572 2.9126667 6.0957143 6.3778334-.1728571 3.213-2.8514285 5.7304166-6.0957143 5.7304166h-20.96c-4.9528571 0-8.9928571-3.9355-9.08142853-8.8470833z" stroke="#11100d" stroke-linecap="round" stroke-linejoin="round" stroke-width="2.282689"/><g transform="translate(12.857143 44.7253)"><path d="m1.17957143 1.01164167v4.97816666" fill="#f7f7f7"/><path d="m1.17957143 1.01164167v4.97816666" stroke="#11100d" stroke-linecap="round" stroke-linejoin="round" stroke-width="2.282689"/></g><g transform="translate(7.142857 64.558633)"><path d="m1.20814286 3.91070833 13.61714284-3.5445-2.7957143 12.39299997" fill="#f7f7f7"/><path d="m1.20814286 3.91070833 13.61714284-3.5445-2.7957143 12.39299997" stroke="#11100d" stroke-linecap="round" stroke-linejoin="round" stroke-width="2.282689"/></g><path d="m33.3551429 65.1641167c-1.7842858 1.0695833-.1642858 2.822-.1642858 2.822s-2.2642857-.782-2.5457142 1.2665c-.4314286 3.1209166 6.6171428 1.3869166 6.6171428 1.3869166s-1.1885714-7.1045833-3.9071428-5.4754166" fill="#11100d" opacity=".1"/><path d="m73.2257143 50.7145417v39.94575h-9.2428572" stroke="#11100d" stroke-linecap="round" stroke-linejoin="round" stroke-width="2.577047"/><path d="m68.1775714 84.6516417 5.0485715 6.0080833" stroke="#11100d" stroke-linecap="round" stroke-linejoin="round" stroke-width="2.577047"/><g fill="#11100d"><path d="m60.4834286 34.77775c0 2.0541667-1.6785715 3.71875-3.75 3.71875-2.0714286 0-3.75-1.6645833-3.75-3.71875s1.6785714-3.71875 3.75-3.71875c2.0714285 0 3.75 1.6645833 3.75 3.71875" opacity=".1"/><path d="m63.3841429 76.7431-8.4585715-9.8670833c-.29-.3371667.1614286-.799.5114286-.52275l10.0357143 7.9120833z" opacity=".1"/><path d="m67.05 71.9390417-8.4585714-9.8670834c-.29-.3371666.1614285-.799.5114285-.52275l10.0357143 7.9120834z" opacity=".1"/><path d="m69.8845714 67.1349833-8.4585714-9.8670833c-.29-.3371667.1614286-.799.5114286-.52275l10.0357143 7.9120833z" opacity=".1"/></g></g></svg>