<svg width="15" height="15" fill="none" xmlns="http://www.w3.org/2000/svg"><path d="M7.5 3c.5-.5.7-.9 1-1l1.1-.6.9-.3c.4-.2 1 0 1.3 0 1 0 1.7.6 2 1.4.2.5.3.8.3 1.3v.7L14 5c0 .4-.2.8-.4 1.2-.3.4-.5.9-1 1.2l-1 .8-1 .6a4 4 0 0 1-3 0C7 8.5 6.8 8 6.5 7.3" stroke="#000" stroke-width="1.5" stroke-linecap="round"/><path d="M8 11.6c-.2 0-.5.4-.6.6l-.6.6-1.2.6c-.4.2-.9.2-1.3.2H3c-.4-.1-.7-.4-.9-.8l-.8-1c-.2-.7-.5-1.9 0-2.5l.3-.4.5-.6.4-.4.4-.3.5-.5.5-.4.5-.4c0-.2.3-.3.4-.4l.5-.4c.4 0 .7-.3 1.1-.3.4 0 .7.1 1.1.3.3 0 .7.3 1 .5l.6.5" stroke="#000" stroke-width="1.5" stroke-linecap="round"/></svg>