<svg width="16" height="19" fill="none" xmlns="http://www.w3.org/2000/svg"><path d="M4.687 9.676c-.084 0 .201.174.263.224.241.196.416.454.634.672.266.267.526.53.84.735.146.096 1.325 1.336 1.42 1.269.252-.176.407-.502.664-.673.27-.18.551-.453.768-.682.256-.271.51-.548.777-.815.168-.168.55-.369.644-.559" stroke="#000" stroke-width="1.5" stroke-linecap="round"/><path d="M4.864 5.984H3.662c-.36 0-.654.188-.988.262-.803.179-1.062.715-1.311 1.436C1.097 8.449 1 9.239 1 10.062v1.33c0 .38.172.744.172 1.117 0 .758.257 1.5.257 2.232 0 .652.085 1.176.253 1.765.194.68 1.077.725 1.655.725.494 0 1.038.065 1.526-.005.447-.064.939-.237 1.393-.253.936-.032 1.878 0 2.814 0 .935 0 1.883-.136 2.834-.085.611.032 1.294.308 1.931.166.669-.148.473-1.525.473-2.007 0-2.441-.43-4.814-.43-7.255 0-.398-.085-.776-.085-1.164 0-.458-.776-.65-1.098-.749-.59-.182-1.368-.067-1.993-.067" stroke="#000" stroke-width="1.5" stroke-linecap="round"/><path d="M7.696 12.318c0-1.797-.053-3.603.032-5.398.036-.743.076-1.514.187-2.25.088-.59.2-1.21.2-1.807 0-.43-.042-.88-.042-1.297 0-.173-.042-.377-.042-.566" stroke="#000" stroke-width="1.5" stroke-linecap="round"/></svg>