<?xml version="1.0" standalone="no"?>
<!DOCTYPE svg PUBLIC "-//W3C//DTD SVG 20010904//EN"
 "http://www.w3.org/TR/2001/REC-SVG-20010904/DTD/svg10.dtd">
<svg version="1.0" xmlns="http://www.w3.org/2000/svg"
 width="128.000000pt" height="128.000000pt" viewBox="0 0 128.000000 128.000000"
 preserveAspectRatio="xMidYMid meet">
<metadata>
Created by potrace 1.14, written by Peter Selinger 2001-2017
</metadata>
<g transform="translate(0.000000,128.000000) scale(0.100000,-0.100000)"
fill="#000000" stroke="none">
<path d="M275 1269 c-85 -13 -159 -52 -200 -106 -63 -83 -68 -112 -73 -466 -6
-451 11 -543 115 -622 83 -63 112 -68 466 -73 451 -6 543 11 622 115 63 83 68
112 73 466 6 451 -11 543 -115 622 -85 65 -109 68 -488 71 -187 1 -367 -2
-400 -7z m450 -253 c139 -65 267 -301 252 -468 -10 -118 -86 -225 -196 -277
-76 -36 -201 -37 -275 -3 -116 53 -192 157 -203 278 -19 214 173 494 337 494
19 0 58 -11 85 -24z"/>
<path d="M548 927 c-125 -95 -206 -327 -155 -448 68 -163 289 -214 422 -97 60
53 87 113 87 191 -1 126 -77 284 -170 354 -35 27 -53 33 -92 33 -39 0 -57 -6
-92 -33z"/>
</g>
</svg>
