<svg width="172" height="259" viewBox="0 0 172 259" fill="none" xmlns="http://www.w3.org/2000/svg">
<path d="M96.079 257.113C81.8275 255.615 72.6122 252.887 67.9917 251.215C56.0374 248.812 44.3953 244.873 33.3664 239.501L21.1137 233.528C17.574 231.808 15.2086 228.292 14.95 224.343L8.86108 128.441C7.38113 126.928 6.32717 124.997 5.90914 122.852L0.643825 94.9789C-0.0911391 91.1612 1.46333 87.1818 4.6323 84.8704C16.6911 76.0426 32.9045 74.8508 56.2919 76.4844C55.8421 75.3109 55.5179 74.0904 55.3292 72.8237C54.2084 65.2149 58.0948 57.9915 65.7256 53.5046C68.7266 51.7386 71.7094 50.6243 74.6552 50.1496C71.6359 49.0279 68.2236 48.4882 65.7672 48.23C60.536 47.6802 55.4342 47.9082 52.0754 48.1987C50.3503 48.3492 48.613 48.3275 46.9014 48.1576C36.8667 47.1029 28.4364 40.4453 25.4075 31.1879C21.7632 20.0359 26.5962 8.39736 36.6411 4.09376C42.9804 1.37148 49.5131 0.348732 56.0769 1.03862C77.4492 3.28494 92.3641 22.9618 97.7897 31.3247C99.5116 33.9792 100.816 36.8715 101.689 39.9496C110.655 33.9539 122.579 28.611 135.478 29.9668C142.032 30.6556 148.219 33.0153 153.855 36.9861C162.787 43.2742 165.093 55.6732 159.22 65.8249C154.332 74.2502 144.692 79.0086 134.658 77.9539C132.947 77.7741 131.244 77.4242 129.587 76.9282C126.352 75.9447 121.399 74.66 116.158 74.1091C110.589 73.5237 103.609 73.6348 100.362 77.0742L99.9592 80.9031C115.833 82.9435 130.477 85.5887 141.944 88.5133C156.78 92.2948 172.491 97.4151 171.137 110.294C171.094 110.702 170.992 111.677 170.591 112.901L165.231 140.08C164.643 143.095 162.837 145.64 160.368 147.221L147.652 227.934L155.929 228.965L156.652 229.171C162.482 230.81 166.375 236.156 166.113 242.182C165.854 248.187 161.539 253.174 155.609 254.3C136.647 257.918 117.902 258.994 99.91 257.495C98.5941 257.387 97.3101 257.262 96.0769 257.133L96.079 257.113Z" fill="white"/>
<path d="M13.8344 92.655C16.4069 92.9254 18.9852 92.7349 21.5494 93.0044C21.9403 93.0455 22.6326 92.9643 21.8153 93.1349C19.0432 93.7134 21.3888 91.5572 18.7628 92.8489C17.6217 93.4102 16.6664 94.235 15.5734 94.8725C13.443 96.1151 14.9619 97.4009 17.158 96.3887C22.3975 93.9738 27.7159 91.865 32.9239 89.3285C34.4173 88.6011 35.9609 87.7207 37.5297 87.3256C40.5185 86.5728 31.5316 88.6554 28.5522 89.4843C26.8594 89.9553 20.9531 92.0565 26.1067 91.8425C31.9134 91.6014 37.3608 89.8213 43.0461 88.4438C46.3446 87.6446 36.5378 90.8318 33.4548 92.6404C31.1477 93.994 27.0745 96.6809 32.2531 94.9498C35.7792 93.7712 39.2896 92.5787 42.8395 91.55C44.5975 91.0406 47.8662 91.0065 49.4437 89.7315C54.0476 86.0104 39.0236 93.5193 34.0959 96.4255C32.5856 97.3162 31.1774 98.3199 29.7472 99.404C28.6178 100.26 32.6673 99.3778 32.7288 99.3585C42.0105 96.4427 51.8868 94.2366 60.7305 89.5849C61.1298 89.3748 62.8181 88.6487 61.4801 88.5355C57.3602 88.1872 51.7264 86.5496 47.7515 87.9641C40.6767 90.4816 33.4619 93.8139 26.971 98.4456C22.1393 101.893 37.7798 96.4521 43.0991 94.7822C48.1537 93.1954 53.2018 91.4986 58.2315 89.7578C59.7835 89.2206 61.3651 88.4299 62.9553 88.1519C64.0653 87.9578 60.729 88.4939 59.6305 88.8024C55.2465 90.0334 50.9518 92.6627 46.8327 94.9951C44.6362 96.2389 42.5181 97.6434 40.3747 99.034C39.1755 99.812 39.5022 100.014 40.7054 100.069C48.7775 100.433 57.5658 96.2633 65.0624 92.2449C65.2207 92.16 67.8731 91.0348 67.8338 90.5876C67.7751 89.9195 61.249 92.6571 60.9274 92.8102C57.5804 94.4037 54.2805 96.3177 51.0737 98.3637C50.6102 98.6595 46.7241 101.528 46.8222 101.558C49.7733 102.454 54.5551 99.5251 57.3423 98.4073C62.4072 96.376 67.4207 93.9806 72.576 92.4192C73.8903 92.0212 77.8283 90.8921 76.5507 91.4781C72.3605 93.4 68.2207 95.5283 64.0338 97.4697C59.5509 99.5483 55.0444 101.495 50.593 103.697C50.0102 103.986 45.6433 105.319 45.4212 106.333C45.2956 106.907 51.9973 105.701 52.3285 105.623C59.2583 104.001 65.9545 101.26 72.6257 98.2189C75.8193 96.7631 78.7801 94.9775 81.8648 93.1904C82.4527 92.8499 84.7516 91.648 82.6213 91.8854C74.5745 92.7821 66.8612 97.9355 59.4173 101.856C59.1344 102.005 57.1018 102.741 58.391 102.876C63.3241 103.395 68.254 101.711 73.0896 100.267C78.7139 98.5887 84.234 96.7091 89.7605 94.4818C91.4385 93.8055 93.124 93.1676 94.8036 92.4992C95.2603 92.3175 96.7411 92.0796 97.134 91.616C98.6824 89.7894 93.0774 92.7832 91.0922 93.5962C85.4417 95.9102 79.6581 98.131 74.1638 101.073C73.4268 101.467 64.5327 106.682 64.7101 107.002C65.0648 107.64 68.3787 106.384 68.6187 106.31C72.2628 105.185 75.8558 103.67 79.4377 102.217C84.6177 100.115 89.7966 98.0835 95.0415 96.3188C95.432 96.1874 99.9214 95.1287 99.995 94.4293C100.041 93.9916 94.8103 95.645 94.6259 95.711C90.4369 97.2109 86.2127 98.432 82.0306 99.9766C80.5596 100.52 79.111 100.928 77.6795 101.647C75.7583 102.613 81.7492 101.664 83.7708 101.288C92.6968 99.6249 101.543 96.4219 110.435 94.3216C116.464 92.8975 98.758 99.4522 92.869 101.782C88.638 103.456 84.3536 104.958 80.1831 106.91C79.0208 107.454 75.5946 109.019 76.8131 108.94C80.1771 108.722 83.5729 107.305 86.8452 106.251C94.892 103.661 102.886 100.83 110.889 97.9844C113.874 96.923 117.579 98.9155 120.537 97.7166C122.932 96.7459 118.487 96.0886 117.69 96.2892C108.109 98.7022 99.0113 101.978 89.8514 106.542C89.5455 106.694 85.9701 108.172 86.0067 108.907C86.063 110.033 93.694 107.387 94.0086 107.286C102.393 104.61 110.804 102.129 119.263 100.044C119.876 99.893 121.005 99.6871 119.667 99.6249C115.588 99.4353 111.134 101.101 107.234 102.728C103.351 104.348 99.5485 106.415 95.8882 108.791C95.509 109.038 91.7152 110.929 91.8028 111.926C91.8937 112.959 99.2038 109.766 99.4735 109.655C107.894 106.195 116.225 102.389 124.68 99.0749C128.638 97.5232 134.532 101.53 138.57 100.432C141.623 99.6029 132.46 99.9439 132.668 97.9659C123.99 101.881 115.73 104.628 107.018 108.397C106.88 108.457 104.329 109.392 105.488 109.647C108.349 110.274 111.696 108.523 114.455 107.589C121.119 105.334 127.787 103.086 134.446 100.819C135.699 100.393 131.904 101.457 130.655 101.908C126.15 103.535 121.721 105.771 117.323 107.865C115.031 108.956 112.709 109.957 110.489 111.3C108.528 112.486 113.089 112.06 113.328 112.035C123.402 110.951 133.734 105.493 143.481 101.718C143.706 101.631 146.405 100.542 144.711 101.232C140.058 103.124 135.468 105.073 130.752 106.687C127.219 107.896 123.734 109.134 120.265 110.661C120.038 110.761 116.818 112.104 117.398 112.283C119.569 112.954 122.445 112.271 124.62 111.811C129.784 110.719 134.942 108.608 140.035 106.945C142.264 106.217 144.443 105.364 146.644 104.511C148.216 103.903 145.264 105.063 145.102 105.119C140.876 106.557 134.863 107.898 131.25 111.457C130.457 112.238 132.989 112.02 133.149 112.015C137.041 111.912 140.872 110.243 144.69 109.229C146.273 108.808 148.728 108.759 150.184 107.704C151.774 106.551 146.595 108.158 144.842 108.732C143.06 109.315 141.616 110.337 139.972 111.348C139.237 111.8 138.305 112.242 139.893 112.288C142.257 112.358 144.854 111.023 147.168 110.361C149.519 109.688 151.867 108.957 154.181 108.073C155.264 107.659 150.214 109.703 150.093 110.848C150.026 111.49 157.095 108.304 157.886 107.795" stroke="#171717" stroke-width="2" stroke-linecap="round"/>
<path d="M21.8513 91.6525C19.5809 91.4138 26.3602 92.4041 28.5902 92.9248C37.1941 94.9339 45.8268 96.0184 54.5799 96.9384C56.9182 97.1842 59.2565 97.4299 61.5948 97.6757C65.3896 98.0746 53.9335 97.7743 50.1367 97.3944C44.0969 96.7901 37.6714 96.7723 31.8184 94.905C29.7077 94.2316 23.5137 91.8785 25.6992 92.1082C26.8647 92.2307 28.5347 93.4807 29.5164 93.9965C34.3458 96.5337 39.1959 98.9607 44.1507 101.124C56.2501 106.406 68.9054 106.57 81.6142 109.261C84.8583 109.948 88.0648 110.862 91.3589 111.208C93.2135 111.403 87.8093 109.912 87.5503 109.808C72.8644 103.899 57.7772 100.022 42.2073 97.9455C41.9492 97.9111 39.0315 97.088 40.2002 97.2731C41.9236 97.546 43.578 98.2328 45.2312 98.8274C50.7555 100.814 56.336 102.53 61.9997 103.897C71.2917 106.141 80.7516 107.535 90.2219 108.53C92.2524 108.744 94.2892 109.044 96.3304 109.146C96.3451 109.147 98.9755 108.976 98.4393 108.471C97.1509 107.256 94.6708 106.935 93.1796 106.431C88.6698 104.906 84.1193 103.57 79.5456 102.331C69.425 99.5901 59.3813 97.9046 49.0188 96.8154C46.8763 96.5902 43.7224 96.9796 41.7951 95.5947C41.5404 95.4117 42.2802 95.034 42.5784 94.9847C47.1596 94.2283 52.0603 95.0043 56.5897 95.3036C72.7918 96.3745 88.2138 99.7575 103.968 103.77C110.277 105.377 117.271 107.356 123.822 107.421C124.798 107.431 124.084 106.922 123.637 106.709C121.464 105.675 119.152 104.952 116.913 104.157C106.896 100.597 96.3913 97.7527 85.985 96.1882C80.2751 95.3298 74.5046 94.879 68.7648 94.2758C67.1512 94.1062 62.716 93.64 67.263 94.1179C79.2109 95.3737 90.8784 98.3348 102.687 100.559C112.725 102.449 122.843 103.751 132.997 104.719C134.952 104.905 137.441 104.836 134.05 103.445C121.555 98.3207 108.213 96.0394 95.1392 93.8686C83.0458 91.8606 70.8258 90.7197 58.6362 89.5192C55.8807 89.2478 53.0448 89.8545 50.3397 89.5702C49.7082 89.5038 51.5741 89.8951 52.1823 90.0972C56.2528 91.4498 60.2422 93.1304 64.3034 94.5248C80.4694 100.075 97.0359 104.925 113.872 106.862C120.028 107.57 126.198 108.227 132.367 108.806C133.258 108.89 134.159 108.991 135.053 108.73C135.203 108.685 132.361 108.324 132.161 108.297C120.187 106.704 108.269 104.889 96.2514 103.626C87.4024 102.696 78.5994 101.115 69.6486 102.214C68.3571 102.373 60.4168 102.712 65.7919 103.552C82.6221 106.182 99.7206 107.13 116.62 109.228C127.879 110.625 139.394 112.842 150.816 112.335C151.15 112.32 157.865 111.881 157.212 110.033C156.509 108.044 150.688 108.132 149.362 107.926C139.805 106.442 130.008 105.576 120.327 105.515C114.844 105.481 109.355 106.229 103.906 107.404C100.214 108.201 103.785 108.11 105.53 108.293C115.172 109.306 124.741 110.124 134.461 110.18C139.705 110.21 145.271 110.221 150.46 108.503C150.467 108.5 153.001 107.862 151.948 107.275C148.166 105.165 142.959 104.941 138.907 104.186C130.896 102.694 122.822 101.65 114.71 100.976C112.47 100.791 110.257 100.79 108.004 100.913C107.87 100.92 105.111 101.112 105.381 101.355C106.556 102.414 108.826 102.491 110.185 102.783C113.89 103.579 117.621 104.231 121.363 104.778C128.958 105.888 136.614 107.411 144.31 107.523C145.706 107.544 148.448 108.178 149.8 107.177C150.047 106.994 149.364 106.731 149.097 106.642C147.386 106.07 145.684 105.658 144 104.952C137.445 102.204 131.05 100.361 124.122 99.6325C121.438 99.3504 129.36 101.048 132.004 101.615C138.135 102.929 144.312 104.456 150.53 105.177C152.043 105.353 155.075 105.655 155.075 105.655C155.075 105.655 151.167 104.45 149.21 103.859C141.261 101.459 133.451 99.6616 125.225 98.8255C114.03 97.6875 103.13 98.8945 91.9224 101.094C84.6188 102.527 77.4897 103.636 70.1525 103.882C67.7823 103.962 60.7045 104.265 63.0566 103.726C64.5951 103.374 66.285 103.716 67.7968 103.866C71.7643 104.259 75.7274 104.699 79.6924 105.116C86.9774 105.882 94.2623 106.647 101.547 107.413C123.073 109.675 57.5977 106.238 37.3223 97.6628C33.99 96.2535 30.6847 94.6496 27.2984 93.43C26.0124 92.9669 22.04 92.1338 23.3842 92.2751C28.1278 92.7737 32.8485 93.7313 37.5635 94.2269C41.9766 94.6907 28.7373 93.2992 24.3242 92.8354C23.6465 92.7642 16.1562 91.7185 19.7582 93.5093C28.0906 97.6517 37.3356 98.1613 45.9505 101.108C47.3619 101.591 48.7243 102.323 50.2018 102.478C50.3489 102.493 47.9993 102.246 47.4749 102.191C39.6311 101.367 31.8395 100.086 24.0082 99.2632C23.6788 99.2286 19.6181 94.8426 19.3729 97.1756C18.9861 97.9254 20.43 98.6398 21.1029 98.7734C23.4326 99.2363 24.762 100.263 27.0894 100.741C33.6142 102.079 40.1707 102.808 46.7777 103.502C51.8025 104.031 56.8387 104.399 61.7645 105.565C65.4561 106.438 68.7531 106.414 72.5343 106.312C78.9947 106.139 85.2999 107.72 91.7315 107.663C94.9098 107.635 98.0221 107.965 101.175 108.297C106.721 108.88 90.0826 107.131 84.5365 106.548C81.6647 106.246 78.7929 105.944 75.9211 105.643C75.0711 105.553 73.7529 105.291 75.4624 105.825C83.5994 108.365 92.4373 109.224 100.825 110.106C107.52 110.81 113.566 111.111 120.191 108.706C121.443 108.251 124.377 108.417 124.626 106.044C124.796 104.432 123.628 103.403 122.749 102.616C120.07 100.219 116.891 97.8265 113.741 96.5159C110.164 95.0277 106.214 94.9813 102.456 94.5863C97.8385 94.101 93.2212 93.6157 88.6039 93.1304C80.9274 92.3236 73.6198 89.321 65.9813 88.4452C62.2335 88.0155 58.4448 87.4519 54.6678 87.3586C50.5075 87.2559 46.4402 88.5964 42.2958 88.9299C37.4809 89.3173 32.4266 87.9869 27.6736 89.2903C22.7727 90.6342 18.2133 93.564 13.3596 95.2724C13.0822 95.3701 15.13 90.382 12.8797 93.376C13.4064 93.4744 16.3844 96.133 16.8968 96.3108C21.1833 97.798 21.6138 98.0886 26.0802 98.558C28.4521 98.8073 30.6908 99.2137 33.0102 99.7222C33.7133 99.8764 34.2554 100.34 34.9554 100.414" stroke="#171717" stroke-width="2" stroke-linecap="round"/>
<path d="M75.4298 241.908C80.314 242.421 85.1982 242.934 90.0824 243.448C90.8703 243.531 91.6583 243.613 92.4462 243.696C95.3578 244.002 86.6215 243.092 83.7188 242.711C78.7909 242.064 73.0631 241.428 68.3389 239.705C68.2292 239.665 67.532 239.247 67.6735 239.262C70.2494 239.533 72.8296 239.776 75.4004 240.091C82.2761 240.934 89.3434 241.652 96.159 242.883C98.9298 243.383 93.3076 242.871 92.8599 242.824C91.0056 242.63 89.2007 242.437 87.3364 242.481C85.4701 242.525 86.9957 242.513 87.9831 242.617C98.8373 243.758 109.925 244.328 120.801 243.083C123.287 242.798 125.775 242.467 128.256 242.138C128.54 242.1 129.812 241.986 128.736 242.086C122.914 242.628 117.03 242.25 111.216 241.703C107.677 241.369 103.12 240.843 99.6574 242.013C99.5493 242.05 98.2637 242.368 98.7575 242.512C100.976 243.161 103.781 242.601 106.027 242.53C110.563 242.388 115.239 241.82 119.765 242.296C121.923 242.523 115.438 241.921 113.269 241.851C109.239 241.721 105.351 241.996 101.341 242.122C99.1309 242.192 96.7827 242.932 94.5849 242.701C92.7675 242.51 90.1924 243.153 88.5101 243.893C87.9469 244.14 90.1058 244.366 90.1884 244.374C92.7322 244.642 95.2101 244.787 97.7661 244.527C101.389 244.157 104.971 243.338 108.541 242.642C112.841 241.804 117.243 241.528 121.593 241.03C127.721 240.329 133.876 239.812 139.984 238.929C141.176 238.757 143.556 238.357 140.917 238.112C134.765 237.541 128.159 237.643 122.055 238.57C120.301 238.837 118.589 239.119 116.904 239.673C116.727 239.732 115.319 240.171 116.22 240.381C124.067 242.211 133.056 241.053 140.602 238.537C143.212 237.666 135.2 239.59 132.502 240.126C126.802 241.259 120.388 242.44 114.536 242.052C109.713 241.731 124.153 243.144 128.985 243.265C134.771 243.41 140.462 243.186 146.224 242.941C146.52 242.929 148.102 242.834 146.976 242.715C145.121 242.52 143.266 242.325 141.41 242.13C137.602 241.73 133.775 241.198 129.938 241.297C126.511 241.386 123.121 242.17 119.705 242.222C119.457 242.226 116.945 242 117.786 242.088C120.851 242.41 123.85 242.603 126.936 242.44C132.718 242.134 138.958 242.071 144.654 240.946C146.078 240.664 146.733 240.583 144.952 240.367C141.766 239.98 138.615 239.396 135.411 239.059C130.918 238.587 144.397 240.003 148.89 240.476C153.568 240.967 139.504 239.794 134.826 239.303C132.959 239.106 131.093 238.91 129.226 238.714C128.326 238.619 129.709 238.765 129.729 238.767C131.093 238.91 132.456 239.071 133.827 239.13C139.72 239.384 145.726 238.393 151.578 238.928C152.027 238.969 154.81 238.888 153.701 239.693C150.48 242.032 146.424 241.593 142.786 242.75C140.705 243.411 145.715 242.547 146.303 242.509C148.532 242.365 150.787 242.635 152.929 241.883C153.994 241.509 154.058 240.98 152.921 240.662C150.179 239.894 147.347 239.703 144.527 239.407C141.224 239.06 151.052 240.703 154.355 241.05C154.749 241.091 153.568 241.135 153.174 241.163C150.516 241.355 147.88 241.708 145.211 241.767C135.539 241.98 125.824 242.101 116.15 241.848C111.812 241.735 107.497 241.805 103.169 242.145C98.5894 242.505 93.7184 242.535 89.1744 243.217C87.3748 243.487 85.5848 242.954 83.8318 243.248C82.73 243.433 81.2804 243.438 80.163 243.321C77.7523 243.067 76.1549 242.67 73.9951 241.689C72.9865 241.231 71.8051 240.611 70.6967 240.495C69.0788 240.325 73.8988 241.156 75.4122 241.753C77.4734 242.566 74.1135 242.074 73.621 242.023C69.6982 241.61 69.0772 242.155 61.2633 239.809C58.965 239.555 37.2339 229.322 35.1581 228.285" stroke="#171717" stroke-width="2" stroke-linecap="round"/>
<path d="M71.867 74.7875C71.9454 74.8072 71.726 74.7332 71.615 74.6191C71.1415 74.132 70.6801 73.6173 70.2577 73.0856C69.2126 71.77 69.2774 70.4651 69.5122 68.8823C69.6199 68.1562 70.1571 67.8621 70.7883 67.5878C71.876 67.1151 72.9953 66.8732 74.175 66.7801C74.7837 66.732 75.4724 66.6352 76.0835 66.7157C76.456 66.7648 75.6456 67.8605 75.5961 67.9323C74.1748 69.9934 72.6172 72.1508 72.0709 74.648C72.0455 74.764 71.9165 75.1429 72.1229 75.1881C72.4817 75.2665 72.6987 73.2278 72.7109 73.0596C72.8107 71.6738 72.6382 69.1515 71.0445 68.5703C70.9355 68.5305 71.2755 68.5936 71.3912 68.602C72.1615 68.6579 72.934 68.6654 73.7057 68.6797C75.167 68.7068 76.6082 68.8145 78.0607 68.9671C78.8424 69.0493 77.2918 69.4036 77.1689 69.4411C75.4761 69.9572 73.7702 70.421 72.0604 70.8768C71.2022 71.1055 70.3503 71.3605 69.4547 71.3645C68.8867 71.367 68.8413 70.7955 68.7586 70.3358C68.4537 68.639 68.1751 66.8728 69.2321 65.3807C70.4165 63.7089 72.2368 61.9031 74.3887 61.7315C74.977 61.6845 76.3379 61.5201 76.725 62.1426C76.8795 62.391 76.2525 62.4 76.1567 62.4187C75.0052 62.6433 73.7598 63.0694 72.8399 63.8204C72.051 64.4644 71.7861 65.4617 71.648 66.4293C71.4781 67.6201 71.3416 68.8263 72.2698 69.7398C72.6983 70.1614 73.3528 70.577 73.9693 70.628C74.8844 70.7037 75.2711 69.1544 75.5041 68.5376C76.0307 67.1432 76.4864 65.6611 76.7184 64.1854C76.7267 64.1327 76.9078 63.2206 76.7138 63.3287C76.2336 63.5964 75.9029 64.2739 75.6946 64.7448C75.1397 65.9994 74.8139 67.3923 74.6351 68.749C74.5537 69.3667 74.5181 69.9113 75.1803 70.1781C75.7827 70.4209 76.4629 70.4216 77.0409 70.1183C77.9673 69.6321 78.3917 68.8634 78.6392 67.8737C79.0853 66.0901 79.3576 64.2794 79.5495 62.4536C79.5548 62.4033 79.7176 61.4022 79.6138 61.3913C79.4289 61.3719 79.3695 61.9617 79.3549 62.0547C79.2139 62.953 79.6812 63.9323 80.0891 64.7006C80.4064 65.2981 80.8407 66.3556 81.4716 66.7144C81.6819 66.834 81.2247 65.9731 81.2078 65.9393C80.6893 64.9047 80.3235 63.613 79.5884 62.7132C79.06 62.0663 78.3261 61.9277 77.5415 61.8452C77.4946 61.8403 76.6265 61.7245 76.7086 61.6678C77.4628 61.1475 78.5754 61.3521 79.3349 61.7499C80.8995 62.5694 82.5485 63.7198 83.7233 65.0494C84.5203 65.9515 84.9556 67.0108 85.4081 68.1026C85.5198 68.3722 85.7281 68.6762 85.7909 68.9612C85.8169 69.079 85.5524 68.8978 85.455 68.8266C85.0843 68.5555 84.76 68.2264 84.4091 67.9314C83.6478 67.2916 82.7674 66.7007 81.8121 66.4001C81.4676 66.2918 80.8048 66.0535 80.4368 66.2083C80.0577 66.3677 79.8187 66.9586 79.601 67.2747C79.0822 68.0276 78.6162 68.8246 78.083 69.5655C77.4473 70.4486 76.5903 71.4379 75.577 71.8944C75.3473 71.9979 74.255 72.312 74.1227 71.9592" stroke="#171717" stroke-width="2" stroke-linecap="round"/>
<path d="M98.7972 62.0204C99.3473 62.0096 99.9022 61.8791 100.434 61.7523C102.791 61.1895 105.12 60.4529 107.415 59.6759C108.805 59.2052 110.178 58.6885 111.564 58.2075C112.023 58.0484 113.217 57.876 113.576 57.5133C113.855 57.2304 112.778 57.518 112.384 57.5742C110.874 57.79 109.381 58.1278 107.946 58.6483C106.79 59.0674 105.591 59.5075 104.475 60.0271C104.461 60.0333 103.521 60.5343 103.812 60.6176C104.486 60.8111 105.717 60.3775 106.331 60.2392C108.59 59.731 110.787 58.9919 113.025 58.4034C113.965 58.156 114.926 57.947 115.848 57.6336C116.698 57.3447 114.517 57.2737 114.507 57.2725C111.813 56.9894 109.099 57.0089 106.413 56.7266C105.6 56.6412 106.851 56.3696 106.97 56.3365C109.731 55.5725 112.473 54.7327 115.247 54.0154C117.127 53.529 119.029 53.0889 120.936 52.7173C121.071 52.691 122.841 52.3088 122.801 52.287C122.087 51.9014 120.655 52.1294 119.927 52.1711C117.775 52.2944 115.619 52.5938 113.506 53.0199C112.745 53.1734 110.038 53.6466 112.295 53.8321C115.981 54.135 119.668 54.1584 123.351 54.5455C123.571 54.5687 123.792 54.5918 124.012 54.615C124.132 54.6276 124.014 54.6164 123.855 54.5815C122.538 54.2935 121.275 53.7661 120.01 53.3141C118.921 52.9251 117.838 52.5335 116.769 52.0932C116.593 52.0207 115.498 51.673 116.412 51.7848C118.154 51.9978 119.891 52.6037 121.565 53.0966C124.83 54.058 128.08 55.095 131.279 56.2591C132.55 56.7214 133.815 57.2219 135.036 57.8051C135.489 58.0217 134.029 57.7682 133.534 57.6811C128.576 56.8081 123.501 55.92 118.447 56.0192C117.64 56.0351 116.797 56.0771 116.009 56.2708C115.899 56.2978 118.593 56.6623 118.875 56.699C124.231 57.3967 129.782 58.0615 134.946 59.7086C136.056 60.0626 136.091 60.1454 134.845 60.0197C131.816 59.7139 128.79 59.3832 125.762 59.065C123.72 58.8503 121.678 58.6101 119.633 58.4292C119.22 58.3927 117.658 58.0771 117.253 58.4415C116.96 58.7052 118.007 58.6721 118.386 58.7806C119.932 59.2238 121.419 59.8043 122.902 60.4234C123.656 60.7381 124.472 61.0134 125.174 61.4408C125.609 61.7059 125.798 61.9808 125.121 61.8586C122.276 61.3447 119.547 60.1428 116.885 59.0461C116.56 58.9122 115.561 58.6133 115.912 58.6391C117.075 58.7247 118.264 59.008 119.404 59.2431C120.661 59.5026 124.349 60.6285 123.124 60.2436C120.444 59.4016 117.678 58.8786 114.988 58.085C114.938 58.07 113.751 57.6551 113.948 57.6709C115.43 57.7893 116.919 57.9704 118.391 58.1633C124.613 58.9782 130.821 60.2819 136.725 62.4348C137.26 62.6302 138.792 63.0213 138.252 63.2048C138.091 63.2595 137.269 63.1691 137.257 63.1679C136.132 63.0616 135.006 62.9375 133.884 62.8049C131.449 62.5174 124.168 61.4875 126.606 61.7438C128.785 61.9727 130.923 62.3995 133.023 63.0276C133.256 63.0973 133.924 63.3756 133.684 63.3342C132.808 63.1825 131.895 62.6104 131.109 62.2255C130.974 62.1591 128.445 61.0229 129.648 61.1493C133.71 61.5763 145.536 64.783 141.474 64.356C140.447 64.2481 137.462 63.3684 138.461 63.633C139.715 63.9653 140.848 63.9607 142.104 63.6012C143.383 63.2349 144.432 62.7571 143.461 61.3146C143.274 61.0364 140.397 57.6232 140.466 57.5972C140.716 57.5035 141.247 57.7827 141.455 57.8534C142.417 58.1799 143.379 58.5085 144.352 58.8012C144.747 58.9199 145.249 59.1538 145.669 59.1513C146.03 59.1491 145.05 58.0176 145.015 57.9736C144.882 57.8086 142.879 55.3127 143.04 55.2606C143.408 55.1411 144.063 55.5752 144.354 55.7204C145.228 56.1562 146.092 56.6181 146.986 57.0128C147.841 57.3902 148.804 58.0612 148.504 56.6644C148.382 56.0936 147.275 53.9144 147.788 53.4066C148.234 52.9658 150.058 54.137 150.494 54.3174C151.085 54.5614 152.074 55.115 151.668 54.1022C151.032 52.5135 149.847 51.1179 149.015 49.6251C148.423 48.562 147.927 47.3907 147.01 46.5534C145.462 45.1382 143.829 44.651 141.779 44.226C138.41 43.5278 134.834 43.4115 131.415 43.0521C127.714 42.6631 123.684 42.1393 120.002 42.9191C117.079 43.538 114.186 44.9031 111.771 46.6585C108.869 48.768 105.836 50.6653 102.774 52.5267C101.741 53.1554 101.421 54.0652 100.751 55.0311C100.644 55.1843 99.9 56.0278 100.021 56.2579C100.042 56.2986 100.102 56.2133 100.138 56.1856C100.437 55.9603 100.77 55.7894 101.096 55.6091C102.811 54.6625 104.555 53.7828 106.321 52.9333C114.752 48.8765 123.332 44.7927 132.912 45.7995C132.982 45.8069 134.768 46.0122 134.646 46.1341C134.351 46.4279 133.119 46.182 132.779 46.175C130.926 46.1368 129.073 46.151 127.227 46.3362C123.906 46.6694 120.686 47.5984 117.382 48.0355C117.108 48.0717 116.288 48.1828 116.564 48.1695C117.839 48.1084 119.118 47.8134 120.395 47.7173C123.672 47.4706 126.895 47.6049 130.155 47.9475C132.492 48.1931 125.536 47.0838 123.219 46.6937C120.742 46.2767 118.266 45.9361 115.768 45.6736C115.141 45.6077 117.018 45.8519 117.629 46.0046C121.641 47.0068 125.444 48.7829 129.151 50.576C131.818 51.866 134.467 53.2155 136.978 54.7927C137.994 55.4309 139.665 56.2445 140.325 57.3284C140.823 58.1443 138.405 57.5912 137.461 57.4421C134.63 56.9948 131.835 56.293 129.096 55.454C127.812 55.0608 126.529 54.637 125.269 54.1716C125.043 54.0882 124.198 53.7606 125.002 53.8134C128.639 54.052 132.254 55.0836 135.631 56.4118C136.012 56.5618 136.666 56.8329 137.057 57.0187C137.225 57.0985 137.717 57.2693 137.535 57.3059C137.234 57.3662 136.951 57.1177 136.67 56.995C135.14 56.3259 133.658 55.5431 132.192 54.7468C129.659 53.3714 127.089 51.9668 124.727 50.3057C124.662 50.2595 122.863 48.9143 123.356 48.9343C124.462 48.9788 125.689 49.4051 126.739 49.6876C129.44 50.4139 132.081 51.3401 134.686 52.3512C135.773 52.7729 136.837 53.2328 137.894 53.721C138.86 54.1666 137.797 53.2876 137.572 53.0861C136.549 52.1709 135.48 51.3062 134.432 50.42C133.769 49.8587 132.86 49.334 132.298 48.6636C132.081 48.405 132.984 48.607 133.31 48.6939C135.224 49.2031 137.047 49.9865 138.844 50.8075C139.996 51.334 141.15 51.858 142.3 52.3897C142.392 52.4319 143.57 53.1839 142.966 52.6627C141.414 51.3248 139.664 50.0359 138.384 48.423C137.973 47.9063 138.689 48.2641 138.898 48.3586C140.792 49.2144 142.518 50.4353 144.228 51.602C145.507 52.4742 146.748 53.3959 148.008 54.2931C149.004 55.0015 147.296 53.1144 147.242 53.0445C146.47 52.0402 145.784 50.98 145.045 49.9526C144.683 49.4498 143.32 48.3656 143.932 48.4644C144.346 48.5314 145.007 49.3335 145.305 49.5737C146.209 50.3027 147.141 50.9985 148.06 51.7085C148.35 51.9325 148.645 52.1527 148.909 52.4071C149.294 52.7774 148.129 51.6764 147.747 51.3031C146.686 50.2669 145.64 49.2185 144.56 48.2004C144.389 48.039 143.548 47.416 143.55 47.1038C143.551 46.9152 143.896 47.2614 144.046 47.3761C144.75 47.9151 145.45 48.4613 146.152 49.0025C146.573 49.3268 148.276 50.6053 146.905 49.4879C144.656 47.6536 142.341 45.8846 139.746 44.5625C138.549 43.9529 134.861 42.5171 136.196 42.6574C138.67 42.9175 141.15 44.3492 143.376 45.3758C143.927 45.63 144.504 45.9043 144.992 46.2735C145.287 46.4974 144.257 46.1461 143.91 46.0159C138.47 43.9755 132.898 43.0735 127.092 42.784C122.801 42.57 118.345 43.6536 114.325 45.0649C112.59 45.6743 110.826 46.5046 109.388 47.6692C109.082 47.9171 107.816 48.8501 107.767 49.3187C107.756 49.4229 110.28 49.0495 110.387 49.0354C115.585 48.3535 120.761 47.3856 125.978 46.8652C128.8 46.5836 131.609 46.4243 134.432 46.7211C134.635 46.7424 134.024 46.7399 133.82 46.7414C131.734 46.7575 129.709 46.9272 127.661 47.3637C125.254 47.8767 122.911 48.6307 120.587 49.4304C119.212 49.9035 117.563 50.2733 116.298 51.0195C115.72 51.3602 117.625 51.2365 118.295 51.2633C122.915 51.4479 127.531 51.9045 132.119 52.4538C134.837 52.7792 137.574 53.1312 140.214 53.8802C140.255 53.8917 142.981 54.8198 142.849 54.9782C142.43 55.4836 139.003 54.3262 138.604 54.2188C136.076 53.5378 133.656 52.5861 131.236 51.5992C130.625 51.35 129.622 51.1223 129.099 50.672C128.48 50.1396 130.733 50.7636 131.538 50.903C135.53 51.5946 139.339 52.8278 143.097 54.3102C144.828 54.9929 143.382 54.3655 142.525 54.2755C141.668 54.1853 141.877 55.1886 141.995 55.7772C142.223 56.9098 142.342 57.9558 142.22 59.1104C142.172 59.5725 142.264 60.5658 141.959 60.9535C141.349 61.7291 139.8 62.6298 138.844 62.8015C135.483 63.4057 132.199 62.941 128.837 62.5876C126.601 62.3527 124.302 61.4852 122.104 60.932C120.045 60.4138 117.928 59.7652 115.817 59.5433" stroke="#FFD424" stroke-width="2" stroke-linecap="round"/>
<path d="M160.351 108.655C159.72 114.658 114.588 114.836 84.8406 111.709C43.7683 107.392 10.9842 99.0257 11.6153 93.0219C24.6403 83.4001 46.0534 85.6508 87.1257 89.9676C128.198 94.2845 160.982 102.651 160.351 108.655Z" stroke="#171717" stroke-width="2" stroke-linecap="round"/>
<path d="M11.5625 93.1813L16.87 120.275L43.963 127.17C80.0757 136.361 117.406 139.835 154.594 137.466V137.466L160.245 108.808" stroke="#171717" stroke-width="2" stroke-linecap="round" stroke-linejoin="round"/>
<path d="M19.6445 121.675L26.0873 223.171L38.3445 229.142C68.5172 243.839 103.147 246.523 135.224 236.651V236.651L150.736 138.153" stroke="#171717" stroke-width="2" stroke-linecap="round" stroke-linejoin="round"/>
<path d="M86.2354 107.2L89.8612 72.7033M89.8612 72.7033V72.7033C90.4307 67.284 92.4576 62.0587 96.3091 58.2041C108.737 45.7661 129.614 32.7848 147.663 45.4943C152.213 48.6985 152.631 55.0073 149.84 59.822V59.822C146.488 65.6033 139.321 67.8515 132.926 65.9101C117.657 61.2738 97.2328 59.0777 89.8612 72.7033Z" stroke="#171717" stroke-width="2" stroke-linecap="round" stroke-linejoin="round"/>
<path d="M86.8946 100.948L92.0018 52.3564M92.0018 52.3564V52.3564C92.5714 46.9372 91.6752 41.4047 88.7093 36.8335C79.1388 22.0833 61.4169 5.04514 41.1204 13.7244C36.0035 15.9126 34.2832 21.9966 36.0121 27.2864V27.2864C38.0881 33.6381 44.632 37.3275 51.2901 36.7579C67.1901 35.3977 87.6241 37.4959 92.0018 52.3564Z" stroke="#171717" stroke-width="2" stroke-linecap="round" stroke-linejoin="round"/>
<path d="M91.1927 66.0915C97.4814 58.876 113.827 44.9416 128.902 46.9282" stroke="#171717" stroke-width="2" stroke-linecap="round"/>
<path d="M91.3191 50.52C88.5874 43.0267 77.9211 27.795 57.1096 26.8142" stroke="#171717" stroke-width="2" stroke-linecap="round"/>
<path d="M71.4585 62.5099C85.1891 54.4333 89.4047 71.9374 89.1792 80.4605C88.114 74.6505 84.5707 64.9937 78.9189 72.8459C71.8543 82.6612 59.1322 69.7604 71.4585 62.5099Z" stroke="#171717" stroke-width="2" stroke-linecap="round"/>
<path d="M13.3443 95.8539C13.1286 97.9061 12.6228 100.168 13.0629 102.183C13.602 104.651 14.2301 107.252 15.2354 109.51C16.5546 112.473 17.1793 115.598 18.1674 118.672C19.3707 122.414 24.3849 122.769 27.3863 123.472C30.5015 124.201 33.5399 125.286 36.675 125.848C39.1134 126.286 41.694 126.394 44.1057 126.968C46.5082 127.539 48.9714 127.732 51.3758 128.263C52.9767 128.617 54.4301 129.147 56.0836 129.321C57.2335 129.442 58.0468 129.982 59.143 130.238C62.3906 130.998 65.5446 132.75 68.7157 133.836C71.8994 134.926 74.8494 135.929 78.1821 136.28C79.0726 136.373 79.8604 136.075 80.7836 136.279C85.2326 137.263 89.6937 137.779 94.2227 138.255C98.0006 138.652 101.729 139.334 105.511 139.732C108.674 140.064 111.629 138.825 114.71 138.091C120.369 136.742 125.598 137.786 131.184 138.373C133.968 138.666 136.679 138.371 139.456 138.663C142.076 138.939 144.696 139.214 147.315 139.489C149.037 139.67 150.801 138.876 152.445 138.161C153.273 137.801 154.044 137.712 154.58 136.776C155.417 135.316 155.336 132.561 155.509 130.918C156.298 123.412 159.585 116.48 160.372 108.989" stroke="#171717" stroke-width="2" stroke-linecap="round"/>
<path d="M18.957 122.829C17.0483 140.989 21.868 158.962 23.1315 176.957C23.3603 180.216 24.4784 183.456 24.456 186.7C24.4257 191.084 24.6625 196.142 25.2503 200.494C26.0553 206.455 26.8889 212.71 26.2487 218.801C25.9442 221.698 27.1277 221.865 29.1087 223.12C31.8339 224.847 34.4986 226.721 37.2104 228.463C40.1418 230.346 43.7108 231.125 46.9203 232.409C52.7711 234.75 58.6172 236.879 64.172 240.073C71.3668 244.21 80.3457 244.166 88.3128 245.004C96.2999 245.843 103.922 239.633 111.832 240.206C116.974 240.579 124.325 238.954 129.419 238.227C130.78 238.033 133.974 237.702 134.775 236.426C135.711 234.936 134.705 237.093 134.896 235.273C135.164 232.724 136.828 230.297 137.104 227.675C137.407 224.79 138.183 221.873 138.496 218.897C139.082 213.325 139.667 207.753 140.253 202.18C140.756 197.399 140.888 192.16 142.276 187.648C143.705 183.003 146.125 177.593 146.641 172.682C147.826 161.416 149.524 149.725 150.727 138.274" stroke="#171717" stroke-width="2" stroke-linecap="round"/>
<path d="M85.4436 106.088C86.1232 99.6221 86.4769 100.566 87.1398 94.2583C87.5646 90.217 89.3332 86.3152 89.7634 82.2216C90.2413 77.6751 90.7191 73.1287 91.197 68.5822C91.6529 64.2441 94.4514 60.2202 97.179 57.1447C100.769 53.0971 104.743 49.5925 109.129 46.6081C112.804 44.1084 117.001 43.2997 120.995 41.4254C122.657 40.6453 123.824 40.4915 125.602 40.6784C126.909 40.8158 130.329 41.1098 131.501 40.5596C133.077 39.8202 136.172 40.8043 137.822 40.9777C140.346 41.2431 142.868 41.4671 145.073 42.8344C148.145 44.7387 151.044 47.2171 152.279 50.8698C153.127 53.3745 154.245 59.1747 152.06 61.5723C150.05 63.779 147.019 66.6419 143.92 66.7361C142.419 66.7818 141.067 67.4213 139.339 67.2396C137.452 67.0413 135.548 66.3487 133.791 66.1641C131.909 65.9662 130.308 64.3205 128.371 64.1169C125.889 63.856 123.478 62.6176 121.034 62.3607C118.653 62.1105 116.273 61.8603 113.892 61.6101C111.38 61.346 109.61 62.3947 107.193 62.876C105.27 63.259 103.183 64.0593 101.339 64.7232C99.369 65.4322 96.5453 65.5719 94.7837 66.7703C94.223 67.1518 90.7058 69.2792 90.7 69.2414C90.3181 66.7508 92.1508 63.8156 92.4129 61.3225" stroke="#171717" stroke-width="1.97428" stroke-linecap="round"/>
<path d="M92.4112 61.3222C92.7581 58.0215 94.1582 53.2355 93.2404 50.0819C92.8719 48.8159 93.0033 47.3945 92.5552 46.0699C92.0599 44.6058 91.2716 43.1515 90.8504 41.7044C89.9192 38.5048 87.7856 35.8012 86.7201 32.6516C85.5704 29.253 81.745 25.4472 79.2058 23.2431C73.313 18.1278 66.0565 15.2123 58.6223 14.4309C53.6348 13.9067 47.9532 12.3116 43.215 14.5353C42.0072 15.1021 40.5449 15.5805 39.5999 16.6178C38.6641 17.6448 38.1711 19.2088 37.1776 20.2759C36.0096 21.5304 35.2054 26.9182 35.7065 28.7673C36.5052 31.7145 36.6024 34.7703 39.8653 35.6343C43.7712 36.6686 47.4099 37.3849 51.5103 37.8159C59.987 38.7068 68.4637 39.5977 76.9404 40.4887C80.6702 40.8807 85.0803 40.5186 88.2335 42.9069C90.0442 44.2784 93.8837 47.3121 93.5888 50.1185" stroke="#171717" stroke-width="1.97428" stroke-linecap="round"/>
<path d="M90.6147 71.5615C90.9157 68.6975 93.377 65.8133 95.3161 64.1036C97.4242 62.2449 99.6791 60.8737 102.022 59.4184C104.082 58.1394 105.724 56.1078 107.81 54.8554C113.88 51.2114 121.952 46.1982 128.899 46.9284" stroke="#171717" stroke-width="1.97428" stroke-linecap="round"/>
<path d="M57.1589 26.3167C63.4885 26.982 70.4248 26.2755 76.0008 29.8013C78.8527 31.6046 80.7217 34.6013 83.2351 36.6085C85.4327 38.3633 86.8965 41.0187 89.13 42.755C90.8757 44.112 92.1488 50.359 92.5988 52.6656" stroke="#171717" stroke-width="1.97428" stroke-linecap="round"/>
</svg>
