<svg width="173" height="244" viewBox="0 0 173 244" fill="none" xmlns="http://www.w3.org/2000/svg">
<path d="M102.895 242.764C88.2005 241.736 50.9555 232.766 38.618 227.282L26.1643 221.74C22.5668 220.145 20.0801 216.714 19.6838 212.776L10.2417 117.145C8.70984 115.684 7.58915 113.791 7.0965 111.662L1.00457 83.8091C0.182301 79.9424 1.63615 75.924 4.70187 73.512C19.2741 62.0907 40.3714 62.2928 73.6991 64.493C73.6712 63.4585 73.6553 62.3948 73.6615 61.3026C72.5389 61.4446 71.4133 61.4862 70.296 61.4081C68.9593 61.3146 67.6443 61.0523 66.3905 60.6338C58.8673 58.1229 54.8211 50.472 56.9699 42.8232C58.8629 36.1089 64.7742 31.2795 71.3244 31.0759C72.3089 31.0446 73.3 31.0637 74.2677 31.1314C75.9835 31.2514 77.6475 31.5382 79.2313 31.9697C79.9709 30.1368 80.7876 28.3494 81.6613 26.6061C90.3372 9.4796 100.736 7.56034 106.163 7.93982C106.323 7.95098 106.462 7.96074 106.612 7.97121C113.472 8.64137 118.93 13.3035 120.858 20.1446C122.784 27.0056 120.967 38.0759 109.486 46.7161L109.264 46.891L108.664 47.2901L108.392 47.4516C105.039 49.3924 101.696 50.1811 99.0042 50.8249C98.2093 51.0099 97.2201 51.2515 96.5136 51.4627C95.604 56.8724 95.5503 61.9411 95.8116 66.0894C113.21 67.5767 129.342 69.8375 141.871 72.5781C156.83 75.8396 172.71 80.4084 171.807 93.3269C171.778 93.7359 171.71 94.7135 171.353 95.9516L166.944 123.301C166.461 126.334 164.745 128.941 162.333 130.607L152.55 210.88L162.132 212.613L162.418 212.683C168.332 214.119 172.438 219.338 172.387 225.369C172.338 231.38 168.2 236.504 162.312 237.847C143.478 242.123 124.782 243.853 106.749 242.983C105.43 242.921 104.142 242.841 102.905 242.755L102.895 242.764Z" fill="white"/>
<path d="M14.4397 81.2295C17.02 81.41 19.5901 81.1296 22.1621 81.3094C22.5543 81.3369 23.2432 81.2316 22.4325 81.4306C19.6822 82.1055 21.9511 79.8687 19.3718 81.2513C18.251 81.8521 17.325 82.7097 16.2549 83.385C14.1692 84.7012 15.7321 85.9332 17.8915 84.8449C23.0435 82.2486 28.2851 79.9555 33.4014 77.2388C34.8686 76.4597 36.3805 75.526 37.9345 75.0764C40.8952 74.2198 31.9865 76.6147 29.0378 77.5471C27.3625 78.0769 21.5331 80.3829 26.6761 79.9892C32.4709 79.5456 37.8528 77.5765 43.4865 76.0014C46.7552 75.0875 37.0656 78.615 34.0476 80.5302C31.7891 81.9634 27.8122 84.7909 32.9272 82.8801C36.41 81.5791 39.8767 80.2649 43.3885 79.113C45.1277 78.5425 48.3932 78.3943 49.9252 77.0651C54.3964 73.1856 39.6436 81.2142 34.8204 84.2906C33.3421 85.2335 31.9698 86.2857 30.5783 87.4191C29.4794 88.3141 33.4957 87.2909 33.5564 87.2695C42.7308 84.0316 52.524 81.4822 61.2 76.5246C61.5917 76.3008 63.2537 75.5161 61.9125 75.4498C57.783 75.2454 52.0955 73.8054 48.1723 75.3577C41.1897 78.1206 34.0956 81.7028 27.7703 86.5582C23.0619 90.1725 38.503 84.1886 43.7607 82.3341C48.7569 80.5719 53.7427 78.6999 58.7085 76.7846C60.2409 76.1936 61.7939 75.3482 63.3735 75.0149C64.476 74.7822 61.1605 75.4343 60.0734 75.781C55.735 77.1643 51.5347 79.9418 47.4995 82.4166C45.3478 83.7363 43.2799 85.2138 41.1864 86.6784C40.0151 87.4977 40.3486 87.6886 41.5531 87.7009C49.6329 87.7832 58.2703 83.3094 65.6221 79.0318C65.7774 78.9415 68.3889 77.7244 68.334 77.2788C68.252 76.6132 61.8254 79.5768 61.5094 79.7411C58.2201 81.4504 54.989 83.4784 51.8555 85.6351C51.4025 85.9469 47.619 88.9491 47.718 88.9755C50.6986 89.7683 55.3753 86.6743 58.1218 85.4599C63.1127 83.2531 68.0396 80.6842 73.1372 78.9438C74.4368 78.5001 78.3331 77.2344 77.0767 77.8646C72.9561 79.9315 68.8931 82.203 64.7765 84.2893C60.3689 86.5231 55.9331 88.626 51.5612 90.9824C50.9888 91.2909 46.6711 92.7757 46.4846 93.7969C46.379 94.3749 53.0346 92.9355 53.3629 92.8465C60.2318 90.983 66.8283 88.0102 73.3893 84.7382C76.5302 83.1719 79.4268 81.284 82.4473 79.3904C83.0229 79.0295 85.2785 77.7482 83.1578 78.0598C75.1472 79.2367 67.6184 84.6562 60.3158 88.834C60.0384 88.9927 58.0327 89.799 59.3258 89.8894C64.274 90.2354 69.1421 88.3807 73.9245 86.7694C79.4867 84.8953 84.9378 82.8242 90.3832 80.4054C92.0366 79.671 93.6989 78.9746 95.3541 78.248C95.8042 78.0505 97.2757 77.7611 97.6523 77.2841C99.136 75.4045 93.6388 78.5921 91.6832 79.4739C86.1169 81.9837 80.4143 84.405 75.026 87.5366C74.3033 87.9566 65.5965 93.4786 65.7851 93.7918C66.1618 94.4177 69.4299 93.0466 69.6671 92.9641C73.2697 91.7124 76.8077 90.0732 80.3367 88.4958C85.4401 86.2147 90.545 84.0036 95.7251 82.057C96.1108 81.912 100.561 80.6974 100.61 79.9958C100.64 79.5568 95.4705 81.3917 95.2886 81.4641C91.1544 83.1092 86.9754 84.4771 82.8498 86.1666C81.3987 86.7609 79.9652 87.2191 78.5597 87.9881C76.6734 89.0203 82.6275 87.863 84.6347 87.4161C93.4973 85.4429 102.227 81.9331 111.04 79.5238C117.015 77.8902 99.5487 85.0588 93.7446 87.593C89.5746 89.4137 85.3453 91.0641 81.2454 93.1603C80.1028 93.7445 76.7333 95.4284 77.9483 95.3069C81.3026 94.9715 84.647 93.4364 87.8805 92.2696C95.832 89.4002 103.723 86.2921 111.621 83.1686C114.567 82.0036 118.339 83.8656 121.254 82.5641C123.614 81.5105 119.148 81.0088 118.359 81.237C108.868 83.9829 99.89 87.5747 90.895 92.4548C90.5946 92.6178 87.0729 94.2194 87.1352 94.9525C87.2307 96.076 94.7647 93.1652 95.0756 93.0539C103.362 90.0866 111.681 87.3136 120.062 84.9346C120.669 84.7623 121.791 84.5172 120.451 84.5017C116.368 84.4546 111.974 86.2744 108.134 88.0369C104.31 89.7915 100.582 91.9901 97.0066 94.4925C96.6362 94.7518 92.9108 96.7745 93.0331 97.7676C93.16 98.7974 100.354 95.351 100.62 95.2308C108.914 91.4786 117.108 87.384 125.441 83.7771C129.344 82.0881 135.374 85.8868 139.371 84.649C142.393 83.7134 133.247 84.374 133.386 82.39C124.85 86.6057 116.691 89.6386 108.116 93.7101C107.98 93.7747 105.463 94.7985 106.63 95.0121C109.512 95.5392 112.796 93.6722 115.52 92.6431C122.101 90.1568 128.687 87.6768 135.262 85.1795C136.5 84.7093 132.745 85.9053 131.512 86.3998C127.066 88.183 122.719 90.5721 118.396 92.8186C116.144 93.9889 113.858 95.0704 111.686 96.4903C109.768 97.7441 114.311 97.1591 114.549 97.125C124.579 95.6907 134.714 89.8755 144.324 85.7621C144.545 85.6674 147.205 84.4855 145.536 85.2334C140.952 87.2872 136.432 89.395 131.776 91.1726C128.287 92.5046 124.848 93.8631 121.434 95.5105C121.211 95.6182 118.039 97.0724 118.625 97.2311C120.818 97.8256 123.669 97.0433 125.826 96.5077C130.949 95.2357 136.03 92.9461 141.062 91.1063C143.265 90.3008 145.412 89.3727 147.582 88.4437C149.131 87.7805 146.222 89.0436 146.062 89.1043C141.89 90.689 135.927 92.2397 132.44 95.9222C131.674 96.7306 134.197 96.424 134.357 96.4142C138.243 96.1754 142.014 94.3736 145.794 93.2264C147.361 92.7506 149.813 92.616 151.232 91.5106C152.78 90.3034 147.66 92.0897 145.928 92.7246C144.168 93.3698 142.761 94.4408 141.153 95.5091C140.434 95.9864 139.518 96.4604 141.107 96.4516C143.472 96.4385 146.021 95.0136 148.31 94.2714C150.636 93.5172 152.957 92.7038 155.239 91.7397C156.307 91.2887 151.331 93.5078 151.251 94.656C151.206 95.3002 158.159 91.8692 158.932 91.3334" stroke="#171717" stroke-width="2" stroke-linecap="round"/>
<path d="M22.4175 79.9478C20.1401 79.7885 26.9499 80.5416 29.1967 80.9842C37.8655 82.6917 46.5308 83.4743 55.3106 84.0883C57.6561 84.2523 60.0015 84.4163 62.347 84.5803C66.1534 84.8465 54.6938 84.9462 50.8861 84.6991C44.8288 84.3059 38.4066 84.5124 32.492 82.8505C30.3591 82.2512 24.0868 80.1156 26.279 80.2689C27.4481 80.3507 29.1606 81.5416 30.1598 82.0228C35.0747 84.3899 40.0066 86.6463 45.0339 88.6352C57.3102 93.4921 69.9635 93.2139 82.7586 95.46C86.0246 96.0333 89.261 96.8349 92.5652 97.0659C94.4255 97.196 88.9726 95.8946 88.7101 95.7995C73.8269 90.4067 58.6136 87.0588 42.9807 85.5266C42.7216 85.5012 39.7769 84.7804 40.9514 84.9246C42.6833 85.1372 44.3606 85.7659 46.0336 86.3024C51.6238 88.0951 57.2608 89.615 62.9688 90.784C72.3334 92.7017 81.8362 93.7648 91.3354 94.429C93.3722 94.5714 95.4182 94.8007 97.4618 94.8318C97.4764 94.8321 100.099 94.5693 99.5458 94.0829C98.2158 92.9143 95.726 92.6796 94.2181 92.2279C89.6579 90.8616 85.0635 89.6852 80.4493 88.6067C70.2392 86.2202 60.1428 84.8863 49.7487 84.1594C47.5995 84.0092 44.4612 84.5083 42.4867 83.1915C42.2258 83.0176 42.952 82.6143 43.2483 82.5546C47.8002 81.6388 52.7251 82.2433 57.2622 82.3844C73.4918 82.8891 89.0225 85.7318 104.907 89.1923C111.268 90.578 118.327 92.3115 124.877 92.1479C125.852 92.1236 125.121 91.6399 124.667 91.4431C122.459 90.4857 120.123 89.8436 117.858 89.1266C107.722 85.9187 97.125 83.4429 86.6704 82.2425C80.9341 81.5839 75.1513 81.3348 69.394 80.9322C67.7754 80.819 63.3266 80.5079 67.8876 80.8269C79.872 81.6649 91.6357 84.217 103.515 86.0276C113.613 87.5667 123.77 88.5147 133.951 89.1273C135.911 89.2452 138.397 89.0891 134.959 87.8175C122.293 83.1323 108.88 81.318 95.7381 79.6048C83.582 78.0201 71.3296 77.3064 59.1055 76.532C56.3422 76.357 53.5293 77.0623 50.8159 76.8725C50.1824 76.8282 52.0609 77.1541 52.6757 77.3349C56.791 78.5446 60.8366 80.085 64.944 81.3367C81.2938 86.3195 98.0195 90.5887 114.913 91.9368C121.09 92.4298 127.279 92.8703 133.465 93.2341C134.358 93.2867 135.262 93.3564 136.146 93.0637C136.295 93.0144 133.442 92.7524 133.241 92.7328C121.219 91.5581 109.244 90.1602 97.1901 89.3173C88.314 88.6966 79.4612 87.4243 70.5543 88.835C69.2691 89.0385 61.3455 89.6551 66.7467 90.3069C83.6583 92.3477 100.78 92.6987 117.742 94.2051C129.042 95.2086 140.628 97.022 152.026 96.1168C152.359 96.0903 159.054 95.417 158.337 93.593C157.565 91.6297 151.751 91.9208 150.418 91.7613C140.816 90.6119 130.994 90.0886 121.317 90.3653C115.837 90.522 110.376 91.4614 104.972 92.8264C101.31 93.7512 104.876 93.5355 106.626 93.6579C116.297 94.3341 125.889 94.8175 135.605 94.534C140.847 94.3811 146.41 94.1975 151.536 92.2995C151.543 92.2969 154.053 91.5708 152.98 91.0202C149.127 89.0436 143.916 89.002 139.839 88.3887C131.781 87.1767 123.676 86.4149 115.545 86.0254C113.3 85.9178 111.088 85.9945 108.841 86.1956C108.707 86.2076 105.957 86.4958 106.234 86.729C107.446 87.7468 109.718 87.7439 111.086 87.9885C114.817 88.6552 118.568 89.1767 122.327 89.5925C129.956 90.4362 137.66 91.6914 145.355 91.535C146.751 91.5067 149.514 92.0454 150.83 90.9977C151.071 90.8063 150.378 90.5669 150.109 90.4872C148.379 89.9756 146.664 89.6235 144.956 88.9766C138.309 86.4586 131.854 84.8397 124.904 84.3538C122.212 84.1655 130.188 85.5852 132.851 86.0597C139.024 87.1597 145.251 88.47 151.49 88.9734C153.008 89.0959 156.048 89.2922 156.048 89.2922C156.048 89.2922 152.101 88.2242 150.124 87.7021C142.097 85.5811 134.228 84.0572 125.979 83.5087C114.751 82.7622 103.9 84.3488 92.7755 86.9381C85.5263 88.6255 78.4403 89.9824 71.1161 90.4846C68.7501 90.6468 61.6872 91.1963 64.019 90.5762C65.5444 90.1706 67.2451 90.453 68.7613 90.55C72.74 90.8045 76.7161 91.1062 80.6933 91.3844C88.0005 91.8953 95.3077 92.4063 102.615 92.9173C124.207 94.4271 58.6511 93.2767 38.0888 85.4145C34.7094 84.1224 31.3501 82.6348 27.9233 81.5341C26.6219 81.1161 22.6229 80.4222 23.9712 80.5165C28.7293 80.8492 33.4805 81.6416 38.21 81.9723C42.6366 82.2818 29.3568 81.3532 24.9302 81.0437C24.2504 80.9961 16.7281 80.2125 20.3905 81.8765C28.8623 85.7256 38.1195 85.9123 46.832 88.5564C48.2594 88.9897 49.6465 89.6735 51.1285 89.7771C51.2761 89.7874 48.9193 89.6226 48.3933 89.5858C40.5255 89.0356 32.6939 88.0279 24.8387 87.4786C24.5083 87.4555 20.297 83.2139 20.1333 85.5541C19.7729 86.3169 21.241 86.9804 21.9181 87.0905C24.2625 87.4718 25.6269 88.452 27.9696 88.8478C34.5371 89.9575 41.1151 90.4572 47.7422 90.9206C52.7824 91.273 57.8284 91.4656 62.7919 92.4586C66.5118 93.2028 69.8059 93.063 73.5812 92.8297C80.0317 92.431 86.3882 93.7914 92.8139 93.51C95.9893 93.3709 99.1112 93.5925 102.273 93.8136C107.836 94.2026 91.1474 93.0356 85.5844 92.6466C82.7038 92.4451 79.8232 92.2437 76.9426 92.0423C76.09 91.9827 74.7634 91.767 76.4905 92.2407C84.7113 94.4956 93.5738 95.0456 101.987 95.6339C108.702 96.1035 114.756 96.1939 121.293 93.5587C122.528 93.0608 125.466 93.1237 125.632 90.7438C125.745 89.1265 124.542 88.139 123.636 87.3836C120.876 85.0813 117.614 82.8012 114.421 81.6014C110.794 80.2389 106.845 80.3303 103.075 80.0668C98.4439 79.7429 93.8125 79.4191 89.181 79.0952C81.481 78.5568 74.0731 75.811 66.4086 75.2023C62.6481 74.9037 58.8421 74.4726 55.0641 74.5113C50.9028 74.5538 46.8848 76.0354 42.7545 76.5133C37.9561 77.0685 32.8584 75.9154 28.1538 77.3838C23.3028 78.898 18.8484 81.9851 14.0573 83.8619C13.7834 83.9692 15.656 78.9126 13.5115 81.9833C14.0414 82.0633 17.1102 84.6164 17.6286 84.7762C21.9644 86.1129 22.4048 86.3882 26.8848 86.7015C29.264 86.8679 31.5155 87.1959 33.8513 87.6232C34.5593 87.7527 35.1172 88.1974 35.8193 88.2465" stroke="#171717" stroke-width="2" stroke-linecap="round"/>
<path d="M81.2042 228.242C86.1033 228.584 91.0025 228.927 95.9016 229.269C96.692 229.325 97.4823 229.38 98.2727 229.435C101.193 229.639 92.4304 229.035 89.5161 228.755C84.5687 228.281 78.8222 227.844 74.0407 226.287C73.9297 226.251 73.2184 225.858 73.3603 225.868C75.944 226.049 78.5312 226.202 81.1114 226.427C88.0123 227.029 95.1004 227.501 101.955 228.493C104.741 228.896 99.1048 228.581 98.6557 228.549C96.7957 228.419 94.9852 228.29 93.1235 228.399C91.2599 228.508 92.7841 228.443 93.7746 228.512C104.662 229.274 115.763 229.456 126.588 227.833C129.064 227.462 131.538 227.044 134.007 226.628C134.289 226.58 135.556 226.422 134.484 226.56C128.685 227.304 122.791 227.132 116.962 226.788C113.413 226.578 108.841 226.211 105.421 227.502C105.314 227.542 104.04 227.904 104.539 228.031C106.778 228.602 109.562 227.945 111.805 227.796C116.332 227.496 120.986 226.765 125.525 227.082C127.691 227.234 121.188 226.858 119.018 226.864C114.987 226.875 111.111 227.286 107.107 227.552C104.901 227.699 102.58 228.52 100.375 228.366C98.5523 228.238 96.0012 228.971 94.3458 229.769C93.7916 230.036 95.9571 230.186 96.0399 230.192C98.5915 230.37 101.073 230.429 103.618 230.079C107.226 229.584 110.777 228.64 114.321 227.82C118.589 226.832 122.978 226.403 127.308 225.754C133.408 224.839 139.541 224.108 145.615 223.012C146.8 222.798 149.165 222.316 146.519 222.163C140.351 221.807 133.752 222.139 127.684 223.279C125.941 223.607 124.24 223.948 122.576 224.561C122.4 224.626 121.008 225.114 121.916 225.292C129.822 226.847 138.765 225.377 146.219 222.598C148.797 221.637 140.858 223.839 138.179 224.469C132.522 225.8 126.154 227.205 120.291 227.021C115.46 226.869 129.941 227.777 134.774 227.729C140.562 227.672 146.241 227.249 151.991 226.804C152.287 226.781 153.865 226.631 152.735 226.552C150.874 226.422 149.013 226.292 147.152 226.161C143.332 225.894 139.49 225.496 135.658 225.729C132.236 225.938 128.875 226.839 125.463 227.011C125.216 227.023 122.697 226.885 123.541 226.944C126.616 227.159 129.619 227.247 132.698 226.976C138.465 226.468 144.7 226.188 150.352 224.864C151.766 224.533 152.417 224.429 150.63 224.275C147.433 224 144.264 223.526 141.049 223.301C136.542 222.986 150.063 223.932 154.569 224.247C159.262 224.575 145.166 223.893 140.473 223.565C138.601 223.434 136.729 223.303 134.856 223.172C133.953 223.109 135.341 223.206 135.361 223.208C136.729 223.303 138.097 223.416 139.469 223.427C145.367 223.476 151.335 222.276 157.202 222.606C157.652 222.631 160.43 222.454 159.351 223.297C156.213 225.747 152.145 225.45 148.549 226.732C146.492 227.466 151.469 226.428 152.055 226.369C154.277 226.148 156.541 226.339 158.655 225.512C159.707 225.101 159.752 224.571 158.605 224.292C155.838 223.621 153.001 223.529 150.172 223.331C146.859 223.099 156.738 224.398 160.052 224.63C160.446 224.658 159.268 224.742 158.875 224.784C156.225 225.069 153.603 225.514 150.938 225.666C141.28 226.216 131.575 226.676 121.898 226.761C117.558 226.799 113.248 227.02 108.935 227.511C104.371 228.03 99.5035 228.23 94.9861 229.07C93.197 229.403 91.3895 228.933 89.6478 229.288C88.5532 229.512 87.1047 229.567 85.9838 229.488C83.5658 229.319 81.9554 228.979 79.7627 228.073C78.7387 227.65 77.5364 227.073 76.4246 226.995C74.8018 226.881 79.6479 227.544 81.1812 228.088C83.2696 228.828 79.8946 228.454 79.4005 228.42C75.4657 228.145 74.8641 228.711 66.973 226.638C64.6673 226.465 42.5923 216.997 40.4816 216.032" stroke="#171717" stroke-width="2" stroke-linecap="round"/>
<path d="M92.9879 38.807C95.9041 39.0109 99.232 38.7615 101.791 37.1774C104.281 35.6368 104.785 31.6001 105.551 29.0419C106.014 27.4986 107.099 25.3012 106.73 23.6362C106.381 22.0646 103.275 21.6591 102.01 22.1628C99.2299 23.2696 96.8168 27.1044 95.7735 29.7406C94.6261 32.6398 93.8577 35.687 92.7224 38.5909C92.45 39.2876 93.6353 37.875 93.8137 37.7006C96.3871 35.1835 99.4505 33.2968 101.937 30.6393C103.308 29.1736 104.881 27.4356 104.97 25.3217C105.01 24.3582 103.074 24.2574 102.456 24.3976C101.746 24.5586 101.212 25.2178 100.801 25.7682C99.4176 27.6224 98.4336 29.7977 97.3125 31.8127C95.81 34.513 93.6779 37.8181 93.7751 41.076C93.8086 42.1976 97.1859 39.1756 97.3816 38.9999C99.6172 36.9922 101.705 34.3364 102.386 31.3463C102.835 29.3794 102.156 27.2791 99.7501 27.7215C96.3499 28.3469 94.7885 33.495 93.7317 36.1981C93.5866 36.569 92.7937 38.5442 92.8324 38.5051C94.1545 37.1643 96.7237 36.5357 98.3599 35.711C101.056 34.3518 103.766 32.7094 105.99 30.6421C106.827 29.8643 107.611 28.747 107.794 27.5876C108.072 25.8271 108.328 24.1495 106.357 23.6101C103.013 22.6945 99.6969 24.636 98.6099 27.9744" stroke="#FFD424" stroke-width="2" stroke-linecap="round"/>
<path d="M161.428 92.1061C161.007 98.1282 115.909 99.8803 86.0704 97.7938C44.8725 94.913 11.8164 87.6958 12.2375 81.6737C24.9188 71.6032 46.3975 73.1051 87.5954 75.9859C128.793 78.8668 161.849 86.084 161.428 92.1061Z" stroke="#171717" stroke-width="2" stroke-linecap="round"/>
<path d="M12.1875 81.8348L18.4373 108.727L45.7545 114.672C82.1659 122.597 119.595 124.767 156.678 121.101V121.101L161.325 92.2636" stroke="#171717" stroke-width="2" stroke-linecap="round" stroke-linejoin="round"/>
<path d="M21.2617 110.03L31.2427 211.239L43.7008 216.778C74.3681 230.413 109.07 231.887 140.783 220.901V220.901L152.849 121.922" stroke="#171717" stroke-width="2" stroke-linecap="round" stroke-linejoin="round"/>
<path d="M88.4767 83.0224C86.1501 76.4102 83.5341 61.9389 86.7725 46.4851M86.7725 46.4851C87.8403 41.3893 89.5446 36.1867 92.1058 31.1238C105.016 5.60269 120.927 24.3524 103.482 37.4823C97.8804 40.7254 89.9033 39.0285 86.7725 46.4851Z" stroke="#171717" stroke-width="2"/>
<path d="M100.992 28.7664C97.9349 30.8249 90.9985 36.7022 87.7096 43.7432" stroke="#171717" stroke-width="2" stroke-linecap="round"/>
<path d="M85.7341 52.9178C85.7233 52.781 85.7096 52.6401 85.6928 52.4957M85.6928 52.4957C85.1961 48.2266 81.8053 41.332 72.2973 41.6278C69.068 41.7282 66.1669 47.0931 69.4797 49.2671C74.0628 52.2748 81.8725 43.5409 85.6928 52.4957Z" stroke="#171717" stroke-width="2"/>
<path d="M14.0691 84.4439C13.9252 86.5023 13.4986 88.7806 14.0088 90.7787C14.6337 93.2261 15.3522 95.8044 16.4357 98.0256C17.8575 100.941 18.5909 104.042 19.6857 107.079C21.0188 110.777 26.0424 110.958 29.0664 111.555C32.2052 112.175 35.2796 113.153 38.4324 113.606C40.8846 113.958 43.4674 113.976 45.8977 114.465C48.3187 114.952 50.7871 115.059 53.2086 115.506C54.8208 115.803 56.2919 116.283 57.9504 116.399C59.1038 116.48 59.9355 116.991 61.04 117.209C64.3121 117.855 67.5253 119.496 70.7323 120.47C73.9522 121.449 76.9354 122.348 80.2783 122.582C81.1715 122.645 81.9484 122.32 82.8782 122.491C87.3588 123.318 91.8353 123.679 96.3781 123.997C100.168 124.262 103.917 124.813 107.711 125.078C110.884 125.3 113.794 123.959 116.847 123.117C122.456 121.572 127.718 122.433 133.321 122.825C136.114 123.02 138.812 122.631 141.598 122.826C144.226 123.01 146.854 123.194 149.482 123.377C151.209 123.498 152.944 122.643 154.561 121.871C155.377 121.482 156.144 121.366 156.647 120.412C157.433 118.924 157.256 116.173 157.371 114.525C157.897 106.996 160.941 99.9532 161.466 92.4399" stroke="#171717" stroke-width="2" stroke-linecap="round"/>
<path d="M20.6172 111.206C19.3434 129.423 24.7874 147.216 26.6782 165.156C27.0206 168.405 28.2511 171.604 28.3419 174.847C28.4646 179.229 28.8778 184.276 29.6171 188.605C30.6297 194.534 31.681 200.756 31.2538 206.866C31.0506 209.772 32.2393 209.897 34.2628 211.082C37.0466 212.713 39.7751 214.493 42.5461 216.139C45.5414 217.919 49.1353 218.573 52.3877 219.744C58.3167 221.879 64.2335 223.803 69.8964 226.801C77.2311 230.684 86.2031 230.328 94.1946 230.886C102.206 231.447 109.606 224.974 117.532 225.271C122.684 225.465 129.974 223.584 135.039 222.68C136.393 222.438 139.573 221.996 140.329 220.693C141.213 219.17 140.282 221.362 140.41 219.536C140.589 216.98 142.167 214.496 142.351 211.865C142.553 208.972 143.227 206.03 143.436 203.045C143.827 197.455 144.218 191.866 144.609 186.276C144.944 181.48 144.894 176.24 146.123 171.682C147.39 166.991 149.619 161.499 149.964 156.574C150.754 145.272 152.043 133.529 152.846 122.044" stroke="#171717" stroke-width="2" stroke-linecap="round"/>
<path d="M87.7495 41.1754C87.9864 37.7876 88.0807 34.1781 90.1785 31.3114C92.1359 28.6365 94.0717 25.9694 96.1866 23.4072C97.3739 21.9689 98.1708 20.8083 99.8692 19.9559C101.17 19.3029 102.224 19.1711 103.688 19.4426C104.601 19.6118 105.463 20.0965 106.29 20.5015C106.941 20.8206 107.863 20.8658 108.401 21.3478C109.625 22.4452 109.543 24.15 109.435 25.6938C109.292 27.7331 108.19 29.6084 107.395 31.4748C106.986 32.4356 106.402 33.3276 105.923 34.2556C105.477 35.1178 105.126 36.0346 104.632 36.8708C103.704 38.4419 101.368 39.4663 99.7064 40.0344C97.7827 40.6921 95.7466 40.7775 93.881 41.6041C91.2843 42.7547 88.0244 44.0657 86.6332 46.7237C86.09 47.7613 86.2611 49.3271 86.1639 50.4591C86.0904 51.3146 85.8618 52.2391 85.6395 53.0684C85.2238 54.6194 84.4851 69.5839 87.8353 82.3487" stroke="#171717" stroke-width="2" stroke-linecap="round"/>
<path d="M89.314 41.9348C89.4116 41.1411 90.1547 40.2334 90.5809 39.5783C91.0685 38.8291 91.6209 38.1331 92.1143 37.3902C93.159 35.8174 94.6687 34.5968 96.0776 33.355C97.274 32.3004 98.3778 31.1237 99.5612 30.0566C99.9065 29.7453 100.189 29.2273 100.616 29.0496" stroke="#171717" stroke-width="2" stroke-linecap="round"/>
<path d="M85.0482 56.0827C85.1179 55.0853 85.1877 54.0878 85.2574 53.0904C85.3551 51.6937 85.0376 50.2277 84.5872 48.9024C83.7999 46.5857 82.5863 44.3866 80.6591 42.7958C79.606 41.9266 78.1688 41.5563 76.8609 41.2569C75.4236 40.9278 73.9723 40.6696 72.5005 40.5667C71.0502 40.4653 69.9191 41.1502 68.5601 41.5218C67.5454 41.7991 67.0795 42.3626 66.774 43.3444C66.4961 44.2376 66.3552 45.6367 66.6685 46.5365C66.9596 47.3725 67.5173 48.55 68.3021 49.037C70.4839 50.3911 72.9593 48.9261 75.0139 48.0832C76.3815 47.5221 77.586 47.143 79.073 47.115C80.6797 47.0847 82.2857 47.3857 83.7607 48.0206C84.6357 48.3973 85.3634 49.1058 85.8884 49.8815" stroke="#171717" stroke-width="2" stroke-linecap="round"/>
</svg>
