<svg width="184" height="241" viewBox="0 0 184 241" fill="none" xmlns="http://www.w3.org/2000/svg">
<path d="M117.451 239.602C105.62 240.429 97.0162 239.818 91.745 239.124C80.6319 238.608 69.5578 236.786 58.8276 233.717L45.7138 229.962C41.9293 228.884 38.9892 225.831 38.0488 221.988L15.4092 128.599C13.689 127.366 12.3158 125.648 11.5316 123.608L1.48321 97.1743C0.0454034 93.3854 0.936737 89.0727 3.74109 86.17C17.0292 72.4898 38.1862 69.9878 75.0605 67.3291L74.2514 55.7574C72.398 54.4836 68.5111 54.2341 65.0795 54.474C61.2888 54.7391 57.6661 55.5438 55.2848 56.1814C53.8478 56.5626 52.3812 56.8055 50.9148 56.9081C42.226 57.5156 34.0378 53.096 30.069 45.6548C25.2242 36.5806 27.6835 25.7326 35.7937 20.434C40.5683 17.3234 45.7471 15.5478 51.2037 15.1662C63.5436 14.3033 74.4212 20.7703 81.6318 26.6917C88.448 17.6542 103.078 1.80509 122.501 0.446936C129.075 -0.0127594 135.578 1.23666 141.817 4.16854C151.715 8.80941 156.14 20.6195 152.109 31.6376C148.758 40.7736 140.101 47.143 130.035 47.8468C128.33 47.9661 126.582 47.9179 124.864 47.7172C121.507 47.3104 116.407 46.9052 111.149 47.2728C105.563 47.6635 98.7085 48.9848 96.1078 52.9359L97.0167 65.9341C112.944 65.1913 127.764 65.2576 139.525 66.1494C154.793 67.2972 171.154 69.6115 172.057 82.53C172.086 82.939 172.154 83.9166 171.973 85.1924L171.414 112.899C171.348 115.971 170.012 118.791 167.864 120.766L169.343 201.259L172.25 201.546C178.276 202.148 183.038 206.737 183.827 212.716C184.615 218.676 181.231 224.335 175.587 226.474C157.541 233.33 139.268 237.645 121.289 239.293C119.974 239.415 118.688 239.515 117.451 239.602Z" fill="white"/>
<path d="M13.9353 92.7586C16.5157 92.5781 19.0218 91.9428 21.5937 91.7629C21.9859 91.7355 22.6535 91.5354 21.8783 91.8453C19.2488 92.8964 21.1843 90.3656 18.8225 92.0937C17.7962 92.8447 16.9986 93.8228 16.0329 94.6404C14.1507 96.2341 15.8698 97.2366 17.8568 95.8584C22.5973 92.5703 27.4687 89.57 32.1571 86.1677C33.5016 85.1921 34.8688 84.057 36.3451 83.3955C39.1578 82.1351 30.6691 85.7466 27.8789 87.0803C26.2937 87.8381 20.8419 90.933 25.8801 89.8273C31.5567 88.5816 36.6122 85.8826 41.9719 83.5388C45.0815 82.1789 35.9772 87.0206 33.2551 89.3372C31.2181 91.0708 27.6733 94.4242 32.4727 91.8202C35.7405 90.0471 38.9905 88.2632 42.3078 86.6337C43.9507 85.8267 47.1639 85.2255 48.496 83.696C52.3837 79.232 38.8919 89.2357 34.5437 92.9534C33.211 94.0928 31.9985 95.3259 30.7783 96.6419C29.8147 97.6811 33.6495 96.1089 33.7067 96.0792C42.3411 91.596 51.6842 87.7085 59.5858 81.5917C59.9426 81.3155 61.4792 80.3072 60.1418 80.4281C56.024 80.8005 50.1914 80.1661 46.5225 82.2493C39.9924 85.957 33.4658 90.4916 27.8779 96.1801C23.7183 100.415 38.1763 92.3399 43.1248 89.7717C47.8271 87.3313 52.5038 84.7837 57.1548 82.1959C58.5899 81.3974 60.0102 80.3441 61.528 79.7941C62.5874 79.4103 59.3949 80.5175 58.3666 81.0121C54.263 82.9857 50.4901 86.3207 46.8386 89.3331C44.8915 90.9394 43.0494 92.6903 41.1801 94.432C40.1342 95.4064 40.491 95.549 41.6855 95.3935C49.6981 94.3506 57.6289 88.7181 64.3138 83.459C64.455 83.3479 66.8717 81.7793 66.7553 81.3457C66.5815 80.6979 60.6299 84.5272 60.3398 84.7338C57.3204 86.8842 54.403 89.3422 51.6001 91.9141C51.195 92.2858 47.8661 95.7854 47.9679 95.7977C51.0298 96.168 55.2303 92.4532 57.7811 90.8684C62.4163 87.9884 66.9377 84.7589 71.7435 82.326C72.9687 81.7058 76.6509 79.9101 75.4945 80.709C71.7016 83.3293 67.9943 86.1442 64.2081 88.7831C60.1543 91.6085 56.0543 94.3083 52.053 97.2502C51.5291 97.6353 47.4601 99.7066 47.4174 100.744C47.3933 101.331 53.7838 98.9793 54.0965 98.8454C60.6392 96.0441 66.7578 92.1821 72.7996 88.0289C75.6919 86.0407 78.2976 83.7681 81.0252 81.4725C81.545 81.035 83.6002 79.4523 81.5436 80.056C73.7747 82.3363 67.0734 88.7508 60.4234 93.9043C60.1707 94.1001 58.2967 95.1777 59.5899 95.0872C64.5381 94.7412 69.1007 92.227 73.6122 89.9658C78.8595 87.3359 83.9694 84.5263 89.0251 81.3732C90.5602 80.4158 92.1094 79.4949 93.6474 78.545C94.0656 78.2867 95.4825 77.7954 95.789 77.2706C96.9967 75.2028 91.9967 79.1244 90.1828 80.2698C85.02 83.5299 79.7099 86.7213 74.8099 90.5722C74.1526 91.0888 66.2991 97.7688 66.5294 98.0527C66.9895 98.6201 70.035 96.8075 70.2585 96.6928C73.6518 94.9519 76.9272 92.8362 80.2023 90.7831C84.9386 87.8139 89.6861 84.9139 94.5449 82.2652C94.9067 82.068 99.1441 80.2459 99.095 79.5443C99.0643 79.1053 94.2002 81.6419 94.0301 81.7389C90.1651 83.9433 86.2172 85.8795 82.3669 88.1267C81.0125 88.9172 79.6567 89.5705 78.372 90.5276C76.6477 91.8123 82.3828 89.8376 84.3083 89.1157C92.81 85.9283 100.966 81.2377 109.358 77.6253C115.048 75.176 98.749 84.7057 93.3541 88.023C89.4781 90.4064 85.5196 92.6292 81.7514 95.2757C80.7012 96.0132 77.5988 98.1497 78.7851 97.8603C82.0601 97.0613 85.1582 95.0757 88.1979 93.4702C95.6727 89.5221 103.054 85.3461 110.441 81.1537C113.196 79.59 117.191 80.909 119.896 79.2145C122.086 77.8427 117.594 77.9674 116.844 78.3032C107.828 82.3433 99.4372 87.1496 91.2089 93.2341C90.934 93.4373 87.6695 95.5134 87.8333 96.2307C88.0842 97.33 95.1398 93.399 95.4322 93.2455C103.225 89.1539 111.077 85.25 119.046 81.7278C119.623 81.4726 120.699 81.0739 119.37 81.245C115.32 81.7666 111.223 84.1802 107.665 86.46C104.123 88.7297 100.737 91.4258 97.5446 94.4014C97.2139 94.7097 93.8062 97.2313 94.0656 98.1976C94.3345 99.1997 100.979 94.7856 101.225 94.6296C108.917 89.7596 116.461 84.5645 124.211 79.8329C127.841 77.6173 134.341 80.5398 138.127 78.7577C140.989 77.4107 132.024 79.3377 131.885 77.3537C124.02 82.7162 116.362 86.8552 108.437 92.0805C108.311 92.1634 105.961 93.5275 107.147 93.5766C110.074 93.6976 113.066 91.3917 115.62 89.9934C121.791 86.6155 127.968 83.2429 134.132 79.8549C135.292 79.217 131.74 80.924 130.588 81.5852C126.434 83.9698 122.461 86.9408 118.493 89.767C116.425 91.2393 114.312 92.6284 112.359 94.3368C110.634 95.8454 115.052 94.6337 115.283 94.5669C125.016 91.7505 134.242 84.5815 143.186 79.1706C143.392 79.0462 145.862 77.5055 144.313 78.4784C140.059 81.1502 135.877 83.8665 131.513 86.2749C128.244 88.0795 125.027 89.9034 121.876 92.0098C121.67 92.1476 118.732 94.029 119.334 94.1047C121.588 94.3882 124.302 93.2167 126.364 92.3861C131.26 90.4135 135.973 87.439 140.7 84.9168C142.769 83.8126 144.766 82.5947 146.786 81.3728C148.228 80.5003 145.522 82.1561 145.373 82.2384C141.461 84.3884 135.772 86.7538 132.832 90.8859C132.186 91.7929 134.642 91.1382 134.799 91.1062C138.614 90.3289 142.097 88.0198 145.681 86.3577C147.167 85.6684 149.576 85.1939 150.827 83.9019C152.193 82.4909 147.371 84.9723 145.744 85.8421C144.091 86.726 142.846 87.9824 141.402 89.2641C140.757 89.8368 139.916 90.4337 141.488 90.2039C143.828 89.8618 146.154 88.096 148.318 87.0424C150.516 85.9719 152.701 84.8434 154.827 83.571C155.822 82.9757 151.203 85.8658 151.283 87.0139C151.329 87.6582 157.737 83.2929 158.428 82.6547" stroke="#171717" stroke-width="2" stroke-linecap="round"/>
<path d="M21.6574 90.379C19.38 90.5382 26.2283 90.3362 28.5148 90.4618C37.3369 90.9463 46.0268 90.5153 54.8067 89.9014C57.1521 89.7373 59.4975 89.5733 61.843 89.4093C65.6494 89.1432 54.3152 90.8368 50.5101 91.122C44.4571 91.5756 38.1262 92.6739 32.0378 91.8514C29.8422 91.5547 23.3338 90.3129 25.526 90.1596C26.6951 90.0778 28.5567 91.0189 29.6131 91.3563C34.8096 93.0164 40.0076 94.5643 45.2627 95.8343C58.0955 98.9354 70.587 96.8989 83.5701 97.3424C86.8841 97.4556 90.2006 97.7989 93.5048 97.5679C95.3651 97.4378 89.7841 96.9079 89.5109 96.8503C74.0221 93.5813 58.4909 92.3833 42.7969 93.0416C42.5368 93.0525 39.5204 92.7486 40.7035 92.7279C42.4481 92.6974 44.1967 93.0866 45.928 93.385C51.7134 94.3823 57.507 95.1029 63.3221 95.4661C72.8625 96.0619 82.4207 95.792 91.92 95.1278C93.9568 94.9853 96.0148 94.9276 98.0428 94.6741C98.0573 94.6722 100.618 94.047 100.002 93.6424C98.5226 92.6702 96.0243 92.7844 94.4682 92.5469C89.7623 91.8285 85.0489 91.303 80.3295 90.8772C69.8867 89.9349 59.7028 90.0191 49.3087 90.7459C47.1596 90.8962 44.1212 91.8273 41.9827 90.7981C41.7002 90.6621 42.3631 90.1617 42.6482 90.0614C47.0284 88.5209 51.9895 88.4341 56.5021 87.9424C72.644 86.1835 88.4191 86.8371 104.631 88.0532C111.123 88.5402 118.354 89.2743 124.817 88.2008C125.78 88.041 124.989 87.6638 124.512 87.5321C122.192 86.8913 119.79 86.5804 117.446 86.1857C106.963 84.4197 96.1243 83.4428 85.6044 83.7091C79.8322 83.8553 74.071 84.4134 68.3137 84.816C66.6952 84.9292 62.2464 85.2403 66.8073 84.9213C78.7917 84.0833 90.7961 84.9733 102.812 85.1131C113.025 85.2319 123.216 84.757 133.383 83.9466C135.341 83.7906 137.78 83.2901 134.199 82.5093C121.004 79.6325 107.469 79.7026 94.2167 79.8351C81.9583 79.9577 69.7258 80.9561 57.513 81.8905C54.7522 82.1017 52.0648 83.1916 49.3514 83.3814C48.7179 83.4257 50.6235 83.487 51.2575 83.5804C55.5011 84.2056 59.7216 85.168 63.9633 85.8359C80.8475 88.4947 98.0046 90.3946 114.921 89.3785C121.106 89.007 127.297 88.5818 133.473 88.0812C134.365 88.0089 135.27 87.9522 136.104 87.5394C136.245 87.4698 133.383 87.6074 133.182 87.6159C121.113 88.1258 109.061 88.408 97.0063 89.2509C88.1302 89.8716 79.1865 89.8438 70.5625 92.4804C69.3182 92.8608 61.5575 94.5741 66.9968 94.4678C84.0279 94.1352 101.031 92.1 118.038 91.231C129.369 90.652 141.094 90.8353 152.255 88.3527C152.581 88.2801 159.117 86.6816 158.153 84.9752C157.115 83.1383 151.399 84.2358 150.057 84.2633C140.388 84.4614 130.589 85.3101 121.044 86.931C115.639 87.8489 110.362 89.5391 105.2 91.643C101.703 93.0683 105.204 92.3585 106.955 92.236C116.626 91.5598 126.192 90.7034 135.773 89.0706C140.943 88.1896 146.426 87.2336 151.238 84.6407C151.245 84.6371 153.629 83.5688 152.49 83.1729C148.4 81.7517 143.233 82.4358 139.111 82.3959C130.963 82.3171 122.83 82.6908 114.725 83.4366C112.486 83.6425 110.307 84.0263 108.109 84.5382C107.979 84.5686 105.295 85.2368 105.602 85.4292C106.944 86.2684 109.193 85.9494 110.582 86.0012C114.369 86.1422 118.156 86.1366 121.937 86.0251C129.609 85.7989 137.413 85.9697 145.011 84.7439C146.39 84.5215 149.2 84.6705 150.358 83.4498C150.57 83.2268 149.851 83.086 149.573 83.0446C147.789 82.7787 146.041 82.6688 144.26 82.2659C137.327 80.6974 130.71 79.9927 123.76 80.4787C121.067 80.667 129.164 80.9627 131.867 81.062C138.132 81.2923 144.481 81.7232 150.729 81.3534C152.25 81.2634 155.288 81.0346 155.288 81.0346C155.288 81.0346 151.23 80.5265 149.201 80.2845C140.956 79.3013 132.952 78.8874 124.706 79.4923C113.484 80.3157 102.959 83.3971 92.3035 87.5094C85.3597 90.1892 78.5315 92.5191 71.3485 94.0357C69.0281 94.5257 62.1104 96.0528 64.3332 95.1142C65.7873 94.5002 67.5108 94.5432 69.0257 94.4282C73.0011 94.1265 76.9805 93.872 80.9577 93.5938C88.2649 93.0829 95.5721 92.5719 102.879 92.0609C124.471 90.5511 59.3934 98.5355 37.937 93.6115C34.4106 92.8023 30.877 91.7967 27.3304 91.1837C25.9835 90.9508 21.9268 90.8202 23.2751 90.726C28.0332 90.3932 32.8485 90.5166 37.5779 90.1859C42.0046 89.8764 28.7247 90.805 24.2981 91.1145C23.6184 91.1621 16.0602 91.4329 19.9185 92.571C28.8436 95.2036 38.0367 94.1001 47.0324 95.506C48.5062 95.7364 49.975 96.2205 51.4569 96.1168C51.6045 96.1065 49.2478 96.2713 48.7217 96.3081C40.8539 96.8583 32.9583 96.9503 25.1031 97.4996C24.7727 97.5227 20.012 93.9085 20.1757 96.2486C19.925 97.0542 21.471 97.5069 22.1569 97.5217C24.5316 97.573 26.0191 98.3537 28.3941 98.4197C35.0521 98.6045 41.6356 98.1839 48.2628 97.7205C53.303 97.368 58.3267 96.8565 63.3801 97.149C67.1673 97.3683 70.4099 96.7714 74.116 96.0149C80.4482 94.7224 86.9322 95.1849 93.2561 94.0119C96.3813 93.4322 99.5037 93.2172 102.666 92.9961C108.229 92.6071 91.5399 93.7741 85.9769 94.1631C83.0963 94.3645 80.2157 94.5659 77.3351 94.7674C76.4825 94.827 75.1388 94.798 76.915 95.0268C85.3696 96.1156 94.2224 95.4269 102.635 94.8386C109.351 94.369 115.358 93.6161 121.464 90.0968C122.618 89.4317 125.537 89.0851 125.37 86.7052C125.257 85.0879 123.928 84.2774 122.926 83.6554C119.872 81.7598 116.325 79.9558 112.995 79.2121C109.214 78.3677 105.316 79.0079 101.547 79.2714C96.9154 79.5953 92.284 79.9192 87.6525 80.243C79.9525 80.7815 72.2346 79.0934 64.56 79.5573C60.7945 79.7849 56.9655 79.8878 53.2297 80.4519C49.1148 81.0731 45.342 83.0995 41.3185 84.1476C36.644 85.3652 31.4355 84.9328 26.981 87.0417C22.3879 89.2162 18.4066 92.8932 13.9233 95.4185C13.667 95.5629 14.8176 90.2949 13.1213 93.6342C13.6572 93.6397 17.0515 95.7408 17.5871 95.8269C22.0667 96.5472 22.5411 96.7585 27.0211 96.4453C29.4003 96.2789 31.6756 96.2903 34.0481 96.3884C34.7672 96.4182 35.3816 96.7808 36.0838 96.7317" stroke="#171717" stroke-width="2" stroke-linecap="round"/>
<path d="M100.513 229.048C105.412 228.705 110.311 228.363 115.21 228.02C116 227.965 116.791 227.909 117.581 227.854C120.502 227.65 111.74 228.271 108.815 228.4C103.85 228.618 98.0986 228.986 93.147 228.11C93.032 228.089 92.2729 227.799 92.4148 227.789C94.9985 227.608 97.5818 227.4 100.168 227.264C107.086 226.9 114.17 226.38 121.096 226.409C123.912 226.42 118.286 226.892 117.837 226.924C115.977 227.054 114.166 227.178 112.338 227.545C110.508 227.912 112.008 227.636 112.998 227.566C123.886 226.805 134.904 225.441 145.398 222.327C147.798 221.614 150.19 220.857 152.577 220.101C152.85 220.015 154.082 219.682 153.04 219.967C147.401 221.511 141.54 222.161 135.72 222.632C132.176 222.918 127.598 223.191 124.391 224.945C124.29 224.999 123.08 225.536 123.591 225.592C125.888 225.846 128.554 224.807 130.753 224.348C135.195 223.42 139.701 222.049 144.241 221.732C146.406 221.58 139.915 222.113 137.767 222.421C133.776 222.992 129.995 223.939 126.067 224.76C123.903 225.212 121.719 226.348 119.514 226.502C117.691 226.63 115.267 227.71 113.739 228.731C113.227 229.073 115.393 228.92 115.475 228.914C118.027 228.736 120.492 228.449 122.964 227.748C126.468 226.755 129.853 225.327 133.248 224.021C137.337 222.449 141.625 221.413 145.822 220.168C151.735 218.413 157.707 216.835 163.569 214.905C164.713 214.528 166.987 213.721 164.346 213.938C158.189 214.444 151.7 215.692 145.85 217.665C144.169 218.232 142.532 218.806 140.969 219.645C140.804 219.734 139.494 220.411 140.418 220.461C148.463 220.9 157.115 218.2 164.109 214.411C166.528 213.1 158.973 216.386 156.408 217.383C150.992 219.488 144.88 221.765 139.049 222.399C134.244 222.921 148.711 221.804 153.49 221.085C159.214 220.223 164.779 219.013 170.411 217.772C170.7 217.709 172.242 217.34 171.112 217.419C169.251 217.549 167.39 217.679 165.529 217.81C161.71 218.077 157.849 218.217 154.087 218.981C150.727 219.664 147.525 221.025 144.169 221.669C143.926 221.716 141.413 221.929 142.257 221.87C145.331 221.655 148.318 221.324 151.329 220.628C156.969 219.323 163.104 218.177 168.518 216.08C169.871 215.555 170.502 215.362 168.711 215.458C165.506 215.63 162.302 215.602 159.088 215.827C154.581 216.142 168.101 215.196 172.608 214.881C177.301 214.553 163.247 215.84 158.554 216.168C156.682 216.299 154.81 216.43 152.937 216.561C152.034 216.624 153.422 216.527 153.442 216.526C154.81 216.43 156.18 216.351 157.54 216.171C163.388 215.399 169.13 213.38 174.987 212.89C175.436 212.852 178.162 212.29 177.21 213.275C174.444 216.138 170.374 216.41 166.992 218.18C165.057 219.193 169.841 217.472 170.414 217.333C172.583 216.804 174.852 216.678 176.83 215.566C177.814 215.013 177.785 214.481 176.611 214.365C173.777 214.085 170.955 214.388 168.126 214.586C164.813 214.818 174.777 214.73 178.09 214.498C178.485 214.47 177.33 214.718 176.946 214.814C174.362 215.465 171.828 216.27 169.21 216.792C159.722 218.681 150.175 220.488 140.604 221.918C136.312 222.56 132.075 223.378 127.872 224.465C123.424 225.614 118.632 226.49 114.276 227.95C112.55 228.529 110.695 228.315 109.02 228.909C107.967 229.282 106.54 229.539 105.419 229.617C103.001 229.786 101.359 229.673 99.0618 229.082C97.9889 228.805 96.7179 228.401 95.6061 228.478C93.9833 228.592 98.8744 228.574 100.468 228.899C102.64 229.341 99.2454 229.441 98.7513 229.475C94.8165 229.75 94.2995 230.395 86.1968 229.44C83.8894 229.59 60.7115 223.286 58.4872 222.625" stroke="#171717" stroke-width="2" stroke-linecap="round"/>
<path d="M91.3121 40.0539C93.7352 39.7623 96.0773 37.7725 98.1109 36.5715C101.201 34.7468 104.585 33.3871 107.845 31.9002C113.396 29.3683 119.518 30.8406 125.136 28.8355C125.845 28.5825 129.222 27.799 129.407 26.9272C129.754 25.2843 127.88 23.7386 126.799 22.8841C123.299 20.119 118.912 19.8555 114.723 21.0793C112.047 21.8609 109.667 23.4244 107.556 25.2134C106.643 25.9869 105.544 27.0256 105.115 28.1898C104.905 28.7602 105.849 28.5723 106.113 28.556C109.005 28.3778 111.937 28.2552 114.803 27.8142C117.508 27.3979 120.254 26.7029 122.763 25.592C123.647 25.2005 125.02 24.5917 125.43 23.6058C125.628 23.1271 124.853 22.9659 124.544 22.93C121.065 22.5262 117.116 23.4267 113.794 24.263C107.186 25.9267 101.038 28.7977 95.1168 32.1195C93.3565 33.107 91.1386 34.1774 89.7328 35.693C89.5355 35.9057 90.3309 35.712 90.5981 35.5989C94.7434 33.8458 98.7367 31.722 102.66 29.5241C105.637 27.856 108.651 26.1794 111.468 24.2468C111.54 24.1974 113.84 22.7409 113.058 22.6824C109.928 22.4485 106.432 24.4048 103.865 25.9745C102.953 26.5318 101.636 27.7212 103.227 26.455C103.281 26.4128 103.809 26.025 103.473 25.9684C102.472 25.7997 101.126 26.9179 100.401 27.4352C98.2259 28.9862 95.7499 30.5639 93.9157 32.5277C92.619 33.9161 91.1619 35.882 90.3354 37.5959C90.0638 38.159 90.6123 36.3246 91.0181 35.849C93.2238 33.2641 95.4302 30.6882 97.5945 28.0674C99.5502 25.6991 101.326 23.0896 103.668 21.081C105.547 19.4693 107.599 18.5653 109.865 17.6295C114.21 15.8357 118.434 15.0182 123.096 14.6922C126.178 14.4767 128.923 14.895 131.693 16.3044C133.98 17.4678 135.364 19.7254 135.541 22.2616C135.693 24.4372 134.026 27.8595 131.924 28.7185C129.064 29.8869 125.219 29.774 122.307 28.9886C118.78 28.0374 115.798 25.8327 112.374 24.7423C112.106 24.6567 110.321 23.9753 110.135 24.3624C109.996 24.6497 109.772 24.7757 109.479 24.9001C108.298 25.4021 107.139 25.8297 106.062 26.5475C103.673 28.1394 101.258 29.9107 99.3626 32.0909C98.8 32.7381 98.5289 33.552 98.0604 34.2499C97.6917 34.7991 100.193 34.0151 100.401 33.9857C106.239 33.1563 112.119 32.5627 118.001 32.1513C121.445 31.9105 124.347 33.1303 127.688 33.6872C129.539 33.9958 131.46 33.7365 133.111 32.9056C133.853 32.5322 134.429 32.0861 134.871 31.3741C135.49 30.3774 136.612 29.4699 137.055 28.4044C137.57 27.1659 136.737 25.7764 136.355 24.6304C135.933 23.362 135.118 21.9583 135.023 20.6099C134.982 20.0124 132.882 19.0899 132.439 18.8232C131.202 18.0781 129.971 17.3232 128.748 16.555C128.44 16.3615 127.736 15.8209 128.565 16.1654C131.068 17.2056 133.352 18.8593 135.749 20.1232C135.975 20.2419 137.914 21.6335 137.424 21.0457C134.955 18.0862 132.273 14.4463 128.737 12.7105C127.277 11.9943 125.049 12.1696 123.462 12.2521C121.85 12.3359 123.727 12.2034 124.282 12.3066C126.013 12.6285 127.726 12.9438 129.475 13.1954C131.33 13.4624 134.205 13.5747 135.636 14.9779C137.354 16.6637 138.606 18.3202 139.296 20.6465C139.877 22.6035 140.407 25.0483 139.278 26.9411C138.571 28.126 137.178 28.8045 135.859 29.0469C132.961 29.5799 130.824 27.7849 128.82 25.895C127.004 24.183 125.278 22.3746 123.489 20.634C122.617 19.7855 121.336 18.9561 120.579 18.0205C120.129 17.4646 121.922 18.5118 122.588 18.7743C125.036 19.7402 127.543 20.5431 129.99 21.5208C131.504 22.1258 133.002 22.7374 134.482 23.42C134.813 23.5725 135.731 24.1197 134.897 23.5922C133.463 22.6864 132.156 21.5743 130.775 20.594C128.826 19.2116 126.755 18.04 124.759 16.7334C124.709 16.7008 123.468 15.8617 123.673 15.9039C124.589 16.0927 125.505 16.3162 126.421 16.5166C128.16 16.8975 129.89 17.2753 131.568 17.8781C131.62 17.8965 133.214 18.5142 133.137 18.5732C132.614 18.9771 130.506 18.1708 130.082 18.049C126.728 17.0857 123.364 16.0227 120.05 14.9276C118.769 14.5045 117.491 13.8555 116.157 13.6125C115.609 13.5127 116.323 13.5561 116.51 13.5431C118.947 13.3726 121.358 13.2584 123.798 13.2235C125.357 13.2012 124.357 12.8726 123.388 12.4697C120.971 11.4657 118.495 12.6143 116.099 13.27C110.791 14.7232 105.797 17.1644 101.69 20.9287C101.183 21.3927 101.852 21.2138 102.232 21.1702C104.306 20.9323 106.374 20.6593 108.452 20.4446C114.329 19.8377 120.877 18.8929 126.645 20.6816C126.871 20.7519 130.56 22.2978 129.338 22.5836C127.436 23.0282 124.961 22.4271 123.069 22.2954C118.077 21.9481 113.075 21.6967 108.076 21.4658C106.605 21.3978 102.192 21.4078 103.661 21.3051C105.731 21.1603 108.037 21.6519 110.058 21.9868C115.377 22.868 121.213 23.7014 126.127 26.061C128.077 26.9978 123.113 26.1299 122.818 26.0688C121.293 25.7532 119.761 25.4128 118.252 25.0244C117.28 24.7744 120.215 25.4717 121.148 25.8391C123.563 26.7901 126.363 27.8153 128.462 29.4077C129.231 29.991 127.489 29.9541 127.337 29.9447C125.143 29.809 122.947 29.2664 120.773 28.9505C119.644 28.7865 118.522 28.5795 117.393 28.4155C116.848 28.3363 118.604 28.6847 118.734 28.7242C120.331 29.2105 121.89 29.8157 123.32 30.6839C123.499 30.7926 124.913 31.5274 124.856 31.8732C124.825 32.0661 111.822 30.3541 110.827 30.2609C107.762 29.9737 104.786 29.9656 101.725 30.0701C101.212 30.0876 103.139 29.8531 103.618 29.9601C106.91 30.6952 109.979 32.0551 113.234 32.8759C117.824 34.0334 122.252 34.0674 126.91 33.7417C128.952 33.5989 135.107 33.318 134.898 30.3215C134.787 28.7397 135.347 27.519 136.381 26.2829C137.423 25.0384 136.736 23.5194 136.949 22.0961C137.047 21.442 137.81 22.691 137.831 22.7163C138.62 23.6617 139.376 24.6554 140.083 25.6664C140.614 26.4252 141.121 28.228 140.437 28.9728C139.794 29.6732 138.363 29.7624 137.515 30.1832C136.812 30.5318 136.017 30.7557 135.36 31.1834C134.415 31.7984 133.619 32.6171 132.676 33.2379C132.512 33.3461 131.543 33.8201 131.721 33.8077C132.224 33.7725 132.345 33.482 132.72 33.2347C134.091 32.3322 136.015 31.6725 136.9 30.1814C137.296 29.5143 137.357 28.8353 137.674 28.1487C138.177 27.0623 138.69 25.9849 138.939 24.8074C139.213 23.5105 140.687 19.9952 138.403 19.8705C137.636 19.8286 137.469 20.7289 137.285 21.3013C136.818 22.7548 136.012 24.0989 134.835 25.1056C133.7 26.0753 132.004 25.9186 130.619 26.0376C129.101 26.1679 128.962 26.3319 127.701 25.2355" stroke="#FFD424" stroke-width="2" stroke-linecap="round"/>
<path d="M161.012 83.0731C161.433 89.0952 117.017 97.1068 87.1789 99.1932C45.981 102.074 12.2422 99.5276 11.8211 93.5055C22.9774 81.7681 44.4561 80.2662 85.654 77.3853C126.852 74.5045 160.591 77.051 161.012 83.0731Z" stroke="#171717" stroke-width="2" stroke-linecap="round"/>
<path d="M11.793 93.6718L21.7246 119.432L49.6034 121.518C86.7634 124.299 124.13 121.238 160.342 112.447V112.447L160.931 83.2431" stroke="#171717" stroke-width="2" stroke-linecap="round" stroke-linejoin="round"/>
<path d="M24.7031 120.329L48.6725 219.164L61.7803 222.916C94.0467 232.15 128.617 228.78 158.492 213.488V213.488L156.665 113.793" stroke="#171717" stroke-width="2" stroke-linecap="round" stroke-linejoin="round"/>
<path d="M87.2883 85.3384L84.8686 50.7357M84.8686 50.7357V50.7357C84.4885 45.2999 85.5772 39.8021 88.7008 35.3372C98.7803 20.93 117.086 4.52069 137.067 13.903C142.105 16.2684 143.612 22.4088 141.699 27.635V27.635C139.403 33.9104 132.734 37.3691 126.1 36.5676C110.257 34.6533 89.7622 36.0371 84.8686 50.7357Z" stroke="#171717" stroke-width="2" stroke-linecap="round" stroke-linejoin="round"/>
<path d="M86.819 78.7037L84.9259 51.6299M84.9259 51.6299V51.6299C84.6369 47.4972 83.2355 43.4732 80.4113 40.4422C71.2983 30.6618 55.78 20.2445 41.7293 29.4225C38.1871 31.7364 37.7023 36.5188 39.6951 40.2511V40.2511C42.088 44.7328 47.4746 46.6312 52.3846 45.3257C64.1097 42.2082 79.6863 41.0814 84.9259 51.6299Z" stroke="#171717" stroke-width="2" stroke-linecap="round" stroke-linejoin="round"/>
<path d="M86.3432 43.5924C91.2834 35.3945 104.961 18.8334 120.152 18.1721" stroke="#171717" stroke-width="2" stroke-linecap="round"/>
<path d="M14.0197 95.9938C14.1636 98.0523 14.0583 100.368 14.8415 102.275C15.801 104.612 16.8713 107.065 18.2534 109.114C20.0671 111.803 21.225 114.772 22.7318 117.627C24.5666 121.104 29.5664 120.583 32.6441 120.754C35.8386 120.931 39.0192 121.471 42.2044 121.481C44.6818 121.489 47.2419 121.147 49.7166 121.293C52.1818 121.438 54.6411 121.201 57.1012 121.306C58.7391 121.377 60.2627 121.647 61.9212 121.531C63.0746 121.45 63.9693 121.841 65.0934 121.903C68.4236 122.087 71.8339 123.265 75.1453 123.784C78.47 124.304 81.5494 124.78 84.8924 124.547C85.7855 124.484 86.5097 124.054 87.4542 124.095C92.0064 124.29 96.4895 124.024 101.032 123.707C104.822 123.442 108.612 123.466 112.405 123.2C115.579 122.978 118.273 121.245 121.18 119.987C126.519 117.676 131.849 117.797 137.453 117.405C140.245 117.209 142.864 116.449 145.649 116.254C148.277 116.07 150.905 115.886 153.533 115.703C155.26 115.582 156.859 114.494 158.353 113.504C159.107 113.005 159.85 112.783 160.216 111.769C160.787 110.186 160.228 107.487 160.113 105.838C159.587 98.3094 161.62 90.9117 161.095 83.3984" stroke="#171717" stroke-width="2" stroke-linecap="round"/>
<path d="M24.2266 121.585C25.5004 139.801 33.3678 156.664 37.737 174.166C38.5281 177.336 40.1918 180.332 40.7331 183.531C41.4645 187.853 42.576 192.793 43.9107 196.977C45.7386 202.708 47.6456 208.723 48.0729 214.833C48.2761 217.739 49.4707 217.698 51.6395 218.59C54.623 219.817 57.5727 221.2 60.5459 222.445C63.7597 223.79 67.4096 223.937 70.7934 224.644C76.9618 225.934 83.0888 227.015 89.1139 229.196C96.9177 232.021 105.753 230.419 113.744 229.86C121.756 229.3 128.183 221.86 136.073 221.052C141.202 220.526 148.159 217.649 153.049 216.049C154.356 215.621 157.443 214.74 158.011 213.345C158.674 211.714 158.058 214.014 157.93 212.188C157.751 209.632 158.969 206.953 158.785 204.322C158.582 201.428 158.84 198.421 158.632 195.436C158.241 189.847 157.85 184.257 157.459 178.668C157.124 173.872 156.344 168.689 156.928 164.005C157.529 159.183 158.972 153.434 158.628 148.509C157.838 137.208 157.48 125.399 156.677 113.914" stroke="#171717" stroke-width="2" stroke-linecap="round"/>
<path d="M86.3212 84.3796C85.8677 77.8936 86.3798 78.7616 85.9374 72.4347C85.654 68.3811 86.7182 64.2315 86.431 60.1253C86.1121 55.5649 85.7932 51.0046 85.4743 46.4442C85.1701 42.0928 87.2272 37.6441 89.3794 34.1417C92.2119 29.5322 95.5166 25.3909 99.3185 21.69C102.503 18.5902 106.496 17.065 110.104 14.5256C111.605 13.4687 112.728 13.1146 114.511 12.9899C115.822 12.8982 119.241 12.594 120.3 11.8486C121.723 10.8468 124.942 11.2785 126.598 11.1628C129.13 10.9857 131.652 10.7684 134.061 11.732C137.417 13.074 140.702 15.0114 142.553 18.394C143.822 20.7136 145.931 26.2315 144.196 28.972C142.599 31.4943 140.111 34.84 137.076 35.4709C135.606 35.7765 134.385 36.6411 132.651 36.7623C130.759 36.8947 128.763 36.5432 127.002 36.6664C125.113 36.7984 123.251 35.4557 121.308 35.5915C118.819 35.7656 116.229 34.9647 113.777 35.1361C111.39 35.3031 109.002 35.4701 106.614 35.637C104.094 35.8133 102.533 37.1533 100.237 38.047C98.4087 38.7582 96.4925 39.9087 94.7917 40.8827C92.9752 41.923 90.2187 42.5509 88.6919 44.037C88.206 44.5101 85.1117 47.2159 85.0994 47.1797" stroke="#171717" stroke-width="2" stroke-linecap="round"/>
<path d="M85.7064 46.919C85.5055 44.0462 88.9953 41.2044 90.608 39.184C92.3613 36.9874 94.3438 35.2455 96.3989 33.4054C98.2049 31.7882 99.4695 29.5023 101.306 27.9067C106.651 23.264 113.8 19.4226 120.769 18.9353" stroke="#171717" stroke-width="2" stroke-linecap="round"/>
<path d="M57.4434 35.0441C56.9028 35.1571 56.5563 35.687 56.6693 36.2276C56.7824 36.7682 57.3123 37.1148 57.8529 37.0017L57.4434 35.0441ZM57.8529 37.0017C59.6672 36.6222 62.1582 36.6864 64.9481 37.1385C67.7213 37.5879 70.717 38.4086 73.5093 39.484C76.3067 40.5614 78.8614 41.8797 80.773 43.3061C82.7214 44.7599 83.8356 46.2015 84.0728 47.4788L86.0392 47.1136C85.6609 45.0765 84.0342 43.2441 81.9691 41.7032C79.8674 40.1349 77.1361 38.7377 74.2282 37.6177C71.3152 36.4957 68.1861 35.6371 65.268 35.1643C62.3667 34.6941 59.6001 34.593 57.4434 35.0441L57.8529 37.0017Z" fill="#171717"/>
<path d="M83.9697 45.4532C82.7794 43.4377 81.1024 41.6801 79.2372 40.2684C77.8811 39.242 76.5088 37.8884 74.9922 37.1012C73.1649 36.1529 71.0455 35.1149 69.4823 33.7561C68.2112 32.6511 67.5963 30.3012 66.0653 29.665C63.6164 28.6474 61.6343 27.128 58.8233 27.0804C56.0996 27.0343 53.5529 26.956 50.7943 27.1489C48.4888 27.3101 46.7405 28.2393 44.6979 29.134C43.9369 29.4673 43.3216 29.8716 42.6214 30.3051C42.1038 30.6255 42.0655 31.2295 41.6346 31.6265C41.1715 32.0532 41.117 33.0774 40.9366 33.6471C40.521 34.9594 40.387 36.0767 40.483 37.4493C40.6729 40.1646 40.991 42.6774 42.0385 45.2144C42.6476 46.6895 45.8295 46.9212 47.1344 46.8299C49.5633 46.6601 52.1925 46.7762 54.5121 46.0209C55.5504 45.6828 56.5594 45.2608 57.5441 44.7964C58.4507 44.3687 59.6516 44.5498 60.6242 44.2612C65.8336 42.7153 71.4092 43.7247 76.4648 45.2053C78.138 45.6953 79.7173 46.4002 81.3787 46.8868C81.9033 47.0404 82.2549 47.4692 82.6045 47.8403C83.2591 48.5352 84.6244 48.823 84.9861 49.6989" stroke="#171717" stroke-width="2" stroke-linecap="round"/>
</svg>
