<svg width="203" height="253" viewBox="0 0 203 253" fill="none" xmlns="http://www.w3.org/2000/svg">
<g filter="url(#filter0_dd_3008_23712)">
<path d="M97.1565 70.4916C115.949 69.9668 133.628 70.4825 147.283 71.9927L147.284 71.9928C158.825 73.2718 165.349 74.9879 169.107 76.9272C171.051 77.9307 172.617 79.1755 173.625 80.7994C174.705 82.5387 174.76 84.1231 174.78 84.6961L174.78 84.7083L174.782 84.7418C174.791 85.0062 174.817 85.6964 174.629 86.5725L173.082 114.568C173.082 114.571 173.082 114.573 173.081 114.576M97.1565 70.4916L168.089 114.3L173.081 114.576M97.1565 70.4916C96.713 67.5114 96.5155 64.1796 96.794 60.7128C96.8113 60.6998 96.8333 60.684 96.861 60.6656C96.9968 60.5754 97.2295 60.4476 97.6413 60.2761C98.0676 60.0985 98.5477 59.9288 99.2186 59.6938L99.2263 59.6911C99.2939 59.6673 99.3637 59.6428 99.4356 59.6176C100.806 59.1372 102.933 58.3916 104.852 56.9933L104.986 56.8956L105.113 56.7893L105.201 56.7162L105.305 56.6293L105.404 56.5369C111.204 51.132 112.682 44.524 110.748 39.6461L110.745 39.6383L110.742 39.6304C109.28 35.9783 105.93 33.3743 101.715 33.4089C99.838 33.4203 97.2417 34.0126 94.6005 36.147C92.0218 38.2308 89.6705 41.5628 87.7583 46.6045C86.3108 50.4036 85.3734 54.4621 84.943 58.6309L84.9427 58.6336C84.5005 62.9399 84.626 67.104 85.0928 70.9126C67.7839 71.5375 54.0662 72.1864 43.2569 73.8938C31.2289 75.7937 21.9982 79.1102 15.1236 85.8569C15.1214 85.8591 15.1192 85.8613 15.117 85.8635L14.8104 86.1623L13.2267 87.7064L13.3039 89.9169L13.3048 89.9448C13.2606 90.5649 13.3042 91.2935 13.5412 92.0737C13.6372 92.4655 13.7769 92.8969 13.9827 93.3501L22.6388 118.355C23.2241 120.067 24.5138 121.342 26.0703 121.972L45.8925 218.235L45.8941 218.242C46.3129 220.26 47.7797 222.046 49.9254 222.733C49.9362 222.737 49.9469 222.74 49.9577 222.744L62.8768 226.939L62.8807 226.94C69.1902 228.983 81.6369 231.2 93.9519 232.837C106.299 234.479 119.272 235.637 126.709 235.378C127.905 235.336 129.153 235.282 130.45 235.206C148.045 234.21 166.004 230.612 183.818 224.549C184.032 224.476 184.238 224.39 184.436 224.292C187.579 222.941 189.506 219.765 189.183 216.298C188.826 212.44 185.862 209.671 182.274 209.176L182.137 209.157L182 209.146L167.833 207.985M173.081 114.576C172.95 116.959 171.432 118.982 169.293 119.828M173.081 114.576L169.293 119.828M169.293 119.828L169.359 115.884L167.424 115.852L167.422 115.852L164.359 115.801C164.754 115.722 165.151 115.647 165.549 115.571C166.13 115.46 166.713 115.349 167.291 115.228L169.293 119.828ZM169.293 119.828L167.833 207.985M167.833 207.985L163.164 207.603L162.756 212.586L167.755 212.669L167.833 207.985Z" fill="white" stroke="white" stroke-width="10"/>
<path d="M21.462 89.2458C24.0471 89.1555 26.5738 88.608 29.1505 88.518C29.5434 88.5043 30.2176 88.3276 29.4321 88.6102C26.7674 89.569 28.7901 87.1073 26.3695 88.7519C25.3176 89.4666 24.4863 90.4162 23.4926 91.1996C21.5559 92.7267 23.239 93.7885 25.2729 92.4806C30.1253 89.3599 35.0984 86.5315 39.9027 83.2949C41.2804 82.3667 42.6865 81.28 44.1849 80.6704C47.0399 79.5091 38.4303 82.8221 35.5953 84.0576C33.9845 84.7596 28.4281 87.6623 33.5018 86.7332C39.2185 85.6863 44.3651 83.1654 49.8033 81.01C52.9585 79.7595 43.6907 84.2806 40.8895 86.5007C38.7932 88.1621 35.1335 91.3898 40.0209 88.9549C43.3486 87.2969 46.6588 85.6275 50.031 84.1148C51.7011 83.3657 54.9332 82.877 56.3179 81.3949C60.3591 77.0693 46.5263 86.596 42.0511 90.1597C40.6794 91.2519 39.4246 92.4419 38.1592 93.7145C37.1599 94.7194 41.0473 93.2821 41.1054 93.2544C49.8911 89.0752 59.3642 85.5161 67.4744 79.6788C67.8406 79.4153 69.4115 78.4612 68.0707 78.5354C63.9424 78.7638 58.1355 77.9262 54.3961 79.8801C47.7406 83.3577 41.0597 87.6618 35.2767 93.1518C30.9718 97.2384 45.7028 89.6734 50.7379 87.2794C55.5225 85.0046 60.2853 82.6217 65.0238 80.1979C66.4859 79.45 67.9421 78.4468 69.4782 77.9502C70.5503 77.6035 67.3211 78.5987 66.2762 79.057C62.1062 80.8863 58.2192 84.0876 54.4648 86.9707C52.4628 88.508 50.5608 90.1936 48.6318 91.869C47.5525 92.8063 47.9042 92.9612 49.1033 92.8475C57.1475 92.0849 65.27 86.7327 72.1344 81.71C72.2794 81.604 74.7493 80.1206 74.6482 79.6832C74.497 79.0298 68.4154 82.649 68.1183 82.8453C65.0257 84.8891 62.0243 87.2438 59.1334 89.7162C58.7155 90.0736 55.2665 93.4549 55.3678 93.4707C58.4149 93.9477 62.7425 90.3818 65.3471 88.8869C70.08 86.1705 74.7113 83.1007 79.5991 80.837C80.8452 80.2599 84.5878 78.5938 83.4042 79.3519C79.5222 81.8382 75.7189 84.522 71.8429 87.0272C67.6929 89.7094 63.5013 92.2645 59.3997 95.0649C58.8627 95.4316 54.7238 97.3596 54.6451 98.3947C54.6005 98.9806 61.0691 96.8534 61.3863 96.7305C68.0228 94.1592 74.2724 90.5132 80.4555 86.5733C83.4154 84.6873 86.0989 82.507 88.9049 80.308C89.4396 79.8889 91.5489 78.3788 89.4724 78.9104C81.6287 80.9182 74.7076 87.095 67.8818 92.0132C67.6224 92.2001 65.712 93.2116 67.0075 93.1663C71.9648 92.9932 76.6123 90.6398 81.2 88.5374C86.5359 86.0922 91.7407 83.4627 96.9034 80.4879C98.4709 79.5847 100.051 78.7184 101.622 77.8227C102.049 77.5792 103.482 77.1376 103.806 76.6238C105.085 74.5995 99.9516 78.3442 98.0989 79.4256C92.8254 82.5035 87.4072 85.5076 82.3758 89.1853C81.7009 89.6785 73.619 96.0804 73.8393 96.3722C74.2793 96.9553 77.3862 95.25 77.6135 95.1433C81.0656 93.5218 84.4128 91.5218 87.7576 89.5841C92.5947 86.7821 97.4404 84.0495 102.389 81.5721C102.757 81.3876 107.056 79.7144 107.031 79.0116C107.016 78.5718 102.066 80.937 101.893 81.0281C97.953 83.0963 93.9399 84.8935 90.0135 87.005C88.6324 87.7477 87.2547 88.3533 85.9373 89.265C84.1692 90.4887 89.9697 88.7153 91.9192 88.0611C100.527 85.1723 108.842 80.7692 117.354 77.4519C123.127 75.2027 106.505 84.1578 100.998 87.2848C97.0408 89.5314 93.0072 91.6148 89.1489 94.1281C88.0736 94.8285 84.8986 96.8554 86.0943 96.6076C89.3951 95.9234 92.5607 94.0471 95.6545 92.5487C103.263 88.8638 110.785 84.948 118.314 81.0159C121.122 79.5494 125.068 81.007 127.831 79.4079C130.067 78.1134 125.574 78.0812 124.813 78.3907C115.661 82.1136 107.108 86.6242 98.6719 92.4178C98.3901 92.6113 95.0552 94.5722 95.1938 95.2948C95.4062 96.4022 102.595 92.7198 102.892 92.5766C110.823 88.7594 118.807 85.132 126.893 81.89C127.479 81.6551 128.569 81.2942 127.235 81.4188C123.169 81.7988 118.99 84.0679 115.355 86.2221C111.735 88.3668 108.257 90.9431 104.963 93.8055C104.622 94.1021 101.128 96.5032 101.354 97.478C101.587 98.4889 108.382 94.3094 108.634 94.1621C116.49 89.5635 124.211 84.6348 132.122 80.1765C135.826 78.0889 142.22 81.2365 146.067 79.5876C148.974 78.3414 139.947 79.9543 139.878 77.9666C131.83 83.0514 124.032 86.9206 115.929 91.8662C115.801 91.9446 113.405 93.2259 114.588 93.3163C117.509 93.5393 120.58 91.3393 123.182 90.031C129.467 86.8705 135.758 83.7156 142.036 80.5448C143.218 79.9477 139.608 81.5297 138.434 82.1504C134.198 84.3885 130.124 87.219 126.06 89.905C123.943 91.3043 121.782 92.6188 119.77 94.2579C117.994 95.7054 122.451 94.6487 122.685 94.5899C132.51 92.115 141.981 85.2723 151.108 80.1769C151.318 80.0597 153.84 78.6062 152.259 79.5244C147.914 82.0461 143.64 84.6148 139.195 86.8694C135.864 88.5588 132.586 90.2694 129.363 92.2645C129.152 92.395 126.15 94.1727 126.749 94.2694C128.992 94.6314 131.746 93.5554 133.835 92.7973C138.797 90.9967 143.611 88.1885 148.423 85.8327C150.53 84.8015 152.568 83.654 154.629 82.5033C156.101 81.6817 153.339 83.242 153.186 83.3191C149.202 85.3313 143.434 87.4967 140.351 91.5236C139.675 92.4076 142.152 91.839 142.31 91.8124C146.15 91.1688 149.711 88.9827 153.35 87.4467C154.86 86.8096 157.284 86.4195 158.579 85.1719C159.993 83.8094 155.088 86.1211 153.432 86.9335C151.749 87.7592 150.461 88.9715 148.973 90.202C148.309 90.7518 147.447 91.3189 149.026 91.1442C151.377 90.8839 153.763 89.2004 155.962 88.223C158.196 87.2298 160.42 86.1782 162.589 84.9809C163.603 84.4207 158.887 87.1478 158.927 88.298C158.95 88.9434 165.506 84.8044 166.219 84.1907" stroke="#171717" stroke-width="2" stroke-linecap="round"/>
<path d="M29.262 87.1371C26.9804 87.2168 33.8317 87.2539 36.1124 87.4592C44.9121 88.2512 53.6118 88.1238 62.4077 87.8166C64.7575 87.7346 67.1072 87.6525 69.4569 87.5705C73.2703 87.4373 61.8839 88.7344 58.0712 88.8866C52.0061 89.1287 45.6407 90.0054 39.5847 88.9708C37.4008 88.5977 30.9397 87.1295 33.1359 87.0528C34.3071 87.0119 36.1348 88.0173 37.1787 88.3915C42.3142 90.2319 47.4549 91.9603 52.6626 93.4129C65.3793 96.9599 77.9342 95.3606 90.8939 96.2569C94.202 96.4857 97.5045 96.9446 100.815 96.829C102.678 96.7639 97.1193 96.0396 96.8484 95.9725C81.483 92.165 66.0031 90.4257 50.2957 90.5359C50.0353 90.5377 47.0315 90.1287 48.2145 90.1493C49.9592 90.1797 51.693 90.6296 53.4129 90.9883C59.1599 92.1869 64.9249 93.1092 70.7238 93.6751C80.2376 94.6035 89.7994 94.6674 99.3161 94.3351C101.357 94.2638 103.415 94.2779 105.451 94.0953C105.466 94.094 108.047 93.5586 107.445 93.1327C106 92.1094 103.5 92.1364 101.953 91.8447C97.2748 90.9626 92.5827 90.2729 87.881 89.6826C77.4774 88.3764 67.2968 88.1051 56.8837 88.4688C54.7306 88.544 51.6616 89.3685 49.5603 88.2653C49.2827 88.1195 49.9627 87.6425 50.2511 87.5523C54.6824 86.1656 59.6435 86.252 64.1705 85.918C80.3639 84.7236 96.1067 85.9273 112.266 87.7084C118.737 88.4217 125.939 89.4077 132.435 88.5605C133.403 88.4343 132.625 88.0297 132.153 87.8815C129.857 87.1601 127.467 86.7656 125.139 86.2894C114.724 84.1585 103.926 82.804 93.4028 82.703C87.629 82.6476 81.8519 83.0043 76.084 83.2057C74.4625 83.2624 70.0056 83.418 74.5749 83.2584C86.5813 82.8392 98.5473 84.1476 110.551 84.7066C120.754 85.1818 130.955 85.0629 141.144 84.6078C143.106 84.5202 145.562 84.1051 142.01 83.1998C128.923 79.8643 115.394 79.462 102.145 79.1319C89.8899 78.8266 77.63 79.3975 65.392 79.9051C62.6255 80.0198 59.9017 81.0153 57.1834 81.1102C56.5487 81.1324 58.451 81.2602 59.0813 81.3756C63.3005 82.1486 67.4849 83.2576 71.7007 84.0732C88.4818 87.3196 105.562 89.8171 122.504 89.3921C128.698 89.2366 134.9 89.0278 141.09 88.743C141.984 88.7019 142.89 88.6767 143.738 88.2933C143.881 88.2287 141.017 88.2664 140.815 88.2679C128.736 88.3562 116.681 88.2176 104.604 88.6394C95.712 88.9499 86.7747 88.6099 78.064 90.9439C76.8071 91.2807 68.9914 92.7221 74.4311 92.8058C91.4635 93.0677 108.528 91.6271 125.554 91.3522C136.898 91.169 148.61 91.7614 159.85 89.6698C160.179 89.6087 166.767 88.2392 165.863 86.5002C164.89 84.6283 159.139 85.5255 157.796 85.5061C148.127 85.3668 138.304 85.873 128.708 87.1598C123.275 87.8885 117.942 89.3934 112.71 91.316C109.165 92.6184 112.689 92.0311 114.443 91.9698C124.131 91.6315 133.721 91.1095 143.354 89.8121C148.551 89.112 154.064 88.348 158.964 85.9246C158.971 85.9213 161.391 84.9368 160.266 84.5014C156.228 82.9383 151.041 83.4416 146.922 83.2579C138.782 82.8948 130.641 82.9845 122.515 83.4469C120.271 83.5746 118.079 83.8821 115.865 84.3169C115.733 84.3428 113.028 84.917 113.329 85.1199C114.64 86.0054 116.899 85.7652 118.285 85.8653C122.065 86.1384 125.85 86.265 129.632 86.2856C137.307 86.3272 145.101 86.7702 152.737 85.8104C154.123 85.6362 156.926 85.8833 158.126 84.7037C158.345 84.4882 157.632 84.3225 157.356 84.2713C155.582 83.9434 153.839 83.7725 152.073 83.3077C145.199 81.4983 138.61 80.563 131.648 80.8062C128.95 80.9004 137.032 81.4785 139.73 81.6721C145.983 82.1208 152.313 82.7731 158.57 82.6215C160.093 82.5847 163.137 82.462 163.137 82.462C163.137 82.462 159.1 81.8126 157.08 81.4999C148.875 80.2297 140.89 79.5366 132.628 79.8534C121.383 80.2846 110.758 82.9968 99.9652 86.7347C92.9321 89.1706 86.0268 91.2608 78.7952 92.5258C76.4591 92.9344 69.4923 94.2192 71.7466 93.3588C73.2212 92.7959 74.9422 92.899 76.4601 92.837C80.4437 92.6742 84.4295 92.5587 88.414 92.4195C95.7346 92.1639 103.055 91.9082 110.376 91.6526C132.007 90.8972 66.6904 96.6056 45.4189 90.9358C41.9229 90.004 38.4266 88.8757 34.9035 88.1392C33.5655 87.8596 29.5158 87.5875 30.8666 87.5403C35.6334 87.3738 40.4414 87.6652 45.1796 87.4997C49.6143 87.3449 36.3102 87.8095 31.8754 87.9643C31.1945 87.9881 23.6315 87.9951 27.4477 89.2671C36.2755 92.2096 45.5014 91.4276 54.4426 93.1466C55.9075 93.4282 57.3585 93.9633 58.8431 93.9114C58.991 93.9063 56.6299 93.9887 56.1029 94.0071C48.2207 94.2824 40.3267 94.0988 32.4571 94.3736C32.1261 94.3851 27.4945 90.607 27.5763 92.9514C27.2977 93.7477 28.827 94.2542 29.5119 94.2929C31.8834 94.427 33.3427 95.2592 35.714 95.408C42.3615 95.8251 48.9557 95.6345 55.595 95.4026C60.6444 95.2263 65.6829 94.8904 70.723 95.3591C74.5002 95.7104 77.7617 95.227 81.492 94.6003C87.8654 93.5296 94.3293 94.2181 100.69 93.2665C103.834 92.7963 106.962 92.6903 110.13 92.5797C115.703 92.3851 98.9834 92.9689 93.4102 93.1636C90.5244 93.2643 87.6385 93.3651 84.7526 93.4659C83.8984 93.4957 82.5566 93.4199 84.3238 93.7105C92.7352 95.0937 101.607 94.7144 110.035 94.42C116.763 94.1851 122.793 93.6423 129.018 90.3382C130.195 89.7139 133.123 89.4693 133.04 87.0851C132.983 85.4648 131.684 84.6085 130.704 83.9519C127.717 81.9508 124.236 80.0241 120.934 79.1647C117.185 78.1888 113.266 78.6925 109.49 78.8244C104.85 78.9864 100.211 79.1484 95.5707 79.3105C87.8565 79.5799 80.2022 77.6235 72.5161 77.8193C68.745 77.9154 64.9147 77.8845 61.1615 78.3179C57.0274 78.7951 53.1863 80.6886 49.1286 81.5956C44.4145 82.6494 39.2242 82.0354 34.6989 83.9876C30.0327 86.0005 25.9254 89.5363 21.3567 91.9036C21.0956 92.0389 22.4293 86.8144 20.6175 90.0924C21.1529 90.1166 24.4718 92.3349 25.004 92.4396C29.4558 93.3158 29.9225 93.5436 34.4108 93.3868C36.7943 93.3036 39.0678 93.3945 41.4354 93.5753C42.1531 93.6301 42.7544 94.014 43.4579 93.9894" stroke="#171717" stroke-width="2" stroke-linecap="round"/>
<path d="M103.232 228.473C108.14 228.302 113.048 228.131 117.957 227.959C118.748 227.932 119.54 227.904 120.332 227.876C123.258 227.774 114.48 228.089 111.552 228.115C106.582 228.161 100.822 228.327 95.9038 227.279C95.7896 227.254 95.0411 226.938 95.1833 226.933C97.7717 226.842 100.361 226.724 102.95 226.678C109.876 226.556 116.975 226.284 123.895 226.554C126.709 226.664 121.07 226.94 120.62 226.955C118.757 227.02 116.943 227.081 115.103 227.384C113.261 227.688 114.77 227.463 115.762 227.429C126.669 227.048 137.729 226.069 148.325 223.323C150.748 222.695 153.165 222.021 155.577 221.349C155.853 221.272 157.096 220.983 156.045 221.231C150.355 222.578 144.475 223.023 138.642 223.29C135.091 223.452 130.505 223.565 127.239 225.206C127.137 225.257 125.908 225.751 126.417 225.825C128.704 226.159 131.404 225.214 133.619 224.832C138.09 224.06 142.641 222.847 147.19 222.688C149.359 222.612 142.853 222.918 140.695 223.151C136.687 223.583 132.875 224.397 128.921 225.08C126.742 225.456 124.52 226.516 122.311 226.593C120.485 226.656 118.024 227.652 116.462 228.619C115.938 228.942 118.108 228.865 118.191 228.862C120.747 228.773 123.221 228.572 125.716 227.958C129.252 227.088 132.685 225.778 136.123 224.592C140.265 223.164 144.585 222.278 148.824 221.18C154.795 219.633 160.818 218.264 166.744 216.54C167.9 216.203 170.201 215.476 167.554 215.601C161.383 215.892 154.854 216.912 148.939 218.68C147.239 219.188 145.583 219.705 143.992 220.489C143.824 220.571 142.491 221.202 143.413 221.285C151.438 222.004 160.178 219.607 167.301 216.065C169.764 214.84 162.099 217.859 159.501 218.766C154.014 220.681 147.827 222.744 141.978 223.173C137.157 223.528 151.654 222.917 156.455 222.364C162.206 221.703 167.809 220.688 173.481 219.644C173.773 219.591 175.326 219.276 174.195 219.316C172.33 219.381 170.466 219.446 168.602 219.511C164.775 219.645 160.911 219.651 157.125 220.283C153.744 220.848 150.496 222.096 147.12 222.623C146.875 222.661 144.356 222.787 145.202 222.757C148.282 222.65 151.278 222.423 154.312 221.832C159.994 220.724 166.165 219.793 171.649 217.887C173.019 217.41 173.657 217.238 171.863 217.272C168.654 217.332 165.453 217.192 162.233 217.305C157.718 217.462 171.263 216.989 175.778 216.832C180.479 216.667 166.389 217.463 161.688 217.627C159.812 217.693 157.936 217.758 156.061 217.824C155.156 217.855 156.546 217.807 156.566 217.806C157.937 217.758 159.309 217.727 160.674 217.595C166.545 217.027 172.355 215.21 178.225 214.924C178.675 214.902 181.419 214.436 180.434 215.387C177.569 218.152 173.492 218.281 170.05 219.933C168.081 220.877 172.922 219.325 173.499 219.205C175.686 218.753 177.958 218.706 179.973 217.663C180.976 217.145 180.966 216.612 179.796 216.455C176.974 216.077 174.143 216.281 171.309 216.38C167.99 216.496 177.951 216.756 181.27 216.64C181.666 216.626 180.503 216.833 180.116 216.916C177.511 217.476 174.95 218.193 172.315 218.622C162.767 220.18 153.163 221.652 143.548 222.747C139.236 223.239 134.973 223.909 130.735 224.848C126.25 225.842 121.43 226.549 117.025 227.857C115.281 228.375 113.434 228.097 111.739 228.632C110.674 228.968 109.239 229.174 108.116 229.214C105.694 229.298 104.056 229.128 101.781 228.457C100.718 228.143 99.4624 227.694 98.3486 227.733C96.7227 227.79 101.612 227.942 103.193 228.323C105.348 228.841 101.952 228.822 101.457 228.839C97.515 228.977 96.9759 229.603 88.9114 228.366C86.6002 228.435 63.6565 221.326 61.4565 220.588" stroke="#171717" stroke-width="2" stroke-linecap="round"/>
<path d="M91.754 51.6414C91.8452 51.9585 93.9598 50.9518 94.2016 50.8664C95.5077 50.4053 96.7886 49.7536 97.7031 48.6833C98.5239 47.7226 99.0265 46.4161 99.6001 45.3074C99.9613 44.6093 99.6305 44.4713 98.9206 44.4961C97.0747 44.5605 96.6861 46.2341 96.4486 47.8614C96.1937 49.6079 96.1723 51.3691 95.3777 52.9552C95.2718 53.1666 94.8561 53.5108 94.6593 53.6621C94.5078 53.7785 94.7788 53.2114 94.796 53.19C95.2049 52.6827 95.8793 52.3183 96.4076 51.9539C97.733 51.0399 99.2074 50.3966 100.503 49.4359C101.329 48.8232 102.096 48.1409 102.918 47.5282C104.268 46.5224 104.738 45.8522 103.532 44.4729C102.855 43.6987 101.739 42.3291 100.608 42.3686C99.6334 42.4026 99.1071 44.1618 98.7495 44.8621C97.5648 47.1818 96.6815 49.6796 94.8951 51.639C93.4495 53.2245 93.9629 50.0813 94.294 49.3463C95.1867 47.3646 96.5268 45.8552 97.6871 44.0565C98.3533 43.0237 100.247 42.5369 101.377 43.1079C102.715 43.7839 101.827 44.8242 101.164 45.5516C100.513 46.2657 99.8662 46.9567 99.1995 47.6581C98.9649 47.9049 98.685 48.3593 98.402 48.5133" stroke="#FFD424" stroke-width="2" stroke-linecap="round"/>
<path d="M168.779 84.6982C168.99 90.7313 124.321 97.1879 94.4285 98.2318C53.1552 99.6731 19.5257 95.9507 19.3151 89.9176C30.8742 78.5767 52.3922 77.8253 93.6656 76.384C134.939 74.9427 168.568 78.6651 168.779 84.6982Z" stroke="#171717" stroke-width="2" stroke-linecap="round"/>
<path d="M19.2852 90.0829L28.3117 116.174L56.1007 119.232C93.1411 123.308 130.591 121.553 167.088 114.031V114.031L168.696 84.8654" stroke="#171717" stroke-width="2" stroke-linecap="round" stroke-linejoin="round"/>
<path d="M31.2539 117.175L51.7594 216.786L64.7283 220.993C96.6528 231.347 131.319 229.186 161.71 214.946V214.946L163.363 115.248" stroke="#171717" stroke-width="2" stroke-linecap="round" stroke-linejoin="round"/>
<path d="M94.5588 83.0282C92.5637 78.8236 89.832 69.4497 90.8978 59.0208M90.8978 59.0208C91.2492 55.582 92.0136 52.0284 93.3534 48.5076C100.107 30.7601 111.914 42.0363 101.307 51.9167C97.8327 54.4469 92.4476 53.88 90.8978 59.0208Z" stroke="#171717" stroke-width="2"/>
<path d="M21.4238 92.4809C21.4958 94.5431 21.3097 96.8535 22.0259 98.7873C22.9032 101.156 23.8873 103.645 25.197 105.741C26.9158 108.491 27.9693 111.499 29.3756 114.405C31.088 117.944 36.1029 117.598 39.1728 117.876C42.3591 118.164 45.519 118.815 48.7019 118.937C51.1775 119.031 53.748 118.778 56.2161 119.011C58.6747 119.242 61.1407 119.09 63.5956 119.281C65.2302 119.409 66.7433 119.732 68.4049 119.674C69.5604 119.634 70.4409 120.055 71.5622 120.157C74.884 120.457 78.2511 121.753 81.5424 122.387C84.8468 123.023 87.9078 123.607 91.2568 123.49C92.1516 123.458 92.8903 123.054 93.8329 123.127C98.3755 123.482 102.865 123.373 107.416 123.214C111.213 123.081 115 123.237 118.8 123.104C121.979 122.993 124.733 121.355 127.681 120.199C133.097 118.076 138.421 118.383 144.035 118.186C146.832 118.089 149.475 117.42 152.266 117.322C154.899 117.23 157.531 117.139 160.164 117.047C161.894 116.986 163.53 115.955 165.058 115.017C165.829 114.545 166.58 114.35 166.981 113.348C167.606 111.787 167.142 109.07 167.085 107.418C166.821 99.8753 169.112 92.553 168.849 85.026" stroke="#171717" stroke-width="2" stroke-linecap="round"/>
<path d="M30.7344 118.412C31.3717 136.662 38.6458 153.789 42.4015 171.433C43.0816 174.629 44.6397 177.681 45.069 180.897C45.6491 185.242 46.5875 190.218 47.7753 194.446C49.4021 200.237 51.0981 206.315 51.3118 212.436C51.4135 215.347 52.6088 215.348 54.7451 216.315C57.6841 217.645 60.5837 219.131 63.5116 220.478C66.6765 221.935 70.3191 222.21 73.6761 223.035C79.7958 224.538 85.8813 225.833 91.8266 228.223C99.5271 231.318 108.413 230.025 116.419 229.746C124.445 229.466 131.128 222.255 139.042 221.722C144.186 221.376 151.239 218.744 156.182 217.315C157.503 216.933 160.619 216.161 161.235 214.786C161.955 213.179 161.258 215.456 161.194 213.627C161.105 211.066 162.415 208.431 162.323 205.795C162.222 202.897 162.585 199.9 162.48 196.91C162.285 191.31 162.089 185.71 161.894 180.111C161.726 175.306 161.128 170.099 161.875 165.438C162.643 160.64 164.287 154.945 164.114 150.011C163.719 138.689 163.774 126.875 163.372 115.369" stroke="#171717" stroke-width="2" stroke-linecap="round"/>
<path d="M93.4541 81.6782C93.3333 78.22 92.8104 74.6033 91.5315 71.3627C90.5982 68.9978 90.3702 66.4659 89.5783 64.0732C88.8726 61.9412 88.763 59.716 88.6854 57.4916C88.6141 55.4506 88.8276 53.8409 89.5073 51.8946C90.1827 49.9605 91.001 47.9061 92.0126 46.1208C93.4215 43.6341 96.0933 41.3786 98.886 40.5759C99.8356 40.303 100.747 40.2203 101.734 40.1858C103.291 40.1314 103.771 41.3709 104.271 42.6224C104.676 43.6336 104.973 45.8694 104.493 46.8749C103.921 48.0712 103.064 49.3295 102.16 50.2992C99.5465 53.1013 95.6659 54.6266 92.4126 56.5348C91.1278 57.2884 90.1911 59.0718 89.6042 60.3935C89.2919 61.0969 89.5001 62.0935 89.5265 62.8488" stroke="#171717" stroke-width="2" stroke-linecap="round"/>
</g>
<defs>
<filter id="filter0_dd_3008_23712" x="0.152344" y="-4" width="202.066" height="256.414" filterUnits="userSpaceOnUse" color-interpolation-filters="sRGB">
<feFlood flood-opacity="0" result="BackgroundImageFix"/>
<feColorMatrix in="SourceAlpha" type="matrix" values="0 0 0 0 0 0 0 0 0 0 0 0 0 0 0 0 0 0 127 0" result="hardAlpha"/>
<feOffset dy="2"/>
<feGaussianBlur stdDeviation="1"/>
<feComposite in2="hardAlpha" operator="out"/>
<feColorMatrix type="matrix" values="0 0 0 0 0 0 0 0 0 0 0 0 0 0 0 0 0 0 0.02 0"/>
<feBlend mode="normal" in2="BackgroundImageFix" result="effect1_dropShadow_3008_23712"/>
<feColorMatrix in="SourceAlpha" type="matrix" values="0 0 0 0 0 0 0 0 0 0 0 0 0 0 0 0 0 0 127 0" result="hardAlpha"/>
<feOffset dy="4"/>
<feGaussianBlur stdDeviation="4"/>
<feComposite in2="hardAlpha" operator="out"/>
<feColorMatrix type="matrix" values="0 0 0 0 0 0 0 0 0 0 0 0 0 0 0 0 0 0 0.06 0"/>
<feBlend mode="normal" in2="effect1_dropShadow_3008_23712" result="effect2_dropShadow_3008_23712"/>
<feBlend mode="normal" in="SourceGraphic" in2="effect2_dropShadow_3008_23712" result="shape"/>
</filter>
</defs>
</svg>
