<svg xmlns="http://www.w3.org/2000/svg" width="188" height="241" fill="none"><path fill="#fff" d="M124.222 240.662c-28.952 1.011-58.408-4.664-70.169-8.476l-12.974-4.21a11.025 11.025 0 0 1-7.382-8.237L14.32 125.618a10.991 10.991 0 0 1-3.624-4.917l-9.53-25.333c-1.72-4.553-.442-9.79 3.158-13.018 13.34-11.963 34.96-14.349 68.083-15.716a57.731 57.731 0 0 1 .261-7.994c.468-4.639 1.523-9.118 3.118-13.306 5.287-13.914 13.67-16.258 18.198-16.416l.41-.014c6.032-.04 11.414 3.644 13.706 9.387 3.487 8.764-1.369 17.549-6.583 22.404l-.203.197-.554.46-.254.189c-2.176 1.587-4.366 2.464-6.125 3.095.005.43.01.85.024 1.26 17.339-.325 33.478.242 46.145 1.64 15.218 1.68 31.488 4.565 31.94 17.507.023.64.024.69-1.702 30.348a10.984 10.984 0 0 1-3.823 7.708l-1.343 80.746c3.992.261 8.004.531 10.745.815 5.925.604 10.639 5.222 11.449 11.218.808 5.965-2.834 11.415-9.509 14.24-20.519 8.702-37.296 9.948-54.095 10.534l.01.01Z"/><path stroke="#171717" stroke-linecap="round" stroke-width="2" d="M13.552 89.272c2.585-.09 5.112-.638 7.688-.728.393-.013 1.067-.19.282.093-2.665.958-.642-1.504-3.063.141-1.052.715-1.883 1.664-2.877 2.448-1.936 1.527-.253 2.589 1.78 1.28 4.853-3.12 9.826-5.948 14.63-9.185 1.378-.928 2.784-2.015 4.283-2.624 2.855-1.162-5.755 2.151-8.59 3.387-1.61.702-7.167 3.605-2.093 2.675 5.716-1.046 10.863-3.567 16.301-5.723 3.155-1.25-6.112 3.27-8.914 5.49-2.096 1.662-5.756 4.89-.868 2.455 3.327-1.658 6.638-3.327 10.01-4.84 1.67-.75 4.902-1.238 6.287-2.72 4.04-4.326-9.792 5.201-14.267 8.765-1.372 1.092-2.627 2.282-3.892 3.555-1 1.005 2.888-.433 2.946-.46 8.786-4.18 18.259-7.739 26.37-13.576.365-.263 1.936-1.218.596-1.143-4.129.228-9.936-.61-13.675 1.344-6.656 3.478-13.336 7.782-19.12 13.272-4.304 4.087 10.427-3.478 15.462-5.872 4.784-2.275 9.547-4.658 14.286-7.082 1.462-.748 2.918-1.75 4.454-2.248 1.072-.346-2.157.649-3.202 1.107-4.17 1.83-8.057 5.03-11.811 7.914-2.002 1.537-3.904 3.223-5.833 4.898-1.08.938-.728 1.093.471.979 8.044-.763 16.167-6.115 23.031-11.138.145-.106 2.615-1.59 2.514-2.027-.151-.653-6.233 2.966-6.53 3.163-3.093 2.043-6.094 4.398-8.985 6.87-.418.358-3.867 3.74-3.765 3.755 3.047.477 7.374-3.089 9.979-4.584 4.733-2.716 9.364-5.786 14.252-8.05 1.246-.577 4.989-2.243 3.805-1.485-3.882 2.487-7.685 5.17-11.561 7.675-4.15 2.683-8.342 5.238-12.444 8.038-.536.367-4.675 2.295-4.754 3.33-.045.586 6.424-1.541 6.741-1.664 6.637-2.572 12.886-6.218 19.07-10.157 2.96-1.886 5.643-4.067 8.449-6.266.534-.419 2.644-1.929.567-1.397-7.843 2.008-14.764 8.184-21.59 13.102-.26.187-2.17 1.199-.875 1.154 4.958-.174 9.605-2.527 14.193-4.63 5.336-2.445 10.54-5.074 15.703-8.049 1.568-.903 3.148-1.77 4.718-2.665.427-.243 1.86-.685 2.185-1.199 1.28-2.024-3.855 1.72-5.707 2.802-5.274 3.078-10.692 6.082-15.723 9.76-.675.493-8.757 6.895-8.537 7.186.44.584 3.547-1.122 3.774-1.228 3.452-1.622 6.8-3.622 10.144-5.56 4.838-2.802 9.683-5.534 14.632-8.012.368-.184 4.666-1.857 4.642-2.56-.015-.44-4.965 1.925-5.139 2.016-3.94 2.069-7.952 3.866-11.879 5.977-1.38.743-2.758 1.348-4.076 2.26-1.768 1.224 4.032-.55 5.982-1.204 8.608-2.888 16.923-7.291 25.435-10.609 5.772-2.25-10.85 6.706-16.356 9.833-3.957 2.247-7.99 4.33-11.85 6.843-1.075.7-4.25 2.728-3.054 2.48 3.301-.684 6.466-2.56 9.56-4.06 7.608-3.684 15.131-7.6 22.66-11.532 2.808-1.466 6.754-.009 9.517-1.608 2.236-1.294-2.258-1.326-3.018-1.017-9.152 3.723-17.706 8.233-26.141 14.027-.282.194-3.617 2.154-3.478 2.877.212 1.108 7.4-2.575 7.698-2.718 7.93-3.817 15.915-7.445 24.001-10.687.586-.235 1.675-.596.342-.471-4.066.38-8.245 2.65-11.881 4.803-3.619 2.145-7.097 4.721-10.391 7.584-.341.296-3.835 2.697-3.61 3.672.234 1.011 7.029-3.168 7.28-3.316 7.857-4.598 15.578-9.527 23.489-13.985 3.704-2.088 10.098 1.06 13.944-.59 2.907-1.245-6.119.368-6.188-1.62-8.048 5.085-15.846 8.954-23.949 13.9-.128.078-2.524 1.36-1.341 1.45 2.921.223 5.992-1.977 8.593-3.286 6.286-3.16 12.576-6.315 18.854-9.486 1.183-.597-2.427.985-3.602 1.606-4.235 2.238-8.309 5.068-12.373 7.754-2.118 1.4-4.278 2.714-6.29 4.353-1.776 1.448 2.681.39 2.915.332 9.825-2.475 19.296-9.317 28.423-14.413.21-.117 2.732-1.57 1.15-.652-4.344 2.521-8.618 5.09-13.063 7.345-3.331 1.69-6.609 3.4-9.832 5.395-.211.13-3.213 1.908-2.614 2.005 2.243.362 4.997-.714 7.086-1.473 4.962-1.8 9.776-4.608 14.588-6.964 2.106-1.031 4.145-2.179 6.206-3.33 1.472-.821-1.29.74-1.443.816-3.984 2.013-9.752 4.178-12.835 8.205-.677.884 1.8.315 1.959.289 3.84-.644 7.401-2.83 11.04-4.366 1.51-.637 3.934-1.027 5.229-2.275 1.414-1.362-3.491.95-5.147 1.762-1.683.826-2.971 2.038-4.459 3.268-.664.55-1.526 1.117.053.942 2.351-.26 4.737-1.943 6.936-2.92 2.234-.994 4.458-2.046 6.626-3.243 1.015-.56-3.701 2.167-3.661 3.317.022.646 6.579-3.493 7.292-4.107"/><path stroke="#171717" stroke-linecap="round" stroke-width="2" d="M21.352 87.163c-2.282.08 4.57.117 6.85.322 8.8.793 17.5.665 26.296.358l7.049-.246c3.813-.133-7.573 1.164-11.386 1.316-6.065.242-12.43 1.119-18.486.084-2.184-.373-8.646-1.841-6.45-1.918 1.172-.04 3 .965 4.044 1.339 5.135 1.84 10.276 3.569 15.483 5.021 12.717 3.547 25.272 1.948 38.232 2.844 3.308.229 6.61.688 9.92.572 1.864-.065-3.695-.79-3.966-.856-15.365-3.808-30.845-5.547-46.553-5.437-.26.002-3.264-.407-2.08-.386 1.744.03 3.478.48 5.198.839 5.747 1.198 11.512 2.12 17.31 2.686 9.514.929 19.076.993 28.593.66 2.04-.07 4.1-.057 6.135-.24.014 0 2.595-.536 1.994-.962-1.445-1.023-3.945-.996-5.492-1.288-4.678-.882-9.37-1.572-14.072-2.162-10.404-1.306-20.584-1.578-30.998-1.214-2.152.075-5.221.9-7.323-.204-.277-.145.403-.622.691-.712 4.431-1.387 9.392-1.3 13.92-1.635 16.193-1.194 31.935.01 48.095 1.79 6.471.714 13.672 1.7 20.169.853.967-.126.19-.531-.282-.68-2.297-.72-4.686-1.115-7.014-1.591-10.416-2.131-21.214-3.486-31.736-3.587-5.774-.055-11.551.302-17.32.503-1.62.057-6.078.212-1.508.053 12.006-.42 23.972.889 35.976 1.448 10.203.475 20.404.356 30.593-.099 1.962-.088 4.417-.503.866-1.408-13.087-3.335-26.616-3.738-39.865-4.068-12.255-.305-24.515.266-36.753.773-2.767.115-5.49 1.11-8.209 1.206-.634.022 1.268.15 1.898.265 4.22.773 8.404 1.882 12.62 2.698 16.78 3.246 33.861 5.743 50.803 5.318a891.469 891.469 0 0 0 18.586-.649c.893-.04 1.8-.066 2.648-.45.143-.064-2.722-.026-2.923-.025-12.08.088-24.134-.05-36.21.372-8.893.31-17.83-.03-26.541 2.304-1.257.337-9.073 1.778-3.633 1.862 17.032.262 34.096-1.179 51.123-1.454 11.344-.183 23.056.41 34.296-1.682.329-.061 6.917-1.43 6.013-3.17-.973-1.871-6.724-.974-8.067-.994-9.67-.139-19.492.367-29.088 1.654-5.434.729-10.766 2.234-15.998 4.156-3.545 1.303-.021.715 1.732.654 9.689-.338 19.279-.86 28.912-2.158 5.197-.7 10.71-1.464 15.61-3.887.007-.003 2.427-.988 1.302-1.423-4.038-1.564-9.225-1.06-13.344-1.244-8.14-.363-16.281-.273-24.407.19-2.245.127-4.436.434-6.65.87-.132.025-2.837.6-2.537.802 1.312.886 3.571.645 4.957.746 3.78.273 7.565.4 11.347.42 7.675.041 15.469.484 23.105-.475 1.386-.175 4.189.072 5.389-1.107.219-.216-.494-.381-.771-.432-1.773-.328-3.516-.5-5.282-.964-6.874-1.81-13.463-2.745-20.426-2.502-2.697.095 5.385.673 8.083.866 6.253.449 12.583 1.101 18.84.95 1.523-.037 4.567-.16 4.567-.16s-4.037-.65-6.057-.962c-8.205-1.27-16.19-1.963-24.452-1.646-11.245.43-21.87 3.143-32.663 6.881-7.033 2.436-13.938 4.526-21.17 5.791-2.336.409-9.303 1.694-7.049.833 1.475-.563 3.196-.46 4.714-.522 3.984-.163 7.97-.278 11.954-.417l21.962-.767c21.631-.755-43.686 4.953-64.957-.717-3.496-.932-6.993-2.06-10.516-2.797-1.338-.28-5.387-.551-4.037-.599 4.767-.166 9.575.125 14.313-.04l-13.304.465c-.68.023-8.244.03-4.427 1.302 8.827 2.943 18.053 2.16 26.994 3.88 1.465.281 2.916.817 4.401.765l-2.74.095c-7.883.276-15.776.092-23.646.367-.331.011-4.963-3.767-4.88-1.422-.28.796 1.25 1.302 1.935 1.341 2.371.134 3.83.966 6.202 1.115 6.647.417 13.241.227 19.88-.005 5.05-.177 10.089-.512 15.129-.044 3.777.352 7.039-.132 10.769-.758 6.373-1.071 12.837-.383 19.198-1.334 3.144-.47 6.272-.576 9.44-.687l-16.72.584-8.657.302c-.855.03-2.197-.046-.43.245 8.412 1.383 17.284 1.004 25.712.71 6.728-.236 12.757-.779 18.983-4.082 1.176-.625 4.105-.87 4.022-3.254-.057-1.62-1.357-2.476-2.336-3.133-2.987-2.001-6.469-3.928-9.77-4.787-3.75-.976-7.668-.472-11.444-.34l-13.92.486c-7.714.27-15.368-1.687-23.054-1.492-3.771.097-7.601.066-11.355.5-4.134.476-7.975 2.37-12.033 3.277-4.714 1.054-9.904.44-14.43 2.392-4.666 2.013-8.773 5.549-13.341 7.916-.262.135 1.072-5.09-.74-1.811.536.024 3.855 2.242 4.387 2.347 4.452.876 4.918 1.104 9.407.947 2.383-.083 4.657.008 7.024.189.718.054 1.32.438 2.023.414M95.322 228.5l14.724-.515 2.376-.083c2.926-.102-5.852.213-8.78.24-4.97.045-10.73.212-15.648-.837-.115-.024-.863-.341-.72-.346 2.588-.09 5.177-.209 7.766-.254 6.926-.123 14.025-.395 20.945-.125 2.814.11-2.825.386-3.275.402-1.863.065-3.677.125-5.517.428-1.842.304-.333.079.659.045 10.907-.381 21.967-1.36 32.563-4.106 2.423-.628 4.84-1.302 7.251-1.974.276-.077 1.52-.366.469-.117-5.69 1.346-11.57 1.791-17.403 2.058-3.552.163-8.137.275-11.403 1.916-.102.052-1.331.545-.822.619 2.287.334 4.987-.611 7.201-.993 4.472-.772 9.023-1.985 13.571-2.144 2.169-.076-4.336.23-6.494.463-4.008.432-7.82 1.246-11.774 1.929-2.179.377-4.401 1.436-6.61 1.513-1.826.064-4.287 1.059-5.85 2.026-.523.324 1.646.246 1.729.243 2.557-.089 5.031-.29 7.525-.904 3.536-.87 6.97-2.179 10.408-3.366 4.142-1.428 8.462-2.313 12.701-3.412 5.971-1.547 11.994-2.915 17.92-4.64 1.156-.337 3.457-1.064.81-.939-6.171.291-12.7 1.311-18.615 3.079-1.7.508-3.356 1.025-4.947 1.809-.168.082-1.501.713-.579.796 8.025.72 16.765-1.678 23.887-5.22 2.464-1.225-5.202 1.795-7.799 2.701-5.487 1.916-11.674 3.978-17.524 4.408-4.82.354 9.676-.257 14.478-.81 5.75-.661 11.354-1.676 17.026-2.719.292-.054 1.845-.369.714-.329l-5.593.195c-3.827.134-7.691.14-11.477.772-3.381.565-6.63 1.813-10.005 2.34-.245.038-2.764.164-1.919.134 3.081-.107 6.077-.334 9.11-.925 5.683-1.107 11.854-2.038 17.337-3.945 1.371-.477 2.009-.649.215-.615-3.209.06-6.41-.08-9.63.033l13.545-.473c4.701-.164-9.389.631-14.091.795l-5.626.197.505-.018c1.37-.048 2.743-.078 4.108-.211 5.871-.568 11.681-2.385 17.551-2.67.45-.022 3.194-.489 2.208.462-2.864 2.765-6.941 2.895-10.383 4.546-1.969.944 2.872-.608 3.449-.728 2.187-.452 4.458-.499 6.474-1.541 1.003-.519.993-1.052-.177-1.209-2.822-.378-5.653-.173-8.487-.074-3.319.116 6.642.375 9.961.259.395-.014-.767.193-1.154.276-2.606.56-5.167 1.277-7.801 1.707-9.548 1.557-19.152 3.029-28.767 4.125-4.312.491-8.575 1.161-12.813 2.1-4.486.994-9.305 1.701-13.71 3.009-1.744.518-3.591.24-5.286.775-1.065.336-2.5.543-3.623.582-2.423.085-4.06-.086-6.335-.757-1.063-.314-2.319-.763-3.433-.724-1.625.057 3.263.21 4.845.59 2.154.518-1.241.499-1.736.516-3.942.138-4.481.764-12.546-.473-2.311.069-25.255-7.04-27.455-7.778"/><path stroke="#FFD424" stroke-linecap="round" stroke-width="2" d="M83.844 51.668c.091.317 2.206-.69 2.447-.775 1.306-.462 2.588-1.113 3.502-2.184.82-.96 1.323-2.267 1.897-3.375.361-.698.03-.837-.68-.812-1.846.065-2.234 1.738-2.472 3.366-.254 1.746-.276 3.507-1.07 5.093-.106.212-.522.556-.719.707-.151.117.12-.45.137-.472.409-.507 1.083-.871 1.612-1.236 1.325-.914 2.8-1.557 4.095-2.518.826-.613 1.593-1.295 2.415-1.908 1.35-1.005 1.82-1.676.614-3.055-.677-.774-1.793-2.144-2.924-2.104-.975.034-1.501 1.793-1.859 2.493-1.184 2.32-2.068 4.818-3.854 6.777-1.446 1.586-.932-1.557-.601-2.292.893-1.982 2.233-3.492 3.393-5.29.666-1.033 2.56-1.52 3.69-.949 1.338.676.45 1.716-.213 2.444-.651.714-1.298 1.405-1.965 2.106-.234.247-.514.702-.797.856"/><path stroke="#171717" stroke-linecap="round" stroke-width="2" d="M160.873 84.725c.21 6.033-44.458 12.49-74.35 13.533-41.274 1.441-74.903-2.281-75.114-8.314 11.559-11.341 33.077-12.092 74.35-13.534 41.274-1.441 74.903 2.281 75.114 8.315Z"/><path stroke="#171717" stroke-linecap="round" stroke-linejoin="round" stroke-width="2" d="m11.379 90.11 9.027 26.091 27.788 3.057a356.6 356.6 0 0 0 110.988-5.201v0l1.608-29.165"/><path stroke="#171717" stroke-linecap="round" stroke-linejoin="round" stroke-width="2" d="m23.348 117.201 20.505 99.611 12.969 4.207a132.34 132.34 0 0 0 96.982-6.047v0l1.653-99.698"/><path stroke="#171717" stroke-width="2" d="M86.653 83.055c-1.996-4.205-4.727-13.579-3.661-24.008m0 0c.351-3.439 1.115-6.992 2.455-10.513 6.754-17.748 18.561-6.471 7.953 3.409-3.474 2.53-8.859 1.963-10.408 7.104Z"/><path stroke="#171717" stroke-linecap="round" stroke-width="2" d="M13.514 92.507c.072 2.062-.114 4.373.602 6.307.877 2.368 1.861 4.857 3.17 6.953 1.72 2.75 2.773 5.759 4.18 8.665 1.712 3.538 6.727 3.192 9.797 3.47 3.186.288 6.346.94 9.529 1.061 2.475.094 5.046-.158 7.514.074 2.459.231 4.925.079 7.38.271 1.634.127 3.147.45 4.809.392 1.155-.04 2.036.381 3.157.483 3.322.301 6.689 1.597 9.98 2.23 3.305.637 6.366 1.22 9.715 1.103.895-.031 1.633-.436 2.576-.362 4.542.354 9.032.245 13.583.086 3.797-.133 7.583.023 11.384-.109 3.179-.111 5.932-1.749 8.881-2.905 5.416-2.124 10.739-1.817 16.354-2.013 2.797-.098 5.44-.767 8.231-.864l7.898-.276c1.73-.061 3.366-1.092 4.894-2.029.771-.473 1.522-.668 1.922-1.669.626-1.562.162-4.279.105-5.931-.264-7.543 2.027-14.865 1.764-22.392"/><path stroke="#171717" stroke-linecap="round" stroke-width="2" d="M22.824 118.439c.637 18.249 7.912 35.376 11.667 53.021.68 3.195 2.239 6.247 2.668 9.463.58 4.345 1.518 9.321 2.706 13.549 1.627 5.791 3.323 11.869 3.537 17.99.101 2.912 1.297 2.912 3.433 3.879 2.939 1.331 5.838 2.816 8.767 4.164 3.164 1.456 6.807 1.731 10.164 2.556 6.12 1.504 12.205 2.798 18.15 5.188 7.7 3.095 16.586 1.803 24.593 1.523 8.026-.28 14.709-7.491 22.622-8.024 5.144-.346 12.198-2.978 17.14-4.407 1.322-.382 4.438-1.154 5.054-2.529.719-1.606.023.67-.041-1.159-.089-2.561 1.221-5.196 1.129-7.831-.101-2.899.262-5.896.157-8.886l-.587-16.799c-.167-4.805-.765-10.012-.019-14.673.769-4.798 2.413-10.492 2.24-15.427-.395-11.322-.34-23.135-.742-34.642M85.544 81.704c-.12-3.458-.644-7.075-1.923-10.315-.933-2.365-1.16-4.897-1.953-7.29-.706-2.132-.815-4.357-.893-6.581-.071-2.041.142-3.65.822-5.597.676-1.934 1.494-3.989 2.505-5.774 1.41-2.487 4.081-4.742 6.874-5.545.95-.273 1.861-.355 2.847-.39 1.558-.054 2.038 1.185 2.538 2.437.405 1.01.702 3.247.221 4.252a14.308 14.308 0 0 1-2.333 3.424c-2.613 2.803-6.493 4.328-9.747 6.236-1.284.754-2.221 2.537-2.808 3.859-.312.703-.104 1.7-.078 2.455"/></svg>