<svg xmlns="http://www.w3.org/2000/svg" width="173" height="244" fill="none"><path fill="#fff" d="M102.895 242.764c-14.694-1.028-51.94-9.998-64.277-15.482l-12.454-5.542a11.025 11.025 0 0 1-6.48-8.964l-9.442-95.631a11.025 11.025 0 0 1-3.146-5.483L1.005 83.809c-.823-3.867.631-7.885 3.697-10.297 14.572-11.421 35.67-11.22 68.997-9.019a97.562 97.562 0 0 1-.037-3.19 17.233 17.233 0 0 1-3.366.105 15.84 15.84 0 0 1-3.906-.774c-7.523-2.511-11.569-10.162-9.42-17.81 1.893-6.715 7.804-11.544 14.354-11.748a29.11 29.11 0 0 1 2.944.055c1.716.12 3.38.407 4.963.839a72.662 72.662 0 0 1 2.43-5.364C90.337 9.48 100.736 7.56 106.163 7.94l.449.031c6.86.67 12.318 5.332 14.246 12.174 1.926 6.86.109 17.93-11.372 26.571l-.222.175-.6.4-.272.16c-3.353 1.941-6.696 2.73-9.388 3.374-.795.185-1.784.426-2.49.638-.91 5.41-.964 10.478-.702 14.626 17.398 1.488 33.53 3.749 46.059 6.49 14.959 3.26 30.839 7.83 29.936 20.748-.029.409-.097 1.386-.454 2.625l-4.409 27.349a10.98 10.98 0 0 1-4.611 7.306l-9.783 80.273 9.582 1.733.286.07c5.914 1.436 10.02 6.655 9.969 12.686-.049 6.011-4.187 11.135-10.075 12.478-18.834 4.276-37.53 6.006-55.563 5.136a171.51 171.51 0 0 1-3.844-.228l-.01.009Z"/><path stroke="#171717" stroke-linecap="round" stroke-width="2" d="M14.44 81.23c2.58.18 5.15-.1 7.722.08.392.027 1.081-.078.27.12-2.75.675-.48-1.561-3.06-.179-1.121.601-2.047 1.459-3.117 2.134-2.086 1.316-.523 2.548 1.637 1.46 5.152-2.596 10.393-4.89 15.51-7.606 1.467-.78 2.978-1.713 4.532-2.163 2.961-.856-5.947 1.539-8.896 2.471-1.675.53-7.505 2.836-2.362 2.442 5.795-.443 11.177-2.413 16.81-3.988 3.27-.913-6.42 2.614-9.438 4.53-2.259 1.432-6.236 4.26-1.12 2.35 3.482-1.302 6.949-2.616 10.46-3.768 1.74-.57 5.005-.719 6.537-2.048 4.471-3.88-10.281 4.15-15.105 7.226-1.478.943-2.85 1.995-4.242 3.128-1.099.895 2.918-.128 2.978-.15 9.175-3.237 18.968-5.787 27.644-10.744.392-.224 2.054-1.009.712-1.075-4.129-.205-9.816-1.645-13.74-.092-6.982 2.763-14.076 6.345-20.402 11.2-4.708 3.614 10.733-2.37 15.99-4.224 4.997-1.762 9.983-3.634 14.949-5.55 1.532-.59 3.085-1.436 4.664-1.77 1.103-.232-2.212.42-3.3.767-4.338 1.383-8.538 4.16-12.574 6.636-2.151 1.32-4.22 2.797-6.313 4.261-1.17.82-.837 1.01.367 1.023 8.08.082 16.717-4.392 24.07-8.67.154-.09 2.766-1.307 2.711-1.752-.082-.666-6.509 2.298-6.825 2.462-3.289 1.71-6.52 3.737-9.654 5.894-.452.312-4.236 3.314-4.137 3.34 2.98.793 7.657-2.3 10.404-3.515 4.99-2.207 9.918-4.776 15.015-6.516 1.3-.444 5.196-1.71 3.94-1.08-4.12 2.067-8.184 4.339-12.3 6.425-4.408 2.234-8.844 4.337-13.216 6.693-.572.309-4.89 1.794-5.076 2.815-.106.578 6.55-.861 6.878-.95 6.869-1.864 13.465-4.837 20.026-8.109 3.141-1.566 6.038-3.454 9.058-5.348.576-.36 2.831-1.642.71-1.33-8.01 1.177-15.539 6.596-22.841 10.774-.278.159-2.283.965-.99 1.055 4.948.346 9.816-1.508 14.598-3.12 5.563-1.874 11.014-3.945 16.46-6.364 1.653-.734 3.315-1.43 4.97-2.157.45-.198 1.922-.487 2.298-.964 1.484-1.88-4.013 1.308-5.969 2.19-5.566 2.51-11.269 4.931-16.657 8.063-.723.42-9.43 5.942-9.24 6.255.376.626 3.644-.745 3.881-.828 3.603-1.252 7.14-2.89 10.67-4.468 5.103-2.281 10.208-4.492 15.388-6.439.386-.145 4.836-1.36 4.885-2.061.03-.44-5.14 1.396-5.321 1.468-4.135 1.645-8.314 3.013-12.44 4.703-1.45.594-2.884 1.052-4.29 1.821-1.886 1.032 4.069-.125 6.076-.572 8.862-1.973 17.592-5.483 26.405-7.892 5.975-1.634-11.491 5.535-17.295 8.069-4.17 1.82-8.4 3.471-12.5 5.567-1.142.585-4.512 2.268-3.297 2.147 3.355-.335 6.699-1.87 9.933-3.037 7.951-2.87 15.842-5.978 23.74-9.101 2.946-1.165 6.718.697 9.633-.605 2.36-1.053-2.106-1.555-2.895-1.327-9.491 2.746-18.469 6.338-27.464 11.218-.3.163-3.822 1.764-3.76 2.498.096 1.123 7.63-1.788 7.94-1.9 8.287-2.966 16.606-5.74 24.987-8.118.607-.173 1.729-.418.389-.433-4.083-.047-8.477 1.772-12.317 3.535-3.824 1.754-7.552 3.953-11.127 6.456-.37.259-4.096 2.282-3.974 3.275.127 1.03 7.321-2.417 7.587-2.537 8.294-3.752 16.488-7.847 24.821-11.454 3.903-1.689 9.933 2.11 13.93.872 3.022-.936-6.124-.275-5.985-2.259-8.536 4.216-16.695 7.249-25.27 11.32-.136.065-2.653 1.089-1.486 1.302 2.882.527 6.166-1.34 8.89-2.369 6.581-2.486 13.167-4.966 19.742-7.463 1.238-.47-2.517.725-3.75 1.22-4.446 1.783-8.793 4.172-13.116 6.419-2.252 1.17-4.538 2.251-6.71 3.671-1.918 1.254 2.625.67 2.863.635 10.03-1.434 20.165-7.25 29.775-11.363.221-.095 2.881-1.276 1.212-.529-4.584 2.054-9.104 4.162-13.76 5.94-3.489 1.332-6.928 2.69-10.342 4.337-.223.108-3.395 1.562-2.809 1.721 2.193.595 5.044-.188 7.201-.723 5.123-1.272 10.204-3.562 15.236-5.402 2.203-.805 4.35-1.733 6.52-2.662 1.549-.663-1.36.6-1.52.66-4.172 1.585-10.135 3.136-13.622 6.818-.766.809 1.757.502 1.917.492 3.886-.239 7.657-2.04 11.437-3.188 1.567-.475 4.019-.61 5.438-1.715 1.548-1.208-3.572.579-5.304 1.214-1.76.645-3.167 1.716-4.775 2.784-.719.477-1.635.951-.046.943 2.365-.013 4.914-1.438 7.203-2.18 2.326-.755 4.647-1.568 6.929-2.532 1.068-.451-3.908 1.768-3.988 2.916-.045.644 6.908-2.787 7.681-3.323"/><path stroke="#171717" stroke-linecap="round" stroke-width="2" d="M22.418 79.948c-2.278-.16 4.532.594 6.779 1.036 8.668 1.708 17.334 2.49 26.114 3.104l7.036.492c3.806.267-7.653.366-11.46.12-6.058-.394-12.48-.188-18.395-1.85-2.133-.599-8.405-2.734-6.213-2.581 1.17.082 2.882 1.273 3.88 1.754 4.916 2.367 9.848 4.623 14.875 6.612 12.276 4.857 24.93 4.579 37.725 6.825 3.266.573 6.502 1.375 9.806 1.606 1.86.13-3.592-1.171-3.855-1.267-14.883-5.392-30.096-8.74-45.73-10.272-.258-.026-3.203-.747-2.029-.602 1.732.212 3.41.84 5.083 1.377 5.59 1.793 11.227 3.313 16.935 4.482 9.364 1.918 18.867 2.98 28.366 3.645 2.037.142 4.083.372 6.127.403.014 0 2.637-.263 2.084-.75-1.33-1.168-3.82-1.402-5.328-1.854-4.56-1.366-9.154-2.543-13.769-3.621-10.21-2.387-20.306-3.72-30.7-4.448-2.15-.15-5.288.35-7.262-.968-.261-.173.465-.577.761-.636 4.552-.916 9.477-.312 14.014-.17 16.23.504 31.76 3.347 47.645 6.807 6.361 1.386 13.42 3.12 19.97 2.956.975-.024.244-.508-.21-.705-2.208-.957-4.544-1.6-6.809-2.316-10.136-3.208-20.733-5.684-31.188-6.884-5.736-.66-11.519-.908-17.276-1.31-1.619-.114-6.067-.425-1.506-.106 11.984.838 23.748 3.39 35.627 5.2 10.098 1.54 20.255 2.488 30.436 3.1 1.96.118 4.446-.038 1.008-1.31-12.666-4.685-26.079-6.499-39.22-8.212-12.157-1.585-24.41-2.299-36.634-3.073-2.763-.175-5.576.53-8.29.34-.633-.044 1.246.282 1.86.463 4.116 1.21 8.162 2.75 12.269 4.002 16.35 4.983 33.075 9.252 49.969 10.6 6.177.493 12.366.933 18.552 1.297.893.053 1.797.122 2.681-.17.149-.05-2.704-.312-2.905-.331-12.022-1.175-23.997-2.573-36.05-3.416-8.877-.62-17.73-1.893-26.637-.482-1.285.204-9.209.82-3.807 1.472 16.911 2.04 34.033 2.392 50.995 3.898 11.3 1.004 22.886 2.817 34.284 1.912.333-.027 7.028-.7 6.311-2.524-.772-1.963-6.586-1.672-7.919-1.832-9.602-1.15-19.424-1.672-29.101-1.396-5.48.157-10.941 1.096-16.345 2.461-3.662.925-.096.71 1.654.832 9.671.676 19.263 1.16 28.979.876 5.242-.153 10.805-.337 15.931-2.235.007-.002 2.517-.728 1.444-1.279-3.853-1.976-9.064-2.018-13.141-2.631-8.058-1.212-16.163-1.974-24.294-2.364-2.245-.107-4.457-.03-6.704.17-.134.013-2.884.3-2.607.534 1.212 1.018 3.484 1.015 4.852 1.26 3.731.666 7.482 1.188 11.241 1.603 7.629.844 15.333 2.1 23.028 1.943 1.396-.028 4.159.51 5.475-.537.241-.192-.452-.431-.721-.51-1.73-.512-3.445-.864-5.153-1.511-6.647-2.518-13.102-4.137-20.052-4.623-2.692-.189 5.284 1.231 7.947 1.706 6.173 1.1 12.4 2.41 18.639 2.913 1.518.123 4.558.32 4.558.32s-3.947-1.069-5.924-1.59c-8.027-2.122-15.896-3.646-24.145-4.194-11.228-.747-22.079.84-33.204 3.43-7.249 1.687-14.335 3.043-21.659 3.546-2.366.162-9.429.711-7.097.091 1.525-.405 3.226-.123 4.742-.026 3.979.255 7.955.556 11.932.834l21.922 1.533c21.592 1.51-43.964.36-64.526-7.502-3.38-1.293-6.739-2.78-10.166-3.88-1.301-.419-5.3-1.113-3.952-1.019 4.758.333 9.51 1.126 14.239 1.456l-13.28-.928c-.68-.048-8.202-.831-4.54.832 8.472 3.85 17.73 4.036 26.442 6.68 1.427.434 2.815 1.118 4.297 1.221l-2.736-.191c-7.867-.55-15.7-1.558-23.554-2.107-.33-.023-4.542-4.265-4.706-1.925-.36.763 1.108 1.426 1.785 1.537 2.345.38 3.709 1.361 6.052 1.757 6.567 1.11 13.145 1.61 19.772 2.073 5.04.352 10.086.545 15.05 1.538 3.72.744 7.014.604 10.79.37 6.45-.398 12.806.962 19.232.681 3.175-.14 6.297.082 9.459.304l-16.689-1.167-8.641-.605c-.853-.06-2.18-.275-.453.199 8.221 2.255 17.084 2.805 25.497 3.393 6.715.47 12.769.56 19.306-2.075 1.235-.498 4.173-.435 4.339-2.815.113-1.618-1.09-2.605-1.996-3.36-2.76-2.303-6.022-4.583-9.215-5.783-3.627-1.362-7.576-1.27-11.346-1.534l-13.894-.972c-7.7-.538-15.108-3.284-22.772-3.893-3.76-.298-7.567-.73-11.345-.69-4.161.042-8.18 1.523-12.31 2.001-4.798.555-9.896-.598-14.6.87-4.851 1.515-9.306 4.602-14.097 6.479-.274.107 1.599-4.95-.546-1.879.53.08 3.6 2.633 4.118 2.793 4.335 1.337 4.776 1.612 9.256 1.925 2.379.167 4.63.495 6.966.922.708.13 1.266.574 1.968.623M81.204 228.242l14.698 1.027 2.37.166c2.921.204-5.842-.4-8.756-.68-4.947-.474-10.694-.911-15.475-2.468-.111-.036-.823-.429-.68-.419 2.583.181 5.17.334 7.75.559 6.901.602 13.99 1.074 20.844 2.066 2.786.403-2.85.088-3.3.056-1.86-.13-3.67-.259-5.531-.15-1.864.109-.34.044.65.113 10.888.762 21.989.944 32.814-.679 2.476-.371 4.95-.789 7.419-1.205.282-.048 1.549-.206.477-.068-5.799.744-11.693.572-17.522.228-3.549-.21-8.121-.577-11.541.714-.107.04-1.381.402-.882.529 2.239.571 5.023-.086 7.266-.235 4.527-.3 9.181-1.031 13.72-.714 2.166.152-4.337-.224-6.507-.218-4.031.011-7.907.422-11.911.688-2.206.147-4.527.968-6.732.814-1.823-.128-4.374.605-6.03 1.403-.553.267 1.612.417 1.695.423 2.551.178 5.033.237 7.578-.113 3.608-.495 7.159-1.439 10.703-2.259 4.268-.988 8.657-1.417 12.987-2.066 6.1-.915 12.233-1.646 18.307-2.742 1.185-.214 3.55-.696.904-.849-6.168-.356-12.767-.024-18.835 1.116-1.743.328-3.444.669-5.108 1.282-.176.065-1.568.553-.66.731 7.906 1.555 16.849.085 24.303-2.694 2.578-.961-5.361 1.241-8.04 1.871-5.657 1.331-12.025 2.736-17.888 2.552-4.831-.152 9.65.756 14.483.708 5.788-.057 11.467-.48 17.217-.925.296-.023 1.874-.173.744-.252l-5.583-.391c-3.82-.267-7.662-.665-11.494-.432-3.422.209-6.783 1.11-10.195 1.282-.247.012-2.766-.126-1.922-.067 3.075.215 6.078.303 9.157.032 5.767-.508 12.002-.788 17.654-2.112 1.414-.331 2.065-.435.278-.589-3.197-.275-6.366-.749-9.581-.974l13.52.946c4.693.328-9.403-.354-14.096-.682l-5.617-.393c-.903-.063.485.034.505.036 1.368.095 2.736.208 4.108.219 5.898.049 11.866-1.151 17.733-.821.45.025 3.228-.152 2.149.691-3.138 2.45-7.206 2.153-10.802 3.435-2.057.734 2.92-.304 3.506-.363 2.222-.221 4.486-.03 6.6-.857 1.052-.411 1.097-.941-.05-1.22-2.767-.671-5.604-.763-8.433-.961-3.313-.232 6.566 1.067 9.88 1.299.394.028-.784.112-1.177.154-2.65.285-5.272.73-7.937.882-9.658.55-19.363 1.01-29.04 1.095-4.34.038-8.65.259-12.963.75-4.564.519-9.431.719-13.949 1.559-1.789.333-3.597-.137-5.338.218-1.095.224-2.543.279-3.664.2-2.418-.169-4.029-.509-6.221-1.415-1.024-.423-2.227-1-3.338-1.078-1.623-.114 3.223.549 4.756 1.093 2.089.74-1.286.366-1.78.332-3.935-.275-4.537.291-12.428-1.782-2.306-.173-24.38-9.641-26.491-10.606"/><path stroke="#FFD424" stroke-linecap="round" stroke-width="2" d="M92.988 38.807c2.916.204 6.244-.046 8.803-1.63 2.49-1.54 2.994-5.577 3.76-8.135.463-1.543 1.548-3.74 1.179-5.406-.349-1.571-3.455-1.977-4.72-1.473-2.78 1.107-5.193 4.941-6.237 7.578-1.147 2.899-1.915 5.946-3.05 8.85-.273.697.912-.716 1.09-.89 2.574-2.517 5.638-4.404 8.124-7.062 1.371-1.465 2.944-3.203 3.033-5.317.04-.964-1.896-1.065-2.514-.924-.71.16-1.244.82-1.655 1.37-1.383 1.854-2.367 4.03-3.489 6.045-1.502 2.7-3.634 6.005-3.537 9.263.034 1.122 3.41-1.9 3.607-2.076 2.235-2.008 4.323-4.664 5.004-7.654.449-1.967-.23-4.067-2.636-3.625-3.4.626-4.962 5.774-6.018 8.477-.145.371-.938 2.346-.9 2.307 1.323-1.34 3.892-1.97 5.528-2.794 2.696-1.36 5.406-3.002 7.63-5.069.837-.778 1.621-1.895 1.804-3.054.278-1.76.534-3.439-1.437-3.978-3.344-.915-6.66 1.026-7.747 4.364"/><path stroke="#171717" stroke-linecap="round" stroke-width="2" d="M161.428 92.106c-.421 6.022-45.519 7.774-75.358 5.688-41.197-2.881-74.254-10.098-73.832-16.12 12.68-10.07 34.16-8.569 75.357-5.688 41.198 2.88 74.254 10.098 73.833 16.12Z"/><path stroke="#171717" stroke-linecap="round" stroke-linejoin="round" stroke-width="2" d="m12.188 81.835 6.25 26.892 27.317 5.945a356.61 356.61 0 0 0 110.923 6.429v0l4.647-28.837"/><path stroke="#171717" stroke-linecap="round" stroke-linejoin="round" stroke-width="2" d="m21.262 110.03 9.98 101.209 12.459 5.539a132.336 132.336 0 0 0 97.082 4.123v0l12.066-98.979"/><path stroke="#171717" stroke-width="2" d="M88.477 83.022c-2.327-6.612-4.943-21.083-1.705-36.537m0 0c1.068-5.096 2.773-10.298 5.334-15.361 12.91-25.521 28.821-6.772 11.376 6.358-5.602 3.243-13.579 1.547-16.71 9.003Z"/><path stroke="#171717" stroke-linecap="round" stroke-width="2" d="M100.992 28.766c-3.057 2.059-9.993 7.936-13.282 14.977"/><path stroke="#171717" stroke-width="2" d="M85.734 52.918a11.46 11.46 0 0 0-.041-.422m0 0c-.497-4.27-3.888-11.164-13.396-10.868-3.229.1-6.13 5.465-2.817 7.64 4.583 3.007 12.392-5.727 16.213 3.228Z"/><path stroke="#171717" stroke-linecap="round" stroke-width="2" d="M14.07 84.444c-.145 2.058-.571 4.337-.061 6.335.625 2.447 1.343 5.025 2.427 7.247 1.422 2.915 2.155 6.016 3.25 9.053 1.333 3.698 6.356 3.879 9.38 4.476 3.14.62 6.214 1.598 9.366 2.051 2.453.352 5.035.37 7.466.859 2.42.487 4.89.594 7.31 1.041 1.613.297 3.084.777 4.742.893 1.154.081 1.985.592 3.09.81 3.272.646 6.485 2.287 9.692 3.261 3.22.979 6.203 1.878 9.546 2.112.893.063 1.67-.262 2.6-.091 4.48.827 8.957 1.188 13.5 1.506 3.79.265 7.539.816 11.333 1.081 3.173.222 6.083-1.119 9.136-1.961 5.609-1.545 10.871-.684 16.474-.292 2.793.195 5.491-.194 8.277.001l7.884.551c1.727.121 3.462-.734 5.079-1.506.816-.389 1.583-.505 2.086-1.459.786-1.488.609-4.239.724-5.887.526-7.529 3.57-14.572 4.095-22.085"/><path stroke="#171717" stroke-linecap="round" stroke-width="2" d="M20.617 111.206c-1.274 18.217 4.17 36.01 6.061 53.95.343 3.249 1.573 6.448 1.664 9.691.123 4.382.536 9.429 1.275 13.758 1.013 5.929 2.064 12.151 1.637 18.261-.203 2.906.985 3.031 3.009 4.216 2.784 1.631 5.512 3.411 8.283 5.057 2.995 1.78 6.59 2.434 9.842 3.605 5.929 2.135 11.846 4.059 17.508 7.057 7.335 3.883 16.307 3.527 24.299 4.085 8.011.561 15.411-5.912 23.337-5.615 5.152.194 12.442-1.687 17.507-2.591 1.354-.242 4.534-.684 5.29-1.987.884-1.523-.047.669.081-1.157.179-2.556 1.757-5.04 1.941-7.671.202-2.893.876-5.835 1.085-8.82l1.173-16.769c.335-4.796.285-10.036 1.514-14.594 1.267-4.691 3.496-10.183 3.841-15.108.79-11.302 2.079-23.045 2.882-34.53M87.75 41.175c.236-3.387.33-6.997 2.428-9.864 1.958-2.674 3.894-5.342 6.009-7.904 1.187-1.438 1.984-2.599 3.682-3.451 1.301-.653 2.355-.785 3.819-.513.913.169 1.775.653 2.602 1.058.651.32 1.573.365 2.111.847 1.224 1.097 1.142 2.802 1.034 4.346-.143 2.04-1.245 3.914-2.04 5.78-.409.962-.993 1.854-1.472 2.782-.446.862-.797 1.779-1.291 2.615-.928 1.57-3.264 2.595-4.926 3.163-1.923.658-3.96.744-5.825 1.57-2.597 1.15-5.857 2.462-7.248 5.12-.543 1.037-.372 2.603-.47 3.735-.073.856-.301 1.78-.523 2.61-.416 1.55-1.155 16.515 2.195 29.28"/><path stroke="#171717" stroke-linecap="round" stroke-width="2" d="M89.314 41.935c.098-.794.84-1.702 1.267-2.357.487-.749 1.04-1.445 1.533-2.188 1.045-1.573 2.555-2.793 3.964-4.035 1.196-1.055 2.3-2.231 3.483-3.298.345-.312.628-.83 1.055-1.007M85.048 56.083l.21-2.993c.097-1.396-.22-2.862-.67-4.188-.788-2.316-2.002-4.515-3.929-6.106-1.053-.87-2.49-1.24-3.798-1.54-1.437-.328-2.889-.586-4.36-.69-1.45-.1-2.582.584-3.94.956-1.016.277-1.482.84-1.787 1.822-.278.894-.419 2.293-.106 3.192.292.837.85 2.014 1.634 2.501 2.182 1.354 4.657-.11 6.712-.954 1.368-.56 2.572-.94 4.059-.968 1.607-.03 3.213.27 4.688.906.875.376 1.602 1.085 2.127 1.86"/></svg>