<svg width="206" height="256" viewBox="0 0 206 256" fill="none" xmlns="http://www.w3.org/2000/svg">
<g filter="url(#filter0_dd_3008_23711)">
<path d="M99.9106 74.9054C117.408 73.9213 133.803 73.8876 146.68 74.8506L146.685 74.8509C158.263 75.7263 164.843 77.2137 168.667 79.0207C170.645 79.9556 172.253 81.1451 173.317 82.7328C174.457 84.4333 174.567 86.0149 174.607 86.5869L174.608 86.599L174.611 86.6324C174.63 86.8963 174.679 87.5853 174.522 88.4674L173.953 116.5C173.953 116.503 173.953 116.505 173.953 116.508M99.9106 74.9054L168.954 116.406L173.953 116.508M99.9106 74.9054L98.5593 55.5805C100.631 50.8255 105.615 48.0379 112.651 46.7137C119.965 45.3372 128.036 45.8725 132.991 46.4738L132.993 46.4741C142.469 47.6188 151.682 42.5744 154.95 33.6448C157.89 25.6205 155.22 16.1668 147.231 12.4201C133.067 5.76799 120.15 10.0359 110.593 16.4655C101.135 22.8282 94.3168 31.6739 91.3998 35.8424C90.9253 36.5182 90.4856 37.2145 90.0801 37.9292C86.8305 34.7848 81.6847 30.4378 75.4446 27.4114C67.291 23.457 56.5699 21.4859 46.0589 28.3459L99.9106 74.9054ZM173.953 116.508C173.905 118.894 172.458 120.969 170.35 121.889M173.953 116.508L170.35 121.889M170.35 121.889L170.278 117.945L168.344 117.98L168.341 117.98L165.278 118.036M170.35 121.889L168.189 117.362C167.615 117.503 167.037 117.634 166.459 117.765C166.065 117.854 165.671 117.944 165.278 118.036M170.35 121.889L171.952 209.242M170.35 121.889L46.0574 28.3469C39.7184 32.4804 38.6601 40.7461 42.01 47.0229L42.0123 47.0273C45.7631 54.0384 53.9343 57.0875 61.5358 55.0701L60.2532 50.2374L61.5358 55.0701C65.1333 54.1153 70.9575 52.9055 76.3738 53.1439C81.4598 53.3677 84.874 54.7641 86.6445 57.3621L87.9261 75.6896C69.4206 76.9911 54.8801 78.1073 43.5666 80.2264C31.2246 82.5381 21.8671 86.1799 15.0893 93.3076C15.0872 93.3098 15.085 93.3121 15.0829 93.3143L14.7857 93.625L13.2568 95.2234L13.4111 97.4299L13.4131 97.4577C13.3907 98.0738 13.4584 98.7937 13.7172 99.558C13.828 99.9585 13.9848 100.394 14.2101 100.847L23.7331 125.525C24.3778 127.216 25.7111 128.445 27.2885 129.02L50.4581 224.532L50.46 224.54C50.9489 226.541 52.4772 228.275 54.6456 228.887C54.6565 228.89 54.6673 228.893 54.6782 228.896L67.7358 232.639L67.7391 232.639C78.2674 235.649 88.989 237.386 99.7208 237.863C104.647 238.532 112.979 239.16 124.632 238.345C125.825 238.261 127.071 238.164 128.364 238.042C145.752 236.448 169.583 231.845 187.318 225.109C187.469 225.052 187.615 224.988 187.757 224.918C190.953 223.497 192.84 220.2 192.387 216.684C191.902 212.915 188.9 210.185 185.28 209.818L185.134 209.803L184.988 209.797L171.952 209.242M170.35 121.889C170.048 122.021 169.732 122.129 169.405 122.211L169.395 122.214L169.385 122.217C168.792 122.363 168.095 122.521 167.464 122.664C167.081 122.751 166.722 122.833 166.426 122.903L165.278 118.036M170.35 121.889L165.278 118.036M171.952 209.242L167.252 209.042L167.039 214.037L172.039 213.946L171.952 209.242ZM190.538 220.078C190.586 220.769 190.491 221.442 190.275 222.064C190.492 221.437 190.586 220.762 190.538 220.078ZM187.336 225.092C187.333 225.093 187.33 225.094 187.327 225.095C187.33 225.094 187.333 225.093 187.336 225.092Z" fill="white" stroke="white" stroke-width="10"/>
<path d="M21.7088 96.963C24.2891 96.7826 26.7952 96.1473 29.3672 95.9674C29.7594 95.94 30.427 95.7399 29.6518 96.0498C27.0222 97.1009 28.9577 94.5701 26.596 96.2982C25.5697 97.0492 24.7721 98.0272 23.8063 98.8449C21.9241 100.439 23.6432 101.441 25.6302 100.063C30.3707 96.7748 35.2421 93.7745 39.9306 90.3722C41.275 89.3965 42.6423 88.2614 44.1186 87.5999C46.9313 86.3396 38.4426 89.9511 35.6524 91.2848C34.0671 92.0426 28.6154 95.1374 33.6535 94.0318C39.3302 92.786 44.3857 90.0871 49.7454 87.7432C52.855 86.3834 43.7506 91.2251 41.0286 93.5416C38.9915 95.2752 35.4468 98.6287 40.2462 96.0246C43.514 94.2516 46.764 92.4676 50.0813 90.8382C51.7242 90.0312 54.9373 89.43 56.2694 87.9005C60.1572 83.4365 46.6653 93.4402 42.3172 97.1579C40.9845 98.2973 39.7719 99.5303 38.5517 100.846C37.5881 101.886 41.4229 100.313 41.4801 100.284C50.1146 95.8005 59.4577 91.9129 67.3592 85.7961C67.716 85.5199 69.2526 84.5116 67.9152 84.6326C63.7975 85.0049 57.9649 84.3705 54.296 86.4537C47.7658 90.1615 41.2393 94.6961 35.6513 100.385C31.4917 104.619 45.9497 96.5444 50.8982 93.9762C55.6005 91.5357 60.2772 88.9881 64.9282 86.4004C66.3634 85.6019 67.7837 84.5485 69.3015 83.9986C70.3609 83.6147 67.1684 84.722 66.1401 85.2165C62.0364 87.1902 58.2635 90.5252 54.6121 93.5375C52.6649 95.1438 50.8229 96.8947 48.9535 98.6364C47.9077 99.6108 48.2645 99.7534 49.4589 99.598C57.4716 98.555 65.4023 92.9226 72.0873 87.6635C72.2284 87.5524 74.6452 85.9838 74.5288 85.5501C74.3549 84.9024 68.4033 88.7316 68.1132 88.9382C65.0938 91.0887 62.1764 93.5467 59.3736 96.1185C58.9685 96.4903 55.6396 99.9899 55.7413 100.002C58.8032 100.372 63.0038 96.6577 65.5546 95.0728C70.1898 92.1929 74.7112 88.9633 79.517 86.5305C80.7422 85.9102 84.4243 84.1145 83.2679 84.9135C79.475 87.5337 75.7677 90.3486 71.9815 92.9875C67.9277 95.813 63.8277 98.5128 59.8264 101.455C59.3025 101.84 55.2335 103.911 55.1909 104.948C55.1668 105.535 61.5572 103.184 61.8699 103.05C68.4127 100.249 74.5312 96.3866 80.573 92.2334C83.4654 90.2452 86.071 87.9725 88.7986 85.677C89.3184 85.2395 91.3737 83.6567 89.317 84.2604C81.5481 86.5408 74.8469 92.9553 68.1968 98.1088C67.9441 98.3046 66.0702 99.3821 67.3633 99.2917C72.3115 98.9457 76.8741 96.4315 81.3857 94.1703C86.633 91.5404 91.7428 88.7308 96.7985 85.5776C98.3336 84.6202 99.8828 83.6993 101.421 82.7495C101.839 82.4912 103.256 81.9998 103.562 81.475C104.77 79.4073 99.7701 83.3289 97.9563 84.4743C92.7934 87.7343 87.4833 90.9257 82.5833 94.7767C81.926 95.2932 74.0725 101.973 74.3028 102.257C74.763 102.825 77.8084 101.012 78.0319 100.897C81.4252 99.1563 84.7006 97.0407 87.9758 94.9875C92.7121 92.0184 97.4596 89.1183 102.318 86.4697C102.68 86.2725 106.917 84.4503 106.868 83.7488C106.838 83.3098 101.974 85.8463 101.803 85.9434C97.9386 88.1478 93.9906 90.0839 90.1403 92.3312C88.786 93.1217 87.4302 93.7749 86.1454 94.7321C84.4211 96.0168 90.1562 94.042 92.0817 93.3201C100.583 90.1327 108.739 85.4422 117.131 81.8298C122.821 79.3805 106.522 88.9102 101.128 92.2275C97.2515 94.6108 93.2931 96.8337 89.5248 99.4802C88.4747 100.218 85.3723 102.354 86.5586 102.065C89.8335 101.266 92.9317 99.2802 95.9714 97.6747C103.446 93.7265 110.827 89.5506 118.214 85.3581C120.97 83.7945 124.964 85.1135 127.669 83.4189C129.86 82.0472 125.367 82.1719 124.618 82.5076C115.602 86.5477 107.211 91.3541 98.9823 97.4386C98.7075 97.6418 95.443 99.7179 95.6067 100.435C95.8576 101.535 102.913 97.6035 103.206 97.45C110.998 93.3583 118.851 89.4545 126.819 85.9322C127.396 85.6771 128.473 85.2783 127.144 85.4494C123.094 85.9711 118.996 88.3846 115.439 90.6644C111.896 92.9342 108.51 95.6303 105.318 98.6058C104.987 98.9142 101.58 101.436 101.839 102.402C102.108 103.404 108.753 98.9901 108.999 98.8341C116.69 93.9641 124.234 88.769 131.985 84.0374C135.614 81.8217 142.114 84.7442 145.9 82.9622C148.762 81.6152 139.798 83.5422 139.659 81.5581C131.793 86.9207 124.135 91.0597 116.21 96.285C116.084 96.3678 113.735 97.732 114.92 97.781C117.847 97.902 120.839 95.5962 123.394 94.1979C129.565 90.8199 135.742 87.4474 141.905 84.0594C143.066 83.4214 139.513 85.1285 138.361 85.7897C134.207 88.1743 130.234 91.1452 126.266 93.9715C124.199 95.4438 122.085 96.8329 120.132 98.5413C118.407 100.05 122.825 98.8382 123.056 98.7713C132.789 95.955 142.016 88.786 150.96 83.3751C151.165 83.2506 153.635 81.71 152.086 82.6828C147.833 85.3546 143.651 88.071 139.287 90.4793C136.017 92.284 132.801 94.1079 129.649 96.2143C129.443 96.352 126.505 98.2335 127.107 98.3091C129.361 98.5927 132.076 97.4212 134.137 96.5906C139.034 94.618 143.747 91.6434 148.473 89.1212C150.543 88.0171 152.54 86.7991 154.559 85.5772C156.002 84.7048 153.296 86.3605 153.146 86.4429C149.235 88.5929 143.546 90.9583 140.605 95.0903C139.96 95.9974 142.415 95.3426 142.572 95.3106C146.388 94.5333 149.871 92.2243 153.454 90.5622C154.94 89.8729 157.35 89.3984 158.6 88.1064C159.966 86.6954 155.144 89.1768 153.518 90.0466C151.864 90.9305 150.62 92.1869 149.176 93.4686C148.531 94.0413 147.69 94.6381 149.261 94.4083C151.602 94.0662 153.928 92.3004 156.091 91.2469C158.289 90.1763 160.475 89.0478 162.601 87.7755C163.595 87.1802 158.977 90.0703 159.057 91.2184C159.102 91.8627 165.51 87.4973 166.201 86.8591" stroke="#171717" stroke-width="2" stroke-linecap="round"/>
<path d="M29.4308 94.5835C27.1534 94.7427 34.0018 94.5407 36.2883 94.6663C45.1103 95.1508 53.8002 94.7198 62.5801 94.1058C64.9255 93.9418 67.271 93.7778 69.6164 93.6138C73.4228 93.3476 62.0886 95.0413 58.2836 95.3265C52.2306 95.7801 45.8996 96.8784 39.8113 96.0558C37.6157 95.7592 31.1072 94.5174 33.2994 94.3641C34.4685 94.2823 36.3301 95.2233 37.3865 95.5608C42.5831 97.2208 47.781 98.7688 53.0362 100.039C65.869 103.14 78.3604 101.103 91.3435 101.547C94.6576 101.66 97.9741 102.003 101.278 101.772C103.139 101.642 97.5575 101.112 97.2844 101.055C81.7955 97.7858 66.2643 96.5878 50.5703 97.2461C50.3102 97.257 47.2939 96.9531 48.4769 96.9324C50.2216 96.9019 51.9701 97.291 53.7014 97.5895C59.4868 98.5867 65.2804 99.3074 71.0956 99.6705C80.636 100.266 90.1942 99.9965 99.6935 99.3322C101.73 99.1898 103.788 99.1321 105.816 98.8785C105.831 98.8767 108.392 98.2515 107.776 97.8469C106.296 96.8747 103.798 96.9888 102.242 96.7513C97.5357 96.033 92.8224 95.5075 88.103 95.0817C77.6601 94.1394 67.4763 94.2235 57.0821 94.9504C54.933 95.1007 51.8947 96.0317 49.7561 95.0026C49.4736 94.8666 50.1365 94.3662 50.4217 94.2659C54.8019 92.7254 59.7629 92.6386 64.2755 92.1469C80.4174 90.388 96.1926 91.0416 112.404 92.2577C118.896 92.7447 126.128 93.4788 132.591 92.4053C133.553 92.2455 132.762 91.8682 132.285 91.7365C129.965 91.0957 127.563 90.7849 125.22 90.3902C114.736 88.6241 103.898 87.6473 93.3778 87.9136C87.6056 88.0597 81.8444 88.6179 76.0871 89.0205C74.4686 89.1336 70.0198 89.4447 74.5807 89.1258C86.5652 88.2878 98.5696 89.1778 110.585 89.3176C120.799 89.4364 130.99 88.9615 141.157 88.1511C143.114 87.9951 145.554 87.4946 141.972 86.7138C128.777 83.837 115.243 83.9071 101.99 84.0396C89.7317 84.1621 77.4993 85.1605 65.2864 86.0949C62.5257 86.3062 59.8382 87.3961 57.1249 87.5858C56.4914 87.6301 58.3969 87.6914 59.0309 87.7849C63.2745 88.4101 67.4951 89.3724 71.7367 90.0404C88.6209 92.6991 105.778 94.5991 122.695 93.583C128.88 93.2115 135.07 92.7863 141.247 92.2857C142.138 92.2134 143.044 92.1566 143.878 91.7438C144.018 91.6742 141.157 91.8119 140.955 91.8204C128.886 92.3303 116.834 92.6125 104.78 93.4554C95.9037 94.0761 86.9599 94.0483 78.336 96.6848C77.0916 97.0653 69.331 98.7785 74.7703 98.6723C91.8014 98.3397 108.805 96.3044 125.812 95.4354C137.142 94.8565 148.867 95.0397 160.028 92.5571C160.354 92.4846 166.89 90.8861 165.926 89.1796C164.889 87.3428 159.172 88.4402 157.83 88.4677C148.161 88.6659 138.362 89.5146 128.817 91.1355C123.412 92.0534 118.136 93.7435 112.974 95.8475C109.477 97.2728 112.978 96.5629 114.728 96.4405C124.399 95.7642 133.965 94.9079 143.547 93.2751C148.716 92.3941 154.199 91.4381 159.012 88.8452C159.018 88.8416 161.403 87.7732 160.263 87.3774C156.173 85.9562 151.007 86.6403 146.884 86.6004C138.736 86.5215 130.604 86.8953 122.498 87.641C120.26 87.847 118.08 88.2308 115.883 88.7426C115.752 88.7731 113.068 89.4413 113.376 89.6336C114.717 90.4728 116.966 90.1539 118.355 90.2056C122.143 90.3466 125.93 90.3411 129.71 90.2296C137.382 90.0034 145.186 90.1741 152.785 88.9483C154.163 88.7259 156.974 88.875 158.132 87.6543C158.343 87.4312 157.624 87.2905 157.346 87.2491C155.562 86.9832 153.815 86.8733 152.034 86.4703C145.101 84.9019 138.483 84.1972 131.533 84.6832C128.841 84.8715 136.937 85.1672 139.64 85.2665C145.906 85.4967 152.255 85.9277 158.503 85.5579C160.024 85.4679 163.062 85.2391 163.062 85.2391C163.062 85.2391 159.004 84.731 156.974 84.489C148.73 83.5058 140.726 83.0918 132.48 83.6968C121.257 84.5202 110.732 87.6015 100.077 91.7138C93.1331 94.3937 86.3049 96.7236 79.1219 98.2402C76.8015 98.7301 69.8838 100.257 72.1067 99.3187C73.5607 98.7047 75.2842 98.7477 76.7991 98.6327C80.7746 98.3309 84.7539 98.0764 88.7311 97.7983C96.0383 97.2873 103.346 96.7764 110.653 96.2654C132.245 94.7555 67.1669 102.74 45.7104 97.816C42.184 97.0067 38.6505 96.0011 35.1039 95.3881C33.7569 95.1553 29.7002 95.0247 31.0485 94.9304C35.8066 94.5977 40.6219 94.7211 45.3514 94.3904C49.778 94.0808 36.4982 95.0095 32.0716 95.319C31.3918 95.3665 23.8337 95.6374 27.6919 96.7755C36.617 99.4081 45.8101 98.3046 54.8058 99.7105C56.2796 99.9408 57.7484 100.425 59.2304 100.321C59.378 100.311 57.0212 100.476 56.4951 100.513C48.6273 101.063 40.7318 101.155 32.8766 101.704C32.5461 101.727 27.7855 98.1129 27.9491 100.453C27.6984 101.259 29.2445 101.711 29.9303 101.726C32.305 101.777 33.7926 102.558 36.1675 102.624C42.8256 102.809 49.409 102.388 56.0362 101.925C61.0764 101.573 66.1001 101.061 71.1535 101.353C74.9407 101.573 78.1833 100.976 81.8894 100.219C88.2216 98.9268 94.7056 99.3893 101.03 98.2164C104.155 97.6367 107.277 97.4216 110.439 97.2005C116.002 96.8115 99.3133 97.9785 93.7503 98.3675C90.8697 98.569 87.9891 98.7704 85.1085 98.9718C84.2559 99.0314 82.9122 99.0025 84.6885 99.2312C93.143 100.32 101.996 99.6313 110.409 99.043C117.124 98.5734 123.131 97.8205 129.238 94.3012C130.392 93.6362 133.31 93.2896 133.144 90.9097C133.031 89.2924 131.702 88.4819 130.7 87.8599C127.645 85.9643 124.098 84.1602 120.769 83.4166C116.988 82.5722 113.089 83.2123 109.32 83.4759C104.689 83.7998 100.057 84.1236 95.426 84.4475C87.7259 84.9859 80.008 83.2979 72.3334 83.7618C68.5679 83.9894 64.739 84.0923 61.0031 84.6563C56.8882 85.2776 53.1155 87.304 49.0919 88.3521C44.4175 89.5697 39.2089 89.1372 34.7545 91.2461C30.1614 93.4207 26.18 97.0976 21.6967 99.623C21.4404 99.7673 22.591 94.4994 20.8948 97.8387C21.4306 97.8442 24.825 99.9453 25.3605 100.031C29.8401 100.752 30.3145 100.963 34.7946 100.65C37.1738 100.483 39.449 100.495 41.8215 100.593C42.5407 100.623 43.155 100.985 43.8572 100.936" stroke="#171717" stroke-width="2" stroke-linecap="round"/>
<path d="M108.286 233.252C113.185 232.91 118.084 232.567 122.984 232.224C123.774 232.169 124.564 232.114 125.355 232.059C128.275 231.854 119.513 232.475 116.589 232.604C111.623 232.823 105.872 233.19 100.92 232.314C100.805 232.294 100.046 232.003 100.188 231.993C102.772 231.813 105.355 231.604 107.942 231.468C114.859 231.104 121.944 230.584 128.87 230.613C131.685 230.625 126.06 231.097 125.611 231.128C123.751 231.258 121.94 231.382 120.111 231.749C118.281 232.117 119.781 231.84 120.772 231.771C131.659 231.009 142.678 229.645 153.172 226.531C155.571 225.819 157.964 225.061 160.35 224.305C160.623 224.219 161.855 223.886 160.814 224.172C155.174 225.716 149.314 226.366 143.493 226.836C139.95 227.122 135.371 227.395 132.164 229.149C132.064 229.204 130.853 229.74 131.364 229.796C133.661 230.05 136.327 229.011 138.527 228.552C142.969 227.625 147.475 226.253 152.015 225.936C154.18 225.785 147.689 226.318 145.54 226.625C141.55 227.197 137.769 228.144 133.841 228.964C131.676 229.416 129.492 230.553 127.288 230.707C125.465 230.834 123.041 231.915 121.512 232.936C121.001 233.277 123.166 233.124 123.249 233.118C125.8 232.94 128.266 232.653 130.738 231.953C134.241 230.96 137.627 229.531 141.022 228.226C145.111 226.653 149.398 225.618 153.595 224.372C159.509 222.617 165.48 221.04 171.342 219.109C172.486 218.733 174.761 217.925 172.12 218.142C165.962 218.649 159.473 219.896 153.623 221.869C151.942 222.436 150.305 223.011 148.743 223.85C148.578 223.938 147.268 224.615 148.191 224.666C156.237 225.105 164.888 222.404 171.882 218.615C174.302 217.305 166.746 220.59 164.182 221.587C158.765 223.693 152.654 225.97 146.823 226.603C142.018 227.125 156.484 226.009 161.264 225.289C166.987 224.427 172.552 223.218 178.184 221.977C178.474 221.913 180.015 221.545 178.886 221.624C177.025 221.754 175.164 221.884 173.303 222.014C169.483 222.281 165.622 222.422 161.86 223.186C158.501 223.868 155.298 225.229 151.943 225.873C151.7 225.92 149.186 226.134 150.03 226.075C153.105 225.86 156.091 225.529 159.102 224.832C164.743 223.527 170.878 222.381 176.291 220.284C177.645 219.76 178.276 219.566 176.484 219.662C173.28 219.835 170.075 219.806 166.861 220.031C162.354 220.346 175.875 219.401 180.381 219.086C185.074 218.757 171.02 220.044 166.327 220.373C164.455 220.503 162.583 220.634 160.711 220.765C159.807 220.828 161.195 220.731 161.215 220.73C162.583 220.634 163.953 220.556 165.314 220.376C171.161 219.603 176.904 217.584 182.76 217.094C183.209 217.057 185.936 216.494 184.984 217.48C182.218 220.343 178.148 220.614 174.765 222.385C172.831 223.397 177.614 221.677 178.187 221.537C180.357 221.009 182.625 220.883 184.603 219.771C185.588 219.217 185.559 218.685 184.384 218.569C181.55 218.289 178.728 218.593 175.9 218.791C172.586 219.022 182.55 218.934 185.863 218.702C186.258 218.675 185.103 218.922 184.72 219.019C182.135 219.669 179.601 220.475 176.983 220.996C167.495 222.886 157.948 224.692 148.378 226.123C144.086 226.764 139.848 227.583 135.645 228.669C131.198 229.819 126.406 230.694 122.049 232.155C120.324 232.733 118.469 232.52 116.793 233.114C115.74 233.487 114.314 233.743 113.193 233.822C110.775 233.991 109.133 233.877 106.835 233.286C105.762 233.01 104.491 232.605 103.38 232.683C101.757 232.796 106.648 232.778 108.242 233.103C110.413 233.546 107.019 233.645 106.525 233.68C102.59 233.955 102.073 234.599 93.9703 233.645C91.6628 233.794 68.485 227.49 66.2606 226.829" stroke="#171717" stroke-width="2" stroke-linecap="round"/>
<path d="M99.0855 44.2584C101.509 43.9667 103.851 41.977 105.884 40.776C108.974 38.9513 112.358 37.5915 115.618 36.1047C121.169 33.5728 127.291 35.0451 132.909 33.04C133.618 32.787 136.995 32.0035 137.18 31.1316C137.528 29.4888 135.653 27.943 134.572 27.0886C131.073 24.3235 126.686 24.0599 122.496 25.2837C119.821 26.0653 117.44 27.6288 115.329 29.4179C114.417 30.1914 113.317 31.23 112.888 32.3943C112.678 32.9646 113.622 32.7767 113.886 32.7605C116.778 32.5822 119.711 32.4597 122.576 32.0187C125.281 31.6024 128.028 30.9074 130.536 29.7965C131.42 29.405 132.793 28.7961 133.203 27.8103C133.402 27.3316 132.626 27.1703 132.317 27.1345C128.838 26.7307 124.889 27.6312 121.568 28.4674C114.959 30.1312 108.812 33.0021 102.89 36.324C101.13 37.3115 98.912 38.3819 97.5063 39.8975C97.3089 40.1102 98.1044 39.9164 98.3716 39.8034C102.517 38.0503 106.51 35.9264 110.433 33.7285C113.41 32.0605 116.424 30.3839 119.241 28.4512C119.313 28.4019 121.613 26.9454 120.831 26.8869C117.702 26.6529 114.206 28.6092 111.638 30.179C110.726 30.7363 109.41 31.9257 111.001 30.6595C111.054 30.6173 111.582 30.2295 111.246 30.1729C110.246 30.0042 108.9 31.1224 108.174 31.6397C105.999 33.1906 103.523 34.7684 101.689 36.7321C100.392 38.1205 98.9353 40.0865 98.1088 41.8004C97.8373 42.3635 98.3857 40.5291 98.7915 40.0535C100.997 37.4685 103.204 34.8927 105.368 32.2718C107.324 29.9036 109.099 27.2941 111.441 25.2855C113.32 23.6738 115.372 22.7697 117.638 21.834C121.983 20.0401 126.207 19.2227 130.869 18.8967C133.952 18.6812 136.696 19.0994 139.466 20.5088C141.753 21.6723 143.137 23.9299 143.315 26.4661C143.467 28.6417 141.8 32.064 139.697 32.923C136.838 34.0914 132.993 33.9785 130.081 33.193C126.554 32.2419 123.571 30.0371 120.148 28.9468C119.879 28.8612 118.095 28.1798 117.908 28.5668C117.769 28.8541 117.545 28.9802 117.253 29.1045C116.071 29.6065 114.913 30.0341 113.835 30.7519C111.446 32.3439 109.031 34.1151 107.136 36.2954C106.573 36.9425 106.302 37.7565 105.834 38.4544C105.465 39.0036 107.967 38.2196 108.174 38.1902C114.012 37.3608 119.892 36.7671 125.774 36.3558C129.219 36.1149 132.121 37.3347 135.462 37.8917C137.312 38.2002 139.234 37.9409 140.884 37.1101C141.626 36.7367 142.202 36.2905 142.644 35.5786C143.263 34.5819 144.386 33.6744 144.829 32.6089C145.343 31.3704 144.51 29.9809 144.129 28.8348C143.706 27.5665 142.891 26.1628 142.797 24.8143C142.755 24.2168 140.656 23.2944 140.213 23.0277C138.976 22.2826 137.745 21.5276 136.522 20.7595C136.214 20.566 135.509 20.0254 136.338 20.3699C138.841 21.41 141.126 23.0638 143.523 24.3276C143.748 24.4464 145.688 25.838 145.197 25.2501C142.728 22.2907 140.047 18.6507 136.51 16.9149C135.051 16.1988 132.822 16.3741 131.235 16.4566C129.624 16.5404 131.5 16.4078 132.055 16.511C133.786 16.8329 135.499 17.1482 137.248 17.3999C139.103 17.6669 141.979 17.7792 143.409 19.1824C145.128 20.8681 146.379 22.5246 147.07 24.8509C147.65 26.808 148.181 29.2528 147.051 31.1456C146.344 32.3305 144.951 33.009 143.633 33.2514C140.734 33.7844 138.598 31.9893 136.594 30.0995C134.778 28.3874 133.051 26.579 131.263 24.8384C130.391 23.99 129.11 23.1606 128.352 22.225C127.902 21.6691 129.696 22.7163 130.361 22.9788C132.809 23.9447 135.317 24.7475 137.763 25.7252C139.277 26.3303 140.775 26.9418 142.256 27.6244C142.586 27.7769 143.505 28.3242 142.67 27.7966C141.237 26.8909 139.93 25.7788 138.548 24.7985C136.599 23.4161 134.529 22.2445 132.532 20.9378C132.483 20.9053 131.241 20.0662 131.446 20.1083C132.362 20.2972 133.279 20.5207 134.194 20.721C135.934 21.1019 137.663 21.4798 139.342 22.0825C139.393 22.101 140.987 22.7187 140.911 22.7777C140.388 23.1815 138.28 22.3753 137.856 22.2535C134.501 21.2902 131.137 20.2272 127.823 19.1321C126.542 18.7089 125.265 18.06 123.93 17.817C123.383 17.7172 124.097 17.7606 124.283 17.7476C126.721 17.5771 129.131 17.4629 131.572 17.428C133.13 17.4056 132.131 17.0771 131.161 16.6742C128.745 15.6701 126.268 16.8188 123.873 17.4744C118.565 18.9276 113.571 21.3689 109.463 25.1332C108.957 25.5971 109.626 25.4183 110.005 25.3747C112.08 25.1367 114.147 24.8637 116.226 24.6491C122.103 24.0421 128.651 23.0974 134.418 24.886C134.645 24.9563 138.333 26.5023 137.111 26.7881C135.21 27.2327 132.735 26.6315 130.842 26.4999C125.85 26.1525 120.848 25.9012 115.85 25.6703C114.379 25.6023 109.965 25.6123 111.434 25.5095C113.505 25.3648 115.81 25.8564 117.831 26.1912C123.15 27.0725 128.986 27.9059 133.9 30.2655C135.851 31.2023 130.887 30.3343 130.592 30.2733C129.066 29.9577 127.534 29.6173 126.025 29.2289C125.054 28.9789 127.988 29.6762 128.921 30.0436C131.337 30.9945 134.137 32.0198 136.236 33.6122C137.004 34.1955 135.262 34.1585 135.111 34.1492C132.917 34.0135 130.721 33.4708 128.546 33.155C127.417 32.991 126.295 32.784 125.167 32.62C124.621 32.5408 126.378 32.8892 126.507 32.9287C128.104 33.4149 129.663 34.0202 131.093 34.8884C131.272 34.997 132.686 35.7319 132.63 36.0776C132.598 36.2706 119.595 34.5586 118.6 34.4653C115.535 34.1782 112.559 34.1701 109.499 34.2746C108.986 34.2921 110.912 34.0576 111.391 34.1646C114.683 34.8996 117.752 36.2595 121.007 37.0804C125.598 38.2379 130.025 38.2718 134.683 37.9462C136.725 37.8033 142.881 37.5225 142.671 34.5259C142.56 32.9442 143.121 31.7235 144.155 30.4874C145.196 29.2429 144.509 27.7238 144.723 26.3005C144.821 25.6465 145.583 26.8954 145.605 26.9207C146.393 27.8662 147.15 28.8599 147.857 29.8708C148.387 30.6297 148.894 32.4324 148.211 33.1772C147.568 33.8777 146.137 33.9668 145.288 34.3876C144.585 34.7363 143.791 34.9602 143.134 35.3878C142.189 36.0028 141.392 36.8216 140.449 37.4423C140.285 37.5505 139.317 38.0245 139.494 38.0121C139.997 37.977 140.118 37.6865 140.494 37.4392C141.865 36.5367 143.788 35.8769 144.673 34.3859C145.069 33.7187 145.13 33.0397 145.448 32.3532C145.95 31.2668 146.463 30.1893 146.712 29.0119C146.987 27.715 148.461 24.1997 146.177 24.075C145.41 24.0331 145.242 24.9333 145.058 25.5058C144.592 26.9592 143.786 28.3034 142.608 29.31C141.474 30.2798 139.777 30.1231 138.392 30.242C136.875 30.3723 136.736 30.5364 135.474 29.44" stroke="#FFD424" stroke-width="2" stroke-linecap="round"/>
<path d="M168.785 87.2775C169.206 93.2996 124.79 101.311 94.9523 103.398C53.7545 106.278 20.0156 103.732 19.5945 97.7099C30.7508 85.9725 52.2295 84.4706 93.4274 81.5898C134.625 78.7089 168.364 81.2554 168.785 87.2775Z" stroke="#171717" stroke-width="2" stroke-linecap="round"/>
<path d="M19.5664 97.8762L29.498 123.637L57.3768 125.723C94.5369 128.503 131.903 125.442 168.115 116.651V116.651L168.704 87.4475" stroke="#171717" stroke-width="2" stroke-linecap="round" stroke-linejoin="round"/>
<path d="M32.4766 124.534L56.446 223.369L69.5537 227.12C101.82 236.354 136.39 232.984 166.265 217.692V217.692L164.438 117.997" stroke="#171717" stroke-width="2" stroke-linecap="round" stroke-linejoin="round"/>
<path d="M95.0617 89.5428L92.642 54.9402M92.642 54.9402V54.9402C92.2619 49.5043 93.3506 44.0065 96.4743 39.5416C106.554 25.1344 124.859 8.7251 144.841 18.1075C149.878 20.4728 151.385 26.6132 149.473 31.8394V31.8394C147.176 38.1149 140.507 41.5736 133.873 40.772C118.03 38.8577 97.5357 40.2415 92.642 54.9402Z" stroke="#171717" stroke-width="2" stroke-linecap="round" stroke-linejoin="round"/>
<path d="M94.5925 82.9082L92.6993 55.8343M92.6993 55.8343V55.8343C92.4103 51.7016 91.0089 47.6776 88.1848 44.6466C79.0717 34.8662 63.5535 24.4489 49.5028 33.6269C45.9605 35.9408 45.4757 40.7232 47.4685 44.4555V44.4555C49.8614 48.9372 55.2481 50.8356 60.158 49.5301C71.8832 46.4126 87.4597 45.2858 92.6993 55.8343Z" stroke="#171717" stroke-width="2" stroke-linecap="round" stroke-linejoin="round"/>
<path d="M94.1166 47.7969C99.0568 39.5989 112.735 23.0378 127.926 22.3765" stroke="#171717" stroke-width="2" stroke-linecap="round"/>
<path d="M21.7892 100.198C21.9331 102.257 21.8278 104.572 22.6111 106.48C23.5705 108.816 24.6408 111.27 26.0229 113.318C27.8366 116.007 28.9945 118.977 30.5013 121.832C32.3362 125.308 37.3359 124.788 40.4136 124.958C43.6081 125.135 46.7888 125.676 49.974 125.686C52.4513 125.694 55.0115 125.352 57.4861 125.498C59.9513 125.643 62.4106 125.405 64.8707 125.511C66.5087 125.581 68.0322 125.851 69.6907 125.735C70.8442 125.655 71.7388 126.045 72.8629 126.107C76.1932 126.292 79.6035 127.47 82.9149 127.988C86.2395 128.509 89.319 128.985 92.6619 128.751C93.5551 128.688 94.2792 128.258 95.2238 128.299C99.7759 128.495 104.259 128.229 108.802 127.911C112.591 127.646 116.381 127.67 120.175 127.405C123.348 127.183 126.043 125.45 128.949 124.191C134.288 121.88 139.619 122.001 145.223 121.609C148.015 121.414 150.633 120.653 153.419 120.458C156.046 120.275 158.674 120.091 161.302 119.907C163.03 119.786 164.628 118.698 166.123 117.708C166.876 117.209 167.62 116.988 167.986 115.973C168.556 114.391 167.998 111.691 167.883 110.043C167.356 102.514 169.39 95.1161 168.865 87.6028" stroke="#171717" stroke-width="2" stroke-linecap="round"/>
<path d="M31.9961 125.789C33.2699 144.005 41.1374 160.868 45.5065 178.371C46.2977 181.54 47.9613 184.536 48.5026 187.735C49.234 192.057 50.3455 196.997 51.6802 201.182C53.5081 206.912 55.4152 212.927 55.8424 219.037C56.0456 221.943 57.2402 221.902 59.409 222.794C62.3926 224.021 65.3423 225.404 68.3154 226.649C71.5292 227.994 75.1792 228.141 78.5629 228.849C84.7314 230.138 90.8583 231.22 96.8834 233.4C104.687 236.225 113.522 234.623 121.514 234.064C129.525 233.504 135.953 226.065 143.843 225.256C148.972 224.73 155.929 221.854 160.819 220.253C162.126 219.825 165.213 218.945 165.78 217.549C166.444 215.919 165.827 218.218 165.7 216.393C165.521 213.836 166.738 211.157 166.554 208.526C166.352 205.633 166.61 202.626 166.401 199.64C166.01 194.051 165.619 188.462 165.229 182.872C164.893 178.076 164.114 172.894 164.698 168.209C165.298 163.387 166.742 157.639 166.398 152.713C165.607 141.412 165.25 129.604 164.447 118.118" stroke="#171717" stroke-width="2" stroke-linecap="round"/>
<path d="M94.0908 88.584C93.6372 82.098 94.1494 82.966 93.707 76.6391C93.4235 72.5855 94.4877 68.4359 94.2006 64.3297C93.8817 59.7693 93.5628 55.209 93.2439 50.6486C92.9396 46.2972 94.9968 41.8485 97.1489 38.3461C99.9814 33.7366 103.286 29.5953 107.088 25.8944C110.273 22.7946 114.266 21.2694 117.873 18.73C119.375 17.6731 120.498 17.319 122.281 17.1943C123.592 17.1026 127.011 16.7984 128.07 16.053C129.493 15.0512 132.712 15.4829 134.367 15.3672C136.899 15.1901 139.422 14.9729 141.831 15.9364C145.186 17.2784 148.471 19.2158 150.322 22.5984C151.592 24.918 153.7 30.4359 151.965 33.1764C150.368 35.6987 147.88 39.0445 144.845 39.6754C143.375 39.9809 142.155 40.8455 140.421 40.9667C138.528 41.0991 136.533 40.7476 134.771 40.8708C132.883 41.0028 131.021 39.6601 129.078 39.7959C126.588 39.97 123.998 39.1691 121.547 39.3405C119.159 39.5075 116.771 39.6745 114.384 39.8414C111.863 40.0177 110.303 41.3577 108.006 42.2514C106.178 42.9626 104.262 44.1131 102.561 45.0871C100.745 46.1274 97.9882 46.7553 96.4615 48.2414C95.9755 48.7145 92.8812 51.4203 92.8689 51.3841" stroke="#171717" stroke-width="2" stroke-linecap="round"/>
<path d="M93.4759 51.1234C93.275 48.2506 96.7648 45.4088 98.3775 43.3884C100.131 41.1918 102.113 39.4499 104.168 37.6098C105.974 35.9926 107.239 33.7067 109.076 32.1111C114.421 27.4684 121.57 23.627 128.538 23.1397" stroke="#171717" stroke-width="2" stroke-linecap="round"/>
<path d="M65.213 39.2485C64.6724 39.3616 64.3258 39.8914 64.4389 40.432C64.5519 40.9726 65.0818 41.3192 65.6224 41.2061L65.213 39.2485ZM65.6224 41.2061C67.4367 40.8266 69.9277 40.8908 72.7176 41.3429C75.4908 41.7923 78.4865 42.613 81.2789 43.6884C84.0762 44.7658 86.6309 46.0841 88.5426 47.5105C90.4909 48.9643 91.6052 50.4059 91.8424 51.6832L93.8087 51.318C93.4305 49.2809 91.8038 47.4485 89.7387 45.9076C87.6369 44.3393 84.9057 42.9421 81.9977 41.8221C79.0847 40.7002 75.9556 39.8415 73.0376 39.3687C70.1363 38.8985 67.3696 38.7974 65.213 39.2485L65.6224 41.2061Z" fill="#171717"/>
<path d="M91.7393 49.6576C90.5489 47.6421 88.8719 45.8845 87.0067 44.4728C85.6506 43.4464 84.2783 42.0928 82.7617 41.3056C80.9345 40.3573 78.815 39.3193 77.2518 37.9605C75.9807 36.8555 75.3658 34.5056 73.8348 33.8694C71.3859 32.8518 69.4038 31.3324 66.5928 31.2848C63.8691 31.2387 61.3224 31.1604 58.5638 31.3533C56.2584 31.5145 54.51 32.4437 52.4674 33.3384C51.7064 33.6717 51.0912 34.076 50.3909 34.5095C49.8733 34.8299 49.835 35.4339 49.4042 35.8309C48.9411 36.2576 48.8865 37.2818 48.7061 37.8515C48.2905 39.1638 48.1566 40.2811 48.2525 41.6537C48.4424 44.369 48.7606 46.8818 49.8081 49.4189C50.4171 50.8939 53.599 51.1256 54.9039 51.0343C57.3328 50.8645 59.9621 50.9806 62.2816 50.2253C63.3199 49.8872 64.3289 49.4652 65.3136 49.0008C66.2203 48.5731 67.4212 48.7543 68.3938 48.4656C73.6031 46.9197 79.1788 47.9291 84.2343 49.4097C85.9075 49.8997 87.4869 50.6046 89.1482 51.0912C89.6729 51.2448 90.0245 51.6736 90.374 52.0447C91.0287 52.7396 92.394 53.0274 92.7556 53.9033" stroke="#171717" stroke-width="2" stroke-linecap="round"/>
</g>
<defs>
<filter id="filter0_dd_3008_23711" x="0.113281" y="0.0668335" width="205.34" height="256.933" filterUnits="userSpaceOnUse" color-interpolation-filters="sRGB">
<feFlood flood-opacity="0" result="BackgroundImageFix"/>
<feColorMatrix in="SourceAlpha" type="matrix" values="0 0 0 0 0 0 0 0 0 0 0 0 0 0 0 0 0 0 127 0" result="hardAlpha"/>
<feOffset dy="2"/>
<feGaussianBlur stdDeviation="1"/>
<feComposite in2="hardAlpha" operator="out"/>
<feColorMatrix type="matrix" values="0 0 0 0 0 0 0 0 0 0 0 0 0 0 0 0 0 0 0.02 0"/>
<feBlend mode="normal" in2="BackgroundImageFix" result="effect1_dropShadow_3008_23711"/>
<feColorMatrix in="SourceAlpha" type="matrix" values="0 0 0 0 0 0 0 0 0 0 0 0 0 0 0 0 0 0 127 0" result="hardAlpha"/>
<feOffset dy="4"/>
<feGaussianBlur stdDeviation="4"/>
<feComposite in2="hardAlpha" operator="out"/>
<feColorMatrix type="matrix" values="0 0 0 0 0 0 0 0 0 0 0 0 0 0 0 0 0 0 0.06 0"/>
<feBlend mode="normal" in2="effect1_dropShadow_3008_23711" result="effect2_dropShadow_3008_23711"/>
<feBlend mode="normal" in="SourceGraphic" in2="effect2_dropShadow_3008_23711" result="shape"/>
</filter>
</defs>
</svg>
