<svg xmlns="http://www.w3.org/2000/svg" width="172" height="259" fill="none"><path fill="#fff" d="M96.079 257.113c-14.251-1.498-23.467-4.226-28.087-5.898a143.838 143.838 0 0 1-34.626-11.714l-12.252-5.973a11.026 11.026 0 0 1-6.164-9.185l-6.089-95.902a11.021 11.021 0 0 1-2.952-5.589L.644 94.979c-.735-3.818.82-7.797 3.988-10.109 12.06-8.827 28.272-10.02 51.66-8.386a17.342 17.342 0 0 1-.963-3.66c-1.12-7.61 2.766-14.832 10.397-19.32 3-1.765 5.983-2.88 8.93-3.354-3.02-1.122-6.432-1.662-8.889-1.92-5.231-.55-10.333-.322-13.692-.031-1.725.15-3.462.129-5.174-.041-10.034-1.055-18.465-7.713-21.494-16.97-3.644-11.152 1.19-22.79 11.234-27.094C42.981 1.37 49.513.349 56.077 1.039 77.449 3.285 92.364 22.962 97.79 31.325a31.68 31.68 0 0 1 3.899 8.625c8.966-5.996 20.89-11.339 33.789-9.983 6.554.689 12.741 3.048 18.377 7.02 8.932 6.287 11.238 18.686 5.365 28.838-4.888 8.425-14.528 13.184-24.562 12.129a27.888 27.888 0 0 1-5.071-1.026c-3.235-.983-8.188-2.268-13.429-2.819-5.569-.585-12.549-.474-15.796 2.965l-.403 3.83c15.874 2.04 30.518 4.685 41.985 7.61 14.836 3.78 30.547 8.901 29.193 21.78-.043.408-.145 1.383-.546 2.607l-5.36 27.179a10.976 10.976 0 0 1-4.863 7.141l-12.716 80.713 8.277 1.031.723.206c5.83 1.639 9.723 6.985 9.461 13.011-.259 6.005-4.574 10.992-10.504 12.118-18.962 3.618-37.707 4.694-55.699 3.195-1.316-.108-2.6-.233-3.833-.362l.002-.02Z"/><path stroke="#171717" stroke-linecap="round" stroke-width="2" d="M13.834 92.655c2.573.27 5.151.08 7.715.35.391.04 1.084-.04.266.13-2.772.578-.426-1.578-3.052-.286-1.141.561-2.097 1.386-3.19 2.023-2.13 1.243-.611 2.529 1.585 1.517 5.24-2.415 10.558-4.524 15.766-7.06 1.493-.728 3.037-1.608 4.606-2.003 2.989-.753-5.998 1.33-8.978 2.158-1.693.471-7.599 2.573-2.445 2.359 5.806-.242 11.254-2.022 16.94-3.4 3.298-.798-6.51 2.389-9.592 4.197-2.307 1.354-6.38 4.04-1.202 2.31 3.526-1.179 7.037-2.371 10.587-3.4 1.757-.51 5.026-.543 6.604-1.819 4.604-3.72-10.42 3.788-15.348 6.695-1.51.89-2.919 1.894-4.349 2.978-1.13.856 2.92-.026 2.982-.045 9.282-2.916 19.158-5.122 28.002-9.774.399-.21 2.087-.936.75-1.05-4.12-.348-9.755-1.985-13.73-.57-7.074 2.517-14.29 5.849-20.78 10.48-4.832 3.448 10.809-1.993 16.128-3.663 5.055-1.587 10.103-3.283 15.133-5.024 1.551-.537 3.133-1.328 4.723-1.606 1.11-.194-2.226.342-3.325.65-4.384 1.231-8.678 3.86-12.797 6.193-2.197 1.244-4.315 2.648-6.458 4.039-1.2.778-.873.98.33 1.035 8.073.364 16.86-3.806 24.357-7.824.159-.085 2.811-1.21 2.772-1.657-.059-.668-6.585 2.07-6.907 2.222-3.347 1.594-6.646 3.508-9.853 5.554-.464.295-4.35 3.164-4.252 3.194 2.951.896 7.733-2.033 10.52-3.15 5.065-2.032 10.079-4.427 15.234-5.989 1.314-.398 5.252-1.527 3.975-.94-4.19 1.921-8.33 4.05-12.517 5.99-4.483 2.08-8.99 4.026-13.441 6.228-.583.289-4.95 1.622-5.172 2.636-.125.574 6.576-.632 6.907-.71 6.93-1.622 13.626-4.363 20.298-7.404 3.193-1.456 6.154-3.241 9.239-5.029.588-.34 2.887-1.542.756-1.305-8.046.897-15.76 6.05-23.204 9.971-.283.149-2.315.885-1.026 1.02 4.933.519 9.863-1.165 14.699-2.609 5.624-1.678 11.144-3.558 16.67-5.785 1.678-.677 3.364-1.314 5.044-1.983.456-.181 1.937-.42 2.33-.883 1.548-1.827-4.057 1.167-6.042 1.98-5.65 2.314-11.434 4.535-16.928 7.477-.737.394-9.631 5.609-9.454 5.929.355.638 3.669-.618 3.909-.692 3.644-1.125 7.237-2.64 10.819-4.093 5.18-2.102 10.359-4.133 15.603-5.898.391-.132 4.88-1.19 4.954-1.89.046-.437-5.185 1.216-5.37 1.282-4.188 1.5-8.412 2.721-12.594 4.266-1.471.543-2.92.951-4.352 1.67-1.92.966 4.07.017 6.092-.359 8.926-1.663 17.772-4.866 26.664-6.966 6.029-1.425-11.677 5.13-17.566 7.46-4.231 1.674-8.515 3.176-12.686 5.128-1.162.544-4.588 2.109-3.37 2.03 3.364-.218 6.76-1.635 10.032-2.689 8.047-2.59 16.041-5.421 24.044-8.267 2.985-1.061 6.69.931 9.648-.267 2.395-.971-2.05-1.628-2.847-1.428-9.581 2.413-18.679 5.689-27.839 10.253-.305.152-3.88 1.63-3.844 2.365.056 1.126 7.687-1.52 8.002-1.621 8.384-2.676 16.795-5.157 25.254-7.242.613-.151 1.742-.357.404-.42-4.079-.189-8.533 1.477-12.433 3.104-3.883 1.62-7.685 3.687-11.346 6.063-.379.247-4.173 2.138-4.085 3.135.09 1.033 7.4-2.16 7.67-2.271 8.421-3.46 16.752-7.266 25.207-10.58 3.958-1.552 9.852 2.455 13.89 1.357 3.053-.83-6.11-.488-5.902-2.466-8.678 3.915-16.938 6.662-25.65 10.431-.138.06-2.689.995-1.53 1.25 2.861.627 6.208-1.124 8.967-2.058 6.664-2.255 13.332-4.503 19.991-6.77 1.253-.426-2.542.638-3.791 1.089-4.505 1.627-8.934 3.863-13.332 5.957-2.292 1.091-4.614 2.092-6.834 3.435-1.961 1.186 2.6.76 2.839.735 10.074-1.084 20.406-6.542 30.153-10.317.225-.087 2.924-1.176 1.23-.486-4.653 1.892-9.243 3.841-13.959 5.455-3.533 1.209-7.018 2.447-10.487 3.974-.227.1-3.447 1.443-2.867 1.622 2.171.671 5.047-.012 7.222-.472 5.164-1.092 10.322-3.203 15.415-4.866 2.229-.728 4.408-1.581 6.609-2.434 1.572-.608-1.38.552-1.542.608-4.226 1.438-10.239 2.779-13.852 6.338-.793.781 1.739.563 1.899.558 3.892-.103 7.723-1.772 11.541-2.786 1.583-.421 4.038-.47 5.494-1.525 1.59-1.153-3.589.454-5.342 1.028-1.782.583-3.226 1.605-4.87 2.616-.735.452-1.667.894-.079.94 2.364.07 4.961-1.265 7.275-1.927 2.351-.673 4.699-1.404 7.013-2.288 1.083-.414-3.967 1.63-4.088 2.775-.067.642 7.002-2.544 7.793-3.053"/><path stroke="#171717" stroke-linecap="round" stroke-width="2" d="M21.851 91.653c-2.27-.24 4.51.751 6.74 1.272 8.603 2.009 17.236 3.093 25.989 4.013l7.015.738c3.795.399-7.661.098-11.458-.282-6.04-.604-12.466-.622-18.319-2.489-2.11-.673-8.304-3.026-6.119-2.797 1.166.123 2.836 1.373 3.817 1.888 4.83 2.538 9.68 4.965 14.635 7.128 12.1 5.282 24.754 5.446 37.463 8.137 3.244.687 6.45 1.601 9.745 1.947 1.855.195-3.55-1.296-3.809-1.4-14.686-5.909-29.773-9.786-45.343-11.863-.258-.034-3.175-.857-2.007-.672 1.724.273 3.378.96 5.031 1.554 5.524 1.987 11.105 3.703 16.769 5.07 9.292 2.244 18.752 3.638 28.222 4.633 2.03.214 4.067.514 6.108.616.015.001 2.645-.17 2.11-.675-1.29-1.215-3.77-1.536-5.26-2.04-4.51-1.525-9.06-2.861-13.634-4.1-10.121-2.74-20.165-4.426-30.527-5.516-2.143-.225-5.297.165-7.224-1.22-.255-.183.485-.561.783-.61 4.582-.757 9.482.02 14.012.319 16.202 1.07 31.624 4.453 47.378 8.466 6.309 1.607 13.303 3.586 19.854 3.651.976.01.262-.499-.185-.712-2.173-1.034-4.485-1.757-6.724-2.552-10.017-3.56-20.522-6.404-30.928-7.969-5.71-.858-11.48-1.309-17.22-1.912l-1.502-.158c11.948 1.256 23.615 4.217 35.424 6.441 10.038 1.89 20.156 3.192 30.31 4.16 1.955.186 4.444.117 1.053-1.274-12.495-5.124-25.837-7.406-38.91-9.576-12.094-2.008-24.314-3.15-36.504-4.35-2.755-.271-5.591.335-8.296.051-.632-.066 1.234.325 1.842.527 4.07 1.353 8.06 3.033 12.121 4.428 16.166 5.55 32.733 10.4 49.569 12.337a889.183 889.183 0 0 0 18.495 1.944c.891.084 1.792.185 2.686-.076.15-.045-2.692-.406-2.892-.433-11.974-1.593-23.892-3.408-35.91-4.671-8.849-.93-17.652-2.511-26.602-1.412-1.292.159-9.232.498-3.857 1.338 16.83 2.63 33.929 3.578 50.828 5.676 11.259 1.397 22.774 3.614 34.196 3.107.334-.015 7.049-.454 6.396-2.302-.703-1.989-6.524-1.901-7.85-2.107-9.557-1.484-19.354-2.35-29.035-2.411-5.483-.034-10.972.714-16.421 1.889-3.692.797-.121.706 1.624.889 9.642 1.013 19.211 1.831 28.931 1.887 5.244.03 10.81.041 15.999-1.677.007-.003 2.541-.641 1.488-1.228-3.782-2.11-8.989-2.334-13.041-3.089-8.011-1.492-16.085-2.536-24.197-3.21-2.24-.185-4.453-.186-6.706-.063-.134.007-2.893.199-2.623.442 1.175 1.059 3.445 1.136 4.804 1.428 3.705.796 7.436 1.448 11.178 1.995 7.595 1.11 15.251 2.633 22.947 2.745 1.396.021 4.138.655 5.49-.346.247-.183-.436-.446-.703-.535-1.711-.572-3.413-.984-5.097-1.69-6.555-2.748-12.95-4.591-19.878-5.32-2.684-.282 5.238 1.416 7.882 1.983 6.131 1.314 12.308 2.841 18.526 3.562 1.513.176 4.545.478 4.545.478s-3.908-1.205-5.865-1.796c-7.949-2.4-15.759-4.197-23.985-5.033-11.195-1.138-22.095.069-33.303 2.268-7.303 1.433-14.432 2.542-21.77 2.788-2.37.08-9.447.383-7.095-.156 1.538-.352 3.228-.01 4.74.14 3.967.393 7.93.833 11.895 1.25l21.855 2.297c21.526 2.262-43.95-1.175-64.225-9.75-3.332-1.41-6.637-3.013-10.024-4.233-1.286-.463-5.258-1.296-3.914-1.155 4.744.499 9.465 1.456 14.18 1.952l-13.24-1.392c-.678-.07-8.168-1.116-4.566.674 8.333 4.143 17.578 4.652 26.192 7.599 1.412.483 2.774 1.215 4.252 1.37l-2.727-.287c-7.844-.824-15.636-2.105-23.467-2.928-.33-.034-4.39-4.42-4.635-2.087-.387.75 1.057 1.464 1.73 1.597 2.33.463 3.659 1.49 5.986 1.968 6.525 1.338 13.082 2.067 19.689 2.761 5.025.529 10.06.897 14.986 2.063 3.692.873 6.99.849 10.77.747 6.46-.173 12.766 1.408 19.197 1.351 3.179-.028 6.291.302 9.444.634a2868670.853 2868670.853 0 0 1-25.254-2.654c-.85-.09-2.168-.352-.459.182 8.137 2.54 16.975 3.399 25.363 4.281 6.695.704 12.741 1.005 19.366-1.4 1.252-.455 4.186-.289 4.435-2.662.17-1.612-.998-2.641-1.877-3.428-2.679-2.397-5.858-4.79-9.008-6.1-3.577-1.488-7.527-1.535-11.285-1.93L88.604 93.13c-7.677-.806-14.984-3.809-22.623-4.685-3.747-.43-7.536-.993-11.313-1.086-4.16-.103-8.228 1.237-12.372 1.57-4.815.388-9.87-.942-14.622.361-4.901 1.344-9.46 4.274-14.314 5.982-.278.098 1.77-4.89-.48-1.896.526.098 3.504 2.757 4.017 2.935 4.286 1.487 4.717 1.778 9.183 2.247 2.372.25 4.61.656 6.93 1.164.703.154 1.245.618 1.945.692M75.43 241.908l14.652 1.54 2.364.248c2.912.306-5.825-.604-8.727-.985-4.928-.647-10.656-1.283-15.38-3.006-.11-.04-.807-.458-.665-.443 2.575.271 5.156.514 7.726.829 6.876.843 13.943 1.561 20.759 2.792 2.77.5-2.851-.012-3.3-.059-1.853-.194-3.658-.387-5.523-.343-1.866.044-.34.032.647.136 10.854 1.141 21.942 1.711 32.818.466 2.486-.285 4.974-.616 7.455-.945.284-.038 1.556-.152.48-.052-5.822.542-11.706.164-17.52-.383-3.539-.334-8.096-.86-11.559.31-.108.037-1.393.355-.9.499 2.219.649 5.024.089 7.27.018 4.536-.142 9.212-.71 13.738-.234 2.158.227-4.327-.375-6.496-.445-4.03-.13-7.918.145-11.928.271-2.21.07-4.558.81-6.756.579-1.817-.191-4.393.452-6.075 1.192-.563.247 1.596.473 1.678.481 2.544.268 5.022.413 7.578.153 3.623-.37 7.205-1.189 10.775-1.885 4.3-.838 8.702-1.114 13.052-1.612 6.128-.701 12.283-1.218 18.391-2.101 1.192-.172 3.572-.572.933-.817-6.152-.571-12.758-.469-18.862.458-1.754.267-3.466.549-5.151 1.103-.177.059-1.585.498-.684.708 7.847 1.83 16.836.672 24.382-1.844 2.61-.871-5.402 1.053-8.1 1.589-5.7 1.133-12.114 2.314-17.966 1.926-4.823-.321 9.617 1.092 14.449 1.213 5.786.145 11.477-.079 17.239-.324.296-.012 1.878-.107.752-.226l-5.566-.585c-3.808-.4-7.635-.932-11.472-.833-3.427.089-6.817.873-10.233.925-.248.004-2.76-.222-1.919-.134 3.065.322 6.064.515 9.15.352 5.782-.306 12.022-.369 17.718-1.494 1.424-.282 2.079-.363.298-.579-3.186-.387-6.337-.971-9.541-1.308l13.479 1.417c4.678.491-9.386-.682-14.064-1.173l-5.6-.589.503.053c1.364.143 2.727.304 4.098.363 5.893.254 11.899-.737 17.751-.202.449.041 3.232-.04 2.123.765-3.221 2.339-7.277 1.9-10.915 3.057-2.081.661 2.929-.203 3.517-.241 2.229-.144 4.484.126 6.626-.626 1.065-.374 1.129-.903-.008-1.221-2.742-.768-5.574-.959-8.394-1.255-3.303-.347 6.525 1.296 9.828 1.643.394.041-.787.085-1.181.113-2.658.192-5.294.545-7.963.604-9.672.213-19.387.334-29.061.081-4.338-.113-8.653-.043-12.981.297-4.58.36-9.45.39-13.995 1.072-1.8.27-3.59-.263-5.342.031-1.102.185-2.552.19-3.669.073-2.41-.254-4.008-.651-6.168-1.632-1.008-.458-2.19-1.078-3.298-1.194-1.618-.17 3.202.661 4.715 1.258 2.061.813-1.299.321-1.791.27-3.923-.413-4.544.132-12.358-2.214-2.298-.254-24.03-10.487-26.105-11.524M71.867 74.787c.078.02-.141-.054-.252-.168a20.624 20.624 0 0 1-1.357-1.533c-1.045-1.316-.98-2.62-.746-4.204.108-.726.645-1.02 1.276-1.294 1.088-.473 2.207-.715 3.387-.808.609-.048 1.297-.145 1.909-.064.372.049-.438 1.145-.488 1.216-1.421 2.061-2.979 4.219-3.525 6.716-.025.116-.154.495.052.54.359.078.576-1.96.588-2.128.1-1.386-.073-3.909-1.666-4.49-.11-.04.23.024.346.032.77.056 1.543.063 2.315.078 1.461.027 2.902.134 4.355.287.781.082-.77.437-.892.474-1.693.516-3.399.98-5.109 1.436-.858.229-1.71.484-2.605.488-.568.002-.614-.57-.696-1.03-.305-1.696-.584-3.462.473-4.954 1.184-1.672 3.005-3.478 5.157-3.65.588-.047 1.949-.21 2.336.412.154.248-.472.257-.568.276-1.152.224-2.397.65-3.317 1.401-.789.644-1.054 1.642-1.192 2.61-.17 1.19-.306 2.396.622 3.31.428.421 1.083.837 1.7.888.914.076 1.301-1.474 1.534-2.09.527-1.395.982-2.877 1.214-4.353.009-.052.19-.964-.004-.856-.48.267-.811.945-1.02 1.416-.554 1.254-.88 2.647-1.059 4.004-.081.618-.117 1.162.545 1.43.603.242 1.283.243 1.86-.06.927-.487 1.352-1.256 1.6-2.245.445-1.784.718-3.595.91-5.42.005-.05.168-1.052.064-1.063-.185-.02-.245.57-.26.664-.14.898.327 1.877.735 2.646.317.597.752 1.655 1.383 2.013.21.12-.247-.74-.264-.775-.519-1.034-.885-2.326-1.62-3.226-.528-.647-1.262-.785-2.046-.868-.047-.005-.916-.12-.833-.177.754-.52 1.866-.316 2.626.082 1.565.82 3.214 1.97 4.388 3.3.797.901 1.233 1.96 1.685 3.053.112.27.32.573.383.858.026.118-.239-.063-.336-.134-.37-.272-.695-.6-1.046-.896-.761-.64-1.642-1.23-2.597-1.53-.344-.11-1.007-.347-1.375-.193-.38.16-.618.75-.836 1.067-.519.753-.985 1.55-1.518 2.29-.636.884-1.493 1.873-2.506 2.33-.23.103-1.322.417-1.454.064"/><path stroke="#FFD424" stroke-linecap="round" stroke-width="2" d="M98.797 62.02c.55-.01 1.105-.14 1.637-.268 2.357-.563 4.686-1.3 6.981-2.076 1.39-.47 2.763-.988 4.149-1.468.459-.16 1.653-.332 2.012-.695.279-.283-.798.005-1.192.061-1.51.216-3.003.554-4.438 1.074-1.156.42-2.355.86-3.471 1.38-.014.005-.954.506-.663.59.674.193 1.905-.24 2.519-.379 2.259-.508 4.456-1.247 6.694-1.836.94-.247 1.901-.456 2.823-.77.85-.288-1.331-.36-1.341-.36-2.694-.284-5.408-.264-8.094-.546-.813-.086.438-.357.557-.39 2.761-.765 5.503-1.604 8.277-2.322a96.265 96.265 0 0 1 5.689-1.298c.135-.026 1.905-.408 1.865-.43-.714-.386-2.146-.158-2.874-.116a45.859 45.859 0 0 0-6.421.849c-.761.153-3.468.627-1.211.812 3.686.303 7.373.326 11.056.713l.661.07c.12.013.002.001-.157-.034-1.317-.288-2.58-.815-3.845-1.267a72.63 72.63 0 0 1-3.241-1.22c-.176-.073-1.271-.421-.357-.31 1.742.214 3.479.82 5.153 1.313 3.265.961 6.515 1.998 9.714 3.162 1.271.462 2.536.963 3.757 1.546.453.217-1.007-.037-1.502-.124-4.958-.873-10.033-1.761-15.087-1.662-.807.016-1.65.058-2.438.252-.11.027 2.584.391 2.866.428 5.356.698 10.907 1.363 16.071 3.01 1.11.354 1.145.436-.101.31-3.029-.305-6.055-.636-9.083-.954-2.042-.215-4.084-.455-6.129-.636-.413-.036-1.975-.352-2.38.012-.293.264.754.231 1.133.34 1.546.443 3.033 1.023 4.516 1.642.754.315 1.57.59 2.272 1.018.435.265.624.54-.053.418-2.845-.514-5.574-1.716-8.236-2.813-.325-.134-1.324-.433-.973-.407 1.163.086 2.352.369 3.492.604 1.257.26 4.945 1.386 3.72 1-2.68-.841-5.446-1.364-8.136-2.158-.05-.015-1.237-.43-1.04-.414 1.482.118 2.971.3 4.443.492 6.222.815 12.43 2.119 18.334 4.272.535.195 2.067.586 1.527.77-.161.055-.983-.036-.995-.037-1.125-.106-2.251-.23-3.373-.363-2.435-.288-9.716-1.318-7.278-1.061 2.179.229 4.317.656 6.417 1.284.233.07.901.348.661.306-.876-.152-1.789-.724-2.575-1.109-.135-.066-2.664-1.202-1.461-1.076 4.062.427 15.888 3.634 11.826 3.207-1.027-.108-4.012-.988-3.013-.723 1.254.332 2.387.328 3.643-.032 1.279-.366 2.328-.844 1.357-2.286-.187-.279-3.064-3.692-2.995-3.718.25-.093.781.186.989.256.962.327 1.924.655 2.897.948.395.119.897.353 1.317.35.361-.002-.619-1.133-.654-1.177-.133-.165-2.136-2.661-1.975-2.713.368-.12 1.023.314 1.314.46.874.435 1.738.897 2.632 1.292.855.377 1.818 1.048 1.518-.349-.122-.57-1.229-2.75-.716-3.257.446-.441 2.27.73 2.706.91.591.244 1.58.798 1.174-.215-.636-1.588-1.821-2.984-2.653-4.477-.592-1.063-1.088-2.234-2.005-3.072-1.548-1.415-3.181-1.902-5.231-2.327-3.369-.698-6.945-.815-10.364-1.174-3.701-.389-7.731-.913-11.413-.133-2.923.619-5.816 1.984-8.231 3.74-2.902 2.109-5.935 4.006-8.997 5.868-1.033.628-1.353 1.538-2.023 2.504-.107.153-.851.997-.73 1.227.021.04.081-.045.117-.072.299-.226.632-.397.958-.577a104.758 104.758 0 0 1 5.225-2.676c8.431-4.056 17.011-8.14 26.591-7.133.07.007 1.856.212 1.734.334-.295.294-1.527.048-1.867.041-1.853-.038-3.706-.024-5.552.161-3.321.333-6.541 1.262-9.845 1.7-.274.036-1.094.147-.818.133 1.275-.06 2.554-.356 3.831-.452 3.277-.246 6.5-.112 9.76.23 2.337.246-4.619-.863-6.936-1.253a120.941 120.941 0 0 0-7.451-1.02c-.627-.066 1.25.178 1.861.33 4.012 1.003 7.815 2.779 11.522 4.572 2.667 1.29 5.316 2.64 7.827 4.217 1.016.638 2.687 1.452 3.347 2.535.498.816-1.92.263-2.864.114-2.831-.447-5.626-1.149-8.365-1.988a71.385 71.385 0 0 1-3.827-1.282c-.226-.084-1.071-.411-.267-.359 3.637.239 7.252 1.27 10.629 2.599.381.15 1.035.42 1.426.607.168.08.66.25.478.287-.301.06-.584-.188-.865-.311-1.53-.67-3.012-1.452-4.478-2.248-2.533-1.376-5.103-2.78-7.465-4.441-.065-.046-1.864-1.392-1.371-1.372 1.106.045 2.333.471 3.383.754 2.701.726 5.342 1.652 7.947 2.663a55.62 55.62 0 0 1 3.208 1.37c.966.446-.097-.433-.322-.635-1.023-.915-2.092-1.78-3.14-2.666-.663-.561-1.572-1.086-2.134-1.756-.217-.259.686-.057 1.012.03 1.914.51 3.737 1.292 5.534 2.113 1.152.527 2.306 1.051 3.456 1.583.092.042 1.27.794.666.273-1.552-1.338-3.302-2.627-4.582-4.24-.411-.517.305-.159.514-.064 1.894.855 3.62 2.076 5.33 3.243 1.279.872 2.52 1.794 3.78 2.691.996.709-.712-1.179-.766-1.248-.772-1.005-1.458-2.065-2.197-3.092-.362-.503-1.725-1.587-1.113-1.489.414.067 1.075.87 1.373 1.11.904.729 1.836 1.425 2.755 2.135.29.223.585.444.849.698.385.37-.78-.73-1.162-1.104-1.061-1.036-2.107-2.084-3.187-3.103-.171-.161-1.012-.784-1.01-1.096.001-.189.346.157.496.272.704.54 1.404 1.085 2.106 1.627.421.324 2.124 1.602.753.485-2.249-1.834-4.564-3.603-7.159-4.925-1.197-.61-4.885-2.046-3.55-1.906 2.474.26 4.954 1.692 7.18 2.719.551.254 1.128.528 1.616.898.295.223-.735-.128-1.082-.258-5.44-2.04-11.012-2.942-16.818-3.232-4.291-.214-8.747.87-12.767 2.28-1.735.61-3.499 1.44-4.937 2.605-.306.248-1.572 1.181-1.621 1.65-.011.104 2.513-.27 2.62-.284 5.198-.681 10.374-1.65 15.591-2.17 2.822-.281 5.631-.44 8.454-.144.203.021-.408.019-.612.02-2.086.017-4.111.186-6.159.623-2.407.513-4.75 1.267-7.074 2.066-1.375.474-3.024.843-4.289 1.59-.578.34 1.327.216 1.997.243 4.62.185 9.236.642 13.824 1.19 2.718.326 5.455.678 8.095 1.427.041.012 2.767.94 2.635 1.098-.419.506-3.846-.652-4.245-.76-2.528-.68-4.948-1.632-7.368-2.619-.611-.249-1.614-.477-2.137-.927-.619-.532 1.634.092 2.439.231 3.992.692 7.801 1.925 11.559 3.407 1.731.683.285.055-.572-.035s-.648.914-.53 1.502c.228 1.133.347 2.179.225 3.333-.048.462.044 1.456-.261 1.843-.61.776-2.159 1.677-3.115 1.848-3.361.605-6.645.14-10.007-.213-2.236-.235-4.535-1.103-6.733-1.656-2.059-.518-4.176-1.167-6.287-1.389"/><path stroke="#171717" stroke-linecap="round" stroke-width="2" d="M160.351 108.655c-.631 6.003-45.763 6.181-75.51 3.054-41.073-4.317-73.857-12.683-73.226-18.687 13.025-9.622 34.438-7.371 75.51-3.054 41.073 4.316 73.857 12.683 73.226 18.687Z"/><path stroke="#171717" stroke-linecap="round" stroke-linejoin="round" stroke-width="2" d="m11.563 93.181 5.307 27.094 27.093 6.895a356.622 356.622 0 0 0 110.631 10.296v0l5.651-28.658"/><path stroke="#171717" stroke-linecap="round" stroke-linejoin="round" stroke-width="2" d="m19.645 121.675 6.442 101.496 12.257 5.971a132.34 132.34 0 0 0 96.88 7.509v0l15.512-98.498M86.235 107.2l3.626-34.497m0 0v0c.57-5.419 2.597-10.644 6.448-14.499 12.428-12.438 33.305-25.42 51.354-12.71 4.55 3.205 4.968 9.513 2.177 14.328v0c-3.352 5.781-10.519 8.03-16.914 6.088-15.269-4.636-35.693-6.832-43.065 6.793ZM86.895 100.948l5.107-48.592m0 0v0c.57-5.419-.327-10.951-3.293-15.523-9.57-14.75-27.292-31.788-47.589-23.109-5.116 2.189-6.837 8.273-5.108 13.562v0c2.076 6.352 8.62 10.041 15.278 9.472 15.9-1.36 36.334.738 40.712 15.598Z"/><path stroke="#171717" stroke-linecap="round" stroke-width="2" d="M91.193 66.091c6.288-7.215 22.634-21.15 37.709-19.163M91.32 50.52c-2.733-7.493-13.399-22.725-34.21-23.706M71.459 62.51c13.73-8.077 17.946 9.427 17.72 17.95-1.065-5.81-4.608-15.466-10.26-7.614-7.065 9.815-19.787-3.086-7.46-10.336ZM13.344 95.854c-.215 2.052-.721 4.314-.281 6.329.539 2.468 1.167 5.069 2.172 7.327 1.32 2.963 1.944 6.088 2.932 9.162 1.204 3.742 6.218 4.097 9.22 4.8 3.114.729 6.153 1.814 9.288 2.376 2.438.438 5.019.546 7.43 1.12 2.403.571 4.866.764 7.27 1.295 1.602.354 3.055.884 4.709 1.058 1.15.121 1.963.661 3.059.917 3.248.76 6.402 2.512 9.573 3.598 3.183 1.09 6.133 2.093 9.466 2.444.89.093 1.678-.205 2.602-.001 4.449.984 8.91 1.5 13.439 1.976 3.778.397 7.506 1.079 11.288 1.477 3.163.332 6.118-.907 9.199-1.641 5.659-1.349 10.888-.305 16.474.282 2.784.293 5.495-.002 8.272.29l7.859.826c1.722.181 3.486-.613 5.13-1.328.828-.36 1.599-.449 2.135-1.385.837-1.46.756-4.215.929-5.858.789-7.506 4.076-14.438 4.863-21.929"/><path stroke="#171717" stroke-linecap="round" stroke-width="2" d="M18.957 122.829c-1.909 18.16 2.911 36.133 4.174 54.128.23 3.259 1.347 6.499 1.325 9.743-.03 4.384.207 9.442.794 13.794.805 5.961 1.639 12.216.999 18.307-.305 2.897.879 3.064 2.86 4.319 2.725 1.727 5.39 3.601 8.101 5.343 2.932 1.883 6.5 2.662 9.71 3.946 5.851 2.341 11.697 4.47 17.252 7.664 7.195 4.137 16.174 4.093 24.14 4.931 7.988.839 15.61-5.371 23.52-4.798 5.142.373 12.493-1.252 17.587-1.979 1.361-.194 4.555-.525 5.356-1.801.936-1.49-.07.667.121-1.153.268-2.549 1.932-4.976 2.208-7.598.303-2.885 1.079-5.802 1.392-8.778l1.757-16.717c.503-4.781.635-10.02 2.023-14.532 1.429-4.645 3.849-10.055 4.365-14.966 1.185-11.266 2.883-22.957 4.086-34.408"/><path stroke="#171717" stroke-linecap="round" stroke-width="1.974" d="M85.444 106.088c.68-6.466 1.033-5.522 1.696-11.83.425-4.041 2.193-7.943 2.623-12.036l1.434-13.64c.456-4.338 3.254-8.362 5.982-11.437a64.154 64.154 0 0 1 11.95-10.537c3.675-2.5 7.872-3.308 11.866-5.183 1.662-.78 2.829-.933 4.607-.747 1.307.138 4.727.432 5.899-.118 1.576-.74 4.671.244 6.321.418 2.524.265 5.046.49 7.251 1.856 3.072 1.905 5.971 4.383 7.206 8.036.848 2.505 1.966 8.305-.219 10.702-2.01 2.207-5.041 5.07-8.14 5.164-1.501.046-2.853.685-4.581.504-1.887-.199-3.791-.891-5.548-1.076-1.882-.198-3.483-1.844-5.42-2.047-2.482-.261-4.893-1.5-7.337-1.756l-7.142-.75c-2.512-.265-4.282.784-6.699 1.265-1.923.383-4.01 1.183-5.854 1.847-1.97.71-4.794.849-6.555 2.047-.561.382-4.078 2.51-4.084 2.471-.382-2.49 1.45-5.425 1.713-7.919M92.411 61.322c.347-3.3 1.747-8.087.83-11.24-.37-1.266-.238-2.688-.686-4.012-.495-1.464-1.283-2.919-1.705-4.366-.93-3.2-3.064-5.903-4.13-9.052-1.15-3.399-4.975-7.205-7.514-9.409-5.893-5.115-13.15-8.03-20.584-8.812-4.987-.524-10.669-2.12-15.407.104-1.208.567-2.67 1.046-3.615 2.083-.936 1.027-1.429 2.59-2.422 3.658-1.168 1.254-1.973 6.642-1.471 8.491.798 2.948.895 6.003 4.158 6.867 3.906 1.035 7.545 1.75 11.645 2.182 8.477.89 16.954 1.782 25.43 2.673 3.73.392 8.14.03 11.294 2.418 1.81 1.371 5.65 4.405 5.355 7.212"/><path stroke="#171717" stroke-linecap="round" stroke-width="1.974" d="M90.615 71.561c.3-2.864 2.762-5.748 4.701-7.457 2.108-1.86 4.363-3.23 6.706-4.686 2.06-1.279 3.702-3.31 5.788-4.563 6.07-3.644 14.142-8.657 21.089-7.927M57.159 26.317c6.33.665 13.266-.041 18.842 3.484 2.852 1.804 4.72 4.8 7.234 6.808 2.198 1.754 3.662 4.41 5.895 6.146 1.746 1.357 3.019 7.604 3.469 9.91"/></svg>