<svg width="188" height="241" viewBox="0 0 188 241" fill="none" xmlns="http://www.w3.org/2000/svg">
<path d="M124.222 240.662C95.2696 241.673 65.8136 235.998 54.0534 232.186L41.0786 227.976C37.3341 226.766 34.5023 223.613 33.6966 219.739L14.32 125.618C12.6956 124.373 11.4256 122.677 10.6962 120.701L1.16631 95.3682C-0.553623 90.8154 0.724359 85.5776 4.32391 82.3501C17.6645 70.3872 39.2844 68.0012 72.4069 66.6344C72.3197 64.1359 72.3757 61.4423 72.6681 58.6404C73.1365 54.0013 74.1908 49.5217 75.7856 45.3335C81.0732 31.4205 89.4565 29.0765 93.9838 28.9184C94.1237 28.9135 94.2636 28.9086 94.3935 28.9041C100.426 28.8636 105.808 32.548 108.1 38.2915C111.587 47.0551 106.731 55.8399 101.517 60.6949L101.314 60.8921L100.76 61.3517L100.506 61.5407C98.3303 63.1276 96.1396 64.0046 94.3806 64.6363C94.3856 65.0664 94.3902 65.4865 94.4046 65.8963C111.744 65.5709 127.883 66.138 140.55 67.5368C155.768 69.2167 172.038 72.1007 172.49 85.0428C172.513 85.6824 172.514 85.7323 170.788 115.391C170.615 118.439 169.18 121.2 166.965 123.099L165.622 203.845C169.614 204.106 173.626 204.376 176.367 204.66C182.292 205.264 187.006 209.882 187.816 215.878C188.624 221.843 184.982 227.293 178.307 230.118C157.788 238.82 141.011 240.066 124.212 240.652L124.222 240.662Z" fill="white"/>
<path d="M13.5519 89.272C16.1369 89.1817 18.6637 88.6342 21.2403 88.5443C21.6333 88.5305 22.3074 88.3539 21.5219 88.6365C18.8572 89.5952 20.8799 87.1335 18.4593 88.7781C17.4074 89.4928 16.5762 90.4424 15.5825 91.2259C13.6458 92.7529 15.3289 93.8148 17.3627 92.5068C22.2151 89.3862 27.1883 86.5577 31.9926 83.3211C33.3703 82.393 34.7763 81.3063 36.2748 80.6967C39.1297 79.5353 30.5202 82.8483 27.6851 84.0839C26.0744 84.7858 20.518 87.6885 25.5916 86.7594C31.3083 85.7125 36.4549 83.1917 41.8931 81.0363C45.0483 79.7858 35.7805 84.3068 32.9793 86.5269C30.883 88.1884 27.2234 91.4161 32.1107 88.9811C35.4384 87.3232 38.7487 85.6538 42.1208 84.1411C43.7909 83.3919 47.0231 82.9032 48.4077 81.4211C52.4489 77.0955 38.6162 86.6223 34.1409 90.1859C32.7693 91.2782 31.5144 92.4681 30.249 93.7407C29.2498 94.7457 33.1371 93.3083 33.1953 93.2807C41.9809 89.1015 51.454 85.5424 59.5642 79.7051C59.9304 79.4415 61.5013 78.4875 60.1605 78.5616C56.0322 78.7901 50.2254 77.9525 46.486 79.9064C39.8304 83.384 33.1496 87.688 27.3665 93.178C23.0617 97.2647 37.7926 89.6996 42.8278 87.3056C47.6124 85.0308 52.3752 82.648 57.1136 80.2241C58.5758 79.4762 60.032 78.4731 61.568 77.9764C62.6402 77.6298 59.411 78.6249 58.3661 79.0833C54.196 80.9125 50.309 84.1138 46.5547 86.9969C44.5527 88.5343 42.6506 90.2198 40.7216 91.8952C39.6424 92.8325 39.994 92.9875 41.1932 92.8738C49.2373 92.1111 57.3598 86.7589 64.2242 81.7363C64.3692 81.6302 66.8392 80.1469 66.738 79.7094C66.5869 79.056 60.5053 82.6752 60.2081 82.8716C57.1155 84.9154 54.1141 87.27 51.2232 89.7425C50.8054 90.0999 47.3564 93.4811 47.4576 93.497C50.5047 93.974 54.8324 90.408 57.4369 88.9132C62.1698 86.1968 66.8012 83.1269 71.6889 80.8633C72.935 80.2862 76.6776 78.6201 75.494 79.3782C71.612 81.8645 67.8087 84.5482 63.9328 87.0534C59.7828 89.7357 55.5911 92.2908 51.4895 95.0912C50.9525 95.4578 46.8137 97.3858 46.7349 98.421C46.6903 99.0068 53.159 96.8796 53.4761 96.7567C60.1127 94.1855 66.3623 90.5394 72.5453 86.5996C75.5053 84.7135 78.1887 82.5332 80.9947 80.3342C81.5295 79.9151 83.6387 78.4051 81.5622 78.9366C73.7185 80.9445 66.7975 87.1212 59.9716 92.0394C59.7123 92.2263 57.8018 93.2378 59.0973 93.1926C64.0546 93.0195 68.7021 90.666 73.2899 88.5637C78.6258 86.1185 83.8305 83.4889 88.9932 80.5141C90.5608 79.6109 92.1412 78.7446 93.7114 77.849C94.1383 77.6055 95.5716 77.1639 95.8962 76.6501C97.1753 74.6257 92.0415 78.3705 90.1888 79.4518C84.9153 82.5297 79.4971 85.5339 74.4656 89.2115C73.7907 89.7048 65.7089 96.1066 65.9291 96.3984C66.3692 96.9815 69.4761 95.2763 69.7034 95.1695C73.1554 93.548 76.5026 91.548 79.8475 89.6104C84.6845 86.8084 89.5303 84.0758 94.4785 81.5983C94.847 81.4138 99.1454 79.7407 99.1208 79.0379C99.1055 78.598 94.1558 80.9633 93.9824 81.0543C90.0429 83.1225 86.0297 84.9197 82.1034 87.0312C80.7223 87.7739 79.3445 88.3795 78.0271 89.2912C76.259 90.5149 82.0595 88.7415 84.0091 88.0873C92.6168 85.1986 100.932 80.7955 109.444 77.4782C115.216 75.2289 98.5949 84.184 93.0875 87.311C89.1307 89.5576 85.0971 91.641 81.2388 94.1544C80.1635 94.8548 76.9884 96.8817 78.1841 96.6338C81.485 95.9497 84.6505 94.0734 87.7444 92.5749C95.3524 88.8901 102.875 84.9743 110.404 81.0422C113.212 79.5756 117.158 81.0332 119.921 79.4341C122.157 78.1396 117.663 78.1075 116.903 78.4169C107.751 82.1399 99.1974 86.6504 90.7617 92.444C90.48 92.6376 87.145 94.5985 87.2836 95.321C87.496 96.4285 94.6845 92.7461 94.9821 92.6028C102.912 88.7856 110.897 85.1582 118.983 81.9162C119.569 81.6814 120.658 81.3204 119.325 81.445C115.259 81.825 111.08 84.0941 107.444 86.2484C103.825 88.3931 100.347 90.9694 97.0529 93.8317C96.7116 94.1283 93.218 96.5294 93.4435 97.5042C93.6773 98.5151 100.472 94.3356 100.723 94.1883C108.58 89.5897 116.301 84.661 124.212 80.2028C127.916 78.1152 134.31 81.2627 138.156 79.6139C141.063 78.3676 132.037 79.9806 131.968 77.9929C123.92 83.0777 116.122 86.9469 108.019 91.8924C107.891 91.9708 105.495 93.2522 106.678 93.3425C109.599 93.5656 112.67 91.3656 115.271 90.0573C121.557 86.8968 127.847 83.7418 134.125 80.571C135.308 79.974 131.698 81.556 130.523 82.1766C126.288 84.4148 122.214 87.2452 118.15 89.9313C116.032 91.3305 113.872 92.645 111.86 94.2842C110.084 95.7317 114.541 94.6749 114.775 94.6162C124.6 92.1412 134.071 85.2986 143.198 80.2031C143.408 80.0859 145.93 78.6324 144.348 79.5506C140.004 82.0723 135.73 84.6411 131.285 86.8957C127.954 88.5851 124.676 90.2956 121.453 92.2908C121.242 92.4213 118.24 94.199 118.839 94.2956C121.082 94.6577 123.836 93.5816 125.925 92.8235C130.887 91.0229 135.701 88.2147 140.513 85.859C142.619 84.8278 144.658 83.6802 146.719 82.5296C148.191 81.708 145.429 83.2683 145.276 83.3454C141.292 85.3575 135.524 87.523 132.441 91.5499C131.764 92.4338 134.241 91.8652 134.4 91.8387C138.24 91.195 141.801 89.0089 145.44 87.4729C146.95 86.8359 149.374 86.4457 150.669 85.1982C152.083 83.8357 147.178 86.1473 145.522 86.9598C143.839 87.7855 142.551 88.9977 141.063 90.2282C140.399 90.778 139.537 91.3452 141.116 91.1704C143.467 90.9102 145.853 89.2266 148.052 88.2492C150.286 87.256 152.51 86.2045 154.678 85.0071C155.693 84.4469 150.977 87.174 151.017 88.3243C151.039 88.9697 157.596 84.8307 158.309 84.217" stroke="#171717" stroke-width="2" stroke-linecap="round"/>
<path d="M21.3518 87.1633C19.0703 87.243 25.9215 87.2801 28.2022 87.4854C37.002 88.2775 45.7017 88.15 54.4976 87.8429C56.8473 87.7608 59.1971 87.6788 61.5468 87.5967C65.3602 87.4635 53.9738 88.7606 50.1611 88.9128C44.0959 89.1549 37.7305 90.0316 31.6746 88.9971C29.4907 88.624 23.0295 87.1558 25.2257 87.0791C26.397 87.0382 28.2246 88.0436 29.2686 88.4177C34.404 90.2581 39.5448 91.9865 44.7524 93.4391C57.4692 96.9862 70.0241 95.3868 82.9838 96.2832C86.2919 96.512 89.5944 96.9708 92.9046 96.8552C94.7683 96.7902 89.2092 96.0658 88.9382 95.9987C73.5728 92.1912 58.093 90.4519 42.3855 90.5621C42.1252 90.5639 39.1213 90.1549 40.3044 90.1755C42.049 90.2059 43.7829 90.6559 45.5028 91.0146C51.2498 92.2131 57.0147 93.1355 62.8137 93.7014C72.3275 94.6298 81.8892 94.6937 91.4059 94.3613C93.4464 94.2901 95.5052 94.3042 97.5408 94.1216C97.5554 94.1203 100.136 93.5848 99.5351 93.1589C98.0903 92.1357 95.5895 92.1626 94.0427 91.8709C89.3646 90.9888 84.6725 90.2991 79.9709 89.7089C69.5672 88.4027 59.3867 88.1314 48.9735 88.495C46.8205 88.5702 43.7515 89.3947 41.6501 88.2915C41.3725 88.1458 42.0525 87.6688 42.341 87.5785C46.7723 86.1918 51.7333 86.2782 56.2603 85.9443C72.4538 84.7498 88.1965 85.9535 104.356 87.7347C110.827 88.4479 118.028 89.434 124.525 88.5867C125.492 88.4606 124.715 88.0559 124.243 87.9077C121.946 87.1863 119.557 86.7919 117.229 86.3156C106.813 84.1848 96.0154 82.8302 85.4927 82.7293C79.7189 82.6739 73.9417 83.0306 68.1738 83.232C66.5524 83.2886 62.0954 83.4443 66.6647 83.2847C78.6711 82.8654 90.6371 84.1739 102.641 84.7329C112.844 85.2081 123.045 85.0891 133.234 84.6341C135.196 84.5465 137.651 84.1314 134.1 83.2261C121.013 79.8906 107.484 79.4883 94.2349 79.1582C81.9797 78.8528 69.7199 79.4237 57.4818 79.9313C54.7154 80.0461 51.9915 81.0416 49.2732 81.1365C48.6386 81.1587 50.5408 81.2864 51.1712 81.4019C55.3903 82.1748 59.5748 83.2839 63.7905 84.0995C80.5716 87.3459 97.652 89.8434 114.594 89.4183C120.788 89.2629 126.989 89.054 133.18 88.7693C134.073 88.7282 134.98 88.703 135.828 88.3196C135.971 88.2549 133.106 88.2926 132.905 88.2941C120.825 88.3825 108.771 88.2439 96.6942 88.6656C87.8019 88.9761 78.8646 88.6362 70.1538 90.9702C68.897 91.307 61.0813 92.7483 66.521 92.832C83.5533 93.0939 100.617 91.6534 117.644 91.3784C128.988 91.1952 140.7 91.7876 151.94 89.696C152.269 89.6349 158.857 88.2654 157.953 86.5264C156.98 84.6545 151.229 85.5517 149.886 85.5324C140.216 85.393 130.394 85.8992 120.798 87.186C115.364 87.9147 110.032 89.4197 104.8 91.3422C101.255 92.6446 104.779 92.0573 106.532 91.9961C116.221 91.6577 125.811 91.1358 135.444 89.8383C140.641 89.1383 146.154 88.3743 151.054 85.9509C151.061 85.9475 153.481 84.963 152.356 84.5276C148.318 82.9645 143.131 83.4679 139.012 83.2842C130.872 82.921 122.731 83.0107 114.605 83.4731C112.36 83.6008 110.169 83.9083 107.955 84.3432C107.823 84.3691 105.118 84.9432 105.418 85.1462C106.73 86.0317 108.989 85.7914 110.375 85.8916C114.155 86.1647 117.94 86.2913 121.722 86.3118C129.397 86.3535 137.191 86.7965 144.827 85.8366C146.213 85.6625 149.016 85.9095 150.216 84.7299C150.435 84.5144 149.722 84.3487 149.445 84.2976C147.672 83.9696 145.929 83.7988 144.163 83.3339C137.289 81.5245 130.7 80.5893 123.737 80.8324C121.04 80.9266 129.122 81.5047 131.82 81.6983C138.073 82.147 144.403 82.7993 150.66 82.6478C152.183 82.6109 155.227 82.4883 155.227 82.4883C155.227 82.4883 151.19 81.8389 149.17 81.5262C140.965 80.2559 132.98 79.5628 124.718 79.8797C113.473 80.3109 102.848 83.023 92.0551 86.761C85.022 89.1968 78.1166 91.287 70.8851 92.552C68.549 92.9607 61.5822 94.2455 63.8364 93.385C65.311 92.8222 67.032 92.9252 68.5499 92.8632C72.5335 92.7004 76.5194 92.5849 80.5038 92.4458C87.8244 92.1901 95.145 91.9345 102.466 91.6788C124.097 90.9235 58.7802 96.6318 37.5087 90.962C34.0127 90.0302 30.5164 88.9019 26.9933 88.1655C25.6553 87.8858 21.6057 87.6137 22.9564 87.5665C27.7233 87.4001 32.5313 87.6914 37.2694 87.526C41.7041 87.3711 28.4 87.8357 23.9653 87.9906C23.2843 88.0144 15.7213 88.0213 19.5375 89.2933C28.3653 92.2358 37.5913 91.4538 46.5324 93.1728C47.9973 93.4545 49.4483 93.9895 50.933 93.9377C51.0809 93.9325 48.7198 94.0149 48.1927 94.0334C40.3105 94.3086 32.4166 94.125 24.547 94.3998C24.2159 94.4114 19.5843 90.6332 19.6662 92.9777C19.3875 93.774 20.9168 94.2804 21.6017 94.3191C23.9732 94.4533 25.4326 95.2854 27.8038 95.4342C34.4513 95.8513 41.0455 95.6607 47.6848 95.4289C52.7342 95.2525 57.7727 94.9166 62.8128 95.3853C66.5901 95.7366 69.8516 95.2532 73.5818 94.6266C79.9552 93.5558 86.4192 94.2443 92.7802 93.2928C95.9236 92.8225 99.0517 92.7166 102.22 92.6059C107.793 92.4113 91.0733 92.9952 85.5001 93.1898C82.6142 93.2906 79.7283 93.3914 76.8425 93.4921C75.9883 93.522 74.6464 93.4461 76.4136 93.7367C84.825 95.12 93.6965 94.7406 102.125 94.4463C108.853 94.2113 114.882 93.6685 121.108 90.3645C122.284 89.7401 125.213 89.4956 125.13 87.1113C125.073 85.491 123.773 84.6347 122.794 83.9781C119.807 81.977 116.325 80.0503 113.024 79.1909C109.274 78.215 105.356 78.7188 101.58 78.8506C96.9403 79.0127 92.3004 79.1747 87.6605 79.3367C79.9464 79.6061 72.2921 77.6497 64.606 77.8455C60.8348 77.9416 57.0046 77.9108 53.2513 78.3441C49.1173 78.8214 45.2761 80.7148 41.2184 81.6219C36.5043 82.6756 31.314 82.0617 26.7887 84.0138C22.1225 86.0267 18.0153 89.5625 13.4466 91.9299C13.1854 92.0652 14.5191 86.8406 12.7074 90.1187C13.2427 90.1428 16.5617 92.3611 17.0939 92.4659C21.5456 93.342 22.0124 93.5698 26.5006 93.4131C28.8842 93.3299 31.1576 93.4207 33.5252 93.6015C34.2429 93.6563 34.8443 94.0402 35.5477 94.0157" stroke="#171717" stroke-width="2" stroke-linecap="round"/>
<path d="M95.3221 228.5C100.23 228.328 105.138 228.157 110.046 227.985C110.838 227.958 111.63 227.93 112.422 227.902C115.348 227.8 106.57 228.115 103.642 228.142C98.6723 228.187 92.9116 228.354 87.9936 227.305C87.8794 227.281 87.1309 226.964 87.2731 226.959C89.8615 226.869 92.4505 226.75 95.0402 226.705C101.966 226.582 109.065 226.31 115.985 226.58C118.799 226.69 113.16 226.966 112.71 226.982C110.847 227.047 109.033 227.107 107.193 227.41C105.351 227.714 106.86 227.489 107.852 227.455C118.759 227.074 129.819 226.095 140.415 223.349C142.838 222.721 145.255 222.047 147.666 221.375C147.942 221.298 149.186 221.009 148.135 221.258C142.445 222.604 136.565 223.049 130.732 223.316C127.18 223.479 122.595 223.591 119.329 225.232C119.227 225.284 117.998 225.777 118.507 225.851C120.794 226.185 123.494 225.24 125.708 224.858C130.18 224.086 134.731 222.873 139.279 222.714C141.448 222.638 134.943 222.944 132.785 223.177C128.777 223.609 124.965 224.423 121.011 225.106C118.832 225.483 116.61 226.542 114.401 226.619C112.575 226.683 110.114 227.678 108.551 228.645C108.028 228.969 110.197 228.891 110.28 228.888C112.837 228.799 115.311 228.598 117.805 227.984C121.341 227.114 124.775 225.805 128.213 224.618C132.355 223.19 136.675 222.305 140.914 221.206C146.885 219.659 152.908 218.291 158.834 216.566C159.99 216.229 162.291 215.502 159.644 215.627C153.473 215.918 146.944 216.938 141.029 218.706C139.329 219.214 137.673 219.731 136.082 220.515C135.914 220.597 134.581 221.228 135.503 221.311C143.528 222.031 152.268 219.633 159.39 216.091C161.854 214.866 154.188 217.886 151.591 218.792C146.104 220.708 139.917 222.77 134.067 223.2C129.247 223.554 143.743 222.943 148.545 222.39C154.295 221.729 159.899 220.714 165.571 219.671C165.863 219.617 167.416 219.302 166.285 219.342C164.42 219.407 162.556 219.472 160.692 219.537C156.865 219.671 153.001 219.677 149.215 220.309C145.834 220.874 142.585 222.122 139.21 222.649C138.965 222.687 136.446 222.813 137.291 222.783C140.372 222.676 143.368 222.449 146.401 221.858C152.084 220.751 158.255 219.82 163.738 217.913C165.109 217.436 165.747 217.264 163.953 217.298C160.744 217.358 157.543 217.218 154.323 217.331C149.808 217.488 163.353 217.015 167.868 216.858C172.569 216.694 158.479 217.489 153.777 217.653C151.902 217.719 150.026 217.784 148.151 217.85C147.246 217.882 148.636 217.833 148.656 217.832C150.026 217.784 151.399 217.754 152.764 217.621C158.635 217.053 164.445 215.236 170.315 214.951C170.765 214.929 173.509 214.462 172.523 215.413C169.659 218.178 165.582 218.308 162.14 219.959C160.171 220.903 165.012 219.351 165.589 219.231C167.776 218.779 170.047 218.732 172.063 217.69C173.066 217.171 173.056 216.638 171.886 216.481C169.064 216.103 166.233 216.308 163.399 216.407C160.08 216.523 170.041 216.782 173.36 216.666C173.755 216.652 172.593 216.859 172.206 216.942C169.6 217.502 167.039 218.219 164.405 218.649C154.857 220.206 145.253 221.678 135.638 222.774C131.326 223.265 127.063 223.935 122.825 224.874C118.339 225.868 113.52 226.575 109.115 227.883C107.371 228.401 105.524 228.123 103.829 228.658C102.764 228.994 101.329 229.201 100.206 229.24C97.7834 229.325 96.1462 229.154 93.8709 228.483C92.8083 228.169 91.5522 227.72 90.4384 227.759C88.8126 227.816 93.7014 227.969 95.2831 228.349C97.4375 228.867 94.0419 228.848 93.5469 228.865C89.6049 229.003 89.0657 229.629 81.0013 228.392C78.69 228.461 55.7463 221.352 53.5464 220.614" stroke="#171717" stroke-width="2" stroke-linecap="round"/>
<path d="M83.8439 51.6677C83.935 51.9848 86.0497 50.978 86.2914 50.8927C87.5975 50.4315 88.8785 49.7799 89.7929 48.7095C90.6137 47.7489 91.1163 46.4423 91.69 45.3337C92.0511 44.6356 91.7203 44.4975 91.0104 44.5223C89.1645 44.5868 88.776 46.2603 88.5384 47.8876C88.2835 49.6342 88.2622 51.3953 87.4675 52.9814C87.3616 53.1929 86.946 53.5371 86.7491 53.6884C86.5977 53.8047 86.8686 53.2376 86.8858 53.2163C87.2948 52.709 87.9691 52.3446 88.4975 51.9802C89.8228 51.0661 91.2973 50.4228 92.5926 49.4622C93.4187 48.8495 94.186 48.1672 95.0082 47.5545C96.3578 46.5487 96.828 45.8784 95.6217 44.4992C94.9445 43.7249 93.8293 42.3554 92.6982 42.3948C91.7233 42.4289 91.197 44.1881 90.8393 44.8884C89.6546 47.208 88.7713 49.7059 86.9849 51.6652C85.5394 53.2507 86.0528 50.1076 86.3839 49.3725C87.2766 47.3909 88.6167 45.8814 89.7769 44.0827C90.4432 43.0499 92.3373 42.5631 93.4672 43.1341C94.8047 43.8101 93.9169 44.8505 93.2537 45.5778C92.6026 46.292 91.956 46.9829 91.2894 47.6843C91.0548 47.9312 90.7748 48.3855 90.4918 48.5396" stroke="#FFD424" stroke-width="2" stroke-linecap="round"/>
<path d="M160.873 84.7245C161.083 90.7576 116.415 97.2142 86.5222 98.2581C45.2489 99.6994 11.6195 95.977 11.4088 89.9439C22.968 78.603 44.486 77.8516 85.7593 76.4103C127.033 74.969 160.662 78.6914 160.873 84.7245Z" stroke="#171717" stroke-width="2" stroke-linecap="round"/>
<path d="M11.3789 90.1093L20.4055 116.201L48.1944 119.258C85.2348 123.334 122.685 121.579 159.182 114.057V114.057L160.79 84.8917" stroke="#171717" stroke-width="2" stroke-linecap="round" stroke-linejoin="round"/>
<path d="M23.3477 117.201L43.8532 216.812L56.822 221.019C88.7466 231.374 123.413 229.212 153.804 214.972V214.972L155.457 115.274" stroke="#171717" stroke-width="2" stroke-linecap="round" stroke-linejoin="round"/>
<path d="M86.6526 83.0545C84.6574 78.85 81.9258 69.4761 82.9916 59.0472M82.9916 59.0472C83.343 55.6083 84.1073 52.0547 85.4471 48.534C92.2007 30.7864 104.008 42.0626 93.4004 51.943C89.9264 54.4732 84.5414 53.9063 82.9916 59.0472Z" stroke="#171717" stroke-width="2"/>
<path d="M13.5136 92.5071C13.5856 94.5694 13.3996 96.8798 14.1158 98.8136C14.9931 101.182 15.9771 103.671 17.2869 105.767C19.0056 108.517 20.0592 111.526 21.4655 114.432C23.1778 117.97 28.1927 117.624 31.2626 117.902C34.449 118.19 37.6088 118.842 40.7917 118.963C43.2673 119.057 45.8378 118.805 48.3059 119.037C50.7645 119.268 53.2306 119.116 55.6855 119.308C57.32 119.435 58.8332 119.758 60.4947 119.7C61.6503 119.66 62.5308 120.081 63.652 120.183C66.9738 120.484 70.3409 121.78 73.6322 122.413C76.9366 123.05 79.9976 123.633 83.3467 123.516C84.2415 123.485 84.9802 123.08 85.9228 123.154C90.4653 123.508 94.955 123.399 99.5061 123.24C103.303 123.107 107.089 123.263 110.89 123.131C114.069 123.02 116.822 121.382 119.771 120.226C125.187 118.102 130.51 118.409 136.125 118.213C138.922 118.115 141.565 117.446 144.356 117.349C146.988 117.257 149.621 117.165 152.254 117.073C153.984 117.012 155.62 115.981 157.148 115.044C157.919 114.571 158.67 114.376 159.07 113.375C159.696 111.813 159.232 109.096 159.175 107.444C158.911 99.9015 161.202 92.5793 160.939 85.0522" stroke="#171717" stroke-width="2" stroke-linecap="round"/>
<path d="M22.8242 118.439C23.4615 136.688 30.7357 153.815 34.4913 171.46C35.1714 174.655 36.7295 177.707 37.1588 180.923C37.7389 185.268 38.6773 190.244 39.8652 194.472C41.492 200.263 43.188 206.341 43.4017 212.462C43.5034 215.374 44.6986 215.374 46.835 216.341C49.7739 217.672 52.6735 219.157 55.6015 220.505C58.7664 221.961 62.4089 222.236 65.766 223.061C71.8856 224.565 77.9711 225.859 83.9164 228.249C91.6169 231.344 100.502 230.052 108.509 229.772C116.535 229.492 123.218 222.281 131.131 221.748C136.275 221.402 143.329 218.77 148.271 217.341C149.593 216.959 152.709 216.187 153.325 214.812C154.044 213.206 153.348 215.482 153.284 213.653C153.195 211.092 154.505 208.457 154.413 205.822C154.312 202.923 154.675 199.926 154.57 196.936C154.375 191.336 154.179 185.736 153.983 180.137C153.816 175.332 153.218 170.125 153.964 165.464C154.733 160.666 156.377 154.972 156.204 150.037C155.809 138.715 155.864 126.902 155.462 115.395" stroke="#171717" stroke-width="2" stroke-linecap="round"/>
<path d="M85.5439 81.7044C85.4232 78.2462 84.9002 74.6295 83.6213 71.389C82.688 69.024 82.4601 66.4921 81.6681 64.0995C80.9625 61.9674 80.8529 59.7423 80.7752 57.5178C80.7039 55.4769 80.9174 53.8672 81.5971 51.9208C82.2726 49.9867 83.0909 47.9323 84.1024 46.147C85.5113 43.6603 88.1831 41.4049 90.9758 40.6022C91.9255 40.3292 92.8372 40.2465 93.8235 40.2121C95.3813 40.1577 95.8606 41.3971 96.3612 42.6487C96.7656 43.6599 97.0631 45.8956 96.5824 46.9012C96.0104 48.0974 95.1536 49.3557 94.2494 50.3254C91.6363 53.1276 87.7558 54.6528 84.5024 56.561C83.2176 57.3146 82.2809 59.0981 81.6941 60.4197C81.3817 61.1232 81.5899 62.1197 81.6163 62.875" stroke="#171717" stroke-width="2" stroke-linecap="round"/>
</svg>
