<svg xmlns="http://www.w3.org/2000/svg" width="184" height="241" fill="none"><path fill="#fff" d="M117.451 239.602c-11.831.827-20.435.216-25.706-.478a144.183 144.183 0 0 1-32.917-5.407l-13.114-3.755a11.024 11.024 0 0 1-7.665-7.974l-22.64-93.389a11.019 11.019 0 0 1-3.877-4.991L1.483 97.174A10.519 10.519 0 0 1 3.741 86.17c13.288-13.68 34.445-16.182 71.32-18.84l-.81-11.573c-1.853-1.273-5.74-1.523-9.172-1.283-3.79.265-7.413 1.07-9.794 1.707a23.445 23.445 0 0 1-4.37.727c-8.689.608-16.877-3.812-20.846-11.253-4.845-9.074-2.386-19.922 5.725-25.221 4.774-3.11 9.953-4.886 15.41-5.268 12.34-.863 23.217 5.604 30.428 11.526C88.448 17.654 103.078 1.805 122.5.447c6.574-.46 13.077.79 19.316 3.722 9.898 4.64 14.323 16.45 10.292 27.469-3.351 9.136-12.008 15.505-22.074 16.209-1.705.12-3.453.07-5.171-.13-3.357-.407-8.457-.812-13.715-.444-5.586.39-12.44 1.712-15.041 5.663l.909 12.998c15.927-.743 30.747-.676 42.508.215 15.268 1.148 31.629 3.463 32.532 16.381.029.409.097 1.387-.084 2.662l-.559 27.707a11.01 11.01 0 0 1-3.55 7.867l1.479 80.493 2.907.287c6.026.602 10.788 5.191 11.577 11.17.788 5.96-2.596 11.619-8.24 13.758-18.046 6.856-36.319 11.171-54.298 12.819a172.59 172.59 0 0 1-3.838.309Z"/><path stroke="#171717" stroke-linecap="round" stroke-width="2" d="M13.935 92.759c2.58-.18 5.087-.816 7.659-.996.392-.028 1.06-.228.284.082-2.63 1.051-.694-1.48-3.055.249-1.027.75-1.824 1.729-2.79 2.546-1.882 1.594-.163 2.597 1.824 1.218 4.74-3.288 9.612-6.288 14.3-9.69 1.345-.976 2.712-2.111 4.188-2.773 2.813-1.26-5.676 2.352-8.466 3.685-1.585.758-7.037 3.853-1.999 2.747 5.677-1.245 10.732-3.944 16.092-6.288 3.11-1.36-5.995 3.482-8.717 5.798-2.037 1.734-5.582 5.087-.782 2.483 3.267-1.773 6.517-3.557 9.835-5.186 1.643-.807 4.856-1.409 6.188-2.938 3.888-4.464-9.604 5.54-13.952 9.257-1.333 1.14-2.545 2.373-3.766 3.689-.963 1.04 2.872-.533 2.929-.563 8.634-4.483 17.977-8.37 25.879-14.487.357-.276 1.893-1.285.556-1.164-4.118.373-9.95-.262-13.62 1.821-6.53 3.708-13.056 8.243-18.644 13.931-4.16 4.235 10.298-3.84 15.247-6.408 4.702-2.44 9.379-4.988 14.03-7.576 1.435-.799 2.855-1.852 4.373-2.402 1.06-.384-2.133.724-3.161 1.218-4.104 1.974-7.877 5.309-11.528 8.321-1.947 1.606-3.79 3.357-5.659 5.099-1.046.974-.689 1.117.505.962 8.013-1.043 15.944-6.676 22.629-11.935.141-.111 2.558-1.68 2.441-2.113-.173-.648-6.125 3.181-6.415 3.388-3.02 2.15-5.937 4.608-8.74 7.18-.405.372-3.734 3.871-3.632 3.884 3.062.37 7.262-3.345 9.813-4.93 4.635-2.88 9.157-6.11 13.962-8.542 1.226-.62 4.908-2.416 3.752-1.617-3.793 2.62-7.5 5.435-11.287 8.074-4.054 2.826-8.154 5.525-12.155 8.467-.524.385-4.593 2.457-4.636 3.494-.024.587 6.367-1.765 6.68-1.899 6.542-2.8 12.66-6.663 18.703-10.816 2.892-1.988 5.498-4.26 8.225-6.556.52-.438 2.575-2.02.519-1.417-7.77 2.28-14.47 8.695-21.12 13.848-.253.196-2.127 1.274-.834 1.183 4.948-.346 9.51-2.86 14.022-5.121 5.248-2.63 10.357-5.44 15.413-8.593 1.535-.957 3.084-1.878 4.622-2.828.419-.258 1.835-.75 2.142-1.274 1.208-2.068-3.792 1.853-5.606 2.999C85.02 83.53 79.71 86.72 74.81 90.572c-.657.517-8.51 7.197-8.28 7.48.46.568 3.505-1.245 3.728-1.36 3.394-1.74 6.67-3.856 9.944-5.909 4.737-2.97 9.484-5.87 14.343-8.518.362-.197 4.6-2.02 4.55-2.72-.03-.44-4.895 2.097-5.065 2.194-3.865 2.204-7.813 4.14-11.663 6.388-1.355.79-2.71 1.444-3.995 2.4-1.724 1.285 4.01-.69 5.936-1.411 8.502-3.188 16.658-7.878 25.05-11.49 5.69-2.45-10.609 7.08-16.004 10.397-3.876 2.383-7.834 4.606-11.603 7.253-1.05.737-4.152 2.874-2.966 2.584 3.275-.799 6.373-2.784 9.413-4.39 7.475-3.948 14.856-8.124 22.243-12.316 2.755-1.564 6.75-.245 9.455-1.94 2.19-1.371-2.302-1.247-3.052-.91-9.016 4.04-17.407 8.846-25.635 14.93-.275.203-3.54 2.28-3.376 2.997.251 1.099 7.307-2.832 7.6-2.985 7.792-4.092 15.644-7.996 23.613-11.518.577-.255 1.653-.654.324-.483-4.05.522-8.147 2.935-11.705 5.215-3.542 2.27-6.928 4.966-10.12 7.941-.331.309-3.739 2.83-3.48 3.797.27 1.002 6.914-3.412 7.16-3.568 7.692-4.87 15.236-10.066 22.986-14.797 3.63-2.216 10.13.707 13.916-1.075 2.862-1.347-6.103.58-6.242-1.404-7.865 5.362-15.523 9.501-23.448 14.727-.126.082-2.476 1.447-1.29 1.496 2.927.12 5.919-2.185 8.473-3.584 6.171-3.377 12.348-6.75 18.512-10.138 1.16-.638-2.392 1.069-3.544 1.73-4.154 2.385-8.127 5.356-12.095 8.182-2.068 1.472-4.181 2.861-6.134 4.57-1.725 1.508 2.693.297 2.924.23 9.733-2.816 18.959-9.985 27.903-15.396.206-.125 2.676-1.666 1.127-.693-4.254 2.672-8.436 5.389-12.8 7.797-3.269 1.804-6.486 3.628-9.637 5.735-.206.138-3.144 2.019-2.542 2.095 2.254.283 4.968-.888 7.03-1.719 4.896-1.972 9.609-4.947 14.336-7.47 2.069-1.103 4.066-2.321 6.086-3.543 1.442-.873-1.264.783-1.413.865-3.912 2.15-9.601 4.516-12.541 8.648-.646.907 1.81.252 1.967.22 3.815-.777 7.298-3.086 10.882-4.748 1.486-.69 3.895-1.164 5.146-2.456 1.366-1.411-3.456 1.07-5.083 1.94-1.653.884-2.898 2.14-4.342 3.422-.645.573-1.486 1.17.086.94 2.34-.342 4.666-2.108 6.83-3.162 2.198-1.07 4.383-2.199 6.509-3.471.995-.595-3.624 2.295-3.544 3.443.046.644 6.454-3.721 7.145-4.36"/><path stroke="#171717" stroke-linecap="round" stroke-width="2" d="M21.657 90.379c-2.277.16 4.571-.043 6.858.083 8.822.484 17.512.053 26.292-.56l7.036-.493c3.806-.266-7.528 1.428-11.333 1.713-6.053.454-12.384 1.552-18.472.73-2.196-.297-8.704-1.54-6.512-1.692 1.17-.082 3.03.859 4.087 1.196 5.197 1.66 10.395 3.208 15.65 4.478 12.833 3.101 25.324 1.065 38.307 1.508 3.314.114 6.63.457 9.935.226 1.86-.13-3.72-.66-3.994-.718-15.489-3.269-31.02-4.467-46.714-3.808-.26.01-3.277-.293-2.093-.314 1.744-.03 3.493.359 5.224.657 5.785.997 11.579 1.718 17.394 2.081 9.54.596 19.099.326 28.598-.338 2.037-.143 4.095-.2 6.123-.454.014-.002 2.575-.627 1.959-1.032-1.48-.972-3.978-.858-5.534-1.095-4.706-.718-9.42-1.244-14.139-1.67-10.442-.942-20.626-.858-31.02-.131-2.15.15-5.188 1.081-7.326.052-.283-.136.38-.636.665-.737 4.38-1.54 9.341-1.627 13.854-2.119 16.142-1.758 31.917-1.105 48.129.111 6.492.487 13.723 1.221 20.186.148.963-.16.172-.537-.305-.669-2.32-.64-4.722-.952-7.066-1.346-10.483-1.766-21.322-2.743-31.842-2.477-5.772.146-11.533.704-17.29 1.107-1.619.113-6.068.424-1.507.105 11.985-.838 23.99.052 36.005.192 10.213.119 20.404-.356 30.571-1.166 1.958-.156 4.397-.657.816-1.438-13.195-2.877-26.73-2.806-39.982-2.674-12.259.123-24.491 1.121-36.704 2.056-2.76.21-5.448 1.3-8.162 1.49-.633.045 1.273.106 1.907.2 4.243.625 8.464 1.587 12.705 2.255 16.884 2.659 34.042 4.559 50.958 3.543a890.864 890.864 0 0 0 18.552-1.298c.892-.072 1.797-.129 2.631-.542.141-.07-2.721.068-2.922.077-12.069.51-24.121.792-36.176 1.635-8.876.62-17.82.593-26.444 3.23-1.244.38-9.005 2.093-3.565 1.987 17.03-.333 34.034-2.368 51.041-3.237 11.331-.579 23.056-.396 34.217-2.878.326-.073 6.862-1.671 5.898-3.378-1.038-1.837-6.754-.74-8.096-.712-9.669.198-19.468 1.047-29.013 2.668-5.405.918-10.682 2.608-15.844 4.712-3.497 1.425.004.716 1.755.593 9.671-.676 19.237-1.533 28.818-3.165 5.17-.881 10.653-1.837 15.465-4.43.007-.004 2.391-1.072 1.252-1.468-4.09-1.421-9.257-.737-13.379-.777-8.148-.079-16.281.295-24.386 1.04-2.239.206-4.418.59-6.616 1.102-.13.03-2.814.699-2.507.891 1.342.84 3.591.52 4.98.572 3.787.141 7.574.136 11.355.024 7.672-.226 15.476-.055 23.074-1.281 1.379-.222 4.189-.073 5.347-1.294.212-.223-.507-.364-.785-.405-1.784-.266-3.532-.376-5.313-.78-6.933-1.568-13.55-2.272-20.5-1.786-2.693.188 5.404.484 8.107.583 6.265.23 12.614.661 18.862.291 1.521-.09 4.559-.318 4.559-.318s-4.058-.508-6.087-.75c-8.245-.984-16.249-1.398-24.495-.793-11.222.824-21.747 3.905-32.403 8.017-6.943 2.68-13.772 5.01-20.954 6.527-2.32.49-9.239 2.017-7.016 1.078 1.454-.614 3.178-.57 4.693-.686 3.975-.302 7.955-.556 11.932-.834l21.921-1.533c21.592-1.51-43.486 6.474-64.942 1.55-3.526-.809-7.06-1.814-10.607-2.427-1.346-.233-5.403-.364-4.055-.458 4.758-.333 9.574-.21 14.303-.54l-13.28.928c-.68.048-8.238.319-4.38 1.457 8.926 2.633 18.119 1.53 27.114 2.935 1.474.23 2.943.715 4.425.61l-2.735.192c-7.868.55-15.764.642-23.619 1.192-.33.023-5.091-3.591-4.927-1.251-.251.805 1.295 1.258 1.98 1.273 2.376.051 3.863.832 6.238.898 6.658.184 13.242-.236 19.869-.7 5.04-.352 10.064-.864 15.117-.571 3.787.22 7.03-.378 10.736-1.134 6.332-1.293 12.816-.83 19.14-2.003 3.125-.58 6.248-.795 9.41-1.016l-16.69 1.167-8.64.604c-.853.06-2.197.031-.421.26 8.455 1.089 17.307.4 25.72-.188 6.716-.47 12.723-1.223 18.829-4.742 1.154-.665 4.073-1.012 3.906-3.392-.113-1.617-1.442-2.428-2.444-3.05-3.054-1.895-6.601-3.7-9.931-4.443-3.781-.844-7.679-.204-11.448.06l-13.894.971c-7.7.538-15.418-1.15-23.093-.686-3.766.228-7.595.33-11.33.895-4.115.621-7.888 2.648-11.911 3.696-4.675 1.217-9.884.785-14.338 2.894-4.593 2.174-8.574 5.851-13.058 8.376-.256.145.895-5.123-.802-1.784.536.006 3.93 2.107 4.466 2.193 4.48.72 4.954.931 9.434.618 2.38-.166 4.655-.155 7.027-.057.72.03 1.334.393 2.036.344M100.513 229.048l14.697-1.028 2.371-.166c2.921-.204-5.841.417-8.766.546-4.965.218-10.716.586-15.668-.29-.115-.021-.874-.311-.732-.321 2.584-.181 5.167-.389 7.753-.525 6.918-.364 14.002-.884 20.928-.855 2.816.011-2.81.483-3.259.515-1.86.13-3.671.254-5.499.621-1.83.367-.33.091.66.021 10.888-.761 21.906-2.125 32.4-5.239 2.4-.713 4.792-1.47 7.179-2.226.273-.086 1.505-.419.463-.134-5.639 1.544-11.5 2.194-17.32 2.665-3.544.286-8.122.559-11.329 2.313-.101.054-1.311.591-.8.647 2.297.254 4.963-.785 7.162-1.244 4.442-.928 8.948-2.299 13.488-2.616 2.165-.152-4.326.381-6.474.689-3.991.571-7.772 1.518-11.7 2.339-2.164.452-4.348 1.588-6.553 1.742-1.823.128-4.247 1.208-5.775 2.229-.512.342 1.654.189 1.736.183 2.552-.178 5.017-.465 7.489-1.166 3.504-.993 6.889-2.421 10.284-3.727 4.089-1.572 8.377-2.608 12.574-3.853 5.913-1.755 11.885-3.333 17.747-5.263 1.144-.377 3.418-1.184.777-.967-6.157.506-12.646 1.754-18.496 3.727-1.681.567-3.318 1.141-4.881 1.98-.165.089-1.475.766-.551.816 8.045.439 16.697-2.261 23.691-6.05 2.419-1.311-5.136 1.975-7.701 2.972-5.416 2.105-11.528 4.382-17.359 5.016-4.805.522 9.662-.595 14.441-1.314 5.724-.862 11.289-2.072 16.921-3.313.289-.063 1.831-.432.701-.353l-5.583.391c-3.819.267-7.68.407-11.442 1.171-3.36.683-6.562 2.044-9.918 2.688-.243.047-2.756.26-1.912.201 3.074-.215 6.061-.546 9.072-1.242 5.64-1.305 11.775-2.451 17.189-4.548 1.353-.525 1.984-.718.193-.622-3.205.172-6.409.144-9.623.369l13.52-.946c4.693-.328-9.361.959-14.054 1.287l-5.617.393.505-.035c1.368-.096 2.738-.175 4.098-.355 5.848-.772 11.59-2.791 17.447-3.281.449-.038 3.175-.6 2.223.385-2.766 2.863-6.836 3.135-10.218 4.905-1.935 1.013 2.849-.708 3.422-.847 2.169-.529 4.438-.655 6.416-1.767.984-.553.955-1.085-.219-1.201-2.834-.28-5.656.023-8.485.221-3.313.232 6.651.144 9.964-.088.395-.028-.76.22-1.144.316-2.584.651-5.118 1.456-7.736 1.978-9.488 1.889-19.035 3.696-28.606 5.126-4.292.642-8.529 1.46-12.732 2.547-4.448 1.149-9.24 2.025-13.596 3.485-1.726.579-3.581.365-5.256.959-1.053.373-2.48.63-3.601.708-2.418.169-4.06.056-6.357-.535-1.073-.277-2.344-.681-3.456-.604-1.623.114 3.268.096 4.862.421 2.172.442-1.223.542-1.717.576-3.934.275-4.452.92-12.554-.035-2.308.15-25.486-6.154-27.71-6.815"/><path stroke="#FFD424" stroke-linecap="round" stroke-width="2" d="M91.312 40.054c2.423-.292 4.765-2.282 6.799-3.483 3.09-1.824 6.474-3.184 9.734-4.67 5.551-2.533 11.673-1.06 17.291-3.066.709-.253 4.086-1.036 4.271-1.908.347-1.643-1.527-3.188-2.608-4.043-3.5-2.765-7.887-3.029-12.076-1.805-2.676.782-5.056 2.345-7.167 4.134-.913.774-2.012 1.813-2.441 2.977-.21.57.734.382.998.366 2.892-.178 5.824-.3 8.69-.742 2.705-.416 5.451-1.111 7.96-2.222.884-.391 2.257-1 2.667-1.986.198-.479-.577-.64-.886-.676-3.479-.404-7.428.497-10.75 1.333-6.608 1.664-12.756 4.535-18.677 7.857-1.76.987-3.978 2.057-5.384 3.573-.198.213.598.019.865-.094 4.145-1.753 8.139-3.877 12.062-6.075 2.977-1.668 5.991-3.345 8.808-5.277.072-.05 2.372-1.506 1.59-1.565-3.13-.233-6.626 1.723-9.193 3.293-.912.557-2.229 1.746-.638.48.054-.042.582-.43.246-.487-1.001-.168-2.347.95-3.072 1.467-2.175 1.551-4.651 3.129-6.485 5.093-1.297 1.388-2.754 3.354-3.58 5.068-.272.563.276-1.271.682-1.747 2.206-2.585 4.412-5.16 6.576-7.782 1.956-2.368 3.732-4.977 6.074-6.986 1.879-1.612 3.931-2.516 6.197-3.451 4.345-1.794 8.569-2.612 13.231-2.938 3.082-.215 5.827.203 8.597 1.612 2.287 1.164 3.671 3.421 3.848 5.958.152 2.175-1.515 5.598-3.617 6.456-2.86 1.169-6.705 1.056-9.617.27-3.527-.95-6.509-3.155-9.933-4.246-.268-.085-2.053-.767-2.239-.38-.139.288-.363.414-.656.538-1.181.502-2.34.93-3.417 1.648-2.389 1.591-4.804 3.363-6.7 5.543-.562.647-.833 1.461-1.302 2.159-.368.55 2.133-.235 2.341-.264 5.838-.83 11.718-1.423 17.6-1.835 3.444-.24 6.346.98 9.687 1.536 1.851.309 3.772.05 5.423-.781.742-.374 1.318-.82 1.76-1.532.619-.997 1.741-1.904 2.184-2.97.515-1.238-.318-2.628-.7-3.774-.422-1.268-1.237-2.672-1.332-4.02-.041-.598-2.141-1.52-2.584-1.787-1.237-.745-2.468-1.5-3.691-2.268-.308-.194-1.012-.734-.183-.39 2.503 1.04 4.787 2.694 7.184 3.958.226.119 2.165 1.51 1.675.923-2.469-2.96-5.151-6.6-8.687-8.335-1.46-.717-3.688-.541-5.275-.459-1.612.084.265-.049.82.055 1.731.322 3.444.637 5.193.888 1.855.267 4.73.38 6.161 1.783 1.718 1.686 2.97 3.342 3.66 5.668.581 1.957 1.111 4.402-.018 6.295-.707 1.185-2.1 1.864-3.419 2.106-2.898.533-5.035-1.262-7.039-3.152-1.816-1.712-3.542-3.52-5.331-5.261-.872-.849-2.153-1.678-2.91-2.614-.45-.555 1.343.492 2.009.754 2.448.966 4.955 1.77 7.402 2.747 1.514.605 3.012 1.216 4.492 1.899.331.152 1.249.7.415.172-1.434-.906-2.741-2.018-4.122-2.998-1.949-1.382-4.02-2.554-6.016-3.86-.05-.033-1.291-.872-1.086-.83.916.189 1.832.412 2.748.613 1.739.38 3.469.758 5.147 1.361.052.018 1.646.636 1.569.695-.523.404-2.631-.402-3.055-.524a267.172 267.172 0 0 1-10.032-3.121c-1.281-.424-2.559-1.073-3.893-1.316-.548-.1.166-.056.353-.069 2.437-.17 4.848-.285 7.288-.32 1.559-.022.559-.35-.41-.753-2.417-1.004-4.893.144-7.289.8-5.308 1.453-10.302 3.894-14.409 7.659-.507.464.162.285.542.241 2.074-.238 4.142-.51 6.22-.725 5.877-.607 12.425-1.552 18.193.237.226.07 3.915 1.616 2.693 1.902-1.902.444-4.377-.157-6.269-.289-4.992-.347-9.994-.598-14.993-.83-1.471-.067-5.884-.057-4.415-.16 2.07-.145 4.376.347 6.397.682 5.319.881 11.155 1.714 16.069 4.074 1.95.937-3.014.069-3.309.008a98.13 98.13 0 0 1-4.566-1.045c-.972-.25 1.963.448 2.896.815 2.415.951 5.215 1.976 7.314 3.569.769.583-.973.546-1.125.537-2.194-.136-4.39-.679-6.564-.994-1.129-.165-2.251-.372-3.38-.535-.545-.08 1.211.269 1.341.308 1.597.486 3.156 1.092 4.586 1.96.179.109 1.593.843 1.536 1.19-.031.192-13.034-1.52-14.029-1.613-3.065-.287-6.041-.295-9.102-.19-.513.017 1.414-.218 1.893-.11 3.292.734 6.361 2.094 9.616 2.915 4.59 1.157 9.018 1.191 13.676.866 2.042-.143 8.197-.424 7.988-3.42-.111-1.582.449-2.803 1.483-4.04 1.042-1.244.355-2.763.568-4.186.098-.654.861.595.882.62.789.946 1.545 1.94 2.252 2.95.531.76 1.038 2.562.354 3.307-.643.7-2.074.79-2.922 1.21-.703.349-1.498.573-2.155 1-.945.615-1.741 1.434-2.684 2.055-.164.108-1.133.582-.955.57.503-.035.624-.326.999-.573 1.371-.903 3.295-1.563 4.18-3.054.396-.667.457-1.346.774-2.032.503-1.087 1.016-2.164 1.265-3.342.274-1.296 1.748-4.812-.536-4.936-.767-.042-.934.858-1.118 1.43-.467 1.454-1.273 2.798-2.45 3.805-1.135.97-2.831.813-4.216.932-1.518.13-1.657.294-2.918-.803"/><path stroke="#171717" stroke-linecap="round" stroke-width="2" d="M161.012 83.073c.421 6.022-43.995 14.034-73.833 16.12-41.198 2.881-74.937.335-75.358-5.688 11.156-11.737 32.635-13.239 73.833-16.12 41.198-2.88 74.937-.334 75.358 5.688Z"/><path stroke="#171717" stroke-linecap="round" stroke-linejoin="round" stroke-width="2" d="m11.793 93.672 9.932 25.76 27.878 2.086a356.599 356.599 0 0 0 110.739-9.071v0l.589-29.204"/><path stroke="#171717" stroke-linecap="round" stroke-linejoin="round" stroke-width="2" d="m24.703 120.329 23.97 98.835 13.107 3.752a132.342 132.342 0 0 0 96.712-9.428v0l-1.827-99.695M87.288 85.338l-2.42-34.602m0 0v0c-.38-5.436.71-10.934 3.833-15.399 10.08-14.407 28.385-30.816 48.366-21.434 5.038 2.365 6.545 8.506 4.632 13.732v0c-2.296 6.275-8.965 9.734-15.599 8.933-15.843-1.915-36.338-.53-41.231 14.168ZM86.819 78.704 84.926 51.63m0 0v0c-.29-4.133-1.69-8.157-4.515-11.188-9.113-9.78-24.631-20.198-38.682-11.02-3.542 2.314-4.027 7.097-2.034 10.83v0c2.393 4.48 7.78 6.38 12.69 5.074 11.725-3.118 27.301-4.245 32.54 6.304Z"/><path stroke="#171717" stroke-linecap="round" stroke-width="2" d="M86.343 43.592c4.94-8.197 18.618-24.759 33.809-25.42M14.02 95.994c.144 2.058.038 4.374.822 6.281.959 2.337 2.03 4.79 3.411 6.839 1.814 2.689 2.972 5.658 4.479 8.513 1.835 3.477 6.834 2.956 9.912 3.127 3.195.177 6.375.717 9.56.727 2.478.008 5.038-.334 7.513-.188 2.465.145 4.924-.092 7.384.013 1.638.071 3.162.341 4.82.225 1.154-.081 2.048.31 3.172.372 3.33.184 6.74 1.362 10.052 1.881 3.325.52 6.404.996 9.747.763.894-.063 1.618-.493 2.562-.452 4.552.195 9.036-.071 13.578-.388 3.79-.265 7.58-.241 11.373-.507 3.174-.222 5.868-1.955 8.775-3.213 5.339-2.311 10.669-2.19 16.273-2.582 2.792-.196 5.411-.956 8.196-1.151l7.884-.551c1.727-.121 3.326-1.209 4.82-2.199.754-.499 1.497-.721 1.863-1.735.571-1.583.012-4.282-.103-5.931-.526-7.529 1.507-14.926.982-22.44"/><path stroke="#171717" stroke-linecap="round" stroke-width="2" d="M24.227 121.585c1.273 18.216 9.14 35.079 13.51 52.581.791 3.17 2.455 6.166 2.996 9.365.732 4.322 1.843 9.262 3.178 13.446 1.828 5.731 3.735 11.746 4.162 17.856.203 2.906 1.398 2.865 3.566 3.757 2.984 1.227 5.934 2.61 8.907 3.855 3.214 1.345 6.864 1.492 10.247 2.199 6.169 1.29 12.296 2.371 18.32 4.552 7.805 2.825 16.64 1.223 24.631.664 8.012-.56 14.439-8 22.329-8.808 5.129-.526 12.086-3.403 16.976-5.003 1.307-.428 4.394-1.309 4.962-2.704.663-1.631.047.669-.081-1.157-.179-2.556 1.039-5.235.855-7.866-.203-2.894.055-5.901-.153-8.886l-1.173-16.768c-.335-4.796-1.115-9.979-.531-14.663.601-4.822 2.044-10.571 1.7-15.496-.79-11.301-1.148-23.11-1.951-34.595M86.321 84.38c-.453-6.486.059-5.618-.384-11.945-.283-4.054.781-8.204.494-12.31l-.957-13.68c-.304-4.352 1.753-8.8 3.905-12.303a64.13 64.13 0 0 1 9.94-12.452c3.184-3.1 7.177-4.625 10.785-7.164 1.501-1.057 2.624-1.411 4.407-1.536 1.311-.092 4.73-.396 5.789-1.141 1.423-1.002 4.642-.57 6.298-.686 2.532-.177 5.054-.395 7.463.569 3.356 1.342 6.641 3.28 8.492 6.662 1.269 2.32 3.378 7.838 1.643 10.578-1.597 2.522-4.085 5.868-7.12 6.499-1.47.306-2.691 1.17-4.425 1.291-1.892.133-3.888-.219-5.649-.096-1.889.132-3.751-1.21-5.694-1.074-2.489.174-5.079-.627-7.531-.456l-7.163.501c-2.52.176-4.081 1.516-6.377 2.41-1.828.711-3.744 1.862-5.445 2.836-1.817 1.04-4.573 1.668-6.1 3.154-.486.473-3.58 3.179-3.593 3.143"/><path stroke="#171717" stroke-linecap="round" stroke-width="2" d="M85.706 46.919c-.2-2.873 3.29-5.715 4.902-7.735 1.753-2.197 3.736-3.938 5.79-5.779 1.807-1.617 3.072-3.903 4.908-5.498 5.345-4.643 12.494-8.484 19.463-8.972"/><path fill="#171717" d="M57.443 35.044a1 1 0 1 0 .41 1.958l-.41-1.958Zm.41 1.958c1.814-.38 4.305-.316 7.095.136 2.773.45 5.769 1.27 8.561 2.346 2.798 1.077 5.352 2.396 7.264 3.822 1.948 1.454 3.063 2.896 3.3 4.173l1.966-.365c-.378-2.037-2.005-3.87-4.07-5.41-2.102-1.57-4.833-2.966-7.74-4.086-2.914-1.122-6.043-1.98-8.961-2.454-2.901-.47-5.668-.571-7.825-.12l.41 1.958Z"/><path stroke="#171717" stroke-linecap="round" stroke-width="2" d="M83.97 45.453c-1.19-2.015-2.868-3.773-4.733-5.185-1.356-1.026-2.728-2.38-4.245-3.167-1.827-.948-3.947-1.986-5.51-3.345-1.27-1.105-1.886-3.455-3.417-4.091-2.449-1.018-4.43-2.537-7.242-2.585-2.723-.046-5.27-.124-8.029.069-2.305.161-4.053 1.09-6.096 1.985-.761.333-1.376.738-2.077 1.171-.517.32-.556.925-.986 1.322-.463.426-.518 1.45-.698 2.02-.416 1.312-.55 2.43-.454 3.802.19 2.716.508 5.228 1.556 7.765.609 1.476 3.79 1.707 5.095 1.616 2.43-.17 5.059-.054 7.378-.81a26.007 26.007 0 0 0 3.032-1.224c.907-.427 2.108-.246 3.08-.535 5.21-1.546 10.785-.536 15.84.944 1.674.49 3.253 1.195 4.915 1.682.524.153.876.582 1.225.953.655.695 2.02.983 2.382 1.859"/></svg>