<svg width="85" height="62" viewBox="0 0 85 62" fill="none" xmlns="http://www.w3.org/2000/svg">
  <path
    d="M43.4738 45.7216L43.1877 45.3115L43.4738 45.7216ZM57.8698 16.158L58.2105 15.7921L57.8698 16.158ZM71.3583 61.5658C71.1047 61.675 70.8105 61.5579 70.7013 61.3043L68.9215 57.1712C68.8123 56.9176 68.9294 56.6235 69.183 56.5142C69.4366 56.405 69.7308 56.5221 69.84 56.7757L71.422 60.4496L75.0959 58.8675C75.3495 58.7583 75.6436 58.8754 75.7529 59.129C75.8621 59.3826 75.745 59.6768 75.4914 59.786L71.3583 61.5658ZM8.91997 10.4133C17.8436 14.0526 30.3185 20.1746 38.7006 26.7144C42.8787 29.9741 46.1166 33.3952 47.3316 36.7231C47.9451 38.4036 48.0495 40.0795 47.4782 41.692C46.9089 43.2992 45.6888 44.7857 43.7599 46.1316L43.1877 45.3115C44.9989 44.0477 46.055 42.7148 46.5356 41.3581C47.0144 40.0066 46.9427 38.5739 46.3922 37.066C45.279 34.0169 42.2364 30.7413 38.0855 27.5028C29.8098 21.0461 17.4332 14.9652 8.54233 11.3392L8.91997 10.4133ZM43.7599 46.1316C41.3693 47.7998 39.3202 48.3278 37.6419 47.8065C35.9599 47.2841 34.8374 45.7669 34.1616 43.7904C32.8116 39.8416 33.0868 33.6401 34.6448 27.7616C36.2022 21.885 39.0844 16.1689 43.1007 13.2703C45.1248 11.8095 47.4469 11.0588 50.0158 11.3857C52.5746 11.7112 55.3172 13.0979 58.2105 15.7921L57.529 16.5239C54.7351 13.9223 52.1779 12.6688 49.8895 12.3777C47.6113 12.0878 45.5388 12.7439 43.6859 14.0812C39.9482 16.7788 37.1468 22.2243 35.6114 28.0178C34.0765 33.8092 33.8494 39.7859 35.1078 43.4669C35.7363 45.3052 36.6958 46.4656 37.9385 46.8515C39.1848 47.2386 40.9031 46.9057 43.1877 45.3115L43.7599 46.1316ZM58.2105 15.7921C76.5868 32.9033 74.8401 53.2134 71.6251 61.2914L70.696 60.9217C73.7866 53.1561 75.5515 33.3056 57.529 16.5239L58.2105 15.7921Z"
    fill="currentColor"
  />
  <path
    opacity="0.8"
    d="M9.03911 11.4875C11.9317 12.3839 15.0028 13.1159 17.7149 14.4007C20.9117 15.915 23.7464 18.1737 27.1783 19.2372C28.8049 19.7412 30.6958 20.9961 32.05 22.024C33.339 23.0024 34.6792 23.863 35.9791 24.838C38.2073 26.5093 40.7934 27.3696 42.4085 29.8104C43.8486 31.9867 46.1409 33.1764 47.3632 35.4965C48.1801 37.047 49.0365 39.0266 48.5037 40.7456C48.0642 42.164 47.3093 42.8388 46.2984 43.8936C44.2292 46.0527 41.3617 46.4899 38.5494 46.7665C37.4449 46.8751 35.8754 46.5883 35.2211 45.8297C34.5311 45.0296 34.4549 43.8016 34.0712 42.8244C32.6786 39.2786 33.1604 34.6205 34.2742 31.0265C34.9551 28.8291 35.6361 26.6316 36.317 24.4342C36.9538 22.3793 38.0491 20.7267 39.1002 18.8873C40.1416 17.0651 42.0191 15.0745 43.8858 14.0911C44.6253 13.7015 45.1525 12.9983 45.9811 12.8247C47.1176 12.5865 48.196 12.558 49.3524 12.5922C54.4218 12.7421 57.9539 16.3353 60.8733 20.1003C62.4355 22.1149 64.4391 24.0917 65.231 26.6065C65.3848 27.0951 65.3864 27.9296 65.5963 28.328C65.8449 28.7998 66.8734 29.2228 67.2879 29.5854C68.66 30.7857 69.0016 32.9394 69.7578 34.5133C70.5318 36.1245 71.3015 37.9222 71.8386 39.6281C73.1719 43.8626 74.2907 48.0899 74.3855 52.5502C74.4381 55.0275 73.3112 57.5433 72.5769 59.9127"
    stroke="currentColor"
    stroke-width="0.5"
    stroke-linecap="round"
  />
</svg>
