<svg width="544" height="416" fill="none" xmlns="http://www.w3.org/2000/svg"><mask id="a" maskUnits="userSpaceOnUse" x="0" y="0" width="543" height="406" fill="#000"><path fill="#fff" d="M0 0h543v406H0z"/><path d="m530.114 267.451-2.43 23.67c-.25 2.38-.37 3.58-1.02 4.59-.58.89-1.41 1.57-2.4 1.95-1.12.43-2.31.31-4.7.06l-14.2-1.46c-2.07-.21-3.11-.32-3.78-.06-.59.23-1.09.63-1.44 1.17-.39.6-.5 1.7-.71 3.68l-2.57 25.06c-.25 2.38-.37 3.58-1.02 4.59-.58.89-1.41 1.57-2.4 1.95-.54.21-1.09.29-1.79.29-.75 0-1.67-.09-2.92-.22l-31.17-3.2c-2.38-.25-3.58-.37-4.59-1.02a4.994 4.994 0 0 1-1.95-2.4c-.43-1.12-.31-2.32-.07-4.7l2.57-25.04c.21-2.07.32-3.1.06-3.78-.23-.59-.63-1.09-1.17-1.44-.61-.39-1.71-.5-3.71-.71l-91.51-9.4c-2.39-.25-3.58-.37-4.59-1.02-.89-.58-1.57-1.4-1.95-2.4-.43-1.12-.31-2.32-.07-4.7l2.83-27.54c.08-.74.12-1.13.23-1.54.1-.36.25-.71.43-1.05.21-.38.46-.7.92-1.27l21.37-26.82c-1.2.48-2.45.89-3.88 1.09-.93.13-1.86.2-2.83.2-1.32 0-2.7-.12-4.2-.36-.47-.08-.94-.14-1.4-.2-1.52-.2-3.09-.4-4.62-1.11l-.7-.32c-1.21-.55-2.46-1.12-3.62-1.82-.77-.47-1.49-1.01-2.19-1.53-.75-.56-1.46-1.09-2.22-1.53-1.11-.64-1.95-1.48-2.76-2.3-.3-.3-.59-.6-.91-.88-.92-.85-1.69-1.89-2.44-2.91 2.97 15.57 3.09 30.35.24 40.47-7.2 25.66-26.48 48.05-49.77 60.6 0 .01 0 .02.01.03l9.636 68.55a12 12 0 0 0 11.32 10.316l7.534.354a1 1 0 0 1-.05 2h-.05l-18.3-.86a.985.985 0 0 1-.94-.86l-11.04-78.55c-11.37 5.82-23.63 9.3-35.87 9.69-.87.03-1.74.04-2.6.04-6.08 0-12.05-.67-17.83-1.96l9.565 68.03a12 12 0 0 0 11.321 10.316l7.534.354a1 1 0 0 1-.05 2h-.05l-18.3-.86a.985.985 0 0 1-.94-.86l-11.13-79.22c-.01-.09 0-.17.02-.26-11.33-2.85-21.84-8.13-30.85-15.61l5.71 40.54c.11.8-.44 1.54-1.25 1.65l-20.15 2.83h-.14a1 1 0 0 1-.14-1.99l1.602-.226c5.47-.769 6.968-7.967 2.258-10.854a1.004 1.004 0 0 1 1.05-1.71c5.803 3.553 13.123-1.248 12.177-7.986l-3.407-24.254c-5.15-4.62-9.68-9.92-13.63-15.82-.49.14-1.05.28-1.71.44l-13.87 3.46c-1.95.49-3.03.76-3.57 1.23-.48.42-.81.97-.95 1.59-.16.7.09 1.7.59 3.71l6.1 24.44c.58 2.33.87 3.49.6 4.66a4.982 4.982 0 0 1-1.59 2.65c-.91.79-2.07 1.08-4.4 1.66l-30.4 7.59c-1.74.43-2.82.7-3.75.7-.32 0-.62-.03-.92-.1a4.982 4.982 0 0 1-2.65-1.59c-.79-.91-1.08-2.07-1.66-4.4l-6.1-24.42c-.49-1.95-.75-3.02-1.23-3.57-.42-.48-.97-.81-1.59-.96-.7-.16-1.78.11-3.73.59l-89.25 22.29c-2.33.58-3.49.87-4.66.6a4.982 4.982 0 0 1-2.65-1.59c-.79-.9-1.08-2.07-1.66-4.4l-6.71-26.86c-.18-.71-.27-1.1-.31-1.53-.03-.38-.01-.76.04-1.14.07-.43.2-.81.43-1.5l52.33-154.77c.43-1.27.66-1.96 1.1-2.57.4-.55.89-1 1.46-1.35.64-.39 1.36-.57 2.65-.89l46.45-11.6c2.33-.58 3.5-.87 4.66-.6 1.04.24 1.95.79 2.65 1.59.79.9 1.08 2.07 1.66 4.39l31.17 124.81c.5 2.02.76 3.03 1.23 3.57.42.48.97.81 1.59.95.69.16 1.71-.09 3.71-.59l9.93-2.48c-1.57-6.77-3.35-22.05-3.23-22.23-14.34-23.06-13.28-40.59-9.79-51.29 3.54-10.87 10.84-18.22 16.41-20.73-.21-3.45.5-10.11.41-10.36-3.62-10.12-5.96-31.84 10.49-42.73l-1.3-2.13c-8.35 4.48-16.62 7.91-23.33 9.67-2.56.67-5.46 1.24-7.94 1.24-2.48 0-4.55-.57-5.43-2.19-1.74-3.22 2.58-8.14 6.52-11.71 5.25-4.75 12.83-9.91 21.36-14.52 15.77-8.53 34.17-14.59 37.21-8.99 2.95 5.45-11.31 17.05-26.63 25.54l1.24 2.04c16.75-9.59 35.22.09 40.74 4.51 1.76-.47 3.45-.87 5.03-1.2 26.45-3.72 46.28.38 60.68 7.74l-12.8-60.77c-.05-.26 0-.53.14-.75.15-.22.37-.38.63-.43l150.09-31.61a.995.995 0 0 1 1.18.77l15.8 75.03c.05.26 0 .53-.14.75-.15.22-.37.38-.63.43l-76.14 16.03 13.16 54.96h.03c.11-.01.24-.04.39-.07.97-.18 2.54-.46 3.29.53 1.18.72 2.12 5.8 2.12 5.86.08.58 1.98 13.15 1.92 15.36-.03 1.06-.08 10.33-.08 10.33l62.37-78.28c.84-1.05 1.29-1.62 1.91-2.04.56-.38 1.17-.64 1.83-.77.74-.15 1.47-.07 2.8.06l47.63 4.89c2.38.25 3.58.37 4.59 1.02.89.58 1.57 1.41 1.95 2.4.43 1.12.31 2.32.07 4.7l-13.14 127.96c-.21 2.08-.32 3.11-.06 3.78.23.6.64 1.09 1.17 1.44.61.39 1.71.5 3.71.71l14.2 1.46c2.38.25 3.58.37 4.59 1.02.89.58 1.57 1.41 1.95 2.4.43 1.12.31 2.32.07 4.7Z"/></mask><path d="m530.114 267.451-2.43 23.67c-.25 2.38-.37 3.58-1.02 4.59-.58.89-1.41 1.57-2.4 1.95-1.12.43-2.31.31-4.7.06l-14.2-1.46c-2.07-.21-3.11-.32-3.78-.06-.59.23-1.09.63-1.44 1.17-.39.6-.5 1.7-.71 3.68l-2.57 25.06c-.25 2.38-.37 3.58-1.02 4.59-.58.89-1.41 1.57-2.4 1.95-.54.21-1.09.29-1.79.29-.75 0-1.67-.09-2.92-.22l-31.17-3.2c-2.38-.25-3.58-.37-4.59-1.02a4.994 4.994 0 0 1-1.95-2.4c-.43-1.12-.31-2.32-.07-4.7l2.57-25.04c.21-2.07.32-3.1.06-3.78-.23-.59-.63-1.09-1.17-1.44-.61-.39-1.71-.5-3.71-.71l-91.51-9.4c-2.39-.25-3.58-.37-4.59-1.02-.89-.58-1.57-1.4-1.95-2.4-.43-1.12-.31-2.32-.07-4.7l2.83-27.54c.08-.74.12-1.13.23-1.54.1-.36.25-.71.43-1.05.21-.38.46-.7.92-1.27l21.37-26.82c-1.2.48-2.45.89-3.88 1.09-.93.13-1.86.2-2.83.2-1.32 0-2.7-.12-4.2-.36-.47-.08-.94-.14-1.4-.2-1.52-.2-3.09-.4-4.62-1.11l-.7-.32c-1.21-.55-2.46-1.12-3.62-1.82-.77-.47-1.49-1.01-2.19-1.53-.75-.56-1.46-1.09-2.22-1.53-1.11-.64-1.95-1.48-2.76-2.3-.3-.3-.59-.6-.91-.88-.92-.85-1.69-1.89-2.44-2.91 2.97 15.57 3.09 30.35.24 40.47-7.2 25.66-26.48 48.05-49.77 60.6 0 .01 0 .02.01.03l9.636 68.55a12 12 0 0 0 11.32 10.316l7.534.354a1 1 0 0 1-.05 2h-.05l-18.3-.86a.985.985 0 0 1-.94-.86l-11.04-78.55c-11.37 5.82-23.63 9.3-35.87 9.69-.87.03-1.74.04-2.6.04-6.08 0-12.05-.67-17.83-1.96l9.565 68.03a12 12 0 0 0 11.321 10.316l7.534.354a1 1 0 0 1-.05 2h-.05l-18.3-.86a.985.985 0 0 1-.94-.86l-11.13-79.22c-.01-.09 0-.17.02-.26-11.33-2.85-21.84-8.13-30.85-15.61l5.71 40.54c.11.8-.44 1.54-1.25 1.65l-20.15 2.83h-.14a1 1 0 0 1-.14-1.99l1.602-.226c5.47-.769 6.968-7.967 2.258-10.854a1.004 1.004 0 0 1 1.05-1.71c5.803 3.553 13.123-1.248 12.177-7.986l-3.407-24.254c-5.15-4.62-9.68-9.92-13.63-15.82-.49.14-1.05.28-1.71.44l-13.87 3.46c-1.95.49-3.03.76-3.57 1.23-.48.42-.81.97-.95 1.59-.16.7.09 1.7.59 3.71l6.1 24.44c.58 2.33.87 3.49.6 4.66a4.982 4.982 0 0 1-1.59 2.65c-.91.79-2.07 1.08-4.4 1.66l-30.4 7.59c-1.74.43-2.82.7-3.75.7-.32 0-.62-.03-.92-.1a4.982 4.982 0 0 1-2.65-1.59c-.79-.91-1.08-2.07-1.66-4.4l-6.1-24.42c-.49-1.95-.75-3.02-1.23-3.57-.42-.48-.97-.81-1.59-.96-.7-.16-1.78.11-3.73.59l-89.25 22.29c-2.33.58-3.49.87-4.66.6a4.982 4.982 0 0 1-2.65-1.59c-.79-.9-1.08-2.07-1.66-4.4l-6.71-26.86c-.18-.71-.27-1.1-.31-1.53-.03-.38-.01-.76.04-1.14.07-.43.2-.81.43-1.5l52.33-154.77c.43-1.27.66-1.96 1.1-2.57.4-.55.89-1 1.46-1.35.64-.39 1.36-.57 2.65-.89l46.45-11.6c2.33-.58 3.5-.87 4.66-.6 1.04.24 1.95.79 2.65 1.59.79.9 1.08 2.07 1.66 4.39l31.17 124.81c.5 2.02.76 3.03 1.23 3.57.42.48.97.81 1.59.95.69.16 1.71-.09 3.71-.59l9.93-2.48c-1.57-6.77-3.35-22.05-3.23-22.23-14.34-23.06-13.28-40.59-9.79-51.29 3.54-10.87 10.84-18.22 16.41-20.73-.21-3.45.5-10.11.41-10.36-3.62-10.12-5.96-31.84 10.49-42.73l-1.3-2.13c-8.35 4.48-16.62 7.91-23.33 9.67-2.56.67-5.46 1.24-7.94 1.24-2.48 0-4.55-.57-5.43-2.19-1.74-3.22 2.58-8.14 6.52-11.71 5.25-4.75 12.83-9.91 21.36-14.52 15.77-8.53 34.17-14.59 37.21-8.99 2.95 5.45-11.31 17.05-26.63 25.54l1.24 2.04c16.75-9.59 35.22.09 40.74 4.51 1.76-.47 3.45-.87 5.03-1.2 26.45-3.72 46.28.38 60.68 7.74l-12.8-60.77c-.05-.26 0-.53.14-.75.15-.22.37-.38.63-.43l150.09-31.61a.995.995 0 0 1 1.18.77l15.8 75.03c.05.26 0 .53-.14.75-.15.22-.37.38-.63.43l-76.14 16.03 13.16 54.96h.03c.11-.01.24-.04.39-.07.97-.18 2.54-.46 3.29.53 1.18.72 2.12 5.8 2.12 5.86.08.58 1.98 13.15 1.92 15.36-.03 1.06-.08 10.33-.08 10.33l62.37-78.28c.84-1.05 1.29-1.62 1.91-2.04.56-.38 1.17-.64 1.83-.77.74-.15 1.47-.07 2.8.06l47.63 4.89c2.38.25 3.58.37 4.59 1.02.89.58 1.57 1.41 1.95 2.4.43 1.12.31 2.32.07 4.7l-13.14 127.96c-.21 2.08-.32 3.11-.06 3.78.23.6.64 1.09 1.17 1.44.61.39 1.71.5 3.71.71l14.2 1.46c2.38.25 3.58.37 4.59 1.02.89.58 1.57 1.41 1.95 2.4.43 1.12.31 2.32.07 4.7Z" fill="#fff"/><path d="m530.114 267.451-2.43 23.67c-.25 2.38-.37 3.58-1.02 4.59-.58.89-1.41 1.57-2.4 1.95-1.12.43-2.31.31-4.7.06l-14.2-1.46c-2.07-.21-3.11-.32-3.78-.06-.59.23-1.09.63-1.44 1.17-.39.6-.5 1.7-.71 3.68l-2.57 25.06c-.25 2.38-.37 3.58-1.02 4.59-.58.89-1.41 1.57-2.4 1.95-.54.21-1.09.29-1.79.29-.75 0-1.67-.09-2.92-.22l-31.17-3.2c-2.38-.25-3.58-.37-4.59-1.02a4.994 4.994 0 0 1-1.95-2.4c-.43-1.12-.31-2.32-.07-4.7l2.57-25.04c.21-2.07.32-3.1.06-3.78-.23-.59-.63-1.09-1.17-1.44-.61-.39-1.71-.5-3.71-.71l-91.51-9.4c-2.39-.25-3.58-.37-4.59-1.02-.89-.58-1.57-1.4-1.95-2.4-.43-1.12-.31-2.32-.07-4.7l2.83-27.54c.08-.74.12-1.13.23-1.54.1-.36.25-.71.43-1.05.21-.38.46-.7.92-1.27l21.37-26.82c-1.2.48-2.45.89-3.88 1.09-.93.13-1.86.2-2.83.2-1.32 0-2.7-.12-4.2-.36-.47-.08-.94-.14-1.4-.2-1.52-.2-3.09-.4-4.62-1.11l-.7-.32c-1.21-.55-2.46-1.12-3.62-1.82-.77-.47-1.49-1.01-2.19-1.53-.75-.56-1.46-1.09-2.22-1.53-1.11-.64-1.95-1.48-2.76-2.3-.3-.3-.59-.6-.91-.88-.92-.85-1.69-1.89-2.44-2.91 2.97 15.57 3.09 30.35.24 40.47-7.2 25.66-26.48 48.05-49.77 60.6 0 .01 0 .02.01.03l9.636 68.55a12 12 0 0 0 11.32 10.316l7.534.354a1 1 0 0 1-.05 2h-.05l-18.3-.86a.985.985 0 0 1-.94-.86l-11.04-78.55c-11.37 5.82-23.63 9.3-35.87 9.69-.87.03-1.74.04-2.6.04-6.08 0-12.05-.67-17.83-1.96l9.565 68.03a12 12 0 0 0 11.321 10.316l7.534.354a1 1 0 0 1-.05 2h-.05l-18.3-.86a.985.985 0 0 1-.94-.86l-11.13-79.22c-.01-.09 0-.17.02-.26-11.33-2.85-21.84-8.13-30.85-15.61l5.71 40.54c.11.8-.44 1.54-1.25 1.65l-20.15 2.83h-.14a1 1 0 0 1-.14-1.99l1.602-.226c5.47-.769 6.968-7.967 2.258-10.854a1.004 1.004 0 0 1 1.05-1.71c5.803 3.553 13.123-1.248 12.177-7.986l-3.407-24.254c-5.15-4.62-9.68-9.92-13.63-15.82-.49.14-1.05.28-1.71.44l-13.87 3.46c-1.95.49-3.03.76-3.57 1.23-.48.42-.81.97-.95 1.59-.16.7.09 1.7.59 3.71l6.1 24.44c.58 2.33.87 3.49.6 4.66a4.982 4.982 0 0 1-1.59 2.65c-.91.79-2.07 1.08-4.4 1.66l-30.4 7.59c-1.74.43-2.82.7-3.75.7-.32 0-.62-.03-.92-.1a4.982 4.982 0 0 1-2.65-1.59c-.79-.91-1.08-2.07-1.66-4.4l-6.1-24.42c-.49-1.95-.75-3.02-1.23-3.57-.42-.48-.97-.81-1.59-.96-.7-.16-1.78.11-3.73.59l-89.25 22.29c-2.33.58-3.49.87-4.66.6a4.982 4.982 0 0 1-2.65-1.59c-.79-.9-1.08-2.07-1.66-4.4l-6.71-26.86c-.18-.71-.27-1.1-.31-1.53-.03-.38-.01-.76.04-1.14.07-.43.2-.81.43-1.5l52.33-154.77c.43-1.27.66-1.96 1.1-2.57.4-.55.89-1 1.46-1.35.64-.39 1.36-.57 2.65-.89l46.45-11.6c2.33-.58 3.5-.87 4.66-.6 1.04.24 1.95.79 2.65 1.59.79.9 1.08 2.07 1.66 4.39l31.17 124.81c.5 2.02.76 3.03 1.23 3.57.42.48.97.81 1.59.95.69.16 1.71-.09 3.71-.59l9.93-2.48c-1.57-6.77-3.35-22.05-3.23-22.23-14.34-23.06-13.28-40.59-9.79-51.29 3.54-10.87 10.84-18.22 16.41-20.73-.21-3.45.5-10.11.41-10.36-3.62-10.12-5.96-31.84 10.49-42.73l-1.3-2.13c-8.35 4.48-16.62 7.91-23.33 9.67-2.56.67-5.46 1.24-7.94 1.24-2.48 0-4.55-.57-5.43-2.19-1.74-3.22 2.58-8.14 6.52-11.71 5.25-4.75 12.83-9.91 21.36-14.52 15.77-8.53 34.17-14.59 37.21-8.99 2.95 5.45-11.31 17.05-26.63 25.54l1.24 2.04c16.75-9.59 35.22.09 40.74 4.51 1.76-.47 3.45-.87 5.03-1.2 26.45-3.72 46.28.38 60.68 7.74l-12.8-60.77c-.05-.26 0-.53.14-.75.15-.22.37-.38.63-.43l150.09-31.61a.995.995 0 0 1 1.18.77l15.8 75.03c.05.26 0 .53-.14.75-.15.22-.37.38-.63.43l-76.14 16.03 13.16 54.96h.03c.11-.01.24-.04.39-.07.97-.18 2.54-.46 3.29.53 1.18.72 2.12 5.8 2.12 5.86.08.58 1.98 13.15 1.92 15.36-.03 1.06-.08 10.33-.08 10.33l62.37-78.28c.84-1.05 1.29-1.62 1.91-2.04.56-.38 1.17-.64 1.83-.77.74-.15 1.47-.07 2.8.06l47.63 4.89c2.38.25 3.58.37 4.59 1.02.89.58 1.57 1.41 1.95 2.4.43 1.12.31 2.32.07 4.7l-13.14 127.96c-.21 2.08-.32 3.11-.06 3.78.23.6.64 1.09 1.17 1.44.61.39 1.71.5 3.71.71l14.2 1.46c2.38.25 3.58.37 4.59 1.02.89.58 1.57 1.41 1.95 2.4.43 1.12.31 2.32.07 4.7Z" stroke="#fff" stroke-width="24" mask="url(#a)"/><path d="M19.795 313.353c.543 2.173.814 3.26 1.444 3.984a3.998 3.998 0 0 0 2.12 1.273c.936.216 2.022-.056 4.196-.599l89.248-22.29c2.174-.543 3.26-.814 4.196-.598a4 4 0 0 1 2.12 1.272c.63.725.901 1.811 1.444 3.985l6.099 24.418c.543 2.174.814 3.261 1.444 3.985a4.009 4.009 0 0 0 2.12 1.273c.936.215 2.023-.056 4.196-.599l30.399-7.592c2.174-.543 3.261-.815 3.985-1.445a4.002 4.002 0 0 0 1.273-2.119c.215-.936-.056-2.023-.599-4.196l-6.099-24.419c-.542-2.174-.814-3.26-.598-4.196a4 4 0 0 1 1.272-2.12c.725-.63 1.811-.901 3.985-1.444l13.851-3.46c2.174-.542 3.26-.814 3.985-1.444a4 4 0 0 0 1.272-2.12c.216-.936-.055-2.022-.598-4.196l-5.767-23.088c-.542-2.174-.814-3.26-1.444-3.985a4 4 0 0 0-2.12-1.272c-.936-.216-2.022.056-4.196.598l-13.851 3.46c-2.174.543-3.26.814-4.196.598a4 4 0 0 1-2.12-1.272c-.63-.725-.901-1.811-1.444-3.985l-31.169-124.8c-.543-2.173-.815-3.26-1.445-3.985a4 4 0 0 0-2.119-1.272c-.936-.216-2.023.056-4.196.599l-46.454 11.602c-1.24.309-1.86.464-2.376.777a4.006 4.006 0 0 0-1.17 1.078c-.354.49-.558 1.096-.967 2.306L13.231 282.891c-.223.661-.335.992-.387 1.331-.047.301-.06.606-.037.91.025.342.11.681.279 1.358l6.709 26.863Zm93.626-61.105c.543 2.173.814 3.26.599 4.196a3.996 3.996 0 0 1-1.273 2.119c-.724.63-1.811.902-3.984 1.445l-49.925 12.468a1.305 1.305 0 0 1-1.555-1.682l33.634-100.272a1.101 1.101 0 0 1 2.114.083l20.39 81.643Z" fill="#fff" stroke="#171717" stroke-width="2" stroke-linejoin="round"/><path d="M16.539 302.128c1.255 1.251.53-.629.158-1.656l-1.063-2.941c-.716-1.978-1.956-3.595-1.8-5.789.084-1.174-.633-2.298-.701-3.451-.06-1.009.096-2.414-.16-3.351-.605-2.208.879-4.464 1.123-6.553.243-2.073 1.606-4.609 2.463-6.573 1.203-2.759 2.349-5.467 3.7-8.158 2.891-5.758 4.74-12.292 6.16-18.518 1.942-8.514 5.965-16.635 8.368-25.042 1.45-5.076 3.63-9.824 4.824-14.941 1.088-4.665 1.969-9.271 2.926-13.961.533-2.61 1.202-5.181 1.7-7.812.48-2.549.846-5.27 1.568-7.766.816-2.821 1.182-5.662 2.008-8.471.54-1.838.823-4.341 1.839-5.969 1.71-2.74 2.852-5.82 4.223-8.747 1.01-2.155 2.31-4.547 3.015-6.794.858-2.737 2.593-5.172 3.525-7.884.674-1.962 1.543-3.823 2.157-5.79.13-.415 1.141-2.75 1.503-2.943.436-.232.362.139.114.725m0 0c-.328.78-.961 1.941-1.107 2.581-.071.312-.154.62-.245.925m1.352-3.506a4.639 4.639 0 0 1-.34.514c-.636.834-.873 1.898-1.012 2.992m1.352-3.506c.725-1.259.938-2.745 2.297-3.659.644-.434.796-1.252 1.486-1.653.651-.379 1.28-.621 1.9-1.088 2.383-1.794 4.752-1.395 7.439-1.954 2.706-.563 5.363-1.179 8.082-1.745 1.482-.308 2.974-.339 4.423-.863 1.493-.54 2.88-1.421 4.42-1.978 2.552-.923 5.605-2.672 8.352-2.453 2.459.196 5.298-.82 7.808-.931 2.585-.114 5.205-.688 7.741-1.116 2.379-.402 4.333 2.373 4.497 4.75.267 3.878 2.196 7.385 2.714 11.226.595 4.405 2.355 8.59 3.022 13.008.714 4.738 1.106 9.108 2.764 13.69 1.51 4.175 2.658 8.542 3.245 12.928.559 4.179 2.68 7.918 3.209 12.014.466 3.606 1.998 7.553 3.134 10.989 1.223 3.7 2.355 7.558 3.664 11.177 1.612 4.456 1.241 9.138 1.932 13.718.56 3.715 1.806 7.086 3.08 10.608 1.287 3.558 2.427 7.501 4.441 10.706 1.495 2.378 2.351 5.011 3.972 7.256 1.446 2.003 5.072-.109 6.731-.709 2.331-.844 4.41-1.235 6.763-1.668 1.868-.344 5.69-.589 7.193.976 3.492 3.635 7.693 5.947 8.638 11.544.238 1.412.385 2.945.553 4.49M62.837 133.249c-.635 2.119-1.696 4.076-2.391 6.217-.674 2.074-1.602 3.997-2.465 5.985-.485 1.115-.642 2.324-1.014 3.481-.424 1.321-1.192 2.643-1.515 3.958-1.498 6.098-4.224 11.859-5.377 18.067-.05.271-.113.585-.184.931m12.946-38.639c-.141 1.117-.18 2.267-.438 3.237-.553 2.077-1.145 4.214-2.01 6.199-1.229 2.825-1.694 5.908-2.983 8.74-1.463 3.215-2.406 6.626-3.605 9.933-1.257 3.471-2.688 6.973-3.91 10.53m0 0c-.834 4.016-2.937 12.356-2.426 9.189.502-3.112 1.388-6.17 2.426-9.189Zm137.798 87.118c.245 2.246.537 4.518 1.227 6.481m-1.227-6.481c.542 2.161 1.022 4.336 1.227 6.481m-1.227-6.481c-.578-2.305-1.227-4.595-1.689-6.815m2.916 13.296.041.115c.482 1.332 1.97 6.216.301 7.002m-.342-7.117c.062.644.099 1.285.106 1.922.015 1.431.441 3.509.236 5.195m0 0-.035.015c-.981.418-1.467 1.288-2.512 1.667-1.53.553-2.925 1.437-4.495 2.004-2.42.876-4.796 2.005-7.231 2.971m14.273-6.657c-.123 1.005-.471 1.871-1.265 2.375-1.094.695-2.792 1.375-3.705 2.267-.755.737-1.624 1.772-2.738 1.916-2.142.277-4.372.128-6.565.099m0 0c-.451.178-.903.351-1.357.515-2.57.93-4.056 1.934-5.182 4.527-.696 1.602-.255 3.842-.723 5.565a17.2 17.2 0 0 0-.493 2.694m7.755-13.301a33.372 33.372 0 0 0-2.102.027c-1.881.092-6.433 1.209-6.437 3.675-.006 3.418.158 6.388.784 9.599m0 0a21.143 21.143 0 0 0-.006 4.305c.659 6.433 2.151 12.95 4.327 19.055m-4.321-23.36c.152.777.33 1.568.54 2.382 1.101 4.274 2.311 8.606 2.972 12.984.387 2.572.194 5.293.768 7.826.012.055.026.111.041.168m0 0c.042.12.085.24.129.359.586 1.623.108.566-.129-.359Z" stroke="#171717" stroke-width="2" stroke-linecap="round"/><path d="M171.356 310.147c1.082 2.312 1.428 4.994 2.331 7.491.806 2.226-2.065 3.778-3.795 4.403-2.193.794-4.298 1.49-6.654 1.271-2.519-.234-5.333.888-7.874 1.039-2.849.168-5.442 1.224-8.265 1.474-2.868.254-6.114.612-8.812 1.588-5.613 2.031-9.083-9.104-9.466-12.845-.269-2.622.261-7.741-1.181-10.012-.971-1.529-2.018-3.882-3.763-4.7-1.887-.884-3.578-2.697-5.674-3.061-2.646-.46-4.773-.908-7.49-.343-1.36.283-2.933.325-4.256.803-1.421.514-2.879.284-4.262.784-3.45 1.248-7.287 2.171-10.916 2.813-4.103.725-8.739 1.267-12.666 2.687l-18.928 6.848c-1.852.67-3.88.324-5.724.933-1.836.608-3.834.323-5.649.908-1.686.542-3.223.911-4.98 1.128-3.033.373-5.91 1.675-8.783 2.714-2.168.784-4.575.897-6.682 1.659-5.755 2.082-8.53-3.897-9.164-8.808-.765-5.927-1.407-11.801-2.402-17.694-.27-1.595-.408-3.374-.753-5.03m0 0c-.13-.623-.29-1.228-.497-1.8-.742-2.053-.272-.095-.226.945.131 2.967.564 5.972.64 8.987.02.784 1.046 4.542.579 2.295a33.336 33.336 0 0 1-.497-10.427Zm0 0c.105-.945.252-1.884.442-2.813 1.022-5.006 2.577-9.86 3.737-14.801 1.232-5.241 3.792-10.292 5.185-15.514 1.398-5.24 3.848-10.043 4.894-15.387.656-3.35 2.218-6.751 3.157-10.066 1.063-3.75 2.35-7.434 3.77-11.045 1.34-3.407 2.902-7.406 3.377-11.03.523-3.99 2.607-7.534 3.266-11.452 1.385-8.244 4.598-16.074 5.19-24.398M57.559 270.999l-.031.016m0 0c-.49.258-.51.461-.18-.179m.18.179c1.903 1.72 5.733-.305 7.967-.593 1.873-.242 3.955-.047 5.853-.055 2.551-.01 4.926-.535 7.414-.682 5.254-.311 9.754-3.846 15.028-3.837 1.252.002 2.824.494 3.984.074 1.1-.398 2.086-1.133 3.247-1.553 2.504-.906 4.504-1.859 6.606-3.442.699-.527 1.874-1.106 2.68-1.433.946-.384 1.264-1.657 2.02-2.33 1.039-.926.497-1.999.11-3.071-.337-.929-.11-1.737-.231-2.673-.2-1.551-.826-3.389-1.35-4.837-.77-2.129-1.34-4.258-1.927-6.374-.778-2.808-.599-6.13-.705-9.048-.102-2.839-1.152-5.77-1.521-8.626-.238-1.841-.595-3.802-.706-5.617-.099-1.618-.04-3.775-.584-5.281-.532-1.47-.524-3.098-.887-4.605-.357-1.48-.786-3.051-.999-4.563-.222-1.58-1.276-2.978-1.48-4.558a26.755 26.755 0 0 0-1.384-5.687c-1.454-4.019-2.552-8.103-4-12.107-.729-2.013-1.88-14.081-6.678-9.034-2.885 3.035-4.306 8.528-5.518 12.499-.474 1.553-1.147 2.71-1.48 4.344-.424 2.075-1.393 3.998-1.97 6.017-1.01 3.536-2.708 7.182-3.428 10.711-.512 2.506-1.53 4.975-1.914 7.511-.504 3.333-2.331 6.286-3.17 9.503-1.448 5.548-3.198 11.201-5.74 16.367-1.497 3.044-1.98 6.318-3.33 9.413-1.284 2.943-.788 6.166-2.184 9.145-.777 1.658-.69 3.534-1.34 5.199-.603 1.548-.91 2.978-1.18 4.594-.227 1.369-.599 2.796-1.186 4.05-.075.16-.14.292-.196.4m.179.179a2.7 2.7 0 0 1-.18-.179m0 0a3.17 3.17 0 0 1-.609-1.056" stroke="#171717" stroke-width="2" stroke-linecap="round"/><path d="M316.243 142.47c25.988 32.58 33.616 78.809 27.417 100.806-10.523 37.509-47.817 69.329-86.586 70.536-36.88 1.144-80.282-22.566-86.64-92.522" fill="#fff"/><path d="M316.243 142.47c25.988 32.58 33.616 78.809 27.417 100.806-10.523 37.509-47.817 69.329-86.586 70.536-36.88 1.144-80.282-22.566-86.64-92.522" stroke="#171717" stroke-width="2" stroke-linecap="round"/><path d="M275.627 195.195c6.393-.494 16.594 1.384 6.25 12.856" stroke="#171717" stroke-width="2" stroke-linecap="round" stroke-linejoin="round"/><path d="M314.744 142.439c2.056 3.992 4.146 7.94 7.177 10.826 3.545 3.38 6.212 9.427 9.297 13.558 2.944 3.989 7.239 8.394 7.946 13.425.484 3.446 3.113 6.631 3.603 10.117l1.386 9.863c.991 7.051 1.77 15.181-.757 21.919-.973 2.56.645 7.745.752 10.517.111 3.095-1.689 6.378-1.617 9.195.161 6.319-5.419 15.182-7.402 21.196-4.443 13.51-12.461 22.271-23.472 30.726-2.845 2.177-5.85 2.923-8.643 4.891-2.539 1.77-6.325 5.291-9.054 5.998-6.232 1.643-13.823 6.547-19.986 7.818-4.754.95-8.993 4.131-14.339 2.015-5.087-1.992-15.225-1.415-20.498-.997-10.62.887-21.152-7.368-29.801-12.575-4.016-2.425-9.674-11.93-12.589-16.004-3.265-4.55-6.107-8.674-10.375-12.316-10.784-9.188-11.3-23.778-13.243-37.603-.634-4.515-1.698-9.213-1.942-13.824" stroke="#171717" stroke-width="2" stroke-linecap="round"/><path d="M274.778 194.912c1.844-.259 3.703-.446 5.556-.094.786.15 1.479.656 2.16 1.048.798.458 1.318 1.287 1.779 2.062.641 1.077 1.051 2.035 1.228 3.29.142 1.014-.59 2.204-1.232 2.951-.851.991-1.75 2.125-2.318 3.305" stroke="#171717" stroke-width="2" stroke-linecap="round"/><path d="M178.806 121.479c-.469-3.336-1.284-6.969-.097-10.248.699-1.932 2.161-3.477 3.476-5.003.291-.338.611-.847.952-1.123.576-.465-1.068 1.027-1.559 1.581-.756.854-1.504 1.719-2.124 2.678-.062.095-.393.687-.376.276.016-.406.359-.909.559-1.23 1.163-1.86 2.357-3.654 3.908-5.219 2.388-2.409 5.33-5.091 8.812-5.697.071-.012 1.067-.313 1.071-.15.003.15-.776.448-.838.48a48.024 48.024 0 0 0-2.99 1.755c-1.514.966-2.985 2.041-4.433 3.105-.491.36-.984.741-1.407 1.177-.069.071.818-.523.972-.622a489.549 489.549 0 0 0 6.355-4.13c1.917-1.273 3.847-2.85 6.073-3.55a29.176 29.176 0 0 1 5.01-1.123c.428-.057.885-.08 1.304.05.426.132-.803-.39-1.213-.567a10.963 10.963 0 0 0-2.455-.742c-.427-.076-1.131.035-1.521-.168-.251-.131.566.022.847.053.946.105 1.895.247 2.836.395 1.289.202 2.682.282 3.892.815 1.256.552-2.657-.696-4.005-.954-1.199-.228-2.626.104-3.833.273-.471.067-.887.236-1.341.352-.111.028-.264.026-.042.03.684.01 1.368-.01 2.053.005 2.914.063 5.803.383 8.678.85 1.558.254 3.139.748 4.715.859.959.067 1.897.27 2.853.354.704.063 1.401.108 2.068.34.859.298 1.404.971 2.047 1.559.289.263.55.504.86.737.104.08.842.553.857.659.009.061-.483-.143-.063.35.377.441.951.444 1.457.671.399.18-.75.189-.913.213-1.102.162-2.108.502-3.15.881a70.584 70.584 0 0 1-4.534 1.462c-.459.133-.915.475-1.344.689-.781.387-1.541.813-2.297 1.246-.498.285-1.106.537-1.553.895-.392.312-.769.601-1.2.854-.856.502-1.784 1.037-2.73 1.354-.801.267-1.606.842-2.336 1.27-1.188.697-2.419 1.261-3.7 1.779-1.05.425-2.192 1.232-3.331 1.392" stroke="#FFD424" stroke-width="2" stroke-linecap="round"/><path d="M178.269 132.902c-.334-2.375-.876-4.814-.913-7.213-.017-1.11.142-2.205.111-3.318-.03-1.073.042-2.287.215-3.347.304-1.873.424-3.777.934-5.612.243-.872.76-1.679 1.244-2.439.646-1.013 1.173-2.127 1.895-3.086.497-.659 1.028-1.336 1.388-2.084.046-.096.553-1.343.564-.656.015 1.024-.466 2.132-.725 3.102-.596 2.224-1.075 4.474-1.655 6.7-.835 3.211-1.495 6.58-1.659 9.896-.075 1.52.398 6.067.186 4.56-.198-1.41.117-2.589.541-3.955 1.142-3.689 2.354-7.416 3.141-11.2.716-3.441 1.134-7.088 2.256-10.427.066-.198.318-.762.189-.553-.133.215.006.755.003.995-.017 1.112-.013 2.222-.138 3.329-.242 2.148-.511 4.301-.988 6.412-.261 1.156-.699 2.244-.98 3.39-.383 1.558-.571 3.159-.695 4.756-.091 1.18-.584 2.531-.452 3.705.09.808.214-.219.338-.567.427-1.199 1.068-2.326 1.618-3.472 1.135-2.366 2.104-4.78 3.005-7.244 1.802-4.925 2.865-9.977 3.894-15.084.179-.888.15-1.91.025-2.802-.029-.204-.005-.874-.132-.421-.144.517-.31 1.083-.552 1.563-.478.95-.658 2.16-.967 3.172-.568 1.861-1.068 3.731-1.63 5.594-.505 1.675-1.048 3.37-1.36 5.094-.297 1.639-.285 3.326-.403 4.982a24.061 24.061 0 0 0-.046 2.855c.041.848.183.05.517-.376 1.714-2.191 3.75-4.067 5.38-6.352.842-1.179 1.613-2.302 1.942-3.734.36-1.569.46-3.179.525-4.782.094-2.335.193-4.725.046-7.059-.045-.713-.156-1.664.028-2.362.647-2.44-1.052 4.937-1.584 7.405-.381 1.769-.88 3.538-1.348 5.287-.605 2.264-.951 4.587-1.531 6.857-.368 1.44-.813 2.88-1.107 4.338-.019.097-.162 1.478.044 1.234.906-1.073 2.205-1.854 3.274-2.768 2.164-1.851 4.389-3.727 6.113-6.015 1.149-1.524 2.006-3.239 2.955-4.886.253-.439 1.191-1.639.911-1.217-.435.653-.942 1.283-1.451 1.891-1.477 1.768-2.641 3.737-4.293 5.363-1.122 1.103-5.303 3.368-3.894 2.667 3.633-1.806 6.666-4.49 9.82-6.983 2.786-2.2 5.568-4.14 8.92-5.385 2.712-1.008 5.443-1.732 8.216-2.546.815-.24 1.741-.44 2.582-.558.613-.086 1.726-.015 2.269-.326.13-.075-.672-.394-.756-.406-1.236-.172-2.515-.956-3.673-1.402-2.425-.933-4.966-1.607-7.519-2.094-2.65-.505-5.288-1.523-8.029-1.2-3.779.444-7.598.538-11.314 1.488-.093.024-1.227.385-.887.356 1.495-.13 2.752-.049 4.188.507.958.37 1.66.838 1.528 1.941-.081.681-.429 1.299-.689 1.922-.501 1.201-.743 2.483-1.061 3.74-.364 1.44-.844 2.929-.937 4.415-.056.899-.029.131.055-.325.361-1.958 1.062-3.781 1.845-5.603.083-.193.864-2.119.9-2.008.357 1.078-.272 2.678-.373 3.758-.217 2.329-.327 4.712-.7 7.021-.127.782-.035.03.156-.224.432-.573 1.09-.994 1.609-1.48 1.416-1.328 2.664-2.878 3.924-4.352 1.154-1.351 2.594-2.89 3.398-4.501.264-.53.094-.831-.488-1.006-1.879-.565-3.811-.706-5.768-.82-.76-.043-1.536.01-2.292-.095-.722-.101-.21-.23.205-.289 5.72-.804 11.515-1.968 17.275-2.168.079-.003.281.055.216.1-.339.233-1.582-.032-1.897-.051-4.931-.307-9.9-.989-14.84-1.03-.316-.002-1.461.122-.508.13 1.078.008 2.13.237 3.193.402 2.87.445 5.781.658 8.67.944 2.574.256 5.17.411 7.728.803.871.134 1.708.403 2.572.548.259.043.16.13-.049.165-.868.145-1.745.245-2.616.368l-12.446 1.749c-.42.059-1.171.02-1.551.247-.052.031 1.299-.078 1.429-.093 2.362-.278 4.841-.692 7.226-.503.156.012-.273.168-.427.189-2.753.387-5.512.853-8.223 1.473-1.99.456-3.938 1.066-5.901 1.623-.312.088-1.265.365-.328.233 2.308-.324 4.557-1.029 6.862-1.353 2.398-.337-4.834.296-7.251.427-.603.033-1.178-.013-1.776-.06-.378-.03.692-.321 1.06-.416 1.608-.413 3.234-.742 4.84-1.17.727-.195 1.547-.274 2.241-.575.266-.115-.561.024-.602.027a43.5 43.5 0 0 0-3.302.363c-.051.007-.939.107-.598.156 1.351.197 2.791.034 4.157.13 1.438.101 2.952.139 4.371.417 1.377.27-.294.846-.804 1.108-4.353 2.233-8.624 4.623-12.966 6.87-.026.013-.892.5-.54.263.712-.479 1.45-.924 2.199-1.34.335-.186 1.489-1.201 1.524-.344.021.525-.318 1.019-.583 1.445a84.523 84.523 0 0 1-1.846 2.826c-.489.719-.913 1.506-1.436 2.199-.246.327-.295.011-.308-.245-.022-.403.648-.976.535-.76-.177.336-.558.516-.83.766-.604.554-1.211 1.093-1.733 1.729-1.908 2.325-3.429 4.932-5.324 7.267-.622.765-1.113 1.729-1.824 2.412-.812.779-.894-.266-.871-1.067.043-1.52.564-3.029 1.001-4.468a195.06 195.06 0 0 1 1.863-5.727 38.113 38.113 0 0 1 2.084-5.031 81.904 81.904 0 0 0 2.083-4.417c.165-.382.185-.634.129-1.035l-.233-1.655c-.085-.607-.508-.45-1.021-.339-1.209.262-2.161 1.4-2.996 2.231" stroke="#FFD424" stroke-width="2" stroke-linecap="round"/><path d="m181.45 84.398 7.028 11.494M177.595 138.016c-3.659-10.23-5.913-31.726 10.889-42.085 16.06-9.891 34.385-1.076 40.641 4.064" stroke="#171717" stroke-width="2" stroke-linecap="round" stroke-linejoin="round"/><path d="M185.869 92.344c17.487-9.463 29.788-20.6 27.475-24.874-2.313-4.274-18.364-.068-35.851 9.394-17.487 9.463-29.788 20.6-27.475 24.874 2.313 4.274 18.364.069 35.851-9.394Z" stroke="#171717" stroke-width="2"/><path d="M227.585 99.97c-.797-.494-2.11-.35-2.804-.98-1.061-.94-2.434-1.798-3.666-2.514-1.44-.767-2.96-1.522-4.316-2.26-3.017-1.637-6.827-.576-10.083-1.33-.962-.229-1.946-.333-2.878-.646-.718-.223-1.634-.7-2.392-.634-.837.078-1.606.065-2.472.227-1.342.228-1.983 1.127-3.149 1.735-3.393 1.729-6.194 4.506-9.518 6.144-1.546.783-2.868 2.302-4.295 3.351-1.423 1.088-2.62 2.63-3.415 4.155-1.745 3.396-2.127 7.287-2.905 10.951-.68 3.206.613 6.942 1.227 10.168.632 3.345.721 6.564 1.353 9.909M181.803 84.026c.201 1.144.22 2.716.879 3.674.559.81 1.021 1.513 1.619 2.317 1.393 1.865 3.296 3.334 3.76 5.773" stroke="#171717" stroke-width="2" stroke-linecap="round"/><path d="M187.347 90.78c-4.319.83-7.991 2.684-11.988 4.316-2.574 1.031-4.523 2.644-7.377 3.179-1.266.222-2.552.894-3.812 1.16-1.458.339-2.866.447-4.212.993-2.1.831-4.927.961-7.172 1.365-.773.154-2.141-.056-2.305-.925-.238-1.394.782-2.474 1.436-3.77.88-1.775 2.403-3.15 3.636-4.795 1.024-1.348 1.953-1.88 3.408-2.843 1.53-1.018 3.321-1.672 4.911-2.564 1.742-1.004 3.519-2.056 5.373-2.852.708-.323 1.572-1.024 2.167-1.554.823-.696 1.818-1.059 2.741-1.634 1.303-.853 2.858-1.696 4.267-2.385 1.808-.834 3.747-2.222 5.347-3.339 1.524-1.062 3.081-1.593 4.725-2.404 2.386-1.183 4.634-2.748 7.311-3.347 4.623-1.052 9.39-2.257 14.156-2.882.574-.08 1.938.397 2.48.677.989.486 1.099 1.274 1.276 2.23.219 1.263-.505 1.767-1.074 2.783-.603 1.067-1.298 2.37-2.226 3.213-3.371 3.106-7.365 5.05-11.399 7.313-5.424 3.082-9.796 7.4-15.409 10.33" stroke="#171717" stroke-width="2" stroke-linecap="round"/><path d="M171.566 218.059c-.943-1.512-1.779-3.13-2.741-4.655-.635-1.008-3.05-3.581-2.058-2.921 1.666 1.108 3.194 2.396 4.976 3.365.391.212 3.734 2.285 2.215.995-3.333-2.834-5.152-6.792-7.591-10.334-1.53-2.22-3.376-4.007-4.736-6.34-.865-1.484-.271-.532.398.139 2.272 2.283 5.063 4.001 7.181 6.461 1.501 1.742 3.095 4.106 4.989 5.45.417.296.497.024.34-.365-.56-1.384-1.751-2.062-2.678-3.163-2.214-2.626-3.864-6.107-5.265-9.232-.749-1.672-1.956-3.017-2.798-4.623-.17-.326-.807-1.229-.616-.915.472.78.894 1.423 1.54 2.103 3.619 3.809 7.422 7.649 11.395 11.08.578.5 1.354 1.063 2.009 1.439.25.144-.872-1.537-.991-1.667-1.793-1.961-3.191-4.038-4.572-6.303-2.067-3.387-3.825-6.875-6.246-10.046-1.185-1.553-2.059-3.325-3.312-4.807-.205-.244-1.439-1.975-.639-.814 2.36 3.425 6.627 5.278 9.732 7.933 1.779 1.521 3.305 3.265 4.951 4.919.884.888 1.92 1.878 2.52 2.99.352.653.775 1.335 1.31 1.854 1.125 1.091-1.606-.411-1.986-.758-1.997-1.826-4.074-3.774-5.661-5.979-2.133-2.961-3.344-6.697-4.603-10.081-.49-1.317-1.164-2.541-1.653-3.857-.457-1.231-.873-2.5-1.66-3.563-.462-.624-.692-1.733-1.291-2.235-1.664-1.397-1.229 1.246-.746 2.155.364.686.555 1.47.856 2.187.598 1.421 1.451 2.715 2.011 4.148.322.823.629 1.5 1.14 2.208.076.104-.815-1.012-1.01-1.286-2.076-2.92-2.285-7.855-1.764-11.336.164-1.096.105-2.029-.048-3.118-.049-.352-.144-.621.093-.122.524 1.106.941 2.091 1.692 3.094 1.974 2.637 4.407 4.804 6.575 7.266 1.909 2.168 4.375 3.738 6.218 5.949 1.406 1.685 2.996 3.216 4.379 4.926.747.924 1.254 2.122 2.097 2.94.458.443.436 1.24.76 1.76.108.173.237.759.159.954-.353.884-3.258-1.558-3.524-1.799-4.936-4.485-10.687-8.115-14.153-13.939-.496-.834-.966-1.674-1.44-2.52-.439-.784.298 1.016.442 1.232 2.183 3.269 4.479 6.523 7.048 9.506 1.896 2.202 4.097 3.907 6.149 5.886.474.457 1.847 1.608 2.627 1.498.675-.095 1.939-2.63 2.409-3.182.646-.761 1.636-1.62 2.434-2.222.367-.277.547-.137.112-.59-1.15-1.197-2.604-2.082-3.638-3.394-3.894-4.943-6.27-10.821-9.272-16.298-1.118-2.039-2.443-4.002-3.74-5.943-.705-1.054-1.39-2.102-2.299-2.985-.492-.477-1.055-.89-1.267-.151-.296 1.037-.829 1.669-1.465 2.513-.157.208-1.305 1.993-1.072 2.189.146.122.511.119.683.172 1.012.31 1.748 1.201 2.468 1.924 2.79 2.803 5.555 5.575 8.137 8.572 1.171 1.358 2.49 2.649 3.444 4.178.186.299 1.164 1.342.424 1.283-1.469-.116-2.85-2.011-3.695-3.02-1.862-2.221-3.47-4.66-5.357-6.851-1.164-1.352-2.33-2.933-3.699-4.082-.212-.178-.308-.468-.266-.768.069-.493 1.476.254 1.618.31.598.235 4.824 1.848 4.73 1.178-.134-.959-.88-1.564-1.423-2.315-.788-1.088-1.372-2.312-1.775-3.595-.441-1.401-1.08-5.775-.876-4.32.224 1.593.682 2.908.588 4.531-.075 1.309.827 5.143.367 3.916-.704-1.882-1.923-3.541-2.674-5.398-.4-.988.727-.896 1.302-1.33.785-.593.685-2.064.798-2.92.086-.652-.177-1.94.502-.68.368.683 1.006 1.281 1.654 1.696 1.774 1.134 3.689 2.074 5.478 3.197 3.9 2.446 7.66 5.499 10.783 8.896 2.087 2.27 4.166 4.531 5.397 7.394.267.623.921 1.747-.412.888-2.414-1.553-4.496-3.542-6.562-5.522-2.378-2.279-5.036-4.229-7.387-6.529-1.659-1.624-3.118-3.314-4.956-4.699-.56-.422-2.223-2.168-1.154-.57 2.177 3.256 3.929 6.764 6.161 9.973 2.011 2.891 4.39 5.31 6.573 8.035.916 1.143 1.617 2.5 2.667 3.519.299.29.628.803-.074.511-1.402-.583-2.5-1.621-3.8-2.371-1.198-.692-4.439-3.241-3.509-2.217 1.402 1.546 3.101 2.932 4.639 4.353 1.08.996 2.377 2.513 3.009 3.861.061.132.778 1.021.721.619-.19-1.355-1.492-2.572-2.286-3.585-2.241-2.859-3.542-6.285-5.719-9.168-.82-1.087 2.358 1.364 3.554 2.015 1.624.882 3.207 1.731 4.684 2.844.213.16 1.946 1.541 1.581.999-1.296-1.925-3.001-3.673-4.456-5.477-2.464-3.055-4.712-6.16-6.756-9.51-1.545-2.534-2.715-5.251-4.302-7.769-.558-.886-1.128-1.774-1.634-2.687-.129-.231-.637-.63-.641-.911-.001-.042 1.169.641 1.243.68 6.063 3.19 12.031 6.321 16.626 11.48 2.032 2.28 3.768 4.814 5.823 7.042 1.184 1.282-.001.761-.99.163-2.749-1.663-5.909-3.839-7.992-6.322-1.873-2.232-3.393-4.714-5.172-7.011-.98-1.266-2.243-2.651-2.986-4.048-.402-.757-.937-1.429-1.352-2.154-.811-1.416.139-.461 1.162.106 4.604 2.551 9.522 4.588 14.249 6.895 2.074 1.013 3.673 2.63 5.523 3.947.356.254 2.507 2.241 1.151 1.157-1.491-1.192-2.408-2.958-3.731-4.309-1.848-1.889-3.601-4.068-5.598-5.792-.774-.669-1.658-1.506-2.256-2.332-.341-.47-1.528-.531-2.046-.921-.822-.619-2.304-2.803-4.042-4.201-2.673-2.149-4.223-6.682-5.695-5.764-.367.229.386 6.997 1.077 7.667.767.744 1.926 1.26 2.784 1.916 1.67 1.276 3.125 2.816 4.736 4.168 3.928 3.297 7.435 7.041 10.088 11.422.998 1.648 1.845 3.266 3.841 3.098.446-.038.595.062.261-.574-.642-1.222-1.933-2.36-2.898-3.34-.873-.885-1.513-1.965-2.192-3-.513-.781.452-.065.678.137.966.862 1.783 1.433 3.023 1.882.56.202 2.47 1.526 1.569.219M205.254 164.493c-.224-1.593-.927-2.807-1.726-4.193-1.239-2.147-2.426-4.27-3.925-6.256-2.294-3.037-5.096-5.737-7.289-8.814-2.156-3.026-4.535-6.056-7.269-8.579-5.094-4.703 7.831 11.449 11.989 16.996 1.141 1.521 2.392 3.05 3.406 4.659.713 1.13-.086.527-.76-.02-2.642-2.142-4.658-4.959-6.968-7.428-2.112-2.257-4.554-4.229-6.589-6.541-.947-1.075-1.829-2.227-2.804-3.269-.475-.508-.911-1.442-1.564-1.745-.302-.14-1.437-1.118-1.173-1.155 1.129-.158 2.105.536 3.325.291.571-.115-.349-2.487-.418-2.973-.06-.432-.746-2.37-.348-2.478.535-.144 1.289-1.965 1.476-2.481.891-2.46.999-.02 1.668 1.085 1.585 2.617 4.079 4.756 5.999 7.129 2.085 2.579 4.405 4.932 6.6 7.41 1.102 1.245 1.998 2.654 3.077 3.919.507.594 1.232 1.336 1.552 2.055.426.959 1.971 2.849 2.876 3.386.253.15 3.12 2.85 3.156 2.784.354-.641-4.777-5.409-5.243-5.944-2.956-3.395-5.392-7.32-7.859-11.078-2.166-3.302-3.96-6.935-6.239-10.141-1.079-1.519-1.839-3.48-2.487-5.209-.203-.542.527.708.777.929 2.59 2.298 5.284 4.522 7.792 6.906 3.409 3.24 6.64 6.675 10.077 9.882 1.467 1.369 2.69 2.86 3.807 4.518.888 1.32 1.609 2.643 2.676 3.863.683.781 1.439 1.473 2.035 2.296.344.475.326.567-.339.188-1.79-1.021-3.017-2.045-4.43-3.56-3.887-4.169-7.525-8.347-9.935-13.566-1.534-3.321-2.675-6.973-3.691-10.485-.671-2.321-3.004-6.596-3.004-6.596s.6 1.162 1.006 1.67c1.704 2.13 3.796 3.865 5.75 5.76 2.546 2.469 5.092 4.847 7.455 7.5 1.592 1.788 2.907 3.763 4.461 5.577 3.096 3.616 5.674 7.822 8.573 11.568.512.661 1.28 1.124 1.761 1.745.62.8-.869-.846-1.039-1.005-2.654-2.487-5.35-5.314-7.439-8.288-2.336-3.326-4.347-6.89-6.544-10.309-1.54-2.398-3.208-4.712-4.644-7.179-1.696-2.914-2.685-6.5-4.716-9.19-.293-.389-.64-.53-.141-.107.766.652 1.299 1.724 1.975 2.474 3.104 3.44 6.747 6.409 10.034 9.678 2.452 2.437 4.552 5.156 6.717 7.842 2.627 3.259 5.44 6.553 7.678 10.093.82 1.296 2.066 3.35 3.25 4.344.21.177.756.792.537.626-1.249-.941-2.425-2.922-3.47-4.116-4.91-5.608-9.187-11.817-13.003-18.215-2.131-3.574-3.771-7.447-6.08-10.908-.949-1.423-2.008-2.739-2.967-4.13-.44-.64.527.446.671.579 1.968 1.817 4.33 3.262 6.468 4.874 5.664 4.268 10.057 9.473 14.138 15.207 2.272 3.192 4.116 6.658 6.2 9.964.763 1.21 2.171 2.478 2.669 3.807.289.774-.375.061-.784-.283-1.882-1.579-3.555-3.678-5.309-5.415-3.897-3.863-7.505-7.861-10.588-12.422-.854-1.263-1.753-2.566-2.678-3.778-.346-.453-1.032-1.347-.159-.328 4.462 5.202 8.893 10.413 12.951 15.949 1.726 2.354 3.554 4.683 5.181 7.104.492.732 2.071 2.812.209 1.486-1.871-1.332-4.436-1.52-6.394-2.751-4.506-2.832-8.341-6.125-11.834-10.098-2.11-2.4-4.63-4.144-6.9-6.357-1.658-1.617-3.29-3.262-5.026-4.796-1.48-1.308-2.901-2.673-4.398-3.929-.673-.566-1.019-1.095-1.525-1.863-.383-.583-.764-2.408-1.319-2.594M242.752 149.483a315.48 315.48 0 0 0-5.791-10.246c-2.316-3.926-4.452-8.495-7.387-12.015-2.642-3.168-5.842-6.185-7.939-9.748-1.44-2.446-3.183-4.835-5.469-6.558-.347-.261-1.862-2.152-2.26-2.096-.54.076 1.781 3.365 1.848 3.46 2.985 4.193 5.471 8.729 8.069 13.168 4.062 6.943 8.647 13.502 13.084 20.197.846 1.276 1.837 2.768 2.414 4.194.47 1.161.959 1.413-.544.119-9.384-8.078-15.007-19.399-23.158-28.55-2.009-2.257-3.977-4.357-5.759-6.826-.508-.704-2.566-2.687-.828-.895a598.307 598.307 0 0 1 8.082 8.465c2.495 2.677 4.685 5.641 7.287 8.211 1.297 1.282-1.38-1.577-1.607-1.851-1.844-2.223-3.548-4.558-5.186-6.935-1.485-2.156-2.918-4.469-3.99-6.822-.202-.441-1.707-3.033-2.302-2.792-.234.095 3.652 4.551 3.805 4.7 3.545 3.471 7.062 6.954 10.64 10.393 2.161 2.077 4.091 4.393 6.22 6.509 1.112 1.104 2.128 2.212 3.019 3.506M306.732 115.366c.351 2.501 1.655 4.534 2.957 6.658a771.695 771.695 0 0 0 5.154 8.315c1.847 2.93 3.575 5.827 5.685 8.591.376.492.716 1 1.094 1.488.891 1.152-2.512-1.5-3.627-2.437-5.203-4.373-10.088-9.986-13.811-15.674-2.067-3.159-4.074-6.342-6.148-9.495-.859-1.304-3.99-4.805-3.029-3.574 1.019 1.304 1.703 3.116 2.521 4.558 2.049 3.61 4.137 7.201 6.089 10.864 2.549 4.786 5.471 9.381 8.582 13.826.75 1.073 1.057.92 1.877 1.926.266.327 1.25 1.026.835.95-1.569-.289-2.396-.742-3.509-1.753-3.431-3.117-6.501-6.618-9.27-10.333-3.598-4.828-6.963-9.877-10.38-14.837-1.122-1.629-2.11-3.332-3.043-5.074-.787-1.468-1.944-2.887-2.634-4.36-.153-.325-1.143-1.153-.708-.644a10.005 10.005 0 0 1 1.43 2.185 1581.074 1581.074 0 0 0 7.427 14.999c2.264 4.495 5.021 8.732 7.341 13.186 1.165 2.236 2.886 4.045 4.207 6.16.254.409.654.713.917 1.135.901 1.444-1.335-1.269-1.64-1.58-3.103-3.168-6.16-6.296-8.811-9.864-3.087-4.155-5.609-8.766-8.412-13.12a800.835 800.835 0 0 1-3.491-5.461c-.879-1.391-2.034-2.562-2.748-4.077-.673-1.426-1.92-3.572-2.141-5.145-.026-.187.474.685.58.929a72.801 72.801 0 0 0 1.596 3.369c2.695 5.421 4.961 11.008 7.577 16.465 2.052 4.28 3.817 9.113 6.43 13.09 1.041 1.586 2.149 3.2 3.03 4.88.213.408 1.558 2.018.814 1.5-1.981-1.381-3.684-3.362-5.235-5.188-3.402-4.005-6.372-8.371-9.323-12.711-3.636-5.346-6.853-11.238-10.006-16.868-1.345-2.402-2.426-4.838-3.506-7.367-.286-.671-.638-1.262-1.022-1.878-.478-.766.429.371.545.681.349.932 1.275 1.76 1.885 2.529 1.751 2.203 3.548 4.364 5.214 6.636 1.87 2.551 3.604 5.167 5.388 7.776 1.51 2.209 3.226 4.4 4.369 6.825.539 1.142 1.202 2.242 1.62 3.436.097.275.448 1.387.424 1.217M295.344 144.002c-.082-.322-.347-.594-.529-.866-1.052-1.578-2.126-3.145-3.189-4.717-2.609-3.859-5.096-7.803-7.97-11.47-3.819-4.872-7.664-9.735-11.572-14.529-2.878-3.531-6.073-6.985-8.469-10.824-.124-.198-.806-1.408-.589-.998 1.12 2.126 3.771 3.603 5.464 5.225a133.93 133.93 0 0 1 6.213 6.355c.326.358 1.958 2.09 1.103.66-.479-.802-1.132-1.342-1.782-1.996-1.019-1.023-1.772-2.364-2.642-3.516-1.081-1.432-1.826-3.069-2.921-4.502-.528-.693-1.424-1.093-1.891-1.77M255.358 100.354c.334 1.427 1.308 2.668 2.114 3.858 1.379 2.034 2.713 4.098 4.09 6.134 1.689 2.496 3.301 5.167 4.826 7.771 3.363 5.743 6.293 11.73 10.046 17.256 2.159 3.178 3.741 6.722 6.066 9.8.928 1.229-.754-.94-.953-1.185-4.952-6.123-8.305-13.44-12.231-20.219-2.516-4.344-6.049-9.305-6.879-14.388-.113-.694.612.702.675.803.903 1.466 1.991 2.802 3.104 4.112 6.11 7.185 11.679 14.804 17.024 22.562.663.963 1.452 1.833 2.016 2.861.152.277.511 1.318.933 1.343.98.056-1.339-1.437-2.051-2.112-1.617-1.533-3.124-3.278-4.484-5.04-1.472-1.907-2.766-3.93-3.975-6.01-.096-.165-1.016-1.677-.85-1.551.647.487 1.142 1.249 1.639 1.875 1.022 1.285 2.257 2.368 3.452 3.487 3.674 3.441 6.391 8.011 10.227 11.251.111.093.504.535.165.173-.849-.906-1.889-1.624-2.766-2.503-4.064-4.071-6.704-9.33-9.826-14.086a332.271 332.271 0 0 1-9.631-15.602c-1.005-1.733-2.476-3.237-3.596-4.912-.941-1.407-2.014-2.724-3.041-4.064-.196-.254-2.741-5.052-2.946-4.78-.397.528 1.027 3.117 1.211 3.62 1.263 3.473 1.97 6.741 3.824 10.032 4.626 8.21 11.781 14.545 17.347 22.068 2.733 3.693 5.403 7.889 7.273 12.101" stroke="#171717" stroke-width="4" stroke-linecap="round"/><path d="M279.205 146.016c-.588-2.6-2.897-5.024-4.636-6.928-3.173-3.471-5.865-7.502-8.775-11.202-4.76-6.054-9.697-11.932-14.281-18.12-1.865-2.52-3.385-5.287-5.161-7.865-.602-.874-1.306-1.67-1.813-2.608-.143-.267-.592-1.023-.55-.723.12.856 1.313 1.631 1.876 2.164 3.907 3.697 8.062 7.364 11.66 11.359 4.645 5.158 8.773 10.826 13.08 16.268 1.157 1.462 2.42 2.836 3.579 4.297.962 1.213.15.221-.463-.3-4.554-3.871-7.349-9.062-10.622-13.961-3.239-4.848-7.31-9.765-9.377-15.286-.304-.812-1.989-3.147-2.752-3.403M247.034 150.879c-.121-.508-.391-.947-.635-1.405a140.58 140.58 0 0 1-2.612-5.19c-1.085-2.254-2.068-4.591-3.255-6.792-1.813-3.362-3.667-6.716-5.81-9.88-2.959-4.367-6.2-8.54-8.854-13.107-.737-1.269-1.743-2.309-2.467-3.597-.613-1.089-.963-2.33-1.434-3.473-.309-.749-.527-1.813-1.013-2.457-.22-.292-.264-.402-.006.031.849 1.419 2.262 2.758 3.42 3.921 6.975 7.007 13.469 14.709 19.258 22.729 2.512 3.48 4.931 6.997 7.384 10.515 1.153 1.655 2.652 3.103 3.784 4.746.097.142 1.077 1.707 1.298 1.581.069-.04-2.735-3.231-2.88-3.41-2.313-2.87-4.385-6.011-6.47-9.05-3.363-4.9-6.109-10.173-9.304-15.175-1.734-2.715-3.059-5.63-4.889-8.286a83.991 83.991 0 0 1-5.304-8.755c-.155-.296-.195-.64-.101-.086.235 1.385 1.96 2.598 2.901 3.497 4.369 4.168 8.513 8.497 12.578 12.962 2.651 2.911 5.074 6.071 7.485 9.185 2.684 3.467 5.124 7.166 7.897 10.553 1.568 1.915 3.007 3.949 4.38 6.007.362.543.71 1.299 1.226 1.71.729.581.103-.384-.13-.639-2.008-2.208-3.395-4.893-4.947-7.422-2.325-3.79-4.563-7.612-6.642-11.545-2.978-5.635-5.693-11.408-9.074-16.81-.946-1.511-2.033-2.928-2.883-4.495-.646-1.189-1.243-2.496-1.983-3.625-.401-.611-1.066-1.44-1.326-2.134-.2-.533-.112-.14.092.156.886 1.286 1.978 2.362 3.102 3.438 4.327 4.145 8.697 8.443 12.255 13.286 3.544 4.825 7.034 9.614 10.138 14.739a187.122 187.122 0 0 0 5.955 9.212c.656.951 1.281 1.933 2.002 2.836.14.175.795.923.671.872-.924-.383-1.641-1.66-2.246-2.374-1.954-2.303-4.008-4.518-5.95-6.832-1.414-1.685-2.887-3.355-4.087-5.202-1.419-2.183-2.556-4.531-3.991-6.709-1.257-1.91-2.614-3.805-3.97-5.647-.517-.702-.947-1.438-1.429-2.159-.137-.206-.44-.865-.406-.621.348 2.473 1.902 4.222 3.299 6.249 3.434 4.986 7.275 9.772 10.562 14.849 1.392 2.15 2.605 4.424 4.008 6.557.444.674 2.063 3.306 3.133 3.155.388-.054.893-.464 1.258-.615.766-.318 1.681-.336 2.496-.45.59-.083 1.134-.188 1.724-.063.296.063.785.243.337-.157-2.474-2.208-4.217-5.307-6.084-7.999-2.503-3.608-5.639-6.707-8.135-10.329-1.922-2.791-3.586-5.74-5.764-8.352-2.348-2.815-4.163-6.032-6.592-8.774-2.52-2.847-4.416-6.095-6.984-8.878-1.639-1.777-4.025-.423-6.145-.362-.746.022-1.748.077-2.476-.04-.532-.085-.345.059-.071.418.785 1.028 1.442 1.967 2.063 3.126 2.237 4.174 4.499 8.316 6.763 12.475 2.587 4.755 4.576 9.721 6.807 14.639 2.608 5.746 5.053 11.704 8.813 16.787.935 1.263-.423.537-1.113.017-3.389-2.554-6.846-4.798-9.136-8.456-2.148-3.431-4.545-6.774-7.001-9.991-.423-.554-1-1.108-1.346-1.713-.215-.375.388.774.6 1.151 1.665 2.958 3.265 6.017 4.675 9.103 1.167 2.552 2.118 5.281 3.516 7.722.779 1.36 1.31 2.773 2.18 4.036" stroke="#171717" stroke-width="4" stroke-linecap="round"/><path d="m325.603 141.238-113.089 15.894-41.243 64.366c-26.381-41.129-5.09-67.832 6.018-72.14-2.465-30.19 37.328-46.245 57.532-50.498 61.001-8.573 85.912 24.684 90.782 42.378Z" stroke="#171717" stroke-width="2" stroke-linejoin="round"/><path d="M177.705 150.593c-7.526 1.057-15.96 10.887-15.735 18.813.051 2.376-1.775 4.329-1.396 7.022.322 2.298-1.092 4.88-.763 7.217.707 5.03.209 9.826.894 14.698l.941 6.695c.395 2.812 1.726 4.523 2.189 7.245.38 2.128 5.73 10.303 8.446 7.498 3.527-3.646 5.385-9.684 7.041-14.279.7-1.916 2.477-4.509 4.075-5.783 1.638-1.281 4.694-4.255 5.507-6.227 1.78-4.29 4.07-8.692 6.964-12.532 3.2-4.246 5.54-8.574 8.413-12.856 2.974-4.416 3.477-6.87 8.658-8.81 1.879-.709 3.642-2.249 5.583-2.522l8.12-1.141c18.538-2.605 36.91-6.965 55.527-9.581l6.694-.941c2.417-.34 4.78.379 7.133.169 5.709-.479 5.764-.81 11.468-1.612 1.663-.233 6.842-1.325 7.922-1.113l5.169-.727c1.901-.267 2.828.007 2.528-2.132-.206-1.466-2.552-4.65-3.608-5.552-1.784-1.486-3.13-4.448-4.449-6.363-2.639-3.83-4.132-8.992-7.501-12.275-2.806-2.716-7.104-5.707-10.749-7.215-4.335-1.814-8.747-4.466-13.406-5.144-1.934-.253-4.347-1.611-6.269-2.35-1.966-.774-4.898-2.665-6.906-2.867-1.103-.087-4.365-.881-5.382-1.506-1.276-.75-6.081.128-7.507.328-5.506.774-10.698.332-16.085 1.09-6.338.89-11.747 3.791-17.892 4.897-4.613.81-10.78 3.777-13.922 7.289-1.605 1.801-3.722 2.542-5.693 3.749-2.787 1.724-3.752 2.91-7.237 3.4-3.447.484-9.748 5.369-11.537 8.448-1.732 2.909-12.915 22.779-7.828 24.487" stroke="#171717" stroke-width="2" stroke-linecap="round"/><path d="M264.553 184.23c-.486-2.88-3.126-8.447-9.939-7.489-6.813.957-7.776 6.465-7.403 9.119M313.503 176.14c-.485-2.88-3.126-8.447-9.939-7.489-6.813.957-7.776 6.465-7.403 9.119" stroke="#171717" stroke-width="2" stroke-linecap="round" stroke-linejoin="round"/><path d="M257.614 205c13.345-1.876 22.643-14.214 20.767-27.559-1.875-13.344-14.214-22.642-27.558-20.767-13.345 1.876-22.642 14.214-20.767 27.559 1.875 13.344 14.214 22.642 27.558 20.767ZM305.941 198.207c13.344-1.876 22.642-14.214 20.766-27.559-1.875-13.344-14.214-22.642-27.558-20.766-13.345 1.875-22.642 14.213-20.767 27.558 1.876 13.344 14.214 22.642 27.559 20.767ZM229.859 184.259l-36.64 5.149M333.442 169.702l-6.734.946" stroke="#171717" stroke-width="2" stroke-linecap="round" stroke-linejoin="round"/><path d="M192.215 190.307c4.269-.6 8.937-.823 12.894-2.689 1.53-.721 3.339-1.178 4.967-1.641 1.296-.37 2.585-.701 3.92-.888 2.392-.337 4.802-.271 7.209-.609 2.731-.384 5.49-.502 8.219-.886M327.139 169.786c.634-.089 1.29-.243 1.929-.26.489-.013.93.173 1.389.311.26.077.535.173.805.208.207.028.434.187.643.157M247.801 186.352c-.105-.746.052-1.545.151-2.289.086-.641.245-1.328.418-1.951.141-.506.422-.91.629-1.384.394-.905.992-1.404 1.639-2.105.481-.52.891-1.241 1.551-1.558.691-.331 1.469-.364 2.219-.469 2.584-.363 4.604 1.122 6.501 2.633 1.067.85 2.184 1.822 3.135 2.808.483.5.848.862.95 1.583M295.29 178.011c-.15-1.068-.453-2.859.203-3.832.257-.381.572-.671.726-1.128.206-.614.37-1.401.961-1.807.419-.289 1.047-.158 1.428-.446.394-.297.819-.704 1.251-.925.995-.509 1.894-.866 3.012-1.023l3.83-.538c1.528-.215 2.485.676 3.677 1.4.476.29.882 1 1.273 1.423.533.579.877 1.272 1.34 1.903.376.511.936 1.158 1.027 1.804.032.23.214 1.492.311 1.203" stroke="#171717" stroke-width="2" stroke-linecap="round"/><path d="M244.59 158.883c-1.703.24-3.318 1.396-4.701 2.479-1.422 1.088-2.409 2.398-3.369 3.907-.795 1.242-1.867 2.807-2.368 4.129-.387.984-.955 1.831-1.302 2.809-.262.723-.15 1.516-.412 2.239-.461 1.317-.218 3.626-.306 5.011-.094 1.629.14 3.293.368 4.917.245 1.743.382 3.865 1.085 5.422.473 1.064 1.045 3.408 1.846 4.224 2.156 2.121 4.68 4.27 7.085 6.154 1.096.896 2.401 1.561 3.593 2.282.576.363 1.838.428 2.555.651.758.216 1.673.694 2.466.582 1.782-.25 3.194.602 4.885.849.662.109 4.73-.261 5.054-.832.295-.486 1.467-.771 1.903-1.116.878-.648 1.514-1.586 2.482-2.166 1.315-.71 3.217-1.543 4.165-2.847 1.515-2.152 2.861-4.361 4.41-6.558.806-1.163.9-2.792 1.311-4.183.473-1.521 1.496-3.725 1.273-5.309-.473-3.367-.233-7.117-1.458-10.378-.518-1.381-.899-2.944-1.79-4.111-1.043-1.388-1.992-2.103-3.353-3.164-2.637-2.093-5.698-4.329-8.846-5.462-2.001-.729-3.035-1.189-5.174-.889-1.703.24-3.535-.432-5.198-.198-1.624.228-3.293.139-4.996.379-1.505.211-4.301.725-5.356 1.843-.703.745-1.739 1.133-2.589 1.697-.776.513-1.083 1.202-1.656 2.01-.982 1.35-2.284 4.158-2.98 6.68M285.098 189.019c.715 1.637 2.239 2.998 3.611 4.138 1.418 1.174 2.887 1.856 4.588 2.465 1.362.496 3.16 1.212 4.562 1.419.99.144 1.973.531 3.002.669.781.092 1.466-.206 2.246-.114 1.358.173 3.424-.643 4.805-.877 1.539-.257 3.017-.949 4.507-1.562 1.523-.659 3.487-1.339 4.796-2.371.867-.728 2.89-1.86 3.435-2.866 1.398-2.701 2.666-5.747 3.759-8.607.5-1.322.781-2.776 1.152-4.161.188-.672-.115-1.963-.102-2.732.002-.849.186-1.844-.124-2.608-.731-1.756-.354-3.384-.599-5.127-.095-.673-1.59-4.704-2.223-4.898-.549-.165-1.151-1.292-1.569-1.678-.87-.726-1.938-1.141-2.705-2.003-1.05-1.145-2.341-2.862-3.805-3.505-2.447-1.029-4.906-1.855-7.353-2.884-1.289-.546-2.862-.244-4.248-.332-1.549-.106-3.924-.62-5.334-.018-3.012 1.271-6.555 1.931-9.303 3.933-1.173.851-2.516 1.646-3.367 2.775-1.021 1.356-1.386 2.498-2.006 4.12-1.212 3.159-2.442 6.765-2.603 10.221-.095 2.195-.256 3.349.599 5.41.715 1.636.597 3.672 1.272 5.314.664 1.563 1.067 3.284 1.782 4.92.613 1.489 1.88 4.179 3.242 4.957.92.517 1.541 1.48 2.291 2.223.7.669 1.441.767 2.345 1.165 1.549.671 4.551 1.34 7.068 1.43" stroke="#171717" stroke-width="2" stroke-linecap="round"/><path d="m235.605 312.508 11.134 79.221 18.298.862M293.872 304.318l11.134 79.222 18.298.862" stroke="#171717" stroke-width="2" stroke-linecap="round" stroke-linejoin="round"/><path d="M234.172 313.285c.787 5.604 1.404 11.201 2.882 16.67 1.786 6.606 3.149 13.352 4.656 20.029a51.044 51.044 0 0 1 1.207 9.112c.107 2.697.341 5.415.377 8.112.011.781.312 1.574.21 2.352-.036.269-.129.784-.108 1.019.149 1.705 1.196 3.372 1.828 4.933.923 2.28.921 5.102 1.262 7.523l.876 6.238c.17 1.209 2.073 1.266 3.099 1.536 1.789.471 3.626.713 5.471.812 1.935.104 3.886.271 5.824.279 1.18.006 2.405-.173 3.558.04M292.864 306.489c.778 5.53 1.184 11.158 2.99 16.449 1.312 3.846 2.095 7.764 2.661 11.787.803 5.715 1.558 11.407 2.77 17.052 1.048 4.88 2.107 9.721 3.136 14.582.293 1.383.602 2.705.8 4.117a5.295 5.295 0 0 1-.064 1.784c-.156.758.196 1.536.114 2.309-.093.877.15 1.815.272 2.684.128.908.041 1.786.169 2.698.146 1.038-.255 3.013.392 3.952 1.716 2.49 5.917 1.061 8.245.734l4.342-.611c.748-.105 3.979-.462 4.446.217" stroke="#171717" stroke-width="2" stroke-linecap="round"/><path d="M263.128 255.726c3.521-.818 11.873-1.749 17.138 1.227" stroke="#171717" stroke-width="2" stroke-linecap="round" stroke-linejoin="round"/><path d="M295.373 244.377c-.484-3.443-.65-7.189-2.14-10.387-.606-1.299-1.552-2.434-2.206-3.714-.349-.683-.796-1.292-1.227-1.925-.374-.55-.647-1.168-1.046-1.698-.309-.411-1.143-1.709-.828-1.302.803 1.038 2.163 1.762 3.162 2.605 1.297 1.096 2.614 2.509 3.565 3.915.857 1.269 1.803 2.335 2.44 3.75.379.84.416 1.806.542 2.708l.372 2.645c.046.328.173.612.234.925.053.271.016.032.084-.139.248-.622.289-1.476.449-2.138.302-1.256.633-2.435.803-3.722.433-3.278-1.029-6.03-2.821-8.631-.239-.346-.476-.708-.723-1.04-.233-.313-.338-.654-.595-.954-.293-.34.126.453.187.551.454.734 1.115 1.347 1.681 1.994 1.098 1.256 2.084 2.506 2.742 4.048.444 1.041.692 2.313.975 3.414.216.838.432 1.714.485 2.583.019.321.052.7.039 1.021-.012.304-.102-.182-.083-.305.618-3.933 1.502-8.175-.184-11.971-.278-.627-1.129-2.459-1.034-1.78.035.246.35.557.476.763.394.643.925 1.232 1.377 1.836 1.621 2.166 2.42 4.508 2.792 7.154.04.28.194 2.119.048 1.077-.107-.764.147-1.513.366-2.237.33-1.091.727-2.209.92-3.334.238-1.387.257-2.642.062-4.033-.053-.373-.252-1.358.155-.54.383.771 1.193 1.417 1.338 2.302.054.329.408 1.647.152 1.823" stroke="#171717" stroke-width="4" stroke-linecap="round"/><path d="M277.546 221.791c5.019 1.799 15.383 9.148 16.548 24.334" stroke="#171717" stroke-width="2" stroke-linecap="round" stroke-linejoin="round"/><path d="M311.461 208.743c4.289-.522 12.569.051 11.242 6.701-.521 2.618-4.18 4.748-10.672 5.983m0 0c-13.961 2.689-41.089 1.372-78.167-7.232 2.738 9.997 15.019 32.426 42.829 34.576 24.094 1.865 35.099-16.687 35.338-27.344Z" stroke="#171717" stroke-width="2" stroke-linecap="round" stroke-linejoin="round"/><path d="M311.587 208.927c2.262-.288 4.649-.054 6.824.556 1.588.443 3.174 2.965 3.733 4.506.25.694.365 1.285.461 2.038.142 1.111.266 1.458-.695 2.145-.663.488-1.247 1.288-2.06 1.553-1.041.375-1.933.972-2.919 1.461-2.577 1.296-5.199 2.234-8.096 2.603-2.857.364-5.749.45-8.601.531-1.93.045-4.025-.253-5.916-.536-.66-.118-1.344.211-1.999.133-.655-.078-1.493-.011-2.178-.005a58.52 58.52 0 0 1-4.565-.063 49.859 49.859 0 0 1-4.317-.338c-1.389-.145-2.869-.683-4.199-.675-2.535.041-6.028-.159-8.313-1.32-.859-.415-1.817-.333-2.621-.634-1.564-.567-3.082-.454-4.71-.569-3.062-.296-6.415-.03-9.354-.946-.924-.285-1.95-.114-2.789-.37a17.091 17.091 0 0 0-3.718-.696c-1.792-.135-3.295-.226-5.008-.693-1.047-.31-1.689-.914-2.84-.768-.357.046-1.929.045-2.238-.158-1.088-.628-.445.621-.289 1.206.385 1.443 1.257 2.905 1.528 4.402.477 2.48 2.394 5.18 4.223 6.882.597.569.867 1.422 1.498 1.946.676.559 1.1 1.352 1.593 2.056.736 1.035 1.78 1.95 2.626 2.891.841.901 1.91 2.015 2.894 2.777.979.722 2.082 1.146 3.09 1.783 1.63 1.083 3.419 2.146 5.276 2.796 1.817.656 3.604 1.073 5.554 1.188 1.787.095 3.659.865 5.45.999 3.385.295 6.665 2.619 9.998 2.195 1.785-.228 3.561-.534 5.342-.479 2.307.069 4.54.188 6.881-.11 1.548-.197 3.297-1.025 4.56-1.871l4.726-3.102c.743-.498 1.039-1.342 1.742-1.835.629-.443 1.575-1.249 2.025-1.831 1.148-1.436 3.14-2.577 3.885-4.325.345-.77.815-1.515 1.166-2.245.414-.86.476-1.956.767-2.84.404-1.261.089-4.366 1.283-5.123" stroke="#171717" stroke-width="2" stroke-linecap="round"/><path d="M294.039 245.727c.217-2.05-.916-6.334-1.256-7.345a15.792 15.792 0 0 0-1.76-3.606c-.663-1.02-2.038-1.93-2.784-2.983-.75-1.092-1.316-2.764-2.098-3.773-.873-1.12-2.174-1.676-3.159-2.705-1.703-1.802-2.04-2.778-4.378-3.674M192.521 328.156c.685-.015 1.791 1.243 2.259 1.702.753.738 1.975 1.258 2.754 1.633 1.735.847 2.334 1.227 4 2.164 1.187.682 2.243 1.301 2.863 2.547.225.453.575.929.721 1.393.129.345.581.403.824.692" stroke="#171717" stroke-width="2" stroke-linecap="round"/><path d="M343.375 200.442c11.412 22.235 64.709 25.197 46.351-39.033m0 0-5.442 6.848m5.442-6.848-8.478 1.191" stroke="#171717" stroke-width="2.4" stroke-linecap="round" stroke-linejoin="round"/><path d="m193.19 228.595 15.365 109.326m0 0-20.598 2.895m20.598-2.895L192.201 327.9" stroke="#171717" stroke-width="2" stroke-linecap="round" stroke-linejoin="round"/><path d="m187.647 340.173 10.992-1.545c2.139-.301 4.526-.555 6.452-1.513 1.019-.507 1.857-.584 1.679-1.851l-.407-2.892c-.584-4.159 1.429-9.087.839-13.286-.696-4.951-4.411-8.105-4.546-13.095-.096-2.693-2.198-6.437-1.886-9.106.397-3.206.588-7.313.137-10.521-.451-3.209-.579-6.422-1.025-9.591-.362-2.575-1.626-6.396-1.105-9.014.48-2.329-.464-5.024-.277-7.434.151-1.798-.745-3.571-.509-5.341.167-1.114-.164-2.32-.32-3.429-.434-3.089-1.265-6.123-1.699-9.213-.161-1.149-2.492-12.273-2.631-13.263M344.353 201.367c.979 1.281 1.957 2.798 3.14 3.89 1.136 1.049 2.104 2.248 3.485 3.05 1.541.896 2.895 2.143 4.423 3.072 1.336.812 2.805 1.438 4.225 2.092 1.847.851 3.792.907 5.77 1.226 2.285.369 4.449.486 6.731.165 2.563-.36 4.52-1.389 6.879-2.448 4.635-2.082 7.964-6.324 10.297-10.707 1.32-2.48 2.329-4.976 2.905-7.735.323-1.547.72-3.419.696-5.005-.037-2.407.339-4.849.408-7.27.059-2.054-.152-4.012-.438-6.05l-.772-5.489c-.173-1.237-.525-2.419-.699-3.658-.056-.4-1.214-4.997-1.575-5.118" stroke="#171717" stroke-width="2" stroke-linecap="round"/><path d="m390.858 166.57-.51-3.632c-.049-.345-.163-.78-.376-1.059-.286-.375-.823.932-.962 1.061-1.2 1.125-2.3 2.326-3.506 3.456-.659.618-1.085 1.622-1.783 2.103M380.415 162.112c2.122-.298 4.218-.778 6.321-1.074.701-.098 2.437-.591 2.811.161" stroke="#171717" stroke-width="2" stroke-linecap="round"/><path stroke="#171717" stroke-width="2" stroke-linecap="round" stroke-linejoin="round" d="m283.481 44.647 150.056-31.595 15.797 75.028-150.056 31.595zM290.476 43.174l15.797 75.028"/><path d="m372.347 104.967 27.47 114.681M399.69 219.165c-1.106-7.871-4.371-15.184-5.47-23.004-.424-3.015-1.663-5.861-2.095-8.935-.457-3.251-1.174-6.367-1.632-9.621-.473-3.367-2.382-6.084-3.247-9.286-1.056-3.906-1.966-7.906-2.532-11.934-.615-4.377-2.33-8.62-2.947-13.01-.301-2.141-.38-4.5-.986-6.574-.581-1.99-.786-4.043-1.074-6.095-.074-.527.004-1.61-.531-1.79M379.175 128.917c-.369-2.626-1.51-4.982-2.161-7.528-.609-2.38-1.72-4.449-2.572-6.692-1.258-3.311-1.811-6.473-2.301-9.963" stroke="#171717" stroke-width="2" stroke-linecap="round"/><path d="m299.379 118.629 22.521-3.165c3.126-.439 6.747-.865 9.687-2.033 4.179-1.66 8.341-2.314 12.749-2.933 7.783-1.094 15.359-2.933 22.921-5.102 8.095-2.322 16.587-2.985 24.835-4.615 9.449-1.867 18.875-3.84 28.236-6.1 2.267-.547 3.687-1.123 5.58-1.389 2.171-.305 4.049-1.13 5.876-2.27 5.871-1.799 9.568-2.319 15.773-3.19M299.163 119.931c-1.167-8.302-2.284-16.399-5.057-24.313-1.065-3.04-2.35-5.94-3.137-9.094a472.513 472.513 0 0 1-2.726-11.534c-1.369-6.135-2.168-12.402-3.045-18.643-.373-2.653-.961-5.281-1.337-7.95-.169-1.205-.19-2.536-.726-3.616M306.894 116.851c-.931-6.625-1.283-13.888-3.81-20.132-1.093-2.7-1.639-5.545-2.526-8.311-.484-1.508-.799-3.09-1.211-4.624-.529-1.967-1.122-3.927-1.407-5.954-.675-4.807-1.209-9.69-2.214-14.439-.902-4.265-1.617-8.525-2.224-12.845-.202-1.437-.259-2.979-.769-4.343-.15-.4-.751-.271-.34-.329.536-.075.11-1.607-.122-1.944M283.464 44.75c6.693-.94 11.789-4.108 18.422-5.04 5.6-.787 11.202-1.876 16.832-2.668 11.821-1.661 23.32-5.392 35.153-7.055 3.434-.483 6.84-1.627 10.228-2.361 5.029-1.09 10.06-2.553 15.163-3.323 7.602-1.148 15.099-2.727 22.734-3.8 5.282-.742 10.233-2.792 15.431-3.68 3.054-.52 6.104-1.764 9.209-2.2 1.03-.145 3.528.005 3.918-1.155M430.595 13.762c.719 3.637 4.272 6.583 5.064 10.234.211.973.997 1.796 1.28 2.774.284.983.592 1.923.96 2.887 3.125 8.195 3.996 17.205 5.21 25.844.944 6.72 3.073 13.264 4.019 20 .597 4.246 1.5 8.518 2.087 12.7" stroke="#171717" stroke-width="2" stroke-linecap="round"/><path d="M298.286 99.948c.432-1.625 1.225-3.08 1.792-4.646.229-.632.564-1.36.635-2.032.039-.368.365-.576-.171-.5-1.231.172-2.471.474-3.673.782-.408.104-.774.23-1.197.29-.654.092-.346-.21-.149-.655.371-.84.513-1.886.776-2.77.361-1.216.877-2.395 1.308-3.587.333-.92.481-1.89.635-2.85.065-.406.041-.243-.208-.05-1.419 1.098-2.406 2.467-4.101 3.266-.361.17-.543.111-.586-.278-.043-.388.131-.744.262-1.101.44-1.195.732-2.454 1.066-3.681.554-2.042 1.236-4.163 1.448-6.275.028-.277.461-1.703.004-1.403-1.32.869-3.371.891-4.894 1.105-.571.08-.538-.011-.315-.502 1.16-2.549 1.339-5.668 1.784-8.393.132-.81.368-2.045.883-2.728.209-.278-.362.615-.64.823-1.018.762-1.917 1.766-3.215 1.948M288.573 64.93c-.617.009-.27-3.476-.14-3.966.443-1.668.971-3.321 1.339-5.007.107-.491 1.618-6.111.735-6.181-.734-.059-1.351 1.106-1.669 1.58-.784 1.163-1.403 2.43-2.249 3.552-.065.086-.63 1.172-.822.907-.26-.36.029-1.055.028-1.443-.004-1.293.442-2.617.617-3.899.165-1.208.153-2.488.454-3.674.098-.385.244-1.68.574-1.908M297.648 102.47c.303-.043 2.286-.497 2.397-.247.327.735-.545 2.469-.813 3.152-.427 1.085-.355 2.36-.197 3.489.114.812 1.606-.55 1.997-.841.818-.608 1.291-.712 1.148.318-.19 1.357-.473 2.655-.382 4.04.073 1.102.093 2.197.309 3.292.147.743.827.534 1.366.459" stroke="#171717" stroke-width="4" stroke-linecap="round"/><path d="M327.082 68.507a2.303 2.303 0 0 1-.708.03c-1.23-.122-2.673 0-4.329.363-.543.12-1.163.293-1.86.52-.687.226-1.447.505-2.279.837.393 1.706.716 3.174.968 4.407 1.281-.627 2.366-1.038 3.256-1.234 1.656-.363 3.115-.605 4.377-.723 1.179-.11 1.887.37 2.121 1.438.114.516.026.988-.263 1.415a1.907 1.907 0 0 1-1.22.814c-.463.102-1.166.219-2.107.351-.942.132-1.644.25-2.107.35-.65.144-1.726.595-3.23 1.355l1.84 8.372c.113.516.003.993-.33 1.43-.324.436-.749.71-1.274.826-.517.114-.973.032-1.37-.245-.395-.268-.65-.664-.765-1.19l-3.362-15.302c-.077-.347-.188-.874-.333-1.579a66.861 66.861 0 0 0-.32-1.582c-.115-.525-.037-1 .233-1.423.28-.425.687-.696 1.221-.814.339-.074.652-.073.939.004a37.833 37.833 0 0 1 2.759-1.012 23.5 23.5 0 0 1 2.308-.647c1.015-.223 2.338-.295 3.97-.215 2.047.101 3.147.499 3.3 1.193a1.83 1.83 0 0 1-.26 1.43c-.276.442-.668.72-1.175.831Zm7.058-.879a2.175 2.175 0 0 1-1.609-.248c-.502-.291-.814-.712-.935-1.264-.122-.552-.015-1.066.319-1.54a2.173 2.173 0 0 1 1.356-.9 2.125 2.125 0 0 1 1.595.251c.503.291.815.712.936 1.264a1.87 1.87 0 0 1-.32 1.54 2.125 2.125 0 0 1-1.342.897Zm3.285 9.539c.112.507.304 1.319.577 2.435.282 1.114.479 1.924.591 2.432.113.516.033.981-.24 1.396-.274.406-.679.667-1.213.785-.534.117-1.011.05-1.431-.204-.421-.262-.689-.651-.802-1.167a86.742 86.742 0 0 0-.59-2.432 116.047 116.047 0 0 1-.577-2.435 42.277 42.277 0 0 1-.521-3.007 42.27 42.27 0 0 0-.521-3.008c-.113-.516-.033-.977.242-1.383.273-.414.677-.68 1.211-.797.534-.118 1.012-.045 1.433.217.42.253.686.637.8 1.154.174.792.347 1.794.52 3.007a42.85 42.85 0 0 0 .521 3.007Zm15.592 4.133c-1.095.24-1.823-.164-2.184-1.214l-.981-2.682a20.995 20.995 0 0 1-.808-2.72 28.45 28.45 0 0 1-.221-1.197 22.4 22.4 0 0 0-.208-1.2c-.013-.063-.039-.22-.076-.474a9.966 9.966 0 0 0-.111-.633c-.162-.739-.435-1.066-.818-.982-.819.18-1.519.838-2.1 1.973-.574 1.125-.922 2.47-1.045 4.037.047.298.093.698.139 1.201.034.413.093.81.178 1.193.054.25.164.622.329 1.118.172.484.285.852.34 1.1.111.508.025.966-.258 1.373-.273.415-.677.68-1.211.798s-1.012.045-1.433-.217c-.42-.253-.685-.633-.797-1.14-.055-.25-.164-.618-.326-1.105a12.304 12.304 0 0 1-.33-1.117c-.188-.855-.387-2.057-.596-3.606-.21-1.55-.409-2.752-.597-3.607-.058-.267-.163-.66-.314-1.177a25.913 25.913 0 0 1-.301-1.18c-.11-.498-.022-.946.264-1.345.292-.41.701-.672 1.227-.788 1.166-.256 1.942.306 2.33 1.686l.045.144c1.012-1.594 2.24-2.55 3.682-2.867 1.682-.37 2.999.079 3.949 1.345.634.85 1.158 2.213 1.571 4.092l.208.948c.081.411.14.702.177.87.153.695.443 1.57.87 2.623.437 1.052.73 1.92.881 2.606.109.499.022.952-.261 1.36-.284.407-.689.669-1.214.784Zm10.41-17.349c-.551-3.061-.874-5.188-.968-6.38-.079-1.084.384-1.736 1.39-1.957.525-.116.985-.04 1.38.228.395.268.646.647.754 1.136.283 1.291.604 3.237.96 5.837.366 2.598.69 4.542.974 5.833.692 3.151 1.258 5.239 1.698 6.262.058.136.099.263.125.378.107.49.018.934-.267 1.333-.288.39-.668.636-1.14.74-.658.145-1.213-.041-1.662-.559a7.615 7.615 0 0 1-1.704 1.229c-.609.33-1.26.57-1.955.723-1.994.438-3.789.165-5.387-.818-1.629-1.004-2.665-2.513-3.107-4.525-.527-2.394-.274-4.475.756-6.24 1.028-1.776 2.633-2.903 4.814-3.382a7.015 7.015 0 0 1 1.836-.18c.557.027 1.058.141 1.503.342Zm.657 4.265c-.417-.496-.891-.83-1.424-1.003-.532-.172-1.123-.187-1.773-.044-1.318.29-2.222.89-2.712 1.8-.493.901-.572 2.113-.237 3.635.211.962.748 1.707 1.611 2.236.862.529 1.766.69 2.709.482.686-.15 1.189-.345 1.51-.583.217-.16.564-.535 1.041-1.125a4.84 4.84 0 0 0 .349-.51c-.111-.424-.469-2.053-1.074-4.888Zm21.315-7.413c1.001-1.853 2.103-2.911 3.305-3.176 1.371-.3 2.491-.001 3.361.9.438-.6.959-1.093 1.565-1.478a6.337 6.337 0 0 1 2.058-.83c1.744-.383 3.119.224 4.124 1.823.203.33.659 1.493 1.369 3.493.566 1.388 1.415 3.72 2.546 7 .147.5.065.956-.245 1.37a2.052 2.052 0 0 1-1.24.79c-1.024.225-1.736-.15-2.138-1.126-.361-.882-.81-2.141-1.347-3.778-.581-1.794-1.014-3.062-1.298-3.802-.59-1.54-1.072-2.27-1.446-2.188-.205.045-.627.352-1.267.922-.64.57-1.097 1.04-1.371 1.407.223 1.015.664 2.449 1.323 4.301.677 1.895 1.123 3.328 1.336 4.298.112.507.031.968-.242 1.383-.273.414-.676.68-1.211.798-.534.117-1.011.045-1.433-.217-.421-.262-.688-.647-.799-1.154-.223-1.015-.662-2.482-1.317-4.4-.648-1.93-1.083-3.402-1.306-4.417-.126-.57-.274-1.013-.447-1.33-.901.824-1.72 2.044-2.457 3.662-.03.072-.086.182-.165.33.359 1.806.652 3.221.877 4.245.054.25.12.59.196 1.02.074.423.134.736.179.941.105.481-.008.902-.339 1.264-.299.337-.711.563-1.237.678-.756.166-1.34-.05-1.752-.65-.285-.405-.534-1.092-.747-2.062l-1.092-4.968a50.785 50.785 0 0 0-.481-1.938 52.16 52.16 0 0 1-.485-1.95c-.174-.793-.189-1.541-.045-2.245.171-.877.573-1.385 1.205-1.524.498-.11.986-.011 1.464.294.476.297.765.677.866 1.14-.041-.187.003.204.133 1.174Zm27.261 7.043c-2.128.467-3.979.342-5.556-.375-1.742-.794-2.837-2.21-3.284-4.248-.495-2.252-.322-4.287.52-6.105.938-2.017 2.524-3.27 4.759-3.762 1.549-.34 2.89-.373 4.023-.1 1.489.364 2.386 1.24 2.691 2.629.215.979-.141 1.967-1.07 2.964-.422.457-1.312 1.184-2.67 2.183l-4.063 2.978a4.139 4.139 0 0 0 1.778.701c.656.099 1.376.062 2.159-.11 1.193-.262 2.15-.729 2.87-1.4.643-.6 1.187-.947 1.632-1.045.926-.203 1.488.144 1.685 1.044.223 1.014-.338 2.006-1.684 2.973a10.197 10.197 0 0 1-3.79 1.673Zm-2.851-11.258c-.828.182-1.475.613-1.942 1.294-.466.681-.756 1.613-.869 2.795.91-.657 1.816-1.309 2.72-1.955 1.082-.807 1.929-1.52 2.539-2.14-.671-.207-1.487-.205-2.448.006Zm12.287 4.383c-.498.11-.947.045-1.344-.194-.389-.242-.636-.598-.739-1.07-.077-.347-.203-.86-.381-1.54-.17-.69-.293-1.21-.37-1.556-.27-1.229-.666-3.074-1.188-5.535a566.87 566.87 0 0 0-1.174-5.537c-.104-.471-.025-.9.236-1.283.259-.393.633-.643 1.123-.751.489-.108.934-.037 1.334.21.398.24.648.595.752 1.067l3.113 14.168c.103.472.025.9-.236 1.284-.252.382-.627.628-1.126.737Zm1.025 4.856c-.534.118-1.095-.058-1.683-.526-.534-.433-.851-.877-.951-1.33-.101-.464-.004-.891.293-1.283a1.903 1.903 0 0 1 1.139-.74c.534-.117 1.091.059 1.67.529.534.433.849.873.947 1.318.1.454.003.881-.292 1.282-.286.398-.66.649-1.123.75Z" fill="#171717"/><path d="M351.361 273.09c-.229 2.229-.343 3.343.003 4.239a3.997 3.997 0 0 0 1.561 1.917c.806.521 1.92.636 4.149.865l91.508 9.399c2.229.229 3.343.344 4.15.865a4.001 4.001 0 0 1 1.56 1.917c.346.896.232 2.01.003 4.239l-2.572 25.037c-.229 2.228-.343 3.342.003 4.238a4.008 4.008 0 0 0 1.56 1.918c.807.521 1.921.635 4.15.864l31.169 3.202c2.228.229 3.343.343 4.238-.003a4.008 4.008 0 0 0 1.918-1.56c.521-.807.635-1.921.864-4.15l2.572-25.037c.229-2.228.343-3.343.865-4.149a3.997 3.997 0 0 1 1.917-1.561c.896-.346 2.01-.231 4.239-.002l14.202 1.458c2.228.229 3.342.344 4.238-.003a3.997 3.997 0 0 0 1.918-1.56c.521-.806.635-1.921.864-4.149l2.432-23.673c.229-2.229.343-3.343-.003-4.239a4.001 4.001 0 0 0-1.56-1.917c-.807-.521-1.921-.636-4.15-.865l-14.202-1.459c-2.228-.228-3.343-.343-4.149-.864a4 4 0 0 1-1.561-1.918c-.346-.895-.231-2.009-.003-4.238l13.144-127.96c.229-2.229.343-3.343-.003-4.239a3.995 3.995 0 0 0-1.56-1.917c-.807-.521-1.921-.636-4.149-.865l-47.63-4.892c-1.271-.131-1.907-.196-2.5-.077a3.995 3.995 0 0 0-1.465.616c-.5.34-.898.84-1.695 1.839L355.552 242.213c-.435.545-.653.818-.818 1.119-.146.267-.262.55-.344.843-.093.331-.128.678-.199 1.372l-2.83 27.543Zm108.83-25.611c-.229 2.228-.344 3.342-.865 4.149a3.994 3.994 0 0 1-1.917 1.56c-.896.347-2.01.232-4.239.003l-51.189-5.258a1.305 1.305 0 0 1-.889-2.111l65.738-82.851a1.102 1.102 0 0 1 1.959.798l-8.598 83.71Z" fill="#fff" stroke="#171717" stroke-width="2" stroke-linejoin="round"/><path d="M352.117 261.425c.755 1.603.713-.411.713-1.504v-3.127c0-2.104-.616-4.046.277-6.056.478-1.076.187-2.377.515-3.484.287-.969.912-2.237.989-3.206.183-2.282 2.345-3.898 3.286-5.779.933-1.868 3.078-3.788 4.552-5.344 2.069-2.185 4.068-4.342 6.254-6.412 4.678-4.432 8.639-9.947 12.092-15.319 4.722-7.345 11.268-13.613 16.388-20.702 3.09-4.279 6.754-8.003 9.618-12.409 2.611-4.016 5.006-8.048 7.501-12.132 1.39-2.274 2.893-4.464 4.256-6.769 1.319-2.233 2.588-4.667 4.116-6.769 1.728-2.375 3.038-4.922 4.77-7.283 1.133-1.545 2.251-3.802 3.76-4.987 2.54-1.996 4.662-4.503 6.947-6.789 1.683-1.683 3.718-3.49 5.146-5.363 1.738-2.282 4.198-3.982 5.997-6.215 1.301-1.616 2.751-3.07 3.998-4.71.263-.347 2.008-2.199 2.414-2.257 1.139-.162-1.436 1.803-2.058 2.771-1.379 2.145-3.328 3.787-4.908 5.819-1.339 1.721-2.867 3.214-4.355 4.789-.835.885-1.394 1.968-2.137 2.93-.848 1.097-2.02 2.079-2.771 3.206-3.483 5.225-8.006 9.715-11.202 15.16-1.763 3.005-7.59 11.675-5.898 8.629 3.334-6.001 8.298-11.144 12.667-16.387 2.252-2.703 4.3-5.59 6.769-8.115 2.175-2.224 3.661-4.965 5.779-7.204 1.487-1.573 2.772-3.381 3.998-5.146 1.133-1.631 1.699-4.216 3.483-5.363 1.424-.915 2.087-2.575 3.899-3.028.753-.188 1.174-.906 1.959-1.049.742-.135 1.416-.148 2.157-.376 2.851-.877 4.943.304 7.66.693 2.736.39 5.445.715 8.193 1.108 1.499.214 2.913.693 4.454.693 1.587 0 3.192-.357 4.829-.357 2.714 0 6.18-.606 8.688.535 2.246 1.021 5.261 1.031 7.659 1.781 2.47.772 5.129 1.123 7.66 1.583 2.373.432 3.267 3.706 2.612 5.997-1.068 3.738-.447 7.692-1.266 11.479-.94 4.346-.707 8.879-1.584 13.26-.939 4.699-2.058 8.942-2.058 13.815 0 4.44-.406 8.936-1.346 13.26-.896 4.121-.173 8.358-1.069 12.39-.788 3.55-.691 7.782-.791 11.4-.109 3.895-.357 7.908-.357 11.756 0 4.739-1.941 9.015-2.85 13.557-.736 3.684-.712 7.278-.712 11.024 0 3.783-.27 7.879.534 11.578.597 2.745.506 5.511 1.267 8.174.679 2.375 4.807 1.623 6.571 1.623 2.479 0 4.568.339 6.927.732 1.873.312 5.551 1.382 6.432 3.365 2.047 4.606 5.211 8.21 4.196 13.794-.636 3.497-2.058 7.501-2.058 11.044 0 1.426-.267 6.585-2.138 6.689-1.064.06-1.817.713-2.929.713-1.627 0-3.239.356-4.908.356-3.05 0-6.163.356-9.263.356-2.732 0-4.471.439-6.412 2.494-1.2 1.271-1.546 3.526-2.573 4.988-1.306 1.857-2.3 4.212-2.85 6.412-1.599 6.396-2.415 13.17-2.415 19.772 0 1.831-.101.416.02-.554.322-2.577 1.43-5.07 1.94-7.62.868-4.342 1.204-8.828 1.623-13.221.409-4.3 1.38-7.728 2.83-11.716.843-2.318 5.504-1.821 7.303-1.267 2.726.839 5.406 2.211 8.194 2.83 1.096.244 2.265-.434 3.226-.871 1.161-.528 2.99-.589 4.255-.871 2.458-.546 2.788-4.612 3.542-6.768 1.661-4.745 1.624-10.359 2.336-15.339" stroke="#000" stroke-width="2" stroke-linecap="round"/><path d="M494.974 321.632c.231 2.542-.356 5.182-.356 7.837 0 2.368-3.227 2.85-5.067 2.85-2.332 0-4.549-.061-6.689-1.068-2.289-1.078-5.318-.979-7.759-1.703-2.736-.81-5.534-.7-8.273-1.425-2.783-.736-5.957-1.504-8.827-1.504-5.968 0-5.444-11.65-4.532-15.299.64-2.557 2.879-7.191 2.296-9.816-.393-1.768-.577-4.338-1.94-5.7-1.473-1.474-2.447-3.754-4.294-4.809-2.332-1.333-4.18-2.478-6.927-2.87-1.375-.197-2.868-.693-4.275-.693-1.511 0-2.804-.712-4.275-.712-3.669 0-7.591-.438-11.222-1.069-4.105-.714-8.648-1.781-12.825-1.781h-20.128c-1.969 0-3.759-1.015-5.7-1.069-1.933-.054-3.715-1.001-5.621-1.069-1.77-.063-3.341-.239-5.066-.633-2.98-.681-6.129-.436-9.184-.436-2.305 0-4.606-.712-6.847-.712-6.12 0-6.695-6.566-5.621-11.4 1.296-5.834 2.691-11.576 3.76-17.456.399-2.191 1.148-4.625 1.148-6.848 0-2.183-.224-.183-.534.811-.886 2.835-1.501 5.808-2.454 8.669-.249.744-.563 4.627-.238 2.355.624-4.365 2.142-8.687 4.453-12.468 2.664-4.36 5.778-8.396 8.55-12.647 2.941-4.509 7.067-8.388 10.153-12.825 3.097-4.452 7.035-8.135 9.837-12.805 1.756-2.927 4.381-5.594 6.392-8.392 2.275-3.165 4.74-6.191 7.303-9.104 2.419-2.748 5.248-5.977 6.927-9.223 1.849-3.575 5.015-6.198 6.967-9.658 4.107-7.281 9.792-13.552 13.181-21.177" stroke="#000" stroke-width="2" stroke-linecap="round"/><path d="M401.281 246.107c-.675.084-.703.346.178-.534.979-.98 1.814-2.196 2.494-3.405.803-1.428 1.578-2.668 2.672-3.918 1.177-1.346 1.733-3.139 3.028-4.434 2.326-2.326 2.956-5.525 5.165-7.857 2.322-2.451 3.89-5.365 6.334-7.718 4.147-3.994 7.716-8.714 10.964-13.439 1.884-2.74 4.606-4.894 6.215-7.857 1.223-2.254 3.02-4.23 4.354-6.413 1.878-3.073 4.714-5.924 6.867-8.906 1.23-1.702 2.795-3.18 3.899-4.987.87-1.423 1.896-2.283 2.87-3.583 2.491-3.321 5.695-8.003 9.441-9.875 6.228-3.115 3.206 8.625 3.206 10.766 0 4.258-.356 8.472-.356 12.746 0 1.959-.209 3.906-.634 5.819-.345 1.555.171 3.228-.158 4.789-.315 1.494-.446 3.118-.614 4.631-.171 1.54-.732 3.068-.732 4.632 0 1.601-.789 3.61-1.247 5.165-.513 1.745-.844 3.71-1.247 5.522-.624 2.811-.634 5.924-1.504 8.629-.893 2.78-2.191 5.843-2.414 8.748-.169 2.189-.357 4.386-.357 6.65 0 1.539-.037 3.481-.376 5.007-.204.921-.692 1.604-.692 2.593 0 1.139.144 2.333-1.148 2.85-.94.376-1.672 1.465-2.692 1.504-.869.033-2.172.178-3.008.435-2.515.774-4.719.99-7.382.99-1.235 0-2.412.356-3.583.356-1.233 0-2.544-.997-3.721-1.425-4.956-1.802-10.39-.009-15.437-1.504-2.389-.708-4.801-1.022-7.204-1.88-1.787-.638-3.679-1.53-5.522-1.94-2.574-.572-8.015.349-8.015-3.582" stroke="#000" stroke-width="2" stroke-linecap="round"/></svg>