<svg xmlns="http://www.w3.org/2000/svg" width="409" height="196" fill="none"><g clip-path="url(#a)" filter="url(#b)"><mask id="c" width="194" height="160" x="204.772" y="3.956" fill="#000" maskUnits="userSpaceOnUse"><path fill="#fff" d="M204.772 3.956h194v160h-194z"/><path fill-rule="evenodd" d="M324.362 12.957a.448.448 0 0 1 .415.48l-.563 7.88c9.951 13.333 11.559 27.958 11.107 33.67a.449.449 0 0 1-.278.38.45.45 0 0 1-.171.112 82.777 82.777 0 0 1 5.356 10.12c3.418 8.598 4.737 16.139 4.509 22.709l5.003 1.547 40.037 12.642-26.778 5.786 27.081-5.839-118.868 52.942-9.77-23.609-.7-1.398-46.97 10.15 45.433-32.522 8.338-.352c-2.091-3.216-4.071-6.916-5.91-11.156-6.427 1.556-14.722 2.369-23.799.704l-6.813 4.002a.449.449 0 1 1-.454-.773l6.37-3.742-5.417-3.983a.448.448 0 1 1 .531-.723l5.883 4.326c8.899 1.642 17.034.861 23.341-.648l-.272-.648a63.345 63.345 0 0 1-4.145-15.24l-20.529.697a.448.448 0 0 1-.271.01l-.135.004v-.068a.446.446 0 0 1-.189-.313c-1.47-11.868 1.542-18.364 6.076-21.581 4.498-3.192 10.344-3.044 14.327-1.963a.448.448 0 0 1 .279.642c.428.114.845.236 1.248.365 2.862-12.506 9.934-23.007 20.97-27.574 24.713-10.227 44.552 7.146 55.637 24.53V49.9c0-.076.019-.148.052-.21-.649-7.002-3.334-17.82-10.865-27.886l-6.487-3.352a.448.448 0 1 1 .412-.797l5.973 3.086.527-7.368a.448.448 0 0 1 .479-.416Z" clip-rule="evenodd"/></mask><path fill="#fff" fill-rule="evenodd" d="M324.362 12.957a.448.448 0 0 1 .415.48l-.563 7.88c9.951 13.333 11.559 27.958 11.107 33.67a.449.449 0 0 1-.278.38.45.45 0 0 1-.171.112 82.777 82.777 0 0 1 5.356 10.12c3.418 8.598 4.737 16.139 4.509 22.709l5.003 1.547 40.037 12.642-26.778 5.786 27.081-5.839-118.868 52.942-9.77-23.609-.7-1.398-46.97 10.15 45.433-32.522 8.338-.352c-2.091-3.216-4.071-6.916-5.91-11.156-6.427 1.556-14.722 2.369-23.799.704l-6.813 4.002a.449.449 0 1 1-.454-.773l6.37-3.742-5.417-3.983a.448.448 0 1 1 .531-.723l5.883 4.326c8.899 1.642 17.034.861 23.341-.648l-.272-.648a63.345 63.345 0 0 1-4.145-15.24l-20.529.697a.448.448 0 0 1-.271.01l-.135.004v-.068a.446.446 0 0 1-.189-.313c-1.47-11.868 1.542-18.364 6.076-21.581 4.498-3.192 10.344-3.044 14.327-1.963a.448.448 0 0 1 .279.642c.428.114.845.236 1.248.365 2.862-12.506 9.934-23.007 20.97-27.574 24.713-10.227 44.552 7.146 55.637 24.53V49.9c0-.076.019-.148.052-.21-.649-7.002-3.334-17.82-10.865-27.886l-6.487-3.352a.448.448 0 1 1 .412-.797l5.973 3.086.527-7.368a.448.448 0 0 1 .479-.416Z" clip-rule="evenodd"/><path fill="#fff" d="m324.777 13.436-8.288-.591 8.288.591Zm-.415-.479-.592 8.289.592-8.289Zm-.148 8.36-8.288-.591a8.31 8.31 0 0 0 1.629 5.562l6.659-4.97Zm11.107 33.67-8.284-.656 8.284.656Zm-.278.38-3.144-7.692a8.312 8.312 0 0 0-2.864 1.952l6.008 5.74Zm-.171.112-2.83-7.813a8.311 8.311 0 0 0-4.234 12.188l7.064-4.375Zm5.356 10.12 7.722-3.07a7.368 7.368 0 0 0-.118-.282l-7.604 3.352Zm4.509 22.709-8.304-.288a8.309 8.309 0 0 0 5.849 8.227l2.455-7.94Zm5.003 1.547 2.502-7.924-.047-.015-2.455 7.939Zm40.037 12.642 1.755 8.122a8.31 8.31 0 0 0 .747-16.046l-2.502 7.924Zm-26.778 5.786-1.755-8.122a8.31 8.31 0 0 0-6.367 9.875 8.31 8.31 0 0 0 9.873 6.37l-1.751-8.123Zm27.081-5.839 3.381 7.591a8.31 8.31 0 0 0-5.132-15.714l1.751 8.123Zm-118.868 52.942-7.678 3.177a8.307 8.307 0 0 0 11.059 4.414l-3.381-7.591Zm-9.77-23.609 7.678-3.177a8.083 8.083 0 0 0-.249-.545l-7.429 3.722Zm-.7-1.398 7.429-3.721a8.309 8.309 0 0 0-9.184-4.401l1.755 8.122Zm-46.97 10.15-4.837-6.757a8.31 8.31 0 0 0 6.592 14.879l-1.755-8.122Zm45.433-32.522-.35-8.302a8.314 8.314 0 0 0-4.487 1.545l4.837 6.757Zm8.338-.352.351 8.302a8.31 8.31 0 0 0 6.615-12.832l-6.966 4.53Zm-5.91-11.156 7.623-3.307a8.31 8.31 0 0 0-9.579-4.77l1.956 8.077Zm-23.799.704 1.498-8.173a8.309 8.309 0 0 0-5.707 1.008l4.209 7.165Zm-6.813 4.002-4.209-7.165 4.209 7.165Zm-.454-.773 4.208 7.165h.001l-4.209-7.165Zm6.37-3.742 4.209 7.165a8.31 8.31 0 0 0 .713-13.86l-4.922 6.695Zm-5.417-3.983-4.923 6.694 4.923-6.694Zm.531-.723-4.923 6.695h.001l4.922-6.695Zm5.883 4.326-4.923 6.694a8.309 8.309 0 0 0 3.415 1.477l1.508-8.171Zm23.341-.648 1.933 8.082a8.31 8.31 0 0 0 5.721-11.315l-7.654 3.233Zm-.272-.648-7.678 3.177 7.678-3.177Zm-4.145-15.24 8.226-1.174a8.31 8.31 0 0 0-8.508-7.131l.282 8.304Zm-20.529.697-.282-8.305a8.302 8.302 0 0 0-2.494.473l2.776 7.832Zm-.095.022-1.021-8.246h-.001l1.022 8.246Zm-.176-.013 2.249-7.999a8.307 8.307 0 0 0-2.531-.305l.282 8.304Zm-.135.005h-8.309a8.308 8.308 0 0 0 8.591 8.305l-.282-8.305Zm0-.068h8.31a8.311 8.311 0 0 0-3.567-6.823l-4.743 6.823Zm-.189-.313 8.246-1.022-8.246 1.022Zm6.076-21.581-4.809-6.777 4.809 6.777Zm14.327-1.963 2.177-8.019-2.177 8.02Zm.315.55-8.019-2.177 8.019 2.177Zm-.036.093-7.35-3.877a8.307 8.307 0 0 0 5.225 11.91l2.125-8.034Zm1.248.364-2.538 7.913a8.309 8.309 0 0 0 10.638-6.059l-8.1-1.854Zm20.97-27.574 3.178 7.678-3.178-7.678Zm55.637 24.53-7.007 4.467a8.31 8.31 0 0 0 15.316-4.468h-8.309Zm.052-4.834 7.329 3.916a8.307 8.307 0 0 0 .945-4.683l-8.274.767Zm-10.865-27.886 6.654-4.977a8.314 8.314 0 0 0-2.839-2.405l-3.815 7.383Zm-6.487-3.352 3.815-7.382-3.815 7.382Zm.412-.796 3.815-7.382-3.815 7.382Zm5.973 3.086-3.814 7.383a8.308 8.308 0 0 0 12.103-6.79l-8.289-.593Zm.527-7.368 8.288.591-8.288-.591Zm9.183.655a8.759 8.759 0 0 0-8.112-9.36l-1.184 16.578a7.861 7.861 0 0 1-7.281-8.401l16.577 1.183Zm-.563 7.881.563-7.88-16.577-1.184-.563 7.88 16.577 1.184Zm11.102 33.733c.588-7.433-1.412-24.129-12.731-39.295l-13.319 9.94c8.582 11.5 9.798 24.055 9.482 28.044l16.568 1.311Zm-5.418 7.416a8.759 8.759 0 0 0 5.418-7.416l-16.568-1.31a7.863 7.863 0 0 1 4.862-6.657l6.288 15.383Zm-.486.233a8.756 8.756 0 0 0 3.351-2.185l-12.017-11.479a7.858 7.858 0 0 1 3.007-1.961l5.659 15.626Zm10.131-1.044a91.275 91.275 0 0 0-5.896-11.144l-14.128 8.751a74.704 74.704 0 0 1 4.817 9.096l15.207-6.703Zm5.21 26.349c.274-7.917-1.331-16.604-5.092-26.067l-15.443 6.139c3.074 7.735 4.107 14.13 3.926 19.352l16.609.576Zm-.847-6.68-5.003-1.547-4.91 15.877 5.003 1.547 4.91-15.877Zm40.084 12.657L352.242 81.93l-5.004 15.848 40.037 12.641 5.004-15.847Zm-27.525 21.832 26.778-5.786-3.51-16.245-26.778 5.787 3.51 16.244Zm23.575-22.084-27.081 5.839 3.502 16.246 27.081-5.839-3.502-16.246Zm-113.736 68.656 118.868-52.942-6.762-15.182-118.868 52.942 6.762 15.182Zm-20.829-28.022 9.77 23.608 15.356-6.354-9.77-23.609-15.356 6.355Zm-.452-.854.701 1.398 14.858-7.444-.7-1.397-14.859 7.443Zm-37.785 14.55 46.97-10.15-3.51-16.244-46.97 10.15 3.51 16.244Zm38.841-47.401-45.433 32.522 9.674 13.514 45.433-32.522-9.674-13.514Zm12.825-1.897-8.338.352.7 16.604 8.339-.352-.701-16.604Zm-13.184.452c2.003 4.617 4.196 8.733 6.568 12.381l13.932-9.061c-1.811-2.784-3.577-6.069-5.253-9.933l-15.247 6.613Zm-17.674 5.571c10.427 1.912 19.915.975 27.253-.801l-3.911-16.153c-5.515 1.336-12.616 2.025-20.345.608l-2.997 16.346Zm-1.105 2.994 6.812-4.002-8.417-14.33-6.813 4.002 8.418 14.33Zm-11.987-3.116a8.757 8.757 0 0 0 11.987 3.116l-8.418-14.33a7.861 7.861 0 0 1 10.76 2.797l-14.329 8.417Zm3.115-11.987a8.757 8.757 0 0 0-3.115 11.987l14.329-8.417a7.861 7.861 0 0 1-2.797 10.76l-8.417-14.33Zm6.37-3.742-6.37 3.742 8.418 14.33 6.37-3.742-8.418-14.33Zm-6.131 9.876 5.417 3.983 9.845-13.389-5.417-3.983-9.845 13.39Zm-1.867-12.244a8.757 8.757 0 0 0 1.867 12.244l9.845-13.389a7.861 7.861 0 0 1 1.677 10.99l-13.389-9.845Zm12.243-1.867a8.757 8.757 0 0 0-12.243 1.867l13.389 9.845a7.862 7.862 0 0 1-10.991 1.677l9.845-13.39Zm5.883 4.325-5.883-4.325-9.844 13.389 5.882 4.325 9.845-13.389Zm16.485-2.034c-5.399 1.291-12.345 1.951-19.899.557l-3.016 16.343c10.244 1.891 19.567.989 26.782-.737l-3.867-16.163Zm-6.016 10.61.295.704 15.309-6.466-.248-.593-15.356 6.355Zm-4.694-17.245a71.677 71.677 0 0 0 4.694 17.245l15.356-6.355a55.064 55.064 0 0 1-3.597-13.236l-16.453 2.346Zm7.945-9.477-20.529.697.564 16.61 20.529-.698-.564-16.61Zm-23.023 1.17a7.858 7.858 0 0 1 1.66-.392l2.042 16.493a8.762 8.762 0 0 0 1.851-.437l-5.553-15.664Zm1.659-.392a7.862 7.862 0 0 1 3.095.234l-4.499 15.998a8.757 8.757 0 0 0 3.448.26l-2.044-16.492Zm.564-.072-.135.005.564 16.61.135-.005-.564-16.61Zm8.457 8.31v-.068h-16.619v.068h16.619Zm-3.567-6.891a7.863 7.863 0 0 1 3.314 5.488l-16.493 2.043a8.757 8.757 0 0 0 3.694 6.115l9.485-13.646Zm3.314 5.488c-1.269-10.251 1.579-13.03 2.639-13.783l-9.618-13.553c-8.008 5.683-11.184 15.895-9.514 29.379l16.493-2.043Zm2.639-13.783c.795-.564 1.886-.958 3.292-1.084a11.91 11.91 0 0 1 4.048.364l4.355-16.038c-5.268-1.43-14.007-1.98-21.313 3.206l9.618 13.552Zm7.34-.72a7.861 7.861 0 0 1-5.526-9.646l16.038 4.355a8.758 8.758 0 0 0-6.157-10.747l-4.355 16.038Zm-5.526-9.646c.152-.56.365-1.1.633-1.606l14.7 7.751a8.743 8.743 0 0 0 .705-1.79l-16.038-4.355Zm5.858 10.303c.287.076.566.158.835.244l5.076-15.825a33.17 33.17 0 0 0-1.661-.486l-4.25 16.067Zm21.166-42.921c-14.245 5.894-22.628 19.133-25.893 33.399l16.2 3.707c2.46-10.748 8.219-18.51 16.048-21.75l-6.355-15.356Zm65.82 27.74c-5.988-9.39-14.633-19.283-25.681-25.416-11.356-6.305-25.149-8.528-40.139-2.324l6.355 15.356c9.722-4.024 18.205-2.673 25.717 1.498 7.821 4.342 14.638 11.828 19.735 19.821l14.013-8.935Zm-15.316-.155v4.622h16.619V49.9h-16.619Zm1.033-4.127a8.763 8.763 0 0 0-1.033 4.127h16.619a7.857 7.857 0 0 1-.928 3.705l-14.658-7.832Zm-10.189-18.992c6.413 8.572 8.703 17.83 9.244 23.675l16.548-1.534c-.756-8.158-3.837-20.537-12.485-32.096l-13.307 9.955Zm-3.648-.947 6.486 3.352 7.63-14.765-6.487-3.352-7.629 14.765Zm-3.76-11.801a8.757 8.757 0 0 0 3.76 11.8l7.629-14.764a7.861 7.861 0 0 1 3.375 10.593l-14.764-7.63Zm11.801-3.76a8.758 8.758 0 0 0-11.801 3.76l14.764 7.629a7.861 7.861 0 0 1-10.593 3.375l7.63-14.764Zm5.973 3.086-5.973-3.086-7.63 14.764 5.974 3.087 7.629-14.765Zm-11.577-.578-.526 7.369 16.577 1.183.526-7.369-16.577-1.183Zm9.36-8.112a8.759 8.759 0 0 0-9.36 8.112l16.577 1.183a7.86 7.86 0 0 1-8.401 7.282l1.184-16.577Z" mask="url(#c)"/><path stroke="#171717" stroke-linecap="round" stroke-width="2.597" d="m317.269 35.85 1.632 4.077c.252.63-.541-.543-.595-.615-.987-1.32-1.911-2.618-2.687-4.076-.744-1.396-1.481-2.763-2.626-3.878-.67-.652-.112.275.071.734.681 1.7 1.356 3.355 1.737 5.153.241 1.13.423 2.407.856 3.488.086.214.217.447.264.675.084.414-.911-1.218-.923-1.24-1.959-3.742-3.421-7.74-4.987-11.657-.162-.404.467 1.176.202.836-.124-.16-.087-.023-.048.09.144.418-.555-1.092-.502-.655.465 3.875.306 8.009 1.588 11.744.051.146.192.725.184.713-.239-.35-.357-.877-.513-1.266-.645-1.612-1.219-3.215-1.638-4.904-.272-1.1-.53-2.204-.805-3.304-.05-.2-.124-.45-.249-.62-.637-.871-.22.152-.105.546.401 1.378.527 2.838.747 4.252.375 2.413.02 2.898.356 5.317.093.67.268 1.423.242 2.106-.009.233-.495-.568-.502-.58-2.263-3.844-2.207-6.49-3.019-10.801-.245-1.302.353-.859-.143-2.1-.286-.713-.446-.422-.391.345.176 2.433.169 4.882.131 7.32-.031 2.017-.146 4.14.164 6.142.048.306-.372-.362-.341-.058.067.655-.201-.217-.446-.828-.832-2.081-1.298-4.147-1.682-6.351-.267-1.532-.516-3.126-.987-4.613-.164-.519-.306-.82-.308-1.341-.002-.447.041-.706-.123-1.116-.043-.109-.093-.34-.104-.066-.063 1.546-.063 3.094-.119 4.64-.078 2.16-.213 4.329-.213 6.491 0 .615.142 1.255.263 1.858.011.053.203.882.061.708-.349-.43-.557-1.19-.667-1.714-.268-1.269-.039-2.661-.03-3.945.014-1.78.075-3.685-.257-5.444-.116-.615-.327-1.148-.565-1.743-.138-.345-.168-.69-.306-1.036-.066-.165-.681-.69-.66-.583.16.786.209 1.546.24 2.354.097 2.604.109 5.208.255 7.81.093 1.66.125 3.33.278 4.986.05.55.219 1.18.193 1.73-.012.27-.166-.003-.231-.112-.705-1.185-1.256-2.56-1.689-3.863-1.055-3.168-1.203-6.536-2.085-9.744-.27-.98-.391-2.124-.698-3.034-.067-.198-.31-1.115-.262-.91.272 1.175.301 2.454.374 3.65.131 2.15.226 4.294.111 6.446a115.382 115.382 0 0 0-.15 5.733c0 .156-.008.37-.112.11-.382-.955-.778-1.906-1.136-2.87-1.301-3.505-1.587-7.27-2.545-10.863a24.808 24.808 0 0 1-.425-1.991c-.026-.148-.059-.442-.013-.11.096.703.184 1.397.242 2.107.23 2.792.145 5.6.452 8.392.072.652.184 1.279.306 1.92.03.161-.044.342 0 .48.174.546.212 1.143.252 1.712.026.358.269 1.395.106 1.074-1.998-3.92-1.624-8.371-2.597-12.553a19.484 19.484 0 0 1-.413-2.518c-.004-.043-.018-.78-.142-.49-.122.284-.107.67-.118.966-.04 1.065-.02 2.134.001 3.2.055 2.737.297 5.46.544 8.187.126 1.382.153 2.925.535 4.276.154.544-.191.157-.024.692.064.202-.176.15-.214.064-2.423-5.429-3.308-9.143-4.225-14.966-.125-.795-.368-1.598-.415-2.403-.036-.616.136-.067.18.21.465 2.897.145 3.623-.073 6.52-.224 2.982.105 6.109.822 9.002.127.51.258 1 .436 1.494.057.16-.097.195-.199.104-.625-.556-.896-1.776-1.168-2.499a86.284 86.284 0 0 1-2.797-8.822c-.48-1.857-.781-3.72-1.161-5.587-.061-.302.054.27.058.294.299 1.748.434 3.501.494 5.272.105 3.04-.216 6.33.943 9.229M277.538 31.535c.111.277.209.515.227.819.067 1.134.102 2.292.088 3.428-.018 1.527-.693 2.876-.943 4.354-.248 1.46-.379 2.938-.704 4.385-.35 1.563-.463 3.202-1.013 4.715-.209.578-.36 1.171-.537 1.76a20.077 20.077 0 0 1-1.174 2.965 35.309 35.309 0 0 1-1.728 3.17c-.557.904-1.297 1.61-1.997 2.397-.625.703-1.109 1.495-1.666 2.249-.491.664-1.062 1.262-1.651 1.839-1.339 1.31-2.857 2.387-4.459 3.336-1.557.922-3.061 1.928-4.749 2.603-.12.048-.147.06-.004.002 1.451-.58 2.821-1.236 4.145-2.077 3.255-2.07 6.763-4.28 9.037-7.472.764-1.074 1.207-2.324 1.455-3.609.297-1.54.806-3.016 1.148-4.544.336-1.501.706-2.995 1.008-4.503.291-1.456.479-2.929.782-4.383.352-1.686.673-3.335.572-5.062-.039-.65.081-1.283.204-1.918.083-.424.227-.873.189-1.306a5.041 5.041 0 0 0-.157-.888c-.054-.196-.238.429-.287.526-.962 1.925-1.278 4.185-1.882 6.237-.607 2.065-1.25 4.11-1.986 6.133-.563 1.547-.901 3.124-1.246 4.73-.271 1.256-.626 2.495-.922 3.746-.203.862-.359 1.732-.676 2.563-.689 1.81-1.366 3.81-2.823 5.155a21.357 21.357 0 0 1-2.26 1.794c-.7.492-1.339.94-2.137 1.26-.205.081-.505.27-.715.233-.085-.015-.236.074-.313.095-.253.072-.513.116-.767.188-.364.102-.714.248-1.076.348-.487.135-.989.209-1.458.396-.26.104.228-.19.261-.209.517-.304.965-.712 1.385-1.138 1.26-1.279 2.242-2.823 3.629-3.98.465-.388.9-.84 1.325-1.271.188-.19.381-.464.618-.596.146-.08.107-.1.107.089"/><path stroke="#171717" stroke-linecap="round" stroke-width="2.597" d="M264.379 60.233c.2-.102.347-.307.493-.47.355-.4.739-.788 1.046-1.227.655-.935.889-2.24 1.146-3.335.251-1.069.477-2.144.749-3.206.389-1.523.978-2.998 1.508-4.476.511-1.423 1.049-2.877 1.266-4.381.215-1.485-.114-2.937.268-4.417.148-.575.275-1.137.549-1.667.29-.562.517-1.132.708-1.735.182-.572.173-1.182.173-1.775 0-.232-.036-.544.057-.763.137-.319-.029.693-.075 1.036-.266 2.01-.801 3.964-1.328 5.918a98.958 98.958 0 0 1-1.56 5.17c-.236.715-.381 1.44-.496 2.184-.245 1.596-.85 3.052-1.636 4.455-.56.998-1.105 1.96-1.512 3.029-.953 2.507-3.212 4.343-4.611 6.584-.556.89-1.22 1.64-2.134 2.174-.515.301-1.039.586-1.552.89-.278.166-.641.32-.872.551-.088.089-.404.412-.534.412-.03 0 .006-.06.021-.087.107-.182.219-.36.32-.546.516-.955.959-1.937 1.367-2.942a68.064 68.064 0 0 1 2.541-5.561c.83-1.613 1.307-3.367 1.993-5.04 1.218-2.964 2.352-5.965 3.582-8.925.277-.667.449-1.37.644-2.065.221-.79.405-1.593.659-2.373.142-.436.235-.928.428-1.342.193-.412.166.116.228.41.438 2.098.722 4.181.556 6.327-.073.944-.385 1.907-.562 2.84-.254 1.336-.454 2.71-.925 3.991-.376 1.023-.823 2.018-1.196 3.041-.478 1.312-.865 2.6-1.531 3.84-.608 1.136-1.525 2.032-2.371 2.984-.223.252-.423.51-.681.73M237.972 77.863c.425 1.061.842 1.818 1.728 2.551.757.627.431-.083.224-.602l-1.703-4.257c-.332-.829-.503-1.676-.83-2.493-.045-.11-.322-1.037-.119-.947.965.424 1.876 1.85 2.619 2.592.835.835 1.457 1.849 2.227 2.73.665.762 2.464 3.139 2.088 2.198-.962-2.404-2.133-4.732-3.321-7.023-.748-1.443-1.467-2.851-2.076-4.373l-.467-1.169c.462 1.155 1.76 2.229 2.59 3.125 2.179 2.355 3.933 5.38 6.401 7.421.116.096.906.916.588.447-.866-1.278-1.512-2.806-2.169-4.213-1.153-2.47-2.525-4.86-3.616-7.34-.446-1.015-1.648-4.119-1.236-3.09.438 1.096 1.304 1.987 1.904 2.993.824 1.381 1.719 2.892 2.714 4.156 1.137 1.444 2.178 2.898 3.389 4.285.209.24 1.876 2.756 2.003 2.705.16-.064-4.761-10.644-5.32-12.042l-1.53-3.825-.471-1.176c-.054-.135-.187-.467-.052-.131.379.95 1.01 1.885 1.619 2.698 1.37 1.834 2.774 3.688 4.27 5.42 1.008 1.166 2.126 2.433 2.993 3.713.514.76 1.475 1.502 1.796 2.305.37.926.093-.185-.062-.572-.636-1.591-1.575-3.066-2.342-4.599-1.203-2.404-2.568-4.745-3.565-7.238-.356-.888-.878-1.775-1.249-2.704-.21-.523-.542-1.094-.535-1.663.007-.703-.604-1.101.118-.028a67.517 67.517 0 0 0 3.927 5.235c.912 1.106 1.81 2.16 2.473 3.437.113.218.661 1.12.886 1.191.081.025.64.974.393.355-1.01-2.523-2.434-5.153-2.994-7.808-.137-.65-.295-1.25-.543-1.868-.377-.944.629.312.782.465 1.08 1.074 2.183 2.044 3.132 3.249.389.494 1.251 2.095 1.184 1.47-.18-1.672-1.612-6.516-.986-4.952"/><path stroke="#171717" stroke-linecap="round" stroke-width="2.597" d="M244.763 61.23c.387.967 1.314 1.643 1.731 2.596.174.399.459.711.751 1.024.387.413.924.857 1.137 1.39M297.373 70.485c0 1.141.321 2.387.321 3.365 0 .519.269-2.69.569-3.365.688-1.548 2.172 1.624 2.778 2.403.19.244.819 1.764.819.624 0-.866.201-2.054-.16-2.85-.25-.55-.16-1.184-.16-1.78 0-1.328.215-.443.641.25.648 1.053 1.24 3.346 1.62.872.197-1.276.787-4.054 1.514-1.692.679 2.208.007-3.447.641-2.884.224.2 1.353 3.64 1.353 2.332 0-.584-.034-1.18 0-1.762.057-.972.933.79 1.033.89.288.288.89 1.244.89.837 0-.98.321-1.873.321-2.831 0-1.99 1.748 1.942 2.083 2.546.648 1.166.481-3.375.481-4.078 0-2.136 1.298 2.432 1.602 3.116 1.18 2.654.135-2.396 1.033-3.294.041-.04 1.211 2.955 1.211 3.455"/><path stroke="#C6C6C8" stroke-linecap="round" stroke-width="2.597" d="M311.084 80.632c1.105-.1 1.666-.76 2.565-1.21.183-.092-1.396 1.116-1.763 1.37-.47.326-4.37 2.084-2.653 2.084 1.989 0 4.548-.743 5.84-2.404.314-.403.867-.48.338-.48-.564 0-1.31.338-1.762.64"/><path stroke="#FFD424" stroke-linecap="round" stroke-width="2.597" d="M218.433 136.398c1.342 0 2.435.34 3.714.698.756.212-.33-1.584-.447-1.759-.331-.496-1.055-1.34-.251-.894.925.514 1.813 1.147 2.765 1.648.736.388 1.005.676 1.005-.195 0-1.039-.197-2.032-.251-3.016-.073-1.301 4.125 2.861 4.161 2.262.047-.809-.864-2.053-1.201-2.765-.599-1.265.66.38 1.117.754 1.098.898 2.413 1.58 3.463 2.513.992.882-.274-2.375-.559-2.764-.204-.28-1.722-2.658-1.145-2.458 1.164.403 2.372 1.656 3.407 2.346 2.766 1.843-.089-2.663-.572-3.533-.515-.926-.288-.727.405-.112 1.558 1.385 3.596 2.422 5.375 3.505 1.252.762 2.422 1.448.88-.265-1.302-1.447-2.614-3.071-3.63-4.734-.102-.166-1.015-1.536-.992-1.536 1.357 0 3.474 2.699 4.483 3.505.957.766 2.392 1.448 3.155 2.402.055.068-1.071-2.128-1.508-2.695-1.182-1.533-2.746-3.211-3.574-4.971-.14-.296 2.43 1.635 2.82 2.011 1.676 1.614 3.405 3.213 5.278 4.58.448.326.871.722 1.383.949.547.244-.508-.692-.629-.866-1.325-1.898-2.81-3.602-3.965-5.613-.583-1.015-.911-2.042-1.369-3.072-.635-1.429.923.48 1.313.81 2.261 1.92 4.493 3.743 6.898 5.474.167.12 2.122 1.57 2.122 1.354 0-.723-.888-1.657-1.285-2.164-1.057-1.353-2.245-2.6-3.323-3.938-.76-.944-1.5-1.862-2.206-2.848-.304-.425-1.069-1.046-1.187-1.578-.271-1.222.189-.547 1.131.265 3.562 3.071 7.688 5.997 11.799 8.281.697.387-.045-.542-.182-.685-.999-1.045-1.818-2.16-2.611-3.365-1.503-2.282-3.569-4.134-5.124-6.381-.319-.46-1.199-1.874-.991-1.354.255.637 1.289 1.147 1.745 1.661a55.53 55.53 0 0 0 9.243 8.322c.95.679 3.077 3.033 2.961 1.871-.051-.508-1.38-1.724-1.676-2.122-1.293-1.737-2.704-3.366-4.021-5.083-1.395-1.816-2.893-3.899-3.938-5.948-.952-1.867-.264-.847.782.279 3.085 3.325 6.128 6.762 9.523 9.775.764.678 1.61 1.303 2.332 2.024.099.099.628.486.628.475 0-.725-.444-1.376-.81-1.969a73.91 73.91 0 0 0-3.379-4.985c-1.805-2.458-3.841-4.987-5.208-7.721-1.252-2.504 1.442.98 1.871 1.522 2.92 3.689 6.229 7.932 10.025 10.779.459.344 2.92 2.688 2.123.74-1.347-3.291-3.454-6.463-5.194-9.551-1.225-2.172-2.284-4.426-3.435-6.632-.176-.336-.559-.989-.154-.321.709 1.168 1.507 2.286 2.29 3.407 2.192 3.139 4.791 5.791 7.512 8.461.417.41 2.793 2.435 1.229.838-2.128-2.172-3.928-4.796-6.228-6.786-.984-.851-1.987-1.706-2.904-2.597-1.189-1.155-2.472-2.098-3.575-3.323-2.502-2.78 3.795 6.449 5.823 9.593.819 1.268 1.954 2.621 2.513 4.021.113.282.018-.626-.097-.908-.464-1.132-1.21-2.291-1.802-3.365-1.773-3.219-3.365-5.577-3.365-9.271 0-.544.277.145.503.377a37.135 37.135 0 0 1 2.527 2.904c2.647 3.347 5.636 6.387 8.378 9.648.729.867 1.412 1.776 2.109 2.667.385.494-1.317-2.25-1.467-2.457-3.014-4.163-5.58-8.52-8.14-12.958-.22-.382-1.266-1.908-1.243-1.885.923.923 1.674 2.109 2.556 3.086 1.614 1.789 3.374 3.402 5.054 5.124 1.431 1.467 3.488 3.258 5.292 4.273.109.062.89.554.964.545.148-.019-.828-2.001-.866-2.067-1.658-2.851-3.611-5.544-5.348-8.35-.443-.715-2.033-2.639-1.368-2.122 2.375 1.847 4.004 4.528 6.018 6.73 2.13 2.328 4.557 4.329 6.898 6.423 1.287 1.152-2.05-2.784-3.016-4.217-1.351-2.001-2.364-4.094-3.575-6.143-.23-.39-1.685-2.764-.335-1.648 3.243 2.682 6.095 5.765 9.215 8.573.417.375 2.726 2.771 1.676.67-1.409-2.818-3.471-5.327-5.222-7.931-.777-1.155-1.434-1.527-.14-.614 3.196 2.256 5.807 5.398 8.937 7.805.259.2 3.13 2.311 2.234.838-1.453-2.386-3.238-4.741-4.873-7.009-1.028-1.425-1.768-3.499-3.016-4.748-.005-.004.074 2.83.139 3.351.202 1.619-.156 1.504-1.773.503-1.414-.875-2.959-1.967-4.133-3.142-.312-.312-.152-.088-.14.391.032 1.274.269 2.578.754 3.756.145.352 2.095 4.127 1.704 4.483-.571.518-2.344-.407-2.821-.629-2.22-1.033-4.449-2.01-6.479-3.393-1.616-1.101-3.387-2.27-4.775-3.658-4.358-4.358 8.245 9.17 12.12 13.963.284.351 2.245 2.849 1.257 1.257-1.168-1.882-2.389-3.856-3.38-5.837-.529-1.059-1.758-3.093.112-1.285 3.119 3.015 6.687 5.418 10.738 7.01 1.851.727 1.423-.492.782-1.997-1.174-2.753-2.889-5.239-4.091-7.973-.396-.9-1.247-2.357.251-1.159 2.991 2.393 5.707 5.127 8.838 7.345 2.323 1.645-.435-1.768-.935-2.709-1.535-2.886-2.559-5.842-3.896-8.783-.824-1.813 1.015 1.869 1.257 2.22 1.9 2.758 4.651 5.469 7.247 7.582 2.066 1.682-1.093-2.205-1.369-2.625-2.053-3.127-3.866-6.824-5.054-10.388-.272-.815-.068-.51.223.112.965 2.058 2.794 3.804 4.301 5.473a18.365 18.365 0 0 0 5.836 4.329c1.132.535-.727-4.352-.949-5.083-.403-1.328-.962-2.606-1.299-3.952-.08-.323-.265-1.296-.265-.963 0 2.973 2.238 6.139 3.993 8.35 1.031 1.298 2.143 3.01 3.533 3.965.491.338.737.565.503-.139-.642-1.925-1.924-3.661-2.611-5.599-.187-.527-.247-1.946-.643-1.55-.269.269-.212 2.077-.237 2.471-.038.596.333 3.727-.405 3.938-.908.259-3.339-5.387-3.742-6.27-.239-.522-.455-1.821-.95-2.206-.156-.122.131 2.434.182 2.681.442 2.161 1.055 5.395 2.513 7.177 1.056 1.29-1.538-1.91-1.787-2.304-.938-1.483-1.65-3.042-2.499-4.566-.121-.216-.615-1.25-.615-1.033"/><path stroke="#FFD424" stroke-linecap="round" stroke-width="2.597" d="M303.384 107.244c.059.474 1.029.87 1.383 1.145.734.571 1.154 1.437 1.885 2.011 1.44 1.131 2.238 3.008 3.644 4.133.83.664 1.928 2.441.377.447-1.378-1.772-2.416-3.99-3.575-5.921-.161-.269-1.637-2.243-.586-1.703 3.651 1.875 5.778 5.918 9.299 7.931 1.178.673-1.502-2.26-2.248-3.393-1.153-1.752-2.716-3.315-3.742-5.139-.12-.214-.822-1.045-.405-.824.477.253.903.815 1.271 1.201 1.195 1.255 2.77 2.23 4.147 3.268 1.22.92 2.396 1.88 3.588 2.834.84.672.29-.439.042-.768-1.147-1.518-2.443-3.061-3.463-4.663-.265-.418-1.051-2.056-1.424-2.304-1.444-.963 2.622 2.274 3.924 3.421 1.682 1.481 3.258 3.16 4.831 4.733.911.911.081-.15-.223-.782-.927-1.924-2.114-3.718-3.086-5.627-.257-.504-2.135-3.669-.81-1.955 2.044 2.645 4.343 4.85 6.73 7.177.825.804 1.709 1.54 2.569 2.304.061.054 1.132.82 1.145.712.067-.533-1.027-1.687-1.284-2.038-.968-1.324-2.061-2.467-2.863-3.91-.896-1.613-1.779-2.994-2.527-4.678-.227-.51-.036-.036.112.182.676.996 1.555 1.862 2.401 2.709 1.53 1.529 3.369 3.583 5.264 4.649.15.085.674.745.657.322-.032-.803-.865-1.823-1.271-2.458-.53-.829-3.24-4.217-2.876-5.124.061-.155 1.215 1.256 1.298 1.354.91 1.068 1.905 2.176 2.946 3.114.467.419 2.707 2.821 3.393 2.625.021-.006-1.829-5.458-2.178-6.242-.659-1.483 1.021.714 1.369 1.062 1.983 1.983 3.975 3.77 6.283 5.361 1.113.768.731-.745.405-1.438-.98-2.083-2.621-3.798-3.7-5.822-.88-1.651 2.211 1.574 2.513 1.843 1.691 1.503 3.616 2.718 5.362 4.147 1.395 1.141-.357-1.804-.559-2.137-.875-1.444-2.138-2.958-2.764-4.524-.705-1.762 2.748 2.624 4.217 3.826.254.209 2.88 2.564 3.211 2.151.595-.744-2.001-3.807-2.332-4.469-1.262-2.524.975.14 1.76.866.764.708 2.907 2.876 4.007 2.876.382 0-1.619-4.752-1.871-5.347-.68-1.602-.49-1.296.67-.294 1.093.945 2.509 1.524 3.547 2.458.677.61-.556-2.53-.698-2.821-.231-.473-1.093-1.61-.587-1.466.649.186 1.385 1.042 1.899 1.466.67.554 1.782 2.234 2.821 2.234.524 0-.331-3.003-.489-3.351-.344-.755.98.715 1.075.81.692.692 1.333 1.456 2.192 1.941.652.368 2.388 2.111 2.388.614 0-.523-.206-2.013-.195-1.996.512.82 2.49 2.116 3.462 2.262 2.227.334-.98-3.651 1.508-2.514.438.201 2.257.9 2.709.447.366-.366.178-1.923 1.117-1.34 2.59 1.607 4.82 2.67 7.484.893"/><path stroke="#FFD424" stroke-linecap="round" stroke-width="2.597" d="M271.224 151.175c.288 0 1.798-.175 1.854.22.077.539-.819-.73-1.288-1.006-.291-.171-1.519-1.492-.786-1.257.775.248 1.466.629 2.2.974.384.181-1.696-1.952-2.2-2.326-.409-.303-2.13-1.882-.629-1.131 1.78.89 3.467 2.19 5.092 3.331.511.359 1.077.574 1.524 1.022.417.416-.819-.848-1.257-1.242-1.38-1.242-2.78-2.844-4.353-3.819-1.093-.676-2.012-2.191-3.127-2.687-.804-.357-.968-1.052.22-.204 2.033 1.453 4.342 2.728 6.27 4.306.767.628 1.755 1.488.393.126a301.368 301.368 0 0 0-7.716-7.449c-1.19-1.108-3.083-2.304-3.63-3.945-.358-1.073 1.76 1.426 2.687 2.075 1.964 1.374 3.729 3.02 5.594 4.526 1.746 1.408 3.436 2.733 5.312 3.96 1.65 1.078-1.127-.885-1.477-1.195-2.932-2.597-5.953-5.088-8.926-7.637-1.289-1.105-3.243-2.62-4.023-4.18-.239-.478-.326-.47.125-.095 1.567 1.306 3.19 2.533 4.809 3.772 3.375 2.583 6.821 5.075 10.404 7.355 1.089.693 3.748 1.432 4.525 2.404.072.089.687.198.503.361-.392.349-1.827-.273-2.2-.361-1.393-.33-3.271-1.273-4.667-1.273-1.774 0 2.404 4.009 2.404 2.813 0-2.055-3.039-4.904-4.258-6.349-2.188-2.59-4.419-5.223-7.182-7.213-1.084-.78-2.183-1.46-3.127-2.404-.719-.719.427-.209.77-.016a172.072 172.072 0 0 1 6.443 3.834 287.201 287.201 0 0 1 11.534 7.575c.321.222 3.131 2.099 2.043 1.069-5.682-5.384-11.896-10.517-18.606-14.584-.335-.203-3.585-2.449-2.2-1.351 4.026 3.19 8.953 5.468 13.295 8.203 3.42 2.154 7.018 4.095 10.481 6.019 1.997 1.109-3.39-3.067-5.185-4.479-2.875-2.262-5.718-4.563-8.596-6.82-1.194-.936-2.411-2.245-3.741-2.97-.141-.077-.673-.62-.314-.299.932.834 2.136 1.513 3.143 2.263 3.84 2.857 8.472 3.9 12.698 5.94 1.486.718 3.093 1.162 4.526 1.98.151.087.51.38.094.22-1.261-.485-2.368-1.528-3.52-2.216-3.885-2.317-7.549-4.98-11.409-7.338-1.837-1.123-4.085-2.486-5.658-3.961-2.351-2.204 5.27 3.73 8.078 5.312 4.675 2.634 9.634 4.623 14.52 6.789 1.124.498 2.532.931 3.489 1.697.434.347 1.627.311 2.2.566 3.818 1.697-7.812-2.991-11.817-4.18-.518-.154-3.88-.908-3.395-.566 1.416.996 2.652 2.187 4.039 3.221 1.931 1.44 4.14 2.443 6.192 3.693 1.319.805 3.738 1.209 4.808 2.279.914.914-2.498-.711-3.661-1.273-1.945-.939-4.001-1.863-6.05-2.546-1.734-.577.832.095 1.398.283 2.461.821 5.043 1.415 7.638 1.415 1.035 0-1.479-1.722-1.823-1.98-4.152-3.115-7.981-6.655-12.038-9.901-1.509-1.207-3.453-3.169-5.233-3.96-.746-.331 1.005.351 1.116.409 2.333 1.214 4.503 2.753 6.836 3.991 3.923 2.083 8.484 4.416 12.823 5.5 2.617.655-1.709-1.396-2.483-1.948-3.504-2.503-6.597-5.431-10.199-7.795-.567-.372-1.13-.644-1.729-.943-.324-.162 1.431.58 1.619.676 5.27 2.694 10.631 5.135 16.186 7.182 1.244.458 4.348 1.986 1.666.251-3.78-2.446-7.639-4.91-11.613-7.04-.962-.516-2.903-.766-3.662-1.524-1.069-1.07 2.75 1.26 4.133 1.87 6.056 2.668 12.263 4.398 18.701 5.877.977.224 3.957.566 2.955.566-1.909 0-3.858-1.003-5.595-1.697a221.96 221.96 0 0 1-14.646-6.506c-.573-.279-1.847-.654-2.2-1.242-.092-.152.343.095.503.173 1.128.554 2.248 1.116 3.394 1.634 6.561 2.972 12.994 6.451 19.832 8.769.097.033 1.509.429 1.509.409 0-.178-1.313-1.047-1.32-1.053-1.224-.999-2.412-2.043-3.63-3.049-2.454-2.025-4.926-4.081-7.496-5.956-1.216-.886-2.413-2.058-3.741-2.766-3.456-1.843 6.918 3.702 10.529 5.218 2.482 1.041 5.159 2.105 7.779 2.687.086.019.531.383.173.204-1.512-.756-2.897-1.717-4.29-2.671-2.333-1.598-4.595-3.178-7.025-4.62-1.375-.817-3.516-1.568-4.635-2.688-.817-.817 2.084 1.007 3.064 1.619 4.431 2.765 9.598 4.5 14.536 6.113 1.374.449 2.77.628 4.165.959.714.169 1.062.229.22-.377-3.757-2.705-7.343-5.567-11.001-8.392-.358-.277-1.927-1.613-1.901-1.587 1.398 1.398 3.826 2.345 5.579 3.221 3.184 1.592 6.757 3.52 10.214 4.463.625.17-.274-.343-.471-.518-1.912-1.7-4.134-3.042-6.066-4.731-1.659-1.449-6.906-5.306-4.872-4.463 1.714.711 3.149 2.101 4.825 2.923 1.605.788 3.365 1.26 5.076 1.76.199.059 2.128.809 1.571.252-.95-.95-1.928-1.78-2.829-2.797-1.118-1.263-2.359-2.423-3.551-3.615-.322-.322-1.252-1.398-.22-.566 4.001 3.229 8.415 6.702 13.452 8.141.965.275.198-.194-.252-.597-1.811-1.625-3.372-3.489-5.044-5.249-.63-.663-1.286-1.302-1.933-1.949-.828-.828 1.766 1.54 2.687 2.263 1.655 1.301 3.376 2.545 5.265 3.489.987.493 2.095.605 3.08 1.053.641.291.407-.375.188-.739-1.182-1.97-2.86-3.651-4.258-5.469-.72-.935-1.665-1.939-2.216-2.986-.09-.17 2 1.271 2.216 1.431a78.253 78.253 0 0 0 5.107 3.473c.44.275 1.49 1.188 2.074 1.021.128-.036-3.87-5.206-4.353-6.05-.709-1.242.482-.257.928.094 1.73 1.364 3.551 2.529 5.405 3.709 2.596 1.652 1.161-.775.378-2.263-.294-.557-1.672-2.741-1.635-2.703 2.046 2.046 4.23 3.19 6.601 4.683.677.427.346-.109.015-.597-.832-1.226-1.669-2.44-2.436-3.709-.148-.245-1.037-1.231-1.037-1.477 0-.122.225.105.315.188a45.61 45.61 0 0 0 2.2 1.918c.839.689 6.031 4.588 4.18 1.194-.822-1.507-1.66-2.942-2.31-4.542-.075-.183-.653-1.909-.613-1.901 1.445.289 3.08 2.823 4.18 3.756.974.826 2.204 1.929 3.442 2.31.985.303-1.477-3.75-1.792-4.353-1.357-2.601.844.638 1.666 1.367.659.584 4.959 4.397 3.771 1.383-.527-1.338-1.328-2.572-2.058-3.803-.473-.798 1.046.421 1.147.503.821.663 3.696 3.988 2.939.848-.468-1.936-.567-2.549 1.131-.738 1.117 1.191 1.854 1.294 1.854-.393 0-1.54 2.084.253 2.766.691 1.019.655.912.463.912-.785 0-1.007-.184-.891.911-.566 1.052.311 1.422.307 2.137-.409.379-.378 1.435-.786.629-.786-2.858 0-6.233 2.007-8.643 3.269-4.54 2.378-8.711 5.313-13.499 7.182-1.622.633-3.245 1.279-4.809 2.027-6.234 2.982-12.865 5.021-18.874 8.455"/><path stroke="#FFD424" stroke-linecap="round" stroke-width="2.597" d="M293.853 123.453c1.955 0 3.622 1.732 5.312 2.483a26.71 26.71 0 0 0 3.127 1.179c.926.278.133-.309-.236-.833-1.963-2.79-10.17-9.046-7.354-7.119 3.766 2.577 8.274 4.445 12.446 6.27.253.111 3.043 1.148 2.938.959-.997-1.795-2.177-3.527-3.205-5.327-.567-.993.184-.365.675-.032 1.454.988 2.771 2.183 4.306 3.049.656.37 3.796 2.536 2.043.754-1.192-1.212-3.856-3.333-4.431-5.06-.353-1.057 1.895 1.178 2.781 1.854 1.293.987 2.516 2.165 3.945 2.955 1.88 1.039.079-2.603-.283-3.379-.534-1.144-1.868-4.692-1.399-3.52.782 1.956 4.329 4.204 6.16 5.029 1.528.687.574-.998.047-1.525-3.541-3.541-6.858 5.077-8.297 7.323-1.058 1.652-2.167 3.275-3.159 4.966-.413.706-.965 1.918-1.618 2.42-1.558 1.198-2.918-.093-4.181-1.194-.304-.266-4.722-4.738-4.903-4.557-.461.461 4.485 5.247 4.903 5.626 1.718 1.557 3.024 3.972 4.354 5.893.485.7-.77-.073-.959-.173-1.356-.716-2.539-1.782-3.819-2.624-.9-.593-4.733-3.425-5.909-2.955-.334.134 3.282 3.388 3.788 3.662 1.648.895 1.541 1.268-.346.22-5.287-2.938-10.53-6.017-15.746-9.083-.665-.391-5.561-3.315-2.735-1.195 3.676 2.757 7.419 6.032 11.456 8.219.371.201 3.217 2.067 2.232.959-2.843-3.199-6.59-6.305-9.995-8.879-1.218-.921-2.318-1.986-3.536-2.907-.162-.123-1.11-.847-.691-.189 1.207 1.897 2.563 3.581 4.369 4.934"/><path stroke="#171717" stroke-linecap="round" stroke-width="2.597" d="M262.058 131.527v1.497c0 .47.472.789.544.136.068-.615 1.361-2.961 1.361-1.361 0 .639.077 3.998.287 3.507.503-1.174 1.461-2.22 2.222-3.235.505-.673 1.816-2.68 1.724-1.844-.101.903-1.233 2.255-1.648 3.054-.108.207-1.617 2.751-1.497 2.751.504 0 2.728-2.938 3.114-3.401.954-1.145 2.13-2.293 3.266-3.266.752-.645-.275 1.105-.454 1.346-.631.849-1.195 1.88-1.905 2.66-.757.833.302-.18.605-.483 1.205-1.206 2.52-2.601 3.961-3.523.568-.363 1.875-1.332 2.57-1.376.136-.008-.835.835-1.089 1.089-.72.72-1.227 1.564-1.693 2.449-.611 1.161-.018.47.877-.121 1.736-1.146 3.441-2.654 5.306-3.553.871-.419 2.067-.9 2.797-1.557.524-.471-2.095 1.693-1.013 1.693 3.046 0 6.034-2.254 8.814-3.265 1.856-.675-.408.438-.998 1.028-1.479 1.479 3.114-.715 3.507-.892 1.572-.704 3.173-1.658 4.777-2.252.514-.191 1.05-.605 1.572-.605M344.114 100.984c0 2.931 1.166-11.326 2.116-8.546.946 2.767.514 11.646.605 8.73.08-2.568.98-4.939 1.681-7.33.203-.691.019-.64.019.184v3.684c0 .44.201 4.604.359 3.757.423-2.264 1.142-4.44 1.606-6.704.088-.426.669-3.156.737-2.855.524 2.297.334 4.706.775 7.017.199 1.046.39 3.323.623 1.05.192-1.872.662-3.731.662-5.617 0-2.187.714 4.317 1.02 6.483.107.759.546 5.21 1.096 2.8.514-2.257.945-4.8.945-7.11 0-.666.34-1.187.34-1.842 0-.325.282 1.345.34 1.658.375 2.012 1.324 4.16 2.305 5.967.383.705.416-3.845.416-4.623 0-1.393-.482-4.14.68-1.676.842 1.787 1.223 3.678 2.04 5.471.286.625.341-1.342.341-2.026V95.68c0-1.084 1.493 2.579 1.87 3.315.547 1.067 1.19 3.011 1.19.663 0-.615-.259-3.194.53-1.657.714 1.392 2.007 2.34 2.796 3.646.523.868.416-2.345.416-2.818 0-2.474 3.741 5.557 3.741 1.676 0-3.457 4.21 2.444 4.742.627.373-1.272.931-.711 2.06-.221.834.361 1.964-.739 2.38.073"/><path stroke="#171717" stroke-linecap="round" stroke-width="2.597" d="M341.878 102.915h5.962c.878 0 1.783.408 2.586.05 1.588-.705 3.264-.971 4.924-1.499 1.423-.453 3.057.23 4.474-.175 3.379-.966 7.168-.213 10.623-.8 1.02-.173 2.05-.268 3.037-.487.354-.079 1.436.074 1.087-.025-1.501-.43-2.948-1.045-4.462-1.438-3.062-.794-6.702-1.41-9.435-3.149-.787-.5-2.535-.51-3.449-.575-1.328-.095-3.483-.39-4.662-1.024-1.135-.612-1.758-1.197-2.636-2.075-1.082-1.082-1.119.443-1.862 1.187-.366.365-1.466 1.5-1.963.563-.198-.376-1.524-2.053-1.524-.675"/><path stroke="#171717" stroke-linecap="round" stroke-linejoin="round" stroke-width="1.558" d="M267.575 107.703c-2.345-3.598-4.55-7.803-6.575-12.695-10.289-24.864-3.815-56.145 17.631-65.02 30.096-12.455 52.963 16.024 61.594 35.606 6.663 16.762 5.349 29.503.15 38.872"/><path stroke="#171717" stroke-linecap="round" stroke-linejoin="round" stroke-width="1.558" d="m389.774 102.492-130.572 5.511-45.433 32.522 176.005-38.033Zm0 0-40.037-12.641M390.078 102.439 271.21 155.381l-9.77-23.608M334.87 54.947c.446-5.638-1.153-20.23-11.119-33.499m0 0-6.578-3.4m6.578 3.4.575-8.048M272.701 91.824c-4.854 2.902-18.64 7.946-34.953 4.904m0 0-5.966-4.387m5.966 4.387-6.957 4.086M296.033 63.554c-.929-1.773-3.128-2.451-4.915-1.515-1.787.936-2.482 3.13-1.553 4.903M315.947 53.123c-.929-1.774-3.127-2.452-4.915-1.516-1.787.936-2.482 3.13-1.553 4.904"/><path stroke="#171717" stroke-width="1.558" d="M310.368 74.773c4.681-2.451 6.845-7.76 5.388-12.53-.307-1.001-1.488-1.352-2.424-.861l-15.66 8.201c-.936.49-1.321 1.66-.673 2.484 3.091 3.913 8.688 5.158 13.369 2.706Z"/><path stroke="#171717" stroke-linecap="round" stroke-linejoin="round" stroke-width="1.558" d="M236.177 80.043c-2.918-23.56 12.013-25.18 19.84-23.055l1.817.482M256.263 71.37c8.744-3.886 25.738-17.667 23.765-41.701"/><path stroke="#171717" stroke-linecap="round" stroke-linejoin="round" stroke-width="1.558" d="M321.058 38.413c-5.456 4.035-21.389 10.223-41.478 2.69"/><path stroke="#171717" stroke-linecap="round" stroke-width="1.039" d="M310.03 56.484c-.079-.152-.245-.345-.231-.525.014-.222-.05-.426-.079-.647-.075-.392-.203-.884.074-1.266.185-.27.333-.691.622-.885.39-.248.693-.622 1.119-.845.323-.17.69-.34 1.067-.322.447.024.733.197 1.138.308.56.159.798.53 1.13.915.105.117.166.193.296.276.104.074.459.297.434.332M296.535 63.724c-.301-.574-.618-1.14-1.021-1.618-.157-.176-.432-.204-.589-.38-.114-.134-.417-.299-.573-.39-.181-.098-.313-.266-.528-.304a5.547 5.547 0 0 0-.841-.032c-.437.035-.925.097-1.353.191-.479.122-.897.233-1.34.465-.493.259-.505 1.148-.626 1.62-.098.352-.066.745-.189 1.09-.099.266-.284.492-.366.75-.106.336-.104.507-.055.847.066.417.03.845.037 1.272M296.056 70.431c.425-.222.702-.647 1.066-.945.263-.203.526-.405.797-.59 1.281-.95 2.816-1.54 4.239-2.22 1.167-.547 2.28-1.195 3.483-1.674.921-.353 1.843-.663 2.728-1.127a5.301 5.301 0 0 0 1.018-.706c.373-.324.832-.565 1.24-.821.578-.346 1.192-.624 1.788-.936.459-.241.97-.466 1.483-.605.428-.095.784-.367 1.239-.326M315.146 60.499c.583-.004.851.63 1.157 1.008.245.303.44.717.549 1.09.1.357-.032.684.042 1.033.14.723.1 1.433 0 2.153-.046.368-.108.788-.222 1.15-.131.412-.305.783-.367 1.203-.139.977-.771 1.717-1.1 2.621-.157.405-.485.857-.728 1.22a8.18 8.18 0 0 1-.952 1.08c-.237.211-.585.458-.717.785-.132.328-.678.57-.932.79-.338.306-.747.477-1.156.691-.289.152-1.103.75-.814.599"/><path stroke="#171717" stroke-linecap="round" stroke-width="1.039" d="M309.932 75.887c-.749.392-1.552.64-2.301 1.033-.374.196-1.05.313-1.446.22-.302-.08-.61-.005-.912-.126a5.7 5.7 0 0 0-1.232-.323c-.395-.052-.758-.163-1.153-.214-.206-.022-.329-.173-.511-.271a8.866 8.866 0 0 0-.761-.377c-.397-.179-.846-.331-1.252-.485-.267-.096-.442-.306-.676-.463-.165-.108-.338-.19-.503-.297-.338-.232-.618-.559-.997-.704a2.101 2.101 0 0 1-.573-.39c-.139-.141-.212-.362-.359-.478-.183-.141-.291-.472-.38-.684-.116-.262-.163-.517-.295-.77l-.257-.49c-.079-.153-.235-.243-.315-.395M272.698 91.967c-1.148 0-2.223.305-3.257.822-.702.35-1.34.823-2.035 1.183-.625.324-1.283.425-1.9.709-1.73.795-3.202 1.946-5.157 2.164-.917.102-1.9.258-2.82.279-.942.021-1.839.23-2.774.271-1.109.048-2.186.271-3.302.271h-4.207c-1.894 0-4.051.26-5.903-.203-1.047-.262-2.163-.143-3.22-.445-.71-.203-1.036.308-1.658.377-.354.04-1.398.644-1.689.882-.447.366-1.033.594-1.5.958-.384.298-.81.545-1.184.844-.105.084-1.068.437-.92.437M231.579 92.237c.731.082 1.56 1.169 2.171 1.561.551.354 1.188.518 1.659.988.625.625 1.08 1.807 1.869 2.201M319.381 37.005c.272.06.617.448.845.603.865.588 1.715 1.182 2.472 1.907 1.504 1.44 3.052 2.811 4.471 4.335.727.78 1.321 1.703 2.013 2.518.831.979 1.682 1.774 2.413 2.85.575.847 1.148 1.664 1.628 2.571.538 1.016 1.362 1.883 1.832 2.933.915 2.04 1.831 4.015 2.91 5.971 1.711 3.1 2.108 6.784 3.054 10.163.438 1.565 1.515 2.967 1.809 4.554.164.883.137 3.31 1.116 3.8"/><path stroke="#171717" stroke-linecap="round" stroke-width="1.039" d="M343.808 78.26c0 2.332-.284 4.9.106 7.193.463 2.727.708 5.375.708 8.143 0 1.027-.371 1.947-.573 2.955-.239 1.196-.489 2.594-.987 3.702-.531 1.18-.815 3.283-2.104 3.928M316.939 18.82c1.674 0 3.189.7 4.583 1.63.465.309.895.625 1.388.844.359.16.542.608.542-.03 0-.71.387-1.33.408-2.036.022-.794.366-1.627.512-2.413.187-1.003.166-1.99.166-3.016"/><path stroke="#171717" stroke-linecap="round" stroke-width="1.039" d="M323.453 21.398c1.657 2.071 2.822 4.502 4.373 6.65 1.56 2.16 1.917 4.759 2.955 7.162.613 1.42 1.407 2.845 2.103 4.237.513 1.025.677 2.198.988 3.287.352 1.233.166 2.778.166 4.049 0 .683-.268 2.708.543 3.114M334.716 49.899v5.157M389.262 102.355c-.895 0-2.113.208-2.952-.092-1.123-.401-2.145-.902-3.229-1.384-.819-.364-1.503-.791-2.306-1.148-1.149-.51-2.29-.652-3.506-.922-2.882-.64-5.792-.928-8.487-2.276-2.053-1.026-4.318-1.995-6.55-2.49-.989-.22-2.319-.468-3.229-.872-.994-.442-2.152-.22-3.136-.635-.865-.364-1.687-.527-2.491-.974-.621-.345-2.287-.622-2.675-1.107-.121-.15-.971-.41-1.189-.472-.716-.204-1.533-.54-2.276-.769-.897-.275-2.726-.697-2.726-.697s2.008-.102 2.87.329c.427.213.926.298 1.383.4.375.083.622.432 1.015.563M258.818 107.889c-1.473 1.473-3.083 2.712-4.623 4.059-.917.803-2.178 1.36-3.218 1.937-.465.259-.927.535-1.384.79-.478.265-.861.925-1.332 1.107-1.171.45-2.141 1.511-3.281 2.111-1.175.619-1.996 2.164-3.321 2.542-.968.277-2.329 1.222-3.044 1.937-.843.844-2.167 1.294-3.044 2.122-1.747 1.65-3.918 2.843-5.73 4.428-2.014 1.763-4.088 3.208-6.447 4.388-1.955.977-3.55 2.587-5.443 3.638-1.563.869-2.375 3.191-4.152 3.783M258.449 108.258c5.061 0 10.113.123 15.139-.38 2.261-.226 4.536-.174 6.817-.174 2.688 0 5.285-.369 7.974-.369 4.878 0 9.776-.184 14.627-.184.718 0 1.44-.254 2.04-.636.559-.355 1.138-.287 1.784-.287 1.571 0 3.012-.369 4.571-.369M311.401 105.86h8.631c1.614 0 3.213-.339 4.838-.369 1.079-.02 2.132-.329 3.178-.554 1.414-.304 2.882-.294 4.305-.553 3.323-.604 6.68-.554 10.045-.554 1.988 0 3.927-.184 5.904-.184M348.486 103.646H361.032c1.015 0 1.984-.324 2.993-.369 1.84-.081 3.578-.553 5.453-.553 1.212 0 2.127.104 3.27.359 1.413.314 3.27.01 4.715.01h3.311c2.042 0 4.31.306 6.273-.185"/><path stroke="#171717" stroke-linecap="round" stroke-width="1.039" d="M388.893 102.538c-.125.503-3.359.149-3.874.226-1.543.228-2.799.888-4.254 1.343-1.76.55-3.474 1.207-5.248 1.752-2.345.722-4.733 1.279-7.104 1.938-2.003.556-4.231.528-6.273.82a26.654 26.654 0 0 0-4.838 1.158c-1.739.602-3.543.761-5.268 1.291-1.763.543-3.856.527-5.576 1.292-.568.252-1.501.328-2.122.328-.776 0-1.503.369-2.307.369M341.845 113.056c-1.256 0-2.47-.062-3.69.277-1.384.385-2.679 1.031-4.06 1.425-3.071.878-6.174 1.5-9.214 2.45-3.247 1.014-6.619.955-9.964 1.373-1.324.166-2.646.342-3.884.892-.642.285-2.68.419-2.953.964M214.722 140.547c1.476 0 2.963-.184 4.388-.184 1.106 0 3.407-.765 4.243-1.517.369-.333 1.163-.328 1.661-.328 1.141 0 2.199-.468 3.321-.697a80.166 80.166 0 0 0 6.642-1.661c1.222-.362 2.644-.133 3.915-.451 2.044-.511 3.898-1.906 6.048-1.989 1.856-.071 3.97-.753 5.761-1.25 2.123-.59 4.44-1.702 6.642-1.702M257.71 130.768c1.644 0 3.299.059 4.941 0 .923-.033 1.864-.623 2.808-.728 1.264-.14 2.375-.698 3.598-1.015 3.543-.918 7.162-2.282 10.794-2.685"/><path stroke="#171717" stroke-linecap="round" stroke-width="1.039" d="M280.036 126.341h3.239c1.258 0 2.375-.98 3.588-1.107 1.262-.133 2.512-.868 3.772-1.097 1.3-.236 2.54-.782 3.833-1.076 2.083-.474 3.927-1.641 6.048-1.876 1.273-.142 2.631-.01 3.915-.01 2.725 0 5.911-1.079 8.447-2.03M272.656 154.753c1.302 0 2.642-.71 3.69-1.383 1.453-.934 3.073-1.763 4.612-2.532a90.866 90.866 0 0 1 3.783-1.804c1.279-.569 2.822-.959 4.007-1.661 1.224-.725 2.837-1.69 4.193-2.029.616-.154 1.189-.666 1.814-.882.785-.272 1.689-.455 2.44-.779 1.269-.549 2.555-.886 3.782-1.568 1.395-.775 3.189-.866 4.52-1.753"/><path stroke="#171717" stroke-linecap="round" stroke-width="1.039" d="M304.943 140.731c.906-.101 1.753-1.102 2.583-1.517.496-.248 1.314-.726 1.661-1.159.27-.338 1.075-.415 1.476-.604.814-.386 1.668-.687 2.48-1.056 3.049-1.386 5.764-3.31 9.143-3.793 1.414-.202 3.205-1.114 4.428-1.794 1.039-.576 2.306-1.383 3.506-1.517 1.388-.154 2.661-1.311 3.875-1.886 1.201-.569 2.749-1.804 4.059-1.804M338.155 125.602c1.441 0 2.282-.153 3.597-.738 1.193-.529 2.236-1.421 3.24-2.224 2.913-2.33 6.509-3.157 9.768-4.787 2.187-1.094 4.256-2.188 6.54-3.054 1.962-.745 3.734-2.051 5.73-2.665 2.254-.694 4.153-2.283 6.549-2.727 1.413-.262 3.143-.783 4.336-1.609.641-.444.646-.846.646-1.569"/><path stroke="#171717" stroke-linecap="round" stroke-width="1.039" d="M386.863 104.199c-1.545 0-2.986-.087-4.428.595-2.175 1.028-4.319 2.047-6.457 3.136-5.39 2.746-11.464 2.84-17.2 4.346-2.235.587-4.548.677-6.827.964-2.926.368-5.889.993-8.815 1.25-3.998.352-8.095.74-12.034 1.518-1.781.351-3.684.393-5.494.594-1.725.192-3.446.502-5.166.738-1.834.251-3.684.882-5.535.882M255.779 71.658c0 1.97-.222 4.033.371 5.931.428 1.368.792 3.295.868 4.721.169 3.215 2.262 6.273 2.711 9.414.248 1.74 1.341 3.281 1.94 4.9.542 1.461.906 3.023 1.666 4.391.683 1.229 1.359 2.347 2.05 3.592.557 1.002 1.919 1.628 2.285 2.725M279.823 29.537c.857 2.541.187 5.453.076 8.102-.046 1.099-.42 2.123-.572 3.198a198.32 198.32 0 0 1-.454 3.007c-.391 2.485-1.542 4.594-2.367 6.936-.384 1.092-.682 2.107-1.203 3.15-.67 1.342-1.238 2.84-2.104 4.071-1.219 1.732-2.571 3.308-4.177 4.644-1.393 1.16-3.051 1.91-4.481 2.987-1.247.939-2.37 2.064-3.633 2.97a9.386 9.386 0 0 1-1.998 1.102c-.767.306-1.339.983-2.119 1.285-.577.224-1.022.63-1.618.832-.404.136-.89.617-.838.068.163-1.705.195-4.4.731-6.014 1.495-4.492 1.613-8.793 3.25-13.246.512-1.392 1.376-2.35 1.831-3.76.623-1.934 1.663-3.706 2.673-5.461.896-1.558 2.022-3.05 3.116-4.477 1.188-1.548 2.474-3.17 3.958-4.443 1.885-1.618 3.862-3.333 6.254-4.14 1.009-.34 2.014-.77 3.082-.865.236-.02 1.744-.192 1.281-.035"/><path stroke="#171717" stroke-linecap="round" stroke-width="1.039" d="M280.849 28.882c1.963-.663 4.071-1.675 6.14-1.9.97-.106 2.009-.463 2.994-.34 1.043.13 2.158.317 3.213.31 1.608-.01 3.251.042 4.839.198 1.045.104 2.179.468 3.206.71.888.21 1.693.804 2.577 1.055 1.286.365 2.473.939 3.739 1.333.853.266 1.601.94 2.431 1.252.505.19 1.287.443 1.679.789.247.218.911.361 1.254.574.612.38 1.02 1.095 1.71 1.417 1.503.703 3.065.71 4.34 1.862.577.522.754 1.607.998 2.328.289.858-1.736 1.076-2.389 1.296l-3.678 1.241c-1.902.642-3.872 1.531-5.838 1.962-1.881.411-3.748.66-5.674.769-2.222.125-4.449-.007-6.665.113-2.279.124-4.336-.013-6.571-.494-2.181-.468-4.348-1.095-6.512-1.62-.763-.185-1.525-.223-2.243-.576-.283-.139-.655-.419-.931-.456M256.407 57.58c-.323.075-.745-.033-1.068-.072-.531-.065-1.029.048-1.556.043-.738-.007-1.604.148-2.319-.06-1.244-.363-2.689-.535-3.959-.158-2.539.754-5.938 1.484-7.243 4.093-.417.834-.831 1.598-1.35 2.381-.623.94-.899 1.941-1.382 2.934-.391.805-1.031 1.643-1.257 2.513-.184.709-.546 1.669-.335 2.406.241.837.113 1.915.133 2.784.015.689.079 1.445-.003 2.132-.115.967-.144 2.484.168 3.41"/><path fill="#fff" fill-rule="evenodd" d="M125.006 163.27c44.547-.377 92.621-7.361 135.462-22.372 4.602-1.612 2.73 2.595 4.346 7.185 1.614 4.584 6.122 7.86 1.495 9.481-44.976 15.759-95.02 22.975-141.154 23.365-45.947.388-88.726-5.991-119.159-17.991-4.644-1.832-6.728-7.035-4.96-11.478 1.775-4.456 6.85-6.76 11.441-4.95 27.627 10.893 67.958 17.136 112.529 16.76Zm-108.648-5.377c28.564 9.773 67.094 15.078 108.727 14.726 42.867-.362 89.061-6.722 131.105-20.407a348.206 348.206 0 0 0 7.369-2.49h.002a.52.52 0 0 0-.344-.982l-.002.001c-2.437.854-4.89 1.682-7.358 2.485-41.923 13.645-88.005 19.992-130.781 20.353-41.55.351-79.946-4.945-108.36-14.662a168.636 168.636 0 0 1-7.287-2.676l-.003-.001a.517.517 0 0 0-.669.294.515.515 0 0 0 .288.673l.003.001a168.9 168.9 0 0 0 7.31 2.685Zm244.455-16.014-.002.001.002-.001Z" clip-rule="evenodd"/><path fill="#171717" fill-rule="evenodd" d="M125.076 171.579c45.294-.382 94.294-7.476 138.139-22.838a.52.52 0 0 1 .346.981c-43.972 15.406-93.088 22.514-138.476 22.897-45.3.383-86.928-5.932-116.04-17.412a.515.515 0 0 1-.288-.673.517.517 0 0 1 .672-.293c28.947 11.413 70.429 17.72 115.647 17.338Z" clip-rule="evenodd"/><path stroke="#171717" stroke-linecap="round" stroke-width="1.04" d="M9.115 154.791c3.395 0 6.149 1.532 9.232 2.82 3.6 1.503 7.342 2.954 11.118 3.951 8.568 2.263 17.507 3.496 26.222 5.029 3.828.673 7.517 1.73 11.315 2.514 4.984 1.03 10.04 1.498 14.962 2.82 3.552.954 7.083 1.224 10.74 1.329 7.695.222 15.399.126 23.097.126M115.963 173.38c10.253 0 20.417-.152 30.569-1.787 2.867-.462 5.695-1.135 8.567-1.59 3.262-.516 6.568-.692 9.86-.916 3.843-.261 7.789-.128 11.639-.062 3.03.051 5.969.345 8.971-.27 1.644-.337 3.214-.927 4.877-1.185 1.915-.298 3.833-.417 5.765-.53 3.561-.208 7.153-.487 10.588-1.5.99-.292 2.009-.624 3.044-.718.261-.024.407.058.521-.171"/><path stroke="#171717" stroke-linecap="round" stroke-width="1.04" d="M209.232 164.813c2.437 0 4.864.104 7.256-.449 3.223-.746 6.506-2.302 9.528-3.61 5.46-2.364 11.258-3.571 17.117-4.419 5.399-.781 10.335-2.936 15.455-4.669 1.681-.569 3.561-1.108 5.119-1.886"/></g><defs><clipPath id="a"><path fill="#fff" d="M9 1h400v195H9z"/></clipPath><filter id="b" width="416.619" height="211.619" x=".691" y="-3.155" color-interpolation-filters="sRGB" filterUnits="userSpaceOnUse"><feFlood flood-opacity="0" result="BackgroundImageFix"/><feColorMatrix in="SourceAlpha" result="hardAlpha" values="0 0 0 0 0 0 0 0 0 0 0 0 0 0 0 0 0 0 127 0"/><feOffset dy="2.077"/><feGaussianBlur stdDeviation="1.039"/><feComposite in2="hardAlpha" operator="out"/><feColorMatrix values="0 0 0 0 0 0 0 0 0 0 0 0 0 0 0 0 0 0 0.02 0"/><feBlend in2="BackgroundImageFix" result="effect1_dropShadow_1187_99"/><feColorMatrix in="SourceAlpha" result="hardAlpha" values="0 0 0 0 0 0 0 0 0 0 0 0 0 0 0 0 0 0 127 0"/><feOffset dy="4.155"/><feGaussianBlur stdDeviation="4.155"/><feComposite in2="hardAlpha" operator="out"/><feColorMatrix values="0 0 0 0 0 0 0 0 0 0 0 0 0 0 0 0 0 0 0.06 0"/><feBlend in2="effect1_dropShadow_1187_99" result="effect2_dropShadow_1187_99"/><feBlend in="SourceGraphic" in2="effect2_dropShadow_1187_99" result="shape"/></filter></defs></svg>