<svg xmlns="http://www.w3.org/2000/svg" width="209" height="187" fill="none"><g filter="url(#a)"><mask id="b" width="193" height="159" x="7.649" y="3.895" fill="#000" maskUnits="userSpaceOnUse"><path fill="#fff" d="M7.649 3.895h193v159h-193z"/><path fill-rule="evenodd" d="M126.669 12.896a.445.445 0 0 1 .413.476l-.559 7.84c9.899 13.264 11.499 27.814 11.049 33.497a.447.447 0 0 1-.277.378.448.448 0 0 1-.17.11 82.535 82.535 0 0 1 5.329 10.069c3.4 8.554 4.712 16.056 4.485 22.592l4.977 1.539 39.831 12.576-26.693 5.768 26.995-5.82L73.793 154.59l-9.72-23.487-.696-1.391-46.728 10.098 45.199-32.355 8.295-.35c-2.08-3.199-4.05-6.88-5.88-11.099-6.393 1.548-14.645 2.357-23.676.701l-6.778 3.982a.447.447 0 0 1-.452-.77l6.338-3.722-5.39-3.963a.446.446 0 0 1 .529-.719l5.852 4.303c8.854 1.634 16.946.857 23.221-.644l-.27-.645a62.99 62.99 0 0 1-4.124-15.16l-20.423.693a.446.446 0 0 1-.27.01l-.134.004v-.068a.445.445 0 0 1-.188-.312c-1.462-11.806 1.534-18.268 6.045-21.469 4.474-3.176 10.29-3.029 14.253-1.953a.446.446 0 0 1 .277.64c.426.112.84.234 1.242.363 2.847-12.443 9.883-22.89 20.862-27.434 24.586-10.174 44.322 7.11 55.35 24.403v-4.599c0-.075.019-.147.052-.21-.645-6.965-3.317-17.727-10.809-27.74l-6.453-3.335a.446.446 0 1 1 .409-.793l5.943 3.07.523-7.33a.446.446 0 0 1 .477-.413Z" clip-rule="evenodd"/></mask><path fill="#fff" fill-rule="evenodd" d="M126.669 12.896a.445.445 0 0 1 .413.476l-.559 7.84c9.899 13.264 11.499 27.814 11.049 33.497a.447.447 0 0 1-.277.378.448.448 0 0 1-.17.11 82.535 82.535 0 0 1 5.329 10.069c3.4 8.554 4.712 16.056 4.485 22.592l4.977 1.539 39.831 12.576-26.693 5.768 26.995-5.82L73.793 154.59l-9.72-23.487-.696-1.391-46.728 10.098 45.199-32.355 8.295-.35c-2.08-3.199-4.05-6.88-5.88-11.099-6.393 1.548-14.645 2.357-23.676.701l-6.778 3.982a.447.447 0 0 1-.452-.77l6.338-3.722-5.39-3.963a.446.446 0 0 1 .529-.719l5.852 4.303c8.854 1.634 16.946.857 23.221-.644l-.27-.645a62.99 62.99 0 0 1-4.124-15.16l-20.423.693a.446.446 0 0 1-.27.01l-.134.004v-.068a.445.445 0 0 1-.188-.312c-1.462-11.806 1.534-18.268 6.045-21.469 4.474-3.176 10.29-3.029 14.253-1.953a.446.446 0 0 1 .277.64c.426.112.84.234 1.242.363 2.847-12.443 9.883-22.89 20.862-27.434 24.586-10.174 44.322 7.11 55.35 24.403v-4.599c0-.075.019-.147.052-.21-.645-6.965-3.317-17.727-10.809-27.74l-6.453-3.335a.446.446 0 1 1 .409-.793l5.943 3.07.523-7.33a.446.446 0 0 1 .477-.413Z" clip-rule="evenodd"/><path fill="#fff" d="m127.082 13.372 8.246.59v-.001l-8.246-.589Zm-.413-.476.589-8.246-.589 8.246Zm-.146 8.317-8.246-.589a8.268 8.268 0 0 0 1.621 5.533l6.625-4.944Zm11.049 33.496-8.241-.653 8.241.653Zm-.277.378-3.109-7.66a8.278 8.278 0 0 0-2.851 1.93l5.96 5.73Zm-.17.11-2.81-7.774a8.266 8.266 0 0 0-4.218 12.128l7.028-4.354Zm5.329 10.069 7.682-3.054a9.235 9.235 0 0 0-.118-.28l-7.564 3.334Zm4.485 22.592-8.261-.287a8.266 8.266 0 0 0 5.819 8.184l2.442-7.897Zm4.977 1.539 2.489-7.883a2.059 2.059 0 0 0-.047-.015l-2.442 7.898Zm39.831 12.576 1.746 8.08a8.268 8.268 0 0 0 .743-15.963l-2.489 7.883Zm-26.693 5.768-1.746-8.08a8.266 8.266 0 0 0 3.488 16.161l-1.742-8.081Zm26.995-5.82 3.363 7.551a8.266 8.266 0 0 0-5.106-15.632l1.743 8.081ZM73.793 154.59l-7.638 3.161a8.268 8.268 0 0 0 11.001 4.391l-3.363-7.552Zm-9.72-23.487 7.64-3.161a8.458 8.458 0 0 0-.248-.542l-7.391 3.703Zm-.696-1.391 7.391-3.702a8.266 8.266 0 0 0-9.137-4.378l1.746 8.08ZM16.649 139.81l-4.812-6.722a8.266 8.266 0 0 0 6.558 14.802l-1.746-8.08Zm45.199-32.355-.349-8.259a8.27 8.27 0 0 0-4.463 1.537l4.812 6.722Zm8.295-.35.349 8.26a8.267 8.267 0 0 0 6.581-12.767l-6.93 4.507Zm-5.88-11.099 7.584-3.29a8.267 8.267 0 0 0-9.53-4.744l1.946 8.034Zm-23.676.701 1.49-8.13a8.267 8.267 0 0 0-5.677 1.002l4.187 7.128Zm-6.778 3.982-4.187-7.128 4.187 7.128Zm-.61-.159 7.128-4.187-7.128 4.187Zm.158-.61 4.188 7.127-4.188-7.128Zm6.338-3.723 4.187 7.128a8.269 8.269 0 0 0 .71-13.788l-4.897 6.66Zm-5.39-3.963-4.897 6.66 4.897-6.66Zm-.095-.624 6.66 4.898-6.66-4.898Zm.624-.095 4.897-6.66-4.897 6.66Zm5.852 4.303-4.897 6.66a8.26 8.26 0 0 0 3.397 1.47l1.5-8.13Zm23.221-.644 1.923 8.04a8.265 8.265 0 0 0 5.692-11.256l-7.615 3.216Zm-.27-.645 7.639-3.16-7.639 3.16Zm-4.124-15.16 8.184-1.168a8.267 8.267 0 0 0-8.465-7.095l.281 8.262Zm-20.423.693-.281-8.262a8.269 8.269 0 0 0-2.468.466l2.748 7.796Zm-.095.022L37.98 71.88l1.017 8.204Zm-.174-.013 2.226-7.96a8.263 8.263 0 0 0-2.507-.302l.28 8.262Zm-.135.005H30.42a8.267 8.267 0 0 0 8.548 8.262l-.28-8.262Zm0-.068h8.267a8.267 8.267 0 0 0-3.546-6.786l-4.72 6.786Zm-.188-.312 8.204-1.016-8.204 1.016Zm6.045-21.469-4.785-6.742 4.785 6.742Zm14.253-1.953 2.166-7.977-2.166 7.977Zm.313.548-7.977-2.167v.001l7.977 2.166Zm-.036.091-7.31-3.859a8.266 8.266 0 0 0 5.196 11.851l2.114-7.992Zm1.242.364-2.526 7.871a8.267 8.267 0 0 0 10.584-6.027l-8.058-1.844Zm20.862-27.434-3.161-7.638 3.161 7.639Zm55.35 24.403-6.97 4.445a8.266 8.266 0 0 0 15.237-4.445h-8.267Zm.052-4.808 7.292 3.893a8.269 8.269 0 0 0 .94-4.656l-8.232.763ZM125.77 21.696l6.619-4.952a8.261 8.261 0 0 0-2.824-2.392l-3.795 7.344Zm-6.453-3.334 3.795-7.344-3.795 7.344Zm-.192-.601 7.344 3.795-7.344-3.795Zm.601-.192 3.795-7.344-3.795 7.344Zm5.943 3.07-3.795 7.345a8.267 8.267 0 0 0 12.041-6.755l-8.246-.59Zm.523-7.33-8.245-.589 8.245.589Zm9.136.652a8.712 8.712 0 0 0-8.07-9.311l-1.178 16.491a7.82 7.82 0 0 1-7.243-8.357l16.491 1.177Zm-.56 7.84.56-7.84-16.491-1.177-.56 7.84 16.491 1.178Zm11.045 33.56c.585-7.396-1.405-24.005-12.666-39.093l-13.249 9.89c8.538 11.439 9.747 23.93 9.433 27.898l16.482 1.305Zm-5.41 7.386a8.713 8.713 0 0 0 5.41-7.386l-16.482-1.305a7.82 7.82 0 0 1 4.855-6.63l6.217 15.321Zm-.469.225a8.72 8.72 0 0 0 3.32-2.156l-11.919-11.458a7.827 7.827 0 0 1 2.98-1.935l5.619 15.55Zm10.084-1.04a90.681 90.681 0 0 0-5.866-11.088l-14.055 8.707a74.251 74.251 0 0 1 4.792 9.05l15.129-6.67Zm5.183 26.212c.273-7.876-1.323-16.518-5.065-25.932l-15.364 6.107c3.058 7.695 4.086 14.056 3.906 19.252l16.523.573Zm-.843-6.645-4.976-1.539-4.885 15.795 4.977 1.54 4.884-15.796Zm39.878 12.591-39.831-12.576-4.978 15.766 39.831 12.576 4.978-15.766ZM166.8 115.821l26.693-5.768-3.492-16.16-26.693 5.768 3.492 16.16Zm23.506-21.981-26.995 5.82 3.485 16.162 26.995-5.82-3.485-16.162Zm-113.15 68.302 118.256-52.67-6.727-15.103L70.43 147.04l6.726 15.103Zm-20.72-27.878 9.719 23.487 15.277-6.322-9.72-23.487-15.277 6.322Zm-.45-.849.697 1.391 14.782-7.406-.697-1.39-14.782 7.405Zm-37.59 14.475 46.727-10.097-3.492-16.161-46.728 10.098 3.492 16.16Zm38.64-47.157-45.199 32.355 9.624 13.444 45.199-32.355-9.624-13.444Zm12.758-1.887-8.295.35.697 16.519 8.296-.35-.698-16.519Zm-13.115.45c1.992 4.592 4.174 8.688 6.534 12.316l13.86-9.014c-1.801-2.77-3.558-6.037-5.226-9.881l-15.168 6.579Zm-17.583 5.542c10.373 1.902 19.812.97 27.112-.797l-3.89-16.07c-5.487 1.33-12.552 2.015-20.24.605l-2.982 16.262Zm-1.1 2.978 6.778-3.981L36.4 89.579l-6.778 3.982 8.374 14.255Zm-11.925-3.099a8.712 8.712 0 0 0 11.925 3.099l-8.374-14.255a7.82 7.82 0 0 1 10.705 2.782l-14.256 8.374Zm3.1-11.926a8.713 8.713 0 0 0-3.1 11.926l14.256-8.374a7.82 7.82 0 0 1-2.782 10.704L29.17 92.791Zm6.337-3.722L29.17 92.79l8.374 14.256 6.338-3.722-8.374-14.256Zm-6.1 9.825 5.39 3.963 9.794-13.32-5.39-3.963-9.794 13.32Zm-1.858-12.18a8.713 8.713 0 0 0 1.858 12.18l9.794-13.32a7.82 7.82 0 0 1 1.668 10.934l-13.32-9.795Zm12.18-1.859a8.713 8.713 0 0 0-12.18 1.858l13.32 9.794a7.82 7.82 0 0 1-10.933 1.668l9.794-13.32Zm5.853 4.303-5.852-4.303-9.794 13.32 5.852 4.303 9.794-13.32Zm16.4-2.023c-5.371 1.285-12.28 1.94-19.797.554l-3 16.259c10.191 1.88 19.467.983 26.644-.734l-3.846-16.08ZM56 97.69c.097.235.195.469.293.7l15.23-6.432a86.163 86.163 0 0 1-.246-.59L55.999 97.69Zm-4.67-17.155A71.26 71.26 0 0 0 56 97.69l15.277-6.322a54.731 54.731 0 0 1-3.58-13.167L51.33 80.535Zm7.903-9.429L38.81 71.8l.561 16.524 20.424-.694-.562-16.524Zm-22.891 1.16a7.822 7.822 0 0 1 1.638-.386l2.033 16.408a8.72 8.72 0 0 0 1.826-.43l-5.497-15.592Zm1.638-.386a7.82 7.82 0 0 1 3.068.23l-4.453 15.922c1.091.306 2.252.4 3.418.256L37.98 71.88Zm.56-.07-.134.004.562 16.524.135-.005-.562-16.524Zm8.414 8.266v-.068H30.419v.068h16.534Zm-3.546-6.854a7.822 7.822 0 0 1 3.295 5.458l-16.408 2.032a8.711 8.711 0 0 0 3.671 6.082l9.442-13.572Zm3.295 5.458c-1.263-10.198 1.57-12.963 2.625-13.712l-9.569-13.483c-7.966 5.654-11.126 15.813-9.464 29.228l16.408-2.033Zm2.625-13.712c.79-.56 1.876-.952 3.275-1.078 1.419-.128 2.876.05 4.028.362l4.332-15.955c-5.241-1.424-13.935-1.97-21.204 3.188l9.569 13.484Zm7.303-.716a7.82 7.82 0 0 1-5.498-9.597l15.955 4.333a8.713 8.713 0 0 0-6.125-10.691l-4.333 15.955Zm-5.499-9.596c.152-.56.365-1.096.632-1.602l14.62 7.719a8.714 8.714 0 0 0 .704-1.786l-15.956-4.331Zm5.828 10.25c.286.075.564.156.83.242l5.051-15.743a33.235 33.235 0 0 0-1.652-.483l-4.23 15.983Zm21.057-42.701C63.845 28.07 55.504 41.24 52.256 55.432l16.117 3.689c2.447-10.693 8.177-18.416 15.965-21.64l-6.322-15.276Zm65.481 27.597c-5.957-9.342-14.557-19.183-25.548-25.285-11.298-6.273-25.02-8.483-39.933-2.312l6.322 15.277c9.673-4.003 18.112-2.66 25.586 1.49 7.78 4.32 14.562 11.767 19.633 19.72l13.94-8.89Zm-15.237-.154v4.598h16.534v-4.599H128.26Zm1.027-4.104a8.715 8.715 0 0 0-1.027 4.104h16.534a7.818 7.818 0 0 1-.923 3.683l-14.584-7.787Zm-10.136-18.895c6.38 8.527 8.658 17.737 9.197 23.552l16.463-1.526c-.753-8.117-3.818-20.431-12.422-31.93l-13.238 9.903Zm-3.629-.943 6.453 3.335 7.59-14.689-6.453-3.334-7.59 14.688Zm-3.741-11.74a8.713 8.713 0 0 0 3.741 11.74l7.59-14.688a7.82 7.82 0 0 1 3.357 10.538l-14.688-7.59Zm11.74-3.741a8.713 8.713 0 0 0-11.74 3.74l14.688 7.59a7.82 7.82 0 0 1-10.538 3.358l7.59-14.688Zm5.943 3.07-5.943-3.07-7.59 14.688 5.943 3.071 7.59-14.688Zm-11.517-.575-.524 7.331 16.492 1.178.523-7.331-16.491-1.178Zm9.311-8.07a8.712 8.712 0 0 0-9.311 8.07l16.491 1.178a7.82 7.82 0 0 1-8.358 7.243l1.178-16.491Z" mask="url(#b)"/><path stroke="#171717" stroke-linecap="round" stroke-width="2.583" d="m119.613 35.67 1.623 4.058c.251.627-.538-.54-.591-.612-.983-1.313-1.901-2.604-2.674-4.055-.739-1.389-1.473-2.749-2.612-3.858-.666-.648-.112.274.071.73.677 1.692 1.348 3.338 1.728 5.126.239 1.125.421 2.395.851 3.47.085.214.216.445.263.672.084.412-.906-1.212-.918-1.234-1.949-3.722-3.403-7.7-4.962-11.596-.161-.402.465 1.17.201.831-.124-.158-.086-.022-.047.09.143.415-.552-1.087-.5-.652.463 3.856.305 7.968 1.58 11.684.05.145.191.721.183.71-.238-.348-.355-.873-.51-1.26-.642-1.604-1.213-3.199-1.629-4.879-.272-1.095-.528-2.193-.802-3.287-.05-.2-.123-.448-.247-.618-.634-.865-.219.152-.105.544.399 1.371.524 2.824.743 4.23.373 2.4.02 2.883.354 5.29.093.667.267 1.416.241 2.095-.009.232-.492-.565-.499-.577-2.251-3.825-2.196-6.457-3.004-10.745-.243-1.296.352-.855-.142-2.09-.284-.709-.444-.419-.389.343.175 2.421.168 4.858.13 7.282-.031 2.007-.145 4.12.163 6.11.048.306-.37-.358-.339-.056.067.651-.2-.216-.443-.824-.828-2.07-1.292-4.126-1.674-6.319-.265-1.523-.513-3.109-.982-4.588-.163-.517-.304-.817-.307-1.335-.001-.444.042-.702-.121-1.11-.043-.108-.093-.339-.104-.066-.063 1.538-.063 3.078-.118 4.617-.078 2.149-.212 4.306-.212 6.457 0 .612.141 1.249.262 1.849.01.052.201.877.061.704-.348-.427-.555-1.183-.665-1.705-.266-1.262-.039-2.648-.029-3.925.014-1.771.075-3.666-.256-5.416-.115-.612-.325-1.142-.562-1.734-.137-.343-.167-.687-.305-1.03-.065-.165-.677-.687-.656-.58.159.781.208 1.537.238 2.341.098 2.59.109 5.181.254 7.77.093 1.652.125 3.313.276 4.96.051.547.218 1.175.193 1.721-.012.268-.165-.003-.23-.11-.702-1.18-1.249-2.549-1.68-3.844-1.05-3.151-1.197-6.502-2.075-9.694-.268-.975-.389-2.113-.694-3.019-.067-.197-.308-1.109-.26-.905.27 1.17.299 2.442.371 3.632.13 2.138.225 4.271.11 6.412a114.327 114.327 0 0 0-.148 5.704c0 .156-.008.367-.111.11-.38-.95-.775-1.896-1.131-2.856-1.294-3.487-1.578-7.232-2.532-10.807a24.38 24.38 0 0 1-.422-1.981c-.027-.147-.059-.44-.014-.108.096.699.183 1.39.241 2.095.229 2.777.144 5.572.45 8.35.071.647.183 1.27.304 1.908.03.161-.044.341 0 .478.174.544.211 1.138.251 1.703.026.357.268 1.388.105 1.069-1.987-3.9-1.615-8.328-2.583-12.488a19.408 19.408 0 0 1-.411-2.506c-.004-.042-.017-.776-.141-.487-.121.283-.106.667-.118.961-.04 1.06-.02 2.123.002 3.183.054 2.724.295 5.433.541 8.145.125 1.375.151 2.91.532 4.255.153.54-.19.156-.024.688.063.2-.175.149-.213.064-2.41-5.401-3.29-9.096-4.203-14.889-.124-.791-.366-1.59-.413-2.39-.036-.614.135-.067.18.208.462 2.882.144 3.604-.073 6.487-.223 2.966.104 6.077.817 8.955.126.508.257.995.434 1.487.057.158-.096.193-.198.103-.622-.553-.891-1.767-1.162-2.486a85.776 85.776 0 0 1-2.783-8.777c-.478-1.848-.776-3.701-1.154-5.559-.061-.299.053.27.057.294.298 1.738.431 3.483.492 5.244.104 3.024-.216 6.298.938 9.181M80.087 31.379c.11.276.207.512.225.814.067 1.129.102 2.28.088 3.41-.018 1.52-.69 2.862-.939 4.332-.246 1.453-.377 2.923-.7 4.363-.348 1.555-.46 3.185-1.007 4.69-.209.575-.358 1.166-.535 1.751a19.964 19.964 0 0 1-1.168 2.95 34.86 34.86 0 0 1-1.719 3.155c-.554.898-1.29 1.6-1.986 2.383-.622.7-1.103 1.488-1.658 2.238-.488.66-1.056 1.256-1.642 1.83-1.333 1.302-2.843 2.374-4.437 3.318-1.548.918-3.045 1.918-4.724 2.59-.12.048-.147.059-.003.002 1.443-.578 2.806-1.23 4.122-2.067 3.24-2.06 6.73-4.258 8.99-7.433.762-1.069 1.202-2.312 1.449-3.59.295-1.532.802-3 1.142-4.521.334-1.493.702-2.98 1.003-4.48.29-1.449.477-2.914.778-4.36.35-1.677.67-3.318.568-5.036-.038-.647.081-1.276.204-1.909.082-.42.225-.868.187-1.299a4.97 4.97 0 0 0-.156-.883c-.054-.195-.237.427-.285.524-.957 1.915-1.272 4.163-1.872 6.204-.604 2.055-1.244 4.09-1.976 6.102-.56 1.539-.896 3.108-1.24 4.705-.27 1.25-.623 2.482-.917 3.727-.202.858-.358 1.723-.673 2.55-.685 1.8-1.359 3.79-2.808 5.128a21.2 21.2 0 0 1-2.248 1.785c-.697.49-1.333.935-2.127 1.253-.203.081-.502.268-.71.232-.086-.014-.236.073-.312.095-.252.072-.51.115-.763.186-.362.103-.71.247-1.07.347-.485.134-.985.207-1.45.394-.26.104.226-.189.258-.208.515-.303.961-.708 1.378-1.132 1.254-1.272 2.231-2.808 3.611-3.96.462-.386.895-.836 1.318-1.264.187-.19.379-.462.615-.593.145-.08.106-.1.106.088"/><path stroke="#171717" stroke-linecap="round" stroke-width="2.583" d="M66.995 59.928c.199-.101.346-.305.49-.468.354-.398.736-.784 1.042-1.22.65-.93.883-2.229 1.14-3.318.25-1.063.474-2.133.744-3.19.388-1.515.974-2.982 1.501-4.452.508-1.416 1.043-2.862 1.26-4.359.213-1.477-.114-2.922.266-4.394.148-.572.273-1.13.546-1.658a10.87 10.87 0 0 0 .705-1.726c.18-.57.172-1.176.172-1.766 0-.23-.037-.542.057-.76.135-.316-.03.69-.075 1.031-.265 2-.798 3.944-1.322 5.888a98.413 98.413 0 0 1-1.552 5.142c-.234.712-.379 1.434-.492 2.174-.245 1.588-.846 3.036-1.629 4.432-.556.993-1.099 1.95-1.503 3.013-.949 2.495-3.196 4.322-4.588 6.55-.553.886-1.213 1.632-2.123 2.164-.512.3-1.033.582-1.544.885-.277.165-.638.317-.867.548-.087.088-.402.41-.532.41-.03 0 .006-.06.021-.086.107-.182.218-.36.319-.544a29.39 29.39 0 0 0 1.36-2.926 67.912 67.912 0 0 1 2.527-5.533c.826-1.605 1.3-3.35 1.984-5.014 1.21-2.95 2.339-5.935 3.562-8.88.276-.662.448-1.362.641-2.053.22-.786.404-1.585.656-2.361.14-.434.233-.924.426-1.336.191-.41.165.116.226.408.436 2.088.719 4.16.554 6.295-.073.939-.383 1.897-.56 2.825-.252 1.33-.45 2.695-.92 3.97-.373 1.019-.818 2.008-1.19 3.026-.475 1.305-.86 2.586-1.522 3.82-.605 1.13-1.518 2.022-2.36 2.97-.221.25-.42.507-.677.724M40.725 77.469c.422 1.055.837 1.808 1.718 2.537.754.624.43-.083.223-.598l-1.694-4.236c-.33-.824-.5-1.667-.826-2.48-.044-.11-.32-1.031-.118-.942.96.422 1.867 1.841 2.605 2.579.832.83 1.45 1.839 2.216 2.716.661.757 2.452 3.122 2.077 2.186-.956-2.391-2.122-4.707-3.304-6.986-.744-1.436-1.459-2.837-2.064-4.352l-.465-1.162c.46 1.149 1.75 2.217 2.576 3.11 2.168 2.341 3.913 5.35 6.368 7.382.115.095.901.91.585.444-.86-1.271-1.505-2.79-2.158-4.19-1.146-2.458-2.512-4.836-3.597-7.304-.444-1.01-1.64-4.097-1.23-3.072.436 1.089 1.298 1.975 1.895 2.976.819 1.374 1.71 2.877 2.7 4.135 1.13 1.436 2.167 2.883 3.37 4.262.209.239 1.867 2.743 1.994 2.692.159-.063-4.737-10.59-5.293-11.98L46.78 61.38l-.469-1.17-.052-.13c.378.944 1.006 1.874 1.611 2.684 1.364 1.824 2.76 3.668 4.249 5.392 1.002 1.16 2.114 2.42 2.977 3.694.511.755 1.467 1.494 1.787 2.293.368.92.093-.185-.061-.57-.634-1.582-1.568-3.05-2.33-4.575-1.197-2.392-2.556-4.72-3.548-7.2-.353-.884-.873-1.766-1.242-2.69-.209-.522-.54-1.09-.533-1.655.008-.7-.6-1.096.118-.028a66.835 66.835 0 0 0 3.907 5.208c.907 1.1 1.801 2.148 2.46 3.42.112.216.657 1.114.881 1.184.08.025.638.97.391.353-1.004-2.51-2.42-5.126-2.978-7.767a10.978 10.978 0 0 0-.54-1.859c-.376-.94.625.311.777.462 1.076 1.07 2.173 2.034 3.117 3.233.387.492 1.244 2.085 1.177 1.462-.18-1.663-1.603-6.481-.98-4.926"/><path stroke="#171717" stroke-linecap="round" stroke-width="2.583" d="M47.48 60.92c.386.963 1.308 1.636 1.722 2.584.174.396.457.707.748 1.018.384.411.918.852 1.13 1.382M99.82 70.128c0 1.135.318 2.375.318 3.348 0 .516.269-2.676.567-3.348.685-1.54 2.161 1.616 2.764 2.391.188.243.815 1.755.815.62 0-.86.2-2.043-.16-2.834-.249-.547-.159-1.178-.159-1.772 0-1.32.214-.44.637.248.645 1.048 1.234 3.33 1.612.868.196-1.27.783-4.032 1.506-1.682.676 2.196.008-3.43.638-2.87.223.199 1.346 3.622 1.346 2.32 0-.58-.034-1.173 0-1.753.057-.967.929.786 1.028.885.286.287.885 1.238.885.833 0-.974.319-1.863.319-2.817 0-1.978 1.739 1.933 2.073 2.534.644 1.16.478-3.358.478-4.057 0-2.126 1.292 2.419 1.594 3.1 1.174 2.64.134-2.384 1.028-3.277.04-.04 1.204 2.94 1.204 3.437"/><path stroke="#C6C6C8" stroke-linecap="round" stroke-width="2.583" d="M113.46 80.223c1.099-.1 1.657-.757 2.551-1.204.182-.092-1.388 1.11-1.754 1.364-.468.323-4.347 2.072-2.639 2.072 1.978 0 4.525-.74 5.81-2.391.312-.401.863-.479.337-.479-.562 0-1.304.338-1.754.638"/><path stroke="#FFD424" stroke-linecap="round" stroke-width="2.583" d="M21.286 135.702c1.335 0 2.422.338 3.695.695.752.21-.328-1.576-.444-1.751-.33-.493-1.05-1.333-.25-.889.92.512 1.804 1.142 2.75 1.64.733.385 1 .672 1-.195 0-1.033-.195-2.021-.25-3-.072-1.294 4.105 2.847 4.14 2.25.047-.804-.86-2.042-1.195-2.75-.596-1.258.656.377 1.111.75 1.093.893 2.4 1.572 3.445 2.5.988.878-.272-2.363-.555-2.75-.203-.278-1.713-2.644-1.14-2.445 1.158.401 2.36 1.647 3.39 2.334 2.751 1.834-.089-2.649-.57-3.515-.511-.922-.286-.724.403-.111 1.55 1.378 3.578 2.409 5.348 3.487 1.246.758 2.41 1.44.876-.264-1.296-1.44-2.601-3.055-3.612-4.709-.101-.166-1.01-1.528-.986-1.528 1.35 0 3.456 2.684 4.459 3.486.952.762 2.38 1.441 3.14 2.39.053.067-1.067-2.118-1.501-2.681-1.176-1.526-2.732-3.195-3.556-4.946-.139-.295 2.417 1.626 2.806 2.001 1.667 1.606 3.387 3.196 5.25 4.556.446.325.867.718 1.376.944.545.243-.505-.688-.625-.861-1.32-1.889-2.796-3.584-3.945-5.584-.58-1.01-.907-2.032-1.362-3.056-.632-1.422.919.477 1.306.806 2.25 1.909 4.47 3.723 6.862 5.445.166.12 2.112 1.562 2.112 1.347 0-.72-.884-1.649-1.278-2.153-1.053-1.345-2.234-2.586-3.306-3.917-.757-.939-1.492-1.853-2.195-2.834-.303-.422-1.063-1.04-1.18-1.57-.271-1.215.187-.544 1.124.264 3.544 3.055 7.649 5.966 11.738 8.238.694.385-.044-.539-.18-.681-.995-1.039-1.809-2.149-2.598-3.348-1.495-2.27-3.55-4.113-5.098-6.348-.317-.457-1.193-1.864-.986-1.347.254.634 1.282 1.141 1.736 1.653a55.245 55.245 0 0 0 9.196 8.279c.945.675 3.06 3.017 2.945 1.861-.05-.506-1.372-1.715-1.667-2.111-1.286-1.728-2.69-3.349-4-5.057-1.388-1.806-2.879-3.879-3.918-5.917-.947-1.857-.262-.843.778.278 3.07 3.308 6.097 6.726 9.474 9.723.76.675 1.602 1.297 2.32 2.015.098.098.625.483.625.472 0-.721-.442-1.369-.806-1.959a73.854 73.854 0 0 0-3.362-4.959c-1.796-2.445-3.82-4.961-5.181-7.682-1.245-2.491 1.435.976 1.861 1.515 2.906 3.67 6.197 7.891 9.974 10.724.456.341 2.904 2.674 2.112.736-1.34-3.274-3.437-6.43-5.168-9.502-1.218-2.161-2.272-4.403-3.417-6.598-.175-.335-.556-.984-.153-.32.706 1.163 1.5 2.275 2.278 3.39 2.181 3.122 4.766 5.762 7.474 8.418.415.407 2.778 2.422 1.222.833-2.116-2.16-3.907-4.771-6.195-6.751-.98-.847-1.977-1.697-2.89-2.583-1.183-1.15-2.46-2.088-3.556-3.307-2.49-2.766 3.775 6.417 5.793 9.544.814 1.262 1.943 2.608 2.5 4 .113.281.018-.622-.097-.903-.46-1.126-1.204-2.279-1.792-3.347-1.765-3.203-3.348-5.548-3.348-9.224 0-.541.276.144.5.375.9.925 1.713 1.876 2.515 2.889 2.632 3.33 5.606 6.354 8.334 9.599.725.862 1.405 1.766 2.098 2.653.383.491-1.31-2.239-1.459-2.445-2.999-4.141-5.551-8.475-8.098-12.891-.22-.38-1.26-1.898-1.237-1.875.918.918 1.666 2.098 2.543 3.07 1.605 1.78 3.357 3.385 5.028 5.098 1.423 1.459 3.47 3.241 5.265 4.251.109.061.886.551.958.542.148-.019-.823-1.991-.86-2.056-1.65-2.837-3.594-5.516-5.321-8.307-.441-.712-2.023-2.626-1.361-2.112 2.363 1.838 3.983 4.506 5.987 6.696 2.118 2.316 4.533 4.306 6.862 6.39 1.281 1.146-2.04-2.77-3-4.195-1.344-1.992-2.352-4.074-3.557-6.112-.229-.388-1.676-2.75-.333-1.64 3.226 2.669 6.063 5.736 9.168 8.53.415.373 2.712 2.756 1.667.666-1.402-2.803-3.453-5.299-5.196-7.89-.773-1.149-1.426-1.52-.138-.611 3.179 2.244 5.776 5.37 8.89 7.765.258.198 3.114 2.298 2.222.834-1.445-2.375-3.22-4.717-4.847-6.974-1.023-1.417-1.759-3.48-3.001-4.723-.004-.004.074 2.816.139 3.334.201 1.61-.155 1.496-1.764.5-1.406-.87-2.944-1.957-4.112-3.125-.31-.311-.15-.088-.139.389.032 1.267.268 2.564.75 3.736.144.35 2.084 4.106 1.695 4.459-.567.516-2.332-.404-2.806-.625-2.209-1.028-4.426-1.999-6.445-3.375-1.609-1.096-3.37-2.259-4.751-3.64-4.336-4.335 8.202 9.123 12.057 13.891.283.35 2.234 2.835 1.25 1.251-1.162-1.872-2.376-3.836-3.361-5.807-.527-1.053-1.75-3.077.11-1.278 3.103 2.999 6.653 5.39 10.683 6.974 1.842.723 1.416-.49.778-1.987-1.167-2.739-2.873-5.212-4.07-7.932-.394-.895-1.24-2.345.25-1.153 2.975 2.381 5.678 5.1 8.793 7.307 2.311 1.637-.433-1.759-.93-2.695-1.527-2.871-2.546-5.812-3.876-8.737-.82-1.805 1.009 1.859 1.25 2.208 1.89 2.744 4.627 5.441 7.209 7.543 2.056 1.673-1.086-2.193-1.361-2.611-2.043-3.112-3.846-6.789-5.028-10.335-.27-.811-.068-.508.222.111.96 2.048 2.779 3.785 4.278 5.445a18.244 18.244 0 0 0 5.807 4.306c1.125.533-.724-4.328-.945-5.056-.401-1.321-.957-2.593-1.292-3.931-.08-.322-.264-1.29-.264-.959 0 2.958 2.227 6.108 3.973 8.307 1.025 1.292 2.132 2.995 3.515 3.945.488.336.733.562.5-.139-.639-1.915-1.914-3.642-2.598-5.57-.186-.524-.246-1.935-.639-1.542-.268.268-.211 2.067-.236 2.459-.038.593.331 3.707-.403 3.917-.903.258-3.322-5.359-3.723-6.237-.237-.52-.452-1.812-.944-2.195-.156-.121.13 2.421.18 2.667.44 2.15 1.05 5.367 2.501 7.14 1.05 1.284-1.53-1.9-1.778-2.292-.934-1.475-1.642-3.026-2.487-4.542-.12-.215-.611-1.244-.611-1.028"/><path stroke="#FFD424" stroke-linecap="round" stroke-width="2.583" d="M105.8 106.698c.059.472 1.023.866 1.375 1.139.731.569 1.148 1.43 1.875 2.001 1.433 1.125 2.227 2.993 3.626 4.111.826.661 1.918 2.429.375.445-1.371-1.763-2.404-3.969-3.556-5.89-.161-.268-1.629-2.231-.584-1.695 3.633 1.866 5.748 5.889 9.252 7.891 1.172.669-1.494-2.249-2.237-3.376-1.148-1.743-2.702-3.298-3.723-5.112-.119-.213-.818-1.04-.402-.82.474.252.898.811 1.264 1.195 1.189 1.249 2.755 2.218 4.125 3.251 1.215.915 2.384 1.87 3.57 2.82.835.668.289-.438.042-.764-1.141-1.51-2.431-3.046-3.445-4.64-.264-.415-1.046-2.045-1.417-2.292-1.436-.958 2.608 2.262 3.903 3.403 1.674 1.474 3.242 3.144 4.807 4.709.906.907.08-.149-.222-.778-.922-1.914-2.103-3.699-3.07-5.598-.256-.501-2.124-3.65-.806-1.945 2.033 2.632 4.321 4.825 6.695 7.141.821.799 1.701 1.531 2.556 2.292.061.053 1.126.816 1.139.708.067-.531-1.022-1.679-1.277-2.028-.963-1.316-2.051-2.454-2.848-3.89-.892-1.604-1.77-2.978-2.514-4.653-.226-.508-.036-.036.111.18.672.992 1.547 1.853 2.389 2.695 1.522 1.522 3.352 3.566 5.237 4.626.149.084.67.741.653.32-.032-.799-.861-1.814-1.264-2.445-.527-.825-3.223-4.195-2.862-5.098.062-.154 1.209 1.249 1.292 1.347.905 1.062 1.895 2.165 2.931 3.098.464.417 2.693 2.806 3.376 2.611.02-.006-1.821-5.429-2.167-6.209-.656-1.476 1.015.71 1.361 1.056 1.973 1.973 3.955 3.751 6.251 5.334 1.107.764.727-.742.403-1.431-.976-2.072-2.607-3.779-3.681-5.792-.876-1.642 2.199 1.566 2.5 1.833 1.682 1.496 3.597 2.705 5.334 4.126 1.388 1.136-.355-1.794-.555-2.125-.871-1.438-2.128-2.944-2.751-4.501-.701-1.753 2.734 2.61 4.195 3.806.253.207 2.866 2.55 3.195 2.139.592-.74-1.99-3.786-2.32-4.445-1.255-2.511.97.139 1.751.861.76.704 2.892 2.862 3.986 2.862.38 0-1.61-4.729-1.861-5.32-.676-1.594-.487-1.29.667-.292 1.087.94 2.495 1.515 3.528 2.445.674.607-.553-2.517-.694-2.806-.23-.471-1.087-1.603-.584-1.459.646.185 1.378 1.036 1.889 1.459.667.551 1.773 2.222 2.806 2.222.522 0-.329-2.988-.486-3.334-.342-.751.975.712 1.07.806.688.688 1.326 1.448 2.181 1.931.648.366 2.375 2.1 2.375.611 0-.521-.205-2.002-.194-1.986.51.816 2.478 2.105 3.445 2.25 2.215.332-.976-3.632 1.5-2.5.436.199 2.244.894 2.695.444.364-.364.177-1.913 1.111-1.333 2.576 1.599 4.795 2.656 7.446.889"/><path stroke="#FFD424" stroke-linecap="round" stroke-width="2.583" d="M73.805 150.402c.286 0 1.789-.173 1.845.219.076.537-.815-.725-1.282-1-.29-.17-1.511-1.484-.782-1.251.77.247 1.459.626 2.189.969.382.18-1.687-1.942-2.189-2.313-.407-.302-2.118-1.873-.625-1.126 1.77.885 3.449 2.179 5.065 3.314.508.357 1.072.572 1.517 1.017.414.414-.816-.844-1.251-1.236-1.373-1.235-2.765-2.83-4.33-3.799-1.088-.673-2.003-2.18-3.112-2.673-.799-.355-.962-1.047.219-.203 2.023 1.445 4.32 2.714 6.238 4.283.763.625 1.746 1.481.39.126a300.144 300.144 0 0 0-7.675-7.411c-1.184-1.102-3.068-2.291-3.612-3.924-.356-1.068 1.751 1.418 2.674 2.064 1.953 1.367 3.709 3.005 5.565 4.502 1.737 1.402 3.418 2.72 5.284 3.94 1.642 1.073-1.12-.88-1.47-1.188-2.916-2.584-5.92-5.063-8.88-7.598-1.281-1.099-3.225-2.607-4.001-4.159-.238-.475-.324-.468.125-.094 1.558 1.299 3.172 2.519 4.784 3.752 3.357 2.57 6.785 5.049 10.35 7.317 1.083.69 3.728 1.425 4.502 2.392.07.088.683.197.5.36-.39.347-1.818-.272-2.189-.36-1.386-.328-3.254-1.266-4.643-1.266-1.765 0 2.392 3.988 2.392 2.798 0-2.044-3.023-4.879-4.237-6.316-2.176-2.577-4.395-5.197-7.144-7.176-1.079-.776-2.172-1.452-3.112-2.392-.715-.715.426-.208.767-.016a171.76 171.76 0 0 1 6.41 3.815 285.853 285.853 0 0 1 11.475 7.536c.318.221 3.114 2.088 2.032 1.063-5.653-5.356-11.835-10.463-18.51-14.508-.334-.202-3.567-2.437-2.19-1.345 4.006 3.174 8.908 5.44 13.227 8.161 3.403 2.143 6.983 4.074 10.428 5.988 1.986 1.103-3.374-3.051-5.16-4.456-2.859-2.25-5.687-4.54-8.551-6.785-1.187-.931-2.398-2.233-3.72-2.955-.141-.076-.671-.617-.314-.297.928.83 2.125 1.505 3.127 2.251 3.82 2.843 8.429 3.881 12.632 5.91 1.48.714 3.078 1.155 4.503 1.97.15.086.507.378.094.219-1.254-.483-2.356-1.521-3.502-2.205-3.865-2.305-7.51-4.954-11.35-7.301-1.828-1.116-4.064-2.473-5.629-3.939-2.338-2.193 5.243 3.71 8.036 5.284 4.65 2.62 9.585 4.599 14.446 6.754 1.118.495 2.518.926 3.47 1.688.432.345 1.619.31 2.189.563 3.799 1.688-7.771-2.976-11.756-4.159-.515-.153-3.86-.902-3.377-.563 1.408.992 2.638 2.177 4.018 3.205 1.921 1.433 4.119 2.43 6.16 3.674 1.312.801 3.719 1.203 4.783 2.267.909.909-2.485-.707-3.642-1.266-1.935-.934-3.98-1.853-6.02-2.533-1.723-.574.83.094 1.392.282 2.448.816 5.017 1.407 7.598 1.407 1.031 0-1.47-1.713-1.813-1.97-4.131-3.098-7.94-6.621-11.976-9.849-1.501-1.202-3.435-3.153-5.206-3.94-.742-.33 1 .349 1.11.406 2.321 1.209 4.48 2.739 6.8 3.971 3.904 2.072 8.441 4.393 12.758 5.472 2.604.651-1.7-1.389-2.47-1.938-3.487-2.491-6.564-5.404-10.147-7.755-.564-.37-1.124-.64-1.72-.938-.322-.161 1.424.577 1.611.672 5.243 2.68 10.576 5.109 16.103 7.145 1.237.456 4.325 1.976 1.657.25-3.761-2.434-7.6-4.884-11.553-7.004-.957-.513-2.888-.762-3.643-1.516-1.064-1.064 2.735 1.254 4.112 1.86 6.024 2.654 12.199 4.376 18.604 5.847.972.224 3.937.563 2.939.563-1.899 0-3.837-.997-5.565-1.688a219.774 219.774 0 0 1-14.571-6.473c-.57-.277-1.838-.65-2.189-1.235-.09-.151.342.094.5.172 1.123.551 2.238 1.11 3.377 1.626 6.528 2.956 12.927 6.418 19.73 8.724.097.032 1.501.426 1.501.406 0-.176-1.306-1.041-1.313-1.047-1.218-.994-2.399-2.033-3.612-3.033-2.441-2.015-4.9-4.06-7.457-5.926-1.209-.882-2.4-2.047-3.721-2.751-3.438-1.834 6.882 3.682 10.475 5.19 2.469 1.037 5.132 2.095 7.739 2.674.085.019.527.381.172.203-1.505-.752-2.882-1.709-4.268-2.658-2.322-1.589-4.571-3.161-6.989-4.596-1.368-.812-3.498-1.56-4.612-2.674-.812-.812 2.074 1.002 3.049 1.611 4.408 2.75 9.549 4.476 14.461 6.081 1.367.447 2.756.625 4.143.954.711.168 1.057.228.219-.375-3.737-2.691-7.304-5.538-10.944-8.349-.356-.275-1.917-1.604-1.891-1.579 1.391 1.392 3.806 2.334 5.55 3.205 3.167 1.584 6.722 3.502 10.162 4.44.621.17-.273-.341-.469-.516-1.903-1.69-4.113-3.026-6.035-4.705-1.65-1.442-6.87-5.28-4.847-4.441 1.706.708 3.133 2.09 4.8 2.908 1.597.784 3.348 1.254 5.05 1.751.198.058 2.117.805 1.563.251-.945-.946-1.918-1.771-2.814-2.783-1.112-1.256-2.347-2.41-3.533-3.596-.321-.32-1.245-1.391-.219-.563 3.98 3.212 8.372 6.667 13.383 8.098.959.275.196-.193-.251-.594-1.801-1.616-3.354-3.47-5.018-5.221-.627-.66-1.28-1.296-1.923-1.939-.824-.824 1.757 1.532 2.673 2.251 1.647 1.294 3.359 2.532 5.238 3.471.982.491 2.085.602 3.064 1.047.638.291.405-.372.188-.734-1.177-1.961-2.846-3.632-4.237-5.441-.716-.931-1.657-1.929-2.205-2.97-.089-.17 1.991 1.264 2.205 1.422a77.063 77.063 0 0 0 5.081 3.455c.438.274 1.482 1.183 2.064 1.017.126-.037-3.851-5.179-4.331-6.019-.706-1.236.48-.256.922.093 1.722 1.357 3.533 2.516 5.378 3.69 2.583 1.643 1.155-.771.376-2.251-.292-.554-1.664-2.727-1.626-2.689 2.035 2.035 4.207 3.174 6.566 4.659.674.424.345-.109.016-.595-.828-1.219-1.661-2.426-2.424-3.689-.147-.244-1.032-1.225-1.032-1.47 0-.121.224.105.313.188a46.1 46.1 0 0 0 2.189 1.907c.834.686 6 4.565 4.159 1.188-.818-1.499-1.652-2.926-2.299-4.518-.074-.182-.649-1.899-.609-1.891 1.437.287 3.064 2.808 4.158 3.736.969.822 2.193 1.919 3.424 2.298.98.302-1.469-3.73-1.782-4.33-1.35-2.588.839.635 1.657 1.36.656.581 4.933 4.374 3.752 1.376-.524-1.331-1.322-2.559-2.048-3.784-.47-.794 1.041.419 1.141.5.817.66 3.678 3.968 2.924.845-.465-1.927-.564-2.537 1.126-.735 1.111 1.185 1.844 1.288 1.844-.391 0-1.532 2.074.252 2.752.688 1.014.652.907.46.907-.782 0-1.001-.184-.886.906-.563 1.047.31 1.414.306 2.127-.406.376-.376 1.426-.782.625-.782-2.843 0-6.201 1.996-8.599 3.252-4.516 2.366-8.666 5.286-13.429 7.145-1.613.629-3.229 1.273-4.784 2.017-6.202 2.966-12.799 4.995-18.776 8.411"/><path stroke="#FFD424" stroke-linecap="round" stroke-width="2.583" d="M96.317 122.824c1.946 0 3.604 1.723 5.285 2.47.992.441 2.072.861 3.111 1.173.921.276.132-.308-.235-.829-1.953-2.775-10.118-8.998-7.316-7.082 3.747 2.564 8.231 4.422 12.382 6.238.252.11 3.028 1.142 2.923.954-.992-1.786-2.166-3.509-3.189-5.3-.564-.987.184-.363.672-.031 1.447.982 2.757 2.171 4.284 3.033.653.368 3.776 2.523 2.032.75-1.186-1.206-3.836-3.315-4.408-5.034-.351-1.052 1.885 1.172 2.767 1.845 1.286.981 2.502 2.153 3.924 2.939 1.87 1.034.079-2.589-.282-3.361-.531-1.139-1.857-4.669-1.391-3.502.778 1.945 4.306 4.183 6.129 5.003 1.52.684.57-.993.046-1.517-3.523-3.523-6.823 5.05-8.254 7.285-1.052 1.643-2.156 3.258-3.143 4.941-.411.701-.96 1.908-1.61 2.407-1.549 1.192-2.902-.093-4.159-1.188-.303-.264-4.698-4.713-4.877-4.534-.459.459 4.461 5.22 4.877 5.597 1.709 1.549 3.008 3.952 4.331 5.863.482.697-.766-.073-.954-.172-1.348-.712-2.526-1.773-3.799-2.611-.895-.59-4.708-3.407-5.878-2.939-.333.133 3.265 3.37 3.768 3.643 1.64.89 1.534 1.262-.344.219-5.26-2.923-10.476-5.986-15.665-9.037-.661-.388-5.533-3.297-2.72-1.188 3.657 2.743 7.38 6.001 11.396 8.177.37.199 3.2 2.056 2.22.953-2.828-3.182-6.555-6.272-9.943-8.833-1.212-.916-2.306-1.976-3.517-2.892-.162-.122-1.105-.843-.688-.188 1.2 1.887 2.55 3.562 4.346 4.909"/><path stroke="#171717" stroke-linecap="round" stroke-width="2.583" d="M64.686 130.856v1.489c0 .468.47.785.541.135.068-.612 1.354-2.945 1.354-1.354 0 .637.076 3.978.286 3.49.5-1.168 1.453-2.209 2.21-3.219.503-.669 1.808-2.667 1.715-1.835-.1.898-1.226 2.244-1.64 3.038-.107.207-1.608 2.738-1.488 2.738.501 0 2.714-2.924 3.098-3.384.949-1.139 2.119-2.281 3.249-3.249.748-.642-.274 1.099-.452 1.339-.627.845-1.189 1.87-1.895 2.647-.753.828.3-.18.602-.482 1.199-1.199 2.507-2.586 3.94-3.504.565-.361 1.865-1.325 2.557-1.368.135-.009-.83.83-1.083 1.082-.716.717-1.22 1.556-1.684 2.437-.608 1.154-.019.468.872-.121 1.727-1.14 3.423-2.64 5.279-3.534.866-.417 2.056-.895 2.782-1.549.522-.469-2.084 1.685-1.007 1.685 3.03 0 6.002-2.243 8.768-3.249 1.846-.672-.406.436-.993 1.023-1.472 1.471 3.098-.712 3.49-.888 1.563-.701 3.156-1.65 4.752-2.241.511-.189 1.044-.601 1.564-.601M146.319 100.469c0 2.916 1.16-11.267 2.106-8.501.941 2.752.511 11.585.601 8.685.08-2.555.976-4.914 1.673-7.293.202-.688.019-.636.019.183v3.665c0 .437.2 4.58.357 3.738.42-2.253 1.136-4.418 1.598-6.67.087-.424.665-3.14.733-2.84.521 2.285.332 4.682.771 6.981.198 1.04.388 3.306.62 1.045.191-1.863.658-3.713.658-5.589 0-2.175.71 4.295 1.015 6.45.107.755.543 5.183 1.09 2.785.512-2.245.94-4.775.94-7.073 0-.663.338-1.18.338-1.832 0-.324.281 1.338.339 1.649.373 2.002 1.316 4.139 2.293 5.937.38.701.413-3.826.413-4.6 0-1.385-.478-4.118.677-1.667.838 1.778 1.217 3.659 2.03 5.442.284.622.338-1.335.338-2.015v-3.757c0-1.078 1.486 2.566 1.861 3.299.545 1.06 1.185 2.995 1.185.66 0-.613-.258-3.178.526-1.65.711 1.385 1.997 2.328 2.782 3.628.521.863.413-2.334.413-2.803 0-2.462 3.722 5.528 3.722 1.667 0-3.44 4.188 2.431 4.718.623.371-1.265.926-.706 2.049-.22.831.36 1.954-.734 2.369.073"/><path stroke="#171717" stroke-linecap="round" stroke-width="2.583" d="M144.095 102.391h5.931c.873 0 1.774.405 2.573.05 1.58-.702 3.246-.966 4.899-1.492 1.415-.45 3.041.229 4.451-.174 3.361-.96 7.131-.212 10.567-.796 1.015-.172 2.04-.266 3.022-.484.352-.079 1.428.074 1.081-.025-1.493-.427-2.933-1.04-4.438-1.43-3.047-.79-6.668-1.403-9.387-3.133-.783-.498-2.522-.507-3.431-.572-1.322-.094-3.466-.388-4.638-1.02-1.13-.608-1.749-1.19-2.623-2.063-1.076-1.077-1.112.44-1.853 1.18-.363.364-1.458 1.493-1.952.56-.197-.374-1.516-2.041-1.516-.671"/><path stroke="#171717" stroke-linecap="round" stroke-linejoin="round" stroke-width="1.55" d="M70.175 107.153c-2.333-3.579-4.527-7.763-6.54-12.63-10.237-24.736-3.796-55.856 17.54-64.685 29.94-12.39 52.689 15.942 61.276 35.422 6.628 16.676 5.321 29.352.149 38.672"/><path stroke="#171717" stroke-linecap="round" stroke-linejoin="round" stroke-width="1.55" d="m191.744 101.97-129.9 5.482-45.198 32.354 175.098-37.836Zm0 0-39.831-12.577M192.046 101.917l-118.255 52.67-9.72-23.487M137.123 54.67c.444-5.609-1.147-20.126-11.061-33.327m0 0-6.545-3.381m6.545 3.381.571-8.006M75.275 91.357c-4.83 2.887-18.544 7.904-34.774 4.878m0 0-5.934-4.364m5.934 4.364-6.92 4.065M98.486 63.233c-.924-1.765-3.112-2.44-4.89-1.508-1.778.931-2.469 3.114-1.545 4.878M118.298 52.854c-.924-1.764-3.112-2.439-4.89-1.508-1.778.931-2.469 3.114-1.545 4.878"/><path stroke="#171717" stroke-width="1.55" d="M112.747 74.394c4.657-2.44 6.81-7.722 5.361-12.466-.306-.996-1.481-1.344-2.412-.857l-15.579 8.16c-.931.487-1.314 1.651-.67 2.47 3.075 3.894 8.643 5.132 13.3 2.693Z"/><path stroke="#171717" stroke-linecap="round" stroke-linejoin="round" stroke-width="1.55" d="M38.939 79.637c-2.904-23.44 11.95-25.052 19.738-22.937l1.807.48M58.92 71.008c8.7-3.866 25.607-17.576 23.644-41.486"/><path stroke="#171717" stroke-linecap="round" stroke-linejoin="round" stroke-width="1.55" d="M123.382 38.22c-5.427 4.016-21.278 10.172-41.263 2.677"/><path stroke="#171717" stroke-linecap="round" stroke-width="1.033" d="M112.412 56.199c-.08-.151-.245-.343-.231-.522.014-.221-.049-.424-.078-.644-.074-.39-.202-.88.074-1.26.184-.267.331-.687.618-.88.389-.246.69-.618 1.113-.84.322-.169.687-.338 1.062-.32.445.023.729.196 1.132.306.557.158.794.526 1.124.91.104.117.165.192.295.274.103.074.457.296.432.33M98.986 63.402c-.3-.571-.616-1.134-1.016-1.61-.156-.175-.43-.203-.586-.378-.113-.133-.415-.297-.57-.387-.18-.098-.311-.265-.525-.303a5.507 5.507 0 0 0-.837-.032c-.435.035-.92.096-1.346.19-.476.122-.893.233-1.333.463-.491.257-.503 1.142-.623 1.612-.097.35-.066.74-.188 1.083-.099.266-.283.49-.364.747-.106.334-.103.504-.055.843.066.415.03.84.037 1.265M98.51 70.075c.423-.222.698-.645 1.06-.942.262-.2.523-.402.793-.586 1.274-.946 2.802-1.532 4.217-2.209 1.161-.543 2.269-1.188 3.465-1.664.916-.352 1.833-.661 2.714-1.122.355-.186.718-.44 1.013-.702.371-.323.828-.562 1.234-.818.575-.344 1.185-.62 1.778-.93a7.49 7.49 0 0 1 1.475-.602c.426-.095.78-.366 1.233-.325M117.501 60.193c.58-.005.846.627 1.151 1.003.244.3.438.713.546 1.084.1.355-.031.68.042 1.028.14.719.1 1.425 0 2.141-.046.367-.107.785-.221 1.144-.13.41-.304.78-.365 1.198-.139.972-.767 1.708-1.095 2.607-.155.403-.481.852-.723 1.214-.276.38-.603.745-.948 1.075-.236.21-.582.455-.713.78-.132.326-.674.568-.927.786-.336.304-.744.475-1.15.688-.288.15-1.098.746-.81.595"/><path stroke="#171717" stroke-linecap="round" stroke-width="1.033" d="M112.314 75.502c-.745.39-1.544.638-2.289 1.028-.372.195-1.045.312-1.439.218-.3-.078-.606-.004-.907-.124a5.661 5.661 0 0 0-1.226-.322c-.393-.051-.753-.162-1.147-.213-.205-.021-.327-.171-.508-.27a8.948 8.948 0 0 0-.757-.374c-.395-.178-.842-.33-1.245-.482-.266-.097-.44-.305-.673-.462-.164-.107-.336-.188-.5-.295-.337-.23-.615-.556-.993-.7a2.08 2.08 0 0 1-.569-.387c-.14-.142-.211-.361-.358-.477-.181-.14-.289-.47-.378-.68-.115-.261-.162-.515-.294-.767l-.255-.487c-.079-.152-.234-.242-.313-.393M75.272 91.499c-1.142 0-2.212.304-3.24.818-.7.35-1.333.818-2.025 1.177-.622.323-1.277.423-1.89.705-1.721.791-3.186 1.937-5.13 2.153-.913.101-1.89.257-2.806.277-.938.022-1.83.23-2.76.27-1.103.048-2.175.27-3.285.27h-4.185c-1.884 0-4.03.258-5.873-.202-1.04-.26-2.152-.142-3.203-.443-.706-.202-1.031.307-1.65.375-.352.04-1.39.641-1.68.878-.445.364-1.027.59-1.492.953-.382.296-.806.542-1.178.84-.105.083-1.063.435-.915.435M34.364 91.768c.728.08 1.553 1.162 2.16 1.552.548.353 1.183.515 1.65.983.622.621 1.076 1.797 1.86 2.19M121.714 36.82c.271.06.614.446.84.6.861.584 1.707 1.176 2.461 1.897 1.495 1.432 3.036 2.796 4.447 4.313.723.776 1.314 1.694 2.003 2.505.826.973 1.673 1.765 2.4 2.835.572.843 1.142 1.655 1.62 2.558.535 1.01 1.355 1.873 1.823 2.917.91 2.03 1.821 3.995 2.895 5.94 1.702 3.085 2.096 6.75 3.037 10.111.436 1.557 1.508 2.952 1.801 4.53.162.88.135 3.294 1.11 3.78"/><path stroke="#171717" stroke-linecap="round" stroke-width="1.033" d="M146.015 77.863c0 2.32-.282 4.874.105 7.156.461 2.712.705 5.347.705 8.1 0 1.022-.369 1.938-.57 2.94-.238 1.19-.486 2.58-.982 3.683-.529 1.174-.81 3.267-2.093 3.908M119.284 18.73c1.666 0 3.173.695 4.561 1.62.461.308.89.622 1.38.84.358.159.54.605.54-.03 0-.706.385-1.323.405-2.025.022-.79.364-1.619.51-2.4.185-.998.165-1.98.165-3"/><path stroke="#171717" stroke-linecap="round" stroke-width="1.033" d="M125.765 21.294c1.648 2.06 2.807 4.479 4.35 6.615 1.553 2.15 1.908 4.735 2.94 7.126.61 1.413 1.401 2.83 2.093 4.215.51 1.02.673 2.187.982 3.27.351 1.227.165 2.763.165 4.028 0 .68-.266 2.694.54 3.098M136.97 49.648v5.13M191.235 101.834c-.89 0-2.102.206-2.937-.092-1.117-.399-2.134-.897-3.212-1.377-.815-.362-1.496-.787-2.294-1.142-1.143-.507-2.279-.649-3.488-.917-2.868-.638-5.762-.924-8.443-2.264-2.042-1.021-4.296-1.985-6.517-2.478-.984-.219-2.307-.465-3.212-.867-.989-.44-2.141-.22-3.12-.632-.86-.362-1.678-.524-2.478-.97-.618-.342-2.276-.618-2.662-1.1-.119-.15-.965-.407-1.183-.47-.711-.203-1.524-.537-2.263-.764-.892-.275-2.713-.694-2.713-.694s1.999-.102 2.855.327c.425.212.923.296 1.377.397.373.083.619.43 1.01.561M61.464 107.339c-1.466 1.465-3.068 2.698-4.6 4.038-.912.799-2.167 1.353-3.201 1.927-.463.257-.922.533-1.377.786-.476.264-.857.921-1.326 1.101-1.165.448-2.129 1.504-3.263 2.101-1.17.615-1.987 2.152-3.304 2.529-.964.275-2.317 1.215-3.029 1.927-.839.839-2.156 1.287-3.028 2.111-1.738 1.641-3.897 2.827-5.7 4.405-2.004 1.753-4.067 3.191-6.415 4.365-1.944.972-3.531 2.573-5.415 3.62-1.554.863-2.362 3.173-4.13 3.763"/><path stroke="#171717" stroke-linecap="round" stroke-width="1.033" d="M61.096 107.706c5.035 0 10.061.122 15.061-.378 2.249-.225 4.513-.173 6.782-.173 2.674 0 5.258-.367 7.933-.367 4.853 0 9.725-.184 14.552-.184.714 0 1.432-.252 2.029-.632.556-.354 1.132-.286 1.774-.286 1.564 0 2.998-.367 4.548-.367M113.775 105.32h8.587c1.605 0 3.196-.337 4.813-.367 1.073-.02 2.121-.327 3.161-.551 1.407-.303 2.867-.293 4.283-.551 3.306-.601 6.646-.55 9.993-.55 1.978 0 3.907-.184 5.874-.184M150.669 103.118h12.481c1.01 0 1.974-.323 2.978-.367 1.83-.081 3.559-.551 5.425-.551 1.206 0 2.116.104 3.253.357 1.406.313 3.253.01 4.691.01h3.293c2.032 0 4.288.305 6.241-.183"/><path stroke="#171717" stroke-linecap="round" stroke-width="1.033" d="M190.868 102.016c-.125.5-3.342.148-3.854.224-1.536.227-2.784.883-4.232 1.336-1.752.547-3.457 1.201-5.221 1.744-2.333.717-4.709 1.272-7.067 1.927-1.993.553-4.209.526-6.241.816a26.525 26.525 0 0 0-4.813 1.152c-1.73.599-3.525.757-5.241 1.285-1.754.539-3.836.524-5.548 1.285-.565.251-1.492.326-2.111.326-.771 0-1.495.367-2.294.367M144.062 112.479c-1.249 0-2.457-.062-3.671.275-1.377.383-2.665 1.026-4.038 1.418-3.056.873-6.143 1.492-9.168 2.437-3.229 1.009-6.584.951-9.912 1.367-1.317.164-2.632.339-3.864.887-.638.283-2.667.417-2.937.958M17.595 139.829c1.468 0 2.947-.184 4.364-.184 1.101 0 3.39-.761 4.222-1.509.367-.33 1.157-.326 1.652-.326 1.135 0 2.188-.465 3.304-.694a79.293 79.293 0 0 0 6.608-1.652c1.216-.36 2.63-.132 3.895-.448 2.033-.509 3.877-1.896 6.017-1.979 1.846-.071 3.95-.749 5.73-1.244 2.113-.586 4.418-1.692 6.608-1.692M60.361 130.1c1.635 0 3.282.058 4.915 0 .919-.033 1.855-.62 2.794-.724 1.258-.14 2.363-.694 3.58-1.01 3.524-.914 7.125-2.27 10.737-2.672"/><path stroke="#171717" stroke-linecap="round" stroke-width="1.033" d="M82.572 125.696h3.222c1.251 0 2.363-.975 3.569-1.102 1.256-.132 2.5-.863 3.753-1.091 1.293-.235 2.527-.778 3.814-1.07 2.072-.471 3.906-1.632 6.016-1.867 1.267-.14 2.617-.01 3.895-.01 2.71 0 5.88-1.073 8.403-2.019M75.23 153.962c1.295 0 2.628-.707 3.67-1.377 1.446-.929 3.058-1.753 4.59-2.519a91.852 91.852 0 0 1 3.762-1.794c1.273-.566 2.808-.954 3.987-1.652 1.218-.722 2.822-1.682 4.171-2.019.613-.154 1.183-.662 1.805-.877.78-.271 1.68-.453 2.427-.775 1.263-.547 2.542-.882 3.763-1.561 1.388-.771 3.173-.861 4.497-1.743"/><path stroke="#171717" stroke-linecap="round" stroke-width="1.033" d="M107.351 140.011c.901-.1 1.743-1.096 2.569-1.509.493-.246 1.308-.721 1.652-1.152.27-.337 1.07-.413 1.469-.602.809-.383 1.66-.683 2.468-1.05 3.032-1.379 5.734-3.293 9.096-3.773 1.406-.201 3.188-1.109 4.405-1.785 1.033-.573 2.293-1.376 3.487-1.509 1.381-.153 2.647-1.304 3.855-1.876 1.195-.566 2.735-1.795 4.038-1.795M140.391 124.961c1.434 0 2.271-.153 3.579-.734 1.186-.528 2.224-1.414 3.223-2.213 2.898-2.319 6.475-3.141 9.718-4.763 2.176-1.088 4.233-2.176 6.506-3.038 1.951-.741 3.715-2.041 5.7-2.652 2.243-.69 4.132-2.271 6.516-2.712 1.405-.26 3.126-.779 4.314-1.601.637-.442.642-.842.642-1.561"/><path stroke="#171717" stroke-linecap="round" stroke-width="1.033" d="M188.849 103.668c-1.538 0-2.971-.087-4.406.591-2.164 1.023-4.296 2.037-6.424 3.121-5.362 2.731-11.404 2.824-17.111 4.323-2.223.584-4.525.673-6.792.959-2.911.366-5.858.988-8.769 1.244-3.977.35-8.054.735-11.972 1.509-1.773.35-3.665.392-5.466.592-1.716.19-3.428.499-5.139.734-1.825.25-3.665.877-5.507.877M58.44 71.294c0 1.96-.22 4.013.37 5.901.425 1.361.787 3.278.862 4.697.168 3.198 2.25 6.24 2.697 9.365.248 1.73 1.334 3.264 1.931 4.875.538 1.453.9 3.007 1.657 4.368.679 1.222 1.352 2.335 2.04 3.573.554.997 1.909 1.62 2.273 2.711M82.36 29.39c.853 2.529.186 5.425.076 8.06-.046 1.094-.418 2.113-.57 3.182a197.544 197.544 0 0 1-.45 2.992c-.39 2.472-1.535 4.57-2.355 6.9-.383 1.086-.68 2.096-1.198 3.133-.666 1.335-1.231 2.827-2.093 4.05-1.212 1.723-2.558 3.291-4.156 4.621-1.385 1.154-3.035 1.9-4.457 2.971-1.241.934-2.358 2.053-3.615 2.955a9.34 9.34 0 0 1-1.987 1.096c-.763.305-1.333.978-2.108 1.28-.574.222-1.017.626-1.61.826-.402.136-.886.614-.834.068.162-1.696.194-4.377.728-5.983 1.486-4.47 1.605-8.748 3.233-13.178.51-1.384 1.369-2.337 1.821-3.74.62-1.924 1.655-3.687 2.66-5.433.89-1.55 2.01-3.035 3.1-4.454 1.181-1.54 2.46-3.153 3.937-4.42 1.876-1.61 3.842-3.316 6.222-4.119 1.004-.338 2.003-.767 3.066-.86.235-.021 1.736-.191 1.274-.036"/><path stroke="#171717" stroke-linecap="round" stroke-width="1.033" d="M83.38 28.739c1.954-.66 4.05-1.667 6.11-1.89.964-.105 1.998-.461 2.978-.339 1.037.13 2.147.315 3.196.31 1.6-.01 3.234.04 4.814.196 1.039.103 2.168.465 3.19.707.883.208 1.684.8 2.564 1.049 1.278.363 2.46.934 3.719 1.326.848.265 1.593.935 2.419 1.245.502.19 1.28.442 1.67.785.245.217.906.36 1.247.572.609.378 1.015 1.088 1.701 1.41 1.495.699 3.05.705 4.319 1.852.574.519.75 1.599.992 2.316.288.854-1.727 1.07-2.376 1.29-1.22.41-2.44.822-3.66 1.234-1.891.638-3.851 1.523-5.807 1.95-1.871.41-3.729.658-5.646.766-2.21.125-4.425-.007-6.63.113-2.268.123-4.314-.013-6.538-.491-2.17-.467-4.325-1.09-6.478-1.612-.759-.184-1.517-.222-2.23-.573-.282-.138-.653-.417-.927-.454M59.065 57.29c-.321.074-.742-.033-1.063-.072-.528-.065-1.024.047-1.548.043-.734-.007-1.596.147-2.307-.06-1.237-.361-2.675-.532-3.938-.157-2.526.75-5.908 1.476-7.207 4.072-.415.829-.826 1.59-1.343 2.369-.618.934-.894 1.93-1.374 2.918-.39.8-1.025 1.634-1.25 2.5-.184.705-.544 1.66-.334 2.394.24.833.113 1.905.132 2.77.016.685.08 1.438-.002 2.12-.115.962-.144 2.472.166 3.393"/></g><defs><filter id="a" width="208.468" height="174.762" x=".115" y=".495" color-interpolation-filters="sRGB" filterUnits="userSpaceOnUse"><feFlood flood-opacity="0" result="BackgroundImageFix"/><feColorMatrix in="SourceAlpha" result="hardAlpha" values="0 0 0 0 0 0 0 0 0 0 0 0 0 0 0 0 0 0 127 0"/><feOffset dy="2.067"/><feGaussianBlur stdDeviation="1.033"/><feComposite in2="hardAlpha" operator="out"/><feColorMatrix values="0 0 0 0 0 0 0 0 0 0 0 0 0 0 0 0 0 0 0.02 0"/><feBlend in2="BackgroundImageFix" result="effect1_dropShadow_5927_133510"/><feColorMatrix in="SourceAlpha" result="hardAlpha" values="0 0 0 0 0 0 0 0 0 0 0 0 0 0 0 0 0 0 127 0"/><feOffset dy="4.133"/><feGaussianBlur stdDeviation="4.133"/><feComposite in2="hardAlpha" operator="out"/><feColorMatrix values="0 0 0 0 0 0 0 0 0 0 0 0 0 0 0 0 0 0 0.06 0"/><feBlend in2="effect1_dropShadow_5927_133510" result="effect2_dropShadow_5927_133510"/><feBlend in="SourceGraphic" in2="effect2_dropShadow_5927_133510" result="shape"/></filter></defs></svg>