<svg width="403" height="253" viewBox="0 0 403 253" fill="none" xmlns="http://www.w3.org/2000/svg">
<path d="M252.205 106.294C256.653 106.294 260.879 105.016 265.28 104.527C270.04 103.998 274.904 103.582 279.61 102.662C286.604 101.293 293.633 99.8897 300.675 98.716C315.324 96.2745 329.688 92.969 344.027 89.0583C357.418 85.4061 371.32 82.5275 383.814 76.2803C386.899 74.7377 389.679 72.6315 392.464 70.6343C393.568 69.8431 395.94 67.7084 396.03 66.1769C396.113 64.7673 396.442 65.2013 395.585 65.5826C394.391 66.1132 393.151 67.2859 391.986 67.9763C386.203 71.4034 380.142 74.2975 373.975 76.9407C367.197 79.8455 360.416 82.068 353.256 83.858C342.634 86.5135 332.259 89.5707 321.377 91.1384C318.746 91.5175 316.068 91.5869 313.42 91.7988C310.529 92.03 307.691 92.6902 304.802 92.9214C298.904 93.3932 293.22 95.5278 287.567 97.0981C284.635 97.9126 281.787 98.7774 278.817 99.4589C276.296 100.037 273.749 100.356 271.289 101.176C267.191 102.542 263.082 104.299 259.106 105.996C256.604 107.064 253.715 107.76 251.016 108.06C250.234 108.147 248.376 107.773 249.993 107.185C254.065 105.704 258.324 104.397 262.54 103.388C264.518 102.915 266.563 102.527 268.516 101.985C269.792 101.63 267.379 101.836 267.063 101.836C263.408 101.836 259.762 101.705 256.25 102.876C255.138 103.247 254.199 103.322 253.03 103.322C252.592 103.322 254.758 102.989 255.21 102.876C258.038 102.169 266.808 101.836 263.893 101.836C260.627 101.836 257.403 103.025 254.169 103.025C253.536 103.025 256.232 102.609 256.547 102.546C259.974 101.861 263.447 101.16 266.832 100.284C274.581 98.2786 282.217 95.858 290.01 94.044C292.032 93.5734 294.009 93.1898 296.053 92.8553C296.385 92.8009 298.252 92.6242 297.027 92.6242C292.309 92.6242 288.226 93.1446 283.72 94.7043C281.897 95.3354 280.036 95.933 278.239 96.6359C277.85 96.7884 276.735 97.3398 277.827 97.3788C282.251 97.5368 286.728 97.4272 291.133 97.0156C295.331 96.6232 299.339 94.8215 303.449 93.9614C307.527 93.1078 311.582 92.366 315.665 91.5841C322.556 90.2646 329.339 88.948 336.07 86.9121C344.587 84.3362 353.089 81.9748 361.725 79.8463C363.688 79.3624 365.762 78.7113 367.8 78.6576C368.727 78.6333 368.596 78.7518 367.784 78.9548C364.574 79.7572 361.222 79.4514 357.961 79.9949C351.813 81.0196 345.571 81.4716 339.438 82.5868C333.574 83.6529 327.922 85.4192 322.104 86.681C318.127 87.5434 314.201 88.4204 310.283 89.504C309.277 89.7823 299.784 91.6781 299.784 92.7728C299.784 93.2682 315.189 91.7605 316.689 91.7327C316.953 91.7278 319.073 91.7235 317.811 91.9638C316.476 92.2182 314.928 92.327 313.568 92.327C309.875 92.327 305.993 94.2621 302.441 95.1501C297.262 96.445 291.952 98.2532 287.039 100.35C285.915 100.83 284.548 101.539 283.291 101.539C282.636 101.539 284.601 101.549 285.256 101.539C294.823 101.387 304.019 97.0832 313.255 95.1501C323.735 92.9566 334.326 91.1503 344.688 88.4639C350.718 86.9005 356.388 85.4223 362.154 82.9665C367.113 80.8544 372.118 78.8895 376.996 76.594C377.618 76.301 378.789 75.719 379.505 75.719C380.264 75.719 378.002 75.9832 377.243 75.9832C375.099 75.9832 368.695 76.4918 370.838 76.5775C373.979 76.7032 376.933 76.4594 379.984 75.686C381.763 75.2349 383.116 74.1465 384.738 73.6059" stroke="#C6C6C8" stroke-width="2" stroke-linecap="round"/>
<path d="M250.58 167.19C250.58 163.127 250.093 158.715 250.882 154.719C251.72 150.478 252.416 146.209 253.151 141.946C254.698 132.972 257.125 123.366 255.958 114.18C255.661 111.841 255.091 109.547 254.445 107.289C254.194 106.409 253.764 105.11 253.302 104.331C252.963 103.758 252.366 103.607 252.109 103.221C251.749 102.681 252.037 104.525 252.109 105.171C252.29 106.799 252.582 108.437 252.765 110.079C253.036 112.519 253.537 114.989 253.605 117.44C253.636 118.548 253.908 120.637 253.908 118.298C253.908 116.194 253.563 114.036 253.151 111.978C252.787 110.155 252.894 107.975 251.79 106.398C251.667 106.223 249.721 103.434 249.672 104.263C249.583 105.776 250.227 106.85 250.882 108.196C252.443 111.405 253.561 115.385 253.908 118.936C254.292 122.872 255.112 126.796 255.403 130.735C255.623 133.7 255.42 136.755 255.42 139.727C255.42 147.938 254.967 155.682 252.697 163.627C252.182 165.43 251.524 167.116 250.882 168.871C250.568 169.732 250.277 170.594 250.277 169.241C250.277 163.813 250.3 158.497 251.487 153.156C252.605 148.127 253.302 142.834 253.302 137.677C253.302 129.259 253.851 120.654 253.235 112.264C253.15 111.099 252.766 107.635 252.697 108.801C252.621 110.102 252.697 111.431 252.697 112.734C252.697 119 254.574 125.187 254.798 131.475C254.894 134.147 254.815 136.835 254.815 139.509C254.815 142.191 254.299 144.528 253.975 147.156C253.094 154.29 249.605 160.27 246.361 166.569C243.402 172.312 240.825 178.48 237.134 183.796C236.382 184.878 235.359 186.039 234.865 187.275C234.544 188.078 235.62 185.718 236.058 184.973C237.745 182.1 240.056 179.648 241.806 176.804C243.623 173.852 244.949 170.771 246.042 167.493C247.137 164.206 248.2 160.912 249.134 157.577C249.501 156.267 250.58 154.523 250.58 153.156C250.58 150.076 250.771 159.376 250.109 162.383C248.576 169.351 244.325 175.071 240.125 180.67C237.567 184.082 234.949 188.034 231.856 190.906C231.258 191.462 229.702 195.926 229.402 195.326" stroke="#C6C6C8" stroke-width="2" stroke-linecap="round"/>
<path d="M242.223 179.862C242.349 178.597 243.547 177.355 244.111 176.253C245.465 173.606 246.912 171.01 248.266 168.363C250.765 163.478 253.952 158.807 255.799 153.612C258.772 145.25 261.387 136.749 264.129 128.328C266.593 120.758 267.528 112.625 267.528 104.701C267.528 103.444 267.528 104.896 267.528 105.309C267.528 107.627 267.311 109.815 266.962 112.108C265.597 121.056 262.773 129.686 260.541 138.442C260.38 139.071 258.555 145.194 258.463 143.142C258.108 135.146 258.296 127.55 260.352 119.725C261.16 116.648 262.195 113.574 262.24 110.366C262.241 110.34 262.244 107.868 262.156 107.89C261.468 108.062 261.868 112.22 261.863 112.716C261.817 117.324 261.034 121.936 260.352 126.481C259.424 132.667 256.714 151.116 256.575 144.862C256.412 137.539 255.82 130.255 255.82 122.914C255.82 118.703 255.555 114.559 255.442 110.366C255.434 110.062 255.038 107.932 255.064 109.107C255.134 112.264 255.781 115.467 256.197 118.592C256.662 122.079 257.76 132.483 258.065 128.978C258.418 124.917 258.498 120.809 259.03 116.766C259.276 114.899 259.219 113.022 259.219 111.143C259.219 110.686 259.219 109.02 259.219 110.429C259.219 115.527 258.463 120.628 258.463 125.768C258.463 126.55 258.547 127.287 258.442 125.978C258.067 121.279 257.33 116.652 257.33 111.919C257.33 110.249 256.809 107.606 257.519 106.044C257.849 105.318 258.086 105.468 258.086 106.233C258.086 109.994 258.041 114.513 259.408 118.067C260.07 119.788 261.125 113.906 261.317 113.22C261.845 111.335 262.342 108.376 263.751 106.967C264.732 105.986 264.507 107.931 264.507 108.478C264.507 110.618 264.507 112.758 264.507 114.899C264.507 115.405 264.133 117.814 264.59 118.214C264.786 118.385 264.884 114.961 264.884 114.689C264.884 114.517 264.79 109.023 264.968 109.023C265.248 109.023 264.559 111.765 264.507 111.961C263.887 114.292 263.723 116.664 263.457 119.053C263.297 120.495 264.067 124.069 263.08 125.18C262.914 125.367 262.58 122.82 262.534 122.453C262.3 120.579 262.24 118.756 262.24 116.871C262.24 115.294 262.098 113.979 262.996 112.632" stroke="#C6C6C8" stroke-width="2" stroke-linecap="round"/>
<path d="M267.267 114.216C272.645 114.216 277.921 114.342 283.235 113.33C294.258 111.23 305.611 108.101 316.319 104.736C330.718 100.21 344.659 94.0087 358.954 89.1272C364.57 87.2097 370.874 84.4889 375.831 81.2273C377.987 79.8093 380.442 78.5025 382.319 76.7267C383.342 75.7586 384.623 74.6266 385.958 74.1413C387.71 73.5041 386.083 74.2199 385.144 74.5243C381.51 75.7018 378.37 77.5375 375.018 79.3121C372.127 80.8424 369.388 82.661 366.375 83.9564C362.138 85.778 357.779 87.2347 353.616 89.223C344.03 93.8013 332.786 97.1476 322.423 99.469C314.81 101.174 307.525 103.926 300.016 106.028C296.846 106.916 293.544 108.185 290.345 108.853C286.941 109.564 283.292 109.543 279.835 109.907C278.219 110.077 276.661 110.428 275.023 110.337C273.979 110.279 278.211 109.134 278.543 109.045C282.755 107.91 287.413 107.931 291.757 107.776C292.135 107.762 296.989 108.002 296.904 108.087C294.988 110.003 288.248 109.021 285.94 109.069C280.298 109.185 274.818 110.228 269.278 111.199C269.086 111.233 264.862 111.805 265.807 111.175C268.543 109.351 271.804 108.66 274.928 107.752C277.447 107.02 280.326 106.459 282.971 106.459C284.042 106.459 278.252 107.662 277.513 107.752C275.455 108.004 270.311 109.624 268.32 108.518C267.807 108.233 269.084 107.575 269.613 107.321C271.919 106.216 274.593 105.753 277.106 105.43C279.853 105.077 287.953 104.158 285.413 105.262C280.185 107.536 273.402 107.419 267.842 108.59C265.591 109.064 260.282 109.736 265.855 109.236C274.661 108.446 283.504 108.167 292.308 107.321C294.074 107.151 295.92 107.103 297.67 106.794C298.799 106.595 295.393 106.459 294.247 106.459C289.257 106.459 284.251 106.89 279.285 106.89C274.673 106.89 288.29 104.898 292.786 103.874C299.62 102.318 306.844 99.7185 313.853 99.1578C325.816 98.2007 265.966 102.102 277.968 102.102C279.707 102.102 281.686 101.501 283.378 101.241C290.254 100.183 297.152 99.3615 304.086 98.7987C309.773 98.3371 326.885 97.8411 321.178 97.8411C313.454 97.8411 305.605 99.7425 297.909 100.427C295.897 100.605 293.595 100.59 291.637 101.193C289.348 101.897 296.391 100.59 298.747 100.163C306.763 98.7116 314.81 96.9209 322.902 95.9499C324.19 95.7954 325.483 95.6866 326.78 95.6866C328.073 95.6866 324.252 96.2325 322.998 96.5484C319.538 97.42 308.944 98.703 312.512 98.703C318.592 98.703 325.083 95.9724 330.945 94.5854C334.614 93.7174 339.004 92.2393 342.819 92.2393C344.04 92.2393 340.415 92.6717 339.228 92.9575C332.771 94.5128 326.407 96.4344 320.005 98.2002C314.906 99.6069 299.548 103.373 304.469 101.432C310.887 98.9007 317.403 96.6367 324.195 95.3275C324.776 95.2153 332.209 94.3627 328.671 95.7105C325.844 96.7877 322.674 97.1518 319.718 97.6736C312.136 99.0116 304.53 100.135 296.904 101.193C290.914 102.023 284.6 102.861 278.758 104.496C277.933 104.727 276.327 104.665 277.896 103.778C280.825 102.123 284.651 102.581 287.879 102.581C290.342 102.581 291.225 103.971 288.429 104.831C283.949 106.21 279.234 106.783 274.688 107.92C272.831 108.384 272.728 108.452 271.145 107.321" stroke="#C6C6C8" stroke-width="2" stroke-linecap="round"/>
<path d="M171.922 242.824C173.501 242.824 174.234 242.521 175.569 241.631C177.291 240.483 179.452 240.093 181.3 239.194C184.561 237.607 187.268 235.202 190.612 233.748C196.501 231.188 203.066 228.051 207.638 223.479C213.819 217.297 220.313 211.494 225.941 204.688C232.596 196.639 238.692 188.72 243.79 179.578C245.897 175.8 248.157 172.097 249.975 168.165C250.671 166.66 251.791 165.27 251.791 163.56" stroke="#C6C6C8" stroke-width="2" stroke-linecap="round"/>
<path d="M375.7 37.7191C385.114 34.8237 395.051 40.321 397.6 49.835C400.149 59.3489 394.292 69.0782 384.692 71.2779L222.002 108.553L216.169 86.7829L375.7 37.7191Z" fill="white" stroke="#171717" stroke-width="2"/>
<ellipse cx="9.01525" cy="9.01523" rx="9.01525" ry="9.01523" transform="matrix(0.258818 0.965926 -0.965926 0.25882 384.383 44.0444)" stroke="#171717" stroke-width="2"/>
<ellipse cx="125.393" cy="127.079" rx="123.959" ry="123.96" fill="white" stroke="#171717" stroke-width="2"/>
<ellipse cx="125.394" cy="127.079" rx="101.421" ry="101.422" stroke="#171717" stroke-width="2"/>
<path d="M240.617 80.1444C245.388 80.1444 249.726 79.6439 254.353 78.5925C255.685 78.2897 256.819 77.3815 258.084 76.8756C259.205 76.4271 260.214 76.1236 261.27 75.5549C262.537 74.8724 264.065 74.5699 265.414 74.1846C271.721 72.3825 278 69.4313 284.168 67.0693C296.284 62.429 308.828 58.7969 321.082 54.5885C326.548 52.7111 332.345 51.6616 337.921 50.1311C343.242 48.6702 348.481 47.0123 353.835 45.6737C360.946 43.8961 368.218 41.4507 375.528 40.6385C381.204 40.0077 387.919 39.3958 392.879 42.7021C397.414 45.7257 396.626 52.1 396.626 56.8668C396.626 60.6863 395.865 64.6518 392.829 67.1353C392.071 67.7553 390.205 67.5777 389.263 67.7296C387.848 67.9579 386.224 68.5139 384.872 69.0008C382.916 69.7048 381.106 70.8337 379.044 71.246C375.349 71.9852 371.638 73.6479 368.033 74.7294C363.707 76.0273 359.147 76.9442 355.007 78.8071C352.286 80.0319 348.742 80.8462 345.812 81.399C342.494 82.025 339.242 83.0829 335.873 83.6443C332.032 84.2845 328.124 84.9957 324.268 85.4933C320.651 85.96 317.232 87.0713 313.653 87.6394C310.109 88.2019 306.518 89.7723 303.037 90.6936C299.663 91.5868 296.571 92.7672 293.066 93.2195C288.644 93.79 284.305 94.8412 279.842 95.2335C274.936 95.6649 270.158 96.5407 265.281 97.0825C261.253 97.5301 256.925 98.9238 253.032 100.054C251.374 100.535 249.155 101.837 247.452 101.837" stroke="#171717" stroke-width="2" stroke-linecap="round"/>
<path d="M26.5161 105.525C26.5161 103.122 26.434 100.753 26.7858 98.3778C26.9982 96.9442 27.8793 95.5239 28.6739 94.3321C29.5466 93.023 30.0674 91.5544 30.8915 90.2114C32.1585 88.1468 33.307 85.9919 34.6076 83.9479C35.8004 82.0735 37.5026 80.2643 38.3837 78.2239C39.1922 76.3516 40.6433 74.4516 41.905 72.8745C44.8506 69.1925 47.4205 65.181 50.5209 61.6213C53.2374 58.5023 55.999 55.6194 59.032 52.7955C62.2452 49.8039 65.8969 47.4547 69.4011 44.8388C74.4271 41.087 79.6024 37.6888 84.9848 34.5296C88.0707 32.7183 91.814 31.9687 95.294 31.2031C99.5881 30.2584 103.801 29.2498 108.18 28.7157C115.939 27.7696 123.684 27.5769 131.496 27.5769" stroke="#171717" stroke-width="2" stroke-linecap="round"/>
<path d="M128.75 27.2121C132.309 27.2121 135.875 27.1463 139.433 27.2121C142.397 27.267 145.339 28.0416 148.239 28.5435C149.661 28.7896 151.061 29.3248 152.441 29.7465C154.586 30.4017 156.621 31.3019 158.745 31.9761C162.493 33.166 165.742 35.74 169.348 37.2854C171.301 38.1225 173.095 39.3538 174.873 40.5014C176.568 41.595 178.284 42.6555 180.03 43.6694C183.078 45.4389 185.96 47.4592 188.66 49.7005C189.883 50.7158 191.312 51.5024 192.429 52.6198C193.854 54.0448 195.277 55.5046 196.664 56.9827C199.252 59.7414 203.068 61.176 205.109 64.4414C205.425 64.9469 205.745 65.442 205.831 66.0454C205.85 66.1812 205.983 66.7594 205.983 66.3342" stroke="#171717" stroke-width="2" stroke-linecap="round"/>
<path d="M205.262 65.7574C205.336 66.4235 206.373 67.4162 206.737 67.987C207.548 69.2556 208.541 70.4089 209.304 71.7084C210.478 73.7079 211.609 75.7273 212.945 77.6272C216.076 82.0808 218.174 87.5673 219.73 92.7531C220.597 95.6427 220.894 98.6358 221.575 101.559C222.101 103.819 222.269 106.135 222.874 108.376C223.423 110.41 223.902 112.478 224.462 114.52C224.636 115.155 224.709 115.832 225.007 116.428C225.169 116.752 225.238 116.924 225.039 116.428" stroke="#171717" stroke-width="2" stroke-linecap="round"/>
<path d="M225.327 114.263C225.327 116.021 225.244 117.804 225.544 119.54C225.879 121.486 225.808 123.53 226.273 125.459C226.779 127.555 226.896 129.77 227.172 131.907C227.441 133.996 227.348 136.121 227.348 138.227C227.348 140.679 226.658 143.06 226.121 145.445C225.535 148.048 224.924 150.704 224.1 153.24C223.175 156.086 222.066 158.852 220.964 161.629C220.103 163.801 219.114 165.865 218.462 168.118C218.24 168.883 218.067 169.681 217.82 170.42" stroke="#171717" stroke-width="2" stroke-linecap="round"/>
<path d="M142.027 226.715C144.788 226.715 147.641 227.062 150.241 226.117C151.927 225.503 153.713 224.717 155.495 224.321C157.115 223.961 159.196 222.782 160.748 222.077C162.012 221.502 163.725 221.544 164.922 220.879C166.856 219.805 169.061 219.061 171.057 218.036C173.399 216.833 175.672 215.586 177.873 214.146C179.139 213.319 180.518 211.916 181.897 211.386C183.729 210.681 186.111 209.193 187.517 207.861C188.819 206.627 190.455 205.792 191.856 204.702C193.554 203.382 194.814 201.761 196.329 200.246C198.049 198.525 200.109 196.453 201.433 194.394C202.691 192.437 204.593 190.899 205.905 188.99C208.229 185.61 210.452 182.098 213.254 179.131C215.505 176.747 217.145 174.142 217.145 170.751" stroke="#171717" stroke-width="2" stroke-linecap="round"/>
<path d="M63.6172 209.057C65.1478 209.21 67.0875 211.529 68.2725 212.499C69.4873 213.493 70.9365 214.261 72.2961 214.976C73.9473 215.845 75.8949 216.122 77.5333 217.005C79.2369 217.922 81.0179 218.925 82.8371 219.598C84.4016 220.178 85.8917 221.079 87.4259 221.776C88.9512 222.47 90.7857 222.731 92.3473 223.356C94.2999 224.137 96.8618 224.705 98.9147 225.218C100.874 225.708 102.833 226.418 104.767 227.014C108.729 228.233 112.737 228.809 116.871 228.809C120.806 228.809 124.841 229.109 128.709 229.109C132.446 229.109 136.233 228.809 139.915 228.809C143.06 228.809 146.013 226.714 149.209 226.714" stroke="#171717" stroke-width="2" stroke-linecap="round"/>
<path d="M64.5134 209.358C62.3447 207.189 60.2867 205.047 58.1622 202.84C56.594 201.212 55.3205 199.302 53.8892 197.553C53.3309 196.871 52.6514 196.745 52.1767 195.891C51.7382 195.101 50.6558 194.561 50.0818 193.796C46.7672 189.376 43.1344 185.409 41.2367 180.096C40.5458 178.161 39.3319 176.289 38.776 174.343C38.38 172.957 37.7905 171.137 37.2131 169.854C34.5049 163.835 32.3819 157.606 30.3964 151.299C29.3575 147.999 28.4767 144.73 28.0022 141.29C27.6254 138.558 26.5844 135.793 26.5058 133.043C26.3969 129.23 26.2066 125.344 26.2066 121.604C26.2066 118.646 25.9073 115.688 25.9073 112.709C25.9073 111.382 25.6278 109.66 26.2066 108.503" stroke="#171717" stroke-width="2" stroke-linecap="round"/>
<path d="M1.89062 115.794C1.89062 111.005 2.84962 105.988 5.01869 101.65C6.92124 97.8448 8.89314 93.512 9.83923 89.3492C10.2649 87.4763 11.2434 85.6877 11.9548 83.9091C12.8253 81.7328 13.4512 79.3158 14.6749 77.3054C15.8734 75.3363 16.5717 72.9828 17.6065 70.9132C18.9003 68.3255 19.9439 65.6128 21.475 63.1459C23.4753 59.9233 25.0971 56.237 27.5951 53.3688C29.8407 50.7906 31.8657 48.0767 34.2593 45.6166C35.5444 44.2958 36.5082 42.6274 37.7953 41.2645C38.6454 40.3645 39.4395 39.3503 40.2585 38.4085C40.7818 37.8067 41.8323 36.4178 42.5554 36.0964C43.5099 35.6722 44.1064 34.4109 44.7164 33.6483C45.6066 32.5355 46.4592 31.2406 47.4667 30.2332C49.3561 28.3437 51.3004 26.5975 53.7832 25.4882" stroke="#171717" stroke-width="2" stroke-linecap="round"/>
<path d="M50.5781 27.6629C52.6419 27.6629 54.5285 26.5908 56.1845 25.4868C58.6889 23.8172 61.3496 22.3043 63.9064 20.7418C67.6436 18.4579 71.4568 16.2567 75.4817 14.4857C80.1269 12.4418 84.6753 9.08972 89.7318 8.07841C94.7859 7.06759 99.6814 5.48038 104.843 4.81434C108.6 4.32961 112.294 3.58612 116.071 3.24274C118.638 3.0094 121.18 2.77166 123.748 2.57784C126.118 2.3989 128.52 2.53607 130.88 2.30583C138.168 1.5948 146.198 1.64851 153.064 4.48189C156.618 5.94867 160.255 7.16677 163.793 8.68287C167.491 10.2678 171.128 12.1648 174.673 14.0626" stroke="#171717" stroke-width="2" stroke-linecap="round"/>
<path d="M166.18 9.16528C167.722 9.33668 168.817 10.929 170.26 11.3413C171.944 11.8226 173.593 13.2576 175.156 14.0614C180.139 16.6244 185.637 18.3508 190.449 21.194C201.473 27.7087 211.767 35.8027 220.097 45.6141C222.401 48.3274 224.779 50.9739 226.822 53.9103C228.972 57.0018 230.314 60.4038 232.277 63.5666C235.359 68.5316 237.032 74.5963 238.866 80.0985C239.3 81.4007 239.792 82.8632 240.15 84.1181C240.417 85.052 241.149 86.2889 241.253 87.2311C241.41 88.6379 242.556 90.0353 242.87 91.4472C243.038 92.2028 243.357 93.0712 243.701 93.7593" stroke="#171717" stroke-width="2" stroke-linecap="round"/>
<path d="M242.07 89.1364C242.07 94.2693 244.811 99.1887 246.846 103.84C249.345 109.553 249.765 116.176 250.563 122.261C251.649 130.544 251.344 139.566 249.822 147.784C249.462 149.731 249.36 152.048 248.538 153.874C247.708 155.719 246.801 157.499 245.894 159.314C244.27 162.56 243.22 165.594 242.342 169.106" stroke="#171717" stroke-width="2" stroke-linecap="round"/>
<path d="M110.672 250.624C116.361 250.624 122.05 250.624 127.739 250.624C132.417 250.624 136.478 249.794 141.057 248.946C147.65 247.726 154.574 247.377 161.003 245.591C164.485 244.624 167.75 243.347 171.049 241.863C174.469 240.324 178.041 239.246 181.219 237.202C186.922 233.536 193.286 230.381 198.286 225.645C200.1 223.926 202.408 222.497 204.417 221.005C208.533 217.947 212.713 214.368 215.954 210.38C217.849 208.047 219.743 205.729 221.401 203.192C223.267 200.338 225.819 197.902 227.574 195.031C231.915 187.928 236.317 181.366 239.67 173.822C240.65 171.615 241.242 169.063 241.907 166.738C242.514 164.611 244.516 162.535 244.516 160.4" stroke="#171717" stroke-width="2" stroke-linecap="round"/>
<path d="M5.53685 100.749C5.53685 105.315 3.62787 109.191 2.94778 113.611C2.33514 117.594 1.80859 121.242 1.80859 125.355C1.80859 132.262 4.42623 138.661 5.18474 145.488C5.74288 150.511 6.90973 155.518 8.22949 160.401C9.09596 163.607 10.5101 166.66 11.5849 169.805C13.1635 174.423 14.4854 179.012 16.3488 183.537C19.3267 190.769 24.0324 196.028 29.3149 201.702C31.2777 203.81 32.3375 206.7 34.2652 208.869C35.095 209.802 35.7553 210.76 36.4814 211.768C36.7936 212.202 38.3158 212.597 37.2271 212.597" stroke="#171717" stroke-width="2" stroke-linecap="round"/>
<path d="M33.8711 210.36C36.4682 212.698 38.9063 215.726 41.8661 217.61C46.3043 220.434 50.3985 223.784 54.7494 226.765C59.7123 230.165 64.6604 233.363 69.8488 236.437C73.8842 238.829 78.1775 240.399 82.3385 242.423C85.6945 244.056 89.4168 245.01 92.7776 246.69C96.2606 248.432 100.955 248.248 104.708 249.134C110.232 250.438 115.883 251.142 121.485 251.765C123.144 251.949 133.923 252.014 133.788 251.744" stroke="#171717" stroke-width="2" stroke-linecap="round"/>
<path d="M374.784 45.9269C374.365 45.9269 373.934 45.8952 373.517 45.9369C372.617 46.0269 371.792 46.5653 371.057 47.0495C370.447 47.4515 369.868 47.969 369.351 48.4865C369.019 48.8185 368.604 49.1295 368.498 49.6091C367.967 51.9952 368.228 54.5537 368.228 56.9936C368.228 58.1436 368.451 59.1675 368.812 60.2518C369.159 61.2914 370.107 61.9234 371.052 62.4123C372.585 63.2049 374.007 64.0771 375.722 64.473C377.446 64.8708 378.937 64.644 380.443 63.7545C382.211 62.7093 383.5 61.424 384.504 59.6481C385.112 58.5724 385.427 57.2727 385.696 56.0756C385.994 54.7517 386.154 53.0674 385.652 51.7746C385.202 50.6181 384.454 49.5053 383.586 48.6212C382.693 47.7119 381.499 46.6009 380.263 46.1963C379.606 45.9814 378.96 45.7288 378.287 45.5676C377.593 45.4015 376.841 45.4778 376.132 45.4778C375.593 45.4778 374.954 45.3803 374.425 45.4978C374.138 45.5617 373.821 45.6574 373.527 45.6574" stroke="#171717" stroke-width="2" stroke-linecap="round"/>
<g filter="url(#filter0_dd_2997_20828)">
<path d="M131.837 172.733C155.222 168.61 170.511 145.75 166.306 121.902C164.224 110.094 157.282 97.5321 148.129 88.3772C139.042 79.2884 126.989 72.8266 114.606 75.0102C102.222 77.1937 93.1061 87.3883 87.6759 99.0368C82.2062 110.77 79.9793 124.949 82.0613 136.757C86.2663 160.604 108.452 176.857 131.837 172.733Z" fill="white" stroke="white" stroke-width="8"/>
<path d="M89.0852 145.347C89.0573 144.791 90.3667 145.909 90.4743 145.979C94.1981 148.415 97.7128 151.408 100.801 154.605C101.629 155.462 102.391 156.379 103.219 157.235C103.444 157.468 104.107 157.936 104.17 158.295C104.243 158.707 103.461 157.844 103.141 157.575C101.723 156.382 100.301 155.191 98.9412 153.931C96.5973 151.758 94.2377 149.454 92.2921 146.911C91.9613 146.479 90.7881 145.76 91.3105 145.606C91.6635 145.503 93.26 146.925 93.5148 147.097C95.6208 148.515 97.72 149.945 99.7976 151.4C100.146 151.644 101.199 152.323 100.791 152.202C99.8949 151.936 98.7482 150.65 98.0878 150.086C95.3549 147.751 92.7509 145.244 90.4355 142.491C90.292 142.321 89.8379 141.833 90.0068 141.978C91.0007 142.833 92.1113 143.522 93.2201 144.218C95.9671 145.94 98.6715 147.731 101.43 149.434C101.777 149.648 102.748 150.384 102.45 150.106C101.434 149.154 100.264 148.343 99.2208 147.418C96.5462 145.049 93.8578 142.452 91.5492 139.715C90.0552 137.943 95.4006 142.294 97.299 143.624C98.6328 144.557 99.9714 145.485 101.3 146.425C101.823 146.795 103.093 148.168 102.832 147.583C102.543 146.934 100.985 145.964 100.532 145.546C98.3265 143.512 96.1873 141.387 94.074 139.257C93.7289 138.909 91.6339 136.597 91.9091 136.783C94.4452 138.493 97.1864 139.934 99.8261 141.474C100.718 141.995 101.605 142.523 102.496 143.045C102.734 143.186 103.292 143.467 102.766 142.948C100.417 140.627 97.7598 138.662 95.4736 136.254C94.9713 135.726 94.9299 135.677 95.6379 136.05C97.3147 136.934 99.0173 137.764 100.684 138.668C102.455 139.628 104.273 141.012 106.16 141.735C107.582 142.28 104.117 139.477 103.052 138.388C99.476 134.73 95.2506 130.961 92.4264 126.646C92.1832 126.274 92.4384 126.434 92.6365 126.558C94.2707 127.588 96.054 128.396 97.7648 129.287C100.853 130.894 103.9 132.674 107.08 134.095C107.211 134.154 107.581 134.315 107.499 134.197C107.248 133.835 106.828 133.625 106.485 133.348C103.072 130.598 99.8279 127.644 96.6543 124.622C94.9361 122.987 93.2635 121.305 91.5256 119.69C90.7037 118.926 90.4153 118.694 91.6142 119.411C95.0646 121.474 98.6773 123.254 102.097 125.366C102.194 125.427 103.416 126.349 103.601 126.228C103.741 126.137 103.383 125.976 103.261 125.862C102.838 125.466 102.418 125.093 101.981 124.71C100.877 123.742 99.8086 122.745 98.7284 121.751C98.3002 121.357 96.8298 120.611 97.4116 120.606C98.0168 120.6 99.4895 121.881 99.886 122.136C102.353 123.721 104.765 125.356 107.134 127.083C108.11 127.794 109.094 128.483 110.142 129.083C110.255 129.148 110.555 129.363 110.497 129.246C110.233 128.715 109.075 127.827 108.765 127.522C105.191 124.01 101.388 120.444 98.3661 116.429C98.3656 116.428 97.2929 115.252 98.0518 115.783C99.4983 116.796 101.018 117.668 102.548 118.548C105.538 120.267 108.575 122.017 111.301 124.144C114.005 126.254 106.955 118.833 104.644 116.299C102.971 114.464 101.286 112.637 99.7461 110.687C99.3618 110.2 98.1143 108.92 98.6873 109.157C101.541 110.338 104.281 112.647 106.864 114.329C107.45 114.711 108.146 115.375 108.819 115.613C110.33 116.147 106.597 113.303 105.447 112.187C103 109.812 100.619 107.376 98.2963 104.88C97.768 104.312 96.6198 103.071 96.0485 102.433C95.6094 101.942 94.1893 100.921 94.8454 100.866C95.6795 100.796 98.2744 103.125 98.8696 103.514C101.403 105.166 103.948 106.804 106.461 108.488C107.949 109.485 109.415 110.514 110.882 111.542C111.464 111.949 112.45 112.749 111.262 111.562C107.84 108.147 104.312 104.828 101.268 101.061C99.8509 99.3075 103.475 101.993 103.877 102.217C106.823 103.86 109.707 105.686 112.732 107.182C113.699 107.661 113.069 106.878 112.722 106.42C110.62 103.642 108.341 100.983 106.118 98.3023C105.231 97.2333 104.287 96.1988 103.491 95.0577C103.239 94.6954 102.346 93.5102 103.427 94.2673C106.908 96.7048 110.299 99.2778 113.863 101.596C114.322 101.895 115.423 102.998 115.247 102.48C114.993 101.732 113.659 100.73 113.169 100.216C110.326 97.2323 106.956 94.4139 104.497 91.0975C104.318 90.8571 105.043 91.3472 105.295 91.5078C106.761 92.4397 108.298 93.2545 109.802 94.1203C111.301 94.9828 112.783 95.8742 114.264 96.7656C114.323 96.8008 116.106 97.9429 115.845 97.489C114.225 94.673 111.41 92.3742 109.385 89.8348C109.017 89.3746 107.763 88.1837 108.289 88.4498C109.515 89.0713 110.664 90.0324 111.849 90.7405C113.484 91.7176 115.119 92.6971 116.78 93.6289C117.543 94.0567 119.124 95.3428 120.071 95.3158C120.825 95.2943 119.442 93.9329 118.994 93.3262C117.713 91.5911 116.262 89.9722 115.034 88.1999C114.719 87.7454 113.663 86.6122 114.193 86.7699C114.518 86.8666 115.119 87.4814 115.39 87.6611C117.292 88.9265 119.372 90.0262 121.402 91.0727C121.668 91.2094 122.137 91.3385 121.887 90.837C120.856 88.7669 119.222 86.8611 117.92 84.9603C116.836 83.3786 115.765 81.7896 114.733 80.1735C114.497 79.804 113.74 78.7483 114.07 79.0379C117.08 81.6866 126.92 88.6324 123.636 86.3324C122.336 85.4226 121.196 84.2273 119.766 83.4949C119.118 83.1635 119.979 84.2451 120.052 84.4089C120.439 85.276 118.542 83.9854 118.246 83.8256C118.043 83.7165 114.617 82.2423 114.629 82.4967C114.64 82.7055 115.482 83.1832 115.64 83.3958C115.856 83.6875 113.729 82.1217 113.423 81.9077C112.927 81.56 111.032 80.3713 111.956 81.8281C112.819 83.1894 113.627 84.5677 114.209 86.0781C114.889 87.8442 109.381 84.2948 110.138 86.7207C110.548 88.0347 111.196 89.276 111.623 90.5926C111.798 91.1332 111.307 90.7347 111.12 90.5811C109.934 89.6074 108.906 88.4464 107.758 87.4285C107.594 87.2833 105.149 85.0515 105.193 85.7389C105.371 88.5216 106.225 91.3186 106.601 94.0834C106.64 94.3702 107.441 98.7873 106.812 98.8312C106.438 98.8573 105.931 97.6178 105.842 97.449C104.755 95.3802 103.718 93.2832 102.672 91.1937C102.544 90.9386 100.167 86.5826 100.447 88.3043C101.056 92.0577 101.988 95.7892 103.096 99.4238C103.699 101.4 104.171 104.126 105.232 105.924C106.128 107.441 103.112 103.109 102.013 101.732C101.693 101.331 100.951 100.093 100.354 99.9951C99.9079 99.9216 100.147 103.406 100.147 103.514C100.153 106.697 99.5383 109.925 99.6572 113.095C99.7077 114.442 99.6639 112.205 99.673 111.977C99.7454 110.182 99.6172 108.413 99.568 106.622C99.5194 104.851 98.8597 103.153 99.3687 101.371C99.865 99.6338 99.1725 97.7012 98.8656 95.961C98.6574 94.78 98.2151 95.4869 97.5386 96.1073C96.4736 97.0841 95.3925 98.2712 94.7848 99.5991C93.2844 102.878 92.0401 106.502 91.1425 109.987C90.1295 113.919 90.027 117.766 89.6674 121.796C89.2884 126.041 89.9952 130.049 90.7289 134.21C90.9481 135.453 91.1674 136.696 91.3866 137.94C91.5851 139.066 91.4789 138.463 91.3416 137.684C89.5835 127.714 89.6519 117.6 94.0633 108.294C95.2346 105.823 96.5817 103.472 97.9302 101.099C98.9047 99.3841 97.538 101.523 97.1719 101.984C95.6649 103.882 94.3915 105.541 93.3688 107.765C92.0361 110.663 90.8312 113.735 89.9124 116.792C89.0579 119.636 88.5554 122.593 88.1204 125.526C87.7283 128.17 87.3348 130.959 87.7077 133.628C87.9515 135.373 88.3086 137.107 88.6145 138.842C88.6333 138.948 89.0223 140.756 89.2731 140.517C89.8104 140.004 90.082 138.173 90.2518 137.614C91.6119 133.137 92.9841 128.665 94.3483 124.19C97.5178 113.793 101.237 103.535 104.248 93.0955C104.578 91.9508 105.684 89.2987 104.541 91.9165C101.543 98.7835 99.8894 106.358 98.458 113.682C97.9142 116.465 97.2377 124.805 96.7454 122.013C95.9671 117.6 96.8075 112.592 97.1325 108.154C97.183 107.463 97.5145 105.416 97.3443 106.087C96.9026 107.829 96.7844 109.696 96.476 111.464C95.6406 116.254 94.4263 121.002 93.81 125.825C93.7929 125.959 93.74 126.991 93.6027 126.213C93.3085 124.544 93.1368 122.846 92.9874 121.16C92.7873 118.901 92.7334 116.634 92.5425 114.375C92.4593 113.391 92.5101 110.54 92.1134 111.444C91.9456 111.826 92.1454 112.681 92.1975 113.057C92.4452 114.847 92.8143 116.626 93.1279 118.405C93.6804 121.538 93.7786 125.793 95.4746 128.588C95.6863 128.937 95.5538 127.772 95.522 127.365C95.3181 124.758 95.0792 122.153 94.9071 119.544C94.7626 117.355 94.4534 110.808 94.8737 112.961C95.5426 116.389 96.2289 119.806 97.7786 122.971C97.9069 123.233 100.427 127.798 100.8 126.397C101.346 124.345 100.334 121.631 99.8363 119.652C99.7206 119.192 99.2454 118.251 99.3764 117.754C99.4865 117.337 102.293 119.339 102.3 119.343C106.327 122.097 110.352 124.856 114.389 127.595C115.133 128.1 115.941 128.716 116.806 129.011C117.41 129.217 115.972 126.987 115.955 126.956C114.52 124.325 112.852 121.28 112.369 118.269C112.147 116.888 115.853 119.102 116.163 119.253C117.447 119.882 121.173 121.845 120.141 120.857C116.697 117.561 113.331 114.278 110.116 110.75C109.445 110.012 107.516 108.129 109.729 109.265C113.585 111.243 117.541 113.169 121.258 115.399C121.536 115.566 122.375 116.037 122.134 115.821C120.838 114.659 119.484 113.58 118.22 112.377C116.529 110.769 114.838 109.135 113.261 107.414C112.679 106.78 111.674 105.891 111.33 105.062C111.181 104.7 112.07 105.325 112.422 105.496C114.257 106.387 116.076 107.313 117.901 108.225C119.61 109.079 121.295 109.961 122.958 110.903C123.597 111.265 125.378 112.474 124.924 111.897C123.899 110.592 122.471 109.507 121.293 108.353C119.135 106.239 116.916 104.103 114.985 101.774C114.778 101.525 113.698 100.391 113.817 99.9134C113.862 99.7343 117.15 101.623 117.178 101.638C120.928 103.703 124.647 106.093 128.509 107.932C129.703 108.501 128.757 107.622 128.352 107.184C125.079 103.645 121.707 100.199 118.505 96.594C116.684 94.543 114.861 92.466 113.185 90.292C113.138 90.2301 111.88 88.7803 112.031 88.5039C112.153 88.2807 119.087 92.6296 119.607 92.9676C120.526 93.565 121.428 94.215 122.398 94.7302C123.077 95.0905 121.271 93.6863 120.696 93.1764C118.325 91.0723 116.064 88.86 113.913 86.5312C112.842 85.3715 110.69 83.5988 110.161 82.0194C109.803 80.9507 112.247 82.8921 113.221 83.459C117.121 85.7286 120.933 88.1348 124.644 90.7016C126.254 91.8154 127.911 92.9045 129.454 94.1123C131.076 95.3814 129.306 94.4963 128.569 93.9928C125.261 91.7358 121.223 89.277 118.655 86.1459C117.005 84.1343 123.097 88.862 125.233 90.3472C126.234 91.0434 127.247 91.7073 128.29 92.3385C128.322 92.3579 129.163 92.9385 129.188 92.8189C129.27 92.4273 129.39 92.4701 129.803 92.3973C130.851 92.2126 129.094 90.9464 128.859 90.7351C126.545 88.6537 124.053 86.5238 122.373 83.8619C121.602 82.6392 124.854 85.3524 126.145 86.0026C127.473 86.6711 131.521 88.5363 130.149 87.9647C127.08 86.686 118.555 81.5071 121.621 82.792C122.619 83.2102 123.601 83.6236 124.562 84.1273C125.68 84.7138 126.964 85.0463 128.044 85.6177C128.811 86.0236 127.555 85.6242 127.317 85.4704C127.222 85.4093 125.106 83.8561 125.723 83.7473C127.127 83.4996 128.692 84.0451 130.048 84.3375C131.059 84.5554 131.17 84.6099 130.029 84.0152C128.615 83.2785 127.115 82.5416 125.566 82.1466C124.883 81.9727 124.426 82.0469 125.089 81.93C125.938 81.7803 123.38 81.6991 122.53 81.5545C121.756 81.4229 123.39 81.7347 123.589 81.8062C126.693 82.9204 129.565 84.6788 132.423 86.2986C135.561 88.0771 138.672 90.1933 141.112 92.8834C141.213 92.9944 142.249 94.5362 141.966 94.3863C141.394 94.0836 139.992 92.7164 140.522 93.0877C141.349 93.6665 142.017 94.5005 142.66 95.2661C144.01 96.8738 139.708 94.1381 139.537 94.038C138.057 93.1732 136.585 92.2944 135.116 91.4105C134.691 91.155 133.499 90.2874 133.841 90.6457C134.748 91.5949 135.66 92.5465 136.341 93.6745C136.542 94.0069 136.612 94.2106 136.124 93.8631C134.792 92.915 133.593 91.7827 132.279 90.8084C131.133 89.9593 129.921 89.2091 128.747 88.3997C127.993 87.879 127.944 87.824 128.517 88.6534C129.804 90.5179 131.23 92.2158 132.282 94.2399C132.48 94.62 132.372 94.6818 131.997 94.4657C130.817 93.7873 129.761 92.9094 128.583 92.2242C126.509 91.0185 128.036 92.5543 128.711 93.379C128.993 93.7242 130.258 95.896 129.947 95.6287C127.73 93.7255 125.704 91.4648 123.305 89.7853C121.69 88.6545 125.677 92.9388 126.757 94.5879C127.456 95.654 128.095 96.7457 128.735 97.8467C128.746 97.8655 129.305 98.8959 129.268 98.8801C128.48 98.5455 127.705 97.4407 127.111 96.8803C125.934 95.7688 124.724 94.6725 123.431 93.6963C123.218 93.5355 122.638 93.0533 123.119 93.7012C124.24 95.2132 125.441 96.6529 126.495 98.2165C127.439 99.6172 128.347 101.053 129.229 102.494C129.304 102.618 130.564 104.603 129.563 103.964C127.661 102.748 126.06 100.878 124.481 99.2981C122.649 97.4638 120.795 95.6458 118.998 93.7764C118.943 93.719 117.762 92.4797 117.851 92.6008C118.853 93.9508 119.93 95.2506 120.947 96.5893C122.998 99.2874 125.562 102.172 127.012 105.265C127.209 105.687 126.089 105.022 125.717 104.742C123.371 102.976 121.193 100.984 118.999 99.0373C118.37 98.4796 116.574 96.7405 117.061 97.4249C117.834 98.5102 118.791 99.4922 119.625 100.53C120.663 101.82 121.621 103.154 122.547 104.524C122.567 104.555 123.779 106.391 123.55 106.377C122.166 106.288 120.005 104.379 118.97 103.702C115.567 101.478 112.225 99.1593 108.851 96.8935C108.772 96.8406 106.019 94.7552 105.714 95.0916C105.547 95.2767 108.708 99.2595 108.822 99.4289C112.495 104.903 115.763 110.699 118.689 116.603C119.141 117.515 119.619 118.423 119.956 119.386C120.319 120.421 119.089 118.936 118.965 118.809C118.061 117.884 117.128 116.988 116.226 116.061C116.039 115.868 115.551 115.14 115.225 115.072C115.005 115.026 115.508 115.423 115.666 115.583C116.389 116.317 117.038 117.095 117.623 117.944C117.915 118.368 118.308 118.83 118.492 119.319C118.708 119.893 117.382 118.78 116.881 118.425C112.016 114.978 107.859 110.787 103.181 107.15C103.045 107.044 102.177 106.407 102.694 107.086C103.768 108.496 104.726 109.956 105.613 111.494C105.884 111.963 109.78 118.466 109.364 118.774C109.051 119.006 102.471 113.453 101.714 112.895C101.262 112.562 99.9592 111.6 100.232 112.092C101.177 113.795 102.201 115.419 103.058 117.18C104.311 119.755 105.224 122.475 106.474 125.045C106.962 126.048 104.8 124.189 104.531 123.972C103.267 122.955 108.527 128.763 107.023 128.155C106.174 127.812 105.536 125.911 104.971 125.185C104.821 124.993 100.617 126.142 100.238 126.195C99.1174 126.351 97.3785 126.785 96.2996 126.163C95.1961 125.527 94.2813 124.316 93.3659 123.449C92.7749 122.888 90.9438 120.924 91.4994 122.951C92.4874 126.556 94.6306 129.682 96.6396 132.779C98.5281 135.692 100.174 138.818 101.898 141.861C102.95 143.715 103.665 145.943 105.039 147.595C105.302 147.912 104.587 146.682 104.392 146.481C103.616 145.685 103.637 146.036 103.791 146.913C104.079 148.544 104.7 149.922 105.27 151.462C105.459 151.972 106.057 152.584 106.364 153.048C107.079 154.131 107.994 156.107 109.145 156.817C109.379 156.961 109.218 156.252 109.125 155.993C108.681 154.755 108.149 153.544 107.675 152.316C107.54 151.965 106.147 148.466 106.897 148.896C108.277 149.686 109.684 150.807 111.223 151.264C111.648 151.391 111.616 151.057 111.481 150.743C110.693 148.907 109.441 147.184 108.4 145.487C107.428 143.902 104.527 139.142 105.472 140.742C106.402 142.318 108.634 144.195 110.192 145.133C112 146.222 109.825 142.852 109.541 142.367C109.145 141.693 108.209 140.847 109.071 142.049C109.17 142.186 110.548 143.917 110.561 143.39C110.61 141.215 108.493 138.634 107.537 136.758C107.449 136.584 107.124 136.147 107.126 136.342C107.128 136.585 107.441 137.255 107.313 137.048C106.286 135.392 105.034 133.818 103.635 132.46C102.811 131.659 104.191 134.397 104.243 134.483C105.174 136.045 109.072 139.916 107.77 138.646C105.172 136.111 96.9966 128.915 99.7768 131.249C101.806 132.953 104.326 134.337 106.682 135.531C109.729 137.075 107.285 133.172 106.572 131.993C105.998 131.044 105.296 130.149 104.817 129.145C104.587 128.664 104.454 128.484 104.872 128.885C107.067 130.994 110.248 132.499 113.064 133.579C113.221 133.638 114.377 134.212 114.086 133.549C113.514 132.242 112.472 131.048 111.619 129.925C110.779 128.822 109.928 127.725 109.061 126.644C108.978 126.54 108.403 125.785 108.437 125.877C108.802 126.863 109.89 128.131 110.876 128.553C111.141 128.667 110.813 127.966 110.677 127.711C110.024 126.488 109.261 125.31 108.702 124.039C108.039 122.532 108.746 123.797 109.288 124.311C109.608 124.614 111.348 125.972 111.352 124.862C111.355 124.026 110.685 122.995 111.674 123.778C112.109 124.121 112.704 124.711 113.206 124.86" stroke="#FFD424" stroke-width="2" stroke-linecap="round"/>
<path d="M142.391 92.4442C142.583 93.1255 143.26 93.6695 143.738 94.1541C144.801 95.2326 145.703 96.4102 146.599 97.6302C148.788 100.609 150.086 103.678 151.417 107.09C151.81 108.097 153.982 112.076 151.641 109.657C146.363 104.202 141.341 98.2345 135.641 93.2193C134.479 92.1976 138.393 94.634 139.735 95.4041C143.425 97.5228 147.123 99.8396 150.509 102.425C150.759 102.616 153.234 104.928 152.792 104.815C148.572 103.734 144.347 100.767 140.618 98.6276C138.364 97.334 131.536 93.6055 133.927 94.624C137.363 96.0876 140.5 99.2735 143.298 101.649C145.796 103.769 148.589 106.116 150.391 108.903C150.926 109.732 149.979 109.232 149.608 109.013C147.024 107.481 144.628 105.529 142.233 103.727C139.151 101.407 135.799 98.9229 133.226 96.0077C131.684 94.2611 136.663 99.1536 138.334 100.777C140.074 102.469 142.636 104.423 143.673 106.694C143.994 107.398 142.946 106.748 142.84 106.684C140.142 105.05 137.725 102.869 135.288 100.885C132.493 98.6085 124.301 91.5673 126.874 94.0921C129.773 96.9374 132.713 99.6857 135.389 102.757C137.887 105.622 140.361 108.591 142.627 111.647C143.264 112.505 142.506 112.215 141.867 111.881C139.109 110.442 136.666 108.303 134.347 106.263C132.537 104.671 130.832 102.988 129.167 101.248C129.013 101.088 126.81 98.3886 126.429 98.5521C126.338 98.5911 126.455 98.7505 126.494 98.8412C126.661 99.2284 127.343 100.418 127.474 100.659C128.36 102.295 129.062 104 129.809 105.703C130.025 106.195 133.149 112.225 132.385 112.68C131.272 113.342 125.952 104.323 125.367 103.407C124.536 102.108 122.736 97.9089 123.004 99.4281C123.567 102.623 124.678 105.73 125.742 108.782C127.205 112.984 128.522 117.277 130.2 121.398C131.53 124.666 130.177 119.837 129.913 118.958C129.34 117.055 128.854 114.452 127.68 112.793C127.474 112.502 127.969 115.892 128.025 116.212C128.566 119.277 129.325 122.29 129.894 125.347C130.39 128.015 128.58 123.439 128.443 123.126C126.269 118.18 124.481 112.948 123.038 107.741C122.795 106.864 122.654 105.913 122.322 105.061C122.072 104.421 122.342 106.437 122.427 107.119C122.98 111.553 123.855 115.948 124.631 120.347C124.711 120.806 125.763 125.946 124.89 123.28C123.555 119.202 120.917 106.593 121.662 110.819C122.383 114.906 123.103 118.994 123.824 123.081C124.155 124.956 124.495 126.829 124.816 128.705C124.99 129.724 125.355 131.005 125.149 132.055C125.11 132.25 124.75 131.888 124.658 131.711C123.607 129.679 122.857 127.499 122.185 125.317C120.855 121.001 119.629 116.598 118.804 112.153C118.41 110.029 118.935 112.897 119.012 113.334C119.762 117.585 120.597 121.831 121.249 126.098C121.33 126.633 121.966 130.909 121.339 128.316C120.33 124.135 119.244 119.966 118.421 115.743C118.212 114.673 118.028 113.598 117.839 112.524C117.787 112.233 117.672 111.518 117.804 112.33C118.694 117.769 119.166 123.312 119.536 128.806C119.815 132.966 120.152 137.375 119.4 141.516C119.351 141.784 119.275 142.222 119.121 141.723C118.534 139.818 118.136 137.815 117.717 135.871C115.863 127.274 111.47 101.252 112.997 109.913C114.724 119.707 116.496 129.495 118.178 139.297C118.206 139.459 118.725 143.983 118.038 142.157C115.944 136.592 115.059 130.377 114.031 124.55C113.737 122.88 113.419 121.21 113.203 119.527C113.15 119.113 112.806 117.716 113.061 117.261C113.162 117.081 113.298 117.611 113.344 117.813C113.75 119.589 113.995 121.419 114.311 123.212C115.241 128.484 116.196 133.753 117.1 139.029C117.24 139.845 117.913 144.046 116.868 140.96C115.054 135.61 112.004 118.899 112.985 124.463C113.781 128.976 114.485 133.492 114.712 138.076C114.888 141.611 115.179 145.686 114.306 149.173C114.202 149.589 114.016 149.759 113.742 149.301C112.413 147.076 112.033 143.914 111.498 141.449C110.3 135.921 109.339 130.333 108.397 124.756C108.219 123.7 108.161 122.328 108.677 124.148C109.841 128.255 110.35 132.658 111.033 136.863C111.55 140.042 112.105 143.366 111.992 146.603C111.925 148.511 111.302 144.152 111.252 143.869C110.818 141.407 110.384 138.944 109.949 136.481C109.844 135.881 110.898 139.776 110.997 140.148C112.385 145.39 116.133 161.217 114.665 155.997C113.896 153.265 113.023 150.57 112.023 147.914C111.429 146.338 110.789 144.777 110.216 143.193C110.062 142.766 109.919 141.555 109.681 141.941C109.137 142.824 110.665 146.595 110.86 147.49C111.418 150.054 112.292 152.561 112.726 155.15C113.221 158.109 110.993 154.186 110.494 153.453C109.496 151.99 108.348 150.406 107.728 148.729C107.231 147.386 109.02 151.296 109.847 152.465C111.359 154.602 113.019 156.843 114.846 158.728C116.252 160.18 114.122 158.611 113.578 158.279C111.122 156.78 108.607 155.506 106.056 154.193C104.966 153.632 106.214 154.9 106.443 155.084C108.013 156.35 109.74 157.527 111.478 158.549C111.599 158.62 113.378 159.636 112.689 159.166C109.706 157.132 106.544 155.29 103.5 153.34C102.786 152.883 102.053 152.478 101.314 152.065C101.09 151.94 100.741 151.404 100.668 151.649C100.53 152.113 105.372 155.041 105.735 155.295C108.06 156.923 110.477 158.44 112.77 160.111C114.486 161.361 111.963 160.196 111.386 159.897C108.471 158.385 105.712 156.57 102.821 155.007C101.182 154.12 102.216 154.609 103.153 155.349C104.744 156.605 106.492 157.577 108.146 158.736C108.781 159.181 109.037 159.656 108.073 159.135C105.412 157.695 102.652 155.719 99.7811 154.741C98.5793 154.331 97.8013 153.288 96.8023 152.546C96.2977 152.17 95.8124 152.132 95.3305 151.831C95.026 151.641 94.6956 151.509 94.3911 151.295C94.3073 151.237 93.7948 150.688 93.7214 150.826C93.3091 151.606 98.7502 156.259 99.343 156.722C105.132 161.247 111.969 165.473 119.051 167.638C121.061 168.252 122.807 168.321 124.892 167.954C127.875 167.428 130.851 167.054 133.628 165.769C133.907 165.64 135.116 165.277 135.288 165.032C135.328 164.975 133.311 164.928 133.177 164.918C129.715 164.643 126.276 164.457 122.837 163.935C120.777 163.622 118.702 163.34 116.652 162.963C116.133 162.868 114.735 162.787 114.292 162.406C114.052 162.2 114.901 162.241 115.212 162.186C116.454 161.967 117.677 161.814 118.941 161.815C120.875 161.817 122.853 161.939 124.755 162.308C125.733 162.497 125.515 162.66 124.519 162.836C122.234 163.239 119.892 163.053 117.585 163.056C116.222 163.059 116.199 163.043 117.499 162.814C119.111 162.53 120.712 162.334 122.351 162.474C122.935 162.524 124.013 162.619 122.649 162.622C119.153 162.63 115.35 161.809 111.929 161.104C111.668 161.051 109.483 160.619 109.869 160.551C112.605 160.069 115.366 159.755 118.131 159.495C121.105 159.215 124.169 159.318 127.115 158.799C128.92 158.481 123.456 157.345 123.376 157.325C118.91 156.182 114.408 155.171 109.898 154.217C108.43 153.906 107.82 153.805 109.709 153.792C115.136 153.755 131.172 156.785 125.902 155.49C122.328 154.612 118.772 153.593 115.236 152.574C114.258 152.293 110.083 151.395 113.28 150.986C117.448 150.453 121.734 150.165 125.936 150.244C126.213 150.249 130.603 150.495 128.907 150.121C125.769 149.428 122.597 148.891 119.46 148.192C118.225 147.917 116.402 147.561 118.674 147.143C121.995 146.531 125.294 145.985 128.675 145.88C129.398 145.858 131.225 146.052 131.847 145.521C132.247 145.18 129.095 143.857 129.075 143.848C126.25 142.6 123.367 141.465 120.565 140.165C118.937 139.411 120.713 139.682 121.629 139.706C125.772 139.81 129.863 140.438 133.91 141.306C135.145 141.571 136.366 141.899 137.591 142.203C138.062 142.32 138.386 142.417 137.607 142.458C131.952 142.756 126.146 141.633 120.578 140.807C118.457 140.493 116.339 140.162 114.228 139.794C113.486 139.664 112.064 139.638 111.375 139.208C111.078 139.023 112.076 139.241 112.422 139.296C114.394 139.609 116.338 140.07 118.247 140.66C119.009 140.896 126.007 142.715 125.813 144.022C125.611 145.385 115.582 144.189 114.533 144.121C112.963 144.019 111.399 143.901 109.837 143.718C109.322 143.658 107.781 143.651 108.291 143.561C113.887 142.574 119.589 142.431 125.258 142.746C127.739 142.883 124.594 141.966 123.745 141.638C119.659 140.058 115.427 138.647 111.175 137.583C111.099 137.564 109.719 137.377 109.59 137.203C109.456 137.022 110.032 137.107 110.257 137.086C110.768 137.039 112.224 136.941 112.634 136.925C116.737 136.756 121.151 137.137 125.185 137.947C127.641 138.44 125.667 138.019 124.434 137.665C121.383 136.789 118.266 136.057 115.236 135.12C111.245 133.884 123.603 134.348 127.765 134.715C128.808 134.806 131.008 135.465 128.684 134.725C125.749 133.789 122.802 132.853 119.916 131.774C116.971 130.674 120.424 131.002 121.655 131.081C126.801 131.411 131.793 132.45 136.781 133.712C137.414 133.872 138.114 133.996 138.713 134.273C139.335 134.562 137.403 133.863 136.764 133.615C132.678 132.031 128.496 130.717 124.387 129.196C123.556 128.889 121.648 128.328 123.662 128.336C127.447 128.35 131.176 129.066 134.842 129.944C135.948 130.209 137.048 130.493 138.151 130.764C139.867 131.185 137.301 130.106 137.227 130.068C134.031 128.433 130.847 126.776 127.728 124.999C126.185 124.12 127.123 124.268 128.41 124.406C130.761 124.659 132.962 125.446 135.272 125.802C136.471 125.987 132.832 124.066 132.59 123.912C131.223 123.042 128.312 121.874 127.4 120.46C127.248 120.225 127.966 120.451 128.239 120.513C129.735 120.85 131.202 121.328 132.67 121.765C135.492 122.604 138.257 123.524 141.037 124.471C144.281 125.576 135.063 120.925 132.724 118.419C131.841 117.472 134.026 118.215 134.232 118.282C136.491 119.014 138.752 120.033 141.056 120.601C141.627 120.742 141.384 120.324 141.157 120.039C139.579 118.051 137.432 116.418 135.496 114.809C132.732 112.512 129.88 110.315 127.194 107.925C125.889 106.764 130.125 109.824 131.602 110.756C134.136 112.354 136.425 114.202 138.719 116.116C140.658 117.734 136.924 115.23 136.718 115.08C133.477 112.725 130.095 110.535 127.17 107.786C125.557 106.27 126.751 106.804 128.165 107.424C132.336 109.254 136.442 111.267 140.353 113.609C140.901 113.937 143.523 115.701 141.848 114.047C139.471 111.701 137.236 109.21 135.163 106.591C135.093 106.502 133.43 104.416 134.29 105.127C136.517 106.97 139.106 108.372 141.435 110.082C142.578 110.921 145.928 113.544 144.766 112.73C142.202 110.935 139.836 108.764 137.513 106.678C136.531 105.797 135.557 104.91 134.558 104.049C134.305 103.831 133.521 103.258 133.695 103.542C135.913 107.162 138.066 110.771 139.859 114.626C140.033 115 142.396 119.317 141.176 119.334C139.95 119.351 138.449 118.623 137.348 118.248C133.749 117.023 130.142 115.86 126.489 114.808C124.177 114.142 121.542 113.079 119.124 112.827C117.356 112.643 122.507 113.954 124.1 114.742C126.329 115.844 128.363 117.27 130.541 118.46C130.566 118.474 131.19 118.929 130.79 118.574C129.111 117.083 127.397 115.635 125.69 114.175C122.26 111.242 118.652 108.347 115.573 105.034C114.945 104.359 115.515 104.863 115.863 105.054C117.107 105.74 118.361 106.376 119.555 107.153C119.77 107.292 123.615 109.939 123.426 110.107C122.674 110.779 121.417 109.884 120.429 109.676C115.99 108.743 111.571 107.71 107.148 106.706C102.468 105.643 97.8197 104.862 93.0973 104.086C92.6152 104.006 94.0821 104.026 94.5627 104.114C96.5289 104.473 98.461 105.067 100.364 105.668C104.486 106.971 108.647 108.34 112.641 110.004C115.543 111.214 110.797 109.261 110.332 109.094C105.394 107.321 100.398 105.766 95.4024 104.166C94.7614 103.961 92.9193 103.718 93.5246 103.423C94.0571 103.164 95.6045 103.679 96.0641 103.777C99.2788 104.463 102.359 105.611 105.554 106.357C106.362 106.545 107.338 106.873 108.182 106.724C109.19 106.546 109.065 105.157 108.934 104.415C108.812 103.718 108.928 102.712 109.16 102.041C109.343 101.513 109.203 102.003 109.057 102.188C108.44 102.973 107.32 102.541 106.71 102.029C104.445 100.128 103.891 95.9235 103.793 93.1217C103.76 92.1785 103.868 91.0075 103.423 90.6956C102.339 89.9367 105.692 88.0903 104.643 88.2754C101.414 88.8447 98.2189 92.4089 96.9026 95.296C96.3261 96.5607 95.7773 97.7874 95.2479 99.0673C94.9787 99.7182 95.2586 98.8701 95.3509 98.6768C95.7338 97.8754 96.1336 97.2287 96.7268 96.5728C101.995 90.7478 109.349 79.3867 118.543 85.8243" stroke="#FFD424" stroke-width="2" stroke-linecap="round"/>
<path d="M157.837 142.041C158.624 141.69 156.857 136.289 156.725 135.736C155.845 132.039 155.104 128.312 154.497 124.56C154.358 123.701 154.674 124.434 154.846 124.756C155.571 126.105 156.416 127.354 157.326 128.586C158.965 130.806 160.61 133.132 162.393 135.238C163.637 136.706 160.051 132.176 159.057 130.528C158.594 129.76 157.401 126.415 157.839 128.896C158.071 130.211 158.302 131.525 158.534 132.84C158.583 133.119 158.794 134.314 158.625 133.354C158.132 130.56 158.103 127.667 157.643 124.864C157.096 121.523 155.042 111.576 155.63 114.91C156.141 117.803 156.825 120.633 157.403 123.503C157.719 125.069 157.973 127.77 159.03 129.073C159.348 129.465 159.389 129.285 159.834 129.332C160.274 129.378 160.552 130.776 160.674 131.088C161.753 133.855 160.94 128.72 160.714 127.988C159.758 124.886 158.938 121.975 158.369 118.751C157.879 115.97 156.84 113.26 155.61 110.732C155.151 109.79 155.143 110.77 155.239 111.227C155.673 113.302 156.692 115.517 157.606 117.425C157.693 117.606 158.636 119.377 158.36 119.511C157.336 120.01 154.49 114.896 154.188 114.362C152.665 111.669 151.533 108.759 150.007 106.078C148.925 104.178 151.323 110.273 152.334 112.212C153.499 114.448 154.757 116.633 155.927 118.866C155.965 118.939 156.103 119.144 156.063 119.071C155.238 117.547 154.008 116.196 153.078 114.729C151.969 112.979 150.922 111.184 149.875 109.395C149.559 108.853 148.786 107.149 148.956 107.753C149.266 108.855 150.088 109.925 150.705 110.852C152.219 113.124 153.875 115.297 155.409 117.554C156.534 119.21 157.579 120.917 158.674 122.592C158.843 122.85 159.695 123.763 159.718 124.126C159.759 124.756 158.742 123.312 158.343 122.822C156.231 120.233 154.26 117.524 152.192 114.9C150.892 113.25 149.61 111.563 148.157 110.042C147.267 109.11 147.095 109.255 147.675 110.313C149.772 114.14 152.755 117.444 154.786 121.33C154.974 121.688 156.803 125.322 155.221 124.117C151.244 121.089 148.699 115.972 146.212 111.759C145.923 111.27 144.976 109.898 145.121 110.448C145.524 111.978 146.66 113.547 147.449 114.877C150.058 119.28 153.532 123.398 155.762 128.002C155.97 128.43 156.111 128.735 155.676 128.161C154.375 126.443 153.058 124.744 151.839 122.966C149.047 118.896 147.154 114.287 144.396 110.232C143.234 108.524 145.809 114.137 146.833 115.931C148.809 119.396 151.442 122.792 152.975 126.489C153.763 128.388 150.494 123.206 149.372 121.483C148.443 120.056 147.518 118.627 146.61 117.187C146.607 117.181 145.827 115.943 145.834 116.279C145.889 118.776 147.526 121.407 148.384 123.676C148.866 124.949 149.284 126.246 149.723 127.535C149.798 127.753 149.934 128.418 149.816 128.22C148.336 125.736 147.329 123.009 146.169 120.372C146.013 120.016 145.633 119.231 145.753 120.202C145.956 121.839 146.315 123.469 146.601 125.093C146.89 126.732 148.283 131.411 147.357 130.028C146.42 128.631 145.893 126.76 145.332 125.202C144.128 121.861 143.273 118.431 142.25 115.035C142.19 114.837 140.665 109.711 140.802 111.94C141.097 116.728 142.372 121.575 143.204 126.293C143.346 127.098 144.58 133.156 143.658 129.191C142.505 124.235 141.071 119.338 139.819 114.404C138.999 111.173 140.174 117.819 140.23 118.112C141.917 127.035 144.486 135.755 146.381 144.634C146.624 145.772 147.118 147.216 147.047 148.411C147.001 149.19 146.133 147.134 145.809 146.424C142.555 139.301 140.549 131.701 139.193 124.008C138.595 120.619 139.073 123.33 139.362 124.966C140.173 129.567 141.023 134.162 141.796 138.77C142.06 140.346 141.867 141.255 140.999 139.283C139.383 135.613 138.224 131.784 137.109 127.941C135.96 123.985 139.583 136.219 138.571 140.212C138.392 140.915 138.023 139.95 137.95 139.777C136.995 137.51 136.332 135.117 135.735 132.736C135.512 131.85 133.152 118.692 132.344 118.786C131.909 118.837 133.981 129.294 134.109 129.93C134.643 132.576 135.228 135.21 135.709 137.867C135.912 138.988 136.813 142.172 136.135 141.257C134.994 139.719 134.426 137.273 133.904 135.508C132.579 131.023 131.686 126.423 130.834 121.831C130.327 119.099 129.855 116.362 129.373 113.626C129.218 112.75 128.962 111.297 129.272 113.056C130.538 120.235 132.368 127.26 134.002 134.359C134.825 137.935 135.566 141.526 136.218 145.137C136.39 146.092 137.309 148.626 136.851 149.622C136.548 150.281 135.826 148.562 135.504 147.912C134.101 145.076 132.932 142.117 131.84 139.151C130.768 136.237 129.78 133.291 128.866 130.325C128.525 129.217 127.766 125.838 127.864 126.994C128.238 131.452 129.4 136.051 130.289 140.426C130.796 142.919 131.439 145.377 132.001 147.857C132.051 148.079 132.457 150.529 132.347 150.387C131.459 149.247 131.016 147.373 130.567 146.062C129.278 142.292 128.198 138.453 127.172 134.604C126.39 131.668 124.29 122.806 124.818 125.798C125.829 131.535 127.357 137.068 129.183 142.597C129.917 144.82 130.683 147.034 131.376 149.27C131.377 149.274 131.926 151.42 131.853 151.405C131.387 151.308 130.675 149.121 130.582 148.909C129.445 146.299 128.354 143.667 127.355 141.001C126.661 139.149 126.051 137.263 125.286 135.438C124.609 133.821 124.95 135.317 125.088 136.103C125.819 140.249 126.934 144.295 127.761 148.418C127.82 148.711 128.848 153.014 127.996 151.455C126.241 148.245 125.23 144.416 124.137 140.938C123.979 140.436 123.773 139.14 123.296 138.767C123.213 138.702 123.278 138.979 123.294 139.082C123.435 139.973 123.608 140.861 123.764 141.749C124.454 145.663 125.352 149.371 126.658 153.123C126.877 153.753 127.271 154.492 127.388 155.156C127.546 156.049 126.72 153.472 126.398 152.625C125.884 151.274 125.34 149.93 124.719 148.625C124.47 148.102 123.857 146.499 123.93 147.075C124.377 150.577 126.356 154.026 127.765 157.209C128.253 158.312 129.718 161.609 129.115 160.565C127.869 158.405 126.184 156.257 124.509 154.418C123.974 153.831 122.377 152.209 122.906 154.099C123.802 157.298 125.322 160.269 126.674 163.286C127.139 164.324 128.396 167.059 127.05 164.28C124.699 159.429 122.335 154.596 120.03 149.724C118.516 146.524 119.23 149.979 119.702 151.357C120.482 153.629 121.792 155.992 123.032 158.058C125.188 161.652 119.045 150.447 115.843 147.742C114.65 146.734 116.279 150.493 116.36 150.672C116.991 152.065 117.856 153.295 118.655 154.591C119.29 155.622 119.013 155.221 119.595 156.187C119.817 156.557 120.68 157.464 120.289 157.282C119.266 156.805 113.529 151.719 116.704 156.195C118.318 158.472 120.244 160.607 122.356 162.43C122.466 162.525 124.267 163.875 124.259 163.884C123.774 164.497 118.269 164.448 122.516 164.392C124.385 164.367 126.301 164.492 128.091 165.07C128.29 165.134 130.23 165.953 129.242 166.156C128.221 166.365 127.185 166.518 126.159 166.699C126.055 166.717 128.425 166.075 128.992 165.956C131.772 165.374 134.594 164.954 137.391 164.461C138.784 164.215 140.943 164.11 141.686 162.673C142.772 160.573 143.353 158.22 144.448 156.086C146.186 152.7 147.798 148.942 150.111 145.895C151.22 144.434 150.828 146.014 150.194 146.768C146.893 150.693 141.584 153.156 137.418 156.008C134.581 157.951 131.429 159.817 128.805 162.052C128.709 162.133 128.388 162.56 128.728 162.266C129.746 161.382 130.839 160.622 131.937 159.838C134.893 157.727 137.883 155.935 141.109 154.283C142.918 153.358 143.068 153.408 140.894 153.792C137.249 154.434 133.561 154.948 129.985 155.915C129.843 155.954 128.686 156.313 129.596 155.984C131.262 155.382 132.787 154.354 134.347 153.528C136.288 152.501 138.468 151.517 140.29 150.29C140.697 150.015 139.304 150.232 138.818 150.306C136.287 150.689 133.769 151.205 131.272 151.765C129.05 152.263 126.851 152.844 124.648 153.42C123.892 153.618 121.686 154.328 122.362 153.938C127.023 151.249 131.981 148.941 136.815 146.578C138.993 145.514 145.424 142.198 143.45 143.604C142.514 144.271 141.327 144.756 140.303 145.247C136.48 147.082 132.544 148.668 128.615 150.258C126.067 151.289 118.498 154.503 120.892 153.152C125.433 150.589 130.049 148.139 134.788 145.962C136.251 145.29 140.159 142.768 141.973 143.349C142.341 143.467 141.557 144.023 141.245 144.251C139.767 145.326 138.074 146.1 136.466 146.955C135.826 147.295 133.33 148.783 133.377 148.759C137.123 146.911 141.347 145.99 145.397 145.065C145.598 145.019 149.881 144.163 148.541 145.026C144.526 147.613 140.022 149.301 136.137 152.153C135.951 152.29 132.323 154.759 133.954 154.471C136.57 154.01 139.107 153.076 141.745 152.61C142.15 152.539 144.383 151.96 142.938 152.715C140.498 153.99 137.843 154.77 135.52 156.285C134.841 156.728 133.933 157.318 135.347 157.089C137.42 156.754 139.486 156.359 141.554 155.995C143.394 155.67 140.443 157.193 140.196 157.308C136.895 158.842 133.61 160.93 130.899 163.372C129.444 164.682 132.366 163.19 132.727 163.021C133.766 162.533 137.107 161.676 135.976 161.875C134.877 162.069 133.83 162.251 132.796 162.679C131.4 163.258 135.763 162.087 137.212 161.657C138.293 161.337 140.606 160.195 141.744 160.4C142.106 160.465 139.479 161.25 139.117 161.336C138.95 161.375 137.197 161.918 138.131 161.753C139.296 161.548 140.397 161.096 141.572 160.889C142.918 160.651 143.437 160.526 142.36 161.623C141.424 162.577 143.81 159.355 144.741 158.397C145.83 157.276 146.936 156.169 148.018 155.055C149.397 153.636 151.456 152.719 152.601 151.083C153.6 149.656 154.712 148.294 155.293 146.613C155.717 145.384 156.371 144.134 157.116 143.07C157.449 142.595 157.586 142.877 157.387 143.309C156.844 144.491 156.64 145.779 156.131 146.981C155.315 148.907 154.523 150.374 153.152 152.017C151.831 153.6 150.788 155.496 149.325 156.944C148.559 157.702 148.078 158.703 147.233 159.375C146.68 159.815 146.249 160.33 145.67 160.739C145.414 160.919 146.188 160.255 146.319 160.037C147.823 157.553 149.572 155.386 151.557 153.2C153.199 151.391 154.47 149.401 155.966 147.511C157.095 146.086 158.246 144.647 158.763 142.909C159.002 142.107 159.137 141.285 159.366 140.483C159.427 140.27 159.879 138.921 159.737 139.014C159.442 139.207 159.417 139.612 159.107 139.741C158.052 140.178 156.712 135.48 156.542 135.024C155.047 131.018 153.67 126.937 152.885 122.725C152.628 121.347 152.751 121.113 153.096 122.544C154.473 128.246 153.998 134.64 153.44 140.411C153.399 140.831 153.353 144.165 152.97 144.403C152.52 144.681 150.706 136.668 150.623 136.211C150.105 133.34 149.058 130.072 149.481 127.134C149.713 125.521 149.982 126.334 149.973 127.491C149.953 130.13 150.001 132.775 149.953 135.413C149.921 137.156 150.161 142.358 149.858 140.641C149.278 137.354 148.958 134.044 148.879 130.705C148.831 128.636 149.7 122.469 149.436 124.521C148.601 130.984 147.278 137.663 145.331 143.874C144.877 145.32 144.681 140.915 144.679 140.667C144.655 136.341 145.283 131.904 146.243 127.69C146.685 125.751 145.955 128.631 145.822 129.039C144.29 133.72 142.356 138.238 140.624 142.842C140.391 143.462 140.029 145.406 139.339 145.789C138.602 146.2 139.339 144.088 139.524 143.265C140.461 139.096 141.821 134.77 143.581 130.866C143.854 130.261 144.457 128.854 144.684 130.299C145.039 132.558 144.5 135.108 144.533 137.399C144.547 138.421 144.575 139.438 144.557 140.459C144.552 140.751 144.527 141.534 144.722 141.318C145.975 139.933 146.21 137.42 147.142 135.794C147.196 135.699 148.206 133.754 148.377 134.03C148.652 134.472 148.442 135.382 148.38 135.833C148.084 137.991 147.79 140.134 147.574 142.304C147.327 144.785 147.576 147.603 147.032 150.032C146.401 152.849 148.467 144.437 149.265 141.662C149.942 139.305 150.774 136.71 152.087 134.607C152.534 133.891 152.403 134.332 152.328 135.08C152.039 137.975 150.948 140.826 150.425 143.692C150.145 145.218 149.916 146.754 149.689 148.289C149.664 148.456 149.344 150.49 149.414 149.168C149.607 145.546 150.353 141.891 151.056 138.34C151.559 135.798 152.467 133.261 152.846 130.707C153.193 128.368 152.548 131.889 152.561 132.504C152.578 133.252 152.57 129.881 152.572 129.639C152.583 128.043 152.612 126.449 152.731 124.857C152.733 124.824 152.919 122.662 152.819 122.679C152.649 122.709 152.409 124.029 152.383 124.102C151.552 126.387 150.319 128.558 149.32 130.77C145.223 139.842 141.149 148.857 136.618 157.724C136.211 158.521 134.381 162.88 134.353 159.899C134.279 152.065 135.921 144.2 137.156 136.495C137.557 133.994 137.944 131.498 138.208 128.978C138.282 128.272 138.628 127.078 138.462 126.356C138.325 125.765 137.82 127.387 137.535 127.923C135.877 131.034 134.291 134.185 132.471 137.207C130.847 139.902 129.073 142.517 127.145 145.004C126.206 146.215 125.208 147.585 123.84 148.351C123.157 148.733 122.77 148.742 122.563 147.931C121.74 144.707 121.686 141.149 121.817 137.854C122.156 129.341 123.652 120.871 124.342 112.379C124.487 110.585 124.707 108.759 124.731 106.956C124.739 106.39 124.818 105.384 124.42 106.409C120.228 117.206 114.858 127.477 111.192 138.496C111.1 138.772 110.846 140.208 110.83 140.02C110.758 139.166 110.978 138.221 111.112 137.393C111.872 132.684 112.758 127.993 113.55 123.289C114.555 117.326 116.004 111.215 116.369 105.165C116.424 104.237 116.393 104.574 116.199 105.181C115.319 107.948 114.186 110.661 113.116 113.356C112.459 115.013 101.929 141.883 101.755 141.821C100.301 141.299 101.539 133.798 101.651 132.947C102.318 127.846 103.299 122.785 104 117.685C104.212 116.134 103.857 116.694 103.24 117.761C100.894 121.819 99.3995 126.548 97.5274 130.839C96.2952 133.663 94.8553 136.6 94.0439 139.586C93.4504 141.771 93.9695 139.736 94.0881 138.619C94.4433 135.278 94.8323 131.885 94.828 128.523C94.8273 127.981 94.8205 123.007 94.4951 125.661C94.1483 128.489 93.0775 131.426 93.5839 134.298" stroke="#FFD424" stroke-width="2" stroke-linecap="round"/>
<path d="M122.686 167.28C123.284 167.047 123.836 166.234 124.283 165.822C126.031 164.212 127.853 162.689 129.557 161.03C131.487 159.151 136.669 152.939 134.782 154.863C133.698 155.966 133.08 158.025 132.365 159.372C130.98 161.982 129.851 164.731 128.545 167.382C128.459 167.557 127.614 169.591 127.987 169.086C129.427 167.145 131.537 165.703 133.181 163.921C135.129 161.81 137.183 159.59 138.574 157.059C138.805 156.64 139.577 155.218 138.952 156.453C138.363 157.615 137.764 158.836 137.377 160.08C137.277 160.399 136.552 162.98 136.973 163.211C138.058 163.803 144.01 153.204 144.656 152.222C144.813 151.984 146.071 149.434 145.743 150.535C145.147 152.539 144.349 154.418 143.957 156.498C143.615 158.312 142.719 160.509 142.759 162.343C142.774 163.014 143.914 161.164 144.097 160.903C148.069 155.229 151.65 149.787 154.05 143.242C154.125 143.04 154.631 141.133 154.243 142.059C153.615 143.56 153.276 145.137 153.005 146.735C152.753 148.225 152.795 149.771 152.698 151.274C152.603 152.754 153.527 151.164 153.859 150.557C154.93 148.598 155.597 146.267 156.433 144.193C157.535 141.459 158.763 138.653 159.462 135.782C159.476 135.727 159.764 134.147 159.907 134.222C160.16 134.356 160.056 135.223 160.022 135.42C159.722 137.157 159.526 138.836 159.286 140.589C159.09 142.018 158.766 143.421 158.339 144.798C157.903 146.205 158.461 144.771 158.625 144.221C159.056 142.773 159.094 141.226 159.606 139.813C160.493 137.36 161.449 134.778 162.049 132.239C162.71 129.447 162.099 126.553 161.611 123.789" stroke="#171717" stroke-width="2" stroke-linecap="round"/>
<path d="M123.685 168.456C125.881 168.069 127.995 167.124 130.035 166.257C130.819 165.924 133.052 165.492 133.593 164.719C134.191 163.865 131.627 165.461 130.745 166.017C130.415 166.225 127.775 167.782 127.87 168.319C127.914 168.572 132.129 167.125 132.299 167.061C135.107 166.004 137.816 164.579 140.747 163.865C141.957 163.57 139.808 164.021 139.544 164.068C138.923 164.177 137.092 164.364 137.704 164.516C138.526 164.72 139.714 163.945 140.373 163.603C142.721 162.386 144.983 160.983 147.25 159.623C147.816 159.283 149.49 158.747 149.758 158.049C149.802 157.932 148.89 158.154 148.858 158.163C147.776 158.479 146.67 158.939 145.701 159.516C145.329 159.737 144.566 160.141 144.385 160.579C144.239 160.933 145.181 160.551 145.514 160.362C148.769 158.517 151.469 155.277 153.977 152.539C154.404 152.072 155.721 150.712 155.324 151.204C154.904 151.728 154.231 152.121 153.747 152.588C153.04 153.268 151.063 154.921 151.273 156.11C151.339 156.488 153.97 153.048 154.108 152.834C155.289 151.007 156.466 149.176 157.622 147.333C158.207 146.4 158.69 145.337 159.362 144.462C160.406 143.101 157.17 147.104 156.144 148.478C155.346 149.546 154.584 150.624 153.884 151.759C153.848 151.816 153.216 153.15 153.244 153.145C153.583 153.086 154.074 152.109 154.224 151.885C154.993 150.739 155.65 149.531 156.34 148.337C157.594 146.169 158.827 144.029 159.692 141.671C160.092 140.581 159.957 139.308 160.047 138.169C160.168 136.642 160.419 135.12 160.514 133.594C160.64 131.552 161.058 129.545 161.19 127.497C161.257 126.452 161.721 125.095 161.538 124.058C161.32 122.823 161.103 121.588 160.885 120.353C160.758 119.633 160.631 118.912 160.504 118.192C160.417 117.699 160.668 118.223 160.702 118.413C161.071 120.506 161.535 123.48 162.684 125.236" stroke="#171717" stroke-width="2" stroke-linecap="round"/>
<path d="M127.922 163.269C123.353 164.074 118.784 164.88 114.215 165.685C113.889 165.743 112.38 166.009 113.453 165.82C115.008 165.546 116.427 165.772 117.997 165.88C120.443 166.047 122.934 166.059 125.38 165.946C128.226 165.814 123.454 166.564 122.824 166.675C121.182 166.965 116.257 167.833 117.898 167.543C119.567 167.249 121.186 166.944 122.882 167.222C126.891 167.878 114.776 166.622 110.745 166.12C110.523 166.092 107.265 165.493 107.367 165.348C107.806 164.721 110.779 165.458 111.273 165.52C114.905 165.982 118.585 166.276 122.227 166.666C123.084 166.758 125.598 167.098 124.748 167.247" stroke="#171717" stroke-width="2" stroke-linecap="round"/>
<path d="M162.367 122.597C166.21 144.393 152.23 165.076 131.142 168.794C110.054 172.513 89.8437 157.858 86.0006 136.063C82.1574 114.267 94.2124 82.6683 115.3 78.9499C136.388 75.2315 158.524 100.802 162.367 122.597Z" stroke="#171717" stroke-width="1.5"/>
<path d="M84.0147 131.145C83.6848 129.273 83.4943 127.61 84.3222 125.809C84.6773 125.037 84.809 123.855 84.98 123.004C85.1795 122.012 85.5192 121.043 85.8076 120.074C86.4637 117.868 87.0473 115.599 87.5012 113.341C87.9109 111.304 88.2071 109.168 89.014 107.217C90.5975 103.388 91.8306 99.3678 94.1662 95.8945C95.2337 94.307 96.4383 92.8829 97.5402 91.3091C98.3946 90.0889 99.2248 88.8732 100.223 87.7633C101.422 86.4293 102.893 85.3501 104.085 84.0094C105.603 82.3009 107.307 81.0293 109.401 80.0951C111.236 79.2768 113.713 79.2387 115.697 78.8889C117.607 78.5521 119.425 78.1787 121.377 78.3675C123.545 78.5772 125.01 79.36 126.915 80.3678C130.021 82.0103 133.157 83.6728 136.058 85.627C137.505 86.6012 139.109 87.4465 140.576 88.3728C141.268 88.8099 141.866 89.3654 142.623 89.6976C143.154 89.9305 144.357 90.3339 143.053 90.198" stroke="#171717" stroke-width="1.5" stroke-linecap="round"/>
<path d="M143.613 88.6982C143.816 89.8486 145.6 91.1387 146.319 92.0623C147.154 93.1346 148.164 94.1259 148.854 95.3069C150.069 97.384 151.844 99.1414 153.196 101.114C154.52 103.044 155.811 104.98 156.846 107.107C157.412 108.271 158.014 109.354 158.428 110.573C158.751 111.524 159.015 112.628 159.47 113.516C160.451 115.434 161.217 117.735 161.592 119.863C161.966 121.986 162.727 124.122 163.105 126.265C163.277 127.241 163.697 128.441 163.653 129.434C163.623 130.114 163.165 130.96 163.279 131.612" stroke="#171717" stroke-width="1.5" stroke-linecap="round"/>
<path d="M163.264 129.352C163.972 133.363 162.999 136.93 161.817 140.746C160.446 145.17 159.57 149.7 156.159 153.075C154.816 154.405 153.657 155.924 152.28 157.216C151.732 157.73 150.99 158.54 150.562 159.152C150.078 159.842 149.375 160.263 148.853 160.894C148.322 161.534 147.231 161.986 146.535 162.454C145.831 162.928 145.047 163.246 144.304 163.659C142.828 164.48 141.354 165.168 139.851 165.938" stroke="#171717" stroke-width="1.5" stroke-linecap="round"/>
<path d="M140.687 165.79C139.831 165.941 138.976 166.092 138.121 166.243C137.283 166.39 135.901 166.626 135.148 167.055C133.674 167.894 131.721 167.883 130.2 168.642C129.123 169.179 127.573 169.447 126.388 169.656C125.426 169.825 124.521 170.032 123.551 169.964C122.511 169.89 121.545 169.61 120.563 169.296C119.684 169.014 118.672 168.724 117.818 168.371C116.071 167.649 114.014 167.303 112.139 167.025C111.243 166.892 109.951 166.501 109.108 166.173C107.938 165.717 106.78 165.393 105.659 164.764C103.745 163.691 101.67 161.986 100.336 160.229C99.3237 158.897 97.8734 158.033 96.7589 156.827C96.5284 156.577 94.983 155.411 95.0663 155.397" stroke="#171717" stroke-width="1.5" stroke-linecap="round"/>
<path d="M96.2388 156.59C95.5364 155.972 94.9909 154.793 94.401 154.033C93.4889 152.86 92.335 151.771 91.358 150.633C90.4203 149.541 89.3678 148.366 88.6182 147.136C87.8449 145.868 87.3186 144.192 86.7964 142.795C85.9218 140.454 85.4779 138.206 85.0663 135.706C84.6946 133.448 84.7252 131.089 84.4366 128.807C84.0566 125.802 84.2451 122.589 84.7288 119.632" stroke="#171717" stroke-width="1.5" stroke-linecap="round"/>
</g>
<defs>
<filter id="filter0_dd_2997_20828" x="69.2891" y="66.5807" width="109.711" height="122.795" filterUnits="userSpaceOnUse" color-interpolation-filters="sRGB">
<feFlood flood-opacity="0" result="BackgroundImageFix"/>
<feColorMatrix in="SourceAlpha" type="matrix" values="0 0 0 0 0 0 0 0 0 0 0 0 0 0 0 0 0 0 127 0" result="hardAlpha"/>
<feOffset dy="2"/>
<feGaussianBlur stdDeviation="1"/>
<feComposite in2="hardAlpha" operator="out"/>
<feColorMatrix type="matrix" values="0 0 0 0 0 0 0 0 0 0 0 0 0 0 0 0 0 0 0.02 0"/>
<feBlend mode="normal" in2="BackgroundImageFix" result="effect1_dropShadow_2997_20828"/>
<feColorMatrix in="SourceAlpha" type="matrix" values="0 0 0 0 0 0 0 0 0 0 0 0 0 0 0 0 0 0 127 0" result="hardAlpha"/>
<feOffset dy="4"/>
<feGaussianBlur stdDeviation="4"/>
<feComposite in2="hardAlpha" operator="out"/>
<feColorMatrix type="matrix" values="0 0 0 0 0 0 0 0 0 0 0 0 0 0 0 0 0 0 0.06 0"/>
<feBlend mode="normal" in2="effect1_dropShadow_2997_20828" result="effect2_dropShadow_2997_20828"/>
<feBlend mode="normal" in="SourceGraphic" in2="effect2_dropShadow_2997_20828" result="shape"/>
</filter>
</defs>
</svg>
