<svg width="402" height="253" viewBox="0 0 402 253" fill="none" xmlns="http://www.w3.org/2000/svg">
<path d="M252.06 106.294C256.508 106.294 260.735 105.016 265.135 104.527C269.895 103.998 274.759 103.582 279.465 102.662C286.459 101.293 293.488 99.8897 300.531 98.716C315.18 96.2745 329.544 92.969 343.883 89.0583C357.274 85.4061 371.175 82.5275 383.669 76.2803C386.754 74.7377 389.534 72.6315 392.32 70.6343C393.424 69.8431 395.796 67.7084 395.886 66.1769C395.969 64.7673 396.298 65.2013 395.44 65.5826C394.246 66.1132 393.006 67.2859 391.841 67.9763C386.058 71.4034 379.998 74.2975 373.83 76.9407C367.052 79.8455 360.271 82.068 353.111 83.858C342.489 86.5135 332.114 89.5707 321.233 91.1384C318.602 91.5175 315.924 91.5869 313.275 91.7988C310.385 92.03 307.547 92.6902 304.658 92.9214C298.76 93.3932 293.076 95.5278 287.422 97.0981C284.49 97.9126 281.642 98.7774 278.673 99.4589C276.152 100.037 273.604 100.356 271.145 101.176C267.047 102.542 262.938 104.299 258.961 105.996C256.459 107.064 253.57 107.76 250.872 108.06C250.089 108.147 248.231 107.773 249.848 107.185C253.921 105.704 258.18 104.397 262.395 103.388C264.374 102.915 266.418 102.527 268.371 101.985C269.647 101.63 267.235 101.836 266.918 101.836C263.263 101.836 259.617 101.705 256.105 102.876C254.994 103.247 254.054 103.322 252.886 103.322C252.447 103.322 254.613 102.989 255.065 102.876C257.893 102.169 266.664 101.836 263.749 101.836C260.482 101.836 257.258 103.025 254.025 103.025C253.392 103.025 256.088 102.609 256.402 102.546C259.83 101.861 263.302 101.16 266.687 100.284C274.437 98.2786 282.072 95.858 289.866 94.044C291.888 93.5734 293.864 93.1898 295.908 92.8553C296.241 92.8009 298.107 92.6242 296.882 92.6242C292.164 92.6242 288.082 93.1446 283.576 94.7043C281.753 95.3354 279.891 95.933 278.095 96.6359C277.705 96.7884 276.59 97.3398 277.682 97.3788C282.107 97.5368 286.584 97.4272 290.988 97.0156C295.187 96.6232 299.195 94.8215 303.304 93.9614C307.383 93.1078 311.437 92.366 315.521 91.5841C322.411 90.2646 329.194 88.948 335.926 86.9121C344.443 84.3362 352.945 81.9748 361.58 79.8463C363.543 79.3624 365.618 78.7113 367.656 78.6576C368.582 78.6333 368.451 78.7518 367.639 78.9548C364.429 79.7572 361.077 79.4514 357.816 79.9949C351.668 81.0196 345.427 81.4716 339.293 82.5868C333.43 83.6529 327.777 85.4192 321.959 86.681C317.982 87.5434 314.056 88.4204 310.139 89.504C309.132 89.7823 299.639 91.6781 299.639 92.7728C299.639 93.2682 315.044 91.7605 316.544 91.7327C316.808 91.7278 318.928 91.7235 317.667 91.9638C316.331 92.2182 314.784 92.327 313.424 92.327C309.73 92.327 305.849 94.2621 302.297 95.1501C297.117 96.445 291.807 98.2532 286.894 100.35C285.771 100.83 284.404 101.539 283.147 101.539C282.492 101.539 284.456 101.549 285.111 101.539C294.678 101.387 303.874 97.0832 313.11 95.1501C323.59 92.9566 334.182 91.1503 344.543 88.4639C350.574 86.9005 356.244 85.4223 362.01 82.9665C366.968 80.8544 371.973 78.8895 376.851 76.594C377.474 76.301 378.644 75.719 379.36 75.719C380.119 75.719 377.858 75.9832 377.099 75.9832C374.954 75.9832 368.551 76.4918 370.693 76.5775C373.835 76.7032 376.789 76.4594 379.839 75.686C381.619 75.2349 382.972 74.1465 384.594 73.6059" stroke="#C6C6C8" stroke-width="2" stroke-linecap="round"/>
<path d="M250.435 167.19C250.435 163.127 249.948 158.715 250.738 154.719C251.576 150.478 252.272 146.209 253.007 141.946C254.554 132.972 256.98 123.366 255.813 114.18C255.517 111.841 254.946 109.547 254.301 107.289C254.05 106.409 253.62 105.11 253.158 104.331C252.819 103.758 252.222 103.607 251.965 103.221C251.604 102.681 251.893 104.525 251.965 105.171C252.145 106.799 252.438 108.437 252.62 110.079C252.891 112.519 253.392 114.989 253.46 117.44C253.491 118.548 253.763 120.637 253.763 118.298C253.763 116.194 253.418 114.036 253.007 111.978C252.642 110.155 252.749 107.975 251.645 106.398C251.523 106.223 249.576 103.434 249.528 104.263C249.439 105.776 250.083 106.85 250.738 108.196C252.299 111.405 253.416 115.385 253.763 118.936C254.147 122.872 254.967 126.796 255.259 130.735C255.478 133.7 255.276 136.755 255.276 139.727C255.276 147.938 254.823 155.682 252.553 163.627C252.038 165.43 251.379 167.116 250.738 168.871C250.423 169.732 250.133 170.594 250.133 169.241C250.133 163.813 250.156 158.497 251.343 153.156C252.46 148.127 253.158 142.834 253.158 137.677C253.158 129.259 253.706 120.654 253.091 112.264C253.005 111.099 252.621 107.635 252.553 108.801C252.476 110.102 252.553 111.431 252.553 112.734C252.553 119 254.429 125.187 254.654 131.475C254.749 134.147 254.671 136.835 254.671 139.509C254.671 142.191 254.155 144.528 253.83 147.156C252.949 154.29 249.461 160.27 246.216 166.569C243.258 172.312 240.681 178.48 236.989 183.796C236.238 184.878 235.215 186.039 234.72 187.275C234.399 188.078 235.476 185.718 235.914 184.973C237.6 182.1 239.912 179.648 241.662 176.804C243.478 173.852 244.805 170.771 245.897 167.493C246.993 164.206 248.056 160.912 248.99 157.577C249.356 156.267 250.435 154.523 250.435 153.156C250.435 150.076 250.626 159.376 249.965 162.383C248.432 169.351 244.18 175.071 239.981 180.67C237.422 184.082 234.805 188.034 231.712 190.906C231.113 191.462 229.558 195.926 229.258 195.326" stroke="#C6C6C8" stroke-width="2" stroke-linecap="round"/>
<path d="M242.078 179.862C242.205 178.597 243.403 177.355 243.967 176.253C245.321 173.606 246.767 171.01 248.121 168.363C250.621 163.478 253.807 158.807 255.654 153.612C258.627 145.25 261.242 136.749 263.984 128.328C266.449 120.758 267.384 112.625 267.384 104.701C267.384 103.444 267.384 104.896 267.384 105.309C267.384 107.627 267.167 109.815 266.817 112.108C265.452 121.056 262.628 129.686 260.396 138.442C260.236 139.071 258.41 145.194 258.319 143.142C257.964 135.146 258.151 127.55 260.207 119.725C261.016 116.648 262.051 113.574 262.096 110.366C262.096 110.34 262.1 107.868 262.012 107.89C261.323 108.062 261.723 112.22 261.718 112.716C261.672 117.324 260.889 121.936 260.207 126.481C259.279 132.667 256.569 151.116 256.43 144.862C256.268 137.539 255.675 130.255 255.675 122.914C255.675 118.703 255.411 114.559 255.297 110.366C255.289 110.062 254.894 107.932 254.92 109.107C254.99 112.264 255.636 115.467 256.053 118.592C256.518 122.079 257.615 132.483 257.92 128.978C258.273 124.917 258.354 120.809 258.885 116.766C259.131 114.899 259.074 113.022 259.074 111.143C259.074 110.686 259.074 109.02 259.074 110.429C259.074 115.527 258.319 120.628 258.319 125.768C258.319 126.55 258.403 127.287 258.298 125.978C257.922 121.279 257.186 116.652 257.186 111.919C257.186 110.249 256.665 107.606 257.375 106.044C257.705 105.318 257.941 105.468 257.941 106.233C257.941 109.994 257.896 114.513 259.263 118.067C259.925 119.788 260.98 113.906 261.173 113.22C261.7 111.335 262.198 108.376 263.607 106.967C264.588 105.986 264.362 107.931 264.362 108.478C264.362 110.618 264.362 112.758 264.362 114.899C264.362 115.405 263.989 117.814 264.446 118.214C264.641 118.385 264.74 114.961 264.74 114.689C264.74 114.517 264.646 109.023 264.824 109.023C265.103 109.023 264.414 111.765 264.362 111.961C263.743 114.292 263.578 116.664 263.313 119.053C263.153 120.495 263.923 124.069 262.935 125.18C262.769 125.367 262.436 122.82 262.39 122.453C262.155 120.579 262.096 118.756 262.096 116.871C262.096 115.294 261.954 113.979 262.851 112.632" stroke="#C6C6C8" stroke-width="2" stroke-linecap="round"/>
<path d="M267.123 114.216C272.5 114.216 277.776 114.342 283.09 113.33C294.114 111.23 305.466 108.101 316.174 104.736C330.573 100.21 344.514 94.0087 358.81 89.1272C364.425 87.2097 370.729 84.4889 375.687 81.2273C377.842 79.8093 380.297 78.5025 382.174 76.7267C383.198 75.7586 384.478 74.6266 385.813 74.1413C387.565 73.5041 385.939 74.2199 384.999 74.5243C381.366 75.7018 378.225 77.5375 374.873 79.3121C371.982 80.8424 369.244 82.661 366.231 83.9564C361.994 85.778 357.634 87.2347 353.471 89.223C343.886 93.8013 332.642 97.1476 322.279 99.469C314.666 101.174 307.381 103.926 299.871 106.028C296.702 106.916 293.399 108.185 290.2 108.853C286.797 109.564 283.148 109.543 279.691 109.907C278.074 110.077 276.516 110.428 274.879 110.337C273.835 110.279 278.066 109.134 278.398 109.045C282.611 107.91 287.268 107.931 291.612 107.776C291.991 107.762 296.845 108.002 296.759 108.087C294.844 110.003 288.104 109.021 285.795 109.069C280.153 109.185 274.673 110.228 269.134 111.199C268.941 111.233 264.717 111.805 265.662 111.175C268.399 109.351 271.659 108.66 274.783 107.752C277.303 107.02 280.182 106.459 282.827 106.459C283.898 106.459 278.108 107.662 277.369 107.752C275.311 108.004 270.166 109.624 268.176 108.518C267.663 108.233 268.939 107.575 269.469 107.321C271.774 106.216 274.448 105.753 276.962 105.43C279.709 105.077 287.808 104.158 285.269 105.262C280.04 107.536 273.258 107.419 267.697 108.59C265.446 109.064 260.137 109.736 265.71 109.236C274.517 108.446 283.359 108.167 292.163 107.321C293.929 107.151 295.775 107.103 297.525 106.794C298.655 106.595 295.249 106.459 294.102 106.459C289.112 106.459 284.107 106.89 279.14 106.89C274.529 106.89 288.145 104.898 292.642 103.874C299.476 102.318 306.699 99.7185 313.708 99.1578C325.672 98.2007 265.822 102.102 277.823 102.102C279.562 102.102 281.541 101.501 283.234 101.241C290.109 100.183 297.007 99.3615 303.941 98.7987C309.629 98.3371 326.74 97.8411 321.034 97.8411C313.31 97.8411 305.46 99.7425 297.765 100.427C295.752 100.605 293.45 100.59 291.493 101.193C289.204 101.897 296.246 100.59 298.603 100.163C306.618 98.7116 314.666 96.9209 322.757 95.9499C324.045 95.7954 325.338 95.6866 326.635 95.6866C327.929 95.6866 324.107 96.2325 322.853 96.5484C319.393 97.42 308.8 98.703 312.368 98.703C318.447 98.703 324.939 95.9724 330.801 94.5854C334.469 93.7174 338.86 92.2393 342.675 92.2393C343.895 92.2393 340.271 92.6717 339.084 92.9575C332.626 94.5128 326.262 96.4344 319.861 98.2002C314.761 99.6069 299.403 103.373 304.324 101.432C310.743 98.9007 317.258 96.6367 324.05 95.3275C324.632 95.2153 332.065 94.3627 328.527 95.7105C325.699 96.7877 322.53 97.1518 319.573 97.6736C311.991 99.0116 304.385 100.135 296.759 101.193C290.769 102.023 284.455 102.861 278.613 104.496C277.788 104.727 276.183 104.665 277.752 103.778C280.68 102.123 284.506 102.581 287.734 102.581C290.198 102.581 291.08 103.971 288.285 104.831C283.805 106.21 279.09 106.783 274.544 107.92C272.686 108.384 272.583 108.452 271.001 107.321" stroke="#C6C6C8" stroke-width="2" stroke-linecap="round"/>
<path d="M171.777 242.824C173.357 242.824 174.089 242.521 175.425 241.631C177.146 240.483 179.307 240.093 181.156 239.194C184.417 237.607 187.124 235.202 190.467 233.748C196.356 231.188 202.921 228.051 207.493 223.479C213.675 217.297 220.168 211.494 225.796 204.688C232.452 196.639 238.547 188.72 243.646 179.578C245.753 175.8 248.013 172.097 249.831 168.165C250.527 166.66 251.646 165.27 251.646 163.56" stroke="#C6C6C8" stroke-width="2" stroke-linecap="round"/>
<path d="M375.555 37.7191C384.97 34.8237 394.906 40.321 397.456 49.835C400.005 59.3489 394.148 69.0782 384.547 71.2779L221.858 108.553L216.024 86.7829L375.555 37.7191Z" fill="white" stroke="#171717" stroke-width="2"/>
<ellipse cx="9.01525" cy="9.01523" rx="9.01525" ry="9.01523" transform="matrix(0.258818 0.965926 -0.965926 0.25882 384.238 44.0444)" stroke="#171717" stroke-width="2"/>
<ellipse cx="125.248" cy="127.079" rx="123.959" ry="123.96" fill="white" stroke="#171717" stroke-width="2"/>
<ellipse cx="125.249" cy="127.079" rx="101.421" ry="101.422" stroke="#171717" stroke-width="2"/>
<path d="M240.473 80.1444C245.244 80.1444 249.582 79.6439 254.208 78.5925C255.54 78.2897 256.674 77.3815 257.939 76.8756C259.06 76.4271 260.069 76.1236 261.125 75.5549C262.393 74.8724 263.921 74.5699 265.269 74.1846C271.576 72.3825 277.856 69.4313 284.023 67.0693C296.139 62.429 308.683 58.7969 320.937 54.5885C326.404 52.7111 332.201 51.6616 337.776 50.1311C343.098 48.6702 348.336 47.0123 353.691 45.6737C360.801 43.8961 368.073 41.4507 375.383 40.6385C381.06 40.0077 387.775 39.3958 392.734 42.7021C397.27 45.7257 396.482 52.1 396.482 56.8668C396.482 60.6863 395.72 64.6518 392.685 67.1353C391.927 67.7553 390.061 67.5777 389.119 67.7296C387.704 67.9579 386.08 68.5139 384.727 69.0008C382.772 69.7048 380.961 70.8337 378.9 71.246C375.204 71.9852 371.493 73.6479 367.888 74.7294C363.562 76.0273 359.003 76.9442 354.863 78.8071C352.141 80.0319 348.597 80.8462 345.667 81.399C342.35 82.025 339.097 83.0829 335.729 83.6443C331.887 84.2845 327.98 84.9957 324.123 85.4933C320.506 85.96 317.087 87.0713 313.508 87.6394C309.965 88.2019 306.373 89.7723 302.893 90.6936C299.518 91.5868 296.426 92.7672 292.921 93.2195C288.5 93.79 284.16 94.8412 279.698 95.2335C274.792 95.6649 270.014 96.5407 265.137 97.0825C261.109 97.5301 256.781 98.9238 252.887 100.054C251.23 100.535 249.01 101.837 247.307 101.837" stroke="#171717" stroke-width="2" stroke-linecap="round"/>
<path d="M26.3716 105.525C26.3716 103.122 26.2895 100.753 26.6413 98.3778C26.8537 96.9442 27.7348 95.5239 28.5293 94.3321C29.402 93.023 29.9229 91.5544 30.747 90.2114C32.0139 88.1468 33.1624 85.9919 34.4631 83.9479C35.6559 82.0735 37.3581 80.2643 38.2391 78.2239C39.0477 76.3516 40.4988 74.4516 41.7605 72.8745C44.7061 69.1925 47.276 65.181 50.3764 61.6213C53.0929 58.5023 55.8544 55.6194 58.8875 52.7955C62.1006 49.8039 65.7523 47.4547 69.2566 44.8388C74.2826 41.087 79.4579 37.6888 84.8403 34.5296C87.9261 32.7183 91.6695 31.9687 95.1494 31.2031C99.4436 30.2584 103.656 29.2498 108.036 28.7157C115.794 27.7696 123.54 27.5769 131.351 27.5769" stroke="#171717" stroke-width="2" stroke-linecap="round"/>
<path d="M128.605 27.2121C132.164 27.2121 135.73 27.1463 139.288 27.2121C142.252 27.267 145.194 28.0416 148.094 28.5435C149.516 28.7896 150.917 29.3248 152.297 29.7465C154.441 30.4017 156.477 31.3019 158.601 31.9761C162.349 33.166 165.597 35.74 169.203 37.2854C171.156 38.1225 172.95 39.3538 174.729 40.5014C176.424 41.595 178.14 42.6555 179.886 43.6694C182.933 45.4389 185.816 47.4592 188.515 49.7005C189.738 50.7158 191.167 51.5024 192.285 52.6198C193.71 54.0448 195.133 55.5046 196.519 56.9827C199.107 59.7414 202.924 61.176 204.965 64.4414C205.28 64.9469 205.6 65.442 205.686 66.0454C205.706 66.1812 205.839 66.7594 205.839 66.3342" stroke="#171717" stroke-width="2" stroke-linecap="round"/>
<path d="M205.117 65.7574C205.191 66.4235 206.228 67.4162 206.593 67.987C207.403 69.2556 208.396 70.4089 209.159 71.7084C210.334 73.7079 211.465 75.7273 212.8 77.6272C215.932 82.0808 218.03 87.5673 219.585 92.7531C220.452 95.6427 220.749 98.6358 221.43 101.559C221.956 103.819 222.125 106.135 222.729 108.376C223.278 110.41 223.757 112.478 224.317 114.52C224.491 115.155 224.565 115.832 224.863 116.428C225.024 116.752 225.093 116.924 224.895 116.428" stroke="#171717" stroke-width="2" stroke-linecap="round"/>
<path d="M225.183 114.263C225.183 116.021 225.1 117.804 225.399 119.54C225.735 121.486 225.663 123.53 226.129 125.459C226.635 127.555 226.751 129.77 227.027 131.907C227.297 133.996 227.204 136.121 227.204 138.227C227.204 140.679 226.513 143.06 225.977 145.445C225.391 148.048 224.78 150.704 223.955 153.24C223.031 156.086 221.921 158.852 220.82 161.629C219.958 163.801 218.969 165.865 218.317 168.118C218.096 168.883 217.922 169.681 217.676 170.42" stroke="#171717" stroke-width="2" stroke-linecap="round"/>
<path d="M141.883 226.715C144.644 226.715 147.496 227.062 150.096 226.117C151.783 225.503 153.569 224.717 155.35 224.321C156.97 223.961 159.051 222.782 160.604 222.077C161.867 221.502 163.58 221.544 164.777 220.879C166.711 219.805 168.916 219.061 170.912 218.036C173.255 216.833 175.527 215.586 177.729 214.146C178.994 213.319 180.374 211.916 181.752 211.386C183.585 210.681 185.966 209.193 187.372 207.861C188.674 206.627 190.31 205.792 191.712 204.702C193.409 203.382 194.669 201.761 196.184 200.246C197.905 198.525 199.964 196.453 201.288 194.394C202.546 192.437 204.449 190.899 205.761 188.99C208.085 185.61 210.307 182.098 213.11 179.131C215.361 176.747 217 174.142 217 170.751" stroke="#171717" stroke-width="2" stroke-linecap="round"/>
<path d="M63.4727 209.057C65.0032 209.21 66.9429 211.529 68.128 212.499C69.3428 213.493 70.792 214.261 72.1515 214.976C73.8027 215.845 75.7504 216.122 77.3888 217.005C79.0923 217.922 80.8733 218.925 82.6926 219.598C84.2571 220.178 85.7471 221.079 87.2814 221.776C88.8066 222.47 90.6412 222.731 92.2028 223.356C94.1554 224.137 96.7173 224.705 98.7701 225.218C100.73 225.708 102.688 226.418 104.623 227.014C108.585 228.233 112.593 228.809 116.726 228.809C120.661 228.809 124.696 229.109 128.564 229.109C132.302 229.109 136.088 228.809 139.77 228.809C142.915 228.809 145.868 226.714 149.064 226.714" stroke="#171717" stroke-width="2" stroke-linecap="round"/>
<path d="M64.3688 209.358C62.2002 207.189 60.1422 205.047 58.0176 202.84C56.4494 201.212 55.1759 199.302 53.7447 197.553C53.1864 196.871 52.5068 196.745 52.0322 195.891C51.5937 195.101 50.5113 194.561 49.9373 193.796C46.6227 189.376 42.9898 185.409 41.0921 180.096C40.4013 178.161 39.1874 176.289 38.6315 174.343C38.2355 172.957 37.6459 171.137 37.0686 169.854C34.3604 163.835 32.2373 157.606 30.2518 151.299C29.2129 147.999 28.3322 144.73 27.8577 141.29C27.4808 138.558 26.4399 135.793 26.3613 133.043C26.2524 129.23 26.062 125.344 26.062 121.604C26.062 118.646 25.7628 115.688 25.7628 112.709C25.7628 111.382 25.4833 109.66 26.062 108.503" stroke="#171717" stroke-width="2" stroke-linecap="round"/>
<path d="M1.74609 115.794C1.74609 111.005 2.70509 105.988 4.87416 101.65C6.77671 97.8448 8.74861 93.512 9.6947 89.3492C10.1204 87.4763 11.0989 85.6877 11.8103 83.9091C12.6808 81.7328 13.3066 79.3158 14.5304 77.3054C15.7289 75.3363 16.4272 72.9828 17.462 70.9132C18.7558 68.3255 19.7993 65.6128 21.3305 63.1459C23.3307 59.9233 24.9525 56.237 27.4506 53.3688C29.6961 50.7906 31.7212 48.0767 34.1147 45.6166C35.3999 44.2958 36.3637 42.6274 37.6508 41.2645C38.5009 40.3645 39.295 39.3503 40.114 38.4085C40.6373 37.8067 41.6878 36.4178 42.4109 36.0964C43.3654 35.6722 43.9618 34.4109 44.5718 33.6483C45.4621 32.5355 46.3146 31.2406 47.3221 30.2332C49.2116 28.3437 51.1559 26.5975 53.6387 25.4882" stroke="#171717" stroke-width="2" stroke-linecap="round"/>
<path d="M50.4336 27.6629C52.4974 27.6629 54.384 26.5908 56.0399 25.4868C58.5443 23.8172 61.2051 22.3043 63.7619 20.7418C67.4991 18.4579 71.3122 16.2567 75.3372 14.4857C79.9824 12.4418 84.5308 9.08972 89.5873 8.07841C94.6414 7.06759 99.5368 5.48038 104.699 4.81434C108.455 4.32961 112.149 3.58612 115.926 3.24274C118.493 3.0094 121.035 2.77166 123.603 2.57784C125.974 2.3989 128.376 2.53607 130.736 2.30583C138.024 1.5948 146.054 1.64851 152.919 4.48189C156.473 5.94867 160.111 7.16677 163.648 8.68287C167.346 10.2678 170.984 12.1648 174.529 14.0626" stroke="#171717" stroke-width="2" stroke-linecap="round"/>
<path d="M166.035 9.16528C167.578 9.33668 168.672 10.929 170.115 11.3413C171.8 11.8226 173.448 13.2576 175.011 14.0614C179.995 16.6244 185.493 18.3508 190.304 21.194C201.329 27.7087 211.622 35.8027 219.953 45.6141C222.256 48.3274 224.635 50.9739 226.677 53.9103C228.828 57.0018 230.169 60.4038 232.132 63.5666C235.214 68.5316 236.887 74.5963 238.721 80.0985C239.155 81.4007 239.647 82.8632 240.006 84.1181C240.272 85.052 241.004 86.2889 241.109 87.2311C241.265 88.6379 242.412 90.0353 242.726 91.4472C242.893 92.2028 243.213 93.0712 243.557 93.7593" stroke="#171717" stroke-width="2" stroke-linecap="round"/>
<path d="M241.926 89.1364C241.926 94.2693 244.666 99.1887 246.701 103.84C249.201 109.553 249.62 116.176 250.418 122.261C251.505 130.544 251.2 139.566 249.678 147.784C249.317 149.731 249.215 152.048 248.393 153.874C247.563 155.719 246.656 157.499 245.749 159.314C244.126 162.56 243.076 165.594 242.198 169.106" stroke="#171717" stroke-width="2" stroke-linecap="round"/>
<path d="M110.527 250.624C116.216 250.624 121.905 250.624 127.594 250.624C132.273 250.624 136.334 249.794 140.913 248.946C147.505 247.726 154.43 247.377 160.859 245.591C164.341 244.624 167.606 243.347 170.904 241.863C174.324 240.324 177.896 239.246 181.074 237.202C186.778 233.536 193.142 230.381 198.141 225.645C199.956 223.926 202.264 222.497 204.272 221.005C208.389 217.947 212.568 214.368 215.809 210.38C217.704 208.047 219.598 205.729 221.257 203.192C223.123 200.338 225.675 197.902 227.429 195.031C231.77 187.928 236.172 181.366 239.525 173.822C240.506 171.615 241.098 169.063 241.762 166.738C242.37 164.611 244.372 162.535 244.372 160.4" stroke="#171717" stroke-width="2" stroke-linecap="round"/>
<path d="M5.39232 100.749C5.39232 105.315 3.48333 109.191 2.80325 113.611C2.19061 117.594 1.66406 121.242 1.66406 125.355C1.66406 132.262 4.2817 138.661 5.04021 145.488C5.59835 150.511 6.7652 155.518 8.08496 160.401C8.95143 163.607 10.3656 166.66 11.4404 169.805C13.019 174.423 14.3409 179.012 16.2043 183.537C19.1822 190.769 23.8879 196.028 29.1703 201.702C31.1331 203.81 32.193 206.7 34.1206 208.869C34.9505 209.802 35.6108 210.76 36.3369 211.768C36.649 212.202 38.1713 212.597 37.0825 212.597" stroke="#171717" stroke-width="2" stroke-linecap="round"/>
<path d="M33.7266 210.36C36.3236 212.698 38.7618 215.726 41.7216 217.61C46.1598 220.434 50.254 223.784 54.6048 226.765C59.5678 230.165 64.5159 233.363 69.7043 236.437C73.7397 238.829 78.033 240.399 82.1939 242.423C85.55 244.056 89.2723 245.01 92.6331 246.69C96.116 248.432 100.811 248.248 104.564 249.134C110.087 250.438 115.739 251.142 121.341 251.765C123 251.949 133.779 252.014 133.644 251.744" stroke="#171717" stroke-width="2" stroke-linecap="round"/>
<path d="M374.64 45.9269C374.221 45.9269 373.789 45.8952 373.373 45.9369C372.472 46.0269 371.648 46.5653 370.913 47.0495C370.302 47.4515 369.724 47.969 369.206 48.4865C368.874 48.8185 368.46 49.1295 368.353 49.6091C367.823 51.9952 368.084 54.5537 368.084 56.9936C368.084 58.1436 368.306 59.1675 368.667 60.2518C369.014 61.2914 369.963 61.9234 370.908 62.4123C372.44 63.2049 373.862 64.0771 375.578 64.473C377.302 64.8708 378.793 64.644 380.298 63.7545C382.067 62.7093 383.356 61.424 384.359 59.6481C384.967 58.5724 385.283 57.2727 385.552 56.0756C385.85 54.7517 386.01 53.0674 385.507 51.7746C385.057 50.6181 384.309 49.5053 383.441 48.6212C382.549 47.7119 381.355 46.6009 380.118 46.1963C379.462 45.9814 378.816 45.7288 378.143 45.5676C377.449 45.4015 376.696 45.4778 375.987 45.4778C375.449 45.4778 374.809 45.3803 374.281 45.4978C373.993 45.5617 373.677 45.6574 373.383 45.6574" stroke="#171717" stroke-width="2" stroke-linecap="round"/>
<g filter="url(#filter0_dd_2997_21138)">
<path d="M88.9816 64.838C84.1057 65.5152 80.3949 66.8306 77.7592 69.3273C75.098 71.8482 74.1184 75.0344 73.4807 77.9284C73.2548 78.9536 73.0573 80.0034 72.8536 81.0866C71.9325 85.9845 70.8832 91.5635 66.4973 98.6202C60.726 102.332 56.6944 106.355 54.3336 110.95C51.8331 115.818 51.4249 120.902 52.2274 126.118C53.0149 131.237 54.9917 136.632 57.3957 142.285C58.6067 145.133 59.9586 148.119 61.3628 151.218L61.4108 151.324C62.8064 154.405 64.2595 157.612 65.7203 160.996C82.8956 200.782 138.924 187.313 138.207 148.639C138.057 140.493 139.043 134.877 140.568 130.723C142.076 126.617 144.191 123.719 146.651 121.08C147.712 119.942 148.913 118.802 150.184 117.596C154.615 113.39 159.901 108.371 163.123 99.7787C167.755 87.4273 160.944 75.8904 152.981 67.6018C144.862 59.1522 134.345 52.738 128.282 50.043C124.432 48.3319 120.967 48.4485 117.725 49.7994C115.014 50.9291 112.505 52.9323 110.252 54.7315C110.117 54.8396 109.983 54.9469 109.849 55.0533C104.948 58.9592 99.2016 63.4186 88.9816 64.838Z" fill="white" stroke="white" stroke-width="8"/>
<path d="M90.334 110.725C90.0174 111.132 91.4689 112.59 91.6986 112.882C92.5427 113.957 93.5852 114.914 94.3817 116.017C95.7931 117.971 91.3483 111.863 91.3483 109.452C91.3483 109.118 91.8849 109.777 91.8923 109.784C92.5892 110.444 93.2961 111.088 93.9576 111.785C94.5578 112.417 95.1636 113.044 95.7648 113.675C95.8932 113.81 96.4889 114.681 96.069 114.062C94.9481 112.411 93.86 110.674 93.0171 108.862C92.5392 107.835 92.5581 107.934 93.3583 108.641C93.9924 109.201 94.9395 110.265 95.774 110.522C95.9693 110.582 95.7916 110.096 95.7002 109.913C95.2079 108.929 94.5991 108.003 94.0867 107.027C93.8644 106.604 93.5221 106.159 93.3583 105.709C93.3563 105.703 94.3214 106.402 94.4278 106.483C95.8297 107.553 97.4464 109.101 99.0933 109.775C99.5528 109.963 99.2093 109.349 99.1394 109.222C98.3712 107.828 97.4237 106.52 96.5485 105.193C96.0241 104.397 95.4725 103.599 95.0548 102.74C94.623 101.852 96.0595 102.938 96.1797 103.017C99.4941 105.173 102.848 107.237 106.285 109.194C106.722 109.443 107.658 110.415 107.613 109.913C107.591 109.67 107.355 109.499 107.207 109.305C106.519 108.403 105.799 107.523 105.086 106.64C104.024 105.323 102.919 104.042 101.85 102.731C101.422 102.205 100.846 101.574 100.596 100.924C100.42 100.465 101.458 101.396 101.878 101.652C103.558 102.677 105.248 103.685 106.949 104.676C107.85 105.201 108.747 105.736 109.678 106.207C110.709 106.728 109.897 106.109 109.466 105.709C106.769 103.204 104.157 100.609 101.435 98.1298C101.293 98.0005 100.888 97.6159 101.066 97.6872C102.099 98.1001 103.099 98.6276 104.109 99.0887C108.455 101.072 112.872 102.876 117.054 105.193C117.323 105.341 118.13 105.712 117.93 105.478C116.591 103.915 114.989 102.511 113.514 101.08C112.2 99.8059 110.862 98.5573 109.567 97.2631C108.871 96.5663 107.831 95.6758 109.558 96.3595C111.897 97.2853 114.182 98.3543 116.501 99.3284C116.681 99.4039 117.561 99.8165 116.99 99.2454C115.35 97.6054 113.411 96.2081 111.596 94.7736C110.362 93.7985 109.112 92.844 107.871 91.8785C107.683 91.7319 106.576 90.986 107.493 91.2515C109.311 91.7777 111.065 92.5841 112.831 93.2615C114.599 93.9394 111.387 92.4245 111.116 92.2934C109.22 91.3739 107.273 90.5586 105.289 89.85C104.32 89.5038 107.092 90.8448 107.982 91.3621C108.29 91.5412 108.686 91.6592 108.968 91.8785C109.06 91.9499 107.664 91.5597 107.576 91.5281C105.524 90.7901 103.461 90.0344 101.269 89.85C100.133 89.7544 100.03 90.1865 99.7018 91.1408C98.8422 93.6415 96.3347 95.0142 95.064 97.2262C94.0805 98.9382 93.6461 100.94 93.0817 102.814C92.632 104.306 92.1893 105.925 92.1596 107.498C92.1501 108.004 91.9848 108.293 91.7447 107.627C91.3815 106.618 91.3298 105.607 91.3298 104.547C91.3298 102.763 92.1232 101.638 93.1001 100.158C94.7263 97.6947 96.4917 95.0055 98.8443 93.1693C99.01 93.04 100.127 92.0483 99.794 92.8374C99.5639 93.3824 99.1918 93.8242 98.8167 94.2757C97.4638 95.9042 96.1611 97.5725 94.852 99.2362C93.9721 100.354 93.151 101.495 92.3717 102.685C92.1194 103.07 91.646 103.581 91.6617 104.086C91.6701 104.353 92.1817 103.913 92.3809 103.736C93.824 102.452 95.2927 101.199 96.779 99.9646C97.8275 99.0942 98.8815 98.2291 99.9784 97.4198C100.09 97.3374 101.214 96.7153 101.214 96.4886C101.214 96.1971 100.685 96.7378 100.439 96.8943C99.2728 97.6366 98.0849 98.3897 97.0187 99.2731C96.3243 99.8485 94.6675 101.281 94.6675 102.325C94.6675 102.643 95.1207 102.41 95.23 102.353C96.7177 101.573 98.0802 100.432 99.4252 99.4391C100.71 98.4902 101.995 97.5368 103.261 96.5623C103.794 96.1523 104.601 95.6574 104.976 95.0687C105.102 94.8702 104.509 94.9582 104.275 94.9857C102.649 95.1769 101.128 95.9849 99.794 96.8943C97.7406 98.294 94.4422 101.059 94.1881 103.791C94.0383 105.401 98.3763 104.45 99.167 104.344C100.673 104.143 102.161 103.806 103.593 103.293C104.251 103.057 105.456 102.718 105.796 102.012C106.357 100.847 101.761 98.9512 101.066 98.517C100.381 98.0884 99.7087 97.6406 99.0379 97.1893C98.9442 97.1262 98.6852 96.9496 98.7982 96.9496C100.875 96.9496 103.173 97.6049 105.216 97.9454C106.213 98.1116 107.198 98.3355 108.194 98.5078C109.225 98.6864 108.665 98.3518 108.074 98.0376C106.342 97.1174 104.516 96.4267 102.837 95.4006C102.803 95.3799 105.201 95.9625 105.677 96.0829C106.674 96.3352 107.69 96.508 108.682 96.7836C108.966 96.8625 109.971 97.3764 110.277 97.2539C110.755 97.0629 109.369 96.7697 108.894 96.5716C107.16 95.8474 105.447 95.0757 103.722 94.331C102.848 93.9537 101.954 93.5994 101.103 93.1693C100.374 92.8005 100.779 92.8005 101.352 92.8005C102.948 92.8005 104.578 92.705 106.147 93.0494C107.813 93.4153 106.198 93.1294 105.455 92.9664C104.454 92.7468 103.445 92.5281 102.431 92.3764C101.939 92.3027 100.477 92.2826 100.956 92.1458C102.522 91.6984 104.86 92.6893 106.359 93.0587C106.947 93.2037 107.575 93.2615 108.148 93.4643C108.256 93.5027 108.543 93.6521 108.479 93.5565C107.806 92.5458 105.643 91.8719 104.552 91.5004C104.185 91.3757 103.71 91.2378 103.316 91.3252C102.788 91.4427 103.903 92.9643 103.962 93.0587C106.227 96.7101 108.796 100.192 111.199 103.754C111.636 104.402 113.403 106.578 111.476 105.146C109.174 103.437 107.07 101.457 104.736 99.7894C102.681 98.3213 108.369 103.315 109.973 105.266C110.972 106.482 111.874 107.78 112.767 109.074C112.786 109.103 113.948 110.767 113.551 110.743C112.623 110.687 111.384 109.629 110.637 109.194C108.928 108.199 107.209 107.221 105.511 106.207C105.214 106.03 104.479 105.428 104.063 105.524C103.734 105.6 104.782 106.813 104.81 106.852C106.191 108.771 107.53 110.789 108.562 112.919C108.669 113.14 108.876 113.595 108.397 113.362C106.735 112.552 105.309 111.027 103.888 109.876C103.738 109.755 99.7278 106.763 99.7018 106.815C99.513 107.193 100.254 107.455 100.55 107.756C102.095 109.326 103.55 110.919 104.893 112.67C105.77 113.814 106.662 114.958 107.465 116.155C107.51 116.222 108.592 117.875 108.166 117.677C106.721 117.005 105.415 115.751 104.164 114.8C102.047 113.19 99.9295 111.579 97.6457 110.208C97.5485 110.15 96.2112 109.37 96.3456 109.498C97.2375 110.348 98.0989 111.213 98.9273 112.126C100.286 113.625 101.567 115.188 102.8 116.792C103.529 117.741 104.495 118.765 104.994 119.871C105.191 120.308 104.127 119.441 103.759 119.134C102.171 117.806 100.644 116.411 99.0379 115.104C98.4761 114.647 96.1721 112.707 97.8762 114.45C99.3408 115.948 100.774 117.48 101.915 119.244C102 119.377 102.675 120.195 102.431 120.406C101.89 120.874 100.035 119.951 99.5543 119.751C98.6713 119.384 97.8326 118.917 96.945 118.562C96.3944 118.342 96.1217 118.315 96.6222 118.838C97.519 119.776 98.5633 120.735 99.1855 121.89C99.3344 122.167 98.6179 121.609 98.3741 121.411C96.9972 120.292 95.7226 119.018 94.4647 117.769C94.307 117.612 91.8973 115.339 93.0909 116.377C93.5266 116.756 94.9993 117.621 94.4463 117.455C93.6941 117.23 92.7448 115.438 92.2703 114.828C91.8694 114.312 92.0207 114.488 92.2426 114.883C92.6905 115.679 93.3837 116.256 94.0221 116.902C96.2387 119.147 98.5854 121.104 101.085 123.006C102.138 123.808 102.915 123.836 104.201 123.836C105.891 123.836 108.077 124.201 109.687 123.651C112.77 122.599 115.762 121.186 117.386 118.23C117.952 117.201 118.443 115.661 119.286 114.818C119.397 114.708 119.07 115.929 119.009 116.072C117.22 120.247 112.834 123.435 108.959 125.551C108.875 125.597 104.349 127.774 104.349 127.487C104.349 127.398 105.459 127.152 105.547 127.118C107.16 126.508 108.979 126.466 110.665 126.159C113.422 125.658 116.324 125.347 118.714 123.734C121.623 121.771 122.227 118.7 123.177 115.482C123.449 114.56 123.718 113.648 124.062 112.753C124.074 112.721 124.308 112.475 124.283 112.624C124.205 113.093 123.188 113.738 122.891 114.016C120.527 116.23 117.997 118.277 115.533 120.378C114.537 121.227 111.816 124.062 112.721 123.117C115.943 119.751 118.853 116.082 122.061 112.698C122.945 111.766 123.846 110.847 124.698 109.886C124.849 109.715 125.219 109.285 124.707 109.471C123.307 109.98 121.951 110.782 120.669 111.518C117.22 113.497 113.95 115.754 110.877 118.276C109.275 119.59 104.601 123.629 106.377 122.563C108.072 121.547 109.538 119.828 110.96 118.47C111.249 118.193 112.713 116.846 111.375 117.271C110.364 117.592 109.254 118.454 108.498 119.189C107.126 120.522 111.147 116.429 112.481 115.058C112.698 114.836 117.101 110.337 116.981 110.264C116.673 110.076 115.748 110.454 115.505 110.54C113.18 111.367 110.98 112.709 108.913 114.035C107.014 115.253 104.592 116.715 103.224 118.58C103.041 118.83 103.789 118.316 104.035 118.129C106.42 116.319 108.747 114.426 111.08 112.55C112.866 111.114 114.624 109.65 116.335 108.125C117.004 107.529 117.882 106.921 118.419 106.188C118.591 105.954 118.222 105.93 118.078 105.93C117.103 105.93 116.168 106.344 115.358 106.852C114.131 107.621 112.735 108.576 111.983 109.858C111.814 110.146 113.963 110.063 114.15 110.07C115.051 110.103 116.828 110.421 117.017 111.554C117.102 112.061 116.806 112.491 116.501 112.864C115.419 114.186 114.178 115.419 113.007 116.662C112.223 117.494 111.369 118.264 110.637 119.143C110.033 119.867 110.027 119.885 110.729 119.244C112.453 117.671 114.173 116.041 116.178 114.828C117.36 114.112 116.785 114.695 116.206 115.427C114.566 117.497 112.661 119.512 111.448 121.881C111.447 121.885 111.021 122.666 111.236 122.527C112.012 122.024 112.721 121.386 113.449 120.821C115.214 119.452 117.124 117.78 119.138 116.773C120.363 116.16 117.405 118.897 116.593 120C116.302 120.396 114.303 123.132 115.874 122.232C117.25 121.443 118.547 120.449 120.06 119.926C120.999 119.602 119.139 121.026 118.972 121.171C118.847 121.28 117.321 122.71 117.995 122.305C119.295 121.525 120.572 120.609 121.775 119.687C124.551 117.561 126.01 115.022 127.012 111.72C127.309 110.741 127.29 109.505 127.335 108.484C127.386 107.323 127.458 106.044 127.141 104.916C126.615 103.042 125.768 101.413 125.021 99.6419C124.399 98.1706 123.172 96.5192 121.867 95.6219C119.982 94.3256 117.603 93.7514 115.468 92.9572C113.553 92.2444 111.34 91.7905 109.291 91.6387C107.647 91.517 112.589 91.3894 114.233 91.5096C117.64 91.759 121.954 92.5951 124.366 95.3084C128.14 99.5547 127.667 106.36 125.445 111.121C125.169 111.713 124.975 112.373 124.44 112.79C123.849 113.249 123.714 111.698 123.656 111.444C122.704 107.246 121.763 103.058 120.623 98.9043C120.034 96.7593 119.431 94.6087 118.732 92.4962C118.429 91.5771 118.108 90.3911 117.46 89.6287C117.222 89.3492 117.832 90.2612 118.032 90.5692C119.406 92.692 120.582 94.9298 121.6 97.2446C123.177 100.833 124.485 104.593 125.353 108.42C125.649 109.726 121.852 107.032 121.545 106.797C120.51 106.005 119.551 105.124 118.696 104.141C118.398 103.799 117.505 103.025 117.958 102.998C118.524 102.965 119.325 104.033 119.673 104.381C119.827 104.535 120.304 104.978 120.134 104.842C119.196 104.091 118.387 103.142 117.571 102.27C116.213 100.819 114.839 99.3833 113.477 97.9362C112.963 97.3898 112.789 97.1941 112.297 96.6822C112.06 96.4361 111.257 95.8977 111.596 95.9354C112.055 95.9864 112.98 97.1682 113.256 97.4291C114.867 98.9539 116.469 100.483 117.976 102.113C118.665 102.857 119.331 103.623 120.005 104.381C120.176 104.574 120.708 105.359 120.226 104.658C118.594 102.28 116.994 99.9216 115.524 97.4383C114.61 95.8951 116.348 96.9651 117.165 97.3553C118.998 98.2313 120.706 99.2828 122.393 100.407C125.127 102.23 116.717 97.0831 113.993 95.2439C112.219 94.0459 110.479 92.7928 108.793 91.4728C108.722 91.417 106.947 89.9793 108.111 90.6245C112.157 92.8679 122.907 101.733 119.304 98.8305C118.509 98.1903 117.47 97.3568 116.925 96.4886C116.753 96.2147 116.858 96.1819 117.091 96.3595C117.817 96.9116 118.552 97.4634 119.267 98.0284C119.789 98.4406 120.253 98.901 120.678 99.4114C121.011 99.8106 120.942 99.7919 120.669 99.3653C120.028 98.3674 119.143 97.4177 118.825 96.2489C118.478 94.9771 120.291 98.449 120.872 99.6327C121.465 100.843 122.007 102.08 122.411 103.367C122.578 103.899 123.176 105.322 122.642 105.838C122.052 106.408 120.748 106.434 120.005 106.539C118.705 106.721 117.372 106.807 116.123 107.239C114.64 107.753 115.084 109.389 115.395 110.596C115.487 110.953 116.588 113.749 116.049 113.943C115.078 114.292 113.486 113.833 112.555 113.666C110.124 113.229 107.722 112.649 105.289 112.218C104.797 112.131 103.652 111.719 103.132 111.923C103.092 111.939 104.471 113.586 104.533 113.666C105.24 114.571 105.875 115.527 106.488 116.497C106.812 117.009 107.421 117.708 107.557 118.322C107.642 118.702 106.785 118.174 106.433 118.009C105.034 117.352 103.668 116.629 102.265 115.98C101.394 115.577 100.51 115.156 99.6096 114.818C98.9656 114.577 99.5563 114.986 99.7295 115.16C100.903 116.333 101.933 117.876 102.744 119.318C103.472 120.611 102.572 120.046 101.739 119.576C100.973 119.143 100.203 118.717 99.4252 118.304C99.1485 118.157 98.2728 117.88 98.5862 117.88C99.1149 117.88 100.148 119.453 100.458 119.816C101.648 121.208 100.359 120.537 99.416 119.991C98.5184 119.471 97.6242 118.943 96.696 118.479C96.3818 118.322 95.541 117.871 95.6818 118.193C95.8253 118.521 96.4075 118.919 96.6407 119.226C97.3123 120.108 97.9049 121.096 98.5401 122.01C99.496 123.387 100.668 125.441 102.21 126.242C105.846 128.133 110.134 127.2 113.329 124.896C116.749 122.431 118.047 118.318 120.872 115.372C121.209 115.019 121.524 114.663 121.83 114.284C121.89 114.209 122.117 114.044 122.089 114.044C121.604 114.044 120.98 114.084 120.54 113.841C119.924 113.502 120.297 112.171 120.374 111.684C120.484 110.986 120.619 110.298 120.872 109.637C120.919 109.512 121.484 108.549 121.111 108.807C118.864 110.362 116.584 111.839 114.178 113.14C113.711 113.393 113.185 113.613 112.758 113.933C112.183 114.364 113.902 113.065 114.482 112.642C114.883 112.35 116.749 111.082 116.713 111.084C113.878 111.294 110.951 113.985 108.94 115.759C108.269 116.351 107.631 116.983 107.004 117.621C106.831 117.798 106.636 118.173 106.396 118.267C105.918 118.453 105.255 118.359 104.764 118.359C102.984 118.359 101.188 118.351 99.4436 117.953C98.4459 117.726 97.4655 117.361 96.6222 116.773C96.6034 116.76 95.9087 116.104 96.1797 116.414C96.8657 117.198 97.4591 118.188 97.9315 119.115C98.3885 120.012 97.9499 119.731 97.6549 118.811C96.3826 114.84 95.2548 109.888 96.3456 105.727C96.9647 103.366 98.8883 102.409 101.02 101.698C102.907 101.069 100.395 100.165 99.4436 100.112C98.8335 100.078 97.442 99.8442 96.8804 100.14C96.6555 100.258 96.8066 101.358 96.8066 101.597C96.8066 101.998 96.7266 102.57 96.2719 102.721C95.4697 102.989 95.0932 102.202 94.8243 101.597C94.1055 99.9792 93.9379 98.2025 93.9853 96.4517C94.0092 95.5649 94.7435 94.3948 95.147 93.6303C95.8661 92.2678 98.6429 91.9413 99.96 91.6387C101.697 91.2397 103.869 91.2657 105.437 92.1366" stroke="#FFD424" stroke-width="2" stroke-linecap="round"/>
<path d="M119.359 103.707C119.583 103.341 120.098 105.367 120.133 105.576C120.254 106.311 120.299 107.022 119.997 107.722C119.709 108.391 119.733 109.198 119.465 109.873C119.153 110.658 118.795 111.428 118.461 112.204C117.629 114.135 116.232 115.68 114.745 117.16C114.188 117.715 113.332 118.145 112.875 118.778C112.644 119.097 112.891 118.75 112.991 118.686C113.755 118.198 114.627 117.84 115.406 117.357C117.519 116.05 119.157 113.952 120.552 111.931C121.69 110.284 121.321 108.725 121.566 106.83C121.706 105.753 119.414 103.115 119.687 104.167C120.445 107.083 120.649 109.417 119.441 112.22C119.164 112.863 118.966 113.591 118.445 114.072C117.885 114.589 118.436 113.627 118.538 113.399C118.858 112.681 119.315 112.054 119.629 111.325C120.117 110.192 120.624 108.835 120.553 107.578C120.514 106.897 120.767 106.116 120.54 105.445C120.515 105.371 121.191 107.277 121.302 107.901C121.504 109.032 121.474 110.251 121.014 111.319C120.334 112.895 118.131 117.55 118.81 115.973C119.358 114.703 120.168 113.544 120.865 112.351C121.609 111.077 122.122 109.663 122.706 108.308C122.999 107.628 123.074 107.036 122.886 106.313C122.654 105.42 122.212 107.595 122.149 107.871C121.725 109.706 121.147 111.293 120.475 113.028C120.011 114.223 121.11 112.389 121.253 112.113C121.739 111.169 122.26 110.26 122.68 109.284" stroke="white" stroke-width="2" stroke-linecap="round"/>
<path d="M89.5319 68.8C71.4098 71.3169 81.9798 82.014 69.395 101.52C46.1125 115.993 57.4407 131.724 69.3927 159.411C84.9533 195.456 134.837 182.692 134.208 148.713C133.579 114.734 151.827 118.51 159.378 98.3742C166.929 78.2386 137.983 58.7321 126.657 53.6982C115.331 48.6643 112.185 65.6538 89.5319 68.8Z" stroke="#171717" stroke-width="1.5"/>
<circle cx="109.25" cy="107.394" r="21.3942" stroke="#171717" stroke-width="1.5"/>
<path d="M56.6797 116.376C56.9024 109.918 62.8549 107.109 67.5761 104.074C69.5294 102.818 71.6183 101.527 72.8486 99.4655C74.9937 95.8709 75.8491 91.3299 76.3635 87.2412C76.8068 83.7183 77.187 80.0481 78.2968 76.6573C78.8011 75.1163 79.6307 73.0633 81.2845 72.4393C82.4697 71.992 83.5454 71.4159 84.7897 71.1212C86.2148 70.7836 87.6236 70.3889 89.0174 69.9398C90.9497 69.3171 92.8507 68.2362 94.7292 67.4402C95.6916 67.0324 96.9081 66.2881 97.9806 66.2881" stroke="#171717" stroke-width="1.5" stroke-linecap="round"/>
<path d="M93.766 67.8695C91.3742 67.8695 98.6397 68.1987 100.933 67.518C102.277 67.119 103.463 66.1494 104.662 65.4481C106.559 64.3386 108.392 63.1308 110.208 61.8941C113.603 59.5829 116.815 57.0367 120.089 54.5517C122.478 52.7382 125.647 51.5547 128.672 52.1595C131.689 52.763 134.623 54.9755 137.088 56.7192C140.073 58.8306 142.87 61.4082 145.436 64.003C148.105 66.7014 150.548 69.6173 152.202 73.0541C152.535 73.7447 152.769 74.4662 153.081 75.1533C153.251 75.5266 153.575 75.7649 153.696 76.1297" stroke="#171717" stroke-width="1.5" stroke-linecap="round"/>
<path d="M150.354 69.9995C151.853 72.4998 153.539 76.9021 155.614 79.3999C157.345 81.4839 158.823 83.5829 160.064 86.0005C161.038 87.8966 161.057 90.2279 161.161 92.3106C161.337 95.8341 159.829 98.8089 157.867 101.633C155.976 104.353 153.61 106.671 151.458 109.173C148.992 112.04 145.511 113.956 143.312 117.085C141.913 119.075 140.62 121.125 139.308 123.174C137.899 125.373 136.237 127.581 135.192 129.984C134.383 131.844 134.284 133.75 133.923 135.698" stroke="#171717" stroke-width="1.5" stroke-linecap="round"/>
<path d="M56.458 117.408C56.458 124.022 56.1719 130.721 58.8713 136.92C59.6447 138.696 60.782 140.15 61.7856 141.792C63.0253 143.821 64.1409 145.918 65.3715 147.951C67.8376 152.025 70.3443 156.427 72.0311 160.895C73.463 164.687 74.9635 168.904 77.8824 171.823C80.7498 174.69 84.4107 177.172 88.014 179.04C90.5419 180.351 93.4142 181.468 96.2218 182.046C99.0744 182.633 102.818 182.79 105.636 181.955C108.143 181.212 110.492 180.236 112.899 179.177C114.93 178.284 117.351 177.093 119.001 175.557C120.732 173.945 123.229 172.753 124.59 170.787C126.268 168.364 128.618 166.13 129.611 163.308C130.113 161.88 130.645 160.608 130.943 159.119C131.201 157.828 131.301 156.507 131.557 155.225C131.789 154.068 131.66 152.806 131.66 151.628C131.66 149.841 131.865 148.086 131.865 146.3C131.865 141.935 133.369 136.473 135.355 132.5" stroke="#171717" stroke-width="1.5" stroke-linecap="round"/>
<path d="M107.106 87.9434C104.292 87.9434 101.583 87.7925 98.8633 88.626C96.6491 89.3046 93.7245 90.9685 92.4286 92.9622C88.5707 98.8974 88.7914 106.097 88.9015 112.924C88.9506 115.967 91.0371 119.372 92.9469 121.621C94.9763 124.012 97.7332 126.146 100.608 127.411C103.069 128.494 106.008 129.982 108.749 130.041C111.739 130.104 113.801 129.41 116.549 128.334C118.472 127.582 120.428 125.568 121.871 124.124C122.784 123.212 123.673 121.999 124.4 120.939C125.268 119.672 126.384 118.436 127.08 117.07C128.175 114.92 129.282 112.657 129.684 110.244C130.234 106.946 130.333 102.358 129.166 99.2199C126.935 93.2241 120.382 91.411 114.666 90.1683C112.591 89.7174 110.55 89.088 108.471 88.626C106.75 88.2437 104.911 88.2738 103.237 87.7158" stroke="#171717" stroke-width="1.5" stroke-linecap="round"/>
</g>
<defs>
<filter id="filter0_dd_2997_21138" x="39.8555" y="40.7725" width="136.785" height="160.229" filterUnits="userSpaceOnUse" color-interpolation-filters="sRGB">
<feFlood flood-opacity="0" result="BackgroundImageFix"/>
<feColorMatrix in="SourceAlpha" type="matrix" values="0 0 0 0 0 0 0 0 0 0 0 0 0 0 0 0 0 0 127 0" result="hardAlpha"/>
<feOffset dy="2"/>
<feGaussianBlur stdDeviation="1"/>
<feComposite in2="hardAlpha" operator="out"/>
<feColorMatrix type="matrix" values="0 0 0 0 0 0 0 0 0 0 0 0 0 0 0 0 0 0 0.02 0"/>
<feBlend mode="normal" in2="BackgroundImageFix" result="effect1_dropShadow_2997_21138"/>
<feColorMatrix in="SourceAlpha" type="matrix" values="0 0 0 0 0 0 0 0 0 0 0 0 0 0 0 0 0 0 127 0" result="hardAlpha"/>
<feOffset dy="4"/>
<feGaussianBlur stdDeviation="4"/>
<feComposite in2="hardAlpha" operator="out"/>
<feColorMatrix type="matrix" values="0 0 0 0 0 0 0 0 0 0 0 0 0 0 0 0 0 0 0.06 0"/>
<feBlend mode="normal" in2="effect1_dropShadow_2997_21138" result="effect2_dropShadow_2997_21138"/>
<feBlend mode="normal" in="SourceGraphic" in2="effect2_dropShadow_2997_21138" result="shape"/>
</filter>
</defs>
</svg>
