<svg width="403" height="253" viewBox="0 0 403 253" fill="none" xmlns="http://www.w3.org/2000/svg">
<path d="M252.674 106.294C257.121 106.294 261.348 105.016 265.749 104.527C270.509 103.998 275.373 103.582 280.078 102.662C287.073 101.293 294.102 99.8897 301.144 98.716C315.793 96.2745 330.157 92.969 344.496 89.0583C357.887 85.4061 371.788 82.5275 384.283 76.2803C387.368 74.7377 390.148 72.6315 392.933 70.6343C394.037 69.8431 396.409 67.7084 396.499 66.1769C396.582 64.7673 396.911 65.2013 396.053 65.5826C394.859 66.1132 393.62 67.2859 392.454 67.9763C386.671 71.4034 380.611 74.2975 374.443 76.9407C367.665 79.8455 360.885 82.068 353.725 83.858C343.103 86.5135 332.727 89.5707 321.846 91.1384C319.215 91.5175 316.537 91.5869 313.889 91.7988C310.998 92.03 308.16 92.6902 305.271 92.9214C299.373 93.3932 293.689 95.5278 288.036 97.0981C285.104 97.9126 282.255 98.7774 279.286 99.4589C276.765 100.037 274.218 100.356 271.758 101.176C267.66 102.542 263.551 104.299 259.574 105.996C257.073 107.064 254.183 107.76 251.485 108.06C250.702 108.147 248.844 107.773 250.461 107.185C254.534 105.704 258.793 104.397 263.008 103.388C264.987 102.915 267.031 102.527 268.984 101.985C270.261 101.63 267.848 101.836 267.532 101.836C263.877 101.836 260.231 101.705 256.718 102.876C255.607 103.247 254.668 103.322 253.499 103.322C253.061 103.322 255.227 102.989 255.678 102.876C258.507 102.169 267.277 101.836 264.362 101.836C261.096 101.836 257.871 103.025 254.638 103.025C254.005 103.025 256.701 102.609 257.016 102.546C260.443 101.861 263.916 101.16 267.301 100.284C275.05 98.2786 282.685 95.858 290.479 94.044C292.501 93.5734 294.477 93.1898 296.521 92.8553C296.854 92.8009 298.721 92.6242 297.495 92.6242C292.777 92.6242 288.695 93.1446 284.189 94.7043C282.366 95.3354 280.504 95.933 278.708 96.6359C278.318 96.7884 277.204 97.3398 278.295 97.3788C282.72 97.5368 287.197 97.4272 291.602 97.0156C295.8 96.6232 299.808 94.8215 303.917 93.9614C307.996 93.1078 312.051 92.366 316.134 91.5841C323.025 90.2646 329.807 88.948 336.539 86.9121C345.056 84.3362 353.558 81.9748 362.194 79.8463C364.157 79.3624 366.231 78.7113 368.269 78.6576C369.195 78.6333 369.065 78.7518 368.252 78.9548C365.043 79.7572 361.691 79.4514 358.43 79.9949C352.281 81.0196 346.04 81.4716 339.907 82.5868C334.043 83.6529 328.39 85.4192 322.572 86.681C318.596 87.5434 314.669 88.4204 310.752 89.504C309.746 89.7823 300.252 91.6781 300.252 92.7728C300.252 93.2682 315.657 91.7605 317.157 91.7327C317.422 91.7278 319.542 91.7235 318.28 91.9638C316.945 92.2182 315.397 92.327 314.037 92.327C310.344 92.327 306.462 94.2621 302.91 95.1501C297.73 96.445 292.421 98.2532 287.507 100.35C286.384 100.83 285.017 101.539 283.76 101.539C283.105 101.539 285.07 101.549 285.724 101.539C295.292 101.387 304.488 97.0832 313.724 95.1501C324.204 92.9566 334.795 91.1503 345.157 88.4639C351.187 86.9005 356.857 85.4223 362.623 82.9665C367.582 80.8544 372.587 78.8895 377.464 76.594C378.087 76.301 379.257 75.719 379.974 75.719C380.733 75.719 378.471 75.9832 377.712 75.9832C375.568 75.9832 369.164 76.4918 371.307 76.5775C374.448 76.7032 377.402 76.4594 380.453 75.686C382.232 75.2349 383.585 74.1465 385.207 73.6059" stroke="#C6C6C8" stroke-width="2" stroke-linecap="round"/>
<path d="M251.048 167.19C251.048 163.127 250.562 158.715 251.351 154.719C252.189 150.478 252.885 146.209 253.62 141.946C255.167 132.972 257.593 123.366 256.427 114.18C256.13 111.841 255.559 109.547 254.914 107.289C254.663 106.409 254.233 105.11 253.771 104.331C253.432 103.758 252.835 103.607 252.578 103.221C252.217 102.681 252.506 104.525 252.578 105.171C252.759 106.799 253.051 108.437 253.233 110.079C253.505 112.519 254.006 114.989 254.074 117.44C254.105 118.548 254.376 120.637 254.376 118.298C254.376 116.194 254.032 114.036 253.62 111.978C253.255 110.155 253.362 107.975 252.259 106.398C252.136 106.223 250.19 103.434 250.141 104.263C250.052 105.776 250.696 106.85 251.351 108.196C252.912 111.405 254.03 115.385 254.376 118.936C254.76 122.872 255.58 126.796 255.872 130.735C256.092 133.7 255.889 136.755 255.889 139.727C255.889 147.938 255.436 155.682 253.166 163.627C252.651 165.43 251.992 167.116 251.351 168.871C251.036 169.732 250.746 170.594 250.746 169.241C250.746 163.813 250.769 158.497 251.956 153.156C253.073 148.127 253.771 142.834 253.771 137.677C253.771 129.259 254.32 120.654 253.704 112.264C253.618 111.099 253.235 107.635 253.166 108.801C253.09 110.102 253.166 111.431 253.166 112.734C253.166 119 255.043 125.187 255.267 131.475C255.362 134.147 255.284 136.835 255.284 139.509C255.284 142.191 254.768 144.528 254.443 147.156C253.563 154.29 250.074 160.27 246.83 166.569C243.871 172.312 241.294 178.48 237.602 183.796C236.851 184.878 235.828 186.039 235.333 187.275C235.012 188.078 236.089 185.718 236.527 184.973C238.214 182.1 240.525 179.648 242.275 176.804C244.092 173.852 245.418 170.771 246.51 167.493C247.606 164.206 248.669 160.912 249.603 157.577C249.97 156.267 251.048 154.523 251.048 153.156C251.048 150.076 251.24 159.376 250.578 162.383C249.045 169.351 244.793 175.071 240.594 180.67C238.035 184.082 235.418 188.034 232.325 190.906C231.726 191.462 230.171 195.926 229.871 195.326" stroke="#C6C6C8" stroke-width="2" stroke-linecap="round"/>
<path d="M242.691 179.862C242.818 178.597 244.016 177.355 244.58 176.253C245.934 173.606 247.38 171.01 248.734 168.363C251.234 163.478 254.42 158.807 256.267 153.612C259.241 145.25 261.856 136.749 264.598 128.328C267.062 120.758 267.997 112.625 267.997 104.701C267.997 103.444 267.997 104.896 267.997 105.309C267.997 107.627 267.78 109.815 267.43 112.108C266.065 121.056 263.241 129.686 261.009 138.442C260.849 139.071 259.023 145.194 258.932 143.142C258.577 135.146 258.764 127.55 260.821 119.725C261.629 116.648 262.664 113.574 262.709 110.366C262.709 110.34 262.713 107.868 262.625 107.89C261.937 108.062 262.336 112.22 262.331 112.716C262.285 117.324 261.502 121.936 260.821 126.481C259.893 132.667 257.183 151.116 257.044 144.862C256.881 137.539 256.288 130.255 256.288 122.914C256.288 118.703 256.024 114.559 255.911 110.366C255.902 110.062 255.507 107.932 255.533 109.107C255.603 112.264 256.249 115.467 256.666 118.592C257.131 122.079 258.229 132.483 258.534 128.978C258.887 124.917 258.967 120.809 259.499 116.766C259.744 114.899 259.688 113.022 259.688 111.143C259.688 110.686 259.688 109.02 259.688 110.429C259.688 115.527 258.932 120.628 258.932 125.768C258.932 126.55 259.016 127.287 258.911 125.978C258.535 121.279 257.799 116.652 257.799 111.919C257.799 110.249 257.278 107.606 257.988 106.044C258.318 105.318 258.554 105.468 258.554 106.233C258.554 109.994 258.509 114.513 259.876 118.067C260.538 119.788 261.594 113.906 261.786 113.22C262.314 111.335 262.811 108.376 264.22 106.967C265.201 105.986 264.975 107.931 264.975 108.478C264.975 110.618 264.975 112.758 264.975 114.899C264.975 115.405 264.602 117.814 265.059 118.214C265.255 118.385 265.353 114.961 265.353 114.689C265.353 114.517 265.259 109.023 265.437 109.023C265.716 109.023 265.027 111.765 264.975 111.961C264.356 114.292 264.192 116.664 263.926 119.053C263.766 120.495 264.536 124.069 263.548 125.18C263.383 125.367 263.049 122.82 263.003 122.453C262.769 120.579 262.709 118.756 262.709 116.871C262.709 115.294 262.567 113.979 263.464 112.632" stroke="#C6C6C8" stroke-width="2" stroke-linecap="round"/>
<path d="M267.736 114.216C273.113 114.216 278.39 114.342 283.703 113.33C294.727 111.23 306.08 108.101 316.787 104.736C331.186 100.21 345.128 94.0087 359.423 89.1272C365.039 87.2097 371.343 84.4889 376.3 81.2273C378.456 79.8093 380.91 78.5025 382.788 76.7267C383.811 75.7586 385.092 74.6266 386.426 74.1413C388.179 73.5041 386.552 74.2199 385.613 74.5243C381.979 75.7018 378.838 77.5375 375.486 79.3121C372.596 80.8424 369.857 82.661 366.844 83.9564C362.607 85.778 358.248 87.2347 354.085 89.223C344.499 93.8013 333.255 97.1476 322.892 99.469C315.279 101.174 307.994 103.926 300.485 106.028C297.315 106.916 294.013 108.185 290.813 108.853C287.41 109.564 283.761 109.543 280.304 109.907C278.688 110.077 277.129 110.428 275.492 110.337C274.448 110.279 278.68 109.134 279.011 109.045C283.224 107.91 287.882 107.931 292.226 107.776C292.604 107.762 297.458 108.002 297.373 108.087C295.457 110.003 288.717 109.021 286.408 109.069C280.766 109.185 275.287 110.228 269.747 111.199C269.554 111.233 265.331 111.805 266.276 111.175C269.012 109.351 272.273 108.66 275.396 107.752C277.916 107.02 280.795 106.459 283.44 106.459C284.511 106.459 278.721 107.662 277.982 107.752C275.924 108.004 270.779 109.624 268.789 108.518C268.276 108.233 269.552 107.575 270.082 107.321C272.387 106.216 275.061 105.753 277.575 105.43C280.322 105.077 288.422 104.158 285.882 105.262C280.653 107.536 273.871 107.419 268.31 108.59C266.06 109.064 260.75 109.736 266.324 109.236C275.13 108.446 283.973 108.167 292.776 107.321C294.542 107.151 296.388 107.103 298.139 106.794C299.268 106.595 295.862 106.459 294.715 106.459C289.726 106.459 284.72 106.89 279.753 106.89C275.142 106.89 288.759 104.898 293.255 103.874C300.089 102.318 307.313 99.7185 314.322 99.1578C326.285 98.2007 266.435 102.102 278.437 102.102C280.176 102.102 282.155 101.501 283.847 101.241C290.723 100.183 297.62 99.3615 304.554 98.7987C310.242 98.3371 327.353 97.8411 321.647 97.8411C313.923 97.8411 306.073 99.7425 298.378 100.427C296.365 100.605 294.063 100.59 292.106 101.193C289.817 101.897 296.86 100.59 299.216 100.163C307.232 98.7116 315.279 96.9209 323.371 95.9499C324.658 95.7954 325.951 95.6866 327.249 95.6866C328.542 95.6866 324.72 96.2325 323.466 96.5484C320.006 97.42 309.413 98.703 312.981 98.703C319.06 98.703 325.552 95.9724 331.414 94.5854C335.083 93.7174 339.473 92.2393 343.288 92.2393C344.509 92.2393 340.884 92.6717 339.697 92.9575C333.239 94.5128 326.875 96.4344 320.474 98.2002C315.375 99.6069 300.017 103.373 304.937 101.432C311.356 98.9007 317.872 96.6367 324.663 95.3275C325.245 95.2153 332.678 94.3627 329.14 95.7105C326.312 96.7877 323.143 97.1518 320.187 97.6736C312.604 99.0116 304.998 100.135 297.373 101.193C291.382 102.023 285.068 102.861 279.227 104.496C278.402 104.727 276.796 104.665 278.365 103.778C281.293 102.123 285.12 102.581 288.348 102.581C290.811 102.581 291.693 103.971 288.898 104.831C284.418 106.21 279.703 106.783 275.157 107.92C273.299 108.384 273.197 108.452 271.614 107.321" stroke="#C6C6C8" stroke-width="2" stroke-linecap="round"/>
<path d="M172.391 242.824C173.97 242.824 174.703 242.521 176.038 241.631C177.76 240.483 179.92 240.093 181.769 239.194C185.03 237.607 187.737 235.202 191.08 233.748C196.969 231.188 203.535 228.051 208.106 223.479C214.288 217.297 220.781 211.494 226.41 204.688C233.065 196.639 239.16 188.72 244.259 179.578C246.366 175.8 248.626 172.097 250.444 168.165C251.14 166.66 252.259 165.27 252.259 163.56" stroke="#C6C6C8" stroke-width="2" stroke-linecap="round"/>
<path d="M376.168 37.7191C385.583 34.8237 395.52 40.321 398.069 49.835C400.618 59.3489 394.761 69.0782 385.16 71.2779L222.471 108.553L216.638 86.7829L376.168 37.7191Z" fill="white" stroke="#171717" stroke-width="2"/>
<ellipse cx="9.01525" cy="9.01523" rx="9.01525" ry="9.01523" transform="matrix(0.258818 0.965926 -0.965926 0.25882 384.852 44.0444)" stroke="#171717" stroke-width="2"/>
<ellipse cx="125.862" cy="127.079" rx="123.959" ry="123.96" fill="white" stroke="#171717" stroke-width="2"/>
<ellipse cx="125.863" cy="127.079" rx="101.421" ry="101.422" stroke="#171717" stroke-width="2"/>
<path d="M241.086 80.1444C245.857 80.1444 250.195 79.6439 254.821 78.5925C256.154 78.2897 257.288 77.3815 258.552 76.8756C259.674 76.4271 260.682 76.1236 261.739 75.5549C263.006 74.8724 264.534 74.5699 265.882 74.1846C272.19 72.3825 278.469 69.4313 284.636 67.0693C296.753 62.429 309.296 58.7969 321.55 54.5885C327.017 52.7111 332.814 51.6616 338.389 50.1311C343.711 48.6702 348.949 47.0123 354.304 45.6737C361.414 43.8961 368.686 41.4507 375.997 40.6385C381.673 40.0077 388.388 39.3958 393.347 42.7021C397.883 45.7257 397.095 52.1 397.095 56.8668C397.095 60.6863 396.333 64.6518 393.298 67.1353C392.54 67.7553 390.674 67.5777 389.732 67.7296C388.317 67.9579 386.693 68.5139 385.341 69.0008C383.385 69.7048 381.575 70.8337 379.513 71.246C375.817 71.9852 372.107 73.6479 368.502 74.7294C364.175 76.0273 359.616 76.9442 355.476 78.8071C352.754 80.0319 349.21 80.8462 346.281 81.399C342.963 82.025 339.71 83.0829 336.342 83.6443C332.501 84.2845 328.593 84.9957 324.736 85.4933C321.119 85.96 317.701 87.0713 314.121 87.6394C310.578 88.2019 306.987 89.7723 303.506 90.6936C300.132 91.5868 297.039 92.7672 293.535 93.2195C289.113 93.79 284.774 94.8412 280.311 95.2335C275.405 95.6649 270.627 96.5407 265.75 97.0825C261.722 97.5301 257.394 98.9238 253.501 100.054C251.843 100.535 249.623 101.837 247.921 101.837" stroke="#171717" stroke-width="2" stroke-linecap="round"/>
<path d="M26.9849 105.525C26.9849 103.122 26.9028 100.753 27.2546 98.3778C27.467 96.9442 28.3481 95.5239 29.1426 94.3321C30.0153 93.023 30.5362 91.5544 31.3603 90.2114C32.6272 88.1468 33.7757 85.9919 35.0764 83.9479C36.2692 82.0735 37.9714 80.2643 38.8524 78.2239C39.6609 76.3516 41.112 74.4516 42.3737 72.8745C45.3194 69.1925 47.8893 65.181 50.9897 61.6213C53.7062 58.5023 56.4677 55.6194 59.5008 52.7955C62.7139 49.8039 66.3656 47.4547 69.8699 44.8388C74.8959 41.087 80.0712 37.6888 85.4535 34.5296C88.5394 32.7183 92.2828 31.9687 95.7627 31.2031C100.057 30.2584 104.269 29.2498 108.649 28.7157C116.407 27.7696 124.153 27.5769 131.965 27.5769" stroke="#171717" stroke-width="2" stroke-linecap="round"/>
<path d="M129.219 27.2121C132.777 27.2121 136.343 27.1463 139.901 27.2121C142.865 27.267 145.808 28.0416 148.708 28.5435C150.129 28.7896 151.53 29.3248 152.91 29.7465C155.054 30.4017 157.09 31.3019 159.214 31.9761C162.962 33.166 166.21 35.74 169.816 37.2854C171.77 38.1225 173.563 39.3538 175.342 40.5014C177.037 41.595 178.753 42.6555 180.499 43.6694C183.547 45.4389 186.429 47.4592 189.129 49.7005C190.352 50.7158 191.781 51.5024 192.898 52.6198C194.323 54.0448 195.746 55.5046 197.133 56.9827C199.721 59.7414 203.537 61.176 205.578 64.4414C205.894 64.9469 206.213 65.442 206.3 66.0454C206.319 66.1812 206.452 66.7594 206.452 66.3342" stroke="#171717" stroke-width="2" stroke-linecap="round"/>
<path d="M205.73 65.7574C205.804 66.4235 206.841 67.4162 207.206 67.987C208.017 69.2556 209.009 70.4089 209.773 71.7084C210.947 73.7079 212.078 75.7273 213.414 77.6272C216.545 82.0808 218.643 87.5673 220.199 92.7531C221.066 95.6427 221.363 98.6358 222.043 101.559C222.57 103.819 222.738 106.135 223.343 108.376C223.891 110.41 224.371 112.478 224.931 114.52C225.105 115.155 225.178 115.832 225.476 116.428C225.638 116.752 225.706 116.924 225.508 116.428" stroke="#171717" stroke-width="2" stroke-linecap="round"/>
<path d="M225.796 114.263C225.796 116.021 225.713 117.804 226.012 119.54C226.348 121.486 226.277 123.53 226.742 125.459C227.248 127.555 227.365 129.77 227.64 131.907C227.91 133.996 227.817 136.121 227.817 138.227C227.817 140.679 227.126 143.06 226.59 145.445C226.004 148.048 225.393 150.704 224.569 153.24C223.644 156.086 222.535 158.852 221.433 161.629C220.572 163.801 219.583 165.865 218.931 168.118C218.709 168.883 218.535 169.681 218.289 170.42" stroke="#171717" stroke-width="2" stroke-linecap="round"/>
<path d="M142.496 226.715C145.257 226.715 148.11 227.062 150.709 226.117C152.396 225.503 154.182 224.717 155.963 224.321C157.583 223.961 159.664 222.782 161.217 222.077C162.481 221.502 164.194 221.544 165.39 220.879C167.324 219.805 169.529 219.061 171.525 218.036C173.868 216.833 176.14 215.586 178.342 214.146C179.607 213.319 180.987 211.916 182.366 211.386C184.198 210.681 186.58 209.193 187.985 207.861C189.288 206.627 190.923 205.792 192.325 204.702C194.023 203.382 195.283 201.761 196.797 200.246C198.518 198.525 200.578 196.453 201.902 194.394C203.16 192.437 205.062 190.899 206.374 188.99C208.698 185.61 210.92 182.098 213.723 179.131C215.974 176.747 217.613 174.142 217.613 170.751" stroke="#171717" stroke-width="2" stroke-linecap="round"/>
<path d="M64.0859 209.057C65.6165 209.21 67.5562 211.529 68.7413 212.499C69.956 213.493 71.4053 214.261 72.7648 214.976C74.416 215.845 76.3637 216.122 78.0021 217.005C79.7056 217.922 81.4866 218.925 83.3059 219.598C84.8704 220.178 86.3604 221.079 87.8947 221.776C89.4199 222.47 91.2544 222.731 92.8161 223.356C94.7687 224.137 97.3306 224.705 99.3834 225.218C101.343 225.708 103.302 226.418 105.236 227.014C109.198 228.233 113.206 228.809 117.34 228.809C121.275 228.809 125.309 229.109 129.178 229.109C132.915 229.109 136.702 228.809 140.384 228.809C143.528 228.809 146.481 226.714 149.678 226.714" stroke="#171717" stroke-width="2" stroke-linecap="round"/>
<path d="M64.9821 209.358C62.8135 207.189 60.7555 205.047 58.6309 202.84C57.0627 201.212 55.7892 199.302 54.358 197.553C53.7996 196.871 53.1201 196.745 52.6455 195.891C52.207 195.101 51.1246 194.561 50.5506 193.796C47.2359 189.376 43.6031 185.409 41.7054 180.096C41.0145 178.161 39.8007 176.289 39.2447 174.343C38.8487 172.957 38.2592 171.137 37.6819 169.854C34.9737 163.835 32.8506 157.606 30.8651 151.299C29.8262 147.999 28.9455 144.73 28.4709 141.29C28.0941 138.558 27.0532 135.793 26.9746 133.043C26.8656 129.23 26.6753 125.344 26.6753 121.604C26.6753 118.646 26.376 115.688 26.376 112.709C26.376 111.382 26.0966 109.66 26.6753 108.503" stroke="#171717" stroke-width="2" stroke-linecap="round"/>
<path d="M2.35938 115.794C2.35938 111.005 3.31837 105.988 5.48744 101.65C7.38999 97.8448 9.36189 93.512 10.308 89.3492C10.7336 87.4763 11.7121 85.6877 12.4236 83.9091C13.2941 81.7328 13.9199 79.3158 15.1436 77.3054C16.3422 75.3363 17.0405 72.9828 18.0752 70.9132C19.3691 68.3255 20.4126 65.6128 21.9438 63.1459C23.944 59.9233 25.5658 56.237 28.0639 53.3688C30.3094 50.7906 32.3344 48.0767 34.728 45.6166C36.0132 44.2958 36.977 42.6274 38.2641 41.2645C39.1141 40.3645 39.9083 39.3503 40.7273 38.4085C41.2505 37.8067 42.3011 36.4178 43.0242 36.0964C43.9787 35.6722 44.5751 34.4109 45.1851 33.6483C46.0754 32.5355 46.9279 31.2406 47.9354 30.2332C49.8248 28.3437 51.7691 26.5975 54.252 25.4882" stroke="#171717" stroke-width="2" stroke-linecap="round"/>
<path d="M51.0469 27.6629C53.1107 27.6629 54.9973 26.5908 56.6532 25.4868C59.1576 23.8172 61.8184 22.3043 64.3751 20.7418C68.1124 18.4579 71.9255 16.2567 75.9505 14.4857C80.5957 12.4418 85.144 9.08972 90.2006 8.07841C95.2546 7.06759 100.15 5.48038 105.312 4.81434C109.069 4.32961 112.763 3.58612 116.54 3.24274C119.107 3.0094 121.648 2.77166 124.216 2.57784C126.587 2.3989 128.989 2.53607 131.349 2.30583C138.637 1.5948 146.667 1.64851 153.532 4.48189C157.087 5.94867 160.724 7.16677 164.262 8.68287C167.96 10.2678 171.597 12.1648 175.142 14.0626" stroke="#171717" stroke-width="2" stroke-linecap="round"/>
<path d="M166.648 9.16528C168.191 9.33668 169.285 10.929 170.729 11.3413C172.413 11.8226 174.062 13.2576 175.625 14.0614C180.608 16.6244 186.106 18.3508 190.917 21.194C201.942 27.7087 212.236 35.8027 220.566 45.6141C222.87 48.3274 225.248 50.9739 227.291 53.9103C229.441 57.0018 230.783 60.4038 232.746 63.5666C235.828 68.5316 237.5 74.5963 239.334 80.0985C239.768 81.4007 240.26 82.8632 240.619 84.1181C240.886 85.052 241.617 86.2889 241.722 87.2311C241.878 88.6379 243.025 90.0353 243.339 91.4472C243.507 92.2028 243.826 93.0712 244.17 93.7593" stroke="#171717" stroke-width="2" stroke-linecap="round"/>
<path d="M242.539 89.1364C242.539 94.2693 245.279 99.1887 247.314 103.84C249.814 109.553 250.234 116.176 251.032 122.261C252.118 130.544 251.813 139.566 250.291 147.784C249.931 149.731 249.829 152.048 249.007 153.874C248.176 155.719 247.27 157.499 246.362 159.314C244.739 162.56 243.689 165.594 242.811 169.106" stroke="#171717" stroke-width="2" stroke-linecap="round"/>
<path d="M111.141 250.624C116.83 250.624 122.519 250.624 128.208 250.624C132.886 250.624 136.947 249.794 141.526 248.946C148.119 247.726 155.043 247.377 161.472 245.591C164.954 244.624 168.219 243.347 171.518 241.863C174.937 240.324 178.509 239.246 181.688 237.202C187.391 233.536 193.755 230.381 198.755 225.645C200.569 223.926 202.877 222.497 204.886 221.005C209.002 217.947 213.182 214.368 216.423 210.38C218.318 208.047 220.211 205.729 221.87 203.192C223.736 200.338 226.288 197.902 228.042 195.031C232.384 187.928 236.785 181.366 240.138 173.822C241.119 171.615 241.711 169.063 242.375 166.738C242.983 164.611 244.985 162.535 244.985 160.4" stroke="#171717" stroke-width="2" stroke-linecap="round"/>
<path d="M6.0056 100.749C6.0056 105.315 4.09662 109.191 3.41653 113.611C2.80389 117.594 2.27734 121.242 2.27734 125.355C2.27734 132.262 4.89498 138.661 5.65349 145.488C6.21163 150.511 7.37848 155.518 8.69824 160.401C9.56471 163.607 10.9789 166.66 12.0537 169.805C13.6323 174.423 14.9542 179.012 16.8176 183.537C19.7955 190.769 24.5011 196.028 29.7836 201.702C31.7464 203.81 32.8063 206.7 34.7339 208.869C35.5638 209.802 36.2241 210.76 36.9502 211.768C37.2623 212.202 38.7846 212.597 37.6958 212.597" stroke="#171717" stroke-width="2" stroke-linecap="round"/>
<path d="M34.3398 210.36C36.9369 212.698 39.3751 215.726 42.3349 217.61C46.7731 220.434 50.8673 223.784 55.2181 226.765C60.181 230.165 65.1291 233.363 70.3176 236.437C74.353 238.829 78.6463 240.399 82.8072 242.423C86.1633 244.056 89.8856 245.01 93.2464 246.69C96.7293 248.432 101.424 248.248 105.177 249.134C110.7 250.438 116.352 251.142 121.954 251.765C123.613 251.949 134.392 252.014 134.257 251.744" stroke="#171717" stroke-width="2" stroke-linecap="round"/>
<path d="M375.253 45.9269C374.834 45.9269 374.403 45.8952 373.986 45.9369C373.086 46.0269 372.261 46.5653 371.526 47.0495C370.916 47.4515 370.337 47.969 369.82 48.4865C369.488 48.8185 369.073 49.1295 368.966 49.6091C368.436 51.9952 368.697 54.5537 368.697 56.9936C368.697 58.1436 368.919 59.1675 369.281 60.2518C369.627 61.2914 370.576 61.9234 371.521 62.4123C373.053 63.2049 374.476 64.0771 376.191 64.473C377.915 64.8708 379.406 64.644 380.911 63.7545C382.68 62.7093 383.969 61.424 384.973 59.6481C385.581 58.5724 385.896 57.2727 386.165 56.0756C386.463 54.7517 386.623 53.0674 386.12 51.7746C385.671 50.6181 384.922 49.5053 384.055 48.6212C383.162 47.7119 381.968 46.6009 380.732 46.1963C380.075 45.9814 379.429 45.7288 378.756 45.5676C378.062 45.4015 377.31 45.4778 376.6 45.4778C376.062 45.4778 375.423 45.3803 374.894 45.4978C374.606 45.5617 374.29 45.6574 373.996 45.6574" stroke="#171717" stroke-width="2" stroke-linecap="round"/>
<g filter="url(#filter0_dd_2997_21059)">
<circle cx="109.394" cy="107.394" r="25.3942" fill="white" stroke="white" stroke-width="8"/>
<path d="M90.1075 110.725C89.7908 111.132 91.2423 112.59 91.4721 112.882C92.3161 113.957 93.3586 114.914 94.1552 116.017C95.5665 117.971 91.1217 111.863 91.1217 109.452C91.1217 109.118 91.6583 109.777 91.6657 109.784C92.3626 110.444 93.0696 111.088 93.731 111.785C94.3312 112.417 94.937 113.044 95.5382 113.675C95.6666 113.81 96.2623 114.681 95.8425 114.062C94.7216 112.411 93.6334 110.674 92.7906 108.862C92.3127 107.835 92.3316 107.934 93.1317 108.641C93.7658 109.201 94.713 110.265 95.5474 110.522C95.7427 110.582 95.565 110.096 95.4737 109.913C94.9813 108.929 94.3725 108.003 93.8601 107.027C93.6379 106.604 93.2955 106.159 93.1317 105.709C93.1297 105.703 94.0948 106.402 94.2013 106.483C95.6031 107.553 97.2199 109.101 98.8667 109.775C99.3262 109.963 98.9828 109.349 98.9128 109.222C98.1447 107.828 97.1972 106.52 96.3219 105.193C95.7976 104.397 95.2459 103.599 94.8282 102.74C94.3965 101.852 95.8329 102.938 95.9531 103.017C99.2676 105.173 102.622 107.237 106.059 109.194C106.496 109.443 107.432 110.415 107.386 109.913C107.364 109.67 107.128 109.499 106.981 109.305C106.292 108.403 105.572 107.523 104.86 106.64C103.797 105.323 102.692 104.042 101.624 102.731C101.196 102.205 100.62 101.574 100.37 100.924C100.193 100.465 101.232 101.396 101.651 101.652C103.332 102.677 105.022 103.685 106.722 104.676C107.623 105.201 108.52 105.736 109.452 106.207C110.483 106.728 109.67 106.109 109.239 105.709C106.542 103.204 103.93 100.609 101.209 98.1298C101.067 98.0005 100.662 97.6159 100.84 97.6872C101.872 98.1001 102.872 98.6276 103.883 99.0887C108.228 101.072 112.646 102.876 116.828 105.193C117.096 105.341 117.904 105.712 117.704 105.478C116.364 103.915 114.762 102.511 113.287 101.08C111.974 99.8059 110.635 98.5573 109.341 97.2631C108.644 96.5663 107.605 95.6758 109.332 96.3595C111.671 97.2853 113.955 98.3543 116.275 99.3284C116.454 99.4039 117.334 99.8165 116.763 99.2454C115.123 97.6054 113.185 96.2081 111.369 94.7736C110.135 93.7985 108.886 92.844 107.644 91.8785C107.456 91.7319 106.349 90.986 107.266 91.2515C109.084 91.7777 110.839 92.5841 112.605 93.2615C114.372 93.9394 111.16 92.4245 110.89 92.2934C108.994 91.3739 107.047 90.5586 105.063 89.85C104.093 89.5038 106.865 90.8448 107.755 91.3621C108.063 91.5412 108.46 91.6592 108.742 91.8785C108.833 91.9499 107.437 91.5597 107.349 91.5281C105.298 90.7901 103.234 90.0344 101.043 89.85C99.9065 89.7544 99.8033 90.1865 99.4752 91.1408C98.6157 93.6415 96.1082 95.0142 94.8375 97.2262C93.854 98.9382 93.4195 100.94 92.8551 102.814C92.4055 104.306 91.9627 105.925 91.9331 107.498C91.9235 108.004 91.7582 108.293 91.5182 107.627C91.155 106.618 91.1033 105.607 91.1033 104.547C91.1033 102.763 91.8966 101.638 92.8735 100.158C94.4997 97.6947 96.2652 95.0055 98.6178 93.1693C98.7834 93.04 99.9006 92.0483 99.5674 92.8374C99.3373 93.3824 98.9652 93.8242 98.5901 94.2757C97.2373 95.9042 95.9346 97.5725 94.6254 99.2362C93.7455 100.354 92.9245 101.495 92.1451 102.685C91.8929 103.07 91.4194 103.581 91.4352 104.086C91.4435 104.353 91.9552 103.913 92.1544 103.736C93.5974 102.452 95.0661 101.199 96.5524 99.9646C97.6009 99.0942 98.6549 98.2291 99.7519 97.4198C99.8637 97.3374 100.987 96.7153 100.987 96.4886C100.987 96.1971 100.459 96.7378 100.213 96.8943C99.0463 97.6366 97.8583 98.3897 96.7922 99.2731C96.0977 99.8485 94.441 101.281 94.441 102.325C94.441 102.643 94.8941 102.41 95.0034 102.353C96.4912 101.573 97.8536 100.432 99.1986 99.4391C100.484 98.4902 101.768 97.5368 103.034 96.5623C103.567 96.1523 104.375 95.6574 104.749 95.0687C104.876 94.8702 104.282 94.9582 104.048 94.9857C102.423 95.1769 100.902 95.9849 99.5674 96.8943C97.514 98.294 94.2156 101.059 93.9615 103.791C93.8118 105.401 98.1497 104.45 98.9405 104.344C100.447 104.143 101.935 103.806 103.366 103.293C104.024 103.057 105.23 102.718 105.57 102.012C106.131 100.847 101.534 98.9512 100.84 98.517C100.154 98.0884 99.4822 97.6406 98.8114 97.1893C98.7176 97.1262 98.4587 96.9496 98.5717 96.9496C100.649 96.9496 102.946 97.6049 104.989 97.9454C105.986 98.1116 106.971 98.3355 107.967 98.5078C108.999 98.6864 108.439 98.3518 107.847 98.0376C106.115 97.1174 104.289 96.4267 102.61 95.4006C102.576 95.3799 104.974 95.9625 105.45 96.0829C106.448 96.3352 107.463 96.508 108.456 96.7836C108.74 96.8625 109.744 97.3764 110.051 97.2539C110.528 97.0629 109.142 96.7697 108.668 96.5716C106.934 95.8474 105.221 95.0757 103.495 94.331C102.621 93.9537 101.727 93.5994 100.877 93.1693C100.148 92.8005 100.553 92.8005 101.126 92.8005C102.721 92.8005 104.351 92.705 105.92 93.0494C107.587 93.4153 105.972 93.1294 105.229 92.9664C104.227 92.7468 103.219 92.5281 102.204 92.3764C101.712 92.3027 100.251 92.2826 100.729 92.1458C102.295 91.6984 104.634 92.6893 106.132 93.0587C106.721 93.2037 107.348 93.2615 107.921 93.4643C108.029 93.5027 108.317 93.6521 108.253 93.5565C107.579 92.5458 105.416 91.8719 104.325 91.5004C103.959 91.3757 103.483 91.2378 103.09 91.3252C102.561 91.4427 103.676 92.9643 103.735 93.0587C106 96.7101 108.569 100.192 110.973 103.754C111.41 104.402 113.176 106.578 111.25 105.146C108.948 103.437 106.843 101.457 104.51 99.7894C102.454 98.3213 108.143 103.315 109.747 105.266C110.746 106.482 111.647 107.78 112.54 109.074C112.56 109.103 113.721 110.767 113.324 110.743C112.397 110.687 111.157 109.629 110.41 109.194C108.701 108.199 106.982 107.221 105.284 106.207C104.988 106.03 104.253 105.428 103.836 105.524C103.507 105.6 104.555 106.813 104.583 106.852C105.964 108.771 107.303 110.789 108.336 112.919C108.443 113.14 108.649 113.595 108.17 113.362C106.508 112.552 105.083 111.027 103.661 109.876C103.511 109.755 99.5012 106.763 99.4752 106.815C99.2864 107.193 100.028 107.455 100.324 107.756C101.868 109.326 103.324 110.919 104.666 112.67C105.543 113.814 106.435 114.958 107.239 116.155C107.284 116.222 108.365 117.875 107.939 117.677C106.495 117.005 105.188 115.751 103.938 114.8C101.82 113.19 99.703 111.579 97.4191 110.208C97.3219 110.15 95.9847 109.37 96.1191 109.498C97.0109 110.348 97.8723 111.213 98.7007 112.126C100.06 113.625 101.341 115.188 102.573 116.792C103.303 117.741 104.269 118.765 104.768 119.871C104.965 120.308 103.9 119.441 103.532 119.134C101.945 117.806 100.417 116.411 98.8114 115.104C98.2496 114.647 95.9455 112.707 97.6496 114.45C99.1143 115.948 100.548 117.48 101.688 119.244C101.774 119.377 102.448 120.195 102.204 120.406C101.664 120.874 99.8082 119.951 99.3277 119.751C98.4447 119.384 97.6061 118.917 96.7184 118.562C96.1678 118.342 95.8951 118.315 96.3957 118.838C97.2925 119.776 98.3367 120.735 98.9589 121.89C99.1078 122.167 98.3913 121.609 98.1475 121.411C96.7706 120.292 95.4961 119.018 94.2381 117.769C94.0805 117.612 91.6708 115.339 92.8643 116.377C93.3001 116.756 94.7728 117.621 94.2197 117.455C93.4676 117.23 92.5182 115.438 92.0437 114.828C91.6428 114.312 91.7941 114.488 92.0161 114.883C92.4639 115.679 93.1572 116.256 93.7956 116.902C96.0121 119.147 98.3588 121.104 100.858 123.006C101.912 123.808 102.688 123.836 103.975 123.836C105.664 123.836 107.851 124.201 109.461 123.651C112.543 122.599 115.535 121.186 117.16 118.23C117.725 117.201 118.216 115.661 119.059 114.818C119.17 114.708 118.844 115.929 118.782 116.072C116.993 120.247 112.608 123.435 108.732 125.551C108.648 125.597 104.122 127.774 104.122 127.487C104.122 127.398 105.232 127.152 105.321 127.118C106.933 126.508 108.752 126.466 110.438 126.159C113.195 125.658 116.098 125.347 118.487 123.734C121.396 121.771 122 118.7 122.95 115.482C123.222 114.56 123.491 113.648 123.835 112.753C123.848 112.721 124.081 112.475 124.056 112.624C123.978 113.093 122.962 113.738 122.664 114.016C120.301 116.23 117.77 118.277 115.306 120.378C114.311 121.227 111.589 124.062 112.494 123.117C115.716 119.751 118.627 116.082 121.834 112.698C122.718 111.766 123.619 110.847 124.471 109.886C124.623 109.715 124.992 109.285 124.481 109.471C123.08 109.98 121.725 110.782 120.442 111.518C116.993 113.497 113.724 115.754 110.65 118.276C109.049 119.59 104.374 123.629 106.151 122.563C107.845 121.547 109.311 119.828 110.733 118.47C111.022 118.193 112.486 116.846 111.148 117.271C110.138 117.592 109.027 118.454 108.271 119.189C106.9 120.522 110.92 116.429 112.255 115.058C112.471 114.836 116.874 110.337 116.754 110.264C116.447 110.076 115.522 110.454 115.279 110.54C112.953 111.367 110.753 112.709 108.686 114.035C106.788 115.253 104.365 116.715 102.997 118.58C102.814 118.83 103.562 118.316 103.809 118.129C106.193 116.319 108.52 114.426 110.853 112.55C112.64 111.114 114.397 109.65 116.109 108.125C116.777 107.529 117.655 106.921 118.192 106.188C118.364 105.954 117.996 105.93 117.851 105.93C116.876 105.93 115.942 106.344 115.131 106.852C113.904 107.621 112.508 108.576 111.757 109.858C111.588 110.146 113.737 110.063 113.923 110.07C114.824 110.103 116.602 110.421 116.791 111.554C116.875 112.061 116.579 112.491 116.275 112.864C115.193 114.186 113.951 115.419 112.78 116.662C111.997 117.494 111.143 118.264 110.41 119.143C109.807 119.867 109.8 119.885 110.503 119.244C112.227 117.671 113.947 116.041 115.952 114.828C117.133 114.112 116.559 114.695 115.979 115.427C114.34 117.497 112.434 119.512 111.222 121.881C111.22 121.885 110.795 122.666 111.01 122.527C111.786 122.024 112.494 121.386 113.223 120.821C114.988 119.452 116.897 117.78 118.912 116.773C120.137 116.16 117.178 118.897 116.367 120C116.076 120.396 114.076 123.132 115.648 122.232C117.024 121.443 118.32 120.449 119.834 119.926C120.773 119.602 118.913 121.026 118.746 121.171C118.62 121.28 117.094 122.71 117.768 122.305C119.069 121.525 120.345 120.609 121.549 119.687C124.324 117.561 125.784 115.022 126.786 111.72C127.083 110.741 127.063 109.505 127.108 108.484C127.16 107.323 127.231 106.044 126.915 104.916C126.388 103.042 125.542 101.413 124.794 99.6419C124.173 98.1706 122.946 96.5192 121.641 95.6219C119.755 94.3256 117.376 93.7514 115.242 92.9572C113.326 92.2444 111.113 91.7905 109.064 91.6387C107.421 91.517 112.363 91.3894 114.006 91.5096C117.414 91.759 121.728 92.5951 124.139 95.3084C127.914 99.5547 127.44 106.36 125.218 111.121C124.942 111.713 124.749 112.373 124.213 112.79C123.623 113.249 123.487 111.698 123.429 111.444C122.477 107.246 121.536 103.058 120.396 98.9043C119.807 96.7593 119.204 94.6087 118.506 92.4962C118.202 91.5771 117.881 90.3911 117.233 89.6287C116.996 89.3492 117.606 90.2612 117.805 90.5692C119.18 92.692 120.356 94.9298 121.373 97.2446C122.951 100.833 124.259 104.593 125.126 108.42C125.422 109.726 121.625 107.032 121.318 106.797C120.284 106.005 119.324 105.124 118.469 104.141C118.171 103.799 117.279 103.025 117.731 102.998C118.297 102.965 119.099 104.033 119.446 104.381C119.6 104.535 120.077 104.978 119.907 104.842C118.969 104.091 118.16 103.142 117.344 102.27C115.986 100.819 114.612 99.3833 113.25 97.9362C112.736 97.3898 112.562 97.1941 112.07 96.6822C111.833 96.4361 111.03 95.8977 111.369 95.9354C111.829 95.9864 112.753 97.1682 113.029 97.4291C114.64 98.9539 116.243 100.483 117.75 102.113C118.438 102.857 119.105 103.623 119.778 104.381C119.95 104.574 120.481 105.359 120 104.658C118.367 102.28 116.767 99.9216 115.297 97.4383C114.384 95.8951 116.122 96.9651 116.938 97.3553C118.772 98.2313 120.48 99.2828 122.166 100.407C124.901 102.23 116.49 97.0831 113.767 95.2439C111.993 94.0459 110.252 92.7928 108.566 91.4728C108.495 91.417 106.721 89.9793 107.884 90.6245C111.93 92.8679 122.68 101.733 119.077 98.8305C118.283 98.1903 117.244 97.3568 116.699 96.4886C116.527 96.2147 116.631 96.1819 116.865 96.3595C117.59 96.9116 118.325 97.4634 119.041 98.0284C119.563 98.4406 120.026 98.901 120.451 99.4114C120.784 99.8106 120.716 99.7919 120.442 99.3653C119.802 98.3674 118.917 97.4177 118.598 96.2489C118.251 94.9771 120.065 98.449 120.645 99.6327C121.238 100.843 121.781 102.08 122.185 103.367C122.352 103.899 122.949 105.322 122.415 105.838C121.825 106.408 120.521 106.434 119.778 106.539C118.479 106.721 117.146 106.807 115.897 107.239C114.413 107.753 114.857 109.389 115.168 110.596C115.26 110.953 116.362 113.749 115.823 113.943C114.852 114.292 113.26 113.833 112.328 113.666C109.897 113.229 107.496 112.649 105.063 112.218C104.571 112.131 103.426 111.719 102.905 111.923C102.865 111.939 104.244 113.586 104.307 113.666C105.013 114.571 105.648 115.527 106.261 116.497C106.585 117.009 107.194 117.708 107.331 118.322C107.415 118.702 106.558 118.174 106.206 118.009C104.808 117.352 103.441 116.629 102.038 115.98C101.167 115.577 100.283 115.156 99.383 114.818C98.739 114.577 99.3297 114.986 99.5029 115.16C100.676 116.333 101.707 117.876 102.518 119.318C103.245 120.611 102.345 120.046 101.513 119.576C100.746 119.143 99.9761 118.717 99.1986 118.304C98.922 118.157 98.0462 117.88 98.3596 117.88C98.8884 117.88 99.9214 119.453 100.231 119.816C101.421 121.208 100.132 120.537 99.1894 119.991C98.2918 119.471 97.3976 118.943 96.4694 118.479C96.1553 118.322 95.3144 117.871 95.4552 118.193C95.5987 118.521 96.1809 118.919 96.4141 119.226C97.0857 120.108 97.6784 121.096 98.3135 122.01C99.2695 123.387 100.442 125.441 101.983 126.242C105.62 128.133 109.907 127.2 113.103 124.896C116.522 122.431 117.82 118.318 120.645 115.372C120.983 115.019 121.298 114.663 121.604 114.284C121.664 114.209 121.89 114.044 121.862 114.044C121.377 114.044 120.754 114.084 120.313 113.841C119.697 113.502 120.07 112.171 120.147 111.684C120.257 110.986 120.392 110.298 120.645 109.637C120.693 109.512 121.257 108.549 120.885 108.807C118.638 110.362 116.357 111.839 113.951 113.14C113.484 113.393 112.959 113.613 112.531 113.933C111.957 114.364 113.675 113.065 114.255 112.642C114.657 112.35 116.523 111.082 116.487 111.084C113.651 111.294 110.724 113.985 108.714 115.759C108.043 116.351 107.405 116.983 106.778 117.621C106.604 117.798 106.409 118.173 106.169 118.267C105.691 118.453 105.028 118.359 104.537 118.359C102.758 118.359 100.962 118.351 99.2171 117.953C98.2193 117.726 97.2389 117.361 96.3957 116.773C96.3769 116.76 95.6822 116.104 95.9531 116.414C96.6391 117.198 97.2326 118.188 97.705 119.115C98.1619 120.012 97.7233 119.731 97.4283 118.811C96.156 114.84 95.0283 109.888 96.1191 105.727C96.7382 103.366 98.6617 102.409 100.794 101.698C102.68 101.069 100.169 100.165 99.2171 100.112C98.6069 100.078 97.2154 99.8442 96.6538 100.14C96.4289 100.258 96.5801 101.358 96.5801 101.597C96.5801 101.998 96.5 102.57 96.0453 102.721C95.2431 102.989 94.8666 102.202 94.5977 101.597C93.8789 99.9792 93.7114 98.2025 93.7587 96.4517C93.7827 95.5649 94.5169 94.3948 94.9204 93.6303C95.6395 92.2678 98.4164 91.9413 99.7334 91.6387C101.471 91.2397 103.643 91.2657 105.21 92.1366" stroke="#FFD424" stroke-width="2" stroke-linecap="round"/>
<path d="M119.132 103.707C119.356 103.341 119.871 105.367 119.906 105.576C120.028 106.311 120.073 107.022 119.771 107.722C119.482 108.391 119.507 109.198 119.239 109.873C118.927 110.658 118.569 111.428 118.234 112.204C117.402 114.135 116.006 115.68 114.519 117.16C113.961 117.715 113.105 118.145 112.648 118.778C112.417 119.097 112.664 118.75 112.765 118.686C113.529 118.198 114.4 117.84 115.18 117.357C117.292 116.05 118.93 113.952 120.326 111.931C121.463 110.284 121.095 108.725 121.34 106.83C121.479 105.753 119.187 103.115 119.461 104.167C120.218 107.083 120.422 109.417 119.214 112.22C118.937 112.863 118.74 113.591 118.219 114.072C117.659 114.589 118.21 113.627 118.311 113.399C118.631 112.681 119.088 112.054 119.402 111.325C119.891 110.192 120.398 108.835 120.326 107.578C120.288 106.897 120.541 106.116 120.314 105.445C120.289 105.371 120.964 107.277 121.076 107.901C121.278 109.032 121.247 110.251 120.787 111.319C120.108 112.895 117.904 117.55 118.584 115.973C119.131 114.703 119.942 113.544 120.638 112.351C121.382 111.077 121.896 109.663 122.479 108.308C122.773 107.628 122.847 107.036 122.659 106.313C122.427 105.42 121.986 107.595 121.922 107.871C121.498 109.706 120.921 111.293 120.248 113.028C119.784 114.223 120.884 112.389 121.026 112.113C121.512 111.169 122.033 110.26 122.453 109.284" stroke="white" stroke-width="2" stroke-linecap="round"/>
<circle cx="109.394" cy="107.394" r="21.3942" stroke="#171717" stroke-width="1.5"/>
<path d="M106.664 87.9434C103.851 87.9434 101.142 87.7925 98.4219 88.626C96.2077 89.3046 93.2831 90.9685 91.9871 92.9622C88.1292 98.8974 88.35 106.097 88.4601 112.924C88.5092 115.967 90.5957 119.372 92.5055 121.621C94.5349 124.012 97.2918 126.146 100.166 127.411C102.628 128.494 105.566 129.982 108.308 130.041C111.298 130.104 113.359 129.41 116.108 128.334C118.03 127.582 119.986 125.568 121.43 124.124C122.342 123.212 123.232 121.999 123.958 120.939C124.826 119.672 125.943 118.436 126.638 117.07C127.734 114.92 128.841 112.657 129.243 110.244C129.792 106.946 129.892 102.358 128.724 99.2199C126.493 93.2241 119.941 91.411 114.224 90.1683C112.15 89.7174 110.109 89.088 108.03 88.626C106.309 88.2437 104.47 88.2738 102.796 87.7158" stroke="#171717" stroke-width="1.5" stroke-linecap="round"/>
</g>
<defs>
<filter id="filter0_dd_2997_21059" x="72" y="74" width="74.7891" height="74.7883" filterUnits="userSpaceOnUse" color-interpolation-filters="sRGB">
<feFlood flood-opacity="0" result="BackgroundImageFix"/>
<feColorMatrix in="SourceAlpha" type="matrix" values="0 0 0 0 0 0 0 0 0 0 0 0 0 0 0 0 0 0 127 0" result="hardAlpha"/>
<feOffset dy="2"/>
<feGaussianBlur stdDeviation="1"/>
<feComposite in2="hardAlpha" operator="out"/>
<feColorMatrix type="matrix" values="0 0 0 0 0 0 0 0 0 0 0 0 0 0 0 0 0 0 0.02 0"/>
<feBlend mode="normal" in2="BackgroundImageFix" result="effect1_dropShadow_2997_21059"/>
<feColorMatrix in="SourceAlpha" type="matrix" values="0 0 0 0 0 0 0 0 0 0 0 0 0 0 0 0 0 0 127 0" result="hardAlpha"/>
<feOffset dy="4"/>
<feGaussianBlur stdDeviation="4"/>
<feComposite in2="hardAlpha" operator="out"/>
<feColorMatrix type="matrix" values="0 0 0 0 0 0 0 0 0 0 0 0 0 0 0 0 0 0 0.06 0"/>
<feBlend mode="normal" in2="effect1_dropShadow_2997_21059" result="effect2_dropShadow_2997_21059"/>
<feBlend mode="normal" in="SourceGraphic" in2="effect2_dropShadow_2997_21059" result="shape"/>
</filter>
</defs>
</svg>
