<svg width="216" height="316" viewBox="0 0 216 316" fill="none" xmlns="http://www.w3.org/2000/svg">
<g filter="url(#filter0_dd_3017_28204)">
<rect x="8" y="4" width="200" height="300" rx="8" fill="white"/>
<path d="M75.26 268.18V265.64H63.3V268.18H67.82V280H70.76V268.18H75.26ZM76.5623 280H79.3623V273.92C79.3623 272.54 80.3223 271.84 81.3023 271.84C82.5023 271.84 82.9823 272.68 82.9823 273.86V280H85.7823V273.06C85.7823 270.78 84.4423 269.28 82.2423 269.28C80.9023 269.28 79.9423 269.88 79.3623 270.56V265.64H76.5623V280ZM92.6272 280.22C94.7272 280.22 96.5072 279.14 97.2672 277.22L94.9072 276.38C94.5872 277.4 93.7272 277.92 92.6472 277.92C91.2672 277.92 90.2872 276.96 90.0872 275.36H97.3272V274.54C97.3272 271.6 95.6472 269.28 92.5272 269.28C89.5472 269.28 87.4072 271.64 87.4072 274.74C87.4072 278 89.5272 280.22 92.6272 280.22ZM92.5072 271.52C93.8672 271.52 94.5272 272.42 94.5472 273.46H90.1872C90.5272 272.18 91.3872 271.52 92.5072 271.52ZM105.827 273.92C105.827 272.54 106.767 271.84 107.687 271.84C108.847 271.84 109.287 272.68 109.287 273.86V280H112.087V273.92C112.087 272.54 113.027 271.84 113.947 271.84C115.107 271.84 115.547 272.68 115.547 273.86V280H118.347V273.06C118.347 270.78 116.947 269.28 114.787 269.28C113.167 269.28 112.167 270.06 111.527 270.72C110.947 269.82 109.967 269.28 108.687 269.28C107.327 269.28 106.387 269.88 105.827 270.56V269.48H103.027V280H105.827V273.92ZM130.305 274.74C130.305 271.48 128.185 269.28 125.145 269.28C122.105 269.28 119.985 271.48 119.985 274.74C119.985 278.02 122.105 280.22 125.145 280.22C128.185 280.22 130.305 278.02 130.305 274.74ZM122.765 274.74C122.765 272.76 123.685 271.6 125.145 271.6C126.605 271.6 127.505 272.76 127.505 274.74C127.505 276.74 126.605 277.9 125.145 277.9C123.685 277.9 122.765 276.74 122.765 274.74ZM141.731 274.74C141.731 271.48 139.611 269.28 136.571 269.28C133.531 269.28 131.411 271.48 131.411 274.74C131.411 278.02 133.531 280.22 136.571 280.22C139.611 280.22 141.731 278.02 141.731 274.74ZM134.191 274.74C134.191 272.76 135.111 271.6 136.571 271.6C138.031 271.6 138.931 272.76 138.931 274.74C138.931 276.74 138.031 277.9 136.571 277.9C135.111 277.9 134.191 276.74 134.191 274.74ZM143.437 280H146.237V273.92C146.237 272.54 147.197 271.84 148.177 271.84C149.377 271.84 149.857 272.68 149.857 273.86V280H152.657V273.06C152.657 270.78 151.317 269.28 149.117 269.28C147.777 269.28 146.817 269.88 146.237 270.56V269.48H143.437V280Z" fill="#171717"/>
<path fill-rule="evenodd" clip-rule="evenodd" d="M22 12.5C18.9624 12.5 16.5 14.9624 16.5 18V290C16.5 293.038 18.9624 295.5 22 295.5H194C197.038 295.5 199.5 293.038 199.5 290V18C199.5 14.9624 197.038 12.5 194 12.5H22ZM19.5 18C19.5 16.6193 20.6193 15.5 22 15.5H194C195.381 15.5 196.5 16.6193 196.5 18V251H19.5V18ZM19.5 254V290C19.5 291.381 20.6193 292.5 22 292.5H194C195.381 292.5 196.5 291.381 196.5 290V254H19.5Z" fill="url(#paint0_linear_3017_28204)"/>
<path fill-rule="evenodd" clip-rule="evenodd" d="M22 12.5C18.9624 12.5 16.5 14.9624 16.5 18V290C16.5 293.038 18.9624 295.5 22 295.5H194C197.038 295.5 199.5 293.038 199.5 290V18C199.5 14.9624 197.038 12.5 194 12.5H22ZM19.5 18C19.5 16.6193 20.6193 15.5 22 15.5H194C195.381 15.5 196.5 16.6193 196.5 18V251H19.5V18ZM19.5 254V290C19.5 291.381 20.6193 292.5 22 292.5H194C195.381 292.5 196.5 291.381 196.5 290V254H19.5Z" fill="url(#paint1_linear_3017_28204)" style="mix-blend-mode:difference"/>
<path fill-rule="evenodd" clip-rule="evenodd" d="M22 12.5C18.9624 12.5 16.5 14.9624 16.5 18V290C16.5 293.038 18.9624 295.5 22 295.5H194C197.038 295.5 199.5 293.038 199.5 290V18C199.5 14.9624 197.038 12.5 194 12.5H22ZM19.5 18C19.5 16.6193 20.6193 15.5 22 15.5H194C195.381 15.5 196.5 16.6193 196.5 18V251H19.5V18ZM19.5 254V290C19.5 291.381 20.6193 292.5 22 292.5H194C195.381 292.5 196.5 291.381 196.5 290V254H19.5Z" fill="url(#paint2_linear_3017_28204)" style="mix-blend-mode:screen"/>
<g clip-path="url(#clip0_3017_28204)">
<g filter="url(#filter1_dd_3017_28204)">
<path d="M73.9221 221.407C74.4903 221.736 75.1734 222.446 75.8998 222.348C76.3955 222.281 75.5375 220.386 75.4234 220.034C75.328 219.741 75.2326 219.447 75.1372 219.154C75.0414 218.859 75.5839 219.72 75.7294 219.856C76.3975 220.482 77.176 220.99 77.8071 221.65C78.0877 221.943 78.5947 222.509 79.0035 222.638C79.1227 222.676 78.8484 221.858 78.8179 221.764C78.6926 221.379 78.5674 220.993 78.4421 220.608C78.0465 219.39 79.2793 221.359 79.5787 221.684C79.8522 221.981 81.4252 223.795 80.9319 222.277C80.372 220.554 79.2379 219.078 78.638 217.397C78.5145 217.05 78.4228 216.85 78.6267 217.332C78.947 218.087 79.5829 218.745 80.0812 219.387C80.4858 219.907 80.9512 220.383 81.3683 220.896C81.4839 221.038 81.9741 221.718 81.7927 221.112C81.4353 219.919 81.0215 218.739 80.6365 217.554C80.3087 216.545 79.8146 217.972 79.5347 218.522C79.3179 218.947 79.1309 219.418 78.8505 219.806C78.7264 219.978 78.6873 220.511 78.5386 220.36C78.2475 220.064 78.1524 219.171 78.0155 218.75C77.8254 218.165 75.1366 222.256 76.9165 219.726" stroke="#171717" stroke-width="2" stroke-linecap="round"/>
<path d="M141.496 196.76C142.511 196.43 145.555 195.441 144.54 195.771C140.161 197.194 135.781 198.617 131.401 200.04C130.799 200.236 124.523 202.275 127.582 201.281C130.487 200.337 133.167 198.935 136.052 197.997C136.593 197.821 140.16 196.356 139.483 196.381C138.262 196.424 136.821 197.219 135.91 197.925C134.135 199.302 135.137 199.889 137.081 199.257C141.603 197.788 146.125 196.319 150.648 194.849C152.37 194.29 154.196 193.696 151.315 194.632C147.594 195.841 143.873 197.05 140.152 198.259C139.642 198.425 133.442 200.943 134.021 201.196C135.424 201.81 141.611 197.937 143.037 197.322C146.137 195.986 149.245 194.242 152.445 193.202C154.771 192.447 149.835 193.519 149.271 193.702C144.904 195.121 140.391 196.056 136.003 197.482C134.989 197.811 133.704 198.014 132.78 198.559C132.323 198.828 132.027 199.784 132.843 199.571C138.357 198.132 143.765 196.023 149.187 194.261C150.916 193.699 143.976 195.954 143.232 196.196C140.135 197.202 138.078 199.102 135.235 200.389C133.353 201.24 137.734 201.387 137.971 201.36C141.44 200.953 145.222 200.251 148.563 199.247C149.163 199.066 153.336 197.696 150.779 198.526C146.961 199.767 143.142 201.008 139.323 202.249C137.99 202.682 135.846 203.91 138.464 203.059C141.785 201.98 145.275 200.771 148.325 199.058C148.646 198.878 152.608 196.985 151.338 196.337C149.726 195.516 145.834 197.476 144.31 197.971C142.523 198.552 137.338 200.768 139.126 200.187C142.426 199.115 145.54 197.572 148.824 196.505C152.938 195.168 147.093 196.536 145.81 196.953C143.242 197.787 141.07 198.663 138.912 200.257" stroke="#171717" stroke-width="2" stroke-linecap="round"/>
<path d="M92.8934 149.926C94.9479 152.183 102.746 157.124 100.178 155.475C99.2786 154.897 98.4526 154.265 97.5818 153.645C96.017 152.53 91.5553 148.922 92.8725 150.321C95.3996 153.005 98.2482 155.461 101.181 157.688C101.532 157.955 102.955 159.013 102.932 158.986C102.066 157.977 100.875 157.199 99.8338 156.393C98.1584 155.096 96.4905 153.733 94.8784 152.358C94.6326 152.148 93.1165 150.836 94.047 151.821C96.9122 154.857 99.8931 157.794 103.222 160.34C104.342 161.197 103.354 160.124 102.962 159.768C101.481 158.423 99.8266 157.269 98.3824 155.879C96.4509 154.02 94.5319 152.021 92.7219 150.041C92.6383 149.95 90.9474 147.68 91.1408 147.658C91.8093 147.579 93.3682 149.408 93.8063 149.794C95.5808 151.357 97.3205 152.954 98.9802 154.639C99.1988 154.861 100.446 156.498 100.206 155.884C99.6571 154.481 98.0947 153.24 97.1533 152.096C95.6897 150.319 94.1346 148.628 92.7059 146.821C92.1729 146.146 90.9379 143.907 91.2035 144.725C91.4221 145.398 92.499 145.973 92.9829 146.432C94.4071 147.782 95.8724 149.114 97.4365 150.302C97.6169 150.439 99.1418 151.753 99.4418 151.233C99.7415 150.715 98.5518 148.987 98.3295 148.638C96.5212 145.794 94.7453 142.818 92.4858 140.306C90.7488 138.374 95.5095 144.536 97.1686 146.536C97.366 146.773 98.6537 148.521 98.4511 148.001C97.959 146.736 96.7756 145.481 95.9448 144.424C94.7224 142.869 93.3042 141.449 91.8766 140.085C91.452 139.68 89.4927 137.446 90.9817 139.032C93.6908 141.917 96.115 145.255 98.3484 148.512C99.0626 149.553 98.0301 148.315 97.7727 148.027C96.2509 146.325 94.8065 144.593 93.4103 142.783C92.668 141.821 90.5881 139.815 90.541 138.503C90.5395 138.461 91.7242 139.469 91.8402 139.559C93.4036 140.778 94.8326 142.163 96.3657 143.421C97.8751 144.66 99.5014 146.597 101.24 147.483C101.925 147.832 101.351 146.191 101.3 146.059C100.516 144.034 99.0725 142.238 97.7577 140.534C96.4023 138.778 95.0417 137.025 93.6875 135.27C92.7539 134.06 94.5824 135.747 94.8141 135.979C97.1894 138.364 99.4602 140.878 101.811 143.265C103.389 144.867 98.6488 140.067 97.0817 138.454C95.7795 137.114 94.1086 135.936 93.0202 134.412C92.6192 133.85 93.6699 135.112 93.7685 135.244C95.9035 138.104 98.1085 141.317 100.987 143.488C101.792 144.094 101.22 143.266 100.916 142.854C99.7286 141.245 98.2581 139.753 96.9848 138.202C95.607 136.522 93.9586 134.886 93.2392 132.787C92.8481 131.647 94.3582 133.021 94.7359 133.257C98.4515 135.572 101.599 138.691 105.033 141.367C105.111 141.427 106.571 142.513 106.707 142.152C106.962 141.476 104.948 139.889 104.579 139.557C102.165 137.385 95.3728 130.393 97.7505 132.606C100.551 135.212 103.802 137.746 107.039 139.774C107.452 140.032 108.818 141.221 109.374 141.076C109.932 140.931 108.098 139.473 107.941 139.331C106.466 137.999 104.771 136.893 103.189 135.693C102.804 135.4 99.009 132.877 99.1899 132.347C99.2447 132.187 99.7818 132.623 99.8075 132.639C100.29 132.951 100.852 133.116 101.37 133.357C103.16 134.19 104.874 135.183 106.659 136.029C107.494 136.425 108.893 137.407 109.862 137.154C110.706 136.934 108.85 136.003 108.641 135.878C105.754 134.156 97.1825 128.846 99.9749 130.718C102.652 132.514 105.774 134.067 108.827 135.071C110.239 135.535 111.659 135.887 113.131 136.092C114.079 136.223 111.328 134.974 111.048 134.827C109.488 134.007 108.044 132.983 106.518 132.102C105.449 131.484 107.031 132.349 107.288 132.494C110.817 134.482 114.362 136.442 117.875 138.463C119.276 139.27 122.465 140.748 118.93 139.136C116.86 138.192 114.761 137.174 112.759 136.093C112.561 135.987 109.9 134.272 110.421 135.105C111.031 136.079 112.244 137.008 113.119 137.709C115.831 139.879 118.701 141.87 121.481 143.953C123.043 145.124 124.626 146.247 125.895 147.746C126.771 148.782 123.351 147.284 123.15 147.204C120.485 146.15 117.942 144.999 115.355 143.763C112.868 142.574 110.632 140.995 108.198 139.756C105.654 138.459 112.205 143.835 114.37 145.696C115.515 146.679 116.473 147.862 117.639 148.816C117.769 148.922 116.126 147.376 115.748 147.04C114.37 145.818 113.082 144.498 111.702 143.277C111.193 142.827 109.73 140.961 108.888 141.234C107.549 141.669 109.707 149.546 109.986 150.406C110.451 151.835 111.472 153.758 111.31 155.308C111.305 155.356 109.34 153.006 109.133 152.7C106.92 149.412 105.133 145.397 103.908 141.628C103.09 139.109 106.582 146.223 107.547 148.69C108.315 150.653 109.083 152.616 109.928 154.547C110.191 155.147 110.638 156.388 109.661 155.381C106.605 152.23 104.359 148.11 101.937 144.478C101.893 144.413 100.843 142.736 100.682 142.87C100.331 143.163 101.526 145.87 101.636 146.174C103.22 150.538 105.506 154.835 107.703 158.915C108.999 161.322 104.932 154.198 103.601 151.809C102.727 150.239 101.902 148.592 100.757 147.192C100.467 146.836 101.131 148.791 101.215 149.014C101.825 150.633 102.525 152.257 103.294 153.805C103.809 154.842 105.337 157.13 105.237 158.312C105.156 159.262 103.941 156.913 103.276 156.231C102.145 155.07 100.869 154.104 99.5801 153.13C99.2003 152.843 97.9675 152.153 98.5599 153.208C99.1701 154.295 100.307 155.382 101.169 156.273C104.277 159.485 108.319 161.852 111.769 164.673C111.978 164.843 110.954 163.434 110.644 163.186C109.002 161.873 107.328 160.449 105.561 159.312C104.192 158.43 102.646 157.625 101.146 156.983C100.323 156.63 101.697 158.138 101.792 158.236C105.833 162.44 111.412 165.655 116.689 168.092C117.916 168.659 119.425 169.365 120.783 169.57C121.641 169.699 119.127 169.051 118.31 168.761C114.133 167.278 110.033 165.167 106.176 162.995C105.197 162.444 105.606 162.611 106.378 162.929C108.783 163.922 111.079 165.192 113.478 166.208C116.447 167.466 119.494 168.489 122.425 169.843C123.55 170.362 125.158 170.641 126.087 171.506C126.165 171.578 123.979 171.25 123.682 171.182C120.835 170.535 118.029 169.111 115.488 167.706C113.433 166.57 111.726 165.116 109.967 163.585C109.826 163.463 107.337 161.214 107.668 161.106C108.663 160.783 110.755 162.937 111.419 163.412C113.981 165.245 116.538 167.073 119.072 168.946C120.441 169.958 121.764 170.962 123.3 171.709C123.648 171.878 121.784 169.885 121.466 169.557C119.362 167.389 117.329 165.178 115.173 163.059C113.264 161.183 110.951 159.149 109.687 156.746C107.206 152.031 126.568 169.747 122.479 166.331C119.196 163.588 116.285 160.412 113.013 157.652C111.928 156.737 109.047 153.768 109.632 155.062C110.562 157.117 112.417 158.926 113.871 160.614C116.911 164.148 126.603 174.199 123.107 171.115C119.302 167.758 115.612 163.375 113.079 159.005C112.301 157.663 111.214 155.958 111.061 154.358C110.985 153.56 112.696 155.486 112.813 155.611C114.762 157.691 116.815 159.671 118.776 161.739C119.238 162.226 122.628 166.372 123.37 166.131C123.457 166.102 121.457 162.788 121.33 162.567C119.807 159.891 118.234 157.246 116.715 154.567C115.618 152.632 114.266 150.792 113.287 148.796C112.478 147.148 114.558 150.681 114.735 150.954C116.459 153.627 118.343 156.181 120.101 158.829C121.552 161.014 123.907 163.556 124.727 166.078C126.29 170.889 120.192 156.994 118.629 152.183C117.952 150.1 117.065 147.915 117.056 145.689C117.051 144.294 117.332 147.256 117.366 147.47C118.43 154.086 122.129 160.859 125.672 166.458C126.604 167.932 126.01 166.954 125.616 166.058C124.502 163.522 123.501 160.903 122.558 158.3C121.452 155.248 120.926 151.846 120.637 148.618C120.617 148.399 120.352 145.248 121.16 145.909C122.291 146.833 122.882 148.837 123.464 150.104C124.872 153.169 126.129 156.235 127.171 159.444C127.679 161.007 128.187 162.569 128.694 164.132C129.131 165.476 127.911 161.412 127.63 160.027C126.554 154.743 126.527 149.49 126.618 144.136C126.642 142.722 126.963 143.832 127.001 144.534C127.13 146.858 126.953 149.222 126.89 151.545C126.803 154.749 126.597 157.986 126.722 161.188C126.751 161.934 127.366 165.715 126.138 166.008C124.936 166.295 122.27 153.469 122.059 152.443C121.501 149.741 120.824 147.064 120.382 144.34C120.315 143.925 119.767 140.918 119.549 142.788C118.905 148.304 119.703 153.559 120.054 159.053C120.074 159.364 120.53 162.45 119.747 162.245C118.526 161.924 117.678 158.266 117.355 157.272C115.644 152.006 115.528 146.357 113.938 141.057C113.833 140.706 113.683 139.039 113.401 140.231C112.91 142.304 113.019 144.784 113.027 146.894C113.041 150.366 113.423 153.838 113.424 157.309C113.424 157.794 113.488 161.725 112.796 161.949C111.684 162.311 109.376 150.469 109.149 149.483C108.557 146.914 107.774 144.426 106.96 141.92C106.936 141.845 105.996 138.921 105.77 139.499C105.337 140.612 105.64 142.578 105.671 143.743C105.742 146.46 105.71 149.174 105.69 151.892C105.688 152.158 105.865 156.273 105.041 155.687C103.555 154.632 103.065 151.478 102.56 149.892C101.61 146.906 101.003 143.861 100.55 140.762C100.424 139.901 99.7068 135.943 101.093 135.493C101.828 135.254 103.057 137.881 103.313 138.326C105.225 141.65 106.848 145.153 108.635 148.545C110.58 152.239 112.764 155.825 115.134 159.263C115.413 159.668 117.077 162.682 117.77 161.125C118.634 159.183 117.961 156.059 118.022 153.993C118.104 151.246 118.188 148.159 119.016 145.516C119.084 145.301 119.725 143.194 120.066 143.367C120.913 143.799 121.013 146.265 121.197 147.032C122.613 152.949 124.237 158.687 126.118 164.476C126.261 164.916 126.362 166.513 126.205 165.389C125.939 163.473 125.896 161.514 125.665 159.59C125.389 157.288 125.182 154.927 125.646 152.636C125.96 151.088 126.335 152.687 126.485 153.379C127 155.755 127.519 158.085 128.165 160.435C129.256 164.402 130.921 168.09 132.296 171.953C132.377 172.181 133.549 175.011 132.627 173.936C131.252 172.333 130.417 170.235 129.525 168.343C127.715 164.502 126.072 160.219 123.183 157.006C122.173 155.883 124.457 159.747 125.164 161.082C126.515 163.633 128.034 166.044 129.898 168.251C131.095 169.668 132.613 170.88 133.726 172.354C133.984 172.696 132.384 171.673 132.187 171.57C129.094 169.958 125.545 167.785 122.15 166.975C121.343 166.782 124.48 169.859 124.697 170.031C126.402 171.378 128.114 172.682 130.096 173.594C130.212 173.647 132.445 174.929 132.48 174.312C132.517 173.667 130.612 172.768 130.185 172.489C128.518 171.4 126.679 170.636 124.819 169.946C124.351 169.773 121.92 168.534 122.515 169.889C122.942 170.862 124.015 171.721 124.818 172.381C126.224 173.537 127.718 174.355 129.329 175.187C130.263 175.669 132.247 177.417 133.374 177.248C133.472 177.233 132.425 176.904 132.29 176.853C131.361 176.503 130.541 175.804 129.651 175.351" stroke="#FFD424" stroke-width="2" stroke-linecap="round"/>
<path d="M131.677 174.962C131.021 175.27 132.44 176.15 132.601 176.335C133.683 177.575 134.334 179.243 135.526 180.373C135.738 180.574 136.916 181.91 136.923 180.995C136.936 179.255 136.211 177.446 136.105 175.674C135.973 173.468 136.456 171.198 137.009 169.078C137.367 167.706 137.4 167.648 137.615 169.06C137.937 171.163 137.477 173.392 137.162 175.48C137.084 176 136.185 180.301 135.986 179.029C135.749 177.517 138.495 165.744 140.079 166.438C141.004 166.842 140.026 170.163 139.884 170.802C139.25 173.665 138.892 176.621 137.995 179.421C136.426 184.322 140.448 169.422 141.927 164.493C142.443 162.77 143.089 159.087 144.529 157.793C144.655 157.679 144.564 159.182 144.554 159.248C144.334 160.71 143.803 162.084 143.412 163.503C142.734 165.961 141.886 168.264 141.08 170.668C140.373 172.778 141.555 168.995 141.672 168.489C142.484 164.96 143.022 161.382 143.235 157.765C143.342 155.953 143.426 154.107 143.236 152.298C143.166 151.622 143.206 149.693 142.423 149.336C141.12 148.742 140.401 153.893 140.323 154.455C139.674 159.129 140.064 163.791 140.324 168.479C140.373 169.368 140.667 173.66 139.994 170.587C139.195 166.943 138.43 163.253 137.197 159.727C136.263 157.057 134.954 154.477 134.572 151.649C134.307 149.687 135.809 155.409 136.42 157.291C137.567 160.822 139.135 164.225 140.24 167.759C141.144 170.654 138.596 167.458 138.136 166.755C135.99 163.472 134.211 160.007 132.536 156.462C131.945 155.21 131.129 153.841 130.878 152.461C130.768 151.861 131.764 153.951 131.835 154.121C133.4 157.819 135.413 161.303 137.036 164.977C137.194 165.337 139.931 171.326 138.552 170.518C136.403 169.259 134.587 166.069 133.13 164.125C131.257 161.628 128.743 159.16 127.263 156.413C126.4 154.81 128.384 159.9 129.246 161.504C131.454 165.616 134.05 169.533 136.201 173.672C137.799 176.745 135.103 173.171 134.559 172.249C132.179 168.213 129.98 163.884 128.327 159.503C128.082 158.853 125.336 152.021 126.518 151.637C127.222 151.408 130.409 157.588 130.798 158.192C132.263 160.461 133.788 163.719 136.149 165.235C136.47 165.442 136.108 164.6 136.087 164.539C135.549 162.981 134.652 161.588 133.856 160.155C131.566 156.036 128.971 151.619 128.207 146.906C127.819 144.517 128.538 144.656 129.584 146.548C131.606 150.208 133.679 153.863 135.916 157.395C136.101 157.687 139.117 162.3 138.84 160.418C138.388 157.346 136.52 154.672 135.212 151.918C133.725 148.786 132.579 145.127 132.253 141.663C132.159 140.655 133.804 143.243 133.942 143.504C135.709 146.841 137.404 150.389 138.57 153.979C138.683 154.328 139.899 158.558 139.571 156.417C139.129 153.527 138.676 150.628 138.415 147.711C138.358 147.068 137.641 139.469 139.45 142.252C141.219 144.975 142.218 148.275 142.96 151.402C143.586 154.038 144.894 158.097 144.021 160.826C143.872 161.29 143.504 159.996 143.493 159.937C143.291 158.862 143.448 157.702 143.46 156.617C143.483 154.355 143.163 150.978 144.756 149.116C145.553 148.186 145.796 150.691 145.802 151.047C145.857 154.186 145.642 157.424 145.272 160.539C145.058 162.337 144.7 164.268 143.982 165.946C143.31 167.515 145.468 162.868 146.061 161.268C148.337 155.126 149.502 148.748 149.867 142.228C150.014 139.598 150.21 136.981 149.935 134.35C149.837 133.406 149.848 130.539 149.783 133.1C149.626 139.367 149.398 145.474 148.366 151.677C147.289 158.155 148.218 138.504 147.263 132.007C146.951 129.89 146.306 127.808 146.102 125.678C146.089 125.538 146.256 123.912 146.264 123.923C146.664 124.517 146.508 125.664 146.52 126.319C146.557 128.457 147.022 130.547 147.181 132.676C147.551 137.631 148.435 142.627 148.532 147.591C148.543 148.149 148.775 152.683 147.878 150.402C144.833 142.659 142.735 134.537 139.021 127.053C136.331 121.632 142.464 138.658 144.334 144.414C145.078 146.705 142.989 143.445 142.647 142.991C139.593 138.938 136.714 134.688 134.389 130.171C134.327 130.051 133.186 127.886 133.185 127.889C132.984 128.282 133.336 129.311 133.422 129.679C134.526 134.352 137.15 138.652 139.274 142.907C140.26 144.882 141.212 146.852 142.081 148.88C142.269 149.32 142.93 150.222 142.763 150.749C142.682 151.005 142.1 149.925 142.082 149.895C141.124 148.281 140.215 146.655 139.352 144.987C136.909 140.264 133.963 135.798 131.697 130.986C130.962 129.427 130.343 127.83 129.81 126.192C129.501 125.239 129.644 125.659 129.706 126.331C130.053 130.092 131.472 133.602 132.561 137.187C133.857 141.449 135.254 145.862 135.961 150.271C136.967 156.537 130.645 138.639 129.3 132.437C128.941 130.78 129.173 125.681 128.966 127.363C128.547 130.769 129.238 134.312 129.139 137.732C129.035 141.328 129.4 145.734 128.136 149.17C127.254 151.565 126.856 146.342 126.844 145.975C126.694 141.311 126.959 136.735 127.551 132.109C127.629 131.496 128.302 123.888 129.627 124.34C130.402 124.605 129.029 131.145 128.933 131.765C128.168 136.661 127.086 141.7 125.081 146.249C124.904 146.65 123.416 149.704 123.307 147.916C123.068 143.963 123.78 140.076 124.299 136.168C124.583 134.031 124.813 131.817 125.44 129.748C125.739 128.76 126.193 127.814 126.392 126.795C126.602 125.72 125.654 129.305 125.548 129.668C124.03 134.889 121.103 150.873 121.399 145.444C121.541 142.851 122.345 140.273 122.805 137.728C123.33 134.828 124.395 132.079 124.954 129.219C125.844 124.666 121.895 138.01 119.789 142.144C118.843 144 119.119 141.532 119.296 140.81C119.909 138.314 120.647 135.839 121.526 133.424C122.205 131.559 121.749 132.565 121.223 133.732C120.345 135.678 119.303 137.599 117.996 139.291C117.797 139.549 115.779 141.227 115.472 140.44C115.133 139.573 116.433 137.445 116.695 136.667C117.195 135.186 117.967 132.846 119.06 131.672C119.751 130.929 118.508 133.634 118.068 134.548C117.957 134.779 116.974 137.336 116.799 137.261C116.485 137.126 117.653 134.266 117.726 134.047C118.331 132.221 118.904 130.468 119.877 128.808C120.62 127.539 120.283 128.523 120.003 129.289C119.393 130.957 118.734 132.793 118.616 134.579C118.539 135.735 118.605 137.136 118.759 135.16C119.19 129.664 119.681 124.156 120.38 118.682C120.739 115.872 118.439 124.182 118.664 127.006C118.926 130.301 119.212 128.414 119.486 126.5C120.144 121.895 122.087 117.943 125.701 114.832C126.214 114.391 133.061 111.113 132.706 110.51C132.242 109.724 129.345 111.343 128.96 111.623C125.825 113.903 123.974 116.956 122.908 120.669C121.915 124.125 121.595 127.664 121.291 131.231C121.067 133.862 122.306 129.185 122.478 128.724C123.974 124.729 125.583 120.699 127.576 116.926C127.698 116.697 130.94 110.926 131.414 111.453C132.134 112.254 129.134 117.432 128.775 118.225C126.92 122.313 125.4 126.74 125.029 131.241C124.775 134.319 125.608 130.154 125.784 129.383C126.738 125.189 127.966 120.805 129.675 116.857C129.848 116.457 131.826 112.744 131.512 115.065C131.089 118.186 129.78 121.176 129.219 124.279C128.88 126.15 128.532 131.839 128.919 129.977C129.446 127.441 130.333 124.856 131.214 122.421C132.278 119.476 133.051 116.229 134.793 113.581C135.139 113.056 135.316 113.179 135.273 113.769C135.157 115.35 134.612 116.957 134.271 118.5C133.302 122.881 132.02 127.099 131.611 131.596C131.572 132.025 131.247 133.097 131.39 133.535C131.64 134.305 131.846 131.982 132.099 131.214C133.318 127.506 134.481 123.784 135.777 120.102C136.386 118.37 138.237 113.292 138.133 115.124C137.991 117.614 136.975 120.072 136.415 122.478C136.018 124.186 135.717 125.914 135.45 127.646C135.312 128.542 134.814 130.008 135.111 130.922C135.244 131.33 135.415 130.119 135.538 129.708C135.925 128.409 136.251 127.085 136.605 125.777C137.355 123.008 138.169 119.045 140.043 116.774C140.415 116.322 140.003 120.603 139.921 120.951C138.811 125.659 137.564 130.492 137.413 135.342C137.364 136.933 137.327 138.571 137.485 140.158C137.587 141.196 137.896 139.578 137.93 139.416C138.904 134.794 139.875 130.163 141.023 125.581C141.609 123.24 143.382 116.356 143.468 118.768C143.498 119.585 143.065 120.614 142.927 121.423C142.59 123.409 142.092 125.377 141.687 127.352C141.251 129.482 139.909 132.911 140.622 135.106C140.829 135.741 140.721 133.772 140.826 133.113C141.115 131.303 141.272 129.461 141.609 127.661C141.819 126.537 142.974 121.22 144.573 121.202C145.958 121.186 146.125 126.381 146.234 127.278C146.701 131.125 147.322 134.923 147.872 138.754C148.291 141.68 148.049 137.409 148.036 136.685C147.976 133.381 147.798 129.873 148.346 126.607C148.614 125.003 149.073 124.248 149.631 125.966C150.399 128.331 150.759 130.426 150.818 132.928C150.847 134.162 151.021 135.416 150.951 136.648C150.928 137.053 150.846 138.206 150.601 137.18C149.727 133.518 150.959 122.182 151.437 125.916C151.719 128.12 151.972 130.158 151.99 132.398C152.002 133.948 151.92 135.493 151.9 137.042C151.889 137.913 152.089 139.238 151.671 140.059C151.08 141.218 151.332 137.472 151.319 136.171C151.308 135.172 150.619 130.215 152.082 129.739C152.409 129.633 152.946 136.684 153.525 136.664C154.046 136.645 154.26 128.843 154.295 128.094C154.454 124.751 153.457 122.022 152.438 118.885C152.08 117.782 151.513 116.764 151.007 115.721C150.403 114.478 150.221 112.994 149.414 111.877C148.333 110.379 147.337 108.392 145.392 108.001C143.329 107.587 141.515 106.742 139.408 106.914C138.451 106.992 137.5 107.147 136.54 107.189C135.429 107.237 134.386 106.838 133.258 106.97C130.153 107.335 128.498 109.889 127.281 112.616C126.657 114.015 125.81 115.233 125.39 116.726C125.032 118 125.935 115.614 126.034 115.352C127.233 112.171 129.966 108.578 133.348 107.479C134.98 106.949 136.388 108.673 137.365 109.728C138.717 111.187 140.062 112.716 141.478 114.112C141.723 114.353 142.878 116.037 143.386 115.479C143.919 114.892 142.218 112.728 141.963 112.297C141.635 111.739 139.472 107.186 139.028 107.216C138.991 107.219 140.91 112.099 141.099 112.488C141.882 114.094 144.406 118.159 143.055 114.003C142.666 112.805 142.277 111.607 141.888 110.409C141.352 108.761 142.922 113.719 143.508 115.349C144.059 116.884 144.771 118.351 145.482 119.816C145.777 120.424 146.085 121.618 146.633 122.071C147.413 122.715 146.954 119.457 146.941 119.342C146.597 116.409 145.697 113.719 144.561 111.005C143.566 108.629 144.516 111.052 144.818 111.981C145.711 114.73 146.762 117.557 147.909 120.207C148.444 121.442 149.049 122.642 149.683 123.828C149.742 123.939 150.284 124.744 150.31 124.102C150.499 119.439 147.881 114.789 146.487 110.498C145.944 108.829 145.834 107.944 146.634 110.077C147.874 113.387 149.292 116.65 150.386 120.015C151.206 122.541 151.72 125.149 152.601 127.659C152.786 128.188 152.85 127.729 152.786 127.449C152.51 126.232 152.032 125.001 151.61 123.829C150.328 120.266 148.624 116.754 147.005 113.332C146.661 112.606 145.688 109.222 144.811 111.132C142.525 116.115 148.061 132.717 146.367 127.504C145.66 125.329 144.953 123.154 144.247 120.979C143.528 118.767 142.762 116.591 141.803 114.47C141.669 114.172 139.937 109.677 139.656 109.701C138.017 109.837 142.02 131.794 142.287 133.519C142.288 133.524 142.596 135.895 142.405 135.811C142.052 135.657 141.764 134.01 141.679 133.717C140.207 128.591 138.847 123.462 137.219 118.379C136.508 116.159 135.854 113.937 135.419 111.645C135.41 111.6 135.188 109.941 134.928 110.042C133.77 110.495 135.646 118.127 135.795 118.961C136.271 121.634 136.929 124.261 137.567 126.898C137.999 128.683 138.323 130.631 139.206 132.265C139.72 133.214 141.24 135.424 142.277 133.762C143.636 131.581 142.293 127.124 141.688 124.872C141.051 122.5 140.058 120.23 138.973 118.033C138.269 116.607 136.273 114.049 136.483 112.345C136.553 111.777 137.285 112.997 137.304 113.034C137.86 114.133 138.464 115.183 139.081 116.25C140.792 119.211 142.76 122.195 143.822 125.463C144.235 126.733 144.988 128.922 143.11 129.249C140.112 129.771 136.372 128.203 133.648 127.156C133.343 127.039 129.233 125.288 130.074 126.958C130.34 127.486 131.049 127.77 131.539 128.02C133.264 128.899 135.061 129.63 136.794 130.495C139.957 132.072 143.175 133.161 146.661 133.741C146.711 133.749 147.776 134.074 147.179 134.095C145.564 134.153 143.884 133.422 142.34 133.039C140.371 132.551 138.5 131.911 136.573 131.284C135.048 130.787 133.24 130.202 131.693 130.928C130.058 131.694 130.217 133.051 131.367 134.11C133.739 136.294 136.63 138.284 139.482 139.778C139.991 140.044 143.98 141.362 141.828 141.39C138.698 141.432 135.684 140.718 132.671 139.96C130.571 139.431 128.479 138.88 126.395 138.295C125.373 138.008 124.226 137.628 123.242 138.244C122.088 138.966 124.158 140.242 124.607 140.608C127.689 143.116 130.995 145.333 134.111 147.795C134.978 148.48 136.907 149.78 137.286 150.946C137.651 152.07 132.668 150.484 132.448 150.397C130.518 149.635 128.606 148.813 126.794 147.798C125.832 147.259 124.325 145.853 123.175 145.763C122.752 145.73 123.656 146.944 123.669 146.962C124.644 148.234 125.68 149.28 126.91 150.315C129.277 152.307 131.928 154.588 134.819 155.765C136.419 156.417 137.629 156.404 137.411 154.55" stroke="#FFD424" stroke-width="2" stroke-linecap="round"/>
<path d="M105.545 66.9251C112.22 64.7562 119.037 64.9046 125.067 68.958C129.757 72.1113 120.072 69.7412 118.399 69.7285C115.402 69.7057 112.275 69.7392 109.294 69.4914C108.466 69.4226 105.26 69.2511 105.808 69.0731C112.673 66.8425 120.076 69.9227 126.58 72.3751C130.733 73.9408 134.322 76.0172 138.209 78.0895C139.579 78.8195 142.838 80.3055 143.386 81.9916C143.589 82.6173 137.883 79.8797 137.312 79.5289C133.036 76.9046 128.732 74.2447 124.232 72.0214C120.29 70.0738 116.477 67.9146 112.588 65.8776C110.904 64.996 109.511 64.1325 112.376 64.2712C120.358 64.6577 129.794 67.656 137.146 70.6172C143.789 73.2924 151.173 79.9566 154.343 86.4973C154.968 87.7884 156.331 89.1791 156.757 90.4903C157.383 92.4176 153.081 90.397 152.729 90.1239C150.185 88.1494 148.274 85.6381 146.034 83.3646C143.486 80.7769 139.945 78.9558 136.996 76.8394C134.151 74.7966 131.307 72.079 127.944 70.9393C127.088 70.6492 120.588 69.8896 120.402 68.9226C120.319 68.4933 124.346 68.9663 124.683 69.1138C128.501 70.7846 132.59 71.7072 136.379 73.4105C144.177 76.9164 150.22 81.0979 154.926 88.2932C157.303 91.9271 159.77 94.6091 161.144 98.8369C161.876 101.089 163.739 104.094 160.367 101.602" stroke="#C6C6C8" stroke-width="2" stroke-linecap="round"/>
<ellipse cx="142.129" cy="199.256" rx="70.7695" ry="8.07462" transform="rotate(-18 142.129 199.256)" stroke="#171717" stroke-width="2" stroke-linecap="round"/>
<path d="M79.4059 236.387L74.543 221.421C78.0989 223.66 97.8267 223.614 148.291 205.52C198.755 187.426 210.207 179.321 209.625 177.53L218.096 187.93C202.268 199.72 152.372 225.916 79.4059 236.387Z" stroke="#171717" stroke-width="2" stroke-linecap="round" stroke-linejoin="round"/>
<path d="M81.6018 221.201L58.0952 124.416C51.3718 96.7332 65.5271 68.225 91.6445 56.8489V56.8489C122.463 43.425 158.234 58.6186 169.971 90.118L203.997 181.433" stroke="#171717" stroke-width="2" stroke-linecap="round" stroke-linejoin="round"/>
<path d="M140.797 103.998C118.924 102.694 116.148 122.522 117.495 132.599C106.475 126.19 84.8659 119.227 86.5857 142.642C88.3055 166.057 121.68 178.379 138.153 181.614C149.519 163.2 168.14 105.629 140.797 103.998Z" stroke="#171717" stroke-width="2" stroke-linecap="round" stroke-linejoin="round"/>
<path d="M74.9523 222.982C75.5431 224.8 78.3761 230.237 77.7176 231.984C75.8588 236.913 81.6389 235.181 84.0508 234.397C85.9489 233.781 89.4935 234.818 91.5009 235.21C94.1144 235.721 99.5126 234.247 102.103 233.562C103.903 233.086 105.626 232.991 107.37 232.569C108.04 232.407 111.601 231.668 112.178 231.885C114.981 232.942 121.283 229.486 124.186 228.543C133.05 225.663 142.216 223.403 151.19 220.487C155.13 219.207 158.591 217.364 162.534 216.082C166.397 214.827 173.193 212.912 175.981 209.917C177.288 208.513 181.601 207.013 183.464 206.408C185.29 205.814 186.776 204.613 188.452 204.068C191.693 203.015 194.156 200.778 197.454 199.706C201.468 198.402 205.368 195.964 209.381 194.394C211.591 193.529 213.134 190.3 215.361 189.576C217.107 189.009 214.197 182.675 213.696 181.135C212.96 178.867 210.066 176.866 207.79 176.227" stroke="#171717" stroke-width="2" stroke-linecap="round"/>
<path d="M79.903 219.877C78.9262 216.871 77.8248 213.875 76.9644 210.833C75.8521 206.902 76.3742 202.028 75.9834 197.947C75.3837 191.686 73.4301 185.052 71.4744 179.033C69.4407 172.774 67.407 166.515 65.3732 160.256C64.2615 156.834 62.9651 153.429 62.3906 149.903C62.0061 147.543 61.326 145.316 60.5818 143.025C60.2589 142.032 58.8784 139.543 60.1258 139.138" stroke="#171717" stroke-width="2" stroke-linecap="round"/>
<path d="M203.017 181.489C198.892 168.793 194.351 156.059 190.259 143.464C189.828 142.137 188.799 141.198 188.284 139.869C187.799 138.618 187.395 136.997 186.533 135.998C184.946 134.162 183.86 131.223 183.088 128.845C181.289 123.309 179.49 117.773 177.691 112.237" stroke="#171717" stroke-width="2" stroke-linecap="round"/>
<path d="M177.693 112.237C175.756 106.275 173.819 100.313 171.882 94.3512C169.978 88.4923 166.813 82.1281 162.704 77.5595C159.024 73.4667 155.095 69.8332 151.263 65.9426C149.445 64.0974 147.775 61.9657 145.436 60.7738C142.385 59.2196 139.292 57.9412 135.996 57.1825" stroke="#171717" stroke-width="2" stroke-linecap="round"/>
<path d="M135.631 57.3015C134.34 56.7369 132.489 57.079 131.049 56.8622C129.79 56.6725 128.714 55.7401 127.583 55.1637C124.625 53.6568 121.423 53.6522 118.307 53.0434C115.746 52.543 112.062 51.4671 109.404 51.7217C108.136 51.8431 106.73 51.3575 105.574 51.7331C104.607 52.047 101.812 52.8769 100.901 52.5337C99.9635 52.18 97.1415 53.6657 96.2111 53.968C94.4131 54.5522 92.6151 55.1364 90.8171 55.7206C87.3163 56.8581 84.4073 59.0201 81.2979 60.8538C78.2665 62.6414 76.6293 65.8079 74.2291 68.2845C71.9006 70.6871 69.903 74.2181 67.993 77.0365C66.7715 78.8389 64.9415 80.816 63.528 82.5451C62.2863 84.064 61.973 85.7997 60.8748 87.4202C59.0258 90.1486 57.6482 92.7089 57.1339 96.1236C56.1414 102.714 56.3053 109.518 56.1115 116.229C55.9277 122.594 57.4443 128.404 59.4317 134.521C60.3212 137.258 61.2106 139.996 62.1001 142.733C64.0978 148.882 64.7015 155.469 67.7243 161.285" stroke="#171717" stroke-width="2" stroke-linecap="round"/>
<path d="M132.691 177.833C131.369 178.087 129.395 176.939 128.065 176.679C125.643 176.206 123.128 175.206 120.864 174.236C115.3 171.853 110.199 168.379 104.813 165.634C96.6037 161.451 89.7138 153.512 86.9088 144.879C85.74 141.282 86.9535 137.624 87.0805 133.959C87.1575 131.735 89.4635 128.637 91.5125 127.972C95.5512 126.659 98.9162 125.878 102.99 127.313C106.278 128.471 110.312 130.094 113.673 130.751C114.993 131.009 118.16 134.745 117.442 132.537C116.09 128.376 116.732 124.265 117.359 120.105C118.296 113.887 126.605 106.653 132.288 104.626C136.451 103.14 138.507 102.977 142.668 104.678C144.228 105.315 146.4 105.298 147.671 106.536C149.115 107.943 150.012 109.583 151.17 111.216C156.311 118.463 155.644 128.149 155.169 136.518C154.942 140.508 155.414 144.372 154.458 148.323C154.003 150.201 153.803 152.21 153.419 154.122C152.969 156.364 151.879 157.844 150.872 159.821C149.559 162.397 146.42 165.446 146.109 168.425C145.995 169.516 144.91 170.592 144.671 171.815C144.405 173.176 143.716 174.643 142.927 175.807C141.754 177.539 140.415 179.403 139.025 180.972C138.803 181.223 137.747 183.216 137.786 182.791C137.916 181.362 139.599 179.633 140.465 178.496C144.869 172.716 145.482 165.388 149.321 159.41C150.797 157.111 152.23 154.378 152.763 151.648C153.247 149.17 155.01 146.803 155.429 144.405C155.976 141.267 156.317 137.869 156.425 134.751C156.519 132.042 157.276 129.192 156.417 126.546C154.95 122.034 153.875 117.089 152.368 112.45C150.851 107.782 146.583 107.358 142.671 105.504C139.241 103.878 133.07 104.838 129.95 107.245C127.208 109.361 124.426 111.458 122.023 113.925C121.182 114.789 120.253 116.024 119.576 117.023C118.902 118.017 118.435 119.573 117.748 120.392C116.682 121.662 116.688 125.31 117.175 126.808C117.474 127.728 119.188 132.483 118.371 133.033C117.667 133.506 112.252 131.05 111.579 130.486C110.304 129.416 108.101 128.578 106.499 128.299C104.295 127.914 101.724 129.266 99.4978 128.832C97.5313 128.447 95.4326 129.355 93.4952 129.985C88.6743 131.551 89.9103 141.81 90.403 145.456C90.8623 148.856 92.4845 154.351 94.5774 157.032C96.7062 159.758 99.4229 161.825 101.947 164.174C105.981 167.929 111.841 172.929 117.239 174.528C122.314 176.032 126.89 180.161 132.152 181.079C133.676 181.345 137.681 183.244 136.691 182.055C134.744 179.719 130.206 177.738 127.599 176.063C121.666 172.253 115.571 168.283 108.971 165.346C106.614 164.297 103.188 163.674 101.406 161.692C100.355 160.523 98.4885 159.664 97.2291 158.65C96.1813 157.807 95.8695 156.64 94.9774 155.809C91.0877 152.189 87.3058 146.101 85.6593 141.034C84.2582 136.722 88.6904 133.14 92.5217 131.895C96.5676 130.581 100.743 128.305 104.851 130.133C106.541 130.885 108.639 131.921 110.464 132.325C112.407 132.754 114.502 134.22 116.399 134.234" stroke="#171717" stroke-width="2" stroke-linecap="round"/>
<path d="M68.2602 111.203C72.4856 109.83 73.99 105.533 74.2681 101.347C74.352 100.085 73.6845 96.3551 74.0753 97.5578C74.6286 99.2608 75.125 100.995 75.7388 102.678C77.0159 106.178 80.4517 106.427 83.5565 106.535C84.495 106.567 86.1564 105.989 86.9229 106.278C87.3562 106.441 87.2773 106.23 86.5942 106.452C85.8207 106.703 84.8576 106.833 84.0473 106.911C82.892 107.022 80.9458 107.292 80.3385 108.484C79.4743 110.18 79.6552 112.37 79.2475 114.198C78.8262 116.086 78.626 118.519 79.0895 120.412C79.2381 121.018 79.6617 123.101 79.1121 121.409C78.2212 118.667 78.378 115.764 77.6041 113.057C77.2566 111.842 76.9835 110.789 75.792 110.263C73.3296 109.176 70.3618 110.52 67.9875 111.292" stroke="#171717" stroke-width="2" stroke-linecap="round"/>
<path d="M66.0312 112.228C67.9024 111.62 69.4112 110.661 70.4597 108.989C71.1734 107.851 71.6638 106.652 72.0583 105.371C72.5529 103.764 73.0894 102.212 72.9418 100.51C72.8915 99.9293 72.767 99.3605 72.7188 98.7821C72.6938 98.4814 72.9165 99.3071 72.9442 99.3923C73.8833 102.283 75.9212 105.729 79.1197 106.487C80.3864 106.787 81.7652 106.768 83.0581 106.696C83.1499 106.691 84.7769 106.691 84.4272 107.036C84.2097 107.25 83.7914 107.31 83.5106 107.401C82.7181 107.659 81.957 107.933 81.2202 108.328C80.0438 108.959 79.1768 109.94 78.7338 111.213C78.1883 112.781 78.2374 114.472 78.0699 116.105C77.9477 117.295 77.6657 118.571 77.7084 119.761C77.7135 119.904 77.6708 120.466 77.5064 120.097C77.1957 119.401 77.237 118.596 77.1164 117.856C76.9028 116.545 76.6344 115.225 76.3036 113.938C76.1343 113.28 75.9852 112.162 75.3759 111.75C73.9517 110.784 72.1404 109.634 70.3691 110.21" stroke="#171717" stroke-width="2" stroke-linecap="round"/>
</g>
<path d="M39.9072 215C39.7285 218.215 40.6217 222.502 45.9805 222.502C44.2537 222.324 39.9072 223.931 39.9072 230.362C40.0262 228.278 38.8354 222.502 34.0125 222.502C35.3819 222.443 39.9072 222.574 39.9072 215Z" stroke="#171717" stroke-width="2" stroke-linecap="round" stroke-linejoin="round"/>
<path d="M39.268 220.031C39.3563 220.042 39.5653 220.467 39.6381 220.564C39.9831 221.024 40.3799 221.339 40.7864 221.745C41.2751 222.234 41.813 222.674 42.3047 223.165" stroke="#171717" stroke-width="2" stroke-linecap="round" stroke-linejoin="round"/>
<path d="M38.0938 221.598C38.3788 221.598 38.5879 221.82 38.8012 221.99C39.2968 222.384 39.7934 222.756 40.3468 223.067C40.8991 223.378 41.364 223.87 41.9141 224.145" stroke="#171717" stroke-width="2" stroke-linecap="round" stroke-linejoin="round"/>
<path d="M167.895 39C167.717 42.2153 168.61 46.5023 173.969 46.5023C172.242 46.3237 167.895 47.9313 167.895 54.3619C168.015 52.2779 166.824 46.5023 162.001 46.5023C163.37 46.4428 167.895 46.5738 167.895 39Z" stroke="#171717" stroke-width="2" stroke-linecap="round" stroke-linejoin="round"/>
<path d="M167.256 44.0308C167.345 44.0418 167.554 44.4671 167.626 44.5641C167.971 45.024 168.368 45.3386 168.775 45.745C169.263 46.2338 169.801 46.6737 170.293 47.1654" stroke="#171717" stroke-width="2" stroke-linecap="round" stroke-linejoin="round"/>
<path d="M166.082 45.5981C166.367 45.5981 166.576 45.8203 166.79 45.99C167.285 46.3841 167.782 46.7562 168.335 47.0675C168.887 47.3782 169.352 47.87 169.902 48.145" stroke="#171717" stroke-width="2" stroke-linecap="round" stroke-linejoin="round"/>
<path d="M37.7695 62.0699C39.3187 62.0699 40.8521 61.8784 42.3981 61.8784C42.8306 61.8784 42.6643 61.8816 42.3236 61.9741C41.5579 62.182 40.9133 62.626 40.2647 63.0648C40.2061 63.1044 39.524 63.511 39.6582 63.4904C40.7685 63.3196 41.9483 62.4257 42.9194 61.9209C43.7924 61.4672 44.8986 61.1388 45.6593 60.4951C45.8965 60.2945 45.7709 60.2504 45.5263 60.2504C45.4192 60.2504 44.8289 60.2965 45.1858 60.2291C46.135 60.05 47.058 59.7305 48.0055 59.5375C48.2824 59.4811 49.4532 59.087 48.6439 59.5056C47.7051 59.9912 46.8476 60.5889 46.0211 61.2453C45.9054 61.3371 45.2072 61.9047 45.803 61.74C46.4155 61.5708 46.9969 61.2395 47.5693 60.9739C48.8223 60.3927 50.0725 59.8053 51.3253 59.2236C51.8783 58.9668 52.44 58.7473 53.0118 58.5373C53.0434 58.5257 53.708 58.2533 53.315 58.3777C51.9759 58.8018 50.892 60.0346 49.8463 60.9101C49.0837 61.5485 48.5239 62.2243 47.8831 62.9637C47.82 63.0366 47.7269 63.1302 47.9204 63.0435C48.7195 62.6853 49.4535 62.1141 50.1868 61.6443C51.8361 60.5875 53.5453 59.7247 55.2569 58.7874C55.6171 58.5901 55.9463 58.4322 55.3048 58.6437C54.0536 59.0562 52.8987 59.9678 52.0063 60.9207C51.7931 61.1483 50.8778 62.1025 50.9901 62.4955C50.9994 62.5279 53.1908 60.5511 53.3257 60.4207C54.9081 58.8897 56.5859 57.379 58.0446 55.7283C58.108 55.6565 58.6776 55.175 58.3958 55.175C57.788 55.175 57.3421 55.2932 56.8476 55.6751C56.481 55.9581 56.2353 56.33 55.9219 56.6433C55.7749 56.7903 56.0907 56.2631 56.1879 56.0794C56.6321 55.2403 57.1152 54.4223 57.5711 53.5896C57.6361 53.4709 58.7057 51.6413 58.5873 51.5466C58.4066 51.4021 57.5201 52.3768 57.4222 52.4723C57.3056 52.586 56.3458 53.4794 56.3635 53.2757C56.4449 52.3393 57.2292 51.3703 57.5711 50.5039C57.5913 50.4527 57.9133 49.4526 57.784 49.5675C57.4873 49.8312 57.2929 50.2398 57.0711 50.5624C56.8306 50.9122 56.8218 50.5841 56.8689 50.3336C57.1259 48.9675 57.4882 47.5422 57.9968 46.2478C58.0736 46.0522 57.7965 46.3627 57.7414 46.402C57.6549 46.4638 57.6882 46.2081 57.6882 46.1946C57.6882 45.6306 57.6882 45.0667 57.6882 44.5027C57.6882 43.2046 57.7884 41.9461 57.8744 40.6563C57.9019 40.243 57.8797 41.4331 57.8797 41.5128C57.8797 47.8864 57.8797 54.2599 57.8797 60.6335C57.8797 61.7329 57.8123 62.0007 57.2892 63.1392C56.7985 64.2072 56.3032 65.2944 55.7197 66.3154C55.6005 66.524 55.4491 66.7224 55.3899 66.9591C55.0942 68.1418 54.4323 69.4304 54.4323 70.6566C54.4323 70.8352 54.4644 70.3004 54.4961 70.1246C54.6151 69.4647 54.8222 68.8176 55.0175 68.1774C55.5163 66.5423 56.0659 64.9366 56.422 63.2616C56.5405 62.7041 57.1071 60.9733 56.6348 60.4419C56.0503 59.7844 55.6873 61.3952 55.5335 61.7826C55.2947 62.384 54.744 63.2081 54.7195 63.8681C54.7195 63.8703 55.6874 63.0325 55.8687 62.8839C56.2915 62.5372 56.7747 62.0668 57.3424 61.9795C57.7012 61.9243 57.2202 63.242 57.1881 63.3574C56.8773 64.4733 56.481 65.5618 56.2092 66.6878C56.0824 67.2129 56.3434 66.4361 56.4433 66.2835C56.7499 65.8145 56.9048 65.8949 56.7146 66.4537C56.352 67.519 55.8423 68.5225 55.4856 69.5926C55.4407 69.7274 55.0205 70.7448 55.225 70.5609C56.8574 69.0917 58.4659 67.5699 60.0184 66.0175C61.5717 64.4642 63.1833 62.8662 64.5406 61.1336C64.641 61.0054 65.732 59.6389 65.0513 60.0589C63.2722 61.1566 61.7371 62.7225 60.2631 64.1873C60.1206 64.329 58.7732 65.9461 59.1566 65.0226C59.9724 63.0572 61.013 61.1705 62.0188 59.2981C62.3741 58.6367 63.6279 56.7864 63.1041 57.3243C62.0677 58.3888 61.324 59.7461 60.4387 60.9314C60.3318 61.0745 59.2955 62.321 59.3374 62.1018C59.5222 61.1369 59.8531 60.1926 60.1567 59.2609C60.282 58.8765 60.5823 58.2419 60.46 57.8138C60.3837 57.5468 59.8022 58.2895 59.9918 57.436C60.0238 57.292 60.3831 58.3881 60.4121 58.4735C60.6679 59.2265 61.081 60.2818 61.8698 60.6175C63.3509 61.2477 64.7961 59.7405 65.7855 58.8565C66.385 58.3209 66.9778 57.7783 67.5837 57.2498C67.8148 57.0483 68.2178 56.5359 68.5307 56.4465C68.8617 56.3519 68.0331 56.9259 67.7539 57.1275C67.307 57.4503 68.5035 56.5451 68.5732 56.4944C69.4641 55.8465 70.3771 55.2413 71.361 54.7494C71.8263 54.5167 71.0026 54.9248 70.9035 54.9622C70.8224 54.9927 69.954 55.2777 70.1586 55.0579C71.1567 53.9859 72.4012 53.1024 73.5476 52.201C75.0294 51.0358 76.452 49.7814 77.9686 48.6631C78.2867 48.4286 78.7722 47.881 79.1816 47.8066C79.5629 47.7372 78.875 48.5942 78.8571 48.6205C77.3639 50.8146 75.864 51.3777 74.3945 53.5896C73.6082 54.7731 71.6507 55.6788 70.5789 56.6433C70.4072 56.7979 70.1586 59.5375 70.1586 59.5375C68.9455 60.7507 69.0214 61.8342 67.9667 63.1818C67.6194 63.6256 67.2771 64.0736 66.9506 64.5331C66.7499 64.8156 66.6511 64.9245 66.7325 64.4746C66.9828 63.0909 67.7073 61.8872 68.3445 60.6601C68.4512 60.4545 68.5801 60.2177 68.6371 59.9897C68.6519 59.9302 68.3168 60.3197 68.2753 60.3674C67.9384 60.7552 67.56 61.1177 67.19 61.474C66.9421 61.7128 67.5536 60.074 67.6156 59.9472C68.1741 58.8041 70.194 55.56 69.5628 56.6646C68.0793 59.2607 66.8417 62.039 65.562 64.7406C65.3934 65.0966 65.238 65.4632 65.0619 65.8153C65.0067 65.9257 65.3565 65.2294 65.3811 65.1875C66.1705 63.8456 67.1063 62.5928 68.0625 61.3676C68.0776 61.3483 68.4999 60.7602 68.5094 60.9207C68.5342 61.343 68.3547 61.7576 68.2753 62.1657C68.2559 62.2652 68.0419 63.108 68.2434 62.7722C68.627 62.1328 68.8952 61.4099 69.4511 60.8888C69.7964 60.565 69.6608 61.2011 69.6585 61.4634C69.6489 62.5769 69.3926 63.6295 69.2329 64.7247C69.2047 64.9182 69.1797 65.1089 69.1797 65.3046C69.1797 65.6418 69.3234 64.6438 69.4351 64.3256C69.783 63.3341 70.2253 62.2788 70.8449 61.4208C71.1002 61.0675 70.9502 62.2708 70.9407 62.3412C70.7876 63.4812 70.508 64.6007 70.3502 65.7408C70.2485 66.4751 70.5194 64.8664 70.5789 64.7034C70.6421 64.5304 71.1252 62.9743 71.361 62.9743C71.4073 62.9743 71.3817 64.2978 71.3823 64.3682C71.3886 65.1484 71.4655 65.9265 71.5685 66.6984C71.5942 66.8913 71.6691 66.6063 71.6908 66.5495C72.0105 65.7147 72.2924 64.865 72.6059 64.0277C72.8165 63.4654 73.0095 62.8859 73.2762 62.3465C73.3267 62.2445 73.5558 61.7929 73.5795 62.1603C73.6582 63.3801 73.6297 67.0472 73.6806 65.8259C73.7012 65.3313 73.8674 66.625 73.8827 66.6931C74.1089 67.6983 74.2992 68.8422 74.734 69.7841C74.9785 70.3139 74.6904 68.5721 74.851 68.4115C74.9231 68.3395 75.1677 68.8217 75.2128 68.8797C75.4424 69.1749 75.6141 69.4619 75.8831 69.7309" stroke="#FFD424" stroke-width="2" stroke-linecap="round"/>
<path d="M56.9513 30L54.6257 55.7595L30 61.6571L53.8587 65.0596L52.6733 76.2022L62.0849 65.0596L79.6246 72.352L71.5003 57.3791L87.7527 41.9784L62.0849 57.3791L56.9513 30Z" stroke="#171717" stroke-width="2" stroke-linejoin="round"/>
<path d="M54.0273 56.3799C54.0273 53.2343 54.0561 50.155 54.6195 47.0566C54.9636 45.1639 55.4046 43.3186 55.6721 41.4081C55.8998 39.7816 56.1637 38.172 56.3535 36.5396C56.5464 34.8808 56.8524 33.2582 57.1383 31.6148C57.1523 31.5341 57.1126 31.2481 57.1758 31.1919C57.274 31.1046 57.4445 31.6623 57.4531 31.6947C57.7391 32.7751 58.1589 33.8305 58.5104 34.8949C59.092 36.6558 59.3589 38.5038 59.7416 40.3131C60.2531 42.7309 60.2831 45.1674 60.4559 47.6299C60.5916 49.563 61.1874 51.4286 61.4522 53.3348C61.5347 53.9288 61.643 54.5192 61.7435 55.1111C61.8068 55.4835 62.0076 55.8554 62.0584 56.2107C62.1274 56.694 62.4441 56.2447 62.6693 56.0791C63.5575 55.426 64.4996 54.8291 65.4465 54.2652C66.8378 53.4367 68.222 52.6177 69.6947 51.9438C70.8984 51.3929 72.076 50.7902 73.2285 50.1393C74.3291 49.5177 75.5498 49.1073 76.7013 48.5932C78.4049 47.8327 80.044 46.9053 81.6872 46.018C82.6462 45.5001 83.6078 45.0028 84.4785 44.3498C85.1022 43.882 85.7848 43.5254 86.4663 43.1468C86.8446 42.9366 87.2415 42.7364 87.6364 42.5594C87.7806 42.4947 87.9631 42.4747 88.0312 42.3385" stroke="#171717" stroke-width="2" stroke-linecap="round"/>
<path d="M88.0309 42.3379C87.1619 42.4827 86.2035 43.4603 85.5403 43.9826C84.4827 44.8155 83.371 45.7721 82.4482 46.7552C81.4099 47.8612 80.5121 48.9619 79.638 50.1856C78.922 51.188 78.1358 51.9917 77.0346 52.5729C76.044 53.0957 75.0368 53.7136 74.1164 54.3539C73.6128 54.7042 73.2608 55.2017 72.9322 55.7073C72.5075 56.3606 72.0968 56.6767 72.3824 57.4977C72.7082 58.4344 72.8307 59.4498 73.3316 60.336C74.1125 61.7175 74.7041 63.2487 75.3053 64.7157C75.8462 66.0356 76.452 67.3236 76.9923 68.6443C77.4246 69.7009 78.1418 70.6686 78.7217 71.6472C78.8998 71.9478 78.9784 72.2974 79.1963 72.5776C79.4417 72.8932 78.3925 72.2498 78.3034 72.197C77.0798 71.4719 75.8904 70.7217 74.732 69.8943C73.5475 69.0482 72.3703 68.2002 71.1136 67.4601C69.8893 66.7392 68.5727 65.906 67.2179 65.4676C66.2569 65.1567 65.4007 65.0719 64.3936 65.0024C63.8169 64.9626 63.0889 64.8435 62.5703 64.5842" stroke="#171717" stroke-width="2" stroke-linecap="round"/>
<path d="M62.4883 65.1764C62.4658 65.3788 62.2435 65.5966 62.15 65.7732C61.9606 66.1308 61.7504 66.5238 61.6425 66.9151C61.347 67.9861 60.5443 68.8877 59.7628 69.6407C58.3196 71.031 56.4777 71.9899 55.2233 73.5927C54.503 74.513 53.837 75.5946 53.0099 76.4217C52.9571 76.4745 52.1836 77.2321 52.1688 76.8305C52.1232 75.6015 52.0842 74.3796 52.0842 73.1463C52.0842 71.102 52.5588 69.096 52.5917 67.0561C52.6 66.5382 52.6763 66.0351 52.6763 65.5194C52.6763 65.0087 52.3196 64.8737 51.868 64.7111C51.1244 64.4434 50.2426 64.3534 49.462 64.2647C48.306 64.1333 47.17 63.8498 46.0315 63.6115C43.9913 63.1845 42.004 62.5542 39.9037 62.5542C38.0348 62.5542 36.1842 62.4368 34.321 62.385C33.2403 62.355 32.1763 62.0153 31.1114 61.8822C30.9381 61.8605 29.8207 61.6414 30.1386 61.4969C30.4106 61.3733 30.7541 61.3024 31.0409 61.2196C31.8083 60.9981 32.5168 60.6421 33.2683 60.3737C34.4712 59.9441 35.7006 59.6841 36.9244 59.3399C38.4129 58.9213 39.9248 58.6951 41.4263 58.3249C42.5418 58.0498 43.6972 57.9464 44.805 57.6482C45.9273 57.346 47.1111 57.19 48.2731 57.1453C49.9291 57.0816 51.5385 56.8019 53.1791 56.6378C53.4192 56.6138 53.8384 56.6176 54.0109 56.4452C54.1672 56.2888 54.4153 56.1098 54.6218 56.041" stroke="#171717" stroke-width="2" stroke-linecap="round"/>
</g>
</g>
<defs>
<filter id="filter0_dd_3017_28204" x="0" y="0" width="216" height="316" filterUnits="userSpaceOnUse" color-interpolation-filters="sRGB">
<feFlood flood-opacity="0" result="BackgroundImageFix"/>
<feColorMatrix in="SourceAlpha" type="matrix" values="0 0 0 0 0 0 0 0 0 0 0 0 0 0 0 0 0 0 127 0" result="hardAlpha"/>
<feOffset dy="2"/>
<feGaussianBlur stdDeviation="1"/>
<feComposite in2="hardAlpha" operator="out"/>
<feColorMatrix type="matrix" values="0 0 0 0 0 0 0 0 0 0 0 0 0 0 0 0 0 0 0.02 0"/>
<feBlend mode="normal" in2="BackgroundImageFix" result="effect1_dropShadow_3017_28204"/>
<feColorMatrix in="SourceAlpha" type="matrix" values="0 0 0 0 0 0 0 0 0 0 0 0 0 0 0 0 0 0 127 0" result="hardAlpha"/>
<feOffset dy="4"/>
<feGaussianBlur stdDeviation="4"/>
<feComposite in2="hardAlpha" operator="out"/>
<feColorMatrix type="matrix" values="0 0 0 0 0 0 0 0 0 0 0 0 0 0 0 0 0 0 0.06 0"/>
<feBlend mode="normal" in2="effect1_dropShadow_3017_28204" result="effect2_dropShadow_3017_28204"/>
<feBlend mode="normal" in="SourceGraphic" in2="effect2_dropShadow_3017_28204" result="shape"/>
</filter>
<filter id="filter1_dd_3017_28204" x="47.0977" y="46.5876" width="179.996" height="202.8" filterUnits="userSpaceOnUse" color-interpolation-filters="sRGB">
<feFlood flood-opacity="0" result="BackgroundImageFix"/>
<feColorMatrix in="SourceAlpha" type="matrix" values="0 0 0 0 0 0 0 0 0 0 0 0 0 0 0 0 0 0 127 0" result="hardAlpha"/>
<feOffset dy="2"/>
<feGaussianBlur stdDeviation="1"/>
<feComposite in2="hardAlpha" operator="out"/>
<feColorMatrix type="matrix" values="0 0 0 0 0 0 0 0 0 0 0 0 0 0 0 0 0 0 0.02 0"/>
<feBlend mode="normal" in2="BackgroundImageFix" result="effect1_dropShadow_3017_28204"/>
<feColorMatrix in="SourceAlpha" type="matrix" values="0 0 0 0 0 0 0 0 0 0 0 0 0 0 0 0 0 0 127 0" result="hardAlpha"/>
<feOffset dy="4"/>
<feGaussianBlur stdDeviation="4"/>
<feComposite in2="hardAlpha" operator="out"/>
<feColorMatrix type="matrix" values="0 0 0 0 0 0 0 0 0 0 0 0 0 0 0 0 0 0 0.06 0"/>
<feBlend mode="normal" in2="effect1_dropShadow_3017_28204" result="effect2_dropShadow_3017_28204"/>
<feBlend mode="normal" in="SourceGraphic" in2="effect2_dropShadow_3017_28204" result="shape"/>
</filter>
<linearGradient id="paint0_linear_3017_28204" x1="-5.60393" y1="295.5" x2="215.949" y2="295.5" gradientUnits="userSpaceOnUse">
<stop stop-color="#56B2DD"/>
<stop offset="0.192708" stop-color="#EAFE83"/>
<stop offset="0.385417" stop-color="#F3BCF7"/>
<stop offset="0.583333" stop-color="#B8BAFA"/>
<stop offset="0.786458" stop-color="#8EF5B1"/>
<stop offset="1" stop-color="#7FC7F7"/>
</linearGradient>
<linearGradient id="paint1_linear_3017_28204" x1="-5.60393" y1="295.5" x2="215.949" y2="295.5" gradientUnits="userSpaceOnUse">
<stop/>
<stop offset="0.192708" stop-color="white"/>
<stop offset="0.385417"/>
<stop offset="0.583333" stop-color="white"/>
<stop offset="0.786458"/>
<stop offset="1" stop-color="white"/>
</linearGradient>
<linearGradient id="paint2_linear_3017_28204" x1="-5.60393" y1="295.5" x2="215.949" y2="295.5" gradientUnits="userSpaceOnUse">
<stop/>
<stop offset="0.192708" stop-color="white"/>
<stop offset="0.385417"/>
<stop offset="0.583333" stop-color="white"/>
<stop offset="0.786458"/>
<stop offset="1" stop-color="white"/>
</linearGradient>
<clipPath id="clip0_3017_28204">
<rect width="178" height="236" fill="white" transform="translate(19 15)"/>
</clipPath>
</defs>
</svg>
