<svg width="141" height="188" fill="none" xmlns="http://www.w3.org/2000/svg"><mask id="a" maskUnits="userSpaceOnUse" x=".607" y=".586" width="140" height="187" fill="#000"><path fill="#fff" d="M.607.586h140v187h-140z"/><path fill-rule="evenodd" clip-rule="evenodd" d="M45.846 10.18c-.32-.861-1.274-1.278-2.36-1.462-1.13-.191-2.617-.17-4.342.032-3.457.405-7.987 1.552-12.778 3.335-4.791 1.784-8.968 3.879-11.849 5.833-1.437.975-2.576 1.932-3.305 2.815-.702.85-1.15 1.789-.83 2.65.318.853 1.255 1.27 2.325 1.457 1.11.194 2.572.178 4.268-.014 3.29-.373 7.572-1.427 12.131-3.07l.709 1.633.023.051c-8.223 4.29-8.668 14.513-7.644 19.845a16.38 16.38 0 0 0-1.397 5.477C14.465 50.598 2.572 62.68 12.284 84.7l-.1.31-.003.068c-.882 17.985 3.745 30.839 11.003 39.471v21.242l-6.732-5.549a.512.512 0 0 0-.65.79l6.469 5.332h-9.212a.512.512 0 0 0 0 1.023h10.636a.511.511 0 0 0 .512-.511v-21.158c4.228 4.651 9.239 7.955 14.497 10.089a.516.516 0 0 0-.015.125v40.91c0 .245.175.456.416.502l9.205 1.739a.512.512 0 0 0 .19-1.005l-8.788-1.66V136.2a42.042 42.042 0 0 0 10.213 2.428c6.3.686 12.737-.199 18.853-2.311v40.524c0 .245.175.456.416.502l9.205 1.739a.512.512 0 0 0 .19-1.005l-8.789-1.66v-40.466c12.842-4.751 24.128-14.895 29.514-27.183 2.13-4.843 3.181-12.284 2.752-20.65 5.43-1.093 12.801-4.8 18.264-12.422 5.526-7.709 9.07-19.378 6.743-36.303l5.344-7.378a.51.51 0 1 0-.828-.6l-4.978 6.872-3.438-6.802a.511.511 0 1 0-.913.46l3.76 7.44a.573.573 0 0 0 .034.107c2.31 16.735-1.203 28.142-6.555 35.609-5.255 7.33-12.313 10.905-17.493 11.985a73.89 73.89 0 0 0-.176-2.201c-.867-9.16-3.486-19.193-8.398-28.084l3.532-.683a.511.511 0 0 0 .507-.577c-1.24-9.564-11.707-28.366-43.462-28.366a51.92 51.92 0 0 0-3.385.344c-3.053-3.003-10.82-7.824-18.914-4.898a.983.983 0 0 0-.019-.046l-.667-1.54c4.41-1.723 8.23-3.69 10.886-5.526 1.375-.949 2.463-1.88 3.157-2.74.67-.83 1.093-1.746.78-2.588Zm37.968 48.48-67.13 24.958 28.08-17.41 39.05-7.548Zm-39.286 6.525 45.61-8.877 1.477-.548-.146-.153H38.566L14.66 83.449l29.48-18.086a.511.511 0 0 1 .388-.178Zm48.226-9.578.044.075.056.098.89-.173h-.99Z"/></mask><path fill-rule="evenodd" clip-rule="evenodd" d="M45.846 10.18c-.32-.861-1.274-1.278-2.36-1.462-1.13-.191-2.617-.17-4.342.032-3.457.405-7.987 1.552-12.778 3.335-4.791 1.784-8.968 3.879-11.849 5.833-1.437.975-2.576 1.932-3.305 2.815-.702.85-1.15 1.789-.83 2.65.318.853 1.255 1.27 2.325 1.457 1.11.194 2.572.178 4.268-.014 3.29-.373 7.572-1.427 12.131-3.07l.709 1.633.023.051c-8.223 4.29-8.668 14.513-7.644 19.845a16.38 16.38 0 0 0-1.397 5.477C14.465 50.598 2.572 62.68 12.284 84.7l-.1.31-.003.068c-.882 17.985 3.745 30.839 11.003 39.471v21.242l-6.732-5.549a.512.512 0 0 0-.65.79l6.469 5.332h-9.212a.512.512 0 0 0 0 1.023h10.636a.511.511 0 0 0 .512-.511v-21.158c4.228 4.651 9.239 7.955 14.497 10.089a.516.516 0 0 0-.015.125v40.91c0 .245.175.456.416.502l9.205 1.739a.512.512 0 0 0 .19-1.005l-8.788-1.66V136.2a42.042 42.042 0 0 0 10.213 2.428c6.3.686 12.737-.199 18.853-2.311v40.524c0 .245.175.456.416.502l9.205 1.739a.512.512 0 0 0 .19-1.005l-8.789-1.66v-40.466c12.842-4.751 24.128-14.895 29.514-27.183 2.13-4.843 3.181-12.284 2.752-20.65 5.43-1.093 12.801-4.8 18.264-12.422 5.526-7.709 9.07-19.378 6.743-36.303l5.344-7.378a.51.51 0 1 0-.828-.6l-4.978 6.872-3.438-6.802a.511.511 0 1 0-.913.46l3.76 7.44a.573.573 0 0 0 .034.107c2.31 16.735-1.203 28.142-6.555 35.609-5.255 7.33-12.313 10.905-17.493 11.985a73.89 73.89 0 0 0-.176-2.201c-.867-9.16-3.486-19.193-8.398-28.084l3.532-.683a.511.511 0 0 0 .507-.577c-1.24-9.564-11.707-28.366-43.462-28.366a51.92 51.92 0 0 0-3.385.344c-3.053-3.003-10.82-7.824-18.914-4.898a.983.983 0 0 0-.019-.046l-.667-1.54c4.41-1.723 8.23-3.69 10.886-5.526 1.375-.949 2.463-1.88 3.157-2.74.67-.83 1.093-1.746.78-2.588Zm37.968 48.48-67.13 24.958 28.08-17.41 39.05-7.548Zm-39.286 6.525 45.61-8.877 1.477-.548-.146-.153H38.566L14.66 83.449l29.48-18.086a.511.511 0 0 1 .388-.178Zm48.226-9.578.044.075.056.098.89-.173h-.99Z" fill="#fff"/><path d="m43.486 8.718-1.335 7.888 1.335-7.888Zm2.36 1.463-7.497 2.79 7.497-2.79Zm-6.702-1.43-.93-7.946.93 7.945Zm-12.778 3.334-2.791-7.497 2.79 7.497Zm-11.849 5.833-4.491-6.62 4.491 6.62Zm-3.305 2.815-6.168-5.095 6.168 5.095Zm-.83 2.65 7.497-2.79-7.497 2.79Zm2.325 1.457 1.374-7.881-1.374 7.88Zm4.268-.014.901 7.95-.9-7.95Zm12.131-3.07 7.34-3.183a8 8 0 0 0-10.052-4.343l2.712 7.526Zm.709 1.633 7.34-3.183-7.34 3.183Zm.023.051 3.7 7.093a8 8 0 0 0 3.456-10.671l-7.155 3.578Zm-7.644 19.845 7.292 3.29a8 8 0 0 0 .564-4.798l-7.856 1.508Zm-1.397 5.477 2.227 7.684a8 8 0 0 0 5.748-7.05l-7.975-.634ZM12.284 84.7l7.613 2.458a8 8 0 0 0-.293-5.687l-7.32 3.229Zm-.1.31L4.57 82.551a8 8 0 0 0-.378 2.066l7.99.392Zm-.003.068 7.99.392-7.99-.392Zm11.003 39.471h8a8 8 0 0 0-1.877-5.149l-6.123 5.149Zm0 21.242-5.089 6.173a7.999 7.999 0 0 0 13.089-6.173h-8Zm-6.732-5.549-5.089 6.173v.001l5.09-6.174Zm-.72.07-6.172-5.089 6.172 5.089Zm.07.72 5.088-6.173-5.088 6.173Zm6.469 5.332v8a8 8 0 0 0 5.089-14.173l-5.089 6.173Zm1.936-20.646 5.919-5.382a8 8 0 0 0-13.92 5.382h8Zm14.497 10.089 7.76 1.95a8 8 0 0 0-4.75-9.362l-3.01 7.412Zm.401 41.537-1.484 7.861 1.484-7.861Zm9.205 1.739-1.485 7.861 1.485-7.861Zm.597-.408 7.861 1.485-7.86-1.485Zm-.407-.597 1.485-7.861-1.485 7.861Zm-8.788-1.66h-8a8 8 0 0 0 6.515 7.861l1.485-7.861Zm0-40.217 2.813-7.489a8 8 0 0 0-10.813 7.489h8Zm10.213 2.428-.868 7.953h.001l.867-7.953Zm18.853-2.311h8a8.001 8.001 0 0 0-10.613-7.562l2.613 7.562Zm.416 41.026-1.485 7.861 1.485-7.861Zm9.205 1.739-1.485 7.861 1.485-7.861Zm.597-.408 7.861 1.485-7.86-1.485Zm-.407-.597-1.485 7.861 1.484-7.861Zm-8.789-1.66h-8a8 8 0 0 0 6.516 7.861l1.484-7.861Zm0-40.466-2.776-7.503a8 8 0 0 0-5.224 7.503h8Zm29.514-27.183-7.323-3.22-.004.009 7.327 3.211Zm2.752-20.65-1.578-7.843a8 8 0 0 0-6.411 8.252l7.989-.41Zm18.264-12.422 6.502 4.661-6.502-4.66Zm6.743-36.303-6.479-4.693a8 8 0 0 0-1.446 5.783l7.925-1.09Zm5.344-7.378-6.479-4.693 6.479 4.693Zm-.114-.714 4.693-6.479-4.693 6.48Zm-.714.114 6.479 4.693-6.479-4.693Zm-4.978 6.872-7.14 3.609a8.001 8.001 0 0 0 13.619 1.084l-6.479-4.693Zm-3.438-6.802-7.14 3.608 7.14-3.608Zm-.687-.226 3.609 7.14-3.609-7.14Zm-.226.687 7.14-3.609-7.14 3.609Zm3.76 7.439 7.841-1.587a8.003 8.003 0 0 0-.701-2.022l-7.14 3.609Zm.034.107 7.925-1.093a7.99 7.99 0 0 0-.62-2.168l-7.305 3.261Zm-6.555 35.609 6.502 4.66-6.502-4.66Zm-17.493 11.985-7.983.52a8 8 0 0 0 9.617 7.312l-1.634-7.832Zm-.176-2.201-7.964.753 7.964-.753ZM93.432 56.8l-1.519-7.855A8 8 0 0 0 86.43 60.67l7.002-3.87Zm3.532-.683v-8a8 8 0 0 0-1.518.145l1.518 7.855Zm.384-.174 6.009 5.28h.001l-6.01-5.28Zm.123-.403-7.934 1.029 7.934-1.03ZM53.975 27.176l-.543-7.982.543 7.982Zm-3.35.343-5.61 5.703a8 8 0 0 0 6.672 2.226l-1.063-7.93ZM31.71 22.62l-7.482 2.832a8 8 0 0 0 10.2 4.691l-2.718-7.523Zm-.019-.046 7.34-3.183-7.34 3.183Zm-.667-1.54-2.912-7.45a8 8 0 0 0-4.428 10.633l7.34-3.182ZM41.91 15.51l4.546 6.583-4.546-6.582Zm3.157-2.74-6.224-5.025 6.224 5.025ZM16.683 83.618l-4.215-6.8a8 8 0 0 0 7.003 14.298l-2.788-7.498ZM83.814 58.66l2.788 7.498a8 8 0 0 0-4.306-15.353l1.518 7.855Zm-39.05 7.548-1.519-7.855a7.999 7.999 0 0 0-2.697 1.056l4.215 6.799Zm45.375-9.9 1.528 7.853c.429-.083.85-.202 1.26-.354l-2.788-7.499Zm-45.61 8.877v8a8 8 0 0 0 1.527-.147l-1.528-7.853Zm47.086-9.425 2.788 7.498a8 8 0 0 0 2.995-13.026l-5.783 5.528Zm-.146-.153 5.783-5.528a8 8 0 0 0-5.783-2.472v8Zm-52.903 0v-8a8 8 0 0 0-6.07 2.788l6.07 5.212ZM14.66 83.449l-6.07-5.212a8 8 0 0 0 10.254 12.03L14.66 83.45Zm29.48-18.086 4.184 6.82a7.998 7.998 0 0 0 1.886-1.608l-6.07-5.212Zm48.658-9.68 6.921-4.012-.007-.013-6.914 4.024Zm-.044-.076v-8A8 8 0 0 0 85.84 59.63l6.914-4.024Zm.1.173-6.92 4.011a8 8 0 0 0 8.449 3.842l-1.528-7.853Zm.89-.173 1.529 7.852a8 8 0 0 0 6.434-8.62 8 8 0 0 0-7.963-7.232v8ZM42.151 16.606a2.315 2.315 0 0 1-.302-.078 4.444 4.444 0 0 1-.842-.374c-.777-.44-2.003-1.422-2.658-3.182L53.344 7.39C51.392 2.146 46.287 1.078 44.82.83l-2.67 15.776Zm-2.076.09c.64-.075 1.151-.106 1.537-.11.4-.003.562.024.539.02L44.82.83C42.617.457 40.276.563 38.213.805l1.862 15.89Zm-10.918 2.887c4.372-1.628 8.263-2.576 10.918-2.887L38.213.805c-4.26.499-9.429 1.844-14.638 3.783l5.582 14.995Zm-10.148 4.956c2.212-1.501 5.775-3.329 10.148-4.956L23.575 4.588c-5.21 1.94-10 4.302-13.55 6.71l8.984 13.24Zm-1.63 1.288c-.015.019.09-.108.396-.367.293-.249.7-.56 1.234-.922l-8.983-13.24c-1.719 1.166-3.56 2.618-4.982 4.34l12.336 10.19Zm.5-5.235c.655 1.76.37 3.304.07 4.145a4.437 4.437 0 0 1-.392.834c-.095.156-.164.24-.177.256L5.044 15.639c-.948 1.147-4.112 5.292-2.16 10.536l14.995-5.582Zm-3.798-3.633a2.4 2.4 0 0 1 .317.082c.174.056.476.17.848.383.777.446 1.985 1.427 2.633 3.168L2.885 26.174c1.934 5.196 6.967 6.289 8.447 6.547l2.75-15.762Zm1.993-.082c-.625.071-1.121.099-1.492.1-.386.003-.535-.024-.5-.018l-2.75 15.762c2.188.381 4.51.285 6.544.054l-1.802-15.898Zm10.32-2.647c-4.156 1.497-7.814 2.363-10.32 2.647l1.802 15.898c4.075-.462 8.98-1.704 13.943-3.493L26.394 14.23Zm10.76 5.976-.708-1.633-14.68 6.366.709 1.633 14.68-6.366Zm-.16-.344c.056.113.11.228.16.344l-14.68 6.366c.067.15.136.3.21.447l14.31-7.157ZM30.05 41.777c-.33-1.721-.414-4.358.224-6.727.6-2.233 1.653-3.676 3.264-4.517l-7.4-14.186c-6.612 3.45-9.893 9.262-11.315 14.546-1.385 5.148-1.18 10.29-.486 13.9l15.713-3.016Zm-1.278 7.619a8.38 8.38 0 0 1 .714-2.822l-14.585-6.578a24.375 24.375 0 0 0-2.079 8.133l15.95 1.267ZM19.604 81.47c-4.104-9.304-3.277-15.51-1.717-19.18.822-1.934 1.938-3.39 3.01-4.394a8.795 8.795 0 0 1 1.443-1.111c.203-.122.37-.207.495-.263.127-.058.191-.077.19-.076L18.57 41.079C7.056 44.416-6.47 62.003 4.964 87.927l14.64-6.457Zm.193 5.997.1-.31L4.67 82.241l-.1.31 15.226 4.916Zm.374-1.999.003-.067-15.98-.784-.004.068 15.98.783Zm9.136 33.931c-5.713-6.795-9.94-17.545-9.136-33.93l-15.98-.784c-.961 19.586 4.067 34.543 12.87 45.011l12.246-10.297Zm-14.123 5.149v21.242h16v-21.242h-16Zm13.089 15.069-6.732-5.549-10.177 12.347 6.731 5.548 10.178-12.346Zm-6.732-5.548a8.51 8.51 0 0 0-11.981 1.153l12.345 10.177a7.488 7.488 0 0 1-10.542 1.015l10.178-12.345ZM9.56 135.222a8.512 8.512 0 0 0 1.154 11.982l10.177-12.346a7.488 7.488 0 0 1 1.016 10.541L9.559 135.222Zm1.154 11.982 6.47 5.332L27.36 140.19l-6.47-5.332-10.177 12.346Zm11.558-8.841h-9.212v16h9.212v-16Zm-9.212 0a8.512 8.512 0 0 0-8.511 8.512h16a7.488 7.488 0 0 1-7.49 7.488v-16Zm-8.511 8.512c0 4.7 3.81 8.511 8.51 8.511v-16a7.489 7.489 0 0 1 7.49 7.489h-16Zm8.51 8.511h10.637v-16H13.06v16Zm10.637 0c4.701 0 8.512-3.811 8.512-8.511h-16a7.489 7.489 0 0 1 7.488-7.489v16Zm8.512-8.511v-21.158h-16v21.158h16Zm9.506-18.481c-4.227-1.716-8.22-4.355-11.587-8.059l-11.838 10.764c5.089 5.597 11.117 9.567 17.408 12.12l6.017-14.825Zm-10.768 5.463a8.517 8.517 0 0 0-.256 2.074h16c0 .62-.077 1.233-.226 1.825l-15.518-3.899Zm-.256 2.074v40.91h16v-40.91h-16Zm0 40.91a8.511 8.511 0 0 0 6.931 8.363l2.97-15.722a7.489 7.489 0 0 1 6.099 7.359h-16Zm6.932 8.363 9.204 1.739 2.97-15.722-9.205-1.739-2.97 15.722Zm9.204 1.739a8.512 8.512 0 0 0 9.943-6.784l-15.722-2.97a7.488 7.488 0 0 1 8.749-5.968l-2.97 15.722Zm9.944-6.784a8.511 8.511 0 0 0-6.784-9.943l-2.97 15.722a7.49 7.49 0 0 1-5.969-8.749l15.723 2.97Zm-6.784-9.943-8.788-1.66-2.97 15.722 8.788 1.66 2.97-15.722Zm-2.273 6.201V136.2h-16v40.217h16Zm3.08-45.742a34.036 34.036 0 0 1-8.267-1.964l-5.626 14.978a50.052 50.052 0 0 0 12.158 2.892l1.735-15.906Zm15.373-1.92c-5.144 1.777-10.393 2.463-15.374 1.92l-1.733 15.906c7.618.83 15.246-.255 22.332-2.703l-5.225-15.123Zm10.613 48.086v-40.524h-16v40.524h16Zm-6.099-7.359a7.489 7.489 0 0 1 6.099 7.359h-16a8.51 8.51 0 0 0 6.931 8.363l2.97-15.722Zm9.204 1.739-9.204-1.739-2.97 15.722 9.205 1.739 2.97-15.722Zm-8.748 5.968a7.488 7.488 0 0 1 8.748-5.968l-2.97 15.722a8.512 8.512 0 0 0 9.944-6.784l-15.722-2.97Zm5.969 8.749a7.49 7.49 0 0 1-5.969-8.749l15.722 2.97a8.511 8.511 0 0 0-6.784-9.943l-2.97 15.722Zm-8.788-1.66 8.788 1.66 2.97-15.722-8.789-1.66-2.97 15.722ZM61.8 135.951v40.466h16v-40.466h-16Zm30.187-30.394c-4.445 10.142-13.991 18.831-24.963 22.891l5.552 15.006c14.711-5.443 27.738-17.04 34.065-31.474l-14.654-6.423Zm2.09-17.03c.394 7.687-.645 13.744-2.086 17.021l14.647 6.441c2.818-6.409 3.881-15.234 3.418-24.28l-15.98.818Zm19.751-17.491c-4.204 5.865-9.757 8.518-13.34 9.239l3.156 15.686c7.276-1.464 16.465-6.225 23.188-15.604l-13.004-9.321Zm5.32-30.553c2.099 15.267-1.188 24.789-5.32 30.553l13.004 9.321c6.921-9.654 10.722-23.472 8.167-42.054l-15.851 2.18Zm6.79-13.16-5.344 7.377 12.958 9.386 5.344-7.378-12.958-9.386Zm1.672 10.457a7.49 7.49 0 0 1-1.672-10.458l12.958 9.386a8.51 8.51 0 0 0-1.9-11.886L127.61 37.78Zm10.458-1.672a7.489 7.489 0 0 1-10.458 1.672l9.386-12.958a8.511 8.511 0 0 0-11.886 1.9l12.958 9.386Zm-4.978 6.872 4.978-6.872-12.958-9.386-4.978 6.873 12.958 9.385Zm-17.057-7.887 3.438 6.803 14.28-7.217-3.438-6.803-14.28 7.217Zm10.062 3.306a7.49 7.49 0 0 1-10.062-3.306l14.28-7.217a8.51 8.51 0 0 0-11.435-3.757l7.217 14.28Zm3.305-10.062a7.488 7.488 0 0 1-3.305 10.062l-7.217-14.28a8.51 8.51 0 0 0-3.757 11.436l14.279-7.218Zm3.76 7.44-3.76-7.44-14.28 7.217 3.76 7.44 14.28-7.218Zm.199.454c.226.506.394 1.032.502 1.567l-15.682 3.173c.123.61.314 1.208.571 1.783l14.609-6.523Zm-7.358 43.53c6.748-9.413 10.516-22.97 7.978-41.362l-15.849 2.187c2.08 15.077-1.177 24.335-5.133 29.854l13.004 9.321ZM103.64 94.918c7.001-1.46 15.856-6.082 22.361-15.157l-13.004-9.321c-4.006 5.588-9.267 8.114-12.625 8.815l3.268 15.663Zm-9.774-9.28c.062.662.115 1.319.157 1.969l15.966-1.041a79.456 79.456 0 0 0-.195-2.435l-15.928 1.507ZM86.43 60.67c4.29 7.764 6.653 16.695 7.436 24.968l15.928-1.507c-.95-10.048-3.824-21.18-9.36-31.2L86.43 60.67Zm9.016-12.407-3.532.683 3.036 15.71 3.532-.683-3.036-15.71Zm-4.108 2.4a7.489 7.489 0 0 1 5.626-2.545v16a8.509 8.509 0 0 0 6.393-2.893L91.338 50.663Zm-1.8 5.907a7.489 7.489 0 0 1 1.8-5.907l12.02 10.562a8.515 8.515 0 0 0 2.047-6.713L89.537 56.57ZM54.008 35.175c27.767 0 34.81 15.85 35.528 21.395l15.868-2.058c-1.762-13.583-15.653-35.337-51.396-35.337v16Zm.508-.017c-.17.011-.339.017-.508.017v-16c-.192 0-.385.006-.577.02l1.085 15.963Zm-2.83.29a43.85 43.85 0 0 1 2.83-.29l-1.085-15.964a59.868 59.868 0 0 0-3.87.396l2.125 15.858Zm-17.258-5.304c1.839-.664 3.815-.537 5.89.22 2.161.786 3.907 2.083 4.695 2.858l11.22-11.406c-2.264-2.228-5.928-4.843-10.438-6.486-4.595-1.674-10.55-2.494-16.805-.233l5.438 15.047ZM24.35 25.758a6.861 6.861 0 0 1-.123-.305l14.963-5.665a9.1 9.1 0 0 0-.16-.396l-14.68 6.366Zm-.667-1.54.668 1.54 14.679-6.366-.668-1.54-14.679 6.366Zm13.68-15.291c-2.007 1.386-5.233 3.087-9.252 4.658l5.824 14.902c4.803-1.877 9.214-4.111 12.52-6.395L37.364 8.927Zm1.479-1.183c.03-.038-.053.07-.332.31-.268.232-.645.526-1.147.873l9.092 13.165c1.658-1.144 3.45-2.582 4.836-4.297L38.842 7.744Zm-.494 5.228a6.124 6.124 0 0 1-.09-4.087c.139-.407.293-.695.39-.856.098-.165.173-.26.194-.285l12.449 10.05c.955-1.183 3.964-5.268 2.052-10.405l-14.995 5.583ZM19.471 91.116l67.131-24.958-5.576-14.997-67.13 24.958 5.575 14.997ZM40.548 59.41l-28.08 17.41 8.431 13.598 28.08-17.41-8.431-13.598Zm41.748-8.604-39.051 7.548 3.036 15.71 39.052-7.549-3.037-15.709Zm6.314-2.35L43 57.333l3.056 15.706 45.611-8.877-3.056-15.705Zm.217-.194-1.476.549 5.576 14.997 1.476-.549-5.576-14.997Zm-3.141 12.873.146.153 11.566-11.055-.146-.153-11.566 11.055Zm-47.12 2.473H91.47v-16H38.566v16ZM20.73 88.66l23.906-27.842-12.14-10.423L8.592 78.237 20.73 88.66Zm19.227-30.116L10.477 76.63l8.367 13.638 29.48-18.086-8.367-13.638Zm4.571-1.359a8.511 8.511 0 0 0-6.457 2.967L50.21 70.575a7.489 7.489 0 0 1-5.682 2.61v-16Zm55.184-5.527-.044-.075L85.84 59.63l.044.075 13.828-8.048Zm.064.11-.056-.097-13.844 8.023.057.097 13.843-8.023Zm-7.56-4.014-.89.173 3.057 15.706.89-.174-3.057-15.705Zm.538 15.853h.99v-16h-.99v16Z" fill="#fff" mask="url(#a)"/><path d="M74.315 105.684c0-1.777.183-3.686-.344-5.412-.214-.7-.613-1.343-.853-2.037-.128-.371-.311-.711-.484-1.063-.15-.305-.245-.637-.409-.934-.127-.23-.457-.946-.327-.718.333.583.97 1.046 1.416 1.544.579.647 1.146 1.457 1.527 2.236.344.704.747 1.311.969 2.073.132.452.081.944.081 1.41v1.366c0 .169.044.322.053.484.007.141.006.018.053-.064.17-.297.251-.726.38-1.051.242-.614.493-1.187.67-1.827.453-1.629-.092-3.127-.814-4.571-.096-.193-.19-.393-.292-.578-.096-.176-.124-.356-.233-.526-.125-.193.031.238.055.292.178.405.469.762.71 1.13.466.714.877 1.417 1.1 2.245.15.558.186 1.22.251 1.798.05.439.097.898.061 1.343-.013.163-.023.358-.052.519-.028.153-.04-.099-.02-.16.592-1.948 1.342-4.033.758-6.075-.096-.338-.397-1.326-.397-.975 0 .127.138.307.187.42.154.354.38.69.566 1.028.667 1.212.905 2.455.905 3.821 0 .145-.052 1.087-.052.549 0-.394.182-.756.344-1.107.245-.529.526-1.067.704-1.623.219-.685.318-1.32.318-2.037 0-.193-.031-.706.117-.263.139.418.503.802.513 1.261.004.17.09.863-.052.934M13.495 83.545c-.37-.833-.678-1.711-1.056-2.552-.25-.556-1.29-2.03-.835-1.626.765.68 1.447 1.44 2.28 2.058.183.136 1.729 1.423 1.052.662-1.487-1.672-2.126-3.806-3.11-5.773-.616-1.233-1.423-2.27-1.946-3.548-.333-.813-.1-.289.191.099.989 1.318 2.28 2.386 3.177 3.783.636.989 1.275 2.299 2.139 3.115.19.18.25.047.198-.161-.186-.74-.74-1.169-1.131-1.792-.934-1.488-1.522-3.368-2.01-5.05-.26-.9-.775-1.667-1.087-2.54-.063-.177-.321-.68-.247-.507.183.428.351.784.63 1.174 1.562 2.186 3.214 4.402 4.982 6.422a7.2 7.2 0 0 0 .915.871c.116.091-.332-.84-.384-.914-.768-1.12-1.328-2.272-1.866-3.517-.806-1.863-1.447-3.754-2.448-5.532-.49-.87-.806-1.83-1.335-2.67-.087-.138-.588-1.102-.266-.457.952 1.902 2.98 3.144 4.364 4.71.793.896 1.441 1.888 2.157 2.843.384.512.839 1.087 1.063 1.693.132.356.297.73.532 1.032.492.633-.784-.322-.952-.525-.881-1.067-1.794-2.201-2.441-3.43-.87-1.652-1.217-3.63-1.614-5.433-.154-.702-.408-1.37-.562-2.071-.144-.656-.264-1.328-.587-1.922-.19-.35-.228-.927-.495-1.224-.743-.826-.711.544-.531 1.038.135.373.176.784.278 1.168.202.763.541 1.478.723 2.244.104.44.212.805.42 1.2.031.058-.34-.571-.42-.724-.843-1.626-.598-4.14-.086-5.865.16-.544.197-1.02.197-1.583 0-.182-.028-.325.056-.055.187.597.328 1.126.636 1.687.812 1.476 1.89 2.747 2.813 4.147.812 1.234 1.95 2.205 2.726 3.455.591.954 1.288 1.842 1.866 2.806.313.521.484 1.164.853 1.638.2.258.132.66.26.946.042.095.065.401.012.494-.241.423-1.539-1.02-1.656-1.162-2.18-2.622-4.835-4.87-6.175-8.066-.192-.457-.37-.916-.55-1.378-.167-.428.078.536.136.655.873 1.811 1.804 3.622 2.892 5.316.804 1.25 1.797 2.27 2.695 3.418.208.265.821.946 1.224.946.348 0 1.169-1.194 1.446-1.44.382-.34.944-.704 1.391-.953.206-.114.287-.03.099-.29-.497-.688-1.17-1.24-1.6-1.978-1.62-2.78-2.406-5.926-3.536-8.913-.421-1.112-.952-2.2-1.471-3.275-.282-.584-.554-1.164-.952-1.675-.215-.277-.47-.526-.63-.167-.225.504-.54.786-.921 1.168-.095.094-.803.916-.699 1.032.065.072.25.097.334.136.49.229.8.733 1.112 1.15 1.214 1.618 2.416 3.218 3.511 4.92.496.771 1.072 1.519 1.446 2.36.073.165.495.763.124.68-.736-.163-1.3-1.22-1.657-1.792-.784-1.257-1.425-2.606-2.225-3.85-.493-.768-.97-1.651-1.582-2.33a.43.43 0 0 1-.08-.409c.07-.244.73.234.797.272.287.162 2.312 1.28 2.312.934 0-.495-.335-.855-.556-1.273a6.404 6.404 0 0 1-.643-1.948c-.124-.74-.136-3-.136-2.25 0 .823.138 1.522-.025 2.337-.131.657.053 2.663-.093 2.009-.223-1.003-.722-1.93-.97-2.924-.132-.529.432-.402.754-.58.44-.245.494-.997.612-1.422.09-.324.049-.995.303-.31.137.373.418.721.717.977.817.701 1.72 1.313 2.546 2.009 1.8 1.516 3.488 3.33 4.827 5.272.895 1.298 1.788 2.592 2.207 4.129.091.334.342.95-.272.42-1.112-.958-2.024-2.114-2.93-3.263-1.042-1.323-2.249-2.5-3.276-3.832-.724-.94-1.343-1.9-2.175-2.732-.254-.254-.971-1.256-.544-.371.87 1.804 1.509 3.705 2.41 5.489.813 1.606 1.845 3 2.757 4.536.382.644.64 1.381 1.1 1.972.13.168.26.451-.074.253-.668-.395-1.15-.998-1.755-1.47-.558-.436-2.018-1.958-1.62-1.373.6.883 1.362 1.706 2.04 2.534.476.582 1.025 1.442 1.248 2.17.022.07.322.572.322.364 0-.7-.573-1.408-.902-1.978-.932-1.607-1.347-3.434-2.244-5.05-.338-.608 1.097.86 1.656 1.274.76.562 1.5 1.105 2.17 1.774.096.096.875.918.73.618-.52-1.067-1.26-2.073-1.867-3.09-1.03-1.723-1.948-3.455-2.745-5.297-.602-1.393-1-2.853-1.625-4.24-.22-.489-.445-.98-.637-1.477-.049-.127-.277-.365-.26-.507.003-.022.547.407.582.432 2.843 2.047 5.642 4.057 7.602 6.997.866 1.3 1.565 2.706 2.447 3.98.508.734-.055.386-.513.013-1.274-1.038-2.718-2.365-3.597-3.77-.79-1.264-1.383-2.63-2.12-3.92-.406-.71-.947-1.501-1.224-2.261-.15-.412-.373-.79-.531-1.187-.31-.775.103-.224.58.136 2.15 1.62 4.496 3.001 6.726 4.506.978.66 1.672 1.593 2.515 2.392.163.154 1.11 1.313.5.667-.67-.71-1.008-1.669-1.582-2.447-.801-1.088-1.534-2.316-2.422-3.332-.345-.394-.733-.88-.977-1.341-.139-.262-.736-.377-.97-.612-.373-.372-.968-1.584-1.748-2.415-1.2-1.279-1.663-3.684-2.474-3.324-.202.09-.302 3.57 0 3.959.335.431.886.775 1.273 1.168.755.765 1.383 1.649 2.102 2.448 1.754 1.95 3.264 4.094 4.296 6.502.388.905.701 1.785 1.724 1.842.229.013.297.074.173-.272-.238-.665-.81-1.333-1.23-1.898-.379-.51-.626-1.102-.896-1.675-.204-.432.233 0 .334.118.427.505.8.852 1.396 1.168.27.142 1.142.948.78.222M34.365 58.818c0-.823-.27-1.487-.575-2.246-.475-1.175-.925-2.335-1.543-3.447-.945-1.701-2.172-3.268-3.063-4.983-.877-1.685-1.866-3.389-3.07-4.861-2.245-2.744 3.15 6.355 4.861 9.46.47.851.994 1.715 1.393 2.601.28.624-.081.261-.384-.063-1.185-1.274-2.005-2.844-2.999-4.258-.909-1.293-2.005-2.466-2.871-3.781-.404-.612-.768-1.258-1.187-1.855-.205-.291-.36-.795-.668-.995-.143-.093-.649-.668-.512-.668.583 0 1.028.42 1.663.383.297-.017 0-1.284 0-1.535 0-.223-.21-1.253 0-1.28.281-.034.793-.902.924-1.15.626-1.183.507.06.768.668.616 1.438 1.727 2.698 2.53 4.037.872 1.454 1.88 2.81 2.814 4.221.47.71.824 1.487 1.28 2.204.214.337.529.764.64 1.151.147.516.795 1.583 1.215 1.92.117.093 1.377 1.665 1.4 1.634.225-.3-2.034-3.08-2.232-3.383-1.255-1.93-2.21-4.09-3.191-6.17-.862-1.825-1.512-3.793-2.438-5.579-.438-.846-.684-1.893-.888-2.814-.065-.29.216.396.327.525 1.148 1.348 2.354 2.666 3.454 4.052 1.495 1.883 2.887 3.852 4.4 5.721.645.798 1.159 1.64 1.606 2.559.356.732.626 1.453 1.08 2.146.29.445.624.849.867 1.308.14.265.125.31-.185.071-.834-.644-1.382-1.25-1.99-2.118-1.671-2.387-3.216-4.762-4.065-7.576-.54-1.791-.859-3.722-1.123-5.573-.175-1.222-1.052-3.553-1.052-3.553s.221.63.39.917c.712 1.2 1.648 2.227 2.503 3.326 1.113 1.431 2.233 2.817 3.24 4.328.68 1.02 1.205 2.113 1.863 3.142 1.31 2.051 2.316 4.364 3.518 6.468.212.37.568.66.768 1.009.256.45-.38-.49-.455-.583-1.167-1.449-2.331-3.072-3.177-4.726-.947-1.851-1.712-3.799-2.58-5.686-.61-1.324-1.29-2.615-1.841-3.966-.652-1.597-.897-3.483-1.734-4.99-.121-.217-.287-.314-.064-.064.342.385.535.966.824 1.393 1.327 1.964 2.96 3.726 4.393 5.615 1.068 1.409 1.937 2.935 2.843 4.45 1.098 1.837 2.288 3.705 3.17 5.657.322.714.807 1.843 1.336 2.43.094.105.327.456.227.356-.565-.565-1.02-1.652-1.464-2.331-2.087-3.19-3.811-6.638-5.288-10.15-.825-1.96-1.38-4.039-2.303-5.956-.38-.788-.822-1.53-1.208-2.302-.178-.356.235.263.298.34.868 1.06 1.96 1.96 2.929 2.929 2.564 2.564 4.418 5.513 6.077 8.707.923 1.778 1.61 3.665 2.43 5.487.3.667.923 1.41 1.08 2.118.092.412-.193.004-.376-.2-.84-.933-1.539-2.115-2.303-3.12-1.698-2.233-3.241-4.514-4.477-7.043a41.72 41.72 0 0 0-1.088-2.104c-.143-.254-.427-.755-.057-.178 1.89 2.952 3.763 5.906 5.423 8.999.706 1.315 1.467 2.624 2.118 3.965.197.406.849 1.572 0 .768-.852-.807-2.138-1.085-3.042-1.848a27.199 27.199 0 0 1-5.274-5.956c-.897-1.365-2.05-2.428-3.042-3.71-.724-.937-1.433-1.886-2.203-2.786-.656-.768-1.279-1.56-1.947-2.303-.301-.334-.439-.627-.64-1.052-.153-.322-.216-1.273-.483-1.407M54.423 53.886c-.7-1.882-1.434-3.747-2.203-5.601-.893-2.153-1.65-4.619-2.886-6.61-1.112-1.792-2.518-3.548-3.326-5.501-.555-1.341-1.268-2.675-2.303-3.71-.157-.158-.79-1.223-.995-1.223-.28 0 .662 1.83.69 1.884 1.212 2.336 2.149 4.81 3.148 7.242 1.563 3.805 3.418 7.453 5.189 11.159.337.706.733 1.532.924 2.296.155.621.384.783-.285.021-4.177-4.758-6.218-10.892-9.694-16.106-.858-1.285-1.704-2.489-2.431-3.866-.207-.393-1.108-1.543-.355-.512a305.068 305.068 0 0 1 3.49 4.862c1.072 1.533 1.97 3.19 3.105 4.677.566.74-.586-.898-.682-1.052a49.664 49.664 0 0 1-2.132-3.881c-.599-1.198-1.16-2.47-1.535-3.739-.071-.237-.649-1.657-.967-1.578-.125.032 1.525 2.565 1.592 2.652 1.548 2.01 3.08 4.024 4.648 6.02.947 1.205 1.76 2.515 2.687 3.738.484.639.92 1.272 1.28 1.99M89.25 41.163c0 1.292.515 2.414 1.023 3.583a391.21 391.21 0 0 0 2.019 4.577c.727 1.615 1.395 3.205 2.267 4.755.155.276.291.557.448.831.37.647-1.165-.938-1.663-1.492-2.323-2.585-4.398-5.775-5.878-8.92-.822-1.747-1.612-3.501-2.438-5.245-.342-.722-1.678-2.718-1.28-2.026.423.733.641 1.699.953 2.487.78 1.974 1.582 3.941 2.31 5.935.95 2.605 2.103 5.14 3.362 7.612.303.597.47.541.813 1.11.112.184.56.608.356.54-.775-.259-1.16-.547-1.653-1.138-1.515-1.822-2.82-3.814-3.958-5.892-1.479-2.7-2.824-5.497-4.201-8.252a27.085 27.085 0 0 1-1.18-2.786c-.294-.8-.779-1.6-1.023-2.395-.054-.176-.497-.666-.313-.377.25.393.422.76.569 1.208.886 2.71 1.777 5.421 2.693 8.124.826 2.438 1.921 4.78 2.78 7.2.43 1.215 1.173 2.254 1.691 3.419.1.225.28.407.384.64.353.795-.586-.738-.718-.917-1.346-1.825-2.671-3.627-3.76-5.622-1.267-2.324-2.216-4.838-3.326-7.243a404.737 404.737 0 0 1-1.38-3.014c-.346-.767-.847-1.442-1.1-2.26-.24-.77-.719-1.945-.719-2.757 0-.097.191.38.228.511.17.613.367 1.214.568 1.82.98 2.937 1.73 5.927 2.666 8.877.734 2.313 1.284 4.886 2.324 7.086.414.877.86 1.773 1.187 2.687.079.221.645 1.133.305.817-.904-.84-1.626-1.964-2.281-3-1.438-2.27-2.631-4.692-3.817-7.1-1.46-2.965-2.67-6.178-3.866-9.253-.51-1.312-.884-2.623-1.251-3.98a6.965 6.965 0 0 0-.384-1.024c-.188-.422.19.218.227.384.11.496.52.982.775 1.414.73 1.24 1.486 2.462 2.168 3.731.766 1.426 1.457 2.874 2.175 4.322.607 1.226 1.32 2.457 1.727 3.767.191.617.449 1.22.576 1.855.029.146.128.734.128.647M81.445 54.852c-.018-.169-.133-.325-.206-.476-.42-.874-.853-1.744-1.279-2.615-1.046-2.14-2.025-4.315-3.22-6.376a496.477 496.477 0 0 0-4.826-8.18c-1.206-1.993-2.578-3.97-3.518-6.085-.048-.109-.308-.77-.227-.547.416 1.156 1.653 2.093 2.395 3.035a68.21 68.21 0 0 1 2.694 3.66c.14.205.843 1.198.511.413-.185-.44-.477-.76-.76-1.138-.443-.59-.729-1.323-1.088-1.968-.445-.802-.706-1.684-1.158-2.488-.219-.388-.644-.655-.832-1.03M64.303 29.905c.068.746.472 1.444.796 2.103.553 1.129 1.082 2.269 1.635 3.398.677 1.384 1.303 2.851 1.89 4.279 1.294 3.147 2.352 6.387 3.86 9.453.867 1.762 1.415 3.67 2.373 5.394.383.688-.315-.53-.398-.668-2.071-3.453-3.249-7.397-4.755-11.11-.964-2.378-2.4-5.141-2.459-7.775-.008-.359.26.4.284.455.353.807.81 1.56 1.28 2.303 2.582 4.074 4.86 8.328 7.015 12.637.267.535.605 1.031.817 1.592.058.151.165.704.377.746.492.099-.576-.822-.888-1.215-.71-.891-1.349-1.882-1.912-2.871-.61-1.07-1.121-2.187-1.585-3.327-.037-.09-.396-.92-.32-.845.293.292.49.713.696 1.066.426.723.975 1.36 1.5 2.011 1.616 2.005 2.666 4.512 4.378 6.425.05.056.217.307.071.1-.365-.52-.84-.957-1.222-1.464-1.768-2.351-2.73-5.202-3.973-7.833a169.59 169.59 0 0 1-3.767-8.586c-.386-.949-1.023-1.815-1.471-2.743-.377-.78-.827-1.523-1.251-2.274-.081-.143-1.028-2.754-1.152-2.63-.239.238.299 1.65.356 1.919.392 1.848.517 3.553 1.222 5.352 1.758 4.486 4.931 8.204 7.214 12.41 1.121 2.064 2.174 4.379 2.822 6.645" stroke="#171717" stroke-width="1.5" stroke-linecap="round"/><path d="M73.13 54.725c-.113-1.359-1.11-2.75-1.855-3.839-1.359-1.983-2.436-4.216-3.646-6.297-1.98-3.404-4.061-6.732-5.942-10.192-.765-1.408-1.338-2.918-2.054-4.35-.242-.485-.542-.938-.732-1.45-.054-.145-.227-.56-.227-.405 0 .442.548.92.796 1.23 1.715 2.15 3.558 4.302 5.096 6.581 1.985 2.943 3.672 6.107 5.466 9.17.482.822 1.023 1.608 1.506 2.43.401.683.06.123-.213-.185-2.03-2.284-3.076-5.112-4.385-7.825-1.296-2.686-3.006-5.466-3.66-8.409-.097-.432-.784-1.734-1.152-1.919M56.492 54.897c-.025-.265-.13-.507-.222-.756-.34-.931-.652-1.87-.953-2.814-.39-1.22-.72-2.473-1.165-3.672-.679-1.83-1.38-3.661-2.24-5.416-1.187-2.422-2.53-4.766-3.55-7.267-.283-.695-.718-1.294-.993-1.997-.233-.596-.322-1.249-.48-1.861-.103-.402-.137-.956-.337-1.317-.09-.163-.105-.222-.005.015.329.78.949 1.558 1.452 2.23a97.14 97.14 0 0 1 8.135 12.88c1.024 1.94 1.999 3.894 2.99 5.85.467.92 1.123 1.76 1.579 2.673.04.078.424.94.545.892.038-.015-1.155-1.83-1.216-1.931-.967-1.618-1.793-3.356-2.632-5.043-1.354-2.721-2.37-5.587-3.631-8.347-.685-1.498-1.149-3.069-1.886-4.544a42.851 42.851 0 0 1-2.063-4.81c-.058-.162-.054-.339-.046-.051.02.717.808 1.455 1.22 1.977 1.917 2.422 3.707 4.908 5.447 7.459 1.136 1.663 2.138 3.435 3.137 5.184 1.112 1.946 2.085 3.993 3.248 5.905.658 1.082 1.242 2.214 1.79 3.354.145.301.268.708.5.953.327.346.079-.187-.02-.332-.86-1.262-1.372-2.72-1.977-4.11-.908-2.085-1.77-4.18-2.542-6.32-1.107-3.066-2.071-6.182-3.4-9.158-.37-.832-.82-1.628-1.139-2.481-.242-.649-.452-1.353-.746-1.977-.16-.338-.438-.805-.52-1.175-.063-.284-.047-.08.035.085.358.715.834 1.337 1.327 1.962 1.896 2.407 3.803 4.894 5.26 7.6 1.451 2.695 2.878 5.369 4.085 8.185a95.643 95.643 0 0 0 2.36 5.089c.264.528.51 1.07.812 1.578.058.099.337.524.277.49-.44-.26-.712-.958-.968-1.362-.825-1.306-1.708-2.573-2.526-3.883-.597-.954-1.224-1.904-1.7-2.925-.563-1.207-.972-2.477-1.543-3.682a68.1 68.1 0 0 0-1.609-3.142c-.212-.392-.377-.795-.57-1.195-.055-.114-.161-.47-.161-.343 0 1.276.662 2.273 1.225 3.4 1.385 2.768 2.989 5.465 4.292 8.27.552 1.188 1.004 2.425 1.563 3.606.177.372.81 1.82 1.362 1.82.2 0 .485-.171.68-.222.412-.106.876-.05 1.297-.05.305 0 .588-.015.877.09.145.053.38.18.182-.055-1.095-1.294-1.758-2.987-2.511-4.483-1.011-2.006-2.379-3.798-3.385-5.81-.775-1.55-1.407-3.162-2.324-4.64-.989-1.592-1.68-3.35-2.714-4.912-1.073-1.62-1.802-3.4-2.905-4.992-.703-1.017-2.008-.5-3.086-.62-.379-.043-.89-.086-1.25-.197-.264-.081-.18.005-.066.207.324.576.59 1.098.822 1.73.835 2.272 1.686 4.53 2.537 6.797.972 2.593 1.625 5.249 2.405 7.898.912 3.096 1.726 6.287 3.268 9.128.383.706-.252.242-.565-.07-1.534-1.535-3.125-2.917-4.024-4.933-.844-1.89-1.82-3.754-2.834-5.557-.175-.31-.428-.633-.56-.963-.082-.206.141.419.222.625a62.916 62.916 0 0 1 1.72 4.942c.409 1.375.696 2.825 1.23 4.16.297.745.466 1.498.817 2.2" stroke="#171717" stroke-width="1.5" stroke-linecap="round"/><path d="M24.44 34.532v3.273c0 1.123.27-2.231.48-3.334.132-.684.273-1.954.758-2.494.361-.4.275 1.474.275 1.591v3.014c0 .48-.052 1.13.215.26.204-.67 1.763-7.207 2.6-6.968.17.049-1.012 5.113-1.025 5.729-.02.94.499-1.104.559-1.285.56-1.713 1.538-3.157 2.386-4.727.103-.191.913-1.43.91-1.361-.03.796-.688 1.713-.933 2.478-.27.84-.486 1.82-.574 2.7-.047.474.417-.87.543-1.079.73-1.204 1.622-2.371 2.47-3.495.378-.5.972-1.124.972-1.797 0-.786-2.547-.897-3.06-.903-2.025-.026-3.264.296-4.65 1.874-.779.887-1.291 1.902-1.927 2.883-.005.007-.401.81-.199.666.327-.234.471-.723.75-1.018.82-.866 1.735-1.565 2.616-2.37 1.628-1.49 3.343-3.483 5.583-4.024.768-.185 1.647-.076 2.432-.076 1.354 0 2.726-.069 4.069.138 1.24.19 3.662.71 4.405 1.927.205.335.462.69.796.902.388.247.829.334 1.27.444.816.204-1.41-1.005-2.234-1.178-2.58-.54-5.502.174-8 .788-1.047.257-2.096.517-3.136.803-.022.006-.818.272-.673.298.307.056.664-.066.956-.137.992-.243 2.001-.333 3.021-.375 1.767-.073 3.54-.03 5.308-.03.274 0 .34-.009.038-.169-.81-.43-1.64-.859-2.5-1.178-1.703-.63-3.501-.963-5.217-1.545-.786-.267-.111-.288.314-.267 1.638.08 3.495.598 4.971 1.307.227.11 1.582.74 1.094 1.194-.322.299-.888.272-1.293.313-.906.093-1.775.164-2.654.436-2.154.667-4.247 1.584-6.302 2.509-.76.342-.44.498.184.23 1.946-.842 4.035-1.226 6.134-1.508.912-.122 3.674-.221 2.753-.221-2.519 0-4.423 1.29-6.47 2.585-.538.34-1.248.947-1.867 1.124-.345.099.72.031 1.079 0 .712-.062 1.356-.533 2.057-.68 1.228-.26 2.526-.29 3.717-.697 1.42-.483 2.787-1.12 4.176-1.644.555-.21 4.023-.924 4.023-1.514" stroke="#FFD424" stroke-width="1.5" stroke-linecap="round"/><path d="M101.75 87.659c10.657-2.025 29.516-14.543 24.791-48.375l-3.825-7.568m3.804 7.568 5.482-7.568M23.695 90.42v56.455m0 0H13.059m10.636 0-7.568-6.238M57.18 109.136c1.84-.163 6.136-.041 8.59 1.841M66.897 92.977c2.413 1.268 7.138 5.727 6.647 13.5" stroke="#171717" stroke-width="1.5" stroke-linecap="round" stroke-linejoin="round"/><path d="M84.998 88.784c2.21.04 6.362.92 5.216 4.193-.45 1.289-2.454 2.107-5.83 2.27m0 0c-7.26.369-20.904-2.23-39.068-9.225.675 5.257 5.298 17.489 19.228 20.557 12.068 2.659 18.961-5.952 19.84-11.331ZM39.2 135.932v40.909l9.205 1.738M69.29 135.932v40.909l9.204 1.738M45.419 70.58H26.498M98.907 70.58H95.43M62.989 73.034c-.041-1.493-.982-4.5-4.5-4.5-3.519 0-4.398 2.72-4.398 4.091M88.352 72.42c-.041-1.492-.982-4.5-4.5-4.5s-4.398 2.721-4.398 4.092" stroke="#171717" stroke-width="1.5" stroke-linecap="round" stroke-linejoin="round"/><path d="M57.998 83.057c6.89 0 12.477-5.586 12.477-12.477S64.89 58.103 57.998 58.103 45.52 63.688 45.52 70.58c0 6.89 5.586 12.477 12.477 12.477ZM82.953 83.057c6.89 0 12.477-5.586 12.477-12.477s-5.586-12.477-12.477-12.477-12.477 5.586-12.477 12.477c0 6.89 5.586 12.477 12.477 12.477Z" stroke="#171717" stroke-width="1.5" stroke-linecap="round" stroke-linejoin="round"/><path d="M96.964 55.607H38.567L13.1 85.267c-10.432-22.705 2.25-34.712 8.181-36.103.9-15.464 22.194-20.762 32.728-21.478 31.5 0 41.748 18.614 42.954 27.921Z" stroke="#171717" stroke-width="1.5" stroke-linejoin="round"/><path d="m28.012 16.66 2.74 6.32M22.244 43.537c-1.125-5.44-.736-16.486 8.51-20.536 8.835-3.866 17.488 1.902 20.29 4.95" stroke="#171717" stroke-width="1.5" stroke-linecap="round" stroke-linejoin="round"/><path d="M29.685 20.998c9.529-3.547 16.55-8.31 15.683-10.64-.867-2.33-9.294-1.342-18.823 2.205-9.529 3.548-16.55 8.312-15.683 10.64.867 2.33 9.295 1.343 18.823-2.205Z" stroke="#171717" stroke-width="1.5"/><path d="M92.136 55.565c10.841 18.348 11.414 42.3 6.71 52.998-7.998 18.246-29.148 31.705-48.867 29.557-18.756-2.045-39.047-17.141-37.288-53.018" stroke="#171717" stroke-width="1.5" stroke-linecap="round"/><path d="M67.816 79.374c3.273.205 8.305 1.882 2.25 6.955" stroke="#171717" stroke-width="1.5" stroke-linecap="round" stroke-linejoin="round"/><path d="M101.924 87.352c1.82 0 2.567-.082 4.224-.859.777-.368 1.37-.982 2.086-1.432.777-.511 1.555-1.002 2.271-1.554 1.002-.778 2.434-1.228 3.231-2.23.941-1.186 2.087-2.25 3.109-3.273 2.025-2.025 3.907-3.804 5.319-6.34.347-.635.859-1.269 1.309-1.862.491-.634.47-1.104.654-1.861.287-1.33.655-2.802.737-4.173.061-1.186 1.043-2.454 1.104-3.702.041-.614.246-1.657.512-2.23.327-.675.327-1.493.695-2.127.286-2.782-.061-5.339-.061-8.059 0-.695-.021-1.432-.225-2.086-.205-.635.634-1.718.552-2.353-.061-.552-.552-1.022-.552-1.657 0-.572-.184-1.615-.471-2.127-.716-1.288-.716-2.843-1.677-4.07-.818-1.064-1.186-2.107-1.739-3.232" stroke="#171717" stroke-width="1.5" stroke-linecap="round"/><path d="M131.962 31.614c-.512.512-.9 1.514-1.146 2.189-.388 1.002-1.616 1.882-2.27 2.72-.716.92-1.248 1.964-2.332 2.496M16.27 140.79c.348.041.819.757 1.023 1.023.329.427.91.777 1.279 1.022.818.553 1.094.788 1.871 1.381.552.43 1.043.818 1.268 1.493.082.246.225.512.266.757.041.184.266.246.369.409" stroke="#171717" stroke-width="1.5" stroke-linecap="round"/><path d="M12.946 146.528h5.676c1.105 0 2.332.041 3.375-.307.553-.184.982-.164.982-.818v-1.493c0-2.148 1.37-4.5 1.37-6.668 0-2.557-1.656-4.419-1.37-6.955.143-1.37-.654-3.416-.307-4.745.43-1.596.819-3.662.819-5.319 0-1.656.163-3.293.163-4.929 0-1.33-.368-3.355.082-4.643.41-1.146.123-2.578.389-3.784.204-.9-.123-1.862.122-2.741.164-.553.082-1.187.082-1.759 0-1.596-.204-3.191-.204-4.787 0-.593-.389-6.392-.389-6.903M73.543 106.272c.255-1.023-.013-3.272-.114-3.809a8.07 8.07 0 0 0-.634-1.951c-.263-.564-.895-1.123-1.198-1.709-.302-.606-.47-1.493-.794-2.06-.362-.629-.981-1.003-1.407-1.594-.734-1.034-.835-1.552-1.956-2.172" stroke="#171717" stroke-width="1.5" stroke-linecap="round"/><path d="M85.048 88.886c1.166.015 2.358.303 3.416.767.773.337 1.396 1.727 1.57 2.548.076.37.093.676.088 1.065-.007.572.031.757-.504 1.036-.371.2-.724.564-1.154.64-.554.116-1.048.355-1.582.532-1.397.473-2.792.762-4.285.742-1.473-.019-2.944-.18-4.394-.343-.98-.115-2.02-.415-2.957-.693-.326-.106-.696.012-1.022-.074-.326-.086-.755-.112-1.103-.158a29.895 29.895 0 0 1-2.306-.357 25.458 25.458 0 0 1-2.163-.478c-.693-.173-1.404-.55-2.078-.64-1.287-.16-3.041-.51-4.116-1.26-.405-.272-.896-.299-1.282-.508-.752-.399-1.528-.45-2.344-.624-1.53-.367-3.247-.472-4.67-1.145-.447-.21-.98-.196-1.386-.386a8.774 8.774 0 0 0-1.833-.617c-.898-.195-1.653-.348-2.487-.707-.508-.231-.79-.583-1.383-.59-.184-.003-.98-.115-1.122-.24-.506-.395-.27.283-.233.59.093.758.43 1.56.461 2.338.065 1.29.843 2.793 1.649 3.785.261.331.337.782.62 1.093.302.33.46.763.66 1.154.3.576.763 1.114 1.124 1.65.362.517.824 1.157 1.268 1.613.444.435.972.728 1.438 1.123.748.664 1.578 1.33 2.472 1.791.874.462 1.75.8 2.729.997.897.175 1.79.698 2.688.894 1.693.39 3.189 1.8 4.907 1.823.92.012 1.841-.017 2.74.137 1.162.2 2.285.419 3.492.434.797.011 1.742-.284 2.442-.623l2.614-1.234c.411-.199.621-.606 1.012-.805.35-.18.887-.521 1.156-.783.684-.646 1.773-1.082 2.275-1.914.23-.365.52-.709.75-1.054.271-.406.38-.957.59-1.383.295-.61.357-2.205 1.015-2.503M38.42 136.224c0 2.894-.086 5.772.273 8.646.434 3.473.645 6.986.933 10.474a26.1 26.1 0 0 1-.038 4.7c-.137 1.374-.212 2.767-.386 4.135-.05.396.046.819-.061 1.206-.038.134-.121.388-.127.508-.046.874.365 1.793.574 2.628.305 1.221.104 2.65.104 3.9v3.221c0 .624.96.789 1.46.998.872.366 1.785.62 2.712.801.973.19 1.949.413 2.93.556.597.086 1.23.083 1.799.273M68.624 136.959c0 2.856-.194 5.735.343 8.542.391 2.041.509 4.081.509 6.158 0 2.952-.023 5.888.19 8.833.183 2.546.375 5.072.55 7.607.05.721.112 1.413.112 2.142 0 .301-.058.614-.16.899-.133.372-.01.791-.106 1.177-.11.437-.054.93-.054 1.378 0 .469-.106.908-.106 1.379 0 .536-.344 1.507-.083 2.029.692 1.383 2.92.958 4.123.958h2.242c.387 0 2.048.049 2.237.426M25.926 70.962c2.204 0 4.584.22 6.72-.443.827-.257 1.775-.36 2.632-.478.683-.095 1.36-.17 2.048-.17 1.236 0 2.452.204 3.694.204 1.41 0 2.817.136 4.225.136M95.709 70.174c.327 0 .67-.032.995.005.249.029.459.154.681.256.126.058.26.126.393.163.103.029.207.126.315.126M54.355 72.917c0-.385.137-.779.24-1.149.089-.318.218-.655.35-.958.108-.246.279-.43.417-.656.264-.43.603-.64.98-.95.28-.228.54-.564.896-.678.374-.118.77-.08 1.157-.08 1.334 0 2.252.896 3.105 1.797.48.506.976 1.078 1.388 1.645.209.287.368.496.368.87M78.997 72.072c0-.551-.026-1.48.376-1.926.157-.175.337-.299.447-.52.149-.296.288-.682.616-.846.233-.117.541-.005.755-.124.22-.123.465-.299.7-.38.54-.187 1.02-.303 1.597-.303h1.978c.789 0 1.21.52 1.762.97.22.181.376.57.543.812.23.33.354.706.544 1.058.154.286.391.654.391.987 0 .119.002.771.072.632" stroke="#171717" stroke-width="1.5" stroke-linecap="round"/><path d="M54.685 58.778c-.88 0-1.78.47-2.557.92-.798.45-1.39 1.044-1.984 1.74-.491.572-1.146 1.288-1.493 1.922-.266.47-.614.859-.86 1.33-.183.347-.183.756-.368 1.104-.327.634-.368 1.82-.51 2.516-.165.818-.165 1.677-.165 2.516 0 .9-.081 1.984.164 2.822.164.573.286 1.8.634 2.27.941 1.228 2.066 2.496 3.15 3.621.491.532 1.105.962 1.657 1.412.266.225.9.347 1.248.511.368.164.797.47 1.206.47.921 0 1.576.532 2.414.778.328.102 2.414.204 2.618-.062.184-.225.798-.286 1.044-.43.49-.265.88-.695 1.41-.92.717-.266 1.74-.552 2.312-1.145.92-.982 1.76-2.005 2.7-3.007.491-.532.655-1.35.962-2.025.347-.736 1.022-1.78 1.022-2.598 0-1.738.389-3.62 0-5.359-.163-.736-.245-1.554-.613-2.209-.43-.777-.86-1.207-1.473-1.84-1.186-1.248-2.577-2.598-4.09-3.396-.962-.511-1.453-.818-2.558-.818-.88 0-1.759-.47-2.618-.47-.838 0-1.677-.164-2.557-.164-.777 0-2.23.061-2.843.552-.409.327-.961.45-1.432.675-.43.204-.634.532-.982.9-.593.614-1.452 1.943-1.984 3.17M73.053 76.92c.245.88.92 1.678 1.534 2.353.634.696 1.33 1.146 2.148 1.575.654.348 1.513.839 2.209 1.043.49.143.961.41 1.472.553.39.102.757 0 1.146.102.675.184 1.78-.082 2.495-.102.798-.02 1.596-.266 2.394-.47.818-.226 1.86-.43 2.597-.86.491-.307 1.596-.736 1.943-1.207.9-1.268 1.76-2.72 2.516-4.09.348-.635.593-1.35.88-2.026.143-.327.082-1.002.143-1.39.061-.43.225-.921.123-1.33-.246-.941.061-1.739.061-2.639 0-.347-.47-2.495-.777-2.638-.266-.123-.491-.737-.675-.962-.389-.43-.9-.716-1.227-1.207-.45-.654-.982-1.615-1.678-2.045-1.166-.695-2.352-1.289-3.518-1.984-.614-.368-1.432-.327-2.127-.47-.777-.164-1.943-.594-2.7-.39-1.616.43-3.457.512-4.991 1.33-.655.348-1.39.655-1.902 1.166-.614.614-.88 1.166-1.31 1.943-.838 1.514-1.718 3.253-2.045 4.991-.204 1.105-.368 1.678-.082 2.782.246.88.041 1.902.266 2.782.225.839.307 1.739.553 2.618.204.798.654 2.25 1.288 2.741.43.327.675.86 1.002 1.289.307.388.675.49 1.105.757.736.45 2.21 1.002 3.477 1.227" stroke="#171717" stroke-width="1.5" stroke-linecap="round"/><path d="M21.405 49.818c-3.886 0-8.857 4.378-9.307 8.407-.143 1.207-1.206 2.066-1.206 3.457 0 1.186-.9 2.393-.9 3.6 0 2.598-.594 4.99-.594 7.507v3.457c0 1.452.553 2.413.594 3.825.04 1.104 2.168 5.624 3.743 4.397 2.045-1.595 3.416-4.52 4.582-6.73.49-.92 1.575-2.106 2.475-2.638.92-.532 2.68-1.82 3.231-2.761 1.207-2.046 2.68-4.112 4.419-5.85 1.922-1.923 3.416-3.948 5.175-5.912 1.82-2.025 2.25-3.231 5.011-3.845 1.002-.225 2.005-.88 3.007-.88h4.193c9.573 0 19.186-.9 28.8-.9h3.457c1.248 0 2.393.532 3.6.593 2.925.164 2.976 0 5.922 0 .859 0 3.559-.184 4.09 0h2.67c.982 0 1.432.205 1.432-.9 0-.756-.962-2.536-1.432-3.068-.798-.88-1.268-2.475-1.8-3.538-1.064-2.128-1.452-4.848-2.925-6.75-1.227-1.575-3.191-3.396-4.93-4.419-2.066-1.227-4.111-2.884-6.422-3.559-.962-.266-2.087-1.125-3.007-1.636-.941-.532-2.291-1.698-3.293-1.943-.553-.123-2.148-.757-2.619-1.146-.593-.47-3.088-.368-3.825-.368-2.843 0-5.44-.593-8.223-.593-3.272 0-6.218 1.084-9.409 1.207-2.393.082-5.727 1.145-7.568 2.7-.94.798-2.066 1.022-3.15 1.493-1.534.675-2.107 1.207-3.907 1.207-1.78 0-5.318 2.025-6.443 3.457-1.084 1.35-8.161 10.615-5.707 11.843" stroke="#171717" stroke-width="1.5" stroke-linecap="round"/><path d="M50.267 27.829c-.369-.307-1.044-.327-1.35-.696-.47-.552-1.105-1.084-1.678-1.534-.675-.49-1.39-.982-2.025-1.452-1.411-1.043-3.416-.777-5.011-1.39-.47-.185-.962-.308-1.412-.533-.347-.163-.777-.47-1.165-.49-.43-.021-.819-.082-1.269-.062-.695.02-1.084.43-1.718.655-1.84.634-3.457 1.84-5.257 2.434-.838.286-1.616.961-2.413 1.39-.798.45-1.514 1.146-2.025 1.862-1.125 1.595-1.596 3.539-2.25 5.339-.573 1.575-.184 3.559-.102 5.236.081 1.739-.103 3.375-.021 5.114M28.217 16.496c.02.593-.082 1.391.184 1.923.225.45.409.838.654 1.288.573 1.044 1.432 1.923 1.494 3.191" stroke="#171717" stroke-width="1.5" stroke-linecap="round"/><path d="M30.545 20.31c-2.246.113-4.237.791-6.377 1.333-1.377.34-2.48 1.017-3.962 1.085-.657.022-1.356.27-2.013.316-.763.068-1.483.023-2.204.203-1.122.271-2.563.136-3.729.181-.402.023-1.08-.18-1.101-.632-.021-.723.572-1.198.996-1.808.572-.836 1.44-1.423 2.182-2.169.614-.61 1.123-.813 1.928-1.197.847-.407 1.8-.61 2.67-.949.953-.384 1.928-.79 2.923-1.062.382-.113.87-.406 1.208-.632.466-.294.996-.407 1.504-.633.72-.339 1.568-.655 2.331-.904.975-.293 2.055-.858 2.945-1.31.848-.43 1.674-.587 2.564-.881 1.292-.43 2.542-1.062 3.94-1.175 2.416-.203 4.916-.474 7.374-.452.297 0 .953.34 1.208.52.466.316.466.723.487 1.22.021.655-.382.858-.742 1.333-.381.497-.826 1.107-1.356 1.468-1.928 1.333-4.089 2.034-6.292 2.892-2.967 1.175-5.488 3.05-8.539 4.135M91.38 55.442c.756 2.169 1.533 4.316 2.863 5.994 1.555 1.963 2.475 5.215 3.743 7.527 1.207 2.23 3.068 4.766 3.068 7.364 0 1.779 1.105 3.579 1.105 5.379v5.093c0 3.641-.184 7.814-1.943 11.046-.675 1.227-.225 3.968-.368 5.379-.164 1.575-1.31 3.109-1.473 4.541-.368 3.211-3.825 7.302-5.257 10.207-3.211 6.525-7.895 10.391-14.073 13.889-1.595.9-3.17 1.063-4.725 1.861-1.411.716-3.58 2.229-5.011 2.393-3.273.389-7.466 2.332-10.677 2.536-2.475.144-4.848 1.453-7.405 0-2.434-1.37-7.61-1.8-10.31-1.963-5.44-.307-10.186-5.237-14.195-8.489-1.861-1.513-4.05-6.729-5.236-9-1.33-2.536-2.475-4.827-4.377-6.975-4.807-5.42-4.03-12.845-4.03-19.984 0-2.332-.204-4.786 0-7.138" stroke="#171717" stroke-width="1.5" stroke-linecap="round"/><path d="M67.406 79.17c.953 0 1.907.038 2.82.348.388.131.703.437 1.02.684.371.289.576.746.754 1.17.248.592.387 1.106.387 1.754 0 .524-.456 1.074-.834 1.407-.501.441-1.037.951-1.408 1.508" stroke="#171717" stroke-width="1.5" stroke-linecap="round"/></svg>