<svg width="188" height="274" viewBox="0 0 188 274" fill="none" xmlns="http://www.w3.org/2000/svg">
<g filter="url(#filter0_dd_3008_23713)">
<path d="M102.918 88.7602C120.382 90.8279 136.602 93.6505 149.149 96.858C160.399 99.7307 166.621 102.338 170.073 104.782C171.859 106.046 173.236 107.496 174.008 109.245C174.835 111.117 174.67 112.694 174.61 113.264L174.608 113.276L174.605 113.31C174.578 113.573 174.507 114.26 174.199 115.102L168.771 142.61C168.77 142.612 168.77 142.614 168.769 142.617M102.918 88.7602L163.864 141.649L168.769 142.617M102.918 88.7602L103.983 78.6265C106.849 74.3036 112.242 72.4238 119.401 72.3415C126.843 72.256 134.698 74.1846 139.473 75.6371L139.476 75.6379C148.605 78.4095 158.557 75.0556 163.329 66.8116C167.614 59.4209 166.626 49.6511 159.411 44.5747L102.918 88.7602ZM168.769 142.617C168.308 144.959 166.522 146.751 164.286 147.291M168.769 142.617L164.286 147.291M164.286 147.291L164.9 143.394L162.99 143.093L162.987 143.093L159.961 142.616M164.286 147.291L162.944 142.457C162.355 142.497 161.763 142.525 161.171 142.554C160.767 142.574 160.364 142.593 159.961 142.616M164.286 147.291L150.352 235.761M164.286 147.291C163.966 147.369 163.636 147.42 163.3 147.444L163.29 147.445L163.279 147.446C162.67 147.487 161.956 147.522 161.31 147.553C160.918 147.573 160.55 147.591 160.247 147.608L159.961 142.616M159.961 142.616L150.352 235.761M150.352 235.761L163.012 237.335L163.39 237.382L163.756 237.485C167.257 238.476 169.74 241.686 169.563 245.482L150.352 235.761ZM106.445 52.4301C110.634 48.9806 116.22 45.0411 122.626 42.1989C133.154 37.5279 146.616 35.5682 159.41 44.5736L106.445 52.4301ZM106.445 52.4301C106.308 47.03 104.864 41.9249 102.032 37.5602L102.032 37.56C99.2624 33.2924 92.756 24.215 83.5248 17.5265C74.1978 10.7687 61.4375 6.05287 47.0513 12.2016L106.445 52.4301ZM93.9514 56.4951C91.8443 51.8235 86.6807 48.9441 79.5053 47.4953C72.4759 46.0761 64.8492 46.3265 60.0913 46.7316L93.9514 56.4951ZM93.9514 56.4951C93.9603 56.5182 93.9738 56.5537 93.9972 56.6162L94.046 56.746L94.1018 56.873C94.1315 56.9404 94.1619 57.0062 94.1929 57.0705M93.9514 56.4951L94.1929 57.0705M94.1929 57.0705L93.8139 60.6765C93.6332 60.5588 93.4492 60.4447 93.2616 60.3343C87.9181 57.1843 82.0208 58.2079 76.7061 61.3396C71.608 64.3388 67.7994 69.4075 68.7213 75.628L68.7226 75.637C69.4808 80.689 73.2933 84.847 78.2717 86.0531C78.7667 86.1737 79.2574 86.263 79.7428 86.3224C66.556 85.0153 55.6729 84.159 46.6402 84.2571C34.0962 84.3933 24.258 86.3565 16.3476 92.1924C16.3454 92.194 16.3433 92.1956 16.3411 92.1972L15.9926 92.4529L14.2095 93.7615L13.9783 95.9612L13.9754 95.989C13.8463 96.5918 13.788 97.3125 13.9101 98.1102C13.9497 98.5237 14.0285 98.9796 14.1716 99.4652L19.2636 125.432C19.6048 127.209 20.7045 128.651 22.1583 129.491L28.3903 227.576L28.3908 227.584C28.5248 229.64 29.7288 231.613 31.7579 232.592C31.7681 232.597 31.7783 232.602 31.7885 232.606L43.9979 238.559L44.0004 238.56C54.8513 243.843 66.1998 247.642 77.7947 249.939C81.6471 251.366 90.6587 254.183 105.04 255.695C106.23 255.82 107.474 255.94 108.768 256.045C108.766 256.045 108.764 256.045 108.762 256.045L94.1929 57.0705ZM38.5964 33.1451L38.596 33.1439C35.9378 25.0225 38.935 15.6684 47.0495 12.2023L38.5964 33.1451ZM38.5964 33.1451C41.5599 42.1916 50.5795 47.5444 60.0895 46.7318L38.5964 33.1451ZM163.882 252.704C163.629 252.796 163.366 252.869 163.096 252.92L163.882 252.704ZM163.882 252.704C167.114 251.763 169.403 248.915 169.563 245.484L163.882 252.704ZM90.9872 87.475C87.2665 87.0856 83.7064 86.7169 80.2989 86.3776C84.3248 86.6849 87.9579 84.9453 90.6661 82.0741C90.9059 82.7792 91.1269 83.5525 91.3149 84.357L90.9872 87.475ZM92.8163 79.5148C92.8164 79.5148 92.8133 79.5173 92.8069 79.5219L92.8072 79.5217C92.8131 79.5169 92.8162 79.5148 92.8163 79.5148ZM89.3197 79.2281C89.301 79.2101 89.2919 79.1995 89.2919 79.1988C89.292 79.198 89.3014 79.2071 89.3197 79.2281Z" fill="white" stroke="white" stroke-width="10"/>
<path d="M22.1274 96.6599C24.6999 96.9303 27.2782 96.7398 29.8423 97.0093C30.2333 97.0504 30.9255 96.9692 30.1083 97.1398C27.3362 97.7183 29.6818 95.5621 27.0558 96.8538C25.9147 97.4151 24.9594 98.2398 23.8663 98.8774C21.7359 100.12 23.2549 101.406 25.451 100.394C30.6904 97.9786 36.0088 95.8698 41.2168 93.3333C42.7103 92.606 44.2539 91.7255 45.8226 91.3304C48.8114 90.5777 39.8246 92.6603 36.8452 93.4892C35.1524 93.9602 29.2461 96.0613 34.3997 95.8474C40.2064 95.6063 45.6538 93.8262 51.339 92.4487C54.6375 91.6494 44.8308 94.8366 41.7478 96.6453C39.4407 97.9988 35.3675 100.686 40.5461 98.9547C44.0722 97.7761 47.5826 96.5836 51.1324 95.5549C52.8905 95.0455 56.1592 95.0114 57.7367 93.7364C62.3405 90.0153 47.3165 97.5242 42.3889 100.43C40.8786 101.321 39.4703 102.325 38.0401 103.409C36.9107 104.265 40.9603 103.383 41.0217 103.363C50.3035 100.448 60.1797 98.2415 69.0234 93.5898C69.4227 93.3797 71.1111 92.6536 69.773 92.5404C65.6532 92.1921 60.0194 90.5545 56.0444 91.9689C48.9697 94.4864 41.7548 97.8188 35.264 102.451C30.4323 105.898 46.0728 100.457 51.3921 98.7871C56.4467 97.2003 61.4947 95.5035 66.5244 93.7627C68.0764 93.2255 69.6581 92.4348 71.2483 92.1568C72.3583 91.9627 69.022 92.4988 67.9234 92.8072C63.5394 94.0383 59.2447 96.6675 55.1256 99C52.9292 100.244 50.811 101.648 48.6676 103.039C47.4685 103.817 47.7951 104.019 48.9984 104.074C57.0704 104.438 65.8588 100.268 73.3554 96.2497C73.5137 96.1649 76.1661 95.0397 76.1268 94.5925C76.0681 93.9244 69.5419 96.6619 69.2204 96.8151C65.8734 98.4085 62.5735 100.323 59.3666 102.369C58.9031 102.664 55.0171 105.533 55.1152 105.563C58.0662 106.459 62.848 103.53 65.6353 102.412C70.7002 100.381 75.7137 97.9855 80.8689 96.4241C82.1832 96.026 86.1213 94.897 84.8437 95.483C80.6534 97.4049 76.5137 99.5332 72.3268 101.475C67.8439 103.553 63.3374 105.5 58.886 107.702C58.3032 107.991 53.9363 109.324 53.7142 110.338C53.5885 110.912 60.2903 109.706 60.6215 109.628C67.5512 108.006 74.2475 105.265 80.9187 102.224C84.1123 100.768 87.073 98.9824 90.1578 97.1953C90.7457 96.8547 93.0445 95.6529 90.9143 95.8903C82.8675 96.787 75.1542 101.94 67.7102 105.861C67.4274 106.01 65.3948 106.746 66.684 106.881C71.6171 107.4 76.5469 105.716 81.3826 104.272C87.0069 102.594 92.527 100.714 98.0534 98.4867C99.7314 97.8104 101.417 97.1725 103.097 96.5041C103.553 96.3224 105.034 96.0845 105.427 95.6209C106.975 93.7943 101.37 96.7881 99.3852 97.6011C93.7346 99.9151 87.9511 102.136 82.4567 105.078C81.7198 105.472 72.8256 110.687 73.0031 111.006C73.3577 111.645 76.6717 110.389 76.9117 110.315C80.5558 109.19 84.1487 107.675 87.7307 106.222C92.9106 104.12 98.0896 102.088 103.334 100.324C103.725 100.192 108.214 99.1336 108.288 98.4342C108.334 97.9965 103.103 99.6499 102.919 99.7159C98.7298 101.216 94.5056 102.437 90.3236 103.981C88.8526 104.525 87.4039 104.933 85.9725 105.652C84.0513 106.618 90.0422 105.669 92.0638 105.292C100.99 103.63 109.836 100.427 118.728 98.3265C124.757 96.9024 107.051 103.457 101.162 105.787C96.9309 107.461 92.6466 108.963 88.4761 110.915C87.3138 111.459 83.8875 113.024 85.1061 112.945C88.47 112.727 91.8659 111.31 95.1382 110.256C103.185 107.666 111.179 104.835 119.182 101.989C122.167 100.928 125.872 102.92 128.83 101.721C131.225 100.751 126.78 100.094 125.983 100.294C116.402 102.707 107.304 105.983 98.1444 110.547C97.8385 110.699 94.263 112.177 94.2997 112.912C94.3559 114.038 101.987 111.392 102.302 111.291C110.686 108.615 119.097 106.134 127.556 104.049C128.169 103.898 129.298 103.692 127.96 103.63C123.881 103.44 119.427 105.106 115.527 106.733C111.644 108.353 107.841 110.42 104.181 112.796C103.802 113.043 100.008 114.934 100.096 115.931C100.187 116.964 107.497 113.771 107.766 113.66C116.187 110.2 124.518 106.394 132.973 103.08C136.931 101.528 142.825 105.535 146.863 104.437C149.916 103.608 140.753 103.949 140.961 101.971C132.283 105.886 124.023 108.632 115.311 112.402C115.173 112.462 112.622 113.397 113.781 113.651C116.642 114.279 119.989 112.528 122.748 111.594C129.412 109.339 136.08 107.09 142.738 104.824C143.992 104.397 140.197 105.462 138.948 105.913C134.443 107.54 130.014 109.776 125.616 111.87C123.324 112.961 121.002 113.962 118.782 115.305C116.821 116.491 121.382 116.065 121.621 116.04C131.695 114.956 142.027 109.498 151.774 105.723C151.998 105.636 154.698 104.547 153.004 105.236C148.351 107.129 143.761 109.078 139.045 110.692C135.512 111.901 132.027 113.139 128.558 114.666C128.331 114.766 125.111 116.109 125.691 116.288C127.862 116.958 130.738 116.276 132.913 115.816C138.077 114.724 143.235 112.613 148.328 110.95C150.557 110.222 152.736 109.369 154.937 108.516C156.509 107.908 153.557 109.068 153.395 109.123C149.169 110.562 143.156 111.903 139.543 115.462C138.749 116.243 141.282 116.025 141.442 116.02C145.334 115.917 149.165 114.248 152.983 113.234C154.566 112.813 157.021 112.764 158.477 111.709C160.067 110.556 154.888 112.163 153.135 112.737C151.353 113.32 149.909 114.341 148.265 115.353C147.53 115.805 146.598 116.247 148.186 116.293C150.55 116.363 153.147 115.028 155.461 114.366C157.812 113.693 160.16 112.961 162.474 112.078C163.557 111.664 158.507 113.708 158.386 114.853C158.319 115.495 165.388 112.309 166.179 111.8" stroke="#171717" stroke-width="2" stroke-linecap="round"/>
<path d="M30.1443 95.6574C27.8738 95.4187 34.6532 96.409 36.8832 96.9297C45.4871 98.9388 54.1198 100.023 62.8729 100.943C65.2112 101.189 67.5495 101.435 69.8877 101.681C73.6825 102.079 62.2264 101.779 58.4297 101.399C52.3899 100.795 45.9644 100.777 40.1113 98.9099C38.0006 98.2365 31.8067 95.8834 33.9922 96.1131C35.1577 96.2356 36.8277 97.4856 37.8094 98.0013C42.6387 100.539 47.4889 102.966 52.4437 105.129C64.5431 110.411 77.1983 110.575 89.9072 113.266C93.1512 113.953 96.3577 114.867 99.6518 115.213C101.506 115.408 96.1022 113.917 95.8433 113.813C81.1573 107.904 66.0702 104.027 50.5002 101.95C50.2422 101.916 47.3245 101.093 48.4931 101.278C50.2166 101.551 51.871 102.238 53.5242 102.832C59.0485 104.819 64.6289 106.535 70.2927 107.902C79.5847 110.146 89.0445 111.54 98.5148 112.535C100.545 112.748 102.582 113.049 104.623 113.151C104.638 113.152 107.268 112.981 106.732 112.476C105.444 111.261 102.964 110.94 101.473 110.436C96.9628 108.911 92.4123 107.575 87.8386 106.336C77.718 103.595 67.6742 101.909 57.3118 100.82C55.1692 100.595 52.0154 100.984 50.088 99.5996C49.8334 99.4166 50.5732 99.0389 50.8714 98.9896C55.4525 98.2332 60.3533 99.0092 64.8827 99.3085C81.0848 100.379 96.5068 103.762 112.261 107.775C118.57 109.382 125.564 111.361 132.115 111.426C133.091 111.436 132.377 110.927 131.93 110.714C129.757 109.68 127.445 108.957 125.206 108.161C115.189 104.602 104.684 101.758 94.278 100.193C88.5681 99.3347 82.7975 98.8839 77.0578 98.2807C75.4442 98.1111 71.0089 97.6449 75.556 98.1228C87.5039 99.3786 99.1713 102.34 110.98 104.564C121.018 106.454 131.136 107.756 141.29 108.724C143.245 108.91 145.734 108.841 142.343 107.45C129.848 102.326 116.506 100.044 103.432 97.8735C91.3387 95.8655 79.1187 94.7246 66.9291 93.5241C64.1737 93.2527 61.3378 93.8594 58.6327 93.5751C58.0011 93.5087 59.8671 93.9 60.4753 94.1021C64.5458 95.4546 68.5351 97.1353 72.5964 98.5296C88.7623 104.08 105.329 108.93 122.165 110.867C128.321 111.575 134.491 112.232 140.66 112.811C141.551 112.895 142.452 112.996 143.346 112.734C143.496 112.69 140.654 112.329 140.454 112.302C128.48 110.709 116.562 108.894 104.544 107.631C95.6953 106.701 86.8923 105.12 77.9415 106.219C76.65 106.378 68.7098 106.717 74.0849 107.557C90.915 110.187 108.014 111.135 124.913 113.233C136.172 114.63 147.687 116.847 159.109 116.34C159.443 116.325 166.158 115.886 165.505 114.038C164.802 112.049 158.981 112.137 157.655 111.931C148.098 110.447 138.301 109.581 128.62 109.52C123.137 109.485 117.648 110.234 112.199 111.409C108.507 112.206 112.078 112.115 113.823 112.298C123.465 113.311 133.034 114.129 142.754 114.185C147.998 114.215 153.564 114.226 158.753 112.508C158.76 112.505 161.294 111.867 160.24 111.28C156.459 109.17 151.252 108.946 147.199 108.191C139.189 106.699 131.115 105.654 123.003 104.981C120.763 104.795 118.55 104.795 116.297 104.918C116.163 104.925 113.404 105.117 113.673 105.36C114.849 106.419 117.119 106.496 118.478 106.788C122.183 107.584 125.914 108.236 129.656 108.783C137.251 109.892 144.907 111.416 152.603 111.528C153.999 111.548 156.741 112.183 158.093 111.182C158.34 110.999 157.657 110.736 157.39 110.647C155.679 110.075 153.977 109.663 152.293 108.957C145.738 106.209 139.343 104.366 132.415 103.637C129.73 103.355 137.653 105.052 140.297 105.62C146.428 106.934 152.605 108.461 158.823 109.182C160.336 109.357 163.368 109.66 163.368 109.66C163.368 109.66 159.459 108.455 157.503 107.864C149.554 105.464 141.744 103.666 133.518 102.83C122.323 101.692 111.423 102.899 100.215 105.099C92.9118 106.532 85.7827 107.641 78.4455 107.887C76.0752 107.967 68.9974 108.27 71.3495 107.731C72.8881 107.379 74.578 107.721 76.0898 107.87C80.0573 108.264 84.0204 108.704 87.9854 109.121C95.2703 109.886 102.555 110.652 109.84 111.418C131.366 113.68 65.8907 110.243 45.6152 101.668C42.283 100.258 38.9777 98.6545 35.5914 97.4349C34.3053 96.9717 30.333 96.1387 31.6771 96.28C36.4208 96.7786 41.1414 97.7362 45.8565 98.2318C50.2696 98.6956 37.0303 97.3041 32.6172 96.8403C31.9395 96.7691 24.4491 95.7234 28.0512 97.5141C36.3835 101.657 45.6286 102.166 54.2435 105.113C55.6549 105.596 57.0173 106.327 58.4947 106.483C58.6419 106.498 56.2923 106.251 55.7678 106.196C47.924 105.372 40.1324 104.091 32.3012 103.268C31.9718 103.233 27.911 98.8475 27.6658 101.181C27.2791 101.93 28.723 102.645 29.3958 102.778C31.7256 103.241 33.0549 104.268 35.3824 104.746C41.9072 106.084 48.4637 106.813 55.0706 107.507C60.0955 108.035 65.1317 108.404 70.0575 109.57C73.7491 110.443 77.0461 110.418 80.8273 110.317C87.2877 110.144 93.5929 111.725 100.024 111.668C103.203 111.64 106.315 111.97 109.468 112.302C115.014 112.885 98.3755 111.136 92.8295 110.553C89.9577 110.251 87.0859 109.949 84.2141 109.647C83.364 109.558 82.0458 109.296 83.7554 109.83C91.8924 112.37 100.73 113.229 109.118 114.111C115.813 114.815 121.859 115.116 128.484 112.711C129.736 112.256 132.67 112.422 132.919 110.049C133.089 108.437 131.921 107.408 131.042 106.621C128.363 104.224 125.184 101.831 122.034 100.521C118.457 99.0326 114.507 98.9862 110.749 98.5912C106.132 98.1059 101.514 97.6206 96.8969 97.1353C89.2203 96.3285 81.9128 93.3258 74.2742 92.4501C70.5264 92.0204 66.7378 91.4568 62.9607 91.3635C58.8005 91.2608 54.7332 92.6013 50.5887 92.9347C45.7739 93.3222 40.7195 91.9918 35.9666 93.2952C31.0657 94.6391 26.5063 97.5688 21.6526 99.2773C21.3751 99.375 23.423 94.3869 21.1726 97.3809C21.6994 97.4793 24.6773 100.138 25.1898 100.316C29.4763 101.803 29.9068 102.093 34.3732 102.563C36.7451 102.812 38.9838 103.219 41.3032 103.727C42.0063 103.881 42.5483 104.345 43.2483 104.419" stroke="#171717" stroke-width="2" stroke-linecap="round"/>
<path d="M83.7228 245.913C88.607 246.426 93.4912 246.939 98.3754 247.453C99.1633 247.535 99.9513 247.618 100.739 247.701C103.651 248.007 94.9145 247.097 92.0117 246.716C87.0839 246.069 81.3561 245.432 76.6319 243.71C76.5222 243.67 75.825 243.252 75.9665 243.267C78.5423 243.538 81.1226 243.781 83.6934 244.096C90.5691 244.939 97.6363 245.657 104.452 246.888C107.223 247.388 101.601 246.876 101.153 246.829C99.2985 246.634 97.4937 246.442 95.6293 246.486C93.763 246.53 95.2886 246.518 96.2761 246.622C107.13 247.763 118.218 248.332 129.094 247.088C131.58 246.803 134.068 246.472 136.549 246.143C136.833 246.105 138.105 245.991 137.029 246.091C131.207 246.632 125.323 246.255 119.509 245.708C115.97 245.374 111.413 244.848 107.95 246.018C107.842 246.055 106.557 246.372 107.05 246.517C109.268 247.166 112.074 246.605 114.32 246.535C118.856 246.393 123.532 245.825 128.058 246.301C130.216 246.528 123.731 245.926 121.562 245.855C117.532 245.725 113.644 246.001 109.634 246.127C107.424 246.197 105.076 246.936 102.878 246.705C101.06 246.514 98.4853 247.158 96.8031 247.898C96.2399 248.145 98.3988 248.37 98.4814 248.379C101.025 248.646 103.503 248.792 106.059 248.531C109.682 248.162 113.264 247.343 116.834 246.647C121.134 245.808 125.536 245.533 129.886 245.035C136.014 244.334 142.169 243.817 148.277 242.934C149.469 242.762 151.849 242.362 149.21 242.117C143.058 241.546 136.451 241.648 130.347 242.575C128.594 242.842 126.882 243.123 125.197 243.678C125.02 243.737 123.612 244.176 124.513 244.386C132.36 246.216 141.349 245.058 148.895 242.541C151.505 241.671 143.493 243.595 140.795 244.131C135.095 245.264 128.681 246.445 122.829 246.056C118.006 245.736 132.446 247.149 137.278 247.27C143.064 247.415 148.755 247.19 154.517 246.946C154.813 246.934 156.395 246.839 155.269 246.72C153.414 246.525 151.559 246.33 149.703 246.135C145.895 245.735 142.068 245.203 138.231 245.302C134.804 245.391 131.414 246.175 127.997 246.227C127.75 246.231 125.238 246.005 126.079 246.093C129.144 246.415 132.143 246.608 135.229 246.445C141.011 246.139 147.251 246.076 152.947 244.951C154.371 244.669 155.026 244.588 153.245 244.372C150.059 243.985 146.908 243.401 143.704 243.064C139.211 242.592 152.69 244.008 157.183 244.48C161.861 244.972 147.797 243.799 143.119 243.307C141.252 243.111 139.386 242.915 137.519 242.719C136.619 242.624 138.002 242.77 138.022 242.772C139.386 242.915 140.749 243.075 142.12 243.135C148.013 243.389 154.019 242.398 159.871 242.932C160.32 242.973 163.103 242.893 161.994 243.698C158.773 246.037 154.717 245.598 151.079 246.754C148.998 247.416 154.008 246.552 154.596 246.514C156.825 246.37 159.08 246.64 161.222 245.888C162.287 245.514 162.351 244.985 161.214 244.667C158.472 243.899 155.64 243.708 152.82 243.412C149.517 243.065 159.345 244.708 162.648 245.055C163.042 245.096 161.861 245.14 161.467 245.168C158.809 245.36 156.173 245.713 153.504 245.772C143.832 245.985 134.117 246.106 124.443 245.853C120.105 245.74 115.79 245.81 111.462 246.15C106.882 246.51 102.011 246.54 97.4674 247.222C95.6677 247.492 93.8778 246.959 92.1247 247.253C91.023 247.438 89.5734 247.443 88.4559 247.325C86.0453 247.072 84.4478 246.675 82.2881 245.694C81.2794 245.236 80.098 244.616 78.9896 244.5C77.3717 244.33 82.1917 245.161 83.7051 245.758C85.7664 246.571 82.4065 246.079 81.914 246.028C77.9912 245.615 77.3701 246.16 69.5562 243.813C67.2579 243.56 45.5268 233.327 43.4511 232.29" stroke="#171717" stroke-width="2" stroke-linecap="round"/>
<path d="M80.16 78.7923C80.2384 78.8121 80.019 78.7381 79.908 78.6239C79.4345 78.1369 78.9731 77.6222 78.5507 77.0905C77.5055 75.7749 77.5704 74.4699 77.8051 72.8872C77.9128 72.1611 78.4501 71.867 79.0812 71.5927C80.1689 71.12 81.2883 70.8781 82.468 70.785C83.0767 70.7369 83.7654 70.6401 84.3764 70.7206C84.749 70.7697 83.9386 71.8653 83.889 71.9372C82.4678 73.9983 80.9101 76.1557 80.3638 78.6529C80.3385 78.7689 80.2094 79.1478 80.4159 79.1929C80.7746 79.2714 80.9917 77.2327 81.0038 77.0645C81.1037 75.6787 80.9312 73.1564 79.3375 72.5752C79.2285 72.5354 79.5685 72.5985 79.6842 72.6069C80.4544 72.6628 81.2269 72.6703 81.9987 72.6846C83.46 72.7117 84.9012 72.8194 86.3537 72.972C87.1354 73.0542 85.5847 73.4085 85.4618 73.4459C83.7691 73.9621 82.0632 74.4259 80.3534 74.8816C79.4952 75.1104 78.6433 75.3654 77.7477 75.3694C77.1797 75.3719 77.1342 74.8004 77.0516 74.3407C76.7466 72.6439 76.468 70.8777 77.5251 69.3856C78.7094 67.7137 80.5298 65.908 82.6817 65.7363C83.2699 65.6894 84.6309 65.525 85.0179 66.1474C85.1724 66.3959 84.5454 66.4049 84.4496 66.4236C83.2982 66.6482 82.0528 67.0742 81.1329 67.8253C80.344 68.4693 80.079 69.4666 79.941 70.4342C79.771 71.625 79.6346 72.8312 80.5628 73.7447C80.9912 74.1663 81.6458 74.5819 82.2623 74.6329C83.1773 74.7085 83.5641 73.1593 83.797 72.5425C84.3237 71.1481 84.7793 69.6659 85.0114 68.1903C85.0196 68.1376 85.2008 67.2255 85.0068 67.3336C84.5265 67.6013 84.1958 68.2788 83.9875 68.7497C83.4326 70.0043 83.1069 71.3972 82.9281 72.7539C82.8467 73.3716 82.8111 73.9162 83.4732 74.183C84.0756 74.4257 84.7559 74.4265 85.3339 74.1231C86.2603 73.637 86.6846 72.8683 86.9322 71.8786C87.3783 70.095 87.6506 68.2843 87.8424 66.4585C87.8477 66.4082 88.0106 65.4071 87.9068 65.3962C87.7219 65.3767 87.6625 65.9665 87.6478 66.0596C87.5069 66.9579 87.9741 67.9372 88.3821 68.7054C88.6994 69.303 89.1337 70.3605 89.7646 70.7193C89.9749 70.8389 89.5177 69.978 89.5007 69.9441C88.9823 68.9096 88.6165 67.6179 87.8814 66.7181C87.353 66.0712 86.619 65.9326 85.8344 65.8501C85.7876 65.8452 84.9195 65.7294 85.0016 65.6727C85.7558 65.1524 86.8684 65.357 87.6279 65.7548C89.1925 66.5743 90.8415 67.7247 92.0163 69.0543C92.8133 69.9563 93.2486 71.0157 93.7011 72.1075C93.8128 72.3771 94.021 72.681 94.0839 72.9661C94.1099 73.0839 93.8454 72.9027 93.748 72.8315C93.3773 72.5604 93.053 72.2312 92.702 71.9363C91.9408 71.2965 91.0604 70.7056 90.1051 70.405C89.7606 70.2966 89.0977 70.0584 88.7298 70.2132C88.3507 70.3726 88.1117 70.9635 87.8939 71.2796C87.3751 72.0324 86.9092 72.8295 86.3759 73.5704C85.7403 74.4535 84.8832 75.4427 83.87 75.8993C83.6403 76.0028 82.548 76.3168 82.4156 75.9641" stroke="#171717" stroke-width="2" stroke-linecap="round"/>
<path d="M107.09 66.0253C107.64 66.0145 108.195 65.884 108.727 65.7572C111.084 65.1944 113.413 64.4577 115.708 63.6808C117.098 63.2101 118.471 62.6933 119.857 62.2124C120.316 62.0533 121.51 61.8809 121.869 61.5181C122.148 61.2353 121.071 61.5229 120.677 61.5791C119.167 61.7949 117.674 62.1327 116.239 62.6532C115.083 63.0723 113.884 63.5124 112.768 64.032C112.754 64.0382 111.814 64.5392 112.105 64.6225C112.779 64.816 114.01 64.3824 114.624 64.244C116.883 63.7358 119.08 62.9968 121.318 62.4083C122.258 62.1609 123.219 61.9519 124.141 61.6385C124.991 61.3495 122.81 61.2785 122.8 61.2774C120.106 60.9943 117.392 61.0138 114.706 60.7314C113.893 60.646 115.144 60.3745 115.263 60.3414C118.024 59.5774 120.766 58.7376 123.54 58.0203C125.42 57.5339 127.322 57.0938 129.229 56.7222C129.364 56.6959 131.134 56.3136 131.094 56.2919C130.38 55.9063 128.948 56.1342 128.22 56.176C126.068 56.2993 123.912 56.5986 121.799 57.0248C121.038 57.1783 118.331 57.6515 120.588 57.837C124.274 58.1399 127.961 58.1633 131.644 58.5504C131.864 58.5735 132.085 58.5967 132.305 58.6199C132.425 58.6325 132.307 58.6213 132.148 58.5864C130.831 58.2984 129.568 57.771 128.303 57.3189C127.214 56.93 126.131 56.5384 125.062 56.0981C124.886 56.0256 123.791 55.6778 124.705 55.7897C126.447 56.0027 128.184 56.6086 129.858 57.1015C133.123 58.0629 136.373 59.0999 139.572 60.264C140.843 60.7263 142.108 61.2267 143.329 61.81C143.782 62.0266 142.322 61.7731 141.827 61.686C136.869 60.813 131.794 59.9249 126.74 60.0241C125.933 60.04 125.09 60.082 124.301 60.2757C124.192 60.3027 126.886 60.6671 127.168 60.7039C132.524 61.4015 138.075 62.0664 143.239 63.7135C144.349 64.0675 144.384 64.1502 143.138 64.0245C140.109 63.7188 137.083 63.3881 134.055 63.0698C132.013 62.8552 129.971 62.615 127.926 62.4341C127.513 62.3976 125.951 62.082 125.546 62.4464C125.253 62.7101 126.3 62.6769 126.679 62.7855C128.225 63.2287 129.711 63.8092 131.195 64.4283C131.949 64.743 132.765 65.0183 133.467 65.4457C133.902 65.7107 134.091 65.9857 133.414 65.8634C130.569 65.3495 127.84 64.1476 125.178 63.051C124.853 62.9171 123.854 62.6182 124.205 62.644C125.368 62.7296 126.557 63.0129 127.696 63.248C128.954 63.5075 132.642 64.6334 131.417 64.2485C128.737 63.4065 125.971 62.8835 123.281 62.0898C123.231 62.0748 122.044 61.66 122.241 61.6758C123.723 61.7942 125.211 61.9753 126.684 62.1682C132.906 62.9831 139.114 64.2868 145.018 66.4397C145.553 66.635 147.085 67.0262 146.545 67.2097C146.384 67.2643 145.562 67.1739 145.55 67.1728C144.425 67.0664 143.299 66.9423 142.177 66.8098C139.742 66.5223 132.461 65.4924 134.899 65.7486C137.077 65.9776 139.216 66.4043 141.316 67.0325C141.549 67.1022 142.217 67.3805 141.977 67.339C141.101 67.1874 140.188 66.6153 139.402 66.2304C139.267 66.164 136.738 65.0278 137.941 65.1542C142.003 65.5812 153.829 68.7879 149.767 68.3609C148.74 68.2529 145.755 67.3733 146.754 67.6379C148.008 67.9702 149.141 67.9656 150.397 67.606C151.676 67.2398 152.725 66.7619 151.754 65.3195C151.567 65.0413 148.69 61.628 148.759 61.602C149.009 61.5084 149.54 61.7875 149.748 61.8583C150.71 62.1848 151.672 62.5134 152.645 62.8061C153.04 62.9248 153.542 63.1586 153.962 63.1561C154.323 63.154 153.343 62.0224 153.307 61.9785C153.175 61.8135 151.172 59.3176 151.333 59.2655C151.701 59.146 152.356 59.5801 152.647 59.7253C153.521 60.1611 154.385 60.623 155.279 61.0176C156.134 61.3951 157.096 62.066 156.797 60.6693C156.675 60.0984 155.568 57.9193 156.081 57.4115C156.527 56.9707 158.351 58.1418 158.787 58.3223C159.377 58.5663 160.367 59.1199 159.961 58.1071C159.325 56.5183 158.14 55.1228 157.308 53.63C156.716 52.5669 156.22 51.3956 155.303 50.5583C153.755 49.1431 152.122 48.6559 150.072 48.2309C146.703 47.5327 143.127 47.4164 139.708 47.057C136.007 46.668 131.977 46.1442 128.295 46.9239C125.372 47.5429 122.479 48.908 120.064 50.6634C117.162 52.7729 114.129 54.6702 111.067 56.5316C110.034 57.1602 109.713 58.0701 109.044 59.036C108.937 59.1891 108.193 60.0326 108.314 60.2628C108.335 60.3035 108.395 60.2182 108.431 60.1905C108.73 59.9652 109.063 59.7943 109.389 59.614C111.104 58.6674 112.848 57.7876 114.614 56.9382C123.045 52.8813 131.625 48.7976 141.205 49.8044C141.275 49.8118 143.061 50.0171 142.939 50.139C142.644 50.4327 141.412 50.1868 141.072 50.1798C139.219 50.1417 137.366 50.1559 135.52 50.3411C132.199 50.6742 128.979 51.6032 125.675 52.0403C125.401 52.0766 124.581 52.1877 124.857 52.1744C126.132 52.1133 127.411 51.8183 128.688 51.7222C131.965 51.4755 135.188 51.6097 138.448 51.9524C140.785 52.198 133.829 51.0887 131.512 50.6986C129.035 50.2816 126.559 49.9409 124.061 49.6785C123.434 49.6126 125.311 49.8568 125.922 50.0095C129.934 51.0117 133.737 52.7878 137.444 54.5808C140.111 55.8709 142.76 57.2203 145.271 58.7976C146.287 59.4358 147.958 60.2494 148.618 61.3333C149.116 62.1492 146.698 61.5961 145.754 61.447C142.923 60.9996 140.128 60.2979 137.389 59.4589C136.105 59.0656 134.822 58.6419 133.562 58.1764C133.336 58.093 132.491 57.7655 133.295 57.8183C136.932 58.0569 140.547 59.0885 143.924 60.4167C144.305 60.5667 144.959 60.8377 145.35 61.0236C145.518 61.1033 146.01 61.2742 145.827 61.3108C145.527 61.3711 145.244 61.1226 144.963 60.9999C143.433 60.3308 141.951 59.548 140.485 58.7517C137.952 57.3763 135.382 55.9716 133.02 54.3106C132.955 54.2644 131.156 52.9192 131.649 52.9391C132.755 52.9837 133.982 53.41 135.032 53.6925C137.733 54.4188 140.374 55.345 142.979 56.3561C144.066 56.7777 145.13 57.2377 146.187 57.7259C147.153 58.1714 146.09 57.2925 145.865 57.091C144.842 56.1758 143.773 55.3111 142.725 54.4249C142.062 53.8636 141.153 53.3389 140.591 52.6685C140.374 52.4099 141.277 52.6119 141.603 52.6988C143.517 53.208 145.34 53.9914 147.137 54.8124C148.289 55.3389 149.443 55.8629 150.593 56.3945C150.685 56.4368 151.863 57.1888 151.259 56.6676C149.707 55.3297 147.957 54.0408 146.676 52.4279C146.266 51.9112 146.982 52.2689 147.191 52.3635C149.085 53.2193 150.811 54.4402 152.521 55.6069C153.8 56.4791 155.041 57.4008 156.301 58.298C157.297 59.0063 155.589 57.1193 155.535 57.0494C154.763 56.0451 154.077 54.9849 153.338 53.9575C152.976 53.4547 151.613 52.3705 152.225 52.4693C152.639 52.5363 153.3 53.3384 153.598 53.5785C154.502 54.3076 155.434 55.0034 156.353 55.7133C156.643 55.9374 156.937 56.1576 157.202 56.412C157.587 56.7823 156.422 55.6813 156.04 55.308C154.979 54.2717 153.933 53.2233 152.853 52.2053C152.682 52.0439 151.841 51.4209 151.843 51.1087C151.844 50.9201 152.189 51.2663 152.339 51.381C153.043 51.92 153.742 52.4661 154.445 53.0074C154.866 53.3317 156.569 54.6102 155.198 53.4928C152.949 51.6585 150.634 49.8895 148.039 48.5674C146.842 47.9578 143.154 46.5219 144.489 46.6623C146.963 46.9224 149.443 48.3541 151.669 49.3807C152.22 49.6349 152.797 49.9092 153.285 50.2784C153.58 50.5023 152.55 50.151 152.203 50.0208C146.763 47.9804 141.191 47.0784 135.385 46.7889C131.094 46.5749 126.638 47.6585 122.618 49.0697C120.882 49.6792 119.119 50.5094 117.681 51.6741C117.375 51.922 116.109 52.855 116.06 53.3236C116.049 53.4278 118.573 53.0543 118.68 53.0403C123.878 52.3584 129.054 51.3905 134.271 50.87C137.093 50.5885 139.902 50.4292 142.725 50.7259C142.928 50.7473 142.317 50.7447 142.113 50.7463C140.027 50.7624 138.002 50.9321 135.954 51.3685C133.547 51.8815 131.204 52.6356 128.88 53.4353C127.505 53.9084 125.856 54.2782 124.591 55.0244C124.013 55.3651 125.918 55.2414 126.588 55.2681C131.208 55.4528 135.824 55.9094 140.412 56.4587C143.13 56.7841 145.867 57.136 148.507 57.885C148.548 57.8966 151.274 58.8247 151.142 58.9831C150.723 59.4885 147.296 58.3311 146.897 58.2237C144.369 57.5427 141.949 56.591 139.529 55.6041C138.918 55.3549 137.915 55.1272 137.392 54.6769C136.773 54.1445 139.026 54.7685 139.831 54.9078C143.823 55.5994 147.632 56.8327 151.39 58.3151C153.121 58.9978 151.675 58.3703 150.818 58.2804C149.96 58.1902 150.17 59.1935 150.288 59.7821C150.515 60.9147 150.635 61.9606 150.513 63.1153C150.465 63.5774 150.557 64.5707 150.252 64.9584C149.642 65.734 148.093 66.6347 147.137 66.8064C143.776 67.4106 140.492 66.9459 137.13 66.5925C134.894 66.3576 132.595 65.4901 130.397 64.9369C128.338 64.4187 126.221 63.7701 124.11 63.5481" stroke="#FFD424" stroke-width="2" stroke-linecap="round"/>
<path d="M168.64 112.66C168.009 118.663 122.877 118.84 93.1296 115.714C52.0574 111.397 19.2733 103.031 19.9043 97.0268C32.9293 87.405 54.3425 89.6556 95.4148 93.9725C136.487 98.2894 169.271 106.656 168.64 112.66Z" stroke="#171717" stroke-width="2" stroke-linecap="round"/>
<path d="M19.8516 97.1862L25.1591 124.28L52.2521 131.175C88.3648 140.366 125.695 143.84 162.883 141.471V141.471L168.534 112.813" stroke="#171717" stroke-width="2" stroke-linecap="round" stroke-linejoin="round"/>
<path d="M27.9336 125.68L34.3763 227.176L46.6336 233.146C76.8063 247.844 111.436 250.528 143.513 240.656V240.656L159.025 142.158" stroke="#171717" stroke-width="2" stroke-linecap="round" stroke-linejoin="round"/>
<path d="M94.5244 111.205L98.1502 76.7082M98.1502 76.7082V76.7082C98.7198 71.2889 100.747 66.0636 104.598 62.209C117.026 49.7709 137.903 36.7897 155.952 49.4992C160.502 52.7034 160.92 59.0121 158.129 63.8268V63.8268C154.777 69.6082 147.61 71.8564 141.215 69.9149C125.946 65.2787 105.522 63.0826 98.1502 76.7082Z" stroke="#171717" stroke-width="2" stroke-linecap="round" stroke-linejoin="round"/>
<path d="M95.1837 104.953L100.291 56.3613M100.291 56.3613V56.3613C100.86 50.9421 99.9643 45.4095 96.9983 40.8384C87.4278 26.0882 69.706 9.05002 49.4095 17.7293C44.2926 19.9174 42.5723 26.0015 44.3012 31.2912V31.2912C46.3772 37.643 52.921 41.3324 59.5792 40.7628C75.4791 39.4026 95.9132 41.5008 100.291 56.3613Z" stroke="#171717" stroke-width="2" stroke-linecap="round" stroke-linejoin="round"/>
<path d="M99.4818 70.0964C105.77 62.8809 122.117 48.9465 137.191 50.9331" stroke="#171717" stroke-width="2" stroke-linecap="round"/>
<path d="M99.6082 54.5248C96.8765 47.0316 86.2102 31.7999 65.3987 30.8191" stroke="#171717" stroke-width="2" stroke-linecap="round"/>
<path d="M79.7476 66.5147C93.4782 58.4382 97.6938 75.9423 97.4683 84.4654C96.4031 78.6554 92.8598 68.9986 87.208 76.8508C80.1433 86.6661 67.4213 73.7652 79.7476 66.5147Z" stroke="#171717" stroke-width="2" stroke-linecap="round"/>
<path d="M21.6372 99.8588C21.4215 101.911 20.9158 104.173 21.3559 106.188C21.895 108.655 22.523 111.257 23.5283 113.515C24.8476 116.478 25.4722 119.603 26.4604 122.677C27.6637 126.419 32.6779 126.774 35.6792 127.477C38.7944 128.206 41.8329 129.29 44.968 129.853C47.4063 130.291 49.987 130.399 52.3987 130.972C54.8012 131.544 57.2644 131.736 59.6688 132.268C61.2696 132.621 62.7231 133.152 64.3766 133.326C65.5265 133.447 66.3398 133.987 67.436 134.243C70.6836 135.003 73.8376 136.755 77.0086 137.841C80.1923 138.931 83.1424 139.934 86.4751 140.285C87.3656 140.378 88.1534 140.08 89.0765 140.284C93.5256 141.267 97.9867 141.784 102.516 142.26C106.294 142.657 110.022 143.339 113.804 143.736C116.967 144.069 119.922 142.83 123.003 142.096C128.662 140.747 133.891 141.791 139.477 142.378C142.261 142.671 144.972 142.376 147.749 142.668C150.369 142.944 152.989 143.219 155.608 143.494C157.33 143.675 159.094 142.881 160.738 142.166C161.566 141.806 162.337 141.717 162.873 140.781C163.71 139.321 163.629 136.566 163.802 134.922C164.591 127.417 167.878 120.484 168.665 112.994" stroke="#171717" stroke-width="2" stroke-linecap="round"/>
<path d="M27.25 126.834C25.3412 144.994 30.161 162.967 31.4245 180.962C31.6533 184.221 32.7714 187.46 32.749 190.705C32.7187 195.088 32.9555 200.146 33.5433 204.499C34.3483 210.46 35.1819 216.715 34.5417 222.806C34.2372 225.703 35.4207 225.87 37.4017 227.125C40.1269 228.851 42.7915 230.726 45.5034 232.468C48.4348 234.351 52.0037 235.13 55.2133 236.414C61.0641 238.755 66.9102 240.884 72.465 244.078C79.6598 248.215 88.6387 248.171 96.6058 249.008C104.593 249.848 112.214 243.638 120.125 244.211C125.267 244.584 132.618 242.959 137.712 242.232C139.073 242.038 142.267 241.707 143.068 240.431C144.004 238.94 142.998 241.098 143.189 239.278C143.457 236.729 145.121 234.302 145.397 231.68C145.7 228.795 146.476 225.878 146.789 222.902C147.375 217.33 147.96 211.757 148.546 206.185C149.049 201.404 149.181 196.165 150.569 191.653C151.998 187.008 154.418 181.598 154.934 176.687C156.118 165.421 157.817 153.73 159.02 142.279" stroke="#171717" stroke-width="2" stroke-linecap="round"/>
<path d="M93.7366 110.093C94.4162 103.627 94.7698 104.571 95.4328 98.2632C95.8575 94.2219 97.6261 90.3201 98.0564 86.2264C98.5343 81.68 99.0121 77.1336 99.49 72.5871C99.9459 68.249 102.744 64.2251 105.472 61.1496C109.062 57.102 113.036 53.5974 117.422 50.613C121.097 48.1132 125.294 47.3046 129.288 45.4303C130.95 44.6502 132.117 44.4964 133.895 44.6832C135.202 44.8206 138.622 45.1147 139.794 44.5645C141.37 43.8251 144.465 44.8092 146.115 44.9826C148.639 45.2479 151.161 45.472 153.366 46.8392C156.438 48.7436 159.337 51.222 160.572 54.8747C161.42 57.3794 162.538 63.1796 160.353 65.5772C158.343 67.7838 155.312 70.6468 152.213 70.741C150.712 70.7867 149.36 71.4262 147.632 71.2445C145.745 71.0462 143.841 70.3536 142.084 70.169C140.202 69.9711 138.601 68.3254 136.664 68.1218C134.182 67.8609 131.771 66.6225 129.327 66.3656C126.946 66.1154 124.566 65.8652 122.185 65.615C119.673 65.3509 117.903 66.3996 115.486 66.8809C113.563 67.2639 111.476 68.0642 109.632 68.728C107.662 69.437 104.838 69.5767 103.077 70.7752C102.516 71.1567 98.9988 73.2841 98.993 73.2463C98.611 70.7557 100.444 67.8205 100.706 65.3274" stroke="#171717" stroke-width="1.97428" stroke-linecap="round"/>
<path d="M100.704 65.3271C101.051 62.0264 102.451 57.2403 101.533 54.0868C101.165 52.8208 101.296 51.3994 100.848 50.0747C100.353 48.6107 99.5646 47.1564 99.1434 45.7093C98.2122 42.5097 96.0785 39.8061 95.0131 36.6565C93.8634 33.2579 90.0379 29.4521 87.4987 27.2479C81.606 22.1326 74.3495 19.2171 66.9153 18.4358C61.9278 17.9116 56.2461 16.3165 51.508 18.5402C50.3002 19.107 48.8379 19.5854 47.8928 20.6227C46.9571 21.6497 46.4641 23.2136 45.4706 24.2807C44.3026 25.5353 43.4983 30.9231 43.9995 32.7722C44.7982 35.7194 44.8953 38.7752 48.1583 39.6392C52.0641 40.6734 55.7029 41.3898 59.8033 41.8208C68.28 42.7117 76.7567 43.6026 85.2333 44.4936C88.9631 44.8856 93.3733 44.5235 96.5264 46.9118C98.3372 48.2833 102.177 51.317 101.882 54.1234" stroke="#171717" stroke-width="1.97428" stroke-linecap="round"/>
<path d="M98.9077 75.5664C99.2087 72.7023 101.67 69.8182 103.609 68.1085C105.717 66.2498 107.972 64.8786 110.315 63.4233C112.375 62.1443 114.017 60.1127 116.103 58.8603C122.173 55.2163 130.245 50.2031 137.192 50.9333" stroke="#171717" stroke-width="1.97428" stroke-linecap="round"/>
<path d="M65.4518 30.3216C71.7815 30.9869 78.7177 30.2803 84.2938 33.8062C87.1456 35.6095 89.0146 38.6062 91.5281 40.6133C93.7257 42.3682 95.1895 45.0236 97.423 46.7599C99.1687 48.1169 100.442 54.3639 100.892 56.6705" stroke="#171717" stroke-width="1.97428" stroke-linecap="round"/>
</g>
<defs>
<filter id="filter0_dd_3008_23713" x="0.84375" y="0.340271" width="186.82" height="273.342" filterUnits="userSpaceOnUse" color-interpolation-filters="sRGB">
<feFlood flood-opacity="0" result="BackgroundImageFix"/>
<feColorMatrix in="SourceAlpha" type="matrix" values="0 0 0 0 0 0 0 0 0 0 0 0 0 0 0 0 0 0 127 0" result="hardAlpha"/>
<feOffset dy="2"/>
<feGaussianBlur stdDeviation="1"/>
<feComposite in2="hardAlpha" operator="out"/>
<feColorMatrix type="matrix" values="0 0 0 0 0 0 0 0 0 0 0 0 0 0 0 0 0 0 0.02 0"/>
<feBlend mode="normal" in2="BackgroundImageFix" result="effect1_dropShadow_3008_23713"/>
<feColorMatrix in="SourceAlpha" type="matrix" values="0 0 0 0 0 0 0 0 0 0 0 0 0 0 0 0 0 0 127 0" result="hardAlpha"/>
<feOffset dy="4"/>
<feGaussianBlur stdDeviation="4"/>
<feComposite in2="hardAlpha" operator="out"/>
<feColorMatrix type="matrix" values="0 0 0 0 0 0 0 0 0 0 0 0 0 0 0 0 0 0 0.06 0"/>
<feBlend mode="normal" in2="effect1_dropShadow_3008_23713" result="effect2_dropShadow_3008_23713"/>
<feBlend mode="normal" in="SourceGraphic" in2="effect2_dropShadow_3008_23713" result="shape"/>
</filter>
</defs>
</svg>
