<svg width="189" height="255" viewBox="0 0 189 255" fill="none" xmlns="http://www.w3.org/2000/svg">
<g filter="url(#filter0_dd_3008_23710)">
<path d="M168.985 232.494L168.983 232.494C150.63 236.663 132.392 238.365 114.786 237.516M168.985 232.494L163.976 122.057C164.43 122.009 164.795 121.663 164.867 121.217L169.803 122.013M168.985 232.494C169.105 232.466 169.225 232.434 169.342 232.398M168.985 232.494L169.342 232.398M114.786 237.516C113.489 237.456 112.242 237.379 111.048 237.296C103.629 236.777 90.8482 234.268 78.7396 231.345C66.6621 228.43 54.5127 224.924 48.4512 222.233L48.4474 222.231L36.0035 216.693C33.9432 215.785 32.6723 213.856 32.4668 211.807L32.466 211.799L22.8147 113.992C21.3326 113.203 20.1833 111.8 19.7802 110.036L13.7844 84.2731C13.6244 83.7927 13.5297 83.3397 13.4757 82.9278C13.3258 82.1348 13.3589 81.4126 13.4669 80.8056L13.4688 80.7777L13.6231 78.5713L15.3595 77.2012L15.6969 76.9351C15.6989 76.9334 15.7009 76.9318 15.703 76.9302C23.2697 70.9227 32.8354 68.5937 45.0541 67.97C55.9616 67.4132 69.6355 68.199 86.8542 69.3819C86.4253 64.8604 86.3117 59.7724 86.7676 54.3948C86.271 54.4898 85.6499 54.6491 84.7865 54.8895C84.7342 54.9041 84.6807 54.9191 84.6259 54.9344C83.4695 55.2584 81.7661 55.7356 80.0162 55.8624C78.0492 56.005 75.6535 55.745 73.3723 54.2382C69.7047 51.8311 68.4955 47.6001 69.6104 43.6835C70.1522 41.7791 71.2571 39.9128 72.7692 38.4588C74.2944 36.9923 76.5267 35.6836 79.3026 35.5959C83.6538 35.4533 87.1848 36.4455 89.9848 38.0698C91.0661 34.7035 92.3925 31.4606 93.951 28.3763C97.3952 21.5593 101.062 17.421 104.662 15.0525C108.345 12.6292 111.663 12.256 113.912 12.4694L113.917 12.4699C118.898 12.9473 122.55 16.4352 123.842 21.0233L123.843 21.025C125.609 27.3034 122.939 35.729 114.279 42.2425L114.172 42.3231L114.061 42.3979L113.966 42.4614L113.824 42.5568L113.676 42.6423C110.933 44.2228 107.964 44.922 105.817 45.4275C105.762 45.4404 105.708 45.4531 105.655 45.4657C103.434 45.9935 102.177 46.3222 101.208 46.8372C100.594 47.1635 100.119 47.554 99.7129 48.3254C98.129 56.3317 98.247 64.0433 99.0144 70.2431C117.716 71.6864 135.201 74.0435 148.597 76.967L148.598 76.9672C159.942 79.4455 166.251 81.8342 169.786 84.1558C171.614 85.3569 173.041 86.7586 173.874 88.479C174.766 90.3216 174.655 91.9031 174.615 92.4751L174.615 92.4872L174.612 92.5206C174.594 92.7846 174.548 93.4738 174.269 94.3254L169.804 122.006C169.804 122.009 169.803 122.011 169.803 122.013M114.786 237.516C114.788 237.516 114.79 237.516 114.792 237.516L115.021 232.521L114.78 237.515C114.782 237.516 114.784 237.516 114.786 237.516ZM169.803 122.013C169.423 124.37 167.702 126.223 165.486 126.841M169.803 122.013L165.486 126.841M165.486 126.841L154.803 214.475L168.738 216.99L168.891 217.018L169.041 217.055C172.574 217.921 175.229 220.998 175.184 224.858L165.486 126.841ZM169.342 232.398C172.763 231.47 175.142 228.443 175.184 224.86L169.342 232.398Z" fill="white" stroke="white" stroke-width="10"/>
<path d="M21.635 81.2021C24.2153 81.3825 26.7855 81.1021 29.3574 81.282C29.7496 81.3094 30.4385 81.2041 29.6278 81.4031C26.8775 82.078 29.1464 79.8413 26.5672 81.2239C25.4463 81.8247 24.5203 82.6822 23.4502 83.3575C21.3645 84.6737 22.9274 85.9057 25.0868 84.8175C30.2388 82.2212 35.4804 79.928 40.5967 77.2113C42.0639 76.4323 43.5758 75.4985 45.1298 75.0489C48.0905 74.1923 39.1818 76.5872 36.2331 77.5197C34.5578 78.0494 28.7285 80.3554 33.8714 79.9617C39.6662 79.5181 45.0481 77.549 50.6819 75.9739C53.9505 75.0601 44.2609 78.5876 41.2429 80.5027C38.9844 81.936 35.0075 84.7634 40.1226 82.8527C43.6053 81.5517 47.072 80.2374 50.5838 79.0855C52.323 78.515 55.5885 78.3669 57.1205 77.0376C61.5917 73.1581 46.8389 81.1867 42.0157 84.2631C40.5374 85.206 39.1651 86.2583 37.7736 87.3916C36.6747 88.2866 40.691 87.2635 40.7517 87.242C49.9261 84.0041 59.7193 81.4547 68.3953 76.4971C68.787 76.2733 70.449 75.4887 69.1078 75.4223C64.9783 75.2179 59.2908 73.778 55.3677 75.3303C48.3851 78.0931 41.2909 81.6753 34.9656 86.5307C30.2572 90.145 45.6983 84.1612 50.9561 82.3066C55.9522 80.5444 60.938 78.6725 65.9039 76.7572C67.4362 76.1662 68.9892 75.3208 70.5688 74.9874C71.6713 74.7547 68.3558 75.4069 67.2687 75.7535C62.9303 77.1368 58.73 79.9143 54.6948 82.3891C52.5431 83.7088 50.4752 85.1863 48.3817 86.6509C47.2104 87.4703 47.5439 87.6611 48.7484 87.6734C56.8282 87.7558 65.4656 83.2819 72.8175 79.0043C72.9727 78.914 75.5842 77.697 75.5293 77.2513C75.4473 76.5857 69.0207 79.5494 68.7047 79.7136C65.4154 81.4229 62.1843 83.4509 59.0508 85.6077C58.5979 85.9194 54.8143 88.9217 54.9133 88.948C57.8939 89.7409 62.5706 86.6468 65.3171 85.4324C70.308 83.2256 75.2349 80.6567 80.3325 78.9164C81.6321 78.4727 85.5284 77.2069 84.272 77.8371C80.1514 79.904 76.0884 82.1756 71.9718 84.2619C67.5642 86.4956 63.1284 88.5986 58.7565 90.9549C58.1841 91.2634 53.8665 92.7482 53.6799 93.7695C53.5743 94.3474 60.2299 92.9081 60.5582 92.819C67.4271 90.9555 74.0236 87.9827 80.5846 84.7108C83.7255 83.1444 86.6221 81.2565 89.6426 79.3629C90.2182 79.002 92.4738 77.7207 90.3531 78.0323C82.3425 79.2093 74.8137 84.6287 67.5111 88.8065C67.2337 88.9652 65.228 89.7715 66.5211 89.8619C71.4694 90.208 76.3374 88.3532 81.1198 86.7419C86.682 84.8679 92.1331 82.7968 97.5785 80.3779C99.2319 79.6435 100.894 78.9472 102.549 78.2206C102.999 78.023 104.471 77.7336 104.848 77.2566C106.331 75.377 100.834 78.5646 98.8785 79.4464C93.3122 81.9562 87.6097 84.3775 82.2213 87.5091C81.4986 87.9291 72.7919 93.4511 72.9804 93.7643C73.3571 94.3902 76.6252 93.0191 76.8624 92.9367C80.465 91.6849 84.003 90.0457 87.532 88.4684C92.6355 86.1873 97.7403 83.9762 102.92 82.0295C103.306 81.8846 107.756 80.6699 107.805 79.9684C107.836 79.5293 102.666 81.3642 102.484 81.4367C98.3497 83.0818 94.1707 84.4496 90.0452 86.1391C88.594 86.7334 87.1605 87.1916 85.755 87.9607C83.8687 88.9929 89.8228 87.8355 91.83 87.3886C100.693 85.4155 109.422 81.9056 118.235 79.4963C124.21 77.8627 106.744 85.0314 100.94 87.5655C96.7699 89.3863 92.5406 91.0366 88.4407 93.1329C87.2981 93.7171 83.9286 95.401 85.1436 95.2795C88.4979 94.9441 91.8423 93.409 95.0758 92.2421C103.027 89.3727 110.918 86.2647 118.817 83.1411C121.763 81.9761 125.535 83.8382 128.449 82.5366C130.809 81.483 126.343 80.9813 125.554 81.2095C116.063 83.9554 107.085 87.5472 98.0903 92.4273C97.7899 92.5903 94.2682 94.1919 94.3305 94.925C94.426 96.0486 101.96 93.1377 102.271 93.0264C110.557 90.0591 118.876 87.2861 127.258 84.9071C127.865 84.7348 128.986 84.4897 127.646 84.4742C123.563 84.4271 119.17 86.247 115.329 88.0094C111.506 89.7641 107.777 91.9627 104.202 94.465C103.832 94.7243 100.106 96.7471 100.228 97.7401C100.355 98.7699 107.55 95.3235 107.815 95.2034C116.109 91.4512 124.303 87.3565 132.637 83.7496C136.539 82.0607 142.569 85.8594 146.566 84.6216C149.588 83.686 140.442 84.3466 140.581 82.3625C132.046 86.5782 123.886 89.6112 115.311 93.6826C115.175 93.7472 112.658 94.7711 113.826 94.9846C116.707 95.5117 119.991 93.6448 122.715 92.6156C129.296 90.1294 135.882 87.6493 142.458 85.1521C143.696 84.6819 139.94 85.8779 138.707 86.3724C134.262 88.1556 129.914 90.5447 125.591 92.7912C123.339 93.9614 121.053 95.0429 118.881 96.4628C116.963 97.7167 121.506 97.1316 121.744 97.0976C131.775 95.6632 141.909 89.848 151.519 85.7346C151.74 85.64 154.4 84.4581 152.731 85.2059C148.147 87.2597 143.628 89.3676 138.971 91.1451C135.482 92.4771 132.043 93.8357 128.629 95.483C128.406 95.5908 125.235 97.045 125.82 97.2037C128.013 97.7982 130.864 97.0158 133.021 96.4803C138.144 95.2083 143.226 92.9186 148.257 91.0788C150.46 90.2734 152.607 89.3452 154.777 88.4163C156.327 87.7531 153.417 89.0161 153.257 89.0768C149.085 90.6615 143.122 92.2122 139.635 95.8948C138.869 96.7031 141.392 96.3965 141.552 96.3867C145.439 96.1479 149.209 94.3461 152.989 93.1989C154.557 92.7231 157.009 92.5886 158.427 91.4832C159.976 90.276 154.856 92.0622 153.124 92.6971C151.363 93.3423 149.956 94.4133 148.348 95.4816C147.629 95.9589 146.713 96.4329 148.302 96.4241C150.667 96.411 153.216 94.9861 155.505 94.2439C157.831 93.4898 160.152 92.6764 162.434 91.7123C163.502 91.2612 158.526 93.4804 158.446 94.6285C158.401 95.2727 165.355 91.8418 166.127 91.306" stroke="#171717" stroke-width="2" stroke-linecap="round"/>
<path d="M29.6128 79.9203C27.3354 79.7611 34.1452 80.5141 36.392 80.9567C45.0608 82.6643 53.7261 83.4469 62.506 84.0608C64.8514 84.2248 67.1968 84.3888 69.5423 84.5528C73.3487 84.819 61.8891 84.9188 58.0814 84.6716C52.0241 84.2784 45.602 84.4849 39.6873 82.823C37.5544 82.2237 31.2821 80.0882 33.4743 80.2415C34.6434 80.3232 36.3559 81.5141 37.3551 81.9954C42.27 84.3625 47.2019 86.6188 52.2292 88.6077C64.5055 93.4646 77.1588 93.1864 89.9539 95.4325C93.2199 96.0058 96.4564 96.8074 99.7605 97.0384C101.621 97.1685 96.1679 95.8671 95.9054 95.772C81.0222 90.3792 65.8089 87.0314 50.176 85.4991C49.9169 85.4737 46.9722 84.7529 48.1467 84.8971C49.8786 85.1097 51.5559 85.7384 53.2289 86.2749C58.8191 88.0676 64.4561 89.5876 70.1641 90.7565C79.5287 92.6743 89.0315 93.7373 98.5308 94.4015C100.567 94.544 102.614 94.7732 104.657 94.8044C104.672 94.8046 107.295 94.5419 106.741 94.0555C105.411 92.8868 102.921 92.6522 101.413 92.2004C96.8532 90.8341 92.2589 89.6578 87.6446 88.5793C77.4345 86.1928 67.3381 84.8588 56.944 84.132C54.7949 83.9817 51.6565 84.4809 49.682 83.1641C49.4211 82.9901 50.1473 82.5868 50.4436 82.5272C54.9956 81.6113 59.9204 82.2158 64.4575 82.3569C80.6871 82.8616 96.2178 85.7043 112.102 89.1648C118.463 90.5506 125.523 92.284 132.072 92.1205C133.047 92.0961 132.316 91.6124 131.862 91.4157C129.654 90.4582 127.319 89.8161 125.053 89.0991C114.918 85.8912 104.32 83.4154 93.8658 82.2151C88.1294 81.5565 82.3466 81.3073 76.5893 80.9048C74.9708 80.7916 70.522 80.4805 75.0829 80.7994C87.0673 81.6374 98.831 84.1895 110.71 86.0002C120.808 87.5393 130.966 88.4873 141.147 89.0998C143.107 89.2177 145.592 89.0616 142.154 87.79C129.488 83.1048 116.075 81.2906 102.933 79.5774C90.7773 77.9927 78.5249 77.2789 66.3008 76.5045C63.5376 76.3295 60.7246 77.0348 58.0112 76.8451C57.3777 76.8008 59.2562 77.1267 59.8711 77.3074C63.9863 78.5171 68.0319 80.0575 72.1393 81.3093C88.4891 86.292 105.215 90.5612 122.108 91.9094C128.285 92.4023 134.474 92.8428 140.66 93.2067C141.553 93.2592 142.458 93.3289 143.341 93.0363C143.49 92.9869 140.637 92.725 140.436 92.7053C128.414 91.5306 116.44 90.1327 104.385 89.2898C95.5094 88.6691 86.6565 87.3968 77.7496 88.8075C76.4644 89.0111 68.5408 89.6276 73.942 90.2794C90.8536 92.3203 107.975 92.6713 124.937 94.1776C136.238 95.1812 147.823 96.9945 159.221 96.0893C159.554 96.0629 166.249 95.3896 165.532 93.5656C164.76 91.6022 158.947 91.8934 157.614 91.7338C148.011 90.5844 138.19 90.0611 128.512 90.3379C123.032 90.4946 117.572 91.4339 112.167 92.799C108.505 93.7237 112.071 93.508 113.822 93.6304C123.493 94.3067 133.085 94.79 142.8 94.5065C148.042 94.3536 153.605 94.17 158.731 92.2721C158.738 92.2694 161.248 91.5433 160.175 90.9927C156.322 89.0161 151.111 88.9745 147.034 88.3613C138.976 87.1492 130.871 86.3875 122.741 85.9979C120.495 85.8903 118.284 85.967 116.036 86.1681C115.903 86.1801 113.152 86.4683 113.43 86.7016C114.642 87.7193 116.913 87.7165 118.281 87.961C122.012 88.6277 125.763 89.1492 129.522 89.565C137.151 90.4087 144.855 91.6639 152.55 91.5076C153.947 91.4792 156.709 92.0179 158.025 90.9702C158.266 90.7788 157.574 90.5394 157.304 90.4597C155.575 89.9481 153.859 89.596 152.152 88.9492C145.505 86.4311 139.049 84.8123 132.099 84.3263C129.407 84.138 137.384 85.5577 140.047 86.0323C146.219 87.1322 152.446 88.4425 158.685 88.9459C160.203 89.0684 163.244 89.2647 163.244 89.2647C163.244 89.2647 159.296 88.1968 157.32 87.6747C149.292 85.5537 141.424 84.0298 133.174 83.4813C121.946 82.7347 111.095 84.3213 99.9708 86.9107C92.7216 88.598 85.6356 89.955 78.3114 90.4571C75.9454 90.6194 68.8825 91.1689 71.2144 90.5488C72.7397 90.1431 74.4405 90.4256 75.9566 90.5225C79.9354 90.777 83.9114 91.0788 87.8886 91.3569C95.1958 91.8679 102.503 92.3788 109.81 92.8898C131.402 94.3997 65.8465 93.2493 45.2841 85.3871C41.9047 84.0949 38.5454 82.6073 35.1187 81.5067C33.8172 81.0887 29.8182 80.3948 31.1665 80.4891C35.9246 80.8218 40.6758 81.6141 45.4053 81.9448C49.8319 82.2544 36.5521 81.3257 32.1255 81.0162C31.4457 80.9687 23.9235 80.185 27.5858 81.849C36.0576 85.6981 45.3148 85.8848 54.0273 88.529C55.4547 88.9622 56.8419 89.646 58.3238 89.7496C58.4714 89.7599 56.1146 89.5951 55.5886 89.5583C47.7208 89.0082 39.8892 88.0004 32.034 87.4512C31.7036 87.4281 27.4923 83.1864 27.3286 85.5266C26.9683 86.2894 28.4363 86.9529 29.1134 87.063C31.4578 87.4443 32.8222 88.4245 35.1649 88.8203C41.7324 89.93 48.3104 90.4297 54.9375 90.8931C59.9777 91.2456 65.0238 91.4382 69.9873 92.4311C73.7071 93.1753 77.0012 93.0355 80.7765 92.8022C87.227 92.4035 93.5835 93.7639 100.009 93.4825C103.185 93.3434 106.307 93.565 109.469 93.7861C115.032 94.1751 98.3427 93.0081 92.7797 92.6191C89.8991 92.4177 87.0185 92.2162 84.1379 92.0148C83.2853 91.9552 81.9587 91.7395 83.6859 92.2132C91.9066 94.4681 100.769 95.0182 109.182 95.6064C115.898 96.0761 121.951 96.1665 128.488 93.5313C129.723 93.0333 132.661 93.0962 132.828 90.7163C132.941 89.099 131.738 88.1115 130.832 87.3561C128.071 85.0538 124.81 82.7737 121.616 81.5739C117.989 80.2115 114.04 80.3029 110.271 80.0393C105.639 79.7154 101.008 79.3916 96.3764 79.0677C88.6763 78.5293 81.2684 75.7835 73.604 75.1748C69.8435 74.8762 66.0374 74.4452 62.2594 74.4838C58.0981 74.5264 54.0801 76.0079 49.9498 76.4858C45.1514 77.0411 40.0537 75.8879 35.3491 77.3564C30.4981 78.8705 26.0437 81.9576 21.2526 83.8344C20.9787 83.9417 22.8513 78.8852 20.7068 81.9559C21.2367 82.0359 24.3056 84.5889 24.8239 84.7487C29.1597 86.0854 29.6001 86.3608 34.0801 86.674C36.4593 86.8404 38.7108 87.1684 41.0466 87.5957C41.7546 87.7253 42.3125 88.1699 43.0147 88.219" stroke="#171717" stroke-width="2" stroke-linecap="round"/>
<path d="M88.3995 228.214C93.2987 228.557 98.1978 228.899 103.097 229.242C103.887 229.297 104.678 229.352 105.468 229.408C108.389 229.612 99.6257 229.007 96.7114 228.728C91.764 228.253 86.0175 227.817 81.236 226.26C81.125 226.224 80.4137 225.831 80.5556 225.841C83.1393 226.021 85.7265 226.174 88.3067 226.4C95.2076 227.002 102.296 227.473 109.15 228.465C111.937 228.869 106.3 228.553 105.851 228.522C103.991 228.392 102.18 228.263 100.319 228.372C98.4552 228.481 99.9795 228.416 100.97 228.485C111.857 229.246 122.959 229.429 133.784 227.805C136.259 227.434 138.734 227.017 141.202 226.6C141.484 226.553 142.751 226.395 141.68 226.532C135.88 227.276 129.986 227.105 124.157 226.76C120.608 226.551 116.036 226.183 112.616 227.474C112.509 227.514 111.236 227.877 111.734 228.004C113.973 228.575 116.758 227.917 119 227.769C123.528 227.468 128.181 226.738 132.721 227.055C134.886 227.206 128.384 226.831 126.213 226.837C122.182 226.847 118.306 227.259 114.302 227.525C112.096 227.671 109.775 228.492 107.571 228.338C105.748 228.211 103.197 228.943 101.541 229.741C100.987 230.009 103.152 230.158 103.235 230.164C105.787 230.343 108.268 230.402 110.814 230.052C114.421 229.556 117.973 228.613 121.516 227.792C125.784 226.804 130.174 226.376 134.504 225.726C140.604 224.812 146.737 224.08 152.81 222.985C153.996 222.771 156.36 222.288 153.715 222.135C147.547 221.78 140.947 222.112 134.879 223.252C133.136 223.579 131.435 223.92 129.771 224.534C129.595 224.598 128.204 225.086 129.111 225.265C137.017 226.82 145.961 225.349 153.414 222.571C155.992 221.61 148.053 223.812 145.375 224.442C139.718 225.773 133.349 227.177 127.487 226.993C122.655 226.842 137.136 227.749 141.97 227.702C147.757 227.645 153.437 227.222 159.186 226.776C159.482 226.754 161.06 226.603 159.931 226.524C158.07 226.394 156.209 226.264 154.348 226.134C150.528 225.867 146.685 225.469 142.853 225.702C139.432 225.91 136.071 226.812 132.658 226.983C132.411 226.995 129.892 226.857 130.736 226.916C133.811 227.131 136.814 227.219 139.893 226.948C145.66 226.441 151.895 226.16 157.548 224.837C158.961 224.506 159.613 224.402 157.825 224.248C154.628 223.972 151.459 223.499 148.245 223.274C143.738 222.959 157.258 223.904 161.765 224.219C166.458 224.547 152.361 223.866 147.668 223.538C145.796 223.407 143.924 223.276 142.052 223.145C141.148 223.082 142.536 223.179 142.556 223.18C143.924 223.276 145.292 223.389 146.664 223.4C152.562 223.448 158.53 222.249 164.397 222.578C164.848 222.604 167.626 222.426 166.546 223.269C163.408 225.719 159.34 225.422 155.744 226.705C153.688 227.438 158.664 226.4 159.251 226.342C161.473 226.12 163.736 226.311 165.85 225.485C166.902 225.074 166.947 224.543 165.8 224.265C163.033 223.593 160.196 223.501 157.368 223.303C154.054 223.072 163.934 224.371 167.247 224.603C167.642 224.63 166.463 224.715 166.07 224.757C163.421 225.041 160.799 225.486 158.134 225.638C148.475 226.189 138.77 226.649 129.093 226.734C124.754 226.772 120.444 226.993 116.13 227.483C111.566 228.003 106.699 228.203 102.181 229.043C100.392 229.375 98.5848 228.906 96.8431 229.261C95.7485 229.484 94.3 229.539 93.1791 229.461C90.7611 229.292 89.1507 228.951 86.958 228.046C85.934 227.623 84.7317 227.045 83.62 226.967C81.9971 226.854 86.8432 227.517 88.3765 228.06C90.4649 228.801 87.0899 228.427 86.5958 228.392C82.661 228.117 82.0594 228.683 74.1683 226.611C71.8626 226.437 49.7876 216.969 47.6769 216.005" stroke="#171717" stroke-width="2" stroke-linecap="round"/>
<path d="M100.183 38.7795C103.099 38.9834 106.427 38.734 108.987 37.15C111.476 35.6093 111.98 31.5726 112.747 29.0144C113.209 27.4712 114.294 25.2738 113.925 23.6087C113.576 22.0371 110.47 21.6316 109.205 22.1353C106.425 23.2421 104.012 27.0769 102.969 29.7131C101.821 32.6123 101.053 35.6596 99.9177 38.5635C99.6454 39.2601 100.831 37.8476 101.009 37.6731C103.582 35.156 106.646 33.2693 109.132 30.6118C110.503 29.1461 112.076 27.4081 112.165 25.2942C112.205 24.3307 110.269 24.2299 109.652 24.3701C108.942 24.5312 108.408 25.1903 107.997 25.7407C106.613 27.5949 105.629 29.7702 104.508 31.7852C103.005 34.4855 100.873 37.7906 100.97 41.0485C101.004 42.1701 104.381 39.1481 104.577 38.9724C106.813 36.9648 108.9 34.3089 109.582 31.3189C110.03 29.3519 109.351 27.2517 106.945 27.6941C103.545 28.3194 101.984 33.4676 100.927 36.1706C100.782 36.5415 99.989 38.5168 100.028 38.4776C101.35 37.1369 103.919 36.5082 105.555 35.6835C108.252 34.3244 110.962 32.6819 113.186 30.6146C114.022 29.8368 114.806 28.7196 114.989 27.5602C115.267 25.7996 115.523 24.1221 113.553 23.5827C110.208 22.6671 106.892 24.6085 105.805 27.947" stroke="#FFD424" stroke-width="2" stroke-linecap="round"/>
<path d="M168.624 92.0787C168.202 98.1008 123.104 99.8529 93.2657 97.7664C52.0678 94.8856 19.0117 87.6683 19.4328 81.6463C32.1141 71.5758 53.5928 73.0777 94.7907 75.9585C135.989 78.8394 169.045 86.0566 168.624 92.0787Z" stroke="#171717" stroke-width="2" stroke-linecap="round"/>
<path d="M19.3828 81.8074L25.6326 108.699L52.9498 114.645C89.3612 122.57 126.79 124.739 163.873 121.074V121.074L168.521 92.2362" stroke="#171717" stroke-width="2" stroke-linecap="round" stroke-linejoin="round"/>
<path d="M28.457 110.002L38.438 211.211L50.8961 216.75C81.5634 230.385 116.266 231.859 147.979 220.874V220.874L160.044 121.895" stroke="#171717" stroke-width="2" stroke-linecap="round" stroke-linejoin="round"/>
<path d="M95.672 82.995C93.3454 76.3828 90.7294 61.9115 93.9678 46.4577M93.9678 46.4577C95.0356 41.3619 96.74 36.1592 99.3011 31.0964C112.212 5.57528 128.122 24.3249 110.678 37.4549C105.076 40.698 97.0986 39.0011 93.9678 46.4577Z" stroke="#171717" stroke-width="2"/>
<path d="M108.187 28.739C105.13 30.7975 98.1938 36.6748 94.9049 43.7158" stroke="#171717" stroke-width="2" stroke-linecap="round"/>
<path d="M92.9294 52.8904C92.9187 52.7536 92.9049 52.6127 92.8881 52.4683M92.8881 52.4683C92.3914 48.1992 89.0007 41.3046 79.4926 41.6004C76.2633 41.7008 73.3622 47.0657 76.675 49.2397C81.2581 52.2474 89.0678 43.5135 92.8881 52.4683Z" stroke="#171717" stroke-width="2"/>
<path d="M21.2644 84.4164C21.1205 86.4748 20.694 88.7531 21.2041 90.7512C21.829 93.1987 22.5475 95.7769 23.631 97.9982C25.0528 100.913 25.7862 104.015 26.881 107.052C28.2141 110.75 33.2377 110.93 36.2617 111.527C39.4005 112.147 42.4749 113.125 45.6277 113.578C48.0799 113.931 50.6627 113.949 53.093 114.438C55.514 114.925 57.9824 115.031 60.4039 115.478C62.0161 115.776 63.4872 116.256 65.1457 116.372C66.2992 116.452 67.1308 116.963 68.2353 117.181C71.5074 117.828 74.7206 119.469 77.9277 120.443C81.1475 121.421 84.1307 122.321 87.4737 122.555C88.3668 122.617 89.1438 122.292 90.0735 122.464C94.5542 123.291 99.0306 123.652 103.573 123.969C107.363 124.234 111.113 124.786 114.906 125.051C118.079 125.273 120.989 123.931 124.043 123.09C129.651 121.544 134.913 122.406 140.517 122.798C143.309 122.993 146.008 122.604 148.793 122.799C151.421 122.982 154.049 123.166 156.677 123.35C158.404 123.471 160.139 122.616 161.757 121.843C162.572 121.454 163.339 121.338 163.843 120.384C164.628 118.897 164.451 116.146 164.566 114.497C165.093 106.968 168.136 99.9257 168.661 92.4125" stroke="#171717" stroke-width="2" stroke-linecap="round"/>
<path d="M27.8125 111.179C26.5387 129.395 31.9828 147.189 33.8735 165.129C34.2159 168.378 35.4464 171.576 35.5372 174.819C35.6599 179.201 36.0731 184.248 36.8124 188.577C37.825 194.507 38.8763 200.729 38.4491 206.838C38.2459 209.745 39.4346 209.87 41.4581 211.055C44.2419 212.685 46.9704 214.466 49.7414 216.112C52.7367 217.892 56.3306 218.545 59.583 219.717C65.512 221.852 71.4288 223.776 77.0917 226.774C84.4265 230.657 93.3984 230.3 101.39 230.859C109.401 231.419 116.802 224.947 124.728 225.244C129.88 225.437 137.169 223.557 142.234 222.652C143.588 222.41 146.768 221.968 147.524 220.665C148.408 219.143 147.478 221.335 147.605 219.509C147.784 216.952 149.362 214.469 149.546 211.838C149.749 208.944 150.423 206.002 150.631 203.017C151.022 197.428 151.413 191.838 151.804 186.249C152.139 181.453 152.089 176.212 153.319 171.655C154.585 166.963 156.814 161.472 157.159 156.546C157.949 145.245 159.239 133.502 160.042 122.016" stroke="#171717" stroke-width="2" stroke-linecap="round"/>
<path d="M94.9448 41.1479C95.1817 37.7601 95.276 34.1506 97.3738 31.2839C99.3312 28.6091 101.267 25.9419 103.382 23.3797C104.569 21.9414 105.366 20.7808 107.064 19.9285C108.366 19.2755 109.419 19.1437 110.883 19.4151C111.797 19.5844 112.659 20.069 113.485 20.4741C114.136 20.7932 115.059 20.8383 115.596 21.3203C116.82 22.4177 116.738 24.1225 116.63 25.6663C116.488 27.7056 115.386 29.5809 114.591 31.4473C114.182 32.4082 113.597 33.3001 113.118 34.2281C112.673 35.0904 112.321 36.0071 111.828 36.8433C110.9 38.4145 108.564 39.4389 106.902 40.007C104.978 40.6646 102.942 40.75 101.076 41.5767C98.4796 42.7272 95.2198 44.0383 93.8285 46.6962C93.2853 47.7339 93.4564 49.2997 93.3592 50.4316C93.2857 51.2871 93.0571 52.2116 92.8348 53.0409C92.4191 54.5919 91.6804 69.5565 95.0306 82.3212" stroke="#171717" stroke-width="2" stroke-linecap="round"/>
<path d="M96.5093 41.9073C96.6069 41.1136 97.35 40.2059 97.7763 39.5508C98.2638 38.8016 98.8162 38.1056 99.3097 37.3627C100.354 35.79 101.864 34.5693 103.273 33.3275C104.469 32.2729 105.573 31.0963 106.757 30.0292C107.102 29.7178 107.384 29.1998 107.811 29.0222" stroke="#171717" stroke-width="2" stroke-linecap="round"/>
<path d="M92.2435 56.0552C92.3133 55.0578 92.383 54.0604 92.4527 53.063C92.5504 51.6662 92.2329 50.2002 91.7825 48.8749C90.9952 46.5582 89.7816 44.3592 87.8544 42.7684C86.8013 41.8992 85.3641 41.5288 84.0562 41.2294C82.6189 40.9003 81.1677 40.6422 79.6958 40.5393C78.2455 40.4378 77.1144 41.1228 75.7554 41.4943C74.7407 41.7717 74.2748 42.3352 73.9693 43.3169C73.6914 44.2101 73.5505 45.6093 73.8638 46.5091C74.1549 47.3451 74.7126 48.5225 75.4974 49.0095C77.6793 50.3636 80.1546 48.8986 82.2092 48.0557C83.5768 47.4946 84.7813 47.1156 86.2683 47.0875C87.875 47.0573 89.481 47.3582 90.956 47.9932C91.831 48.3698 92.5587 49.0783 93.0838 49.8541" stroke="#171717" stroke-width="2" stroke-linecap="round"/>
</g>
<defs>
<filter id="filter0_dd_3008_23710" x="0.375" y="-4" width="187.809" height="258.728" filterUnits="userSpaceOnUse" color-interpolation-filters="sRGB">
<feFlood flood-opacity="0" result="BackgroundImageFix"/>
<feColorMatrix in="SourceAlpha" type="matrix" values="0 0 0 0 0 0 0 0 0 0 0 0 0 0 0 0 0 0 127 0" result="hardAlpha"/>
<feOffset dy="2"/>
<feGaussianBlur stdDeviation="1"/>
<feComposite in2="hardAlpha" operator="out"/>
<feColorMatrix type="matrix" values="0 0 0 0 0 0 0 0 0 0 0 0 0 0 0 0 0 0 0.02 0"/>
<feBlend mode="normal" in2="BackgroundImageFix" result="effect1_dropShadow_3008_23710"/>
<feColorMatrix in="SourceAlpha" type="matrix" values="0 0 0 0 0 0 0 0 0 0 0 0 0 0 0 0 0 0 127 0" result="hardAlpha"/>
<feOffset dy="4"/>
<feGaussianBlur stdDeviation="4"/>
<feComposite in2="hardAlpha" operator="out"/>
<feColorMatrix type="matrix" values="0 0 0 0 0 0 0 0 0 0 0 0 0 0 0 0 0 0 0.06 0"/>
<feBlend mode="normal" in2="effect1_dropShadow_3008_23710" result="effect2_dropShadow_3008_23710"/>
<feBlend mode="normal" in="SourceGraphic" in2="effect2_dropShadow_3008_23710" result="shape"/>
</filter>
</defs>
</svg>
