<svg width="216" height="316" viewBox="0 0 216 316" fill="none" xmlns="http://www.w3.org/2000/svg">
<g filter="url(#filter0_dd_3017_28171)">
<rect x="8" y="4" width="200" height="300" rx="8" fill="white"/>
<path d="M84.26 268.18V265.64H72.3V268.18H76.82V280H79.76V268.18H84.26ZM85.5623 280H88.3623V273.92C88.3623 272.54 89.3223 271.84 90.3023 271.84C91.5023 271.84 91.9823 272.68 91.9823 273.86V280H94.7823V273.06C94.7823 270.78 93.4423 269.28 91.2423 269.28C89.9023 269.28 88.9423 269.88 88.3623 270.56V265.64H85.5623V280ZM101.627 280.22C103.727 280.22 105.507 279.14 106.267 277.22L103.907 276.38C103.587 277.4 102.727 277.92 101.647 277.92C100.267 277.92 99.2872 276.96 99.0872 275.36H106.327V274.54C106.327 271.6 104.647 269.28 101.527 269.28C98.5472 269.28 96.4072 271.64 96.4072 274.74C96.4072 278 98.5272 280.22 101.627 280.22ZM101.507 271.52C102.867 271.52 103.527 272.42 103.547 273.46H99.1872C99.5272 272.18 100.387 271.52 101.507 271.52ZM110.987 278.22C111.947 279.52 113.947 280.22 115.847 280.22C118.367 280.22 120.407 278.86 120.407 276.66C120.407 274.28 118.227 273.86 116.387 273.48C115.087 273.22 114.387 273.1 114.387 272.42C114.387 271.84 114.967 271.46 115.847 271.46C116.947 271.46 117.967 271.96 118.667 272.86L120.267 271.1C119.447 270.04 117.787 269.28 115.927 269.28C113.407 269.28 111.627 270.68 111.627 272.7C111.627 274.96 113.507 275.4 115.207 275.74C116.887 276.06 117.667 276.16 117.667 276.96C117.667 277.72 116.847 278.04 115.907 278.04C114.727 278.04 113.447 277.42 112.727 276.44L110.987 278.22ZM131.167 269.48H128.367V275.66C128.367 277.02 127.407 277.74 126.427 277.74C125.267 277.74 124.747 276.98 124.747 275.82V269.48H121.947V276.44C121.947 278.72 123.347 280.22 125.527 280.22C126.867 280.22 127.787 279.6 128.367 278.92V280H131.167V269.48ZM133.492 280H136.292V273.92C136.292 272.54 137.252 271.84 138.232 271.84C139.432 271.84 139.912 272.68 139.912 273.86V280H142.712V273.06C142.712 270.78 141.372 269.28 139.172 269.28C137.832 269.28 136.872 269.88 136.292 270.56V269.48H133.492V280Z" fill="#171717"/>
<path fill-rule="evenodd" clip-rule="evenodd" d="M22 12.5C18.9624 12.5 16.5 14.9624 16.5 18V290C16.5 293.038 18.9624 295.5 22 295.5H194C197.038 295.5 199.5 293.038 199.5 290V18C199.5 14.9624 197.038 12.5 194 12.5H22ZM19.5 18C19.5 16.6193 20.6193 15.5 22 15.5H194C195.381 15.5 196.5 16.6193 196.5 18V251H19.5V18ZM19.5 254V290C19.5 291.381 20.6193 292.5 22 292.5H194C195.381 292.5 196.5 291.381 196.5 290V254H19.5Z" fill="url(#paint0_linear_3017_28171)"/>
<path fill-rule="evenodd" clip-rule="evenodd" d="M22 12.5C18.9624 12.5 16.5 14.9624 16.5 18V290C16.5 293.038 18.9624 295.5 22 295.5H194C197.038 295.5 199.5 293.038 199.5 290V18C199.5 14.9624 197.038 12.5 194 12.5H22ZM19.5 18C19.5 16.6193 20.6193 15.5 22 15.5H194C195.381 15.5 196.5 16.6193 196.5 18V251H19.5V18ZM19.5 254V290C19.5 291.381 20.6193 292.5 22 292.5H194C195.381 292.5 196.5 291.381 196.5 290V254H19.5Z" fill="url(#paint1_linear_3017_28171)" style="mix-blend-mode:difference"/>
<path fill-rule="evenodd" clip-rule="evenodd" d="M22 12.5C18.9624 12.5 16.5 14.9624 16.5 18V290C16.5 293.038 18.9624 295.5 22 295.5H194C197.038 295.5 199.5 293.038 199.5 290V18C199.5 14.9624 197.038 12.5 194 12.5H22ZM19.5 18C19.5 16.6193 20.6193 15.5 22 15.5H194C195.381 15.5 196.5 16.6193 196.5 18V251H19.5V18ZM19.5 254V290C19.5 291.381 20.6193 292.5 22 292.5H194C195.381 292.5 196.5 291.381 196.5 290V254H19.5Z" fill="url(#paint2_linear_3017_28171)" style="mix-blend-mode:screen"/>
<g clip-path="url(#clip0_3017_28171)">
<g filter="url(#filter1_dd_3017_28171)">
<path d="M83.3408 145.831C84.4138 145.981 85.3274 145.288 86.2955 144.973C87.7987 144.484 89.2761 143.829 90.7027 143.153C91.6836 142.688 92.6551 142.327 93.5754 141.743C94.8747 140.917 95.5709 139.77 96.495 138.578C97.338 137.491 99.5637 134.016 98.8799 135.21C98.6836 135.553 98.166 135.846 97.8744 136.084C97.0474 136.759 96.2506 137.469 95.4287 138.149C94.1991 139.165 92.7791 139.938 91.5144 140.912C89.9001 142.156 88.4217 143.565 86.8941 144.911C86.3166 145.42 85.688 146.095 84.9696 146.423C84.8094 146.496 85.3284 146.47 85.3355 146.47C86.281 146.522 87.2226 146.695 88.1594 146.827C88.6552 146.897 89.1511 146.966 89.6469 147.036C89.8476 147.064 89.9754 147.122 89.7759 146.939C89.5378 146.721 89.3222 146.475 89.0607 146.284C88.8255 146.112 88.5157 146.035 88.2975 145.844C88.2636 145.814 88.824 145.883 88.8635 145.888C89.5674 145.987 90.2778 146.128 90.9913 146.054C91.844 145.966 92.2638 145.358 92.7983 144.747C93.8796 143.511 94.9637 142.299 96.219 141.236C97.8864 139.823 99.7028 138.483 101.188 136.874C101.36 136.687 101.111 137.378 101.03 137.619C100.278 139.849 99.6657 142.118 99.1219 144.407C98.57 146.731 98.0826 149.071 97.5838 151.407C97.5648 151.496 97.4181 152.994 97.1224 152.859C96.7403 152.685 96.3951 152.235 96.0602 151.991C94.9561 151.187 93.7257 150.604 92.5448 149.927C92.3128 149.794 91.6152 149.503 91.5053 149.213C91.4737 149.13 91.6772 149.16 91.766 149.157C92.3668 149.136 92.9517 149.031 93.5319 148.868C95.5712 148.298 97.1587 147.521 97.9298 145.442C98.1505 144.847 98.3459 144.092 98.4403 143.451C98.5862 142.46 97.8278 143.371 97.5003 143.669C95.9589 145.073 96.7942 144.387 95.1264 145.855C94.7542 146.182 94.3777 146.505 93.9931 146.818C93.6688 147.081 92.7607 147.883 92.9468 147.509C93.052 147.297 93.2427 147.139 93.4083 146.97C94.1319 146.234 95.6462 144.848 96.3413 144.216C97.1364 143.493 99.4417 141.261 98.7838 142.111C98.3637 142.654 97.879 143.143 97.4382 143.669C97.2164 143.934 96.9971 144.201 96.7841 144.473C96.6339 144.665 96.2725 144.882 96.3955 145.093C96.4221 145.138 96.5062 145.095 96.5508 145.124C96.8186 145.292 96.7902 145.543 96.7935 145.858C96.804 146.864 96.5748 147.853 96.5059 148.852C96.4699 149.373 96.6408 148.873 96.7142 148.695C96.8084 148.466 96.8923 148.233 96.976 148C97.0513 147.79 97.3169 147.361 97.095 147.342C96.8712 147.323 96.4273 147.551 96.1701 147.58C95.7111 147.633 95.6715 148.195 95.5983 148.556C95.507 149.006 94.9583 151.239 96.0274 150.426C97.0622 149.638 98.0004 148.694 99.348 148.51C99.6687 148.467 99.6787 148.548 99.9456 148.266C100.745 147.424 101.305 146.242 101.807 145.215C102.161 144.49 102.395 143.789 102.65 143.036C102.72 142.829 102.757 143.463 102.759 143.681C102.765 144.389 102.737 145.697 102.724 146.328C102.712 146.915 102.698 147.501 102.685 148.088C102.669 148.786 102.832 149.518 102.613 150.18C102.577 150.288 102.567 149.957 102.558 149.844C102.502 149.113 102.459 147.75 102.451 147.07C102.445 146.583 102.449 146.095 102.457 145.608C102.463 145.257 102.47 144.907 102.494 144.557C102.502 144.439 102.434 144.212 102.552 144.206C102.765 144.196 103.158 149.714 103.223 150.222C103.241 150.359 103.229 150.729 103.322 150.626C103.469 150.463 103.417 150.196 103.444 149.978C103.519 149.382 103.57 148.783 103.629 148.185C103.842 146.067 103.935 143.902 104.257 141.798C104.408 140.809 104.539 141.686 104.641 142.154C105.162 144.547 105.589 146.961 106.113 149.355C106.273 150.083 106.889 152.218 106.563 151.547C105.767 149.908 105.466 147.894 104.893 146.172C104.715 145.638 104.207 144.143 104.081 144.692C103.973 145.158 104.037 145.648 104.038 146.127C104.041 147.026 104.139 149.74 104.161 150.619C104.164 150.745 104.61 153.381 103.593 153.21C103.3 153.16 103.041 152.992 102.766 152.88C102.566 152.8 101.317 152.293 101.019 152.147C100.77 152.025 101.561 152.267 101.824 152.353C101.911 152.382 104.586 153.397 104.674 153.22C104.734 153.098 103.229 152.34 103.036 152.249C102.247 151.874 104.554 153.116 105.322 153.532C105.516 153.638 106.867 154.365 107.221 154.536C107.518 154.679 107.876 154.887 108.125 154.543C108.762 153.662 108.537 151.969 108.476 151.031C108.322 148.636 107.971 146.243 107.574 143.879C107.293 142.203 106.982 140.548 106.367 138.963C106.254 138.672 106.662 139.514 106.81 139.788C108.081 142.143 109.341 144.502 110.568 146.881C111.854 149.374 113.27 151.883 114.314 154.495C114.575 155.148 114.945 156.331 114.767 157.015C114.709 157.239 114.282 157.019 114.082 156.901C113.126 156.338 111.932 155.758 111.164 154.943C110.14 153.858 110.048 152.395 109.856 150.994C109.803 150.601 109.755 150.207 109.712 149.812C109.633 149.081 109.655 149.273 110.001 149.994C111.39 152.88 110.015 150.115 111.695 153.532C112.18 154.519 113.795 157.375 113.118 156.509C112.255 155.406 111.699 153.7 111.191 152.45C110.704 151.255 109.268 147.674 109.899 148.8C110.291 149.5 110.481 150.295 110.754 151.049C111.388 152.803 111.969 154.588 112.726 156.294C113.085 157.103 113.189 157.244 113.613 157.936C113.712 158.096 114.352 158.917 114.267 159.189C114.144 159.576 113.558 159.596 113.172 159.719C110.829 160.463 108.534 161.188 106.282 162.196C103.988 163.223 101.801 164.437 99.7671 165.916C98.1941 167.059 96.7565 168.377 95.2106 169.555C94.4369 170.145 93.8873 170.553 93.0504 170.977C93.0237 170.991 92.2362 171.208 92.1469 171.347C91.7281 171.999 92.5992 172.081 93.0043 171.999C96.2369 171.352 99.1675 169.503 102.062 168.017C104.408 166.812 106.648 165.544 108.865 164.107C109.613 163.623 110.323 163.155 111.074 162.684C111.272 162.56 111.471 162.439 111.671 162.32C111.866 162.203 111.952 162.171 111.65 162.343C108.472 164.151 105.198 165.783 102.027 167.604C100.026 168.753 99.7843 168.932 97.8988 170.057C96.0759 171.145 95.5346 171.318 97.6627 169.212C101.537 165.379 105.685 161.804 109.938 158.399C110.993 157.554 112.068 156.733 113.155 155.928C114.992 154.567 114.303 155.213 113.387 155.979C111.449 157.599 109.472 159.172 107.531 160.789C106.675 161.501 105.827 162.222 104.975 162.94C104.44 163.391 102.985 164.838 103.31 164.218C103.472 163.909 103.734 163.663 103.938 163.379C104.31 162.861 105.395 161.623 104.758 161.65C104.27 161.669 103.849 162.017 103.429 162.266C102.175 163.007 101.131 164.118 99.7891 164.686C99.68 164.732 99.5009 164.529 99.5513 164.422C99.8498 163.786 100.323 163.247 100.732 162.676C101.734 161.282 105.019 157.35 103.745 158.5C102.036 160.044 100.683 161.961 99.0132 163.548C98.7978 163.752 98.4457 164.319 98.2883 164.067C98.093 163.754 98.5277 163.366 98.6947 163.037C99.0359 162.365 99.4275 161.719 99.8095 161.069C100.277 160.274 101.821 157.986 101.234 158.697C100.024 160.163 99.2342 161.955 98.0241 163.422C97.9315 163.534 97.6351 163.775 97.6401 163.63C97.6569 163.137 97.903 162.678 98.0655 162.213C98.3143 161.499 98.5981 160.799 98.8731 160.095C98.8884 160.056 99.855 157.817 99.189 159.173C98.8187 159.926 97.1542 163.42 96.8509 164.007C96.6392 164.416 96.6101 165.158 96.1511 165.199C95.7644 165.233 96.2505 164.427 96.3478 164.051C96.6288 162.967 96.9685 161.9 97.2846 160.825C97.8522 158.897 99.6291 153.135 98.9722 155.035C98.0237 157.779 97.2146 160.571 96.2101 163.296C96.0237 163.801 95.902 164.349 95.588 164.787C95.5131 164.892 95.3769 164.6 95.3662 164.472C95.2068 162.571 95.8171 160.653 95.6724 158.758C95.6641 158.649 95.5168 158.924 95.488 159.029C95.076 160.535 94.8666 162.089 94.4902 163.604C94.3971 163.979 94.3005 165.057 94.1356 164.707C93.8918 164.191 94.1533 163.565 94.2031 162.996C94.3201 161.662 94.482 160.333 94.6357 159.003C94.7973 157.605 94.9791 156.21 95.1492 154.813C95.2287 154.16 95.372 153.512 95.3845 152.854C95.3942 152.342 95.2305 153.868 95.1575 154.375C94.8862 156.259 94.3984 159.822 94.0921 161.703C93.3136 166.484 93.674 161.239 93.6944 160.778C93.7374 159.801 93.8065 158.826 93.8486 157.85C93.8758 157.219 93.9656 156.584 93.9021 155.955C93.883 155.766 93.7444 156.304 93.7113 156.491C93.5222 157.559 92.8941 162.45 92.7885 163.152C92.6626 163.989 92.6299 164.854 92.3526 165.654C91.9487 166.819 92.0278 163.203 92.0188 161.97C92.0177 161.829 92.0415 156.585 92.1075 155.658C92.2183 154.104 92.3209 158.767 92.4504 160.319C92.4617 160.454 92.5219 160.855 92.5228 160.719C92.5264 160.166 92.4872 159.613 92.4587 159.061C92.3724 157.382 92.1816 152.375 91.9709 154.042C91.5867 157.083 91.8992 160.279 91.8492 163.335C91.8362 164.128 91.9107 164.934 91.7589 165.713C91.7339 165.841 91.4368 165.892 91.3727 165.778C91.0061 165.127 90.8391 164.381 90.6089 163.671C89.6631 160.75 89.6428 160.181 88.6766 157.411C87.726 154.686 88.6225 158.277 88.654 158.393C88.9476 159.473 88.0036 156.249 87.6405 155.19C87.4356 154.592 87.2289 153.995 86.9998 153.406C86.6781 152.579 86.628 152.577 86.7772 153.317C86.8391 153.624 86.9429 153.921 86.9948 154.23C87.0222 154.393 87.1598 154.648 87.014 154.725C86.7487 154.866 85.0585 152.701 84.9239 152.555C84.2495 151.824 83.6095 151.228 83.0816 150.389C83.0293 150.306 82.2323 149.11 82.4158 149.036C82.5615 148.977 83.0278 149.08 83.0737 149.088C83.8242 149.229 84.5674 149.434 85.2789 149.713C86.3413 150.13 87.2511 150.864 88.2078 151.469C88.7718 151.825 90.4641 152.89 89.9264 152.495C89.3033 152.038 88.5629 151.676 87.8894 151.304C87.7799 151.244 87.0147 150.784 86.7323 150.765C86.6613 150.76 86.577 150.803 86.5449 150.867C86.3173 151.318 86.3128 151.85 86.2216 152.347C85.4863 156.352 85.3856 160.239 86.528 164.179C86.6765 164.692 86.8563 165.195 87.0283 165.7C87.1619 166.092 87.1914 166.543 87.4447 166.872C87.5263 166.977 87.671 166.683 87.6849 166.551C87.8583 164.9 87.6796 159.46 87.6566 158.705C87.5636 155.663 87.1104 146.558 86.9893 149.599C86.8547 152.976 87.1753 156.386 87.3266 159.759C87.3452 160.173 87.4236 161.363 87.2232 160.999C86.4672 159.628 86.006 157.949 85.4893 156.484C84.957 154.976 84.8942 154.735 84.4586 153.341C84.3933 153.133 84.3395 152.92 84.2627 152.715C84.2464 152.671 84.1823 152.555 84.1811 152.602C84.177 152.758 84.2175 152.912 84.2536 153.064C84.8455 155.557 86.3091 158.424 88.6916 159.64C90.4231 160.524 91.8037 160.049 93.1301 158.765C94.8921 157.059 96.1681 154.911 97.9581 153.225C99.6778 151.605 98.7408 153.903 98.5354 153.914C98.3278 153.924 98.1255 154.171 98.2777 154.485C98.804 155.572 101.678 154.353 102.106 154.225C102.383 154.142 104.982 153.207 105.671 153.222C106.64 153.244 105.309 154.957 105.199 155.103C104.673 155.799 104.11 155.875 103.303 156.061C102.318 156.287 101.42 156.641 100.461 156.939" stroke="#FFD424" stroke-width="2" stroke-linecap="round"/>
<path d="M219.167 222.693C217.735 223.207 214.424 226.322 215.257 225.049C216.129 223.717 217.116 222.535 217.882 221.114C218.093 220.723 218.382 220.647 218.12 221.147C217.723 221.905 217.013 222.564 216.481 223.23C214.737 225.416 217.881 223.637 219.019 223.654C219.926 223.668 218.456 224.222 218.176 224.383C216.727 225.219 215.407 226.163 214.071 227.169C213.747 227.413 212.377 228.118 212.309 228.602C212.275 228.839 212.762 228.44 212.968 228.318C213.734 227.864 214.453 227.336 215.205 226.857C216.423 226.081 217.683 225.398 218.972 224.75C219.759 224.355 218.146 225.177 218.041 225.252C216.111 226.615 214.299 228.135 212.326 229.438C211.729 229.833 211.114 230.21 210.565 230.67C210.316 230.879 209.508 231.262 209.829 231.307C210.894 231.457 212.992 229.767 213.831 229.26C215.001 228.553 216.073 227.643 217.293 227.03C220.539 225.398 211.195 230.98 208.145 232.953C208.031 233.027 206.01 234.228 206.196 234.374C206.999 235.007 210.942 232.519 211.644 232.181C213.951 231.072 216.276 230.017 218.503 228.76C220.256 227.771 217.053 229.927 216.84 230.059C216.008 230.579 203.603 237.106 203.823 237.564C203.839 237.597 217.009 231.978 218.502 231.356C222.721 229.596 210.322 235.45 206.336 237.689C205.653 238.072 203.333 239.11 202.984 239.894C202.873 240.145 203.537 239.833 203.789 239.725C205.333 239.064 206.867 238.436 208.348 237.635C210.119 236.678 211.921 235.706 213.572 234.55C214.653 233.793 212.376 235.297 212.243 235.385C210.284 236.685 208.266 237.882 206.214 239.03C205.46 239.453 204.16 240.295 205.964 239.856C208.137 239.327 210.119 238.311 212.188 237.503C213.846 236.855 213.754 237.026 212.219 237.857C209.358 239.405 206.348 240.667 203.459 242.167C202.285 242.777 198.711 244.345 200.019 244.145C202.707 243.734 205.611 242.04 208.103 241.004C210.358 240.067 212.709 239.405 214.959 238.47C216.244 237.936 213.432 238.496 213.184 238.557C211.713 238.918 210.242 239.262 208.805 239.744C208.16 239.961 207.69 240.248 208.694 239.957C210.374 239.471 212.322 238.514 213.591 237.283C214.224 236.669 212.381 237.203 212.265 237.244C210.919 237.731 209.648 238.38 208.287 238.837C207.688 239.038 209.815 237.62 210.07 237.447C211.391 236.549 212.574 235.587 213.809 234.583C215.476 233.228 209.556 235.702 207.823 236.97C206.284 238.095 205.69 240.062 204.083 241.273C202.985 242.099 201.836 242.531 200.435 242.334C198.407 242.049 201.435 241.632 202.089 241.477C204.12 240.994 202.255 241.096 201.114 241.716C199.784 242.439 197.903 244.641 196.254 244.409" stroke="#C6C6C8" stroke-width="2" stroke-linecap="round"/>
<path d="M172.695 201.338C172.063 203.928 169.545 206.868 168.149 209.124C167.886 209.548 166.593 211.776 166.831 211.273C167.824 209.179 169.679 207.428 171.17 205.691C172.908 203.665 174.77 201.734 176.481 199.688C176.984 199.086 178.054 197.742 176.629 198.998C172.055 203.029 167.526 207.11 162.92 211.104C161.426 212.4 159.055 215.454 161.642 212.066C164.068 208.889 167.719 205.99 169.363 202.291C169.806 201.292 168.58 203.508 168.222 203.907C167.044 205.216 165.718 206.381 164.519 207.675C164.229 207.988 162.738 209.639 164.109 208.607C166.084 207.119 167.802 205.283 169.408 203.413C170.26 202.421 175.242 197.553 171.848 200.864C171.157 201.538 167.524 206.349 169.195 203.485C170.442 201.347 172.308 198.604 174.307 197.098C175.551 196.161 172.198 199.405 171.314 200.687C170.595 201.731 173.23 199.008 174.309 198.342C177.017 196.673 179.722 195.023 182.404 193.313C182.844 193.032 184.542 191.635 185.166 191.722C186.669 191.934 182.76 193.587 181.446 194.346C178.622 195.979 170.267 200.896 173.36 199.858C174.993 199.31 176.828 197.396 178.212 196.404C180.494 194.769 182.946 193.356 185.344 191.9C188.867 189.76 183.225 193.062 182.465 193.601C178.918 196.117 175.25 198.492 172.045 201.45C170.963 202.448 173.506 200.229 173.783 199.918C174.349 199.282 172.963 201.426 172.391 202.056C169.116 205.67 165.343 208.878 161.842 212.272C159.615 214.431 157.432 216.57 155.266 218.783C154.524 219.54 154.03 219.88 155.198 218.9C158.251 216.338 161.285 213.611 164.217 210.906C165.803 209.442 161.17 214.959 160.691 215.587C159.984 216.511 157.364 218.31 158.528 218.328C159.545 218.343 162.214 214.805 162.877 214.118C164.305 212.637 165.902 211.148 167.154 209.517C168.649 207.567 166.545 210.318 166.14 210.77C163.925 213.241 161.473 215.475 159.199 217.889C158.793 218.32 155.693 221.949 155.052 221.747C154.459 221.56 155.906 220.841 156.379 220.436C157.829 219.194 159.187 217.905 160.508 216.525C162.355 214.596 164.329 212.814 166.219 210.933C169.009 208.155 164.04 214.284 163.462 215.012C162.585 216.117 157.374 221.066 161.301 218.108C162.217 217.418 167.781 212.897 164.553 216.282C162.932 217.981 161.08 219.443 159.431 221.119C158.68 221.881 156.76 224.278 157.025 223.242C157.375 221.875 159.991 219.73 160.893 218.66C162.322 216.966 163.633 215.19 165.044 213.509" stroke="#C6C6C8" stroke-width="2" stroke-linecap="round"/>
<path d="M218.034 219.565C211.738 228.494 197.581 245.576 191.33 242.469C183.517 238.586 189.717 219.961 210.202 207.323C211.433 206.564 212.656 205.974 213.86 205.543M158.307 187.262C165.945 160.467 160.8 141.972 157.273 136.073C146.556 115.2 126.047 113.602 110.731 116.859C103.806 118.331 101.378 126.278 105.071 132.318V132.318C107.377 136.091 111.611 138.128 116.024 138.412C150.496 140.632 141.691 179.74 135.018 199.713C127.916 220.971 104.911 224.512 93.7071 216.406C87.8516 212.169 90.4465 203.71 94.7728 196.297C98.1917 190.439 97.5712 182.646 92.2068 178.494V178.494C87.752 175.047 81.3987 175.205 77.8231 179.557C65.3662 194.72 54.6356 221.337 80.6838 245.221C119.118 280.464 183.421 293.082 216.18 261.081C246.971 231.003 232.696 198.81 213.86 205.543M213.86 205.543C212.134 198.156 205.649 185.682 192.972 190.159M190.94 213.379C179.179 226.457 171.2 236.731 164.61 230.241C158.02 223.751 171.025 201.817 189.635 191.665C190.792 191.034 191.904 190.536 192.972 190.159M192.972 190.159C191.413 184.209 185.444 173.226 174.043 176.894C160.036 181.402 141.929 202.516 139.476 216.303C139.392 216.779 139.393 217.26 139.515 217.729C140.226 220.475 142.706 224.71 148.293 224.077C154.392 223.386 165.883 207.405 170.866 199.501" stroke="#171717" stroke-width="2" stroke-linecap="round" stroke-linejoin="round"/>
<path d="M117.223 116.444C119.073 116.704 120.084 117.878 121.123 119.34C122.134 120.764 122.658 121.317 124.527 121.58C126.743 121.891 128.781 121.752 130.46 120.066C131.617 118.904 131.888 117.957 132.109 116.384" stroke="#171717" stroke-width="2" stroke-linecap="round"/>
<path d="M75.6228 182.605C78.1895 182.966 80.7561 183.326 83.3228 183.687C85.388 183.977 87.469 184.077 88.8716 185.837C90.4503 187.817 89.88 190.598 88.7016 192.618C87.9059 193.982 86.2822 195.611 84.8646 196.318C83.2566 197.12 80.6593 196.622 79.0051 196.147C77.0904 195.597 75.2584 193.376 73.9267 191.965C73.4128 191.421 72.1748 190.424 72.2945 189.573" stroke="#171717" stroke-width="2" stroke-linecap="round"/>
<path d="M144.191 207.309C145.973 207.559 147.787 207.73 149.553 208.073C151.383 208.429 152.756 210.308 153.743 211.771C154.248 212.521 154.855 213.607 154.721 214.561C154.61 215.352 154.2 215.438 153.548 215.864C152.645 216.454 151.157 216.222 150.112 216.403C149.075 216.582 147.904 216.245 146.87 216.099C143.737 215.659 142.635 213.669 140.883 211.344" stroke="#171717" stroke-width="2" stroke-linecap="round"/>
<path d="M166.662 215.946C169.16 216.297 172.23 215.998 173.832 218.171C174.671 219.31 176.532 221.72 175.712 223.284C174.959 224.721 173.004 225.482 171.468 225.623C167.944 225.946 166.425 223.472 163.78 221.65" stroke="#171717" stroke-width="2" stroke-linecap="round"/>
<path d="M192.131 226.96C193.538 227.158 194.946 227.356 196.354 227.554C197.482 227.712 198.624 227.659 199.275 228.747C200.121 230.162 200.241 231.934 200.014 233.547C199.801 235.064 198.449 236.669 196.886 236.923C193.368 237.495 190.876 235.135 188.334 233.08" stroke="#171717" stroke-width="2" stroke-linecap="round"/>
<path d="M104.393 131.277L80.2027 146.707L89.7201 177.005L116.798 158.762L104.393 131.277Z" stroke="#171717" stroke-width="2" stroke-linecap="round" stroke-linejoin="round"/>
<path d="M104.394 131.277L89.9538 148.983L89.8589 176.524" stroke="#171717" stroke-width="2" stroke-linecap="round" stroke-linejoin="round"/>
<path d="M104.391 131.278L99.974 153.938L90.1321 175.563" stroke="#171717" stroke-width="2" stroke-linecap="round" stroke-linejoin="round"/>
<path d="M104.391 131.277L107.664 156.143L90.4747 176.181" stroke="#171717" stroke-width="2" stroke-linecap="round" stroke-linejoin="round"/>
<path d="M80.6836 146.845L116.798 158.762" stroke="#171717" stroke-width="2" stroke-linecap="round" stroke-linejoin="round"/>
<path d="M118.571 172.506L123.834 191.623M128.86 178.257L108.866 188.526M110.235 178.785L128.922 184.888M126.071 175.712L113.461 194.42" stroke="#171717" stroke-width="2" stroke-linecap="round" stroke-linejoin="round"/>
<path d="M160.612 183.788C161.503 177.452 162.393 171.117 163.283 164.781C163.577 162.69 163.847 161.003 163.366 158.933C162.83 156.631 162.328 154.349 161.744 152.053C161.22 149.99 160.952 147.777 160.062 145.837C159.346 144.276 158.196 142.841 157.679 141.208C157.264 139.899 156.663 138.537 155.981 137.35C155.285 136.139 154.3 134.982 153.872 133.629C153.298 131.817 152.813 129.248 153.073 127.397C153.198 126.506 153.186 126.539 152.479 126.052C151.922 125.669 151.107 125.565 150.479 125.271C149.411 124.771 148.387 123.4 147.487 122.568C146.068 121.255 144.317 120.081 142.551 119.309C138.123 117.371 133.638 115.425 128.815 114.747C125.277 114.25 121.539 113.988 117.988 114.4C114.8 114.77 111.735 116.01 108.877 117.326C107.044 118.17 104.821 120.389 104.114 122.277C103.007 125.232 102.477 129.151 104.66 131.702C105.685 132.901 106.119 134.216 107.45 135.215C109.454 136.718 112.474 137.069 114.817 137.739C119.213 138.997 123.246 141.19 127.228 143.375C130.949 145.418 134.898 147.689 137.793 150.839C138.929 152.075 139.642 153.582 140.374 155.072C140.612 155.555 140.914 156.029 140.946 156.576C140.993 157.387 141.496 157.987 141.574 158.762C141.938 162.384 141.04 165.654 140.538 169.227C140.49 169.569 140.481 169.782 140.61 170.106C140.874 170.767 140.599 171.583 140.497 172.308C140.169 174.639 139.841 176.97 139.514 179.301C138.909 183.604 138.304 187.907 137.7 192.21C136.997 197.206 136.333 202.237 133.336 206.468C130.701 210.188 128.168 214.165 124.399 216.898C123.166 217.792 121.258 217.458 119.807 217.536C118.126 217.626 116.485 217.308 114.825 217.075C114.039 216.964 113.582 216.81 112.934 217.298C112.46 217.655 112.165 218.261 111.596 218.382C109.207 218.889 106.291 218.797 103.834 217.976C101.035 217.04 97.5364 217.421 95.0501 215.709C93.4678 214.619 92.5994 212.2 92.2749 210.383C91.5362 206.248 92.5571 201.575 93.4893 197.563C94.0203 195.279 94.7239 193.029 95.2203 190.741C95.4667 189.605 95.6623 188.289 95.4328 187.14C95.1902 185.925 94.6737 184.822 94.2687 183.661C93.8461 182.449 93.1893 182.209 92.2774 181.424C91.4246 180.69 91.0986 179.683 90.4468 178.819C89.8396 178.013 88.1123 178.099 87.2373 177.976C85.7793 177.771 84.5782 177.524 83.1386 177.89C81.4015 178.33 80.1845 178.718 78.6758 179.697C76.4735 181.127 75.4771 183.173 74.0695 185.311C72.7275 187.35 71.3947 189.337 70.3557 191.54C68.252 196.001 66.6615 200.415 65.9725 205.317C65.3047 210.069 64.9238 215.15 65.8938 219.884C66.919 224.887 68.3732 229.346 70.5627 233.943C71.4938 235.899 72.619 237.354 73.91 239.066C75.099 240.643 75.707 242.553 77.1927 243.876C79.4896 245.921 82.1179 247.522 85.0486 248.491C86.2792 248.898 87.0722 249.312 88.2355 250.113C90.0796 251.383 91.7815 252.618 93.7178 253.743C94.7129 254.321 95.5171 255.073 96.6141 255.498C98.0668 256.06 99.5433 256.583 100.959 257.239C103.305 258.327 105.7 259.85 107.822 261.334C112.324 264.483 117.481 266.701 122.606 268.652C125.915 269.911 128.741 272.186 132.191 273.119C134.212 273.665 136.258 274.119 138.214 274.911C139.839 275.569 141.508 276.093 143.148 276.713C144.252 277.131 145.524 277.148 146.545 277.691C146.938 277.899 147.269 278.005 147.713 278.05C148.367 278.117 148.264 277.118 148.81 277.052C149.496 276.969 150.451 277.261 151.106 277.353C153.242 277.653 155.379 277.954 157.515 278.254C160.425 278.663 163.324 279.173 166.269 279.191C169.8 279.212 173.301 279.885 176.793 280.376C179.773 280.795 182.567 280.81 185.566 280.631C187.69 280.504 189.435 279.984 191.126 278.673C192.669 277.477 194.12 276.318 195.889 275.429C197.342 274.699 198.548 273.532 199.981 272.775C201.058 272.207 202.082 271.542 203.007 270.744C203.891 269.981 204.625 269.192 205.565 268.483C205.926 268.212 206.292 268.321 206.695 268.186C207.089 268.053 207.378 267.78 207.755 267.606C208.639 267.199 209.707 266.908 210.48 266.326C212.044 265.148 213.51 263.822 215.068 262.623C218.212 260.201 220.531 256.521 223.048 253.504C224.397 251.888 225.353 250.098 226.332 248.247C227.365 246.296 227.65 243.947 228.401 241.885C228.818 240.738 229.295 239.701 229.466 238.48C229.612 237.446 229.698 236.379 229.948 235.363C230.491 233.16 231.109 230.971 231.425 228.722C232.389 221.867 229.694 215.518 226.904 209.433C226.15 207.789 225.563 206.191 223.92 205.208C222.582 204.409 221.479 204.083 219.954 203.868C218.064 203.603 216.536 203.499 214.715 204.154C212.385 204.992 210.045 206.872 208.228 208.525C205.272 211.215 202.331 213.85 199.453 216.641C196.539 219.466 194.501 223.037 191.939 226.151C191.023 227.265 189.801 228.541 189.219 229.878C188.525 231.47 188.331 233.1 188.091 234.807C187.768 237.106 188.375 240.497 190.234 242.152C196.338 247.587 203.848 238.77 207.501 234.513C208.507 233.34 209.287 232.13 210.178 230.867C211.038 229.648 212.34 228.8 213.186 227.572C213.963 226.444 214.852 225.353 215.474 224.132C215.984 223.134 217.04 222.437 217.201 221.288" stroke="#171717" stroke-width="2" stroke-linecap="round"/>
<path d="M214.363 203.866C214.696 201.498 212.271 198.338 210.66 196.791C209.869 196.032 209.34 195.25 208.42 194.617C207.539 194.01 206.612 193.478 205.73 192.869C203.785 191.53 201.625 190.225 199.324 189.621C197.47 189.135 195.302 188.543 193.377 188.829C191.701 189.078 189.8 189.699 188.261 190.414C185.777 191.569 183.006 193.399 181.102 195.387C179.009 197.572 177.722 200.67 176.048 203.178C175.396 204.155 174.68 205.061 174.017 206.023C173.379 206.949 172.775 208.08 171.965 208.865C171.008 209.793 170.306 210.952 169.383 211.916C168.482 212.857 167.449 213.79 166.726 214.88C165.799 216.277 164.981 217.673 164.294 219.18C163.655 220.582 163.618 222.289 163.405 223.805C163.226 225.079 163.22 226.963 163.977 228.093C164.989 229.602 166.548 231.232 168.222 232.016C169.728 232.721 171.906 232.933 173.396 232.112C174.806 231.335 176.092 230.204 177.414 229.285C178.588 228.471 179.786 227.56 180.656 226.415C182.509 223.98 184.311 221.315 186.424 219.116C188.188 217.28 189.374 214.724 190.999 212.715" stroke="#171717" stroke-width="2" stroke-linecap="round"/>
<path d="M190.042 188.902C190.097 187.524 188.721 185.55 188.041 184.414C187.263 183.114 186.459 181.646 185.335 180.61C183.893 179.28 182.245 178.289 180.366 177.661C177.776 176.795 174.975 176.01 172.277 176.72C168.793 177.637 165.861 179.671 163.209 182.044C160.793 184.206 158.455 186.409 156.377 188.867C154.349 191.267 151.839 193.536 150.159 196.201C148.71 198.498 146.846 200.615 145.046 202.635C143.557 204.306 141.075 206.676 140.633 208.961C140.298 210.698 139.527 212.098 139.783 213.929C139.995 215.446 141.186 218.555 142.713 219.233C143.855 219.74 144.4 221.331 145.352 222.05C146.438 222.869 147.858 222.942 149.177 223.076C149.808 223.14 150.801 222.077 151.178 221.684C152.184 220.633 153.38 219.889 154.458 218.927C156.505 217.1 157.966 214.818 159.944 212.936C162.212 210.779 163.6 208.104 165.559 205.714C166.416 204.669 167.429 203.816 168.356 202.835C169.307 201.828 170.123 200.719 171.097 199.741" stroke="#171717" stroke-width="2" stroke-linecap="round"/>
<path d="M116.621 116.348C119.153 117.074 121.784 118.717 123.531 120.7C124.396 121.681 124.601 122.362 126.08 121.998C128.197 121.476 130.347 120.727 132.196 119.556C132.908 119.105 133.487 117.914 133.332 117.084" stroke="#171717" stroke-width="2" stroke-linecap="round"/>
<path d="M142.907 206.435C144.857 206.994 146.807 207.554 148.757 208.113C149.537 208.337 150.317 208.56 151.097 208.784C151.629 208.936 152.329 209.012 152.75 209.399C154.551 211.052 155.039 214.363 152.67 215.676C151.551 216.296 150.881 216.549 149.53 216.323C148.22 216.104 146.653 215.674 145.537 214.928C144.607 214.306 143.716 213.563 142.735 213.03C142.047 212.656 141.505 212.06 140.858 211.617" stroke="#171717" stroke-width="2" stroke-linecap="round"/>
<path d="M166.416 215.709C168.713 216.368 171.118 216.706 173.381 217.425C175.573 218.122 174.506 221.931 173.929 223.336C173.668 223.972 172.131 224.093 171.618 223.955C170.313 223.603 169.021 223.231 167.782 222.722C166.962 222.385 164.41 221.909 164.367 220.891" stroke="#171717" stroke-width="2" stroke-linecap="round"/>
<path d="M191.47 226.973C193.64 227.595 196.326 226.739 198.305 228.159C199.838 229.259 199.587 231.05 199.118 232.683C198.986 233.144 198.666 235.342 198.177 235.477C196.958 235.814 195.733 235.371 194.567 235.036C193.074 234.608 191.581 234.18 190.089 233.752C189.583 233.607 188.622 233.478 188.51 232.878" stroke="#171717" stroke-width="2" stroke-linecap="round"/>
<path d="M75.9286 183.338C78.3162 184.022 80.5492 184.414 83.0226 184.616C84.1494 184.709 86.8247 184.931 87.5319 185.9C89.4891 188.582 89.0839 193.331 86.5463 195.484C85.982 195.963 85.3949 196.368 84.8162 196.835C84.1466 197.374 83.0526 197.466 82.2675 197.82C80.8016 198.48 77.9222 197.443 76.9137 196.294C76.0829 195.347 75.3945 194.377 74.7666 193.244C74.4224 192.623 73.9189 192.238 73.4295 191.76C73.0213 191.362 72.8135 190.765 72.3977 190.383" stroke="#171717" stroke-width="2" stroke-linecap="round"/>
<path d="M103.672 130.789C103.472 131.573 102.336 132.223 101.726 132.619C99.5111 134.06 97.5082 135.811 95.263 137.203C92.5983 138.854 89.8299 140.365 87.2435 142.139C85.4687 143.356 83.4821 144.261 81.736 145.467C81.2537 145.801 80.3138 146.01 80.4402 146.739C80.7522 148.541 81.5382 150.34 82.0934 152.074C83.412 156.193 84.4414 160.389 85.7895 164.499C86.8028 167.589 87.4212 171.007 88.7184 173.973C88.9019 174.393 89.2295 176.802 89.9119 176.387C94.565 173.561 99.7287 171.304 104.139 168.13C107.593 165.645 111.096 163.197 114.492 160.639C115.219 160.092 116.101 159.768 116.753 159.153C117.412 158.531 116.065 155.88 115.673 155.197C114.499 153.155 113.309 151.128 112.211 149.049C111.317 147.356 110.631 145.647 110.022 143.834C109.381 141.927 108.035 140.497 107.112 138.751C105.743 136.16 104.878 133.078 103.966 130.363" stroke="#171717" stroke-width="2" stroke-linecap="round"/>
<path d="M80.6953 146.854C83.6815 147.273 86.4617 147.957 89.2901 149.043C94.1695 150.915 98.9865 152.959 103.852 154.868C105.935 155.686 108.101 156.589 110.263 157.179C110.739 157.309 111.385 157.32 111.82 157.548C112.118 157.704 112.522 157.72 112.845 157.815C113.324 157.957 113.826 158.071 114.322 158.141C114.789 158.207 115.23 158.462 115.736 158.533" stroke="#171717" stroke-width="2" stroke-linecap="round"/>
<path d="M103.777 131.669C103.723 131.881 103.448 132.08 103.306 132.235C102.944 132.629 102.661 133.044 102.344 133.472C101.396 134.752 100.344 135.938 99.3407 137.172C98.3043 138.447 97.3632 139.871 96.1878 141.023C95.2189 141.973 94.3825 143.115 93.6132 144.231C92.6804 145.585 91.4458 146.893 90.7163 148.359" stroke="#171717" stroke-width="2" stroke-linecap="round"/>
<path d="M103.791 132.924C103.393 135.756 102.995 138.587 102.597 141.419C102.316 143.422 101.681 145.372 101.141 147.32C100.675 149 100.227 150.731 99.984 152.459" stroke="#171717" stroke-width="2" stroke-linecap="round"/>
<path d="M104.023 132.668C103.868 133.775 103.971 134.891 104.124 135.995C104.552 139.062 105.379 142.029 106.076 145.039C106.428 146.557 106.623 148.109 106.654 149.666C106.669 150.391 106.618 151.131 106.685 151.852C106.78 152.872 106.984 153.778 107.369 154.73C107.48 155.005 107.488 155.602 107.727 155.767" stroke="#171717" stroke-width="2" stroke-linecap="round"/>
<path d="M90.0431 149.711C89.7767 151.606 89.4802 153.5 89.249 155.399C88.9674 157.713 89.2733 160.058 89.2705 162.382C89.2687 163.903 89.1109 165.413 89.167 166.935C89.2061 167.997 89.5057 169.089 89.3908 170.15C89.3208 170.796 89.4323 171.455 89.4006 172.103C89.3849 172.422 89.2661 173.006 89.3816 173.306C89.4563 173.5 89.4391 173.739 89.5108 173.952C89.5979 174.211 89.7664 174.394 89.8174 174.67" stroke="#171717" stroke-width="2" stroke-linecap="round"/>
<path d="M99.5572 152.785C99.3788 154.055 99.0301 155.277 98.5113 156.45C97.8245 158.003 97.28 159.577 96.6447 161.146C95.7651 163.319 94.7154 165.343 93.5484 167.38C92.1427 169.833 91.2109 172.555 89.9568 175.077" stroke="#171717" stroke-width="2" stroke-linecap="round"/>
<path d="M107.417 156.592C105.302 159.418 102.778 161.893 100.522 164.596C99.3129 166.044 97.9768 167.39 96.6575 168.738C95.8777 169.535 95.2758 170.483 94.517 171.3C93.5017 172.393 92.6218 173.794 91.4713 174.732C91.0366 175.086 90.7759 175.641 90.3071 175.994" stroke="#171717" stroke-width="2" stroke-linecap="round"/>
</g>
<g filter="url(#filter2_dd_3017_28171)">
<path d="M126.844 35.8849C128.239 45.8142 135.198 53.9354 139.356 62.7554C139.733 63.5541 140.089 64.344 140.42 65.1617C140.602 65.613 140.952 67.0284 140.885 66.5463C140.389 63.0225 139.458 59.492 138.527 56.0649C137.531 52.4004 136.709 48.4693 135.152 44.9893C135.104 44.883 131.399 39.5267 131.605 40.3081C132.404 43.3537 137.412 49.5887 138.874 52.3299C139.765 53.9994 140.565 55.7318 141.58 57.3315C142.035 58.0483 142.616 58.6827 142.972 59.458C143.701 61.0429 142.866 57.8744 142.803 57.6388C141.583 53.1275 139.74 48.7679 138.337 44.3083C138.047 43.387 137.781 42.4715 137.424 41.5736C137.205 41.0225 137.676 41.9134 137.712 41.9632C140.215 45.4383 143.201 48.5882 146.155 51.6754C147.016 52.5757 147.882 53.4826 148.8 54.3262C148.956 54.4689 149.42 54.8325 149.194 54.3323C147.931 51.529 145.724 49.1533 143.941 46.6784C143.656 46.2827 140.986 43.2749 141.173 42.7178C141.442 41.9149 144.76 44.5734 144.888 44.6776C145.852 45.4611 146.819 46.2492 147.745 47.0777C147.792 47.1199 148.824 48.0687 148.849 48.0283C149.318 47.2567 147.541 44.881 147.159 44.2233C146.267 42.6882 148.834 45.3345 149.217 45.6666C149.952 46.3034 152.047 48.2517 151.552 47.415C151.187 46.7976 150.643 46.249 150.236 45.6585C150.097 45.456 153.047 46.8573 152.615 46.1475C151.718 44.6759 149.904 43.5643 148.386 42.8099C146.366 41.8065 147.899 43.4263 148.589 44.2558C149.996 45.9456 151.538 47.5099 152.945 49.1974C153.015 49.2808 153.217 49.7009 152.929 49.5192C151.774 48.791 150.739 47.7731 149.698 46.9014C146.63 44.3318 143.519 41.7728 140.499 39.1509C138.972 37.8251 141.547 41.1074 141.768 41.3563C143.588 43.4149 145.417 45.4609 147.153 47.5908C148.098 48.7495 148.472 49.338 146.915 47.993C143.629 45.1552 140.143 42.5311 136.928 39.616C136.559 39.282 135.9 38.506 135.377 38.3718C134.769 38.2159 136.019 39.4584 136.431 39.9315C139.061 42.9476 141.499 46.0014 143.88 49.2181C144.965 50.6832 145.475 52.1874 146.331 53.7149C146.46 53.9467 145.817 53.5506 145.598 53.4C144.097 52.3676 142.658 51.1658 141.304 49.9488C139.26 48.111 136.322 42.0349 134.093 40.4252C133.864 40.2601 135.551 44.5564 135.713 44.7876C136.985 46.605 138.431 48.2805 139.869 49.9662C142.041 52.5121 144.166 55.0983 145.953 57.9333C146.332 58.5354 145.699 58.0439 145.492 57.8875C144.317 57.0027 143.218 56.0364 142.25 54.9274C140.825 53.2968 138.975 51.2103 138.658 48.9568C138.334 46.6525 141.339 48.9256 141.815 49.3855C145.027 52.4901 147.312 56.9657 146.986 61.5235C146.889 62.8702 145.972 65.4076 144.457 65.9091C143.399 66.2588 145.189 61.8147 145.299 61.5885C145.554 61.0676 150.432 51.0314 151.112 51.5438C151.558 51.8796 145.465 61.4086 144.332 62.4002C143.91 62.7695 144.805 58.5816 144.944 58.1857C146.062 55.0085 147.097 51.8469 148.099 48.6375C148.409 47.6441 148.945 45.9101 149.09 47.9945C149.35 51.7212 147.846 55.4429 146.104 58.6616C145.351 60.0532 143.375 63.0943 141.556 63.4539C139.42 63.876 136.951 60.3607 136.053 58.9192C132.687 53.5162 129.705 46.7997 128.809 40.4252C128.697 39.63 128.663 38.9432 128.725 38.164C128.801 37.1974 128.528 38.5037 128.362 38.9031C127.613 40.6967 125.118 40.4716 124.898 42.3853C124.559 45.347 126.721 51.0478 127.825 53.8828C128.75 56.2575 130.275 58.2205 131.403 60.4573C132.769 63.1668 134.954 66.1412 137.614 67.6694C137.97 67.8735 139.713 68.554 140.138 68.4942C140.164 68.4906 136.976 64.5497 136.679 64.2498C134.891 62.4445 132.476 60.9191 131.047 58.7994C127.032 52.8401 123.098 46.5914 122.245 39.3572C122.113 38.2394 122.343 37.4531 122.859 36.5555C123.769 34.9717 125.292 37.8963 125.998 38.5226C129.289 41.4419 132.997 43.4565 135.629 47.1586C135.797 47.3961 137.878 50.3709 136.494 49.6419C132.738 47.6635 129.584 44.4472 126.47 41.6141C126.12 41.2959 123.611 38.2065 123.898 38.5226C127.275 42.2297 130.605 47.8285 133.177 52.0985C135.046 55.2011 136.831 58.4658 137.973 61.9177C138.112 62.3385 137.4 61.238 137.162 60.8645C135.834 58.7863 134.543 56.6785 133.323 54.5354C131.866 51.9757 130.82 49.0994 129.146 46.6689C128.968 46.411 128.757 46.1147 129.015 46.6136C129.833 48.1961 130.807 49.6877 131.681 51.2399C134.288 55.8724 136.657 60.6648 138.417 65.6889C138.643 66.3348 139.02 67.1125 139.071 67.8086C139.139 68.7341 138.147 66.1996 137.676 65.3998C134.964 60.7892 132.006 56.1983 129.937 51.2514C129.41 49.9914 128.384 47.4519 128.384 47.4519C126.844 48.0283 126.058 44.558 126.407 44.6221C126.8 44.6946 127.519 49.7519 127.614 49.9662C128.719 52.473 131.387 53.9557 132.255 56.5532C133.03 58.8688 135.487 65.751 134.442 63.5444C130.853 55.9699 127.716 48.3883 126.545 40.0553C126.359 38.7313 126.376 38.049 127.614 39.4383C131.742 44.0735 134.618 50.1205 137.406 55.6081C138.278 57.325 139.076 59.07 139.813 60.8481C139.99 61.2743 140.667 62.4589 140.349 62.1244C139.699 61.4404 139.211 60.3722 138.749 59.5723C137.449 57.3201 136.271 54.9886 135.181 52.6279C133.747 49.5213 132.085 46.4261 131.605 43.0058C131.282 40.712 133.737 44.1519 134.093 44.6221C136.806 48.2089 139.396 52.1717 141.283 56.2674C141.709 57.192 143.625 62.6255 141.58 60.4573C140.575 59.3917 127.747 40.2239 130.398 39.1509C134.259 37.5882 139.783 44.3651 140.98 47.8195C141.647 49.7441 141.767 52.0854 138.96 51.5438C136.779 51.1227 135.026 49.2165 133.587 47.6667C131.87 45.819 130.378 43.7894 128.92 41.7367C128.166 40.6752 126.529 38.8921 126.407 37.4945C126.358 36.9431 130.183 37.5012 130.398 37.4945C133.487 37.3988 136.057 37.4465 138.551 39.2772C139.235 39.7795 141.225 40.9101 141.309 41.9369C141.333 42.2433 140.438 41.5825 140.435 41.5805C139.65 41.0142 138.744 40.6877 137.86 40.3081C136.854 39.8758 135.241 39.4117 134.374 38.7584C133.577 38.1576 136.306 39.2709 137.246 39.6081C140.559 40.7972 143.699 40.9363 147.159 41.5736" stroke="#171717" stroke-width="1.5" stroke-linecap="round"/>
<path d="M69.9301 57.3753C71.2526 66.7855 71.8346 77.1768 77.3451 85.3063C78.2832 86.6903 79.5703 87.9594 80.3885 89.388C80.4837 89.5543 80.3364 89.0021 80.3691 88.8132C80.4927 88.0994 80.6652 87.3683 80.9057 86.6858C81.6744 84.5037 83.3534 83.3032 84.9419 81.6583C88.9154 77.5439 93.2493 73.339 96.3907 68.524C96.4888 68.3736 97.4865 67.0022 96.9703 67.9264C95.2328 71.0373 93.1534 73.9704 91.4155 77.0993C90.2792 79.145 89.0908 81.1577 87.9876 83.2208C87.7895 83.5912 87.375 83.8948 87.2092 84.2395C85.887 86.988 89.9191 78.7701 91.4383 76.1254C92.307 74.6132 94.5661 69.9908 94.2326 71.7025C93.8881 73.4702 92.8178 75.1628 92.0031 76.7341C90.8904 78.88 89.9398 81.1441 88.7137 83.2294C87.4488 85.3807 85.5381 85.2381 83.6167 86.3048C83.3632 86.4456 82.4026 87.3409 82.1986 87.1431C81.4836 86.4495 81.1945 84.2906 80.8357 83.3904C79.6503 80.4161 78.4465 77.4515 77.2492 74.4825C76.4676 72.5442 75.5993 70.5436 75.0481 68.5254C74.9512 68.1705 74.1477 66.088 74.5049 67.545C75.7305 72.5446 77.9308 77.3065 79.9199 82.0324C80.0252 82.2827 80.6592 83.4932 80.0631 82.6143C78.9513 80.975 78.1194 79.1572 77.3787 77.3272C76.6012 75.4063 75.7875 73.5021 75.0223 71.5762C74.1725 69.4377 75.1875 72.742 75.3524 73.2255C76.3369 76.113 77.6867 78.8578 78.6403 81.7576C79.2075 83.4822 79.5396 85.2487 80.0153 86.9953C80.25 87.8567 80.0278 87.7534 79.7177 86.9757C78.6217 84.2268 77.6089 81.3916 76.6944 78.5784C76.0876 76.7115 75.5489 74.7971 75.0365 72.9013C74.9624 72.6273 74.7308 71.2773 75.0239 72.3747C76.4318 77.6464 76.7484 83.1697 78.4394 88.3717C78.5171 88.6107 78.5441 88.7665 78.4825 88.3288C78.2929 86.9794 78.1126 85.6283 77.9015 84.282C77.3814 80.9642 76.5623 77.7161 75.914 74.4244C75.8904 74.3042 75.1286 69 76.3001 70.3522C78.5514 72.9507 78.6649 77.0371 79.1186 80.2651C79.142 80.4319 79.4824 81.7112 79.1509 81.1943C78.1842 79.6873 77.7137 77.7869 77.2043 76.0861C76.918 75.1303 76.5148 73.9764 76.5558 72.9581C76.5836 72.2667 77.8577 73.97 77.9057 74.0831C78.6366 75.8034 78.7594 77.709 79.017 79.5421" stroke="#171717" stroke-width="2" stroke-linecap="round"/>
<path d="M95.0609 66.2293C94.908 65.6311 93.8638 65.1392 93.3949 64.8661C91.3358 63.6667 89.3304 62.3828 87.2739 61.1801C84.5329 59.5771 81.9209 58.3895 78.7581 58.0273C77.5606 57.8901 76.2957 57.8752 75.1016 57.9759C73.7977 58.0859 73.5855 57.7417 75.3686 57.8647C82.1512 58.3323 88.1837 63.4609 93.2201 67.557C94.278 68.4173 95.3805 69.3229 96.2905 70.3447C96.3501 70.4115 94.4268 69.1746 94.0087 68.8837C91.6037 67.2107 89.1115 65.5217 86.8381 63.6742C85.8631 62.8819 84.839 61.575 83.6398 61.1133C82.211 60.5633 85.6141 63.4571 86.6795 64.5566C89.0753 67.0291 91.8341 69.0667 94.5921 71.1117C95.2104 71.5702 96.498 72.524 94.8975 71.5357C90.8107 69.0124 87.2209 65.7071 83.5262 62.6652C81.8466 61.2824 80.1071 59.953 78.3454 58.675C78.2531 58.6081 77.9453 58.4389 78.1767 58.6987C79.0169 59.6421 79.9636 60.5061 80.8222 61.4356C83.4343 64.2634 86.1801 66.9056 88.9567 69.5692C90.0268 70.5957 93.3225 73.4663 91.983 72.83C90.7112 72.2259 89.5553 71.1787 88.4818 70.2994C86.0396 68.2989 83.6914 66.1846 81.341 64.0781C78.9683 61.9517 76.6425 59.5464 74.0941 57.626C69.1082 53.8689 82.7414 66.6329 87.0637 71.1377C88.2286 72.3517 89.8757 73.5887 90.8355 74.9818C91.8453 76.4475 88.0935 72.7116 86.7203 71.5791C82.8684 68.4026 79.1017 65.1427 75.351 61.8482C75.1532 61.6745 72.3484 58.883 73.4929 60.168C76.2143 63.2235 79.6791 65.6541 82.625 68.4931C85.289 71.0604 87.8219 73.6925 90.1712 76.5496C93.9094 81.0958 81.0754 69.0227 77.079 64.7017C76.1416 63.6881 73.9173 60.3871 74.1811 61.7423C74.2884 62.2936 75.009 63.0232 75.306 63.4519C76.7763 65.5734 78.3068 67.653 79.726 69.8098C81.9171 73.1396 83.991 76.603 85.7199 80.1979C85.8379 80.4432 87.0645 83.3373 86.6234 82.43C84.8158 78.7121 82.0721 75.3352 79.6539 72.007C78.6116 70.5726 77.595 69.1137 76.5181 67.7049C76.0437 67.0843 75.2186 66.4218 74.8966 65.6965C74.7061 65.2677 75.5445 66.3756 75.8527 66.7294C77.0291 68.0801 78.1622 69.4731 79.2296 70.9117C81.4358 73.885 83.4061 77.1368 84.8828 80.5367C85.0049 80.8178 86.2108 83.4404 85.6107 82.8304C82.7157 79.8874 80.025 76.6431 77.779 73.1798C76.5701 71.3155 75.1007 69.1186 74.4239 66.9671C73.6799 64.6018 77.4943 70.8965 78.6396 73.0957C80.243 76.1744 81.421 79.3501 82.5344 82.6238C82.6846 83.0652 83.1185 83.9116 82.995 84.4144C82.9669 84.5286 82.7874 84.2905 82.7184 84.1952C82.1923 83.4684 81.7421 82.6748 81.2902 81.9017C78.1533 76.5347 75.203 70.8875 73.4684 64.8897C73.438 64.7846 73.2234 63.4962 73.3051 64.0771C73.6574 66.5836 73.9621 69.1001 74.4823 71.5789C75.0019 74.0552 75.6099 76.3942 76.5567 78.7333C76.6207 78.8914 76.8961 80.186 76.8417 79.7991C76.5899 78.0076 75.8682 76.4025 75.2426 74.7158C74.2215 71.9627 73.1438 69.226 72.0951 66.4834C71.834 65.8007 68.7001 58.4333 71.0283 58.1061C72.4525 57.9059 73.9559 57.4521 75.444 57.2643C78.1572 56.9219 80.6099 58.6827 82.7955 60.0893C86.0458 62.181 89.6303 63.7698 92.9938 65.6843C93.7245 66.1002 95.3733 67.709 96.2349 67.5879C96.473 67.5544 96.072 65.4295 95.9752 65.2161C95.7289 64.6727 94.8813 64.3922 94.3773 64.1628C93.4484 63.74 92.5382 63.1507 91.7173 62.5461C90.7517 61.8351 89.9144 60.9471 88.9176 60.2856C88.3203 59.8893 87.3895 59.4359 86.9488 58.8667C86.5386 58.3368 84.9668 57.7433 84.2845 57.57C83.209 57.2969 82.178 56.9814 81.066 57.1377C79.1991 57.4001 77.1692 57.9252 75.2948 57.7768C73.5887 57.6416 71.7711 58.0152 71.611 59.8918C71.2877 63.6832 73.5731 67.3444 74.8626 70.7882C76.0939 74.0764 77.207 77.262 79.8204 79.7491C80.232 80.1407 82.8465 83.1141 83.0498 81.4824C83.3284 79.2459 82.8031 76.6664 82.5048 74.457C82.3437 73.2636 82.2135 72.05 81.952 70.8731C81.8278 70.3143 81.5075 69.673 81.5413 69.0877C81.546 69.0065 82.2741 70.2171 82.2787 70.2251C83.0288 71.5433 83.7066 72.8881 84.3568 74.2581C85.4269 76.5131 86.664 78.6885 87.7177 80.9492C88.5785 82.7959 87.505 80.495 87.1178 79.9154C85.976 78.2059 84.8457 76.4894 83.7052 74.7798C82.1536 72.4542 88.0885 75.5404 88.6376 75.9542C89.3076 76.459 90.1841 77.1662 90.3089 78.0539C90.4181 78.8313 88.6602 78.8587 88.1697 78.9197C86.795 79.0907 84.679 78.3405 85.3154 76.4457C85.5478 75.7537 86.4129 75.327 87.0863 75.5824C88.5833 76.1501 88.8929 78.9944 89.0803 80.3277C89.2074 81.2326 89.7538 82.8682 89.2136 83.7247C88.8953 84.2295 88.2335 84.5684 87.7878 84.945C86.6598 85.8981 86.1012 84.9745 86.4604 83.7185C86.7937 82.5536 87.0489 86.383 86.3197 87.3507C85.4917 88.4495 84.4536 88.2122 83.3534 88.7137C83.0017 88.874 81.3218 89.4768 81.0227 89.0904C80.1066 87.907 79.9891 86.4573 79.7861 85.0128C79.4308 82.4845 85.1571 82.6652 83.9976 85.4285C83.2389 87.2367 82.78 86.4228 82.9804 84.7482C83.079 83.925 83.5613 83.2715 83.8596 82.5235C83.9259 82.3574 83.3732 84.1668 83.2495 84.4769" stroke="#171717" stroke-width="1.5" stroke-linecap="round"/>
<path d="M39.5666 81.3654C39.0318 77.5601 38.3308 73.9009 39.2952 70.0981C40.1463 66.7416 41.847 63.3861 43.6714 60.4738C45.4693 57.6041 47.6294 54.944 50.2664 52.7989C54.0277 49.7391 58.4886 47.699 63.1765 46.5443C65.8632 45.8825 68.6753 45.4601 71.4424 45.7985C73.9244 46.1021 76.1586 47.0269 78.257 48.3554C81.7966 50.5965 84.9638 53.4526 88.1918 56.1089C89.0099 56.7821 89.8188 57.4662 90.6384 58.1375C90.9834 58.42 91.9553 59.3242 91.6866 58.9684C91.012 58.075 90.3146 57.1629 89.5958 56.3041C87.8767 54.25 85.9695 52.1426 83.9078 50.4257C83.2717 49.8961 82.5614 49.4723 81.8238 49.1018C81.6816 49.0304 81.278 48.8247 81.3697 48.9548C82.5493 50.6283 84.2689 52.0912 85.6512 53.5781C87.5256 55.5944 89.3211 57.7167 91.3357 59.5976C91.428 59.6838 91.7212 59.9228 91.6173 59.851C90.456 59.0475 91.9328 60.022 90.0448 58.7481C85.7591 55.8565 81.2114 52.91 76.1528 51.5976C70.9455 50.2466 65.3475 50.5594 60.2229 52.1201C55.1178 53.6748 50.4889 56.6305 46.3781 59.9763C43.4724 62.3412 40.6051 65.0532 39.2222 68.6205C38.0105 71.7463 37.8269 75.2363 38.139 78.5434C38.2392 79.6047 38.146 80.9107 38.9823 79.2918C42.072 73.3109 45.4748 67.5046 49.2662 61.9369C50.766 59.7344 51.8807 58.2286 53.5644 56.3421C53.7835 56.0965 54.0446 55.8913 54.2698 55.6513C54.3409 55.5755 54.549 55.4317 54.4509 55.3974C54.3169 55.3506 54.1886 55.508 54.0665 55.5803C53.7985 55.7389 53.5286 55.8976 53.2828 56.0887C51.3572 57.5853 49.768 59.4814 48.2429 61.3661C45.902 64.2588 43.7097 67.2915 41.6759 70.4078C41.5815 70.5526 40.6334 72.0675 40.4049 72.3672C40.1779 72.6649 39.8058 73.118 40.0548 72.2934C40.9555 69.3098 42.7774 66.4774 44.4291 63.8644C44.6875 63.4557 44.9713 63.0636 45.2317 62.6562C45.3156 62.5249 45.4717 62.4046 45.4615 62.249C45.4329 61.8142 44.7404 62.7535 44.4539 63.0819C42.9205 64.839 41.6223 67.0192 40.8476 69.2238C40.5761 69.9965 40.7218 69.8702 41.3902 69.417C42.9727 68.3442 44.4588 67.1352 46.0157 66.0255C51.1434 62.3707 56.4265 58.8864 62.13 56.1868C66.6569 54.0441 71.7387 52.1956 76.8302 52.4162C78.0575 52.4694 79.2971 52.7273 80.4727 53.0758C80.716 53.1479 80.9608 53.2294 81.18 53.3572C81.2631 53.4056 80.9868 53.3454 80.8938 53.3212C75.4794 51.9146 70.2138 50.3716 64.5512 50.2406C58.4884 50.1005 52.2172 51.2423 46.9307 54.3221C46.6041 54.5124 46.2404 54.7077 46.0464 55.0321C45.9748 55.1518 46.3202 55.1451 46.4564 55.1151C48.7569 54.6086 50.9662 53.7522 53.2223 53.0746C56.4813 52.0959 61.4984 50.6044 64.8214 49.7458C65.9784 49.4468 69.3798 48.6147 68.373 49.2583C67.4925 49.8212 66.4975 50.1807 65.5553 50.6326C64.0206 51.3685 62.4712 52.0735 60.9424 52.8215C57.9262 54.2972 54.2407 56.1509 51.2919 57.8447C50.3981 58.3581 47.8246 59.8194 48.8528 59.7456C49.6434 59.6889 50.3927 59.3661 51.1511 59.1356C52.5919 58.6977 54.0195 58.2173 55.448 57.7409C59.0073 56.554 62.5704 55.3761 66.1027 54.1113C71.8528 52.0524 64.9769 53.4433 64.0925 53.562C63.1515 53.6883 58.7985 54.3127 57.4417 54.3796C55.2821 54.486 58.3451 53.5969 58.4066 53.5762C61.0818 52.6737 64.7698 51.6664 67.3929 50.9542C68.9451 50.5328 70.515 50.1763 72.0586 49.7245C72.8385 49.4961 73.6958 49.3858 74.3582 48.9151C75.0985 48.389 72.8545 47.8522 71.9946 47.5602C71.6216 47.4336 68.9878 46.5494 68.2862 46.3065C66.1872 45.5799 72.4204 47.9365 74.4478 48.8439C75.3109 49.2302 76.1831 49.5992 77.0226 50.0343C77.4304 50.2457 77.9535 50.3808 78.1817 50.7794C78.2883 50.9654 77.7959 51.0075 77.5815 51.0102C76.6802 51.0216 75.7828 50.8883 74.8838 50.8211C69.6332 50.4284 64.3825 50.0042 59.1128 50.015C58.714 50.0158 58.3042 49.9541 57.9167 50.0484C57.7778 50.0822 58.1751 50.1763 58.3142 50.2092C60.1736 50.6496 62.0651 50.9419 63.9401 51.3106C69.4395 52.3922 75.0326 53.3369 80.4541 54.7772C81.4603 55.0445 78.478 54.1207 77.4916 53.7877C72.4759 52.0941 67.4027 50.1516 62.143 49.3607C60.477 49.1101 59.8183 49.187 58.2519 49.0992C58.145 49.0932 57.8306 49.0756 57.9345 49.0501C58.2932 48.962 58.6652 48.9369 59.0333 48.9073C64.8964 48.4369 70.6893 48.7695 76.296 50.6578C77.6041 51.0983 79.2323 51.7227 80.4535 52.481C81.2049 52.9476 81.3784 53.1228 80.3803 53.2938C77.1445 53.8481 73.7889 53.328 70.553 53.808C69.764 53.9251 72.1252 54.085 72.9181 54.1727C75.2139 54.4268 76.6658 54.5751 78.9534 54.8944C81.2206 55.2108 83.2099 55.6405 85.3099 56.4847" stroke="#FFD424" stroke-width="1.5" stroke-linecap="round"/>
<path d="M96.8002 60.3128C96.5363 58.4346 96.2716 56.6815 96.6197 54.7915C96.9449 53.0258 97.8542 51.2304 98.784 49.7125C100.158 47.4695 101.775 45.3833 103.442 43.3512C105.236 41.1649 107.136 38.9212 109.371 37.1642C109.787 36.8376 110.22 36.5436 110.681 36.2854C110.913 36.1557 110.995 36.0335 110.652 36.1572C110.053 36.3731 109.621 37.012 109.227 37.4712C107.594 39.3752 106.084 41.4352 104.684 43.5131C102.625 46.5663 100.84 49.7667 99.1518 53.0352C98.6433 54.0194 98.2648 55.0437 97.8932 56.0847C97.7178 56.5759 97.5242 57.0676 97.1958 57.4784C97.0424 57.6703 97.3579 56.9777 97.3809 56.912C98.2137 54.5339 99.1554 52.1949 99.9722 49.8102C100.663 47.7931 101.441 45.735 101.89 43.6465C101.915 43.5322 102.253 42.4762 101.92 42.5231C101.494 42.5829 101.272 43.17 101.062 43.4817C100.153 44.8301 99.431 46.1931 98.7508 47.6716C98.0522 49.1902 97.0677 50.9953 97.1178 52.7255C97.1219 52.8659 97.1461 53.259 97.06 53.3733C96.8756 53.6179 96.8268 52.7444 96.8191 52.6793C96.6456 51.2142 97.0007 49.6569 97.3079 48.2328C97.609 46.8375 98.0327 45.4612 98.4871 44.1083C98.5082 44.0456 98.8076 43.1632 98.8704 43.3045C99.003 43.6032 98.8953 44.0602 98.8024 44.3507C98.5437 45.1593 98.3412 47.6535 98.1791 46.8202C98.1081 46.4555 98.0756 46.0782 98.1445 45.7113C98.4417 44.1295 99.1734 42.4986 99.8083 41.0334C101.582 36.9412 104.038 33.1897 107.798 30.6807C111.631 28.1235 115.991 27.6048 120.472 27.0193C122.391 26.7687 124.103 26.9926 126.005 27.35C127.572 27.6446 129.181 27.926 130.688 28.4672C132.371 29.0711 134.049 29.6913 135.703 30.3703C136.304 30.6172 136.971 30.8129 137.497 31.2099C137.928 31.5347 136.413 31.2108 135.881 31.1228C134.233 30.8506 132.575 30.5214 130.902 30.4552C127.972 30.3393 125.005 30.7495 122.104 31.0962C119.367 31.4232 116.638 31.7815 113.981 32.5356C111.128 33.3451 108.346 34.4187 105.644 35.6369C104.307 36.2401 102.622 36.7958 101.475 37.7501C101.369 37.8386 101.756 37.7357 101.885 37.687C104.261 36.7931 106.503 35.414 108.768 34.2827C110.73 33.3023 112.702 32.3652 114.767 31.62C114.837 31.5946 116.254 31.2032 116.161 31.2587C114.948 31.9855 113.689 32.6046 112.487 33.363C109.399 35.3117 106.347 37.4019 103.535 39.7377C103.477 39.7865 101.801 41.0426 102.748 40.8077C104.859 40.2846 106.921 39.4502 108.977 38.7524C109.432 38.5978 110.753 38.0382 110.346 38.2953C109.781 38.6528 109.145 38.887 108.569 39.2287C107.629 39.7876 106.472 40.5432 105.608 41.2219C104.961 41.7299 103.866 42.6584 105.584 42.0743C108.706 41.013 111.633 39.4335 114.75 38.3602C116.036 37.917 114.341 38.9479 114.231 39.0285C112.115 40.5889 112.103 40.5407 109.881 42.325C107.877 43.9341 107.981 43.9203 106.257 45.3706C105.822 45.7363 104.959 46.5215 105.894 45.4547C110.351 40.3665 115.356 35.4635 120.984 31.6836C121.24 31.5121 121.534 31.4007 121.778 31.2136C121.873 31.1413 121.55 31.2814 121.442 31.3325C119.926 32.0545 117.575 33.299 116.283 34.0094C113.54 35.517 110.511 37.2587 107.84 38.9012C107.628 39.0317 104.762 40.8067 104.063 41.45C103.681 41.8007 105.023 41.0513 105.47 40.7892C106.443 40.218 109.04 38.6159 109.927 38.0566C110.002 38.0086 112.483 36.447 112.89 36.0742C113.688 35.3426 110.797 36.6509 109.799 37.071C108.74 37.5168 107.704 38.0182 106.632 38.4313C105.89 38.7174 106.365 38.3921 106.765 38.0432C107.726 37.2052 108.72 36.4052 109.688 35.5758C109.886 35.406 113.415 32.5618 110.135 34.5206C106.547 36.6636 103.042 39.089 100.026 41.9953C99.6802 42.3287 98.9479 43.4961 99.0124 43.0199C99.1339 42.1219 102.341 39.6128 102.526 39.4605C106.347 36.3099 110.551 33.8828 115.11 31.9799C115.905 31.648 116.749 31.4563 115.595 31.5864C114.139 31.7505 112.691 31.9817 111.238 32.1657C110.508 32.258 109.781 32.3854 109.047 32.424C108.835 32.4351 108.282 32.4756 108.419 32.3137C108.715 31.9648 109.23 31.8859 109.652 31.7103C110.514 31.3522 111.395 31.0426 112.269 30.714C113.127 30.3912 113.985 30.0675 114.847 29.7562C115.202 29.628 115.57 29.2558 115.921 29.3957C116.232 29.5199 115.318 29.6872 115.011 29.8214C113.249 30.5914 111.465 31.3068 109.704 32.078C109.18 32.3076 108.63 32.4942 108.146 32.7988C108.037 32.8667 108.404 32.8448 108.528 32.8166C110.592 32.3495 112.613 31.7117 114.662 31.1827C119.381 29.9641 116.931 30.6222 120.918 29.6418C121.762 29.4342 121.806 29.548 122.238 29.2248C122.53 29.0057 120.574 29.2032 123.022 29.1586C124.095 29.1391 126.109 29.1424 127.095 29.1817C127.622 29.2027 128.158 29.1827 128.672 29.3019C128.761 29.3227 128.576 29.4892 128.485 29.5046C125.556 30.0028 122.409 30.0441 119.445 29.9921C117.423 29.9567 118.784 29.7514 119.779 29.6199C122.697 29.2345 121.763 29.4713 124.451 29.1618C124.616 29.1428 125.101 29.0849 124.938 29.0548C124.494 28.9731 124.036 29.0146 123.585 29.0024C123.006 28.9867 120.344 28.9476 119.619 28.9092C118.105 28.8291 122.11 28.6132 121.555 28.9182C98.1221 41.7914 129.76 28.1676 116.704 31.0005C115.887 31.4567 114.973 31.8709 114.411 32.6184C113.242 34.1735 116.077 34.6538 116.5 34.7728C117.215 34.9737 117.982 34.9482 118.694 35.1593C118.919 35.2258 119.397 35.4059 119.251 35.5883C118.915 36.0052 118.294 36.0724 117.797 36.2722C117.071 36.5643 116.328 36.8109 115.587 37.0625C113.255 37.8548 115.596 36.953 116.002 36.7948C119.257 35.5243 122.512 34.1501 125.848 33.1007C128.292 32.332 130.881 32.6513 133.36 33.1147C135.96 33.6008 138.394 34.4201 140.763 35.5754" stroke="#FFD424" stroke-width="1.5" stroke-linecap="round"/>
<path d="M140.664 35.5891C142.713 35.8173 144.927 35.7561 146.629 37.0388C147.282 37.5307 148.783 39.4959 148.279 38.8525C147.686 38.0957 146.932 37.4592 146.314 36.7192C144.717 34.8078 143.328 32.9224 141.213 31.5311C137.386 29.0134 133.112 27.972 128.66 27.2302C128.32 27.1735 127.302 26.9763 127.641 27.0426C129.367 27.3797 131.075 28.0211 132.715 28.6231C138.162 30.6218 143.651 32.9702 148.59 36.041C149.726 36.7476 148.7 36.3928 148.218 36.2201C146.571 35.6299 144.964 34.9321 143.354 34.2516C141.601 33.5108 139.868 32.6841 138.096 31.9911C137.389 31.7147 138.476 32.0852 138.578 32.1274C140.579 32.956 142.482 34.1201 144.308 35.2753C145.579 36.0792 146.62 36.9366 147.614 38.0418C147.974 38.4425 148.21 38.6666 148.687 38.889C149.001 39.0355 149.413 39.2334 149.466 39.6119C149.484 39.7394 149.608 40.139 149.51 40.2344C149.167 40.5668 145.971 38.1024 145.739 37.9634C138.817 33.8054 130.52 32.3759 122.523 32.7573C121.783 32.7926 121.045 32.8615 120.306 32.9144C120.212 32.9211 119.656 32.9918 120.281 32.8904C125.198 32.0924 130.084 31.8418 135.036 32.5425C136.636 32.7689 138.196 33.0737 139.741 33.5353C140.022 33.6193 140.378 33.6222 140.563 33.8499C140.664 33.9751 140.255 33.964 140.094 33.9709C139.538 33.9945 138.981 33.9577 138.425 33.9408C135.012 33.8373 131.622 33.7415 128.207 33.8497C126.533 33.9027 124.785 34.1271 123.102 34.0543C122.765 34.0397 123.774 33.9611 124.111 33.9732C125.742 34.0319 127.363 34.2618 128.976 34.4969C130.301 34.6902 131.621 34.9234 132.951 35.0851" stroke="#FFD424" stroke-width="1.5" stroke-linecap="round"/>
<circle cx="30.1294" cy="30.1294" r="30.1294" transform="matrix(-0.943734 0.330707 0.330707 0.943734 143.477 16.1806)" stroke="#171717" stroke-width="1.5"/>
<circle cx="30.1294" cy="30.1294" r="30.1294" transform="matrix(-0.943734 0.330707 0.330707 0.943734 86.6094 36.1084)" stroke="#171717" stroke-width="1.5"/>
<path d="M153.837 45.7491L154.378 45.2297L154.616 45.4766L154.584 45.8175L153.837 45.7491ZM96.9665 65.6711L96.4256 66.1906L96.1885 65.9437L96.2197 65.6028L96.9665 65.6711ZM153.296 46.2686C144.79 37.4095 131.587 33.8098 119.242 38.1357L118.746 36.7201C131.665 32.1928 145.48 35.9625 154.378 45.2297L153.296 46.2686ZM119.242 38.1357C106.899 42.4609 98.8322 53.511 97.7134 65.7395L96.2197 65.6028C97.39 52.811 105.829 41.2466 118.746 36.7201L119.242 38.1357ZM97.5075 65.1517C106.014 74.0107 119.217 77.6105 131.562 73.2845L132.058 74.7001C119.139 79.2275 105.324 75.4577 96.4256 66.1906L97.5075 65.1517ZM131.562 73.2845C143.905 68.9594 151.972 57.9093 153.091 45.6808L154.584 45.8175C153.414 58.6092 144.975 70.1737 132.058 74.7001L131.562 73.2845Z" fill="#171717"/>
<path d="M96.9742 65.6765L97.5151 65.157L97.7522 65.4039L97.7211 65.7448L96.9742 65.6765ZM40.1033 85.5985L39.5623 86.118L39.3252 85.8711L39.3564 85.5302L40.1033 85.5985ZM96.4332 66.196C87.9263 57.3369 74.7236 53.7371 62.3787 58.0631L61.8826 56.6475C74.8021 52.1202 88.6164 55.8899 97.5151 65.157L96.4332 66.196ZM62.3787 58.0631C50.036 62.3883 41.9689 73.4383 40.8501 85.6668L39.3564 85.5302C40.5267 72.7384 48.9655 61.174 61.8826 56.6475L62.3787 58.0631ZM40.6442 85.079C49.1512 93.9381 62.3538 97.5379 74.6988 93.2119L75.1948 94.6275C62.2753 99.1548 48.461 95.3851 39.5623 86.118L40.6442 85.079ZM74.6988 93.2119C87.0414 88.8868 95.1085 77.8367 96.2273 65.6082L97.7211 65.7448C96.5507 78.5366 88.1119 90.101 75.1948 94.6275L74.6988 93.2119Z" fill="#171717"/>
<path d="M53.7656 47.9807L2.26603 79.088" stroke="#171717" stroke-width="1.5" stroke-linecap="round" stroke-linejoin="round"/>
<path d="M74.1699 104.138L13.1122 112.111" stroke="#171717" stroke-width="1.5" stroke-linecap="round" stroke-linejoin="round"/>
<path d="M115.039 26.1455L57.363 46.3566" stroke="#171717" stroke-width="1.5" stroke-linecap="round" stroke-linejoin="round"/>
<path d="M134.969 83.0131L77.2927 103.224" stroke="#171717" stroke-width="1.5" stroke-linecap="round" stroke-linejoin="round"/>
<path d="M71.0258 43.6502C78.1297 42.6518 90.1328 51.0936 92.4989 57.3664C94.1421 61.7224 97.5339 64.4043 98.2136 69.2405C98.744 73.0146 99.3741 79.6627 96.5102 82.6643C93.8718 85.4295 92.4393 89.469 89.6593 92.304C85.7206 96.3206 81.6064 98.3134 77.0899 101.395C72.86 104.281 67.861 104.946 62.8158 105.655C58.2887 106.291 54.7263 101.314 52.0335 98.2681C48.8662 94.6851 44.4808 92.2399 41.6359 88.348C38.9721 84.7039 38.3128 80.9216 37.6612 76.2856C36.6528 69.1099 40.0883 57.59 45.0699 52.369C47.2333 50.1016 48.0581 46.8781 51.4119 46.4068C55.9382 45.7706 60.4645 45.1345 64.9908 44.4984C73.7867 43.2622 84.9101 47.7571 91.8141 52.8988" stroke="#171717" stroke-width="1.5" stroke-linecap="round"/>
<path d="M128.159 24.5578C135.263 23.5594 147.266 32.0012 149.632 38.2739C151.275 42.63 154.667 45.3119 155.346 50.1481C155.877 53.9221 156.507 60.5703 153.643 63.5718C151.005 66.3371 149.572 70.3766 146.792 73.2116C142.853 77.2282 138.739 79.221 134.223 82.3027C129.993 85.189 124.994 85.8535 119.949 86.5626C115.422 87.1988 111.859 82.222 109.166 79.1757C105.999 75.5927 101.614 73.1475 98.7687 69.2556C96.105 65.6115 95.4456 61.8292 94.7941 57.1932C93.7856 50.0175 97.2211 38.4976 102.203 33.2766C104.366 31.0092 105.191 27.7857 108.545 27.3143C113.071 26.6782 117.597 26.0421 122.124 25.406C130.92 24.1698 142.043 28.6647 148.947 33.8064" stroke="#171717" stroke-width="1.5" stroke-linecap="round"/>
<path d="M127.945 84.8592C124.634 85.3246 121.461 86.3794 118.178 86.8409C117.029 87.0023 115.723 87.0799 114.807 87.7712C113.799 88.5328 112.186 89.0273 111.023 89.6053C109.88 90.1733 108.136 91.225 106.954 91.4625C104.156 92.0251 101.524 94.0523 98.6976 94.4495C96.2869 94.7883 94.0572 96.4141 91.7868 97.2643C89.8094 98.0047 88.3249 99.2561 86.1728 99.5585C83.7536 99.8985 80.6744 99.8575 78.665 101.375C77.8895 101.96 76.6613 101.489 75.8592 101.989C74.9535 102.554 73.6623 102.534 72.6079 102.683C68.6423 103.24 64.5102 104.43 60.4518 105" stroke="#171717" stroke-width="1.5" stroke-linecap="round"/>
<path d="M59.4463 103.999C54.5878 104.682 49.5815 105.13 44.8577 106.337C41.4476 107.209 37.9246 107.354 34.5659 108.562C31.3571 109.715 27.9444 110.253 24.5704 110.727C22.0065 111.088 18.0021 110.245 15.4993 110.463C14.6311 110.539 13.8323 110.393 12.9198 110.521C12.0425 110.645 10.4847 110.788 9.60823 110.665C8.8402 110.558 8.17686 110.579 7.31299 110.7C6.26493 110.848 5.68237 110.555 4.69384 110.477C2.90125 110.335 1.59497 109.179 0.184684 108.117C-0.910209 107.292 -2.05755 106.447 -2.79835 105.424C-3.68887 104.194 -5.52268 103.85 -5.77744 102.037C-5.9963 100.48 -6.54894 98.7138 -6.78924 97.004C-6.90811 96.1582 -7.02699 95.3123 -7.14587 94.4665C-7.28276 93.4924 -6.86348 92.9253 -6.88445 91.9943C-6.91928 90.4476 -5.40145 88.7022 -5.42405 87.2225C-5.44997 85.5253 -3.12786 83.1651 -2.0418 82.0454C-1.08846 81.0625 1.84557 79.9503 2.20558 78.6916C2.37938 78.0841 4.556 76.3422 5.18413 76.0574C6.71346 75.364 7.97242 74.1172 9.43483 73.329C11.1756 72.3908 12.5024 71.0677 14.4391 70.427C15.966 69.9219 18.7785 68.4875 20.3042 68.0975C21.7142 67.737 24.2588 66.7736 25.2955 65.7047C28.2418 62.667 32.2125 61.0641 35.7493 58.8572C37.5341 57.7436 39.3862 56.902 41.0859 55.6717C41.7239 55.21 42.2223 54.5935 42.8469 54.1219C43.3343 53.754 44.6478 53.069 44.9181 52.6131C45.5042 51.6245 47.9675 50.738 49.0138 50.3462C50.9577 49.6183 53.1542 48.8307 54.875 47.6451C58.7064 45.0055 63.094 42.7559 67.477 40.9185C69.4712 40.0826 71.351 39.0041 73.5408 38.6964C75.6085 38.4058 77.6761 38.1152 79.7438 37.8246C82.1873 37.4812 84.1701 35.6291 86.6137 35.2856C87.7382 35.1276 89.238 35.1494 90.2415 34.6236C91.5416 33.9423 93.0411 33.7976 94.2951 33.1406C96.5788 31.944 101.197 29.2805 103.788 28.9164C105.093 28.733 109.012 28.1836 109.441 26.9041" stroke="#171717" stroke-width="1.5" stroke-linecap="round"/>
<path d="M40.4835 81.944C40.3224 80.7982 40.2291 79.8518 40.5966 78.7168C41.0481 77.3225 41.6357 75.7762 42.3857 74.5111C44.1506 71.5339 46.0726 68.7925 48.5566 66.3586C51.5808 63.3954 54.7698 60.6288 58.3656 58.3748C59.8831 57.4236 61.4777 56.7647 63.1729 56.2006C65.8209 55.3193 68.5862 54.4442 71.3914 54.2837C76.5668 53.9875 81.5917 55.4254 86.3605 57.2991C88.2248 58.0316 90.1995 58.3914 92.0776 59.0898C92.8653 59.3827 93.864 59.8528 94.1409 60.7329C94.3137 61.2822 94.3357 61.8951 94.4156 62.4636" stroke="#171717" stroke-width="1.5" stroke-linecap="round"/>
<path d="M39.9528 85.0387C40.2522 85.056 40.5416 85.3911 40.7743 85.5529C41.8282 86.2852 42.9944 86.887 44.0712 87.5956C46.5032 89.196 48.9529 91.0108 51.5444 92.3382C54.0519 93.6226 56.7864 94.5971 59.5797 94.9869C63.6243 95.5514 67.8542 95.6949 71.8438 94.7053C75.8505 93.7114 79.4563 91.5036 82.9826 89.4185C85.7397 87.7882 88.2454 85.7144 89.8474 82.8874C90.9825 80.8844 92.2809 79.0643 93.5358 77.1428C94.5782 75.5469 95.4147 73.7703 95.5108 71.8405C95.5696 70.6609 95.3438 69.4871 95.1802 68.3231" stroke="#171717" stroke-width="1.5" stroke-linecap="round"/>
<path d="M96.8861 65.93C96.7756 65.1441 96.6526 64.3589 96.5546 63.5713C96.3879 62.2317 97.3025 60.7004 97.7975 59.5116C98.9285 56.7953 100.657 54.7171 102.444 52.4297C105.53 48.4805 109.151 44.8926 113.136 41.8598C117.948 38.1979 124.262 36.7316 130.185 36.1076C132.536 35.8599 134.92 35.9752 137.246 36.3935C138.894 36.6898 140.439 37.3453 142.02 37.8761C143.513 38.3776 146.364 38.7451 146.927 40.5362" stroke="#171717" stroke-width="1.5" stroke-linecap="round"/>
<path d="M96.3199 64.3096C96.4708 64.7657 97.1357 65.0195 97.4799 65.3052C98.2707 65.9615 99.0245 66.6303 99.8865 67.1959C102.282 68.7676 104.845 70.3107 107.416 71.578C109.692 72.6999 112.108 73.6704 114.595 74.1834C117.67 74.8175 120.77 74.8142 123.872 74.3781C127.767 73.8308 131.914 72.925 135.425 71.0923C137.351 70.0866 139.168 68.8581 140.91 67.5633C142.425 66.4382 143.565 65.0412 144.847 63.6729C146.314 62.1061 147.484 60.3182 148.699 58.5539C149.965 56.715 151.34 54.8107 152.067 52.678C152.662 50.9319 152.644 48.945 152.39 47.1356" stroke="#171717" stroke-width="1.5" stroke-linecap="round"/>
</g>
<path d="M42.2355 138.404C45.8845 138.404 48.1502 135.431 49.43 132.233C49.8157 131.269 50.241 128.187 50.241 129.226C50.241 130.696 50.1885 132.176 50.241 133.645C50.3502 136.702 52.9707 137.768 55.3687 138.64C56.0935 138.903 57.5379 138.873 58.0633 139.294C58.3603 139.531 58.3524 139.346 57.7625 139.346C57.0945 139.346 56.3091 139.203 55.6565 139.058C54.7259 138.852 53.1371 138.569 52.3601 139.346C51.2546 140.451 50.8401 142.207 50.0578 143.53C49.2496 144.897 48.4755 146.747 48.3573 148.342C48.3194 148.853 48.1219 150.586 48.1219 149.126C48.1219 146.759 48.9812 144.532 49.0637 142.222C49.1007 141.185 49.1545 140.294 48.3573 139.581C46.7098 138.108 44.0504 138.404 42 138.404" stroke="#171717" stroke-width="2" stroke-linecap="round"/>
<path d="M37.8954 195C37.7168 198.215 38.6099 202.502 43.9688 202.502C42.242 202.324 37.8954 203.931 37.8954 210.362C38.0145 208.278 36.8237 202.502 32.0008 202.502C33.3702 202.443 37.8954 202.574 37.8954 195Z" stroke="#171717" stroke-width="2" stroke-linecap="round" stroke-linejoin="round"/>
<path d="M37.2563 200.031C37.3445 200.042 37.5536 200.467 37.6264 200.564C37.9713 201.024 38.3682 201.339 38.7746 201.745C39.2634 202.234 39.8013 202.674 40.293 203.165" stroke="#171717" stroke-width="2" stroke-linecap="round" stroke-linejoin="round"/>
<path d="M36.082 201.598C36.3671 201.598 36.5762 201.82 36.7895 201.99C37.285 202.384 37.7817 202.756 38.335 203.067C38.8873 203.378 39.3523 203.87 39.9023 204.145" stroke="#171717" stroke-width="2" stroke-linecap="round" stroke-linejoin="round"/>
<path d="M167.895 90C167.717 93.2153 168.61 97.5023 173.969 97.5023C172.242 97.3237 167.895 98.9313 167.895 105.362C168.015 103.278 166.824 97.5023 162.001 97.5023C163.37 97.4428 167.895 97.5738 167.895 90Z" stroke="#171717" stroke-width="2" stroke-linecap="round" stroke-linejoin="round"/>
<path d="M167.256 95.0308C167.345 95.0418 167.554 95.4671 167.626 95.5641C167.971 96.024 168.368 96.3386 168.775 96.745C169.263 97.2338 169.801 97.6737 170.293 98.1654" stroke="#171717" stroke-width="2" stroke-linecap="round" stroke-linejoin="round"/>
<path d="M166.082 96.5981C166.367 96.5981 166.576 96.8203 166.79 96.99C167.285 97.3841 167.782 97.7562 168.335 98.0675C168.887 98.3782 169.352 98.87 169.902 99.145" stroke="#171717" stroke-width="2" stroke-linecap="round" stroke-linejoin="round"/>
</g>
</g>
<defs>
<filter id="filter0_dd_3017_28171" x="0" y="0" width="216" height="316" filterUnits="userSpaceOnUse" color-interpolation-filters="sRGB">
<feFlood flood-opacity="0" result="BackgroundImageFix"/>
<feColorMatrix in="SourceAlpha" type="matrix" values="0 0 0 0 0 0 0 0 0 0 0 0 0 0 0 0 0 0 127 0" result="hardAlpha"/>
<feOffset dy="2"/>
<feGaussianBlur stdDeviation="1"/>
<feComposite in2="hardAlpha" operator="out"/>
<feColorMatrix type="matrix" values="0 0 0 0 0 0 0 0 0 0 0 0 0 0 0 0 0 0 0.02 0"/>
<feBlend mode="normal" in2="BackgroundImageFix" result="effect1_dropShadow_3017_28171"/>
<feColorMatrix in="SourceAlpha" type="matrix" values="0 0 0 0 0 0 0 0 0 0 0 0 0 0 0 0 0 0 127 0" result="hardAlpha"/>
<feOffset dy="4"/>
<feGaussianBlur stdDeviation="4"/>
<feComposite in2="hardAlpha" operator="out"/>
<feColorMatrix type="matrix" values="0 0 0 0 0 0 0 0 0 0 0 0 0 0 0 0 0 0 0.06 0"/>
<feBlend mode="normal" in2="effect1_dropShadow_3017_28171" result="effect2_dropShadow_3017_28171"/>
<feBlend mode="normal" in="SourceGraphic" in2="effect2_dropShadow_3017_28171" result="shape"/>
</filter>
<filter id="filter1_dd_3017_28171" x="55.668" y="109.196" width="187.461" height="184.543" filterUnits="userSpaceOnUse" color-interpolation-filters="sRGB">
<feFlood flood-opacity="0" result="BackgroundImageFix"/>
<feColorMatrix in="SourceAlpha" type="matrix" values="0 0 0 0 0 0 0 0 0 0 0 0 0 0 0 0 0 0 127 0" result="hardAlpha"/>
<feOffset dy="2"/>
<feGaussianBlur stdDeviation="1"/>
<feComposite in2="hardAlpha" operator="out"/>
<feColorMatrix type="matrix" values="0 0 0 0 0 0 0 0 0 0 0 0 0 0 0 0 0 0 0.02 0"/>
<feBlend mode="normal" in2="BackgroundImageFix" result="effect1_dropShadow_3017_28171"/>
<feColorMatrix in="SourceAlpha" type="matrix" values="0 0 0 0 0 0 0 0 0 0 0 0 0 0 0 0 0 0 127 0" result="hardAlpha"/>
<feOffset dy="4"/>
<feGaussianBlur stdDeviation="4"/>
<feComposite in2="hardAlpha" operator="out"/>
<feColorMatrix type="matrix" values="0 0 0 0 0 0 0 0 0 0 0 0 0 0 0 0 0 0 0.06 0"/>
<feBlend mode="normal" in2="effect1_dropShadow_3017_28171" result="effect2_dropShadow_3017_28171"/>
<feBlend mode="normal" in="SourceGraphic" in2="effect2_dropShadow_3017_28171" result="shape"/>
</filter>
<filter id="filter2_dd_3017_28171" x="-15.9219" y="19.6909" width="180.473" height="105.303" filterUnits="userSpaceOnUse" color-interpolation-filters="sRGB">
<feFlood flood-opacity="0" result="BackgroundImageFix"/>
<feColorMatrix in="SourceAlpha" type="matrix" values="0 0 0 0 0 0 0 0 0 0 0 0 0 0 0 0 0 0 127 0" result="hardAlpha"/>
<feOffset dy="2"/>
<feGaussianBlur stdDeviation="1"/>
<feComposite in2="hardAlpha" operator="out"/>
<feColorMatrix type="matrix" values="0 0 0 0 0 0 0 0 0 0 0 0 0 0 0 0 0 0 0.02 0"/>
<feBlend mode="normal" in2="BackgroundImageFix" result="effect1_dropShadow_3017_28171"/>
<feColorMatrix in="SourceAlpha" type="matrix" values="0 0 0 0 0 0 0 0 0 0 0 0 0 0 0 0 0 0 127 0" result="hardAlpha"/>
<feOffset dy="4"/>
<feGaussianBlur stdDeviation="4"/>
<feComposite in2="hardAlpha" operator="out"/>
<feColorMatrix type="matrix" values="0 0 0 0 0 0 0 0 0 0 0 0 0 0 0 0 0 0 0.06 0"/>
<feBlend mode="normal" in2="effect1_dropShadow_3017_28171" result="effect2_dropShadow_3017_28171"/>
<feBlend mode="normal" in="SourceGraphic" in2="effect2_dropShadow_3017_28171" result="shape"/>
</filter>
<linearGradient id="paint0_linear_3017_28171" x1="-5.60393" y1="295.5" x2="215.949" y2="295.5" gradientUnits="userSpaceOnUse">
<stop stop-color="#56B2DD"/>
<stop offset="0.192708" stop-color="#EAFE83"/>
<stop offset="0.385417" stop-color="#F3BCF7"/>
<stop offset="0.583333" stop-color="#B8BAFA"/>
<stop offset="0.786458" stop-color="#8EF5B1"/>
<stop offset="1" stop-color="#7FC7F7"/>
</linearGradient>
<linearGradient id="paint1_linear_3017_28171" x1="-5.60393" y1="295.5" x2="215.949" y2="295.5" gradientUnits="userSpaceOnUse">
<stop/>
<stop offset="0.192708" stop-color="white"/>
<stop offset="0.385417"/>
<stop offset="0.583333" stop-color="white"/>
<stop offset="0.786458"/>
<stop offset="1" stop-color="white"/>
</linearGradient>
<linearGradient id="paint2_linear_3017_28171" x1="-5.60393" y1="295.5" x2="215.949" y2="295.5" gradientUnits="userSpaceOnUse">
<stop/>
<stop offset="0.192708" stop-color="white"/>
<stop offset="0.385417"/>
<stop offset="0.583333" stop-color="white"/>
<stop offset="0.786458"/>
<stop offset="1" stop-color="white"/>
</linearGradient>
<clipPath id="clip0_3017_28171">
<rect width="178" height="236" fill="white" transform="translate(19 15)"/>
</clipPath>
</defs>
</svg>
