<svg width="321" height="275" viewBox="0 0 321 275" fill="none" xmlns="http://www.w3.org/2000/svg">
<g clip-path="url(#clip0_1945_287)">
<path d="M41.1118 74.5461C40.8242 75.5776 40.7921 76.6636 41.0181 77.7103L73.0484 226.055C75.2275 236.148 85.1758 242.563 95.2685 240.384L179.087 222.286C181.948 225.051 185.662 227.512 189.695 229.565C195.515 232.527 202.624 234.959 210.351 236.305C225.643 238.969 244.122 237.482 259.921 226.383C263.598 224.323 268.128 220.313 272.453 215.159C277.049 209.681 281.782 202.477 285.347 193.911C292.516 176.682 294.928 153.924 282.025 129.238C281.027 127.054 279.239 122.806 277.688 118.568C276.895 116.402 276.196 114.325 275.7 112.578C275.452 111.705 275.272 110.973 275.155 110.391C275.104 110.131 275.071 109.935 275.051 109.794C275.093 109.506 275.147 109.16 275.213 108.737C275.299 108.19 275.405 107.511 275.532 106.654C275.793 104.881 276.085 102.673 276.234 100.402C276.379 98.179 276.408 95.6133 276.027 93.1952C275.678 90.9856 274.806 87.6692 272.116 85.2793L267.734 90.212L272.116 85.2792C270.131 83.5158 267.843 83.0694 266.35 82.9855C255.284 82.3641 242.982 92.8316 241.883 111.769C241.61 111.653 241.33 111.541 241.053 111.442C240.686 111.312 239.974 111.075 239.113 110.973L239.102 110.972C238.874 110.945 238.159 110.86 237.227 110.994C234.784 110.413 232.246 110.311 229.922 110.448C226.027 110.679 221.89 111.631 218.053 113.121C214.232 114.604 210.416 116.734 207.333 119.523C205.671 121.027 204.103 122.836 202.909 124.941C201.547 124.972 199.424 125.329 197.62 126.903C197.487 126.357 197.347 125.776 197.198 125.16C196.098 120.591 194.597 114.239 192.845 106.823L192.45 105.149C188.611 88.9023 183.679 68.0533 179.187 49.9921C175.784 36.304 161.811 28.2539 148.291 31.8852L59.2232 55.8069C50.5884 58.126 43.8195 64.8314 41.4189 73.4439L41.1118 74.5461ZM247.722 114.431C247.792 114.442 247.805 114.449 247.751 114.438C247.742 114.436 247.732 114.433 247.722 114.431ZM200.093 128.34C200.093 128.341 200.088 128.341 200.076 128.341C200.087 128.341 200.093 128.34 200.093 128.34Z" fill="white" stroke="white" stroke-width="13.1968" stroke-linejoin="round"/>
<path d="M66.1991 75.4381C64.5612 67.4547 69.4282 59.5778 77.3008 57.4708L151.169 37.7013C159.452 35.4843 167.951 40.4621 170.069 48.7714L206.187 190.474C208.357 198.99 202.971 207.593 194.362 209.359L112.825 226.088C104.496 227.797 96.3576 222.43 94.6486 214.1L66.1991 75.4381Z" fill="#FFD424" stroke="black" stroke-width="2.19947" stroke-linecap="round"/>
<path d="M61.5297 75.6136C60.0074 67.6074 64.9879 59.8017 72.8901 57.8089L147.037 39.1104C155.351 37.0135 163.777 42.1137 165.774 50.4528L199.838 192.663C201.885 201.21 196.375 209.734 187.741 211.375L105.971 226.922C97.6173 228.511 89.5579 223.026 87.9696 214.673L61.5297 75.6136Z" fill="white" stroke="black" stroke-width="2.18347" stroke-linecap="round"/>
<path d="M93.2035 198.522C93.2078 198.686 93.4715 199.605 93.5058 199.465C94.0359 197.297 92.0814 193.324 91.4079 191.319C90.8339 189.61 89 184.532 89.7461 186.173C90.7994 188.489 92.3491 190.524 93.5463 192.768C94.2192 194.029 94.9112 195.246 95.6257 196.477C96.2226 197.506 95.2592 193.753 95.2125 193.596C94.1477 190.013 92.7621 186.53 91.7602 182.93C91.5051 182.013 90.3224 178.781 91.827 180.967C93.5419 183.458 95.0243 186.1 96.7829 188.562C97.668 189.8 99.3432 193.701 99.5536 192.193C99.6044 191.829 98.5395 190.546 98.4566 190.419C96.8541 187.966 95.4873 185.399 94.2905 182.724C92.4783 178.673 90.5125 174.495 89.4411 170.173C89.2863 169.549 88.1703 167.009 89.1605 168.556C90.8196 171.149 93.0698 173.413 95.0374 175.77C95.1786 175.939 97.1611 178.098 97.1352 177.934C97.0295 177.262 96.353 176.317 96.0679 175.783C94.6226 173.074 93.2434 170.347 92.0648 167.509C90.5695 163.909 89.1752 160.162 88.381 156.334C87.7232 153.163 89.326 155.989 90.2859 157.195C92.6849 160.209 95.0875 163.217 97.4791 166.236C99.7098 169.052 97.6975 165.549 97.0547 164.425C93.3781 157.995 91.0947 151.23 88.7935 144.238C87.3448 139.836 93.1153 153.07 97.151 155.349C97.5392 155.568 96.7251 154.565 96.5058 154.177C95.6833 152.722 94.9262 151.231 94.2085 149.721C92.1714 145.436 90.8063 141.053 89.4215 136.535C89.2807 136.076 88.5828 134.698 88.7641 134.155C88.7968 134.057 91.211 137.539 91.2732 137.635C93.2966 140.764 95.4036 143.849 97.6579 146.817C101.78 152.243 90.9477 134.92 88.301 128.64C87.3073 126.283 86.3534 123.771 85.8271 121.257C85.5123 119.753 87.4072 123.895 88.2879 125.154C90.5712 128.418 93.119 131.335 95.9739 134.103C96.5451 134.657 97.0814 135.321 97.684 135.841C97.7858 135.928 96.5589 133.289 96.5046 133.197C93.7827 128.613 91.0416 124.327 89.0453 119.349C88.9199 119.036 86.7302 114.038 87.1136 113.734C87.1301 113.721 95.0281 122.784 96.1377 123.837C96.3613 124.049 93.9621 119.779 93.5544 119.051C91.2649 114.968 89.0734 110.728 87.2759 106.4C87.2042 106.227 85.9303 103.245 86.1958 103.021C86.3052 102.929 91.4552 108.736 91.8464 109.171C92.9879 110.441 96.075 114.46 95.3334 112.922C94.1523 110.473 92.6693 108.15 91.4769 105.694C90.2336 103.134 89.5602 100.655 88.756 97.9609C88.4326 96.8775 88.253 96.5168 89.1623 97.5935C90.3865 99.0434 91.6955 100.488 93.0579 101.809C94.4308 103.141 94.0124 102.469 93.4136 101.027C91.5247 96.4793 88.5841 91.4746 88.4497 86.3994C88.4156 85.116 90.157 88.3174 91.0024 89.2836C91.9231 90.3358 92.6168 91.8568 93.6116 92.8003C96.1583 95.2155 90.9377 86.3041 89.8249 82.9753C89.5331 82.1024 89.2611 81.2241 89.081 80.3206C88.9915 79.8711 88.4357 78.6663 88.7682 78.9817C89.9127 80.0672 90.7101 82.0864 91.737 83.3605C92.2721 84.0244 93.0958 85.5993 93.9448 85.9369C94.166 86.0248 94.037 85.4502 93.9656 85.2231C93.4762 83.6677 92.751 82.205 92.2986 80.6315C91.3358 77.2826 91.1745 73.894 90.7021 70.4712C90.5747 69.5485 90.603 68.4087 89.8967 67.7388C89.2723 67.1466 90.878 69.1534 91.3985 69.8386C92.017 70.6527 93.0058 73.4296 93.0713 72.4093C93.181 70.7019 92.847 67.69 91.8386 66.261" stroke="#C6C6C8" stroke-width="2.79932" stroke-linecap="round"/>
<path d="M133.035 223.021C126.066 223.206 119.246 222.797 112.711 225.255C107.681 227.146 103.414 227.82 98.0413 227.963C94.04 228.069 89.4874 224.908 89.2172 220.659C88.7547 213.386 84.8496 207.27 82.0868 200.687C81.4271 199.116 81.7607 196.796 81.7151 195.077C81.6266 191.734 81.538 188.392 81.4494 185.049C81.3272 180.435 82.4392 173.697 80.0374 169.631C78.5827 167.169 77.9893 163.951 76.4074 161.409C74.89 158.971 74.2208 154.636 74.1466 151.835C74.0072 146.575 73.8679 141.316 73.7285 136.056C73.6374 132.619 72.3494 129.458 72.2594 126.06C72.216 124.425 71.152 122.886 70.7507 121.305C70.2622 119.38 70.0738 117.317 69.4799 115.429C68.8135 113.31 69.1074 110.907 68.9896 108.707C68.8416 105.943 67.2723 103.259 66.7666 100.559C66.1533 97.2842 64.9901 94.113 64.901 90.7509C64.7659 85.6507 64.2092 80.0774 62.394 75.251C61.8439 73.7885 61.999 72.1253 61.9574 70.557C61.9007 68.4172 62.703 67.9152 64.0574 66.4871C65.3731 65.0998 67.258 65.0953 68.6015 63.7575C70.0512 62.3137 72.319 60.8444 74.2133 60.0851C76.3657 59.2225 78.7568 58.577 80.8599 57.5897C83.4157 56.3899 86.0362 55.6737 88.6306 54.5961C90.9413 53.6364 93.3355 53.2794 95.6896 52.5135C97.2575 52.0034 98.8545 52.2345 100.395 51.6751" stroke="black" stroke-width="1.39966" stroke-linecap="round"/>
<path d="M54.9305 79.8643C53.2118 71.8979 57.9989 63.9722 65.8498 61.7857L139.514 41.2701C147.775 38.9695 156.323 43.861 158.525 52.1485L196.074 193.479C198.331 201.972 193.032 210.629 184.441 212.482L103.078 230.035C94.7659 231.828 86.5741 226.544 84.781 218.232L54.9305 79.8643Z" fill="white" stroke="black" stroke-width="2.19947" stroke-linecap="round"/>
<path d="M89.9429 200.953C89.9529 201.117 90.2482 202.027 90.2776 201.885C90.7325 199.7 88.642 195.797 87.8997 193.816C87.267 192.128 85.2588 187.116 86.0612 188.73C87.1938 191.009 88.8129 192.99 90.0868 195.191C90.8029 196.428 91.5364 197.62 92.293 198.826C92.9251 199.833 91.8327 196.116 91.7806 195.96C90.5927 192.417 89.0877 188.983 87.962 185.42C87.6755 184.513 86.3818 181.323 87.9611 183.456C89.761 185.886 91.3336 188.476 93.1762 190.875C94.1036 192.083 95.9124 195.923 96.0707 194.408C96.1089 194.043 95.0003 192.798 94.9131 192.674C93.2268 190.277 91.7722 187.759 90.4838 185.127C88.5328 181.141 86.4239 177.033 85.2039 172.751C85.0277 172.133 83.8245 169.633 84.8676 171.145C86.6153 173.679 88.9423 175.864 90.9901 178.152C91.137 178.316 93.1929 180.405 93.1614 180.241C93.0326 179.574 92.3238 178.653 92.0204 178.128C90.4825 175.471 89.0099 172.793 87.734 169.998C86.1153 166.451 84.5925 162.755 83.6665 158.957C82.8996 155.811 84.599 158.579 85.6 159.751C88.1016 162.68 90.6067 165.604 93.1011 168.539C95.4277 171.276 93.2957 167.845 92.6144 166.743C88.718 160.444 86.2024 153.762 83.6611 146.854C82.0612 142.505 88.2854 155.532 92.3972 157.669C92.7928 157.875 91.9446 156.901 91.712 156.521C90.8397 155.094 90.0316 153.631 89.2622 152.147C87.0783 147.934 85.5627 143.601 84.0227 139.134C83.8662 138.68 83.1211 137.327 83.2836 136.778C83.3128 136.679 85.8459 140.075 85.9113 140.169C88.0415 143.226 90.2539 146.237 92.6093 149.125C96.9165 154.405 85.4922 137.467 82.6303 131.282C81.5558 128.96 80.5158 126.484 79.9029 123.989C79.5364 122.497 81.5732 126.571 82.4968 127.799C84.8915 130.982 87.5385 133.809 90.4872 136.477C91.0773 137.011 91.6362 137.656 92.2564 138.154C92.3612 138.239 91.0438 135.643 90.9864 135.553C88.1078 131.066 85.2204 126.877 83.0534 121.971C82.9172 121.663 80.5563 116.743 80.9289 116.426C80.9449 116.413 89.1512 125.197 90.2965 126.211C90.5273 126.415 87.982 122.23 87.5494 121.518C85.1203 117.515 82.7837 113.354 80.8378 109.091C80.7603 108.921 79.3842 105.984 79.6417 105.751C79.7479 105.655 85.0954 111.281 85.5013 111.703C86.686 112.932 89.91 116.842 89.1158 115.331C87.8508 112.924 86.2884 110.653 85.012 108.24C83.681 105.725 82.9225 103.271 82.0257 100.606C81.6651 99.534 81.4732 99.1796 82.419 100.224C83.6926 101.631 85.0507 103.029 86.4579 104.303C87.876 105.586 87.4346 104.929 86.7863 103.509C84.7416 99.0292 81.6299 94.129 81.3203 89.0615C81.242 87.78 83.0929 90.9194 83.9712 91.8559C84.9276 92.8756 85.6734 94.3718 86.7002 95.2803C89.3288 97.6061 83.8036 88.8803 82.5765 85.592C82.2548 84.7297 81.9525 83.8613 81.7414 82.9645C81.6364 82.5184 81.0393 81.3335 81.3825 81.6372C82.5639 82.6825 83.4305 84.673 84.5007 85.9109C85.0584 86.5559 85.936 88.1015 86.7962 88.4095C87.0203 88.4897 86.8715 87.9199 86.7923 87.6955C86.2496 86.1579 85.4743 84.7211 84.9678 83.1642C83.8899 79.8505 83.6117 76.4694 83.0214 73.065C82.8623 72.1473 82.8512 71.0072 82.1221 70.3621C81.4777 69.7918 83.1517 71.7419 83.6956 72.4088C84.3418 73.201 85.4258 75.9421 85.4561 74.9202C85.5068 73.21 85.069 70.2114 84.0119 68.8181" stroke="#C6C6C8" stroke-width="2.79932" stroke-linecap="round"/>
<path d="M130.599 224.062C123.641 224.487 116.811 224.314 110.364 226.996C105.403 229.06 101.162 229.881 95.7967 230.209C91.8014 230.453 87.1424 227.451 86.7256 223.214C86.0122 215.962 81.8983 209.984 78.9098 203.5C78.1963 201.952 78.4495 199.623 78.3447 197.906C78.1407 194.569 77.9368 191.231 77.7328 187.893C77.4513 183.286 78.3301 176.514 75.7892 172.534C74.2504 170.123 73.5462 166.927 71.8775 164.442C70.2768 162.057 69.4583 157.748 69.2875 154.951C68.9666 149.7 68.6457 144.448 68.3248 139.197C68.1151 135.764 66.7187 132.65 66.5114 129.257C66.4116 127.624 65.295 126.123 64.8394 124.557C64.2847 122.65 64.0252 120.594 63.3665 118.728C62.6273 116.634 62.8381 114.221 62.6443 112.027C62.401 109.27 60.7399 106.641 60.1413 103.96C59.4153 100.709 58.1433 97.5799 57.9382 94.223C57.627 89.1304 56.8782 83.5797 54.8975 78.8189C54.2972 77.3762 54.3947 75.7087 54.299 74.1427C54.1685 72.0061 54.953 71.4768 56.2572 70.0027C57.5242 68.5709 59.4079 68.5013 60.7043 67.1178C62.1034 65.6249 64.3191 64.0781 66.186 63.2539C68.3073 62.3174 70.6748 61.5897 72.7425 60.5304C75.2554 59.2431 77.8496 58.4369 80.4052 57.2703C82.6814 56.2314 85.0618 55.7919 87.3881 54.9452C88.9374 54.3812 90.5415 54.5571 92.062 53.9449" stroke="black" stroke-width="1.39966" stroke-linecap="round"/>
<path d="M48.5218 81.0842C46.7602 73.1272 51.5043 65.1757 59.3433 62.9468L132.896 42.0332C141.144 39.688 149.718 44.5333 151.965 52.8087L190.278 193.934C192.58 202.415 187.328 211.1 178.747 213L97.4803 230.992C89.1782 232.83 80.958 227.59 79.1199 219.288L48.5218 81.0842Z" fill="#FFD424" stroke="black" stroke-width="2.19947" stroke-linecap="round"/>
<path d="M171.182 192.61C171.864 195.769 172.375 199.02 173.406 202.088C173.967 203.759 174.435 205.411 175.214 206.992C175.584 207.744 176.04 208.35 176.534 209.019C176.655 209.183 176.713 209.406 176.8 209.588C176.906 209.811 177.303 210.356 177.068 210.28C176.86 210.212 176.727 210.003 176.579 209.843C175.492 208.67 174.613 207.341 173.857 205.935C172.113 202.691 171.059 199.046 170.61 195.396C170.384 193.552 170.529 191.717 170.74 189.881C170.921 188.316 170.737 190.315 170.704 190.672C170.395 194.061 170.267 197.545 170.623 200.934M172.253 205.724C171.165 203.431 170.414 200.705 170.357 198.152C170.353 197.976 170.386 197.402 170.445 197.187C170.518 196.918 170.814 197.615 170.918 197.873C172.65 202.174 174.953 206.057 177.584 209.862M175.92 208.753C173.347 204.587 171.795 199.598 171.382 194.726C171.214 192.742 171.372 190.745 171.306 188.758C171.235 186.564 171.042 193.186 171.456 195.341C171.519 195.671 171.71 196.403 171.808 196.744C171.885 197.01 171.992 197.765 172.113 197.516C172.278 197.178 171.934 195.375 171.922 195.26C171.671 192.909 171.446 190.557 171.27 188.199C171.205 187.33 171.117 186.043 171.069 185.102C171.059 184.903 171.014 184.323 171.098 184.504C171.131 184.575 171.116 184.835 171.115 184.856C171.062 186.084 170.974 187.312 170.919 188.541C170.762 192.079 170.569 195.696 171.196 199.203C171.362 200.132 171.638 200.947 172.171 201.714" stroke="black" stroke-opacity="0.2" stroke-width="3.2992" stroke-linecap="round"/>
<path d="M62.111 120.182C64.0172 128.792 65.5783 137.408 67.4848 146.019C68.1692 149.111 68.1713 152.25 68.8677 155.396C69.4053 157.824 69.9429 160.252 70.4806 162.681" stroke="black" stroke-width="2.09949" stroke-linecap="round"/>
<path d="M72.2354 170.608L72.7473 172.92" stroke="black" stroke-width="1.39966" stroke-linecap="round"/>
<path d="M74.4297 180.517L74.6491 181.508" stroke="black" stroke-width="1.39966" stroke-linecap="round"/>
<path d="M104.504 58.1294C105.511 56.8794 108.896 56.8104 110.376 56.4828C113.139 55.8712 116.006 54.9474 118.835 54.7832C121.343 54.6376 124.429 54.0644 126.854 53.5276C127.275 53.4343 128.604 52.8885 128.762 53.4516C129.203 55.0238 129.371 56.6721 129.841 58.237C130.791 61.3998 133.782 63.8444 136.697 65.0348C139.38 66.1305 142.601 63.9342 144.187 62.0869C144.305 61.9497 145.984 59.663 146.107 59.8908C147.08 61.6883 147.261 64.3082 147.959 66.2566C149.398 70.271 150.469 74.4261 152.21 78.3282C153.093 80.3069 153.594 82.6284 154.68 84.4417" stroke="black" stroke-width="2.09949" stroke-linecap="round"/>
<path d="M155.813 91.121L156.252 93.1028" stroke="black" stroke-width="1.39966" stroke-linecap="round"/>
<path d="M94.208 226.034L109.072 222.743" stroke="black" stroke-width="2.09949" stroke-linecap="round"/>
<path d="M115.349 221.353L118.652 220.622" stroke="black" stroke-width="1.39966" stroke-linecap="round"/>
<path d="M65.9939 85.0911C66.1358 85.7484 66.0394 83.7435 66.1436 83.0791C66.2904 82.1438 66.5577 80.9848 67.2289 80.2648C67.3858 80.0965 67.643 80.0361 67.8417 79.9215C68.4348 79.5796 68.919 79.2357 69.4496 78.8009C69.7405 78.5625 69.981 78.2857 70.2582 78.0368C70.2749 78.0218 70.0875 78.884 70.0338 79.102C69.7001 80.458 69.4012 81.8212 69.2441 83.2102C69.1353 84.1725 68.9044 85.2266 68.9807 86.1986C69.0122 86.5992 69.132 86.9994 69.2167 87.3917C69.31 87.8238 69.3328 86.926 69.3572 86.8151C69.6885 85.309 70.3005 83.7981 71.1854 82.5314C71.5972 81.9418 72.281 81.0707 73.0139 80.8547C73.2564 80.7832 73.5099 80.7422 73.757 80.6889C73.9478 80.6476 73.595 81.352 73.5485 81.5019C73.0725 83.038 72.7018 84.5827 72.5197 86.1809C72.4679 86.6347 72.4489 87.0307 72.5446 87.4737" stroke="black" stroke-opacity="0.2" stroke-width="3.63452" stroke-linecap="round"/>
<path d="M62.8421 85.0487C66.0476 84.3566 67.4737 81.3136 67.9911 78.2603C68.147 77.34 67.9358 74.5512 68.1328 75.4636C68.4118 76.7555 68.6466 78.0664 68.9715 79.3475C69.6475 82.0133 72.1518 82.4533 74.4237 82.7645C75.1104 82.8586 76.3736 82.5584 76.9149 82.8279C77.2208 82.9803 77.1787 82.8191 76.6605 82.931C76.0737 83.0577 75.3567 83.0812 74.7559 83.0776C73.8992 83.0725 72.4499 83.1258 71.9148 83.9557C71.1533 85.1364 71.1224 86.7581 70.6863 88.0695C70.2357 89.4243 69.9067 91.1964 70.1055 92.6207C70.1693 93.0772 70.3246 94.6379 70.0476 93.3548C69.5984 91.2747 69.9307 89.1546 69.5649 87.1089C69.4006 86.1903 69.2788 85.3971 68.4432 84.9217C66.7163 83.9393 64.4364 84.7045 62.6353 85.0934" stroke="black" stroke-width="2.19947" stroke-linecap="round"/>
<path d="M100.795 196.58C100.892 197.029 100.826 195.659 100.897 195.205C100.998 194.566 101.18 193.775 101.639 193.283C101.746 193.168 101.922 193.126 102.058 193.048C102.463 192.814 102.794 192.58 103.156 192.282C103.355 192.12 103.519 191.931 103.709 191.76C103.72 191.75 103.592 192.339 103.555 192.488C103.327 193.415 103.123 194.346 103.016 195.295C102.941 195.952 102.784 196.673 102.836 197.337C102.857 197.61 102.939 197.884 102.997 198.152C103.061 198.447 103.076 197.834 103.093 197.758C103.319 196.729 103.737 195.697 104.342 194.831C104.623 194.428 105.091 193.833 105.591 193.686C105.757 193.637 105.93 193.609 106.099 193.572C106.229 193.544 105.988 194.025 105.957 194.128C105.631 195.177 105.378 196.233 105.254 197.325C105.218 197.635 105.205 197.905 105.271 198.208" stroke="black" stroke-opacity="0.2" stroke-width="3.63452" stroke-linecap="round"/>
<path d="M98.6399 196.551C100.83 196.078 101.804 193.999 102.158 191.913C102.264 191.284 102.12 189.379 102.255 190.002C102.445 190.885 102.605 191.781 102.827 192.656C103.289 194.477 105 194.778 106.552 194.99C107.022 195.055 107.885 194.85 108.254 195.034C108.463 195.138 108.435 195.028 108.081 195.104C107.68 195.191 107.19 195.207 106.779 195.204C106.194 195.201 105.204 195.237 104.838 195.804C104.318 196.611 104.297 197.719 103.999 198.615C103.691 199.54 103.466 200.751 103.602 201.724C103.646 202.036 103.752 203.102 103.563 202.226C103.256 200.805 103.483 199.356 103.233 197.959C103.121 197.331 103.037 196.789 102.467 196.464C101.287 195.793 99.7291 196.316 98.4986 196.582" stroke="black" stroke-width="1.45381" stroke-linecap="round"/>
<path d="M149.588 182.773L163.216 201.62M163.25 184.87L145.504 204.36M143.009 193.093L166.039 192.131M159.142 183.218L152.97 208.951" stroke="black" stroke-width="2.18071" stroke-linecap="round" stroke-linejoin="round"/>
<path d="M145.664 205.366C146.071 205.228 146.479 204.463 146.792 204.166C147.711 203.296 148.683 202.405 149.713 201.668C150.84 200.861 151.829 199.87 152.771 198.86C153.496 198.083 154.087 197.202 154.911 196.502C155.831 195.721 156.223 194.625 156.957 193.713C157.637 192.87 158.464 192.108 159.046 191.194C159.726 190.127 160.313 189.133 161.188 188.212C161.877 187.488 162.412 186.632 163.11 185.935C163.362 185.683 163.954 185.393 164.034 185.075" stroke="black" stroke-width="1.45381" stroke-linecap="round"/>
<path d="M148.741 183.954C148.879 184.575 149.538 185.165 149.893 185.662C151.092 187.34 152.415 188.862 153.756 190.424C155.046 191.927 156.256 193.43 157.822 194.647C159.083 195.627 160.493 196.967 161.274 198.396C161.767 199.297 161.77 200.401 162.262 201.337" stroke="black" stroke-width="1.39966" stroke-linecap="round"/>
<path d="M153.735 208.254C153.066 205.232 153.415 201.747 154.775 198.939C155.257 197.944 155.93 197.027 156.524 196.095C157.034 195.294 157.235 194.471 157.584 193.603C157.942 192.714 158.424 192.003 158.665 191.042C158.916 190.041 159.211 189.032 159.438 188.027C159.674 186.982 160.179 185.519 159.941 184.441" stroke="black" stroke-width="1.39966" stroke-linecap="round"/>
<path d="M143.409 193.647C144.797 193.34 146.179 193.392 147.59 193.309C150.029 193.165 152.409 192.544 154.787 192.031C156.72 191.613 159.149 190.929 161.103 191.435C162.156 191.707 162.995 192.37 163.998 192.728C164.209 192.804 166.586 193.771 165.849 193.064" stroke="black" stroke-width="1.39966" stroke-linecap="round"/>
<path d="M118.109 139.131C120.154 138.689 122.308 137.862 124.442 138.208C124.985 138.296 125.922 138.85 126.43 138.775C126.606 138.75 127.458 138.714 127.132 138.784C125.364 139.166 123.63 139.7 121.857 140.083C120.772 140.317 119.689 140.577 118.598 140.787C118.445 140.816 117.861 140.922 117.708 140.783C117.598 140.684 118.93 140.542 118.997 140.541C120.759 140.51 122.523 140.385 124.287 140.395C124.943 140.399 125.61 140.551 126.262 140.698C126.441 140.738 127.634 141.218 127.582 141.241C124.706 142.502 121.712 143.158 118.668 143.815C117.541 144.058 119.011 143.728 119.422 143.661C121.018 143.402 122.921 143.424 124.531 143.955C125.168 144.165 126.176 143.841 126.73 144.281C126.781 144.322 126.179 144.451 126.062 144.496C125.3 144.791 124.549 145.101 123.799 145.43C121.921 146.254 119.907 146.432 117.998 147.127C117.694 147.238 116.743 147.434 117.058 147.366C117.908 147.182 118.76 147.109 119.629 147.051C121.737 146.909 123.855 146.705 125.981 146.791C127.275 146.844 126.124 147.139 125.518 147.381C124.101 147.948 122.586 148.414 121.101 148.735C120.032 148.966 119.056 149.497 117.991 149.727C116.521 150.044 121.028 149.305 122.534 149.698C123.349 149.911 124.138 150.068 124.936 150.39C125.37 150.564 124.861 150.639 124.66 150.698C123.901 150.924 123.165 151.249 122.412 151.495C121.154 151.907 119.976 152.822 118.69 153.1C117.471 153.363 121.231 152.83 122.469 153.245C123.64 153.637 121.658 153.977 121.34 154.093C120.963 154.231 119.825 154.158 120.184 154.414C120.711 154.79 121.683 154.838 122.275 155.048C122.512 155.133 123.122 155.27 123.32 155.499C123.343 155.526 121.863 156.237 121.703 156.284C121.49 156.346 120.699 156.35 121.148 156.751C121.56 157.119 122.086 157.508 122.57 157.698C122.98 157.86 122.353 157.914 122.222 157.943C121.722 158.051 121.161 158.09 120.684 158.284C120.437 158.384 123.404 160.064 123.265 160.209C122.609 160.89 121.568 161.27 120.771 161.691" stroke="black" stroke-opacity="0.2" stroke-width="3.63452" stroke-linecap="round"/>
<path d="M93.441 141.507C96.9173 140.756 100.427 140.083 103.893 139.335C103.959 139.32 104.726 139.144 104.508 139.07C103.836 138.84 103.118 138.725 102.43 138.633C101.147 138.461 99.8 138.668 98.5322 138.372C97.4454 138.118 96.4755 138.647 95.3955 138.521C95.066 138.483 94.7576 138.439 94.4303 138.494C94.1879 138.535 95.0301 138.321 95.109 138.314C96.6489 138.182 98.1854 138.156 99.7047 137.859C101.339 137.54 103.078 136.861 104.764 136.894C104.815 136.895 105.989 136.814 105.89 136.698C105.624 136.382 104.878 136.279 104.532 136.181C103.711 135.948 102.909 135.749 102.07 135.676C100.289 135.52 98.5505 136.039 96.8008 136.201C96.3525 136.242 96.0732 136.043 95.6695 135.936C95.6258 135.924 95.3511 135.885 95.4387 135.835C95.7276 135.67 96.1668 135.659 96.4806 135.591C97.3227 135.409 98.1657 135.231 99.007 135.046C101.063 134.592 102.911 133.524 104.977 133.078C105.28 133.013 105.583 132.947 105.886 132.882C106.051 132.846 106.227 132.886 106.008 132.761C105.335 132.379 104.562 132.104 103.859 131.811C102.87 131.399 101.788 131.048 100.748 131.069C99.7056 131.091 98.6604 131.028 97.6153 130.897C97.0384 130.826 97.9692 130.689 98.1012 130.661C99.4238 130.375 100.746 130.089 102.069 129.804C103.175 129.565 104.281 129.326 105.387 129.088C105.675 129.025 105.964 128.963 106.252 128.901C106.27 128.897 105.628 128.868 105.424 128.806C104.548 128.54 103.693 128.199 102.824 127.907C102.013 127.634 101.221 127.697 100.422 127.869C99.9467 127.972 99.4737 128.055 99.0211 128.238C98.5417 128.432 99.5417 128.178 99.6575 128.166C101.427 127.992 103.187 127.747 104.844 127.065C105.257 126.895 105.632 126.608 106.062 126.482C106.141 126.459 105.508 126.285 105.443 126.271C104.346 126.037 103.254 125.989 102.153 125.884C101.574 125.828 101.869 125.466 101.297 125.324C101.143 125.286 100.698 125.18 100.849 125.147C101.473 125.013 101.209 125.07 101.834 124.935C103.05 124.672 104.223 124.261 105.434 123.988C105.929 123.876 106.426 123.774 106.922 123.666C107.008 123.648 107.356 123.6 107.126 123.434C106.431 122.932 105.449 122.729 104.668 122.589C103.602 122.397 108.78 120.138 107.713 120.154C107.202 120.161 105.691 120.374 106.188 120.266C107.067 120.077 101.701 122.164 102.58 121.974" stroke="black" stroke-opacity="0.2" stroke-width="3.63452" stroke-linecap="round"/>
<path d="M108.131 111.488L138.75 132.709C139.351 133.126 139.549 133.924 139.213 134.573L121.122 169.509M108.131 111.488L92.7288 142.259C92.4372 142.841 92.5688 143.547 93.0508 143.985L121.122 169.509M108.131 111.488L126.652 136.829C126.888 137.151 126.98 137.556 126.908 137.949L121.122 169.509" stroke="black" stroke-width="2.19947"/>
<path d="M108.226 111.932L104.213 140.657L121.026 169.065" stroke="black" stroke-width="2.18071" stroke-linecap="round"/>
<path d="M93.207 143.76C96.6234 142.34 99.9872 141.328 103.652 140.709C109.975 139.642 116.339 138.796 122.671 137.778C125.381 137.342 128.232 136.945 130.885 136.219C131.469 136.059 132.158 135.668 132.76 135.637C133.172 135.616 133.609 135.381 134.009 135.28C134.604 135.13 135.206 134.938 135.773 134.702C136.307 134.48 136.932 134.475 137.511 134.234" stroke="black" stroke-width="1.45381" stroke-linecap="round"/>
<path d="M108.228 111.932L117.62 138.227L121.028 169.064" stroke="black" stroke-width="2.18071" stroke-linecap="round"/>
<path d="M72.3977 111.385C72.4947 111.834 72.4288 110.464 72.5 110.01C72.6003 109.371 72.7829 108.579 73.2415 108.087C73.3487 107.972 73.5244 107.931 73.6602 107.853C74.0653 107.619 74.3961 107.384 74.7587 107.087C74.9574 106.924 75.1217 106.735 75.3111 106.565C75.3225 106.555 75.1945 107.144 75.1578 107.293C74.9298 108.219 74.7256 109.151 74.6183 110.1C74.544 110.757 74.3862 111.477 74.4383 112.141C74.4598 112.415 74.5417 112.688 74.5995 112.956C74.6633 113.252 74.6789 112.638 74.6955 112.562C74.9219 111.534 75.34 110.501 75.9446 109.636C76.2259 109.233 76.6931 108.638 77.1938 108.49C77.3595 108.442 77.5326 108.413 77.7015 108.377C77.8319 108.349 77.5908 108.83 77.559 108.933C77.2338 109.982 76.9806 111.037 76.8561 112.129C76.8208 112.439 76.8078 112.71 76.8732 113.012" stroke="black" stroke-opacity="0.2" stroke-width="3.63452" stroke-linecap="round"/>
<path d="M70.2434 111.356C72.4334 110.883 73.4077 108.804 73.7612 106.718C73.8677 106.089 73.7234 104.184 73.858 104.807C74.0486 105.69 74.209 106.586 74.431 107.461C74.8928 109.282 76.6038 109.583 78.156 109.795C78.6251 109.86 79.4881 109.654 79.8579 109.839C80.067 109.943 80.0382 109.833 79.6842 109.909C79.2833 109.996 78.7934 110.012 78.3829 110.009C77.7977 110.006 76.8075 110.042 76.4418 110.609C75.9216 111.416 75.9005 112.524 75.6026 113.42C75.2947 114.345 75.0699 115.556 75.2058 116.529C75.2493 116.841 75.3554 117.907 75.1662 117.031C74.8593 115.61 75.0863 114.161 74.8364 112.763C74.7242 112.136 74.6409 111.594 74.0701 111.269C72.8903 110.598 71.3326 111.121 70.1021 111.386" stroke="black" stroke-width="1.45381" stroke-linecap="round"/>
<path d="M120.345 84.0323C120.442 84.4815 120.376 83.1117 120.447 82.6578C120.548 82.0188 120.73 81.2269 121.189 80.735C121.296 80.62 121.472 80.5788 121.607 80.5005C122.013 80.2669 122.343 80.0319 122.706 79.7349C122.905 79.572 123.069 79.3829 123.258 79.2128C123.27 79.2026 123.142 79.7917 123.105 79.9406C122.877 80.867 122.673 81.7983 122.566 82.7473C122.491 83.4048 122.333 84.1249 122.386 84.789C122.407 85.0627 122.489 85.3362 122.547 85.6041C122.611 85.8994 122.626 85.2859 122.643 85.2102C122.869 84.1812 123.287 83.149 123.892 82.2836C124.173 81.8808 124.64 81.2856 125.141 81.138C125.307 81.0892 125.48 81.0612 125.649 81.0247C125.779 80.9966 125.538 81.4778 125.506 81.5802C125.181 82.6297 124.928 83.685 124.803 84.7769C124.768 85.087 124.755 85.3575 124.82 85.6601" stroke="black" stroke-opacity="0.2" stroke-width="3.63452" stroke-linecap="round"/>
<path d="M118.191 84.0032C120.381 83.5303 121.355 81.4514 121.708 79.3654C121.815 78.7366 121.671 76.8312 121.805 77.4546C121.996 78.3373 122.156 79.2329 122.378 80.1081C122.84 81.9294 124.551 82.23 126.103 82.4426C126.572 82.5069 127.435 82.3018 127.805 82.486C128.014 82.5901 127.985 82.4799 127.631 82.5564C127.231 82.6429 126.741 82.659 126.33 82.6566C125.745 82.653 124.755 82.6894 124.389 83.2564C123.869 84.0631 123.848 85.1711 123.55 86.067C123.242 86.9926 123.017 88.2033 123.153 89.1764C123.197 89.4883 123.303 90.5546 123.113 89.6779C122.807 88.2568 123.034 86.8083 122.784 85.4107C122.671 84.7832 122.588 84.2412 122.017 83.9164C120.838 83.2452 119.28 83.768 118.049 84.0337" stroke="black" stroke-width="1.45381" stroke-linecap="round"/>
<path d="M217.254 196.875C217.577 198.372 219.258 199.716 220.167 200.9C221.275 202.343 220.642 200.248 220.479 199.491C220.068 197.589 219.657 195.687 219.247 193.785C219.071 192.973 218.896 192.162 218.721 191.35C218.449 190.089 219.382 191.18 219.704 191.569C220.996 193.129 222.369 194.575 223.447 196.301C223.9 197.026 224.513 198.193 225.186 198.709C225.733 199.128 225.99 199.997 226.465 200.526C226.699 200.787 226.715 200.659 226.656 200.386C226.427 199.327 226.199 198.268 225.97 197.209C225.317 194.186 224.553 191.141 223.803 188.196C223.612 187.448 223.475 186.681 223.312 185.926C223.205 185.427 222.79 184.376 223.255 185.433C224.631 188.561 226.71 191.379 228.395 194.297C229.175 195.647 229.781 197.13 230.71 198.402C231.282 199.185 230.626 196.189 230.555 195.862C229.94 193.013 229.21 190.22 228.507 187.402C228.081 185.694 226.928 183.811 225.919 182.371C225.634 181.965 225.376 181.111 225.271 180.627C224.918 178.99 226.66 180.781 227.228 181.251C230.523 183.976 234.454 187.228 235.403 191.626C235.567 192.385 236.145 193.008 236.302 193.735C236.65 195.347 235.679 190.491 235.211 188.91C234.546 186.664 233.915 181.594 231.276 180.722C230.329 180.409 230.306 178.321 229.043 178.593" stroke="black" stroke-width="3.29501" stroke-linecap="round"/>
<path d="M230.268 184.788C229.91 184.914 231.783 192.358 232.014 193.432C232.229 194.426 232.409 197.471 232.194 196.477C232.115 196.107 232.369 195.675 232.419 195.307C232.545 194.391 232.746 193.492 232.843 192.57C232.963 191.433 232.887 190.271 233.025 189.141C233.074 188.734 233.173 188.29 233.084 187.881C232.999 187.487 231.527 187.106 231.191 186.977C230.276 186.625 229.41 186.326 228.533 185.879C228.336 185.779 227.701 185.236 227.451 185.291C227.299 185.323 227.184 186.155 227.107 186.307C226.767 186.978 226.383 187.566 225.93 188.166C225.192 189.143 224.192 190.017 223.643 191.12C223.144 192.121 222.984 193.325 222.545 194.362C222.432 194.629 221.53 195.97 221.902 196.238C222.558 196.712 223.144 196.991 223.57 197.755C224.031 198.584 223.884 198.583 222.962 198.782C222.653 198.849 222.072 199.103 221.759 199.015C221.566 198.961 222.63 198.095 222.733 197.996" stroke="black" stroke-width="3.29501" stroke-linecap="round"/>
<path d="M156.14 151.02C156.26 151.576 156.853 156.698 158.087 156.13C158.881 155.765 159.137 154.11 159.36 153.405C159.822 151.938 160.447 150.547 160.888 149.071C161.501 147.018 161.812 150.75 161.853 151.246C162.029 153.39 161.519 155.842 161.965 157.904C162.041 158.258 162.117 158.612 162.194 158.966C162.322 159.559 162.607 157.824 162.786 157.244C163.617 154.558 163.632 151.534 165.121 149.081C165.214 148.928 166.063 147.29 166.126 147.284C166.79 147.225 165.971 154.044 165.957 154.565C165.917 156.022 165.787 157.534 165.868 158.989C165.919 159.92 166.16 160.954 166.076 161.876C165.997 162.752 166.113 163.722 166.3 164.587C166.396 165.031 166.218 163.657 166.353 163.223C167.03 161.044 167.876 158.888 168.694 156.759C170.295 152.585 172.171 148.54 173.633 144.351C173.978 143.364 174.409 142.687 174.375 141.647C174.338 140.519 174.796 139.571 174.648 141.36C174.317 145.354 170.106 147.108 169.364 150.87C169.312 151.131 168.518 153.971 168.657 154.048C168.806 154.131 170.388 153.048 170.656 152.947C171.517 152.623 172.339 152.296 173.254 152.145C175.847 151.72 173.048 164.402 172.569 166.272C172.358 167.095 171.91 169.295 171.694 167.184C171.54 165.679 172.044 163.783 172.259 162.296C172.501 160.616 172.368 158.942 172.552 157.265C172.602 156.804 172.368 153.67 172.098 155.1C171.666 157.383 170.309 160.24 170.687 162.581C170.825 163.433 171.453 162.589 171.703 162.201C172.859 160.409 173.813 158.341 174.711 156.41C176.092 153.44 177.341 149.985 177.427 146.665C177.452 145.684 177.447 144.773 177.24 143.813C177.06 142.981 176.751 141.698 176.641 143.273C176.36 147.285 174.644 151.151 174.63 155.169C174.622 157.459 174.947 159.995 175.712 162.166C176.704 164.978 178.036 167.596 178.663 170.5C178.687 170.611 178.88 171.502 178.813 171.191C178.471 169.609 178.124 168.084 178.204 166.448C178.47 160.985 180.341 155.721 181.419 150.396C181.718 148.919 181.748 147.247 181.521 145.781C181.416 145.108 181.992 146.869 182.02 147.039C182.437 149.528 182.307 152.264 182.259 154.781C182.178 158.973 182.793 163.259 182.58 167.431C182.439 170.201 182.332 172.978 182.919 175.7C182.925 175.726 182.909 174.94 182.91 174.912C182.982 173.016 183.276 171.114 183.45 169.225C183.79 165.522 184.331 161.878 185.532 158.345C185.9 157.265 186.425 156.421 186.982 155.448C187.292 154.906 186.995 153.778 186.97 153.161C186.934 152.269 187.227 151.373 187.358 150.493C187.417 150.103 187.243 149.047 187.581 148.731C187.609 148.704 188.235 151.196 188.27 151.367C188.863 154.253 188.375 157.117 188.089 160.016C187.696 163.996 187.027 167.892 186.794 171.878C186.722 173.117 187.007 174.522 187.049 175.786C187.072 176.504 187.073 177.079 187.231 177.809C187.363 178.421 187.447 176.561 187.709 175.992C188.72 173.792 189.904 171.668 190.655 169.357C191.613 166.41 191.718 163.207 192.153 160.169C192.332 158.911 192.822 157.604 192.905 156.338C192.909 156.282 193.02 155.039 193.233 155.437C193.496 155.928 193.025 157.091 192.935 157.59C192.172 161.812 192.696 166.03 192.836 170.279C192.911 172.591 192.431 175.102 192.918 177.357C193.184 178.59 192.833 179.862 193.001 181.089C193.023 181.254 192.975 182.086 192.859 181.548C192.534 180.046 192.119 178.535 191.906 177.013C191.359 173.094 192.965 168.815 194.277 165.174C195.019 163.117 195.434 160.85 195.881 158.708C195.947 158.391 196.162 157.877 196.118 157.573C196.092 157.396 196.399 158.889 196.442 159.136C196.944 162.06 196.594 165.122 196.401 168.063C196.241 170.495 196.451 172.98 196.11 175.396C195.838 177.32 195.922 179.322 195.809 181.259C195.752 182.239 195.598 183.071 195.805 184.031C195.847 184.225 195.718 184.807 195.627 184.324C195.187 181.972 195.938 178.994 196.417 176.696C197.241 172.743 199.056 168.978 200.62 165.277C201.126 164.08 201.247 162.339 201.449 161.054C201.521 160.592 201.532 159.206 201.63 159.663C201.766 160.29 201.835 160.828 201.727 161.476C200.99 165.903 201.495 170.255 201.739 174.676C201.884 177.313 202.089 179.964 202.468 182.579C202.658 183.893 202.366 185.395 202.638 186.653C202.716 187.016 202.856 189.11 202.579 189.17C201.626 189.376 200.445 184.311 200.327 183.765C199.588 180.342 200.049 176.898 199.307 173.461C198.856 171.374 199.131 169.363 198.987 167.263C198.818 164.8 198.408 161.165 197.105 159.046C196.517 158.09 195.137 155.548 193.92 155.208C192.35 154.771 190.557 155.881 189.073 156.201C187.074 156.633 187.038 156.817 187.33 159.042C187.842 162.951 188.441 167.004 189.343 170.845C189.591 171.902 190.001 173.595 191.334 173.308C193.532 172.833 196.207 173.507 197.659 175.316C198.116 175.885 198.439 176.331 198.633 177.034C198.734 177.404 199.056 176.943 198.517 177.059C197.925 177.187 199.2 177.073 199.424 177.104C200.225 177.214 200.949 177.016 201.726 176.848C203.781 176.404 205.627 173.171 206.537 171.471C207.148 170.328 207.94 169.195 208.193 167.98C208.656 165.759 207.8 164.239 206.411 162.581C205.213 161.15 205.161 163.974 204.911 164.873C204.274 167.158 203.988 169.548 203.544 171.876C203.188 173.743 202.818 175.759 202.881 177.67C203.001 181.35 204.139 185.117 205.655 188.412C205.806 188.739 206.016 188.996 206.232 188.542C207.217 186.474 208.112 184.391 209.167 182.351C210.38 180.007 211.564 177.599 212.378 175.084C212.72 174.028 213.492 172.974 213.654 171.876C213.84 170.61 214.195 169.121 214.636 167.928C214.692 167.777 215.121 166.994 214.83 167.217C214.113 167.764 213.362 168.269 212.647 168.826C209.792 171.048 209.41 173.96 208.412 177.306C208.287 177.727 206.231 185.493 207.041 185.341C211.727 184.461 213.199 180.464 215.511 176.818C215.921 176.17 216.483 174.824 217.241 174.476C217.648 174.288 217.925 174.011 218.074 173.559C218.877 171.129 217.645 178.703 216.873 181.143C215.876 184.293 214.437 187.288 213.46 190.449C213.303 190.955 213.097 191.544 213.017 192.058C212.945 192.516 212.553 193.004 212.55 193.431C212.539 195.322 211.359 192.269 211.078 191.7C210.227 189.971 209.714 188.171 209.309 186.298C208.972 184.736 209.349 189.499 209.192 191.09C209.059 192.441 210.628 192.269 211.613 192.254C213.987 192.218 214.853 189.01 215.514 187.127C216.814 183.426 218.092 179.631 220.814 176.824C221.47 176.148 222.198 175.481 222.78 174.766C223.424 173.975 223.757 176.189 223.807 176.419C223.932 176.999 223.479 177.136 223.084 177.539C221.719 178.935 220.628 180.6 219.65 182.284C218.061 185.019 217.446 188.126 215.709 190.821C215.01 191.905 214.426 192.77 213.978 193.966C213.674 194.776 213.506 195.62 213.194 196.412C213.18 196.445 213.057 195.9 213.055 195.893C212.663 194.514 212.237 193.161 211.934 191.756C211.216 188.431 210.48 184.777 211.404 181.427C212.261 178.323 214.268 175.633 215.651 172.757C216.035 171.959 216.249 170.664 215.861 169.819C215.809 169.706 215.134 169.069 215.071 169.2C214.859 169.64 216.768 171.52 217.037 171.855C217.359 172.257 219.524 175.37 219.704 174.412C220.02 172.735 219.065 171.282 217.839 170.236C216.283 168.909 214.447 167.849 212.608 166.973C212.292 166.823 209.789 165.256 210.28 165.119M214.71 167.778C213.107 169.547 211.7 171.524 210.408 173.527" stroke="#FFD424" stroke-width="3.29501" stroke-linecap="round"/>
<path d="M138.342 129.826C138.584 130.235 139.039 130.536 139.351 130.895C139.708 131.305 139.994 131.763 140.314 132.2C140.853 132.938 141.517 133.582 142.122 134.264C142.256 134.415 143.636 135.916 143.679 135.268C143.74 134.344 143.159 133.219 142.812 132.407C142.609 131.929 142.37 131.468 142.171 130.989C142.046 130.687 142.006 130.576 142.093 130.978C142.346 132.148 143.035 133.194 143.644 134.206C143.889 134.612 144.217 135.244 144.74 135.353C145.046 135.416 145.371 135.326 145.676 135.405C145.977 135.482 146.192 135.724 146.439 135.883C146.515 135.933 146.383 135.865 146.357 135.857C146.164 135.803 146.05 135.873 145.906 136.02C145.312 136.627 144.707 137.237 144.125 137.858C143.837 138.165 143.799 137.498 143.734 137.251C143.495 136.34 143.096 135.394 143.152 134.431C143.176 134.021 143.955 134.088 144.231 134.144C144.499 134.198 144.78 134.113 144.586 134.413" stroke="black" stroke-width="3.29501" stroke-linecap="round"/>
<path d="M148.139 143.062C148.117 143.017 147.925 142.62 148.046 142.957C148.581 144.451 149.613 145.806 150.5 147.099C151.415 148.433 152.347 149.772 153.481 150.932C153.747 151.205 154.544 151.962 154.406 151.606C153.863 150.202 152.971 148.849 152.2 147.566C151.63 146.617 151.048 145.556 150.3 144.724C149.998 144.39 150.774 145.494 151.063 145.839C152.3 147.316 153.651 148.699 155.066 150.005C155.786 150.669 156.52 151.385 157.302 151.979C157.345 152.011 157.287 151.868 157.253 151.826C156.966 151.461 156.186 150.566 155.977 150.323C153.584 147.53 151.387 144.614 149.128 141.717C149.109 141.694 148.864 141.391 148.925 141.465C149.248 141.856 149.581 142.234 149.928 142.605C150.315 143.02 150.259 143.025 149.78 142.645C148.951 141.985 148.158 141.278 147.355 140.587C147.256 140.502 147.156 140.417 147.058 140.331C147.015 140.294 146.894 140.259 146.932 140.218C146.972 140.175 147.038 140.269 147.09 140.297C147.253 140.386 147.415 140.479 147.577 140.57C148.663 141.179 149.749 141.921 150.898 142.404C151.857 142.806 151.215 141.136 151.133 140.855C150.787 139.667 150.35 138.471 149.83 137.346C149.799 137.281 149.783 137.198 149.723 137.159C149.691 137.138 149.705 137.234 149.712 137.27C149.77 137.592 149.957 138.17 150.057 138.436C150.4 139.352 150.847 140.241 151.387 141.058C151.635 141.431 151.116 140.203 150.949 139.787C150.52 138.716 150.078 137.647 149.698 136.556C149.571 136.19 149.489 136.006 149.913 136.252C150.353 136.507 150.798 136.928 151.281 137.095C151.7 137.241 151.176 135.935 151.164 135.904C150.992 135.459 150.769 135.033 150.528 134.622C150.453 134.492 150.829 134.579 150.976 134.603C151.675 134.714 152.367 134.864 153.064 134.987C153.537 135.07 153.172 135.004 153.169 135.003C152.837 134.927 152.63 134.878 152.283 134.765C151.5 134.51 150.763 134.176 150.037 133.792C149.99 133.767 149.846 133.702 149.885 133.739C149.986 133.835 150.385 134.106 150.431 134.136C151.592 134.881 152.855 135.464 154.175 135.87C156.795 136.675 159.564 136.583 162.189 137.298C163.162 137.563 160.298 136.595 159.336 136.292C158.944 136.169 157.747 135.912 158.158 135.93C158.374 135.94 158.58 136.023 158.79 136.075C159.436 136.234 160.96 136.62 161.478 136.75C163.315 137.212 165.149 137.695 166.997 138.109C167.783 138.284 166.76 137.96 166.635 137.914C165.614 137.537 164.591 137.159 163.583 136.748C162.968 136.496 163.444 136.607 163.798 136.693C164.602 136.889 165.392 137.142 166.197 137.33C166.452 137.389 166.799 137.356 167.024 137.51C168.232 138.337 168.86 139.989 169.179 141.35C169.365 142.147 169.512 142.953 169.697 143.75C169.769 144.058 169.981 144.599 170.326 144.713C170.749 144.854 170.82 144.218 170.785 143.983C170.708 143.473 170.568 142.962 170.404 142.474C170.355 142.326 170.103 141.942 170.218 142.046C170.426 142.233 170.645 142.406 170.852 142.596C171.025 142.754 171.121 142.849 171.284 143.009C171.332 143.057 171.421 143.216 171.431 143.149C171.452 143.009 171.083 142.534 171.025 142.425C170.862 142.118 170.74 141.747 170.537 141.462C170.408 141.282 170.541 141.907 170.563 142.127C170.631 142.801 170.673 143.477 170.727 144.151C170.762 144.578 170.721 144.724 170.22 144.619C168.009 144.159 165.88 142.916 163.89 141.907C162.815 141.362 161.764 140.763 160.682 140.233C160.185 139.989 161.575 140.885 162.035 141.192C162.645 141.599 163.279 142.089 163.949 142.397C164.608 142.7 162.73 141.608 162.09 141.266C160.575 140.455 159.038 139.669 157.453 139.003C156.299 138.519 157.362 138.973 156.677 138.699C156.518 138.635 156.576 138.647 156.769 138.656C157.933 138.705 159.095 138.826 160.255 138.925C160.454 138.942 160.653 138.955 160.851 138.975C160.915 138.982 161.045 138.941 161.041 139.005C161.036 139.07 160.912 139.028 160.847 139.031C160.619 139.042 160.389 139.046 160.16 139.047C158.776 139.05 157.401 138.948 156.025 138.805C155.801 138.781 155.063 138.562 154.934 138.915C154.554 139.955 155.051 141.361 155.675 142.183C156.265 142.962 156.899 143.702 157.452 144.51C157.934 145.215 158.339 145.962 158.781 146.691C159.321 147.582 159.931 148.026 160.811 148.527C160.85 148.549 161.407 148.934 161.114 148.684C160.452 148.117 159.737 147.612 159.072 147.046C158.998 146.983 157.586 145.897 157.7 145.677C157.834 145.418 160.571 146.956 160.923 147.149C161.394 147.407 160.608 146.226 160.585 146.197C160.393 145.954 160.049 145.467 159.721 145.373C159.519 145.316 159.974 145.713 160.129 145.854C160.159 145.882 160.869 146.463 160.857 146.481C160.772 146.614 160.554 146.391 160.408 146.332C159.749 146.07 159.241 145.851 158.576 145.542C157.131 144.872 155.743 144.109 154.363 143.317C154.075 143.151 153.403 142.585 153.453 142.913C153.53 143.413 153.79 143.875 153.896 144.369C154.265 146.075 153.176 140.953 152.896 139.231C152.808 138.69 152.829 138.271 153.274 137.909C154.005 137.314 154.795 136.768 155.454 136.089C155.653 135.884 155.986 135.698 156.135 135.466C156.541 134.836 154.437 134.356 154.17 134.276C153.184 133.979 152.19 133.699 151.207 133.395C150.769 133.259 150.323 133.332 149.875 133.242C149.804 133.227 149.057 133.02 149.103 133.167C149.44 134.259 150.156 135.169 150.209 136.36C150.263 137.571 149.465 138.461 148.748 139.343C148.285 139.91 147.848 140.396 147.525 141.049C147.336 141.432 147.166 141.65 146.795 141.843C146.791 141.845 146.49 141.994 146.631 142.019C147.157 142.112 147.898 141.909 148.408 141.853C150.305 141.646 152.222 141.494 154.112 141.234C154.998 141.112 155.729 140.537 156.644 140.531C157.021 140.529 157.428 140.686 157.768 140.842" stroke="white" stroke-width="3.80674" stroke-linecap="round"/>
<path d="M161.429 137.539C162.398 137.791 165.281 138.572 164.369 138.157C163.801 137.898 163.143 137.74 162.556 137.539C161.752 137.264 160.953 136.963 160.139 136.717C159.888 136.64 159.966 136.677 160.137 136.778C160.827 137.184 161.529 137.573 162.228 137.96C163.255 138.529 164.35 139.024 165.349 139.64C165.866 139.96 166.304 140.411 166.838 140.72C167.403 141.046 167.979 141.354 168.494 141.756C168.819 142.011 169.157 142.246 169.493 142.485C169.635 142.586 170.123 143.058 170.324 143.014C170.799 142.912 170.278 141.891 170.191 141.748C169.837 141.17 169.528 140.602 169.298 139.96C169.063 139.302 168.952 138.602 168.683 137.957C168.608 137.776 168.438 137.396 168.196 137.449" stroke="white" stroke-width="3.80674" stroke-linecap="round"/>
<path d="M160.591 146.357C160.487 146.319 160.551 146.619 160.592 146.658C160.701 146.764 160.94 146.875 161.085 146.932C161.218 146.984 161.311 147.099 161.444 147.133" stroke="white" stroke-width="3.80674" stroke-linecap="round"/>
<path d="M150.042 151.629C161.56 157.84 157.652 150.783 154.257 146.478C156.935 148.473 162.755 151.993 164.611 150.114C166.467 148.235 160.937 143.84 157.94 141.878C161.6 144.059 169.676 147.89 172.695 145.759C175.714 143.628 170.8 137.651 167.965 134.929M150.042 151.629L217.278 201.236M150.042 151.629L143.519 140.847M167.965 134.929L229.826 178.437M167.965 134.929L145.37 129.994M229.826 178.437L233.123 180.756C239.081 184.946 240.41 193.224 236.065 199.069V199.069C231.81 204.792 223.728 205.996 217.99 201.762L217.278 201.236M229.826 178.437C227.957 177.809 222.831 181.49 217.278 201.236M145.37 129.994L138.747 128.547C137.586 128.294 136.686 129.553 137.301 130.569L143.519 140.847M145.37 129.994C147.011 131.743 148.937 136.362 143.519 140.847" stroke="black" stroke-width="2.19947" stroke-linejoin="round"/>
<path d="M208.057 132.834C205.753 128.057 209.978 124.029 215.937 122.749M251.457 138.998C240.929 124.356 223.918 121.036 215.937 122.749M215.937 122.749C216.16 114.517 232.936 110.331 254.668 127.755" stroke="black" stroke-width="1.97701"/>
<path d="M225.265 120.86C225.386 120.477 226.908 122.114 227.105 121.7C227.225 121.446 227.094 120.515 227.505 120.828C227.83 121.074 228.12 121.305 228.52 121.427C228.992 121.571 229.286 121.392 229.726 121.401C230.171 121.41 230.445 122.205 230.912 122.131C231.03 122.112 231.116 121.999 231.197 121.923C231.364 121.766 231.625 122.246 231.689 122.326C231.931 122.631 232.572 123.716 233.07 123.653C233.338 123.619 233.263 123.333 233.594 123.448C234.216 123.666 234.788 124.054 235.453 124.146C235.671 124.176 235.749 124.133 235.916 124.025C236.073 123.923 236.288 124.253 236.367 124.337C236.473 124.447 237.152 125.36 237.369 125.223C237.43 125.185 237.426 125.083 237.461 125.028C237.595 124.819 237.914 125.113 238.014 125.193C238.327 125.439 238.614 125.72 238.902 125.995C238.993 126.082 239.199 126.355 239.348 126.375C239.402 126.383 239.432 126.318 239.486 126.32C239.826 126.337 240.247 126.82 240.479 127.008C240.999 127.432 241.803 127.865 242.233 128.401" stroke="#C6C6C8" stroke-width="3.2992" stroke-linecap="round"/>
<path d="M239.93 170.646C236.729 152.989 222.572 151.234 211.144 153.408C204.779 154.618 197.998 154.366 192.484 150.963L186.761 147.431C183.454 145.39 182.525 140.998 184.723 137.793C186.263 135.548 188.753 135.024 191.48 135.091C193.416 135.138 195.472 135.483 197.392 135.721C197.559 135.742 197.724 135.75 197.887 135.744C198.256 135.731 198.603 135.66 198.919 135.521C201.762 134.267 204.652 133.39 207.549 132.839C205.71 126.727 212.215 124.39 216.289 122.213C219.946 109.091 240.839 118.508 250.251 124.438C240.513 85.6051 274.068 82.7582 269.704 98.5858C269.041 100.991 268.756 103.447 268.755 106.05C268.748 120.575 282.009 132.886 283.227 173.076C284.445 213.265 237.735 245.281 197.585 226.006C180.9 217.997 175.422 206.222 174.453 194.116C174.28 191.954 174.256 189.854 174.346 187.863C174.358 187.597 174.372 187.332 174.388 187.069C174.722 181.558 180.079 178.234 185.52 179.171C191.993 180.287 195.541 187.189 197.301 193.518C198.701 198.551 202.49 203.191 210.445 205.427C230.736 211.131 245.241 199.946 239.93 170.646Z" fill="white"/>
<path d="M254.542 150.575C247.097 140.34 227.178 129.106 207.549 132.839M269.704 98.5858C274.068 82.7582 240.513 85.6051 250.251 124.438M269.704 98.5858C268.327 97.5931 264.702 96.1825 261.224 98.4817C256.877 101.356 261.466 107.448 268.755 106.05M269.704 98.5858C269.041 100.991 268.756 103.447 268.755 106.05M250.251 124.438C240.839 118.508 219.946 109.091 216.289 122.213M250.251 124.438C251.355 125.124 253.74 126.718 254.45 127.604M268.755 106.05C268.748 120.575 282.009 132.886 283.227 173.076C284.445 213.265 237.735 245.281 197.585 226.006C180.9 217.997 175.422 206.222 174.453 194.116M174.346 187.863C174.358 187.597 174.372 187.332 174.388 187.069C174.722 181.558 180.079 178.234 185.52 179.171V179.171C191.993 180.287 195.541 187.189 197.301 193.518C198.701 198.551 202.49 203.191 210.445 205.427C230.736 211.131 245.241 199.946 239.93 170.646C236.729 152.989 222.572 151.234 211.144 153.408C204.779 154.618 197.998 154.366 192.484 150.963L186.761 147.431C183.454 145.39 182.525 140.998 184.723 137.793V137.793C187.357 133.953 192.771 135.148 197.392 135.721C197.559 135.742 197.724 135.75 197.887 135.744M174.346 187.863C176.01 186.514 180.594 184.368 185.615 186.578C191.89 189.34 181.641 196.557 174.453 194.116M174.346 187.863C174.256 189.854 174.28 191.954 174.453 194.116M191.884 134.832C190.381 135.724 187.512 138.274 188.059 141.336C188.744 145.164 195.826 139.533 197.887 135.744M197.887 135.744C198.256 135.731 198.603 135.66 198.919 135.521C201.762 134.267 204.652 133.39 207.549 132.839M216.289 122.213C212.215 124.39 205.71 126.727 207.549 132.839M216.289 122.213C224.663 121.919 243.305 124.688 250.877 138.111" stroke="black" stroke-width="2.19947"/>
<path d="M217.506 122.248C220.217 121.794 223.02 122.411 225.61 123.189C227.074 123.629 228.373 124.351 229.842 124.727C231.923 125.261 234.4 125.646 236.263 126.781C238.691 128.26 241.383 129.434 243.723 131.045C244.782 131.775 245.688 132.655 246.802 133.318C247.414 133.682 248.426 134.111 248.83 134.745C249.344 135.551 249.548 136.861 250.353 137.379" stroke="black" stroke-width="1.09973" stroke-linecap="round"/>
<path d="M155.669 147.629L220.302 191.971" stroke="black" stroke-width="2.19947"/>
<path d="M161.915 144.43L223.73 184.291" stroke="black" stroke-width="2.19947"/>
<path d="M215.133 198.283C215.04 197.681 215.617 196.997 215.872 196.484C216.167 195.892 216.381 195.279 216.622 194.667C216.952 193.831 217.61 193.176 218.093 192.426C218.811 191.313 218.733 189.988 219.183 188.786C219.637 187.575 220.15 186.643 221.075 185.721C221.814 184.985 221.967 184.013 222.353 183.096C222.804 182.024 223.447 181.41 224.055 180.466C224.963 179.059 226.183 177.169 227.943 176.789" stroke="black" stroke-width="1.318" stroke-linecap="round"/>
<path d="M156.6 156.763C157.293 159.574 158.162 162.39 159.294 165.057C159.372 165.241 159.38 165.524 159.569 165.59C159.707 165.639 159.581 165.295 159.558 165.15C159.486 164.681 159.379 164.217 159.285 163.752C159.173 163.203 159.033 162.659 158.939 162.106C158.892 161.832 158.628 161.424 158.863 161.276C159.073 161.144 159.174 161.665 159.303 161.877C159.634 162.425 159.9 163.012 160.239 163.555C160.803 164.462 161.736 166.138 162.213 164.295C162.335 163.823 162.553 162.582 162.84 162.975C163.491 163.866 163.798 165.154 164.214 166.157C164.367 166.528 164.928 168.531 165.478 168.705C165.794 168.805 165.674 167.501 165.696 167.36C165.718 167.218 165.961 167.509 166.028 167.637C166.988 169.456 167.767 171.371 168.646 173.23C168.781 173.515 168.901 173.81 169.065 174.08C169.254 174.393 169.33 174.293 169.406 174.006C169.662 173.045 169.715 171.985 169.829 171C169.892 170.453 169.935 169.898 170.038 169.356C170.109 168.982 170.371 170.045 170.499 170.404C170.729 171.047 171.634 174.361 172.463 174.493C172.916 174.565 173.263 172.321 173.3 172.357C173.836 172.872 174.174 174.57 174.393 175.158C174.858 176.402 175.32 177.708 175.984 178.866C176.273 179.372 176.449 179.402 176.649 178.855C177.051 177.751 177.209 176.557 177.418 175.407C177.467 175.141 177.504 174.325 177.864 174.944C178.401 175.867 178.779 176.897 179.262 177.848C179.354 178.031 180.586 180.788 180.838 179.661C180.928 179.26 181.104 179.042 181.135 178.6C181.184 177.921 181.167 177.235 181.108 176.557C181.034 175.708 181.021 176.107 180.789 176.475C179.903 177.882 176.483 173.581 176.062 173.133C175.408 172.435 174.421 170.958 173.463 170.544C173.001 170.345 173.365 171.704 173.387 171.849C173.509 172.616 171.048 170.366 170.822 170.202C169.775 169.442 168.506 168.839 167.512 168.021C165.835 166.642 164.521 165.146 163.639 163.714C163.378 163.29 161.537 160.145 160.993 161.606C160.792 162.147 160.859 162.998 160.45 163.444C159.764 164.191 158 162.255 157.636 161.908C156.319 160.656 155.214 159.208 153.928 157.932C153.569 157.575 154.139 159.946 154.132 159.439C154.113 158.231 153.791 156.949 153.636 155.748C153.623 155.648 153.574 155.35 153.571 155.452C153.547 156.419 153.516 157.386 153.596 158.352C153.645 158.944 153.657 158.807 153.544 158.288C153.308 157.192 153.078 156.094 152.826 155.001C152.736 154.613 152.646 154.225 152.546 153.839C152.448 153.458 152.562 152.655 152.172 152.717C152.024 152.74 152.394 155.786 152.414 156.012C152.503 157.051 152.643 158.441 152.102 156.7C152.019 156.435 151.701 155.237 151.71 155.28" stroke="black" stroke-opacity="0.2" stroke-width="3.2992" stroke-linecap="round"/>
<path d="M187.494 135.166C188.965 134.848 190.576 134.247 192.09 134.446C193.204 134.592 194.226 134.818 195.269 135.25C196.582 135.794 198.504 135.087 199.797 134.808C201.813 134.373 204.071 134.166 205.964 133.323C206.685 133.003 206.564 132.135 206.736 131.454C206.932 130.677 207.242 129.937 207.432 129.158C207.57 128.593 207.499 127.999 207.821 127.49C208.655 126.173 210.011 125.333 211.384 124.669C212.689 124.038 213.749 123.857 214.849 122.89C215.544 122.279 216.127 121.838 216.496 120.977C218.042 117.366 221.519 115.91 225.118 115.087C227.027 114.652 228.39 114.623 230.3 115.348C231.934 115.968 233.541 116.621 235.127 117.354C235.688 117.613 236.266 117.585 236.857 117.832C238.481 118.511 240.059 119.199 241.789 119.577C242.763 119.79 243.748 119.873 244.661 120.302C246.355 121.098 247.922 122.112 249.55 123.027C252.001 124.406 254.023 126.376 256.518 127.619" stroke="black" stroke-width="1.09973" stroke-linecap="round"/>
<path d="M250.485 123.097C249.547 118.752 249.23 114.324 249.876 109.904C250.405 106.28 250.783 102.5 252.123 99.0562C252.956 96.9131 254.471 94.9047 256.168 93.3805C257.637 92.0612 259.486 91.3867 261.218 90.468C262.133 89.9829 263.545 88.9857 264.666 89.4C265.873 89.8464 267.321 89.8471 268.294 90.7453C269.097 91.4864 269.312 93.1709 269.537 94.2148C269.897 95.8841 269.743 97.4045 269.446 99.0791C269.226 100.326 268.854 101.576 268.985 102.857C269.106 104.04 269.182 105.16 269.264 106.356C269.507 109.937 270.145 113.795 271.284 117.21C272.489 120.823 273.291 124.537 274.36 128.185C275.712 132.797 277.723 137.283 278.776 141.971C279.423 144.856 280.024 147.752 280.648 150.643C281.086 152.673 280.581 154.919 280.57 156.986C280.546 161.784 281.043 166.669 282.054 171.353C282.771 174.673 282.57 177.884 282.527 181.273C282.51 182.673 282.662 184.113 282.479 185.506C282.324 186.691 281.617 187.872 281.58 189.03" stroke="black" stroke-width="1.09973" stroke-linecap="round"/>
<path d="M283.461 181.42C283.409 185.895 281.578 190.472 280.361 194.742C279.461 197.899 277.854 200.662 275.938 203.36C274.54 205.328 272.867 206.87 271.291 208.655C269.485 210.7 267.708 213.115 265.368 214.583C263.687 215.637 262.124 216.894 260.49 218.02C259.818 218.483 259.188 219.189 258.477 219.579C257.323 220.212 256.028 220.632 254.859 221.28C253.579 221.988 252.172 222.614 250.995 223.493C249.073 224.93 246.925 226.173 244.854 227.391C244.397 227.659 244.093 227.772 243.582 227.887C241.062 228.45 238.533 229.046 236.047 229.743C232.687 230.686 229.137 230.199 225.728 229.707C224.858 229.581 223.831 229.239 222.944 229.431C221.595 229.722 220.182 229.803 218.807 229.83C216.572 229.875 214.421 229.326 212.223 229.268C210.022 229.209 207.864 228.683 205.705 228.3C204.819 228.143 203.937 228.008 203.037 227.973C202.571 227.955 202.033 228.048 201.577 227.914C200.656 227.642 199.757 226.988 198.944 226.524C196.412 225.08 193.923 223.563 191.387 222.127C190.658 221.714 190.124 221.333 189.528 220.775C187.935 219.283 186.153 217.975 184.469 216.588C182.49 214.957 180.807 212.964 179.202 210.965C177.559 208.917 177.327 207.326 176.78 204.795C175.828 200.386 174.933 196.029 174.914 191.498C174.906 189.695 175.382 187.947 175.762 186.198C175.971 185.234 176.2 184.151 176.74 183.313C177.976 181.396 180.038 180.596 182.13 179.884C183.836 179.304 185.512 178.993 186.974 180.277C188.275 181.419 189.624 182.521 190.578 183.995C191.039 184.706 191.345 185.487 191.634 186.279C191.955 187.16 192.931 187.873 193.552 188.538C195.238 190.345 196.657 192.5 197.607 194.781C198.419 196.729 198.689 199.173 200.102 200.815C200.757 201.576 202.169 201.976 203.023 202.432C204.297 203.114 205.548 203.835 206.838 204.487C207.326 204.733 207.733 205.02 208.189 205.302C208.634 205.577 209.496 205.457 209.972 205.513C212.065 205.759 214.111 206.266 216.194 206.57C216.647 206.637 217.128 206.772 217.58 206.68C220.633 206.057 223.742 205.486 226.755 204.69C229.171 204.053 231.288 202.097 233.176 200.554C235.137 198.951 236.476 197.025 238.132 195.116C238.968 194.152 239.898 193.122 240.418 191.94C240.744 191.2 240.801 190.357 240.945 189.57C241.402 187.072 241.333 184.523 241.805 182.036C241.956 181.241 241.566 180.238 241.532 179.43C241.45 177.516 241.448 175.586 241.472 173.67C241.502 171.114 240.912 168.588 240.021 166.201C239.534 164.897 238.668 164.102 238.059 162.912C236.971 160.787 235.883 158.773 234.186 157.082C232.974 155.873 231.074 154.84 229.408 154.435C227.894 154.067 226.391 153.211 224.79 153.474C221.559 154.004 218.188 153.74 214.931 154.189C213.23 154.424 211.575 154.388 209.858 154.314C207.458 154.209 205.18 153.914 202.931 153.068C201.467 152.517 199.774 151.854 198.212 151.72C196.208 151.547 194.419 150.738 192.587 149.92C191.153 149.279 189.821 148.729 188.667 147.616C187.766 146.747 186.967 145.821 186.208 144.826C185.877 144.392 185.423 143.97 185.292 143.423C185.016 142.264 184.764 141.109 184.84 139.911C184.942 138.32 185.317 137.486 186.554 136.45C188.991 134.409 191.834 135.043 194.701 135.815C195.566 136.047 196.613 136.905 197.516 136.825C197.922 136.789 198.359 136.586 198.721 136.411C199.891 135.849 201.052 135.266 202.228 134.709C204.378 133.691 206.267 133.228 208.617 132.989C209.597 132.889 210.546 132.619 211.511 132.432C212.846 132.173 214.305 132.445 215.639 132.545C218.55 132.764 221.263 132.69 224.08 133.465C226.132 134.029 228.156 134.688 230.215 135.222C231.231 135.486 232.057 135.685 233.019 136.141C235.445 137.288 238.119 138.206 240.361 139.699C241.884 140.712 243.542 141.485 245.118 142.409C246.451 143.191 247.682 144.129 248.995 144.944C250.694 145.999 252.349 147.038 253.865 148.337C254.494 148.875 254.524 149.613 254.692 150.389" stroke="black" stroke-width="1.09973" stroke-linecap="round"/>
<path d="M268.33 98.5542C267.144 97.2009 264.174 97.6247 262.685 98.1212C260.368 98.8942 259.588 100.738 260.274 103.044C261.123 105.895 267.523 107.555 268.978 104.392" stroke="black" stroke-width="1.09973" stroke-linecap="round"/>
<path d="M191.063 136.081C190.325 136.578 189.926 139.031 189.83 139.838C189.781 140.255 189.629 140.797 189.717 141.207C189.812 141.645 190.717 141.165 190.896 140.987C191.704 140.183 192.642 139.623 193.651 139.115C194.629 138.623 195.698 138.373 196.433 137.527" stroke="black" stroke-width="1.09973" stroke-linecap="round"/>
<path d="M176.201 186.495C177.766 186.157 179.363 185.68 180.971 185.635C182.897 185.581 184.328 186.446 185.948 187.353C186.326 187.565 187.434 188.373 187.227 188.899C186.855 189.842 185.91 190.572 185.282 191.329C184.612 192.137 183.486 192.391 182.527 192.647C181.572 192.903 180.649 193.198 179.677 193.407C178.906 193.574 178.212 193.813 177.432 193.619C176.972 193.505 176.489 193.329 176.013 193.432" stroke="black" stroke-width="1.09973" stroke-linecap="round"/>
<path d="M137.591 129.844C138.181 132.356 139.675 134.527 140.859 136.792C142.118 139.2 143.361 141.453 145.066 143.577C146.555 145.433 147.265 148.071 149.096 149.637C150.416 150.766 152.067 151.625 153.652 152.319C154.543 152.709 154.99 153.024 155.998 152.947C157.092 152.865 156.707 150.12 156.627 149.537C156.565 149.084 156.439 146.945 155.95 146.681C155.633 146.509 155.46 146.534 155.227 146.214C155.175 146.143 154.978 146.072 155.24 146.181C156.399 146.665 157.508 147.272 158.616 147.863C159.606 148.39 161.815 150.265 163.112 149.985C164.086 149.775 164.518 148.318 164.722 147.488C164.983 146.422 164.364 145.13 163.566 144.464C162.306 143.411 157.845 141.237 159.24 142.103C161.135 143.28 163.46 144.067 165.525 144.884C166.518 145.277 168.092 146.184 169.213 146.147C169.93 146.123 170.443 144.901 170.742 144.391C171.154 143.686 171.827 143.249 172.14 142.492C173.217 139.88 171.052 138.016 169.199 136.408C168.441 135.75 167.68 134.954 166.854 134.383C165.841 133.683 163.261 134.285 162.118 134.311C159.051 134.381 156.378 133.785 153.57 132.631C150.448 131.35 147.122 129.828 143.786 129.23C142.543 129.007 141.319 128.499 140.077 128.334C139.97 128.319 139.01 128.273 139.23 128.225" stroke="black" stroke-width="1.09973" stroke-linecap="round"/>
<path d="M145.347 140.644C145.413 140.037 146.023 139.437 146.35 138.961C146.919 138.132 147.457 137.265 147.807 136.316C148.158 135.365 148.446 134.163 148.248 133.148C148.053 132.149 147.706 131.379 147.306 130.459" stroke="black" stroke-width="1.09973" stroke-linecap="round"/>
<path d="M151.448 152.162C154.123 153.959 156.283 156.358 158.9 158.206C159.936 158.938 161.066 159.531 162.15 160.186C163.795 161.181 165.295 162.391 166.932 163.402C169.502 164.991 171.922 166.83 174.581 168.269C175.08 168.539 175.317 168.792 175.735 169.195C177.087 170.496 178.634 171.575 180.049 172.803C182.698 175.1 185.68 177.051 188.512 179.111C189.515 179.84 190.988 180.339 191.877 181.156C194.314 183.398 197.111 184.894 199.937 186.577C202.146 187.893 204.223 189.677 206.315 191.186C207.769 192.234 209.132 192.907 210.108 194.334C212.32 197.569 215.362 200.018 218.743 201.81C220.384 202.679 222.085 203.415 223.907 203.819C224.639 203.981 226.003 204.221 226.715 203.986C227.567 203.704 228.369 203.085 229.207 202.734C229.989 202.407 230.832 202.153 231.538 201.669C232.011 201.344 232.493 201.013 232.981 200.724" stroke="black" stroke-width="1.09973" stroke-linecap="round"/>
<path d="M232.877 180.138C232.606 179.616 231.829 179.424 231.33 179.206C230.446 178.821 229.772 178.161 229.059 177.527C227.45 176.097 225.732 174.913 223.785 173.986C222.696 173.467 221.469 173.121 220.426 172.522C218.024 171.142 215.738 169.532 213.41 168.03C210.858 166.385 208.695 164.045 206.332 162.136C203.671 159.987 200.406 158.54 197.4 156.864C196.657 156.45 196.154 155.877 195.475 155.391C193.389 153.9 191.111 152.636 189.157 150.97C188.415 150.338 187.877 149.504 187.093 148.945C184.488 147.09 181.786 145.371 179.15 143.56C176.161 141.505 172.821 139.98 169.879 137.878" stroke="black" stroke-width="1.09973" stroke-linecap="round"/>
<path d="M158.456 141.068C160.431 142.474 162.118 144.273 164.039 145.758C167.002 148.05 170.176 150.209 173.383 152.147C176.516 154.041 179.898 155.838 183.297 157.177C184.191 157.53 185.805 157.835 186.516 158.551C187.973 160.018 189.247 161.469 191.03 162.618C192.633 163.652 194.425 164.415 196.082 165.364C197.173 165.989 198.166 166.886 199.27 167.568C202.771 169.732 205.886 172.229 209.304 174.501C210.444 175.259 211.611 175.971 212.836 176.581C213.214 176.769 213.896 176.932 214.2 177.271C216.05 179.33 218.588 180.736 220.894 182.223C222.139 183.025 223.267 183.975 224.499 184.779C225.724 185.578 227.14 186.201 228.233 187.187C228.75 187.653 229.159 188.23 229.666 188.705C230.288 189.29 231.116 189.616 231.783 190.136" stroke="black" stroke-width="1.09973" stroke-linecap="round"/>
<path d="M161.324 151.838C163.119 152.298 164.752 153.82 166.234 154.856C167.984 156.078 169.707 157.33 171.617 158.293C173.701 159.345 175.616 160.699 177.603 161.922C178.41 162.419 179.629 162.871 180.225 163.646C181.363 165.126 183.361 165.983 184.926 166.909C186.486 167.833 187.815 169.003 189.325 169.977C190.34 170.631 191.54 170.943 192.546 171.592C194.282 172.711 195.77 174.476 197.412 175.753C201.488 178.925 205.926 181.578 210.288 184.312C212.493 185.695 214.641 187.17 216.862 188.527C218.505 189.532 220.218 190.35 221.741 191.541C222.71 192.299 223.944 193.349 224.569 194.406" stroke="black" stroke-width="1.09973" stroke-linecap="round"/>
<path d="M139.806 41.9987C141.432 42.3408 142.837 42.9632 144.178 43.9363C145.132 44.6284 146.266 45.0379 147.247 45.6965C148.316 46.4133 149.333 47.308 150.079 48.3634C150.873 49.4876 151.027 50.2493 151.376 51.5597C152.222 54.7362 153.999 57.5235 154.861 60.6977C155.173 61.846 155.5 62.9849 155.843 64.1234C156.097 64.9671 156.214 65.8806 156.365 66.7435C156.8 69.2252 157.26 71.6937 157.792 74.1569C158.092 75.5463 158.392 76.9358 158.692 78.3252C158.756 78.6187 158.786 78.9194 158.932 79.1782C159.021 79.334 159.038 79.4731 159.074 79.662C159.278 80.7277 159.415 81.8062 159.612 82.8735C160.345 86.8266 161.234 90.7625 162.558 94.5634C163.413 97.0192 164.555 99.2805 165.103 101.816C165.803 105.06 166.551 108.297 167.205 111.55C167.85 114.759 168.276 118.006 168.968 121.208C169.316 122.82 169.812 124.433 170.238 126.028C171.36 130.23 173.933 133.927 174.849 138.17" stroke="black" stroke-width="1.09973" stroke-linecap="round"/>
<path d="M181.389 140.551C180.279 135.41 179.283 130.23 178.051 125.116C177.505 122.853 176.753 120.656 175.804 118.531C175.059 116.861 174.787 115.166 174.258 113.436C172.934 109.102 171.483 104.822 170.488 100.393C169.973 98.1028 169.466 95.8335 168.822 93.5706C167.711 89.6646 166.555 85.7977 165.698 81.8264C165.605 81.3956 165.433 80.9703 165.288 80.5578C164.525 78.3862 163.762 76.2223 163.118 74.0113C161.586 68.7526 160.589 63.3307 159.434 57.9819C158.582 54.0375 156.784 50.4585 155.326 46.7042C155.178 46.3241 154.803 45.9843 154.538 45.6968C153.894 44.9978 153.232 44.3068 152.547 43.648C151.612 42.7495 150.422 41.7837 149.192 41.342C147.588 40.7659 145.712 41.3669 144.109 40.7352" stroke="black" stroke-width="1.09973" stroke-linecap="round"/>
<path d="M150.874 38.4935C151.816 38.2901 152.846 38.6603 153.724 39.0061C155.246 39.606 156.876 40.2985 158.22 41.2329C159.936 42.4256 161.713 43.7226 163.312 45.0664C164.39 45.9737 165.462 47.3189 165.897 48.691C166.185 49.5966 166.046 50.7234 166.103 51.6522C166.223 53.6221 166.599 55.5294 167.015 57.454C168.167 62.7888 169.319 68.1236 170.471 73.4584C171.622 78.7934 172.546 84.2486 174.15 89.4641C174.683 91.2003 175.001 92.9613 175.346 94.746C176.071 98.4975 177.011 102.198 177.815 105.925C178.754 110.274 179.913 114.474 181.455 118.649C181.803 119.59 182.301 120.534 182.52 121.517C182.873 123.096 183.188 124.68 183.674 126.226C184.482 128.801 185.4 131.239 185.969 133.873" stroke="black" stroke-width="1.09973" stroke-linecap="round"/>
<path d="M192.36 133.497C191.514 129.579 190.713 125.647 189.821 121.738C189.086 118.519 187.785 115.406 186.761 112.273C186.055 110.115 185.406 107.938 184.725 105.772C182.899 99.9695 180.911 94.2803 179.595 88.326C178.456 83.1743 176.944 78.1156 175.829 72.9524C174.821 68.2828 172.788 63.8767 171.402 59.3082C170.288 55.6373 169.748 51.8548 168.331 48.2713C167.764 46.837 166.997 45.4506 166.559 43.9689C166.315 43.1415 165.639 42.4075 165.041 41.8178C164.113 40.9015 163.103 40.0287 162.126 39.163C161.116 38.2686 159.676 37.4224 158.309 37.2727C157.578 37.1926 156.787 37.4767 156.1 37.6628C154.619 38.0645 153.148 38.4996 151.656 38.8641C150.534 39.1383 149.402 39.3694 148.273 39.6131C144.755 40.3728 141.398 42.0034 137.831 42.5372C135.847 42.834 133.796 42.6822 131.797 42.9477C130.967 43.0578 130.11 43.1146 129.287 43.2663C124.949 44.0663 120.725 45.4481 116.551 46.8468C112.705 48.1355 108.844 49.6883 104.875 50.5452C104.24 50.6824 103.809 51.0232 103.217 51.306C100.898 52.414 98.3286 53.1559 95.8263 53.726C92.7621 54.4242 89.6835 55.1165 86.5912 55.6705C83.0714 56.301 79.4759 56.0645 75.9812 56.9017C74.4779 57.2618 73.038 57.9833 71.6904 58.7267C70.6283 59.3126 69.5732 60.2869 68.3653 60.5477C65.2945 61.2108 62.3485 62.4046 59.2674 63.0698C56.3451 63.7008 53.3957 66.0824 51.8537 68.5995C51.0028 69.9883 50.7306 71.3823 50.7445 72.991C50.7574 74.493 50.6425 75.928 50.4116 77.4194C50.1517 79.098 50.3825 80.4772 50.6466 82.1527C51.2557 86.0161 52.0881 89.8334 52.9132 93.6545C53.7479 97.5203 54.4965 101.415 55.4426 105.255C55.6599 106.136 56.0243 106.991 56.2074 107.878C56.6667 110.105 56.8566 112.377 57.3377 114.606C57.9313 117.355 58.7648 120.054 59.0877 122.854C59.5877 127.19 60.0766 131.433 61.5981 135.543C62.161 137.063 62.0795 138.983 62.3117 140.569C62.6628 142.969 63.1802 145.338 63.6918 147.708C64.3523 150.767 65.0405 153.819 65.6819 156.896C66.3135 159.925 67.3263 162.831 67.9381 165.853C68.8584 170.398 69.4401 175.188 71.1206 179.53" stroke="black" stroke-width="1.09973" stroke-linecap="round"/>
<path d="M69.711 178.437C70.084 180.165 70.4264 181.904 70.9138 183.604C71.6048 186.014 72.6755 188.175 73.7856 190.403C74.1547 191.144 74.3146 191.876 74.4898 192.687C75.0805 195.423 75.6712 198.159 76.2619 200.895C76.5623 202.286 76.8137 203.7 77.1931 205.072C77.5984 206.539 78.2573 207.918 78.7907 209.339C79.9352 212.387 80.0226 215.842 80.8526 218.989C81.2921 220.656 82.0697 222.383 83.05 223.81C83.4929 224.455 84.0347 225.026 84.5638 225.6C85.4892 226.603 86.5207 227.213 87.5892 228.023C88.2558 228.529 88.8762 229.1 89.5104 229.645C90.2809 230.307 91.2662 230.668 92.1738 231.099C92.6602 231.331 93.0434 231.488 93.5855 231.405C95.1201 231.173 96.6271 230.872 98.1781 230.712C100.417 230.481 102.781 230.648 104.852 229.686C107.887 228.275 111.236 227.602 114.491 226.899C124.537 224.73 134.541 222.383 144.598 220.267C149.133 219.313 153.714 218.568 158.302 217.912C161.771 217.417 165.221 217.124 168.649 216.384C172.876 215.471 177.138 214.943 181.35 214.034" stroke="black" stroke-width="1.09973" stroke-linecap="round"/>
<path d="M92.5491 142.82C92.5985 142.484 92.7178 142.158 92.8324 141.841C93.4464 140.145 94.2515 138.53 95.0798 136.93C96.2392 134.689 97.3749 132.468 98.4072 130.172C98.8363 129.217 99.4895 128.316 100.061 127.448C101.252 125.638 102.537 123.887 103.654 122.029C104.438 120.726 104.979 119.391 105.402 117.941C105.844 116.426 106.745 115.068 107.211 113.556C107.393 112.963 107.409 112.288 107.61 111.712C107.717 111.404 108.128 112.112 108.352 112.349C109.261 113.312 110.216 114.232 111.236 115.077C113.739 117.151 116.513 118.622 119.378 120.098C121.255 121.066 122.811 122.449 124.591 123.563C125.302 124.008 126.349 124.377 126.921 125.014C127.803 125.996 128.935 126.813 130.007 127.569C131.358 128.52 132.696 129.67 134.167 130.425C135.487 131.101 136.775 131.79 137.973 132.666" stroke="black" stroke-width="1.09973" stroke-linecap="round"/>
<path d="M138.193 134.088C135.954 134.571 133.716 135.054 131.477 135.538C130.434 135.763 129.355 135.925 128.342 136.272C124.301 137.658 120.248 138.331 115.998 138.669C113.829 138.841 111.677 139.298 109.511 139.556C107.449 139.801 105.49 140.247 103.447 140.601C101.416 140.953 99.469 141.181 97.4678 141.724C96.7118 141.929 95.9596 142.173 95.2208 142.435C95.0593 142.492 94.9311 142.541 94.8488 142.669" stroke="black" stroke-width="1.09973" stroke-linecap="round"/>
<path d="M107.899 116.259C107.891 116.219 107.891 116.165 107.888 116.275C107.873 116.951 107.76 117.625 107.651 118.29C107.171 121.239 106.742 124.194 106.245 127.14C105.992 128.635 105.734 130.13 105.559 131.637C105.501 132.141 105.444 132.656 105.5 133.162C105.624 134.285 105.641 135.416 105.758 136.539C105.97 138.566 106.139 140.524 106.57 142.519C106.952 144.29 107.214 146.188 108.032 147.825C109.416 150.597 111.263 153.118 112.816 155.794C113.081 156.252 113.321 156.729 113.608 157.174C113.702 157.319 113.828 157.415 113.883 157.58C114.693 160.023 115.815 162.567 117.334 164.67C118.076 165.696 119.25 166.537 119.783 167.694C120.018 168.206 120.415 168.622 120.537 169.183" stroke="black" stroke-width="1.09973" stroke-linecap="round"/>
<path d="M120.593 168.652C120.047 166.121 119.508 163.611 119.226 161.031C119.085 159.736 118.873 158.343 119.06 157.038C119.145 156.447 119.069 155.874 119.04 155.276C118.891 152.242 118.987 149.187 119.13 146.154C119.147 145.792 119.136 145.522 119.064 145.16C118.772 143.693 118.565 142.218 118.406 140.732C118.328 140.006 118.275 139.274 118.152 138.554C118.048 137.945 117.751 137.352 117.543 136.779C116.389 133.603 115.492 130.343 114.645 127.073C114.543 126.677 114.404 126.314 114.241 125.936C113.5 124.21 112.704 122.507 111.975 120.775C111.459 119.551 110.825 118.209 110.542 116.898" stroke="black" stroke-width="1.09973" stroke-linecap="round"/>
<path d="M113.742 118.108C115.025 121.706 117.876 124.787 120.385 127.572C120.854 128.093 121.16 128.471 121.526 129.054C122.567 130.714 123.791 132.271 125.07 133.752C125.775 134.568 126.54 135.328 127.215 136.17C127.441 136.451 127.86 136.821 128.013 137.15C128.064 137.261 128.023 137.462 128.004 137.555C127.829 138.405 127.554 139.246 127.31 140.076C126.868 141.578 126.42 143.077 125.874 144.544C125.773 144.816 125.734 145.077 125.671 145.361C125.28 147.118 124.994 148.891 124.719 150.67C124.472 152.27 124.331 153.971 123.938 155.544C123.43 157.574 122.734 159.638 122.467 161.718C122.454 161.817 122.515 162.342 122.448 162.03" stroke="black" stroke-width="1.09973" stroke-linecap="round"/>
<path d="M95.2032 143.111C94.776 143.203 94.2922 143.386 93.8643 143.313" stroke="black" stroke-width="1.09973" stroke-linecap="round"/>
</g>
<defs>
<clipPath id="clip0_1945_287">
<rect width="320" height="274" fill="white" transform="translate(0.333008 0.666626)"/>
</clipPath>
</defs>
</svg>
