<svg width="113" height="148" fill="none" xmlns="http://www.w3.org/2000/svg"><path d="M102.35 27.373c.343.212.644.432.902.637.714.57 1.31 1.205 1.668 1.587l.029.03.006.008.007.007.086.093.056.058.014.016.054.049.065.066c2.896 2.913 3.51 7.24 1.925 10.907l-.303.7-.11.11c-.881 1.525-2.185 2.606-3.379 3.319-1.417.845-3.049 1.397-4.599 1.561l-.019.002-.019.002c-.414.04-.84.07-1.278.087.137 1.196.253 2.468.345 3.78m4.55-23.02L90.6 94.784l3.934.726v-.002c4.047-21.953 3.798-37.602 3.266-45.115m4.55-23.02c.843-1.272 1.561-2.721 1.965-4.364l.001-.006c.548-2.242.224-4.568-.531-6.496-.75-1.917-2.096-3.871-4.09-5.104l-.003-.002c-2.14-1.324-4.545-2.028-7.07-1.78-2.187.215-4.161 1.112-5.877 2.447-.483-1.329-1.153-2.372-1.74-3.252-.568-.862-1.458-1.79-2.459-2.514-.92-.667-2.638-1.676-4.755-1.528-4.23.296-7.4 3.196-9.271 5.36-1.998 2.31-3.317 4.723-3.742 5.532l-.01.021-.012.022c-.25.491-.474.911-.69 1.314l-.004.008-.004.007c-1.012 1.905-1.683 3.186-2.483 6.187l-.001.005c-.532 2.007-.622 4.024-.275 5.927-6.91 1.793-12.89 7.624-17.5 13.633-3.384 4.41-6.322 9.308-8.636 13.765-2.959-2.232-7.482-4.6-13.373-4.6-5.207 0-9.18 2.371-11.885 4.85-2.676 2.454-4.315 5.185-5.007 6.474-1.769 3.284-.869 7.474 2.425 9.57l.01.006c1.914 1.211 5.38 2.907 10.441 3.53L5.748 87.323l-.07.064-.066.067-.004.004c-.036.035-.253.249-.468.534l-.028.038-.027.037a5.002 5.002 0 0 0-.531.96l-.066.153-.052.157v.002a4.392 4.392 0 0 0-.233 1.126c-.036.398-.033.92.117 1.518l.037.149.027.081.016.053c.04.133.163.53.43.974l.012.02a4.83 4.83 0 0 0 .077.129c.226.367.467.636.645.814.17.17.333.304.354.32l.002.002c.315.263.61.435.815.541.176.091.338.16.366.172l.004.001.153.066.158.052.011.004c.087.03.502.172 1.055.223.347.037.736.039 1.156-.023l18.169-2.52c-.265 12.836-.01 21.081.582 26.485.642 5.869 1.744 9.225 3.831 11.372 1.402 1.445 3.232 2.234 5.26 2.234 2.389 0 3.885-1.563 4.592-2.526.24-.326.458-.673.657-1.033a5.828 5.828 0 0 0 2.151.579l.012.001.012.001c.227.015.45.017.67.008.084.595.18 1.17.29 1.719.3 1.499.752 3.085 1.505 4.423.736 1.307 2.17 3.056 4.63 3.392l.01.001.01.001c1.26.166 3.04-.032 4.668-1.414a7.403 7.403 0 0 0 1.173-1.273c.148.39.304.765.468 1.124.67 1.466 1.984 3.815 4.514 4.661l.07.023.07.021a5.633 5.633 0 0 0 4.872-.783c.985-.684 1.75-1.626 2.383-2.846.049.052.098.103.148.153l.015.015.015.015c1.298 1.277 3.085 2.116 5.148 1.98l.011-.001.011-.001c3.94-.281 6.037-3.641 7.156-6.371 1.22-2.979 2.076-7.079 2.693-12.097.209.08.423.15.641.211l16.275-95.743Zm-4.55 23.02-3.99.281 3.99-.282v.001Zm-12.828 72.317.479.058v-.001m-.479-.057.48.057m-.48-.057-.002-.001m.002.001-3.492-.426 3.49.425m.481.058-.48-.058m.48.058c.17-1.39.315-2.797.44-4.196a3.218 3.218 0 0 1-.71-.937c-.78-1.56-1.88-4.2-2.74-8a168.2 168.2 0 0 1-.678 10.092 7.145 7.145 0 0 0 3.207 2.983m7.188-.53-2.148-3.375 2.145 3.377.003-.002Zm1.253-79.72-.64.145.816-.136a52.835 52.835 0 0 0-.176-.009Zm-52.744 85.49.015.017 3.038-2.602-3.067 2.567.014.018ZM9.231 87.621c.073.006.141.014.205.023l-.281-.04H8.87c.132 0 .254.007.36.017Zm2.676 4.558c.01-.024.009-.02 0 0Zm.264-1.007a3.325 3.325 0 0 1-.011.108l.013-.108h-.002Zm-7.353 2.046Z" fill="#fff" stroke="#fff" stroke-width="8"/><path d="M12.005 92c0-1.15-.078-2.33.367-3.396.047-.112.291-.849.471-.75.24.131.303.405.372.68.166.662.44 1.232.701 1.845.071.168.105.334.16.507.034.112.092.08.125-.02.2-.607.406-1.208.646-1.797.506-1.24 1.185-2.312 1.837-3.444.198-.342.375-.732.633-1.019.36-.4.208.712.208.905 0 1.215-.05 2.427-.05 3.64v1.817c0 .085 0 .154.025.234.02.065-.017.251.025.203.102-.118.137-.552.17-.69.314-1.33.712-2.671 1.22-3.919.43-1.053.992-2.014 1.553-2.978.375-.645.703-1.269.9-2.016.245-.924.369-1.888.616-2.81.158-.59.42.181.518.43.476 1.204.542 2.553.542 3.858 0 1.395-.126 2.723-.285 4.105-.129 1.125-.545 4.491-.345 3.38.753-4.177 2.68-7.969 3.242-12.198.158-1.192.342-2.285.81-3.368.11-.252.363-.635.372-.93.005-.134.004-.15.072-.007.25.528.415 1.137.566 1.71.49 1.847.546 3.833.386 5.748-.178 2.128-.924 4.097-1.062 6.235-.03.477-.01.962-.01 1.44 0 .362.082-.718.128-1.076.268-2.12.443-4.255.698-6.378.214-1.784.457-3.556.81-5.311.245-1.216.544-2.416.748-3.643.14-.847.114-1.73.287-2.567.067-.322.502-.311.728-.295.381.028.697.299.838.706.438 1.265.323 2.84.29 4.169-.049 1.967-.547 3.858-.87 5.776-.25 1.485-.638 3.085-.493 4.615.08.838.186 1.663.186 2.507 0 .238-.027.503.003.74.059.476.12.01.145-.246.248-2.581.583-5.08 1.306-7.55.307-1.05.65-2.091.854-3.177.203-1.083.228-2.189.304-3.289.059-.85.151-1.69.493-2.46.299-.671.492-1.389.53-2.148.045-.86-.021-1.74.181-2.577.15-.616.454.436.532.646.743 2.02 1.044 4.092 1.07 6.276.022 1.816-.3 3.574-.786 5.296-.335 1.191-.648 2.382-1.01 3.564-.238.777-.306 1.492-.358 2.304-.04.613-.184 2.062.323 2.507.05.044.188.338.279.278.05-.032.084-.253.101-.313.085-.296.167-.588.271-.877.3-.83.839-1.541 1.306-2.25.485-.735.672-1.574 1.07-2.364.289-.572.672-1.023 1.019-1.539.043-.063.198-.316.202-.398.072-1.247-.036 2.498-.049 3.747-.008.751.05 1.487.05 2.235" stroke="#FFD424" stroke-width="2.5" stroke-linecap="round"/><path d="M67.733 32.433v-5.697c0-1.483-.016-2.935.171-4.407.059-.458.13-.915.255-1.36.05-.18.008-.232.089-.026.521 1.333.598 2.842.756 4.248.222 1.971.287 3.956.503 5.926.125 1.138.229 2.276.229 3.42v.258c0-1.06.005-2.121-.013-3.182-.073-4.214-.312-8.446-.172-12.66.044-1.325.074-2.711.312-4.019.024-.132.008-.277.08-.117.22.492.37.973.48 1.504.68 3.315.56 6.655.858 10.008.197 2.22.445 4.435.642 6.651.035.389.09.795.102 1.183.01.3.057.591.057.893v-2.638c0-2.99-.331-5.966-.63-8.938-.319-3.18-.463-6.345-.286-9.531.03-.532.133-1.04.217-1.564.003-.024.065-.401.127-.293.128.224.224.442.324.687.656 1.598 1.26 3.215 1.67 4.896.84 3.454 1.097 7.111 1.15 10.66.016 1.055-.04 2.116.016 3.17.033.63.156 1.246.242 1.87.074.542.031 1.11.031 1.659 0 .087.037.239.07.318.104.245.045-.307.045-.363 0-2.942-.069-5.893.089-8.832.142-2.657.588-5.302 1.224-7.884.508-2.063-.39-4.134-.566-6.168-.05-.57-.06-1.13-.06-1.701 0-.289.09-.014.127.13.34 1.301.59 2.604.728 3.943.464 4.5.804 9.054.804 13.578 0 1.958.007 3.915 0 5.872-.003.817 0 1.666-.143 2.474-.046.263-.04.594-.156.84-.12.251-.014-.332-.01-.37.166-1.246.51-2.465.71-3.707.265-1.649.587-3.287.826-4.94.501-3.467.904-7.086.579-10.587-.119-1.28-.432-2.531-.432-3.822v-1.341c0-.198-.039-.693.127-.859.086-.086.123.024.19-.13.082-.185.187-.375.242-.57.106-.37.213.213.251.335.405 1.274.815 2.534 1.148 3.83.228.886.391 1.778.591 2.668.108.479.294.934.37 1.421.157 1.018.094 2.053.158 3.078.081 1.292-.076 2.528-.26 3.802-.322 2.21-.096 4.451-.3 6.67-.081.891-.136 1.816-.343 2.69-.092.39-.21.772-.311 1.16-.074.285-.032.095-.032-.098 0-.674-.013-1.346.124-2.01.245-1.189.743-2.336 1.192-3.458.605-1.513 1.212-3.056 1.66-4.623.37-1.294.086-2.52.114-3.834.002-.08.058-.446.146-.484.067-.028.355 1.496.37 1.584.2 1.244.17 2.498.17 3.754 0 1.313.045 2.579.198 3.882.16 1.363.203 2.697.203 4.067 0 .38.005.726-.114 1.09-.096.292-.236.558-.315.855-.09.342-.305 1.343-.369.995-.037-.208 0-.45-.003-.66-.01-.614-.057-1.225-.057-1.842 0-1.68.023-3.299.343-4.956.343-1.775.755-3.541.967-5.338.128-1.091.12-2.181.12-3.278 0-.442-.049-.911.09-1.338.041-.13.462-1.027.63-1.027.256 0 .523.835.584.991.433 1.113.634 2.28.725 3.466.185 2.426.204 4.83.204 7.261v1.997c0 .352-.036.724.028 1.071.094.505-.084.876-.2 1.342-.061.243-.057-.236-.057-.312v-.015c0 .165-.071.192-.14.33-.104.207-.336.423-.372.658a1.874 1.874 0 0 0 0 .573c.069.31.39.565.454.887" stroke="#171717" stroke-width="2.5" stroke-linecap="round"/><path d="M86.789 40.044c0-.911.003-1.823-.004-2.734-.01-1.285-.05-2.57.023-3.854.088-1.566.343-3.104.642-4.641.29-1.492.543-3.005 1.084-4.432.285-.75.69-1.442.884-2.226.174-.706.25-1.433.404-2.142.16-.744.332-1.482.457-2.232.078-.462.115-.903.115-1.37 0-.212-.056-.51.003-.716.021-.073.2.406.213.451.275.928.33 1.967.379 2.925.12 2.398 0 4.792-.392 7.16-.563 3.41-1.168 6.819-1.76 10.225-.531 3.047-1.247 6.16-1.247 9.27 0 .195-.062.77 0 .585.29-.871.51-1.775.744-2.664.472-1.793.988-3.573 1.37-5.389.608-2.889.784-5.848 1.103-8.778.333-3.056.816-6.09 1.561-9.073.142-.568.228-1.15.34-1.723.127-.645.212-1.42.49-2.023.101-.219.154-.067.235.105.294.621.569 1.238.763 1.898.239.811.209 1.614.204 2.455-.015 2.646-.401 5.266-.773 7.881-.304 2.142-.78 4.258-.988 6.413-.094.968-.263 2.061-.058 3.026.176.826.732 1.565.732 2.426 0 .321.057.634.057.95M94.972 42.104V33.31c0-.112-.12-1.238.012-1.323.353-.224 1.242 1.76 1.304 1.902 1.104 2.517 1.602 5.455 1.602 8.202 0 .198.049.79.057.591.051-1.17-.028-2.347.007-3.519.029-.987.172-2.053.454-3.004.133-.45.343-.875.48-1.323.22-.72.547-1.374.547-2.14 0-.447.408.214.506.344.934 1.246 1.755 2.555 2.232 4.047.083.262.841 2.892.352 3.014M47.894 69.748c0-1.037-.117-2.14.013-3.168.061-.48.296-1.023.495-1.461.051-.113.039-.017.066.073.166.532.373 1.045.489 1.594.162.771.267 1.567.358 2.35.07.6.026 1.208.106 1.803.03.222.073.786.28.947.049.038.133-.737.136-.764.103-1.117.21-2.232.328-3.347.194-1.814.41-3.621.568-5.44.075-.86.21-1.736.21-2.602 0-.14.017-.116.072.013.234.544.442 1.106.641 1.663.535 1.495.482 3.126.482 4.693v4.396c0 .399-.11.975.003 1.368.028.097.086-.087.09-.096.225-.644.291-1.373.385-2.042.362-2.589.4-5.228.91-7.797.13-.656.357-1.295.435-1.96.011-.098.053-1.047.15-1.042.158.009.298.286.358.398.413.781.637 1.724.833 2.577.593 2.575.96 5.186 1.106 7.824.064 1.155.033 2.316.033 3.473v.67-.697c0-4.049.24-8.09.24-12.14 0-.792.059-1.578.059-2.37 0-.134-.105-.865.06-.618.487.73.72 1.669.926 2.51.524 2.128.887 4.292 1.226 6.455.09.58.218 1.155.235 1.744.015.485-.021.973.017 1.457.038.483.008 1.005.14 1.475.117.42.43.707.564 1.109M9.58 69.329c0-1.207-.058-2.319.373-3.467.102-.273.226-.512.226-.807 0-.376.103-.237.252.057.886 1.752 1.293 3.702 1.614 5.625.106.637.316-.511.348-.657a35.18 35.18 0 0 0 .82-5.984c.045-.941-.016-1.929.104-2.863.02-.152-.06-.94.222-.604.962 1.15 1.473 2.86 1.833 4.28.375 1.479.59 3.045.604 4.573.006.61-.12 2.436-.12 1.826 0-3.12.24-6.23.24-9.35 0-1.12-.06-2.232-.06-3.351 0-.142.085.271.123.408.265.963.394 1.988.521 2.975.268 2.076.492 4.189.492 6.283 0 1.085-.209 2.48.358 3.473.06.104.092-.14.093-.149.169-.938.166-1.918.266-2.866.202-1.917.616-3.775.923-5.671.123-.762.212-1.506.212-2.278 0-.423.04-.87-.026-1.288-.038-.242-.153-.463-.153-.711 0-.123-.115-.476-.06-.365.091.18.094.463.12.657.117.88.209 1.76.302 2.643.293 2.764.714 5.572.714 8.355 0 .648.359 1.247.359 1.886" stroke="#171717" stroke-width="2.5" stroke-linecap="round"/><path d="M32.693 92.028c0-.498.91-.956 1.25-1.216.482-.368.825-.86 1.124-1.385.084-.147.272-.362.429-.432.503-.224-.175.723-.268.89-.437.788-.859 1.592-1.18 2.436-.145.386-.54.808-.626 1.191-.1.448-.057.9-.23 1.344-.121.312.07.008.139-.106a13.03 13.03 0 0 1 1.436-1.923c.823-.918 1.808-1.694 2.74-2.498.413-.357.926-.567 1.319-.938.099-.094.243-.478.146-.381-.548.548-1.037 1.24-1.45 1.897-1.178 1.873-1.799 4.042-2.968 5.92-.292.471-.938 1.032-.938 1.598" stroke="#C6C6C8" stroke-width="2.5" stroke-linecap="round"/><path d="M59.81 57.715c-6.409 0-10.695 5.07-12.709 8.828-.628 1.173-.333 2.601.789 3.315 2.244 1.427 6.252 3.037 11.92 3.037 6.059 0 10.614-3.086 13.071-5.585a2.584 2.584 0 0 0 .06-3.589c-2.443-2.67-7.023-6.006-13.13-6.006ZM21.615 57.531c-6.41 0-10.695 5.071-12.709 8.829-.628 1.172-.333 2.6.789 3.314 2.243 1.428 6.251 3.037 11.92 3.037 6.059 0 10.613-3.085 13.071-5.585a2.584 2.584 0 0 0 .06-3.588c-2.444-2.67-7.023-6.007-13.13-6.007Z" stroke="#171717" stroke-width="1.5"/><path d="M35.652 67.222c4.074-10.049 15.318-30.69 27.702-32.862 6.09-.29 20.32 1.151 28.518 9.234.38 1.678.77 4.36 1.024 7.953.648 9.206.397 24.385-3.197 43.92-.66 3.583-1.48 12.392 1.011 19.353.547 1.528.1 3.306-1.27 4.175v0c-1.325.842-3.056.537-3.758-.867-1.682-3.369-3.71-9.595-4.011-18.607.165 12.482-.924 37.546-6.599 37.942-5.675.396-5.114-26.34-4.124-39.757-.605 14.352-2.805 42.726-6.764 41.407-3.96-1.32-5.5-23.096-5.774-33.818-.357 10.392-2.044 31.046-5.939 30.518-3.895-.528-2.943-20.566-1.98-30.518-.33 7.093-1.88 21.214-5.444 20.95-3.563-.264-3.024-17.046-2.31-25.405-.604 9.458-2.54 28.375-5.443 28.375-3.63 0-5.794-6.45-4.784-40.822m3.142-21.17L8.754 91.692m26.898-24.47 1.316 10.585.326 2.622m-4.784 7.963-23.756 3.3m23.756-3.3 5.584-.726-.8-7.237M8.754 91.692l28.54-11.261" stroke="#171717" stroke-width="1.5" stroke-linecap="round" stroke-linejoin="round"/><path d="M70.5 34.764c-3.5-1.5-5.695-5-4.499-9.499.822-3.09 1.364-3.748 2.831-6.581 1.624-3.136 5.14-8.063 9.118-8.338 1.022-.07 2.42 1.16 2.926 1.923.79 1.19 1.388 2.172 1.563 3.636.347 2.9.58 5.736-.326 8.542-.228.706.953-1.546 1.158-1.846 1.533-2.24 3.715-3.738 5.71-5.515 2.44-2.173 5.153-2.6 8.042-.808 1.98 1.227 3.035 4.256 2.503 6.435-.939 3.845-4.757 6.43-7.233 9.301-.525.61-.893 1.286-1.351 1.926-.13.182.238-.16.288-.197.708-.523 1.695-.742 2.518-1.016 1.376-.46 3.609-1.128 5.105-.817 1.104.23 2.092 1.453 2.837 2.205 1.48 1.494 1.756 3.773.937 5.676-.682 1.584-2.87 2.67-4.521 2.845-2.55.272-4.945-.329-7.48-.059" stroke="#171717" stroke-width="1.5" stroke-linecap="round"/><path d="M90.855 44.092c-.635 0-1.209-.887-1.614-1.292-.875-.875-1.773-1.646-2.72-2.434-1.013-.845-2.047-1.542-3.129-2.291-.632-.438-1.745-.714-2.505-.883-1.849-.41-3.681-.65-5.563-.838-1.647-.165-3.264-.285-4.921-.285-1.715 0-3.414-.263-5.144-.152-3.023.195-5.934 1.496-8.434 3.12-1.36.885-2.62 1.835-3.923 2.8-1.68 1.245-2.947 2.694-4.413 4.181-2.86 2.901-5.381 6.346-7.694 9.7-.987 1.431-1.933 2.894-2.897 4.341-.559.838-1.406 2.06-1.445 3.094-.033.89-.642 1.76-.642 2.683 0 .34-.309 2.052-.48 1.364" stroke="#171717" stroke-linecap="round"/><path d="M35.331 67.04c-.211 1.057-1.784 2.296-2.442 3.085-1.433 1.716-3.206 3.044-4.779 4.618-1.54 1.539-2.849 3.478-4.663 4.725-1.856 1.276-3.346 3.242-5.135 4.662-.997.792-2.039 1.525-3.031 2.318-.53.424-1.185.537-1.774.847-1.163.612-1.723 1.96-2.764 2.692-.382.27-.692.695-1.088.928-.72.423 1.139.194 1.338.187 4.651-.16 9.195-1.596 13.872-1.596 1.388 0 2.95-.014 4.288-.312.69-.154 1.465.082 2.167-.018.85-.121 1.318-.737 2.086-1.079 1.135-.504 3.145.005 3.851-1.23.618-1.082-.32-3.164-.481-4.333-.12-.874-.42-1.7-.49-2.585a113.329 113.329 0 0 0-.348-3.602c-.208-1.84-.19-3.72-.526-5.536-.184-.992-.241-2.296-.241-3.29" stroke="#171717" stroke-linecap="round"/><path d="M36.295 80.68c-1.271 0-2.297.245-3.46.802-1.114.535-2.346.812-3.52 1.204-2.23.743-4.4 1.568-6.5 2.647-3.604 1.853-7.128 4.31-11.073 5.296" stroke="#171717" stroke-linecap="round"/><path d="M21.766 54.005v3.527M16.477 58.539c0-.833-.242-1.632-1.008-2.016M27.31 58.036c0-.88.489-1.465.756-2.267M60.565 55.013v2.519M55.525 58.539c-.534-.601-1.333-1.674-2.015-2.016M66.357 58.79c0-1.102 1.343-1.424 1.764-2.267" stroke="#171717" stroke-width="1.5" stroke-linecap="round"/><path d="M32.5 90.264c0 2.666.57 6.88.57 9.57 0 2.552-.386 5.445.115 7.951.557 2.788.577 5.699.577 8.54 0 2.396.231 4.644.641 7.002.235 1.353.13 2.709.693 3.975.365.822.294 2.308 1.551 2.308 1.992 0 2.048-2.267 2.552-3.706.8-2.286 1.217-4.765 1.257-7.194.052-3.177.82-6.503 1.333-9.643.387-2.365.282-4.749.282-7.142 0-1.41.053-.324-.051.5-.37 2.916-.268 5.99-.167 8.925.149 4.315.275 8.093 1.654 12.079 1.788 5.165 5.283-4.28 5.835-5.937.797-2.391 1.27-4.936 1.27-7.45v-2.539c0-.252-.065-1.585-.116-1.513-.284.398-.115 1.282-.115 1.731v4.013c0 2.89-.231 5.762-.231 8.643 0 2.627-.231 5.256-.231 7.899 0 1.746.117 6.181 2.667 6.181 1.82 0 2.837-3.735 3.155-5.078.375-1.585.027-3.23.295-4.834.217-1.304.115-2.669.115-3.988 0-1.118.136-14.696.59-14.696.734 0 1.27 2.739 1.36 3.219.416 2.262.203 4.717.41 7.014.179 1.995.325 4.027.64 6.001.239 1.489 1.12 2.943 1.155 4.463.042 1.866.23 3.716.23 5.604 0 1.426.86 2.875 1.167 4.257.212.954 1.7 1.315 2.527 1.269 1.804-.1 1.975-4.625 2.308-5.77.945-3.25 1.615-7.104 1.615-10.489 0-2.821.462-5.63.462-8.438 0-4.098-.425-8.531.808-12.477.18-.577.346-1.317.346-1.923v3.321c0 6.793-1.224 13.517.462 20.26.512 2.05.306 4.458.013 6.515-.128.896-.342 3.24.102 4.039.444.799.633 1.6 1.09 2.423.54.971 1.56 2.309 2.667 2.309.433 0 1.569.208 1.898-.103.551-.521.796-1.268 1.27-1.847 1.181-1.444 2.423-4.046 2.423-5.898 0-6.018 1.84-12.152.744-18.183-.333-1.83-.051-3.953-.051-5.809v-3.014c0 1.651.51 3.359.897 4.95 1.038 4.267 1.808 9.512 6.143 11.438 1.537.684 3.222-.267 3.526-1.898.567-3.045-1.139-5.722-2.026-8.488-1.601-4.992.307-10.211.307-15.362 0-1.175.24-2.647-.115-3.783-.17-.545-.346-1.057-.346-1.629 0-1.45 1.267-3.208 1.718-4.603.47-1.456 1.044-2.938 1.462-4.399 1.22-4.27.205-9.178.205-13.605 0-2.651-.164-5.277.41-7.86C96 51.763 90.5 45.547 90.5 43.763M74 35.764s-5.745-1-8.5-6.5c-1-3-.31-6.191.64-8.218.58-1.237 1.47-2.357 2.115-3.57.543-1.021 1.22-2.202 1.94-3.11.758-.955 1.698-1.705 2.554-2.562.631-.63 1.17-1.269 2.016-1.6 1.541-.603 3.01-.9 4.67-.9.8 0 1.212-.046 1.801.523.532.512.89.954 1.324 1.554.454.628.585 1.74.585 2.493 0 1.171.121 2.397-.208 3.532-.54 1.86-1.136 3.904-2.07 5.602-.296.538-.366 1.114-.6 1.67-.258.612-.03.326.246.107.888-.705 1.434-1.876 2.162-2.74a23.858 23.858 0 0 1 3.232-3.177c1.64-1.312 3.313-1.773 5.24-2.5 1.306-.494 3.654-.51 5.017-.17 4.215 1.054 2.599 6.244.823 8.818-.72 1.044-1.714 1.864-2.454 2.878-.82 1.122-1.532 2.301-2.524 3.293-.73.73-1.587 1.31-2.324 2.047-.332.332-.557.714-1 .861" stroke="#171717" stroke-linecap="round"/><path d="M89.5 33.264c1.354-1.219 2.572-1.647 4.334-2.1 1.378-.354 3.023-.56 4.432-.246 3.088.686 5.206 4.48 4.124 7.51-.315.883-1.1 1.83-1.739 2.493-.627.651-1.187.75-2.077.908-1.063.189-2.168-.05-3.217-.108-1.085-.06-4.763.543-5.857.543" stroke="#171717" stroke-linecap="round"/></svg>