<svg width="120" height="140" fill="none" xmlns="http://www.w3.org/2000/svg"><mask id="a" maskUnits="userSpaceOnUse" x="1.951" y=".856" width="119" height="137" fill="#000"><path fill="#fff" d="M1.951.856h119v137h-119z"/><path fill-rule="evenodd" clip-rule="evenodd" d="M31.812 38.362a19.162 19.162 0 0 1-3.181-5.14c-4.005-9.55.3-20.46 9.616-24.366L49.8 36.41c4.82.906 10.207 2.513 15.72 4.8 4.2 1.74 8.068 3.708 11.46 5.771l7.964-10.331a3.957 3.957 0 0 1 4.525-1.29l20.665 7.76a2.852 2.852 0 0 1-1.979 5.35l-16.891-6.153a3.958 3.958 0 0 0-4.513 1.334L81.8 50.206c6.934 5.14 10.664 10.447 9.158 14.079-.149.36-.346.694-.588 1.004l.02.008-37.793 58.467c-2.448 5.904-13.649 6.868-25.017 2.154-11.369-4.714-18.6-13.322-16.152-19.226l19.499-66.077c.05-.382.146-.75.292-1.102l.594-1.152Z"/></mask><path fill-rule="evenodd" clip-rule="evenodd" d="M31.812 38.362a19.162 19.162 0 0 1-3.181-5.14c-4.005-9.55.3-20.46 9.616-24.366L49.8 36.41c4.82.906 10.207 2.513 15.72 4.8 4.2 1.74 8.068 3.708 11.46 5.771l7.964-10.331a3.957 3.957 0 0 1 4.525-1.29l20.665 7.76a2.852 2.852 0 0 1-1.979 5.35l-16.891-6.153a3.958 3.958 0 0 0-4.513 1.334L81.8 50.206c6.934 5.14 10.664 10.447 9.158 14.079-.149.36-.346.694-.588 1.004l.02.008-37.793 58.467c-2.448 5.904-13.649 6.868-25.017 2.154-11.369-4.714-18.6-13.322-16.152-19.226l19.499-66.077c.05-.382.146-.75.292-1.102l.594-1.152Z" fill="#fff"/><path d="m28.63 33.222 7.378-3.093-7.378 3.093Zm3.182 5.14 7.11 3.668a8 8 0 0 0-1.06-8.903l-6.05 5.235Zm6.435-29.506 7.378-3.093A8 8 0 0 0 35.154 1.48l3.093 7.377ZM49.8 36.41l-7.378 3.093a8 8 0 0 0 5.9 4.77L49.8 36.41Zm15.72 4.8-3.064 7.39 3.065-7.39Zm11.46 5.771-4.155 6.836a8 8 0 0 0 10.492-1.952l-6.336-4.884Zm7.964-10.331-6.336-4.884 6.336 4.884Zm4.525-1.29-2.812 7.49 2.813-7.49Zm20.665 7.76 2.812-7.49-2.812 7.49Zm1.344 4.29-6.583-4.546 6.583 4.546Zm-3.323 1.06 2.738-7.518-2.738 7.517Zm-16.891-6.153-2.738 7.517 2.738-7.517Zm-4.513 1.334 6.384 4.82-6.384-4.82ZM81.8 50.206l-6.384-4.821a8 8 0 0 0 1.62 11.248l4.764-6.427Zm9.158 14.079-7.39-3.064 7.39 3.064Zm-.588 1.004-6.307-4.922a8 8 0 0 0 3.223 12.303l3.084-7.381Zm.02.008 6.719 4.343a8 8 0 0 0-3.634-11.724l-3.085 7.381Zm-37.793 58.467-6.718-4.343a8.014 8.014 0 0 0-.672 1.278l7.39 3.065Zm-25.017 2.154-3.065 7.39 3.065-7.39Zm-16.152-19.226 7.39 3.064c.109-.261.203-.528.283-.8l-7.673-2.264Zm19.499-66.077 7.673 2.264c.12-.405.207-.819.26-1.238l-7.933-1.026Zm.292-1.102-7.11-3.668a7.95 7.95 0 0 0-.28.603l7.39 3.065Zm-9.965-3.198a27.16 27.16 0 0 0 4.51 7.281l12.098-10.47a11.162 11.162 0 0 1-1.853-2.998l-14.755 6.187Zm13.9-34.837c-13.562 5.686-19.54 21.386-13.9 34.837l14.755-6.187c-2.37-5.651.264-11.77 5.332-13.895L35.154 1.48Zm22.024 31.837L45.625 5.763 30.869 11.95l11.553 27.553 14.755-6.187Zm-8.855 10.956c4.222.794 9.078 2.23 14.134 4.327l6.129-14.78c-5.972-2.476-11.89-4.253-17.308-5.272l-2.955 15.725ZM62.456 48.6c3.843 1.594 7.344 3.379 10.369 5.218l8.312-13.672c-3.762-2.287-7.997-4.437-12.552-6.325L62.456 48.6Zm20.861 3.266 7.963-10.332-12.672-9.767-7.964 10.331 12.673 9.768Zm7.963-10.332a4.042 4.042 0 0 1-4.623 1.317l5.625-14.979a11.957 11.957 0 0 0-13.674 3.895l12.672 9.767Zm-4.623 1.317 20.664 7.759 5.625-14.979-20.664-7.759-5.625 14.979Zm20.664 7.759c-3.135-1.178-4.329-4.989-2.426-7.745l13.165 9.093c4.013-5.81 1.496-13.845-5.114-16.327l-5.625 14.979Zm-2.426-7.745a5.149 5.149 0 0 1 5.998-1.912l-5.476 15.034a10.851 10.851 0 0 0 12.643-4.03l-13.165-9.092Zm5.998-1.912L94.001 34.8l-5.475 15.034 16.891 6.152 5.476-15.034ZM94.001 34.8a11.957 11.957 0 0 0-13.634 4.03l12.768 9.642a4.043 4.043 0 0 1-4.61 1.362L94.002 34.8Zm-13.634 4.03-4.952 6.556 12.768 9.643 4.952-6.557-12.768-9.643Zm-3.331 17.804c3.057 2.267 4.935 4.238 5.845 5.607 1.072 1.613-.094.862.686-1.02l14.78 6.13c2.286-5.514.008-10.734-2.142-13.968-2.311-3.478-5.766-6.73-9.642-9.603l-9.527 12.854Zm6.531 4.588c.136-.328.31-.616.495-.854l12.614 9.843a12.311 12.311 0 0 0 1.67-2.86l-14.779-6.13Zm3.718 11.45.02.008 6.169-14.763-.02-.009-6.169 14.763Zm-3.614-11.717-37.794 58.467 13.438 8.686 37.793-58.467-13.437-8.686ZM45.206 120.7c.501-1.208.991-.144-2.46.153-3.006.259-7.357-.356-12.103-2.324l-6.129 14.78c6.623 2.746 13.556 4.006 19.605 3.485 5.603-.482 12.918-2.853 15.867-9.965l-14.78-6.129Zm-14.563-2.171c-4.746-1.968-8.255-4.612-10.196-6.923-2.228-2.652-1.129-3.057-1.63-1.849l-14.78-6.129c-2.949 7.113.542 13.964 4.16 18.27 3.904 4.648 9.695 8.665 16.317 11.411l6.13-14.78ZM19.1 108.957 38.6 42.88l-15.346-4.528-19.498 66.077 15.345 4.528Zm19.76-67.315a3.693 3.693 0 0 1-.252.936l-14.78-6.129a12.308 12.308 0 0 0-.836 3.141l15.868 2.052Zm-.532 1.539.594-1.151-14.22-7.335-.594 1.151 14.22 7.335Z" fill="#fff" mask="url(#a)"/><path d="M50.809 41.73c-1.982 0-3.982 1.27-5.673 2.21-.221.122-1.538.834-.916.212 1.319-1.319 2.781-2.532 4.266-3.656 1.165-.881 2.459-1.592 3.61-2.468.52-.396 1.01-.614 0-.451-1.084.175-2.238.884-3.185 1.406-1.084.598-2.064 1.387-3.185 1.911-.926.434-1.843.89-2.773 1.314-.574.262-1.334.544-1.818.955-.154.13-1.232.659-1.354.578-.181-.121.318-.301.498-.425 1.175-.81 2.346-1.627 3.523-2.435 2.707-1.86 5.356-3.756 7.949-5.766.484-.375.972-.77 1.512-1.055.386-.203-.975.035-1.048.053-1.506.377-2.938 1.251-4.386 1.818-1.485.582-3.002 1.07-4.452 1.739-1.671.77-3.339 1.55-5.036 2.262-.99.416-2.165.629-3.105 1.135-.244.132-.33.066.047.066.494 0 .829-.135 1.22-.451 1.732-1.395 3.224-3.063 5.017-4.392a22.879 22.879 0 0 1 5.533-3.013c.41-.155.792-.328 1.188-.504.399-.177-1.19.11-1.294.14-3.655 1.015-6.945 2.708-10.377 4.252-1.11.5-2.343.668-3.437 1.128-.314.133-.637.261-.956.385-.208.081-.85.32-.258.053 3.997-1.805 7.68-4.235 11.644-6.13 1.463-.7 2.835-1.747 4.353-2.31.472-.174-.101-.13-.299-.072-1.241.36-2.457.916-3.616 1.48-3.247 1.578-6.743 2.581-10.019 4.106-.733.342-1.5.62-2.282.816-.944.236.056-.47.398-.756 2.611-2.184 5.357-4.202 8.148-6.15 1.436-1.004 2.864-1.84 4.458-2.548.505-.225 1.02-.344 1.54-.511.115-.037.435-.067.504-.153.143-.18.067-.097-.292-.033-1.244.222-2.497.792-3.65 1.287-3.004 1.291-5.608 3.342-8.598 4.658-1.145.504-2.336.833-3.464 1.34-.435.196-1.049.172-1.526.305-.267.075 1.142-1.117 1.3-1.24 1.424-1.105 2.748-2.338 4.22-3.378 1.547-1.091 3.31-1.552 4.964-2.401 1.495-.769 2.495-2.164 3.841-3.106.29-.203.63-.248.936-.384.23-.103.439-.093.04-.093-2.858 0-5.806 2.46-8.069 3.94-1.65 1.08-3.395 1.97-4.989 3.133-.622.454-1.385.826-2.15.935-.034.005-.58.227-.45-.007.098-.178.379-.32.53-.438a52.426 52.426 0 0 1 2.568-1.844c2.91-1.977 6.089-3.713 8.22-6.555.567-.756 1.337-1.373 1.911-2.09.675-.843-1.893 1.065-2.72 1.758-1.805 1.511-3.441 3.074-5.401 4.392-1.143.769-2.414 1.281-3.63 1.911-.598.31-1.274.596-1.804 1.009-.346.268-.312-.237-.219-.438.72-1.566 2.687-2.94 3.981-3.981 1.57-1.263 3.174-2.536 4.83-3.683.975-.675 1.964-1.265 2.813-2.103 1.078-1.063 1.943-2.46 3.225-3.284.16-.104.735-.18.544-.18-.706 0-1.189.239-1.791.624-3.302 2.113-5.975 5.19-9.376 7.133-1.09.623-2.19 1.294-3.35 1.745-.917.357-1.887.722-2.72 1.247-.317.2-.43.11-.306-.272.523-1.617 2.078-3.1 3.212-4.306 1.854-1.972 4.356-2.963 6.25-4.857.972-.973 1.543-2.251 2.64-3.105.394-.306.872-.46 1.221-.81.247-.246.439-.449.743-.623.207-.118.092-.126-.08-.12-.605.023-1.178.632-1.618.983-1.544 1.23-2.608 2.992-4.233 4.127-1.167.814-2.73.96-3.908 1.758-.578.39-1.132.634-1.772.895-.217.09-.81.6-.358.067.982-1.156 2.25-2.041 3.258-3.185 1.42-1.61 2.673-3.317 4.286-4.75 1.044-.928 2.333-1.526 3.35-2.462.11-.101.776-.543.73-.75-.047-.212-1.58.589-1.645.624-2.316 1.25-4.557 2.633-7.066 3.47-.555.185-2.21.657-1.626.657M110.436 44.424c-.164 1.308-1.659 2.437-1.805 3.748-.054.491-.156.25-.131-.154.052-.839.253-1.796.478-2.607.219-.786.208-1.835.208-2.652M102.246 41.37c0 1.193-.277 2.376-.277 3.54 0 .717-.245.869.555.07 1.234-1.234 1.299-2.508 1.804-4.026M94 42.695c0-1.923.99-3.73 1.852-5.478.549-1.112-.584 2.354-.892 3.529-.352 1.346-.188 2.88-.188 4.254M89.059 42.065c0-.954.228-2.181-.208-3.054-.25-.5-.624-1.8-1.118-2.082-.252-.144-.279-.39-.409-.625-.157-.282.293 1.064.347 1.211.501 1.374 1.068 2.756 1.527 4.133M85.035 45.119c-1.425 0-5.309-2.078-3.994-1.527 1.014.424 1.801 1.054 2.737 1.58.25.141.436.246.563.502M80.871 50.67c-1.112 0-2.127-.061-3.192-.416-.678-.227-1.123-.746-1.743-.972-.172-.063-.574-.405-.278-.139.55.495 1.368.784 2.02 1.11.954.477 1.9.943 2.777 1.527M76.29 56.777c-2.04 0-3.776-.648-5.551-1.634-.34-.19.253-.121.362-.085.672.224 1.263.625 1.859.995.609.377 1.215.748 1.804 1.14M70.6 62.329c-1.225-1.089-3.271-1.335-4.773-1.936-1.386-.554 2.835 1.03 4.071 1.867.483.326 1.04.68 1.396 1.148.103.137.297.388.416.448M66.158 69.269c-1.052 0-1.967-.172-2.976-.486-.164-.05-2.224-.752-2.136-.972.242-.607 4.076 1.425 4.526 1.843.363.338.653.653 1.002 1.003M61.715 75.237c-1.04-.054-2.302-.608-3.254-1.04-.385-.176-1.126-.132-1.434-.379-.86-.688 2.114.669 3.077 1.203.365.203 2.063 1.119 2.028 1.05M57.552 80.512c-1.355 0-2.618-.254-3.871-.763-.163-.066-1.384-.856-1.342-.872.742-.288 2.42 1.222 2.838 1.697.268.305.693 1.048 1.125 1.048M53.527 87.036c-.997 0-1.956-.491-2.807-.972-.704-.397-2.67-1.79-2.098-1.218.863.862 2.007 1.48 2.9 2.329.207.197.276.593.478.694M48.114 93.281c-1.753 0-3.11-.574-4.72-1.11" stroke="#FFD424" stroke-width="2.5" stroke-linecap="round"/><path d="M58.172 80.956v9.194c0 .416.008-.192.017-.275.132-1.191.593-2.388 1.066-3.48.534-1.237 1.308-2.433 1.821-3.652.053-.126.245-1.409.344-1.409.428 0 .464 3.813.464 4.047v9.83c0-2.747.265-5.38.524-8.111.107-1.126.172-2.266.24-3.394.007-.111-.035-1.007.164-.482.356.944.372 2.07.464 3.06.17 1.836.256 3.687.498 5.516.163 1.224.426 2.43.55 3.66.055.539.072 1.02.344 1.495.145.254.224-.296.232-.343.216-1.255.064-2.601.086-3.867.067-4 .127-8.01.49-11.995.03-.337.01-1.846.283-.842.962 3.525 1.163 7.185 1.504 10.81.18 1.925.343 3.888.343 5.825 0 1.553.124-.419.164-.963.245-3.355.8-6.68 1.074-10.027.062-.759.053-1.648.189-2.397.04-.222.088-1.336.344-.705 1.188 2.94 1.628 6.48 2.01 9.607.04.326.563 2.978 1.134 2.914.197-.021-.12-4.953-.12-5.226V84.29c0-.628.033-.44.31.069.293.54 1.807 3.74 2.25 3.17.454-.582.25-1.775.216-2.474-.025-.502-.771-2.589-.422-2.982.105-.117.263.433.276.464.239.62.494 1.215.764 1.822.377.847.577 1.858 1.091 2.629M85.623 54.058a33.343 33.343 0 0 0-3.604 4.718c-.794 1.268-1.893 2.133-2.863 3.238-.764.869-1.667 1.777-2.307 2.737-.314.472-.654 1.424-1.175 1.685" stroke="#C6C6C8" stroke-width="2.5" stroke-linecap="round"/><path d="M86.563 56.016c-.07.663-.741 1.502-1.115 2.02-.462.64-.92 1.327-1.47 1.897-.598.618-1.093 1.307-1.724 1.897-.608.567-1.224 1.112-1.802 1.706a18.69 18.69 0 0 0-2.272 2.882c-.218.338-.5.673-.784.957" stroke="#C6C6C8" stroke-width="1.5" stroke-linecap="round"/><path d="M73.636 70.588c-.225.05-.538.612-.687.783a6.789 6.789 0 0 1-.836.823c-.265.217-.364.367-.513.666M69.797 76.307c-.17.019-.276.22-.409.313-.313.22-.605.468-.905.705-.354.28-.56.62-.88.94" stroke="#C6C6C8" stroke-width="2.5" stroke-linecap="round"/><path d="M70.503 77.09c-.197.043-.478.552-.592.705a5.57 5.57 0 0 0-.505.783M75.125 71.371c-.46.484-.764 1.539-1.41 1.724" stroke="#C6C6C8" stroke-width="1.5" stroke-linecap="round"/><path d="M38.494 21.803c.197 0 .825-.124.825.137M38.29 26.34c.167 0 .47.023.55-.137M40.076 30.33a.988.988 0 0 0 .344-.07M43.584 33.698h.413M106.868 41.665c0 .406.008.814-.014 1.22-.043.77-.28 1.478-.43 2.228a5.828 5.828 0 0 0-.127 1.022c-.017.59-.508 1.02-.508 1.558M99.254 39.571c0 1.302.012 2.54-.317 3.807-.098.374-.296.862-.318 1.241-.006.112-.023.376-.077.472-.08.141-.112-.15-.113-.162a20.91 20.91 0 0 1-.063-1.819c-.006-1.497 0-2.994 0-4.49M91.083 37.663c0 1.587-.083 3.175-.083 4.758 0 .172-.004.357.102.519.062.095.065.074.065-.038 0-.59.035-1.178.102-1.766.167-1.476.478-2.945.63-4.422.013-.135-.099-.645.101-.714M83.96 38.556c.523.087 3.88 3.699 3.604 3.92-.17.136-.863-.416-.973-.494-.574-.405-1.16-.791-1.728-1.205-.28-.205-.865-.498-1.029-.825M78.631 45.726c.71.645 1.475 1.221 2.158 1.904.287.287.524.671.895.857.236.117.522.21.776.282.422.12-.888.051-1.319-.04-1.256-.263-2.358-1.563-3.123-2.513-.305-.378-.501-.843-.846-1.188M73.429 51.88c.519.048 1.137.44 1.558.713.667.434 1.306.944 1.928 1.442.14.111.353.17.476.292.081.082.105.178.23.219.104.035.355.125.426.204.073.083-.218.051-.328.043a7.79 7.79 0 0 1-1.435-.275c-1.115-.305-2.34-.788-3.173-1.622M69.177 57.528c.55.029 1.077.257 1.569.49.792.376 1.623.852 2.256 1.467.057.055.422.332.398.44-.008.04-.691-.286-.733-.303-1.581-.632-3.375-.83-4.886-1.586M64.102 64.255c1.973 0 3.615 1.046 5.33 1.904M60.04 70.219c.61.321 1.18.835 1.713 1.269.409.332.971.617 1.27 1.064.138.208.127.235-.156.127-.983-.373-1.85-1.038-2.792-1.501-.497-.245-1.042-.404-1.526-.674-.015-.008-.154-.1-.05-.084.435.067.937.336 1.333.51 1.318.584 2.676 1.186 3.938 1.887.14.078.512.24.585.384M54.963 76.501c1.313 0 2.59.302 3.715 1.001.186.116.343.278.536.38.032.018-.534-.001-.627-.013-1.463-.184-3.07-.456-4.386-1.114M50.713 81.577c.684 0 1.271.545 1.762.966.323.276.652.56.952.86.074.074.118.161.205.205M45.381 87.86c.536.026 1.069.364 1.527.61.818.438 1.52 1.039 2.267 1.582.348.254.718.467 1.085.691.13.08.296.176.014.099-.812-.223-1.596-.739-2.288-1.206a11.94 11.94 0 0 0-2.4-1.269c-.36-.139-.73-.267-1.086-.413-.115-.046-.27-.114-.324-.222" stroke="#171717" stroke-width="2.5" stroke-linecap="round"/><path d="M26.164 91.808c0 1.284.175 2.627.175 3.858M24.41 93.561h3.333" stroke="#171717" stroke-width="1.5" stroke-linecap="round"/><path d="M25.111 94.614c.845-.085 2.28-.974 2.28-1.93M34.582 103.683c-1.26 0-.462 2.852.702 1.754.92-.869-1.334-2.039-1.043 0 .069.479.679.35 1.033.35.512 0 .666-.523.702-.974.109-1.36-.725-2.007-2.008-2.007-.653 0-.438 1.592-.438 2.017 0 .5 1.364.263 1.754.263M53.525 98.771c-.521 0-.718-.078-.702.526.032 1.157 1.25 1.9 2.241 2.241.877.303.579-1.439.526-1.85-.01-.088-.554-2.28-.838-1.501-.133.368-.305 1.14-.253 1.11.295-.168 1.343-.175 1.004-.175-.604 0-1.698-.318-2.231-.166-.284.081.625 1.338.779 1.569M28.443 81.408c.337.037 1.583 1.456.965.097-.546-1.2-.861-.25-1.14.604-.117.357-.4 3.008.604 1.822.465-.55 1.209-2.523.097-2.523M45.281 105.962v1.929M43.527 107.015h3.508M43.352 109.119c0-1.454 1.732-2.094 2.806-2.631M17.658 111.58c0 .356.064.704.165 1.045.084.283.236.559.306.84" stroke="#171717" stroke-width="1.5" stroke-linecap="round"/><path d="M16.463 113.284c.338-.024.668-.204.979-.326.375-.148.745-.28 1.152-.29.238-.006.37-.081.552-.218" stroke="#171717" stroke-width="1.5" stroke-linecap="round"/><path d="M17.225 114.009c.02-.246.213-.481.348-.674.287-.414.59-.809.898-1.207.258-.332.429-.758.53-1.164M31.617 114.118c.026.279.195.578.282.842.112.341.2.686.226 1.043" stroke="#171717" stroke-width="1.5" stroke-linecap="round"/><path d="M30.275 115.496c.563 0 1.094-.167 1.64-.282a7.62 7.62 0 0 1 1.587-.153" stroke="#171717" stroke-width="1.5" stroke-linecap="round"/><path d="M31.037 116.149c.676-.676.978-1.637 1.595-2.357" stroke="#171717" stroke-width="1.5" stroke-linecap="round"/><path d="M31.22 39.514c-2.449 5.904 8.94 16.235 25.436 23.076 16.496 6.84 31.854 7.6 34.302 1.696 2.448-5.904-8.94-16.236-25.436-23.077-5.564-2.307-10.998-3.922-15.851-4.823" stroke="#171717" stroke-width="1.5"/><path d="m90.39 65.298-37.793 58.467c-2.448 5.904-13.649 6.868-25.017 2.154-11.369-4.714-18.6-13.322-16.151-19.226l19.54-66.218" stroke="#171717" stroke-width="1.5"/><path d="M84.945 36.65 42.223 92.078c3.256 1.826 5.327 2.526 5.956 2.647l38.573-51.074a3.958 3.958 0 0 1 4.513-1.334l16.891 6.152a2.852 2.852 0 0 0 1.979-5.35l-20.664-7.758a3.957 3.957 0 0 0-4.526 1.289Z" stroke="#171717" stroke-width="1.5"/><path d="M58.36 81.401c3.559-1.07 15.7-1.39 18.324 4.53M19.309 78.888c3.279-4.05 13.135-10.532 26.329-4.05 16.492 8.1 4.63 15.624 22.568 23.436" stroke="#171717" stroke-width="1.5"/><circle cx="2.114" cy="2.114" transform="rotate(-50.586 145.224 15.333)" fill="#171717" r="2.114"/><path d="M28.632 33.222c4.004 9.551 14.802 14.128 24.118 10.222L38.248 8.856c-9.315 3.906-13.621 14.815-9.616 24.366Z" stroke="#171717" stroke-width="1.5" stroke-linejoin="round"/><path d="M38.285 9.455c-5.496 7.61-10.4 25.028 13.952 33.822" stroke="#171717" stroke-width="1.5"/><path d="M12.399 111.537c0-2.353-.308-4.908.325-7.187.37-1.333 1.183-2.699 1.686-3.993.697-1.79 1.089-3.734 1.982-5.457 3.684-7.106 3.14-15.263 6.122-22.553 2.386-5.832 3.74-11.91 5.073-17.909.354-1.592 1.358-2.18 1.79-3.86.225-.879.142-1.973.458-2.795.351-.914.665-1.952.665-2.928 0-1.56 2.152 1.087 2.662 1.524 2.36 2.017 4.831 3.89 7.306 5.767 1.395 1.059 2.703 2.298 4.259 3.076 1.36.68 2.293 1.83 3.608 2.544 4.488 2.436 8.968 3.79 13.842 5.324 2.572.81 4.929 1.798 7.453 2.78 1.697.66 3.513.247 5.265.473 2.093.27 4.338.473 6.448.473 1.428 0 2.823.266 4.26.266 1.354 0 1.542-.666 2.129-1.656 2.123-3.583 1.663-9.191-1.331-12.186M77.885 47.386c-2.357 0-4.76.31-6.92-.799-1.179-.605-2.23-1.396-3.432-1.997-.87-.435-1.814-.626-2.691-1.064-2.117-1.059-3.992-2.396-6.123-3.46-2.71-1.356-5.16-2.757-8.174-3.129M31.42 39.386c-.861 1.253-1.844 2.204-1.168 3.894" stroke="#171717" stroke-linecap="round"/><path d="M88.78 66.522c-.073 1.365-1.856 1.825-2.4 3.062-1.146 2.603-2.6 4.81-3.869 7.347-2.608 5.217-3.855 6.97-5.634 10.53-1.2 2.4-3.01 4.217-4.718 6.24-1.188 1.409-2.395 2.802-3.594 4.2-1.306 1.525-2.165 3.236-3.342 4.837-2.07 2.815-4.062 5.612-5.974 8.533-1.56 2.381-2.92 4.737-4.733 6.921-2.57 3.097-4.388 6.991-7.246 9.849-2.903 2.903-7.323 2.662-11.18 2.662-5.674 0-9.202-3.893-13.635-6.714-2.802-1.783-5.62-4.238-7.66-6.862-.746-.958-1.935-2.093-2.337-3.254-.313-.904-1.124-1.504-1.124-2.602" stroke="#171717" stroke-linecap="round"/><path d="M21.463 76.808c.186-.836 3.033-1.412 3.721-1.7 1.378-.577 2.67-.945 4.1-1.309 2.138-.543 4.505-.392 6.7-.392 2.28 0 4.533.053 6.542 1.308 1.464.915 3.042 1.66 4.527 2.551 1.388.833 2.974 1.387 4.238 2.42.785.643 1.719 1.194 2.253 2.065.692 1.128 1.253 2.265 1.882 3.43.855 1.584 1.547 3.155 2.246 4.812.497 1.178.949 2.44 1.628 3.532.495.795 1.37 1.497 2.064 2.115.664.59 1.275 1.356 1.963 1.897.627.493 1.218.488 1.962.727.516.165 1.025.392 1.57.392M58.357 81.78h8.468c2.115 0 3.993.464 6.054.814 1.42.241 3.794 1.367 3.794 3.111M37.938 9.555c-1.401 3.425-3.28 6.316-4.085 9.984-.497 2.264-.317 4.841.543 7.001.774 1.947 1.229 3.766 2.495 5.479.992 1.341 2.552 2.58 3.769 3.735.763.724 1.686 1.333 2.487 2.021.566.487 1.086 1.145 1.755 1.5 1.327.705 2.619 1.923 3.969 2.476l2.738 1.12" stroke="#171717" stroke-linecap="round"/><path d="M41.605 92.04c0-.999.946-2.088 1.505-2.871.882-1.234 1.814-2.501 2.871-3.589 1.418-1.458 2.542-3.126 3.96-4.584 3.597-3.7 6.196-8.158 9.214-12.294 1.694-2.321 3.32-4.873 5.326-6.923 1.946-1.99 2.91-4.694 4.885-6.668 1.641-1.642 2.786-3.924 4.538-5.418a14.458 14.458 0 0 0 1.922-2.038c.698-.905 1.694-1.616 2.35-2.523 1.316-1.823 3.095-3.233 4.376-5.082.752-1.088 1.124-2.686 2.292-3.334.929-.517 2.847-.518 3.855-.197 2.241.713 4.51 1.326 6.749 2.072 2.341.78 4.772 1.305 7.108 2.084 2.276.758 4.515 1.695 6.784 2.489.898.314 3.439.8 3.727 2.095.251 1.13-.054 1.467-.868 1.98-3.471 2.185-6.239.897-9.701-.463-3.44-1.352-6.875-2.95-10.627-3.08-1.098-.038-3.14-.699-4.214-.162-1.489.744-3.147 3.093-4.168 4.376-2.94 3.697-5.445 7.855-8.022 11.82-1.45 2.23-3.757 3.873-5.522 5.834-1.588 1.765-3.122 3.665-4.585 5.534-1.594 2.038-3.217 4.093-4.908 6.055-2.516 2.918-4.215 6.37-6.344 9.562-.926 1.39-2.207 2.603-3.01 4.063-.409.744-.93 1.528-1.47 2.188-.513.627-.949 1.783-1.875 1.783-1.028 0-2.457-.627-3.45-.938-.663-.207-2.697-.433-2.697-1.354M37.372 9.51c-.946 0-2.093-.191-2.889.441-.731.582-1.761 1.177-2.202 2.027-.49.944-.852 1.95-1.322 2.908-.491 1-1.257 1.836-1.777 2.824-1.715 3.26-1.875 7.14-1.483 10.745.124 1.144.576 2.275.97 3.348.244.67.61 1.504.69 2.213.08.719.536 1.54.832 2.198.513 1.14 1.097 2.156 1.899 3.123 1.334 1.608 2.846 3.183 4.484 4.484.868.689 1.992 1.081 3.089 1.18 1.583.142 3.056-.15 4.562-.598 1.08-.32 2.216-.456 3.323-.66.753-.14 1.553-.15 2.291-.314.56-.124 2.292-.083 1.719-.083" stroke="#171717" stroke-linecap="round"/><path d="M51.468 43.257c0-1.347.176-2.82-.088-4.141-.324-1.617-1.204-3.167-1.85-4.675-.404-.942-.973-1.75-1.479-2.639-.553-.973-.96-2.09-1.253-3.167-.575-2.11-1.197-4.163-2.115-6.153-1.356-2.943-2.993-5.746-4.229-8.748-.362-.88-.584-2.076-1.278-2.77-.216-.217-.421-.63-.66-.75M43.992 118.78c-.056.451-.872-.546-.94-.628-.287-.339-.299-1.024 0-1.359.39-.441.548-.723 1.15-.86.457-.105 1.456-.282 1.754.232.5.862 1.177 2.532.151 3.242-.79.547-1.396.837-2.405.837-.6 0-1.07-.15-1.07-.837" stroke="#171717" stroke-linecap="round"/></svg>