<svg width="100" height="114" fill="none" xmlns="http://www.w3.org/2000/svg"><path d="M48.79 113.85c-13.39 0-27.1-1.2-40.73-3.56a8.736 8.736 0 0 1-7.26-8.62v-8.74c0-2.19.81-4.25 2.24-5.84.65-.81 1.39-1.48 2.19-2.04l3.21-42.17c-.49-.56-.92-1.18-1.25-1.85a8.738 8.738 0 0 1-3.39-2.86 8.666 8.666 0 0 1-1.47-6.53c.14-.82.39-1.6.75-2.33a8.674 8.674 0 0 1-.61-5.09c.58-3.25 2.89-5.8 5.88-6.78.78-2.21 2.45-4.1 4.76-5.11 1.12-.48 2.28-.72 3.48-.72 1.35 0 2.64.31 3.81.87A41.323 41.323 0 0 1 46 .2c1.35-.13 2.73-.2 4.08-.2 9.9 0 19.49 3.6 27.02 10.15 8.65 7.52 13.68 17.96 14.16 29.41l1.94 45.71c1.17.88 2.25 2.05 2.99 3.58.14.26.29.57.42.91l2.69 6.96c.861 2.2.771 4.71-.24 6.87-1 2.14-2.86 3.8-5.09 4.57-8.16 2.76-24.3 5.7-45.19 5.7l.01-.01Z" fill="#fff"/><path d="M9.143 93.221c.243.271.482.764.883.837.273.05.146-1.1.146-1.304v-.515c0-.172.138.376.192.473.245.445.57.847.79 1.304.098.204.268.59.462.728.057.04.052-.439.052-.494v-.675c0-.711.314.54.416.764.093.204.613 1.432.613.545 0-1.006-.346-1.98-.374-2.972-.006-.204-.02-.326.005-.037.04.455.263.912.416 1.336.124.344.288.676.42 1.019.037.094.18.538.188.187.016-.692 0-1.387 0-2.079 0-.59-.506.08-.748.322-.188.188-.368.404-.582.561-.096.07-.208.345-.26.24-.103-.207 0-.695 0-.941 0-.342-2.123 1.358-.749.327M85.583 93.525c0 1.375-.166-.733-.218-1.142-.128-1.028-.474-1.518-.474-.141 0 .905.46 1.346.705.243.256-1.152.45.975.45 1.386 0 1.125.627.682.692-.167.028-.356.231-1.107.231-.308 0 .129-.049 1.18.051 1.18 1.017 0-.102-1.564-.282-1.744-.903-.903-.058-.25.693 0" stroke="#171717" stroke-linecap="round"/><path d="M25 49.909c3.918 0 7.854.091 11.76.091.075 0 .942-.011.725-.142-.67-.404-1.417-.694-2.137-.954-1.342-.484-2.84-.574-4.137-1.187-1.11-.526-2.278-.183-3.412-.569-.346-.118-.668-.237-1.033-.254-.27-.012.686-.046.772-.035 1.69.216 3.35.544 5.055.578 1.834.037 3.865-.29 5.673.138.054.012 1.337.198 1.258.05-.214-.402-.992-.687-1.342-.873-.83-.441-1.648-.842-2.534-1.116-1.882-.582-3.875-.427-5.796-.66-.493-.06-.747-.338-1.157-.548-.044-.022-.331-.129-.225-.162.35-.111.825-.02 1.179-.02.949 0 1.898.004 2.847 0 2.32-.01 4.558-.731 6.887-.731h1.024c.186 0 .367.084.16-.102-.636-.568-1.405-1.043-2.093-1.522-.97-.675-2.053-1.304-3.179-1.523a23.929 23.929 0 0 1-3.333-.913c-.605-.212.43-.142.578-.142h9.187c.02 0-.665-.18-.87-.295-.882-.49-1.723-1.056-2.591-1.573-.81-.482-1.678-.599-2.578-.599-.535 0-1.064-.02-1.594.072-.561.097.575.056.702.07 1.947.224 3.898.37 5.84.02.485-.086.956-.309 1.449-.344.09-.007-.552-.34-.618-.37-1.127-.508-2.291-.813-3.453-1.183-.61-.194-.21-.516-.792-.802-.156-.077-.611-.294-.441-.294h1.11c1.37 0 2.73-.17 4.097-.183.559-.005 1.118 0 1.677 0 .097 0 .483.03.274-.203-.632-.702-1.642-1.15-2.45-1.482-1.104-.454 4.997-1.682 3.845-1.914-.552-.11-2.23-.233-1.669-.233.99 0-5.272 1-4.282 1M52.117 53.087c2.305 0 4.817-.39 7.034.48.565.22 1.445 1.034 2.01 1.072.195.014 1.121.173.754.173-1.993 0-3.985.172-5.982.172-1.224 0-2.45.028-3.674 0-.171-.004-.825-.026-.958-.21-.095-.133 1.372.024 1.444.038 1.906.376 3.835.652 5.731 1.073.706.157 1.39.476 2.057.786.183.085 1.356.879 1.295.89-3.39.69-6.767.7-10.197.7-1.27 0 .389-.014.848.01 1.778.092 3.822.558 5.432 1.504.638.375 1.799.26 2.292.863.046.056-.632.055-.77.076-.887.14-1.769.3-2.652.48-2.215.45-4.425.174-6.642.478-.354.05-1.424.039-1.067.039.957 0 1.891.12 2.841.258 2.303.338 4.631.61 6.9 1.198 1.382.358.073.407-.635.527a30.748 30.748 0 0 1-5.071.431c-1.205 0-2.38.345-3.58.345-1.657 0 3.368.252 4.898 1.026.829.418 1.642.77 2.426 1.303.427.289-.139.25-.369.268-.87.066-1.737.245-2.606.336-1.45.15-2.93.862-4.38.862-1.375 0 2.799.3 4.035 1.035 1.17.695-1.044.6-1.413.651-.438.061-1.647-.282-1.32.077.48.527 1.517.805 2.105 1.169.236.146.86.436 1.02.728.019.034-1.74.457-1.923.47-.244.017-1.097-.162-.707.373.358.492.834 1.034 1.311 1.351.404.27-.284.182-.432.182-.563 0-1.176-.087-1.734.01-.29.05 2.515 2.55 2.331 2.673-.865.581-2.075.749-3.03 1.016" stroke="#FFD424" stroke-width="2.5" stroke-linecap="round"/><path d="M43.937 92.022c1.072 0 2.153-.053 3.224.006.466.026.92.094 1.39.094.52 0 1.104-.102 1.62.022.575.138 1.19.275 1.776.275.15 0 .313-.046.06.022-1.022.277-1.998.375-3.042.375-1.545 0-3.121.12-4.665-.005-.846-.069-1.666-.193-2.519-.193-.156 0-.608-.118-.742.005-.213.197.506.118.762.144.762.075 1.531.125 2.295.143 2.394.057 4.8.05 7.192-.094 1.143-.069 2.292-.064 3.432-.198.562-.066 1.12-.19 1.684-.199h.415c-.951 0-1.899.1-2.85.1h-3.208c-1.355 0-2.623-.01-3.943.446-.743.257-1.406.546-2.18.546h-.378c1.723 0 3.45-.041 5.172.05 1.264.066 2.575.13 3.812.546.078.026.671.359.646.375-.692.43-1.776.268-2.514.32-.938.065-1.867.099-2.806.099-.88 0-1.745.099-2.622.099" stroke="#C6C6C8" stroke-width="2.5" stroke-linecap="round"/><path d="M70.389 76.705c0 .506.247-.984.43-1.456.256-.665.637-1.475 1.245-1.898.142-.1.34-.103.505-.156.491-.157.902-.333 1.361-.569.252-.129.473-.294.717-.434.014-.008-.26.597-.335.749-.46.944-.897 1.9-1.233 2.897-.233.69-.57 1.43-.669 2.156-.04.3-.016.614-.016.916 0 .332.16-.325.195-.402.483-1.056 1.174-2.07 2.026-2.861.396-.369 1.038-.901 1.611-.944.19-.014.383-.004.573-.004.147 0-.224.463-.282.566-.594 1.054-1.112 2.132-1.5 3.278-.11.326-.187.614-.187.956" stroke="#FFD424" stroke-width="2.5" stroke-linecap="round"/><path d="m16.203 20.077 6.35 14.684m2.513-11.244L10.25 33.967m0-7.937 15.61 2.778m-3.307-7.011L14.58 38.16" stroke="#171717" stroke-width="1.5"/><ellipse cx="48.986" cy="93.226" rx="39.316" ry="4.486" stroke="#171717" stroke-width="1.5" stroke-linecap="round"/><path d="M9.469 102.077v-8.743c1.494 1.793 11.926 5.156 41.695 4.26 29.77-.897 37.212-3.214 37.212-4.26l2.69 6.949c-10.386 3.512-41.247 8.788-81.597 1.794Z" stroke="#171717" stroke-width="1.5" stroke-linecap="round" stroke-linejoin="round"/><path d="m13.238 94.43 4.196-55.173c1.2-15.78 13.573-28.413 29.326-29.94v0c18.588-1.802 34.88 12.366 35.673 31.025l2.302 54.088" stroke="#171717" stroke-width="1.5" stroke-linecap="round" stroke-linejoin="round"/><path d="m47.8 21 29 31-28.5 34.5-25-35L47.8 21Z" stroke="#171717" stroke-width="1.5"/><path d="m47.8 21.5-11 30L48.3 86" stroke="#171717" stroke-width="1.5" stroke-linecap="round"/><path d="m47.8 21.5 4 30.5-3.5 34" stroke="#171717" stroke-width="1.5" stroke-linecap="round"/><path d="M47.8 21.5 63.3 53l-15 32.5m-25-34 53 1" stroke="#171717" stroke-width="1.5" stroke-linecap="round"/><path d="M47.849 21.87c.077 1.09-1.103 2.409-1.716 3.177-2.226 2.794-5.047 5.21-7.333 7.953-2.713 3.256-3.939 7.121-6.5 10.5-1.757 2.319-6.601 4.267-8.327 6.559-.476.633-1.593 1.302-1.12 2.185 1.17 2.178 3.944 6.151 5.396 8.14 3.448 4.724 7.558 7.668 11.04 12.368 2.617 3.533 4.868 7.654 7.797 10.908.414.46 1.862 3.411 2.56 2.588C54.41 80.637 60.07 75.54 64.373 69.585c3.37-4.661 6.819-9.296 10.084-14.026.699-1.013 1.692-1.805 2.266-2.873.58-1.078-2.278-3.906-3.073-4.615-2.376-2.12-3.055-4.872-5.35-7.071-1.869-1.791-4.945-3.434-6.5-5.5-1.635-2.174-4.071-3.652-6-5.5-2.86-2.74-4.671-6.405-7-9.5" stroke="#171717" stroke-linecap="round"/><path d="M24.227 52.281c4.009-.735 7.866-1.042 11.957-.856 7.056.321 14.107.89 21.162 1.265 3.02.161 6.182.396 9.208.232.665-.037 1.498-.298 2.154-.191.448.073.974-.078 1.428-.094.676-.023 1.368-.09 2.034-.212.626-.115 1.3.024 1.981-.1M47.355 22.952c.021.296-.246.669-.363.928-.296.66-.482 1.313-.706 1.998-.67 2.046-1.513 4.017-2.274 6.028-.785 2.078-1.385 4.307-2.402 6.286-.837 1.632-1.423 3.455-1.934 5.215-.619 2.134-2.014 5.563-2.324 7.757M47.912 24.557l2.091 11.41c.493 2.69.51 5.463.648 8.193.12 2.355.283 4.767.708 7.088" stroke="#171717" stroke-linecap="round"/><path d="M48.098 24.13c.272 1.487.88 2.875 1.548 4.226 1.856 3.754 4.183 7.209 6.36 10.773a30.447 30.447 0 0 1 2.715 5.691c.328.924.578 1.896.972 2.792.557 1.268 1.204 2.344 2.105 3.402.26.305.525 1.068.902 1.177M37.436 51.962c.466 2.545.894 5.102 1.407 7.638.626 3.089 2.018 5.967 3.006 8.95.646 1.954 1.088 3.959 1.809 5.887.503 1.347 1.353 2.62 1.658 4.03.186.86.61 1.657.845 2.502.116.416.213 1.217.49 1.553.178.216.257.53.44.773.223.295.517.458.7.79M50.945 51.85a18.6 18.6 0 0 1 .22 5.148c-.218 2.286-.245 4.538-.39 6.823-.202 3.162-.685 6.207-1.313 9.319-.757 3.747-.791 7.637-1.324 11.408M62.655 53.381c-1.508 4.529-3.689 8.781-5.43 13.212-.933 2.374-2.073 4.67-3.19 6.963-.66 1.355-1.028 2.828-1.653 4.2-.836 1.836-1.367 4.008-2.443 5.702-.407.64-.504 1.463-.955 2.117M9.418 94.23c0 1.063.563 4.422-.084 5.231-1.829 2.286 1.523 2.363 2.931 2.363 1.11 0 2.804 1.157 3.797 1.709 1.293.718 4.399.866 5.885.949 1.033.057 1.96.303 2.953.379.382.03 2.39.251 2.658.464 1.3 1.04 5.223.296 6.919.296 5.177 0 10.409.379 15.65.379 2.302 0 4.447-.379 6.75-.379 2.257 0 6.177.154 8.164-.949.931-.518 3.468-.57 4.556-.57 1.067 0 2.058-.38 3.037-.38 1.893 0 3.579-.759 5.506-.759 2.344 0 4.823-.619 7.213-.759 1.316-.078 2.686-1.519 3.987-1.519 1.02 0 .57-3.846.57-4.746 0-1.324-1.186-2.879-2.278-3.607M12.565 93.439c0-1.756-.067-3.529 0-5.283.087-2.268 1.2-4.754 1.694-6.977.758-3.411.865-7.252.865-10.768V59.443c0-2-.1-4.021.201-5.982.202-1.313.225-2.607.225-3.945 0-.58-.302-2.132.427-2.132" stroke="#171717" stroke-linecap="round"/><path d="M84.205 94.292c0-7.416-.213-14.923-.213-22.28 0-.776-.382-1.449-.426-2.24-.042-.744.024-1.67-.26-2.345-.524-1.243-.593-2.982-.593-4.371v-9.701M82.715 53.353V42.906c0-3.423-.58-7.329-1.967-10.448-1.242-2.794-2.694-5.389-4.05-8.102-.644-1.287-1.161-2.7-2.192-3.732-1.345-1.344-2.76-2.55-4.371-3.518M69.92 17.107c-.585-.52-1.622-.657-2.346-1.018-.632-.317-1.04-.994-1.54-1.493-1.303-1.304-2.995-1.856-4.536-2.713-1.268-.704-3.03-1.905-4.478-2.226-.69-.154-1.35-.652-2.025-.652-.565 0-2.184-.041-2.606-.38-.435-.347-2.181-.046-2.725-.046h-3.15c-2.046 0-3.954.642-5.912 1.077-1.908.425-3.317 1.817-5.01 2.713-1.643.87-3.305 2.393-4.798 3.554-.954.742-2.26 1.473-3.305 2.144-.916.59-1.38 1.452-2.238 2.12-1.446 1.124-2.613 2.24-3.471 3.956-1.656 3.312-2.737 6.935-3.992 10.448-1.19 3.331-1.386 6.662-1.386 10.235v4.797c0 3.592-.812 7.175-.213 10.768" stroke="#171717" stroke-linecap="round"/><path d="M13.137 91.945c1.928 0 3.538-.652 5.362-1.159 2.323-.645 4.524-1.075 6.968-1.075h8.937c4.24 0 8.64.211 12.843-.373 1.89-.262 3.843-.096 5.743-.298 2.57-.273 5.236-.272 7.82-.364 2.436-.087 5.163-.278 7.58.075 1.898.276 3.778.898 5.669 1.109 1.464.162 3.048.59 4.477.968 1.374.364 2.781.625 4.154.968 1.118.28 2.286 1.043 3.434 1.043M11.35 94.328c3.475 0 6.914 1.17 10.277 2.01 4.335 1.085 8.513 2.118 13.026 2.16 6.282.06 12.568 0 18.85 0h4.18c2.866 0 5.631-.474 8.482-.711 1.355-.113 3.382.099 4.468-.927.254-.24 1.476-.447 1.862-.447.61 0 1.44-.317 2.011-.521.946-.338 1.979-.23 2.946-.406 2.214-.402 4.756-.264 6.885-1.092.722-.28 1.45-.495 2.16-.81.347-.155 1.115-.295 1.266-.597M68.08 76.174c2.468 0 4-2.013 4.866-4.177.26-.652.548-2.737.548-2.035 0 .995-.035 1.997 0 2.99.074 2.07 1.847 2.79 3.469 3.38.49.179 1.467.159 1.823.443.2.16.195.036-.204.036-.452 0-.983-.097-1.425-.195-.629-.14-1.704-.331-2.23.195-.747.747-1.028 1.935-1.557 2.831-.546.925-1.07 2.177-1.15 3.256-.025.346-.16 1.519-.16.531 0-1.602.582-3.109.638-4.672.025-.702.061-1.305-.478-1.787-1.114-.997-2.913-.796-4.3-.796" stroke="#171717" stroke-linecap="round"/><path d="M69.7 21.839c.585 0 .78.54 1.092.944.475.615.965 1.184 1.457 1.788.822 1.009 1.472 1.945 2.065 3.097.273.531.743.977 1.066 1.484.296.465.861.888.998 1.437.103.41 1.005 2.224.608 2.422M65.924 19.454c-.22-.22-.546-.577-.81-.71M61.463 16.21c-.299 0-.52.01-.771-.102-.45-.2-.78-.55-1.257-.71" stroke="#171717" stroke-width="1.5" stroke-linecap="round"/><path d="M10.209 25.455c2.526 0 4.932.038 7.407.594.579.13 1.1.36 1.684.474.416.081.886.123 1.288.242 1.005.298 2.117.24 3.17.396.826.122 1.23.91 2.003 1.167" stroke="#171717" stroke-linecap="round"/><path d="M16.846 20.106c.184.023.189.866.214.991.289 1.423.725 2.803 1.173 4.182.66 2.035 1.482 3.797 2.867 5.426.966 1.137 1.82 2.344 2.481 3.666" stroke="#171717" stroke-linecap="round"/><path d="M10.209 34.668c.294-.033.681-.486.936-.639.746-.448 1.531-.901 2.333-1.244.877-.374 1.688-.892 2.47-1.43.603-.415 1.131-.918 1.79-1.266.733-.388 1.159-1.065 1.788-1.568.581-.466 1.25-.855 1.777-1.382.616-.615 1.157-1.196 1.882-1.684.57-.383 1.057-.88 1.63-1.243.206-.132.647-.239.748-.44" stroke="#171717" stroke-linecap="round"/><path d="M15.756 37.243c.499-1.027 1.302-1.91 1.937-2.85 1.38-2.045 1.904-4.442 3.093-6.583.598-1.077 1.361-2.117 1.607-3.345.157-.787.12-1.602.319-2.378.221-.86.968-1.695.968-2.575" stroke="#171717" stroke-linecap="round"/></svg>