<svg width="114" height="167" fill="none" xmlns="http://www.w3.org/2000/svg"><g filter="url(#a)"><mask id="b" maskUnits="userSpaceOnUse" x="8.6" y="4.3" width="98" height="151" fill="#000"><path fill="#fff" d="M8.6 4.3h98v151h-98z"/><path fill-rule="evenodd" clip-rule="evenodd" d="M56.6 12.3c-22.6 0-40 25.6-40 51.7C16.6 92 29 103.6 43 108v35.9c0 .2.1.4.3.4l7.3 2.2a.4.4 0 0 0 .2-.8l-7-2.1v-35.4a54.5 54.5 0 0 0 28.7 0v35.7c0 .2.1.4.3.4l7.3 2.2a.4.4 0 0 0 .2-.8l-7-2.1v-35.7a34.1 34.1 0 0 0 18-13.5c7-13 8-31.5 5.3-43.6A64.3 64.3 0 0 0 86.7 28a18 18 0 0 0 9.8-6.3.4.4 0 1 0-.7-.5 17.1 17.1 0 0 1-9.6 6c-6.6-8.7-16.1-15-29.6-15Z"/></mask><path fill-rule="evenodd" clip-rule="evenodd" d="M56.6 12.3c-22.6 0-40 25.6-40 51.7C16.6 92 29 103.6 43 108v35.9c0 .2.1.4.3.4l7.3 2.2a.4.4 0 0 0 .2-.8l-7-2.1v-35.4a54.5 54.5 0 0 0 28.7 0v35.7c0 .2.1.4.3.4l7.3 2.2a.4.4 0 0 0 .2-.8l-7-2.1v-35.7a34.1 34.1 0 0 0 18-13.5c7-13 8-31.5 5.3-43.6A64.3 64.3 0 0 0 86.7 28a18 18 0 0 0 9.8-6.3.4.4 0 1 0-.7-.5 17.1 17.1 0 0 1-9.6 6c-6.6-8.7-16.1-15-29.6-15Z" fill="#fff"/><path d="M42.9 108h8a8 8 0 0 0-5.7-7.7l-2.3 7.6Zm.3 36.3-2.3 7.7 2.3-7.7Zm7.3 2.2-2.3 7.7 2.3-7.7Zm.5-.3-7.7-2.3 7.7 2.3Zm-.3-.5-2.3 7.6 2.3-7.6Zm-7-2.1h-8a8 8 0 0 0 5.8 7.6l2.2-7.6Zm0-35.4 2.2-7.7a8 8 0 0 0-10.2 7.7h8Zm28.7 0h8a8 8 0 0 0-10.4-7.7l2.4 7.6Zm.3 36.1 2.3-7.7-2.3 7.7Zm7.3 2.2-2.3 7.7 2.3-7.7Zm.5-.3-7.6-2.3 7.6 2.3Zm-.3-.5-2.2 7.6 2.2-7.6Zm-7-2.1h-8a8 8 0 0 0 5.8 7.6l2.3-7.6Zm0-35.7-2.5-7.6a8 8 0 0 0-5.4 7.6h8Zm18-13.5L98 99l.4-.7-7-3.8Zm5.3-43.6 7.8-1.8-7.8 1.8Zm-9.6-22.5-6.5 4.6 6.5-4.6Zm-.2-.3-2-7.8a8 8 0 0 0-4.5 12.5l6.5-4.7Zm9.8-6.3-6.2-5 6.2 5Zm0-.6 5-6.2-5 6.2Zm-.7 0-6.1-5 6.1 5Zm-9.6 6.1L79.8 32a8 8 0 0 0 8.1 3l-1.7-7.8ZM24.6 64a53 53 0 0 1 10-30.9c6.1-8.3 14-12.8 22-12.8v-16a44 44 0 0 0-34.9 19.3A69 69 0 0 0 8.7 64h16Zm20.6 36.3a25.8 25.8 0 0 1-14.1-10A45.2 45.2 0 0 1 24.6 64h-16c0 15.1 3.3 26.7 9.3 35.4 6 8.7 14.2 13.6 22.6 16.2l4.7-15.3ZM35 107.9v36h16v-36h-16Zm0 36c0 3.7 2.4 7 6 8l4.6-15.3c3.2 1 5.4 4 5.4 7.3h-16Zm6 8 7.3 2.3 4.6-15.4-7.3-2.2-4.6 15.4Zm7.3 2.3a8.4 8.4 0 0 0 10.5-5.7l-15.4-4.6c1.2-4 5.5-6.3 9.5-5l-4.6 15.3Zm10.5-5.7A8.4 8.4 0 0 0 53 138l-4.6 15.3a7.6 7.6 0 0 1-5-9.4l15.3 4.6ZM53 138l-7-2-4.5 15.2 7 2.1L53 138Zm-1.3 5.6v-35.4h-16v35.4h16Zm7-41.5c-4.4 0-8.7-.4-12.8-1.6L41.5 116a62.5 62.5 0 0 0 17.1 2.2v-16Zm11.3-1.6a38.9 38.9 0 0 1-11.4 1.6v16c5.2 0 10.7-.6 16.2-2.3L70 100.5Zm10.4 43.4v-35.8h-16V144h16Zm-5.4-7.3c3.2 1 5.4 4 5.4 7.3h-16c0 3.7 2.4 7 6 8l4.6-15.3Zm7.3 2.2-7.3-2.2-4.6 15.4 7.3 2.2 4.6-15.4Zm-9.4 5.1c1.2-4 5.4-6.3 9.4-5l-4.6 15.3a8.4 8.4 0 0 0 10.5-5.7l-15.3-4.6Zm5 9.4a7.6 7.6 0 0 1-5-9.4l15.3 4.6a8.4 8.4 0 0 0-5.7-10.5L78 153.3Zm-7-2 7 2 4.6-15.3-7-2-4.5 15.2Zm-5.6-43.4v35.7h16v-35.7h-16Zm19.3-18a26.1 26.1 0 0 1-13.9 10.4l5 15.1c8.4-2.7 16.4-7.9 22.2-16.5l-13.3-9Zm4.1-37.3a61 61 0 0 1-4.5 38l14 7.6c8.1-15 9.2-35.6 6-49.2l-15.5 3.6Zm-8.3-19.7c4 5.6 6.7 12.6 8.3 19.7l15.6-3.6c-2-8.5-5.4-17.6-10.9-25.3l-13 9.2Zm-.2-.2.2.2 13-9.2-.2-.4-13 9.4Zm8.4 3a26 26 0 0 0 14-8.9L90.4 16.6a10 10 0 0 1-5.5 3.6l3.8 15.6Zm14-8.9c3-3.6 2.5-8.9-1-11.9L91.3 27.3a7.6 7.6 0 0 1-1-10.7l12.3 10.2Zm-1-11.9c-3.6-3-9-2.4-12 1.2L102 26.3a7.6 7.6 0 0 1-10.6 1l10.1-12.4Zm-12 1.2c-1.6 2-3.3 2.9-5.2 3.3L87.9 35c5.3-1.2 10.1-3.9 14.1-8.7L89.7 16Zm-33 4.2c10.6 0 17.9 4.7 23.2 11.7l12.8-9.6a43.5 43.5 0 0 0-36-18.1v16Z" fill="#fff" mask="url(#b)"/><path d="M61 52.3c-.5 0 1 3.9 1.5 4.3l-.5-3.8c-.2-.5-.2-2.1-.2-1.6 0 .7.7 1.4 1 2.1.3.8.5 1.6 1 2.3.2.3 0 .9.4 1.2.2.1 0-1.4 0-1.4l-.3-2.4c0-.5 0-1 .3-.4l1.2 1.7.7 1c.2.3.2-1.3.2-1.5 0-.7-.6-2.6.2-1.1 0 .2 1 2 1 1.4v-2.6c.6 0 1.9 3.2 2.2 3.7l.3-2.7c0-1.4 1 1 1.1 1.3.6 1.3.5.2.5-.6 0-2 .6.3.8 1 .4 1.4.4-1.4.4-1.8 0-.4.2-.5.3-.1l.4 2.1c.5 1.8.3-.1.5-1l.3-1c.4.7.4 1.7.6 2.5 0 .6.1 1.3.4 1.8.2.5.2-.8.3-1 0-.6.4-3.4.8-2 .2.7.3 3 .3 2.3 0-1.3.8-4.8.8-3.6 0 .8.4 1.7.4 2.5 0 .9.8-3.3.8-2.4V54c0-.3.2-1.9 0-2.1-.6-.4-1.7-.2-2.3-.2-1.6 0-3 .3-4.5.5-2.8.5-5.8-.1-8.5-.1" stroke="#131313" stroke-width="2.5" stroke-linecap="round"/><path d="M67.6 64.8H67c1.8.3 3.5.3 5.3.3.4 0 2.8-.3 1.1-.3h-8c-.6 0-.4-.1.1.2 1 .6 2.5.5 3.6.5 1.7 0 .3.1-.4.4-.6.3.4.2.6.2l1.2.1" stroke="#C6C6C8" stroke-width="2.5" stroke-linecap="round"/><path d="M78 80.1v3c0 1 0-2.4.3-3.5.1-.2.2-.9.5-1 .4-.1.7 1.5.7 1.7.2 1.7.7 3.6.7 5.3a57.1 57.1 0 0 0 .2-5.3l1 2.4c.7 1.5.9 3.1 1.5 4.6.2.4.2-1 .2-1.3 0-1-.6-2.1-.7-3.3 0-.2-.1-.8 0-.8l1 2 1.7 5.2c.2.7.2-.4.2-.6V85c0-.5.7.9.7 1 .6 1.1 1 2.4 1 3.6.1.3.1 1.4.4 1.6l.2-1.5c0-1.4.1-3 .5-4.4l.3 1.3.4 3.7c.1.7 0 2.7.9 2.7" stroke="#FFD424" stroke-width="2.5" stroke-linecap="round"/><path d="M34.9 63c3 11.8 15.4 32.9 44.8 22.8M43.3 109.4v34.5l7.3 2.2M72.8 109.4v34.5l7.3 2.2" stroke="#171717" stroke-width="1.5" stroke-linecap="round" stroke-linejoin="round"/><path d="M36.6 34.6c2.9-8.5 10-12.7 19.7-11.1 13 2.2 29.6 10.4 39.9-2" stroke="#171717" stroke-width="1.5" stroke-linecap="round"/><path d="M91.2 94.4c-7.9 11.8-21 15.7-32.6 15.7-19 0-42-8-42-46 0-26.2 17.4-51.8 40-51.8 14 0 23.8 6.7 30.3 16a64.3 64.3 0 0 1 9.6 22.5" stroke="#171717" stroke-width="1.5" stroke-linecap="round" stroke-linejoin="round"/><path d="m76.5 80.8 8.7 10.6 6 3-1.1-6.8-9-10.2m-4.6 3.4-2.8-3.4 4.2-3.5 3.2 3.5m-4.6 3.4 4.6-3.4M62.5 45c0-2-1.6-3.4-3.6-3.4s-3.5 1.7-3.4 3.6M84.2 44.5c0-2-1.7-3.5-3.6-3.4-2 0-3.5 1.6-3.5 3.6" stroke="#171717" stroke-width="1.5" stroke-linecap="round" stroke-linejoin="round"/><path d="M70.1 60.8c5.1-.1 9.2-3.8 10-8.5.2-1-.7-1.8-1.7-1.8l-17 .4c-1 0-1.9.9-1.7 1.9 1 4.7 5.3 8.1 10.4 8Z" stroke="#171717" stroke-width="1.5"/><path d="M77.6 44.9v-.6l.2-.6c.2-.3.2-.8.7-1 .2-.2.5-.5.9-.5s.8-.3 1.3-.3c.3 0 .7 0 1 .2l.9.7c.4.4.5.8.6 1.3l.1.4.3.5M62.9 45.4c0-.7 0-1.3-.2-1.9 0-.2-.3-.3-.4-.5l-.3-.6c-.1-.2-.1-.4-.3-.5a5.3 5.3 0 0 0-2-.8l-1.3-.2c-.6 0-1 .8-1.3 1.2-.2.2-.3.6-.6.8l-.6.5c-.3.3-.3.4-.4.7l-.5 1.1M59.6 51c.5 0 .9-.3 1.3-.4l1-.2c1.5-.2 3-.1 4.6 0h3.7c1 0 1.9.2 2.8.1l1.2-.1 1.4-.2h3.5c.4.2.8 0 1.2.3M80.3 50.5c.5.3.5 1 .6 1.4V53c0 .3-.3.5-.4.9-.2.7-.5 1.2-1 1.8l-.6 1-.8.8c-.6.8-1.4 1.2-2.1 1.8l-1.1.7-1.3.6c-.3 0-.7.1-1 .3-.2.3-.8.2-1.1.3l-1.3.1-1 .2" stroke="#171717" stroke-linecap="round"/><path d="m69.3 61.6-2.5-.1c-.4 0-1-.2-1.3-.4l-.7-.5-1-.8-.9-.7-.3-.5-.5-.6-.9-1-.4-.7-.3-.4-.5-1a2 2 0 0 1-.4-.6v-.6c-.2-.2-.1-.5 0-.8V51.6l-.1-.5M96.6 50.7c0-3-.4-6.3-1-9.3-.3-1.4-1.2-2.9-2-4.1-.8-1.4-1.5-3-2.5-4-.8-.9-1.8-2-2.3-3-1.1-2.2-3.3-3.1-4.8-5-.8-.9-1.2-1.9-2-2.7-1.6-1.3-3.6-2.2-5.3-3.4-.8-.5-1.6-1.3-2.4-2l-3.1-2c-1.7-1-4.4-2.7-6.4-2.7l-8-.2c-1.7 0-3.4-.4-5.3-.4M51.5 12c-1.6 0-3 .7-4.6 1.2-1.5.5-3.2 1.3-4.5 2.1-1.3.9-2.6 1.5-3.8 2.5-1.1 1-2.6 2.2-4 3-1.3 1-2.4 2.1-3.7 3L28 26.7c-1 1.1-2 2.6-2.9 3.9-.9 1.3-2.4 2.6-2.9 4-1 3.3-3 6.2-3.8 9.6a47 47 0 0 0-2 11.5c0 3.2.5 6.4.5 9.6 0 1 0 2.6.3 3.5.7 2 .4 4 .9 6" stroke="#171717" stroke-linecap="round"/><path d="M18 74.6c0 2.6-.1 5.3.3 7.9.4 2.7 1.4 4.6 2.8 7 1.4 2.3 2.6 4.7 4.2 7 1 1.3 2.2 2.8 3.5 4 .8.9 1.8 1.5 2.6 2.3.6.6 1.4 1.2 2.1 1.5 1.3.7 3 1 4.2 1.8a24.5 24.5 0 0 0 12.4 3.2h3.2c1 0 1.8-.4 2.8-.4" stroke="#171717" stroke-linecap="round"/><path d="M55.7 108.9c8.1 0 16.6 0 23.7-4.6 1.3-.8 2.7-1.3 4-2.5.9-1 1.8-1.7 2.8-2.6.9-.9 1.9-2.3 3-3 .6-.3 1-1.2 1.7-1.6M36.7 34.2c0-1.2 0-2.1.7-3 .8-1.2 1.5-2.4 2.5-3.4.5-.6 1-1.3 1.8-1.7.8-.4 1.7-.8 2.4-1.4 1.3-1 3.4-1.3 5-1.6 1-.2 2 0 2.9 0 1.4 0 3 .1 4.4.3 1.6.3 3.4.4 5 .9l3.2 1.1c1.2.4 2.6.5 3.8.7 1.2.2 2.3.7 3.4.9 3 .4 5.8.5 8.7.5M80.7 27.5c1.5 0 3.1.2 4.6 0 1.4-.3 2.7-.8 4-1.3.8-.3 1.3-.8 2-1.2l2.1-1.2c1.1-.7 2.3-2 3.5-2.3M34.3 63.2c0 .4.5.9.7 1.2.4.6.7 1.1.9 1.7.4 1 1 1.8 1.6 2.7l2.9 4.8c1.1 1.8 2.2 4 3.7 5.5 1.2 1.3 2.6 2.5 4 3.4l3.6 2.3c1.2.7 2.2 1.4 3.6 1.7 1 .3 2 .9 3 1l1.9.4c1 .4 2.3.6 3.4.6M63.6 88.5h6.8c2.9 0 5.4-1.4 8.1-2 .2 0 1.6-.5 1.4-.8l-2-2.2c-.9-1-1.5-2.1-2-3.4l-.7-1.9c0-.1-.6-.8-.5-1 .3-.2.7-.8 1-1.2.6-.6 1.2-1 2-1.2.6-.3 1 0 1.4.6.7 1 1.8 1.8 2.7 2.5.8.7 1.4 1.5 2 2.4.6.7 1.3 1.2 1.9 2 1 1.3 3 1.7 3.8 3.3.5 1 .8 1.9 1.1 3 .4 1.5.7 2.6.7 4.1l-.2 1.2c0 .6-1 0-1.1-.2-.9-.8-2-1.6-3.1-2-.8-.2-1.6 0-2.1-.6a28.8 28.8 0 0 0-4.3-4l-2.8-2.9M43.3 108.4l-.2 29.4c0 1.4 0 3 .4 4.4.3.7 0 1.5.9 1.9 1.2.6 2.8 1 3.9 2 .5.4 1 1 1.5.3M72.8 107.7c0 6.4-.1 12.7.1 19.1.2 3 .3 6-.2 9-.2 1.5-.1 3-.1 4.6M72.6 140.4c0 .8-.3 2.1 0 2.8.3.4.4.8.8 1 .3.4.9.5 1.2.7 1.7.8 3.6 1.4 5.4 1.4" stroke="#171717" stroke-linecap="round"/></g><defs><filter id="a" x=".6" y=".3" width="113.3" height="166.2" filterUnits="userSpaceOnUse" color-interpolation-filters="sRGB"><feFlood flood-opacity="0" result="BackgroundImageFix"/><feColorMatrix in="SourceAlpha" values="0 0 0 0 0 0 0 0 0 0 0 0 0 0 0 0 0 0 127 0" result="hardAlpha"/><feOffset dy="2"/><feGaussianBlur stdDeviation="1"/><feComposite in2="hardAlpha" operator="out"/><feColorMatrix values="0 0 0 0 0 0 0 0 0 0 0 0 0 0 0 0 0 0 0.02 0"/><feBlend in2="BackgroundImageFix" result="effect1_dropShadow_716_3122"/><feColorMatrix in="SourceAlpha" values="0 0 0 0 0 0 0 0 0 0 0 0 0 0 0 0 0 0 127 0" result="hardAlpha"/><feOffset dy="4"/><feGaussianBlur stdDeviation="4"/><feComposite in2="hardAlpha" operator="out"/><feColorMatrix values="0 0 0 0 0 0 0 0 0 0 0 0 0 0 0 0 0 0 0.06 0"/><feBlend in2="effect1_dropShadow_716_3122" result="effect2_dropShadow_716_3122"/><feBlend in="SourceGraphic" in2="effect2_dropShadow_716_3122" result="shape"/></filter></defs></svg>