<svg width="142" height="112" fill="none" xmlns="http://www.w3.org/2000/svg"><mask id="a" maskUnits="userSpaceOnUse" x="-.584" y="-1" width="142" height="113" fill="#000"><path fill="#fff" d="M-.584-1h142v113h-142z"/><path fill-rule="evenodd" clip-rule="evenodd" d="M35.079 30.19c2.582-10.21 11.71-28.503 27.566-20 10.834 5.812 9.338 16.684 7.993 26.466-1.116 8.112-2.13 15.474 4.078 18.578 4.49 2.244 9.328 3.327 14.261 3.082 10.112-.501 20.622-6.58 29.341-19.658 9.776-14.665 6.356-4.471 2.964 3.588 2.597-3.89 5.162-6.779 6.765-6.29 3.233.983-4.695 14.842-9.379 22.156 3.744-5.77 11.271-15.945 14.063-14.41 3.604 1.982-14.413 49.895-50.802 57.779-26.646 5.774-49.913 2.038-52.616-18.321-1.522-11.464 1.64-16.644 4.502-21.33 2.22-3.637 4.258-6.976 3.786-12.722l-25.714 6.858a2.76 2.76 0 0 1-2.458-4.803l25.65-20.973Zm-13.122-5.124c1.289-2.012 3.583-4.272 6.823-4.272 2.989 0 5.34 1.393 6.835 2.754 1.034.94 1.01 2.51-.059 3.41-1.498 1.263-3.826 2.54-6.776 2.54-2.662 0-4.684-.62-6.036-1.293-1.185-.59-1.5-2.024-.787-3.14Z"/></mask><path fill-rule="evenodd" clip-rule="evenodd" d="M35.079 30.19c2.582-10.21 11.71-28.503 27.566-20 10.834 5.812 9.338 16.684 7.993 26.466-1.116 8.112-2.13 15.474 4.078 18.578 4.49 2.244 9.328 3.327 14.261 3.082 10.112-.501 20.622-6.58 29.341-19.658 9.776-14.665 6.356-4.471 2.964 3.588 2.597-3.89 5.162-6.779 6.765-6.29 3.233.983-4.695 14.842-9.379 22.156 3.744-5.77 11.271-15.945 14.063-14.41 3.604 1.982-14.413 49.895-50.802 57.779-26.646 5.774-49.913 2.038-52.616-18.321-1.522-11.464 1.64-16.644 4.502-21.33 2.22-3.637 4.258-6.976 3.786-12.722l-25.714 6.858a2.76 2.76 0 0 1-2.458-4.803l25.65-20.973Zm-13.122-5.124c1.289-2.012 3.583-4.272 6.823-4.272 2.989 0 5.34 1.393 6.835 2.754 1.034.94 1.01 2.51-.059 3.41-1.498 1.263-3.826 2.54-6.776 2.54-2.662 0-4.684-.62-6.036-1.293-1.185-.59-1.5-2.024-.787-3.14Z" fill="#fff"/><path d="m62.645 10.19 3.781-7.05-3.781 7.05Zm-27.566 20 5.064 6.193 2.044-1.672.647-2.56-7.755-1.961Zm35.559 6.466-7.926-1.09 7.926 1.09Zm4.078 18.578 3.578-7.156-3.578 7.155Zm14.261 3.082-.396-7.99.396 7.99Zm29.341-19.658 6.656 4.437-6.656-4.437Zm2.964 3.588-7.373-3.103 14.027 7.545-6.654-4.442Zm6.765-6.29 2.329-7.654-2.329 7.653Zm-9.379 22.156-6.737-4.314 13.448 8.669-6.711-4.355Zm14.063-14.41-3.855 7.01 3.855-7.01Zm-50.802 57.779-1.694-7.818 1.694 7.818ZM29.313 83.16l7.93-1.053-7.93 1.053Zm4.502-21.33-6.828-4.17 6.828 4.17ZM37.6 49.108l7.973-.656-.784-9.541-9.25 2.467 2.061 7.73Zm-25.714 6.858-2.062-7.73 2.062 7.73ZM8.535 54.1l7.656-2.32-7.656 2.32Zm.894-2.937 5.064 6.193-5.064-6.193Zm12.528-26.097-6.736-4.316 6.736 4.316Zm13.658-1.518-5.383 5.918 5.383-5.918Zm-.059 3.41L30.4 20.843l5.156 6.117Zm-12.812 1.247 3.567-7.16-3.567 7.16ZM66.426 3.141C61.044.254 55.568-.666 50.315.475c-5.116 1.11-9.164 3.988-12.207 7.163-5.911 6.169-9.314 14.773-10.785 20.59l15.511 3.924c1.111-4.393 3.565-10.04 6.826-13.444 1.545-1.612 2.914-2.351 4.05-2.598.997-.216 2.608-.235 5.154 1.13l7.562-14.1Zm12.137 34.605c.633-4.6 1.593-11.06.527-17.183-1.181-6.79-4.826-13.218-12.664-17.422l-7.563 14.1c2.997 1.607 4.022 3.521 4.464 6.065.559 3.211.098 7.078-.615 12.26l15.851 2.18Zm-.269 10.332c-.164-.082-.208-.129-.192-.114a.282.282 0 0 1 .025.028l.016.02a1.727 1.727 0 0 1-.096-.243 5.055 5.055 0 0 1-.172-.885c-.238-2.013.086-4.76.688-9.138l-15.85-2.18c-.515 3.735-1.256 8.724-.727 13.196.598 5.062 2.959 10.53 9.153 13.627l7.155-14.31Zm10.287 2.248c-3.475.172-6.951-.58-10.287-2.248l-7.155 14.31c5.643 2.823 11.844 4.236 18.235 3.919l-.793-15.98Zm23.08-16.106c-7.713 11.57-16.144 15.762-23.08 16.106l.793 15.98c13.287-.658 25.876-8.624 35.6-23.21l-13.313-8.876Zm16.995 11.129c.886-2.105 1.806-4.425 2.527-6.505.36-1.037.7-2.099.963-3.093.227-.858.542-2.184.588-3.556.019-.594.035-2.072-.618-3.718-.816-2.061-2.972-4.803-6.832-5.21-2.828-.297-4.886.931-5.506 1.32a11.883 11.883 0 0 0-1.994 1.596c-1.672 1.639-3.707 4.413-6.123 8.037l13.313 8.875c1.171-1.756 2.095-3.065 2.807-4.01.354-.47.636-.825.853-1.082.108-.128.191-.223.253-.29.063-.07.093-.1.093-.1l-.035.034-.111.096c-.093.076-.286.23-.57.408-.268.167-2.044 1.304-4.656 1.029a7.754 7.754 0 0 1-4.278-1.865 7.646 7.646 0 0 1-2.088-2.943c-.557-1.407-.505-2.543-.499-2.706.016-.51.098-.62-.064-.012a27.92 27.92 0 0 1-.613 1.948c-.568 1.64-1.347 3.616-2.157 5.54l14.747 6.207Zm1.72-17.047c-3.205-.976-5.932.03-7.384.784-1.504.78-2.707 1.826-3.566 2.67-1.749 1.722-3.397 3.95-4.797 6.048l13.307 8.884c1.196-1.792 2.129-2.953 2.712-3.526.308-.303.209-.132-.282.123-.439.228-2.244 1.055-4.648.324l4.658-15.307Zm-4.971 34.125c2.424-3.786 5.77-9.386 8.132-14.302 1.138-2.368 2.29-5.067 2.858-7.505.263-1.125.608-3.017.255-5.08-.421-2.455-2.105-5.97-6.274-7.238l-4.658 15.307c-3.361-1.023-4.585-3.89-4.839-5.369-.186-1.089.034-1.679-.066-1.253-.155.666-.672 2.074-1.697 4.208-1.964 4.087-4.925 9.075-7.185 12.603l13.474 8.629Zm11.182-25.734c-2.846-1.565-5.655-1.231-7.383-.718-1.679.497-3.042 1.345-3.978 2.015-1.903 1.362-3.7 3.212-5.181 4.899-3.053 3.477-6.108 7.817-8.088 10.869l13.422 8.709c1.764-2.718 4.345-6.351 6.689-9.02 1.217-1.387 2.061-2.153 2.471-2.447.221-.158-.067.1-.785.314-.768.228-2.73.58-4.878-.602l7.711-14.02ZM83.623 109.3c21.172-4.587 36.297-20.564 45.408-34.556 4.626-7.103 7.962-14.083 9.932-19.591.97-2.711 1.706-5.332 2.03-7.578.155-1.072.283-2.491.101-3.965-.113-.916-.667-4.805-4.507-6.917l-7.711 14.02a7.335 7.335 0 0 1-3.102-3.272 6.165 6.165 0 0 1-.559-1.868c-.068-.55.007-.729-.057-.286-.113.784-.479 2.294-1.259 4.476-1.532 4.28-4.299 10.142-8.276 16.25-8.094 12.43-20.171 24.353-35.388 27.65l3.388 15.637Zm-62.24-25.087c.88 6.63 3.517 12.287 7.755 16.731 4.174 4.378 9.52 7.187 15.271 8.858 11.312 3.288 25.296 2.513 39.214-.502l-3.388-15.637c-12.728 2.758-23.7 3.002-31.36.775-3.734-1.085-6.377-2.667-8.158-4.535-1.717-1.802-3.002-4.248-3.473-7.796l-15.861 2.106Zm5.604-26.552c-1.416 2.32-3.462 5.61-4.752 10.07-1.312 4.54-1.735 9.835-.852 16.482l15.86-2.106c-.639-4.817-.24-7.844.363-9.932.626-2.167 1.592-3.81 3.037-6.177l-13.656-8.337Zm2.64-7.898c.141 1.71-.089 2.828-.43 3.77-.41 1.131-1.038 2.208-2.21 4.128l13.656 8.337c2.315-3.791 5.629-9.055 4.931-17.546l-15.946 1.311ZM13.949 63.696l25.715-6.858-4.123-15.46-25.715 6.858 4.123 15.46ZM.878 56.42a10.76 10.76 0 0 0 13.07 7.276l-4.123-15.46a5.24 5.24 0 0 1 6.366 3.544L.879 56.42Zm3.487-11.45A10.76 10.76 0 0 0 .879 56.42l15.312-4.64a5.24 5.24 0 0 1-1.698 5.576L4.365 44.97Zm25.65-20.973L4.365 44.97l10.128 12.386 25.65-20.973-10.128-12.386ZM28.78 12.794c-7.274 0-11.68 5.024-13.559 7.956l13.473 8.631c.112-.175.234-.336.354-.47.121-.133.21-.205.248-.233.036-.025 0 .007-.11.046-.121.043-.268.07-.406.07v-16Zm12.218 4.836c-2.47-2.246-6.654-4.836-12.218-4.836v16c.223 0 .44.047.685.158.268.12.538.306.767.514L40.998 17.63Zm-.286 15.445c4.796-4.042 4.871-11.274.286-15.445L30.232 29.466c-2.517-2.29-2.49-6.384.168-8.624l10.312 12.233ZM28.78 37.497c5.332 0 9.422-2.306 11.932-4.422L30.4 20.842c-.485.409-1.052.655-1.62.655v16Zm-9.603-2.131c2.442 1.217 5.684 2.131 9.603 2.131v-16c-1.405 0-2.208-.323-2.47-.453l-7.133 14.322ZM15.22 20.75c-2.993 4.672-1.953 11.673 3.956 14.616l7.134-14.322c3.538 1.763 3.947 5.895 2.383 8.337l-13.473-8.63Z" fill="#fff" mask="url(#a)"/><path d="M38.896 51.414c0-.756.13-1.465.621-2.08.077-.095.376-.578.382-.296.016.696-.206 1.306-.369 1.973-.139.57-.345 1.113-.519 1.673-.067.215-.193.396-.193.622v.347c0 .283.305-.478.464-.712.505-.744 1.028-1.46 1.51-2.222.51-.808 1.04-1.647 1.693-2.35.196-.21.492-.41.64-.66.133-.228.007.28 0 .326-.264 1.51-.925 3.006-1.334 4.486-.135.484-.405.948-.502 1.437-.028.138-.078.556-.078.416 0-.39.43-.829.635-1.124.655-.941 1.307-1.877 1.93-2.84.662-1.021 1.531-2.078 2.024-3.199.063-.141.512-1.166.721-1.166.152 0-.226 2.648-.249 2.817-.092.686-.156 1.395-.12 2.09.009.161.212.799.27.647.576-1.497 1.178-2.923 1.952-4.336.312-.571.554-1.097.789-1.699.077-.197.192-.383.309-.557" stroke="#C6C6C8" stroke-width="2.5" stroke-linecap="round"/><path d="M11.812 55.183c0-1.647-.204-3.4.196-4.999.066-.265.117-.296.305-.087.495.55.973 1.184 1.341 1.826.327.57.669 1.146.954 1.74.17.353.466.654.616 1.008.019.044.12.246.12.12 0-.507.055-.973.142-1.472.18-1.025.445-2.102.54-3.14.053-.593.141-1.177.207-1.767.026-.236.092-.444.092-.687 0-.373.126.16.158.251.587 1.629.88 3.523 1.729 5.048.42.755.378-.704.43-.992.318-1.764 1.018-3.492 1.216-5.277.066-.596.261-4.18.294-4.777.01-.178.055-.694.104-.523.154.54.421 4.042.561 4.602.404 1.615.706 3.253 1.025 4.885.086.438.193.996.393 1.395.092.186.076-.587.076-.632a30.02 30.02 0 0 1 .294-3.925c.286-1.979.458-4.04.927-5.986.11-.454.055-.961.055-1.428 0-.33.12.046.152.163.205.73.408 1.476.654 2.192.768 2.233 1.624 4.56 2.137 6.869.1.446.393 1.77.393 1.314V46.21c0-2.41-.056-4.956.469-7.316.02-.094.024-.698.07-.567.26.728.463 1.526.638 2.279.301 1.292.715 2.558.927 3.87.127.784.232 1.578.447 2.345.208.74.378 1.5.638 2.224.197.547.518 3.032.73 3.564.044.11.006-.236.006-.354V47.66c0-2.91-.14-5.773-.289-8.673-.027-.533-.202-1.06-.202-1.587 0-.349.091-.84-.076-1.155-1.573-2.971 2.736 6.142 4.198 9.169.299.62.432 1.26.61 1.919.052.193.55 1.46.567.665.06-2.852.08-5.718.098-8.57.006-.994.236-2.334-.076-3.303a13.56 13.56 0 0 1-.409-1.69c-.026-.142-.005-.303-.005-.447 0-.29-.157-.502-.191-.78-.054-.428-.08-.847-.104-1.28-.021-.41.326.604.404.751.795 1.517 1.509 3.107 2.616 4.427.611.728 1.272 1.399 1.788 2.202.429.667.57 1.425.736 2.187.23 1.044.344 2.028.344 3.096v1.908c0 .106.1.987.196.987.073 0 .008-.147.022-.218.084-.432.183-.864.283-1.293.385-1.646.82-3.298 1.287-4.922.296-1.03.635-2.047.861-3.096.068-.314.295-.658.295-.976 0-.245-.045-.197.043-.006.291.633.559 1.28.84 1.92.455 1.035.996 2.099 1.69 2.997.574.745.57-.364.643-.86.068-.47.202-.96-.044-1.402-.403-.726-1.787-1.255-2.486-1.619-1.817-.947-3.506-2.152-4.59-3.925-.295-.484-.425-1.052-.708-1.548-.252-.44-.596-.833-.824-1.287-.034-.07-.36-.738-.501-.681-.084.033-.145.458-.158.507-.199.71-.343 1.428-.502 2.148-.395 1.79-.778 3.615-1.346 5.358a19.95 19.95 0 0 0-.987 6.248c0 .93-.12 1.842-.098 2.774.029 1.276 1.424-.256 1.668-.588 1.274-1.734 1.721-3.686 2.159-5.746.12-.565.037-1.23.49-1.592" stroke="#FFD424" stroke-width="2.5" stroke-linecap="round"/><path d="M32.657 44.307v-2.97c0-.661-.006-1.323 0-1.984.01-.936.324-1.785.437-2.7.113-.915.294-1.9.294-2.807 0-.507.188.191.234.34.362 1.186.778 2.395.99 3.619.197 1.14.305 2.279.624 3.395.165.578.463 1.408.847 1.878.412.504.863.991 1.254 1.503.184.24.428.499.64.71.14.14.382.157.528.295.183.173.697.572.959.31.454-.455.444-1.767.482-2.34.086-1.291.282-2.54.457-3.818.121-.885.23-1.608-.294-2.37-.121-.176-.767-1.451-.31-.68.46.775.933 1.508 1.335 2.32.32.649.584 1.41 1.025 1.99.419.55.818.993 1.096 1.618.148.333.302.71.64.889.407.215.75-.386 1.188-.386" stroke="#FFD424" stroke-width="3" stroke-linecap="round"/><path d="M22.56 25.454v1.17c0 .193-.009.514.165.65.08.063.515-1.156.536-1.221.344-1.062.58-2.157.85-3.238.05-.2.099-.655.28-.79.037-.028.1.534.102.567.04.59.124 1.175.153 1.766.031.663.162 1.317.228 1.977.047.456.082.926.156 1.379.036.222.05.642.186.83.087.12.136.427.142.08.018-1.212.452-2.463.723-3.633.21-.909.414-1.829.65-2.73.074-.286-.016-.745.127-1.002.076-.138.082.018.104.11.102.424.148.858.2 1.29.073.591.145 1.183.201 1.775.046.482.007.967.054 1.45.097.985.28 1.934.28 2.926M47.834 27.132c0-1.037.167-2.096.432-3.1.04-.15.108-.596.24-.703.057-.045.665 1.81.701 1.944.262.974.392 1.975.531 2.972.035.246.083.979.127.735.05-.28.049-.57.105-.854.181-.918.457-1.79.746-2.68.403-1.246.932-2.6 1.03-3.928.005-.05.005-.502.043-.364.279 1.003.672 1.967.927 2.978.38 1.51.624 3.036.816 4.573.018.142.048.264.048.41v-1.079c0-1.045.092-2.09.192-3.13.011-.113.084-.56-.04-.622" stroke="#171717" stroke-width="2.5" stroke-linecap="round"/><path d="M51 74c0 1.99 2.313 3.784 3.577 5.048.303.303-.034-.618-.069-.77-.06-.264-.694-1.75-.205-1.163 1.071 1.285 2.261 2.444 3.285 3.782.764.997 1.333 2.132 2.105 3.114.08.1.773.967.693.53-.155-.852-.438-1.676-.607-2.524-.248-1.237.842.218 1.24.616 1.03 1.03 1.945 2.124 2.91 3.21.12.134.684 1.075.616.461-.1-.905-.53-1.89-.83-2.746-.358-1.024-.18-.514.316.068 1.232 1.446 2.53 2.803 3.688 4.321.466.61.862 1.3 1.42 1.797.025.022-.049-1.335-.085-1.575-.074-.488-.063-1.044-.034-1.54.018-.313 1.844 1.63 2.036 1.849.812.927 1.538 1.907 2.276 2.892.137.182.154-1.69.154-1.969 0-.043-.086-3.063.086-3.063.24 0 1.304 1.796 1.531 2.062.504.592.925 1.208 1.54 1.686 1.222.95.799-2.985.925-3.44.24-.862.678.568.77.822.215.598.459 1.063.847 1.548.43.539 2-1.615 2.31-1.925" stroke="#C6C6C8" stroke-width="3" stroke-linecap="round"/><path d="M35.08 30.19c2.582-10.21 11.71-28.503 27.566-20 19.819 10.63-1.622 38.197 12.071 45.044 4.49 2.244 9.328 3.327 14.261 3.082M35.08 30.19 9.43 51.163a2.76 2.76 0 0 0-.894 2.937v0a2.76 2.76 0 0 0 3.352 1.866l25.714-6.858M35.08 30.19c1.407-.846 4.422-1.707 5.22 1.614.552 2.296 6.574 4.528 8.028 7.622m-10.726 9.682c1.08 13.152-10.99 13.693-8.288 34.052 2.703 20.359 25.97 24.095 52.616 18.321 36.389-7.884 54.406-55.797 50.802-57.778-2.882-1.586-10.81 9.308-14.413 14.954 4.624-7.147 13.044-21.693 9.729-22.702-3.315-1.009-10.75 12.432-14.053 19.279l6.666-11.531c3.543-8.168 8.036-20.612-2.342-5.045-8.719 13.078-19.229 19.157-29.34 19.658m-51.377-9.208c10.093-4.116 11.902-7.18 10.726-9.682m40.65 18.89c2.242 2.882 8.409 9.34 15.32 12.382.172.075.355.134.536.184 6.44 1.768 3.805 7.46-22.904-3.426 6.51 2.236 19.247 7.841 18.113 12.38-1.135 4.54-13.627.087-19.732-2.708 2.924 1.849 8.46 6.242 7.222 9.028-1.547 3.482-22.697 3.582-37.012-13.67m-2.193-33.06L9.31 55.233" stroke="#171717" stroke-width="1.5" stroke-linecap="round" stroke-linejoin="round"/><path d="M54.359 20.793c-3.24 0-5.534 2.26-6.823 4.272-.714 1.115-.398 2.549.787 3.14 1.352.673 3.374 1.291 6.036 1.291 2.95 0 5.278-1.276 6.776-2.538 1.069-.901 1.093-2.47.059-3.411-1.496-1.36-3.846-2.754-6.835-2.754ZM28.78 20.794c-3.24 0-5.533 2.26-6.822 4.272-.714 1.115-.398 2.549.787 3.14 1.351.672 3.374 1.291 6.036 1.291 2.95 0 5.278-1.276 6.776-2.538 1.069-.901 1.093-2.47.059-3.411-1.496-1.36-3.846-2.754-6.835-2.754Z" stroke="#171717" stroke-width="1.5"/><path d="M131.929 45.948c0 4.05.615 8.496-1.675 12.095-2.311 3.631-4.204 7.28-7.257 10.42-1.934 1.989-3.409 4.375-5.303 6.408-1.178 1.266-2.179 2.63-3.214 4.011-.816 1.088-1.491 2.194-2.461 3.163-1.071 1.072-2.397 2.04-3.349 3.205-1.009 1.234-2.346 2.261-3.535 3.318-1.153 1.024-2.163 2.32-3.163 3.483-1.27 1.476-3.358 1.79-5.024 2.647-1.026.527-1.997 1.158-2.977 1.757-.942.576-1.707 1.332-2.791 1.633-2.163.6-4.153 1.74-6.368 2.233-5.75 1.278-11.466 2.936-17.407 2.936-1.552 0-3.156-.121-4.693.093-1.717.238-3.476.651-5.21.651-2.116 0-4.46.286-6.513-.227-1.189-.298-2.46-.596-3.618-.982-.968-.323-2.032-.946-3.039-1.024-2.36-.181-4.157-1.7-6.181-2.75-.995-.515-4.094-1.552-4.094-2.832 0-1.279-3.332-6.397-3.332-7.618" stroke="#171717" stroke-linecap="round"/><path d="M37.385 49.572c0 2.353.125 4.576-.535 6.848-.402 1.386-.553 2.959-1.174 4.249-.647 1.345-1.142 2.738-1.834 4.07-.285.548-.825.805-1.203 1.27-.267.328-.56.723-.87 1.01-.6.557-1.033 1.733-1.403 2.473-.877 1.754-1.23 3.978-1.642 5.882-.267 1.239.03 2.641-.133 3.907-.174 1.347.006 2.573.341 3.848.308 1.167.66 2.283.862 3.476.089.523.179 1.068.342 1.574.12.377.414.561.564.899.103.232.43.324.594.535.244.313.163 1.28.208 1.663.11.94.692 1.66.929 2.488.366 1.281 1.238 1.969 2.012 3.001" stroke="#171717" stroke-linecap="round"/><path d="M38.051 29.517H36.18c-.633 0-1.017.397-1.604.565-1.431.409-2.08 1.92-3.075 2.845-1.16 1.078-2.117 2.285-3.208 3.409-.927.953-1.989 1.645-3.001 2.473-1.113.91-2.31 1.786-3.283 2.867-.79.877-1.72 1.88-2.837 2.31-1.893.728-3.97 2.175-5.452 3.58-.29.274-.658.406-.935.668-.235.221-.55.624-.803.773-.667.392-.871 1.147-1.27 1.767-.478.745-1.537 1.172-1.537 2.14 0 .667.128 1.46.468 2.072.625 1.124 3.596 1.002 4.716 1.002 2.157 0 4.669-.8 6.477-2.005.877-.585 1.912-.75 2.911-.966 1.415-.306 2.845-.512 4.278-.772 1.346-.245 2.686-.405 4.011-.773 1.601-.444 3.15-1.142 4.746-1.634 1.5-.461 2.787-1.304 4.145-2.072 1.387-.784 2.675-1.752 4.077-2.473 1.431-.736 3.283-1.667 3.714-3.342.264-1.027.357-1.642 0-2.57-.365-.95-1.202-1.856-2.11-2.31-.941-.47-2.049-1.087-2.807-1.805-.815-.772-1.845-1.238-2.466-2.213-.512-.805-.62-1.921-1.01-2.8-.445-1-1.425-1.408-2.377-1.701-1.57-.483-3.925.123-4.842 1.5" stroke="#171717" stroke-linecap="round"/><path d="M35.898 28.373c0-2.974.263-5.22 1.897-7.773 1.222-1.909 2.482-4.744 4.311-6.181.75-.589 1.618-1.104 2.268-1.804.685-.738 1.498-1.14 2.15-1.791 1.51-1.51 4.318-1.767 6.313-2.016 1.717-.215 4.274-.318 5.93.172 2.119.628 4.735.232 6.685 1.486 2.762 1.775 3.817 5.427 4.775 8.41 1.372 4.268.53 8.958.53 13.317 0 3.311-1.432 6.38-1.432 9.67v4.231c0 1.195.115 2.909.664 4.006 1.132 2.264 3.132 3.95 5.305 5.253M75.537 55.591c3.342 0 6.207 2.627 9.604 2.627h4.483c2.293 0 4.516-1.427 6.686-2.03 3.994-1.11 9.194-1.85 11.991-5.372 1.235-1.556 2.899-2.608 4.298-4.006 1.412-1.413 2.144-3.389 3.409-4.934 1.006-1.23 1.76-2.844 2.626-4.192.756-1.176 2.575-2.19 3.595-3.21.534-.535 1.055-1.203 1.658-1.671.811-.632.597.92.597 1.3 0 1.512-1.552 3.706-2.388 4.96-.853 1.28-1.624 2.456-2.626 3.635-.483.567-.911 1.856-1.194 2.573-.4 1.011-.863 1.906-1.3 2.905-.898 2.052-1.804 4.999-1.804 7.176" stroke="#171717" stroke-linecap="round"/><path d="M132.124 48.668v-2.865c0-1.23-.202-1.262-1.433-1.194-1.301.073-3.718 2.785-4.297 3.82-.569 1.018-1.457 2.173-2.269 2.985-.821.822-1.234 2.106-2.162 2.865-1.141.934-2.612 2.471-3.157 3.887-.159.413-1.555 2.365-1.008 1.432.89-1.517 1.678-3.07 2.613-4.59.987-1.603 2.399-2.87 3.462-4.416 1.189-1.73 2.885-3.02 3.489-5.134.53-1.854 1.419-3.56 1.419-5.624v-2.626c0-1.135-1.205-.955-2.029-.955-1.056 0-1.555.44-2.388 1.087-3.255 2.532-4.788 7.292-6.327 10.85M89.624 58.457c1.817 1.817 3.187 3.951 5.253 5.545 1.392 1.074 2.598 2.3 3.953 3.409 2.162 1.769 5.179 2.46 7.627 3.82.769.427 1.782 1.09 1.194 2.149-.499.897-2.367.835-3.277.835-3.299 0-6.787-.821-9.975-1.618-3.163-.79-6.785-1.435-9.67-3.037-1.338-.744-2.695-1.394-4.072-2.083-.34-.17-.719-.562-.053-.371 1.369.39 2.689.912 3.993 1.498 3.413 1.537 6.838 2.994 10.266 4.537 1.805.812 4.57 2.181 5.041 4.298.498 2.24-.008 3.764-2.162 4.841-1.718.859-5.077-.648-6.686-1.273-1.791-.697-3.608-1.115-5.438-1.725-1.306-.435-2.514-.997-3.82-1.432-.69-.23-1.445-.497-2.096-.822-1.232-.617 1.12 1.036 1.46 1.246.648.403 9.017 6.533 7.149 7.986-.682.53-4.006 1.91-4.89 1.91-2.685 0-4.412-1.3-7.115-1.3-2.306 0-4.74.263-6.977-.358-2.002-.556-2.895-1.766-4.874-2.36-2.53-.758-3.753-2.518-6.068-3.676-1.232-.616-3.002-1.918-3.82-3.037-1.27-1.737-3.612-2.428-3.612-4.842M9.77 54.807c.641 0 1.394-.287 1.988-.502.935-.337 1.807-.81 2.694-1.254.78-.39 1.517-.827 2.276-1.254.71-.4 1.517-.633 2.22-1.022.549-.303 1.229-.404 1.84-.566.866-.23 1.736-.367 2.591-.67a94.502 94.502 0 0 0 5.974-2.34c1.934-.836 3.926-1.492 5.918-2.174 1.304-.447 2.692-1.013 3.91-1.654.957-.502 1.984-.79 2.946-1.254 1.218-.587 2.589-1.006 3.93-1.254.406-.075 1.472-.372 1.672-.771M46.764 26.43c0-.9.835-1.778 1.34-2.45.469-.625 1.201-1.033 1.818-1.496.586-.44 1.432-.845 2.127-1.081 1.12-.38 2.196-.749 3.4-.773 1.132-.024 2.375-.27 3.43.257.636.318 1.085.904 1.547 1.418.377.418.751.877 1.046 1.368.193.322.801.991.616 1.403-.674 1.496-1.953 3.025-3.645 3.401-.9.2-1.745.54-2.657.674-1.083.157-2.135.35-3.236.307-1.051-.04-2.083-.374-3.08-.658-.248-.071-.542-.293-.758-.437-.188-.125-.43-.23-.595-.387-.139-.132-1.809-1.254-1.353-1.482M36.322 23.917c-.36 0-.663-.216-.96-.401a41.435 41.435 0 0 1-1.36-.888c-.684-.464-1.26-.893-2.062-1.16-.908-.303-1.773-.666-2.721-.852-.422-.083-.86-.05-1.289-.05-.522 0-.933.15-1.436.261-.85.19-1.916.728-2.542 1.353-.275.276-.583.544-.84.838-.235.268-.383.614-.595.899-.607.816-1.275 1.41-1.275 2.481 0 .55.54 1.195.963 1.486.636.437 1.374.814 2.163.93.703.105 1.407.422 2.094.613 1.122.311 2.314.226 3.466.226.568 0 1.07-.04 1.625-.144.433-.081.798-.304 1.21-.436.862-.279 1.551-1.06 2.27-1.58.488-.352.831-.777 1.067-1.317.229-.522.24-1.086.416-1.615" stroke="#171717" stroke-linecap="round"/></svg>