<svg width="121" height="123" fill="none" xmlns="http://www.w3.org/2000/svg"><path d="M38.752 122.34c-6.98 0-13.43-1.05-19.17-3.12-10.95-3.96-17.6-12.32-18.71-23.53-1.65-16.7 9.37-34.3 20.53-41.03 9.69-5.85 19.96-8.81 30.55-8.81.39 0 .78 0 1.17.01-3.21-9-6.16-19.63-.28-29.5C58.762 6.46 67.762.99 78.202.99a31 31 0 0 1 9.92 1.64c.26.09.49.18.68.26.29.09.57.18.86.28 2.22-1.61 4.75-2.65 7.48-3.03.67-.09 1.35-.14 2.02-.14 4.21 0 8.27 1.87 11.42 5.27 2.22 2.4 3.25 5.61 2.83 8.81-.13.96-.38 1.88-.75 2.75 3.95 4.24 6.37 8.98 7.12 14.03.37 2.46 1.48 9.93-4.36 14.01-1.75 1.22-3.85 1.88-6.08 1.88-3.81 0-7.22-1.86-10.84-3.84-2.6-1.42-6.54-3.57-8.68-3.57h-.13c-.24.1-.49.2-.75.3.04.04.09.08.13.12 7.74 7.08 23.84 21.8 13.67 45.24-5.99 13.81-19.2 25.48-36.25 32.03-9.02 3.47-18.61 5.3-27.73 5.3l-.01.01Z" fill="#fff"/><path d="M80 17.292c-.24 1.623-.291 3.26-.552 4.884-.082.511-.248 1.026-.262 1.543-.003.12.058.447-.065.177-.13-.285-.159-.641-.197-.942-.095-.766-.339-1.499-.516-2.253-.348-1.485-.564-2.99-1.112-4.438-.318-.843-.203.588-.203.827V22.642c0 .226-.029.87-.327.312C75.789 21.124 75 18.82 75 16.802M102.987 10.895c0 1.1.03 2.206 0 3.306-.01.34-.19.941-.216.22-.041-1.095-.526-2.16-.973-3.134-.365-.795-.784-1.566-1.128-2.369-.235-.548-.196-.084-.252.374-.199 1.623-.241 3.26-.457 4.884-.067.511-.204 1.026-.216 1.543-.002.12.048.447-.054.177-.107-.285-.13-.641-.162-.942-.079-.766-.28-1.499-.426-2.253-.287-1.485-.466-2.99-.918-4.438-.263-.843-.168.588-.168.827" stroke="#171717" stroke-width="2.5" stroke-linecap="round"/><path d="M92.594 13.379c-.39.078-.688.554-.918.842-.68.85-1.45 1.58-2.24 2.324-.187.175-1.734 1.816-1.17.623.59-1.251 1.325-2.546 1.6-3.916.284-1.422.616.537.757 1.061.57 2.12.734 4.664.185 6.796-.142.556.464-.797.506-.859a34.143 34.143 0 0 1 3.528-4.43c.235-.25.783-1.077.716-.74-.114.568-1.366 1.542-1.752 1.937-1.748 1.788-3.23 3.773-4.783 5.726-1.181 1.485 1.108-.18 1.5-.463 2.889-2.087 5.868-4.112 8.707-6.257.403-.305.5-.223.084.11-1.082.865-2.117 1.807-3.166 2.711-2.402 2.07-4.842 4.538-6.274 7.402-.157.315-.348.61-.497.927-.182.387 1.186-.673 1.23-.708 4.038-3.205 7.45-7.09 11.351-10.442.322-.277.859-.703.228-.118-1.399 1.295-2.613 2.726-3.857 4.168-2.978 3.452-5.65 7.125-8.447 10.72-1.702 2.189 4.135-3.702 6.047-5.709 1.502-1.578 3.065-3.1 4.606-4.64.245-.245-.351.598-.547.884-1.11 1.619-2.105 3.309-3.302 4.868-.805 1.049-1.726 2.066-2.391 3.217-.555.96 1.647-.447 1.768-.523 3.292-2.057 6.343-4.709 9.087-7.452 1.806-1.807-3.354 3.865-4.826 5.954-.855 1.213-1.652 2.467-2.484 3.696-.396.587-.561.931.202.337 2.06-1.602 3.716-3.774 5.508-5.659.969-1.02 1.922-2.063 2.871-3.099 2.372-2.587-4.313 5.622-5.726 8.834-.118.27-.945 2.023-.152 1.979.807-.045 1.643-.748 2.24-1.213 1.17-.91 2.242-1.948 3.259-3.023 1.107-1.169 2.254-2.339 3.31-3.554.036-.041.465-.628.118-.202-.543.667-1.017 1.39-1.516 2.089-1.379 1.932-2.705 3.89-3.924 5.928-.153.255-1.216 2.176-.202 1.6 1.749-.993 3.27-2.531 4.8-3.823 1.416-1.196 1.623-1.35 2.934-2.661.523-.523.777-.561.438.27-.928 2.273-1.262 3.2-2.631 5.22-.678 1-1.497 2.046-2.004 3.15-.207.449 1.694-.745 1.835-.842.751-.512 1.355-1.16 2.005-1.785.405-.39-.075.497-.118.572" stroke="#FFD424" stroke-width="2.5" stroke-linecap="round"/><path d="M32 80.826v2.661c0 1.17.144-1.273.185-1.482.315-1.588.775-3.265 1.904-4.48.467-.504.34-.375.488.404.441 2.337.303 4.742.303 7.108 0 .385.018 2.013.034 1.97.698-1.954 1.07-3.966 1.633-5.962.074-.26.91-3.256.91-1.785 0 1.764.216 3.503.295 5.263.02.458-.146 2.55.328 1.263.792-2.15 1.718-4.396 2.316-6.602.104-.385.16-.797.387-1.137.352-.528.009 1.269.009 1.903 0 2.358-.116 4.705-.152 7.057-.002.17.012 1.032.118.387.17-1.034.442-1.973.792-2.964.774-2.193 1.484-4.49 2.543-6.568.624-1.225.435 2.036.412 2.299-.138 1.635-.379 3.328-.379 4.968 0 .678.117-.223.186-.42.513-1.485 1.2-2.937 1.937-4.32.196-.37 2.833-5.62 3.326-5.374.318.16.158 1.388.152 1.609-.043 1.505-.236 3.006-.37 4.505-.14 1.54-.544 6.159-.363 4.623.32-2.716 1.833-5.346 3.234-7.638.1-.165 1.593-2.584 1.431-1.414-.284 2.064-1.506 3.93-1.768 6.03-.207 1.652.498.483.977-.371 1.52-2.712 2.864-5.492 4.75-7.984.508-.672 1.27-1.537.875-.118-.573 2.057-1.429 4.068-2.147 6.08-.056.157.558-.875.623-.993.688-1.265 1.602-2.418 2.543-3.503a18.294 18.294 0 0 1 2.476-2.35c.08-.063.766-.777.766-.362 0 .702-1.156 1.67-.876 2.299.256.576 2.154-.713 2.409-.968M13.04 99v5.541c0 .188-.1.711.017.564.566-.708.826-1.766 1.196-2.585.22-.49.506-1.621.943-1.971.195-.156.54 1.461.581 1.584.488 1.432.827 2.916 1.507 4.278.08.16.639 1.253.944 1.162.513-.154.766-2.869.91-3.352.052-.178.678-1.713.715-1.474.25 1.624.201 3.309.387 4.944.044.383.403 3.993 1.44 3.065.726-.649 1.144-2.081 1.482-2.964.215-.558.364-1.566.725-2.03.389-.5.94 1.753.976 1.895.316 1.216.638 2.372 1.062 3.554.338.945.675.381.875-.337.342-1.227.659-2.505.935-3.748.064-.286.217-1.077.396-.513.42 1.319.773 2.679 1.095 4.025.165.69.326 2.365 1.094 2.729.33.156 2.43-3.744 2.72-4.278.467-.855 1.436 2.44 1.609 2.795.325.668.438.286.674-.32.388-.999.716-1.924 1.28-2.846.223-.366.542-.431.842-.067.925 1.125 1.623 2.194 2.812 3.082.315.234 1.027.913 1.5.741.582-.212.525-1.834.614-2.316.057-.307.076-1.247.076-.935v4.935M43.178 110.087c0 .158-.092.732.228.59.463-.206.227-1.746.227-2.165 0-.733.625.658.918.969.907.96 1.936 1.954 3.166 2.492 1.228.538.004-1.462 1.07-1.431.93.026 1.653.428 2.577-.034.657-.328 1.127-.902 1.819-1.179" stroke="#C6C6C8" stroke-width="2.5" stroke-linecap="round"/><path d="M75.579 16.406c2.472-.351 4.496 1.016 5.79 2.414.887.957.768 2.408-.337 3.102-1.018.639-2.492 1.27-4.45 1.547-2.21.314-4.114-.316-5.464-1.084-1.197-.681-1.441-2.222-.52-3.246 1.074-1.191 2.737-2.415 4.981-2.733ZM99.321 8.533c2.472-.351 4.496 1.016 5.791 2.414.886.957.767 2.408-.338 3.102-1.018.639-2.492 1.269-4.45 1.547-2.21.313-4.114-.316-5.464-1.084-1.197-.681-1.44-2.222-.52-3.246 1.074-1.191 2.737-2.415 4.981-2.733Z" stroke="#171717" stroke-width="1.5"/><path d="M66.38 56.275c-13.698-3.973-27.46-1.666-39.508 5.607-14.347 8.661-26.845 40.352-3.365 48.829 23.48 8.477 61.232-4.291 72.153-29.46 10.922-25.17-16.89-35.802-17.598-42.68-.442-4.29 3.929-6.174 7.652-6.835 1.595-.284 2.908-1.57 2.948-3.19l.331-13.585c.047-1.899-.96-3.706-2.757-4.32-6.558-2.245-17.562-2.404-24.922 9.938-10.709 17.96 23.524 43.683-5.674 60.908-7.644 4.3-23.54 10.334-25.974.08" stroke="#171717" stroke-width="1.5"/><path d="M82.914 9.808c8.6 1.973 27.236 9.154 29.159 22.074 2.404 16.15-14.648-6.979-26.075-.343" stroke="#171717" stroke-width="1.5"/><path d="M87.702 31.102c-1.163.165-2.518.164-3.586.665-.761.358-2.139 1.002-2.666 1.632-.656.783-1.465 1.402-2.107 2.257-.67.89-.799 1.197-.972 2.287-.106.669.118 2.525.483 3.098.621.974 1.482 1.643 2.336 2.418.838.76 1.568 1.57 2.537 2.18.957.605 1.842 1.12 2.633 1.942 1.201 1.247 2.45 2.518 3.565 3.844 1.528 1.816 2.923 3.82 3.717 6.077.4 1.138 1.13 2.61 1.91 3.53 1.703 2.01 1.732 4.475 2.09 6.996.152 1.077.213 2.01.13 3.07-.041.538-.105 1.322-.064 1.81.09 1.094-.84 2.78-1.273 3.783-.719 1.664-1.69 3.132-2.268 4.864-.505 1.51-1.146 2.741-1.849 4.143-.61 1.218-1.489 2.57-2.308 3.66-1.196 1.591-2.823 2.888-4.195 4.346-1.154 1.226-2.407 2.31-3.523 3.562-.64.718-1.387 1.356-2.152 1.942-.9.689-1.748 1.497-2.673 2.136-1.4.968-3.187 1.646-4.784 2.22-2.07.744-4.063 1.892-6.102 2.736-2.067.856-4.263 1.666-6.483 2.017-2.012.318-3.987.722-6 1.008-1.316.187-2.977.173-4.226.634-1.514.56-2.952.648-4.376 1.596a6.56 6.56 0 0 0-1.137.944c-.563.583-1.706.59-2.416.935-1.41.685-3.652.613-5.11.603-2.245-.015-4.517-.152-6.686-.765-1.457-.412-2.852-.977-4.312-1.38-2.684-.743-5.219-1.616-7.665-2.941-1.791-.971-2.9-2.369-4.228-3.855-3.504-3.923-4.142-9.613-4.111-14.626.012-2.068-.176-4.273.487-6.255.402-1.205 1.04-2.31 1.575-3.426.014-.028.153.226.171.098.034-.246-.088-.522-.083-.772.025-1.417.7-3.257 1.212-4.574.588-1.51 1.29-3.478 2.399-4.683 1.382-1.501 2.58-3.056 4.32-4.258 2.036-1.407 4.341-2.148 6.511-3.23 2.453-1.224 4.932-2.684 7.574-3.468 3.197-.949 6.508-1.512 9.666-2.581 2.478-.839 5.01-1.26 7.592-1.626 1.258-.178 2.423-.362 3.694-.21 1.005.119 2.127.33 3.137.337 1.616.01 3.166.502 4.72.705.833.109 2.886-.2 3.37.574.182.29.617.517.737.836.192.51.178 1.193.254 1.73.154 1.088-.142 2.415-.25 3.516-.3 3.075-1.491 6.462-2.924 9.185-.308.585-.423 1.247-.75 1.83-.38.674-.94 1.239-1.34 1.904-.832 1.384-1.893 2.283-3.231 3.164-2.128 1.403-4.284 2.913-6.535 4.104-1.916 1.013-3.625 1.532-5.778 1.838-2.242.318-4.54 1.09-6.82 1.046-1.206-.023-2.124-.414-3.278-.71-.979-.25-2.078-.372-2.98-.83-1.523-.773-6.37-2.93-3.4-4.772 1.94-1.205 3.563-2.798 5.631-3.845.575-.29 1.118-.616 1.726-.837.233-.084 1.628-.422.844-.31-3.314.47-6.814 2.383-7.542 5.838-.514 2.44 1.823 4.958 4.196 5.286" stroke="#171717" stroke-linecap="round"/><path d="M66.542 55.25c-.66-4.652-.674-9.937-3.033-14.135-1.87-3.33-2.873-6.866-3.304-10.651-.114-1.007.262-2.119.421-3.105.19-1.178.568-2.292.806-3.456.45-2.192 1.294-4.27 2.7-6.056.656-.835 1.027-1.834 1.92-2.465.872-.616 1.753-1.267 2.635-1.853 1.547-1.03 3.085-1.735 4.923-2.039 2.003-.33 3.96-.875 5.978-1.162.895-.127 2.016-.483 2.92-.335.681.11 1.413.418 2.059.656 1.149.423 2.177 1.12 3.22 1.718 1.05.601 1.18 1.592 1.59 2.68 1.312 3.492-.528 7.086-.726 10.588-.168 2.985-1.12 5.99-3.974 7.307" stroke="#171717" stroke-linecap="round"/><path d="M87.192 12.068c.877-.124 1.77.339 2.592.607.973.317 1.857.686 2.803 1.055 1.188.462 2.178 1.352 3.395 1.789 1.24.445 2.528 1.22 3.713 1.822.957.486 1.952.67 2.841 1.32.583.425 1.147 1.029 1.763 1.386 1.103.638 1.894 1.768 2.734 2.709.806.902 1.454 1.785 2.12 2.797 1.347 2.046 1.652 5.018 1.989 7.392.117.828.916 4.634-.85 4.497-1.306-.102-2.508-1.159-3.77-1.492-1.253-.332-2.563-.769-3.725-1.351-3.126-1.567-6.784-1.632-10.063-2.792-2.51-.887-4.913-1.177-7.512-.509M82.023 19.292c-.388-.345-.91-.689-1.34-.992-.763-.54-1.602-.994-2.437-1.412-1.068-.534-2.289-.944-3.472-.55-.596.2-1.068.657-1.61.958-.628.349-1.255.729-1.82 1.172-.438.343-.765.81-1.118 1.236-.178.214-.746.58-.412.824.423.309.733.843 1.084 1.232.463.515 1.113.86 1.682 1.24 1.531 1.02 3.63.916 5.39.893 1.393-.02 2.44-1.169 3.293-2.13.448-.503.828-1.24.828-1.922M93.51 12.794c-.622-.776 1.501-2.273 2.001-2.648 1.153-.864 2.524-1.496 3.91-1.88 1.222-.34 2.57.332 3.622.858.465.233.893.625 1.261.98.33.318.819.487 1.006.953.24.6.811 1.509.477 2.214-.225.474-1.08.94-1.552 1.096-.844.282-1.637.652-2.474.954-1.97.709-4.447.897-6.06-.715" stroke="#171717" stroke-linecap="round"/></svg>