<svg width="122" height="146" fill="none" xmlns="http://www.w3.org/2000/svg"><path d="M41.759 20.838c-4.876.677-8.587 1.993-11.223 4.49-2.66 2.52-3.64 5.706-4.278 8.6-.226 1.026-.423 2.075-.627 3.159-.921 4.897-1.97 10.476-6.356 17.533-5.772 3.712-9.803 7.735-12.164 12.33-2.5 4.868-2.909 9.952-2.106 15.168.787 5.12 2.764 10.514 5.168 16.168 1.211 2.847 2.563 5.833 3.967 8.932l.048.106c1.396 3.081 2.849 6.288 4.31 9.672 17.175 39.786 73.203 26.317 72.487-12.357-.151-8.146.836-13.762 2.36-17.915 1.509-4.107 3.623-7.005 6.083-9.644 1.062-1.138 2.262-2.278 3.533-3.484 4.431-4.206 9.717-9.225 12.939-17.817 4.632-12.352-2.178-23.889-10.142-32.177-8.118-8.45-18.635-14.864-24.699-17.559-3.85-1.711-7.314-1.595-10.557-.244-2.71 1.13-5.22 3.133-7.472 4.933l-.404.321C57.725 14.96 51.98 19.42 41.76 20.838Z" fill="#fff" stroke="#fff" stroke-width="8"/><path d="M59.118 39.565c1.703 0 3.584.91 5.059 1.638 5.165 2.552 9.87 6.024 14.652 9.212 1.91 1.272 4.047 2.5 5.76 4.04.716.646 3.08 1.973 2.115 1.973-1.247 0-3.134-1.424-4.168-1.972-3.16-1.676-6.444-2.996-9.546-4.805-2.499-1.458-5.176-2.66-7.636-4.137-.941-.564-5.32-4.019-2.18-1.925 3.045 2.03 7.195 3.661 9.546 6.555 1.608 1.98 3.968 3.84 5.934 5.457.881.724 1.789 1.409 2.8 1.94.417.22 1.362.792.16.574-6.12-1.113-11.328-5.384-17.04-7.525-1.393-.523-2.892-.674-4.311-1.162-.83-.285-2.64-.795-3.277-1.432-.33-.33-.049-.88-.223-1.272-.496-1.116-1.53-2.025-2.227-3.023-.157-.225-2.107-2.038-.955-1.782 3.208.713 6.505 3.071 9.26 4.741 5.005 3.035 9.939 6.058 14.747 9.37 1.687 1.163 3.67 2.416 4.853 4.137.318.463.926.93 1.447 1.161.108.048.806.684.653.796-1.279.93-5.716-1.803-6.81-2.291-3.45-1.542-6.577-3.616-9.736-5.664-2.46-1.594-5.305-2.637-8.018-3.723-1.837-.734-3.714-1.319-5.441-2.29-.225-.127-2.504-1.796-2.387-1.846.502-.215 1.734.368 2.164.54 3.66 1.47 7.127 3.585 10.58 5.474 4.654 2.545 9.295 5.114 13.936 7.684 1.495.828 3.244 1.56 4.503 2.752.817.774-3.55-.867-3.85-.986-6.205-2.447-12.49-4.806-18.296-8.114-3.188-1.816-6.368-3.617-9.514-5.504-1.496-.898-3.035-1.603-4.28-2.848-.137-.138-1.048-.875-.938-.875 3.521 0 7.499 3.34 10.389 5.011 5.327 3.082 10.543 6.218 15.702 9.578 3.905 2.542 7.618 5.161 11.773 7.238 1.127.564-1.215.197-1.56.16-4.053-.451-8.052-1.805-11.9-3.087-3.25-1.083-6.763-1.99-9.577-4.025a105.279 105.279 0 0 1-6.014-4.693c-1.6-1.345-2.717-3.343-4.31-4.582-.275-.213-.69-.322-1.003-.51-1.687-1.012 3.724 1.295 5.504 2.133 8.288 3.9 16.895 7.359 24.15 13.045.993.778 1.93 1.898 2.833 2.8.504.504-5.496-.24-5.919-.334-6.012-1.33-12.043-2.732-17.675-5.282-6.32-2.862-11.145-7.036-16.561-11.152-5.733-4.357 12.906 6.389 19.377 9.545 5.991 2.923 12.136 5.633 18.025 8.75.098.052 2.007 1.146 1.591 1.146-.527 0-1.25-.44-1.734-.605-1.772-.605-3.532-1.24-5.314-1.813-5.15-1.66-10.427-3.267-15.4-5.41-4.425-1.906-8.26-4.674-12.25-7.318-.373-.247-2.45-1.997-1.845-1.368 1.655 1.722 3.068 3.287 5.186 4.582 7.834 4.787 16.402 8.837 24.628 12.95.99.495 1.974.961 2.895 1.575.143.095 2 .843 1.527.843-.587 0-1.276-.482-1.766-.731-2.184-1.115-4.451-2.043-6.697-3.023-5.044-2.201-10.255-3.978-15.273-6.237-3.095-1.392-6.167-3.272-8.719-5.44-.687-.585-1.731-1.197-2.561-1.56-1.194-.522.175-.471.748-.254 4.341 1.646 8.486 4.081 12.663 6.093 4.099 1.973 8.122 4.071 12.171 6.14 1.815.928 3.333 2.097 5.043 3.103.41.241 2.808 2.294 2.228 2.45-1.57.423-4.485-.987-5.966-1.368-4.721-1.214-9.277-2.812-13.698-4.868-5.43-2.526-9.57-5.857-13.316-10.437-.184-.225-.159-.405.175-.238 1.543.771 2.934 2.049 4.359 3.006 6.594 4.43 13.895 7.943 21.096 11.264 3.357 1.549 6.853 2.808 10.15 4.487.14.071 1.909 1.203 1.782 1.304-.247.198-1.088.07-1.337.064-2.259-.05-4.472-.524-6.666-1.034-6.032-1.404-12.057-3.187-17.834-5.425-4.71-1.825-8.83-4.352-12.727-7.541-1.138-.93-3-1.81-3.866-3.023-.194-.27.55-.133.588-.127 1.124.18 2.124.906 3.087 1.463 4.194 2.43 8.472 4.716 12.695 7.096 3.978 2.242 7.864 4.821 12.091 6.586 1.522.636 3.435 1.074 4.805 2.005.357.243.158.28-.191.223-1.85-.303-3.668-.878-5.457-1.416-6.89-2.074-13.81-4.099-20.539-6.666-1.947-.743-4.312-1.826-5.95-3.166-.249-.204-1.122-1.009-.239-.541 7.338 3.884 15.375 6.544 22.862 10.134 1.553.745 3.165 1.296 4.71 2.068 2.125 1.063.382.82-1.05.382-5.126-1.564-10.103-3.567-15.274-5.011-4.646-1.299-7.276-2.538-11.825-4.153-2.526-.896.76.188 1.182.319 6.421 1.981 12.616 4.58 18.852 7.063 3.816 1.52 7.732 2.921 11.487 4.423 4.556 1.822-9.85-.85-14.541-2.29-2.552-.785-5.21-1.728-7.589-2.944-.912-.467-4.053-1.38-4.39-2.562-.042-.144 5.254.629 5.647.716 2.345.521 4.46 1.323 6.586 2.387 2.63 1.315 5.275 2.903 8.05 3.897 1.823.654 4.404 1.719 6.3 1.719" stroke="#FFD424" stroke-width="2.5" stroke-linecap="round"/><path d="M45.24 134.9h7.566c1.462 0-1.047-2.008-1.358-2.328-2.83-2.912.566-.838 2.134.194 1.897 1.249 4.27 3.245 6.574 3.664 1.816.33.354-.769-.474-1.617-.5-.51-3.535-2.972-3.535-3.578 0-.246 5.183 1.189 5.69 1.337.376.109 2.787.885 2.414.69-1.627-.857-3.865-1.883-5.173-3.191-1.457-1.457 4.063.742 6.036 1.337.835.252 3.708 1.631 2.22-.043-1.115-1.255-1.974-2.607-2.867-4.009-.781-1.228 3.575.78 4.052.948.163.057 3.061 1.336 3.061.539 0-1.815-2.935-4.465-4.225-5.497-2.195-1.756 3.308.362 3.88.69.342.196 6.122 3.516 6.122 2.285 0-1.287-7.377-7.965-1.66-5.001.331.172 3.53 1.533 3.664.927.305-1.37-1.017-3.494-1.53-4.72-1.994-4.764 2.023 1.249 1.94-2.501-.035-1.573-.864-2.995-.776-4.569.054-.981 4.336 2.134 4.806 2.5.757.588 2.56 2.322 2.091.216-.472-2.128-.874-4.259-1.271-6.402-.048-.256-.38-3.057-.173-1.919.05.277.898 2.734 1.056 2.328.665-1.709-.943-4.969-1.056-6.768-.081-1.3-.021-2.62-.021-3.923" stroke="#C6C6C8" stroke-width="2.5" stroke-linecap="round"/><path d="M42.31 24.8c-18.123 2.517-7.553 13.214-20.138 32.72-23.282 14.473-11.954 30.204-.002 57.891 15.56 36.045 65.445 23.281 64.816-10.698-.63-33.978 17.618-30.203 25.169-50.339 7.551-20.135-21.394-39.642-32.72-44.676C68.107 4.664 64.961 21.654 42.308 24.8Z" stroke="#171717" stroke-width="1.5"/><circle cx="62.027" cy="63.394" r="21.394" stroke="#171717" stroke-width="1.5"/><path d="M9.457 72.376c.223-6.458 6.175-9.267 10.896-12.302 1.954-1.256 4.043-2.547 5.273-4.608 2.145-3.595 3-8.136 3.515-12.225.443-3.523.823-7.193 1.933-10.584.504-1.54 1.334-3.594 2.988-4.218 1.185-.447 2.26-1.023 3.505-1.318a55.486 55.486 0 0 0 4.228-1.181c1.932-.623 3.833-1.704 5.712-2.5.962-.408 2.178-1.152 3.25-1.152" stroke="#171717" stroke-linecap="round"/><path d="M46.543 23.87c-2.391 0 4.874.329 7.167-.352 1.344-.399 2.53-1.369 3.73-2.07 1.897-1.11 3.73-2.317 5.546-3.554 3.394-2.311 6.607-4.857 9.88-7.342 2.39-1.814 5.559-2.997 8.583-2.392 3.017.603 5.951 2.816 8.416 4.56 2.985 2.11 5.782 4.688 8.348 7.283 2.669 2.698 5.112 5.614 6.767 9.051.332.69.566 1.412.878 2.1.17.373.494.61.616.976" stroke="#171717" stroke-linecap="round"/><path d="M103.133 26c1.5 2.5 3.185 6.903 5.26 9.4 1.731 2.084 3.209 4.183 4.451 6.601.974 1.896.992 4.227 1.096 6.31.177 3.524-1.332 6.498-3.294 9.322-1.89 2.72-4.257 5.038-6.409 7.54-2.465 2.867-5.947 4.784-8.146 7.912-1.399 1.99-2.691 4.041-4.004 6.09-1.409 2.198-3.07 4.407-4.116 6.81-.808 1.86-.908 3.766-1.268 5.713" stroke="#171717" stroke-linecap="round"/><path d="M9.235 73.408c0 6.614-.286 13.313 2.414 19.512.773 1.776 1.91 3.23 2.914 4.872 1.24 2.029 2.355 4.126 3.586 6.159 2.466 4.074 4.973 8.476 6.66 12.944 1.431 3.792 2.932 8.009 5.85 10.928 2.868 2.867 6.529 5.349 10.132 7.217 2.528 1.311 5.4 2.428 8.208 3.006 2.853.587 6.596.744 9.415-.091 2.507-.743 4.855-1.719 7.263-2.778 2.03-.893 4.451-2.084 6.101-3.62 1.731-1.612 4.228-2.804 5.59-4.77 1.677-2.423 4.027-4.657 5.02-7.479.502-1.428 1.034-2.7 1.332-4.189.258-1.291.358-2.612.615-3.894.231-1.157.102-2.419.102-3.597 0-1.787.205-3.542.205-5.328 0-4.365 1.505-9.827 3.49-13.8" stroke="#171717" stroke-linecap="round"/><path d="M59.883 43.943c-2.813 0-5.522-.15-8.242.683-2.215.679-5.14 2.343-6.435 4.336-3.858 5.935-3.637 13.135-3.527 19.962.049 3.043 2.136 6.448 4.045 8.697 2.03 2.39 4.787 4.525 7.661 5.79 2.462 1.083 5.4 2.571 8.142 2.63 2.99.063 5.051-.631 7.8-1.707 1.922-.752 3.878-2.766 5.322-4.21.912-.912 1.802-2.125 2.528-3.185.868-1.267 1.984-2.503 2.68-3.869 1.096-2.15 2.202-4.413 2.605-6.826.549-3.298.649-7.886-.519-11.024-2.23-5.996-8.784-7.809-14.5-9.052-2.075-.45-4.116-1.08-6.195-1.542-1.72-.382-3.56-.352-5.233-.91" stroke="#171717" stroke-linecap="round"/></svg>