<svg width="115" height="121" fill="none" xmlns="http://www.w3.org/2000/svg"><path d="M62.941 120.525c-13.907 0-28.128-2.29-42.262-6.818a9.709 9.709 0 0 1-6.743-9.898v-.217c-3.025-1.48-5.208-4.506-5.457-8.082a9.728 9.728 0 0 1-7.694-9.067 9.724 9.724 0 0 1 7.727-9.973 9.658 9.658 0 0 1 2.842-5.879C7.982 64.064 6.09 56.738 6.09 49.055 6.101 22.299 28.503.525 56.047.525h5.273a4.453 4.453 0 0 1 4.452 4.452v2.8C74.968 9.882 83.3 15.091 89.383 22.71l.151.184s.206.28.227.324a9.728 9.728 0 0 1 6.657-3.037h.173l.291-.01c4.971 0 9.132 3.793 9.65 8.71 4.366 1.047 7.586 5.035 7.5 9.638-.087 4.485-3.275 8.256-7.467 9.272a9.682 9.682 0 0 1-8.126 8.99c-1.751 11.563-7.975 21.655-16.858 28.3 10.958 2.756 14.62 6.636 15.528 11.358.033.14.065.28.098.432l1.642 8.072a9.73 9.73 0 0 1-5.91 10.968c-7.219 2.885-18.435 4.604-29.998 4.604v.01Z" fill="#fff"/><path d="M53 85.546c1.202 0 2.206-.146 3.363-.429.284-.07 1.092-.107 1.11-.343.018-.218.147-.754-.262-.771-1.22-.053-2.437.69-3.422 1.114-1.173.507.09 1.246.527.526.227-.376 1.327-1.183 1.959-1.05.779.162-1.413 2.01-1.842 2.1-.246.052-1.128.142-1.258.3-.045.056 1.582-.251 1.784-.278 1.023-.137 2-.528 3.041-.783" stroke="#C6C6C8" stroke-width="2.5" stroke-linecap="round"/><path d="M14 87.233c.386.186 5.428 2.626 5.5 1.446.099-1.618-1.165-2.868-1.25-4.34-.008-.13-.374-1.339-.194-1.339.413 0 .675 1.29.944 1.58.874.942 1.817 2.082 3 2.653M93 39.938c.338.217 4.75 3.064 4.813 1.688.086-1.888-1.02-3.346-1.094-5.063-.007-.152-.328-1.563-.17-1.563.361 0 .59 1.505.826 1.844.764 1.098 1.59 2.428 2.625 3.094" stroke="#FFD424" stroke-width="2.5" stroke-linecap="round"/><path d="M57 95.182c.527-.508.895-1.172 1.429-1.686.316-.304.762-.425 1.063-.715.276-.265.429-.462.29.046-.117.424-.24.845-.358 1.268-.066.239-.229.497-.257.739-.017.153-.155.31-.144.487.008.144.317-.06.377-.085.464-.198.918-.319 1.397-.476.989-.324 1.89-.663 2.7-1.314.418-.335.909-.618 1.361-.909.51-.327-.009.502-.112.696-.443.834-1.087 1.525-1.75 2.192-.28.282-.953.954-.197.294 1.567-1.365 3.233-2.4 5.294-2.888.923-.218 1.771-.497 2.673-.78.372-.118.241-.016.016.17-.517.424-1.03.88-1.353 1.465-.236.426-.416.89-.879 1.113-.342.165-.786.267-1.147.383" stroke="#C6C6C8" stroke-width="2.5" stroke-linecap="round"/><path d="M56.901 66.097c.042-.185.425-.395.565-.492.433-.298.89-.469 1.363-.685.519-.237 1.072-.395 1.581-.66.569-.294.902-.73 1.345-1.173.293-.293.778-.515 1.148-.692.349-.167.769-.483.215.04-1.312 1.239-2.562 2.532-3.855 3.79a48.486 48.486 0 0 1-1.96 1.796c-.354.307-.7.634-1.112.86-.098.054-.306.573-.16.55.398-.061.874-.386 1.242-.543 1.192-.509 2.398-1.03 3.55-1.625 1.65-.854 3.124-1.989 4.685-2.988.918-.587 1.671-1.34 2.543-1.982.271-.2 1.141-.8.627-.102-.916 1.244-1.73 2.564-2.776 3.71-1.019 1.114-1.936 2.387-3.156 3.293-.601.447-1.245.763-1.662 1.392-.479.724-1.269 1.425-2.055 1.808-.095.046-.384.113-.419.233-.058.203-.25.233-.05-.015.507-.634 1.497-1.038 2.193-1.4 1.359-.704 2.797-1.18 4.274-1.57 1.723-.454 3.79-.763 5.087-2.098.445-.46 1.012-.916 1.541-1.28.157-.108.276-.34.434-.43.047-.026-.74.161-.918.194-.335.06-.702.355-.963.565-1.215.98-2.6 1.602-4.059 2.128-1.335.48-2.638 1.104-4 1.493-.716.205-1.5.322-2.23.46-.447.084-.86.31-1.312.393-.271.05-1.1.08-.824.08 3.268 0 6.442-.574 9.583-1.457 1.927-.542 3.894-1.053 5.787-1.706.359-.123.752-.145 1.115-.262.64-.206-1.263.476-1.851.802-1.125.623-2.273 1.192-3.407 1.796-1.821.97-3.784 1.724-5.68 2.5-.458.187-.934.303-1.378.525-.298.148-.62.23-.951.23-.19 0 .664-.043.681-.045 1.998-.203 3.999-.509 5.98-.838 1.651-.274 3.305-.53 4.919-.983.538-.152 1.16-.302 1.661-.562.182-.094.71-.405.55-.277-.246.197-.594.344-.867.503-.59.344-1.148.746-1.676 1.18-1.052.868-2.136 1.567-3.294 2.282-.811.501-1.743 1.036-2.623 1.414-.482.206-1.063.334-1.509.605-.11.066-.199.154-.313.21-.27.136.435-.181.451-.189 2.802-1.254 5.495-3.107 8.52-3.826.54-.128 1.088-.328 1.65-.328.072 0 .74-.036.514.102-.433.265-.926.415-1.363.686-.644.4-1.237.864-1.843 1.319-1.385 1.038-2.693 2.195-4.25 2.973-.713.357-1.464.578-2.207.86-.673.255-1.262.791-1.895 1.14-.098.055-.517.186-.466.16.738-.369 1.49-.665 2.211-1.085 1.759-1.026 3.467-2.138 5.331-2.97 1.078-.48 2.094-.92 3.236-1.232.68-.185 1.36-.346 2.048-.495.199-.043.364-.054.167.146-.522.532-1.115.974-1.661 1.48-1.071.99-2.024 2.082-3.148 3.016-1.376 1.143-3.025 1.737-4.723 2.23-.735.213-1.48.357-2.179.59M40.322 20.935c.892 0 1.747.394 2.542.769.52.245 1.027.693 1.57.848.532.152 1.159.518 1.66.779.342.177.566.45.934.556.199.057.407.081.595.17.038.018-.341-.395-.43-.495-.95-1.077-1.606-2.36-2.669-3.344-.336-.311-.758-.528-1.042-.896-.043-.056-.278-.34-.17-.34.569 0 1.05.36 1.556.505.338.097.658.31.934.528.644.51 1.29 1.014 1.971 1.476.594.404 1.235.794 1.906 1.057.27.105.54.22.81.32.382.142-.23-.415-.325-.547-.982-1.358-1.486-3.044-2.155-4.565-.218-.497-.534-1.082-.896-1.49-.834-.939 1.785 1.77 2.717 2.613.954.864 1.97 1.688 2.97 2.5.328.264.908.914 1.359.914.7 0-.252-1.518-.392-1.787-.675-1.301-1.784-2.31-2.447-3.636-.092-.184-.193-.317-.222-.519-.022-.157-.354-.495-.212-.424.458.229.882.755 1.287 1.07.971.755 1.964 1.399 3.004 2.052 1.157.725 2.405 1.288 3.476 2.145.268.215 1.318 1.313.665.354-.873-1.282-1.412-2.79-2.443-3.961-.292-.332-.658-.618-1-.896-.054-.044-.315-.34-.297-.335.473.105.936.52 1.344.764.856.51 1.663 1.105 2.48 1.674.847.589 1.582 1.255 2.33 1.952.474.441 1.244.759 1.84.99.163.064.278.163.434.236.155.074-.415-1.146-.472-1.259-.382-.754-.677-1.561-1.136-2.273-.208-.322-.424-.644-.6-.986-.217-.422-.884-1.233-.028-.575 2.17 1.666 4.11 3.678 6.565 4.905" stroke="#171717" stroke-width="2.5" stroke-linecap="round"/><path d="M87.84 98.482c-.183 2.83-14.472 4.154-31.914 2.958-17.443-1.196-31.433-4.46-31.25-7.29.175-2.674 12.94-4.004 29.058-3.133l.057 2.988a1.87 1.87 0 0 0 1.868 1.835v0c1 0 1.819-.791 1.854-1.791l.098-2.785c16.965 1.252 30.41 4.444 30.23 7.218Z" stroke="#171717" stroke-width="1.5" stroke-linecap="round"/><path d="m23.86 104.249.65-9.986c1.067 2.13 9.197 6.546 33.177 7.162 23.98.616 30.13-1.62 30.208-2.815l1.644 8.086c-8.604 3.44-33.785 7.765-65.679-2.447Z" stroke="#171717" stroke-width="1.5" stroke-linecap="round" stroke-linejoin="round"/><ellipse cx="56.667" cy="49.896" rx="32.766" ry="33.652" stroke="#171717" stroke-width="1.5"/><path d="M56.262 87.687c-22.212 0-40.219-17.377-40.219-38.812 0-21.436 18.007-38.813 40.219-38.813v6.132" stroke="#171717" stroke-width="1.5" stroke-linecap="round"/><path d="M53.82 83.938h3.488v10.166a1.744 1.744 0 1 1-3.488 0V83.938Z" stroke="#171717" stroke-width="1.5"/><path d="M82.842 28.987c-3.554 0-6.882 1.32-9.868 3.06-2.004 1.167-2.294 2.71-3.387 4.47-1.107 1.782-2.58 3.456-4.621 4.4-1.55.715-3.896 1.427-4.327 3.221-.442 1.84-.602 3.742-.881 5.612-.153 1.025-.176 2.005-.176 3.04 0 .462-.19 1.35.039 1.775.43.794 2.248.57 2.82.162 1.665-1.19 1.712-3.268 2.691-4.878.703-1.154 3.386-.814 4.386-.335 1.676.804 1.786 1.79 2.477 3.25.529 1.117 1.477 1.301 2.379 2.135 1.327 1.227.612 3.499.538 5.005-.04.823-.39 1.568.04 2.317.404.707 1.942 1.267 2.682 1.702 1.418.834 3.247 3.56 6.559 2.816M67.337 63.554h-7.01c-1.046 0-2.229-.283-2.995.583-.83.937-.568 2.672-.568 3.8 0 .994-.404 3.3.352 4.123.713.775 1.768 1.056 2.604 1.629 1.238.847 2.239 1.996 3.564 2.714 1.196.648 1.661 1.78 1.977 3.077.201.826.078 2.03 1.018 2.352M67.336 63.372c.747 0 1.663-.15 2.369.11 1.078.4 2.466 1.5 3.172 2.424.541.707.887 1.529 1.233 2.343.193.453.476 1.751.9 2 1.272.746 2.626 2.579 2.722 4.163.029.464-.357-.856-.567-1.267-.365-.712-1.243-1.193-1.723-1.81M30.991 30.797c1.028 0 2.05.201 3.034.5 1.822.555 3.629 1.086 5.464 1.595 2.119.588 4.345 1.057 6.422 1.767.469.161 2.785.166 2.785.738 0 1.214-1.142 2.734-1.774 3.672-1.037 1.538-2.234 3.187-3.797 4.19-1.728 1.11-3.502 1.866-4.95 3.352a75.7 75.7 0 0 0-3.352 3.708c-.476.56-.775 1.253-1.277 1.795-.252.272-.65.516-.834.82-.233.382-1.539.463-1.96.656-.693.316.637 1.54.958 1.803 1.065.876 2.416 1.209 3.787 1.44 1.497.252 3.044-.003 4.116 1.312.512.627 1.277 1.393 1.277 2.25 0 1.985-.318 3.237-1.978 4.5-.307.233-1.352.899-1.375 1.32-.026.486-.013.99 0 1.477.017.607.32 1.163.32 1.794v1.567c0 .907-2.748 2.424-3.363 2.74M40.728 20.844c.097.888 1.877 2.154 2.654 2.433 1.273.458 3.005.41 4.307.181 4.075-.714 8.085-1.71 12.246-1.71h3.877c1.189 0 2.715.259 3.877-.04.884-.226 2.995-.998 2.995-2.13" stroke="#171717" stroke-width="1.5" stroke-linecap="round"/><path d="M97.072 29.701c.225 3.619-.904 8.444-7.678 8.444 2.183-.201 7.678 1.608 7.678 8.846-.15-2.346 1.354-8.846 7.451-8.846-1.731-.067-7.451.08-7.451-8.444ZM18.404 77.361c.225 3.62-.904 8.444-7.677 8.444 2.182-.201 7.677 1.608 7.677 8.846-.15-2.346 1.354-8.846 7.45-8.846-1.73-.067-7.45.08-7.45-8.444Z" stroke="#171717" stroke-width="1.5" stroke-linecap="round" stroke-linejoin="round"/><path d="M49.413 16.734c-1.671 0-5.31.653-6.778 1.501-1.484.857-3.163 1.545-4.526 2.615-2.794 2.195-5.59 4.65-7.916 7.358-.959 1.116-1.668 2.725-2.296 4.052-.829 1.752-1.747 3.73-2.256 5.61-.465 1.721-1.046 3.397-1.49 5.122-.442 1.71-.481 3.085-.529 4.878-.108 4.14-.331 7.651.766 11.708.536 1.982 1.705 3.702 2.427 5.61.464 1.225.698 2.432 1.32 3.55 1.15 2.068 2.582 3.683 4.09 5.176 1.137 1.126 2.676 1.434 3.865 2.385.966.771 2.01 1.505 3.22 1.816 1.96.503 4.232.387 6.108 1.03 1.44.492 2.891 1.004 4.328 1.53 1.567.576 2.851.61 4.512.61 2.305 0 4.539.488 6.835.488 3.304 0 7.605.263 10.264-2.195.622-.574 1.453-1.077 2.138-1.585.79-.586 1.403-1.544 2.375-1.83 1.255-.368 2.52-2.469 3.338-3.414 1.12-1.294 2.156-2.646 3.311-3.903 1.037-1.128 1.432-2.8 2.256-4.024 1.018-1.51 1.744-2.938 2.072-4.757.437-2.423 1.847-4.571 1.847-7.073 0-2.376.237-4.682.237-7.06 0-1.997-.323-3.502-.83-5.38" stroke="#171717" stroke-linecap="round"/><path d="M49.412 16.734c6.484-2.702 15.783.498 17.773.662 2.636.216 5.733 2.545 7.732 4.187 2.41 1.98 4.228 4.539 6.636 6.518 1.229 1.01 2.93 2.307 3.39 3.916.434 1.514 1.56 2.553 2.218 3.902 1.064 2.187 1.055 4.422 1.055 6.83M53.856 90.774h-12.04c-1.787 0-3.523.471-5.308.471-1.339 0-3.116-.1-4.356.436-.797.345-1.768.762-2.607.977-1.112.286-2.463.211-3.507.663-.852.368-1.06 1.238-.764 2.076.378 1.068 1.797 1.454 2.564 2.162.328.303.959.314 1.376.437 1.621.475 3.235.967 4.866 1.421 3.3.919 6.581 1.919 9.875 2.817 4.088 1.115 8.253-.188 12.364-.305 3.457-.099 6.878-.4 10.343-.323 2.195.049 4.399.314 6.606.314 2.163 0 4.279-.568 6.42-.628 1.157-.032 2.259-.512 3.354-.863.793-.255 1.719-.265 2.302-.864" stroke="#171717" stroke-linecap="round"/><path d="M87.637 99.722c0 1.485.153 2.944.153 4.43 0 .657.58 1.864.068 2.39-.495.508-1.72.765-2.36.951-1.012.292-2.09.444-3.058.863-.877.379-1.847.216-2.751.436-1.168.284-2.34.655-3.516.89-3.238.646-6.807.244-10.088.244-1.34 0-2.641-.314-3.974-.314H52.33c-1.979 0-3.757-.951-5.724-1.09-2.135-.152-4.255-.559-6.351-.951-.903-.169-1.659-.471-2.599-.471-.843 0-1.625.025-2.445-.192-1.386-.366-2.88-.388-4.288-.75-.834-.214-1.596-.226-2.438-.322-.79-.091-1.45-.49-2.174-.777-.516-.204-2.717-.248-2.717-1.02 0-.558-.148-.874 0-1.483.118-.485.315-.929.425-1.421.25-1.126.398-2.27.637-3.375.205-.95-.107-1.943.161-2.904M53.397 83.867v7.186c0 .9.32 1.601.45 2.469.134.9-.108 1.334.925 1.334h1.452c.468 0 .59-1.056.764-1.413.487-1 .451-2.02.264-3.105-.369-2.13-.034-4.189-.034-6.314M54.357 9.576c-1.527 0-3.221-.232-4.701.185a35.389 35.389 0 0 0-4.792 1.76c-1.013.454-1.824 1.387-2.879 1.83-1.232.518-2.405 1.126-3.665 1.566-2.11.736-4.03 1.742-6.017 2.762-1.391.715-2.985 1.278-4.203 2.302-1.778 1.493-4.166 3.288-5.21 5.432-1.22 2.507-3.224 4.47-4.353 7.039-.995 2.263-1.793 4.578-2.002 7.049-.253 2.985-1.445 5.697-1.445 8.747 0 2.304-.355 4.988.18 7.182M15.45 55.43c0 2.015.142 3.842.637 5.801.52 2.064 1.864 3.445 3.118 5.054 2.088 2.681 4.429 5.123 6.714 7.643.993 1.095 1.947 2.173 2.978 3.232.785.806 1.734 1.413 2.51 2.21 1.345 1.381 2.265 2.654 4.124 3.315 1.068.38 2.111 1.037 3.088 1.616 1.07.635 2.318.84 3.506 1.105 3.28.733 6.613 1.023 9.902 1.699" stroke="#171717" stroke-linecap="round"/><path d="M32.469 30.145c2.34 0 4.35.574 6.558 1.283 1.75.561 3.26 1.55 4.99 2.138 1.018.346 2.045.608 3.066.92.61.185 1.428.207 1.925.649.716.636.432 1.563.142 2.36-.222.612-.8 1.162-1.203 1.664-1.48 1.84-3.29 3.386-4.99 5.014-1.535 1.469-3.61 3.218-5.775 3.651-.982.197-2.575 1.217-2.575 2.36 0 1.331-.682 2.44-1.853 3.09-.664.369.323.617.65.76.567.25 1.105.625 1.631.951.692.429 1.454.685 2.139 1.109 1.297.802 2.239 1.465 3.28 2.566.302.321.537.962.712 1.355.183.411.545.89.57 1.354.065 1.154-.376 1.918-1.283 2.63-.936.735-1.853 1.553-1.853 2.796 0 .765-.143 1.504-.143 2.274 0 .62-.035 1.176-.499 1.64-.316.316-.639.602-.927.926-.224.252-.343.68-.65.856-.219.125-.363.536-.633.57-.27.034-.76.412-.998.57M39.434 22.955c.39.044.721.553 1.006.784.48.39 1.03.696 1.568.998.874.492 1.601.664 2.59.642 1.83-.042 3.254-1.07 4.959-1.497 1.007-.252 1.983-.556 2.994-.784 1.099-.248 2.27-.143 3.39-.143 1.561 0 3.207-.134 4.737.214 1.156.263 2.988.247 4.135-.04.927-.232 1.868-.558 2.772-.887.47-.17 1.028-.713 1.505-.713M79.01 30.512c-1.782 0-3.248.316-4.84 1.212-.68.382-1.457 1.093-2.003 1.64-.669.668-1.547 1.185-2.068 1.995-.714 1.111-1.281 2.665-2.178 3.597-.747.775-1.398 1.633-2.17 2.392-1.062 1.041-2.372 1.76-3.565 2.598-.51.358-1.098.7-1.497 1.188-.689.842-.769 2.044-.99 3.058-.36 1.642-.08 3.596-.08 5.283 0 .603-.019 2.91 1.173 2.13.583-.38 1.132-.74 1.537-1.314.405-.576 1.104-1.402 1.679-1.822 1.18-.863 1.912-1.426 3.453-1.426 1.157 0 2.558.621 3.2 1.632.561.881.888 1.759 1.68 2.471.696.627 1.375.626 1.71 1.632.495 1.482.397 3.052.397 4.594 0 1.32.819 2.338 1.782 3.153.654.553 1.447 1.229 2.21 1.632.584.308 1.149.88 1.743 1.109.806.31 1.62.775 2.392 1.172.224.115.91.393.998.57M63.814 81.045c0-1.092-.008-1.938-.427-2.962-.402-.983-1.154-1.523-1.775-2.313-.562-.716-1.287-1.36-2.004-1.917-.576-.449-1.39-.573-1.925-1.077-.534-.505-1.14-.714-1.568-1.394-.442-.703-.285-1.673-.285-2.464 0-1.385.26-2.716.634-4.048.38-1.36.881-1.442 2.186-1.679 2.62-.476 5.562-.11 8.23-.11.774 0 1.461-.062 2.13.364a8.64 8.64 0 0 1 2.25 2.06c.72.96 1.374 1.985 1.822 3.104.454 1.135.748 2.24 1.355 3.32.528.94 1.713 2.202 2.78 2.558" stroke="#171717" stroke-linecap="round"/></svg>