<svg width="122" height="125" fill="none" xmlns="http://www.w3.org/2000/svg"><path d="M65.291 124.68c-11.98 0-23.27-3.85-32.66-11.14-12.08-9.38-17.24-21.3-15.35-35.42.24-1.83 1.02-5.15 1.25-6.12l.04-.16.04-.16c.7-2.5 1.98-4.7 3.74-6.48L9.932 51.06a21.542 21.542 0 0 1-4.18-7.19L.531 28.72c-1.27-3.7-.22-7.8 2.68-10.42a9.767 9.767 0 0 1 6.56-2.54c1.41 0 2.78.3 4.07.89l18.81 8.58c.81.37 1.58.79 2.32 1.27a8.748 8.748 0 0 1-.88-4.73v-.12c.4-4.19 3.74-7.55 7.96-7.95l6.19-.59 1.47-6.29a8.796 8.796 0 0 1 8.6-6.82h.37l.48.04c4.37.4 7.81 4.01 8.01 8.39l.06 1.21 2.09-.89c1.1-.47 2.26-.7 3.45-.7 3.2 0 6.15 1.73 7.71 4.52a8.81 8.81 0 0 1-.02 8.67c2.07.55 4.17 1.37 6.27 2.45 2.5-7.37 7.09-12.68 13.38-15.23 2.25-.91 4.58-1.37 6.91-1.37 4.42 0 8.36 1.66 11.1 4.67 3.88 4.27 4.47 10.41 1.54 16.01-.48.91-.83 1.95-1.1 3.18-.56 2.61-.07 5.96.6 10.61 1.24 8.48 3.11 21.3-.55 41.15-3.18 17.24-15.62 31.55-33.27 38.28-6.5 2.48-13.24 3.73-20.03 3.73l-.02-.04Z" fill="#fff"/><path d="M58.559 89.98c0 1.16 1.03 2.427 1.516 3.45.59 1.248.456-.407.456-.994V86.116c0-.979.518-.02.694.32.708 1.364 1.495 2.656 2.018 4.11.22.61.488 1.573.904 2.063.34.399.39 1.084.658 1.553.132.23.164.139.164-.074v-2.465c0-2.347-.079-4.728-.164-7.032-.022-.585 0-1.176 0-1.762 0-.387-.14-1.233.036-.374.52 2.54 1.61 4.963 2.393 7.396.362 1.127.574 2.323 1.06 3.416.298.672.291-1.655.291-1.909 0-2.212-.094-4.4-.164-6.602-.042-1.336-.596-2.916-1.114-4.146-.146-.347-.201-1.021-.201-1.397 0-1.271 1.006.337 1.352.776 2.007 2.549 4.401 5.59 4.401 9.004 0 .589.329 1.143.329 1.708 0 1.25.058-2.506-.037-3.754-.133-1.772.211-5.633-1.607-6.703-.652-.383-.335-1.935-1.315-1.935" stroke="#171717" stroke-width="2.5" stroke-linecap="round"/><path d="M70.145 83.1c-.286.035-.089 5.855-.089 6.689 0 .772-.354 3.059-.354 2.287 0-.287.258-.566.354-.831.24-.66.533-1.294.753-1.963.27-.823.4-1.697.683-2.513.102-.294.246-.608.246-.925 0-.306-1.03-.824-1.259-.974-.622-.407-1.217-.768-1.795-1.24-.13-.106-.514-.61-.709-.61-.117 0-.336.599-.418.699-.36.444-.738.818-1.17 1.19-.704.607-1.585 1.095-2.17 1.825-.53.663-.841 1.53-1.333 2.229-.126.18-1.01 1.03-.777 1.288.41.457.8.757.994 1.392.21.689.1.664-.615.664-.24 0-.711.096-.93-.02-.134-.07.794-.543.886-.6" stroke="#171717" stroke-width="2.5" stroke-linecap="round"/><path d="M41.748 84.202v5.188c0 .845-.106 3.736.471 1.425.102-.407 1.193-4.06 1.227-4.035.502.377.698 1.69.943 2.232.448.992.972 2.318 1.131 3.396.108.725.377 1.433.608 2.127.036.107.204.844.294.755.325-.326.034-1.968.084-2.41.096-.86.185-1.8.377-2.642.023-.1.187-.995.293-.9.481.427.878 1.31 1.216 1.844 1.19 1.877 2.323 3.682 3.311 5.658.467.934.42-2.058.42-3.102 0-1.565 1.404 1.498 1.603 1.793.74 1.095 1.527 2.045 2.337 3.08.213.273.58.887.88 1.059.271.155.466.448.734.639.156.112-.137-1.238-.178-1.404-.117-.466-.422-2.253.283-2.253 1.435 0 2.778 1.458 3.73 2.41.538.538 1.551 1.126 1.551.147 0-1.356 1.02-1.202 1.51-2.18" stroke="#C6C6C8" stroke-width="2.5" stroke-linecap="round"/><path d="M20.576 46.185c0 .432-.38 4.325.626 4.102.647-.144 1.103-1.33 1.38-1.818.578-1.013 1.265-1.945 1.828-2.969.783-1.425.416 1.393.367 1.768-.213 1.618-.983 3.355-.983 4.955v.824c0 .46.49-.78.715-1.181 1.046-1.86 1.541-4.1 3.039-5.68.093-.099.985-1.178 1.032-1.172.503.063-1.197 4.988-1.29 5.372-.263 1.075-.602 2.175-.775 3.267-.111.7-.098 1.504-.308 2.175-.199.636-.268 1.375-.268 2.045 0 .346.088-.702.258-1.002.85-1.508 1.824-2.971 2.77-4.42 1.857-2.838 3.896-5.538 5.651-8.41.414-.677.842-1.11.983-1.887.153-.843.645-1.472.248-.169-.885 2.909-4.288 3.536-5.441 6.206-.08.186-1.124 2.165-1.033 2.245.097.085 1.444-.465 1.658-.497.691-.102 1.353-.214 2.056-.179 1.99.1-2.115 9.057-2.77 10.368-.289.576-.973 2.136-.795.536.127-1.14.804-2.466 1.201-3.535.449-1.207.618-2.47 1.023-3.684.111-.334.44-2.696.01-1.679-.686 1.625-2.15 3.526-2.244 5.323-.035.654.567.128.814-.12 1.144-1.143 2.183-2.524 3.158-3.812 1.5-1.982 2.98-4.344 3.575-6.793.176-.723.318-1.4.318-2.145 0-.645-.024-1.646-.358-.496-.85 2.93-2.742 5.523-3.396 8.5-.373 1.697-.538 3.63-.318 5.363.285 2.244.854 4.399.854 6.653v.536c0-1.228-.013-2.414.308-3.615 1.072-4.009 3.303-7.613 4.955-11.39.459-1.047.748-2.282.815-3.406.03-.516.175.883.168 1.013-.088 1.913-.623 3.92-1.062 5.78-.731 3.096-.962 6.373-1.788 9.434-.548 2.03-1.072 4.073-1.072 6.186 0 .02.114-.565.12-.586.356-1.394.879-2.758 1.31-4.13.846-2.693 1.83-5.31 3.287-7.737.445-.742.97-1.284 1.54-1.916.316-.352.276-1.236.357-1.698.116-.668.476-1.285.715-1.917.105-.28.145-1.09.446-1.27.026-.016.091 1.932.09 2.065-.023 2.235-.843 4.281-1.52 6.385-.928 2.889-2.049 5.67-2.86 8.59-.252.907-.265 1.995-.436 2.939-.098.536-.19.963-.19 1.53 0 .475.361-.892.646-1.272 1.102-1.469 2.32-2.855 3.248-4.449 1.182-2.032 1.773-4.39 2.581-6.574.335-.904.908-1.795 1.172-2.72.012-.042.293-.946.388-.616.116.406-.42 1.193-.566 1.549-1.242 3.01-1.529 6.221-2.106 9.394-.314 1.727-1.072 3.512-1.072 5.263 0 .957-.464 1.844-.536 2.78-.01.127-.18.736-.18.319 0-1.166-.065-2.353.02-3.516.222-2.994 2.099-5.91 3.655-8.4.88-1.408 1.55-3.022 2.224-4.54.1-.224.342-.57.358-.803.009-.136-.002 1.02-.01 1.211-.096 2.249-.846 4.464-1.46 6.614-.508 1.778-.75 3.655-1.39 5.392-.51 1.383-.768 2.881-1.162 4.3-.2.718-.447 1.31-.447 2.055 0 .15-.189.562-.178.189.05-1.815 1.083-3.903 1.807-5.531 1.244-2.8 3.193-5.302 4.945-7.796.567-.806.936-2.078 1.291-2.999.128-.33.358-1.357.358-1.002 0 .486-.035.897-.219 1.36-1.256 3.165-1.578 6.473-2.105 9.791-.315 1.98-.587 3.978-.725 5.978-.07 1.005-.526 2.072-.526 3.049 0 .281-.232 1.857-.447 1.857-.74 0-.805-3.946-.805-4.37 0-2.657.894-5.136.894-7.805 0-1.62.526-3.067.755-4.647.269-1.854.547-4.616-.08-6.395-.282-.804-.899-2.91-1.747-3.357-1.094-.576-2.602-.04-3.754-.04-1.552 0-1.608.131-1.748 1.828-.246 2.982-.45 6.083-.397 9.076.015.823.048 2.145 1.082 2.145 1.707 0 3.583.928 4.37 2.503.247.495.416.877.447 1.43.016.29.328 0-.09 0-.46 0 .504.12.666.178.576.21 1.144.179 1.747.179 1.596 0 3.483-2.103 4.43-3.218.636-.75 1.405-1.463 1.787-2.323.699-1.573.307-2.838-.457-4.29-.66-1.253-1.15.834-1.48 1.46-.838 1.592-1.433 3.32-2.135 4.975-.562 1.327-1.16 2.763-1.42 4.19-.5 2.75-.259 5.725.338 8.411.06.267.174.49.407.19 1.062-1.377 2.059-2.778 3.168-4.122 1.275-1.545 2.538-3.14 3.545-4.876.423-.728 1.164-1.386 1.46-2.175.34-.908.842-1.956 1.36-2.77.066-.103.51-.615.258-.497-.619.292-1.257.546-1.876.844-2.474 1.191-3.223 3.29-4.499 5.611-.16.292-2.928 5.723-2.304 5.74 3.617.098 5.349-2.63 7.647-4.965.408-.415 1.04-1.323 1.658-1.46.332-.074.582-.235.765-.546.984-1.674-1.142 3.746-2.105 5.432-1.244 2.176-2.791 4.167-4.022 6.355-.197.35-.445.754-.586 1.122-.127.329-.496.628-.566.944-.312 1.4-.698-1.053-.815-1.52-.354-1.418-.446-2.835-.446-4.29 0-1.212-.483 2.381-.854 3.535-.316.982.875 1.105 1.608 1.252 1.766.353 2.922-1.888 3.714-3.178 1.557-2.537 3.112-5.147 5.581-6.792.594-.396 1.241-.775 1.788-1.212.604-.483.496 1.212.496 1.39 0 .45-.358.48-.715.715-1.236.817-2.311 1.877-3.307 2.97-1.616 1.773-2.57 3.98-4.29 5.7-.692.691-1.263 1.24-1.787 2.055-.355.552-.615 1.151-.973 1.688-.016.023-.02-.401-.02-.407-.07-1.085-.169-2.157-.169-3.247 0-2.581.039-5.409 1.261-7.746 1.132-2.164 3.052-3.838 4.538-5.75.413-.53.779-1.456.626-2.144-.02-.092-.419-.673-.487-.586-.227.292.888 1.993 1.033 2.284.175.35 1.282 3.005 1.57 2.324.502-1.194.026-2.424-.716-3.397-.941-1.233-2.133-2.313-3.356-3.257-.21-.162-1.816-1.725-1.43-1.748.823-.048 3.513-.386 4.11.18.818.77-.735 2.132-1.25 2.502-1.472 1.055-2.833 2.296-4.112 3.575M48.147 24.38c0-1.167.696-2.056 1.215-3.048.146-.28.331-.52.5-.784.098-.154.051-.011.093.137.363 1.308.53 2.639 1.102 3.9.444.981 1.104 1.845 1.538 2.832.141.32.206.783.334.206.278-1.254.473-2.486.642-3.763.113-.853.255-1.712.308-2.568.001-.016.343.423.402.5.467.616.69 1.438.965 2.151.492 1.275.861 2.639 1.436 3.876.119.256.261 1.134.598 1.23.239.068-.118-4.178-.157-4.493-.2-1.615-.292-3.354-.73-4.93-.036-.129-.064-.24-.113-.362-.149-.372.521.61.774.921 1.294 1.588 2.363 3.424 3.303 5.238.425.82.794 1.673 1.548 2.24.384.287.847.385 1.19.73.2.199.355.398.525.617.65.836-1.03-1.85-1.558-2.769-1.67-2.903-3.462-5.762-4.772-8.854-.163-.383-.298-.757-.5-1.122-.137-.246-.377-.294-.598-.44-.07-.047-.297-.232-.098-.26.484-.07.931.777 1.151 1.082 1.62 2.244 2.808 4.623 4.837 6.566.984.942 1.94 1.838 1.94 3.214v.716V26c0-1.475.135-3.026-.02-4.493-.222-2.113.012.573.108.578.202.01 2.455.072 2.47-.176.023-.392.023-.8.093-1.186.043-.238.334-.375.436-.578" stroke="#FFD424" stroke-width="2.5" stroke-linecap="round"/><path d="M9.682 25.968c.114.342.403.638.577.954.199.361.338.747.505 1.122.281.633.671 1.218 1.01 1.82.076.134.86 1.468.994.994.193-.675-.057-1.602-.184-2.26-.075-.388-.178-.767-.249-1.155-.044-.244-.056-.332-.056-.02 0 .908.344 1.794.634 2.642.116.34.258.861.63 1.026.216.096.47.081.685.188.21.106.33.32.489.477.049.05-.039-.022-.056-.032-.135-.07-.231-.038-.361.049-.538.354-1.085.71-1.616 1.078-.262.181-.184-.32-.192-.513-.032-.714-.176-1.48.02-2.185.083-.3.65-.126.846-.04.19.083.412.065.22.256" stroke="#171717" stroke-width="2.5" stroke-linecap="round"/><path d="M14.995 44.422c7.548 6.451 5.779.592 3.951-3.145 1.667 1.909 5.419 5.451 7.096 4.355 1.678-1.097-1.72-5.242-3.628-7.177 2.365 2.204 7.74 6.338 10.321 5.242 2.58-1.097-.107-6.317-1.774-8.79m-15.966 9.515 41.92 47.558m-41.92-47.558-3.111-9.04m19.077-.475L69.873 77.08M30.96 34.907 14.995 27.63M69.873 77.08l2.073 2.248c3.748 4.061 3.408 10.413-.75 14.052-4.072 3.563-10.259 3.162-13.837-.897l-.444-.504M69.874 77.08c-1.286-.765-5.677 1.144-12.958 14.9m-41.92-64.35-4.68-2.134c-.821-.374-1.69.415-1.397 1.268l2.966 8.618m3.11-7.753c.937 1.56 1.626 5.294-3.11 7.753" stroke="#171717" stroke-width="1.5" stroke-linejoin="round"/><path d="M60.792 40.092c-.944-3.912 2.834-6.222 7.459-6.217m23.74 17.738c-5.462-12.545-17.547-17.73-23.74-17.738m0 0c1.484-6.07 14.595-6.488 27.922 9.914" stroke="#171717" stroke-width="1.5"/><path d="M92.426 60.694c-4.455-10.079-20.882-23.764-38.84-20.072-.257.053-.526.05-.802 0m59.213-16.057c5.77-11.04-19.57-14.302-18.567 16.057m18.567-16.057c-.863-.957-3.325-2.584-6.273-1.435-3.684 1.435-1.256 6.688 4.373 6.819m1.9-5.384c-.877 1.677-1.482 3.453-1.9 5.383m0 0c-2.331 10.771 5.533 22.026 0 52.026-5.532 30.001-45.3 46.265-71.99 25.541-11.092-8.612-13.269-18.22-12.05-27.354m.923-4.655c.051-.196.104-.39.158-.582 1.13-4.034 5.635-5.642 9.52-4.075 4.623 1.864 6.148 7.55 6.44 12.527.233 3.956 2.3 8.005 7.841 10.937 14.136 7.479 26.684 1.507 27.437-21.074.453-13.608-9.765-17.176-18.588-17.394-4.915-.121-9.903-1.395-13.447-4.801l-3.68-3.536a5.162 5.162 0 0 1 .033-7.474c2.567-2.426 6.392-.673 9.727.492.12.042.241.074.363.096M26.98 75.506c1.45-.734 5.193-1.591 8.563.851 4.211 3.054-4.545 6.765-9.485 3.804m.922-4.655a38.13 38.13 0 0 0-.922 4.655m22.42-41.177c-1.257.422-3.793 1.853-3.878 4.212-.105 2.948 6.05-.094 8.184-2.574M58.502 8.965l-3.063 13.12-13.13 1.26 12.061 3.481-1.417 5.662 5.66-5.067 8.52 5.031-3.107-8.311 9.499-6.769-14.356 6.087-.667-14.494ZM19.809 42.357l40.833 43.236M24.955 40.985l39.46 39.461" stroke="#171717" stroke-width="1.5"/><path d="M42.168 83.99c0-4.166.103-9.415-4.287-11.489-.983-.464-2.338-.857-3.43-.857-1.106 0-2.672-.279-3.686.267-.967.52-2.343 1.272-3 2.172-.343.469-.75.895-1.03 1.41-.327.604-.607 1.204-.942 1.8-1.586 2.818.163 6.053.257 8.964.103 3.197.942 6.675 2.534 9.43.745 1.29 1.271 2.68 2.134 3.906.913 1.3 1.685 3.039 3.134 3.858 1.199.678 1.928 2.063 2.867 3.039.784.814 1.693 1.36 2.61 1.943.462.294 1.373.887 1.639 1.353.091.16 1.13.413 1.362.514.626.274 1.162.508 1.724.915.598.432 1.63.762 2.315 1.066.24.107.296.409.533.515.538.239 1.081.414 1.61.686 1.452.746 2.704 1.2 4.373 1.2 1.029 0 1.98.377 2.962.648 1.553.428 3.241.381 4.84.381h3.353c1.84 0 4.147.546 5.882 0 .691-.218 1.372-.057 2.057-.21.718-.159 1.425-.36 2.153-.476 2.066-.331 4.573-1.435 6.497-2.229 1.509-.623 2.645-2.169 4.234-2.572 2.248-.57 4.716-.84 6.85-1.801.99-.446 1.687-1.018 2.62-1.59 1.59-.977 3.043-1.59 4.42-2.868 1.65-1.532 3.111-2.708 4.036-4.92.375-.895 2.465-1.484 2.784-2.405.462-1.336.606-2.87.733-4.268.107-1.176.997-1.646.997-2.833 0-.855 2.26-3.988 2.941-4.377 1.025-2.257 1.025-2.421 1.025-4.087 0-2.924.515-5.76 1.027-8.574.777-4.274.41-7.927.41-12.303 0-4.046-.41-7.337-.41-11.396 0-1.642-.024-3.306-.772-4.801-.585-1.171.613-3.842-.083-4.973-.972-1.58-.857-3.591-.857-5.373 0-.78-.244-2.013 0-2.743.264-.795.772-1.56 1.028-2.391a21.417 21.417 0 0 1 1.286-3.172c.321-.642 1.076-1.868 1.115-2.573.14-2.52-1.094-3.666-3.125-4.972-2.426-1.56-5.201-1.088-7.763-.086-1.412.553-2.558 1.778-3.649 2.791-.943.877-1.846 1.733-2.353 2.972-.612 1.497-1.31 3.024-1.629 4.62-.304 1.52-1.075 2.906-1.41 4.41-.326 1.47-.897 2.931-1.247 4.402-.177.743-.313 2.097.257 2.667" stroke="#171717" stroke-linecap="round" stroke-linejoin="round"/><path d="M95.492 43.352c0-.704-1.026-1.4-1.505-1.81a88.251 88.251 0 0 0-2.4-1.962c-1.162-.923-2.377-1.724-3.64-2.495-1.31-.802-2.354-2.12-3.6-3.03-1.065-.777-2.896-1.47-4.191-1.676-1.242-.199-2.503-.739-3.706-1.115-.974-.304-2.267-.085-3.287-.085-1.215 0-2.04.634-3.124 1.028-.57.207-1.064 1.256-1.639 1.543" stroke="#171717" stroke-linecap="round"/><path d="M91.72 51.925c0-.794.04-1.562-.266-2.315-.575-1.41-1.855-2.159-2.81-3.258-.968-1.112-1.91-2.195-2.925-3.257-.889-.93-2.193-1.295-3.087-2.23-1.729-1.807-4.189-2.832-6.001-4.543-1.55-1.464-2.969-1.746-4.972-2.191-3.65-.811-6.483.938-9.689 2.362-.719.32-1.248 2.024-1.285 2.744-.05.925 1.822.387 2.057.857" stroke="#171717" stroke-linecap="round"/><path d="M91.723 61.7c0-1.467-.19-2.55-1.029-3.773-.741-1.082-2.057-2.055-2.534-3.295-.838-2.181-2.42-3.575-4.153-5.116-.901-.8-1.78-1.58-2.667-2.305-.749-.612-2.21-.75-3.125-1.077-2.532-.904-4.916-2.07-7.487-2.867-2.206-.684-4.38-1.575-6.526-2.4-.7-.27-1.748-.086-2.486-.086-.913 0-1.83.026-2.743 0-1.26-.036-2.495-.514-3.773-.514-.928 0-1.76.342-2.657.342-1.629 0-2.53-1.119-4.03-1.505-2.022-.52-5.364-1.322-6.601.905-.796 1.432-.25 2.877.219 4.334.506 1.576.923 3.102 1.581 4.582.285.642 1.1 1.119 1.62 1.544.556.455 1.043 1.034 1.552 1.543.282.282.66.301.943.6.318.335.591.647.953.943.79.646 1.676.91 2.648 1.153 1.789.447 3.976.133 5.83.133 1.652 0 3.342.624 5.01.686.93.034 2 .05 2.916.21.976.17 2.141.035 3.048.438 1.49.662 4.387 1.732 5.767 2.62 1.24.796 1.582 2.433 2.787 3.268 1.43 2.369.829 4.03 1.43 5.573.945 2.433 1.361 3.597.742 6.162-.705 2.92.632 5.767 0 8.69-.37 1.708-2.172 4.147-3.267 5.608-1.055 1.406-1.765 3.248-2.658 4.81-.422.739-1.339 1.115-2.02 1.543-1.028.648-2.036 1.343-3.124 1.887-1.666.832-3.521 1.143-5.23 1.8-.8.308-2.076.086-2.915.086-1.109 0-2.236.058-3.343 0-.801-.042-1.628-.785-2.363-1.067-.773-.297-1.163-1.652-1.667-2.267-.959-1.172-2.367-1.691-3.43-2.753l-2.829-2.83c-.854-.854-1.807-1.953-2.4-2.99-.218-.383-.6-.783-.695-1.21-.108-.483-.677-.62-.677-1.115" stroke="#171717" stroke-linecap="round"/><path d="M19.77 42.769c.778 1.4 2.482 2.662 3.624 3.805 1.472 1.471 3.196 2.681 4.689 4.147 2.403 2.357 5.115 4.164 6.958 7.048.94 1.47 1.966 2.675 3.123 3.976 1.271 1.43 2.316 3.037 3.554 4.478 2.237 2.603 5.009 4.767 7.43 7.189.878.878 1.79 1.823 2.57 2.79.67.832 1.643 1.242 2.39 1.989 1.477 1.477 4.694 5.629 6.193 7.06M25.836 41.853c.952.762 2.095 1.137 2.972 1.998 1.637 1.608 2.597 3.252 4.387 4.684 2.56 2.05 3.993 4.498 6.45 6.681 2.774 2.467 5.266 5.195 7.961 7.731 1.188 1.117 3.11 2.149 4.118 3.431.722.919 1.757 2.067 2.567 2.966 1.653 1.837 3.436 3.546 5.2 5.271.888.868 1.854 1.633 2.661 2.58.797.936 1.212 2.083 1.918 3.063M56.762 90.684c.027-.462.564-.876.836-1.216.313-.392.57-.812.847-1.227.379-.568.971-.948 1.45-1.427.71-.71.865-1.706 1.391-2.525.53-.825 1.06-1.434 1.894-1.97.666-.428.935-1.124 1.368-1.742.506-.723 1.082-1.076 1.684-1.678.898-.898 2.106-2.104 3.472-2.104M15.245 44.302c0-.927-.251-1.919-.447-2.82-.075-.343-.178-.705-.38-1-.184-.267-.41-.425-.557-.729-.408-.837-.534-1.736-.792-2.622-.204-.704-.61-1.235-.923-1.86" stroke="#171717" stroke-linecap="round"/><path d="M10.367 25.54c1.428 0 2.792 1.774 3.91 2.505.565.37 1.2.628 1.756 1.013.709.491 1.784.573 2.445 1.134.607.516 1.978.903 2.743 1.073 1.048.233 2.06.5 3.127.69 1.458.258 2.804.166 3.883 1.245.975.975 2.449 1.446 3.154 2.717.49.88 1.23 1.613 1.703 2.524.457.88.756 1.827 1.16 2.723.103.229.147.39-.053.57-.449.404-.797.85-1.226 1.28-.396.396-.758.529-1.252.748-.38.169-1.073.026-1.491.026-.982 0-2.098-.547-3.042-.834M27.355 75.667c1.38 0 2.749-.162 4.135-.162h2.19c.279 0 .764-.09 1.013.045.467.25.868.365 1.257.766.298.306.717.873.811 1.297.154.692.156 1.157-.41 1.581-.718.539-1.287 1.241-2.04 1.744-.766.51-1.765.648-2.659.648h-2.82c-.7 0-1.182-.567-1.883-.567M46.57 39.734c-.01.08-.337.192-.422.247-.277.178-.435.413-.635.67-.355.457-.828.816-1.09 1.34-.374.75-.004 1.641.631 2.081 1.112.77 2.495.098 3.617-.246.766-.235 1.689-.789 2.273-1.34.252-.238.58-.377.831-.62.152-.147.282-.368.51-.368M112.003 24.56c-.67 0-1.303-.457-1.835-.825a13.128 13.128 0 0 0-1.551-.89c-.549-.275-1.376-.283-1.982-.267-.397.012-.962.171-1.321.33-.429.191-.536.305-.707.744-.31.796-.615 1.322-.615 2.189 0 .727.314 1.74.904 2.22.728.592 1.47 1.175 2.363 1.496.403.145.869.262 1.23.491.22.14.432.294.706.294M42.008 23.348c3.391 0 6.923.323 10.257-.402.634-.138 1.358-.289 1.903-.645.232-.152.45-.315.688-.455.205-.12.199-.779.248-.989.426-1.798 1.053-3.63 1.708-5.356.404-1.065 1.204-1.9 1.708-2.908.249-.498.514-.983.666-1.522.057-.202.23-1.102.233-1.09.197.69.005 1.71.005 2.422v3.426c0 2.01.285 3.984.285 5.996 0 .403-.233 1.428.286 1.428.772 0 1.738-.768 2.385-1.148 1.514-.89 2.918-1.803 4.605-2.326 1.42-.44 2.942-.724 4.314-1.285.413-.169.815-.41 1.237-.55.134-.045.213-.06.053.042-.602.389-1.137.912-1.67 1.386-1.68 1.49-3.315 3.102-5.261 4.256-.386.228-.815.383-1.19.624-.402.258-.271.543-.143.957.498 1.602 1.422 3.008 2.237 4.462.355.634.72 1.371.85 2.094.055.296.284.9.25 1.174-.002.012-.533-.204-.55-.212-.533-.236-1.075-.46-1.597-.719-.87-.43-1.658-1.003-2.475-1.523-.788-.501-1.623-.909-2.4-1.427-.432-.288-1.059-.857-1.597-.857-.377 0-.758.39-1.068.571-.956.562-1.695 1.258-2.548 1.946-.976.786-1.755 1.73-2.665 2.575-.222.206-.443.467-.709.618-.28.16-.009-.165.043-.333.36-1.17 1.06-2.215 1.375-3.426.23-.891.243-1.779.243-2.69 0-.329.015-.352-.286-.498a13.424 13.424 0 0 0-1.618-.666 14.357 14.357 0 0 1-2.902-1.332c-.754-.459-1.705-.73-2.517-1.095-.636-.286-1.398-.523-2.1-.523" stroke="#171717" stroke-linecap="round"/></svg>