<svg width="125" height="184" fill="none" xmlns="http://www.w3.org/2000/svg"><g filter="url(#a)"><mask id="b" maskUnits="userSpaceOnUse" x="7.4" y="4.5" width="109" height="167" fill="#000"><path fill="#fff" d="M7.4 4.5h109v167H7.4z"/><path fill-rule="evenodd" clip-rule="evenodd" d="M70.5 18.6v2l1 .5a49.4 49.4 0 0 0-18.1-.3v-2.2a6.1 6.1 0 1 0-12.2 0v8a30 30 0 0 0-11.4 25.2l.3.3-.5-.1-13.2 12c2.2.7 5 1.5 8.1 2.2h-1c-1.4 5-2.2 10.2-2.2 15.5 0 14.7 3.6 24.6 9 31.2v16.4l-5.8-4.9a.4.4 0 0 0-.7.5l-.2.3c0 .2.1.4.3.5l.3.1.3.3.6.5h.2l.2.2.8.5 1.4 1c.5.3.8.6 1 1v.3l.1.1h-7.3a.4.4 0 1 0 0 1h9.3c.2 0 .4-.2.4-.5V114a32 32 0 0 0 13.5 8.9l1 37.7c0 .2.2.3.4.4l8 2.1a.4.4 0 1 0 .2-.8l-7.7-2-1-37.1a50.3 50.3 0 0 0 26 1l1 36.4c0 .2.1.3.3.4l8 2.1a.4.4 0 1 0 .2-.8l-7.6-2-1-36.3c11.2-3 21.7-11 25.1-27.8v32.5l-5.9-4.9a.4.4 0 1 0-.5.7l5.7 4.7h-8.1a.4.4 0 1 0 0 .8H98c.2 0 .4-.2.4-.4V90.2c.2-1.8.3-3.7.3-5.6-.1-5.2-.9-11.2-2.4-17.3h-.5c4.1-.8 8.3-2 12.4-3.3L94 52l-.8.3.5-.5-1-9.5a34 34 0 0 0-12.3-17l2.2 1v-7.7a6 6 0 1 0-12.2 0Zm-45 108.2.2-.2-.2.2Z"/></mask><path fill-rule="evenodd" clip-rule="evenodd" d="M70.5 18.6v2l1 .5a49.4 49.4 0 0 0-18.1-.3v-2.2a6.1 6.1 0 1 0-12.2 0v8a30 30 0 0 0-11.4 25.2l.3.3-.5-.1-13.2 12c2.2.7 5 1.5 8.1 2.2h-1c-1.4 5-2.2 10.2-2.2 15.5 0 14.7 3.6 24.6 9 31.2v16.4l-5.8-4.9a.4.4 0 0 0-.7.5l-.2.3c0 .2.1.4.3.5l.3.1.3.3.6.5h.2l.2.2.8.5 1.4 1c.5.3.8.6 1 1v.3l.1.1h-7.3a.4.4 0 1 0 0 1h9.3c.2 0 .4-.2.4-.5V114a32 32 0 0 0 13.5 8.9l1 37.7c0 .2.2.3.4.4l8 2.1a.4.4 0 1 0 .2-.8l-7.7-2-1-37.1a50.3 50.3 0 0 0 26 1l1 36.4c0 .2.1.3.3.4l8 2.1a.4.4 0 1 0 .2-.8l-7.6-2-1-36.3c11.2-3 21.7-11 25.1-27.8v32.5l-5.9-4.9a.4.4 0 1 0-.5.7l5.7 4.7h-8.1a.4.4 0 1 0 0 .8H98c.2 0 .4-.2.4-.4V90.2c.2-1.8.3-3.7.3-5.6-.1-5.2-.9-11.2-2.4-17.3h-.5c4.1-.8 8.3-2 12.4-3.3L94 52l-.8.3.5-.5-1-9.5a34 34 0 0 0-12.3-17l2.2 1v-7.7a6 6 0 1 0-12.2 0Zm-45 108.2.2-.2-.2.2Z" fill="#fff"/><path d="M74 18.6a4 4 0 1 0-7 4l7-4Zm-6.8 4.2a4 4 0 0 0 7-4l-7 4Zm13.4.1a4 4 0 1 0 3.1 7.4l-3.1-7.4Zm3.7 7.1a4 4 0 1 0-3.2-7.3l3.2 7.3ZM67 22.6l.1.2 7-4-.2-.2-7 4Zm16.6 7.7.6-.3-3.2-7.3-.5.2 3.1 7.4Zm-13.2-9.7h-8a8 8 0 0 0 4.6 7.2l3.4-7.2Zm1 .5-2.2 7.6A8 8 0 0 0 75 13.8l-3.4 7.3Zm-1-.3-2 7.7 2-7.7Zm-17 0h-8a8 8 0 0 0 9.3 7.8l-1.4-7.8Zm-12.3 5.8 4.4 6.7a8 8 0 0 0 3.6-6.7h-8ZM29.8 51.8l-8 .1c0 2 .8 4 2.2 5.4l5.8-5.5Zm.3.3-2 7.7a8 8 0 0 0 7.5-13.4L30.1 52Zm-.5-.1 2-7.8a8 8 0 0 0-7.5 1.9l5.5 5.9ZM16.4 64 11 58.1a8 8 0 0 0 3 13.6l2.4-7.7Zm8.1 2.2v8a8 8 0 0 0 1.8-15.8l-1.8 7.8Zm-1 0 .1-8a8 8 0 0 0-7.8 5.8l7.7 2.2Zm6.9 46.7h8a8 8 0 0 0-1.9-5l-6.1 5Zm0 16.4-5.1 6.2a8 8 0 0 0 13-6.2h-8Zm-6-4.9 5.1-6.1-5 6.1Zm-.6 0-6.1-5 6.1 5Zm0 .5 4.4 6.6a8 8 0 0 0 3.3-8.6l-7.7 2Zm-.2.3 8 1-8-1Zm.3.5-.9 8 1-8Zm.3.1-4.5 6.6 4.5-6.6Zm.3.3-6.3 4.9 6.3-5Zm0 0-6.3 4.9 6.4-5Zm.6.5 4-7-4 7Zm.2 0-3.8 7.1.3.2 3.5-7.2Zm0 0 3.8-7a7 7 0 0 0-.3-.1l-3.5 7.2Zm1 .7L22 134l4.3-6.7Zm1.4 1 5-6.4h-.1l-4.9 6.4Zm1 1L21 132l7.6-2.5Zm0 .3-7.3 3v.2l7.4-3.2Zm0 0 7.5-3-.1-.2-7.3 3.2Zm.1.1 7.4-3-7.4 3Zm0 0v8a8 8 0 0 0 7.5-10.7l-7.5 2.8Zm.7 1 2.3-7.7a8 8 0 0 0-2.3-.3v8Zm.3 0v-8a8 8 0 0 0-2.4.3l2.4 7.7Zm1.4-16.8 6-5.3a8 8 0 0 0-14 5.3h8Zm13.5 8.9 8-.3a8 8 0 0 0-5.3-7.3l-2.7 7.6Zm1 37.7-8 .2 8-.2Zm.4.4-2.1 7.7 2-7.7Zm8 2.1-2.1 7.7 2-7.7Zm.5-.3 7.7 2.1-7.7-2Zm-.3-.5-2.1 7.7 2-7.7Zm-7.7-2-8 .2a8 8 0 0 0 6 7.4l2-7.7Zm-1-37.1 2.4-7.6a8 8 0 0 0-10.4 7.8l8-.2Zm26 1 8-.2a8 8 0 0 0-9.9-7.6l1.9 7.8Zm1 36.4-8 .2 8-.2Zm.3.4-2 7.7 2-7.7Zm8 2.1 2-7.7-2 7.7Zm.5-.3 7.7 2.1-7.7-2Zm-.3-.5 2-7.7-2 7.7Zm-7.6-2-8 .2a8 8 0 0 0 5.9 7.4l2-7.7Zm-1-36.3-2.1-7.7a8 8 0 0 0-6 8l8-.3ZM97.5 96h8a8 8 0 0 0-15.8-1.6l7.8 1.6Zm0 32.5-5 6.2a8 8 0 0 0 13-6.2h-8Zm-5.9-4.9 5.1-6.2-5 6.2Zm-.6 0-6.2-5 6.2 5Zm0 .7-5 6.2 5-6.2ZM97 129v8a8 8 0 0 0 5-14.2l-5 6.2Zm1.6-38.9-8-.8v.8h8Zm.3-5.6 8 .1v-.3l-8 .2Zm-2.4-17.3 7.7-2a8 8 0 0 0-7.6-6l-.1 8Zm-.5 0-1.7-7.8a8 8 0 0 0 1.6 15.8v-8Zm12.4-3.3 2.4 7.6a8 8 0 0 0 2.8-13.6l-5.2 6ZM94 52l5.2-6.1a8 8 0 0 0-8.4-1.3l3.2 7.4Zm-.8.3-5.9-5.4a8 8 0 0 0 9 12.8l-3-7.4Zm.5-.5 6.1 5a8 8 0 0 0 1.8-6l-8 1Zm-1-9.5 7.9-.9a8 8 0 0 0-.5-1.7l-7.5 2.6Zm-12.3-17 3.4-7.2a8 8 0 0 0-8 13.7l4.6-6.5Zm2.2 1-3.5 7.3a8 8 0 0 0 11.5-7.2h-8ZM25.5 126.9l-6.6-4.5a8 8 0 0 0 2.2 11.1l4.4-6.6Zm.2-.2 5-6.2a8 8 0 0 0-11.6 1.7l6.6 4.5Zm0 0 6.7 4.4a8 8 0 0 0-1.6-10.6l-5.1 6.2Zm-.2.2-4.4 6.7a8 8 0 0 0 11.1-2.3l-6.7-4.4Zm53-106.2v-2h-16v2h16ZM75 13.8l-1-.5-7 14.5 1.1.5 7-14.5Zm-6.5 14.7.8.2L74 13.4l-1.4-.4-4 15.5Zm-13.7.1c1.4-.2 4-.5 6.7-.6 2.9 0 5.4.1 7 .5l4-15.5c-3.8-1-8.1-1-11.5-1-3.5.1-6.8.5-8.9.9l2.7 15.7Zm-9.4-10v2.2h16v-2.2h-16Zm2 2c-1.1 0-2-1-2-2h16c0-7.7-6.2-14-14-14v16Zm1.8-2c0 1-.8 2-1.9 2v-16c-7.8 0-14 6.2-14 14h16Zm0 8v-8h-16v8h16Zm-11.4 25c-.3-10.9 5.8-17 7.8-18.3l-8.8-13.5c-5.9 4-15.4 15-15 32.1l16-.3Zm-2.2-5.2v-.2L24 57.3l.5.5 11.1-11.4Zm-8 13.3.5.1 4-15.5h-.6l-4 15.4ZM21.8 70 35 58 24 46 11 58 21.8 70Zm4.5-11.5-7.5-2L14 71.7l8.8 2.3 3.5-15.6Zm-3 15.8h1.1l.3-16h-1l-.3 16Zm6 7.5c0-4.5.7-9 1.9-13.4L15.8 64a66.2 66.2 0 0 0-2.5 17.7h16Zm7.2 26.2c-4-4.9-7.2-12.8-7.2-26.2h-16c0 16 4 27.9 10.9 36.3L36.5 108Zm1.9 21.4V113h-16v16.4h16Zm-19 1.3 5.9 4.9L35.5 123l-6-4.8-10.1 12.3Zm10.6-1a7.6 7.6 0 0 1-10.6 1l10.1-12.3c-3.6-3-8.9-2.5-11.8 1.1L30 129.6Zm1.5-6.7c.6 2.3.1 4.7-1.5 6.7l-12.3-10.2a8.4 8.4 0 0 0-1.7 7.4l15.5-3.9Zm0 3.2a7.6 7.6 0 0 1-3.3 5.4l-8.9-13.3a8.4 8.4 0 0 0-3.7 6l16 2Zm-6.6-8.4c4.1.5 7.1 4.3 6.6 8.4l-15.9-1.9a8.4 8.4 0 0 0 7.4 9.4l1.9-15.9Zm4 1.6a9.2 9.2 0 0 0-4-1.6l-1.9 16a7.8 7.8 0 0 1-3.3-1.3l9.1-13.1Zm2 2a9.4 9.4 0 0 0-2-2l-9.2 13a6.3 6.3 0 0 1-1.5-1.3l12.7-9.8Zm0-.1L18.2 131l12.7-9.8Zm-1.8-1.5c.3.1 1 .6 1.8 1.5L18.2 131c1 1.3 2.2 2 2.8 2.4l8.1-13.7Zm0 0-8 13.7.4.3 7.6-14Zm-.3-.2-7 14.4 7-14.4Zm1.2.7-1-.6-7.5 14.1-.4-.2 8.9-13.3Zm.7.4-.7-.4-9 13.2 1 .6 8.7-13.4Zm1.9 1.3-2-1.3L22 134l.9.6 9.7-12.7Zm3.7 5c-1-3.1-3.4-4.8-3.7-5l-9.8 12.7c.1 0 .1 0 0 0l-.3-.3c-.5-.5-1-1.3-1.4-2.4l15.2-5Zm-.1-.3a3.3 3.3 0 0 1 0 .2l-15.1 5 .3.9 14.8-6.1Zm-.1-.2-14.7 6.4 14.7-6.4Zm.1.3v-.1l-14.8 6v.1l14.8-6Zm.1.3v-.3l-15 6v-.1l15-5.6Zm-14.8 10.8h7.3v-16h-7.3v16Zm7.6-7.6c0 4.2-3.4 7.6-7.6 7.6v-16a8.4 8.4 0 0 0-8.4 8.4h16Zm-7.6-7.5c4.2 0 7.6 3.3 7.6 7.5H13c0 4.7 3.7 8.5 8.4 8.5v-16Zm8 0h-8v16h8v-16Zm-2 .3c1.4-.4 3-.4 4.3 0l-4.6 15.3c1.6.5 3.2.5 4.9 0L27.4 123Zm3.3-.3h-1v16h1v-16Zm-7.6 7.5c0-4.2 3.4-7.5 7.6-7.5v16c4.7 0 8.4-3.8 8.4-8.5h-16Zm0-16.3v16.3h16V114h-16Zm24.2 1.3a24 24 0 0 1-10.2-6.6l-12 10.7a40 40 0 0 0 16.9 11l5.3-15Zm6.4 45-1.1-37.7-16 .5 1 37.7 16-.5Zm-5.6-7c3.2.8 5.5 3.7 5.6 7l-16 .5c0 3.7 2.6 7 6.2 7.9l4.2-15.4Zm8 2.1-8-2.1-4.2 15.4 8 2.1 4.1-15.4Zm-9.3 5.3c1-4 5.2-6.4 9.2-5.3L52 170.7a8.4 8.4 0 0 0 10.3-5.9l-15.4-4.2Zm5.3 9.3c-4-1-6.4-5.2-5.3-9.3l15.4 4.2a8.4 8.4 0 0 0-6-10.3l-4.1 15.4Zm-7.7-2 7.7 2 4.2-15.4-7.7-2.1-4.2 15.4Zm-7-44.6 1.1 37 16-.4-1-37-16 .4Zm23.5-6c-4.4 0-8.9-.5-13-1.8l-4.9 15.2c6 2 12.3 2.6 18 2.6v-16Zm8.7-1c-2.8.7-5.8 1-8.7 1v16c4 0 8.2-.4 12.4-1.4l-3.7-15.6Zm10.9 44-1-36.4-16 .4 1 36.4 16-.5Zm-5.6-7.1c3.2.8 5.5 3.7 5.6 7l-16 .5c.1 3.7 2.6 7 6.2 7.9l4.2-15.4Zm8 2.1-8-2.1-4.2 15.4 8 2.1 4.2-15.4Zm-9.3 5.3c1-4 5.2-6.4 9.3-5.3l-4.2 15.4a8.4 8.4 0 0 0 10.3-5.9l-15.4-4.2ZM79 170c-4-1-6.4-5.2-5.3-9.3l15.4 4.2a8.4 8.4 0 0 0-6-10.3l-4 15.4Zm-7.6-2 7.6 2 4.2-15.4-7.7-2.1-4.1 15.4Zm-7-43.8 1 36.3 16-.5-1-36.2-16 .4Zm25.4-29.6C87 108 79 113.9 70.4 116.2l4 15.4a41.5 41.5 0 0 0 31-34l-15.6-3.1Zm15.8 34V96.2h-16v32.5h16Zm-19 1.4 6 4.9 10.1-12.4-5.9-4.9L86.6 130Zm10.7-1a7.6 7.6 0 0 1-10.7 1l10.2-12.4c-3.6-3-8.9-2.4-11.9 1.2l12.4 10.2Zm-1-10.7a7.6 7.6 0 0 1 1 10.7l-12.4-10.2c-3 3.6-2.4 8.9 1.2 11.9l10.2-12.4Zm5.6 4.7-5.6-4.7L86 130.6l5.7 4.7 10.1-12.4Zm-13.1 14.2h8v-16h-8v16Zm7.5-7.6c0 4.2-3.4 7.6-7.5 7.6v-16a8.4 8.4 0 0 0-8.5 8.4h16Zm-7.5-7.6c4.1 0 7.5 3.4 7.5 7.6h-16c0 4.7 3.8 8.4 8.5 8.4v-16Zm9.3 0h-9.3v16H98v-16Zm-7.6 7.6c0-4.2 3.4-7.6 7.6-7.6v16c4.6 0 8.4-3.7 8.4-8.4h-16Zm0-39.3v39.3h16V90.2h-16Zm.3-5.7c0 1.7-.1 3.4-.3 5l16 1.5c.2-2 .3-4.1.3-6.3l-16-.2Zm-2.2-15.2c1.4 5.5 2 10.9 2.2 15.5l16-.4c-.1-5.7-1-12.4-2.7-19l-15.5 4Zm7.2 6h.5l.2-16H96l-.2 16Zm10-18.9c-3.8 1.3-7.7 2.3-11.6 3.1l3.4 15.7c4.4-1 8.8-2.1 13.1-3.6l-4.9-15.2ZM89 58l14.2 12.1L113.5 58 99.3 45.9 89 58Zm7.4 1.7 1-.4L91 44.6l-.5.3 6 14.8Zm-8.7-13-.2.2 11.9 10.8.6-.8-12.3-10.2Zm-2.8-3.4 1 9.4 16-1.8-1.1-9.5-16 1.9Zm-9-11.5A26 26 0 0 1 85.3 45l15-5.3a42 42 0 0 0-15.1-21l-9.2 13.1Zm10.3-12.6L84 18 77 32.5l2.2 1 7-14.3Zm-11.4-.6v7.8h16v-7.8h-16Zm2 2c-1.1 0-2-1-2-2h16a14 14 0 0 0-14-14v16Zm1.8-2c0 1-.8 2-1.9 2v-16a14 14 0 0 0-14 14h16ZM21.1 133.4l9-13.2-9 13.2Zm-2-11.3-.2.2 13.3 9 .1-.2-13.2-9Zm11.7-1.7-10.2 12.4 10.2-12.4Zm1.4 10.8.2-.2-13.4-8.9-.1.3 13.3 8.8Zm-11.1 2.3 8.9-13.3-8.9 13.3Z" fill="#fff" mask="url(#b)"/><path d="M61.2 78s1 1 1 1.3c.4.4.9 1 .9 1.5 0 .3 0 .6 0 0v-3.3c0-.3-.2-.7 0-.2l1.6 3.2c.4.7 1 1.8 1.2 2.5.2.8.2 0 .2-.4 0-1-.5-1.9-.8-2.7l-.7-2.1c0-.3-.3-.6-.4-.8 0-.4-.7-1.2-.6-.3 0 .8.3 2.5.8 3 .1.1 0-2.2.2-2.4.5-.7 2 2 2.3 2.3l.6 1c.3 0 0-1.5 0-1.6 0-.6-.4-1.2-.4-1.8 0-.7.1 0 .3.4.2.2 1.5 2.8 1.4 1.7l-.3-2.2c0-.7-.1-.7.2 0a11 11 0 0 0 2.1 2.4c0-.6 0-1-.2-1.6 0-.2-.6-1.2-.3-.8l1.3 1.8c.4.4.4.6.4 0v-1.7c0-.5 0-.7.2-.1s.6 1 .9 1.6c.4.7.2-.2.2-.5 0-.4 0-.7.2-1.1.1-.3.5 1 .7 1.2l1.1 1.6c.3.5.2-1 .2-1.1v-1.6c0-.6.4.8.5 1 .5 1.2 1.3 2.2 2 3.3.4.5 0-1 0-1.5-.2-.8 0-1.5-.2-2.3a7.3 7.3 0 0 0 .6 1.9c.2.3.5 1.3.5 1v-1.8c0-.4-.1-1.2 0-1.6l.5.9c.5 1 .9 2.5.9.5V76c0-.7 0-.4.2.1l.8 1.9c.1.4.4.6-.1.2-1.3-1-3.3-1-4.8-.6" stroke="#171717" stroke-width="2.5" stroke-linecap="round"/><path d="M17.8 63c.7 0 1.1 1 1.4 1.4.4.8 0-1.7 0-2.1-.2-.9-.6-1.9.4-1l3 2.9c.7.5 1.5 1.1 2 1.8a24.1 24.1 0 0 0-2-4.3c1.5 2 3.4 3.5 4.9 5.3.1.2 1 1.2 1 .5 0-1-.9-1.7-1.4-2.7-.6-1-1.1-2.1-1.8-3.1-.3-.6-1-1.2-1-1.9 0-.5.7.8 1 1.2l2.2 2.4c.3.4 1.8 2.7 1.5 1.1-.2-1-.9-2.1-1.3-3-.5-1.2-1-2.3-1.6-3.3l-.5-1.2 2.2 3.3c1.2 1.7 2.6 3.2 3.7 4.9l2.4 3c.3.2.5.8.6.1 0-1.1-.5-2.1-.9-3.2a46.3 46.3 0 0 0-2.6-6.3l4.8 6.7s.8.9.6.3c-.4-1-1.3-1.9-1.9-2.7-1.7-2.4-3.7-4.5-5.5-6.8-.8-1-.5 0-.7.8-.5 1.7 0 3.9 1.2 5.2l2.4 2.8c1 1.1.4-.2 0-1-1.3-3.8-2.7-7.5-3.8-11.3a10 10 0 0 1-.5-2.6c0-.5.7.9 1 1.4 1.6 3.2 4 6.6 6.4 9.5.7.8 1.3 1.6 1.8 2.5 0 0 .6.6.4.2-1.2-3.1-2.7-6.2-4-9.3l-1.5-2.7c-.3-.6 0 1.8 0 2 .8 2.7 2.5 4.8 4 7l4.4 6.3 1 1.2s.6 1 .6.8c.2-.7-1.3-2.3-1.7-2.8a57.2 57.2 0 0 1-5.3-9C35.6 59 37 60.5 38 62c1.2 1.6 2.5 3.3 4 4.6.8.7 2.7 3.2 1.5.7-1.4-3-3-5.8-4.8-8.6-.6-1-2.8-3.3-2.2-2.4 1 1.6 2.8 3 4 4.4l5 5.6 2.4 2.5c0 .2.7.9.4.2-2-3.5-3.7-7.3-6-10.6-.8-1-1.4-2.2-2.3-3-.2-.2-.8-.8-.7-.2.2.9 1 1.9 1.4 2.5 1.5 2 3.3 3.7 4.9 5.5l3 3.3c.4.3 1 1.3 1 .9 0-1-1.2-2.3-1.6-3-1.3-2-2.7-4-3.9-6.2-.4-.8-2.1-3-.6-1.3 2.3 2.6 4.5 5.5 6.6 8.3.8 1 1.3 2.3 2.4 2.8.9.5 1.5 1.3 2.1 1.9 1.7 1.5-2.3-3.8-3.9-5.5a41.3 41.3 0 0 1-6-7.8c-.4-.7-1.4-2-1.5-2.8a549 549 0 0 1 4.1 5.8c1.9 2.6 3.7 5.3 5.8 7.7.2.3.5 1.2.7 1 .3-.4-.3-1.7-.5-2-.9-2-2.3-4-3.4-6-1-1.5-2-3.2-3.2-4.5-2.6-2.7 4.8 5.7 7.2 8.6 1.6 1.8 3 3.7 5.2 4.9.7.4-.3-.7-.4-.8l-4.5-5.9-3-4.4-.8-1c0 1 1.7 2.2 2.2 2.8a40 40 0 0 0 7.3 6.4c.5.4 4.7 3 3.5.8-.8-1.5-2.7-2.6-4-3.7-2-1.8-3.7-3.8-5.4-5.8-.3-.4-1-1.6-.8-1.1.3.7 1 1.3 1.6 1.9 3 2.5 6.7 3.9 8.8 7.2.3.4 1 3.2 1.2 3.2.5.2 1.1.6 1.7.7.4.2 1.3.8.6-.3-1.7-2.7-3-5.8-4.3-8.7-.5-1-1.2-2-1.6-3.2-.1-.2-.3-.6-.5-.7l-2.1.3c-.2.8 1.6 3.2 2 4a8.7 8.7 0 0 0 2.7 3.3c1.1.8 2 1.6 3.3 2.1.5.2.8.7.8 0 0-1.6-.8-3.3-1.2-4.8-.4-1.3-1.6-5.4-1-4.1l1.6 2.6c1 1.9 1.5 3.9 2.7 5.6.3.4 2.4 3.7 1.5 1.8-1.3-2.7-2.9-5.4-3.1-8.5 0-.4-.2-1.2-.2-.3 0 1.4-.2 2.9.1 4.3.4 2 2 7.7 1.4 5.8-.3-.9-1-1.8-1.3-2.7a49.5 49.5 0 0 1-3-9c-.1 1.2.6 2.3 1 3.3 1.3 3 2 6.3 3.6 9.1.3.6.6 0 .7-.5.5-2.1.5-4.4.5-6.6v-6.1c0 3.6 2 7.2 3.3 10.5 0 .1.6 1.6.6.8 0-2.2-1-4.8-1.8-6.8L71.4 57l1.6 4 3.5 7c.1.2.8 1.9.8 1 0-2.7-1-5.4-1.6-8l-1.2-4a20 20 0 0 0 1.7 4.2l2.9 5.6c0 .2 1 1.7.7.7-.5-2.3-1.7-4.5-2.7-6.5-.4-.9-1.3-2.2-1.3-3.2 0-.8.6 1.5 1 2.2 1.6 2.5 3.5 5 5.2 7.5.1.2 1.7 3 2.1 3 .5 0-2.3-5.4-2.4-5.5a205 205 0 0 1-4-7.3c1.6 2.5 3.8 4.7 5.6 6.9 1 1.1 2 2.2 2.8 3.3.3.4.5.6.4 0-.3-2.1-2-4.2-3-6.2l-2.2-4.2a197.4 197.4 0 0 0 6.3 8c.3.2 2.8 3.2 2.3 1.7C88.7 64 86.6 61 85 58c-.8-1.5-1.8-3-2.4-4.8v.3c.3 1.1 1.2 2.2 1.9 3 2.8 4 5.8 8.2 9.6 11.1l-.9-2.7c-1.3-2.3-2.8-4.4-4-6.6-.3-.7-1-2.6-1-1.9 0 .3.8 1 1 1.2l2.9 4c1 1.4 2 2.6 3.2 3.8.2.1 1.1 1 .9.2-1-3.1-3.9-5.8-5.6-8.5L89 54.2c-.4-.5-1.6-1.6-1-1.5.4.1.8 1 1 1.2l2.9 4c1.8 2.4 3.9 4.7 5.9 7 .5.8 1 1.5 1.8 1.9.4.2-1-2.4-1.2-2.7-1.8-2.6-3.8-5-5.6-7.4-.4-.5-1-2-1-1.4a106 106 0 0 0 4.5 5.4c1.2 1.3 2.6 2.5 3.9 3.7.4.4 1 1 1.6 1.2.2 0 0-.5-.2-.6-1.1-1.7-2.4-3.2-3.7-4.8-1.6-2-3.1-3.9-4.5-6-1-1.3.7 1 1 1.2l5 5.2c.3.3 1.8 2.3 2.3 2.2l-2.8-3.1a60 60 0 0 1-5.3-5c3.4 2.8 6.5 5.9 9.5 9 .2.1 1.6 1.3 1 .6l-4.4-4.5c-1.6-1.5-3.4-2.7-5-4.2-.6-.5-1.5-1.3-2.3-1.3-1.2 0-2.4-.2-3.5 0-1.5.4-2.8 1.4-4 2.1-.8.4-1.7.5-2.4 1h2.8l3.6-.3c1.7 0-3.2.2-4.8.4-4 .4-8.1.7-12.1.7-1.9 0-4 .2-5.7-.2-1.7-.3-3.2-.5-5-.5-.3 0 2.2 1.7 2.6 2 2.6 1.8 10 3 9 7.6-.3 1.5.6 2 1.9 3 1.3.9.1 0-.5-.5-.9-.7-1.5-1.5-2.6-1.7" stroke="#FFD424" stroke-width="2.5" stroke-linecap="round"/><path d="M31 46.7c0 1.7.8 2.7 1.2 4.3.3 1 1 1.8.5 0-.8-2.9-1.7-6.3-1.7-9.3 0-.4-.4-1.3-.1-.6l2.9 5.6c1 2.1 2.2 4.2 3.4 6.3.1.3.8 2.3 1.1 2.5.4.1-.1-.8-.2-1.2L37 51c-.7-2-1.5-4.1-2-6.2-.3-1.4-1.8-5.5-1.3-4.1 1.4 3.4 3.6 6.5 5.3 9.8.4 1 1.2 1.9 1.6 2.9 0 .1.6 1.3.6.6 0-2.3-1.6-4.7-2.3-6.8-1-2.9-2.1-5.7-3-8.7-.3-1.4-.3-3.6-1.3-4.7-.8-.8 1 2 1.5 3l4.5 7.5c1.7 3.3 3.2 6.6 5.1 9.7.6 1-.5-1.6-.6-1.8-1.5-3.4-2.6-6.9-3.8-10.4l-3-9c-.2-.7-.8-2.8-.8-2 0 1 .6 2.1 1.1 3 1.6 3.3 3 6.5 4.8 9.6l4.6 8c.5.8 1.1 2.3 1.9 3 1.4 1.4-1.5-3.6-2.4-5.4-2-4.3-3.7-8.7-5.3-13.2-1-2.4-1.6-4.9-2.5-7.3-.2-.5-.4-1.2-.3-.3 0 2.5 1.6 5.2 2.6 7.4 1.4 3 3.1 6 4.7 9 1 2 2.2 4 3.4 5.7.7 1.1-.7-2.4-1-3.6-1.3-3.7-3-7.3-4.7-10.7a77.5 77.5 0 0 1-3.4-8.6c-.2-.6-.4-1.4-.8-2-2.9-4.2 4.8 9.2 7.2 13.8 1.9 3.4 3.3 7 5 10.6.2.1.8 1.2 1 1.2.7 0-.2-1.3-.6-1.8a79 79 0 0 1-5.2-10.3c-1.4-3.2-2.4-6.7-3.8-10-.3-.6-.7-2-1.3-2.5l1.7 3.3 6 10.7c1.9 3.7 4.1 7.2 6 11 1 2.3 2.3 4.5 3.6 6.7.2.4.7 1.5.6.4 0-.6-.5-1.2-.7-1.7l-2.6-5-5-10c-.9-1.8-1.9-3.7-3-5.5-.9-1.3-.6 1.4-.6 1.8C49 44.9 52 51 54 57.6c.1.3.9 2 .5 1.5-.6-.7-1-1.7-1.5-2.6-1.4-3.4-2-7.2-3.4-10.6A37.2 37.2 0 0 1 47 34.6c-.2-2.3 0-4.7-.2-7 0-.2-.3-2.7-.5-2.6-.5 0 1.6 5.7 1.8 6.2l2.2 6.6c.2.6.6 2.6.6 1.9 0-.9-.6-1.8-1-2.6l-2-5-3.5-7.3-1.6-3.5c-.3-.8-.7-1.9-.8-2.7a172 172 0 0 1 4 8.9l.8 1.8s0 .5.2.4c.7-.8-1-5.4-1.3-6.4l-1.2-7.2c-.1-.5-.3-1.2-.3-.2.2 2 1 4.2 1.8 6 .6 1.8 1.4 3.5 2.4 5 .3.4.7 1.7.5.2-.5-4-1.4-7.8-1.4-11.8 0-1.2.4 2.3.8 3.3l2 6.6s.6 2.3.8 2c.1-.2-.4-1.5-.4-1.6a79 79 0 0 1-1.4-10.4c-.1-1.6.3.5.5 1 .8 2.4 2 4.6 3.1 6.8.8 1.5 2 3 2.6 4.5.2.5 0-.3-.4-.6-1-1.2-2-2.7-2.8-4-.8-1.5-1.8-3.4-2-5.1v-.2c.3.8.9 1.6 1.4 2.3 2.2 3.4 4.2 6.8 6 10.4 1.9 3.9-3.5-7.8-4.9-11.9l-.8-2.4c.8 2.5 2.7 4.7 4 7L63 33.3l5.8 9.5c.4.6.8 1.8 1.4 2.3.2.1-1-3.1-1.3-3.5-2.3-4.5-5-8.8-7.4-13.4l-2-4c-.1-.3-.3-1-.6-1.2l.2 1c1.2 3 3.4 6 5.1 8.7 4.5 7.1 9.6 13.8 13.9 21l2.1 4c.2.3 1.2 1.7 1 2.1-.2.6-.7-1-1-1.6-2.7-3.8-5-7.7-7.4-11.6-3.5-5.7-7.5-11-11.7-16.2-1-1-2-2-2.9-3.2 0 0-.8-1-.8-.8-.3 1.3 1.5 3.8 2 4.7 2.2 4.1 4.9 8 7.5 11.9 3.4 5 7 10 10.2 15.2.4.6 1.6 2.3 1.1 1.8-1.6-1.8-3-3.9-4.6-5.8-5.8-7.4-11.1-15-16.3-23-1-1.4-1.8-2.9-2.7-4.3 0 0-.8-1-.8-.8-.4.9.5 2.6.8 3.4 2.2 5.2 5 10.2 8 15 3.3 5 6.8 10 10 15l1 1.4c1.3 1.2-1.9-2.8-2.8-4.1A256.5 256.5 0 0 1 49.4 23v.5c0 2.4.8 4.9 1.6 7.1 2.4 7 6 13.4 8.6 20.3l1.2 3.3c.2.4.3.7 0 0l-2.1-5.8c-1.7-4-3.8-7.7-5.4-11.7-.2-.5-1.2-2.2-1-2.7 0-.2.2.4.3.5l1.5 2.8c3.8 6.5 8.3 12.6 13 18.5 1.1 1.6 2.3 3.3 3.6 4.7 0 0 1.4 1.6 1.3 1-.2-2-1.2-3.8-2-5.4-3.5-6-7.4-11.8-11-17.7-2.8-4.5-5.3-9-7.9-13.7-2-3.6 3.8 7.3 6 10.7 4.4 6.5 9 12.8 14.5 18.3.5.6 4 4 3.4 1.1-.7-3-2.5-6-3.9-8.7l-3.7-7.2-2.7-6c-.3-.6-1-1.6-1-2.3 0-1 1.2 1.6 1.7 2.4 4.8 6.6 10.1 12.8 15.3 19.1 1.4 1.7 2.8 3.4 4 5.2.1.2 1 1.4 1 1.2-.8-1.7-2-3.1-3-4.6-1.8-3.3-3.3-6.8-4.9-10.2-2-4.8-4.3-9.7-7-14.2-1-1.8-2.5-3.3-4.1-4.6-1-.9-2.4-1.7-3.4-2.7 0 0-.4-.4-.3-.1.2 1.5 2 3.6 2.7 4.8 5.6 8.8 11.7 17.3 17.5 26 1.2 1.7 4.3 7 3.5 5L85 55.2l-8-13c-2.5-4.2-4.7-8.6-7-13-.7-1.1-1.8-2-2.8-3-.1-.1-.7-1-1-.5-.4.5-.2 1.6-.2 2.1a18 18 0 0 0 2.8 7.7A71.6 71.6 0 0 0 77 46.9c-1-1.5-2.2-2.8-3.3-4.3-3.6-4.4-7-8.9-9.8-13.8-.6-1.1-2.2-4.6-1.8-3.3A230.2 230.2 0 0 0 80.6 49c.6.6 3.2 3.6 2.1 1-1-2.8-3-5.2-4.7-7.5-3.1-4.5-6.3-8.9-8.9-13.7-1-1.7-1.8-3.5-2.5-5.3-.3-.7-.8-1.7-.6-2.4 0-.2.1 0 .2.1l2.4 3.8c2.8 4.2 6 8.3 9 12.4l7 9.4c.8 1.3 2 2.4 2.8 3.7 1 1.5.6-.2.4-1-1-2.9-2.6-5.5-4-8-2.3-4-4.7-7.8-7.1-11.6l-3.2-5c-.2-.2-1-1.5-.5-.3.7 1.8 2 3.2 3.2 4.7l7.2 9c2.9 3.4 5.9 6.8 8.4 10.6 1.3 1.8-1-2.4-1-2.5-3.7-5.8-8.5-11.5-11-18l-1-2.8c0 1.2 1.1 2.4 1.8 3.3 2.2 3.3 4.2 6.6 6.5 9.9l6.6 10 .4.6c0-1.3-.9-2.6-1.4-3.8-2-4-3.4-8.4-5.6-12.5-.8-1.6-1.7-3.7-2.9-5l.6 1 3.8 6.6 1.8 3.2c.9 1.4-1.6-2.8-2.6-4.1-4.7-6.3-10.4-12.1-14.2-19-.5-.9-.8-1.8-1-2.7A46 46 0 0 0 78 23.2c.2.3.7 1.3.8 1 .1-.7 0-1.3-.2-1.9l-1.4-5-.3-.8c0 1.4 1.4 3.3 2 4.4l3 4.5c.3.2 1.1 1.8 1.5 1.8.6 0-.4-1.2-.6-1.7-1.4-3-3-5.9-4.3-8.9-.7-1.7-2.4-7.1-2.3-5.2.2 3.5 2.7 6.9 4.7 9.6.2.2 2.2 3.3 2 1.9-.6-2.5-2-4.7-2.5-7.3-.2-1.4-.1-.7.3.4.2.7.8 2.2 1.4 2.8.8.8-.6-2.4-1-3.5 0-.4-.3-2-.5-1-.3 1.4-.5 2.7-1.4 4-.7 1-2.5.4-3.4.1-.9-.2-3-.7-3.3.4-.5 1.4 0 3 .8 4 1.4 1.8 0-2-.4-2.7-.1 0-.1-.3-.1 0 0 1.2 0 2.4.4 3.6.3 1.6 1 3 1.6 4.4.4.9.6 1.8 1 2.5l-3-3.5c-.8-.8-1.4-1.8-2-2.7-.3-.4-.5-1.1-1-1.4a44.9 44.9 0 0 0 3.3 7.2l4.7 7.1c1 1.5 2 3.2 3.2 4.5.6.6.5 0 .3-.5-.5-1.7-1.3-3.3-2-4.9-1.2-3-2-5.9-2.5-9l-.1-1 1 1.4c.4.7 1.7 3.9 2.7 4 .5.2-.2-1-.4-1.5-1-2-2-3.8-3.3-5.6-.4-.6-2.1-3.4-1.6-1.2.5 2.3 1.6 4.5 2.4 6.7 1.6 4 3 7.9 4.4 11.9 1.3 3.7 2.3 7.7 4 11.2.4.7.4 0 .4-.3 0-1.2-.4-2.2-.8-3.3a1047.7 1047.7 0 0 1-1.3-3.8c-.4.3 3.7 6.8 4.1 7.5.8 1.3 1.6 2.6 1.6.4 0-1.5-.3-3-1-4.3-.2-.6.7 1.3 1.1 1.8.8.7 1.2.9.8-.4-.6-2-1.8-3.4-3-5-1.6-2.3 3 4.9 3 7.6 0 1-.5 1-1.3 1.1a89.5 89.5 0 0 1-32.7-3c-1.3-.3-2.8-1-4.1-1-.4 0 .4.7.7 1l3.6 3.3c1 .7 2.5 2 3.2.4 1-2.5 1.2-6.3.6-9 0-.1-.3-1.1-.4-1-.1.8.5 1.8.8 2.5.2.5 1.8 4.4 1.6 2-.1-2-1.4-4-2.5-5.6-2.3-3.8-5-7.2-7.5-10.9l-2.6-3.7c-.5-.7-.6-.2-.4.4 2.4 7 6.3 13.6 10 20 .4.7 1.1 1.6 1.4 2.4.2.9-1-1.4-1.6-2.2-3-4.2-5-8.8-7-13.6l-1-2c-.1-.6.3-.1.4 0 2 1.3-3.4-3.7-4-6-.6-1.6 1.4-1.6 2.6-1.8 2.4-.4 5-1 6.6-2.7.7-.7 1.2-1.8 1.2-2.8 0-.3-.3-1.7 0-1.7.9 0 1.2.5 2 .6.3 0 .6-.1.8.2" stroke="#FFD424" stroke-width="2.5" stroke-linecap="round"/><path d="M23 70.3c0 .3 2 1.7 2 1.7.3-.3-1.3-3.4-1.3-4-.1-.8.2-.2.8.2 1 .8 2 1.9 2.9 2.8.3.5.8.8 1.2 1.2l.6.5c.1-.6-1.4-1.9-1.7-2.4-.5-.7-1.1-1.3-1.4-2-.4-.9 1.8 1.4 2 1.6 1.2 1 2.5 1.7 3.5 2.7.3.3 1.3.9.8.1l-2.4-3c-.5-.6-.8-1.1.3-.7 2.2 1 4.2 2.5 6.3 3.7.4.3 1.9 1.3.8.3l-2.7-2.6c-.2-.3-1.2-1.1-.3-.9 1.5.3 3.5 1.5 4.7 2.4.5.3 1.8 1.3 2.4 1.3l-2-2.2c-1-.9-1.6-1.6 0-.7 1.6 1 3.3 2 5 2.8 1.5.6 1.2.4.4-1-.3-.5-1.2-1.4 0-.9 1.4.6 2.8 1.6 4.3 2 .3 0 2 .7 1.7 0-.4-.8-1.2-1.3-1.5-2-.3-1.3 4.2 1.8 4.4 1l-.5-1.4c1-.4 2.8 1 4 1" stroke="#C6C6C8" stroke-width="2.5" stroke-linecap="round"/><path d="M78 23.2V20c0-.3-.2-.6-.4-.9-.1-.2-.2-.4-.2 0v3.1c-.2 0-.4-.6-.4-.7-.2-.8 0-1.7-.4-2.4 0-.1 0-.3-.3-.3-.2 0 .1.5.2.7.2.6 0 1.2 0 1.8M46.8 24c0-1-.3-1.9-.6-2.8-.1-.5-1.1-1.8.1-.8a7 7 0 0 1 1.5 1.8c.2.4.5 1 1 1.2.2.2-.5-1.8-.6-2-.3-.8-.3-1.8-.7-2.5" stroke="#171717" stroke-width="2.5" stroke-linecap="round"/><path d="M49.2 39c6.8 3.8 23.6 8.9 36.6 0m-30-.9-5.2 5.7m29.6-5.7 5.6 5.7" stroke="#171717" stroke-width="2.5" stroke-linecap="round" stroke-linejoin="round"/><path d="M68 91.1c1.8 0 3.7.2 5.4 0 .4 0 .8-.2 1-.5.3-.2-.3.6-.6 1-1.2 1.2-3.7 1.4-5.2.4-.2-.1-.4-.3-.5-.6-.2-.4-.1-.2.3 0 1 .2 2.1.6 3.2.7h1.2c-.4-.2-1 0-1.5 0-.1-.1-.7-.3-.2-.3.4 0 1 0 1.4-.3.3-.2-.4 0-.5 0" stroke="#C6C6C8" stroke-width="2.5" stroke-linecap="round"/><path d="M108.4 64.1c-36.1 11.8-76.3 5-91.9 0l13.2-12c32.8 8.3 56.7 3.5 64.6 0l14.1 12ZM70.7 20.7v-2a6 6 0 1 1 12.1 0v7.8M53.6 26.7v-8a6.1 6.1 0 1 0-12.3 0v8A30 30 0 0 0 30 51.9" stroke="#171717" stroke-linecap="round" stroke-linejoin="round"/><path d="M54 20.6c12.8-2.5 38.8.5 40.2 31.7M23.6 66.3c-1.4 5-2.1 10.3-2.1 15.6 0 36 21.7 43.5 39.7 43.5 17 0 37.3-8.8 37.7-40.7-.1-5.2-.8-11.2-2.4-17.3" stroke="#171717" stroke-linecap="round" stroke-linejoin="round"/><path d="m72 123.4 1.2 37.2 8 2.1M45.3 123.4l1 37.2 8 2.1M31 81v49.3m0 0h-9.4m9.3 0-6.6-5.4M98.2 80.2v49.4m0 0h-9.3m9.3 0-6.6-5.4" stroke="#171717" stroke-linecap="round" stroke-linejoin="round"/><path d="m96 128.6-.6-.3-1.4-1.2-1-.8-1.2-.9-.5-.6" stroke="#171717" stroke-linecap="round"/><path d="M71.6 85.7c5 0 9.1-3.5 10-8.2.2-1-.7-1.8-1.7-1.8H63.2c-1 0-1.8.8-1.6 1.8.8 4.7 5 8.2 10 8.2Z" stroke="#171717"/><path d="M72.5 123.6c0 2.9-.1 5.8.5 8.6.2.9 0 2 0 2.8l.1 2.5v2.2l.1 1.6M45.6 123.6c0 2.9 0 5.8.6 8.6.2.9 0 2 0 2.8l.1 2.5v2.2c0 .5-.1 1.2.1 1.6M73.2 141.3c0 1.2.3 2.3.3 3.5l-.2 4.8v5.8c0 1.8.4 3.3 1 5M46.4 141.3l.2 3.5v10.6c0 1.8.2 3.3.8 5M74.3 160.4c1 0 1.7 0 2.6.2.4.1 1 .4 1.3.8.3.3.9.4 1.3.5.5.2.9.3 1.3.6M47.5 160.4c1 0 1.7 0 2.6.2.3.1 1 .4 1.3.8.3.3.8.4 1.3.5l1.2.6M97 68.8c.3.7.3 1.5.3 2.2l.2 1.9c.1 2.8.6 5.6.6 8.4M98 81.2V94c0 1 0 1.8-.3 2.7l-.6 2c-.1.5-.1 1-.4 1.5-.4.8-1.1 1.5-1.4 2.4l-.5 1.8M94.7 104.5c0 .7-.3 1-.7 1.4-.3.5-.3 1.2-.6 1.7-.3.7-.3 1.4-.9 1.9-.6.6-1.4 1.1-2 1.8-.5.4-.6.8-.9 1.3-.3.8-1.1 1.2-1.6 2-.8 1.3-2.5 1.9-3.5 3l-1.7 1.4c-.3.3-.8.4-1.2.7l-1.3 1c-.5.1-1.1.3-1.5.7-1 .8-2.4.7-3.4 1.3a4 4 0 0 1-1.2.4c-.6 0-1 .4-1.6.4M72.6 123.3c-1 0-1.8 0-2.7.4-.6.2-1 .7-1.6.9l-1.8.4c-1.4.2-2.8.7-4.2.7h-4c-2.4 0-4.7-1-7-1-1.2 0-2.1-.8-3.2-1.1-.4-.1-1-.2-1.2-.5l-.7-.8M46.2 122.8c-.7 0-1.1-.4-1.7-.6L43 122l-2.3-1c-.8-.5-1.6-.8-2.3-1.4l-1-.8c-.4-.4-.7-.9-1.1-1.1-.6-.4-1.3-1.2-1.8-1.7-.6-.5-.9-.6-1.3-1.2l-1.3-1.3-.6-.5c-.2 0-.2-.4-.4-.5l-1-.8c-.5-.2-.8-1-1.4-1M29 111.1l-.3-1.9" stroke="#171717" stroke-width="1.5" stroke-linecap="round"/><path d="M29.9 111.3c-.6 0-1.3-1.2-1.7-1.6-.4-.3-1-.8-1-1.3 0-.6-.4-1.2-.6-1.8a7 7 0 0 0-.7-1.6c-.6-1-1.4-1.7-1.5-3l-.4-2-.4-2c-.3-.5-.2-1.3-.4-2-.1-.6-.4-1.2-.4-1.8v-5.3c0-.3-.3-.6-.3-1 0-.8-.3-1.8-.5-2.6l-.1-1.4M21.8 83.9c0-1.4-.2-3 .2-4.3.5-1.7.2-3.8.2-5.6 0-1.7.4-3.8 1.3-5.3.4-.6.5-1.5.7-2.1" stroke="#171717" stroke-width="1.5" stroke-linecap="round"/><path d="M21 130h5.5c1 0 2 0 3-.2.4-.2.8-.2.8-.7v-1.3c0-2 1.2-4 1.2-5.9 0-2.2-1.4-3.8-1.2-6 .1-1.3-.6-3-.3-4.2.4-1.4.7-3.2.7-4.7l.2-4.3c0-1.1-.3-3 0-4 .4-1 .2-2.3.4-3.3.2-.8-.1-1.7.1-2.4.2-.5 0-1 0-1.6v-4.1c0-.6.3-2.3-.2-2.6M88.3 129.3h5.5c1 0 2 0 3-.2.4-.2.8-.2.8-.8V127c0-1.8 1.2-3.9 1.2-5.8 0-2.2-1.5-3.9-1.2-6 0-1.3-.6-3-.3-4.2.4-1.4.7-3.2.7-4.7l.2-4.3c0-1.2-.4-3 0-4s.1-2.3.4-3.4v-2.4c.2-.4.1-1 .1-1.5v-4.2c0-.5.3-2.3-.3-2.5" stroke="#171717" stroke-width="1.5" stroke-linecap="round"/><path d="M24.1 125.3c.3 0 .7.4 1 .6.2.4.5.4.8.7l2.2 1.4c.5.4 1 .7 1.1 1.3l.2.7c0 .2.3.2.4.4M16.5 64.6c1.1 0 2.2.3 3.3.6.8.2 1.6.9 2.5 1 .5 0 1 .3 1.6.4l2.2.5 7.2 1.7c3.7.8 7.4.7 11 1.2 2 .3 3.9.8 5.8.8M50.2 70.8c1.5 0 3 0 4.5.3 1 .2 1.8.4 2.8.4l5 .2 6.9.3c1.8 0 3.4-.4 5.2-.7 1-.1 1.9-.5 3-.5a13 13 0 0 0 4-.8c1.9-.7 4-.6 6-1M87.7 68.8H91c1 0 2 .2 2.9-.2 2.3-1 4.7-1.8 7-2.7a11 11 0 0 1 4.4-.8c.5 0 2 0 2.2-.4" stroke="#171717" stroke-width="1.5" stroke-linecap="round"/><path d="M107.4 64.7h.6c.1-.4 0-.8-.2-1l-1.4-1.1c-.5-.2-.8-.8-1.2-1l-1.2-.9-2-1.5c-1.3-1.4-3.2-2-4.2-3.8-.4-.8-1-1.4-1.7-2-.5-.4-1.5-.9-1.9-1.5M93.8 51.9c0-2.8-.5-5.7-1.5-8.3-.7-1.7-.5-3.7-1.3-5.3-.8-1.6-2-3-2.8-4.4-.7-1.5-1.4-3-2.3-4.3M85.8 29.6c-.3 0-.8-1-1-1.3-.2-.5-.5-.8-.8-1.1-.2-.3-.3-.4-.6-.5-.3-.2-.4-.5-.7-.6" stroke="#171717" stroke-width="1.5" stroke-linecap="round"/><path d="M82.8 26.2c0-1.8.1-3.5.3-5.3 0-.7.3-1.4.3-2.2 0-.4.2-1.6 0-1.9-.2-.2-.3-.6-.4-1l-.7-1-.8-1a5.3 5.3 0 0 0-2.6-1.9c-.8-.2-2.6-.5-3.4-.1-.5.2-1.1.3-1.5.8l-.7 1c-.2.3-.3.3-.6.5-1 1-1.6 2-1.6 3.4V21M70.2 20.3c-.8 0-1.6.1-2.3-.3-.6-.3-1.3-.2-2-.4-1.3-.3-2.7-.3-4-.3-1.5 0-3.2-.4-4.6 0l-2.3.8-1.7.1" stroke="#171717" stroke-width="1.5" stroke-linecap="round"/><path d="M54 26.8V19c0-.8-.3-1.5-.4-2.4a3 3 0 0 0-.8-1.7c-.3-.4-.7-.6-1-.8-.2-.2-.8-.4-.9-.7-.4-.7-2.3-1.3-3-1.3-1.1 0-2.5.2-3.4.7l-.8.7-1 1c-.6.4-1.6.8-1.6 1.6 0 2.1-.5 4.5 0 6.5.2.8 0 1.8.3 2.6.2.5 0 1.8.6 1.8M41.7 27.2c-.5 0-1 .7-1.4.9l-1.3.7c-.4.2-1 1-1.3 1.3l-1.6 1.7c-.6.5-1.6 1.1-1.9 1.9l-.6 2c-.4 1.2-1.4 2.2-1.8 3.4-.8 2.2-2 4.8-2 7.2 0 1.1 0 2.3-.2 3.4l-.2 1.7c0 .3.1 1-.1 1.1M28.8 51.9c-.3 0-.7.9-1 1.1l-.8 1-1 1c-.5.2-.7.6-1.1.9l-1 .9-1.4 1.1c-.7.7-1.8 1-2.4 1.7-.7.7-1.1 1.4-2 2-.3.1-.5.6-.8.8-.3.2-.6.3-.7.6-.3.3-.7.6-.6.9 0 .3.2.5.6.6.8 0 1.6.6 2.5.7M93.3 51.9c-.8 0-1.4.2-2.2.5-.4 0-.7.3-1 .5-1.3.6-2.6.9-4 1.2-1.5.3-3 1-4.5 1-1.4 0-3 .2-4.4.5H74c-.5 0-.9.3-1.4.3h-6.9c-.2 0-1 0-.7.3" stroke="#171717" stroke-width="1.5" stroke-linecap="round"/><path d="M65.3 56.2h-2.8c-1 0-2-.3-3.1-.3l-1.1-.3h-1.2c-1 0-1.9-.2-2.8-.4-1.9-.4-4-.2-6-.2-.4 0-1.2 0-1.6-.2-.5-.2-1 0-1.5 0l-1-.1c-.2 0-1.3-.2-.7-.2M44 54.5c-1.4 0-2.4 0-3.6-.5-.6-.2-1-.6-1.6-.7l-1.8-.2c-.6 0-1.1-.3-1.7-.4l-2.4-.4-2.3-.4-.7-.2M106.4 63.1c-.7 0-1.4.5-2 .7l-3 1c-2 .4-4.3.5-6.4.8-1.4.2-2.8.6-4.1 1-1.5.3-3 .3-4.6.4-3 .2-5.9 1-8.8 1-3.6 0-7.1-.4-10.7-.4h-8.7c-1.7 0-3.4.2-5-.2-.3 0-1.7-.3-1.2-.3" stroke="#171717" stroke-width="1.5" stroke-linecap="round"/><path d="M52 67.2H47c-1.1 0-2.1-.3-3.2-.6l-2-.2c-1.3 0-2.6-.2-4-.4-2.1-.3-4.1-1-6.2-1.8-1.6-.5-3.2-.6-4.8-1-1.3-.3-2.6-.7-4-.9-.7-.1-1.4-.5-2.2-.5-.3 0-1.5-.1-.5-.1M104.1 61.3h-4.3c-1.8 0-3.5.4-5.3.7-4.6.9-9.2 2-13.9 2.2-5.3.3-10.8 0-16.1 0H59.8c-.2 0-.9.2-.5 0M59.4 64.1h-8.8c-2.7 0-5.6-.2-8.3-.7-1-.1-2-.5-3-.5l-3.5-.3c-3-.6-6.1-1-8.9-2.6-.6-.4-1.3-1-2.1-1.2-.5 0-1.7-.3-.4-.3M46.4 60.4c-2.3 0-4.5.1-6.7-.4-2.3-.5-4.8-.7-7.1-1.2l-4.8-1.3c-.5-.2-1.7-.7-1.9-1.1M96.3 54.6c-1.4 0-2.8.8-4.2.9-1.6.1-3.2 1-4.9 1.3l-4.2.7c-2.3.6-4.6.8-7 1l-3.5.3c-.8 0-1.6-.2-2.4-.1H68l-2.6.1h-6M59.3 58.8c-3.7 0-7.5.2-11.2-.5-.8-.2-1.6-.6-2.3-1l-2-.4c-.5-.1-1-.3-1.6-.3-.2 0-1-.1-1-.3" stroke="#171717" stroke-width="1.5" stroke-linecap="round"/><path d="M42.2 56.4c-1.9 0-3.7 0-5.5-.3-1.4-.3-2.7-.3-4-.6l-3-.5c-.3 0-1.9-.2-1.9-.5M61.5 75.7l1.3-.3 1-.2c1.4-.2 3 0 4.4 0 1.3 0 2.5 0 3.7.2l2.8.2 1.1-.1 1.4-.2h2c.4 0 1 0 1.5.2.4 0 .8 0 1.1.2" stroke="#171717" stroke-width="1.5" stroke-linecap="round"/><path d="M81.8 75.7c.5.3.5 1 .6 1.4v1.2c-.1.3-.4.5-.5.9-.2.6-.5 1.2-1 1.8l-.6.9-.8.8c-.6.8-1.4 1.1-2.1 1.7-.3.3-.8.5-1.2.7l-1.2.5-1 .4c-.2.2-.8.2-1.1.2l-1.3.1-1 .2M70.7 86.4l-2.4-.1c-.4 0-1-.2-1.3-.5-.2-.2-.5-.2-.7-.5l-.9-.8-.8-.7c-.2 0-.2-.3-.4-.4l-.4-.7-.9-1-.3-.6-.3-.5-.5-1a2 2 0 0 1-.3-.6l-.1-.6v-2.5" stroke="#171717" stroke-width="1.5" stroke-linecap="round"/></g><defs><filter id="a" x=".4" y=".5" width="123.9" height="182.5" filterUnits="userSpaceOnUse" color-interpolation-filters="sRGB"><feFlood flood-opacity="0" result="BackgroundImageFix"/><feColorMatrix in="SourceAlpha" values="0 0 0 0 0 0 0 0 0 0 0 0 0 0 0 0 0 0 127 0" result="hardAlpha"/><feOffset dy="2"/><feGaussianBlur stdDeviation="1"/><feComposite in2="hardAlpha" operator="out"/><feColorMatrix values="0 0 0 0 0 0 0 0 0 0 0 0 0 0 0 0 0 0 0.02 0"/><feBlend in2="BackgroundImageFix" result="effect1_dropShadow_716_1741"/><feColorMatrix in="SourceAlpha" values="0 0 0 0 0 0 0 0 0 0 0 0 0 0 0 0 0 0 127 0" result="hardAlpha"/><feOffset dy="4"/><feGaussianBlur stdDeviation="4"/><feComposite in2="hardAlpha" operator="out"/><feColorMatrix values="0 0 0 0 0 0 0 0 0 0 0 0 0 0 0 0 0 0 0.06 0"/><feBlend in2="effect1_dropShadow_716_1741" result="effect2_dropShadow_716_1741"/><feBlend in="SourceGraphic" in2="effect2_dropShadow_716_1741" result="shape"/></filter></defs></svg>