<svg width="118" height="115" fill="none" xmlns="http://www.w3.org/2000/svg"><mask id="a" maskUnits="userSpaceOnUse" x=".762" y="-.562" width="117" height="116" fill="#000"><path fill="#fff" d="M.762-.562h117v116h-117z"/><path fill-rule="evenodd" clip-rule="evenodd" d="M46 82.229c-.55-.333-1.091-.67-1.624-1.012l-25.179 23.839a6.184 6.184 0 0 1-8.76-8.722l22.516-23.993c-3.026-2.82-5.401-5.473-7.045-7.574-.882-1.126-.868-2.684-.021-3.837C40.75 40.704 65.951 21.71 82.682 10.858c5.665-3.674 12.99-3.068 18.249 1.168a16.297 16.297 0 0 1 4.865 6.495c2.599 3.736 4.652 16.371 1.99 19.643-2.66 3.269-10.959 12.893-20.367 23.805-7.836 9.088-16.441 19.068-23.199 27.012-2.405 2.827-6.65 3.177-9.474.77l-8.76-7.468.015-.054Z"/></mask><path fill-rule="evenodd" clip-rule="evenodd" d="M46 82.229c-.55-.333-1.091-.67-1.624-1.012l-25.179 23.839a6.184 6.184 0 0 1-8.76-8.722l22.516-23.993c-3.026-2.82-5.401-5.473-7.045-7.574-.882-1.126-.868-2.684-.021-3.837C40.75 40.704 65.951 21.71 82.682 10.858c5.665-3.674 12.99-3.068 18.249 1.168a16.297 16.297 0 0 1 4.865 6.495c2.599 3.736 4.652 16.371 1.99 19.643-2.66 3.269-10.959 12.893-20.367 23.805-7.836 9.088-16.441 19.068-23.199 27.012-2.405 2.827-6.65 3.177-9.474.77l-8.76-7.468.015-.054Z" fill="#fff"/><path d="m44.376 81.217 4.315-6.737-5.27-3.375-4.545 4.303 5.5 5.809Zm1.625 1.012 7.7 2.168 1.65-5.858-5.206-3.153L46 82.229Zm-26.804 22.827 5.5 5.809-5.5-5.809Zm-8.266.213-5.195 6.084 5.195-6.084Zm-.495-8.935-5.833-5.475 5.833 5.475Zm22.517-23.993 5.833 5.475 5.494-5.854-5.873-5.474-5.454 5.853Zm-7.045-7.574 6.3-4.93-6.3 4.93Zm-.021-3.837-6.447-4.737 6.447 4.737Zm56.795-50.072L78.33 4.146l4.353 6.712Zm18.249 1.168 5.019-6.23-5.019 6.23Zm4.865 6.495-7.396 3.05.332.805.498.715 6.566-4.57Zm1.99 19.643 6.205 5.049-6.205-5.049ZM87.419 61.97l6.059 5.224-6.059-5.224ZM64.22 88.981l6.094 5.184-6.094-5.184Zm-9.474.77-5.19 6.087 5.19-6.088Zm-8.76-7.468-7.701-2.168-1.389 4.932 3.9 3.324 5.19-6.088Zm-5.924 5.67c.588.377 1.186.75 1.794 1.119l8.289-13.686c-.492-.298-.977-.6-1.454-.906l-8.63 13.474Zm-15.365 22.912 25.18-23.839-11-11.618-25.18 23.839 11 11.618Zm-18.96.488a14.183 14.183 0 0 0 18.96-.488l-11-11.618a1.816 1.816 0 0 1 2.428-.063L5.736 111.353ZM4.602 90.86c-5.54 5.903-5.023 15.237 1.133 20.493l10.389-12.169c.788.673.854 1.869.145 2.624L4.603 90.859Zm22.516-23.993L4.603 90.859l11.667 10.949 22.516-23.992-11.667-10.95Zm-7.51 2.831c1.913 2.446 4.574 5.406 7.89 8.496l10.908-11.706c-2.736-2.549-4.825-4.896-6.2-6.652l-12.599 9.862Zm-.169-13.505c-2.86 3.891-3.04 9.407.168 13.505l12.6-9.862a4.838 4.838 0 0 1 .126 5.831L19.44 56.193ZM78.33 4.146C61.377 15.141 35.181 34.772 19.44 56.193l12.894 9.474c13.984-19.031 38.192-37.39 54.701-48.097L78.33 4.146Zm27.621 1.65C98.185-.46 87.089-1.535 78.329 4.146l8.707 13.424c2.57-1.667 6.125-1.531 8.876.686l10.038-12.46Zm7.242 9.676a24.292 24.292 0 0 0-7.242-9.676l-10.038 12.46A8.298 8.298 0 0 1 98.4 21.57l14.792-6.099Zm.799 27.741c2.273-2.794 2.777-6.292 2.945-8.311.2-2.416.064-5-.234-7.38a45.999 45.999 0 0 0-1.447-7.066c-.596-2.033-1.502-4.506-2.892-6.504L99.23 23.091c-.09-.13.234.377.671 1.866.386 1.317.721 2.926.925 4.554.207 1.655.247 3.077.165 4.067-.02.232-.043.412-.065.542-.023.133-.039.189-.037.181.001-.004.034-.117.123-.305.089-.186.263-.506.568-.88l12.411 10.097Zm-20.513 23.98c9.345-10.838 17.76-20.595 20.513-23.98L101.58 33.115c-2.565 3.153-10.748 12.645-20.22 23.63l12.118 10.448ZM70.314 94.165c6.736-7.92 15.323-17.878 23.164-26.972L81.36 56.745c-7.83 9.081-16.455 19.084-23.233 27.052l12.187 10.368Zm-20.758 1.673c6.206 5.29 15.501 4.506 20.758-1.673L58.127 83.797a1.28 1.28 0 0 1 1.808-.135l-10.38 12.176Zm-8.76-7.467 8.76 7.468 10.38-12.177-8.761-7.467-10.38 12.176Zm-2.496-8.31-.015.054 15.401 4.336.015-.054L38.3 80.06Z" fill="#fff" mask="url(#a)"/><path d="M69 20.393c.061.603.572 1.152.776 1.724.234.657.453 1.294.776 1.915.965 1.852.582-1.206.582-1.915 0-1.226-.112-2.513.108-3.725.021-.116.47-1.882.862-1.554 2.048 1.718 2.686 5.592 3.202 8.024.159.75.254 2.77.916 3.342.04.034.12-2.506.108-2.725-.146-2.575-.345-5.155-.345-7.736 0-.52.165-4.287.625-2.054.652 3.157 2.408 6.108 3.353 9.194.285.93.659 1.816.873 2.767.138.614.194.088.194-.202V16.455c0-.866-.16-1.685-.194-2.532-.014-.354.44.878.485 1.032.952 3.236 2.169 6.485 2.813 9.8.149.765.178 3.325.873 3.874.072.057.291.34.291.245V11.389c0-.849-.194-1.643-.194-2.49 0-.41-.242-.408-.15 0 .309 1.374.934 2.701 1.325 4.055.627 2.166 1.364 4.335 1.811 6.545.315 1.55.388 3.137.701 4.682.402 1.985.421 4.017.873 5.98.316 1.373.074 2.96.097 4.364.023 1.362.375 2.68.776 3.97.076.24.194.986.194.733 0-1.418.172-2.839.238-4.256.164-3.587.286-7.136.69-10.706.33-2.927.895-5.875 1.002-8.822.064-1.784-.069-3.07-.571-4.714-.205-.668-.195-1.332-.195-2.022 0-1.261.323.982.42 1.277.909 2.734 1.892 5.421 2.663 8.205.966 3.487 1.337 7.177 1.531 10.78.163 3.03.48 6.06 1.1 9.035.188.9.69 3.458.69 1.074 0-7.006-.245-14.077.668-21.038.208-1.59.575-3.212.679-4.81.008-.122.028-1.762.054-1.756.587.129 1.067 2.781 1.164 3.15.834 3.182 1.769 6.362 2.458 9.577.471 2.2.947 4.388 1.466 6.577.153.646.222 1.36.496 1.969.31.69.388-.236.388-.5V26.48c0-3.117.183-6.118-.582-9.142-.045-.174-.445-1.649-.539-1.649-.153 0 .094.286.15.426.189.464.36.937.539 1.404.575 1.499 1.213 2.967 1.779 4.47.588 1.56.981 3.206.981 4.874 0 .513-.373.809-.873.809-.92 0-.956-.83-1.11-1.575-.199-.96-.537-1.874-.733-2.831-.272-1.325-.233-2.693-.475-4.023-.473-2.604-2.657-4.613-4.861-5.938-.537-.322-1.163-.547-1.639-.957-.046-.04-.673-.622-.743-.533-.236.3.662 2.07.776 2.342 1.034 2.474 1.835 4.907 2.576 7.48.895 3.113 1.524 6.495 1.886 9.716.162 1.436.406 2.954-.334 4.268-.135.24.005.542-.118.755-.395.682-1.937-2.31-1.962-2.362-1.624-3.308-2.078-6.961-2.868-10.514-.717-3.227-1.662-6.425-2.22-9.684-.327-1.908-.701-3.8-1.175-5.672-.09-.353-.097-.682-.097-1.043 0-.502-.082 1.003-.151 1.5-.527 3.798-2.37 7.378-3.255 11.11-.253 1.065-.766 2.046-.852 3.15-.088 1.127-.036 2.297-.01 3.427.074 3.324.083-6.652.29-9.971.109-1.74.74-4.886-.528-6.417-.14-.17-.482-1.278-.528-1.075-1.07 4.752 1.4 9.492 3.33 13.675 1.832 3.966 3.644 7.707 3.644 12.142 0 1.49-.248 3.27.194 4.714.156.51.224 1 .194 1.532-.032.572-.656-1.232-.69-1.34-1.06-3.428-1.54-7.116-1.875-10.685-.044-.461-.139-.92-.151-1.383v-.49c-.077 0-.45 1.632-.485 1.746-.712 2.264-.767 4.963-1.844 7.087-.417.824-1.24.572-1.95.958-1.28.694-2.197 1.043-3.676 1.043" stroke="#FFD424" stroke-width="2.5" stroke-linecap="round"/><path d="M29 75.145v3.558c0 .053.024-.103.045-.151.125-.29.321-.559.482-.83.838-1.41 1.652-2.774 2.376-4.247.032-.065.261-.644.37-.426.233.467.32 1.303.403 1.815.297 1.837.504 3.718.662 5.571.013.156.083 1.86.51 1.3.834-1.095 1.044-2.764 1.406-4.057.156-.557.38-2.223.505-1.66.35 1.575.458 3.245.605 4.854.109 1.193.202 2.377.202 3.576 0 .476-.098 1.08.022 1.546.091.354.52-.636.544-.683a18.42 18.42 0 0 0 1.149-2.903c.291-.956.58-1.913.902-2.859.103-.302.308-.686.308-1.014 0-.822.101 1.643.101 2.466 0 .79-.055 1.605.023 2.393.012.128.006.676.134.768.245.175 1.9-2.392 2.057-2.6.267-.354.52-.814.89-1.071.213-.147.124.272.124.403M108.832 26c0 .677.25 1.274.47 1.9.185.53.178 1.063.484 1.538.328.51.589.967 1.023 1.401.306.307-.085-.221.014.227.2.897-.069.595-.279.387-1.047-1.032-2.216-2.283-3.59-2.863-.072-.03-.616-.346-.682-.242-.136.213.988 1.703 1.114 1.93.613 1.115 1.024 2.504 1.173 3.772.122 1.038.137 2.054.137 3.098 0 .764-1.531-.74-1.772-.924-.649-.495-1.55-1.579-2.386-1.765-.317-.07-.48-.374-.129.137a9.833 9.833 0 0 1 1.288 2.688c.159.53.211 1.068.348 1.598.086.333.315.678.333 1.023.018.341.223.624.265.961.033.26.009.434.114.675.051.117-.771-.429-.863-.493-1.507-1.043-2.515-2.75-4.151-3.567-.505-.252.613.579.818.863a7.03 7.03 0 0 1 1.227 2.984c.146.909.497 1.626.788 2.5.262.786-1.184-.662-1.386-.849-.735-.68-1.629-1.212-2.333-1.916-.071-.071-.846-.692-.719-.31.381 1.145 1.501 2.179 2.12 3.21.139.231.15.495.303.713.062.087-1.327-.45-1.507-.553a23.605 23.605 0 0 1-2.582-1.704c-.369-.281-.722-.69-1.144-.878-.456-.203.727.961.871 1.15.659.867 1.42 1.827 1.909 2.803.254.51.57.989.674 1.56.074.41-1.913-.755-2.174-.871-1.192-.53-2.385-.935-3.514-1.613-.444-.266-.327-.202 0 .136.707.731 1.364 1.561 2 2.355a11.317 11.317 0 0 1 1.756 3.174c.152.422-.7-.566-1.09-.788a21.156 21.156 0 0 1-2.893-1.977c-.387-.316-.962-.992-.341-.06a50.004 50.004 0 0 1 2.446 4.052c.118.218.394.634.394.9 0 .398-.611-.51-.94-.734-1.201-.824-2.392-1.617-3.74-2.181-.475-.199-.92-.42-1.409-.576-.243-.077.37.36.462.47 1.043 1.236 1.951 2.463 2.643 3.923.3.633-.29.81-.818 1.06-1.042.494-1.473-2.076-2.385-2.28-.456-.1-.625-.286-.614.326.029 1.525.583 3.111 1.06 4.544.282.844.648.685.841 1.553.062.276-.225-.296-.295-.371-.522-.558-.953-.188-1.477-.742-.885-.937-1.766-1.735-2.825-2.454-.121-.082-.475-.454-.348-.038.27.89.777 1.725 1.105 2.598.338.897.322 2.135.78 2.96.103.185-.907.415-.825.614.047.116.298-.596.204-.689-1.218-1.218-2.368-2.297-4.051-2.688-.156-.037-.449-.21-.303 0 .393.567.826 1.11 1.227 1.673.904 1.272.895 2.802 1.446 4.272.22.585-.415-.408-.795-.523-1.027-.31-2.123-.573-3.09-1.045-.783-.382-.954-.353-1.113-1.068-.03-.134-.227-.321.007-.235.308.114.752.03 1.076.03.494 0 .5.186.59.637.141.704.39 1.63.788 2.226M82 67.043c-.697-1.654-1.095-3.265-2.823-3.696-.067-.017-.708-.417-.708-.336 0 .73.691 1.815.985 2.425.884 1.84 1.338 2.36 2.159 4.204.353.793-.332.054-.897-.565-.876-.96-1.752-1.924-2.626-2.885-.336-.368-.652-.724-1.08-.95-.346-.183.07 1.134.102 1.245.35 1.223.761 2.46.92 3.737.023.192.406 1.553.262 1.656-.682.487-3.438-3.698-4.173-4.065-.191-.096.48 1.406.525 1.532.49 1.379.704 2.79.985 4.23.056.288.455 1.267-.197.9-.577-.323-.973-.923-1.379-1.458-.617-.814-1.14-1.463-1.838-2.073-.317-.278-.481-.539-.723-.877-.01-.016-.124 2.074-.102 2.4.052.743.06 1.853.336 2.541.229.572.264 1.178.423 1.77.087.325.36 1.253.16 1-.627-.793-1.194-2.332-1.999-2.884-.55-.379-1.086-.832-.496.147.985 1.633 1.62 3.703 1.934 5.638.088.545-.964.013-1.11-.082-.774-.505-1.471-1.333-2.027-2.114-.313-.44-.597-.835-.992-1.18-.16-.14-.344-.084-.46-.311-.15-.296-.46-.407-.708-.574-.356-.24.562.696.773 1.098.697 1.324 1.195 2.93 1.613 4.393.344 1.203-1.001-.363-1.255-.705-.645-.87-.877-2.288-1.736-2.77-.183-.102-.604-.443-.365 0 .553 1.028 1.054 1.95 1.415 3.098.366 1.161.637 2.428.847 3.638.08.47.319 1.31-.263.967-1.502-.883-2.183-2.651-3.137-4.114-.109-.166-.79-1.245-.92-1.245-.035 0 .205.403.22.426.244.377.44.762.627 1.18.371.835.776 1.79.919 2.713.038.246.256.56 0 .713-.198.117-.568.29-.788.229-1.67-.457-1.79-2.902-2.86-3.983-.083-.084-.41-.23-.525-.197-.108.03.309.681.314.689.363.567.687 1.13.97 1.754.636 1.403 1.024 2.774 1.415 4.277.114.438.292 1.784.292 1.328" stroke="#C6C6C8" stroke-width="2.5" stroke-linecap="round"/><path d="M63.173 88.98c0-1.558-.483-2.592-1.393-3.817-.156-.21-.288-.441-.515-.575-.2-.118-.273-.515-.273-.348 0 1.008.348 1.99.44 2.999.021.237.355 1.948.045 2.12-1.581.879-2.43-2.253-2.696-3.075-.02-.06-.376-1.199-.379-1.196-.16.16-.001 1.332 0 1.5.012 1.279.137 2.55.137 3.831 0 .453-.32.379-.682.197-1.364-.682-1.988-2.132-2.696-3.408-.163-.293-.493-.649-.712-.924-.085-.106-.692-.712-.545-.712" stroke="#C6C6C8" stroke-width="2.5" stroke-linecap="round"/><path d="M33.252 72.02 10.435 96.334a6.184 6.184 0 0 0 8.76 8.722l25.338-23.988" stroke="#171717" stroke-width="1.5"/><path d="M51.626 85.31C38.998 79.108 29.902 69.93 25.753 64.569c-.781-1.01-.772-2.402-.02-3.432 14.843-20.303 40.16-39.39 56.948-50.28 5.665-3.674 12.991-3.068 18.249 1.168 7.305 5.885 8.185 16.691 1.929 23.68L60.074 83.496c-2.14 2.392-5.567 3.23-8.448 1.814Z" stroke="#171717" stroke-width="1.5"/><path d="M105.725 18.422c2.632 3.605 6.729 12.6 2.06 19.742-4.27 6.53-29.075 33.982-44.009 51.365-2.169 2.524-5.969 2.832-8.501.673l-9.29-7.92" stroke="#171717" stroke-width="1.5"/><path d="M60.535 26.749c3.355-2.164 10.648-5.843 12.985-3.246 2.921 3.246-3.895 9.738-10.388 16.555-5.194 5.454-16.663 16.34-21.75 21.1" stroke="#171717" stroke-width="1.5" stroke-linecap="round"/><path d="M69.3 33.567c4.003-3.355 12.79-9.284 15.906-6.168 3.895 3.895-.974 11.686-11.037 22.723-8.05 8.83-14.392 16.015-16.556 18.503" stroke="#171717" stroke-width="1.5" stroke-linecap="round"/><path d="M80.338 42.98c3.03-2.597 9.738-7.077 12.335-4.22 2.597 2.857-.433 8.332-2.272 10.712" stroke="#171717" stroke-width="1.5" stroke-linecap="round"/><path d="M57.289 29.347c.932-.57 3.739-2.04 4.548-2.764 1.474-1.319 3.934-1.776 5.806-2.4.656-.219 1.491-.179 2.183-.248.57-.057 1.69-.171 2.166.28 1.251 1.185 1.576 3.347.832 4.893-.63 1.307-1.359 2.742-2.35 3.813-1.162 1.254-2.406 2.407-3.519 3.702-1.242 1.446-2.679 2.663-4.021 4.005-1.252 1.252-2.28 2.732-3.606 3.91-1.905 1.693-3.435 3.748-5.404 5.372-1.12.923-2.157 1.936-3.23 2.91-1.055.958-2.258 1.74-3.278 2.734-2.462 2.402-3.607 2.855-6.033 5.28" stroke="#171717" stroke-linecap="round"/><path d="M68.075 34.864c.936-.935 2.009-1.453 3.174-2.094 1.592-.876 3.622-2.359 5.278-3.15 2.268-1.085 4.422-2.945 6.947-1.232 1.753 1.19 1.95 4.78 1.4 6.556-.802 2.583-2.778 4.541-4.39 6.668-3.224 4.253-6.456 8.356-10.017 12.344-4.635 5.19-8.387 9.01-12.852 14.346M78.39 44.605c.655-.076 1.853-.505 2.391-.862 1.015-.671 2.07-1.246 3.086-1.927 1.724-1.155 3.533-1.715 5.397-2.456 1.453-.579 2.863.17 3.462 1.497.371.823.3 2.072.064 2.928-.498 1.8-1.268 3.558-1.871 5.326" stroke="#171717" stroke-linecap="round"/><path d="M28.88 57.158c0 1.612-1.638 4.07-2.698 5.25-1.153 1.28 1.535 3.742 2.306 4.513 1.28 1.28 2.856 2.194 4.145 3.483 1.236 1.236 2.21 2.652 3.704 3.581 2.83 1.761 5.641 3.496 8.548 5.14 2.329 1.315 4.424 3.113 6.623 4.635 1.141.79 2.334 1.656 3.766 1.656 1.734 0 2.402-.32 3.532-1.656 1.754-2.072 4.145-3.638 5.396-6.07.382-.742 1.072-1.294 1.656-1.877 1.02-1.02 1.816-2.16 2.588-3.373.67-1.053 1.882-1.845 2.698-2.809.796-.94 1.51-2.061 2.38-2.931.665-.666 1.358-1.412 2.158-1.925 1.015-.653 1.6-1.907 2.428-2.76.924-.95 2.109-1.71 2.98-2.65.692-.744 1.638-1.1 2.208-1.986.798-1.24 2.083-2.168 3.116-3.201.679-.68 1.344-1.343 2.023-2.048.755-.785 1.269-1.862 2.355-2.257 1.33-.484 2.088-2.165 2.895-3.201.695-.895 2.06-2.047 2.526-2.98" stroke="#171717" stroke-linecap="round"/><path d="M27.775 58.041c0-1.279 1.65-2.502 2.441-3.336 1.521-1.6 2.925-3.243 4.673-4.611 1.384-1.084 2.236-2.35 3.483-3.532 1.528-1.448 3.183-2.742 4.685-4.244 1.928-1.928 3.714-4.02 5.568-6.022.832-.898 1.28-2.105 2.11-2.98.472-.498 1.201-.84 1.778-1.215 1.353-.879 2.847-1.545 4.305-2.207.506-.23 1.082-.552 1.644-.552.695 0 .436-.104.785-.552.557-.716 1.442-1.295 2.134-1.877 1.021-.859 1.901-1.87 2.992-2.649 2.797-1.998 5.131-4.7 7.825-6.843 3.233-2.572 6.442-4.99 10.327-6.5 2.358-.918 4.842-1.89 7.395-1.89 1.49 0 3.096-.188 4.526.221 1.2.343 2.544 1.302 3.532 2.036 2.045 1.519 4.171 3.108 5.52 5.299.663 1.077.565 2.542 1.054 3.703.417.99.574 2.038.724 3.091.345 2.416.498 5.24-.233 7.616-.919 2.988-2.831 4.551-4.685 6.955-1.22 1.581-2.792 2.839-3.974 4.415-.64.852-1.422 1.562-2.048 2.428-.504.698-1.139 1.705-1.828 2.208-1.121.82-1.72 2.14-2.649 3.14-.556.6-.96 1.396-1.484 2.036-.391.478-1.002.725-1.324 1.226-.376.584-1.02.907-1.435 1.496-.49.697-1.143 1.347-1.766 1.926-1.12 1.04-2.675 2.019-3.52 3.287-.238.356-.797.698-1.117 1.018-.87.87-1.377 1.71-1.999 2.76-1.387 2.34-2.123 4.198-4.844 5.187M33.502 71.3c-1.362 1.362-2.812 2.542-4.145 3.925-.593.614-1.057 1.255-1.643 1.864-.821.852-1.493 1.811-2.33 2.649-.706.706-1.439 1.966-2.368 2.38-.584.259-.888.998-1.324 1.434-.742.742-1.535 1.412-2.27 2.147-.899.899-2.378 1.937-2.918 3.152-.644 1.447-2.465 2.146-3.263 3.421-.583.934-1.719 2.039-2.6 2.76-2.317 1.896-4.14 4.364-2.625 7.396.68 1.36 1.609 2.172 2.637 3.201.529.528.961.857 1.546 1.312.575.447 2.267.123 2.98.123 1.586 0 2.906-.66 4.415-1.091 2.004-.573 2.875-2.563 4.465-3.74 2.71-2.008 4.598-4.401 7.138-6.636 1.8-1.584 3.44-3.33 4.955-5.188 1.224-1.503 2.971-2.568 4.366-3.912 1.097-1.058 2.967-4.233 4.437-4.886" stroke="#171717" stroke-linecap="round"/></svg>