<svg width="147" height="167" fill="none" xmlns="http://www.w3.org/2000/svg"><g filter="url(#a)"><mask id="b" maskUnits="userSpaceOnUse" x="8.3" y="4" width="130" height="151" fill="#000"><path fill="#fff" d="M8.3 4h130v151H8.3z"/><path fill-rule="evenodd" clip-rule="evenodd" d="M56.8 12C34 12 16.3 38.1 16.3 64.6c0 38.8 23.3 46.9 42.7 46.9 14.3 0 31.4-7 37.5-25V86h5v.3c.7.8 1.6 1.7 2.6 2.2.9.5 2 .7 2.9.2.8-.4 1.3-1.3 1.7-2.7h13.8l7.7-38H96.5v-.7a65.2 65.2 0 0 0-6.3-15.5c3.9-.8 7.5-2.7 10.6-6.5a.4.4 0 1 0-.7-.5c-3 3.6-6.5 5.5-10.4 6.2-6.5-10.9-17-19-32.9-19Zm47.7 75.7c-.7-.4-1.4-1-2-1.7h5.3c-.3 1.1-.8 1.7-1.2 2-.6.3-1.3.2-2.1-.3Zm-61 22a.4.4 0 1 0-1 0l1.2 33.6a.4.4 0 0 0-.4.4l.1.3h.2v.1h.1c0 .2.1.4.3.5l5.8 1.3h.2c.7.3 1.4.5 2.3.6h.2a.4.4 0 0 0 .5-.5c0-.2-.2-.4-.4-.4h-.2l-2.3-.5-.5-.2-1.8-.6-1-.3-.1-.1-1.3-.4-.9-.1-1-33.7Zm29.5-.4c.2 0 .4.2.4.4l1.2 34 8.1 2a.4.4 0 0 1-.2.8l-8.5-2a.4.4 0 0 1-.3-.4l-1.1-34.3c0-.3.1-.5.4-.5Z"/></mask><path fill-rule="evenodd" clip-rule="evenodd" d="M56.8 12C34 12 16.3 38.1 16.3 64.6c0 38.8 23.3 46.9 42.7 46.9 14.3 0 31.4-7 37.5-25V86h5v.3c.7.8 1.6 1.7 2.6 2.2.9.5 2 .7 2.9.2.8-.4 1.3-1.3 1.7-2.7h13.8l7.7-38H96.5v-.7a65.2 65.2 0 0 0-6.3-15.5c3.9-.8 7.5-2.7 10.6-6.5a.4.4 0 1 0-.7-.5c-3 3.6-6.5 5.5-10.4 6.2-6.5-10.9-17-19-32.9-19Zm47.7 75.7c-.7-.4-1.4-1-2-1.7h5.3c-.3 1.1-.8 1.7-1.2 2-.6.3-1.3.2-2.1-.3Zm-61 22a.4.4 0 1 0-1 0l1.2 33.6a.4.4 0 0 0-.4.4l.1.3h.2v.1h.1c0 .2.1.4.3.5l5.8 1.3h.2c.7.3 1.4.5 2.3.6h.2a.4.4 0 0 0 .5-.5c0-.2-.2-.4-.4-.4h-.2l-2.3-.5-.5-.2-1.8-.6-1-.3-.1-.1-1.3-.4-.9-.1-1-33.7Zm29.5-.4c.2 0 .4.2.4.4l1.2 34 8.1 2a.4.4 0 0 1-.2.8l-8.5-2a.4.4 0 0 1-.3-.4l-1.1-34.3c0-.3.1-.5.4-.5Z" fill="#fff"/><path d="m96.5 86.5 7.6 2.6a8 8 0 0 0 .4-2.6h-8Zm0-.5v-8a8 8 0 0 0-8 8h8Zm5 0h8a8 8 0 0 0-8-8v8Zm0 .3-6 5.2 6-5.2Zm2.6 2.2 3.9-7-4 7Zm2.9.2-3.9-7 3.9 7Zm1.7-2.7v-8a8 8 0 0 0-7.7 6l7.7 2Zm13.8 0v8a8 8 0 0 0 7.9-6.4l-7.9-1.6Zm7.7-38 7.9 1.5a8 8 0 0 0-7.9-9.6v8Zm-33.7 0h-8a8 8 0 0 0 8 8v-8Zm0-.7h8a8 8 0 0 0-.3-2l-7.7 2Zm-6.3-15.5L88.5 24a8 8 0 0 0-5.2 11.8l6.9-4Zm10.6-6.5-6.2-5 6.2 5Zm-.7-.5-6.2-5.1 6.2 5ZM89.7 31 83 35.2a8 8 0 0 0 8.4 3.7L89.7 31Zm12.7 55v-8a8 8 0 0 0-5.9 13.4l6-5.4Zm2 1.7-3.8 7 3.9-7Zm3.4-1.7 7.7 2.2a8 8 0 0 0-7.7-10.2v8Zm-1.2 2-3.9-7 3.9 7ZM43 109.3l.2 8-.2-8Zm.4.4 8-.2-8 .2Zm-.8 0-8 .3 8-.2Zm1 33.6 1.7 7.8a8 8 0 0 0 6.4-8.1l-8 .3Zm0 0 1.9 7.7-1.8-7.7Zm0 0 1.8 7.8-1.7-7.8Zm-.1 0 5.4 6-5.4-6Zm-.2.4-8-.4 8 .4Zm.1.3-6.3 5 6.3-5Zm.2 0 3.5-7v-.1l-3.5 7.2Zm0 0-3.6 7.2 3.6-7.1Zm0 .1-2 7.7 2-7.7Zm.1 0 8-.2a8 8 0 0 0-6-7.5l-2 7.7Zm0 0 8-.2-8 .2Zm.3.5-1.8 7.7 1.8-7.7Zm5.8 1.3 2.7-7.5-.9-.3-1.8 7.8Zm.2 0-2.7 7.6L50 146Zm2.3.6 1.8-7.8a8 8 0 0 0-1.4-.2l-.4 8Zm.2 0 1.8-7.8-1.8 7.8Zm.5-.3-7.8-1.8 7.8 1.8Zm0-.2-8 .6.2 1L53 146Zm-.6-.4-1.8 7.8 1.4.2.4-8Zm-2.3-.5-2.8 7.5 1 .3L50 145Zm-.5-.2 2.8-7.5-2.8 7.5Zm0 0 2.7-7.5h-.2l-2.5 7.5Zm0 0-2.8 7.5h.3l2.5-7.5Zm-1.8-.6-2 7.8 2-7.8Zm-1-.3-3 7.4 3-7.4Zm-.1-.1 3-7.4-3 7.4Zm-1.3-.4 1-8-1 8Zm-.9-.1-8 .3a8 8 0 0 0 6.8 7.6l1.2-7.9Zm29-33.7 8-.2-8 .2Zm-.5-.4.2 8-.2-8Zm1.6 34.5-8 .3a8 8 0 0 0 6.1 7.5l1.9-7.8Zm8.1 1.9 1.8-7.8-1.8 7.8Zm.3.5 7.8 1.8-7.8-1.8Zm-.5.3 1.8-7.8-1.8 7.8Zm-8.5-2-1.8 7.8 1.8-7.7Zm-.3-.4 8-.2-8 .2Zm-1.1-34.3 8-.3-8 .3ZM24.3 64.6a54 54 0 0 1 10-31.4C40.7 24.7 48.7 20 56.9 20V4c-14.7 0-27 8.4-35.3 19.6a70 70 0 0 0-13.2 41h16ZM59 103.5c-8.8 0-17.3-1.9-23.5-7-6-5-11.2-14.1-11.2-31.9h-16c0 21.1 6.4 35.4 17 44.2A52 52 0 0 0 59 119.5v-16Zm30-19.6c-4.7 13.8-17.8 19.6-30 19.6v16c16.4 0 37.5-8 45.1-30.4L89 83.9Zm-.5 2.1v.5h16V86h-16Zm13-8h-5v16h5V78Zm6.1 3a7.6 7.6 0 0 1 1.8 5h-16c0 2 .7 3.9 2 5.5L107.6 81Zm.4.5-.4-.4-12.2 10.4c1.1 1.2 2.7 2.8 4.8 4l7.8-14Zm-4.9.2c1.2-.7 2.5-.8 3.4-.7a4 4 0 0 1 1.5.5l-7.8 14a11 11 0 0 0 10.6.2l-7.7-14ZM101 84l.2-.6c.3-.4 1-1.1 2-1.7l7.6 14c3.6-2 5-5.3 5.6-7.7L101 84Zm21.5-6h-13.8v16h13.8V78Zm-.1-31.7-7.7 38.1 15.7 3.2 7.7-38.1-15.7-3.2Zm-26 9.6h33.8V40H96.5v16Zm-8-8.5v.5h16v-.6h-16Zm-5.1-11.6c2.3 4.1 4.1 8.8 5.4 13.6l15.5-4.1a73.2 73.2 0 0 0-7-17.5l-14 8Zm11.3-15.6a10.3 10.3 0 0 1-6 3.8l3.3 15.7c5.5-1.2 10.8-4 15-9.3L94.6 20.2Zm1 10.7a7.6 7.6 0 0 1-1-10.7l12.3 10.2c3-3.6 2.5-8.9-1.1-11.9L95.6 31Zm10.7-1a7.6 7.6 0 0 1-10.7 1l10.2-12.4c-3.6-3-9-2.4-11.9 1.2l12.4 10.2Zm-15 9a25.4 25.4 0 0 0 15-9L93.9 19.7a9.5 9.5 0 0 1-5.7 3.5l3 15.7ZM56.8 20c12.6 0 20.7 6.2 26 15.2l13.8-8.3A44.6 44.6 0 0 0 56.8 4v16Zm39.7 71.4c1 1 2.4 2.4 4.1 3.3l7.8-14 .2.2-.1-.1-.2-.2-11.8 10.8ZM107.8 78h-5.4v16h5.4V78Zm2.6 17a11 11 0 0 0 5-6.8l-15.3-4.4.5-1a6 6 0 0 1 2.1-1.8l7.7 14Zm-9.8-.3a10 10 0 0 0 9.8.3l-7.7-14a6 6 0 0 1 5.7-.3l-7.8 14Zm-57.4 22.6a7.6 7.6 0 0 1-7.8-7.3l16-.5c-.1-4.7-4-8.3-8.7-8.2l.5 16Zm7.4-7.8a7.6 7.6 0 0 1-7.4 7.8l-.5-16c-4.6.2-8.3 4-8.1 8.7l16-.5Zm1 33.5-1-33.5-16 .5 1 33.5 16-.5Zm-6 8h-.3L42 135.5h-.2l3.7 15.6Zm-.1 0-3.7-15.5 3.7 15.5Zm3.4-1.8a7.6 7.6 0 0 1-3.5 1.9L42 135.5c-.5 0-2.2.5-3.9 2L49 149.2Zm2.4-5.2a7.6 7.6 0 0 1-2.4 5.2L38 137.5c-1 1-2.6 3-2.7 5.8l16 .7Zm-1.6-5c.6.8 1.7 2.5 1.6 5l-16-.7c0 2.8 1.1 4.7 1.8 5.6l12.6-9.9Zm-2.6-2.1h.1a6.6 6.6 0 0 1 .9.6c.4.3 1 .8 1.6 1.5L37 149c1.2 1.4 2.6 2.1 3 2.3l7-14.4Zm0 0-7 14.3 7-14.3Zm-1.3-.5a6.8 6.8 0 0 1 1.3.5l-7 14.4 1.4.5 4.3-15.4Zm0 0-4.3 15.4h.2l4-15.4Zm5.9 7.5-16 .5 16-.5Zm-5.8-7.1c3.3.7 5.7 3.7 5.8 7l-16 .6c.1 3.8 2.8 7 6.5 8l3.7-15.6Zm5.7 1.3-5.7-1.3-3.7 15.5 5.8 1.4 3.6-15.6Zm1 .3h-.1l-5.4 15 .2.1 5.3-15Zm.1 0 .3.1h-.4l-5.3 15c1 .3 2.6.9 4.5 1l1-16Zm1.6.3h-.2l-3.7 15.6h.3l3.6-15.6Zm-9 5.7c.9-4 5-6.6 9-5.7l-3.6 15.6c4.5 1 9-1.7 10.1-6.3l-15.6-3.6Zm-.1 3.3c-.2-1-.2-2.2 0-3.3l15.6 3.6c.3-1.2.3-2.5 0-3.6l-15.6 3.3Zm7.4 6c-4 0-7.3-3.2-7.6-7.1l16-1.2c-.3-4.3-4-7.8-8.4-7.8v16Zm-.6 0h.6v-16h.1l-.7 16Zm-3.8-.8 2.4.5 3.6-15.6-2.3-.5-3.7 15.6Zm-1.4-.5.5.2 5.5-15-.4-.2-5.6 15Zm0 0 5.5-15-5.4 15Zm.3 0 5-15-5 15Zm-1.3-.3h.3l.7.3 5.6-15c-.5-.2-1.6-.6-2.7-.8L45.8 152Zm-2-.7 2 .7 4-15.5H50h-.2l-6 14.8Zm-.1 0h.1l6-14.8-.1-.1-6 14.8Zm.7 0-.8-.1 6-14.8c-.4-.2-1.7-.7-3.3-1l-2 16Zm-1 0h1l2-15.8H46l-.3-.1-2.5 15.8Zm-8-41.4 1.1 33.7 16-.6-1-33.6-16 .5Zm46-.5c-.1-4.7-4-8.3-8.7-8.2l.5 16a7.6 7.6 0 0 1-7.8-7.3l16-.5Zm1.2 34-1.2-34-16 .5 1.2 34 16-.5Zm2-5.6-8.2-1.9-3.7 15.6 8.2 1.9 3.6-15.6Zm6.2 10.1c1-4.5-1.7-9-6.3-10.1L81 153.5c-4-1-6.6-5-5.7-9.1l15.6 3.6Zm-10.1 6.3c4.5 1 9-1.7 10.1-6.3l-15.6-3.6c1-4 5-6.6 9.1-5.7l-3.6 15.6Zm-8.5-2 8.5 2 3.6-15.6-8.4-2-3.7 15.6Zm-6.5-7.9c.1 3.8 2.8 7 6.5 8l3.7-15.6c3.3.7 5.7 3.7 5.8 7l-16 .6ZM64.6 110l1.1 34.4 16-.5-1.1-34.4-16 .5Zm8.1-8.7c-4.6.2-8.3 4-8.1 8.7l16-.5a7.6 7.6 0 0 1-7.4 7.8l-.5-16Z" fill="#fff" mask="url(#b)"/><path d="M72.8 82c0 .3 0 .8.3 1 .1 0 .4.4.6.4.3-.1 0-1.4 0-1.6l-1-4.4s-.2-.7 0-.7c.4.1 1.3 2 1.6 2.3 1.1 1.6 2.7 3 3.8 4.5.4.7 1 1 .6-.1a26.2 26.2 0 0 0-3.3-7.6c.2.4.7.7 1 1a22 22 0 0 1 2.4 2.5 40 40 0 0 0 3.8 4c.1.1 1 1 .8.5l-3-5.2c-1.2-2-2-4.7-4-6.3l-.7-1c-.1-.4.4.3.4.4 1 1 2.2 2.1 3.2 3.3l6.6 7.8c1 1.3 1.9 2.7 3 3.8 1 1-.3-.9-.5-1.2-2-3-3.8-6.2-5.4-9.4-1.4-2.7-2.8-6.1-5-8.3-.6-.6-.9-1.6-1.6-2.2-1-1 1.6 2.5 2.6 3.5l6.1 6.8c2 2.4 4.3 4.7 6 7.3l.9 1.3c0 .2 1 1 .5.4-2-2.7-3.7-5.5-5.5-8.2-1.5-2.4-2.9-5.1-4.9-7.2-1.6-1.7-3-3.6-4.2-5.5-.4-.4-.8-1-1-1.5-.2-.6.5.2.6.3l3.7 3.9c3.5 3.8 7.6 7.3 10.5 11.8l3 4.4c.5.7 1.2 1.2 1.5 1.8l.4.3c0-.5-1.4-1.7-1.6-2-2.7-3.2-5-6.5-7-10.1-1.3-2.6-2.7-5.3-4.3-7.7l-2.3-3-1-1.9c-.4-.7-.6-1.6-.9-2.3-.2-.4-1.6-1.9-1-1.3 1.7 2 3.2 4.4 4.8 6.5 2.1 2.8 4.3 5.4 6.2 8.3 1.6 2.7 3.6 5 5.4 7.6.8 1.2 1.6 2.7 2.7 3.8l1.4 1c.3.4 1 .7.3 0-1.6-1.7-3-4-4.2-6-2.4-4-5.1-7.9-7.3-12-1-1.9-2-3.8-3.2-5.7l-1.5-2c-.5-.8-1.5-2-1.5-3.2 0-1-.9-2-.9-3.2 0-.3-.2-1.2.3-.6 1.8 2.7 3.9 5.3 5.8 8 3.6 4.7 7.8 9.2 9.5 15 .3 1.2.6 2.7 1.2 3.8.5 1 .8 2.2 1.5 3 .6.7.8 1.5 1.6 2.2.3.3.7.7.5 0-.4-1.5-1.3-2.9-2-4.3-1.6-3-3-6.2-4.2-9.4-1.4-3.8-2.7-7.4-4.7-11-.9-1.6-2-3-3-4.4-.6-.7-1.4-1.2-1.7-2a6.7 6.7 0 0 0-1.8-2.4c-.5-.4-.9-1.1-1.3-1.5-.3-.2.3.4.3.4 1.3 1.3 2.3 2.8 3.4 4.3 2.7 3.7 5.7 7 8.4 10.7 1.8 2.4 3.3 5 4.8 7.5 1.4 2.2 2.2 4.9 3.8 7 1 1.5 1.9 3.4 3 4.8l.6 1c.3 1 .2.2-.4-.4-1.4-1.5-3-3-4.2-4.7l-4.6-7c-.6-1-1.2-2.1-2-3-.4-.3-.6-.5-.6-1 0-.9-.6-1.8-.9-2.6-.6-1.8-1.2-3.6-2-5.3-.7-1.7-1.7-3.5-2.3-5.3a9 9 0 0 0-1.8-3.4c-.4-.5-.4-1.1-.8-1.6l-.2-.2c0 1.1.6 2.2 1 3.4.8 2.9 1.4 6 1.9 9 .4 3 .5 6 1.5 8.8.5 1.3 1.3 2.5 2 3.7 0 .3.6 1 .8 1.2.6.5.8-1.1.9-1.5.5-3.3.4-7-.3-10.3L93 56.3c-.3-1-.6-1.7-1.2-2.5a15.5 15.5 0 0 1-2.4-5c2.3 4.4 5 8.4 7.5 12.6 3 5.3 6.7 10.4 9.1 16 .5 1.2 1 2.5 1.7 3.7.5.7 1.2 1.3 1.6 2 .2.4 1 1.9.5.7-.5-1.3-1.4-2.5-2-3.9l-2.5-7c-2.3-6.5-6.7-11.8-9.3-18-.3-.9-.9-1.6-1.2-2.3-.3-.7-1-1.1-1.2-1.8l-.5-3c-.3 0 1.9 5.5 2 5.8 2 4 4.2 7.9 6.4 11.8 1.8 3.3 4.1 6.3 5.8 9.7 1.3 2.6 3.2 4.5 4.8 6.9l1.4 1.7c1.5 1.6-2-3.8-3-5.7-2-3.2-3.3-7-4.4-10.5-.6-1.8-1.3-3.5-2.2-5.1-1.3-2.3-2.7-4.4-3.8-6.8-.6-1.2-.8-2.6-1.6-3.8-.4-.6-.7-1.7-.8-2.5 0-.6-.2-1 0 0 .6 4.3 3.6 8.2 6 11.8 3.2 4.5 5.8 9 8 14l3 5.5c.5 1 1.2 1.9 1.5 3 .1.3.4.8.7 1 .5.4.3-.2.1-.7-1.3-4-3.5-7.9-5.2-11.7-1.7-3.5-2.8-7.3-4.4-10.8-.6-1.3-1.5-2.4-2.1-3.7-1-2.2-1.9-4.5-2.5-6.9-.4-1.3-.3-.2-.2.5.3 1.8 1.6 3.4 2.5 4.9 2 3.1 4 6.3 6.1 9.3 2.5 3.6 5 7.2 7.1 10.9.7 1.2 1 2.5 1.7 3.8.4.9 1 1.7 1.3 2.6.3.9.6 1 .5 0-.1-1-.9-2.1-1.3-3l-3-7.7-2.9-7c-1-2.5-2-4.9-3.5-7.1-.7-1-1.4-2-2-3.2-.9-1.5-1-3.2-2-4.6l-.9-.9.8 1c2.9 4 5.2 8.3 8.2 12.2 2 2.7 3.7 5.6 5.5 8.3 3.4 5-5.5-10.8-7.5-16.5l-1.4-3.8c.4 1.3 1.2 2.6 1.9 3.7l3.6 6.2a79.8 79.8 0 0 0 5.7 8.3l-.8-2.2c-2-3.7-3.7-7.6-5-11.6l-1.2-3.7a26.6 26.6 0 0 0 5.7 10l1.6 1.7c.4.4.5.4.3-.1-.5-1.8-1.5-3.4-2.3-5-1-2.3-2-4.5-2.8-6.9-.2-.7-1.5-3.5-.4-1.4a56 56 0 0 0 5.3 8c.4.4.8 1.2 1.3 1.5.4.1 0-1 0-1.1-.3-3-1.3-5.7-2.7-8.3-.3-.5-.5-.9-.9-1.3l1.7 2.5c.8 1.4 1.5 2.7 2.5 4l1 1.4c.2.1.3.3.3 0 .1-1.6 0-3.2-.6-4.7a14.2 14.2 0 0 1-.5-2c.8.2 1.5 1.5 2 2 .7.8 2 2.7 2 .8 0-.3-.1-2.6-.5-2.6-.5 0-2 1.6-2.5 1.8-2 1.4-5 1.8-7.5 1.4-2-.3-3.3-2-5-2.8-.7-.3-1.4-.3-2.1-.4-.6-.1-.4.6-.3 1 .8 2.8 1.8 5.5 2.8 8.3a48 48 0 0 1 1.1 3.8c.2.4.4.9-.2.4a39.8 39.8 0 0 1-7.6-10.1c-.7-1-1.2-1.6-2.2-2-.4-.2-.3-.2 0 .3.8 2 1.7 4 2.7 5.8 2 3.3 5 6.3 6.5 9.9l-.5-.7c-1.4-2-3-3.7-4.3-5.6-2-3-2.5-7.3-5.5-9.4-.9-.6-2-1.6-3-1.6s-.6.7-.3 1.6l1.2 4.8c.7 2.2 1.6 4 2.9 6 2 2.7 3.5 5.6 5.7 8.1 2 2.3 4.4 4.3 6 6.9 1.2 1.8 2.2 3.7 3.2 5.6.3.4.5 1 .9 1.2l-.1-1.8-1.5-4.9c-.8-2.4-2-4.9-2.4-7.4 0 0-.3-1-.1-.9.7.7 1.3 1.5 1.8 2.4.8 1.3 1.6 2.7 2.1 4.2.1.3 1.5 2.4 1.6 2.2.2-.4 0-1.2 0-1.6l-.8-3.8-1-4.6c.3 1.7 1.6 3.5 2.5 5 .3.6 1.1 2.5 1.1.8 0-3.8-1.3-7.2-2.3-10.9l-.7-2.6c-.2-1.2 1.4 1.8 2 2.7l1.1 1.5V63c0-1-.2-3.7.1-2.8.4 1 1 2.3 1.8 3 .4.4.8.5 1.2 1 .8.9-.3-1-.4-1.2-.6-1-1.2-2.6-1.2-3.7 0-.3-.3-.8-.4-1-.4-1 0 .2.1.5.2.6.5 1.3.6.2l-.1-2.8-.1-4a5.3 5.3 0 0 0-1.7-3.4c-.2-.3.8.3 0 .8-3.7 2.2-7 4.8-11.4 5-1.5 0-2.4-1-3.3-2l-1.4-1.6-.5-.5c0-.3.7.2 1 .5 1.5 1.3 2.3 3 2.5 5 .2.8.2 1.6-.7 2-1.5.7-4 .6-5.6.2-2.3-.5-4.2-2.4-5.5-4.3-.2-.3-.1 1.6 0 1.8.2 2 1.3 4 2 6 1.3 3.7 2.6 7.3 4.2 11 1 2.2-1.7-4.8-2.9-7l-2.5-4.4c-.3-.4-.8-1-.8-.2-.4 3.6.4 7.3 1.3 10.7.3 1.2.9 1.5 1.5 2.4l-6-7.4c-2.8-3.7-5.5-7.2-9-10.2-.2-.3-1.8-1.8-2.2-1.7l.8 1.7c.6 1 1 1.8 1.3 3 .6 2.2 1.2 5.4-1.2 6.9-2.3 1.4-4.2.3-4.8-2.3l-.4-1.6s-.5-.4-.2 0a84.1 84.1 0 0 0 18 17c.2.2 1.4 1.2 1.8 1 .5-.2.5-1.3.6-1.8V75l-.2-1c.7 1.3 1.7 2.4 2.5 3.7.6 1 1.2 2.9 2.2 3.6.2.2.2 1.8-.2 1.8-.8 0-1.7-1.3-2.1-2-.4-.4-1-1.8-1.4-2a29.1 29.1 0 0 0 1 4.1" stroke="#FFD424" stroke-width="2.5" stroke-linecap="round"/><path d="M43 86.9c1.4 0 2.8.8 4 1.5.1.1 1 .7.6.1-.3-.3-.4-.8-.7-1-.5-.7.3-.4.6-.2 1.4.7 2.7 1.3 4 2.3.6.5 1.4.9 2 1.5l-1-1-2.4-2c-.2 0-1-.7-.3-.5 2.3.8 4 3 6 4.1.5.3 1.5 1 .7.2-1.1-1.1-2-2.4-2.8-3.7l-.6-.9c.7.8 1.8 1.3 2.7 2l2.2 1.4c.3.1 1 .8.4 0l-2-2.9c0-.1-1-1.2-.2-.8l3 2.1c.9.5 2 1.1 2.7 1.7.7.7.1 0-.2-.4L59.8 88s-.6-1-.4-1c.3 0 1 .4 1.2.6 1 .5 1.9 1.2 2.8 1.8l3.6 2.3c.8.4.8.4 0-.2-1.3-1.1-2.4-2.5-3.6-3.7-1.9-1.9 4.6 3 6.8 4.4.8.5.3-.3 0-.7-.5-1-1.2-1.8-1.7-2.7l-.8-1.6c.3 0 .7.4 1 .5l2.1 1.2 2.6 1.6c.4.3.5.2.2-.3s-.5-1.4-.7-2c0-.4-.2-.9-.4-1.2L74 88c1.2.9 2.4 1.6 3.7 2.4.1 0 1.2.8.9.2-.7-1-1.6-2-2.2-3.1-.2-.2-1.1-1.6-.4-1 2.2 1.8 4 3.9 6.7 5 1.1.5-.2-1.1-.3-1.3l-1.4-1.8c0-.1-.1-.5-.3-.6-.8-.6 1.7 1.2 2.7 1.6.4.1 1.4.9 1.8.6.9-.5-1.8-4-.4-3l2.8 2c.2.1 1.5 1 1.8.9.6-.4-1.4-2.7-1.6-3.1-.2-.3-1.1-1.4-.2-1l4.3 3-.1-1.1c0-.2.3.2.5.2l.7.3c.4 0 .8.3.8-.3v-1.3M70 67.4c0 .5 0 .8.4 1.2.3.2.2-.7.2-.9 0-1.4.8-.3 1.4.4.4.5 1 0 1.4.6.4.4 0-.5.5-.5.2 0 .4.1.4-.4" stroke="#C6C6C8" stroke-width="2.5" stroke-linecap="round"/><path d="M69.4 49.9a3.7 3.7 0 1 0-7.3 0" stroke="#171717" stroke-width="1.5" stroke-linecap="round" stroke-linejoin="round"/><path d="M96.5 47.3C91.6 29.3 80.1 12 56.9 12c-23 0-40.6 26-40.6 52.6 0 38.8 23.4 46.8 42.7 46.8 14.4 0 31.4-6.9 37.6-25" stroke="#171717" stroke-width="1.5" stroke-linecap="round" stroke-linejoin="round"/><path d="m43 109.7 1.2 34.4 8.4 2M73 109.7l1.2 34.4 8.5 2M31.5 61.4c-1.5 4.8-2.8 14.3 1.8 17 10.7 6.5 29.8-16 32.3 0M43 86h28.4m0 0h51.2l7.7-38.1H79.7l-8.3 38Z" stroke="#171717" stroke-width="1.5" stroke-linecap="round" stroke-linejoin="round"/><path d="M101.9 86c2.8 3.3 8 6 6.6-9.4M62.5 55.5c.9 2.4 4.9 7.4 13.4 7.4" stroke="#171717" stroke-width="1.5" stroke-linecap="round" stroke-linejoin="round"/><path d="M39.8 38.4c3-8.6 10.3-12.9 20.1-11.3 13.2 2.2 30 10.6 40.5-2" stroke="#171717" stroke-width="1.5" stroke-linecap="round"/><path d="M107.9 67.4a4 4 0 0 1-8-.8c.2-2.2 2.3-5.8 4.5-5.6 2.2.2 3.7 4.2 3.5 6.4Z" stroke="#171717"/><path d="M69.8 49.8c0-2-1.7-3.2-3.5-3.2-1 0-1.9 0-2.7.8l-.9 1.2-.5 1.1M62.6 55.9c.4.4.6 1 1 1.5.5.7 1.2 1.5 2 2l.6.7c.3.3.8.5 1.2.7l1.2.9.9.4c.6.3 1.2 0 1.8.2.6.2 1.1.2 1.7.2h2c.2 0 .9.1.3.1l-2.7-.1c-.9 0-1.7-.6-2.5-.6-.6 0-1.3-.1-1.8-.5-.7-.6-1.7-.8-2.4-1.4-1.2-.8-2.5-1.4-3.1-2.7-.3-.6-.5-1.3-.5-2M101.8 86.2c.7.7 1.8 2.2 3 2.2.5 0 1.2 0 1.7-.3a6 6 0 0 0 2-4.6v-3c-.2-1.1-.5-2.4-.5-3.6" stroke="#171717" stroke-linecap="round"/><path d="M42.8 85.8H59l4.3-.2c1.8 0 3.5 0 5.3.3l3.2.3 2-.2h1.6c1-.1 2-.7 3-.7 1.3 0 2.7.5 3.9.2.8-.2 2-.2 2.9 0 .8.3 1.5.3 2.4.3.8 0 1.5.2 2.3.3 1 .2 2 0 2.9.2 1.5.3 3 .3 4.5.2.6 0 1.3 0 2-.3.3-.2.9-.3 1.3-.4 1.2 0 2.4-.3 3.5-.4l3.3-.1h2.7l1.9.1c.8.2 1.5.4 2.3.4l3 .1h1.3l1.3-.2h1.1c1.1 0 .5-.3 1.5.1" stroke="#171717" stroke-linecap="round"/><path d="M80 48.1c0 1 0 2-.2 3-.2 1.4-.6 2.6-1 4a55 55 0 0 1-1 3.3c-.4 1.2-.8 2.2-1 3.4-.5 2.4-1 4.7-1.8 6.9l-.6 1.2-.4 1.4-.3 1.3c0 .3 0 .8-.2 1-.2.4-.1.7 0 1 .1.8-.3 1.7-.5 2.5-.4 1.6-1.1 3.2-1.6 4.8-.2.7-.2 1.6-.3 2.4v.9l-.2.6M79.4 48h20c2.4 0 4.7-.5 7.1-.5 2 0 4 .9 5.9.6 2.6-.3 5.1-.2 7.7-.2l4-.1c.4-.1 1 0 1 .4" stroke="#171717" stroke-linecap="round"/><path d="M124.6 48h4.5c.3 0 .6 0 .6.4 0 1.1-.5 2.2-.6 3.3-.3 2.7-1 5.3-1 7.9-.2 3.1-1.6 6.1-2.3 9.1-.3 1-.8 2-1 3.2-.2.8-.4 1.7-.4 2.5l-.1 1c-.2.3 0 .9 0 1.1L124 78c-.3 1.2-.4 2.5-.8 3.7l-.4 1.8c-.2.7-.2 1.4-.2 2.1M96.7 48.4c0-1.4 0-3-.8-4.2-.7-1.3-1-2.8-2-3.9-.8-.9-1.3-2-2-3-.8-1-1.3-2.3-1.8-3.6-.4-1.3-.7-2.5-1.3-3.7-.3-.7-.9-1.4-1.4-2-.4-.8-1-1.3-1.6-1.9-.7-.7-1.4-1.5-2.2-2-.6-.6-1.1-1.3-1.8-1.7l-2-2.1c-1-1-2-1.7-3.2-2.4-.6-.5-1.4-.7-2-1.1-1-.6-1.5-1.5-2.4-2.1-.8-.5-1.8-.5-2.7-.6-1.7-.2-3.3-.2-5-.2" stroke="#171717" stroke-linecap="round"/><path d="M64.6 14c-1.5 0-2.7-1.5-4.1-1.5-.6 0-.3-.2.1-.2.9.1 1.7.4 2.6.6.5.2 1.2.2 1.7.5.7.4-.2.1-.5 0-2-.5-3.9-1.2-6-1.2l-2.7-.1c-1 0-2.2 0-3.1.3-2.3.9-4.8.9-7 1.9-2 .9-4 1.5-5.8 2.7-.8.5-1.8 1-2.4 1.8-.9 1.2-2 1.9-3 2.8-2.3 2-4.2 4.4-6.3 6.4-.6.5-1.1 1-1.6 1.7-.5.6-.8 1.7-1 2.4M25.5 32.2c-.5 1-1.1 1.8-1.7 2.7l-1.5 2.8c-1.1 1.8-1.8 3.9-2.5 5.8-.8 1.8-1.5 3.8-2 5.7-.6 1.9-.8 4-1 5.8a61 61 0 0 0-.8 8.7v3.6c.4 3.4.4 6.8 1.2 10l.7 4.5c.3 1.7 1 3.4 1.5 5 .3 1.4 1.2 2.5 1.9 3.7a16 16 0 0 0 2.5 3c.7.8 1.3 2 1.7 2.9.3.9 1.3 1.5 2 2.1.8 1 1.1 2.7 2.1 3.5a10 10 0 0 0 3.3 1.7M32.9 103.7l2.5 2.1c1.4 1.4 3.4 1.6 5.2 2.3 4.2 1.6 9 2.8 13.5 3 2.1.2 4.2 0 6.4-.2l3.2-.1c1.1-.2 2.3 0 3.3-.3 2.1-.4 4.3-.1 6.3-.7" stroke="#171717" stroke-linecap="round"/><path d="M71.7 109.8h3.6c1-.1 2.1-.7 3-1.2 1.7-.7 3.4-1.3 4.5-2.8 1-1.2 2-2.3 3.2-3.4.7-.6 1.2-1.5 1.9-2.2l1.6-1.3c.8-.7 1.4-1.7 1.9-2.6.2-.5.6-1.5 1-1.8.8-.5 1.6-1.7 2-2.5.6-1 .7-2 1.1-3 .3-.5 0-1.2.4-1.7M43.8 143.6c0-6.8.3-13.9-.3-20.7-.2-1.6-.7-3-.7-4.7v-3.5a19.2 19.2 0 0 1 .7-5.6M73 110.7v11.6l-.2 8.5c0 2.3.7 4.6.7 7v5.7c0 .4.4.5.8.7.8.4 1.5 1.1 2.5 1.3l2.8.5c.8.3 1.7 0 2.5.3" stroke="#171717" stroke-linecap="round"/><path d="M52.6 146c-1.7 0-3.2-.9-4.9-1.3-.8-.2-1.5-.7-2.4-.8-.5 0-2-.3-1.4-.3M31.6 61.7a20 20 0 0 1-.4 3.8c-.2.8-.9 1.5-.9 2.2 0 .7-.3 1.4-.3 2v3c0 .7.5 2 1 2.5l2.7 3.1c1.6 1.8 4.2 1.3 6.4 1.3 3.1 0 5.7-2.3 8.4-3.6 1.6-.8 3.7-1.2 5.4-1.6 1.8-.5 3.8-.7 5.5-1.3 1.2-.3 3.1-.1 3.6 1 .2.6 3.6 4.2 3 4.5M40 38.4c0-.8.6-2.4 1.1-3l2.7-3c.8-1 2.1-1.5 3-2.3 1-.8 1.9-1.3 2.9-1.8a23 23 0 0 1 17.2.2c.7.3 1.4.2 2.1.4.4.1.5 0 .8.2.2.3.5.4.8.5l2 .3 4.5.7c1.1.3 2.3.2 3.4.4 1.4.4 3 .4 4.6.4 1.7 0 3 .3 4.7-.1 2.8-.8 6-1.1 8-3.4.2-.3.6-.4.8-.8.2-.2.7-.6.7-.8 0-.1.3-.2.3-.4s-.8.7-1 .9c-1.3.9-2.7 1.4-4.1 2-1.1.3-2.2.8-3.4 1-1 0-2 .2-3 .5-1.4.4-3 .4-4.5.7-3.5.6-7.4 1.1-10.8-.2-1.7-.6-3.3-1.5-5-2.2-1-.5-2.2-1-3.4-1.3-.8 0-1.6-.4-2.4-.5a26.7 26.7 0 0 0-7 0c-2.5.3-5.2.8-7.3 2.3-1 .9-2.3 1.5-3.3 2.5a19.3 19.3 0 0 0-4.4 5.3M102.7 71.1l-.3-.2-.4-.4-.6-.4c-.4-.5-.8-1-1-1.6l-.1-1-.2-1v-.7l.4-.7M100.5 65c0-.4.2-.8.4-1.2.2-.6.7-1 1.1-1.4.4-.4.7-.8 1.2-1.1l.6-.3h1c.5 0 .9.3 1 .7l.4.6.4.6.2.3.1.3c.1.3.3.5.3.8 0 .4.5.8.5 1.3" stroke="#171717" stroke-linecap="round"/><path d="m107.7 65.6.1 1.4v1c0 .4-.2.9-.5 1.2l-.3.3-.4.3c0 .2-.3.3-.4.4-.2 0-.3.2-.5.3l-1.2.5a2 2 0 0 1-1 .3c-.2 0-.5 0-.6-.2l-.4-.2" stroke="#171717" stroke-linecap="round"/></g><defs><filter id="a" x=".3" y="0" width="146" height="166.5" filterUnits="userSpaceOnUse" color-interpolation-filters="sRGB"><feFlood flood-opacity="0" result="BackgroundImageFix"/><feColorMatrix in="SourceAlpha" values="0 0 0 0 0 0 0 0 0 0 0 0 0 0 0 0 0 0 127 0" result="hardAlpha"/><feOffset dy="2"/><feGaussianBlur stdDeviation="1"/><feComposite in2="hardAlpha" operator="out"/><feColorMatrix values="0 0 0 0 0 0 0 0 0 0 0 0 0 0 0 0 0 0 0.02 0"/><feBlend in2="BackgroundImageFix" result="effect1_dropShadow_716_1920"/><feColorMatrix in="SourceAlpha" values="0 0 0 0 0 0 0 0 0 0 0 0 0 0 0 0 0 0 127 0" result="hardAlpha"/><feOffset dy="4"/><feGaussianBlur stdDeviation="4"/><feComposite in2="hardAlpha" operator="out"/><feColorMatrix values="0 0 0 0 0 0 0 0 0 0 0 0 0 0 0 0 0 0 0.06 0"/><feBlend in2="effect1_dropShadow_716_1920" result="effect2_dropShadow_716_1920"/><feBlend in="SourceGraphic" in2="effect2_dropShadow_716_1920" result="shape"/></filter></defs></svg>