<svg width="128" height="141" fill="none" xmlns="http://www.w3.org/2000/svg"><path d="M87.58 140.46c-1.01 0-2.01-.16-2.97-.48-1.48-.5-2.78-1.3-3.9-2.46a9.633 9.633 0 0 1-3.77.23c-3.89-.53-6.21-2.79-7.61-5.62-.93.33-1.98.51-3.14.51-2.72 0-5.29-1.08-7.23-3.04-2.1-2.11-3.51-4.57-4.36-12.17-2.04 3.49-3.81 6.36-4.83 7.97l-.29.47-.33.4c-.38.47-.8.9-1.26 1.28l-1.93 1.93h-2.48c-.08.01-.65.07-.65.07h-.52c-.22 0-.44 0-.65-.02h-.71l-1.36-.41-.17-.06c-.86-.3-1.67-.73-2.4-1.29l-.48-.36-.41-.42L2.67 94.2c-.41-.39-.77-.82-1.1-1.29l-.26-.38-.26-.48c-.5-.93-.82-1.92-.97-2.95-.13-.99-.1-1.95.08-2.9a8.8 8.8 0 0 1 1.31-3.17l17.47-26.47.22-.28c.45-.58.98-1.09 1.56-1.54l.21-.16.7-.47.29-.14c.7-.38 1.45-.65 2.23-.83.59-.14 1.25-.21 1.9-.21.45 0 .91.04 1.36.11l.42.06.66.18.12.04c.83.25 1.62.63 2.35 1.12l.42.3c1.08.83 2.29 1.75 3.59 2.74-.38-2.28-.02-4.7 1.17-6.92 1.46-2.71 7.03-11.57 17.72-11.57 3.31 0 6.19.73 8.61 1.77 2.36-3.97 5.39-8.31 9.02-11.95-5.5-6.08-8.76-14.18-5.35-23.17A8.762 8.762 0 0 1 72.04.3a8.777 8.777 0 0 1 7.78 1.64L97.94 16.5c2.68-1.98 6.03-3.72 9.83-4.08.49-.04.96-.07 1.42-.07 3.39 0 6.56 1.15 9.21 3.34 5.01 3.56 10.26 10.29 9.11 18.02-.84 5.64-4.88 10.31-8.57 13.49.14 6.83-.25 17.69-2.79 31.64-.76 8.55-1.13 23.75.9 31.58 1.28 4.91-.71 10.02-4.94 12.71a11.21 11.21 0 0 1-3.82 1.54c-1.6 8.05-4.85 13.96-11.73 14.44h-.13c-.18.02-.37.02-.56.02-.97 0-1.93-.14-2.84-.4-.02.02-.05.03-.07.05a9.413 9.413 0 0 1-5.38 1.68Z" fill="#fff"/><path d="M75.553 54.922c0 .685.2 2.731.2 2.046 0-1.674.542-3.389.96-4.998.062-.239.07-.355.14-.063.3 1.247.577 2.484.813 3.746.134.72.115 1.553.347 2.25.178.535.182-1.117.214-1.681.072-1.27.298-2.526.37-3.797.032-.568.027-1.228.151-1.785.007-.031.488.766.543.868.698 1.307 1.249 2.713 1.773 4.097.161.426.308.857.473 1.282.04.103.084.365.166.447.034.033.033-.235.033-.248 0-.433.012-.868-.014-1.3-.099-1.619-.625-3.221-.976-4.798-.056-.253-.073-1.12-.34-1.253M44.834 53.458c.052.576.476 1.191.702 1.714.103.238.119.715.28.894.188.209.219.301.363-.03.402-.923.476-1.872.502-2.873.033-1.275-.29-2.518-.318-3.783-.005-.224.002-.057.045.067.22.64.542 1.26.85 1.861.806 1.583 1.585 3.164 2.2 4.832.081.218.172.785.466.839.428.078.227-1.954.222-2.15-.047-1.681-.373-3.379-.62-5.042-.065-.432-.225-1.035-.1-1.47.07-.247.24.455.332.694.261.675.6 1.316.886 1.98.5 1.155 1.015 2.284 1.267 3.524.122.599.288 1.143.532 1.699.105.237.237.504.237.768" stroke="#171717" stroke-width="2.5" stroke-linecap="round"/><path d="M49.09 70.414c.026.231 1.781 1.505 2.028 1.149.367-.53.258-1.565.329-2.176.066-.578.147-1.17.17-1.751.01-.278.645.634.68.68.843 1.15 1.555 2.399 2.404 3.55.054.073.506.852.506.465 0-.998-.148-1.918-.333-2.9a16.031 16.031 0 0 1-.266-2.955c0-.083.013-.958.045-.938.288.183.444.564.635.831.448.627.942 1.22 1.419 1.825a43.793 43.793 0 0 1 2.674 3.816c.037.058.416.705.465.384.07-.46-.186-.986-.361-1.39-.468-1.075-1.09-2.098-1.445-3.22-.386-1.22-.44-2.414-.44-3.672 0-.548.385.245.466.392a45.632 45.632 0 0 0 2.227 3.623c.495.731.957 1.484 1.46 2.21.307.443.61 1.015 1.02 1.377.345.306.269-.091.295-.414.06-.769.055-1.528-.09-2.29-.3-1.593-1.08-3.025-1.536-4.57-.321-1.09-.26-2.17-.454-3.265-.08-.45-.53-.682-.728-1.067-.151-.294-.133-.294.074-.008 1.775 2.46 3.669 4.803 4.99 7.558.673 1.402-.782-.063.014 1.274.1.17.192.424.332.565.05.05.016-.415.008-.45-.177-.783-.644-1.561-1.013-2.261-.663-1.26.591.528.028-.783-.374-.87-.704-1.795-.813-2.74-.068-.592-.049-1.195-.133-1.785-.05-.35-.052-.835-.262-1.137-.196-.283-.328-.701-.417-1.031-.041-.152-.182-.557-.045-.695.106-.105.491-.036.628-.036" stroke="#FFD424" stroke-width="2.5" stroke-linecap="round"/><path d="M109.596 37.262c.579.03.93.36 1.396.657.243.155.552.045.822.115.807.207 1.939 1.507 1.397-.041-.496-1.415-1.908-2.907-1.988-4.429-.026-.475.517.081.755.247 1.159.805 2.266 1.82 3.599 2.333.18.07 1.499.836 1.676.641.395-.434-1.227-2.44-1.429-2.769-.499-.81-.913-1.742-1.233-2.637-.236-.661 1.022-.123 1.364-.033.846.223 1.643.567 2.506.74.495.098.866.308.509-.378-.41-.789-1.057-1.524-1.536-2.285-.24-.38-.344-.811-.592-1.183" stroke="#171717" stroke-width="2.5" stroke-linecap="round"/><path d="M77.504 10.79c0 1.122.524 2.283.895 3.327.262.734.454 2.365 1.101 2.883.396.317.794-3.03.814-3.516.01-.23.102.066.18.18.565.825.95 1.802 1.447 2.671.645 1.129 1.297 2.252 1.89 3.41.262.513.528 1.08.985 1.454.338.276.379-2.13.411-2.424.024-.223.218-2.231.41-1.857.758 1.473 1.254 3.049 2.071 4.503.106.188.888 1.514.888.731 0-.965.367-3.188.404-4.152.052-1.366.767 3.723 1.338 4.965.299.652 2.336 3.927 2.686 1.652.096-.62.074-.945.666-.37.822.8 1.695 1.473 2.744 1.923" stroke="#FFD424" stroke-width="2.5" stroke-linecap="round"/><path d="M42.102 110.677c1.271 0 2.533.391 3.786.559.405.055.81.051 1.217.051.044 0 .327.03.28-.017-.127-.127-.26-.207-.415-.301-.66-.395-1.257-.899-1.845-1.39a64.203 64.203 0 0 1-4.21-3.829c-.454-.454-.229-.393.3-.208 1.528.532 2.96 1.269 4.533 1.683.138.036 2.015.383 1.934.221-.276-.551-1.043-.954-1.518-1.281-1.527-1.048-3.107-2.042-4.511-3.256a14.537 14.537 0 0 1-1.934-2.018c-.227-.29-.51-.603-.623-.963-.063-.201.633.125.649.132 1.091.452 2.172.866 3.298 1.229 1.119.361 2.3.781 3.477.912.588.065-.148-.879-.229-.98-1.434-1.777-2.953-3.464-4.329-5.291-.533-.708-1.107-1.355-1.675-2.027-.197-.233.593.162.865.301 1.905.976 3.793 1.981 5.707 2.939 1.514.757 3.024 1.522 4.55 2.255.557.268 1.116.58 1.704.776.33.11-.088-.117-.148-.157-.696-.456-1.345-.995-1.984-1.526-2.064-1.713-3.907-3.678-5.8-5.572a48.188 48.188 0 0 1-1.536-1.594c-.116-.127-.464-.37-.475-.568-.01-.173.384.069.39.072 1.152.585 2.252 1.312 3.367 1.963 2.081 1.216 4.179 2.51 6.496 3.231.2.062.468.188.687.149.059-.011-1.144-1.11-1.17-1.132-2.683-2.347-5.418-4.802-7.412-7.785-.08-.12-1.093-1.527-.394-1.234 1.161.488 2.217 1.31 3.286 1.963 1.916 1.172 3.871 2.285 5.91 3.231.843.391 1.699.79 2.59 1.056.046.013.848.262.67.06-.494-.567-1.157-1.018-1.7-1.54a18.362 18.362 0 0 1-2.06-2.349c-.067-.091-.962-1.434-.48-1.136 1.046.645 2.204 1.332 3.389 1.679.064.019.52.2.576.11.196-.307-.644-1.29-.788-1.497-.087-.122-1.602-2.123-1.417-2.243.377-.243 1.3.285 1.645.441M62.957 72.17v1.953c0 .116.041 1.395.053 1.39.704-.372 1.18-1.734 1.599-2.374.433-.661.93-1.283 1.298-1.98.767-1.453-.927 3.156-1.39 4.733-.145.496-.701 1.89-.354 1.508.242-.266.38-.697.584-.996.382-.563.83-1.08 1.252-1.613.334-.423 1.055-1.785 1.035-1.245-.013.354-.298.803-.432 1.12-.319.753-.72 1.464-1.023 2.223a29.71 29.71 0 0 0-1.324 4.077c-.21.866-.118.393.17-.144.603-1.124 1.233-2.238 1.954-3.29.538-.787.256.13.091.497-.865 1.929-2.17 3.752-2.687 5.821" stroke="#C6C6C8" stroke-width="2.5" stroke-linecap="round"/><path d="M84.408 47.37c-5.048 0-8.423 3.994-10.009 6.953-.495.923-.263 2.048.621 2.61 1.767 1.124 4.923 2.392 9.388 2.392 4.77 0 8.358-2.43 10.293-4.399.775-.788.793-2.01.047-2.826-1.924-2.103-5.53-4.73-10.34-4.73ZM54.33 47.224c-5.048 0-8.423 3.993-10.01 6.952-.494.923-.262 2.049.622 2.61 1.767 1.125 4.923 2.392 9.388 2.392 4.77 0 8.358-2.43 10.293-4.398.775-.789.793-2.01.047-2.826-1.924-2.103-5.53-4.73-10.34-4.73Z" stroke="#171717" stroke-width="1.5"/><path d="M26.535 61.173c7.6 5.804 28 21.32 31.758 23.863M26.535 61.173 9.232 87.385m17.303-26.212 5.728 21.433m26.03 2.43c3.76 2.543-8.752 24.553-15.478 35.241m15.478-35.241-18.558 3.303m3.08 31.938L9.232 87.385m33.583 32.892-3.08-31.938m-30.503-.954 23.031-4.779m7.472 5.733-5.67 1.009-1.802-6.742M65.384 54.856c3.208-7.914 12.063-24.17 21.816-25.88m-21.816 25.88L44.2 74.126m21.183-19.27 1.036 8.336.257 2.065M87.2 28.976c-5.704-2.78-16.17-10.822-12.406-20.747l24.169 19.424M87.2 28.976c4.795-.229 16.001.906 22.457 7.272m0 0-10.694-8.595m10.694 8.595c3.336-2.865 8.776-9.704 3.856-14.14m-3.856 14.14c.3 1.32.607 3.434.807 6.263M62.909 71.528c-.39 43.782.91 51.836 3.768 51.836 2.286 0 3.81-14.897 4.287-22.345-.563 6.582-.988 19.799 1.819 20.007 2.806.208 4.027-10.913 4.287-16.499-.759 7.838-1.509 23.618 1.559 24.034 3.067.416 4.396-15.85 4.677-24.034.216 8.444 1.429 25.593 4.547 26.632 3.118 1.04 4.85-21.306 5.326-32.608-.78 10.566-1.22 31.621 3.248 31.309 4.469-.312 5.327-20.05 5.197-29.88.232 6.959 1.773 11.809 3.081 14.496.586 1.201 2.057 1.463 3.185.747v0c1.035-.657 1.471-1.936 1.163-3.122-2.545-9.791-1.838-27.09-1.107-35.001 2.831-15.385 3.028-27.339 2.518-34.589M62.909 71.528l-18.708 2.598m18.708-2.598 4.398-.572-.63-5.699M44.2 74.127l22.476-8.87m32.286-37.604c2.8-3.696 9.629-9.98 14.55-5.544m0 0c2.202 1.48 6.447 5.512 5.809 9.795-.638 4.283-6.171 8.856-8.858 10.607" stroke="#171717" stroke-width="1.5" stroke-linecap="round" stroke-linejoin="round"/><path d="M108.857 36.64c-.499 0-.952-.7-1.271-1.019-.689-.688-1.396-1.295-2.141-1.916-.798-.665-1.613-1.215-2.465-1.804-.497-.345-1.374-.563-1.972-.696-1.456-.323-2.9-.511-4.382-.66-1.297-.13-2.57-.224-3.875-.224-1.35 0-2.689-.208-4.051-.12-2.38.154-4.673 1.178-6.642 2.458-1.07.696-2.064 1.445-3.089 2.204-1.324.98-2.32 2.122-3.475 3.293-2.253 2.285-4.238 4.998-6.06 7.639-.777 1.127-1.521 2.28-2.281 3.419-.44.66-1.107 1.623-1.138 2.436-.025.702-.505 1.386-.505 2.113 0 .267-.244 1.616-.38 1.075" stroke="#171717" stroke-linecap="round"/><path d="M65.13 54.712c-.167.833-1.406 1.808-1.924 2.43-1.129 1.35-2.525 2.397-3.764 3.636-1.212 1.212-2.243 2.739-3.671 3.721-1.462 1.005-2.635 2.553-4.044 3.672-.786.624-1.606 1.2-2.387 1.825-.418.334-.933.423-1.398.667-.915.482-1.356 1.544-2.176 2.12-.3.212-.545.548-.857.73-.567.334.897.154 1.053.148 3.663-.126 7.242-1.257 10.925-1.257 1.093 0 2.323-.011 3.377-.245.544-.121 1.153.065 1.706-.014.67-.096 1.038-.581 1.643-.85.894-.397 2.477.004 3.033-.969.487-.852-.252-2.491-.38-3.412-.094-.688-.33-1.34-.385-2.036a88.912 88.912 0 0 0-.274-2.836c-.163-1.45-.15-2.93-.414-4.36-.145-.781-.19-1.809-.19-2.591" stroke="#171717" stroke-linecap="round"/><path d="M65.888 65.453c-1 0-1.809.193-2.724.632-.878.421-1.848.64-2.773.948-1.756.585-3.464 1.235-5.118 2.085-2.839 1.459-5.614 3.394-8.72 4.17M62.67 73.092c0 6.543-.61 13.414.285 19.905.26 1.877.459 3.779.795 5.629.303 1.663-.248 3.45.207 5.087 1.287 4.635-.203 9.582 1.351 14.246.437 1.309.368 3.595 1.51 4.483 2.09 1.625 3.048-8.898 3.149-9.587.391-2.661.617-5.565.715-8.22.035-.95.573-1.828.573-2.782 0-.177.083-.862-.064-.366-.387 1.306-.563 2.816-.731 4.166-.57 4.559-.35 9.194-.35 13.784 0 1.063.608 3.644 1.876 4.007 1.13.322 2.188-1.555 2.703-2.29.999-1.426 1.134-2.941 1.494-4.563.705-3.169.795-6.54.795-9.793v-1.877c0 2.747-.286 5.465-.286 8.22 0 3.754-.286 7.531-.286 11.304 0 1.043.52 2.937 1.304 3.721 1.873 1.873 3.993-1.014 4.42-2.719 1.505-6.024 1.67-12.595 1.43-18.808-.026-.701-.084-2.384-.35-.859-.595 3.428-.211 7.082.064 10.525.313 3.903.817 8.582 2.147 12.306.433 1.213.454 3.148 2.146 3.148 2.571 0 2.644-2.777 3.084-4.929.712-3.477.636-6.973.636-10.509 0-1.657-.226-3.475.064-5.104.3-1.689.795-3.495.795-5.214 0-1.508.286-2.94.286-4.436 0-.469.286-.853.286-1.288 0-.885-.286 1.754-.286 2.639 0 5.39-.486 10.784-.286 16.185.083 2.233 1.06 8.297 3.863 8.92 1.65.366 2.775-1.836 3.228-3.196.477-1.43 1.042-2.997 1.192-4.499.151-1.51.096-3.174.366-4.659.511-2.809-.067-6.049.731-8.744.369-1.243.611-5.033-.795-5.501" stroke="#171717" stroke-linecap="round"/><path d="M107.038 35.419c.148 1.333 2.561 2.224 2.88 3.657.43 1.936.3 3.998.3 6.024 0 5.777.406 11.712-.883 17.35-.562 2.46-.594 5.04-1.343 7.473-.695 2.26-.954 4.487-.954 6.854v4.364c0 .382.114.995-.07 1.343-.22.415-.855.147-.884.636-.096 1.643-.085 3.942.566 5.406.312.703.07 1.926.07 2.703 0 .967.318 1.842.318 2.862 0 .914.206 1.796.336 2.703.135.943.111 2.092.318 3.021.4 1.803.3 3.673.3 5.565 0 2.019.564 3.848.636 5.795.033.873 1.273 4.063.477 4.699-1.383 1.107-3.069-.426-3.657-1.749-.952-2.141-2.482-3.647-3.251-5.953-.689-2.067-1.201-4.434-1.201-6.608M86.377 29.905c-.818-.09-1.626-1.093-2.244-1.55-.876-.65-1.62-1.386-2.45-2.06-1.068-.868-2.17-2.327-3.024-3.415-.776-.988-1.852-1.764-2.537-2.84-.615-.966-.973-1.75-1.355-2.818-.692-1.938-.683-4.194-.683-6.245 0-.548.344-2.386 1.019-1.17.457.822 2.47 1.365 3.274 1.756 3.93 1.91 7.06 5.138 10.244 8.087 3.108 2.877 6.29 5.72 9.854 8.011 2.039 1.31 4.106 2.73 5.811 4.434.384.384-.785-.04-.976-.087-1.142-.28-2.598-.852-3.664-1.366-1.883-.906-3.531-1.983-5.312-3.035-.725-.429-1.573-.49-2.298-.933-.803-.49-1.526-1.106-2.353-1.56-1.861-1.025-3.613-2.254-5.257-3.6-.922-.754-1.889-1.498-2.732-2.341-.626-.626-1.024-1.414-1.648-2.038-.735-.735-1.681-1.91-2.146-2.84-.78-1.559-2.342-2.842-2.45-4.683-.03-.523-.195-.136-.195.195 0 .486.263.83.585 1.17.689.73 1.39 1.738 1.951 2.58 1.422 2.133 2.393 4.301 4.196 6.104.977.977 2.044 1.858 3.111 2.731 1.093.895 2.618 1.182 3.816 1.952 1.353.87 3.026 1.358 4.488 2.049.996.47 2.02.956 3.079 1.322 1.625.563 3.723 1.187 4.921 2.385" stroke="#171717" stroke-linecap="round"/><path d="M99.452 27.368c0-.566-.199-1.386.39-1.713.683-.38 1.232-.952 1.952-1.312 1.361-.68 2.669-1.341 4.011-1.95 1.162-.529 3.217-.904 4.488-.673 1.789.325 4.819.395 5.355 2.537.484 1.935.125 3.624-.434 5.452-.413 1.354-1.761 2.505-2.677 3.513-.913 1.004-1.416 2.328-2.353 3.317-.535.565-.957.86-1.658 1.17-.741.33-.232.586-.054 1.171.306 1.012.877 2.037 1.322 2.927" stroke="#171717" stroke-linecap="round"/><path d="M110.574 42.394c1.935 0 3.506-1.8 4.488-3.274.538-.806.976-1.858 1.756-2.471.569-.447 1.312-1.555 1.518-2.255.523-1.778 1.105-3.817.477-5.702-.398-1.195-1.309-3.274-2.775-3.274M25.858 61.66c0 3.85.47 7.575 2.596 10.881 1.733 2.695 2.743 5.768 3.834 8.766.407 1.12-.19 2.715.37 3.723.411.74.69 2.114.88 2.968.672 3.025 6.079-.404 7.529-.619 1.88-.278 3.868-1.236 5.756-1.236 1.79 0 3.491-.446 5.248-.495 1.564-.043 3.135 0 4.7 0 .793 0 .65-.129-.028-.618-1.404-1.013-2.83-1.94-4.177-3.036-1.883-1.534-4.166-2.847-5.88-4.562-1.129-1.128-1.886-2.72-3.215-3.654-1.541-1.085-2.957-2.456-4.314-3.765-1.194-1.151-2.373-1.74-3.655-2.72-2.331-1.783-5.152-4.826-8.023-5.647-.706-.201-1.863 1.487-2.24 2.24-.93 1.86-2.216 3.342-3.476 4.946-1.306 1.663-2.353 3.467-3.572 5.207-.67.959-1.193 2.06-2.033 2.899-.718.717-1.583 1.351-2.047 2.28-.963 1.927-1.922 4.161-3.105 5.936-.37.555-1.56 1.948-1.704 2.596-.14.633.34.972.742 1.374 1.236 1.237 2.271 2.656 3.504 3.888 1.896 1.897 4.475 3.346 6.072 5.496 1.076 1.448 2.344 2.558 3.765 3.654 1.549 1.195 2.54 2.756 3.901 4.067 1.513 1.457 2.979 2.939 4.7 4.149 1.612 1.135 4.094 1.768 5.247 3.407.9 1.278 1.838 2.506 2.281 4.012.238.811 1.316 1.979 2.17 1.979" stroke="#171717" stroke-linecap="round"/><path d="M32.039 83.177c-.141-1.127-10.723 2.412-12.489 3.09-1.526.588-3.403-.17-4.822.427-1.405.591-3.903 1.429-5.44 1.429M54.441 44.447v2.778M50.274 48.019c0-.656-.19-1.285-.794-1.587M58.805 47.62c0-.693.384-1.153.595-1.785M84.994 45.24v1.984M81.027 48.019c-.421-.474-1.05-1.319-1.588-1.587M89.559 48.217c0-.868 1.057-1.122 1.388-1.785M58.128 86.7c0 3.87-2.59 7.552-3.82 11.128-1.229 3.576-3.488 6.229-5.207 9.534-1.373 2.641-2.89 5.173-3.888 7.969-.265.743-.671 1.566-.989 2.281-.152.341-.723 1.669-.687.687.052-1.409.894-2.744 1.36-4.04.351-.974 1.197-1.992 1.374-2.967.375-2.064 1.561-4.709 2.583-6.526a203.209 203.209 0 0 0 4.575-8.67c1.663-3.324 3.67-6.389 5.633-9.59.792-1.29.797-.829.797.344 0 2.564-.461 5.676-1.511 8.01-1.252 2.783-2.887 5.383-4.177 8.147-.79 1.691-1.503 3.491-2.473 5.084-1.572 2.583-3.313 5.057-4.946 7.597-.5.779-1.067 2.036-1.786 2.611-.549.438-1.391.779-1.978 1.236-.21.163-.302-.97-.33-1.072-.32-1.142-.677-2.242-.852-3.421-.18-1.221-.556-2.405-.728-3.613-.381-2.668-.048-5.592-.247-8.284-.364-4.908-.509-9.78-.509-14.715M65.007 55.043c-2.506 0-4.367 1.805-6.468 2.886-1.07.55-1.937.812-3.135.901a40.465 40.465 0 0 1-3.908.094c-.413-.01-.948-.15-1.338-.276-.539-.173-1.143-.172-1.67-.376-.799-.311-1.837-.457-2.487-1.04-.461-.412-1.42-.494-1.587-1.243-.195-.877-.168-1.816.243-2.637.515-1.03 1.108-1.998 1.94-2.787.344-.325.767-.534 1.172-.774.561-.331 1.174-.7 1.77-.961 2.406-1.06 5.134-1.885 7.756-1.206 1.413.367 2.582.972 3.908 1.548 1.176.512 2.047 1.554 3.013 2.339.76.618 1.156 1.576 1.565 2.438.222.47-.51 1.038-.874.796M73.963 56.236c0-1.122.887-2.04 1.592-2.863.972-1.135 2.004-1.946 3.184-2.83 1.553-1.166 3.236-2.338 5.274-2.367 1.342-.019 2.565.157 3.881.376 1.302.217 2.569.324 3.803.818.74.296 1.612.912 2.068 1.57.394.569.533 1.127.674 1.836.13.649.318 1.74.023 2.366-.49 1.037-1.47 1.323-2.389 1.89-1.176.728-2.851.881-4.179 1.195-1.537.362-3.271.646-4.854.696-1.2.038-2.396.1-3.604.1-.793 0-1.663-.464-2.31-.896-.557-.37-1.21-.752-1.693-1.216-.339-.327-1.068-.666-1.271-1.073" stroke="#171717" stroke-linecap="round"/></svg>