<svg width="131" height="171" fill="none" xmlns="http://www.w3.org/2000/svg"><g filter="url(#a)"><path d="M89.3 158.7c-.8 0-1.5 0-2.3-.3l-8.3-2.2a8.7 8.7 0 0 1-6.5-8.2v-.7a8.8 8.8 0 0 1-7.9-8.7v-1.4l-5.8-.2a21.3 21.3 0 0 1-18.8-30.2c-10.8-9.2-16.2-23.6-16.2-43 0-3 .1-5.4.4-7.6L12 51.4a6.6 6.6 0 0 1-3.8-7.6c2.5-12.2 7.9-20 16-23.4 2.5-1 5.3-1.6 8-1.6 2.8 0 5.2.5 7.3 1.1A42.5 42.5 0 0 1 72 4c16.8 0 31 8.4 40 23.6a83.7 83.7 0 0 1 10.5 39v.3c-.2 17.7-5.8 31.2-16.4 40.2-5 4.2-10.7 7.2-17.2 9l.7 24.9 2 .5a8.8 8.8 0 0 1-2.2 17.2Zm-34-43.4c0 .7.1 1.4.4 2a4 4 0 0 0 3.5 2.2l12.2.5v-2c-5.9-.3-11.2-1.2-16-2.7h-.1Z" fill="#fff"/></g><path d="M79 72.5c1.8 0 3.7.2 5.4 0 .4 0 .8-.2 1-.5.3-.2-.3.7-.6 1-1.2 1.3-3.7 1.4-5.2.4-.2-.1-.4-.3-.5-.6-.2-.3-.1-.2.3 0 1 .3 2.1.6 3.2.7h1.2c-.4-.2-1 0-1.5 0-.1 0-.7-.3-.2-.3.4 0 1 0 1.4-.3.3-.2-.4 0-.5 0M35.8 45.5v.9c.3 0 1.3-1.4 1.4-1.7.3-.4.5-.8 1-1 .1-.2.1 1.1.1 1.2 0 .6-.7 2.7.1 2.5 1.2-.2 2.7-1.8 3.5-2.8.3-.4-.1 1.5-.1 1.9 0 .4.9-.7 1-.8l2-1.7c1.5-1.1-.1.3.5.9.4.3 2.8-3.2 3.3-3.6 1-1.1.1 1 .4 1.6 0 .3 2.7-2.5 3-2.6.5-.4.1 1.2.2 1.6.2.6 1.2-1 1.2-1a16 16 0 0 1 2.1-2.5c.1-.1 1.1-1.2 1.2-.9 0 .3-.2 1 0 1.2.3.3 2.3-2.3 2.5-2.7l.8-.7c.4-1 1.3-1.9 1.9-2.7.9-1.3 2.4-2.7 3.1-4.1" stroke="#C6C6C8" stroke-width="2.5" stroke-linecap="round"/><path d="M73.7 58.8c0 1.2.9 2.3 1.4 3.3.2.5.7 1 1 1.5l.4.5v-.3L76 63l-.8-2.4c0-.3 0-1.1-.2-1.3a52.4 52.4 0 0 1 2 2.6l.8 1c.3.7.3-.1.3-.4 0-1 0-2.3-.4-3.3 0 0-.2-.5-.2-.2.1.5.9 1.3 1.2 1.7L80 62c.2.3 0-.2 0-.4a7 7 0 0 0 0-1.7c-.1-.1-.3-.9 0-.6 0 .2 1.5 3.1 1.6 3 .3-.3 0-1.5 0-1.7l-.4-1.8c0-.6.3.2.4.3.3.5.8 1.2 1 1.8.2.3.3.5.3 0l.1-1.7s0-1 .1-.8c.4.2.6 1.5.8 1.9.3.6.3 1.4.7 2 .2.4.3.6.3 0v-2l-.2-1.6.4 1c.2.6.5 1.4 1 2 .2.2.3.4.3-.2v-1.7l.1-1c0-.3.5.8.6.9l1.3 3c.2.4.2-.1.2-.3l-.1-2.1-.2-1.4c0-.4.3.2.4.3l1 1.2c.1.1.6.8.8.8v-2.4c0-.8.3.3.7.6.1 0 .2.4.2 0v-.7c-.1-.4-1.2-.7-1.5-.7l-3-.1c-1.2 0-2.2-.5-3.3-.6H82c-1.4 0-2.8.4-4.2.8M103.9 31.4v4.3a30.4 30.4 0 0 1-1.3-5.4c-.1-1.5-.3-3-1-4.4-.3-.8-.1.2-.1.7 0 1.7 0 3.5-.3 5.2-.2 1.1-.5 2.3-.5 3.4v.7c0 .4-.4-1.4-.4-1.4-.4-4-.3-8.2-.3-12.2v.8c-.1-.2-.1 0-.2 0 0 .5 0-1.1-.2-.7-1 3.6-2.6 7.3-2.7 11l-.1.8v-1.3c0-1.7 0-3.4.2-5l.5-3.3V24c-.3-1-.2 0-.3.5-.1 1.3-.5 2.7-.8 4-.6 2.3-1 2.6-1.6 4.9-.2.6-.3 1.4-.6 2l-.2-.7c-.6-4.3.4-6.6 1.2-10.8.2-1.2.6-.6.6-1.9 0-.7-.3-.5-.5.2-.7 2.2-1.6 4.4-2.5 6.6-.7 1.8-1.6 3.6-2 5.5-.1.3-.2-.4-.3-.2-.2.7-.1-.2-.1-.9 0-2.1.3-4.1.7-6.2.4-1.5.7-3 .8-4.5 0-.5 0-.9.2-1.3s.3-.6.3-1V20l-1.8 4.1c-.9 2-1.8 3.8-2.5 5.8-.3.5-.4 1.1-.5 1.7 0 0-.1.9-.2.7v-1.8c.3-1.2 1-2.4 1.4-3.5.7-1.6 1.4-3.3 1.8-5v-1.7l.2-1c0-.3-.4-1-.4-.8l-.6 2.2-2.6 7-1.5 4.6-.5 1.6c-.1.2-.1 0-.2-.2-.2-1.3-.2-2.7 0-4 .1-3.3 1.2-6.3 1.5-9.5l.5-3v-.9c0 1.2-.5 2.3-.9 3.4-.6 2-1.3 4-2.2 5.8a110.7 110.7 0 0 0-2.3 5.2v-3c0-3.6 1.2-7 1.6-10.6a23.6 23.6 0 0 1 .4-2A38 38 0 0 1 83 17c-.8 2.6-1.8 5-2.6 7.7l-.4 1.8-.1.4c0 .6-.3 1.1-.4 1.6-.1.4-.3 1.4-.3 1-.4-4.2 1.5-8 2.1-12.1L82 15s.2-.7 0-.5l-.4.8-1.2 2.9-2.4 7.5c-.4 1.3-1 2.7-1 4-.1.6-.3 0-.3.6 0 .2-.2 0-.2 0-.3-5.7.3-9.4 1.5-14.9l.5-2.3c.2-.5.2 0 .1.3-.6 2.7-1.2 3.3-2.4 5.8a27.9 27.9 0 0 0-2.6 9.8c0 .2-.2.1-.2 0-.4-.7-.2-1.9-.2-2.6 0-3 .3-6 .7-9 .2-1.7.6-3.5 1-5.3l-.1.3-1.5 4.9c-1 2.7-2.4 5.5-2.4 8.5M70 13.4c0 .3 0 .5-.2.8l-1.1 3c-.6 1.4-1.7 2.4-2.4 3.6l-2.2 3.7c-.9 1.3-1.6 2.7-2.6 3.9l-1.1 1.3a33.7 33.7 0 0 1-4.8 4.4c-.8.7-1.7 1-2.6 1.5L50.7 37a22.4 22.4 0 0 1-7.3 2.4c-1.8.3-3.5.7-5.2.7-.1 0-.2 0 0 0 1.5 0 3-.1 4.4-.4 3.7-.7 7.6-1.4 10.8-3.4 1-.7 1.9-1.7 2.6-2.7l2.6-3.7 2.5-3.6 2.3-3.7c1-1.4 1.8-2.7 2.3-4.3.2-.6.6-1.1.9-1.6.2-.4.5-.7.6-1.1l.2-.9c0-.2-.4.3-.4.4-1.6 1.4-2.7 3.3-4 4.9a98.2 98.2 0 0 1-4 4.7c-1 1.2-1.8 2.5-2.7 3.8l-2.2 3-1.5 2.1c-1.3 1.4-2.6 3-4.4 3.6a20.5 20.5 0 0 1-5 1.2h-.7l-.3-.1-.8-.1-1-.1-1.5-.2h.3c.6-.1 1.1-.4 1.6-.6 1.6-.7 3-1.7 4.7-2.2l1.6-.7c.3-.1.5-.3.8-.3.2 0 .1 0 0 .1M66.7 25.5c-.6.8-1.4 1.5-2.1 2.2l-1.8 2-4.6 4.6a105.7 105.7 0 0 1-6.3 5l-.9.5-.4.3" stroke="#171717" stroke-width="2.5" stroke-linecap="round"/><path d="m48 34.3.5-.2 1.4-.7c1-.6 1.6-1.7 2.2-2.6l1.8-2.6 3-3.5c1-1 2-2.2 2.7-3.4.7-1.3 1-2.7 1.8-3.9.3-.5.6-1 1-1.3.5-.4 1-.8 1.3-1.3.4-.4.6-1 .8-1.5l.3-.7c.3-.2-.2.6-.4 1a95.2 95.2 0 0 1-7.8 10.7c-.8 1.2-1.8 2.3-3 3.3L51 29.7c-1.7 2-4.4 2.8-6.4 4.3a6 6 0 0 1-2.7 1.2l-1.7.2c-.3 0-.7 0-1 .2l-.6.2v-.1l.5-.4 2.3-2.1c1.3-1.4 2.8-2.8 4.2-4 1.4-1.2 2.4-2.6 3.6-3.9l6.4-6.7c.5-.5 1-1 1.3-1.6l1.5-1.9.8-1c.4-.3.1.1 0 .4-.3 2-.8 4-1.7 5.9-.4.8-1 1.5-1.5 2.3-.7 1.1-1.4 2.3-2.2 3.3l-2.2 2.2-2.7 3c-1 .7-2.1 1.2-3.2 1.7l-.9.5M36.4 40.2h1.8" stroke="#171717" stroke-width="2.5" stroke-linecap="round"/><path d="M56.7 19.3c0 .5-.5 1-.8 1.5-.4.6-.8 1.2-1.4 1.7l-3.8 3-.7.8c-.6.7-1.2 1.2-2 1.6L46 29l-1 .5M85.6 16l-.3 3c0 1-.7 1.8-.8 2.7M98 30.2v4.5M75.6 15.4c-.2 0 0 1.7 0 2-.1 1-.6 1.7-1.3 2.5M18 42.6c0 1.1.1 2 .6 3 .5.8.4 0 .4-.5v-4.4l.2-2.6s0-1 .2-.8c.7.7 1 2.3 1.4 3.2.5 1 .7 2.2 1 3.2.4 1 1.1 3.7 1.1 2.8 0-2.5-.2-5-.4-7.5a47 47 0 0 1-.3-4.7v-1.2c0 1.2.8 2.7 1.2 3.7 1 3 1.6 6.3 3 9 .1.1.5 1.1.4.6-.3-1.5-.3-3-.4-4.6l-.6-7.8v-3.2c0 1.1.4 2.2.6 3.3.3 1.6.5 3.2 1 4.7.5 1.7.9 3.4 1.5 5 0 .4.6 3.2.8 3.2l-.5-12.7v-5.2s0-.4 0 0c0 .9.3 2 .5 2.9l1.9 6.4c.5 1.4 1 3 1.3 4.4.2.8.8 1.8.8 2.7 0 1 .2-.2.2-.6 0-1.6-.3-3.3-.5-5-.2-2.5-.6-5-.6-7.7l-.1-2.8v-1.7c.3-.6 0-1.2.2 0 .4 2 1 4.1 1.6 6.1.5 1.3.9 2.6 1 4 0 .2.2 1.2.4 1.3 0 0 .2 1.1.2.5 0-2.6-.3-5.5.1-8l.2-2c0-.9.5.6.5.8.6 1.3 1.3 2.6 1.7 4 .1.6.3 2.3.5 1.7.4-1.5.9-6.4.9-4.7" stroke="#171717" stroke-width="2.5" stroke-linecap="round"/><path d="M30 28.2c0 1 .6 2 .6 3 0 .4.2.7.3 1.1.2.5.6 1.1.6 1.7M24.5 37.3V35l-.5-1.4c-.3-.7-.4-1.5-.6-2.2l-.3-.8" stroke="#171717" stroke-width="2.5" stroke-linecap="round"/><path d="M73 138.6v-9.8l-14.3-.6a12.7 12.7 0 0 1-10.2-19.6l2-3.1.9-1.4" stroke="#171717" stroke-width="1.5" stroke-linecap="round" stroke-linejoin="round"/><path d="M32.1 63.8c0-25.8 17.3-51 39.7-51 31.4 0 41.3 33.5 41.7 54-.4 33.2-21.8 42.4-39.6 42.4-19 0-41.8-7.8-41.8-45.4Z" stroke="#171717" stroke-width="1.5" stroke-linecap="round" stroke-linejoin="round"/><path d="M72 13c-2.1 10.2-12.3 30.6-36.1 30.6M41.8 30.6c-6.5-4.3-20.6-7.4-25.2 15M79.7 109l1.1 38.7 8.4 2.3M41.1 63c-.1 8.6 7.2 26 37.7 26l-2.3-8.3M84.9 80.7 82.5 89c14.6 0 23.4-3.8 29-9" stroke="#171717" stroke-width="1.5" stroke-linecap="round" stroke-linejoin="round"/><path d="M68 23.8a49.5 49.5 0 0 0 37.3 10.6" stroke="#171717" stroke-width="1.5" stroke-linecap="round"/><path d="M82.7 68c5.1 0 9.4-3.6 10.3-8.4.2-1-.7-1.9-1.7-1.9H74c-1 0-1.9.9-1.7 1.9.9 4.8 5.2 8.4 10.4 8.4Z" stroke="#171717" stroke-width="1.5"/><path d="M75.3 51.8c0-2-1.6-3.6-3.5-3.6-2 0-3.6 1.6-3.6 3.6M97.3 51.8c0-2-1.6-3.6-3.5-3.6-2 0-3.6 1.6-3.6 3.6" stroke="#171717" stroke-width="1.5" stroke-linecap="round" stroke-linejoin="round"/><path d="M111.7 79.3c-.8 0-1.7 1-2 1.6l-1.1 1c-.4.5-1.2.6-1.7.9l-3.1 1.7c-.7.4-1.5.8-2.2 1-.5.1-.8.6-1.3.7l-1.8.7-1.5.2a38 38 0 0 1-4.8.3c-1 0-2 .4-2.9.4H88c-.1.2-.3.2-.5.2 0 .1-.5 0 0 0" stroke="#171717" stroke-linecap="round"/><path d="M87.5 88.1h-2.4c-.7 0-1.7 0-1.5-1 0-.5.3-1.1.5-1.7.2-.7.7-1.2.8-1.9l.4-2.4c.2-.3.2-.8.2-1.2M75.7 80.5c0 .3.2.7.4 1l.5 1.1c.4.7.4 1.5.6 2.2l.3 1.3c.1.3.3.6.3 1 .2.4.1.9.1 1.3M77.7 88.2h-2.8c-.8-.2-1.6-.2-2.4-.2H71l-1-.2h-2l-1.5-.4-1.7-.7c-.6-.1-1.2-.2-1.8-.5l-1.1-.4" stroke="#171717" stroke-linecap="round"/><path d="M62 85.8h-1l-.7-.5-1.2-.5c-.6 0-1.4-.4-1.9-.8-.5-.5-1.3-.6-2-.9-1-.4-1.9-.8-2.7-1.5l-1.2-1c-.2 0-.4-.3-.6-.5l-.4-.3M50.4 79.8c-.4-.4-.8-1-1.3-1.2-.2 0-.5-.3-.6-.5a6 6 0 0 1-.8-1c-.3-.5-1-.8-1.3-1.3l-1-1.7c-.5-.5-.8-1.2-1.2-1.7l-.6-1.2c-.2-.2-.5-.5-.5-.8 0-.4-.2-.8-.3-1.1l-.1-1.3c-.1-.5-.3-1.1-.6-1.5M42 66.3V62.5M80 109.1c0 3 0 6 .7 9 .2 1 0 2 0 3V125.9c0 .5 0 1.3.2 1.7M80.9 127.6l.2 3.6v11.1c0 1.9.2 3.5.8 5.2M82 147.5c1 0 1.8 0 2.7.3a3 3 0 0 1 1.4.7c.3.4 1 .5 1.4.6l1.3.6M51.6 105l-.1.8c0 .3-.4.6-.6.8l-.7 1c-.2.1-.4.2-.4.5-.2.7-1 1.3-1.3 2l-.9 1.5c-.2.5-.3 1-.3 1.6l-.2 1.8c0 .7.3 1.3.4 2 0 .4 0 .9.2 1.3M47.8 118.3v1.2c.4.4.5 1 .7 1.3.2.6 0 1.4.4 2l1.2 1.2c1 .7 2.3 1.3 3.3 2.3.4.3 1.1.4 1.6.6.3.2 1.3.3 1.4.6M56.5 127.5c2 0 4.1-.2 6.1.1 1.7.3 3.3.4 5 .4l1.6.1 1 .2c.7 0 1.2 0 1.8.3M72 128.6v1.2l.2 1c0 1 .3 1.8.3 2.6v2.5c0 .9-.4 1.7-.4 2.6M105.3 35.5c.3 0 .8.7.9 1l.5 1.2c.5 1.3.3 2.7 1 4l1.2 2.6c.5 1 .8 2.3 1.3 3.4.4.9 1 1.5 1.4 2.5.2.7.2 1.4.2 2.2 0 .7.2 1.3.3 2 0 3 .5 5.9.5 8.8M112.5 63.1v13.3c0 1 0 1.9-.3 2.8l-.6 2.2c-.1.4-.1 1-.4 1.4-.4.9-1.2 1.7-1.4 2.6l-.6 1.9M109 87.4c0 .6-.3 1-.6 1.4-.4.6-.4 1.3-.7 1.8-.3.7-.3 1.4-.9 2l-2.2 1.8c-.4.4-.6.9-.8 1.4-.4.8-1.3 1.3-1.8 2-.8 1.4-2.6 2-3.7 3.2l-1.7 1.4c-.4.4-.9.5-1.2.9l-1.4.9c-.5.2-1.2.4-1.7.8-1 .8-2.5.7-3.5 1.3l-1.3.4c-.6 0-1.1.4-1.7.4M85.8 107c-1 0-1.9 0-2.8.4-.6.2-1.1.7-1.7.9l-1.9.4c-1.4.3-3 .7-4.4.7l-4.2.2c-2.5 0-4.9-1.1-7.4-1.2-1.2 0-2.2-.8-3.3-1.1-.4-.1-1-.3-1.2-.5l-.8-.9M58 106.4c-.6 0-1-.4-1.7-.5l-1.5-.4c-1-.3-1.7-.7-2.5-1.1-.8-.5-1.7-.8-2.4-1.4l-1-.9c-.5-.3-.7-.8-1.2-1-.7-.5-1.4-1.3-2-1.9-.5-.5-.8-.6-1.3-1.2l-1.3-1.3-.6-.6c-.2 0-.2-.4-.4-.5l-1.1-.8c-.6-.3-.9-1-1.5-1.2" stroke="#171717" stroke-linecap="round"/><path d="M40 94.3c0-.7-.1-1.4-.3-2" stroke="#171717" stroke-linecap="round"/><path d="M41 94.5c-.6 0-1.4-1.3-1.8-1.7-.4-.4-1-.8-1-1.4-.1-.6-.5-1.2-.7-1.8-.1-.6-.5-1.2-.8-1.7-.6-1-1.3-1.8-1.5-3l-.4-2.2c-.2-.7-.2-1.5-.5-2-.2-.7-.2-1.5-.3-2.2l-.5-2v-5.4c0-.4-.3-.7-.3-1 0-1-.3-2-.5-2.8 0-.2 0-1.3-.2-1.4M32.5 65.8c0-1.4-.2-3 .2-4.4.5-1.8.2-4 .2-5.8 0-1.8.4-4 1.4-5.6.4-.6.5-1.5.7-2.2.2-1 .3-2 .6-2.8M72 13c0 2.5-1.5 5-2.5 7.3-.3 1-1 1.8-1.5 2.8l-1.3 2.6c-1.1 2.1-2.8 3.7-4.3 5.6l-2 2.5c-1 1-2 2.2-3.2 3a22.8 22.8 0 0 1-5.3 3c-1.6.6-3.3.8-5 1.3-1.4.5-2.8 1.2-4.2 1.6a9 9 0 0 1-2.2.4c-.8 0-1.5.5-2.3.5-.6 0-1.1.3-1.7.3-.4 0-1 .3-.8-.2.7-1.5 1.5-4 2.5-5.3 2.7-3.6 4.2-7.5 7-11 1-1.2 2-1.8 2.9-3a40.1 40.1 0 0 1 13.3-10.1c2.2-.8 4.5-1.8 7-1.8 1 0 2 0 3 .2.3 0 1.7.3 1.2.3" stroke="#171717" stroke-linecap="round"/><path d="M72.8 13.4c2 0 4.3-.2 6.2.2 1 .2 2 .2 2.9.6.9.5 1.8 1 2.8 1.3 1.5.5 3 1 4.3 1.7 1 .4 1.9 1 2.7 1.6.8.5 1.3 1.2 2 1.7l3 2.4c.8.5 1.2 1.4 2 1.9.3.3 1 .8 1.2 1.2l1 1c.4.5.6 1.3 1 1.8 1.2 1 2.7 1.6 3.5 3 .3.7.2 1.7.2 2.4 0 1-2 .5-2.6.5h-3.7c-2 0-4 .2-6 0-1.8-.2-3.6-.6-5.4-1l-6.1-2c-2.1-.6-4-1.4-5.8-2.5-1.9-1-3.7-2.3-5.5-3.5-.6-.4-1.3-.6-1.9-1.2-.2-.2-.4-.6-.7-.7M42 31.3c-.3 0-.7-.3-1-.4l-1.4-.4c-.7-.3-1.5-.4-2.1-.8a7 7 0 0 0-3.6-1.4c-2.5 0-5.8-.4-7.8 1.5l-2 1.8c-.9.7-1.4 1.5-2.2 2.2-.6.7-1.4 1.2-1.9 2-.4.5-1 1.3-1 2 0 .9-.5 1.8-.8 2.6-.2.6-.3 1.4-.6 2-.4.8-1 2.2-1 3.1M90.7 52v-.6l.2-.6c.1-.4.3-.8.7-1 .3-.2.6-.5 1-.5s.8-.3 1.3-.3c.3 0 .7 0 1 .3l.9.7c.4.4.4.9.5 1.3l.2.4.2.5M75.7 52.1c0-.6 0-1.2-.2-1.8 0-.3-.2-.4-.3-.6l-.3-.6-.3-.5a5.4 5.4 0 0 0-2-.9l-1.4-.2c-.5 0-1 .8-1.3 1.1l-.6.9-.7.5-.4.7c-.1.4-.4.7-.6 1M72.2 57.7c.5 0 1-.2 1.4-.3l1-.2c1.5-.2 3 0 4.6 0 1.3.1 2.5 0 3.8.2l2.9.2 1.2-.1 1.4-.2h2c.5 0 1 0 1.6.2.4 0 .8 0 1.2.3" stroke="#171717" stroke-linecap="round"/><path d="M93.3 57.8c.5.2.4 1 .5 1.4v1.2c0 .3-.3.6-.4.9-.2.7-.6 1.3-1 1.9l-.7.8-.9 1c-.5.7-1.4 1-2.1 1.7-.3.3-.8.5-1.2.7a8 8 0 0 1-1.3.5l-1 .4c-.3.2-.8.2-1.2.2-.4.2-.8.1-1.3.1l-1 .2" stroke="#171717" stroke-linecap="round"/><path d="m81.8 68.8-2.5-.2c-.4 0-1-.2-1.3-.5-.3-.2-.6-.2-.8-.5l-.9-.8-.9-.7c-.2-.1-.2-.3-.3-.5l-.5-.7-.9-1c-.2-.2-.2-.4-.3-.7-.1-.1-.3-.3-.3-.5-.2-.3-.3-.7-.6-1a2 2 0 0 1-.3-.6l-.1-.6c-.1-.2 0-.5 0-.8V58" stroke="#171717" stroke-linecap="round"/><defs><filter id="a" x="0" y="0" width="130.4" height="170.7" filterUnits="userSpaceOnUse" color-interpolation-filters="sRGB"><feFlood flood-opacity="0" result="BackgroundImageFix"/><feColorMatrix in="SourceAlpha" values="0 0 0 0 0 0 0 0 0 0 0 0 0 0 0 0 0 0 127 0" result="hardAlpha"/><feOffset dy="2"/><feGaussianBlur stdDeviation="1"/><feComposite in2="hardAlpha" operator="out"/><feColorMatrix values="0 0 0 0 0 0 0 0 0 0 0 0 0 0 0 0 0 0 0.02 0"/><feBlend in2="BackgroundImageFix" result="effect1_dropShadow_704_1576"/><feColorMatrix in="SourceAlpha" values="0 0 0 0 0 0 0 0 0 0 0 0 0 0 0 0 0 0 127 0" result="hardAlpha"/><feOffset dy="4"/><feGaussianBlur stdDeviation="4"/><feComposite in2="hardAlpha" operator="out"/><feColorMatrix values="0 0 0 0 0 0 0 0 0 0 0 0 0 0 0 0 0 0 0.06 0"/><feBlend in2="effect1_dropShadow_704_1576" result="effect2_dropShadow_704_1576"/><feBlend in="SourceGraphic" in2="effect2_dropShadow_704_1576" result="shape"/></filter></defs></svg>