<svg width="169" height="174" fill="none" xmlns="http://www.w3.org/2000/svg"><g filter="url(#a)"><mask id="b" maskUnits="userSpaceOnUse" x="8.3" y="3.9" width="153" height="158" fill="#000"><path fill="#fff" d="M8.3 3.9h153v158H8.3z"/><path fill-rule="evenodd" clip-rule="evenodd" d="M95.9 24.4a26.9 26.9 0 0 0-33.6-7.7l-13.9 7a26.9 26.9 0 0 0-13.1 33A11.4 11.4 0 0 1 38 56c3.2-16.8 13.3-31 28.2-34.5a36.7 36.7 0 0 1 36.3 11.8l-6.6-8.8ZM48 23a27.7 27.7 0 0 0-13.6 34.2c-6 3.2-8.6 11.7-5.7 19.7 2.2 5.7 6.6 9.8 11.4 11 2 6.3 4.4 11.3 7.3 15.4l-.4-.1c-4.6 1.7-2.6 6.5-.5 9.4l.5.7c4.2 5.8 12.3 4.8 16.2 3.3V151c0 .2.1.4.3.4l7.4 2.2a.4.4 0 0 0 .2-.8l-7-2.1v-34.3a46.4 46.4 0 0 0 26 .7c3.3-.8 6.8-2 10.1-3.5 0 .2.3.3.4.2 4.4-.5 10.5.3 14.9 4 4.3 3.6 7 10.2 4.1 21.8 0 .2 0 .4.2.5l5.6 3.6a.4.4 0 1 0 .4-.7l-5.3-3.4c2.8-11.7.1-18.6-4.5-22.5-4.2-3.6-10-4.5-14.3-4.2a34.7 34.7 0 0 0 18.6-24.5l4.5 11.6.4 1.2a3 3 0 0 0 5.6-1.8v-.1a3 3 0 0 0-3.9-2l-2 .7-4-10.3 14.3-5 5 12.7.4.9a3 3 0 1 0 5.7-2.3 3.1 3.1 0 0 0-3.8-1.7l-2.3.7-4.4-11c0-.2-.3-.3-.5-.2l-14.7 5a56.7 56.7 0 0 0-2.2-25.3c2 4 5.9 9 11.5 11.3 5.8 2.5 13.3 2 22.2-4.9l.2-.3v-6.5a.4.4 0 1 0-.9 0v6.3c-8.6 6.6-15.7 7-21.1 4.6-5.4-2.2-9.2-7-11-10.8 7.7-4.5 6.4-17.3-.2-25.6-.7-1-1.5-1.7-2.4-2.3a3 3 0 0 0 3.4-1.5v-.1a3 3 0 0 0-1.4-4l-1.8-1L121 17l14 6.4-6 13.4h.1A3 3 0 0 0 135 39c.6-1.5 0-3.2-1.5-4l-2.1-1 4.7-10.7c.1-.2 0-.4-.2-.5L121.1 16a.4.4 0 0 0-.6.3l-5.1 12-.5 1-.2.6a3 3 0 0 0 .6 2.5 13 13 0 0 0-12 .4l-6.7-8.9a27.7 27.7 0 0 0-34.7-8l-13.8 7Zm54.8 10.7h.2v.2l-.1-.1ZM118.3 61v-.2l.2.1-.1.2V61Z"/></mask><path fill-rule="evenodd" clip-rule="evenodd" d="M95.9 24.4a26.9 26.9 0 0 0-33.6-7.7l-13.9 7a26.9 26.9 0 0 0-13.1 33A11.4 11.4 0 0 1 38 56c3.2-16.8 13.3-31 28.2-34.5a36.7 36.7 0 0 1 36.3 11.8l-6.6-8.8ZM48 23a27.7 27.7 0 0 0-13.6 34.2c-6 3.2-8.6 11.7-5.7 19.7 2.2 5.7 6.6 9.8 11.4 11 2 6.3 4.4 11.3 7.3 15.4l-.4-.1c-4.6 1.7-2.6 6.5-.5 9.4l.5.7c4.2 5.8 12.3 4.8 16.2 3.3V151c0 .2.1.4.3.4l7.4 2.2a.4.4 0 0 0 .2-.8l-7-2.1v-34.3a46.4 46.4 0 0 0 26 .7c3.3-.8 6.8-2 10.1-3.5 0 .2.3.3.4.2 4.4-.5 10.5.3 14.9 4 4.3 3.6 7 10.2 4.1 21.8 0 .2 0 .4.2.5l5.6 3.6a.4.4 0 1 0 .4-.7l-5.3-3.4c2.8-11.7.1-18.6-4.5-22.5-4.2-3.6-10-4.5-14.3-4.2a34.7 34.7 0 0 0 18.6-24.5l4.5 11.6.4 1.2a3 3 0 0 0 5.6-1.8v-.1a3 3 0 0 0-3.9-2l-2 .7-4-10.3 14.3-5 5 12.7.4.9a3 3 0 1 0 5.7-2.3 3.1 3.1 0 0 0-3.8-1.7l-2.3.7-4.4-11c0-.2-.3-.3-.5-.2l-14.7 5a56.7 56.7 0 0 0-2.2-25.3c2 4 5.9 9 11.5 11.3 5.8 2.5 13.3 2 22.2-4.9l.2-.3v-6.5a.4.4 0 1 0-.9 0v6.3c-8.6 6.6-15.7 7-21.1 4.6-5.4-2.2-9.2-7-11-10.8 7.7-4.5 6.4-17.3-.2-25.6-.7-1-1.5-1.7-2.4-2.3a3 3 0 0 0 3.4-1.5v-.1a3 3 0 0 0-1.4-4l-1.8-1L121 17l14 6.4-6 13.4h.1A3 3 0 0 0 135 39c.6-1.5 0-3.2-1.5-4l-2.1-1 4.7-10.7c.1-.2 0-.4-.2-.5L121.1 16a.4.4 0 0 0-.6.3l-5.1 12-.5 1-.2.6a3 3 0 0 0 .6 2.5 13 13 0 0 0-12 .4l-6.7-8.9a27.7 27.7 0 0 0-34.7-8l-13.8 7Zm54.8 10.7h.2v.2l-.1-.1ZM118.3 61v-.2l.2.1-.1.2V61Z" fill="#fff"/><path d="m32.6 84.3 4-.5-4 .5Zm0 0-4 .6 4-.6Zm0 0 4-.5-4 .5Zm0 0-4 .6 4-.6Zm0 0-4 .6 4-.6Zm0 0 4-.5v-.1l-4 .6Zm-5 16.2-1 3.9 1 .1v-4Zm-15 10.6-4 .7 4-.7Zm4.8 8.6 2.5-3.1-2.5 3Zm15-6.5 3.4 2.1-3.4-2Zm-4-29.8.3 1.5 7.9-1.1-.2-1.5-8 1Zm.3 1.5 7.9-1.1-8 1Zm0 0 7.9-1.1-8 1Zm0 0 7.9-1.1-8 1Zm0 0 7.9-1.2-8 1.2Zm0 0 7.9-1.2-8 1.2Zm0 0c.4 3 .9 6.5.5 9.2-.1 1.3-.5 2-.7 2.2 0 0-.1.2-.8.2v8c2.9 0 5.3-1 7-3.2 1.6-1.8 2.2-4.2 2.5-6.2.5-4-.2-8.6-.6-11.3l-8 1Zm0 11.7a20.2 20.2 0 0 0-14 1.1c-2.2 1.2-4.1 3-5.3 5.5a14.2 14.2 0 0 0-.8 8.6l7.9-1.5c-.4-1.9-.1-3 .2-3.8.3-.7.9-1.2 1.7-1.7 2-1 5-1.2 8.3-.4l2-7.8ZM15 122.8c2.1 1.7 4.5 2.6 7 2.6 2.4 0 4.6-.8 6.3-2 3.4-2 6-5.5 7.5-8.1l-6.8-4.2a17.8 17.8 0 0 1-5 5.6c-.8.6-1.5.7-2 .7-.4 0-1.1 0-2-.8l-5 6.2Zm20.8-7.5c1.3-2.1 2.7-2.9 3.5-3 .6 0 2 .1 4.1 2.7l6.3-5c-3.2-4-7.1-6.1-11.4-5.6-4.1.5-7.3 3.4-9.3 6.7l6.8 4.2Zm-27.2-3.5c.8 4 2.8 8.2 6.4 11l5-6.2c-1.8-1.4-3-3.7-3.5-6.3l-7.9 1.5Zm53.7-95.1 3.6 7.1-3.6-7.1ZM96 24.4l-6.4 4.9 6.4-4.9Zm-47.5-.7 3.7 7.2-3.7-7.2Zm-13.1 33-7.6 2.7a8 8 0 0 0 10.8 4.7l-3.2-7.4Zm.6-.2L33 49l2.8 7.5Zm2.1-.6 1.3 8a8 8 0 0 0 6.6-6.5L38 56Zm28.2-34.5-1.8-7.8 1.8 7.8Zm36.3 11.8-5.8 5.5a8 8 0 0 0 12.2-10.4l-6.4 4.9ZM34.5 57l3.7 7a8 8 0 0 0 3.8-9.7L34.5 57Zm13.6-34.2 3.6 7.2-3.6-7.2ZM28.8 76.8l-7.5 2.7 7.5-2.7Zm11.4 11 7.7-2.4a8 8 0 0 0-5.6-5.3l-2 7.7Zm7.3 15.4-3.3 7.3A8 8 0 0 0 54 98.7l-6.5 4.5Zm-.4-.1 3.3-7.3a8 8 0 0 0-6-.2l2.7 7.5Zm-.5 9.4 6.5-4.7-6.5 4.7Zm.5.7 6.5-4.7a8 8 0 0 0-.3-.3l-6.2 5Zm16.2 3.3h8a8 8 0 0 0-10.9-7.5l3 7.5Zm.3 35L66 144l-2.3 7.6Zm7.4 2.2-2.3 7.7 2.3-7.7Zm.5-.3 7.7 2.3-7.7-2.3Zm-.3-.5-2.3 7.7 2.3-7.7Zm-7-2.1h-8a8 8 0 0 0 5.7 7.7l2.3-7.7Zm0-34.3 2.7-7.5a8 8 0 0 0-10.7 7.5h8Zm26 .7-1.9-7.8 1.8 7.8Zm10.1-3.5 7-3.8a8 8 0 0 0-10.4-3.4l3.4 7.2Zm.4.2 1 8-1-8Zm14.9 4-5.2 6 5.2-6Zm4.1 21.8L112 138l7.7 1.8Zm.2.5-4.4 6.7 4.4-6.7Zm5.6 3.6-4.4 6.7 4.4-6.7Zm.4-.7-4.4 6.7 4.4-6.7Zm-5.3-3.4-7.7-1.9a8 8 0 0 0 3.4 8.5l4.4-6.6Zm-4.5-22.5-5.1 6 5.1-6Zm-14.3-4.2-3.8-7.1a8 8 0 0 0 4.2 15l-.4-8Zm18.6-24.5 7.4-2.9a8 8 0 0 0-15.3 1.3l7.9 1.6Zm4.5 11.6 7.5-2.7v-.2l-7.5 2.9Zm.4 1.2 7.6-2.7-7.6 2.7Zm3.7 1.8-2.5-7.6 2.5 7.6Zm1.9-3.6-7.7 2.4 7.7-2.4Zm0-.1 7.6-2.4-7.6 2.4Zm-3.9-2-2.5-7.5 2.5 7.6Zm-2 .7-7.4 3c1.6 4 6 6 10 4.6l-2.5-7.6Zm-4-10.3-2.6-7.6a8 8 0 0 0-4.8 10.5l7.4-3Zm14.3-5 7.4-3a8 8 0 0 0-10-4.5l2.6 7.6Zm5 12.7 7.6-2.7-.1-.3-7.4 3Zm.4.9 7.5-2.7-7.5 2.7Zm3.8 2-2.3-7.8 2.3 7.7Zm2-4.3 7.3-3.2-7.4 3.2Zm-3.9-1.7-2.4-7.7 2.4 7.7Zm-2.3.7-7.4 3a8 8 0 0 0 9.9 4.6l-2.5-7.6ZM136 82l-7.4 3 7.4-3Zm-.5-.2 2.6 7.6-2.6-7.6Zm-14.7 5-8-1.2a8 8 0 0 0 10.6 8.8l-2.6-7.5Zm-1-21 7.9-1.7V64l-7.8 2Zm-1.2-4.3 7.2-3.5A8 8 0 0 0 111 64l7.6-2.4ZM130 72.9l3.1-7.3-3 7.3Zm22.2-4.9 5 6.3-5-6.3Zm-.7-.5 5 6.3a8 8 0 0 0 3-6.3h-8ZM130.4 72l3-7.3-3 7.3Zm-11-10.8-4-7a8 8 0 0 0-3.2 10.5l7.2-3.5Zm-.2-25.6 6.3-5-6.3 5Zm-2.4-2.3 2-7.8a8 8 0 0 0-6.8 14.1l4.8-6.3Zm3.4-1.5 7.1 3.6-7.1-3.6Zm0-.1-7.1-3.6 7.1 3.6Zm-1.4-4-3.4 7.1 3.4-7.2Zm-1.8-1-7.4-3a8 8 0 0 0 3.9 10.2l3.5-7.2ZM121 17l3.3-7.3a8 8 0 0 0-10.7 4.2l7.4 3.1Zm14 6.4 7.4 3.3a8 8 0 0 0-4-10.6l-3.3 7.3Zm-6 13.4-7.2-3.3a8 8 0 0 0 4 10.6l3.3-7.3Zm.1 0 7.6 2.7a8 8 0 0 0-4.3-10l-3.3 7.3Zm1.5 3.8-3.8 7 3.8-7ZM135 39l-7.4-2.9L135 39Zm-1.5-4 3.6-7-3.6 7Zm-2.1-1-7.3-3.3a8 8 0 0 0 3.7 10.4l3.6-7.1Zm4.7-10.7-7.3-3.2 7.3 3.2Zm-.2-.5-3.3 7.3 3.3-7.3ZM121.1 16l-3.3 7.3L121 16Zm-.4 0-2.9-7.4 3 7.4Zm-.2.3-7.4-3.1 7.4 3Zm-5.1 12 7.2 3.4.2-.3-7.4-3Zm-.5 1-7.2-3.4 7.2 3.4Zm-.2.6 7.4 3.1.4-1.3-7.8-1.8Zm0 0-7.4-3a8 8 0 0 0 4.3 10.4l3-7.3Zm0 0 7.9 1.6a8 8 0 0 0-4.8-8.9l-3 7.4Zm.6 2.5-3.7 7a8 8 0 0 0 10-12l-6.3 5Zm-12 .4-6.4 4.8a8 8 0 0 0 10.3 2.2l-3.9-7Zm-6.7-8.9-6.4 4.8 6.4-4.8Zm-34.7-8-3.6-7.1 3.6 7.1Zm41.2 17.7h8a8 8 0 0 0-8-8v8Zm-.2 0 3-7.4A8 8 0 0 0 97 39l6-5.4Zm.2.2-6 5.4a8 8 0 0 0 14-5.4h-8Zm-.1-.1 5.9-5.4-6 5.4Zm15.3 27.1 4.2-6.8a8 8 0 0 0-11.8 9.3l7.6-2.5Zm0 .2 7.7-2.5-7.7 2.5Zm.2 0 6.3 4.8a8 8 0 0 0-2-11.7l-4.3 6.8Zm-.1.1-7.6 2.5a8 8 0 0 0 15.5-1.6l-8-.9ZM65.9 23.8c8.2-4 18-1.8 23.6 5.5l12.7-9.7a34.9 34.9 0 0 0-43.5-10l7.2 14.2Zm-13.8 7 13.8-7-7.2-14.2-13.9 7 7.3 14.3ZM42.8 54c-3.2-8.8.7-18.8 9.3-23.1l-7.3-14.3c-15.8 8-23 26.4-17 42.8l15-5.4Zm-9.7-5-1 .4L38.5 64l.2-.1L33 49Zm3.7-1c-1.3.2-2.5.5-3.7 1l5.6 15 .6-.2L36.8 48Zm27.6-34.4C45.2 18 33.7 36 30.2 54.4l15.7 3c2.9-15 11.4-25.8 22-28.2l-3.5-15.6Zm43.9 14a44.7 44.7 0 0 0-43.9-14l3.5 15.6c12-2.7 21.4 1.7 28.8 9.5l11.6-11Zm-18.8 1.7 6.6 8.7 12.8-9.7-6.7-8.7-12.7 9.7ZM42 54.3c-3.3-9.2.7-19.7 9.7-24.2l-7.3-14.3a35.7 35.7 0 0 0-17.4 44l15-5.4ZM36.3 74c-2-5.4.4-9 2-9.8L30.7 50C20.2 55.6 17.4 69 21.3 79.5l15-5.5Zm6 6.1c-2-.5-4.6-2.5-6-6.1l-15 5.5c3 8 9.2 14 16.9 16l4-15.4ZM54 98.7A49 49 0 0 1 48 85.4l-15.3 4.8c2.1 6.9 5 12.7 8.3 17.6L54 98.7Zm-10.2 11.7.4.1L50.7 96l-.3-.1-6.6 14.6Zm9.3-2.6-.7-1.1-.1-.2a4 4 0 0 1-.6 2.4 4 4 0 0 1-1.9 1.7l-5.4-15c-2.5.9-5 2.6-6.5 5.2a12 12 0 0 0-1.5 7.4c.4 3.8 2.3 7 3.6 9l13-9.4Zm.2.4-.2-.4-13 9.3.8 1.2 12.4-10.1Zm7.1.8c-1 .4-2.7.7-4.3.6-1.5-.1-2.2-.6-2.5-1l-13 9.3a19 19 0 0 0 14 7.6c4.5.4 8.7-.4 11.6-1.6L60.4 109Zm11 42.1v-34.6h-16V151h16Zm-5.5-7.2c3.2 1 5.4 3.9 5.4 7.2h-16c0 3.7 2.5 7 6 8L66 144Zm7.4 2.2-7.4-2.2-4.6 15.3 7.4 2.2 4.6-15.3Zm-9.5 5c1.2-4 5.5-6.2 9.5-5l-4.6 15.3a8.4 8.4 0 0 0 10.5-5.7l-15.4-4.6Zm5.1 9.5a7.6 7.6 0 0 1-5-9.5l15.3 4.6a8.4 8.4 0 0 0-5.7-10.5l-4.6 15.4Zm-7-2.1 7 2 4.6-15.3-7-2-4.6 15.3Zm-5.7-42v34.3h16v-34.3h-16Zm32.1-7C81 111 73.5 111.3 67 109l-5.5 15C72 128 83 127 92 125l-3.6-15.6Zm8.6-3a40.7 40.7 0 0 1-8.6 3L92 125c4-.9 8-2.2 11.9-4l-7-14.5Zm3-.5a7.6 7.6 0 0 1 7.5 4l-14.2 7.5c1.6 3 4.9 4.8 8.4 4.4l-1.8-16Zm20.8 5.7a28.2 28.2 0 0 0-20.9-5.7l1.8 15.9c1.4-.2 3.2-.1 4.8.2 1.7.4 3 1 4 1.9l10.3-12.3Zm6.8 30c3.3-13.6.6-23.8-6.8-30L110.4 124c1.3 1 4 4.1 1.6 13.9l15.5 3.7Zm-3.2-8.2c2.7 1.8 4 5 3.2 8.1L112 138c-.9 3.4.6 7 3.5 9l8.8-13.4Zm5.5 3.6-5.5-3.6-8.8 13.4 5.6 3.6 8.7-13.4Zm-10.4 2.2c2.3-3.5 7-4.4 10.4-2.2l-8.7 13.4a8.4 8.4 0 0 0 11.6-2.4l-13.3-8.8Zm2.1 10.5a7.6 7.6 0 0 1-2.1-10.5l13.3 8.8a8.4 8.4 0 0 0-2.4-11.7l-8.8 13.4Zm-5.2-3.5 5.2 3.5 8.8-13.4-5.3-3.4-8.7 13.3Zm-5.3-23c1.6 1.3 4.2 4.8 1.9 14.5l15.5 3.7c3.2-13.6.5-24-7.1-30.4L111 123.3Zm-8.8-2.3c3.3-.2 6.7.5 8.8 2.3l10.3-12.2a28.7 28.7 0 0 0-20-6.1l1 16Zm10.3-34c-1.9 9.3-7.5 15.2-14.5 18.9l7.5 14.2a42.7 42.7 0 0 0 22.7-30L112.5 87Zm19.9 10.2-4.6-11.6-14.9 5.9 4.6 11.5 14.9-5.8Zm.5 1.4-.5-1.2-15 5.4.4 1.2 15-5.4Zm-6.4-3a5 5 0 0 1 6.4 3l-15 5.4a11 11 0 0 0 13.6 6.7l-5-15.2Zm-3.3 6.3a5 5 0 0 1 3.3-6.4l5 15.2a11 11 0 0 0 7-13.6l-15.3 4.8Zm0 0 15.3-4.8V97l-15.3 4.8Zm6.4 3.1a5 5 0 0 1-6.4-3.2l15.3-4.8a11 11 0 0 0-14-7.1l5.1 15.1Zm-2 .7 2-.7-5.1-15.1-2 .7 5.1 15.1Zm-14-15 4 10.3 15-5.8-4.1-10.3-15 5.8Zm19-15.4-14.2 5 5.2 15 14.3-4.9-5.2-15.1Zm15.2 17.2-5.1-12.6-14.8 6 5 12.5 14.9-6Zm.4 1.2-.3-.9-15 5.3.3 1 15-5.4Zm-6-3a5 5 0 0 1 6 3l-15 5.3c2 5.6 7.9 8.7 13.5 7l-4.5-15.4Zm-3 6.6a4.9 4.9 0 0 1 3-6.7l4.5 15.4c6.5-1.9 9.7-9 7-15.1l-14.6 6.4Zm5.9 2.7c-2.5.8-5-.4-6-2.7l14.7-6.4a11.1 11.1 0 0 0-13.6-6.2L145 100Zm-2.3.7 2.3-.7-5-15.3-2.2.8 4.9 15.2Zm-14.3-15.6 4.4 11 14.9-6-4.4-11-14.9 6Zm9.5 4.4c-3.8 1.3-8-.6-9.5-4.4l14.9-6a8.4 8.4 0 0 0-10.6-4.8l5.2 15.2Zm-14.7 5 14.7-5-5.2-15.2-14.7 5.1 5.2 15.1Zm-11.4-27c1.6 7.4 1.7 13.4.9 18.2l15.8 2.6c1.1-7.1.9-15.1-1-24l-15.7 3.3Zm-1-3.5 1.1 3.9 15.5-4-1.3-4.7-15.3 4.8Zm22.2 1.6c-3.3-1.4-6-4.6-7.4-7.5l-14.4 7c2.5 5 7.6 11.9 15.6 15.2l6.2-14.7Zm14.2-3.9c-7 5.5-11.5 5-14.2 3.9L127 80.3c9 3.8 19.5 2.4 30.2-6l-9.8-12.6Zm-3 6c0-2.4 1.2-4.5 3-6l9.8 12.6c2-1.6 3.3-4 3.3-6.6h-16Zm0-6.5v6.5h16v-6.5h-16Zm7.6 7.6a7.6 7.6 0 0 1-7.5-7.6h16c0-4.7-3.8-8.4-8.5-8.4v16Zm7.6-7.6c0 4.2-3.4 7.6-7.6 7.6v-16a8.4 8.4 0 0 0-8.4 8.4h16Zm0 6.3v-6.3h-16v6.3h16Zm-32.2 12c8.5 3.6 18.7 2.4 29.1-5.7L146.6 61c-6.7 5.3-10.9 4.6-13.1 3.7l-6.2 14.7Zm-15.1-14.7c2.4 5 7.4 11.5 15 14.7l6.3-14.7a15 15 0 0 1-7-7l-14.3 7Zm.7-24.1c2.4 2.9 3.7 6.6 3.8 9.5 0 3-1 4-1.3 4.2l8 13.8c7.3-4.2 9.5-12 9.3-18.5a33.2 33.2 0 0 0-7.2-19l-12.6 10Zm-.9-1 1 1 12.5-10a21.2 21.2 0 0 0-3.8-3.7L112 39.7Zm1-11.5a5 5 0 0 1 5.8-2.6l-4 15.5a11 11 0 0 0 12.5-5.6L113 28.2Zm0 0 14.3 7.3-14.2-7.3Zm2.4 6.7a5 5 0 0 1-2.3-6.7l14.2 7.2a11 11 0 0 0-5-14.9l-7 14.4Zm-2-.9 2 1 7-14.5-2-.9-7 14.4Zm.3-20.1-4.1 9.8 14.7 6.2 4.2-9.8-14.8-6.2Zm24.8 2.2-14-6.4-6.7 14.6 14 6.4 6.7-14.6Zm-2 24 6-13.4-14.6-6.6-6 13.4 14.6 6.6Zm-4-10.6-6.6 14.6 6.6-14.6Zm-10.8 4.7c-1.8 5 .3 10.8 5.2 13.5l7.6-14.1a5 5 0 0 1 2.3 6l-15.1-5.4Zm5.2 13.5c6 3.2 13.3.3 15.6-6l-15-5.6c1-2.7 4.3-4 7-2.5l-7.6 14Zm15.6-6c2-5.2-.2-11.2-5.4-13.8L130 42.2a4.9 4.9 0 0 1-2.3-6l15 5.6ZM137.1 28l-2.1-1-7.2 14.2 2.1 1 7.2-14.2Zm-8.3-7.8-4.7 10.6 14.6 6.5 4.7-10.6-14.6-6.5Zm3.8 10a7.6 7.6 0 0 1-3.8-10l14.6 6.5c2-4.2 0-9.2-4.2-11.1L132.6 30Zm-14.8-6.8 14.8 6.8 6.6-14.6-14.8-6.7-6.6 14.5Zm5.8.2c-1.9.7-4 .7-5.8-.2l6.6-14.5c-2.1-1-4.5-1-6.6-.2l5.8 14.9Zm4.3-4.1a7.6 7.6 0 0 1-4.3 4l-5.8-14.8a8.4 8.4 0 0 0-4.7 4.6l14.8 6.2Zm-5.1 12 5-12-14.7-6.2-5 12 14.7 6.2Zm-.6 1.3.4-1-14.5-6.8-.4 1 14.5 6.8Zm.3-1-.3 1-14.5-6.8a11 11 0 0 0-.8 2.2l15.6 3.6Zm-.4 1.4V33l-14.7-6.2 14.7 6.3Zm-4.3-10.5-6.2 14.7 6.2-14.7Zm3.7 4.7a5 5 0 0 1 1 4.2l-15.6-3a11 11 0 0 0 2.2 9l12.4-10.2Zm-14.3 12.5c.4-.3 1.3-.6 2.2-.7.9 0 1.6 0 2.2.3l7.5-14a21 21 0 0 0-19.7.4l7.8 14Zm-17-11 6.7 8.8 12.8-9.6-6.8-9-12.7 9.7ZM65.5 23c8.5-4.4 19-2 24.7 5.6l12.7-9.6A35.7 35.7 0 0 0 58.3 8.8L65.5 23Zm-13.8 7 13.8-7-7.2-14.3-13.9 7 7.3 14.3Zm51.4-4.5c1 0 1.8.2 2.7.6L100 41c1 .3 2 .5 3 .5v-16Zm8 8.2v-.2H95v.2h16ZM97 39v.1L109 28.4l-.1-.1L97 39Zm0 0L109 28.3l-.1-.1L97 39Zm13.6 24.2v.2l15.3-5-.1-.2-15.2 5Zm12-9.2h-.2L114 67.5l.2.1 8.5-13.6Zm3.6 7.9a7.6 7.6 0 0 1-1.5 3.8L112.1 56a8.4 8.4 0 0 0-1.7 4.2l16 1.7Zm-15.6 1.5v.1l15.3-5-15.3 4.9Z" fill="#fff" mask="url(#b)"/><path d="m39 53 .9.9c1.1 1 .5-.5.4-1.3-.2-1.2-.6-2.4-.6-3.6 0-.4-.2-1.3 0-1 .5.4.9 1.4 1.3 2 1 1.4 1.4 3 2.3 4.4.5.6.6 1.6 1.2 2.1l-.3-1.6-.8-2.7c-.4-1.1-.9-2.6-1-3.8 0-1.5-1-3-1-4.5 0-.8.2.3.3.6l1.4 3c.8 1.6 1.4 3.5 2 5.2.4.9 1 1.7 1.5 2.5.3.5.6 1.8 1 2.1.1.2.1.5.3.7l-.3-1.5c-.9-2.3-1.1-4.7-2-7-.8-1.9-.9-4.2-1.2-6.2-.1-.9 0-1.7-.2-2.6 0-.3 0-.8 0 0 0 .9.4 1.9.8 2.8.9 2.3 2 4.4 3 6.7l1.9 4.4.8 2.3.5.8v-.6c0-.7-.2-1.3-.3-2l-1.7-7.4c-.3-1.4-1-2.8-1-4.2 0-1-.2-2-.4-3l-.2-1.9c0-.3.2-1.3 0-1.6-.3-.4-.3-1.1-.3-1.6a55.8 55.8 0 0 1 .8 3.5c.9 3.4 1.4 7.2 3.5 10.2 1 1.5 1.8 3.2 2.1 5 .2.6.3.8.2 0-.1-2.4-1.1-4.7-1.6-7-.4-2.1-1-4.5-1.2-6.6-.1-1-.6-2.2-.6-3.3l-.2-3.6v-2.5.2c.4 1.2 1.1 2.4 1.6 3.5 1 2.2 1.5 4.4 2.2 6.6.4 1.2 1 2.2 1.5 3.4.3.9.7 2 1.3 2.8.2.2.6 1.6.6 1.4 0-4-1-7.6-2.2-11.4-.5-1.4-.3-2.9-.7-4.3-.3-1-.3-2-.3-3.1v-3.4c0-1.1.4 2 .6 3 .8 3.8 2.3 7.7 3.8 11.3.4 1 .7 2.6 1.4 3.4.3.3.1-.7.1-1 0-1.7-.5-3.5-.6-5.3l-.3-3.6c0-1 0-2.2-.2-3-.5-1.7-.1-4-.1-5.7v-1.7c0-.2-.3-1-.2-.4 1 4.7 1.1 9.7 2.8 14.1.1.3.6 2 .6 1 0-1.6 0-3.3.2-4.9.9-4.4.5-8.6.5-13M63 32.5v1.1l.7 1V24.2c0-.5-.2-.8 0-.2l2.3 5.7c.2.5.6 1 .7 1.5l.6 1.5c.2.4.2 1 .3 1.5l.4 1.3.3.7-1-1.7c-.7-1-1-2.2-1.5-3.4-.5-1.2-.6-2-.6-3.4v-4l-.1-1v-.3c0 .8.7 1.8 1 2.5 1 2.2 2.4 4.4 2.8 7l.5 1.5.6 1.7c.3.3.4.7.6 1.1.4.8.4.2.1-.4-.5-1.2-.5-2.7-.9-4l-.8-3.6-.5-4.3c-.1-.7-.3-1.3-.3-2v-.7c0 .7.4 1.4.6 2.1.4 1.5.9 3 1.5 4.4l2 5.9c.3 1.1.5 2.2 1 3.3.3.6.2-.7.2-1 0-1.2-.3-2.6-.6-3.8l-.7-4.2c0-.7-.4-1.5-.4-2.2l-.2-1.7-.1-1.4-.2-1.4v-.4c.4.5.5 1.7.7 2.3l1.8 6 1.2 4c.3.8.8 1.7 1 2.6 0 .5.2 1.2.4 1.7 0 .1.3.9.3.5V29.3c0-1-.4-1.8-.4-2.7 0-1.3-.5-2.5-.7-3.7 0-.8-.3-1.9-.8-2.4-.1-.2-.6-.9-.3-.2.8 1.8 1.6 3.5 2.3 5.4.7 1.7.9 3.5 1.5 5.2l1.4 3.7c.3 1 .4 2.2.8 3.2.2.6.1-.8.1-1a33 33 0 0 0-2-11.9l-.6-3v-.8c0 .5.3 1.1.5 1.6l1.2 3c.9 2 1 4.5 1.8 6.5l.7 2.2.8 1.4c0 .3.6 1.7.7 1.3v-3c0-1.5-.6-2.8-1-4.1-.5-1-.7-2.3-.9-3.5 0-1-.3-2-.4-3 0-.5-.3-1.1-.3-1.7a7 7 0 0 0-.1-.8c0 1.2.8 2.4 1.3 3.4l1.2 3.6 1 2.9c.3 1.4.6 3 1.3 4.3l.5 1.4c.3.8.2-1 .2-1.2 0-1.9.1-3.8-.2-5.6l-.5-3.5c0-.8-.4-1.6-.4-2.4 0-.3-.1-1.1-.3-1.4l-.1-.6c.2 1.3 1 2.6 1.4 3.8.5 1.2 1 2.3 1.3 3.5.3 1 .9 2 1.1 3.1l.8 2 .4 1.2s.3.7.4.6c.3-.3 0-2.4 0-2.7l-.1-2-.3-1.9c-.2-1-.6-2.2-.7-3.3 0-.9 0-2-.3-2.7l1.5 2.6c.8 1.4 2 2.6 2.7 4.2.4 1.3.8 2.7.8 4 0 .2.4.9.3 1-.2.2-1-.6-1-.8-.5-1.4-.6-2.8-1-4.2-.1-.4.1-3.6.3-3.6.2 0 1.2 1.8 1.3 2l1.5 2.7.8 1.6c.3.4.2.3.2-.3v-2.3c.1-.4.2-.3.4 0l1.2 1.5 1.8 2.6c.3.3.2-.5.2-.7M115.9 29c0 .9.4 1.6.6 2.5.3 1-.1-2.2-.1-3.2 0-.3-.2-1 0-.8l1 2.6a21 21 0 0 0 1.6 2.8v-1.4c0-.9-.4-1.7-.5-2.5v-1.1c0-.2.3.5.4.6 0 .2.6 1.5.8 1.4l.2-1.1M129.9 36c0 .5.5 1 .8 1.4l.5.9.1.4c.3-1 0-2.2 0-3.3v-.8l.1 1c.5 1 1.1 2 1.9 3 .4.4.6.4.6-.2v-1.9c0-.4 0-.4 0 0M126 99.3s1.5 2 1.5 1.8c.2-.6 0-1.4 0-1.9 0-.3-.1-1.7.2-.9l1.8 3.6s.6 1.4.8.9c.4-1.4.2-2.8.2-4.1M142.5 94.4c.3.7.8 1.3 1 2 .2.1.3.9.3.3l-.2-2.6v-.7l.3.5c.2.2 2 2.2 2.3 1.2v-1.2c0-.2 0 0 .1 0l.1 1.2" stroke="#171717" stroke-width="2.5" stroke-linecap="round"/><path d="M45.2 39c0 1.2 0 2 .6 3 .4.5 2.1 3.2 2.8 3.1.4 0 .5-5.3.5-5.9v-4.7c0-.6.6 1 .7 1.2.8 1.7 1.7 3.3 2.4 5l1.7 4.3c.5 1 1 2.5 1 3.6l.2 1.2c.2.6.2-1.5.2-1.6 0-5-1.2-9.9-2-14.7-.2-.8-.3-1.6-.3-2.5 0-1 .7.3 1 .7.6.8 1.4 2 1.7 3 0 .2.5 1.2.5.8l.2-3.3.2-5.3v4.3l.2 3.7c0 .5-.1 1 .2 1.5" stroke="#171717" stroke-width="2.5" stroke-linecap="round"/><path d="M50.7 60c.2.2.5.4.6.8.5 1 .3-.7.3-1 0-.6.1-1.5.4-2 .2-.7.2.3.3.7l.6 2.6s.3 1 .4.9c.4-.8.3-1.8.5-2.6l.6-2.7c.1-.5.1-.6.3-.1.2.7.1 1.6.2 2.4 0 .5.3 1.6.5.4l.5-3.2.4-2.1c.1-.6 0 0 .3.2.2.4.4 1 .7 1.2.4.3.6-1.5.7-1.7l.7-3.2c.2-.7.3-1 .5-.2l.4 1.4c.2.6.3-.3.4-.6l.7-5c.2.2.4 1.6.5 1.9 0 0 .3.7.4.5 1-2 1-4.3 1.4-6.4.5-2 .7 1.5.8 1.4.4-.4.2-2 .3-2.5v-3c0-.5 0-1 .2-1.6 0-.4.2-2.1.2-.8" stroke="#C6C6C8" stroke-width="2.5" stroke-linecap="round"/><path d="M30 62v11.6l.6-2.3c.8-2.2 1.4-4.5 2.3-6.7.6-1.4 1.2-2.7 2-4 0-.3.1-.8.4-1 .2-.2.3-1 .3-.2 0 1.4-.7 3-1.3 4.3-1.6 3.4-4.1 6.8-5 10.4-.2.5-1.2 3.7-1.2 1.9 0-2.6-.2-5.3 0-8 .1-1.2.7-3 1.2-4.1.3-.7.6-1.6 1.1-2.2.6-.7.3 1.4.3 1.6V76c.3-1.5 1-2.9 1.2-4.3l2.5-9.8c.3-1.2.8-2-.2-2.7-.3-.2-.7-.8-.8-.1l-.7 3.6c-.4 3.5-1 7.1-1.3 10.6 0 1-.7 2.8-.2 3.6.8 1.4.8-1.3 1-1.9l1.1-5.3c.6-3.1 1.1-6.7 2.6-9.6.4-.6 1-1.8 1.6-2.3.3-.2-.2 1.6-.3 1.8l-2 6c-.7 3.4-1 6.9-2 10.2-.2 1.1-.2 2.4-.5 3.6-.1.6 0 1.5-.3 2-.2.5-.1 1-.1 1.4l.1-1.7c.7-2.5 1.7-5 2.5-7.4 1-2.6 2.5-5 3.4-7.7l2.2-7.2c.2-.7.5-1.7 1-2.4.3-.7.3-.5.3.4 0 2-.4 4-.8 6-1 4.3-2.4 8.7-2.8 13-.1 1.8-.3 3.7-.7 5.4-.3 1-.4 2.3-.4 3.4v-1c0-2.8 1.4-5.8 2.1-8.6 1-3.6 1.6-7.2 2.6-10.8.4-1.5.8-3.4 1.6-4.8.4-.8.3 1.1.3 1.2 0 1.9-.3 3.8-.4 5.6-.5 5.7-2.3 11-3 16.7-.2 1.5-.7 6.1-.7 4.6 0-4.7 1.6-9.3 3-13.8l2.6-9.5 1-2.6c0-.4.4-1.6.4-1.2.6 6.5-.1 12.5-1.8 18.8-.5 2.2-1.4 4.4-1.5 6.7l-.2 1.9v-1.3c0-3.2 1.5-6.5 2.4-9.5 1-3.5 2.5-7 3.3-10.5.5-2 1.5-7.7 1.6-5.8.2 5 .2 10.2-.3 15.2-.3 3.2-1.6 6.3-1.7 9.5v1c0-2 .6-3.8 1-5.8a185 185 0 0 1 2.8-10.2c.4-1.2.7-2.5 1.2-3.7.2-.3.5-.6.5-1 .2-3.2.2 6.8-.6 10l-1.6 5.7c-.2.7-.2 2-.2 2l1-12.1c.1-.3.8-4.3.2-4.6-.4-.3-2.1 5-2.1 5-1.5 4.1-2.8 8.4-4.5 12.4-.3.6-.5 2.4-1 2.9-.2.2 0-.5 0-.8V84c.2-2.8 0-5.7.4-8.5 0-.2 0-3-.2-2.7-1 1-1.7 2.5-2.2 3.7a41.9 41.9 0 0 1-4.6 8.2c-.1.2-2.4 3.2-2.6 2.9-.5-.6 0-2.9 0-3.6.4-1.7.6-3.5.6-5.2v-2.3s-.5 2.7-1 4c0 .3-.6 2.7-.6 2 0-3.4 1.7-7 2.9-10 1.4-3.6 2.5-7.1 4-10.6.2-.6.4-2.2 1-2.6 1.5-.9 2.5-.3 3.4 1.1.3.6.3 1.3.6 2v-1.9c.2-.8.3-1.6.3-2.5v1.3M105 33.2v2.3s.7-2.4 1.3-3.5l.5 3.6c0 .4 0 3.8.3 3 .8-1.7 1.2-3.5 2.2-5 .5-.7.4-.5.4.1l-.1 2.7c-.3.9-.4 1.9-.4 2.8v-.5c.3-1 1.2-2.2 1.7-3.2.2-.4.7-1.6 1.1-1.9.5-.4.6-1.7.6 0-.1 2.7-1 5.7-1.5 8.4l-.3 2c0 1.1-.1.1 0-.4a29 29 0 0 1 3.7-7.8c.3-.4.5-1 .9-1.4.5-.4 0 1.4 0 2 0 2.8-1.5 5.8-2.3 8.4-.2.8 0 1.5-.3 2.3-.1.4-.2 1.2 0 .2.7-2.6 2.5-5 3.8-7.3l1.1-2c.4-.7.2.2.2.5 0 3.2-2 5.6-2.6 8.6-.2 1-.5 1.8-.5 2.7 0 .7-.2.8 0 .1 1.4-2.8 3.3-5.4 4.1-8.4.3-.8.8-1.5 1.2-2a93.1 93.1 0 0 1-1.3 7c-.4 1.3-.5 2.7-.8 4-.3 1.2-.7 2.2-.8 3.4 0 .3-.5 3.4-.4 1.9 0-1 .5-2 .9-3a70 70 0 0 1 2.6-6.1c.5-1 1.4-2.9 2.3-3.7.2-.1.2 1.7.2 1.8-.2 1.6-.9 3.2-1.3 4.7-.4 1.8-1.2 3.4-1.6 5.2l-.7 3.8c-.2.4-.2.8-.2 1.3 0 .8.5-1.4.9-2 1.5-3 3.4-5.8 5-8.7v1.3c0 1.4-.3 3-.7 4.2-.3 1-.8 2-.8 3" stroke="#FFD732" stroke-width="2.5" stroke-linecap="round"/><path d="M78.1 62.7c.1.9 1 1.4 1.5 2 .2.3.4.8.4.2v-3.5c0-.5 1.2 1.3 1.3 1.6l2 3.1c0 .3.3 1 .2.4 0-.6-.4-1-.5-1.6l-.3-1.7c0-.4 0-1.3-.3-1.6-.5-.5.6-.2.8 0 .7.4 1 1.2 1.6 1.8.2.2.2-1.4.2-1.7v-2l1.2 1.4c.3.3.8 1.3.8 1 0-.7.2-1.6.4-2.2 0-.4 0-1.7.5-.8l1 1.6c.2.3.4 1 .4.3v-3.9c.3 1 1.2 1.9 1.7 2.7.1.2.6 1 .6.6 0-.5-.2-4.7.1-4.8.8-.2 1.7 4.1 2.3 4.6.2.1.1-1.1.1-1.4v-3.4c0-1 .8 1.5 1 1.8l.5 1.4" stroke="#171717" stroke-width="2.5" stroke-linecap="round"/><path d="M81.3 65.7c.2 0 .2.5.2.4l-.2-1.6c0-1.4.3-2.7 1-4M86.3 59.6l.7-.1M37 69.2v5.5c0 2.6 1-5.1 2.3-7.3.4-.8.6-1.2.6 0V73c0 1 0 2.2.2 3.2.3 1.3.2-1 .2-1.4.2-1.8.6-3.5 1-5.3 0-.5.2-1.5.5-2 .3-.3 1 3.1 1 3.4.2 1.6.4 3.3.8 4.9.1.7.2 1.4.4.3l1-4.9c0-.4 0-1 .2-1.5.1-.2 0 .5.1.7.3.5.3 1.6.3 2.2" stroke="#171717" stroke-width="2.5" stroke-linecap="round"/><path d="M44 104.7c0 .7.2 1.2.4 2 .1.6.6 1.1.8 1.8 0 .2.3.3.5.4.4.2.2-.5.2-.8v-5c0-.5 0 1 .2 1.4l1 3.6c.4 1.7.9 3.5 1.5 5.1 0 .2 0 .6.3.7.2 0 0-.4 0-.6v-2c-.1-1.5-.4-3-.4-4.5 0-.6.6 1 .7 1.2.6 1.5 1.2 3 1.6 4.7.4 1.4.8 2.7 1.6 4 .1.2.2.2.2-.1 0-1.1 0-2.3-.2-3.4v-2c0-.7.4.3.6.5 1 1.6 1.7 3.5 2.9 5.1.8 1.2.6-.8.6-1.3 0-.1-.2-1 0-1 .4-.2 1.2 1.3 1.4 1.5.1.2 1.8 2.7 2.1 1.8.3-.5.3-1 1-1" stroke="#FFD732" stroke-width="2.5" stroke-linecap="round"/><path d="M88.8 72h.5c1.4 0 2.8-.3 4-1l2-1.4c1-.5-1.5 1.2-2.3 1.7-.8.6-1.5 1.3-2.3 1.7-1.3.7 1.3 0 1.5 0 .4 0 2.8-1.4 1.7-1-1 .4-2 .8-3.1 1" stroke="#C6C6C8" stroke-width="2.5" stroke-linecap="round"/><path d="M32.4 82.8c.7 5.2 3.3 17.7-4.7 17.7-7.6-2-17 .4-15.1 10.5.6 3.4 2.2 6.6 4.8 8.7 6.3 5 12.1-1.7 15-6.5 3.5-5.6 9.4-7.3 14.7 0m0 0c4.3 5.9 12.7 4.7 16.5 3.2M47 113.2c-2.1-2.6-5-8.3 0-10.1M100.7 113.5c8.8-1 25.1 2.9 19.5 26.3l5.5 3.7M63.7 116.3V151l7.4 2.2M50.4 86c3.5 9.3 14.9 25.5 32 16.8l2-6.7M118.8 61.2c3.8 7.9 15.6 20.2 33.2 6.5v-6.5" stroke="#171717" stroke-width="1.5" stroke-linecap="round" stroke-linejoin="round"/><path d="M103 33c3.2-2 10.9-4 16.2 2.7 6.7 8.4 8 21.3 0 25.7M49.3 59.3a36 36 0 0 0 12.9-24.7m-.5-11.5c.7 4.1.8 8 .5 11.5m0 0c6 2.8 22.4 6.4 40.6-1.6" stroke="#171717" stroke-width="1.5" stroke-linecap="round" stroke-linejoin="round"/><path d="M40.2 87.8c9.8 31.3 32.4 33.4 50 29.4s36.6-18 29.6-51.3c-5.1-20.3-22.5-51.6-53.6-44.5-15 3.4-25 17.7-28.2 34.5" stroke="#171717" stroke-width="1.5" stroke-linecap="round" stroke-linejoin="round"/><ellipse cx="13.7" cy="16.6" rx="13.7" ry="16.6" transform="rotate(-20.4 182 -33.6)" stroke="#171717" stroke-width="1.5"/><ellipse cx="5.4" cy="6.5" rx="5.4" ry="6.5" transform="rotate(-20.4 205.7 -61.6)" stroke="#171717" stroke-width="1.5"/><path d="M39 66 35.6 59c-6-13.3-.5-29 12.6-35.6l13.8-7c11.8-6 26.2-2.7 34.1 7.9l6.9 9M125.4 98.2l2.2-.7a3 3 0 0 1 3.8 1.9h0a3 3 0 0 1-1.8 3.7v0a3 3 0 0 1-3.7-1.8L121.1 88l15.2-5.6 3.9 11m0 0 1 3a3.1 3.1 0 0 0 3.9 2v0a3.1 3.1 0 0 0 2-4.2v0a3.1 3.1 0 0 0-3.9-1.7l-3 1ZM117 26.5l2 1a3 3 0 0 1 1.4 4v.1a3 3 0 0 1-3.9 1.3v0a3 3 0 0 1-1.4-3.9l6-12.9 14.8 6.7-5 10.6m0 0-1.4 2.9a3 3 0 0 0 1.4 4v0c1.6 1 3.7.1 4.3-1.6v0c.6-1.5 0-3.2-1.5-4l-2.8-1.3ZM76.4 55.4c-.9-1.8-3-2.6-4.8-1.7-1.8.8-2.6 2.9-1.8 4.7M96.4 46.3c-.8-1.8-3-2.6-4.8-1.8-1.7.9-2.5 3-1.7 4.8" stroke="#171717" stroke-width="1.5" stroke-linecap="round" stroke-linejoin="round"/><path d="M89.8 67.1c4.7-2.1 7-7.2 5.9-12-.3-1-1.4-1.3-2.3-.9l-15.8 7.2c-1 .4-1.4 1.5-.8 2.4 2.8 4 8.2 5.5 13 3.3Z" stroke="#171717" stroke-width="1.5"/><path d="M62 23c-.9 0-1.4 0-2.2.5l-1.2 1-1.6 1.1a16.8 16.8 0 0 1-4.4 3.6c-1 .5-1.8 1.4-2.8 2-1 .7-2.1 1.6-2.7 2.7-.8 1.5-1.8 2.9-2.7 4.3-1 1.3-1.3 3-2.2 4.4a26 26 0 0 0-2.6 5.2c-1 2.6-2.1 5.5-2.1 8.2M103 33.8c0-.6-1.4-1.4-1.8-1.6l-2.9-2.3c-1.8-1.3-3.2-3-5-4.3a28.6 28.6 0 0 0-5-3c-1.8-.8-4-.8-5.8-1.6-1.6-.7-3.7-.4-5.3-.5l-5.4-.2c-2 0-4 .9-5.8 1.3-.8.2-1.5.6-2.3.6-.4 0-1.6.2-1.8.6M62 35.3c.3-1 5.7 1 6.4 1.3 1 .6 2.4 1 3.6 1.3 1.8.5 3.8 1.3 5.7 1.3 2.2 0 4.6-.5 6.7-.9 2.2-.3 4.2-1.2 6.4-1.6 1.6-.3 3.6-1 5.1-1.7a9 9 0 0 1 2.9-.8c.5 0 1-.6 1.6-.6" stroke="#171717" stroke-linecap="round"/><path d="M103 33.2c-.2-1.5-1.5-3-2.5-4-1.4-1.4-2.2-3-3.4-4.3-1-1.2-2.1-2.1-3.2-3.2l-2.5-2.6c-1-1-2.4-1.6-3.6-2.3-1-.6-2.2-1.3-3.2-1.5-2.2-.5-4.3-1.8-6.6-1.8-2.5 0-4.8-.6-7.3-.2-.7 0-1.7.5-2.4.9-.7.3-1.5.5-2.2.9-1.1.5-2.5 1-3.4 1.8-.9.7-2.1.8-3 1.3-1 .6-2.2 1.3-3.2 1.6-1 .3-2 1-3 1.4-1.4.4-2.8.8-4 1.3-2.2.9-4.8 2.2-6.4 3.9-.4.4-.9.5-1.2 1L40.4 29l-2.1 2.5a13 13 0 0 0-3.2 4.7c-.8 2.3-1.7 4.8-1.9 7.2-.3 4-.9 8.9 1 12.5.4.9.4 2 .7 3l1.3 3.2c.6 1.7 1.5 3.1 2.2 4.7M103.4 33c2.9 0 5.7-1 8.6-1 1.2 0 2.4 0 3.2 1 1 1.5 2.4 2.8 3.8 3.8 2 1.3 3 3.8 4 5.8l1.1 2.9c.5.9.8 2 .8 3l-.2 5.3c0 1.9-1.2 4.2-2.2 5.8-.3.7-1 2.3-1.6 2.6-.5.3-1 .3-1.6.3" stroke="#171717" stroke-linecap="round"/><path d="M37.9 55.6c-1.8 0-3.3.6-4.7 1.8a39 39 0 0 0-2.1 2c-.7.7-1 1.6-1.7 2.3a12 12 0 0 0-2.2 5 20.3 20.3 0 0 0 6.2 17.5c.6.6 1.1 1.1 2 1.4.7.3 1.3 1.3 2 1.8 1.3 1 2.2 2 4 2 2 0 3.7-.2 5.3-1.7 1.4-1.5 2.9-2.8 4.6-3.8 1.1-.7 1.8-2.4 2.2-3.6.5-2 1.2-4.1 1.2-6.1v-3.4c0-1.2-.8-2.2-1-3.3l-.9-2.7c-.4-.9-1.1-1.6-1.6-2.4-.9-1.7-2.7-3.7-4.3-4.7-1.4-1-3-1.3-4.4-2.4-1-.7-3-.6-4-.6" stroke="#171717" stroke-linecap="round"/><path d="M39.2 65.7c-1.3 1.1-2.7 2.5-3 4.3-.2.6-.1 1.4-.1 2 0 .7-.2 1.7 0 2.4.6 1.8 1.5 3 3.2 3.5 1.6.5 3.3 0 4.6-.8 2-1.3 3-3 3-5.3 0-1.2-.4-4.2-1.6-4.8-2.2-1.2-8.3-.9-8.3 2.7M50 86.2c0 1.2 1 2.6 1.5 3.7l.8 1.5c.4.5.6 1.2 1 1.8a37 37 0 0 0 3.7 4c1.5 1.5 3 3.3 4.9 4.5l1.8 1.1 1.6 1.1c1.2.5 2.4.6 3.6.9 1.1.3 2.4 0 3.5 0 1 0 2 0 3-.2.3 0 1-.4 1.1-.1" stroke="#171717" stroke-linecap="round"/><path d="M84 96v3c-.2.6-.4 1.6-.7 2-.6.7-1 1.7-1.9 2-.6.2-1.2 0-1.9.2l-1.7.4c-1.6.5-2.9 1-4.5 1M151.8 61.5l.1 5v2.1c0 .5-1.9 1.2-2.2 1.4-2 1-4 2-6 2.6-2 .7-4 .9-6.1.9-2 0-4.3.2-6.3-.2-.9-.1-1.6-.4-2.4-.8-1-.5-1.5-1.2-2.3-1.7-.7-.4-1.1-1.4-1.7-2-.7-.6-1.5-1.2-2.2-2-.8-.7-1.4-1.7-2.2-2.5-.4-.6-.7-1.3-1.2-1.7M102.5 33.3c.1.5.7.9 1 1.3.4.8 1 1.5 1.6 2.2a29 29 0 0 1 2.4 3.7c1.5 2.7 2.8 5.4 4.1 8.2 1.5 3 3.4 5.7 5 8.6.9 1.4 1.2 3.2 1.5 4.8l.5 2.2c.2.4.4.7.4 1.2" stroke="#171717" stroke-linecap="round"/><path d="M118.3 61.4c0 2 .2 3.6.5 5.5.3 1.8 1.3 3.6 1.7 5.4.7 3.5.6 7 .6 10.6 0 4.8-1.8 9.6-3.7 13.9-1 2.2-1.8 8.2-5.1 8.2" stroke="#171717" stroke-linecap="round"/><path d="M115.6 101.5c-.4.4-.4.9-.7 1.2-.6.6-1.2 1-1.7 1.7-.7 1-2 2-2.9 3-1.7 1.8-4.4 3-6.4 4.3-2 1.2-4 2.2-6 3.2-1.5.7-3.2 1-4.7 1.4-1.1.2-2.3.8-3.4.8-4.1 0-8.2 1-12.3 1.2-1 0-1.8.7-2.8.7a7 7 0 0 1-2.3-.3c-2.3-.7-4.8-1.6-7.2-1.6" stroke="#171717" stroke-linecap="round"/><path d="M67 117.4h-2.3c-1 0-2-1.1-3-1.5-1-.4-2-1-3-1.6-.9-.5-2.1-.8-3-1.6-.5-.5-1.3-1-1.7-1.6-.4-.6-1.5-.8-1.9-1.4-.4-.8-1.3-1.3-1.8-2-.4-.6-.7-1.4-1.2-2-1-1-2.4-2.3-3.2-3.7-.8-1.6-1.4-3.4-2.4-5-.9-1.5-1.8-3.2-2.3-4.8-.4-1.3-.5-2.5-.7-3.8" stroke="#171717" stroke-linecap="round"/><path d="M47.1 103.8c-.7 0-1.3.6-1.5 1.2-.2 1 0 2 0 2.8 0 .9 0 1.7.4 2.5s1 1.4 1.5 2.1c.8 1.2 1.9 2 3 3 1.6 1.6 3.8 2.2 6.1 2 2.3-.3 4.6-.7 6.7-1.4M70.4 153.4c-.8 0-1.5 0-2.2-.3l-2.7-1c-1-.2-1.3-.4-1.8-1.3-.3-.5 0-1.9 0-2.6 0-1.3 0-2.6-.2-3.9-.1-1.6.2-3.2-.1-4.8-.2-.6 0-1.3 0-2 0-.6-.2-1.5 0-2.1.3-1.1.4-2.6.4-3.7l.2-2.6" stroke="#171717" stroke-linecap="round"/><path d="m64.1 131-.1-6.8c0-1.7-.2-3.4-.4-5 0-1-.4-1.7-.4-2.5M101.6 113.1c1.6 0 4-.4 5.5.2 1.4.7 3 1 4.5 1.6 1.4.7 2.6 1.2 3.8 2.2 1.4 1.2 2.4 2 3 3.8l2.5 6.2c.9 2.6.9 5.6 1 8.3 0 1.7-.7 2.7-1 4.2-.2.5-1 .5-.4.8 1.2.4 2.3 1.1 3.5 1.7.6.3 1.2.5 1.8 1 .8.6-1.8-.7-2.6-1-.8-.4-2-1.4-2.5-2a2 2 0 0 1-.3-1.8c.5-1.5.6-3 1-4.5.2-1 .5-2.9.1-3.8-.7-1.7-.6-3.7-1-5.5-.5-1.8-1.6-3.5-2.5-5-.4-1-1-1.1-1.6-1.8-.5-.4-1-1.2-1.7-1.5l-2.5-1.5c-.8-.4-1.6-1-2.5-1.2-2-.8-4.1-1-6.3-1M125.5 97.7c-.2-1.4-1-2.9-1.7-4.1l-1.6-3.1c-.3-.6-.3-1.4-.6-2-.3-.8.8-.7 1.3-.9 2.3-.8 4.4-1.6 6.6-2.7a10 10 0 0 1 4.3-1.4c.7 0 1.3-.3 2-.4.4 0 .4.3.6.6 1 1.7 1.5 3.8 2 5.7l.8 2.2c.1.7.8 2 1.3 2.5M120.5 16.4c0 1.3-.8 2.2-1.4 3.3l-2 3.8c-1.2 2-2 4.3-2.9 6.5M120.7 16.4l.4.1 2.7 1.4 2.8 1.3c1.4.7 2.6 1.9 4.2 2.1.6 0 1.3.4 1.8.6l1 .5c.6.1 1.6.6 1.6 1.2 0 1-.9 1.9-1.3 2.7l-1.4 3c-.4.7-.5 1.6-.8 2.3-.3.6-.4 1.4-.8 1.9a3 3 0 0 0-.5 1l-.7 1.6c-.3.5-.2 1.1-.2 1.7M32.5 83.5v3.4c0 1 .3 2 .4 3 0 1.5.4 2.8.4 4.4 0 1.8 0 2.8-1 4.3-1.2 1.7-4 1.9-5.8 2.1-1.8.3-3.3-.5-5-.6-2.4 0-4.4.7-6 2.3-1.2 1.2-3.2 3.5-3.3 5.3L12 110c0 .8.7 1.5 1 2.2 1.4 3.2 3.2 7 6.8 8.4 2 .7 3.7 1 6 1 .8 0 1.5-1 2-1.6l3.2-4.6c2.1-2.7 4-6.7 8-6.7 1.4 0 3 0 4 .9 1.2.8 2.7 2 4 2.5M90.4 49.3l-.2-.6v-.6c0-.4-.2-.9.1-1.2.2-.3.4-.7.7-.9l1.1-.7c.3-.2.7-.3 1-.3.5 0 .8.2 1.2.4.5.2.7.5 1 1l.3.2.4.4M76.8 55.6c-.2-.6-.5-1.1-.9-1.6l-.5-.4c-.1-.2-.4-.4-.6-.4l-.5-.4a5.4 5.4 0 0 0-2.1 0l-1.4.4c-.5.3-.5 1.1-.7 1.6 0 .3 0 .7-.2 1l-.4.8-.1.8v1.2M76 62.1l1.1-.8.8-.6c1.3-.8 2.8-1.3 4.3-2l3.5-1.4c.9-.3 1.8-.5 2.7-1 .3 0 .7-.3 1-.5l1.3-.8 1.8-.8 1.5-.5c.4 0 .7-.3 1.2-.3M95.2 53.5c.6 0 .8.6 1 1 .3.3.5.7.5 1.1v3.1l-.4 1.1L96 61c-.2 1-.8 1.6-1.2 2.5l-.8 1.1a8 8 0 0 1-1 1c-.2.2-.6.5-.7.8-.2.3-.7.5-1 .7-.3.3-.7.4-1.1.6l-.9.5M89.3 68.2c-.8.3-1.6.5-2.3.9-.4.2-1 .2-1.5.1l-.8-.1c-.4-.2-.8-.4-1.2-.4l-1.1-.3c-.2 0-.4-.2-.5-.3l-.8-.4-1.2-.5-.6-.5-.5-.3c-.3-.3-.5-.6-.9-.8a2 2 0 0 1-.5-.4l-.4-.5-.3-.7-.2-.7-.3-.5c0-.2-.2-.3-.3-.4" stroke="#171717" stroke-linecap="round"/></g><defs><filter id="a" x=".3" y=".9" width="168.1" height="172.8" filterUnits="userSpaceOnUse" color-interpolation-filters="sRGB"><feFlood flood-opacity="0" result="BackgroundImageFix"/><feColorMatrix in="SourceAlpha" values="0 0 0 0 0 0 0 0 0 0 0 0 0 0 0 0 0 0 127 0" result="hardAlpha"/><feOffset dy="2"/><feGaussianBlur stdDeviation="1"/><feComposite in2="hardAlpha" operator="out"/><feColorMatrix values="0 0 0 0 0 0 0 0 0 0 0 0 0 0 0 0 0 0 0.02 0"/><feBlend in2="BackgroundImageFix" result="effect1_dropShadow_716_2777"/><feColorMatrix in="SourceAlpha" values="0 0 0 0 0 0 0 0 0 0 0 0 0 0 0 0 0 0 127 0" result="hardAlpha"/><feOffset dy="4"/><feGaussianBlur stdDeviation="4"/><feComposite in2="hardAlpha" operator="out"/><feColorMatrix values="0 0 0 0 0 0 0 0 0 0 0 0 0 0 0 0 0 0 0.06 0"/><feBlend in2="effect1_dropShadow_716_2777" result="effect2_dropShadow_716_2777"/><feBlend in="SourceGraphic" in2="effect2_dropShadow_716_2777" result="shape"/></filter></defs></svg>