<svg width="113" height="120" fill="none" xmlns="http://www.w3.org/2000/svg"><path d="M83.982 118c-2.56 0-4.86-.46-6.85-1.37-1.91-.87-3.03-1.8-8.17-8.79-2.72-3.7-5.65-7.92-7.65-11-2.27-3.5-4.59-7.07-6.64-10.02-1.35 4.61-2.69 8.99-4.32 13.17a8.807 8.807 0 0 1-6.69 5.44c-1.28.21-3.33.46-5.89.46-7.86 0-26.98-2.62-34.72-26.89-.78-2.43-.45-5.09.9-7.27l12.03-19.39c1.5-2.43 1.61-6.01.28-9.34-4.05-10.14-4.51-17.82-1.4-23.48 1.01-1.83 2.35-3.37 3.97-4.56 1.35-4.96 4.18-8.73 8.1-10.64 1.83-.89 3.8-1.35 5.86-1.35.82 0 1.64.07 2.47.22 1.05-.74 2.21-1.31 3.45-1.68 1.13-.34 2.3-.51 3.48-.51 2.51 0 5.03.76 7.52 2.26.3-.03.61-.04.91-.04 2.43 0 4.8.79 7.04 2.34 3.23 2.24 5.31 6.18 6.56 12.41 1.22-1.27 2.69-2.32 4.36-3.07a13.43 13.43 0 0 1 5.51-1.19c1.89 0 3.69.4 5.36 1.18.1.04.19.09.29.14.82-.16 1.65-.24 2.48-.24 1.01 0 2.01.12 2.98.37 1.88.48 4.82 1.74 7.11 5.06.38.08.75.19 1.11.31 2.35.78 4.35 2.32 5.79 4.4h.02c3.41 0 6.6 1.52 8.97 4.27 2.26 2.63 4.38 7.09 1.84 13.58-.15.45-.34.88-.56 1.29-.31.67-.67 1.38-1.12 2.21-.22.5-.48.98-.79 1.43l-.3.53c-1.87 3.31-3.98 7.07-5.1 12.05-1.17 5.23-.87 15.15 7.22 32.66.74 1.65 1.48 3.67 1.31 5.89-.43 7.67-8.04 13.58-15.1 16.58-4.01 1.7-8.02 2.6-11.6 2.6l-.02-.02Z" fill="#fff"/><path d="M40.713 35.209c.022.22.198.464.29.655a36.3 36.3 0 0 0 1.496 2.827c.436.735.914 1.443 1.413 2.137.226.315.522.58.738.896.21.308.484.6.655.931.007.014.104.207.096.159-.013-.09-.096-.199-.134-.276-.17-.345-.267-.714-.372-1.082-.58-2.018-.962-4.004-1.269-6.078-.22-1.48-.603-2.917-.914-4.375-.08-.377-.177-1.164-.475-1.462-.142-.141.177.36.251.545.35.88.588 1.793.845 2.703.458 1.619.88 3.294 1.724 4.764.411.717.863 1.427 1.203 2.182.062.138.162.45.162.121 0-2.738-.508-5.504-.896-8.208-.142-.984-.432-1.918-.594-2.89-.013-.08-.161-.67.076-.423.184.19.273.457.373.696.27.649.494 1.315.769 1.962.572 1.349 1.185 2.72 1.871 4.016.402.759.756 1.6 1.331 2.248.366.41.862.754 1.134 1.237.065.114.202.432.142.135-.12-.586-.381-1.155-.559-1.724a24.103 24.103 0 0 1-.882-4.02c-.222-1.657-.282-3.334-.5-4.988-.015-.112-.052-.448-.028-.338.097.436.367.846.569 1.238.862 1.67 1.35 3.529 2.344 5.13.619.996 1.37 1.903 2.034 2.868.246.356.445.739.71 1.082.131.17.32.298.39.497.568 1.591-1.188-3.192-1.427-4.865-.162-1.134-.155-2.424-.155-3.575M34.78 23.259c0 1.7.054 3.412.054 5.104 0 .145.272-.4.273-.4.462-.75.922-1.496 1.463-2.191.267-.343.52-.689.746-1.06.094-.153.19-.403.328-.521.086-.074-.015.164-.024.209-.11.546-.27 1.078-.38 1.624-.211 1.048-.48 2.156-.494 3.232-.01.86-.328 1.673-.328 2.525M39.805 19.708c.309-.21.633-.516 1.004-.598.282-.063.246.209.246.446 0 1.178-.686 2.255-.801 3.423-.015.152-.205 1.703-.037 1.751.157.045.436-.678.474-.755.523-1.064.923-2.183 1.341-3.29.172-.454.37-.884.58-1.32.042-.088.116-.231.224-.255.244-.054-.128 1.91-.16 2.042-.356 1.448-.64 2.951-.495 4.452.022.226 0 .755.246.878M47.18 21.62c.066-.799.334-1.526.643-2.258.015-.035.42-1.044.492-.983.245.204.208 1.056.23 1.323.09 1.074.11 2.145.11 3.223v1.36c0 .212.156-.04.206-.122.375-.614.437-1.404.832-1.997M54.172 23.04c.283-.769.63-1.582 1.147-2.227.087-.109.442-.286.303-.286-.086 0-.186.205-.218.255-.283.444-.468.95-.62 1.45-.296.981-.385 2.03-.163 3.036.12.546.261 1.076.261 1.639 0 .221-.077.499.188.273.802-.683 1.365-1.702 1.93-2.574.209-.32.473-.895.832-1.074" stroke="#FFD424" stroke-width="2.5" stroke-linecap="round"/><path d="M48.202 55.897c0 1.094-.01 2.189 0 3.283.014 1.548.374 2.897.98 4.316.405.949.83 1.889 1.226 2.842.202.486.428.956.539 1.473.17.8.145 1.684.175 2.499.01.254-.244-.471-.26-.507-.518-1.182-1.02-2.373-1.538-3.556-.797-1.821-1.65-3.619-2.466-5.431-.151-.338-.349-.632-.538-.948-.013-.022.008.689.026.798.252 1.51.568 3.004.86 4.507.465 2.4.768 4.782 1.022 7.21.07.674.03 1.576.408 2.17.02.033.104.198.078.163-.44-.605-.889-1.176-1.268-1.827-.535-.916-.976-1.884-1.522-2.793-.344-.574-.694-1.138-1.019-1.723a6.834 6.834 0 0 0-.642-.941c-.124-.16.198.16.233.217.494.79.8 1.783 1.103 2.654.778 2.23 1.342 4.537 1.84 6.843.105.484.152.98.266 1.46.044.184.044.44.146.594" stroke="#C6C6C8" stroke-width="2.5" stroke-linecap="round"/><path d="M45.808 28.993c-3.8 1.186-5.414 5.74-5.745 7.869l2.345 5.008c1.844.903 3.682-.394 5.002-1.935a4.735 4.735 0 0 1 4.06-1.597c1.967.218 4.024-.237 4.243-2.694.406-4.538-5.154-8.134-9.905-6.651Z" stroke="#171717" stroke-width="1.5"/><path d="m34.426 48.752-2.415-7.99a4.739 4.739 0 0 1 1.823-5.234c2.334-1.627 5.499-.737 6.623 1.861l4.706 10.872" stroke="#171717" stroke-width="1.5"/><path d="M31.809 21.819c-1.988-.276-3.646-.26-5.014-.004m0 0c-7.264 1.363-5.611 10.633-2.325 18.857 2.23 5.579 2.238 12.033-.968 17.202L11.476 77.263c5.943 18.65 20.725 22.135 30.822 20.453C45.81 88.75 48.152 77.596 52 67.55M26.795 21.815c.233-4.88 2.869-13.112 11.544-7.008m0 0c.586-3.043 3.467-7.375 10.295-.358m-10.295.358c.39.254 1.291.97 1.78 1.8m8.515-2.158c.344-.974 1.649-2.495 4.112-.786 1.433.995 2.398 4.016 3 7.084.748 3.818 2.267 7.463 3.898 10.966 2.75 5.903 4.273 14.843-1.656 23.786m-9.354-41.05c.438.464 1.408 1.557 1.777 2.212" stroke="#171717" stroke-width="1.5" stroke-linecap="round" stroke-linejoin="round"/><ellipse cx="1.789" cy="3.696" rx="1.789" ry="3.696" transform="matrix(.90575 -.4238 .39716 .91775 32.832 24.65)" stroke="#171717" stroke-width="1.5"/><ellipse cx="1.789" cy="3.696" rx="1.789" ry="3.696" transform="matrix(.90575 -.4238 .39716 .91775 38.355 19.125)" stroke="#171717" stroke-width="1.5"/><ellipse cx="1.8" cy="3.678" rx="1.8" ry="3.678" transform="matrix(.97505 -.18848 .21155 .9831 46.059 18.08)" stroke="#171717" stroke-width="1.5"/><ellipse cx="1.8" cy="3.678" rx="1.8" ry="3.678" transform="matrix(.97505 -.18848 .21155 .9831 51.746 19.494)" stroke="#171717" stroke-width="1.5"/><path d="M27.305 50.076c-.77-1.778-.682-3.883-1.153-5.77-.382-1.533-2.282-2.926-2.408-4.506-.15-1.863-.62-3.714-.846-5.571-.164-1.355-.952-2.802-.806-4.221.062-.61-.012-1.215.087-1.824.115-.704-.124-2.948.228-3.53.777-1.287 2.178-1.02 3.525-1.65 1.604-.75 4.585-1.6 6.177-.155M27.774 20.776c-.628-1.45-.817-2.804-.431-4.346.22-.886.573-1.725.923-2.54.622-1.447 2.555-2.367 4.03-2.016.82.194 1.659.033 2.452.27.78.234 1.54.657 2.318.911 1.04.34 2.846 1.534 3.357 2.714" stroke="#171717" stroke-linecap="round"/><path d="M38.573 14.718c-.045-.146.953-.877 1.127-1.116.372-.508.945-1.13 1.493-1.387 1.171-.548 2.432-.829 3.74-.29 1.327.545 2.294 1.052 3.267 2.258.667.826 1.734 1.485 2.17 2.49" stroke="#171717" stroke-linecap="round"/><path d="M48.922 14.435c.532-.249 1.95-1.229 2.509-.9.354.208 1.088-.012 1.364.547.255.518.58.967.823 1.53.608 1.406 1.199 2.785 1.663 4.235.526 1.646.558 3.413.837 5.078.603 3.587 2.406 7.214 4.434 10.142.474.685.749 1.648 1.083 2.42.368.85.833 1.705 1.008 2.618.188.977.197 2.154.273 3.154.09 1.156-.419 2.228-.75 3.269" stroke="#171717" stroke-linecap="round"/><path d="M62.3 45.5c0 1.5-.06 3.677-.534 4.506-.96 1.676-1.854 3.427-2.822 5.099M43.301 95.5c2-2 4.427-9.052 4.652-10.223.14-.724.317-1.518.406-2.246.238-1.944.63-4.03 1.07-5.92.692-2.969 1.633-5.81 2.672-8.611M19.318 92.36l-.918-2.122c-.283-.652-1.043-1.166-1.508-1.706-1.64-1.903-4.029-3.645-5.075-6.063-.46-1.064-1.346-2.548-.985-3.682.112-.35.414-.523.559-.859.253-.59.599-1.102.817-1.709.543-1.515 1.524-2.685 2.31-4.049.79-1.373 1.513-2.795 2.31-4.17.661-1.142 1.267-2.488 2.127-3.457 1.574-1.774 2.787-4.155 3.92-6.302.729-1.38 1.35-2.725 1.83-4.229.266-.837.152-3.466 1.192-3.384M34.543 48.804c-.277.084-2.178-4.8-2.464-5.683-.414-1.28-.633-2.55-.32-3.853.127-.53.354-1.002.461-1.538.086-.432.576-1.259.928-1.441 1.03-.535 1.815-1.274 3.033-1.29 2.285-.033 4.32 2.882 5.258 5.048 1.2 2.774 2.236 5.583 3.433 8.348" stroke="#171717" stroke-linecap="round"/><path d="M42.568 42.361c.734-.344 1.518-.457 2.23-.79.698-.327 1.505-.145 2.23-.537.536-.29.73-1.156 1.078-1.645.303-.424.597-.863.9-1.28.571-.78 1.786.67 2.39.754.674.094 1.615-.248 2.235-.539.769-.36 1.239-.578 1.715-1.337.374-.595.303-1.884.019-2.542-.387-.894-.439-1.789-.83-2.694-.32-.74-.528-1.66-1.326-1.9-.701-.209-1.539-.19-2.222-.494-.694-.31-1.553-.205-2.223-.6-.67-.393-1.415.014-2.079-.005-.693-.02-1.605.653-2.237.948-.399.187-.862.325-1.174.648-.416.431-.663 1.055-1.047 1.532-.546.677-1.065 1.727-1.34 2.59a14.557 14.557 0 0 0-.424 1.592c-.095.492-.546 1-.549 1.46M47.454 83.884c-.179.083-.158.49-.205.672-.177.69-.514 1.295-.771 1.945-.584 1.478-.78 3.122-1.403 4.576-.65 1.517-1.242 2.991-1.606 4.603-.174.772-.455 1.47-.77 2.148-.362.781-1.153.807-1.894 1.03-2.145.65-5.048.293-7.264-.318-1.24-.342-2.415-.805-3.692-.942-.805-.086-1.685-.525-2.478-.775-.604-.19-1.256-.165-1.838-.359-.886-.294-1.353-1.177-2.15-1.56-.737-.356-1.853-1.19-2.393-1.87-.414-.522-1.016-.662-.768.157.264.875.516.591 1.237.846 1.096.386 2.105 1.169 3.057 1.888 1.054.796 2.119.93 3.261 1.317 1.55.524 3.416.798 4.986 1" stroke="#171717" stroke-linecap="round"/><path d="M40.068 35.76c.392-.731.522-1.576.87-2.327a7.52 7.52 0 0 1 1.171-1.84c1.208-1.405 3.014-1.986 4.713-2.5 1.46-.442 3.098-1.053 4.566-.267.74.396 1.65.782 2.263 1.338M34.749 23.664c-.252.076-.545.116-.7.354-.144.223-.148.492-.264.728-.34.695-.151 1.608-.01 2.324.065.331.135.649.242.974.12.368.453.66.658.98.35.548 1.01 1.302 1.661 1.5.7.211 1.396.028 1.741-.638.432-.834.198-1.92-.057-2.763-.313-1.033-.897-2.071-1.729-2.783-.406-.348-.843-.852-1.42-.824M39.936 18.369c-.302.091-.387.167-.438.494-.06.394-.158.787-.165 1.19a9.454 9.454 0 0 0 .406 2.811c.225.743.356 1.603 1.012 2.098.565.427.968.444 1.619.174.464-.193.749-.967.826-1.414.127-.745.11-1.384-.11-2.108-.268-.886-.836-1.663-1.482-2.326-.38-.39-.69-.822-1.159-1.073M47.351 17.517c-.64.194-.92.67-.941 1.299-.034.974.296 2.037.438 3 .092.625.233 1.24.416 1.844.112.37.18.856.39 1.186.32.504.734.643 1.292.474.662-.2 1.2-.983 1.514-1.57.37-.692.013-1.43-.194-2.113-.254-.838-.617-1.668-1.133-2.376-.284-.389-.608-1.073-1.037-1.302M53.661 19.277c-.169.051-.29.1-.36.282-.146.382-.351.778-.433 1.181-.164.814-.42 1.624-.327 2.462.116 1.042.9 2.206 1.975 2.39.348.06 1.146.049 1.352-.31.295-.516.37-1.189.24-1.769a29.153 29.153 0 0 0-.555-2.028c-.2-.663-.28-1.315-.86-1.741" stroke="#171717" stroke-linecap="round"/><path d="M79.803 104.859c0 1.493 1.433 2.981 2.315 4.059.314.384.544.831.862 1.206.117.138.136.272.136.03 0-1.001-.072-1.976-.194-2.97a47.235 47.235 0 0 1-.33-5.774c0-.836.037-1.677-.067-2.509-.006-.048-.094-.48-.039-.3.323 1.05.639 2.082.91 3.158.59 2.334 1.528 4.419 2.462 6.622.238.562.746 1.377.746 2.01v-3.439c0-2.196.02-4.393 0-6.588-.004-.422-.103-.796-.175-1.206-.01-.054-.125-.415-.082-.18.038.207.223.367.324.543.27.465.403 1.03.64 1.516 1.022 2.101 1.794 4.279 2.674 6.438.165.407.323.816.489 1.221.079.193.055.424.16.61.027.049-.092-.933-.112-1.046-.325-1.89-.505-3.805-.649-5.716-.135-1.796-.326-3.58-.547-5.367-.072-.58-.273-1.3-.189-1.89.012-.084.482.707.538.805.673 1.186 1.204 2.46 1.792 3.69.98 2.051 2.46 4.482 2.46 6.845 0 2.139-.38-4.269-.343-6.408.01-.553.139-1.085.17-1.638.012-.224.205.102.227.14.284.504.516.984.75 1.517.39.882.871 1.719 1.24 2.611.243.584.476 1.209.83 1.739.028.044.184.36.178.145-.022-.88-.464-1.811-.702-2.645-.432-1.51-.82-3.033-1.09-4.582-.115-.66-.072-1.4-.233-2.044-.07-.28.32.365.34.397.574.93 1.052 1.915 1.492 2.916.763 1.737 1.464 3.494 2.276 5.207.144.303.563 1.367.252.349-.646-2.118-1.863-4.162-1.899-6.428-.007-.45.009-.523.417-.649.231-.071.58-.143.809-.014.814.458 1.281 1.788 1.734 2.557.208.354.666.947 1.138.79" stroke="#C6C6C8" stroke-width="2.5" stroke-linecap="round"/><path d="M100.361 42.975c-.778 0-1.594-.607-2.254-.98-.3-.17-.63-.254-.935-.406M92.781 37.06c-.198-.02-.459-.21-.627-.306-.368-.212-.72-.456-1.083-.675-.255-.154-.754-.406-1.063-.406M85.754 30.218c-.448 0-.889-.16-1.34-.185M79.007 29.11c-1.717 0-3.374.01-5.056.39-.058.013-.388.058-.157.015.296-.055.563-.273.796-.452.217-.166.74-.41.858-.647M50.22 62.505c.012.093.452-.243.482-.263.594-.408 1.21-.784 1.804-1.194.423-.292.82-.608 1.266-.866.232-.133.476-.24.708-.372.299-.168.439-.438.672-.671.132-.132-.5-.019-.532-.015-.939.119-1.933.267-2.83.577-.314.109-.583.295-.834.51-.168.144-.307.286-.526.356-.203.065-.428.044-.639.044-.268 0 .409-.265.45-.287.8-.428 1.547-.96 2.113-1.677.36-.454.585-.96.872-1.454.173-.299.505-.514.854-.514" stroke="#171717" stroke-width="2.5" stroke-linecap="round"/><path d="M79.38 49.242c.551-10.95-.387-18.265-1.514-22.605m0 0a30.079 30.079 0 0 0-.187-.688c-.671-2.36-3.213-3.152-5.452-2.15v0c-2.328 1.04-3.526 3.614-3.113 6.13 1.964 11.959-.851 23.707-3.557 30.743-.798 2.074-3.377 2.57-4.57.694-1.064-1.674-1.82-3.526-2.343-5.336-.895-3.093-4.775-5.1-7.44-3.293v0c-.907.614-1.537 1.577-1.617 2.67-.737 10.062 5.638 19.377 9.104 22.93 6.37 7.953 16.7 26.187 21.235 30.329m-2.06-82.03c2.022-2.011 6.534-4.452 8.407 1.88.2.678.37 1.416.51 2.2m-.235 20.574c.615-4.422 1.406-14.055.235-20.575m0 0c1.486-1.079 4.743-2.326 5.88 1.314.63 2.015 1.16 4.35 1.325 7.225m-1.65 13.867c1.485-5.773 1.857-10.248 1.65-13.867m0 0c1.352-2.537 4.775-6.777 7.652-3.438 3.595 4.175-4.94 10.089-7.932 23.476-2.873 12.856 3.372 28.852 8.347 39.395" stroke="#171717" stroke-width="1.5" stroke-linecap="round"/><path d="M78.044 26.744c-.378-.085-.938-.346-1.317-.2-.43.167-.881.285-1.32.412-.691.201-1.2.555-1.34 1.367-.116.662 1.078 1.76 1.608 1.878.696.156 1.633.414 2.3-.056M85.605 27.675c-.546-.122-.911.246-1.4.494-.412.21-.434.765-.528 1.185-.326 1.457 1.94 1.741 2.845 1.943M92.797 34.502c-.636-.142-3.433-1.127-3.364.461.032.746.825 1.703 1.427 2.028.687.37 1.749.993 2.544.59M101.82 40.885c-.676-.151-1.464-.21-2.086-.514-.305-.149-1.38-.54-1.696-.331-.47.31-.892 1.006-.658 1.614.53 1.373 1.792 1.771 3.033 2.049M49.574 57.212c1.1.109 1.93-1.467 2.96-1.659.615-.114 1.39.047 1.797.54.34.408.391 1.198.502 1.725.134.638-.067 1.265-.208 1.894-.194.87-.7 1.332-1.36 1.837-.47.361-.87.777-1.401 1.058-.397.21-.843.17-1.243.345" stroke="#171717" stroke-width="1.5" stroke-linecap="round"/><ellipse cx="12.336" cy="5.427" rx="12.336" ry="5.427" transform="matrix(.92065 -.3904 .3091 .95103 77.543 102.764)" stroke="#171717" stroke-width="1.5"/><path d="M77.509 26.675c-.655-.146-1.009-.949-1.556-1.344-.682-.494-1.31-1.089-2.234-.927-.941.166-1.895.581-2.389 1.507-.52.977-1.017 2.1-1.089 3.243-.037.589-.218 1.137-.312 1.718-.13.813-.069 1.628-.075 2.44-.014 1.835-.07 3.665-.063 5.497.002.765.046 1.525.05 2.29.003 1.154-.22 2.332-.347 3.482-.272 2.431.094 5.008-1.216 7.18M68.079 51.907l-.748 3.345c-.133.595-.382 1.145-.554 1.727-.189.64-.233 1.332-.462 1.959-.386 1.061-.742 2.292-1.297 3.275a2.474 2.474 0 0 1-1.09 1.012c-.732.336-1.77.078-2.503-.085-.898-.2-1.4-1.379-1.674-2.252-.29-.922-1.094-1.566-1.321-2.5-.239-.98-.757-3.01-1.263-3.845-.152-.25-.43-.459-.628-.667-.313-.33-.545-.752-.887-1.053-.401-.354-1.097-.382-1.596-.494-.872-.194-2.373.672-2.992 1.64-.797 1.247-1.448 2.411-1.754 3.9-.26 1.267.43 2.499.737 3.656.495 1.868.778 3.714 1.535 5.49" stroke="#171717" stroke-linecap="round"/><path d="M51.746 66.432c-.202.904.407 1.618.75 2.35.413.883.913 1.64 1.465 2.416.88 1.238 1.843 2.479 2.601 3.809.888 1.556 1.866 3.164 3.005 4.516 1.034 1.227 2.197 2.344 3.207 3.612M62.916 83.262c.348.119.566.633.761.93.395.596.845 1.143 1.207 1.767.372.64.69 1.376 1.134 1.962 1.32 1.745 2.397 3.697 3.703 5.447.539.722 1.16 1.418 1.563 2.253.289.599.577 1.194.904 1.768.387.678.61 1.446 1.045 2.085a27.234 27.234 0 0 0 2.177 2.812M75.41 102.285c.483.679 1.188 1.218 1.765 1.781.694.679 1.155 1.557 1.823 2.248M77.785 26.781c.19.07.289.666.334.845.186.733.372 1.46.443 2.224.136 1.456.183 2.93.315 4.384.09.99.022 1.99.158 2.983.133.973.468 1.908.605 2.894.235 1.688.631 3.743.247 5.46-.094.422-.196.843-.283 1.266-.082.401-.02.813-.098 1.212-.075.38.004.753-.078 1.122M86.477 51.22c.4-1.792 1.074-3.753 1.12-5.587.021-.875-.208-1.714-.242-2.59-.037-.973.005-1.98-.08-2.945-.135-1.528.12-3.058-.05-4.584-.095-.85-.27-1.618-.445-2.451-.112-.534-.047-1.53-.48-1.91" stroke="#171717" stroke-linecap="round"/><path d="M86.343 30.972c.08-.36.18-.721.242-1.085.028-.161-.098-.397-.111-.573a6.916 6.916 0 0 0-.115-.901c-.104-.495-.41-.867-.523-1.351-.105-.448-.198-.88-.559-1.17-.77-.614-1.535-.938-2.412-1.372-.644-.318-1.47-.514-2.19-.457-1.293.102-2.32 1.67-3.055 2.682M87.251 30.163c.306.034.695-.174 1.011-.215a7.927 7.927 0 0 1 1.082-.092c.386.001.744-.095 1.113-.036.313.05.64-.041.922.187.455.367.723.84 1.017 1.355.255.448.386 1.152.512 1.659.18.724.31 1.535.419 2.275.212 1.44.457 2.914.756 4.337.252 1.199.068 2.563-.078 3.777-.15 1.25-.162 2.505-.44 3.746-.345 1.544-.377 3.123-.717 4.645M94.465 38.834c.143-.64.527-.897.968-1.28.26-.225.61-.317.878-.558.215-.193.444-.565.718-.658.35-.12.696-.305.97-.553.316-.285.634-.31 1.018-.366.416-.06.948.055 1.354.146.352.078.769.272 1.048.518.813.717.968 1.526 1.039 2.615.037.572-.216 1.245-.341 1.802-.189.849-.511 1.531-.824 2.331-.611 1.563-1.463 2.896-2.345 4.31-.663 1.064-1.368 2.064-1.866 3.241-.27.641-.492 1.361-.859 1.95-.396.637-.552 1.39-.976 2.033M95.209 54.534l-.217.971c-.118.53-.37 1-.5 1.516-.314 1.256-.957 2.33-1.428 3.52-.374.945-.607 1.766-.506 2.804.207 2.137.198 4.283.206 6.44" stroke="#171717" stroke-linecap="round"/><path d="M92.82 67.61c-.32-.026-.105 4.743-.124 5.156-.041.887.128 1.694.315 2.541.218.987.418 1.978.639 2.967.367 1.65.98 3.26 1.513 4.84.232.687.3 1.423.46 2.132.29 1.3 1.137 2.519 1.638 3.72" stroke="#171717" stroke-linecap="round"/><path d="M97.41 88.306c-.232 1.04.696 2.327 1.169 3.156.42.737 1.015 1.343 1.436 2.082.578 1.014.854 2.192 1.58 3.113.745.947.828 2.176.531 3.363-.418 1.672-1.977 2.572-3.058 3.668-.551.559-1.376.865-2.038 1.219-1.088.581-2.119 1.287-3.232 1.826-.315.154-.802.221-1.066.457-.204.183-.416.375-.685.403-.232.025-.477.123-.711.166-.412.075-.834.009-1.243.093-.649.133-1.326.09-1.963.298-.534.173-1.14.355-1.694.414-1.219.13-2.39.3-3.59.032-.891-.199-2.13-.086-2.875-.714-.402-.339-.798-.663-.92-1.246-.09-.425.18-1.393.35-1.776.235-.528.465-1.031.76-1.519.36-.593.858-1.029 1.332-1.515.568-.583 1.1-1.088 1.761-1.553.293-.206.556-.454.843-.667.23-.171.488-.195.71-.35.643-.453 1.403-.75 2.072-1.165.495-.306.97-.633 1.5-.865.606-.265 1.239-.412 1.838-.701 1.509-.729 3.16-1.426 4.798-1.06.776.173 1.478.244 2.272.183.525-.04 1.162-.065 1.67.049.767.171 2.159-.152 2.634.681M50.65 57.102c.117-.525.735-.765 1.18-.989a2.307 2.307 0 0 1 1.587-.202c1.064.238 1.93 1.373 2.066 2.449.183 1.442-.506 2.854-1.59 3.78-.747.639-1.703.866-2.521 1.386M76.218 26.144c-.351-.078-.545-.109-.854.087-.28.178-.63.5-.79.798-.251.472-.733 1.113-.734 1.68 0 .216.63.672.79.803.283.23.623.554.964.671.47.161 1.117.646 1.613.566M85.044 27.768c-.23-.051-.793-.31-.904.015-.19.553-.445 1.04-.575 1.619-.078.35-.246.747-.141 1.1.11.37.754.536 1.063.69M92.512 33.89l-1.554-.346c-.491-.11-.653-.156-1.105.031-.69.287-.883.688-.756 1.431.183 1.077 1.211 2.073 2.134 2.596.525.297 1.226.692 1.85.591M101.198 40.578l-1.89-.423c-.211-.047-.617-.23-.816-.103-.422.267-1.219.195-1.358.815-.138.62.354 1.394.75 1.84.161.182.291.389.453.571.156.176.376.228.56.365.351.263.824.43 1.218.627" stroke="#171717" stroke-linecap="round"/></svg>