<svg width="164" height="141" fill="none" xmlns="http://www.w3.org/2000/svg"><mask id="a" maskUnits="userSpaceOnUse" x="0" y="0" width="164" height="141" fill="#000"><path fill="#fff" d="M0 0h164v141H0z"/><path fill-rule="evenodd" clip-rule="evenodd" d="M59.393 9.382c-10.816 3.531.61 26.142 8.029 37.59-13.386 6.476-25.967 13.766-35.836 19.988-1.966-5.15-10.563-13.819-20.225-7.303-12.078 8.146 11.13 42.578 26.403 45.502 9.76 1.869 30.795-1.572 52.416-8.35l.16-.06c14.295 30.062 24.803 45.294 31.693 29.376 4.254-9.83.837-26.182-3.871-40.049l.151-.058c25.313-11.8 44.021-27.528 34.61-43.213-10.529-17.55-35.265-15.31-61.188-6.121C83.93 24.438 69.365 6.125 59.393 9.382Z"/></mask><path fill-rule="evenodd" clip-rule="evenodd" d="M59.393 9.382c-10.816 3.531.61 26.142 8.029 37.59-13.386 6.476-25.967 13.766-35.836 19.988-1.966-5.15-10.563-13.819-20.225-7.303-12.078 8.146 11.13 42.578 26.403 45.502 9.76 1.869 30.795-1.572 52.416-8.35l.16-.06c14.295 30.062 24.803 45.294 31.693 29.376 4.254-9.83.837-26.182-3.871-40.049l.151-.058c25.313-11.8 44.021-27.528 34.61-43.213-10.529-17.55-35.265-15.31-61.188-6.121C83.93 24.438 69.365 6.125 59.393 9.382Z" fill="#fff"/><path d="m67.422 46.972 3.484 7.202 8.157-3.947-4.928-7.605-6.713 4.35Zm-8.03-37.59 2.484 7.604-2.483-7.604ZM31.587 66.96l-7.474 2.854 3.482 9.12 8.258-5.206-4.266-6.768ZM11.36 59.657l4.473 6.633-4.473-6.633Zm26.403 45.502 1.505-7.857-1.505 7.857Zm52.416-8.35 2.393 7.634.239-.074.234-.09-2.866-7.47Zm.16-.06 7.225-3.436-3.179-6.685-6.91 2.65 2.864 7.47Zm31.693 29.376-7.342-3.178 7.342 3.178Zm-3.871-40.049-2.865-7.47-7.184 2.756 2.474 7.286 7.575-2.572Zm.151-.058 2.865 7.47.262-.1.253-.12-3.38-7.25Zm34.61-43.213-6.86 4.116 6.86-4.116Zm-61.188-6.121-6.746 4.3 3.42 5.367 5.999-2.127-2.673-7.54Zm-17.6 5.938c-3.53-5.45-7.827-13.296-9.953-19.874-1.098-3.396-1.325-5.591-1.197-6.664.051-.434.115-.254-.176.147-.353.489-.796.71-.933.755l-4.967-15.21c-2.84.928-5.292 2.63-7.062 5.075-1.707 2.359-2.467 4.973-2.75 7.336-.539 4.517.526 9.352 1.86 13.481 2.738 8.472 7.863 17.656 11.75 23.655l13.428-8.701ZM35.852 73.728c9.68-6.102 21.996-13.237 35.054-19.554L63.937 39.77C50.225 46.406 37.38 53.85 27.32 60.193l8.532 13.535ZM15.834 66.29c1.221-.824 2.06-.96 2.57-.965.569-.006 1.257.152 2.078.607.843.467 1.688 1.177 2.406 2.013.743.864 1.118 1.59 1.224 1.869l14.948-5.707c-1.637-4.286-5.524-9.233-10.823-12.17-5.861-3.248-13.69-4.078-21.35 1.088l8.947 13.265Zm23.435 31.012c-1.67-.32-4.653-1.856-8.384-5.255-3.545-3.228-7.037-7.478-9.782-11.9-2.799-4.51-4.479-8.649-4.963-11.634-.509-3.142.492-2.762-.306-2.223L6.887 53.025C.05 57.636-.577 65.375.347 71.072c.948 5.852 3.76 12.031 7.162 17.513 3.457 5.57 7.875 10.986 12.6 15.29 4.539 4.134 10.183 7.999 16.15 9.141l3.01-15.714Zm48.519-8.126c-10.5 3.29-20.786 5.748-29.532 7.152-9.012 1.446-15.55 1.632-18.987.974l-3.01 15.714c6.324 1.211 15.182.611 24.533-.89 9.617-1.544 20.659-4.196 31.781-7.683l-4.785-15.267Zm-.313.103-.16.061 5.73 14.939.16-.061-5.73-14.94Zm-4.36 10.905c7.045 14.815 13.743 27.34 20.037 33.993 2.903 3.069 7.863 7.207 14.269 6.204 6.551-1.025 10.042-6.663 11.953-11.079l-14.683-6.355c-1.534 3.544-1.94 1.97.256 1.627 2.051-.321 2.2 1.115-.172-1.393-4.257-4.499-9.96-14.621-17.21-29.868l-14.45 6.871Zm46.259 29.118c2.984-6.892 2.994-15.166 2.018-22.713-1.002-7.757-3.201-15.858-5.655-23.085l-15.15 5.144c2.254 6.64 4.118 13.649 4.937 19.991.847 6.553.438 11.371-.833 14.308l14.683 6.355Zm-13.926-50.753-.151.058 5.73 14.938.151-.058-5.73-14.938Zm30.615-31.628c1.353 2.255 1.544 4.118 1.159 5.922-.435 2.036-1.76 4.612-4.515 7.659-5.593 6.182-15.449 12.52-27.774 18.265l6.76 14.502c12.989-6.055 25.143-13.481 32.879-22.034 3.909-4.321 7.08-9.355 8.296-15.048 1.267-5.926.268-11.91-3.084-17.498l-13.721 8.232Zm-51.655-2.697c12.566-4.454 24.096-6.932 33.333-6.515 8.988.406 14.855 3.432 18.322 9.212l13.721-8.232c-7.062-11.77-18.828-16.4-31.321-16.963-12.245-.554-26.044 2.683-39.401 7.418l5.346 15.08ZM61.876 16.986c-.3.098.186-.24 2.092.716 1.864.935 4.192 2.685 6.832 5.253 5.245 5.1 10.457 12.173 14.189 18.028l13.492-8.598c-4.072-6.391-10.045-14.598-16.527-20.901-3.223-3.135-6.894-6.118-10.81-8.083-3.874-1.944-8.948-3.35-14.235-1.624l4.967 15.21Z" fill="#fff" mask="url(#a)"/><path d="M121.72 29.46v10.577c0 .494-.098 1.294.082.32.361-1.96.966-3.86 1.396-5.806.303-1.373.433-2.778 1.002-4.057.137-.309.042-1.297.328-.674 1.156 2.516 1.146 5.806 1.298 8.508.08 1.417.033 2.844.033 4.263 0 .301-.16 1.205.033 1.47.194.266.115-1.625.115-1.741 0-3.059.226-6.05.739-9.067.248-1.462.581-2.864.952-4.295.088-.34.162-1.37.23-1.026 1.148 5.74 1.035 11.65 1.035 17.492v1.552c0 .447.277-.957.296-1.06.706-3.922 1.528-7.84 1.626-11.842.011-.466.281-3.894.854-3.958.404-.045.623 9.009.657 9.707.053 1.087.253 2.098.41 3.162.095.638.507 1.212.74 1.815.042.11.295.938.295.484 0-2.31-.035-4.622.008-6.93.05-2.614.416-5.26.74-7.852.007-.06.235-.71.32-.682.368.123.316 2.757.337 3.064.157 2.327.304 4.648.517 6.972.171 1.862.21 3.748.665 5.568.14.557.214 1.262.485 1.774.451.853.311-1.906.41-2.866.41-3.948.748-7.93 1.766-11.777.165-.625.301-1.261.484-1.88.175-.59.095.937.115 1.125.428 3.85.574 7.731 1.314 11.538.101.52.21 1.147.23 1.675.011.288.149-1.631.156-1.921.052-2.03.253-4.09.583-6.094.129-.777.444-1.576.444-2.365V33.45c0-.754.284 1.484.361 2.234.268 2.596.377 5.203.665 7.802.018.159.052.72.189.246.614-2.119 1.216-4.229 1.643-6.397.222-1.133.409-2.272.608-3.408.049-.282-.204-.855.082-.855.182 0 .493 2.57.517 2.743.313 2.222.665 4.47.665 6.718 0 .549.261-.315.296-.427.276-.875.604-1.625 1.035-2.439.353-.667.778-1.28 1.149-1.93.138-.242.329-.3.329-.591M93.104 46.106c0 2.596-.305 5.44.386 7.975.294 1.079.817 2.091 1.086 3.166.118.475.29 1.924.305 1.435.016-.543.129-1.087.21-1.623.263-1.727.535-3.456.75-5.19.192-1.56.331-3.098.331-4.668 0-.481-.038-.94-.099-1.418-.013-.107-.186-1.075-.138-.556.097 1.071.292 2.11.336 3.194.078 1.926.18 3.84.386 5.758.129 1.208.433 2.389.802 3.544.1.309.194 1.262.247.941.665-3.988 1.211-8.139 1.211-12.19 0-.721.064-1.427.144-2.144.047-.426-.013-.731.183-.143.52 1.559.65 3.307.866 4.924.287 2.15.383 4.335.785 6.468.222 1.177.651 2.314 1.045 3.44.058.167.113.692.126.516.141-1.974.53-4.004.888-5.948.297-1.615.454-3.216.488-4.857.014-.654.066-1.306.077-1.96 0-.026-.011-.39.018-.386.068.009.14.472.152.512.205.687.35 1.384.476 2.09.309 1.735.578 3.52 1.049 5.22.228.824.888 3.259.888 2.404 0-1.835.323-3.663.323-5.498M71.871 55.229v8.468c0 1.259-.013 2.483.202 3.727.102.586.217 1.457.543 1.978.129.206.255-.421.323-.655.361-1.253.615-2.55.852-3.83.262-1.42.475-2.848.583-4.288.072-.962.044-1.928.121-2.888.069-.855.04-1.717.04-2.575 0-.981.393 1.925.525 2.898.436 3.2.706 6.42.969 9.638.057.698.103 1.743.462 2.381.077.137.063-.31.063-.466 0-1.534-.007-3.068 0-4.602.007-1.757.123-3.504.242-5.256.063-.925.257-1.828.323-2.75.074-1.042-.013-2.12.143-3.153.024-.158-.022-.944.144-.372.599 2.07.861 4.265 1.166 6.392.224 1.56.433 3.111.547 4.682.036.489-.113 1.131.022 1.605.085.298.461.602.602.893.107.224.363 1.251.363.552 0-3.874.807-7.683.807-11.563v-1.323c0-.263-.017-.3.018.014.258 2.32.734 4.625 1.032 6.943.298 2.318.68 4.642.968 6.951.003.02.238-.636.26-.717.306-1.117.495-2.25.628-3.4.262-2.26.112-4.433-.076-6.683-.055-.663-.268-1.622-.04-2.274.115-.328.207-.614.44-.112.77 1.668 1.136 3.401 1.57 5.176.172.707.367 1.465.367 2.198M50.397 64.997c0 2.998-.246 6.111.18 9.086.105.739.27 1.46.506 2.167.003.008.19.435.202.417.06-.091.098-.319.134-.413.335-.874.675-1.739.956-2.633.54-1.72 1.036-3.435 1.413-5.198.173-.813.204-1.65.152-2.48-.037-.594-.314-1.202-.314-1.785 0-.018.088.211.09.215.2.488.35.996.493 1.503.546 1.925.91 3.928 1.31 5.888.311 1.526.606 3.058.933 4.58.137.641.326 1.312.399 1.964.006.056.004.204.004.01 0-.644-.002-1.287.018-1.93.076-2.375.218-4.753.346-7.126.11-2.037.074-4.089.201-6.122.037-.587.38 1.117.49 1.695.43 2.259.49 4.523.659 6.808.124 1.68.256 3.375.51 5.042.044.28.073 1.148.297 1.372.056.057.062-.086.063-.099.013-.522.019-1.043.044-1.565.132-2.67.31-5.34.503-8.006.085-1.18.099-2.355.099-3.538 0-.08-.047-.932.13-.633.548.928.627 2.179.74 3.22.18 1.656.306 3.316.462 4.974.086.925.23 1.803.444 2.705.036.154.16.752.246.31.293-1.515.699-3.014 1.045-4.517.285-1.236.67-2.487.722-3.763.031-.754-.155-1.67.086-2.39" stroke="#FFD424" stroke-width="2.5" stroke-linecap="round"/><path d="M86.644 97.163c.042-.808.722-1.333.935-2.077.173-.606.13-1.374.377-2.016.126-.328.191-.678.318-1.004.115-.296.458-.558.523-.85.18-.805.484-1.035-.249-.025-1.504 2.075-2.61 4.222-4.436 6.049-.539.539-1.207 1.21-1.63 1.845-.365.547.361-1.266.55-1.897.637-2.135 1.496-4.136 2.359-6.186.702-1.667 1.285-3.308 2.18-4.873.206-.362.285-.652-.31-.206-1.59 1.193-2.396 3.204-3.947 4.41-.28.218-.697.665-.875.96-.765 1.277.563-2.941 1.116-4.324.127-.318 1.609-3.387 1.355-3.672-.107-.121-2.78 3.767-3.02 4.222-.085.162-.497 1.081-.497.497 0-.85.019-1.63.343-2.437.62-1.543 1.762-2.918 2.282-4.478" stroke="#C6C6C8" stroke-width="2.5" stroke-linecap="round"/><path d="M82.958 92.394c0 1.507-.31 2.983-.31 4.5 0 .833-.075 1.689.008.285.154-2.614 2.115-4.81 2.595-7.355.024-.126.16-.89-.138-.741-.816.408-1.64 1.468-2.276 2.104-1.481 1.48-2.958 2.926-3.682 4.932-.283.784-.774 2.81-1.56 3.26-.24.136-.383.367-.604.525-.143.102-.025-.353.008-.526.25-1.306.58-2.591 1.026-3.846.633-1.777 1.38-3.62 2.432-5.2.163-.243.39-.608.638-.732" stroke="#C6C6C8" stroke-width="2.5" stroke-linecap="round"/><path d="M120.637 29.876c12.763-1.029 23.61 1.606 30.327 10.086-20.452 16.873-28.483 1.633-30.327-10.086Z" stroke="#171717" stroke-width="1.5"/><path d="M90.18 96.81c-21.621 6.777-42.656 10.218-52.416 8.349-15.272-2.924-38.48-37.356-26.403-45.502 9.662-6.516 18.259 2.154 20.225 7.303 9.87-6.222 22.45-13.512 35.836-19.988-7.419-11.448-18.845-34.059-8.03-37.59 9.973-3.257 24.539 15.056 32.343 27.302 25.923-9.19 50.659-11.429 61.188 6.121 9.411 15.685-9.297 31.413-34.61 43.213" stroke="#171717" stroke-width="1.5"/><path d="m109.402 67.874-26.01 10.56a1.302 1.302 0 0 0-.689 1.737c18.247 40.545 31.266 64.584 39.33 45.954 6.346-14.662-4.375-43.834-10.993-57.627a1.276 1.276 0 0 0-1.638-.624Z" stroke="#171717" stroke-width="1.5"/><circle cx="57.132" cy="70.948" transform="rotate(-23.591 57.132 70.948)" stroke="#171717" stroke-width="1.5" r="7.022"/><circle cx="78.234" cy="61.73" transform="rotate(-23.591 78.234 61.73)" stroke="#171717" stroke-width="1.5" r="7.022"/><circle cx="99.339" cy="52.511" transform="rotate(-23.591 99.339 52.51)" stroke="#171717" stroke-width="1.5" r="7.022"/><path d="M31.84 67.46c.817 0 1.653-.568 2.403-.836.634-.226 1.474-.718 1.999-1.137.6-.481 1.21-.946 1.844-1.382.72-.496 1.533-.86 2.224-1.388a19.943 19.943 0 0 1 3.56-2.14c2.854-1.325 5.483-3.239 8.187-4.826 1.163-.683 2.394-1.243 3.618-1.819.823-.387 1.719-.656 2.48-1.163.652-.435 1.335-.924 2.05-1.247.922-.416 1.788-1.344 2.75-1.62a10.21 10.21 0 0 0 2.192-.892c.613-.345 1.215-.788 1.857-1.073.494-.22-.249-.506-.52-.778-.481-.481-.9-1.204-1.1-1.85-.195-.635-.556-1.154-.783-1.768-.476-1.283-.796-2.616-1.292-3.888-.192-.491-.483-1.459-1.163-1.459" stroke="#171717" stroke-linecap="round"/><path d="M63.185 39.698c0-.69-.05-1.254-.463-1.844-.54-.773-.804-1.693-1.278-2.494a38.508 38.508 0 0 1-2.192-4.247c-.68-1.564-1.055-3.185-1.677-4.775-.294-.752-.653-1.502-.919-2.262-.288-.823-.34-1.696-.527-2.538-.305-1.373-.578-2.788-.578-4.19 0-1.043.154-1.812.488-2.776.15-.433.427-.807.553-1.247.163-.572.435-1.359.752-1.85.71-1.106 2.296-1.158 3.463-1.158h2.378c.732 0 1.468.211 2.198.232 1.649.046 3.214 1.154 4.395 2.204 1.393 1.238 2.486 2.748 3.818 4.042.712.692 1.498 1.267 2.197 1.966.878.878 1.948 1.451 2.892 2.224 1.085.887 2.025 1.931 3.13 2.808.944.75 1.721 1.61 2.48 2.538.234.287.546.553.81.817.566.565.934 1.399 1.446 2.024 1.037 1.268 1.905 2.667 2.866 3.984.647.886 1.388 1.77 1.966 2.7.208.334.48 1.003.836 1.182M92.158 37.175c1.04 0 1.939-.441 2.865-.88 1.048-.496 2.083-.99 3.127-1.49a20.861 20.861 0 0 1 2.419-.983c1.267-.423 2.455-1.19 3.738-1.534 3.196-.857 6.407-1.759 9.705-2.125 2.199-.244 4.404-.597 6.597-.88 1.875-.242 3.78.08 5.638.19 2.217.13 4.511.297 6.645.946 1.531.466 5.159.597 8.591 2.6 4.118 2.401 8.921 5.625 8.921 6.519M118.262 85.813h2.34c1.206 0 2.389-.594 3.519-.995.867-.308 1.838-.648 2.633-1.12 1.083-.64 2.002-1.53 3.065-2.2.806-.509 1.536-1.103 2.268-1.713.915-.762 1.889-1.473 2.772-2.267 1.311-1.18 2.927-1.952 4.206-3.16.614-.58 1.498-.967 2.209-1.42.755-.48 1.519-1.16 2.136-1.806.824-.862 1.945-1.402 2.751-2.297.529-.588 1.014-1.219 1.492-1.85 1.909-2.523 4.348-4.805 5.764-7.637" stroke="#171717" stroke-linecap="round"/><path d="M150.783 40.781c1.537 1.537 3.115 3.667 4.016 5.67.458 1.018 1.015 2.23 1.112 3.35.073.843.007 1.72.007 2.567 0 1.605-.599 3.163-.797 4.747-.289 2.31-2.254 3.57-3.943 4.865M120.24 30.117c0 1.868-.346 4.107.293 5.896.603 1.688 1.879 3.06 2.736 4.638.849 1.564 2.242 3.197 3.715 4.213.805.555 1.629 1.035 2.48 1.514.924.52 1.878.608 2.89.827.871.188 1.939.029 2.83.029 1.048 0 2.091.027 3.124-.16 2.216-.404 4.283-.656 6.159-2.05 1.25-.928 2.605-2.075 3.95-2.823.832-.462 1.457-1.246 2.37-1.55M14.092 84.604c-.088-.871-.763-1.76-1-2.615-.221-.796-.568-1.473-.847-2.24-.708-1.947-1.496-3.787-2.154-5.761-.62-1.863-1.077-4.183-1.077-6.155 0-1.05-.231-2.086-.145-3.163.087-1.094.549-2.877 1.222-3.744 1.046-1.345 3.008-1.518 4.65-1.555 2.624-.06 5.18-.455 7.813-.163 1.847.206 3.608.995 5.078 2.129.942.726 1.718 1.686 2.461 2.615.744.93 1.324 2.127 2.155 2.958M84.216 78.88c0 1.197-.176 2.499.244 3.635.58 1.57.949 3.145 1.71 4.665 1.023 2.049 2.246 4.039 3.173 6.131.917 2.069 1.572 4.261 2.374 6.375.693 1.828 1.264 3.674 2.048 5.466.626 1.43 1.11 3.09 1.993 4.374.912 1.325 1.853 2.89 2.496 4.36.224.511.668 1.307.732 1.858.024.202.31.324.36.55.187.84.444 1.572.915 2.312.241.379.537 1.02.923 1.262.274.171.522.76.732 1.03.497.64.975 1.358 1.397 2.048.604.989 1.238 1.873 2.048 2.713 1.605 1.665 3.277 3.791 5.344 4.883 1.51.798 3.027 1.926 4.761 1.926M115.592 132.466c1.981 0 3.448-.664 4.611-2.319 1.267-1.803 1.55-4.157 2.469-6.104 1.697-3.593-.164-7.582-.366-11.23-.033-.588-.301-1.309-.428-1.892-.14-.644-.061-1.356-.061-2.014 0-.778-.122-1.536-.122-2.319 0-.457-.222-.802-.244-1.221-.07-1.323-.198-2.697-.244-4.001-.043-1.203-.244-2.39-.244-3.567" stroke="#171717" stroke-linecap="round"/><path d="M120.964 97.8c0-1.56.191-3.258-.122-4.788a29.279 29.279 0 0 0-1.716-5.472c-1.431-3.4-2.535-6.91-3.96-10.308-.64-1.525-1.63-2.885-2.197-4.456-.53-1.467-1.073-3.056-2.381-4-.781-.565-1.705-.638-2.624-.638-.521 0-.841.189-1.282.244-.494.062-1.037.43-1.587.488-.722.076-1.473.162-2.21.244-1.632.181-2.904 1.058-4.381 1.587-1.625.583-3.166 1.42-4.639 2.32-1.422.868-2.978 1.626-4.272 2.685-.802.656-1.773 1.201-2.686 1.682-.474.25-.946.748-1.404 1.064-.497.345-.846.608-1.403.794M13.623 83.243c1.304 1.174 2.39 2.59 3.523 3.944 1.105 1.322 2.228 2.634 3.303 3.978 1.045 1.306 2.331 2.408 3.523 3.573 1.363 1.334 2.713 2.717 4.147 3.978 1.766 1.555 3.556 3.163 5.798 3.911a73.682 73.682 0 0 0 5.503 1.626c2.607.652 5.52.683 8.192.683h5.528c1.583 0 3.098-.253 4.66-.303" stroke="#171717" stroke-linecap="round"/><path d="M56.393 104.61c5.293 0 10.343-.29 15.295-2.307 2.815-1.147 5.55-2.55 8.48-3.364 1.761-.49 3.681-.886 5.389-1.55 1.542-.6 3.05-1.298 4.596-1.814M55.552 64.84h-1.314c-.586 0-1.116.337-1.607.634-.552.334-1.111.922-1.319 1.543-.456 1.37-.553 2.87-.815 4.284-.316 1.706.165 3.534 1.626 4.527 1.472 1 3.082 1.98 4.884 2.105.99.068 2.025.107 2.935-.303.987-.444 2.05-.977 2.73-1.846 1.125-1.438 1.38-3.677.88-5.426-.363-1.27-.832-2.555-1.515-3.692-.49-.818-1.123-1.235-1.914-1.739-1.052-.67-2.71-.615-3.907-.615-.914 0-1.991-.17-2.774.351M78.32 55.082c-1.187 0-2.198.103-3.203.796-.994.685-1.846 1.855-2.51 2.852-.912 1.369-1.436 2.927-1.314 4.572.055.745.446 1.307.942 1.821.56.581 1.033 1.257 1.602 1.827 1.665 1.664 3.781 2.605 6.154 2.637 1.14.016 1.904-.075 2.935-.571.938-.452 1.471-1.403 1.9-2.29.593-1.23.757-2.406.923-3.732.142-1.139.13-2.446-.18-3.556-.615-2.195-2.657-2.621-4.543-3.37-.712-.282-1.616-.415-2.373-.566-.746-.15-1.508-.156-2.266-.156M97.881 46.264c-1.077 0-1.695-.171-2.523.627-.682.658-1.16 1.195-1.677 1.969-.934 1.401-1.181 3.476-1.181 5.119 0 1.872.422 3.268 2.13 4.33 1.751 1.091 4.43 2.087 6.532 1.576.896-.218 2.102-.844 2.727-1.517.413-.445.653-1.193.919-1.735.253-.517.64-1.016.788-1.575.238-.906.619-2.061.32-2.99-.258-.805-.867-1.363-1.341-2.027-.983-1.375-2.793-2.432-4.229-3.281-1.684-.995-3.404-.627-5.221-.627" stroke="#171717" stroke-linecap="round"/></svg>