<svg width="125" height="130" fill="none" xmlns="http://www.w3.org/2000/svg"><path d="M65.86 129.37c-6.04 0-8.92-3.16-10.1-5.04-.26-.41-.46-.74-3.24-6.56-2.2-4.53-1.34-9.96 2.15-13.55 3.99-4.1 8.58-8.18 13.35-11.89l-.92-1.43c-2.72.77-5.48 1.19-8.27 1.26-3.71 2.4-7.99 3.65-12.54 3.65-7.86 0-15.14-3.68-19.87-6.76-9.6-6.27-23.55-20.26-20.08-31.11.63-1.96 1.45-3.54 2.35-4.8-.73-2.5-.74-5.53.85-9-2.2-2.37-3.01-5.85-1.88-9.01l1.18-3.32-2.47-.71C2.31 29.91-.36 25.99.04 21.77v-.12C.44 17.46 3.78 14.1 8 13.7l6.19-.59 1.47-6.29A8.796 8.796 0 0 1 24.26 0h.37l.33.03h.17c4.35.43 7.79 4.03 7.99 8.4l.06 1.21 2.09-.89a8.846 8.846 0 0 1 11.16 3.82c.25.45.46.91.62 1.38 6.08-3.5 11.92-6.38 16.96-8.33 5.11-1.97 9.02-2.89 12.29-2.89 5.7 0 8.61 2.87 9.9 4.76.35-.03.71-.04 1.07-.04 1.36 0 2.79.18 4.27.54 5.11 1.24 9.33 6 12.53 14.15 2.44 6.21 3.88 13.49 3.97 19.98.19 14.01-5.48 24.16-15.7 28.35-1.21 1.84-2.95 4.35-4.91 6.77l1.38 2.14c7.1-3.32 13.86-5.29 20.18-5.86.38-.03.72-.05 1.05-.05 4.03 0 7.76 2.04 9.97 5.46l2.3 3.7c1.69 2.73 2.3 5.96 1.71 9.11-1.96 10.38-11.78 16.29-26.66 25.23-6.21 3.73-21.72 12.42-31.5 12.42v-.02Z" fill="#fff"/><path d="M17.233 30.584c.03.26.512.475.702.602.46.308.928.65 1.365.99.196.152.608.679.608.43 0-.747-.948-1.82-1.282-2.442-1.118-2.077-4.575-8.252-3.393-6.21.26.45.63.842.95 1.248.731.924 1.411 1.888 2.189 2.774.817.93 1.718 1.917 2.73 2.647.417.301.29-.063.165-.404-.64-1.745-1.485-3.418-2.188-5.138-.52-1.273-1.134-2.574-1.503-3.902-.094-.339-.257-.676.133-.26 2.614 2.795 4.644 6.143 7.758 8.45.106.078 1.116.93 1.116.574 0-1.537-1.032-3.158-1.69-4.487a56.201 56.201 0 0 1-1.985-4.453c-.182-.465-.261-1.02-.48-1.46-.025-.05.004.114.022.166.243.707.773 1.329 1.232 1.901a40.312 40.312 0 0 0 4.968 5.195c1 .872 1.914 1.847 2.995 2.624.144.104.575.56.408.139-.607-1.535-1.63-2.985-2.508-4.371a515.383 515.383 0 0 1-4.327-6.963c-.462-.756-.736-1.579-1.122-2.37-.308-.634.95.651 1.028.723 2.646 2.426 5.781 4.47 8.908 6.228.707.398 1.004.49.89-.503-.186-1.607-1.377-2.994-1.377-4.658" stroke="#FFD424" stroke-width="2.5" stroke-linecap="round"/><path d="M22.848 42.74c0 .738-.497 1.548-.948 2.109-1.117 1.388-2.034 2.815-2.939 4.361-.265.453-.778.956-.948 1.45-.079.225.23.14.303.026.357-.552.86-1.062 1.317-1.529 1.956-1.997 3.873-4.032 5.811-6.048 1.44-1.497 2.835-3.1 4.46-4.4.194-.155-.056.347-.079.401-.616 1.464-1.192 2.945-1.825 4.401a57.21 57.21 0 0 0-2.365 6.457c-.16.533-.179 1.168-.389 1.667-.922 2.19 2-4.316 3.11-6.417 2.512-4.754 4.712-9.722 8.011-13.98.622-.803 1.015-1.113.712.118-.333 1.35-.78 2.672-1.212 3.992-.794 2.423-1.375 4.89-2.043 7.346-.229.844-.484 1.682-.718 2.524-.116.418-.033-.058.02-.198.642-1.692 1.687-3.329 2.484-4.954 1.098-2.239 2.205-4.486 3.459-6.641.181-.313.447-1.12.764-1.331.029-.02-.14 2.627-.171 2.806-.486 2.76-1.106 5.51-1.753 8.236-.406 1.71-.627 3.44-1.001 5.152-.02.09-.07.362-.06.27.084-.711.239-1.418.396-2.115 1.056-4.7 2.43-9.384 4.276-13.835 1.025-2.475 2.18-4.96 3.662-7.201.216-.326.672-1.353.672-.962 0 2.017-.974 4.184-1.554 6.068a1104.55 1104.55 0 0 0-3.176 10.455c-.268.9-1.19 3.527-.698 2.728 1.995-3.243 3.34-6.929 4.756-10.443 1.124-2.787 2.324-5.472 3.822-8.077.276-.48.72-1.27.619-.184-.261 2.785-1.525 5.573-2.345 8.222-1.049 3.383-2.034 6.822-2.82 10.278-.144.633-.307 1.263-.448 1.897-.038.169-.128.533.026.105 1.575-4.357 3.33-8.658 5.034-12.965.975-2.465 1.938-4.922 3.11-7.3.403-.82.807-1.644 1.238-2.45.004-.008.45-.805.474-.778.146.162-.224 1.06-.263 1.185-.56 1.804-1.153 3.599-1.733 5.396-1.065 3.302-2.076 6.592-2.708 10.008-.159.86-.937 3.283-.395 2.596.54-.685.9-1.657 1.258-2.431.948-2.043 1.772-4.137 2.61-6.226 1.221-3.05 2.549-6.107 4.249-8.927.213-.354 1.177-1.916 1.14-.626-.088 3.019-1.401 5.969-2.333 8.795-.645 1.957-1.38 3.887-1.851 5.896-.052.222-.3.839-.152.666.132-.154.183-.361.264-.547.454-1.04.885-2.088 1.35-3.123 1.579-3.51 3.162-7.123 5.271-10.356.15-.232 1.671-2.457 1.766-1.331.164 1.96-.543 3.876-1.186 5.692-.424 1.197-.728 2.526-1.265 3.676-.106.228.917-1.122 1.034-1.271 1.218-1.55 2.362-3.083 3.854-4.381.265-.23 1.589-1.683 1.213-.554" stroke="#171717" stroke-width="2.5" stroke-linecap="round"/><path d="M35.848 34.74c0 .738-.497 1.548-.948 2.109-1.117 1.388-2.034 2.815-2.939 4.361-.265.453-.778.956-.948 1.45-.079.225.23.14.303.026.357-.552.86-1.062 1.317-1.529 1.956-1.997 3.873-4.032 5.811-6.048 1.44-1.497 2.835-3.1 4.46-4.4.194-.155-.056.348-.079.401-.616 1.464-1.192 2.945-1.825 4.401a57.21 57.21 0 0 0-2.365 6.457c-.16.533-.178 1.168-.389 1.667-.922 2.19 2-4.316 3.11-6.417 2.512-4.754 4.712-9.722 8.011-13.98.622-.803 1.015-1.113.712.118-.333 1.35-.78 2.672-1.212 3.992-.794 2.423-1.375 4.89-2.043 7.346-.229.844-.484 1.682-.718 2.524-.116.418-.033-.058.02-.198.642-1.692 1.687-3.329 2.484-4.954 1.098-2.239 2.205-4.486 3.459-6.641.181-.313.447-1.12.764-1.331.029-.02-.14 2.627-.171 2.806-.486 2.76-1.106 5.51-1.753 8.236-.406 1.71-.627 3.44-1.001 5.152-.02.09-.07.362-.06.27.084-.711.239-1.418.396-2.115 1.056-4.7 2.43-9.384 4.276-13.835 1.025-2.475 2.18-4.96 3.662-7.201.216-.326.672-1.353.672-.962 0 2.017-.974 4.184-1.554 6.068a1104.55 1104.55 0 0 0-3.176 10.455c-.268.9-1.19 3.527-.698 2.728 1.995-3.243 3.34-6.929 4.756-10.443 1.124-2.787 2.324-5.472 3.822-8.077.276-.48.72-1.27.619-.184-.261 2.785-1.525 5.573-2.345 8.222-1.049 3.383-2.034 6.822-2.82 10.278-.144.633-.307 1.263-.448 1.897-.038.169-.128.533.026.105 1.575-4.357 3.33-8.658 5.034-12.965.975-2.465 1.938-4.922 3.11-7.3.403-.82.807-1.644 1.238-2.45.004-.008.45-.805.474-.778.146.162-.224 1.06-.263 1.186-.56 1.803-1.153 3.598-1.733 5.395-1.065 3.302-2.076 6.592-2.708 10.008-.159.86-.937 3.283-.395 2.596.54-.685.9-1.657 1.258-2.431.948-2.043 1.772-4.137 2.61-6.226 1.221-3.05 2.549-6.107 4.249-8.927.213-.354 1.177-1.916 1.14-.626-.088 3.019-1.401 5.969-2.333 8.795-.645 1.957-1.38 3.887-1.851 5.896-.052.222-.3.839-.152.666.132-.154.183-.361.264-.547.454-1.04.885-2.088 1.35-3.123 1.579-3.51 3.162-7.123 5.271-10.357.15-.23 1.671-2.456 1.766-1.33.165 1.96-.543 3.876-1.186 5.692-.424 1.197-.728 2.526-1.265 3.676-.106.228.917-1.122 1.034-1.271 1.218-1.55 2.362-3.083 3.854-4.381.265-.23 1.589-1.683 1.213-.554" stroke="#171717" stroke-width="2.5" stroke-linecap="round"/><path d="M30 64c0 2.47.624 5.316 2.458 7.15.66.66.699-1.523.782-1.9.11-.503.44-2.858 1.005-3.14.018-.01.231.603.236.62.314 1.153.756 2.271 1.105 3.414.537 1.763 1.12 3.47 1.737 5.2.382 1.07.566-.805.62-1.104.422-2.289.957-4.502 1.54-6.752.04-.153.043-.88.174-.98.254-.198.609 1.937.62 2.01.461 2.97.418 6.034 1.006 8.974.048.24.527 3.232.732 2.048.479-2.766.815-5.537 1.39-8.291.036-.17.633-2.75.993-2.185.268.421.249 1.21.348 1.688.293 1.413.557 2.832.844 4.245.407 2.007.763 4.15 1.502 6.07.403 1.048 1.071-3.015 1.13-3.327.075-.404.624-4.927 1.166-4.927.079 0 1.077 4.841 1.154 5.126.318 1.17 1.284 6.492 2.346 3.016.457-1.495.544-3.15 1.068-4.617.331-.929 1.005 2.615 1.067 2.855.442 1.705.677 3.432 1.291 5.089.337.909 1.27-1.8 1.34-2.011.541-1.602.852-3.645 1.838-5.052.518-.74.883-.888 1.067.236.19 1.156 1.503 8.457 4.084 6.392 1.453-1.162 2.254-3.309 2.668-5.051.063-.266.894-2.844.894-1.478 0 1.152.176 2.254.224 3.389.033.802 0-1.605 0-2.408M64.248 117.395c0-.907.737-1.762 1.239-2.455a15.04 15.04 0 0 1 1.336-1.617c.293-.305.666-.456.98-.728.26-.225.78-1.033.78-.43 0 2.26-.602 4.769-1.215 6.939-.093.328-.23.664-.23 1.009 0 .295.12-.585.253-.849.672-1.343 1.574-2.56 2.334-3.853 1.028-1.752 1.937-3.571 2.976-5.317.416-.698.834-1.44 1.354-2.07.06-.074.465-.714.596-.699.024.002-1.086 4.906-1.158 5.218-.353 1.525-.654 3.071-1.084 4.577-.056.196.089-.4.143-.597.308-1.126.98-2.181 1.525-3.2 1.416-2.644 2.471-5.449 3.785-8.137.109-.222.631-1.333.631-.568 0 2.65-.913 5.282-1.319 7.891-.211 1.359-.355 2.726-.585 4.083-.07.418-.166 1.658-.258 1.244-.1-.453.08-.998.224-1.416.628-1.828 1.337-3.625 2.041-5.425.785-2.004 1.635-3.98 2.426-5.982.46-1.161.852-2.427 1.394-3.549.059-.122.215-.616.206-.253-.015.671-.194 1.362-.315 2.019-.6 3.266-.813 6.586-1.336 9.864-.08.497-.452 1.949.017.636.547-1.532.975-3.104 1.577-4.616 1.096-2.753 2.34-5.516 3.75-8.121a35.269 35.269 0 0 1 2.231-3.595c.03-.042.468-.652.476-.419.028.739-.123 1.462-.327 2.168-.605 2.098-1.4 4.146-2.139 6.199a303.683 303.683 0 0 0-1.617 4.628c-.212.62-.545 1.283-.562 1.95-.007.294.019.545.275.155.992-1.507 1.784-3.217 2.661-4.795 1.535-2.759 2.775-5.664 3.407-8.768.083-.408.16-.81.16-1.227 0-.177.002.567 0 .665-.012 1.027-.186 2.057-.315 3.074-.315 2.477-.684 4.822-1.652 7.145-.571 1.372-1.39 2.58-2.139 3.854-.052.089-.51 1.09-.642 1.09-.035 0 .025-.242.057-.27.133-.113.221-.36.287-.499.44-.923.867-1.852 1.308-2.775 1.234-2.588 2.365-5.226 2.838-8.063.135-.81.311-1.614.488-2.41.236-1.06.932-2.028 1.525-2.918.275-.412.714-1.615.826-.55.299 2.836.55 5.689.7 8.538.032.619.023 1.239.023 1.859 0 .208-.022.373.023.022.153-1.19.464-2.342.757-3.503a762.388 762.388 0 0 0 1.846-7.461c.286-1.186.569-2.401.963-3.556.011-.03.194-.686.224-.487.312 2.029.415 4.15.5 6.199.084 2.066-.086 4.143.12 6.199.02.214.068.287.154.029.475-1.426.838-2.892 1.296-4.324.771-2.409 1.545-4.874 2.145-7.33.103-.42.119-.034.138.179.168 1.886.662 3.77 1.015 5.625.354 1.864.549 3.713.728 5.598.042.443.097.884.103 1.33.001.026.019.375.023.367.518-1.086.599-2.514.929-3.665.805-2.8 1.727-5.587 2.747-8.315.42-1.123.838-2.243 1.314-3.343.012-.03.241-.744.241-.39 0 1.103-.39 2.297-.631 3.36a56.02 56.02 0 0 0-.906 5.127c-.055.41-.343 1.612-.19 1.227.597-1.491 1.269-2.968 2.053-4.37.742-1.325 1.579-2.583 2.426-3.842.04-.058.581-.99.746-.929.031.012-1.223 3.306-1.319 3.67-.058.22-.25.87-.201.648.212-.952.503-1.884.654-2.85.116-.745.269-1.537.269-2.294 0-.497-.559-.383-.917-.286-1.568.423-2.893 1.562-4.078 2.615-1.49 1.324-3.084 2.743-4.203 4.41-.128.19-1.279 2.619-.276 1.95.887-.592 1.366-1.746 1.859-2.644.437-.798.974-1.638 1.192-2.535.125-.512-.72.772-1.038 1.193a1148.34 1148.34 0 0 1-7.397 9.697c-2.588 3.359-5.246 6.588-8.241 9.583-.43.431-.33.071-.212-.378.405-1.545.915-3.065 1.427-4.577.942-2.778 1.978-5.493 3.04-8.223.473-1.216-1.443 2.231-1.755 3.498-.358 1.452-.275 3.329 1.709 2.925 1.78-.363 2.773-2.69 3.504-4.152.085-.171.315-.65.315-.172 0 .798-.163 1.582-.08 2.385.075.727.553 1.043 1.072.396.968-1.203 1.407-2.877 2.094-4.249.129-.26.498-1.42.814-1.526.32-.107-.332.587-.493.883" stroke="#C6C6C8" stroke-width="2.5" stroke-linecap="round"/><path d="M78.515 12.642c.047 8.881-9.676 15.132-26.612 26.021-16.936 10.89-32.481 16.894-34.72 13.411-2.24-3.482-.004-8.91 26.612-26.022 16.936-10.889 32.48-16.893 34.72-13.41ZM70.092 80.311l9.126 14.195m-3.243-17.975L85.1 90.724" stroke="#171717" stroke-width="1.5"/><path d="M17.223 52.192c8.453 15.2 31.184 42.11 54.864 26.885 27.445-17.646 13.924-50.74 6.338-66.496" stroke="#171717" stroke-width="1.5"/><path d="M55.4 83.62C39.95 97.265 11.843 68.124 14.194 60.78c1.348-4.218 3.843-4.576 5.816-3.872M82.61 21.912c-.373-2.355.381-6.702 6.378-5.25 7.497 1.814 18.902 40.784-2.579 46.601M115.098 88.36c.042 7.587-8.268 12.582-22.744 21.282-14.475 8.7-27.762 13.278-29.677 10.224-1.914-3.053-.005-7.608 22.744-21.281 14.476-8.7 27.763-13.278 29.677-10.225Z" stroke="#171717" stroke-width="1.5"/><path d="m62.467 119.34-2.563-5.197c-.598-1.215-.399-2.67.546-3.641 9.438-9.703 29.89-26.37 48.84-28.1 1.154-.105 2.25.476 2.878 1.449l3.006 4.657M23.85 8.286l-3.064 13.12-13.13 1.26 12.062 3.481-4.55 12.787 8.793-12.191 8.52 5.03-3.107-8.311 9.498-6.768-14.355 6.087-.667-14.495Z" stroke="#171717" stroke-width="1.5"/><path d="M77.32 13.079c-.535-.644-2.969-.014-3.647.039-.807.063-1.905-.354-2.675.026-.91.45-2.075.427-3.014.938-.558.304-1.243.4-1.818.683-.803.396-1.469.937-2.308 1.275-1.04.42-2.282.951-3.235 1.525-1.034.623-2.18 1.778-3.379 1.978-.438.073-.954.558-1.324.796-.613.394-1.283.575-1.894.967-1.272.818-2.626 1.439-3.885 2.248-2.646 1.702-5.55 2.819-8.21 4.53-2.679 1.721-5.405 3.224-8.08 4.945-5.923 3.807-11.834 7.798-16.147 13.505-1.146 1.516-2 3.574-.88 5.315 1.66 2.58 5.814 1.338 7.983.615 2.376-.79 4.528-2.129 6.85-3.03 1.782-.69 3.547-1.357 5.327-2.035 2.383-.91 5.071-1.65 7.227-3.036 2.617-1.683 5.354-3.192 7.983-4.883 5.493-3.532 10.372-7.918 15.845-11.437l3.675-2.363c1.264-.813 2.078-1.726 3.066-2.846 1.705-1.931 3.134-4.096 3.976-6.57.705-2.07-.12-3.647-2.47-3.27" stroke="#171717" stroke-width="1.5" stroke-linecap="round"/><path d="M18.32 52.894c2.369 3.683 4.615 7.394 7.471 10.72 2.592 3.02 5.349 5.836 8.18 8.614 2.568 2.52 5.014 5.277 8.385 6.748 1.44.628 2.71 1.656 4.205 2.159.731.246 1.538.41 2.287.603.766.198 1.524.576 2.307.663.58.065 1.293.321 1.83.521.46.17 1.205.04 1.702.135 1.499.29 3.49.571 4.985.19 2.34-.596 4.636-1.314 6.96-1.96 1.919-.535 3.651-1.81 5.501-2.547 1.79-.712 3.468-2.032 5.074-3.097 1.53-1.014 2.813-2.507 3.88-3.981 1.259-1.737 2.599-3.401 3.737-5.22.99-1.58 1.735-3.349 2.478-5.051 1.645-3.77.448-6.024.708-10.155.123-1.97.965-4.636.971-6.607.005-1.709-.073-2.697-.617-4.349-.467-1.42-.79-2.978-1.595-4.229-.628-.977.49-2.834-.022-3.865-.682-1.372-1.72-2.69-2.548-3.977-.298-.464-.032-.792-.175-1.043-.48-.84-.552-2.023-.743-2.954-.445-2.16-1.208-4.555-2.338-6.461a33.638 33.638 0 0 1-1.978-3.848M115.265 87.514c-.625-.97-3.203-.212-4.109-.044-1.402.259-2.754.494-4.152.778-2.677.544-5.191 1.87-7.48 3.341-2.687 1.728-5.578 2.604-8.388 4.037-1.06.541-2.25.81-3.265 1.44-.945.587-1.872 1.204-2.808 1.806L80.196 102l-8.202 5.274-2.694 1.731c-.898.578-1.683 1.717-2.421 2.502-1.576 1.677-3.345 3.422-4.415 5.476-.282.542-1.003-1.017-1.265-1.426-.241-.374-1.024-1.475-.883-1.895.347-1.032 1.191-2.071 1.754-3.018.769-1.296 1.782-2.388 2.59-3.632.51-.783 1.719-1.891 2.468-2.431 1.352-.977 2.551-2.178 3.886-3.184 5.559-4.184 11.522-7.843 17.395-11.619 2.613-1.68 5.461-2.488 8.41-3.442 1.387-.448 2.849-.589 4.244-1.061 1.357-.46 2.757-.822 4.125-1.246.473-.147 2.138-.662 2.583-.53.976.293 2.257-.896 3.215-.126 1.047.843 3.163 2.12 3.136 3.756" stroke="#171717" stroke-width="1.5" stroke-linecap="round"/><path d="M114.182 87.224c1.045 1.626.375 3.167-.393 4.717-.151.304-.095.742-.122 1.072-.044.54-.638 1.09-.994 1.452-.815.829-1.548 1.699-2.411 2.466-1.154 1.026-2.447 2.102-3.388 3.352-1.258 1.673-3.253 2.789-4.987 3.904-1.63 1.048-3.019 2.405-4.662 3.462-1.311.843-2.486 1.831-3.807 2.68-1.887 1.213-4.038 1.592-6.046 2.493-1.822.818-3.744 1.434-5.643 2.054-3.174 1.036-6.169 2.667-9.363 3.529-2.317.626-4.588 1.119-6.947 1.447-2.1.691-3.003-.375-3.445-2.592M21.458 58.054c-.58-.599-2.262-.694-3.065-.642-.797.051-1.264.42-1.93.848-.913.587-1.423.922-1.68 2.003-.178.755-.487 1.74-.403 2.52.229 2.114 1.52 3.952 2.655 5.718.804 1.25 1.587 2.519 2.413 3.754.578.863 1.514 1.406 2.29 2.064 1.132.959 2.308 1.86 3.426 2.837 1.936 1.692 3.892 3.248 6.19 4.42 1.643.836 3.116 2.106 4.829 2.818 2.23.927 4.564 1.562 6.984 1.787 1.446.135 2.737.904 4.22.912 1.411.007 2.988-.065 4.216-.854 1.034-.665 2.47-1.903 2.324-3.262M82.883 21.45c-.21-.806.584-2.293 1.046-2.952.458-.654 1.016-.861 1.728-1.207.976-.475 1.528-.736 2.584-.392.737.24 1.74.488 2.362.965 1.687 1.295 2.585 3.354 3.503 5.243.65 1.337 1.326 2.664 1.95 4.013.437.942.414 2.024.572 3.03.23 1.465.389 2.938.642 4.4.438 2.535.749 5.014.554 7.587-.14 1.838.179 3.757-.104 5.59-.368 2.387-1.04 4.71-2.107 6.895-.637 1.305-.651 2.807-1.417 4.078-.727 1.209-1.608 2.519-2.921 3.157-1.106.537-2.91 1.12-3.995.287M78.814 94.628c-1.477-1.477-2.578-3.311-3.852-4.96-.451-.585-.898-1.193-1.229-1.855-.27-.541-.345-1.092-.527-1.657-.427-1.328-.89-2.714-1.503-3.974-.25-.514-.988-1.4-.988-1.975M75.654 77.342c1.485 1.484 2.91 3.136 4.248 4.763.929 1.13 1.976 2.185 2.765 3.413.534.83.874 1.974 1.208 2.909.082.231 1.148 1.968 1.163 1.953M8.59 22.52c1.52 0 3.127.143 4.639-.022a48.92 48.92 0 0 1 5.33-.274c.525 0 1.089.056 1.578-.176.235-.111.398-.308.642-.417.765-.34.433-1.575.444-2.248.012-.732.283-1.575.444-2.292a43.328 43.328 0 0 1 1.036-3.849c.28-.865.575-1.722.74-2.615.07-.373.11-.849.297-1.185.084-.151.145.922.148 1.135.015 1.298.243 2.542.373 3.828.165 1.634.389 3.275.51 4.907.068.926.104 1.832.104 2.764 0 .621.4.29.79.126.964-.407 1.883-.942 2.867-1.31 1.731-.65 3.456-1.241 5.127-2.046 1.098-.529 2.26-.926 3.355-1.459.2-.096 1.862-1.075 1.42-.29-.46.818-1.364 1.603-2.132 2.122-.875.59-1.794 1.269-2.764 1.7-1.084.482-2.195 1.015-3.136 1.754-.417.328-1.086.874-1.086 1.431 0 .84.53 1.468.987 2.144a37.266 37.266 0 0 0 1.777 2.413c.53.663 1.187 1.609 1.458 2.423.03.09.21.674.06.708-.956.212-2.201-.154-3.136-.34-.703-.14-1.357-.502-2.034-.74-.639-.225-1.379-.508-1.969-.84-.641-.36-1.069-1.014-1.584-1.53-.238-.237-.796-1.092-1.047-.729-.671.97-1.378 1.875-2.111 2.802-.874 1.105-1.49 2.404-2.27 3.575-.976 1.464-2.049 2.862-3.06 4.3-.16.227-.437.271-.592.465-.112.14.027-1.181.05-1.294.376-1.885.985-3.743 1.529-5.587.367-1.245.853-2.45 1.085-3.729a10.5 10.5 0 0 1 .373-1.458c.122-.364-.25-.369-.526-.46-1.344-.449-2.663-.954-3.992-1.437-1.3-.473-2.54-1.149-3.745-1.826-.562-.316-1.022-.642-1.683-.642" stroke="#171717" stroke-width="1.5" stroke-linecap="round"/></svg>