<svg width="122" height="111" fill="none" xmlns="http://www.w3.org/2000/svg"><path d="M12.766 26.594a4 4 0 0 0-1.785 2.958l-6.54 67.73c-.453 4.701 3.242 8.77 7.964 8.77h68.361a3.998 3.998 0 0 0 2.858-1.202l31.69-32.36a8.001 8.001 0 0 0 2.243-6.409l-4.784-46.89a3.998 3.998 0 0 0-3.264-3.529l-59.6-10.828a8 8 0 0 0-5.822 1.185l-31.32 20.575Z" fill="#fff" stroke="#fff" stroke-width="8" stroke-linejoin="round"/><path d="M17.9 30.959c-.123.538-.56.994-.84 1.456-.367.603-.62 1.281-.906 1.925-.468 1.052-1.068 2.087-1.456 3.17-.147.41-.782 1.35-.145.55 1.064-1.339 2.3-2.52 3.558-3.672 1.064-.973 2.255-1.818 3.276-2.839.134-.134.93-.907.558-.267-1.834 3.155-4.454 5.751-6.293 8.913-.832 1.432-1.969 2.848-2.62 4.367-.057.135.425-.343.461-.372.693-.564 1.408-1.101 2.095-1.674 2.044-1.704 4.03-3.475 6.098-5.152 1.332-1.08 2.558-2.402 3.858-3.413.299-.233 1.921-1.49 1.204-.34-.993 1.597-2.497 3.026-3.687 4.481-1.294 1.58-2.156 3.443-3.38 5.063-1.24 1.64-2.38 3.346-3.462 5.047-.304.477-.359.62.097.064 1.674-2.047 3.449-4.022 5.257-5.952 1.449-1.548 3.062-2.997 4.448-4.594.424-.488.919-.975 1.27-1.52.415-.646 1.17-1.04 1.528-1.666.152-.267.66-.544.93-.663.061-.028.279-.242.13.024-.424.753-1.378 1.384-1.966 2.013-3.603 3.858-6.915 8.003-10.085 12.229-.981 1.308-2.292 2.48-3.017 3.93-.157.315-.401.57-.517.906-.325.94.283.072.68-.275 2.955-2.59 6.397-4.464 9.154-7.327 1.508-1.566 2.823-3.291 4.076-5.063.811-1.146 1.447-2.404 2.29-3.526.678-.905 1.31-2.01 2.11-2.766.158-.149.682-.695.55-.113-.169.741-.866 1.429-1.278 2.038-.991 1.464-2.033 2.893-3.057 4.335-2.306 3.245-5.13 6.453-6.77 10.11-.288.644-.66 1.258-.945 1.9-.017.036-.205.406-.057.259.619-.62 1.154-1.357 1.755-1.998 2.72-2.905 5.11-5.988 7.473-9.188 1.347-1.824 2.804-3.904 4.505-5.434.295-.266.531-.524.8-.793.349-.349-.293.948-.526 1.383a59.677 59.677 0 0 1-2.482 4.197c-1.595 2.468-2.974 5.05-4.48 7.57-.602 1.006-1.304 2.087-1.748 3.17-.118.29-.42.742-.437 1.052-.046.832.752-.322 1.044-.598 2.225-2.108 4.408-4.3 6.284-6.73.676-.875 1.395-1.754 1.973-2.7.178-.292.369-.77.63-1.003.16-.141.085.421.082.437-.107.522-.348 1.013-.583 1.488-1.19 2.407-2.744 4.616-4.019 6.98-.583 1.079-.769 2.27-1.262 3.355-.186.41.74-.44.752-.452.932-.846 1.858-1.692 2.734-2.597 1.29-1.333 2.481-2.747 3.712-4.132.428-.482.65-.356.267.194-1.61 2.317-2.44 4.787-3.389 7.424-.367 1.02.157.349.728-.137.608-.518 1.304-.942 1.966-1.383" stroke="#171717" stroke-width="2.5" stroke-linecap="round"/><path d="M104.158 60.317v7.1c0 .548.265-.674.279-.713.281-.769.652-1.5.933-2.27.744-2.029 1.292-4.123 1.992-6.166.075-.22.692-1.815.769-.77.134 1.809.024 3.728-.269 5.512-.071.43-2.307 9.098-1.587 9.178.391.043 1.136-1.655 1.212-1.847 1.166-2.994 1.922-6.159 2.905-9.216.424-1.318.89-2.723 1.597-3.925.605-1.029.038 2.396-.125 3.578-.318 2.294-.764 4.57-.953 6.879-.061.75-.443 2.95-.163 2.25.259-.648 1.228-1.305 1.722-1.798M18.793 27.763c.93 1.138 1.283 2.713 1.991 3.973.372.662.314-.635.347-.885.169-1.286.31-2.564.51-3.848.117-.755.107-3.293 1.25-2.058 1.975 2.132 3.246 4.936 4.637 7.465.216.393.442.603.442-.01 0-1.7-.53-3.38-.827-5.04-.218-1.217-.266-2.47-.52-3.675-.114-.542-.08-.2 0 .134.472 1.974 2.372 4.237 3.771 5.676.05.05.669.789.693.789.116 0 0-.231 0-.347V25.1c0-.46-.166-1.293.01-1.732.06-.151.214.25.288.395.435.843.94 1.655 1.453 2.453 1.233 1.918 2.635 3.725 3.934 5.598.429.618.817 1.273 1.232 1.895.098.147.01-.352.01-.529 0-.731-.078-1.44-.184-2.164-.389-2.66-1.775-10.599-1.192-7.975.441 1.987 1.958 4.051 2.895 5.858.03.058.432.868.52.693.31-.619.317-1.466.423-2.136.155-.977.428-2.53 1.347-1.038.172.28 1.688 2.819 2.078 2.039" stroke="#C6C6C8" stroke-width="2.5" stroke-linecap="round"/><path d="M11.43 78.224c.717 0 1.335-.163 2.017-.314.485-.108.003.533-.098.645-.75.833-1.595 1.553-2.278 2.448-.608.798-1.026 1.71-1.578 2.546-.204.31-.645.788-.645 1.184 0 .147.104-.28.197-.394.379-.464.852-.878 1.282-1.292 1.635-1.572 3.48-2.94 5.263-4.34 1.216-.953 2.348-1.929 3.668-2.662.555-.309.928-.564.529.152-.625 1.12-1.532 2.132-2.26 3.192a290.902 290.902 0 0 0-3.748 5.613c-1.001 1.534-2.115 3.012-3.057 4.582-.244.406-.457.827-.736 1.21-.138.19-.62.615-.385.592.265-.026.649-.527.807-.681.728-.711 1.493-1.39 2.188-2.134 2.43-2.607 4.409-5.613 6.742-8.303 1.182-1.363 2.5-2.608 3.775-3.883.033-.032 1.028-.967.87-.582-.714 1.733-2.379 3.338-3.524 4.77-1.645 2.056-2.947 4.324-4.42 6.5-1.44 2.126-3.098 4.072-4.573 6.16-.648.917-2.246 3.884-1.623 2.95 1.004-1.506 2.184-2.887 3.317-4.295 2.674-3.32 5.184-6.788 8.043-9.952 1.335-1.478 2.787-2.835 4.107-4.322.056-.064 1.098-.975 1.12-.897.232.809-.782 2.217-1.12 2.78-1.913 3.188-4.228 6.115-6.124 9.307-1.278 2.151-2.557 4.314-3.775 6.5-.534.96-1.2 2.124-1.524 3.183-.01.03-.246.677-.072.52 1.065-.958 1.842-2.53 2.564-3.73 3.298-5.479 7.364-10.298 11.28-15.332.539-.692 1.045-1.439 1.686-2.044.236-.224-.799 1.705-.906 1.9-2.99 5.471-5.942 10.922-9.1 16.301-.746 1.27-1.547 2.53-2.224 3.838-.168.323-.52.747-.52 1.121 0 .399.424-.411.538-.547 2.354-2.812 4.558-5.826 6.617-8.859 1.75-2.58 3.227-5.332 5.039-7.872.464-.652 1.095-1.921 1.757-2.394.178-.127-.222 1.236-.251 1.309-.865 2.161-2.052 4.252-3.084 6.339-1.752 3.539-3.733 7.053-5.04 10.786-.169.484-.139.46.18.081 1.157-1.377 2.318-2.751 3.479-4.124 1.247-1.475 2.295-3.087 3.479-4.61.095-.122 1.147-1.542 1.147-1.129 0 1.38-.927 2.918-1.524 4.098-1.083 2.14-1.956 4.384-2.94 6.572-.235.52-.682 1.289-.682 1.883 0 .222.178-.078.197-.108a25.43 25.43 0 0 1 1.506-2.071c.865-1.086 1.841-2.049 2.798-3.048.088-.092.825-.88.825-.386 0 1.504-.943 3.719-1.776 4.967M62.107 39.005c.683 0 1.331-.068 2.009-.161.23-.032 1.518-.616 1.667-.449.493.555-3.976 4.422-4.312 5.04-.5.914 1.356-.909 1.515-1.04 1.51-1.257 3.088-2.332 4.734-3.39.806-.518-.523.866-.636.986-2.111 2.235-4.08 4.596-6.142 6.878-.133.146-1.98 2.265-1.274 1.873 1.416-.783 2.63-2.207 3.82-3.281 1.676-1.513 3.425-2.93 5.129-4.412.303-.263 2.563-2.563 3.075-2.358.009.004-3.372 4.407-3.55 4.627-2.135 2.633-4.513 5.497-5.999 8.563-.109.224-1.302 2.033-.287 1.345 1.282-.87 2.405-2.16 3.524-3.21 2.061-1.936 4.118-3.879 6.24-5.748 1.245-1.096 2.585-2.065 3.847-3.138.386-.328.776-.724 1.22-.977.009-.006-.372.322-.449.412-1.078 1.255-2.02 2.612-3.138 3.838-3.311 3.629-6.831 7.056-10.374 10.455-.549.526-1.99 1.697-.278.986 2.319-.963 4.245-2.746 6.187-4.286 2.591-2.055 5.319-3.915 7.962-5.9 1.409-1.058 5.506-4.4 4.115-3.317-1.753 1.363-3.153 3.369-4.51 5.101-2.651 3.387-5.417 6.692-8.052 10.087-.196.253-2.154 2.515-.77 1.74 3.337-1.871 6.45-4.162 9.306-6.707 1.348-1.201 2.583-2.509 3.793-3.846.104-.115 1.193-1.428 1.013-.906-.403 1.173-1.38 2.206-2.116 3.174-1.29 1.7-2.613 3.369-3.963 5.021-.243.298-2.365 3.34-2.295 3.336.636-.046 1.282-.64 1.757-.996 1.071-.803 2.067-1.701 3.112-2.537.204-.164 1.752-1.57 1.703-1.202-.164 1.232-.9 2.291-1.372 3.408-.32.756-.132.742.413.197M53.753 23.716c-.635.159.97 2.96 1.133 3.304.184.388.095.311.095-.126 0-1.408.012-2.81.073-4.216.055-1.261.17-2.52.44-3.755.023-.101.164-.618.263-.262.795 2.862 2.564 5.351 3.644 8.107.102.26.147.54.252.797.038.092.097.351.142.262.038-.075 0-.301 0-.377v-1.62c0-1.297-.025-2.593.073-3.887.03-.394.081-.786.11-1.18 0 0 .004-.318.026-.309.131.052.272.491.326.587.47.84 1.071 1.605 1.594 2.413 1.08 1.667 2.14 3.364 2.947 5.181.157.353.32.704.472 1.06.037.086.142.442.063.125-.342-1.37-.479-2.814-.703-4.206-.24-1.498-.506-3.03-.64-4.541-.04-.454-.199-1.006-.199-1.448 0-.153.167.26.242.394.398.716.786 1.439 1.185 2.155 1.08 1.938 2.204 3.863 3.503 5.664.539.747 1.086 1.657 1.762 2.297.116.11.093-.95.089-1.06-.099-2.673-.729-5.374-1.295-7.981-.118-.54.01.366.042.487.385 1.44 1.278 2.695 2.066 3.939.337.531.715 1.147 1.222 1.542.324.252.42-1.22.425-1.306.077-1.438.065-2.88.167-4.316.007-.09.01-1.18.263-1.065.413.188.829.887 1.08 1.243.217.308.575.937.944 1.06M93.116 48.353c0 .692.008 1.385 0 2.077-.019 1.516-.452 2.996-.944 4.42-.254.736-.547 1.452-.661 2.224-.011.076-.167.55-.052.436.487-.488.854-1.077 1.206-1.668 1.138-1.916 2.414-3.738 3.681-5.57.538-.777 1.024-1.607 1.579-2.37.153-.211.255-.371.173 0-.134.6-.504 1.218-.776 1.762-.964 1.928-2.042 3.796-3.021 5.716-.839 1.644-1.495 3.362-2.302 5.019-.272.558-1.115 2.21-.771 1.694.549-.824.983-1.786 1.437-2.664 1.347-2.606 2.68-5.208 4.106-7.772a95.942 95.942 0 0 1 1.893-3.241c.065-.107.21-.391.21-.094 0 .826.007 1.65-.058 2.475-.198 2.537-1.064 4.947-2.019 7.29-.545 1.336-1.193 2.632-1.584 4.027-.028.1-.383 1.153-.047.787.963-1.047 1.52-2.62 2.061-3.902.839-1.987 1.625-4.052 2.685-5.937.06-.106.74-1.25.755-.912.042.9-.045 1.803-.147 2.695-.17 1.502-.421 3-.702 4.484-.162.857-.434 1.72-.472 2.596-.012.268-.093.389.189.116.612-.596 1.199-1.26 1.641-1.993.432-.717.769-1.526 1.133-2.282.279-.579.146.552.131.708-.097 1.026-.511 2.055-.829 3.032-.058.18-.118.64-.283.723" stroke="#FFD424" stroke-width="2.5" stroke-linecap="round"/><path d="M59.972 77.834c0 .8-.001 1.56-.226 2.337-.285.985-.803 2.02-.93 3.041-.026.207-.25.575.056.3 1.22-1.099 2.925-1.89 4.303-2.766.308-.196 5.998-4.434 6.179-4.133.262.438-1.189 1.744-1.4 1.965-2.04 2.149-4.275 4.138-6.372 6.236-1.67 1.67-2.842 3.602-4.343 5.394-.373.445-.593.945-.906 1.423-.013.02-.318.41-.259.405.402-.037 1.05-.551 1.407-.728 1.549-.767 3.103-1.485 4.53-2.475 3.555-2.467 6.084-5.907 8.993-9.042.71-.766 1.567-1.691 2.426-2.305.575-.41-.691 1.253-1.18 1.763-4.239 4.419-8.132 9.13-11.323 14.364-.056.092-1.012 1.58-.922 1.658.082.072.94-.94.97-.97 1.156-1.157 2.398-2.217 3.607-3.317 2.857-2.598 5.663-5.336 8.185-8.265 1.13-1.313 1.988-2.802 3.065-4.149.289-.361.563-.691.881-1.027.102-.107.772-.868.583-.518-.531.983-1.36 1.8-2.103 2.62-1.621 1.793-3.323 3.515-4.998 5.258-1.614 1.68-3.243 3.347-4.836 5.046-1.474 1.572-2.69 3.33-4.044 4.998-1.188 1.464-2.241 3.042-3.235 4.643-.204.327-1.149 1.188-1.149 1.585 0 .091.127-.132.195-.194.26-.24.574-.425.865-.623 1.541-1.046 3.1-2.08 4.537-3.267 3.474-2.87 7.142-6.048 9.956-9.584 1.554-1.954 2.773-4.286 4.52-6.034.394-.393 1.002-.819 1.278-1.31.386-.685-.72 1.4-1.132 2.07-3.153 5.125-5.883 10.611-9.672 15.31-.458.567-.927 1.179-1.246 1.836-.142.293-.211.794-.437 1.019-.37.371-.895.291-1.375.291-.726 0 1.153-2.621 1.319-2.838 1.614-2.117 3.95-3.24 5.863-5.023 1.305-1.214 2.477-2.562 3.793-3.768 1.048-.961 1.78-2.225 2.774-3.22.707-.706.14.88.049 1.117-1.167 3.006-3.068 5.683-4.675 8.46-.9 1.554-1.83 3.155-2.499 4.828-.133.334-.4.855-.291 1.237.07.247.736-.828.744-.841.787-1.25 1.648-2.406 2.515-3.599 1.269-1.747 2.405-3.549 3.559-5.362.02-.032.256-.523.275-.502.206.233-.08 1.05-.146 1.278-.537 1.859-1.185 3.715-1.569 5.613-.04.197-.446 2.186-.065 1.424.644-1.287 1.444-2.302 2.394-3.381.094-.107 1.204-1.328 1.278-1.18.466.931-.096 2.945-.404 3.833-.048.138-.751 2.059-.583 2.07.73.046-.239-1.583-.323-1.844-1.029-3.18-.911-6.665-1.205-9.964-.085-.956.097-3.898-1.415-3.898-1.987 0-6.862 3.559-7.756.324-.3-1.086-.572-2.237-.655-3.365-.025-.327-1.71 2.037-1.893 2.33-.651 1.046-1.234 2.217-2.07 3.137-.161.178.952.605 1.197.76" stroke="#171717" stroke-width="2.5" stroke-linecap="round"/><path d="M14.962 29.937 8.436 97.538a4.118 4.118 0 0 0 4.098 4.514h68.232M14.962 29.937l67.023 9.822m-67.023-9.822 31.282-20.55a4.118 4.118 0 0 1 2.997-.61l59.553 10.82m-28.028 82.455 1.219-62.293m-1.219 62.293 31.651-32.321a4.117 4.117 0 0 0 1.155-3.299l-4.778-46.834m-26.81 20.16 26.81-20.16" stroke="#171717" stroke-width="1.5"/><path d="M85.173 15.207 61.84 36.825l-5.49 65.196M68.704 12.12 37.82 33.736l-8.235 68.284" stroke="#171717" stroke-width="1.5"/><path d="m38.85 14.179 60.392 12.353 4.804 51.47" stroke="#171717" stroke-width="1.5"/><path d="M27.186 22.07 89.98 33.737l3.431 55.245" stroke="#171717" stroke-width="1.5"/><path d="m12.775 53.637 68.628 5.49 29.51-20.93M10.713 75.256l71.03 2.402 30.539-23.677" stroke="#171717" stroke-width="1.5"/><path d="M55.918 101.463c0-5.327-.383-10.808.664-16.043.532-2.66.658-5.369 1.135-8.052.377-2.119.633-4.295.87-6.429.236-2.122.56-4.244.796-6.37.213-1.91.052-3.964.458-5.84.209-.967-.106-1.982.191-2.934.188-.601.398-1.602.398-2.226 0-1.557.24-3.119.472-4.66.264-1.75-.187-4.224.531-5.84.328-.736.325-2.25.325-3.067 0-.601.265-1.097.265-1.71 0-.852.21-.7.914-1.062 1.334-.686 2.6-1.685 3.73-2.669 1.166-1.013 1.751-2.715 2.655-3.966 2.464-3.412 5.514-5.974 8.715-8.641 2.03-1.692 3.032-4.327 4.94-6.076.942-.864 1.342-1.582 1.342.118M28.916 101.756v-9.418c0-3.074 1.803-5.667 2.456-8.608.574-2.58 1.253-5.058 1.623-7.689.65-4.626 1.277-9.281 2.03-13.882.481-2.944.363-5.897.854-8.842.487-2.923 1.03-5.776 1.73-8.65.362-1.49.341-2.896.341-4.422 0-.817.536-1.575.748-2.37.128-.48-.363-1.12-.363-1.57 0-.639-.385-1.185-.385-1.826 0-.902.626-1.262.962-2.018.18-.405.586-.987.96-1.207.65-.382 1.141-1.248 1.741-1.773 3.465-3.032 7.79-4.61 11.726-6.824 1.907-1.072 3.67-2.216 5.468-3.46 1.292-.895 2.817-1.369 4.036-2.317 1.782-1.386 3.256-3.107 5.286-4.122" stroke="#171717" stroke-linecap="round"/><path d="M27.318 21.744c2.33 0 4.874-.303 7.13.294 1.865.494 3.601 1.574 5.471 1.99 2.727.606 5.567.786 8.327 1.326 3.884.76 7.642 1.923 11.578 2.441 3.626.477 7.317 1.248 10.851 2.165 1.475.382 3.049.453 4.56.7 1.303.213 2.598.491 3.896.69 1.989.307 3.912.732 5.886 1.17.512.114 4.315 1.153 4.476.83M92.976 88.228v-7.304c0-1.165.048-2.322-.129-3.473-.174-1.13-.368-2.33-.368-3.472 0-2.391.018-4.776.368-7.139.314-2.117.129-4.36.129-6.503 0-2.902-.332-5.766-.332-8.668 0-2.825-.783-5.786-1.409-8.538-.258-1.134.145-2.365-.166-3.482-.197-.711-.359-1.44-.543-2.156-.359-1.394-1.032-2.861-1.032-4.31" stroke="#171717" stroke-linecap="round"/><path d="M38.76 14.613c2.527 0 4.92.744 7.258 1.658a34.519 34.519 0 0 0 8.861 2.192c2.069.23 3.899.535 5.684 1.622 1.618.985 3.521 1.342 5.388 1.529 2.547.255 5.144.275 7.7.451 1.37.094 2.59.546 3.906.838.995.222 2.064.481 3.021.83 1.378.5 2.938.5 4.366.745 2.839.49 5.798 1.04 8.659 1.244 1.462.104 2.648.819 3.85 1.455.465.247.558 1.555.663 2.027.207.929.609 1.867.995 2.735.693 1.56-.034 3.405.663 4.974.418.941.287 2.077.534 3.068.214.852.429 1.721.618 2.57.255 1.147-.086 2.394.175 3.564.597 2.688.899 5.469 1.621 8.124.474 1.747.534 3.704.534 5.509 0 1.142.261 2.666-.083 3.767-.286.914-.414 2.001-.414 2.957 0 .612-.168 1.561.092 2.118.344.738.571 1.835.571 2.644 0 .888-.279 2.364.166 3.14.517.906.497 1.642.497 2.746" stroke="#171717" stroke-linecap="round"/><path d="M13.145 53.183c3.213 0 6.881-.486 10.019.211 2.175.484 4.138.653 6.391.653h6.824c1.738 0 3.556-.167 5.259.259 2.073.518 4.102 1.321 6.19 1.775 2.586.563 5.18.949 7.802 1.334 2.756.406 5.511.648 8.263 1.085a45.01 45.01 0 0 0 7.255.556c2.043 0 4.049.691 6.075.691 1.145 0 2.959.326 3.983-.172 1.098-.535 2.143-1.36 3.205-1.977 1.632-.95 3.364-1.737 5-2.688 3.06-1.777 5.977-3.137 8.455-5.786 1.526-1.632 2.602-3.543 4.242-5.096 1.108-1.05 2.623-2.003 3.973-2.678.876-.438 1.397-1.326 2.246-1.775.293-.156 1.9-1.327 1.9-1.248M10.205 76.332c2.692 0 5.44-.21 8.08.307 2.062.403 4.176-1.008 6.248-.703 2.701.397 5.197 1.782 7.956 1.814 3.623.041 6.85.15 10.365-.641 2.358-.53 4.673-1.296 7.101-1.296H71.77c1.826 0 3.58.519 5.422.519h3.32c.599 0 1.025-.317 1.556-.346 1.024-.057 2.138-.612 3.109-1.037 3.383-1.48 6.384-3.687 9.674-5.355 2.434-1.234 5.143-2.724 7.082-4.664 1.077-1.077 1.716-2.296 2.515-3.55.66-1.038 1.596-1.691 2.495-2.496 1.189-1.064 3.455-1.88 3.455-3.8" stroke="#171717" stroke-linecap="round"/><path d="M46.868 8.04c-4.22 0-7.764 3.733-10.858 6.032-1.991 1.479-4.318 2.744-6.108 4.486-1.464 1.425-2.887 2.831-4.6 3.921-2.974 1.893-5.444 4.741-8.294 6.523-2.378 1.486-3.179 3.092-3.733 5.862-.806 4.032-.597 8.296-1.206 12.386-.631 4.236-1.509 8.241-1.509 12.536 0 3.793-.339 7.58-.339 11.348 0 2.754-.678 5.488-.678 8.238 0 4.92.336 9.99-.359 14.855-.22 1.539-1.862 7.203.02 8.144M43.984 102.709c6.21 0 12.286-1.018 18.512-1.018 4.717 0 9.556.262 14.214-.32.468-.059 4.294-.001 2.636-.001-3.875 0-8.716-.418-12.533.246-5.271.916-10.603 1.093-15.948 1.093-7.25 0-14.724 1.027-21.96 1.027-3.695 0-15.896-.849-19.56-1.372M81.49 101.352v-15.27c0-5.34-.43-10.315-1.019-15.608-.473-4.259-.679-8.53-.679-12.819 0-3.39.68-6.71.68-10.066 0-1.449-.301-3.334.018-4.77.488-2.195.66.808.66-.34 0-1.943.34.855.34 1.528 0 3.025.047 5.99-.34 8.992-.845 6.545-1.697 12.913-1.697 19.51 0 6.521.569 13.201 1.376 19.663.38 3.034 1 5.741 1 8.841" stroke="#171717" stroke-linecap="round"/><path d="M81.137 101.352c.16-1.446 2.364-2.567 3.393-3.318 1.9-1.387 3.403-2.353 4.77-4.317 1.408-2.026 3.551-3.505 5.259-5.26 1.818-1.868 3.078-4.223 4.392-6.447 1.976-3.343 5.539-5.424 7.899-8.483 1.913-2.48 4.309-4.067 6.862-5.768" stroke="#171717" stroke-linecap="round"/><path d="M108.964 21.611c0 6.861.022 13.407 1.188 20.17.334 1.94.634 3.98.829 5.939.182 1.815.954 3.549 1.037 5.373.234 5.135 1.697 9.841 1.697 14.957 0 1.736.294-3.406 0-5.117-.952-5.544-1.944-11.263-2.376-16.872-.472-6.137-1.017-12.19-1.017-18.342 0-1.81-.34-3.536-.34-5.354 0-.856.086-3.345-.528-3.959-.671-.672-3.461-.188-4.298-.188-3.101 0-6.162.085-9.237-.34-7.426-1.024-14.517-3.708-21.735-5.58-3.482-.902-7.68-2.48-11.292-2.563-1.281-.03-2.564-.32-3.808-.604-1.44-.328-3.04-.15-4.43-.584-2.414-.754-5.193-.509-7.71-.509-2.49 0-2.735.976-4.638 2.187-4.46 2.838-8.63 5.206-11.386 10.029" stroke="#171717" stroke-linecap="round"/><path d="M15.178 30.304c5.443 0 11.152 1.3 16.536 2.171 2.595.42 5.272.563 7.823 1.179 1.177.284 2.492.627 3.699.736 4.848.441 9.316 2.195 14.14 2.897 2.587.376 5.068.079 7.66.655 1.846.41 5.8.545 7.52 1.298 1.484.65 3.232.349 4.73 1.015 1.099.488 2.903.589 4.124.589" stroke="#171717" stroke-linecap="round"/></svg>