<svg width="165" height="168" fill="none" xmlns="http://www.w3.org/2000/svg"><g filter="url(#a)"><mask id="b" maskUnits="userSpaceOnUse" x="8" y="4.9" width="149" height="152" fill="#000"><path fill="#fff" d="M8 4.9h149v152H8z"/><path fill-rule="evenodd" clip-rule="evenodd" d="M45 65.6C45 39 62.9 12.9 85.8 12.9c16.2 0 26.8 8.7 33.4 20.2 3-1 5.8-2.8 8.2-5.7a.4.4 0 0 1 .7.5c-2.5 3-5.4 4.9-8.4 6a65 65 0 0 1 4.9 11.2h10.4v9.1c2.3 1 6 2.9 8.9 5.6 3 2.8 5.4 6.5 4.9 11a8.8 8.8 0 0 1-7.4 8c-3.8.8-8.6-.7-13-4.8-1.8 20.3-11.8 30.7-23.4 35.4h-.1l2 10.7-4 4c.3 0 .5.2.5.4v20.7l8.2 2a.4.4 0 1 1-.2.8l-8.5-2a.4.4 0 0 1-.4-.4v-21L100 127l-6.4-7L95 112h-.2a55 55 0 0 1-22.6-1.6l1 34.8 8.2 2a.4.4 0 0 1-.2.8l-8.5-2a.4.4 0 0 1-.3-.4l-1-35.5c-11.3-3.6-21.4-12-25-29.5-5.2 2.1-12.2 2.1-21.4-2-2.5-1-5-2.4-7.8-4.1a.4.4 0 0 1 .5-.7c2.4 1.5 4.8 2.7 7 3.7v-7a.4.4 0 1 1 .9 0V78c9 4 15.8 3.9 20.7 1.8-.8-4.2-1.2-8.9-1.2-14.1ZM135 55.2V67H128.5a67.6 67.6 0 0 1-.2 6l.1-.1c4.5 4.3 9.1 5.7 12.7 5a8 8 0 0 0 6.7-7.3c.5-4-1.7-7.5-4.6-10.3-2.7-2.5-6-4.3-8.3-5.2Z"/></mask><path fill-rule="evenodd" clip-rule="evenodd" d="M45 65.6C45 39 62.9 12.9 85.8 12.9c16.2 0 26.8 8.7 33.4 20.2 3-1 5.8-2.8 8.2-5.7a.4.4 0 0 1 .7.5c-2.5 3-5.4 4.9-8.4 6a65 65 0 0 1 4.9 11.2h10.4v9.1c2.3 1 6 2.9 8.9 5.6 3 2.8 5.4 6.5 4.9 11a8.8 8.8 0 0 1-7.4 8c-3.8.8-8.6-.7-13-4.8-1.8 20.3-11.8 30.7-23.4 35.4h-.1l2 10.7-4 4c.3 0 .5.2.5.4v20.7l8.2 2a.4.4 0 1 1-.2.8l-8.5-2a.4.4 0 0 1-.4-.4v-21L100 127l-6.4-7L95 112h-.2a55 55 0 0 1-22.6-1.6l1 34.8 8.2 2a.4.4 0 0 1-.2.8l-8.5-2a.4.4 0 0 1-.3-.4l-1-35.5c-11.3-3.6-21.4-12-25-29.5-5.2 2.1-12.2 2.1-21.4-2-2.5-1-5-2.4-7.8-4.1a.4.4 0 0 1 .5-.7c2.4 1.5 4.8 2.7 7 3.7v-7a.4.4 0 1 1 .9 0V78c9 4 15.8 3.9 20.7 1.8-.8-4.2-1.2-8.9-1.2-14.1ZM135 55.2V67H128.5a67.6 67.6 0 0 1-.2 6l.1-.1c4.5 4.3 9.1 5.7 12.7 5a8 8 0 0 0 6.7-7.3c.5-4-1.7-7.5-4.6-10.3-2.7-2.5-6-4.3-8.3-5.2Z" fill="#fff"/><path d="m119.1 33-6.9 4a8 8 0 0 0 9.4 3.7l-2.5-7.6Zm8.2-5.6-6.1-5.1 6.1 5Zm.6-.1 5.1-6.2-5 6.2Zm.1.6 6.2 5-6.2-5Zm-8.4 6-2.6-7.7a8 8 0 0 0-4.4 11.5l7-3.9Zm4.9 11.2-7.6 2.5a8 8 0 0 0 7.6 5.5v-8Zm10.4 0h8a8 8 0 0 0-8-8v8Zm0 9.1h-8a8 8 0 0 0 5 7.5l3-7.5Zm8.9 5.6 5.4-5.9-5.4 6Zm4.9 11-8-.9 8 1Zm-7.4 8 1.4 8-1.4-8Zm-13-4.8 5.4-5.9a8 8 0 0 0-13.4 5.2l8 .7Zm-23.4 35.4 2 7.7 1-.3-3-7.4Zm-.1 0-2-7.7a8 8 0 0 0-5.9 9.2l7.9-1.5Zm2 10.7 5.7 5.6a8 8 0 0 0 2.2-7.1l-7.9 1.5Zm-4 4-5.6-5.6a8 8 0 0 0 5.4 13.6l.3-8Zm.5 21.1h-8a8 8 0 0 0 6.2 7.8l1.8-7.8Zm8.2 2 1.8-7.9-1.8 7.8Zm.3.4-7.8-1.8 7.8 1.8Zm-.5.4 1.8-7.8-1.8 7.8Zm-8.5-2 1.8-7.8-1.8 7.8Zm-.4-21.5h8a8 8 0 0 0-13.7-5.6l5.7 5.6Zm-2.5 2.6-6 5.4a8 8 0 0 0 11.7.2l-5.7-5.6Zm-6.4-7-7.8-1.4a8 8 0 0 0 1.9 6.8l6-5.4ZM95 112l7.8 1.3a8 8 0 0 0-9.9-9l2 7.7Zm-.2 0 1 8 1-.3-2-7.7Zm-22.6-1.6 2.3-7.7a8 8 0 0 0-10.3 8l8-.3Zm1 34.8-8 .3a8 8 0 0 0 6.2 7.5l1.8-7.8Zm8.2 2 1.8-7.9-1.8 7.8Zm.3.4 7.8 1.9-7.8-1.9Zm-.5.4 1.8-7.8-1.8 7.8Zm-8.5-2-1.8 7.8 1.8-7.8Zm-.3-.4 8-.3-8 .3Zm-1-35.5 8-.2a8 8 0 0 0-5.6-7.4l-2.5 7.6Zm-25-29.5 8-1.6a8 8 0 0 0-11-5.8l3 7.4Zm-21.4-2 3.2-7.3-3.2 7.3Zm-7.8-4.1 4.2-6.8-4.2 6.8Zm-.1-.6-6.9-4.2 6.9 4.2Zm.6-.1 4.1-6.9-4.1 6.9Zm7 3.7-3.3 7.3a8 8 0 0 0 11.3-7.3h-8Zm.9.4h-8a8 8 0 0 0 4.8 7.4l3.2-7.4Zm20.7 1.8 3.1 7.4a8 8 0 0 0 4.8-8.9l-7.9 1.5Zm88.6-12.6v8a8 8 0 0 0 8-8h-8Zm0-12 3-7.3a8 8 0 0 0-11 7.4h8Zm-6.3 12-3 7.4c1 .4 2 .6 3 .6v-8Zm-.1 0 2.9-7.5a8 8 0 0 0-11 7.8l8-.4Zm0 1.5 8 .1v-.3l-8 .2Zm-.2 4.5-8-.6a8 8 0 0 0 13.8 6.1l-5.8-5.5Zm.1-.1 5.6-5.8a8 8 0 0 0-11.3.2l5.7 5.6Zm12.7 5 1.5 7.9L141 78Zm6.7-7.3-8-.9 8 1Zm-4.6-10.3-5.4 6 5.4-6ZM85.7 5c-14.7 0-27 8.3-35.3 19.6a70.1 70.1 0 0 0-13.3 41h16C53 54 57 42.6 63.2 34c6.3-8.5 14.3-13.1 22.5-13.1v-16ZM126.1 29A45.2 45.2 0 0 0 85.7 4.9v16c12.7 0 21 6.6 26.5 16.2l13.9-8Zm-5-6.8a9.5 9.5 0 0 1-4.5 3.2l5 15.2c4.5-1.5 8.5-4.2 11.9-8.3l-12.3-10.1Zm12-1.2c-3.7-3-9-2.4-12 1.2l12.4 10.1a7.6 7.6 0 0 1-10.7 1L133 21.2Zm1 11.9c3-3.6 2.5-9-1-11.9l-10.3 12.4a7.6 7.6 0 0 1-1-10.7L134.2 33Zm-12 8.4c4.5-1.5 8.6-4.2 12-8.4l-12.3-10.2a10.4 10.4 0 0 1-4.8 3.4l5.1 15.2Zm10 1.2a73 73 0 0 0-5.5-12.7l-14 7.8a57 57 0 0 1 4.3 10l15.2-5Zm2.8-5.5h-10.4v16h10.4v-16Zm8 17.1v-9h-16v9h16Zm6.3-.3c-3.8-3.5-8.4-6-11.4-7.1L132 61.7c1.7.6 4.4 2 6.5 4l10.8-11.8Zm7.4 17.8a21 21 0 0 0-7.4-17.8l-10.8 11.8c2.1 2 2.4 3.4 2.3 4.2l16 1.8Zm-13.9 15c7.5-1.3 13-7.1 14-15l-16-1.8c0 .6-.2.8-.3.9l-.5.2 2.8 15.7Zm-19.9-6.9c5.8 5.4 13 8.2 19.9 7L139.9 71c-.7.1-3 0-6.2-2.9l-10.9 11.7Zm-15 37c14.6-5.8 26.4-19 28.4-42.1l-16-1.4c-1.4 17.4-9.6 25.2-18.3 28.6l6 15Zm-1 .3h.1l-4-15.5h-.1l4 15.5ZM97 111l2 10.7 15.8-3-2-10.7-15.8 3Zm4.2 3.6-4 4 11.5 11.2 4-4-11.5-11.2Zm10.2 10c0-4.5-3.6-8.2-8.1-8.4l-.6 16c-4-.2-7.3-3.5-7.3-7.6h16Zm0 20.7v-20.7h-16v20.7h16Zm2-5.9-8.2-1.9-3.6 15.6 8.1 2 3.7-15.7Zm6.3 10.2c1-4.6-1.8-9.1-6.3-10.2l-3.7 15.6c-4-1-6.6-5-5.6-9l15.6 3.6Zm-10.2 6.3c4.6 1 9.1-1.8 10.2-6.3l-15.6-3.7c1-4 5-6.6 9-5.6l-3.6 15.6Zm-8.5-2 8.5 2 3.7-15.6-8.5-2-3.7 15.6Zm-6.5-8.2c0 3.9 2.7 7.3 6.5 8.2l3.7-15.6c3.4.8 5.8 3.8 5.8 7.4h-16Zm0-21v21h16v-21h-16Zm2.3-5.7-2.5 2.6 11.4 11.2 2.5-2.5-11.4-11.3Zm9.1 2.9-6.3-7-11.9 10.7 6.4 7 11.8-10.7Zm-4.4-.3 1.4-8.2-15.7-2.7-1.4 8.1 15.7 2.8Zm-4.6-1.8h.2l-4-15.5h-.2l4 15.5Zm-9 .8c2.7 0 5.4-.2 8-.6l-2.1-15.8c-2 .3-4 .4-5.8.4v16Zm-18-2.5a63 63 0 0 0 18 2.5v-16c-4.5 0-9-.5-13.3-1.8L69.9 118Zm11.4 27-1-34.9-16 .5 1 34.9 16-.5Zm2-5.7-8.1-1.9-3.7 15.6 8.2 2 3.6-15.7Zm6.3 10.2c1-4.6-1.7-9.1-6.3-10.2L79.6 155c-4-1-6.6-5-5.7-9l15.6 3.6Zm-10.1 6.3c4.5 1 9-1.8 10.1-6.3L74 145.8c1-4 5-6.6 9.1-5.6l-3.6 15.6Zm-8.5-2 8.5 2 3.6-15.6-8.5-2-3.6 15.6Zm-6.5-8c.1 3.8 2.8 7 6.5 8l3.6-15.6c3.4.8 5.8 3.7 5.9 7.1l-16 .5Zm-1-35.5 1 35.5 16-.5-1-35.4-16 .4ZM38.5 82.2A43.9 43.9 0 0 0 69 117.7l4.9-15.2c-8.7-2.8-16.5-9-19.5-23.5l-15.7 3.2Zm-16.9 3.7c10.6 4.7 20 5.3 27.8 2l-6-14.7c-2.7 1-7.4 1.6-15.3-1.9l-6.5 14.6ZM13 81.3c3 1.9 6 3.4 8.7 4.6l6.5-14.6c-2-1-4.3-2.1-6.8-3.6L13 81.3Zm-2.8-11.6A8.4 8.4 0 0 0 13 81.3l8.4-13.6A7.6 7.6 0 0 1 23.9 78l-13.7-8.4ZM21.8 67a8.4 8.4 0 0 0-11.6 2.8L24 78.1a7.6 7.6 0 0 1-10.4 2.5l8.3-13.7Zm6.2 3.4c-1.9-.9-4-2-6.2-3.4l-8.3 13.7c2.7 1.7 5.3 3 7.9 4.2L28 70.3Zm-11.3.3v7h16v-7h-16Zm8.4-8.5a8.4 8.4 0 0 0-8.4 8.5h16c0 4.1-3.4 7.5-7.6 7.5v-16Zm8.5 8.5c0-4.7-3.8-8.5-8.5-8.5v16a7.6 7.6 0 0 1-7.5-7.5h16Zm0 7.3v-7.3h-16v7.3h16Zm9.6-5.6c-2.4 1-6.8 1.6-14.4-1.7l-6.4 14.7c10.4 4.5 19.5 5 27 1.8l-6.2-14.8ZM37 65.6c0 5.6.4 10.8 1.3 15.6l15.8-3c-.7-3.6-1.1-7.8-1.1-12.6H37ZM142.9 67v-12h-16v12h16Zm-14.3 8h6.3v-16h-6.3v16Zm-3-.6 6-14.8-.2-.1-5.9 14.9Zm10.9-6v-1.8l-16 .7v1.4l16-.4Zm-.2 5.1.2-4.9-16-.2c0 1.4 0 2.7-.2 4l16 1.1Zm-13.6-6.2-.1.1L134 78.6l-11.4-11.2Zm17 2.7c-.4.1-2.6.2-5.7-2.9l-11.1 11.5c5.7 5.6 12.9 8.4 19.7 7.2l-2.9-15.8Zm.2-.3-.1.4V70c.1 0 0 0 0 0l2.8 15.8a16 16 0 0 0 13.2-14.3l-16-1.8Zm-2.1-3.5c1 1 1.5 1.7 1.8 2.3.3.5.3.9.3 1.2l15.9 1.8c.9-7.7-3.4-13.5-7.2-17l-10.8 11.7Zm-6-3.8c1.7.7 4.1 2.1 6 3.8l10.8-11.7a37.7 37.7 0 0 0-10.7-6.8l-6.1 14.7Z" fill="#fff" mask="url(#b)"/><path d="M89.1 60.4c0 .5-.2 2.2.1 2.4.5.5 1 1.2 1.3 1.8l.7.8c.3.6.2-.6.2-.8 0-1.8-.4-3.6-.5-5.3 0-.6.2.3.2.5.3.7 1 1.4 1.4 2 .1.3 1.8 2.7 2 2.3.5-1 .3-2.5.3-3.6 0-.6 0-.6.4-.2.4.5.9 1.2 1.4 1.6.1 0 .7.8 1 .6l.2-1.8c0-.1.1-1.5.2-1.4.4.4.6 1.3.8 1.8l.7 1.3c.4.6.4-.4.4-.5l.4-2c.1-.4.2-1 .3-.1.1.3 1.4 4 1.8 3.8.3-.3.8-3 1-3 .3.4.3 1.5.4 2 0 .1.3 1.4.3.7 0-.4 0-1.8.5-1.8M106 51.2c0 .5.4 1 .7 1.4.3.5 0 .7.2.2.2-.4.1-3.5 1-2.3l1.6 2c.5.5.6.5.6-.1v-1.2l.8 1M85 51.4c-.4 0 .2 1.8.4 2.1.2.2.1-.5.2-.7.1-.4.2-.8.5-1.2 0-.1.3-.7.5-.3.3.4 2 2.8 2.5 2.6.2-.2.3-1 .3-1.2.1-.3 0-1 .4-1" stroke="#171717" stroke-width="2.5" stroke-linecap="round"/><path d="M129.8 64.3c0 .4.5 1 .8 1.3.3.4.5.9 0 .2-.3-.5-1.3-1.1-1.3-1.7 0-.7 2.9.7 3 .7.3.2 2.2 1.5 2.2 1.3 0-.5-.7-1-1-1.4l-1.9-2.3-1.9-2.2c-.2-.2-1-.7-.7-.7.4 0 1 .9 1.2 1 .7.7 1.4 1.2 2.2 1.7.9.6 1.7 1.2 2.7 1.7a25.2 25.2 0 0 0-2-3.2l-2.2-2.5-.8-1.1c-.4-.5.2 0 .4.2l1.9 1.4c.3.3 1.9 1.2 1.7 1l-4.2-4.4-1.4-1.4c-.2-.1-.7-.5-.5-.5.4 0 1 .6 1.3.8l3.5 2.2c.2 0 2.5 1.4 2 .7-.8-1.4-2.2-2.3-3.3-3.5-1.1-1.3-2.6-2.4-3.8-3.7-.5-.4-.9-.9-1.2-1.4-.2-.3 0-.3.2-.1 1 .5 2 1.3 2.9 2 1 .8 2.5 1.6 3.4 2.7.2.1.4.2.2 0l-1.7-2.3-3.6-3.8-.6-.8 1.2.4c1.9.9 3.3 2.5 5.2 3.4.6.4 1 .8.5 0l-2-3c-.8-1 .7.2 1 .4 1 .7 2.1 1.6 3.2 2.1M94.2 118.7c.6.8.8 2.2 1.3 3 .3.6.4 1.1.8 1.5.6.6.2-2.4.2-2.7-.4-1.5-.7-3.2-.7-4.8 0-.3.1.2.3.4.5.6.7 1.3 1 2 1 1.7 1.7 3.8 2.7 5.7.5.8 1 1.2.5 0-1-2.4-2-4.6-2.7-7-.4-1.4-.8-3.4-1.8-4.5-.3-.3-.1-.3.1 0 1 1 2 2.4 2.8 3.7 1.7 2.4 3.7 4.6 5.1 7.3.9 1.4.4-.5.1-1.2-1-2-1.6-4.2-2.6-6.2-1-1.7-1.7-3.5-2.4-5.3-.3-.8-.6-2.5-1.4-3-1-.6 1.4 1.9 2.1 2.8 1.8 2.3 3.3 4.8 4.8 7.2.6 1 1.2 2 2 3 .3.3.3.4 0-.2-.6-2-1.7-4-2.5-6-1-2.3-1.8-5.3-3.3-7.4-.6-.7-1.6-1.2-2-2-.3-.5-1.4-2-.9-1.7.5.3.9 1 1.2 1.3l2.3 2.3 2.3 2.5c1.3 1.2-.2-2-.4-2.3-.6-1.4-1.4-2.6-1.9-4l-1-2.9c-.3-.6-1-2.7-1-2 0 1 1 2 1.5 2.6.5.8 1.2 1.8 2 2.5 0 0 .6.8.7.6.4-.7-.4-2.3-.6-3-.8-2.3-1.3-4.8-2.1-7.1-.3-.8-.6-.6 0 0 .3.5.8 1.4 1.3 1.7.4.2-.1-.6-.2-.8-.6-1-1.4-2.1-2-3.3a6 6 0 0 1-.6-2.2c0-.2.2 0 .3-.4M95.6 78.4c1.1 0 1.5 1 2.4 1.3.3.1.7.5 1 .8.6.6.7.6.7-.4l-.2-3.8c0-.7.3 0 .4.4l.6 1.6s.6 1.4 1 1c.2-.2.2-1 .5-1.3" stroke="#FFD424" stroke-width="2.5" stroke-linecap="round"/><path d="M97.8 93.9a79 79 0 0 1-1.8 6.3c-.3 1.1-.9 2.2-1 3.4l-1 5c-.1.4 0 1-.2 1.3l-.3 1M99 84c0 2.7-4.2 14.4-5.4 16.8-.8 1.6 0 3.3-.8 4.9-.7 1.4-1.5 2.4-1.9 4-.2.7-.4 1.6-.9 2.3" stroke="#C6C6C8" stroke-width="2.5" stroke-linecap="round"/><path d="M134.6 54.6c4.6 1.8 14.7 7.6 13.7 16.2-1 8.4-11.1 11.3-20.2 2.5" stroke="#171717" stroke-width="1.5" stroke-linejoin="round"/><path d="M67 41c3-8.6 10.3-12.9 20.1-11.3 13.2 2.3 30 10.7 40.6-2" stroke="#171717" stroke-width="1.5" stroke-linecap="round"/><path d="M94.8 112c-2.3.3-4.7.5-7 .5-19.3 0-42.7-8-42.7-47C45 39 62.8 13 85.7 13c32.2 0 42.3 34.6 42.8 55.8-.3 23.8-11 35.7-23.6 40.7" stroke="#171717" stroke-width="1.5" stroke-linecap="round" stroke-linejoin="round"/><path d="m71.7 111.1 1.1 34.5 8.5 2M102.9 124.5v21l8.5 2" stroke="#171717" stroke-width="1.5" stroke-linecap="round" stroke-linejoin="round"/><path d="M124.2 45.2h10.7v22h-6.3" stroke="#171717" stroke-width="1.5" stroke-linejoin="round"/><path d="M58.7 62.5c-1.5 10.2-10.3 26-33.6 15.7m-7.7-4a67 67 0 0 0 7.7 4m0 0v-7.6M100 83.6l6-6.2H93.6l6.4 6.2Zm0 0-6.5 36.5 6.4 7 7-7-7-36.5ZM91.4 41.8c1.1.3 3.5 1.8 3.5 5.1m-18 3.2h16.7m4.5 0h16.7" stroke="#171717" stroke-width="1.5" stroke-linecap="round" stroke-linejoin="round"/><path d="M87 54.8c2.3 0 4.1-2 4.1-4.4H83c0 2.4 1.9 4.4 4.1 4.4ZM108.6 54.8c2.3 0 4.1-2 4.1-4.4h-8.2c0 2.4 1.8 4.4 4.1 4.4ZM97.1 68a9 9 0 0 0 9-7.2c0-.9-.7-1.6-1.6-1.6H89.7c-1 0-1.7.7-1.5 1.6a9 9 0 0 0 9 7.3Z" stroke="#171717" stroke-width="1.5"/><path d="M93.4 77.7c1 .5 1.4 1.4 2.1 2.1l1.5 1.4c.6.6 1.7 1 2 2 .2.2.4.4.6.2.6-.6 1.3-.9 1.8-1.6L104 79c.2-.2 1-.9.7-1.1-.2-.2-1.1 0-1.4 0l-2.7.3h-6.5M99.4 83.5v6c0 2.4 0 4.7-.5 7-.8 3.5-1.1 7-2.2 10.3-.4 1.4-.6 2.7-.7 4a11 11 0 0 1-.9 3.5c-.4 1-.3 2.4-.6 3.4M93.5 120c.8.5 2.4 1.9 3 2.7.5.7.7 1.7 1.3 2.3l.9 1c.2.6.6 1 1 1.3.4.3 1-1.1 1.2-1.3l1.4-1.4 1-1.2c.8-1 1.8-1.4 2.4-2.3.8-1 .3-2.6 0-3.7l-.1-2.1V114l-.4-1.6c-.4-1.8-.8-3.6-.9-5.4l-.2-2.6c0-.8.2-2-.3-2.7" stroke="#171717" stroke-linecap="round"/><path d="M103.8 102c0-1.3 0-2.5-.2-3.6a50 50 0 0 0-1.3-5l-.4-1.5c-.1-.4 0-.8-.2-1.2L101 88l-.5-1.3-.5-2c-.2-.2-.6-1-1-1.2M45.5 65.2v4c0 2.6.4 5 .5 7.5 0 2 .7 4.3 1.2 6.3.4 2 1.7 3.8 2.2 5.8a21 21 0 0 0 4.7 9.4c1.3 1.3 2.6 2.9 3.8 4.4 1 1.3 2.3 1.8 3.7 2.6 1.7 1 3 2.3 5 2.9 1.6.6 3 1.5 4.6 2.2a21 21 0 0 0 8.8 2.3c2.9 0 6 .4 8.8-.4 2.4-.7 4-.6 6.4-.6M104.7 109.4s2.8 0 4.7-1.5c1-.8 1.9-1.7 2.7-2.6.6-.5 1.1-1.6 1.8-1.9 2.2-1 4-2.9 5.4-4.7 1.4-1.8 2.1-4.1 3.5-6 .6-.7.8-1.9 1.3-2.6.5-1 .8-2.2 1-3.3.5-1.2 1.5-2.6 1.5-4 0-1 .8-2 1-3.2.1-2 1-3.5 1-5.5l.1-7.5M128.7 66.6c0-3.4 0-6.6-.4-9.9-.4-2.5-2.5-4.6-2.7-7.2-.1-2.8-2-5.6-2.6-8.3l-1.1-5.3c-.4-1.8-1.2-2-2.5-3M127 27.9c-1.4.1-2.7 2-4 2.6-1 .3-1.6.8-2.4 1.2-.6.2-1.3.3-1.8.6a14 14 0 0 1-8 2.3c-3.4 0-6.6 0-10-.8-3.1-1-6.7-1.6-9.7-3a28 28 0 0 0-12.9-1.3c-2.6.2-5 3.4-6.8 5l-2 2.3c-.4.4-.4 1.1-1 1.4-.6.4-1.7 1.7-2 2.4" stroke="#171717" stroke-linecap="round"/><path d="M120.6 35c0-3-3.5-4.4-4.8-6.8-1.5-2.4-4.1-4.2-5.6-6.7-1.2-2-4.5-3.4-6.6-4.2-3-1.1-6.3-3.2-9.5-3.6-1-.2-2.4-.8-3.4-.8H81c-1 0-1.6.9-2.4 1.2-2.3.9-4.8 1.5-7 2.5-1 .5-2 .8-3 1.6-1 1.1-2.3 1.7-3.5 2.7" stroke="#171717" stroke-linecap="round"/><path d="M68.1 18.7c-2 .2-3.5 2.7-5.3 3.6-1.4.8-2.2 2-3.4 3-.6.6-.8 1.4-1.3 2l-1.7 2-3 4.3c-.8 1-1.9 2.4-2.3 3.6-.4 1-1 1.8-1.4 2.7-.5 1-.5 2.5-.6 3.6-.3 2.7-.8 5.5-1.8 8-.7 2-1.6 4.5-1.6 6.4 0 1.8-.3 4-.7 5.7-.5 2 .7 7.4.7 9.5" stroke="#171717" stroke-linecap="round"/><path d="M58.3 62.4c0 1 0 2-.2 3-.4 1.4-1.1 3-1.7 4.3l-1 1.8-.8 1.5-1 1.9-1 1.3c-1.3 1.5-2.9 2.3-4.6 3.2-1.7.9-3.7 1.3-5.6 1.7l-2.5.5c-.8 0-1.7 0-2.6.2a7 7 0 0 1-2.3-.2c-1-.2-1.9-.7-2.8-1.1a8.2 8.2 0 0 0-3.5-.6c-.6 0-1-.4-1.7-.6-.1 0-.7-.3-.8 0M17.4 74.3l1.3.8 2.3 1.4 2.3 1.3 1.8.7 1 .5c.2 0-.1-.2-.2-.3-.3-.4-.4-.8-.5-1.2-.2-.7-.2-1.4-.2-2 0-1 0-2 .2-3l.2-2M135 55c1.6 0 3.3 1 4.6 2 1 .7 1.9 1.8 3 2.7 1 1 1.8 2.4 2.7 3.5.8 1 1.6 2 2.2 3.1.4 1 .7 1.6.9 2.6.2.8-.1 1.7-.4 2.5-.5 1-.7 2.2-1.1 3.3-.1.3-.4.4-.7.4M146.1 75c0 .3-.6.5-.7.6l-1.2.9-1.8 1.2a6.5 6.5 0 0 1-6 .4c-.8-.3-1.8-.7-2.5-1.2l-2.6-1.7c-.8-.5-1.6-1.4-2.7-1.4" stroke="#171717" stroke-linecap="round"/><path d="M128.7 66.7c1.6 0 3.2.4 4.8.4.3 0 1.9.2 1.9-.2l-.1-4.3c-.2-.6 0-1.3-.1-2l-.2-2.4-.5-3.7V52l.1-1c.2-.4.1-.8.2-1.2.2-.7 0-1.5 0-2.2" stroke="#171717" stroke-linecap="round"/><path d="M134.8 47.7c0-.3.2-2 0-2.1-.7-.4-1.6-.3-2.3-.4h-2.2c-1.8 0-4.2-.5-5.7.3M80.3 147.7l-2.4-.1c-1-.3-1.9-.8-2.8-1l-1.3-.4c-.3 0-.4-.3-.7-.3-.8-.4-.8-1.5-.8-2.3a59 59 0 0 1-.1-4l.2-6.4c0-1.4.2-3 0-4.4-.4-1.5-.6-3-.6-4.6 0-1.5 0-3.2-.4-4.7" stroke="#171717" stroke-linecap="round"/><path d="M71.4 119.5v-5.3l-.1-1.7c0-.6-.2-1.3.2-1.7M103 124.4c0 1.6 0 3.1-.3 4.8-.2 2-.4 4.1-.4 6.2v8.9c0 .6.8 1 1.2 1.4.4.3 1.1.4 1.6.5l2.5.8 2.1.6h1.8M76.6 50.4h12l2.1.2H94M98 50h5.6l.5-.1 1.2-.2c1-.1 2.1 0 3.2 0l3.7.2h2.6M91.1 42.2c.8 0 1.7.1 2.1.9l.7 1.3.3.7.5.8.2.4c0 .2-.1.2-.2.3M88.1 59.2c.5 0 .8-.2 1.2-.3l.8-.1c1.4-.3 2.7-.1 4 0h3.3c.8.2 1.6.3 2.5.3l1-.1 1.3-.2h1.7c.4 0 .9 0 1.3.2.3 0 .7 0 1 .2M106.2 59.2c.5.2.4.8.5 1.2v1c0 .4-.3.6-.4.9l-.8 1.6-.6.7-.8.8c-.5.7-1.2 1-1.8 1.5l-1 .7-1.2.4c-.2 0-.6.1-.8.3-.2.2-.7.2-1 .2l-1.1.1-.9.1" stroke="#171717" stroke-linecap="round"/><path d="m96.4 68.7-2.2-.1c-.3 0-.9-.2-1.1-.4l-.7-.5-.7-.7-.8-.6c-.2-.1-.2-.3-.3-.4l-.4-.6-.8-.8-.3-.7-.2-.4-.5-.9-.3-.5v-2.8" stroke="#171717" stroke-linecap="round"/></g><defs><filter id="a" x="1" y=".9" width="163.8" height="167.1" filterUnits="userSpaceOnUse" color-interpolation-filters="sRGB"><feFlood flood-opacity="0" result="BackgroundImageFix"/><feColorMatrix in="SourceAlpha" values="0 0 0 0 0 0 0 0 0 0 0 0 0 0 0 0 0 0 127 0" result="hardAlpha"/><feOffset dy="2"/><feGaussianBlur stdDeviation="1"/><feComposite in2="hardAlpha" operator="out"/><feColorMatrix values="0 0 0 0 0 0 0 0 0 0 0 0 0 0 0 0 0 0 0.02 0"/><feBlend in2="BackgroundImageFix" result="effect1_dropShadow_716_1963"/><feColorMatrix in="SourceAlpha" values="0 0 0 0 0 0 0 0 0 0 0 0 0 0 0 0 0 0 127 0" result="hardAlpha"/><feOffset dy="4"/><feGaussianBlur stdDeviation="4"/><feComposite in2="hardAlpha" operator="out"/><feColorMatrix values="0 0 0 0 0 0 0 0 0 0 0 0 0 0 0 0 0 0 0.06 0"/><feBlend in2="effect1_dropShadow_716_1963" result="effect2_dropShadow_716_1963"/><feBlend in="SourceGraphic" in2="effect2_dropShadow_716_1963" result="shape"/></filter></defs></svg>