<svg width="125" height="168" fill="none" xmlns="http://www.w3.org/2000/svg"><g filter="url(#a)"><mask id="b" maskUnits="userSpaceOnUse" x="8.5" y="4" width="109" height="152" fill="#000"><path fill="#fff" d="M8.5 4h109v152H8.5z"/><path fill-rule="evenodd" clip-rule="evenodd" d="M58 12c-23 0-40.9 26.3-40.9 53v5.5l-.6 45.5a2.8 2.8 0 0 0 4.3 2.4c.3.5.8.8 1.4 1 .6.3 1.3.3 2 .3.8 0 1.5-.2 2.1-.5a3 3 0 0 0 1.5-1.4c3.4 0 5.7-2.3 7.1-5.7a25 25 0 0 0 1.6-5.2c2.3 1.3 4.7 2.3 7.1 3.1-.2 0-.3.2-.3.4l1.1 34.7c0 .2.2.4.4.4l8.5 2a.4.4 0 0 0 .2-.8l-8.2-2-1.2-34.3v-.3a55.1 55.1 0 0 0 29.5.5l1.1 34.5c0 .2.2.4.3.4l8.6 2a.4.4 0 0 0 .2-.8l-8.2-2-1.2-34.3c2.5-.9 5-2 7.4-3.2l-.2.4v7.5c0 1.8 1.4 3.3 3.2 3.4l2.3.2c.3 0 .6-.1.8-.3.8.4 1.6.6 2.4.7 1 .1 2 0 2.8-.6l.4-.4c1 .4 2.4.4 3.7-.5 1.5-1 2.8-3 3.9-6.4 2-6.8 3-19.7.5-42.7 0-.2-.2-.3-.4-.3A75.7 75.7 0 0 0 89.6 29c7 .7 13.9-.6 19.2-7a.4.4 0 0 0-.7-.5c-5.2 6.3-11.9 7.3-19 6.6H89A36.5 36.5 0 0 0 58 12ZM21.7 118v-.3l-.2.1.2.2Zm66.8-.5v.2-.2Z"/></mask><path fill-rule="evenodd" clip-rule="evenodd" d="M58 12c-23 0-40.9 26.3-40.9 53v5.5l-.6 45.5a2.8 2.8 0 0 0 4.3 2.4c.3.5.8.8 1.4 1 .6.3 1.3.3 2 .3.8 0 1.5-.2 2.1-.5a3 3 0 0 0 1.5-1.4c3.4 0 5.7-2.3 7.1-5.7a25 25 0 0 0 1.6-5.2c2.3 1.3 4.7 2.3 7.1 3.1-.2 0-.3.2-.3.4l1.1 34.7c0 .2.2.4.4.4l8.5 2a.4.4 0 0 0 .2-.8l-8.2-2-1.2-34.3v-.3a55.1 55.1 0 0 0 29.5.5l1.1 34.5c0 .2.2.4.3.4l8.6 2a.4.4 0 0 0 .2-.8l-8.2-2-1.2-34.3c2.5-.9 5-2 7.4-3.2l-.2.4v7.5c0 1.8 1.4 3.3 3.2 3.4l2.3.2c.3 0 .6-.1.8-.3.8.4 1.6.6 2.4.7 1 .1 2 0 2.8-.6l.4-.4c1 .4 2.4.4 3.7-.5 1.5-1 2.8-3 3.9-6.4 2-6.8 3-19.7.5-42.7 0-.2-.2-.3-.4-.3A75.7 75.7 0 0 0 89.6 29c7 .7 13.9-.6 19.2-7a.4.4 0 0 0-.7-.5c-5.2 6.3-11.9 7.3-19 6.6H89A36.5 36.5 0 0 0 58 12ZM21.7 118v-.3l-.2.1.2.2Zm66.8-.5v.2-.2Z" fill="#fff"/><path d="m17.1 70.5 8 .1h-8Zm-.6 45.5h-8 8Zm4.3 2.4 6.7-4.4a8 8 0 0 0-11.1-2.3l4.4 6.7Zm1.4 1-2.8 7.6 2.8-7.6Zm2 .3-.5-8 .6 8Zm2.1-.5 3.5 7.1-3.5-7.1Zm1.4-1.4-7.1-3.5 7.1 3.5Zm.1 0-.1-8a8 8 0 0 0-7 4.4l7.1 3.6Zm7.1-5.7-7.3-3.1 7.3 3.1Zm1.6-5.2 3.9-7a8 8 0 0 0-11.8 5.5l7.9 1.5Zm7.1 3.1 1.5 7.9a8 8 0 0 0 1-15.5l-2.5 7.6Zm-.3.4-8 .3 8-.3Zm1.1 34.7 8-.2-8 .2Zm.4.4 1.8-7.7-1.8 7.7Zm8.5 2 1.8-7.7-1.8 7.7Zm.5-.3 7.8 1.8-7.8-1.8Zm-.3-.5 1.8-7.8-1.8 7.8Zm-8.2-2-8 .3a8 8 0 0 0 6.2 7.6l1.8-7.8ZM44 110.5l8-.2-8 .2Zm0-.3 2.3-7.6a8 8 0 0 0-8.1 13.2l5.7-5.6Zm29.5.5 8-.3a8 8 0 0 0-10.3-7.4l2.3 7.7Zm1.1 34.5 8-.2-8 .2Zm.3.4 1.9-7.7-1.9 7.7Zm8.6 2 1.8-7.7-1.8 7.7Zm.5-.3-7.8-1.8 7.8 1.8Zm-.3-.5 1.8-7.8-1.8 7.8Zm-8.2-2-8 .3a8 8 0 0 0 6.1 7.6l1.9-7.8Zm-1.2-34.3 8-.2-8 .2Zm0 0-2.4-7.7a8 8 0 0 0-5.3 9.9l7.7-2.3Zm7.4-3.2 7.1 3.6a8 8 0 0 0-11-10.6l3.9 7Zm-.2.4-7.2-3.6a8 8 0 0 0-.8 3.6h8Zm3.2 11 .4-8-.4 8Zm2.3 0 .5-8-.5 8Zm.8-.2 3.5-7.2a8 8 0 0 0-8.5 1l5 6.2Zm2.4.7-.7 8 .7-8Zm2.8-.6 4.7 6.4-4.7-6.4Zm.4-.4 3-7.4a8 8 0 0 0-8.8 1.8l5.8 5.6Zm3.7-.5 4.5 6.7-4.5-6.7Zm3.9-6.4 7.6 2.4-7.6-2.4Zm.5-42.7 8-.8-8 .8Zm-.4-.3-8 .1a8 8 0 0 0 8 7.9v-8ZM89.6 29l.8-8A8 8 0 0 0 83 33.5l6.6-4.5Zm19.2-7-6.2-5 6.2 5Zm-.1-.5-5 6.1 5-6.1Zm-.6 0-6.2-5 6.2 5Zm-19 6.6-1 8 1-8Zm-.1 0-6.5 4.6A8 8 0 0 0 88 36l.9-8Zm-67.4 90-6.3 5a8 8 0 0 0 14-7l-7.7 2Zm0-.4 7.8-1.4A8 8 0 0 0 15 113l6.4 4.7Zm-.2.1-6.2-5a8 8 0 0 0-.8 8.7l7-3.7Zm67-.1-3.4 7.2a8 8 0 0 0 11.3-7.7l-8 .5Zm8-.2a8 8 0 1 0-16 0h16Zm-8 .2-8-1a8 8 0 0 0 4.6 8.2l3.3-7.2ZM25 65c0-11.7 4-23.3 10.3-31.8C41.7 24.7 49.8 20 58 20V4a44.9 44.9 0 0 0-35.6 19.7A70.6 70.6 0 0 0 9.1 65.1h16Zm0 5.4v-5.4h-16v5.4h16Zm-.6 45.7.6-45.6-16-.2-.6 45.5 16 .3Zm-5.2-5.3c2.9 0 5.2 2.4 5.2 5.3l-16-.3c-.1 6 4.7 11 10.8 11v-16Zm-2.9.8c.8-.5 1.8-.8 2.9-.8v16c2.1 0 4.2-.7 5.9-1.8l-8.8-13.4Zm8.5.2c.6.2 1.7.8 2.6 2.1L14 122.8c1.6 2.3 3.7 3.5 5.3 4.2l5.5-15Zm-1.2-.2h.4c.2 0 .5 0 .8.2l-5.5 15c2 .8 3.9.9 5.4.8l-1.1-16Zm-.9.3a2.8 2.8 0 0 1 .9-.3l1.1 16c1.6-.1 3.4-.5 5-1.4l-7-14.3Zm-2.2 2.3a5 5 0 0 1 2.2-2.3l7 14.3a11 11 0 0 0 5.1-4.9l-14.3-7.1Zm0 0 14.3 7.1v-.1l-14.3-7Zm7-5.3-.5.9-.1.1a1.3 1.3 0 0 1 .6-.2l.3 16c7.8-.2 12.2-5.5 14.4-10.5L27.6 109Zm1-3.6c-.3 1.6-.7 2.7-1 3.6l14.7 6.3c1-2.2 1.6-4.6 2-6.9l-15.7-3Zm17.5-3c-2-.7-4-1.5-5.7-2.5l-7.9 14c2.9 1.6 5.8 2.8 8.7 3.7l4.9-15.2Zm5.2 7.8c0 3.8-2.6 7-6.2 7.7l-3-15.8c-4 .8-7 4.4-6.8 8.6l16-.5Zm1.1 34.7-1.1-34.7-16 .5 1.1 34.7 16-.5Zm-5.8-7.1c3.3.7 5.7 3.7 5.8 7l-16 .6c.2 3.8 2.8 7 6.5 8l3.7-15.6Zm8.5 2-8.5-2-3.7 15.5 8.6 2 3.6-15.5Zm-9 5.6c.9-4 5-6.6 9-5.6l-3.6 15.5c4.5 1 9-1.7 10.1-6.3L46 145.4Zm5.6 9c-4-.9-6.6-5-5.7-9l15.6 3.6c1-4.5-1.7-9-6.3-10l-3.6 15.5Zm-8.2-1.8 8.2 1.9 3.6-15.6-8.2-2-3.6 15.7Zm-7.4-42 1.2 34.4 16-.5-1.2-34.3-16 .5Zm2.2 5.1c-1.3-1.3-2.1-3-2.2-5l16-.5c0-2.2-1-4.2-2.4-5.7l-11.4 11.2Zm22-11.3c-4.8 0-9.6-.6-14-2l-4.6 15.4c6.2 2 12.7 2.6 18.5 2.6v-16Zm11-1.5c-3.6 1-7.4 1.5-11 1.5v16c5 0 10.2-.6 15.5-2.2L71.3 103Zm11.4 42-1.1-34.6-16 .5 1.1 34.6 16-.5Zm-5.8-7.1c3.3.7 5.7 3.7 5.8 7l-16 .6c.1 3.8 2.8 7 6.5 8l3.7-15.6Zm8.5 2-8.5-2-3.7 15.5 8.6 2 3.6-15.5Zm-9 5.6c.9-4 5-6.6 9-5.6l-3.6 15.5c4.5 1 9-1.7 10.1-6.3l-15.6-3.6Zm5.6 9c-4.1-.9-6.6-5-5.7-9L92 149c1-4.5-1.7-9-6.3-10L82 154.4Zm-8.3-1.8 8.3 1.9 3.6-15.6-8.2-2-3.7 15.7Zm-7.3-42 1.2 34.4 16-.5-1.2-34.3-16 .5Zm.3 2c-.1-.6-.3-1.3-.3-2l16-.4c0-.8-.1-1.5-.3-2.2l-15.4 4.6ZM78 100.2c-1.9 1-3.8 1.8-5.9 2.5l4.8 15.2c3-.9 6-2.1 8.9-3.8l-7.8-14Zm10.8 11 .2-.4-14.2-7.3-.3.5 14.3 7.2Zm.9 4v-7.6h-16v7.5h16Zm-4.4-4.7c2.5.2 4.4 2.2 4.4 4.6h-16c0 6 4.6 11 10.7 11.4l1-16Zm2.4.2-2.4-.2-1 16 2.4.1 1-16Zm-4.7 1.5c1.3-1 3-1.6 4.7-1.5l-1 16c2.4 0 4.6-.7 6.3-2l-10-12.5Zm8.2-1h.3l-7 14.4c1.4.7 3.1 1.3 5.2 1.5l1.5-16Zm-2.8.8c1.2-.9 2.4-.9 2.8-.8L89.6 127c2.2.2 5.4 0 8.2-2.2L88.3 112Zm-.6.5.6-.5 9.5 12.9 1.4-1.3-11.5-11Zm5-1.5a4.3 4.3 0 0 1 3.8-.3l-6.1 14.8c3.5 1.4 7.7 1.2 11.3-1.2l-9-13.3Zm.7-2c-.4 1.1-.7 1.8-1 2.2-.1.3 0 .1.3-.2l9 13.3c3.6-2.5 5.7-6.5 7-10.7l-15.3-4.7Zm.2-39.6c2.5 22.8 1.4 34.3-.2 39.5l15.3 4.7c2.6-8.5 3.4-22.7.9-46l-16 1.8Zm7.6 6.8a7.6 7.6 0 0 1-7.6-6.8l16-1.7a8.4 8.4 0 0 0-8.4-7.5v16ZM83 33.5c7 10.1 10 24.2 10.2 34.8l16-.3c-.3-12.6-3.7-30-13-43.5l-13.2 9ZM102.6 17c-3 3.5-6.6 4.5-12.2 4l-1.5 16c8.5.8 18.5-.7 26-9.8L102.6 17Zm1 10.6a7.6 7.6 0 0 1-1-10.6l12.3 10.2c3-3.6 2.5-9-1.1-12l-10.2 12.4Zm10.7-1a7.6 7.6 0 0 1-10.7 1l10.2-12.3c-3.6-3-9-2.5-11.9 1.1l12.4 10.2ZM88.2 36c8.5 1 18.5-.2 26-9.4L102 16.4c-2.7 3.4-6.2 4.3-12 3.7l-1.7 16Zm-.1 0L90 20.1h-.2L88.1 36ZM58 20c11.2 0 18.9 5.1 24.4 12.7l13-9.3C87.4 12.3 75.2 4 58 4v16Zm-28.8 96v.3l-15.6 2.9.1.9 15.5-4Zm-14.2-3 .1-.2 12.5 10 .3-.3-13-9.5Zm-.7 8.5c.2.6.6 1 1 1.5l12.4-10 .7 1.1-14.1 7.4Zm82-4.3v.3h-16v.7l16-1ZM85 124.9l6.7-14.5L85 125Zm-4.6-7.4v-.9l15.9 2.1v-1.2h-16Z" fill="#fff" mask="url(#b)"/><path d="M58.2 52.9c0 2.5.5 4.4 2 6.4.4.5.8 1.3 1.1 2 .5.9 1.2 1.8 2 2.6.4.4 1.3 1.8 1.8 1 .5-1 .3-2.5.3-3.5 0-2-.5-3.8-.6-5.8 0-.1-.3-1.9 0-1.3.7.9 1.7 1.5 2.4 2.3l1.4 1.7c.2.3.5.8.5.2v-2.2c0-.4-.4-1.6.1-.7.7 1.1 1.6 2.2 2.4 3.2l2 2.8c.4.6.9 1.5 1.7 1.7.5.1 1.2.8 1.4 0v-1l.4.7c.2.2.1-.4.1-.4v-7.1c0-.7 0-2-1-2-.5 0 .5-.3.7-.4.2-.2.6-.4.9-.2 1 .8 1.3 2 2 3" stroke="#FFD424" stroke-width="2.5" stroke-linecap="round"/><path d="M61 72.4c0 .6.7 3.4 1.2 2.2a8 8 0 0 0-.3-3.3l-.6-2.8L61 67a47.6 47.6 0 0 1 3.5 5.6l1 2.5c0 .3.5 1 .3.1L64 70.5c-.1-.2-.8-2.4-.5-2.1 1.7 1.6 2.8 4.1 4.3 6 .1.3.6.8.8.7.6-.2-.3-2.7-.4-3l-1-3.7-.6-1.6c-.6-.8 1 2 1.4 3l2.5 4.5c.3.6.9 1.8 1.5 1.7.4 0-1-8.7-1.4-9.8l-1.5-4.7c-.5-1.3.3.4.4.7.7 1.4 1 3 1.6 4.3.6 1.6 1 3.5 1.8 5 .2.3.6 2.4 1 2.4v-5" stroke="#FFD424" stroke-width="2.5" stroke-linecap="round"/><path d="M49 62.7c.3 0 .7.5 1 .7l1.2 1.1 1.6 1.6c.2.3-.2-.7-.2-.8L51 60.2c-.5-1.2-1-2.6-1.3-4 0-.5.2.2.3.4.6 1.2 1.3 2.2 2 3.3 1 1.7 2.1 3.4 3.3 5l.8 1.6.7.8c0-.4-.5-1.1-.6-1.4-.5-1.3-1-2.6-1.2-3.9-.5-2-1.4-4-1.8-6-.2-1-.6-1.7-.9-2.6 0-.3-.2-1.3-.4-1.5-.2-.1-.1-.5-.3-.7-.5-.7.8 1.9 1.2 2.8 1.7 3.6 3.7 6.9 5.3 10.6l1.4 2.6c.2.2.9 1 .8.7-.1-1-.5-1.8-.8-2.7l-1.3-4.9c-.3-1.3-.8-2.5-1.2-3.8-.1-.7-.3-1.5-.6-2-.5-1.2-1-3-1.1-4.5-.1-.7 0-.3.3.1 1 1.7 1.7 3.6 2.5 5.4 1.2 3 2.9 5.4 4 8.4l1 2.1c0 .2.6 1.1.8 1.2.4.2-.1-1.4-.2-1.5l-1.2-4.4c-.5-1.6-.7-3.4-1.2-5-.4-1.1-1.3-3-1.3-4.3l.1.3 1 1.7 2.7 5.6 3.5 6.4c.2.3.8 1.6.6.3l-.5-1.6-.8-3a64.2 64.2 0 0 1-1.5-6.2c-.1-.3-.3-.5-.3-.8 0-.4-.1-.4.3.1 1.2 1.7 2.1 3.6 3.3 5.2 1 1.4 2.3 3 3 4.7l1.4 2.3c1 1.3.1-1 0-1.6-.7-1.7-1.3-3.4-1.7-5.2-.3-1.3-.8-2.5-1-3.7 0-.8-.4-1.4-.4-2.1 0-.4-.5-1.8 0-.7l3.1 7.5 1 2c.3.6.5 1.3.8 1.7l.7 1.4c.3.5.1-1.3 0-1.5-.3-2.2-1-4.4-1.7-6.6-.3-1.1-.6-2.4-1.1-3.4l-.9-2c0-.3-.2-.6-.3-.8-.1-.8.7.5.8.6 2 2.9 3.6 6.4 5.5 9.5l1.8 3.1c.4.6.9 2.1.5.2-.7-3.2-1.4-5.9-2.8-8.6-.7-1.3-1.3-2.7-1.5-4.3l-.2-2.2c.3 0 1.2 1.9 1.3 2.1a94 94 0 0 1 5.4 10.9l1 1.6c0-1.2-1-2.8-1.2-3.8-1-2.7-1.8-5.4-2.4-8.3-.2-1-.4-2.1-.8-3.1l-.2-.7L83 57l1.3 2.6.5 1 .7.8c.2.3-.4-1.7-.5-2-.9-2.4-1.7-4.7-2.4-7.3-.1-.7.6.4.8.5l1.6 2.2c.1 0 1 1.5 1 1.3.2-.9 0-2 0-2.9" stroke="#FFD424" stroke-width="2.5" stroke-linecap="round"/><path d="M64.3 80.5h1.2c.4-.1 1-1.2 1-.7 0 1-1.3 2.2.5 1.2.3-.1.7-.9 1-.6.3.3.9.3 1.3.2.5-.2 1.7-1.4 1.3-1l-1 .9M81.8 108c0 .5-.1 2.4.3 2l1.4-2.4c.1-.2.6-1.4 1-1 .3.3.5 1 .8 1.4.4.8.7-.4 1-.9l1-2.6c.3-.9.4-.2.5.4 0 .8 0 1.9.4 2.6v.5l.2-.8.6-3c0-.3.2-1.8.4-1.9 1.1-.3 1 2.7 1.5 2.5.3 0 .5-3 .6-3.3.2-1 .2-2.4.7-3.4.3-.8.4.2.5.7.2.9.5 1.8.5 2.7 0 .9.2 0 .3-.4.4-1.3.3-2.7.8-4 .2-.5.3-1.5.7-1.8.1-.1.6 1.7.6 1.8.1.7 0 1.6.3 2.1l.2-.8a76.4 76.4 0 0 1 1.4-7c.3-1 .4 0 .4.6v2.6c0 1 .7-3.2 1.1-4.1 1-2.2 1.3-3.3 1.3-5.7 0-1 .2-2.2.8-3M55.5 67.6v1.1c.4-.2.6-.6.9-.8 0-.2.9-1.2.9-.8v1.6l.1-.1.4-.6c.4-.5.4-.2.4.2 0 .1-.1 1 .2.7l.6-1M76.8 67.4v1c0 .4 0 .4.2 0l1.4-1.5c.4-.4.3.2.3.4l-.2 1.5c-.2.4 0 .4.3 0l1-.8c.2-.2.1.3.1.4M35.2 68.7c0 .6.6 1.3.8 1.9l.7 2.8.9 2.8.5 1.8c.1 1.9.2 3.8.6 5.7.3 1.8.5 3.5.5 5.3l.1 6.8v3.3l.2 2.6c0 1 .1 2.1-.2 3.1-.2.8-.1 1.8-.1 2.6M39.8 83.7c0 1.9 0 3.5.6 5.2.7 2.1.8 4.2.8 6.4 0 2.7.8 5.3.8 8v4l-.2 1.6M37.7 107v-6.2c.2-1.3.3-2.5.3-3.8" stroke="#C6C6C8" stroke-width="2.5" stroke-linecap="round"/><path d="m58.2 58 3.5 2M76.9 58l-3.5 2M60.4 73.5c5.5 2 10.2 2.4 15.5 0M93.3 117.5c4.1 2.3 12.8-3 7.9-48.9" stroke="#171717" stroke-width="1.5" stroke-linecap="round" stroke-linejoin="round"/><path d="M87.9 118c3 1.5 8 1.8 6.2-8.8M36 106.7a48.3 48.3 0 0 0 24.2 5.7c18.4 0 40.5-9.6 41-44.2C100.7 46.9 90.5 12 58 12 35 12 17 38.3 17 65.1v5.4l-.6 45.5c0 1.6 1.2 2.9 2.8 2.9v0c1.5 0 2.8-1.3 2.8-2.8v-4.3" stroke="#171717" stroke-width="1.5" stroke-linecap="round" stroke-linejoin="round"/><path d="m43.7 110.4 1.2 34.7 8.5 2M74 110.4l1.1 34.7 8.6 2" stroke="#171717" stroke-width="1.5" stroke-linecap="round" stroke-linejoin="round"/><path d="M47.3 35.3c3-8.7 10.3-13 20.3-11.4 13.3 2.2 30.3 10.7 40.8-2.1" stroke="#171717" stroke-width="1.5" stroke-linecap="round"/><path d="M80.3 66.2H55.6c-4 0-7.1-3.2-7.1-7.2v-1.3c0-4 3.2-7.2 7.1-7.2h.2c2 0 4 .5 5.8 1.3l4 1.7a5 5 0 0 0 4.3 0l2.8-1.5c2-1 4.2-1.5 6.4-1.5h1.2c4 0 7.2 3.3 7.2 7.2V59c0 4-3.2 7.2-7.2 7.2ZM34.6 68.4c2.3 16.3 6 49-7 49" stroke="#171717" stroke-width="1.5" stroke-linecap="round" stroke-linejoin="round"/><path d="M22.2 118.3c5.4 1.2 6.8-3 7.6-8.5M81.6 107.6v8c0 2 1.5 3.5 3.4 3.5v0c1.8 0 3.4-1.5 3.4-3.4v-3.2M54.4 66.6v35.6c2-3.3 5.8-15 5.8-35.6M76 66.6v35.6c1.9-3.3 5.8-15 5.8-35.6" stroke="#171717" stroke-width="1.5" stroke-linecap="round" stroke-linejoin="round"/><circle cx="55.9" cy="48.3" fill="#171717" r="2.9"/><circle cx="79.8" cy="48.3" fill="#171717" r="2.9"/><path d="M34.5 68c0 3-.1 5.8.2 8.7.3 2.6 1.3 5 2 7.5.6 2.7.7 5.2.7 8 0 3.2-.3 6.5-1.2 9.6-.7 2.7-1.5 5.5-1.8 8.3-.2 1.6-.8 2.9-1.3 4.4-.3.8-1.3 2.7-2.3 2.7l-2.8.1" stroke="#171717" stroke-linecap="round"/><path d="M29.2 109.6c0 2.9-.1 5-1.4 7.6-1 1.9-5.3 2.3-6.3.4" stroke="#171717" stroke-linecap="round"/><path d="M22 112c0 2.2.5 5.2-1.6 7-.3.4-1.1.2-1.6.2-.9 0-1.2-.2-1.7-.8-.8-1-.6-3-1-4.3-.3-1.8 0-4 0-5.9 0-2.7.4-5.5.4-8.2 0-2.3.5-4.5.5-6.8 0-2-.5-4.5.2-6.4M17.2 86.8V79c0-3-.4-6.1-.4-9.2l.2-7c0-2.2.7-4.3.7-6.5M17.7 56.3c0-2-.3-4.3 0-6.3.3-1.7 1-3 1.7-4.5 1.3-2.8 2.3-5.8 3.8-8.6l1.1-1.9c.4-.7.7-1.4 1.3-2 .5-.5.7-1.3 1.1-1.8l1.7-2.4c.9-1.2 1.6-2.6 3-3.4.9-.6 1.5-1.3 2.3-1.9.4-.3.7-.8 1.2-1" stroke="#171717" stroke-linecap="round"/><path d="M34.9 22.6c0-.5.3-.6.6-.8.6-.3.8-.8 1.2-1.3l2.2-2.2c1-1 2.3-2 3.6-2.7 3.3-2 7.4-2 11-3.2 1.6-.5 3.6 0 5.2 0 1 0 2.2.2 3.3.4.7.1 1.7 0 2.4.2.7.3 1.6 0 2.3.2 1.5.2 3 .1 4.4.4.6.1 2 1.3 2.4 1.7" stroke="#171717" stroke-linecap="round"/><path d="m72.2 14.4 3.6 2.3c1.2 1 2.6 1.7 3.8 2.6.7.4 1.2.9 1.8 1.4.5.5 1.3.7 1.8 1.1.7.7 1.7 1.1 2.3 2L88 27a10 10 0 0 1 1.7 2.9c.4 1 .7 2 1.4 3 .9 1.3 2 2.8 2.2 4.3M93.4 36.9c0 1.3 1 2.5 1.3 3.7.2.6.8 1.2 1.1 1.7a26.8 26.8 0 0 1 3.5 11c0 1.5.4 3 .6 4.6.3 1.3.4 2.7.8 4 .4 1.2.3 2.8.3 4.1 0 1.5.3 3.3-.2 4.6M100.8 70.8c0 2.9 0 5.8-.7 8.6-.6 2.3-1 4.6-1.7 6.8l-1.2 3c-.4 1.5-1.6 2.6-2.2 4.1l-.8 2.3c-.2.7-1.2 2.2-2 2.5-1 .5-1.6 1.9-2.5 2.5-1 .8-1.9 1.8-3 2.5-1.8 1.2-3.4 2.9-5.3 3.9-1.6.9-3.2 2-5 2.6-1 .4-2.3 1-3.4 1.3M35.5 107h1.7l2.4 1.5c1.7.7 3 2 4.8 2.5 3.4 1.1 6.8 2.3 10.4 2.3 2.3 0 4.5-.4 6.7-.4 2 0 4.2-.6 6.2-.6 1 0 2.1-.5 3-.5 1 0 1.8-.7 2.8-.7M81.2 107.4l.2 7c0 .7.2 1.6.4 2.3.1 1 .7 1.5 1.6 1.8 2 .5 3.5.5 4.8-1.3 1.1-1.4.3-4 .3-5.6M88.2 117.5s1.4 1.1 2.5 1.2c.5 0 1.5-.7 2.3-1 .8-.5.7-.7 1-1 1.6-1.8-.1-5.1-.1-7.1" stroke="#171717" stroke-linecap="round"/><path d="M101.5 72.6c-.4 0-.2 6.6-.2 7.3.4 2.5 1 5.2 1 7.8.1 2.2.5 4.4.5 6.7 0 2.8 0 5.5-.6 8.2-.9 4-2 7.8-3.6 11.6-.4 1-.7 1.9-2 3-.9.6-2 .2-3 .2M53.6 147.8c-1.8 0-3.2-.5-4.7-1.3-1.3-.6-2.3-1.3-3.7-1.4-1.6 0-1.2-3-1.2-4.2l-.2-5.2-.2-12.5.2-5.2.3-2.2.2-4.9M83.6 147.7c-2 0-4-.4-5.7-1.5l-1.6-.9c-.4-.2-1.2-.3-1.4-.7-.8-1.3-.7-2.6-.7-4.2v-2.7l.3-4c.1-4.3 0-8.5 0-12.8 0-3.6-.4-6.8-.4-10.4M107.9 22c0 .7-1.4 1-1.9 1.4-.7.6-1.4 1.1-2 1.8-.6.5-1.1 1.1-1.8 1.5-.5.3-1.2.4-1.7.6-1.3.6-3 .8-4.4.8h-5c-2.9 0-6.2.4-9-.4-1.5-.5-3-.5-4.4-1-1.1-.6-2.6-.2-3.7-.7-1-.5-2-1-3.2-1.4-.6-.2-1-.2-1.7-.2a7 7 0 0 1-1.7-.2c-1.1-.5-3-.1-4.2-.1-1.2 0-2.9-.3-4 0l-1.8.7c-.5.3-1.2.2-1.8.5a11 11 0 0 0-3.4 2.2c-1 1-1.3 2.8-2.4 4-.5.6-1 1.2-1.3 2l-.8.9M67.6 54.8c-2 0-3.7-1.6-5.6-2a12 12 0 0 1-2.7-1c-1.5-.7-3.4-1-5.1-1-1 0-3.5 1.2-4.1 2.1-1 1.5-2 2.6-2 4.5 0 1.6.5 4.1 1.6 5.5.8 1 1.3 2.6 2.7 2.8 3 .4 6.2-.3 9.1.4 2.6.6 5.2 1 7.8.2 4-1.1 8.4-1.4 12.6-1.6 4-.2 5.2-5.4 5.2-8.7 0-1-.7-1.5-1.3-2.2-.5-.6-1-1.4-1.8-1.7-1.9-.9-4-1.1-6-1.7-.9-.2-2 0-3 .3s-2.6.8-3.3 1.7c-.7.9-1.7 1.4-2.4 2.3-.5.6-1.7.6-2.4.6" stroke="#171717" stroke-linecap="round"/><path d="M58.5 58.6c1.4 0 2 .6 3.2 1.3l.6.6c-.3 0-.7-.6-1-.7-1-.5-1.9-1.3-3-1.7M73.1 60.7c1 0 1.5-.4 2.2-1.1.4-.4 1.2-1.3 1.2-1.8M54 65.9v33.4M54.3 101.1l.1-1.3.8-2.2 2-4.4c1.4-2.8 1.9-6.7 2-9.7 0-3.4.5-6.7.5-10.1v-3.8c0-.6 0-2 .3-2.5M75.5 65.6v24.3l.2 7.9v2.4c0 .3.5 1.8.7 1 .4-1.8 1.8-3.6 2.5-5.5l1.2-3.3c1-3.8.7-7.8 1.3-11.6 1-5.2-.7-10.5-.7-15.6M75 74h-2c-.6.2-1.3.5-2 .5-1.1 0-2.2 1-3.4 1.2-1.3.2-2.7.3-3.9-.3-.8-.4-3-.9-3.4-1.7" stroke="#171717" stroke-linecap="round"/></g><defs><filter id="a" x=".5" y="0" width="124.4" height="167.6" filterUnits="userSpaceOnUse" color-interpolation-filters="sRGB"><feFlood flood-opacity="0" result="BackgroundImageFix"/><feColorMatrix in="SourceAlpha" values="0 0 0 0 0 0 0 0 0 0 0 0 0 0 0 0 0 0 127 0" result="hardAlpha"/><feOffset dy="2"/><feGaussianBlur stdDeviation="1"/><feComposite in2="hardAlpha" operator="out"/><feColorMatrix values="0 0 0 0 0 0 0 0 0 0 0 0 0 0 0 0 0 0 0.02 0"/><feBlend in2="BackgroundImageFix" result="effect1_dropShadow_716_2021"/><feColorMatrix in="SourceAlpha" values="0 0 0 0 0 0 0 0 0 0 0 0 0 0 0 0 0 0 127 0" result="hardAlpha"/><feOffset dy="4"/><feGaussianBlur stdDeviation="4"/><feComposite in2="hardAlpha" operator="out"/><feColorMatrix values="0 0 0 0 0 0 0 0 0 0 0 0 0 0 0 0 0 0 0.06 0"/><feBlend in2="effect1_dropShadow_716_2021" result="effect2_dropShadow_716_2021"/><feBlend in="SourceGraphic" in2="effect2_dropShadow_716_2021" result="shape"/></filter></defs></svg>