<svg width="179" height="184" fill="none" xmlns="http://www.w3.org/2000/svg"><g filter="url(#a)"><path d="M93.6 12.5a4 4 0 0 0-3.8 4.3l1 14a38.3 38.3 0 0 0-20-5.3 38 38 0 0 0-29.7 16 19 19 0 0 0-13.5-1.3c-6.9 2-12.1 8.6-14.5 20.4l3.9.8-4-.8c-.4 2.3 1 4.5 3.3 5.1l13 3.6c-.6 3.2-.9 6.5-.9 9.9 0 16.4 4.3 27.8 11.2 35.5v3.5c-1.8-.9-4-.5-5.4 1.1a4.4 4.4 0 0 0-.8 4A4.4 4.4 0 0 0 35 132h9c2.4 0 4.4-2 4.4-4.5v-5.7c2 1.2 4.2 2.2 6.4 3v36.2c0 2 1.4 3.8 3.3 4.3l.2-.8-.2.8 8 2.2c2.5.6 4.9-.8 5.5-3.1.7-2.4-.7-4.8-3.1-5.5l-4.8-1.3v-30.7a61.9 61.9 0 0 0 14.8.3l1 34c0 1.9 1.3 3.6 3.2 4.1l8.1 2.2c2.4.6 4.8-.8 5.4-3.1l-3.8-1 3.8 1c.7-2.4-.7-4.8-3.1-5.5l-4.9-1.3-.9-32.3c6.6-2 12.9-5.8 17.8-11.8 4.6-5.6 7.9-13 9.2-22.4 2.4 1.2 5.3 2 8.5 1.3 1.8-.3 3.4-.9 5-1.7l.7 8.1a4.4 4.4 0 1 0 8.9-.8L135.7 80c1.1-4 1.3-8.8.5-14.4-.2-1.4-1-2.6-2.1-3.3L133 51l29.4-2a4 4 0 0 0 3.7-4.2l-2.2-33a4 4 0 0 0-4.3-3.8l-66 4.5ZM126.7 79c0 .4-.2.6-.3.9a6.7 6.7 0 0 1-5.1 3.7c-1.1.2-2.5-.1-4-1.3-.9-.6-1.6-1.3-2.3-2a80.5 80.5 0 0 0-6.2-27.6l15.3-1 1.1 11.4a4.4 4.4 0 0 0 .7 6.7l.8 9.2Zm5.6 19.4-2.8.2 2.8-.2Z" fill="#fff" stroke="#fff" stroke-width="8" stroke-linejoin="round"/><path d="M66.5 60.8c0 .3 0 .5.5.2 0 0 .9-.5.8-.2-.2.5-.6 1-.7 1.6-.1.4-.3.6.2.3s1-.6 1.3-1c.4-.4-.2.9-.3 1-.2.3-.7 1-.7 1.4 0 .3.9-.5 1-.6l1.2-1.4c.1-.1 1-1 .9-.7-.5 1-1.2 1.8-1.8 2.7l-.6 1-.4.4.7-.5 1.7-1.8 1.2-1.2c.2-.2.6-.7.6-.5 0 .2-.4.5-.5.6l-1.1 1.5c-.3.4-1.5 1.7-1.4 2.2l1.6-1.4 2.1-2.3 1.4-1.3c.4-.4.5-.3.3.2-.3.6-.9 1.2-1.3 1.8L71.5 65l-1 1.4s-.3.5 0 .3c1.6-1.2 3-2.7 4.6-4l2.7-2.6c.2-.2.5-.7.6-.5l-.4.7-1.4 2c-.9 1.2-1.8 2.4-2.4 3.8-.1.1-.4.5-.3.7.2.3 1.1-.6 1.2-.7 1.6-1.7 3-3.5 4.4-5.3l.5-.6-.6 1c-1.1 1.8-2.6 3.3-3.8 5-.3.4-1 1.4.1 1.2 1.6-.4 2.9-2.4 3.8-3.5l.8-1.1c.1-.2.4-.3.3 0-.2 1-1.1 2-1.5 3l-.4.8c0 .2 1-.6 1-.7M87 61.8v3c0 1.1 2.4-1.5 2.6-1.7l2-1.8.9-.8c.5-.3-.3 1-.4 1.2-.7 1.3-1.6 2.5-2.5 3.7l-1.2 2.4v.3l1.4-1.7c1.2-1.5 2.5-2.9 3.9-4.2 0-.2 1-1.2.8-.5L93.3 64c-.3.9-.8 1.7-1 2.6-.1.5 0 .6.4.2 2.4-2 4-4.8 6.4-6.8.2-.2-.2 1-.3 1a28 28 0 0 1-2 3.2c-.1.2-1 1-1 1.3.1.1.7-.3.8-.3.8-.7 1.3-1.6 2-2.4a40 40 0 0 1 2.6-3c.7-.7.1.2 0 .5-1.7 2.8-3.9 5.2-5.4 8 0 .3-.5.9 0 .5.6-.3 1-.8 1.4-1.2l2.5-2.5c1.2-1 2.1-2.2 3.3-3.1.8-.6.3 0 0 .5-.7 1.2-2 2.3-2.4 3.6" stroke="#171717" stroke-width="2.5" stroke-linecap="round"/><path d="M37 61.6c.1.9 2.5-1.7 2.7-2 1-1.3.3 1.9.3 2.4 0 1.6 3.2-1 4-1.3 1.6-.8.3 1.6.9 1.2 1.2-.8 2.5-2.3 3.4-3.5.1-.1-.9 2-.6 2.5.6 1 3.7-3.3 4-4 .3-1 .4.8.4 1 0 .6-.5 1.4-.2 2l.4-.6 1.2-1.4c.6-.9 1.2-1.8 2-2.5.8-1-.7 1.7-.7 2.3l.6-.7 1.3-1.4c.7-.7 1.1-1.6 1.9-2.3.4-.5-.3 2.8.6 1.6.5-.8 1.2-1.5 1.8-2.2.4-.6.7-1.3 1.2-1.9l-.4.8.8-.8c.6-.9 1.8-3 2.7-3.3.2 0 .6-2.1.8-2.4.2-.6.8-1.4.8-2" stroke="#C6C6C8" stroke-width="2.5" stroke-linecap="round"/><path d="M73.7 75.8c0 1.2.9 2.3 1.4 3.3.2.5.7 1 1 1.5l.4.5v-.3L76 80l-.8-2.4c0-.3 0-1.1-.2-1.3a52.5 52.5 0 0 1 2 2.6l.8 1c.3.7.3-.1.3-.4 0-1 0-2.3-.4-3.3 0 0-.2-.5-.2-.2.1.5 1 1.3 1.3 1.7l1 1.4c.3.3.2-.2.2-.4a7 7 0 0 0-.2-1.7c0-.1-.2-.9 0-.6.2.2 1.6 3.1 1.7 3 .3-.3 0-1.5 0-1.7l-.4-1.8c0-.6.3.2.4.3.3.5.8 1.2 1 1.8.2.3.3.5.3 0l.1-1.7s0-1 .1-.8c.4.2.6 1.5.8 1.9.3.6.3 1.4.7 2 .2.4.3.6.3 0v-2l-.2-1.6.4 1c.2.6.5 1.4 1 2 .2.2.3.4.3-.2v-1.7l.1-1c0-.3.5.8.6.9l1.3 3c.2.4.2-.1.2-.3l-.1-2.1-.2-1.4c0-.4.3.2.4.3l1 1.2c.1.1.6.8.8.8v-2.4c0-.8.3.3.7.6.1 0 .3.4.3 0l-.2-.7c0-.4-1-.7-1.4-.7l-3-.1c-1.2 0-2.2-.5-3.3-.6H82c-1.4 0-2.8.4-4.2.8" stroke="#171717" stroke-width="2.5" stroke-linecap="round"/><path d="M79 88.5c1.8 0 3.7.2 5.4 0 .4 0 .8-.2 1-.5.3-.2-.3.7-.6 1-1.2 1.3-3.7 1.4-5.2.4-.2-.1-.4-.3-.5-.6-.2-.3-.1-.2.3 0 1 .3 2.1.6 3.2.7h1.2c-.4-.2-1 0-1.5 0-.1 0-.7-.3-.2-.3.4 0 1 0 1.4-.3.3-.2-.4 0-.5 0" stroke="#C6C6C8" stroke-width="2.5" stroke-linecap="round"/><path d="M100.1 43.6c1 0 2 1.3 2.5 1.9.5.4 2.7 2 1.1.9A5.5 5.5 0 0 1 102 44c-.1-.6-.2-1.2-.6-1.7-.3-.3-1-1.5-.6-1.3 1.1.8 2 1.9 3 2.6 1.1.8 2.1 1.8 3 2.7l1 .9c-2.3-2-4-4.9-6.2-7-.3-.2-1.5-2.6-1.5-2.6.4 0 1 .8 1.3 1 .9.5 1.5 1.3 2.3 2 1.3 1 2.5 2.1 3.6 3.4.8.8 1.8 1.3 2.6 2l1.1.7c-1.2-1-2.3-2.7-3.3-3.9a47.3 47.3 0 0 0-5.7-6.1 9.3 9.3 0 0 1-2-2.4l-.5-1.2c2.7 2.7 5.7 5.2 8.5 7.8 1.4 1.3 3 2.2 4.3 3.5l2.3 2.3c1.4 1.1-2.2-2.7-3.3-4a85.5 85.5 0 0 1-5.1-7c-1.8-2.7-4.6-4.6-6.2-7.3l-.4-.4c-.5-.6 1 .8 1.6 1.3l5.4 4.9c1.6 1.4 2.8 3.4 4.4 5 .8.8 1.9 2.1 3 2.7 1 .6 1.8 2 2.9 2.6.9.5 1.5 1.7 2.5 2.2 1 .5-1.3-1.3-1.5-1.5-2-1.9-3.7-4.2-5.6-6.3-1.1-1.3-2.6-2.5-3.8-3.8-.7-.6-1.2-1.5-2-2-1.3-1-2.1-2.5-3.2-3.8l-1.3-1.7c-.4-.6-1.2-1-1.6-1.8-.1-.3-2.7-3.4-.8-2.1 4.7 3 9 6.5 13 10.5 1.5 1.6 3.2 3.1 4.5 4.9l1.9 2.4c.4.5 1.3 1.5 1.9 1.8 1.3.7 2 2.3 3 3.3a56 56 0 0 0-5-4.8c-2-1.5-4.5-3.2-5.7-5.3-1-1.9-2.4-3.4-3.4-5.3-.5-1-.7-1.6-1.5-2.4-1-1.1-2-2.4-2.7-3.8-.8-1.6-1.4-3.2-3-4-1-.6-2.3-1.2-2.8-2.2l-.6-.7c1.4 1.8 2.8 3.5 4.6 5 5.1 4.5 11.7 7.4 16.5 12.2 1.8 1.8 3.5 3.9 4.9 6 1 1.4 1.8 2.9 3 4.1.3.3.8.8.2.4-.8-.5-1.7-1.7-2.5-2.3-2.4-2-4.8-4-7-6.2l-4.5-4.5c-2-1.7-3.6-3.4-5.6-5-2.4-2-4.3-4.3-6.6-6.1-.9-.7-2.3-.8-3.2-1.6-.3-.3-.1-.4.3-.2 1.4.7 2.8 1.8 4.1 2.6 2.9 1.9 5.9 3.6 8.6 5.5 1.8 1.3 3.3 2.9 5.1 4.2l3.7 2.3c1 .7 2.1 2 3 3 .8 1.1 2.3 2 3.5 2.8.8.6 2.4 1.4 3 2.3.4.6 1.3 1 1.7 1.5.1.3.4.4.6.6L131 43c-2.4-2.7-4.6-5.6-7.2-8.2-3.9-3.9-7.8-8-12.2-11.3l-5.7-4.4-2.2-1.5c-1-.5.3 1.6.5 2 1.8 3 5.6 5.3 8.3 7.6.7.5 1.8 1.4 2.6 1.7.2 0 .6.1.8.4l-1-1.5-4.6-6.7c-.4-.8-1.6-1.2-2-1.9l-.8-1c-.7-.8.2-.5.7-.1 1.8 1 2.7 2.9 4 4.4l7.5 8.7c2.6 3 5.6 6.2 8.7 8.6 1.3 1 2.2 2.3 3.6 3 1 .6 2.6 1.4 3.7 1.4.5 0 1.5.4.8-.1-2.8-2.2-5.8-4.3-8.2-7-2.3-2.5-4.5-5.2-7.3-7.4-1.8-1.3-3.5-2.6-4.7-4.5-.7-1.1-1.7-2.2-2.3-3.5-.4-1-1.4-1.6-2-2.6l-1-1.6c-2-1.6 4 3.2 5.8 5 3.8 4 7.6 8 11 12.5a41 41 0 0 0 4 4.5c2.2 2.2 6.4 2 7.8 5 .7 1.7.5.2.5-1 0-4.1-3.2-7.5-6.1-10.1-4.6-4.2-9.9-7.8-14.3-12.3l-3.6-3.6-1-1c2.7 4.9 6.8 9 10 13.5 3 4.1 6.2 9.2 10.6 12 1.6 1 3.4 1 5 1.7.3 0 .6.3.8.5.3.2-.3-1.4-.3-1.5-1.2-1.6-3-2.9-4.3-4.3-2-2-4-4-5.8-6.3a68 68 0 0 1-5-8.5c-.8-1.6-2-3-2.6-4.7-.1-.2-.2-.8-.4-1-.7-.4 1.3 1.2 1.9 1.8 2.5 2.3 4.7 4.9 7.4 7 4 3.4 8.3 6.1 11.9 9.9 1.5 1.6 3.2 3.3 4.2 5.3 0 .2.5 1.1.5.4 0-2.3-2-4.5-3.5-6-4.3-4.2-9.3-7.7-13.6-12-.6-.5-2.6-2-2.6-3 0-.2.5.3.7.5l2.5 2.2c3.5 3.2 7.7 5.6 10.9 9.1 2 2.3 4.3 5.3 5 8.4l.1 1.2c0-2.2 0-4.2-.6-6.3-1.6-5-5.6-8.4-8.8-12.3-.4-.5-1.9-2.5-.3-1.4l6.2 5a69 69 0 0 1 5.2 4.6c1.2 1.1 2.1 2.4 3.4 3.4.3.2-.3-1.5-.3-1.6a52 52 0 0 0-4.5-7c-1.5-2-2.8-4.2-4.2-6.4-.4-.6-1.9-2.3-1.2-2 1.2.8 2.2 2 3.2 3l6.8 6.6c1.8 1.8 3.5 3.9 5.4 5.6 1.2 1-1.6-2.7-2.6-3.9a80 80 0 0 1-6.9-10l-2.6-4.8c-.1-.2-1.2-1.6-.8-.9.9 1.5 2.5 2.7 3.6 4 1.6 1.8 3.4 3.5 5.2 5.2l1.3 1c.3-1.4-.6-3-1-4.2-.5-1.1-1.2-2.2-1.4-3.4-.1-.4-.5-1.2.1-.6 2.2 1.8 4.5 3.7 6.9 5.2l-1-2.2c-1-1.6-2.3-3.1-3-4.9-.1-.4-.4-.8.2-.3.8.9 1.6 1.8 2.6 2.6 0 .1.9 1.2 1 1 .2-.7-.5-2-.7-2.5-.2-.4-.3-1.6-.7-1.2-.2.1.2 1 .3 1.2 0 1.6-6.3-1.1-7-1.4-.3-.1-2.8-1.1-2.3-.5 1.6 2.1 4 3.9 5.9 5.6 1.6 1.5 3.4 3 4.8 4.7 1 1.2.2.7-.6 0-2.6-2.1-4.2-5.1-6.6-7.5-2.6-2.6 4.4 6 6.9 8.8 1 1.2 2.1 2.5 3.3 3.6.9 1 .2.8-.6.2-4.6-3-8-7.2-11.7-11-.3-.2.5 1.2.6 1.3 1.3 2.2 2.5 4.3 4 6.3l4 5.3c.5.6 1.9 2.4 1.3 1.9-6-5.1-22.2-22.3-17.1-16.2 4.3 5.1 9 10 13.2 15.3.7.8 1.4 1.5 2 2.4.2.3.4 1 .6 1 .5.5.6 1.3.8 1.8.2.3.7 1 .6 1.2a11 11 0 0 1-2.2-1.5c-4.1-3.7-7.5-7.8-11.3-11.8-.3-.3-.8-1-1.2-1.2-1.3-.6 1.7 2.2 2.7 3.3 2.9 3.3 7 6.8 8.6 11.1.2.6.5 1 .6 1.7 0 .4.6.8.5 1.1 0 .4-.8-.4-.8-.4L155 37c-1.1-1.2-2.4-2.2-3.3-3.6-.5-.6-.9-1.3-1.6-1.7-2.3-1.1-7.3-7-6-4.8 3.2 5.7 8.8 10 11.5 16l.8 1c.4 1.1-2-1.2-2.9-2-2-1.5-3.7-3-5.2-5-.7-.9-1.6-3.8-1.8-2.8-.2 1 1 2 1.5 2.7l3.6 4.2c.5.6 1.2 1.2 2 1.6.4.3 2.8 1.3 3.3.8.7-.8 0-2.7-.4-3.4-.3-.4-1.3-1.5-1.3-2 0-1 1.2 1.4 1.8 2.1.8 1 1.6 2.3 2.7 3.2 1.4 1.1.3-2.2.1-2.7l-.4-.8 1 1.4c.8 1-2.4-.6-3.6-.9-3.8-1-7.6-1.8-11.3-2.9-1.2-.3-3-1.3-4.3-1-.4 0-.2 1-.2 1.4.2 1.8 2 2.6 2.8 4 .5 1-1.8-1.4-2.7-2.2A142.4 142.4 0 0 1 122.6 17c2.3 2.4 4.6 4.9 7 7.2 4.4 4.5 9 9 12.3 14.5.1 0 1 1 .9 1.1-.1.1-.3 0-.4-.2l-1.4-1.2-5.9-4.7c-4.8-3.9-9.5-7.9-14.2-12-1.8-1.4-3.5-3.4-5.5-4.7-.7-.5.4.7.5.7 3.6 4.5 7 9 11 13.2 2.3 2.4 4.5 4.8 6.9 7 1.4 1.3 0-1.7-.3-2.2-2.6-5.5-6.3-10.4-9.5-15.5l-3.7-6c-.3-.5-1.2-1.5-1.3-2.2-.2-.7 1 1.1 1.5 1.6A194.2 194.2 0 0 0 136 27.3c1.8 1.5 3.5 3.1 5.4 4.5a101 101 0 0 1-9.3-11.4c-1.5-2-3.4-4.1-4.3-6.4-.2-.4 1.4 1.4 1.5 1.5 3.2 3.3 7 6.1 10.5 9 1.4 1.2 2.8 2.6 4.4 3.6 1.2.8-2-2.2-3.1-3.2-2.8-2.7-5.7-5.4-8.2-8.4-.4-.6-2-2.2-1.4-1.8a296.8 296.8 0 0 1 5 5c2.2 2.3 4.4 4.7 6.8 6.9 0 0 1 1.2 1 1 0-.6-.6-1.4-.9-1.8l-2.6-4.2c-1.1-1.8-2.2-3.5-3.4-5.1l.6.9 5.4 6c.3.4 2 3 2.7 2.8.3 0-2-4.2-2.1-4.5-1.1-2.2-1.9-4.5-3-6.7l.4.5c2.2 2.3 4.6 4.4 7 6.4.2.1 2.2 2 2.1 1 0-1.2-1.1-2.8-1.7-3.9-.1-.2-1.5-3.1-1.3-3.1 1 0 3.2 2 4 2.6.7.6 3.3 1.8 2.8 3-.9 2-3.6 3-5.5 3.5-4.2 1.1-8.3 1-12.5.4-.2 0-2.3-.4-2.2-.2.5.7 1.5 1.4 2.2 2l4.2 4c3.7 3.6 7.6 7 11 10.7.4.3 2.6 2.6 2 2.6-4.3.2-8-2.5-11.4-4.7-.7-.4-.9-.4-.4.4 1 1.5 3 3 4.6 4 .8.5 1.5 1.3 2.3 1.7.5.2-1.6-1.3-1.8-1.5-3.3-2-7.5-4.8-11.4-4.9-2 0 1.8 4 2.3 4.6.9 1.2 0 .5-.6 0-2-1.4-4-2.5-6.1-3.7-.3-.1-1.8-1.1-2.2-.5-.5.7-.1 2.3 0 3 .4 1.2 1.6 3.1-.5 2.6a18 18 0 0 1-6.8-3.8c-.2 0-2.6-2.3-2.3-1.4.4 1.6 1.8 3 2.1 4.6.2.7 0-1.2 0-1.2-.1-5.5-.7-11-1-16.5v-7.7c0-1-.1-.5.3 0l1.5 1.9c.3.3.9 1.4 1 1 0-.5-2-4.4-1.6-4.5 1-.4 4 2 4.8 2.6.8.5 1.5 1 2.4 1.2" stroke="#FFD424" stroke-width="2.5" stroke-linecap="round"/><path d="M119 17.8c.1 0 1.3 0 1.2-.1-.5-.6-2-1-2.7-.7-.3.2-.5.6-.5 1 0 .2.4.3.7.4.6.2 1 0 1.6-.4.8-.6 2-.5 3-.3 1.6.3 3.2 1 4.8 1.6l3.2 1c1 .2 2.5.2 3.2 1 .2 0 0-.4 0-.5-.7-1-2.5-1.5-3.7-1.8a9 9 0 0 0-2.5-.3c-.3 0-.5.2-.7.3 0 0-.2.1 0 0l1.3-.5c1.4-.6 2.9-1 4.3-1.4.4-.1 1.2-.4 1.6-.2v.5c.1.2 2.3 0 2.5 0 .4 0 .3 0 .6.2.6.8 1.4 1.4 2.2 2.1 1 .9 1.7 2 2.2 3.2.5 1 .5 1.9.6 2.9 0 .1.2.4 0 .4l-2.4.2-2.3.2c-.6.1-1.2.3-1.7.6-.3.1-.7.3-.7.6 0 .2.1.3.3.3.7.4 1.5.6 2.3.8 2.2.8 4.5 1.5 6.6 2.5 1.2.6 2.5 1.2 3.6 2l.4.6-.6-.4c-1.2-.7-2.5-1.4-3.6-2.3-1.7-1.2-3.2-2.6-5.2-3.3-.2 0-1.2-.4-.8 0l2.8 2.6c1.6 1.4 3.7 3 3.7 5.4v3.3c.1 1.1.4 2.2.4 3.4v.8c-.4.2-1.3 0-1.7 0-.9 0-1.8 0-2.7-.2-1.1 0-2.2 0-3.3-.2-3.2-.5-6.4-1.7-9.5-2.6-1.9-.5-3.7-.6-5.7-.5l-2.7.2-.6.1c-.5.7.5 1.9-.4 2.4-.8.5-2 .3-3 .4 0 0-.7 0-.5.3.2.3 2.2 0 2.4 0 .8 0 1.6.1 2-.7 1.2-2.2-1-4-2.6-5.2-1.4-1-2.8-2.1-3.8-3.6-.6-.8-.7-1.5-.7-2.5" stroke="#FFD424" stroke-width="2.5" stroke-linecap="round"/><path d="M111.9 31.3H109c-.7 0-1-.7-1.7-.7-1.4 0 1.4 2.7 1.6 2.9l3.4 3.4c.2.3.7.6.2.6" stroke="#FFD424" stroke-width="2.5" stroke-linecap="round"/><path d="M102 48.4v4.3a31.3 31.3 0 0 1-1.2-5.4c-.2-1.5-.3 0-1-1.4-.3-.8-.1.2-.1.7 0 1.7 0 .5-.3 2.2-.2 1.1-.5 2.3-.5 3.4v.7c0 .4-.4-1.4-.4-1.4-.4-4-1.2-5.1-1.2-9.2 0-.4 0 1.2-.1.8-.1-.2-.1 0-.1 0 0 .5-.1-1.1-.2-.7-1 3.6-1.5 4.3-1.7 8l-.1.8v-1.3c0-1.7 0-3.3.3-5l.4-3.2V41c-.2-1-.2 0-.3.5 0 1.3-.5 2.7-.8 4-.5 2.3-1 2.6-1.5 5l-.5 1.9c-.1.2-.3-.7-.3-.7-.6-4.3.4-6.6 1.2-10.8.2-1.2.6-.6.6-1.9 0-.7-.3-.5-.5.2l-2.4 6.6c-.7 1.8-1.6 3.6-2 5.5 0 .3-.2-.4-.3-.2v-.9c0-2.1.2-4.1.7-6.2.3-1.5.6-3 .7-4.5 0-.5 0-.8.2-1.3.2-.4.3-.6.3-1V37L89 41.2c-.8 1.9-1.7 3.7-2.4 5.7l-.4 1.7-.2.7c-.2-.5 0-1.3 0-1.8.2-1.2.9-2.4 1.3-3.5.7-1.6 1.4-3.3 1.7-5l.1-1.7.1-1c0-.2-.3-1-.4-.8a14 14 0 0 1-.6 2.2l-2.4 7-1.5 4.6c-.2.5-.2 1.1-.5 1.6l-.1-.2a20 20 0 0 1-.1-4c.1-3.2 1.2-6.3 1.5-9.5l.5-3v-.9c-.1 1.2-.5 2.3-.9 3.4-.6 2-1.3 4-2.1 5.8a112.7 112.7 0 0 0-2.3 5.2v-3c.1-3.6 1.2-7 1.6-10.6a24.4 24.4 0 0 1 .4-2 39 39 0 0 1-.6 2c-.7 2.5-1.8 5-2.5 7.6l-.4 1.8-.1.4c0 .6-.3 1.1-.4 1.6-.1.4-.3 1.4-.3 1-.4-4.2 1.5-8 2.1-12.1l.5-2.4s.3-.7 0-.5l-.4.8-1 2.9c-1 2.5-1.7 5-2.4 7.5-.4 1.3-1 2.7-1 4-.1.6-.3 0-.3.6a51.8 51.8 0 0 1 1.3-15c.2-.6.2-1.4.5-2.2.2-.5.1 0 0 .3-.5 2.7-1 3.3-2.3 5.8a28.6 28.6 0 0 0-2.5 9.8c0 .2-.2.1-.2 0-.4-.7-.2-1.9-.2-2.6.1-3 .3-6 .7-9 .2-1.7.6-3.5 1-5.3l-.1.3-1.4 4.9c-1 2.7-2.4 5.5-2.4 8.5M69.2 30.4l-.1.8-1.1 3c-.6 1.4-1.6 2.4-2.3 3.6l-2.2 3.7c-.8 1.3-1.5 2.7-2.5 3.9l-1 1.3a32.8 32.8 0 0 1-4.6 4.4c-.9.7-1.7 1-2.6 1.5L50.6 54a21 21 0 0 1-7 2.4c-1.8.3-3.4.7-5.1.7-.1 0-.1 0 0 0 1.5 0 2.9 0 4.3-.4 3.5-.7 7.3-1.4 10.4-3.4 1-.7 1.8-1.7 2.5-2.7l2.5-3.7 2.5-3.6 2.2-3.7c.9-1.4 1.7-2.7 2.2-4.3l.8-1.6.7-1.1.1-.9c0-.2-.3.3-.4.4-1.5 1.4-2.5 3.3-3.8 4.9a97.4 97.4 0 0 1-3.8 4.8c-1 1.1-1.9 2.4-2.7 3.7l-2.1 3-1.5 2.1c-1.2 1.4-2.5 3-4.2 3.6a19.3 19.3 0 0 1-4.9 1.2h-.7l-.3-.1-.7-.1h-1l-1.4-.3h.3l1.6-.6c1.5-.7 2.9-1.7 4.5-2.2l1.6-.7c.2-.1.4-.3.7-.3.1 0 .1 0 0 .1" stroke="#171717" stroke-width="2.5" stroke-linecap="round"/><path d="m47.9 51.3.6-.2 1.3-.7c.9-.6 1.6-1.7 2.2-2.6l1.7-2.6 2.9-3.5c.9-1 1.9-2.2 2.6-3.4.7-1.3.9-2.7 1.7-3.9l1-1.3c.5-.4 1-.8 1.3-1.3.3-.4.5-1 .7-1.5l.4-.7-.5 1a94.8 94.8 0 0 1-7.5 10.7c-.7 1.2-1.8 2.3-3 3.3-.8.7-1.6 1.3-2.3 2.2-1.7 1.9-4.3 2.7-6.2 4.2-.8.6-1.7 1-2.6 1.2l-1.7.2c-.3 0-.6 0-1 .2l-.5.2v-.1l.5-.4c.8-.6 1.5-1.4 2.2-2.1 1.3-1.4 2.7-2.8 4.1-4 1.3-1.2 2.3-2.6 3.5-3.9l6.1-6.7 1.3-1.6 1.4-1.9.8-1c.3-.3.1.1 0 .4-.3 2-.7 4-1.6 5.9-.4.8-1 1.6-1.5 2.3-.7 1.1-1.3 2.3-2.2 3.3l-2 2.3c-1 1-1.7 2-2.7 2.8-1 .8-2 1.3-3 1.9l-1 .4M36.8 57.2h1.7" stroke="#171717" stroke-width="2.5" stroke-linecap="round"/><path d="M56.4 36.3c0 .5-.5 1-.8 1.5l-1.3 1.7c-1.2 1-2.4 2.1-3.7 3l-.6.8c-.6.7-1.3 1.2-2 1.6L46 46c-.2.1-.7.3-.8.5M84.3 33l-.3 3c0 1-.6 1.8-.8 2.7M96.4 47.2v4.5M74.7 32.5c-.2 0-.1 1.6-.1 1.8 0 1-.6 1.8-1.2 2.6M19 59.7c0 1 .1 1.9.6 2.8.4.9.4.1.4-.4v-4.4l.2-2.5c0-.2 0-1 .2-1 .7.8 1 2.4 1.3 3.3.5 1 .7 2.2 1 3.3.3.9 1 3.6 1 2.7 0-2.5-.1-5-.4-7.5-.1-1.6-.3-3-.3-4.7v-1.2c0 1.2.8 2.7 1.2 3.8 1 2.8 1.5 6.2 3 8.9 0 .1.4 1.1.3.6-.3-1.5-.3-3-.4-4.6l-.6-7.8v-3.2c0 1.1.5 2.2.6 3.3.3 1.6.5 3.2 1 4.7.4 1.7.8 3.4 1.4 5l.8 3.2-.5-12.7V46c0 1 .3 2 .5 3 .6 2.1 1.1 4.3 1.8 6.4.5 1.4 1 3 1.3 4.4.2.8.8 1.8.8 2.7 0 1 .1-.2.1-.6 0-1.6-.3-3.3-.4-5-.2-2.5-.6-5-.6-7.7l-.1-2.8v-1.7c.3-.6 0-1.2.2 0 .4 2 1 4.1 1.6 6.1.4 1.3.8 2.6 1 4 0 .2.1 1.2.3 1.3 0 .1.2 1.1.2.5 0-2.6-.3-5.5.1-8l.2-2c0-.9.4.6.5.8.6 1.3 1.2 2.6 1.6 4 .1.6.3 2.3.5 1.7.4-1.5.9-6.4.9-4.7" stroke="#171717" stroke-width="2.5" stroke-linecap="round"/><path d="M30.6 45.2c0 1 .6 2 .6 3 0 .4.2.7.3 1.1.2.5.5 1.1.5 1.7M25.2 54.3V52c0-.6-.3-1-.4-1.5-.3-.7-.3-1.5-.6-2.1 0-.3-.1-.7-.3-1" stroke="#171717" stroke-width="2.5" stroke-linecap="round"/><path d="M94.6 17.7h3.5l-.7.4c-.6.4-.9 1-1.4 1.4l-1.2 1 .5.1 1.4.4c.2.1 1.1.4.8.6-.9.4-1.3 1.3-2 2l-.5.5c.5.3 1.3.2 1.9.3.1 0 1.3.2 1.3.4 0 .3-1.1.7-1.3.9-.9.9-1 2-1 3.2l2.6.7c.4.2-1.8 1.2-2 1.3-.5.5-.4 2.1-.3 2.8 0 .7 2.4.3 3 .4.2 0 .4.2.2.5l-.8.4c-.5.3-1.1.7-1.5 1.2-.6.6-.7 2.1 0 2.8.3.3 1.3 0 1.5.4" stroke="#C6C6C8" stroke-width="2.5" stroke-linecap="round"/><path d="M32.9 79.2c0-25.1 16.7-49.7 38.3-49.7 30.3 0 39.9 32.6 40.3 52.6-.4 32.3-21 41.3-38.3 41.3-18.3 0-40.3-7.6-40.3-44.2Z" stroke="#171717" stroke-width="1.5" stroke-linecap="round" stroke-linejoin="round"/><path d="M71.4 29.8c-2 9.9-11.9 29.7-35 29.7M42.2 47C36 42.6 22.3 39.6 18 61.4" stroke="#171717" stroke-width="1.5" stroke-linecap="round" stroke-linejoin="round"/><path d="M81.5 83.4c5 0 9.2-3.5 10-8.2.2-1-.6-1.8-1.6-1.8H73.2c-1 0-1.8.9-1.7 1.8.9 4.7 5 8.2 10 8.2Z" stroke="#171717" stroke-width="1.5"/><path d="m83.3 123.1 1.1 37.8 8 2.2M59.8 121.7v39.2l8 2.2M107.7 59.6H36.2M44.5 79.8v47.6m0 0h-9m9 0-6.4-5.2" stroke="#171717" stroke-width="1.5" stroke-linecap="round" stroke-linejoin="round"/><path d="M124.9 37c2.9-.4 5-3.4 4.6-7-.4-3.4-3-6-6-5.6-3 .3-5 3.4-4.7 6.9.4 3.4 3.1 6 6 5.7ZM149.8 34.2c3-.3 5-3.4 4.6-6.8-.4-3.5-3-6-6-5.7-3 .3-5 3.4-4.6 6.8.4 3.5 3 6 6 5.7Z" stroke="#171717" stroke-width="1.5"/><path d="m134.2 23.3 1.4 12.3 6.3-.7M110.6 31.4l.8 6.8m-.8-6.8L115 25m-4.4 6.4-6-5.2M102.3 59.6H85.5c-.2 3.2 1.2 9.5 8.6 9.5 7.3 0 8.5-6.3 8.2-9.5ZM82.4 59.6H65.7c-.3 3.2 1 9.5 8.5 9.5 7.4 0 8.6-6.3 8.2-9.5ZM111.5 82.6c7 6.4 20.7 12.2 20.8-15.5 0-.4-.3-.8-.7-.8L126 65M127 69l4.6-2.2M67.3 40.5c2.8 4.1 14.1 12 36.9 10.8" stroke="#171717" stroke-width="1.5" stroke-linecap="round" stroke-linejoin="round"/><path transform="rotate(-3.9 290 -1379.5)" stroke="#171717" stroke-width="1.5" stroke-linecap="round" stroke-linejoin="round" d="M0 0h66.2v33.1H0z"/><path d="m97.3 16.3 2.3 33" stroke="#171717" stroke-width="1.5" stroke-linecap="round" stroke-linejoin="round"/><path d="m128.6 47.6 4.9 50.7" stroke="#171717" stroke-width="1.5" stroke-linecap="round"/><path d="M103.6 51.7h-7.5c-1.3 0-2.7-.3-4-.4-.6 0-1.3 0-1.8-.4a4 4 0 0 0-1.7-.3c-1.3 0-2.4-.8-3.7-.8-1.2-.1-2.3-.7-3.4-1-1.5-.5-3-1-4.3-1.7l-1.2-.4c-.2-.1-1.3-.4-1.1-.5M75.1 46.2c-.8 0-1.5-.7-2.3-.8-.6-.1-1.4-.4-1.7-1-.5-.5-1.3-1-1.9-1.4-.8-.6-1.4-1.3-2-2M126 65.3c1 0 4.1 1.1 5 1.1.4 0 1.1-.1 1.2.2M71.5 73.4l1.3-.3.9-.1c1.5-.3 3 0 4.5 0l3.7.1c.9.1 1.8.3 2.8.3l1.1-.2 1.4-.1h2l1.4.1c.4.1.8 0 1.2.3M91.8 73.5c.5.3.4 1 .5 1.4V76c0 .4-.3.6-.4 1-.2.6-.5 1.2-1 1.7l-.6.9-.9.9c-.5.7-1.4 1-2 1.7-.3.3-.8.5-1.2.7l-1.3.5-.9.3c-.3.2-.8.2-1.1.3h-1.3l-1 .2" stroke="#171717" stroke-linecap="round"/><path d="m80.7 84.2-2.4-.2c-.4 0-1-.2-1.3-.4l-.7-.5-.9-.8-.9-.7-.3-.5-.4-.6-.9-1c-.2-.2-.2-.5-.3-.7l-.3-.5c-.2-.3-.3-.7-.6-1a2 2 0 0 1-.3-.6v-.5c-.2-.2-.1-.6 0-.8v-1.8M83.7 123.3c0 3-.1 6 .6 8.8.2.9 0 2 0 2.9v4.7c0 .5 0 1.2.2 1.7M59 123.3c0 3 0 6 .6 8.8.2.9 0 2 0 2.9l.2 2.5v2.2c0 .5-.2 1.2 0 1.7M84.5 141.4l.2 3.4-.1 5v5.9c0 1.8.3 3.4.9 5M59.9 141.4l.2 3.4-.1 5v5.9c0 1.8.3 3.4.9 5M85.6 160.8c1 0 1.7 0 2.6.2.4 0 1 .4 1.3.7.3.4.9.5 1.3.6.5.1.9.3 1.3.6M103.6 51.7c.3 0 .7.6.8.8.3.4.3 1 .5 1.3.5 1.2.3 2.6 1 3.9l1.1 2.5 1.3 3.3c.4.9 1 1.5 1.4 2.4.2.7.2 1.5.2 2.2l.2 2c0 2.8.5 5.7.5 8.5M110.5 78.5v13c0 1 0 1.8-.2 2.7l-.6 2.1-.4 1.5c-.4.8-1.2 1.6-1.4 2.5l-.6 1.8M107.2 102.2c0 .6-.3.9-.7 1.4-.3.5-.3 1.2-.6 1.7-.3.7-.3 1.4-.9 2-.6.6-1.5 1-2.1 1.7-.4.4-.6.9-.8 1.3-.4.9-1.2 1.3-1.7 2-.8 1.4-2.5 2-3.6 3l-1.6 1.5c-.4.4-.9.5-1.2.8l-1.4 1c-.5.2-1.1.3-1.6.7-.9.8-2.4.7-3.4 1.3a4 4 0 0 1-1.2.4c-.6 0-1 .4-1.6.4M84.8 121.2c-1 0-1.9 0-2.8.4l-1.6 1-1.8.3c-1.4.3-2.9.8-4.3.8h-4.1c-2.4 0-4.7-1-7-1-1.3-.1-2.2-.9-3.3-1.2-.4 0-1-.2-1.2-.4l-.8-.9M58 120.7c-.7 0-1.2-.4-1.8-.5l-1.5-.4a15 15 0 0 1-2.4-1c-.7-.5-1.6-.8-2.2-1.4-.4-.3-.8-.5-1.1-.9-.4-.3-.6-.8-1-1-.7-.4-1.4-1.2-2-1.8-.5-.5-.8-.6-1.2-1.2l-1.4-1.3-.5-.5-.4-.5-1-.8c-.6-.3-1-1-1.5-1.1" stroke="#171717" stroke-linecap="round"/><path d="M40.6 108.9c0-.6-.3-1.3-.5-2" stroke="#171717" stroke-linecap="round"/><path d="M41.4 109c-.6 0-1.3-1.1-1.8-1.6-.3-.3-1-.8-1-1.3 0-.6-.4-1.2-.5-1.8l-.8-1.6c-.6-1-1.3-1.8-1.5-3a26 26 0 0 0-.4-2l-.4-2.1c-.3-.6-.2-1.4-.4-2 0-.6-.4-1.3-.4-2v-5.3c0-.3-.3-.6-.3-1 0-.8-.3-1.8-.5-2.7l-.1-1.4M33.2 81.2c0-1.4-.2-3 .2-4.3.5-1.8.2-3.8.2-5.7 0-1.7.4-3.9 1.4-5.4.4-.6.4-1.5.6-2.2l.6-2.7M132.2 68.6v5c0 1.2 0 2.4-.3 3.6l-.4 2c-.1.6-.4 1.4-.7 2-.8 1.4-1.6 2.9-2.7 4-.4.4-.7 1-1.2 1.3l-1.2.8c-1.3.6-2.6.7-4 .7h-1.2c-.4 0-.8-.2-1.1-.3l-2-.7c-.7-.3-1.4-.5-2-.9l-.6-.5-.7-.6c-1-.6-1.3-1.7-2-2.5-.2-.3-.4-.8-.7-1l.2.3 1.3 2c.6.7 1.3 1.3 2 1.8 1 .6 1.8 1.4 3 1.8 1 .3 2.3.3 3.5.3 1.3 0 2.7.2 4-.3.7-.3 1.6-.5 2-1.2l2.8-3.5M71.4 29.7c0 2.5-1.5 4.9-2.4 7.2-.3 1-1 1.7-1.4 2.7L66.3 42c-1.1 2-2.8 3.6-4.2 5.4-.6.9-1.2 1.7-2 2.5l-3 3a22 22 0 0 1-5.1 2.8c-1.6.6-3.3.8-4.8 1.3-1.4.5-2.7 1.2-4.1 1.6l-2.1.4c-.8 0-1.5.4-2.3.5l-1.6.2c-.4 0-1 .3-.8-.2.6-1.4 1.5-3.8 2.4-5 2.7-3.6 4-7.4 6.8-10.9.9-1 2-1.6 2.8-2.8A38.8 38.8 0 0 1 61.2 31c2-.8 4.3-1.7 6.7-1.7 1 0 2-.1 3 .1.2 0 1.5.4 1 .4" stroke="#171717" stroke-linecap="round"/><path d="M72.2 30.2c2 0 4-.3 6 .1.9.2 1.9.2 2.7.6.9.5 1.8 1 2.7 1.3 1.5.4 2.9 1 4.3 1.6l2.6 1.6c.7.4 1.2 1.2 2 1.7l2.8 2.3c.7.5 1.2 1.3 1.8 1.8.4.4 1 .8 1.2 1.2l1 1 1 1.7c1.2 1 2.6 1.6 3.3 3 .4.6.2 1.6.2 2.3 0 .9-1.8.5-2.5.5h-3.6c-1.8 0-3.8.2-5.7 0a33 33 0 0 1-5.2-1l-6-2c-2-.5-3.8-1.3-5.6-2.4-1.8-1-3.5-2.2-5.3-3.4-.6-.4-1.2-.6-1.8-1.1l-.6-.7M42.4 47.6c-.3 0-.7-.3-1-.4l-1.3-.5c-.7-.2-1.5-.3-2-.7-1-.7-2.3-1.3-3.5-1.3-2.5-.1-5.7-.5-7.6 1.4l-1.9 1.7c-.8.7-1.4 1.5-2 2.2-.7.6-1.5 1.2-2 1.9-.3.6-1 1.3-1 2 0 .8-.4 1.8-.7 2.5l-.6 2c-.4.8-.9 2.1-.9 3M35.4 127.1h4.8c1 0 2 0 2.8-.2.5-.2.9-.2.9-.7v-1.3c0-1.8 1.1-3.8 1.1-5.6 0-2.2-1.4-3.7-1.1-5.9 0-1.1-.6-2.9-.3-4 .4-1.3.7-3 .7-4.5l.1-4.1c0-1.1-.3-2.9.1-4 .3-1 .1-2.1.3-3.1.2-.8 0-1.6.1-2.4.2-.4.1-1 .1-1.4l-.2-4-.3-6M132.3 69l-.3-2v-.5c-.2-.1-.5.4-.5.4-.6.4-3 .9-3.5 1.3l-1 .8M36.9 60h6.3c1.7 0 3.6 0 5.3.2 2.8.5 5.8.2 8.7.2 1.3 0 2.7 0 4-.2 1.2-.2 2.5 0 3.7-.2 1-.2 2 0 2.9-.2.8-.2 1.7-.2 2.5-.1.4 0 1 0 1.3-.2h2.7l8.3.2H97.8l3.4.3h6.4-4.4c-1.4-.2-3-.5-4.4-.5l-7.2.3c-.5 0-1.1.1-1.6.3-.6.2-1.3 0-2 .2-1 .2-2 0-3 0H72.3c-3.2-.4-6.4-.3-9.7-.3M85.6 61.1c0 1.5.7 2.9 1.4 4.1l1 1.5c.2.4.6.7 1 1.2.8 1 2 1.2 3.2 1.3 1.3.2 2.6.2 3.9 0l1.8-.6c.4-.1.9-.2 1.2-.6.9-.8 1.4-2 2.2-2.9.6-.5.7-2 .7-2.7 0-.5.2-1.6-.1-2" stroke="#171717" stroke-linecap="round"/><path d="M65.6 60.4c0 1.3 0 2.4.5 3.5.6 1.2 1.3 2.7 2.3 3.6.9 1 2 1.6 3 2.5.6.5 2.4.4 3.2.2 1.4-.2 2.4-.8 3.6-1.5l1.5-1.2 1.3-1.2a9 9 0 0 0 1.7-3.7c0-.5.3-1.8-.3-2M149.6 21.7h-1.2c-.6 0-1.2.4-1.6.7l-1.3 1.4-.7 1.2c-.2.5-.2 1.1-.2 1.7v1.6l.3 1.5c.2.6.5 1.1.6 1.8l.5.7.3.1.2.4c0 .2 0 .3.2.3.4.3.7.6 1.2.8.3.1.6.2 1 0l1.5-.2c.7-.1 1.5-.5 2.1-.9.4-.2.7-.4 1-.8l.4-1.1.7-1.3c.2-.6.2-1.2.2-1.8 0-.7-.1-1.2-.4-1.8-.1-.1-.2-.3-.4-.3s-.3-.3-.4-.5l-.5-1-.5-.7-.3-.4c-.3-.3-.7-.4-1-.5-.5-.2-1-.5-1.7-.5M134 23.8v6.7l.2.9.1 1 .3 1.2.2.6v.8l.2.4.1.4h.4c.6 0 1.1-.2 1.7-.3l2.8-.2M124 24.6h-1c-.7 0-1.3.2-1.9.4-.5.2-1 .6-1.4 1.1a11.5 11.5 0 0 0-.9 5.4c.1 1.3.4 2.9 1.5 3.7 1 .7 2.4 1.3 3.7 1.3.8 0 1.4-.3 2.1-.7l1.4-1.1.7-.8c.2-.2.5-.6.6-1 .3-.7.3-1.6.3-2.5 0-.8-.3-1.5-.5-2.3l-1-2-.6-.8-.8-.7c-.6-.4-1.4-.3-2.1-.3M105.5 26.2l.2.1 1.3.9 2 1.6c.6.4 1.1 1 1.6 1.5l.4.3.2-.5c.4-.8 1-1.4 1.4-2.1l1.2-1.6.9-1c0-.2.2-.3.3-.4 0 0 .2-.2.1 0l-1.8 2.4-1 1.3-.8 1.2c-.3.3-.5.7-.5 1.2 0 .7 0 1.5.2 2.2l.5 1.4.2 1.2c0 .8 0 1.6.2 2.4M149.1 27.1l.2 2.4M148.2 28.6l2-.3M124 29.3l.3 2.3M123.1 30.7l2-.3M133.5 98c0-3.3-1-6.7-1-10 0-1.4-.4-2.7-.4-4v-4.2c0-1.5-.7-2.8-1-4.2-.1-1.7-.3-3.5-.3-5.3 0-1.9-.5-3.8-.5-5.7v-5.5c0-.3 0-.7-.2-.8M130.1 58.3c0-1.2-.3-2.3-.5-3.4 0-1-.4-2-.7-3-.3-1.5-.4-2.9-.4-4.4" stroke="#171717" stroke-linecap="round"/><path d="M96.6 49h9.8c1.4 0 3 .1 4.3-.2 1.9-.5 3.7-.5 5.6-.5 3.4 0 6.8-.3 10.1-.8 3.6-.5 7.3-.3 11-.5l12.4-.9c1 0 1.6-.3 2.4-.3 1 0 1.8-.2 2.7-.6 2.6-.4 4.2-.4 7-.4M96.4 49.6c0-3.6 0-7.1-.7-10.7l-.8-4-.4-5.1c-.2-2.8-.2-5.5-.2-8.2l-.1-3.5-.1-1.6" stroke="#171717" stroke-linecap="round"/><path d="M100 48.8c0-3 .2-6-.5-8.9-.3-1.2-.4-2.4-.6-3.7l-.2-2-.3-2.7v-6.3c-.2-1.8-.2-3.7-.2-5.6v-1.9c-.1-.2-.4-.1-.2-.1s.1-.7 0-.9M94.2 16.5c3 0 5.3-1 8.2-1l7.4-.1c5.1 0 10.3-1 15.4-1l4.5-.3c2.3-.2 4.5-.5 6.7-.5 3.3 0 6.6-.3 10-.3 2.3 0 4.5-.6 6.8-.7l4-.3c.5 0 1.6.2 1.8-.3M159 12.1c0 1.6 1.4 3.1 1.6 4.7 0 .4.3.8.3 1.3l.3 1.3c.8 3.7.6 7.6.6 11.3 0 3 .6 5.9.6 8.8v5.6" stroke="#171717" stroke-linecap="round"/></g><defs><filter id="a" x="1" y="0" width="177.1" height="183.5" filterUnits="userSpaceOnUse" color-interpolation-filters="sRGB"><feFlood flood-opacity="0" result="BackgroundImageFix"/><feColorMatrix in="SourceAlpha" values="0 0 0 0 0 0 0 0 0 0 0 0 0 0 0 0 0 0 127 0" result="hardAlpha"/><feOffset dy="2"/><feGaussianBlur stdDeviation="1"/><feComposite in2="hardAlpha" operator="out"/><feColorMatrix values="0 0 0 0 0 0 0 0 0 0 0 0 0 0 0 0 0 0 0.02 0"/><feBlend in2="BackgroundImageFix" result="effect1_dropShadow_716_1658"/><feColorMatrix in="SourceAlpha" values="0 0 0 0 0 0 0 0 0 0 0 0 0 0 0 0 0 0 127 0" result="hardAlpha"/><feOffset dy="4"/><feGaussianBlur stdDeviation="4"/><feComposite in2="hardAlpha" operator="out"/><feColorMatrix values="0 0 0 0 0 0 0 0 0 0 0 0 0 0 0 0 0 0 0.06 0"/><feBlend in2="effect1_dropShadow_716_1658" result="effect2_dropShadow_716_1658"/><feBlend in="SourceGraphic" in2="effect2_dropShadow_716_1658" result="shape"/></filter></defs></svg>